<?xml version="1.0" encoding="UTF-8"?><svg xmlns="http://www.w3.org/2000/svg" viewBox="0 0 180 180"><path d="M62.89 59.44c-.11 4.97-.53 9.96-.72 14.93s-.54 9.7-.11 14.51c.75 8.28 4.65 15.72 11.62 20.43 1.72 1.16 3.56 2.17 5.5 2.91s3.97 1.81 6.1 2.01c1.3.12 1.59-1.71.63-2.31-1.45-.92-3.16-1.39-4.63-2.31s-2.81-1.94-4.1-3.01c-2.61-2.17-5.06-4.65-6.87-7.53-4.46-7.1-3.62-15.66-3.77-23.69l-.15-7.72c-.05-2.74-.3-5.48-.31-8.21 0-2.04-3.13-2.04-3.17 0Z"/><path d="M63.62 64.85c-1.91-1.5-4.38-1.8-6.55-.66-1.85.98-3.12 2.82-3.94 4.69-1.91 4.32-2.81 10.14-.45 14.46 1.68 3.06 5.21 5.24 8.46 6.27.85.27 1.82-.25 2.15-1.05.37-.91 0-1.71-.74-2.27-2.39-1.82-5.68-2.72-6.74-5.86-.43-1.28-.52-2.63-.45-3.97.05-1.09.11-1.46.34-2.53s.51-2.08.91-3.08c.11-.28.33-.75.56-1.16.14-.25.3-.5.45-.74 0 0 .36-.49.19-.27.28-.36.61-.72.98-1-.25.19.34-.19.4-.23.37-.2-.13.01.24-.1.99-.3 1.56-.15 2.7.05 1.31.23 2.81-1.5 1.48-2.55Zm11.19 58.74c.28-4.98.33-9.97.35-14.96.01-2.41-3.76-2.42-3.75 0 .02 4.99.07 9.98.35 14.96.11 1.96 2.94 1.96 3.05 0"/><path d="M72.31 121.63c-3.27.78-6.59 1.36-9.86 2.12-3.12.73-6.21 1.53-9.29 2.39-6.14 1.71-12.33 3.59-18.22 6.04-2.74 1.14-5.33 2.49-7.55 4.5-1.99 1.8-3.57 4.08-4.82 6.44-2.14 4.05-3.75 8.38-4.63 12.87-.49 2.49-.9 5-1.37 7.5-.37 1.98-.59 4.03-1.08 5.99-.52 2.09 2.58 3.59 3.6 1.52 1.75-3.54 2.3-7.49 3.09-11.32s1.82-7.79 3.48-11.53c.99-2.24 2.14-4.52 3.75-6.4 1.73-2.01 3.88-3.41 6.26-4.54 5.44-2.58 11.38-4.27 17.1-6.11 3.35-1.08 6.72-2.09 10.08-3.11s6.86-2.21 10.33-3.11c2.09-.54 1.21-3.74-.89-3.24ZM60.13 76.68c.14.04.27.09.4.15l-.29-.12c.38.16.74.38 1.07.63l-.25-.19c.3.24.57.52.81.82l-.2-.26c.26.34.48.71.65 1.11l-.13-.32c.06.14.11.27.17.41l-.13-.32c.11.27.2.54.34.8.14.27.49.54.78.6s.58.05.85-.07c.25-.11.5-.29.63-.54l.13-.31c.06-.23.06-.47 0-.7-.05-.3-.19-.59-.33-.86-.09-.19-.2-.36-.32-.53-.28-.41-.6-.81-.97-1.14a6.6 6.6 0 0 0-2.58-1.49c-.61-.18-1.35.22-1.49.85-.15.66.2 1.28.85 1.49Zm53.81-17.24c-.01 4.64-.33 9.3-.42 13.94s.01 9.13-.27 13.67c-.24 3.76-.98 7.42-2.8 10.75-1.65 3.02-3.97 5.51-6.5 7.82-1.39 1.27-2.91 2.36-4.44 3.45-1.68 1.2-3.67 1.75-5.4 2.84-.96.61-.67 2.43.63 2.31 1.85-.17 3.52-1.02 5.24-1.69 1.78-.69 3.48-1.43 5.11-2.43 3.36-2.05 6.19-4.75 8.42-7.99 5.24-7.64 4.75-16.91 4.42-25.76l-.31-8.21c-.11-2.91-.42-5.81-.48-8.71-.04-2.04-3.17-2.05-3.17 0Z"/><path d="M117.87 67.4c1.11-.2 1.66-.34 2.61-.07.39.11.06-.02.33.13.06.03.65.41.4.23.37.28.69.64.98 1s.99 1.65 1.2 2.17c.4.99.69 2.03.91 3.08s.28 1.44.34 2.53c.07 1.34-.03 2.69-.45 3.97-1.04 3.14-4.35 4.04-6.74 5.86-.72.55-1.14 1.37-.74 2.27.35.8 1.27 1.33 2.15 1.05 2.9-.92 5.87-2.72 7.73-5.17 1.79-2.36 2.29-5.46 2.07-8.36-.32-4.07-1.58-8.98-5.07-11.48-2.21-1.59-5.08-1.42-7.2.25-1.33 1.04.17 2.78 1.48 2.55Zm-9.63 56.19c.28-4.98.33-9.97.35-14.96.01-2.41-3.76-2.42-3.75 0 .02 4.99.07 9.98.35 14.96.11 1.96 2.94 1.96 3.05 0"/><path d="M106.8 124.87c6.09 1.58 12.12 3.62 18.13 5.5 5.93 1.86 11.88 3.75 17.64 6.07 2.37.96 4.77 2.14 6.65 3.89 1.83 1.7 3.15 3.79 4.26 6 1.88 3.75 3.11 7.64 3.99 11.73.93 4.33 1.45 8.91 3.43 12.92 1.01 2.05 4.13.59 3.6-1.52-.44-1.75-.62-3.59-.96-5.36-.42-2.18-.79-4.37-1.19-6.55-.82-4.46-2.13-8.54-4.05-12.67-2.39-5.15-5.92-9.32-11.11-11.78-5.71-2.71-11.98-4.58-18.05-6.32-3.53-1.02-7.08-1.98-10.66-2.82-3.58-.85-7.22-1.49-10.8-2.34-2.1-.5-2.99 2.69-.89 3.24Zm12.43-50.52c-.97.29-1.83.81-2.58 1.49-.37.34-.69.73-.97 1.14-.12.17-.23.35-.32.53-.13.27-.28.56-.33.86-.05.35-.07.7.13 1.01.16.24.36.42.63.54.57.24 1.34.05 1.64-.54.13-.26.22-.53.34-.8l-.13.32c.06-.13.11-.27.17-.41l-.13.32c.17-.4.39-.77.65-1.11l-.2.26c.24-.3.5-.58.81-.82l-.25.19c.33-.25.69-.46 1.07-.63l-.29.12c.13-.06.27-.11.4-.15.3-.1.56-.28.72-.56.15-.26.22-.64.12-.93-.2-.61-.84-1.04-1.49-.85Zm-58.21-8.41c-3.06-3.26-3.68-8.05-4.16-12.5-.24-2.28-.48-4.56-.73-6.84-.32-2.99-.61-6.15.7-8.86s4.84-4.56 7.41-3c-1.67-3.01-1.45-6.97.54-9.78s5.64-4.34 9.04-3.77c-1.44-3.28 1.89-7.05 5.44-7.47 3.56-.42 6.96 1.37 10.09 3.1 2.12-3.65 6.64-5.72 10.79-4.95s7.62 4.33 8.29 8.49c4.17-.97 8.97-.81 12.21 1.98s3.68 8.8.02 11.02c3.49-1.5 8.07-.81 10.29 2.27s.8 8.34-2.9 9.19c3.45 1.01 4.51 5.95 2.46 8.9s-6.1 3.94-9.64 3.38c1.31 1.7-.4 4.07-2.11 5.37s-3.78 3.08-3.15 5.14c-1.31-3.13-3.47-12.29-5-15.32-1.36-2.71-4.19-.5-6.19.07-9.79 2.8-19.79.32-29.6-.92-1.04-.13-2.17-.21-3.08.33-.7.42-1.15 1.14-1.58 1.83-2.03 3.3-3.9 10.71-5.92 14.01"/><path d="M62.21 64.76c-1.8-2.05-2.56-4.72-3.02-7.36-.53-3.07-.71-6.22-1-9.33-.27-2.9-.93-6.22.18-9.02.7-1.76 2.94-3.7 4.9-2.62 1.74.96 3.55-.95 2.66-2.66-2.66-5.09 1.53-11.52 7.38-10.67 1.3.19 3.05-.86 2.43-2.43-.88-2.24 1.14-4.31 3.24-4.86 3.21-.84 6.69 1.27 9.37 2.75.97.54 2.18.22 2.75-.72 1.78-2.9 5.46-4.7 8.85-3.92s5.88 3.6 6.48 7c.2 1.15 1.55 1.68 2.57 1.46 3.46-.76 8.26-.9 10.77 2.12 1.54 1.85 2.06 5.5-.2 6.96-.92.59-1.35 1.73-.9 2.75.4.91 1.57 1.69 2.6 1.28 2.56-1.04 6.4-1.07 8.01 1.64 1.14 1.92.34 4.94-1.81 5.51-2.25.59-2.06 3.69 0 4.37 1.85.61 2.28 3.39 1.41 5.08-1.29 2.5-4.84 3.19-7.39 2.83-.92-.13-1.79.01-2.39.81-.52.7-.69 1.76-.18 2.52.15.22.18.4.15.07.03.33.02.25-.06.42-.15.36-.37.68-.61.98-.72.87-1.71 1.46-2.54 2.22-1.81 1.64-3.01 3.79-2.41 6.28 1.44-.4 2.89-.8 4.33-1.19-1.6-3.82-2.54-7.91-3.84-11.83-.59-1.79-1.16-4.07-2.66-5.33-2.06-1.74-4.47-.62-6.63.23-2.83 1.13-6.11 1.39-9.14 1.44-3.31.06-6.62-.25-9.89-.69s-6.57-1-9.86-1.44c-1.42-.19-2.86-.38-4.24.11-1.47.53-2.43 1.7-3.21 3-2.63 4.36-3.28 9.67-5.89 14.03-1.4 2.35 2.26 4.48 3.66 2.14 2.19-3.68 3.18-7.94 4.87-11.84.37-.84.78-1.67 1.27-2.44.68-1.06 1.43-.93 2.61-.79 2.95.34 5.88.86 8.82 1.26 6.01.82 12.05 1.34 18.07.27 1.32-.23 2.66-.51 3.92-.99.73-.28 2-1.13 2.82-1.08.17 0 .13-.1.13-.1.16.07.41.71.39.67.23.51.57 1.53.81 2.25 1.33 4.06 2.08 8.37 3.68 12.33 1.06 2.62 5 1.7 4.33-1.19-.15-.65.73-1.35 1.15-1.74.87-.81 1.89-1.45 2.68-2.34 1.69-1.92 2.78-4.63 1.23-6.97-.86 1.11-1.71 2.22-2.57 3.34 4.75.68 10.59-.63 12.76-5.44 1.9-4.22.22-9.7-4.37-11.21v4.37c4.89-1.29 6.85-7.3 4.75-11.63-2.32-4.76-8.74-6.03-13.32-4.15l1.7 4.03c4.3-2.81 4.67-8.95 1.75-12.92-3.56-4.85-10.25-5.22-15.65-3.99.86.49 1.71.97 2.57 1.46-.88-4.81-4.92-9.02-9.76-9.91-5.12-.95-10.39 1.47-13.07 5.91.92-.24 1.84-.48 2.75-.72-4-2.19-8.92-4.65-13.51-2.75-3.53 1.46-6.49 5.49-4.95 9.38l2.43-2.43c-4.23-.6-8.45.92-11.04 4.39-2.6 3.48-2.73 8.27-.74 12.05l2.66-2.66c-3-1.65-6.62-.57-8.82 1.91-2.61 2.93-2.65 7.07-2.27 10.76.41 4 .8 8.06 1.5 12.02.61 3.45 1.78 6.75 4.21 9.35 1.48 1.58 3.78-.76 2.36-2.36ZM87.8 75.72c-.42 2.7-.64 5.4-.71 8.13-.03 1.29-.02 2.58.02 3.86s-.14 3.24.63 4.4c.62.93 2.32 1.22 2.86 0 .58-1.31.26-2.71.19-4.1s-.11-2.67-.12-4.01c-.03-2.62.08-5.25.22-7.86.09-1.74-2.81-2.18-3.08-.42Zm1.49 26.38c.47-.23.92-.5 1.4-.71l-.38.16a9.3 9.3 0 0 1 2.05-.6c.16-.03.33-.05.49-.08.63-.13 1.09-.58 1.28-1.19.21-.69-.15-1.46-.76-1.81-.49-.29-1.01-.23-1.54-.15-.81.12-1.56.39-2.31.71s-1.48.74-2.08 1.3c-.55.52-.56 1.4-.12 1.98.48.62 1.26.73 1.95.39ZM79.07 80.33h.14c.17.01.3-.01.49-.05.02 0 .04 0 .07-.01l.38-.16c.19-.1.34-.24.45-.41.1-.1.17-.22.21-.35.1-.19.15-.4.14-.62l-.06-.43-.16-.38c-.1-.19-.24-.34-.41-.45-.15-.14-.34-.24-.54-.29-.02 0-.04 0-.07-.01-.19-.04-.33-.06-.49-.06h-.14c-.22 0-.43.04-.62.14-.2.06-.37.18-.52.33-.16.15-.27.32-.33.52-.1.19-.15.4-.14.62l.06.43c.08.27.21.51.41.71l.33.25c.25.15.52.22.81.22Zm19.96 0h.14c.17.01.3-.01.49-.05.02 0 .04 0 .07-.01l.38-.16c.19-.1.34-.24.45-.41.1-.1.17-.22.21-.35.1-.19.15-.4.14-.62l-.06-.43-.16-.38c-.1-.19-.24-.34-.41-.45-.15-.14-.34-.24-.54-.29-.02 0-.04 0-.07-.01-.19-.04-.33-.06-.49-.06h-.14c-.22 0-.43.04-.62.14-.2.06-.37.18-.52.33-.16.15-.27.32-.33.52-.1.19-.15.4-.14.62l.06.43c.08.27.21.51.41.71l.33.25c.25.15.52.22.81.22Z"/><path d="m76.91 71.44.63-.3c.13-.07.26-.13.39-.19.03-.01.36-.16.17-.08s.14-.06.17-.07a16 16 0 0 1 1.06-.37c.47-.15.95-.27 1.43-.38.44-.1 1.01-.32 1.46-.29-.17-.01-.29.03-.04 0l.35-.03c.23-.02.46-.04.7-.04.49-.02.99-.01 1.48.02.23.02.56-.01.78.07-.06-.02-.56-.04-.55-.14 0 0 .2.13.22.14.26.14-.12-.09-.17-.14.3.32.74.5 1.16.56.46.06.87-.03 1.29-.24.57-.29 1.08-1.09 1-1.75-.12-.98-.5-1.81-1.4-2.3-.67-.36-1.42-.41-2.16-.46-1.24-.08-2.47.03-3.69.23-2.29.37-4.72 1.39-6.45 2.96-.66.6-.65 1.67-.14 2.34.58.75 1.47.82 2.3.46Zm27.03-5.94c-.5-1.07-1.46-1.88-2.38-2.58-.87-.65-1.82-1.13-2.83-1.53-1.99-.8-4.89-1.37-6.73 0-.62.46-1 1.06-.9 1.87.1.73.62 1.36 1.34 1.56.53.15 1.1.3 1.65.26.44-.03.87-.03 1.31 0 .22.01.43.03.65.04.1 0 .19.02.29.02.34.03.12.05-.07-.01.41.13.86.16 1.28.27.19.05.37.11.55.17.11.04.23.08.34.12.05.02.36.13.09.03-.29-.11.1.05.16.07.09.04.18.08.26.13.19.1.39.2.57.31.37.22.73.47 1.09.71.1.07.19.14.29.21-.13-.09-.17-.13-.02-.01.26.22.53.41.82.59.58.38 1.51.26 1.98-.26.52-.57.58-1.29.26-1.98Zm-31.89 50.47c6.28 4.64 12.57 9.28 18.85 13.92 6.38-4.8 12.4-10.07 18.01-15.75a62 62 0 0 1 4.13 6.5c.24.44.49.91.51 1.41.02.59-.27 1.15-.55 1.67-3.23 5.97-6.45 11.93-9.68 17.9-4.69-1.53-6.9-6.78-10.57-10.07-.55-.49-1.23-.97-1.96-.87-.58.08-1.04.49-1.47.89-3.04 2.85-6.08 5.69-9.12 8.54-.35.33-.8.69-1.27.57-.29-.07-.51-.32-.7-.55-3.77-4.45-7.53-8.9-11.3-13.35-.8-.95-1.64-2-1.67-3.24-.02-1.14.66-2.16 1.32-3.1 1.48-2.1 2.96-4.21 4.44-6.31"/><path d="M71.25 117.33c6.23 4.73 12.51 9.39 18.71 14.16.47.36 1.39.34 1.86 0 6.6-4.78 12.69-10.22 18.48-15.95-1.04-.13-2.07-.27-3.11-.4 1.4 1.97 2.71 4 3.88 6.12.22.39.41.68.37 1.04-.04.39-.51.94-.69 1.27-.63 1.16-1.27 2.32-1.9 3.48-2.46 4.5-4.84 9.04-7.35 13.51l2.37-.96c-4.47-1.64-6.4-6.91-9.91-9.79-1.14-.94-2.59-1.58-4.08-1.1-1.48.47-2.64 1.84-3.74 2.87-1.28 1.2-2.53 2.41-3.82 3.6l-1.84 1.69c-.37.34-.73.68-1.09 1.02l-.36.34c-.47.33-.51.42-.1.28l1.09.3c-.78-.36-1.61-1.8-2.2-2.49-.86-1.02-1.72-2.04-2.59-3.04-1.8-2.07-3.56-4.18-5.33-6.28-.75-.88-1.69-1.76-2.23-2.8-.5-.95.11-1.67.66-2.48 1.48-2.18 3.01-4.35 4.56-6.48s-2.16-4.48-3.72-2.18c-1.44 2.13-2.96 4.2-4.43 6.31s-2.14 4.28-.97 6.63c1.06 2.12 3.04 3.93 4.56 5.73 1.73 2.03 3.42 4.09 5.15 6.12.75.89 1.51 1.78 2.26 2.67.83.98 1.56 2.05 2.91 2.28 2.39.41 4.47-2.44 6-3.9 1.93-1.84 3.9-3.63 5.83-5.47.15-.14.38-.3.49-.46.13-.19.38-.14.11-.19-.3-.05.33.42.42.51.72.67 1.38 1.41 2.01 2.17 2.69 3.23 5.06 6.8 9.25 8.18.84.28 1.96-.18 2.37-.96 2.67-5.13 5.49-10.2 8.22-15.3 1.29-2.42 2.97-4.67 1.62-7.42-1.18-2.4-2.76-4.67-4.34-6.82-.73-1-2.15-1.4-3.11-.4-5.56 5.74-11.64 10.91-17.92 15.85l2.23-.29c-6.37-4.51-12.65-9.14-18.99-13.69-1.66-1.19-3.16 1.51-1.59 2.71Zm20.32 33.15q.135-.045.27-.06l-.44.06c.15-.02.3-.02.46 0l-.45-.06c.17.03.33.07.49.14l-.4-.17c.16.07.3.15.44.26l-.34-.26q.195.15.36.36l-.27-.34c.09.12.17.25.23.39l-.17-.41c.06.14.1.29.12.44l-.06-.46c.01.13.01.26 0 .4l.06-.46c-.02.15-.06.29-.11.43l.17-.41c-.07.15-.15.29-.25.43l.27-.35c-.11.15-.24.27-.39.39l.36-.28c-.16.12-.34.21-.52.29l.42-.18c-.14.06-.28.1-.43.12l.47-.06c-.13.02-.25.03-.38.05-.29.04-.45.08-.74.24-.53.28-.86.9-.86 1.49 0 .62.33 1.17.86 1.49.56.34 1.29.32 1.91.15.52-.14.91-.41 1.33-.74.56-.45.98-1.16 1.16-1.85a3.4 3.4 0 0 0-.97-3.35c-.26-.24-.53-.45-.84-.6-.51-.24-.93-.36-1.49-.41-.12-.01-.24 0-.37 0-.26.03-.53.05-.78.14-.41.14-.77.38-.99.76-.21.36-.3.88-.17 1.28s.38.79.76.99.85.3 1.28.17Zm0 15.69q.135-.045.27-.06l-.44.06c.15-.02.3-.02.46 0l-.45-.06c.17.03.33.07.49.14l-.4-.17c.16.07.3.15.44.26l-.34-.26q.195.15.36.36l-.27-.34c.09.12.17.25.23.39l-.17-.41c.06.14.1.29.12.44l-.06-.46c.01.13.01.26 0 .4l.06-.46c-.02.15-.06.29-.11.43l.17-.41c-.07.15-.15.29-.25.43l.27-.35c-.11.15-.24.27-.39.39l.36-.28c-.16.12-.34.21-.52.29l.42-.18c-.14.06-.28.1-.43.12l.47-.06c-.13.02-.25.03-.38.05-.29.04-.45.08-.74.24-.53.28-.86.9-.86 1.49 0 .62.33 1.17.86 1.49.56.34 1.29.32 1.91.15.52-.14.91-.41 1.33-.74.56-.45.98-1.16 1.16-1.85a3.4 3.4 0 0 0-.97-3.35c-.26-.24-.53-.45-.84-.6-.51-.24-.93-.36-1.49-.41-.12-.01-.24 0-.37 0-.26.03-.53.05-.78.14-.41.14-.77.38-.99.76-.21.36-.3.88-.17 1.28s.38.79.76.99.85.3 1.28.17Z"/><path d="M65.72 123.62c-.94 1.68-1.39 3.74-1.79 5.61s-.72 3.92-.97 5.9c-.49 3.95-.58 7.93-.39 11.91s.68 8.03 1.38 12c.35 1.98.75 3.94 1.2 5.9.41 1.79.68 4.17 2.01 5.53.83.85 2.36.45 2.66-.7.48-1.85-.44-4.06-.86-5.88s-.78-3.62-1.11-5.45c-.67-3.77-1.15-7.58-1.36-11.4s-.17-7.65.17-11.46c.16-1.81.4-3.61.73-5.4.35-1.92.94-3.87 1.06-5.82.09-1.48-2.06-1.98-2.75-.75Zm48.43 2.07c2.01 6.9 3.27 14 3.61 21.18.17 3.52.1 7.04-.17 10.55s-.99 7.22-1.56 10.85c-.36 2.3 2.9 3.33 3.57.98 1.02-3.59 1.44-7.44 1.77-11.14s.38-7.49.18-11.23c-.4-7.51-1.85-14.93-4.43-22-.67-1.83-3.53-1.11-2.97.82Zm-81.98 23.26c-.45 3.69-.81 7.34-.93 11.06s-.32 7.5.25 11.1c.13.84 1.13 1.35 1.89 1.24.88-.13 1.44-.82 1.5-1.7.13-1.83-.05-3.7-.08-5.53s-.01-3.55 0-5.32c.03-3.61.09-7.24.27-10.84.1-1.91-2.68-1.8-2.91 0Zm110.17 3.98c.08 2.75.27 5.49.42 8.23a143 143 0 0 1 .21 6.04c.01.78-.07 1.62.2 2.36.58 1.58 2.72 1.64 3.28 0 .43-1.27.12-2.94.06-4.27-.06-1.43-.15-2.86-.26-4.29-.21-2.84-.55-5.66-1.14-8.45-.33-1.56-2.82-1.21-2.78.38Z"/></svg>