<?xml version="1.0" encoding="UTF-8"?><svg xmlns="http://www.w3.org/2000/svg" viewBox="0 0 180 180"><path d="M45.34 50.63c-3.2 29.66-3.49 59.5-.9 89.22.31 3.52.6 7.05 1.05 10.55.38 2.94.92 5.89 2.38 8.52 3.26 5.88 10.34 6.82 16.3 8.13 7.17 1.58 14.41 2.82 21.69 3.8 7.08.95 14.67 2.44 21.75.82 3.54-.81 6.91-2.28 10.28-3.61 3.48-1.38 6.95-2.75 10.43-4.13 3.23-1.28 6.68-2.35 9.76-3.96s4.33-4.53 4.64-8c.64-7.18.36-14.43.41-21.63.05-7.1.17-14.2.3-21.29.27-14.3.52-28.61.11-42.91-.18-6.38-.14-12.97-1.16-19.29-.44-2.76-1.39-5.47-3.24-7.61-1.86-2.15-4.63-3.47-7.23-4.48-5.77-2.23-12.11-3.04-18.22-3.74-6.83-.78-13.7-1.14-20.57-1.24-3.09-.05-6.23-.15-9.32.07-3.06.22-6.09.81-9.05 1.64-6.09 1.69-11.79 4.52-17.55 7.08-2.55 1.13-5.09 2.3-7.67 3.37-1.02.42-1.75 1.36-1.43 2.52.26.96 1.49 1.86 2.52 1.43 5.44-2.26 10.79-4.71 16.3-6.8 5.24-1.99 10.88-3.93 16.5-4.37 6.19-.49 12.56-.19 18.75.09 6.33.29 12.63.85 18.88 1.87 2.76.45 5.52.94 8.19 1.8 2.38.77 5.15 1.88 6.78 3.87 1.39 1.7 1.91 4.03 2.2 6.15.39 2.9.46 5.86.61 8.78.68 13.66.56 27.35.32 41.02-.24 13.64-.72 27.27-.76 40.91-.01 3.61-.03 7.22-.26 10.82-.08 1.33-.03 2.9-.57 4.16-.46 1.07-1.55 1.6-2.55 2.05-3.13 1.4-6.41 2.54-9.6 3.8l-10.2 4.02c-3.06 1.21-6.12 2.47-9.34 3.15-3.34.7-6.8.42-10.17.09-6.94-.68-13.84-1.63-20.72-2.77-3.55-.59-7.09-1.21-10.62-1.89-2.87-.55-5.93-.95-8.65-2.1-5.67-2.4-5.95-8.97-6.49-14.28-2.88-28.3-3.26-56.91-1.35-85.28.23-3.45.5-6.89.81-10.33.19-2.17-3.13-2.12-3.36 0Z"/><path d="M45.91 113.15c8.7 2.84 18.05 3.99 27.14 4.77 9.15.79 18.37.84 27.53.28 2.63-.16 2.65-4.26 0-4.11-9.1.53-18.21.4-27.29-.34-9.07-.74-17.97-2.42-26.97-3.63-1.79-.24-1.97 2.51-.41 3.02Zm46.8-73.08c0-3.37-.11-6.8.24-10.16.17-1.58.44-3.14.92-4.66.21-.66.44-1.29.76-1.9.39-.74.99-1.38 1.14-2.22.24-1.32-.86-2.88-2.35-2.35-1.89.66-2.68 2.77-3.27 4.53-.62 1.84-.94 3.79-1.09 5.72-.3 3.84.38 7.64 1.15 11.38.29 1.43 2.5 1.07 2.5-.34"/><path d="M94.28 20.6c-1.72-.44-2.77-2.22-3.14-3.95-.42-1.95-.1-4.22 1.43-5.51.9-.76 2.11-1.07 3.29-1.13 2.17-.1 4.39.65 5.95 2.16s2.39 3.78 2.03 5.92c-.14.83-.46 1.64-1.02 2.26-.65.71-1.57 1.11-2.5 1.37-1.88.53-3.9.58-5.8.13"/><path d="M95.26 19.61c-.23-.18-.45-.37-.7-.53-.1-.06-.2-.11-.29-.18.15.11-.06-.06-.08-.07a6 6 0 0 1-.24-.25c-.37-.36.06.11-.12-.13-.16-.22-.28-.45-.41-.68-.16-.29-.08-.15-.04-.07-.05-.11-.09-.22-.12-.34-.08-.23-.15-.46-.22-.69s-.11-.47-.16-.7c-.07-.37-.02-.13 0-.05-.02-.18-.03-.37-.04-.55 0-.25 0-.49.02-.74.01-.37.01-.14 0-.05.02-.12.04-.24.07-.36.05-.24.12-.46.2-.69-.1.29-.02.02.02-.04.08-.16.17-.31.26-.46.03-.05.21-.29.01-.04.07-.09.16-.18.24-.26s.17-.17.26-.24c-.18.14.1-.05.12-.06.12-.07.24-.14.36-.2-.21.1.09-.03.12-.04.33-.11.67-.2 1.01-.25-.26.04.46-.02.52-.02.27 0 .54 0 .81.02.39.02.19.01.1 0 .13.02.27.04.4.07.33.07.66.15.98.26.13.04.26.09.38.14-.08-.03-.25-.13.1.05.24.12.48.24.71.39.12.07.23.15.34.22.02.01.29.21.1.06a6.8 6.8 0 0 1 .99.99c-.06-.07-.15-.23.05.08.14.22.28.44.41.68.06.12.12.23.18.35-.04-.08-.09-.28.03.08.1.28.18.56.25.85.02.08.1.49.05.16q.03.195.03.39c.02.26 0 .52 0 .78 0 .05-.05.38 0 .07-.02.14-.05.28-.09.41s-.07.27-.12.4l-.07.2c.04-.11.04-.11-.02.01-.19.34-.2.37-.38.52-.13.11-.28.21-.61.4-.17.1-.33.15-.69.26-.33.1-.66.18-1 .25-1.2.25-2.76.21-3.97-.05-.99-.22-2.14.3-2.38 1.35-.22.99.3 2.14 1.35 2.38 1.89.43 3.78.48 5.69.14 1.63-.29 3.35-.9 4.5-2.14 2.36-2.53 2.04-6.76.17-9.47s-5.18-4.32-8.51-4.16c-1.79.09-3.62.63-4.9 1.94-1.13 1.15-1.66 2.67-1.81 4.24s.17 3.39.97 4.81 2.41 3.09 4.18 2.9c.56-.06 1.05-.3 1.27-.85.19-.47.15-1.18-.29-1.52ZM50.61 46.08c12.01-.11 24.04-.02 36.01.99 2.95.25 5.9.54 8.84.88 2.27.26 5.52.17 7.39 1.69.73.6 1.31 1.43 1.64 2.32.47 1.25.22 2.44.05 3.72-.39 2.86-.75 5.73-1.06 8.6-2.53 23.35-2.32 46.94-1.04 70.36.36 6.57.8 13.13 1.31 19.69l.72 9.53c.2 2.66.62 5.63 3.58 6.52 2.74.83 3.9-3.43 1.18-4.28-.05-.02-.25-1.06-.29-1.29-.22-1.49-.3-3.02-.44-4.52-.28-2.94-.52-5.89-.75-8.83-.46-5.84-.88-11.69-1.23-17.54-.7-11.83-1.11-23.67-1-35.52.11-11.71.7-23.43 1.99-35.07.32-2.93.73-5.84 1.11-8.76.32-2.46-.54-4.87-2.11-6.76-1.61-1.94-3.85-2.79-6.29-3.16-2.96-.44-5.94-.74-8.91-1.03-13.5-1.32-27.17-1.71-40.68-.44-1.83.17-1.9 2.92 0 2.91Z"/><path d="M105.8 49.36c8.36-4.7 17.7-7.65 27.25-8.6.64-.06 1.32-.11 1.88.2.59.33.9.99 1.19 1.6 1.37 3.01 2.76 6.09 3.08 9.38.19 1.97 0 3.95-.17 5.92-2.64 30.71 1.29 61.64-.19 92.43-.07 1.51-.19 3.11-1.03 4.36-.84 1.24-2.25 1.94-3.61 2.56-7.27 3.31-14.88 5.86-22.67 7.61-.4.09-.85.17-1.22-.02-.47-.25-.61-.86-.7-1.39-4.72-29.73-6.46-57.02-2.35-86.84.32-2.36 1.35-5.19 1.38-7.57.04-3.79.53-10.21-.25-13.92-.35-1.67-.71-3.36-1.47-4.89"/><path d="M106.63 50.77c4.64-2.44 9.54-4.38 14.58-5.8 2.6-.73 5.24-1.3 7.9-1.74 1.16-.19 2.32-.35 3.49-.46.23-.02 1.12-.21 1.33-.1.27.14.49.98.61 1.26 1.04 2.47 2.19 5 2.54 7.68s-.1 5.52-.32 8.22c-.46 5.72-.69 11.44-.77 17.18-.32 22.96 1.64 45.91.88 68.87-.05 1.61-.11 3.23-.21 4.84-.07 1.17-.18 2.45-1.12 3.27-.87.77-2.06 1.19-3.11 1.64-1.34.57-2.69 1.11-4.04 1.65-2.91 1.15-5.87 2.18-8.87 3.1a122 122 0 0 1-6.57 1.8c-.46.11-1.62.59-2.07.46l1 .58.03.25c-.07-.21-.11-.43-.14-.65-.1-.48-.15-.98-.23-1.47-.15-.97-.3-1.95-.45-2.93-.31-2.09-.62-4.19-.9-6.29-.53-3.93-1-7.87-1.4-11.82-.8-7.83-1.37-15.7-1.47-23.57-.1-7.9.05-15.8.61-23.68.28-4.03.67-8.06 1.15-12.07.21-1.77.39-3.56.76-5.31.39-1.83.9-3.64 1.1-5.51.36-3.36.32-6.91.26-10.28-.07-3.73-.62-7.5-2.23-10.9-.55-1.17-2.23-1.47-3.28-.86-1.2.7-1.42 2.11-.86 3.28 1.68 3.55 1.64 7.75 1.56 11.59-.04 1.85-.12 3.71-.16 5.56-.04 2.07-.64 4.02-1.06 6.03-1.03 4.92-1.36 10.1-1.77 15.11-.42 5.07-.68 10.16-.79 15.25-.21 9.89.28 19.83 1.13 29.68.44 5.08.99 10.16 1.64 15.22.33 2.53.67 5.06 1.04 7.59l.54 3.65c.18 1.22.26 2.56.66 3.73s1.26 2.02 2.45 2.29c1.25.28 2.64-.22 3.86-.52 2.44-.59 4.85-1.26 7.24-2.01 4.81-1.51 9.54-3.31 14.09-5.48 1.85-.88 3.7-1.99 4.66-3.88 1.11-2.17 1.02-4.75 1.11-7.12.2-5.16.27-10.33.24-15.49-.1-20.74-1.62-41.48-.9-62.22.18-5.25.75-10.47.93-15.72.16-4.71-1.41-9.67-3.82-13.7-1.36-2.27-3.43-2.3-5.8-2.01-2.33.28-4.65.66-6.94 1.17a69 69 0 0 0-13.43 4.49c-2.18.99-4.3 2.12-6.36 3.33-1.82 1.07-.21 3.8 1.65 2.82ZM49.15 72.4c-.95-.37-1.82-.89-2.81-1.18s-1.95-.48-2.95-.55c-1.66-.13-3.56.34-4.8 1.51-1.53 1.44-1.61 3.45-1.68 5.42l-.24 6.51c-.08 2.17-.18 4.34-.24 6.51-.05 1.63.03 3.41.98 4.81 1.13 1.66 2.96 2.13 4.83 2.44 2.16.36 4.3.5 6.49.53 2.49.04 2.48-3.77 0-3.86-1.66-.06-3.32-.25-4.96-.51-.83-.13-2.57-.14-3.05-.97-.52-.89-.23-2.42-.19-3.38.07-1.71.13-3.41.2-5.12s.13-3.26.19-4.88c.03-.85.07-1.71.1-2.56.02-.52-.08-1.28.18-1.76.43-.8 1.76-.74 2.54-.71 1.47.06 3.17.4 4.58.79 2 .56 2.69-2.32.84-3.04Zm-.21 52.82c-1.81-.31-3.5-.38-5.32-.09-1.59.25-3.4.61-4.63 1.72-1.29 1.17-1.54 2.92-1.52 4.58.02 1.85.15 3.71.35 5.55.2 1.89.47 3.78.82 5.64.27 1.43.57 2.93 1.42 4.14 2.19 3.11 6.41 2.26 9.69 2.14 2.58-.09 2.59-4.11 0-4.02-1.43.05-2.85.12-4.28.15-.89.02-1.76.09-2.23-.77s-.59-1.97-.76-2.92c-.25-1.39-.47-2.78-.62-4.18-.15-1.38-.26-2.77-.33-4.16-.03-.69-.07-1.38-.07-2.06 0-.29-.05-.83.13-1.1s.62-.38.92-.48c.69-.24 1.42-.42 2.13-.56 1.28-.26 2.59-.47 3.89-.57 1.61-.12 2.23-2.71.41-3.02Zm9.78-60.2c-1.24 2.73-1.62 5.78-1.84 8.75-.1 1.43-.09 2.86.46 4.21.49 1.19 1.31 2.14 2.36 2.87 2 1.4 4.91 1.86 7.24 1.11 2.62-.85 4.09-3.26 4.84-5.78.92-3.1 1.13-6.41 1.36-9.62.08-1.07-.97-1.98-1.98-1.98-1.14 0-1.91.91-1.98 1.98-.16 2.28-.32 4.57-.78 6.82-.11.52-.23 1.03-.37 1.54-.06.21-.12.42-.19.62-.05.14-.1.27-.14.41-.01.04-.12.31-.04.13-.17.4-.38.77-.61 1.13-.15.25 0 .06-.2.27-.07.08-.14.15-.22.22-.03.03-.35.3-.16.16-.68.5-1.46.56-2.28.52-.09 0-.66-.08-.39-.03-.2-.04-.4-.08-.59-.13s-.39-.11-.58-.18c0 0-.3-.12-.14-.05.13.06-.19-.1-.22-.12-.2-.11-.4-.23-.59-.36.2.14-.16-.14-.21-.2s-.37-.4-.21-.2c-.14-.18-.26-.38-.35-.58-.08-.18-.2-.68-.24-.99-.06-.54-.05-1.09-.04-1.64.05-2.75.57-5.45.71-8.19.07-1.33-2.01-1.97-2.59-.7Zm20.91 1.61c-1.24 2.73-1.62 5.78-1.84 8.75-.1 1.43-.09 2.86.46 4.21.49 1.19 1.31 2.14 2.36 2.87 2 1.4 4.91 1.86 7.24 1.11 2.62-.85 4.09-3.26 4.84-5.78.92-3.1 1.13-6.41 1.36-9.62.08-1.07-.97-1.98-1.98-1.98-1.14 0-1.91.91-1.98 1.98-.16 2.28-.32 4.57-.78 6.82-.11.52-.23 1.03-.37 1.54-.06.21-.12.42-.19.62-.05.14-.1.27-.14.41-.01.04-.12.31-.04.13-.17.4-.38.77-.61 1.13-.15.25 0 .06-.2.27-.07.08-.14.15-.22.22-.03.03-.35.3-.16.16-.68.5-1.46.56-2.28.52-.09 0-.66-.08-.39-.03-.2-.04-.4-.08-.59-.13s-.39-.11-.58-.18c0 0-.3-.12-.14-.05.13.06-.19-.1-.22-.12-.2-.11-.4-.23-.59-.36.2.14-.16-.14-.21-.2s-.37-.4-.21-.2c-.14-.18-.26-.38-.35-.58-.08-.18-.2-.68-.24-.99-.06-.54-.05-1.09-.04-1.64.05-2.75.57-5.45.71-8.19.07-1.33-2.01-1.97-2.59-.7Zm.62 23.85c-3.43-.32-6.84-.7-10.27-1.05-2.65-.27-5.41-.45-7.89.69-4.88 2.24-5.04 9.58-.08 11.84 2.8 1.27 6.23 1.57 9.24 1.95 3.19.4 6.45.62 9.67.5 2.95-.11 6.08-.87 7.79-3.5 1.57-2.4 1.02-5.38-.87-7.42-2.35-2.54-5.93-2.8-9.16-3.13-3.85-.4-7.7-.8-11.56-1.13-1.05-.09-1.95.96-1.95 1.95 0 1.17.9 1.82 1.95 1.95 2.57.33 5.14.63 7.71.91 2.38.26 4.87.34 7.21.87 1.39.31 3.85 1.26 3.54 3.13-.32 1.96-3.15 2.24-4.67 2.29-5.02.18-10.11-.38-15.01-1.46-1.55-.34-3.29-.67-3.51-2.53-.17-1.42.77-2.39 2.08-2.76 2.15-.6 4.51-.27 6.72-.21 3.02.09 6.03.18 9.04.31 2.09.09 2.02-3.02 0-3.2Z"/><path d="M67.25 90.76c-1.09 1.37-1.52 3.29-1.75 5-.25 1.78-.31 3.67.11 5.44.19.78 1.01 1.26 1.77 1.16.72-.1 1.5-.79 1.4-1.59l-.12-.9c-.01-.07-.06-.48-.03-.2q-.06-.555-.09-1.11a15 15 0 0 1 .07-2.3c0-.08.02-.16.03-.24-.02.16-.02.14 0-.05l.09-.55c.07-.36.15-.73.24-1.08.19-.73.51-1.47.63-2.21.1-.6-.06-1.28-.65-1.59-.51-.27-1.31-.28-1.7.22m-22.29 33.15c1.93 0 1.93-3 0-3s-1.93 3 0 3"/><path d="M44.96 123.76c1.74 0 1.74-2.7 0-2.7s-1.74 2.7 0 2.7m1.61 22.94c4.1 1.35 8.18 2.74 12.38 3.76 4.19 1.01 8.43 1.84 12.68 2.52 8.39 1.34 16.91 2.13 25.39 2.58 4.96.26 9.92.36 14.88.32 2.55-.02 2.56-3.99 0-3.97-16.89.13-34.03-1.17-50.56-4.75-4.68-1.01-9.4-1.96-14.02-3.23-1.79-.5-2.51 2.2-.76 2.77Z"/></svg>