<?xml version="1.0" encoding="UTF-8"?><svg xmlns="http://www.w3.org/2000/svg" viewBox="0 0 180 180"><path d="M114.99 36.23c-10.97 1.09-21.98 1.7-32.97 2.56-10.74.83-25.79.84-30.36 12.83-1.19 3.11-1.37 6.55-1.68 9.84-.33 3.45-.61 6.91-.86 10.37-.51 7.08-.88 14.18-1.23 21.27a7611 7611 0 0 0-2 42.67c-.16 3.66-.31 7.31-.49 10.97-.14 2.91-.28 5.84.06 8.74.7 6.02 3.62 11.14 9.11 13.99 5.76 2.99 12.3 2.98 18.61 2.49 7.05-.54 14.1-1.16 21.15-1.76 6.71-.56 13.48-.96 20.16-1.79 5.29-.66 10.87-2.03 14.25-6.51 1.83-2.43 2.57-5.43 3.03-8.39.54-3.51.9-7.04 1.13-10.58.47-7.07.57-14.17.77-21.25.4-14.24.7-28.48.89-42.73.1-7.12.19-14.25.21-21.37.01-5.98.45-12.53-4.37-16.95-2.06-1.89-4.55-3.15-7.04-4.34-2.26-1.08-4.23 2.31-1.96 3.36 2.42 1.12 4.99 2.26 6.87 4.2 1.85 1.92 2.5 4.52 2.67 7.11.21 3.11.03 6.25-.05 9.36-.09 3.4-.16 6.79-.24 10.19-.31 13.58-.69 27.16-1.07 40.75-.19 6.71-.39 13.41-.6 20.12-.21 6.6-.41 13.24-1.33 19.78-.39 2.78-.78 5.93-2.58 8.21-1.29 1.64-3.21 2.67-5.15 3.31-5.3 1.74-11.2 1.71-16.7 2.19-6.75.58-13.5 1.18-20.26 1.79s-13.19 1.74-19.66.97c-4.94-.59-10.06-2.91-12.25-7.63-2.35-5.05-1.4-11.38-1.11-16.74.72-13.58 1.4-27.17 2.06-40.76.65-13.44 1.24-26.89 2.49-40.3.28-2.99.43-6.1 1.44-8.95.83-2.34 2.52-4.23 4.59-5.56 4.66-3 10.42-3.46 15.79-4.05 10.58-1.15 21.17-2.21 31.76-3.3 2.31-.24 4.61-.49 6.92-.76.9-.11 1.66-.69 1.67-1.67 0-.84-.77-1.76-1.67-1.67Z"/><path d="M91.85 49.79c-3.94.21-7.85.92-11.61 2.11-.69.22-1.46.54-1.67 1.23.42.52 1.19.55 1.87.52 4.28-.17 8.53-.84 12.66-1.99.57-.16 1.28-.7.92-1.17-.11-.15-.3-.21-.48-.26-1.21-.35-9.68.85-10.93.99"/><path d="M91.85 48.23c-2.82.04-5.63.29-8.4.84-1.32.26-2.65.54-3.93.98-1.37.47-2.33 1.17-2.87 2.54-.26.65.06 1.46.51 1.94 1.1 1.16 2.66 1.16 4.15 1.09 1.69-.08 3.37-.27 5.04-.5 1.54-.22 3.07-.49 4.59-.84s3.35-.57 4.45-1.74c1.4-1.49.58-3.83-1.37-4.28-.61-.14-1.25-.13-1.87-.11-1.73.07-3.46.29-5.19.49-1.63.19-3.29.33-4.89.64-2.21.43-1.71 4.02.53 3.93 1.83-.08 3.66-.46 5.48-.66 1.11-.13 2.22-.24 3.34-.32.43-.03.86-.05 1.3-.06.15 0 .3.01.45.01.21 0 .36.14-.27-.04.41.12-.42-.24-.55-.48l-.28-1.02c.05-.34.17-.64.38-.89.14-.06.13-.06-.05 0-.29-.02-.71.19-.99.26-.57.14-1.13.28-1.7.41q-1.92.42-3.87.72c-1.17.17-2.34.29-3.52.38-.63.05-1.26.1-1.89.12-.2 0-.41.02-.62 0 .19.04.17.03-.07-.03.08.02.16.06.23.1l.51 1.94c-.28.39-.33.49-.17.32.1-.09.09-.09-.02.01.13.02.13-.08.27-.13.47-.18.97-.31 1.46-.47 1.08-.34 2.18-.64 3.28-.9 2.16-.51 4.33-.93 6.54-1.14.84-.08 1.55-.66 1.55-1.55 0-.83-.71-1.57-1.55-1.55ZM47.56 90.36c-2.91.51-5.75 1.42-8.41 2.71-.92.45-1.85.96-2.47 1.78-.86 1.13-.97 2.65-1.03 4.07-.12 2.84-.13 5.68-.05 8.52.06 1.94.2 4.01 1.35 5.57.61.83 1.45 1.44 2.32 1.99 2.4 1.51 5.07 2.59 7.85 3.16l.24-5.21c.32-7.01.65-14.01 1.22-21"/><path d="M47.56 88.64c-2.07.18-4.11.65-6.08 1.3s-3.9 1.37-5.45 2.64c-3.13 2.55-2.58 7.45-2.59 11.07-.01 3.72-.36 8.15 2.25 11.16 1.27 1.46 3.14 2.5 4.86 3.33 1.91.92 3.93 1.71 6.03 2.02 1.32.2 2.64-.53 2.64-2.01.02-4.34.34-8.7.55-13.03.21-4.4.46-8.79.8-13.18.2-2.55-3.76-2.53-3.97 0-.36 4.39-.64 8.79-.88 13.18s-.31 8.7-.68 13.03l2.64-2.01c-2.9-.82-6.16-1.72-8.45-3.79-2.13-1.92-1.56-5.89-1.57-8.46 0-1.72.02-3.44.1-5.16.06-1.24.15-2.45 1.24-3.22 2.59-1.83 6.01-2.65 9.01-3.49 1.81-.5 1.53-3.55-.46-3.38Zm73.01-50.04c-.22 13.9-1.03 27.8-1.96 41.67-.91 13.49-.38 26.99-.27 40.5.06 6.73 0 13.47-.44 20.2-.17 2.7-.2 5.57-1.03 8.17-.3.94-.78 1.89-1.59 2.49-1.05.77-2.6.86-3.84 1.07-12.63 2.13-25.51 3.07-38.29 3.85-3.63.22-7.27.42-10.9.61-3.07.16-6.47.72-9.5.06-.64-.14-1.27-.32-1.85-.63-.33-.18-.28-.12-.47-.28.27.23-.01-.02-.08-.18-.08-.19-.22-.6-.32-1.03-.13-.53-.23-1.08-.3-1.62-.24-1.85-.32-3.78-.32-5.65 0-2.53-3.93-2.54-3.94 0 0 1.88 0 3.74.22 5.61s.47 4.28 1.88 5.73c1.91 1.97 5.33 2.33 7.92 2.34 3.15.02 6.32-.26 9.46-.43 13.67-.74 27.37-1.59 40.92-3.61 1.47-.22 2.95-.46 4.42-.7 1.66-.27 3.42-.43 5.02-.95 2.72-.88 4.42-2.99 5.27-5.66.88-2.77.94-5.84 1.13-8.71.24-3.59.36-7.18.42-10.77.23-14.25-.59-28.5-.27-42.76.18-8.17.84-16.33 1.19-24.5.36-8.27.5-16.54.43-24.81-.02-1.86-2.86-1.86-2.89 0Z"/><path d="M116.55 153.39c1.07 1.51 2.14 2.99 3.33 4.41q.825.99 1.68 1.95c.3.34.6.68.92 1 .15.15.3.31.46.44.42.35.82.44 1.35.51.73.09 1.52-.74 1.45-1.45-.05-.45-.09-.82-.38-1.19-.16-.21-.33-.4-.51-.59-.29-.32-.59-.62-.89-.93-.61-.64-1.2-1.28-1.79-1.94-1.15-1.29-2.31-2.59-3.38-3.95-.44-.56-1.38-.51-1.89-.11s-.79 1.27-.37 1.85Zm10.38-65.75c-.25 7.35.22 14.89-.03 22.23-.03.96-.06 1.95.26 2.86.84 2.37 3.14 3.15 5.58 2.55s4.42-2.33 6.29-4.01 3.8-3.46 4.65-5.83c.45-1.25.56-2.58.66-3.9.32-4.48.25-9.53-2.91-12.72-1.71-1.73-4.06-2.61-6.34-3.45-1.27-.47-2.57-.94-3.91-.91-1.35.03-2.77.67-3.33 1.9-.3.66-.32 1.41-.34 2.14-.09 4.22-.19 8.45-.28 12.67"/><path d="M125.64 87.64c-.21 4.03-.23 8.06-.26 12.09-.01 1.78-.01 3.55-.03 5.33-.02 2.01-.23 4.05-.17 6.06.09 3.13 2.03 5.69 5.21 6.08 3.45.42 6.48-1.66 8.97-3.8s4.99-4.35 6.09-7.46c1.04-2.93 1.03-6.65.77-9.73-.28-3.18-1.19-6.36-3.49-8.69-2.29-2.31-5.79-3.65-8.87-4.51-3.72-1.04-7.8.34-8.17 4.62-.19 2.22-.12 4.5-.17 6.73s-.23 4.57-.02 6.82c.08.86.59 1.56 1.48 1.68.75.1 1.76-.38 1.88-1.23.44-3.2.33-6.49.4-9.71.03-1.38-.21-3.14.16-4.47.31-1.12 1.59-1.23 2.58-1.08 1.27.19 2.53.76 3.72 1.22 1.27.49 2.58 1.06 3.66 1.9 1.87 1.45 2.72 3.68 3.05 5.96.36 2.51.25 5.29-.12 7.8-.42 2.79-2.28 4.65-4.28 6.47-1.81 1.65-3.92 3.74-6.5 3.96-.84.07-1.72-.11-2.3-.77-.84-.95-.66-2.35-.65-3.52.08-7.26-.45-14.5-.37-21.76.02-1.67-2.49-1.65-2.58 0ZM93.39 39.4c-.11-1.6-.14-3.18-.44-4.76-.29-1.56-.79-3.05-1.15-4.58l-2.35 2.35c3.04.92 6.11 1.67 9.24 2.21 1.15.2 2.54-.51 2.46-1.87-.22-3.43-.23-6.86-.02-10.3-.98.56-1.96 1.12-2.93 1.68 2.62 1.49 5.15 3.16 7.54 5.01 1.12.87 2.88.7 3.3-.87.79-2.94 1.57-5.89 2.36-8.83.66-2.46-3.15-3.51-3.81-1.05-.79 2.94-1.57 5.89-2.36 8.83l3.3-.87a65 65 0 0 0-8.37-5.58c-1.34-.75-2.85.21-2.93 1.68-.18 3.43-.17 6.87.04 10.3.82-.62 1.64-1.25 2.46-1.87a87 87 0 0 1-9.26-2.15c-1.67-.49-2.88 1.37-2.15 2.8.6 1.18.94 2.56 1.27 3.85s.73 2.67.87 4.03c.19 1.85 3.07 1.91 2.94 0Z"/><path d="M110.8 10.31c-1.88.08-3.76.94-4.84 2.47-1.58 2.22-.88 4.99 1.24 6.59 1.43 1.08 3.3 1.57 5.06 1.24s3.36-1.5 4.12-3.12c.84-1.79.59-4.19-.66-5.72-1.27-1.55-3.18-2.03-5.08-1.69-2.34.42-5.34 1.73-5.55 4.47-.05.64.12 1.34.62 1.75"/><path d="M110.8 8.92c-3.83.05-7.88 2.96-7.37 7.16.54 4.39 5.04 7.02 9.22 6.31 1.98-.34 3.7-1.56 4.84-3.18 1.18-1.67 1.44-3.87.98-5.83-.45-1.92-1.78-3.7-3.6-4.53-1.84-.85-3.81-.83-5.74-.3s-3.67 1.47-4.85 3.07c-.61.83-.93 1.84-1.01 2.86-.05.66.07 1.35.35 1.94.35.72.93 1.1 1.64 1.39.56.23 1.31-.12 1.64-.56.39-.52.42-1.16.12-1.74.15.3-.04-.13-.06-.17-.05-.15-.09-.31-.12-.46.09.39.01-.1 0-.17-.03-.46-.1.29.01-.12.04-.14.08-.28.11-.42.11-.42-.19.28.04-.08.05-.08.09-.16.14-.24s.1-.15.15-.23c-.15.19-.16.2-.03.05.2-.2.39-.4.61-.58-.35.29.02 0 .08-.05.12-.08.24-.16.37-.23.21-.12.43-.23.64-.34.43-.22-.36.12.1-.05.18-.07.36-.14.55-.2.49-.16.98-.28 1.48-.38.53-.11-.33 0 .21-.02.17 0 .34-.02.52-.02s.34.01.51.03c-.4-.03.26.06.34.08.13.03.27.08.4.12.29.09-.36-.2.1.04.15.08.3.15.44.24.03.02.45.35.18.12.13.11.26.23.38.36.03.03.37.48.15.16.09.14.18.28.26.42.02.03.24.51.1.17.13.32.2.64.29.97.13.5 0-.33.03.19 0 .17.02.34.02.51s-.01.34-.02.51c.02-.36 0 0-.02.1-.03.14-.06.27-.1.41-.02.08-.27.68-.1.34-.15.3-.31.59-.51.86.23-.31-.12.12-.14.14-.1.1-.19.2-.3.29-.06.06-.34.29-.08.09-.13.1-.27.2-.41.28s-.29.17-.44.25c-.1.05-.2.1-.3.14q.27-.105-.03 0c-.33.1-.65.2-.99.25.09-.01.3-.02-.07 0-.18 0-.37.02-.55.01s-.37-.01-.55-.04c.36.05-.24-.06-.25-.06q-.27-.06-.54-.15c-.12-.04-.23-.08-.35-.12.14.07.11.05-.08-.04a8 8 0 0 1-.81-.45c-.01 0-.49-.37-.21-.14-.13-.11-.25-.22-.37-.33s-.22-.24-.33-.36c-.32-.36.13.26-.11-.16-.08-.14-.17-.27-.24-.4-.04-.07-.21-.48-.08-.15-.05-.14-.1-.29-.14-.44-.02-.08-.12-.69-.08-.29-.01-.15-.02-.3-.02-.46 0-.09.09-.68 0-.31.02-.1.04-.2.07-.31.02-.06.22-.63.1-.35.15-.36.35-.72.59-1.03-.16.21.2-.21.18-.19.15-.16.32-.32.49-.46-.06.04-.16.11.1-.06.19-.13.38-.25.58-.35.5-.27 1.31-.51 1.88-.57.74-.07 1.38-.58 1.38-1.38 0-.74-.63-1.39-1.38-1.38ZM65.48 80.58c-1.36 4.18-1.51 8.61-1.67 12.97-.08 2.2-.43 4.69.74 6.68 1.01 1.73 2.77 2.11 4.63 1.99 2.05-.13 4.16-.21 5.69-1.77 1.64-1.66 1.73-4.54 2.03-6.71.34-2.55.55-5.11.58-7.67.02-2.18.46-5.2-1.32-6.81-3.61-3.24-12.54-1.15-11.14 4.72.38 1.61 2.5 1.34 3 0 .41-1.11 1.36-1.99 2.53-2.21.64-.12 1.31-.07 1.95.04.37.07.74.15 1.1.25.07.02.24.13.13 0s0 .12 0 .21c-.06.85.08 1.77.09 2.62.01.97 0 1.95-.05 2.92-.07 1.78-.22 3.56-.46 5.33-.12.9-.27 1.8-.44 2.69-.12.66-.18 1.62-.7 2.1-.8.75-2.49.57-3.5.59H68s-.24-.15-.07.01c-.4-.37-.44-1.01-.46-1.53-.06-1.59.06-3.22.1-4.81.07-3.58.14-7.28 1.01-10.77.5-2.02-2.47-2.82-3.1-.86Zm27.26-1.94c-1.36 4.18-1.51 8.61-1.67 12.97-.08 2.2-.43 4.69.74 6.68 1.01 1.73 2.77 2.11 4.63 1.99 2.05-.13 4.16-.21 5.69-1.77 1.64-1.66 1.73-4.54 2.03-6.71.34-2.55.55-5.11.58-7.67.02-2.18.46-5.2-1.32-6.81-3.61-3.24-12.54-1.15-11.14 4.72.38 1.61 2.5 1.34 3 0 .41-1.11 1.36-1.99 2.53-2.21.64-.12 1.31-.07 1.95.04.37.07.74.15 1.1.25.07.02.24.13.13 0s0 .12 0 .21c-.06.85.08 1.77.09 2.62.01.97 0 1.95-.05 2.92-.07 1.78-.22 3.56-.46 5.33-.12.9-.27 1.8-.44 2.69-.12.66-.18 1.62-.7 2.1-.8.75-2.49.57-3.5.59h-.67s-.24-.15-.07.01c-.4-.37-.44-1.01-.46-1.53-.06-1.59.06-3.22.1-4.81.07-3.58.14-7.28 1.01-10.77.5-2.02-2.47-2.82-3.1-.86Zm4.66 28.24a63 63 0 0 1-14.44 1.98c-5.01.11-9.91-.77-14.9-.92-2.4-.07-4.7.58-5.99 2.76-1.14 1.94-1.12 4.43-.81 6.58.59 4.19 2.78 8.13 5.72 11.13 6.41 6.55 16.08 7.77 24.68 5.55 7.95-2.05 13.87-9 15.06-17.09.58-3.96.19-9.43-4.33-10.89-2.65-.86-5.38.38-7.88 1.17-1.37.44-2.7.99-4.09 1.36-1.4.36-2.87.47-4.31.6-2.09.18-2.08 3.49 0 3.27 2.13-.23 4.26-.55 6.38-.84s4-.78 6.01-1.32c1.41-.38 2.95-.71 3.71.82.58 1.17.6 2.55.52 3.83-.38 6.21-4.67 12.11-10.56 14.18-6.62 2.32-15.05 2.1-20.59-2.61-2.51-2.13-4.47-4.89-5.4-8.06-.44-1.52-.89-3.56-.25-5.09.56-1.35 2.97-.78 4.1-.7 4.74.3 9.37.68 14.12.28 4.8-.41 9.54-1.35 14.14-2.77 2.04-.63 1.2-3.75-.88-3.21Z"/><path d="M65.66 124.2c6.63.79 13.31.91 19.96.31 3.29-.3 6.57-.75 9.8-1.39 1.6-.32 3.2-.68 4.79-1.08s3.19-.71 4.65-1.32c.91-.38 1.35-.94 1.46-1.92v-.12c.1-.76-.64-1.71-1.39-1.84l-.12-.02c-.78-.14-1.66.09-2.06.84l-.05.09c-.51.96-.09 2.3 1.05 2.57l.09.02-1.34-1.76v.11c.48-.61.94-1.23 1.41-1.84-2.8 1.09-5.91 1.72-8.86 2.33-3.2.67-6.42 1.2-9.67 1.54-6.55.69-13.17.73-19.72.13-.92-.08-1.68.84-1.69 1.69-.01 1 .79 1.58 1.69 1.69ZM74.88 81c-1.84-1.21-3.62.55-3.98 2.33s-.55 3.74-.8 5.61c-.26 1.9-.47 3.81-.7 5.71s-.36 3.91.01 5.9c.2 1.1 1.53 1.72 2.54 1.44 1.15-.31 1.65-1.44 1.44-2.54-.26-1.36-.11-2.77.03-4.13.15-1.43.33-2.86.49-4.29s.3-2.87.44-4.31c.07-.69.15-1.38.2-2.07.02-.29.1-.66.05-.94-.09-.54.23-.05-.1.02 1.32-.3 1.37-2.06.36-2.73Zm24.76-2.46c-1.63 2.61-2.03 5.68-2.12 8.71-.05 1.57-.09 3.15-.21 4.72-.12 1.72-.52 3.52-.25 5.23.25 1.56 2.88 1.95 3.51.46.66-1.56.68-3.33.8-5.01.11-1.6.17-3.2.2-4.8.05-2.73-.08-5.5.95-8.08.68-1.71-1.97-2.67-2.88-1.22ZM57.09 166.2a16.5 16.5 0 0 1-5.85-5.63c21.93 1.97 43.69-4.46 65.66-5.83.37-.02.75-.04 1.11.08.5.17.87.6 1.19 1.02 1.04 1.35 1.98 2.78 2.78 4.28.16.3.32.64.21.96-.12.34-.49.5-.83.62-2.62.93-5.38 1.37-8.13 1.77-12.11 1.78-24.31 2.87-36.5 3.96-6.42.57-13.06 1.12-19.16-.98"/><path d="M57.91 164.79c-2.12-1.29-3.85-2.98-5-5.2l-2.19 2.85c4.64.82 9.63.62 14.32.42s9.52-.68 14.26-1.27c9.53-1.19 18.99-2.88 28.53-3.97 2.7-.31 5.4-.57 8.11-.75.24-.02.48-.03.72-.05.07 0 .86 0 .55-.12.4.16.79.96 1.03 1.31.4.57.78 1.15 1.14 1.75l.36.6c.12.2.23.4.34.61.14.23.16.27.03.12l.28-1.04c.15-.26.67-.25.18-.25-.19 0-.48.16-.66.22-.44.14-.89.26-1.33.38-1.05.27-2.11.48-3.17.67-2.05.36-4.12.64-6.19.91-4.24.57-8.49 1.06-12.75 1.5-8.33.87-16.71 1.8-25.07 2.27-4.5.25-8.98.13-13.29-1.3-2.57-.85-3.67 3.2-1.12 4.05 4.48 1.5 9.26 1.73 13.95 1.5 4.81-.24 9.62-.76 14.42-1.21 9.95-.93 19.91-1.93 29.78-3.5 2.27-.36 4.59-.77 6.75-1.58 2.4-.9 2.82-2.89 1.64-5.03-1-1.82-2.33-4.34-4.14-5.46-.99-.61-2.11-.56-3.21-.48-1.27.09-2.55.19-3.82.31-9.67.89-19.25 2.55-28.86 3.9-5.26.74-10.55 1.37-15.85 1.71-2.69.17-5.39.26-8.09.27s-5.56-.29-8.34-.28c-1.33 0-2.61 1.7-1.67 2.91 1.87 2.43 4 4.55 6.7 6.06 1.84 1.03 3.45-1.73 1.65-2.82Z"/></svg>