<?xml version="1.0" encoding="UTF-8"?><svg xmlns="http://www.w3.org/2000/svg" viewBox="0 0 180 180"><path d="M158.93 141.39c0-.76.14-1.44.54-1.99.04-.05.22-.25.32-.35.07-.07.14-.14.22-.19-.08.06-.16.09.1-.05.17-.09.33-.19.5-.27-.21.1.27-.08.36-.11.04-.01.43-.1.22-.06-.18.03.11 0 .13-.01h.57c.02 0 .33.04.12 0-.22-.04.13.03.18.05.11.03.59.2.27.06q.24.105.45.24c.1.06.19.12.29.19-.03-.02-.21-.18-.05-.04.13.11.26.23.38.35.06.06.12.13.18.19.36.39-.09-.15.08.09.1.15.19.29.28.45.05.08.29.58.15.26.15.36.22.73.32 1.1.07.29 0-.28 0 .01 0 .09.01.18.02.26 0 .2 0 .4-.01.6-.02.34.04-.06-.03.27-.05.26-.11.51-.19.76-.06.19-.12.38-.2.56.11-.26-.15.28-.19.35-.1.18-.2.35-.31.52-.05.08-.11.17-.17.25l-.12.16c.08-.09.08-.09 0 .01-.25.32-.53.61-.82.89-.17.16-.34.32-.52.47 0 0-.25.19-.12.1.09-.07-.19.12-.22.14-.51.33-.53.35-1.09.49 0 0-.32.05-.13.03.2-.02-.29 0-.33 0 .03 0 .26.05.03 0-.12-.02-.24-.06-.36-.09-.2-.06-.04 0 0 .02-.15-.06-.28-.15-.42-.22-.08-.05-.17-.09-.25-.14.14.09-.07-.05-.1-.08-.39-.34-.75-.71-1.14-1.06-.52-.47-1.28-.61-1.9-.25-.57.33-.95 1.12-.72 1.77.95 2.67 4.02 4.6 6.83 3.59 2.59-.94 4.64-3.23 5.68-5.74.97-2.34.88-5.11-.54-7.26-1.5-2.27-4.03-3.58-6.75-3-3.11.66-5.28 3.97-4.5 7.08.43 1.68 2.97 1.3 2.99-.4ZM91.33 23.16c-5.7-18.54-30.8-18.79-43.9-8.3-4.16 3.33-7.75 8.14-8.93 13.41-1.26 5.64.68 11.35 5.59 14.55 4.7 3.06 11.25 3.73 16.71 3.22 6.05-.56 12-3.38 14.41-9.29 2.55-6.26-1.36-12.89-7.54-14.92-6.06-1.99-13.44 1.34-16.24 7.01-.79 1.61 1.38 3.65 2.66 2.05 2.74-3.39 6.83-6.64 11.5-5.51 4.05.98 7.26 5.04 5.97 9.24-1.46 4.75-6.66 6.85-11.2 7.16-4.48.3-9.69-.12-13.62-2.49-8.82-5.31-2.06-16.7 3.81-21.3 5.42-4.25 12.87-6.12 19.67-5.83 3.73.16 7.56 1.07 10.79 3.02 3.37 2.03 5.78 5.17 7.06 8.87.7 2.02 3.88 1.19 3.24-.89Z"/><path d="M39.27 32.77c-4.24 2.3-8.49 5.03-10.19 9.81-1.66 4.69.27 9.73 3.83 12.97 4.05 3.68 9.16 4.91 14.49 5.23 5.92.35 11.94-.33 17.86-.56 3.03-.12 6.08-.24 9.11-.16 2.12.05 4.36.34 5.98 1.55 2.75 2.07 3.81 5.94 3.43 9.14-1.06 8.89-12.7 12.82-20.41 10.96-2.6-.63-5.03-2.07-6.07-4.64-.8-2-.26-4.04 1.43-5.39s4.2-1.96 6.39-1.87c1.78.07 4.06.73 4.48 2.69.46 2.12 4.01 1.69 3.84-.52-.45-5.65-6.95-6.93-11.56-6.11-5.19.93-9.86 4.93-9.25 10.59.7 6.45 6.65 9.78 12.56 10.37 5.28.53 11.01-.71 15.48-3.61 4.29-2.78 7.34-7 7.94-12.13.52-4.47-.99-9.48-4.36-12.56-4.63-4.22-11.25-3.41-17.04-3.16-3.44.15-6.88.45-10.31.81-3.17.33-6.33.78-9.52.8-5.81.04-12.61-2.28-14.49-8.43-1.76-5.75 3.53-10.35 8.05-12.86 1.9-1.06.21-3.95-1.7-2.91Z"/><path d="M30.87 51.55c-3.76 2.71-5.94 7.26-5.34 11.93.57 4.47 3.48 8.51 7.55 10.45l1.06-3.91c-2.85-.18-5.38 1.56-6.7 4.02-1.43 2.66-1.32 5.62-.14 8.34 1.18 2.73 3.27 4.97 5.46 6.93s4.8 3.89 7.46 5.44c5.41 3.16 11.42 5.15 17.63 5.93 5.38.67 10.93-.07 16.19-1.25 5.84-1.31 12.16-3.18 17.03-6.8 1.88-1.4.31-4.13-1.84-3.14-8.51 3.89-17.74 6.96-27.19 7.02-10.12.06-20.52-4.59-27.63-11.71-1.75-1.75-3.79-4.14-3.64-6.79.1-1.81 1.37-3.89 3.37-3.79 2.01.11 2.95-3.03 1.06-3.91-2.93-1.36-5.18-4.03-5.65-7.29-.48-3.33.84-6.69 3.22-9.01 1.25-1.21-.43-3.53-1.9-2.47Z"/><path d="M31.08 85.22c-6.99 9.14-3.13 22.92 5.33 29.64 4.47 3.56 9.91 5.58 15.58 6.13 3.09.3 6.3-.46 9.34.09 3.08.56 5.87 2.17 8.92 2.88 3.37.77 6.85.96 10.27.52s7.06-1.32 9.97-3.18c.98-.63 1.44-1.84.96-2.93-.43-.97-1.67-1.8-2.76-1.36-2.63 1.06-5.15 2.12-7.98 2.58-2.45.4-5.06.4-7.52 0-2.89-.47-5.49-1.62-8.24-2.55-3-1.01-5.9-.91-9.02-.77-9.51.44-19.83-4.34-23.11-13.81-1.78-5.14-1.38-10.73 1.16-15.55 1.04-1.97-1.63-3.39-2.91-1.7Z"/><path d="M88.55 28.7c-.05 11.88-.7 23.76-.71 35.65-.01 11.64-.04 23.29-.03 34.93v10.14c0 3.38-.07 6.93.4 10.39.27 1.93 3.64 1.93 3.9 0 .82-5.95.4-12.13.41-18.13 0-5.86 0-11.72-.01-17.58-.01-11.64.04-23.28-.22-34.92-.15-6.82-.49-13.65-.52-20.47 0-2.07-3.21-2.07-3.22 0Z"/><path d="M76.1 43.74c2.69-.28 5.67-.44 8.01.91.26.15.52.32.76.5.03.02.33.24.2.14-.15-.12.23.2.26.23.23.2.44.41.65.64.11.12.22.25.33.38-.14-.17-.03-.04.04.06.36.53.69 1.07.97 1.65.15.31-.11-.27.02.05.11.26.2.53.34.78.2.37.46.7.77.98 1.04.94 2.52.49 2.98-.79.63-1.76-.6-3.72-1.65-5.06-.93-1.18-2.13-2.23-3.5-2.87-3.21-1.5-6.75-1.35-10.18-.9-.88.12-1.65.67-1.65 1.65 0 .82.76 1.74 1.65 1.65m-15.27 67.29c1.66 0 1.66-2.58 0-2.58s-1.66 2.58 0 2.58m6.48-4.15c1.68 0 1.68-2.61 0-2.61s-1.68 2.61 0 2.61m2.07 6.1c.31-.08.61-.17.92-.25.21-.05.4-.15.56-.29.18-.12.32-.27.42-.46.12-.19.18-.39.19-.61.05-.22.04-.44-.03-.65l-.17-.39c-.15-.25-.34-.44-.59-.59l-.39-.17q-.435-.12-.87 0l-.93.21q-.33.075-.57.3a1.3 1.3 0 0 0-.43.47c-.12.19-.19.4-.2.62q-.075.33.03.66l.17.4q.225.375.6.6l.4.17c.29.08.59.08.88 0Zm22.79-88.92c4.97-14.35 24.2-14.18 35.23-7.6 3.65 2.17 6.66 5.39 8.63 9.15 1.88 3.59 2.62 8.23-.1 11.62-2.71 3.37-7.65 4.27-11.72 4.54-4.94.32-10.54-.21-13.94-4.27-1.55-1.85-2.35-4.32-1.64-6.68.65-2.18 2.47-3.95 4.5-4.9 5.02-2.36 9.96 1.22 13.01 4.99 1.28 1.58 3.46-.43 2.66-2.05-2.56-5.18-8.85-8.31-14.52-7.42s-10.13 5.64-10.09 11.26c.04 6.05 5.01 10.75 10.47 12.46 3.19 1 6.65 1.14 9.97.91 2.71-.18 5.47-.58 8.02-1.54 5.36-2.01 9.24-6.31 9.5-12.2.24-5.61-2.88-10.99-6.61-14.95-6.15-6.52-15.55-9.71-24.4-9.51-4.77.1-9.61 1.22-13.66 3.83-4.18 2.69-7.12 6.73-8.57 11.47-.64 2.08 2.54 2.92 3.24.89Z"/><path d="M139.29 35.68c3.98 2.21 8.98 6.22 8.4 11.34s-5.65 8.65-10.42 9.57c-3.1.6-6.28.38-9.4.07-3.31-.33-6.61-.73-9.93-1s-6.88-.41-10.32-.47c-3.06-.06-6.13.09-8.93 1.45-4.2 2.04-6.52 6.57-7.05 11.04-.58 4.94 1.34 9.75 4.91 13.16 3.9 3.73 9.22 5.63 14.54 6.02 5.69.41 12.36-1.11 15.3-6.51 1.47-2.7 1.74-6.04.37-8.84-1.3-2.65-3.96-4.36-6.7-5.24-4.83-1.54-12.76-.63-13.26 5.69-.17 2.19 3.37 2.67 3.84.52.81-3.75 6.96-2.88 9.41-1.71 1.7.81 3.19 2.25 3.29 4.22.1 2.01-1.29 4.07-2.89 5.16-3.88 2.66-9.43 2.32-13.74 1-3.96-1.21-7.93-3.8-9.56-7.77-1.3-3.15-.91-7 .97-9.89.87-1.33 2.19-2.41 3.71-2.91 2.61-.86 5.55-.6 8.26-.55 6.09.11 12.16.58 18.24.75 5.36.15 11.25-.14 15.96-2.99s8.26-7.77 7.34-13.48c-.91-5.7-5.95-9.03-10.63-11.57-1.91-1.03-3.61 1.86-1.7 2.91Z"/><path d="M147.49 54.01c2.38 2.31 3.7 5.68 3.22 9.01s-2.72 5.92-5.65 7.29c-1.89.88-.95 4.02 1.06 3.91 1.85-.1 3.09 1.7 3.34 3.39.3 2.09-.97 4.2-2.26 5.73-3.37 4.01-7.98 7.1-12.68 9.34-4.52 2.15-9.62 3.59-14.63 3.8-4.72.2-9.45-.54-14.02-1.66-5.13-1.25-10.05-3.14-14.84-5.33-2.15-.98-3.72 1.75-1.84 3.14 4.37 3.24 9.91 5.02 15.13 6.34 5.24 1.33 10.8 2.24 16.22 1.89 6.09-.39 12.11-2.22 17.51-5.02 2.8-1.45 5.42-3.21 7.88-5.2 2.31-1.88 4.57-3.99 6.15-6.54 1.78-2.87 2.44-6.32 1.04-9.47-1.23-2.76-3.88-4.82-6.99-4.62l1.06 3.91c4.08-1.94 6.98-5.98 7.55-10.45.6-4.66-1.57-9.21-5.34-11.93-1.46-1.05-3.16 1.25-1.9 2.47Z"/><path d="M146.27 86.92c4.61 8.73 1.84 19.54-6.29 25.1-4 2.74-8.79 4.19-13.63 4.3-3.07.06-6.09-.47-9.14.2-2.78.61-5.33 1.98-8.09 2.66-2.92.72-5.99.89-8.97.51s-5.76-1.53-8.59-2.67c-1.07-.43-2.37.38-2.76 1.36-.44 1.1-.05 2.28.96 2.93 5.16 3.3 12.25 3.95 18.18 3.05 3.05-.46 5.76-1.64 8.66-2.63 1.51-.52 2.94-.79 4.54-.78s3.34.2 5.02.17c11.27-.21 22.53-6.97 25.7-18.2 1.66-5.88 1.13-12.72-2.67-17.69-1.29-1.68-3.96-.27-2.91 1.7Z"/><path d="M88.5 28.7c-.05 11.88-.7 23.76-.71 35.65-.01 11.64-.04 23.29-.03 34.93v10.14c0 3.48-.07 6.93.4 10.39.27 1.93 3.64 1.93 3.9 0 .82-5.95.4-12.13.41-18.13 0-5.86 0-11.72-.01-17.58-.01-11.64.04-23.28-.22-34.92-.15-6.82-.49-13.65-.52-20.47 0-2.07-3.21-2.07-3.22 0Z"/><path d="M104.16 40.44c-3.43-.45-6.96-.59-10.18.9-1.33.62-2.53 1.64-3.44 2.79-1.07 1.36-2.36 3.35-1.72 5.14.46 1.28 1.94 1.73 2.98.79.28-.26.53-.56.72-.9.14-.24.25-.51.35-.77.05-.13.1-.26.01-.06.26-.58.59-1.14.95-1.66.04-.05.31-.39.1-.14.09-.1.17-.21.26-.31.2-.23.42-.44.64-.64.38-.35.68-.57 1.3-.93 2.34-1.35 5.33-1.2 8.01-.91.89.09 1.65-.82 1.65-1.65 0-.99-.76-1.53-1.65-1.65Zm15.28 70.59c1.66 0 1.66-2.58 0-2.58s-1.66 2.58 0 2.58m-6.49-4.15c1.68 0 1.68-2.61 0-2.61s-1.68 2.61 0 2.61m-1.18 2.89-.93-.21c-.22-.07-.44-.08-.65-.03-.22 0-.42.07-.61.19-.19.1-.34.24-.46.42-.15.16-.24.34-.29.56l-.06.44c0 .3.08.57.22.83l.26.33c.2.2.45.34.72.42l.92.25q.33.105.66.03c.22-.01.43-.08.62-.2.19-.1.35-.25.47-.43q.225-.24.3-.57l.06-.44c0-.3-.08-.58-.23-.84l-.26-.34a1.65 1.65 0 0 0-.73-.43Zm-65.3 8.61c3.54 9.4 6.89 18.89 9.38 28.63 1.07 4.19 2.02 8.44 2.51 12.74.14 1.23.22 2.4.75 3.54s1.29 2.15 2.22 2.93c1.89 1.59 4.35 2.33 6.69 2.99a83.2 83.2 0 0 0 32.79 2.44c5.1-.64 10.64-1.39 15.33-3.64 2.05-.99 3.95-2.58 4.92-4.67 1.14-2.45 1.21-5.23 1.49-7.88 1.22-11.62 2.58-23.6 7.99-34.14 1.33-2.6-2.59-4.9-3.93-2.29-4.66 9.08-6.56 19.1-7.8 29.14-.31 2.5-.58 5.01-.84 7.51-.22 2.07-.13 4.73-1.48 6.45-1.17 1.48-3.1 2.21-4.85 2.74-2.39.72-4.85 1.22-7.3 1.66-10.23 1.81-20.92 1.56-31.07-.61-2.43-.52-4.92-1.09-7.28-1.9-1.94-.67-3.21-1.85-3.45-3.94-.47-4.18-1.29-8.31-2.29-12.4-2.57-10.47-6.16-20.82-10.88-30.52-.78-1.6-3.53-.47-2.9 1.22"/><path d="M48.69 126.67c-1.32.59-2.64 1.19-3.86 1.97-4.25 2.71-6.96 7.7-6.85 12.74s3.06 9.93 7.5 12.31c3.82 2.05 8.33 2.22 12.66 2.35.85-4.9-.42-9.92-2.1-14.6s-3.78-9.25-4.68-14.14"/><path d="M48.26 125.12c-3.33 1.17-6.32 2.75-8.56 5.56-2.16 2.71-3.47 5.92-3.73 9.38-.49 6.54 3.47 13.18 9.44 15.87 4.04 1.82 8.36 2 12.72 1.99 1.11 0 1.74-.86 1.87-1.87 1.35-10.49-4.99-19.3-6.88-29.23-.44-2.32-3.99-1.34-3.54.98.93 4.75 2.89 9.17 4.54 13.7s3.11 9.33 2.2 14.06c.6-.46 1.2-.92 1.81-1.38-3.86-.24-8.14-.37-11.63-2.25-2.85-1.53-5-4.2-5.95-7.29-.97-3.16-.6-6.56.93-9.49 1.8-3.42 4.72-5.26 7.99-7.09 1.56-.87.51-3.56-1.24-2.94Zm80.48 1.08c9.79 3.69 14.26 20.26 4.05 26.1-2.8 1.6-6.08 2.22-9.31 2.33-.23 0-.48 0-.66-.15-.18-.16-.22-.42-.24-.65-.6-6.98 1.57-13.87 3.72-20.54.59-1.84 1.19-3.68 1.78-5.53"/><path d="M127.93 127.59c7.39 3.39 12.39 15.5 5.53 21.75-2.63 2.4-6.85 3.36-10.32 3.21l1.04.28-.31-.13.74.74c-.15-.26-.04-1.2-.05-1.51v-1.42c.03-1.1.11-2.21.25-3.31.27-2.11.74-4.19 1.29-6.24 1.14-4.26 2.58-8.45 3.93-12.65.8-2.49-3.12-3.56-3.92-1.08-2.08 6.46-4.48 12.94-5.37 19.7-.22 1.66-.36 3.33-.33 5s-.05 3.63 1.67 4.47c1.31.64 3.19.2 4.58 0 1.6-.23 3.18-.59 4.68-1.19 4.25-1.68 7.53-4.86 8.71-9.35 1.05-4.01.39-8.26-1.25-12.01-1.85-4.23-5.2-7.76-9.65-9.21-1.71-.55-2.91 2.17-1.24 2.94Zm-81 12.6c-3.9 0-7.8-.16-11.69-.21-3.85-.05-7.86-.42-11.69.03-2.43.28-2.43 3.5 0 3.78 3.83.45 7.84.08 11.69.03 3.9-.05 7.8-.21 11.69-.21 2.19 0 2.2-3.41 0-3.41Z"/><path d="M24.06 141.8c.7-2.79-.95-5.69-3.55-6.76-2.48-1.02-5.32-.25-7.04 1.8s-2.28 4.74-1.51 7.31c.74 2.48 2.59 4.86 4.89 6.1 1.57.85 3.28.99 4.91.23 1.39-.65 2.5-1.91 3.01-3.34.23-.65-.15-1.44-.72-1.77-.62-.36-1.38-.22-1.9.25-.68.61-1.13 1.13-1.82 1.46-.2.09-.03 0 0 0-.09.03-.18.06-.27.08s-.18.05-.28.06c.11-.01.27-.01-.07-.02s.05.05-.27-.03c-.1-.02-.19-.05-.29-.08-.04-.01-.35-.13-.23-.08.18.08-.19-.11-.22-.12-.09-.05-.18-.1-.26-.15-.05-.03-.45-.3-.27-.17-.37-.28-.71-.61-1.03-.95-.5-.53-.97-1.21-1.26-1.87-.07-.16-.26-.75-.34-1.08-.02-.08-.09-.55-.06-.27q-.03-.345-.03-.69c0-.12.06-.65 0-.29.03-.17.07-.35.11-.52s.1-.34.16-.5c.12-.36.05-.1.01-.03.05-.11.1-.21.16-.31.09-.15.18-.3.28-.45.03-.06.22-.28.01-.03l.17-.2c.12-.13.24-.25.37-.37.06-.06.13-.12.2-.17-.21.17-.02.02.1-.05.15-.09.3-.17.45-.25.2-.1-.03.02-.06.03.08-.03.16-.05.25-.08.1-.03.61-.12.27-.08.22-.02.44-.03.66-.02.09 0 .19 0 .28.02-.31-.04.1.04.15.05.09.02.57.2.36.11.5.23.63.32.95.66.53.56.71 1.32.72 2.19.02 1.69 2.56 2.1 2.99.4Zm109.01 1.79c3.9 0 7.8.16 11.69.21s7.86.42 11.69-.03c2.43-.28 2.43-3.5 0-3.78-3.83-.45-7.84-.08-11.69-.03-3.9.05-7.8.21-11.69.21-2.19 0-2.2 3.41 0 3.41Zm-60.86-10.66c-.56 1.8-1.07 3.51-.68 5.4.36 1.78 1.57 3.18 3.01 4.19 3.01 2.11 7.56 1.87 9.62-1.44.95-1.54 1.2-3.63 1.09-5.41-.07-1.22-.16-2.89-1.46-3.43-.74-.31-1.51-.17-2.09.4-.69.68-.6 1.63-.41 2.49.05.22 0-.04 0-.08.01.12.03.24.04.36.01.18.03.36.03.54.01.45-.03.89-.05 1.34 0 .23.01-.04.02-.08-.02.12-.04.24-.06.35-.03.17-.07.35-.11.52-.05.19-.13.39-.17.58-.06.27.15-.23 0 .01-.06.09-.1.2-.16.29 0 .01-.12.18-.12.18-.04-.04.26-.28.04-.07-.12.12-.24.23-.36.35-.17.16.11-.1.12-.09 0 0-.17.11-.18.12-.08.05-.16.1-.25.14-.05.03-.33.19-.09.05.23-.12.03-.01-.03 0-.09.03-.18.06-.28.09s-.6.09-.29.08-.2.01-.28.01c-.22 0-.43-.01-.65-.03-.3-.01.35.08.06 0-.1-.03-.21-.04-.32-.07a5 5 0 0 1-.63-.19c-.07-.03-.17-.05-.23-.09.36.23.07.02-.03-.03-.19-.1-.37-.2-.55-.31-.06-.04-.12-.08-.19-.12-.26-.16-.01.05.05.05-.1 0-.38-.32-.45-.39-.02-.02-.42-.42-.41-.44 0 0 .29.39.04.06l-.18-.24c-.11-.16-.21-.34-.3-.51-.02-.04-.14-.26-.03-.04.13.25-.05-.15-.07-.21-.07-.22-.12-.44-.16-.67 0 .04.02.29.02.07 0-.14-.02-.29-.02-.43-.02-.43-.02-.87 0-1.3 0-.12.02-.23.03-.35.03-.29-.04.2.01-.08.05-.26.09-.52.14-.78.16-.81-.23-1.75-1.11-1.95s-1.69.26-1.95 1.11Zm34.18.84c.04.2.08.4.11.61.02.09.03.17.05.26-.01-.07-.02-.26 0 .08.03.4.05.81.04 1.21 0 .2-.01.4-.02.61 0 .09-.01.17-.02.26 0-.08.07-.35 0 0-.04.17-.08.34-.13.5-.03.08-.06.22-.11.3.07-.12.13-.26.01-.06-.18.3-.38.57-.57.87.18-.28.07-.1-.07.05s-.28.28-.43.42c-.07.06-.15.14-.23.19.01 0 .3-.21.11-.09-.15.09-.29.19-.44.28-.14.08-.29.16-.43.23-.35.18-.01.03.04 0-.08.05-.21.08-.31.11-.18.06-.36.11-.55.16-.08.02-.16.03-.24.05-.43.1.05 0 .06 0-.08.07-.47.03-.57.04s-.51-.08-.57-.03c.11-.09.4.08.11 0-.07-.02-.14-.03-.21-.05-.08-.02-.4-.18-.48-.16.03 0 .34.17.15.06-.08-.05-.17-.09-.26-.13a2 2 0 0 0-.18-.11c-.27-.15.06 0 .06.06 0-.04-.32-.29-.37-.34s-.24-.29-.08-.07c.16.2.01 0-.01-.03-.04-.07-.08-.13-.12-.2-.03-.05-.17-.38-.08-.16.08.21-.02-.07-.02-.09l-.12-.42c-.04-.17-.08-.34-.11-.52-.02-.12-.04-.24-.06-.35-.04-.23 0 .04.01.08-.03-.45-.07-.89-.06-1.34q0-.27.03-.54c0-.12.02-.24.03-.36.02-.23 0 .04-.01.07.15-.84.33-1.64-.24-2.38-.47-.61-1.25-.92-2.01-.69-.91.28-1.35 1.06-1.5 1.94-.31 1.84-.32 3.84.29 5.63.63 1.87 1.95 3.19 3.8 3.87s3.73.3 5.41-.47c1.79-.82 3.21-2.33 3.87-4.19.72-2.03.09-4.05-.52-6-.24-.79-1.12-1.38-1.95-1.11s-1.27 1.08-1.11 1.95Zm-17.44 15.08c-2.68-.1-5.19-1.28-7.91-.98-2.49.27-4.96 1.74-5.76 4.23-1.87 5.82 5.42 8.33 9.69 9.1 5.28.95 11.19.7 16.17-1.45 2.28-.99 3.83-2.91 3.94-5.45.1-2.41-1.34-4.59-3.49-5.59-2.89-1.34-5.82-.56-8.84-.4-3.25.17-6.58-.18-9.82-.36-2.36-.13-2.28 3.4 0 3.62 2.12.21 4.25.51 6.38.67s4.19 0 6.31-.22c1.53-.16 3.68-.44 4.9.77.85.85.63 2.26-.34 2.91-1.43.96-3.57 1.27-5.23 1.56-1.93.34-3.92.42-5.88.32-1.97-.1-3.91-.45-5.8-1-1.35-.39-3.5-.94-4.02-2.47-.54-1.62 1.67-2.37 2.85-2.49 2.28-.23 4.59.28 6.87.08 1.8-.16 1.86-2.78 0-2.84Z"/></svg>