<?xml version="1.0" encoding="UTF-8"?><svg xmlns="http://www.w3.org/2000/svg" viewBox="0 0 180 180"><path d="M62.89 59.44c-.11 4.97-.53 9.96-.72 14.93-.18 4.81-.54 9.7-.11 14.51.75 8.28 4.65 15.72 11.62 20.43 1.72 1.16 3.56 2.17 5.5 2.91s3.97 1.81 6.1 2.01c1.3.12 1.59-1.71.63-2.31-1.45-.92-3.16-1.39-4.63-2.31s-2.81-1.94-4.1-3.01c-2.61-2.17-5.06-4.65-6.87-7.53-4.46-7.1-3.62-15.66-3.77-23.69l-.15-7.72c-.05-2.74-.3-5.48-.31-8.21 0-2.04-3.13-2.04-3.17 0Z"/><path d="M63.62 64.85c-1.91-1.5-4.38-1.8-6.55-.66-1.85.98-3.12 2.82-3.94 4.69-1.91 4.32-2.81 10.14-.45 14.46 1.68 3.06 5.21 5.24 8.46 6.27.85.27 1.82-.25 2.15-1.05.37-.91 0-1.71-.74-2.27-2.39-1.82-5.68-2.72-6.74-5.86-.43-1.28-.52-2.63-.45-3.97.05-1.09.11-1.46.34-2.53s.51-2.08.91-3.08c.11-.28.33-.75.56-1.16.14-.25.3-.5.45-.74 0 0 .36-.49.19-.27.28-.36.61-.72.98-1-.25.19.34-.19.4-.23.37-.2-.13.01.24-.1.99-.3 1.56-.15 2.7.05 1.31.23 2.81-1.5 1.48-2.55Zm11.19 58.74c.28-4.98.33-9.97.35-14.96.01-2.41-3.76-2.42-3.75 0 .02 4.99.07 9.98.35 14.96.11 1.96 2.94 1.96 3.05 0"/><path d="M72.31 121.63c-3.27.78-6.59 1.36-9.86 2.12s-6.21 1.53-9.29 2.39c-6.14 1.71-12.33 3.59-18.22 6.04-2.74 1.14-5.33 2.49-7.55 4.5-1.99 1.8-3.57 4.08-4.82 6.44-2.14 4.05-3.75 8.38-4.63 12.87-.49 2.49-.9 5-1.37 7.5-.37 1.98-.59 4.03-1.08 5.99-.52 2.09 2.58 3.59 3.6 1.52 1.75-3.54 2.3-7.49 3.09-11.32s1.82-7.79 3.48-11.53c.99-2.24 2.14-4.52 3.75-6.4 1.73-2.01 3.88-3.41 6.26-4.54 5.44-2.58 11.38-4.27 17.1-6.11 3.35-1.08 6.72-2.09 10.08-3.11s6.86-2.21 10.33-3.11c2.09-.54 1.21-3.74-.89-3.24ZM60.13 76.68c.14.04.27.09.4.15l-.29-.12c.38.16.74.38 1.07.63l-.25-.19c.3.24.57.52.81.82l-.2-.26c.26.34.48.71.65 1.11l-.13-.32c.06.14.11.27.17.41l-.13-.32c.11.27.2.54.34.8.14.27.49.54.78.6s.58.05.85-.07c.25-.11.5-.29.63-.54l.13-.31c.06-.23.06-.47 0-.7-.05-.3-.19-.59-.33-.86-.09-.19-.2-.36-.32-.53-.28-.41-.6-.81-.97-1.14a6.6 6.6 0 0 0-2.58-1.49c-.61-.18-1.35.22-1.49.85-.15.66.2 1.28.85 1.49Zm53.81-17.24c-.01 4.64-.33 9.3-.42 13.94s.01 9.13-.27 13.67c-.24 3.76-.98 7.42-2.8 10.75-1.65 3.02-3.97 5.51-6.5 7.82-1.39 1.27-2.91 2.36-4.44 3.45-1.68 1.2-3.67 1.75-5.4 2.84-.96.61-.67 2.43.63 2.31 1.85-.17 3.52-1.02 5.24-1.69s3.48-1.43 5.11-2.43c3.36-2.05 6.19-4.75 8.42-7.99 5.24-7.64 4.75-16.91 4.42-25.76l-.31-8.21c-.11-2.91-.42-5.81-.48-8.71-.04-2.04-3.17-2.05-3.17 0Z"/><path d="M117.87 67.4c1.11-.2 1.66-.34 2.61-.07.39.11.06-.02.33.13.06.03.65.41.4.23.37.28.69.64.98 1s.99 1.65 1.2 2.17c.4.99.69 2.03.91 3.08s.28 1.44.34 2.53c.07 1.34-.03 2.69-.45 3.97-1.04 3.14-4.35 4.04-6.74 5.86-.72.55-1.14 1.37-.74 2.27.35.8 1.27 1.33 2.15 1.05 2.9-.92 5.87-2.72 7.73-5.17s2.29-5.46 2.07-8.36c-.32-4.07-1.58-8.98-5.07-11.48-2.21-1.59-5.08-1.42-7.2.25-1.33 1.04.17 2.78 1.48 2.55Zm-9.63 56.19c.28-4.98.33-9.97.35-14.96.01-2.41-3.76-2.42-3.75 0 .02 4.99.07 9.98.35 14.96.11 1.96 2.94 1.96 3.05 0"/><path d="M106.8 124.87c6.09 1.58 12.12 3.62 18.13 5.5 5.93 1.86 11.88 3.75 17.64 6.07 2.37.96 4.77 2.14 6.65 3.89 1.83 1.7 3.15 3.79 4.26 6 1.88 3.75 3.11 7.64 3.99 11.73.93 4.33 1.45 8.91 3.43 12.92 1.01 2.05 4.13.59 3.6-1.52-.44-1.75-.62-3.59-.96-5.36-.42-2.18-.79-4.37-1.19-6.55-.82-4.46-2.13-8.54-4.05-12.67-2.39-5.15-5.92-9.32-11.11-11.78-5.71-2.71-11.98-4.58-18.05-6.32-3.53-1.02-7.08-1.98-10.66-2.82-3.58-.85-7.22-1.49-10.8-2.34-2.1-.5-2.99 2.69-.89 3.24Zm12.43-50.52c-.97.29-1.83.81-2.58 1.49-.37.34-.69.73-.97 1.14-.12.17-.23.35-.32.53-.13.27-.28.56-.33.86-.05.35-.07.7.13 1.01.16.24.36.42.63.54.57.24 1.34.05 1.64-.54.13-.26.22-.53.34-.8l-.13.32c.06-.13.11-.27.17-.41l-.13.32c.17-.4.39-.77.65-1.11l-.2.26c.24-.3.5-.58.81-.82l-.25.19c.33-.25.69-.46 1.07-.63l-.29.12c.13-.06.27-.11.4-.15.3-.1.56-.28.72-.56.15-.26.22-.64.12-.93-.2-.61-.84-1.04-1.49-.85Zm-54.46-8.63c.79-3.3 3.27-5.89 5.4-8.54s4.08-5.89 3.51-9.24c11.46-.23 22.93-.47 34.39-.7-.13 6.76 8.04 11.22 8.64 17.95 2.17-3.55.3-8.06-.09-12.21-.68-7.03 3.14-13.99 2.15-20.98-.24-1.71-.82-3.47-2.11-4.63-1.37-1.24-3.31-1.61-5.15-1.84-11.58-1.44-25.74-3.85-37.23-1.79-1.49.27-3.12.61-4.07 1.79-.49.61-.75 1.38-1.19 2.03-2.11 3.16-7.38 2.47-9.8 5.41-1.17 1.42 1.07 7.86.9 9.7-.21 2.36-.43 4.71-.64 7.07-.49 5.38-.71 11.53 3.1 15.36"/><path d="M66.24 66.13c1.01-3.27 3.91-5.5 5.96-8.1 2.26-2.86 4.2-6.31 3.69-10.08l-2.23 2.23c11.47-.17 22.92-.69 34.39-.89l-2.03-2.03c0 3.66 1.77 6.67 3.88 9.52 1.84 2.48 4.36 5.22 4.72 8.43.21 1.91 2.77 3 3.87 1.05 2.66-4.69.21-9.61.11-14.55-.1-5.23 1.9-10.23 2.34-15.41s-.76-10.55-6.13-12.25c-2.3-.73-4.85-.86-7.24-1.19-2.63-.36-5.25-.72-7.89-1.04-5.18-.64-10.4-1.14-15.63-1.15-2.53 0-5.07.13-7.58.45-2.27.29-4.89.49-6.82 1.85-1.03.73-1.67 1.66-2.23 2.77-.38.75-.79 1.26-1.54 1.68-1.64.92-3.58 1.21-5.29 1.99-1.59.72-3.33 1.93-3.71 3.74-.36 1.7.05 3.57.35 5.25.17.95.37 1.89.53 2.84.1.56.14 1.06.06 1.91-.28 2.94-.62 5.89-.82 8.84-.34 5.07.07 10.97 4.12 14.56 2 1.77 4.52-.87 2.88-2.88-2.49-3.07-2.61-7.17-2.45-10.92.1-2.26.33-4.51.52-6.76.16-1.86.37-3.58.03-5.42-.28-1.55-.71-3.07-.98-4.62-.11-.61-.18-1.08-.15-1.74.01-.27-.03.03-.02.06 0 .01.05-.32.08-.34-.13.06-.04.25-.13.31.17-.12.32-.31.49-.44 1.27-.94 2.98-1.22 4.45-1.71 1.79-.59 3.54-1.4 4.74-2.91.55-.69.85-1.65 1.45-2.27.55-.57 1.57-.69 2.31-.84 2.14-.42 4.31-.62 6.49-.73 4.74-.23 9.49 0 14.22.44 4.68.43 9.34 1.05 14 1.64 1.89.24 4.27.14 5.89 1.31 1.55 1.12 1.79 3.44 1.84 5.2.15 5.29-1.91 10.36-2.29 15.62-.19 2.6.22 5.11.69 7.66.43 2.29.93 4.81-.29 6.94l3.87 1.05c-.38-3.68-2.29-6.61-4.46-9.5-1.84-2.45-4.21-5.22-4.22-8.45 0-1.08-.93-2.06-2.03-2.03-11.46.27-22.93.21-34.39.51-1.59.04-2.36 1.38-2.15 2.82.45 3.12-2.07 6.08-3.8 8.39-1.94 2.58-3.74 5.17-4.43 8.39-.41 1.92 2.37 2.71 2.95.81Zm20.31 3.96c-.05 3.31-.15 6.61-.18 9.92-.01 1.57-.04 3.13-.04 4.7s-.01 3.4.91 4.67c.41.57 1.05.92 1.77.72.63-.17 1.2-.83 1.15-1.51-.11-1.42-.42-2.77-.44-4.21-.01-1.58 0-3.16-.02-4.74-.01-3.18-.1-6.37-.13-9.55-.02-1.96-3.02-1.96-3.05 0Zm-.54 28.64c1.6.53 3.42.72 5.09.49.82-.11 1.58-.31 2.34-.66.8-.37 1.42-.95 1.89-1.68.81-1.27-.8-2.84-2.06-2.06-.25.16-.52.29-.78.43-.24.14-.53.35-.81.41.4-.09.06-.03-.05.01-.15.05-.31.1-.47.15-.27.07-.56.16-.84.17.48-.02-.04 0-.14 0-.17.01-.35.02-.52.02-.35 0-.69 0-1.04-.02-.74-.03-1.48-.14-2.22-.13s-1.34.55-1.43 1.27.35 1.37 1.05 1.6Zm-5.21-21.2c2.1 0 2.1-3.27 0-3.27s-2.1 3.27 0 3.27m15.77 0c2.1 0 2.1-3.27 0-3.27s-2.1 3.27 0 3.27"/><path d="M75.03 65.17c.21-.2.12-.18-.27.07.09-.03.18-.05.26-.08.09-.02.18-.04.27-.08.54-.23.62-.26.27-.11.23-.18.7-.28.98-.37.78-.26 1.61-.43 2.42-.57.14-.02.8-.18.19-.03.23-.05.49-.05.72-.07.45-.04.9-.07 1.36-.09s.91-.02 1.36 0c.93.03 1.79-.24 2.39-.98.57-.7.87-1.71.33-2.54-.61-.94-1.48-1.48-2.63-1.46-.52 0-1.03.04-1.55.09-1.18.12-2.35.31-3.5.63-.98.27-1.94.62-2.83 1.13-.48.27-.94.6-1.33 1-.23.24-.45.51-.59.8-.04.08-.1.17-.12.26-.05.18.18-.21-.06.08-.56.65-.69 1.69 0 2.32.63.58 1.7.68 2.32 0Zm30.85-4.6c-1.74-1.43-3.59-2.58-5.75-3.28-1.07-.35-2.17-.54-3.28-.69-1.5-.19-3.41-.31-4.21 1.29-.31.61-.46 1.51 0 2.11.29.37.54.72.95.97.46.27 1.02.34 1.54.33.46 0 .92-.06 1.37-.06s.91 0 1.37.05c.16.01.55-.02.68.07-.09-.06-.39-.06-.08 0 .14.03.28.05.42.08.9.17 1.78.43 2.64.73.11.04.21.08.32.12.03.01.36.14.17.06s.14.06.17.07c.1.05.21.1.31.15.44.21.85.47 1.26.74.73.48 1.74.2 2.25-.45.49-.63.54-1.74-.14-2.29ZM38.75 171.35c4.58-12.07 7.11-24.61 6.91-37.56-.04-2.47-3.87-2.48-3.84 0 .14 12.4-1.69 25.09-5.94 36.77-.66 1.81 2.2 2.57 2.88.79Zm16.08-43.37c-1.87 6.95-.78 14.53 2.91 20.71 3.56 5.95 9.31 9.48 15.87 11.35 13.35 3.8 29.81 2.92 39.29-8.47 5.26-6.32 7.31-14.38 9.89-22.01.91-2.68-3.34-3.84-4.23-1.17-2.04 6.07-3.63 12.43-7.13 17.88-3.55 5.53-9.31 9.21-15.64 10.72-5.73 1.37-12.13.85-17.86-.32-5.63-1.15-11.24-3.33-15.03-7.84-4.49-5.35-6.24-13.19-4.96-20 .38-2.01-2.56-2.88-3.1-.86Zm77.29 3.52c-1 2.95-1.02 6.36-1.06 9.45-.04 3.27.24 6.53.68 9.77.85 6.28 2.38 12.91 5.45 18.5.98 1.78 3.87.58 3.28-1.38-1.77-5.9-3.7-11.61-4.63-17.73-.45-2.96-.65-5.95-.75-8.93s.25-6.22-.04-9.28c-.16-1.65-2.37-2.05-2.93-.4"/><path d="M43.88 144.18c1.22.11 2.58-.27 3.79-.45 1.13-.17 2.25-.33 3.38-.5 1.2-.19 2.41-.38 3.61-.58.55-.09 1.15-.12 1.68-.29.85-.26 1.47-1.18 1.22-2.08-.48-1.76-2.51-1.16-3.81-.93-1.2.21-2.4.41-3.59.63-1.12.2-2.23.42-3.34.62-1.22.23-2.52.36-3.66.87-.57.26-.82 1.06-.66 1.63.18.65.75 1 1.39 1.06Zm74.1-5.53c2.08 1.08 4.42 1.48 6.68 2.01 2.31.54 4.62 1.08 6.93 1.63.94.22 1.93-.29 2.19-1.24.24-.89-.3-1.99-1.24-2.19-2.24-.48-4.48-.95-6.72-1.43-2.03-.43-4.3-.67-6.18-1.6-.79-.39-1.78-.21-2.24.59-.43.74-.2 1.83.59 2.24Z"/></svg>