<?xml version="1.0" encoding="UTF-8"?><svg xmlns="http://www.w3.org/2000/svg" viewBox="0 0 180 180"><path d="M62.89 59.44c-.11 4.97-.53 9.96-.72 14.93-.18 4.81-.54 9.7-.11 14.51.75 8.28 4.65 15.72 11.62 20.43 1.72 1.16 3.56 2.17 5.5 2.91s3.97 1.81 6.1 2.01c1.3.12 1.59-1.71.63-2.31-1.45-.92-3.16-1.39-4.63-2.31s-2.81-1.94-4.1-3.01c-2.61-2.17-5.06-4.65-6.87-7.53-4.46-7.1-3.62-15.66-3.77-23.69l-.15-7.72c-.05-2.74-.3-5.48-.31-8.21 0-2.04-3.13-2.04-3.17 0Z"/><path d="M63.62 64.85c-1.91-1.5-4.38-1.8-6.55-.66-1.85.98-3.12 2.82-3.94 4.69-1.91 4.32-2.81 10.14-.45 14.46 1.68 3.06 5.21 5.24 8.46 6.27.85.27 1.82-.25 2.15-1.05.37-.91 0-1.71-.74-2.27-2.39-1.82-5.68-2.72-6.74-5.86-.43-1.28-.52-2.63-.45-3.97.05-1.09.11-1.46.34-2.53s.51-2.08.91-3.08c.11-.28.33-.75.56-1.16.14-.25.3-.5.45-.74 0 0 .36-.49.19-.27.28-.36.61-.72.98-1-.25.19.34-.19.4-.23.37-.2-.13.01.24-.1.99-.3 1.56-.15 2.7.05 1.31.23 2.81-1.5 1.48-2.55Zm-4.85 59.82c-2.63.65-5.3 1.1-7.92 1.77s-5.2 1.44-7.75 2.33c-4.73 1.66-9.66 3.68-13.79 6.58-4.4 3.09-6.85 7.5-8.85 12.39-1.38 3.39-2.29 6.72-2.94 10.32-.38 2.12-.74 4.25-1.15 6.37-.18.95-.36 1.9-.53 2.85s-.21 1.52-.36 2.21c-.47 2.09 2.52 3.58 3.6 1.52 2.99-5.74 2.72-12.61 4.9-18.64 1.56-4.31 3.37-8.98 6.91-12.06s8.02-4.85 12.13-6.56c2.71-1.13 5.49-2.11 8.26-3.07s5.54-1.98 8.37-2.75c2.09-.57 1.21-3.76-.89-3.24Z"/><path d="M60.13 76.68c.14.04.27.09.4.15l-.29-.12c.38.16.74.38 1.07.63l-.25-.19c.3.24.57.52.81.82l-.2-.26c.26.34.48.71.65 1.11l-.13-.32c.06.14.11.27.17.41l-.13-.32c.11.27.2.54.34.8.14.27.49.54.78.6s.58.05.85-.07c.25-.11.5-.29.63-.54l.13-.31c.06-.23.06-.47 0-.7-.05-.3-.19-.59-.33-.86-.09-.19-.2-.36-.32-.53-.28-.41-.6-.81-.97-1.14a6.6 6.6 0 0 0-2.58-1.49c-.61-.18-1.35.22-1.49.85-.15.66.2 1.28.85 1.49Zm53.81-17.24c-.01 4.64-.33 9.3-.42 13.94s.01 9.13-.27 13.67c-.24 3.76-.98 7.42-2.8 10.75-1.65 3.02-3.97 5.51-6.5 7.82-1.39 1.27-2.91 2.36-4.44 3.45-1.68 1.2-3.67 1.75-5.4 2.84-.96.61-.67 2.43.63 2.31 1.85-.17 3.52-1.02 5.24-1.69s3.48-1.43 5.11-2.43c3.36-2.05 6.19-4.75 8.42-7.99 5.24-7.64 4.75-16.91 4.42-25.76l-.31-8.21c-.11-2.91-.42-5.81-.48-8.71-.04-2.04-3.17-2.05-3.17 0Z"/><path d="M117.87 67.4c1.11-.2 1.66-.34 2.61-.07.39.11.06-.02.33.13.06.03.65.41.4.23.37.28.69.64.98 1s.99 1.65 1.2 2.17c.4.99.69 2.03.91 3.08s.28 1.44.34 2.53c.07 1.34-.03 2.69-.45 3.97-1.04 3.14-4.35 4.04-6.74 5.86-.72.55-1.14 1.37-.74 2.27.35.8 1.27 1.33 2.15 1.05 2.9-.92 5.87-2.72 7.73-5.17 1.79-2.36 2.29-5.46 2.07-8.36-.32-4.07-1.58-8.98-5.07-11.48-2.21-1.59-5.08-1.42-7.2.25-1.33 1.04.17 2.78 1.48 2.55Zm1.1 60.26c5.23 1.37 10.46 3.23 15.51 5.16 4.38 1.67 8.82 3.49 12.67 6.21 6.84 4.83 9.05 13.05 10.68 20.82.79 3.76 1.3 7.7 3.08 11.15 1.06 2.04 4.08.59 3.6-1.52-.18-.77-.17-1.08-.32-1.95s-.29-1.67-.45-2.5c-.37-1.94-.72-3.88-1.06-5.83-.65-3.64-1.42-7.09-2.76-10.54-1.87-4.8-4.22-9.15-8.32-12.4s-8.61-5.24-13.32-6.97c-2.93-1.07-5.9-2.02-8.92-2.79-3.14-.8-6.34-1.33-9.49-2.08-2.1-.5-2.99 2.69-.89 3.24Z"/><path d="M119.23 74.35c-.97.29-1.83.81-2.58 1.49-.37.34-.69.73-.97 1.14-.12.17-.23.35-.32.53-.13.27-.28.56-.33.86-.05.35-.07.7.13 1.01.16.24.36.42.63.54.57.24 1.34.05 1.64-.54.13-.26.22-.53.34-.8l-.13.32c.06-.13.11-.27.17-.41l-.13.32c.17-.4.39-.77.65-1.11l-.2.26c.24-.3.5-.58.81-.82l-.25.19c.33-.25.69-.46 1.07-.63l-.29.12c.13-.06.27-.11.4-.15.3-.1.56-.28.72-.56.15-.26.22-.64.12-.93-.2-.61-.84-1.04-1.49-.85ZM68.9 101.5c-2.23.77-4.14 1.51-5.88 3.19-1.65 1.59-2.84 3.5-3.67 5.62-.81 2.08-1.16 4.41-.9 6.63.05.44.22.99.15 1.43-.1.59-.53 1.16-.72 1.73-.41 1.26-.38 2.65-.08 3.92 1.13 4.77 5.92 8.3 9.75 10.88 4.04 2.73 8.59 4.76 13.3 6.01 5.36 1.42 10.96 1.93 16.41.81 1.97-.41 1.52-3.55-.47-3.5-4.16.1-8.4.02-12.49-.82s-8.09-2.29-11.75-4.35c-3.44-1.93-7.37-4.5-9.54-7.88-.46-.72-.88-1.53-.95-2.4-.08-1.04.61-1.82.94-2.76.66-1.92-.14-3.97.11-5.95s1.09-3.79 2.2-5.41c1.01-1.47 2.77-3.35 4.45-4.02 1.9-.76 1.15-3.83-.86-3.13m41.55 6.45c.75.38-.12-.21.54.43l.33.26q-.24-.27.03.06c.47.49.95.98 1.38 1.51.79.95 1.45 2.02 1.99 3.13 1.33 2.71 1.56 5.87 1.62 8.83.03 1.37.31 3.19-.09 4.51-.34 1.13-1.52 2.18-2.33 2.99-1.02 1.01-2.09 2-3.26 2.83-1.22.86-2.56 1.55-3.79 2.4-1.73 1.2-.65 3.68 1.4 3.33 3.43-.59 6.87-3.07 9.23-5.55 1.23-1.29 2.64-2.81 3.16-4.56s.32-3.87.28-5.71c-.09-3.83-.55-7.69-2.29-11.15-.74-1.48-1.76-2.87-3.04-3.93-.59-.49-1.23-.96-1.94-1.28-.86-.39-1.41-.4-2.14-.69-1.49-.6-2.53 1.88-1.1 2.6Z"/><path d="M93.12 139.5c-.74 5.45-.89 10.96-1.11 16.44-.09 2.25-.81 5.7 2 6.62 1.1.36 2.41.37 3.56.48q2.16.21 4.32.3c5.33.22 10.66-.14 15.93-.98 1.2-.19 2.47-.32 3.38-1.23.98-.98.94-2.48 1.01-3.77.15-2.64.19-5.27-.19-7.89-.42-2.91-1.69-5.61-2.04-8.53s.43-6.13-.48-8.93c-.55-1.7-2.82-1.64-3.39 0-.74 2.13-.48 4.83-.48 7.06 0 2.27.22 4.4.87 6.58s1.22 4.1 1.35 6.28c.06 1.1.06 2.2.03 3.3-.02.63-.05 1.26-.08 1.89-.02.31-.08 1.33-.08 1.32l.79-.79c-.56.43-1.88.44-2.59.54-.99.15-1.99.27-2.99.38-1.99.21-4 .34-6 .4a80 80 0 0 1-8.89-.22c-.64-.05-2.11.05-2.64-.29l.77.77c-.01.28-.02.3-.01.06v-.41c0-.41.03-.82.04-1.23.03-.82.05-1.64.08-2.46.05-1.72.12-3.45.16-5.17.07-3.36.12-6.74-.1-10.1-.11-1.72-2.97-2.39-3.24-.44Z"/><path d="M96.43 151.92c7.49 1.1 15.02.59 22.31-1.43 2.01-.56 1.16-3.68-.86-3.13-6.86 1.85-14.01 2.44-21.09 1.91-1.5-.11-1.87 2.43-.36 2.65m-24.1-46.17c5.23 6.8 12.4 12.58 20.84 14.11 2.34.42 4.82.5 7.04-.36 2.63-1.02 4.61-3.27 6.02-5.71 1.44-2.5 2.38-5.3 2.74-8.16-4.85 4.18-9.86 7.71-16.24 8.24-4.52.38-9.26-.4-13.31-2.43"/><path d="M71.03 106.51c4.01 5.48 8.95 10.45 15.24 13.23 3.19 1.41 6.71 2.46 10.24 2.41 3.75-.06 7.08-1.69 9.47-4.58 2.66-3.22 4.19-7.35 4.76-11.46.25-1.79-1.58-3.04-3.06-1.78-3.6 3.08-7.56 6.04-12.24 7.18-4.95 1.21-10.44.31-15.01-1.82-2.32-1.08-4.37 2.28-2.03 3.48 5.34 2.74 11.82 3.47 17.65 2.07 5.47-1.31 10.03-4.72 14.21-8.33l-3.06-1.78c-.53 3.89-2.1 7.84-4.93 10.64-2.98 2.95-7.07 2.69-10.86 1.66-7.21-1.97-13.37-7.07-18.03-12.75-1.07-1.3-3.36.44-2.36 1.82ZM33.1 151.02c-.51 1.69-.42 3.73-.35 5.48s.21 3.49.46 5.21.57 3.35.97 5c.41 1.67.77 3.92 2.14 5.09.81.69 2.29.53 2.55-.67.37-1.73-.4-3.45-.83-5.1s-.77-3.31-1.03-4.98-.48-3.26-.6-4.91c-.13-1.67-.07-3.48-.46-5.12-.34-1.47-2.44-1.34-2.85 0m107.64 2.07c.1 2.56.01 5.14-.24 7.7-.12 1.21-.31 2.4-.51 3.59-.1.58-.21 1.17-.33 1.75-.06.29-.12.58-.19.87-.04.16-.36 1.05-.08.5l1.13-.87-.14.04 1.37.18-.11-.08c-.92-.65-2.17.05-2.47 1-.36 1.16.42 2.32 1.59 2.52s2.09-.59 2.42-1.66c.53-1.69.72-3.59.9-5.34.35-3.41.29-6.81-.16-10.2-.11-.85-.65-1.59-1.59-1.59-.84 0-1.63.73-1.59 1.59M86.37 67.2c-.04 3.91 0 7.81.05 11.71.02 1.78-.02 3.57.1 5.34.12 1.79.41 3.59 1.92 4.74 1.21.92 2.56-.6 2.33-1.79-.14-.73-.49-1.39-.62-2.12-.11-.59-.12-1.2-.14-1.8-.06-1.79-.1-3.58-.15-5.37-.11-3.57-.23-7.14-.42-10.71-.1-1.97-3.06-1.99-3.08 0Zm-.58 30.28c1.94.5 3.99 1.02 6.01.79 1.01-.12 1.93-.36 2.86-.79.86-.4 2.09-1.22 2.24-2.24.08-.56.03-1.07-.4-1.5-.39-.39-.96-.53-1.5-.4-.39.1-.65.27-.95.52-.06.05-.52.41-.2.18-.26.19-.53.37-.82.52-.08.04-.17.08-.25.12.19-.07.19-.08.01 0-.18.06-.35.13-.53.18s-.36.1-.55.13c-.05.01-.55.08-.34.06s-.3.02-.34.02c-.23.01-.47.02-.7.01-.37 0-.94-.05-1.18-.08s-.81-.13-1.17-.2c-.46-.09-.92-.19-1.37-.29-.78-.17-1.7.24-1.89 1.07s.24 1.68 1.07 1.89Zm-26.1 29.44c3.48 13.36 7.35 26.62 11.61 39.75.24.75.51 1.53 1.1 2.05.73.64 1.78.72 2.75.76 10.77.47 21.57.31 32.33-.48.4-.03.81-.06 1.14-.28.38-.24.59-.67.77-1.08.67-1.55 1.17-3.17 1.48-4.83-5.02.13-10.03.17-15.05.14-.55 0-1.15-.03-1.57-.39-.45-.39-.53-1.05-.58-1.65-.46-5.56-.93-11.11-1.39-16.67-.03-.31-.06-.63-.22-.88-.32-.49-.99-.58-1.57-.63-10.21-.89-20.13-4.95-28.03-11.47"/><path d="M58.15 127.34c1.15 5.96 2.83 11.88 4.5 17.71a628 628 0 0 0 5.25 17.5c.44 1.39.88 2.79 1.33 4.18s.93 2.81 2.16 3.7c2.08 1.5 5.31 1.11 7.74 1.18 6.3.19 12.61.16 18.91-.08 3.34-.13 6.8-.12 10.11-.6s4.13-4.86 4.67-7.59c.25-1.25-.56-2.59-1.95-2.56-4.85.11-9.71.13-14.57.07-.2 0-.46-.05-.65-.01-.58.12.13-.05-.06.1l.21.12-.02-.16c.06-.08-.07-.81-.08-.98-.11-1.31-.22-2.61-.32-3.92-.2-2.37-.39-4.74-.59-7.11l-.3-3.68c-.09-1.11-.1-2.22-.76-3.15-1.25-1.77-3.89-1.5-5.8-1.8-4.08-.64-8.11-1.78-11.93-3.38-4.3-1.8-8.38-4.25-11.99-7.2-.92-.75-2.22-.9-3.12 0-.78.78-.93 2.36 0 3.12 6.83 5.58 14.91 9.55 23.6 11.23 1.06.2 2.13.37 3.2.51.51.07 1.03.13 1.54.19.28.03.56.05.84.08.46.05.65.24.33-.26-.48-.76-.2.1-.18.42l.06.74c.06.65.11 1.31.17 1.96l.33 3.92c.21 2.53.43 5.07.64 7.6.19 2.26.21 4.93 2.85 5.68 1.17.34 2.54.17 3.74.16 1.38 0 2.75-.01 4.13-.03 2.91-.04 5.83-.1 8.74-.18l-1.95-2.56a24 24 0 0 1-.97 3.55c-.11.29-.32 1.22-.61 1.4.57-.35-.29-.2-.36-.2-.43-.05-1.05.07-1.49.1-2.73.18-5.47.32-8.2.42-5.55.21-11.11.24-16.67.11-1.33-.03-2.65-.07-3.98-.12-.79-.03-2.4.2-3.02-.42-.31-.31-.43-1.04-.56-1.44-.2-.62-.4-1.24-.6-1.85-.42-1.31-.84-2.63-1.26-3.95a653 653 0 0 1-4.75-15.62c-1.72-5.92-3.3-11.91-5.24-17.76-.65-1.96-3.46-1.16-3.07.85Zm27-61.98c-1.86-.88-3.61-1.51-5.66-1.75-1.79-.21-3.74-.06-5.46.45-1.89.55-3.55 1.68-4.43 3.48-.77 1.57-.97 3.31-1.02 5.04-.11 3.67.27 7.85 3.35 10.33 1.53 1.23 3.38 1.66 5.28 1.99 1.72.3 3.45.5 5.17.17 3.96-.74 5.79-5.03 5.54-8.72-.1-1.48-2.22-1.89-2.65-.36-.33 1.16-.4 2.41-.88 3.52-.4.93-1.34 1.37-2.24 1.6s-2.17.18-3.13.04c-1.22-.17-2.61-.36-3.74-.87-2.37-1.07-2.64-4.18-2.64-6.5 0-2.08-.16-4.83 2.08-5.67 2.77-1.04 6.46-.84 9.2.19 1.69.63 2.89-2.16 1.24-2.94Z"/><path d="m81.2 76.11.1-.02h.05c.12-.04.45-.22.36-.16l.3-.23.02-.02c.14-.13.24-.29.3-.47.09-.17.13-.36.12-.56l-.05-.38c-.07-.24-.19-.46-.37-.64h-.02c-.24-.21-.35-.32-.66-.4-.02 0-.03 0-.05-.01l-.1-.02a1.55 1.55 0 0 0-.8 0c-.26.07-.48.2-.67.39l-.24.31c-.14.24-.21.49-.21.76 0 .21.04.4.13.58.06.19.16.35.31.49.19.19.41.32.67.39.27.07.53.07.8 0Zm14.46-7.81c2.51-.94 5.51-1.06 8.12-.48 1.14.25 2.13.63 2.62 1.66.42.89.49 2.03.52 3.09.07 2.45.15 5.65-1.93 7.31-.89.71-2.3.89-3.43 1.1s-2.26.35-3.47.25c-.84-.07-2.04-.46-2.67-1.29-.78-1.03-.76-2.76-1.1-3.96-.43-1.51-2.55-1.13-2.65.36-.22 3.23 1.17 7.16 4.4 8.4 1.56.6 3.27.57 4.91.36 1.81-.23 3.72-.51 5.37-1.33 3.6-1.78 4.64-5.98 4.68-9.67.03-3.53-.34-7.72-3.94-9.46-1.94-.94-4.27-1.25-6.41-1.1-2.26.15-4.22.85-6.25 1.81-1.63.77-.47 3.58 1.24 2.94Z"/><path d="m98.36 73.2-.1.02h-.05c-.12.04-.45.22-.36.16l-.3.23-.02.02c-.14.13-.24.29-.3.47-.09.17-.13.36-.12.56l.05.38c.07.24.19.46.37.64h.02c.24.21.35.32.66.4.02 0 .03 0 .05.01l.1.02c.27.07.53.07.8 0 .26-.07.48-.2.67-.39l.24-.31c.14-.24.21-.49.21-.76 0-.21-.04-.4-.13-.58a1.1 1.1 0 0 0-.31-.49c-.19-.19-.41-.32-.67-.39a1.55 1.55 0 0 0-.8 0Zm-34.09-5.23c.33.02-.22-.07-.05 0 .02 0 .24.05.24.07-.19-.09-.23-.1-.13-.06.03.01.06.03.09.05.08.04.15.09.22.13.29.16-.22-.22.02.01.05.05.1.09.15.14.04.04.07.08.1.12.07.09.05.05-.07-.1 0 .01.12.17.13.19.44.66.78 1.38 1.19 2.06.48.77 1 1.51 1.57 2.22.25.31.5.62.76.92.13.15.26.3.4.45.4.41.9.57 1.47.62.89.07 1.68-.82 1.66-1.66-.01-.57-.22-1.06-.6-1.48-.15-.16-.3-.32-.44-.48-.29-.33-.57-.66-.85-1-.12-.16-.25-.31-.37-.47-.06-.08-.33-.35-.02-.02-.07-.07-.12-.16-.18-.24-.26-.35-.52-.71-.76-1.08-1.07-1.61-2.4-3.35-4.54-3.36-.78 0-1.54.69-1.5 1.5.04.85.66 1.45 1.5 1.5Zm51.56-3.04c-2.22 1.82-4.14 3.95-5.81 6.28-.26.36-.29.97-.18 1.38s.44.86.82 1.07c.92.49 1.86.17 2.45-.64.39-.54.79-1.07 1.2-1.61.04-.06.09-.12.13-.18-.1.14-.2.26-.04.05.1-.13.21-.26.31-.39.21-.26.42-.52.64-.77.86-1.02 1.75-2.02 2.67-2.99.56-.59.63-1.62 0-2.2-.67-.62-1.52-.55-2.2 0Zm-40.52-7.28c1.12-.56 2.45-1 3.9-1.28.18-.03.35-.07.53-.1.1-.02.2-.03.3-.05-.16.02-.17.02-.05 0 .36-.03.71-.07 1.07-.09.74-.03 1.48-.04 2.22-.02.79.02 1.45-.62 1.55-1.37.09-.7-.35-1.61-1.13-1.73-3.43-.54-6.93.27-9.94 1.97-.7.39-.99 1.41-.55 2.1.47.73 1.33.94 2.1.55ZM105 54.48c-1.34-.9-2.87-1.58-4.44-1.97-.83-.21-1.7-.34-2.55-.4-.98-.07-2-.06-2.9.37-1.28.61-.97 2.78.4 3.06.8.16 1.62.02 2.43.03.38 0 .76.02 1.13.05.14.01.28.03.42.04-.42-.05.19.03.26.05.7.12 1.39.31 2.06.54.13.05.26.1.4.15.17.07.17.07.02 0 .09.04.17.08.26.12.34.16.68.34 1.01.52.67.39 1.65.18 2.03-.53.4-.75.16-1.57-.53-2.03"/><path d="M64.67 59.96c4.63-3.87 7.03-10.52 6.42-16.47l-2.67 2.04c4.95 1.95 10.32 2.36 15.55 1.5 2.58-.42 5.05-1.22 7.43-2.29 2.36-1.06 4.84-2.44 6.53-4.45 1.33-1.59-.33-4.09-2.29-2.97s-3.91 2.56-6.06 3.55-4.32 1.6-6.57 1.98c-4.52.77-9.21.23-13.48-1.4-1.68-.64-2.8 1.19-2.6 2.6.73 5.07-1.17 9.89-4.57 13.61-1.43 1.57.71 3.63 2.3 2.3ZM94.73 49.6c3.09-.23 6.1-.7 9.03-1.73s5.7-2.43 8.23-4.24c.81-.57 1.24-1.53.81-2.49-.37-.85-1.4-1.49-2.35-1.15-.65.23-1.17.53-1.66 1.02-1.36 1.31.07 3.35 1.75 3 .14-.03.71-.13.98-.18l-1.53-3.64c-4.37 3.32-9.76 5.82-15.25 6.49-.78.1-1.45.6-1.45 1.45 0 .74.67 1.51 1.45 1.45Zm14.09 3.59c1.82-.19 3.53-.64 5.19-1.42.71-.34 1.4-.73 2.05-1.18.96-.67 2.34-1.53 2.28-2.86-.05-.99-.77-1.72-1.76-1.76-1.15-.06-1.9 1.01-2.7 1.68-.07.05-.13.11-.2.16-.19.16.36-.26.02-.01l-.42.3c-.32.22-.64.43-.97.62-.31.18-.64.35-.96.51-.17.08-.34.16-.52.24s-.05.05.05-.02c-.07.04-.16.07-.24.1-.72.28-1.45.5-2.21.66s-1.18.96-1.09 1.66.74 1.39 1.49 1.31Zm5.53 5.8c.39.19.78.34 1.2.41s.85.12 1.29.07c.28-.03.56-.07.83-.14s.51-.19.76-.3c.21-.09.37-.21.55-.35.27-.21.46-.4.61-.74.06-.13.1-.25.14-.38.14-.52 0-1.08-.39-1.46s-.93-.51-1.46-.39c-.22.05-.44.1-.63.23-.09.06-.18.13-.27.19-.18.13-.37.23-.57.32l.38-.16c-.25.1-.51.17-.77.21l.41-.05q-.33.045-.66 0l.4.05c-.23-.03-.46-.09-.68-.18-.32-.13-.85-.03-1.13.15s-.47.4-.6.7c-.26.62-.06 1.51.6 1.82Z"/><path d="M60.94 64.92c.79-4.94-1.14-9.65-1.33-14.55-.16-4.23 2.1-8.55 6.72-9.01 1.09-.11 2.14-.87 2.09-2.09-.33-7.81 8.05-11.45 14.6-12.05 4.39-.4 8.87-.21 13.25.24s8.78 1.44 13.19 2.05c4.84.68 10.19 1.27 14.79-.71 1.76-.76.89-3.81-.99-3.64-2.31.22-4.58.59-6.91.56s-4.62-.28-6.9-.63c-4.72-.73-9.4-1.64-14.17-2.03-8.51-.7-18.68-.99-25.64 4.8-3.34 2.78-5.61 6.99-5.41 11.4l2.09-2.09c-5.78.59-10.08 4.89-10.69 10.67-.59 5.62 2.03 11.05 2.15 16.64.04 1.72 2.85 2.28 3.15.43Zm58.88-27.7c3.89-.91 8.44-.22 11.94 1.72 2.24 1.24 5.13 4.54 2.39 6.81-1.32 1.1-.55 3.39 1 3.78 2.11.53 4.25.91 6.41 1.18 2.03.25 4.57.79 6.45-.18 1.35-.69 1.31-2.82 0-3.52-1.71-.92-4.08-.61-5.98-.81s-3.81-.58-5.68-1.03c.33 1.26.67 2.52 1 3.78 1.98-1.67 2.64-4.39 2.2-6.87-.45-2.57-2.25-4.62-4.35-6.05-4.75-3.23-10.86-3.35-16.23-1.85-1.96.55-1.14 3.51.84 3.04Zm16.16 21.74c1.9.55 3.78 1.11 5.75 1.38s3.93.31 5.92.28l-1.45-.6.06.05-.53-.91.02.08v-1.09c-.13.63-.09 1.09.17 1.7.34.81 1.48 1.12 2.26.92 1.09-.28 1.7-1.35 1.56-2.42-.09-.64-.46-1.2-1.02-1.53-.31-.18-.72-.32-1.07-.3 0 0-.83.1-.42.05-1.19.12-2.38.19-3.58.17-2.33-.02-4.63-.17-6.84-.81-1.95-.56-2.78 2.47-.83 3.03m5.05 10.88c1.42 3.67-.43 8.1-2.92 10.85-1.43 1.58-3.13 2.84-4.97 3.92s-4.28 1.69-4.89 3.87c-.26.91-.1 1.87-.3 2.79s-.54 1.73-1.01 2.53c-.93 1.56-2.3 2.84-3.84 3.79-1.85 1.14-3.92 1.8-6.02 2.29-2.25.52-4.91.45-6.96 1.54-1.56.83-1.24 3.44.5 3.83 1.99.44 4.22-.15 6.2-.55s3.84-.91 5.67-1.68c3.41-1.42 6.48-3.71 8.38-6.94.89-1.52 1.45-3.19 1.64-4.94.04-.35.2-.97.07-1.31-.23-.61-.08.46-.3.28.01 0 .41-.23.45-.25.83-.44 1.67-.86 2.48-1.34 3.18-1.89 6.22-4.4 8.05-7.67 2.1-3.77 2.38-7.85.77-11.84-.73-1.81-3.71-1.05-2.98.82Z"/></svg>