<?xml version="1.0" encoding="UTF-8"?><svg xmlns="http://www.w3.org/2000/svg" viewBox="0 0 180 180"><path d="M83.58 77.9c11.46 6.12 16.37 21.16 12.9 33.3-2.88 10.04-11.53 16.75-21.55 18.85-10.61 2.22-22.26-.91-30.51-8.19-4.96-4.37-7.98-10.33-8.49-16.94-.5-6.49 1.05-13.07 4.09-18.81 5.62-10.57 19.44-16.71 31.06-13.22 1.46.44 2.83 1.04 4.16 1.8 2.09 1.2 3.93-1.96 1.88-3.22-12.08-7.48-29.17-2.95-37.83 7.76-4.55 5.63-7.09 13-7.75 20.16-.68 7.33 1.01 15.02 5.45 20.98 7.74 10.4 21.63 15.88 34.4 14.72 11.64-1.06 22.96-7.45 27.87-18.41 5.75-12.83 2.65-30.44-9.41-38.66-1.51-1.03-3.09-1.94-4.76-2.69s-3.23 1.66-1.51 2.58Z"/><path d="M66.05 81.93c5.1 1.71 9.88 5.45 12.31 10.3 2.33 4.66 2.07 10.58-.15 15.24-2.34 4.9-6.78 8.27-12.2 9-5.22.71-10.73-.78-14.29-4.8-1.88-2.12-3.12-4.77-3.73-7.53-.31-1.41-.43-2.84-.38-4.28.05-1.52.44-2.94.67-4.43s-1.88-2.79-2.74-1.16c-1.44 2.73-1.46 6.21-1.04 9.19s1.58 6.02 3.32 8.56c3.63 5.3 9.56 8.58 16.01 8.63s12.96-3.3 16.63-8.86c3.56-5.39 4.64-12.84 2.41-18.95-2.57-7.06-8.96-11.81-16.03-13.77-1.85-.51-2.59 2.26-.79 2.86"/><path d="M79.42 93.84c-2.25-4.14-6.12-8.2-10.83-8.42s-9.46 2.17-12.09 6.08c-2.95 4.39-4.31 10.26-2.44 15.34 2.21 6 8.67 9.36 14.88 7.8 3.79-.95 7.07-3.57 9.1-6.91 1.45-2.39 2.3-5.18 2.21-7.98-.18-5.54-4.42-10.7-9.82-11.95"/><path d="M80.65 93.12c-1.72-3.22-3.87-6.29-7.13-8.1-3.26-1.82-7.21-1.86-10.69-.66-7.39 2.55-11.93 10.49-11.62 18.16.31 7.47 5.71 13.6 13.19 14.47 7.73.9 14.79-4.81 17.15-11.91 1.35-4.07.94-8.53-1.24-12.23-2.01-3.41-5.41-6.22-9.36-6.93-2.44-.44-3.45 2.98-1.03 3.75 5.18 1.66 9 6.58 8.14 12.16-.86 5.57-5.78 10.79-11.58 11.11-5.36.29-9.93-3.36-11.02-8.57-1.21-5.74 1.71-12.57 6.8-15.48 2.63-1.51 6.07-2.22 8.95-1 2.94 1.25 5.42 3.95 6.99 6.67.91 1.59 3.32.18 2.46-1.44Z"/><path d="M15.55 147.62c-1.44-14.28-2.5-28.61-3.08-42.95-.29-7.04-.5-14.1-.52-21.15-.01-4.62.21-10.92 5.16-13.07 2.71-1.17 5.94-1.15 8.83-1.37 3.62-.28 7.25-.5 10.88-.69 7.09-.36 14.19-.56 21.3-.63 14.38-.15 28.77.25 43.15.82 7.11.28 14.21.6 21.32.94 2.89.13 5.98 0 8.75.98 2.56.89 3.69 3.09 4.36 5.57 1.58 5.83 2.42 11.96 3.16 17.95.79 6.35 1.3 12.74 1.63 19.13.33 6.48.46 12.97.43 19.46-.03 6.13-.05 12.33-.54 18.45-.19 2.41-.71 5.05-2.93 6.4-2.48 1.51-5.76 1.84-8.57 2.32-6.94 1.18-13.98 1.8-20.99 2.37-14.06 1.14-28.18 1.33-42.27.83-6.99-.25-13.98-.66-20.96-1.2-3.6-.28-7.19-.59-10.78-.93s-6.94-.53-10.34-1.08c-1.26-.21-2.66-.47-3.72-1.23-.68-.48-1.62-1.5-1.48-2.44.18-1.17-.3-2.37-1.54-2.71-1.04-.29-2.53.36-2.71 1.54-.52 3.34 1.1 6.37 4.06 8.01s6.88 1.71 10.31 2.06c7.51.75 15.02 1.4 22.55 1.88 14.76.94 29.57 1.25 44.35.59 7.54-.33 15.05-.95 22.56-1.73 3.75-.39 7.49-.83 11.21-1.44 3.28-.53 6.75-1.01 9.77-2.48 6.29-3.07 6.05-10.46 6.27-16.47.24-6.61.32-13.23.22-19.85-.2-13.6-1.13-27.24-3.39-40.66-.53-3.14-1.08-6.29-1.86-9.38s-2.1-6.02-4.79-7.87c-2.51-1.73-5.68-2.12-8.64-2.3-3.6-.21-7.2-.32-10.8-.46-30.2-1.23-60.52-2.15-90.69.26-3.23.26-6.63.38-9.65 1.68-2.68 1.15-4.73 3.22-5.89 5.9-2.48 5.72-1.61 12.6-1.43 18.65.46 15.1 1.39 30.21 3.03 45.23.41 3.7.84 7.39 1.31 11.08.24 1.85 3.16 1.92 2.97 0Z"/><path d="M27.64 66.29c-.04-2.1.07-4.2-.05-6.31-.12-1.97-.41-3.95-.36-5.92.04-1.38.37-2.74 1.55-3.58 1.03-.74 2.44-.98 3.67-1.09 3.93-.32 7.97-.05 11.92-.03 3.05.01 7.61-.19 9.39 2.91.98 1.7.67 3.98.6 5.85-.09 2.47-.33 4.97-.21 7.44.1 2.11 3.49 2.84 3.9.53.45-2.54.5-5.15.61-7.73.09-2.27.29-4.68-.49-6.86-1.63-4.57-6.36-6.24-10.83-6.53-2.47-.16-4.96-.1-7.43-.13-2.25-.02-4.52-.12-6.76 0-3.97.23-8.1 1.48-9.6 5.56-.85 2.31-.48 4.78-.18 7.15.37 2.88.82 5.83.94 8.73.09 2.12 3.35 2.14 3.31 0Z"/><path d="M34.29 47.85c2.14-.1 4.3.18 6.35.81.7.22 1.43.5 1.88 1.08.56.71.59 1.68.6 2.58.04 3.93.07 7.87.11 11.8 0 .18 0 .37.11.52.18.26.56.26.88.24l6.56-.57c.99-.09 2.1-.24 2.69-1.03.51-.69.45-1.64.37-2.5-.2-2.07-.41-4.13-.61-6.2-.1-.98-.2-2-.69-2.86-1.08-1.93-3.59-2.42-5.78-2.71"/><path d="M34.29 49.24c2.02-.02 4.03.24 5.95.86.63.2 1.17.4 1.29 1.11.16.9 0 1.91 0 2.82 0 2.09 0 4.19.01 6.28v3.05c0 1.1.03 2.25 1.1 2.88.82.48 1.82.3 2.72.23 1.09-.08 2.19-.17 3.28-.25 1.74-.13 3.83-.02 5.33-1.04 1.71-1.17 1.75-3.11 1.59-4.98-.19-2.09-.34-4.19-.58-6.28-.26-2.19-1.03-4.04-2.92-5.29-1.56-1.02-3.5-1.38-5.32-1.6-2.18-.26-2.72 3.54-.52 3.87 1.42.21 3.41.27 4.45 1.4.56.6.63 1.48.71 2.27.13 1.29.27 2.58.41 3.87.12 1.09.36 2.25.31 3.35-.03.64-.45.66-1.07.75-1.24.18-2.5.24-3.75.36-.58.06-1.16.11-1.74.17-.43.04-1.22.25-1.62.11l.74.43-.17-.15.43.74c-.15-.39-.07-.98-.07-1.41 0-.57-.02-1.14-.03-1.71-.02-1.14-.04-2.28-.05-3.43-.04-2.24.13-4.59-.24-6.8-.34-2.05-1.79-3.12-3.68-3.67-2.13-.63-4.36-.85-6.57-.72-1.77.11-1.81 2.8 0 2.78Zm16.58 94.14c5.59 3.01 12.41 4.59 18.72 4.85 3.04.12 6.12-.16 9.09-.81s6.31-1.64 8.84-3.4c.81-.56 1.23-1.53.81-2.48-.36-.82-1.41-1.52-2.34-1.15-2.68 1.05-5.19 2.19-8.03 2.78s-5.57.75-8.37.68-5.73-.45-8.54-1.06c-3.02-.65-5.89-1.71-8.85-2.55-1.85-.52-3.06 2.21-1.32 3.14Zm73.92-76.29c9.52-.16 19.06 1.05 28.24 3.56 1.48.4 2.98.86 4.19 1.8 2.05 1.58 2.9 4.23 3.61 6.72 6.12 21.5 10.01 44.33 5.23 66.18-1 4.55-3.74 7.35-8.28 8.33-7.3 1.58-13.82 5.94-21.29 6.77 8.8-2.87 12.4-12.62 9.59-23.37-.76-2.92.78-16.38.36-19.37-.52-3.7.01-7.45.15-11.18.12-3.23-3.59-14.41-3.76-17.64-.47-8.88 2.34-10.47-3.28-17.36"/><path d="M124.79 68.51c9.6.24 19.34 1.35 28.55 4.19 1.99.62 3.38 1.54 4.32 3.43.87 1.74 1.28 3.75 1.79 5.62 1.28 4.65 2.44 9.34 3.43 14.07 1.96 9.4 3.28 18.92 3.3 28.53.01 4.74-.26 9.5-.94 14.19-.34 2.32-.7 4.68-1.31 6.94-.38 1.4-1.02 2.74-2.03 3.78-1.18 1.21-2.69 1.9-4.32 2.27-2.44.56-4.8 1.22-7.14 2.13-4.53 1.75-9.06 3.94-13.93 4.53l.6 4.4c7.34-2.52 11.46-9.15 12.01-16.7.15-2 .01-4-.27-5.99-.14-1.02-.34-2.03-.59-3.03-.06-.25-.12-.5-.17-.75.11.51 0 .05-.01-.21-.18-2.78.05-5.6.21-8.37s.42-5.69.39-8.53c-.01-1.58-.29-3.14-.29-4.72 0-2.6.35-5.19.37-7.79.02-2.73-.86-5.55-1.53-8.18-.75-2.94-1.6-5.87-2.15-8.86-.02-.12-.04-.25-.06-.38.04.26.02.24 0 0a34 34 0 0 1-.06-1.42c-.02-1.04 0-2.07.05-3.11.08-1.56.28-3.11.29-4.67.02-3.88-1.83-6.96-4.21-9.9-.73-.9-2.28-.76-3.04 0-.89.89-.73 2.13 0 3.04.91 1.13 1.92 2.56 2.41 3.77s.55 1.88.54 3.09c-.02 3.05-.53 6.06-.29 9.12.45 5.57 2.86 10.86 3.69 16.38.04.26 0-.01 0-.06.01.12.03.25.04.38.01.22.03.44.03.65 0 1.18-.12 2.37-.2 3.55-.16 2.43-.29 4.87-.02 7.29.27 2.3.07 4.63-.06 6.94-.17 2.98-.39 5.96-.44 8.95-.02 1.05-.03 2.11.07 3.16.16 1.52.64 2.98.85 4.5.99 7.05-1.42 15.07-8.77 17.51-1.05.35-1.78 1.33-1.61 2.46.15.99 1.08 2.08 2.2 1.94 4.83-.57 9.23-2.36 13.71-4.16 2.2-.88 4.41-1.76 6.69-2.41 1.94-.55 3.88-.97 5.63-2.05 3.49-2.16 5.02-5.68 5.8-9.56 1.01-5.01 1.6-10.11 1.81-15.22.43-10.32-.65-20.69-2.55-30.83-.96-5.14-2.18-10.22-3.53-15.27-1.1-4.1-1.94-9.3-5.47-12.11-2.09-1.67-4.82-2.23-7.36-2.84-2.93-.7-5.9-1.27-8.89-1.7-5.83-.84-11.66-1.19-17.55-.88-1.82.1-1.84 2.8 0 2.84Z"/><path d="M112.55 84.19c2.07.46 4.31.46 6.42.57l3.09.17 1.6.09c.76.04 1.32-.07 1.93-.56s.51-1.53 0-2.03c-.88-.87-2.38-.66-3.53-.71l-2.97-.12c-.99-.04-1.98-.06-2.97-.09-1.06-.02-2.15-.09-3.2.04-.66.08-1.23.45-1.32 1.17-.07.63.3 1.33.96 1.47Zm.16 10.72c2.07.46 4.31.46 6.42.57l3.09.17 1.6.09c.76.04 1.32-.07 1.93-.56s.51-1.53 0-2.03c-.88-.87-2.38-.66-3.53-.71l-2.97-.12c-.99-.04-1.98-.06-2.97-.09-1.06-.02-2.15-.09-3.2.04-.66.08-1.23.45-1.32 1.17-.07.63.3 1.33.96 1.47Zm.16 10.72c2.07.46 4.31.46 6.42.57l3.09.17 1.6.09c.76.04 1.32-.07 1.93-.56s.51-1.53 0-2.03c-.88-.87-2.38-.66-3.53-.71l-2.97-.12c-.99-.04-1.98-.06-2.97-.09-1.06-.02-2.15-.09-3.2.04-.66.08-1.23.45-1.32 1.17-.07.63.3 1.33.96 1.47Zm-99.85 21.16c2.38.44 4.93.24 7.34.27s4.96.02 7.44.04c4.96.03 9.92.06 14.89.08 2.34.01 2.35-3.62 0-3.64-4.96-.03-9.92-.03-14.89 0-2.48.01-4.96.01-7.44.05s-4.97-.14-7.34.32c-1.42.28-1.43 2.61 0 2.88m76.55-.71c2.37.34 4.85.15 7.24.12s4.59-.09 6.88-.15c4.75-.14 9.49-.32 14.24-.59 4.74-.27 9.47-.62 14.19-1.11 2.28-.23 4.55-.5 6.82-.78s5.14-.28 7.23-1.33c.72-.36 1.04-1.32.84-2.06-.23-.84-.95-1.24-1.76-1.34-1.2-.16-2.49.23-3.68.42-1.13.19-2.26.36-3.39.53-2.34.35-4.68.64-7.04.9-4.56.5-9.13.89-13.7 1.21s-9.16.55-13.75.75c-2.29.1-4.59.18-6.88.29s-4.89.04-7.24.51c-1.27.25-1.34 2.45 0 2.64ZM32.95 35.4c6 .53 12.29-1.91 16.27-6.47 4.21-4.82 5.71-11.48 4.3-17.69-1.29.55-2.59 1.09-3.88 1.64 3.89 6.32 10.51 11.05 17.73 12.74 7.81 1.83 16.28.24 22.91-4.28-.87-1.12-1.74-2.25-2.6-3.37-5.44 4.23-10.47 9.89-10.28 17.24s5.88 11.59 11.75 14.65c.36-1.33.72-2.66 1.08-4-6.88.58-12.85 4.63-15.5 11.05-.81 1.97 2.46 3.31 3.43 1.44 2.34-4.5 6.92-7.94 12.08-8.21 2.04-.11 3.02-2.91 1.08-4-4.43-2.49-9.49-5.64-9.47-11.35.02-5.85 4.55-10.44 8.87-13.79 1.92-1.49-.59-4.74-2.6-3.37-5.68 3.86-12.86 5.4-19.59 3.81-6.29-1.49-11.63-5.36-15.22-10.7-1.3-1.93-4.58-.78-3.88 1.64 1.4 4.89.35 10.43-2.95 14.35-3.34 3.96-8.38 5.99-13.52 5.65-1.96-.13-1.92 2.86 0 3.03Z"/></svg>