<?xml version="1.0" encoding="UTF-8"?><svg xmlns="http://www.w3.org/2000/svg" viewBox="0 0 180 180"><path d="M31.32 163.74c.48-10.03 1.77-20.01 3.26-29.93 1.64-10.85 3.4-21.68 5.09-32.53C41.3 90.83 42.89 80.36 44 69.83c.24-2.32.46-4.63.64-6.96.04-.46.22-1.12.12-1.57-.05-.22-.05 0 .05-.1-.11.11-.87.04.34.04 1.64 0 3.27-.09 4.91-.13 6.32-.16 12.63-.27 18.95-.35 3.29-.04 6.59-.07 9.88-.09 1.59 0 3.18-.02 4.77-.02h2.55c.46 0 1.32-.2 1.74.09.68.46.46 1.94.42 2.64-.07 1.3-.34 2.58-.63 3.84-.57 2.47-1.44 4.98-1.5 7.54-.03 1.2 1.07 2.32 2.28 2.28 19.12-.66 38.25-1.32 57.37-1.99 4.74-.16 9.48-.33 14.22-.49l3.49-.12c.92-.03 2.07-.29 2.96.02 1.14.4 1.17 1.46.91 2.44-2.35 8.84-4.53 17.72-6.52 26.65-1.98 8.89-3.83 17.8-5.68 26.72-.89 4.32-1.79 8.65-2.69 12.97-.45 2.16-.91 4.32-1.37 6.48-.22 1.03-.44 2.06-.67 3.09-.18.83-.22 1.95-.64 2.69-.32.56-.92.55-1.53.6-1.24.11-2.48.2-3.72.29q-3.6.285-7.2.54c-4.72.35-9.44.67-14.16.98-9.53.62-19.06 1.15-28.6 1.61-19.08.91-38.17 1.47-57.26 1.7-2.32.03-4.65.05-6.97.07-3.16.03-3.16 4.94 0 4.91 19.84-.23 39.68-.8 59.51-1.7 9.87-.45 19.74-.98 29.6-1.6 4.97-.31 9.94-.65 14.91-1.01s9.82-.56 14.68-1.14c2.41-.29 4.35-1.41 5.24-3.77.76-2.02 1.02-4.34 1.47-6.45.94-4.42 1.86-8.85 2.78-13.28 1.91-9.26 3.8-18.53 5.82-27.78 2.01-9.26 4.16-18.49 6.54-27.66.53-2.03 1.49-4.28 1.26-6.4-.21-1.96-1.32-3.78-3.04-4.79-1.97-1.16-4.19-.85-6.36-.77-2.49.09-4.99.18-7.48.26-19.79.7-39.58 1.39-59.37 2.09-2.49.09-4.99.18-7.48.26l2.28 2.28c.04-1.9.86-4.26 1.33-6.33.6-2.61 1.12-5.41.61-8.09-.28-1.44-1.09-2.73-2.37-3.48-1.42-.83-2.99-.77-4.58-.77-3.04 0-6.08.02-9.11.05a1565 1565 0 0 0-29.56.51c-1.52.04-3.22-.13-4.59.64-1.53.86-2.12 2.34-2.29 4.01-.52 5.09-.9 10.18-1.53 15.26-.67 5.47-1.45 10.93-2.26 16.38-1.73 11.61-3.72 23.18-5.23 34.82-1.54 11.94-2.96 23.94-3.27 35.98-.06 2.17 3.26 2.15 3.36 0Z"/><path d="M29.64 164.3c-3.72-5.79-4.31-11.66-5.8-18.38-3.97-17.87-7.63-35.8-11.29-53.74-.94-4.62-1.89-9.25-2.52-13.93-.24-1.75 1.16-3.29 2.93-3.23 8.89.3 17.8.33 26.69.1l-7.71 40.78c-.78 4.12-1.56 8.23-2.1 12.39-1.03 7.94-1.17 15.98-1.01 23.99"/><path d="M30.95 163.53c-3.33-6.04-4.17-12.92-5.61-19.56-1.68-7.74-3.31-15.48-4.92-23.23s-3.2-15.51-4.77-23.26c-.78-3.85-1.59-7.7-2.32-11.57-.37-1.92-.71-3.84-1.01-5.77-.14-.91-.88-2.84.49-3.11.92-.18 2.17.08 3.11.11l3.46.09c2.14.05 4.28.08 6.43.09 4.61.03 9.23 0 13.84-.12-.67-.88-1.34-1.76-2.01-2.63-1.93 10.11-3.86 20.22-5.77 30.34-1.88 9.94-4.06 19.87-4.8 29.97-.42 5.79-.46 11.6-.35 17.4.05 2.7 4.25 2.71 4.2 0-.19-10.03.21-19.98 1.95-29.87 1.74-9.93 3.75-19.82 5.6-29.73l3.18-17c.24-1.28-.56-2.67-2.01-2.63-8.48.24-16.97.24-25.45 0-1.85-.05-3.52.07-4.87 1.5-1.28 1.35-1.41 2.99-1.16 4.74.59 4.19 1.42 8.34 2.27 12.48 3.41 16.63 6.8 33.27 10.5 49.84.92 4.13 1.72 8.29 2.71 12.4.95 3.96 2.3 7.74 4.69 11.07 1.12 1.57 3.6.21 2.63-1.54Zm98.61-92.51c-3.04-12.71-7.22-25.07-12.25-37.13-.17.63-.33 1.26-.5 1.9 1.01-1.29 2.37-2.21 4.02-2.4.37-.04.75-.02 1.12 0 .43.02.11-.2.32.17.45.77.54 2.02.78 2.89 1.12 4.11 2.35 8.18 3.71 12.21 2.72 8.07 5.8 16 9.29 23.77.98 2.19 4.25.29 3.24-1.89-4.08-8.79-7.54-17.85-10.33-27.13-.7-2.34-1.37-4.69-2.01-7.04-.5-1.86-.66-4.59-2.22-5.89s-4.07-1.13-5.89-.62c-2.12.59-3.77 1.88-5.1 3.6-.45.58-.25 1.37 0 1.97 5.04 11.85 9.22 24.09 12.8 36.46.56 1.93 3.48 1.13 3.01-.83Z"/><path d="M116.02 36.8c-3.5.45-6.54-1.1-8.08-4.28-.87-1.79-1.33-3.82-1.83-5.74-.24-.91-.73-2.02-.65-2.97.08-.86.89-1.5 1.51-2 2.77-2.22 6.33-3.62 9.85-4.01 1.82-.2 3.7-.19 5.51.15.66.12 1.45.18 1.87.74.53.7.72 1.75 1.01 2.56 1.05 2.89 4.66 9.43.39 11.33-.95.42-1.16 1.79-.69 2.62.55.96 1.69 1.13 2.62.69 2.14-1.02 3.43-3.22 3.75-5.51.38-2.74-.54-5.38-1.42-7.93-.81-2.33-1.45-5.71-3.57-7.23-1.9-1.36-4.79-1.49-7.05-1.5-4.96-.03-10.03 1.54-14.03 4.5-2.12 1.57-3.95 3.5-3.64 6.33.3 2.71 1.23 5.64 2.2 8.18s2.43 4.99 4.87 6.38c2.39 1.35 5.2 1.69 7.79.74 1.5-.55 1.45-3.28-.41-3.04Zm5.4 88.36c-9.7 5.59-21.41 3.58-31.79 1.33-5.11-1.11-12.15-2.58-15.97 2.17-1.87 2.33-1.87 5.4-.65 8.03s3.58 4.31 5.99 5.56c10.32 5.37 22.59 6.26 33.86 3.91 5.45-1.14 11.56-3.31 15.21-7.75 1.83-2.21 2.88-4.89 2.43-7.78-.41-2.64-2.23-5.18-4.94-5.8-3.02-.69-6.1 1.16-8.92 1.97-3.29.94-6.66 1.37-10.08 1.47-7.15.2-14.02-1.39-21.08-2.12-2.08-.22-2.22 2.83-.47 3.45 5.34 1.9 11.18 2.68 16.82 2.98 5.5.29 11.12-.09 16.42-1.66 1.32-.39 2.59-.87 3.89-1.33.75-.27 1.75-.71 2.56-.42 1.68.6 1.7 3.09 1.18 4.45-.83 2.14-2.87 3.68-4.77 4.83-2.15 1.29-4.48 2.17-6.89 2.82-9.77 2.64-20.59 2.31-30.02-1.48-2.15-.86-4.5-1.89-6.16-3.56-1.23-1.24-2.19-3.43-.9-4.96 1.35-1.6 4-1.68 5.89-1.58 2.64.14 5.22.89 7.82 1.36 10.78 1.96 22.39 2.71 32.21-3.06 1.82-1.07.18-3.89-1.66-2.83ZM51.61 77.74c7.88-.22 15.76-.08 23.64-.29 3.9-.11 7.8-.22 11.7-.35 3.99-.13 7.94-.27 11.87-.99 1.88-.35 1.22-2.94-.42-3.1-3.9-.39-7.78-.16-11.7.04-3.9.2-7.8.42-11.7.64-7.81.45-15.59 1.25-23.39 1.69-1.51.09-1.53 2.4 0 2.36m24.2 23.76c-4.43.14-8.05 3.46-9.35 7.58-.68 2.14-.69 4.5.23 6.56s2.68 3.45 4.73 4.21c2.23.83 4.72.67 6.98.03 2.16-.61 4.28-1.61 5.78-3.33 2.8-3.22 3.44-7.95 1.03-11.59-2.77-4.2-8.69-5.54-12.66-2.18-1.43 1.21.4 3.36 1.94 2.52 2.42-1.33 5.5-1.11 7.34 1.08 1.75 2.08 1.74 5.11.11 7.25-.83 1.1-1.99 1.82-3.28 2.26-1.57.54-3.28.91-4.95.64-1.21-.2-2.44-.75-3.2-1.74-.8-1.04-.94-2.4-.73-3.64.47-2.87 2.89-6.34 6.03-6.58 1.95-.15 2-3.14 0-3.08Z"/><path d="M71.68 106.34c.88-1.12 2.59-1.36 3.88-.77s2.2 1.85 2.65 3.19c.7 2.06.37 4.56-1.2 6.08-1.57 1.51-4.43 1.61-5.82-.07-.61-.74-.88-1.7-1.1-2.63-.37-1.52-.52-3.45.77-4.33"/><path d="M72.6 107.27c.09-.09.17-.18.27-.26-.04.03-.18.16.03 0 .17-.13.08-.06 0-.02.11-.05.23-.08.35-.11.16-.04.32-.07.49-.11.37-.09-.28-.02.11 0h.38c.28 0 .04 0-.02-.01l.31.06c.1.02.2.06.3.09.27.09.04.02-.02 0 .21.1.4.21.59.34.24.15.07.05.02 0q.165.135.3.27c.135.135.19.2.28.3.04.04.18.23.02.01.14.18.26.38.38.58.05.08.09.16.13.24 0-.01.19.39.1.19s.08.22.08.2c.05.13.09.26.13.39.06.22.11.44.16.67.01.06.03.3 0 0 0 .09.02.18.02.27.01.23.02.46 0 .69 0 .09-.01.18-.02.27q-.03.27 0 0c0 .07-.02.13-.03.2-.04.2-.08.4-.14.59-.03.11-.07.22-.1.32-.03.08-.16.35-.02.06-.09.18-.18.36-.28.53-.06.1-.12.19-.18.28-.23.34.21-.2-.08.1-.15.16-.3.31-.47.45.28-.24-.1.06-.22.12s-.59.23-.21.12c-.22.06-.42.14-.64.19-.09.02-.21.06-.3.06.38.01.17-.02.08-.02h-.6c-.32 0 .06.02.08.02-.09.02-.26-.05-.35-.07l-.23-.06c-.06-.02-.11-.04-.17-.06-.12-.04-.07-.02.13.06-.16-.01-.38-.2-.52-.28-.28-.16.04.05.05.05-.07-.02-.17-.15-.22-.2-.07-.07-.14-.14-.2-.22.18.22.02.03 0-.03-.06-.11-.13-.21-.19-.33-.04-.07-.07-.13-.1-.2.07.17.06.16 0-.02q-.27-.765-.45-1.56c-.05-.21-.08-.42-.12-.63.07.38.01.09 0-.01l-.03-.39c0-.05.04-.68.01-.69.07.03-.08.34 0 .01.03-.1.09-.25.09-.34 0-.18-.18.3 0 .02.06-.1.12-.2.18-.29.16-.24 0 .02-.04.06.17-.21.29-.39.43-.62.68-1.17-.44-2.46-1.69-2.19-1.56.34-2.16 2.08-2.26 3.49-.09 1.15.17 2.36.48 3.46.41 1.43 1.12 2.7 2.37 3.54.95.64 2.22.89 3.34.79 2.68-.24 4.78-2.08 5.46-4.68.65-2.52 0-5.35-1.7-7.32-.97-1.12-2.33-1.81-3.81-1.87-1.55-.07-2.9.67-3.79 1.92-.37.52-.14 1.32.34 1.68.51.38 1.26.38 1.71-.1m57.41-7.26c-4.43.14-8.05 3.46-9.35 7.58-.68 2.14-.69 4.5.23 6.56.9 2.03 2.68 3.45 4.73 4.21 2.23.83 4.72.67 6.98.03s4.28-1.61 5.78-3.33c2.8-3.22 3.44-7.95 1.03-11.59-2.77-4.2-8.69-5.54-12.66-2.18-1.43 1.21.4 3.36 1.94 2.52 2.42-1.33 5.5-1.11 7.34 1.08s1.74 5.11.11 7.25c-.83 1.1-1.99 1.82-3.28 2.26-1.57.54-3.28.91-4.95.64-1.21-.2-2.44-.75-3.2-1.74-.8-1.04-.94-2.4-.73-3.64.47-2.87 2.89-6.34 6.03-6.58 1.95-.15 2-3.14 0-3.08Z"/><path d="M125.88 104.85c.88-1.12 2.59-1.36 3.88-.77s2.2 1.85 2.65 3.19c.7 2.06.37 4.56-1.2 6.08-1.57 1.51-4.43 1.61-5.82-.07-.61-.74-.88-1.7-1.1-2.63-.37-1.52-.52-3.45.77-4.33"/><path d="M126.8 105.77c.09-.09.17-.18.27-.26-.04.03-.18.16.03 0 .17-.13.08-.06 0-.02.11-.05.23-.08.35-.11.16-.04.32-.07.49-.11.37-.09-.28-.02.11 0h.38c.28 0 .04 0-.02-.01l.31.06c.1.02.2.06.3.09.27.09.04.02-.02 0 .21.1.4.21.59.34.24.15.07.05.02 0q.165.135.3.27c.135.135.19.2.28.3.04.04.18.23.02.01.14.18.26.38.38.58.05.08.09.16.13.24 0-.01.19.39.1.19s.08.22.08.2c.05.13.09.26.13.39.06.22.11.44.16.67.01.06.03.3 0 0 0 .09.02.18.02.27.01.23.02.46 0 .69 0 .09-.01.18-.02.27q-.03.27 0 0c0 .07-.02.13-.03.2-.04.2-.08.4-.14.59-.03.11-.07.22-.1.32-.03.08-.16.35-.02.06-.09.18-.18.36-.28.53-.06.1-.12.19-.18.28-.23.34.21-.2-.08.1-.15.16-.3.31-.47.45.28-.24-.1.06-.22.12s-.59.23-.21.12c-.22.06-.42.14-.64.19-.09.02-.21.06-.3.06.38.01.17-.02.08-.02h-.6c-.32 0 .06.02.08.02-.09.02-.26-.05-.35-.07l-.23-.06c-.06-.02-.11-.04-.17-.06-.12-.04-.07-.02.13.06-.16-.01-.38-.2-.52-.28-.28-.16.04.05.05.05-.07-.02-.17-.15-.22-.2-.07-.07-.14-.14-.2-.22.18.22.02.03 0-.03-.06-.11-.13-.21-.19-.33-.04-.07-.07-.13-.1-.2.07.17.06.16 0-.02q-.27-.765-.45-1.56c-.05-.21-.08-.42-.12-.63.07.38.01.09 0-.01l-.03-.39c0-.05.04-.68.01-.69.07.03-.08.34 0 .01.03-.1.09-.25.09-.34 0-.18-.18.3 0 .02.06-.1.12-.2.18-.29.16-.24 0 .02-.04.06.17-.21.29-.39.43-.62.68-1.17-.44-2.46-1.69-2.19-1.56.34-2.16 2.08-2.26 3.49-.09 1.15.17 2.36.48 3.46.41 1.43 1.12 2.7 2.37 3.54.95.64 2.22.89 3.34.79 2.68-.24 4.78-2.08 5.46-4.68.65-2.52 0-5.35-1.7-7.32-.97-1.12-2.33-1.81-3.81-1.87-1.55-.07-2.9.67-3.79 1.92-.37.52-.14 1.32.34 1.68.51.38 1.26.38 1.71-.1m-18.95-75.58c2.51-2.22 5.54-3.59 8.76-4.44 1.53-.4 3.1-.61 4.68-.7 1.72-.1 3.42.11 5.12.07 1.07-.03 1.68-1.64.58-2.15-3.37-1.58-7.72-1.17-11.2-.2-3.63 1.01-6.93 3.11-9.62 5.74-1.1 1.08.54 2.69 1.68 1.68m8.36 101.35c-.2 0 .04.01.02 0 .16.13.25.25.34.39.28.41.48.89.65 1.35.39 1.04.64 2.11.64 3.23 0 .85-.21 1.86-.54 2.54-.17.36-.47.88-.64 1.1-.22.29-.7.68-1.03 1.02-.6.65-.82 1.59-.26 2.33.61.81 1.71.76 2.5.26.95-.6 1.73-1.67 2.24-2.64 1.13-2.16 1.28-4.67.69-7.01-.53-2.11-2.34-6.65-5.28-5.01-1.15.64-.62 2.45.66 2.45Z"/></svg>