<?xml version="1.0" encoding="UTF-8"?><svg xmlns="http://www.w3.org/2000/svg" viewBox="0 0 180 180"><path d="M62.89 59.44c-.11 4.97-.53 9.96-.72 14.93-.18 4.81-.54 9.7-.11 14.51.75 8.28 4.65 15.72 11.62 20.43 1.72 1.16 3.56 2.17 5.5 2.91s3.97 1.81 6.1 2.01c1.3.12 1.59-1.71.63-2.31-1.45-.92-3.16-1.39-4.63-2.31s-2.81-1.94-4.1-3.01c-2.61-2.17-5.06-4.65-6.87-7.53-4.46-7.1-3.62-15.66-3.77-23.69l-.15-7.72c-.05-2.74-.3-5.48-.31-8.21 0-2.04-3.13-2.04-3.17 0Z"/><path d="M63.62 64.85c-1.91-1.5-4.38-1.8-6.55-.66-1.85.98-3.12 2.82-3.94 4.69-1.91 4.32-2.81 10.14-.45 14.46 1.68 3.06 5.21 5.24 8.46 6.27.85.27 1.82-.25 2.15-1.05.37-.91 0-1.71-.74-2.27-2.39-1.82-5.68-2.72-6.74-5.86-.43-1.28-.52-2.63-.45-3.97.05-1.09.11-1.46.34-2.53s.51-2.08.91-3.08c.11-.28.33-.75.56-1.16.14-.25.3-.5.45-.74 0 0 .36-.49.19-.27.28-.36.61-.72.98-1-.25.19.34-.19.4-.23.37-.2-.13.01.24-.1.99-.3 1.56-.15 2.7.05 1.31.23 2.81-1.5 1.48-2.55Zm14.19 58.74c.28-4.98.33-9.97.35-14.96.01-2.41-3.76-2.42-3.75 0 .02 4.99.07 9.98.35 14.96.11 1.96 2.94 1.96 3.05 0"/><path d="M74.31 121.63c-3.27.78-6.59 1.36-9.86 2.12s-6.21 1.53-9.29 2.39c-6.14 1.71-12.33 3.59-18.22 6.04-2.74 1.14-5.33 2.49-7.55 4.5-1.99 1.8-3.57 4.08-4.82 6.44-2.14 4.05-3.75 8.38-4.63 12.87-.49 2.49-.9 5-1.37 7.5-.37 1.98-.59 4.03-1.08 5.99-.52 2.09 2.58 3.59 3.6 1.52 1.75-3.54 2.3-7.49 3.09-11.32s1.82-7.79 3.48-11.53c.99-2.24 2.14-4.52 3.75-6.4 1.73-2.01 3.88-3.41 6.26-4.54 5.44-2.58 11.38-4.27 17.1-6.11 3.35-1.08 6.72-2.09 10.08-3.11 3.43-1.05 6.86-2.21 10.33-3.11 2.09-.54 1.21-3.74-.89-3.24ZM60.13 76.68c.14.04.27.09.4.15l-.29-.12c.38.16.74.38 1.07.63l-.25-.19c.3.24.57.52.81.82l-.2-.26c.26.34.48.71.65 1.11l-.13-.32c.06.14.11.27.17.41l-.13-.32c.11.27.2.54.34.8.14.27.49.54.78.6s.58.05.85-.07c.25-.11.5-.29.63-.54l.13-.31c.06-.23.06-.47 0-.7-.05-.3-.19-.59-.33-.86-.09-.19-.2-.36-.32-.53-.28-.41-.6-.81-.97-1.14a6.6 6.6 0 0 0-2.58-1.49c-.61-.18-1.35.22-1.49.85-.15.66.2 1.28.85 1.49Zm53.81-17.24c-.01 4.64-.33 9.3-.42 13.94s.01 9.13-.27 13.67c-.24 3.76-.98 7.42-2.8 10.75-1.65 3.02-3.97 5.51-6.5 7.82-1.39 1.27-2.91 2.36-4.44 3.45-1.68 1.2-3.67 1.75-5.4 2.84-.96.61-.67 2.43.63 2.31 1.85-.17 3.52-1.02 5.24-1.69s3.48-1.43 5.11-2.43c3.36-2.05 6.19-4.75 8.42-7.99 5.24-7.64 4.75-16.91 4.42-25.76l-.31-8.21c-.11-2.91-.42-5.81-.48-8.71-.04-2.04-3.17-2.05-3.17 0Z"/><path d="M117.87 67.4c1.11-.2 1.66-.34 2.61-.07.39.11.06-.02.33.13.06.03.65.41.4.23.37.28.69.64.98 1s.99 1.65 1.2 2.17c.4.99.69 2.03.91 3.08s.28 1.44.34 2.53c.07 1.34-.03 2.69-.45 3.97-1.04 3.14-4.35 4.04-6.74 5.86-.72.55-1.14 1.37-.74 2.27.35.8 1.27 1.33 2.15 1.05 2.9-.92 5.87-2.72 7.73-5.17s2.29-5.46 2.07-8.36c-.32-4.07-1.58-8.98-5.07-11.48-2.21-1.59-5.08-1.42-7.2.25-1.33 1.04.17 2.78 1.48 2.55Zm-12.63 56.19c.28-4.98.33-9.97.35-14.96.01-2.41-3.76-2.42-3.75 0 .02 4.99.07 9.98.35 14.96.11 1.96 2.94 1.96 3.05 0"/><path d="M104.8 124.87c6.09 1.58 12.12 3.62 18.13 5.5 5.93 1.86 11.88 3.75 17.64 6.07 2.37.96 4.77 2.14 6.65 3.89 1.83 1.7 3.15 3.79 4.26 6 1.88 3.75 3.11 7.64 3.99 11.73.93 4.33 1.45 8.91 3.43 12.92 1.01 2.05 4.13.59 3.6-1.52-.44-1.75-.62-3.59-.96-5.36-.42-2.18-.79-4.37-1.19-6.55-.82-4.46-2.13-8.54-4.05-12.67-2.39-5.15-5.92-9.32-11.11-11.78-5.71-2.71-11.98-4.58-18.05-6.32-3.53-1.02-7.08-1.98-10.66-2.82-3.58-.85-7.22-1.49-10.8-2.34-2.1-.5-2.99 2.69-.89 3.24Zm14.43-50.52c-.97.29-1.83.81-2.58 1.49-.37.34-.69.73-.97 1.14-.12.17-.23.35-.32.53-.13.27-.28.56-.33.86-.05.35-.07.7.13 1.01.16.24.36.42.63.54.57.24 1.34.05 1.64-.54.13-.26.22-.53.34-.8l-.13.32c.06-.13.11-.27.17-.41l-.13.32c.17-.4.39-.77.65-1.11l-.2.26c.24-.3.5-.58.81-.82l-.25.19c.33-.25.69-.46 1.07-.63l-.29.12c.13-.06.27-.11.4-.15.3-.1.56-.28.72-.56.15-.26.22-.64.12-.93-.2-.61-.84-1.04-1.49-.85ZM63.91 60.02c1.26-.3 2.39-1.1 3.4-1.88 1.03-.79 1.99-1.66 2.85-2.64 1.67-1.92 3.25-4.43 3.64-6.98.13-.87-.15-1.68-1-2.05-.72-.3-1.82-.08-2.17.71-.28.63-.55 1.27-.8 1.91-.13.32.07-.11-.03.08s-.33.75-.16.37c-.12.27-.24.54-.38.8-.52 1.04-1.16 1.99-1.84 2.93-.19.26.06-.06-.07.09-.08.11-.17.21-.25.31-.19.23-.38.45-.58.67-.38.42-.78.82-1.2 1.19-.88.79-1.76 1.27-2.73 2.19-1.03.97.05 2.59 1.33 2.29Z"/><path d="M70.41 47.23c4.98 5.24 11.72 8.35 18.93 8.82 7.13.46 14.91-1.85 20.2-6.75 1.43-1.32-.42-3.74-2.08-2.7-2.72 1.7-5.46 3.21-8.54 4.13s-6.21 1.32-9.37 1.17c-6.15-.28-12.31-2.83-16.99-6.82-1.47-1.25-3.51.71-2.14 2.14Z"/><path d="M112.92 60.32c3.8.43 7.88-1.74 10.71-4.06 3.18-2.61 5.51-6.47 6.12-10.56.68-4.61-.96-8.58-3.67-12.24-2.47-3.33-5.56-6.04-9.77-6.74-3.87-.64-9.11.06-11.79 3.27-1.05 1.26.24 3.08 1.77 2.29 1.74-.89 3.3-1.81 5.28-2.07 1.83-.24 3.75-.01 5.46.68 3.67 1.49 6.4 5.37 7.75 8.98 1.48 3.95.3 8.31-2.38 11.45-1.28 1.5-2.76 2.7-4.49 3.65s-3.57 1.38-5.45 2-1.42 3.13.45 3.35ZM90.18 35.63c.31-1.68.59-3.39 1.22-4.99.56-1.42 1.27-2.53 2.28-3.49.58-.55.74-.69 1.49-1.1.61-.34.98-.47 1.84-.63 1.59-.29 3.69.25 5.37-.3 1.62-.53 1.75-2.95 0-3.42-1.08-.29-2.27-.26-3.38-.26-1.05 0-2.11.06-3.15.27-1.81.36-3.53 1.36-4.84 2.65-2.81 2.8-4.04 6.97-3.82 10.87.04.75.54 1.4 1.31 1.49.69.08 1.52-.33 1.66-1.09Zm-8.41-16.76c-2.11-.19-4.3.36-6.04 1.59-1.93 1.36-2.89 3.13-3.71 5.27l2.94-1.2c-3.76-2.04-9.14-.12-11.89 2.8a11.77 11.77 0 0 0-2.93 5.51c-.23 1.06-.35 2.17-.29 3.26.04.58.11 1.17.22 1.74.05.25.11.5.18.74.14.4.15.48.03.23l.58-.99c-.15.17-1.1.44-1.35.56-.59.28-1.14.62-1.67 1.02-1.09.81-2 1.75-2.81 2.83-1.8 2.41-2.65 5.36-2.83 8.34-.18 3.01.32 6.25 1.36 9.08.95 2.59 2.52 5.24 5.32 6.09 1.84.56 3.5-2.03 1.95-3.34-1.38-1.17-2.44-2.35-3.04-4.1-.68-1.96-1.1-4.05-1.16-6.13-.1-3.71 1.16-7.86 4.67-9.68.85-.44 1.84-.6 2.56-1.28.87-.81 1.11-1.97.91-3.1-.33-1.95-.65-3.62.16-5.54.67-1.6 1.9-2.88 3.46-3.63 1.87-.9 3.57-.63 5.55-.68 1.13-.03 1.94-.89 2-2 .06-1.17 1.17-2.4 2.04-3.07 1.11-.86 2.38-1.25 3.78-1.14 2.05.16 2.02-3 0-3.19Zm7.04 52.67c-.27 3.26-.46 6.53-.48 9.8-.01 1.63-.01 3.27.03 4.9s0 3.39.41 4.98 3.08 1.76 3.34 0c.25-1.65.09-3.32.04-4.98s-.1-3.27-.12-4.9c-.03-3.27-.04-6.54.04-9.8.05-2.13-3.1-2.07-3.27 0Zm-5.13 24.37c1.05 2.64 3.86 3.56 6.49 3.7 1.23.07 2.49-.1 3.66-.45 1.31-.39 2.88-1.07 3.58-2.31.31-.55.27-1.24-.12-1.74-.42-.53-.99-.66-1.64-.56-.32.05-.6.16-.89.3-.11.05-.21.1-.31.15s-.23.1-.05.03c-.11.04-.21.08-.32.12-.13.05-.25.1-.38.16-.24.1-.29.13-.16.07.17-.06-.15.05-.18.06-.11.04-.22.08-.33.11q-.66.21-1.35.33c-.03 0-.38.06-.18.03s-.15.02-.19.02c-.26.03-.52.04-.78.05-.23 0-.46 0-.69-.01-.11 0-.7-.06-.38-.02a7.6 7.6 0 0 1-1.34-.3c-.2-.06-.4-.14-.6-.21-.3-.11.07.05-.1-.05-.09-.05-.19-.1-.28-.15-.02-.01-.28-.19-.15-.09s-.1-.1-.13-.12c-.02-.02-.22-.24-.13-.12.1.12-.13-.23-.13-.23-.38-.69-1.29-.96-1.99-.65-.66.29-1.22 1.13-.92 1.88Zm-.24-20.5v-.23c-.02-.43-.06-.46-.23-.85 0-.01 0-.02-.01-.03-.15-.25-.34-.44-.59-.59-.26-.15-.53-.22-.83-.23a1.67 1.67 0 0 0-1.42.82c0 .01 0 .02-.01.03-.12.19-.19.4-.2.62l-.03.23v.23c0 .23.04.44.14.64.07.21.18.39.35.54.15.16.33.28.54.35.2.1.41.15.64.14l.44-.06c.28-.08.53-.22.74-.43l.26-.34c.15-.26.23-.54.23-.84Zm17.72 0v-.23c-.02-.43-.06-.46-.23-.85 0-.01 0-.02-.01-.03-.15-.25-.34-.44-.59-.59-.26-.15-.53-.22-.83-.23a1.67 1.67 0 0 0-1.42.82c0 .01 0 .02-.01.03-.12.19-.19.4-.2.62l-.03.23v.23c0 .23.04.44.14.64.07.21.18.39.35.54.15.16.33.28.54.35.2.1.41.15.64.14l.44-.06c.28-.08.53-.22.74-.43l.26-.34c.15-.26.23-.54.23-.84Zm-25.78-7.93c.33-.2.66-.38 1-.55.15-.07.3-.15.45-.21.07-.03.13-.06.2-.09-.16.07-.16.07.02 0 .67-.25 1.34-.48 2.04-.64.33-.08.65-.14.98-.2.19-.03.38-.06.57-.08-.45.06.17-.01.25-.02.82-.07 1.62-.07 2.42-.27.65-.16 1.2-.86 1.17-1.54-.03-.72-.48-1.32-1.17-1.54-.86-.27-1.69-.22-2.57-.11s-1.71.27-2.55.52c-1.54.47-3.03 1.17-4.37 2.08-.66.45-1.02 1.37-.55 2.1s1.36.99 2.1.55Zm33.06-5.73c-1.52-.74-3.05-1.43-4.7-1.78-.88-.19-1.78-.31-2.67-.37s-2.31-.18-3.09.38c-.65.46-1.03 1.1-.92 1.92s.65 1.31 1.38 1.61c.48.19.96.08 1.45.04.37-.03.73-.06 1.1-.08.73-.03 1.46-.02 2.19.05.16.01.31.03.46.05-.43-.05.23.04.31.05q.54.09 1.08.21c.54.12.71.17 1.06.27.15.04.3.09.44.15-.22-.09.3.14.35.16.73.34 1.69.23 2.11-.55.37-.69.22-1.73-.55-2.11M72.51 109.3c-7.31 3.73-10.9 13.43-7.77 21.02 2.04 4.94 6.32 8.58 10.71 11.63 3.64 2.53 7.59 4.84 11.97 5.5 9.08 1.37 17.59-4.51 24.31-10.77 3.77-3.52 7.56-7.74 7.78-12.89.15-3.56-1.49-7.02-3.83-9.71s-5.32-4.73-8.31-6.67c-.1 6.68-4.87 13.03-11.27 14.98s-13.9-.66-17.71-6.15c-1.54-2.22-2.48-4.78-3.41-7.31"/><path d="M71.67 107.87c-3.27 1.7-5.93 4.1-7.73 7.34-1.77 3.19-2.69 6.92-2.42 10.57.63 8.63 7.49 14.55 14.3 18.94 3.83 2.47 8.02 4.45 12.61 4.85 4.32.37 8.61-.8 12.47-2.66 3.92-1.89 7.45-4.56 10.7-7.43 3.15-2.78 6.37-5.86 8.27-9.66 2.26-4.53 2.06-9.49-.43-13.89-2.54-4.51-6.84-7.47-11.05-10.26-1.35-.9-2.96.31-3.04 1.74-.37 6.66-5.73 12.96-12.57 13.42-3.4.23-6.74-.75-9.52-2.71-3.33-2.34-4.85-6.08-6.21-9.76-.4-1.08-1.44-1.81-2.62-1.49-1.04.29-1.89 1.54-1.49 2.62 1.35 3.72 2.8 7.47 5.65 10.32 2.39 2.4 5.54 4.11 8.84 4.88 6.97 1.61 14-.97 18.32-6.65 2.33-3.06 3.66-6.78 3.65-10.63-1.01.58-2.03 1.16-3.04 1.74 5.85 3.71 13.36 9.63 10.56 17.53-1.17 3.3-3.8 5.97-6.29 8.33-2.77 2.61-5.71 5.05-8.98 7.01-3.08 1.85-6.56 3.38-10.19 3.62-3.86.26-7.45-.92-10.77-2.81-3.25-1.85-6.36-4.09-9.08-6.65-2.44-2.3-4.56-5.04-5.41-8.33-1.63-6.26 1.35-14.02 7.17-17.1 1.9-1.01.22-3.86-1.68-2.87Z"/><path d="M65.18 130.41a66.55 66.55 0 0 0-2.3 30.32c.06.4.15.83.46 1.08.28.23.68.25 1.05.26l16.1.3c-.8-8.83-1.61-17.73-.57-26.53"/><path d="M63.66 129.99c-2.81 8.36-3.99 17.09-3.31 25.9.15 1.94.14 4.37.86 6.2.89 2.26 3.36 1.96 5.36 2 4.63.1 9.28.28 13.91.22 1.38-.02 2.05-1.22 1.87-2.46-.63-4.27-.83-8.69-1-13.01-.08-2.13-.11-4.26-.06-6.39.05-2.2.39-4.42.27-6.62-.1-1.83-2.72-2.29-3.25-.44-.62 2.18-.63 4.56-.7 6.81-.07 2.21-.05 4.43.03 6.64.16 4.52.75 9.01.91 13.52l1.94-1.94c-4.06-.2-8.14-.2-12.2-.27-.98-.02-1.95-.03-2.93-.05-.24 0-.49 0-.73-.01-.42-.06-.36.08.2.41.04-.03-.19-1.19-.2-1.22-.27-1.9-.44-3.81-.54-5.72-.38-7.63.47-15.4 2.6-22.74.57-1.96-2.39-2.74-3.03-.83"/><path d="M61.75 160.34c-.1 1.6-.2 3.19-.22 4.79-.01.76-.04 1.53-.02 2.3.03 1.04.18 2.47 1.25 2.97.93.44 2.19.13 2.46-1 .14-.58.03-1.08-.15-1.62-.13-.38 0 .24-.03-.13-.01-.2-.03-.4-.03-.61-.02-.72-.03-1.45-.05-2.17-.03-1.51-.1-3.03-.14-4.54-.02-.8-.69-1.57-1.53-1.53s-1.48.67-1.53 1.53Zm7.85.37c-.75-.23-1.54.15-1.92.81-.27.47-.31 1.03-.35 1.56q-.09 1.23-.03 2.46c.05.9.15 1.79.28 2.67.15 1 .24 2.32 1.25 2.84.76.4 1.58.15 2.06-.54.57-.83.14-1.87-.02-2.76-.05-.28-.1-.57-.14-.86-.03-.19-.03-.19 0 .01-.01-.1-.02-.19-.04-.29-.02-.14-.03-.29-.05-.43-.06-.62-.09-1.25-.11-1.88 0-.34-.02-.67-.02-1.01v-.72c0-.41-.12-.21-.32.6l-1.05.44h.08c.74.01 1.35-.57 1.45-1.28s-.35-1.4-1.06-1.62Zm2.76 1.02c-.08 1.78.08 3.52.41 5.27.14.79.31 1.59.57 2.34s.88 1.47 1.77 1.49c.72.02 1.58-.52 1.69-1.28.07-.53.03-1-.37-1.4-.37-.37-.9-.49-1.4-.37.67-.14 1.12.1 1.36.72-.02-.06-.04-.12-.05-.18-.05-.16-.09-.32-.13-.49l-.21-.84a25 25 0 0 1-.54-2.67c-.01-.09-.03-.19-.04-.28-.02-.16-.03-.19-.01-.08.01.11.01.08 0-.08-.02-.18-.04-.37-.07-.55-.04-.28-.09-.56-.13-.84-.05-.34.01.13-.03-.19-.02-.19-.05-.38-.07-.57-.08-.71-.58-1.41-1.38-1.38s-1.34.6-1.38 1.38Zm5.66-.41c.29 1.36.63 2.71 1.07 4.03.22.66.47 1.31.74 1.95.4.99.73 2.27 1.92 2.56.69.17 1.6-.1 1.93-.79.23-.49.35-.93.22-1.47-.07-.29-.22-.55-.35-.82-.14-.29-.28-.58-.41-.88s-.28-.59-.39-.89c.17.44-.06-.14-.09-.22l-.18-.45c-.52-1.27-1.01-2.55-1.42-3.86-.25-.78-1.1-1.36-1.93-1.1s-1.28 1.07-1.1 1.93Zm-41.6-8.07c-.21 5.34-.34 10.66-.31 16.01.01 2.2 3.41 2.21 3.42 0 .03-5.34-.1-10.67-.31-16.01-.07-1.8-2.73-1.8-2.8 0m101.92.04c-.62 5.12-1.36 10.23-1.99 15.35-.25 2.05 3.34 2.56 3.64.49.75-5.25 1.17-10.55 1.46-15.84.05-.84-.75-1.55-1.55-1.55-.92 0-1.45.72-1.55 1.55Zm-26.8 1.81.4-.44q.21-.225.39-.48l.17-.24.13-.31c.05-.17.06-.34.02-.52a.63.63 0 0 0-.09-.33.95.95 0 0 0-.27-.42l-.26-.2-.31-.13c-.17-.05-.34-.06-.52-.02-.17 0-.33.06-.48.15l-.24.16c-.18.12-.33.25-.48.4l-.44.4c-.14.13-.23.28-.29.45-.09.17-.13.34-.12.54 0 .19.03.37.12.54.06.17.15.32.29.45l.28.22c.22.13.45.19.7.19l.37-.05c.24-.07.44-.19.61-.36Zm3.01-5.26.28.83c.05.21.14.39.29.54.11.17.26.31.45.41.18.12.38.18.59.19.21.05.42.04.64-.03l.38-.16q.36-.21.57-.57l.16-.38c.08-.28.08-.56 0-.85l-.28-.83c-.05-.21-.14-.39-.29-.54a1.2 1.2 0 0 0-.45-.41c-.18-.12-.38-.18-.59-.19-.21-.05-.42-.04-.64.03l-.38.16q-.36.21-.57.57l-.16.38c-.08.28-.08.56 0 .85m3.2 9.44c2.01 0 2.01-3.12 0-3.12s-2.01 3.12 0 3.12m6.36-5.12c1.84 0 1.84-2.86 0-2.86s-1.84 2.86 0 2.86m7.75-3.45c2.02 0 2.02-3.14 0-3.14s-2.02 3.14 0 3.14m-88.52-2.06c1.86 0 1.86-2.89 0-2.89s-1.86 2.89 0 2.89m7.22-5.63c.09.05.19.1.28.14.2.1.33.15.52.2l.15.04.41.05c.21 0 .41-.04.59-.13.13-.04.24-.1.34-.2.17-.11.3-.25.4-.43l.16-.37.05-.41c0-.21-.04-.41-.13-.59-.06-.19-.17-.36-.32-.5l-.12-.1-.06-.05c-.12-.1-.26-.23-.37-.29-.09-.05-.19-.1-.28-.14a1.15 1.15 0 0 0-.6-.19c-.21-.05-.43-.04-.64.03-.21.05-.39.15-.54.29-.17.11-.31.26-.41.45l-.16.38c-.08.28-.08.57 0 .85l.16.38q.21.36.57.57Zm1.07 9.78c1.86 0 1.86-2.89 0-2.89s-1.86 2.89 0 2.89m-2.49-4.51c1.76 0 1.76-2.73 0-2.73s-1.76 2.73 0 2.73m43.71 20.59c1.91 0 1.91-2.97 0-2.97s-1.91 2.97 0 2.97m6.09-5.55c1.89 0 1.89-2.94 0-2.94s-1.89 2.94 0 2.94m3.04 6.08c1.88 0 1.88-2.92 0-2.92s-1.88 2.92 0 2.92m13.28-1.72c1.8 0 1.8-2.8 0-2.8s-1.8 2.8 0 2.8m-28.49-7.35c1.96 0 1.96-3.05 0-3.05s-1.96 3.05 0 3.05m-39.84 8.77c2.56 0 2.57-3.98 0-3.98s-2.57 3.98 0 3.98"/></svg>