<?xml version="1.0" encoding="UTF-8"?><svg xmlns="http://www.w3.org/2000/svg" viewBox="0 0 180 180"><path d="M67.74 108.72C62.31 97.42 57.11 86 52.76 74.24c-4.1-11.1-8.6-22.72-8.32-34.74.11-4.74 1.08-9.22 3.64-13.26 2.25-3.54 5.45-6.4 9.03-8.55 7.93-4.77 18.62-7.13 27.49-3.81 8.84 3.31 13.42 12.33 16.97 20.44 4.51 10.3 8.9 20.67 12.7 31.26 2.06 5.74 4.02 11.52 5.74 17.37 1.46 4.95 2.7 10.03 3.06 15.2.33 4.82-.02 9.91-2.11 14.34a24 24 0 0 1-7.24 8.86c-11.26 8.47-29.38 8.33-39.12-2.4-1.16-1.28-2.25-2.71-3.08-4.23-1.31-2.39-4.96-.26-3.66 2.14 3.99 7.3 10.81 12.17 18.89 14.06 8.04 1.89 16.65.95 24.11-2.57 8.24-3.89 14.53-11.3 16.23-20.35 2.13-11.38-1.52-22.94-5.02-33.65-4-12.25-8.81-24.13-13.86-35.97-3.76-8.81-7.38-18.49-15.15-24.61-8.94-7.04-20.88-6.97-31.18-3.15-8.98 3.33-16.94 9.68-20.2 18.93-1.92 5.44-1.87 11.49-1.13 17.15.85 6.49 2.7 12.77 4.88 18.93 4.36 12.34 9.63 24.29 15.27 36.1 1.38 2.9 2.79 5.79 4.21 8.67.94 1.9 3.74.24 2.83-1.66Z"/><path d="M59.58 89.28C70.82 77.56 86.24 69.8 102.15 66.9c2.2-.4 4.42-.7 6.65-.9s4.57-.49 6.78.18 3.24-2.34 1.48-3.51c-1.86-1.24-4.32-.97-6.45-.83s-4.38.38-6.55.68c-4.33.62-8.59 1.6-12.76 2.94-8.23 2.65-16.05 6.58-23.03 11.68-3.99 2.91-7.61 6.25-11.02 9.81-1.47 1.53.86 3.87 2.33 2.33"/><path d="M62.76 100.78c1.1-1.73 2.54-3.37 3.87-4.93s2.86-3.12 4.41-4.56c3.08-2.87 6.5-5.35 10.14-7.47 7.42-4.33 15.68-7.16 24.16-8.49 4.68-.74 9.46-.95 14.2-.7 2.61.14 2.61-3.93 0-4.06-17.79-.92-36.64 5.33-49.93 17.29a48 48 0 0 0-5.11 5.37c-1.6 1.96-2.82 4.02-4.11 6.17-.92 1.52 1.43 2.88 2.37 1.39ZM108 87.85c-.24-.07-.5-.1-.75-.1-.18 0-.4.04-.55.07-.18.04-.39.14-.55.21-.48.22-.84.6-1.14 1.01-.64.87-.59 2.08-.09 3 .12.22.28.42.45.6.05.05.11.1.16.15.15.13.31.26.49.36.44.26 1.02.43 1.54.39.25-.02.52-.04.76-.13.44-.16.69-.3 1.05-.6.19-.16.34-.37.48-.57.14-.22.25-.48.3-.73.13-.67.05-1.39-.35-1.96-.24-.34-.48-.61-.84-.82-.6-.34-1.33-.35-1.91.03-.23.14-.42.33-.56.56-.11.18-.18.37-.19.58-.05.21-.04.42.03.62.07.26.21.49.4.69.03.03.06.06.09.1l-.26-.34c.21.28.36.48.67.65.05.03.09.05.13.08l-.34-.26c.05.04.09.09.14.14l-.26-.34c.05.07.1.14.13.23l-.17-.4c.03.07.05.15.06.22l-.06-.45v.23l.06-.45c-.01.07-.03.13-.06.19l.17-.4c-.03.08-.08.15-.13.21l.26-.34c-.05.06-.11.12-.18.17l.34-.26c-.08.06-.16.11-.25.14l.4-.17c-.1.04-.21.07-.31.09l.44-.06q-.165.015-.33 0l.44.06c-.1-.02-.19-.04-.28-.08l.4.17c-.11-.05-.22-.11-.31-.18l.33.26c-.11-.08-.2-.18-.28-.29l.26.33c-.07-.1-.13-.2-.18-.32l.16.39c-.04-.1-.07-.21-.09-.32l.06.43q-.015-.165 0-.33l-.06.43c.02-.1.04-.19.08-.28l-.16.38c.05-.11.11-.22.18-.31l-.25.32c.08-.1.16-.18.26-.26l-.32.25c.14-.11.31-.19.47-.26l-.36.15c.1-.04.2-.07.31-.09l-.39.05h.07c.37-.03.76-.14 1.03-.43.22-.24.36-.51.4-.83s0-.66-.17-.93c-.21-.32-.5-.56-.87-.67Z"/><path d="M68.17 78.7c2.58 6.03 4.98 12.14 7.52 18.18 2.13 5.05 4.2 10.28 6.98 15.02 4.95 8.45 13.93 14.26 23.92 13.9 5.46-.2 10.62-2.4 14.22-6.57 1.35-1.56-.86-3.83-2.29-2.29-6.07 6.53-15.83 6.49-23.4 2.72-4.3-2.15-7.47-5.59-9.86-9.7-2.56-4.39-4.55-9.16-6.58-13.82-2.73-6.27-5.22-12.65-8.13-18.84-.77-1.63-3.07-.21-2.39 1.4Z"/><path d="M110.12 52.72c-3.3-9.09-6.63-18.25-11.73-26.46-3.45-5.54-8.05-10.85-14.3-12.75-3.69-1.12-7.65-.95-11.49-.54-3.89.41-7.78 1.07-11.41 2.51-9.43 3.75-16.37 13.12-17.22 23.23-.16 1.95-.04 4.12 1.32 5.53l-1.21.17c1.07 6.62 2.15 13.29 4.45 19.59 1.22 3.34 2.78 6.56 4.34 9.76 2.06 4.25 4.13 8.5 6.19 12.75 2.92-5.29 8.29-8.68 13.51-11.72 3.19-1.86 6.4-3.67 9.64-5.43 6.67-3.63 13.64-7.13 21.19-7.92 3.16-.33 6.34-.17 9.51-.02-.7-2.97-1.75-5.84-2.79-8.71Zm-20.56-17.3c.21-.53.56-1.14 1-1.66l-.68.43c.41-.49.92-.9 1.48-1.22.4-.3.83-.52 1.28-.55l-.04.03c1.28-.38 2.69-.35 3.9.23 3.14 1.51 3.02 6.58-.07 8.48-2.54 1.56-5.21.66-6.55-1.84-.64-1.19-.8-2.65-.31-3.9Zm-12.4 11.77c-2.54 1.56-5.21.66-6.55-1.84-.64-1.19-.8-2.65-.31-3.9.21-.53.56-1.14 1-1.66l-.68.43c.41-.49.92-.9 1.48-1.22.4-.3.83-.52 1.28-.55l-.04.03c1.28-.38 2.69-.35 3.9.23 3.14 1.51 3.02 6.58-.07 8.48Zm19.58 9.41c-1.12.77-2.44 1.19-3.74 1.59-.85.27-1.7.54-2.55.8-1.88.59-3.84 1.19-5.78.87s-3.83-1.86-3.85-3.82c0-1.24.72-2.39 1.68-3.16.96-.78 2.13-1.24 3.3-1.65a57 57 0 0 1 9-2.38l-5.65.75c1.95-.74 4.09-1.27 6.11-.75s3.82 2.38 3.64 4.46c-.12 1.35-1.04 2.54-2.16 3.3Z"/><path d="M112.04 52.19c-2.83-7.8-5.68-15.65-9.63-22.96-3.38-6.25-7.72-12.73-14.16-16.14-3.55-1.88-7.49-2.52-11.48-2.42-4.19.11-8.51.65-12.56 1.72-6.89 1.82-12.78 5.96-16.91 11.76-2.14 3.01-3.74 6.47-4.62 10.06s-1.57 8.33 1.19 11.45l.88-3.34-1.21.17c-1.15.16-1.55 1.52-1.4 2.46 1.19 7.39 2.44 14.8 5.29 21.75 2.91 7.1 6.54 13.93 9.89 20.83.66 1.37 2.75 1.24 3.45 0 3.56-6.28 10.5-9.73 16.54-13.16 6.92-3.93 14.01-8.18 21.79-10.13 4.55-1.14 9.13-1.03 13.79-.8 1.34.07 2.22-1.33 1.93-2.53-.72-2.97-1.75-5.84-2.79-8.71-.87-2.4-4.74-1.36-3.86 1.06 1.04 2.87 2.06 5.74 2.79 8.71l1.93-2.53c-4.4-.22-8.77-.31-13.12.56-4.11.82-8.04 2.37-11.81 4.16-3.89 1.84-7.66 3.95-11.41 6.06-3.52 1.98-7.08 3.93-10.4 6.23-3.51 2.43-6.71 5.32-8.83 9.07h3.45c-3.26-6.72-6.87-13.37-9.66-20.3-2.75-6.82-3.95-14.1-5.12-21.32l-1.4 2.46 1.21-.17c1.61-.22 1.76-2.35.88-3.34s-.84-2.5-.76-3.75c.09-1.53.39-3.04.79-4.52.76-2.79 2-5.4 3.62-7.8 3.34-4.94 8.31-8.59 14.03-10.27 3.7-1.09 7.62-1.61 11.47-1.79 3.44-.17 6.93.1 10.05 1.67 5.64 2.84 9.39 8.32 12.4 13.67 4.14 7.35 7.03 15.3 9.89 23.21.87 2.4 4.74 1.36 3.86-1.06Z"/><path d="M91.48 35.95c-.21.52-.01.06.03-.03l.18-.33q.09-.165.21-.33c.06-.09.35-.46.06-.1.63-.79.81-1.78.16-2.63-.58-.76-1.73-1.06-2.58-.52l-.68.43c.81 1.05 1.62 2.09 2.42 3.14.16-.19.33-.37.52-.53.05-.04.33-.34.14-.12-.17.19.11-.06.16-.1.19-.12.37-.25.56-.36.06-.04.12-.07.19-.11l-.22.09c.04-.08.68-.12 0-.05l-1.01-3.73-.04.03c-.84.54-1.21 1.56-.82 2.5s1.39 1.43 2.36 1.16c.09-.02.68-.1.72-.17-.05.09-.39.03-.09.01.15 0 .29-.02.44-.02.2 0 .39.01.59.02.49.02-.42-.12.05.01.14.04.29.07.43.11.02 0 .25.06.28.09l-.2-.09c.06.03.12.05.18.08.13.07.26.14.39.22.43.28-.32-.3.06.04.12.11.22.22.33.34.26.27-.28-.42-.08-.11.03.05.07.1.11.16.09.13.16.27.23.41.03.06.05.12.08.17-.27-.48-.13-.34-.08-.17s.11.33.15.51c.05.19.07.74.03.04 0 .13.03.26.03.39v.49c0 .07 0 .13-.01.2-.04.48.05-.23.02-.09-.07.31-.12.62-.23.92-.02.06-.05.13-.07.19-.12.35.19-.38.07-.15-.09.16-.16.33-.25.49-.08.14-.21.28-.28.42 0-.02.33-.4.13-.17-.06.06-.11.13-.17.19-.1.11-.21.22-.33.32-.05.05-.33.25-.04.04s-.03.02-.09.06c-.16.11-.33.2-.5.29l-.12.06c-.2.09-.16.08.11-.04 0 .01-.26.1-.24.09-.2.07-.4.11-.6.16-.14.04-.34 0 .17-.01-.12 0-.24.02-.36.03-.18 0-.41-.05-.58-.02.37-.05.38.07.19.02l-.28-.06c-.09-.02-.18-.06-.27-.08-.31-.08.12.05.16.08-.17-.13-.43-.21-.61-.33-.06-.04-.13-.1-.19-.13.45.24.16.13.03.01a6 6 0 0 1-.51-.53c-.13-.14-.04-.19.08.1-.04-.1-.16-.23-.22-.32s-.11-.19-.17-.29c-.03-.05-.26-.49-.12-.21s-.04-.13-.06-.17a3 3 0 0 1-.12-.42c-.01-.05-.15-.47-.04-.16.1.28 0-.14-.01-.24v-.36c0-.07 0-.14.01-.21.01-.15 0-.1-.03.18.03-.04.04-.22.06-.28.04-.19.11-.37.17-.55.37-.98-.41-2.24-1.4-2.46-1.14-.26-2.06.35-2.46 1.4-.95 2.51.02 5.59 1.99 7.35.89.8 1.97 1.4 3.16 1.59 1.37.21 2.66 0 3.92-.56 1.91-.86 3.32-2.62 3.84-4.63.48-1.85.29-4.04-.81-5.65-1.7-2.5-4.84-3.27-7.67-2.46l1.54 3.66.04-.03c.72-.46 1.2-1.4.92-2.26-.25-.78-1.04-1.56-1.93-1.47s-1.64.4-2.42.89c-.64.41-1.25.88-1.75 1.45-.66.76-.79 1.8-.16 2.63.58.76 1.73 1.06 2.58.52l.68-.43c-.81-1.05-1.62-2.09-2.42-3.14-.65.81-1.11 1.59-1.51 2.55-.18.45-.03 1.15.2 1.54.24.41.72.81 1.2.92.51.12 1.09.09 1.54-.2s.71-.69.92-1.2Zm-15.33 9.51-.36.21c-.16.08-.47.14 0 .02-.25.06-.48.17-.73.23l-.12.03c-.22.04-.16.03.17-.01-.09-.01-.2.02-.3.02-.2 0-.45-.05-.64-.02.34.05.4.06.19.02l-.11-.02q-.165-.03-.33-.09c-.22-.07-.3-.21.05.04-.09-.06-.22-.1-.31-.15l-.3-.18c-.07-.04-.33-.26-.09-.05.26.23-.07-.07-.12-.11a3 3 0 0 1-.26-.26c-.07-.08-.14-.16-.21-.23-.28-.31.21.32 0 0-.15-.23-.28-.46-.41-.69-.19-.35.1.37-.03-.05-.04-.14-.09-.27-.13-.41-.03-.12-.05-.24-.08-.35-.03-.15-.02-.09.02.18 0-.07-.02-.14-.02-.22-.01-.15-.09-.68 0-.79-.04.29-.05.33 0 .11l.03-.14c.03-.14.08-.27.12-.41.14-.45-.21.37.02-.04.07-.13.13-.26.21-.39.06-.11.13-.22.2-.33.06-.09.41-.54.1-.16.63-.79.81-1.78.16-2.63-.58-.76-1.73-1.06-2.58-.52l-.68.43c.81 1.05 1.62 2.09 2.42 3.14.16-.19.33-.37.52-.53.05-.04.33-.34.14-.12-.17.19.11-.06.16-.1.19-.12.37-.25.56-.36.06-.04.12-.07.19-.11l-.22.09c.04-.08.68-.12 0-.05l-1.01-3.73-.04.03c-.84.54-1.21 1.56-.82 2.5s1.39 1.43 2.36 1.16c.19-.05.39-.09.58-.14.23-.04.19-.04-.09 0l.29-.03c.31-.02.73-.06 1.03.02-.56-.16.08.04.19.07.09.03.19.05.28.09.21.08.19.06-.06-.04.21.02.47.25.65.36.29.18-.4-.35-.03-.01.07.06.14.13.21.2.13.13.33.49 0-.04.07.11.15.2.21.31.05.08.1.16.14.25.09.17.17.55 0-.05.07.23.16.45.21.69.03.11.04.22.06.33-.17-.63-.03-.25-.02-.05q.03.345 0 .69c-.01.18-.13.62.02-.04-.03.13-.04.26-.07.39-.05.23-.11.45-.19.67-.18.49.17-.32.01-.01-.05.09-.09.18-.13.27-.06.12-.13.23-.2.35-.1.15-.4.45.02 0-.16.17-.31.36-.48.52-.14.13-.5.32.01.02-.12.07-.23.16-.35.24-.88.56-1.32 1.81-.72 2.74s1.79 1.32 2.74.72c2.08-1.32 3.3-3.61 3.36-6.06.05-2.31-1.09-4.74-3.2-5.82-1.71-.88-3.69-1.01-5.53-.48l1.54 3.66.04-.03c.72-.46 1.2-1.4.92-2.26-.25-.78-1.04-1.56-1.93-1.47s-1.64.4-2.42.89c-.64.41-1.25.88-1.75 1.45-.66.76-.79 1.8-.16 2.63.58.76 1.73 1.06 2.58.52l.68-.43c-.81-1.05-1.62-2.09-2.42-3.14-1.13 1.41-1.97 3.04-1.86 4.91.1 1.73.8 3.31 1.95 4.6.91 1.01 2.21 1.77 3.55 1.98 1.64.26 3.23-.08 4.65-.94.9-.54 1.31-1.82.72-2.74s-1.78-1.29-2.74-.72Zm19.58 9.41c-1.11.72-2.32 1.1-3.58 1.49-1.27.4-2.53.83-3.81 1.18-1.68.46-4.55.91-5.42-1.06-.81-1.85 2.58-3.04 3.9-3.5a58 58 0 0 1 8.51-2.21c2.19-.4 1.71-4.23-.53-3.93l-5.65.75.53 3.93c1.87-.69 4.43-1.52 6.18-.24 1.4 1.02 1.34 2.53-.13 3.59-.88.63-1.3 1.74-.72 2.74.51.87 1.85 1.35 2.74.72 1.53-1.1 2.8-2.57 3.08-4.49.26-1.81-.37-3.51-1.59-4.86-2.75-3.04-7.14-2.6-10.62-1.31-.93.34-1.59 1.16-1.43 2.19.13.88.97 1.87 1.96 1.73l5.65-.75-.53-3.93c-3.6.66-7.26 1.57-10.64 3.02-3.12 1.34-5.89 4.53-4.38 8.09 1.43 3.37 5.24 4.28 8.54 3.73 1.74-.29 3.42-.91 5.1-1.43 1.67-.52 3.38-1.03 4.85-2 2.15-1.4.15-4.86-2.02-3.45Zm37.83 41.08c2.88 6.28 2.71 13.97.51 20.41s-6.65 12.43-12.04 16.72c-12.33 9.81-30.89 11.02-44.87 4.19-7.91-3.86-13.94-10.13-17.69-18.07-.53-1.13-2.15-1.42-3.16-.83-1.18.69-1.34 2.02-.83 3.16 7.25 16.42 25.48 25.38 42.9 24.57 8.65-.4 17.51-2.99 24.6-8.06 6.49-4.63 11.55-10.98 14.47-18.4 1.55-3.95 2.44-8.28 2.33-12.54-.12-4.56-1.53-8.67-3.73-12.61-.92-1.66-3.28-.2-2.51 1.47Z"/><path d="M106.87 144.78c2.59 5.37 5.18 10.74 7.78 16.11 1.31 2.71 2.7 5.53 5.1 7.36s6.11 2.31 8.31.25c1.45-1.36 1.93-3.52 1.71-5.49s-1.04-3.83-1.85-5.65c-2.68-6-5.36-12.01-8.04-18.01a20.02 20.02 0 0 1-11.99 3.34"/><path d="M105.63 145.51c2.16 4.95 4.41 9.83 6.75 14.7 1.81 3.78 3.68 8.32 7.66 10.33 3.55 1.79 8.31 1.43 10.46-2.29 2.53-4.39.08-9.24-1.75-13.36-2.45-5.49-4.83-11-7.18-16.52-.4-.95-1.88-1.22-2.68-.7-1.65 1.06-3.38 1.87-5.27 2.39-1.9.52-3.78.56-5.73.74-.94.09-1.75.66-1.87 1.65-.1.85.42 1.94 1.37 2.09 4.61.75 9.66-.95 13.49-3.48-.89-.23-1.79-.47-2.68-.7 1.91 4.09 3.84 8.17 5.68 12.29.93 2.09 1.88 4.17 2.8 6.26.78 1.78 1.58 3.77 1.35 5.76-.42 3.6-4.09 4.16-6.78 2.46-3.07-1.94-4.52-6-6.03-9.11-2.28-4.69-4.63-9.33-7.08-13.93-.89-1.67-3.2-.2-2.48 1.45Z"/></svg>