<?xml version="1.0" encoding="UTF-8"?><svg xmlns="http://www.w3.org/2000/svg" viewBox="0 0 180 180"><path d="M62.89 59.44c-.11 4.97-.53 9.96-.72 14.93s-.54 9.7-.11 14.51c.75 8.28 4.65 15.72 11.62 20.43 1.72 1.16 3.56 2.17 5.5 2.91s3.97 1.81 6.1 2.01c1.3.12 1.59-1.71.63-2.31-1.45-.92-3.16-1.39-4.63-2.31s-2.81-1.94-4.1-3.01c-2.61-2.17-5.06-4.65-6.87-7.53-4.46-7.1-3.62-15.66-3.77-23.69l-.15-7.72c-.05-2.74-.3-5.48-.31-8.21 0-2.04-3.13-2.04-3.17 0Z"/><path d="M63.62 64.85c-1.91-1.5-4.38-1.8-6.55-.66-1.85.98-3.12 2.82-3.94 4.69-1.91 4.32-2.81 10.14-.45 14.46 1.68 3.06 5.21 5.24 8.46 6.27.85.27 1.82-.25 2.15-1.05.37-.91 0-1.71-.74-2.27-2.39-1.82-5.68-2.72-6.74-5.86-.43-1.28-.52-2.63-.45-3.97.05-1.09.11-1.46.34-2.53s.51-2.08.91-3.08c.11-.28.33-.75.56-1.16.14-.25.3-.5.45-.74 0 0 .36-.49.19-.27.28-.36.61-.72.98-1-.25.19.34-.19.4-.23.37-.2-.13.01.24-.1.99-.3 1.56-.15 2.7.05 1.31.23 2.81-1.5 1.48-2.55Zm14.19 58.74c.28-4.98.33-9.97.35-14.96.01-2.41-3.76-2.42-3.75 0 .02 4.99.07 9.98.35 14.96.11 1.96 2.94 1.96 3.05 0"/><path d="M74.31 121.63c-3.27.78-6.59 1.36-9.86 2.12s-6.21 1.53-9.29 2.39c-6.14 1.71-12.33 3.59-18.22 6.04-2.74 1.14-5.33 2.49-7.55 4.5-1.99 1.8-3.57 4.08-4.82 6.44-2.14 4.05-3.75 8.38-4.63 12.87-.49 2.49-.9 5-1.37 7.5-.37 1.98-.59 4.03-1.08 5.99-.52 2.09 2.58 3.59 3.6 1.52 1.75-3.54 2.3-7.49 3.09-11.32s1.82-7.79 3.48-11.53c.99-2.24 2.14-4.52 3.75-6.4 1.73-2.01 3.88-3.41 6.26-4.54 5.44-2.58 11.38-4.27 17.1-6.11 3.35-1.08 6.72-2.09 10.08-3.11s6.86-2.21 10.33-3.11c2.09-.54 1.21-3.74-.89-3.24ZM60.13 76.68c.14.04.27.09.4.15l-.29-.12c.38.16.74.38 1.07.63l-.25-.19c.3.24.57.52.81.82l-.2-.26c.26.34.48.71.65 1.11l-.13-.32c.06.14.11.27.17.41l-.13-.32c.11.27.2.54.34.8.14.27.49.54.78.6s.58.05.85-.07c.25-.11.5-.29.63-.54l.13-.31c.06-.23.06-.47 0-.7-.05-.3-.19-.59-.33-.86-.09-.19-.2-.36-.32-.53-.28-.41-.6-.81-.97-1.14a6.6 6.6 0 0 0-2.58-1.49c-.61-.18-1.35.22-1.49.85-.15.66.2 1.28.85 1.49Zm53.81-17.24c-.01 4.64-.33 9.3-.42 13.94s.01 9.13-.27 13.67c-.24 3.76-.98 7.42-2.8 10.75-1.65 3.02-3.97 5.51-6.5 7.82-1.39 1.27-2.91 2.36-4.44 3.45-1.68 1.2-3.67 1.75-5.4 2.84-.96.61-.67 2.43.63 2.31 1.85-.17 3.52-1.02 5.24-1.69s3.48-1.43 5.11-2.43c3.36-2.05 6.19-4.75 8.42-7.99 5.24-7.64 4.75-16.91 4.42-25.76l-.31-8.21c-.11-2.91-.42-5.81-.48-8.71-.04-2.04-3.17-2.05-3.17 0Z"/><path d="M117.87 67.4c1.11-.2 1.66-.34 2.61-.07.39.11.06-.02.33.13.06.03.65.41.4.23.37.28.69.64.98 1s.99 1.65 1.2 2.17c.4.99.69 2.03.91 3.08s.28 1.44.34 2.53c.07 1.34-.03 2.69-.45 3.97-1.04 3.14-4.35 4.04-6.74 5.86-.72.55-1.14 1.37-.74 2.27.35.8 1.27 1.33 2.15 1.05 2.9-.92 5.87-2.72 7.73-5.17s2.29-5.46 2.07-8.36c-.32-4.07-1.58-8.98-5.07-11.48-2.21-1.59-5.08-1.42-7.2.25-1.33 1.04.17 2.78 1.48 2.55Zm-12.63 56.19c.28-4.98.33-9.97.35-14.96.01-2.41-3.76-2.42-3.75 0 .02 4.99.07 9.98.35 14.96.11 1.96 2.94 1.96 3.05 0"/><path d="M104.8 124.87c6.09 1.58 12.12 3.62 18.13 5.5s11.88 3.75 17.64 6.07c2.37.96 4.77 2.14 6.65 3.89s3.15 3.79 4.26 6c1.88 3.75 3.11 7.64 3.99 11.73.93 4.33 1.45 8.91 3.43 12.92 1.01 2.05 4.13.59 3.6-1.52-.44-1.75-.62-3.59-.96-5.36-.42-2.18-.79-4.37-1.19-6.55-.82-4.46-2.13-8.54-4.05-12.67-2.39-5.15-5.92-9.32-11.11-11.78-5.71-2.71-11.98-4.58-18.05-6.32-3.53-1.02-7.08-1.98-10.66-2.82s-7.22-1.49-10.8-2.34c-2.1-.5-2.99 2.69-.89 3.24Zm14.43-50.52c-.97.29-1.83.81-2.58 1.49-.37.34-.69.73-.97 1.14-.12.17-.23.35-.32.53-.13.27-.28.56-.33.86-.05.35-.07.7.13 1.01.16.24.36.42.63.54.57.24 1.34.05 1.64-.54.13-.26.22-.53.34-.8l-.13.32c.06-.13.11-.27.17-.41l-.13.32c.17-.4.39-.77.65-1.11l-.2.26c.24-.3.5-.58.81-.82l-.25.19c.33-.25.69-.46 1.07-.63l-.29.12c.13-.06.27-.11.4-.15.3-.1.56-.28.72-.56.15-.26.22-.64.12-.93-.2-.61-.84-1.04-1.49-.85Zm-32.66-7.63c-.31 1.94-.26 3.97-.31 5.93s-.1 3.95-.14 5.92c-.1 3.93-.4 7.92-.07 11.85.19 2.25 3.16 2.17 3.44 0 .49-3.83.37-7.76.44-11.62.04-1.9.07-3.8.11-5.69s.22-4 0-5.92c-.1-.87-.59-1.62-1.52-1.73-.79-.09-1.79.38-1.93 1.26Zm-2.52 31.89c2.31.59 4.61 1.05 6.99.6 1.09-.2 2.11-.63 3.11-1.09s2.5-1.01 3.02-2.04c.64-1.26-.15-2.66-1.57-2.74-1.07-.06-2.11.82-3.03 1.3s-1.31.67-2.33.96c-1.7.48-3.52.19-5.33-.15-.87-.16-1.76.24-2.01 1.14-.23.84.28 1.79 1.14 2.01Zm-1.26-20.64-.09-.15c-.14-.23-.32-.41-.55-.55a1.51 1.51 0 0 0-1.54 0c-.23.14-.41.32-.55.55l-.09.15c-.15.26-.22.53-.22.83s.08.57.22.83c.15.25.34.44.59.59.26.15.53.22.83.22s.57-.08.83-.22c.25-.15.44-.34.59-.59.15-.26.22-.53.22-.83s-.08-.57-.22-.83Zm15.97 0-.09-.15c-.14-.23-.32-.41-.55-.55a1.51 1.51 0 0 0-1.54 0c-.23.14-.41.32-.55.55l-.09.15c-.15.26-.22.53-.22.83s.08.57.22.83c.15.25.34.44.59.59.26.15.53.22.83.22s.57-.08.83-.22c.25-.15.44-.34.59-.59.15-.26.22-.53.22-.83s-.08-.57-.22-.83Zm-24.54-9.63q.54-.555 1.14-1.05c.23-.19-.16.12.07-.06.1-.07.19-.14.29-.21a14 14 0 0 1 2.04-1.19l.33-.15c.28-.13-.23.09.06-.02.25-.1.51-.19.77-.28.46-.16.92-.3 1.39-.42.27-.07.53-.12.8-.17l.36-.06c.3-.06-.28.02.03 0 1.06-.1 2.12-.1 3.18-.12.92-.02 1.69-.69 1.81-1.6s-.42-1.82-1.32-2.02c-2.39-.55-5.08-.13-7.34.78s-4.38 2.34-6.01 4.2c-.61.69-.68 1.73 0 2.41.65.65 1.77.66 2.41 0Zm33.93-4.69c-1.88-1.59-3.99-2.82-6.38-3.48a16.6 16.6 0 0 0-3.64-.57c-.56-.03-1.13 0-1.69.07-.39.04-.79.08-1.17.18-.5.14-.88.42-1.28.75-1.06.85-.4 2.62.78 2.94.34.09.67.15 1.02.14.24 0 .47-.05.71-.08.15-.02.24-.04.04-.01.5-.07 1-.1 1.5-.12s1-.02 1.5 0c.25.01.5.04.75.06.1.01.27.04.07 0 .16.02.31.05.47.08 1.91.36 3.68 1.02 5.14 2.22.65.53 1.55.63 2.19 0 .55-.55.64-1.65 0-2.19Zm-43.8-3.06c4.76-1.29 9.4-2.88 13.7-5.35 3.77-2.17 8.02-5.18 8.61-9.81.24-1.83-2.76-2.59-3.51-.95s-1.57 3.15-2.89 4.44c-1.41 1.37-3.07 2.45-4.76 3.45-3.75 2.24-7.71 4.23-11.93 5.41-1.81.5-1.04 3.31.78 2.82Z"/><path d="M61.96 63.03c-.67-3.13-2.12-6.16-1.89-9.42.19-2.75 1.58-5.45 3.36-7.51 1.99-2.3 4.51-3.98 7.2-5.34 2.97-1.5 6.2-2.41 9.18-3.87 1.95-.96.52-3.74-1.41-3.34-3.52.73-7.06 2.2-10.24 3.85s-6.06 3.83-8.25 6.66c-2.06 2.67-3.45 5.78-3.67 9.17-.25 3.81 1.48 7.15 2.76 10.62.68 1.84 3.37 1.14 2.95-.81Zm20.99-19.19c2.53 1.12 4.61 3.05 6.15 5.28.91 1.31 1.68 2.72 2.38 4.15.76 1.56 1.29 3.31 2.42 4.65.91 1.07 3.07.25 2.91-1.2-.22-1.89-1.21-3.67-2.05-5.36-.78-1.56-1.65-3.09-2.69-4.5-2.04-2.76-4.54-4.96-7.75-6.26-.81-.33-1.8.29-2.09 1.03s-.09 1.85.73 2.21Zm14.51 2.26c1.41.9 2.49 2.56 3.08 4.09.87 2.25 1.12 4.68 1.95 6.94.29.8 1.08 1.35 1.95 1.11s1.25-1.1 1.11-1.95c-.81-4.71-2.11-10.27-6.46-12.96-.74-.46-1.77-.16-2.2.58-.45.78-.16 1.73.58 2.2Zm10.22 6.39c1.48 1.67 3.09 3.21 4.83 4.61a39.5 39.5 0 0 0 4.25 2.97c.58.35 1.19.75 1.86.86.73.12 1.55-.07 1.92-.78s.26-1.48-.27-2.06c-.76-.83-1.96-1.3-2.91-1.89s-1.83-1.22-2.72-1.86c-.22-.16-.43-.32-.64-.48.15.11-.02-.01-.07-.06-.12-.09-.23-.18-.35-.28-.42-.34-.83-.68-1.23-1.03a40 40 0 0 1-2.4-2.27c-.59-.6-1.69-.63-2.28 0-.62.67-.6 1.6 0 2.28ZM87.97 32.92c7.35-1.84 15.83-2.27 22.65 1.56 2.78 1.56 5.16 3.81 6.81 6.54.78 1.29 1.36 2.64 1.73 4.11.4 1.6.24 3.46.94 4.94.58 1.23 2.33 1 2.97 0 1.04-1.63.58-4.28.15-6.05s-1.19-3.54-2.13-5.13c-1.93-3.24-4.78-5.95-8.04-7.83-7.88-4.52-17.54-3.67-25.91-1.17-1.93.58-1.13 3.52.83 3.03"/><path d="M76.27 36.24c4.91-1.78 9.87-4.15 14.87-5.69-.66-1.84-2.3-2.53-4.16-3.15s-3.9-.52-5.79 0c-1.42.4-2.8 1.05-3.88 2.06-1.89 1.75-2.7 4.36-3.16 6.9"/><path d="M76.7 37.78c5.04-1.57 9.83-4.04 14.99-5.26 1.05-.25 1.76-1.5 1.44-2.53-.74-2.34-2.72-3.57-4.9-4.39-2.49-.93-5.18-.95-7.72-.2s-4.56 2.09-6.04 4.18c-1.3 1.84-2.32 4.49-2.19 6.76.05.83.55 1.58 1.38 1.81.74.2 1.78-.12 2.12-.86.73-1.62.98-3.42 1.88-4.94.8-1.35 2.06-2.28 3.57-2.78 1.75-.58 3.55-.71 5.32-.13.8.26 1.13.37 1.83.8.29.18.26.13.57.5.09.1.1.11 0 .01l.12.19c.11.21.21.42.31.63l1.23-3.02c-4.97 1.93-9.83 4.07-14.74 6.13-.8.33-1.37 1.06-1.12 1.97.22.82 1.14 1.38 1.97 1.12Z"/><path d="M84.36 29.7c.15-4.65-.57-9.41-2.24-13.76-.78-2.04-1.65-4.28-3.39-5.7-1.83-1.5-4.24-1.69-6.52-1.48-4.84.44-9.46 2.47-13.82 4.5s-8.77 4.1-12.54 6.94c-.74.56-1.13 1.38-.75 2.29.32.77 1.31 1.4 2.17 1.06 3.87-1.53 7.44-3.81 11.17-5.64s7.7-3.64 11.81-4.56c1.57-.35 4.13-.92 5.59.03 1.32.86 2.01 2.9 2.58 4.27 1.61 3.83 2.49 7.9 2.68 12.04.09 2.1 3.2 2.11 3.27 0Z"/><path d="M63.61 20.07c-5.91 2.35-11.63 5.13-17.09 8.38-1.18.7-1.15 2.08-.39 3.05 2.31 2.98 5.32 5.74 8.91 7.02 1.49.53 2.85-1.71 1.59-2.73-2.75-2.23-5.52-4.25-7.75-7.04l-.39 3.05c5.18-3.42 10.63-6.42 16.3-8.95 1.56-.7.43-3.42-1.17-2.78Zm2.43 7.36a24 24 0 0 0-3.4 4.25c-.43.69-.83 1.39-1.17 2.13-.31.67-.6 1.27-.43 2.03.18.81.75 1.31 1.5 1.6 1.76.67 3.75.74 5.61.66.95-.04 1.9-.12 2.85-.2 1.05-.09 2.14-.11 3.18-.31.9-.18 1.43-1.18 1.32-2.02-.12-.91-.89-1.57-1.81-1.6s-1.81.14-2.69.21-1.76.16-2.64.21-1.75.06-2.63 0q-.3-.015-.6-.06c.01 0-.58-.08-.31-.04-.2-.03-.4-.07-.59-.11l-.39-.09q-.51-.165.21.18l.46.78c.14.53 0 .54.14.19.02-.06.16-.39.07-.19.12-.29.25-.57.38-.86a21.6 21.6 0 0 1 2.99-4.71c.51-.6.59-1.47 0-2.06s-1.5-.55-2.06 0ZM44.65 170.64c2.08-12.4 6.42-30.46 9.88-42.55-1.16 4.07 1.59 11.55 3.28 15.2 9.54 20.59 43.77 21.91 57.9 5.57 2.23-2.58 3.83-5.64 5.33-8.7 1.82-3.71 3.54-7.55 4.01-11.65-.13 13.02 10.47 28.56 11.99 41.48"/><path d="M46.12 171.05c1.27-7.17 2.94-14.26 4.67-21.33s3.53-14.14 5.72-21.09l-3.95-1.09c-1.1 3.79.21 8.21 1.46 11.8 1.11 3.22 2.47 6.41 4.48 9.18 3.89 5.35 9.47 9.09 15.67 11.27 12.22 4.31 27.47 2.87 38.03-4.91 3.56-2.63 6.41-5.85 8.61-9.71 2.92-5.14 5.6-10.75 6.35-16.66h-4.2c-.02 7.31 2.6 14.27 5.25 20.97s5.84 13.4 6.76 20.51c.14 1.11.85 2.08 2.08 2.08 1.02 0 2.21-.96 2.08-2.08-.85-7.32-3.76-14.11-6.46-20.9s-5.53-13.47-5.51-20.58c0-1.14-.97-2.1-2.1-2.1-1.25 0-1.96.97-2.1 2.1-.6 4.72-2.92 9.22-5.14 13.37-1.76 3.3-3.9 6.21-6.78 8.61-4.42 3.68-10.01 5.82-15.62 6.84-11.1 2.02-24.17-.53-31.97-9.18-2.14-2.37-3.65-5.17-4.8-8.13-1.32-3.38-3.01-7.72-2.15-11.39.6-2.56-3.29-3.65-3.95-1.09-3.63 14.12-7.08 28.29-9.38 42.69-.3 1.91 2.59 2.75 2.94.81Zm14.77-83.02c-2.07.76-3.73 2.54-4.35 4.65-.19.64-.28 1.34-.05 1.96.44 1.21 2.04 1.73 3.23 1.25s1.97-1.72 2.19-2.99 0-2.58-.32-3.83"/><path d="M60.51 86.62c-1.59.27-3.06 1.32-4.05 2.57-1.16 1.47-2.1 3.36-1.84 5.28.27 2.03 2.07 3.32 4.04 3.41 1.83.09 3.53-1.13 4.37-2.71 1.1-2.07.87-4.38.33-6.58-.23-.92-1.32-1.56-2.23-1.27s-1.51 1.24-1.27 2.23c.08.34.16.68.23 1.02.02.1.17.69.05.26.05.19.04.4.05.59 0 .17.01.35.01.52 0 .08.03.45-.03.52.09-.1.05-.28 0-.04l-.03.17c-.04.17-.08.33-.14.5-.02.05-.04.11-.06.16-.07.23.16-.32.05-.11a3.8 3.8 0 0 1-.41.69c-.13.2.24-.26.07-.1-.07.07-.13.14-.19.21-.05.05-.38.35-.16.15.21-.19-.13.07-.19.1-.05.03-.1.05-.15.08-.2.11.35-.08.14-.06-.09 0-.53.11-.2.07s-.08 0-.16 0c-.03 0-.16-.02-.2 0 .03-.01.47.1.18.02-.11-.03-.22-.06-.34-.09-.04-.01-.1-.05-.14-.05.34.03.29.14.12.04-.05-.03-.11-.08-.17-.1-.15-.06.16.12.17.14-.04-.07-.17-.18-.24-.23-.16-.12.17.33.11.14a.3.3 0 0 0-.08-.12c-.18-.26.1.16.06.16-.08 0-.01-.49-.07-.17-.04.2 0 .03 0-.04v-.35c.01-.14 0-.1-.02.12-.01-.05.03-.16.04-.21.06-.31.15-.61.26-.9 0 .01.07-.21.08-.22 0 0-.19.41-.04.11l.18-.36c.14-.25.29-.5.46-.74.03-.04.09-.16.14-.19-.13.09-.19.24-.02.04.1-.12.2-.23.31-.34.23-.24.46-.47.71-.68.04-.04.09-.07.13-.11.15-.13-.27.19-.02.01.13-.09.25-.18.38-.26.29-.18.57-.4.86-.58.62-.39.88-1.15.6-1.82-.3-.71-.99-.97-1.72-.85Zm56.9 1.64c-.4.2-.36.78-.26 1.21.37 1.57.82 3.16 1.81 4.43s2.66 2.12 4.22 1.72 2.63-2.38 1.78-3.74c-.4-.64-1.1-1.02-1.76-1.37l-5.28-2.79"/><path d="M117.05 86.97c-.68.23-1.1.67-1.35 1.33-.21.55-.11 1.15 0 1.71.16.93.38 1.84.73 2.72.82 2.06 2.25 3.79 4.43 4.49s4.32-.11 5.5-1.95c.49-.76.77-1.76.66-2.66-.16-1.33-.85-2.3-1.93-3.06-.9-.64-1.95-1.1-2.92-1.62-1.11-.59-2.22-1.19-3.32-1.78-.84-.45-2.03-.24-2.5.66-.45.84-.25 2.03.66 2.5 1.58.83 3.16 1.65 4.73 2.48.35.19.71.36 1.06.56.15.08.28.18.43.27.21.12-.24-.22-.06-.05.07.07.15.14.23.21.23.2-.03 0-.04-.08 0 .01.1.16.12.19.2.26-.08-.32-.04-.12.01.06.04.12.06.18.02.07.06.3.01 0s0-.08-.01 0v.19c.01.21.1-.43.02-.14-.02.06-.03.13-.05.19-.02.07-.15.33 0 .07.16-.29-.08.14-.11.19-.03.06-.08.11-.11.17-.1.19.25-.27.09-.12-.11.11-.21.22-.32.32-.24.24.27-.16.08-.06-.06.03-.11.07-.17.11s-.12.06-.18.09c-.18.11.35-.1.14-.06-.07.01-.14.04-.2.06h-.06c-.16.04-.16.05 0 .02h.11-.47c-.06 0-.4-.08-.12 0 .26.07 0 0-.06-.02-.16-.03-.31-.08-.46-.13-.06-.02-.29-.13-.07-.02s-.01-.01-.07-.04c-.18-.09-.36-.2-.52-.31-.05-.03-.26-.19-.07-.05s-.02-.02-.06-.06c-.12-.11-.24-.22-.35-.34-.06-.06-.11-.12-.16-.18-.03-.04-.19-.25-.06-.07s-.03-.05-.06-.1c-.08-.11-.15-.22-.22-.33-.2-.32-.5-.74-.59-1.12.01.05.13.32.01.02-.05-.13-.1-.25-.14-.38-.07-.19-.13-.38-.2-.58-.14-.4-.27-.81-.39-1.22-.02-.06-.03-.13-.05-.19-.1-.32.02.34 0 0 0-.02-.02-.19-.02-.19.07.02-.19.49-.21.52.4-.41.53-1.12.21-1.62s-.94-.81-1.51-.61Zm.74-38.71c1.09 1.53 2.24 3 3.54 4.36.61.63 1.23 1.26 1.88 1.85.8.73 1.67 1.69 2.76 1.91.71.14 1.4-.04 1.86-.63s.45-1.3.14-1.96c-.41-.89-1.37-1.44-2.11-2.05-.66-.55-1.32-1.1-1.95-1.68-1.28-1.16-2.55-2.35-3.74-3.61-.52-.55-1.4-.56-1.98-.12s-.83 1.33-.39 1.95Z"/></svg>