<?xml version="1.0" encoding="UTF-8"?><svg xmlns="http://www.w3.org/2000/svg" viewBox="0 0 180 180"><path d="M62.89 59.44c-.11 4.97-.53 9.96-.72 14.93-.18 4.81-.54 9.7-.11 14.51.75 8.28 4.65 15.72 11.62 20.43 1.72 1.16 3.56 2.17 5.5 2.91 1.98.75 3.97 1.81 6.1 2.01 1.3.12 1.59-1.71.63-2.31-1.45-.92-3.16-1.39-4.63-2.31s-2.81-1.94-4.1-3.01c-2.61-2.17-5.06-4.65-6.87-7.53-4.46-7.1-3.62-15.66-3.77-23.69l-.15-7.72c-.05-2.74-.3-5.48-.31-8.21 0-2.04-3.13-2.04-3.17 0Z"/><path d="M63.62 64.85c-1.91-1.5-4.38-1.8-6.55-.66-1.85.98-3.12 2.82-3.94 4.69-1.91 4.32-2.81 10.14-.45 14.46 1.68 3.06 5.21 5.24 8.46 6.27.85.27 1.82-.25 2.15-1.05.37-.91 0-1.71-.74-2.27-2.39-1.82-5.68-2.72-6.74-5.86-.43-1.28-.52-2.63-.45-3.97.05-1.09.11-1.46.34-2.53s.51-2.08.91-3.08c.11-.28.33-.75.56-1.16.14-.25.3-.5.45-.74 0 0 .36-.49.19-.27.28-.36.61-.72.98-1-.25.19.34-.19.4-.23.37-.2-.13.01.24-.1.99-.3 1.56-.15 2.7.05 1.31.23 2.81-1.5 1.48-2.55Zm12.19 52.63c.28-2.94.33-5.9.35-8.85 0-.98-.87-1.92-1.88-1.88-1.01.05-1.88.82-1.88 1.88.02 2.95.07 5.91.35 8.85.08.79.65 1.56 1.52 1.52s1.44-.67 1.52-1.52Zm-9.25 5.61c-5.27 1.26-10.58 2.19-15.8 3.71s-10.68 3.28-15.81 5.41c-2.73 1.13-5.34 2.48-7.55 4.47-1.99 1.79-3.57 4.08-4.82 6.44-2.14 4.03-3.77 8.38-4.64 12.86-.48 2.49-.9 5-1.36 7.5-.2 1.09-.39 2.18-.6 3.26-.23 1.22-.27 1.9-.48 2.73-.53 2.09 2.58 3.59 3.6 1.52 1.59-3.24 2.3-7.48 3.1-11.32.83-4 1.81-7.79 3.47-11.54 1-2.25 2.14-4.53 3.75-6.4 1.73-2.01 3.87-3.42 6.25-4.56 4.81-2.28 10.05-3.91 15.09-5.62 5.5-1.87 11.08-3.77 16.69-5.23 2.09-.55 1.21-3.74-.89-3.24Z"/><path d="M60.13 76.68c.14.04.27.09.4.15l-.29-.12c.38.16.74.38 1.07.63l-.25-.19c.3.24.57.52.81.82l-.2-.26c.26.34.48.71.65 1.11l-.13-.32c.06.14.11.27.17.41l-.13-.32c.11.27.2.54.34.8.14.27.49.54.78.6s.58.05.85-.07c.25-.11.5-.29.63-.54l.13-.31c.06-.23.06-.47 0-.7-.05-.3-.19-.59-.33-.86-.09-.19-.2-.36-.32-.53-.28-.41-.6-.81-.97-1.14a6.6 6.6 0 0 0-2.58-1.49c-.61-.18-1.35.22-1.49.85-.15.66.2 1.28.85 1.49Zm53.81-17.24c-.01 4.64-.33 9.3-.42 13.94s.01 9.13-.27 13.67c-.24 3.76-.98 7.42-2.8 10.75-1.65 3.02-3.97 5.51-6.5 7.82-1.39 1.27-2.91 2.36-4.44 3.45-1.68 1.2-3.67 1.75-5.4 2.84-.96.61-.67 2.43.63 2.31 1.85-.17 3.52-1.02 5.24-1.69s3.48-1.43 5.11-2.43c3.36-2.05 6.19-4.75 8.42-7.99 5.24-7.64 4.75-16.91 4.42-25.76l-.31-8.21c-.11-2.91-.42-5.81-.48-8.71-.04-2.04-3.17-2.05-3.17 0Z"/><path d="M117.87 67.4c1.11-.2 1.66-.34 2.61-.07.39.11.06-.02.33.13.06.03.65.41.4.23.37.28.69.64.98 1s.99 1.65 1.2 2.17c.4.99.69 2.03.91 3.08s.28 1.44.34 2.53c.07 1.34-.03 2.69-.45 3.97-1.04 3.14-4.35 4.04-6.74 5.86-.72.55-1.14 1.37-.74 2.27.35.8 1.27 1.33 2.15 1.05 2.9-.92 5.87-2.72 7.73-5.17 1.79-2.36 2.29-5.46 2.07-8.36-.32-4.07-1.58-8.98-5.07-11.48-2.21-1.59-5.08-1.42-7.2.25-1.33 1.04.17 2.78 1.48 2.55Zm-10.63 50.08c.28-2.94.33-5.9.35-8.85 0-.98-.87-1.92-1.88-1.88s-1.88.82-1.88 1.88c.02 2.95.07 5.91.35 8.85.08.79.65 1.56 1.52 1.52s1.44-.67 1.52-1.52Zm5.31 8.85c5.04 1.31 10.03 3.03 14.98 4.66 5.06 1.66 10.12 3.43 15.06 5.43 2.38.96 4.76 2.16 6.65 3.92 1.83 1.7 3.15 3.78 4.26 6.01 1.88 3.76 3.09 7.64 3.98 11.74.51 2.38.98 4.76 1.49 7.14.45 2.07 1.14 4.14 1.94 5.78 1.01 2.05 4.13.59 3.6-1.52-.16-.63-.12-.34-.21-.99.06.48-.08-.59-.1-.7-.02-.17-.05-.34-.08-.5-.18-1.06-.38-2.11-.58-3.16-.42-2.18-.79-4.37-1.19-6.55-.82-4.46-2.15-8.54-4.06-12.66-2.39-5.16-5.92-9.3-11.12-11.76-5.15-2.44-10.75-4.18-16.2-5.83-2.67-.81-5.36-1.55-8.07-2.2-3.14-.75-6.33-1.28-9.47-2.03-2.1-.5-2.99 2.69-.89 3.24Z"/><path d="M119.23 74.35c-.97.29-1.83.81-2.58 1.49-.37.34-.69.73-.97 1.14-.12.17-.23.35-.32.53-.13.27-.28.56-.33.86-.05.35-.07.7.13 1.01.16.24.36.42.63.54.57.24 1.34.05 1.64-.54.13-.26.22-.53.34-.8l-.13.32c.06-.13.11-.27.17-.41l-.13.32c.17-.4.39-.77.65-1.11l-.2.26c.24-.3.5-.58.81-.82l-.25.19c.33-.25.69-.46 1.07-.63l-.29.12c.13-.06.27-.11.4-.15.3-.1.56-.28.72-.56.15-.26.22-.64.12-.93-.2-.61-.84-1.04-1.49-.85ZM71.21 49.7c.65 3.5 1.86 10.93-.92 13.16-1.31 1.05-1.86 1.04-2.71 2.49-.65 1.11-.73 2.45-.76 3.73-.15 5.57.32 11.16 1.38 16.63.08.42.18.86.48 1.16.51.51 1.34.41 2.05.28 3.74-.66 7.57-.83 11.36-.51 2.7.23 5.72.93 7.08 3.27.85 1.47 5.29 3.5 4.3 4.88s-7.38 1.99-9 1.45c-1.12-.37-2.07-1.25-3.24-1.34-2.43-.18-3.63 3.4-2.25 5.4 1.39 2 4.05 2.6 6.48 2.79 1.1.09 2.25.13 3.21.68 2.3 1.31 2.32 4.56 2.03 7.19-.08.77-.23 1.64-.87 2.05-.42.27-.96.28-1.46.28-3.74-.01-7.52-.03-11.15-.92s-7.16-2.75-9.33-5.79c-2.8-3.91-2.95-9.06-3.01-13.87l-.3-26.65c-.01-1.05-.04-2.15-.56-3.05-.32-.56-.82-1.01-1.19-1.54-.51-.71-.8-1.54-.99-2.39-1.14-5.05 1.62-10.7 6.3-12.91 1.27-.6 2.73-.96 4.08-.59 2.42.67 3.69 3.64 3.02 6.06"/><path d="M69.79 50.09c.38 2.55.64 5.2.47 7.78-.07 1.03-.18 2.34-.83 3.2s-1.88 1.25-2.63 2.05c-2.69 2.89-2.09 7.83-1.92 11.46.1 2.15.3 4.29.58 6.42.25 1.91.38 4.03 1.01 5.86.72 2.08 2.62 2.51 4.59 2.2s4-.55 6.04-.6c1.95-.05 3.96-.04 5.89.25 1.36.2 2.9.55 3.93 1.53.45.43.72 1 1.13 1.46.39.44.85.8 1.31 1.16.48.38.98.74 1.45 1.13.3.25.98.8.94.94l-.07-.27c-.13-.25-.09-.49.11-.72l.18-.44-.1.1c-.08-.12.34-.06.07-.08-.06 0-.19.11-.25.13.27-.09-.38.13-.46.15-.29.09-.58.16-.87.23-1.16.26-2.35.39-3.54.42-.47.01-.95.01-1.42-.03-.34-.03.27.07-.02 0-.07-.02-.16-.02-.23-.05-.32-.11-.6-.27-.9-.42-1.6-.85-3.31-1.44-5.04-.59-2.68 1.31-3.5 5.09-2.15 7.62 1.62 3.03 5.28 3.88 8.43 4.14 1.38.12 2.62.2 3.1 1.66.45 1.39.16 2.84.1 4.26 0 .16-.21.52.03.29.03-.03-.99-.06-1.26-.06-1.09 0-2.19-.02-3.28-.07-2-.08-3.98-.25-5.93-.7-3.2-.72-6.44-2.18-8.48-4.85-2.09-2.75-2.56-6.34-2.72-9.69-.19-4.12-.13-8.25-.18-12.37-.05-4.36-.1-8.72-.14-13.08-.02-2.08.11-4.24-.17-6.3-.13-.92-.4-1.8-.93-2.57-.49-.72-1.15-1.29-1.48-2.11-1.08-2.7-.3-5.92 1.23-8.27 1.15-1.76 4.86-5.2 7.04-3.27.84.74 1.12 2.06.89 3.11-.55 2.54 3.26 3.63 3.92 1.08.74-2.88-.23-6.17-2.79-7.84-2.85-1.87-6.53-.75-9.09 1.1-4.77 3.46-7.36 10.35-4.89 15.93.63 1.42 1.96 2.3 2.07 3.9.13 1.9.05 3.83.07 5.73.04 3.95.09 7.9.13 11.85.04 3.83.05 7.66.14 11.49.07 3.23.28 6.6 1.42 9.66 2.42 6.53 8.52 9.96 15.16 10.89 1.73.24 3.46.37 5.2.42s4.23.45 5.89-.36c2.75-1.34 2.58-5.7 2.14-8.27-.56-3.32-2.89-5.15-6.16-5.49-1.74-.18-5.84-.25-6.11-2.69-.05-.46.16-1.42.58-1.56.36-.12 1.05.38 1.41.56.59.3 1.19.61 1.83.77 2.09.52 4.58.14 6.66-.26 2.15-.41 5.51-1.59 4.62-4.47-.4-1.29-1.56-2.16-2.58-2.94-.42-.32-.86-.63-1.27-.96-.19-.16-.38-.32-.56-.49-.43-.4-.08-.07-.4-.51-2.15-2.95-5.6-3.72-9.07-3.97-2.05-.15-4.12-.15-6.17-.01-1.11.08-2.21.2-3.31.35-.61.08-1.97.57-2.48.2l.7.7c-.48-.63-.48-1.8-.61-2.57-.18-1.08-.33-2.17-.46-3.26-.24-2.06-.39-4.12-.46-6.19-.07-1.99-.21-4.09.02-6.07.2-1.66 1.06-2.26 2.26-3.2 4.36-3.4 2.5-10.71 1.5-15.27-.41-1.88-3.1-1.04-2.83.78Z"/><path d="M108.55 50.01c-.65 3.5-1.43 11.05 1.35 13.28 1.31 1.05.64.6 1.49 2.05.65 1.11.73 2.45.76 3.73.15 5.57-.32 11.16-1.38 16.63-.08.42-.18.86-.48 1.16-.51.51-1.34.41-2.05.28a44 44 0 0 0-11.36-.51c-2.7.23-5.72.93-7.08 3.27-.85 1.47-5.29 3.5-4.3 4.88s7.38 1.99 9 1.45c1.12-.37 2.07-1.25 3.24-1.34 2.43-.18 3.63 3.4 2.25 5.4-1.39 2-4.05 2.6-6.48 2.79-1.1.09-2.25.13-3.21.68-2.3 1.31-2.32 4.56-2.03 7.19.08.77.23 1.64.87 2.05.42.27.96.28 1.46.28 3.74-.01 7.52-.03 11.15-.92s7.16-2.75 9.33-5.79c2.8-3.91 2.95-9.06 3.01-13.87l.3-26.65c.01-1.05.04-2.15.56-3.05.32-.56.82-1.01 1.19-1.54.51-.71.8-1.54.99-2.39 1.14-5.05-1.62-10.7-6.3-12.91-1.27-.6-2.73-.96-4.08-.59-2.42.67 1.14 2.02 1.81 4.43"/><path d="M107.14 49.62c-.57 2.62-.99 5.29-.92 7.98s.52 5.48 2.63 7.26c.1.09.61.42.26.17.09.17.08.13-.04-.13.08.21.16.42.26.62.28.64.63 1.22.75 1.92.36 2.05.14 4.33.07 6.4s-.22 4.13-.46 6.19c-.12 1.09-.28 2.18-.46 3.26-.13.8-.12 1.92-.61 2.57l.7-.7c-.44.33-1.43-.05-1.96-.13-.96-.13-1.91-.25-2.88-.34-2.05-.18-4.11-.22-6.17-.12-3.05.15-6.39.53-8.79 2.62-.48.42-.85.9-1.23 1.41-.2.27-.29.43-.76.83-.9.77-1.93 1.38-2.79 2.2-1.78 1.71-1.84 4.22.52 5.44 2.01 1.03 4.54 1.27 6.77 1.34.9.03 1.85.02 2.72-.18.64-.15 1.25-.47 1.83-.77.35-.18 1.09-.68 1.39-.57.46.17.64 1.11.59 1.57-.13 1.18-1.47 1.82-2.47 2.13-2.92.9-6.24.11-8.39 2.78-1.85 2.3-1.81 5.67-1.36 8.44.27 1.64 1.25 3.04 2.95 3.39 1.74.36 3.76.12 5.51.06 6.71-.23 13.93-1.85 18.05-7.66 4.02-5.67 3.28-13.53 3.35-20.09.05-4.03.09-8.06.14-12.09l.06-5.43.03-2.96c0-.87-.13-1.94.19-2.78.25-.66.89-1.18 1.29-1.76.59-.85.97-1.88 1.2-2.88.39-1.72.41-3.46.12-5.19-.52-3.14-2.2-6.2-4.64-8.25-1.3-1.09-2.77-1.99-4.4-2.48s-4.12-.64-5.52.66c-1.03.96-1.01 2.38-.24 3.49.63.92 1.8 1.62 2.16 2.69.84 2.45 4.68 1.45 3.92-1.08-.43-1.42-1.31-2.48-2.31-3.54-.09-.1-.44-.42-.35-.36.19.13-.1-.09-.05-.08-.16.68-.31 1.36-.47 2.04l-.04.04c.24.07.69-.1.97-.07.51.06 1.05.24 1.52.45 2.63 1.16 4.5 3.67 5.22 6.41.35 1.35.44 2.8.13 4.17-.42 1.82-1.96 2.88-2.49 4.64-.58 1.91-.34 4.13-.36 6.1-.02 2.22-.05 4.44-.07 6.66-.05 4.36-.1 8.72-.14 13.08-.04 3.77.16 7.69-.63 11.41-.71 3.36-2.38 6.16-5.35 7.99-3.24 1.99-7.07 2.58-10.8 2.76a77 77 0 0 1-3.04.08c-.47 0-.94.01-1.4.01-.36 0-.67-.15-.44.16-.31-.42-.21-1.5-.23-1.99-.03-.73-.03-1.47.11-2.19.33-1.59 1.24-1.98 2.81-2.11 1.67-.14 3.34-.32 4.9-.94 3.07-1.23 5.21-3.98 4.4-7.39-.33-1.4-1.23-2.71-2.5-3.4-1.66-.9-3.41-.39-4.98.43-.46.24-.87.48-1.38.58.39-.08-.26 0-.37 0-.29.01-.57.01-.86 0-1.19-.02-2.38-.14-3.54-.39-.53-.12-1.05-.26-1.56-.45.28.1-.23-.14-.23-.14.19-.1.06.4.04.03l.36.89-.15.55c-.04-.13.56-.62.83-.85.5-.42 1.03-.81 1.55-1.21.95-.74 1.53-1.63 2.32-2.49 1-1.08 2.66-1.44 4.05-1.65 4.01-.6 8.13-.21 12.11.39 1.9.28 3.73-.26 4.41-2.23s.78-4.12 1.04-6.09c.54-4.12.85-8.38.55-12.54-.13-1.8-.66-3.29-1.53-4.85-.48-.87-1.42-1.3-1.92-2.05-1.32-2-1.02-5.11-.95-7.37.04-1.19.1-2.36.28-3.54.27-1.82-2.42-2.67-2.83-.78"/><path d="M73.69 53.28c7.44-2.01 20.93-4 24.98-10.56 1.79 4.72 5.91 6.45 9.96 9.47s1.21 4.27 6.15 3.21l.39 2.77c.05.38.15.82.51.97.49.21.96-.34 1.17-.84 1.05-2.57.24-5.54.89-8.24.46-1.92 1.65-3.62 2.09-5.55 1.09-4.73-2.78-9.5-7.39-11.03s-9.65-.6-14.35.63c.67-2.45-.88-5.09-3.06-6.4-2.18-1.3-4.83-1.53-7.37-1.46-10.03.26-19.89 4.67-26.77 11.98-2.65 2.82-4.97 6.38-4.71 10.23.29 4.33 3.66 7.73 6.82 10.7"/><path d="M74.1 54.78c4.77-1.2 9.63-1.89 14.34-3.37 4.54-1.43 9.34-3.49 12.02-7.64l-3.8-.5c.94 2.4 2.39 4.43 4.39 6.08 1.91 1.58 4.04 2.85 6.04 4.3.68.49 1.5 1.22 1.85 1.74s.61 1.1 1.05 1.55c1.43 1.44 3.6.85 5.34.49l-2.58-1.47c.25 1.76.15 4.29 2.11 5.1 2.2.91 3.78-1.14 4.28-3.03s.33-4.01.44-6.02 1.04-3.57 1.75-5.33c2.85-7.14-2.99-14.14-9.86-15.68-4.66-1.04-9.43-.19-13.98.98l2.72 2.72c.6-2.61-.2-5.15-1.94-7.14s-4.34-2.99-6.92-3.34c-5.05-.69-10.51.22-15.31 1.83a42 42 0 0 0-13.23 7.31c-3.85 3.15-7.92 7.43-8.73 12.54-.99 6.21 3.11 10.9 7.33 14.86 2.11 1.98 5.29-1.18 3.18-3.18-2.64-2.5-6.07-5.58-6.16-9.51-.09-4.06 3.13-7.5 5.91-10.07 5.93-5.48 13.85-8.91 21.91-9.45 2.26-.15 4.78-.26 6.91.68 1.61.71 3.22 2.4 2.79 4.29-.37 1.63 1.04 3.15 2.72 2.72 5.94-1.55 14.33-3.03 18.17 3.23.68 1.1 1.09 2.32 1.06 3.62-.04 1.52-.86 2.92-1.44 4.29-.73 1.72-1.06 3.42-1.11 5.29-.03 1.18.41 4.07-.58 4.91l.93-.54-.27.1h1.12c.25.26.5.52.75.77-.18-.29-.16-.89-.21-1.23-.09-.62-.18-1.23-.26-1.85-.17-1.17-1.59-1.68-2.58-1.47-.46.1-.94.22-1.41.27.15-.02-.19.02-.18.01-.39.05-.23-.03-.24.02.01-.19.43.35.66.41.16.04.07.17-.01-.04-.03-.09-.1-.17-.15-.25-.94-1.57-2.21-2.71-3.69-3.77-3.11-2.24-7-4.1-8.53-7.86-.66-1.62-2.78-2.12-3.8-.5-2.14 3.41-6.73 5.11-10.4 6.35-4.33 1.47-8.8 2.52-13.19 3.76-1.93.54-1.12 3.49.83 3Zm13.04 15.53c-.08 3.04-.17 6.07-.33 9.11-.08 1.52-.17 3.03-.28 4.55s-.29 3.05-.01 4.61c.12.68.88 1.16 1.53 1.16.74 0 1.29-.5 1.53-1.16.54-1.47.54-3.06.63-4.61s.15-3.03.18-4.55c.06-3.04.03-6.07-.15-9.11-.11-1.98-3.04-2-3.09 0Z"/><path d="M74.8 66.66c.85-.53 1.81-.86 2.74-1.23 1.01-.41 2.06-.79 3.12-1.07s1.94-.43 3-.46c.55-.01 1.1 0 1.65.07.13.01.29.04.53.09.4.08.79.16 1.21.18 1.83.07 2.63-2.68.95-3.52-1.25-.63-2.84-.72-4.22-.66-1.31.06-2.63.28-3.88.65s-2.38.84-3.49 1.45c-1.08.59-2 1.39-3.05 2.04-1.56.97-.13 3.44 1.44 2.47Zm30.58-3.85c.8-1.29-.22-2.64-1.28-3.34-.77-.51-1.72-.79-2.61-1.02-1.88-.5-3.91-.8-5.85-.69-1.14.06-2.24.96-2.19 2.19s.96 2.21 2.19 2.19c.8-.01 1.59-.03 2.39.02.42.03.85.07 1.27.11.16.02.32.02.47.05-.59-.12.11.02.23.04.73.12 1.47.26 2.18.46.05.01.28.13.34.11-.28-.12-.32-.14-.14-.05.07.04.13.07.2.12.06.04.12.09.18.13-.22-.18-.26-.2-.12-.07.24.24.6.44.92.51.72.15 1.43-.1 1.83-.74ZM81.1 76.26c2.14 0 2.15-3.33 0-3.33s-2.15 3.33 0 3.33m17.15 0c2.14 0 2.15-3.33 0-3.33s-2.15 3.33 0 3.33m-26.16 42.36c3.03 3.41 6.5 6.47 9.82 9.58 2.7 2.53 6.07 6.17 10.11 5.99 1.85-.08 2.31-2.76.44-3.28-1.69-.48-3.13-1.06-4.55-2.13-1.54-1.15-2.91-2.54-4.32-3.84-3.18-2.92-6.34-5.94-9.78-8.57-1.35-1.03-2.75 1.1-1.73 2.25Z"/><path d="M106.44 115.01c-2.34 2.75-4.77 5.45-7.26 8.07-1.22 1.28-2.46 2.53-3.7 3.78-1.3 1.32-2.75 2.54-3.96 3.93-.61.71-.76 1.71-.15 2.48.53.67 1.67 1.06 2.44.49 1.54-1.15 2.88-2.56 4.24-3.92 1.32-1.32 2.58-2.69 3.81-4.09 2.51-2.84 4.84-5.78 7.03-8.86 1.02-1.43-1.3-3.24-2.45-1.89Z"/><path d="M70.75 112.85c-3.73.31-5.85 3.8-5.78 7.32.05 2.14.69 4.22 1.28 6.26.52 1.78 1.05 3.56 1.65 5.32 1.23 3.63 2.74 7.22 4.86 10.42 1 1.51 2.13 3.05 3.46 4.29 1.65 1.54 3.48 1.19 4.99-.31s3.09-3.13 4.63-4.7c1.46-1.48 2.86-3.25 4.52-4.51 1.13-.86 1.76-.12 2.65.79 1.12 1.15 2.15 2.35 3.33 3.44 2.54 2.35 6.01 6.58 9.55 3.23 1.25-1.18 1.92-2.89 2.63-4.42.77-1.68 1.51-3.37 2.25-5.06.82-1.86 1.64-3.71 2.54-5.54 1.03-2.1 2.11-4.24 2.6-6.54.85-3.99-.15-8.54-3.9-10.71-2.16-1.25-4.1 2.07-1.96 3.35 3.74 2.22 2.02 7.44.57 10.5-1.83 3.86-3.54 7.77-5.31 11.66-.36.79-.73 1.59-1.12 2.37-.2.39-.79 1.74-1.26 1.76s-1.56-1.29-1.91-1.62c-.92-.85-1.86-1.69-2.77-2.56-2.39-2.29-4.88-6.31-8.76-4.63-2.28.99-4 3.3-5.7 5.03-1.03 1.04-2.06 2.09-3.09 3.13-.46.46-.91.93-1.37 1.39-.33.33-1 1.14-1.28 1.19h1.04c-.54-.1-1.75-1.83-2.26-2.51-.8-1.09-1.51-2.24-2.15-3.42-1.33-2.44-2.35-5.02-3.25-7.64s-1.81-5.4-2.51-8.14c-.56-2.19-.65-5.62 2.26-6.05 1.75-.25 1.35-3.25-.42-3.1Z"/><path d="M67.88 123.52c3.09 14.67 6.17 29.34 9.26 44.01.21.99.43 2.01 1.05 2.81 1.24 1.59 3.55 1.73 5.56 1.71 5.08-.06 10.16-.31 15.22-.74 1.42-.12 2.92-.29 4.07-1.13 1.45-1.06 2.02-2.92 2.48-4.66a390 390 0 0 0 8.78-41.67c-2.86 6.65-5.72 13.31-9.14 19.69-.5.93-1.15 1.96-2.2 2.13-.77.12-1.51-.27-2.17-.68a25.1 25.1 0 0 1-8.78-9.34l-8.13 8.19c-1.45 1.46-2.99 2.97-4.96 3.51-1.98.54-4.5-.32-5.04-2.3"/><path d="M66.61 123.88c1.37 8.66 3.02 17.25 4.81 25.83.9 4.32 1.81 8.64 2.71 12.96.43 2.04.79 4.1 1.29 6.12.43 1.75 1.34 3.34 2.97 4.21 1.47.8 3.18.99 4.83 1 2.06.02 4.13-.06 6.19-.14 2.21-.09 4.42-.21 6.63-.37 1.9-.14 3.93-.16 5.79-.65 3.77-1 4.94-4.35 5.84-7.75 1.1-4.14 2.09-8.3 3-12.48 2.05-9.39 3.95-18.79 5.42-28.29.14-.92-.16-1.79-1.07-2.17-.76-.32-1.94-.09-2.3.75-2.66 6.19-5.46 12.37-8.61 18.33-.33.63-.64 1.31-1.05 1.9-.11.16-.23.38-.41.49-.07.04.2.1-.14-.03-1.2-.43-2.4-1.53-3.36-2.35a23.8 23.8 0 0 1-5.34-6.66c-.64-1.18-2.34-1.34-3.26-.42-2.86 2.87-5.7 5.76-8.59 8.61-1.07 1.06-2.34 2.34-3.9 2.61-.76.13-2.02 0-2.33-.86-.83-2.29-4.43-1.38-3.71 1.02 1.36 4.52 6.95 4.84 10.31 2.44 2.01-1.43 3.67-3.32 5.4-5.07 1.91-1.94 3.83-3.88 5.74-5.82l-3.26-.42c1.65 2.98 3.85 5.69 6.49 7.85 2.51 2.05 6.31 4.88 9.1 1.64 1.15-1.34 1.86-3.07 2.64-4.63.93-1.87 1.83-3.76 2.7-5.66 1.66-3.67 3.16-7.41 4.75-11.11-1.12-.47-2.25-.95-3.37-1.42-1.21 7.82-2.64 15.6-4.32 23.33-.82 3.79-1.75 7.54-2.73 11.29-.49 1.87-.96 3.75-1.46 5.62-.39 1.46-.65 3.24-1.59 4.47-.81 1.06-2.24 1.17-3.46 1.28-2.12.19-4.25.33-6.37.44-1.96.11-3.93.18-5.89.24-1.63.04-3.35.21-4.97-.02-1.48-.21-2.18-.82-2.54-2.26-.51-2.02-.87-4.08-1.3-6.12-.83-3.91-1.65-7.82-2.48-11.73-1.9-8.96-3.91-17.88-6.25-26.73-.44-1.68-2.81-.94-2.55.7Zm-33.8 24.86c-.25 4.56-.28 9.13-.34 13.69-.03 2.28-.11 4.56-.11 6.84 0 1.05.12 2.23 1.14 2.82.93.55 2.02.37 2.78-.38.62-.61.62-1.46.28-2.19l-.06-.13c-.48-1.04-1.94-1.03-2.67-.34l.08-.09.93-.25-.21.02.93.25-.19-.08.66.66c.03.28.04.18.02-.29v-.43l-.03-1.5c-.01-.86-.03-1.71-.04-2.57-.03-1.78-.05-3.56-.08-5.35-.05-3.57-.1-7.13-.29-10.69-.1-1.8-2.7-1.8-2.8 0Zm112.62 1.46c-1.04 3.43-1.83 6.94-2.57 10.45-.36 1.69-.71 3.38-1.04 5.08-.34 1.75-.94 3.66-.94 5.45 0 1.67 2.42 2.43 3.23.88s.89-3.63 1.21-5.36.64-3.4.99-5.09c.71-3.52 1.5-7.03 2.12-10.57.34-1.94-2.41-2.77-3-.83Z"/></svg>