<?xml version="1.0" encoding="UTF-8"?><svg xmlns="http://www.w3.org/2000/svg" viewBox="0 0 180 180"><path d="M127.31 40.43c-3.36.45-6.73 1.3-9.72 2.93-2.94 1.6-5.61 3.76-7.81 6.27-4.54 5.16-7.21 11.8-7.89 18.61-.65 6.45.7 13.15 4.07 18.72 3.16 5.23 7.95 9.42 13.38 12.18 11.22 5.71 25.16 6.09 36.25-.13 6.25-3.5 11.2-8.79 13.8-15.5 2.33-6.01 2.42-12.67 1.33-18.95-1.23-7.11-4.58-13.5-9.91-18.41-5.38-4.95-12.39-8.2-19.8-7.93-1.81.07-3.62.35-5.37.83-2.32.63-1.35 4.15.99 3.6 12.48-2.92 25.64 7.21 28.94 19 1.51 5.41 1.96 11.35.7 16.85a24.78 24.78 0 0 1-9.13 14.18c-9.13 6.98-21.33 8.01-31.96 4.13-10.21-3.73-18.19-12.5-18.85-23.63-.72-12.02 6.02-23.48 16.98-28.49 1.4-.64 2.92-1.03 4.42-1.33 1.62-.33 1.28-3.15-.4-2.93Z"/><path d="M143.33 49.25c-6.55-.12-13.19 2.03-17.77 6.87s-6.29 12.31-4.97 18.85c1.32 6.55 5.89 11.77 12.02 14.29 5.74 2.36 12.43 1.7 17.64-1.65 2.94-1.89 5.41-4.55 7.05-7.63s2.79-6.78 2.12-10.17c-.28-1.39-2.69-1.47-2.89 0-.36 2.67-.52 5.21-1.69 7.69-1.11 2.36-2.71 4.47-4.72 6.13-4.08 3.38-9.47 3.98-14.43 2.44-4.94-1.53-9.01-5.14-10.61-10.12-1.68-5.26-.87-11.39 2.34-15.93 3.5-4.94 10.02-7.62 15.93-7.82 1.91-.07 1.92-2.93 0-2.97Z"/><path d="M126.85 58.46c3.33-3.32 8.44-4.75 13.01-3.62s8.44 4.76 9.84 9.25c1.58 5.04 1.21 11.05-2.03 15.38-3.82 5.12-10.96 6.49-16.46 3.23-3.35-1.99-5.75-5.43-6.74-9.2-.71-2.7-.73-5.61.15-8.26 1.75-5.25 7.27-8.98 12.8-8.65"/><path d="M127.86 59.46c4.21-3.95 11.25-4.26 15.78-.71 4.5 3.53 5.9 9.88 4.45 15.26-1.41 5.24-6.16 9.05-11.71 8.34s-9.72-6.01-10.27-11.46c-.7-6.89 4.55-12.21 11.32-12.36 2.56-.06 2.44-3.62 0-3.89-7.46-.84-14.38 5.43-15.38 12.61-1.09 7.76 3.48 16.05 11.05 18.54 6.82 2.25 14.51-1.06 17.65-7.49 3.21-6.58 2.41-15.68-2.86-21-2.86-2.88-6.78-4.63-10.85-4.67-4.3-.04-8.19 1.8-11.19 4.81-1.3 1.3.68 3.26 2.01 2.01Z"/><path d="M156.75 99.18c1.38 3.46 2.44 7.03 3.09 10.7.3 1.66.55 3.31.71 4.99.14 1.5.51 3.21-.54 4.45-1.04 1.23-2.48 2.2-3.72 3.22-1.63 1.34-3.27 2.68-4.92 4.01-2.91 2.35-5.83 4.68-8.74 7.04-4.85 3.92-9.51 7.94-13.91 12.37-3.82 3.85-7.58 7.83-11.92 11.1-4.23 3.19-8.98 5.6-14.25 6.42-6.73 1.04-13.59 1.58-20.36 2.21-12.51 1.16-25.03 1.66-37.59 1.84-2.57.04-5.65.65-7.65-1.36-.87-.88-1.16-1.97-1.52-3.12-.56-1.75-1.13-3.49-1.73-5.23-2.31-6.79-4.85-13.49-7.36-20.2-5-13.37-9.9-26.87-12.57-40.94-.25-1.3-.95-3.3-.36-4.57s2.27-2.27 3.35-3.16c2.86-2.34 5.65-4.76 8.38-7.25 4.64-4.23 9.09-8.67 13.43-13.2 8.25-8.61 16.23-17.49 25.27-25.29 2.39-2.07 4.9-3.69 7.92-4.71 3.37-1.14 6.71-1.52 10.25-1.48 5.6.06 11.21 0 16.81-.07 11.81-.15 23.66-.65 35.47-.35 1.02.03 2 .13 2.98.54.31.13.67.34.85.53-.25-.25.16.36.04 0 .17.52.05-.18.01.41-.18 3.09 4.63 3.08 4.81 0s-2.54-5.15-5.31-5.86-5.57-.48-8.3-.48c-6.23 0-12.47.09-18.7.21s-12.88.25-19.33.31-13.3-.6-19.62 1.28c-3.39 1-6.6 2.51-9.36 4.74-2.58 2.08-5.03 4.34-7.44 6.61-4.47 4.21-8.72 8.65-12.93 13.12-9.45 10.02-19 19.86-29.74 28.52-1.21.98-2.35 2-3.06 3.42-1.01 2.03-.73 4.08-.36 6.22.65 3.76 1.48 7.5 2.42 11.2 1.85 7.21 4.17 14.28 6.67 21.29 2.51 7.02 5.19 13.98 7.75 20.98 1.31 3.59 2.59 7.18 3.8 10.8 1.07 3.21 1.69 7.03 4.29 9.43 2.62 2.41 5.61 2.62 8.99 2.58 3.65-.04 7.3-.11 10.95-.23 6.38-.21 12.76-.55 19.13-1.05 6.78-.53 13.54-1.23 20.3-2s13.36-1.19 19.51-4.2c10.45-5.1 17.47-14.86 26.03-22.37 5.97-5.23 12.32-10.02 18.42-15.08 1.38-1.14 2.75-2.29 4.1-3.45s2.82-2.46 3.4-4.27.25-3.57.02-5.33c-.27-2.02-.59-4.05-1.12-6.02-.95-3.6-2.2-7.09-3.77-10.47-.77-1.66-3.67-.47-2.98 1.26Z"/><path d="M38.89 167.33c20.12-19.37 28.56-23.37 46.77-41.45 4.17-4.15 13.15-2.65 18.49-2.92 18.99-.94 37.92-2.8 56.9-3.88-11.87 10.33-27.21 21.69-37.55 33.56-2.91 3.34-5.91 2.35-9.85 4.36-2.12 1.08-4.4 6.16-6.72 6.66-10 2.19-20.27 2.71-30.49 3.22l-32.47 1.62"/><path d="M39.96 168.4c6.43-6.04 13.07-11.85 19.89-17.45 5.64-4.63 11.33-9.2 16.77-14.07 3.3-2.95 6.51-5.98 9.66-9.09 2.63-2.59 5.99-3 9.56-3.07 3.93-.07 7.84.11 11.77-.01 5.45-.17 10.9-.52 16.33-.9 12.37-.87 24.72-1.9 37.1-2.59l-1.52-3.66c-6.75 5.85-13.79 11.36-20.57 17.17-3.44 2.95-6.84 5.96-10.1 9.11-1.52 1.47-3.01 2.96-4.45 4.5-1.33 1.42-2.55 3.31-4.31 4.23-1.38.72-3.02.87-4.5 1.3-1.76.51-3.46 1.21-4.75 2.55-1.12 1.17-1.99 2.57-3.05 3.8-.4.47-.83.98-1.27 1.23 0 0-.29.09-.66.17-.7.15-1.41.29-2.11.43-9.64 1.84-19.49 2.22-29.27 2.71l-30.52 1.53c-2.82.14-2.84 4.55 0 4.41 9.09-.45 18.18-.91 27.27-1.36 10.07-.5 20.18-.85 30.16-2.41 1.18-.19 2.36-.39 3.54-.61s2.44-.36 3.52-.89c1.45-.71 2.48-2.05 3.45-3.29.78-1.01 1.8-2.57 2.68-3.13 1.49-.96 3.45-1.15 5.13-1.61 1.93-.53 3.68-1.44 5.07-2.9 1.48-1.54 2.85-3.17 4.34-4.7 3.17-3.26 6.52-6.34 9.94-9.35 7.71-6.78 15.77-13.13 23.51-19.87 1.38-1.2.3-3.77-1.52-3.66-11.14.65-22.26 1.57-33.39 2.41-9.9.75-19.82 1.87-29.75 1.76-3.77-.04-7.84.05-11.25 1.84-1.82.96-3.19 2.58-4.65 4-1.65 1.61-3.33 3.2-5.02 4.77-5.56 5.14-11.39 9.96-17.21 14.8-7.57 6.31-14.93 12.82-21.96 19.74-1.39 1.37.72 3.48 2.14 2.14Zm57.32-64.75c1.81 2.99 5.18 4.86 8.61 5.18 1.64.15 3.39-.1 4.93-.68 1.67-.63 4.01-1.73 4.54-3.6.38-1.34-.89-2.48-2.18-2.18-.76.18-1.36.73-1.91 1.1-.45.3-1.15.68-1.51.83-1.29.53-2.39.7-3.75.61-.45-.03-1.03-.13-1.63-.3s-1.07-.35-1.57-.61c-1.14-.6-2.04-1.42-2.9-2.38-1.27-1.42-3.6.41-2.63 2.03M43.06 86.33c-14.39 4.03-17.77 25.35-6.06 34.25 5.31 4.04 13.21 4.87 18.72.74 5.45-4.09 7.44-11.37 6.52-17.92-1.07-7.61-4.8-18.53-14.16-18.52-2.6 0-2.57 3.89 0 4.02 6.45.31 8.81 7.94 9.9 13.18 1.06 5.07.53 10.76-3.23 14.66-3.66 3.8-9.45 3.95-13.88 1.41-4.97-2.85-7.02-8.55-6.77-14.05.26-5.88 3.76-12.94 9.78-14.73 1.93-.58 1.12-3.58-.83-3.03Z"/><path d="M37.57 91.09c5.9 8.62 10.8 18.57 7.74 29.2-.65 2.26 2.83 3.2 3.51.97 3.47-11.34-1.92-23.19-9.29-31.68-.92-1.05-2.75.34-1.95 1.51ZM64.3 40.24c.57 5.58 2.23 11.14 3.54 16.59s2.72 10.87 4.15 16.29c2.89 10.91 6.02 21.75 9.33 32.54 1.86 6.05 3.72 12.11 5.77 18.1.75 2.2 4.21 1.29 3.51-.97-6.67-21.4-13.12-42.84-18.65-64.57-.76-2.99-1.53-5.98-2.28-8.97-.78-3.13-1.45-6.36-2.57-9.39-.51-1.38-2.97-1.34-2.79.38Z"/><path d="M35.11 118.8c-1.16 3.85-1.6 8.24.46 11.69 2.36 3.95 7.97 5.53 12.04 3.4 1.89-.99 3.37-2.61 4.59-4.36 1.98-2.84 3.35-6.1 4-9.5-3.59 4.69-10.62 6.36-15.94 3.78-1.71-.83-3.37-2.3-3.4-4.19"/><path d="M33.9 118.09c-2.76 5.66-2.12 13.42 3.66 16.94 2.42 1.48 5.4 2.01 8.18 1.47 3.12-.6 5.55-2.81 7.41-5.26 2.44-3.22 3.76-6.88 4.73-10.76.4-1.59-1.72-3.08-2.92-1.7-2.19 2.53-5.14 4.16-8.52 4.31-2.9.13-7.11-.67-7.84-3.97-.19-.87-1.14-1.42-1.98-1.29-.94.14-1.48.85-1.56 1.77-.24 2.56 2 4.71 4.1 5.77s4.38 1.58 6.7 1.53c4.59-.1 9.16-2.24 11.84-6.01l-3.19-1.34c-.52 3.49-2.2 7.03-4.39 9.78-1.85 2.33-4.33 3.91-7.39 3.58-2.59-.28-4.99-1.87-6.02-4.28-1.34-3.13-.6-6.6-.2-9.84.17-1.38-2.02-1.9-2.61-.71Zm16.13-67.68c-3.71-4.7-7.46-9.38-11.07-14.15-3.59-4.75-7.35-9.46-10.55-14.49l-.33 2.6c1.14-1.18 2.38-2.19 3.8-3.02.38-.22 1.34-.92 1.71-.91.42.02 1.06.89 1.3 1.13 2.7 2.61 5.44 5.17 8.21 7.7a398 398 0 0 0 17.07 14.68c.87.71 2.09.85 2.94 0 .73-.73.87-2.22 0-2.94a379 379 0 0 1-23.61-21c-1.31-1.27-2.65-3.03-4.43-3.65-1.91-.67-3.75.28-5.38 1.25a21.7 21.7 0 0 0-4.64 3.73c-.86.9-.75 2.11 0 3.03 3.82 4.69 7.3 9.66 11.07 14.39s7.6 9.44 11.61 13.97c1.42 1.6 3.58-.7 2.31-2.31Z"/><path d="M37.07 33.66c.06-.05.13-.1.19-.15-.1.07-.15.11-.02.02s.26-.2.38-.29c.27-.21.55-.41.82-.61.54-.39 1.08-.77 1.63-1.14s1.07-.71 1.62-1.06c.29-.18.58-.36.87-.55.13-.09.27-.18.4-.28.31-.22.52-.47.74-.77.34-.48.22-1.21-.12-1.64-.39-.51-.94-.62-1.55-.53-.72.1-1.41.64-2 1.04s-1.13.78-1.69 1.18c-1.17.85-2.3 1.73-3.41 2.65-.61.51-.56 1.62 0 2.13.29.26.66.46 1.07.44.43-.02.73-.18 1.07-.44m56.14.11c-2.75-3.5-5.77-6.75-8.77-10.03-2.94-3.23-5.67-6.61-8.2-10.18-.1.81-.21 1.62-.31 2.43 1.18-1.21 2.41-2.13 3.89-2.94.41-.22 1.3-.92 1.72-.9s1.05.91 1.29 1.15c2.68 2.62 5.44 5.18 8.21 7.7a398 398 0 0 0 17.08 14.68c.87.71 2.09.85 2.94 0 .73-.73.87-2.22 0-2.94a379 379 0 0 1-19.1-16.72c-1.51-1.42-3.02-2.85-4.51-4.3-1.31-1.27-2.66-3.02-4.44-3.63-1.88-.65-3.78.27-5.36 1.26-1.65 1.03-3.23 2.4-4.56 3.81-.56.59-.84 1.71-.31 2.43 2.73 3.71 5.63 7.26 8.82 10.58 3.15 3.27 6.27 6.54 9.29 9.92 1.43 1.6 3.57-.7 2.31-2.31Z"/><path d="M85.02 25.38c.06-.05.13-.1.19-.15-.1.07-.15.11-.02.02s.26-.2.38-.29c.27-.21.55-.41.82-.61.54-.39 1.08-.77 1.63-1.14s1.07-.71 1.62-1.06c.29-.18.58-.36.87-.55.13-.09.27-.18.4-.28.31-.22.52-.47.74-.77.34-.48.22-1.21-.12-1.64-.39-.51-.94-.62-1.55-.53-.72.1-1.41.64-2 1.04s-1.13.78-1.69 1.18c-1.17.85-2.3 1.73-3.41 2.65-.61.51-.56 1.62 0 2.13.29.26.66.46 1.07.44.43-.02.73-.18 1.07-.44M54.56 67.29c.11-.16.22-.31.33-.47l.15-.21c.02-.02.17-.23.08-.11-.1.13.13-.16.13-.15.05-.07.11-.13.16-.2l.33-.39c.48-.57.98-1.12 1.46-1.69.47-.56.95-1.1 1.43-1.64.24-.27.49-.54.74-.8.33-.35.71-.69.95-1.11.35-.64.29-1.54-.27-2.05s-1.42-.69-2.05-.27c-.69.47-1.21 1.22-1.74 1.86s-1.09 1.35-1.61 2.04c-.92 1.2-1.7 2.5-2.56 3.75-.42.62-.14 1.61.51 1.96.73.39 1.49.14 1.96-.51Zm2.76 7.64c.11-.16.22-.31.33-.47l.15-.21c.02-.02.17-.23.08-.11-.1.13.13-.16.13-.15.05-.07.11-.13.16-.2l.33-.39c.48-.57.98-1.12 1.46-1.69s.95-1.1 1.43-1.64c.24-.27.49-.54.74-.8.33-.35.71-.69.95-1.11.35-.64.29-1.54-.27-2.05s-1.42-.69-2.05-.27c-.69.47-1.21 1.22-1.74 1.86s-1.09 1.35-1.61 2.04c-.92 1.2-1.7 2.5-2.56 3.75-.42.62-.14 1.61.51 1.96.73.39 1.49.14 1.96-.51Zm2.76 7.64c.11-.16.22-.31.33-.47l.15-.21c.02-.02.17-.23.08-.11-.1.13.13-.16.13-.15.05-.07.11-.13.16-.2l.33-.39c.48-.57.98-1.12 1.46-1.69s.95-1.1 1.43-1.64c.24-.27.49-.54.74-.8.33-.35.71-.69.95-1.11.35-.64.29-1.54-.27-2.05s-1.42-.69-2.05-.27c-.69.47-1.21 1.22-1.74 1.86s-1.09 1.35-1.61 2.04c-.92 1.2-1.7 2.5-2.56 3.75-.42.62-.14 1.61.51 1.96.73.39 1.49.14 1.96-.51Zm28.03-36.59c-2.99-.68-5.55 1.9-6.06 4.7-.25 1.4-.13 2.82.56 4.08.55.99 1.47 1.83 2.48 2.34 3.73 1.91 9.18.52 10.32-3.88.39-1.5.19-3.02-.5-4.4s-2.22-2.89-3.83-2.85c-.65.01-1.23.4-1.49 1-.23.55-.16 1.37.34 1.78.28.22.54.41.85.58l.21.12c.09.06.43.2.05.02.16.08.33.3.45.42l.08.09c.12.15.11.13-.04-.06 0 0 .2.3.21.31l.18.33c.2.35-.07-.25 0-.01.07.22.13.44.19.66.09.33 0-.08 0-.09.04.07.02.29.02.37 0 .13 0 .25-.01.37 0 .37.08-.37 0-.02-.04.17-.07.33-.11.5-.03.1-.06.19-.09.28-.11.34.19-.38.03-.06-.07.14-.14.28-.23.42-.04.07-.09.13-.13.2-.22.34.24-.26.02-.03-.1.11-.21.23-.32.33l-.21.18c-.25.22.3-.2.1-.08-.3.18-.62.35-.92.53.47-.28.07-.03-.1.02-.15.05-.3.09-.45.13-.18.04-.38.06-.56.11.02 0 .48-.05.19-.03l-.38.03c-.32.01-.64 0-.95-.03-.36-.03.46.08.1.01-.09-.02-.19-.03-.28-.05-.19-.04-.37-.09-.55-.15-.16-.05-.61-.3-.1-.02-.14-.08-.28-.13-.42-.21-.15-.08-.29-.18-.44-.27-.13-.08-.23-.24.1.08-.09-.09-.19-.16-.28-.25l-.18-.18-.08-.09c-.12-.15-.11-.13.05.07-.1-.02-.26-.44-.31-.52-.2-.35.11.38 0 0-.02-.08-.05-.15-.07-.22-.03-.11-.05-.23-.08-.34-.09-.34 0 .4 0-.05 0-.07-.05-.76.01-.77 0 0-.08.46-.01.11.03-.16.06-.32.1-.47.02-.08.04-.16.07-.23.02-.08.05-.15.08-.23.07-.18.06-.15-.04.08 0-.18.26-.5.35-.64.05-.08.13-.25.2-.3l-.12.15c.12-.14.23-.29.34-.44-.29.34-.01.02.04-.04.09-.1.2-.2.3-.3-.24.23.07-.05.13-.08.07-.04.38-.19.13-.09.13-.05.26-.09.4-.12-.28.07.21 0 .3 0 1.59.07 1.95-2.44.38-2.79Z"/></svg>