<?xml version="1.0" encoding="UTF-8"?><svg xmlns="http://www.w3.org/2000/svg" viewBox="0 0 180 180"><path d="M62.89 59.44c-.11 4.97-.53 9.96-.72 14.93-.18 4.81-.54 9.7-.11 14.51.75 8.28 4.65 15.72 11.62 20.43 1.72 1.16 3.56 2.17 5.5 2.91s3.97 1.81 6.1 2.01c1.3.12 1.59-1.71.63-2.31-1.45-.92-3.16-1.39-4.63-2.31s-2.81-1.94-4.1-3.01c-2.61-2.17-5.06-4.65-6.87-7.53-4.46-7.1-3.62-15.66-3.77-23.69l-.15-7.72c-.05-2.74-.3-5.48-.31-8.21 0-2.04-3.13-2.04-3.17 0Z"/><path d="M63.62 64.85c-1.91-1.5-4.38-1.8-6.55-.66-1.85.98-3.12 2.82-3.94 4.69-1.91 4.32-2.81 10.14-.45 14.46 1.68 3.06 5.21 5.24 8.46 6.27.85.27 1.82-.25 2.15-1.05.37-.91 0-1.71-.74-2.27-2.39-1.82-5.68-2.72-6.74-5.86-.43-1.28-.52-2.63-.45-3.97.05-1.09.11-1.46.34-2.53s.51-2.08.91-3.08c.11-.28.33-.75.56-1.16.14-.25.3-.5.45-.74 0 0 .36-.49.19-.27.28-.36.61-.72.98-1-.25.19.34-.19.4-.23.37-.2-.13.01.24-.1.99-.3 1.56-.15 2.7.05 1.31.23 2.81-1.5 1.48-2.55Zm15.19 59.74c.28-4.98.33-9.97.35-14.96.01-2.41-3.76-2.42-3.75 0 .02 4.99.07 9.98.35 14.96.11 1.96 2.94 1.96 3.05 0"/><path d="M74.31 121.63c-3.27.78-6.59 1.36-9.86 2.12s-6.21 1.53-9.29 2.39c-6.14 1.71-12.33 3.59-18.22 6.04-2.74 1.14-5.33 2.49-7.55 4.5-1.99 1.8-3.57 4.08-4.82 6.44-2.14 4.05-3.75 8.38-4.63 12.87-.49 2.49-.9 5-1.37 7.5-.37 1.98-.59 4.03-1.08 5.99-.52 2.09 2.58 3.59 3.6 1.52 1.75-3.54 2.3-7.49 3.09-11.32s1.82-7.79 3.48-11.53c.99-2.24 2.14-4.52 3.75-6.4 1.73-2.01 3.88-3.41 6.26-4.54 5.44-2.58 11.38-4.27 17.1-6.11 3.35-1.08 6.72-2.09 10.08-3.11s6.86-2.21 10.33-3.11c2.09-.54 1.21-3.74-.89-3.24ZM60.13 76.68c.14.04.27.09.4.15l-.29-.12c.38.16.74.38 1.07.63l-.25-.19c.3.24.57.52.81.82l-.2-.26c.26.34.48.71.65 1.11l-.13-.32c.06.14.11.27.17.41l-.13-.32c.11.27.2.54.34.8.14.27.49.54.78.6s.58.05.85-.07c.25-.11.5-.29.63-.54l.13-.31c.06-.23.06-.47 0-.7-.05-.3-.19-.59-.33-.86-.09-.19-.2-.36-.32-.53-.28-.41-.6-.81-.97-1.14a6.6 6.6 0 0 0-2.58-1.49c-.61-.18-1.35.22-1.49.85-.15.66.2 1.28.85 1.49Zm53.81-17.24c-.01 4.64-.33 9.3-.42 13.94s.01 9.13-.27 13.67c-.24 3.76-.98 7.42-2.8 10.75-1.65 3.02-3.97 5.51-6.5 7.82-1.39 1.27-2.91 2.36-4.44 3.45-1.68 1.2-3.67 1.75-5.4 2.84-.96.61-.67 2.43.63 2.31 1.85-.17 3.52-1.02 5.24-1.69s3.48-1.43 5.11-2.43c3.36-2.05 6.19-4.75 8.42-7.99 5.24-7.64 4.75-16.91 4.42-25.76l-.31-8.21c-.11-2.91-.42-5.81-.48-8.71-.04-2.04-3.17-2.05-3.17 0Z"/><path d="M117.87 67.4c1.11-.2 1.66-.34 2.61-.07.39.11.06-.02.33.13.06.03.65.41.4.23.37.28.69.64.98 1s.99 1.65 1.2 2.17c.4.99.69 2.03.91 3.08s.28 1.44.34 2.53c.07 1.34-.03 2.69-.45 3.97-1.04 3.14-4.35 4.04-6.74 5.86-.72.55-1.14 1.37-.74 2.27.35.8 1.27 1.33 2.15 1.05 2.9-.92 5.87-2.72 7.73-5.17s2.29-5.46 2.07-8.36c-.32-4.07-1.58-8.98-5.07-11.48-2.21-1.59-5.08-1.42-7.2.25-1.33 1.04.17 2.78 1.48 2.55Zm-13.63 57.19c.28-4.98.33-9.97.35-14.96.01-2.41-3.76-2.42-3.75 0 .02 4.99.07 9.98.35 14.96.11 1.96 2.94 1.96 3.05 0"/><path d="M104.8 124.87c6.09 1.58 12.12 3.62 18.13 5.5 5.93 1.86 11.88 3.75 17.64 6.07 2.37.96 4.77 2.14 6.65 3.89 1.83 1.7 3.15 3.79 4.26 6 1.88 3.75 3.11 7.64 3.99 11.73.93 4.33 1.45 8.91 3.43 12.92 1.01 2.05 4.13.59 3.6-1.52-.44-1.75-.62-3.59-.96-5.36-.42-2.18-.79-4.37-1.19-6.55-.82-4.46-2.13-8.54-4.05-12.67-2.39-5.15-5.92-9.32-11.11-11.78-5.71-2.71-11.98-4.58-18.05-6.32-3.53-1.02-7.08-1.98-10.66-2.82-3.58-.85-7.22-1.49-10.8-2.34-2.1-.5-2.99 2.69-.89 3.24Zm14.43-50.52c-.97.29-1.83.81-2.58 1.49-.37.34-.69.73-.97 1.14-.12.17-.23.35-.32.53-.13.27-.28.56-.33.86-.05.35-.07.7.13 1.01.16.24.36.42.63.54.57.24 1.34.05 1.64-.54.13-.26.22-.53.34-.8l-.13.32c.06-.13.11-.27.17-.41l-.13.32c.17-.4.39-.77.65-1.11l-.2.26c.24-.3.5-.58.81-.82l-.25.19c.33-.25.69-.46 1.07-.63l-.29.12c.13-.06.27-.11.4-.15.3-.1.56-.28.72-.56.15-.26.22-.64.12-.93-.2-.61-.84-1.04-1.49-.85ZM92.61 40.37c-2.8 8.89-10.22 16.19-19.16 18.83-2.41.71-5.18 1.29-6.52 3.41-.55.88-.82 1.98-1.65 2.6-1.1.83-2.72.43-3.87-.35-3.36-2.28-4.21-6.89-3.88-10.93 1.04-12.92 12.14-24.3 25.03-25.67 3.07-.33 6.71.14 8.33 2.77 1.56-2.57 4.87-3.53 7.88-3.54 4.39-.01 8.77 1.56 12.14 4.37 3.21 2.68 5.44 6.33 7.6 9.9 2.83 4.68 5.71 10.51 3.1 15.31-.64 1.17-1.56 2.16-2.37 3.22a19.2 19.2 0 0 0-3.39 7.2c-1.58-1.44-1.96-3.78-3.2-5.53-1.63-2.31-4.5-3.31-7-4.63-5.74-3.04-10.18-8.45-12.03-14.68"/><path d="M91.08 39.95c-2.15 5.91-6.47 11.09-11.85 14.35-2.75 1.67-5.61 2.52-8.66 3.47-1.6.5-3.2 1.17-4.43 2.34a7 7 0 0 0-1.37 1.85c-.19.37-.52 1.43-.88 1.58-.96.4-2.44-1.3-2.9-2.03-.75-1.19-1.17-2.57-1.36-3.96-.39-2.98.14-6.08 1.06-8.92 1.82-5.61 5.67-10.61 10.54-13.92 2.77-1.89 5.82-3.26 9.1-3.98 2.58-.57 7.02-1.25 8.76 1.36.88 1.33 2.72 1.35 3.6 0 1.7-2.61 5.63-2.75 8.39-2.36 3.84.54 7.33 2.41 10 5.2 2.65 2.77 4.65 6.22 6.52 9.55 1.71 3.05 3.69 6.99 2.55 10.56-.66 2.06-2.47 3.6-3.62 5.39-1.28 1.99-2.19 4.22-2.76 6.51l3.59-.95c-.96-.94-1.38-2.24-1.94-3.43-.6-1.29-1.4-2.49-2.48-3.43-2.18-1.9-4.93-2.81-7.38-4.29-4.77-2.88-8.19-7.47-9.94-12.73-.84-2.53-4.75-1.5-4.02 1.11 1.65 5.89 5.52 11.01 10.52 14.49 2.34 1.63 5.16 2.47 7.44 4.17 2.39 1.79 2.67 5.07 4.77 7.15 1.13 1.11 3.2.64 3.59-.95.55-2.24 1.47-4.29 2.81-6.17s2.97-3.56 3.65-5.9c1.31-4.51-.59-9.23-2.75-13.14s-4.64-8.03-7.84-11.22-7.47-5.36-12-6c-4.63-.65-9.96.12-12.7 4.34h3.6c-4.37-6.56-14.66-3.65-20.38-.73-6.4 3.26-11.69 8.89-14.53 15.5-2.68 6.23-4.21 15.56 1.23 20.84 1.47 1.42 3.46 2.47 5.55 2.17a4.43 4.43 0 0 0 2.73-1.47c.64-.73.93-1.61 1.44-2.4.9-1.4 2.74-1.84 4.24-2.28 1.83-.54 3.6-1.17 5.32-1.99 7.68-3.65 13.54-10.64 15.84-18.81.56-1.99-2.37-2.74-3.06-.84Zm-23.34 60.83c-1.2 2.15-2.37 4.41-2.54 6.86s.92 5.16 3.17 6.16c-2.31 1.71-4.41 3.97-4.99 6.79-.58 2.81.89 6.18 3.67 6.89-2.48 1.24-4.17 3.92-4.22 6.69s1.56 5.51 3.99 6.82a27.8 27.8 0 0 0-7.21 13.22c5.05.27 10.09.54 15.14.82.46.03.98.03 1.33-.27.32-.27.42-.73.47-1.15.72-5.43-2.16-11.15-6.93-13.83 2.43-1.3 3.87-4.24 3.4-6.95s-2.8-5.01-5.52-5.42c3.44-2.72 4.75-7.84 3.03-11.88-.26-.62-.59-1.27-.43-1.92.17-.69.83-1.12 1.32-1.63 1.47-1.54 1.41-4.08.44-5.97s-2.67-3.3-4.32-4.64"/><path d="M66.3 99.94c-1.64 2.65-3.23 5.66-3 8.89.2 2.73 1.5 5.47 4.03 6.74v-3.53c-3.12 2.31-5.97 5.41-6.15 9.51-.16 3.47 1.93 6.9 5.33 7.9-.16-1.24-.32-2.48-.49-3.71-3.09 1.63-5.18 4.93-5.24 8.44-.06 3.57 1.99 6.81 4.99 8.62l-.42-3.27c-3.86 3.83-6.53 8.86-7.78 14.13-.33 1.39.64 2.6 2.04 2.68 3.83.21 7.65.41 11.48.62 1.62.09 3.68.54 5.26.03 1.84-.59 2.26-2.37 2.39-4.08.44-5.97-2.92-11.94-8.06-14.9v3.61c3.22-1.86 5.05-5.63 4.34-9.3-.65-3.41-3.57-6.24-6.97-6.85.3 1.14.6 2.28.9 3.43 2.03-1.68 3.48-4.11 4.04-6.69.28-1.3.39-2.65.25-3.97-.08-.75-.2-1.5-.42-2.22-.15-.5-.74-1.37-.71-1.85-.05-.17-.06-.16-.05.03l.26-.25c.27-.19.54-.51.75-.77.49-.59.84-1.22 1.1-1.94.48-1.34.47-2.82.16-4.2-.68-3.02-3.09-5.17-5.38-7.04-1.98-1.62-4.82 1.2-2.83 2.83 1.74 1.42 4 3.08 4.39 5.45.16.99-.05 1.87-.77 2.58-.99.97-1.74 1.92-1.68 3.38.05 1.23.78 2.32 1.04 3.52.2.93.21 1.93.07 2.87-.34 2.16-1.44 4.01-3.12 5.38-1.16.95-.54 3.16.9 3.43 1.92.36 3.59 1.68 4 3.66s-.69 3.96-2.39 4.93c-1.36.78-1.35 2.82 0 3.61 3.71 2.16 6.06 6.27 5.98 10.57 0 .24-.05.49-.03.73.03.38-.28.63.27.26.58-.39.08-.23-.28-.25-.41-.02-.81-.04-1.22-.07l-4.4-.24c-3.09-.17-6.19-.34-9.28-.5.68.89 1.36 1.79 2.04 2.68 1.1-4.7 3.38-8.78 6.64-12.31.88-.95.8-2.6-.42-3.27-4.06-2.22-3.77-7.84.2-9.96 1.59-.85 1.13-3.23-.49-3.71-1.75-.53-2.47-2.67-2.22-4.34.37-2.5 2.55-4.48 4.44-5.94 1-.77.68-2.69-.41-3.21-4.17-1.99-1.69-7.45-.23-10.42.94-1.91-1.73-3.52-2.87-1.68Zm20.48-26.68c-.1 2.75.04 5.5.13 8.25s.04 5.6.52 8.34c.13.75 1 1.21 1.7 1.11.8-.12 1.28-.73 1.34-1.52.22-2.67-.12-5.41-.27-8.09-.15-2.7-.27-5.41-.61-8.09-.22-1.75-2.75-1.86-2.81 0m-3.9 23.48c2.39.97 5.07 1.2 7.62.97 1.33-.12 2.65-.35 3.93-.73s2.83-.8 3.75-1.74c.46-.46.6-1.18.34-1.78-.23-.53-.85-1.08-1.49-1-1.21.16-2.35.82-3.53 1.16-1.01.29-2.07.53-3.12.64-2.25.24-4.5.03-6.72-.37-1.9-.34-2.54 2.14-.79 2.85Zm-1.39-22.29-.11-.1c-.14-.15-.3-.25-.48-.31a1.15 1.15 0 0 0-.58-.13l-.4.05q-.375.105-.66.39l-.11.1-.26.34-.17.4q-.105.33-.03.66c0 .15.04.29.11.42.04.14.11.26.21.37q.105.18.3.3c.1.1.23.17.37.21.2.1.41.15.64.14l.44-.06.4-.17.34-.26.26-.34.17-.4q.105-.33.03-.66c0-.15-.04-.29-.11-.42-.07-.21-.18-.38-.34-.53Zm17.44-.11-.11-.1c-.14-.15-.3-.25-.48-.31a1.15 1.15 0 0 0-.58-.13l-.4.05q-.375.105-.66.39l-.11.1-.26.34-.17.4q-.105.33-.03.66c0 .15.04.29.11.42.04.14.11.26.21.37q.105.18.3.3c.1.1.23.17.37.21.2.1.41.15.64.14l.44-.06.4-.17.34-.26.26-.34.17-.4q.105-.33.03-.66c0-.15-.04-.29-.11-.42-.07-.21-.18-.38-.34-.53Zm-26.19-6.48c1.22.66 2.51-.3 3.53-.66s2.13-.7 3.23-.9c.13-.02.27-.05.4-.07.03 0 .41-.06.24-.04s.21-.02.24-.03c.13-.01.27-.03.4-.04.54-.04 1.08-.06 1.62-.07s1.09.01 1.63.06c.14.01.27.02.41.04.04 0 .43.05.23.03-.16-.02-.09-.01.2.03.18.05.36.05.55 0 .22-.03.43-.06.64-.1 1.65-.33 1.83-2.73.46-3.51-1.22-.69-2.94-.65-4.32-.6-1.36.05-2.73.28-4.04.64s-2.5.82-3.66 1.43c-.6.32-1.2.67-1.71 1.11-.75.66-1.16 2.1-.05 2.7Zm34.17-3.61c-2.18-.97-4.32-2.14-6.63-2.76-2.54-.69-5.12-.39-7.68.03-.95.16-1.74 1.29-1.69 2.22.02.32.04.65.15.96.45 1.25 1.83 1.97 3.06 1.25.26-.16.52-.35.72-.57l-1.02.59c.28-.05.57-.09.85-.14l.36-.06c-.21.03-.17.02.12-.01.49-.05.97-.1 1.46-.12.55-.02 1.11 0 1.66.05 0 0 .72.08.34.03.39.05.79.11 1.18.15.36.04.63.08 1.2.18q.765.15 1.53.33c1.05.25 2.08.55 3.11.88.77.25 1.65-.23 1.94-.95s.09-1.72-.67-2.06Z"/><path d="M74.81 124.05c1.62 3.71 3.6 7.25 5.8 10.64 1.08 1.67 2.21 3.31 3.39 4.91 1.23 1.67 2.46 3.38 4.02 4.76 1.3 1.16 3.46-.31 2.49-1.92-1.02-1.7-2.31-3.22-3.49-4.81-1.18-1.6-2.32-3.24-3.4-4.91-2.17-3.34-4.13-6.8-6.03-10.3-.42-.76-1.47-1.01-2.2-.58-.82.48-.93 1.4-.58 2.2Z"/><path d="M102.17 123.74c-.08 1.91-1.49 3.66-2.47 5.23-1.12 1.79-2.23 3.59-3.36 5.38s-2.28 3.56-3.46 5.32c-.52.77-1 1.6-1.59 2.32-.2.24-.45.56-.76.68q.405-.06-.09-.06c-.25.03-.5.07-.76.11-1.27.21-1.81 2.2-.79 3 2.21 1.76 4.58-.1 5.93-2 1.48-2.08 2.83-4.27 4.19-6.44 1.33-2.13 2.63-4.27 3.86-6.47s2.59-4.47 2.43-7.07c-.12-2-3.04-2.02-3.12 0Z"/><path d="M71 140.06c1.43 2.66 3.02 5.19 4.71 7.68 1.67 2.46 3.31 5.14 5.29 7.36.83.92 2.08 1.58 3.34 1.25 1.37-.36 2.15-1.68 2.95-2.73 1.95-2.56 3.9-5.12 5.86-7.68h-3.11c1.06 1.97 2.11 3.95 3.18 5.91.86 1.58 1.67 3.65 3.66 4.01 1.85.33 3.41-1.17 4.71-2.26 1.49-1.24 2.81-2.68 4.03-4.18 2.52-3.08 4.7-6.43 6.95-9.71l7.77-11.34c1.37-2-1.89-3.89-3.25-1.9-4.19 6.12-8.25 12.37-12.64 18.35-1.84 2.51-3.93 5-6.43 6.89-.2.15-.41.3-.63.44l.32.14c-.14-.1-.31-.48-.38-.61-.48-.83-.92-1.68-1.39-2.52-.93-1.68-1.87-3.35-2.8-5.03-.72-1.29-2.34-1.03-3.11 0-1.48 1.98-2.98 3.95-4.47 5.93l-1.19 1.58c-.15.2-1.21 1.23-.59 1.31-.31-.04-.81-.93-.97-1.15-.33-.44-.66-.89-.99-1.34-2.86-3.9-5.54-7.93-8.41-11.82-1.05-1.43-3.31-.21-2.43 1.42Zm-17.65-10.22c-.62 7.05-.29 14.05 1.14 20.98.69 3.36 1.62 6.68 2.76 9.92.6 1.7 1.28 3.37 2 5.03.69 1.58 1.38 3.36 2.63 4.6 1.18 1.16 2.8-.06 2.57-1.5-.26-1.65-1.23-3.25-1.9-4.78s-1.23-3.02-1.78-4.55a74 74 0 0 1-2.73-9.69c-1.38-6.54-1.96-13.33-1.63-20 .1-2-2.91-1.95-3.08 0Zm75.13.82c-.59 6.58-1.14 13.11-2.48 19.6-.66 3.19-1.47 6.35-2.42 9.47-.48 1.56-.99 3.1-1.54 4.64-.54 1.5-1.59 3.25-1.55 4.85.04 1.48 1.84 2.25 2.92 1.21 1.16-1.12 1.59-3.12 2.13-4.61.58-1.6 1.12-3.22 1.63-4.85 1-3.26 1.85-6.57 2.53-9.92 1.35-6.64 2.21-13.6 1.74-20.38-.13-1.91-2.78-1.89-2.95 0Zm-95.13 25.45c-.27 2.34-.46 4.67-.53 7.02-.03 1.13-.06 2.26-.06 3.39 0 .61.01 1.22.03 1.82.02.83.06 1.49.66 2.15.52.58 1.7.64 2.21 0 .57-.71.62-1.29.6-2.15-.01-.61-.02-1.22-.02-1.82-.02-1.13-.03-2.26-.02-3.39.02-2.34.04-4.68.12-7.02.03-.81-.7-1.49-1.49-1.49-.88 0-1.4.69-1.49 1.49Zm110.27 1.1c0 2.3-.1 4.6-.26 6.89-.08 1.13-.18 2.25-.3 3.37s-.36 2.33-.37 3.49l2.13-1.62c-.3-.11-.58-.23-.89-.28-1.44-.25-2.56 1.36-1.47 2.52.31.33.7.57 1.06.84.91.66 2.19-.06 2.47-1.01.35-1.17.43-2.46.55-3.67s.21-2.33.27-3.5c.12-2.34.08-4.69-.05-7.03-.11-2-3.14-2.04-3.14 0m-51.04 1.11v-.25c0-.22-.04-.43-.14-.62-.06-.2-.18-.37-.33-.52-.15-.16-.32-.27-.52-.33-.19-.1-.4-.15-.62-.14l-.43.06c-.27.08-.51.21-.71.41l-.25.33c-.15.25-.22.52-.22.81v.25c0 .22.04.43.14.62.07.2.18.37.33.52.15.16.32.27.52.33.19.1.4.15.62.14l.43-.06c.27-.08.51-.22.71-.42l.25-.33c.15-.25.22-.52.22-.82Zm0 7.74v-.25c0-.22-.04-.43-.14-.62-.06-.2-.18-.37-.33-.52-.15-.16-.32-.27-.52-.33-.19-.1-.4-.15-.62-.14l-.43.06c-.27.08-.51.21-.71.41l-.25.33c-.15.25-.22.52-.22.81v.25c0 .22.04.43.14.62.07.2.18.37.33.52.15.16.32.27.52.33.19.1.4.15.62.14l.43-.06c.27-.08.51-.22.71-.42l.25-.33c.15-.25.22-.52.22-.82Z"/></svg>