<?xml version="1.0" encoding="UTF-8"?><svg xmlns="http://www.w3.org/2000/svg" viewBox="0 0 180 180"><path d="M62.89 59.44c-.11 4.97-.53 9.96-.72 14.93-.18 4.81-.54 9.7-.11 14.51.75 8.28 4.65 15.72 11.62 20.43 1.72 1.16 3.56 2.17 5.5 2.91s3.97 1.81 6.1 2.01c1.3.12 1.59-1.71.63-2.31-1.45-.92-3.16-1.39-4.63-2.31s-2.81-1.94-4.1-3.01c-2.61-2.17-5.06-4.65-6.87-7.53-4.46-7.1-3.62-15.66-3.77-23.69l-.15-7.72c-.05-2.74-.3-5.48-.31-8.21 0-2.04-3.13-2.04-3.17 0Z"/><path d="M63.62 64.85c-1.91-1.5-4.38-1.8-6.55-.66-1.85.98-3.12 2.82-3.94 4.69-1.91 4.32-2.81 10.14-.45 14.46 1.68 3.06 5.21 5.24 8.46 6.27.85.27 1.82-.25 2.15-1.05.37-.91 0-1.71-.74-2.27-2.39-1.82-5.68-2.72-6.74-5.86-.43-1.28-.52-2.63-.45-3.97.05-1.09.11-1.46.34-2.53s.51-2.08.91-3.08c.11-.28.33-.75.56-1.16.14-.25.3-.5.45-.74 0 0 .36-.49.19-.27.28-.36.61-.72.98-1-.25.19.34-.19.4-.23.37-.2-.13.01.24-.1.99-.3 1.56-.15 2.7.05 1.31.23 2.81-1.5 1.48-2.55Zm15.19 59.74c.28-4.98.33-9.97.35-14.96.01-2.41-3.76-2.42-3.75 0 .02 4.99.07 9.98.35 14.96.11 1.96 2.94 1.96 3.05 0"/><path d="M74.31 121.63c-3.27.78-6.59 1.36-9.86 2.12s-6.21 1.53-9.29 2.39c-6.14 1.71-12.33 3.59-18.22 6.04-2.74 1.14-5.33 2.49-7.55 4.5-1.99 1.8-3.57 4.08-4.82 6.44-2.14 4.05-3.75 8.38-4.63 12.87-.49 2.49-.9 5-1.37 7.5-.37 1.98-.59 4.03-1.08 5.99-.52 2.09 2.58 3.59 3.6 1.52 1.75-3.54 2.3-7.49 3.09-11.32s1.82-7.79 3.48-11.53c.99-2.24 2.14-4.52 3.75-6.4 1.73-2.01 3.88-3.41 6.26-4.54 5.44-2.58 11.38-4.27 17.1-6.11 3.35-1.08 6.72-2.09 10.08-3.11s6.86-2.21 10.33-3.11c2.09-.54 1.21-3.74-.89-3.24ZM60.13 76.68c.14.04.27.09.4.15l-.29-.12c.38.16.74.38 1.07.63l-.25-.19c.3.24.57.52.81.82l-.2-.26c.26.34.48.71.65 1.11l-.13-.32c.06.14.11.27.17.41l-.13-.32c.11.27.2.54.34.8.14.27.49.54.78.6s.58.05.85-.07c.25-.11.5-.29.63-.54l.13-.31c.06-.23.06-.47 0-.7-.05-.3-.19-.59-.33-.86-.09-.19-.2-.36-.32-.53-.28-.41-.6-.81-.97-1.14a6.6 6.6 0 0 0-2.58-1.49c-.61-.18-1.35.22-1.49.85-.15.66.2 1.28.85 1.49Zm53.81-17.24c-.01 4.64-.33 9.3-.42 13.94s.01 9.13-.27 13.67c-.24 3.76-.98 7.42-2.8 10.75-1.65 3.02-3.97 5.51-6.5 7.82-1.39 1.27-2.91 2.36-4.44 3.45-1.68 1.2-3.67 1.75-5.4 2.84-.96.61-.67 2.43.63 2.31 1.85-.17 3.52-1.02 5.24-1.69s3.48-1.43 5.11-2.43c3.36-2.05 6.19-4.75 8.42-7.99 5.24-7.64 4.75-16.91 4.42-25.76l-.31-8.21c-.11-2.91-.42-5.81-.48-8.71-.04-2.04-3.17-2.05-3.17 0Z"/><path d="M117.87 67.4c1.11-.2 1.66-.34 2.61-.07.39.11.06-.02.33.13.06.03.65.41.4.23.37.28.69.64.98 1s.99 1.65 1.2 2.17c.4.99.69 2.03.91 3.08s.28 1.44.34 2.53c.07 1.34-.03 2.69-.45 3.97-1.04 3.14-4.35 4.04-6.74 5.86-.72.55-1.14 1.37-.74 2.27.35.8 1.27 1.33 2.15 1.05 2.9-.92 5.87-2.72 7.73-5.17s2.29-5.46 2.07-8.36c-.32-4.07-1.58-8.98-5.07-11.48-2.21-1.59-5.08-1.42-7.2.25-1.33 1.04.17 2.78 1.48 2.55Zm-13.63 57.19c.28-4.98.33-9.97.35-14.96.01-2.41-3.76-2.42-3.75 0 .02 4.99.07 9.98.35 14.96.11 1.96 2.94 1.96 3.05 0"/><path d="M104.8 124.87c6.09 1.58 12.12 3.62 18.13 5.5 5.93 1.86 11.88 3.75 17.64 6.07 2.37.96 4.77 2.14 6.65 3.89 1.83 1.7 3.15 3.79 4.26 6 1.88 3.75 3.11 7.64 3.99 11.73.93 4.33 1.45 8.91 3.43 12.92 1.01 2.05 4.13.59 3.6-1.52-.44-1.75-.62-3.59-.96-5.36-.42-2.18-.79-4.37-1.19-6.55-.82-4.46-2.13-8.54-4.05-12.67-2.39-5.15-5.92-9.32-11.11-11.78-5.71-2.71-11.98-4.58-18.05-6.32-3.53-1.02-7.08-1.98-10.66-2.82-3.58-.85-7.22-1.49-10.8-2.34-2.1-.5-2.99 2.69-.89 3.24Zm14.43-50.52c-.97.29-1.83.81-2.58 1.49-.37.34-.69.73-.97 1.14-.12.17-.23.35-.32.53-.13.27-.28.56-.33.86-.05.35-.07.7.13 1.01.16.24.36.42.63.54.57.24 1.34.05 1.64-.54.13-.26.22-.53.34-.8l-.13.32c.06-.13.11-.27.17-.41l-.13.32c.17-.4.39-.77.65-1.11l-.2.26c.24-.3.5-.58.81-.82l-.25.19c.33-.25.69-.46 1.07-.63l-.29.12c.13-.06.27-.11.4-.15.3-.1.56-.28.72-.56.15-.26.22-.64.12-.93-.2-.61-.84-1.04-1.49-.85Zm-31.49-5.57c-.44 3.84-.46 7.71-.41 11.57.04 3.86.07 7.77.64 11.59.3 2 3.47 1.47 3.47-.47 0-3.78-.38-7.56-.47-11.34s-.01-7.57-.13-11.35c-.06-2.03-2.87-1.94-3.09 0Zm-4.19 29.44c1.78 1.62 3.91 2.51 6.3 2.72 2.24.2 5.28-.43 6.66-2.36.36-.5.24-1.3-.12-1.75-.41-.52-1.02-.7-1.66-.57-.27.06-.52.16-.77.26l-.42.18c-.19.09.24-.09-.07.03-.41.14-.8.31-1.22.42-.22.06-.44.11-.67.16-.1.02-.2.03-.3.05.38-.08.03 0-.06 0-.45.05-.92.07-1.38.06-.2 0-.41-.01-.61-.03-.13 0-.25-.02-.38-.04.17.02.16.03 0 0-.45-.08-.9-.18-1.33-.33-.22-.07-.43-.15-.64-.23-.24-.09.2.09-.04-.01-.09-.04-.19-.08-.28-.13-.44-.21-.84-.47-1.22-.77-.58-.44-1.51-.15-1.9.38-.42.56-.44 1.44.12 1.94Zm.42-22.94v-.14c0-.21-.04-.4-.14-.58-.06-.19-.17-.35-.31-.49-.14-.15-.3-.25-.49-.31-.18-.09-.38-.14-.58-.13l-.4.05c-.26.07-.48.2-.67.39l-.24.31c-.14.24-.21.49-.21.76v.14c-.02.21.03.41.12.59.06.19.17.35.31.49.14.15.3.25.49.31.18.1.38.14.59.13l.4-.05c.26-.07.48-.2.67-.39l.24-.31c.14-.24.21-.49.21-.77Zm14.24 0v-.14c0-.21-.04-.4-.14-.58-.06-.19-.17-.35-.31-.49-.14-.15-.3-.25-.49-.31-.18-.09-.38-.14-.58-.13l-.4.05c-.26.07-.48.2-.67.39l-.24.31c-.14.24-.21.49-.21.76v.14c-.02.21.03.41.12.59.06.19.17.35.31.49.14.15.3.25.49.31.18.1.38.14.59.13l.4-.05c.26-.07.48-.2.67-.39l.24-.31c.14-.24.21-.49.21-.77Zm-21.54-8.46c.76-.27 1.54-.49 2.33-.66.4-.09.79-.15 1.19-.22.22-.03.23-.03.04 0l.26-.03.6-.06c.81-.07 1.61-.07 2.42-.05.86.02 1.87.25 2.69-.08.63-.26 1.1-.67 1.19-1.38s-.25-1.24-.79-1.66c-.81-.62-2.09-.6-3.08-.61-.84-.01-1.68.05-2.51.16-1.81.23-3.55.63-5.25 1.31-.83.33-1.5 1.16-1.19 2.1.27.83 1.2 1.51 2.1 1.19Zm30.25-4.15a17.1 17.1 0 0 0-6.21-2.02c-1-.13-2-.18-3.01-.19-1.35 0-2.82-.15-3.89.82-.99.89-.56 2.33.39 3.01s2.31.36 3.41.3c.94-.05 1.88-.09 2.83-.07 1.82.03 3.32.13 4.85.95.77.41 1.76.2 2.21-.58s.19-1.79-.58-2.21Z"/><path d="M64.64 61.08c5.73-1.84 10.04-7.44 10.35-13.45 9.51 1.22 19.3 2.42 28.58 0 .94 2.73 2.59 5.22 4.74 7.15 2.27 2.04 5.24 3.7 6.12 6.62.39 1.29.61 3.04 1.93 3.3.74-3.93 4.22-14.19 3.2-18.06-.07-.27-3.78 5.61-3.71 5.34.12-.49.63-.76 1.09-.98 4.12-2 7.65-5.18 10.07-9.07 1.51-2.43 2.42-5.99.26-7.86-.79-.68-1.84-.97-2.85-1.22-13.57-3.3-28.14-2.32-41.14 2.77-2.76 1.08-5.5 2.38-7.68 4.39-3.49-1.66-7.66-1.21-11.29.13-1.57.58-3.15 1.37-4.13 2.73-1.22 1.7-1.28 3.94-1.22 6.03.15 5.17 2.55 11.96 3.6 17.02"/><path d="M65.07 62.64c6.79-1.97 11.32-8.09 12-15.01l-2.64 2.01c9.73 1.57 20.03 2.51 29.69.02-.86-.49-1.72-.98-2.58-1.46.79 2.18 1.87 4.15 3.32 5.95 1.33 1.66 2.98 2.92 4.61 4.26 1.36 1.11 2.6 2.25 3.1 3.98.53 1.88 1.17 3.7 3.24 4.3 1 .29 2.3-.35 2.52-1.43.65-3.32 1.71-6.55 2.46-9.85.42-1.83.77-3.68.95-5.55.12-1.27.39-3.78-.73-4.68-.79-.64-1.61-.76-2.52-.33-1.03.48-1.78 2.12-2.38 3.02-.41.61-.81 1.22-1.21 1.83-.17.25-.33.5-.5.75-.35.5-.66.56.39-.25 1.03.42 2.05.84 3.08 1.25l-.21 1.61c.09-.22.8-.45 1.06-.59.54-.28 1.06-.58 1.57-.9 1.18-.74 2.3-1.58 3.35-2.48a26.3 26.3 0 0 0 5.09-5.89c1.27-2.01 2.19-4.47 1.92-6.88-.32-2.82-2.26-4.6-4.89-5.4-5.39-1.64-11.35-2.19-16.96-2.25-5.82-.06-11.69.6-17.35 1.97-6.06 1.46-12.78 3.51-17.5 7.76l2.81-.36c-3.79-1.68-7.9-1.66-11.84-.48-3.77 1.13-7.27 3.24-8.01 7.41-.64 3.61-.03 7.36.76 10.9.8 3.59 1.83 7.12 2.86 10.65.32 1.09 1.48 1.77 2.59 1.47 1.21-.33 1.62-1.46 1.47-2.59-.8-5.88-3.36-11.45-3.35-17.45 0-1.22.04-2.6.75-3.65.74-1.09 2.13-1.65 3.34-2.07 2.89-1 6.23-1.49 9.11-.18 1 .45 1.98.38 2.81-.36 3.63-3.26 8.88-4.79 13.49-6.05a67.3 67.3 0 0 1 15.38-2.34c5.2-.18 10.42.22 15.51 1.26 1.51.31 4.51.38 4.76 2.35.23 1.85-.98 3.73-1.98 5.16a21.8 21.8 0 0 1-5.38 5.32c-1.85 1.28-5.71 2.31-5.18 5.19.32 1.73 2.39 1.79 3.5.93.8-.62 1.38-1.98 1.93-2.8.4-.61.8-1.22 1.21-1.82.17-.24.34-.48.5-.72.18-.26-.04.09-.11.14.31-.2-.15.12-.27.17l-2.52-.33h.01c-.18-.3-.36-.6-.54-.91.09.37.12.65.11 1.35 0 .71-.07 1.43-.16 2.14-.22 1.59-.58 3.17-.95 4.73-.69 2.92-1.6 5.79-2.16 8.74.84-.48 1.68-.95 2.52-1.43.32.09.11.35 0-.11-.07-.3-.19-.59-.27-.89-.22-.8-.45-1.58-.83-2.33-.79-1.56-2.09-2.81-3.42-3.92-2.92-2.42-5.49-4.73-6.8-8.42-.39-1.09-1.41-1.75-2.58-1.46-9.29 2.32-18.66.82-28.02-.07-1.15-.11-2.05 1.04-2.08 2.08-.16 5.2-3.88 10.05-8.7 11.88-1.91.73-1.18 3.73.86 3.13Z"/><path d="M59.39 38.56c.06-5.05 2.45-9.7 5.98-13.22 3.9-3.89 8.85-6.13 14.1-7.62 9.91-2.82 21.79-2.31 29.48 5.31 3.74 3.7 5.91 8.43 7.69 13.3.93 2.55 4.89 1.56 4.13-1.14-2.93-10.4-10.26-19.34-20.93-22.21-6.46-1.73-13.36-1.47-19.82.13-5.98 1.48-11.88 4.1-16.39 8.36s-7.76 10.6-7.4 17.08c.11 2.02 3.15 2.06 3.17 0Zm-5.09 2.61c-3.97.59-7.88 1.42-11.74 2.52-3.56 1.01-7.96 1.94-9.41 5.82-1.34 3.59 1.47 6.97 4.16 9.02s6.02 3.27 9.33 3.98c2.17.46 4.39.75 6.61.86 2.27.11 4.87.13 7.07-.5 2.5-.72 1.97-4.4-.61-4.48-2.15-.07-4.3.22-6.47.12-1.95-.09-3.87-.36-5.77-.79-3.16-.72-6.38-1.89-8.64-4.32-.75-.8-1.68-1.79-.84-2.81 1.12-1.36 3.5-1.84 5.07-2.38 4-1.38 8.05-2.62 12.13-3.75 2.17-.6 1.21-3.6-.91-3.28Zm7.59 86.16c2.41 3.18 5.75 5.09 9.4 6.55 3.57 1.42 7.3 2.33 11.11 2.83 7.56.99 15.42.12 22.59-2.44 4.11-1.47 8-3.46 11.55-6 1.88-1.34.07-4.49-1.83-3.13-11.48 8.21-26.65 10.56-40.1 6.26-3.76-1.2-7.81-2.78-10.45-5.84-1.06-1.23-3.28.44-2.28 1.76Z"/><path d="M52.67 129.63c5.4 8.18 15.81 11.3 25.51 12.7 7.74 1.12 15.66 1.52 23.36.16s15.21-4.57 20.87-9.97c.65-.61 1.33-1.29 2.21-1.43.56-.09 1.13.05 1.68.2 2.41.62 4.82 1.25 7.24 1.87 3.87 1 7.84 2.04 11.1 4.35 4.98 3.52 7.61 9.48 9.31 15.34 1.7 5.85 2.74 11.98 5.58 17.38-15.83.45-31.66.7-47.49.74-7.98.02-15.96 0-23.94-.04-6.78-.03-13.57-.05-20.35-.08-15.36-.06-30.73-.12-46.06-1.17l5.37-19.55c.64-2.35 1.31-4.75 2.73-6.73 2.27-3.19 6.09-4.82 9.74-6.24 4.13-1.61 8.29-3.16 12.48-4.63"/><path d="M51.42 130.35c4.38 6.74 11.79 10.28 19.37 12.21 9.12 2.32 19.04 3.19 28.39 2 8.85-1.13 17.58-4.39 24.24-10.46.73-.66 1.14-1.29 2.17-1.03 1.36.35 2.7.74 4.05 1.1 2.37.63 4.76 1.21 7.1 1.92 4.15 1.25 7.87 3.2 10.47 6.77 6.06 8.32 5.9 19.38 10.53 28.39.59-1.03 1.19-2.07 1.78-3.1-17.9.49-35.81.64-53.72.62-17.97-.02-35.95-.06-53.92-.28-10.07-.13-20.15-.39-30.2-1.07l2.17 2.85 3.66-13.35c.6-2.2 1.2-4.41 1.81-6.61.5-1.82 1.02-3.64 2.03-5.25 1.83-2.92 5.31-4.39 8.39-5.6 4.25-1.68 8.54-3.26 12.84-4.78 2.7-.95 1.54-5.29-1.19-4.32-4.55 1.61-9.1 3.25-13.58 5.06-3.75 1.52-7.43 3.33-9.87 6.68-2.61 3.59-3.36 8.48-4.51 12.67-1.31 4.77-2.62 9.54-3.93 14.3-.41 1.49.73 2.75 2.17 2.85 17.89 1.22 35.83 1.12 53.75 1.17 17.97.05 35.94.14 53.91-.14 10.06-.15 20.12-.38 30.17-.68 1.61-.05 2.5-1.7 1.78-3.1-4.2-8.13-4.48-17.68-8.95-25.73-2.08-3.76-5.05-7.02-8.9-9-4.28-2.2-9.11-3.15-13.74-4.31-2.31-.58-4.86-1.61-7.07-.23-.86.53-1.55 1.33-2.29 2.01a31 31 0 0 1-2.66 2.17c-3.57 2.57-7.57 4.43-11.79 5.64-9.41 2.7-19.53 2.26-29.11.72-8.45-1.35-17.74-4.17-22.88-11.54-1.05-1.51-3.52-.12-2.5 1.46Z"/></svg>