<?xml version="1.0" encoding="UTF-8"?><svg xmlns="http://www.w3.org/2000/svg" viewBox="0 0 180 180"><path d="M62.89 59.44c-.11 4.97-.53 9.96-.72 14.93-.18 4.81-.54 9.7-.11 14.51.75 8.28 4.65 15.72 11.62 20.43 1.72 1.16 3.56 2.17 5.5 2.91s3.97 1.81 6.1 2.01c1.3.12 1.59-1.71.63-2.31-1.45-.92-3.16-1.39-4.63-2.31s-2.81-1.94-4.1-3.01c-2.61-2.17-5.06-4.65-6.87-7.53-4.46-7.1-3.62-15.66-3.77-23.69l-.15-7.72c-.05-2.74-.3-5.48-.31-8.21 0-2.04-3.13-2.04-3.17 0Z"/><path d="M63.62 64.85c-1.91-1.5-4.38-1.8-6.55-.66-1.85.98-3.12 2.82-3.94 4.69-1.91 4.32-2.81 10.14-.45 14.46 1.68 3.06 5.21 5.24 8.46 6.27.85.27 1.82-.25 2.15-1.05.37-.91 0-1.71-.74-2.27-2.39-1.82-5.68-2.72-6.74-5.86-.43-1.28-.52-2.63-.45-3.97.05-1.09.11-1.46.34-2.53s.51-2.08.91-3.08c.11-.28.33-.75.56-1.16.14-.25.3-.5.45-.74 0 0 .36-.49.19-.27.28-.36.61-.72.98-1-.25.19.34-.19.4-.23.37-.2-.13.01.24-.1.99-.3 1.56-.15 2.7.05 1.31.23 2.81-1.5 1.48-2.55Zm14.19 58.74c.28-4.98.33-9.97.35-14.96.01-2.41-3.76-2.42-3.75 0 .02 4.99.07 9.98.35 14.96.11 1.96 2.94 1.96 3.05 0"/><path d="M74.31 121.63c-3.27.78-6.59 1.36-9.86 2.12s-6.21 1.53-9.29 2.39c-6.14 1.71-12.33 3.59-18.22 6.04-2.74 1.14-5.33 2.49-7.55 4.5-1.99 1.8-3.57 4.08-4.82 6.44-2.14 4.05-3.75 8.38-4.63 12.87-.49 2.49-.9 5-1.37 7.5-.37 1.98-.59 4.03-1.08 5.99-.52 2.09 2.58 3.59 3.6 1.52 1.75-3.54 2.3-7.49 3.09-11.32s1.82-7.79 3.48-11.53c.99-2.24 2.14-4.52 3.75-6.4 1.73-2.01 3.88-3.41 6.26-4.54 5.44-2.58 11.38-4.27 17.1-6.11 3.35-1.08 6.72-2.09 10.08-3.11s6.86-2.21 10.33-3.11c2.09-.54 1.21-3.74-.89-3.24ZM60.13 76.68c.14.04.27.09.4.15l-.29-.12c.38.16.74.38 1.07.63l-.25-.19c.3.24.57.52.81.82l-.2-.26c.26.34.48.71.65 1.11l-.13-.32c.06.14.11.27.17.41l-.13-.32c.11.27.2.54.34.8.14.27.49.54.78.6s.58.05.85-.07c.25-.11.5-.29.63-.54l.13-.31c.06-.23.06-.47 0-.7-.05-.3-.19-.59-.33-.86-.09-.19-.2-.36-.32-.53-.28-.41-.6-.81-.97-1.14a6.6 6.6 0 0 0-2.58-1.49c-.61-.18-1.35.22-1.49.85-.15.66.2 1.28.85 1.49Zm53.81-17.24c-.01 4.64-.33 9.3-.42 13.94s.01 9.13-.27 13.67c-.24 3.76-.98 7.42-2.8 10.75-1.65 3.02-3.97 5.51-6.5 7.82-1.39 1.27-2.91 2.36-4.44 3.45-1.68 1.2-3.67 1.75-5.4 2.84-.96.61-.67 2.43.63 2.31 1.85-.17 3.52-1.02 5.24-1.69s3.48-1.43 5.11-2.43c3.36-2.05 6.19-4.75 8.42-7.99 5.24-7.64 4.75-16.91 4.42-25.76l-.31-8.21c-.11-2.91-.42-5.81-.48-8.71-.04-2.04-3.17-2.05-3.17 0Z"/><path d="M117.87 67.4c1.11-.2 1.66-.34 2.61-.07.39.11.06-.02.33.13.06.03.65.41.4.23.37.28.69.64.98 1s.99 1.65 1.2 2.17c.4.99.69 2.03.91 3.08s.28 1.44.34 2.53c.07 1.34-.03 2.69-.45 3.97-1.04 3.14-4.35 4.04-6.74 5.86-.72.55-1.14 1.37-.74 2.27.35.8 1.27 1.33 2.15 1.05 2.9-.92 5.87-2.72 7.73-5.17s2.29-5.46 2.07-8.36c-.32-4.07-1.58-8.98-5.07-11.48-2.21-1.59-5.08-1.42-7.2.25-1.33 1.04.17 2.78 1.48 2.55Zm-12.63 56.19c.28-4.98.33-9.97.35-14.96.01-2.41-3.76-2.42-3.75 0 .02 4.99.07 9.98.35 14.96.11 1.96 2.94 1.96 3.05 0"/><path d="M104.8 124.87c6.09 1.58 12.12 3.62 18.13 5.5 5.93 1.86 11.88 3.75 17.64 6.07 2.37.96 4.77 2.14 6.65 3.89 1.83 1.7 3.15 3.79 4.26 6 1.88 3.75 3.11 7.64 3.99 11.73.93 4.33 1.45 8.91 3.43 12.92 1.01 2.05 4.13.59 3.6-1.52-.44-1.75-.62-3.59-.96-5.36-.42-2.18-.79-4.37-1.19-6.55-.82-4.46-2.13-8.54-4.05-12.67-2.39-5.15-5.92-9.32-11.11-11.78-5.71-2.71-11.98-4.58-18.05-6.32-3.53-1.02-7.08-1.98-10.66-2.82-3.58-.85-7.22-1.49-10.8-2.34-2.1-.5-2.99 2.69-.89 3.24Zm14.43-50.52c-.97.29-1.83.81-2.58 1.49-.37.34-.69.73-.97 1.14-.12.17-.23.35-.32.53-.13.27-.28.56-.33.86-.05.35-.07.7.13 1.01.16.24.36.42.63.54.57.24 1.34.05 1.64-.54.13-.26.22-.53.34-.8l-.13.32c.06-.13.11-.27.17-.41l-.13.32c.17-.4.39-.77.65-1.11l-.2.26c.24-.3.5-.58.81-.82l-.25.19c.33-.25.69-.46 1.07-.63l-.29.12c.13-.06.27-.11.4-.15.3-.1.56-.28.72-.56.15-.26.22-.64.12-.93-.2-.61-.84-1.04-1.49-.85ZM76.4 45.96c1.93.87 2.85 3.32 3.33 5.23.63 2.45.69 5 1.11 7.49.71 4.16 3.48 9.89 8.5 9.64 1.93-.1 2.19-2.61.44-3.27-4.56-1.71-5.2-6.25-5.77-10.55-.31-2.35-.71-4.65-1.7-6.82-.89-1.96-2.53-4.05-4.69-4.64-1.68-.46-2.92 2.15-1.23 2.91Zm13.51 6.46c-.05 3.76 1.19 7.55 3.45 10.56 1.18 1.57 2.54 2.92 4.13 4.08.71.51 1.46.97 2.25 1.36.9.44 2.1 1.11 3.13 1 .66-.07 1.24-.36 1.5-1.01.23-.57.17-1.37-.34-1.79-.72-.6-1.63-.81-2.42-1.18-.73-.35-1.42-.75-2.08-1.2-1.21-.83-2.34-1.92-3.24-3.09-1.94-2.51-3.08-5.57-3.1-8.73-.01-2.1-3.24-2.1-3.27 0Zm14.29 9.92c2.62.68 5.31.8 7.97.29 1.33-.26 2.59-.75 3.8-1.35s2.5-1.36 3.4-2.35c.67-.73.79-1.82.16-2.62-.59-.74-1.72-1.06-2.57-.51-.33.21-.63.44-.93.68.2-.15-.38.28-.44.32-.47.32-.95.62-1.45.89-1.01.55-1.7.82-2.87 1.21-2.05.68-4.16 1.02-6.31.71-.75-.11-1.52.19-1.74.99-.2.73.25 1.55.99 1.74ZM71.38 49s-.19.45-.08.21c-.05.12-.1.24-.16.36-.12.26-.25.52-.39.77a19 19 0 0 1-1.3 2.06c-.08.11-.16.21-.23.32.22-.29-.09.11-.11.14-.34.43-.7.84-1.07 1.25s-.76.79-1.17 1.16c-.19.18-.39.35-.59.52-.12.1-.24.2-.37.3-.35.29.38-.29-.18.14-.1.07-.5.37-.18.14-.13.09-.25.19-.38.28-.21.15-.43.3-.65.44s-.44.28-.67.42c-.13.08-.28.15-.41.24l-.4.31c-.35.45-.41.53-.19.24-.48.59-.69 1.27-.38 2.01.26.6.97 1.22 1.68 1.13.56-.07 1.05-.16 1.54-.45.25-.15.49-.3.73-.46.6-.4 1.17-.83 1.73-1.28.94-.75 1.78-1.64 2.54-2.57 1.66-2.03 2.84-4.35 3.67-6.83.25-.77-.29-1.72-1.08-1.9-.89-.2-1.58.27-1.9 1.08Z"/><path d="M59.97 63.45c.02-4.94.03-10.51 2.34-15.01 1.81-3.52 5.12-6.62 9.29-6.6.93 0 1.64-.63 1.93-1.47 1.13-3.25 5.11-4.48 8.13-5.13 4.32-.93 8.88-.86 13.21-.07 4.27.78 8.42 2.21 12.33 4.08 1.88.89 3.71 1.88 5.5 2.92 1.92 1.12 3.76 2.55 5.87 3.25 1.86.61 2.91-1.78 1.79-3.07-1.23-1.4-2.98-2.32-4.56-3.27s-3.35-1.92-5.08-2.78c-3.35-1.67-6.84-3.11-10.44-4.12-7.23-2.04-15.62-2.63-22.79.02-3.49 1.29-6.58 3.46-7.82 7.11.64-.49 1.29-.98 1.93-1.47-5.24.01-9.81 3.52-12.2 8.04-2.87 5.43-2.63 11.61-2.42 17.56.07 1.92 2.99 1.94 3 0Zm65.04-13.97c2.82 2.1 5.15 4.77 7.05 7.72 1.72 2.67 3.43 5.82 3.4 9.09 0 1.35-.41 2.46-1.31 3.47-1.34 1.5-2.05 3.28-1.01 5.2.8 1.48 2.07 2.66 2.86 4.18s1.27 3.06 1.54 4.68c1.08 6.41-2.4 12.77-8.06 15.77-2.69 1.42-5.74 2.56-7.39 5.3-.98 1.63-.96 3.38-1.11 5.22-.07.84-.46 1.96-.98 2.87-1.49 2.59-3.98 4.53-6.57 5.93-1.39.75-2.84 1.32-4.37 1.69s-2.87.37-4.35.72c-.85.2-1.47 1.08-1.47 1.94 0 .96.64 1.6 1.47 1.94 2.86 1.17 6.58-.19 9.26-1.35 2.93-1.27 5.71-3.14 7.88-5.51 2.11-2.31 3.63-5.07 3.85-8.22.12-1.64.06-2.82 1.42-3.93 1.16-.94 2.61-1.55 3.93-2.23 6.63-3.39 11.1-10.06 11.2-17.58.05-3.8-1.04-7.69-3.08-10.9-.5-.78-1.07-1.74-1.76-2.36-.54-.49.06.1-.19.11.17 0 .55-.58.65-.71 1.24-1.49 1.87-3.23 2.05-5.15.38-4.12-1.6-8.23-3.83-11.56-2.46-3.69-5.72-6.74-9.37-9.24-1.83-1.25-3.43 1.65-1.71 2.93Z"/><path d="M58.14 62.86c-2.8-5.12-2.57-11.29-2.27-17.12.14-2.77.33-5.67 1.82-8 .71-1.11 1.67-2.02 2.47-3.07 1.66-2.19 2.5-4.86 3.75-7.31 2.94-5.77 8.16-10.2 14.06-12.87s12.45-3.69 18.92-3.71c4.01-.01 8.19.39 11.63 2.47 5.34 3.23 7.78 10.55 5.42 16.33 3.65 2.58 5.75 7.2 5.3 11.65-8.79-7.29-20.32-11.17-31.72-10.68-3.06.13-6.13.57-8.97 1.69-2.41.94-4.61 2.35-6.79 3.75l-7.44 4.77c-2.05 1.31-4.14 2.67-5.62 4.6-1.14 1.49-1.86 3.3-2.07 5.16"/><path d="M59.5 62.06c-1.5-3.19-1.83-6.8-1.85-10.29-.01-3.27-.04-6.86.66-10.06.75-3.43 3.65-5.53 5.2-8.57 1.54-3.02 2.69-6.15 4.86-8.81 4.1-5.02 9.89-8.26 16.09-9.92 3.61-.96 7.33-1.42 11.06-1.51 3.39-.09 6.93-.01 10.12 1.25 5.79 2.3 8.49 9.13 6.26 14.85-.36.92.26 1.86.97 2.37 3.09 2.26 4.58 6.09 4.26 9.83 1.2-.5 2.39-.99 3.59-1.49-7.64-6.27-16.91-10.2-26.75-11.23-4.99-.53-10.39-.39-15.17 1.25-2.58.88-4.93 2.22-7.22 3.68s-4.79 3.04-7.15 4.61-4.48 3.01-6.23 5.11c-1.78 2.14-2.85 4.61-3.17 7.37-.21 1.78 2.88 2.21 3.15.43.32-2.18 1.19-4.05 2.89-5.49 1.6-1.36 3.62-2.34 5.4-3.44 2.16-1.33 4.28-2.72 6.42-4.09 2-1.28 4.03-2.63 6.25-3.52 4.19-1.68 8.93-1.84 13.38-1.56s8.58 1.21 12.64 2.69c4.56 1.65 8.84 4.1 12.59 7.18 1.45 1.19 3.43.4 3.59-1.49.45-5.31-2.1-10.36-6.34-13.46l.97 2.37c2.34-6 .3-13.47-4.71-17.5-6.23-5.02-15.6-4.41-23.05-3.29-7.66 1.16-15.12 4.27-20.73 9.72a28.2 28.2 0 0 0-6.14 8.8c-.79 1.78-1.5 3.61-2.59 5.23s-2.67 3.03-3.51 4.94c-1.7 3.89-1.54 8.7-1.49 12.87.05 4.46.74 8.85 3.04 12.74 1.05 1.78 3.58.22 2.73-1.59Zm8.16 63.74c.41 3.46 2.7 5.82 5.54 7.63 3.21 2.05 6.86 3.6 10.58 4.42 6.77 1.49 13.83.3 19.54-3.72 1.51-1.07 2.93-2.27 4.18-3.65s2.64-3.01 3.24-4.81c.56-1.67-1.83-3.1-3-1.75s-1.96 2.86-3.18 4.15a21 21 0 0 1-3.94 3.28c-2.92 1.87-6.31 3.08-9.78 3.3-4.13.26-8.2-.75-11.96-2.39-3.05-1.33-7.31-3.24-8-6.89-.34-1.78-3.42-1.4-3.21.43Zm-13.21 4.1 2.79 38.49c.02.25.03.52-.1.73-.2.32-.64.37-1.02.39-11.58.59-23.19.58-34.77-.03 2.55-10.79 5.55-22.33 13.97-29.53 4.85-4.15 11.02-6.4 17.12-8.31"/><path d="M52.88 129.9c-.16 3.28.17 6.59.37 9.87.2 3.21.41 6.42.61 9.62.2 3.21.43 6.42.65 9.62.12 1.64.23 3.29.35 4.93l.16 2.22c.05.64.32 1.78.13 2.4l.53-.91c.33-.34.6-.16-.06-.19-.4-.02-.84.04-1.24.06l-2.23.09c-1.41.05-2.81.1-4.22.13-2.98.06-5.96.07-8.95.05-5.88-.05-11.76-.24-17.64-.54.72.94 1.43 1.88 2.15 2.82 1.84-7.86 3.79-16.08 8.34-22.87 2.31-3.44 5.12-6.22 8.72-8.31 3.91-2.27 8.17-3.78 12.46-5.15 2.66-.85 1.53-5.04-1.16-4.2-7.18 2.24-14.13 4.99-19.6 10.34-4.92 4.82-7.91 11.18-10 17.67-1.2 3.73-2.15 7.53-3.06 11.34-.35 1.46.68 2.74 2.15 2.82 10.43.54 20.87.47 31.3.03 2.02-.09 5.34.39 6.38-1.83.5-1.07.21-2.36.13-3.49l-.29-3.95c-.39-5.18-.78-10.36-1.2-15.54-.47-5.78-.57-11.75-1.7-17.44-.36-1.81-3-1.28-3.08.42Zm73.9-.01a249.6 249.6 0 0 0-1.62 38.84c.01.35.04.74.3.98.23.22.58.24.89.26 10.67.52 21.38.39 32.04-.38-2.11-6.3-4.23-12.6-6.34-18.9-.87-2.58-1.74-5.19-3.19-7.49-4.32-6.87-12.72-9.75-20.47-12.16"/><path d="M125.22 129.46c-1.49 9.89-2.17 19.91-2.22 29.91-.01 2.54.02 5.09.08 7.63.03 1.1-.11 2.45.44 3.44.6 1.1 1.65 1.45 2.83 1.55 4.9.4 9.88.39 14.79.35 5.75-.04 11.51-.27 17.25-.68 1.27-.09 2.47-1.27 2.01-2.64l-5.07-15.12c-1.52-4.54-2.77-9.41-5.72-13.27-4.91-6.44-13.14-9.5-20.67-11.64-2.63-.75-3.67 3.2-1.12 4.07 6.63 2.24 14.26 4.31 18.61 10.27 2.67 3.67 3.76 8.39 5.19 12.63 1.59 4.72 3.17 9.45 4.76 14.17l2.01-2.64c-5.41.39-10.83.62-16.26.68-2.63.03-5.26.03-7.89-.01-1.4-.02-2.79-.05-4.19-.1-.66-.02-1.31-.04-1.97-.07-.33-.01-.66-.03-.99-.04-.18 0-.84-.15-.61-.01l.73.73c-.19-.29-.08-1.46-.1-1.93-.03-.82-.05-1.64-.07-2.46-.04-1.64-.05-3.28-.06-4.93 0-3.28.03-6.57.14-9.85.22-6.55.69-13.1 1.27-19.63.16-1.79-2.9-2.24-3.18-.43Zm-55 26.16c7.08-1.08 14.08-2.6 20.95-4.6 3.44-1 6.84-2.1 10.2-3.32 3.34-1.21 6.75-2.44 9.87-4.16 1.59-.88.52-3.56-1.25-2.97-3.39 1.12-6.66 2.59-10.01 3.81a162.5 162.5 0 0 1-30.69 7.88c-.94.15-1.44 1.31-1.22 2.14.26 1 1.22 1.36 2.14 1.22Zm8.48 13.89c4.94-1.78 9.89-3.5 14.87-5.15s10.03-3.09 15-4.79c2.04-.69 1.21-3.86-.9-3.25-5.04 1.44-10 3.27-14.94 4.99-4.96 1.73-9.9 3.52-14.82 5.35-1.76.66-1.01 3.5.79 2.85m8.67-98.28c-.16 2.72-.14 5.45-.06 8.18.04 1.36.09 2.73.13 4.09s-.05 2.91.4 4.21c.51 1.47 2.73 1.65 3.16 0 .36-1.35.17-2.83.11-4.21s-.12-2.83-.19-4.25c-.14-2.82-.36-5.61-.74-8.4-.09-.69-.95-1.12-1.57-1.02-.72.11-1.2.68-1.24 1.4m-2.42 26.59c1.89.37 3.8.43 5.71.2.99-.12 1.96-.29 2.93-.56 1.11-.31 2.31-.6 2.95-1.65.49-.8.03-1.94-.88-2.17-1.05-.26-1.91.2-2.89.49-.84.25-1.69.43-2.55.58-.06.01-.6.09-.36.06-.21.03-.42.05-.63.07-.42.04-.84.07-1.26.08-.87.02-1.75.01-2.61-.04-1.67-.1-2.07 2.62-.4 2.95Zm-4.44-21.7c2.37 0 2.38-3.69 0-3.69s-2.38 3.69 0 3.69m17.42 0c2.37 0 2.38-3.69 0-3.69s-2.38 3.69 0 3.69M75.06 65.5c-.32.25.13-.1.19-.14.14-.1.29-.2.44-.29.3-.19.6-.37.91-.53.16-.08.31-.16.47-.23.1-.05.46-.24.05-.03.31-.16.66-.26.99-.36.63-.2 1.27-.37 1.92-.49.09-.02.17-.03.26-.04.21-.03.17-.03-.11.01.11-.07.4-.04.52-.05.35-.03.7-.04 1.06-.03 1.01 0 1.97-.89 1.92-1.92s-.84-1.93-1.92-1.92c-1.75.01-3.47.35-5.08 1.05-1.46.63-2.8 1.55-3.95 2.66-.62.6-.65 1.73 0 2.32.72.66 1.6.57 2.32 0Z"/></svg>