<?xml version="1.0" encoding="UTF-8"?><svg xmlns="http://www.w3.org/2000/svg" viewBox="0 0 180 180"><path d="M62.89 59.44c-.11 4.97-.53 9.96-.72 14.93-.18 4.81-.54 9.7-.11 14.51.75 8.28 4.65 15.72 11.62 20.43 1.72 1.16 3.56 2.17 5.5 2.91s3.97 1.81 6.1 2.01c1.3.12 1.59-1.71.63-2.31-1.45-.92-3.16-1.39-4.63-2.31s-2.81-1.94-4.1-3.01c-2.61-2.17-5.06-4.65-6.87-7.53-4.46-7.1-3.62-15.66-3.77-23.69l-.15-7.72c-.05-2.74-.3-5.48-.31-8.21 0-2.04-3.13-2.04-3.17 0Z"/><path d="M63.62 64.85c-1.91-1.5-4.38-1.8-6.55-.66-1.85.98-3.12 2.82-3.94 4.69-1.91 4.32-2.81 10.14-.45 14.46 1.68 3.06 5.21 5.24 8.46 6.27.85.27 1.82-.25 2.15-1.05.37-.91 0-1.71-.74-2.27-2.39-1.82-5.68-2.72-6.74-5.86-.43-1.28-.52-2.63-.45-3.97.05-1.09.11-1.46.34-2.53s.51-2.08.91-3.08c.11-.28.33-.75.56-1.16.14-.25.3-.5.45-.74 0 0 .36-.49.19-.27.28-.36.61-.72.98-1-.25.19.34-.19.4-.23.37-.2-.13.01.24-.1.99-.3 1.56-.15 2.7.05 1.31.23 2.81-1.5 1.48-2.55Zm15.19 59.74c.28-4.98.33-9.97.35-14.96.01-2.41-3.76-2.42-3.75 0 .02 4.99.07 9.98.35 14.96.11 1.96 2.94 1.96 3.05 0"/><path d="M74.31 121.63c-3.27.78-6.59 1.36-9.86 2.12-3.12.73-6.21 1.53-9.29 2.39-6.14 1.71-12.33 3.59-18.22 6.04-2.74 1.14-5.33 2.49-7.55 4.5-1.99 1.8-3.57 4.08-4.82 6.44-2.14 4.05-3.75 8.38-4.63 12.87-.49 2.49-.9 5-1.37 7.5-.37 1.98-.59 4.03-1.08 5.99-.52 2.09 2.58 3.59 3.6 1.52 1.75-3.54 2.3-7.49 3.09-11.32.83-4 1.82-7.79 3.48-11.53.99-2.24 2.14-4.52 3.75-6.4 1.73-2.01 3.88-3.41 6.26-4.54 5.44-2.58 11.38-4.27 17.1-6.11 3.35-1.08 6.72-2.09 10.08-3.11s6.86-2.21 10.33-3.11c2.09-.54 1.21-3.74-.89-3.24ZM60.13 76.68c.14.04.27.09.4.15l-.29-.12c.38.16.74.38 1.07.63l-.25-.19c.3.24.57.52.81.82l-.2-.26c.26.34.48.71.65 1.11l-.13-.32c.06.14.11.27.17.41l-.13-.32c.11.27.2.54.34.8.14.27.49.54.78.6s.58.05.85-.07c.25-.11.5-.29.63-.54l.13-.31c.06-.23.06-.47 0-.7-.05-.3-.19-.59-.33-.86-.09-.19-.2-.36-.32-.53-.28-.41-.6-.81-.97-1.14a6.6 6.6 0 0 0-2.58-1.49c-.61-.18-1.35.22-1.49.85-.15.66.2 1.28.85 1.49Zm53.81-17.24c-.01 4.64-.33 9.3-.42 13.94s.01 9.13-.27 13.67c-.24 3.76-.98 7.42-2.8 10.75-1.65 3.02-3.97 5.51-6.5 7.82-1.39 1.27-2.91 2.36-4.44 3.45-1.68 1.2-3.67 1.75-5.4 2.84-.96.61-.67 2.43.63 2.31 1.85-.17 3.52-1.02 5.24-1.69s3.48-1.43 5.11-2.43c3.36-2.05 6.19-4.75 8.42-7.99 5.24-7.64 4.75-16.91 4.42-25.76l-.31-8.21c-.11-2.91-.42-5.81-.48-8.71-.04-2.04-3.17-2.05-3.17 0Z"/><path d="M117.87 67.4c1.11-.2 1.66-.34 2.61-.07.39.11.06-.02.33.13.06.03.65.41.4.23.37.28.69.64.98 1s.99 1.65 1.2 2.17c.4.99.69 2.03.91 3.08s.28 1.44.34 2.53c.07 1.34-.03 2.69-.45 3.97-1.04 3.14-4.35 4.04-6.74 5.86-.72.55-1.14 1.37-.74 2.27.35.8 1.27 1.33 2.15 1.05 2.9-.92 5.87-2.72 7.73-5.17 1.79-2.36 2.29-5.46 2.07-8.36-.32-4.07-1.58-8.98-5.07-11.48-2.21-1.59-5.08-1.42-7.2.25-1.33 1.04.17 2.78 1.48 2.55Zm-13.63 57.19c.28-4.98.33-9.97.35-14.96.01-2.41-3.76-2.42-3.75 0 .02 4.99.07 9.98.35 14.96.11 1.96 2.94 1.96 3.05 0"/><path d="M104.8 124.87c6.09 1.58 12.12 3.62 18.13 5.5s11.88 3.75 17.64 6.07c2.37.96 4.77 2.14 6.65 3.89s3.15 3.79 4.26 6c1.88 3.75 3.11 7.64 3.99 11.73.93 4.33 1.45 8.91 3.43 12.92 1.01 2.05 4.13.59 3.6-1.52-.44-1.75-.62-3.59-.96-5.36-.42-2.18-.79-4.37-1.19-6.55-.82-4.46-2.13-8.54-4.05-12.67-2.39-5.15-5.92-9.32-11.11-11.78-5.71-2.71-11.98-4.58-18.05-6.32-3.53-1.02-7.08-1.98-10.66-2.82s-7.22-1.49-10.8-2.34c-2.1-.5-2.99 2.69-.89 3.24Zm14.43-50.52c-.97.29-1.83.81-2.58 1.49-.37.34-.69.73-.97 1.14-.12.17-.23.35-.32.53-.13.27-.28.56-.33.86-.05.35-.07.7.13 1.01.16.24.36.42.63.54.57.24 1.34.05 1.64-.54.13-.26.22-.53.34-.8l-.13.32c.06-.13.11-.27.17-.41l-.13.32c.17-.4.39-.77.65-1.11l-.2.26c.24-.3.5-.58.81-.82l-.25.19c.33-.25.69-.46 1.07-.63l-.29.12c.13-.06.27-.11.4-.15.3-.1.56-.28.72-.56.15-.26.22-.64.12-.93-.2-.61-.84-1.04-1.49-.85Zm-54.57-9.28c8.48-3.11 15.43-10.12 18.48-18.62 6.49 7.48 15.4 12.82 25.05 15.04 1.74.4 3.56.72 5.04 1.72s3.71.84 3.09 2.52c.82-2.29 1.38-2.16 3.56-3.24.39-.19.81-.37 1.06-.73.2-.3.25-.68.27-1.04.39-5.11-1.41-10.27-4.45-14.39-3.05-4.13-7.28-7.28-11.88-9.54-6.94-3.42-14.95-4.92-22.55-3.45s-14.7 6.06-18.51 12.79c-.71 1.25-1.3 2.56-1.9 3.87-.4.89-.81 1.78-1.21 2.67-1 2.2-2.02 4.53-1.82 6.95.2 2.41 2.11 4.86 4.53 4.76"/><path d="M65.05 66.52c9.25-3.18 16.67-10.33 20.11-19.5l-3.53.93c4.38 5.1 9.91 9.26 15.99 12.12 3.07 1.45 6.28 2.61 9.58 3.4 1.54.37 3.19.58 4.58 1.37.66.37 1.27.71 1.99.98.24.09.61.27.83.29.72.06-.6.02-.33-.93-.76 2.65 3.14 3.62 4.06 1.12.1-.27.24-.5.35-.76.01-.03.18-.24.03-.12.45-.36 1.05-.56 1.57-.81 1.98-.94 2.9-2.07 3.03-4.31.23-4-.82-8.02-2.6-11.58-3.49-6.97-10.1-11.92-17.15-14.9-7.53-3.19-16.11-4.28-24.07-2.08-6.95 1.92-13.29 6.3-17.13 12.46-1.27 2.04-2.2 4.28-3.19 6.46-1 2.22-2.08 4.43-2.41 6.87-.57 4.17 1.92 9.06 6.63 9 2.78-.03 2.78-4.24 0-4.31-1.03-.03-1.77-.91-2.12-1.82-.6-1.56-.01-3.34.55-4.82 1.26-3.31 2.8-6.83 4.77-9.78 3.32-4.97 8.71-8.4 14.43-9.91 6.64-1.75 13.69-.87 20.03 1.6 5.92 2.3 11.65 6.22 15.03 11.71 1.97 3.2 3.16 6.9 3.05 10.69 0 .28-.02.57-.04.85.39-.38.4-.43 0-.18l-.63.3c-.57.27-1.17.49-1.7.82-1.34.82-1.97 2.08-2.5 3.5l4.06 1.12c.5-1.7-.26-3.2-1.84-3.95-.58-.28-1.22-.44-1.8-.73-.8-.4-1.52-.89-2.37-1.22-1.71-.67-3.57-.93-5.34-1.41s-3.46-1.05-5.13-1.72c-6.63-2.66-12.5-6.99-17.24-12.3-1.13-1.27-3.03-.47-3.53.93-2.8 7.89-9.05 14.58-16.84 17.73-1.74.71-1.07 3.53.8 2.89Z"/><path d="M65.63 37.34c3.78-9.17 14.29-13 23.52-13.33 9.71-.35 20.73 2.59 25.99 11.34 2.02 3.35 3.1 7.16 3.69 11.01.3 1.96.42 3.96.49 5.94.04 1.05.06 2.11.04 3.16 0 .32 0 .64-.06.95-.04.26-.25.8-.23.79-.78.58-1.22 1.49-.8 2.44.36.81 1.38 1.49 2.3 1.13 4.01-1.56 3.26-7.16 3.06-10.65-.24-4.05-.86-8.15-2.26-11.97-2.32-6.33-6.65-11.42-12.65-14.49-10.22-5.22-23.33-5.46-33.64-.36-5.6 2.77-10.08 7.37-12.21 13.29-.63 1.76 2.07 2.42 2.76.76Z"/><path d="M68.81 29.92c2.55-9.3 10.26-17 19.56-19.54 2.46-.67 5.1-1 7.54-.26s4.62 2.71 5.01 5.23c6.66-3.82 14.87-4.82 22.26-2.72 1.9.54 3.95 1.48 4.61 3.34 1.01 2.87-1.84 5.52-4.36 7.23 7.49-1.8 15.85.58 21.26 6.06 1.45 1.47 2.76 3.3 2.78 5.37.02 1.98-1.18 3.82-2.73 5.05s-3.43 1.97-5.28 2.68c6.91.57 12.56 7.65 11.59 14.52-.11.78-.31 1.59-.84 2.17-.59.65-1.48.91-2.33 1.15-1.93.53-3.86 1.07-5.78 1.6 3.96.94 6.4 5.01 7.35 8.97.69 2.87.69 6.27-1.43 8.33-1.69 1.64-4.23 1.95-6.57 2.17 2.63 3.68 4 8.25 3.84 12.77-.04 1.06-.17 2.15-.71 3.06-.58.96-1.55 1.62-2.55 2.14a17.62 17.62 0 0 1-11.39 1.7c2.76 4.5-.46 11.01-5.49 12.6s-10.71-.97-13.96-5.13c-.37-.47-.73-1.03-.63-1.61.11-.71.82-1.13 1.41-1.54 4.14-2.9 4.66-8.73 4.78-13.79 6.65-2.2 12.49-8.44 11.91-15.42-.32-3.87-2.49-7.32-4.81-10.44-.85-1.14-1.76-2.31-2.03-3.71-.18-.94-.06-1.9.06-2.85.73-6.13.93-12.33.6-18.5-.18-3.49-4.49-4.73-6.15-7.8-1.83-3.4-1.17-8.2-4.72-9.71s-7.41-2.15-11.24-2.6c-10.08-1.2-18.55-.86-26.97 4.81"/><path d="M70.33 30.34c1.99-6.19 6.16-11.61 11.68-15.07 2.83-1.78 6.12-3.18 9.46-3.56 3.12-.35 6.91.63 7.56 4.15.24 1.27 1.85 1.74 2.87 1.17 5.06-2.84 11.14-3.97 16.9-3.19 1.4.19 2.8.5 4.15.92.91.29 2.06.69 2.61 1.53 1.26 1.91-1.99 4.1-3.27 4.98-2.09 1.42-.82 4.67 1.73 4.1 5.7-1.27 11.79.09 16.55 3.44 1.79 1.26 4.86 3.69 4.53 6.2-.38 2.9-3.96 4.19-6.28 5.08-2.53.97-2.08 4.38.63 4.65 3.82.38 7.2 3.39 8.58 6.89.34.85.59 1.78.68 2.69.08.77.27 2.43-.25 3.09-.34.44-1.89.66-2.57.85l-4.45 1.23c-2.27.63-2.31 4.03 0 4.64 3.57.94 5.37 4.98 5.89 8.35.23 1.51.24 3.4-.76 4.66-1.14 1.45-3.45 1.58-5.14 1.75s-3.21 1.98-2.07 3.61c1.31 1.88 2.31 3.89 2.9 6.11.55 2.03.96 4.51.49 6.59-.41 1.82-3.03 2.6-4.59 3.06-2.24.65-4.61.82-6.91.41-1.96-.34-3.79 1.57-2.68 3.48 1.19 2.05.72 4.42-.58 6.39-1.46 2.2-3.85 3.23-6.44 3.13-2.89-.11-5.64-1.63-7.63-3.65-.3-.31-.56-.66-.87-.96-.05-.05-.15-.25-.18-.26l-.1-.15-.06.93c.4.05 1.52-1.14 1.82-1.43 1.13-1.06 2.01-2.4 2.64-3.82 1.5-3.41 1.78-7.17 1.87-10.86l-1.7 2.24c7.22-2.48 14.06-9.13 13.62-17.29-.24-4.5-2.53-8.42-5.15-11.96-.59-.8-1.28-1.61-1.63-2.55-.41-1.11-.07-2.44.05-3.58.28-2.5.48-5.02.55-7.54s.06-5.04-.04-7.56c-.08-2.02-.02-4.14-1.18-5.89-1.74-2.6-4.96-3.85-5.95-6.95-1.02-3.22-1.18-6.99-4.37-8.95-1.92-1.18-4.4-1.76-6.57-2.25-2.36-.53-4.77-.86-7.18-1.15-9.51-1.14-19.17-.34-27.24 5.27-2.34 1.63-.2 5.44 2.26 3.87 3.17-2.02 6.58-3.53 10.27-4.31s7.27-.76 10.93-.55c4.18.24 8.43.66 12.46 1.83 1.37.4 2.99.7 3.75 2.01.7 1.22.9 2.74 1.24 4.08.39 1.51.89 3.06 1.81 4.33s2.15 2.26 3.35 3.29c.82.71 1.84 1.51 1.99 2.65.28 2.21.11 4.61.06 6.84s-.18 4.55-.35 6.82-.74 4.71-.6 6.99 1.23 3.98 2.54 5.75c1.2 1.63 2.34 3.31 3.21 5.14 1.63 3.44 1.53 7.13-.44 10.4-1.92 3.19-5.14 5.56-8.63 6.75-1 .34-1.67 1.17-1.7 2.24-.09 3.43-.19 7.37-2.22 10.3-1.07 1.55-3.18 2.21-3.79 4.08-.76 2.33 1.04 4.36 2.62 5.86 5.86 5.57 15.67 6.72 20.79-.41 2.41-3.35 2.98-7.92.87-11.55l-2.68 3.48c3.15.56 6.35.5 9.43-.4 2.85-.83 6.22-2.28 7.5-5.16s.83-6.24.25-9.11c-.62-3.04-1.9-5.96-3.67-8.5l-2.07 3.61c2.99-.29 6.19-.72 8.39-3 2.07-2.15 2.65-5.25 2.33-8.13-.61-5.52-3.69-11.56-9.43-13.07v4.64c1.78-.49 3.56-.99 5.34-1.48s3.46-1.08 4.45-2.68c1.6-2.61 1.22-6.51.25-9.28-2.04-5.81-7.14-10.08-13.3-10.68l.63 4.65c3.92-1.52 8.22-3.51 9.46-7.94 1.16-4.16-1.58-7.87-4.61-10.41-6.1-5.13-14.34-7.12-22.1-5.27.58 1.37 1.15 2.74 1.73 4.1 2.75-1.94 5.93-4.76 5.55-8.49-.41-4-4.35-5.65-7.79-6.41-7.64-1.7-15.58-.41-22.38 3.43l2.87 1.17c-.81-4.3-4.99-6.76-9.09-7.04S85 9.13 81.35 11.19c-6.88 3.88-12.18 10.57-14.05 18.27-.48 1.98 2.42 2.77 3.04.84ZM43.82 133.51c7.18 11.66 19.61 19.21 32.82 22.13 7.9 1.75 16.09 1.94 24.11.96 7.78-.95 15.85-2.6 22.94-6.08 3.46-1.7 6.66-3.99 9.43-6.67s5.44-5.83 6.79-9.45c.67-1.81-2.12-3.51-3.34-1.95-1.98 2.54-3.65 5.22-5.93 7.52-2.18 2.2-4.63 4.08-7.33 5.6-6.26 3.53-13.78 5.13-20.83 6.18-13.64 2.03-28.07.5-40.23-6.3-6.02-3.36-11.48-8.03-15.52-13.64-1.23-1.71-4.04-.18-2.89 1.69Z"/><path d="M27.1 142.91c5.92 6.21 12.51 11.55 20.06 15.67 7.59 4.15 15.78 7.22 24.19 9.23 4.44 1.06 8.97 1.88 13.52 2.32 5.05.49 10.06.1 15.04-.83 4.71-.88 9.36-2.14 13.99-3.37 4.36-1.16 8.7-2.39 12.98-3.83 9.46-3.19 18.55-7.43 26.31-13.79.82-.67.7-2.08 0-2.77-.81-.81-1.95-.67-2.77 0-6.54 5.37-14.25 9.13-22.18 11.98-8.26 2.97-16.85 5.24-25.4 7.21-4.63 1.06-9.32 1.85-14.09 1.75s-9.12-.83-13.58-1.76c-8.08-1.69-16.01-4.29-23.42-7.95-8.21-4.05-16.18-9.32-22.53-15.97-1.34-1.4-3.45.72-2.12 2.12Zm-3.88 12.96c1.84 2.05 4.02 3.83 6.15 5.58s4.1 3.28 6.26 4.77 4.26 2.74 6.62 3.67 4.82 1.3 7.4 1.56c1.52.15 1.83-2.32.36-2.65-2.23-.51-4.4-1.54-6.43-2.58-2.17-1.11-4.27-2.29-6.3-3.65-4.2-2.82-7.93-6.43-12.3-8.97-1.46-.85-2.85 1.07-1.76 2.28Zm116.73 14.45c7.09-2.16 13.69-5.44 19.5-10.08.87-.7.72-2.21 0-2.93-.82-.82-2.03-.99-3.04-.39-1.32.79-1.14 3 .44 3.37l-.65-.47.32-2.51c-5.14 4.29-11.04 7.83-17.41 9.98-1.9.64-1.11 3.62.83 3.03ZM87.08 78.18c-.12 2.43-.17 4.87-.16 7.31 0 1.22.06 2.43.13 3.65s0 2.68.46 3.82c.29.71.84 1.26 1.66 1.26.72 0 1.51-.53 1.66-1.26.26-1.26.02-2.55-.09-3.82s-.18-2.43-.27-3.65c-.19-2.43-.3-4.87-.36-7.31-.04-1.96-2.94-1.94-3.03 0m-.98 22.05c1.32.42 2.75.59 4.13.45.73-.07 1.45-.21 2.15-.44.81-.27 1.66-.58 2.28-1.19 1.09-1.06-.02-3-1.49-2.56-.4.12-.76.31-1.13.49-.12.06-.25.12-.38.18-.11.05-.07.03.1-.04-.07.03-.15.06-.22.09-.56.21-1.13.35-1.72.47-.15.03-.31.07-.47.08.4-.03-.01 0-.07 0-.32.03-.63.04-.95.04-.28 0-.55-.03-.83-.05-.16-.02-.16-.02.02 0-.08-.01-.16-.02-.24-.04l-.47-.09c-.69-.15-1.49.21-1.66.94s.22 1.43.94 1.66Zm-3.63-29.79c-3.23-.53-7-1.37-10.17-.17-1.82.69-3.4 1.67-3.86 3.7-.43 1.86-.46 3.86-.24 5.74s.58 3.77 1.48 5.41c.88 1.6 2.42 2.58 4.09 3.19 3.31 1.2 7.44 1 9.99-1.69 1.48-1.56 1.89-3.48 2.24-5.53.37-2.18.67-4.37.86-6.57.15-1.74-2.82-2.17-3.08-.42-.24 1.55-.5 3.1-.78 4.64-.25 1.36-.43 2.85-1.08 4.09-1.08 2.04-3.29 2.71-5.62 2.21-1.12-.24-2.22-.54-2.95-1.35s-1-2.29-1.21-3.4c-.26-1.37-.28-2.8-.16-4.19.04-.47.03-1.28.3-1.67.13-.18.86-.52 1.24-.68 2.78-1.16 5.69-1.02 8.62-.72 1.48.15 1.83-2.36.35-2.61Z"/><path d="M63.52 70.68c.42.26.83.53 1.22.83.05.04.1.08.16.12-.19-.14-.22-.17-.09-.07.08.06.15.12.23.18.29.23.58.46.87.68l-.33-.26c.95.73 1.86 1.52 2.74 2.33.7.65 1.89.74 2.57 0 .32-.35.55-.8.53-1.29-.02-.45-.16-.99-.53-1.29-.96-.76-1.95-1.48-2.98-2.14-.93-.6-1.93-1.1-2.9-1.63-.67-.37-1.63-.19-2.01.53s-.17 1.58.53 2.01ZM79.44 78l.05.38v-.01l-.05.38v-.01l-.14.34v-.01l-.22.29.01-.01-.29.22s.01 0 .02-.01l-.34.14h.03l-.38.05h.04l-.38-.05h.01c.19.06.38.07.56.03.19 0 .36-.06.53-.17.16-.09.3-.21.4-.36.12-.14.21-.3.25-.48l.05-.38c0-.26-.07-.49-.19-.71l-.22-.29c-.18-.18-.38-.3-.62-.36h-.02c.03 0-.26-.04-.39-.05h-.01c-.13 0-.27.03-.4.05h-.02c.2-.08-.23.09-.34.14l-.29.22-.22.29-.14.34c-.01.06-.04.28-.03.19 0-.04-.02.13-.03.19v.01c0 .26.07.5.19.72l.22.29c.18.18.39.3.63.37q.285.09.57.03c.19 0 .37-.06.53-.17.17-.09.3-.21.4-.37.13-.14.21-.3.25-.48.07-.25.07-.5 0-.76Zm17.28-4.95c2.64-.27 5.34-.46 7.89.45.53.19 1.04.4 1.53.68.18.11.34.14.45.3.03.05.15.6.18.77.22 1.33.22 2.71.09 4.05-.12 1.25-.38 2.65-.94 3.78-.46.92-1.28 1.36-2.18 1.65-2.31.75-4.99.71-6.43-1.28-.82-1.13-1.06-2.73-1.33-4.13-.33-1.73-.62-3.47-.89-5.22-.27-1.74-3.24-1.34-3.08.42.17 2.01.43 4 .76 5.99.28 1.71.48 3.55 1.47 5.02 2.18 3.24 6.15 4.02 9.77 3.11 1.58-.4 3.19-1.1 4.31-2.32 1.27-1.39 1.81-3.33 2.14-5.14s.43-3.74.21-5.62c-.11-.95-.22-1.94-.67-2.8s-1.22-1.45-2.05-1.88c-3.6-1.87-7.73-1.07-11.55-.44-1.46.24-1.14 2.76.35 2.61Z"/><path d="M113.83 68.14c-.97.53-1.97 1.03-2.9 1.63-1.03.66-2.02 1.38-2.98 2.14-.34.27-.53.87-.53 1.29 0 .45.2.98.53 1.29.75.69 1.83.69 2.57 0 .88-.81 1.79-1.6 2.74-2.33l-.33.26c.29-.22.58-.45.87-.68.08-.06.15-.12.23-.18.13-.1.1-.08-.09.07.05-.04.1-.08.16-.12.39-.3.8-.57 1.22-.83.65-.4.96-1.33.53-2.01s-1.29-.92-2.01-.53Zm-11.65 10.24v-.01c0-.13-.02-.26-.05-.39s-.08-.25-.15-.36c-.2-.3-.24-.31-.52-.52-.11-.05-.54-.22-.34-.14h-.02c-.13-.02-.26-.05-.4-.05h-.01c-.13 0-.44.06-.39.05h-.02c-.18.04-.34.13-.48.25-.15.1-.28.23-.36.4-.1.16-.16.34-.17.53-.04.19-.03.38.03.56l.14.34c.13.21.29.38.51.51l.34.14q.375.105.75 0h.01l-.38.05h.04l-.38-.05h.03l-.34-.14s.01 0 .02.01l-.29-.22.01.01-.22-.29v.01l-.14-.34v.01l-.05-.38v.01l.05-.38c-.07.25-.07.5 0 .76l.14.34q.195.315.51.51c.16.1.34.16.53.17q.285.06.57-.03c.19-.04.35-.13.48-.25.15-.1.28-.23.37-.4.13-.22.19-.46.19-.72Zm-16.19 1.2c.26-.07.48-.15.73-.26.17-.07.15-.07-.05.02.08-.03.15-.06.23-.09.31-.12.62-.22.93-.32s.63-.19.95-.27c.16-.04.32-.07.49-.1.06-.01.58-.07.24-.04s.18-.02.24-.02c.16-.02.33-.04.49-.05.33-.03.66-.03.99-.03s.66.03.99.07c.22.03.16.02-.15-.02.38.08.19-.05-.56-.38-.33-.42-.31-.38.07.11.13.12.28.23.43.33.85.57 2.14.18 2.63-.69.53-.95.24-2.08-.6-2.72-.57-.44-1.24-.5-1.93-.54-.94-.06-1.87.02-2.8.17-.83.14-1.63.43-2.4.76-.85.36-1.77.84-2.38 1.55-.43.5-.62 1.25-.24 1.85s1.05.88 1.72.7ZM73.76 67.12c.81-.23 1.62-.43 2.45-.59.18-.03.35-.07.53-.1l.36-.06c.21-.03.24-.03.09-.02.39-.05.77-.1 1.16-.14.81-.08 1.61-.1 2.42-.14.97-.04 1.95.09 2.84-.37.42-.22.68-.72.68-1.18 0-.53-.28-.88-.68-1.18-.75-.58-1.93-.53-2.84-.58s-1.74.03-2.6.13c-1.79.2-3.54.6-5.23 1.24-.75.28-1.35 1.05-1.07 1.89.25.79 1.06 1.31 1.89 1.07Zm34.26-4.51c-.72-.28-1.62-.73-2.48-1s-1.77-.47-2.68-.6c-.98-.14-1.97-.24-2.96-.25-.44 0-.89 0-1.33.02-.34.02-.7.03-1.03.13-.55.17-.86.5-1.19.95-.43.61-.25 1.63.27 2.12.61.57 1.25.66 2.03.59.44-.04.89-.06 1.33-.07.83-.02 1.66.01 2.48.1.21.02.41.05.62.07.07 0 .65.08.32.04.41.06.82.14 1.23.21.88.16 1.75.31 2.58.63.74.29 1.7-.32 1.87-1.06.2-.88-.27-1.56-1.06-1.87Z"/></svg>