<?xml version="1.0" encoding="UTF-8"?><svg xmlns="http://www.w3.org/2000/svg" viewBox="0 0 180 180"><path d="M62.89 59.44c-.11 4.97-.53 9.96-.72 14.93-.18 4.81-.54 9.7-.11 14.51.75 8.28 4.65 15.72 11.62 20.43 1.72 1.16 3.56 2.17 5.5 2.91s3.97 1.81 6.1 2.01c1.3.12 1.59-1.71.63-2.31-1.45-.92-3.16-1.39-4.63-2.31s-2.81-1.94-4.1-3.01c-2.61-2.17-5.06-4.65-6.87-7.53-4.46-7.1-3.62-15.66-3.77-23.69l-.15-7.72c-.05-2.74-.3-5.48-.31-8.21 0-2.04-3.13-2.04-3.17 0Z"/><path d="M63.62 64.85c-1.91-1.5-4.38-1.8-6.55-.66-1.85.98-3.12 2.82-3.94 4.69-1.91 4.32-2.81 10.14-.45 14.46 1.68 3.06 5.21 5.24 8.46 6.27.85.27 1.82-.25 2.15-1.05.37-.91 0-1.71-.74-2.27-2.39-1.82-5.68-2.72-6.74-5.86-.43-1.28-.52-2.63-.45-3.97.05-1.09.11-1.46.34-2.53s.51-2.08.91-3.08c.11-.28.33-.75.56-1.16.14-.25.3-.5.45-.74 0 0 .36-.49.19-.27.28-.36.61-.72.98-1-.25.19.34-.19.4-.23.37-.2-.13.01.24-.1.99-.3 1.56-.15 2.7.05 1.31.23 2.81-1.5 1.48-2.55Zm11.19 58.74c.28-4.98.33-9.97.35-14.96.01-2.41-3.76-2.42-3.75 0 .02 4.99.07 9.98.35 14.96.11 1.96 2.94 1.96 3.05 0"/><path d="M72.31 121.63c-3.27.78-6.59 1.36-9.86 2.12s-6.21 1.53-9.29 2.39c-6.14 1.71-12.33 3.59-18.22 6.04-2.74 1.14-5.33 2.49-7.55 4.5-1.99 1.8-3.57 4.08-4.82 6.44-2.14 4.05-3.75 8.38-4.63 12.87-.49 2.49-.9 5-1.37 7.5-.37 1.98-.59 4.03-1.08 5.99-.52 2.09 2.58 3.59 3.6 1.52 1.75-3.54 2.3-7.49 3.09-11.32s1.82-7.79 3.48-11.53c.99-2.24 2.14-4.52 3.75-6.4 1.73-2.01 3.88-3.41 6.26-4.54 5.44-2.58 11.38-4.27 17.1-6.11 3.35-1.08 6.72-2.09 10.08-3.11s6.86-2.21 10.33-3.11c2.09-.54 1.21-3.74-.89-3.24ZM60.13 76.68c.14.04.27.09.4.15l-.29-.12c.38.16.74.38 1.07.63l-.25-.19c.3.24.57.52.81.82l-.2-.26c.26.34.48.71.65 1.11l-.13-.32c.06.14.11.27.17.41l-.13-.32c.11.27.2.54.34.8.14.27.49.54.78.6s.58.05.85-.07c.25-.11.5-.29.63-.54l.13-.31c.06-.23.06-.47 0-.7-.05-.3-.19-.59-.33-.86-.09-.19-.2-.36-.32-.53-.28-.41-.6-.81-.97-1.14a6.6 6.6 0 0 0-2.58-1.49c-.61-.18-1.35.22-1.49.85-.15.66.2 1.28.85 1.49Zm53.81-17.24c-.01 4.64-.33 9.3-.42 13.94s.01 9.13-.27 13.67c-.24 3.76-.98 7.42-2.8 10.75-1.65 3.02-3.97 5.51-6.5 7.82-1.39 1.27-2.91 2.36-4.44 3.45-1.68 1.2-3.67 1.75-5.4 2.84-.96.61-.67 2.43.63 2.31 1.85-.17 3.52-1.02 5.24-1.69s3.48-1.43 5.11-2.43c3.36-2.05 6.19-4.75 8.42-7.99 5.24-7.64 4.75-16.91 4.42-25.76l-.31-8.21c-.11-2.91-.42-5.81-.48-8.71-.04-2.04-3.17-2.05-3.17 0Z"/><path d="M117.87 67.4c1.11-.2 1.66-.34 2.61-.07.39.11.06-.02.33.13.06.03.65.41.4.23.37.28.69.64.98 1s.99 1.65 1.2 2.17c.4.99.69 2.03.91 3.08s.28 1.44.34 2.53c.07 1.34-.03 2.69-.45 3.97-1.04 3.14-4.35 4.04-6.74 5.86-.72.55-1.14 1.37-.74 2.27.35.8 1.27 1.33 2.15 1.05 2.9-.92 5.87-2.72 7.73-5.17 1.79-2.36 2.29-5.46 2.07-8.36-.32-4.07-1.58-8.98-5.07-11.48-2.21-1.59-5.08-1.42-7.2.25-1.33 1.04.17 2.78 1.48 2.55Zm-9.63 56.19c.28-4.98.33-9.97.35-14.96.01-2.41-3.76-2.42-3.75 0 .02 4.99.07 9.98.35 14.96.11 1.96 2.94 1.96 3.05 0"/><path d="M106.8 124.87c6.09 1.58 12.12 3.62 18.13 5.5 5.93 1.86 11.88 3.75 17.64 6.07 2.37.96 4.77 2.14 6.65 3.89 1.83 1.7 3.15 3.79 4.26 6 1.88 3.75 3.11 7.64 3.99 11.73.93 4.33 1.45 8.91 3.43 12.92 1.01 2.05 4.13.59 3.6-1.52-.44-1.75-.62-3.59-.96-5.36-.42-2.18-.79-4.37-1.19-6.55-.82-4.46-2.13-8.54-4.05-12.67-2.39-5.15-5.92-9.32-11.11-11.78-5.71-2.71-11.98-4.58-18.05-6.32-3.53-1.02-7.08-1.98-10.66-2.82-3.58-.85-7.22-1.49-10.8-2.34-2.1-.5-2.99 2.69-.89 3.24Zm12.43-50.52c-.97.29-1.83.81-2.58 1.49-.37.34-.69.73-.97 1.14-.12.17-.23.35-.32.53-.13.27-.28.56-.33.86-.05.35-.07.7.13 1.01.16.24.36.42.63.54.57.24 1.34.05 1.64-.54.13-.26.22-.53.34-.8l-.13.32c.06-.13.11-.27.17-.41l-.13.32c.17-.4.39-.77.65-1.11l-.2.26c.24-.3.5-.58.81-.82l-.25.19c.33-.25.69-.46 1.07-.63l-.29.12c.13-.06.27-.11.4-.15.3-.1.56-.28.72-.56.15-.26.22-.64.12-.93-.2-.61-.84-1.04-1.49-.85ZM65.27 60.49c4.06-2.28 7.51-5.76 11.81-7.58 1.87-.79 3.92-1.04 5.92-.68 1.09.2 2.21.51 3.23.94 1.1.46 2 1.17 3.02 1.77 1.4.82 2.92-.8 2.17-2.17-1.26-2.3-4.02-4.05-6.48-4.77-2.66-.78-5.6-.68-8.21.22-5.36 1.85-8.59 6.4-12.98 9.66-1.52 1.13-.21 3.58 1.52 2.6Z"/><path d="M91.25 54.77c3.08-3.95 8.99-5.34 13.66-3.79 2.16.72 3.91 2.21 5.32 3.96.75.92 1.4 1.93 2 2.95.67 1.13 1.12 2.49 1.84 3.55.88 1.29 2.53 1.24 3.41 0 1.23-1.73-.05-3.88-.95-5.45-.82-1.44-1.74-2.81-2.79-4.09-1.96-2.38-4.51-4.29-7.47-5.23-6.61-2.1-13.69.56-17.7 6.05-1.12 1.54 1.48 3.57 2.66 2.05Zm-4.02-27.86c-3.56-1.39-7.1-1.75-10.86-.91s-7.15 2.65-10.12 5c-3.08 2.44-5.58 5.59-7.72 8.87s-4.25 7-5.02 10.77c-.5 2.43 0 4.77.62 7.13s1.32 4.91 2.01 7.36c.55 1.97 3.61 1.14 3.07-.85-.67-2.46-1.35-4.91-2.05-7.35-.33-1.16-.84-2.46-.76-3.69.07-1.15.67-2.21 1.23-3.18 2.2-3.82 4.27-7.8 7.01-11.28 2.65-3.36 5.93-6.32 9.88-8.05 3.59-1.57 8.15-2.33 11.96-1.14 1.74.54 2.37-2.05.74-2.68Z"/><path d="M94.77 27.97c6.69-3.4 13.96.85 18.65 5.6 2.5 2.54 4.77 5.36 6.84 8.25s3.84 6.17 3.68 9.87c-.09 2.1-.78 4.17-1.58 6.1s-1.57 4.12-2.77 5.76l.71-.71-.28.19c-1.8 1.28-.67 3.78 1.46 3.46 2.21-.34 3.27-3.36 4.14-5.11 1.05-2.12 1.96-4.36 2.44-6.68.92-4.56-.05-8.91-2.42-12.88-2.21-3.71-5.19-7.13-8.18-10.23-2.97-3.07-6.42-5.74-10.45-7.22-4.49-1.65-9.62-1.59-13.78.94-1.69 1.03-.21 3.53 1.55 2.64Z"/><path d="M96.85 25.95c-2.36.35-4.14 2.47-6.49 2.83-1.18.18-2.37-.1-3.53-.34-2.45-.52-4.94-.9-7.44-1.14-2.65-.25-5.43-.33-7.89.69-1.46.6-2.74 1.57-3.91 2.61-3.4 3.02-6.09 6.79-7.82 10.96-.1-7.24.04-14.99 4.21-20.96 2.74-3.93 7-6.66 11.56-8.25s9.44-2.11 14.27-2.28c5.03-.18 10.15.02 14.91 1.62s9.16 4.75 11.31 9.22c1.82 3.78 1.9 8.12 1.95 12.31a21.1 21.1 0 0 0-7.58-5.46"/><path d="M96.85 24.56c-1.85.19-3.26 1.05-4.9 1.85-1.69.82-3.31.37-5.06.02-4.05-.82-8.48-1.64-12.62-1.14-7.86.96-13.13 8.68-16.02 15.38l3.3.89c-.02-5.54.01-11.33 2.2-16.52 2.1-5 6.4-8.55 11.4-10.48 5.86-2.26 12.35-2.7 18.57-2.59 5.65.1 11.5 1.12 16.09 4.65 2.23 1.71 4.04 3.96 4.93 6.64 1.07 3.21 1.08 6.6 1.14 9.95 1.2-.5 2.4-1 3.61-1.49-2.39-2.61-5.28-4.56-8.54-5.92-2.1-.88-3.64 2.75-1.56 3.7 2.74 1.25 5.11 2.95 7.11 5.21 1.24 1.4 3.61.26 3.61-1.49-.02-6.56-.73-13.12-5.59-17.99-4.6-4.62-11.04-6.46-17.37-7-6.95-.59-14.56-.17-21.23 1.95-5.74 1.82-11.11 5.24-14.27 10.48-3.76 6.23-3.8 13.87-3.63 20.91.05 2.12 2.74 2.24 3.47.47 1.25-3.03 3.45-5.98 5.71-8.33 1.24-1.29 2.59-2.55 4.15-3.44 1.58-.9 3.34-1.15 5.14-1.15 3.88 0 7.59.97 11.4 1.51 1.91.27 3.41-.04 5.09-.98 1.41-.79 2.66-1.92 4.25-2.36 1.45-.41 1.24-2.9-.37-2.73Zm31.23 28.25c4.61 1.46 9.05 3.46 13.2 5.94 1.85 1.1 3.67 2.33 4.97 4.05 1.3 1.71 2 4.01 1.37 6.06-.57 1.85-2.11 3.24-3.76 4.25-4.54 2.81-10.38 3.41-15.4 1.58-.11-3.15-1.77-6.03-3.56-8.62-.44-.64-.91-1.34-.83-2.11.05-.45.29-.86.52-1.26 1.56-2.66 2.95-5.41 4.16-8.25"/><path d="M127.6 54.55c3.83 1.44 7.58 3.16 11.12 5.2 2.66 1.53 6.33 3.5 6.84 6.88.49 3.25-3.6 5.17-6.11 5.96-3.46 1.1-6.92.92-10.35-.16l1.72 2.26c-.32-3.88-2.19-6.85-4.23-10.05-.44-.69-.24-.57.24-1.41s.93-1.66 1.37-2.51c.93-1.77 2.16-3.76 2.52-5.73.42-2.31-2.32-3.42-3.7-1.56-1.19 1.6-1.87 3.71-2.8 5.47s-2.53 3.65-2.28 5.72c.23 1.89 1.79 3.44 2.67 5.06.84 1.55 1.47 3.21 1.53 4.99.03 1.12.72 1.87 1.72 2.26 6.33 2.47 15.21 1.1 19.93-4.02 2.64-2.86 2.98-6.74 1.14-10.14-1.74-3.21-5.11-5.17-8.21-6.85-3.86-2.09-7.91-3.73-12.14-4.86-2.28-.61-3.1 2.68-.96 3.48ZM91.13 84.32c-5.63-3.83-12.33 1.62-16.18 5.53-1.12 1.14-2.61 2.4-2.56 4.14.05 1.58 1.42 2.89 2.55 3.84 2.24 1.88 4.94 2.97 7.83 3.31 1.35.16 2.69.07 4.02-.2.69-.14 1.36-.34 2.02-.59s1.42-.74 2.15-.75c1.37 0 2.77 1.05 4.12 1.33 1.61.33 3.22.33 4.83.06 2.77-.48 6.62-2.26 7.5-5.19.23-.76.24-1.52-.03-2.27s-.82-1.17-1.27-1.78c-.35-.48-.54-1.07-.8-1.6-.41-.85-.94-1.56-1.61-2.22-2.04-2.03-4.53-4.33-7.42-5.02-2.45-.58-4.72.14-6.96 1.13-1.99.88-.54 4.41 1.5 3.56 2.11-.89 3.71-1.39 5.7-.33 1.45.77 2.69 1.87 3.87 2.98.64.6 1.12 1.11 1.51 1.9.42.87.79 1.68 1.43 2.42.11.13.22.26.35.37-.12-.11.16-.49-.06-.23-.27.3-.48.6-.8.86-.62.5-1.36.9-2.11 1.19-1.57.6-3.34.77-4.98.37-1.94-.47-3.62-1.64-5.71-1.28-1.61.28-2.97 1.19-4.63 1.3-1.76.11-3.51-.1-5.14-.77-.79-.33-1.59-.79-2.27-1.31-.37-.28-1.46-1.2-1.43-1.43l-.28 1.04c.58-1.31 2.15-2.52 3.18-3.5 1-.95 2.06-1.79 3.2-2.56 2.03-1.36 4.45-2.83 6.86-1.49 1.83 1.02 3.32-1.62 1.62-2.78Z"/><path d="M87.24 67.36c.08 3.4.17 6.8.32 10.19.08 1.63.18 3.26.24 4.89v.33c0-.04.11-.29.04-.12-.11.28-.27.55-.34.85-.23.91.15 1.89.88 2.46s1.6.74 2.36.14c.67-.53.96-1.55.46-2.32-.6-.92.27.57-.2.8.18-.09.32-.7.36-.87.2-.73.11-1.48.07-2.23-.1-1.56-.23-3.13-.35-4.69-.25-3.15-.59-6.29-.88-9.44-.17-1.88-3.03-1.95-2.98 0Zm-5.57 6.68.09-.04s.02 0 .02-.01c.2-.11.36-.25.48-.44.15-.16.25-.36.3-.58.04-.15.07-.31.06-.46v-.04c0-.23-.04-.44-.14-.64-.07-.21-.18-.38-.34-.53l-.34-.26c-.26-.15-.54-.23-.84-.23h-.04c-.15-.01-.31.01-.46.06l-.41.17c-.26.15-.46.35-.61.61 0 0 0 .02-.01.02l-.04.09-.17.4q-.105.33-.03.66c0 .15.04.29.11.42.07.21.18.38.34.53l.34.26.4.17q.33.105.66.03c.22 0 .43-.08.62-.2Zm18.31 0 .09-.04s.02 0 .02-.01c.2-.11.36-.25.48-.44.15-.16.25-.36.3-.58.04-.15.07-.31.06-.46v-.04c0-.23-.04-.44-.14-.64-.07-.21-.18-.38-.34-.53l-.34-.26c-.26-.15-.54-.23-.84-.23h-.04c-.15-.01-.31.01-.46.06l-.41.17c-.26.15-.46.35-.61.61 0 0 0 .02-.01.02l-.04.09-.17.4q-.105.33-.03.66c0 .15.04.29.11.42.07.21.18.38.34.53l.34.26.4.17q.33.105.66.03c.22 0 .43-.08.62-.2Zm-24.13-7.79c.27-.32.56-.63.88-.91.05-.04.55-.43.27-.23l.51-.36c.35-.24.71-.45 1.09-.64.1-.05.19-.09.29-.13-.2.09-.21.09 0 0 .2-.08.39-.15.6-.22s.43-.13.65-.18c.07-.02.79-.14.37-.08.47-.06.95-.07 1.42-.04.24.01.48.03.71.06-.43-.06.29.06.37.08.57.13 1.11.24 1.7.31.74.09 1.56-.61 1.72-1.31.19-.83-.15-1.53-.82-2.01-1.01-.73-2.46-.94-3.68-.98-1.18-.03-2.41.15-3.52.54-2.14.77-3.88 2.22-5 4.2-.38.67-.22 1.55.4 2.02.58.43 1.54.48 2.05-.12Zm31.8-3.57c-1.46-1.9-3.21-3.39-5.49-4.21s-4.57-.91-6.83-.37c-1.09.26-1.84 1.56-1.5 2.63.37 1.14 1.46 1.77 2.63 1.5.23-.05.46-.1.69-.14.06-.01.41-.04.1-.02s.04 0 .1 0a12 12 0 0 1 2.03-.03c.1 0 .21.02.31.03.06 0 .4.07.11.01-.32-.06.13.03.19.04l.31.06c.23.05.46.11.69.17.43.12.84.28 1.26.43.13.05.62.27.27.1.21.1.43.2.64.31.39.2.78.42 1.15.66.09.06.17.11.25.18-.14-.1-.05-.03.03.04q.3.255.57.54c.55.55 1.46.61 2.06.12.55-.44.89-1.4.4-2.03ZM37.29 170c6.46-11.38 5.08-23.3 6.09-36.34.08-.98.18-2.01.76-2.8.71-.97 1.95-1.34 3.11-1.66l11.07-3.03c4.95 9.23 10.47 19.04 19.87 23.64 19.31 9.46 39.01-4.64 41.7-24.7 4.64 1.27 9.19 2.89 13.58 4.85.98.44 2.01.95 2.54 1.88.6 1.08.37 2.41.15 3.63-1.64 9.39-.59 19.56 2.14 28.63.73 2.42 1.76 4.91 4.32 5.81"/><path d="M38.64 170.79c4.56-7.78 5.61-16.58 6.03-25.43.11-2.29.19-4.58.31-6.87.05-1.02.11-2.05.18-3.07.06-.92-.05-2.22.36-3.08.35-.73 1.19-.89 1.92-1.1 1.23-.36 2.48-.67 3.72-1 2.57-.69 5.14-1.38 7.71-2.08l-2.33-.95c3.08 5.79 6.27 11.56 10.62 16.52 4.3 4.9 9.8 8.55 16.14 10.21 11.26 2.94 23.1-1.32 30.52-10.15a36 36 0 0 0 8.06-18.12c-.84.48-1.68.95-2.52 1.43 3.95 1.09 7.85 2.41 11.63 4.02 1.18.5 3.33.98 3.36 2.51.04 1.85-.56 3.8-.74 5.64-.79 7.92.13 16.04 2.23 23.69 1.03 3.77 2.33 7.43 6.26 8.96 1.04.4 2.26-.44 2.54-1.44.32-1.17-.4-2.13-1.44-2.54-1.17-.45-1.86-1.62-2.32-2.72-.7-1.69-1.12-3.54-1.55-5.31-.92-3.8-1.53-7.67-1.76-11.57-.23-3.95-.12-7.95.53-11.86.31-1.89.72-3.89-.29-5.66-.9-1.56-2.55-2.31-4.13-3-4.3-1.87-8.7-3.44-13.22-4.68-.96-.27-2.37.33-2.52 1.43-1.44 10.34-7.71 20.04-17.52 24.21-10.17 4.33-21.67 1.08-29.14-6.75-4.68-4.91-7.97-10.98-11.16-16.9-.43-.8-1.47-1.19-2.33-.95-3.96 1.1-8.03 2.03-11.93 3.34-1.67.56-3.12 1.56-3.81 3.23s-.62 3.59-.71 5.34c-.38 7.12-.12 14.35-1.4 21.39-.74 4.08-2.03 8.06-3.98 11.73-.95 1.78 1.68 3.34 2.71 1.59Z"/></svg>