<?xml version="1.0" encoding="UTF-8"?><svg xmlns="http://www.w3.org/2000/svg" viewBox="0 0 180 180"><path d="M24.75 140.56c3.82 4.03 7.83 7.81 11.95 11.52 2.39 2.15 4.76 4.42 7.58 6.01 3.06 1.73 6.41 2.26 9.87 2.47 14.2.85 28.45 1.55 42.68 1.24s28.28-1.67 42.13-4.63c3.13-.67 6.65-1.07 8.62-3.9.79-1.13 1.21-2.5 1.68-3.79.51-1.38 1.02-2.76 1.52-4.14 2.03-5.56 3.95-11.13 4.84-17 1.14-7.51 2.28-15.02 3.41-22.53s2.45-14.25.17-21.34c-1.08-3.34-2.66-6.51-4.29-9.61-1.35-2.57-2.71-5.16-4.29-7.6-3.43-5.29-7.98-9.64-14.28-11.1s-13.24-.83-19.71-.63c-6.86.21-13.71.55-20.56.96-13.74.82-27.45 2.02-41.15 3.32-5.49.52-11.67.42-16.3 3.87s-6.2 8.89-7.91 14.17c-4.34 13.4-7.8 27.1-9.77 41.05-.49 3.49-.84 6.94-.96 10.46-.08 2.33 3.8 2.96 4.16.56 1.02-6.78 1.87-13.58 3.18-20.31s2.83-12.97 4.63-19.35c.93-3.28 1.91-6.55 2.95-9.8.88-2.76 1.63-5.7 2.9-8.32 1.94-3.97 5.06-6.12 9.45-6.78 2.89-.44 5.85-.59 8.76-.87 3.19-.31 6.37-.6 9.56-.89 6.63-.6 13.26-1.17 19.9-1.7 12.97-1.04 25.97-1.85 38.98-2.06 5.93-.09 12.41-.25 17.26 3.74 4.28 3.53 6.84 8.69 9.38 13.51 1.53 2.9 3.03 5.84 3.99 8.98s1.21 6.25.94 9.5c-.29 3.52-.97 7.03-1.51 10.52s-1.11 7.18-1.66 10.77c-.95 6.2-1.61 12.49-3.43 18.5-.86 2.83-1.85 5.62-2.87 8.4-.43 1.18-.87 2.35-1.3 3.53s-.75 2.53-1.49 3.54c-.7.95-2.12 1.1-3.18 1.35a198 198 0 0 1-15.46 2.91c-6.5.95-13.06 1.55-19.62 1.91-13.43.73-26.9.38-40.33-.08-3.53-.12-7.06-.24-10.58-.39-3.16-.14-6.12-.54-8.88-2.19s-4.93-3.79-7.25-5.82c-1.86-1.63-3.72-3.26-5.52-4.94-1.94-1.81-3.81-3.69-5.67-5.59-1.63-1.66-4.15.87-2.55 2.55Z"/><path d="M21.58 132.42c28.09.79 56.38.94 84.4-1.37 3.44-.28 6.87-.6 10.3-.98 1.8-.2 3.6-.41 5.4-.64 1.16-.14 2.39-.14 3.46-.66 2.44-1.2 3.6-4.34 4.47-6.71 2.8-7.66 3.96-15.95 5.41-23.94.93-5.09 2.1-10.13 3.1-15.21 1.42-7.26 2.5-14.58 3.3-21.93.11-1.04-.97-1.94-1.94-1.94-1.14 0-1.82.89-1.94 1.94-.69 6.34-1.6 12.64-2.78 18.91-.91 4.86-2.08 9.67-2.99 14.53-1.48 7.86-2.64 15.84-4.91 23.53-.44 1.49-1.02 3.25-1.56 4.44-.26.57-.54 1.14-.87 1.67-.14.23-.29.46-.45.68.28-.37-.26.25-.35.35-.05.06-.13.12-.19.17.48-.41.1-.03 0-.03-.5 0 .37.06-.13.05-1.48-.03-3.11.39-4.59.55-3.43.39-6.86.73-10.3 1.03-13.52 1.19-27.08 1.7-40.64 1.96-15.4.29-30.81.05-46.21.37-2.07.04-2.07 3.16 0 3.22Z"/><path d="M123.99 127.36c6.56 8.55 13.12 17.11 19.67 25.66 1.83-4.23 2.71-8.8 3.59-13.33 2.42-12.51 4.84-25.03 7.27-37.54.93-4.8 1.86-9.77.8-14.54-1.8-8.09-10.9-17.17-13.19-25.13-1.44 7.46-1.04 17.99-2.75 25.39-3.11 13.49-6.67 26.87-10.53 40.17"/><path d="M122.61 128.17c6.46 8.61 12.86 17.27 19.4 25.82.75.98 2.68 1.49 3.31 0 2.65-6.25 3.64-13.01 4.93-19.63s2.68-13.81 4.02-20.72l2.04-10.48c.64-3.28 1.3-6.59 1.43-9.94.12-2.99-.26-6.01-1.34-8.81-.97-2.5-2.26-4.85-3.66-7.13-1.63-2.66-3.39-5.23-5.02-7.89-1.43-2.35-2.87-4.79-3.59-7.46-.51-1.92-3.56-2.04-4 0-1.66 7.62-1.1 15.53-2.41 23.21-.75 4.4-1.97 8.76-3.05 13.09-1.14 4.58-2.33 9.15-3.55 13.71-1.4 5.19-2.93 10.34-4.3 15.54-.7 2.64 3.25 3.7 4.07 1.12 2.85-8.99 5.18-18.18 7.48-27.33 1.13-4.49 2.3-8.99 3.25-13.52.8-3.84 1.08-7.79 1.35-11.7.29-4.34.48-8.7 1.17-13.01h-4c1.64 4.98 4.64 9.28 7.48 13.63s5.88 8.88 6.18 14.2c.18 3.23-.33 6.43-.93 9.6s-1.27 6.63-1.91 9.94L147 130.89c-1.39 7.21-2.31 14.81-5.18 21.62l3.51-.46c-6.66-8.67-13.46-17.22-20.2-25.82-1.11-1.42-3.61.48-2.52 1.94M28.98 85.36c-5.88-.45-11.91 2.18-15.58 6.8-3.38 4.26-4.62 10.51-1.97 15.26 1.86 3.34 5.31 5.5 8.83 6.99 1 .42 2.35.73 3.02-.13.31-.4.36-.94.39-1.45.6-8.73 1.59-17.75 6.03-25.29"/><path d="M28.98 83.86c-2.82-.27-5.34-.23-8.07.67-2.54.85-4.84 2.18-6.88 3.92-4.04 3.45-6.67 8.99-6.2 14.35.5 5.74 4.26 9.97 9.23 12.55 2.18 1.13 5.35 2.69 7.53.68 1.16-1.07 1.18-2.6 1.28-4.05.11-1.58.24-3.16.4-4.74.66-6.45 1.97-12.96 5.24-18.63 1.34-2.33-2.25-4.43-3.6-2.11-2.54 4.37-4.07 9.22-4.97 14.17-.44 2.46-.75 4.94-1 7.43-.12 1.22-.22 2.44-.31 3.67-.02.28-.1.59-.06.86 0-.02-.03.92.17.25s.27.07.07-.23c-.05-.07-.51-.16-.61-.2-3.8-1.49-7.7-4.22-8.71-8.39-.99-4.08.64-8.53 3.42-11.54 1.62-1.76 3.61-3.13 5.8-4.08s4.91-1.65 7.26-1.56c1.96.07 1.89-2.82 0-3Zm121.15-1.93c4.92 1.36 10.02 2.82 13.9 6.14 5.78 4.96 7.66 13.95 4.35 20.81s-11.51 10.98-19 9.55c-1-.19-2.01-.49-2.79-1.13-1.68-1.38-1.83-3.85-1.85-6.03-.05-7.77.02-16.03 4.15-22.61"/><path d="M149.68 83.55c5.4 1.73 11.69 3.51 15.1 8.43 2.88 4.16 3.84 9.53 2.23 14.36s-5.86 8.27-10.62 9.55c-2.3.62-4.84.78-7.16.15-1.18-.32-1.69-.87-1.97-2.07-.29-1.28-.21-2.64-.22-3.95-.02-3.43 0-6.89.48-10.3s1.69-6.79 3.07-10.06c.39-.92.35-1.93-.51-2.57-.74-.55-1.97-.61-2.62.16-4.79 5.68-5.04 14.21-5.07 21.3-.02 3.37-.32 7.36 2.16 10.02 2.29 2.45 6.57 2.68 9.69 2.34 6.41-.71 12.5-4.39 15.64-10.11s3-12.86.04-18.59c-3.85-7.43-11.72-10.1-19.36-11.91-2.12-.5-2.97 2.59-.9 3.25ZM97.32 58.56c.55-2.53 1.21-4.99 1.58-7.55s.56-5.15.87-7.72c.13-1.07-1.06-2.15-2.09-2.09-2.32.15-4.32-.34-6.14-1.87a9.4 9.4 0 0 1-2.9-4.28c-1.01-3.08-.64-6.65 1.5-9.19 5.07-6.02 16.72-3.65 19.26 3.72 1.41 4.09-.7 9.04-5.22 9.87-2.05.37-1.61 3.93.5 3.68 2.79-.33 5.18-1.43 6.96-3.65s2.73-5 2.51-7.87c-.46-5.98-4.81-10.59-10.32-12.49-5.15-1.77-11.23-1.08-15.49 2.45-3.88 3.22-5.29 8.61-4.23 13.43 1.34 6.09 7.6 11.73 14.11 10.3l-2.64-2.01c.15 2.41 0 4.84-.21 7.25s-.36 4.9-.83 7.27c-.35 1.79 2.37 2.57 2.76.76ZM50.68 76.79c-4.41 1.66-8.06 5.61-8.56 10.4-.47 4.47 2.65 8.02 6.83 9.11 8.09 2.1 18.26-4.89 16.52-13.8-.47-2.42-1.95-4.58-4.18-5.69s-5.31-1.65-7.31-.03c-.98.8-.42 2.55.74 2.81 1.51.34 2.92-.06 4.36.52 1.22.5 1.99 1.39 2.36 2.67.8 2.75-.53 5.34-2.67 7.23-1.01.89-2.28 1.6-3.52 2.01-1.36.45-2.71.54-4.03.38-.49-.06-1.32-.27-1.92-.48-.36-.13-.26-.09-.65-.3-.13-.07-.27-.15-.4-.23 0 0-.54-.37-.3-.19-.55-.43-.88-.83-1.12-1.24-.2-.35-.43-1.02-.48-1.42-.42-3.54 2.6-7.2 5.59-8.78 1.6-.84.49-3.63-1.25-2.97Zm51.07-2.84c-4.41 1.66-8.06 5.61-8.56 10.4-.47 4.47 2.65 8.02 6.83 9.11 8.09 2.1 18.26-4.89 16.52-13.8-.47-2.42-1.95-4.58-4.18-5.69s-5.31-1.65-7.31-.03c-.98.8-.42 2.55.74 2.81 1.51.34 2.92-.06 4.36.52 1.22.5 1.99 1.39 2.36 2.67.8 2.75-.53 5.34-2.67 7.23-1.01.89-2.28 1.6-3.52 2.01-1.36.45-2.71.54-4.03.38-.49-.06-1.32-.27-1.92-.48-.36-.13-.26-.09-.65-.3-.13-.07-.27-.15-.4-.23 0 0-.54-.37-.3-.19-.55-.43-.88-.83-1.12-1.24-.2-.35-.43-1.02-.48-1.42-.42-3.54 2.6-7.2 5.59-8.78 1.6-.84.49-3.63-1.25-2.97Zm-8.97 24.47c-9.8.89-19.64 1.23-29.44 2.07-2.17.19-4.18.57-5.92 1.95-1.58 1.25-2.69 3.06-2.96 5.07-.47 3.58 2.55 7.6 5.84 8.75 2.17.76 4.74.8 7.02.91s4.65.1 6.97 0c4.43-.21 8.83-.82 13.22-1.41 3.69-.5 7.41-1.2 10.74-2.95s6.51-4.9 6.47-8.84c-.03-2.45-1.53-4.43-3.77-5.34s-4.79-.75-7.16-.5c-5.57.6-11.16 1.07-16.72 1.75-.98.12-1.81.75-1.82 1.82 0 .95.84 1.86 1.82 1.82 4.1-.18 8.19-.62 12.29-.81 2.01-.1 4.02-.23 6.03-.34 1.3-.07 3.48-.35 4.52.68.82.82.13 2.2-.39 2.99-.75 1.12-1.93 1.96-3.08 2.62-2.58 1.47-5.59 2.06-8.5 2.51-7.35 1.12-14.86 1.95-22.3 1.32-1.42-.12-3.43-.07-4.61-.99-.84-.66-1.65-1.82-1.88-2.87-.18-.79.37-1.83 1.14-2.45 1.22-.98 2.99-1 4.47-1.16 9.35-.99 18.66-2.3 28.03-3.16 2.18-.2 2.2-3.62 0-3.42Z"/><path d="M65.25 102.41c-1.5 1.96-2.72 4.09-3 6.59-.25 2.23.43 5.02 2.33 6.39.46.34 1.25.3 1.72 0 .27-.18.44-.33.61-.61.31-.49.31-1.23 0-1.72-.17-.26-.38-.48-.56-.72.21.27-.14-.25-.17-.31s-.29-.63-.17-.31c-.08-.2-.14-.4-.2-.61s-.1-.42-.14-.63c.06.37-.02-.28-.02-.35-.01-.22-.01-.43 0-.65 0-.07.07-.72.02-.35.29-1.98 1.13-3.5 2.19-5.2.43-.69.15-1.66-.54-2.06-.78-.45-1.57-.11-2.06.54ZM29.86 54.39c-1.28-1.4-2.61-2.76-3.94-4.12-.65-.67-1.31-1.34-1.96-2.01s-1.3-1.46-2.04-2.05c-.52-.41-1.26-.8-1.94-.51-.32.14-.64.23-.89.51s-.37.55-.5.89c-.27.68.09 1.43.51 1.94.59.71 1.36 1.31 2.03 1.94s1.41 1.32 2.11 1.97c1.39 1.29 2.77 2.6 4.21 3.85.67.59 1.76.71 2.41 0s.64-1.7 0-2.41m14.04-4.83c-.87-2.3-1.51-4.73-2.05-7.13-.27-1.21-.51-2.43-.7-3.65s-.13-2.78-.76-3.83c-.83-1.38-2.91-1.07-3.37.44-.38 1.24.15 2.9.4 4.15s.54 2.5.88 3.74c.66 2.46 1.55 4.79 2.49 7.15.32.81 1.08 1.38 1.99 1.13.78-.22 1.44-1.17 1.13-1.99Zm16.32-1.04c.32-1.94.63-3.88.92-5.82l.41-2.81.22-1.51c.12-.82.19-1.45-.19-2.22-.47-.95-1.99-1.14-2.69-.35-.85.97-.79 2.37-.93 3.6l-.32 2.82c-.22 1.95-.41 3.91-.6 5.86-.08.79.67 1.5 1.4 1.59s1.64-.35 1.77-1.16Zm-4.27 29.94c-1.48.93-2.82 1.88-3.92 3.26s-1.94 3.11-2.49 4.83c-.8 2.51-2.21 9.25 2.04 9.43 1.57.07 1.97-2.05.76-2.82-.16-.1-.14-.22-.12-.11.01.07-.15-.6-.13-.45-.1-.65 0-1.36.05-2.01.12-1.27.44-2.56.85-3.78s.99-2.28 1.65-3.35 1.49-2.2 2.52-2.91c1.27-.87.11-2.93-1.22-2.09Zm53.28-3.44c-2.96 1.24-5.25 3.58-6.91 6.3-.8 1.32-1.44 2.77-1.87 4.26s-.85 3.33-.57 4.92 2.68 1.44 3.03 0c.16-.66.16-1.45.25-2.04.1-.68.26-1.35.45-2.01.36-1.24.85-2.37 1.51-3.49 1.35-2.32 3.3-4.1 5.39-5.73 1.02-.79-.09-2.71-1.28-2.21m-75.79 56.51c4.09 5.39 8.68 10.33 13.58 14.98 2.43 2.3 4.93 4.53 7.49 6.67 1.26 1.05 2.53 2.07 3.82 3.08s2.78 2.57 4.38 2.99c1.32.35 2.58-1.15 1.82-2.36-.83-1.33-2.48-2.18-3.71-3.12a158 158 0 0 1-11.36-9.69c-4.82-4.52-9.31-9.39-13.71-14.32-1.09-1.22-3.32.44-2.31 1.78Zm19.34.29c7.06 10.17 15.74 19.07 24.04 28.23 1.6 1.76 4.2-.85 2.61-2.61-4.17-4.61-8.33-9.24-12.52-13.83s-8.15-8.85-11.84-13.55c-1.01-1.29-3.22.41-2.28 1.76Zm20.51 1.63c3.11 4.76 6.76 9.18 10.37 13.56 1.79 2.17 3.6 4.33 5.43 6.47s3.64 4.63 5.8 6.46c1.43 1.22 3.98-.36 2.79-2.15-1.54-2.3-3.65-4.32-5.46-6.41s-3.77-4.39-5.63-6.61c-3.65-4.37-7.13-8.9-10.94-13.13-1.13-1.25-3.27.39-2.34 1.81Zm19.18-1.22c1.8 1.85 3.22 3.96 4.64 6.11 1.6 2.43 3.26 4.82 4.91 7.22s3.21 4.66 4.82 6.98 3.16 4.91 5.01 7.11c1.35 1.6 3.81-.45 2.83-2.19-1.41-2.51-3.31-4.83-4.95-7.19s-3.33-4.78-5.01-7.16c-3.13-4.44-6.09-9.32-10.08-13.05-1.45-1.35-3.56.75-2.18 2.18Zm16.92-1.59c4.81 9.69 11.58 18.09 18.19 26.58.63.82 2.02.65 2.68 0 .81-.79.63-1.88 0-2.68-6.39-8.21-13.14-16.34-18.2-25.46-.97-1.75-3.55-.21-2.67 1.56"/></svg>