<?xml version="1.0" encoding="UTF-8"?><svg xmlns="http://www.w3.org/2000/svg" viewBox="0 0 180 180"><path d="M62.89 59.44c-.06 2.9-.37 5.81-.48 8.71l-.33 8.71c-.11 2.8-.2 5.58-.02 8.38s.59 5.68.93 8.51c.51 4.16 1.38 8.33 3.91 11.78 2.07 2.83 4.85 4.73 8.09 6.01 1.59.63 3.21 1 4.86 1.38 1.81.42 3.56 1.14 5.42 1.3 1.29.11 1.61-1.71.63-2.31-1.3-.8-2.87-1.21-4.3-1.73-1.32-.48-2.61-1.16-3.86-1.8-2.55-1.31-4.72-2.75-6.46-4.99-1.96-2.52-2.94-6.08-3.38-9.39-.36-2.67-.73-5.34-1.01-8.02s-.28-5.4-.33-8.12l-.17-8.96c-.06-3.15-.32-6.31-.33-9.46 0-2.04-3.13-2.04-3.17 0"/><path d="M63.62 64.85c-1.91-1.5-4.38-1.8-6.55-.66-1.85.98-3.12 2.82-3.94 4.69-1.91 4.32-2.81 10.14-.45 14.46 1.68 3.06 5.21 5.24 8.46 6.27.85.27 1.82-.25 2.15-1.05.37-.91 0-1.71-.74-2.27-2.39-1.82-5.68-2.72-6.74-5.86-.43-1.28-.52-2.63-.45-3.97.05-1.09.11-1.46.34-2.53s.51-2.08.91-3.08c.11-.28.33-.75.56-1.16.14-.25.3-.5.45-.74 0 0 .36-.49.19-.27.28-.36.61-.72.98-1-.25.19.34-.19.4-.23.37-.2-.13.01.24-.1.99-.3 1.56-.15 2.7.05 1.31.23 2.81-1.5 1.48-2.55Zm12.19 56.02c.28-4.07.33-8.16.35-12.24 0-.98-.87-1.92-1.88-1.88s-1.88.82-1.88 1.88c.02 4.08.07 8.17.35 12.24.13 1.96 2.91 1.96 3.05 0Zm-14.19 3.52c-4.31 1.02-8.68 1.67-12.93 2.98-4.63 1.43-9.28 2.99-13.75 4.85-2.73 1.13-5.32 2.48-7.55 4.47-2 1.79-3.58 4.07-4.83 6.43-2.13 4.03-3.77 8.38-4.65 12.86-.49 2.49-.89 5-1.36 7.5-.2 1.09-.4 2.18-.6 3.26s-.27 1.86-.47 2.73c-.48 2.09 2.54 3.58 3.6 1.52 1.8-3.5 2.32-7.5 3.11-11.31.84-4 1.79-7.78 3.46-11.54 1-2.25 2.14-4.52 3.75-6.4 1.73-2.03 3.85-3.43 6.24-4.57 2.49-1.18 5.13-2.05 7.7-3.04 1.88-.72 3.76-1.47 5.66-2.15 4.42-1.6 8.95-3.16 13.5-4.35 2.09-.55 1.21-3.74-.89-3.24Z"/><path d="M60.13 76.68c.14.04.27.09.4.15l-.29-.12c.38.16.74.38 1.07.63l-.25-.19c.3.24.57.52.81.82l-.2-.26c.26.34.48.71.65 1.11l-.13-.32c.06.14.11.27.17.41l-.13-.32c.11.27.2.54.34.8.14.27.49.54.78.6s.58.05.85-.07c.25-.11.5-.29.63-.54l.13-.31c.06-.23.06-.47 0-.7-.05-.3-.19-.59-.33-.86-.09-.19-.2-.36-.32-.53-.28-.41-.6-.81-.97-1.14a6.6 6.6 0 0 0-2.58-1.49c-.61-.18-1.35.22-1.49.85-.15.66.2 1.28.85 1.49Zm53.81-17.24c0 2.82-.26 5.64-.31 8.46l-.16 8.21c-.05 2.68 0 5.37-.23 8.03s-.65 5.32-.96 7.98c-.44 3.74-.72 7.42-2.84 10.61-1.44 2.17-3.61 3.78-6.05 5.11-1.41.77-2.9 1.53-4.39 2.14-1.61.66-3.4 1.02-4.9 1.93-.98.6-.66 2.43.63 2.31 1.64-.15 3.26-.7 4.84-1.14s3.05-.67 4.54-1.17c3.09-1.03 6.03-2.59 8.2-5.07 2.74-3.13 4-7.1 4.48-11.16.64-5.41 1.39-10.88 1.21-16.34-.11-3.32-.25-6.64-.38-9.96s-.45-6.64-.53-9.96c-.04-2.04-3.17-2.05-3.17 0Z"/><path d="M117.87 67.4c1.11-.2 1.66-.34 2.61-.07.39.11.06-.02.33.13.06.03.65.41.4.23.37.28.69.64.98 1s.99 1.65 1.2 2.17c.4.99.69 2.03.91 3.08s.28 1.44.34 2.53c.07 1.34-.03 2.69-.45 3.97-1.04 3.14-4.35 4.04-6.74 5.86-.72.55-1.14 1.37-.74 2.27.35.8 1.27 1.33 2.15 1.05 2.9-.92 5.87-2.72 7.73-5.17s2.29-5.46 2.07-8.36c-.32-4.07-1.58-8.98-5.07-11.48-2.21-1.59-5.08-1.42-7.2.25-1.33 1.04.17 2.78 1.48 2.55Zm-10.63 53.47c.28-4.07.33-8.16.35-12.24 0-.98-.87-1.92-1.88-1.88-1.01.05-1.88.82-1.88 1.88.02 4.08.07 8.17.35 12.24.13 1.96 2.91 1.96 3.05 0Zm12.6 6.76c2.32.61 4.59 1.43 6.85 2.24 1.53.54 2.5.96 3.79 1.52 4.01 1.74 8.06 3.36 12.11 5 2.38.96 4.77 2.16 6.65 3.93s3.14 3.81 4.25 6.02c1.89 3.77 3.07 7.64 3.96 11.74.93 4.31 1.41 8.96 3.46 12.91 1.06 2.04 4.08.59 3.6-1.52-.1-.45-.1-.45-.13-.65-.08-.52-.14-1.04-.23-1.55-.19-1.05-.39-2.11-.58-3.16-.41-2.18-.78-4.37-1.18-6.55-.81-4.45-2.17-8.55-4.07-12.66-2.39-5.16-5.94-9.28-11.14-11.74-4.47-2.12-9.26-3.56-13.86-5.37-4.1-1.62-8.3-2.38-12.57-3.4-2.1-.5-2.99 2.69-.89 3.24Z"/><path d="M119.23 74.35c-.97.29-1.83.81-2.58 1.49-.37.34-.69.73-.97 1.14-.12.17-.23.35-.32.53-.13.27-.28.56-.33.86-.05.35-.07.7.13 1.01.16.24.36.42.63.54.57.24 1.34.05 1.64-.54.13-.26.22-.53.34-.8l-.13.32c.06-.13.11-.27.17-.41l-.13.32c.17-.4.39-.77.65-1.11l-.2.26c.24-.3.5-.58.81-.82l-.25.19c.33-.25.69-.46 1.07-.63l-.29.12c.13-.06.27-.11.4-.15.3-.1.56-.28.72-.56.15-.26.22-.64.12-.93-.2-.61-.84-1.04-1.49-.85Zm-51.85-8.44c1.96-1.37 3.75-3.15 4.89-5.26.58-1.07 1.09-2.24 1.35-3.44.35-1.57.45-3.49-.7-4.76s-3.1-.22-3.15 1.3c-.01.35.06.71.13 1.05.02.12.05.24.07.36-.06-.36 0 .05 0 .13q0 .375-.03.75c-.01.3.07-.24 0 .05-.03.12-.05.25-.08.37-.11.51-.27 1-.46 1.48-.04.11-.08.21-.13.32.08-.18.05-.12-.02.02-.11.23-.22.46-.34.69-.21.4-.44.8-.68 1.19-.12.19-.25.38-.38.57a8 8 0 0 1-.29.4c-.29.36-.6.69-.93 1.01-.19.18-.38.35-.57.52-.09.07-.17.15-.26.22-.03.03-.32.25-.13.1-.7.53-1.14 1.48-.61 2.31.46.72 1.53 1.15 2.31.61Zm44.4-6.63c-.72-.76-1.32-1.41-1.83-2.15-.29-.42-.56-.86-.79-1.32-.06-.12-.11-.23-.17-.35.07.17.06.15-.02-.06-.08-.24-.16-.47-.23-.71s-.12-.48-.17-.73c-.04-.24-.04-.25-.01-.03l-.03-.37c-.01-.25 0-.49.01-.74.02-.24.02-.25 0-.01.02-.12.05-.24.08-.36.06-.24.15-.47.23-.7-.2.52.24-.57.29-.69.27-.72.28-1.41.17-2.16-.14-1.01-1.36-1.6-2.26-1.48-1.02.14-1.77.99-1.79 2.03v.36c.02-.3 0-.12-.06.07-.07.24-.17.47-.25.7-.22.61-.33 1.24-.39 1.88-.11 1.17.09 2.44.53 3.53.91 2.27 2.54 4.04 4.29 5.7.67.63 1.75.66 2.41 0s.63-1.74 0-2.41ZM70.67 90.39c1.63.94 3.35.04 4.93-.53 1.37-.49 2.8-.81 4.25-.83s2.77.18 4.12.62c1.72.56 3.84 1.86 5.39.17.78-.86.76-2.41-.39-2.99-.72-.37-1.53-.45-2.28-.73-.7-.27-1.39-.54-2.12-.73a14.4 14.4 0 0 0-4.58-.43c-1.52.11-3.06.38-4.48.95s-2.6 1.57-4.1 1.71c-1.39.14-2.13 1.99-.75 2.78Z"/><path d="M106.52 87.62A17.5 17.5 0 0 0 97 84.98c-1.66.02-3.36.27-4.95.76-.85.26-1.64.66-2.47.99-.24.1-.52.19-.79.27-.77.24-1.21.56-1.68 1.22-.65.91-.12 2.17.71 2.73 1.58 1.06 3.48-.31 4.97-.9 1.25-.5 2.57-.87 3.91-1.03 2.77-.31 5.7.11 8.23 1.29 1.79.84 3.29-1.61 1.57-2.68ZM81.24 98.37c1.69 1.73 4.33 2.38 6.68 2.48 1.31.06 2.62-.09 3.91-.3s2.7-.54 3.9-1.21c1.36-.75.83-3.2-.83-3.06-2.3.2-4.44 1.07-6.77 1.08-1.99 0-3.69-.52-5.58-1.25-1.32-.51-2.19 1.36-1.31 2.26"/><path d="M88.17 70.24c-.14 3.31-.29 6.61-.4 9.92-.05 1.62-.08 3.24-.09 4.87s-.32 3.65.45 5.09c.53.99 2.19 1.05 2.7 0 .71-1.45.37-3.33.35-4.91-.03-1.68-.06-3.37-.1-5.05-.07-3.31-.1-6.61-.04-9.92.03-1.86-2.8-1.84-2.88 0Zm-8.25 8.49c2.11 0 2.11-3.28 0-3.28s-2.11 3.28 0 3.28m18.46 0c2.11 0 2.11-3.28 0-3.28s-2.11 3.28 0 3.28m-20.1-8.98c.57-.41 1.21-.74 1.85-1.04.08-.04.63-.29.19-.09.18-.07.37-.15.55-.23s.16-.07-.06.02c.32-.15.66-.26 1-.36s.68-.2 1.03-.27c.17-.04.35-.07.52-.1.09-.02.18-.03.26-.04-.27.03-.3.04-.09.01.8-.08 1.69-.01 2.44-.31.64-.26 1.11-.68 1.2-1.4.08-.62-.2-1.38-.8-1.67-.56-.27-1.09-.41-1.71-.41-.51 0-1.04.09-1.55.17-.77.11-1.52.3-2.26.56-.81.29-1.61.63-2.34 1.09s-1.42 1.07-2.07 1.68c-.55.52-.57 1.42-.12 2s1.35.84 1.97.39ZM102.96 63c-1.51-.64-3.04-1.2-4.62-1.66a34 34 0 0 0-2.16-.56c-.48-.11-.96-.2-1.45-.26-.53-.06-1.03.03-1.55.15-1.37.31-1.66 2.4-.4 3.04.41.21.82.43 1.28.53.32.07.65.1.98.15a33 33 0 0 1 2.34.42c1.45.32 2.88.76 4.28 1.27.79.29 1.69-.26 1.99-.98s.08-1.78-.69-2.11Zm5.91-14.17c-10.45-6.99-24.09-9-36.12-5.32-2.78.85-5.57 2.05-7.49 4.24-.75.85-1.38 1.86-2.37 2.41-.63.35-1.35.47-2.05.6L53 52.14c-1.47-3.3.72-7.01 2.9-9.89 8.92-11.76 26.61-12.9 39.64-8.66 7.07 2.3 13.47 7.86 14.96 15.14"/><path d="M109.7 47.42c-6.38-4.71-14.08-7.28-21.96-7.83-4.01-.28-8.08 0-12.01.81S68 42.42 64.95 44.91c-.82.67-1.45 1.44-2.13 2.25-.73.87-1.24 1.14-2.36 1.36-2.68.5-5.37.94-8.06 1.41l2.79 1.59c-1.03-2.57.47-5.02 1.93-7.11 1.29-1.85 2.86-3.52 4.64-4.91 3.3-2.59 7.28-4.19 11.36-5.07 4.37-.95 8.91-1.03 13.35-.52 4.2.48 8.59 1.51 12.31 3.56 4.63 2.55 8.35 6.62 9.51 11.88.64 2.9 5.06 1.67 4.44-1.23-1.2-5.59-4.94-10.19-9.59-13.35-4.34-2.95-9.57-4.42-14.72-5.16-9.96-1.42-20.95-.15-29.15 6.13-2.48 1.9-4.57 4.16-6.32 6.75-1.99 2.96-3.55 6.73-2.14 10.26.49 1.23 1.46 1.82 2.79 1.59 2.29-.4 4.57-.8 6.86-1.21 2.07-.36 3.86-.82 5.31-2.45 1.17-1.32 2.15-2.51 3.71-3.39 1.58-.89 3.31-1.45 5.06-1.92 7.18-1.96 14.74-1.85 21.92.03 4.08 1.06 7.96 2.73 11.59 4.86 1.85 1.09 3.3-1.6 1.65-2.82Z"/><path d="M68.75 55.17c1.19-.21 2.34-.47 3.44-1.01s2.11-1.28 3-2.13 1.63-1.82 2.22-2.88c.33-.59.59-1.21.81-1.85s.46-1.39.39-2.05c-.07-.61-.3-1.34-.93-1.61-.33-.14-.57-.28-.94-.26-.63.04-1.32.32-1.61.93s-.4 1.22-.6 1.85c-.08.23-.17.45-.25.68.18-.51.06-.14 0-.02l-.15.33c-.23.48-.49.94-.78 1.37l-.21.3c-.04.05-.07.1-.11.15-.08.11-.05.07.1-.13-.03.17-.41.48-.52.6-.34.37-.71.72-1.1 1.05-.08.07-.21.15-.28.23.27-.31.08-.06-.03.02a14 14 0 0 1-1.98 1.17l-.33.15c.34-.15 0 0-.08.03-.27.1-.54.16-.83.22-.76.15-1.26 1.1-1.03 1.82.27.82 1 1.17 1.82 1.03Zm-4.4-19.15c.56-4.82.89-10.15 3.03-14.58 2.44-5.05 8.26-7.67 13.52-8.59 6.05-1.05 12.51-.54 18.51.61 6.7 1.28 13.15 5.4 15.76 11.7 1.26 3.04 1.58 6.39 1.76 9.68.31 5.61.27 11.25-.12 16.86-4.08-.49-7.36-3.44-10.76-5.76-3.9-2.66-8.27-4.62-12.86-5.75"/><path d="M65.8 36.42c.43-3.08.94-6.22 1.67-9.24.65-2.69 1.59-5.45 3.56-7.47 3.7-3.79 9.37-5.04 14.47-5.31 10.65-.55 25.4 1.67 28.49 13.87.9 3.57.93 7.37 1.01 11.04.09 4.14-.02 8.27-.31 12.4l2.67-2.03c-4.2-.6-7.36-3.74-10.75-6.01-3.83-2.56-8.29-4.7-12.82-5.64-2.82-.58-3.99 3.5-1.2 4.34 4.46 1.34 8.62 2.97 12.5 5.6 3.49 2.36 6.83 5.18 11.15 5.78 1.41.2 2.57-.53 2.67-2.03.26-3.96.37-7.93.29-11.9s-.17-7.62-.89-11.33c-1.22-6.3-5.31-11.38-10.94-14.37-2.76-1.47-5.7-2.35-8.77-2.88-3.71-.64-7.47-1.05-11.23-1-6.3.07-12.94 1.32-17.92 5.44-6.1 5.05-5.98 13.17-6.61 20.37-.15 1.67 2.73 2.09 2.96.4Zm4.6 82.17c.75 2.22 2.51 4.28 4.13 5.94 1.71 1.75 3.62 3.3 5.62 4.7 1.94 1.36 3.97 2.6 6.01 3.8 1.03.61 2.07 1.2 3.11 1.8 1.36.78 2.52 1.7 4.12.98.53-.24.96-1 .91-1.58-.16-1.68-1.43-2.22-2.75-2.96-.95-.53-1.9-1.07-2.85-1.6-2.02-1.15-4.02-2.32-5.95-3.61-1.79-1.2-3.53-2.5-5.11-3.96-.81-.75-1.6-1.54-2.34-2.36-.78-.86-1.44-1.86-2.27-2.67-1.07-1.05-3.14 0-2.62 1.53Z"/><path d="M106.25 116.9c-2.55 2.95-5.1 5.88-7.95 8.54-1.34 1.25-2.76 2.44-4.09 3.41-.77.56-1.54 1.11-2.33 1.64-1.22.82-2.69 1.43-2.72 3.12-.01.66.38 1.45 1 1.75.94.44 1.71.46 2.63-.09.46-.28.91-.59 1.36-.89.95-.64 1.87-1.31 2.77-2.01 1.51-1.18 2.96-2.45 4.32-3.81 2.91-2.88 5.44-6.16 7.8-9.5 1.17-1.65-1.48-3.7-2.81-2.17Z"/><path d="M70.68 113c-2.1.96-4.02 2.16-5.83 3.6-1.79 1.42-3.89 3.23-4.66 5.45s-.02 4.97.47 7.24 1.15 4.59 1.95 6.81c1.56 4.31 3.59 8.59 6.26 12.33 1.25 1.76 2.83 4.34 5.36 3.8 1.14-.24 2.15-1.01 3.12-1.62q1.65-1.035 3.27-2.13c4.64-3.14 9.09-6.53 13.3-10.23h-2.88c4.73 5.59 10.14 10.63 15.76 15.31 1.03.85 2.64.86 3.36-.43 4.38-7.84 9.59-15.76 11.78-24.56.51-2.05.96-4.27.95-6.39 0-2.59-1.65-3.83-3.54-5.26a96 96 0 0 0-11.41-7.37c-2.5-1.38-4.75 2.46-2.24 3.83a96 96 0 0 1 10.34 6.51c.75.54 1.6 1.05 2.26 1.69.52.5.3 1.18.23 1.88-.18 1.92-.63 3.82-1.18 5.67-2.35 7.76-6.96 14.81-10.89 21.84l3.36-.43c-5.65-4.7-10.83-9.85-15.9-15.17-.78-.82-2.09-.74-2.88 0a108 108 0 0 1-8.58 7.2c-1.47 1.1-2.97 2.15-4.5 3.17-.77.51-1.54 1-2.32 1.49-.54.34-1.65 1.29-2.29 1.27l.96.26c-.58-.28-.98-1.19-1.33-1.72-.47-.72-.95-1.43-1.41-2.16-.84-1.33-1.63-2.7-2.35-4.1a50.3 50.3 0 0 1-3.65-9.27c-.45-1.58-.83-3.19-1.12-4.81s-.7-3.06.39-4.4c2.07-2.57 4.76-4.66 7.61-6.28 1.99-1.13.24-3.92-1.76-3.01Zm-34.43 44.42c-.56 2.16-.67 4.41-.87 6.63q-.135 1.59-.24 3.18c-.04.55-.09 1.1-.12 1.65-.04.86.15 1.5.69 2.18.59.74 1.85.6 2.46 0 .99-.97.81-2.54.87-3.83.05-1.06.1-2.12.13-3.18s.07-2.12.09-3.18c.02-1.17-.08-2.29-.23-3.45-.08-.61-.82-1.06-1.39-1.06-.62 0-1.23.45-1.39 1.06m104.35-.66c-.12 4.2-.25 8.4-.37 12.61l1.87-1.87c-.48.04.51.31.12.05-1.41-.94-3.24.92-2.33 2.33.41.64.97 1.1 1.71 1.29 1.17.29 2.36-.56 2.36-1.8v-12.61c0-2.17-3.3-2.16-3.36 0"/><path d="M92.41 151.47c-.08-.03-.16-.05-.24-.07-.44-.11-.69-.07-1.13 0-.33.05-.64.19-.94.33s-.56.34-.8.56c-.07.06-.12.12-.18.19-.15.18-.32.37-.42.58-.1.2-.19.41-.26.63-.07.23-.09.49-.11.72 0 .07-.01.14 0 .21.01.24.05.49.1.73 0 .04.02.08.03.12.07.18.15.37.23.54.03.07.07.14.12.2.13.18.26.38.43.53a4 4 0 0 0 .57.43c.18.1.38.17.57.25.05.02.1.03.14.04.21.05.45.08.66.09h.2c.45-.04.85-.12 1.27-.27.34-.1.64-.27.89-.52.2-.18.34-.4.42-.65.13-.24.18-.5.17-.78 0-.36-.09-.7-.28-1.02-.1-.15-.2-.3-.32-.44-.23-.3-.37-.46-.72-.68l-.47-.2-.53-.07-.53.07c-.26.06-.48.18-.68.36q-.225.135-.36.36c-.12.12-.21.27-.26.44-.09.15-.14.32-.14.5-.06.26-.05.53.04.79.02.1.06.19.11.28.03.1.07.19.12.28.02.04.04.08.07.12.05.08.11.15.17.23l1.21-2.96c-.23.1-.46.19-.7.23l.53-.07c-.11.01-.21.02-.31 0l.53.07a.7.7 0 0 1-.25-.07l.48.2c-.06-.03-.12-.06-.18-.1l.4.31c-.06-.05-.12-.1-.17-.16l.31.4c-.06-.08-.11-.16-.15-.26l.2.47c-.08-.19-.15-.37-.23-.56l.2.47c-.04-.1-.06-.19-.08-.29l.07.52c-.01-.11-.02-.22 0-.34l-.07.51c.01-.1.04-.2.08-.29l-.19.46c.05-.11.11-.21.18-.31l-.29.38c.1-.12.2-.23.33-.32l-.37.29c.14-.1.28-.18.44-.25l-.43.18c.22-.09.47-.15.68-.28l.24-.15.33-.26.26-.33.16-.39c.07-.22.08-.43.03-.65 0-.15-.04-.28-.11-.41a.8.8 0 0 0-.21-.36.8.8 0 0 0-.29-.29c-.16-.14-.34-.24-.56-.29Zm0 12.64c-.08-.03-.16-.05-.24-.07-.44-.11-.69-.07-1.13 0-.33.05-.64.19-.94.33s-.56.34-.8.56c-.07.06-.12.12-.18.19-.15.18-.32.37-.42.58-.1.2-.19.41-.26.63-.07.23-.09.49-.11.72 0 .07-.01.14 0 .21.01.24.05.49.1.73 0 .04.02.08.03.12.07.18.15.37.23.54.03.07.07.14.12.2.13.18.26.38.43.53a4 4 0 0 0 .57.43c.18.1.38.17.57.25.05.02.1.03.14.04.21.05.45.08.66.09h.2c.45-.04.85-.12 1.27-.27.34-.1.64-.27.89-.52.2-.18.34-.4.42-.65.13-.24.18-.5.17-.78 0-.36-.09-.7-.28-1.02-.1-.15-.2-.3-.32-.44-.23-.3-.37-.46-.72-.68l-.47-.2-.53-.07-.53.07c-.26.06-.48.18-.68.36q-.225.135-.36.36c-.12.12-.21.27-.26.44-.09.15-.14.32-.14.5-.06.26-.05.53.04.79.02.1.06.19.11.28.03.1.07.19.12.28.02.04.04.08.07.12.05.08.11.15.17.23l1.21-2.96c-.23.1-.46.19-.7.23l.53-.07c-.11.01-.21.02-.31 0l.53.07a.7.7 0 0 1-.25-.07l.48.2c-.06-.03-.12-.06-.18-.1l.4.31c-.06-.05-.12-.1-.17-.16l.31.4c-.06-.08-.11-.16-.15-.26l.2.47c-.08-.19-.15-.37-.23-.56l.2.47c-.04-.1-.06-.19-.08-.29l.07.52c-.01-.11-.02-.22 0-.34l-.07.51c.01-.1.04-.2.08-.29l-.19.46c.05-.11.11-.21.18-.31l-.29.38c.1-.12.2-.23.33-.32l-.37.29c.14-.1.28-.18.44-.25l-.43.18c.22-.09.47-.15.68-.28l.24-.15.33-.26.26-.33.16-.39c.07-.22.08-.43.03-.65 0-.15-.04-.28-.11-.41a.8.8 0 0 0-.21-.36.8.8 0 0 0-.29-.29c-.16-.14-.34-.24-.56-.29Z"/></svg>