<?xml version="1.0" encoding="UTF-8"?><svg xmlns="http://www.w3.org/2000/svg" viewBox="0 0 180 180"><path d="M62.89 59.44c-.11 4.97-.53 9.96-.72 14.93-.18 4.81-.54 9.7-.11 14.51.75 8.28 4.65 15.72 11.62 20.43 1.72 1.16 3.56 2.17 5.5 2.91 1.98.75 3.97 1.81 6.1 2.01 1.3.12 1.59-1.71.63-2.31-1.45-.92-3.16-1.39-4.63-2.31s-2.81-1.94-4.1-3.01c-2.61-2.17-5.06-4.65-6.87-7.53-4.46-7.1-3.62-15.66-3.77-23.69l-.15-7.72c-.05-2.74-.3-5.48-.31-8.21 0-2.04-3.13-2.04-3.17 0Z"/><path d="M63.62 64.85c-1.91-1.5-4.38-1.8-6.55-.66-1.85.98-3.12 2.82-3.94 4.69-1.91 4.32-2.81 10.14-.45 14.46 1.68 3.06 5.21 5.24 8.46 6.27.85.27 1.82-.25 2.15-1.05.37-.91 0-1.71-.74-2.27-2.39-1.82-5.68-2.72-6.74-5.86-.43-1.28-.52-2.63-.45-3.97.05-1.09.11-1.46.34-2.53s.51-2.08.91-3.08c.11-.28.33-.75.56-1.16.14-.25.3-.5.45-.74 0 0 .36-.49.19-.27.28-.36.61-.72.98-1-.25.19.34-.19.4-.23.37-.2-.13.01.24-.1.99-.3 1.56-.15 2.7.05 1.31.23 2.81-1.5 1.48-2.55Zm11.19 52.88c.28-3.02.33-6.07.35-9.1 0-.98-.87-1.92-1.88-1.88s-1.88.82-1.88 1.88c.02 3.03.07 6.08.35 9.1.07.79.65 1.56 1.52 1.52s1.44-.67 1.52-1.52Zm-10.99 6.08c-4.74 1.13-9.53 1.91-14.2 3.31-4.94 1.48-9.9 3.13-14.67 5.1-2.73 1.13-5.32 2.49-7.55 4.47-2 1.79-3.58 4.08-4.83 6.43-2.13 4.03-3.78 8.38-4.64 12.86-.48 2.49-.89 5-1.36 7.5-.2 1.09-.4 2.18-.6 3.26-.2 1.09-.26 1.84-.48 2.73-.52 2.09 2.57 3.59 3.6 1.52 1.75-3.54 2.3-7.48 3.1-11.31s1.8-7.78 3.47-11.54c1-2.25 2.14-4.53 3.75-6.4 1.74-2.02 3.85-3.43 6.25-4.57 4.52-2.14 9.41-3.73 14.13-5.39 4.9-1.72 9.9-3.43 14.92-4.74 2.09-.55 1.21-3.74-.89-3.24Z"/><path d="M60.13 76.68c.14.04.27.09.4.15l-.29-.12c.38.16.74.38 1.07.63l-.25-.19c.3.24.57.52.81.82l-.2-.26c.26.34.48.71.65 1.11l-.13-.32c.06.14.11.27.17.41l-.13-.32c.11.27.2.54.34.8.14.27.49.54.78.6s.58.05.85-.07c.25-.11.5-.29.63-.54l.13-.31c.06-.23.06-.47 0-.7-.05-.3-.19-.59-.33-.86-.09-.19-.2-.36-.32-.53-.28-.41-.6-.81-.97-1.14a6.6 6.6 0 0 0-2.58-1.49c-.61-.18-1.35.22-1.49.85-.15.66.2 1.28.85 1.49Zm53.81-17.24c-.01 4.64-.33 9.3-.42 13.94s.01 9.13-.27 13.67c-.24 3.76-.98 7.42-2.8 10.75-1.65 3.02-3.97 5.51-6.5 7.82-1.39 1.27-2.91 2.36-4.44 3.45-1.68 1.2-3.67 1.75-5.4 2.84-.96.61-.67 2.43.63 2.31 1.85-.17 3.52-1.02 5.24-1.69s3.48-1.43 5.11-2.43c3.36-2.05 6.19-4.75 8.42-7.99 5.24-7.64 4.75-16.91 4.42-25.76l-.31-8.21c-.11-2.91-.42-5.81-.48-8.71-.04-2.04-3.17-2.05-3.17 0Z"/><path d="M117.87 67.4c1.11-.2 1.66-.34 2.61-.07.39.11.06-.02.33.13.06.03.65.41.4.23.37.28.69.64.98 1s.99 1.65 1.2 2.17c.4.99.69 2.03.91 3.08s.28 1.44.34 2.53c.07 1.34-.03 2.69-.45 3.97-1.04 3.14-4.35 4.04-6.74 5.86-.72.55-1.14 1.37-.74 2.27.35.8 1.27 1.33 2.15 1.05 2.9-.92 5.87-2.72 7.73-5.17s2.29-5.46 2.07-8.36c-.32-4.07-1.58-8.98-5.07-11.48-2.21-1.59-5.08-1.42-7.2.25-1.33 1.04.17 2.78 1.48 2.55Zm-9.63 50.33c.28-3.02.33-6.07.35-9.1 0-.98-.87-1.92-1.88-1.88s-1.88.82-1.88 1.88c.02 3.03.07 6.08.35 9.1.07.79.65 1.56 1.52 1.52s1.44-.67 1.52-1.52Zm6.23 9.1c4.69 1.22 9.33 2.83 13.93 4.37 4.77 1.6 9.53 3.32 14.19 5.21 2.37.96 4.77 2.15 6.65 3.92 1.82 1.71 3.15 3.78 4.26 6.01 1.88 3.77 3.09 7.64 3.97 11.74.51 2.38.98 4.76 1.5 7.14.45 2.07 1.13 4.14 1.94 5.78 1.01 2.05 4.12.59 3.6-1.52-.17-.67-.22-1.29-.38-2.2-.18-1.06-.38-2.11-.58-3.16-.42-2.18-.78-4.37-1.18-6.55-.82-4.45-2.15-8.54-4.06-12.66-2.39-5.16-5.92-9.29-11.12-11.76-4.96-2.35-10.35-4.04-15.59-5.66s-10.8-2.61-16.24-3.9c-2.1-.5-2.99 2.69-.89 3.24"/><path d="M119.23 74.35c-.97.29-1.83.81-2.58 1.49-.37.34-.69.73-.97 1.14-.12.17-.23.35-.32.53-.13.27-.28.56-.33.86-.05.35-.07.7.13 1.01.16.24.36.42.63.54.57.24 1.34.05 1.64-.54.13-.26.22-.53.34-.8l-.13.32c.06-.13.11-.27.17-.41l-.13.32c.17-.4.39-.77.65-1.11l-.2.26c.24-.3.5-.58.81-.82l-.25.19c.33-.25.69-.46 1.07-.63l-.29.12c.13-.06.27-.11.4-.15.3-.1.56-.28.72-.56.15-.26.22-.64.12-.93-.2-.61-.84-1.04-1.49-.85Zm-53.75-9.02c2.67-3.49 4.33-7.74 4.74-12.12.16-1.69.17-3.49 1.07-4.93 1.52-2.42 4.84-2.78 7.7-2.89 3.99-.15 7.98-.31 11.98-.46 3.16-.12 6.32-.24 9.47-.11 3.82.17 8.25 1.14 9.89 4.6.86 1.81.74 3.9 1.05 5.88.55 3.48 2.55 6.71 5.43 8.75.38-3.35 1.22-6.64 2.5-9.77.66-1.62 1.44-3.22 1.63-4.95.19-1.74-.37-3.68-1.86-4.6-.83-.51-1.87-.67-2.58-1.33-1.24-1.17-.84-3.17-.7-4.87.44-5.3-2.84-10.44-7.33-13.28S98.46 21.6 93.15 21.8s-10.54 1.34-15.8 2.12c-3.88.58-7.82.97-11.5 2.3s-7.16 3.77-8.77 7.35c-2.22 4.94.06 11.44 4.88 13.9-2.96 4.94-2.37 11.76 1.39 16.12"/><path d="M66.63 66.48c3.26-4.14 5.03-8.83 5.54-14.06.2-2.04.54-3.76 2.66-4.5s4.64-.62 6.91-.7c5.89-.21 11.82-.62 17.71-.46 3.71.1 8.69.61 9.54 4.99.27 1.4.27 2.84.51 4.25.22 1.29.66 2.52 1.21 3.71 1.12 2.45 2.94 4.46 5.1 6.04 1.36 1 2.84-.4 3-1.72.27-2.25.79-4.48 1.49-6.64.69-2.12 1.79-4.11 2.34-6.26.51-1.97.48-4.08-.46-5.91a5.74 5.74 0 0 0-1.78-2.04c-.7-.49-1.88-.62-2.46-1.22-.82-.85-.06-3.32-.06-4.39 0-1.96-.43-3.9-1.19-5.71-1.53-3.66-4.31-6.72-7.72-8.72-7.89-4.63-17.35-3.68-25.98-2.32-4.69.74-9.49 1.18-14.12 2.21-3.99.89-7.93 2.52-10.88 5.44-3.09 3.06-4.46 7.18-3.77 11.47.63 3.92 3.11 7.55 6.63 9.43-.27-1.01-.53-2.02-.8-3.04-3.46 5.97-2.66 13.56 1.74 18.8.77.92 2.33.79 3.13 0 .91-.91.77-2.21 0-3.13-3.1-3.71-3.44-9.3-1.04-13.44.58-1.01.27-2.47-.8-3.04-2.46-1.31-4.08-3.71-4.53-6.45-.47-2.83.56-5.48 2.58-7.47 2.53-2.5 5.97-3.68 9.38-4.39 4.18-.88 8.46-1.37 12.67-2.09 7.49-1.29 15.95-2.57 22.99 1.15 2.94 1.55 5.42 3.97 6.75 7.05.63 1.46.94 3.04.89 4.62s-.41 3.16.02 4.73c.26.93.78 1.75 1.52 2.37s1.72.82 2.55 1.33c1.47.89 1.11 2.95.67 4.32-.68 2.14-1.7 4.15-2.35 6.3-.69 2.31-1.13 4.66-1.41 7.05 1-.57 2-1.15 3-1.72-1.8-1.32-3.24-3.25-3.97-5.36-.86-2.49-.49-5.22-1.43-7.68-1.78-4.63-6.78-6.09-11.3-6.41-6.09-.42-12.3.17-18.39.43-4.44.19-10.8-.27-13.27 4.36-1.36 2.54-.93 5.67-1.56 8.42-.7 3.05-2.01 5.88-3.83 8.43-1.06 1.49 1.42 3.44 2.56 1.98Zm21.64 2.31c-.33 2.98-.34 6-.44 9q-.075 2.25-.18 4.5c-.07 1.5-.16 3.03.15 4.52.3 1.42 2.26 1.2 2.67 0 .49-1.42.53-3.02.6-4.52s.12-3 .16-4.5c.08-2.99.13-6.02-.22-9-.21-1.75-2.54-1.77-2.73 0Z"/><path d="M88.5 88.13c-2.37-1.3-5.21.19-7.82.92-1.86.52-3.82.63-5.74.45-.25-.02-.51-.05-.74.05-.41.18-.57.68-.57 1.12-.02 2.26 2.52 3.65 4.76 3.99 2.94.45 6.02-.02 8.69-1.32.55-.26 1.09-.57 1.7-.63 1.67-.16 3.67 1.13 5.42 1.26 3.89.29 7.64-1.08 10.94-3.04-2.06-.44-4.14-.89-6.07-1.75-1.24-.56-2.41-1.28-3.7-1.73-2.56-.89-5.04.11-7.24 1.44"/><path d="M89.23 86.89c-3.61-2.36-7.42.4-11.16.69-1.9.15-4.56-.74-5.82 1.16-1 1.5-.6 3.52.42 4.9 2.24 3.04 6.62 3.45 10.06 2.97 2.03-.29 3.76-1.02 5.62-1.83 1.45-.63 3.2.61 4.64.93 4.48.97 9.31-.91 13.1-3.16 1.31-.77 1.16-3.06-.44-3.4s-3.25-.67-4.82-1.24-2.97-1.49-4.52-2.1c-3.15-1.24-6.37-.27-9.15 1.4-2.16 1.3-.21 4.67 1.98 3.39 1.11-.65 2.28-1.3 3.57-1.51 1.39-.22 2.58.3 3.8.9 2.63 1.31 5.29 2.1 8.15 2.74l-.44-3.4c-2.47 1.41-5.2 2.57-8.08 2.75-1.38.09-2.5-.11-3.8-.54s-2.67-.83-4.05-.6c-1.29.22-2.43 1-3.68 1.38-1.34.4-2.7.58-4.1.55-1.2-.02-2.42-.13-3.5-.67-.46-.23-1.63-1.03-1.34-1.47l-.71.71c.11-.08 1.1.08 1.33.08.59 0 1.19-.03 1.78-.08 1.27-.13 2.5-.36 3.72-.76 1.99-.64 4.24-1.9 6.35-1.18 1.59.54 2.41-1.76 1.1-2.61Zm-7.72-13.51c-.06-.02-.11-.03-.17-.05l1.22 1.22v-.01c-.06-.23-.16-.43-.32-.61-.13-.19-.29-.35-.5-.46l-.43-.18a1.9 1.9 0 0 0-.95 0c-.03 0-.06.01-.1.02l-.42.18c-.21.11-.37.26-.5.45-.11.11-.19.24-.23.39-.11.21-.16.44-.15.68l.06.47.18.42c.11.21.26.37.45.5.17.16.37.26.6.32.03 0 .06.01.1.02.24.07.47.08.71.03q.36-.015.66-.21l.36-.28c.22-.22.37-.48.46-.79v-.01l-1.22 1.22c.06-.02.11-.03.17-.05l.4-.17c.2-.11.36-.25.48-.44.11-.11.18-.23.22-.37.11-.2.15-.42.15-.65l-.06-.45-.17-.4c-.11-.2-.25-.36-.44-.48-.16-.15-.36-.25-.58-.3Z"/><path d="M83.52 64.48c-3.39-.65-7.65-1.28-10.79.6-3.28 1.96-3.49 6.27-3.32 9.7.17 3.63 2.12 6.9 5.45 8.5s7.68 1.66 11.08.1c1.64-.75 3.02-2.1 3.91-3.66.98-1.74 1.28-3.53.9-5.48-.33-1.65-2.75-1.17-2.82.38-.09 2.14-1.09 4.34-3 5.43-2.21 1.27-5.51 1.22-7.81.22-2.09-.9-3.69-2.71-3.93-5.02-.14-1.36-.05-2.81.09-4.17.1-.96.32-2.04 1.13-2.65.93-.69 2.22-.85 3.34-.93 1.8-.14 3.61-.28 5.41-.31 1.5-.03 1.95-2.41.37-2.72Z"/><path d="m64.67 71.46 3.01.12c.49.02.98.03 1.47.04s1.04.08 1.53.02c.44-.05.81-.14 1.13-.47.28-.28.49-.73.47-1.13s-.15-.84-.47-1.13c-.33-.31-.69-.41-1.13-.47-.5-.06-1.03 0-1.53.02s-.98.03-1.47.04l-3.01.12c-.74.03-1.46.63-1.42 1.42s.62 1.39 1.42 1.42m33.4 5.19c.06.02.11.03.17.05l-1.22-1.22v.01c.06.23.16.43.32.61.13.19.29.35.5.46l.43.18c.32.08.63.08.95 0 .03 0 .06-.01.1-.02l.42-.18c.21-.11.37-.26.5-.45.11-.11.19-.24.23-.39.11-.21.16-.44.15-.68l-.06-.47-.18-.42c-.11-.21-.26-.37-.45-.5-.17-.16-.37-.26-.6-.32-.03 0-.06-.01-.1-.02-.24-.07-.47-.08-.71-.03q-.36.015-.66.21l-.36.28c-.22.22-.37.48-.46.79v.01l1.22-1.22c-.06.02-.11.03-.17.05l-.4.17c-.2.11-.36.25-.48.44-.11.11-.18.23-.22.37-.11.2-.15.42-.15.65l.06.45.17.4c.11.2.25.36.44.48.16.15.36.25.58.3Z"/><path d="M96.43 67.19c1.6.03 3.21.15 4.8.27 1.1.08 2.24.15 3.26.59 2.21.96 1.97 4.07 1.96 6.08-.01 2.51-1.04 4.48-3.24 5.75s-5.39 1.43-7.83.51c-2.35-.88-3.62-3.38-3.72-5.78-.07-1.54-2.49-2.05-2.82-.38-.67 3.37.96 6.66 3.77 8.56 2.96 2.01 7.55 2.2 10.84 1.01 3.35-1.2 6.03-3.99 6.58-7.58.27-1.78.19-3.63 0-5.42s-.69-3.63-2.08-4.9c-3.11-2.84-8.11-2.14-11.88-1.43-1.57.3-1.15 2.69.37 2.72Z"/><path d="m114.91 68.61-3.01-.12c-.49-.02-.98-.03-1.47-.04s-1.04-.08-1.53-.02c-.44.05-.81.14-1.13.47-.28.28-.49.73-.47 1.13s.15.84.47 1.13c.33.31.69.41 1.13.47.5.06 1.03 0 1.53-.02s.98-.03 1.47-.04l3.01-.12c.74-.03 1.46-.63 1.42-1.42s-.62-1.39-1.42-1.42m-38.56-8.94c.3-.2.6-.38.92-.55.15-.08.32-.19.49-.23-.41.11.14-.05.22-.08.68-.25 1.36-.43 2.07-.56.2-.03.18-.03-.07 0l.27-.03c.18-.02.36-.03.54-.04.36-.01.72 0 1.07.02.18.01.36.03.54.05.21.03.18.02-.08-.01.09.01.18.03.27.04.47.07.92.13 1.4.15 1.68.08 2.27-2.34.85-3.13-1.68-.94-3.81-.83-5.64-.48s-3.36 1.19-4.75 2.34c-.61.51-.57 1.52-.12 2.09s1.39.85 2.06.41Zm26.89-5.33c-1.4-.6-2.84-1.08-4.35-1.31-.78-.12-1.56-.24-2.35-.16-.44.05-.9.1-1.33.24-.67.22-1.15.62-1.54 1.19-.75 1.09.24 2.65 1.5 2.61.4-.01.78-.09 1.17-.19.16-.04.31-.08.47-.11.39-.09-.39.02-.02 0 .61-.02 1.21-.04 1.82 0 .31.02.62.04.93.08.07 0 .13.02.2.02q-.36-.045-.06 0c.15.03.31.05.46.08.64.12 1.26.27 1.88.46.76.23 1.58-.22 1.88-.92.28-.66.08-1.68-.65-1.99ZM69.5 118.15c1.51 1.31 3.35 2.32 5.05 3.35 1.79 1.08 3.59 2.16 5.39 3.23s3.49 2.05 5.24 3.08 3.66 2.61 5.69 2.84c1.26.14 2.23-1.6 1.5-2.61-1.16-1.59-3.4-2.45-5.09-3.42-1.81-1.05-3.62-2.1-5.44-3.14-1.76-1-3.53-1.99-5.29-2.99s-3.64-2.15-5.59-2.84c-1.39-.49-2.58 1.54-1.46 2.51Z"/><path d="M106.22 116.31c-4.91 4.33-10.51 7.97-16.32 10.95-2.19 1.12-.25 4.45 1.93 3.31 6.12-3.19 11.59-7.3 16.55-12.1 1.42-1.38-.69-3.44-2.15-2.15Z"/><path d="M68.11 112.69c-2.51 2.11-5.38 4.59-5.99 8-.71 3.93 1.84 7.22 3.96 10.24 2.35 3.36 4.82 6.71 7.53 9.8 1.16 1.32 2.62 2.51 4.44 2.64 1.92.14 3.47-.98 4.9-2.11 3.39-2.67 6.31-5.82 8.85-9.3l-3 .39c3.46 3.68 6.92 7.36 10.38 11.03.68.72 2 .73 2.67 0 2.69-2.91 5.38-5.83 8.07-8.74 2.27-2.46 4.79-4.88 6.45-7.82 1.44-2.56 2.1-5.53 1.22-8.4-.8-2.59-2.72-4.85-5.45-5.42-2.34-.49-3.33 3.1-.99 3.59 1.86.39 2.88 2.1 3.1 3.91.28 2.37-1.03 4.62-2.43 6.42-1.79 2.31-3.92 4.38-5.9 6.52-2.25 2.42-4.49 4.84-6.74 7.27h2.67c-3.45-3.69-6.9-7.38-10.35-11.06-.91-.98-2.31-.56-3 .39a43 43 0 0 1-7.94 8.24c-.57.45-1.35 1.23-2.13 1.26-.73.03-1.39-.76-1.83-1.24-1.38-1.5-2.63-3.15-3.87-4.76s-2.53-3.38-3.73-5.11c-1.08-1.56-2.42-3.21-3.05-5.02-1.21-3.48 1.96-6.49 4.32-8.57 1.47-1.3-.67-3.39-2.14-2.14Z"/><path d="M85.96 137.49c-.22.86.9 1.37 1.6 1.92 1.11.87 1.37 2.47 1.13 3.85s1.12-4.65.71-3.31c-.75 2.44.5-2.5 0 0-1.1 5.46-7.98 25.42-7.17 30.93 6.37.81 12.85.73 19.2-.25.44-.07.91-.16 1.21-.49.41-.46.32-1.16.19-1.76-1.69-8-6.12-20.77-10.28-27.82-.6-1.01.19 3.02-.05 1.87s0-2.47.89-3.23c.31-.26.7-.48.8-.87.07-.31-.07-.62-.21-.9-.83-1.71-1.67-3.41-2.5-5.12a8.6 8.6 0 0 0-3.83 4.42"/><path d="M84.48 137.08c-.14.83-.06 1.51.43 2.2.42.61 1.11.89 1.58 1.44.83.96.21 2.14.39 3.24.26 1.63 2.63 1.7 3.37.44.4-.68.51-1.62.69-2.37.21-.88.54-1.88.36-2.78-.29-1.45-2.21-1.77-3.18-.84-.28.27-.42.63-.55.99-.09.26-.46 1.01-.06.28l1.65-.95 1.91 1.91c0 .86 0 .11.09-.21.08-.3.43-.99.02-.24l-2.62.69c-.32-.55-.63-1.1-.95-1.65 0 .07.12-.54.02-.18-.05.17-.07.35-.11.53-.08.36-.16.71-.25 1.06-.22.86-.45 1.71-.7 2.57-.64 2.26-1.32 4.52-1.97 6.78-1.41 4.89-2.86 9.8-3.8 14.81-.36 1.95-.8 4.09-.54 6.09.15 1.16.78 1.82 1.96 1.96 5.34.66 10.74.74 16.09.16 2.14-.23 5.59-.11 6.4-2.64.58-1.81-.37-4.18-.83-5.96-2.09-7.93-4.89-15.93-8.79-23.17-.42-.78-.82-1.76-1.53-2.31-1.08-.84-2.63-.28-3.04.99-.16.5-.1 1.03-.04 1.54.04.39.1.79.16 1.18.04.27 0 .85 0 0 1.23-.17 2.47-.33 3.7-.5-.47-1.71 1.69-2.24 1.7-3.96 0-1.13-.72-2.2-1.2-3.19-.59-1.21-1.19-2.42-1.77-3.63-.44-.92-1.75-1.14-2.57-.67-2.22 1.27-3.8 3.16-4.72 5.53-.38.97.41 2.08 1.33 2.34 1.1.31 1.95-.39 2.34-1.33.59-1.4 1.64-2.53 2.94-3.3-.86-.22-1.71-.45-2.57-.67.46.92.91 1.84 1.36 2.77.27.55 1.1 1.89 1.09 2.3l.26-.95c-.19.4-.76.74-1.05 1.11-.37.49-.66 1.07-.81 1.67-.25.95-.23 2.03.03 2.97.56 2.05 3.7 1.63 3.7-.5 0-.27-.15-1.04-.15-1.08.02.13-.04-.39-.05-.52-.01-.09.01-.21-.01-.29-.06-.19-.09.35-.03.19l-.87 1.13.03-.02-1.46.19c-.93-.87-1.2-1.02-.82-.44l.3.54c.21.37.41.75.61 1.13.42.81.83 1.63 1.22 2.46a86 86 0 0 1 2.17 5.05c1.48 3.73 2.78 7.54 3.9 11.39.49 1.67.94 3.35 1.33 5.04.09.41.19.81.27 1.22.04.17.07.35.1.52.41-.43.38-.56-.07-.4-.39-.14-1.43.2-1.86.25-.64.08-1.28.14-1.92.2-4.96.45-9.95.34-14.9-.27l1.96 1.96c-.22-1.66.06-3.2.33-4.67.43-2.41 1.01-4.78 1.63-7.15 1.26-4.85 2.74-9.65 4.07-14.48.45-1.65 1.23-3.61 1.22-5.35 0-.64-.35-1.36-.95-1.65-.9-.45-2.1-.28-2.62.68-.35.64-.62 1.66-.61 2.39 0 1.06.87 1.88 1.91 1.91.65.02 1.34-.37 1.65-.95.12-.22.2-.47.29-.7.04-.11.08-.23.11-.34.09-.45.37-.2-.38.54l-3.18-.84c-.03-.14.08-1.15-.05-.61-.03.14-.05.28-.08.42-.08.38-.15.76-.23 1.15s-.15.74-.23 1.11c-.07.3-.37.95.03.21 1.12.15 2.25.29 3.37.44.1.46 0 1.11.09.28.04-.36.08-.7.06-1.06a6.3 6.3 0 0 0-.55-2.28c-.3-.66-.73-1.24-1.3-1.7-.23-.19-.48-.35-.73-.52s-.52-.52-.53-.21c.03-1.68-2.72-2.14-3.01-.41Z"/><path d="M66.75 132.14c.18 7.87 3.1 15.41 5.46 22.84 1.19 3.76 2.38 7.53 3.57 11.29.51 1.62.86 3.69 1.98 5.02 1.1 1.3 2.75 1.73 4.1.57 1.19-1.03-.08-2.92-1.48-2.55.48-.13.18.13.07-.32-.07-.27-.25-.57-.34-.85-.26-.78-.49-1.57-.74-2.35-.53-1.64-1.06-3.29-1.59-4.93-1.04-3.21-2.07-6.42-3.11-9.63-1-3.11-2.09-6.18-3.1-9.29-1.02-3.15-2.13-6.47-2.25-9.81-.06-1.64-2.6-1.65-2.56 0Zm47.4-6.21c-2.27 7.39-4.11 14.91-5.94 22.41-.91 3.72-1.81 7.43-2.72 11.15-.91 3.75-2.15 7.58-2.59 11.41-.1.87.75 1.63 1.53 1.73.92.12 1.62-.43 1.94-1.26.67-1.77 1.03-3.7 1.48-5.54s.9-3.72 1.35-5.58l2.69-11.15c1.8-7.44 3.59-14.89 4.95-22.43.32-1.75-2.16-2.49-2.7-.74Zm-82.34 26.59c-.42 3.04-.82 6.1-.93 9.17s-.33 6.19.07 9.18c.13.94.71 1.75 1.75 1.75.98 0 1.71-.8 1.75-1.75.06-1.52-.09-3.07-.12-4.59s-.04-2.94-.03-4.41c.03-3 .02-5.99.16-8.99.07-1.49-2.44-1.88-2.65-.36m109.64 2.31c-.04 2.78-.08 5.57-.25 8.34-.09 1.36-.2 2.72-.35 4.08-.16 1.42-.63 2.94-.31 4.35.34 1.49 2.38 1.6 3.13.41.8-1.28.79-3.14.95-4.6s.27-2.82.32-4.24c.1-2.95-.06-5.83-.54-8.74-.28-1.71-2.92-1.24-2.95.4"/></svg>