<?xml version="1.0" encoding="UTF-8"?><svg xmlns="http://www.w3.org/2000/svg" viewBox="0 0 180 180"><path d="M62.89 59.44c-.11 4.97-.53 9.96-.72 14.93-.18 4.81-.54 9.7-.11 14.51.75 8.28 4.65 15.72 11.62 20.43 1.72 1.16 3.56 2.17 5.5 2.91 1.98.75 3.97 1.81 6.1 2.01 1.3.12 1.59-1.71.63-2.31-1.45-.92-3.16-1.39-4.63-2.31-1.42-.89-2.81-1.94-4.1-3.01-2.61-2.17-5.06-4.65-6.87-7.53-4.46-7.1-3.62-15.66-3.77-23.69l-.15-7.72c-.05-2.74-.3-5.48-.31-8.21 0-2.04-3.13-2.04-3.17 0Z"/><path d="M63.62 64.85c-1.91-1.5-4.38-1.8-6.55-.66-1.85.98-3.12 2.82-3.94 4.69-1.91 4.32-2.81 10.14-.45 14.46 1.68 3.06 5.21 5.24 8.46 6.27.85.27 1.82-.25 2.15-1.05.37-.91 0-1.71-.74-2.27-2.39-1.82-5.68-2.72-6.74-5.86-.43-1.28-.52-2.63-.45-3.97.05-1.09.11-1.46.34-2.53s.51-2.08.91-3.08c.11-.28.33-.75.56-1.16.14-.25.3-.5.45-.74 0 0 .36-.49.19-.27.28-.36.61-.72.98-1-.25.19.34-.19.4-.23.37-.2-.13.01.24-.1.99-.3 1.56-.15 2.7.05 1.31.23 2.81-1.5 1.48-2.55Zm15.19 59.74c.28-4.98.33-9.97.35-14.96.01-2.41-3.76-2.42-3.75 0 .02 4.99.07 9.98.35 14.96.11 1.96 2.94 1.96 3.05 0"/><path d="M74.31 121.63c-3.27.78-6.59 1.36-9.86 2.12s-6.21 1.53-9.29 2.39c-6.14 1.71-12.33 3.59-18.22 6.04-2.74 1.14-5.33 2.49-7.55 4.5-1.99 1.8-3.57 4.08-4.82 6.44-2.14 4.05-3.75 8.38-4.63 12.87-.49 2.49-.9 5-1.37 7.5-.37 1.98-.59 4.03-1.08 5.99-.52 2.09 2.58 3.59 3.6 1.52 1.75-3.54 2.3-7.49 3.09-11.32s1.82-7.79 3.48-11.53c.99-2.24 2.14-4.52 3.75-6.4 1.73-2.01 3.88-3.41 6.26-4.54 5.44-2.58 11.38-4.27 17.1-6.11 3.35-1.08 6.72-2.09 10.08-3.11s6.86-2.21 10.33-3.11c2.09-.54 1.21-3.74-.89-3.24ZM60.13 76.68c.14.04.27.09.4.15l-.29-.12c.38.16.74.38 1.07.63l-.25-.19c.3.24.57.52.81.82l-.2-.26c.26.34.48.71.65 1.11l-.13-.32c.06.14.11.27.17.41l-.13-.32c.11.27.2.54.34.8.14.27.49.54.78.6s.58.05.85-.07c.25-.11.5-.29.63-.54l.13-.31c.06-.23.06-.47 0-.7-.05-.3-.19-.59-.33-.86-.09-.19-.2-.36-.32-.53-.28-.41-.6-.81-.97-1.14a6.6 6.6 0 0 0-2.58-1.49c-.61-.18-1.35.22-1.49.85-.15.66.2 1.28.85 1.49Zm53.81-17.24c-.01 4.64-.33 9.3-.42 13.94s.01 9.13-.27 13.67c-.24 3.76-.98 7.42-2.8 10.75-1.65 3.02-3.97 5.51-6.5 7.82-1.39 1.27-2.91 2.36-4.44 3.45-1.68 1.2-3.67 1.75-5.4 2.84-.96.61-.67 2.43.63 2.31 1.85-.17 3.52-1.02 5.24-1.69s3.48-1.43 5.11-2.43c3.36-2.05 6.19-4.75 8.42-7.99 5.24-7.64 4.75-16.91 4.42-25.76l-.31-8.21c-.11-2.91-.42-5.81-.48-8.71-.04-2.04-3.17-2.05-3.17 0Z"/><path d="M117.87 67.4c1.11-.2 1.66-.34 2.61-.07.39.11.06-.02.33.13.06.03.65.41.4.23.37.28.69.64.98 1s.99 1.65 1.2 2.17c.4.99.69 2.03.91 3.08s.28 1.44.34 2.53c.07 1.34-.03 2.69-.45 3.97-1.04 3.14-4.35 4.04-6.74 5.86-.72.55-1.14 1.37-.74 2.27.35.8 1.27 1.33 2.15 1.05 2.9-.92 5.87-2.72 7.73-5.17s2.29-5.46 2.07-8.36c-.32-4.07-1.58-8.98-5.07-11.48-2.21-1.59-5.08-1.42-7.2.25-1.33 1.04.17 2.78 1.48 2.55Zm-13.63 57.19c.28-4.98.33-9.97.35-14.96.01-2.41-3.76-2.42-3.75 0 .02 4.99.07 9.98.35 14.96.11 1.96 2.94 1.96 3.05 0"/><path d="M104.8 124.87c6.09 1.58 12.12 3.62 18.13 5.5 5.93 1.86 11.88 3.75 17.64 6.07 2.37.96 4.77 2.14 6.65 3.89 1.83 1.7 3.15 3.79 4.26 6 1.88 3.75 3.11 7.64 3.99 11.73.93 4.33 1.45 8.91 3.43 12.92 1.01 2.05 4.13.59 3.6-1.52-.44-1.75-.62-3.59-.96-5.36-.42-2.18-.79-4.37-1.19-6.55-.82-4.46-2.13-8.54-4.05-12.67-2.39-5.15-5.92-9.32-11.11-11.78-5.71-2.71-11.98-4.58-18.05-6.32-3.53-1.02-7.08-1.98-10.66-2.82-3.58-.85-7.22-1.49-10.8-2.34-2.1-.5-2.99 2.69-.89 3.24Zm14.43-50.52c-.97.29-1.83.81-2.58 1.49-.37.34-.69.73-.97 1.14-.12.17-.23.35-.32.53-.13.27-.28.56-.33.86-.05.35-.07.7.13 1.01.16.24.36.42.63.54.57.24 1.34.05 1.64-.54.13-.26.22-.53.34-.8l-.13.32c.06-.13.11-.27.17-.41l-.13.32c.17-.4.39-.77.65-1.11l-.2.26c.24-.3.5-.58.81-.82l-.25.19c.33-.25.69-.46 1.07-.63l-.29.12c.13-.06.27-.11.4-.15.3-.1.56-.28.72-.56.15-.26.22-.64.12-.93-.2-.61-.84-1.04-1.49-.85Zm-49-25.53c.96 2.63.71 5.67-.68 8.1-.66 1.16-1.55 2.17-2.17 3.35-1.24 2.36-1.27 5.14-1.18 7.8.17 5.07.68 10.13 1.52 15.13.17 1.02.38 2.08 1.02 2.88.98 1.23 2.69 1.54 4.26 1.72 3.34.39 6.71.56 10.07.52 1.49-.02 3.05-.07 4.4.58s2.38 2.23 1.87 3.63c-.51 1.38-1.08 1.86-2.55 1.76s-4.03-.59-5.51-.57c-1.47.02-3.13.86-3.3 2.33-.2 1.65 1.52 2.86 3.08 3.44 2.62.98 5.46 1.38 8.25 1.16 1.23 3.56 1.86 7.34 1.85 11.11 0 .56-.04 1.17-.43 1.58-.41.43-1.06.48-1.65.49-4.41.1-8.83-.15-13.2-.77-2.24-.32-4.55-.76-6.36-2.1-1.84-1.36-2.96-3.5-3.72-5.66-3.5-9.96-.47-20.98-1.6-31.48-.22-2-.58-3.97-.82-5.97-.47-4.05-.38-8.15-.29-12.23.03-1.51.09-3.09.83-4.4.75-1.31 2.43-2.23 3.8-1.6"/><path d="M68.86 49.2c.41 1.42.42 2.84.13 4.28-.34 1.7-1.25 2.98-2.23 4.37-1.9 2.7-2.49 5.69-2.49 8.95 0 3.53.28 7.06.69 10.57.21 1.8.45 3.59.74 5.38.24 1.51.47 3.04 1.37 4.32 1.86 2.6 5.44 2.68 8.32 2.92 1.76.15 3.52.25 5.28.29 1.61.04 3.34-.18 4.93.11.94.17 1.88.6 1.8 1.61-.01.14-.32.46-.03.27-.27.17-1.29-.06-1.68-.11-2.62-.33-5.49-1.07-7.84.6-3.13 2.23-1.98 6.12.93 7.89s7.09 2.27 10.52 2.04l-1.98-1.5c1.03 3.04 1.65 6.17 1.75 9.38 0 .15.08 1.63-.02 1.64l.37-.47c-.28.01-.57.02-.85.02h-.98c-1.8 0-3.6-.06-5.39-.18-2.95-.2-6.05-.41-8.91-1.23-2.5-.72-4.07-2.37-5.08-4.73-2.36-5.5-2.19-11.84-2-17.7.2-6.15.18-12.19-.71-18.29-.54-3.68-.63-7.37-.58-11.08.02-1.27-.52-8.11 2.26-7.08 2.33.86 3.35-2.88 1.03-3.72-3.57-1.3-6.41 2.08-6.87 5.28-.54 3.69-.35 7.68-.16 11.4.19 3.76 1.01 7.44 1.26 11.19.25 3.67-.03 7.28-.25 10.94-.44 7.1-.7 14.61 2.29 21.25 1.39 3.09 3.69 5.38 6.91 6.47 3.38 1.15 7.28 1.31 10.82 1.51 2.27.13 4.59.22 6.86.09 1.91-.11 3.59-.87 4.02-2.9s.01-4.43-.28-6.47c-.31-2.18-.83-4.32-1.54-6.41-.27-.81-1.05-1.57-1.98-1.5-2.71.19-6.27.04-8.6-1.56-.57-.39-.99-.7-.26-1.09.88-.46 2.29-.11 3.21 0 2.23.27 4.91.99 6.58-.97 1.88-2.2 1.41-5.34-.77-7.12-2.44-1.99-5.88-1.45-8.8-1.49q-2.52-.03-5.04-.24c-1.46-.12-3.26-.1-4.63-.72-1.1-.5-1.22-1.65-1.41-2.72-.31-1.76-.55-3.54-.76-5.32-.39-3.36-.66-6.76-.75-10.14-.05-1.65-.03-3.33.45-4.93.51-1.69 1.73-2.95 2.55-4.48 1.58-2.95 1.74-6.26.52-9.37-.65-1.66-3.27-1.04-2.74.76Z"/><path d="M110.24 48.82c-.96 2.63-.71 5.67.68 8.1.66 1.16 1.55 2.17 2.17 3.35 1.24 2.36 2.73 2.4 2.64 5.06-.17 5.07-.05 12.7-.89 17.7-.17 1.02-2.48 2.24-3.12 3.05-.98 1.23-2.69 1.54-4.26 1.72-3.34.39-6.71.56-10.07.52-1.49-.02-3.05-.07-4.4.58-1.35.64-2.38 2.23-1.87 3.63.51 1.38 1.08 1.86 2.55 1.76s4.03-.59 5.51-.57c1.47.02 3.13.86 3.3 2.33.2 1.65-1.52 2.86-3.08 3.44-2.62.98-5.46 1.38-8.25 1.16a33.9 33.9 0 0 0-1.85 11.11c0 .56.04 1.17.43 1.58.41.43 1.06.48 1.65.49 4.41.1 8.83-.15 13.2-.77 2.24-.32 4.55-.76 6.36-2.1 1.84-1.36 2.96-3.5 3.72-5.66 3.5-9.96.47-20.98 1.6-31.48.22-2 .58-3.97.82-5.97.47-4.05.38-8.15.29-12.23-.03-1.51-.09-3.09-.83-4.4-.75-1.31-2.43-2.23-3.8-1.6"/><path d="M108.87 48.44c-1.22 3.11-1.06 6.43.52 9.37.74 1.37 1.66 2.74 2.51 4.05.57.88 1.68 1.69 1.92 2.73.26 1.17-.05 2.69-.08 3.89-.04 1.57-.07 3.14-.11 4.71-.04 1.47-.09 2.94-.17 4.41-.08 1.45 0 3.19-.43 4.59-.19.64-1.22 1.26-1.94 1.84-.41.33-.72.77-1.13 1.08-.53.41-1.27.54-1.91.66-3.61.64-7.41.61-11.06.57-3.13-.03-6.63.66-7.76 4.01-.97 2.86 1.15 5.92 4.13 5.96.9.01 7.11-1.34 7.1.04 0 .89-2.67 1.52-3.28 1.68-1.98.54-3.98.68-6.02.54-.93-.06-1.7.69-1.98 1.5-1.25 3.69-2.04 7.74-1.92 11.65.05 1.57.53 2.98 2.03 3.71 1.71.83 4.18.48 6.03.44 3.81-.07 7.68-.35 11.43-1.04 3.37-.62 6.21-2.15 8.14-5.04 3.9-5.83 3.83-13.82 3.52-20.54-.17-3.65-.56-7.3-.5-10.96s.75-7.3 1.15-10.98c.46-4.27.49-8.71.21-12.99-.13-1.95-.56-3.93-1.99-5.35-1.3-1.29-3.27-1.91-5.02-1.27-2.32.84-1.31 4.58 1.03 3.72 2.57-.95 2.21 4.62 2.24 5.86.07 3.34.09 6.7-.26 10.03-.32 3.06-.92 6.08-1.06 9.17s-.06 6.09 0 9.12c.12 6.1.55 12.31-1.31 18.22-.73 2.31-1.8 4.65-4.03 5.84-2.39 1.28-5.51 1.42-8.16 1.68-1.87.18-3.75.3-5.63.35q-1.35.03-2.7.03c-.09 0-1.33-.05-1.34-.02l.37.48c-.04-.15-.06-.3-.04-.46.23-1.68.1-3.4.38-5.09.31-1.86.78-3.69 1.39-5.48l-1.98 1.5c3.43.23 7.52-.21 10.52-2.04 2.8-1.7 4.07-5.44 1.14-7.73-2.51-1.96-5.67-1.02-8.54-.71-.29.03-.63.1-.92.07-.79-.07-.24-.02-.2 0 .19.14-.17-.41-.17-.54.04-1.49 2.64-1.46 3.59-1.46 3.76-.02 7.51-.11 11.25-.59 1.55-.2 3.09-.49 4.37-1.44.53-.39.91-.88 1.41-1.3.56-.47 1.17-.87 1.72-1.36 2.11-1.88 1.86-5.38 2.01-7.99.19-3.28.22-6.57.25-9.86.02-1.49.23-3.13-.27-4.56s-1.69-2.26-2.45-3.49c-1.02-1.65-2.43-3.22-3.08-5.06-.61-1.75-.7-3.66-.18-5.44.52-1.79-2.09-2.42-2.74-.76Z"/><path d="M63.21 53.55c-1.25-4.83-1.84-10.96.49-15.58 1.57-3.11 4.7-4.63 8.12-4.25.28.03.58.07.84-.05.3-.13.47-.43.64-.71 1.74-2.73 5.15-4.01 8.38-4.06s6.38.96 9.47 1.91c.33.1.68.2 1.01.1.34-.11.58-.41.82-.67 1.39-1.53 3.49-2.27 5.55-2.42s4.13.24 6.15.64c1.17.23 2.36.49 3.41 1.06s1.94 1.55 2.14 2.73c.13.78.38 1.96 1.14 1.73.2-.06.35-.23.5-.38 1.83-1.94 4.64-2.91 7.28-2.53 1.57.23 3.13.97 4.02 2.29 1.01 1.51.97 3.47.89 5.29 1.68-1.08 4.13-.46 5.33 1.13s1.24 3.89.36 5.68-2.54 3.12-4.37 3.92-3.83 1.12-5.82 1.31c-9.96.99-20.18-.93-29.1-5.48-.47 2.03-2.48 3.33-4.46 3.97-4.14 1.35-8.87.69-12.49-1.72-.92 2.33-3.64 3.8-6.1 3.27"/><path d="M64.69 53.14c-.53-2.86-.9-5.76-.69-8.68.17-2.43.76-5.32 2.56-7.11.77-.77 1.74-1.26 2.8-1.51 1.34-.31 2.82.23 4.08-.31s1.71-1.9 2.72-2.71c.94-.75 2.05-1.23 3.21-1.52 2.84-.71 5.81-.04 8.56.75 1.45.41 3.26 1.33 4.8.91 1.4-.39 2.18-1.84 3.53-2.41 2.72-1.15 5.97-.4 8.72.24 1.04.24 2.5.55 2.99 1.65.54 1.21.36 2.41 1.61 3.28.81.57 1.76.69 2.69.33.77-.3 1.23-.93 1.85-1.43 1.05-.83 2.39-1.29 3.72-1.32 1.14-.02 2.52.23 3.29 1.17.89 1.09.67 2.87.62 4.17-.07 1.79 2.02 2.86 3.5 2.01.98-.57 2.18.04 2.6 1.05.56 1.36-.05 2.92-1.02 3.92-2.7 2.8-7.39 2.86-11 2.96-8.35.22-16.7-1.64-24.16-5.41-1.35-.68-3.04-.13-3.46 1.41-.59 2.11-3.7 2.77-5.57 2.9-2.84.2-5.53-.51-7.92-2.04-.97-.63-2.72-.29-3.21.84-.75 1.72-2.23 2.45-4.07 2.22-2.5-.31-3 3.81-.59 4.37 3.46.81 7.27-.91 8.71-4.23l-3.21.84c3.43 2.22 7.57 3.11 11.61 2.55 3.7-.51 7.71-2.3 8.8-6.2l-3.46 1.41c7.62 3.83 16.02 5.94 24.56 6.04 4.33.05 9.12-.13 13.07-2.05 3.54-1.71 6.22-5.32 5.71-9.38-.57-4.57-5.53-7.64-9.72-5.23 1.17.67 2.33 1.34 3.5 2.01.08-2.07.04-4.28-1.01-6.13-.98-1.72-2.66-2.87-4.53-3.44-1.82-.56-3.87-.52-5.7 0-.91.26-1.83.64-2.64 1.13-.83.5-1.47 1.34-2.27 1.81l1.15-.31.17.05 1 .58c.25.2-.02-.17-.08-.42-.12-.53-.24-1-.48-1.49-.48-1-1.26-1.81-2.15-2.45-1.84-1.31-4.27-1.66-6.44-2.01-2.33-.38-4.67-.57-6.99-.04-1.05.24-2.12.65-3.04 1.22-.48.3-.94.65-1.36 1.03-.21.2-.74.74-.75.74h1.13c-1.88-.26-3.72-1.1-5.59-1.51-1.84-.41-3.77-.69-5.67-.58-3.19.18-6.54 1.33-8.66 3.83-.26.31-.54.64-.75.98-.18.29-.28.19-.05.18.49-.04-.22-.16-.22-.16-.76-.17-1.74.03-2.49.15a9.3 9.3 0 0 0-4.26 1.88c-2.7 2.11-3.88 5.48-4.28 8.78-.47 3.83.12 7.84 1.31 11.5.62 1.9 3.33 1.12 2.97-.82Zm22.94 13.99c-.72 4.96-1.41 10.03-1.47 15.05-.03 2.29.2 4.66 1.22 6.75 1.07 2.19 3.93 3.1 5.47.84.49-.73.21-1.8-.46-2.3-.76-.57-1.62-.43-2.34.14l-.2.16.8-.47c-.36.09-.31.15.16.19a.5.5 0 0 0-.16-.29c-.04-.28-.26-.61-.34-.89-.25-.8-.38-1.61-.44-2.44-.12-1.68 0-3.38.05-5.06.11-3.77.38-7.52.77-11.27.18-1.72-2.8-2.15-3.05-.41Z"/><path d="M83.87 68.44c-1.39-.34-2.79-.6-4.21-.8-1.42-.19-2.89-.41-4.33-.31-1.55.11-2.89.85-3.56 2.29-.62 1.33-.83 2.87-1.01 4.31-.34 2.78.19 5.78 2.18 7.87 1.91 2 4.73 2.44 7.36 2.59 1.57.09 3.15.14 4.72-.02 1.51-.15 3.73-.29 4.47-1.88.43-.93.26-2.05-.68-2.61-.84-.49-2.15-.24-2.61.68.12-.15.26-.27.44-.34a8.5 8.5 0 0 1-1.34.25c-.65.07-1.31.09-1.97.09-1.33 0-2.67-.04-4-.16-2.04-.18-3.89-.88-4.52-3.01-.33-1.11-.32-2.29-.14-3.51.09-.64.23-1.28.38-1.9l.12-.44c.08-.23.1-.29.05-.16.08-.17.12-.24.19-.27.17-.06.81-.04 1.2-.04.77-.01 1.53-.03 2.3-.01 1.39.03 2.77.13 4.15.33.82.12 1.65-.2 1.88-1.07.21-.78-.26-1.69-1.07-1.88"/><path d="M80.42 77.82c1.83 0 1.83-2.84 0-2.84s-1.83 2.84 0 2.84m16.45-6.43c-.32.05.27-.03.33-.04.19-.02.39-.04.58-.05q.735-.06 1.47-.09c1.01-.05 2.01-.07 3.02-.07s1.95-.02 2.93-.02c.36 0 .72 0 1.08.01.06 0 .81.02.52.02.01 0 .38.07.12 0 .12.03.21.19.09.06-.19-.21.18.44.09.2.08.23.14.47.19.7.15.65.29 1.3.38 1.96.08.62.11 1.26.08 1.88 0 .13-.02.27-.03.4-.04.43.04-.2-.02.16-.05.33-.13.65-.23.97-.07.23-.13.39-.16.46-.11.23-.24.45-.37.67s-.12.2-.37.46c-.23.24-.24.26-.43.38-.8.52-1.63.76-2.74.91.25-.03-.11 0-.13.01-.18.02-.36.03-.55.05-.33.03-.65.04-.98.06-.64.03-1.27.07-1.91.09-.53.01-1.06 0-1.58-.07.1.01.3.06-.1-.02l-.45-.09c-.16-.03-.33-.08-.5-.11l-.18-.05c.17.07.32.18.44.34-.45-.92-1.77-1.18-2.61-.68-.96.56-1.12 1.67-.68 2.61.73 1.57 2.96 1.76 4.47 1.92 1.28.13 2.6.04 3.87-.05 3.09-.22 6.15-1.07 7.87-3.87 1.77-2.89 1.45-6.59.6-9.72-.44-1.61-1.44-2.98-3.14-3.37-1.19-.27-2.5-.11-3.7-.05-2.68.15-5.45.46-8.07 1.08-.8.19-1.28 1.11-1.07 1.88.24.88 1.06 1.19 1.88 1.07Z"/><path d="M101.89 77.82c1.83 0 1.83-2.84 0-2.84s-1.83 2.84 0 2.84m-7.93-5.09c-.37 1.99-.69 4.03-.71 6.11-.01 1.09.03 2.22.52 3.22.68 1.39 2.65 2.22 3.87.99.61-.62.66-1.73 0-2.34-.2-.18-.4-.31-.63-.45-.19-.12-.26-.18-.04 0-.14-.15-.12-.12.05.07-.1-.18-.09-.17.01.05-.07-.05-.08-.32-.1-.42-.08-.36-.13-.72-.19-1.09-.03-.22-.06-.44-.1-.67-.02-.11-.03-.22-.05-.33.02.14.02.15 0 .02-.2-1.62-.27-3.21-.11-4.84.06-.63-.53-1.19-1.11-1.26s-1.29.28-1.41.92ZM77.8 63.61c.16-.07.19-.08.09-.04.1-.04.19-.08.29-.12a14 14 0 0 1 2.57-.72c.21-.04.41-.08.62-.11.06-.01.56-.08.41-.06s.35-.03.41-.04c.18-.02.37-.03.55-.04.37-.02.73-.02 1.1 0s.73.04 1.1.08c.08 0 .16.02.23.03-.19-.02-.18-.02.02 0 .32.05.59.08.91.06.69-.05 1.39-.46 1.55-1.18.15-.65-.08-1.52-.74-1.82-.94-.43-1.98-.49-3-.5-.91 0-1.81.08-2.71.22-1.7.26-3.35.92-4.84 1.78-.64.37-.92 1.3-.51 1.95.45.71 1.22.83 1.95.51m25.67-4.73c-1.41-.71-2.91-1.26-4.47-1.55-.83-.15-1.67-.26-2.51-.3-1-.05-1.94-.02-2.81.53-1.23.78-.97 2.57.4 3.03.43.14.86.23 1.32.2.34-.02.68-.06 1.03-.07.71-.03 1.42 0 2.12.07.09 0 .62.04.19.02.17 0 .34.05.51.08a15.3 15.3 0 0 1 3.01.89c.73.3 1.6-.27 1.88-.92.29-.69.06-1.63-.65-1.99Z"/><path d="M88.19 74.63c.84.3 1.69.54 2.58.67.98.14 1.98.27 2.97.21.82-.05 1.61-.69 1.57-1.57s-.69-1.55-1.57-1.57c-1.04-.02-2.07-.03-3.11-.16l.41.05c-.4-.06-.8-.1-1.2-.15l.4.05c-.43-.06-.87-.13-1.3-.22-.71-.15-1.54.21-1.72.98s.24 1.46.98 1.72Zm-22.58-4c.47.46 1.06.78 1.62 1.13.47.29.96.56 1.44.83s.97.55 1.45.83l.7.4c.13.07.26.17.4.23.14.09.09.05-.14-.12-.13-.14-.22-.3-.28-.48l-.06-.43v.07l.06-.43v.04c.12-.24.26-.48.4-.71.68-.6 1.4-.51 2.17.29l.15 1.16v-.03c-.12.22-.25.44-.38.66l.02-.03c.21-.27.36-.5.41-.85.04-.31 0-.67-.18-.94-.38-.59-.99-.79-1.67-.68-.54.09-.95.59-1.11 1.07-.13.4-.04.9.17 1.26.48.83 1.54 1.1 2.37.64 1.02-.57 1.09-2.07.29-2.85-.37-.36-.83-.58-1.29-.82-.81-.43-1.62-.87-2.44-1.3-.39-.21-.78-.41-1.18-.6-.51-.25-1.01-.54-1.56-.67-.59-.14-1.3.09-1.6.65s-.24 1.26.22 1.71Zm48.17-4.02-2.14 1.92-1.06.95-.53.47-.25.22c-.19.17-.33.35-.48.55l-.16.37c-.06.21-.07.41-.03.62.04.33.18.66.43.89.5.46 1.28.62 1.88.24.48-.3.89-.76 1.3-1.15l1.06-1 2.09-1.98c.57-.54.59-1.58 0-2.12-.63-.57-1.5-.56-2.12 0ZM38.96 172.12c5.09-5.58 8.32-12.18 11.23-19.09 3.08-7.33 6.27-14.9 7.46-22.81.16-1.05-.26-2.11-1.37-2.41-.92-.25-2.26.31-2.41 1.37-1.11 7.68-4.2 14.87-6.99 22.05-2.56 6.57-5.48 13.33-9.9 18.9-1.1 1.38.74 3.36 1.99 1.99Zm25.62-46.44c-1.46 6.36.4 13.17 3.14 18.92 2.59 5.44 6.3 11.06 11.96 13.63 3.06 1.39 6.39 1.93 9.72 2.1 3.3.17 6.73.05 9.9-.95 5.63-1.77 9.85-6.32 12.2-11.62 3.17-7.14 3.02-15.05 2.76-22.69-.09-2.53-4.02-2.54-3.94 0 .33 10.24.56 24.21-10.07 29.73-2.58 1.34-5.53 1.67-8.4 1.69-2.85.02-5.74-.18-8.49-.97-5.44-1.58-8.84-6.07-11.5-10.81-1.57-2.79-2.81-5.73-3.62-8.83-.85-3.27-.97-6.44-.73-9.8.12-1.68-2.56-2.03-2.93-.4m61.13 5.81c.43 3.45 1.44 6.84 2.41 10.17.97 3.34 2.02 6.67 3.29 9.91 2.53 6.42 5.74 12.74 10.56 17.76 1.3 1.36 3.87-.49 2.67-2.06a71.4 71.4 0 0 1-9.63-17.11c-1.23-3.12-2.3-6.29-3.28-9.49s-1.73-6.5-3.01-9.58c-.3-.71-.86-1.21-1.68-1.1-.68.09-1.42.75-1.33 1.5m-10.49 38.12c.17-.76.2-1.53.3-2.3l-1.74 1.74c1.05-.02 2.07.32 3.14.37.99.05 2.09-.17 2.91-.76 1.85-1.32 2.09-4.36-.04-5.57-2.25-1.28-4.27.9-4.75 2.95-.28 1.21-.24 2.47.73 3.36.83.76 1.96.9 3.03.95 2.5.11 5.11.39 7.61.1.83-.1 1.54-.56 1.64-1.45.09-.77-.37-1.67-1.2-1.83-1.91-.37-3.89-.39-5.83-.45-.93-.03-1.86-.03-2.78-.1.42.03-.04-.02-.14-.04-.35-.07.07.03.17.13-.05-.05.38.48.25.64.08-.1.08-.42.12-.55.02-.06.19-.51.1-.33-.05.12-.03.09.05-.08.1-.16.11-.18.03-.08-.09.1-.07.08.05-.05-.18.11-.21.14-.1.07.12-.07.08-.05-.12.05-.1.04-.21.05-.31.03-.22 0-.41-.1-.58-.29.11.12.12.12.02.01a.46.46 0 0 1-.15-.27c.04.17.05.18.02.03-.02-.15-.02-.14-.01.04.04-.23.05-.27.01-.14s-.02.09.06-.11c-.09.14-.1.16-.03.05.05-.2.21-.16-.07 0-.11.06-.1.05.04-.01-.08.03-.17.05-.25.07-.13.03-.11.03.04 0-.09 0-.18.02-.27.02h-.53c-.93-.06-1.9-.34-2.87-.25-.86.08-1.86.74-1.74 1.74.09.77.11 1.53.27 2.3.3 1.46 2.6 1.43 2.92 0Z"/><path d="M76.22 145.09c1.38-.46 2.78-.88 4.14-1.41.34-.13.62-.3.81-.62.17-.29.24-.72.14-1.05-.23-.7-.94-1.16-1.67-.95-1.4.39-2.78.9-4.16 1.36-.34.11-.64.32-.83.64-.17.3-.25.73-.14 1.07.22.68.97 1.21 1.7.97Zm7.56-4.67c1.69.33 3.37.63 5.08.79.32.03.77-.17.98-.41s.34-.49.38-.8c.09-.64-.32-1.38-1-1.53-1.68-.35-3.38-.56-5.09-.75-.31-.04-.76.18-.97.4s-.34.48-.38.79c-.08.63.31 1.37.98 1.5Zm-.84 7.76c1.79.68 3.73 1.03 5.64.82.37-.04.7-.13.97-.4.24-.24.42-.63.4-.97-.03-.75-.6-1.37-1.38-1.38-.46 0-.91-.04-1.36-.07-.19-.01-.39-.02-.58-.04-.13-.01-.26-.02-.39-.04-.06 0-.26 0-.29-.03.2.03.25.03.14.02-.05 0-.1-.01-.15-.02l-.34-.06a15 15 0 0 1-1.93-.5c-.69-.23-1.54.27-1.7.97-.18.79.24 1.43.97 1.7m11.45-2.79h.55c.19.01.36-.02.52-.11.17-.05.31-.15.44-.28.13-.12.23-.27.28-.44.09-.16.12-.34.12-.52l-.05-.36c-.06-.23-.18-.43-.35-.6l-.28-.21c-.21-.12-.44-.18-.69-.19h-.55c-.19 0-.36.04-.52.12-.17.05-.31.15-.43.28-.13.12-.22.27-.28.43-.08.16-.12.33-.12.52l.05.36c.06.23.18.43.35.6l.27.21c.21.12.44.18.68.18Zm4.15-6.12c1.34 0 1.34-2.08 0-2.08s-1.34 2.08 0 2.08m7.84 1.42c.12-.03.23-.05.35-.07l-.37.05c.36-.05.71-.05 1.07 0l-.37-.05c.37.05.74.15 1.08.3l-.33-.14c.3.13.57.29.89.39.29.09.61.05.89-.07s.51-.3.65-.56c.29-.54.22-1.2-.21-1.65-.35-.36-.79-.54-1.25-.71-.26-.1-.54-.17-.82-.21-.78-.12-1.53-.12-2.31.07-.33.08-.65.34-.82.63s-.25.73-.14 1.06c.24.74.94 1.13 1.69.96m-6.27 5.5c1.19.44 2.42.77 3.66 1 .7.13 1.42.22 2.13.29s1.43.12 2.13-.06c1.29-.33 1.33-2.34 0-2.65-.7-.17-1.42-.13-2.13-.17l-.81-.06-.54-.06c-.31-.03.18.03-.16-.02-1.21-.19-2.4-.47-3.56-.86-.67-.23-1.51.26-1.66.94-.17.76.23 1.4.94 1.66Zm-5.69 6.72q.27-.255.57-.48l-.27.21c.58-.44 1.2-.8 1.87-1.09l-.33.14c.42-.18.85-.33 1.28-.46.33-.1.64-.32.82-.63s.24-.72.14-1.05c-.24-.73-.93-1.13-1.68-.95-1.6.37-3.1 1.3-4.27 2.44-.5.49-.52 1.4 0 1.88s1.33.5 1.88 0Zm6.81 1.28 1.28.46.63.22c.11.04.22.08.33.11l.15.03q.375.105.75 0l.08-.02c.46-.1.83-.51.95-.95.07-.24.07-.48 0-.73-.06-.23-.18-.43-.35-.6-.29-.34-.74-.47-1.15-.6l-.64-.2-1.3-.41c-.34-.11-.78-.04-1.08.14s-.57.5-.64.84c-.08.36-.06.76.14 1.08l.22.28c.17.17.38.29.62.36Zm-18.84 1.04 1.15-.65c.19-.11.37-.22.55-.34l.27-.18c.2-.14.35-.27.51-.44l.22-.29c.1-.16.16-.34.17-.53.03-.13.03-.25 0-.38 0-.19-.06-.36-.17-.53-.13-.2-.3-.38-.51-.51-.16-.1-.34-.16-.53-.17-.19-.04-.38-.03-.56.03-.22.07-.43.14-.63.25-.09.05-.17.11-.26.16-.19.12-.38.24-.56.37l-1.08.78q-.24.135-.39.36c-.12.14-.21.29-.25.48-.09.33-.05.78.14 1.08s.48.56.84.64.74.05 1.08-.14Zm9.14 1.99s.02-.02.04-.03l-.29.22s.05-.03.07-.04l-.34.14h.01l-.38.05h.03l-.38-.05s.06.01.09.02l-.36-.15c.38.17.26.14.57.18l.22.03-.4-.05s.07.01.1.03l-.36-.15c.13.05.19.11.38.16.14.04.28.04.42.06l-.4-.05s.06.01.08.02l-.35-.15.06.03.35.15c.19.06.39.07.58.03.13 0 .25-.03.37-.1.18-.06.34-.16.47-.3l.23-.3.15-.35c.06-.19.07-.39.03-.58 0-.19-.07-.38-.17-.54 0-.02-.02-.04-.03-.05-.08-.11-.16-.24-.27-.34 0 0-.02-.01-.02-.02a7 7 0 0 0-.31-.24h-.01l-.36-.15h-.02l-.4-.05h-.11c-.21 0-.4.04-.57.13-.06.02-.12.05-.18.08h-.01s-.02.01-.02.02c-.1.07-.21.16-.3.23-.02.01-.03.03-.04.04l.29-.22s-.02.01-.03.02h-.01l-.15.12-.15.12c-.02.02-.04.03-.05.05-.14.13-.24.28-.29.46-.09.17-.13.35-.12.55 0 .2.03.38.12.55.06.18.16.33.29.46l.29.22c.22.13.46.19.72.19l.38-.05c.24-.07.45-.19.63-.37Zm-16.23-18.2c1.74 0 1.74-2.7 0-2.7s-1.74 2.7 0 2.7"/></svg>