<?xml version="1.0" encoding="UTF-8"?><svg xmlns="http://www.w3.org/2000/svg" viewBox="0 0 180 180"><path d="M62.89 59.44c-.11 4.97-.53 9.96-.72 14.93s-.54 9.7-.11 14.51c.75 8.28 4.65 15.72 11.62 20.43 1.72 1.16 3.56 2.17 5.5 2.91s3.97 1.81 6.1 2.01c1.3.12 1.59-1.71.63-2.31-1.45-.92-3.16-1.39-4.63-2.31s-2.81-1.94-4.1-3.01c-2.61-2.17-5.06-4.65-6.87-7.53-4.46-7.1-3.62-15.66-3.77-23.69l-.15-7.72c-.05-2.74-.3-5.48-.31-8.21 0-2.04-3.13-2.04-3.17 0Z"/><path d="M63.62 64.85c-1.91-1.5-4.38-1.8-6.55-.66-1.85.98-3.12 2.82-3.94 4.69-1.91 4.32-2.81 10.14-.45 14.46 1.68 3.06 5.21 5.24 8.46 6.27.85.27 1.82-.25 2.15-1.05.37-.91 0-1.71-.74-2.27-2.39-1.82-5.68-2.72-6.74-5.86-.43-1.28-.52-2.63-.45-3.97.05-1.09.11-1.46.34-2.53s.51-2.08.91-3.08c.11-.28.33-.75.56-1.16.14-.25.3-.5.45-.74 0 0 .36-.49.19-.27.28-.36.61-.72.98-1-.25.19.34-.19.4-.23.37-.2-.13.01.24-.1.99-.3 1.56-.15 2.7.05 1.31.23 2.81-1.5 1.48-2.55Zm11.19 58.74c.28-4.98.33-9.97.35-14.96.01-2.41-3.76-2.42-3.75 0 .02 4.99.07 9.98.35 14.96.11 1.96 2.94 1.96 3.05 0"/><path d="M72.31 121.63c-3.27.78-6.59 1.36-9.86 2.12-3.12.73-6.21 1.53-9.29 2.39-6.14 1.71-12.33 3.59-18.22 6.04-2.74 1.14-5.33 2.49-7.55 4.5-1.99 1.8-3.57 4.08-4.82 6.44-2.14 4.05-3.75 8.38-4.63 12.87-.49 2.49-.9 5-1.37 7.5-.37 1.98-.59 4.03-1.08 5.99-.52 2.09 2.58 3.59 3.6 1.52 1.75-3.54 2.3-7.49 3.09-11.32s1.82-7.79 3.48-11.53c.99-2.24 2.14-4.52 3.75-6.4 1.73-2.01 3.88-3.41 6.26-4.54 5.44-2.58 11.38-4.27 17.1-6.11 3.35-1.08 6.72-2.09 10.08-3.11s6.86-2.21 10.33-3.11c2.09-.54 1.21-3.74-.89-3.24ZM60.13 76.68c.14.04.27.09.4.15l-.29-.12c.38.16.74.38 1.07.63l-.25-.19c.3.24.57.52.81.82l-.2-.26c.26.34.48.71.65 1.11l-.13-.32c.06.14.11.27.17.41l-.13-.32c.11.27.2.54.34.8.14.27.49.54.78.6s.58.05.85-.07c.25-.11.5-.29.63-.54l.13-.31c.06-.23.06-.47 0-.7-.05-.3-.19-.59-.33-.86-.09-.19-.2-.36-.32-.53-.28-.41-.6-.81-.97-1.14a6.6 6.6 0 0 0-2.58-1.49c-.61-.18-1.35.22-1.49.85-.15.66.2 1.28.85 1.49Zm53.81-17.24c-.01 4.64-.33 9.3-.42 13.94s.01 9.13-.27 13.67c-.24 3.76-.98 7.42-2.8 10.75-1.65 3.02-3.97 5.51-6.5 7.82-1.39 1.27-2.91 2.36-4.44 3.45-1.68 1.2-3.67 1.75-5.4 2.84-.96.61-.67 2.43.63 2.31 1.85-.17 3.52-1.02 5.24-1.69 1.78-.69 3.48-1.43 5.11-2.43 3.36-2.05 6.19-4.75 8.42-7.99 5.24-7.64 4.75-16.91 4.42-25.76l-.31-8.21c-.11-2.91-.42-5.81-.48-8.71-.04-2.04-3.17-2.05-3.17 0Z"/><path d="M117.87 67.4c1.11-.2 1.66-.34 2.61-.07.39.11.06-.02.33.13.06.03.65.41.4.23.37.28.69.64.98 1s.99 1.65 1.2 2.17c.4.99.69 2.03.91 3.08s.28 1.44.34 2.53c.07 1.34-.03 2.69-.45 3.97-1.04 3.14-4.35 4.04-6.74 5.86-.72.55-1.14 1.37-.74 2.27.35.8 1.27 1.33 2.15 1.05 2.9-.92 5.87-2.72 7.73-5.17 1.79-2.36 2.29-5.46 2.07-8.36-.32-4.07-1.58-8.98-5.07-11.48-2.21-1.59-5.08-1.42-7.2.25-1.33 1.04.17 2.78 1.48 2.55Zm-9.63 56.19c.28-4.98.33-9.97.35-14.96.01-2.41-3.76-2.42-3.75 0 .02 4.99.07 9.98.35 14.96.11 1.96 2.94 1.96 3.05 0"/><path d="M106.8 124.87c6.09 1.58 12.12 3.62 18.13 5.5 5.93 1.86 11.88 3.75 17.64 6.07 2.37.96 4.77 2.14 6.65 3.89 1.83 1.7 3.15 3.79 4.26 6 1.88 3.75 3.11 7.64 3.99 11.73.93 4.33 1.45 8.91 3.43 12.92 1.01 2.05 4.13.59 3.6-1.52-.44-1.75-.62-3.59-.96-5.36-.42-2.18-.79-4.37-1.19-6.55-.82-4.46-2.13-8.54-4.05-12.67-2.39-5.15-5.92-9.32-11.11-11.78-5.71-2.71-11.98-4.58-18.05-6.32-3.53-1.02-7.08-1.98-10.66-2.82-3.58-.85-7.22-1.49-10.8-2.34-2.1-.5-2.99 2.69-.89 3.24Zm12.43-50.52c-.97.29-1.83.81-2.58 1.49-.37.34-.69.73-.97 1.14-.12.17-.23.35-.32.53-.13.27-.28.56-.33.86-.05.35-.07.7.13 1.01.16.24.36.42.63.54.57.24 1.34.05 1.64-.54.13-.26.22-.53.34-.8l-.13.32c.06-.13.11-.27.17-.41l-.13.32c.17-.4.39-.77.65-1.11l-.2.26c.24-.3.5-.58.81-.82l-.25.19c.33-.25.69-.46 1.07-.63l-.29.12c.13-.06.27-.11.4-.15.3-.1.56-.28.72-.56.15-.26.22-.64.12-.93-.2-.61-.84-1.04-1.49-.85ZM58.68 59.92c6.54 3.01 14.25 2.78 20.48-.93 3.18-1.89 5.48-4.8 8.21-7.23 1.36-1.21 2.9-2.13 4.63-2.72 1.91-.66 3.87-1.05 5.73-1.88 1.87-.84.8-3.6-.99-3.64-3.62-.08-7.66 1.24-10.6 3.34s-5.11 5.16-7.96 7.43c-5.07 4.04-12.22 4.98-18.19 2.53-1.76-.72-3.04 2.29-1.3 3.08Zm37.83-1.34c5.2-.12 9.72-3.43 11.63-8.2-1.26.17-2.53.33-3.79.5 1.49 2.38 3.66 4.47 5.87 6.17 1.08.83 2.2 1.59 3.39 2.26 1.31.74 2.73 1.61 4.28 1.3 1.15-.23 1.66-1.72 1.09-2.67-.71-1.17-2.1-1.61-3.24-2.27-1.02-.59-2-1.24-2.93-1.97-2-1.57-3.57-3.41-5.21-5.33-1.05-1.23-3.05-.48-3.47.91-1 3.37-4.11 5.93-7.63 6.18-1.98.14-2.03 3.17 0 3.12Zm-9.9-31.67c-6.96-.41-13.77 1.89-19.15 6.27-6.05 4.93-9.17 12.12-10.22 19.72-.3 2.15 2.67 3.12 3.34.92 2-6.5 4.31-12.83 9.63-17.36 4.52-3.85 10.46-6.13 16.4-6.1 2.24.01 2.2-3.32 0-3.45m4.42 5.47c7.1-4.11 16.17-.5 21.71 4.64 5.77 5.35 8.64 12.71 9.15 20.46.16 2.43 3.48 2.37 3.73 0 1.53-14.16-10.34-29.02-24.4-30.74-4.13-.51-8.46.28-11.9 2.72-1.75 1.24-.21 4.04 1.71 2.93ZM55.04 87.2c-1.08 2.52-1.79 5.44-2.28 8.13-.46 2.52-.58 5.07-.05 7.59 1.09 5.16 5.29 8.33 10.34 9.14.85.14 1.69-.15 2.04-1 .3-.76.07-1.76-.71-2.16-1.75-.9-3.78-1.52-5.31-2.79-1.45-1.2-2.17-2.97-2.52-4.78-.38-1.97-.15-4.03.19-6 .41-2.39 1.3-4.9 1.27-7.33-.01-1.46-2.32-2.33-2.97-.8m69.17 2.03c.2 1.82.51 3.61.84 5.41.29 1.59.53 3.26.27 4.87-.45 2.73-2.23 5.1-4.44 6.7-1.95 1.42-4.26 1.98-6.6 2.48-2.5.53-5.02.9-7.51 1.49-1.99.48-1.6 3.72.49 3.61 2.96-.16 5.87-.56 8.77-1.21 2.91-.66 5.6-1.61 7.95-3.49 2.57-2.05 4.63-5.06 5.17-8.34.68-4.16-.99-7.93-1.66-11.95-.31-1.83-3.47-1.43-3.27.44Z"/><path d="M60.18 87.95c-1.05.52-2 1.34-2.44 2.42s-.3 2.45.54 3.27c.5.49 1.18.76 1.85.95 1.32.39 3 .46 3.81-.65.41-.56.5-1.3.46-2-.05-.85-.26-1.72-.82-2.36s-1.5-.99-2.28-.67"/><path d="M59.83 86.66c-.93.3-1.76.74-2.52 1.36s-1.24 1.55-1.47 2.44c-.54 2.12.41 4.42 2.42 5.38 1.57.74 3.61 1.22 5.29.57 1.18-.46 2.03-1.3 2.45-2.51.34-.98.27-2.06.09-3.07-.18-1.07-.73-2.18-1.58-2.87-1.11-.89-2.82-1.45-4.09-.52-.6.44-1.04 1.17-.79 1.94.22.68.89 1.33 1.66 1.26.14-.01.28 0 .42 0 .08 0 .16 0 .24-.01.17-.01.18.12-.2-.04.09.04.28.1.38.1-.28 0-.33-.17-.17-.07.06.04.18.14.25.15-.24-.05-.28-.25-.14-.1.06.06.11.12.17.17.16.15-.21-.32-.09-.13.05.07.1.14.14.22.04.06.07.12.1.19.07.13.03.23-.06-.15.04.17.11.34.15.51.03.14.04.28.08.42-.13-.45-.04-.29-.02-.12 0 .07 0 .14.01.21v.48c0 .07-.02.14-.02.21 0-.48.04-.25 0-.07l-.06.2c-.08.31.07-.16.07-.15 0 .04-.08.14-.1.18-.14.32.24-.23.09-.1-.05.05-.1.11-.15.16-.1.11-.24.1.18-.12-.05.03-.3.25-.36.22-.02 0 .48-.17.2-.09-.06.02-.11.04-.17.05-.09.03-.56.1-.19.05s-.13 0-.21 0c-.15 0-.31 0-.46-.01-.04 0-.16-.03-.19-.02 0 0 .5.08.21.03-.12-.02-.24-.04-.37-.07a10 10 0 0 1-.92-.26c-.08-.03-.18-.09-.26-.1.05 0 .39.2.13.05-.13-.07-.26-.15-.38-.22-.27-.15.1.05.1.09 0-.03-.17-.15-.2-.18-.14-.15-.08-.22.07.11-.03-.07-.09-.13-.13-.2-.03-.05-.11-.15-.11-.21 0 0 .16.46.07.17-.04-.12-.08-.25-.11-.37-.01-.06-.02-.13-.04-.19.13.43.04.32.03.14v-.49c0-.08.03-.31 0 0-.04.34.01-.03.03-.1.02-.06.03-.13.05-.19s.15-.4.03-.11c-.11.26-.02.05.02-.02.04-.09.09-.18.14-.26.09-.14.18-.28.26-.42.03-.06.07-.11.11-.17.03-.05.22-.34.08-.12-.13.2-.01.02.03-.03.07-.08.13-.15.2-.22.11-.12.24-.23.36-.34.05-.04.1-.08.15-.13.08-.06.05-.04-.08.06.05-.04.11-.08.16-.12.55-.39.82-1.02.55-1.67-.25-.59-.94-.98-1.58-.77Zm57.31 1.68c1.49-1.18 3.94-.33 4.77 1.38.71 1.47.3 3.46-1.07 4.34s-3.53.25-4.03-1.3c-.37-1.15.16-2.38.67-3.48"/><path d="M117.87 89.58c.32-.19-.26.06-.03 0 .09-.03.17-.06.26-.08.04-.01.09-.02.14-.03-.43.06-.38.05.14-.02.09-.02.18-.03.27-.05l-.43.06c.28-.04.55-.03.83 0l-.44-.06c.31.05.6.13.89.25l-.41-.17c.2.09.39.18.58.29.1.06.2.13.3.2.19.13-.18-.13-.18-.14 0 .01.12.11.14.12.08.07.16.15.23.23.03.04.06.07.09.11.18.2-.23-.32-.12-.15.12.2.24.39.34.6l-.18-.42c.12.29.19.58.24.88l-.06-.47q.06.495 0 .99l.06-.47c-.05.33-.13.64-.26.95l.18-.43c-.11.25-.25.49-.42.71l.28-.36c-.16.2-.33.37-.53.53l.36-.28c-.18.13-.36.24-.56.32l.43-.18c-.22.09-.44.15-.67.18l.48-.06c-.28.04-.55.03-.83 0l.48.06c-.25-.04-.5-.11-.74-.2l.43.18c-.23-.1-.45-.22-.65-.38l.36.28c-.16-.13-.3-.27-.43-.43l.28.36c-.11-.15-.2-.3-.28-.47l.18.43c-.09-.22-.15-.44-.18-.68l.06.48c-.03-.26-.02-.52.01-.79l-.06.48c.12-.78.49-1.48.67-2.24.19-.83-.19-1.67-.98-2-.34-.14-.75-.2-1.1-.09-.45.14-.73.41-1.01.78-.68.9-1.01 2.1-1.11 3.21s.3 2.24 1.03 3.11c1.11 1.32 3.2 1.84 4.83 1.31 1.97-.65 3.1-2.47 3.26-4.48.15-1.88-.82-3.62-2.36-4.65-.79-.53-1.8-.81-2.76-.78-.51.01-1.03.1-1.51.3s-.89.52-1.26.89c-.51.5-.54 1.32-.11 1.88s1.22.73 1.84.37Zm-47.25 33.75c.61 4.34 1.82 8.61 3.07 12.81s2.66 8.2 4.24 12.21 3.3 8.03 5.22 11.92c1.93 3.93 3.95 7.8 6.66 11.27.92 1.18 3.13-.1 2.56-1.49-1.61-3.92-3.65-7.62-5.49-11.43-1.86-3.86-3.63-7.77-5.21-11.76s-2.97-7.94-4.27-11.97c-1.33-4.11-2.37-8.29-3.69-12.4-.65-2.02-3.37-1.14-3.09.85Zm35.23-1.36c-1.22 7.68-2.07 15.41-3.53 23.05-.72 3.73-1.56 7.44-2.58 11.1-.53 1.9-1.11 3.79-1.76 5.65s-1.11 3.78-1.79 5.62 2.26 3.03 3.1 1.31 1.83-3.53 2.51-5.41 1.26-3.74 1.81-5.63c1.1-3.8 1.95-7.67 2.65-11.56 1.41-7.82 2.32-15.77 2.82-23.7.11-1.82-2.93-2.28-3.22-.44Zm-44.07 5.69c2.42 14.51 7.24 28.62 14.19 41.59-11.32-.43-22.65-.86-33.97-1.28-7.1-.27-14.2-.54-21.3-.8-.18-8.31 2.72-16.58 7.65-23.28 1.78-2.42 3.85-4.68 6.36-6.32 2.98-1.94 6.46-2.95 9.88-3.92 4.75-1.36 9.5-2.71 14.25-4.07"/><path d="M60.23 128.09c1.14 7.38 2.72 14.6 5.12 21.68s5.41 13.91 8.91 20.47l1.71-2.97c-18.43-.72-36.85-1.7-55.28-2.39l2.28 2.28c-.14-8.92 3.32-18.11 9.44-24.65 3.29-3.51 7.39-5.11 11.93-6.42 5.03-1.45 10.07-2.88 15.11-4.31 2.82-.8 1.62-5.21-1.21-4.4l-12.83 3.66c-3.92 1.12-7.98 2.16-11.48 4.32-6.56 4.06-11.02 11.6-13.46 18.75a38.6 38.6 0 0 0-2.06 13.05c.02 1.27 1.03 2.23 2.28 2.28 18.42.7 36.85 1.11 55.28 1.78 1.56.06 2.38-1.7 1.71-2.97-6.81-12.75-11.73-26.79-14.34-41.02-.38-2.05-3.41-1.16-3.1.86Zm56.01-2.54-.91 23.69c-.26 6.67-.59 13.63-3.91 19.43l47.18-.15c.2 0 .42 0 .59-.12.34-.24.26-.76.14-1.17-1.48-4.88-3.17-9.69-4.85-14.51-.96-2.76-1.94-5.54-3.55-7.98-3.17-4.83-8.49-7.85-13.94-9.74-5.45-1.9-11.19-2.85-16.7-4.57-1.09-.34-2.31-.83-2.73-1.9"/><path d="M114.72 125.55c-1.02 7.57-1.04 15.33-1.36 22.95-.28 6.5-.42 13.32-3.69 19.14-.75 1.33.19 3.06 1.75 3.05 8.11-.01 16.22-.03 24.33-.05 4.14 0 8.28-.02 12.42-.03 1.82 0 3.64 0 5.46-.01h2.98c.99 0 2.16.13 3.13-.2 2.13-.74 1.83-2.95 1.3-4.66-.63-2.04-1.3-4.07-1.98-6.1-1.21-3.6-2.39-7.23-3.79-10.76-1.27-3.2-2.89-6.16-5.35-8.62s-5.21-4.18-8.22-5.57c-3.64-1.68-7.47-2.81-11.34-3.81-2.12-.54-4.25-1.04-6.36-1.6-1.05-.28-2.11-.57-3.15-.91-.6-.19-1.17-.33-1.46-.92-1.22-2.46-4.9-.3-3.68 2.15.87 1.75 2.69 2.47 4.45 3.01 2.01.62 4.06 1.13 6.11 1.63 4.1 1.01 8.27 1.91 12.2 3.5 3.24 1.32 6.36 3.17 8.8 5.71 2.71 2.82 4.02 6.42 5.29 10.05.84 2.41 1.68 4.81 2.5 7.23.42 1.25.83 2.5 1.24 3.75.18.55.35 1.1.52 1.65.1.31.2.63.29.94.04.13.18.96.26.54l.53-.92-.18.23.92-.53c-.67.25-1.79.05-2.52.06-.99 0-1.99 0-2.98.01-1.99 0-3.97.02-5.96.03l-11.92.05c-7.95.03-15.89.07-23.84.1l1.75 3.05c3.44-6.19 3.89-13.31 4.15-20.24.3-7.92.89-15.98.43-23.9-.12-2-2.78-1.89-3.03 0m-31.59 14.73c-.74-.44-1.55-.81-2.39-1.02-.48-.12-.98-.19-1.47-.25-.18-.02-.38-.05-.56-.05-.45.02-.85.14-1.22.39-.46.3-.75.76-.75 1.32 0 .52.29 1.06.75 1.32.07.04.15.08.22.12.3.16.59.21.92.24.17.01.35 0 .52 0 .35 0 .7.03 1.04.07l-.43-.06c.77.1 1.53.27 2.25.54.32.12.83.04 1.11-.14s.46-.39.59-.69c.28-.66.03-1.42-.59-1.8Zm15.37 2.91.15-.03-1.13-.15.04.02-.31-.24c.46.51 1.18.58 1.8.39.18-.05.36-.1.55-.14.38-.09.77-.15 1.16-.21l-.46.06c.35-.05.7-.08 1.05-.08.48 0 .97.07 1.42-.12.27-.11.53-.22.73-.43.26-.26.41-.59.46-.96.09-.67-.22-1.3-.79-1.66s-1.25-.37-1.9-.34c-.51.03-1.01.09-1.51.18-.38.07-.73.17-1.09.3-.3.11-.59.24-.88.37-.58.26-1.01.89-.98 1.53l.05-.41v.04c.21-.29.44-.59.66-.88l-.12.09c-.3.22-.57.48-.66.86-.07.32-.06.63.07.94.29.69.98.97 1.7.83ZM86.76 73.66c-.27 2.94-.34 5.89-.34 8.85 0 1.45.05 2.9.11 4.34s-.07 3.28.65 4.6c.67 1.24 2.36.79 2.78-.36.48-1.31.1-3.04.05-4.41-.06-1.45-.09-2.89-.12-4.34-.06-2.89 0-5.79.04-8.68.03-2.07-2.99-2-3.17 0m-.14 25.33c.31.07.61.13.92.17.16.02.33.04.49.07q-.405-.06.24.03c.16.02.31.04.47.05.61.06 1.22.03 1.82-.04.71-.08 1.41-.19 2.09-.38.83-.23 1.84-.54 2.27-1.35s.09-1.93-.87-2.15c-.33-.07-.69-.12-1.02-.02-.15.04-.29.12-.44.17-.26.09-.52.19-.78.28q-.81.27-1.65.42c-.09.02-.53.1-.12.02-.15.03-.31.04-.47.05-.27.02-.55.05-.83.06-.59.03-1.17 0-1.76-.08-.67-.09-1.26.59-1.34 1.19-.09.64.31 1.35.98 1.5Zm-5.44-20.83c2.01 0 2.01-3.12 0-3.12s-2.01 3.12 0 3.12m17.64 0c2.01 0 2.01-3.12 0-3.12s-2.01 3.12 0 3.12m-21.09-9.27c.05-.05.11-.09.16-.13.09-.08.19-.08-.07.05.1-.05.2-.14.29-.21.22-.16.45-.31.68-.45.22-.13.45-.24.69-.35.13-.06.53-.18.07-.04.13-.04.26-.1.39-.14.24-.08.49-.15.74-.21.12-.03.24-.05.35-.07.29-.06-.13.02-.16.02.08 0 .17-.02.26-.03.26-.02.51-.03.77-.03s.57.09.82.06c-.03 0-.46-.08-.16-.02.07.01.14.03.2.04.37.06.7.11 1.08-.01.83-.27 1.37-1 1.25-1.87-.18-1.36-1.55-1.63-2.67-1.71s-2.41.15-3.49.58c-1.44.58-2.63 1.46-3.52 2.74-.42.6-.16 1.49.38 1.9.61.47 1.38.37 1.94-.12m24.89-4.69c-1.16-.63-2.38-1.29-3.67-1.61-.67-.16-1.42-.23-2.11-.17-.41.03-.83.09-1.24.19-.26.07-.51.16-.74.31-.46.29-.66.65-.86 1.14-.14.35-.05.8.09 1.13s.38.66.71.83c.6.31 1.15.33 1.77.14.24-.07.49-.13.74-.16l-.48.06q.6-.075 1.2-.03l.65.06c.31.03-.29-.05-.06 0l.35.06c.86.17 1.69.45 2.52.73.69.23 1.45-.21 1.71-.84s.05-1.47-.59-1.81Z"/></svg>