<?xml version="1.0" encoding="UTF-8"?><svg xmlns="http://www.w3.org/2000/svg" viewBox="0 0 180 180"><path d="M62.89 59.44c-.11 4.97-.53 9.96-.72 14.93-.18 4.81-.54 9.7-.11 14.51.75 8.28 4.65 15.72 11.62 20.43 1.72 1.16 3.56 2.17 5.5 2.91s3.97 1.81 6.1 2.01c1.3.12 1.59-1.71.63-2.31-1.45-.92-3.16-1.39-4.63-2.31s-2.81-1.94-4.1-3.01c-2.61-2.17-5.06-4.65-6.87-7.53-4.46-7.1-3.62-15.66-3.77-23.69l-.15-7.72c-.05-2.74-.3-5.48-.31-8.21 0-2.04-3.13-2.04-3.17 0Z"/><path d="M63.62 64.85c-1.91-1.5-4.38-1.8-6.55-.66-1.85.98-3.12 2.82-3.94 4.69-1.91 4.32-2.81 10.14-.45 14.46 1.68 3.06 5.21 5.24 8.46 6.27.85.27 1.82-.25 2.15-1.05.37-.91 0-1.71-.74-2.27-2.39-1.82-5.68-2.72-6.74-5.86-.43-1.28-.52-2.63-.45-3.97.05-1.09.11-1.46.34-2.53s.51-2.08.91-3.08c.11-.28.33-.75.56-1.16.14-.25.3-.5.45-.74 0 0 .36-.49.19-.27.28-.36.61-.72.98-1-.25.19.34-.19.4-.23.37-.2-.13.01.24-.1.99-.3 1.56-.15 2.7.05 1.31.23 2.81-1.5 1.48-2.55Zm15.19 59.74c.28-4.98.33-9.97.35-14.96.01-2.41-3.76-2.42-3.75 0 .02 4.99.07 9.98.35 14.96.11 1.96 2.94 1.96 3.05 0"/><path d="M74.31 121.63c-3.27.78-6.59 1.36-9.86 2.12s-6.21 1.53-9.29 2.39c-6.14 1.71-12.33 3.59-18.22 6.04-2.74 1.14-5.33 2.49-7.55 4.5-1.99 1.8-3.57 4.08-4.82 6.44-2.14 4.05-3.75 8.38-4.63 12.87-.49 2.49-.9 5-1.37 7.5-.37 1.98-.59 4.03-1.08 5.99-.52 2.09 2.58 3.59 3.6 1.52 1.75-3.54 2.3-7.49 3.09-11.32s1.82-7.79 3.48-11.53c.99-2.24 2.14-4.52 3.75-6.4 1.73-2.01 3.88-3.41 6.26-4.54 5.44-2.58 11.38-4.27 17.1-6.11 3.35-1.08 6.72-2.09 10.08-3.11s6.86-2.21 10.33-3.11c2.09-.54 1.21-3.74-.89-3.24ZM60.13 76.68c.14.04.27.09.4.15l-.29-.12c.38.16.74.38 1.07.63l-.25-.19c.3.24.57.52.81.82l-.2-.26c.26.34.48.71.65 1.11l-.13-.32c.06.14.11.27.17.41l-.13-.32c.11.27.2.54.34.8.14.27.49.54.78.6s.58.05.85-.07c.25-.11.5-.29.63-.54l.13-.31c.06-.23.06-.47 0-.7-.05-.3-.19-.59-.33-.86-.09-.19-.2-.36-.32-.53-.28-.41-.6-.81-.97-1.14a6.6 6.6 0 0 0-2.58-1.49c-.61-.18-1.35.22-1.49.85-.15.66.2 1.28.85 1.49Zm53.81-17.24c-.01 4.64-.33 9.3-.42 13.94s.01 9.13-.27 13.67c-.24 3.76-.98 7.42-2.8 10.75-1.65 3.02-3.97 5.51-6.5 7.82-1.39 1.27-2.91 2.36-4.44 3.45-1.68 1.2-3.67 1.75-5.4 2.84-.96.61-.67 2.43.63 2.31 1.85-.17 3.52-1.02 5.24-1.69s3.48-1.43 5.11-2.43c3.36-2.05 6.19-4.75 8.42-7.99 5.24-7.64 4.75-16.91 4.42-25.76l-.31-8.21c-.11-2.91-.42-5.81-.48-8.71-.04-2.04-3.17-2.05-3.17 0Z"/><path d="M117.87 67.4c1.11-.2 1.66-.34 2.61-.07.39.11.06-.02.33.13.06.03.65.41.4.23.37.28.69.64.98 1s.99 1.65 1.2 2.17c.4.99.69 2.03.91 3.08s.28 1.44.34 2.53c.07 1.34-.03 2.69-.45 3.97-1.04 3.14-4.35 4.04-6.74 5.86-.72.55-1.14 1.37-.74 2.27.35.8 1.27 1.33 2.15 1.05 2.9-.92 5.87-2.72 7.73-5.17s2.29-5.46 2.07-8.36c-.32-4.07-1.58-8.98-5.07-11.48-2.21-1.59-5.08-1.42-7.2.25-1.33 1.04.17 2.78 1.48 2.55Zm-13.63 57.19c.28-4.98.33-9.97.35-14.96.01-2.41-3.76-2.42-3.75 0 .02 4.99.07 9.98.35 14.96.11 1.96 2.94 1.96 3.05 0"/><path d="M104.8 124.87c6.09 1.58 12.12 3.62 18.13 5.5 5.93 1.86 11.88 3.75 17.64 6.07 2.37.96 4.77 2.14 6.65 3.89 1.83 1.7 3.15 3.79 4.26 6 1.88 3.75 3.11 7.64 3.99 11.73.93 4.33 1.45 8.91 3.43 12.92 1.01 2.05 4.13.59 3.6-1.52-.44-1.75-.62-3.59-.96-5.36-.42-2.18-.79-4.37-1.19-6.55-.82-4.46-2.13-8.54-4.05-12.67-2.39-5.15-5.92-9.32-11.11-11.78-5.71-2.71-11.98-4.58-18.05-6.32-3.53-1.02-7.08-1.98-10.66-2.82-3.58-.85-7.22-1.49-10.8-2.34-2.1-.5-2.99 2.69-.89 3.24Zm14.43-50.52c-.97.29-1.83.81-2.58 1.49-.37.34-.69.73-.97 1.14-.12.17-.23.35-.32.53-.13.27-.28.56-.33.86-.05.35-.07.7.13 1.01.16.24.36.42.63.54.57.24 1.34.05 1.64-.54.13-.26.22-.53.34-.8l-.13.32c.06-.13.11-.27.17-.41l-.13.32c.17-.4.39-.77.65-1.11l-.2.26c.24-.3.5-.58.81-.82l-.25.19c.33-.25.69-.46 1.07-.63l-.29.12c.13-.06.27-.11.4-.15.3-.1.56-.28.72-.56.15-.26.22-.64.12-.93-.2-.61-.84-1.04-1.49-.85Z"/><path d="M74.35 126.03c.82 5.33 3.13 10.58 5.38 15.45a100 100 0 0 0 8.01 14.22c.91 1.35 2.57 1.24 3.5 0 6.85-9.19 11.76-19.75 14.52-30.87.59-2.37-3.07-3.38-3.66-1.01-2.71 10.82-7.63 20.93-14.35 29.83h3.5c-2.99-4.47-5.67-9.13-7.96-13.99-2.28-4.85-3.85-9.97-5.98-14.87-.32-.73-1.35-.94-2.01-.66-.79.33-1.06 1.09-.93 1.9Z"/><path d="M69.07 124.25c-1.75 7.71-2.15 15.41-.6 23.2.77 3.85 1.97 7.57 3.53 11.16.75 1.72 1.55 3.51 2.57 5.1 1.42 2.22 3.42 1.3 5.31.32 2.15-1.12 4.29-2.23 6.44-3.35 1-.52 2.03-1.01 2.93-1.69.42-.32.79-.64 1.12-1.05.18-.21.34-.43.49-.67.06-.11.34-.48.18-.41l-1.02.28c.58-.04 1.83 1.21 2.34 1.55.99.65 2 1.27 3.04 1.84 2.1 1.15 4.31 2.13 6.56 2.95 1.07.39 2.26.78 3.34.16.91-.52 1.29-1.41 1.69-2.32.99-2.27 1.97-4.55 2.89-6.85 1.74-4.39 3.26-8.89 4.08-13.56.43-2.48.69-5 .71-7.52.01-2.48 0-5.25-.85-7.6-.69-1.89-3.53-1.66-3.59.49-.04 1.58.23 3.15.31 4.73.07 1.51.06 3.02-.03 4.52-.19 2.96-.75 5.87-1.52 8.73-.76 2.8-1.73 5.54-2.79 8.24-.55 1.4-1.13 2.79-1.72 4.18-.54 1.27-.98 2.79-1.78 3.93l.75-.75.46-.1c-.21-.07-.42-.15-.63-.22-.28-.1-.56-.2-.83-.31-.59-.23-1.18-.46-1.76-.72-1.28-.57-2.54-1.21-3.76-1.89-1.16-.65-2.3-1.34-3.41-2.08-1.09-.73-2.12-1.52-3.5-1.44-1.5.09-1.91 1.14-2.68 2.18-.66.89-2.14 1.37-3.09 1.87-1.36.71-2.71 1.43-4.07 2.14-1.14.6-2.5 1.62-3.75 1.91h1.08l-.29-.06.9.52c-.45-.39-.77-1.29-1.06-1.85-.36-.69-.71-1.38-1.04-2.08-.68-1.44-1.28-2.91-1.81-4.41a53 53 0 0 1-2.36-9.21c-1.01-6.21-1.08-12.86.31-19.02.46-2.01-2.63-2.86-3.09-.85Z"/><path d="M69.47 126.02c-2.27 14.96-2.7 28.93-1.04 43.98 15.14-1.4 30.45-.92 45.65-1.14.22-13.44.45-26.91-.78-40.3-.99 12.17-2.22 25.01-9.32 34.94-4.31-2.44-8.61-4.89-12.92-7.33-.25-.14-.51-.28-.79-.28-.36 0-.66.25-.93.47a55 55 0 0 1-13.49 8.12c-.33.14-.69.27-1.03.17-.44-.14-.65-.62-.81-1.05-1.48-3.92-2.71-7.93-3.71-12"/><path d="M67.99 125.61c-2.39 14.75-3.04 29.51-1.45 44.39.1.95.79 2 1.9 1.9 15.17-1.35 30.44-.95 45.65-1.03 1.1 0 1.99-.92 2.01-2.01.24-13.44.35-26.9-1.06-40.3-.23-2.19-3.33-2.27-3.47 0-.7 11.6-2.32 24.28-9.24 33.97.87-.23 1.74-.46 2.62-.69-2.72-1.56-5.42-3.15-8.13-4.73-1.35-.79-2.71-1.58-4.06-2.37s-2.71-1.33-4.18-.41c-1.08.67-2.04 1.6-3.09 2.33-1.14.8-2.3 1.57-3.48 2.29s-2.4 1.4-3.64 2.03c-.65.33-1.31.65-1.97.96-.45.21-1.08.65-1.57.61l1.05.28c-.22-.12-.77-2.05-.94-2.5-.37-.98-.7-1.98-1.01-2.98-.65-2.08-1.24-4.17-1.77-6.28-.6-2.39-4.27-1.38-3.69 1.02.74 3.06 1.66 6.06 2.6 9.06.81 2.6 1.72 6.62 5.36 5.35 2.62-.92 5.18-2.35 7.55-3.77 1.26-.75 2.48-1.55 3.66-2.42.55-.4 1.08-.81 1.62-1.22.41-.32 1.21-1.12 1.59-1.2h-1.11c1.12.23 2.32 1.18 3.33 1.73 1.08.6 2.17 1.2 3.25 1.79 2.24 1.24 4.48 2.46 6.72 3.71.96.54 2.01.18 2.62-.69 7.42-10.61 8.13-23.47 9.41-35.9h-3.47c1.02 13.41.72 26.87.51 40.3l2.01-2.01c-15.23.35-30.47-.17-45.65 1.25l1.9 1.9c-1.62-14.47-1.39-29.15.63-43.57.12-.83-.2-1.64-1.07-1.89-.73-.21-1.76.26-1.89 1.07Zm-28.83 32.83c-.04 2.32-.02 4.64.08 6.96.05 1.14.13 2.29.24 3.43s.28 2.22.9 3.18c.51.78 1.54 1.11 2.37.62.77-.45 1.15-1.59.62-2.37-.42-.62-.46-1.33-.54-2.13-.11-1.07-.2-2.15-.29-3.23-.19-2.15-.31-4.31-.37-6.47-.06-1.94-2.98-1.95-3.02 0Zm97.94-.69c-.35 2.15-.47 4.28-.82 6.36-.18 1.06-.39 2.11-.63 3.16-.11.49-.25.97-.33 1.47-.16 1.01.33 2.06 1.43 2.21 1.76.24 2.09-1.65 2.36-2.95.22-1.05.41-2.11.56-3.18.32-2.18.64-4.46.45-6.66-.07-.76-.53-1.42-1.33-1.51-.69-.08-1.56.34-1.69 1.1M86.34 73.93c0 2.82.01 5.64.07 8.46.03 1.41.09 2.82.14 4.23.05 1.4-.08 3.01.32 4.36.46 1.52 2.93 1.72 3.28 0 .29-1.41.05-2.93-.01-4.36s-.11-2.82-.18-4.23c-.14-2.82-.29-5.64-.4-8.46-.09-2.06-3.22-2.08-3.22 0m-1.04 26.21c.79.31 1.75.35 2.6.39s1.73-.06 2.58-.19c1.62-.25 3.29-.78 4.68-1.64.74-.45 1.09-1.5.59-2.27-.5-.78-1.44-1.03-2.27-.59-.33.17-.66.35-1 .51-.16.08-.31.15-.47.22.32-.14-.24.09-.3.11-.65.24-1.33.43-2.01.57l-.51.09c-.12.02-.1.02.05 0l-.3.03c-.35.04-.7.06-1.05.08-.75.04-1.49-.07-2.23-.04-.7.03-1.27.51-1.37 1.21s.34 1.27 1 1.53Zm-5.82-32.83c-1.45-.29-2.92-.58-4.4-.5s-2.99.56-4.02 1.61c-1.58 1.61-1.72 4.1-1.7 6.36.02 1.79.09 3.65.97 5.21.94 1.68 2.74 2.79 4.64 3.15 1.9.35 4.11.51 5.9-.2.85-.34 1.68-.77 2.32-1.42 1.41-1.41 1.48-4.06 1.71-6.05.19-1.63.37-3.3.01-4.9s-1.39-3.15-2.94-3.69c-.81-.28-1.68-.27-2.54-.26-1.37.02-2.73.05-4.1.07-.72.01-1.6.13-1.85.81"/><path d="M79.87 65.88c-2.49-.67-5.2-1.3-7.69-.29-2.35.95-3.89 2.92-4.39 5.4-.47 2.34-.45 4.92-.03 7.26s1.87 4.49 4 5.68c1.98 1.11 4.5 1.49 6.75 1.36 2.49-.14 5.15-1.14 6.64-3.24 1.25-1.75 1.35-4.08 1.55-6.14.26-2.56.5-5.09-.64-7.49-.54-1.13-1.45-2.18-2.55-2.8-1.26-.71-2.66-.82-4.07-.82-1.46 0-2.94-.06-4.4.05s-2.74.67-3.27 2.18c-.7 1.97 2.21 3.01 3.26 1.37l-.28.26c.19-.11.21-.12.08-.05 0 0 .37-.04.11-.04l1.35-.03c1.05-.02 2.1-.06 3.15-.09.71-.02 1.51-.1 2.16.22.59.29 1.01.9 1.27 1.49.7 1.59.4 3.5.21 5.17-.16 1.41-.16 2.92-.76 4.24-.22.47-.58.84-1.15 1.18-.65.38-1.37.66-2.11.78-1.55.23-3.55.07-4.98-.58-3.08-1.38-2.98-5.03-2.81-7.94.09-1.53.48-3.17 1.97-3.91 1.9-.94 4.24-.55 6.24-.29 1.68.22 1.97-2.49.39-2.92Zm23.79 1.43c-1.45-.29-2.92-.58-4.4-.5s-2.99.56-4.02 1.61c-1.58 1.61-1.72 4.1-1.7 6.36.02 1.79.09 3.65.97 5.21.94 1.68 2.74 2.79 4.64 3.15 1.9.35 4.11.51 5.9-.2.85-.34 1.68-.77 2.32-1.42 1.41-1.41 1.48-4.06 1.71-6.05.19-1.63.37-3.3.01-4.9s-1.39-3.15-2.94-3.69c-.81-.28-1.68-.27-2.54-.26-1.37.02-2.73.05-4.1.07-.72.01-1.6.13-1.85.81"/><path d="M104.05 65.88c-2.49-.67-5.2-1.3-7.69-.29-2.35.95-3.89 2.92-4.39 5.4-.47 2.34-.45 4.92-.03 7.26s1.87 4.49 4 5.68c1.98 1.11 4.5 1.49 6.75 1.36 2.49-.14 5.15-1.14 6.64-3.24 1.25-1.75 1.35-4.08 1.55-6.14.26-2.56.5-5.09-.64-7.49-.54-1.13-1.45-2.18-2.55-2.8-1.26-.71-2.66-.82-4.07-.82-1.46 0-2.94-.06-4.4.05s-2.74.67-3.27 2.18c-.7 1.97 2.21 3.01 3.26 1.37l-.28.26c.19-.11.21-.12.08-.05 0 0 .37-.04.11-.04l1.35-.03c1.05-.02 2.1-.06 3.15-.09.71-.02 1.51-.1 2.16.22.59.29 1.01.9 1.27 1.49.7 1.59.4 3.5.21 5.17-.16 1.41-.16 2.92-.76 4.24-.22.47-.58.84-1.15 1.18-.65.38-1.37.66-2.11.78-1.55.23-3.55.07-4.98-.58-3.08-1.38-2.98-5.03-2.81-7.94.09-1.53.48-3.17 1.97-3.91 1.9-.94 4.24-.55 6.24-.29 1.68.22 1.97-2.49.39-2.92Zm-41.37 1.64c.99 1.19 2.05 2.32 3.22 3.34.66.57 1.34 1.11 2.03 1.64.31.23.62.47.94.69.42.29.88.64 1.4.72.76.12 1.44-.02 1.94-.66.42-.54.57-1.45.14-2.05-.28-.4-.53-.65-.94-.91-.15-.1-.31-.19-.46-.29-.31-.2-.62-.39-.92-.59-.64-.42-1.27-.87-1.88-1.34-.19-.15.27.21.08.06-.08-.06-.16-.13-.24-.19-.14-.11-.29-.23-.43-.35a36 36 0 0 1-2.62-2.3c-.6-.58-1.66-.64-2.24 0-.63.68-.57 1.56 0 2.24Z"/><path d="m116.32 65.26.18-.02-.43.06c-.18.04-.35.13-.51.2s-.31.15-.47.23c-.31.16-.6.35-.89.54-.61.38-1.21.77-1.81 1.17-1.07.73-2.14 1.52-3.3 2.11-.83.41-1.1 1.52-.76 2.32.36.86 1.28 1.3 2.19 1.08 1.45-.36 2.6-1.38 3.77-2.25.67-.49 1.33-1 1.99-1.52s1.31-1 1.71-1.74c.29-.53.25-1.17-.12-1.65-.39-.5-.95-.63-1.56-.53ZM85.27 75.45c-.34-.15-.28-.13.2.08q.285.075.57.06h.35c.28 0 .55-.04.82-.06.55-.04 1.11-.06 1.66-.06s1.11 0 1.67.04c.84.05 1.64.26 2.42-.22 1.06-.66 1.32-2.17.4-3.08-.76-.75-1.82-.73-2.81-.74-.58 0-1.16 0-1.73.07-.7.08-1.4.18-2.1.32-.27.06-.54.11-.8.21-.15.06-.3.11-.45.18-.29.08-.54.23-.75.44-.04.06-.09.1-.14.15-.9.82-.39 2.3.69 2.62ZM65.6 60.03c4.17-2.06 5.93-6.96 6.87-11.51 4.83 2.46 10.12 4.13 15.53 4.33s10.95-1.13 15.39-4.23c1.46 2.17 2.97 4.35 4.96 6.05s4.55 2.88 7.16 2.7c.33 2.24.43 4.51.29 6.77 1.4-3.96 2.21-8.13 2.41-12.33.1-2.19-.02-4.56-1.35-6.3-1.77-2.3-5.14-2.74-7.96-2.04 1.07-1.67.36-3.9-.65-5.61-3.64-6.17-11.09-9.86-18.2-9.03-3.34.39-6.5 1.67-9.61 2.94L67.12 37.2c-2.01.82-4.01 1.63-5.99 2.52-1.57.7-3.21 1.53-4.07 3.02-.98 1.72-.65 3.95.36 5.65s2.58 2.98 4.15 4.18c-1.84 3.53-.97 8.27 2.01 10.92"/><path d="M65.97 61.36c5.08-2.11 7.27-7.24 8.47-12.3-1 .41-2 .81-3 1.22 10.07 5.4 23.18 6.85 32.99.12-.94-.25-1.88-.49-2.82-.74 3.26 4.81 7.48 10.03 13.91 9.75-.66-.5-1.32-1-1.97-1.5.29 2.06.33 4.15.22 6.23-.13 2.41 3.3 2.63 4.02.54q1.455-4.2 2.07-8.61c.39-2.79.73-5.73.13-8.51-1.17-5.42-6.71-7.2-11.62-6.07.77 1 1.54 2 2.31 3.01 2.7-4.84-1.98-10.44-5.63-13.29-3.91-3.04-8.9-4.79-13.88-4.54-5.96.3-11.58 3.21-17.02 5.42-2.96 1.2-5.92 2.4-8.87 3.61-2.49 1.02-5.25 1.91-7.5 3.42-2.71 1.81-3.92 4.77-3.12 7.97s3.37 5.35 5.87 7.27l-.75-2.85c-2.21 4.46-1.36 10.02 2.34 13.44 1.97 1.82 4.92-1.12 2.95-2.95-2.27-2.1-3.08-5.56-1.69-8.39.55-1.11.2-2.12-.75-2.85-1.6-1.23-3.47-2.71-3.95-4.78s.81-3.15 2.5-4c4.37-2.2 9.09-3.84 13.62-5.68 4.56-1.86 9.16-4.17 14.01-5.19 3.83-.8 7.85-.15 11.28 1.71 1.92 1.04 3.6 2.4 5.01 4.07 1.08 1.28 3.02 3.79 2.05 5.54-.89 1.6.57 3.41 2.31 3.01 1.49-.34 3.16-.38 4.57.32 1.64.82 2.11 2.57 2.17 4.28.18 4.57-.87 9.26-2.35 13.55l4.02.54c.14-2.46-.02-4.88-.36-7.32-.12-.84-1.16-1.54-1.97-1.5-4.85.21-7.92-4.15-10.34-7.74-.59-.88-1.85-1.4-2.82-.74-4.05 2.76-8.84 4.03-13.73 3.96-5.34-.08-10.34-1.78-15.12-4.04-1.08-.51-2.74-.18-3 1.22-.73 3.99-1.94 8.55-5.59 10.86-1.25.79-.45 3.16 1.07 2.53Z"/></svg>