<?xml version="1.0" encoding="UTF-8"?><svg xmlns="http://www.w3.org/2000/svg" viewBox="0 0 180 180"><path d="M55.34 77.13c-.49-7.42-1.14-14.81-1.07-22.25.06-6.62.3-13.5 2.26-19.87 1.5-4.86 4.11-9.37 7.74-12.95 3.86-3.81 8.65-6.32 13.79-7.92 6.19-1.93 12.91-2.74 19.34-1.7 5.63.91 11.17 3.27 15.73 6.7 3.54 2.66 6.36 6.26 7.91 10.42 1.66 4.45 1.97 9.14 2.04 13.85.16 10.69-.79 21.35-.77 32.04 0 1.25.13 2.7-.61 3.79-.65.96-1.69 1.66-2.75 2.1-2.33.97-5.01 1.02-7.48.78-1.69-.16-3.53-.58-4.27-1.95-1.03-1.9-.6-4.72-.62-6.84-.06-6.19-.18-12.37-.17-18.56.01-5.59.87-11.54-.6-17.01-1.41-5.27-5.32-8.89-10.57-10.15-4.76-1.15-10.05-.75-14.55 1.17C70.66 33.05 69 45.63 68.73 55.21c-.13 4.68-.2 9.4.49 14.04.15 1.02.28 2.03.32 3.06.03.88 0 2.01-.27 2.58-.13.28-.05.2-.3.38-.52.37-1.18.6-1.78.8-1.33.44-2.71.66-4.11.7-3.01.09-5.95-.54-8.73-1.67-1.06-.43-2.33.47-2.6 1.48-.33 1.21.41 2.18 1.48 2.6 3.04 1.22 6.37 1.87 9.66 1.79 2.88-.07 6.5-.64 8.8-2.55 3.72-3.1 1.36-9.13 1.18-12.96-.23-5.13-.22-10.39.26-15.5s1.57-10.52 4.93-14.41c3.06-3.54 7.93-4.69 12.45-4.56 4.76.14 9.47 1.99 11.13 6.81.95 2.77.99 5.71.93 8.6s-.17 5.84-.18 8.76c-.01 6.38.12 12.75.17 19.13.02 2.65-.22 5.53 1.16 7.92 1.16 2.01 3.22 3.15 5.43 3.61 5.16 1.08 12.01.59 15.53-3.85 1.89-2.39 1.66-5.32 1.69-8.2.03-2.61.12-5.23.22-7.84.22-5.95.5-11.9.57-17.86.06-5.11.09-10.33-.97-15.35-1.04-4.92-3.28-9.53-6.68-13.25-8.31-9.08-21.66-12.64-33.59-11.1-11.92 1.54-23.38 7-29.65 17.64-3.04 5.16-4.43 10.89-5.07 16.79-.84 7.73-.65 15.51-.07 23.25.28 3.71.65 7.4 1.13 11.09.25 1.91 3.23 2.03 3.09 0Z"/><path d="M51.98 69.18c-7.43 1.96-15.15 4.19-21.21 9.12-2.84 2.31-5.15 5.43-5.99 9.04-.5 2.14-.42 4.2-.17 6.36.35 3.08.71 6.16 1.08 9.23 1.42 11.84 2.98 23.66 4.35 35.5.62 5.39.59 11.96 4.89 15.95 1.95 1.81 4.42 2.87 6.92 3.67 2.83.9 5.72 1.64 8.59 2.4 12.21 3.23 24.57 5.92 37.03 7.94q9.48 1.53 19.02 2.61c5.89.67 12 1.63 17.94 1.2 5.94-.42 10.86-2.77 15.22-6.78 4.38-4.03 8.26-8.67 12.3-13.03 1.96-2.12 4.15-4.2 5.61-6.71 1.57-2.7 1.78-5.65 1.51-8.7-.58-6.42-.92-12.83-1.12-19.27-.19-6.29-.37-12.58-.57-18.86-.17-5.47-.39-11.03-1.38-16.43-.87-4.77-2.98-8.85-7.45-11.09-5.05-2.54-10.66-3.46-16.25-3.88-2.62-.2-5.25-.28-7.87-.37-2.93-.1-2.92 4.45 0 4.55 5.07.17 10.19.24 15.17 1.32 4.11.89 9.04 2.27 10.88 6.44 1.69 3.84 1.81 8.58 2.07 12.7.38 5.92.45 11.86.62 17.78.18 6.03.3 12.07.63 18.1.17 3.01.42 6 .69 9 .25 2.76.1 5.09-1.54 7.4-1.55 2.17-3.59 4.06-5.4 6.01l-6.1 6.58c-3.36 3.63-6.89 7.79-11.68 9.52-5.13 1.85-10.77 1.16-16.07.66-5.88-.55-11.76-1.23-17.61-2.06-11.79-1.66-23.53-3.81-35.12-6.51-5.7-1.33-11.42-2.71-17.03-4.38-2.16-.64-4.46-1.4-6.11-3-1.75-1.68-2.35-4.08-2.73-6.4-.91-5.56-1.33-11.24-2.01-16.83-.67-5.49-1.37-10.98-2.05-16.47-.71-5.7-1.4-11.39-2.05-17.1-.21-1.88-.5-3.88-.12-5.69.34-1.61.96-2.95 1.91-4.31 1.88-2.67 4.78-4.59 7.64-6.16 3.16-1.74 6.5-3.05 9.89-4.25 1.52-.54 3.06-1.05 4.6-1.55 2.08-.68 1.24-3.87-.91-3.3Z"/><path d="M71.02 70.04c5.52-.25 11.03-.44 16.55-.31 2.68.06 5.37.17 8.04.33q2.07.12 4.14.3c1.49.13 2.88.34 4.36-.01s1.81-2.58.42-3.24c-2.49-1.2-5.7-1.03-8.43-1.18-2.84-.16-5.68-.22-8.53-.17-5.66.1-11.35.51-16.94 1.41-1.63.26-1.24 2.94.39 2.87M27.26 90.52c3.13-2.5 7.99-1.2 11.52-.55 5.18.96 10.38 1.78 15.59 2.57 10.35 1.58 20.73 2.95 31.12 4.24 5.23.65 10.47 1.29 15.7 1.92 5.09.61 10.31 1.58 15.44 1.52 9.17-.11 17.67-5.76 24.66-11.17 2.02-1.56 3.98-3.2 5.87-4.92 1.56-1.43 3.56-2.93 4.62-4.79s1.02-3.92-.31-5.61c-1.16-1.48-3.2-2.76-5.16-2.52-2.13.26-2.24 3.28 0 3.41.77.04 2.22 1.27 2.36 2.01.17.93-1.85 2.46-2.51 3.08-3.09 2.95-6.32 5.81-9.75 8.37-3.33 2.48-6.96 4.76-10.82 6.32-4.32 1.75-8.61 2.06-13.22 1.6-9.87-.98-19.74-2.26-29.58-3.48-9.8-1.21-19.59-2.5-29.36-3.93-5.42-.8-10.83-1.72-16.26-2.49-4.23-.6-8.7-.78-12.09 2.25-1.5 1.34.66 3.38 2.18 2.18Z"/><path d="M119.51 98.91c1.15 11.78 1.65 23.63 3.09 35.38 2.09 17.12 3.32 36.2 6.05 34.52 7.85-4.8 14.1-12.97 20.21-19.86 2.7-3.04 5.54-6.4 5.84-10.46.17-2.19-.44-4.36-.86-6.52-1.58-8.04-.72-16.33-.81-24.53-.1-8.78-1.31-17.5-2.52-26.19-5.69 5.5-11.89 10.48-18.48 14.85-3.22 2.13-6.65 4.16-10.47 4.69"/><path d="M117.98 98.91c.48 13.3 1.79 26.62 3.26 39.84.64 5.71 1.17 11.44 1.86 17.14.46 3.87.77 7.99 2.01 11.71.38 1.13.89 2.39 2 2.99 1.88 1.01 3.8-.82 5.21-1.86 4.61-3.39 8.52-7.57 12.28-11.86 1.81-2.06 3.58-4.15 5.4-6.21 1.87-2.11 3.8-4.26 5.11-6.78 1.45-2.78 1.85-5.63 1.39-8.72s-1.22-6.18-1.44-9.37c-.5-7.4.21-14.82-.13-22.23-.35-7.48-1.42-14.88-2.39-22.29-.22-1.68-2.08-2.75-3.46-1.43-4.23 4.02-8.69 7.81-13.41 11.24-4.4 3.19-9.16 6.88-14.67 7.72-1.12.17-1.74 1.58-1.47 2.59.33 1.2 1.46 1.64 2.59 1.47 5.86-.91 10.98-4.77 15.65-8.18 5-3.65 9.76-7.63 14.18-11.96l-3.39-.89c.92 6.25 1.74 12.53 2.17 18.84.42 6.14.17 12.26.14 18.41-.02 3.05.05 6.1.39 9.13.17 1.53.4 3.05.7 4.56s.71 3.03.77 4.58c.18 5.26-4.51 9.32-7.67 12.98-3.45 4-6.86 8.05-10.74 11.65-1.92 1.78-3.95 3.43-6.16 4.83-.86.55-.48.16.15.15.15 0 .69.17.7.17-.21-.11.46.33.18.12.3.22.14.26 0-.05-.27-.6-.04.07-.21-.47-1.07-3.3-1.49-6.82-1.93-10.26-.69-5.37-1.25-10.76-1.86-16.14-.78-6.83-1.57-13.65-2.16-20.5-.6-7.1-.93-14.27-2.04-21.31-.27-1.71-3.07-1.3-3.01.41ZM54.17 78.09c2.95 1.69 6.49 2.14 9.88 1.87s6.69-1.22 9.95-2.18c5.74-1.69 11.77-3.63 15.76-8.09l-16.35.03c.17 1.49.34 3.01.06 4.49s-1.1 2.93-2.44 3.6"/><path d="M53.13 79.14c5.78 4.75 14.26 2.7 20.75.82s12.83-3.87 17.35-8.8c1.2-1.3.39-3.55-1.47-3.55-5.45 0-10.9.03-16.35.04-1.02 0-2.19.95-2.06 2.06.23 2.02.78 5.11-1.32 6.37-2.2 1.33-.25 4.65 2.01 3.44 3.63-1.95 3.85-6.18 3.44-9.81l-2.06 2.06c5.45 0 10.9 0 16.35-.02-.49-1.18-.98-2.36-1.47-3.55-3.94 4.31-9.64 6.04-15.06 7.65-3.14.93-6.32 1.91-9.61 2.14-3.17.22-6.07-.35-9.06-1.33-1.35-.45-2.58 1.53-1.44 2.47Zm54.78 4.19c.97.69 2.16.96 3.33 1.13 3.03.46 6.14.39 9.14-.21 5.72-1.13 10.88-4.08 15.93-6.99 2.18-1.25 4.37-2.52 6.26-4.19-4.69-.75-9.38-1.5-14.06-2.25-.48-.08-1.05-.13-1.39.21-.22.22-.29.55-.33.87-.2 1.57.04 3.17-.01 4.75s-.47 3.28-1.69 4.3"/><path d="M106.94 84.31c2.25 2.24 6.39 2.33 9.37 2.27 3.47-.07 6.9-.91 10.16-2.06 3.13-1.11 6.09-2.65 8.98-4.29 3-1.7 6.02-3.37 8.63-5.64 1.14-.99.61-3.3-.94-3.55-2.59-.41-5.17-.83-7.76-1.24-1.29-.21-2.59-.41-3.88-.62-1.16-.19-2.38-.5-3.55-.51-5.67-.06-1.81 8.13-4.27 10.9-.66.74-.79 1.81-.16 2.62.56.7 1.77 1.12 2.57.51 1.58-1.2 2.38-2.77 2.66-4.72.15-1.07.14-2.12.1-3.2-.02-.7-.3-2.08.09-2.64l-.76.76s1.01.2 1.21.23c.65.1 1.29.21 1.94.31l3.39.54c2.42.39 4.85.78 7.27 1.16-.31-1.18-.63-2.37-.94-3.55-2.21 1.92-4.85 3.31-7.38 4.75-2.6 1.48-5.23 2.91-7.95 4.18-2.68 1.24-5.52 2.06-8.47 2.33-2.98.27-6.18.26-9-.83-1.33-.51-2.25 1.39-1.34 2.3Zm-55.7-23.02c.26 1.67 2.08 2.41 3.54 2.69 2 .39 4.05.59 6.08.64 1.94.04 3.89-.06 5.82-.29 1.73-.21 4.11-.4 5.31-1.84.41-.49.78-1.25.51-1.91l-.06-.14c-.32-.76-.85-1.26-1.7-1.3s-1.38.61-1.85.8c-.63.26-1.38.35-2.05.47-1.59.3-3.16.54-4.78.62-1.66.08-3.32.05-4.97-.09-.83-.07-2.65.04-3.14-.8-.9-1.56-2.96-.43-2.71 1.14Zm-24.25 38.99c-3.25.9-5.93 3.37-7.56 6.33-5.46 9.92-1.88 23.39 10.39 25.49a408 408 0 0 1-2.51-30.25"/><path d="M26.58 98.78c-12.99 3.23-15.36 22.17-6.51 30.82 2.51 2.45 5.74 3.98 9.18 4.56 1.19.2 2.91-.55 2.71-2.06-1.33-10.03-2.08-20.15-2.6-30.25-.14-2.63-4.22-2.65-4.11 0 .41 10.12 1.34 20.18 2.43 30.25.9-.69 1.8-1.37 2.71-2.06-6.01-1.16-10.31-5.57-11.12-11.63-.39-2.91.04-5.97 1.06-8.73 1.2-3.26 3.65-6.73 7.08-7.9 1.88-.64 1.13-3.49-.83-3m124.88 1.5c6.11.37 11.09 6.13 11.55 12.23s-3.01 12.08-7.98 15.65c-2.03 1.45-4.6 2.6-6.97 1.82-2.33-.76-3.72-3.14-4.55-5.45a25 25 0 0 1-1.37-10.18c.26-3.6 1.62-7.55 4.87-9.12"/><path d="M151.46 101.83c3.75.48 6.82 3.28 8.45 6.58 1.74 3.51 1.46 7.71-.24 11.19s-5.12 7.69-9.16 8.47c-4.44.85-5.79-5.88-6.18-8.99-.53-4.24-.25-9.55 3.69-12.09 1.82-1.17.68-4.59-1.56-3.7-5.33 2.12-6.66 8.63-6.49 13.77.17 5.2 1.75 13.14 7.52 14.94 5.7 1.77 11.47-3.7 14.31-8.04s4.18-10.29 2.32-15.4c-1.96-5.39-6.79-9.65-12.67-9.81-2.05-.06-1.91 2.85 0 3.09Zm-97.05 3.69c-2.56.28-4.56 1.4-5.98 3.58-1.05 1.62-1.55 3.6-1.48 5.52.15 4.06 2.71 7.7 6.55 9.08 4.39 1.58 9.17-.52 11.69-4.27 1.34-1.99 1.8-4.5 1.19-6.82-.58-2.2-2.05-4.17-3.81-5.6-2.08-1.69-4.5-2.67-7.22-2.35-2.69.32-5.28 1.55-6.83 3.84-.89 1.32.85 2.91 2.14 2.14 1.52-.92 2.81-1.66 4.47-2.05 1.31-.3 2.72-.2 3.96.54 1.33.79 2.5 1.94 3.25 3.3.7 1.28.9 2.71.27 4.14-.28.64-.71 1.22-1.17 1.7-.58.59-1.11.84-1.9 1.25-.17.09-.33.15-.71.27-.4.13-.82.23-1.23.29.4-.05-.28 0-.29 0h-.42q-.315 0-.63-.03c.38.03-.37-.07-.45-.09-.34-.08-.66-.18-.99-.3s.43.23-.08-.04c-.16-.08-.32-.16-.48-.25-.31-.17-.61-.36-.89-.57.34.25.09.07.02 0-.17-.16-.34-.31-.51-.47-.12-.12-.23-.26-.35-.38-.38-.41.22.36-.09-.11-.16-.24-.32-.47-.46-.72-.08-.15-.16-.31-.24-.46-.27-.49.13.41-.06-.12-.11-.33-.22-.65-.31-.98l-.12-.5-.06-.34c.03.28.04.3.01.05-.02-.35-.05-.69-.03-1.04 0-.17.02-.35.03-.52.03-.24.02-.23 0 .03l.06-.35c.07-.35.17-.69.28-1.03q.075-.255.18-.51c-.14.39.14-.29.18-.36.17-.32.39-.68.56-.92.44-.59 1.18-1.42 1.97-1.51s1.53-.64 1.53-1.53c0-.76-.7-1.62-1.53-1.53Z"/><path d="M59.86 106.93c-2.81.94-5.06 3.29-5.65 6.23-.68 3.38.84 6.27 2.94 8.8.62.74 1.89.64 2.53 0 .75-.75.6-1.77 0-2.53-1.34-1.68-2.5-3.36-2.2-5.62.23-1.73 1.53-3.36 3.17-4 .75-.29 1.27-1 1.04-1.84-.2-.75-1.07-1.3-1.84-1.04Zm29.78 3.05c-2.56.28-4.56 1.4-5.98 3.58-1.05 1.62-1.55 3.6-1.48 5.52.15 4.06 2.71 7.7 6.55 9.08 4.39 1.58 9.17-.52 11.69-4.27 1.34-1.99 1.8-4.5 1.19-6.82-.58-2.2-2.05-4.17-3.81-5.6-2.08-1.69-4.5-2.67-7.22-2.35-2.69.32-5.28 1.55-6.83 3.84-.89 1.32.85 2.91 2.14 2.14 1.52-.92 2.81-1.66 4.47-2.05 1.31-.3 2.72-.2 3.96.54 1.33.79 2.5 1.94 3.25 3.3.7 1.28.9 2.71.27 4.14-.28.64-.71 1.22-1.17 1.7-.58.59-1.11.84-1.9 1.25-.17.09-.33.15-.71.27-.4.13-.82.23-1.23.29.4-.05-.28 0-.29 0h-.42q-.315 0-.63-.03c.38.03-.37-.07-.45-.09-.34-.08-.66-.18-.99-.3s.43.23-.08-.04c-.16-.08-.32-.16-.48-.25-.31-.17-.61-.36-.89-.57.34.25.09.07.02 0-.17-.16-.34-.31-.51-.47-.12-.12-.23-.26-.35-.38-.38-.41.22.36-.09-.11-.16-.24-.32-.47-.46-.72-.08-.15-.16-.31-.24-.46-.27-.49.13.41-.06-.12-.11-.33-.22-.65-.31-.98l-.12-.5-.06-.34c.03.28.04.3.01.05-.02-.35-.05-.69-.03-1.04 0-.17.02-.35.03-.52.03-.24.02-.23 0 .03l.06-.35c.07-.35.17-.69.28-1.03q.075-.255.18-.51c-.14.39.14-.29.18-.36.17-.32.39-.68.56-.92.44-.59 1.18-1.42 1.97-1.51s1.53-.64 1.53-1.53c0-.76-.7-1.62-1.53-1.53Z"/><path d="M95.09 111.39c-2.81.94-5.06 3.29-5.65 6.23-.68 3.38.84 6.27 2.94 8.8.62.74 1.89.64 2.53 0 .75-.75.6-1.77 0-2.53-1.34-1.68-2.5-3.36-2.2-5.62.23-1.73 1.53-3.36 3.17-4 .75-.29 1.27-1 1.04-1.84-.2-.75-1.07-1.3-1.84-1.04Zm-32.62 23c6.63 3.24 13.57 4.64 20.95 4.07 2.41-.19 5.67-.46 5.77 2.76.07 2.56-2.22 4.08-4.36 4.92-6.07 2.38-13.41 1.3-19.13-1.53-2.37-1.17-4.62-2.52-6.13-4.74-.98-1.45-2.19-3.78-.45-5.12 2-1.53 5.6.55 7.55 1.31 2.27.88 4.56 1.66 6.99 1.84 1.62.12 2.35-2.44.85-3.13-2.24-1.03-4.56-1.85-6.82-2.85-3.02-1.34-6.74-2.76-9.96-1.28-3.15 1.45-4.39 5-3.39 8.21.94 3.02 3.17 5.67 5.74 7.44 6.7 4.61 15.59 6.51 23.55 4.68 3.33-.76 7.11-2.43 8.81-5.58 1.64-3.02 1.35-7.32-1.42-9.59-1.8-1.47-4.13-1.75-6.38-1.62-2.33.13-4.62.36-6.96.26-4.77-.2-9.49-1.36-13.95-3-1.7-.62-2.88 2.14-1.24 2.94Z"/><path d="M62.97 133.96c-.05.83-.61 1.59-.9 2.34-.37.95-.46 1.98-.33 2.99.24 1.97 1.08 3.94 2.12 5.61s2.39 2.94 4.01 3.92c.83.5 1.71.9 2.6 1.26.84.34 1.7.56 2.54.87.61.23 1.25-.07 1.7-.45l.09-.07c.4-.34.55-1.02.4-1.51l-.04-.12c-.17-.57-.62-1.08-1.22-1.22-1.43-.33-2.91-1.03-4.16-1.79-1.26-.77-2.34-1.72-3.11-2.98-.76-1.25-1.59-2.81-1.64-4.3-.05-1.76 1.35-3.12.81-4.94-.48-1.62-2.77-1.24-2.87.39"/></svg>