<?xml version="1.0" encoding="UTF-8"?><svg xmlns="http://www.w3.org/2000/svg" viewBox="0 0 180 180"><path d="M117.59 59.08c-13.39-1.35-26.91-1.48-40.3-.08C63.85 60.41 50.4 63.38 38 68.84 26.79 73.77 14.89 81.4 10.07 93.18c-2.12 5.18-2.55 11.08-.71 16.41 2.05 5.97 6.46 10.69 11.65 14.14 5.46 3.63 11.77 5.86 18.02 7.7 7 2.07 14.17 3.56 21.4 4.55 14.24 1.94 28.64 1.94 42.92.38 12.76-1.39 25.48-3.93 37.28-9.15 10.84-4.79 20.79-12.05 26.42-22.71 2.54-4.8 4.21-10.23 4.04-15.71-.18-5.84-2.51-11.3-6.44-15.61-7.42-8.11-19.28-10.99-29.74-12.58-2.62-.4-5.24-.63-7.87-.92-1.12-.12-2.08 1.04-2.08 2.08 0 1.22.96 1.96 2.08 2.08 9.89 1.06 20.67 2.75 29.26 8.06 4.2 2.6 7.78 6.39 9.41 11.13s1.27 9.63-.24 14.28c-3.34 10.29-11.54 17.93-20.77 23.08-10.57 5.9-22.52 8.97-34.42 10.78-13.01 1.98-26.31 2.57-39.44 1.62-13.32-.96-26.96-3.45-39.39-8.45-5.47-2.2-10.79-5.31-14.58-9.92-3.3-4.02-4.82-9.21-4.16-14.38 1.48-11.46 11.92-19.33 21.37-24.44 11.06-5.99 23.49-9.41 35.85-11.46 12.7-2.11 25.66-2.83 38.52-2.42 3.05.1 6.1.29 9.15.55 2.05.17 2.02-2.98 0-3.19Z"/><path d="M88.68 64.68c-.27-6.83-.26-13.87 1.68-20.49.8-2.74 1.93-5.35 3.48-7.75s3.65-4.18 5.66-6.2c1.54-1.55-.4-3.78-2.23-2.9-2.84 1.37-5.05 4.12-6.76 6.69s-3.02 5.52-3.92 8.5c-2.16 7.18-1.82 14.76-1.23 22.14.17 2.11 3.42 2.16 3.33 0Z"/><path d="M98.25 28.69c-.71-1.9-1.31-3.83-1.8-5.8-.17-.7-.34-1.43-.22-2.14.21-1.31 1.29-2.29 2.38-3.05 2.15-1.51 5.04-2.62 7.37-1.39.43.23.82.52 1.19.84 2.99 2.55 4.81 6.42 4.88 10.35 0 .44-.01.89-.22 1.28-.2.38-.56.66-.92.91-1.54 1.13-3.28 2.32-5.19 2.13-.77-.08-1.5-.38-2.21-.68-1.18-.5-2.36-.99-3.55-1.49"/><path d="M99.66 28.3c-.24-1.61-.74-3.14-1.11-4.73-.15-.65-.38-1.34-.43-2-.04-.5.08-.81.28-1.08.71-.98 1.89-1.65 2.99-2.16.95-.45 2.11-.74 3.02-.53 1.09.26 1.95 1.19 2.71 2.05.8.9 1.45 1.96 1.94 3.06.46 1.01.81 2.3.94 3.34.05.44.18 1.16.13 1.54 0 .03.17-.26-.02.03-.02.03-.35.31-.22.2-.17.14-.57.41-.84.59-1.12.76-2.31 1.53-3.66 1.15-1.68-.48-3.3-1.33-4.91-2-.98-.41-2.17.44-2.42 1.38-.31 1.14.39 2.01 1.38 2.42.91.38 1.82.76 2.73 1.15.89.38 1.79.81 2.75.99 2.03.38 3.98-.29 5.68-1.38 1.75-1.13 3.34-2.27 3.41-4.54.05-1.74-.3-3.57-.89-5.2-1.11-3.1-3.31-6.57-6.38-8.05-3.54-1.71-7.72.11-10.44 2.54-1.73 1.55-2.3 3.57-1.79 5.82s1.28 4.62 2.49 6.56c.93 1.48 2.91.46 2.67-1.13ZM79.11 75.7c-1.86 1.29-3.62 2.71-5.22 4.31-1.51 1.51-3.12 3.24-4.06 5.18-.78 1.61-1.06 3.46-.2 5.1.71 1.36 2.06 2.25 3.5 2.69 3.6 1.11 6.97-.6 9.69-2.87 1.65-1.37 3.09-2.98 4.46-4.63 1.29-1.56 2.77-3.18 3.63-5.02 1.05-2.24.99-4.76-.78-6.62-1.47-1.54-3.91-2.27-5.93-1.47-.9.36-1.53 1.2-1.26 2.21.24.86 1.3 1.62 2.21 1.26s1.89-.21 2.59.7c.22.28.33.6.33.97 0 .74-.37 1.41-.76 2.02-.85 1.36-1.94 2.6-2.98 3.81s-2.22 2.49-3.47 3.59c-.55.49-1.12.94-1.74 1.34s-1.25.75-1.72.9a7 7 0 0 1-1.13.27c.31-.04-.01 0-.07 0-.29.02-.57.03-.85.01-.12 0-.25-.02-.37-.03-.23-.02.24.06-.12-.02a7 7 0 0 1-.77-.2c-.05-.01-.39-.15-.17-.05.26.11-.22-.12-.22-.12-.12-.07-.57-.42-.26-.15-.07-.07-.16-.14-.22-.21-.32-.41.21.34-.07-.09-.06-.08-.1-.18-.15-.27.03.06.16.38.03.03-.04-.1-.05-.21-.07-.31.08.41 0 .11.02.02.02-.11 0-.24 0-.35-.02.36 0-.05.04-.14.06-.21.17-.57.22-.68.75-1.69 2.12-3.27 3.33-4.65 1.33-1.52 2.81-2.91 4.36-4.21 1.29-1.08-.41-3.31-1.81-2.34Zm29.65 3.15c-1.86 1.29-3.62 2.71-5.22 4.31-1.51 1.51-3.12 3.24-4.06 5.18-.78 1.61-1.06 3.46-.2 5.1.71 1.36 2.06 2.25 3.5 2.69 3.6 1.11 6.97-.6 9.69-2.87 1.65-1.37 3.09-2.98 4.46-4.63 1.29-1.56 2.77-3.18 3.63-5.02 1.05-2.24.99-4.76-.78-6.62-1.47-1.54-3.91-2.27-5.93-1.47-.9.36-1.53 1.2-1.26 2.21.24.86 1.3 1.62 2.21 1.26s1.89-.21 2.59.7c.22.28.33.6.33.97 0 .74-.37 1.41-.76 2.02-.85 1.36-1.94 2.6-2.98 3.81-1.08 1.26-2.22 2.49-3.47 3.59-.55.49-1.12.94-1.74 1.34s-1.25.75-1.72.9a7 7 0 0 1-1.13.27c.31-.04-.01 0-.07 0-.29.02-.57.03-.85.01-.12 0-.25-.02-.37-.03-.23-.02.24.06-.12-.02a7 7 0 0 1-.77-.2c-.05-.01-.39-.15-.17-.05.26.11-.22-.12-.22-.12-.12-.07-.57-.42-.26-.15-.07-.07-.16-.14-.22-.21-.32-.41.21.34-.07-.09-.06-.08-.1-.18-.15-.27.03.06.16.38.03.03-.04-.1-.05-.21-.07-.31.08.41 0 .11.02.02.02-.11 0-.24 0-.35-.02.36 0-.05.04-.14.06-.21.17-.57.22-.68.75-1.69 2.12-3.27 3.33-4.65 1.33-1.52 2.81-2.91 4.36-4.21 1.29-1.08-.41-3.31-1.81-2.34ZM65.18 99.12c-2.9 1.95-4.93 5.7-4.08 9.19.9 3.71 4.09 6.01 7.44 7.37 7.41 3.01 16.17 3.14 23.8.94 3.63-1.05 7.49-2.68 9.48-6.1 1.8-3.09 1.56-7.06-1.14-9.54-2.25-2.07-5.48-2.99-8.49-2.84-3.82.2-7.48 1.85-11.25.42-1.89-.71-3.64-1.79-5.62-2.24s-4.24-.41-6.25.22c-3.96 1.23-7.57 4.58-8.02 8.83-.22 2.09 3.22 2.54 3.67.5.56-2.57 3.17-4.79 5.62-5.5 2.83-.83 5.19.18 7.75 1.32 3.12 1.39 5.99 1.74 9.36 1.21 2.54-.4 5.07-1.15 7.63-.47 1.93.52 4.13 1.82 3.94 4.12-.23 2.78-2.91 4.46-5.26 5.39-5.92 2.33-12.7 2.77-18.91 1.45-3.02-.64-6.86-1.54-8.91-4.06-1.95-2.4-1.12-5.82 1.21-7.67 1.43-1.13-.44-3.56-1.96-2.54Zm-30.95-9.64 7.86.05c2.62.02 5.26.12 7.86-.13 1.96-.18 1.96-2.86 0-3.05-2.61-.25-5.24-.15-7.86-.13s-5.24.03-7.86.05c-2.06.01-2.06 3.19 0 3.2Zm-4.24 7.86 7.86.05c2.62.02 5.26.12 7.86-.13 1.96-.18 1.96-2.86 0-3.05-2.61-.25-5.24-.15-7.86-.13s-5.24.03-7.86.05c-2.06.01-2.06 3.19 0 3.2Zm-4.25 7.86c2.62.02 5.24.03 7.86.05s5.26.12 7.86-.13c1.96-.18 1.96-2.86 0-3.05-2.61-.25-5.24-.15-7.86-.13s-5.24.03-7.86.05c-2.06.01-2.06 3.19 0 3.2Z"/><path d="M64.41 103.96c2.65 1.83 5.35 3.64 8.48 4.52 3.03.85 6.33 1.03 9.45 1.3 6.23.54 12.59.38 18.3-2.43 1.8-.89.22-3.59-1.58-2.7-5.18 2.56-11.1 2.52-16.72 2.05-2.87-.24-5.85-.42-8.66-1.1-2.9-.7-5.46-2.31-7.97-3.87-1.43-.89-2.65 1.29-1.3 2.23"/><path d="M8.74 103.55c-.72 8.48-.39 17.36 1.24 25.73.73 3.78 2.51 6.96 5.44 9.47 2.87 2.45 6.15 4.43 9.53 6.08 6.94 3.39 14.42 5.4 21.98 6.88 7.95 1.56 15.98 2.74 24.05 3.43 15.38 1.32 30.94.71 46.06-2.46 7.61-1.6 15.08-3.85 22.31-6.73 6.44-2.57 12.79-5.39 18.37-9.57 5.02-3.76 9.88-8.12 12.27-14.05 1.38-3.43 2.03-6.96 2.01-10.66-.03-4.46-.11-8.92-.16-13.37-.03-2.15-.09-4.29-.15-6.44-.07-2.48-3.85-2.49-3.86 0-.01 4.21.03 8.42.09 12.63.05 3.75.46 7.71-.18 11.42-.51 2.94-1.55 5.96-3.24 8.43s-3.81 4.46-6 6.35c-4.78 4.12-10.13 7.05-15.88 9.6-6.87 3.05-14.03 5.49-21.32 7.33-14.26 3.6-29.01 4.73-43.68 4.01-7.51-.37-15-1.21-22.42-2.43s-14.83-2.68-21.94-5.13c-3.39-1.17-6.68-2.59-9.79-4.36-2.89-1.64-6.28-3.57-8.17-6.39-2.12-3.15-2.35-7.36-2.76-11.03-.47-4.17-.76-8.37-.89-12.57-.06-2.06-.18-4.11-.23-6.17-.04-1.73-2.51-1.68-2.66 0Z"/><path d="M93.76 136.93c.07 4.97.15 9.93.22 14.9-6.08.57-12.2.03-18.28-.54-16.73-1.59-33.86-3.63-48.8-11.33-2.96-1.53-8.59-3.27-10.59-5.93-3.79-5.03-.82-11.98-2.53-18.05 1.82 4.69 5.87 8.25 10.37 10.51s9.46 3.39 14.37 4.49c18.18 4.09 36.79 8.21 55.3 5.98"/><path d="M92.16 136.93c-.39 4.94-.15 9.95-.09 14.9l1.91-1.91c-7.29.63-14.59-.2-21.84-.95-6.66-.68-13.31-1.5-19.88-2.79-6.53-1.28-13.02-3.02-19.17-5.58-2.69-1.12-5.25-2.52-7.93-3.68-2.17-.94-4.6-1.82-6.43-3.35-2.26-1.87-2.44-5.09-2.41-7.8.03-3.48.35-6.94-.55-10.35-1.32.36-2.64.73-3.96 1.09 4.27 10.59 15.54 14.04 25.73 16.34 11.89 2.68 23.83 5.39 36 6.4 6.76.56 13.55.57 20.29-.23 1.11-.13 2.06-.85 2.06-2.06 0-1.01-.95-2.19-2.06-2.06-11.41 1.33-22.92.31-34.2-1.65-5.69-.99-11.35-2.2-16.99-3.45-5.3-1.18-10.78-2.17-15.79-4.31-4.61-1.97-9.15-5.26-11.08-10.06-.96-2.39-4.66-1.53-3.96 1.09 1.56 5.87-1.12 12.43 2.3 17.9 1.49 2.38 3.95 3.77 6.43 4.92 2.44 1.13 4.9 2.22 7.33 3.37 12.76 6.06 26.78 8.36 40.71 9.84 8.4.89 16.96 1.96 25.4 1.19 1.01-.09 1.93-.8 1.91-1.91-.09-4.95 0-9.97-.53-14.9-.22-2.03-3.04-2.08-3.2 0m11.29-2.41c-.48 1.33-.33 2.91-.35 4.31s0 2.83 0 4.25c0 2.82-.16 5.69.2 8.5.25 1.98 2.85 1.99 3.09 0 .35-2.81.2-5.68.2-8.5 0-1.42.01-2.83 0-4.25s.14-2.98-.35-4.31-2.29-1.37-2.79 0m11.93 6.3c1.55 0 1.55-2.41 0-2.41s-1.55 2.41 0 2.41m7.07-4.01.37.05.33.14.28.22.22.28.14.33c-.21.52-.43 1.05-.64 1.58.1-.07.2-.14.29-.23l.22-.29c.13-.22.2-.47.2-.73 0-.06 0-.13-.03-.19-.04-.29 0-.17-.17-.54l.14.34v-.03l.05.38v-.02l-.05.38v-.01l-.14.34-.22.29-.29.22-.34.14c.25-.1.44-.16.62-.36l.22-.28c.07-.11.11-.22.14-.34l-.14.33-.22.28c.19-.24.27-.31.36-.61.02-.12.04-.25.05-.37 0-.37-.15-.73-.41-.99-.15-.16-.4-.32-.62-.36-.26-.06-.5-.08-.76 0l-.34.14c-.07.05-.22.14-.3.23-.08.1-.15.19-.22.29-.06.12-.11.23-.15.36v.01c-.05.24-.09.53 0 .77.04.19.13.35.26.49.1.16.24.28.4.37l.34.14c.25.07.51.07.76 0h-.74l.37.05c.12 0 .25-.01.37-.05l.33-.14a1.4 1.4 0 0 0 .7-1.2c0-.25-.06-.48-.19-.69-.12-.21-.29-.37-.49-.49-.21-.12-.45-.19-.69-.19Zm-2.66 8.23c1.52 0 1.52-2.36 0-2.36s-1.52 2.36 0 2.36m14.59-10.16-.02-.15-.13-.3a1 1 0 0 0-.32-.35.6.6 0 0 0-.27-.16 1 1 0 0 0-.48-.11l-.33.04-.3.13c-.14.08-.26.18-.35.32-.11.12-.18.26-.22.42l-.02.15c-.06.22-.06.45 0 .67.06.21.17.4.33.56l.26.2c.2.11.41.17.64.17.17 0 .34-.03.49-.11a1 1 0 0 0 .41-.26c.16-.16.27-.34.33-.56s.06-.45 0-.67Zm6.53-1.04.07-.08a1 1 0 0 0 .26-.41.93.93 0 0 0 .11-.49l-.05-.34q-.09-.33-.33-.57l-.07-.08-.28-.22-.33-.14a.97.97 0 0 0-.56-.02.6.6 0 0 0-.35.1c-.12.03-.22.09-.31.18-.11.06-.19.15-.25.25-.09.09-.15.19-.18.31q-.135.255-.12.54l.05.37.14.33.22.28.28.22.33.14c.19.06.37.07.56.02.13 0 .24-.03.35-.1.17-.06.32-.15.45-.29Zm-2.56 5.73c1.96 0 1.96-3.05 0-3.05s-1.96 3.05 0 3.05m10.06-10.3c1.66 0 1.66-2.58 0-2.58s-1.66 2.58 0 2.58m5.66-3.75c1.89 0 1.89-2.94 0-2.94s-1.89 2.94 0 2.94m.34 4.62v-.02c-.05-.11-.1-.23-.15-.34-.09-.17-.21-.3-.37-.4a.65.65 0 0 0-.31-.18c-.17-.09-.35-.13-.55-.12-.2 0-.38.03-.55.12-.12.03-.22.09-.31.18-.06.03-.11.07-.14.11v.01l-.02.02c-.13.12-.23.27-.28.44-.09.16-.13.34-.12.53l.05.37c.07.23.18.44.35.61l.02.02s.28.22.29.22c.16.1.34.16.53.17l.19.03.38-.05c.18-.04.35-.13.48-.25.11-.06.19-.15.25-.25.13-.14.21-.3.25-.48s0-.02 0-.02c.06-.29.06-.43 0-.71Zm8-12.84c1.64 0 1.64-2.55 0-2.55s-1.64 2.55 0 2.55m4.3-4.02.08-.02h.04v-.01l.32-.14s.01 0 .02-.01q.3-.18.48-.48c.12-.21.18-.44.18-.68s-.06-.47-.18-.68q-.18-.3-.48-.48a1.1 1.1 0 0 0-.39-.16l-.08-.02a1.33 1.33 0 0 0-.74 0c-.24.07-.44.19-.61.36l-.22.28c-.13.22-.19.45-.19.7 0 .19.03.37.12.54.06.17.15.32.29.45.17.17.38.29.61.36.25.07.49.07.74 0Zm-1 9.22c2.06 0 2.06-3.2 0-3.2s-2.06 3.2 0 3.2"/><path d="M40.32 145.11c.1.42-.9 1.19-1.17 1.43-.67.61-1.37 1.19-2.05 1.79-1.4 1.24-2.81 2.46-4.29 3.59a31.6 31.6 0 0 1-4.28 2.77c-.75.4-1.5.77-2.27 1.06-.98.37-2.33.51-3 1.37-1.02 1.28-.6 2.79.9 3.41 1.13.46 2.6-.23 3.67-.66s2.07-.88 3.06-1.42c1.93-1.07 3.75-2.39 5.43-3.81s3.13-2.81 4.56-4.34c1.5-1.61 3.52-3.61 2.57-6.03-.75-1.9-3.62-1.21-3.12.86Z"/><path d="M40.22 148.55c-.29-.29-.13-.52-.15.02 0 .2-.05.42-.08.62-.1.71-.17 1.41-.28 2.12-.22 1.42-.44 2.83-.76 4.23s-.67 2.79-1.1 4.16q-.315 1.02-.69 2.04c-.27.74-.64 1.45-.55 2.26.19 1.65 1.85 2.35 3.15 1.3.78-.63 1.06-1.71 1.39-2.62.3-.82.57-1.65.82-2.48.52-1.72.91-3.47 1.18-5.25s.49-3.6.47-5.42-.57-3.73-2.77-3.41c-1.13.17-1.33 1.72-.64 2.43Z"/><path d="M40.45 151.31c1.45.95 2.68 2.37 3.88 3.61 1.28 1.33 2.54 2.68 3.8 4.03 2.55 2.7 5.31 5.35 8.65 7.03.98.49 2.2.26 2.78-.73.53-.9.25-2.28-.73-2.78-3.24-1.63-5.66-4.16-8.18-6.76-1.28-1.32-2.55-2.67-3.94-3.88s-3.04-2.22-4.68-3.22c-1.73-1.05-3.25 1.6-1.58 2.7m63.75 2.44c-.36 2.16-.71 4.32-1.28 6.44-.26.97.33 1.95 1.27 2.24 3.94 1.2 8.37.37 12.35-.24s7.76-1.39 11.57-2.4c7.79-2.05 15.35-5.01 22.52-8.66.95-.48 1.36-1.96.75-2.85-.84-1.21-1.72-2.39-2.63-3.54s-1.77-2.4-3.06-3.07-3.4.48-2.73 2.1c.55 1.33 1.5 2.29 2.4 3.4.85 1.04 1.65 2.12 2.41 3.22l.75-2.85c-6.73 3.44-13.78 6.16-21.07 8.16-3.65 1-7.35 1.82-11.09 2.45-3.53.59-7.66 1.65-11.21.78l1.27 2.24c.53-2.49.69-4.9.21-7.4-.23-1.19-2.23-1.22-2.44 0Z"/><path d="M114.16 151.24c-.04.67.17 1.38.32 2.02s.31 1.28.49 1.91.34 1.23.51 1.84c.08.31.16.62.26.92.05.15.1.3.16.45.2.49.42.73.84 1.05.39.29.99.26 1.4.08.48-.2.73-.55.91-1.02.29-.74-.13-1.71-.34-2.44-.18-.61-.36-1.22-.53-1.83s-.38-1.22-.57-1.82-.39-1.33-.77-1.88c-.36-.51-.99-.87-1.62-.66s-1.02.73-1.06 1.39Zm10.44-2.12c-.03 1.52.68 2.91 1.43 4.18.16.28.32.55.47.84.08.15.15.29.22.44.11.23-.01.01-.04-.09.02.08.07.17.09.24.05.13.09.27.12.41.02.08.04.17.05.25.04.19-.03.27 0-.09-.05.58.11 1.32.57 1.71.52.44 1.13.53 1.74.22 1.11-.55 1-2.11.67-3.1-.24-.72-.6-1.39-1.01-2.03-.36-.57-.75-1.12-1.09-1.7q-.12-.195-.21-.39c-.02-.04-.08-.21-.11-.24.07.05.11.3.03.06-.05-.15-.1-.3-.13-.46 0-.04-.02-.09-.02-.13-.02-.11-.01-.06.02.16.02-.06-.02-.2-.02-.26-.03-.73-.62-1.43-1.39-1.39s-1.37.61-1.39 1.39Zm8.57-1.38c.58 1.1 1.36 2.11 2.09 3.11l1.11 1.52.55.76c.15.21.31.41.47.62s.35.35.56.51c.51.38 1.33.23 1.79-.13s.79-1.09.58-1.69c-.25-.69-.76-1.24-1.19-1.81l-1.14-1.5c-.81-1.06-1.61-2.18-2.56-3.12-.51-.5-1.32-.54-1.88-.11s-.71 1.21-.37 1.84Z"/></svg>