<?xml version="1.0" encoding="UTF-8"?><svg xmlns="http://www.w3.org/2000/svg" viewBox="0 0 180 180"><path d="M104.97 33.8c-6.27-.82-12.63-.91-18.94-.82-7.41.11-14.81.55-22.19 1.16-7.05.58-14.08 1.36-21.09 2.23-6.28.78-12.98 1.16-18.97 3.33-3.21 1.17-6.27 2.88-8.41 5.6-2.67 3.41-3.03 7.55-3.09 11.73-.13 9.03-.12 18.06-.07 27.09.05 9.22.13 18.44.15 27.67 0 4.42 0 8.85-.03 13.27-.03 4.41-.44 9.05.78 13.34 2.14 7.54 8.95 12.26 15.22 16.26 7.22 4.61 14.51 9.21 22.41 12.58 3.99 1.7 8.09 3.11 12.34 3.97 4.65.93 9.39 1.2 14.12 1.08 9.73-.24 19.48-1.25 29.18-1.95 9.64-.69 19.3-1.26 28.93-2.1 4.68-.4 9.42-.91 14-2.02 3.94-.95 7.61-2.65 10.13-5.91 1.28-1.65 2.28-3.52 2.85-5.54.64-2.26.69-4.72.94-7.05.49-4.75.97-9.51 1.41-14.27.88-9.68 1.43-19.36 1.89-29.06.42-8.93 1.19-17.84 1.29-26.79.07-6.89-.03-14.77-3.8-20.8-1.67-2.67-3.87-4.67-6.65-6.13-3.14-1.65-6.3-3.36-9.56-4.77-7.69-3.34-15.81-5.65-23.72-8.42-2.08-.73-4.16-1.4-6.29-1.95-2.17-.56-4.34-.78-6.54-1.11-1-.15-1.98.25-2.28 1.29-.25.87.31 2.13 1.29 2.28 4.21.63 8.4 2.34 12.4 3.74s7.61 2.63 11.44 3.88c3.79 1.23 7.58 2.49 11.25 4.05 3.16 1.34 6.18 3.03 9.25 4.58 2.49 1.26 4.32 2.68 5.79 5.12 1.64 2.71 2.3 5.9 2.63 9.01.78 7.45.2 15.09-.25 22.54-.56 9.25-.94 18.52-1.57 27.76-.64 9.29-1.55 18.57-2.54 27.83-.43 4.04-.46 8.13-3.28 11.35-2.37 2.71-5.94 3.59-9.34 4.26-9.02 1.78-18.36 2-27.52 2.66l-28.04 2.01c-8.97.64-18.17 1.74-27.05-.18-8.04-1.74-15.47-5.37-22.54-9.49-3.59-2.09-7.11-4.31-10.62-6.54-3-1.91-5.98-3.89-8.5-6.41s-4.27-5.42-4.81-8.92c-.64-4.12-.19-8.51-.16-12.67.05-8.74.01-17.48-.03-26.22-.05-8.81-.11-17.61-.11-26.42 0-4.3.01-8.6.06-12.9.04-3.55.19-7.17 2.82-9.83 4.26-4.31 11.24-4.88 16.92-5.69q9.36-1.32 18.75-2.37c13.78-1.52 27.73-2.97 41.61-2.61 2.72.07 5.45.22 8.15.53.88.1 1.62-.82 1.63-1.63.01-.98-.76-1.52-1.63-1.63Z"/><path d="M16.56 48.22c5.2-3.16 11.84-2.16 17.73-.66 10.11 2.57 19.92 6.31 29.18 11.12 2.65 1.38 5.38 2.95 6.93 5.5 1.76 2.88 1.71 6.47 1.61 9.85l-2.7 90.64c-.02.7-.05 1.43-.38 2.04-1.09 2.05-4.17 1.33-6.26.31a369 369 0 0 1-40.89-23.31c-1.05-.69-2.14-1.42-2.8-2.5-.74-1.2-.87-2.68-.96-4.09-1.56-23.42-1.01-46.93-1.25-70.4-.02-1.58-.04-3.16-.31-4.72-.27-1.53-.78-3.02-.96-4.57-.38-3.2.76-6.55 3.01-8.87"/><path d="M17.22 49.36c3.85-2.09 8.41-1.85 12.59-1.04 4.65.9 9.21 2.37 13.69 3.89s9.2 3.38 13.65 5.45c2.16 1.01 4.31 2.06 6.4 3.2 1.74.95 3.55 2.03 4.78 3.64 2.73 3.59 1.78 9.09 1.65 13.27-.17 5.31-.33 10.62-.5 15.94-.33 10.62-.66 21.25-1 31.87-.33 10.54-.66 21.08-.97 31.62-.08 2.61.02 5.29-.24 7.89-.06.59-.08.81-.65.92-.72.13-1.6-.19-2.26-.43-2.12-.78-4.15-1.99-6.16-3.02-2.24-1.14-4.47-2.3-6.68-3.48-8.86-4.73-17.52-9.86-25.96-15.31-.98-.63-1.95-1.26-2.92-1.91-.8-.54-1.71-1.12-2.12-2.03s-.42-1.97-.49-2.94q-.135-1.98-.24-3.96c-.3-5.28-.5-10.57-.63-15.85-.27-10.58-.28-21.16-.29-31.74 0-5.21-.01-10.42-.05-15.63-.02-2.59.05-5.2-.33-7.76-.34-2.28-1.27-4.47-.97-6.81.24-1.92 1.12-3.71 2.44-5.12 1.78-1.9-1.08-4.77-2.86-2.86-3.44 3.67-4.22 8.34-3.09 13.12 1.27 5.37.79 11.13.81 16.62.03 11.33-.02 22.65.16 33.98.09 5.62.24 11.24.49 16.85.12 2.81.27 5.61.45 8.42.16 2.54.3 5.12 2.07 7.12 1.58 1.79 3.95 2.99 5.93 4.26 2.25 1.44 4.51 2.86 6.78 4.25 4.62 2.83 9.3 5.55 14.04 8.17a375 375 0 0 0 14.17 7.46c3.19 1.59 8.61 4.67 11.45.78.76-1.04.91-2.26.96-3.52.06-1.49.09-2.99.13-4.48.08-2.82.17-5.64.25-8.47.17-5.64.33-11.29.49-16.93l.96-33.87c.16-5.73.32-11.45.49-17.18l.24-8.47c.07-2.5.16-5-.24-7.49-.8-5-4.26-8.09-8.54-10.37-4.57-2.43-9.32-4.55-14.13-6.43-4.86-1.9-9.83-3.49-14.88-4.79-4.54-1.16-9.25-2.1-13.94-1.41-2.23.33-4.36 1.09-6.26 2.29-1.44.91-.17 3.09 1.33 2.28Z"/><path d="M73.23 67.25c23.09-.31 46.06-1.73 69.04-3.97 3.28-.32 6.56-.63 9.85-.86 3.29-.24 6.58-.24 9.87-.43 2.58-.15 2.61-3.95 0-4.03-5.72-.17-11.57.56-17.25 1.1-5.74.55-11.48 1.13-17.22 1.63-11.49 1.01-23.01 1.77-34.52 2.46-6.58.39-13.17.71-19.76.95-2.01.07-2.03 3.17 0 3.14Zm.8 18.82c23.45-.61 46.87-2.36 70.24-4.33 6.59-.56 13.17-1.14 19.75-1.76 1.07-.1 1.99-.84 1.99-1.99 0-1-.91-2.09-1.99-1.99-23.38 2.21-46.78 3.88-70.2 5.6-6.6.48-13.2.98-19.8 1.49-1.89.15-1.94 3.04 0 2.98Zm76.04 25.41c-1.57-5.62-4.7-10.47-9.66-13.65-4.73-3.03-10.42-4.36-15.99-4.45-11.98-.19-23.75 4.89-30.98 14.56-7.83 10.47-10.55 26.08-3.88 37.8 6.2 10.9 19.29 15.43 31.28 13.9 5.88-.75 11.66-2.75 16.51-6.21 5.26-3.76 8.84-8.95 10.83-15.09.71-2.21 1.22-4.47 1.66-6.74.5-2.61-3.5-3.73-4.01-1.1-.73 3.73-1.61 7.54-3.44 10.91-1.22 2.25-2.81 4.08-4.65 5.84-3.7 3.53-8.41 5.86-13.37 7.1-9.85 2.46-21.38.58-28.37-7.32-8.06-9.11-7.1-22.85-1.46-32.92 2.75-4.91 6.64-9.08 11.56-11.86 4.29-2.42 9.23-3.92 14.1-4.39 9.64-.92 20.11 1.9 25.22 10.82.67 1.17 1.19 2.37 1.6 3.65.61 1.93 3.59 1.13 3.04-.84Z"/><path d="M149.82 111.61c-1.68.34-3.39-.34-5.09.03-1.97.43-3.19 2.13-3.64 4.01-.48 1.99-.54 4.14-.76 6.18-.2 1.83-.52 3.68-.19 5.52s1.55 3.35 3.37 3.93c1.84.59 4.06.23 5.94.03 1.97-.21 4.53-.23 6.02-1.73s1.7-4 1.97-5.93c.34-2.39.46-4.79.47-7.2 0-1.03.09-2.11-.28-3.09-.45-1.19-1.65-2.18-2.98-1.64-.69.28-1.22.81-1.22 1.6 0 .67.51 1.48 1.22 1.6-1.02-.16-.12-.2-.4-.34-.07-.04.07-.38.03.14 0-.08-.02.46-.03.61-.03.85-.06 1.71-.1 2.56-.08 1.59-.15 3.18-.36 4.76-.1.74-.24 1.47-.4 2.19-.12.54-.18 1.61-.6 2.02-.29.28-.84.3-1.22.37-.76.13-1.53.22-2.29.3-1.39.14-3 .43-4.39.2-1-.16-1.1-.86-1.14-1.68-.07-1.41.18-2.83.32-4.22.17-1.56.27-3.14.5-4.69.16-1.08.37-2.01 1.52-2.29 1.46-.36 2.99-.13 4.43-.64 1.63-.58.99-2.94-.71-2.59ZM99.39 51.43c1.98-1.51 3.67-3.19 4.86-5.4 1.36-2.53 1.77-5.23 2.09-8.05.33-2.89.2-5.57-.9-8.29-.49-1.22-1.07-2.39-1.73-3.53-.7-1.21-1.4-2.74-2.68-3.39-1.1-.56-2.67.11-2.6 1.49.07 1.27.74 2.14 1.38 3.18.6.97 1.17 1.97 1.65 3.01 1.01 2.19 1.28 4.41 1.16 6.8-.23 4.58-1.23 8.94-4.88 12.05-1.16.99.41 3.08 1.65 2.14Z"/><path d="M99.47 22.79c-1.92-.2-3.93.18-5.82.48-.92.15-1.84.32-2.76.52-.46.1-.91.2-1.37.31-.23.05-.45.11-.68.17q-.81.105-.18.18l.73.73c-.68-.91-1.09-2.06-1.6-3.07-.44-.88-1.25-2.02-1.42-2.91v1.1c-.12.46-.34.38.18.17.27-.11.54-.3.79-.44.53-.29 1.06-.59 1.59-.88 1.07-.58 2.14-1.15 3.22-1.7 2.2-1.12 4.44-2.18 6.75-3.06 2.25-.86 4.55-1.59 6.91-2.1.22-.05.71-.06.89-.18.36-.03.3-.1-.19-.2-.38-.25-.5-.26-.35-.02-.07.32.54 1.31.66 1.64.35.95 1.1 2.34.99 3.36l.28-1.03c-.12.27-1.49.73-2.03 1.01-.86.44-1.7.93-2.5 1.47a26.8 26.8 0 0 0-4.49 3.81c-1.74 1.84 1 4.6 2.78 2.78 1.64-1.66 3.47-3.06 5.51-4.18 1.81-.99 4.59-1.6 4.55-4.18-.02-1.16-.54-2.37-.92-3.45-.42-1.21-.83-2.6-1.53-3.67-1.44-2.23-4.19-1.27-6.29-.73-4.93 1.27-9.62 3.38-14.12 5.72-1.01.53-2.01 1.07-3.01 1.61-1.09.6-2.49 1.13-3.22 2.19-.68 1-.57 2.03-.08 3.09.59 1.28 1.27 2.53 1.91 3.78s1.23 2.82 2.7 3.27c1.28.39 2.65-.26 3.87-.6 2.83-.8 5.82-1.05 8.62-1.89 1.77-.53 1.29-2.89-.42-3.07Zm28.35 82.17c-1.37-.31-2.73-.69-4.15-.72s-2.86.1-4.28.33c-2.67.44-5.26 1.32-7.69 2.5-4.21 2.05-7.63 5.27-10.17 9.18-4.91 7.6-6.77 18.56-.8 26.12 6.83 8.65 19.98 9.63 28.86 3.73 8.18-5.44 15.09-15.35 13.98-25.56-.59-5.44-3.41-10.92-8.37-13.56-4.44-2.37-9.7-2.96-14.66-2.49-2.3.22-2.39 3.75 0 3.66 3.67-.14 7.51.25 10.98 1.52 3.83 1.4 6.38 4.51 7.55 8.39 2.56 8.53-2.61 17.38-8.94 22.81-3.42 2.93-7.58 4.84-12.12 5.05-4.45.21-9.02-1.22-12.4-4.18-6.08-5.34-5.47-14.39-2.09-21.08 1.88-3.72 4.62-7.15 8.22-9.33a24.8 24.8 0 0 1 7.58-3.02c1.29-.28 2.61-.45 3.92-.53 1.4-.09 2.8-.24 4.2-.12 1.54.13 1.86-2.35.36-2.69Z"/><path d="M109.7 111.75c2.93-1.61 6.05-2.95 9.35-3.52 3.39-.59 7.43-.43 10.42 1.48 7.33 4.67 5.2 17.95 2.76 24.61-.47 1.28-1.01 2.55-1.78 3.68-.64.94-1.43 1.78-2.21 2.61-1.96 2.08-3.99 4.21-6.59 5.39-3.39 1.54-7.39 1.25-10.88-.02-1.12-.41-2.21-.91-3.2-1.58-3.87-2.61-5.77-7.41-6.07-12.07-.55-8.58 3.97-17.29 11.3-21.78"/><path d="M110.46 113.04c3.65-1.87 7.59-3.34 11.74-3.35 3.16 0 6.52.91 8.41 3.62 3.21 4.61 2.27 11.11 1.04 16.22-.75 3.13-1.71 6.31-3.97 8.69-2.66 2.8-5.41 5.98-9.43 6.6-3.68.56-8.19-.67-10.86-3.31-2.35-2.33-3.52-5.74-3.77-8.99-.29-3.92.52-7.88 2.3-11.38 1.87-3.67 4.61-6.43 7.86-8.9 1.96-1.49.33-4.51-1.96-3.36-3.82 1.92-6.9 5.49-8.99 9.16-2.12 3.73-3.34 7.96-3.47 12.25-.12 4.18.84 8.68 3.29 12.13 2.87 4.05 7.44 6.18 12.31 6.66 4.98.5 9.27-1.48 12.77-4.93 1.7-1.68 3.46-3.47 4.67-5.54 1.03-1.76 1.74-3.71 2.32-5.66 1.84-6.22 2.69-14.01-.13-20.06-1.94-4.15-5.93-6.28-10.38-6.67-5.42-.48-10.65 1.59-15.27 4.24-1.68.96-.2 3.45 1.51 2.58ZM84.72 69.36c-1.61.27-2.93 1.73-3.37 3.26s-.34 3.32.55 4.63c1.04 1.53 2.64 2.36 4.45 2.54 1.68.17 3.35-.44 4.62-1.53.81-.7 1.37-1.65 1.53-2.71.17-1.17.17-2.55-.5-3.57-.41-.63-1.16-.91-1.87-.61-.65.27-1.11 1.06-.87 1.77.05.16.11.31.16.47.03.09.04.18.07.27.05.19-.07.06 0-.08-.04.08 0 .35.01.44.02.34.08-.21 0-.03-.04.1-.07.21-.1.32-.07.21.14-.28.03-.09-.05.08-.08.16-.13.24-.07.13-.16.25-.24.37-.04.06-.08.13-.12.19-.18.32.21-.21.04-.05-.11.11-.2.23-.31.33-.05.05-.11.1-.16.15-.11.1-.21.08.16-.12-.1.05-.19.13-.29.19-.13.08-.25.14-.38.21-.12.06-.27.07.19-.08-.08.03-.16.06-.25.09-.24.08-.48.12-.72.18s.52-.06.18-.02a1 1 0 0 0-.17.02c-.15.01-.29.02-.44.02-.12 0-.23 0-.35-.01-.48-.04.44.09-.03 0-.26-.05-.5-.15-.75-.22.54.14.17.08 0-.01-.11-.06-.23-.13-.33-.2-.36-.24.23.22.02.02-.12-.11-.24-.21-.34-.33-.04-.04-.08-.09-.11-.13-.15-.17.27.4.1.12-.06-.1-.13-.2-.19-.31-.04-.08-.22-.46-.08-.13s-.03-.11-.05-.2c-.03-.12-.05-.24-.08-.36-.06-.27.03.23.03.22-.02-.03-.01-.13-.02-.17-.02-.29-.01-.57 0-.86.01-.14.09-.23-.03.2.02-.08.03-.17.05-.26l.09-.42c.03-.14.08-.27.12-.4.07-.24-.06.14-.07.15.04-.07.07-.15.11-.22.06-.12.16-.23.21-.35-.12.29-.18.21-.06.09.05-.05.09-.1.14-.14.03-.03.24-.21.04-.04s.03-.01.09-.04c.05-.03.1-.05.14-.08q.15-.075-.15.06c.05-.02.11-.04.16-.06.7-.23 1.23-.98.98-1.73s-.95-1.11-1.73-.98Zm14.7-.88c-1.61.27-2.93 1.73-3.37 3.26-.43 1.48-.34 3.32.55 4.63 1.04 1.53 2.64 2.36 4.45 2.54 1.68.17 3.35-.44 4.62-1.53.81-.7 1.37-1.65 1.53-2.71.17-1.17.17-2.55-.5-3.57-.41-.63-1.16-.91-1.87-.61-.65.27-1.11 1.06-.87 1.77.05.16.11.31.16.47.03.09.04.18.07.27.05.19-.07.06 0-.08-.04.08 0 .35.01.44.02.34.08-.21 0-.03-.04.1-.07.21-.1.32-.07.21.14-.28.03-.09-.05.08-.08.16-.13.24-.07.13-.16.25-.24.37-.04.06-.08.13-.12.19-.18.32.21-.21.04-.05-.11.11-.2.23-.31.33-.05.05-.11.1-.16.15-.11.1-.21.08.16-.12-.1.05-.19.13-.29.19-.13.08-.25.14-.38.21-.12.06-.27.07.19-.08-.08.03-.16.06-.25.09-.24.08-.48.12-.72.18s.52-.06.18-.02a1 1 0 0 0-.17.02c-.15.01-.29.02-.44.02-.12 0-.23 0-.35-.01-.48-.04.44.09-.03 0-.26-.05-.5-.15-.75-.22.54.14.17.08 0-.01-.11-.06-.23-.13-.33-.2-.36-.24.23.22.02.02-.12-.11-.24-.21-.34-.33-.04-.04-.08-.09-.11-.13-.15-.17.27.4.1.12-.06-.1-.13-.2-.19-.31-.04-.08-.22-.46-.08-.13s-.03-.11-.05-.2c-.03-.12-.05-.24-.08-.36-.06-.27.03.23.03.22-.02-.03-.01-.13-.02-.17-.02-.29-.01-.57 0-.86.01-.14.09-.23-.03.2.02-.08.03-.17.05-.26l.09-.42c.03-.14.08-.27.12-.4.07-.24-.06.14-.07.15.04-.07.07-.15.11-.22.06-.12.16-.23.21-.35-.12.29-.18.21-.06.09.05-.05.09-.1.14-.14.03-.03.24-.21.04-.04s.03-.01.09-.04c.05-.03.1-.05.14-.08q.15-.075-.15.06c.05-.02.11-.04.16-.06.7-.23 1.23-.98.98-1.73s-.95-1.11-1.73-.98Zm14.7-.88c-1.61.27-2.93 1.73-3.37 3.26-.43 1.48-.34 3.32.55 4.63 1.04 1.53 2.64 2.36 4.45 2.54 1.68.17 3.35-.44 4.62-1.53.81-.7 1.37-1.65 1.53-2.71.17-1.17.17-2.55-.5-3.57-.41-.63-1.16-.91-1.87-.61-.65.27-1.11 1.06-.87 1.77.05.16.11.31.16.47.03.09.04.18.07.27.05.19-.07.06 0-.08-.04.08 0 .35.01.44.02.34.08-.21 0-.03-.04.1-.07.21-.1.32-.07.21.14-.28.03-.09-.05.08-.08.16-.13.24-.07.13-.16.25-.24.37-.04.06-.08.13-.12.19-.18.32.21-.21.04-.05-.11.11-.2.23-.31.33-.05.05-.11.1-.16.15-.11.1-.21.08.16-.12-.1.05-.19.13-.29.19-.13.08-.25.14-.38.21-.12.06-.27.07.19-.08-.08.03-.16.06-.25.09-.24.08-.48.12-.72.18s.52-.06.18-.02a1 1 0 0 0-.17.02c-.15.01-.29.02-.44.02-.12 0-.23 0-.35-.01-.48-.04.44.09-.03 0-.26-.05-.5-.15-.75-.22.54.14.17.08 0-.01-.11-.06-.23-.13-.33-.2-.36-.24.23.22.02.02-.12-.11-.24-.21-.34-.33-.04-.04-.08-.09-.11-.13-.15-.17.27.4.1.12-.06-.1-.13-.2-.19-.31-.04-.08-.22-.46-.08-.13s-.03-.11-.05-.2c-.03-.12-.05-.24-.08-.36-.06-.27.03.23.03.22-.02-.03-.01-.13-.02-.17-.02-.29-.01-.57 0-.86.01-.14.09-.23-.03.2.02-.08.03-.17.05-.26l.09-.42c.03-.14.08-.27.12-.4.07-.24-.06.14-.07.15.04-.07.07-.15.11-.22.06-.12.16-.23.21-.35-.12.29-.18.21-.06.09.05-.05.09-.1.14-.14.03-.03.24-.21.04-.04s.03-.01.09-.04c.05-.03.1-.05.14-.08q.15-.075-.15.06c.05-.02.11-.04.16-.06.7-.23 1.23-.98.98-1.73s-.95-1.11-1.73-.98Zm21.07 5.48.13-.03.4-.17c.19-.1.35-.25.46-.43.1-.1.17-.23.21-.37.1-.2.15-.41.14-.64l-.06-.44-.17-.4c-.1-.19-.25-.35-.43-.46-.16-.15-.35-.25-.56-.3l-.13-.03q-.45-.12-.9 0c-.29.08-.53.22-.74.43l-.26.34c-.15.26-.23.55-.23.85 0 .23.04.45.15.65.07.21.18.39.35.54a1.68 1.68 0 0 0 1.64.43Zm9.4-.74.13-.03.4-.17c.19-.1.35-.25.46-.43.1-.1.17-.23.21-.37.1-.2.15-.41.14-.64l-.06-.44-.17-.4c-.1-.19-.25-.35-.43-.46-.16-.15-.35-.25-.56-.3l-.13-.03q-.45-.12-.9 0c-.29.08-.53.22-.74.43l-.26.34c-.15.26-.23.55-.23.85 0 .23.04.45.15.65.07.21.18.39.35.54a1.68 1.68 0 0 0 1.64.43Zm9.39-.74.13-.03.4-.17c.19-.1.35-.25.46-.43.1-.1.17-.23.21-.37.1-.2.15-.41.14-.64l-.06-.44-.17-.4c-.1-.19-.25-.35-.43-.46-.16-.15-.35-.25-.56-.3l-.13-.03q-.45-.12-.9 0c-.29.08-.53.22-.74.43l-.26.34c-.15.26-.23.55-.23.85 0 .23.04.45.15.65.07.21.18.39.35.54a1.68 1.68 0 0 0 1.64.43ZM82.56 90.65c-.69 1.07-1 2.36-1.25 3.6-.26 1.33-.4 2.69-.26 4.04.15 1.47.52 2.79 1.5 3.93.78.92 1.92 1.57 3.07 1.9 2.29.66 4.75.07 6.51-1.52 1.46-1.31 2.27-3.27 2.76-5.13.51-1.98.68-4.03.95-6.05.13-1.03-1-2.01-1.97-1.97-1.18.05-1.82.87-1.97 1.97-.09.69-.17 1.38-.26 2.07-.02.14-.1.43.01-.1-.02.08-.02.17-.03.25-.03.19-.05.38-.08.56-.06.4-.13.8-.22 1.2-.16.78-.36 1.55-.63 2.29l-.09.24c-.11.29-.15.06.03-.07-.09.07-.15.34-.21.45-.08.16-.17.32-.26.48-.07.11-.35.42-.36.55 0-.03.31-.37.09-.12l-.15.18c-.12.13-.24.25-.37.37-.05.05-.19.13-.22.19.02-.04.4-.27.12-.1-.17.1-.33.21-.5.3-.49.26.29-.07-.13.07-.18.06-.36.12-.54.16 0 0-.25.07-.27.05.07.06.43-.03.04-.02h-.77c-.22-.03-.19-.02.11.01-.02.02-.27-.05-.28-.06-.2-.05-.41-.15-.61-.18-.25-.03.29.18.08.04-.09-.06-.21-.1-.31-.16-.08-.05-.16-.09-.24-.14-.06-.04-.12-.08-.17-.12-.12-.09-.08-.05.13.1-.1 0-.32-.32-.39-.38-.29-.29.09.24.01.02-.03-.09-.13-.22-.18-.3-.14-.2.07-.11.02.09 0-.04-.09-.23-.11-.28-.09-.26-.16-.52-.22-.79-.03-.14-.05-.28-.08-.41-.02-.14-.02-.11.01.09l-.03-.26c-.03-.29-.04-.59-.04-.88 0-.63.02-1.26.07-1.89.02-.3.05-.59.09-.89.04-.36.02-.13 0-.06.03-.17.06-.35.08-.52l.06-.46q-.03.225 0 .03l.06-.42c.06-.42.09-.79.09-1.21 0-1.49-1.96-1.93-2.72-.74Zm63.88-5.51c-.69 1.07-1 2.36-1.25 3.6-.26 1.33-.4 2.69-.26 4.04.15 1.47.52 2.79 1.5 3.93.78.92 1.92 1.57 3.07 1.9 2.29.66 4.75.07 6.51-1.52 1.46-1.31 2.27-3.27 2.76-5.13.51-1.98.68-4.03.95-6.05.13-1.03-1-2.01-1.97-1.97-1.18.05-1.82.87-1.97 1.97-.09.69-.17 1.38-.26 2.07-.02.14-.1.43.01-.1-.02.08-.02.17-.03.25-.03.19-.05.38-.08.56-.06.4-.13.8-.22 1.2-.16.78-.36 1.55-.63 2.29l-.09.24c-.11.29-.15.06.03-.07-.09.07-.15.34-.21.45-.08.16-.17.32-.26.48-.07.11-.35.42-.36.55 0-.03.31-.37.09-.12l-.15.18c-.12.13-.24.25-.37.37-.05.05-.19.13-.22.19.02-.04.4-.27.12-.1-.17.1-.33.21-.5.3-.49.26.29-.07-.13.07-.18.06-.36.12-.54.16 0 0-.25.07-.27.05.07.06.43-.03.04-.02h-.77c-.22-.03-.19-.02.11.01-.02.02-.27-.05-.28-.06-.2-.05-.41-.15-.61-.18-.25-.03.29.18.08.04-.09-.06-.21-.1-.31-.16-.08-.05-.16-.09-.24-.14-.06-.04-.12-.08-.17-.12-.12-.09-.08-.05.13.1-.1 0-.32-.32-.39-.38-.29-.29.09.24.01.02-.03-.09-.13-.22-.18-.3-.14-.2.07-.11.02.09 0-.04-.09-.23-.11-.28-.09-.26-.16-.52-.22-.79-.03-.14-.05-.28-.08-.41-.02-.14-.02-.11.01.09l-.03-.26c-.03-.29-.04-.59-.04-.88 0-.63.02-1.26.07-1.89.02-.3.05-.59.09-.89.04-.36.02-.13 0-.06.03-.17.06-.35.08-.52l.06-.46q-.03.225 0 .03l.06-.42c.06-.42.09-.79.09-1.21 0-1.49-1.96-1.93-2.72-.74Zm-87.2-37.26c2.27-.29 4.53-.62 6.8-.96 1.06-.16 2.13-.31 3.18-.49 1.18-.2 2.55-.27 3.49-1.08s.26-2-.62-2.36c-1.02-.42-2.45.04-3.51.19-1.1.16-2.2.36-3.3.54-2.15.36-4.3.74-6.45 1.15-.74.14-1.2.98-1.1 1.68s.74 1.43 1.5 1.33Zm7.75 4.9c2.27-.29 4.53-.62 6.8-.96 1.06-.16 2.13-.31 3.18-.49 1.18-.2 2.55-.27 3.49-1.08s.26-2-.62-2.36c-1.02-.42-2.45.04-3.51.19s-2.2.36-3.3.54c-2.15.36-4.3.74-6.45 1.15-.74.14-1.2.98-1.1 1.68s.74 1.43 1.5 1.33Zm7.75 4.9c2.27-.29 4.53-.62 6.8-.96 1.06-.16 2.13-.31 3.18-.49 1.18-.2 2.55-.27 3.49-1.08s.26-2-.62-2.36c-1.02-.42-2.45.04-3.51.19-1.1.16-2.2.36-3.3.54-2.15.36-4.3.74-6.45 1.15-.74.14-1.2.98-1.1 1.68s.74 1.43 1.5 1.33Z"/></svg>