<?xml version="1.0" encoding="UTF-8"?><svg xmlns="http://www.w3.org/2000/svg" viewBox="0 0 180 180"><path d="M37.77 49.92c-1.8 14.76-4.44 29.39-7.27 43.98-1.43 7.39-2.92 14.76-4.4 22.14-.72 3.6-1.5 7.2-2.11 10.82-.28 1.66-.42 3.33.19 4.94.6 1.58 1.64 2.92 2.9 4.04 1.48 1.32 2.92 2.72 4.45 3.99 1.24 1.03 2.52 1.42 4.13 1.52 4.77.28 9.61.07 14.38.14 11.88.16 23.76.42 35.64.63 12.32.22 24.66.5 36.97.16 3.78-.1 7.56-.29 11.33-.62 1.67-.14 3.41-.2 4.95-.9 1.55-.7 2.53-1.96 3.17-3.5 1.31-3.17 2.15-6.62 3.04-9.93.94-3.49 1.77-7 2.51-10.53 2.97-14.06 4.46-28.38 5.73-42.68.32-3.61.62-7.22.92-10.83.27-3.25.54-6.4-1.13-9.35-1.44-2.56-3.78-4.45-5.3-6.96-.74-1.22-1.49-2.45-2.61-3.36-1.38-1.12-3.02-1.56-4.75-1.76-3.28-.39-6.68-.3-9.98-.38-3.33-.08-6.67-.13-10-.16-7.13-.06-14.25 0-21.38.15-14.08.28-28.16.9-42.21 1.78-3.27.2-6.53.42-9.8.65-2.81.2-2.83 4.61 0 4.41 26.84-1.94 53.78-3.08 80.68-2.61 3.28.06 6.56.14 9.84.26 1.32.05 2.74 0 4 .45 1.29.47 1.88 1.62 2.55 2.73 1.46 2.41 3.65 4.26 5.1 6.64 1.62 2.66.85 6 .6 8.93-1.15 13.62-2.41 27.23-4.69 40.71-1.15 6.81-2.52 13.58-4.29 20.26-.86 3.24-1.64 6.65-2.9 9.76-.44 1.09-1.04 1.38-2.17 1.55-1.83.27-3.72.34-5.56.46-12.43.8-24.93.5-37.37.32-11.42-.17-22.85-.41-34.27-.6-5.27-.09-10.54-.17-15.81-.21-2.26-.02-4.53.04-6.78-.04a14 14 0 0 1-.92-.06c.66.06-.08-.05-.24-.08-.21-.03-.45-.27.07.05-.05-.03-.3-.12-.32-.18 0-.02-.21-.14-.21-.14.56.36 0 0-.11-.12-1.49-1.38-3.08-2.68-4.54-4.09-.92-.89-1.61-1.86-1.63-3.17-.02-1.71.56-3.52.89-5.19 1.37-7.06 2.77-14.12 4.14-21.19 2.73-14.06 5.27-28.16 7.02-42.38.43-3.48.81-6.97 1.12-10.46.09-.96-.88-1.76-1.77-1.77-1.05-.01-1.66.83-1.77 1.77Z"/><path d="M28.85 132.33c0 .17-.27.05.13-.02.21-.04.41-.1.63-.13.75-.08 1.54.06 2.29.09 1.59.07 3.18.07 4.76.11 3.28.08 6.56.15 9.85.23 6.97.17 13.93.39 20.9.54 15.46.33 30.92.52 46.38.18 2.29-.05 4.58-.11 6.87-.19 2.05-.07 4.12-.23 6.17-.07 1.48.12 3.01.29 4.42-.29.74-.3 1.39-.79 1.81-1.48.21-.35.34-.75.5-1.13.19-.45-.08.07.09-.18l-.73.73h.02c-.93-.25-1.86-.5-2.79-.74.88 1.16-1.12-2.5-.19-.26.44 1.05 1.83 2.11 2.99 1.22.87-.67 1.09-1.57 1.42-2.57s.65-2.06.96-3.1c.62-2.1 1.18-4.22 1.7-6.35 1.14-4.65 2.08-9.35 2.91-14.07 2.13-12 3.6-24.12 4.94-36.23.43-3.92.83-7.84 1.26-11.76.43-3.87.75-7.81-.56-11.55-.86-2.45-4.79-1.39-3.92 1.08 1.1 3.11.87 6.35.54 9.57l-1.08 10.34c-.67 6.32-1.4 12.63-2.21 18.93-1.32 10.15-2.86 20.31-5.2 30.28-.53 2.28-1.11 4.55-1.75 6.8-.3 1.06-.61 2.13-.94 3.18-.16.51-.32 1.03-.49 1.54-.1.31-.21.62-.31.93-.12.4-.2.47-.04.17l.73-.73h-.01c1 .42 1.99.82 2.99 1.23.11.26.09.69.07.36s-.08-.79-.29-1.07c-.68-.9-1.72-1.31-2.79-.73-.41.22-.67.6-.88.99-.11.21-.57.98-.32.85-.87.47-2.63-.04-3.58-.09-4.07-.21-8.24.21-12.32.3-8.15.18-16.3.21-24.45.15-14.82-.11-29.63-.54-44.44-.77-3.71-.06-7.41-.09-11.12-.08-2.48 0-8.59-.27-8.11 3.79.23 1.97 3.25 2.09 3.17 0Z"/><path d="m130.27 131.22 7.32 4.23c.24.14.55.28.79.13.15-.1.21-.28.26-.45 2.18-7.21 4.01-14.53 5.46-21.92 1.52-7.75 2.64-15.58 3.53-23.43.48-4.24.89-8.5.81-12.76-.06-3.12-.38-6.29.42-9.31.4-1.49 1.06-2.91 1.41-4.42.83-3.55-1.75-9.84-4.26-12.48-2.08 12.54-2.66 27.43-4.74 39.97-.55 3.32-1.1 6.65-1.66 9.97-1.59 9.56-3.19 19.17-6.17 28.39-.09.28-.19.59-.09.87.09.26.32.44.53.61 1.14.88 2.28 1.76 3.43 2.63"/><path d="M129.48 132.59c1.52 1.01 3.06 1.99 4.62 2.93 1.28.77 2.93 2.2 4.51 1.89 1.68-.33 1.95-2.27 2.36-3.63.51-1.69.99-3.38 1.45-5.09 1.84-6.86 3.35-13.81 4.55-20.81 1.22-7.13 2.2-14.32 2.9-21.52.35-3.58.53-7.15.41-10.74-.05-1.56-.12-3.13-.03-4.69.11-1.81.62-3.44 1.23-5.14 1.07-2.95 1.03-5.74.15-8.75-.82-2.77-2.2-5.53-4.16-7.68-.98-1.07-3.18-.61-3.43.91-1.86 11.02-2.47 22.19-3.84 33.27-.69 5.58-1.7 11.11-2.62 16.65-.99 5.96-1.99 11.92-3.32 17.81-.72 3.17-1.54 6.33-2.51 9.43-.5 1.6-.96 3.2.41 4.52 1.21 1.16 2.74 2.12 4.07 3.14.92.71 2.4.14 2.93-.77.65-1.1.15-2.22-.77-2.93-.63-.49-1.27-.97-1.9-1.46-.35-.27-1.11-.68-1.29-1.01l.29 1.08c-.06-1.06.69-2.48.99-3.5.4-1.37.76-2.75 1.11-4.14.65-2.62 1.23-5.26 1.75-7.91 1.05-5.31 1.91-10.66 2.79-16 .85-5.11 1.71-10.22 2.33-15.37.6-5 1.06-10.01 1.55-15.02.55-5.59 1.1-11.18 1.99-16.73l-3.43.91c1.3 1.4 2.23 3.21 2.88 4.98.63 1.72 1.31 3.67.98 5.53-.24 1.36-.86 2.66-1.25 3.98-.42 1.42-.62 2.91-.69 4.39-.15 2.93.15 5.87.06 8.81-.17 5.98-.98 11.97-1.79 17.89-.82 5.93-1.8 11.83-3.03 17.68a222 222 0 0 1-3.55 14.47c-.21.77-.43 1.55-.65 2.32l-.33 1.16c-.07.23-.13.46-.2.69-.31.76-.1.67.63-.3h.97c-.55-.13-1.11-.58-1.61-.87a125 125 0 0 0-5.93-3.16c-1.82-.9-3.29 1.59-1.59 2.73ZM46.29 55.13c-1.27 8.5-1.92 17.08-3.09 25.6-1.17 8.53-2.58 17.03-4.23 25.48-.93 4.79-1.98 9.54-3.11 14.28-.29 1.23.57 2.36 1.83 2.41 22.27.75 44.58.78 66.87.68 6.32-.03 12.64-.04 18.96-.1.83 0 1.72-.6 1.9-1.45 3.87-17.55 6.89-35.26 9.18-53.07.65-5.02 1.23-10.04 1.75-15.07.12-1.11-.98-1.84-1.93-1.93-10.99-1.11-22.06-.77-33.09-.68-11.14.09-22.28.16-33.42.28-6.32.07-12.64.11-18.96.22-2.75.05-2.76 4.3 0 4.28 22.26-.15 44.51-.81 66.77-.95 6.24-.04 12.49.06 18.71.7l-1.93-1.93c-1.84 17.52-4.49 34.93-7.82 52.23-.96 4.97-1.98 9.92-3.05 14.87l1.9-1.45c-22.29.26-44.58.18-66.87-.21-6.32-.11-12.64-.16-18.96-.23.61.8 1.22 1.6 1.83 2.41 3.63-16.93 6.6-33.98 8.52-51.19.55-4.91 1.05-9.85 1.11-14.8.02-1.6-2.62-2.05-2.87-.39Zm33.62 86.35c1.07 2.8 2.38 5.45 3.65 8.16.3.64.45.89.63 1.75-.08-.39.06-.17-.02 0-.14.3.06.13.02.04.02.04-.15.51-.03.2.1-.27-.1.18-.15.27-.09.14-.18.27-.27.4-.21.3.13-.15-.13.17-.31.38-.63.75-.96 1.12-.69.76-1.44 1.47-2.17 2.19-1.83 1.79-3.75 3.54-5.37 5.52-.72.87-1.37 1.73-1.6 2.86-.28 1.37-.12 2.92.34 4.23.53 1.5 1.48 3.11 3.21 3.29 2.04.2 4.11.23 6.16.3 4.19.16 8.38.21 12.57.17 1.9-.02 3.91.08 5.31-1.43 1.25-1.34 1.91-3.33 2.75-4.94 1.11-2.13 2.23-4.26 3.34-6.39.97-1.86 1.94-3.73 2.03-5.87.09-2.24-.71-4.53-1.26-6.67s-1.16-4.44-1.75-6.65c-.67-2.51-4.56-1.45-3.9 1.08.56 2.14 1.1 4.29 1.64 6.44.46 1.83 1.3 3.91 1.16 5.82-.13 1.82-1.34 3.54-2.17 5.12-1.04 1.98-2.06 3.97-3.13 5.94-.48.9-.94 1.84-1.48 2.7-.43.69-.73.55-1.57.56-2.14.04-4.27.04-6.41.02-4.44-.04-8.87-.2-13.3-.47l1.08.29c.22.16-.19-.52-.26-.72-.19-.58-.29-1.23-.22-1.84-.01.12.11-.38 0-.11.06-.16.18-.3.27-.44.15-.22.01-.04.27-.35.19-.24.4-.47.6-.69 1.75-1.96 3.71-3.72 5.54-5.61 1.29-1.32 2.67-2.75 3.39-4.47s.35-3.24-.37-4.85c-1.29-2.87-2.94-5.59-4.32-8.43-.83-1.72-3.83-.5-3.13 1.32Z"/><path d="M97.68 141.95q1.56 3.93 2.82 7.95c.22.71.44 1.46.34 2.2-.09.66-.43 1.26-.76 1.83-1.59 2.76-3.17 5.51-4.76 8.27-.2.35-.42.71-.78.89-.28.13-.6.14-.9.14-5.22-.02-10.45-.03-15.67-.05 3.69-2.54 6.64-5.98 9.55-9.39.26-.3.52-.62.6-1 .1-.49-.12-.98-.33-1.42-1.48-3.1-2.95-6.21-4.43-9.31 4.35-.46 8.7-.93 13.05-1.39"/><path d="M96.37 142.31c.47 1.55 1.02 3.08 1.52 4.63.45 1.38 1.04 2.83 1.27 4.27.21 1.29-1.09 2.76-1.7 3.83-.84 1.44-1.67 2.88-2.51 4.32-.36.61-.91 1.3-1.14 1.96-.22.26-.23.32-.01.2.24-.08.19-.1-.16-.06-.36-.06-.76-.02-1.12-.03-1.57-.04-3.13-.11-4.7-.13-3.28-.05-6.57-.04-9.85-.05.32 1.19.65 2.39.97 3.58 3.84-2.71 7.05-6.2 10.01-9.83.74-.91 1.23-1.88 1-3.09s-.97-2.42-1.5-3.54c-1.15-2.43-2.3-4.86-3.45-7.3l-1.65 2.88c4.35-.45 8.71-.85 13.05-1.37 1.03-.13 1.93-.8 1.93-1.93 0-.97-.89-2.03-1.93-1.93-4.36.4-8.7.93-13.05 1.4-1.49.16-2.32 1.49-1.65 2.88l2.91 6.06c.45.94.92 1.88 1.35 2.83.11.21.21.43.29.65.05-.21.03-.25-.07-.1-.18.37-.63.73-.9 1.05-2.51 2.9-5.11 5.81-8.28 8.01-1.51 1.05-1.04 3.57.97 3.58 3.73.01 7.47.07 11.19-.01 1.77-.04 3.83.21 5.56-.21 1.66-.4 2.36-2.23 3.12-3.57.94-1.64 1.87-3.29 2.81-4.93.85-1.5 1.95-3.02 1.86-4.83-.09-1.71-.91-3.42-1.48-5.01-.65-1.79-1.33-3.56-2.17-5.27-.68-1.39-2.93-.41-2.48 1.05Z"/><path d="M92.83 163.39c.62 1.03 1.24 2.06 1.87 3.09.3.5.6 1 .91 1.49.17.26.34.52.5.78.27.42.51.84.96 1.1.92.51 2.34-.12 2.25-1.29-.03-.37-.09-.65-.28-.98-.08-.13-.17-.26-.25-.39-.17-.26-.33-.52-.5-.78-.32-.49-.65-.97-.97-1.45-.67-1-1.35-2-2.03-3-.42-.61-1.27-.95-1.95-.51-.64.41-.92 1.26-.51 1.95Zm8.2-9.85c-.19.07-.22.09-.08.04-.23.02-.27.03-.12.02.28 0-.33-.09.02 0 .05.01.09.03.13.04.15.06.12.04-.08-.04.06-.02.3.14.35.17.51.26 1.03.52 1.59.67 1.17.31 2.53.43 3.72.26.36-.05.82-.44.98-.75.18-.33.24-.67.19-1.05-.05-.34-.19-.7-.45-.94-.34-.31-.7-.43-1.16-.48-.52-.06-1.08.03-1.61 0-.14 0-.28-.01-.42-.02-.07 0-.14-.01-.21-.02-.18-.02-.14-.02.11.02 0 0-.71-.15-.78-.17-1.17-.32-2.43-.92-3.57-.12-.59.41-.92 1.22-.49 1.88s1.19.84 1.88.49M93.14 42.4c.09-3.19-.22-6.39.53-9.52.31-1.31.71-2.43 1.38-3.55.28-.48.62-.97.91-1.32.51-.62 1.23-1.15 1.56-1.89.73-1.63-.47-3.56-2.37-3.09-1.7.42-3.03 2.33-3.87 3.77s-1.45 3.02-1.82 4.63c-.85 3.7-.59 7.77.41 11.41.5 1.84 3.23 1.43 3.28-.44Z"/><path d="M97.87 24.82c-.15-2.5-.54-4.85.11-7.32.47-1.79 1.46-3.5 3.03-4.54 1.23-.82 3.73-1.52 4.57.22s-1.73 3.71-2.84 4.65l3.01 3.01c1.81-1.73 4.55-2.32 6.86-1.24 1.12.53 2.14 1.38 2.75 2.47.19.33.48.78.42 1.18.02-.16.18-.08-.26.14-.26.13-.54.21-.82.29-6.47 2.08-13.45 1.2-20.07.43-1.18-.14-2.2 1.11-2.2 2.2 0 1.3 1.01 2.05 2.2 2.2 4.42.53 8.89 1.05 13.35.78 2.25-.14 4.51-.45 6.69-1.04 2.06-.56 4.43-1.31 5.19-3.53 1.38-3.99-2.71-7.91-6.06-9.24-3.8-1.51-8.16-.42-11.07 2.37-2 1.92.95 4.77 3.01 3.01 2.53-2.16 5.11-5.26 3.88-8.83-1.18-3.44-5.17-4.79-8.46-3.73-6.78 2.19-8.85 10.85-6.58 16.99.61 1.65 3.41 1.57 3.28-.44ZM34.31 79.48c-3.06.35-6.09 1.34-8.58 3.15s-4.42 4.48-5.04 7.5c-.61 2.97.08 6.14 1.69 8.71s4.08 4.54 6.87 5.73c.5-1.79.99-3.58 1.18-5.43.2-1.96.04-3.96.39-5.9.28-1.51.86-2.95 1.45-4.37.88-2.16 1.77-4.33 2.65-6.49"/><path d="M34.31 77.78c-6.93-.06-14.22 4.77-15.68 11.78-1.56 7.47 3.32 14.28 10.05 17.05 1.05.43 2.35-.48 2.61-1.48.5-1.9.96-3.8 1.18-5.76.2-1.85.01-3.75.33-5.58.31-1.82 1.09-3.54 1.78-5.24.76-1.88 1.53-3.75 2.29-5.63.41-1.01-.45-2.22-1.41-2.49-1.16-.32-2.07.4-2.49 1.41-.74 1.8-1.48 3.6-2.22 5.41s-1.55 3.55-1.9 5.44-.3 3.68-.41 5.54c-.12 1.98-.67 3.87-1.22 5.77 1.04-.42 2.08-.85 3.12-1.27-4.7-2.23-8.8-6.83-7.48-12.41 1.34-5.7 6.84-7.89 11.93-9.21 1.86-.48 1.46-3.31-.45-3.33Zm110.87 1.94c4.85-.57 9.89 1.98 12.43 6.15s2.53 9.73.11 13.97c-2.43 4.24-7.12 7.04-12 7.33-.31.02-.64.02-.89-.16s-.35-.51-.43-.81a35.4 35.4 0 0 1-.09-17.83c.31-1.2.72-2.44 1.65-3.25"/><path d="M145.18 81.32c7.38-.28 13.46 6.55 11.94 13.87-.73 3.52-2.95 6.42-6.08 8.17-.71.4-1.45.73-2.22.98-.89.29-1.84.33-2.72.59-.36.11-.66-.21.03.35.75.6.35.12.23-.35-.13-.52-.25-1.05-.35-1.58-.22-1.09-.37-2.19-.46-3.3-.21-2.48-.17-5.01.17-7.48.3-2.17.66-4.64 1.98-6.45 1.18-1.62-1.13-3.82-2.74-2.74-2.35 1.58-2.89 4.48-3.35 7.1-.51 2.93-.71 5.91-.52 8.87.09 1.43.27 2.85.51 4.26.23 1.36.4 3.08 1.14 4.27 1.47 2.36 5.1 1.41 7.27.7 4.8-1.55 8.76-5.07 10.63-9.78 1.86-4.69 1.38-10.49-1.53-14.66-3.25-4.64-8.76-6.91-14.33-5.98-1.79.3-1.36 3.21.43 3.15ZM69.05 69.11c-2.16-.36-4.18-.46-6.2.51-2.08.99-3.11 2.85-3.65 5-.67 2.68-1.07 5.44-1.35 8.19-.12 1.16-.41 2.51-.14 3.67.33 1.44 1.71 2.14 2.98 2.63 2.15.83 4.58.85 6.84.66 2.23-.19 4.9-.24 6.5-2.03 1.52-1.7 2.26-4.25 2.63-6.46.39-2.38.45-4.8.68-7.2.12-1.3 0-2.66-.92-3.67-.98-1.07-2.47-1.3-3.83-1.55-2.94-.55-6.01-.86-8.79.46-1.87.89-.54 3.81 1.38 3.28 1.78-.48 3.53-.55 5.36-.28.9.13 1.86.26 2.74.53.09.03.18.06.27.07.46.07.11.26.05-.03.05.27.03.6 0 .95-.27 3.32-.21 6.91-1.58 10.01-.24.54-.54 1.3-1.07 1.62-.58.35-1.55.35-2.21.42-1.66.19-3.39.34-5.05.12-.67-.09-1.39-.26-2-.54-.17-.08-.36-.24-.54-.29l-.1-.06c.27.69.38.79.35.29.16-.45.07-1.14.11-1.62.16-2 .43-3.98.8-5.95.3-1.59.38-3.88 1.73-4.89 1.07-.8 2.92-1.19 4.24-1 .78.11 1.58-.19 1.81-1.03.19-.7-.24-1.67-1.03-1.81Z"/><path d="M69.84 70.73c-1.08-.09-2.11.6-2.71 1.5s-.87 1.98-1.09 3.04a56.4 56.4 0 0 0-1.14 9.61c0 .2 0 .41.08.58.12.22.36.34.59.42.99.34 2.06.26 3.1.16.67-.06 1.38-.13 1.93-.51.81-.56 1.09-1.61 1.31-2.57.54-2.39 1.08-4.78 1.62-7.18.2-.9.35-1.99-.34-2.6-.41-.37-1.01-.44-1.56-.49-.77-.07-1.54-.14-2.31-.2"/><path d="M70.45 69.67c-1.49-.99-3.35-.05-4.4 1.16s-1.5 2.72-1.81 4.24c-.37 1.79-.64 3.59-.85 5.41-.18 1.55-.41 3.23-.28 4.79.19 2.13 2.45 2.66 4.25 2.63 1.57-.03 3.43-.15 4.64-1.27 1.15-1.06 1.47-2.61 1.83-4.06.39-1.62.79-3.24 1.18-4.86.42-1.74 1.08-3.72 0-5.35-1.21-1.81-3.75-1.65-5.68-1.84-1.06-.1-1.97.98-1.97 1.97 0 1.13.9 1.89 1.97 1.97.58.05 1.16.09 1.73.13.25.02.6.07.8.06s.31.1-.05-.19c-.12-.09 0 .16 0 .02 0 .07-.02.53 0 .37-.07.58-.23 1.16-.35 1.72l-.78 3.75c-.23 1.09-.36 2.26-.75 3.31-.22.6-.69.6-1.5.66-.56.04-1.15.09-1.7.02-.16-.02-.39-.14-.54-.13-.59.05.76.63.52.89.05-.05.01-.42.02-.49.1-2.43.35-4.86.77-7.25.21-1.22.36-2.62.87-3.76.42-.96 1.26-1.29 2.11-1.79s.75-1.6 0-2.1Zm36.15-.56c-2.16-.36-4.18-.46-6.2.51s-3.11 2.85-3.65 5c-.67 2.68-1.07 5.44-1.35 8.19-.12 1.16-.41 2.51-.14 3.67.33 1.44 1.71 2.14 2.98 2.63 2.15.83 4.58.85 6.84.66 2.23-.19 4.9-.24 6.5-2.03 1.52-1.7 2.26-4.25 2.63-6.46.39-2.38.45-4.8.68-7.2.12-1.3 0-2.66-.92-3.67-.98-1.07-2.47-1.3-3.83-1.55-2.94-.55-6.01-.86-8.79.46-1.87.89-.54 3.81 1.38 3.28 1.78-.48 3.53-.55 5.36-.28.9.13 1.86.26 2.74.53.09.03.18.06.27.07.46.07.11.26.05-.03.05.27.03.6 0 .95-.27 3.32-.21 6.91-1.58 10.01-.24.54-.54 1.3-1.07 1.62-.58.35-1.55.35-2.21.42-1.66.19-3.39.34-5.05.12-.67-.09-1.39-.26-2-.54-.17-.08-.36-.24-.54-.29l-.1-.06c.27.69.38.79.35.29.16-.45.07-1.14.11-1.62.16-2 .43-3.98.8-5.95.3-1.59.38-3.88 1.73-4.89 1.07-.8 2.92-1.19 4.24-1 .78.11 1.58-.19 1.81-1.03.19-.7-.24-1.67-1.03-1.81Z"/><path d="M107.39 70.73c-1.08-.09-2.11.6-2.71 1.5s-.87 1.98-1.09 3.04a56.4 56.4 0 0 0-1.14 9.61c0 .2 0 .41.08.58.12.22.36.34.59.42.99.34 2.06.26 3.1.16.67-.06 1.38-.13 1.93-.51.81-.56 1.09-1.61 1.31-2.57.54-2.39 1.08-4.78 1.62-7.18.2-.9.35-1.99-.34-2.6-.41-.37-1.01-.44-1.56-.49-.77-.07-1.54-.14-2.31-.2"/><path d="M108.01 69.67c-1.49-.99-3.35-.05-4.4 1.16s-1.5 2.72-1.81 4.24c-.37 1.79-.64 3.59-.85 5.41-.18 1.55-.41 3.23-.28 4.79.19 2.13 2.45 2.66 4.25 2.63 1.57-.03 3.43-.15 4.64-1.27 1.15-1.06 1.47-2.61 1.83-4.06.39-1.62.79-3.24 1.18-4.86.42-1.74 1.08-3.72 0-5.35-1.21-1.81-3.75-1.65-5.68-1.84-1.06-.1-1.97.98-1.97 1.97 0 1.13.9 1.89 1.97 1.97.58.05 1.16.09 1.73.13.25.02.6.07.8.06s.31.1-.05-.19c-.12-.09 0 .16 0 .02 0 .07-.02.53 0 .37-.07.58-.23 1.16-.35 1.72l-.78 3.75c-.23 1.09-.36 2.26-.75 3.31-.22.6-.69.6-1.5.66-.56.04-1.15.09-1.7.02-.16-.02-.39-.14-.54-.13-.59.05.76.63.52.89.05-.05.01-.42.02-.49.1-2.43.35-4.86.77-7.25.21-1.22.36-2.62.87-3.76.42-.96 1.26-1.29 2.11-1.79s.75-1.6 0-2.1ZM72.6 97.21c1.24 4.62 6.39 6.3 10.71 6.17 4.71-.14 9.14-2.31 11.97-6.09 1.28-1.7-1.61-3.95-2.97-2.29-2.16 2.65-5.31 4.14-8.71 4.36-2.88.18-6.74-.46-8.11-3.37-.78-1.64-3.34-.47-2.88 1.22Z"/><path d="M92.38 94.29c.27.76.61 1.5 1.04 2.19.25.39.53.76.81 1.12.45.57 1.02 1.17 1.82 1.12.42-.03.87-.16 1.16-.48s.49-.72.48-1.16c0-.3-.07-.64-.23-.89-.09-.14-.21-.27-.32-.4-.06-.08-.14-.14-.21-.2-.14-.12-.28-.25-.41-.39-.27-.27-.52-.56-.76-.86l.25.32c-.36-.47-.68-.97-.95-1.5-.15-.3-.55-.6-.88-.67s-.64-.06-.96.07c-.63.27-1.1 1.04-.85 1.73Zm-19.36 4.38c.7-.48 1.39-.98 2.06-1.5.87-.67 1.79-1.35 2.42-2.26l.18-.42c.07-.23.08-.47.03-.7-.05-.37-.2-.75-.49-1.01q-.345-.315-.78-.45c-.38-.12-1.04-.07-1.36.18-.18.14-.38.27-.55.43-.07.07-.14.15-.21.23-.15.16-.3.32-.45.47-.29.3-.58.61-.88.92-.59.61-1.21 1.17-1.86 1.71-.27.23-.47.74-.45 1.09s.12.66.33.93c.44.57 1.35.83 1.99.4Z"/></svg>