<?xml version="1.0" encoding="UTF-8"?><svg xmlns="http://www.w3.org/2000/svg" viewBox="0 0 180 180"><path d="M122.45 11.35c-16.43 3.14-32.81 6.56-49.12 10.28-8.16 1.86-16.3 3.77-24.42 5.8-6.61 1.66-13.13 3.66-19.69 5.53-6 1.7-12.74 4.31-15.27 10.55-1.23 3.04-1.26 6.45-1.02 9.68.3 4.05.8 8.08 1.34 12.11 2.19 16.09 5.98 31.93 10.16 47.6 1.02 3.82 2.03 7.65 3.11 11.45.9 3.19 2 6.48 3.97 9.19 4.25 5.88 11.39 7.49 18.28 6.7 8-.92 15.72-3.42 23.53-5.3 8.01-1.93 15.98-3.99 23.93-6.16 15.83-4.32 31.57-8.99 47.08-14.35 3.69-1.27 7.41-2.5 11.02-3.99 3.13-1.29 6.24-2.91 8.41-5.6 4.5-5.59 3.61-13.05 2.53-19.65-2.71-16.41-4.9-32.89-6.44-49.45-.37-4.02-.59-8.06-1.22-12.05-.53-3.37-1.41-6.92-3.83-9.46-2.03-2.14-4.93-3.47-7.66-4.48-2.97-1.1-6.24-1.64-9.39-1.73-3.1-.09-6.27.27-9.19 1.33-2.34.84-1.33 4.6 1.03 3.75 2.85-1.03 5.95-1.09 8.94-.88 2.82.19 5.67.74 8.27 1.86 2.26.97 4.7 2.15 5.98 4.36 1.66 2.86 1.93 6.66 2.23 9.89 1.48 15.84 3.16 31.63 5.55 47.37.58 3.8 1.22 7.6 1.82 11.4.49 3.07.91 6.29.48 9.4-.42 3.04-1.8 5.74-4.3 7.57-2.59 1.9-5.73 2.92-8.72 4-14.75 5.32-29.74 9.95-44.83 14.21-14.9 4.21-29.92 7.97-44.92 11.8-6.38 1.63-14.12 3.85-20.49 1.04-6.09-2.69-7.59-9.57-9.14-15.4-3.99-14.99-7.94-30.02-10.62-45.31-1.29-7.37-2.48-14.88-2.85-22.37-.15-3.02-.09-6.43 1.82-8.94 1.64-2.16 4.12-3.62 6.59-4.63 2.72-1.12 5.59-1.82 8.41-2.63 3.18-.91 6.32-1.95 9.5-2.87 7.22-2.08 14.54-3.83 21.85-5.61 15.44-3.77 30.95-7.27 46.52-10.48 3.87-.8 7.75-1.58 11.63-2.35 2.08-.41 1.2-3.58-.88-3.18Z"/><path d="M155.08 16.18c-.49-1.75-2.69-1.97-4.19-2.08-2.72-.21-5.51.24-8.19.63-7.38 1.06-14.59 3-21.83 4.69-16.86 3.93-33.79 7.56-50.52 12.03-8.47 2.26-16.9 4.7-25.33 7.12-3.98 1.14-8.08 2.04-12 3.36-3.05 1.03-6.61 2.47-8.12 5.54-1.24 2.53-.93 5.36-.57 8.06.53 4.01 1.12 8 1.77 11.99 1.4 8.56 3.19 17.06 4.96 25.55 1.75 8.38 3.5 16.75 5.58 25.06 1 3.99 1.91 8.04 3.23 11.94 1.18 3.46 3.02 6.88 6.33 8.72 1.53.85 3.24 1.28 4.99 1.11 2.38-.23 2.49-3.87 0-3.8-3.33.1-5.63-2.58-6.88-5.39-1.5-3.39-2.33-7.21-3.28-10.78-2.08-7.8-3.77-15.7-5.44-23.59-1.66-7.83-3.34-15.65-4.81-23.51-.74-3.99-1.45-7.99-2.09-11.99-.49-3.05-1.22-6.25-1.17-9.35.04-2.65 1.6-4.11 3.92-5.17 3.44-1.56 7.3-2.25 10.92-3.29 7.96-2.29 15.91-4.62 23.9-6.83 15.67-4.34 31.53-7.93 47.37-11.59 8.12-1.87 16.19-4.04 24.36-5.65 3.25-.64 6.53-1.24 9.83-1.53 1.19-.11 2.41-.22 3.62-.2.45 0 .68.02 1 .1s.13.02.13.02c.14.08.13.07-.04-.06a.8.8 0 0 1-.18-.35c.64 1.68 3.25 1.04 2.74-.76Z"/><path d="M15.88 45.86c3.08 1.2 6.21 2.28 9.38 3.24-2.19 2.45-1.37 6.24-.52 9.41 6.76 25.38 6.55 52.7 17.24 76.69-3.91-2.17-7.52-5.25-9.23-9.39-.79-1.91-1.14-3.97-1.52-6.01-1.58-8.44-3.71-16.78-6.37-24.94-.62-1.9-1.27-3.79-1.76-5.73-.53-2.08-.87-4.21-1.21-6.34l-3-18.75c-.86-5.36-1.72-10.76-1.55-16.18"/><path d="M15.22 46.99c3.07 1.5 6.32 2.77 9.58 3.78l-.77-2.9c-3.74 4.41-1.09 10.53.06 15.43 1.39 5.94 2.46 11.96 3.43 17.98 1.91 11.88 3.44 23.85 6.32 35.55 1.63 6.6 3.78 13.06 6.6 19.26l2.43-2.43c-4.5-2.47-8.07-5.95-9.31-11.06-.71-2.93-1.15-5.93-1.79-8.88s-1.35-5.89-2.13-8.81-1.62-5.82-2.53-8.7c-.88-2.8-1.87-5.58-2.51-8.45-1.36-6.09-2.09-12.36-3.04-18.53-1.08-7.08-2.56-14.17-2.38-21.37.06-2.4-3.67-2.4-3.73 0-.17 6.6 1.02 13.16 2.08 19.64 1.06 6.46 1.98 12.98 3.21 19.41.58 3.04 1.59 5.93 2.55 8.86.99 3.02 1.89 6.07 2.72 9.14s1.59 6.16 2.27 9.26 1.14 6.11 1.85 9.13c1.43 6.08 5.64 10.37 10.93 13.41 1.67.96 3.09-.89 2.43-2.43-9.17-21.28-10.21-44.74-14.9-67.16-.66-3.17-1.43-6.32-2.25-9.46-.57-2.2-1.5-5.38.12-7.35.82-1 .57-2.5-.77-2.9-3.16-.95-6.32-1.91-9.49-2.83-1.4-.41-2.37 1.73-1.01 2.4Zm127.8 82.15-29.46 9.09c-9.78 3.02-19.62 5.88-29.34 9.08-2.35.77-3.85 2.08-4.96 4.29-1.2 2.37-2.52 4.61-4.24 6.65-.86 1.02-.75 3.13.89 3.38 3.43.52 6.85 1.07 10.28 1.55 1.58.22 3.07.34 4.66.09 1.74-.28 3.42-.93 5.09-1.47 6.41-2.08 12.83-4.09 19.28-6.03a936 936 0 0 1 19.88-5.74c5.6-1.55 12.51-2.51 16.59-7.07 2.02-2.26 3.22-5.21 2.65-8.25-.54-2.9-2.7-5.5-5.64-6.15-2.57-.57-3.66 3.36-1.09 3.95 1.78.4 2.84 2.15 2.76 3.94-.09 2.04-1.53 3.85-3.12 5.01-2.17 1.58-4.82 2.31-7.38 3-2.91.79-5.82 1.59-8.72 2.4a915 915 0 0 0-34.44 10.37c-3.07.99-6.14 2.41-9.43 1.99s-6.87-.99-10.3-1.48c.3 1.13.6 2.26.89 3.38 1.46-1.75 2.79-3.6 3.89-5.61.86-1.56 1.35-3.54 3.15-4.21 4.64-1.74 9.51-3.04 14.23-4.54 9.55-3.05 19.11-6.1 28.66-9.16l16.11-5.16c2.08-.67 1.2-3.93-.91-3.28Z"/><path d="M134.14 134.99c.79.26 1.35 1.15 1.73 1.76.58.94 1.03 2 1.45 3.01.12.28.26.81.27 1.09l.09 1.88c.03.61.08 1.23.09 1.85v.33c.04-.23.04-.24 0-.02.16-.27.3-.38-.02-.12l2.94.38-.24-.33c-.53-.72-1.37-1.12-2.24-.74-.81.36-1.28 1.24-1.04 2.12.04.13.07.26.11.39.25.93 1.34 1.63 2.3 1.31 1.89-.64 2.06-2.48 1.98-4.2-.08-1.7-.02-3.5-.69-5.09-.61-1.45-1.36-2.81-2.38-4.01-.96-1.13-2.23-1.77-3.61-2.23-1.66-.54-2.37 2.07-.72 2.61Zm4.33-107.29c-11.72 2.04-23.42 4.05-35.04 6.6a698 698 0 0 0-34.61 8.5c-5.77 1.57-11.52 3.22-17.25 4.93-2.79.83-5.57 1.68-8.35 2.55-2.21.69-4.97 1.26-6.27 3.4-1.48 2.43-.34 5.75.11 8.33A1392 1392 0 0 0 42 88.81c2.24 11.5 4.39 23.09 8.19 34.2.85 2.47 2.05 4.65 4.91 5 1.25.16 2.51-.21 3.73-.46 1.57-.32 3.15-.64 4.72-.97 5.73-1.22 11.43-2.59 17.12-4 22.83-5.64 45.4-12.37 67.56-20.25 2.28-.81 5.44-1.41 6.86-3.57 1.56-2.37.47-5.74.1-8.32-.85-6-1.58-12.03-2.35-18.04-1.56-12.12-3.16-24.24-4.66-36.37-.37-2.97-.74-5.94-1.1-8.91-.13-1.06-.82-1.98-1.98-1.98-.96 0-2.13.91-1.98 1.98 1.55 11.54 3.05 23.09 4.55 34.64.75 5.77 1.51 11.54 2.24 17.32l1.14 8.91q.255 1.98.48 3.96c.225 1.98.6 2.86.37 4.13-.17.94-1.24 1.13-2.02 1.42-1.36.49-2.72.97-4.08 1.46-2.57.91-5.15 1.8-7.74 2.68-5.32 1.81-10.66 3.55-16.02 5.23-10.8 3.38-21.68 6.51-32.64 9.34-10.88 2.81-21.84 5.31-32.82 7.71-.76.17-1.46.28-1.97-.44-.7-1-.98-2.61-1.35-3.77-.86-2.65-1.62-5.33-2.32-8.03-1.4-5.41-2.54-10.88-3.65-16.36q-3.435-16.995-6.42-34.08c-.24-1.35-.54-2.7-.7-4.06-.13-1.11.01-1.64 1.03-2.13 2.3-1.1 5.03-1.64 7.46-2.38 5.41-1.65 10.84-3.25 16.28-4.78 21.88-6.15 44-11.1 66.25-15.72 2.69-.56 5.38-1.09 8.09-1.56 1.9-.33 1.09-3.22-.8-2.89Z"/><path d="M49.65 61.8c2.44-.87 4.94-1.6 7.45-2.26 1.26-.33 2.52-.63 3.79-.9.64-.13 1.27-.27 1.91-.4.67-.13 1.41-.16 1.96-.59 1.01-.77.96-2.32-.36-2.74-.74-.23-1.47-.02-2.2.12-.64.12-1.28.25-1.91.39-1.31.29-2.62.63-3.91.99-2.55.71-5.04 1.62-7.5 2.6-.72.29-1.23.97-1.01 1.78.2.71 1.04 1.27 1.78 1.01m1.59 7.29c1.85-.48 3.7-.98 5.53-1.51.9-.26 1.8-.52 2.7-.79 1.06-.31 2.13-.54 3-1.25.44-.36.51-1.1.3-1.59-.25-.57-.73-.83-1.33-.89-1-.11-2.08.38-3.03.68-.86.27-1.73.54-2.59.8-1.8.56-3.58 1.15-5.36 1.76-.74.25-1.23.99-1.01 1.78s1.02 1.21 1.78 1.01Zm2.49 6.31 1.04-.21.51-.1c.29-.06.58-.1.83-.26.2-.14.39-.31.52-.52l.15-.35c.06-.19.07-.38.03-.58 0-.13-.03-.25-.1-.36a.7.7 0 0 0-.19-.32.65.65 0 0 0-.26-.26c-.14-.13-.3-.21-.49-.26-.14-.03-.28-.04-.42-.06-.14.01-.29.03-.43.06-.04 0-.08.02-.12.03l-.28.06-.51.11-1.06.23c-.19.04-.35.13-.49.26-.16.1-.28.24-.37.41-.11.17-.16.35-.17.54-.04.19-.03.39.03.58.11.35.33.69.67.87l.35.15c.26.07.52.07.77 0Zm25.45-10.17c-.91-.07-1.72.57-2.13 1.34s-.52 1.69-.55 2.58c-.13 3.76.71 7.56 2.42 10.91 1.62 3.18 6.65 1.31 5.83-2.22-.35-1.49-.59-4.02-1-5.5-.32-1.13-.4-2.31-.68-3.46s-.78-2.29-1.71-3-2.39-.83-3.24-.02"/><path d="M79.18 63.76c-2.08-.15-3.71 1.6-4.18 3.49-.46 1.86-.34 3.95-.09 5.83.26 1.99.71 3.94 1.46 5.8.64 1.57 1.3 3.2 2.85 4.06 2.53 1.41 5.84.13 6.94-2.49.64-1.52.17-2.9-.08-4.44-.27-1.65-.59-3.27-.92-4.9-.44-2.16-.62-4.45-2.28-6.1-1.64-1.63-4.19-1.84-5.96-.33-.69.59-.61 1.77 0 2.38.68.68 1.69.59 2.38 0 .11-.1.4-.11.67-.02.43.13.75.51.98.93.68 1.21.72 2.7.99 4.03.26 1.26.55 2.49.75 3.76.09.59.18 1.18.29 1.77.04.25.1.51.14.76.06.37 0 .11 0 .05v.47c.03-.36-.06.15-.09.26.11-.34-.08.11-.14.21-.15.27-.04.03.02-.02-.06.06-.14.13-.19.2-.2.22-.03.03.04-.02-.11.08-.23.15-.35.22-.08.05-.17.09-.25.12.09-.04.33-.08.04-.04-.18.03-.36.09-.54.12.42-.08-.04-.04-.19-.01-.27.05-.03 0 .08.03-.13-.02-.27-.08-.4-.09-.1-.01-.3-.15.05.04-.05-.03-.21-.13-.25-.13-.06 0-.31-.25.02.04-.07-.06-.14-.15-.22-.2-.06-.04-.21-.27 0 .02-.06-.09-.12-.18-.17-.27-.18-.31-.33-.65-.48-.98-.59-1.29-1.02-2.65-1.34-4.03-.36-1.55-.52-3.14-.53-4.73 0-.69-.12-2.79.94-2.84 1.91-.09 1.89-2.81 0-2.95Zm36.39-5.89c-.91-.07-1.72.57-2.13 1.34s-.52 1.69-.55 2.58c-.13 3.76.71 7.56 2.42 10.91 1.62 3.18 6.65 1.31 5.83-2.22-.35-1.49-.59-4.02-1-5.5-.32-1.13-.4-2.31-.68-3.46-.28-1.14-.78-2.29-1.71-3s-2.39-.83-3.24-.02"/><path d="M115.57 56.4c-2.08-.15-3.71 1.6-4.18 3.49s-.34 3.95-.09 5.83c.26 1.99.71 3.94 1.46 5.8.64 1.57 1.3 3.2 2.85 4.06 2.53 1.41 5.84.13 6.94-2.49.64-1.52.17-2.9-.08-4.44-.27-1.65-.59-3.27-.92-4.9-.44-2.16-.62-4.45-2.28-6.1-1.64-1.63-4.19-1.84-5.96-.33-.69.59-.61 1.77 0 2.38.68.68 1.69.59 2.38 0 .11-.1.4-.11.67-.02.43.13.75.51.98.93.68 1.21.72 2.7.99 4.03.26 1.26.55 2.49.75 3.76.09.59.18 1.18.29 1.77.04.25.1.51.14.76.06.37 0 .11 0 .05v.47c.03-.36-.06.15-.09.26.11-.34-.08.11-.14.21-.15.27-.04.03.02-.02-.06.06-.14.13-.19.2-.2.22-.03.03.04-.02-.11.08-.23.15-.35.22-.08.05-.17.09-.25.12.09-.04.33-.08.04-.04-.18.03-.36.09-.54.12.42-.08-.04-.04-.19-.01-.27.05-.03 0 .08.03-.13-.02-.27-.08-.4-.09-.1-.01-.3-.15.05.04-.05-.03-.21-.13-.25-.13-.06 0-.31-.25.02.04-.07-.06-.14-.15-.22-.2-.06-.04-.21-.27 0 .02-.06-.09-.12-.18-.17-.27-.18-.31-.33-.65-.48-.98-.59-1.29-1.02-2.65-1.34-4.03-.36-1.55-.52-3.14-.53-4.73 0-.69-.12-2.79.94-2.84 1.91-.09 1.89-2.81 0-2.95Zm-5.87 26.83c-3.82.94-7.66 1.78-11.47 2.74s-7.53 1.6-11.07 2.91c-3.11 1.15-4.83 3.92-4.1 7.23.65 2.93 3.05 5 5.89 5.74 3.35.87 6.92.1 10.19-.74 3.8-.97 7.58-2.03 11.36-3.07 1.71-.47 3.44-.9 5.14-1.4 1.63-.48 3.27-1.23 4.11-2.8.74-1.39.8-3.12.82-4.67.02-1.61-.22-3.33-1.16-4.69-2.64-3.8-7.01-1.75-10.63-.99-3.91.82-7.86 1.37-11.43 3.28-2.07 1.11-.25 3.96 1.8 3.08 2.55-1.1 5.32-1.65 8.03-2.15 1.31-.24 2.62-.46 3.93-.74 1.23-.26 2.84-1.04 4.11-.83.85.14 1.16 1.01 1.26 1.77.12 1 .18 2.92-.35 3.82-.44.75-1.65.87-2.41 1.08l-4.81 1.29c-2.97.8-5.93 1.6-8.89 2.41-2.59.71-5.25 1.53-7.96 1.52-1.85 0-4.04-.5-4.78-2.41-.89-2.32 1.21-2.86 3.02-3.35 6.79-1.86 13.53-3.91 20.29-5.86 2.03-.58 1.18-3.67-.87-3.16ZM83.43 161.7l-4.97 6.95c5.33-.55 10.64 1.59 15.99 1.26 8.22-.52 15.53-4.8 23.04-7.73 5.44-2.12 11.01-3.92 16.67-5.37 5.19-1.34 10.62-1.98 15.56-4.15 2.59-1.14 5.79-5.34 2.78-7.82-1.98-1.63-4.91-.34-7.18.85a63.7 63.7 0 0 1-15.22 5.62c-3.5.81-7.07 1.31-10.55 2.24-6.06 1.62-11.7 4.48-17.59 6.65s-12.28 3.65-18.41 2.36"/><path d="M82.32 160.59c-1.91 2.3-3.74 4.68-5.53 7.08-.85 1.15.29 3.02 1.67 2.91 5.53-.44 10.89 1.73 16.43 1.29 5.33-.42 10.31-2.28 15.19-4.36 4.98-2.13 9.93-4.25 15.08-5.95 5.3-1.75 10.66-3.08 16.11-4.26 4.57-.99 10.09-1.93 13.04-5.93 1.2-1.63 1.89-3.83 1.16-5.8-.84-2.27-3.15-3.65-5.54-3.53-2.49.13-4.67 1.4-6.85 2.46a62 62 0 0 1-7.43 3.07c-5.29 1.79-10.79 2.46-16.18 3.85-11.56 2.97-22.9 11.6-35.36 9.17-2.57-.5-3.68 3.42-1.09 3.95 10.72 2.19 20.47-2.81 30.16-6.62 4.89-1.92 9.84-3.03 14.97-4.05 5.1-1.02 10.04-2.56 14.79-4.69 2.08-.93 4.07-2.31 6.28-2.89 1.21-.32 2.82 0 2.38 1.57-.42 1.5-1.86 2.62-3.23 3.19-2.34.97-4.83 1.59-7.3 2.14-5.11 1.15-10.17 2.31-15.17 3.89-4.98 1.58-9.84 3.46-14.62 5.56-4.91 2.16-9.95 4.46-15.33 5.13-5.89.73-11.59-1.64-17.47-1.05.56.97 1.11 1.94 1.67 2.91a174 174 0 0 0 4.65-7.13c.9-1.48-1.3-3.28-2.45-1.89Z"/></svg>