<?xml version="1.0" encoding="UTF-8"?><svg xmlns="http://www.w3.org/2000/svg" viewBox="0 0 180 180"><path d="M108.32 32.02C92.07 47.29 75.2 61.93 58.1 76.23c-8.62 7.21-17.31 14.34-26.08 21.37-4.23 3.39-8.71 6.6-12.73 10.23-1.88 1.69-3.31 3.75-3.89 6.24s-.65 4.89-1.06 7.31c-1.85 11.07-5.36 21.8-6.6 32.98-.17 1.56 1.57 2.43 2.86 2.18 6.93-1.4 13.71-3.36 20.61-4.85 3.7-.8 7.43-1.25 11.16-1.87 4.7-.78 8.58-2.65 12.26-5.67 3.41-2.8 6.64-5.84 9.94-8.77 3.36-2.99 6.73-5.99 10.09-8.99 6.88-6.15 13.75-12.3 20.61-18.48a3781 3781 0 0 0 41.29-37.73c6.5-6.03 12.98-12.09 19.42-18.19 2.97-2.81 6.09-5.8 7.8-9.59 1.9-4.21 1.58-8.59-.21-12.78-3.27-7.67-9.96-14.54-17.63-17.87-4.5-1.96-9.06-1.97-13.41.4-1.96 1.06-3.71 2.47-5.45 3.85-1.98 1.57-3.96 3.13-5.91 4.73a251 251 0 0 0-5.6 4.75c-1.62 1.41.54 4.3 2.33 3.02 3.94-2.82 7.77-5.77 11.59-8.76 3.04-2.38 6.49-5.25 10.58-5.03s7.83 2.81 10.76 5.23 5.6 5.48 7.57 8.88c2.01 3.48 3.35 7.45 1.78 11.36-1.42 3.55-4.45 6.29-7.16 8.86-6.16 5.85-12.38 11.64-18.63 17.41-13.09 12.06-26.32 23.98-39.56 35.87-12.97 11.64-25.99 23.23-39.02 34.81-3.06 2.72-6.15 5.88-10.1 7.25-3.84 1.33-8.01 1.52-12 2.24-6.09 1.09-12.02 2.86-18.04 4.24-2.08.48-4.17.92-6.26 1.34.95.73 1.9 1.45 2.86 2.18 1.09-9.7 4.11-19.09 5.96-28.65.46-2.37.85-4.75 1.14-7.14.27-2.22.39-4.48 1.92-6.25s3.67-3.25 5.54-4.75c2.17-1.74 4.33-3.48 6.5-5.22 17.14-13.79 34-27.9 50.32-42.66 9.16-8.28 18.15-16.74 27.12-25.23 1.62-1.53-.82-3.96-2.44-2.44Z"/><path d="M15.55 135.37c1.77.54 3.4 1.47 4.94 2.49 3.88 2.57 7.62 6.44 7.39 11.09-5.3 1.15-10.5 2.71-15.56 4.65l2.64-14.97c.12-.7.28-1.45.8-1.92"/><path d="M15.16 136.78c2.8 1.07 5.52 3.07 7.62 5.19 1.88 1.9 3.32 4.22 3.21 6.97l1.39-1.83c-5.3 1.13-10.52 2.68-15.57 4.62l2.37 2.37c.5-2.85.99-5.71 1.49-8.56.25-1.43.5-2.85.74-4.28.11-.65.23-1.31.34-1.96.06-.36.09-1 .34-1.27 1.66-1.76-.98-4.42-2.66-2.66-1.03 1.08-1.23 2.41-1.48 3.82-.28 1.54-.55 3.09-.83 4.63-.55 3.09-1.11 6.17-1.66 9.26-.23 1.29.87 2.94 2.37 2.37 5.08-1.93 10.26-3.49 15.55-4.68.82-.19 1.38-1.02 1.39-1.83.07-3.61-1.77-6.82-4.27-9.3s-5.99-4.76-9.58-5.68c-1.85-.48-2.5 2.16-.78 2.82Zm5.24-21.49c3.58-.44 7.16 1.96 10.1 3.72 3.17 1.9 5.76 4.44 8.11 7.27 2.22 2.67 4.21 5.6 5.61 8.78.67 1.53 1.2 3.17 1.55 4.81.16.76.29 1.53.35 2.31.08 1.02-.05 2.03.54 2.93.53.82 1.92 1.23 2.64.34 1.33-1.65.86-4.31.55-6.27s-.91-3.84-1.7-5.68c-1.6-3.74-3.91-7.12-6.52-10.23s-5.77-6.07-9.43-8.05c-3.61-1.95-8.02-4.49-12.23-3.13-1.65.53-1.48 3.44.43 3.21Zm10.19-10.72c4.1-.11 8.33 2.27 11.65 4.49 3.01 2 5.67 4.5 7.95 7.3s4.13 5.89 5.48 9.19c.7 1.7 1.26 3.47 1.69 5.26.2.84.37 1.68.51 2.53.16.95.15 1.99.51 2.89.54 1.33 2.73 1.72 3.1 0 .35-1.58-.1-3.35-.42-4.91s-.7-2.99-1.19-4.45c-1.01-3-2.37-5.89-4.06-8.56-3.37-5.34-8.02-9.89-13.49-13.04-3.62-2.08-7.51-3.54-11.74-3.36-1.71.07-1.73 2.72 0 2.67Zm84.64-75.68c6.43 3.48 13.13 6.79 18.23 12.16 4.96 5.22 7.92 12.18 8.49 19.34.21 2.6 4.29 2.62 4.08 0-.64-7.97-3.71-15.65-9.1-21.6-5.4-5.95-12.78-9.6-20.05-12.7-1.87-.8-3.53 1.78-1.64 2.81Zm-1.42 38.33c-1.42-2.75-4.54-3.65-7.42-3.08-3.55.7-5.1 3.4-6.58 6.4-1.76 3.57-3.88 6.71-6.91 9.34s-6.48 3.92-10.15 4.91c-3.02.82-6.23 2.4-6.3 5.99-.08 3.98 3.56 6.49 7.16 6.85s7.65-.92 10.97-2.44 6.25-3.63 8.85-6.1c3.19-3.02 5.83-6.63 7.96-10.46 1.97-3.56 4.17-7.32 2.43-11.41-.42-.99-1.89-1.21-2.74-.72-1.03.6-1.14 1.74-.72 2.74.98 2.29-1.38 5.48-2.43 7.37-1.55 2.8-3.37 5.45-5.53 7.81-3.95 4.33-9 7.69-14.79 8.91-2.17.46-6.51.95-7.12-2.08-.41-2.05 2.82-2.46 4.18-2.84 3.21-.9 6.45-2.22 9.15-4.2s4.77-4.21 6.66-6.79c1.16-1.58 2.01-3.32 2.88-5.07.59-1.19 1.1-2.76 2.19-3.59 1.43-1.07 3.89-1.29 4.8.47 1.18 2.29 4.64.27 3.45-2.02Zm-44.8 14.31c.18.16.35.32.51.5.18.21.02-.01.18.23.11.17.22.35.31.54l.12.24c-.06-.13-.05-.09.02.1.05.17.09.34.14.52.04.21.04.23.03.07l.03.35v.53c0 .39.06-.11-.03.23-.06.23-.12.45-.2.68.12-.32-.09.17-.1.2-.09.18-.19.35-.31.52l-.15.21c.11-.15.1-.13-.04.03-.12.13-.23.26-.36.38-.05.05-.57.49-.29.28-.3.24-.64.44-.97.62-.18.1-.37.19-.56.27.35-.15-.18.06-.21.07-.38.13-.76.21-1.16.3-.45.1.27 0-.15.02-.22.01-.45.03-.67.03-.17 0-.34 0-.5-.01-.06 0-.67-.06-.41-.03s-.34-.07-.4-.08c-.16-.04-.32-.08-.48-.13-.09-.03-.73-.29-.3-.09-.15-.07-.29-.14-.44-.22s-.27-.17-.41-.25c-.18-.13-.18-.12.01.02l-.24-.21c-.12-.11-.24-.22-.35-.34-.07-.08-.15-.16-.21-.24.14.18.14.18.02 0-.58-.84-1.75-1.31-2.68-.7-.87.56-1.29 1.76-.7 2.68 1.95 3.07 5.87 4.04 9.27 3.18 3.43-.86 6.72-3.84 6.54-7.61-.1-2.19-1.17-4.11-2.95-5.38-1.45-1.03-3.26 1.3-1.91 2.48Zm40.42-32.74c.18.16.35.32.51.5.18.21.02-.01.18.23.11.17.22.35.31.54l.12.24c-.06-.13-.05-.09.02.1.05.17.09.34.14.52.04.21.04.23.03.07l.03.35v.53c0 .39.06-.11-.03.23-.06.23-.12.45-.2.68.12-.32-.09.17-.1.2-.09.18-.19.35-.31.52l-.15.21c.11-.15.1-.13-.04.03-.12.13-.23.26-.36.38-.05.05-.57.49-.29.28-.3.24-.64.44-.97.62-.18.1-.37.19-.56.27.35-.15-.18.06-.21.07-.38.13-.76.21-1.16.3-.45.1.27 0-.15.02-.22.01-.45.03-.67.03-.17 0-.34 0-.5-.01-.06 0-.67-.06-.41-.03s-.34-.07-.4-.08c-.16-.04-.32-.08-.48-.13-.09-.03-.73-.29-.3-.09-.15-.07-.29-.14-.44-.22s-.27-.17-.41-.25c-.18-.13-.18-.12.01.02l-.24-.21c-.12-.11-.24-.22-.35-.34-.07-.08-.15-.16-.21-.24.14.18.14.18.02 0-.58-.84-1.75-1.31-2.68-.7-.87.56-1.29 1.76-.7 2.68 1.95 3.07 5.87 4.04 9.27 3.18s6.72-3.84 6.54-7.61c-.1-2.19-1.17-4.11-2.95-5.38-1.45-1.03-3.26 1.3-1.91 2.48Z"/><path d="M126.41 33.1c6.97-5.36 14.33-10.08 21.92-14.49 1.9-1.11.2-4.03-1.73-2.95-7.76 4.34-15.08 9.53-22.01 15.09-1.31 1.05.47 3.4 1.82 2.36Zm10.13 5.63c3.15-2.41 6.37-4.72 9.48-7.19s6.14-5.01 9.17-7.55c.74-.62.64-1.88 0-2.52-.72-.72-1.79-.63-2.52 0-2.94 2.56-5.91 5.07-8.89 7.59s-5.86 5.12-8.86 7.58c-1.16.95.41 3.02 1.62 2.1Zm5.75 9.52c3.55-2.28 6.85-4.97 9.96-7.83 1.51-1.38 2.97-2.81 4.39-4.28 1.51-1.57 3.09-3.16 4.4-4.91 1.22-1.64-1.42-3.58-2.8-2.16s-2.69 3.08-4.1 4.57c-1.41 1.48-2.86 2.92-4.36 4.32-2.98 2.79-6.14 5.38-9.29 7.96-1.3 1.07.39 3.24 1.8 2.33M37.64 148.76c-2.71 6.09-4.99 12.37-6.8 18.78 6.81-1.94 13.62-3.89 20.43-5.83 4.29-1.22 8.63-2.47 12.45-4.77 2.94-1.77 5.48-4.11 8-6.44 16.55-15.3 33.43-30.24 49.86-45.67 8.31-7.81 16.5-15.73 24.46-23.89 4.69-4.8 9.72-10.02 14.53-14.99 3.74-3.86 11.52-9.45 8.89-15.84-1.08-2.62-3.78-4.14-6.29-5.46-7.18 9.64-16.16 17.76-25.08 25.81-4.7 4.24-9.4 8.49-14.1 12.73l-60.86 54.95c-2.72 2.46-5.46 4.93-8.57 6.88a31.9 31.9 0 0 1-15.26 4.8"/><path d="M36.28 147.97c-3.06 6.1-5.37 12.52-7.26 19.07-.4 1.38.94 2.7 2.31 2.31 6.82-1.92 13.64-3.82 20.45-5.76 3.17-.9 6.33-1.84 9.35-3.15 2.91-1.27 5.5-2.97 7.94-4.99 5.27-4.35 10.16-9.23 15.21-13.83 5.19-4.73 10.4-9.44 15.6-14.16 10.39-9.44 20.75-18.9 30.89-28.61 9.99-9.57 19.62-19.48 29.26-29.4 1.95-2.01 3.99-3.92 5.98-5.88 1.91-1.88 3.82-3.96 4.96-6.41 1.24-2.67 1.45-5.55.19-8.25-1.34-2.9-4.24-4.61-6.95-6.04-1.08-.57-2.15-.19-2.85.75-5.93 7.9-13.19 14.76-20.46 21.39-7.97 7.27-16.01 14.46-24.01 21.69-16.39 14.8-32.78 29.59-49.17 44.39-4.31 3.89-8.49 8.16-13.29 11.45-4.48 3.07-9.7 4.9-15.13 5.25-2.6.17-2.64 4.2 0 4.08 5.05-.24 9.98-1.53 14.45-3.89 4.66-2.46 8.52-6.13 12.4-9.63l25.05-22.62c16.7-15.08 33.41-30.14 50.09-45.24 8.51-7.69 16.79-15.56 23.67-24.78l-2.85.75c2.02 1.06 4.55 2.27 5.46 4.52.74 1.84.14 3.72-.84 5.34-1.15 1.9-2.76 3.49-4.35 5.03-1.78 1.71-3.54 3.42-5.25 5.2-9.16 9.48-18.3 18.95-27.78 28.11-19.36 18.71-39.58 36.51-59.36 54.76-2.51 2.31-5.04 4.61-8.04 6.28s-6.24 2.69-9.49 3.64c-7.37 2.15-14.75 4.26-22.13 6.4l2.31 2.31c1.8-6.41 4.09-12.66 6.5-18.86.64-1.65-2.08-2.79-2.87-1.21Zm42.45-86.8c-.63-2.65-2.58-4.6-4.51-6.41-2.11-1.98-4.27-3.9-6.5-5.74-2.21-1.82-4.48-3.59-6.78-5.29-2.18-1.61-5.32-4.35-7.51-1.23-.94 1.34.63 3.39 2.18 2.83-.27.1-.41-.15-.02.01.17.07.34.14.5.24.45.28.89.6 1.32.91 1.02.71 2.02 1.43 3.02 2.17 1.91 1.4 3.78 2.86 5.62 4.35 1.83 1.47 3.62 2.98 5.38 4.53 1.65 1.46 3.35 2.87 4.42 4.83.87 1.6 3.27.49 2.87-1.21Z"/><path d="M55.32 40.8c-4.71 1.4-9.43 2.68-14.31 3.38-1.05.15-2.36.07-3.36.4-.69.23-.03-.08.12.25-.06-.13-.17-.26-.22-.4-.17-.51-.39-.97-.49-1.51-.35-1.9.21-3.88 1.05-5.59 1.83-3.69 4.59-7.04 7.72-9.7 1.54-1.31 3.25-2.42 5.06-3.31 1.44-.7 3.29-1.56 4.93-1.44.63.04.82.08.94.66.25 1.28 0 2.84 0 4.15-.01 2.9.01 5.78.3 8.67.24 2.43 3.5 2.41 3.77 0 .35-3.2.38-6.41.4-9.63.02-2.65.36-5.83-2.24-7.45-2.14-1.33-4.85-.9-7.11-.15-2.46.82-4.8 2.02-6.91 3.53-4.26 3.06-7.96 7.21-10.44 11.84-1.31 2.45-2.21 5.22-1.98 8.03.21 2.57 1.37 6.34 4.47 6.5 1.6.09 3.36-.33 4.93-.59s3.22-.58 4.81-.94c3.43-.79 6.79-1.84 10.03-3.22 2-.85.57-4.09-1.47-3.48"/><path d="M57.21 27.38c-3.71 1.71-7.46 3.53-10.39 6.45-1.52 1.51-2.66 3.29-3.48 5.27-.43 1.03-.76 2.1-1.14 3.15s-.91 2.12-1.24 3.21c-.45 1.47 1.43 2.42 2.48 1.44 1.61-1.5 2.1-3.95 2.83-5.94a13.7 13.7 0 0 1 2.94-4.74c2.63-2.77 6.11-4.6 9.44-6.37 1.65-.87.2-3.23-1.44-2.47M103.78 72c.07-.05.15-.09.22-.14.13-.09-.2.04-.21.05.04-.03.69 0 .25 0 .16 0 .34.04.49.07-.37-.07-.09-.01-.01 0 .18.04.35.09.53.14.09.03.17.06.26.09.19.07.02.02-.06-.03.15.1.34.14.5.22.33.15.65.33.95.53.14.09.27.19.4.28.16.11-.23-.2-.02-.01l.21.18a8.4 8.4 0 0 1 .91.94c.13.15-.18-.26-.01-.02.1.15.21.3.31.45.25.39.46.79.78 1.13.45.47 1.29.6 1.85.24.62-.4.8-1.02.7-1.72-.07-.48-.39-.99-.66-1.39-.29-.42-.61-.83-.96-1.21-.62-.66-1.36-1.24-2.14-1.7s-1.66-.82-2.56-.95c-.59-.09-1.15-.13-1.74.05s-1.04.45-1.5.81c-.5.39-.45 1.22-.1 1.67s1.12.69 1.64.33Z"/></svg>