<?xml version="1.0" encoding="UTF-8"?><svg xmlns="http://www.w3.org/2000/svg" viewBox="0 0 180 180"><path d="M62.89 59.44c-.11 4.97-.53 9.96-.72 14.93-.18 4.81-.54 9.7-.11 14.51.75 8.28 4.65 15.72 11.62 20.43 1.72 1.16 3.56 2.17 5.5 2.91s3.97 1.81 6.1 2.01c1.3.12 1.59-1.71.63-2.31-1.45-.92-3.16-1.39-4.63-2.31s-2.81-1.94-4.1-3.01c-2.61-2.17-5.06-4.65-6.87-7.53-4.46-7.1-3.62-15.66-3.77-23.69l-.15-7.72c-.05-2.74-.3-5.48-.31-8.21 0-2.04-3.13-2.04-3.17 0Z"/><path d="M63.62 64.85c-1.91-1.5-4.38-1.8-6.55-.66-1.85.98-3.12 2.82-3.94 4.69-1.91 4.32-2.81 10.14-.45 14.46 1.68 3.06 5.21 5.24 8.46 6.27.85.27 1.82-.25 2.15-1.05.37-.91 0-1.71-.74-2.27-2.39-1.82-5.68-2.72-6.74-5.86-.43-1.28-.52-2.63-.45-3.97.05-1.09.11-1.46.34-2.53s.51-2.08.91-3.08c.11-.28.33-.75.56-1.16.14-.25.3-.5.45-.74 0 0 .36-.49.19-.27.28-.36.61-.72.98-1-.25.19.34-.19.4-.23.37-.2-.13.01.24-.1.99-.3 1.56-.15 2.7.05 1.31.23 2.81-1.5 1.48-2.55Zm14.19 58.74c.28-4.98.33-9.97.35-14.96.01-2.41-3.76-2.42-3.75 0 .02 4.99.07 9.98.35 14.96.11 1.96 2.94 1.96 3.05 0"/><path d="M74.31 121.63c-3.27.78-6.59 1.36-9.86 2.12s-6.21 1.53-9.29 2.39c-6.14 1.71-12.33 3.59-18.22 6.04-2.74 1.14-5.33 2.49-7.55 4.5-1.99 1.8-3.57 4.08-4.82 6.44-2.14 4.05-3.75 8.38-4.63 12.87-.49 2.49-.9 5-1.37 7.5-.37 1.98-.59 4.03-1.08 5.99-.52 2.09 2.58 3.59 3.6 1.52 1.75-3.54 2.3-7.49 3.09-11.32s1.82-7.79 3.48-11.53c.99-2.24 2.14-4.52 3.75-6.4 1.73-2.01 3.88-3.41 6.26-4.54 5.44-2.58 11.38-4.27 17.1-6.11 3.35-1.08 6.72-2.09 10.08-3.11s6.86-2.21 10.33-3.11c2.09-.54 1.21-3.74-.89-3.24ZM60.13 76.68c.14.04.27.09.4.15l-.29-.12c.38.16.74.38 1.07.63l-.25-.19c.3.24.57.52.81.82l-.2-.26c.26.34.48.71.65 1.11l-.13-.32c.06.14.11.27.17.41l-.13-.32c.11.27.2.54.34.8.14.27.49.54.78.6s.58.05.85-.07c.25-.11.5-.29.63-.54l.13-.31c.06-.23.06-.47 0-.7-.05-.3-.19-.59-.33-.86-.09-.19-.2-.36-.32-.53-.28-.41-.6-.81-.97-1.14a6.6 6.6 0 0 0-2.58-1.49c-.61-.18-1.35.22-1.49.85-.15.66.2 1.28.85 1.49Zm53.81-17.24c-.01 4.64-.33 9.3-.42 13.94s.01 9.13-.27 13.67c-.24 3.76-.98 7.42-2.8 10.75-1.65 3.02-3.97 5.51-6.5 7.82-1.39 1.27-2.91 2.36-4.44 3.45-1.68 1.2-3.67 1.75-5.4 2.84-.96.61-.67 2.43.63 2.31 1.85-.17 3.52-1.02 5.24-1.69s3.48-1.43 5.11-2.43c3.36-2.05 6.19-4.75 8.42-7.99 5.24-7.64 4.75-16.91 4.42-25.76l-.31-8.21c-.11-2.91-.42-5.81-.48-8.71-.04-2.04-3.17-2.05-3.17 0Z"/><path d="M117.87 67.4c1.11-.2 1.66-.34 2.61-.07.39.11.06-.02.33.13.06.03.65.41.4.23.37.28.69.64.98 1s.99 1.65 1.2 2.17c.4.99.69 2.03.91 3.08s.28 1.44.34 2.53c.07 1.34-.03 2.69-.45 3.97-1.04 3.14-4.35 4.04-6.74 5.86-.72.55-1.14 1.37-.74 2.27.35.8 1.27 1.33 2.15 1.05 2.9-.92 5.87-2.72 7.73-5.17s2.29-5.46 2.07-8.36c-.32-4.07-1.58-8.98-5.07-11.48-2.21-1.59-5.08-1.42-7.2.25-1.33 1.04.17 2.78 1.48 2.55Zm-12.63 56.19c.28-4.98.33-9.97.35-14.96.01-2.41-3.76-2.42-3.75 0 .02 4.99.07 9.98.35 14.96.11 1.96 2.94 1.96 3.05 0"/><path d="M104.8 124.87c6.09 1.58 12.12 3.62 18.13 5.5 5.93 1.86 11.88 3.75 17.64 6.07 2.37.96 4.77 2.14 6.65 3.89 1.83 1.7 3.15 3.79 4.26 6 1.88 3.75 3.11 7.64 3.99 11.73.93 4.33 1.45 8.91 3.43 12.92 1.01 2.05 4.13.59 3.6-1.52-.44-1.75-.62-3.59-.96-5.36-.42-2.18-.79-4.37-1.19-6.55-.82-4.46-2.13-8.54-4.05-12.67-2.39-5.15-5.92-9.32-11.11-11.78-5.71-2.71-11.98-4.58-18.05-6.32-3.53-1.02-7.08-1.98-10.66-2.82-3.58-.85-7.22-1.49-10.8-2.34-2.1-.5-2.99 2.69-.89 3.24Zm14.43-50.52c-.97.29-1.83.81-2.58 1.49-.37.34-.69.73-.97 1.14-.12.17-.23.35-.32.53-.13.27-.28.56-.33.86-.05.35-.07.7.13 1.01.16.24.36.42.63.54.57.24 1.34.05 1.64-.54.13-.26.22-.53.34-.8l-.13.32c.06-.13.11-.27.17-.41l-.13.32c.17-.4.39-.77.65-1.11l-.2.26c.24-.3.5-.58.81-.82l-.25.19c.33-.25.69-.46 1.07-.63l-.29.12c.13-.06.27-.11.4-.15.3-.1.56-.28.72-.56.15-.26.22-.64.12-.93-.2-.61-.84-1.04-1.49-.85Zm-32.25-6.16c-.03 3.75-.3 7.48-.49 11.22-.1 1.88-.19 3.76-.22 5.64s-.09 3.76.3 5.58c.38 1.8 2.92 1.24 3.04-.41.14-1.84-.03-3.71-.02-5.56.02-1.82.08-3.64.16-5.46.15-3.67.37-7.35.33-11.03-.02-1.99-3.08-1.99-3.09 0Z"/><path d="M88.68 88.08c-3.55-1.2-7.15.39-9.46 3.12-.56.66-1.11.45-1.92.58-.83.13-1.59.5-2.13 1.16-1.4 1.69-.16 3.49 1.11 4.79 2.31 2.36 5.79 3.82 9.11 3.43 2.94-.34 6.07-1.78 7.32-4.6-1.03-.14-2.07-.27-3.1-.41 2.52 7.4 13.65 5.08 16.86-.41.91-1.56-.89-3.29-2.43-2.43-.71.4-1.73-2.27-1.98-2.69-.68-1.13-1.6-1.92-2.82-2.41-2.24-.91-4.98-.81-7.24-.02-2.13.75-1.22 4.16.94 3.41 1.67-.58 4.75-1.06 5.95.64.94 1.33 1.28 2.87 2.69 3.85 1.3.91 2.87 1.07 4.26.3l-2.43-2.43c-1.09 1.86-3.25 2.96-5.34 3.25-2.31.32-4.1-.42-5.35-2.35-.75-1.15-2.78-1.09-3.1.41-.33 1.49-2.96 2.16-4.21 2.35-2.13.31-4.4-.48-6.01-1.89-.32-.28-.79-1.09-1.15-1.21-.26-.09-.4.73-.3.8.11.08.65-.02.79-.04 1.32-.12 2.3-.67 3.13-1.69 1.52-1.88 3.56-2.82 6-2.43 1.99.31 2.82-2.39.84-3.06ZM81 73.19h-.03c-.26-.16-.52-.24-.83-.24-.37 0-.49.08-.83.22h-.03c-.24.15-.43.34-.57.58-.14.25-.21.51-.22.8 0 .28.07.55.22.8q.21.36.57.57h.03s.01.02.02.02l.38.16.43.06c.22 0 .43-.04.62-.14.07-.02.13-.05.2-.08h.01l.03-.02c.24-.14.42-.33.56-.56a1.58 1.58 0 0 0 0-1.58c-.14-.24-.33-.42-.56-.56Zm18.69 0h-.03c-.26-.16-.52-.24-.83-.24-.37 0-.49.08-.83.22h-.03c-.24.15-.43.34-.57.58-.14.25-.21.51-.22.8 0 .28.07.55.22.8q.21.36.57.57H98s.01.02.02.02l.38.16.43.06c.22 0 .43-.04.62-.14.07-.02.13-.05.2-.08h.01l.03-.02c.24-.14.42-.33.56-.56a1.58 1.58 0 0 0 0-1.58c-.14-.24-.33-.42-.56-.56Zm-25.3-5.29c.77-.45 1.37-.69 2.32-.94.48-.13.95-.26 1.44-.36.24-.05.49-.09.73-.14q.36-.06.03 0c.09-.01.18-.02.28-.04.92-.11 1.85-.15 2.77-.08l.65.06c-.46-.05.3.05.38.07.58.11 1.22.32 1.8.25.78-.1 1.42-.4 1.75-1.18.27-.64.2-1.63-.4-2.09s-1.23-.74-1.99-.88c-.63-.11-1.28-.2-1.92-.24-1.17-.08-2.33 0-3.49.18-2.21.33-4.17 1.33-5.99 2.6-.72.5-1.05 1.42-.58 2.22s1.46 1.03 2.22.58Zm32.27-4.33c-1.84-1.15-3.9-2.1-6.06-2.44-1.13-.18-2.28-.23-3.42-.12-.66.06-1.34.16-1.98.32-1.01.25-1.84.74-2.17 1.78-.19.59-.01 1.49.5 1.89.49.38.9.67 1.55.67.34 0 .75-.1 1.09-.17.47-.1.94-.2 1.41-.27q.375-.045-.03 0c.12-.01.24-.03.36-.04.24-.02.48-.04.72-.05.48-.02.96 0 1.44.02.24.01.48.02.71.04.08 0 .81.1.37.03.48.07.95.17 1.41.29s.91.27 1.36.43c.19.08.22.09.08.03.11.05.21.11.32.17.21.11.42.24.62.36.77.46 1.91.19 2.34-.61s.2-1.83-.61-2.34Zm-41.62-6.13c4.19 1.67 8.95.94 12.88-1.09 1.9-.98 3.64-2.31 5.18-3.79.8-.77 1.54-1.6 2.24-2.46.74-.91 1.64-1.87 1.97-3.02.23-.77-.15-1.65-.84-2.06-.76-.44-1.56-.22-2.21.28-.73.56-1.19 1.49-1.75 2.21s-1.21 1.45-1.86 2.13c-1.28 1.32-2.68 2.49-4.28 3.41-3.18 1.83-6.97 2.44-10.5 1.32-1.99-.63-2.69 2.32-.84 3.06Zm22.59-.09c3.16-.8 5.44-3.04 7.51-5.43 1.05-1.21 2.08-2.45 3.3-3.49.91-.78 2.4-1.92 3.71-1.75l-1.51-2.65c-.79 2.99.25 5.97 2.06 8.37.9 1.19 1.93 2.23 2.99 3.27s1.97 2.25 3.11 3.18c1.35 1.1 3.64.12 3.09-1.8-.7-2.48-3.07-4.3-4.77-6.13-1.4-1.51-2.89-3.57-2.33-5.74.44-1.7-1.06-2.94-2.65-2.65-3.52.63-6.24 2.78-8.41 5.55-1.9 2.42-3.76 5.65-6.81 6.75-1.57.56-.96 2.95.7 2.53Z"/><path d="M62.18 64.19c-1.23-3.47-2.2-6.85-1.75-10.57.1-.83-.67-1.64-1.41-1.86-1.57-.45-1.74-2.27-1.39-3.63.46-1.78 1.5-3.44 2.53-4.95 2.04-2.97 4.84-5.46 7.85-7.39 7.05-4.53 15.61-6.22 23.89-6.43 4.25-.1 8.68.59 11.4 4.2 1.41 1.87 4.29.31 3.2-1.87-2.17-4.33-7.36-5.98-11.87-6.27-5.14-.33-10.56.39-15.55 1.58-9.21 2.2-17.89 7.21-23.03 15.34-1.4 2.21-2.77 4.87-2.55 7.57.2 2.52 1.85 5.11 4.49 5.56l-1.41-1.86c0 4.01.61 8.3 2.86 11.72.88 1.34 3.34.53 2.74-1.16Zm44.77-36.28c1.4 1.61 2.12 3.55 2.13 5.67 0 1.08.87 1.84 1.91 1.91 2.34.15 4.12 2.55 5.5 4.19 1.78 2.12 3.35 4.39 3.78 7.19.92 6-2.49 10.97-4.9 16.11-1.15 2.45 2.15 4.45 3.66 2.14 3.74-5.77 6.85-13.29 5.23-20.25-.79-3.39-2.93-6.13-5.18-8.69-2.09-2.38-4.69-4.7-8.08-4.5l1.84 1.4c-.39-2.77-1.74-5.35-3.74-7.3-1.41-1.37-3.4.68-2.13 2.13Zm-34.27 90.3c-6.02.18-11.12 4.97-13.52 10.49s-2.63 11.71-2.83 17.73c-.2 6.23-.4 12.45-.61 18.68 4.84 1 9.86 1.09 14.73.28.76-.13 1.55-.29 2.13-.79.86-.73 1.05-1.97 1.15-3.1 1.4-15-1.03-30.26 1.38-45.13-.9-.12-1.85.3-2.36 1.05"/><path d="M72.68 116.77c-6.51-.28-12.14 4.76-14.86 10.31-3.56 7.25-3.35 15.65-3.64 23.53-.18 4.83-.32 9.67-.48 14.5-.03.83.64 1.78 1.49 1.95 4.48.89 9.07 1.15 13.61.59 2-.25 4.23-.4 5.61-2.06 1.28-1.53 1.32-3.64 1.47-5.54.71-9.17.03-18.31-.13-27.49-.09-5.27.21-10.52 1.08-15.72.2-1.19-.48-2.15-1.71-2.24a4.28 4.28 0 0 0-3.63 1.55c-.62.76-.73 1.8 0 2.54.62.63 1.94.76 2.54 0 .34-.44.54-.57 1.09-.54l-1.71-2.24c-1.24 8.32-1.22 16.79-1.25 25.18-.01 4.22.09 8.44 0 12.66-.05 2.19-.15 4.37-.33 6.55-.06.73-.06 1.5-.28 2.2s-.69.77-1.44.91c-4.53.84-9.34.65-13.84-.26l1.49 1.95c.17-5.08.34-10.16.49-15.24.13-4.65.09-9.38.88-13.98.69-4 1.97-8 4.66-11.11 2.45-2.84 5.53-4.68 9.28-5.19 1.67-.22 1.16-2.76-.38-2.82Zm31.82 1.5c2.38 12.98 2.61 26.25 2.82 39.45 6.46.2 12.92.39 19.38.59.79-8.55.52-17.19-.79-25.68-.35-2.25-.79-4.53-1.93-6.5-1.43-2.47-3.82-4.21-6.28-5.65-3.99-2.33-8.5-4.08-13.12-3.86"/><path d="M103.01 118.27c1.67 13.1 2.11 26.26 2.31 39.45.02 1.1.9 1.96 2 2 6.46.2 12.92.42 19.38.63 1.17.04 1.93-.97 2.03-2.03.47-5.16.58-10.35.29-15.53q-.21-3.885-.72-7.74c-.31-2.38-.57-4.83-1.32-7.13-1.47-4.51-4.97-7.41-8.99-9.66s-8.77-4.13-13.41-3.69c-2.58.25-2.68 4.02 0 4.09 4.24.12 8.02 1.3 11.7 3.39 1.75 1 3.43 2.1 4.8 3.59s1.96 3.16 2.38 5.01c1.01 4.42 1.35 9.06 1.54 13.58.2 4.7.08 9.39-.33 14.08l2.03-2.03c-6.46-.18-12.92-.37-19.38-.56l2 2c-.23-13.31-.3-26.82-3.39-39.84-.38-1.59-3.13-1.29-2.92.39"/><path d="M107.64 154.61c-.34 1.49-.55 3.01-.8 4.52-.12.76-.24 1.52-.35 2.27-.13.82-.38 1.74-.35 2.57.03.87.64 1.59 1.51 1.71s1.64-.41 1.91-1.25c.16-.47.17-1.02.24-1.52l.14-1.05c.1-.76.21-1.52.3-2.28.19-1.52.41-3.03.5-4.56.05-.78-.64-1.45-1.37-1.55s-1.56.36-1.73 1.13Zm6.03 1.08c-.41 1.48-.61 3.02-.81 4.53-.09.69-.17 1.38-.23 2.08l-.09 1.12c-.03.48.05.91.14 1.38.12.65.88 1.19 1.53 1.16.71-.03 1.33-.47 1.53-1.16.06-.19.06-.2-.02-.03.13-.2.19-.41.2-.64.03-.24.04-.47.05-.71l.06-.96c.05-.72.11-1.44.17-2.16s.13-1.38.22-2.07c.02-.19.05-.37.07-.56-.04.28.02-.15.03-.21.06-.46.11-.91.15-1.38.06-.76-.63-1.41-1.33-1.5-.75-.1-1.47.36-1.68 1.1Zm5.8-.22c-.17 1.58-.45 3.3-.61 4.95-.08.81-.16 1.62-.23 2.43-.09 1-.32 2.05.2 2.97.63 1.13 2.14.96 2.81 0 .55-.79.4-1.95.43-2.88.03-.84.06-1.68.1-2.53.08-1.65.1-3.3.25-4.95.07-.77-.72-1.5-1.47-1.47-.87.04-1.38.65-1.47 1.47Zm4.72.2c.06 1.55.02 3.1.1 4.65.04.76.09 1.52.14 2.28.06.93.03 2.07.48 2.89.75 1.35 2.77.98 3.2-.42.24-.79 0-1.76-.1-2.56-.09-.76-.18-1.52-.25-2.28-.09-.85-.16-1.7-.27-2.55 0-.05-.07-.52-.04-.26-.02-.18-.05-.35-.07-.53q-.075-.615-.12-1.23c-.05-.8-.67-1.57-1.53-1.53-.8.04-1.56.67-1.53 1.53Zm-51.54-30.3c2.28.36 4.6.44 6.89.76 2.3.32 4.59.76 6.84 1.29.27.06.65.2.93.23.62.05.25.31.19-.09.03.19.07.38.11.57.11.58.22 1.16.33 1.73l.75 3.8c1.25 6.26 2.5 12.52 3.8 18.77.57 2.77 1.16 5.52 1.85 8.26.56 2.19 3.6 1.2 3.3-.91-.85-5.98-2.18-11.9-3.4-17.81-.67-3.25-1.34-6.5-2-9.75-.27-1.31-.53-2.62-.8-3.94-.32-1.55-.49-3.23-2.16-3.9-2.31-.93-5.17-1.15-7.62-1.47-2.81-.36-5.79-.75-8.62-.46-1.51.15-2.18 2.62-.39 2.9Z"/><path d="M93.64 142.96c.71-2.59 1.35-5.2 1.95-7.82.29-1.28.59-2.56.88-3.85.15-.67.31-1.34.46-2.01.12-.51.19-1.14.42-1.49l-.7.7c.37-.27 1.17-.33 1.84-.42 1-.13 2.01-.25 3.02-.35 2.02-.21 4.1-.2 6.09-.55.99-.18 1.6-1.33 1.47-2.25-.16-1.03-.97-1.72-2.01-1.77-1.22-.07-2.49.14-3.7.26s-2.46.27-3.69.43-2.56.25-3.77.56c-.69.18-1.45.57-1.82 1.21-.3.52-.37 1.07-.46 1.64-.8 5-1.97 9.93-2.72 14.94-.11.76.19 1.53.99 1.75.74.2 1.55-.25 1.75-.99Zm-9.58-7.11-.21.12q-.36.21-.57.57c-.14.25-.22.51-.22.8s.07.55.22.8q.21.36.57.57l.21.12c.27.16.56.23.87.24q.465 0 .87-.24c.26-.15.47-.36.62-.62.16-.27.23-.56.24-.87q0-.465-.24-.87c-.15-.26-.36-.47-.62-.62-.27-.16-.56-.23-.87-.24q-.465 0-.87.24m.77 11.07-.21.12q-.36.21-.57.57c-.14.25-.22.51-.22.8s.07.55.22.8q.21.36.57.57l.21.12c.27.16.56.23.87.24q.465 0 .87-.24c.26-.15.47-.36.62-.62.16-.27.23-.56.24-.87q0-.465-.24-.87c-.15-.26-.36-.47-.62-.62-.27-.16-.56-.23-.87-.24q-.465 0-.87.24m.76 11.06-.21.12q-.36.21-.57.57c-.14.25-.22.51-.22.8s.07.55.22.8q.21.36.57.57l.21.12c.27.16.56.23.87.24q.465 0 .87-.24c.26-.15.47-.36.62-.62.16-.27.23-.56.24-.87q0-.465-.24-.87c-.15-.26-.36-.47-.62-.62-.27-.16-.56-.23-.87-.24q-.465 0-.87.24"/></svg>