<?xml version="1.0" encoding="UTF-8"?><svg xmlns="http://www.w3.org/2000/svg" viewBox="0 0 180 180"><path d="M62.89 59.44c-.11 4.97-.53 9.96-.72 14.93-.18 4.81-.54 9.7-.11 14.51.75 8.28 4.65 15.72 11.62 20.43 1.72 1.16 3.56 2.17 5.5 2.91s3.97 1.81 6.1 2.01c1.3.12 1.59-1.71.63-2.31-1.45-.92-3.16-1.39-4.63-2.31s-2.81-1.94-4.1-3.01c-2.61-2.17-5.06-4.65-6.87-7.53-4.46-7.1-3.62-15.66-3.77-23.69l-.15-7.72c-.05-2.74-.3-5.48-.31-8.21 0-2.04-3.13-2.04-3.17 0Z"/><path d="M63.62 64.85c-1.91-1.5-4.38-1.8-6.55-.66-1.85.98-3.12 2.82-3.94 4.69-1.91 4.32-2.81 10.14-.45 14.46 1.68 3.06 5.21 5.24 8.46 6.27.85.27 1.82-.25 2.15-1.05.37-.91 0-1.71-.74-2.27-2.39-1.82-5.68-2.72-6.74-5.86-.43-1.28-.52-2.63-.45-3.97.05-1.09.11-1.46.34-2.53s.51-2.08.91-3.08c.11-.28.33-.75.56-1.16.14-.25.3-.5.45-.74 0 0 .36-.49.19-.27.28-.36.61-.72.98-1-.25.19.34-.19.4-.23.37-.2-.13.01.24-.1.99-.3 1.56-.15 2.7.05 1.31.23 2.81-1.5 1.48-2.55Zm11.19 51.26c.28-2.48.33-4.99.35-7.48 0-.98-.87-1.92-1.88-1.88s-1.88.82-1.88 1.88c.02 2.49.07 5 .35 7.48.09.79.64 1.56 1.52 1.52s1.43-.67 1.52-1.52Zm-16.04 8.56c-2.63.65-5.3 1.1-7.92 1.77s-5.2 1.44-7.75 2.33c-4.73 1.66-9.66 3.68-13.79 6.58-4.4 3.09-6.85 7.5-8.85 12.39-1.38 3.39-2.29 6.72-2.94 10.32-.38 2.12-.74 4.25-1.15 6.37-.18.95-.36 1.9-.53 2.85s-.21 1.52-.36 2.21c-.47 2.09 2.52 3.58 3.6 1.52 2.99-5.74 2.72-12.61 4.9-18.64 1.56-4.31 3.37-8.98 6.91-12.06s8.02-4.85 12.13-6.56c2.71-1.13 5.49-2.11 8.26-3.07s5.54-1.98 8.37-2.75c2.09-.57 1.21-3.76-.89-3.24Z"/><path d="M60.13 76.68c.14.04.27.09.4.15l-.29-.12c.38.16.74.38 1.07.63l-.25-.19c.3.24.57.52.81.82l-.2-.26c.26.34.48.71.65 1.11l-.13-.32c.06.14.11.27.17.41l-.13-.32c.11.27.2.54.34.8.14.27.49.54.78.6s.58.05.85-.07c.25-.11.5-.29.63-.54l.13-.31c.06-.23.06-.47 0-.7-.05-.3-.19-.59-.33-.86-.09-.19-.2-.36-.32-.53-.28-.41-.6-.81-.97-1.14a6.6 6.6 0 0 0-2.58-1.49c-.61-.18-1.35.22-1.49.85-.15.66.2 1.28.85 1.49Zm53.81-17.24c-.01 4.64-.33 9.3-.42 13.94s.01 9.13-.27 13.67c-.24 3.76-.98 7.42-2.8 10.75-1.65 3.02-3.97 5.51-6.5 7.82-1.39 1.27-2.91 2.36-4.44 3.45-1.68 1.2-3.67 1.75-5.4 2.84-.96.61-.67 2.43.63 2.31 1.85-.17 3.52-1.02 5.24-1.69s3.48-1.43 5.11-2.43c3.36-2.05 6.19-4.75 8.42-7.99 5.24-7.64 4.75-16.91 4.42-25.76l-.31-8.21c-.11-2.91-.42-5.81-.48-8.71-.04-2.04-3.17-2.05-3.17 0Z"/><path d="M117.87 67.4c1.11-.2 1.66-.34 2.61-.07.39.11.06-.02.33.13.06.03.65.41.4.23.37.28.69.64.98 1s.99 1.65 1.2 2.17c.4.99.69 2.03.91 3.08s.28 1.44.34 2.53c.07 1.34-.03 2.69-.45 3.97-1.04 3.14-4.35 4.04-6.74 5.86-.72.55-1.14 1.37-.74 2.27.35.8 1.27 1.33 2.15 1.05 2.9-.92 5.87-2.72 7.73-5.17 1.79-2.36 2.29-5.46 2.07-8.36-.32-4.07-1.58-8.98-5.07-11.48-2.21-1.59-5.08-1.42-7.2.25-1.33 1.04.17 2.78 1.48 2.55Zm-9.63 48.71c.28-2.48.33-4.99.35-7.48 0-.98-.87-1.92-1.88-1.88s-1.88.82-1.88 1.88c.02 2.49.07 5 .35 7.48.09.79.64 1.56 1.52 1.52s1.43-.67 1.52-1.52Zm10.73 11.55c5.23 1.37 10.46 3.23 15.51 5.16 4.38 1.67 8.82 3.49 12.67 6.21 6.84 4.83 9.05 13.05 10.68 20.82.79 3.76 1.3 7.7 3.08 11.15 1.06 2.04 4.08.59 3.6-1.52-.18-.77-.17-1.08-.32-1.95s-.29-1.67-.45-2.5c-.37-1.94-.72-3.88-1.06-5.83-.65-3.64-1.42-7.09-2.76-10.54-1.87-4.8-4.22-9.15-8.32-12.4s-8.61-5.24-13.32-6.97c-2.93-1.07-5.9-2.02-8.92-2.79-3.14-.8-6.34-1.33-9.49-2.08-2.1-.5-2.99 2.69-.89 3.24Z"/><path d="M119.23 74.35c-.97.29-1.83.81-2.58 1.49-.37.34-.69.73-.97 1.14-.12.17-.23.35-.32.53-.13.27-.28.56-.33.86-.05.35-.07.7.13 1.01.16.24.36.42.63.54.57.24 1.34.05 1.64-.54.13-.26.22-.53.34-.8l-.13.32c.06-.13.11-.27.17-.41l-.13.32c.17-.4.39-.77.65-1.11l-.2.26c.24-.3.5-.58.81-.82l-.25.19c.33-.25.69-.46 1.07-.63l-.29.12c.13-.06.27-.11.4-.15.3-.1.56-.28.72-.56.15-.26.22-.64.12-.93-.2-.61-.84-1.04-1.49-.85Zm-49.9-16.53c.67 3.04-.73 6.12-1.2 9.2-.38 2.52-.13 5.09.12 7.62.25 2.54.5 5.09.76 7.63.12 1.26.28 2.6 1.1 3.56 1.07 1.25 2.92 1.47 4.56 1.29 2.44-.28 4.85-1.25 7.28-.86 3.31.53 6.16 3.54 9.46 2.96-.62 2.08.56 4.87-1.16 6.19-.45.35-1.03.5-1.59.57-2.13.29-4.37-.34-6.03-1.71-.56-.47-1.15-1.05-1.88-1.01-.99.04-1.55 1.19-1.58 2.18-.08 2.42 1.72 4.6 3.9 5.66s4.69 1.19 7.11 1.19c.24 3.58.47 7.16.71 10.74.02.35.03.73-.19 1-.2.24 1.46.3 1.15.35-7.56 1.05-18.63-1.27-24.5-6.41-6.34-5.55-3.99-14.55-3.27-21.89.77-7.86 2.15-16.27-.46-23.94-.1-.3-.21-.61-.13-.92.07-.26.26-.48.45-.67a12.45 12.45 0 0 1 4.21-2.72"/><path d="M67.9 57.82c.3 2.42-.59 4.64-1.17 6.95-.62 2.47-.77 4.95-.59 7.49s.48 5.09.73 7.63c.21 2.11.15 4.58 1.27 6.46 2.69 4.49 8 2.03 12 1.79 2.15-.13 3.84.92 5.71 1.82 2.01.97 3.87 1.5 6.1 1.19l-2.48-2.48c-.38 1.54 0 3.05-.26 4.57-.18 1.1-1.57.91-2.44.77s-1.61-.45-2.31-.91-1.26-1.1-2-1.48c-1.61-.82-3.45-.36-4.5 1.09-2.01 2.77-.39 6.71 1.95 8.73 2.88 2.48 6.62 2.84 10.27 2.88l-2.05-2.05c.12 2.03.25 4.07.37 6.1l.18 2.93c.03.48.1.98.09 1.46-.05.25-.02.31.11.18-.11.18-.19.36-.22.56-.14.7-.05 1.55.54 2.05.42.35.85.57 1.37.7.27.07.58.08.84.12.43.07-.21-.04-.08 0v-4.06c.5-.16-.09.01-.26.03-.27.03-.53.05-.8.07q-.66.045-1.32.06c-1.16.03-2.32 0-3.47-.09-2.19-.17-4.36-.55-6.48-1.11-3.95-1.04-8.22-2.68-11.06-5.74S65 97.97 65.28 93.99c.33-4.76.97-9.51 1.41-14.26.3-3.19.52-6.39.35-9.6-.08-1.53-.25-3.06-.52-4.58-.13-.74-.29-1.49-.48-2.22-.16-.61-.63-1.54-.59-2.15l-.27.99c.57-1.14 2.37-2.02 3.5-2.47.99-.4 1.69-1.32 1.38-2.43-.26-.94-1.44-1.78-2.43-1.38-2.48 1.01-6.79 3.14-5.99 6.43.38 1.59.92 3.09 1.18 4.71s.35 3.27.37 4.91c.07 6.1-.85 12.22-1.66 18.25-.68 5.09-1.17 10.48 1.19 15.24s7.65 7.51 12.49 9.16c2.86.98 5.84 1.57 8.84 1.9 1.4.15 2.82.23 4.23.22 1.28-.01 2.95.06 4.17-.34 2.01-.66 1.99-3.4 0-4.06-.27-.09-.58-.08-.86-.13.48.08-.19-.06-.28-.09l.93.54-.06-.05c.18.68.36 1.36.54 2.05-.1.31-.05.2.17-.36l.12-.9c.02-.44-.05-.89-.08-1.33-.07-1.06-.14-2.12-.22-3.17-.16-2.2-.31-4.39-.47-6.59-.08-1.11-.88-2.05-2.05-2.05-2.74 0-6.03-.13-7.97-2.36-.31-.36-.59-.78-.76-1.23-.19-.49-.04-.95-.14-1.39-.08-.37.23-.05-.06-.06-.98-.03-.3.32-.05.52.62.48 1.23.93 1.94 1.27 2.43 1.16 6.29 1.77 8.52-.15s1.07-4.6 1.69-7.07c.41-1.63-.99-2.68-2.48-2.48s-3.24-.88-4.56-1.51c-1.83-.88-3.67-1.59-5.73-1.54s-4.16.83-6.27 1c-1.65.13-2.89-.19-3.25-1.94-.42-2.03-.46-4.19-.66-6.25-.22-2.22-.5-4.45-.56-6.68-.11-4.35 1.98-8.59.87-12.91-.39-1.52-3.02-1.26-2.82.38Z"/><path d="M113.13 57.82c-.67 3.04.73 6.12 1.2 9.2.38 2.52.13 5.09-.12 7.62-.25 2.54-.5 5.09-.76 7.63-.12 1.26-.28 2.6-1.1 3.56-1.07 1.25-2.92 1.47-4.56 1.29-2.44-.28-4.85-1.25-7.28-.86-3.31.53-6.16 3.54-9.46 2.96.62 2.08-.56 4.87 1.16 6.19.45.35 1.03.5 1.59.57 2.13.29 4.37-.34 6.03-1.71.56-.47 1.15-1.05 1.88-1.01.99.04 1.55 1.19 1.58 2.18.08 2.42-1.72 4.6-3.9 5.66-2.18 1.05-4.69 1.19-7.11 1.19-.24 3.58-.47 7.16-.71 10.74-.02.35-4.78-2.51-5.12-2.56-11.07-1.65 3.85 3.86 4.16 3.9 7.56 1.05 18.63-1.27 24.5-6.41 6.34-5.55 3.99-14.55 3.27-21.89-.77-7.86-2.15-16.27.46-23.94.1-.3.21-.61.13-.92-.07-.26-.26-.48-.45-.67a12.45 12.45 0 0 0-4.21-2.72"/><path d="M111.74 57.44c-1.09 4.33 1.03 8.56.88 12.91-.07 2.23-.35 4.46-.57 6.68-.21 2.06-.25 4.22-.66 6.25-.36 1.74-1.61 2.08-3.25 1.95-2.11-.17-4.13-.95-6.27-.99-1.99-.04-3.77.63-5.54 1.46-1.39.66-3.13 1.82-4.75 1.58-1.49-.21-2.86.85-2.46 2.46.6 2.47-.58 5.12 1.67 7.08 2.23 1.95 6.11 1.4 8.51.11.68-.37 1.3-.82 1.91-1.29.23-.18.44-.28.37-.41a.85.85 0 0 1-.45-.25l.06.07s-.02 1.27-.07 1.41c-.18.53-.48.99-.85 1.4-2.02 2.19-5.22 2.29-7.99 2.32-1.18.01-2.01.95-2.08 2.08-.22 3.58-.44 7.16-.69 10.74l.28-1.04v.02c.4-.32.81-.63 1.22-.95h-.04 1.1c-.39-.06.02.04-.06 0-.26-.12-.52-.26-.78-.39-.64-.34-1.27-.7-1.91-1.05-1.26-.7-2.23-1.17-3.68-1.36-1.14-.15-2.45-.38-3.58-.05-1.51.43-2.27 2.12-1.43 3.49 1.03 1.68 3.69 2.46 5.39 3.17 1.57.66 3.19 1.45 4.89 1.67 4.12.52 8.38.1 12.42-.81s8.31-2.49 11.73-5.01c3.64-2.69 5.7-6.33 6.26-10.81.51-4.06-.23-8.14-.76-12.17-.75-5.79-1.55-11.74-1.23-17.59.08-1.49.25-2.96.55-4.42.29-1.37 1.02-2.81 1.06-4.21.09-2.81-3.96-4.72-6.12-5.6-.99-.4-2.17.44-2.43 1.38-.31 1.13.39 2.03 1.38 2.43 1.13.45 2.93 1.33 3.5 2.47l-.27-.99c.06.88-.6 2.14-.8 3.03-.29 1.28-.48 2.57-.62 3.87-.27 2.5-.27 5.01-.13 7.52.25 4.61.77 9.23 1.31 13.82.43 3.66 1 7.57.19 11.22-.8 3.62-3.14 6.02-6.3 7.8-3.42 1.94-7.3 3.04-11.18 3.64-1.86.29-3.75.4-5.63.37-.88-.01-1.74-.08-2.61-.16-.53-.05.14.12-.34-.09-.64-.28-1.32-.48-1.97-.73-.45-.17-.89-.35-1.33-.53-.1-.04-.68-.28-.53-.22.1.04-.45-.2-.61-.27-.8-.36-1.56-.77-2.33-1.18-.39-.21-.09-.12 0 .03-.27-.41.13.25.2.4.37.85-.11 2.07-.95 2.45-.53.24-.12.07-.11.06-.26.2-.51.02-.25.03.14 0 .29-.01.43-.01.69 0 1.37.11 2.05.17.13.01.28.06.41.06.12 0-.51-.27-.21-.09.18.11.38.2.57.3 1.24.66 2.46 1.4 3.74 1.98.68.31 1.36.58 2.12.37 1.62-.45 1.54-2.12 1.62-3.48.19-3.09.41-6.18.63-9.27l-2.08 2.08c3.53 0 7.36-.37 10.13-2.78 2.34-2.04 3.96-5.87 2.08-8.71-.99-1.5-2.87-1.99-4.46-1.17-.68.35-1.2.94-1.83 1.37-.68.47-1.52.74-2.33.89-.85.16-2.44.41-2.62-.7-.25-1.53.13-3.03-.27-4.57-.64.85-1.29 1.69-1.93 2.54 4.33.56 7.45-3.55 11.73-3.05 3.91.45 9.15 2.48 11.64-1.98 1.1-1.97 1.01-4.59 1.22-6.77.23-2.38.51-4.76.68-7.15.18-2.52.03-5.03-.6-7.48-.6-2.31-1.47-4.54-1.16-6.96.21-1.62-2.43-1.92-2.82-.38Z"/><path d="M94.34 93.63h-.08c-.25-.08-.49-.08-.74-.01-.23.07-.44.18-.61.36l-.22.28c-.13.22-.19.45-.19.7 0 .19.03.37.12.53a1 1 0 0 0 .29.44c.17.17.38.29.61.36.25.07.49.07.74 0h.08q.165-.09.33-.15c.16-.09.29-.2.38-.35q.12-.135.18-.3c.09-.16.12-.34.12-.53l-.05-.36-.14-.33a1 1 0 0 0-.35-.38c-.13-.12-.29-.2-.46-.24Zm-6.92-21.79c-.09 2.06-.4 4.1-.45 6.17s-.1 4.23-.06 6.34c.04 1.92-.06 3.93 1.4 5.39 1.28 1.28 3.39 1.84 5.04.99s.87-3.5-.92-3.39c-.78.05-1.55.2-1.73-.74-.12-.66-.06-1.4-.07-2.07-.02-.86-.05-1.71-.07-2.57-.05-1.66-.06-3.31-.09-4.97s-.24-3.43-.21-5.14c.03-1.84-2.76-1.82-2.84 0ZM66.67 55.83c2.51 1.75 5.91 1.67 8.36-.2s3.81-5.43 3.35-8.75c1.8 2.49 4.6 4.08 7.42 3.9s5.55-2.28 6.51-5.31c.77 3.22 3.2 5.85 6.06 6.53s6.01-.59 7.86-3.18c.61 4.27 4.2 7.72 7.99 7.66.52 1.57 1.06 3.17 1.98 4.49s2.29 2.33 3.76 2.29c-.47-2.44 1.49-4.54 2.21-6.9.37-1.21.4-2.55.09-3.79-.47-1.85-2.17-3.54-3.74-2.82 1.17-3.44.38-7.64-1.94-10.22s-6.02-3.37-8.99-1.93c-.05-2.22-1.14-4.3-2.63-5.73-1.49-1.42-3.36-2.25-5.26-2.75-1.97-.52-4.06-.69-6-.05s-3.73 2.19-4.45 4.35c-.75-3.13-3.71-4.8-6.45-5.65-1.73-.53-3.53-.9-5.31-.63s-3.53 1.25-4.54 2.94-1.1 4.15.04 5.72c-3.35-1.8-7.66-.87-10.2 2.21-.44.54-.84 1.15-1.01 1.86-.16.7-.09 1.44.07 2.14.51 2.32 1.95 4.35 3.83 5.4-3.79-1.05-8.08 1.59-9.4 5.78-.21.68-.36 1.41-.22 2.11.39 1.94 2.53 2.51 4.26 2.69-.58.14-.91.9-.85 1.58s.4 1.27.73 1.83c.69 1.17 1.44 2.37 2.53 3.04s2.62.61 3.38-.51c1.02-1.51.36-4.3 1.88-5.1"/><path d="M65.85 57.23c3.17 2.24 7.43 2.09 10.48-.29 2.97-2.32 4.42-6.35 4.03-10.05l-3.7 1c2.27 3.1 5.76 5.36 9.74 4.86 3.76-.47 6.66-3.23 7.87-6.74h-3.93c.95 3.65 3.7 7.05 7.49 7.96 3.99.96 7.8-.94 10.17-4.12l-3.75-.49c.79 4.86 4.91 9.1 9.97 9.22l-2.03-1.54c1.21 3.78 3.16 8.22 7.76 8.36 1.54.05 2.25-1.4 2.06-2.71s.98-2.83 1.5-3.96c.78-1.69 1.24-3.44 1.04-5.32-.34-3.14-2.97-7.06-6.63-5.77l2.69 2.69c1.38-4.18.49-9.08-2.47-12.38-2.98-3.32-7.73-4.09-11.71-2.29l3.39 1.94c-.28-5.58-4.55-9.42-9.75-10.72s-11.01.42-13.03 5.94h4.38c-1.46-5.36-8.05-8.37-13.28-8.01-2.9.2-5.65 1.58-7.16 4.13-1.42 2.39-1.5 5.66.04 8.01l3.1-3.1c-4.28-2.17-9.65-1.27-12.82 2.42-1.84 2.13-2.3 4.61-1.38 7.29.83 2.42 2.4 4.49 4.61 5.81l1.74-4.14c-4.44-1.11-9.04 1.23-11.24 5.17-1.18 2.11-1.89 4.84-.52 7.02 1.25 2 3.62 2.57 5.8 2.83-.38-1.4-.76-2.8-1.14-4.21-2.46 1.09-2.18 4.19-1.13 6.15s2.55 4.09 4.8 4.72c2.11.59 4.34-.27 5.38-2.22.42-.8.57-1.66.7-2.54.06-.39.13-.78.19-1.17.05-.29.24-.43-.03-.26 2.37-1.52.2-5.29-2.22-3.79-1.03.64-1.65 1.58-1.98 2.74-.16.56-.13 2.6-.58 2.9-.3.2-.82-.36-1.03-.6-.41-.46-.72-1.01-1.04-1.54-.11-.19-.3-.76-.49-.87l-.05-.2c.02.22-.06.41-.25.57.9-.39 1.28-1.67 1.04-2.55-.28-1.03-1.18-1.54-2.18-1.66-.47-.06-1.7-.21-1.99-.72-.47-.82.71-2.61 1.18-3.22 1.29-1.67 3.47-2.72 5.57-2.2 2.47.62 3.98-2.8 1.74-4.14-1.13-.67-1.97-1.69-2.46-2.92-.6-1.49-.48-2.49.66-3.61 1.79-1.75 4.56-2.32 6.83-1.17 1.89.96 4.43-1.08 3.1-3.1-.75-1.14-.67-2.67.17-3.76 1.04-1.35 2.76-1.69 4.37-1.55 2.84.25 6.73 1.61 7.56 4.67.62 2.29 3.64 2.01 4.38 0 1.2-3.26 4.98-3.44 7.84-2.66s5.87 2.87 6.05 6.23c.1 1.81 1.81 2.66 3.39 1.94 2.27-1.03 5.03-.07 6.51 1.84 1.68 2.17 1.97 5.22 1.18 7.78-.46 1.5 1.12 3.29 2.69 2.69.35-.13.3-.04.04-.14.13.05.27.12.38.23.28.32.47.62.61 1.02.37 1.1.19 2.35-.23 3.4-.46 1.15-1.12 2.21-1.58 3.37-.53 1.35-.63 2.66-.42 4.08.69-.9 1.38-1.81 2.06-2.71-2.22-.06-3.14-3.54-3.71-5.2-.31-.88-1.06-1.54-2.03-1.54-3.35 0-5.52-3.07-6.01-6.11-.32-1.94-2.82-1.73-3.75-.49-1.32 1.78-3.7 2.81-5.87 2.16s-3.74-2.82-4.31-5.02c-.53-2.04-3.3-1.83-3.93 0-.67 1.95-2.39 3.57-4.48 3.82-2.22.27-4.46-1.17-5.77-2.86-.55-.71-1.32-1.17-2.24-.91-.77.21-1.57 1.07-1.46 1.92.32 2.51-.25 5.17-2.13 6.97s-4.64 1.87-6.77.57c-1.81-1.11-3.32 1.62-1.64 2.81Z"/><path d="M75.87 67.73c.2-.21.61-.43.99-.6-.3.14.19-.07.21-.08.49-.21.6-.25.32-.13.11-.04.22-.08.32-.12.39-.13.78-.24 1.18-.34q.345-.09.69-.15l.35-.06c-.25.03-.3.04-.14.02 2.08-.2 4.14-.07 6.22.15 1.22.13 2.4-1.17 2.34-2.34-.06-1.36-1.03-2.23-2.34-2.34-2.38-.21-4.81-.31-7.14.35-1.02.29-2.01.7-2.89 1.3-.47.32-.9.67-1.29 1.09-.34.37-.7.88-.94 1.15-.53.61-.6 1.52 0 2.12.56.56 1.56.59 2.12 0Zm32.81-2.57c-.29-.45-.51-1.1-.85-1.61-.39-.59-.83-1.14-1.32-1.66-.96-1-2.15-1.78-3.41-2.33-1.43-.63-2.86-1.01-4.43-1.08s-3.56.12-4.66 1.43c-.49.59-.76 1.27-.54 2.05.18.66.77 1.34 1.47 1.47.86.16 1.58.14 2.43-.03.13-.03.26-.04.38-.07.35-.07-.42.02-.07.01.26 0 .52-.04.78-.04.3 0 .59.02.88.03.28.01.15 0-.05-.02.13.01.26.04.39.06.55.09 1.1.21 1.64.38.13.04.25.08.37.13.04.01.43.16.19.06s.14.06.18.08c.12.06.24.11.35.17.49.25.96.52 1.43.8.44.26.86.55 1.26.85-.19-.14.1.08.16.13.13.11.26.21.4.32.1.08.27.24.4.29.21.08-.23-.33.06.05.48.64 1.28.96 2.02.53.67-.39.96-1.34.53-2.02ZM82.52 75.6l-.13.03-.37.16c-.18.1-.33.23-.44.4-.1.1-.16.21-.2.34-.1.19-.14.39-.13.6l.06.42.16.37c.1.18.23.33.4.44.15.14.33.23.53.28l.13.03c.28.08.56.08.85 0 .27-.08.5-.21.7-.41l.25-.32c.14-.25.22-.52.22-.8 0-.22-.04-.42-.14-.61q-.09-.3-.33-.51c-.2-.2-.43-.33-.7-.41-.28-.08-.56-.08-.85 0Zm16.18 0-.13.03-.37.16c-.18.1-.33.23-.44.4-.1.1-.16.21-.2.34-.1.19-.14.39-.13.6l.06.42.16.37c.1.18.23.33.4.44.15.14.33.23.53.28l.13.03c.28.08.56.08.85 0 .27-.08.5-.21.7-.41l.25-.32c.14-.25.22-.52.22-.8 0-.22-.04-.42-.14-.61q-.09-.3-.33-.51c-.2-.2-.43-.33-.7-.41-.28-.08-.56-.08-.85 0Zm-28.25 39.54c3.26 5.08 7.26 9.54 11.63 13.69 2.15 2.04 4.4 3.97 6.72 5.81 1.17.92 2.35 1.83 3.55 2.71 1.33.97 2.62 2.18 4.3 2.34s2.33-1.77 1.71-2.99c-.66-1.3-2.3-2.05-3.45-2.88s-2.26-1.66-3.36-2.53c-2.27-1.79-4.47-3.68-6.6-5.63-4.26-3.89-8.19-8.14-12.13-12.35-1.16-1.24-3.3.38-2.37 1.83"/><path d="M107.93 113.2c-1.63 1.53-2.91 3.4-4.44 5.04s-3.21 3.11-4.96 4.49-3.43 2.49-5.19 3.65c-.92.61-1.85 1.2-2.78 1.79-1.12.71-2.48 1.34-2.79 2.76-.21.98.29 2.09 1.33 2.34 1.49.36 2.55-.45 3.74-1.2.98-.62 1.95-1.24 2.91-1.88 1.98-1.32 3.91-2.74 5.75-4.25 3.71-3.04 6.62-6.62 8.94-10.8.89-1.6-1.18-3.19-2.52-1.94Zm-45.62 15.83c-.5-1.71-.4-3.81-.16-5.57.22-1.67.74-3.35 1.52-4.84.7-1.34 1.57-2.58 2.63-3.66.51-.52 1.05-1.02 1.63-1.46.82-.6 1.96-1.01 2.38-1.99.46-1.08.24-2.84-1.25-3.06-1.4-.21-2.33.36-3.42 1.15-.86.63-1.69 1.31-2.44 2.07-1.39 1.41-2.57 3.06-3.39 4.87-.96 2.1-1.49 4.28-1.6 6.59s.5 4.47 1.2 6.7c.58 1.83 3.43 1.07 2.89-.8Z"/><path d="M118.52 132.95c2.37-5 2.12-11.4.44-16.59-.82-2.54-2.07-4.92-3.85-6.93-.86-.97-1.93-2.12-3.25-2.37-2.04-.39-3.38 1.37-3.04 3.24.16.87 1.13 1.5 1.97 1.5.95 0 1.64-.65 1.97-1.5l.09-.24-.97 1.26v.04h-1.18c.45.14 1.15 1.08 1.49 1.47.55.63 1 1.33 1.41 2.05.88 1.56 1.44 3.24 1.86 4.97.91 3.73 1.27 8.13-.02 11.8-.62 1.78 2.25 3.02 3.07 1.29ZM35.67 153.7c-.18 3.16-.38 6.32-.57 9.49-.1 1.58-.14 3.16-.19 4.74-.03.82-.13 1.68.26 2.43.5.96 1.43 1.35 2.49 1.14.8-.16 1.37-1.02 1.37-1.8v-.06c0-.62-.34-1.21-.87-1.52l-.05-.03.67.67c-.05-.07-.09-.14-.13-.22.14.4.21.46.19.18.11-.23.02-.69.02-.95l.02-2.06c.02-1.32.02-2.63 0-3.95-.04-2.69-.05-5.38-.07-8.06-.01-2.03-3.03-2.01-3.14 0m104.39-.62c-.2 2.83-.36 5.65-.4 8.48-.04 2.86-.2 5.85.22 8.69l1.96-2.58c-.3 0-.58.02-.87.06-1.76.23-2.34 2.17-.88 3.26.24.18.47.32.73.47 1.38.84 2.98-.26 3.06-1.76.08-1.39-.09-2.84-.16-4.24-.06-1.36-.14-2.72-.2-4.08-.11-2.77-.26-5.54-.36-8.32-.07-2.02-2.97-1.99-3.11 0Zm-63.16-9.86c-2.7 2.31.72 6.53 3.63 4.39 1.4-1.03 1.75-3.33.22-4.42s-3.52.05-3.93 1.7c-.46 1.87 1.09 2.78 1.89 4.18.49.87.35 1.19-.06 2.03-.44.9-.88 1.8-1.31 2.71-.76 1.61-1.47 3.46-.9 5.26s1.98 2.49 3.56 3.14c.62.26 1.08.43 1.27 1.1s.1 1.42.09 2.1c-.04 1.71-.14 3.88 1.24 5.13 1 .9 3.12.38 2.95-1.22-.11-1.05-.41-1.99-.41-3.05 0-1.12.05-2.23-.14-3.35s-.69-2.2-1.51-2.99-2.01-.99-2.92-1.67c-.77-.57-.14-1.71.19-2.45.58-1.33 1.28-2.62 1.83-3.97s.41-2.67-.2-4a8 8 0 0 0-1.1-1.74c-.16-.19-.32-.36-.49-.54-.11-.1-.2-.2-.28-.32-.32-.46-.6-.07-.85 1.16l-1.27-.53c.41-.87.68-1.11.8-.72.05.1.03.2-.05.31 1.46-1.47-.71-3.56-2.24-2.24Zm27.39.93c.11-.04.92-.17.96-.24-.09-.75-.25-.96-.49-.65-.17.11-.34.2-.52.28-1.38.54-1.93 2.52-.44 3.35 1.59.89 2.7 2.29 2.29 4.21-.21.97-.85 1.63-1.39 2.42-.59.87-.9 1.92-.81 2.97.08.99.47 1.89.91 2.77.35.7.9 1.44 1.01 2.23.25 1.83-2.42 2.7-2.83 4.32-.27 1.07.52 2.16 1.65 2.17 2.43 0 4.77-3.25 5.11-5.45.2-1.29-.12-2.48-.66-3.65-.35-.77-1.23-1.8-1.24-2.68s1.14-1.88 1.51-2.71c.55-1.24.75-2.58.59-3.93a7.38 7.38 0 0 0-4.73-6.03c.15 1.12.29 2.24.44 3.35 1.7-.98 3.38-2.62 2.41-4.75-.84-1.86-3-1.9-4.68-1.26-2 .77-1.19 3.98.9 3.27ZM64.71 28.27c6.82-6.7 15.49-11.37 24.76-13.66 4.61-1.14 9.35-1.64 14.09-1.47s10.45.65 14.38 3.53c.81.59 1.56 1.36 1.85 2.34.42 1.4-.04 2.95-.19 4.36-.11 1-.08 1.99-.08 3 0 1.11-.3 2.05-.7 3.12l3.19-1.3a9.7 9.7 0 0 0-3.51-1.38c-2.77-.48-3.79 3.2-1.16 4.2 5.43 2.07 7.39 8.21 7.37 13.59-.01 3.06-.49 6.16-1.32 9.11-.75 2.67-1.81 5.5-3.63 7.63-1.52 1.78 1.02 4.38 2.6 2.6 2.33-2.63 3.78-5.87 4.86-9.17 1.12-3.46 1.85-7.14 1.78-10.79s-.88-7.18-2.51-10.29c-1.72-3.28-4.55-5.57-7.99-6.87-.39 1.4-.77 2.8-1.16 4.2.94.16 1.68.42 2.48.93 1.27.81 2.72-.04 3.19-1.3.81-2.16.73-4.12.84-6.36.14-2.93.93-5.7-.81-8.37-3.15-4.85-10.04-6.13-15.35-6.67-10.49-1.08-21.4 1.12-30.72 6a53.8 53.8 0 0 0-14.35 10.94c-1.3 1.39.73 3.44 2.1 2.1Zm-7.93 1.82c-3.09 3.16-4.66 7.73-3.56 12.09.58 2.31 2.03 4.16 3.58 5.91.81.92 1.65 1.81 2.6 2.59 1.05.88 2.18 1.8 3.59 1.89 1.72.11 2.2-1.99 1.29-3.11-.61-.74-1.64-1.13-2.38-1.75s-1.4-1.28-2.04-1.97c-1.22-1.3-2.48-2.67-3.03-4.4-.97-3.09.01-6.71 2.02-9.18 1.16-1.43-.72-3.44-2.07-2.07"/><path d="M88.21 20.69c5.78.17 11.72 1.41 17.28 2.91 2.38.64 5 1.24 7.07 2.64s3.36 4.2 6.23 4.33c1.78.08 2.54-2.19 1.4-3.39-.53-.56-1.18-.77-1.77-1.22-.44-.33-.8-.78-1.18-1.18-.92-.96-1.91-1.83-3.07-2.49-2.4-1.36-5.18-2-7.85-2.61-2.9-.66-5.83-1.14-8.78-1.47-3.12-.35-6.2-.35-9.33-.45-1.88-.06-1.88 2.87 0 2.92Z"/></svg>