<?xml version="1.0" encoding="UTF-8"?><svg xmlns="http://www.w3.org/2000/svg" viewBox="0 0 180 180"><path d="M62.68 65.33c-.08 3.44-.36 6.88-.45 10.33-.12 4.4-.48 8.82-.13 13.21.66 8.27 4.67 15.75 11.55 20.5 1.7 1.17 3.59 2.18 5.52 2.92s4.04 1.79 6.12 1.93c1.31.09 1.58-1.68.63-2.31-1.43-.95-3.16-1.39-4.59-2.37s-2.79-1.92-4.08-3.01c-2.6-2.2-5.1-4.58-6.91-7.49-4.3-6.86-3.66-14.95-3.93-22.72-.13-3.66-.51-7.34-.53-10.99 0-2.04-3.13-2.04-3.17 0Z"/><path d="M63.62 64.85c-1.91-1.5-4.38-1.8-6.55-.66-1.85.98-3.12 2.82-3.94 4.69-1.91 4.32-2.81 10.14-.45 14.46 1.68 3.06 5.21 5.24 8.46 6.27.85.27 1.82-.25 2.15-1.05.37-.91 0-1.71-.74-2.27-2.39-1.82-5.68-2.72-6.74-5.86-.43-1.28-.52-2.63-.45-3.97.05-1.09.11-1.46.34-2.53s.51-2.08.91-3.08c.11-.28.33-.75.56-1.16.14-.25.3-.5.45-.74 0 0 .36-.49.19-.27.28-.36.61-.72.98-1-.25.19.34-.19.4-.23.37-.2-.13.01.24-.1.99-.3 1.56-.15 2.7.05 1.31.23 2.81-1.5 1.48-2.55Zm14.71 59.36c.28-4.98.33-9.97.35-14.96.01-2.41-3.76-2.42-3.75 0 .02 4.99.07 9.98.35 14.96.11 1.96 2.94 1.96 3.05 0m-22.18 2.29c-2.59.62-5.2 1.07-7.77 1.77-2.42.66-4.77 1.47-7.14 2.31-4.43 1.57-8.97 3.32-12.39 6.67-3.31 3.24-5.22 7.5-6.88 11.74-1.22 3.11-1.96 6.26-2.54 9.55-.37 2.06-.71 4.13-1.11 6.19-.16.85-.32 1.69-.47 2.54-.17.92-.21 1.57-.35 2.21-.45 2.09 2.5 3.58 3.6 1.52 1.47-2.75 1.99-5.81 2.62-8.84.65-3.11 1.12-6.33 2.12-9.35 1.22-3.65 2.8-7.49 5.15-10.57 2.6-3.41 6.48-5.15 10.34-6.74 5.12-2.1 10.36-4.35 15.72-5.76 2.09-.55 1.21-3.74-.89-3.24Z"/><path d="M60.13 76.68c.14.04.27.09.4.15l-.29-.12c.38.16.74.38 1.07.63l-.25-.19c.3.24.57.52.81.82l-.2-.26c.26.34.48.71.65 1.11l-.13-.32c.06.14.11.27.17.41l-.13-.32c.11.27.2.54.34.8.14.27.49.54.78.6s.58.05.85-.07c.25-.11.5-.29.63-.54l.13-.31c.06-.23.06-.47 0-.7-.05-.3-.19-.59-.33-.86-.09-.19-.2-.36-.32-.53-.28-.41-.6-.81-.97-1.14a6.6 6.6 0 0 0-2.58-1.49c-.61-.18-1.35.22-1.49.85-.15.66.2 1.28.85 1.49Zm53.81-17.24c-.01 4.64-.33 9.3-.42 13.94s.01 9.13-.27 13.67c-.24 3.76-.98 7.42-2.8 10.75-1.65 3.02-3.97 5.51-6.5 7.82-1.39 1.27-2.91 2.36-4.44 3.45-1.68 1.2-3.67 1.75-5.4 2.84-.96.61-.67 2.43.63 2.31 1.85-.17 3.52-1.02 5.24-1.69s3.48-1.43 5.11-2.43c3.36-2.05 6.19-4.75 8.42-7.99 5.24-7.64 4.75-16.91 4.42-25.76l-.31-8.21c-.11-2.91-.42-5.81-.48-8.71-.04-2.04-3.17-2.05-3.17 0Z"/><path d="M117.87 67.4c1.11-.2 1.66-.34 2.61-.07.39.11.06-.02.33.13.06.03.65.41.4.23.37.28.69.64.98 1s.99 1.65 1.2 2.17c.4.99.69 2.03.91 3.08s.28 1.44.34 2.53c.07 1.34-.03 2.69-.45 3.97-1.04 3.14-4.35 4.04-6.74 5.86-.72.55-1.14 1.37-.74 2.27.35.8 1.27 1.33 2.15 1.05 2.9-.92 5.87-2.72 7.73-5.17 1.79-2.36 2.29-5.46 2.07-8.36-.32-4.07-1.58-8.98-5.07-11.48-2.21-1.59-5.08-1.42-7.2.25-1.33 1.04.17 2.78 1.48 2.55Zm-12.63 56.19c.28-4.98.33-9.97.35-14.96.01-2.41-3.76-2.42-3.75 0 .02 4.99.07 9.98.35 14.96.11 1.96 2.94 1.96 3.05 0m21.97 6.75c4.26 1.14 8.53 3.05 12.42 5.1 3.59 1.9 7.2 4.02 9.6 7.39 2.12 2.97 3.73 6.43 4.91 9.88.94 2.78 1.37 5.75 1.97 8.62.69 3.27 1.17 6.69 2.8 9.66 1.12 2.04 4.03.6 3.6-1.52-.1-.5-.03-.12-.08-.44-.09-.63-.08-.72-.17-1.27-.12-.72-.25-1.44-.39-2.15-.33-1.69-.64-3.39-.93-5.09-.52-3.02-.99-6.13-1.96-9.04-1.25-3.76-2.95-7.6-5.27-10.83-2.7-3.76-6.24-6.43-10.35-8.51-2.41-1.22-4.92-2.29-7.5-3.12s-5.15-1.31-7.75-1.93c-2.1-.5-2.99 2.68-.89 3.24Z"/><path d="M119.23 74.35c-.97.29-1.83.81-2.58 1.49-.37.34-.69.73-.97 1.14-.12.17-.23.35-.32.53-.13.27-.28.56-.33.86-.05.35-.07.7.13 1.01.16.24.36.42.63.54.57.24 1.34.05 1.64-.54.13-.26.22-.53.34-.8l-.13.32c.06-.13.11-.27.17-.41l-.13.32c.17-.4.39-.77.65-1.11l-.2.26c.24-.3.5-.58.81-.82l-.25.19c.33-.25.69-.46 1.07-.63l-.29.12c.13-.06.27-.11.4-.15.3-.1.56-.28.72-.56.15-.26.22-.64.12-.93-.2-.61-.84-1.04-1.49-.85ZM57.95 85.8c-1.74.36-2.33 2.29-2.42 3.84-.04.74 0 1.54.23 2.24.29.91.81 1.61 1.58 2.17 1.08.78 2.7.95 3.93.46.86-.35 1.52-.87 2.05-1.63.46-.65.68-1.43.76-2.21s-.05-1.79-.51-2.49c-.28-.42-.59-.74-1.1-.87-.54-.14-1.12 0-1.51.4-.2.2-.35.47-.43.74-.09.34-.04.6.01.93.02.17.06.34.09.5l-.06-.45.09.67-.06-.46c.04.32.04.63 0 .95l.06-.46c-.05.29-.11.57-.22.84l.18-.42c-.1.24-.23.47-.4.68l.27-.35c-.14.17-.29.32-.46.45l.35-.27c-.16.12-.34.22-.52.29l.42-.18c-.21.08-.42.14-.65.17l.46-.06c-.25.03-.49.03-.74 0l.46.06c-.24-.04-.48-.1-.7-.19l.41.17q-.27-.12-.51-.3l.35.27a2.2 2.2 0 0 1-.37-.37l.27.35c-.11-.15-.2-.31-.28-.48l.17.41c-.13-.3-.2-.61-.24-.94l.06.46c-.07-.61-.1-1.23-.01-1.84l-.06.45c.05-.32.11-.62.23-.92l-.16.39c.07-.16.16-.31.25-.46.07-.11.24-.32-.07.05q.15-.18.27-.36c-.16.21-.2.25-.1.14.4-.46.58-1.17.22-1.72s-.96-.79-1.61-.65Zm58.36 2.17c-.52 1.09-.66 2.24-.27 3.4.38 1.16 1.1 2.13 2.1 2.83 1.19.83 2.95 1.08 4.09.04.55-.5.83-1.24 1.06-1.93.21-.63.32-1.29.39-1.96.08-.74-.01-1.46-.13-2.19-.13-.81-.29-1.68-.91-2.27-.42-.39-1.01-.52-1.54-.29s-.82.72-.87 1.29.18 1.07.28 1.6c.01.06.07.41.03.17s0 .11 0 .17c.01.25 0 .5 0 .76-.01.22-.02.43-.04.65 0 .05-.02.11-.02.16 0 0 .06-.33.02-.16-.03.12-.04.25-.07.37-.05.21-.1.42-.17.63-.03.1-.07.21-.1.31l-.06.15c-.07.2.13-.28.04-.08-.04.09-.08.18-.13.27-.02.03-.07.1-.08.13 0 0 .21-.25.1-.13s.14-.11.14-.1c0 0 .34-.11.18-.07-.17.04.22-.01.21-.01h-.19c-.15 0-.15-.09.15.03-.04-.02-.09-.02-.14-.03-.09-.02-.17-.05-.25-.08-.03-.01-.09-.02-.12-.04s.35.17.2.08c-.08-.05-.17-.08-.26-.13-.07-.04-.14-.08-.21-.13l-.1-.07c-.13-.08.17.13.16.12-.1-.14-.27-.25-.39-.37-.04-.05-.23-.28-.06-.06s0-.02-.04-.08c-.1-.15-.18-.31-.26-.47-.11-.22.12.35.02.03-.03-.11-.07-.21-.1-.32l-.06-.28c-.05-.25.04.38.01.05-.02-.19-.04-.38-.04-.58 0-.08.03-.21.01-.29 0 0-.07.32-.03.18.02-.07.03-.14.04-.2.15-.69-.15-1.39-.82-1.67-.6-.25-1.46-.06-1.77.58Zm-62.36 7.51c1.88 15.84-1.74 32.09 2.83 47.65 1.13 3.84 2.67 8.22 5.55 11.11 1.21 1.21 3.78-.01 3.07-1.79-1.32-3.28-3.1-6.29-4.17-9.68-1.03-3.3-1.69-6.71-2.09-10.14-.91-7.8-.55-15.67-.76-23.5-.12-4.71-.59-9.42-1.47-14.06-.31-1.65-3.16-1.3-2.96.4Zm19.8 15.39c.21 1.35.23 2.78.39 4.14.16 1.43.33 2.86.49 4.29.3 2.79.51 5.59.87 8.37.35 2.72.75 5.44 1.32 8.13.3 1.4.64 2.79 1.05 4.16.38 1.27.69 3.07 1.77 3.93.92.74 2.68.66 2.94-.78s-.39-2.64-.8-4c-.42-1.37-.77-2.76-1.09-4.15-.61-2.73-1.04-5.49-1.43-8.26-.38-2.7-.77-5.41-1.18-8.1-.22-1.42-.45-2.84-.75-4.25-.3-1.43-.8-2.75-1.18-4.14-.44-1.58-2.63-.88-2.4.66m-8.09 24.62c.7 3 1.38 5.98 2.25 8.94.39 1.33.74 2.7 1.34 3.96.63 1.35 1.62 2.31 3.13 2.49 1.36.16 1.97-1.76 1.08-2.61-.68-.65-1.09-1.14-1.39-1.94-.46-1.22-.84-2.46-1.23-3.7-.83-2.62-1.66-5.26-2.33-7.92-.46-1.85-3.28-1.06-2.85.79Zm37.19-22.86c.81 5.59-.6 11.27-1.53 16.76-.47 2.76-.88 5.54-.94 8.34-.03 1.4.03 2.79.2 4.18s.32 2.97 1.07 4.21c.92 1.52 3.36.9 3.36-.91 0-1.39-.5-2.74-.63-4.13s-.15-2.79-.09-4.19c.12-2.75.51-5.49.92-8.21.84-5.61 1.57-11.2.48-16.82-.36-1.88-3.1-1.05-2.83.78Zm21.46-17.77c1.22 8.21 1.6 16.56 1.26 24.85-.16 4.08-.53 8.16-1.11 12.2-.29 2.03-.64 4.06-1.03 6.08s-1.32 4.3-.99 6.34c.28 1.73 2.51 1.53 3.33.43.66-.88.79-2.09 1.03-3.15.24-1.08.47-2.16.68-3.25.39-2.02.73-4.04 1.02-6.08.6-4.25.97-8.53 1.1-12.82.26-8.54-.58-17.07-2.32-25.43-.41-1.96-3.24-1.09-2.95.81Zm-12.13 40.49a79 79 0 0 0-.34 5.09c-.03.82-.04 1.64-.04 2.45 0 .44 0 .88.02 1.32 0 .19.02.38.04.57.05.57.24.9.6 1.34.7.87 2.03.45 2.55-.33s.3-1.98.27-2.9c-.03-.85-.05-1.7-.05-2.55 0-1.67.05-3.33.15-5 .05-.84-.77-1.64-1.6-1.6-.94.04-1.51.71-1.6 1.6ZM68.32 65.03c5.8-.63 11.59-1.24 17.39-1.86 1.3-.14 2.93-.06 3.93-1.04 1.05-1.03.99-2.56 1.08-3.92.1-1.41.2-2.82.29-4.23.11-1.51.25-3-.06-4.5-.38-1.85-2.85-1.49-3.41 0-.63 1.71-.61 3.71-.75 5.51l-.21 2.62c-.04.47 0 1.71-.22 2l.75-.75c-.46.29-1.41.24-1.95.33-.82.13-1.65.25-2.47.38l-4.94.75-9.88 1.5c-1.81.27-1.4 3.42.44 3.22Zm25.99-15.72c.13 2.19.42 4.37.71 6.55.14 1.09.29 2.18.43 3.27s.26 2.34.62 3.43c.2.61.68 1.23 1.35 1.35 1.05.19 2.07-.24 2.38-1.35.2-.74-.14-1.51-.3-2.23-.28-1.26-.47-2.55-.68-3.83-.43-2.54-.84-5.09-1.45-7.6-.41-1.68-3.16-1.36-3.05.41Zm7.61 7.06c1.05.67 2.05 1.37 3.14 1.97s2.25 1.21 3.42 1.73 2.45 1.03 3.76 1.3 3.52.77 4.7-.13l-2.52-3.27c-.16.18-.34.38-.44.59-.49 1-.18 1.91.67 2.57.2.15.46.22.69.32.95.4 2.09-.35 2.45-1.2.4-.95.05-2.07-.85-2.6-.77-.45-1.54-.4-2.38-.43-.29-.01-.58-.03-.87-.07.44.05-.41-.07-.49-.09-1.16-.23-2.3-.57-3.41-.96s-2.26-.84-3.39-1.25-2.28-.66-3.5-.82c-.63-.09-1.25.1-1.51.74-.24.6-.03 1.25.52 1.6Z"/><path d="M58.91 64.7c-.36-5.03 1.21-10.4 3.5-14.85 2.31-4.48 5.71-8.71 10.32-10.97 2.11-1.03 4.45-1.48 6.78-1.37 1.33.06 2.6.36 3.87.74 1 .3 2.01.52 3.05.24s1.63-.94 2.33-1.64c2.15-2.16 5.44-2.58 8.35-2.59 3.48-.02 7.33.2 10.41 1.98 3.25 1.87 5.49 5.04 7.45 8.15 1.12 1.77 2.23 3.54 3.28 5.35 1.14 1.96 1.89 3.99 2.72 6.09.71 1.79 3.51 1.68 3.53-.48.04-4.19-2.6-8.29-4.69-11.76-1.94-3.22-4.11-6.51-6.96-9-3.27-2.86-7.07-4.14-11.35-4.56-3.63-.35-7.64-.46-11.11.83-1.75.65-3.37 1.6-4.67 2.95-.12.12-.26.25-.36.39-.2.29-.41.16.02.16-.41 0-.93-.27-1.32-.38-.76-.22-1.54-.38-2.32-.5-2.96-.44-6-.25-8.83.76-5.57 1.99-9.92 6.36-12.8 11.43-3.3 5.81-4.85 12.37-4.38 19.03.14 2.03 3.33 2.05 3.19 0Z"/><path d="M57.43 56.53a68.9 68.9 0 0 1-26.3 1.01c-2.48-.38-5.53-1.58-5.54-4.08 0-1.44 1.08-2.63 2.14-3.61 9.2-8.44 21.59-12.4 33.76-15.2 25.64-5.91 52.21-7.77 78.42-5.48 3.1.27 6.23.61 9.14 1.68 1.89.7 3.84 1.92 4.31 3.88.75 3.15-2.61 5.65-5.57 6.95a62.7 62.7 0 0 1-24.41 5.18c-.51 0-1.04 0-1.48-.26-.43-.25-.71-.7-.97-1.12l-3.51-5.82c-1.25-2.07-2.53-4.18-4.38-5.74-3.94-3.33-9.66-3.55-14.73-2.63s-9.99 2.81-15.14 3.1c-1.9.11-3.82 0-5.71.22-5.36.63-10.13 3.92-13.65 8.03-3.51 4.1-5.95 9-8.35 13.84"/><path d="M56.97 54.86c-4.86.99-9.81 1.4-14.77 1.37-2.53-.01-5.04-.17-7.55-.46-1.81-.21-3.83-.32-5.51-1.11-1.5-.71-1.51-1.45-.36-2.64 1.44-1.47 3.11-2.76 4.79-3.94 3.51-2.45 7.34-4.46 11.31-6.05 8.53-3.43 17.63-5.44 26.64-7.16 9.89-1.88 19.88-3.15 29.93-3.82s20.21-.73 30.3-.18c4.92.27 10.14.32 14.92 1.62 1.4.38 3.68.97 4.35 2.47.55 1.24-.66 2.41-1.56 3.1-1.66 1.27-3.73 2-5.67 2.71a63 63 0 0 1-6.99 2.12c-2.24.54-4.51.97-6.8 1.24-1.13.13-2.27.23-3.41.3-.61.04-1.22.06-1.82.08-.45.01-1.33.21-1.75.03.33.15-.26-.5-.35-.65-.34-.55-.68-1.1-1.01-1.65-.68-1.1-1.35-2.21-2.02-3.32-1.21-2-2.43-4.04-4.06-5.74-3.02-3.16-7.32-4.49-11.6-4.62-4.64-.15-9.11 1.18-13.56 2.31-2.3.58-4.63 1.14-7 1.31-2.51.18-5.01.02-7.49.47-8.89 1.6-15.07 9.2-19.19 16.68-1.09 1.99-1.99 4.09-2.94 6.15-1.04 2.25 2.19 4.24 3.39 1.98 4.11-7.77 8.74-17.27 17.81-20.1 2.39-.74 4.77-.69 7.25-.76 2.7-.08 5.37-.52 7.99-1.13 4.67-1.08 9.29-2.62 14.14-2.38 1.95.1 3.94.52 5.66 1.47 2 1.11 3.35 2.87 4.56 4.77 1.43 2.26 2.76 4.58 4.13 6.87.62 1.04 1.25 1.98 2.38 2.52 1.2.57 2.6.44 3.9.4 5.14-.16 10.3-.94 15.26-2.31 2.5-.69 4.94-1.54 7.33-2.53 2.06-.86 4.02-1.83 5.67-3.37s2.67-3.49 2.52-5.68c-.16-2.35-1.65-4.21-3.59-5.43-4.34-2.72-10.19-2.8-15.14-3.17-10.72-.81-21.49-.93-32.22-.36S83.32 28.1 72.7 30.02c-9.66 1.75-19.46 3.81-28.62 7.44-4.42 1.75-8.71 3.85-12.62 6.55-1.91 1.32-3.77 2.76-5.46 4.36-1.71 1.62-3.12 3.84-2.5 6.29 1.16 4.63 7.07 5.16 10.94 5.54 5.28.51 10.61.35 15.85-.44 2.57-.38 5.11-.91 7.62-1.56 2.18-.57 1.25-3.79-.92-3.34Zm6.25-28.55c2.17-5.26 6.6-9.44 11.54-12.24 5.69-3.22 11.38-4.71 17.82-3.53 7.93 1.45 16.63 7.33 20.25 14.54-16.23-4.58-33.96-5.04-49.61 1.23"/><path d="M64.4 27c2.94-6.81 10.42-11.81 17.34-13.83 7.46-2.18 14.91-.24 21.2 4.08 3.33 2.29 6.22 5.28 8.07 8.89l2.38-3.1c-16.51-4.62-34.6-5.17-50.73 1.23-1.06.42-1.81 1.42-1.48 2.6.28 1.01 1.54 1.9 2.6 1.48 15.48-6.14 32.62-5.67 48.48-1.24 1.85.52 3.21-1.5 2.38-3.1-3.77-7.32-11.4-12.76-19.23-14.94-8.82-2.46-17.93.14-25.05 5.67-3.87 3.01-6.59 6.7-8.47 11.21-.59 1.42 1.88 2.47 2.5 1.05ZM54.22 129.7c-.1 7.04 3.26 13.6 6.54 19.83 1.44 2.73 2.92 5.53 5.22 7.58 2.36 2.1 5.39 3.26 8.41 4.17 11.15 3.37 23.56 3.84 34.21-.9 10.64-4.74 19.03-15.36 19.07-27.01 0-1.62.16-3.69 1.71-4.16.73-.22 1.52.05 2.23.31 6.46 2.39 13.27 5.02 17.48 10.48 2.86 3.7 4.19 8.32 5.47 12.82l4.14 14.56c.33 1.17.62 2.56-.16 3.49-.74.89-2.07.9-3.23.84-44.36-2.32-88.81-3.96-133.2-2.28-.5.02-1.07.02-1.44-.33-.5-.47-.37-1.27-.2-1.94 2.7-10.44 6.36-21.43 14.9-28.01 4.98-3.83 11.12-5.76 17.12-7.61"/><path d="M52.76 129.7c-.27 5.17 1.21 10.05 3.26 14.74.99 2.27 2.14 4.47 3.27 6.67s2.31 4.27 3.89 6.13c3.12 3.67 7.8 5.37 12.31 6.64 4.75 1.34 9.73 2.09 14.67 2.19 9.39.19 18.98-2.19 26.51-7.97 6.63-5.09 11.68-12.49 12.86-20.88.27-1.92.31-3.88.48-5.8.05-.53.34-.19-.06-.16.45-.03 1.04.3 1.46.45 1.05.39 2.09.78 3.12 1.2 3.9 1.56 7.85 3.43 10.93 6.35 3.44 3.26 5.07 7.63 6.38 12.09 1.51 5.13 2.93 10.29 4.39 15.44.15.53.86 2.05.61 2.6-.08.18.16-.1.04 0-.11.09-.29.09-.43.1-.54.02-1.08-.01-1.62-.04l-8.44-.45c-5.63-.29-11.26-.57-16.89-.83-11.1-.51-22.2-.95-33.3-1.24-22.28-.6-44.58-.73-66.86-.06-1.33.04-2.65.08-3.98.13-.83.03-3.13.35-3.51.1l.82.82c-.02.29-.03.35-.05.17.05-.24.11-.48.18-.71.13-.5.26-1 .4-1.5q.405-1.5.84-3c.59-2 1.23-3.98 1.96-5.94 1.39-3.71 3.16-7.3 5.48-10.52 5.25-7.27 13.4-10.16 21.64-12.7 2.81-.87 1.61-5.29-1.22-4.41-5.74 1.77-11.66 3.6-16.64 7.08-4.44 3.1-7.9 7.32-10.46 12.08-2.58 4.8-4.34 10.01-5.79 15.25-.71 2.55-2.17 6.6 1.36 7.77 1.45.48 3.22.15 4.72.1 1.82-.06 3.64-.12 5.47-.17 27.34-.78 54.69-.32 82.02.63 13.75.48 27.5 1.1 41.24 1.79 2.9.15 6.44.15 7.3-3.34.35-1.4-.04-2.86-.42-4.2-.44-1.57-.89-3.13-1.34-4.7-1.75-6.13-3.12-12.58-5.79-18.39-2.39-5.17-6.47-8.96-11.46-11.6-2.49-1.32-5.11-2.37-7.74-3.36s-5.95-2.37-7.85.59c-1.33 2.08-.89 4.73-1.17 7.06-.28 2.36-.96 4.75-1.94 6.91-2.06 4.54-5.22 8.5-9.14 11.57-9.07 7.12-21.44 8.43-32.49 6.39-5.28-.97-11.75-2.19-15.51-6.37-1.96-2.18-3.26-4.95-4.63-7.52-1.48-2.77-2.95-5.59-4.04-8.55-1.03-2.8-1.8-5.69-1.94-8.67-.09-1.87-2.81-1.87-2.91 0Zm35.63-58.22c-.29 1.33-.34 2.76-.43 4.11s-.13 2.76-.14 4.15c0 1.33.01 2.66.07 3.99.06 1.44.09 2.9.41 4.3.47 2 3.38 1.46 3.47-.47.06-1.33-.13-2.66-.2-3.98s-.11-2.56-.13-3.84c-.01-1.28.01-2.56.04-3.84s.19-2.67.13-3.98c-.07-1.78-2.81-2.32-3.22-.44m-3.51 27.08c1.75 1 3.68 1.45 5.7 1.38.99-.03 1.99-.17 2.95-.42 1.04-.27 2.17-.67 2.95-1.42.5-.47.63-1.37.25-1.96-.41-.63-1.1-.9-1.83-.74-.31.07-.58.17-.87.3-.1.05-.2.09-.3.14.16-.07.14-.06-.04.01q-.54.195-1.08.36c-.42.12-.84.22-1.27.3-.07.01-.53.07-.2.03-.22.03-.43.04-.65.06-.81.05-1.63.02-2.44-.07.29.03-.17-.03-.22-.04-.21-.04-.43-.09-.64-.13-.43-.05-.54-.07-.33-.05l-.32-.06c-.21-.04-.42-.1-.63-.16-1.47-.41-2.38 1.71-1.04 2.47Zm-2.95-18.45.21-.11c.15-.07.28-.18.4-.3l.08-.08.23-.3.15-.35.05-.39c0-.2-.03-.4-.13-.57a.84.84 0 0 0-.19-.33.8.8 0 0 0-.27-.27.7.7 0 0 0-.33-.19c-.18-.09-.37-.14-.57-.13h-.11s-.01.02-.02.02c-.42.05-.41.02-.79.21-.02 0-.03.02-.05.03l-.21.11c-.18.1-.32.23-.43.4-.14.15-.23.32-.28.52-.06.2-.07.41-.03.61 0 .2.07.4.18.57l.24.31c.19.19.42.32.68.4l.41.05q.42 0 .78-.21m16.64 0 .21-.11c.15-.07.28-.18.4-.3l.08-.08.23-.3.15-.35.05-.39c0-.2-.03-.4-.13-.57a.84.84 0 0 0-.19-.33.8.8 0 0 0-.27-.27.7.7 0 0 0-.33-.19c-.18-.09-.37-.14-.57-.13h-.11s-.01.02-.02.02c-.42.05-.41.02-.79.21-.02 0-.03.02-.05.03l-.21.11c-.18.1-.32.23-.43.4-.14.15-.23.32-.28.52-.06.2-.07.41-.03.61 0 .2.07.4.18.57l.24.31c.19.19.42.32.68.4l.41.05q.42 0 .78-.21M76.08 70.05c.76.3 1.66.24 2.46.22.71-.01 1.42-.07 2.14-.14.8-.08 1.6-.18 2.4-.29s1.52-.21 2.25-.49 1.24-.9 1.12-1.72c-.1-.74-.76-1.39-1.54-1.36-1.56.06-3.11.51-4.66.74-.16.02-.33.05-.49.07-.19.03-.22.03-.07.01l-.25.03-1.31.18c-.11.02-.22.03-.32.05.09-.01.09-.01-.01 0-.26.03-.53.06-.79.11-.43.08-.82.2-1.21.4-.42.21-.64.76-.57 1.2.08.51.4.82.86 1Zm29.64-3.42c-2.71-1.33-5.53-2.31-8.58-2.32-.98 0-1.92.86-1.88 1.88s.82 1.9 1.88 1.88c.66-.02 1.33-.01 1.99.01.33.01.66.03.99.07.14.01.28.03.42.05.09.01.19.02.28.04-.19-.03-.23-.03-.1-.01.63.11 1.26.22 1.88.38.32.08.64.17.95.27.14.04.27.09.4.14.16.07.18.07.05.02.09.04.17.08.26.11.69.31 1.59.22 1.98-.52.34-.65.21-1.62-.52-1.98Z"/></svg>