<?xml version="1.0" encoding="UTF-8"?><svg xmlns="http://www.w3.org/2000/svg" viewBox="0 0 180 180"><path d="M62.88 61.16c-.1 4.52-.5 9.06-.68 13.58-.18 4.68-.55 9.45-.13 14.13.74 8.25 4.64 15.75 11.6 20.44 1.72 1.16 3.56 2.19 5.5 2.92s3.98 1.81 6.1 1.99c1.3.11 1.59-1.7.63-2.31-1.45-.93-3.17-1.38-4.62-2.33s-2.81-1.93-4.1-3.01c-2.61-2.17-5.08-4.63-6.89-7.52-4.4-7.02-3.65-15.46-3.81-23.41-.1-4.82-.43-9.66-.44-14.48 0-2.04-3.13-2.04-3.17 0Z"/><path d="M63.62 64.85c-1.91-1.5-4.38-1.8-6.55-.66-1.85.98-3.12 2.82-3.94 4.69-1.91 4.32-2.81 10.14-.45 14.46 1.68 3.06 5.21 5.24 8.46 6.27.85.27 1.82-.25 2.15-1.05.37-.91 0-1.71-.74-2.27-2.39-1.82-5.68-2.72-6.74-5.86-.43-1.28-.52-2.63-.45-3.97.05-1.09.11-1.46.34-2.53s.51-2.08.91-3.08c.11-.28.33-.75.56-1.16.14-.25.3-.5.45-.74 0 0 .36-.49.19-.27.28-.36.61-.72.98-1-.25.19.34-.19.4-.23.37-.2-.13.01.24-.1.99-.3 1.56-.15 2.7.05 1.31.23 2.81-1.5 1.48-2.55Zm12.19 54.62c.28-3.6.33-7.23.35-10.84 0-.98-.87-1.92-1.88-1.88s-1.88.82-1.88 1.88c.02 3.61.07 7.24.35 10.84.06.82.65 1.52 1.52 1.52s1.46-.7 1.52-1.52Zm-12.56 4.49c-4.63 1.1-9.3 1.85-13.87 3.23-4.86 1.47-9.74 3.09-14.43 5.04-2.73 1.13-5.32 2.48-7.55 4.47-2 1.79-3.58 4.07-4.83 6.43-2.13 4.03-3.78 8.38-4.65 12.86-.48 2.49-.89 5-1.36 7.5-.2 1.09-.4 2.18-.6 3.26s-.26 1.84-.48 2.73c-.51 2.09 2.57 3.59 3.6 1.52 1.76-3.53 2.3-7.48 3.1-11.31.84-4 1.8-7.78 3.46-11.54 1-2.25 2.14-4.53 3.75-6.4 1.74-2.02 3.85-3.43 6.25-4.57 4.45-2.12 9.28-3.69 13.93-5.34 4.78-1.69 9.65-3.36 14.55-4.64 2.09-.55 1.21-3.74-.89-3.24Z"/><path d="M60.13 76.68c.14.04.27.09.4.15l-.29-.12c.38.16.74.38 1.07.63l-.25-.19c.3.24.57.52.81.82l-.2-.26c.26.34.48.71.65 1.11l-.13-.32c.06.14.11.27.17.41l-.13-.32c.11.27.2.54.34.8.14.27.49.54.78.6s.58.05.85-.07c.25-.11.5-.29.63-.54l.13-.31c.06-.23.06-.47 0-.7-.05-.3-.19-.59-.33-.86-.09-.19-.2-.36-.32-.53-.28-.41-.6-.81-.97-1.14a6.6 6.6 0 0 0-2.58-1.49c-.61-.18-1.35.22-1.49.85-.15.66.2 1.28.85 1.49Zm53.81-17.24c-.01 4.64-.33 9.3-.42 13.94s.01 9.13-.27 13.67c-.24 3.76-.98 7.42-2.8 10.75-1.65 3.02-3.97 5.51-6.5 7.82-1.39 1.27-2.91 2.36-4.44 3.45-1.68 1.2-3.67 1.75-5.4 2.84-.96.61-.67 2.43.63 2.31 1.85-.17 3.52-1.02 5.24-1.69s3.48-1.43 5.11-2.43c3.36-2.05 6.19-4.75 8.42-7.99 5.24-7.64 4.75-16.91 4.42-25.76l-.31-8.21c-.11-2.91-.42-5.81-.48-8.71-.04-2.04-3.17-2.05-3.17 0Z"/><path d="M117.87 67.4c1.11-.2 1.66-.34 2.61-.07.39.11.06-.02.33.13.06.03.65.41.4.23.37.28.69.64.98 1s.99 1.65 1.2 2.17c.4.99.69 2.03.91 3.08s.28 1.44.34 2.53c.07 1.34-.03 2.69-.45 3.97-1.04 3.14-4.35 4.04-6.74 5.86-.72.55-1.14 1.37-.74 2.27.35.8 1.27 1.33 2.15 1.05 2.9-.92 5.87-2.72 7.73-5.17 1.79-2.36 2.29-5.46 2.07-8.36-.32-4.07-1.58-8.98-5.07-11.48-2.21-1.59-5.08-1.42-7.2.25-1.33 1.04.17 2.78 1.48 2.55Zm-10.63 50.84c.28-3.19.33-6.41.35-9.61 0-.98-.87-1.92-1.88-1.88s-1.88.82-1.88 1.88c.02 3.2.07 6.42.35 9.61.07.79.65 1.56 1.52 1.52s1.45-.67 1.52-1.52Zm8.05 8.81c4.54 1.18 9.03 2.74 13.47 4.25a251 251 0 0 1 13.82 5.11c2.37.96 4.77 2.15 6.65 3.92s3.15 3.79 4.26 6.01c1.88 3.77 3.08 7.64 3.97 11.74.94 4.33 1.45 8.91 3.44 12.92 1.02 2.05 4.12.59 3.6-1.52-.37-1.51-.61-3.51-.96-5.36-.42-2.18-.78-4.37-1.18-6.55-.82-4.45-2.16-8.54-4.06-12.66-2.39-5.16-5.92-9.29-11.12-11.75-4.88-2.31-10.17-3.98-15.32-5.58s-10.43-2.51-15.67-3.76c-2.1-.5-2.99 2.69-.89 3.24Z"/><path d="M119.23 74.35c-.97.29-1.83.81-2.58 1.49-.37.34-.69.73-.97 1.14-.12.17-.23.35-.32.53-.13.27-.28.56-.33.86-.05.35-.07.7.13 1.01.16.24.36.42.63.54.57.24 1.34.05 1.64-.54.13-.26.22-.53.34-.8l-.13.32c.06-.13.11-.27.17-.41l-.13.32c.17-.4.39-.77.65-1.11l-.2.26c.24-.3.5-.58.81-.82l-.25.19c.33-.25.69-.46 1.07-.63l-.29.12c.13-.06.27-.11.4-.15.3-.1.56-.28.72-.56.15-.26.22-.64.12-.93-.2-.61-.84-1.04-1.49-.85ZM91.39 86.82c-2.07-1.9-4.97-2.27-7.65-1.68-2.64.59-4.6 2.78-7.23 3.25-1.55.28-3 .45-3.52 2.22-.41 1.41-.04 3.06.6 4.35 1.29 2.59 3.99 4.29 6.8 4.69 1.68.24 3.37.06 5.01-.38 1.78-.48 3.37-1.44 5.11-2 1.42-.46 3.15.81 4.48 1.29 1.59.57 3.25.98 4.95 1.06 2.74.12 5.46-.71 7.24-2.83.71-.84 1.42-1.72 1.1-2.91-.39-1.41-1.85-1.57-2.61-2.62-.93-1.3-1.71-2.6-2.96-3.66a12.2 12.2 0 0 0-4.13-2.31c-3.09-1-6.34-.54-9.19.93-2.16 1.12-.26 4.32 1.9 3.25 2.49-1.23 5.44-1.23 7.84.19 1.22.72 2.15 1.72 2.92 2.9.4.6.8 1.22 1.31 1.73.26.26.57.51.89.7.17.1.87.62.68.28l-.25-.92c-.03-.41.34-.57-.05-.16-.12.13-.23.29-.35.43-.15.18-.31.36-.48.52-.03.04-.26.23-.03.06.24-.18-.65.3-.69.32-1.56.64-3.27.65-4.9.29-1.8-.4-3.47-1.14-5.18-1.8-2.07-.8-3.58.04-5.47.85-2.96 1.27-7.09 2.07-9.68-.39-.45-.43-.84-.92-1.08-1.5-.11-.27-.11-.58-.21-.84-.03-.08.04-.41 0-.44.18.12-1.06.32-.2.43 1.63.21 3.71-1.07 5.03-1.88 2.41-1.49 5.58-3.1 8.22-1.13 1.34 1 3-1.19 1.78-2.31ZM65.42 61.93c2.86-1.66 4.99-4.5 5.9-7.67.1-.35.18-.7.25-1.06.11-.61.29-1.32.09-1.94-.3-.94-1.28-1.59-2.28-1.29-1.09.33-1.34 1.27-1.44 2.26-.05.49.06-.31-.03.17l-.09.47c-.09.4-.19.79-.32 1.18l-.18.51c-.04.11-.22.63-.07.2-.12.36-.33.71-.51 1.04-.21.38-.44.74-.68 1.1l-.16.22c-.19.27.12-.13-.02.03s-.26.32-.4.47c-.27.3-.56.6-.85.88-.16.16-.33.31-.5.46-.07.06-.14.12-.21.17-.26.22.19-.14-.11.08-.66.49-1.06 1.39-.57 2.16.46.72 1.39 1.01 2.16.57Z"/><path d="M67.45 50.07c2.86 1.43 5.66 2.69 8.81 3.34 3.15.64 6.39.78 9.56.22 3.08-.54 5.91-1.92 8.74-3.19 1.48-.67 2.97-1.32 4.47-1.97 1.63-.7 3.4-1.24 4.74-2.44 1.2-1.08.28-3.35-1.35-3.25-1.61.1-3.01.81-4.47 1.45-1.42.61-2.83 1.24-4.24 1.88-2.59 1.17-5.15 2.5-7.89 3.27-2.71.76-5.57.74-8.35.39-2.83-.36-5.88-1.12-8.43-2.39-1.8-.9-3.4 1.81-1.59 2.71Zm34.2 5.9c2.04.34 4.06-.07 5.95-.87.92-.39 1.78-.86 2.64-1.36.93-.54 1.95-.99 2.79-1.67.64-.52.73-1.69.3-2.36-.45-.7-1.36-1.17-2.2-.89-.95.31-1.76.96-2.56 1.54q-1.095.78-2.19 1.53c-1.4.95-2.71 1.6-4.38 1.52-.64-.03-1.21.52-1.28 1.13s.29 1.32.93 1.43m10.53 1.19.48.68.24.34c.07.1.17.21.22.32l-.17-.41s0 .03.01.05l-.06-.45v.05l.06-.45c-.02.17-.08.21-.07.48l.06.45c.03.15.09.29.17.41s.19.25.28.36l-.26-.33v.01l-.16-.38-.06-.42.06-.42c.05-.12.11-.25.16-.37.08-.1.16-.21.25-.32.11-.08.21-.16.32-.24.12-.05.25-.1.37-.16.14-.02.27-.04.41-.05-.31 0-.36.03-.6.13-.22.09-.3.12-.5.32-.29.29-.46.7-.46 1.11 0 .26.07.58.22.8l.25.32c.1.09.21.17.32.25.03.02.36.16.39.16.04.01.39.06.44.06h.02l.45-.06c.15-.02.28-.08.41-.17.07-.04.13-.08.18-.14.19-.12.33-.28.44-.48.09-.13.15-.27.17-.42l.06-.45v-.06l-.06-.45v-.03c-.03-.07-.06-.15-.09-.22-.02-.08-.06-.15-.09-.22-.08-.14-.2-.26-.3-.39l-.97-1.22a1.2 1.2 0 0 0-.53-.34c-.2-.1-.41-.15-.64-.14l-.44.06c-.22.05-.4.15-.56.3q-.18.105-.3.3c-.15.16-.25.35-.3.56l-.06.44c0 .3.08.58.23.84Z"/><path d="M60.98 63.78c.7-2.48-.31-4.54-.9-6.9-.17-.67-.41-1.66 0-2.29.17-.26.5-.41.72-.64.54-.58.87-1.31.9-2.11.05-1.19-.44-2.44-.67-3.6s-.37-2.34-.31-3.53c.11-1.94.98-3.8 2.24-5.25 3-3.45 7.43-4.78 11.81-5.46 4.59-.72 9.34-.95 13.97-.63 2.46.17 4.91.56 7.29 1.22 2.59.71 4.85 1.93 7.3 2.95.91.38 2.04-.34 2.37-1.16.4-1.01 0-1.88-.82-2.51-1.95-1.5-4.6-2.39-6.94-3.09-2.38-.72-4.84-1.14-7.31-1.41-4.93-.54-9.95-.29-14.86.34-5.13.66-10.25 1.92-14.25 5.38s-5.42 7.93-4.69 12.9c.11.76.26 1.51.43 2.25.06.28.11.62.21.89.02.46.07.58.17.34.12-.2.05-.15-.22.15-.95.84-1.37 2.25-1.38 3.48s.34 2.35.77 3.43c.55 1.37 1.52 2.92 1.26 4.45-.31 1.87 2.36 2.69 2.89.8Z"/><path d="M104.63 29.77c1.61.21 3.14 1.11 4.19 2.33 1.22 1.43 1.46 3.3 3.59 3.74.76.15 1.52.01 2.27.22.62.17 1.18.51 1.67.93 1.29 1.1 2.1 2.68 2.6 4.27 2.52 8.12-2.28 15.78-4.06 23.47-.6 2.6 3.13 3.61 3.98 1.1 1.52-4.5 3.27-9.05 4.27-13.7.92-4.3 1.14-9.02-.53-13.17-1.47-3.67-4.61-7.33-8.93-7.12-.24.03-.49.05-.73.06.31.15.32.07.03-.26-.13-.31-.41-.64-.61-.9-.63-.83-1.35-1.54-2.2-2.15-1.62-1.16-3.56-1.74-5.54-1.79s-1.83 2.72 0 2.97M88.2 69.88c-.24 2.82-.37 5.65-.4 8.48-.01 1.36-.02 2.73.05 4.09s.19 2.89 1.03 3.99c.5.65 1.24 1.03 2.06.67.75-.33 1.17-1.13.95-1.94-.3-1.11-.5-2.1-.54-3.26-.04-1.34-.09-2.67-.11-4.01-.03-2.67.03-5.35.19-8.01.05-.87-.78-1.62-1.62-1.62-.94 0-1.54.74-1.62 1.62Zm-13.82-6.66c.39-.24.78-.47 1.19-.68.1-.05.2-.09.29-.14.26-.13-.28.11-.02 0 .23-.09.46-.2.69-.29-.16.06-.22.09-.02.02.43-.16.87-.3 1.31-.41.21-.05.42-.1.63-.13.11-.02.21-.04.32-.05.05 0 .11-.02.16-.02.16-.02.11-.02-.14.02.3-.16.95-.08 1.29-.08.24 0 .49 0 .73.02.11 0 .22.02.32.03.05 0 .41.04.13 0-.32-.04.19.03.21.04l.32.06c.21.04.42.1.63.15.69.19 1.41.38 2.1.13 1.15-.42 1.65-1.57 1.09-2.67-.63-1.24-2.26-1.54-3.52-1.72-1.16-.16-2.29-.2-3.45-.05-2.4.32-4.65 1.29-6.4 3-1.41 1.38.42 3.86 2.14 2.77m33.66-2.98c-1.46-1.54-3.25-2.79-5.28-3.46-1-.33-2.07-.5-3.11-.59-1.14-.1-2.61-.15-3.63.42-1.47.82-1.2 3.25.48 3.65.93.22 1.96-.01 2.91.03.21.01.42.03.63.05.08 0 .25 0 .32.04-.1-.06-.35-.06-.07 0 .45.08.88.18 1.32.3.41.11.82.22 1.22.36.2.07.4.15.59.22.26.1-.28-.13-.02 0 .1.05.2.09.3.13q.375.165.15.06c-.21-.09.11.05.14.07.1.04.19.09.29.14.19.09.38.19.56.3s.36.22.53.34c.09.06.17.12.26.18.04.03.31.24.11.08.67.53 1.66.7 2.3 0s.62-1.64 0-2.3Zm-27.9 15.2c2.17 0 2.18-3.38 0-3.38s-2.18 3.38 0 3.38m19.23 0c2.17 0 2.18-3.38 0-3.38s-2.18 3.38 0 3.38m-8.95 53.03c-5.05-3.56-10.16-7.03-15.32-10.42-1.02-.67-2.08-1.49-3.35-1.57-1.42-.09-2.52.73-3.6 1.55-1.9 1.44-3.72 3.12-4.47 5.45-.85 2.64.36 5.21 1.59 7.51 1.24 2.31 2.75 4.47 4.46 6.45 1.6 1.86 3.43 3.67 5.45 5.08 1.11.78 2.45 1.3 3.83 1.01 1.23-.26 2.18-1.1 3.11-1.89 3.68-3.16 7.09-6.62 10.78-9.78-1.03-.13-2.07-.27-3.1-.4 1.74 2.92 4.38 5.27 6.95 7.44 1.28 1.08 2.58 2.13 3.89 3.17 1.54 1.23 3.13 2.37 5.06 1.09 2.91-1.94 5.09-5.19 6.56-8.3 1.51-3.21 2.83-6.44 4.51-9.58 1.34-2.5-.39-4.07-2.15-5.73-1.87-1.76-3.86-3.37-5.93-4.88-.75-.54-1.87-.25-2.49.32-4.74 4.4-9.71 8.58-14.89 12.45-.91.68-1.38 1.82-.76 2.89.53.9 1.96 1.43 2.89.76 5.52-4.05 10.75-8.43 15.66-13.19l-2.49.32c1.14.81 2.25 1.65 3.32 2.54s2.03 2.1 3.16 2.85c.31.43.4.43.28-.01.02-.38-.02-.43-.15-.14-.22.15-.38.66-.52.91-.32.58-.63 1.17-.92 1.77-.51 1.04-.97 2.1-1.42 3.16-.82 1.95-1.61 3.92-2.69 5.75-.54.91-1.14 1.78-1.84 2.57-.58.65-1.68 2.14-2.53 2.26h1.05c-.91-.19-2.01-1.47-2.72-2.05-1.1-.89-2.17-1.79-3.23-2.73-1.89-1.68-3.88-3.46-5.2-5.64-.69-1.15-2.14-1.24-3.1-.4-2.7 2.35-5.3 4.82-7.94 7.23-.64.58-1.28 1.16-1.92 1.73-.5.45-1.17 1.25-1.79 1.5s-1.31-.47-1.82-.89c-.84-.69-1.64-1.43-2.41-2.2a31.4 31.4 0 0 1-3.93-4.82c-1.08-1.64-2.55-3.72-2.87-5.7-.28-1.7 1.1-3.05 2.27-4.07.3-.26.6-.5.91-.74.2-.15.39-.3.6-.44.1-.07.74-.32.37-.3-.3.02.15.13.22.19.2.17.5.32.73.46.55.35 1.11.71 1.66 1.07 4.84 3.11 9.74 6.13 14.68 9.07 1.76 1.05 3.19-1.56 1.58-2.7Z"/><path d="M63.33 125.71c1.49 15.37 4.41 30.6 8.72 45.42-17.55-.86-35.57 3.52-52.49-1.21-.15-.04-.32-.09-.42-.22-.15-.18-.1-.45-.05-.67l.72-3.08c1.15-4.93 2.3-9.89 4.26-14.55s4.77-9.08 8.75-12.21c3.84-3.04 8.55-4.73 13.16-6.38 5.53-1.97 11.05-3.94 16.58-5.91"/><path d="M61.93 125.71c.56 15.55 3.89 31.05 8.18 45.96.65-.85 1.3-1.71 1.95-2.56-8.84-.47-17.66.26-26.48.61-4.38.18-8.77.24-13.14-.06-2.11-.14-4.23-.35-6.32-.69-1-.16-1.99-.35-2.98-.57-.53-.12-1.07-.24-1.6-.37-.3-.08-.61-.15-.91-.24-.5-.11-.61-.15-.32-.11l1.07 1.39-.1-.32v1.24c.3-2.08.93-4.16 1.42-6.2.52-2.15 1.06-4.3 1.7-6.42 1.15-3.8 2.64-7.47 4.83-10.8s4.83-5.77 8.16-7.64c3.55-2 7.45-3.26 11.27-4.62 4.83-1.73 9.67-3.45 14.5-5.18 1.18-.42 1.97-1.58 1.62-2.85-.31-1.14-1.67-2.04-2.85-1.62-4.07 1.45-8.14 2.9-12.2 4.35-3.82 1.36-7.69 2.65-11.4 4.28-3.55 1.56-6.88 3.64-9.57 6.45-2.55 2.66-4.57 5.82-6.11 9.16-1.74 3.79-2.96 7.77-3.97 11.81-.51 2.05-.98 4.1-1.46 6.16-.23.98-.65 2.13-.41 3.13.26 1.07 1.01 1.78 2.03 2.12 3.92 1.34 8.34 1.81 12.44 2.11 4.13.3 8.28.26 12.41.09 9.45-.39 18.9-1.54 28.37-1.17 1.31.05 2.31-1.34 1.95-2.56-4.33-14.85-6.88-30.01-9.32-45.26-.25-1.57-2.82-1.19-2.76.37Zm54.08.42c-1.23 12.61-2.45 25.23-3.68 37.84-.2 2.07-.41 4.16-.98 6.16 16.66 1.29 33.45.95 50.05-1.01-.13-2.31-.76-4.56-1.39-6.79l-2.19-7.79c-.99-3.52-2.01-7.11-4.04-10.15-3.75-5.63-10.39-8.58-16.89-10.46s-13.31-3.02-19.23-6.29"/><path d="M114.48 125.71c-1.21 7.29-1.83 14.7-2.59 22.05-.37 3.6-.73 7.21-1.09 10.81s-.48 7.45-1.44 11.01c-.38 1.39.67 2.53 2.01 2.64 16.68 1.3 33.43 1.08 50.05-.87 1.13-.13 2.32-.91 2.23-2.23-.35-4.85-2.09-9.6-3.4-14.26-1.25-4.45-2.49-9.02-5.36-12.75-5.16-6.72-13.55-9.41-21.42-11.47-4.99-1.3-10.06-2.51-14.62-5-2.61-1.43-4.96 2.58-2.33 3.99 7.58 4.09 16.23 4.9 24.2 7.92 3.43 1.3 6.79 3.11 9.37 5.76 2.89 2.97 4.2 6.85 5.31 10.75.71 2.49 1.4 4.98 2.1 7.47s1.51 4.99 1.7 7.57l2.23-2.23c-16.59 1.95-33.38 2.41-50.05 1.16l2.01 2.64c.97-3.61 1.11-7.43 1.46-11.13.35-3.69.71-7.37 1.04-11.06.67-7.43 1.52-14.9 1.74-22.36.05-1.75-2.83-2.22-3.13-.42Zm-24.41 22.01c.36.05.72.11 1.09.1s.75-.06 1.11-.13.69-.2 1.02-.36.6-.39.83-.67l.25-.32c.11-.18.18-.37.19-.58a.75.75 0 0 0 0-.42c0-.21-.07-.4-.19-.58-.15-.23-.34-.42-.56-.56-.35-.23-.81-.24-1.21-.16a3 3 0 0 1-.29.05l.44-.06c-.19.02-.39.02-.57.08-.06.02-.12.05-.18.07-.11.04-.23.08-.34.12-.23.08-.46.13-.7.16l.45-.06c-.3.04-.59.04-.89.01-.23 0-.45.04-.65.15-.21.07-.39.18-.54.35l-.26.34c-.12.19-.19.4-.2.63q-.06.225 0 .45c.01.22.08.43.2.63l.26.34c.21.21.46.35.74.43Zm0 10.62c.36.05.72.11 1.09.1s.75-.06 1.11-.13.69-.2 1.02-.36.6-.39.83-.67l.25-.32c.11-.18.18-.37.19-.58a.75.75 0 0 0 0-.42c0-.21-.07-.4-.19-.58-.15-.23-.34-.42-.56-.56-.35-.23-.81-.24-1.21-.16a3 3 0 0 1-.29.05l.44-.06c-.19.02-.39.02-.57.08-.06.02-.12.05-.18.07-.11.04-.23.08-.34.12-.23.08-.46.13-.7.16l.45-.06c-.3.04-.59.04-.89.01-.23 0-.45.04-.65.15-.21.07-.39.18-.54.35l-.26.34c-.12.19-.19.4-.2.63q-.06.225 0 .45c.01.22.08.43.2.63l.26.34c.21.21.46.35.74.43Zm0 10.62c.36.05.72.11 1.09.1s.75-.06 1.11-.13.69-.2 1.02-.36.6-.39.83-.67l.25-.32c.11-.18.18-.37.19-.58a.75.75 0 0 0 0-.42c0-.21-.07-.4-.19-.58-.15-.23-.34-.42-.56-.56-.35-.23-.81-.24-1.21-.16a3 3 0 0 1-.29.05l.44-.06c-.19.02-.39.02-.57.08-.06.02-.12.05-.18.07-.11.04-.23.08-.34.12-.23.08-.46.13-.7.16l.45-.06c-.3.04-.59.04-.89.01-.23 0-.45.04-.65.15-.21.07-.39.18-.54.35l-.26.34c-.12.19-.19.4-.2.63q-.06.225 0 .45c.01.22.08.43.2.63l.26.34c.21.21.46.35.74.43Z"/></svg>