<?xml version="1.0" encoding="UTF-8"?><svg xmlns="http://www.w3.org/2000/svg" viewBox="0 0 180 180"><path d="M62.89 59.44c-.11 4.97-.53 9.96-.72 14.93-.18 4.81-.54 9.7-.11 14.51.75 8.28 4.65 15.72 11.62 20.43 1.72 1.16 3.56 2.17 5.5 2.91s3.97 1.81 6.1 2.01c1.3.12 1.59-1.71.63-2.31-1.45-.92-3.16-1.39-4.63-2.31s-2.81-1.94-4.1-3.01c-2.61-2.17-5.06-4.65-6.87-7.53-4.46-7.1-3.62-15.66-3.77-23.69l-.15-7.72c-.05-2.74-.3-5.48-.31-8.21 0-2.04-3.13-2.04-3.17 0Z"/><path d="M63.62 64.85c-1.91-1.5-4.38-1.8-6.55-.66-1.85.98-3.12 2.82-3.94 4.69-1.91 4.32-2.81 10.14-.45 14.46 1.68 3.06 5.21 5.24 8.46 6.27.85.27 1.82-.25 2.15-1.05.37-.91 0-1.71-.74-2.27-2.39-1.82-5.68-2.72-6.74-5.86-.43-1.28-.52-2.63-.45-3.97.05-1.09.11-1.46.34-2.53s.51-2.08.91-3.08c.11-.28.33-.75.56-1.16.14-.25.3-.5.45-.74 0 0 .36-.49.19-.27.28-.36.61-.72.98-1-.25.19.34-.19.4-.23.37-.2-.13.01.24-.1.99-.3 1.56-.15 2.7.05 1.31.23 2.81-1.5 1.48-2.55Zm15.19 59.74c.28-4.98.33-9.97.35-14.96.01-2.41-3.76-2.42-3.75 0 .02 4.99.07 9.98.35 14.96.11 1.96 2.94 1.96 3.05 0"/><path d="M74.31 121.63c-3.27.78-6.59 1.36-9.86 2.12s-6.21 1.53-9.29 2.39c-6.14 1.71-12.33 3.59-18.22 6.04-2.74 1.14-5.33 2.49-7.55 4.5-1.99 1.8-3.57 4.08-4.82 6.44-2.14 4.05-3.75 8.38-4.63 12.87-.49 2.49-.9 5-1.37 7.5-.37 1.98-.59 4.03-1.08 5.99-.52 2.09 2.58 3.59 3.6 1.52 1.75-3.54 2.3-7.49 3.09-11.32s1.82-7.79 3.48-11.53c.99-2.24 2.14-4.52 3.75-6.4 1.73-2.01 3.88-3.41 6.26-4.54 5.44-2.58 11.38-4.27 17.1-6.11 3.35-1.08 6.72-2.09 10.08-3.11s6.86-2.21 10.33-3.11c2.09-.54 1.21-3.74-.89-3.24ZM60.13 76.68c.14.04.27.09.4.15l-.29-.12c.38.16.74.38 1.07.63l-.25-.19c.3.24.57.52.81.82l-.2-.26c.26.34.48.71.65 1.11l-.13-.32c.06.14.11.27.17.41l-.13-.32c.11.27.2.54.34.8.14.27.49.54.78.6s.58.05.85-.07c.25-.11.5-.29.63-.54l.13-.31c.06-.23.06-.47 0-.7-.05-.3-.19-.59-.33-.86-.09-.19-.2-.36-.32-.53-.28-.41-.6-.81-.97-1.14a6.6 6.6 0 0 0-2.58-1.49c-.61-.18-1.35.22-1.49.85-.15.66.2 1.28.85 1.49Zm53.81-17.24c-.01 4.64-.33 9.3-.42 13.94s.01 9.13-.27 13.67c-.24 3.76-.98 7.42-2.8 10.75-1.65 3.02-3.97 5.51-6.5 7.82-1.39 1.27-2.91 2.36-4.44 3.45-1.68 1.2-3.67 1.75-5.4 2.84-.96.61-.67 2.43.63 2.31 1.85-.17 3.52-1.02 5.24-1.69s3.48-1.43 5.11-2.43c3.36-2.05 6.19-4.75 8.42-7.99 5.24-7.64 4.75-16.91 4.42-25.76l-.31-8.21c-.11-2.91-.42-5.81-.48-8.71-.04-2.04-3.17-2.05-3.17 0Z"/><path d="M117.87 67.4c1.11-.2 1.66-.34 2.61-.07.39.11.06-.02.33.13.06.03.65.41.4.23.37.28.69.64.98 1s.99 1.65 1.2 2.17c.4.99.69 2.03.91 3.08s.28 1.44.34 2.53c.07 1.34-.03 2.69-.45 3.97-1.04 3.14-4.35 4.04-6.74 5.86-.72.55-1.14 1.37-.74 2.27.35.8 1.27 1.33 2.15 1.05 2.9-.92 5.87-2.72 7.73-5.17s2.29-5.46 2.07-8.36c-.32-4.07-1.58-8.98-5.07-11.48-2.21-1.59-5.08-1.42-7.2.25-1.33 1.04.17 2.78 1.48 2.55Zm-13.63 57.19c.28-4.98.33-9.97.35-14.96.01-2.41-3.76-2.42-3.75 0 .02 4.99.07 9.98.35 14.96.11 1.96 2.94 1.96 3.05 0"/><path d="M104.8 124.87c6.09 1.58 12.12 3.62 18.13 5.5 5.93 1.86 11.88 3.75 17.64 6.07 2.37.96 4.77 2.14 6.65 3.89 1.83 1.7 3.15 3.79 4.26 6 1.88 3.75 3.11 7.64 3.99 11.73.93 4.33 1.45 8.91 3.43 12.92 1.01 2.05 4.13.59 3.6-1.52-.44-1.75-.62-3.59-.96-5.36-.42-2.18-.79-4.37-1.19-6.55-.82-4.46-2.13-8.54-4.05-12.67-2.39-5.15-5.92-9.32-11.11-11.78-5.71-2.71-11.98-4.58-18.05-6.32-3.53-1.02-7.08-1.98-10.66-2.82-3.58-.85-7.22-1.49-10.8-2.34-2.1-.5-2.99 2.69-.89 3.24Zm14.43-50.52c-.97.29-1.83.81-2.58 1.49-.37.34-.69.73-.97 1.14-.12.17-.23.35-.32.53-.13.27-.28.56-.33.86-.05.35-.07.7.13 1.01.16.24.36.42.63.54.57.24 1.34.05 1.64-.54.13-.26.22-.53.34-.8l-.13.32c.06-.13.11-.27.17-.41l-.13.32c.17-.4.39-.77.65-1.11l-.2.26c.24-.3.5-.58.81-.82l-.25.19c.33-.25.69-.46 1.07-.63l-.29.12c.13-.06.27-.11.4-.15.3-.1.56-.28.72-.56.15-.26.22-.64.12-.93-.2-.61-.84-1.04-1.49-.85ZM61.45 64.07c3.13 1.41 6.91.13 9.56-2.06s4.49-5.18 6.66-7.84c3.58-4.4 8.13-8.01 13.23-10.49 1-.49 2.05-.95 2.82-1.75 1.86-1.93 1.47-5.14.21-7.5-3.19-6-10.96-8.67-17.56-7.06-6.6 1.62-11.91 6.83-14.92 12.92s-2.66 17.58-2.93 24.37"/><path d="M60.72 65.33c3.98 1.75 8.29.58 11.6-2.02 3.59-2.82 5.91-6.87 9.07-10.12s6.66-5.7 10.61-7.65c2.08-1.02 3.87-2.2 4.72-4.46.7-1.87.52-4.08-.13-5.94-2.69-7.64-11.5-11.26-19.09-10.17-8.07 1.16-14.84 7.54-18 14.84-1.67 3.87-2.03 8.23-2.28 12.4-.25 4.12-.39 8.32-.21 12.45.09 1.97 2.77 1.88 3 0 .38-3.13.29-6.32.46-9.46.19-3.42.49-6.83 1.34-10.16 1.6-6.25 6.48-12.17 12.44-14.74 5.58-2.4 12.96-1.34 16.82 3.65.86 1.11 1.55 2.45 1.72 3.85.2 1.65-.43 2.67-1.86 3.43-3.58 1.91-6.94 3.82-10.02 6.5-3.44 2.99-5.89 6.62-8.67 10.19-2.42 3.1-6.22 6.38-10.41 4.74-1.53-.6-2.64 2-1.13 2.67Z"/><path d="M86.93 41.38c5.67.77 10.34 4.76 14.18 9s7.28 8.99 12.07 12.11c1.2.78 2.6 1.48 4.02 1.23 1.72-.3 2.92-1.92 3.53-3.55.83-2.21.94-4.62.96-6.98.04-4.6-.23-9.28-1.86-13.59-2.22-5.88-7.2-10.84-13.33-12.24-6.12-1.4-13.17 1.23-16.24 6.72"/><path d="M86.51 42.92c7.41 1.26 12.23 7.58 16.84 12.93 3.78 4.38 12.68 14.78 18.14 7.03 2.24-3.18 2.18-7.57 2.17-11.29-.02-4.14-.37-8.39-1.79-12.3-2.36-6.49-7.64-12.09-14.45-13.84-7.05-1.81-16.03 1.08-18.98 8.15-.36.87.32 1.9 1.09 2.23.94.39 1.78-.01 2.36-.77 3.23-4.21 8.33-6.79 13.71-5.72 5.52 1.1 10 5.37 12.13 10.48 1.39 3.35 1.83 7.03 1.95 10.62.11 3.16.46 7.21-1.25 10.04-.67 1.11-1.54 1.64-2.82 1.16-1.62-.61-3.1-1.91-4.37-3.04-2.4-2.14-4.48-4.6-6.58-7.03-4.75-5.5-10.21-10.82-17.74-11.78-1.77-.23-2.19 2.83-.42 3.13ZM57.27 85.88c1.47 5.11-.42 10.51-1.98 15.6s-2.73 10.9-.05 15.49c.44.76.99 1.49 1.16 2.35.19.96-.13 1.94-.39 2.89-.88 3.18-1.16 6.6-.21 9.76s3.25 6.01 6.37 7.08c1.59.54 3.3.61 4.97.54 2.8-.11 5.81-.72 7.68-2.81 1.84-2.07 2.12-5.06 2.23-7.82.24-5.93.15-11.88-.28-17.8-.06-.77-.13-1.59-.57-2.22-.57-.82-1.6-1.15-2.53-1.54-3.69-1.54-6.62-4.79-7.75-8.63-.68-2.31-.74-4.77-1.45-7.08-.71-2.3-2.33-4.58-4.71-4.99"/><path d="M55.75 86.3c1.03 4.81-.85 9.68-2.31 14.19-1.39 4.28-2.5 8.81-1.68 13.32.2 1.11.56 2.16 1.02 3.19.38.85 1.11 1.66 1.38 2.54s-.32 2.06-.53 2.94c-.29 1.22-.49 2.46-.6 3.71-.39 4.46.87 9.18 4.18 12.35 3.45 3.3 8.21 3.73 12.73 2.99 4.35-.71 7.73-3.44 8.73-7.83.5-2.2.52-4.49.57-6.73.06-2.64.06-5.28 0-7.91s-.15-5.28-.37-7.91c-.2-2.48-1.08-4.27-3.44-5.3-2.08-.91-3.87-1.93-5.36-3.69-1.5-1.78-2.22-3.9-2.62-6.16-.44-2.49-.7-4.99-1.95-7.24s-3.16-3.92-5.75-3.92c-1.73 0-2.69 2.69-.94 3.46 3.87 1.72 3.92 5.59 4.63 9.27s2.74 7.23 5.81 9.64c.68.54 1.39 1.03 2.16 1.44.83.45 1.76.71 2.58 1.17.73.41.64 1.04.69 1.82.09 1.23.16 2.47.21 3.7.22 4.72.24 9.45-.03 14.17-.09 1.65-.24 3.48-1.08 4.94-.82 1.43-2.2 2.13-3.76 2.52-3.34.83-7.38.74-9.9-1.87-2.67-2.76-3.08-6.93-2.38-10.55.4-2.11 1.37-4.21.63-6.36-.63-1.82-1.88-3.22-2.3-5.16-.93-4.27.54-8.71 1.72-12.77 1.39-4.82 2.6-9.87 1-14.8-.63-1.94-3.47-1.15-3.04.84m47.82 24.11c-.46 4.07-.73 8.16-.8 12.26-.08 4.19.18 8.75 2.92 11.92 2.27 2.63 5.83 3.76 9.27 4.25 4.28.61 9.22.16 12.01-3.15 2.42-2.87 2.36-7.52-.14-10.32-1.31-1.47-2.43-1.38-3.32-3.13-1.31-2.58 2.28-6.01 3.18-8.76 2.5-7.62-1.83-17.32-5.37-24.51-.29-.59.01-.81-.61-1.01-1.42-.47-2.32 1.48-2.63 2.95-1.76 8.57-6.92 16.4-14.1 21.4"/><path d="M102.12 110.01c-.81 5.44-1.5 11.13-1.08 16.64.37 4.88 2.2 9.46 6.68 11.91 7.11 3.88 21.24 3.94 22.79-6.33.34-2.25 0-4.56-1.11-6.56-.51-.92-1.2-1.78-2.02-2.44-.66-.54-1.74-.98-2.1-1.8-.58-1.34 1.21-3.43 1.85-4.49 1.18-1.96 1.85-3.94 2.13-6.21.59-4.94-.8-9.99-2.56-14.55-.9-2.32-1.92-4.59-2.99-6.83-.33-.69-.52-1.51-.91-2.17-.65-1.1-2.23-1.51-3.41-1.16-2.54.78-3.02 3.65-3.58 5.86-.62 2.46-1.53 4.82-2.71 7.06-2.42 4.6-5.88 8.63-10.13 11.63-2.1 1.48-.09 4.96 2.03 3.47 4.29-3.03 7.92-6.88 10.62-11.39 1.31-2.19 2.38-4.53 3.22-6.94.42-1.22.78-2.45 1.06-3.71.11-.51.2-1.06.4-1.55.06-.13.32-.46.33-.62l.06-.06c.31-.2-.02-.27-1-.19l-.51-.88c2.43 5.79 5.65 11.56 6.21 17.95.27 3.06-.12 5.8-1.71 8.45-1.39 2.32-3.22 5.09-1.96 7.86.62 1.36 1.64 2.11 2.82 2.95s1.85 1.98 2.17 3.36c.59 2.59-.53 5.23-2.82 6.58-2.42 1.43-5.47 1.51-8.19 1.19-2.99-.35-6.27-1.24-8.41-3.49-2.4-2.54-2.67-6.39-2.69-9.7-.03-4.48.18-8.97.51-13.45.12-1.67-2.71-2.09-2.96-.4ZM88.23 68.78c-.19 3.02-.37 6.04-.46 9.06s-.36 6.06-.05 9.06c.08.76.52 1.41 1.33 1.5.68.08 1.56-.34 1.68-1.1.48-3.07.4-6.19.47-9.29.07-3.08.05-6.16.01-9.23-.02-1.93-2.87-1.9-2.98 0m-1.3 27.83c.47.12.92.26 1.4.34.61.09 1.2.09 1.81.02s1.19-.16 1.75-.36c.65-.23 1.41-.49 1.91-.98s.64-1.38.26-1.98-1.12-.95-1.84-.75c-.48.13-.92.44-1.38.64l.39-.17c-.68.28-1.37.48-2.1.58l.42-.06c-.36.05-.73.07-1.09.1-.18.01-.36.02-.54.02h-.23c-.35 0 .23.05-.05 0-.36-.06-.71-.06-1.04.14-.28.16-.54.48-.62.8-.16.7.21 1.47.94 1.65Zm-6.7-18.31c1.93 0 1.93-3 0-3s-1.93 3 0 3m18.4 0c1.93 0 1.93-3 0-3s-1.93 3 0 3M76.06 66.24c.41-.07.82-.36 1.2-.54.31-.14.61-.29.92-.42l-.41.17c.88-.37 1.81-.64 2.75-.79.22-.04.44-.07.66-.11.7-.14 1.29-.6 1.49-1.3.16-.59-.03-1.21-.46-1.64s-1.05-.55-1.64-.5c-1.06.09-2.11.39-3.09.79-.55.22-1.1.46-1.62.75-.58.33-1.2.75-1.56 1.3-.34.52-.24 1.26.12 1.73.4.52 1 .67 1.63.56Zm28.64-4.4c-.65-.33-1.3-.64-1.98-.91l.4.17c-.73-.34-1.46-.66-2.2-.97l.43.18c-.81-.35-1.63-.79-2.54-.74-1.11.06-2.05.81-2.1 1.98-.03.65.37 1.22.89 1.56s1.06.28 1.62.18l-.5.07c.22-.02.45-.05.67-.09l-.5.07c.15-.02.3-.01.45 0l-.49-.07c.58.08 1.15.29 1.71.48.58.2 1.17.39 1.74.62l-.4-.17c.51.22 1.03.4 1.55.6.36.14.94.04 1.25-.16s.52-.44.66-.78c.3-.71.06-1.66-.66-2.03Z"/><path d="M47.25 130.92c2.04 7.98 6.06 15.3 11.15 21.74 4.32 5.47 9.72 10.3 16.15 13.12 14.8 6.51 31.99 1.65 42.89-9.82 6.46-6.79 11.66-14.84 15.42-23.42.39-.9.26-1.93-.65-2.47-.76-.46-2.08-.24-2.47.65-3.14 7.15-7.25 13.88-12.3 19.84-5.02 5.93-11.02 10.64-18.5 13.01-6.8 2.15-14.08 2.25-20.83-.15-6.07-2.15-11.24-6.26-15.46-11.04-5.66-6.41-9.94-14.13-12.73-22.2-.58-1.67-3.11-1.01-2.67.74"/><path d="M46.77 131.5c-.29 6.88 0 13.76.43 20.63.21 3.35.48 6.7.8 10.04.16 1.71.34 3.42.53 5.13.18 1.62.07 3.83 1.01 5.21.81 1.19 2.47.94 2.96-.39.55-1.51-.04-3.51-.22-5.07q-.285-2.565-.54-5.13c-.33-3.34-.6-6.69-.85-10.04-.5-6.79-.72-13.59-1.13-20.39-.11-1.91-2.9-1.93-2.98 0Zm84.03.2c-1.01 6.35-1.96 12.7-2.85 19.07-.88 6.36-1.89 12.73-2.44 19.13-.17 1.94 3.09 2.4 3.42.46 1.07-6.34 1.75-12.74 2.59-19.11.85-6.37 1.68-12.74 2.52-19.12.24-1.83-2.96-2.28-3.25-.44Z"/><path d="M28.57 141.69c3.06 1.09 6.3 1.52 9.49 2.05s6.51 1.05 9.77 1.55c.89.14 1.8-.23 2.06-1.17.22-.79-.27-1.92-1.17-2.06-3.27-.49-6.53-.98-9.8-1.44-3.22-.45-6.48-.78-9.67-1.42-1.63-.33-2.25 1.93-.69 2.49Zm-4.55 12.04c8.12 1.21 16.29 2.55 24.46 3.32 1.85.18 2.3-2.98.44-3.27-8.11-1.28-16.35-2.03-24.52-2.88-1.6-.17-1.99 2.58-.38 2.82Zm-2.7 14.72c4.77.69 9.54 1.23 14.34 1.64q3.555.3 7.11.51c3.555.21 4.94.44 7.37.29 2.22-.14 2.11-3.1 0-3.38-2.41-.31-4.93-.23-7.37-.36-2.29-.12-4.58-.26-6.87-.43-4.73-.34-9.46-.76-14.19-1.22-1.66-.16-2.07 2.71-.4 2.95Zm112.17-25.69c2.44-.55 4.87-1.14 7.3-1.75 1.21-.31 2.42-.62 3.63-.92l1.82-.45c.83-.2 1.4-.39 1.91-1.13.46-.67.14-1.74-.55-2.11-1.24-.66-2.81.07-4.09.41-1.21.32-2.42.64-3.62.98-2.41.69-4.79 1.45-7.14 2.31-1.66.6-1.02 3.06.74 2.67Zm-2.64 12.85c4.05-1.02 8.11-2.01 12.17-2.99 4.04-.97 8.21-1.68 12.18-2.93 2.07-.65 1.17-3.45-.87-3.16-4.11.58-8.19 1.83-12.19 2.88-4.04 1.06-8.05 2.21-12.05 3.42-1.78.54-1.04 3.24.77 2.79Zm-3.13 14.29c2.61.01 5.32-.81 7.87-1.33 2.72-.55 5.43-1.17 8.13-1.78 5.33-1.21 10.65-2.47 15.96-3.77 1.75-.43 1.69-3.02 0-3.48-1.05-.29-1.8-.03-2.6.66-1.24 1.07.07 3.3 1.61 2.77l-.4-.13c.14-1.1.29-2.2.43-3.3q-7.95 2.025-15.93 3.9c-2.62.62-5.25 1.2-7.87 1.82-2.61.63-5.43 1.02-7.89 2.11-1.28.57-.57 2.51.68 2.52Z"/></svg>