<?xml version="1.0" encoding="UTF-8"?><svg xmlns="http://www.w3.org/2000/svg" viewBox="0 0 180 180"><path d="M62.89 59.44c-.11 4.97-.53 9.96-.72 14.93-.18 4.81-.54 9.7-.11 14.51.75 8.28 4.65 15.72 11.62 20.43 1.72 1.16 3.56 2.17 5.5 2.91 1.98.75 3.97 1.81 6.1 2.01 1.3.12 1.59-1.71.63-2.31-1.45-.92-3.16-1.39-4.63-2.31s-2.81-1.94-4.1-3.01c-2.61-2.17-5.06-4.65-6.87-7.53-4.46-7.1-3.62-15.66-3.77-23.69l-.15-7.72c-.05-2.74-.3-5.48-.31-8.21 0-2.04-3.13-2.04-3.17 0Z"/><path d="M63.62 64.85c-1.91-1.5-4.38-1.8-6.55-.66-1.85.98-3.12 2.82-3.94 4.69-1.91 4.32-2.81 10.14-.45 14.46 1.68 3.06 5.21 5.24 8.46 6.27.85.27 1.82-.25 2.15-1.05.37-.91 0-1.71-.74-2.27-2.39-1.82-5.68-2.72-6.74-5.86-.43-1.28-.52-2.63-.45-3.97.05-1.09.11-1.46.34-2.53s.51-2.08.91-3.08c.11-.28.33-.75.56-1.16.14-.25.3-.5.45-.74 0 0 .36-.49.19-.27.28-.36.61-.72.98-1-.25.19.34-.19.4-.23.37-.2-.13.01.24-.1.99-.3 1.56-.15 2.7.05 1.31.23 2.81-1.5 1.48-2.55Zm13.19 58.74c.28-4.98.33-9.97.35-14.96.01-2.41-3.76-2.42-3.75 0 .02 4.99.07 9.98.35 14.96.11 1.96 2.94 1.96 3.05 0"/><path d="M72.31 121.63c-3.27.78-6.59 1.36-9.86 2.12s-6.21 1.53-9.29 2.39c-6.14 1.71-12.33 3.59-18.22 6.04-2.74 1.14-5.33 2.49-7.55 4.5-1.99 1.8-3.57 4.08-4.82 6.44-2.14 4.05-3.75 8.38-4.63 12.87-.49 2.49-.9 5-1.37 7.5-.37 1.98-.59 4.03-1.08 5.99-.52 2.09 2.58 3.59 3.6 1.52 1.75-3.54 2.3-7.49 3.09-11.32s1.82-7.79 3.48-11.53c.99-2.24 2.14-4.52 3.75-6.4 1.73-2.01 3.88-3.41 6.26-4.54 5.44-2.58 11.38-4.27 17.1-6.11 3.35-1.08 6.72-2.09 10.08-3.11s6.86-2.21 10.33-3.11c2.09-.54 1.21-3.74-.89-3.24ZM60.13 76.68c.14.04.27.09.4.15l-.29-.12c.38.16.74.38 1.07.63l-.25-.19c.3.24.57.52.81.82l-.2-.26c.26.34.48.71.65 1.11l-.13-.32c.06.14.11.27.17.41l-.13-.32c.11.27.2.54.34.8.14.27.49.54.78.6s.58.05.85-.07c.25-.11.5-.29.63-.54l.13-.31c.06-.23.06-.47 0-.7-.05-.3-.19-.59-.33-.86-.09-.19-.2-.36-.32-.53-.28-.41-.6-.81-.97-1.14a6.6 6.6 0 0 0-2.58-1.49c-.61-.18-1.35.22-1.49.85-.15.66.2 1.28.85 1.49Zm53.81-17.24c-.01 4.64-.33 9.3-.42 13.94s.01 9.13-.27 13.67c-.24 3.76-.98 7.42-2.8 10.75-1.65 3.02-3.97 5.51-6.5 7.82-1.39 1.27-2.91 2.36-4.44 3.45-1.68 1.2-3.67 1.75-5.4 2.84-.96.61-.67 2.43.63 2.31 1.85-.17 3.52-1.02 5.24-1.69s3.48-1.43 5.11-2.43c3.36-2.05 6.19-4.75 8.42-7.99 5.24-7.64 4.75-16.91 4.42-25.76l-.31-8.21c-.11-2.91-.42-5.81-.48-8.71-.04-2.04-3.17-2.05-3.17 0Z"/><path d="M117.87 67.4c1.11-.2 1.66-.34 2.61-.07.39.11.06-.02.33.13.06.03.65.41.4.23.37.28.69.64.98 1s.99 1.65 1.2 2.17c.4.99.69 2.03.91 3.08s.28 1.44.34 2.53c.07 1.34-.03 2.69-.45 3.97-1.04 3.14-4.35 4.04-6.74 5.86-.72.55-1.14 1.37-.74 2.27.35.8 1.27 1.33 2.15 1.05 2.9-.92 5.87-2.72 7.73-5.17s2.29-5.46 2.07-8.36c-.32-4.07-1.58-8.98-5.07-11.48-2.21-1.59-5.08-1.42-7.2.25-1.33 1.04.17 2.78 1.48 2.55Zm-11.63 56.19c.28-4.98.33-9.97.35-14.96.01-2.41-3.76-2.42-3.75 0 .02 4.99.07 9.98.35 14.96.11 1.96 2.94 1.96 3.05 0"/><path d="M106.8 124.87c6.09 1.58 12.12 3.62 18.13 5.5 5.93 1.86 11.88 3.75 17.64 6.07 2.37.96 4.77 2.14 6.65 3.89 1.83 1.7 3.15 3.79 4.26 6 1.88 3.75 3.11 7.64 3.99 11.73.93 4.33 1.45 8.91 3.43 12.92 1.01 2.05 4.13.59 3.6-1.52-.44-1.75-.62-3.59-.96-5.36-.42-2.18-.79-4.37-1.19-6.55-.82-4.46-2.13-8.54-4.05-12.67-2.39-5.15-5.92-9.32-11.11-11.78-5.71-2.71-11.98-4.58-18.05-6.32-3.53-1.02-7.08-1.98-10.66-2.82-3.58-.85-7.22-1.49-10.8-2.34-2.1-.5-2.99 2.69-.89 3.24Zm12.43-50.52c-.97.29-1.83.81-2.58 1.49-.37.34-.69.73-.97 1.14-.12.17-.23.35-.32.53-.13.27-.28.56-.33.86-.05.35-.07.7.13 1.01.16.24.36.42.63.54.57.24 1.34.05 1.64-.54.13-.26.22-.53.34-.8l-.13.32c.06-.13.11-.27.17-.41l-.13.32c.17-.4.39-.77.65-1.11l-.2.26c.24-.3.5-.58.81-.82l-.25.19c.33-.25.69-.46 1.07-.63l-.29.12c.13-.06.27-.11.4-.15.3-.1.56-.28.72-.56.15-.26.22-.64.12-.93-.2-.61-.84-1.04-1.49-.85ZM62.2 59.11c6.9 1.81 14.43 2.65 21.36.47 2.87-.91 5.53-2.34 7.9-4.2 2.28-1.8 4.84-4.39 5.65-7.26.28-.99-.26-2.07-1.2-2.45-1.03-.42-1.95 0-2.6.85-.75.99-1.28 2.14-2.06 3.11s-1.76 1.94-2.77 2.76c-1.91 1.55-4.19 2.71-6.51 3.5-6.12 2.08-12.7 1.56-18.9.12-2-.46-2.85 2.56-.85 3.09Zm38.99 1.14c1.92-1.35 3.67-2.93 5.17-4.74 1.53-1.85 2.66-3.85 3.72-5.99-1.27-.17-2.53-.33-3.8-.5 1.42 3.68 4.23 6.34 7.52 8.39 1.67 1.03 3.47-1.33 2.08-2.7-1.13-1.12-2.31-2.2-3.37-3.38-.91-1.01-1.8-2.24-2.23-3.41-.32-.87-1.04-1.53-2-1.53-.91 0-1.76.65-2 1.53-.52 1.84-1.54 3.63-2.7 5.3s-2.49 3.03-4.03 4.21c-.7.54-1.07 1.41-.59 2.23.42.71 1.51 1.1 2.23.59"/><path d="M59.34 62.01a47 47 0 0 1-2.78-5.94c-.27-.71-.93-1.85-.69-2.5.32-.88 1.09-1.76 1.59-2.55 2.08-3.29 4.26-6.5 7.1-9.18 2.56-2.42 5.56-4.35 8.77-5.81s6.92-2.25 10.49-2.98c2.07-.42 1.46-3.43-.48-3.53-8.3-.44-16.91 4.11-22.62 9.89-3.23 3.27-5.72 7.22-8.02 11.18-.58.99-1.02 2-.78 3.17s.82 2.2 1.32 3.21c1.08 2.23 2.28 4.41 3.53 6.55.97 1.66 3.51.18 2.58-1.51ZM83.8 26.3c6.07-1.28 12.39 1.6 15.91 6.55.72 1.02 1.8 1.3 2.94.77 4.64-2.15 10.04-.55 12.89 3.61 1.56 2.29 2.66 4.85 4.21 7.15 1.71 2.54 3.8 4.76 6.34 6.48 1.63 1.11 3.39-1.32 2.06-2.67-2.23-2.27-4.3-4.65-5.91-7.41-1.6-2.75-2.92-5.69-5.14-8.02-4.28-4.47-11.11-5.4-16.61-2.85.98.26 1.96.51 2.94.77-4.69-6.3-12.88-9.03-20.46-7.43-1.99.42-1.15 3.46.84 3.04ZM124.71 55c-.89 1.36-1.77 2.73-2.63 4.12-.39.63-.79 1.26-1.19 1.88-.12.19.26-.3.1-.13-.05.05-.09.1-.13.15l-.18.18c-.19.2.15-.1.15-.11-.02.07-.27.14-.33.18.35-.15.37-.16.06-.02-.09.03-.18.07-.26.11-.15.09.45-.15.14-.07-.66.17-1.15.77-1.24 1.44s.21 1.43.82 1.72 1.3.46 2.01.23c.53-.17 1.02-.52 1.4-.92.61-.66 1.03-1.46 1.47-2.23.92-1.59 1.83-3.19 2.71-4.8.42-.77.22-1.87-.61-2.31s-1.79-.18-2.31.61Z"/><path d="M99.05 27.48c.29-1.24 1.82-1.71 3.09-1.69 2.72.05 5.4 1.36 7.1 3.49-1.41.33-2.95-.23-4.31.25-.39.14-.75.35-1.15.45-1.03.26-2.21-.45-2.47-1.48"/><path d="M100.58 27.91c.07-.24-.04-.02-.08.09-.06.15 0-.02.08-.06.2-.12-.34.2.01 0 .19-.1.03-.04-.07.01.12-.06.65-.24.24-.1.11-.04.21-.07.32-.11.09-.02.18-.05.26-.07.4-.09 0 .02 0-.01 0 0 1.2.02 1.29.02-.17-.01-.23-.04-.02 0 .13.02.26.05.39.07.24.04.47.09.7.15.21.05.41.12.61.18.13.04.25.1.38.14.27.08-.27-.13-.01-.01.44.2.86.42 1.27.68.2.13.4.27.59.41-.22-.16-.09-.07.04.04l.24.21c.38.34.72.71 1.04 1.11l.87-3.29c-.46.09.27.01-.16.03-.2 0-.41.02-.61.02-.35 0-.7-.03-1.05-.04-.82-.03-1.69 0-2.48.28-.27.09-.53.21-.79.33-.06.03-.53.18-.19.09-.12.03-.58.1-.07.05-.38.04.3.13-.04.01-.09-.02-.18-.05-.26-.08l.2.08c-.14.05-.34-.31-.07-.02-.07-.06-.13-.13-.19-.2.13.18.16.21.09.1-.05-.14-.16-.29-.24-.41-.43-.63-1.23-1.07-2.01-.82s-1.29.91-1.31 1.72c-.04 2.39 2.84 3.88 4.93 3.27.33-.1.64-.26.95-.38-.37.14.3-.08.36-.1.47-.13-.33-.01.16-.02h.69c1.07.04 2.07.14 3.13-.1.66-.15 1.2-.74 1.37-1.37.2-.73-.05-1.36-.51-1.91-1.63-1.96-4.05-3.36-6.55-3.79s-5.82.03-6.56 2.96c-.2.8.26 1.76 1.11 1.95s1.7-.26 1.95-1.11"/><path d="M104.8 25.23c-1.14-3.34-.33-7.02 2.3-9.42 2.7-2.46 6.28-2.52 9.63-1.57 3.94 1.11 7.56 3.12 11.42 4.43 3.82 1.29 8.18 2.56 12.25 2.23 1.95-.16 2.49-2.9.47-3.5-2.34-.69-4.78-1.01-7.16-1.59a53 53 0 0 1-6.58-2.07c-4.35-1.69-8.51-4-13.26-4.37-4.31-.33-8.51 1.46-11.11 4.92-2.71 3.6-2.91 8.22-1.14 12.28.79 1.79 3.8.52 3.17-1.34Z"/><path d="M121.2 24.62c5.37 2.55 11.03 4 16.95 4.43l-.88-.24.23.14-.87-2.13c-.25 1.04-.02 2.2-.11 3.27-.07.94-.28 1.87-.4 2.8s.14 1.76 1.04 2.13c.83.33 1.78.05 2.25-.74.72-1.2 1.01-2.52 1.15-3.9.13-1.26.15-2.9-.49-4.02-.55-.96-1.65-1.09-2.58-.68l-.23.1.88-.24c-5.43-.26-10.82-1.5-15.88-3.49-1.46-.58-2.51 1.88-1.08 2.56Zm2.98 9.61c1.05.48 2.08 1 3.08 1.56.83.46 2 .98 2.54 1.63l-.38-.65c.04-.48.04-.55 0-.19-.03.26-.04.29-.02.09l.44-.75c-.34.35-.57.8-.85 1.19-.11.15-.22.31-.34.46 0 0-.36.47-.16.22-.51.64-1.06 1.24-1.61 1.85q-.825.915-1.74 1.74c-.915.825-1.29 1.02-1.85 1.61-.71.74-.79 1.87-.16 2.69s1.72 1.01 2.64.53c1.45-.76 2.72-2.15 3.78-3.37s2.03-2.64 2.76-4.12c.26-.54.52-1.06.44-1.68-.04-.29-.04-.31-.01-.08 0-.18-.03-.35-.08-.52-.1-.35-.27-.65-.53-.9l-.32-.25c.12.09.12.07-.02-.06-.15-.17-.36-.31-.55-.44-.31-.21-.65-.38-.98-.56-1.55-.81-3.14-1.56-4.75-2.25-.64-.28-1.39-.19-1.77.47-.33.56-.17 1.48.47 1.77ZM86.79 72.74c-.2 3.04-.31 6.09-.15 9.13.08 1.49.2 2.98.36 4.46.17 1.57.33 3.2.89 4.7.62 1.66 3.16 1.5 3.19-.43.02-1.48-.27-2.96-.46-4.43s-.34-2.97-.44-4.46c-.21-2.99-.33-5.97-.22-8.96.07-2.05-3.04-2.02-3.17 0Zm-.31 25.66c1.73.37 3.48.38 5.21.01.85-.18 1.66-.48 2.45-.84s1.6-.81 2.17-1.48c.5-.6.62-1.39.12-2.04s-1.29-.73-2.01-.4c-.66.3-1.24.72-1.9 1.04-.07.03-.61.25-.22.11-.13.05-.25.1-.38.14-.34.12-.68.23-1.03.32s-.7.16-1.06.22c-.44.07.34-.03-.11.01-.18.02-.36.03-.54.04q-.54.03-1.08 0c-.18 0-.36-.03-.54-.04q-.27-.03 0 0c-.09-.01-.18-.03-.27-.04-.79-.13-1.69.21-1.88 1.07-.18.77.23 1.7 1.07 1.88m-5.01-19.53c2.19 0 2.2-3.41 0-3.41s-2.2 3.41 0 3.41m16.19 0c2.19 0 2.2-3.41 0-3.41s-2.2 3.41 0 3.41m-20.14-9.69c.6-.57 1.04-.9 1.87-1.36.36-.2.73-.4 1.1-.58.1-.05.2-.09.3-.14-.03.01-.25.09-.05.02.23-.08.47-.18.7-.25.37-.12.75-.22 1.12-.3.22-.05.43-.1.65-.13.11-.02.22-.04.33-.05-.18.03-.2.02 0 0 .41-.04.83-.06 1.24-.06.19 0 .39 0 .58.02.11 0 .22.02.33.03 0 0 .5.07.24.02-.21-.03.32.06.4.07.44.07.9.17 1.34.05.95-.26 1.64-1.18 1.4-2.17-.37-1.5-2.01-1.67-3.29-1.77-1.78-.15-3.66.11-5.32.74-2.04.78-3.77 1.96-5.15 3.67-.53.65-.64 1.56 0 2.2.61.61 1.59.58 2.2 0Zm27.71-4.64c-1.54-1.61-3.28-2.97-5.43-3.65-1.05-.33-2.16-.51-3.26-.56-1.4-.07-3.26-.04-3.98 1.36-.33.63-.35 1.66.28 2.15.41.32.76.59 1.29.66.28.04.41.06.69.02l.43-.06-.24.03c.15.05.46-.05.61-.06.23-.02.46-.04.69-.04.46-.01.93 0 1.39.05.05 0 .39.04.12 0-.3-.04.14.02.2.03.23.04.46.09.68.14.42.1.85.22 1.26.35.22.07.44.15.65.23.09.04.19.08.28.11.19.07-.23-.11.07.03.39.19.78.39 1.16.62.19.12.4.24.57.38-.16-.13.04.06.1.11.09.09.19.18.28.27.58.58 1.58.58 2.17 0 .6-.6.57-1.57 0-2.17Zm-34.58 49.42c4.53 5.04 9.29 10.25 15.58 12.79s14.56 1.54 18.35-4.08c1.67-2.49 2.28-5.52 2.85-8.46 2.36 1.73 4.44 3.83 6.15 6.2.78 1.08 1.51 2.36 1.26 3.67-.16.85-.72 1.57-1.26 2.24-5.55 6.93-12.41 13.9-21.24 14.83-5.02.53-10.14-1.05-14.37-3.81s-7.65-6.63-10.43-10.85c-.96-1.45-1.94-3.02-3.54-3.71.47-3.93 2-7.74 4.39-10.89.24-.32.53-.66.92-.75.56-.13 1.08.29 1.51.67 1.04.93 2.07 1.87 3.11 2.8"/><path d="M69.5 115.11c4.71 5.65 10.03 11.37 17.16 13.85 5.77 2 13.01 1.39 17.57-2.96 3.1-2.95 4.25-7.22 5.18-11.25l-3.03 1.23c1.88 1.42 3.6 3.15 5.03 5.03.5.66 1.48 1.76 1.36 2.67-.12.82-1.18 1.76-1.68 2.36-2.9 3.51-6.06 6.94-9.87 9.48-3.81 2.53-8.15 3.99-12.76 3.51-4.8-.5-9.27-2.94-12.8-6.15-2-1.82-3.77-3.87-5.33-6.07-1.51-2.14-2.78-4.68-5.25-5.86.35.61.7 1.23 1.06 1.84.32-2.57 1.19-5.09 2.46-7.35.31-.55.65-1.1 1.01-1.62.06-.09.5-.6.48-.68l-.86.05.13.11c.05.35 1.45 1.31 1.73 1.55.6.52 1.25.97 1.89 1.43 1.87 1.34 3.72-1.48 2.34-3.03-1.24-1.4-2.93-3.46-4.78-4.07-2.12-.7-3.5.94-4.57 2.5-2.28 3.32-3.57 7.13-4.09 11.1-.09.67.46 1.55 1.06 1.84 1.07.51 1.71 1.35 2.36 2.32.77 1.14 1.53 2.28 2.37 3.38 1.73 2.27 3.62 4.41 5.79 6.26 4.38 3.73 9.67 6.29 15.45 6.73 11.07.84 19.8-7.47 26.18-15.5.97-1.22 1.89-2.5 1.92-4.13s-.69-3.07-1.6-4.35c-1.92-2.7-4.27-4.96-6.93-6.91-1-.74-2.84 0-3.03 1.23-.61 3.87-1.3 8-4.82 10.3-2.77 1.81-6.06 2.36-9.32 2.07-8.16-.74-14.17-7.72-19.5-13.22-1.49-1.53-3.63.72-2.31 2.31"/><path d="M67.67 126.34c.22 11.7.11 23.4-.35 35.09 4.43.48 8.88.75 13.33.82a452 452 0 0 1-4.15-31.5c-.1-1.07-.23-2.2-.9-3.04-.39-.49-.94-.83-1.49-1.13-1.53-.81-3.21-1.33-4.93-1.53"/><path d="M66.14 126.34c-.12 11.69-.42 23.41-.87 35.09-.05 1.19.98 1.93 2.05 2.05 4.43.47 8.88.73 13.33.79 1.42.02 2.16-1.3 1.94-2.55-1.29-7.62-2.4-15.27-3.3-22.94-.22-1.86-.42-3.72-.6-5.59-.17-1.74-.13-3.67-.77-5.32-1.24-3.19-5.57-4.75-8.74-4.83-2.26-.06-2.77 3.44-.54 3.97 1.51.36 3.04.65 4.44 1.34s1.38 1.7 1.53 3.13c.36 3.49.73 6.97 1.14 10.45.83 6.97 1.81 13.93 2.95 20.86l1.94-2.55c-4.46-.09-8.9-.38-13.33-.85l2.05 2.05c.45-11.72.38-23.38-.18-35.09-.09-1.95-3.03-1.97-3.05 0Zm-29.96 22.53c.35 3.43.39 6.91.55 10.36.08 1.73.19 3.46.28 5.19.09 1.7.02 3.62.58 5.25.52 1.51 2.84 1.71 3.27 0 .42-1.69.2-3.52.09-5.25s-.22-3.46-.4-5.19c-.37-3.47-.96-6.9-1.35-10.36-.09-.82-.63-1.5-1.51-1.51-.75 0-1.59.7-1.51 1.51m102.59 2.08c-.58 3.29-1.07 6.58-1.49 9.89-.2 1.61-.34 3.22-.47 4.84-.07.84-.14 1.67-.19 2.51-.06 1.04-.04 1.83.7 2.66.64.72 1.78.6 2.44 0 .8-.73.8-1.66.86-2.66.05-.84.09-1.68.14-2.51.1-1.55.23-3.11.33-4.66.21-3.22.51-6.43.87-9.64.2-1.81-2.87-2.23-3.19-.43M56.82 85.79c-2.93 2.05-4.87 6.05-3.3 9.53.8 1.79 2.88 2.89 4.81 2.43 1.86-.45 2.8-2.21 3.45-3.84.79-1.99 1.45-4.02 1.58-6.18.06-.93-.86-1.81-1.77-1.77-1.01.05-1.72.78-1.77 1.77 0 .17-.02.33-.04.5-.03.35 0 .1 0 .02-.01.08-.02.16-.04.24-.06.38-.15.76-.24 1.13-.18.7-.4 1.38-.65 2.06-.12.34-.25.68-.38 1.01-.06.15-.12.3-.17.44-.07.18.05-.13.06-.13-.05.04-.08.17-.1.23-.12.25-.24.49-.39.72-.01.02-.11.13-.1.15 0-.01.22-.25.09-.12-.04.04-.08.09-.12.13s-.08.09-.13.13c-.07.06-.06.06.04-.02.06-.12.11-.06 0 0-.04.02-.12.06-.15.09-.16.15.17-.09.15-.05 0 .02-.24.07-.24.07-.16.05-.11-.04-.01 0l.11-.02h-.12s-.28-.01-.01.01 0-.01-.07-.03-.32-.1-.08-.01c.22.07.03.01-.02-.02-.03-.02-.32-.21-.32-.2.03-.02.24.23.11.07-.04-.05-.09-.09-.14-.13-.27-.25.06.04.03.06 0 0-.14-.21-.15-.22-.08-.12-.18-.38-.07-.09-.06-.16-.11-.31-.15-.47-.02-.07-.08-.47-.06-.26.02.22 0-.02 0-.06 0-.12-.01-.24-.01-.36 0-.14 0-.29.02-.43 0-.07.01-.14.02-.22 0 .02-.05.3-.01.11.07-.32.12-.63.22-.94.05-.18.11-.35.18-.52.04-.11.21-.46.06-.18.16-.31.3-.62.49-.91.1-.16.2-.3.31-.45s-.02.03-.03.05l.18-.21c.24-.28.51-.53.79-.77.57-.48.54-1.42.12-1.97s-1.32-.82-1.94-.39Zm59.73 2.23c.06 1.96.98 3.76 1.81 5.48s2.08 3.2 3.98 3.56c2.06.4 4.12-.39 5.25-2.2 1.06-1.69.89-3.87-.25-5.47-.61-.86-1.36-1.58-2.14-2.28-.36-.32-.73-.64-1.11-.95l-.63-.51-.26-.2-.37-.29c.23.14.38.34.46.62v.97l.04-.1c.34-.89-.38-2.04-1.27-2.24-1.05-.24-1.86.32-2.24 1.27-.29.72.03 1.52.5 2.07.24.28.58.5.86.73.6.5 1.19 1.02 1.76 1.56.25.24.51.48.75.74.13.14.25.28.38.42.03.03.18.21.03.03-.17-.21.09.14.1.15.09.13.17.27.25.41 0 .01.09.18.09.18-.03.01-.14-.44-.04-.06.02.08.13.59.09.28-.04-.27 0-.05 0 0v.31c0 .2.02-.17.03-.18-.03.04-.04.18-.05.24-.02.07-.16.53-.07.25.07-.25-.09.13-.14.22-.02.04-.16.22 0 .01.18-.23-.06.05-.1.1-.03.03-.18.14-.18.17 0-.02.3-.19.13-.1-.06.03-.36.16-.39.22.03-.05.41-.13.08-.05-.06.02-.12.04-.19.05-.07.02-.35.06-.07.02s-.02 0-.08 0c-.13 0-.33-.05-.45-.02.26-.06.3.06.11 0-.06-.02-.13-.03-.19-.05-.44-.13.18.13-.1-.03-.07-.04-.15-.09-.23-.13-.26-.14.08.01.05.06 0 0-.37-.35-.39-.38-.05-.05-.09-.1-.13-.16-.15-.16.09.1.08.1-.05.02-.52-.85-.57-.95-.39-.71-.77-1.43-1.11-2.16-.04-.08-.27-.62-.13-.29-.04-.1-.08-.19-.12-.29-.05-.12-.32-.81-.21-.5.07.19-.02-.06-.03-.08-.04-.12-.09-.24-.13-.37l-.24-.66c-.28-.77-.95-1.28-1.79-1.17-.78.1-1.44.79-1.42 1.6Zm-28.27 80.05c4.89-2.87 9.74-5.8 14.55-8.82 4.79-3 9.69-5.96 14.21-9.36 1.47-1.1.18-3.54-1.48-2.54-4.86 2.92-9.5 6.2-14.28 9.24s-9.62 6.02-14.49 8.92c-1.63.97-.15 3.51 1.49 2.55Zm20.52.37c3.18-1.29 6.18-2.93 9.09-4.74 1.4-.87 2.78-1.78 4.16-2.7.74-.49 1.47-.98 2.21-1.47s1.6-.97 2.17-1.67c.84-1.04.1-2.89-1.41-2.43s-2.97 1.76-4.3 2.68c-1.4.97-2.81 1.94-4.24 2.87-2.8 1.83-5.7 3.52-8.78 4.85-1.47.63-.4 3.23 1.1 2.61m14.35 2.35q1.02-.51 1.98-1.14c.31-.21.61-.42.9-.65.25-.19.48-.35.68-.59.13-.15.26-.31.38-.47.23-.29.43-.61.41-1-.01-.32-.11-.6-.3-.86a1.4 1.4 0 0 0-1.82-.36c-.32.18-.65.33-.95.55s-.62.45-.93.66c-.63.41-1.28.78-1.96 1.11-.34.17-.63.6-.73.95-.11.38-.06.89.16 1.23s.55.64.95.73c.43.1.83.04 1.23-.16"/></svg>