<?xml version="1.0" encoding="UTF-8"?><svg xmlns="http://www.w3.org/2000/svg" viewBox="0 0 180 180"><path d="M62.85 64.2c-.19 8.21-1.4 16.46-.75 24.68.65 8.23 4.66 15.79 11.56 20.47 1.71 1.16 3.57 2.2 5.5 2.93 1.94.74 4.03 1.8 6.12 1.94 1.31.09 1.58-1.69.63-2.31-1.44-.95-3.16-1.39-4.6-2.36-1.4-.95-2.8-1.91-4.1-3-2.6-2.19-5.09-4.6-6.91-7.5-4.32-6.89-3.71-15.11-3.87-22.92-.08-3.98-.39-7.97-.41-11.95 0-2.04-3.13-2.04-3.17 0Z"/><path d="M63.62 64.85c-1.91-1.5-4.38-1.8-6.55-.66-1.85.98-3.12 2.82-3.94 4.69-1.91 4.32-2.81 10.14-.45 14.46 1.68 3.06 5.21 5.24 8.46 6.27.85.27 1.82-.25 2.15-1.05.37-.91 0-1.71-.74-2.27-2.39-1.82-5.68-2.72-6.74-5.86-.43-1.28-.52-2.63-.45-3.97.05-1.09.11-1.46.34-2.53s.51-2.08.91-3.08c.11-.28.33-.75.56-1.16.14-.25.3-.5.45-.74 0 0 .36-.49.19-.27.28-.36.61-.72.98-1-.25.19.34-.19.4-.23.37-.2-.13.01.24-.1.99-.3 1.56-.15 2.7.05 1.31.23 2.81-1.5 1.48-2.55Zm13.19 58.74c.28-4.98.33-9.97.35-14.96.01-2.41-3.76-2.42-3.75 0 .02 4.99.07 9.98.35 14.96.11 1.96 2.94 1.96 3.05 0"/><path d="M72.31 121.63c-3.27.78-6.59 1.36-9.86 2.12s-6.21 1.53-9.29 2.39c-6.14 1.71-12.33 3.59-18.22 6.04-2.74 1.14-5.33 2.49-7.55 4.5-1.99 1.8-3.57 4.08-4.82 6.44-2.14 4.05-3.75 8.38-4.63 12.87-.49 2.49-.9 5-1.37 7.5-.37 1.98-.59 4.03-1.08 5.99-.52 2.09 2.58 3.59 3.6 1.52 1.75-3.54 2.3-7.49 3.09-11.32s1.82-7.79 3.48-11.53c.99-2.24 2.14-4.52 3.75-6.4 1.73-2.01 3.88-3.41 6.26-4.54 5.44-2.58 11.38-4.27 17.1-6.11 3.35-1.08 6.72-2.09 10.08-3.11s6.86-2.21 10.33-3.11c2.09-.54 1.21-3.74-.89-3.24ZM60.13 76.68c.14.04.27.09.4.15l-.29-.12c.38.16.74.38 1.07.63l-.25-.19c.3.24.57.52.81.82l-.2-.26c.26.34.48.71.65 1.11l-.13-.32c.06.14.11.27.17.41l-.13-.32c.11.27.2.54.34.8.14.27.49.54.78.6s.58.05.85-.07c.25-.11.5-.29.63-.54l.13-.31c.06-.23.06-.47 0-.7-.05-.3-.19-.59-.33-.86-.09-.19-.2-.36-.32-.53-.28-.41-.6-.81-.97-1.14a6.6 6.6 0 0 0-2.58-1.49c-.61-.18-1.35.22-1.49.85-.15.66.2 1.28.85 1.49Zm53.85-12.48c-.01 3.5-.3 7.01-.38 10.51-.09 4.11-.04 8.24-.31 12.34-.25 3.77-1.02 7.42-2.85 10.75-1.66 3.02-3.97 5.51-6.54 7.78-1.42 1.25-2.9 2.34-4.44 3.43-1.69 1.19-3.66 1.78-5.36 2.9-.95.63-.68 2.41.63 2.31 1.85-.13 3.53-1.04 5.25-1.64s3.49-1.46 5.12-2.44c3.36-2.03 6.17-4.8 8.39-8.03 5.16-7.51 4.67-16.53 4.32-25.22-.17-4.23-.56-8.48-.66-12.7-.05-2.04-3.16-2.05-3.17 0Z"/><path d="M117.87 67.4c1.11-.2 1.66-.34 2.61-.07.39.11.06-.02.33.13.06.03.65.41.4.23.37.28.69.64.98 1s.99 1.65 1.2 2.17c.4.99.69 2.03.91 3.08s.28 1.44.34 2.53c.07 1.34-.03 2.69-.45 3.97-1.04 3.14-4.35 4.04-6.74 5.86-.72.55-1.14 1.37-.74 2.27.35.8 1.27 1.33 2.15 1.05 2.9-.92 5.87-2.72 7.73-5.17s2.29-5.46 2.07-8.36c-.32-4.07-1.58-8.98-5.07-11.48-2.21-1.59-5.08-1.42-7.2.25-1.33 1.04.17 2.78 1.48 2.55Zm-11.63 56.19c.28-4.98.33-9.97.35-14.96.01-2.41-3.76-2.42-3.75 0 .02 4.99.07 9.98.35 14.96.11 1.96 2.94 1.96 3.05 0"/><path d="M106.8 124.87c6.09 1.58 12.12 3.62 18.13 5.5 5.93 1.86 11.88 3.75 17.64 6.07 2.37.96 4.77 2.14 6.65 3.89 1.83 1.7 3.15 3.79 4.26 6 1.88 3.75 3.11 7.64 3.99 11.73.93 4.33 1.45 8.91 3.43 12.92 1.01 2.05 4.13.59 3.6-1.52-.44-1.75-.62-3.59-.96-5.36-.42-2.18-.79-4.37-1.19-6.55-.82-4.46-2.13-8.54-4.05-12.67-2.39-5.15-5.92-9.32-11.11-11.78-5.71-2.71-11.98-4.58-18.05-6.32-3.53-1.02-7.08-1.98-10.66-2.82-3.58-.85-7.22-1.49-10.8-2.34-2.1-.5-2.99 2.69-.89 3.24Zm12.43-50.52c-.97.29-1.83.81-2.58 1.49-.37.34-.69.73-.97 1.14-.12.17-.23.35-.32.53-.13.27-.28.56-.33.86-.05.35-.07.7.13 1.01.16.24.36.42.63.54.57.24 1.34.05 1.64-.54.13-.26.22-.53.34-.8l-.13.32c.06-.13.11-.27.17-.41l-.13.32c.17-.4.39-.77.65-1.11l-.2.26c.24-.3.5-.58.81-.82l-.25.19c.33-.25.69-.46 1.07-.63l-.29.12c.13-.06.27-.11.4-.15.3-.1.56-.28.72-.56.15-.26.22-.64.12-.93-.2-.61-.84-1.04-1.49-.85Zm-50.6-.77c3.2-2.43 4.38-6.23 5.33-9.99 1.02-4.03 2.01-8 4.6-11.37 2.27-2.95 5.86-5.08 9.67-4.73 3.13.29 7.04 3.28 6.05 6.81-.51 1.8 1.63 2.71 2.9 1.69 3.33-2.67 6.33 1.28 7.9 3.93 2.18 3.7 4.77 7.59 9.41 8.06.97.1 1.78-.89 1.79-1.79.01-1.05-.83-1.68-1.79-1.79-2.13-.23-3.75-2.26-4.76-3.98-1.25-2.14-2.31-4.37-4.01-6.21-1.53-1.65-3.52-2.7-5.77-2.88-2.06-.16-4.52.59-5.49 2.55 1.08.29 2.15.58 3.23.88.36-3.34-.84-6.86-3.34-9.2-2.82-2.65-6.85-3.28-10.51-2.32-8.03 2.11-11.73 10.04-13 17.58-.63 3.73-.78 7.91-3.95 10.49-1.26 1.02.44 3.26 1.75 2.27Z"/><path d="M59.94 58.28c-4.19-7.95 2.91-16.97 8.05-22.52 2.7-2.91 5.85-5.72 9.66-7.05 3.2-1.12 6.59-1.2 9.86-.32 3.76 1.01 7.3 3.09 9.91 5.98.57.63 1.7.61 2.27 0 .71-.76 1.34-1.25 2.4-1.32.96-.06 1.98-.05 2.94.04 1.99.18 3.75.97 5.41 2.06s3.08 2.58 4.37 4.09c1.45 1.69 2.82 3.46 3.79 5.48 1.29 2.69 1.29 5.34.32 8.01-.79 2.19-2 4.43-2.52 6.91-.35 1.68 1.98 2.86 2.88 1.22 1.06-1.92 2.46-3.58 3.38-5.59 1.21-2.66 1.68-5.53 1.23-8.42-.59-3.73-2.77-6.95-5.14-9.8-2.53-3.04-5.53-5.84-9.32-7.16-1.94-.68-4.1-.92-6.13-.58-1.03.17-1.89.64-2.8 1.11s-1.88.85-2.74 1.42l2.2.58c-4.31-7.69-13.87-10.99-22.25-8.8-4.69 1.23-8.76 4.31-12.01 7.8-3.35 3.6-6.6 7.77-8.6 12.29-2.29 5.17-2.82 11.1.2 16.11 1.02 1.7 3.58.2 2.66-1.55Zm-5.3 26.64c-1.22 1.84-2.23 3.87-3.27 5.83-1 1.88-1.91 3.88-2.38 5.97-.82 3.66-.3 7.79 2.1 10.77a8.8 8.8 0 0 0 1.99 1.82c.33.22.7.45 1.07.62.73.33.09.14.07-.12.02.19.03.4.03.59-.05 2.11.18 4.05 1.35 5.88 1.82 2.82 4.58 4.19 7.66 5.22 3.04 1.02 6.28 2.09 9.49 2.31 1.7.11 2.52-2.61.9-3.32-2.32-1.02-4.76-1.76-7.15-2.61-2.38-.85-4.64-1.36-6.38-3.2-1.18-1.25-1.29-2.45-1.22-4.09.1-2.22-.8-3.79-2.71-4.89-2.56-1.48-3.21-4.39-2.89-7.19.51-4.43 3.6-7.96 4.62-12.2.49-2.01-2.16-3.08-3.28-1.38Zm66.94 2.28c-.22 2.34.23 4.7.92 6.93.63 2.06 1.51 4.06 1.81 6.21.22 1.54.24 3.36-.67 4.7-1 1.48-2.81 2.03-3.32 3.91s1.05 3.39.77 5.28c-.25 1.68-1.33 3.23-2.62 4.28-3.59 2.93-8.3 1.97-12.48 2.86-2 .43-2.07 3.73 0 4.11 3.78.69 8.28.09 11.82-1.39 3.3-1.37 5.93-4.01 7.07-7.43.52-1.57.6-3.31.23-4.92-.09-.39-.23-.76-.38-1.13-.05-.12-.17-.59-.28-.65-.28-.15.05-.09-.16.17.44-.52 1.01-.89 1.52-1.35 2.59-2.31 3-5.94 2.48-9.19-.67-4.27-3.88-8-3.64-12.41.11-1.99-2.88-1.93-3.06 0ZM87.07 73.62c-.22 3.05-.32 6.11-.31 9.17 0 1.5.07 3 .15 4.5.09 1.56.02 3.33.67 4.76.57 1.26 2.56.86 2.87-.38.36-1.43 0-3.1-.09-4.56s-.14-3-.19-4.5c-.09-3-.06-6 .08-8.99.09-2.06-3.04-2.03-3.19 0Zm-2.52-3.15c-2.84-.74-5.76-1.16-8.69-1.25-2.07-.06-4.34.11-5.85 1.53-1.21 1.13-1.69 2.9-1.55 4.55s.85 3.21 1.72 4.62c.53.86 1.13 1.7 1.96 2.29.85.6 1.88.89 2.88 1.17.9.25 1.8.5 2.73.57 8.02.55 7.28-6.4 7.52-12.08.01-.28.02-.57-.12-.82-.18-.32-.57-.46-.93-.57-1.5-.44-3.05-.72-4.61-.82"/><path d="M84.94 69.06c-.62-.21-1.2-.51-1.84-.69-.73-.21-1.46-.39-2.21-.53-1.39-.26-2.81-.47-4.22-.59-2.37-.19-5.06-.14-7.12 1.23s-3.27 3.91-3.19 6.45c.09 2.69 1.41 5.22 3.06 7.28 1.67 2.1 4.2 2.92 6.75 3.4 2.08.39 4.4.36 6.34-.57.91-.44 1.24-.72 1.89-1.38.53-.54.97-1.18 1.3-1.86.71-1.49.98-3.08 1.15-4.71.17-1.73.22-3.48.25-5.22.03-1.8-1.04-2.77-2.68-3.25-1.54-.45-3.18-.8-4.79-.83-1.01-.02-1.87.87-1.87 1.87 0 1.11.86 1.74 1.87 1.87s1.94.21 2.9.42c.36.08 1.06.43 1.43.37l-.51-.74v.46c0 .18-.01.36-.01.54-.03 1.26-.03 2.52-.1 3.77-.08 1.27-.11 1.9-.53 3.18-.05.15-.1.3-.16.45.03-.07.14-.3 0 0-.11.23-.23.45-.37.67 0 0-.28.4-.12.19s-.15.17-.15.17l-.27.27c-.29.3.09-.02-.18.14-.11.06-.75.37-.44.24-.27.11-.55.2-.83.28-.6.15-1.09.18-1.9.16-.88-.03-1.7-.23-2.55-.47-.91-.26-1.97-.47-2.72-1.09-1.3-1.06-2.1-3.08-2.45-4.66-.31-1.37-.16-2.81.83-3.68 1.24-1.1 3.32-1 5.03-.97 1.3.03 2.59.09 3.89.22s2.54.19 3.76.4c1.84.31 2.58-2.2.78-2.82Zm9.99 1.41c2.84-.74 5.76-1.16 8.69-1.25 2.07-.06 4.34.11 5.85 1.53 1.21 1.13 1.69 2.9 1.55 4.55s-.85 3.21-1.72 4.62c-.53.86-1.13 1.7-1.96 2.29-.85.6-1.88.89-2.88 1.17-.9.25-1.8.5-2.73.57-8.02.55-7.28-6.4-7.52-12.08-.01-.28-.02-.57.12-.82.18-.32.57-.46.93-.57 1.5-.44 3.05-.72 4.61-.82"/><path d="M95.32 71.88c1.01-.17 2.09-.21 3.11-.33 1.18-.13 2.37-.24 3.56-.28 1.73-.06 3.64-.21 5.18.43 1.29.54 1.81 1.76 1.8 3.09-.01 1.75-.9 3.7-1.95 5.07-1.07 1.4-3.08 1.79-4.72 2.12-1.45.3-2.66.2-3.93-.31.32.13-.01 0-.09-.05-.12-.06-.23-.13-.35-.19-.42-.24.14.14-.07-.04-.1-.08-.19-.17-.28-.26s-.17-.18-.25-.28c-.19-.22.21.34-.04-.06-.16-.26-.32-.52-.45-.8-.03-.06-.13-.31 0 0-.06-.15-.11-.3-.16-.45-.08-.23-.14-.47-.2-.71-.18-.74-.2-.94-.25-1.48-.14-1.4-.14-2.81-.17-4.21 0-.36-.02-.73-.03-1.09v-.18c.04-.56-.13-.41-.52.45.13.06.69-.2.82-.23 1.16-.29 2.33-.41 3.51-.56 1-.13 1.87-.77 1.87-1.87 0-1-.85-1.88-1.87-1.87-1.41.02-2.83.3-4.19.66-1.32.35-2.71.8-3.15 2.24-.27.9-.1 1.97-.07 2.91q.03 1.155.09 2.31c.09 1.55.24 3.17.74 4.66.24.73.55 1.46.99 2.09.23.33.48.65.75.94.1.11.21.21.33.31s.71.56.42.34c1.55 1.2 3.4 1.61 5.34 1.59 1.36-.02 2.68-.31 3.99-.67 1.2-.33 2.42-.72 3.43-1.47 2.04-1.51 3.67-4.25 4.3-6.7s.21-5.24-1.46-7.27c-1.8-2.19-4.81-2.64-7.48-2.54-1.56.06-3.12.27-4.65.54-.8.14-1.59.31-2.38.52s-1.53.55-2.3.82c-1.8.62-1.07 3.13.78 2.82Z"/><path d="M85.86 75.13c.4.11.71.1 1.12.04.17-.02.2-.03.07-.01-.23.03-.1.02.37-.05.34-.05.69-.15 1.03-.17-.42.03.02 0 .12-.01.2-.02.39-.04.59-.05.32-.02.64-.03.96-.04.67-.02 1.33-.03 2 .02.15.01.3.03.44.04.21.02.14.01-.18-.03.07.01.15.03.22.04.18.04.39.19-.05-.05.17.1.13.06-.13-.13.47.36.52.4.16.14.69.66 1.76.74 2.52.15.7-.54 1.05-1.69.49-2.47-.7-.99-1.64-1.35-2.8-1.46-.76-.07-1.53-.06-2.29 0-.9.06-1.8.21-2.68.42s-2 .43-2.61 1.14c-.72.83-.49 2.19.66 2.5Zm1.22 25.33c1.03.4 2.15.59 3.25.52.6-.04 1.2-.12 1.78-.27.29-.07.58-.16.85-.28.22-.09.4-.17.6-.32.32-.25.49-.53.64-.91.12-.32.03-.85-.15-1.13-.22-.34-.5-.53-.88-.67-.62-.25-1.23.08-1.81.26-.4.12-.81.21-1.22.26l.41-.06c-.51.06-1.01.07-1.53.07-.25 0-.49-.02-.73-.04-.05 0-.27-.03-.04 0s0 0-.04 0c-.14-.02-.27-.05-.41-.08-.7-.16-1.53.21-1.7.97-.18.79.24 1.42.97 1.7Zm-50 56.77c-.19 1.97-.42 3.93-.54 5.91-.12 1.96-.19 3.95-.19 5.91 0 1 .88 1.96 1.91 1.91s1.87-.84 1.91-1.91c.09-1.96.12-3.95.09-5.91s-.17-3.94-.26-5.91c-.04-.79-.64-1.46-1.46-1.46s-1.39.67-1.46 1.46m107.55-1.45c-.15 2.46-.13 4.93-.1 7.39.01 1.18.03 2.36.04 3.55 0 .59.01 1.18.02 1.77 0 .34.01.69.02 1.03v.44c.01.37.02.39.03.07l.88-1.15.29-.1c.48.06.96.13 1.44.19l-.05-.03.65.65-.02-.05-.63 2.4.04-.03c.98-.69 1.06-1.77.35-2.69l-.03-.04c-.48-.62-1.5-.61-2.13-.27-.32.17-.55.42-.74.73-.33.56-.35 1.33 0 1.89l.03.05c.52.82 1.75 1.3 2.63.69 1.42-.99 1.12-2.57 1.08-4.09-.04-1.38-.08-2.76-.13-4.14-.08-2.76-.16-5.53-.44-8.28-.21-2.05-3.11-2.11-3.23 0Zm-71.97-32.03c2.04 6.3 4.62 12.43 7.61 18.34 1.49 2.95 3.09 5.85 4.77 8.69 1.63 2.75 3.35 5.89 5.66 8.12 1.07 1.03 3.38 0 2.72-1.58-1.22-2.93-3.19-5.63-4.82-8.36-1.66-2.77-3.22-5.6-4.69-8.48-2.94-5.74-5.52-11.65-7.86-17.67-.8-2.06-4.1-1.26-3.39.93Z"/><path d="M103.65 123.57c-.04 1.21-.89 2.37-1.43 3.42-.63 1.21-1.24 2.43-1.88 3.63-1.31 2.48-2.71 4.91-4.14 7.32-1.4 2.35-2.86 4.65-4.39 6.91-1.57 2.32-3.32 4.53-4.84 6.87-1.27 1.94 1.69 4.28 3.24 2.5 1.99-2.28 3.71-4.91 5.37-7.44s3.25-5.12 4.74-7.76 2.79-5.22 4.06-7.89c.65-1.38 1.25-2.77 1.83-4.18s.96-2.7.29-4.15-2.79-.63-2.84.77Z"/><path d="M68.92 123.79c-3.45 6.68-6.43 13.6-8.9 20.7a73.5 73.5 0 0 0 16.84 3.68q-3.12 3.465-5.94 7.17c-.56.73-1.14 1.56-1.07 2.48.04.54.3 1.04.56 1.51 1.8 3.31 3.72 6.57 5.74 9.75.37.58.77 1.19 1.37 1.52.62.34 1.36.35 2.06.34 6.41-.02 12.82-.12 19.23-.31.92-.03 1.88-.06 2.7-.49.77-.4 1.34-1.11 1.88-1.8 2.13-2.72 4.27-5.44 6.4-8.17.51-.65 1.04-1.35 1.09-2.17.06-.93-.5-1.77-1.05-2.53a142 142 0 0 0-6.53-8.37l11.45 1.53c.35.05.74.09 1.03-.12.32-.23.39-.67.43-1.06.29-2.94.37-5.91.35-8.86-.03-3.9-.25-7.9-1.74-11.5s-4.48-6.8-8.31-7.58c.8 6.37-2.17 12.64-5.91 17.86s-8.34 9.84-11.56 15.4c-4.45-4.51-6.99-10.53-9.11-16.49-2.22-6.23-4.1-12.59-6.63-18.7-2.32 2.3-4.17 5.07-5.42 8.08"/><path d="M67.49 122.96c-3.69 6.74-6.8 13.77-9.38 21.01-.38 1.05.43 2.1 1.38 2.43 5.63 1.96 11.44 3.21 17.37 3.85l-1.47-3.54c-1.99 2.18-3.89 4.42-5.69 6.76-.81 1.04-1.63 2.07-1.89 3.4-.31 1.62.46 2.99 1.22 4.36 1.44 2.62 2.95 5.19 4.54 7.72.64 1.02 1.25 2.16 2.17 2.96 1.24 1.06 2.77 1.15 4.34 1.15 6.16-.02 12.33-.13 18.49-.32 1.31-.04 2.62-.11 3.82-.71 1.18-.58 1.98-1.58 2.78-2.6 1.93-2.46 3.86-4.93 5.79-7.4 1.03-1.32 2.09-2.65 1.98-4.42-.09-1.52-1-2.74-1.87-3.91-2.02-2.74-4.14-5.41-6.34-8.01-.47 1.14-.95 2.29-1.42 3.43 2.37.31 4.74.62 7.1.94l3.34.45c1.21.16 2.48.35 3.46-.57 1.45-1.37 1.18-4.09 1.27-5.92.12-2.4.16-4.82.08-7.23-.13-4.22-.71-8.62-2.87-12.33-1.93-3.32-4.81-6.02-8.64-6.88-1.15-.26-2.7.57-2.55 1.94 1.44 13.09-11.25 22.06-17.21 32.23l3.19-.41c-4.16-4.28-6.55-9.85-8.55-15.39-2.27-6.29-4.24-12.68-6.74-18.89-.54-1.33-2.14-2-3.28-.87-2.61 2.58-4.53 5.57-5.92 8.95-.84 2.04 2.7 3.55 3.58 1.51 1.24-2.85 2.95-5.45 5.12-7.68l-3.28-.87c2.69 6.43 4.58 13.15 6.94 19.7 2.15 5.96 4.79 11.8 9.25 16.4.92.94 2.54.7 3.19-.41 6.41-10.93 19.37-20.14 17.72-34.28-.85.65-1.7 1.29-2.55 1.94 4.61 1.01 7.08 5.27 7.97 9.59.53 2.56.57 5.19.59 7.8.01 1.48 0 2.96-.06 4.44-.03.74-.06 1.48-.11 2.22-.02.33-.05.66-.07.98l-.06.74c-.07.44 0 .34.23-.29l1.01-.27c-1.84.12-3.9-.43-5.73-.67-1.97-.26-3.94-.53-5.91-.8s-3.31 1.73-1.95 3.36c1.52 1.82 2.99 3.67 4.41 5.56.68.91 1.37 1.81 2 2.75.17.26.54.65.52.97-.02.42-.56.97-.8 1.28-1.52 1.95-3.05 3.89-4.58 5.83-.7.89-1.37 1.82-2.12 2.67-.68.76-1.3.9-2.3.94-5.07.19-10.16.23-15.24.27-1.23 0-2.47.02-3.7.02-1.07 0-1.51.11-2.1-.81-1.26-1.99-2.49-4.01-3.67-6.05-.67-1.16-1.32-2.32-1.96-3.5-.25-.46-.4-.62-.28-1.06s.63-.93.91-1.3c1.7-2.21 3.49-4.37 5.34-6.46 1.25-1.42.34-3.37-1.47-3.54-5.56-.53-11.02-1.74-16.31-3.51l1.38 2.43c2.39-6.96 5.22-13.77 8.42-20.39.92-1.9-1.83-3.56-2.86-1.67Z"/></svg>