<?xml version="1.0" encoding="UTF-8"?><svg xmlns="http://www.w3.org/2000/svg" viewBox="0 0 180 180"><path d="M62.89 59.44c-.11 4.97-.53 9.96-.72 14.93-.18 4.81-.54 9.7-.11 14.51.75 8.28 4.65 15.72 11.62 20.43 1.72 1.16 3.56 2.17 5.5 2.91s3.97 1.81 6.1 2.01c1.3.12 1.59-1.71.63-2.31-1.45-.92-3.16-1.39-4.63-2.31s-2.81-1.94-4.1-3.01c-2.61-2.17-5.06-4.65-6.87-7.53-4.46-7.1-3.62-15.66-3.77-23.69l-.15-7.72c-.05-2.74-.3-5.48-.31-8.21 0-2.04-3.13-2.04-3.17 0Z"/><path d="M63.62 64.85c-1.91-1.5-4.38-1.8-6.55-.66-1.85.98-3.12 2.82-3.94 4.69-1.91 4.32-2.81 10.14-.45 14.46 1.68 3.06 5.21 5.24 8.46 6.27.85.27 1.82-.25 2.15-1.05.37-.91 0-1.71-.74-2.27-2.39-1.82-5.68-2.72-6.74-5.86-.43-1.28-.52-2.63-.45-3.97.05-1.09.11-1.46.34-2.53s.51-2.08.91-3.08c.11-.28.33-.75.56-1.16.14-.25.3-.5.45-.74 0 0 .36-.49.19-.27.28-.36.61-.72.98-1-.25.19.34-.19.4-.23.37-.2-.13.01.24-.1.99-.3 1.56-.15 2.7.05 1.31.23 2.81-1.5 1.48-2.55Zm11.19 58.74c.28-4.98.33-9.97.35-14.96.01-2.41-3.76-2.42-3.75 0 .02 4.99.07 9.98.35 14.96.11 1.96 2.94 1.96 3.05 0"/><path d="M72.31 121.63c-3.27.78-6.59 1.36-9.86 2.12s-6.21 1.53-9.29 2.39c-6.14 1.71-12.33 3.59-18.22 6.04-2.74 1.14-5.33 2.49-7.55 4.5-1.99 1.8-3.57 4.08-4.82 6.44-2.14 4.05-3.75 8.38-4.63 12.87-.49 2.49-.9 5-1.37 7.5-.37 1.98-.59 4.03-1.08 5.99-.52 2.09 2.58 3.59 3.6 1.52 1.75-3.54 2.3-7.49 3.09-11.32s1.82-7.79 3.48-11.53c.99-2.24 2.14-4.52 3.75-6.4 1.73-2.01 3.88-3.41 6.26-4.54 5.44-2.58 11.38-4.27 17.1-6.11 3.35-1.08 6.72-2.09 10.08-3.11s6.86-2.21 10.33-3.11c2.09-.54 1.21-3.74-.89-3.24ZM60.13 76.68c.14.04.27.09.4.15l-.29-.12c.38.16.74.38 1.07.63l-.25-.19c.3.24.57.52.81.82l-.2-.26c.26.34.48.71.65 1.11l-.13-.32c.06.14.11.27.17.41l-.13-.32c.11.27.2.54.34.8.14.27.49.54.78.6s.58.05.85-.07c.25-.11.5-.29.63-.54l.13-.31c.06-.23.06-.47 0-.7-.05-.3-.19-.59-.33-.86-.09-.19-.2-.36-.32-.53-.28-.41-.6-.81-.97-1.14a6.6 6.6 0 0 0-2.58-1.49c-.61-.18-1.35.22-1.49.85-.15.66.2 1.28.85 1.49Zm53.81-17.24c-.01 4.64-.33 9.3-.42 13.94s.01 9.13-.27 13.67c-.24 3.76-.98 7.42-2.8 10.75-1.65 3.02-3.97 5.51-6.5 7.82-1.39 1.27-2.91 2.36-4.44 3.45-1.68 1.2-3.67 1.75-5.4 2.84-.96.61-.67 2.43.63 2.31 1.85-.17 3.52-1.02 5.24-1.69s3.48-1.43 5.11-2.43c3.36-2.05 6.19-4.75 8.42-7.99 5.24-7.64 4.75-16.91 4.42-25.76l-.31-8.21c-.11-2.91-.42-5.81-.48-8.71-.04-2.04-3.17-2.05-3.17 0Z"/><path d="M117.87 67.4c1.11-.2 1.66-.34 2.61-.07.39.11.06-.02.33.13.06.03.65.41.4.23.37.28.69.64.98 1s.99 1.65 1.2 2.17c.4.99.69 2.03.91 3.08s.28 1.44.34 2.53c.07 1.34-.03 2.69-.45 3.97-1.04 3.14-4.35 4.04-6.74 5.86-.72.55-1.14 1.37-.74 2.27.35.8 1.27 1.33 2.15 1.05 2.9-.92 5.87-2.72 7.73-5.17s2.29-5.46 2.07-8.36c-.32-4.07-1.58-8.98-5.07-11.48-2.21-1.59-5.08-1.42-7.2.25-1.33 1.04.17 2.78 1.48 2.55Zm-9.63 56.19c.28-4.98.33-9.97.35-14.96.01-2.41-3.76-2.42-3.75 0 .02 4.99.07 9.98.35 14.96.11 1.96 2.94 1.96 3.05 0"/><path d="M106.8 124.87c6.09 1.58 12.12 3.62 18.13 5.5 5.93 1.86 11.88 3.75 17.64 6.07 2.37.96 4.77 2.14 6.65 3.89 1.83 1.7 3.15 3.79 4.26 6 1.88 3.75 3.11 7.64 3.99 11.73.93 4.33 1.45 8.91 3.43 12.92 1.01 2.05 4.13.59 3.6-1.52-.44-1.75-.62-3.59-.96-5.36-.42-2.18-.79-4.37-1.19-6.55-.82-4.46-2.13-8.54-4.05-12.67-2.39-5.15-5.92-9.32-11.11-11.78-5.71-2.71-11.98-4.58-18.05-6.32-3.53-1.02-7.08-1.98-10.66-2.82-3.58-.85-7.22-1.49-10.8-2.34-2.1-.5-2.99 2.69-.89 3.24Zm12.43-50.52c-.97.29-1.83.81-2.58 1.49-.37.34-.69.73-.97 1.14-.12.17-.23.35-.32.53-.13.27-.28.56-.33.86-.05.35-.07.7.13 1.01.16.24.36.42.63.54.57.24 1.34.05 1.64-.54.13-.26.22-.53.34-.8l-.13.32c.06-.13.11-.27.17-.41l-.13.32c.17-.4.39-.77.65-1.11l-.2.26c.24-.3.5-.58.81-.82l-.25.19c.33-.25.69-.46 1.07-.63l-.29.12c.13-.06.27-.11.4-.15.3-.1.56-.28.72-.56.15-.26.22-.64.12-.93-.2-.61-.84-1.04-1.49-.85ZM70.71 52.21c4.33-5.62 13.4-7.9 18.76-2.35 2.69 2.79 3.42 6.89 5.58 10.03 2.15 3.14 5.78 6.12 9.81 4.97 2.2-.63 1.5-3.45-.5-3.71-3.87-.5-5.82-4.05-7.31-7.25-1.81-3.89-3.73-7.61-7.69-9.68-3.66-1.91-8.01-2.32-11.94-.99-3.94 1.33-7.14 4-9.63 7.27-.56.73-.11 1.89.61 2.32.87.52 1.76.11 2.32-.61Zm29.92-5.39c1.27 2.3 2.73 4.5 4.4 6.52a42 42 0 0 0 3.87 4.11c.69.64 1.43 1.37 2.43 1.32 1.25-.05 1.87-1.08 1.7-2.23-.12-.83-.89-1.37-1.48-1.87-.45-.39-.9-.78-1.34-1.19q-1.35-1.245-2.58-2.61c-1.66-1.84-3.02-3.54-4.34-5.6-.45-.7-1.37-.99-2.12-.55s-.96 1.38-.55 2.12ZM64.87 60.59c.48-.21.89-.56 1.29-.9.31-.27.6-.57.86-.89.66-.81 1.28-1.73 1.51-2.77.17-.75-.16-1.5-.89-1.81-.66-.28-1.57-.06-1.91.63-.36.73-.7 1.45-1.2 2.1l.24-.32c-.38.49-.82.93-1.31 1.3l.31-.24c-.24.18-.47.37-.7.58-.26.24-.45.7-.43 1.04s.11.63.32.89c.19.24.46.46.77.53l.39.05c.27 0 .51-.07.75-.2Z"/><path d="M62.14 63.35c-1.68-3.42-2.96-7.06-3.74-10.79-.29-1.39-.19-2.48.96-3.38 1.08-.85 2.48-1.29 3.78-1.69 1.11-.34 1.6-1.37 1.41-2.47-.43-2.47-.87-5.01-.6-7.52.25-2.3 1.29-4.35 2.84-6.05 2.94-3.23 6.91-5.47 11.05-6.75 4.23-1.31 8.67-1.66 13.06-1.24 4.7.45 9.19 2.06 13.61 3.64 2.63.94 5.27 1.89 7.98 2.59s5.81 1.49 8.6.92c1.84-.38 1.7-3.13 0-3.59-1.27-.34-2.56-.38-3.86-.59a37 37 0 0 1-4.05-.9c-2.63-.72-5.2-1.63-7.77-2.54-4.93-1.74-9.86-3.32-15.11-3.73-9.45-.73-20.1 2.15-26.55 9.45-1.98 2.24-3.34 4.83-3.76 7.8-.45 3.21.1 6.41.67 9.57l1.41-2.47c-3.6 1.13-7.82 3.19-7.8 7.57.01 2.39 1.06 4.93 1.89 7.14.87 2.31 1.9 4.57 3.07 6.74 1.04 1.93 3.86.23 2.91-1.7Zm55.76-24.83c2.2-.02 4.41-.01 6.61 0h1.89c-.31-.28-.4-.29-.28-.02l.11.33c.23.77.41 1.55.46 2.35.18 3.17-1.13 6.17-3.59 8.17-.77.62-.69 1.75-.33 2.54.54 1.18.99 2.5 1.66 3.61-.19-.32.34-.62-.22-.08-.23.22-.42.5-.62.75-.47.56-.93 1.12-1.4 1.68-1.72 2.07-3.42 4.14-5.05 6.28-1.39 1.84 1.66 4.16 3.19 2.46 2.27-2.52 4.4-5.18 6.56-7.8 1.01-1.23 2.06-2.4 1.67-4.12s-1.45-3.35-2.17-4.89l-.33 2.54c3.61-2.97 5.23-7.8 4.54-12.37-.33-2.2-1.28-5-3.89-5.01-2.93 0-5.89.3-8.81.41-2.03.08-2.05 3.19 0 3.17M58.06 86.25c-2.5 1.06-4.48 3.2-5.65 5.64s-2.03 6.11-.19 8.57c1.87 2.5 5.85 3.24 8.71 2.22 1.51-.54 2.75-1.53 3.55-2.92.64-1.1 1.02-2.38 1.2-3.9.36-3.03.11-6.26-2.02-8.63-.77-.85-2.19-.66-2.84.19-.75.97-.38 2.12.53 2.8-.26-.19.31.36.13.13.13.17.24.37.34.56.14.27.26.72.39 1.21.08.3-.02-.19.03.12.02.1.02.2.03.29.02.26.04.52.05.77.02.51 0 1.01-.03 1.51 0 .03-.04.34 0 .1-.02.12-.04.25-.07.37-.04.22-.09.43-.15.65s-.12.42-.19.63c-.04.12-.08.24-.13.35.1-.23-.04.06-.08.14-.1.19-.22.36-.34.54.17-.25.01-.01-.03.04-.08.09-.16.18-.25.26s-.18.16-.27.25c.03-.02.24-.17.05-.04-.24.17-.5.31-.76.45-.06.03-.36.13-.06.03-.13.04-.25.08-.38.12-.1.03-.2.05-.29.07-.06.01-.47.07-.22.04.23-.02-.11 0-.12 0-.14 0-.27.01-.41.01h-.41c-.05 0-.59-.04-.33-.01s-.17-.03-.22-.04l-.3-.06c-.27-.06-.53-.14-.79-.22-.06-.02-.38-.16-.06-.01-.09-.04-.18-.09-.27-.14-.04-.02-.41-.24-.21-.11.17.11-.23-.22-.24-.23.26.25-.07-.16-.15-.27-.17-.25.06.28 0-.01-.03-.12-.08-.25-.11-.37-.02-.09-.04-.19-.06-.29.08.38 0 .07 0-.02 0-.3-.01-.59 0-.9 0-.1.02-.2.03-.3-.04.39 0 .05.01-.03.05-.26.1-.52.17-.77.13-.51.29-1.01.47-1.5.02-.05.15-.35.02-.06.05-.12.11-.24.17-.36q.195-.405.42-.78c.225-.375.31-.5.48-.75.07-.11.15-.21.23-.32-.12.16.02-.02.07-.08.76-.89 1.58-1.75 2.5-2.48.61-.48.57-1.52.12-2.07-.53-.67-1.29-.72-2.04-.41Zm60.84 2.68c.44.12.88.22 1.31.36.22.07.43.15.64.23.3.12-.21-.1.08.04.12.06.23.11.35.17.41.21.8.44 1.18.69.19.12.38.25.57.38.33.23.12.09.05.04.1.08.2.17.3.25.34.3.67.62.97.96.06.06.52.62.29.33.16.21.31.42.46.63.25.38.47.78.68 1.18.11.2.07.13.18.44.04.11.08.22.11.34.02.05.14.57.11.41 0 0 0 .43.01.61 0-.03.08-.34.02-.1-.03.12-.05.24-.09.36-.03.09-.06.18-.08.27.09-.34.05-.1 0 0-.12.22-.24.44-.39.64.23-.32-.14.13-.23.22s-.52.45-.22.23c-.18.13-.37.26-.57.37-.11.06-.23.11-.34.18-.25.16.27-.07-.02.01-.26.07-.51.17-.78.23.26-.05-.1.02-.14.02h-.36c-.36.02.25.07-.06-.01-.1-.03-.2-.05-.3-.08-.41-.12-.15-.06-.06-.02-.12-.06-.24-.13-.36-.2-.33-.19-.17-.1-.08-.03-.11-.08-.21-.18-.31-.28-.15-.14-.3-.3-.42-.46.17.22-.04-.08-.06-.11-.07-.13-.16-.25-.23-.38-.14-.25-.28-.52-.39-.79.02.05.09.22 0-.01-.06-.17-.13-.35-.18-.52q-.15-.45-.27-.9c-.17-.63-.31-1.28-.41-1.93-.18-1.12-.13-2.81-.31-4.14-.11-.83-1.1-1.43-1.88-1.43-.85 0-1.65.6-1.88 1.43-.44 1.62-.23 3.37 0 5.01.2 1.41.53 2.8 1.07 4.11 1.29 3.14 3.96 5.45 7.52 4.88 2.72-.43 5.35-2.7 5.92-5.45.6-2.93-.97-5.96-3-8.01s-4.99-3.61-7.94-3.61c-1.97 0-2.38 2.91-.47 3.44Zm-58.93 38.51c4.57 9.14 12.71 16.46 22.48 19.6 10.49 3.37 22.56 1.7 31.37-5.04 4.75-3.63 8.43-8.4 10.7-13.93.89-2.18-2.86-3.78-3.83-1.61-3.95 8.86-11.55 15.3-21.11 17.26-9.35 1.92-19.11-.7-26.62-6.48-4.05-3.12-7.44-7.14-9.98-11.57-1.13-1.97-4.02-.23-3.02 1.77Z"/><path d="M50.05 130.24c-.46 2.17-.91 4.41-.52 6.6s1.85 4.33 4 4.86c1.78.43 3.73-.28 5.46.33 4.14 1.45 3.15 8.31 6.74 10.82 3.63 2.54 8.57-1.22 12.95-.52 2.83.45 4.97 2.69 7.25 4.43 4.54 3.46 11.27 5.06 15.87 1.68 1.6-1.18 2.87-2.9 4.75-3.56 3.24-1.14 6.59 1.32 10.01 1.66 3.5.36 7.11-1.81 8.45-5.06 1.23-2.99.77-6.78 3.07-9.05 1.36-1.35 3.38-1.79 4.93-2.92 1.8-1.32 2.85-3.6 2.67-5.83 7.25.55 13.73 5.22 17.89 11.18s6.27 13.1 7.68 20.23c.18.93.35 1.94-.05 2.8-.69 1.5-2.66 1.81-4.31 1.91-38.04 2.34-76.17 3.18-114.28 2.5-8.27-.15-16.64-.38-24.62-2.59 2.88-4.99 2.42-11.21 4.24-16.67 1.83-5.49 5.93-9.99 10.65-13.33s10.08-5.64 15.4-7.92"/><path d="M48.59 129.84c-1.22 4.46-1.82 10.08 2.74 12.92.91.57 1.97.85 3.03.93 1.22.1 2.52-.25 3.72.02 1.21.28 1.79 1.43 2.21 2.5 1.2 3.09 1.74 6.78 4.91 8.56 3.86 2.16 7.77-.34 11.72-.57 2.15-.12 3.83.9 5.46 2.2 1.75 1.39 3.42 2.83 5.43 3.85 3.76 1.9 8.4 2.82 12.45 1.26 2.15-.83 3.64-2.29 5.38-3.74s3.3-1.27 5.31-.64c2.18.68 4.34 1.62 6.67 1.54 2.12-.07 4.22-.79 5.93-2.06 2-1.49 3.34-3.52 3.98-5.93.53-2.02.45-4.62 1.74-6.36.6-.82 1.59-1.24 2.48-1.67 1.16-.56 2.26-1.12 3.23-1.97 1.97-1.72 3-4.41 2.88-6.99l-2.16 2.16c10.47.93 17.53 10.53 20.73 19.71.91 2.62 1.62 5.3 2.22 8.01.16.71.31 1.42.45 2.14.06.32.26.99.06 1.28-.37.54-1.65.53-2.24.57-6.36.46-12.74.76-19.11 1.06-25.65 1.21-51.34 1.75-77.02 1.62-7.16-.04-14.33-.1-21.49-.27-6.96-.17-13.92-.6-20.66-2.44l1.36 3.35c2.15-3.85 2.58-8.14 3.29-12.41.66-3.99 1.89-7.62 4.39-10.85 5.4-6.98 13.87-10.54 21.75-13.92 1.09-.47 1.33-2.07.79-3-.66-1.13-1.91-1.26-3-.79-8.32 3.56-17.01 7.42-22.75 14.73a26.65 26.65 0 0 0-5.25 11.42c-.84 4.2-1.02 8.7-3.15 12.51-.72 1.28-.08 2.96 1.36 3.35 6.5 1.77 13.25 2.33 19.96 2.55 6.72.22 13.45.26 20.17.31 13.75.1 27.51 0 41.26-.28 13.58-.29 27.16-.81 40.74-1.49 3.48-.17 6.95-.35 10.42-.55 1.65-.09 3.31-.19 4.96-.29 1.53-.09 3.12-.09 4.61-.48 3.07-.81 4.51-3.31 4.04-6.38-.45-2.99-1.23-5.99-2.12-8.88-1.92-6.24-4.85-12.3-9.47-17-4.35-4.42-10.08-7.39-16.29-7.91-1.12-.09-2.22 1.07-2.16 2.16.09 1.81-.64 3.46-2.23 4.4-1.75 1.03-3.71 1.64-5.07 3.24s-1.86 3.41-2.23 5.34c-.33 1.74-.51 3.64-1.56 5.13-.93 1.31-2.4 2.25-3.98 2.58-1.94.4-3.82-.37-5.63-.95-1.95-.63-4-1.12-6.05-.7-2.13.44-3.68 1.93-5.23 3.33-2.87 2.58-6.56 2.7-10.09 1.48-1.79-.62-3.43-1.6-4.9-2.77-1.6-1.28-3.16-2.7-5.04-3.56-2-.91-4-1.04-6.15-.7-1.86.29-3.64.97-5.5 1.23-1.4.2-2.8.04-3.73-1.13-.79-1.01-1.16-2.33-1.55-3.53-1.17-3.58-2.73-6.98-7.01-7.17-2.2-.1-4.27.56-5.59-1.68-1.31-2.23-.81-5.16-.46-7.59.27-1.86-2.38-2.73-2.91-.8Zm39.92-57.07c-.12 2.98-.24 5.97-.21 8.96.01 1.46.04 2.93.09 4.39.05 1.54-.08 3.23.52 4.66.55 1.29 2.47.78 2.81-.37.41-1.37.05-3.05 0-4.46s-.1-2.93-.14-4.39c-.08-2.93-.15-5.85-.1-8.79.03-1.92-2.89-1.9-2.97 0m-2.54 26.07c1.35.53 2.85.76 4.29.67 1.6-.1 3.38-.47 4.59-1.59 1.12-1.03-.05-2.89-1.46-2.51-.42.11-.79.3-1.19.44.39-.14-.06.01-.13.04-.14.05-.27.09-.41.14-.32.1-.63.19-.96.26-.12.03-.24.05-.36.07-.08.01-.16.03-.24.04.21-.03.23-.03.05-.01-.63.04-1.23.05-1.86 0-.36-.03.23.05-.09-.01l-.49-.09c-.32-.07-.64-.16-.95-.27-.72-.25-1.63.28-1.8 1.02-.19.84.26 1.5 1.02 1.8Zm-4.46-21.3.04-.05c.24-.3.35-.4.45-.78.04-.16.05-.31.06-.47v-.02c0-.24-.04-.46-.15-.66-.07-.21-.19-.4-.36-.55l-.35-.27c-.27-.16-.56-.23-.87-.23h-.02c-.16 0-.31.02-.47.06-.38.1-.48.21-.78.45l-.05.04q-.255.24-.36.57c-.11.21-.16.44-.15.68 0 .24.04.47.15.68q.105.33.36.57l.36.27c.27.16.57.24.89.24l.47-.06q.45-.12.78-.45Zm18.84.07.04-.05c.24-.3.35-.4.45-.78.04-.16.05-.31.06-.47v-.02c0-.24-.04-.46-.15-.66-.07-.21-.19-.4-.36-.55l-.35-.27c-.27-.16-.56-.23-.87-.23h-.02c-.16 0-.31.02-.47.06-.38.1-.48.21-.78.45l-.05.04q-.255.24-.36.57c-.11.21-.16.44-.15.68 0 .24.04.47.15.68q.105.33.36.57l.36.27c.27.16.57.24.89.24l.47-.06q.45-.12.78-.45ZM75.23 67.42c-.25.12-.26.14-.04.05.19-.06.37-.14.53-.25.16-.08.31-.17.47-.25.21-.11.43-.21.65-.32.33-.16-.07 0 .25-.1.4-.13.8-.26 1.21-.37.23-.06.47-.11.71-.16l.36-.06c-.16.02-.17.02-.04 0 2.09-.23 4.12.27 6.2.21s2.36-2.84.47-3.44c-2.33-.73-5.04-.74-7.43-.34-1.05.17-2.06.51-3.01 1-.5.26-.97.57-1.4.94-.18.15-.36.31-.52.48-.13.15-.29.49-.41.61-1.26 1.31.66 3.21 1.99 1.99Zm19.12-2.68c2.1.08 4.59-.05 6.45.22.99.14 1.97.39 2.91.73.34.12.67.27 1.11.5.63.34 1.17.82 1.95.74 1.13-.12 1.97-1.02 1.68-2.21-.35-1.41-2.2-2.09-3.43-2.57-1.08-.42-2.21-.66-3.36-.82-2.58-.35-5.16-.2-7.73.22-.78.13-1.27 1.06-1.16 1.77.12.81.77 1.37 1.59 1.4Z"/></svg>