<?xml version="1.0" encoding="UTF-8"?><svg xmlns="http://www.w3.org/2000/svg" viewBox="0 0 180 180"><path d="M62.89 59.44c-.11 4.97-.53 9.96-.72 14.93s-.54 9.7-.11 14.51c.75 8.28 4.65 15.72 11.62 20.43 1.72 1.16 3.56 2.17 5.5 2.91s3.97 1.81 6.1 2.01c1.3.12 1.59-1.71.63-2.31-1.45-.92-3.16-1.39-4.63-2.31s-2.81-1.94-4.1-3.01c-2.61-2.17-5.06-4.65-6.87-7.53-4.46-7.1-3.62-15.66-3.77-23.69l-.15-7.72c-.05-2.74-.3-5.48-.31-8.21 0-2.04-3.13-2.04-3.17 0Z"/><path d="M63.62 64.85c-1.91-1.5-4.38-1.8-6.55-.66-1.85.98-3.12 2.82-3.94 4.69-1.91 4.32-2.81 10.14-.45 14.46 1.68 3.06 5.21 5.24 8.46 6.27.85.27 1.82-.25 2.15-1.05.37-.91 0-1.71-.74-2.27-2.39-1.82-5.68-2.72-6.74-5.86-.43-1.28-.52-2.63-.45-3.97.05-1.09.11-1.46.34-2.53s.51-2.08.91-3.08c.11-.28.33-.75.56-1.16.14-.25.3-.5.45-.74 0 0 .36-.49.19-.27.28-.36.61-.72.98-1-.25.19.34-.19.4-.23.37-.2-.13.01.24-.1.99-.3 1.56-.15 2.7.05 1.31.23 2.81-1.5 1.48-2.55Zm14.19 58.74c.28-4.98.33-9.97.35-14.96.01-2.41-3.76-2.42-3.75 0 .02 4.99.07 9.98.35 14.96.11 1.96 2.94 1.96 3.05 0"/><path d="M74.31 121.63c-3.27.78-6.59 1.36-9.86 2.12s-6.21 1.53-9.29 2.39c-6.14 1.71-12.33 3.59-18.22 6.04-2.74 1.14-5.33 2.49-7.55 4.5-1.99 1.8-3.57 4.08-4.82 6.44-2.14 4.05-3.75 8.38-4.63 12.87-.49 2.49-.9 5-1.37 7.5-.37 1.98-.59 4.03-1.08 5.99-.52 2.09 2.58 3.59 3.6 1.52 1.75-3.54 2.3-7.49 3.09-11.32s1.82-7.79 3.48-11.53c.99-2.24 2.14-4.52 3.75-6.4 1.73-2.01 3.88-3.41 6.26-4.54 5.44-2.58 11.38-4.27 17.1-6.11 3.35-1.08 6.72-2.09 10.08-3.11s6.86-2.21 10.33-3.11c2.09-.54 1.21-3.74-.89-3.24ZM60.13 76.68c.14.04.27.09.4.15l-.29-.12c.38.16.74.38 1.07.63l-.25-.19c.3.24.57.52.81.82l-.2-.26c.26.34.48.71.65 1.11l-.13-.32c.06.14.11.27.17.41l-.13-.32c.11.27.2.54.34.8.14.27.49.54.78.6s.58.05.85-.07c.25-.11.5-.29.63-.54l.13-.31c.06-.23.06-.47 0-.7-.05-.3-.19-.59-.33-.86-.09-.19-.2-.36-.32-.53-.28-.41-.6-.81-.97-1.14a6.6 6.6 0 0 0-2.58-1.49c-.61-.18-1.35.22-1.49.85-.15.66.2 1.28.85 1.49Zm53.81-17.24c-.01 4.64-.33 9.3-.42 13.94s.01 9.13-.27 13.67c-.24 3.76-.98 7.42-2.8 10.75-1.65 3.02-3.97 5.51-6.5 7.82-1.39 1.27-2.91 2.36-4.44 3.45-1.68 1.2-3.67 1.75-5.4 2.84-.96.61-.67 2.43.63 2.31 1.85-.17 3.52-1.02 5.24-1.69s3.48-1.43 5.11-2.43c3.36-2.05 6.19-4.75 8.42-7.99 5.24-7.64 4.75-16.91 4.42-25.76l-.31-8.21c-.11-2.91-.42-5.81-.48-8.71-.04-2.04-3.17-2.05-3.17 0Z"/><path d="M117.87 67.4c1.11-.2 1.66-.34 2.61-.07.39.11.06-.02.33.13.06.03.65.41.4.23.37.28.69.64.98 1s.99 1.65 1.2 2.17c.4.99.69 2.03.91 3.08s.28 1.44.34 2.53c.07 1.34-.03 2.69-.45 3.97-1.04 3.14-4.35 4.04-6.74 5.86-.72.55-1.14 1.37-.74 2.27.35.8 1.27 1.33 2.15 1.05 2.9-.92 5.87-2.72 7.73-5.17s2.29-5.46 2.07-8.36c-.32-4.07-1.58-8.98-5.07-11.48-2.21-1.59-5.08-1.42-7.2.25-1.33 1.04.17 2.78 1.48 2.55Zm-12.63 56.19c.28-4.98.33-9.97.35-14.96.01-2.41-3.76-2.42-3.75 0 .02 4.99.07 9.98.35 14.96.11 1.96 2.94 1.96 3.05 0"/><path d="M104.8 124.87c6.09 1.58 12.12 3.62 18.13 5.5s11.88 3.75 17.64 6.07c2.37.96 4.77 2.14 6.65 3.89s3.15 3.79 4.26 6c1.88 3.75 3.11 7.64 3.99 11.73.93 4.33 1.45 8.91 3.43 12.92 1.01 2.05 4.13.59 3.6-1.52-.44-1.75-.62-3.59-.96-5.36-.42-2.18-.79-4.37-1.19-6.55-.82-4.46-2.13-8.54-4.05-12.67-2.39-5.15-5.92-9.32-11.11-11.78-5.71-2.71-11.98-4.58-18.05-6.32-3.53-1.02-7.08-1.98-10.66-2.82s-7.22-1.49-10.8-2.34c-2.1-.5-2.99 2.69-.89 3.24Zm14.43-50.52c-.97.29-1.83.81-2.58 1.49-.37.34-.69.73-.97 1.14-.12.17-.23.35-.32.53-.13.27-.28.56-.33.86-.05.35-.07.7.13 1.01.16.24.36.42.63.54.57.24 1.34.05 1.64-.54.13-.26.22-.53.34-.8l-.13.32c.06-.13.11-.27.17-.41l-.13.32c.17-.4.39-.77.65-1.11l-.2.26c.24-.3.5-.58.81-.82l-.25.19c.33-.25.69-.46 1.07-.63l-.29.12c.13-.06.27-.11.4-.15.3-.1.56-.28.72-.56.15-.26.22-.64.12-.93-.2-.61-.84-1.04-1.49-.85ZM88.3 65.61c-.31 1.94-.26 3.97-.31 5.93s-.1 3.95-.14 5.92c-.1 3.93-.4 7.92-.07 11.85.19 2.25 3.16 2.17 3.44 0 .49-3.83.37-7.76.44-11.62.04-1.9.07-3.8.11-5.69s.22-4 0-5.92c-.1-.87-.59-1.62-1.52-1.73-.79-.09-1.79.38-1.93 1.26Zm-4.06 8.36-.09-.15c-.14-.23-.32-.41-.55-.55a1.51 1.51 0 0 0-1.54 0c-.23.14-.41.32-.55.55l-.09.15c-.15.26-.22.53-.22.83s.08.57.22.83c.15.25.34.44.59.59.26.15.53.22.83.22s.57-.08.83-.22c.25-.15.44-.34.59-.59.15-.26.22-.53.22-.83s-.08-.57-.22-.83Zm14.52 0-.09-.15c-.14-.23-.32-.41-.55-.55a1.51 1.51 0 0 0-1.54 0c-.23.14-.41.32-.55.55l-.09.15c-.15.26-.22.53-.22.83s.08.57.22.83c.15.25.34.44.59.59.26.15.53.22.83.22s.57-.08.83-.22c.25-.15.44-.34.59-.59.15-.26.22-.53.22-.83s-.08-.57-.22-.83Zm-24.54-5.63q.54-.555 1.14-1.05c.23-.19-.16.12.07-.06.1-.07.19-.14.29-.21a14 14 0 0 1 2.04-1.19l.33-.15c.28-.13-.23.09.06-.02.25-.1.51-.19.77-.28.46-.16.92-.3 1.39-.42.27-.07.53-.12.8-.17l.36-.06c.3-.06-.28.02.03 0 1.06-.1 2.12-.1 3.18-.12.92-.02 1.69-.69 1.81-1.6s-.42-1.82-1.32-2.02c-2.39-.55-5.08-.13-7.34.78s-4.38 2.34-6.01 4.2c-.61.69-.68 1.73 0 2.41.65.65 1.77.66 2.41 0Zm33.93-4.69c-1.88-1.59-3.99-2.82-6.38-3.48a16.6 16.6 0 0 0-3.64-.57c-.56-.03-1.13 0-1.69.07-.39.04-.79.08-1.17.18-.5.14-.88.42-1.28.75-1.06.85-.4 2.62.78 2.94.34.09.67.15 1.02.14.24 0 .47-.05.71-.08.15-.02.24-.04.04-.01.5-.07 1-.1 1.5-.12s1-.02 1.5 0c.25.01.5.04.75.06.1.01.27.04.07 0 .16.02.31.05.47.08 1.91.36 3.68 1.02 5.14 2.22.65.53 1.55.63 2.19 0 .55-.55.64-1.65 0-2.19Z"/><path d="M87.33 88.53c-3.34.7-6.5 1.63-9.63 3.02-1.49.66-3.41 1.18-3.45 3.1-.03 1.44 1 2.59 2.12 3.35 2.36 1.58 5.65 2.37 8.46 2.33 1.21-.02 2.46-.14 3.63-.45.59-.16 1.19-.37 1.74-.65.43-.23.9-.71 1.24-.86l-1.29.17c.42.07 1.06.61 1.51.83.69.33 1.41.62 2.14.83 1.34.39 2.78.57 4.18.49 2.95-.16 5.71-1.31 8.09-3.03.95-.68 1.13-1.82.35-2.72-4.13-4.77-10.91-7.09-17.11-6.57-2.43.2-2.44 4.03 0 3.81 5.53-.49 10.58 1.53 14.66 5.21l.35-2.72c-2.21 1.62-4.73 2.74-7.52 2.62-1.25-.05-2.5-.38-3.63-.92s-2.21-1.57-3.51-.84c-.83.46-1.27.91-2.27 1.11s-2.12.21-3.17.15c-1.35-.07-2.66-.47-3.9-.99-.55-.23-1.1-.48-1.62-.77-.2-.11-.43-.21-.59-.38-.21-.22-.16.29-.1-.3l-.92 1.61c3.51-1.8 7.28-3.31 11.08-4.36 1.98-.54 1.14-3.47-.84-3.06ZM62.7 64.18c-1.18-1.51-1.93-3.37-2.07-5.29-.16-2.11 1.07-4.2.58-6.26s-2.56-3.67-3.63-5.49c-.92-1.58-1.62-3.48-1.36-5.34.22-1.58 1.13-3.29 2.61-4.01.83-.4 1.72-.36 2.61-.46 1.15-.13 2.17-.45 3.09-1.16 1.47-1.15 2.08-2.88 3.23-4.28 1.23-1.5 3.31-2.12 5.06-2.75 2.28-.81 4.42-1.4 6.79-.59 2.1.72 4.03 1.71 6.33 1.53 4.5-.36 7.98-3.84 12.49-4.35 3.72-.43 7.86.84 9.96 4.13 1.08 1.69 1.42 3.61 3.4 4.55 1.1.52 2.28.53 3.47.58 1.08.05 2.11.26 3.14.6 1.43.47 3.91 1.59 4.23 3.3.09.47-.02.84-.39 1.1-.43.31-.99.41-1.43.73-.51.37-.89.83-1.14 1.4-.64 1.41-.15 2.87.76 4.02.5.64.99 1.12 1.08 1.95.12 1.13-.45 2.73-1.62 3.22-1.02.43-1.7 1.31-1.41 2.48.98 3.85-.92 7.65-3.9 10.05-1.67 1.35.49 4.08 2.28 2.96 4.73-2.96 6.62-8.76 5.5-14.08l-1.41 2.48c3.82-1.42 5.91-5.83 4.43-9.69-.21-.54-.45-1-.77-1.47-.14-.2-.27-.5-.45-.66-.54-.47-1.22 1.17-.55 1.15 1.12-.04 2.48-1.44 2.99-2.32 1.16-1.99 1.06-4.5-.12-6.45-1.34-2.21-3.66-3.59-6.01-4.49a15.2 15.2 0 0 0-3.52-.85c-.57-.07-1.13-.13-1.7-.14-.32-.01-1.14.13-1.44-.06-.53-.34-.82-1.67-1.14-2.22a12.7 12.7 0 0 0-2.29-2.88 14.6 14.6 0 0 0-5.75-3.31c-5.17-1.58-10.42-.06-14.97 2.51-2.14 1.21-3.97 2.11-6.42 1.3-2.59-.86-4.77-1.75-7.57-1.33-2.5.38-5.06 1.41-7.33 2.51-2.11 1.02-3.55 2.54-4.76 4.51-.42.69-.85 1.59-1.58 2-1.01.57-2.45.28-3.57.59-2.04.56-3.75 2.05-4.79 3.88-2.78 4.89-.55 10.5 2.9 14.38.34.39 1.04.92 1.14 1.47.11.61-.28 1.37-.39 1.96-.25 1.29-.32 2.6-.16 3.91.32 2.62 1.47 5.07 3.36 6.92 1.48 1.45 3.41-.67 2.21-2.21Z"/><path d="M63.31 59.95c1.7.78 3.5.41 4.9-.83.69-.61 1.22-1.4 1.62-2.23.18-.38.34-.78.49-1.17.1-.25.24-1.06.39-1.22l-.85.49.32-.07h-1.03c5.1.75 9.95 2.13 15.14 1.2 2.13-.38 4.27-1.18 6.04-2.44.87-.62 1.63-1.34 2.39-2.08.51-.5 1.28-1.45 2.07-1.55l-1.51-.63c4.39 5.4 13.33 6.16 18.11.8 1.76-1.97-.88-4.54-2.87-2.87-2.43 2.03-5.58 2.93-8.62 1.74-1.53-.6-2.44-1.6-3.59-2.7-1.51-1.44-3.92-.12-5.24.95-1.17.94-2.08 2.18-3.35 3.01-1.38.9-2.92 1.42-4.54 1.73-3.73.7-7.54-.12-11.22-.68-.99-.15-2.14-.44-3.11-.1-1.05.37-1.46 1.28-1.72 2.28-.44 1.67-.94 3.97-3.12 3.79-1.33-.1-1.93 2.01-.7 2.58m46.57-3.92 1.23 1.22.6.59c.11.1.21.21.32.32.19.2.41.37.65.52l.4.17c.23.07.45.08.68.03.15 0 .3-.04.43-.12.21-.07.39-.19.55-.35.2-.22.35-.47.44-.75.07-.23.08-.45.03-.68-.01-.23-.08-.44-.2-.63-.16-.22-.31-.44-.52-.62l-.33-.3-.64-.58-1.29-1.17c-.32-.29-.72-.48-1.17-.48-.4 0-.89.18-1.17.48s-.5.73-.48 1.17.17.85.48 1.17Zm-40.56 67.95c-1.57 14.32-1.29 28.84.85 43.08-2.33.69-4.82.62-7.25.57a453 453 0 0 0-40.55.86c1.04-10.13 4.96-20.29 12.53-27.11 4.52-4.07 10.1-6.77 15.67-9.22 5.48-2.41 11.08-4.66 16.96-5.76"/><path d="M67.74 123.55c-2.03 14.67-1.85 29.45.4 44.08l1.47-2.59c-3.54 1-7.51.41-11.15.34q-6.06-.12-12.12-.09c-8 .05-15.99.36-23.98.88l2.33 2.33c.81-7.58 3.32-15.27 8.02-21.35 5.23-6.76 13.05-10.4 20.71-13.7 4.75-2.04 9.63-3.81 14.71-4.79 1.23-.24 1.93-1.71 1.62-2.85-.35-1.29-1.62-1.86-2.85-1.62-4.83.93-9.47 2.58-14 4.48s-8.65 3.68-12.69 6.05-7.4 5.02-10.25 8.46-4.94 7.14-6.58 11.2c-1.83 4.52-2.84 9.3-3.35 14.14-.13 1.2 1.17 2.4 2.33 2.33 8.15-.54 16.31-.88 24.47-1.03 4.04-.07 8.08-.1 12.12-.06s7.95.41 11.77-.63c1.2-.32 1.63-1.47 1.47-2.59-2.02-14.06-2.35-28.37-1.24-42.52.14-1.82-2.97-2.27-3.22-.44Zm44.93 2.14c.36 14.36-.32 28.74-2.04 43 11.95.9 23.92 1.55 35.89 1.95 3.73.13 7.48.23 11.16-.38.43-.07.9-.17 1.2-.49.34-.38.36-.94.34-1.45-.16-5.17-1.57-10.3-4.07-14.82-.64-1.15-1.35-2.28-1.73-3.54-.28-.91-.38-1.88-.76-2.75-.58-1.36-1.75-2.37-2.73-3.48-1.37-1.56-2.39-3.39-3.71-4.99-3.26-3.97-8.09-6.33-12.98-7.9s-9.98-2.49-14.81-4.24c-2-.72-4.6-1.45-5.97.18"/><path d="M111.06 125.69c.08 14.33-.81 28.78-2.59 43-.15 1.22 1.12 2.08 2.16 2.16 9.16.73 18.34 1.29 27.53 1.7 4.48.2 8.99.47 13.48.42 2.25-.02 4.6-.11 6.81-.57 2.4-.51 3.11-2.52 2.99-4.74-.23-4.26-1.24-8.38-2.92-12.29-.8-1.87-1.99-3.57-2.77-5.45-.34-.82-.44-1.69-.69-2.54-.31-1.08-.81-2.01-1.49-2.89-1.16-1.5-2.5-2.81-3.6-4.37-1.16-1.67-2.35-3.33-3.84-4.73-2.86-2.68-6.36-4.52-9.99-5.94-4.46-1.74-9.18-2.69-13.76-4.08-3.79-1.15-8.75-3.8-11.66.37-.57.81-.23 2.03.52 2.59.86.65 1.83.48 2.64-.16.6-.47 2.31.19 2.92.38 1.82.56 3.61 1.2 5.45 1.7 3.72 1 7.5 1.79 11.16 3.01 3.08 1.02 6.16 2.39 8.69 4.47 2.79 2.3 4.39 5.52 6.82 8.15.51.55 1.07 1.08 1.46 1.72s.52 1.4.7 2.14c.47 1.91 1.46 3.53 2.38 5.25 1.65 3.09 2.74 6.48 3.25 9.94q.18 1.245.24 2.49c0 .08.02 1.27.04 1.27l.43-.67c-.27.05-.54.1-.81.14-2.04.29-4.13.33-6.19.32-4.09-.02-8.18-.23-12.26-.41-9.18-.39-18.36-.92-27.53-1.57l2.16 2.16c.82-7.13 1.39-14.29 1.7-21.46s.1-14.35-.21-21.54c-.09-2.06-3.23-2.08-3.22 0ZM64.65 40.6c.56 2.17 2.55 3.78 4.33 4.97s3.83 2.02 5.95 2.4c.81.14 1.73-.22 1.93-1.1.18-.78-.23-1.77-1.1-1.93-.9-.17-1.78-.43-2.65-.75-.12-.04-.24-.09-.36-.14-.02 0-.3-.12-.17-.07.16.07-.2-.09-.23-.11-.09-.04-.19-.09-.28-.13-.44-.21-.86-.44-1.28-.7-.39-.24-.77-.5-1.14-.77-.21-.15.15.12-.05-.04l-.3-.24c-.18-.15-.35-.3-.52-.45s-.32-.3-.47-.46c-.07-.07-.13-.14-.2-.22 0 0-.24-.3-.16-.19s-.08-.12-.09-.14c-.07-.1-.13-.2-.19-.31-.04-.08-.09-.17-.13-.26.11.26-.04-.17-.04-.18-.21-.75-1.07-1.29-1.84-1.04s-1.25 1.03-1.04 1.84Zm9.79-3.5c1.39 1.62 2.8 3.19 4.48 4.53s3.68 2.6 5.9 2.95c.7.11 1.42-.18 1.62-.92s-.25-1.38-.92-1.62c-.88-.32-1.59-.6-2.51-1.13-.43-.24-.85-.5-1.27-.77-.2-.13-.39-.26-.58-.4l-.32-.23c-.02-.02-.26-.2-.15-.11-1.59-1.23-3.05-2.67-4.49-4.07-.49-.47-1.28-.48-1.77 0-.51.51-.44 1.25 0 1.77Zm14.33.21 1.12.91c.27.22.54.46.83.66.2.14.42.26.63.39.17.11.35.16.54.17.19.04.39.03.58-.03l.35-.15c.17-.09.31-.22.41-.38.09-.09.15-.2.19-.32.09-.17.13-.36.13-.56-.02-.4-.16-.74-.43-1.03-.16-.17-.31-.36-.47-.52s-.37-.31-.55-.47l-1.09-.91q-.21-.225-.51-.33c-.19-.1-.39-.14-.61-.14s-.42.04-.61.14c-.2.06-.36.17-.51.33-.28.3-.48.7-.46 1.12l.06.42c.07.27.21.5.41.7Zm-15.36 85.26c.22 3.57 3 6.14 5.85 7.94 3.16 1.99 6.95 3.17 10.69 3.23 3.46.05 6.93-.86 9.89-2.65 1.4-.85 2.73-1.91 3.84-3.12 1.18-1.3 2.52-2.81 2.21-4.66-.15-.91-1.4-1.62-2.26-1.28-1.42.56-1.94 1.89-2.92 2.97-.79.87-1.68 1.64-2.67 2.27a14.37 14.37 0 0 1-7.45 2.26c-5.08.1-12.11-2.19-14.11-7.36-.59-1.52-3.19-1.48-3.07.42Z"/><path d="M67.76 126.31c.95 7.73 9.4 12.88 16.28 14.72 7.48 2 15.41.35 21.47-4.44 3.23-2.56 5.66-5.92 7.16-9.76.78-2-2.47-2.89-3.22-.89-2.17 5.71-7.22 10.13-13.02 11.91-6.48 1.99-13.71.64-19.33-3.03-3.15-2.05-6.34-4.96-6.97-8.84-.21-1.32-2.53-1.03-2.36.32Zm16.05 35.15c2.76-1.57 5.49-3.17 8.21-4.81s5.57-3.22 8.07-5.18c.59-.46.54-1.46.12-1.99-.48-.61-1.27-.75-1.96-.39-2.75 1.43-5.32 3.3-7.96 4.92s-5.34 3.22-8.04 4.78c-1.72 1-.17 3.66 1.56 2.67m7.87 4.97c2.17-.88 4.25-1.93 6.21-3.21s4.03-2.76 5.48-4.67c.91-1.2-.9-2.99-2.1-2.1-1.78 1.33-3.3 2.88-5.06 4.1s-3.69 2.31-5.68 3.19c-.66.29-.87 1.23-.6 1.83s1.05 1.13 1.73.85Z"/></svg>