<?xml version="1.0" encoding="UTF-8"?><svg xmlns="http://www.w3.org/2000/svg" viewBox="0 0 180 180"><path d="M62.89 59.44c-.11 4.97-.53 9.96-.72 14.93-.18 4.81-.54 9.7-.11 14.51.75 8.28 4.65 15.72 11.62 20.43 1.72 1.16 3.56 2.17 5.5 2.91s3.97 1.81 6.1 2.01c1.3.12 1.59-1.71.63-2.31-1.45-.92-3.16-1.39-4.63-2.31s-2.81-1.94-4.1-3.01c-2.61-2.17-5.06-4.65-6.87-7.53-4.46-7.1-3.62-15.66-3.77-23.69l-.15-7.72c-.05-2.74-.3-5.48-.31-8.21 0-2.04-3.13-2.04-3.17 0Z"/><path d="M63.62 64.85c-1.91-1.5-4.38-1.8-6.55-.66-1.85.98-3.12 2.82-3.94 4.69-1.91 4.32-2.81 10.14-.45 14.46 1.68 3.06 5.21 5.24 8.46 6.27.85.27 1.82-.25 2.15-1.05.37-.91 0-1.71-.74-2.27-2.39-1.82-5.68-2.72-6.74-5.86-.43-1.28-.52-2.63-.45-3.97.05-1.09.11-1.46.34-2.53s.51-2.08.91-3.08c.11-.28.33-.75.56-1.16.14-.25.3-.5.45-.74 0 0 .36-.49.19-.27.28-.36.61-.72.98-1-.25.19.34-.19.4-.23.37-.2-.13.01.24-.1.99-.3 1.56-.15 2.7.05 1.31.23 2.81-1.5 1.48-2.55Zm12.19 58.74c.28-4.98.33-9.97.35-14.96.01-2.41-3.76-2.42-3.75 0 .02 4.99.07 9.98.35 14.96.11 1.96 2.94 1.96 3.05 0"/><path d="M72.31 121.63c-3.27.78-6.59 1.36-9.86 2.12s-6.21 1.53-9.29 2.39c-6.14 1.71-12.33 3.59-18.22 6.04-2.74 1.14-5.33 2.49-7.55 4.5-1.99 1.8-3.57 4.08-4.82 6.44-2.14 4.05-3.75 8.38-4.63 12.87-.49 2.49-.9 5-1.37 7.5-.37 1.98-.59 4.03-1.08 5.99-.52 2.09 2.58 3.59 3.6 1.52 1.75-3.54 2.3-7.49 3.09-11.32s1.82-7.79 3.48-11.53c.99-2.24 2.14-4.52 3.75-6.4 1.73-2.01 3.88-3.41 6.26-4.54 5.44-2.58 11.38-4.27 17.1-6.11 3.35-1.08 6.72-2.09 10.08-3.11s6.86-2.21 10.33-3.11c2.09-.54 1.21-3.74-.89-3.24ZM60.13 76.68c.14.04.27.09.4.15l-.29-.12c.38.16.74.38 1.07.63l-.25-.19c.3.24.57.52.81.82l-.2-.26c.26.34.48.71.65 1.11l-.13-.32c.06.14.11.27.17.41l-.13-.32c.11.27.2.54.34.8.14.27.49.54.78.6s.58.05.85-.07c.25-.11.5-.29.63-.54l.13-.31c.06-.23.06-.47 0-.7-.05-.3-.19-.59-.33-.86-.09-.19-.2-.36-.32-.53-.28-.41-.6-.81-.97-1.14a6.6 6.6 0 0 0-2.58-1.49c-.61-.18-1.35.22-1.49.85-.15.66.2 1.28.85 1.49Zm53.81-17.24c-.01 4.64-.33 9.3-.42 13.94s.01 9.13-.27 13.67c-.24 3.76-.98 7.42-2.8 10.75-1.65 3.02-3.97 5.51-6.5 7.82-1.39 1.27-2.91 2.36-4.44 3.45-1.68 1.2-3.67 1.75-5.4 2.84-.96.61-.67 2.43.63 2.31 1.85-.17 3.52-1.02 5.24-1.69s3.48-1.43 5.11-2.43c3.36-2.05 6.19-4.75 8.42-7.99 5.24-7.64 4.75-16.91 4.42-25.76l-.31-8.21c-.11-2.91-.42-5.81-.48-8.71-.04-2.04-3.17-2.05-3.17 0Z"/><path d="M117.87 67.4c1.11-.2 1.66-.34 2.61-.07.39.11.06-.02.33.13.06.03.65.41.4.23.37.28.69.64.98 1s.99 1.65 1.2 2.17c.4.99.69 2.03.91 3.08s.28 1.44.34 2.53c.07 1.34-.03 2.69-.45 3.97-1.04 3.14-4.35 4.04-6.74 5.86-.72.55-1.14 1.37-.74 2.27.35.8 1.27 1.33 2.15 1.05 2.9-.92 5.87-2.72 7.73-5.17 1.79-2.36 2.29-5.46 2.07-8.36-.32-4.07-1.58-8.98-5.07-11.48-2.21-1.59-5.08-1.42-7.2.25-1.33 1.04.17 2.78 1.48 2.55Zm-10.63 56.19c.28-4.98.33-9.97.35-14.96.01-2.41-3.76-2.42-3.75 0 .02 4.99.07 9.98.35 14.96.11 1.96 2.94 1.96 3.05 0"/><path d="M106.8 124.87c6.09 1.58 12.12 3.62 18.13 5.5 5.93 1.86 11.88 3.75 17.64 6.07 2.37.96 4.77 2.14 6.65 3.89 1.83 1.7 3.15 3.79 4.26 6 1.88 3.75 3.11 7.64 3.99 11.73.93 4.33 1.45 8.91 3.43 12.92 1.01 2.05 4.13.59 3.6-1.52-.44-1.75-.62-3.59-.96-5.36-.42-2.18-.79-4.37-1.19-6.55-.82-4.46-2.13-8.54-4.05-12.67-2.39-5.15-5.92-9.32-11.11-11.78-5.71-2.71-11.98-4.58-18.05-6.32-3.53-1.02-7.08-1.98-10.66-2.82-3.58-.85-7.22-1.49-10.8-2.34-2.1-.5-2.99 2.69-.89 3.24Zm12.43-50.52c-.97.29-1.83.81-2.58 1.49-.37.34-.69.73-.97 1.14-.12.17-.23.35-.32.53-.13.27-.28.56-.33.86-.05.35-.07.7.13 1.01.16.24.36.42.63.54.57.24 1.34.05 1.64-.54.13-.26.22-.53.34-.8l-.13.32c.06-.13.11-.27.17-.41l-.13.32c.17-.4.39-.77.65-1.11l-.2.26c.24-.3.5-.58.81-.82l-.25.19c.33-.25.69-.46 1.07-.63l-.29.12c.13-.06.27-.11.4-.15.3-.1.56-.28.72-.56.15-.26.22-.64.12-.93-.2-.61-.84-1.04-1.49-.85ZM78.76 48.44c2.37-2.58 6.53-2.95 9.71-1.48s5.44 4.47 6.81 7.69c.84 1.97 1.42 4.09 2.63 5.86 2.43 3.55 7.05 5.04 11.35 4.92 1.7-.05 3.45-.31 5.06.23.63.21 1.26.54 1.91.44 1.37-.21 1.75-1.99 1.8-3.38l.18-4.77c.06-1.74.13-3.49-.04-5.23-.75-8.03-6.57-15.14-13.98-18.32s-16.11-2.67-23.54.48c-2.39 1.01-4.72 2.34-6.33 4.37-2.86.24-5.82-.45-8.21 1.31-3.87 2.84-7.03 7.08-7.29 11.87-.25 4.51 2.02 8.72 4.22 12.66.82-3.52 4.53-5.37 7.52-7.4 3.44-2.33 6.33-5.47 8.39-9.09"/><path d="M79.87 49.55c2.52-2.58 6.7-2 9.37.04 3.35 2.56 4.17 6.48 5.84 10.1s5.06 6.22 9.01 7.24c1.92.5 3.9.65 5.87.54 1.11-.06 2.28-.22 3.38.03 1.17.26 2.19.84 3.44.55 1.83-.42 2.84-2.13 3.13-3.87.37-2.19.28-4.5.37-6.71.16-4.31-.27-8.31-2.08-12.26-3.28-7.16-10.15-12.39-17.76-14.16-4.85-1.13-9.91-1-14.75.11-4.58 1.05-9.7 2.95-12.77 6.67l1.41-.59c-3.32.22-6.69-.32-9.53 1.82-2.6 1.95-4.92 4.43-6.36 7.37-1.5 3.08-1.95 6.37-1.32 9.74.66 3.55 2.46 6.8 4.19 9.92.83 1.5 3.22 1.17 3.65-.48.87-3.32 4.75-4.84 7.29-6.68 3.42-2.48 6.35-5.63 8.39-9.34 1.21-2.21-2.07-4.12-3.37-1.97-2.2 3.63-5.03 6.62-8.59 8.94-3.13 2.04-6.55 4.14-7.56 8l3.65-.48c-2.43-4.37-5.08-9.23-3.4-14.33.7-2.14 2.06-4.03 3.64-5.62.75-.75 1.56-1.53 2.47-2.09 1.09-.67 2.34-.73 3.58-.75 1.15-.01 2.4.13 3.54-.09 1.3-.25 2.07-1.69 3.11-2.46 1.99-1.47 4.39-2.42 6.74-3.15 4.88-1.51 10.16-1.85 15.15-.63 8.67 2.13 16.1 9.51 16.61 18.7.16 2.85-.06 5.73-.16 8.58-.02.53.05 1.45-.28 1.91.21-.3.57.24-.12-.19-.19-.12-.56-.22-.75-.28-.75-.24-1.56-.35-2.35-.4-2.41-.16-4.74.26-7.13-.33-2.02-.5-3.96-1.44-5.33-3.05-1.78-2.1-2.34-5.06-3.61-7.46s-2.95-4.43-5.11-5.97c-4.1-2.93-10.08-2.9-13.68.85-1.4 1.46.8 3.67 2.22 2.22Z"/><path d="M65.54 41.96c-.08-1.35.13-2.74.67-3.81.35-.69.69-1.37 1.17-1.98-.16.21.21-.24.21-.23.11-.12.22-.24.33-.35.21-.22.61-.58.75-.69 1.07-.83 2.19-1.31 3.62-1.6l.47-.09c-.32.05.21-.03.28-.03.38-.04.77-.06 1.15-.06s.76.03 1.15.07c.44.05.8.18 1.35-.02 1.14-.41 1.48-1.68.69-2.6-.7-.82-2.18-.92-3.18-1-.94-.08-1.86 0-2.79.16-1.88.34-3.59 1.19-5.06 2.39-2.88 2.33-4.39 6.18-4.04 9.84.08.87.68 1.62 1.62 1.62.84 0 1.67-.74 1.62-1.62Z"/><path d="M75.84 30.61c-.86-2.97-1.73-5.95-2.81-8.86-1-2.7-2.21-5.38-4.1-7.57-1.89-2.18-4.54-3.83-7.42-3.98-1.75-.09-3.49.37-5.15.95-3.49 1.22-7.02 3.23-8.51 6.61-.91 2.07-1 4.51-2.35 6.32-1.14 1.53-2.98 2.33-4.61 3.31-1.64.98-3.26 2.42-3.4 4.32-.16 2.17 1.63 3.93 3.28 5.35 1.7 1.47 3.42 2.96 5.45 3.9s4.46 1.29 6.52.42c3.39-1.44 5.47-5.9 9.15-5.73.53.02 1.08.15 1.56-.07.44-.19.72-.63 1.01-1.02 2.3-3.18 6.42-4.94 10.31-4.4"/><path d="M77.42 30.18c-1.72-7.69-4.2-17.97-12.33-21.25-3.91-1.58-8-.44-11.68 1.19-3.38 1.5-6.36 3.94-7.71 7.47-.63 1.65-.74 3.65-1.76 5.13s-2.82 2.1-4.24 2.99c-3.27 2.04-5.47 5.76-3.09 9.39 1.05 1.6 2.49 2.78 3.91 4.01 1.52 1.32 3.13 2.68 4.96 3.56 3.74 1.8 7.54 1.21 10.69-1.38 1.25-1.03 2.31-2.29 3.73-3.09.58-.33 1.17-.57 1.84-.58 1.19 0 2.21.12 3.22-.66.79-.61 1.27-1.54 1.97-2.24s1.42-1.2 2.25-1.64c1.74-.92 3.65-1.17 5.59-.95 1.05.12 1.95-.99 1.95-1.95 0-1.16-.9-1.82-1.95-1.95-3.12-.38-6.43.49-8.98 2.33-.63.46-1.24.95-1.78 1.51-.38.4-1 1.53-1.36 1.7-.09.04-.69-.06-.92-.06-.43 0-.86.05-1.28.13-.69.13-1.38.4-1.98.75-2.31 1.34-3.76 3.96-6.22 5.05-3.17 1.4-6.77-.86-9.16-2.8-1.19-.97-2.74-2.11-3.42-3.52-.65-1.34.03-2.38 1.05-3.26 1.2-1.03 2.71-1.62 4.01-2.51 1.43-.97 2.61-2.17 3.32-3.76s.93-3.3 1.57-4.89c.53-1.33 1.49-2.44 2.61-3.3 2.34-1.8 5.85-3.31 8.83-3.31 3.84 0 6.73 3.2 8.43 6.31 2.13 3.9 3.27 8.3 4.76 12.46.71 1.96 3.61 1.2 3.15-.87Zm-5.71 89.01c-2.38 2.86-1.09 7.05.28 10.07 1.55 3.43 3.42 6.73 5.21 10.04 1.78 3.3 3.59 6.58 5.55 9.78.98 1.6 1.98 3.18 3.04 4.73 1.12 1.64 2.28 3.43 3.78 4.74 1.06.92 3.19.06 2.6-1.51-1.24-3.29-3.47-6.29-5.24-9.31s-3.52-6.08-5.22-9.16-3.34-6.18-5.03-9.27c-.75-1.38-1.49-2.76-1.99-4.25-.56-1.68-.36-2.99-.2-4.71.12-1.37-1.9-2.21-2.79-1.15Z"/><path d="M106.18 121.57c.98.57.12 2.02-.25 2.7-.75 1.38-1.56 2.73-2.33 4.09-1.53 2.71-3.08 5.4-4.67 8.07s-3.25 5.29-5.02 7.84c-1.78 2.58-4.05 4.97-5.43 7.78-.76 1.54.94 3.87 2.63 2.63 3-2.2 5.09-5.59 7.16-8.65 2.08-3.07 4.01-6.25 5.86-9.46 1.81-3.15 3.53-6.38 5.13-9.65.77-1.57 1.45-3.18 1.13-4.96-.3-1.6-1.38-2.91-2.98-3.31-1.73-.43-2.82 1.99-1.23 2.91Zm-62.45 47.58c.5-3.15 2.29-7.02 5.12-8.5s10.06-1.22 13.22-1.68c22.69-3.3 47.85-2.73 70.36 1.59 4.41.85 3.95 4.13 4.92 7.73.07.25.13.53-.03.74s-.59.12-.54-.13"/><path d="M45.32 169.59c.66-2.57 1.87-5.58 4.29-6.99 1.75-1.02 4.74-1.01 6.92-1.12 6.38-.32 12.68-1.3 19.05-1.75 15.16-1.06 30.48-.69 45.54 1.34 2.1.28 4.19.6 6.28.94 1.74.29 3.85.37 5.48 1.05.97.4 1.17.99 1.45 2.07.17.65.29 1.3.42 1.96.12.61.45 1.34.46 1.95l.62-1.5-.12.14.91-.53-.17.06h1.07l-.17-.03 1.17.9-.08-.13c-1.02-1.59-3.5-.96-3.55.96-.07 2.46 3.21 2.99 4.36 1.05.83-1.41.01-3.56-.29-5.08-.63-3.16-2.26-5.64-5.54-6.45-4.24-1.05-8.71-1.55-13.04-2.1-4.34-.56-8.7-.98-13.07-1.27-8.8-.59-17.64-.69-26.45-.18-4.34.25-8.67.64-12.99 1.16-3.7.45-6.57.93-10.17 1.14-3.26.19-7.11.14-10.04 1.78-3.51 1.97-5.24 6.38-5.58 10.2-.17 1.87 2.78 2.21 3.24.44Zm43.01-95.86c.2 3 .3 6.01.34 9.01.02 1.51.01 3.01 0 4.52s-.22 3.12.08 4.6c.33 1.63 2.7 1.46 3.13 0s.29-3.12.31-4.6 0-3.01-.07-4.52c-.11-3.02-.39-6.01-.78-9.01-.1-.81-.62-1.51-1.51-1.51-.78 0-1.56.69-1.51 1.51Zm-13.55-6.45c.76-.32 1.58-.48 2.39-.65s1.71-.35 2.26-.41c.85-.09 1.7-.18 2.55-.19.98-.02 1.94.08 2.9-.17.66-.17 1.22-.87 1.19-1.56-.03-.77-.5-1.28-1.19-1.56-.96-.39-2.07-.31-3.09-.25s-2.02.18-3 .39c-1.92.41-3.65 1.18-5.43 1.97-.69.31-.86 1.32-.5 1.92.42.72 1.22.8 1.92.5ZM93.6 64.6c1.95 0 3.9.11 5.84.34.81.1 1.69.23 2.55.38 1.1.19 2.61.8 3.61.14.69-.46 1.06-1.43.57-2.18-.45-.69-1-.91-1.76-1.05-.5-.09-1-.17-1.5-.25-1.08-.16-2.16-.29-3.25-.37-2.02-.15-4.04-.17-6.06-.07-.83.04-1.53.68-1.53 1.53s.7 1.53 1.53 1.53m-7.03 36.12c1.46.55 3.04.85 4.6.87.81.01 1.63-.06 2.43-.2.38-.06.78-.2 1.1-.41.3-.19.59-.46.77-.77.26-.46.26-.88.19-1.39-.05-.36-.44-.8-.74-.96-.39-.21-.81-.27-1.24-.16-.17.04-.32.1-.47.19-.41.31-.45.35-.14.12-.03 0-.45.19-.14.1s-.12.03-.18.04c-.16.04-.32.07-.48.1l-.38.06c-.19.03-.17.02.05 0l-.26.03c-.3.03-.61.05-.91.05s-.61 0-.91-.02c-.17-.01-.34-.02-.52-.04-.08 0-.47-.03-.1 0-.63-.04-1.3-.26-1.89-.45-.74-.24-1.65.28-1.83 1.04-.19.85.26 1.53 1.04 1.83Zm-3.8-20.34v-.01l.14-.34-.99.99h.02c.12-.05.24-.11.36-.16.18-.1.32-.23.43-.39a.9.9 0 0 0 .2-.34c.1-.18.14-.38.13-.59-.02-.14-.03-.29-.06-.43v-.02c-.05-.14-.1-.28-.17-.41-.1-.18-.23-.32-.4-.43-.15-.14-.32-.23-.53-.28l-.41-.06q-.42 0-.78.21c-.24.15-.41.31-.55.55-.11.18-.17.37-.18.58-.05.21-.04.41.03.62l.16.37c.14.23.32.42.55.55 0 0 .01 0 .02.01l-.31-.24.04.04-.24-.31c.1.18.23.32.39.43.15.13.32.23.52.27.14.04.28.06.42.05l-1.41-1.41v.02l.05-.37c-.06.19-.07.37-.03.56 0 .19.06.36.17.52l.22.28c.13.14.28.23.45.29.11.06.23.1.35.1.19.04.37.03.56-.03l.34-.14c.21-.13.38-.29.5-.5Zm17.85 0v-.01l.14-.34-.99.99h.02c.12-.05.24-.11.36-.16.18-.1.32-.23.43-.39a.9.9 0 0 0 .2-.34c.1-.18.14-.38.13-.59-.02-.14-.03-.29-.06-.43v-.02c-.05-.14-.1-.28-.17-.41-.1-.18-.23-.32-.4-.43-.15-.14-.32-.23-.53-.28l-.41-.06q-.42 0-.78.21c-.24.15-.41.31-.55.55-.11.18-.17.37-.18.58-.05.21-.04.41.03.62l.16.37c.14.23.32.42.55.55 0 0 .01 0 .02.01l-.31-.24.04.04-.24-.31c.1.18.23.32.39.43.15.13.32.23.52.27.14.04.28.06.42.05L98 79.63v.02l.05-.37c-.06.19-.07.37-.03.56 0 .19.06.36.17.52l.22.28c.13.14.28.23.45.29.11.06.23.1.35.1.19.04.37.03.56-.03l.34-.14c.21-.13.38-.29.5-.5Z"/></svg>