<?xml version="1.0" encoding="UTF-8"?><svg xmlns="http://www.w3.org/2000/svg" viewBox="0 0 180 180"><path d="M62.89 59.44c-.11 4.97-.53 9.96-.72 14.93-.18 4.81-.54 9.7-.11 14.51.75 8.28 4.65 15.72 11.62 20.43 1.72 1.16 3.56 2.17 5.5 2.91s3.97 1.81 6.1 2.01c1.3.12 1.59-1.71.63-2.31-1.45-.92-3.16-1.39-4.63-2.31s-2.81-1.94-4.1-3.01c-2.61-2.17-5.06-4.65-6.87-7.53-4.46-7.1-3.62-15.66-3.77-23.69l-.15-7.72c-.05-2.74-.3-5.48-.31-8.21 0-2.04-3.13-2.04-3.17 0Z"/><path d="M63.62 64.85c-1.91-1.5-4.38-1.8-6.55-.66-1.85.98-3.12 2.82-3.94 4.69-1.91 4.32-2.81 10.14-.45 14.46 1.68 3.06 5.21 5.24 8.46 6.27.85.27 1.82-.25 2.15-1.05.37-.91 0-1.71-.74-2.27-2.39-1.82-5.68-2.72-6.74-5.86-.43-1.28-.52-2.63-.45-3.97.05-1.09.11-1.46.34-2.53s.51-2.08.91-3.08c.11-.28.33-.75.56-1.16.14-.25.3-.5.45-.74 0 0 .36-.49.19-.27.28-.36.61-.72.98-1-.25.19.34-.19.4-.23.37-.2-.13.01.24-.1.99-.3 1.56-.15 2.7.05 1.31.23 2.81-1.5 1.48-2.55Zm14.19 58.74c.28-4.98.33-9.97.35-14.96.01-2.41-3.76-2.42-3.75 0 .02 4.99.07 9.98.35 14.96.11 1.96 2.94 1.96 3.05 0"/><path d="M74.31 121.63c-3.27.78-6.59 1.36-9.86 2.12s-6.21 1.53-9.29 2.39c-6.14 1.71-12.33 3.59-18.22 6.04-2.74 1.14-5.33 2.49-7.55 4.5-1.99 1.8-3.57 4.08-4.82 6.44-2.14 4.05-3.75 8.38-4.63 12.87-.49 2.49-.9 5-1.37 7.5-.37 1.98-.59 4.03-1.08 5.99-.52 2.09 2.58 3.59 3.6 1.52 1.75-3.54 2.3-7.49 3.09-11.32s1.82-7.79 3.48-11.53c.99-2.24 2.14-4.52 3.75-6.4 1.73-2.01 3.88-3.41 6.26-4.54 5.44-2.58 11.38-4.27 17.1-6.11 3.35-1.08 6.72-2.09 10.08-3.11 3.43-1.05 6.86-2.21 10.33-3.11 2.09-.54 1.21-3.74-.89-3.24ZM60.13 76.68c.14.04.27.09.4.15l-.29-.12c.38.16.74.38 1.07.63l-.25-.19c.3.24.57.52.81.82l-.2-.26c.26.34.48.71.65 1.11l-.13-.32c.06.14.11.27.17.41l-.13-.32c.11.27.2.54.34.8.14.27.49.54.78.6s.58.05.85-.07c.25-.11.5-.29.63-.54l.13-.31c.06-.23.06-.47 0-.7-.05-.3-.19-.59-.33-.86-.09-.19-.2-.36-.32-.53-.28-.41-.6-.81-.97-1.14a6.6 6.6 0 0 0-2.58-1.49c-.61-.18-1.35.22-1.49.85-.15.66.2 1.28.85 1.49Zm53.81-17.24c-.01 4.64-.33 9.3-.42 13.94s.01 9.13-.27 13.67c-.24 3.76-.98 7.42-2.8 10.75-1.65 3.02-3.97 5.51-6.5 7.82-1.39 1.27-2.91 2.36-4.44 3.45-1.68 1.2-3.67 1.75-5.4 2.84-.96.61-.67 2.43.63 2.31 1.85-.17 3.52-1.02 5.24-1.69s3.48-1.43 5.11-2.43c3.36-2.05 6.19-4.75 8.42-7.99 5.24-7.64 4.75-16.91 4.42-25.76l-.31-8.21c-.11-2.91-.42-5.81-.48-8.71-.04-2.04-3.17-2.05-3.17 0Z"/><path d="M117.87 67.4c1.11-.2 1.66-.34 2.61-.07.39.11.06-.02.33.13.06.03.65.41.4.23.37.28.69.64.98 1s.99 1.65 1.2 2.17c.4.99.69 2.03.91 3.08s.28 1.44.34 2.53c.07 1.34-.03 2.69-.45 3.97-1.04 3.14-4.35 4.04-6.74 5.86-.72.55-1.14 1.37-.74 2.27.35.8 1.27 1.33 2.15 1.05 2.9-.92 5.87-2.72 7.73-5.17s2.29-5.46 2.07-8.36c-.32-4.07-1.58-8.98-5.07-11.48-2.21-1.59-5.08-1.42-7.2.25-1.33 1.04.17 2.78 1.48 2.55Zm-12.63 56.19c.28-4.98.33-9.97.35-14.96.01-2.41-3.76-2.42-3.75 0 .02 4.99.07 9.98.35 14.96.11 1.96 2.94 1.96 3.05 0"/><path d="M104.8 124.87c6.09 1.58 12.12 3.62 18.13 5.5 5.93 1.86 11.88 3.75 17.64 6.07 2.37.96 4.77 2.14 6.65 3.89 1.83 1.7 3.15 3.79 4.26 6 1.88 3.75 3.11 7.64 3.99 11.73.93 4.33 1.45 8.91 3.43 12.92 1.01 2.05 4.13.59 3.6-1.52-.44-1.75-.62-3.59-.96-5.36-.42-2.18-.79-4.37-1.19-6.55-.82-4.46-2.13-8.54-4.05-12.67-2.39-5.15-5.92-9.32-11.11-11.78-5.71-2.71-11.98-4.58-18.05-6.32-3.53-1.02-7.08-1.98-10.66-2.82-3.58-.85-7.22-1.49-10.8-2.34-2.1-.5-2.99 2.69-.89 3.24Zm14.43-50.52c-.97.29-1.83.81-2.58 1.49-.37.34-.69.73-.97 1.14-.12.17-.23.35-.32.53-.13.27-.28.56-.33.86-.05.35-.07.7.13 1.01.16.24.36.42.63.54.57.24 1.34.05 1.64-.54.13-.26.22-.53.34-.8l-.13.32c.06-.13.11-.27.17-.41l-.13.32c.17-.4.39-.77.65-1.11l-.2.26c.24-.3.5-.58.81-.82l-.25.19c.33-.25.69-.46 1.07-.63l-.29.12c.13-.06.27-.11.4-.15.3-.1.56-.28.72-.56.15-.26.22-.64.12-.93-.2-.61-.84-1.04-1.49-.85Zm-24.56-21.6c2.31-1.02 4.39-2.49 6.26-4.17.93-.84 1.77-1.77 2.54-2.77.88-1.14 2-2.52 2.05-4.01.03-.75-.5-1.45-1.17-1.73-.72-.31-1.5-.13-2.07.39-.54.48-.77 1.12-1.08 1.75-.26.51-.54 1.02-.84 1.51s-.62.96-.96 1.43c-.09.12-.19.25-.04.06-.09.12-.19.24-.28.35-.19.23-.39.46-.59.69-.37.41-.76.8-1.17 1.16-.22.2-.45.4-.68.59-.12.09-.23.19-.35.28.21-.16-.12.09-.16.12-.93.67-1.95 1.24-2.99 1.72-.73.34-.97 1.45-.55 2.1.49.76 1.31.9 2.1.55Zm13.57 2.47c2.03-1.76 3.62-4.32 4.14-6.98h-3.77c.56 1.73 1.08 3.48 1.68 5.19.29.83.58 1.66.87 2.48.34.97.65 1.96 1.19 2.84.37.61 1.19 1 1.9.77.67-.22 1.29-.87 1.23-1.62-.15-1.88-.87-3.72-1.41-5.52-.52-1.74-1.13-3.46-1.69-5.19-.26-.79-1-1.47-1.88-1.43-.79.04-1.75.57-1.88 1.43-.09.59-.19 1.18-.36 1.76-.08.26-.16.52-.26.77-.01.04-.22.52-.06.17-.06.12-.11.25-.17.37-.25.51-.53 1.01-.86 1.48l-.24.33c-.1.14.1-.11-.09.11-.21.25-.43.49-.65.73-.59.61-.66 1.71 0 2.31.69.63 1.62.6 2.31 0M62.3 64c-2.09-2.48-2.62-6.23-2.84-9.36-.25-3.58.15-7.08 1.19-10.51 1.99-6.56 6.25-11.77 12.32-14.94 3.3-1.73 6.9-2.81 10.28-4.36 1.63-.75.42-3.08-1.16-2.76-7.06 1.45-14.37 4.22-19.21 9.79-5.29 6.09-7.75 14.39-6.99 22.38.42 4.36 1.37 8.43 4.5 11.65 1.22 1.26 3-.6 1.9-1.9Z"/><path d="M89.2 24.99c4.17-.06 8.3.72 12.21 2.17 1.93.71 3.75 1.6 5.55 2.58 1.77.97 3.65 1.84 5.25 3.08 2.78 2.17 4.69 5.37 5.9 8.64 1.4 3.79 2.24 7.91 1.75 11.95-.23 1.88-.78 3.8-1.64 5.49-.47.93-1.03 1.84-1.69 2.66s-1.42 1.48-1.97 2.37c-.74 1.19.5 2.98 1.91 2.48 1.98-.71 3.44-2.54 4.57-4.25 1.15-1.74 1.99-3.72 2.49-5.74 1.15-4.64.66-9.56-.69-14.1-1.21-4.06-3.11-8.08-6.11-11.13-3.15-3.2-7.62-5.21-11.73-6.88-5-2.04-10.46-2.62-15.81-2.15-1.78.16-1.85 2.86 0 2.83Z"/><path d="M111.68 28.87c.03-1.3 1.22-2.27 2.44-2.73 3.08-1.16 6.88.03 8.73 2.75 1.86 2.72 1.59 6.69-.61 9.13-2.68-3.67-5.53-7.48-9.64-9.4"/><path d="M113.13 28.87c0 .07.06-.11.1-.18.09-.16.07-.14.28-.33.15-.12.17-.15.07-.07.09-.07.19-.13.29-.19.2-.12.4-.23.62-.32-.22.09.34-.1.4-.12a7 7 0 0 1 .98-.2c-.18.03-.17.03.04 0 .17 0 .33-.02.5-.02.22 0 .44 0 .67.02.11 0 .22.02.33.03-.19-.02-.18-.02.03.01.44.1.86.22 1.29.35.2.08.21.08.04 0 .1.04.2.09.3.14.2.1.39.2.58.32s.37.24.55.37c-.29-.21.16.14.21.19.14.13.28.26.42.41.05.05.47.57.24.27.27.37.48.76.69 1.16.09.2.09.2.01.02.04.1.08.21.12.32.07.21.13.43.19.65s.1.44.13.67c-.06-.42 0 .18 0 .26.02.42 0 .85-.04 1.27.05-.44-.06.26-.07.34-.05.22-.11.44-.18.65-.02.07-.28.71-.11.34q-.135.315-.3.6c-.165.285-.24.38-.36.57-.13.18-.13.18-.01.02-.07.09-.15.17-.22.26.99.13 1.98.26 2.98.38-2.82-3.89-5.88-7.96-10.33-10.06-.89-.42-2.07-.28-2.58.68-.44.84-.27 2.12.68 2.58 3.88 1.85 6.48 5.35 8.96 8.73.67.91 2.1 1.39 2.98.38 2.6-2.99 3.23-7.61 1.11-11.05-2.03-3.3-6.29-5.05-10.06-4.09-2.19.55-4.4 2.2-4.39 4.66 0 .78.66 1.45 1.45 1.45.86 0 1.35-.67 1.45-1.45Z"/><path d="M115.88 26.31c-1.02-3.51.03-7.42 2.69-9.95s6.94-3.39 10.53-2.47c7.89 2.03 12.77 11.12 10.81 18.88-1.06 4.21-3.96 7.46-7.66 9.59-1.53.88-.52 3.39 1.21 2.87 4.73-1.41 8.23-5.43 9.87-9.97 1.83-5.09 1.08-10.92-1.42-15.65-2.33-4.41-6.39-8-11.19-9.45s-10.2-.5-14.12 2.64c-4.35 3.49-5.93 9.66-3.64 14.75.75 1.67 3.43.48 2.93-1.23Zm8.61 20.66c.58.12 1.19.19 1.78.15.36-.02.72-.07 1.07-.14.45-.09.89-.32 1.18-.68.17-.18.29-.38.36-.62q.105-.375 0-.75c-.12-.45-.51-.89-.98-.98l-.15-.03c-.08-.02-.16-.03-.24-.04-.2-.05-.41-.04-.61.03-.11.02-.22.04-.33.07-.22.05-.43.1-.66.13l.41-.05q-.69.09-1.38 0l.4.05h-.05q-.3-.105-.6-.03c-.2 0-.38.07-.55.18-.31.18-.6.54-.69.89-.09.38-.07.81.15 1.15.2.31.51.61.89.69ZM64.47 59.94c2.83.19 6.03-.76 8.7-1.64 2.76-.91 5.47-2.15 7.92-3.72 2.2-1.41 4.27-3.09 6.02-5.04 1.79-1.99 3.79-4.43 4.06-7.18.15-1.51-1.89-2.12-2.85-1.18-1.67 1.62-2.66 3.88-4.24 5.61s-3.39 3.24-5.37 4.5c-2.14 1.36-4.42 2.41-6.8 3.25-2.56.9-5.33 1.26-7.86 2.23-1.69.65-1.46 3.05.43 3.18Zm23.47 7.87c-.31 4.01-.54 8.03-.68 12.05-.07 2.01-.1 4.02-.12 6.03-.01 2-.07 4.04.36 6 .33 1.51 2.83 1.57 3.12 0 .36-1.98.27-4 .27-6s.01-4.02.04-6.03c.06-4.02.21-8.04.44-12.05.13-2.22-3.27-2.19-3.44 0Zm-1.07 31.04c.94.72 2.2.8 3.36.81 1.05.01 2.13-.18 3.14-.47.99-.28 1.97-.68 2.87-1.18 1.05-.58 1.93-1.29 2.63-2.28.92-1.3-.87-2.95-2.15-2.15-.17.11-.35.2-.51.31-.11.07-.21.14-.31.22-.05.04-.5.38-.36.27s-.11.07-.13.09c-.08.06-.17.12-.25.17a12.5 12.5 0 0 1-1.87 1.05c.16-.07-.12.05-.15.06-.21.08-.43.16-.65.23-.39.12-.78.23-1.18.31-.12.03-.25.05-.37.07-.03 0-.34.06-.16.03l-.3.04-.3.04c.19-.02-.25.03-.24.02-.1 0-.2.02-.31.02-.2.01-.41.02-.61.02-.51 0-1.07-.05-1.56.12-.81.29-1.42 1.53-.58 2.18ZM82.41 80.4c2.06 0 2.06-3.2 0-3.2s-2.06 3.2 0 3.2m13.9 0c2.06 0 2.06-3.2 0-3.2s-2.06 3.2 0 3.2M75.28 68.07c1.45-.9 2.69-1.4 4.46-1.81l.57-.12c.07-.01.76-.12.34-.07.41-.06.83-.08 1.25-.1.86-.04 1.73-.01 2.59 0 1.96 0 2.42-2.98.47-3.45s-4.19-.25-6.18.3c-2 .56-3.76 1.55-5.36 2.86-.58.48-.55 1.47-.12 2.01.46.58 1.31.8 1.98.39Zm31.31-4.11c-1.62-1.34-3.45-2.39-5.48-2.98-2.09-.6-4.2-.72-6.34-.39-.93.14-1.47 1.24-1.35 2.07s.92 1.74 1.86 1.64c.88-.09 1.77-.11 2.65-.08.22 0 .44.02.66.04l.33.03q-.345-.045 0 0c.41.07.82.14 1.22.24s.8.21 1.2.34c.21.07.42.14.62.22.1.04.21.08.31.12-.17-.07-.15-.07.04.02.81.37 1.57.8 2.3 1.31.67.47 1.66.18 2.13-.42s.51-1.64-.13-2.16ZM70.47 123.8c.23-1.84.45-3.68.68-5.52.1-.82.24-1.71.84-2.26.74-.68 1.93-.59 2.82-.13s1.58 1.22 2.35 1.85c2.92 2.4 6.88 3 10.64 3.5 3.13.42 6.31.84 9.43.35s6.22-2.04 7.85-4.74c.27-.45.5-.93.88-1.28 1.14-1.07 3.14-.5 4.09.74s1.14 2.88 1.29 4.44c.17 1.74.32 3.61-.5 5.15-.53 1.01-1.43 1.77-2.38 2.41-3 2.03-6.59 3-10.16 3.58-7.05 1.16-14.4.95-21.22-1.17-3.41-1.06-7.13-3.19-7.54-6.74.48-.07.96-.15 1.44-.22"/><path d="M72 124.23c.4-1.8.62-3.63.92-5.45.04-.25.06-1.14.3-1.3.33-.22 1.15.44 1.43.67 1.15.94 2.19 1.93 3.53 2.63 1.52.8 3.17 1.35 4.85 1.71 3.38.74 6.98 1.23 10.44 1.32s6.88-.47 9.73-2.33c1.24-.8 2.32-1.79 3.18-2.99.22-.31.41-.64.62-.97.05-.08.53-.59.27-.49.3-.12.7.03.96.21 1 .7 1.05 2.41 1.16 3.5.15 1.52.43 3.38-.58 4.68-.87 1.12-2.34 1.85-3.59 2.44-1.54.73-3.21 1.21-4.87 1.58-3.56.8-7.22 1.14-10.86 1.04-3.99-.1-8-.7-11.8-1.91-2.58-.82-5.53-2.24-5.97-5.19-.52.92-1.04 1.83-1.56 2.75.48-.09.94-.21 1.41-.33 2.28-.59 1.87-4.3-.56-4.17-.48.03-.96.05-1.44.11-1.57.2-2.38 1.26-2.16 2.83.5 3.51 3.51 5.97 6.58 7.33 3.83 1.69 8.09 2.44 12.24 2.7 4.35.27 8.77-.08 13.06-.83 3.97-.7 8.03-1.95 11.22-4.5 3.33-2.67 3.22-6.75 2.55-10.61-.32-1.83-1.11-3.62-2.67-4.71-1.4-.97-3.37-1.26-4.91-.43-1.61.86-2.12 2.78-3.47 3.94-1.28 1.1-2.91 1.74-4.54 2.09-3.95.84-8.43.02-12.35-.71-2.01-.37-4.03-.88-5.79-1.96s-2.89-2.77-4.94-3.16c-2.23-.43-4.27.81-4.82 3.03s-.59 4.8-.66 7.07c-.05 1.77 2.73 2.19 3.12.42Z"/><path d="M74.04 128.17c-.66 12.78 5.66 24.77 11.78 36.01.83 1.52 1.66 3.04 2.62 4.48 6.68-6.04 10.32-14.64 13.76-22.96 2.26-5.46 4.42-14.94 4.87-20.83.03-.44.19 2.99-.04 2.61-.34-.57-1.09-.72-1.75-.8-5.47-.66-11.03-.51-16.46.43"/><path d="M72.36 128.17c-.41 7.42 1.24 14.56 4.01 21.41 1.39 3.45 3 6.79 4.72 10.08 1.76 3.38 3.49 6.84 5.59 10.03.75 1.13 2.21 1.34 3.22.41 6.58-6.03 10.29-14.26 13.67-22.34 1.52-3.64 2.7-7.35 3.61-11.19.48-2.02.9-4.05 1.25-6.09.17-1.01.32-2.02.45-3.04.06-.44.11-.89.16-1.33.01-.11.14-1.32.05-.73-1.26.16-2.52.33-3.78.49-.57-.87-.22-1.16-.23-.44 0 .24.02.48.02.72v.72c.02.53 0 .12.01.07l.95-1.24-.02.02 2.51.32c-1.11-1.09-2.22-1.32-3.73-1.5a58 58 0 0 0-5.58-.39c-3.61-.08-7.45.02-10.96.94-2.22.59-1.85 4.3.56 4.11 3.07-.24 6.09-.73 9.19-.79 1.46-.03 2.92 0 4.37.09.86.05 2.63-.12 3.22.47s1.77.86 2.51.32c1.04-.75 1.12-1.75 1.11-2.93 0-.78.08-1.9-.36-2.58-.87-1.32-3.5-1.4-3.78.49-.55 3.63-.97 7.22-1.81 10.81s-1.93 7.32-3.38 10.82c-3.19 7.69-6.67 15.57-12.91 21.3 1.07.14 2.14.28 3.22.41-2.02-3.06-3.69-6.38-5.4-9.62-1.65-3.13-3.22-6.3-4.62-9.55-2.73-6.36-4.72-13.31-4.48-20.28.08-2.17-3.24-2.15-3.36 0Zm-35.19 18.47c-.93 3.92-.81 8.23-.83 12.24 0 2.01.02 4.02.09 6.03.07 2-.05 4.35.58 6.26.49 1.49 3.02 1.81 3.34 0 .35-1.95.03-4.05-.05-6.02s-.15-4.02-.16-6.03.01-4.02.03-6.04c.02-2 .18-4.04-.02-6.03-.16-1.6-2.57-2.2-2.99-.4Zm102.37 2.51c-.34 3.39-.68 6.79-1 10.18-.16 1.7-.33 3.39-.47 5.09-.07.78-.13 1.57-.2 2.35-.03.33.03.87-.1 1.17.11-.26-.11.04-.17.12-.49.66-.16 1.94.59 2.27 1.03.44 2.09.34 2.75-.67.5-.75.51-1.63.57-2.5.13-1.96.27-3.92.38-5.87.23-4.05.45-8.09.66-12.14.1-1.96-2.83-1.9-3.02 0Z"/></svg>