<?xml version="1.0" encoding="UTF-8"?><svg xmlns="http://www.w3.org/2000/svg" viewBox="0 0 180 180"><path d="M62.89 59.44c-.11 4.97-.53 9.96-.72 14.93-.18 4.81-.54 9.7-.11 14.51.75 8.28 4.65 15.72 11.62 20.43 1.72 1.16 3.56 2.17 5.5 2.91s3.97 1.81 6.1 2.01c1.3.12 1.59-1.71.63-2.31-1.45-.92-3.16-1.39-4.63-2.31s-2.81-1.94-4.1-3.01c-2.61-2.17-5.06-4.65-6.87-7.53-4.46-7.1-3.62-15.66-3.77-23.69l-.15-7.72c-.05-2.74-.3-5.48-.31-8.21 0-2.04-3.13-2.04-3.17 0Z"/><path d="M63.62 64.85c-1.91-1.5-4.38-1.8-6.55-.66-1.85.98-3.12 2.82-3.94 4.69-1.91 4.32-2.81 10.14-.45 14.46 1.68 3.06 5.21 5.24 8.46 6.27.85.27 1.82-.25 2.15-1.05.37-.91 0-1.71-.74-2.27-2.39-1.82-5.68-2.72-6.74-5.86-.43-1.28-.52-2.63-.45-3.97.05-1.09.11-1.46.34-2.53s.51-2.08.91-3.08c.11-.28.33-.75.56-1.16.14-.25.3-.5.45-.74 0 0 .36-.49.19-.27.28-.36.61-.72.98-1-.25.19.34-.19.4-.23.37-.2-.13.01.24-.1.99-.3 1.56-.15 2.7.05 1.31.23 2.81-1.5 1.48-2.55Zm15.19 59.74c.28-4.98.33-9.97.35-14.96.01-2.41-3.76-2.42-3.75 0 .02 4.99.07 9.98.35 14.96.11 1.96 2.94 1.96 3.05 0"/><path d="M74.31 121.63c-3.27.78-6.59 1.36-9.86 2.12s-6.21 1.53-9.29 2.39c-6.14 1.71-12.33 3.59-18.22 6.04-2.74 1.14-5.33 2.49-7.55 4.5-1.99 1.8-3.57 4.08-4.82 6.44-2.14 4.05-3.75 8.38-4.63 12.87-.49 2.49-.9 5-1.37 7.5-.37 1.98-.59 4.03-1.08 5.99-.52 2.09 2.58 3.59 3.6 1.52 1.75-3.54 2.3-7.49 3.09-11.32s1.82-7.79 3.48-11.53c.99-2.24 2.14-4.52 3.75-6.4 1.73-2.01 3.88-3.41 6.26-4.54 5.44-2.58 11.38-4.27 17.1-6.11 3.35-1.08 6.72-2.09 10.08-3.11s6.86-2.21 10.33-3.11c2.09-.54 1.21-3.74-.89-3.24ZM60.13 76.68c.14.04.27.09.4.15l-.29-.12c.38.16.74.38 1.07.63l-.25-.19c.3.24.57.52.81.82l-.2-.26c.26.34.48.71.65 1.11l-.13-.32c.06.14.11.27.17.41l-.13-.32c.11.27.2.54.34.8.14.27.49.54.78.6s.58.05.85-.07c.25-.11.5-.29.63-.54l.13-.31c.06-.23.06-.47 0-.7-.05-.3-.19-.59-.33-.86-.09-.19-.2-.36-.32-.53-.28-.41-.6-.81-.97-1.14a6.6 6.6 0 0 0-2.58-1.49c-.61-.18-1.35.22-1.49.85-.15.66.2 1.28.85 1.49Zm53.81-17.24c-.01 4.64-.33 9.3-.42 13.94s.01 9.13-.27 13.67c-.24 3.76-.98 7.42-2.8 10.75-1.65 3.02-3.97 5.51-6.5 7.82-1.39 1.27-2.91 2.36-4.44 3.45-1.68 1.2-3.67 1.75-5.4 2.84-.96.61-.67 2.43.63 2.31 1.85-.17 3.52-1.02 5.24-1.69s3.48-1.43 5.11-2.43c3.36-2.05 6.19-4.75 8.42-7.99 5.24-7.64 4.75-16.91 4.42-25.76l-.31-8.21c-.11-2.91-.42-5.81-.48-8.71-.04-2.04-3.17-2.05-3.17 0Z"/><path d="M117.87 67.4c1.11-.2 1.66-.34 2.61-.07.39.11.06-.02.33.13.06.03.65.41.4.23.37.28.69.64.98 1s.99 1.65 1.2 2.17c.4.99.69 2.03.91 3.08s.28 1.44.34 2.53c.07 1.34-.03 2.69-.45 3.97-1.04 3.14-4.35 4.04-6.74 5.86-.72.55-1.14 1.37-.74 2.27.35.8 1.27 1.33 2.15 1.05 2.9-.92 5.87-2.72 7.73-5.17s2.29-5.46 2.07-8.36c-.32-4.07-1.58-8.98-5.07-11.48-2.21-1.59-5.08-1.42-7.2.25-1.33 1.04.17 2.78 1.48 2.55Zm-13.63 57.19c.28-4.98.33-9.97.35-14.96.01-2.41-3.76-2.42-3.75 0 .02 4.99.07 9.98.35 14.96.11 1.96 2.94 1.96 3.05 0"/><path d="M104.8 124.87c6.09 1.58 12.12 3.62 18.13 5.5 5.93 1.86 11.88 3.75 17.64 6.07 2.37.96 4.77 2.14 6.65 3.89 1.83 1.7 3.15 3.79 4.26 6 1.88 3.75 3.11 7.64 3.99 11.73.93 4.33 1.45 8.91 3.43 12.92 1.01 2.05 4.13.59 3.6-1.52-.44-1.75-.62-3.59-.96-5.36-.42-2.18-.79-4.37-1.19-6.55-.82-4.46-2.13-8.54-4.05-12.67-2.39-5.15-5.92-9.32-11.11-11.78-5.71-2.71-11.98-4.58-18.05-6.32-3.53-1.02-7.08-1.98-10.66-2.82-3.58-.85-7.22-1.49-10.8-2.34-2.1-.5-2.99 2.69-.89 3.24Zm14.43-50.52c-.97.29-1.83.81-2.58 1.49-.37.34-.69.73-.97 1.14-.12.17-.23.35-.32.53-.13.27-.28.56-.33.86-.05.35-.07.7.13 1.01.16.24.36.42.63.54.57.24 1.34.05 1.64-.54.13-.26.22-.53.34-.8l-.13.32c.06-.13.11-.27.17-.41l-.13.32c.17-.4.39-.77.65-1.11l-.2.26c.24-.3.5-.58.81-.82l-.25.19c.33-.25.69-.46 1.07-.63l-.29.12c.13-.06.27-.11.4-.15.3-.1.56-.28.72-.56.15-.26.22-.64.12-.93-.2-.61-.84-1.04-1.49-.85ZM62.76 64.09c4.42 1.37 9.29.6 13.49-1.34s7.8-4.96 11.1-8.19c3-2.93 5.89-6.12 9.6-8.07s8.59-2.38 11.92.18c2.79 2.15 3.87 6.25 2.51 9.49 1.45-1.48 3.99.45 4.4 2.49.41 2.03-.11 4.3.93 6.1 2.14-1.2 2.8-3.92 3.25-6.33.4-2.13.8-4.31.4-6.44-.4-2.12-1.81-4.2-3.9-4.76-.45-.12-.93-.17-1.34-.38-.89-.47-1.23-1.55-1.58-2.49-1.62-4.4-5.24-7.9-9.45-9.97s-8.97-2.82-13.66-2.82c-10.17 0-21.22 4.27-25.58 13.46-1.03 2.18-1.65 4.55-2.07 6.93-.68 3.89-.87 7.86-.55 11.79"/><path d="M62.42 65.31c8.51 2.99 17.01-1.25 23.43-6.72 5.2-4.44 11.41-13.4 19.38-11.4 3.77.95 5.56 4.89 4.18 8.44-.8 2.06 2.03 3.2 3.41 1.99-.29.25.13.21.44.53.49.51.57 1.08.62 1.75.17 2.07.08 3.98 1.08 5.88.5.94 1.88 1.29 2.77.73 3.07-1.95 3.84-5.56 4.42-8.91.65-3.79.66-8.18-2.54-10.9a7.1 7.1 0 0 0-2.27-1.32c-.66-.23-1.2-.12-1.52-.78-.74-1.5-1.19-3.06-2.12-4.49-1.96-3.01-4.73-5.48-7.88-7.19-6.62-3.58-14.66-4.13-21.97-2.93-6.33 1.04-12.71 3.8-17.15 8.56-6.16 6.61-7.3 16.54-6.64 25.2.21 2.77 4.56 2.79 4.34 0-.52-6.77-.07-14.73 3.96-20.47 3.13-4.45 8.32-7.15 13.47-8.49 5.94-1.55 12.57-1.57 18.43.31 2.95.95 5.71 2.52 7.9 4.72.95.96 1.77 2 2.45 3.17.78 1.35 1.1 2.97 1.99 4.24.5.72 1.14 1.26 1.95 1.58.71.28 1.51.3 2.14.75 1.35.94 1.78 2.7 1.79 4.25.01 1.83-.35 3.69-.77 5.47-.33 1.4-.74 2.93-2.05 3.71l2.77.73c-.6-1.21-.37-2.73-.49-4.04-.13-1.48-.46-2.76-1.39-3.94-1.68-2.1-4.48-2.91-6.63-1.03 1.14.66 2.27 1.32 3.41 1.99 1.46-3.7.43-8.31-2.48-11.04-3.12-2.92-7.69-3.39-11.68-2.28-4.34 1.2-7.75 4.27-10.86 7.38-3.24 3.25-6.44 6.49-10.35 8.96-4.36 2.75-9.76 4.35-14.89 3.14-1.6-.38-2.2 1.9-.67 2.44Zm-.73 20.9c1.02 8.94-10.65 15.51-9.83 24.46.38 4.06 3.36 7.66 3.17 11.73-.16 3.54-2.71 6.65-2.81 10.19-.11 3.71 2.59 7.04 5.86 8.78s7.06 2.19 10.74 2.56c1.95.2 4.18.29 5.57-1.09 1.4-1.4 1.3-3.66 1.14-5.63-.69-8.49-.67-17.03.07-25.51.07-.85.14-1.76-.3-2.49-.34-.56-.92-.92-1.46-1.28-5.1-3.39-8.61-9.07-9.38-15.14"/><path d="M60.42 86.21c.09 3.52-1.91 6.54-3.89 9.29-2.16 3.01-4.51 5.95-5.87 9.43-1.62 4.16-.73 7.98.87 11.99.81 2.04 1.71 4.22 1.22 6.46s-1.63 4.17-2.23 6.33c-1.34 4.81.73 9.4 4.6 12.35 4.07 3.1 9.52 3.84 14.48 4.21 2.33.18 4.88-.17 6.55-1.97 1.69-1.82 1.86-4.36 1.68-6.71-.44-5.69-.7-11.35-.54-17.06.09-3.19.5-6.38.55-9.56.02-1.39-.34-2.72-1.35-3.73-.86-.86-2-1.42-2.93-2.2-3.92-3.28-6.2-7.8-7.09-12.79-.4-2.25-4.24-1.76-4.02.54.42 4.43 2.16 8.49 4.9 11.98 1.3 1.66 2.81 3.1 4.5 4.35.56.42 1.5.77 1.68 1.47.12.45-.06 1.14-.09 1.6-.06.73-.12 1.47-.17 2.2-.37 5.31-.43 10.63-.28 15.96.07 2.61.29 5.2.41 7.81.08 1.67.06 3.36-1.92 3.6-2.07.25-4.43-.2-6.46-.54-2.29-.39-4.61-.97-6.6-2.22-1.54-.97-2.92-2.4-3.59-4.12-.73-1.87-.29-3.68.38-5.5.78-2.11 1.71-4.11 1.95-6.38s-.39-4.42-1.2-6.47c-.74-1.89-1.72-3.81-1.96-5.85-.18-1.54.14-3.05.68-4.48 1.31-3.46 3.81-6.39 5.67-9.55s3.24-6.89 2.58-10.77c-.25-1.42-2.54-1.08-2.5.34Zm44.45 22.92c-.56 10.02-.17 20.09 1.15 30.04.15 1.12.33 2.29.97 3.23 1.62 2.36 5.15 2.09 7.91 1.36 7.78-2.07 15.48-6.14 19.62-13.05 1.46-2.44 2.43-5.52 1.24-8.11-1.18-2.56-4.1-3.87-5.59-6.27-2.41-3.88-.29-8.93-.86-13.46-.74-5.87-5.8-10.1-10.48-13.71-2.48 7.84-7.31 14.92-13.7 20.09"/><path d="M103.34 109.13c-1.16 9.51-.74 19.32.42 28.81.27 2.18.43 4.46 1.93 6.2 1.21 1.41 3.02 2.02 4.82 2.17 3.49.29 7.25-1.14 10.43-2.43 6.97-2.82 14.05-7.71 16.74-15.06.69-1.89.94-4.08.36-6.04-.56-1.87-1.81-3.34-3.23-4.63-1.2-1.1-2.64-2.14-3.26-3.7-.69-1.71-.49-3.66-.35-5.45.19-2.31.45-4.58.1-6.89-.31-2.05-1.13-4.03-2.25-5.78-2.35-3.65-5.77-6.38-9.16-9-1.13-.88-2.71.11-3.08 1.25-2.45 7.6-7.08 14.04-13.15 19.18-.86.73-.75 2.2 0 2.95.87.87 2.06.7 2.95 0 6.72-5.32 11.63-12.89 14.24-21.01l-3.08 1.25c2.52 1.94 5.12 4.01 7.03 6.57 2.11 2.82 2.69 5.74 2.43 9.21-.27 3.52-.83 7.24 1.05 10.45.81 1.4 2.01 2.48 3.2 3.54 1.05.93 2.26 1.92 2.62 3.34.77 3.1-1.68 6.49-3.63 8.66-2.24 2.49-4.97 4.42-7.93 5.95-2.86 1.48-6 2.68-9.16 3.3-1.19.23-2.74.43-3.86-.13-1.3-.65-1.34-2.42-1.51-3.68-1.27-9.66-1.47-19.33-1.6-29.06-.03-2.02-2.83-1.91-3.06 0ZM86.77 68.97c-.45 3.24-.17 6.67-.1 9.93s0 6.66.49 9.95c.11.74 1.01 1.2 1.68 1.1.8-.12 1.25-.72 1.33-1.5.32-3.22.06-6.5-.03-9.73-.08-3.2.05-6.59-.55-9.74-.26-1.36-2.62-1.43-2.82 0Zm-.23 29.15c1.42.44 2.94.42 4.37.02.69-.19 1.38-.47 2-.85.37-.23.71-.49 1.05-.76.11-.09.22-.19.32-.3.38-.42.5-.77.57-1.34.09-.77-.79-1.66-1.56-1.56-.43.05-.79.14-1.14.41-.15.11-.29.23-.43.35-.05.05-.15.1-.19.16.03-.05.29-.21.11-.08-.12.08-.24.17-.36.25-.23.15-.47.28-.72.41-.06.03-.12.06-.17.08-.3.15.27-.1.08-.03-.14.05-.27.11-.41.15-.26.09-.53.16-.8.21-.13.03-.6.07-.1.03-.13 0-.26.03-.39.04-.29.02-.58.02-.87.02-.13 0-.26-.01-.39-.02-.06 0-.34-.04-.09 0s-.06-.01-.09-.02c-.76-.13-1.63.2-1.82 1.03s.24 1.57 1.03 1.82Zm-5.37-19.84.1-.12.05-.06h.01v-.02c.14-.13.24-.29.3-.47.04-.05.06-.11.07-.17v-.03c.07-.25.07-.5 0-.76a1.44 1.44 0 0 0-1-1c-.25-.07-.5-.07-.76 0h-.03c-.24.05-.33.13-.5.26l-.15.12-.01.01-.06.05-.12.1c-.14.13-.24.29-.3.47-.09.18-.13.36-.13.57 0 .2.03.39.13.57.06.18.16.34.3.47l.3.23c.23.13.48.2.74.2l.39-.05c.25-.07.46-.2.65-.38Zm17.01 0 .1-.12.05-.06h.01v-.02c.14-.13.24-.29.3-.47.04-.05.06-.11.07-.17v-.03c.07-.25.07-.5 0-.76a1.44 1.44 0 0 0-1-1c-.25-.07-.5-.07-.76 0h-.03c-.24.05-.33.13-.5.26l-.15.12-.01.01-.06.05-.12.1c-.14.13-.24.29-.3.47-.09.18-.13.36-.13.57 0 .2.03.39.13.57.06.18.16.34.3.47l.3.23c.23.13.48.2.74.2l.39-.05c.25-.07.46-.2.65-.38Zm5.59-15.1c-1.68-1.18-3.73-2.23-5.77-2.58-2.32-.4-4.89-.49-6.99.75-1.59.94-.95 3.59.96 3.54.47-.01.94-.03 1.41-.08.37-.04.74-.11 1.11-.16-.51.08.04 0 .15 0 .93-.09 1.88-.1 2.81-.02l.63.06c.07 0 .81.1.38.03a14 14 0 0 1 1.95.44c.07.02.61.21.45.14.45.18.88.42 1.3.65.75.43 1.75.18 2.19-.57.47-.8.14-1.69-.57-2.19Z"/><path d="M60.41 62.03c-7.59.05-15.02-2.36-21.36-6.5-2.08-1.36-4.39-3.21-5.2-5.62-.84-2.51.35-5.17 1.98-7.17 3.88-4.74 10.2-7.31 15.94-8.92 7.24-2.03 14.78-2.88 22.27-3.28 13.96-.75 27.95.17 41.87 1.35 5.25.44 10.53 1.05 15.63 2.42 4.69 1.26 9.58 3.19 12.76 6.93 2.77 3.25 3.66 8.73.86 12.39-3.12 4.08-8.94 5.64-13.78 6.36-1.08.16-2.36.3-3.54.4-2.66.23-2.75 4.28 0 4.22 5.8-.12 12.3-1.64 17.07-5.07 2.49-1.79 4.5-4.09 5.5-7.03s.79-6.2-.21-9.03c-4.02-11.4-18.86-13.76-29.26-14.95-5.78-.66-11.62-1.03-17.42-1.4-8.49-.54-17.01-.81-25.52-.55s-16.67.97-24.76 2.91c-6.74 1.61-13.94 4.05-19.19 8.74-2.68 2.39-4.67 5.6-4.98 9.23-.29 3.39 1.45 6.56 3.83 8.84 2.36 2.26 5.27 3.95 8.22 5.31 4.1 1.89 8.29 3.16 12.81 3.47 2.28.15 4.57-.05 6.82-.4 1.53-.24 1.13-2.66-.36-2.65Z"/><path d="M70.34 28.66c1.58-4.07 3.39-8.06 6.15-11.48 1.23-1.52 2.74-3.28 4.67-3.9 1.82-.59 2.91.8 4.22 1.83 1.59 1.25 3.43 1.84 5.41 1.19 1.84-.61 3.18-2.02 4.9-2.85 3.38-1.62 6.78 2.14 8.42 4.66 1.2 1.83 1.8 3.78 2.45 5.85.69 2.21 1.7 4.12 3.26 5.85 1.74 1.94 4.54-.9 2.85-2.85-1.29-1.48-1.89-3.19-2.46-5.03-.68-2.19-1.52-4.3-2.83-6.2-2.41-3.5-6.3-7.15-10.9-6.62-2.25.26-3.86 1.58-5.71 2.74-.54.34-1.21.81-1.89.72-.85-.12-1.62-1.1-2.24-1.62-1.81-1.49-3.87-2.23-6.21-1.67-2.23.54-4.24 2.1-5.74 3.78-3.63 4.05-6.33 9.43-7.34 14.77-.37 1.98 2.26 2.67 2.98.82Zm4.26 96.87c3.49 2.92 6.82 5.79 9.3 9.66 1.16 1.82 2.2 3.75 2.98 5.76.85 2.19 1.23 4.5 2.03 6.69.64 1.77 3.22 1.51 3.31-.45.11-2.42-.73-5.04-1.57-7.28-.88-2.35-1.98-4.61-3.35-6.71-2.65-4.05-6.29-8.11-10.72-10.23-1.55-.74-3.5 1.29-1.98 2.56"/><path d="M102.55 122.96c-1.09.63-2.16 1.16-3.16 1.94-.98.76-1.93 1.57-2.81 2.45a30.3 30.3 0 0 0-4.61 5.91c-1.26 2.1-2.28 4.36-3.05 6.68a24 24 0 0 0-.89 3.56c-.23 1.32-.5 2.79-.08 4.1s2.31 1.69 3.03.4c.56-1 .71-2.13.96-3.23s.54-2.14.87-3.2c.66-2.12 1.55-4.13 2.67-6.04s2.32-3.62 3.77-5.25c.74-.83 1.5-1.63 2.31-2.38s1.63-1.64 2.52-2.31c1.51-1.14.21-3.62-1.53-2.62ZM36.4 136.79c-.13 5.24-.25 10.47-.31 15.71-.03 2.58-.06 5.15-.05 7.73v3.99c0 1.33-.11 2.74.31 3.97a1.832 1.832 0 0 0 3.5 0c.42-1.24.3-2.68.31-3.97s0-2.66 0-3.99c0-2.58-.02-5.15-.06-7.73-.07-5.24-.19-10.47-.32-15.71-.05-2.17-3.32-2.17-3.38 0m43.43 22.55c3.42-.48 6.85-.85 10.29-1.14 1.73-.14 3.46-.29 5.19-.41s3.83.12 5.28-.73.9-2.65-.42-3.2c-.9-.37-1.92-.17-2.86-.09-.8.07-1.6.14-2.4.22-1.8.18-3.59.38-5.39.61-3.53.46-7.06.97-10.58 1.54-.88.14-1.38 1.24-1.16 2.04.26.95 1.15 1.28 2.04 1.16Zm-6.72.05s.07-.01.1-.02l.4-.17c.2-.11.35-.25.47-.43.1-.1.18-.23.22-.37.11-.2.15-.42.14-.65l-.06-.45-.17-.4a1.3 1.3 0 0 0-.43-.47 1.2 1.2 0 0 0-.57-.3c-.03 0-.07-.02-.1-.02-.3-.08-.6-.08-.91 0-.29.08-.54.23-.75.44l-.27.34c-.15.27-.23.55-.23.86 0 .23.04.45.15.66.07.21.19.39.35.55.21.21.46.36.75.44.3.08.6.08.91 0Zm31.17-4.17.05.2.14.33c.09.16.2.29.35.38q.135.12.3.18c.16.09.34.12.53.12l.36-.05.33-.14c.16-.09.29-.2.38-.35.12-.13.2-.29.24-.46l.05-.2q.105-.375 0-.75c-.07-.24-.19-.45-.36-.62l-.29-.22c-.22-.13-.46-.19-.71-.19-.19 0-.38.03-.54.12-.18.06-.33.15-.46.29-.18.18-.3.38-.36.62q-.105.375 0 .75ZM79.83 169.3c3.42-.48 6.85-.85 10.29-1.14 1.73-.14 3.46-.29 5.19-.41s3.83.12 5.28-.73.9-2.65-.42-3.2c-.9-.37-1.92-.17-2.86-.09-.8.07-1.6.14-2.4.22-1.8.18-3.59.38-5.39.61-3.53.46-7.06.97-10.58 1.54-.88.14-1.38 1.24-1.16 2.04.26.95 1.15 1.28 2.04 1.16Zm-6.72.05s.07-.01.1-.02l.4-.17c.2-.11.35-.25.47-.43.1-.1.18-.23.22-.37.11-.2.15-.42.14-.65l-.06-.45-.17-.4a1.3 1.3 0 0 0-.43-.47 1.2 1.2 0 0 0-.57-.3c-.03 0-.07-.02-.1-.02-.3-.08-.6-.08-.91 0-.29.08-.54.23-.75.44l-.27.34c-.15.27-.23.55-.23.86 0 .23.04.45.15.66.07.21.19.39.35.55.21.21.46.36.75.44.3.08.6.08.91 0Zm31.17-4.17.05.2.14.33c.09.16.2.29.35.38q.135.12.3.18c.16.09.34.12.53.12l.36-.05.33-.14c.16-.09.29-.2.38-.35.12-.13.2-.29.24-.46l.05-.2q.105-.375 0-.75c-.07-.24-.19-.45-.36-.62l-.29-.22c-.22-.13-.46-.19-.71-.19-.19 0-.38.03-.54.12-.18.06-.33.15-.46.29-.18.18-.3.38-.36.62q-.105.375 0 .75Zm34.29-31.29c.11 5.71-1.52 11.4-2.29 17.03-.39 2.84-.69 5.68-.87 8.54-.09 1.39-.14 2.77-.17 4.16s-.3 3.22.51 4.49c.66 1.03 2.14 1.06 2.79 0 .76-1.23.5-2.85.53-4.24s.08-2.77.15-4.16c.15-2.93.41-5.86.79-8.76s.85-5.59 1.22-8.4c.38-2.88.47-5.75.41-8.66-.04-1.99-3.13-1.99-3.09 0ZM71.14 22.65c11.5-1.16 23.13-1.06 34.6.31.42.05.86.11 1.22.33.62.4.84 1.19 1.02 1.9l.69 2.88a234 234 0 0 0-38.34-.96c.44-.82.87-1.64 1.31-2.45"/><path d="M71.14 24.2c6.64-.64 13.33-.91 19.99-.65 3.25.13 6.51.31 9.75.62.81.08 1.62.16 2.43.26.65.08 1.93 0 2.48.33.32.19.35.78.44 1.16.2.88.39 1.77.58 2.65.62-.81 1.23-1.62 1.85-2.42a201.4 201.4 0 0 0-38.34-1.07c.58 1.02 1.17 2.03 1.75 3.05.43-.83.86-1.65 1.23-2.5.99-2.24-1.98-4.11-3.35-1.96-.5.78-.94 1.6-1.38 2.41-.71 1.29.17 3.12 1.75 3.05 6.4-.28 12.78-.48 19.19-.33 6.4.15 12.78.61 19.15 1.18 1.27.11 2.14-1.31 1.85-2.42-.4-1.5-.61-3.3-1.44-4.64-.96-1.57-2.63-1.7-4.3-1.86-3.72-.35-7.46-.63-11.2-.76-7.48-.26-14.99.02-22.44.79-1.97.2-2 3.3 0 3.11Zm1.43 43.52c1.87-.95 3.66-1.71 5.71-2.29.99-.29 2.01-.51 3.02-.68l.41-.06c.24-.03.27-.04.1-.01.27-.03.55-.06.82-.08l.82-.06c.64-.07 1.01-.26 1.49-.67.95-.8.53-2.26-.37-2.86-.67-.45-1.4-.36-2.15-.28-.68.08-1.37.17-2.05.3-1.12.2-2.22.5-3.29.87-2.33.81-4.4 1.95-6.32 3.51-.57.46-.54 1.42-.12 1.95.48.6 1.24.73 1.91.38Z"/></svg>