<?xml version="1.0" encoding="UTF-8"?><svg xmlns="http://www.w3.org/2000/svg" viewBox="0 0 180 180"><path d="M62.89 59.44c-.11 4.97-.53 9.96-.72 14.93-.18 4.81-.54 9.7-.11 14.51.75 8.28 4.65 15.72 11.62 20.43 1.72 1.16 3.56 2.17 5.5 2.91 1.98.75 3.97 1.81 6.1 2.01 1.3.12 1.59-1.71.63-2.31-1.45-.92-3.16-1.39-4.63-2.31s-2.81-1.94-4.1-3.01c-2.61-2.17-5.06-4.65-6.87-7.53-4.46-7.1-3.62-15.66-3.77-23.69l-.15-7.72c-.05-2.74-.3-5.48-.31-8.21 0-2.04-3.13-2.04-3.17 0Z"/><path d="M63.62 64.85c-1.91-1.5-4.38-1.8-6.55-.66-1.85.98-3.12 2.82-3.94 4.69-1.91 4.32-2.81 10.14-.45 14.46 1.68 3.06 5.21 5.24 8.46 6.27.85.27 1.82-.25 2.15-1.05.37-.91 0-1.71-.74-2.27-2.39-1.82-5.68-2.72-6.74-5.86-.43-1.28-.52-2.63-.45-3.97.05-1.09.11-1.46.34-2.53s.51-2.08.91-3.08c.11-.28.33-.75.56-1.16.14-.25.3-.5.45-.74 0 0 .36-.49.19-.27.28-.36.61-.72.98-1-.25.19.34-.19.4-.23.37-.2-.13.01.24-.1.99-.3 1.56-.15 2.7.05 1.31.23 2.81-1.5 1.48-2.55Zm14.19 58.74c.28-4.98.33-9.97.35-14.96.01-2.41-3.76-2.42-3.75 0 .02 4.99.07 9.98.35 14.96.11 1.96 2.94 1.96 3.05 0"/><path d="M74.31 121.63c-3.27.78-6.59 1.36-9.86 2.12s-6.21 1.53-9.29 2.39c-6.14 1.71-12.33 3.59-18.22 6.04-2.74 1.14-5.33 2.49-7.55 4.5-1.99 1.8-3.57 4.08-4.82 6.44-2.14 4.05-3.75 8.38-4.63 12.87-.49 2.49-.9 5-1.37 7.5-.37 1.98-.59 4.03-1.08 5.99-.52 2.09 2.58 3.59 3.6 1.52 1.75-3.54 2.3-7.49 3.09-11.32s1.82-7.79 3.48-11.53c.99-2.24 2.14-4.52 3.75-6.4 1.73-2.01 3.88-3.41 6.26-4.54 5.44-2.58 11.38-4.27 17.1-6.11 3.35-1.08 6.72-2.09 10.08-3.11s6.86-2.21 10.33-3.11c2.09-.54 1.21-3.74-.89-3.24ZM60.13 76.68c.14.04.27.09.4.15l-.29-.12c.38.16.74.38 1.07.63l-.25-.19c.3.24.57.52.81.82l-.2-.26c.26.34.48.71.65 1.11l-.13-.32c.06.14.11.27.17.41l-.13-.32c.11.27.2.54.34.8.14.27.49.54.78.6s.58.05.85-.07c.25-.11.5-.29.63-.54l.13-.31c.06-.23.06-.47 0-.7-.05-.3-.19-.59-.33-.86-.09-.19-.2-.36-.32-.53-.28-.41-.6-.81-.97-1.14a6.6 6.6 0 0 0-2.58-1.49c-.61-.18-1.35.22-1.49.85-.15.66.2 1.28.85 1.49Zm53.81-17.24c-.01 4.64-.33 9.3-.42 13.94s.01 9.13-.27 13.67c-.24 3.76-.98 7.42-2.8 10.75-1.65 3.02-3.97 5.51-6.5 7.82-1.39 1.27-2.91 2.36-4.44 3.45-1.68 1.2-3.67 1.75-5.4 2.84-.96.61-.67 2.43.63 2.31 1.85-.17 3.52-1.02 5.24-1.69s3.48-1.43 5.11-2.43c3.36-2.05 6.19-4.75 8.42-7.99 5.24-7.64 4.75-16.91 4.42-25.76l-.31-8.21c-.11-2.91-.42-5.81-.48-8.71-.04-2.04-3.17-2.05-3.17 0Z"/><path d="M117.87 67.4c1.11-.2 1.66-.34 2.61-.07.39.11.06-.02.33.13.06.03.65.41.4.23.37.28.69.64.98 1s.99 1.65 1.2 2.17c.4.99.69 2.03.91 3.08s.28 1.44.34 2.53c.07 1.34-.03 2.69-.45 3.97-1.04 3.14-4.35 4.04-6.74 5.86-.72.55-1.14 1.37-.74 2.27.35.8 1.27 1.33 2.15 1.05 2.9-.92 5.87-2.72 7.73-5.17 1.79-2.36 2.29-5.46 2.07-8.36-.32-4.07-1.58-8.98-5.07-11.48-2.21-1.59-5.08-1.42-7.2.25-1.33 1.04.17 2.78 1.48 2.55Zm-12.63 56.19c.28-4.98.33-9.97.35-14.96.01-2.41-3.76-2.42-3.75 0 .02 4.99.07 9.98.35 14.96.11 1.96 2.94 1.96 3.05 0"/><path d="M104.8 124.87c6.09 1.58 12.12 3.62 18.13 5.5 5.93 1.86 11.88 3.75 17.64 6.07 2.37.96 4.77 2.14 6.65 3.89 1.83 1.7 3.15 3.79 4.26 6 1.88 3.75 3.11 7.64 3.99 11.73.93 4.33 1.45 8.91 3.43 12.92 1.01 2.05 4.13.59 3.6-1.52-.44-1.75-.62-3.59-.96-5.36-.42-2.18-.79-4.37-1.19-6.55-.82-4.46-2.13-8.54-4.05-12.67-2.39-5.15-5.92-9.32-11.11-11.78-5.71-2.71-11.98-4.58-18.05-6.32-3.53-1.02-7.08-1.98-10.66-2.82-3.58-.85-7.22-1.49-10.8-2.34-2.1-.5-2.99 2.69-.89 3.24Zm14.43-50.52c-.97.29-1.83.81-2.58 1.49-.37.34-.69.73-.97 1.14-.12.17-.23.35-.32.53-.13.27-.28.56-.33.86-.05.35-.07.7.13 1.01.16.24.36.42.63.54.57.24 1.34.05 1.64-.54.13-.26.22-.53.34-.8l-.13.32c.06-.13.11-.27.17-.41l-.13.32c.17-.4.39-.77.65-1.11l-.2.26c.24-.3.5-.58.81-.82l-.25.19c.33-.25.69-.46 1.07-.63l-.29.12c.13-.06.27-.11.4-.15.3-.1.56-.28.72-.56.15-.26.22-.64.12-.93-.2-.61-.84-1.04-1.49-.85Zm-55.1-10.22c3.64.54 7.29-1.55 9.56-4.46 2.27-2.9 3.42-6.51 4.42-10.05 1.99 3.32 5.47 6.06 9.34 5.94s7.52-4.07 6.34-7.76c2.47 3.8 6.32 6.67 10.66 7.97 1.34.4 2.81.65 4.1.13s2.26-2.05 1.73-3.34a15.98 15.98 0 0 0 6.05 10.08c.81.61 1.82 1.17 2.79.88 1.17-.35 1.67-1.7 2-2.88.93-3.34 1.87-6.78 1.46-10.22s-2.5-6.92-5.82-7.89c-.52-.15-1.1-.27-1.43-.69-.24-.31-.3-.72-.36-1.11-.68-3.89-3.79-7.25-7.62-8.22-3.83-.98-8.16.48-10.63 3.57-2.94-3.08-7.14-5.16-11.39-4.83s-8.35 3.42-9.14 7.61c-3.37-2.54-8.61-2.15-11.55.88s-3.2 8.28-.56 11.57c-2.95.33-5.53 2.8-5.98 5.74s1.25 6.07 3.97 7.28"/><path d="M63.74 65.54c4.06.58 7.96-.97 10.74-3.96 2.95-3.16 4.4-7.35 5.66-11.4-1.28.17-2.56.33-3.84.5 2.6 4.2 7.2 7.68 12.38 6.8 4.6-.78 8.28-5.56 7.04-10.21l-3.65 1.54c2.54 3.93 6.17 6.86 10.55 8.52 2.22.84 4.9 1.45 7.13.29 2-1.04 3.25-3.39 2.53-5.61-.83-2.58-4.45-1.5-4 1.1.8 4.65 3.85 10.1 8.33 12.11 2.8 1.25 5.2-.38 6.2-3.04s1.63-5.65 1.88-8.47c.44-4.83-1.34-10.5-6.05-12.68-.53-.25-1.12-.37-1.65-.61-.28-.13.09.13.1.14-.13-.22-.12-.66-.18-.92-.27-1.16-.74-2.3-1.34-3.33-1.2-2.05-3.02-3.83-5.14-4.92-5.1-2.6-11.62-1.29-15.3 3.12h3.14c-3.69-3.8-8.9-6.18-14.25-5.33-4.69.74-8.98 4.37-9.98 9.08l3.25-1.32c-4.22-3.04-10.59-2.49-14.22 1.23-3.62 3.71-4.06 10.1-.9 14.24l1.31-3.23c-3.8.54-7 3.78-7.55 7.57-.55 3.82 1.53 7.78 5.02 9.45 1.06.51 2.35.29 2.98-.78.56-.95.28-2.47-.78-2.98-1.91-.92-3.26-2.92-2.91-5.11s2.32-3.62 4.41-3.91c1.31-.19 2.11-2.18 1.31-3.23-1.97-2.58-2.14-6.48.22-8.91 2.36-2.42 6.23-2.44 8.88-.52 1.13.82 2.97-.02 3.25-1.32.68-3.17 3.47-5.47 6.66-5.93 3.83-.55 7.57 1.49 10.17 4.14.78.8 2.38.92 3.14 0 2.21-2.68 5.8-3.96 9.16-2.83 1.49.5 2.84 1.53 3.81 2.77.46.59.87 1.29 1.15 1.99.39.97.4 2.08.87 3 .94 1.83 2.97 1.65 4.44 2.76 1.34 1.01 2.16 2.63 2.56 4.22.53 2.08.29 4.31-.14 6.38-.22 1.09-.51 2.16-.8 3.23-.14.5-.33 2.12-.89 2.39.22-.1-.27-.19-.44-.29-.46-.26-.87-.62-1.26-.98-.78-.71-1.5-1.49-2.1-2.35-1.24-1.81-2.01-3.78-2.39-5.94l-4 1.1c.08.36.11.4.1.12l-.08.3c-.05.08-.15.21-.22.27-.46.42-1.29.35-1.85.27-1.43-.2-2.88-.82-4.14-1.48-2.61-1.37-4.9-3.36-6.57-5.8-1.22-1.79-4.32-.74-3.65 1.54.77 2.63-1.91 5.07-4.42 5.17-3.21.12-5.95-2.38-7.53-4.94-.93-1.51-3.37-1.29-3.84.5-.86 3.3-1.81 6.73-3.88 9.5-1.89 2.53-4.84 4.44-8.08 4.1-1.62-.17-2.02 2.64-.39 2.87Z"/><path d="M84.35 12.27c-3.52-.96-7.35-1.37-10.77-.09s-6.27 4.6-6.05 8.24c-2.76-1.35-6.27-1-8.71.87s-3.68 5.18-3.08 8.19c.24 1.2 1 2.53 2.22 2.56-3.5.36-6.73 2.67-8.21 5.85-1.48 3.19-1.17 7.14.81 10.05-2.56 1.6-4.63 3.98-5.85 6.74-.51 1.14-.87 2.41-.61 3.63s1.31 2.34 2.56 2.31c-4.33 1.48-8.37 4.67-9.52 9.1-1.14 4.43 1.67 9.87 6.21 10.4-3.43 2.07-5.67 6.26-4.83 10.18s5.16 6.93 9 5.8c-1.91 2.88-1.59 7.05.73 9.61s6.44 3.28 9.49 1.66c-.76 2.92.38 6.24 2.78 8.08 2.4 1.83 5.9 2.07 8.52.58 1.41.84 3.32.74 4.64-.24s1.97-2.77 1.58-4.37c-.44-1.81-1.99-3.1-3.32-4.41-4.32-4.24-6.97-9.89-8.93-15.62-.27-.79-.55-1.61-1.15-2.18-.51-.48-1.19-.72-1.84-1-7.25-3.12-10.76-12.84-7.17-19.87 1.11-2.17 2.76-4.05 3.7-6.3 2.53-6.02 2.43-5.29 3.51-11.73 1.88-11.23 7.06-21.2 18.65-24.53 5.43-1.56 11.08-1.52 16.64-2.16.51-3.51-.23-7.36-2.71-9.9s-6.88-3.26-9.63-1.03"/><path d="M84.71 10.98c-4.23-1.51-8.96-2.03-13.13-.07-3.6 1.69-6.26 5.48-6.15 9.51l3.17-1.82c-4.74-2.21-10.41-.94-13.39 3.47-2.46 3.64-2.96 11.45 2.76 12.15v-4.35c-4.14.51-7.99 2.81-9.94 6.6s-1.78 8.84.64 12.59l.79-3.01c-3.09 1.96-5.55 4.76-6.95 8.16-1.48 3.61-.37 8.35 4.15 8.65-.2-1.46-.4-2.92-.59-4.38-5.36 1.84-10.55 5.94-11.35 11.89-.69 5.15 2.55 11.18 8.03 11.98-.18-1.4-.37-2.8-.55-4.19-4.35 2.73-7.32 8.11-5.79 13.28 1.44 4.89 6.72 8.25 11.74 6.93-.88-1.14-1.75-2.28-2.63-3.42-2.44 3.88-1.97 9.22 1.21 12.56 3.15 3.31 8.2 3.83 12.2 1.9-1.14-.88-2.28-1.76-3.43-2.63-.93 3.75.31 7.91 3.36 10.37 3.24 2.61 7.74 2.88 11.36.91h-2.34c2.4 1.24 5.29 1.13 7.42-.63 1.89-1.56 2.72-4.2 2.13-6.57s-2.55-3.98-4.22-5.66c-1.67-1.67-3.07-3.56-4.25-5.59s-2.24-4.33-3.11-6.61c-.83-2.18-1.31-4.73-3.47-6.01-1.68-.99-3.38-1.53-4.82-2.93a13.3 13.3 0 0 1-2.97-4.39c-1.36-3.29-1.5-7.21.19-10.41 1.23-2.34 2.84-4.38 3.86-6.83.68-1.63 1.42-3.25 2-4.91 1.2-3.45 1.36-7.19 2.25-10.72.95-3.78 2.4-7.42 4.62-10.64 2.4-3.48 5.86-6.25 9.83-7.73 5.76-2.15 11.98-2.02 18.01-2.68.82-.09 1.88-.58 2.01-1.53.59-4.39-.19-9.37-3.73-12.42-3.17-2.73-8.23-3.56-11.72-.92-.92.7-1.41 1.85-.77 2.94.53.91 2.01 1.48 2.94.77 2.09-1.6 5.05-1.27 6.93.56 2.26 2.19 2.63 5.54 2.24 8.52l2.09-2.09c-6.08.7-12.39.64-18.24 2.6-4.33 1.45-8.26 3.97-11.24 7.45-2.93 3.42-4.94 7.49-6.28 11.77-1.26 4.04-1.47 8.31-2.69 12.34-.51 1.68-1.26 3.29-1.96 4.89-1.13 2.59-3.03 4.72-4.2 7.28-1.89 4.16-1.85 9-.13 13.21 1.75 4.29 4.81 7.35 8.98 9.27 1.12.52 1.23 1.29 1.63 2.41q.72 2.025 1.56 3.99c1.08 2.53 2.33 4.99 3.88 7.27a34 34 0 0 0 2.87 3.67c.95 1.04 2.12 1.93 2.95 3.07.57.77.89 1.7.38 2.59-.52.92-1.57 1.17-2.53.79-1.16-.46-1.61-.4-2.8.08-.43.17-.88.33-1.34.41-1.18.2-2.49-.04-3.54-.59-2.13-1.13-3.18-3.7-2.67-6.03.44-2.02-1.58-3.59-3.43-2.63-2.12 1.1-4.91.54-6.54-1.17-1.77-1.86-1.8-4.81-.49-6.91 1.1-1.76-.71-3.92-2.63-3.42-2.71.71-5.46-1.39-6.09-4.01-.72-3.01 1.23-6.18 3.7-7.75 1.48-.94 1.54-3.9-.55-4.19-3.3-.46-5.25-3.93-4.72-7.11.65-3.95 4.48-6.74 8.01-8.02 2.34-.85 2-4.26-.59-4.38-1.34-.07.55-3.76.79-4.16 1.05-1.78 2.49-3.27 4.22-4.39.96-.62 1.46-1.97.79-3.01-1.57-2.41-1.97-5.54-.66-8.17 1.16-2.33 3.55-4.13 6.16-4.45 2.79-.35 2.8-4.01 0-4.35.47.06.14.2.12-.19-.01-.21-.21-.56-.25-.77-.1-.54-.1-1.15-.04-1.7.14-1.23.68-2.45 1.48-3.39 1.72-2.01 4.77-2.68 7.19-1.59 1.37.62 3.23-.08 3.17-1.82-.1-2.81 1.84-5.06 4.26-6.26 3.07-1.52 6.84-1.17 10.1-.6 1.69.3 2.35-1.99.71-2.58Z"/><path d="M89.09 24.87c7.86-1.37 16.31-.61 23.17 3.46s11.77 11.81 11.2 19.77c-.3 4.16-2 8.07-3.23 12.05-.14.44-.27.92-.13 1.37.16.51.63.85 1.06 1.17 3.74 2.81 6.11 7.36 6.26 12.04.15 4.67-1.91 9.37-5.45 12.42-1.37 1.18-2.97 2.15-3.98 3.66-.78 1.17-1.13 2.56-1.48 3.92-1.51 5.84-3.64 12.11-8.72 15.36-.72.46-1.55.92-1.85 1.73-.6 1.65 1.38 3 3.01 3.65 3.58 1.41 8.03 2.68 10.95.17 1.94-1.66 2.43-4.42 2.81-6.95 3.54 1.33 7.94 1.02 10.59-1.67 2.66-2.69 2.48-7.95-.84-9.74 3.14.82 6.73-.78 8.24-3.65 1.5-2.87.76-6.73-1.69-8.85 3.83-2.39 6.18-6.97 5.89-11.47s-3.21-8.74-7.32-10.61c1.85-1.94 3.73-3.91 4.98-6.28s1.8-5.25.86-7.76-3.63-4.44-6.27-3.94c1.46-2.84 2.19-6.3.91-9.23s-5.08-4.81-7.86-3.24c.74-3.01-.34-6.4-2.69-8.43s-5.86-2.59-8.73-1.41c.23-2.74-1.03-5.55-3.23-7.2s-5.26-2.06-7.82-1.05c-3.39-2.09-7.54-2.93-11.48-2.31-2.15.34-4.3 1.13-5.82 2.69s-2.27 3.97-1.46 5.99"/><path d="M89.09 26.41c9.9-1.2 20.77.33 27.57 8.33 2.88 3.38 4.77 7.77 4.73 12.25-.02 2.66-.77 5.24-1.59 7.75-.43 1.33-.9 2.64-1.33 3.97-.49 1.51-.84 3.02.12 4.42.65.94 1.74 1.53 2.55 2.32s1.5 1.65 2.09 2.61c1.23 2 2 4.31 2.07 6.67.16 4.9-2.3 8.96-6.05 11.9-2.13 1.68-3.62 3.47-4.44 6.1-.71 2.27-1.23 4.57-2.04 6.81-.75 2.06-1.73 4.1-3.07 5.85-.65.84-1.43 1.65-2.28 2.3s-1.92 1.14-2.67 1.97c-2.26 2.51-.66 5.59 1.84 7.1 2.29 1.38 5.25 2.18 7.89 2.45 2.72.28 5.59-.45 7.49-2.52 1.86-2.04 2.46-4.77 2.84-7.42l-2.68 1.52c4.76 1.7 10.89.93 13.85-3.57 2.5-3.8 1.67-9.54-2.37-11.9-.58 1.38-1.16 2.76-1.75 4.14 4.12.98 8.8-.83 10.81-4.68 1.99-3.8 1.13-8.72-2.06-11.6l-.46 3.56c4.49-2.91 7.42-8.2 6.99-13.61-.41-5.25-3.63-10.13-8.41-12.41.15 1.2.31 2.4.46 3.6 3.51-3.66 7.27-7.98 6.98-13.41-.27-5.11-4.42-9.2-9.64-8.43.87 1.13 1.74 2.27 2.61 3.4 1.92-3.84 2.95-8.94.25-12.71-2.35-3.29-6.66-4.86-10.38-2.93l3.42 2.63c.85-3.84-.28-8.05-3.29-10.69-2.96-2.59-7.3-3.42-10.99-2 .98.74 1.95 1.49 2.93 2.23.44-7.37-7-13-13.98-10.47l1.77.23c-4.44-2.64-10.04-3.61-15.04-2.12-4.64 1.38-8.89 5.94-7.05 11.08.41 1.15 1.54 1.92 2.78 1.58 1.11-.31 1.99-1.62 1.58-2.78-.94-2.65 1.36-4.7 3.71-5.43 2.99-.93 6.27-.68 9.19.39.68.25 1.34.57 1.97.93 1 .57 1.58.71 2.69.42 1.42-.36 2.76-.46 4.16.09 2.48.98 3.76 3.5 3.6 6.07-.09 1.4 1.56 2.75 2.93 2.23 2.16-.83 4.62-.68 6.48.82 1.79 1.45 2.58 3.95 2.08 6.17-.45 2.02 1.59 3.57 3.42 2.63 1.58-.81 3.58.42 4.38 1.81 1.32 2.29.49 5.28-.6 7.48-.96 1.93.61 3.7 2.61 3.4 1.12-.17 2.32.68 2.96 1.53.85 1.12 1 2.67.78 4.02-.57 3.49-3.22 6.15-5.55 8.59-.94.99-.91 2.94.46 3.6 3.32 1.57 5.84 4.73 6.19 8.45s-1.55 7.63-4.75 9.69c-1.17.75-1.59 2.54-.46 3.56 1.67 1.51 2.35 4.01 1.33 6.09s-3.5 3.1-5.66 2.62c-2.45-.55-4.04 2.82-1.75 4.14 2 1.15 2.02 4.23.64 5.98-2.01 2.53-5.93 2.35-8.66 1.38-1.02-.36-2.51.42-2.68 1.52-.32 2.1-.59 5.11-2.71 6.25s-4.86.23-6.94-.49c-1.06-.37-1.94-.75-2.83-1.43-.71-.54.19-.07-.1-.02l-.04.18c.06-.06.13-.11.19-.16.43-.02 1.24-.82 1.6-1.09 2.15-1.61 3.85-3.7 5.15-6.05 1.29-2.35 2.21-4.91 2.97-7.47s.99-5.35 3.13-7.22 4.32-3.53 5.88-6.09 2.34-5.2 2.57-8.04c.26-3.16-.46-6.35-1.85-9.19-.71-1.44-1.64-2.78-2.7-3.98-.51-.58-1.07-1.13-1.67-1.63-.46-.38-1.09-.68-1.34-1.22l.29 1.07c-.13-1.02.52-2.26.85-3.23.4-1.18.8-2.35 1.17-3.53.7-2.28 1.24-4.63 1.37-7.03.2-3.89-.85-7.8-2.67-11.22-3.91-7.36-11.44-12.04-19.52-13.47-4.91-.86-9.87-.71-14.73.35-1.66.36-1.33 3.23.41 3.02Zm-1.58 46.94c-.02 2.86-.02 5.71.09 8.57.11 2.88.11 5.82.64 8.66.35 1.86 3.13 1.33 3.19-.43.1-2.79-.29-5.61-.49-8.4-.2-2.8-.44-5.6-.64-8.4-.13-1.78-2.79-1.82-2.8 0Zm-4.9 23.74c2.22 1.36 4.77 2.21 7.38 2.25 1.29.02 2.61-.14 3.86-.44 1.26-.31 3.11-.78 3.78-1.99.59-1.07-.17-2.19-1.32-2.29-.65-.06-1.27.3-1.77.51s-1.05.39-1.58.53c-1.02.27-1.91.39-2.97.4-2.08.02-4.15-.33-5.99-1.34-1.55-.85-2.9 1.45-1.39 2.37m-7.88-25.24c.09-.07.17-.14.26-.21-.14.11-.03.02.05-.04.18-.13.36-.26.55-.38.38-.23.78-.42 1.18-.61.13-.06.2-.08.02-.01.2-.08.39-.17.59-.25-.17.07-.12.05.02 0 .1-.04.21-.08.31-.12.44-.16.89-.29 1.35-.41.22-.05.43-.1.65-.14l.33-.06c.04 0 .39-.05.16-.02s.12 0 .16-.01l.33-.03c.22-.02.44-.02.66-.03 1.02-.03 2 .09 3.01-.12 1.47-.31 1.58-2.37.4-3.08-1.04-.63-2.3-.71-3.49-.65-1.1.05-2.22.24-3.28.55-2.14.62-3.98 1.76-5.65 3.22-.67.58-.64 1.81 0 2.4.73.67 1.67.61 2.4 0Z"/><path d="M108.26 67.92c-1.45-2.11-3.67-3.54-6.18-4.05-1.4-.29-2.82-.3-4.23-.11-1.69.22-3.34.48-4.59 1.72-.49.48-.63 1.26-.36 1.88.3.68.86.97 1.57 1.06-.25 0-.1.03.44.07.15 0 .3 0 .44-.02.43-.04.82-.12 1.23-.23a21 21 0 0 1 1.58-.37c.15-.03.3-.05.46-.08-.17.02-.12.01.14-.02.31-.03.61-.05.92-.06.56-.02 1.12 0 1.67.05.1 0 .19.02.29.03-.21-.03-.19-.03.05.01.25.05.51.1.76.16.39.1 1 .3 1.24.4.73.31 1.49.84 2.09 1.49 1.2 1.29 3.51-.42 2.48-1.91ZM80.04 78.77l.05.19.16.38c.1.19.24.33.41.45.1.1.22.17.35.2.19.1.39.15.61.14l.42-.06.38-.16c.19-.1.33-.24.45-.41.14-.15.24-.33.29-.54l.05-.19c.08-.29.08-.58 0-.88-.08-.28-.22-.52-.42-.73l-.33-.26c-.26-.15-.53-.22-.83-.23-.23 0-.44.04-.64.14-.2.07-.38.18-.53.34-.2.21-.35.45-.42.73-.08.29-.08.58 0 .88Zm15.77 0 .05.19.16.38c.1.19.24.33.41.45.1.1.22.17.35.2.19.1.39.15.61.14l.42-.06.38-.16c.19-.1.33-.24.45-.41.14-.15.24-.33.29-.54l.05-.19c.08-.29.08-.58 0-.88-.08-.28-.22-.52-.42-.73l-.33-.26c-.26-.15-.53-.22-.83-.23-.23 0-.44.04-.64.14-.2.07-.38.18-.53.34-.2.21-.35.45-.42.73-.08.29-.08.58 0 .88Zm-53.42 92.34c4.56-4.88 6.26-11.76 7.15-18.19.51-3.64.85-7.3 1.16-10.96.33-4 .87-8.15.72-12.17-.1-2.61-3.65-2.47-3.95 0-.45 3.69-.42 7.48-.71 11.2-.28 3.6-.6 7.21-1.04 10.8-.76 6.23-2.28 12.14-5.93 17.32-1.09 1.54 1.33 3.37 2.6 2.01Zm14.26-41.72c-1.3 6.38 2.57 12.67 6.65 17.23 4.61 5.15 10.25 8.77 16.98 10.44 12.7 3.15 29.08 3.25 38.37-7.55 4.59-5.34 6.87-12.38 8.36-19.16.56-2.55-3.24-3.63-3.93-1.08-1.46 5.4-2.79 10.85-5.96 15.56-3.13 4.65-8.09 7.6-13.48 8.89-6.19 1.49-12.84.83-19.05-.25-3.09-.54-6.23-1.22-9.09-2.56-2.72-1.28-5.11-3.08-7.3-5.13s-4.35-4.43-5.92-7.12-2.42-5.69-2.72-8.88c-.15-1.53-2.54-2.15-2.9-.39Zm75.6 2.2c.45 3.27.25 6.62.43 9.9s.66 6.6 1.3 9.84a76 76 0 0 0 4.11 13.81c.59 1.47 1.08 3.61 2.56 4.38 1 .52 2.4.11 2.69-1.09.38-1.63-.68-3.14-1.28-4.62-.6-1.49-1.16-2.99-1.66-4.51a83 83 0 0 1-2.51-9.29c-.64-3.04-1.06-6.12-1.36-9.21-.32-3.38-.39-6.75-1.3-10.04-.54-1.98-3.25-1.09-2.98.82Z"/><path d="M49.88 142.07a96 96 0 0 1 7.07-1.61c.41-.08.81-.15 1.22-.22.6-.1 1.04-.21 1.52-.63.4-.35.53-.99.39-1.49-.15-.56-.56-.86-1.07-1.07-.55-.23-1.15-.04-1.71.06-.41.07-.81.15-1.22.22q-1.17.225-2.34.48c-1.58.35-3.16.73-4.72 1.16-.81.22-1.38 1.15-1.12 1.97s1.1 1.35 1.97 1.12Zm-.82 10.39c6.16-1.24 12.3-2.57 18.48-3.73 1.83-.34 1.44-3.46-.44-3.28-3.15.3-6.29 1.18-9.39 1.83-3.17.67-6.34 1.37-9.51 2.06-2.05.45-1.18 3.55.86 3.13Zm73.06-13.22c2.05.44 4.16.65 6.22 1.02 2.15.38 4.28.98 6.44 1.26-.16-1.15-.31-2.29-.47-3.44-.14.05-.27.11-.41.16-.59.23-1.04.63-1.12 1.3-.07.59.18 1.28.75 1.56l.36.18c.93.47 2.06.17 2.48-.84s-.14-2.03-1.13-2.36-2.03-.46-3.04-.65c-1.06-.2-2.13-.36-3.2-.51-2.14-.29-4.34-.62-6.51-.55-1.58.05-2.06 2.51-.39 2.87Zm-3.56 10.09c2.67.21 5.35.17 8.02.43s5.2.64 7.77 1.19v-3.48c-.16.04-.33.09-.49.13-1.88.5-1.54 3.52.47 3.44.17 0 .34-.01.51-.02.89-.04 1.66-.66 1.77-1.56.1-.83-.4-1.8-1.29-1.98-2.83-.57-5.7-1-8.57-1.19-2.84-.18-5.75-.3-8.57.13-.72.11-1.16.98-1.06 1.63.11.76.7 1.23 1.46 1.29Zm-71.09 13.65c22.59-5.34 45.86-3.67 68.85-4.08l9.99-.18c1.75-.03 3.49-.06 5.24-.1.83-.02 1.66-.03 2.5-.05.6-.01 1.77-.18 2.22 0l-.84-.49.18.18-.55-1.32v.19q.285-.645.54-1.29l.54-.3 2 .81-.07-.13c-.78-1.42-3.47-.89-3.25.88l.02.14c.09.72.48 1.56 1.3 1.71 1.32.24 2.65-.54 2.65-2.01 0-1.7-1.59-2.23-3-2.23-3.33 0-6.66.12-9.99.18-6.54.12-13.07.26-19.61.26-12.76 0-25.6-.28-38.32 1.01-7.18.73-14.27 1.93-21.21 3.92-1.86.53-1.08 3.34.8 2.89Zm-5.05 7.25c26.75.86 53.53 1.44 80.3 1.42 3.78 0 7.57-.05 11.35-.18 3.38-.12 6.84-.12 9.92-1.67 1.54-.78 1.07-3.13-.47-3.57-1.01-.29-1.93-.13-2.82.42-1.73 1.08-.61 3.74 1.38 3.27.13-.07.26-.04.4.07-.16-1.19-.31-2.38-.47-3.57-2.52 1.29-5.69 1.1-8.45 1.2-3.29.12-6.58.17-9.87.18-6.45.03-12.9-.05-19.35-.1-13.15-.12-26.31-.27-39.46-.43-7.49-.09-14.98-.11-22.47-.18-2.03-.02-2.02 3.08 0 3.14Z"/></svg>