<?xml version="1.0" encoding="UTF-8"?><svg xmlns="http://www.w3.org/2000/svg" viewBox="0 0 180 180"><path d="M62.89 59.44c-.11 4.97-.53 9.96-.72 14.93-.18 4.81-.54 9.7-.11 14.51.75 8.28 4.65 15.72 11.62 20.43 1.72 1.16 3.56 2.17 5.5 2.91s3.97 1.81 6.1 2.01c1.3.12 1.59-1.71.63-2.31-1.45-.92-3.16-1.39-4.63-2.31s-2.81-1.94-4.1-3.01c-2.61-2.17-5.06-4.65-6.87-7.53-4.46-7.1-3.62-15.66-3.77-23.69l-.15-7.72c-.05-2.74-.3-5.48-.31-8.21 0-2.04-3.13-2.04-3.17 0Z"/><path d="M63.62 64.85c-1.91-1.5-4.38-1.8-6.55-.66-1.85.98-3.12 2.82-3.94 4.69-1.91 4.32-2.81 10.14-.45 14.46 1.68 3.06 5.21 5.24 8.46 6.27.85.27 1.82-.25 2.15-1.05.37-.91 0-1.71-.74-2.27-2.39-1.82-5.68-2.72-6.74-5.86-.43-1.28-.52-2.63-.45-3.97.05-1.09.11-1.46.34-2.53s.51-2.08.91-3.08c.11-.28.33-.75.56-1.16.14-.25.3-.5.45-.74 0 0 .36-.49.19-.27.28-.36.61-.72.98-1-.25.19.34-.19.4-.23.37-.2-.13.01.24-.1.99-.3 1.56-.15 2.7.05 1.31.23 2.81-1.5 1.48-2.55Zm12.19 58.74c.28-4.98.33-9.97.35-14.96.01-2.41-3.76-2.42-3.75 0 .02 4.99.07 9.98.35 14.96.11 1.96 2.94 1.96 3.05 0"/><path d="M72.31 121.63c-3.27.78-6.59 1.36-9.86 2.12s-6.21 1.53-9.29 2.39c-6.14 1.71-12.33 3.59-18.22 6.04-2.74 1.14-5.33 2.49-7.55 4.5-1.99 1.8-3.57 4.08-4.82 6.44-2.14 4.05-3.75 8.38-4.63 12.87-.49 2.49-.9 5-1.37 7.5-.37 1.98-.59 4.03-1.08 5.99-.52 2.09 2.58 3.59 3.6 1.52 1.75-3.54 2.3-7.49 3.09-11.32s1.82-7.79 3.48-11.53c.99-2.24 2.14-4.52 3.75-6.4 1.73-2.01 3.88-3.41 6.26-4.54 5.44-2.58 11.38-4.27 17.1-6.11 3.35-1.08 6.72-2.09 10.08-3.11s6.86-2.21 10.33-3.11c2.09-.54 1.21-3.74-.89-3.24ZM60.13 76.68c.14.04.27.09.4.15l-.29-.12c.38.16.74.38 1.07.63l-.25-.19c.3.24.57.52.81.82l-.2-.26c.26.34.48.71.65 1.11l-.13-.32c.06.14.11.27.17.41l-.13-.32c.11.27.2.54.34.8.14.27.49.54.78.6s.58.05.85-.07c.25-.11.5-.29.63-.54l.13-.31c.06-.23.06-.47 0-.7-.05-.3-.19-.59-.33-.86-.09-.19-.2-.36-.32-.53-.28-.41-.6-.81-.97-1.14a6.6 6.6 0 0 0-2.58-1.49c-.61-.18-1.35.22-1.49.85-.15.66.2 1.28.85 1.49Zm53.81-17.24c-.01 4.64-.33 9.3-.42 13.94s.01 9.13-.27 13.67c-.24 3.76-.98 7.42-2.8 10.75-1.65 3.02-3.97 5.51-6.5 7.82-1.39 1.27-2.91 2.36-4.44 3.45-1.68 1.2-3.67 1.75-5.4 2.84-.96.61-.67 2.43.63 2.31 1.85-.17 3.52-1.02 5.24-1.69s3.48-1.43 5.11-2.43c3.36-2.05 6.19-4.75 8.42-7.99 5.24-7.64 4.75-16.91 4.42-25.76l-.31-8.21c-.11-2.91-.42-5.81-.48-8.71-.04-2.04-3.17-2.05-3.17 0Z"/><path d="M117.87 67.4c1.11-.2 1.66-.34 2.61-.07.39.11.06-.02.33.13.06.03.65.41.4.23.37.28.69.64.98 1s.99 1.65 1.2 2.17c.4.99.69 2.03.91 3.08s.28 1.44.34 2.53c.07 1.34-.03 2.69-.45 3.97-1.04 3.14-4.35 4.04-6.74 5.86-.72.55-1.14 1.37-.74 2.27.35.8 1.27 1.33 2.15 1.05 2.9-.92 5.87-2.72 7.73-5.17 1.79-2.36 2.29-5.46 2.07-8.36-.32-4.07-1.58-8.98-5.07-11.48-2.21-1.59-5.08-1.42-7.2.25-1.33 1.04.17 2.78 1.48 2.55Zm-10.63 56.19c.28-4.98.33-9.97.35-14.96.01-2.41-3.76-2.42-3.75 0 .02 4.99.07 9.98.35 14.96.11 1.96 2.94 1.96 3.05 0"/><path d="M106.8 124.87c6.09 1.58 12.12 3.62 18.13 5.5 5.93 1.86 11.88 3.75 17.64 6.07 2.37.96 4.77 2.14 6.65 3.89 1.83 1.7 3.15 3.79 4.26 6 1.88 3.75 3.11 7.64 3.99 11.73.93 4.33 1.45 8.91 3.43 12.92 1.01 2.05 4.13.59 3.6-1.52-.44-1.75-.62-3.59-.96-5.36-.42-2.18-.79-4.37-1.19-6.55-.82-4.46-2.13-8.54-4.05-12.67-2.39-5.15-5.92-9.32-11.11-11.78-5.71-2.71-11.98-4.58-18.05-6.32-3.53-1.02-7.08-1.98-10.66-2.82-3.58-.85-7.22-1.49-10.8-2.34-2.1-.5-2.99 2.69-.89 3.24Zm12.43-50.52c-.97.29-1.83.81-2.58 1.49-.37.34-.69.73-.97 1.14-.12.17-.23.35-.32.53-.13.27-.28.56-.33.86-.05.35-.07.7.13 1.01.16.24.36.42.63.54.57.24 1.34.05 1.64-.54.13-.26.22-.53.34-.8l-.13.32c.06-.13.11-.27.17-.41l-.13.32c.17-.4.39-.77.65-1.11l-.2.26c.24-.3.5-.58.81-.82l-.25.19c.33-.25.69-.46 1.07-.63l-.29.12c.13-.06.27-.11.4-.15.3-.1.56-.28.72-.56.15-.26.22-.64.12-.93-.2-.61-.84-1.04-1.49-.85ZM62.4 52.94c5.77 3.83 12.9 3.17 18.65-.31 2.79-1.69 5.33-3.78 8.18-5.37 1.46-.82 2.99-1.46 4.63-1.82s3.14-.06 4.75-.1c2.01-.04 2.63-2.62 1-3.68-2.83-1.85-6.9-.91-9.8.28-3.17 1.3-5.81 3.31-8.56 5.31-2.49 1.81-5.13 3.63-8.17 4.34s-6.41.24-9.23-1.12c-1.65-.79-2.99 1.44-1.44 2.47Zm34.66 2.69c2.04.07 4.11-.31 6-1.08.94-.39 1.85-.85 2.69-1.43.49-.34.96-.71 1.41-1.1q.3-.255.57-.54l.18-.19c.49-.41.18-.37-.94.14l-.95-.56c.58.53.92 1.37 1.25 2.11.38.84.77 1.67 1.27 2.45s1.11 1.6 1.74 2.34q.45.525.93 1.02c.16.16.33.32.5.48l.2.19c.2.2.19.2-.02-.02v-2.12l-.04.09c.41-.31.81-.62 1.22-.93l-.1.02h1.04l-.08-.03c.44.78.89 1.56 1.33 2.34v-.08c.23-1.4-.78-2.61-2.27-2.28l-.07.02c-.8.18-1.4 1.03-1.4 1.83.01 1.28.96 2.08 2.18 2.18.75.07 1.42-.46 1.81-1.04.51-.75.49-1.76.04-2.53-.31-.53-.86-.93-1.28-1.37-.73-.75-1.31-1.48-1.87-2.36-1.18-1.85-1.99-5.15-4.27-5.93-.89-.3-1.84-.15-2.53.49-.36.33-.56.74-.83 1.13-.56.78-1.34 1.49-2.11 2.04a10.57 10.57 0 0 1-5.59 2.01c-1.73.1-1.75 2.64 0 2.7Zm-6.09-31.48c-8.47-.94-17.07.1-24.95 3.41-3.74 1.57-7.13 3.66-9.66 6.89-1.31 1.68-2.41 3.47-3.48 5.31-1.16 1.99-2.38 3.96-3.19 6.13-.63 1.68 1.83 3.02 2.99 1.74 2.75-3.04 4.43-6.89 6.9-10.14 2.18-2.87 5.23-4.72 8.49-6.13 7.17-3.09 15.1-4.54 22.9-4.07 2.05.12 1.97-2.92 0-3.14M53.51 54.78c.71 2.07 1.68 3.97 2.96 5.74.65.9 1.34 1.78 2.11 2.59s1.63 1.75 2.66 2.25c.77.38 1.66.26 2.21-.44s.41-1.57-.13-2.25c-.61-.77-1.44-1.36-2.14-2.05s-1.36-1.43-1.98-2.2c-.07-.08-.13-.16-.19-.24.19.25-.03-.04-.06-.09-.14-.19-.28-.38-.41-.57-.28-.41-.56-.82-.82-1.24-.53-.86-1.06-1.72-1.52-2.63-.75-1.46-3.21-.45-2.67 1.13Z"/><path d="M92 20.42c3.92.74 7.46 2.76 10.08 5.78 1.29 1.49 1.9 3.57 3.3 4.94 1.5 1.48 3.86 1.37 5.79 1.79 4.08.88 8.02 2.67 11.25 5.33.73.6 1.69 1.28 2.15 2.14.45.85.25 2.04.12 2.95-.3 2.2-.94 4.37-1.74 6.44-1.86 4.83-4.69 9.22-7.49 13.55-1.46 2.26 2.09 4.27 3.58 2.09 2.85-4.19 5.71-8.43 7.72-13.1.98-2.28 1.76-4.65 2.19-7.1s.81-5.36-.79-7.61c-1.4-1.98-3.65-3.5-5.68-4.76-2.01-1.25-4.19-2.25-6.42-3.01-2.33-.79-4.68-1.15-7.12-1.45-1.01-.12-1.12-.64-1.64-1.48-.61-.98-1.31-1.92-2.08-2.78-3.3-3.73-7.9-5.99-12.83-6.51-1.59-.17-1.96 2.51-.38 2.81Zm-5.7 48.53c-.23 3.18-.22 6.36-.31 9.55-.09 3.15-.49 6.4-.21 9.54.07.79.55 1.47 1.38 1.57.74.09 1.59-.35 1.75-1.14.64-3.18.55-6.55.62-9.77s.17-6.5-.09-9.73c-.16-2.01-2.99-2.03-3.14 0Zm2.17 29.07c.67-.22 1.34-.43 2.01-.65l.94-.3c.28-.09.6-.17.86-.32.63-.37.99-1.12.79-1.84s-.88-1.18-1.6-1.17c-.32 0-.6.11-.9.21l-.94.31-2.01.66c-.4.13-.74.37-.96.74-.2.34-.29.85-.16 1.23s.37.76.74.96.82.29 1.23.16Zm-6.96-22.83-.07-.04.3.23c-.15-.18-.44-.32-.66-.38a1 1 0 0 0-.42-.05h-.07c-.2 0-.39.04-.57.13-.18.06-.34.16-.47.3-.14.13-.24.29-.3.47-.09.18-.13.36-.13.57l.05.39c.07.25.2.46.38.65l.3.23c.23.13.48.2.74.2h.07c.14.02.22.01.42-.05.22-.06.5-.21.66-.38l-.3.23.07-.04c.21-.13.38-.29.51-.51s.19-.46.19-.71c0-.26-.07-.49-.19-.71-.13-.21-.29-.38-.51-.51Zm16.36 0-.07-.04.3.23c-.15-.18-.44-.32-.66-.38a1 1 0 0 0-.42-.05h-.07c-.2 0-.39.04-.57.13-.18.06-.34.16-.47.3-.14.13-.24.29-.3.47-.09.18-.13.36-.13.57l.05.39c.07.25.2.46.38.65l.3.23c.23.13.48.2.74.2h.07c.14.02.22.01.42-.05.22-.06.5-.21.66-.38l-.3.23.07-.04c.21-.13.38-.29.51-.51s.19-.46.19-.71c0-.26-.07-.49-.19-.71-.13-.21-.29-.38-.51-.51Zm-21.46-9.16c.13-.16.26-.31.4-.45.05-.05.53-.46.21-.21.28-.21.58-.4.89-.55.09-.05.18-.09.27-.13-.2.08-.21.08-.02 0 .19-.07.38-.14.58-.2.37-.11.74-.19 1.12-.25l.23-.03c-.23.03-.23.03.02 0l.75-.06c.47-.02.95-.01 1.42 0 1.04.05 2.2.37 3.21 0 .67-.24 1.16-.73 1.26-1.46s-.24-1.37-.84-1.75c-1.04-.66-2.52-.62-3.72-.65s-2.36.03-3.48.31c-2.02.51-3.79 1.63-5 3.33-.49.7-.18 1.73.44 2.22s1.71.53 2.26-.13Zm29.26-3.35c-1.69-1.81-3.6-3.1-6.01-3.76a13.3 13.3 0 0 0-3.6-.46c-.68.01-1.35.09-2.02.19-.97.14-1.62.63-2.17 1.42s-.17 2.09.66 2.51 1.52.49 2.42.32c.11-.02.31-.09.42-.07-.13-.02-.36.04-.07.02.23-.02.45-.04.68-.05.48-.02.97 0 1.45.03.25.02.51.05.76.07s.1-.01-.06 0c.14 0 .29.05.42.07.95.18 1.86.48 2.76.83.03.01.36.15.16.06s.13.06.16.08l.69.33c.2.1.4.21.6.32.12.07.24.14.36.22.03.02.3.22.15.1.67.52 1.58.65 2.23 0 .62-.62.58-1.61 0-2.23Zm-35.34 45.3c-3.91 1.82-7.25 4.98-8.94 8.94s-1.62 8.72.52 12.47c1.16 2.03 2.85 3.69 4.52 5.32 3.5 3.42 11.57 9.18 15.82 11.6s9.34 3.74 14.09 2.58c3.04-.74 5.75-2.44 8.33-4.21 6.06-4.16 6.51-12.55 12.16-16.7 2.94-2.15 5.21-2.6 4.64-6.67-.38-2.74-1.68-5.94-3.5-8.06-2.26-2.63-5.83-3.9-8.86-5.39a66.3 66.3 0 0 1-14.31 24.9c-.97 1.06-2.25 2.17-3.65 1.86-.71-.16-1.28-.67-1.81-1.17a62 62 0 0 1-16.02-25.13c-.22.21-.43.42-.65.64"/><path d="M69.87 106.34c-4.29 1.76-8.02 4.75-10.08 8.99-2.2 4.53-2.42 9.9-.2 14.47 1.88 3.87 5.53 6.99 8.86 9.62 3.38 2.67 6.9 5.17 10.55 7.47 3.98 2.5 8.31 4.41 13.08 4.58 5.22.18 9.99-2.19 14.09-5.23 3.4-2.52 5.24-6.19 7.11-9.87.82-1.63 1.67-3.3 2.82-4.73 1.16-1.45 2.62-2.35 4.13-3.4 1.79-1.24 3.12-2.7 3.37-4.94.29-2.53-.6-5.22-1.61-7.5-1.1-2.49-2.74-4.59-4.95-6.18-2.09-1.5-4.53-2.52-6.83-3.65-1.3-.64-2.77-.11-3.22 1.31-2.44 7.67-6.3 14.94-11.41 21.17-.63.77-1.28 1.52-1.94 2.26-.42.47-1.26 1.67-1.98 1.72.09 0-.27-.15-.42-.26-.34-.25-.63-.59-.93-.89q-1.125-1.095-2.19-2.25a58.2 58.2 0 0 1-7.07-9.38c-1.2-1.96-2.28-3.99-3.26-6.08-.97-2.08-1.68-4.27-2.66-6.34-.55-1.16-2.51-1.44-3.33-.43-.19.24-.38.47-.58.71-1.65 2.04.81 4.44 2.85 2.85.24-.19.48-.38.72-.56l-3.54-.94c.49 2.28 1.53 4.48 2.5 6.59s1.97 4 3.11 5.92c2.34 3.93 5.12 7.62 8.23 10.97 1.43 1.54 3.16 3.79 5.27 4.36 2.46.67 4.55-.81 6.13-2.54 3.13-3.43 5.92-7.23 8.28-11.23 2.69-4.56 4.83-9.45 6.42-14.51-1.07.44-2.14.87-3.22 1.31 3.57 1.74 7.45 2.95 9.55 6.59.93 1.61 1.65 3.49 1.85 5.36.16 1.45-.09 1.99-1.09 2.72-1.39 1.01-2.88 1.82-4.14 3-1.27 1.2-2.31 2.66-3.2 4.16-1.73 2.93-2.9 6.24-5.01 8.93-1.2 1.53-2.72 2.58-4.35 3.61-1.83 1.15-3.74 2.17-5.85 2.69-4.27 1.04-8.8-.29-12.52-2.42-3.02-1.73-5.87-3.76-8.66-5.84-2.75-2.04-5.41-4.2-7.81-6.64-1.74-1.76-3.25-3.64-3.93-6.06-.61-2.17-.59-4.46 0-6.62 1.17-4.28 4.53-7.67 8.34-9.76 1.64-.9.5-3.84-1.31-3.1Z"/><path d="M63.91 128.71c.53 10.32 3.07 20.42 5.6 30.43.75 2.96 1.53 6.01 3.36 8.46.5.67 1.09 1.3 1.85 1.65.69.31 1.46.36 2.21.41 9.29.55 18.62.47 27.9-.24.94-.07 1.93-.17 2.72-.69 1.12-.75 1.54-2.16 1.89-3.46 3.69-13.84 7.39-27.76 8.81-42.02a89 89 0 0 0-9.25 9.56c-1.45 1.75-2.86 3.58-4.73 4.88-1.76 1.23-3.85 1.93-5.93 2.45-11.6 2.91-20.69-1.72-30.75-8.19"/><path d="M62.45 128.71c-.21 4.33.43 8.71 1.14 12.98s1.67 8.41 2.68 12.57c.93 3.84 1.67 7.84 3.26 11.47.7 1.62 1.66 3.31 3.03 4.46 1.69 1.42 3.74 1.47 5.84 1.62 8.7.6 17.5.45 26.19-.22 1.9-.15 3.81-.44 5.14-1.95s1.67-3.39 2.15-5.2c1.09-4.13 2.18-8.26 3.2-12.4 2.34-9.49 4.2-19.07 5.29-28.78.22-1.98-2.38-2.57-3.61-1.5a85 85 0 0 0-8.57 8.62c-2.42 2.83-4.49 5.71-8.16 6.96-6.73 2.29-13.73 1.65-20.2-1.14-3.89-1.68-7.53-3.91-11.09-6.2-2.46-1.58-4.73 2.34-2.29 3.91 6.59 4.24 13.55 8.19 21.45 9.16 3.9.48 7.87.1 11.66-.94 2.03-.55 4.1-1.31 5.84-2.52 1.69-1.18 3.05-2.67 4.35-4.25 3.1-3.76 6.4-7.33 10-10.61-1.2-.5-2.41-1-3.61-1.5-.71 7.82-2.26 15.56-4.07 23.19-.93 3.92-1.92 7.82-2.95 11.72-.45 1.71-.91 3.43-1.36 5.14-.32 1.19-.47 3.41-1.87 3.83-1.66.49-3.72.34-5.44.44a210 210 0 0 1-18.12.23c-1.93-.06-3.91 0-5.84-.2-1.59-.17-2.3-1.43-2.99-2.75-1.67-3.18-2.28-7-3.15-10.45a277 277 0 0 1-2.92-12.76c-.89-4.41-1.41-8.87-2.11-13.31-.27-1.69-2.78-1.17-2.85.39Zm-.06-69.32c.25.07.5.15.74.25l-.33-.14c.43.18.84.42 1.21.71l-.29-.23c.09.07.17.14.25.21.18.15.35.25.54.38.29.18.76.25 1.08.14.3-.1.54-.26.73-.5s.32-.54.3-.85l-.05-.37c-.07-.24-.19-.45-.36-.62-.36-.45-.92-.78-1.43-1.02s-1.09-.46-1.67-.57c-.37-.07-.72-.06-1.05.14-.28.17-.55.49-.62.81-.08.35-.06.74.14 1.05s.46.53.81.62Zm-27.31 96.66c.38 2.65.54 5.33.89 7.98.17 1.27.34 2.55.52 3.82.1.68.22 1.36.33 2.04.15.91.38 1.52 1.17 2.09s1.77.07 2.26-.59c.56-.77.34-1.63.21-2.5-.1-.68-.2-1.36-.32-2.04-.22-1.26-.44-2.52-.69-3.77-.51-2.6-1.16-5.17-1.62-7.78-.13-.76-1.07-1.19-1.76-1-.82.23-1.11.99-1 1.76Zm106.63.94c-.98 4.39-1.35 8.95-1.83 13.42-.1.94.87 1.74 1.74 1.74 1.02 0 1.65-.8 1.74-1.74.42-4.33.95-8.72.88-13.07-.03-1.41-2.21-1.8-2.53-.34ZM112.32 43.93l5.53-1.12c.62-.12 1.03-.89.84-1.48-.21-.66-.82-.97-1.48-.84-1.84.37-3.69.73-5.53 1.1-.62.12-1.04.9-.85 1.49.21.66.82.98 1.49.85m2.44 5.39c.7-.05 1.41-.09 2.11-.14.35-.02.71-.04 1.06-.07.43-.04.87-.12 1.3-.19.27-.04.6-.32.73-.56s.18-.5.14-.78c-.08-.6-.59-1.05-1.2-1.06-.35 0-.71-.03-1.06 0s-.68.05-1.02.08c-.69.06-1.38.11-2.07.17-.34.03-.65.12-.9.37-.22.22-.39.58-.37.9.03.65.56 1.32 1.27 1.27ZM65.01 45.1c3.36-.81 6.26-2.71 9.14-4.54 2.71-1.73 5.52-3.63 8.82-3.89 1.83-.15 1.88-2.98 0-2.89-3.58.18-6.7 1.9-9.6 3.89s-5.59 4.22-9 5.12c-1.5.39-.87 2.68.64 2.32Z"/></svg>