<?xml version="1.0" encoding="UTF-8"?><svg xmlns="http://www.w3.org/2000/svg" viewBox="0 0 180 180"><path d="M77.67 55.29c-8.93 3.22-18.31 2.09-27.41.3-8.49-1.67-17.65-3.79-25.88.05-7.98 3.73-11.97 12.48-13.3 20.75-.8 4.94-.97 9.95-1.24 14.94s-.55 10.41-.82 15.61-.54 10.24-.81 15.36c-.24 4.49-.62 9.01-.46 13.51.28 8.04 2.96 16.37 10.81 19.97 17.46 8.01 34.44-9.3 42.57-22.93.98-1.64 1.89-2.91 3.81-3.42 2.41-.63 4.96-.88 7.42-1.28 5.08-.82 10.16-1.65 15.23-2.5s10.15-1.7 15.22-2.54c2.62-.44 5.24-.88 7.86-1.31 1.02-.17 2.04-.39 3.08-.38 1.11.01 2.07.45 3.02.98 4.06 2.27 7.98 4.52 12.3 6.28 4.24 1.73 8.64 3.05 13.12 3.94 8.74 1.74 18.72 1.83 25.51-4.84 2.93-2.88 4.76-6.79 4.74-10.93-.01-4.38-2.04-8.35-4.34-11.96-2.52-3.96-4.9-7.92-7.11-12.06-5.16-9.69-10.08-19.52-16.13-28.7-5.6-8.51-12.56-17.78-22.16-22.03-4.44-1.97-9.18-2.66-13.96-1.69-6.16 1.25-10.93 5.07-15.57 9.08-2.41 2.09-5 4.43-8.4 4.18-2.86-.21-2.85 4.25 0 4.45 7.59.55 12.1-6.38 17.88-9.97 2.23-1.39 3.86-2.16 6.3-2.79.53-.14 1.07-.25 1.62-.35.16-.03.81-.11.31-.05.28-.03.56-.06.85-.08 1.04-.08 2.09-.07 3.13.02.12.01.97.12.38.03.24.03.48.07.71.12.51.09 1.01.2 1.51.34s1 .28 1.49.45c.23.08.46.16.69.25.16.06.83.34.39.15 2.05.88 3.98 2.06 5.78 3.38.09.07.66.5.33.24.21.17.43.34.64.51q.735.6 1.44 1.23c.91.81 1.79 1.66 2.64 2.53 1.79 1.84 3.46 3.8 5.04 5.82.52.67 1.5 1.99 2.18 2.94.79 1.11 1.56 2.24 2.32 3.37 1.53 2.31 2.99 4.66 4.4 7.04 2.76 4.66 5.33 9.42 7.86 14.21 2.18 4.13 4.31 8.28 6.59 12.35.92 1.63 1.86 3.25 2.88 4.82 2.12 3.25 4.59 6.57 5.29 10.48 1.39 7.74-6.3 12.89-13.1 13.55-4.45.43-8.91-.26-13.24-1.27-4.24-.99-8.43-2.35-12.41-4.13-2.02-.9-4-1.9-5.93-2.98s-3.76-2.39-5.85-3.15c-2.33-.85-4.66-.49-7.04-.09-2.45.41-4.91.83-7.36 1.25-9.81 1.66-19.63 3.31-29.44 5.02-2.45.43-4.9.86-7.35 1.28-2.14.37-4.19.91-5.86 2.38-1.54 1.36-2.48 3.24-3.54 4.96a57 57 0 0 1-3.65 5.3c-5.02 6.43-11.74 12.83-19.77 15.12-6.98 2-15.1.08-18.53-6.79-1.65-3.29-2.01-7.13-2.07-10.75-.07-4.35.29-8.7.52-13.04l1.59-29.74c.46-8.71.28-18.29 5.08-25.95 1.97-3.13 4.8-5.73 8.33-6.97 3.81-1.34 7.9-1.33 11.87-.94 4.19.42 8.29 1.37 12.45 1.97 4.49.65 9.02 1.06 13.55.84s8.75-.97 12.85-2.55c1.95-.75 1.14-3.91-.88-3.18Z"/><path d="M77.78 56.42c-1.69-6.28-4.02-12.43-6.28-18.53-.87-2.34-1.94-4.85-4.19-6.17-1.17-.69-2.52-.94-3.86-.8-1.5.16-2.85.84-4.33 1.07-.85.13-1.44.15-1.75-.68-.5-1.31-.65-2.67-1.23-3.97-.64-1.44-2.67-4.11-.83-5.37.83-.57 1.86-.8 2.82-1.04 1.65-.42 3.3-.83 4.95-1.25 3.22-.81 6.44-1.63 9.66-2.43.37-.09 1.16-.44 1.49-.3.3.13.85 1.69 1 1.99.73 1.53 1.42 3.1 2 4.69.18.5.47.94.19 1.34-.31.45-1 .74-1.44 1.03-1.52 1.01-3.08 1.96-4.56 3.02-.79.57-1.22 1.5-.8 2.45.35.81 1.4 1.51 2.31 1.14 1.71-.7 3.33-1.56 4.91-2.53 1.39-.85 2.95-1.73 3.72-3.23.83-1.6.44-3.27-.17-4.86-.72-1.88-1.51-3.73-2.39-5.54-.77-1.6-1.59-3.19-3.4-3.78-1.77-.57-3.76.17-5.47.6-3.77.95-7.54 1.89-11.31 2.84-2.82.71-6.21 1.33-7.89 3.99-2.05 3.23-.04 6.31 1.23 9.35.51 1.21.61 2.53 1.1 3.74.67 1.66 1.97 2.84 3.73 3.23 1.6.36 3.23 0 4.75-.48 1.25-.4 2.67-1.05 3.76-.04.99.91 1.47 2.39 1.93 3.62.75 1.99 1.5 3.98 2.26 5.96 1.58 4.11 3.14 8.24 5.04 12.22.83 1.74 3.54.5 3.06-1.29ZM33.71 73.06c.38 3.38.77 6.75 1.24 10.12.23 1.64.48 3.28.73 4.92.12.78.15 1.65.53 2.36.44.83 1.29 1.18 2.19 1.28 1.34.15 2.76-.06 3.71-1.1 1.19-1.31.75-3.08.5-4.64-.53-3.29-1.05-6.59-1.57-9.88-.24-1.57-.2-3.67-1.2-4.99-1.32-1.76-3.6-1.17-4.95.22-1.71 1.76.86 4.28 2.67 2.67.45-.4.74-.26-.15-.63-.92-.37-.59-.22-.48.41.12.69.22 1.39.33 2.08.24 1.5.47 3.01.71 4.51s.47 3.01.7 4.51c.12.81.25 1.62.37 2.43.03.22.04.51.1.72-.04.11-.03.2.02.28.06-.21.18-.33.34-.37 0 .06-.37.03-.43.03h-.24c-.61-.09-.38.13.72.66.06-.18-.14-.86-.17-1.05l-.2-1.23c-.24-1.52-.5-3.03-.77-4.54-.55-3.08-1.17-6.13-1.79-9.2-.33-1.61-3.1-1.28-2.92.39Z"/><path d="M44.84 76.85c-3.54.39-7.08.75-10.61 1.19-1.66.21-3.47.29-5.08.75-1.8.52-3.19 2.16-2.76 4.1.38 1.71 2.13 2.45 3.73 2.29 1.78-.18 3.54-.56 5.31-.83l10.37-1.59c1.08-.17 2.13-.26 2.88-1.16.68-.82.8-1.91.41-2.88-.9-2.22-3.47-2.18-5.47-1.89-2.21.33-1.71 4.23.53 3.93.41-.05.87 0 1.27-.09h.23c.49-.06.39-.49-.3-1.31l.72-.72c-.39.25-1.24.22-1.72.29-.73.11-1.45.22-2.18.34-1.45.22-2.91.45-4.36.67s-2.79.43-4.18.65c-.73.11-1.46.22-2.19.32-.51.07-1.19.06-1.68.22-.35.11.11-.03.06.08.63.58.75 1.09.34 1.51h.06c.23.02.63-.15.88-.19.36-.06.73-.11 1.1-.17 1.46-.23 2.91-.49 4.37-.74 2.9-.51 5.79-1.11 8.69-1.67 1.73-.33 1.36-3.31-.42-3.12Zm66.9-20.91c-.2.03-.41.13-.59.23l.35-.15h-.03c.13 0 .26-.03.39-.05-.5.03-.94.21-1.28.59-.28.31-.41.57-.55.97-.17.47-.18 1.11-.04 1.59.07.25.18.51.33.73.27.41.48.6.87.88.54.4 1.22.52 1.87.58.52.04 1.04-.04 1.55-.12.8-.11 1.52-.52 1.93-1.24s.44-1.47.29-2.24c-.12-.59-.47-1.14-.87-1.58-1-1.12-3.08-1.69-4.15-.36q-.3.3-.42.72c-.08.29-.08.58 0 .86.16.56.59.96 1.13 1.13.04.01.09.03.13.05l-.41-.17c.21.09.4.22.63.27.25.05.49.09.74.12l-.5-.07q.21.03.42.12l-.45-.19c.15.06.28.15.41.24l-.38-.29c.13.1.24.21.34.34l-.29-.37c.09.12.16.24.22.38l-.19-.44c.04.11.07.22.09.34l-.07-.49c.02.12.02.25 0 .37l.07-.49a.8.8 0 0 1-.07.26l.18-.44c-.03.07-.06.13-.11.19l.29-.37-.12.12.37-.28s-.08.05-.12.07l.43-.18c-.25.1-.54.13-.8.17l.48-.06c-.32.04-.65.06-.97.02l.48.06a2.4 2.4 0 0 1-.54-.14l.43.18c-.13-.06-.26-.12-.38-.21l.36.27c-.07-.06-.13-.12-.19-.19l.27.35c-.09-.13-.16-.27-.22-.41l.17.41c-.04-.1-.07-.21-.09-.32l.06.44c-.01-.11-.02-.21 0-.32l-.06.42c.01-.07.03-.14.06-.2l-.16.37c.08-.19.2-.37.24-.57l-.15.35v-.02c-.06.1-.14.2-.22.3.02-.02.04-.04.07-.06l-.3.23s.09-.06.14-.08c.3-.15.59-.54.66-.86s.06-.63-.07-.94c-.12-.28-.32-.54-.59-.69l-.34-.14c-.25-.07-.51-.07-.76 0Zm6.6 15.01c-.2.03-.41.13-.59.23l.35-.15h-.03c.13 0 .26-.03.39-.05-.5.03-.94.21-1.28.59-.28.31-.41.57-.55.97-.17.47-.18 1.11-.04 1.59.07.25.18.51.33.73.27.41.48.6.87.88.54.4 1.22.52 1.87.58.52.04 1.04-.04 1.55-.12.8-.11 1.52-.52 1.93-1.24s.44-1.47.29-2.24c-.12-.59-.47-1.14-.87-1.58-1-1.12-3.08-1.69-4.15-.36q-.3.3-.42.72c-.08.29-.08.58 0 .86.16.56.59.96 1.13 1.13.04.01.09.03.13.05l-.41-.17c.21.09.4.22.63.27.25.05.49.09.74.12l-.5-.07q.21.03.42.12l-.45-.19c.15.06.28.15.41.24l-.38-.29c.13.1.24.21.34.34l-.29-.37c.09.12.16.24.22.38l-.19-.44c.04.11.07.22.09.34l-.07-.49c.02.12.02.25 0 .37l.07-.49a.8.8 0 0 1-.07.26l.18-.44c-.03.07-.06.13-.11.19l.29-.37-.12.12.37-.28s-.08.05-.12.07l.43-.18c-.25.1-.54.13-.8.17l.48-.06c-.32.04-.65.06-.97.02l.48.06a2.4 2.4 0 0 1-.54-.14l.43.18c-.13-.06-.26-.12-.38-.21l.36.27c-.07-.06-.13-.12-.19-.19l.27.35c-.09-.13-.16-.27-.22-.41l.17.41c-.04-.1-.07-.21-.09-.32l.06.44c-.01-.11-.02-.21 0-.32l-.06.42c.01-.07.03-.14.06-.2l-.16.37c.08-.19.2-.37.24-.57l-.15.35v-.02c-.06.1-.14.2-.22.3.02-.02.04-.04.07-.06l-.3.23s.09-.06.14-.08c.3-.15.59-.54.66-.86s.06-.63-.07-.94c-.12-.28-.32-.54-.59-.69l-.34-.14c-.25-.07-.51-.07-.76 0Zm-11.54-5.28c-.2.03-.41.13-.59.23l.35-.15h-.03c.13 0 .26-.03.39-.05-.5.03-.94.21-1.28.59-.28.31-.41.57-.55.97-.17.47-.18 1.11-.04 1.59.07.25.18.51.33.73.27.41.48.6.87.88.54.4 1.22.52 1.87.58.52.04 1.04-.04 1.55-.12.8-.11 1.52-.52 1.93-1.24s.44-1.47.29-2.24c-.12-.59-.47-1.14-.87-1.58-1-1.12-3.08-1.69-4.15-.36q-.3.3-.42.72c-.08.29-.08.58 0 .86.16.56.59.96 1.13 1.13.04.01.09.03.13.05l-.41-.17c.21.09.4.22.63.27.25.05.49.09.74.12l-.5-.07q.21.03.42.12l-.45-.19c.15.06.28.15.41.24l-.38-.29c.13.1.24.21.34.34l-.29-.37c.09.12.16.24.22.38l-.19-.44c.04.11.07.22.09.34l-.07-.49c.02.12.02.25 0 .37l.07-.49a.8.8 0 0 1-.07.26l.18-.44c-.03.07-.06.13-.11.19l.29-.37-.12.12.37-.28s-.08.05-.12.07l.43-.18c-.25.1-.54.13-.8.17l.48-.06c-.32.04-.65.06-.97.02l.48.06a2.4 2.4 0 0 1-.54-.14l.43.18c-.13-.06-.26-.12-.38-.21l.36.27c-.07-.06-.13-.12-.19-.19l.27.35c-.09-.13-.16-.27-.22-.41l.17.41c-.04-.1-.07-.21-.09-.32l.06.44c-.01-.11-.02-.21 0-.32l-.06.42c.01-.07.03-.14.06-.2l-.16.37c.08-.19.2-.37.24-.57l-.15.35v-.02c-.06.1-.14.2-.22.3.02-.02.04-.04.07-.06l-.3.23s.09-.06.14-.08c.3-.15.59-.54.66-.86s.06-.63-.07-.94c-.12-.28-.32-.54-.59-.69l-.34-.14c-.25-.07-.51-.07-.76 0Zm16.79-3.86c-.2.03-.41.13-.59.23l.35-.15h-.03c.13 0 .26-.03.39-.05-.5.03-.94.21-1.28.59-.28.31-.41.57-.55.97-.17.47-.18 1.11-.04 1.59.07.25.18.51.33.73.27.41.48.6.87.88.54.4 1.22.52 1.87.58.52.04 1.04-.04 1.55-.12.8-.11 1.52-.52 1.93-1.24s.44-1.47.29-2.24c-.12-.59-.47-1.14-.87-1.58-1-1.12-3.08-1.69-4.15-.36q-.3.3-.42.72c-.08.29-.08.58 0 .86.16.56.59.96 1.13 1.13.04.01.09.03.13.05l-.41-.17c.21.09.4.22.63.27.25.05.49.09.74.12l-.5-.07q.21.03.42.12l-.45-.19c.15.06.28.15.41.24l-.38-.29c.13.1.24.21.34.34l-.29-.37c.09.12.16.24.22.38l-.19-.44c.04.11.07.22.09.34l-.07-.49c.02.12.02.25 0 .37l.07-.49a.8.8 0 0 1-.07.26l.18-.44c-.03.07-.06.13-.11.19l.29-.37-.12.12.37-.28s-.08.05-.12.07l.43-.18c-.25.1-.54.13-.8.17l.48-.06c-.32.04-.65.06-.97.02l.48.06a2.4 2.4 0 0 1-.54-.14l.43.18c-.13-.06-.26-.12-.38-.21l.36.27c-.07-.06-.13-.12-.19-.19l.27.35c-.09-.13-.16-.27-.22-.41l.17.41c-.04-.1-.07-.21-.09-.32l.06.44c-.01-.11-.02-.21 0-.32l-.06.42c.01-.07.03-.14.06-.2l-.16.37c.08-.19.2-.37.24-.57l-.15.35v-.02c-.06.1-.14.2-.22.3.02-.02.04-.04.07-.06l-.3.23s.09-.06.14-.08c.3-.15.59-.54.66-.86s.06-.63-.07-.94c-.12-.28-.32-.54-.59-.69l-.34-.14c-.25-.07-.51-.07-.76 0ZM10.5 115.08c.67 6.25 1.65 13.04 6.68 17.4 2.27 1.96 5.05 3.13 8.07 3.11 3.29-.02 6.56-1.23 9.45-2.71 2.51-1.29 4.87-3.02 6.64-5.23 1.92-2.41 2.77-5.47 4.67-7.87s4.46-3.49 7.2-4.27c3.14-.9 6.41-1.38 9.61-2 7.38-1.41 14.75-2.83 22.13-4.24 7.08-1.36 14.16-2.96 21.3-3.94 6.3-.87 13.14-.99 18.77 2.4 2.82 1.7 5.27 3.94 8.08 5.65 2.82 1.71 5.94 3.01 9.15 3.81 6.25 1.56 14.78 1.91 19.33-3.56 4.36-5.25 2.98-12.92-.12-18.42-1.22-2.16-4.21-.26-3.25 1.9 1.79 4.06 3.47 10.08.23 13.88-3.59 4.21-10.78 3.35-15.51 2.12-3.09-.8-6.01-2.1-8.68-3.84-2.57-1.68-4.88-3.74-7.55-5.26-5.45-3.12-11.81-3.53-17.93-2.85-6.62.74-13.17 2.28-19.7 3.55l-20.9 4.05c-3.56.69-7.13 1.36-10.69 2.07-2.65.53-5.28 1.14-7.76 2.23-2.59 1.13-4.79 2.82-6.34 5.21s-2.41 5.08-4.05 7.35c-1.84 2.54-4.62 4.28-7.46 5.5-3.15 1.36-6.9 2.38-10.19.9-6.47-2.89-7.7-11.07-8.72-17.25-.23-1.37-2.59-1.06-2.44.33Z"/><path d="M14.3 151.56c-2.7 1.75-2.32 6.14-.05 8.43s5.64 2.99 8.82 3.49c23.57 3.69 47.7 1.23 71.07-2.78 10.61-1.82 21.21-3.86 31.44-7.3 7.09-2.38 14.03-5.37 20.36-9.38s11.98-9.53 17.33-15.08c1.11-1.15-9.8 5.8-9.95 4.21-12.68 3.43-18.14.07-29.49-6.54-3.66-2.13-7.16-4.77-11.31-5.6-2.87-.57-5.83-.23-8.73.16-11.24 1.5-22.39 3.6-33.4 6.29-1.82.44-3.68.93-5.21 2-2.79 1.96-3.95 5.46-5.64 8.42-1.78 3.14-4.26 5.81-6.72 8.45-2.41 2.59-4.85 5.2-7.76 7.22-8.63 5.97-21.16 5.54-29.36-1.01"/><path d="M13.4 150.02c-2.46 1.46-3.36 4.15-2.94 6.89.43 2.88 2.29 5.18 4.79 6.59 2.7 1.52 5.84 2.05 8.87 2.5 3.65.54 7.33.96 11.01 1.25 14.73 1.14 29.5.2 44.13-1.73s29.25-4.26 43.29-8.55c6.68-2.04 13.28-4.57 19.45-7.87 6.14-3.28 11.59-7.47 16.64-12.25 1.34-1.27 2.65-2.57 3.95-3.88.95-.97 2.63-2.12 3.01-3.5.51-1.83-1.23-3.35-2.97-2.9-.57.15-1.16.49-1.69.76-1.55.79-3.07 1.62-4.61 2.41-.39.2-.77.39-1.16.58-.18.09-.37.17-.55.26-.63.3.09-.02-.25.11-.27.1-.56.17-.83.28-.25.1-.53-.04.23-.01.44.02 1.73.66 1.9 1.56-.25-1.3-1.8-2.02-3-1.7-4.16 1.1-8.52 1.76-12.72.8-4-.91-7.61-2.92-11.14-4.94-4.49-2.57-8.87-5.89-13.81-7.53-5.5-1.83-11.59-.42-17.15.42-5.85.88-11.67 1.92-17.45 3.13-2.93.61-5.86 1.26-8.77 1.96-2.61.62-5.44 1.15-7.69 2.71-4.2 2.91-5.42 8.19-8.36 12.13-1.58 2.11-3.44 4.03-5.23 5.95-1.81 1.95-3.66 3.91-5.78 5.53-7.72 5.89-19.47 5.91-27.14-.12-1.03-.81-2.43-1.01-3.44 0-.84.84-1.04 2.62 0 3.44 7.59 5.95 18.15 7.63 27.18 4.04 4.98-1.98 8.84-5.42 12.48-9.28 1.92-2.04 3.84-4.09 5.56-6.31 1.62-2.09 2.84-4.32 4.04-6.67 1.04-2.03 2.14-4.1 4.28-5.13 2.43-1.18 5.4-1.56 8.01-2.16 5.92-1.35 11.88-2.54 17.87-3.55 2.87-.49 5.75-.94 8.64-1.34 2.85-.4 5.77-.89 8.66-.65 2.52.2 4.82 1.3 6.98 2.54 2.3 1.32 4.54 2.76 6.84 4.09 4.37 2.53 8.88 5.21 13.83 6.4 5.21 1.25 10.51.62 15.63-.74l-3-1.7c.35 1.8 2.35 2.24 3.87 1.87 1.27-.31 2.5-.98 3.66-1.56 1.25-.63 2.46-1.33 3.67-2.02.47-.27.94-.55 1.42-.81.17-.09.36-.18.52-.28.03-.02.14-.05.16-.08-.18.33-1.58.15-1.55.16l-1.4-1.08-.24-1.79c.07-.49.36-.54.52-.91-.12.28-.55.59-.76.81-.46.48-.93.96-1.4 1.43q-1.395 1.425-2.82 2.82c-1.85 1.8-3.75 3.53-5.74 5.17-4.04 3.31-8.5 6.02-13.18 8.32-9.91 4.88-20.66 7.83-31.45 10.04-22.16 4.55-45.07 7.81-67.74 6.76-5.93-.27-12.12-.62-17.92-1.96-2.07-.48-4.54-1.28-5.59-3.31-.77-1.48-.8-3.43.55-4.55 1.57-1.31-.45-3.81-2.16-2.8Zm81.96-67.87c-4.24 1.66-8.71 2.57-13.23 2.95-2.36.2-4.72.34-7.09.36-2.2.02-4.43-.17-6.63-.03-4.31.28-8.98 2.92-8.49 7.87.46 4.61 4.36 7.4 8.6 8.32 8.74 1.9 18.59 1.13 26.83-2.32 4.07-1.71 8.22-4.13 9.65-8.59 1.17-3.65-.33-8.42-4.32-9.52-3.49-.96-6.87 1.04-10.04 2.19-4.46 1.61-9.16 2.47-13.91 2.17-2.55-.16-2.5 3.72 0 3.94 3.7.32 7.37-.13 11.02-.77 3-.53 5.65-1.85 8.52-2.79 2.01-.66 4.13-1.14 4.63 1.41.68 3.46-2.94 5.81-5.57 7.1-6.93 3.41-14.95 4.16-22.55 3.33-2.77-.3-6.81-.87-7.95-3.88-1.32-3.47 3.32-3.91 5.6-3.91 9-.02 17.94-1.04 26.23-4.74 1.73-.77.48-3.78-1.3-3.08ZM61.81 70.27c-1.31 1.1-2.46 2.44-2.92 4.11-.49 1.76-.15 3.64.97 5.09s3.2 2.05 5.01 2.25c1.71.19 3.51-.15 5.03-.98 2.86-1.56 4.66-5.3 3.38-8.44-1.46-3.58-5.65-5.32-9.31-4.28-1.89.54-3.51 1.84-4.55 3.5-1.14 1.82-1.74 4.71.45 6.01 1.14.68 2.88-.47 2.38-1.83-.04-.12-.07-.5-.05-.1v-.31c0-.09.05-.58-.03-.13.02-.11.04-.21.07-.32.07-.26.17-.52.27-.77-.16.38 0 .04.04-.05.09-.17.18-.34.29-.5.06-.09.12-.18.19-.27-.25.37.05-.06.1-.11.17-.18.34-.36.53-.52.08-.07.38-.28.05-.05a6 6 0 0 1 1.14-.65c-.43.18.13-.03.19-.05.12-.04.23-.07.35-.1-.01 0 .56-.12.27-.07s.28-.02.28-.02c.3-.02.6 0 .91.01.39.03.1.02.02 0 .24.05.47.1.71.17.12.03.23.07.34.11.51.17-.15-.12.12.05.22.14.46.26.68.39.45.27-.23-.24.15.12.08.08.17.15.25.23.12.12.24.25.34.38-.21-.26.04.08.09.17.07.12.13.25.2.38.14.27-.1-.39.01.07.02.1.06.2.08.3.03.12.03.56.03.09 0 .26.01.5 0 .76 0 .13-.09.3 0-.05-.05.17-.07.35-.12.52-.04.12-.08.25-.12.37-.12.33-.02.04.01-.02-.12.23-.24.46-.38.68-.04.06-.36.44-.08.12-.07.08-.14.16-.21.23l-.33.33c-.27.26.24-.13-.11.08-.25.15-.5.29-.76.43.29-.14.04-.01-.03 0-.17.05-.33.11-.5.16-.11.03-.22.06-.34.08-.05.01-.62.09-.18.04-.29.03-.58.05-.88.05s-.59-.02-.88-.05c.44.05-.13-.03-.19-.05-.12-.02-.23-.05-.34-.08-.29-.07-.56-.17-.84-.26-.5-.17.16.12-.1-.04-.17-.11-.36-.19-.53-.31.08.05.23.23.02 0-.07-.07-.14-.15-.21-.23.13.17.15.2.07.09-.06-.11-.13-.22-.2-.33-.23-.39.07.33-.05-.11l-.12-.46c-.11-.39 0 .32-.02-.12 0-.11-.02-.21-.02-.32 0-.09.06-.75-.01-.3.05-.29.12-.57.21-.85.05-.17.11-.33.17-.49.17-.48-.13.22.11-.24.32-.63.7-1.22 1.13-1.78s.14-1.45-.37-1.83c-.6-.45-1.31-.36-1.87.11Zm25.88-5.08c-1.31 1.1-2.46 2.44-2.92 4.11-.49 1.76-.15 3.64.97 5.09s3.2 2.05 5.01 2.25c1.71.19 3.51-.15 5.03-.98 2.86-1.56 4.66-5.3 3.38-8.44-1.46-3.58-5.65-5.32-9.31-4.28-1.89.54-3.51 1.84-4.55 3.5-1.14 1.82-1.74 4.71.45 6.01 1.14.68 2.88-.47 2.38-1.83-.04-.12-.07-.5-.05-.1v-.31c0-.09.05-.58-.03-.13.02-.11.04-.21.07-.32.07-.26.17-.52.27-.77-.16.38 0 .04.04-.05.09-.17.18-.34.29-.5.06-.09.12-.18.19-.27-.25.37.05-.06.1-.11.17-.18.34-.36.53-.52.08-.07.38-.28.05-.05a6 6 0 0 1 1.14-.65c-.43.18.13-.03.19-.05.12-.04.23-.07.35-.1-.01 0 .56-.12.27-.07s.28-.02.28-.02c.3-.02.6 0 .91.01.39.03.1.02.02 0 .24.05.47.1.71.17.12.03.23.07.34.11.51.17-.15-.12.12.05.22.14.46.26.68.39.45.27-.23-.24.15.12.08.08.17.15.25.23.12.12.24.25.34.38-.21-.26.04.08.09.17.07.12.13.25.2.38.14.27-.1-.39.01.07.02.1.06.2.08.3.03.12.03.56.03.09 0 .26.01.5 0 .76 0 .13-.09.3 0-.05-.05.17-.07.35-.12.52-.04.12-.08.25-.12.37-.12.33-.02.04.01-.02-.12.23-.24.46-.38.68-.04.06-.36.44-.08.12-.07.08-.14.16-.21.23l-.33.33c-.27.26.24-.13-.11.08-.25.15-.5.29-.76.43.29-.14.04-.01-.03 0-.17.05-.33.11-.5.16-.11.03-.22.06-.34.08-.05.01-.62.09-.18.04-.29.03-.58.05-.88.05s-.59-.02-.88-.05c.44.05-.13-.03-.19-.05-.12-.02-.23-.05-.34-.08-.29-.07-.56-.17-.84-.26-.5-.17.16.12-.1-.04-.17-.11-.36-.19-.53-.31.08.05.23.23.02 0-.07-.07-.14-.15-.21-.23.13.17.15.2.07.09-.06-.11-.13-.22-.2-.33-.23-.39.07.33-.05-.11l-.12-.46c-.11-.39 0 .32-.02-.12 0-.11-.02-.21-.02-.32 0-.09.06-.75-.01-.3.05-.29.12-.57.21-.85.05-.17.11-.33.17-.49.17-.48-.13.22.11-.24.32-.63.7-1.22 1.13-1.78s.14-1.45-.37-1.83c-.6-.45-1.31-.36-1.87.11Z"/></svg>