<?xml version="1.0" encoding="UTF-8"?><svg xmlns="http://www.w3.org/2000/svg" viewBox="0 0 180 180"><path d="M62.89 59.44c-.11 4.97-.53 9.96-.72 14.93-.18 4.81-.54 9.7-.11 14.51.75 8.28 4.65 15.72 11.62 20.43 1.72 1.16 3.56 2.17 5.5 2.91s3.97 1.81 6.1 2.01c1.3.12 1.59-1.71.63-2.31-1.45-.92-3.16-1.39-4.63-2.31s-2.81-1.94-4.1-3.01c-2.61-2.17-5.06-4.65-6.87-7.53-4.46-7.1-3.62-15.66-3.77-23.69l-.15-7.72c-.05-2.74-.3-5.48-.31-8.21 0-2.04-3.13-2.04-3.17 0Z"/><path d="M63.62 64.85c-1.91-1.5-4.38-1.8-6.55-.66-1.85.98-3.12 2.82-3.94 4.69-1.91 4.32-2.81 10.14-.45 14.46 1.68 3.06 5.21 5.24 8.46 6.27.85.27 1.82-.25 2.15-1.05.37-.91 0-1.71-.74-2.27-2.39-1.82-5.68-2.72-6.74-5.86-.43-1.28-.52-2.63-.45-3.97.05-1.09.11-1.46.34-2.53s.51-2.08.91-3.08c.11-.28.33-.75.56-1.16.14-.25.3-.5.45-.74 0 0 .36-.49.19-.27.28-.36.61-.72.98-1-.25.19.34-.19.4-.23.37-.2-.13.01.24-.1.99-.3 1.56-.15 2.7.05 1.31.23 2.81-1.5 1.48-2.55Zm12.19 58.74c.28-4.98.33-9.97.35-14.96.01-2.41-3.76-2.42-3.75 0 .02 4.99.07 9.98.35 14.96.11 1.96 2.94 1.96 3.05 0"/><path d="M72.31 121.63c-3.27.78-6.59 1.36-9.86 2.12s-6.21 1.53-9.29 2.39c-6.14 1.71-12.33 3.59-18.22 6.04-2.74 1.14-5.33 2.49-7.55 4.5-1.99 1.8-3.57 4.08-4.82 6.44-2.14 4.05-3.75 8.38-4.63 12.87-.49 2.49-.9 5-1.37 7.5-.37 1.98-.59 4.03-1.08 5.99-.52 2.09 2.58 3.59 3.6 1.52 1.75-3.54 2.3-7.49 3.09-11.32s1.82-7.79 3.48-11.53c.99-2.24 2.14-4.52 3.75-6.4 1.73-2.01 3.88-3.41 6.26-4.54 5.44-2.58 11.38-4.27 17.1-6.11 3.35-1.08 6.72-2.09 10.08-3.11s6.86-2.21 10.33-3.11c2.09-.54 1.21-3.74-.89-3.24ZM60.13 76.68c.14.04.27.09.4.15l-.29-.12c.38.16.74.38 1.07.63l-.25-.19c.3.24.57.52.81.82l-.2-.26c.26.34.48.71.65 1.11l-.13-.32c.06.14.11.27.17.41l-.13-.32c.11.27.2.54.34.8.14.27.49.54.78.6s.58.05.85-.07c.25-.11.5-.29.63-.54l.13-.31c.06-.23.06-.47 0-.7-.05-.3-.19-.59-.33-.86-.09-.19-.2-.36-.32-.53-.28-.41-.6-.81-.97-1.14a6.6 6.6 0 0 0-2.58-1.49c-.61-.18-1.35.22-1.49.85-.15.66.2 1.28.85 1.49Zm53.81-17.24c-.01 4.64-.33 9.3-.42 13.94s.01 9.13-.27 13.67c-.24 3.76-.98 7.42-2.8 10.75-1.65 3.02-3.97 5.51-6.5 7.82-1.39 1.27-2.91 2.36-4.44 3.45-1.68 1.2-3.67 1.75-5.4 2.84-.96.61-.67 2.43.63 2.31 1.85-.17 3.52-1.02 5.24-1.69s3.48-1.43 5.11-2.43c3.36-2.05 6.19-4.75 8.42-7.99 5.24-7.64 4.75-16.91 4.42-25.76l-.31-8.21c-.11-2.91-.42-5.81-.48-8.71-.04-2.04-3.17-2.05-3.17 0Z"/><path d="M117.87 67.4c1.11-.2 1.66-.34 2.61-.07.39.11.06-.02.33.13.06.03.65.41.4.23.37.28.69.64.98 1s.99 1.65 1.2 2.17c.4.99.69 2.03.91 3.08s.28 1.44.34 2.53c.07 1.34-.03 2.69-.45 3.97-1.04 3.14-4.35 4.04-6.74 5.86-.72.55-1.14 1.37-.74 2.27.35.8 1.27 1.33 2.15 1.05 2.9-.92 5.87-2.72 7.73-5.17s2.29-5.46 2.07-8.36c-.32-4.07-1.58-8.98-5.07-11.48-2.21-1.59-5.08-1.42-7.2.25-1.33 1.04.17 2.78 1.48 2.55Zm-10.63 56.19c.28-4.98.33-9.97.35-14.96.01-2.41-3.76-2.42-3.75 0 .02 4.99.07 9.98.35 14.96.11 1.96 2.94 1.96 3.05 0"/><path d="M106.8 124.87c6.09 1.58 12.12 3.62 18.13 5.5 5.93 1.86 11.88 3.75 17.64 6.07 2.37.96 4.77 2.14 6.65 3.89 1.83 1.7 3.15 3.79 4.26 6 1.88 3.75 3.11 7.64 3.99 11.73.93 4.33 1.45 8.91 3.43 12.92 1.01 2.05 4.13.59 3.6-1.52-.44-1.75-.62-3.59-.96-5.36-.42-2.18-.79-4.37-1.19-6.55-.82-4.46-2.13-8.54-4.05-12.67-2.39-5.15-5.92-9.32-11.11-11.78-5.71-2.71-11.98-4.58-18.05-6.32-3.53-1.02-7.08-1.98-10.66-2.82-3.58-.85-7.22-1.49-10.8-2.34-2.1-.5-2.99 2.69-.89 3.24Zm12.43-50.52c-.97.29-1.83.81-2.58 1.49-.37.34-.69.73-.97 1.14-.12.17-.23.35-.32.53-.13.27-.28.56-.33.86-.05.35-.07.7.13 1.01.16.24.36.42.63.54.57.24 1.34.05 1.64-.54.13-.26.22-.53.34-.8l-.13.32c.06-.13.11-.27.17-.41l-.13.32c.17-.4.39-.77.65-1.11l-.2.26c.24-.3.5-.58.81-.82l-.25.19c.33-.25.69-.46 1.07-.63l-.29.12c.13-.06.27-.11.4-.15.3-.1.56-.28.72-.56.15-.26.22-.64.12-.93-.2-.61-.84-1.04-1.49-.85Zm-55.37-12.9c3.72-2.21 6.88-5.11 9.37-8.64 1.26-1.78 2.25-3.72 3.08-5.73.38-.92.72-1.85 1-2.81.41-1.41.88-2.83-.23-4.04-.63-.69-1.6-.66-2.38-.31-1.2.55-1.28 1.92-1.58 3.05-.24.91-.52 1.82-.85 2.71-.63 1.75-1.48 3.4-2.44 4.99-1.91 3.18-4.45 6.07-7.46 8.25-1.5 1.08-.18 3.52 1.48 2.54Z"/><path d="M75.35 41.39c2.98 1.78 6.15 3.24 9.33 4.61s6.39 2.72 9.74 3.62c3.22.86 6.62 1.37 9.96 1.12 1.57-.12 3.13-.37 4.64-.83 1.56-.48 3.65-1.09 4.45-2.64.72-1.38-.19-2.83-1.69-2.95-1.41-.11-2.82.89-4.17 1.27-1.34.38-2.7.61-4.09.68-3.08.16-6.09-.37-9.04-1.21-6.14-1.74-11.91-4.39-17.8-6.8-1.83-.75-2.92 2.15-1.31 3.11Zm30.22 18.16c2.68.66 5.42.77 8.16.39 1.27-.18 2.53-.47 3.74-.89 1.27-.44 2.71-.96 3.8-1.77.79-.59 1.19-1.58.66-2.5-.53-.9-1.61-1.1-2.5-.66-1.02.5-1.95 1.13-3.01 1.55s-2.21.75-3.35.97c-2.19.42-4.49.39-6.67-.06-.82-.17-1.67.24-1.9 1.08-.22.79.27 1.7 1.08 1.9Z"/><path d="M60.11 63.97c-.14-2.61-.52-5.2-1.04-7.76-.51-2.5-1.06-5.03-1.14-7.59-.14-4.54 1.84-8.75 6.12-10.67 1.12-.5 2.2-.88 2.89-1.98.66-1.04.44-2.2.82-3.31.63-1.85 2.5-3.08 4.2-3.85 4.72-2.15 10.19-2.05 15.26-2.26 3.12-.13 6.22-.39 9.3-.91 1.64-.28 3.27-.63 4.88-1.05s3.34-.81 4.73-1.73c1.51-1 1.1-3.87-1-3.7-1.46.12-2.8.61-4.21 1-1.53.42-3.07.78-4.63 1.07-2.85.54-5.73.78-8.62.91-5.61.25-11.45.22-16.74 2.37-2.33.95-4.48 2.29-6.01 4.34-.66.89-1.18 1.92-1.44 3-.12.5-.02 1.33-.22 1.8-.02.04.2-.19.03.01-.13.17-.69.32-.88.41-4.69 2.11-7.69 6.61-8.26 11.65-.71 6.32 2.42 12.09 2.94 18.26.16 1.91 3.12 1.96 3.02 0Zm48.78-33.62c2.33-1.18 5.17-2.42 7.84-2.21 2.44.19 4.32 2.3 5.77 4.07 1.51 1.84 2.75 4.01 3.46 6.29.74 2.4.73 4.74.74 7.22 0 1.83 2.88 2.89 3.7 1 2.64-6.12-.62-13.45-4.83-18.03-2.27-2.48-5.03-4.58-8.49-4.81-3.66-.24-6.89 1.75-9.77 3.74-1.66 1.15-.23 3.66 1.59 2.73Zm18.97 23.95c-.71.82-1.26 1.8-1.91 2.68-.14.19-.02.07.04-.04-.05.11-.19.24-.26.33-.15.18-.3.37-.46.54-.32.38-.66.75-1 1.11-.66.72-1.36 1.4-2.11 2.03l-.55.46c-.09.08-.18.15-.28.22-.23.18-.16.1.03-.02-.64.4-1.29.92-1.61 1.62-.29.63-.37 1.28 0 1.91.32.54.98.99 1.63.94.51-.04 1.01-.11 1.46-.37.34-.19.64-.46.95-.7.41-.32.81-.66 1.2-1.01.75-.69 1.46-1.43 2.12-2.21.74-.87 1.4-1.81 2-2.78s1.24-2.01 1.5-3.08c.17-.69-.11-1.52-.76-1.87-.62-.33-1.52-.31-2.01.26ZM85.7 68.44c-.78 4.55-.61 9.34-.45 13.93.07 2.13-.04 4.5.57 6.56s1.98 3.33 3.91 3.96c1.81.6 2.87-2.09 1.28-3.03-1.33-.78-1.68-2.18-1.79-3.64-.14-1.86-.21-3.73-.27-5.6-.12-3.91.09-7.88-.21-11.77-.13-1.61-2.72-2.25-3.04-.41m-5.94 3.73-.19.08-.4.17c-.2.11-.35.25-.47.43-.1.11-.18.23-.22.37-.11.2-.15.42-.15.65l.06.45.17.4c.11.2.25.35.43.47q.24.225.57.3l.19.08c.31.08.63.08.94 0 .3-.08.56-.24.78-.45l.28-.36c.16-.28.24-.57.24-.89 0-.24-.04-.47-.15-.68-.07-.22-.19-.41-.37-.57q-.33-.33-.78-.45a1.9 1.9 0 0 0-.94 0Zm17.22 0-.19.08-.4.17c-.2.11-.35.25-.47.43-.1.11-.18.23-.22.37-.11.2-.15.42-.15.65l.06.45.17.4c.11.2.25.35.43.47q.24.225.57.3l.19.08c.31.08.63.08.94 0 .3-.08.56-.24.78-.45l.28-.36c.16-.28.24-.57.24-.89 0-.24-.04-.47-.15-.68-.07-.22-.19-.41-.37-.57q-.33-.33-.78-.45a1.9 1.9 0 0 0-.94 0Zm-23.26-7.79c1.62-1.04 3.41-1.6 5.22-1.68 1.04-.05 2.06.08 3.09.21 1.22.16 2.43.37 3.61-.08.67-.25 1.18-.8 1.18-1.55 0-.67-.49-1.42-1.18-1.55-1.27-.24-2.56-.27-3.84-.41-1.09-.12-2.18-.21-3.28-.09-2.29.25-4.52 1.08-6.38 2.45-.68.5-1.02 1.36-.56 2.14.41.71 1.43 1.02 2.14.56m30.68-4.1a14.5 14.5 0 0 0-4.3-2.78c-.77-.33-1.55-.56-2.38-.69-1-.16-2.11-.34-3.12-.13-.78.17-1.43 1.04-1.39 1.83s.56 1.7 1.39 1.83 1.73-.03 2.55.18c-.54-.13.06.02.17.04.18.03.36.07.54.11.35.08.71.16 1.06.26s.7.2 1.04.33c.08.03.64.2.22.08.17.05.34.16.49.24.65.33 1.26.72 1.84 1.15.62.47 1.58.15 2.01-.4.46-.59.45-1.51-.12-2.04ZM84.5 98.9c1.78.87 3.84 1.22 5.82 1.24.99 0 1.99-.11 2.96-.29 1.1-.2 2.1-.48 2.97-1.2 1.01-.84.17-2.58-1.06-2.55-.91.03-1.73.35-2.62.54q-.345.075-.69.12c-.36.06.08 0-.26.03-.44.03-.87.07-1.31.08-.41 0-.82 0-1.22-.03-.2-.01-.41-.03-.61-.05s-.23-.03-.09 0c-.09-.01-.17-.03-.26-.04-.84-.14-1.64-.39-2.46-.61-.72-.2-1.51.19-1.79.88-.26.65-.07 1.56.62 1.89Zm-20.22 25.71c1.19.77 2.63-.37 3.88-1.02 4.04-2.1 8.64 1.07 12.71 3.1 7.41 3.69 16.87 3.48 23.58-1.36.99-.72 1.95-1.54 3.12-1.89 1.18-.36 2.46-.2 3.68 0 12.71 2.05 24.45 8.03 35.45 14.72 2.38 1.45 4.79 2.97 6.57 5.12 1.9 2.28 2.98 5.12 3.91 7.93 2.17 6.57 3.7 13.34 4.56 20.2-47.6.46-95.2.43-142.8-.08-.48 0-.99-.02-1.37-.31-.72-.54-.55-1.64-.32-2.5 2.39-8.82 4.96-17.98 11-24.85 5.02-5.71 12-9.3 19.07-12.11a123.6 123.6 0 0 1 19.7-5.98"/><path d="M63.59 125.8c1.69.97 3.3.19 4.89-.6 1.7-.84 3.43-.6 5.17.01 3.66 1.29 6.77 3.72 10.51 4.85 7.24 2.2 15.46 1.23 21.63-3.29.72-.52 1.46-1.18 2.32-1.46 1.05-.33 2.24-.08 3.3.1 2.11.36 4.2.83 6.26 1.4 4.03 1.12 7.96 2.59 11.77 4.32 3.92 1.78 7.73 3.8 11.45 5.96 3.42 1.98 7.26 3.9 10.05 6.75 3.22 3.29 4.39 8.37 5.6 12.67 1.37 4.88 2.39 9.86 3.06 14.89l2.17-2.17c-29.45.41-58.92.32-88.38.22-14.65-.05-29.29-.14-43.94-.29-1.66-.02-3.33-.03-4.99-.05l-3-.03c-.42 0-2.66-.29-2.86-.03l.71.82v-.34c.12-.18.17-.64.22-.84l.54-2.01c.44-1.62.89-3.23 1.39-4.83 1.76-5.66 3.99-11.4 7.82-16 4.34-5.22 10.31-8.63 16.47-11.28 7.02-3.02 14.4-5.26 21.87-6.88 2.77-.6 1.6-4.85-1.17-4.25-7.12 1.54-14.12 3.68-20.86 6.45-5.97 2.46-11.8 5.43-16.58 9.85-4.79 4.42-7.92 10.15-10.2 16.19-1.13 3-2.05 6.09-2.92 9.17-.78 2.74-2.37 7.43 1.74 8.34 1.69.37 3.59.16 5.32.18l5.99.06c3.83.03 7.66.07 11.48.09 7.82.06 15.64.1 23.47.13 15.31.06 30.62.09 45.94.02 17.31-.08 34.62-.26 51.93-.35 1.06 0 2.31-.99 2.17-2.17-.57-4.64-1.41-9.24-2.57-13.77-1.09-4.26-2.26-8.74-4.35-12.64s-5.4-6.33-9.06-8.54c-3.74-2.26-7.55-4.42-11.46-6.39-7.78-3.92-16.06-7.14-24.7-8.51-2.36-.38-4.55-.41-6.64.9-1.69 1.05-3.17 2.29-5 3.12-3.38 1.53-7.22 1.94-10.89 1.58-2.08-.21-4.14-.77-6.08-1.52-2.07-.8-3.98-1.99-6.01-2.9s-4.19-1.7-6.44-1.54c-1.05.08-2.07.37-3.02.85-.56.28-2.1 1.68-2.73 1.4-1.58-.7-2.96 1.47-1.39 2.37Z"/></svg>