<?xml version="1.0" encoding="UTF-8"?><svg xmlns="http://www.w3.org/2000/svg" viewBox="0 0 180 180"><path d="M133.25 70.87c-.5-3.79.15-7.88.49-11.66s1.16-8.08.65-12.04c-.34-2.65-1.4-5.24-3.42-7.06-2.35-2.12-5.45-2.93-8.51-3.36-7.06-.99-14.2-1.63-21.3-2.24-14.29-1.23-28.82-1.85-43.09-.07-5.55.69-12.26 1.38-16.04 6.05-3.8 4.69-3.98 11.12-4.48 16.87-1.22 14.22-1.76 28.51-1.22 42.78.23 6.12.37 12.41 1.48 18.44.58 3.18 1.63 6.41 3.59 9.02 4.3 5.72 11.52 7.12 18.22 7.95 11 1.37 22.22 1.82 33.29 1.57 6.13-.14 12.24-.51 18.36-.93 5.16-.36 10.76-.51 15.43-3 3.98-2.13 5.52-6.15 6.12-10.41.67-4.68.48-9.43.21-14.13-.11-1.91-.28-3.83-.33-5.74-.08-2.75-4.36-2.76-4.28 0 .12 4.03.37 8.06.33 12.1-.02 2.12-.11 4.32-.41 6.39-.14.96-.33 1.91-.58 2.84s-.49 1.6-.8 2.21c-.18.35-.37.68-.59 1-.24.35.35-.38-.1.13-.12.14-.24.27-.37.39-.68.67-1.58 1.16-2.47 1.53-2.09.87-4.43 1.25-6.66 1.49-5.28.58-10.62.84-15.92 1.09-11.42.54-22.74.26-34.13-.61-4.07-.31-7.75-.61-11.63-1.44-1.46-.31-2.9-.7-4.3-1.22-.19-.07-.38-.15-.57-.22.43.18.1.04.01 0-.3-.13-.6-.27-.89-.42-.62-.32-1.21-.67-1.78-1.06-.15-.11-.3-.21-.45-.32.06.05.38.31.05.03-.23-.2-.46-.39-.68-.6s-.43-.43-.64-.65c-.12-.13-.77-.95-.44-.51-.37-.51-.72-1.04-1.02-1.6-.16-.29-.31-.58-.45-.88-.07-.15-.14-.31-.21-.46-.07-.16-.05-.13.04.09l-.15-.39c-1.41-3.93-1.65-7.51-1.95-11.63-1.01-13.66-.97-27.37-.19-41.04.19-3.36.43-6.72.7-10.07.24-2.87.38-5.79.87-8.63.4-2.34 1-4.9 2.52-6.79 1.5-1.87 3.86-2.77 6.11-3.35 5.92-1.51 12.27-1.8 18.35-2.04 6.78-.26 13.57-.18 20.34.15s13.75.91 20.6 1.57c3.29.32 6.57.66 9.85 1 2.52.26 5.48.58 7.43 2.37 3 2.75 2.48 7.27 2.25 10.93-.26 4.13-.51 8.29-.52 12.43 0 1.53.01 3.07.27 4.58.29 1.69 3.25 1.31 3.02-.41Z"/><path d="M133.64 70.14c-5.87-1.58-11.13 3.09-13.02 8.28-1.89 5.17-.95 11.47 2.62 15.69 3.35 3.96 9.42 5.39 14.03 2.82 2.38-1.33 3.88-3.65 4.83-6.13.99-2.59 1.57-5.53 1.4-8.3-.19-3.16-1.36-6.05-3.32-8.52-1.79-2.27-4.5-4.4-7.55-4.21-2.44.15-2.46 3.69 0 3.81 3.78.18 6.29 4.66 6.77 7.97.29 2.03-.01 4.03-.53 5.99s-1.2 3.83-2.7 5.14c-2.51 2.19-6.69 1.6-9.03-.55-2.81-2.59-3.77-6.82-3.06-10.49.91-4.68 4.22-8.14 9.12-8.26 1.82-.05 2.26-2.73.44-3.22Z"/><path d="M135.25 92.92c-3.59-2.31-4.7-6.79-4.36-10.81.16-1.96.51-4.53 1.79-6.1.53-.66 1.3-1.14 2.16-1.11s1.57.61 2.24 1.16c1.18.95 2.84-.21 2.12-1.64-1.33-2.64-4.67-3.8-7.26-2.27-2.68 1.58-3.6 4.87-4.08 7.74-.98 5.9.35 12.46 5.83 15.73 1.73 1.03 3.24-1.6 1.57-2.68Zm-33.99-55.04-2.27-.18c.72.1 1.48.15 2.27.18"/><path d="m101.26 35.88-1.98-.15-.29-.02c-.28-.01-.53.05-.77.17-.25.08-.46.22-.64.41l-.31.4c-.15.23-.23.48-.24.74-.05.18-.05.35 0 .53.01.27.09.51.24.74l.31.4c.25.25.54.42.88.51.93.13 1.86.21 2.8.25.28.01.53-.05.77-.17.25-.08.46-.22.64-.41.2-.18.33-.4.41-.64.13-.24.18-.5.17-.77-.02-.52-.19-1.05-.59-1.41l-.4-.31c-.31-.18-.65-.27-1.01-.27-.73-.03-1.46-.07-2.19-.16l.53.07s-.05 0-.08-.01l-.53 3.93 1.98.15.29.02c.28.01.53-.05.77-.17.25-.08.46-.22.64-.41.2-.18.33-.4.41-.64.13-.24.18-.5.17-.77-.02-.52-.19-1.05-.59-1.41l-.4-.31c-.31-.18-.65-.27-1.01-.27Z"/><path d="M113.06 113.29c-.19-18.82-.44-37.66.33-56.47.24-5.98 3.18-12.6-2.26-16.96-2.64-2.12-6.47-1.86-9.87-1.98l3.93.3c-6.52.29-5.65-.6-12.17-.3-13.56.61-28.34-1.21-41.57 1.86-1.6.37-3 3.16-4.26 4.2-1.47 1.21-2.21 3.08-2.75 4.9-1.29 4.41-1.7 9.02-2.05 13.6a636 636 0 0 0-1.84 45.98c-.02 4.62.13 9.6 2.92 13.27 2.17 2.86 5.59 4.44 8.87 5.91 2.89 1.3 5.81 2.6 8.89 3.35 2.84.69 5.77.89 8.69 1.03 7.82.36 15.66.22 23.46-.41 3.56-.29 8.36.66 11.69-.64 3.33-1.31 4.71-1.59 6.21-4.83 1.34-2.9 1.8-9.62 1.77-12.81ZM58 80.87c.05-2.85.15-5.8 1.08-8.46.06-.64.34-1.25.76-1.76.03-.05.05-.11.08-.16l-.04.12c.35-.41.8-.75 1.28-.97 1.34-.62 2.91-.55 4.36-.29 1.2.22 2.46.6 3.25 1.54.87 1.03.96 2.49 1 3.84.06 2.24.07 4.53-.63 6.66-.27.81-.65 1.61-1.25 2.22-1.48 1.5-3.86 1.51-5.96 1.4-1.17-.06-2.47-.19-3.23-1.07-.71-.81-.72-1.99-.7-3.07m32.37 24.99c-2.44 1.64-5.5 1.99-8.43 2.18-4.04.26-8.02.19-12.04-.36-2.89-.39-6.6-.67-8.54-3.18-1.34-1.73-1.15-4.84-.09-6.63 1.18-2 3.79-2.57 6.11-2.69 6.35-.35 12.83 1.14 19.03-.29l-2.99-.14c-.08 0-.17 0-.25.01-2.07.11-4.68-.14-7.28-.37l-6.7-.32c1.91-.1 4.29.1 6.7.32l7.53.36c1.79-.09 3.61-.16 5.35.27 1.82.45 3.57 1.55 4.37 3.25 1.24 2.66-.33 5.97-2.77 7.6Zm6.65-23.47c-.27.81-.65 1.61-1.25 2.22-1.48 1.5-3.86 1.51-5.96 1.4-1.17-.06-2.47-.19-3.23-1.07-.71-.81-.72-1.99-.7-3.07.06-2.85.15-5.8 1.08-8.46.06-.64.34-1.25.76-1.76.03-.05.05-.11.08-.16l-.04.12c.35-.41.8-.75 1.28-.97 1.34-.62 2.91-.55 4.36-.29 1.2.22 2.46.6 3.25 1.54.87 1.03.96 2.49 1 3.84.06 2.24.07 4.53-.63 6.66"/><path d="M115.06 113.29c-.13-12.88-.29-25.76-.13-38.64.08-6.21.02-12.5.51-18.69.34-4.37 1.88-9.01.18-13.28-1.06-2.68-3.17-4.81-5.88-5.83-2.69-1.01-5.66-.88-8.48-.96-2.6-.08-2.54 3.8 0 4l3.93.3v-4c-2.59.11-5.08-.12-7.65-.3-3.68-.25-7.4.12-11.09.13-8.31.01-16.65-.43-24.95.23-2.06.16-4.12.4-6.17.72-1.74.27-3.93.4-5.48 1.29-1.32.76-2.16 2.07-3.1 3.22-1.06 1.3-2.33 2.29-3.1 3.84-1.8 3.64-2.35 7.92-2.79 11.91-.49 4.35-.74 8.74-1.02 13.11q-.855 13.335-1.14 26.7c-.1 4.39-.2 8.79-.14 13.18.05 3.64.41 7.36 2.06 10.66 1.66 3.33 4.73 5.55 7.98 7.18 3.58 1.79 7.36 3.53 11.22 4.6 4.06 1.13 8.35 1.29 12.54 1.42 4.4.14 8.81.13 13.21-.04 4.04-.15 8.05-.6 12.1-.45 1.85.07 3.69.11 5.52-.15 1.61-.23 3.09-.81 4.58-1.43 2.81-1.17 4.61-3.06 5.67-5.94 1.02-2.78 1.27-5.92 1.48-8.86.09-1.31.14-2.62.14-3.93-.02-2.57-4.02-2.58-4 0 .02 2.62-.15 5.29-.56 7.88-.34 2.14-.74 4.79-2.45 6.21-.81.67-1.99 1.04-2.99 1.42-1.49.58-2.92.81-4.51.84-1.77.03-3.53-.11-5.29-.12s-3.69.2-5.53.31c-8.06.49-16.37.72-24.41-.18-3.85-.43-7.42-1.75-10.93-3.31-3.05-1.36-6.4-2.67-8.73-5.15s-2.86-5.79-3.03-8.96c-.21-3.81-.06-7.66 0-11.48.13-8.41.43-16.82.9-25.22.23-4.2.51-8.4.82-12.59.3-3.93.61-7.88 1.53-11.73.39-1.65.81-3.44 1.79-4.86.73-1.06 1.81-1.93 2.62-2.96.39-.5.8-1.07 1.3-1.48s1.07-.41 1.7-.54c1.89-.39 3.8-.69 5.71-.9 7.74-.84 15.54-.58 23.31-.49 3.88.04 7.75-.03 11.63-.15 2.31-.07 4.55.19 6.85.34 1.46.09 2.93.06 4.4 0 2.59-.11 2.55-3.8 0-4l-3.93-.3v4c4.05.13 9.32-.17 10.78 4.63 1.19 3.92-.45 8.35-.65 12.32-.58 12.03-.56 24.11-.5 36.16.03 6.77.11 13.54.18 20.31.03 2.57 4.03 2.58 4 0Z"/><path d="M60 80.87c.03-1.68.05-3.38.31-5.05.13-.84.32-1.67.57-2.48.11-.36.14-.76.29-1.1.06-.14.36-.47.49-.74-1.22-.51-2.44-1.03-3.66-1.54l-.04.12c-.57 1.88 1.98 3.42 3.34 1.95.73-.8 1.75-.92 2.92-.84.56.04 1.11.14 1.68.3.47.13.91.3 1.14.5.41.34.46.55.59 1.13.11.49.11.8.14 1.38.06 1.45.09 2.94-.09 4.39-.15 1.16-.43 2.69-1.37 3.48-.54.46-1.6.65-2.47.68-.64.03-1.28 0-1.91-.03-.67-.04-.87-.01-1.44-.21-.24-.08-.27-.09-.11-.05-.2-.13-.24-.15-.11-.06-.17-.16-.21-.2-.1-.12.03.15 0 .1-.06-.14-.09-.5-.12-.9-.11-1.55.04-2.57-3.96-2.58-4 0-.02 1.58.15 3.15 1.22 4.39s2.56 1.56 4.05 1.7c2.72.26 5.87.13 7.96-1.86 2.37-2.26 2.61-6.14 2.58-9.2-.02-1.45.02-3.04-.48-4.42-.53-1.5-1.55-2.69-3.01-3.35-3.05-1.37-7.42-1.56-9.85 1.07 1.11.65 2.23 1.3 3.34 1.95l.04-.12c.64-2.13-2.65-3.61-3.66-1.54.15-.1.12-.04-.08.16-.08.1-.16.2-.23.3-.11.17-.21.35-.3.53-.23.47-.33.91-.45 1.4-.24.97-.55 1.89-.7 2.88-.32 2.03-.41 4.06-.45 6.11-.05 2.57 3.95 2.57 4 0Zm29.36 23.26c-3.31 2.11-7.73 2.03-11.53 2.05s-7.8-.18-11.51-1.09c-1.26-.31-2.79-.8-3.49-1.99-.66-1.11-.51-2.77 0-3.91.57-1.28 2.06-1.69 3.32-1.9 1.96-.33 4.04-.2 6.02-.11 4.96.21 9.88.7 14.78-.37 2.28-.5 1.64-3.83-.53-3.93-3.55-.17-7.08-.28-10.63-.5-2.19-.14-4.4-.21-6.59-.31v4c2.6-.11 5.19.25 7.78.37l5.61.27c2.44.12 5.06-.43 7.27.89 2.72 1.63 1.75 4.96-.5 6.55-2.08 1.47-.09 4.94 2.02 3.45 3.25-2.3 5.32-6.49 3.49-10.34-2.05-4.29-7.11-4.58-11.22-4.52-4.82.07-9.64-.86-14.45-.66-2.58.11-2.57 3.88 0 4 2.2.1 4.4.17 6.59.31 3.55.23 7.08.34 10.63.5l-.53-3.93c-5.06 1.11-10.27.27-15.39.18-3.96-.07-9.29.09-11.23 4.28-1.75 3.8-.77 8.4 3.06 10.45 1.78.95 3.74 1.31 5.71 1.58 2.38.32 4.75.61 7.15.7 2.81.11 5.64.05 8.43-.23s5.41-.82 7.76-2.32c2.16-1.38.16-4.84-2.02-3.45Zm5.73-22.27c-.56 1.63-1.65 2.08-3.14 2.17-.93.05-1.89.03-2.82-.06-.37-.04.03.03-.35-.06-.18-.04-.36-.08-.53-.15a.5.5 0 0 1-.16-.1c.1.13-.19-.3-.06-.06-.12-.22-.15-.57-.17-.79-.03-.5 0-1.01 0-1.51.03-1.1.06-2.2.16-3.3.09-1.01.25-2 .51-2.98.14-.51.26-1.04.41-1.55.11-.36.34-.53.56-.97-1.22-.51-2.44-1.03-3.66-1.54l-.04.12c-.57 1.88 1.98 3.42 3.34 1.95.81-.88 2.03-.97 3.32-.81.55.07 1.18.2 1.73.4.38.13.79.4.98.66.6.83.47 2.42.48 3.62.02 1.69-.07 3.34-.59 4.96-.32 1.03.38 2.18 1.4 2.46 1.08.3 2.13-.36 2.46-1.4.69-2.18.77-4.49.72-6.76-.05-2.09-.22-4.27-1.75-5.86-1.42-1.47-3.6-1.91-5.55-2.1-2.19-.21-4.48.33-6.02 1.99l3.34 1.95.04-.12c.64-2.13-2.65-3.61-3.66-1.54.22-.14.14-.02-.23.36-.1.13-.18.27-.26.42-.2.36-.36.76-.47 1.15-.16.61-.33 1.21-.48 1.82-.36 1.46-.54 2.98-.64 4.48-.17 2.52-.68 5.97 1.4 7.87 1.82 1.66 4.97 1.65 7.28 1.38 1.35-.16 2.65-.5 3.76-1.32 1.27-.94 2.01-2.24 2.52-3.72.35-1.02-.4-2.19-1.4-2.46-1.1-.3-2.11.37-2.46 1.4ZM77.56 9.21c-4.62 3.05-6.6 8.43-8.33 13.45-.97 2.83-1.8 5.7-2.26 8.66-.46 2.97-1.1 6.78.2 9.6.77 1.65 3.49 1.19 3.87-.51.3-1.33.11-2.71.13-4.06s.13-2.69.34-4.02c.44-2.71 1.14-5.39 1.96-8.01 1.34-4.32 2.58-9.43 6.03-12.61 1.32-1.21-.41-3.51-1.93-2.5Zm47.52-.35c-3.6 4.52-6.58 9.42-8.68 14.82-2.06 5.27-3.67 11.1-3.9 16.77-.1 2.42 3.92 3.06 4.31.58.86-5.4 1.76-10.63 3.65-15.79 1.85-5.05 4.21-9.91 7.15-14.42.99-1.51-1.39-3.41-2.54-1.96ZM76.54 170.43c2.82-6.88 3.46-14.45 1.96-21.72-1.45-7.03-4.98-14.49-10.46-19.29-2.39-2.1-5.67 1.13-3.5 3.5 2.29 2.51 4.38 4.99 6.02 8 1.56 2.85 2.73 5.86 3.49 9.02 1.56 6.46 1.48 13.32-.61 19.64-.66 2.01 2.34 2.72 3.1.86Zm44.44 0c1.48-6.34 2-12.89 1.35-19.38-.31-3.15-.81-6.29-1.64-9.35-.76-2.77-1.69-5.7-3.2-8.16-.7-1.14-2.22-1.57-3.39-.89-1.26.74-1.43 2.16-.89 3.39 2.23 5 3.79 10.07 4.53 15.52.8 5.91 1 12.1.13 18.01-.29 1.99 2.62 2.92 3.1.86Z"/><path d="M78.12 147.86c6.56.28 13.15.25 19.72.28l9.73.03c3.32.01 6.67.23 9.98 0 2.43-.17 2.43-3.61 0-3.78-3.31-.23-6.66-.02-9.98 0s-6.49.02-9.73.03c-6.57.02-13.15 0-19.72.28-2.04.09-2.04 3.09 0 3.17ZM71.88 25.72c7.66.59 15.41.39 23.09.41l11.42.03c3.82 0 7.85.38 11.63-.21 1.66-.26 1.66-3.1 0-3.36-3.71-.57-7.64-.22-11.39-.21l-11.67.03c-7.68.02-15.43-.18-23.09.41-1.86.14-1.86 2.75 0 2.89Zm23.04 132.67c.99.06 1.97.09 2.96.11l1.43.03c.26 0 .51.01.77 0 .36-.02.72-.09 1.04-.27.18-.11.38-.29.56-.43.29-.23.49-.79.48-1.15-.02-.41-.15-.89-.48-1.15-.17-.14-.38-.34-.56-.43-.33-.17-.66-.25-1.04-.27-.26-.01-.51 0-.77 0l-1.43.02c-.99.02-1.97.03-2.96.09-.9.05-1.78.76-1.73 1.73s.76 1.67 1.73 1.73Zm-1.44 10.4c.99.06 1.97.09 2.96.11l1.43.03c.26 0 .51.01.77 0 .36-.02.72-.09 1.04-.27.18-.11.38-.29.56-.43.29-.23.49-.79.48-1.15-.02-.41-.15-.89-.48-1.15-.17-.14-.38-.34-.56-.43-.33-.17-.66-.25-1.04-.27-.26-.01-.51 0-.77 0l-1.43.02c-.99.02-1.97.03-2.96.09-.9.05-1.78.76-1.73 1.73s.76 1.67 1.73 1.73Z"/></svg>