<?xml version="1.0" encoding="UTF-8"?><svg xmlns="http://www.w3.org/2000/svg" viewBox="0 0 180 180"><path d="M62.89 59.44c-.11 4.97-.53 9.96-.72 14.93s-.54 9.7-.11 14.51c.75 8.28 4.65 15.72 11.62 20.43 1.72 1.16 3.56 2.17 5.5 2.91s3.97 1.81 6.1 2.01c1.3.12 1.59-1.71.63-2.31-1.45-.92-3.16-1.39-4.63-2.31s-2.81-1.94-4.1-3.01c-2.61-2.17-5.06-4.65-6.87-7.53-4.46-7.1-3.62-15.66-3.77-23.69l-.15-7.72c-.05-2.74-.3-5.48-.31-8.21 0-2.04-3.13-2.04-3.17 0Z"/><path d="M63.62 64.85c-1.91-1.5-4.38-1.8-6.55-.66-1.85.98-3.12 2.82-3.94 4.69-1.91 4.32-2.81 10.14-.45 14.46 1.68 3.06 5.21 5.24 8.46 6.27.85.27 1.82-.25 2.15-1.05.37-.91 0-1.71-.74-2.27-2.39-1.82-5.68-2.72-6.74-5.86-.43-1.28-.52-2.63-.45-3.97.05-1.09.11-1.46.34-2.53s.51-2.08.91-3.08c.11-.28.33-.75.56-1.16.14-.25.3-.5.45-.74 0 0 .36-.49.19-.27.28-.36.61-.72.98-1-.25.19.34-.19.4-.23.37-.2-.13.01.24-.1.99-.3 1.56-.15 2.7.05 1.31.23 2.81-1.5 1.48-2.55Zm14.19 58.74c.28-4.98.33-9.97.35-14.96.01-2.41-3.76-2.42-3.75 0 .02 4.99.07 9.98.35 14.96.11 1.96 2.94 1.96 3.05 0"/><path d="M74.31 121.63c-3.27.78-6.59 1.36-9.86 2.12-3.12.73-6.21 1.53-9.29 2.39-6.14 1.71-12.33 3.59-18.22 6.04-2.74 1.14-5.33 2.49-7.55 4.5-1.99 1.8-3.57 4.08-4.82 6.44-2.14 4.05-3.75 8.38-4.63 12.87-.49 2.49-.9 5-1.37 7.5-.37 1.98-.59 4.03-1.08 5.99-.52 2.09 2.58 3.59 3.6 1.52 1.75-3.54 2.3-7.49 3.09-11.32s1.82-7.79 3.48-11.53c.99-2.24 2.14-4.52 3.75-6.4 1.73-2.01 3.88-3.41 6.26-4.54 5.44-2.58 11.38-4.27 17.1-6.11 3.35-1.08 6.72-2.09 10.08-3.11s6.86-2.21 10.33-3.11c2.09-.54 1.21-3.74-.89-3.24ZM60.13 76.68c.14.04.27.09.4.15l-.29-.12c.38.16.74.38 1.07.63l-.25-.19c.3.24.57.52.81.82l-.2-.26c.26.34.48.71.65 1.11l-.13-.32c.06.14.11.27.17.41l-.13-.32c.11.27.2.54.34.8.14.27.49.54.78.6s.58.05.85-.07c.25-.11.5-.29.63-.54l.13-.31c.06-.23.06-.47 0-.7-.05-.3-.19-.59-.33-.86-.09-.19-.2-.36-.32-.53-.28-.41-.6-.81-.97-1.14a6.6 6.6 0 0 0-2.58-1.49c-.61-.18-1.35.22-1.49.85-.15.66.2 1.28.85 1.49Zm53.81-17.24c-.01 4.64-.33 9.3-.42 13.94s.01 9.13-.27 13.67c-.24 3.76-.98 7.42-2.8 10.75-1.65 3.02-3.97 5.51-6.5 7.82-1.39 1.27-2.91 2.36-4.44 3.45-1.68 1.2-3.67 1.75-5.4 2.84-.96.61-.67 2.43.63 2.31 1.85-.17 3.52-1.02 5.24-1.69 1.78-.69 3.48-1.43 5.11-2.43 3.36-2.05 6.19-4.75 8.42-7.99 5.24-7.64 4.75-16.91 4.42-25.76l-.31-8.21c-.11-2.91-.42-5.81-.48-8.71-.04-2.04-3.17-2.05-3.17 0Z"/><path d="M117.87 67.4c1.11-.2 1.66-.34 2.61-.07.39.11.06-.02.33.13.06.03.65.41.4.23.37.28.69.64.98 1s.99 1.65 1.2 2.17c.4.99.69 2.03.91 3.08s.28 1.44.34 2.53c.07 1.34-.03 2.69-.45 3.97-1.04 3.14-4.35 4.04-6.74 5.86-.72.55-1.14 1.37-.74 2.27.35.8 1.27 1.33 2.15 1.05 2.9-.92 5.87-2.72 7.73-5.17 1.79-2.36 2.29-5.46 2.07-8.36-.32-4.07-1.58-8.98-5.07-11.48-2.21-1.59-5.08-1.42-7.2.25-1.33 1.04.17 2.78 1.48 2.55Zm-12.63 56.19c.28-4.98.33-9.97.35-14.96.01-2.41-3.76-2.42-3.75 0 .02 4.99.07 9.98.35 14.96.11 1.96 2.94 1.96 3.05 0"/><path d="M104.8 124.87c6.09 1.58 12.12 3.62 18.13 5.5 5.93 1.86 11.88 3.75 17.64 6.07 2.37.96 4.77 2.14 6.65 3.89 1.83 1.7 3.15 3.79 4.26 6 1.88 3.75 3.11 7.64 3.99 11.73.93 4.33 1.45 8.91 3.43 12.92 1.01 2.05 4.13.59 3.6-1.52-.44-1.75-.62-3.59-.96-5.36-.42-2.18-.79-4.37-1.19-6.55-.82-4.46-2.13-8.54-4.05-12.67-2.39-5.15-5.92-9.32-11.11-11.78-5.71-2.71-11.98-4.58-18.05-6.32-3.53-1.02-7.08-1.98-10.66-2.82-3.58-.85-7.22-1.49-10.8-2.34-2.1-.5-2.99 2.69-.89 3.24Zm14.43-50.52c-.97.29-1.83.81-2.58 1.49-.37.34-.69.73-.97 1.14-.12.17-.23.35-.32.53-.13.27-.28.56-.33.86-.05.35-.07.7.13 1.01.16.24.36.42.63.54.57.24 1.34.05 1.64-.54.13-.26.22-.53.34-.8l-.13.32c.06-.13.11-.27.17-.41l-.13.32c.17-.4.39-.77.65-1.11l-.2.26c.24-.3.5-.58.81-.82l-.25.19c.33-.25.69-.46 1.07-.63l-.29.12c.13-.06.27-.11.4-.15.3-.1.56-.28.72-.56.15-.26.22-.64.12-.93-.2-.61-.84-1.04-1.49-.85Zm-30.75-5.44c-.23 2.97-.43 5.94-.59 8.92s-.41 5.98-.16 8.92c.07.87.61 1.61 1.52 1.72.78.09 1.79-.38 1.92-1.25.45-3.03.43-6.15.48-9.21s.02-6.06-.01-9.09c-.02-2.05-3-2.01-3.16 0Zm-1.72 28.28c.9.64 1.98.93 3.08.98.54.03 1.09-.04 1.62-.14s1.14-.29 1.57-.61c.35-.27.68-.56.78-1.02.09-.38.07-.75-.09-1.11-.31-.74-1.2-1.26-2.01-.99-.33.11-.65.26-.97.4l.41-.17c-.4.16-.81.27-1.24.33l.45-.06c-.43.05-.85.05-1.28 0l.44.06c-.49-.07-.99-.2-1.45-.38l.37.16s-.09-.04-.14-.06c-.39-.17-.75-.27-1.17-.15-.35.1-.74.37-.91.7-.19.35-.28.78-.15 1.17s.36.67.7.91Zm-5.74-20.94c2.14 0 2.15-3.33 0-3.33s-2.15 3.33 0 3.33m17.57 0c2.14 0 2.15-3.33 0-3.33s-2.15 3.33 0 3.33m-18.87-8.99c.02-.13.13-.33.12-.45 0 .11-.16.33-.01.09s.02.01-.07.06c.11-.06.23-.25.33-.34.21-.2-.26.17-.08.06.07-.04.13-.09.2-.13.14-.08.28-.15.43-.22.21-.1-.1.04-.15.06.09-.02.18-.07.27-.1.38-.13.78-.2 1.17-.26l-.5.07c1.23-.16 2.48-.18 3.68-.53.86-.25 1.4-1.08 1.28-1.96s-.86-1.5-1.76-1.55-1.8.07-2.69.19c-.8.11-1.58.29-2.33.6-1.68.71-2.86 2.15-3 4-.06.78.65 1.45 1.37 1.55s1.59-.36 1.73-1.13Zm21.78-4.72c-.41-.46-.78-.89-1.27-1.27-.39-.3-.81-.56-1.26-.76-.57-.26-1.12-.47-1.74-.57-.36-.06-.75-.14-1.12-.1s-.8.07-1.16.2-.66.31-.9.62c-.23.29-.39.67-.37 1.05.03.73.51 1.51 1.27 1.67.28.06.57.09.85.13l-.48-.06c.47.07.94.14 1.41.2l-.5-.07c.66.09 1.33.26 1.95.52l-.43-.18c.55.24 1.14.54 1.62.9l-.32-.25c.08.07.15.14.22.22.58.59 1.67.63 2.24 0 .61-.66.59-1.58 0-2.24Zm-39.32-4.39c3.23-7.38 12.47-9.42 19.7-10.14 4.37-.43 8.85-.43 13.13.63 3.98.98 7.6 2.9 11.33 4.52 2.14.93 4.33 1.85 6.63 2.34 1.07.23 2.27.36 3.25-.23.92-.55 1.52-1.56 1.5-2.63-.04-1.69-2.68-2.73-3.46-.94h.04l.87-.51c-.26.11-1.09-.03-1.62-.18-1.04-.29-2.06-.63-3.06-1.01-1.83-.69-3.61-1.53-5.39-2.35-3.89-1.78-7.78-3.31-12.04-3.9-4.53-.63-9.06-.41-13.57.23-4.22.6-8.44 1.57-12.19 3.66-3.7 2.06-6.66 5.23-8.24 9.17-.72 1.79 2.36 3.11 3.14 1.32Z"/><path d="M58.74 53.56c-.66-4.46 3.09-8.69 6.39-11.19 3.41-2.59 7.49-4.19 11.66-5.03 8.57-1.73 18.16-.53 26.22 2.74 2.27.92 4.46 2.08 6.51 3.42 2.16 1.41 4.02 3.2 6.14 4.65 1.5 1.03 3.55-1.02 2.52-2.52-1.51-2.2-3.69-3.87-5.88-5.36a40 40 0 0 0-6.41-3.55c-4.77-2.1-9.82-3.34-15-3.89-9.71-1.02-20.21.38-28.05 6.59-4.47 3.54-8.1 9.03-7 14.94.36 1.92 3.17 1.07 2.89-.8Z"/><path d="M65.58 60.53c4.35-2.27 7.03-6.84 8.19-11.48.19-.76-.13-1.58-.81-1.99-.26-.16-.58-.26-.89-.24-.76.06-1.5.5-1.69 1.29-.25 1.04-.58 2.06-.97 3.06-.05.13-.1.26-.15.38.07-.17.03-.06-.02.04-.11.25-.23.5-.35.75-.24.49-.51.97-.79 1.44-.13.21-.26.41-.4.62-.08.11-.15.22-.23.33-.02.03-.26.35-.16.22.09-.12-.18.22-.17.22-.09.1-.17.21-.26.31-.16.18-.32.36-.49.54-.81.83-1.41 1.34-2.32 1.9-.69.43-.96 1.35-.54 2.06s1.34.92 2.06.54ZM61.5 41.78c.52-3.66 1.22-7.32 2.64-10.75s3.59-6.65 6.66-8.91c6.99-5.13 16.61-4.94 24.95-4.33 9.08.66 17.29 4.6 20.21 13.25 1.67 4.95 1.78 10.24 1.71 15.44-2.54-3.95-6.56-6.89-10.88-9.01-4.07-2-8.48-3.36-13.01-4.01-3.02-.43-6.08-.56-9.14-.57-3.83-.02-7.72.13-11.4 1.16s-7.18 3.02-9.3 6.06"/><path d="M62.88 42.16c1.05-3.14 1.55-6.41 2.74-9.53.98-2.57 2.43-5.07 4.34-7.06 3.83-4 9.4-5.52 14.77-5.91 5.12-.37 10.68-.29 15.7.89 4.3 1.01 8.52 3.07 11.23 6.67 4.07 5.4 3.97 12.82 3.96 19.26 1.26-.34 2.53-.68 3.79-1.03-4.48-6.65-12.13-10.84-19.7-12.99-4.42-1.26-9.06-1.67-13.64-1.75-4.41-.08-8.92 0-13.21 1.15-4.3 1.16-8.18 3.49-10.74 7.19-.64.92-.17 2.31.75 2.84 1.07.62 2.16.15 2.84-.75 4.38-5.79 12.82-6.13 19.39-6.07 7.77.07 15.51 1.34 22.41 5.09 3.3 1.79 6.33 4.16 8.38 7.34 1.09 1.69 3.74 1.03 3.79-1.03.15-6.66-.04-14.05-3.55-19.95-2.8-4.69-7.48-7.8-12.62-9.4-5.49-1.72-11.69-1.9-17.4-1.65-6.21.27-12.52 1.67-17.42 5.69-2.74 2.24-4.76 5.24-6.14 8.48-1.58 3.71-2.64 8.1-2.5 12.13.06 1.64 2.31 1.92 2.82.38Zm9.8 83.71c1.77 2.63 4.89 4.57 7.76 5.79 2.99 1.28 6.24 1.96 9.5 1.89s6.61-.92 9.6-2.36c1.53-.73 2.93-1.65 4.26-2.7 1.23-.97 2.61-2.13 2.93-3.74.42-2.09-2.49-3.6-3.61-1.52s-3.86 3.59-6.06 4.54c-2.44 1.05-5.09 1.57-7.74 1.58-2.54 0-5.08-.52-7.42-1.51-2.59-1.1-4.54-2.8-6.8-4.39-1.44-1.01-3.38.98-2.42 2.42"/><path d="M62.92 128.32c3.39 8.14 11.44 12.49 19.86 13.72 8.77 1.28 18.64.84 26.33-3.97 3.7-2.31 7.34-5.59 9.36-9.52.89-1.74-1.51-3.12-2.6-1.52-2.03 2.97-4.16 5.67-7.13 7.78s-6.5 3.54-10.16 4.21c-4.27.77-8.8.71-13.11.29-4.06-.39-8.18-1.39-11.77-3.38s-6.63-4.89-8.37-8.62c-.62-1.33-2.97-.37-2.4 1.01ZM37.8 153.96c-.45 3.13-.82 6.26-1.19 9.4-.15 1.33-.52 2.86-.16 4.18.19.72.66 1.43 1.33 1.79.98.54 2.28.22 2.82-.78.45-.84.19-1.85-.62-2.36.35.28.3.24-.16-.12-.17-.09-.14-.05.09.11.09.07.15.15.19.25.06.14.06.12 0-.07.03.25.03.26.02.04 0-.09 0-.19.02-.28.02-.31.06-.62.09-.92.11-1.19.19-2.37.28-3.56.18-2.42.34-4.83.45-7.26.04-.79-.64-1.49-1.4-1.58-.71-.08-1.65.35-1.77 1.15Zm102.2 1.11c.22.93.43 1.86.61 2.79.2 1.05.29 1.7.38 2.65.19 1.95.11 3.86-.03 5.81-.07.95.78 1.76 1.66 1.88.84.11 1.97-.43 2.1-1.37.6-4.37.08-8.99-1.69-13.04-.33-.75-1.4-.98-2.08-.68a1.67 1.67 0 0 0-.96 1.96Zm-74.61 13.72c.28-5.15.28-10.32.02-15.48-.01-.26.18-.49.44-.51 17.09-1.41 34.26-1.9 51.4-1.45.34 0 .72.03.98.25.31.26.35.72.38 1.12.31 5.45.61 10.89.92 16.34"/><path d="M66.89 169.21c.37-2.62.49-5.26.56-7.91.03-1.29.05-2.58.04-3.87 0-.64-.02-1.29-.03-1.93-.01-.55-.2-1.37-.08-1.89l-.51.87.16-.18-.87.51c.89-.3 2.23-.18 3.16-.24l2.96-.18c2.14-.14 4.28-.28 6.42-.39a476 476 0 0 1 25.96-.7c2.14 0 4.29 0 6.43.04 1.07.01 2.14.03 3.21.05.49 0 .99.02 1.48.03.33 0 .66.02.99.02.59.07.66.04.19-.11l-.54-.92c.4 1.02.24 2.46.3 3.56.08 1.49.17 2.97.26 4.46.17 2.88.25 5.79.59 8.66.29 2.45 3.92 2.61 3.94 0 .02-3.13-.26-6.28-.42-9.41-.08-1.49-.16-2.97-.25-4.46-.07-1.31.09-2.96-.51-4.17s-1.72-1.67-3.06-1.76c-1.64-.11-3.3-.08-4.95-.1-3.05-.05-6.1-.07-9.15-.05-12.26.06-24.6.43-36.81 1.67-1.55.16-2.82.8-2.91 2.53s.18 3.57.24 5.32c.11 3.38.02 6.77.15 10.16.06 1.65 2.8 2.23 3.05.41Z"/></svg>