<?xml version="1.0" encoding="UTF-8"?><svg xmlns="http://www.w3.org/2000/svg" viewBox="0 0 180 180"><path d="M62.89 59.44c-.11 4.97-.53 9.96-.72 14.93s-.54 9.7-.11 14.51c.75 8.28 4.65 15.72 11.62 20.43 1.72 1.16 3.56 2.17 5.5 2.91s3.97 1.81 6.1 2.01c1.3.12 1.59-1.71.63-2.31-1.45-.92-3.16-1.39-4.63-2.31s-2.81-1.94-4.1-3.01c-2.61-2.17-5.06-4.65-6.87-7.53-4.46-7.1-3.62-15.66-3.77-23.69l-.15-7.72c-.05-2.74-.3-5.48-.31-8.21 0-2.04-3.13-2.04-3.17 0Z"/><path d="M63.62 64.85c-1.91-1.5-4.38-1.8-6.55-.66-1.85.98-3.12 2.82-3.94 4.69-1.91 4.32-2.81 10.14-.45 14.46 1.68 3.06 5.21 5.24 8.46 6.27.85.27 1.82-.25 2.15-1.05.37-.91 0-1.71-.74-2.27-2.39-1.82-5.68-2.72-6.74-5.86-.43-1.28-.52-2.63-.45-3.97.05-1.09.11-1.46.34-2.53s.51-2.08.91-3.08c.11-.28.33-.75.56-1.16.14-.25.3-.5.45-.74 0 0 .36-.49.19-.27.28-.36.61-.72.98-1-.25.19.34-.19.4-.23.37-.2-.13.01.24-.1.99-.3 1.56-.15 2.7.05 1.31.23 2.81-1.5 1.48-2.55Zm14.19 58.74c.28-4.98.33-9.97.35-14.96.01-2.41-3.76-2.42-3.75 0 .02 4.99.07 9.98.35 14.96.11 1.96 2.94 1.96 3.05 0"/><path d="M74.31 121.63c-3.27.78-6.59 1.36-9.86 2.12-3.12.73-6.21 1.53-9.29 2.39-6.14 1.71-12.33 3.59-18.22 6.04-2.74 1.14-5.33 2.49-7.55 4.5-1.99 1.8-3.57 4.08-4.82 6.44-2.14 4.05-3.75 8.38-4.63 12.87-.49 2.49-.9 5-1.37 7.5-.37 1.98-.59 4.03-1.08 5.99-.52 2.09 2.58 3.59 3.6 1.52 1.75-3.54 2.3-7.49 3.09-11.32s1.82-7.79 3.48-11.53c.99-2.24 2.14-4.52 3.75-6.4 1.73-2.01 3.88-3.41 6.26-4.54 5.44-2.58 11.38-4.27 17.1-6.11 3.35-1.08 6.72-2.09 10.08-3.11s6.86-2.21 10.33-3.11c2.09-.54 1.21-3.74-.89-3.24ZM60.13 76.68c.14.04.27.09.4.15l-.29-.12c.38.16.74.38 1.07.63l-.25-.19c.3.24.57.52.81.82l-.2-.26c.26.34.48.71.65 1.11l-.13-.32c.06.14.11.27.17.41l-.13-.32c.11.27.2.54.34.8.14.27.49.54.78.6s.58.05.85-.07c.25-.11.5-.29.63-.54l.13-.31c.06-.23.06-.47 0-.7-.05-.3-.19-.59-.33-.86-.09-.19-.2-.36-.32-.53-.28-.41-.6-.81-.97-1.14a6.6 6.6 0 0 0-2.58-1.49c-.61-.18-1.35.22-1.49.85-.15.66.2 1.28.85 1.49Zm53.81-17.24c-.01 4.64-.33 9.3-.42 13.94s.01 9.13-.27 13.67c-.24 3.76-.98 7.42-2.8 10.75-1.65 3.02-3.97 5.51-6.5 7.82-1.39 1.27-2.91 2.36-4.44 3.45-1.68 1.2-3.67 1.75-5.4 2.84-.96.61-.67 2.43.63 2.31 1.85-.17 3.52-1.02 5.24-1.69 1.78-.69 3.48-1.43 5.11-2.43 3.36-2.05 6.19-4.75 8.42-7.99 5.24-7.64 4.75-16.91 4.42-25.76l-.31-8.21c-.11-2.91-.42-5.81-.48-8.71-.04-2.04-3.17-2.05-3.17 0Z"/><path d="M117.87 67.4c1.11-.2 1.66-.34 2.61-.07.39.11.06-.02.33.13.06.03.65.41.4.23.37.28.69.64.98 1s.99 1.65 1.2 2.17c.4.99.69 2.03.91 3.08s.28 1.44.34 2.53c.07 1.34-.03 2.69-.45 3.97-1.04 3.14-4.35 4.04-6.74 5.86-.72.55-1.14 1.37-.74 2.27.35.8 1.27 1.33 2.15 1.05 2.9-.92 5.87-2.72 7.73-5.17 1.79-2.36 2.29-5.46 2.07-8.36-.32-4.07-1.58-8.98-5.07-11.48-2.21-1.59-5.08-1.42-7.2.25-1.33 1.04.17 2.78 1.48 2.55Zm-12.63 56.19c.28-4.98.33-9.97.35-14.96.01-2.41-3.76-2.42-3.75 0 .02 4.99.07 9.98.35 14.96.11 1.96 2.94 1.96 3.05 0"/><path d="M104.8 124.87c6.09 1.58 12.12 3.62 18.13 5.5 5.93 1.86 11.88 3.75 17.64 6.07 2.37.96 4.77 2.14 6.65 3.89 1.83 1.7 3.15 3.79 4.26 6 1.88 3.75 3.11 7.64 3.99 11.73.93 4.33 1.45 8.91 3.43 12.92 1.01 2.05 4.13.59 3.6-1.52-.44-1.75-.62-3.59-.96-5.36-.42-2.18-.79-4.37-1.19-6.55-.82-4.46-2.13-8.54-4.05-12.67-2.39-5.15-5.92-9.32-11.11-11.78-5.71-2.71-11.98-4.58-18.05-6.32-3.53-1.02-7.08-1.98-10.66-2.82-3.58-.85-7.22-1.49-10.8-2.34-2.1-.5-2.99 2.69-.89 3.24Zm14.43-50.52c-.97.29-1.83.81-2.58 1.49-.37.34-.69.73-.97 1.14-.12.17-.23.35-.32.53-.13.27-.28.56-.33.86-.05.35-.07.7.13 1.01.16.24.36.42.63.54.57.24 1.34.05 1.64-.54.13-.26.22-.53.34-.8l-.13.32c.06-.13.11-.27.17-.41l-.13.32c.17-.4.39-.77.65-1.11l-.2.26c.24-.3.5-.58.81-.82l-.25.19c.33-.25.69-.46 1.07-.63l-.29.12c.13-.06.27-.11.4-.15.3-.1.56-.28.72-.56.15-.26.22-.64.12-.93-.2-.61-.84-1.04-1.49-.85ZM62.5 64.09c-2.35-8.3 1.05-17.91 8.1-22.9 2.15-1.52 4.58-2.63 7.06-3.5 9.08-3.17 19.24-3.17 28.33-.01 1.82.63 3.61 1.4 5.17 2.53 3.75 2.72 5.76 7.33 6.33 11.93s-.12 9.24-.84 13.81c-.5-2.92-1.06-5.83-1.67-8.72-.44-2.06-.95-4.22-2.35-5.8-1.23-1.38-2.99-2.15-4.72-2.78a51.4 51.4 0 0 0-26.41-2.3c-5.51.98-11.24 3.14-14.37 7.78-2.25 3.33-2.86 7.47-3.41 11.45"/><path d="M63.9 63.7c-1.08-4.91-.25-10.25 2.2-14.63 2.75-4.91 7.23-7.9 12.48-9.68 6.08-2.05 12.65-2.68 19.01-1.78 5.59.79 12.3 2.39 15.49 7.48 3.84 6.13 2.72 13.59 1.77 20.37h3.55c-.57-3.04-1.12-6.08-1.79-9.1-.53-2.41-1.3-4.88-3.14-6.63-1.87-1.78-4.42-2.66-6.82-3.45-2.73-.9-5.55-1.56-8.39-1.99-5.61-.83-11.26-.81-16.86.12-4.76.79-9.54 2.39-13.24 5.6-4.48 3.91-5.82 9.88-6.32 15.56-.18 2.05 3.22 2.52 3.61.49.83-4.36 1.28-9.08 4.53-12.42 2.87-2.96 6.95-4.39 10.9-5.22 4.79-1 9.77-1.18 14.63-.7 2.47.24 4.92.69 7.33 1.3 2.24.57 4.64 1.19 6.68 2.31 2.37 1.29 3.07 3.49 3.62 5.99.66 3.02 1.24 6.07 1.72 9.12.28 1.77 3.25 1.74 3.55 0 1.21-7.04 2.13-14.52-.93-21.24-1.32-2.9-3.4-5.43-6.11-7.14-3-1.89-6.65-2.95-10.1-3.67-7.1-1.49-14.56-1.3-21.55.65-6.37 1.77-12.28 4.93-15.95 10.59-3.59 5.53-4.74 12.55-2.69 18.85.58 1.79 3.22 1.06 2.82-.78m1.4-30.03c-4.78.98-9.72 2.14-13.4 5.56-1.62 1.5-2.9 3.38-3.6 5.48-.67 1.99-.18 4.83-1.59 6.49-.64.75-1.61 1.2-2.46 1.68-.99.56-1.97 1.15-2.92 1.78-1.85 1.23-3.63 2.6-5.19 4.17-3.05 3.08-5.32 7.08-5.38 11.51-.07 4.8 2.73 10.56 7.45 12.29 1.79.66 3.18-1.92 1.84-3.16s-2.77-2.35-3.73-4.03c-.89-1.55-1.37-3.31-1.35-5.11.06-3.65 2.27-6.78 4.84-9.18 1.42-1.32 2.97-2.47 4.6-3.51 1.7-1.08 3.67-1.93 5.09-3.4 1.63-1.69 1.99-3.84 2.21-6.08.19-1.89.65-3.56 1.82-5.09 2.98-3.89 8.05-5.32 12.53-6.66 1.77-.53 1.03-3.13-.76-2.76ZM35.4 91.66c3.07 2.01 6.58 3.45 10.2 4.12 1.82.34 3.67.51 5.52.47s4.14-.05 5.78-.91.8-3.31-.91-3.36c-.92-.03-1.84.3-2.75.44-.7.11-1.41.17-2.12.2-1.64.08-3.31.03-4.93-.21-3.3-.48-6.42-1.62-9.24-3.4-1.68-1.06-3.19 1.57-1.55 2.64Zm16.44 15.98c5.53.09 10.98-1.69 15.35-5.07.57-.44.71-1.38.53-2.02-.14-.52-.47-.99-.95-1.24-.9-.48-1.76-.28-2.52.32-1.54 1.22-3.72 2.54-5.68 3.3-2.16.83-4.42 1.34-6.73 1.45-2.09.1-2.11 3.23 0 3.27Zm1.94-81.52c2.4-3.24 7.46-4.03 10.76-1.78.92.62 2.6.05 2.76-1.12 1.03-7.31 8.2-10.53 14.99-9.75 3.19.37 6.4 1.6 8.7 3.88s3.06 5.07 4.67 7.67c1.2 1.94 4.03.65 3.58-1.51-.71-3.48-3.14-7.23-5.77-9.58-3.2-2.86-7.38-4.29-11.62-4.63-8.14-.65-18.07 4.21-18.25 13.41.94-.54 1.89-1.08 2.83-1.62-5.11-3.05-12.02-1.53-15.2 3.55-1.02 1.64 1.44 2.97 2.54 1.48Z"/><path d="M95.95 17.67c1.32-1.55 2.72-2.63 4.67-3.29s4.07-.94 6.16-.9c2.02.04 4.01.44 5.83 1.36 1.1.55 2.15 1.21 3.07 2.03 1.05.93 1.93 2.04 3.09 2.83 1.22.84 2.58-.54 2.32-1.78-.61-2.93-3.93-5.31-6.44-6.55s-5.11-1.81-7.86-1.84c-2.58-.03-5.2.4-7.6 1.38-2.25.92-4.74 2.52-5.73 4.84-.32.74-.27 1.53.41 2.06.59.45 1.58.48 2.09-.12ZM104.22 29c6.07-1.47 13.93-2.05 18.1 3.62.76 1.03 1.34 2.22 1.54 3.49.25 1.62-.42 3.1-.48 4.71-.14 3.82 3.8 5.69 6.21 8 1.83 1.75 5.42 4.7 4.76 7.6-.7 3.11-5.88 4.61-3.91 8.35.67 1.27 2.05 2.1 3.02 3.13 1.14 1.21 2.1 2.56 2.89 4.02 1.51 2.8 2.45 6.19 2.03 9.38-.91 6.95-8.29 10.1-11.82 15.45-.53.8-.23 1.96.5 2.51.84.63 1.77.46 2.55-.15 2.51-1.97 4.96-4.23 7.22-6.49 2.31-2.32 4.35-4.95 5.41-8.09 2.37-7.02-.96-15.25-5.99-20.27-.13-.13-1.72-1.75-1.84-1.69l.05.52c-.08.53-.02.66.18.38.12-.04.32-.33.41-.42.32-.33.64-.67.96-1.01 1.2-1.33 2.31-2.84 2.68-4.63.82-3.94-1.73-7.28-4.29-9.97a47 47 0 0 0-4.2-3.91c-.69-.57-1.55-1.07-2.14-1.73-.51-.56-.35-1.14-.21-1.86.66-3.39.19-6.62-1.88-9.46-5.35-7.35-14.76-6.68-22.6-4.56-1.98.53-1.15 3.56.85 3.07Zm12.35 79.79c1.78.1 3.48.25 5.27.11 1.83-.15 3.66-.41 5.44-.84 2.79-.67 6.75-1.83 7.3-5.16.16-.95-.17-1.9-1.12-2.29-.83-.34-1.99-.09-2.42.79-.46.94-.88 1.28-1.89 1.77-.31.15-.96.37-1.5.53-.72.22-1.45.41-2.19.58-2.86.66-5.94 1.2-8.89 1.16-2.17-.03-2.13 3.22 0 3.34ZM76.39 23.27c2.23-.1 4.33.41 6.25 1.46 1.03.57 1.8 1.1 2.6 1.87q.63.585 1.17 1.26c.25.32.71.99 1.15 1.37 1.1.93 2.71.05 2.4-1.4-.29-1.34-1.41-2.52-2.38-3.45s-2.11-1.8-3.32-2.44c-2.41-1.28-5.15-1.94-7.88-1.77-.83.05-1.55.67-1.55 1.55 0 .81.71 1.58 1.55 1.55Zm52.26-.08c1.26.24 2.12.55 3.14 1.17.58.35.78.5 1.22.89s.89.87 1.28 1.35c-.15-.18.07.09.11.16.09.13.18.26.26.39.17.27.33.54.47.82.26.51.4.85.59 1.52a10 10 0 0 1 .27 1.2c.02.16.03.31.04.47.05.66.05 1.32.04 1.99-.02 1.86 2.9 2.33 3.3.45.69-3.25-.45-6.7-2.46-9.26-1.78-2.27-4.58-3.81-7.43-4.22-.85-.12-1.71.21-1.96 1.11-.21.78.26 1.8 1.11 1.96ZM46.83 36.02c.1-.19.21-.37.34-.54l-.24.32c.18-.23.38-.43.61-.61l-.32.25c.14-.11.29-.2.44-.3s.3-.19.46-.26c.18-.1.32-.23.43-.4.14-.15.23-.32.28-.53l.06-.41c0-.21-.04-.41-.13-.6a.8.8 0 0 0-.2-.34c-.11-.17-.25-.3-.43-.4-.37-.19-.79-.27-1.19-.16-.11.03-.21.07-.31.11-.21.09-.45.17-.65.29s-.38.28-.56.42c-.09.07-.17.14-.25.22-.25.24-.46.51-.65.79-.13.18-.24.38-.33.58-.11.18-.17.37-.18.58-.05.21-.04.41.03.62.05.2.14.38.28.53.11.17.25.3.43.4.36.19.79.28 1.19.16.37-.12.75-.35.92-.71Zm-2.28 35.29c3.53-1.12 7-2.23 10.42-3.7 1.65-.71 3.3-1.44 4.94-2.19s3.58-1.46 5.03-2.61-.15-3.48-1.79-3.07c-.93.23-1.8.76-2.66 1.17l-2.52 1.2q-2.355 1.11-4.74 2.16c-3.27 1.45-6.48 3.05-9.75 4.5-1.44.64-.42 3.01 1.07 2.54"/><path d="M129.45 66.05c-1.88-1-3.76-1.99-5.67-2.92-.95-.46-1.93-.88-2.9-1.3-1.28-.55-2.52-1.01-3.94-.8s-1.67 2.15-.8 3.02 2.19 1.24 3.36 1.58c.95.28 1.9.6 2.84.9 1.91.61 3.77 1.29 5.59 2.11.74.33 1.61.21 2.05-.54.4-.68.18-1.67-.54-2.05ZM85.1 69.12c-4.59-2.77-9.9-3.77-14.98-2.83-.12.02-.25.05-.33.16-.11.15-.08.37-.05.56.32 1.95.71 3.88 1.17 5.78.69 2.83 1.68 5.8 3.75 7.39 1.16.89 2.53 1.25 3.89 1.51 1.16.22 2.36.39 3.52.15s2.3-.93 2.96-2.1c.69-1.24.74-2.82.78-4.31l.09-3.95c.01-.47.01-.97-.2-1.37-.24-.45-.69-.65-1.12-.82a62 62 0 0 0-7.38-2.42"/><path d="M85.86 67.82c-3.98-2.51-8.53-4-13.28-3.8-1.13.05-2.66.01-3.66.58-1.51.85-1.24 2.46-1.01 3.89.38 2.39.9 4.81 1.65 7.11.66 2.02 1.57 4.1 3.14 5.58 1.71 1.61 3.94 2.24 6.2 2.57 2.48.36 5.1.1 6.92-1.84s1.86-4.38 1.91-6.77c.06-2.52.83-6.09-1.97-7.41-1.34-.63-2.79-1.1-4.19-1.56s-2.87-.93-4.38-1.12c-.9-.11-1.71.79-1.81 1.6-.12.97.44 1.67 1.32 2.02 1.39.56 2.87.88 4.29 1.36.69.23 1.37.48 2.05.74.34.13.68.29 1.02.4-.07-.02-.07.05.07.05.33 0-.2-.09-.15-.15-.12.13-.04 1.31-.05 1.65-.02.71-.03 1.42-.05 2.13-.03 1.2.06 2.55-.41 3.69-.89 2.11-3.65 1.53-5.55 1.01-2.18-.6-3.32-2.06-4.08-4.05-.53-1.39-.88-2.83-1.21-4.28q-.27-1.215-.51-2.43c-.08-.41-.15-.82-.23-1.22-.03-.15-.06-.3-.09-.46l-.09-.46c-.05-.33-.05-.2.01.37l-.52.89.15-.12-.89.52c2.12-.61 4.67-.56 6.83-.23 2.43.37 4.89 1.15 7.03 2.35 1.7.95 3.16-1.57 1.52-2.6Zm10.28 1.3c4.59-2.77 9.9-3.77 14.98-2.83.12.02.25.05.33.16.11.15.08.37.05.56-.32 1.95-.71 3.88-1.17 5.78-.69 2.83-1.68 5.8-3.75 7.39-1.16.89-2.53 1.25-3.89 1.51-1.16.22-2.36.39-3.52.15s-2.3-.93-2.96-2.1c-.69-1.24-.74-2.82-.78-4.31l-.09-3.95c-.01-.47-.01-.97.2-1.37.24-.45.69-.65 1.12-.82a62 62 0 0 1 7.38-2.42"/><path d="M96.91 70.43c2.14-1.2 4.6-1.99 7.03-2.35 2.16-.33 4.71-.39 6.83.23l-.89-.52.15.12-.52-.89c-.05-.12.16-.99-.01-.22l-.09.46c-.07.36-.13.71-.2 1.07-.14.76-.3 1.52-.46 2.28-.29 1.31-.59 2.63-1.01 3.91-.63 1.97-1.53 3.95-3.54 4.75-1.08.43-2.38.71-3.55.75-1.05.04-1.94-.16-2.56-.93s-.67-2.07-.71-3.08c-.05-1.4-.07-2.81-.1-4.21 0-.16 0-.71-.03-.74 0 0-.24.19-.25.2.02-.08.27-.15.31-.17.75-.35 1.56-.6 2.34-.87 1.61-.56 3.3-.93 4.88-1.56.85-.34 1.47-1.05 1.32-2.02-.12-.81-.89-1.72-1.81-1.6-2.6.33-5.18 1.33-7.6 2.29-1.11.44-2.1.9-2.64 2.03-.58 1.2-.36 2.67-.33 3.96.05 2.38-.13 4.99.96 7.17 1.11 2.24 3.49 3.4 5.92 3.43 2.22.03 4.91-.5 6.81-1.68 1.95-1.2 3.15-3.12 4-5.2s1.38-4.45 1.84-6.72c.23-1.11.57-2.36.57-3.5 0-.86-.37-1.64-1.09-2.11-.65-.42-1.42-.46-2.17-.55-5.29-.64-10.46.85-14.92 3.66-1.64 1.03-.18 3.56 1.52 2.6Zm-33.5-2.37c1 .67 1.99 1.34 3.08 1.86.64.31 1.3.59 1.97.84.75.29 1.63.69 2.43.41.58-.2 1.03-.59 1.2-1.2s-.04-1.19-.44-1.67c-.53-.62-1.51-.73-2.25-.96-.54-.17-1.06-.36-1.59-.56-.1-.04-.58-.24-.11-.04l-.72-.3c-.36-.15.35.16-.01 0-.14-.06-.28-.12-.41-.18-.55-.25-1.08-.52-1.59-.84-.68-.43-1.73-.17-2.11.55-.41.77-.16 1.63.55 2.11Z"/><path d="M116.75 65.68c-.37-.08-.65-.08-1.02 0-.09.02-.19.05-.28.07-.22.05-.43.12-.64.19l-1.31.44-1.26.43c-.53.18-1.16.32-1.61.66-.31.24-.54.45-.7.82-.14.34-.2.75-.09 1.11.23.7.88 1.29 1.65 1.26.36-.02.68-.07 1.01-.2l.62-.25 1.29-.51 1.25-.49c.31-.12.63-.24.93-.39s.63-.29.84-.56c.19-.19.33-.42.4-.69.07-.28.07-.55 0-.83-.14-.5-.57-.98-1.09-1.09ZM86.98 71.4c-.48 3.74-.4 7.57-.43 11.33-.01 1.57-.15 3.19.2 4.73s1.64 3.23 3.43 2.85c1.02-.22 1.28-1.38.9-2.2-.23-.5-.62-.69-.81-1.16-.12-.3-.18-.75-.2-1.12-.08-1.54 0-3.1 0-4.64.02-3.25.1-6.56-.27-9.79-.21-1.82-2.58-1.8-2.81 0Zm-.67 25.62c1.33.79 2.71 1.32 4.28 1.38.76.03 1.53-.06 2.27-.22.93-.2 1.91-.55 2.46-1.37.65-.97-.22-2.23-1.29-2.25-.51 0-.97.21-1.42.4-.16.07-.14.06.07-.03-.07.03-.14.05-.21.08-.14.05-.29.1-.43.14-.29.08-.59.14-.89.2-.17.03-.15.02.07 0-.08 0-.15.02-.23.02-.13.01-.27.02-.4.02h-.85c-.15 0-.31 0-.45-.04.38.08-.11-.02-.18-.04-.3-.06-.59-.14-.88-.22-.14-.04-.29-.08-.43-.14.26.1-.16-.09-.21-.12-.58-.32-1.41-.16-1.73.45s-.15 1.37.45 1.73ZM76.8 61.14c.73.05 1.52-.31 2.23-.46.33-.07.65-.12.98-.18.38-.06-.32.03.1-.01.17-.02.33-.04.49-.05.64-.06 1.28-.09 1.92-.07s1.32.1 1.98.08c.85-.03 1.55-.62 1.67-1.47s-.41-1.59-1.21-1.86c-1.38-.46-3.06-.38-4.49-.21-.79.09-1.58.23-2.35.43-.85.22-1.79.46-2.44 1.07-.47.44-.57 1.18-.33 1.75.26.61.81.94 1.46.98Zm26.25-4.16c-1.05-.42-2.13-.68-3.26-.81s-2.32-.18-3.39.08c-.87.22-1.41 1.12-1.29 1.98s.87 1.62 1.77 1.56c.41-.03.82-.12 1.23-.17l-.48.06c.82-.11 1.65-.14 2.48-.08.2.01.39.02.59.04.09 0 .18.02.27.03.35.03-.33-.05 0 0 .43.07.85.15 1.27.26.77.2 1.69-.25 1.87-1.06.09-.39.07-.83-.15-1.17s-.52-.54-.91-.7ZM50.5 170.1c1.77-12.68 2-25.56.69-38.29-.42 7.19.54 14.56 3.65 21.06 9.56 20 35.53 18.81 53.37 12.56 6.98-2.45 15.55-5.75 18.1-13.41 2.22-6.68 2.31-13.93 2.25-20.89a160.8 160.8 0 0 0 4.02 37.99"/><path d="M52.02 170.52c2.02-12.85 2.39-25.77 1.12-38.71-.24-2.48-3.76-2.55-3.91 0-.57 9.85 1.44 20.33 7.81 28.13 4.71 5.77 11.68 9.22 18.91 10.6 7.48 1.42 15.19.98 22.62-.49 3.65-.72 7.24-1.74 10.75-2.98 3.89-1.38 7.83-2.88 11.27-5.2 2-1.35 3.78-2.93 5.23-4.86 1.59-2.13 2.45-4.56 3.06-7.13 1.46-6.15 1.6-12.46 1.59-18.76 0-2.47-3.78-2.47-3.83 0-.31 12.94 1.14 25.91 4.01 38.52.57 2.51 4.43 1.45 3.86-1.06-2.79-12.3-4.04-24.85-4.03-37.46h-3.83c.08 5.16.1 10.43-.87 15.52-.81 4.25-2.23 7.96-5.6 10.79-2.88 2.42-6.5 3.95-10 5.24-3.25 1.2-6.54 2.26-9.91 3.06-12.56 2.97-28.49 3.33-38.41-6.32-7.29-7.1-9.21-17.83-8.71-27.62h-3.91c1.33 12.7 1.19 25.62-.32 38.29-.21 1.75 2.82 2.18 3.1.42Z"/></svg>