<?xml version="1.0" encoding="UTF-8"?><svg xmlns="http://www.w3.org/2000/svg" viewBox="0 0 180 180"><path d="M62.89 59.44c-.11 4.97-.53 9.96-.72 14.93-.18 4.81-.54 9.7-.11 14.51.75 8.28 4.65 15.72 11.62 20.43 1.72 1.16 3.56 2.17 5.5 2.91s3.97 1.81 6.1 2.01c1.3.12 1.59-1.71.63-2.31-1.45-.92-3.16-1.39-4.63-2.31s-2.81-1.94-4.1-3.01c-2.61-2.17-5.06-4.65-6.87-7.53-4.46-7.1-3.62-15.66-3.77-23.69l-.15-7.72c-.05-2.74-.3-5.48-.31-8.21 0-2.04-3.13-2.04-3.17 0Z"/><path d="M63.62 64.85c-1.91-1.5-4.38-1.8-6.55-.66-1.85.98-3.12 2.82-3.94 4.69-1.91 4.32-2.81 10.14-.45 14.46 1.68 3.06 5.21 5.24 8.46 6.27.85.27 1.82-.25 2.15-1.05.37-.91 0-1.71-.74-2.27-2.39-1.82-5.68-2.72-6.74-5.86-.43-1.28-.52-2.63-.45-3.97.05-1.09.11-1.46.34-2.53s.51-2.08.91-3.08c.11-.28.33-.75.56-1.16.14-.25.3-.5.45-.74 0 0 .36-.49.19-.27.28-.36.61-.72.98-1-.25.19.34-.19.4-.23.37-.2-.13.01.24-.1.99-.3 1.56-.15 2.7.05 1.31.23 2.81-1.5 1.48-2.55Zm12.19 58.74c.28-4.98.33-9.97.35-14.96.01-2.41-3.76-2.42-3.75 0 .02 4.99.07 9.98.35 14.96.11 1.96 2.94 1.96 3.05 0"/><path d="M72.31 121.63c-3.27.78-6.59 1.36-9.86 2.12-3.12.73-6.21 1.53-9.29 2.39-6.14 1.71-12.33 3.59-18.22 6.04-2.74 1.14-5.33 2.49-7.55 4.5-1.99 1.8-3.57 4.08-4.82 6.44-2.14 4.05-3.75 8.38-4.63 12.87-.49 2.49-.9 5-1.37 7.5-.37 1.98-.59 4.03-1.08 5.99-.52 2.09 2.58 3.59 3.6 1.52 1.75-3.54 2.3-7.49 3.09-11.32.83-4 1.82-7.79 3.48-11.53.99-2.24 2.14-4.52 3.75-6.4 1.73-2.01 3.88-3.41 6.26-4.54 5.44-2.58 11.38-4.27 17.1-6.11 3.35-1.08 6.72-2.09 10.08-3.11s6.86-2.21 10.33-3.11c2.09-.54 1.21-3.74-.89-3.24ZM60.13 76.68c.14.04.27.09.4.15l-.29-.12c.38.16.74.38 1.07.63l-.25-.19c.3.24.57.52.81.82l-.2-.26c.26.34.48.71.65 1.11l-.13-.32c.06.14.11.27.17.41l-.13-.32c.11.27.2.54.34.8.14.27.49.54.78.6s.58.05.85-.07c.25-.11.5-.29.63-.54l.13-.31c.06-.23.06-.47 0-.7-.05-.3-.19-.59-.33-.86-.09-.19-.2-.36-.32-.53-.28-.41-.6-.81-.97-1.14a6.6 6.6 0 0 0-2.58-1.49c-.61-.18-1.35.22-1.49.85-.15.66.2 1.28.85 1.49Zm53.81-17.24c-.01 4.64-.33 9.3-.42 13.94s.01 9.13-.27 13.67c-.24 3.76-.98 7.42-2.8 10.75-1.65 3.02-3.97 5.51-6.5 7.82-1.39 1.27-2.91 2.36-4.44 3.45-1.68 1.2-3.67 1.75-5.4 2.84-.96.61-.67 2.43.63 2.31 1.85-.17 3.52-1.02 5.24-1.69s3.48-1.43 5.11-2.43c3.36-2.05 6.19-4.75 8.42-7.99 5.24-7.64 4.75-16.91 4.42-25.76-.1-2.74-.21-5.48-.31-8.21-.11-2.91-.42-5.81-.48-8.71-.04-2.04-3.17-2.05-3.17 0Z"/><path d="M117.87 67.4c1.11-.2 1.66-.34 2.61-.07.39.11.06-.02.33.13.06.03.65.41.4.23.37.28.69.64.98 1s.99 1.65 1.2 2.17c.4.99.69 2.03.91 3.08s.28 1.44.34 2.53c.07 1.34-.03 2.69-.45 3.97-1.04 3.14-4.35 4.04-6.74 5.86-.72.55-1.14 1.37-.74 2.27.35.8 1.27 1.33 2.15 1.05 2.9-.92 5.87-2.72 7.73-5.17 1.79-2.36 2.29-5.46 2.07-8.36-.32-4.07-1.58-8.98-5.07-11.48-2.21-1.59-5.08-1.42-7.2.25-1.33 1.04.17 2.78 1.48 2.55Zm-10.63 56.19c.28-4.98.33-9.97.35-14.96.01-2.41-3.76-2.42-3.75 0 .02 4.99.07 9.98.35 14.96.11 1.96 2.94 1.96 3.05 0"/><path d="M106.8 124.87c6.09 1.58 12.12 3.62 18.13 5.5s11.88 3.75 17.64 6.07c2.37.96 4.77 2.14 6.65 3.89s3.15 3.79 4.26 6c1.88 3.75 3.11 7.64 3.99 11.73.93 4.33 1.45 8.91 3.43 12.92 1.01 2.05 4.13.59 3.6-1.52-.44-1.75-.62-3.59-.96-5.36-.42-2.18-.79-4.37-1.19-6.55-.82-4.46-2.13-8.54-4.05-12.67-2.39-5.15-5.92-9.32-11.11-11.78-5.71-2.71-11.98-4.58-18.05-6.32-3.53-1.02-7.08-1.98-10.66-2.82s-7.22-1.49-10.8-2.34c-2.1-.5-2.99 2.69-.89 3.24Zm12.43-50.52c-.97.29-1.83.81-2.58 1.49-.37.34-.69.73-.97 1.14-.12.17-.23.35-.32.53-.13.27-.28.56-.33.86-.05.35-.07.7.13 1.01.16.24.36.42.63.54.57.24 1.34.05 1.64-.54.13-.26.22-.53.34-.8l-.13.32c.06-.13.11-.27.17-.41l-.13.32c.17-.4.39-.77.65-1.11l-.2.26c.24-.3.5-.58.81-.82l-.25.19c.33-.25.69-.46 1.07-.63l-.29.12c.13-.06.27-.11.4-.15.3-.1.56-.28.72-.56.15-.26.22-.64.12-.93-.2-.61-.84-1.04-1.49-.85ZM86.37 99.73c1.91.5 4.19.22 6.08-.21.89-.2 1.76-.49 2.6-.84 1.02-.43 2.53-.94 3.03-2.01.27-.57.33-1.17 0-1.73-.3-.52-.88-.86-1.48-.85-1.09.02-2 .81-2.95 1.26-.06.03-.67.3-.32.15-.15.06-.31.12-.46.18-.41.15-.84.29-1.26.41a14 14 0 0 1-1.78.38c.36-.06-.3.03-.36.04-.89.08-1.76 0-2.65.05-.81.04-1.48.59-1.59 1.4s.37 1.57 1.16 1.77ZM79.7 77.34h.27c.25 0 .49-.04.7-.16.23-.07.42-.2.59-.38.18-.17.3-.36.38-.59.11-.22.17-.45.16-.7l-.07-.49c-.09-.31-.24-.58-.47-.81l-.37-.29c-.29-.17-.59-.25-.92-.25h-.27c-.25 0-.49.04-.7.16-.23.07-.42.2-.59.38-.18.17-.3.36-.38.59-.11.22-.17.45-.16.7l.07.49c.09.31.24.58.47.81l.37.29c.29.17.59.25.92.25m20.71 0h.27c.25 0 .49-.04.7-.16.23-.07.42-.2.59-.38.18-.17.3-.36.38-.59.11-.22.17-.45.16-.7l-.07-.49c-.09-.31-.24-.58-.47-.81l-.37-.29c-.29-.17-.59-.25-.92-.25h-.27c-.25 0-.49.04-.7.16-.23.07-.42.2-.59.38-.18.17-.3.36-.38.59-.11.22-.17.45-.16.7l.07.49c.09.31.24.58.47.81l.37.29c.29.17.59.25.92.25m-24.36-7.06c.14-.13.29-.26.44-.38-.34.27.16-.09.23-.14.29-.18.59-.33.89-.49.19-.08.18-.08-.04.01.09-.04.18-.07.27-.1.14-.05.27-.1.41-.14.35-.11.7-.19 1.06-.27.18-.04.37-.07.55-.1q.33-.045 0 0l.34-.03c.4-.03.79-.05 1.19-.05.93 0 1.94.2 2.83-.13.64-.24 1.1-.68 1.19-1.38s-.22-1.29-.79-1.66c-.95-.61-2.21-.6-3.31-.58-1.02.02-2.07.12-3.07.36-1.75.42-3.42 1.31-4.69 2.58-.66.66-.71 1.86 0 2.51s1.78.67 2.51 0Zm28.14-5.47-.51-.21c.13.06.12.05-.04-.03-.13-.07-.26-.14-.4-.2-.4-.2-.81-.38-1.23-.53-.69-.24-1.39-.46-2.11-.6-1.49-.31-3.12-.51-4.64-.39-.88.07-1.59.56-1.86 1.42-.17.53-.03 1.01.19 1.49.27.59 1.04.97 1.67.96.71-.02 1.41-.07 2.12-.04.3.01.6.03.91.05l.6.06.15.02c-.35-.05-.25-.04.3.04.06 0 .57.06.12.01.18.02.35.05.53.08.32.05.65.12.97.19.69.15 1.4.25 2.06.5.71.27 1.54-.24 1.81-.89s.08-1.61-.63-1.91Zm-40.91-3.8c2.3-.67 4.72-1.61 6.4-3.39.97-1.03 1.7-2.3 2.05-3.68.19-.74.27-1.51.32-2.27.06-.91.18-1.96-.39-2.73-.43-.58-.96-.98-1.71-.98s-1.28.41-1.71.98c-.54.71-.43 1.65-.47 2.49-.01.27-.03.55-.05.82 0 .08-.02.16-.03.24-.02.16-.01.11.02-.16.02.12-.05.29-.07.4-.06.29-.13.58-.22.87-.02.06-.15.51-.06.2.08-.29-.03.07-.07.14-.11.22-.23.44-.37.64-.02.03-.15.27-.19.27.17-.22.21-.27.11-.15-.04.05-.09.1-.13.15-.31.36-.66.68-1.02.98-.21.18-.16.07.02 0-.11.05-.24.18-.34.24-.19.13-.38.26-.58.38q-.66.405-1.35.72c-.32.14.19-.07-.02 0-.11.04-.22.09-.32.13-.26.1-.52.2-.78.29-.87.31-1.55 1.23-1.24 2.18.29.9 1.23 1.52 2.18 1.24Z"/><path d="M68.86 50.18c3.52.94 7.13 1.61 10.77 1.82 3.12.18 6.2-.13 9.28-.6 2.53-.38 5.02-.96 7.36-2.03 2.06-.95 5.07-2.85 5.07-5.43 0-1.39-1.51-2.19-2.69-1.54-.91.5-1.48 1.44-2.28 2.09-.72.58-1.59 1.04-2.44 1.39-2.03.85-4.24 1.3-6.4 1.65-5.96.98-11.87.64-17.75-.69-2.16-.49-3.07 2.75-.92 3.33Zm27.19 6.16c2.77-.42 5.46-1.35 7.93-2.67 1.21-.64 2.35-1.4 3.44-2.24 1.16-.9 2.56-1.93 3.34-3.2.47-.77.31-1.85-.32-2.48-.59-.59-1.76-.85-2.48-.32-.26.19-.53.38-.75.62-.89 1-.58 2.69.81 3.06.32.08.64.12.97.14-.48-1.16-.97-2.33-1.45-3.49-.5.41-.74.83-1.31 1.42-.42.43-.86.85-1.32 1.25-.92.8-1.77 1.41-2.9 2.09-2.15 1.29-4.36 2.11-6.85 2.59-.89.17-1.4 1.24-1.17 2.07.26.96 1.17 1.31 2.07 1.17Zm11.9-1.67c1.03 1.17 2.14 2.29 3.34 3.27 1.51 1.23 3.24 2.57 5.32 2.15.96-.19 1.53-1.25 1.4-2.15-.13-.99-.94-1.64-1.93-1.7-.19-.01-.38 0-.57-.02l.52.07q-.225-.03-.45-.09c-.07-.02-.15-.04-.22-.07-.19-.07-.15-.05.14.07-.1-.09-.3-.15-.42-.21-.14-.08-.27-.16-.41-.24-.54-.34-1.05-.73-1.56-1.11-.12-.09-.25-.17-.35-.27.38.35-.04-.03-.13-.1-.27-.21-.53-.43-.79-.65-.52-.44-1.02-.89-1.5-1.36-.64-.62-1.78-.69-2.41 0-.66.71-.63 1.69 0 2.41Zm-48.59-6.4c10.75-8.09 24.15-11.92 37.48-13.71 6.31-.85 12.67-1.28 19.04-1.28.04-.85.08-1.73-.17-2.55-1.08-3.5-5.51-3.65-8.46-3.05.36-1.15 1.04-.15.12-.92-1.55-1.31-3.1-2.61-4.65-3.92-.93-.78-1.86-1.57-2.91-2.17-1.97-1.13-4.26-1.56-6.51-1.9-11.69-1.79-23.72-1.71-35.29.78-.95.2-1.96.46-2.59 1.19-.91 1.05-.71 2.63-.45 4 .5 2.66 1 5.33 2.01 7.84.89 2.2 2.16 4.24 3.58 6.14-1.91 1.39-4.04 3.27-3.68 5.6.08.53.29 1.03.47 1.54.38 1.11.6 2.28.65 3.46.46-.71.93-1.42 1.39-2.13"/><path d="M60.11 49.55c5.83-4.31 12.66-7.22 19.57-9.34 7.15-2.21 14.59-3.51 22.03-4.24 4.71-.46 9.44-.71 14.17-.68 1.13 0 1.95-.93 2.01-2.01.17-3.01-.83-5.75-3.71-7.07-2.34-1.08-5-1-7.48-.53.78 1.02 1.57 2.04 2.35 3.05.05-.19.14-.35.27-.49l-.75.75-1.29.11c2.23.58 3.74-2.67 1.61-3.81-.73-.39-1.62-1.36-2.35-1.97-1.06-.9-2.11-1.82-3.19-2.7-2.02-1.65-4.18-2.81-6.74-3.41-5.24-1.23-10.83-1.62-16.2-1.79s-11.1.14-16.6.91c-2.54.35-5.37.61-7.78 1.53s-3.63 3.15-3.4 5.74c.53 5.86 2.57 11.51 6.07 16.22l.78-2.96c-1.89 1.4-3.81 2.99-4.53 5.32-.77 2.47.78 4.71.91 7.15.12 2.14 2.81 2.9 4 1.08l1.38-2.13c1.51-2.32-2.19-4.46-3.7-2.16-.46.71-.93 1.42-1.39 2.12l4 1.08c-.06-1.07-.19-2.15-.46-3.18-.2-.75-.7-1.58-.68-2.36.04-1.34 1.69-2.48 2.65-3.19.86-.63 1.53-1.94.78-2.96-1.34-1.81-2.6-3.73-3.44-5.83-.83-2.09-1.3-4.32-1.72-6.52-.14-.73-.61-2.09-.33-2.84.22-.6 1.04-.65 1.65-.79 2.3-.52 4.64-.91 6.98-1.2 9.48-1.19 19.44-1.1 28.85.68 2.58.49 4.61 1.39 6.63 3.07 1.02.85 2.03 1.7 3.05 2.55.84.7 1.7 1.64 2.68 2.15.54-1.27 1.07-2.54 1.61-3.81-1.58-.39-2.59.72-3.14 2.05-.66 1.6 1.19 2.83 2.56 2.56s2.91-.37 4.25.08c1.69.57 1.87 1.87 1.81 3.5l2.01-2.01c-15.69.19-32.11 2.05-46.4 8.96-3.85 1.86-7.45 4.19-10.87 6.76-1.5 1.13-.05 3.71 1.5 2.56Z"/><path d="M96.27 36.17c2.16-.33 4.5-.27 6.68-.22s4.54.22 6.79.62c2.13.38 4.22.9 6.34 1.31 2 .38 4.74 1.16 6.73.56 1.83-.55 1.65-2.92 0-3.54-1.12-.42-2.45-.31-3.64-.47-1.07-.15-2.13-.36-3.19-.56-2.22-.43-4.44-.85-6.68-1.12s-4.56-.4-6.83-.28-4.63.58-6.96.99c-1.79.31-1.02 2.98.75 2.71Zm20.63 9.04c1.6.13 3.2.25 4.8.41l2.35.24c.93.09 2.17.43 2.97-.17.46-.34.76-.7.84-1.29.07-.54-.08-1.1-.49-1.48-.58-.55-1.21-.65-1.97-.66-.42 0-.84-.01-1.27-.02l-2.35-.03c-1.63-.02-3.26-.09-4.89-.14-.82-.03-1.61.74-1.57 1.57.04.91.69 1.5 1.57 1.57Zm5.99 6.61c-.08 1.16-.43 2.39-.77 3.51-.4 1.27-.75 2.3-1.32 3.41s-1.28 2.25-1.96 3.12c-.82 1.05-2.3 2.1-2.82 3.44-.4 1.04.65 2.49 1.79 2.34.76-.1 1.25-.26 1.83-.75.28-.24.55-.51.81-.77.5-.51.96-1.05 1.4-1.62.95-1.21 1.77-2.47 2.42-3.87.62-1.33 1.2-2.74 1.49-4.19.31-1.55.37-3.06.4-4.62.02-.88-.76-1.62-1.62-1.62-.93 0-1.57.75-1.62 1.62Zm-64.21-4.38c-1.4 1.52-2.7 3.13-3.99 4.75-1.42 1.79-2.72 3.33-2.31 5.76.3 1.78 1.12 3.58 2 5.15.42.76.89 1.49 1.41 2.18.34.46.68.95 1.18 1.24.15.09.41.22.59.24.25.04-1.12-1.03-.68-.44.91 1.22 2.69 1.09 3.21-.42.28-.82.12-1.76-.51-2.38-.1-.1-.67-.69-.18-.14-.03-.04-.13-.08-.15-.12-.21-.32-.45-.62-.67-.94-.89-1.35-1.6-2.8-2.07-4.34-.17-.55-.36-1.04-.09-1.55.41-.77.99-1.47 1.49-2.17 1.13-1.6 2.25-3.21 3.26-4.89.92-1.52-1.25-3.26-2.49-1.92Zm12.14 75.9c5.16 4.57 11.99 6.51 18.8 6.54 3.75.01 7.51-.47 11.18-1.19 1.46-.29 2.89-.67 4.24-1.31 1.49-.71 2.49-1.74 3.4-3.09 1.3-1.91-1.76-4.33-3.24-2.5-1.47 1.81-4.1 2.27-6.26 2.66-3.24.59-6.51.93-9.81.88-5.74-.08-11.4-1.48-16.14-4.81-1.66-1.17-3.7 1.47-2.18 2.82Z"/><path d="M72.34 123.18c-1.31 15.58-.83 31.3 1.42 46.77.06.44.15.93.5 1.21.3.24.72.26 1.11.27 10.11.28 20.6 1.43 30.55-.4.68-.13 1.4-.28 1.91-.76.37-.35.59-.83.77-1.31 1.19-3.14 1.08-7.43 1.25-10.79.46-8.96.15-11.52-.68-20.45-.29-3.12-1.53-11.65-3.44-14.14-1.29 2.8-2.25 3.86-5.15 4.88-2.32.82-4.83.88-7.29.87-3.85-.02-7.7-.19-11.53-.53-2.43-.21-5.1-.62-6.65-2.5"/><path d="M70.8 123.18c-.46 5.21-1.06 10.38-1.15 15.61-.09 5.13 0 10.26.32 15.38.32 5.15.85 10.28 1.58 15.38.16 1.14.31 2.27 1.19 3.12.96.92 2.32.89 3.56.93 2.55.09 5.1.22 7.65.34 5.03.23 10.08.44 15.11.12 2.53-.16 5.1-.44 7.59-.95s3.59-2.04 4.26-4.28c1.28-4.24 1.01-9.03 1.15-13.42.12-3.65.04-7.28-.26-10.92-.34-3.98-.67-7.97-1.33-11.91-.54-3.23-1.06-7.29-3.05-10-.79-1.08-2.75-1.49-3.44 0-.77 1.65-1.54 2.91-3.26 3.66-2.65 1.14-5.6 1.05-8.42 1-3.05-.06-6.09-.21-9.13-.47-2.23-.19-4.94-.2-6.53-2.01-1.87-2.13-4.99 1-3.12 3.12 2.08 2.35 5.23 2.88 8.21 3.13 3.67.3 7.37.44 11.05.44 3.46 0 6.87-.21 10.05-1.72 2.24-1.07 3.56-2.93 4.6-5.13h-3.44c1.47 2.03 1.88 5.03 2.33 7.48.54 2.93.83 5.87 1.1 8.83.66 7.26.53 14.43.08 21.7-.11 1.85-.22 3.88-.95 5.61-.3.7-.58.6-1.46.75-1.13.2-2.27.35-3.41.47-4.61.48-9.24.49-13.87.35-2.24-.07-4.48-.17-6.73-.27-1.11-.05-2.23-.1-3.35-.14l-1.66-.06c-.19 0-1.22.1-.46.19.23.29.3.3.22.04-.04-.22-.07-.43-.1-.65-.65-4.56-1.13-9.16-1.48-13.76-.4-5.28-.63-10.57-.66-15.86-.03-5.35-.15-10.76.27-16.1.15-1.97-2.89-1.95-3.06 0m-37.76 31.73c-.71 1.72-.73 3.56-.82 5.39-.09 1.8-.28 3.6-.57 5.38s-.68 3.54-1.17 5.27c-.28.99-.45 2.11.36 2.92s2.15.76 2.98-.03c.6-.58.6-1.42.27-2.13l-.04-.08c-.39-.83-1.53-.98-2.27-.59l.18-.11h.96l-.16-.04.81.47-.12-.11.48.82c-.02.45.02.45.1.03.04-.16.09-.32.13-.47.1-.37.19-.74.28-1.11q.225-.96.42-1.92c.29-1.5.52-3.01.66-4.54.13-1.41.19-2.82.2-4.23 0-1.38 0-2.74.42-4.07.25-.83-.3-1.75-1.12-1.97-.92-.25-1.64.32-1.97 1.12Zm110.63.45c-.19 2.38-.21 4.77-.24 7.16-.01 1.19-.04 2.39-.03 3.58 0 1.25-.28 3.05 1.09 3.71.78.38 1.53.27 2.18-.28.4-.34.58-.88.57-1.39 0-.84-.55-1.37-1.27-1.66h-.03c-.8-.34-1.86.35-2.03 1.14-.02.11-.05.33-.06.44l.48-1.17s-.07.06-.11.09l1.72-.45h-.07c.26.14.53.3.79.45l-.09-.1.47.81v-2.74l-.04-3.2c-.03-2.14-.06-4.26-.24-6.39-.16-2-2.95-2-3.11 0Z"/><path d="M69.05 123.13c-4.34 2.79-8.14 6.47-11.78 10.08s-7.17 7.5-10.47 11.5c-1.03 1.25-.62 2.89.91 3.46a96 96 0 0 1 12.63 5.74l-.75-2.87a40.5 40.5 0 0 0-4.57 11.24c-.47 1.96-.78 3.96-.96 5.97s-.38 4.24.16 6.22c.47 1.72 3.45 1.98 3.75 0s.13-3.85.28-5.78c.14-1.78.43-3.55.84-5.29.85-3.62 2.24-7.04 4.13-10.24.56-.95.24-2.33-.75-2.87a99 99 0 0 0-13.65-6.1c.3 1.15.61 2.3.91 3.46 3.23-3.96 6.64-7.78 10.21-11.44s7.46-6.99 10.92-10.74c1.1-1.19-.33-3.28-1.8-2.33Zm37.14 1.15c3.92 3.39 8.03 6.55 12.01 9.85s7.96 6.65 11.88 10.05v-2.74c-3.54 3.43-7.21 6.71-11.03 9.83-1.08.88-.57 2.53.41 3.19 2.64 1.76 4.66 4.41 5.73 7.4.53 1.49.87 3.03.96 4.62.09 1.69-.21 3.21-.44 4.87-.13.96.15 1.9 1.13 2.29.81.33 2.03.1 2.43-.8 1.65-3.75 1.24-8.48-.16-12.25-1.48-3.95-4.05-7.32-7.59-9.64.14 1.06.27 2.13.41 3.19 3.8-3.14 7.43-6.45 10.9-9.96.69-.7.8-2.06 0-2.74-4.02-3.41-8.08-6.78-12.2-10.07-4.1-3.27-8.2-6.59-12.54-9.54-1.45-.99-3.24 1.29-1.89 2.45ZM88.63 74.55c-.23 1.21-.22 2.47-.26 3.7l-.12 3.6c-.08 2.37-.37 4.83-.13 7.19.08.78.54 1.45 1.37 1.55.7.08 1.62-.34 1.73-1.13.36-2.45.23-5 .26-7.47.03-2.44.28-5.01-.06-7.44-.2-1.4-2.52-1.34-2.77 0Z"/></svg>