<?xml version="1.0" encoding="UTF-8"?><svg xmlns="http://www.w3.org/2000/svg" viewBox="0 0 180 180"><path d="M62.89 59.44c-.11 4.97-.53 9.96-.72 14.93-.18 4.81-.54 9.7-.11 14.51.75 8.28 4.65 15.72 11.62 20.43 1.72 1.16 3.56 2.17 5.5 2.91 1.98.75 3.97 1.81 6.1 2.01 1.3.12 1.59-1.71.63-2.31-1.45-.92-3.16-1.39-4.63-2.31s-2.81-1.94-4.1-3.01c-2.61-2.17-5.06-4.65-6.87-7.53-4.46-7.1-3.62-15.66-3.77-23.69l-.15-7.72c-.05-2.74-.3-5.48-.31-8.21 0-2.04-3.13-2.04-3.17 0Z"/><path d="M63.62 64.85c-1.91-1.5-4.38-1.8-6.55-.66-1.85.98-3.12 2.82-3.94 4.69-1.91 4.32-2.81 10.14-.45 14.46 1.68 3.06 5.21 5.24 8.46 6.27.85.27 1.82-.25 2.15-1.05.37-.91 0-1.71-.74-2.27-2.39-1.82-5.68-2.72-6.74-5.86-.43-1.28-.52-2.63-.45-3.97.05-1.09.11-1.46.34-2.53s.51-2.08.91-3.08c.11-.28.33-.75.56-1.16.14-.25.3-.5.45-.74 0 0 .36-.49.19-.27.28-.36.61-.72.98-1-.25.19.34-.19.4-.23.37-.2-.13.01.24-.1.99-.3 1.56-.15 2.7.05 1.31.23 2.81-1.5 1.48-2.55Zm12.19 58.74c.28-4.98.33-9.97.35-14.96.01-2.41-3.76-2.42-3.75 0 .02 4.99.07 9.98.35 14.96.11 1.96 2.94 1.96 3.05 0"/><path d="M72.31 121.63c-3.27.78-6.59 1.36-9.86 2.12s-6.21 1.53-9.29 2.39c-6.14 1.71-12.33 3.59-18.22 6.04-2.74 1.14-5.33 2.49-7.55 4.5-1.99 1.8-3.57 4.08-4.82 6.44-2.14 4.05-3.75 8.38-4.63 12.87-.49 2.49-.9 5-1.37 7.5-.37 1.98-.59 4.03-1.08 5.99-.52 2.09 2.58 3.59 3.6 1.52 1.75-3.54 2.3-7.49 3.09-11.32s1.82-7.79 3.48-11.53c.99-2.24 2.14-4.52 3.75-6.4 1.73-2.01 3.88-3.41 6.26-4.54 5.44-2.58 11.38-4.27 17.1-6.11 3.35-1.08 6.72-2.09 10.08-3.11s6.86-2.21 10.33-3.11c2.09-.54 1.21-3.74-.89-3.24ZM60.13 76.68c.14.04.27.09.4.15l-.29-.12c.38.16.74.38 1.07.63l-.25-.19c.3.24.57.52.81.82l-.2-.26c.26.34.48.71.65 1.11l-.13-.32c.06.14.11.27.17.41l-.13-.32c.11.27.2.54.34.8.14.27.49.54.78.6s.58.05.85-.07c.25-.11.5-.29.63-.54l.13-.31c.06-.23.06-.47 0-.7-.05-.3-.19-.59-.33-.86-.09-.19-.2-.36-.32-.53-.28-.41-.6-.81-.97-1.14a6.6 6.6 0 0 0-2.58-1.49c-.61-.18-1.35.22-1.49.85-.15.66.2 1.28.85 1.49Zm53.81-17.24c-.01 4.64-.33 9.3-.42 13.94s.01 9.13-.27 13.67c-.24 3.76-.98 7.42-2.8 10.75-1.65 3.02-3.97 5.51-6.5 7.82-1.39 1.27-2.91 2.36-4.44 3.45-1.68 1.2-3.67 1.75-5.4 2.84-.96.61-.67 2.43.63 2.31 1.85-.17 3.52-1.02 5.24-1.69s3.48-1.43 5.11-2.43c3.36-2.05 6.19-4.75 8.42-7.99 5.24-7.64 4.75-16.91 4.42-25.76l-.31-8.21c-.11-2.91-.42-5.81-.48-8.71-.04-2.04-3.17-2.05-3.17 0Z"/><path d="M117.87 67.4c1.11-.2 1.66-.34 2.61-.07.39.11.06-.02.33.13.06.03.65.41.4.23.37.28.69.64.98 1s.99 1.65 1.2 2.17c.4.99.69 2.03.91 3.08s.28 1.44.34 2.53c.07 1.34-.03 2.69-.45 3.97-1.04 3.14-4.35 4.04-6.74 5.86-.72.55-1.14 1.37-.74 2.27.35.8 1.27 1.33 2.15 1.05 2.9-.92 5.87-2.72 7.73-5.17 1.79-2.36 2.29-5.46 2.07-8.36-.32-4.07-1.58-8.98-5.07-11.48-2.21-1.59-5.08-1.42-7.2.25-1.33 1.04.17 2.78 1.48 2.55Zm-10.63 56.19c.28-4.98.33-9.97.35-14.96.01-2.41-3.76-2.42-3.75 0 .02 4.99.07 9.98.35 14.96.11 1.96 2.94 1.96 3.05 0"/><path d="M106.8 124.87c6.09 1.58 12.12 3.62 18.13 5.5 5.93 1.86 11.88 3.75 17.64 6.07 2.37.96 4.77 2.14 6.65 3.89 1.83 1.7 3.15 3.79 4.26 6 1.88 3.75 3.11 7.64 3.99 11.73.93 4.33 1.45 8.91 3.43 12.92 1.01 2.05 4.13.59 3.6-1.52-.44-1.75-.62-3.59-.96-5.36-.42-2.18-.79-4.37-1.19-6.55-.82-4.46-2.13-8.54-4.05-12.67-2.39-5.15-5.92-9.32-11.11-11.78-5.71-2.71-11.98-4.58-18.05-6.32-3.53-1.02-7.08-1.98-10.66-2.82-3.58-.85-7.22-1.49-10.8-2.34-2.1-.5-2.99 2.69-.89 3.24Zm12.43-50.52c-.97.29-1.83.81-2.58 1.49-.37.34-.69.73-.97 1.14-.12.17-.23.35-.32.53-.13.27-.28.56-.33.86-.05.35-.07.7.13 1.01.16.24.36.42.63.54.57.24 1.34.05 1.64-.54.13-.26.22-.53.34-.8l-.13.32c.06-.13.11-.27.17-.41l-.13.32c.17-.4.39-.77.65-1.11l-.2.26c.24-.3.5-.58.81-.82l-.25.19c.33-.25.69-.46 1.07-.63l-.29.12c.13-.06.27-.11.4-.15.3-.1.56-.28.72-.56.15-.26.22-.64.12-.93-.2-.61-.84-1.04-1.49-.85ZM62.07 62.98c7.06.13 13.32-.89 18.96-5.14 3.98-3.01 6.3-7.66 8.98-11.87s6.27-8.38 11.17-9.33c1.7 6.29 5.53 11.97 10.73 15.9 1.37 1.04 2.91 2.05 3.57 3.64 1.09 2.64-.49 6.3 1.67 8.17 4.27-6.45 3.05-14.97 1.33-22.51-1.04-4.56-3.15-9.99-7.8-10.55-.99-.12-1.99.01-2.99-.07-3.13-.25-5.67-2.54-8.51-3.89-7.33-3.5-16.01-.58-23.42 2.76-5.27 2.37-10.69 5.15-13.92 9.94-4.45 6.6-3.67 15.29-2.72 23.19"/><path d="M62.07 64.44c8.46.93 17.7-1.44 23.41-8.1 4.97-5.8 7.89-15.89 16.26-17.69l-2.57-1.46c1.64 5.85 5.2 11.26 9.83 15.17 1.99 1.68 4.83 2.87 5.05 5.77.21 2.68-.37 5.45 1.78 7.53.89.86 2.26.63 2.92-.38 4.56-7.03 3.38-15.83 1.69-23.58-.72-3.32-1.8-6.74-4.03-9.37-1.09-1.28-2.5-2.27-4.1-2.79-1.89-.61-3.89-.11-5.76-.7-1.83-.57-3.42-1.78-5.07-2.72-1.77-1-3.69-1.78-5.69-2.15-4.3-.81-8.7-.21-12.86 1.03-4.08 1.21-8.06 2.95-11.86 4.86-3.48 1.75-6.91 3.9-9.48 6.86-6.43 7.38-5.79 17.39-4.69 26.48.15 1.2.92 2.23 2.23 2.23 1.1 0 2.38-1.03 2.23-2.23-.81-6.85-1.82-14.78 1.78-21.04 1.76-3.06 4.53-5.29 7.53-7.06s6.5-3.39 9.88-4.69c3.56-1.37 7.32-2.5 11.15-2.53 1.83-.01 3.61.24 5.35.84 1.68.58 3.16 1.59 4.69 2.48 1.55.9 3.21 1.71 5 1.98 1.62.25 3.42-.23 4.95.46 2.49 1.12 3.66 4.35 4.39 6.76 2.14 7.17 3.72 16.31-.54 22.99.97-.13 1.95-.25 2.92-.38-.77-.74-.71-1.82-.71-2.82 0-1.28.05-2.64-.3-3.89-.78-2.72-3.43-4.11-5.43-5.85-4.38-3.83-7.29-8.8-8.82-14.39-.31-1.14-1.46-1.69-2.57-1.46-8.77 1.83-12.2 10.85-16.83 17.37-2.36 3.33-5.61 5.89-9.44 7.35s-8.12 1.84-12.29 2.17c-1.9.15-1.86 2.72 0 2.92Zm-5.16 21.37c-.56 3.2.78 6.66-.47 9.66-.56 1.35-1.6 2.44-2.43 3.65-2.04 2.93-2.93 6.64-2.43 10.18.49 3.48 2.22 7.19.57 10.29-1.13 2.13-3.75 3.66-3.64 6.07.1 2.21 2.47 3.53 4.57 4.23 6.26 2.1 13.04 2.64 19.55 1.56.01-7.14.03-14.29.04-21.43 0-.57 0-1.16-.27-1.66-.33-.6-.97-.95-1.56-1.31-3.28-2-5.62-5.48-6.21-9.27-.33-2.08-.16-4.25-.79-6.27s-2.41-3.93-4.5-3.7"/><path d="M55.44 85.4c-.46 2.49-.05 4.93-.24 7.43s-2.06 4.01-3.31 5.99c-1.29 2.04-2.03 4.38-2.31 6.77-.3 2.52.18 4.94.73 7.4.47 2.08 1.04 4.4-.33 6.26-1.2 1.62-2.85 2.86-3.4 4.9-1.4 5.27 4.64 7.57 8.58 8.62 5.92 1.58 12.04 1.8 18.07.81.94-.16 1.63-1.24 1.63-2.14-.02-5.15-.04-10.3-.04-15.45v-3.49c0-1.28.13-2.65-.11-3.92-.44-2.25-2.26-2.85-3.87-4.13-1.41-1.12-2.53-2.59-3.28-4.23-.83-1.8-.94-3.68-1.09-5.62-.17-2.14-.48-4.31-1.78-6.09-1.26-1.74-3.15-2.96-5.36-2.84-2.71.15-2.73 4.38 0 4.23 1.45-.08 2.25 1.33 2.58 2.59.52 2.01.34 4.16.72 6.2.63 3.37 2.56 6.59 5.18 8.78.7.58 1.45 1.14 2.24 1.59.69.39.48.86.47 1.68 0 2.24-.01 4.49-.02 6.73-.01 4.65-.05 9.3-.09 13.96l1.63-2.14c-4.75.74-9.7.61-14.39-.41-1.99-.43-4.26-.87-5.98-2.02-1.24-.83-1.23-1.69-.39-2.84 1.18-1.61 2.58-2.9 3.2-4.86.67-2.15.29-4.46-.19-6.6s-1.04-4.29-.82-6.56c.2-2.12 1.01-4.16 2.19-5.92 1.46-2.17 2.85-3.91 3.06-6.63.2-2.56-.6-5.09-.3-7.64.2-1.69-2.68-2.09-2.99-.4Zm50.86 22.81c-.21 5.61-.04 11.22.49 16.81.13 1.31.34 2.76 1.35 3.61.6.5 1.38.71 2.14.85 4.99.96 10.13-.09 15.21-.24 2.33-.07 4.79.02 6.83-1.1 2.04-1.13 3.31-4.03 1.84-5.85-.47-.58-1.13-.95-1.72-1.39-2.73-2.03-2.06-4.63-2.47-7.58-1.1-8.02-6.36-13.88-8.8-21.38-.57-1.74-1.67-3.43-3.38-4.09a92.7 92.7 0 0 1-10.27 23"/><path d="M104.65 108.21c-.22 3.96-.24 7.91-.05 11.87.09 1.76.18 3.54.37 5.3.18 1.63.51 3.26 1.72 4.45 1.19 1.18 2.9 1.48 4.5 1.7 1.9.26 3.8.3 5.71.22 3.69-.16 7.39-.43 11.08-.63 3.06-.17 6.2-.99 7.86-3.78.65-1.09 1.01-2.4.89-3.67-.18-1.83-1.26-3-2.69-4.04-.94-.69-1.55-1.36-1.77-2.54s-.16-2.51-.32-3.76c-.41-3.31-1.52-6.4-2.93-9.41-1.46-3.12-3.22-6.09-4.65-9.23s-2.04-7.03-5.58-8.56c-1.19-.51-2.56-.16-2.96 1.2-1.16 3.95-2.55 7.82-4.24 11.58-1.7 3.79-3.89 7.29-5.72 11-1.1 2.23 1.82 3.82 3.26 1.91 2.54-3.37 4.4-7.46 6.11-11.3 1.75-3.94 3.25-7.98 4.47-12.12-.99.4-1.97.8-2.96 1.2 2.44 1.06 2.85 4.17 3.81 6.39 1.06 2.44 2.35 4.76 3.58 7.12 1.27 2.43 2.46 4.9 3.21 7.55.68 2.39.6 4.76 1.02 7.18.19 1.1.6 2.15 1.27 3.05.4.55.85.99 1.38 1.42.48.38 1.17.69 1.54 1.18 1.35 1.79-1.8 3.32-3.07 3.57s-2.68.2-4.02.25c-1.59.06-3.18.19-4.77.33-3.26.28-6.68.66-9.93.03-1.49-.29-1.88-.8-2.1-2.28-.29-1.9-.37-3.87-.48-5.79-.23-3.79-.3-7.59-.25-11.38.03-2.14-3.2-2.12-3.31 0Zm-38.03 18.72c.72 3.92 1.99 7.75 3.24 11.52s2.79 7.79 4.38 11.61c1.6 3.83 3.33 7.61 5.22 11.31.91 1.79 1.86 3.57 2.86 5.32s1.92 3.57 3.49 4.75c1.29.97 2.71-.63 2.47-1.9-.36-1.87-1.73-3.64-2.65-5.29-.92-1.63-1.8-3.28-2.65-4.95-1.84-3.61-3.52-7.3-5.11-11.03-1.55-3.65-2.94-7.36-4.3-11.08-1.34-3.69-2.47-7.46-3.88-11.12-.74-1.91-3.45-1.19-3.07.85Z"/><path d="M113.41 125.41c-2.25 8.62-5.32 17.06-9.04 25.15-1.64 3.56-3.57 6.97-5.18 10.54-.67 1.49-1.35 2.99-2.13 4.43-.72 1.32-1.59 2.19-2.58 3.29-.84.94-.37 3.01 1.17 2.81 3.43-.43 5.42-4.53 6.73-7.34 1.72-3.7 3.65-7.28 5.34-11 3.94-8.68 6.89-17.7 8.98-27 .48-2.13-2.73-3.04-3.28-.91Zm-61.53 3.13c.33 7.59 3.66 14.19 6.45 21.11 1.42 3.52 2.79 7.06 4.06 10.63.64 1.79 1.25 3.58 1.84 5.39.6 1.83 1.18 3.82 2.13 5.5.75 1.35 3.16.82 3.03-.82-.29-3.7-1.9-7.42-3.13-10.89-1.24-3.5-2.57-6.98-4-10.4-1.41-3.37-2.95-6.68-4.38-10.04-1.41-3.31-2.73-6.86-2.97-10.48-.13-1.92-3.1-1.95-3.02 0Zm76.36-.1c-3.18 7.13-6.16 14.34-9.1 21.57-1.46 3.58-2.91 7.17-4.34 10.76-.64 1.6-1.22 3.24-1.99 4.78-.69 1.39-1.56 2.47-2.59 3.62s-.05 3.58 1.67 2.87c3.29-1.35 4.58-4.86 5.82-7.92 1.54-3.82 3.07-7.63 4.59-11.46 3.03-7.64 6.03-15.28 8.8-23.02.59-1.65-2.13-2.83-2.86-1.2M87.43 68.37c.01 6.5.03 13.02.39 19.5.12 2.19 3.45 2.23 3.44 0-.02-6.5-.38-13.01-.75-19.5-.11-1.96-3.08-2-3.08 0M85.9 96.8c1.56.78 3.36 1.2 5.11 1 .87-.1 1.71-.26 2.53-.58.93-.37 1.86-.79 2.53-1.56.51-.59.61-1.4.12-2.03s-1.3-.75-2-.4c-.31.15-.6.31-.89.49-.15.09-.29.17-.45.24-.08.04-.15.07-.23.11-.18.09-.05.06.04-.01-.24.18-.68.25-.96.33-.16.04-.33.08-.5.12-.08.02-.17.03-.25.05-.31.06.2-.01 0 0-.69.06-1.34.07-2.03.02-.23-.02.27.05.04 0-.08-.02-.17-.03-.25-.04-.17-.03-.33-.07-.5-.11s-.33-.09-.49-.14a2 2 0 0 0-.24-.08c-.06-.02-.34-.14-.05-.01-.73-.31-1.66-.24-2.07.54-.36.69-.21 1.7.54 2.07Zm-3.83-20.18c2.11 0 2.11-3.28 0-3.28s-2.11 3.28 0 3.28m15.35.07c2.11 0 2.11-3.28 0-3.28s-2.11 3.28 0 3.28M76.52 66c.27-.3.55-.58.85-.85.09-.08.18-.15.27-.23.11-.09.14-.1 0 0 .17-.12.34-.25.52-.36.34-.22.68-.41 1.05-.59.09-.04.17-.08.26-.12-.29.14 0 0 .07-.02q.3-.12.6-.21c.38-.12.77-.22 1.16-.29.09-.02.19-.03.28-.05.25-.05-.4.04.04 0 .19-.02.37-.04.56-.05.42-.03.85-.03 1.27 0s.84.12 1.26.07c.68-.08 1.36-.43 1.53-1.16.15-.68-.1-1.44-.73-1.79-.95-.53-2.19-.55-3.26-.47s-2.03.26-2.99.59c-1.9.67-3.67 1.77-4.99 3.31-.55.63-.67 1.64 0 2.25.61.56 1.66.67 2.25 0Zm28.78-7.85q-.24-.225-.48-.42c-.24-.195-.34-.25-.49-.39.12.1.11.08 0-.01-.43-.35-.87-.66-1.36-.92-.87-.47-1.81-.84-2.76-1.07s-1.95-.32-2.93-.28c-1.13.05-2.31.24-3.25.9-.6.42-1.03 1.17-.78 1.92.23.71.87 1.25 1.64 1.25h.55l.49-.07-.22.03c.24-.03.48-.06.72-.1.27-.05-.36.03-.08.01.16-.01.31-.04.47-.06.79-.11-.18 0 .1 0 .1 0 .19-.02.29-.03.41-.03.81-.04 1.22-.02.19 0 .38.02.57.04.09 0 .19.02.28.03.06 0 .47.06.18.02-.26-.04.06.01.11.02.09.02.19.03.28.05.19.04.37.08.56.13.39.1.77.24 1.15.38-.14-.05-.18-.08-.02 0 .09.04.17.08.26.12.17.08.35.16.52.25.38.19.74.44 1.08.7.62.48 1.61.15 2.04-.41.46-.6.46-1.54-.12-2.07Zm-72.21 96.78c-.82 5.57-1.27 11.14-1.25 16.77 0 1.04 1.12 2.08 2.19 1.67.4-.15.78-.33 1.16-.52 1.37-.69.78-3.17-.81-3-.43.05-.85.09-1.27.18.73.56 1.46 1.11 2.19 1.67-.13-5.46.04-10.95.55-16.39.15-1.56-2.53-1.94-2.76-.37Zm105.37-2.38c-.05 1.44-.26 2.89-.32 4.34s-.07 2.89-.09 4.34c-.02 1.4-.02 2.8-.07 4.2-.04 1.19-.27 2.29-.44 3.46-.27 1.88 1.88 2.84 3.04 1.28.88-1.18 1-2.74 1.05-4.17s0-2.85-.02-4.27c-.01-1.5 0-3.01-.06-4.51s-.26-3.12-.31-4.67c-.05-1.8-2.74-1.8-2.8 0Zm-52.35-6.91c-1.97-.52-3.95-.96-5.96-1.31-1.03-.18-2.07-.31-3.11-.43s-2.27-.34-3.35-.15c-.67.12-1.15.87-1.15 1.51 0 .7.49 1.3 1.15 1.51.96.3 2.12.22 3.12.32s1.95.22 2.92.34c1.88.24 3.75.6 5.61 1.01.77.17 1.57-.23 1.79-1.01s-.25-1.58-1.01-1.79Z"/><path d="M98.4 149.38c1.54-.42 3.08-.81 4.64-1.15.76-.17 1.53-.33 2.3-.48.38-.07.77-.15 1.15-.22.41-.07.85-.1 1.23-.26.71-.29 1.19-.86 1.09-1.66-.1-.75-.73-1.3-1.49-1.31-.88-.02-1.85.3-2.71.49q-1.14.255-2.28.54c-1.57.39-3.14.83-4.69 1.31-.73.23-1.2.99-.99 1.75s1.01 1.2 1.75.99"/></svg>