<?xml version="1.0" encoding="UTF-8"?><svg xmlns="http://www.w3.org/2000/svg" viewBox="0 0 180 180"><path d="M62.89 59.44c-.11 4.97-.53 9.96-.72 14.93-.18 4.81-.54 9.7-.11 14.51.75 8.28 4.65 15.72 11.62 20.43 1.72 1.16 3.56 2.17 5.5 2.91s3.97 1.81 6.1 2.01c1.3.12 1.59-1.71.63-2.31-1.45-.92-3.16-1.39-4.63-2.31s-2.81-1.94-4.1-3.01c-2.61-2.17-5.06-4.65-6.87-7.53-4.46-7.1-3.62-15.66-3.77-23.69l-.15-7.72c-.05-2.74-.3-5.48-.31-8.21 0-2.04-3.13-2.04-3.17 0Z"/><path d="M63.62 64.85c-1.91-1.5-4.38-1.8-6.55-.66-1.85.98-3.12 2.82-3.94 4.69-1.91 4.32-2.81 10.14-.45 14.46 1.68 3.06 5.21 5.24 8.46 6.27.85.27 1.82-.25 2.15-1.05.37-.91 0-1.71-.74-2.27-2.39-1.82-5.68-2.72-6.74-5.86-.43-1.28-.52-2.63-.45-3.97.05-1.09.11-1.46.34-2.53s.51-2.08.91-3.08c.11-.28.33-.75.56-1.16.14-.25.3-.5.45-.74 0 0 .36-.49.19-.27.28-.36.61-.72.98-1-.25.19.34-.19.4-.23.37-.2-.13.01.24-.1.99-.3 1.56-.15 2.7.05 1.31.23 2.81-1.5 1.48-2.55Zm12.19 58.74c.28-4.98.33-9.97.35-14.96.01-2.41-3.76-2.42-3.75 0 .02 4.99.07 9.98.35 14.96.11 1.96 2.94 1.96 3.05 0"/><path d="M72.31 121.63c-3.27.78-6.59 1.36-9.86 2.12s-6.21 1.53-9.29 2.39c-6.14 1.71-12.33 3.59-18.22 6.04-2.74 1.14-5.33 2.49-7.55 4.5-1.99 1.8-3.57 4.08-4.82 6.44-2.14 4.05-3.75 8.38-4.63 12.87-.49 2.49-.9 5-1.37 7.5-.37 1.98-.59 4.03-1.08 5.99-.52 2.09 2.58 3.59 3.6 1.52 1.75-3.54 2.3-7.49 3.09-11.32s1.82-7.79 3.48-11.53c.99-2.24 2.14-4.52 3.75-6.4 1.73-2.01 3.88-3.41 6.26-4.54 5.44-2.58 11.38-4.27 17.1-6.11 3.35-1.08 6.72-2.09 10.08-3.11s6.86-2.21 10.33-3.11c2.09-.54 1.21-3.74-.89-3.24ZM60.13 76.68c.14.04.27.09.4.15l-.29-.12c.38.16.74.38 1.07.63l-.25-.19c.3.24.57.52.81.82l-.2-.26c.26.34.48.71.65 1.11l-.13-.32c.06.14.11.27.17.41l-.13-.32c.11.27.2.54.34.8.14.27.49.54.78.6s.58.05.85-.07c.25-.11.5-.29.63-.54l.13-.31c.06-.23.06-.47 0-.7-.05-.3-.19-.59-.33-.86-.09-.19-.2-.36-.32-.53-.28-.41-.6-.81-.97-1.14a6.6 6.6 0 0 0-2.58-1.49c-.61-.18-1.35.22-1.49.85-.15.66.2 1.28.85 1.49Zm53.81-17.24c-.01 4.64-.33 9.3-.42 13.94s.01 9.13-.27 13.67c-.24 3.76-.98 7.42-2.8 10.75-1.65 3.02-3.97 5.51-6.5 7.82-1.39 1.27-2.91 2.36-4.44 3.45-1.68 1.2-3.67 1.75-5.4 2.84-.96.61-.67 2.43.63 2.31 1.85-.17 3.52-1.02 5.24-1.69s3.48-1.43 5.11-2.43c3.36-2.05 6.19-4.75 8.42-7.99 5.24-7.64 4.75-16.91 4.42-25.76l-.31-8.21c-.11-2.91-.42-5.81-.48-8.71-.04-2.04-3.17-2.05-3.17 0Z"/><path d="M117.87 67.4c1.11-.2 1.66-.34 2.61-.07.39.11.06-.02.33.13.06.03.65.41.4.23.37.28.69.64.98 1s.99 1.65 1.2 2.17c.4.99.69 2.03.91 3.08s.28 1.44.34 2.53c.07 1.34-.03 2.69-.45 3.97-1.04 3.14-4.35 4.04-6.74 5.86-.72.55-1.14 1.37-.74 2.27.35.8 1.27 1.33 2.15 1.05 2.9-.92 5.87-2.72 7.73-5.17 1.79-2.36 2.29-5.46 2.07-8.36-.32-4.07-1.58-8.98-5.07-11.48-2.21-1.59-5.08-1.42-7.2.25-1.33 1.04.17 2.78 1.48 2.55Zm-10.63 56.19c.28-4.98.33-9.97.35-14.96.01-2.41-3.76-2.42-3.75 0 .02 4.99.07 9.98.35 14.96.11 1.96 2.94 1.96 3.05 0"/><path d="M106.8 124.87c6.09 1.58 12.12 3.62 18.13 5.5 5.93 1.86 11.88 3.75 17.64 6.07 2.37.96 4.77 2.14 6.65 3.89 1.83 1.7 3.15 3.79 4.26 6 1.88 3.75 3.11 7.64 3.99 11.73.93 4.33 1.45 8.91 3.43 12.92 1.01 2.05 4.13.59 3.6-1.52-.44-1.75-.62-3.59-.96-5.36-.42-2.18-.79-4.37-1.19-6.55-.82-4.46-2.13-8.54-4.05-12.67-2.39-5.15-5.92-9.32-11.11-11.78-5.71-2.71-11.98-4.58-18.05-6.32-3.53-1.02-7.08-1.98-10.66-2.82-3.58-.85-7.22-1.49-10.8-2.34-2.1-.5-2.99 2.69-.89 3.24Zm12.43-50.52c-.97.29-1.83.81-2.58 1.49-.37.34-.69.73-.97 1.14-.12.17-.23.35-.32.53-.13.27-.28.56-.33.86-.05.35-.07.7.13 1.01.16.24.36.42.63.54.57.24 1.34.05 1.64-.54.13-.26.22-.53.34-.8l-.13.32c.06-.13.11-.27.17-.41l-.13.32c.17-.4.39-.77.65-1.11l-.2.26c.24-.3.5-.58.81-.82l-.25.19c.33-.25.69-.46 1.07-.63l-.29.12c.13-.06.27-.11.4-.15.3-.1.56-.28.72-.56.15-.26.22-.64.12-.93-.2-.61-.84-1.04-1.49-.85Zm-31.28-3.23c-.13 3.08 0 6.15.05 9.23s-.12 6.18.21 9.24c.21 1.96 2.8 1.94 3.03 0 .37-3.11.14-6.3.03-9.42-.11-3.15-.26-6.28-.74-9.4-.23-1.52-2.52-1.06-2.58.35m-3.74 25.57c1.99 1.2 4.26 1.79 6.58 1.78 1.12 0 2.27-.14 3.35-.43 1.15-.31 2.5-.76 3.39-1.58 1.13-1.04-.05-2.98-1.49-2.56-.43.13-1.06.47-1.34.59-.45.19-.93.34-1.4.46-.93.25-1.57.35-2.5.38a10.9 10.9 0 0 1-5.14-1.11c-.69-.34-1.55-.19-1.96.51-.4.68-.15 1.56.51 1.96m17.22-55.03c-2.94-2.83-7.55-3.76-11.35-2.31-3.81 1.45-6.62 5.22-6.94 9.28-.14 1.76.15 3.63-.6 5.23-.8 1.71-2.59 2.72-4.34 3.44-2.5 1.03-5.14 1.71-7.82 2.02-1.9.22-3.92.28-5.55 1.28s-2.6 3.4-1.38 4.87c-.92.67-2.31.21-3.02-.68s-.91-2.08-1.08-3.2c-.8-5.22-1.45-10.53-.82-15.78 1.21-9.98 8.49-16.65 17.94-19.08 7.71-1.98 23.88-3.4 26.96 6.42 3.3-4.46 10.93-3.01 14.25 1.43s3.46 10.45 3.1 15.98c-.31 4.7-1 9.7-4.07 13.27-1.07-8.32-9.29-13.71-12.93-21.26"/><path d="M102.47 40.61c-2.82-2.62-6.64-4.11-10.5-3.62-3.88.49-7.24 2.82-9.18 6.21-.96 1.67-1.51 3.51-1.67 5.42-.15 1.78.32 3.93-1.12 5.28-1.44 1.36-3.68 1.99-5.54 2.52-2.12.6-4.25.81-6.42 1.09-2.31.3-4.57.99-6.02 2.94-1.28 1.73-1.68 4.23-.34 6.05.24-.93.49-1.86.73-2.78-.18.11-.47-.18-.66-.57-.25-.51-.33-1.16-.43-1.71-.32-1.84-.57-3.71-.76-5.57-.35-3.38-.52-6.86-.03-10.24.71-4.92 3.23-9.3 7.08-12.43 3.54-2.87 7.89-4.37 12.31-5.18 3.92-.72 8.07-1.01 12.03-.47 3.91.54 8.22 2.09 9.57 6.12.58 1.73 2.57 1.8 3.59.47 1.68-2.19 4.99-2.03 7.31-1.14 3.14 1.21 4.94 4.02 5.81 7.16 1.03 3.74.86 7.74.55 11.58s-.97 7.78-3.44 10.74l3.2.84c-1.23-8.84-9.33-14.13-13.08-21.74-1.12-2.27-4.52-.28-3.4 1.99 1.89 3.82 4.76 7.01 7.41 10.31 2.49 3.1 4.8 6.43 5.38 10.46.2 1.39 2.34 1.88 3.2.84 2.43-2.93 3.63-6.44 4.17-10.17.53-3.7.79-7.54.47-11.27-.57-6.84-3.94-13.79-11.33-15.05-3.41-.58-7.11.23-9.33 3.07l3.29.87c-3.36-10.37-17.11-10.05-25.83-8.57-5.46.93-10.68 2.93-14.95 6.53-4.72 3.98-7.42 9.62-8.07 15.7-.5 4.65.01 9.32.66 13.93.29 2.06.43 4.36 1.87 6 1.37 1.57 3.64 2.05 5.47 1.02.9-.51 1.35-1.89.73-2.78s.21-1.85 1.03-2.26c1.54-.76 3.47-.7 5.14-.94 3.55-.49 7.6-1.49 10.53-3.65 1.47-1.09 2.57-2.54 2.96-4.35.37-1.71.07-3.45.35-5.16.49-3 2.57-5.63 5.32-6.89 3.17-1.46 7.29-.87 9.84 1.5 1.39 1.29 3.49-.79 2.09-2.09ZM61.59 89.36c.12 4.7-3.13 8.8-4.14 13.4-1.8 8.15 3.58 16.85.98 24.78-.66 2.02-1.81 3.84-2.53 5.84s-.98 4.34.12 6.16c.87 1.45 2.56 2.54 2.65 4.23.09 1.65-1.45 3.16-1.05 4.75.31 1.24 1.65 1.9 2.86 2.33a35.8 35.8 0 0 0 12.64 2.02c1.36-.03 2.89-.22 3.71-1.31.52-.69.63-1.58.73-2.44 1.06-9.36 1.96-18.91.02-28.12a46.46 46.46 0 0 0-10.09-20.49c-2.03-2.38-4.47-5.09-3.89-8.16"/><path d="M60.1 89.36c-.28 4.9-3.83 8.89-4.68 13.67-.85 4.84.34 9.6 1.15 14.36.39 2.31.7 4.7.42 7.04-.3 2.49-1.55 4.55-2.53 6.8-1.05 2.38-1.77 5.02-1.06 7.62.32 1.16.94 2.13 1.69 3.05.4.49 1.27 1.19 1.4 1.86.16.78-.66 1.91-.88 2.65-.38 1.28-.3 2.66.38 3.83 1.25 2.13 4.1 2.85 6.32 3.45 2.62.71 5.34 1.14 8.05 1.29 2.31.13 5.1.3 7.09-1.09 2.32-1.62 2.25-4.62 2.52-7.16.3-2.79.56-5.58.72-8.38.32-5.67.18-11.39-.9-16.98s-3.18-10.95-6.12-15.79a42 42 0 0 0-4.94-6.61c-1.7-1.86-3.84-3.9-3.54-6.63.2-1.78-2.81-2.19-3.15-.43-.91 4.72 2.8 8.26 5.38 11.74 2.73 3.68 4.97 7.71 6.49 12.04 3.46 9.86 2.91 20.33 1.8 30.56-.12 1.12-.16 2.29-.41 3.39-.19.83-.69.93-1.51 1.02-2.34.25-4.89-.04-7.2-.46q-1.695-.3-3.36-.78c-.93-.26-2.58-.5-3.29-1.24-.42-.44-.04-.93.17-1.46.41-1.02.78-2.02.7-3.14-.16-2.28-1.87-3.35-2.93-5.16s-.06-4.29.76-6.07c1.03-2.25 2.04-4.41 2.37-6.88.31-2.27.18-4.51-.13-6.77-.66-4.81-2.41-9.76-1.72-14.66.72-5.09 4.28-9.39 3.91-14.71-.13-1.91-2.87-1.93-2.98 0Zm45.44 19.96c-3.96 12.09-4.69 25.22-2.1 37.68.2.98.45 2 1.11 2.75.85.98 2.21 1.32 3.5 1.49 4.05.53 8.25-.16 11.92-1.95.68-.33 1.37-.73 1.77-1.37.82-1.31.12-3 .03-4.54-.23-4.31 4.51-8.09 3.33-12.24-.55-1.94-2.27-3.28-3.37-4.96-2.5-3.83-1.58-8.83-1.29-13.39.53-8.43-1.46-16.8-3.53-24.99-.1 7.94-3.8 15.77-9.87 20.9"/><path d="M104 108.9c-3.14 8.58-4.33 17.83-3.91 26.94.1 2.24.32 4.47.62 6.69s.52 4.42 1.23 6.45c1.48 4.23 6.39 4.62 10.25 4.37 2.21-.14 4.42-.58 6.5-1.35 1.85-.69 4.01-1.51 4.95-3.39.99-1.98-.03-3.85.14-5.88.13-1.55.98-2.99 1.67-4.35 1.66-3.28 2.77-6.76.48-10.07-1.07-1.54-2.53-2.81-3.21-4.6-.67-1.77-.71-3.7-.63-5.57.09-2.42.42-4.82.46-7.24.05-2.63-.16-5.26-.51-7.87-.71-5.32-1.99-10.53-3.32-15.71-.53-2.07-3.65-1.6-3.68.5-.12 7.55-3.61 14.67-9.33 19.56-1.85 1.58.84 4.26 2.67 2.67 6.44-5.55 10.19-13.76 10.41-22.23-1.23.17-2.45.33-3.68.5 2.06 8.31 3.89 16.69 3.26 25.3-.27 3.63-.8 7.46.4 10.99.59 1.72 1.55 3.14 2.71 4.52.92 1.1 1.95 2.23 1.8 3.77-.27 2.91-2.61 5.33-3.25 8.18-.4 1.8.05 3.29.12 5.07.06 1.53-2.56 2.08-3.74 2.44-1.86.57-3.78.87-5.72.87-1.31 0-3.62.12-4.62-.94-.48-.51-.59-1.36-.73-2.02-.23-1.05-.42-2.11-.59-3.16-.32-1.95-.54-3.91-.69-5.88-.71-9.36.49-18.69 3.05-27.7.57-2-2.38-2.75-3.07-.85Zm-60.57 21.35c.32 6.85-.18 13.81-1.33 20.56a90 90 0 0 1-2.26 9.85c-.47 1.62-.99 3.22-1.55 4.81-.6 1.7-1.49 3.42-1.66 5.23-.13 1.43 1.98 2.3 2.91 1.2 1.17-1.39 1.72-3.28 2.33-4.97a88 88 0 0 0 3.95-15.34c1.16-7.1 1.29-14.19.6-21.34-.18-1.87-3.06-1.94-2.97 0Z"/><path d="M72.91 144.16c1.74 10.56 8.73 18.33 16.36 25.31.59.54 1.59.77 2.3.3 4.5-2.99 7.94-7.14 10.62-11.8 1.35-2.34 2.5-4.78 3.54-7.27 1.02-2.43 2.34-5.07 2.73-7.69.26-1.77-1.96-2.98-3.03-1.28-1.32 2.11-1.99 4.67-2.97 6.95s-2.08 4.62-3.32 6.83c-2.39 4.25-5.45 8.16-9.48 10.97l2.3.3c-7.18-5.97-14.52-13.89-16.18-23.42-.33-1.88-3.17-1.08-2.86.79Zm61.19-13.9c-.7 6.44-.53 12.97.06 19.41.55 6.03 1.2 12.4 3.88 17.92.91 1.87 4.19.53 3.4-1.43-2.24-5.55-3.1-11.28-3.62-17.21-.54-6.22-.68-12.45-.89-18.69-.06-1.86-2.63-1.78-2.83 0"/><path d="M65.53 152.26c.22 4.58 2.04 8.95 5.15 12.33 3.35 3.65 7.86 5.61 12.72 6.21 2.72.34 5.47.29 8.21.18 2.62-.1 5.26-.2 7.86-.65 5.1-.88 9.04-3.69 12.13-7.76 1.71-2.26 3.05-4.75 4.35-7.27 1.43-2.75 2.93-5.41 4.61-8.01 1.05-1.62-1.47-3.65-2.72-2.1-5.45 6.7-7.27 17.98-16.34 21.12-2.26.78-4.65 1-7.02 1.13-2.43.13-4.87.25-7.31.2-4.47-.09-9.04-.92-12.57-3.86-3.44-2.86-5.77-7.04-6.12-11.51-.15-1.86-3.03-1.91-2.94 0Zm16.81-86.54c-3.69-1.05-9.21-2.14-12.22 1.01-1.42 1.49-1.84 3.5-2.09 5.47-.23 1.83-.38 3.69-.15 5.53.26 2.03 1.02 3.98 2.55 5.4 1.37 1.27 3.13 2.03 4.95 2.39s3.6.45 5.41.46c1.86.01 3.75-.15 5.35-1.2 2.06-1.36 2.73-3.58 3.13-5.89.46-2.64.61-5.3.43-7.97-.15-2.16-3.52-2.19-3.39 0 .1 1.83.07 3.66-.15 5.47-.17 1.45-.32 3.36-1.15 4.61-.65.99-1.92 1.09-3.01 1.14-1.45.07-2.94 0-4.38-.15-2.36-.25-4.95-1.07-5.72-3.57-.42-1.38-.39-2.85-.29-4.27.09-1.33.14-2.82.68-4.05.6-1.37 1.97-1.71 3.35-1.81 1.99-.14 3.95-.04 5.91.34 1.89.37 2.7-2.38.81-2.92Z"/><path d="M80.07 76.46c2.06 0 2.06-3.2 0-3.2s-2.06 3.2 0 3.2m18.21-7.81c1.72-.34 3.46-.47 5.2-.38 1.21.06 2.72.11 3.59 1.1.81.92.92 2.37 1.04 3.53.14 1.47.3 3.01.07 4.47-.44 2.85-2.5 4.06-5.16 4.53-1.31.23-2.66.26-3.99.28-1.1.02-2.69.1-3.64-.55-1.27-.87-1.41-3.11-1.62-4.49-.32-2.05-.36-4.14-.25-6.2.12-2.19-3.24-2.16-3.39 0-.16 2.33-.06 4.64.27 6.96.29 2.07.66 4.39 2.14 5.98 2.53 2.7 6.99 2.33 10.34 1.91 3.96-.5 7.61-2.33 8.76-6.45.52-1.85.47-3.83.3-5.73-.18-1.91-.36-3.92-1.32-5.62-2.56-4.54-9-3.43-13.14-2.25-1.89.54-1.09 3.29.81 2.92Z"/><path d="M99.75 76.46c2.06 0 2.06-3.2 0-3.2s-2.06 3.2 0 3.2m-27.09-13.5c1.85-1.17 3.86-2.01 5.98-2.56a19.8 19.8 0 0 1 4.69-.63c.73 0 1.48.11 2.11-.34.77-.55 1.19-1.81.33-2.53-.72-.6-1.43-.65-2.33-.63-.58.01-1.16.05-1.73.11-1.31.14-2.6.38-3.86.76-2.4.71-4.63 1.88-6.62 3.39-.6.46-.92 1.21-.5 1.92.37.64 1.28.91 1.92.5Zm35.92-7.55c-1.85-1.14-3.85-1.9-5.99-2.34a21.4 21.4 0 0 0-3.3-.43c-1.31-.06-2.84-.22-3.87.71-.88.79-.55 2.19.36 2.77.97.62 2.41.28 3.52.3.94.02 1.88.07 2.81.2-.21-.03.35.06.42.07.23.04.47.08.7.13q.69.135 1.38.33c.97.26 1.95.5 2.9.82 1.54.52 2.39-1.75 1.08-2.56ZM64.21 70.07c.43.19.85.38 1.3.52l.97.31c.78.25 1.57.57 2.39.63l.43-.06c.21-.05.4-.15.55-.29.27-.21.5-.5.58-.84.07-.29.07-.58 0-.86-.08-.36-.41-.8-.75-.97-.73-.36-1.57-.49-2.36-.67l-.99-.23c-.46-.11-.93-.16-1.39-.22l-.38.05c-.19.04-.35.13-.49.26-.24.18-.45.45-.52.75-.06.25-.06.51 0 .76.07.31.37.73.66.86m52.16-3.97c-.88.26-1.72.63-2.54 1.04-.36.18-.71.36-1.06.56s-.7.45-1.06.62l.41-.17s-.1.03-.14.04c-1.2.34-1.68 1.8-.92 2.78.34.44.83.7 1.39.7q.48 0 .9-.24c.27-.16.48-.37.64-.64l.09-.12-.27.35.06-.05-.35.27c1.28-.92 2.65-1.64 4.01-2.41.65-.37.89-1.19.61-1.86s-1.04-1.07-1.76-.86Z"/></svg>