<?xml version="1.0" encoding="UTF-8"?><svg xmlns="http://www.w3.org/2000/svg" viewBox="0 0 180 180"><path d="M120.01 52.06c-14.22-2.36-28.62-3.57-43.03-3.36-7.12.1-14.24.56-21.32 1.32-6.86.74-13.82 1.58-20.54 3.19-5.79 1.39-11.5 3.76-15.66 8.15-3.79 4.01-6.02 9.18-7.36 14.47-1.41 5.57-1.94 11.32-2.71 17-.91 6.76-2.26 13.6-1.43 20.44.72 5.85 2.91 11.81 7.46 15.78 4.34 3.8 9.99 5.33 15.68 5.38 5.9.05 11.65-1.41 17.23-3.19 6.35-2.03 12.79-4.49 19.53-4.67 6.78-.19 13.1 2.64 19.44 4.69 6.02 1.95 12.09 3.87 18.33 5 5.91 1.08 12 1.51 17.83-.25 5.38-1.62 10.29-4.83 13.84-9.19 1.97-2.42 3.5-5.02 4.46-7.99.98-3 1.38-6.15 1.76-9.27.89-7.26 1.74-14.53 2.61-21.79.77-6.41 2.28-13.35.63-19.74-1.48-5.72-5.87-9.68-11.09-12.08-2.55-1.17-5.19-2-7.86-2.87s-3.78 3.3-1.15 4.16c4.58 1.5 9.67 3.36 13 7.01 3.85 4.23 3.35 10.35 2.75 15.62-.77 6.83-1.63 13.65-2.45 20.48-.4 3.35-.78 6.7-1.21 10.05-.36 2.83-.85 5.7-1.9 8.37-1.86 4.7-5.9 8.58-10.28 10.95-4.62 2.49-9.73 3.14-14.9 2.71-5.96-.49-11.81-2.12-17.51-3.85-2.79-.85-5.57-1.74-8.35-2.65-3.12-1.02-6.19-2.2-9.38-2.97-6.42-1.56-12.85-.89-19.18.79-5.93 1.58-11.65 3.94-17.66 5.22-4.94 1.06-10.25 1.45-15.15-.03-4.88-1.47-8.59-5.09-10.41-9.83-2.17-5.67-1.95-11.77-1.23-17.71s1.47-11.56 2.36-17.31c.77-5.01 1.8-10.17 4.2-14.68 2.46-4.64 6.32-7.99 11.18-9.96 5.55-2.25 11.63-3.15 17.52-4.05 6.69-1.03 13.43-1.75 20.18-2.19 13.55-.88 27.24-.73 40.75.68 3.4.35 6.78.79 10.16 1.3.87.13 1.74-.22 2-1.13.22-.78-.27-1.86-1.13-2Z"/><path d="M125.95 56.87c4.15 3.07 2.84 9.91 2.28 14.24-.96 7.4-1.91 14.8-2.78 22.21-.5 4.26-.38 8.59-1.06 12.83-.65 4.08-1.96 8.54-5.93 10.54-4.97 2.5-11.39.83-16.43-.57-6.04-1.67-12-3.59-18.13-4.96-12.29-2.74-24.78-3.25-36.94.39-7.27 2.18-13.91 6.19-21.3 7.98-3.98.96-11.43 1.01-12.66-4.12-.56-2.32-3.87-1.29-3.51.97.87 5.45 7.14 7.55 11.95 7.6 6.8.07 13.27-3.57 19.38-6.11 6.28-2.61 12.91-4.44 19.71-4.96s13.02.11 19.41 1.37c6.65 1.31 13.12 3.27 19.62 5.16 5.8 1.68 12.41 3.37 18.39 1.57 10.84-3.27 10.48-16.15 11.13-25.32.27-3.76.85-7.51 1.3-11.25.52-4.28 1.02-8.55 1.51-12.83.68-5.91 1.48-13.72-4.42-17.34-1.69-1.04-3.04 1.48-1.52 2.6"/><path d="M118.2 119.57c2.13 2.3 4.43 4.43 6.88 6.38 1 .8 2.07 1.58 3.31 1.89 2 .49 4.16-.38 5.66-1.8 1.49-1.42 2.43-3.33 3.2-5.25 3.17-7.91 3.97-16.54 4.74-25.02l2.07-22.82c.17-1.88.33-3.82-.25-5.61-.75-2.3-2.67-4.07-4.82-5.18s-4.55-1.63-6.91-2.14c.89 6.85.14 13.79-.6 20.65l-1.41 13.05c-1 9.24-2.18 18.95-7.63 26.49"/><path d="M117.09 120.68c2.12 2.5 4.46 4.79 7.04 6.83 2.58 2.03 5.43 3 8.59 1.62 2.85-1.25 4.63-3.86 5.84-6.63 1.33-3.04 2.29-6.24 3.01-9.48 1.47-6.65 1.97-13.47 2.58-20.24.65-7.11 1.51-14.24 1.93-21.37.2-3.52-.78-6.77-3.51-9.13-2.82-2.44-6.42-3.38-9.98-4.17-1.11-.25-2.65.55-2.49 1.9 1.01 8.5-.22 17.04-1.14 25.49-.82 7.6-1.29 15.38-3.28 22.78-1.05 3.91-2.62 7.61-4.97 10.92-.62.88-.15 2.22.71 2.73 1 .58 2.1.16 2.73-.71 4.41-6.19 6.13-13.72 7.14-21.13 1.13-8.31 2-16.71 2.75-25.06.45-4.99.65-10.02 0-15l-2.49 1.9c2.73.58 5.63 1.13 7.95 2.8 2.16 1.56 2.9 3.67 2.8 6.27-.12 3.14-.53 6.28-.81 9.41s-.57 6.28-.85 9.43c-.53 5.91-.93 11.86-1.86 17.73-.47 2.92-1.07 5.83-1.92 8.66-.76 2.55-1.62 5.32-3.22 7.48-.77 1.04-1.81 1.94-3.08 2.29-1.48.41-2.69-.22-3.87-1.08-2.62-1.92-5.05-4.18-7.37-6.44-1.47-1.43-3.51.7-2.22 2.22Z"/><path d="M142.51 84.58c13.02 3.29 23.51 14.05 25.17 27.58 1.54 12.56-4.95 24.41-14.42 32.27-10.59 8.79-24.79 12.06-38.25 12.64-13.91.6-27.91-1.29-41.24-5.27a129.2 129.2 0 0 1-41.46-21.14c-.94-.72-2.45-.15-2.99.78-.66 1.13-.16 2.27.78 2.99 11.69 8.92 24.89 15.79 38.85 20.4 14.02 4.62 28.9 6.94 43.66 6.62 14.52-.32 29.81-3.41 41.6-12.37 10.54-8.01 18.34-20.42 17.86-34.01-.51-14.28-9.91-27.8-23.79-32.03-1.65-.5-3.33-.87-5.04-1.12s-2.49 2.21-.73 2.65Z"/><path d="M135.21 110.43c6.04 2.12 13.46 4.67 15.19 11.61 1.69 6.79-1.33 14.14-6.36 18.71-5.71 5.19-13.62 7.81-20.93 9.8-8.36 2.28-16.93 3.35-25.58 3.45-4.82.05-9.62-.28-14.4-.85-4.87-.58-9.56-1.94-14.3-3.12-2.15-.54-2.95 2.55-.91 3.28 4.38 1.57 9.04 2.4 13.62 3.17 4.62.79 9.27 1.26 13.96 1.38 9.33.25 18.76-.92 27.79-3.29 8.12-2.13 16.67-5.07 23.08-10.69 5.98-5.24 9.23-13.34 8.05-21.26-.65-4.38-3.06-8.1-6.73-10.56s-7.66-3.34-11.65-4.63c-1.91-.62-2.68 2.33-.82 2.98Z"/><path d="M153 87.62c-.44 4.51-.79 9.01-1.59 13.47s-1.92 8.82-3.33 13.11c-.72 2.2 2.77 3.16 3.47.96 2.75-8.76 4.73-18.31 4.4-27.53-.07-1.93-2.77-1.87-2.95 0Zm6.04 25.67c.54-.54 1.04-1.11 1.51-1.71.53-.67 1.06-1.36 1.48-2.1.35-.63.17-1.54-.5-1.89s-1.48-.16-1.89.5c-.53.86-1.05 1.71-1.67 2.52l.21-.27c-.3.39-.62.77-.95 1.14-.23.25-.38.56-.38.91 0 .31.14.69.38.91.51.47 1.31.51 1.81 0Zm2.09 6c.6-.47 1.21-.92 1.79-1.42l.85-.73c.43-.37.92-.77 1.07-1.34.12-.44.02-.87-.25-1.23-.25-.32-.67-.6-1.1-.55-.29.03-.59.07-.84.23-.08.05-.16.12-.24.18-.24.17-.47.36-.7.55l-.89.74c-.59.49-1.15 1.02-1.72 1.53-.27.24-.42.67-.42 1.02s.16.78.42 1.02.64.44 1.02.42l.38-.05c.24-.07.46-.19.64-.37Zm.01 6.73h.11c.14-.01.29-.04.43-.06.02 0 .04 0 .05-.01.03 0 .07-.02.1-.03.07-.03.15-.06.22-.09s.15-.06.22-.09c.03-.02.06-.03.09-.05.13-.09.25-.19.37-.29.01-.01.03-.02.04-.04l.22-.29s0-.03.01-.04c.05-.12.11-.25.16-.37 0-.02.01-.04.02-.05l.05-.37-.05-.37-.14-.33q-.135-.24-.36-.39a.75.75 0 0 0-.31-.18.7.7 0 0 0-.35-.09.8.8 0 0 0-.37 0c-.18 0-.36.06-.51.16-.03.01-.05.03-.08.04l.34-.14-.21.09c-.22.09-.14.04-.33.19-.05.04-.11.08-.16.13l.29-.22c-.06.04-.12.08-.18.11l.35-.15c-.07.03-.15.05-.23.06l.39-.05h-.21c-.2 0-.39.03-.57.13-.18.06-.34.16-.47.3-.14.13-.24.29-.3.47-.09.18-.13.36-.13.57l.05.39c.07.25.2.46.38.65l.3.23c.23.13.48.2.74.2Zm-106.4 1.94c14.98 17.25 38.05 27.17 60.88 26.16-8.64 1.52-17.44 2.79-26.17 1.91-8.62-.88-16.87-3.83-25.02-6.77-5.1-1.83-10.25-3.69-14.78-6.66-1.53-1-2.97-2.12-4.47-3.17-2.32-1.63-4.75-3.1-7.27-4.39 5.45-.75 11.17-1.61 15.57-4.92"/><path d="M53.66 129.04c11.2 14.09 28.84 23.26 46.51 25.86 5.09.75 10.31.74 15.45.83v-3.21c-5.48.72-10.92 1.64-16.45 1.88-5.45.23-10.84-.19-16.17-1.4-5.23-1.19-10.33-2.87-15.38-4.67-4.76-1.7-9.61-3.31-14.07-5.7-2.55-1.37-4.83-3.09-7.18-4.77q-3.555-2.55-7.44-4.56c-.16 1.24-.33 2.49-.49 3.73 5.59-.76 11.41-1.67 16.07-5.1.9-.66 1.35-1.8.74-2.83-.52-.89-1.92-1.4-2.83-.74-4.39 3.2-9.82 3.99-15.07 4.74-1.75.25-1.95 2.98-.49 3.73 2.32 1.19 4.58 2.51 6.74 3.98s4.28 3.13 6.57 4.47c4.58 2.68 9.64 4.44 14.61 6.22 5.19 1.86 10.4 3.75 15.78 5s10.88 1.84 16.41 1.67c6.39-.2 12.83-1.11 19.07-2.48 1.74-.38 1.39-3.33-.43-3.15-4.39.44-8.64.05-12.97-.68s-8.54-1.67-12.69-3.03c-8.32-2.73-16.19-6.77-23.19-12.03-3.93-2.96-7.55-6.35-10.95-9.9-1.39-1.45-3.34.66-2.15 2.15Zm74.13-72.91c1.23-1.13 1.86-2.92 2.62-4.38s1.56-2.99 2.37-4.48c1.61-2.98 3.43-5.83 5.27-8.67.65-1.01.2-2.45-.8-3.04-1.07-.63-2.39-.22-3.04.8-1.86 2.9-3.67 5.81-5.22 8.9a69 69 0 0 0-2.17 4.8c-.65 1.57-1.59 3.27-1.63 5-.03 1.37 1.66 1.94 2.6 1.08Z"/><path d="M136.58 34.73c-1.1-1.47-2.49-2.77-3.5-4.29-.91-1.37.24-2.59 1.03-3.75.87-1.28 1.98-3.01 3.45-3.68 1.42-.64 3.05.19 4.37.72 2.72 1.08 5.62 2.05 7.66 4.24.35.37 1.05 1.02 1.14 1.54 0 .02.04.16.03.02 0-.17-.12.2-.15.23-.19.28-.34.58-.49.88-.6 1.28-.96 2.69-1.62 3.94-.24.47-.59 1.06-1.06 1.33-.71.41-2.03.2-2.8.2-2.46.01-4.69-.07-7.11-.58-2.44-.51-2.99 3.1-.46 3.41 2.66.32 5.34.78 8 1.02 1.19.1 2.4.23 3.56-.14 1.12-.36 2-1.13 2.72-2.04 1.15-1.45 1.58-3.26 2.31-4.92.36-.81.94-1.52 1.14-2.4.31-1.34-.12-2.61-.88-3.71-2.46-3.58-6.19-5.22-10.09-6.76-2.23-.88-4.5-1.84-6.94-1.21-2.32.6-3.95 2.47-5.36 4.29-1.59 2.07-3.71 4.81-2.84 7.59.37 1.18 1.26 2.17 2.11 3.02a48 48 0 0 0 3.26 2.98c.62.51 1.43.64 2.09.12.57-.44.89-1.42.41-2.06Z"/><path d="M133.16 30.68c1.43.18 2.84.63 4.21 1.07 1.27.41 2.54.85 3.77 1.38 2.07.89 4.18 2.07 5.37 4.06 1.03 1.72 3.79.1 2.68-1.57-1.65-2.48-4.08-3.98-6.79-5.08-2.95-1.21-6.06-2.13-9.25-2.32-.67-.04-1.23.6-1.23 1.23 0 .74.57 1.15 1.23 1.23ZM46.29 68.62c-1.94.24-4.07.54-5.71 1.69a8.16 8.16 0 0 0-3.19 4.6c-.81 3.05.2 6.18 2.31 8.45 2 2.15 5.01 3.53 7.96 3.43 3.51-.11 6.67-2.31 8.1-5.51 1.05-2.34 1.32-4.96.62-7.45-.76-2.74-2.91-4.78-5.88-4.35-.82.12-1.32 1.11-1.21 1.85s.81 1.53 1.66 1.46c.54-.04.83.06 1.21.56.46.6.66 1.38.77 2.15.19 1.3 0 2.95-.6 4.17-.33.67-.59 1.07-1.01 1.53-.19.21-.4.41-.61.6-.04.04-.48.36-.13.11-.15.11-.3.21-.46.31-.24.15-.5.28-.75.4.4-.19-.26.09-.39.13-.24.07-.48.12-.72.18-.48.12.41-.02-.08.02l-.44.03H47c-.15 0-.29-.02-.44-.04.46.04.11.02 0 0-.56-.12-1.1-.27-1.64-.47.45.17-.26-.13-.36-.18a8 8 0 0 1-1.02-.62s-.41-.29-.17-.11-.15-.12-.16-.13c-.13-.11-.26-.23-.39-.35-.2-.19-.39-.38-.57-.59-.07-.07-.13-.15-.19-.22-.32-.37.21.33-.06-.08-.29-.45-.56-.9-.8-1.39.21.44-.07-.22-.12-.36-.09-.28-.14-.56-.2-.85-.02-.1-.02-.35 0 .07-.01-.15-.03-.29-.03-.44q-.015-.45.03-.9c-.03.42-.02.08 0-.03.04-.18.07-.36.12-.54.08-.31.19-.63.31-.93-.15.37.08-.16.1-.19.08-.16.17-.32.26-.47.2-.33.31-.47.62-.76 1.09-1.04 2.81-1.62 4.35-2 1.51-.37 1.23-2.98-.38-2.78Z"/><path d="M48.83 83c-2.26-.9-4.19-2.97-4.28-5.4-.06-1.88.99-3.67 2.48-4.82 1-.77 2.24-1.29 3.49-1.21 1.26.08 2.51.86 2.92 2.05.13.39.18.8.22 1.2.17 1.63.28 3.37-.47 4.83-.61 1.19-1.72 2.04-2.79 2.84"/><path d="M49.5 81.85c-1.38-.69-2.5-1.68-3.11-3.07-.18-.41-.31-1.27-.24-1.7.13-.86.39-1.39.92-2.08-.11.15.07-.08.08-.09.08-.09.16-.18.24-.26.14-.15.29-.29.45-.43.26-.22.57-.4.97-.63.23-.13.64-.26 1.03-.34-.2.04.09-.01.12-.01h.28c.04 0 .43.02.22 0-.17-.02.26.06.26.06.08.02.16.05.24.07.26.08-.19-.1.06.02.17.09.34.18.49.3-.2-.15.15.18.2.23.13.15 0 0-.02-.02 0 0 .2.38.14.23.09.23.12.61.16 1 .05.53.08 1.06.08 1.59 0 1.05-.11 1.68-.64 2.54-.01.02-.19.26-.05.09-.07.09-.16.18-.24.27-.16.18-.34.35-.52.51-.2.19-.42.36-.63.54-.26.21-.14.11-.45.35-.74.56-1.13 1.49-.62 2.36.43.73 1.61 1.18 2.36.62 1.08-.81 2.11-1.61 2.92-2.7.84-1.13 1.21-2.49 1.3-3.89.08-1.26-.02-2.71-.33-3.94s-1.22-2.35-2.37-2.94c-2.55-1.3-5.49-.34-7.45 1.57-1.81 1.75-2.78 4.33-2.19 6.83.62 2.64 2.83 4.55 5.33 5.37 1.42.47 2.39-1.76 1.03-2.44Zm37.59-14.71c-1.94.24-4.07.54-5.71 1.69a8.16 8.16 0 0 0-3.19 4.6c-.81 3.05.2 6.18 2.31 8.45 2 2.15 5.01 3.53 7.96 3.43 3.51-.11 6.67-2.31 8.1-5.51 1.05-2.34 1.32-4.96.62-7.45-.76-2.74-2.91-4.78-5.88-4.35-.82.12-1.32 1.11-1.21 1.85.12.77.81 1.53 1.66 1.46.54-.04.83.06 1.21.56.46.6.66 1.38.77 2.15.19 1.3 0 2.95-.6 4.17-.33.67-.59 1.07-1.01 1.53-.19.21-.4.41-.61.6-.04.04-.48.36-.13.11-.15.11-.3.21-.46.31-.24.15-.5.28-.75.4.4-.19-.26.09-.39.13-.24.07-.48.12-.72.18-.48.12.41-.02-.08.02l-.44.03h-.74c-.15 0-.29-.02-.44-.04.46.04.11.02 0 0-.56-.12-1.1-.27-1.64-.47.45.17-.26-.13-.36-.18a8 8 0 0 1-1.02-.62s-.41-.29-.17-.11-.15-.12-.16-.13c-.13-.11-.26-.23-.39-.35-.2-.19-.39-.38-.57-.59-.07-.07-.13-.15-.19-.22-.32-.37.21.33-.06-.08-.29-.45-.56-.9-.8-1.39.21.44-.07-.22-.12-.36-.09-.28-.14-.56-.2-.85-.02-.1-.02-.35 0 .07-.01-.15-.03-.29-.03-.44q-.015-.45.03-.9c-.03.42-.02.08 0-.03.04-.18.07-.36.12-.54.08-.31.19-.63.31-.93-.15.37.08-.16.1-.19.08-.16.17-.32.26-.47.2-.33.31-.47.62-.76 1.09-1.04 2.81-1.62 4.35-2 1.51-.37 1.23-2.98-.38-2.78Z"/><path d="M89.63 81.53c-2.26-.9-4.19-2.97-4.28-5.4-.06-1.88.99-3.67 2.48-4.82 1-.77 2.24-1.29 3.49-1.21 1.26.08 2.51.86 2.92 2.05.13.39.18.8.22 1.2.17 1.63.28 3.37-.47 4.83-.61 1.19-1.72 2.04-2.79 2.84"/><path d="M90.3 80.37c-1.38-.69-2.5-1.68-3.11-3.07-.18-.41-.31-1.27-.24-1.7.13-.86.39-1.39.92-2.08-.11.15.07-.08.08-.09.08-.09.16-.18.24-.26.14-.15.29-.29.45-.43.26-.22.57-.4.97-.63.23-.13.64-.26 1.03-.34-.2.04.09-.01.12-.01h.28c.04 0 .43.02.22 0-.17-.02.26.06.26.06.08.02.16.05.24.07.26.08-.19-.1.06.02.17.09.34.18.49.3-.2-.15.15.18.2.23.13.15 0 0-.02-.02 0 0 .2.38.14.23.09.23.12.61.16 1 .05.53.08 1.06.08 1.59 0 1.05-.11 1.68-.64 2.54-.01.02-.19.26-.05.09-.07.09-.16.18-.24.27-.16.18-.34.35-.52.51-.2.19-.42.36-.63.54-.26.21-.14.11-.45.35-.74.56-1.13 1.49-.62 2.36.43.73 1.61 1.18 2.36.62 1.08-.81 2.11-1.61 2.92-2.7.84-1.13 1.21-2.49 1.3-3.89.08-1.26-.02-2.71-.33-3.94s-1.22-2.35-2.37-2.94c-2.55-1.3-5.49-.34-7.45 1.57-1.81 1.75-2.78 4.33-2.19 6.83.62 2.64 2.83 4.55 5.33 5.37 1.42.47 2.39-1.76 1.03-2.44ZM54.98 90.2c3.46 1.85 7.32 2.44 11.21 2.01 1.97-.22 3.92-.61 5.83-1.16s3.88-1.39 5.9-1.54c2.58-.19 5.33 1.42 4.56 4.02-.55 1.85-2.77 3.23-4.53 4.17-4.57 2.42-9.72 3.12-14.83 2.72-2.84-.22-5.79-.84-8.23-2.37-1.85-1.16-4.78-4.77-1.74-6.38 2.37-1.25 5.33 0 7.79.36 3.79.54 7.91.32 11.47-1.15 2.07-.85 1.29-3.65-.92-3.33-3.57.51-7.02 1.21-10.58.53-3.23-.61-6.49-1.51-9.61.1-4.1 2.11-4.07 7.39-1.41 10.63 2.18 2.66 5.58 4.14 8.88 4.85 6.12 1.31 12.92.75 18.74-1.56 2.83-1.13 5.66-2.62 7.52-5.12 1.92-2.57 2.02-6.19-.14-8.67-3.68-4.22-9.38-2.13-13.8-.68-4.64 1.52-10.13 2.35-14.7.17-1.59-.75-2.98 1.54-1.4 2.39ZM26.65 124c1.12 1.64 2.21 3.3 3.36 4.91.57.8 1.16 1.58 1.74 2.37l.87 1.18c.38.51.72 1.13 1.29 1.43 1.15.6 2.34-.39 2.1-1.61-.11-.55-.51-.97-.85-1.41l-.89-1.17c-.63-.83-1.26-1.67-1.9-2.49-1.23-1.59-2.53-3.13-3.8-4.69-.38-.47-1.18-.44-1.61-.1s-.67 1.07-.32 1.58Zm10.38-5.41c1.22 1.97 2.43 3.95 3.69 5.9s2.44 3.96 3.77 5.85c.5.71 1.4 1.04 2.19.57.73-.43 1.03-1.45.57-2.19-1.22-1.97-2.61-3.85-3.92-5.76-1.31-1.92-2.66-3.82-4-5.72-.42-.59-1.17-.87-1.83-.48-.61.36-.86 1.21-.48 1.83Zm12.01-4.76c1.35 2.21 2.68 4.43 3.98 6.66q.96 1.65 1.89 3.33c.93 1.68 1.16 2.28 2.12 3.06.68.55 1.63.66 2.3 0s.6-1.65 0-2.3c-.75-.82-1.25-1.74-1.8-2.7-.61-1.07-1.24-2.14-1.88-3.19-1.3-2.15-2.71-4.24-4.2-6.26-.45-.61-1.21-.91-1.91-.5-.64.38-.9 1.27-.5 1.91Zm14.51-1.37c2.74 4.47 5.26 9.07 7.9 13.59 1.05 1.79 3.71.21 2.77-1.62-2.42-4.65-5.32-9.06-8.31-13.36-.42-.61-1.2-.88-1.87-.49-.63.37-.88 1.24-.49 1.87Zm14.42 1.88c1.3 2.34 2.5 4.72 3.72 7.09s2.26 4.85 3.51 7.19c.38.7 1.31.97 2.02.66.67-.29 1.24-1.15.94-1.91-1.02-2.55-2.39-5-3.67-7.43-1.27-2.39-2.69-4.72-4.11-7.03-.94-1.53-3.29-.17-2.42 1.41Zm13.84 2.67c1.7 2.65 2.89 5.57 4.23 8.41.66 1.39 1.34 2.78 2.12 4.11.8 1.37 1.75 3.24 3.27 3.84 1.16.46 2.03-.85 1.85-1.85-.15-.79-.79-1.42-1.24-2.06-.41-.59-.79-1.2-1.16-1.83-.78-1.33-1.47-2.71-2.14-4.1-1.32-2.75-2.64-5.51-4.39-8.01-1.07-1.54-3.59-.13-2.55 1.49Zm14.5 4.4c1.28 2.55 2.71 5.04 4.35 7.38.84 1.2 1.73 2.35 2.68 3.47.46.54.94 1.08 1.42 1.61.63.68 1.29 1.54 2.32 1.44.7-.07 1.55-.49 1.68-1.28v-.07c.13-.76-.07-1.54-.78-1.95-.46-.26-.9-.3-1.41-.19-.68.14-1.24.91-1.21 1.59v.04c.05 1.03 1 1.86 2.05 1.56h.04c-.62-.26-1.24-.52-1.86-.77l.02.05-.23-.85v.06l.24-.87-.04.05 1.5-.86-.16-.02.89.24c.12.09-.11-.16-.11-.16-.12-.15-.26-.27-.39-.41-.21-.22-.41-.44-.62-.66-.43-.47-.86-.95-1.27-1.44-.85-1-1.7-2-2.51-3.04a54 54 0 0 1-4.25-6.3c-.88-1.54-3.15-.18-2.36 1.38Z"/></svg>