<?xml version="1.0" encoding="UTF-8"?><svg xmlns="http://www.w3.org/2000/svg" viewBox="0 0 180 180"><path d="M62.89 59.44c-.11 4.97-.53 9.96-.72 14.93-.18 4.81-.54 9.7-.11 14.51.75 8.28 4.65 15.72 11.62 20.43 1.72 1.16 3.56 2.17 5.5 2.91 1.98.75 3.97 1.81 6.1 2.01 1.3.12 1.59-1.71.63-2.31-1.45-.92-3.16-1.39-4.63-2.31s-2.81-1.94-4.1-3.01c-2.61-2.17-5.06-4.65-6.87-7.53-4.46-7.1-3.62-15.66-3.77-23.69l-.15-7.72c-.05-2.74-.3-5.48-.31-8.21 0-2.04-3.13-2.04-3.17 0Z"/><path d="M63.62 64.85c-1.91-1.5-4.38-1.8-6.55-.66-1.85.98-3.12 2.82-3.94 4.69-1.91 4.32-2.81 10.14-.45 14.46 1.68 3.06 5.21 5.24 8.46 6.27.85.27 1.82-.25 2.15-1.05.37-.91 0-1.71-.74-2.27-2.39-1.82-5.68-2.72-6.74-5.86-.43-1.28-.52-2.63-.45-3.97.05-1.09.11-1.46.34-2.53s.51-2.08.91-3.08c.11-.28.33-.75.56-1.16.14-.25.3-.5.45-.74 0 0 .36-.49.19-.27.28-.36.61-.72.98-1-.25.19.34-.19.4-.23.37-.2-.13.01.24-.1.99-.3 1.56-.15 2.7.05 1.31.23 2.81-1.5 1.48-2.55Zm14.19 58.74c.28-4.98.33-9.97.35-14.96.01-2.41-3.76-2.42-3.75 0 .02 4.99.07 9.98.35 14.96.11 1.96 2.94 1.96 3.05 0"/><path d="M74.31 121.63c-3.27.78-6.59 1.36-9.86 2.12s-6.21 1.53-9.29 2.39c-6.14 1.71-12.33 3.59-18.22 6.04-2.74 1.14-5.33 2.49-7.55 4.5-1.99 1.8-3.57 4.08-4.82 6.44-2.14 4.05-3.75 8.38-4.63 12.87-.49 2.49-.9 5-1.37 7.5-.37 1.98-.59 4.03-1.08 5.99-.52 2.09 2.58 3.59 3.6 1.52 1.75-3.54 2.3-7.49 3.09-11.32s1.82-7.79 3.48-11.53c.99-2.24 2.14-4.52 3.75-6.4 1.73-2.01 3.88-3.41 6.26-4.54 5.44-2.58 11.38-4.27 17.1-6.11 3.35-1.08 6.72-2.09 10.08-3.11s6.86-2.21 10.33-3.11c2.09-.54 1.21-3.74-.89-3.24ZM60.13 76.68c.14.04.27.09.4.15l-.29-.12c.38.16.74.38 1.07.63l-.25-.19c.3.24.57.52.81.82l-.2-.26c.26.34.48.71.65 1.11l-.13-.32c.06.14.11.27.17.41l-.13-.32c.11.27.2.54.34.8.14.27.49.54.78.6s.58.05.85-.07c.25-.11.5-.29.63-.54l.13-.31c.06-.23.06-.47 0-.7-.05-.3-.19-.59-.33-.86-.09-.19-.2-.36-.32-.53-.28-.41-.6-.81-.97-1.14a6.6 6.6 0 0 0-2.58-1.49c-.61-.18-1.35.22-1.49.85-.15.66.2 1.28.85 1.49Zm53.81-17.24c-.01 4.64-.33 9.3-.42 13.94s.01 9.13-.27 13.67c-.24 3.76-.98 7.42-2.8 10.75-1.65 3.02-3.97 5.51-6.5 7.82-1.39 1.27-2.91 2.36-4.44 3.45-1.68 1.2-3.67 1.75-5.4 2.84-.96.61-.67 2.43.63 2.31 1.85-.17 3.52-1.02 5.24-1.69s3.48-1.43 5.11-2.43c3.36-2.05 6.19-4.75 8.42-7.99 5.24-7.64 4.75-16.91 4.42-25.76l-.31-8.21c-.11-2.91-.42-5.81-.48-8.71-.04-2.04-3.17-2.05-3.17 0Z"/><path d="M117.87 67.4c1.11-.2 1.66-.34 2.61-.07.39.11.06-.02.33.13.06.03.65.41.4.23.37.28.69.64.98 1s.99 1.65 1.2 2.17c.4.99.69 2.03.91 3.08s.28 1.44.34 2.53c.07 1.34-.03 2.69-.45 3.97-1.04 3.14-4.35 4.04-6.74 5.86-.72.55-1.14 1.37-.74 2.27.35.8 1.27 1.33 2.15 1.05 2.9-.92 5.87-2.72 7.73-5.17 1.79-2.36 2.29-5.46 2.07-8.36-.32-4.07-1.58-8.98-5.07-11.48-2.21-1.59-5.08-1.42-7.2.25-1.33 1.04.17 2.78 1.48 2.55Zm-12.63 56.19c.28-4.98.33-9.97.35-14.96.01-2.41-3.76-2.42-3.75 0 .02 4.99.07 9.98.35 14.96.11 1.96 2.94 1.96 3.05 0"/><path d="M104.8 124.87c6.09 1.58 12.12 3.62 18.13 5.5 5.93 1.86 11.88 3.75 17.64 6.07 2.37.96 4.77 2.14 6.65 3.89 1.83 1.7 3.15 3.79 4.26 6 1.88 3.75 3.11 7.64 3.99 11.73.93 4.33 1.45 8.91 3.43 12.92 1.01 2.05 4.13.59 3.6-1.52-.44-1.75-.62-3.59-.96-5.36-.42-2.18-.79-4.37-1.19-6.55-.82-4.46-2.13-8.54-4.05-12.67-2.39-5.15-5.92-9.32-11.11-11.78-5.71-2.71-11.98-4.58-18.05-6.32-3.53-1.02-7.08-1.98-10.66-2.82-3.58-.85-7.22-1.49-10.8-2.34-2.1-.5-2.99 2.69-.89 3.24Zm14.43-50.52c-.97.29-1.83.81-2.58 1.49-.37.34-.69.73-.97 1.14-.12.17-.23.35-.32.53-.13.27-.28.56-.33.86-.05.35-.07.7.13 1.01.16.24.36.42.63.54.57.24 1.34.05 1.64-.54.13-.26.22-.53.34-.8l-.13.32c.06-.13.11-.27.17-.41l-.13.32c.17-.4.39-.77.65-1.11l-.2.26c.24-.3.5-.58.81-.82l-.25.19c.33-.25.69-.46 1.07-.63l-.29.12c.13-.06.27-.11.4-.15.3-.1.56-.28.72-.56.15-.26.22-.64.12-.93-.2-.61-.84-1.04-1.49-.85Zm-31.36-5.77c-.18 3.07-.32 6.13-.39 9.2-.03 1.53-.05 3.07-.05 4.6s-.08 3.17.33 4.68 2.76 1.59 3.13 0c.36-1.53.24-3.12.22-4.68s-.04-3.07-.05-4.6c-.03-3.07-.04-6.14-.04-9.2 0-2.05-3.03-2.01-3.16 0Zm-2.03 28.08c1.38.92 3.05 1.37 4.71 1.31.81-.03 1.64-.15 2.41-.4 1.05-.34 2.25-.84 2.56-2.01.12-.45.02-.91-.26-1.27-.3-.39-.67-.52-1.15-.58-.54-.06-1.01.17-1.48.41-.14.07-.27.14-.41.21-.04.02-.28.13-.06.03s-.02 0-.07.02c-.31.11-.62.2-.94.27-.14.03-.33.03-.45.08.08-.04.31-.03.09-.01-.1 0-.19.02-.29.02-.31.02-.61.02-.92 0-.08 0-.15-.01-.23-.02-.05 0-.31-.03-.07 0 .25.03-.08-.02-.13-.03-.08-.01-.15-.03-.23-.04-.3-.06-.6-.14-.89-.23-.09-.03-.18-.07-.27-.1-.2-.07.23.11.04.02-.16-.08-.31-.15-.46-.23-.68-.37-1.64-.19-2.02.53-.39.74-.16 1.56.53 2.02Zm-2.2-25.04-.09-.06c-2.46-1.52-3.45 3.61-.38 2.91l.12-.03c1.49-.34 1.49-2.67 0-3.01l-.12-.03c-3.07-.7-2.08 4.43.38 2.91l.09-.06c.98-.61.98-2.02 0-2.63m13.49 0-.09-.06c-2.46-1.52-3.45 3.61-.38 2.91l.12-.03c1.49-.34 1.49-2.67 0-3.01l-.12-.03c-3.07-.7-2.08 4.43.38 2.91l.09-.06c.98-.61.98-2.02 0-2.63m-20.2-7.14c1.29-1.93 3.85-2.37 6.01-2.41.9-.02 2.2-.09 3.01.4.47.28.51.65.76 1.13.33.65.81 1.17 1.46 1.5.97.48 2.24.29 2.8-.74a8.58 8.58 0 0 1 4.84-4.05c2.3-.77 4.21-.39 6.52-.02 2.06.33 3.1-2.08 1.4-3.33-2.46-1.81-6.43-1.57-9.18-.6-3 1.06-5.6 3.09-7.12 5.92.93-.25 1.87-.49 2.8-.74.12.22.1.17-.08-.17-.09-.2-.18-.4-.29-.6-.19-.33-.44-.66-.7-.93-.63-.63-1.44-1.06-2.28-1.33-1.46-.47-3.14-.5-4.66-.36-3.27.29-6.53 1.64-8.2 4.62-1.07 1.9 1.7 3.48 2.9 1.7Z"/><path d="M63.29 54.42c-3.05-1.27-6.99-3.28-7.9-6.76-.34-1.29-.3-2.94.59-4.03 1.14-1.39 3.3-1.3 4.91-1.16 1.54.14 2.31-1.73 1.67-2.92-1.12-2.09-3.26-5.76-1.45-8.03 1.47-1.85 4.4-1.46 6.35-.8 1.7.57 3.32-1.57 2.35-3.06-1.98-3.04 3.52-5.27 5.63-5.65 3.21-.58 6.54.71 8.14 3.61.99 1.78 3.98 1.02 3.9-1.06-.05-1.34-.57-3.09.58-4.1.92-.81 2.21-.87 3.32-.47 3.04 1.1 4.43 4.6 5.64 7.31.8 1.79 3.29 1.02 3.83-.5.82-2.31 2.84-5.52 5.75-4.39 3.34 1.29 3.88 5.51 4.12 8.59.18 2.35 3.33 2.85 4.11.56.88-2.56 4.43-3.24 6.06-1.04 2.15 2.89-.8 5.53-2.88 7.33-.78.68-.77 2-.16 2.76.69.87 1.74 1 2.71.54 1.83-.85 5.18-.95 5.54 1.67.12.85-.19 1.42-.98 1.8-1.32.63-2.78.82-4.04 1.6-2.15 1.34-.67 4.27 1.64 3.89.95-.16 2.92-.51 2.32 1.05-.55 1.43-2.8 2.02-4.05 2.58-1.97.88-.48 3.61 1.38 3.27 3.32-.61 6.89-2.59 6.95-6.42.03-1.74-.85-3.35-2.38-4.2-1.65-.91-3.55-.69-5.34-.39.55 1.3 1.09 2.6 1.64 3.89 1.83-1.15 4.1-1.16 5.67-2.82 1.49-1.57 1.8-3.99 1.12-5.99-1.68-4.96-7.4-5.51-11.58-3.56l2.55 3.3c2.04-1.78 4.15-3.83 4.7-6.6.51-2.57-.41-5.34-2.29-7.16-4.11-3.98-10.84-1.83-12.61 3.37l4.11.56c-.4-5.11-1.86-11.08-7.47-12.71-5.23-1.53-9.06 2.98-10.62 7.4 1.28-.17 2.55-.33 3.83-.5-1.9-4.26-4.57-8.93-9.69-9.56-2.15-.27-4.43.44-5.96 1.99-1.97 1.99-1.79 4.35-1.69 6.94 1.3-.35 2.6-.7 3.9-1.06-2.68-4.84-8.5-6.71-13.7-5.33-4.71 1.25-10.8 6.24-7.28 11.59.78-1.02 1.57-2.04 2.35-3.06-3.6-1.2-8.23-.92-10.71 2.3-2.97 3.86-.89 8.85 1.36 12.5l1.67-2.92c-2.72-.08-5.66.21-7.59 2.38-1.64 1.84-2.06 4.33-1.66 6.7.92 5.53 6.21 7.83 10.84 9.7.78.31 1.68-.34 1.89-1.07.25-.88-.31-1.58-1.07-1.89Z"/><path d="M64.31 61.12c6.98-2.76 11.53-9.34 12-16.79-.47.62-.94 1.24-1.41 1.85 2.06-.47 3.87-.08 5.89.4s3.98.86 6.02 1c4.13.29 8.2-.33 12.29-.85 1.04-.13 2.08-.26 3.12-.4.18-.03 1.29-.15 1.29-.18-.45-.5-.6-.58-.46-.22l.15.54c.48 1.62 1.16 3.2 2.01 4.66 1.62 2.78 4.1 5.77 7.08 7.12 1.63.74 3.68-1.32 2.08-2.7-1.36-1.18-2.8-2.21-4-3.56-1.09-1.22-2-2.6-2.74-4.06-.73-1.46-.91-3.56-2.15-4.67-1.47-1.32-3.95-.41-5.65-.09-4.28.79-8.66 1.45-13.03 1.18-4.18-.26-8.21-1.97-12.42-1.93-1.09 0-1.85.88-1.92 1.92-.41 5.89-4.18 11.27-9.28 14.11-1.41.79-.45 3.31 1.13 2.68Zm11.3-22.15c3.73 0 7.75-2.32 9.07-5.92.26-.72-.24-1.55-.9-1.82-.71-.3-1.53-.03-1.93.63-.19.32-.39.63-.59.95-.1.16-.21.31-.32.46-.22.31.22-.26-.03.03-.05.06-.1.11-.14.17-.24.28-.51.54-.78.79-.08.07-.17.14-.25.22-.16.13-.03 0 .05-.04-.17.06-.35.26-.5.35-.31.2-.63.39-.97.55-.08.04-.17.08-.25.12-.26.12.19-.07 0 0s-.35.13-.52.19c-.35.11-.71.21-1.08.27-.09.02-.19.05-.27.05.18 0 .22-.03.01 0s-.41.03-.61.04c-.78.02-1.53.67-1.49 1.49s.66 1.49 1.49 1.49Zm11.1 2.87c3.22-1.36 5.92-4.08 7.1-7.38.22-.61-.2-1.3-.75-1.53s-1.34-.05-1.62.53c-.33.69-.71 1.38-1.14 2.02-.11.17-.23.33-.35.5-.02.03-.2.26-.08.1s-.09.11-.11.14c-.24.3-.5.59-.77.87s-.53.52-.81.77c-.14.12-.3.31-.47.39.26-.13.02-.02-.05.04-.08.06-.16.12-.25.18-.64.44-1.31.82-2.02 1.14-.62.28-.82 1.23-.47 1.77.42.65 1.1.75 1.77.47Zm11.1-2.18c2.03 0 2.03-3.16 0-3.16s-2.03 3.16 0 3.16m-40.95 88.69c1.14 4.5 3.97 8.37 7.09 11.8 3.32 3.65 7.16 7.03 11.82 8.65 3.04 1.06 6.31 1.33 9.53 1.4 7.94.18 16.08-.81 23.2-4.32 7.12-3.52 13.13-9.84 14.93-17.57 4.8 2.32 9.89 4.03 15.11 5.1 2.05.42 4.17.76 5.99 1.79 1.96 1.12 3.41 2.96 4.59 4.89 5.74 9.42 6 21.34 11.4 30.96-47.12-.61-94.24-.56-141.36.16 6.24-14.87 4.39-20 11.33-27.31 6.94-7.3 16.65-11.92 26.7-12.7"/><path d="M55.28 128.79c1.46 5.9 5.35 10.91 9.61 15.11s9.59 7.23 15.82 8c6.3.78 12.99.31 19.18-1.04 5.69-1.25 11.09-3.57 15.66-7.22 4.73-3.78 8.38-8.87 9.82-14.8l-2.94 1.2c3.89 1.87 7.82 3.47 12 4.59 3.67.99 8.13 1.03 10.86 3.99 2.48 2.69 4.01 6.31 5.2 9.72 1.3 3.73 2.24 7.57 3.32 11.36 1.22 4.29 2.65 8.55 4.82 12.46l1.91-3.32c-18.4-.22-36.8-.37-55.19-.47-18.32-.1-36.63-.05-54.95.11-10.41.09-20.81.21-31.22.36l2.29 3.01c1.64-3.93 3.01-7.96 4.16-12.07.77-2.75 1.41-5.58 2.52-8.22-.15.36.21-.45.24-.51.13-.29.28-.57.42-.85.32-.61.68-1.21 1.06-1.78.83-1.25 1.74-2.27 2.87-3.42 3.08-3.12 6.67-5.66 10.6-7.6 4.32-2.14 9.08-3.46 13.88-3.86 1.25-.1 2.32-.99 2.32-2.32 0-1.18-1.06-2.42-2.32-2.32-9.64.79-18.82 4.66-26.04 11.11-2.63 2.35-5.06 5.06-6.65 8.24-1.34 2.68-2.15 5.56-2.94 8.44-1.3 4.73-2.8 9.37-4.69 13.9-.6 1.44.9 3.03 2.29 3.01 18.4-.29 36.79-.48 55.19-.57 18.32-.09 36.63-.14 54.95-.04 10.41.06 20.81.14 31.22.28 1.71.02 2.7-1.88 1.91-3.32-3.87-7.02-4.98-15.09-7.58-22.59-1.32-3.82-2.99-7.63-5.52-10.81-2.76-3.48-6.52-4.43-10.67-5.29-4.86-1.01-9.74-2.54-14.22-4.67-1.12-.53-2.62-.15-2.94 1.2-2.36 9.85-11.11 16.33-20.5 18.87-5.57 1.51-11.34 1.75-17.08 1.51-2.85-.12-5.72-.48-8.39-1.55-2.34-.94-4.48-2.42-6.38-4.05-4.49-3.85-9.04-8.84-10.7-14.64-.58-2.04-3.69-1.19-3.18.88Z"/></svg>