<?xml version="1.0" encoding="UTF-8"?><svg xmlns="http://www.w3.org/2000/svg" viewBox="0 0 180 180"><path d="M72.71 123.44c5.2-5.08 10.54-10.03 15.43-15.43 1.05-1.16 3.35-2.98 2.86-4.71-.37-1.31-1.86-1.64-2.94-.97-.75.46-1.4 1.19-2.02 1.8-2.66 2.63-5.22 5.39-7.75 8.14-2.68 2.91-5.18 5.97-7.84 8.9-1.38 1.52.78 3.71 2.26 2.26Zm22.08-20.98c2.45-.85 5.29-.72 7.84-.7 2.84.02 5.84-.11 8.64.34 1.51.24 3.26.66 4.43 1.71 1.01.9.77 1.53-.41 2.02-3.2 1.33-7.06 1.68-10.48 1.84-2.69.13-2.55 3.75 0 4.08 1.27.16 2.61.48 3.67 1.24.36.26 1.04.78 1.15 1.24.1.42-.07.58-.4.96-1.31 1.55-.06 3.74 1.95 3.35-.18.03.49.5.64.66.44.49.8 1.08 1.02 1.69.56 1.56-.62 2.95-1.74 3.91-1.24 1.05-.41 2.87.88 3.34 1.52.55 1.67 2.6 1.19 3.89-.65 1.74-2.31 3.54-4.06 4.19-1.65.62-3.35-.27-2.75-2.18.61-1.93 2.7-3.77 4.06-5.19 1.15-1.2-.33-3.25-1.81-2.34-2.71 1.66-6.13 5.18-6.16 8.61-.03 3.87 4.11 5.95 7.51 4.97 3.33-.95 6.42-4.19 7.24-7.56s-.77-7.01-4.16-8.23c.29 1.11.59 2.22.88 3.34 2.45-2.1 3.8-5.34 2.49-8.44-1.07-2.53-3.33-5.02-6.3-4.51.65 1.12 1.3 2.23 1.95 3.35.91-1.02 1.71-2.19 1.72-3.61s-.76-2.65-1.68-3.65c-1.87-2.03-4.63-2.84-7.3-3.09v4.08c2.52-.21 5.03-.59 7.5-1.12 1.93-.42 4.13-.84 5.82-1.91 1.71-1.09 2.68-3.05 2.13-5.07-.57-2.1-2.46-3.54-4.36-4.37-3.71-1.61-7.88-1.5-11.85-1.43-3.55.07-7.22.2-10.54 1.6-1.71.72-.49 3.63 1.27 3.01Z"/><path d="M87.69 117.2c3.7-2.38 7.79-4.1 12.09-5.02 1.34-.29 3.49-.64 4.13.96.59 1.48-.17 3.3-1.41 4.19-.84.6-1.8.99-2.58 1.69a7.2 7.2 0 0 0-1.7 2.36c-.8 1.76-1.01 3.69-1.71 5.48-.63 1.62-1.72 3.04-3.04 4.16-.68.58-1.45 1.06-2.26 1.45-.84.41-1.76.62-2.54 1.14-1.49.97-.79 2.98.86 3.16 1.77.19 3.73-.9 5.15-1.87 1.5-1.03 2.77-2.29 3.83-3.76s1.75-3.2 2.21-4.97c.37-1.44.59-3.39 1.84-4.38.8-.63 1.79-.98 2.59-1.62.73-.58 1.37-1.31 1.83-2.13.93-1.67 1.24-3.69.76-5.55-.48-1.88-1.81-3.36-3.65-3.98s-3.75-.22-5.48.25c-4.58 1.26-8.77 3.52-12.49 6.43-1.16.91.34 2.83 1.57 2.04Z"/><path d="M110.68 114.85c-3.6 1.8-7.02 4.16-10.12 6.71-1.57 1.3-3.23 2.84-3.59 4.94-.58 3.37 2.77 5.86 5.89 5.63 2.02-.15 3.84-1.08 5.55-2.1.83-.49 1.64-1.02 2.43-1.58s1.73-1.17 2.42-1.92c1.28-1.39-.36-3.74-2.07-2.69-1.26.78-2.39 1.8-3.64 2.61-1.15.75-2.37 1.54-3.68 1.97-.58.19-1.13.29-1.74.27-.36-.02-.74-.15-1.14-.42-.64-.43-.85-.89-.51-1.65.1-.21.22-.4.34-.6.03-.05.08-.09.1-.15.07-.18-.24.25-.09.11.23-.21.43-.49.65-.72.58-.59 1.21-1.13 1.85-1.65.17-.14.34-.28.52-.41l.27-.21c-.18.14.05-.03.07-.05.42-.32.85-.64 1.28-.95.81-.59 1.63-1.17 2.46-1.75 1.4-.98 2.81-1.96 4.3-2.81 1.7-.97.2-3.47-1.52-2.6Zm-25.42 35.86c1.6-.73 3.57-.95 5.31-1.14 1.92-.21 3.85-.31 5.75-.64 3.36-.59 7.14-1.96 9.25-4.8 1.1-1.49-1.05-3.52-2.52-2.52-1.31.88-2.47 1.7-4 2.18s-3.19.8-4.79 1.1c-1.8.34-3.61.63-5.39 1.07s-3.52 1.17-5.19 2.03c-1.83.94-.23 3.55 1.59 2.73Zm1.93-63.4c3.23-9.15 1.75-19.51-.75-28.66-2.65-9.7-7.12-19.41-13.61-27.15-3.17-3.79-7.47-7.92-12.72-5.33-4.61 2.28-6.09 8.08-6.23 12.79-.16 5.29.97 10.81 2.44 15.87s3.56 10.38 6.14 15.18c2.63 4.88 5.97 9.45 10.07 13.19 3.52 3.22 10.57 8.97 14.63 3.42 1.19-1.62-1.37-3.48-2.74-2.11-1.25 1.25-3.71-1.01-4.72-1.74a42 42 0 0 1-4.85-4.14c-2.99-2.97-5.5-6.37-7.61-10.01-4.57-7.92-7.98-17.13-8.7-26.29-.29-3.72-.29-9 2.91-11.59 3.4-2.75 6.95 2.08 8.92 4.41 5.65 6.69 9.41 14.95 11.86 23.31 1.35 4.61 2.27 9.35 2.68 14.13.4 4.56.49 9.47-.56 13.95-.43 1.86 2.21 2.55 2.83.78Z"/><path d="M81.44 86.29c2.78 6.13 5.56 12.25 8.34 18.38 1 2.21 2.2 5.4 2.85 6.31 1.97-.23 4.63-.84 6.38-1.8a484 484 0 0 0-12.36-21.26c-.23-.38-.49-.78-.88-1-.87-.5-2.03.16-2.46 1.07"/><path d="M79.96 86.7c1.68 4.85 3.93 9.55 6.04 14.23.95 2.1 1.92 4.19 2.81 6.31.66 1.56 1.21 3.29 2.15 4.71.35.52.99 1.04 1.67.96 2.55-.32 5.07-.87 7.36-2.06.95-.49 1.18-1.77.7-2.65-2.78-5.07-5.67-10.1-8.63-15.06-1.37-2.29-2.61-4.86-4.28-6.94-1.76-2.2-4.81-1.44-6.11.82s2.09 4.09 3.32 1.94c.33-.58-.08-.05-.16-.37.07.31.53.84.69 1.11.59.96 1.17 1.92 1.75 2.89 1.16 1.93 2.31 3.87 3.44 5.81 2.27 3.89 4.47 7.81 6.64 11.76.23-.88.46-1.77.7-2.65-1.64.86-3.57 1.31-5.4 1.53l1.67.96c-.92-1.39-1.47-3.08-2.12-4.6-.89-2.08-1.85-4.12-2.79-6.17-2.1-4.6-4.12-9.31-6.63-13.71-.85-1.48-3.39-.5-2.81 1.19Zm18.96 43.45c2.99 5.07 5.77 10.28 7.92 15.76.4 1.03.82 2.11 1.65 2.83 1.77 1.54 4.51.79 6.65-.17.65-.29 1.36-.69 1.51-1.38.1-.47-.1-.95-.29-1.39-1.09-2.46-2.18-4.93-3.27-7.39-1.14.87-2.59 1.38-4.02 1.24s-2.81-.98-3.45-2.27c-.55-1.11-.52-2.42-.92-3.59-.41-1.17-1.63-2.28-2.78-1.82"/><path d="M97.73 130.84c1.33 2.76 2.69 5.51 4.05 8.26s2.47 5.52 3.65 8.31c1.11 2.64 3.29 4.34 6.25 4.07 1.42-.13 2.73-.56 4.04-1.12 1.18-.51 2.35-1.25 2.72-2.57.49-1.75-.73-3.6-1.41-5.14-.77-1.74-1.55-3.47-2.31-5.21-.39-.89-1.82-1.21-2.59-.68-.97.67-2.16 1.19-3.35.86-1.14-.31-1.55-1.14-1.78-2.23-.32-1.51-.53-2.97-1.66-4.14-1.23-1.27-2.77-1.62-4.38-.93-.85.37-1.11 1.58-.77 2.35.4.9 1.27 1.27 2.22 1.09.51-.09.78 1.98.85 2.33.28 1.53.86 2.94 2.09 3.96 2.54 2.11 6.11 1.91 8.69-.03-.86-.23-1.73-.45-2.59-.68.7 1.56 1.38 3.14 2.08 4.71.35.78.71 1.56 1.04 2.35s.05.24.27.23c.01 0-.15.06-.22.07-.48.08-1.06.47-1.54.63-.54.18-1.1.33-1.67.37-1.16.08-1.82-.33-2.34-1.36-.67-1.32-1.13-2.77-1.74-4.12-.66-1.47-1.36-2.93-2.1-4.36-1.51-2.95-3.22-5.72-5.13-8.43-1.02-1.44-3.15-.22-2.37 1.39ZM61.2 26c-6.28.6-11.27 5.07-14.01 10.57-1.57 3.14-2.21 6.43-2.84 9.86s-1.63 6.39-3.86 8.96c-4.63 5.34-12.16 6.39-17.48 10.85-2.58 2.16-4.28 5.03-4.74 8.37-.52 3.7-1.11 7.68-.26 11.36.72 3.13 3.05 6.21 2.72 9.52-.33 3.26-3.5 5.65-5.01 8.38-1.7 3.06-1.99 6.24-.36 9.4 1.11 2.16 2.98 3.9 5.2 4.87 4.5 1.98 9.73 1.35 14.33.05 5.31-1.5 9.87-4.16 14.05-7.75 4.71-4.05 8.99-9 14.79-11.54 3.44-1.51 7.23-1.65 10.44-3.73 1.45-.94 2.78-2.06 4.15-3.11 1.15-.89 2.4-1.76 3.89-1.9 2.16-.21 2.24-3.54 0-3.44-2.9.14-5.53 1.45-7.86 3.1-1.07.76-2.11 1.55-3.27 2.18-1.61.88-3.43 1.14-5.19 1.56-5.59 1.34-10.15 4.87-14.31 8.69-3.94 3.61-7.72 7.6-12.61 9.93-3.74 1.78-8.16 2.95-12.31 2.84-1.93-.05-3.86-.44-5.45-1.57-1.29-.92-2.76-2.95-2.55-4.84.35-3.18 3.38-5.53 4.73-8.27 1.54-3.11 1.47-6.18.16-9.36-1.32-3.19-2.85-5.95-2.58-9.51.24-3.24 1.03-7.17 2.93-9.86 3.68-5.22 10.88-6.33 15.88-9.84 2.97-2.08 5.41-4.88 6.91-8.19 1.7-3.74 1.81-7.76 2.89-11.67 1.64-5.92 5.87-11.33 12.05-12.74 1.74-.4 1.41-3.35-.43-3.18Zm81.47 6.41c-9.84 0-19.49 1.89-28.54 5.75a71.4 71.4 0 0 0-12.76 7.03c-.92.64-2.07 1.27-2.69 2.23-.78 1.21-.52 2.65.23 3.79 1.39 2.14 2.97 4.16 4.34 6.32 3.08 4.86 5.79 9.98 8.02 15.29.54 1.28 2.4 2.31 3.52.93 9.92-12.29 25.98-16.29 41.18-14.88 1.38.13 2.36-1.44 2.02-2.65-2.07-7.46-5.49-14.34-9.9-20.69-1.26-1.81-4.23-.14-3 1.75 4.01 6.14 6.9 12.99 8.86 20.05l2.02-2.65c-16.17-1.51-33.61 3.03-44.16 16.09l3.52.93c-1.73-4.13-3.66-8.16-5.88-12.05-1.08-1.89-2.23-3.75-3.43-5.58-.58-.88-1.17-1.75-1.78-2.61l-1.05-1.47c-.21-.29-.81-.85-.78-1.22l-.29 1.05c.32-.6 1.51-1.17 2.06-1.54a75 75 0 0 1 6.97-4.21c3.2-1.7 6.52-3.12 9.94-4.32 6.93-2.44 14.23-3.92 21.58-4.18 2.04-.07 2.06-3.19 0-3.19Z"/><path d="M125.72 36.66c.76-3.1 1.51-6.19 2.27-9.28.72-2.94 1.72-5.94 2.05-8.95.31-2.84-.85-5.1-3.2-6.68-2.22-1.48-4.9-2.36-7.5-2.88-2.78-.56-5.62-.75-8.45-.82-2.73-.07-5.48-.08-8.18.39-2.45.43-5.15 1.4-6.89 3.27-1.71 1.84-2.52 4.92-.42 6.82 1.18 1.07 2.92 1.55 4.39 2.05 1.62.56 3.28 1.03 4.95 1.41 3.36.77 6.81 1.18 10.26 1.25v-3.79c-3.49.21-7.05.35-10.4 1.44-2.82.91-6.81 2.72-6 6.38s4.9 4.08 7.98 4.15c3.75.09 7.53-.32 11.12-1.43 2.35-.73 1.34-3.96-.99-3.6-2.56.39-5.45 1.84-5.99 4.62-.5 2.56 1.15 5.41 3.95 5.34 1.85-.04 2.42-3 .45-3.36-.68-.12-.92-.93-.62-1.52.53-1.08 2.16-1.33 3.2-1.48l-.99-3.6c-2.62.78-5.29 1.18-8.02 1.25-.91.02-6.3.48-6.39-1.19-.03-.59 1.15-1.01 1.57-1.22 1.08-.53 2.24-.88 3.4-1.16 2.53-.6 5.14-.74 7.73-.83 2.44-.09 2.44-3.68 0-3.79-4.82-.23-9.58-1.14-14.14-2.75-.54-.19-2.48-.59-2.75-1.16.08.16.09-.24.17-.43.18-.41.56-.8.91-1.07 1.5-1.18 3.61-1.66 5.47-1.86 4.2-.47 8.83-.32 12.99.42 2.13.37 4.25.96 6.18 1.94.78.4 1.71.84 2.18 1.61.51.82.38 1.92.23 2.83-.95 5.65-2.38 11.25-3.58 16.86-.42 1.98 2.57 2.84 3.06.84Zm10.18 23.55c3.53 1.73 7.16 3.31 10.63 5.15 2.65 1.4 5.38 3.31 5.2 6.65-.18 3.52-2.39 7.03-4.51 9.73-1.17 1.49-2.47 2.89-3.8 4.24-.54.55-1.34 1.11-1.77 1.75-.12.17-.38.44.11.37.25-.04 0 .11-.04-.19-.02-.2-.13-.41-.17-.62-.86-4.21 1.47-8.69 3.26-12.34.92-1.88-1.41-3.94-3.01-2.32-1.57 1.59-3.25 3.07-5.06 4.37-.91.65-2.14 1.16-2.95 1.9-.38.03-.41.09-.1.19a.4.4 0 0 1-.1-.13c-.15-.27-.15-.6-.17-.9-.21-3.48 2.31-7.35 4.98-9.35 1.14-.85 1.39-3.29-.46-3.54-1.37-.19-2.42.02-3.7.52-.41.16-1.02.25-1.39.46-.15.09.01.08.03-.05l-.25.93.12-.27c.8-1.73-1.33-3.77-2.81-2.17-1.45 1.57-.96 3.92.87 4.97.89.51 1.95.55 2.94.37s2.19-1.14 3.15-1.01c-.15-1.18-.31-2.36-.46-3.54-2.31 1.73-4.23 3.89-5.44 6.53-1.09 2.35-2.04 5.38-1.27 7.96.37 1.26 1.24 2.41 2.52 2.83 1.67.56 3.22-.17 4.61-1.07 2.78-1.8 5.34-3.94 7.66-6.3-1-.77-2-1.55-3.01-2.32-2.15 4.37-4.44 9.17-3.84 14.18.25 2.13 1.26 4.58 3.77 4.65 2.15.06 3.81-2.23 5.14-3.62 5.42-5.7 13.57-16.9 5.27-23.67-1.78-1.45-3.8-2.45-5.87-3.4-2.79-1.29-5.6-2.53-8.41-3.77-1.89-.84-3.58 1.89-1.66 2.83ZM129 41.43c-2.2.1-4.4.8-6.19 2.1-1.01.73-1.85 1.58-2.58 2.59-.78 1.08-1.1 2.72-.03 3.75s2.69.69 4.05.67c1.28-.02 2.56 0 3.83.08.64.04 1.29.05 1.92.15-.2-.03.42.1.48.11 0 0 .31.1.12.02 0 0 .47.28.23.1.08.06.17.15.24.23-.11-.13 0-.1.02.06-.04-.31 0 .02 0 .04v-.27c-.03.48 0-.03.01.02l-.08.13c.1-.12.11-.13.02-.04-.03.03-.26.25-.12.13s-.19.13-.23.15c-.53.33-.82.41-1.49.62s-1.32.37-2 .49c-.51.09-1.14.15-1.79.17-.78.02-1.53-.04-2.31.08-.72.12-1.24.95-1.24 1.63 0 .77.53 1.41 1.24 1.63 1.29.41 2.9.15 4.21-.05 1.16-.17 2.29-.47 3.38-.9 1.2-.47 2.4-1.01 3.16-2.1s.76-2.51.08-3.62c-1.47-2.37-4.77-2.23-7.22-2.29-1.35-.04-2.71-.01-4.06.06-.13 0-.26 0-.39.02-.22.03-.12-.08-.03.03l.34.23.29.67c.14.21-.13.13.03 0-.14.13-.02.04.04-.04.09-.11.16-.24.24-.35.17-.23-.13.15.06-.08.09-.11.19-.22.29-.33.82-.91 1.49-1.44 2.56-2.02.81-.44 2.01-.82 2.9-.91.8-.08 1.49-.63 1.49-1.49 0-.78-.68-1.53-1.49-1.49Z"/><path d="m125.45 43.27-.23-.88-.11-.42c-.07-.27-.19-.52-.32-.76l-.23-.3c-.14-.15-.3-.25-.48-.31a.7.7 0 0 0-.38-.1c-.2-.04-.4-.04-.6.03l-.36.15-.3.23c-.15.14-.25.3-.31.48-.09.18-.14.37-.13.57.03.28.04.56.13.83l.15.41.3.86c.05.19.13.36.27.5.1.16.24.29.42.38.17.11.35.17.55.18.2.04.39.04.59-.03.36-.12.71-.34.89-.68s.25-.75.15-1.14m3.49 10.07c-.14.07-.27.19-.38.28l1.34-.35h-.01c-.13-.02-.26-.04-.38-.06-.2 0-.38.03-.56.12-.12.03-.23.1-.32.19-.16.1-.28.24-.37.41-.05.08-.08.17-.12.26s-.08.18-.11.27c0 .02 0 .03-.01.05v.03l-.05.4c0 .07 0 .14.03.21.01.09.02.2.05.3 0 .02.01.03.02.05.05.13.11.26.16.39.01.03.03.06.05.09 0 0 .01.02.02.02.07.1.16.21.24.31.01.01.02.03.03.04l.04.04c.1.09.22.18.33.25.17.11.35.16.54.17.19.04.39.03.58-.03l.35-.15c.17-.09.31-.22.41-.37.09-.09.15-.2.19-.32.09-.17.13-.36.13-.56l-.05-.39c-.07-.25-.19-.46-.37-.64-.02-.02-.04-.04-.05-.06l.23.3s-.05-.08-.07-.12l.15.35a.5.5 0 0 1-.04-.16l.05.39v-.08c0-.16-.04-.31-.06-.47l.05.39v-.17l-.05.39s0-.04.01-.05c.02-.14.03-.27.05-.4 0-.2-.03-.38-.12-.56a.5.5 0 0 0-.1-.21l.14 1.06.03-.09-.14.32c.04-.12.09-.22.13-.33a.96.96 0 0 0 .02-.53c0-.12-.03-.23-.09-.34a.95.95 0 0 0-.28-.43l-.27-.21-.32-.13a.96.96 0 0 0-.53-.02c-.18 0-.34.06-.5.16ZM21.66 102.78c2.27-2.66 3.95-5.87 5.16-9.13 1.44-3.9.83-8.34 2.58-12.1s5.3-6.19 8.94-7.9c3.92-1.84 8.39-2.92 11.77-5.74 1.75-1.46 2.87-3.45 3.98-5.4s2.31-4.02 4.49-4.76c2-.68 1.16-3.86-.88-3.19-4.29 1.39-5.72 5.51-8.03 8.93-2.48 3.69-7.19 4.88-11.06 6.56-3.96 1.73-7.86 3.9-10.54 7.38a13.8 13.8 0 0 0-2.58 5.7c-.47 2.31-.49 4.68-.95 6.98-.37 1.86-1.06 3.66-1.82 5.4-.82 1.87-1.65 3.77-2.96 5.35-1.1 1.32.78 3.24 1.91 1.91Zm-1.57 12.25c3.91-.7 8.01-1.57 11-4.39 1.54-1.45 2.64-3.32 3.7-5.14 1.09-1.88 2.14-3.85 2.57-6 .48-2.37.67-4.6 1.7-6.82.91-1.97 1.87-4.32 3.47-5.83 1.42-1.34 3.37-1.96 5.19-2.54 2-.64 4.02-1.24 5.92-2.13 2.28-1.07 4.19-2.58 5.94-4.38 1.56-1.6 3.31-3.52 5.7-3.64 2.32-.11 2.27-3.8 0-3.58-4.71.45-7 4.29-10.51 6.86s-7.85 3.18-11.7 5.04c-4.08 1.97-6.19 6.33-7.72 10.39-.84 2.23-.77 4.58-1.41 6.84-.6 2.13-1.82 4.1-2.97 5.98-1.22 2-2.7 3.57-4.83 4.58-2.14 1.02-4.54 1.44-6.85 1.88-1.89.36-1.08 3.21.79 2.88Zm53.68-35.95c-1.46.66-2.47 1.86-3.43 3.1-1.01 1.31-2.08 2.48-3.49 3.36-3.15 1.97-6.74 2.15-10.18 3.27-3.4 1.11-5.9 3.4-7.8 6.38-1.97 3.1-3.08 6.65-5.28 9.62-.67.9-1.36 1.77-1.91 2.75-.5.91-.89 1.88-1.43 2.77-1 1.65-2.42 2.7-4.09 3.59-1.55.83-.49 3.34 1.2 2.84 1.58-.47 3.07-1.39 4.25-2.54 1.32-1.29 2.06-2.87 2.91-4.49.89-1.72 2.23-3.13 3.24-4.77s1.76-3.36 2.6-5.07c1.49-3.06 3.11-6.25 6.41-7.65 3.32-1.41 6.97-1.6 10.22-3.28 1.71-.89 3.32-2.09 4.58-3.54 1.16-1.34 2.04-3 3.72-3.75 1.76-.78.24-3.37-1.51-2.59Z"/><path d="M42.44 55.22c-.51 6.5 3.28 13.18 6.47 18.61 3.5 5.97 7.85 11.69 13.28 16.03 2.71 2.17 5.78 4.09 9.31 4.44 1.5.15 1.71-2.16.35-2.56-5.83-1.74-10.33-5.88-13.98-10.62s-7.08-10.03-9.75-15.54c-1.55-3.21-3.05-6.66-2.91-10.36.07-1.79-2.63-1.75-2.77 0M31.62 70.15c3.56 13.73 14.08 25.28 27.31 30.32 2.36.9 3.46-2.98 1.05-3.81-12.37-4.29-22.04-14.68-25.56-27.28-.5-1.8-3.27-1.04-2.8.77m-12.29 5.72c-.96 3.91 1.75 7.31 4.06 10.17 2.55 3.14 5.5 5.92 8.57 8.53s6.01 5 9.16 7.28c2.95 2.14 6.6 4.61 10.33 4.94 1.81.16 1.85-2.38.4-2.95-1.6-.62-3.16-1.08-4.68-1.92s-3-1.84-4.41-2.89c-2.73-2.02-5.39-4.19-8.02-6.34-2.74-2.23-5.38-4.59-7.79-7.18-1.19-1.28-2.34-2.61-3.37-4.02-1.03-1.43-2.13-3.11-1.78-4.95.3-1.6-2.07-2.3-2.47-.68Zm1.29 24.65c.14 2.07 1.87 3.56 3.28 4.9 1.54 1.47 3.23 2.78 5.02 3.95s3.61 2.14 5.56 2.94c1.03.43 2.07.76 3.18.91 1.12.16 2.59.31 3.55-.39.99-.73 1.07-2.56-.38-2.87-.91-.19-1.8.07-2.73-.05s-1.76-.41-2.59-.74c-1.63-.64-3.21-1.48-4.72-2.38s-2.88-1.86-4.23-2.92c-.7-.56-1.38-1.14-2.04-1.75-.61-.56-1.28-1.08-1.4-1.94-.19-1.41-2.6-1.09-2.5.34m52.21 17.79c-1.94-.45-3.65.85-4.35 2.62-.81 2.05-.22 4.46.25 6.53.9 4.01 2.33 7.9 4.19 11.57s4.2 7.09 6.89 10.21c1.23 1.42 2.69 3.46 4.56 4.02 2.14.64 4.63-1.28 3.85-3.58-.72-2.11-4.04-1.86-4.02.54l.14-.56.93-.54c.26-.11.66.38.03-.19-.25-.23-.48-.48-.72-.72-.52-.53-1.03-1.08-1.53-1.64-.87-.98-1.71-2-2.49-3.06a48.7 48.7 0 0 1-4.53-7.48 47 47 0 0 1-3.01-7.86c-.39-1.38-.77-2.79-1.01-4.21s-.15-2.37 1.18-2.96c1.17-.52.82-2.43-.35-2.7Zm-11.55 6.73c.52 7.39 3.12 14.16 6.35 19.66 3.24 5.5 5.9 8.77 10.87 12.78-7.42 3.94-15 7.57-22.73 10.87-2.76 1.18-5.89 2.32-8.66 1.17-7.6-3.15-14.5-16.21-14.32-24.06.24-10.41 20.19-15.02 28.49-20.67"/><path d="M59.68 125.04c.27 6.96 2.5 13.68 5.88 19.73 3.03 5.42 6.78 10.14 11.69 13.95l.35-2.75c-1.93 1.08-4.08 1.83-6.08 2.77s-4.02 1.9-6.03 2.83c-4 1.85-8.01 3.84-12.14 5.37-1.65.61-3.6 1.24-5.34.61-1.14-.42-2.24-1.18-3.17-1.96-2.4-2.03-4.3-4.56-5.86-7.27-1.56-2.69-2.78-5.56-3.51-8.58-.56-2.31-.85-4.54-.02-6.53-.12.29.17-.32.21-.39.12-.23.26-.46.4-.69.32-.5.46-.69.79-1.06.72-.81 1.59-1.62 2.38-2.24 2.17-1.68 4.63-3 7.08-4.22 5.31-2.65 11.11-4.6 16.06-7.93 2.31-1.55.14-5.32-2.19-3.75-4.73 3.18-10.27 5.09-15.37 7.59-4.81 2.36-10.58 5.36-13.04 10.41-2.77 5.69-.06 12.82 2.63 18.03 1.62 3.14 3.68 6.15 6.21 8.64 2.49 2.45 5.72 4.72 9.36 4.59 2.6-.1 5-1.1 7.36-2.1 2.55-1.08 5.08-2.23 7.59-3.41 2.44-1.14 4.85-2.34 7.24-3.57 2.46-1.27 4.76-2.87 7.22-4.11.96-.48 1.18-2.05.35-2.75-2.18-1.86-4.3-3.82-6.14-6.02s-3.29-4.54-4.68-6.95c-3.22-5.59-5.32-11.81-6.04-18.23-.22-1.99-3.27-2.09-3.19 0Zm54.8-69.82c1.82 0 1.82-2.83 0-2.83s-1.82 2.83 0 2.83m25.03-7.13c1.9 0 1.9-2.95 0-2.95s-1.9 2.95 0 2.95m5.87 51.12c.65 3.34 1.29 6.8.75 10.21-.46 2.92-1.96 5.37-4.08 7.38-3.6 3.41-10.98 7.71-15.74 4.17-1.62-1.2-2.58-3.89-1.01-5.53 1.82-1.9 5.38-1.41 7.48-.33 5.23 2.7 6.65 8.85 5.19 14.19-1.93 7.04-7.82 11.61-13.49 15.66-1.81 1.3-.18 4.28 1.78 3.05 6.54-4.1 12.79-9.74 15.08-17.36 2.17-7.23-.13-15.43-7.18-18.97-3.17-1.59-7.4-2.07-10.49-.02-3.15 2.09-3.88 6.19-2.28 9.49s5.5 4.98 9.03 4.95c3.94-.03 7.82-1.88 11.02-4.07 3.43-2.35 6.36-5.5 7.56-9.56 1.37-4.61.18-9.48-.94-14-.43-1.74-3-1-2.67.74Zm-6-82.13c.1-.31.21-.62.34-.92l-.16.38c.3-.69.66-1.37 1.07-2.01.21-.33.26-.83.16-1.2s-.38-.76-.72-.93c-.36-.19-.8-.29-1.2-.16l-.37.16c-.23.14-.42.33-.56.56q-.51.66-.87 1.41c-.29.61-.54 1.24-.73 1.88-.11.39-.04.87.16 1.22.19.33.57.64.94.73.4.09.86.07 1.22-.16s.6-.54.73-.94Zm8.95 7.17c.5-.54 1.04-1.04 1.62-1.49l-.3.24c.91-.7 1.9-1.29 2.91-1.83.74-.39 1.03-1.48.57-2.18-.22-.34-.55-.64-.95-.73l-.42-.06c-.29 0-.56.07-.8.22-1.96.87-3.54 2.45-4.77 4.18-.19.26-.23.75-.14 1.05s.25.52.49.71c.52.4 1.33.4 1.8-.11Zm9.36 7.89c.16-.14.32-.27.48-.4l-.27.21c.66-.51 1.38-.93 2.14-1.25l-.33.14c.24-.1.49-.2.74-.28.34-.11.67-.24 1.01-.38l-.32.13.06-.03c.32-.13.62-.29.79-.61.14-.27.2-.54.16-.85-.08-.59-.65-1.22-1.3-1.15-.3.03-.61.06-.9.16-.19.06-.37.13-.55.2-.47.19-.94.4-1.38.65-.79.44-1.53 1-2.18 1.62-.5.47-.51 1.38 0 1.85.55.5 1.3.48 1.85 0Zm4.23 12.08c.61-.07 1.23-.13 1.83-.25.18-.04.34-.13.48-.25.15-.1.28-.23.36-.4l.14-.34c.06-.19.07-.38.03-.56 0-.13-.03-.25-.1-.36-.06-.18-.15-.33-.29-.46l-.29-.22c-.22-.13-.46-.19-.71-.19a13 13 0 0 0-1.09.16l-.73.14c-.18.04-.34.13-.47.25q-.225.15-.36.39l-.14.33a.94.94 0 0 0-.02.55c0 .13.03.24.09.35.06.17.15.32.29.45l.28.22c.22.13.45.19.7.19m1.24 11.14h.21c.08 0 .11 0 .23-.02s.15 0 .23-.04l.04-.02c.15-.05.3-.12.45-.18.23-.13.41-.32.54-.54a1.48 1.48 0 0 0 0-1.52c-.13-.23-.32-.41-.54-.54-.32-.14-.6-.27-.96-.26h-.21c-.22 0-.42.04-.6.14-.19.06-.36.17-.5.32-.15.14-.26.31-.32.5-.1.19-.14.39-.13.6l.06.42c.07.26.21.49.4.69l.32.24c.24.14.51.21.79.21Z"/></svg>