<?xml version="1.0" encoding="UTF-8"?><svg xmlns="http://www.w3.org/2000/svg" viewBox="0 0 180 180"><path d="M49.85 142.89c5.38-4.03 10.02-9.27 13.24-15.2 3.29-6.06 5.14-12.86 6.3-19.62.61-3.55 1.06-7.13 1.44-10.72.35-3.29.29-6.88 1.49-10 .77-2.02 2.69-4.28 5.06-3.76 2.17.48 3.42 3.07 3.98 5.02.89 3.08.64 6.4 1.14 9.56s1.84 6.19 4.28 8.34c5.66 4.98 13.37 4.54 20.29 3.15 3.41-.69 6.55-1.77 8.66-4.69 2-2.75 2.8-6.48 3.29-9.79.56-3.76.63-7.54.36-11.33-.23-3.19-1.12-6.96.23-10.01.83-1.89 3.6-4.03 5.37-1.99.85.98 1.17 2.37 1.43 3.6.39 1.85.63 3.74.88 5.62 1.05 7.77 1.29 16.24-3.58 22.85-.67.92-.24 2.36.6 2.98.96.72 2.14.59 3.04-.18 3.14-2.72 4.87-6.58 5.93-10.53.53-1.95.91-3.93 1.3-5.91s.57-4.24 1.62-5.93c.69-1.11 1.95-1.76 2.71-.45.83 1.44.89 3.44.96 5.05.19 4.12-.49 8.2-1.92 12.07-1.58 4.28-4.2 8.13-7.53 11.24-1.9 1.78.66 5.28 2.84 3.68 3.15-2.31 6.02-4.94 8.47-8a56 56 0 0 0 3.36-4.74c.49-.76 1.39-2.41 2.48-2.27-.25-.03.12.11.11.1.06.05.16.18.22.27.29.46.46 1 .54 1.56.22 1.46-.19 2.99-.63 4.37-1.07 3.36-3.2 6.33-5.68 8.8-3.21 3.2-7.04 5.64-10.87 8.01-2.41 1.49-.79 4.93 1.87 4.43 3.56-.68 6.66-2.6 9.63-4.6 1.53-1.03 3.06-2.08 4.67-2.97.94-.52 2.07-1.02 2.86.06.88 1.21-.59 3.18-1.2 4.2-.9 1.49-1.99 2.82-3.22 4.05-2.62 2.59-5.78 4.5-9.13 6-14.29 6.39-30.84 5.3-44.66 13-6.81 3.79-12.39 9.2-17.49 15.02-.89 1.01-1 2.54 0 3.54.91.91 2.64 1.02 3.54 0 4.71-5.38 9.95-10.43 16.21-13.98 6.95-3.94 14.74-5.39 22.48-6.96 8.54-1.74 17.33-3.49 25.07-7.67 3.46-1.87 6.71-4.35 9.21-7.41 2.52-3.1 5.72-7.71 3.66-11.79-1.06-2.1-3.31-3.4-5.63-3.49s-4.32 1.31-6.15 2.48c-3.54 2.26-6.88 5.06-11.11 5.87.62 1.48 1.24 2.95 1.87 4.43 7.73-4.79 15.77-10.45 18.66-19.53 1.11-3.48 1.56-8.23-1.39-11-1.59-1.49-3.88-1.84-5.86-.94-1.86.84-3.09 2.56-4.16 4.23-2.7 4.21-6 7.94-10.05 10.91l2.84 3.68c7.12-6.66 11.18-16.49 10.8-26.24-.17-4.2-1.15-11.01-6.77-10.84-5.93.18-6.93 6.98-7.82 11.48-.96 4.84-1.97 10.08-5.87 13.46 1.21.93 2.42 1.87 3.63 2.8 4.51-6.11 5.3-14.04 4.66-21.4-.32-3.75-.71-7.67-1.62-11.33-.73-2.94-2.35-5.84-5.39-6.84s-6.42.46-8.44 2.83c-2.44 2.87-2.81 6.66-2.57 10.28.25 3.7.64 7.34.41 11.06-.21 3.43-.72 7.31-2.34 10.39s-5.22 3.58-8.48 4.14c-3.5.6-7.2.81-10.58-.44-2.63-.97-4.81-2.92-5.65-5.63-1.04-3.33-.73-6.91-1.3-10.32-.96-5.71-5.93-12.28-12.44-9.81-7.54 2.86-7.44 11.93-8.14 18.62-.83 7.9-2.07 15.88-4.85 23.35-1.38 3.69-3.05 7.33-5.23 10.62-2.15 3.23-4.83 6.15-7.72 8.74-1.27 1.13.45 3.44 1.85 2.39Z"/><path d="M57.09 130.41c-3.02-2.23-6.67-3.35-10.41-2.8-3.16.46-6.31 2.36-7.34 5.52-1.16 3.55 1.15 6.87 3.73 9.08 2.9 2.48 6.08 4.66 9.17 6.9 6.33 4.58 12.51 9.2 18.09 14.69 4.99 4.91 12.01 10.68 19.52 7.81 3.74-1.43 6.56-4.58 6.76-8.69.2-4.02-2.49-8.93-5.78-11.15-1.83-1.23-3.63 1.11-2.8 2.8 1.28 2.61 3.84 4.62 3.97 7.74.09 2.29-1.48 4.08-3.55 4.88-5.63 2.2-11.07-2.92-14.74-6.49-4.68-4.55-9.71-8.58-14.99-12.4-2.57-1.86-5.17-3.69-7.74-5.56-2.28-1.66-5.12-3.33-6.8-5.65-.66-.91-1.08-1.97-.55-3.04.49-1 1.63-1.71 2.64-2.09 2.95-1.15 6.64-.55 9.26 1.11 1.72 1.09 3.13-1.52 1.56-2.67Z"/><path d="M45.51 139.59c-.46-.44-.91-.91-1.2-1.49-.39-.76-.46-1.64-.52-2.5-.03-.48-.07-.96.05-1.43.32-1.26 1.65-1.99 2.9-2.33 2.88-.79 6.09-.32 8.62 1.27-1.21.81-2.28 1.84-3.14 3.02-.64.88-1.17 1.86-1.91 2.66s-1.76 1.44-2.85 1.38"/><path d="M46.6 138.5c-.95-1.05-1.09-1.96-1.1-3.41 0-.05 0-.45-.01-.25.01-.1.19-.5.04-.23.03-.06.3-.41.08-.16.11-.12.22-.23.35-.33-.2.16 0 .02.11-.05.12-.07.24-.13.36-.2.36-.19-.17.03.19-.07.16-.04.32-.1.48-.13.33-.08.67-.14 1-.2.11-.02.43-.06.15-.03.19-.02.38-.04.57-.05.35-.02.7-.02 1.05-.01.19 0 .38.02.57.04.12.01.43.05.15 0 .69.1 1.37.27 2.03.51.06.02.55.21.24.08.18.07.35.16.52.24.34.17.67.36 1 .56v-3.43a15.4 15.4 0 0 0-4.22 4.22c-.25.37-.49.74-.74 1.1-.04.06-.43.56-.23.33-.13.15-.26.3-.39.44-.05.06-.5.43-.35.32s-.35.2-.41.24c-.45.25.31-.07-.19.06-.24.05-.23.06.01.02-.12 0-.24.01-.36 0-1.06-.03-2.08.95-2.03 2.03s.89 2.01 2.03 2.03c2.42.05 4.2-1.64 5.48-3.51.27-.4.52-.8.79-1.2.04-.06.47-.66.28-.41.12-.16.25-.31.38-.46.67-.76 1.37-1.37 1.97-1.79 1.22-.84 1.34-2.61 0-3.43-3.33-2.02-7.75-2.54-11.33-.87-1.87.87-3.12 2.55-3 4.66.05.99.13 2.06.49 3 .38 1.01 1.09 1.79 1.9 2.48 1.5 1.28 3.52-.69 2.18-2.18Zm32.5 26.67a85 85 0 0 1 9.44-8.11c-.02.52.46.9.83 1.26.97.93 1.48 2.23 1.96 3.49.18.47.36.95.43 1.46.25 1.82-1.15 3.59-2.88 4.22s-3.67.33-5.4-.33c-1.1-.42-2.22-1.04-2.74-2.1"/><path d="M80.24 166.31c1.46-1.42 2.98-2.78 4.54-4.09 1.49-1.26 3.01-2.56 4.69-3.56-.93-.53-1.85-1.06-2.78-1.6-.05 1.2.6 2.01 1.42 2.8.26.25-.03-.1.19.22.11.17.22.34.31.51s.19.36.28.54c0 0 .25.58.12.26.16.38.31.76.45 1.15.08.2.15.41.21.62.04.14.08.28.11.42-.02-.17-.02-.19-.01-.05 0 .07-.05.6 0 .36s-.12.37-.14.43c.12-.33-.05.07-.11.17-.04.08-.36.48-.11.19-.12.14-.25.27-.38.4-.37.37.27-.14-.18.15-.16.1-.32.19-.48.28-.21.1-.22.11-.03.02l-.21.07c-.25.06-.49.14-.74.18q-.21.045 0 0c-.11 0-.22.02-.33.02h-.66q-.165 0-.33-.03c.17.03.13.02-.12-.02-.44-.08-.87-.19-1.3-.32-.21-.07-.42-.14-.63-.22-.55-.2.32.17-.21-.09-.33-.17-.67-.34-.97-.57.3.23-.16-.18-.21-.24-.09-.1-.08-.09.03.04-.07-.1-.13-.21-.19-.32-.5-.92-1.84-1.28-2.73-.71-.94.61-1.23 1.74-.71 2.73 1.06 2.04 3.48 3.1 5.63 3.53 2.54.52 5.16.18 7.15-1.59 1.84-1.64 2.42-4.13 1.58-6.42-.38-1.05-.79-2.13-1.37-3.08-.31-.51-.68-1-1.1-1.43-.17-.17-.35-.34-.53-.51-.16-.17-.16-.17-.02 0-.4-.54-.41-.53-.04.02-.28-1.44-2.14-1.68-3.09-.82-1.53 1.39-3.2 2.63-4.76 3.99-1.56 1.37-3.06 2.8-4.51 4.29s.79 3.72 2.28 2.28Zm3.03-80.32c10.76-1.91 21.76-2.49 32.66-1.72-.2.7-.39 1.4-.59 2.1-6.8 1.23-13.53 2.9-20.12 4.99-2.81.89-5.67 1.87-8.62 1.73-.43-.02-.87-.07-1.22-.31-.31-.21-.51-.55-.69-.88-.71-1.35-1.15-2.84-1.29-4.36"/><path d="M83.27 87.49c5.44-.41 10.82-1.18 16.28-1.42s10.93-.16 16.38.24c-.66-.86-1.31-1.72-1.97-2.58-.2.7-.41 1.4-.62 2.1l1.44-1.44c-5.86.99-11.66 2.44-17.35 4.14-2.7.81-5.38 1.86-8.16 2.35-.73.13-1.47.18-2.21.18-.16 0-.39.03-.55-.01l.15.16c-.11-.16-.2-.33-.29-.51-.62-1.14-.86-2.39-1.15-3.64-.49-2.09-3.68-1.6-3.7.5-.03 2.72 1.12 6.97 4.21 7.51 3.26.57 6.75-.66 9.82-1.63 6.68-2.11 13.47-3.72 20.34-5.07.69-.13 1.27-.79 1.44-1.44.19-.7.37-1.41.56-2.11.36-1.35-.65-2.5-1.97-2.58-5.54-.36-11.09-.38-16.63-.03-5.46.34-11.15.87-16.43 2.35-1.58.44-1.33 3.08.4 2.95Zm3.35 10.74c5.45.78 10.71-1.86 15.98-3.47 4.25-1.3 8.68-1.93 13.1-2.44.77 2.09-.21 4.68-2.17 5.74-.62.34-1.31.53-1.99.72-4.9 1.36-9.79 2.72-14.69 4.07-2.09.58-4.24 1.16-6.39.87s-4.29-1.69-4.76-3.81"/><path d="M86.22 99.67c4.97.82 9.61-.89 14.25-2.48 4.99-1.71 10-2.52 15.22-3.06l-1.75-1.33c.27.9.2 1.77-.27 2.6-.58 1.01-1.56 1.31-2.63 1.62-3.07.88-6.16 1.71-9.24 2.55-2.89.79-5.86 1.88-8.84 2.27-2 .26-4.84-.13-5.5-2.41-.66-2.27-4.1-1.32-3.54.98.79 3.21 3.84 5.04 6.99 5.26 2.02.14 4.04-.36 5.97-.89s3.93-1.1 5.89-1.65 3.94-1.12 5.92-1.66c1.84-.51 3.85-.85 5.56-1.71 2.83-1.42 4.18-4.93 3.18-7.9-.23-.68-.94-1.43-1.75-1.33-5.06.66-10.19 1.51-15.03 3.15-4.58 1.54-9.11 3.52-14.04 3.09-1.66-.15-2.06 2.66-.4 2.93Z"/><path d="M92.98 107.05c3.21 1.43 6.4 1.75 9.86 1.2 1.68-.27 3.35-.62 5.02-.95s3.56-.56 5.2-1.18c1.93-.72 1.19-3.46-.85-3.09-3.13.58-6.24 1.34-9.36 1.97-3.01.61-5.91.59-8.82-.46-1.44-.52-2.47 1.87-1.05 2.5ZM79.87 70.79c-3.46-1.66-7.06-3.04-10.47-4.79-2.72-1.39-5.56-2.98-7.38-5.5-3.54-4.9-4.81-11.41-5.4-17.3a57 57 0 0 1-.14-10.11c.2-2.57.63-5.48 1.67-7.68 2.13-4.51 6.34-7.44 10.91-9.23 10-3.92 21.09-4.1 31.74-3.6 6.24.3 12.94.96 18.48 4.05 2.55 1.42 4.88 3.42 6.06 6.17 1.31 3.04 1.6 6.51 1.82 9.78.49 7.27 1.4 15.09-1.85 21.9-1.47 3.09-3.75 5.59-5.85 8.25s-4.11 5.92-4.81 9.39c-.35 1.75-.37 3.4.04 5.14.45 1.91 3.59 1.54 3.47-.47-.21-3.54 1.41-6.17 3.55-8.82 2.27-2.79 4.76-5.51 6.71-8.54 2.42-3.77 3.61-8.13 4.12-12.54.45-3.9.12-7.76-.1-11.66-.41-7.4-.92-15.44-7.02-20.54-5.61-4.69-13.03-6.15-20.13-6.75-5.71-.48-11.51-.5-17.22-.15s-12.01 1.18-17.7 3.05c-5.57 1.83-10.92 4.72-14.45 9.53-3.73 5.08-4.22 12.02-4 18.11.26 7.02 1.63 14.25 4.8 20.57 1.33 2.65 3.08 5.01 5.46 6.8 3.19 2.4 6.97 3.91 10.65 5.38 1.83.73 3.67 1.43 5.48 2.21s3.36-1.79 1.55-2.66Zm-47.58 69.17c-.35 7.65 5.85 13.06 12.25 16 3.56 1.64 6.97 3.35 10.06 5.8 1.48 1.17 2.93 2.4 4.23 3.77.7.74 1.39 1.49 2.07 2.26s1.26 1.61 2.18 2.04c1.05.5 2.55-.34 2.12-1.63-.56-1.69-2.26-3.06-3.46-4.33-1.25-1.32-2.48-2.66-3.79-3.91-2.77-2.62-6-4.36-9.28-6.22-3.03-1.72-6.27-3.29-8.92-5.57-2.42-2.08-4.7-4.85-4.8-8.2-.05-1.71-2.58-1.71-2.66 0Zm-5.07 12.45c.33 1.05.53 2.11 1.05 3.1.54 1.04 1.25 2.01 2.06 2.86 1.69 1.79 3.83 3.16 5.98 4.32s4.36 1.92 6.44 3.08c1.05.58 2.08 1.21 3.04 1.92s1.75 1.63 2.87 2.1c.99.42 2.07-.8 1.74-1.74-.7-2.02-3.19-3.48-4.92-4.57-1.92-1.21-3.92-2.34-5.94-3.39s-4.04-2.09-5.82-3.5c-.85-.67-1.66-1.43-2.39-2.23-.67-.73-1.5-1.64-1.83-2.58-.5-1.42-2.74-.83-2.28.63m-1.38 13.4c1.16 1.79 3.18 3.12 5.36 3.13.71 0 1.3-.54 1.4-1.23.04-.3 0-.64-.17-.91-.19-.29-.49-.6-.85-.65-.61-.09-1.21-.22-1.79-.46l.35.15c-.49-.21-.96-.46-1.38-.79l.28.22c-.35-.28-.67-.59-.95-.94l.21.28-.12-.15c-.22-.29-.45-.52-.81-.62-.33-.09-.76-.05-1.05.14-.6.38-.9 1.22-.49 1.86ZM37.12 33.5c-.85-.1-1.69-.21-2.54-.3-.42-.04-.85-.07-1.27-.11l-.59-.05c-.35-.03-.67 0-1.01.09-.66.16-1.21.86-1.18 1.54.01.28.09.56.22.81.21.39.57.57.96.74.49.2 1.07.18 1.6.22.42.03.85.07 1.27.09.85.05 1.69.07 2.54.11s1.61-.75 1.57-1.57c-.02-.41-.15-.83-.46-1.11-.33-.3-.67-.41-1.11-.46m2.01 17.53c-1.96.35-3.83.96-5.61 1.86-.84.42-1.14 1.67-.64 2.45.25.38.61.72 1.07.82l.48.06q.48 0 .9-.24c.09-.04.18-.08.27-.11l-.43.18c1.59-.66 3.23-1.22 4.92-1.57.42-.09.86-.46 1.07-.82.22-.38.32-.95.18-1.38s-.41-.85-.82-1.07c-.45-.24-.88-.27-1.38-.18Zm5.57 16.93c-.28.41-.57.81-.87 1.21l.25-.32c-.3.39-.62.77-.94 1.15-.16.19-.33.37-.5.55-.25.27-.47.56-.69.85l.25-.33-.21.27c-.27.34-.46.67-.46 1.12 0 .39.17.85.46 1.12s.7.48 1.12.46.79-.18 1.12-.46c.31-.26.59-.52.85-.83.34-.4.66-.81.98-1.23.49-.64.94-1.29 1.36-1.97s.17-1.76-.56-2.15c-.36-.19-.81-.29-1.21-.16s-.7.37-.94.72Zm12.75 14.99c2 0 2-3.11 0-3.11s-2 3.11 0 3.11M42.09 21.46c2.17 0 2.18-3.38 0-3.38s-2.18 3.38 0 3.38m99.98 1.35c1.34-1 2.83-1.8 4.36-2.48.33-.14.66-.61.73-.95.08-.36.06-.7-.08-1.04-.3-.7-1.12-1.16-1.88-.92-1.89.6-3.55 1.61-5.04 2.91-.28.24-.48.75-.46 1.12s.12.67.34.96c.2.26.49.49.82.57.39.09.88.09 1.22-.16Zm4.18 12.58c.6-.06 1.2-.13 1.8-.19l.9-.1c.25-.03.5-.05.75-.12l.46-.13c.69-.19 1.12-.88 1.03-1.58s-.69-1.23-1.41-1.25c-.3 0-.6-.02-.9.02l-.86.12-1.76.24c-.21 0-.4.04-.57.13-.18.06-.35.16-.48.31-.26.26-.45.68-.44 1.06s.14.79.44 1.06c.27.25.67.48 1.06.44Zm1.03 15.23c2.05 0 2.05-3.19 0-3.19s-2.05 3.19 0 3.19m-3.51 12.95-.22.2q-.255.24-.36.57c-.11.21-.16.44-.15.68 0 .24.04.47.15.68q.105.33.36.57l.36.27c.27.16.57.24.89.24l.47-.06q.45-.12.78-.45l.2-.22c.17-.16.29-.34.36-.56.11-.21.16-.43.15-.67 0-.24-.04-.46-.15-.67-.07-.22-.19-.4-.36-.56l-.35-.27c-.27-.16-.56-.24-.88-.24l-.46.06c-.3.08-.55.23-.77.45Z"/><path d="M97.67 86.39c-.32-6.9-.9-13.76-1.96-20.6q-.78-4.995-1.8-9.96c-.64-3.09-1.23-6.25-2.25-9.24-.93-2.72-2.38-5.3-4.8-6.96-2.18-1.49-5.16-2.15-7.66-1.13-5.35 2.17-5.28 9.08-2.1 13.03 3.46 4.29 9.6 6.19 14.91 6.49 5.71.33 11.87-1.33 16.36-4.96 4-3.24 6.06-9.19 2.49-13.56-3.64-4.46-10.18-2.22-12.82 2.12-1.75 2.87-1.86 6.32-1.55 9.57.36 3.76.97 7.51 1.56 11.24 1.22 7.76 2.69 15.48 4.39 23.14.47 2.1 3.69 1.21 3.22-.89a416 416 0 0 1-3.45-17.07c-.51-2.82-.98-5.64-1.43-8.47s-.95-5.44-1.13-8.17c-.25-3.85.62-9.83 5.61-10.03 1.68-.07 2.87 1.06 3.32 2.61.53 1.81 0 3.61-1.07 5.11-2.59 3.59-7.6 5.38-11.83 5.82-4.62.48-9.52-.4-13.45-2.95-1.71-1.1-3.43-2.76-3.77-4.86-.25-1.55.2-3.56 1.7-4.34 1.57-.82 3.53-.22 4.85.82 1.85 1.45 2.71 3.87 3.34 6.05 1.71 5.88 2.86 11.99 3.85 18.03 1.04 6.34 1.89 12.73 2.34 19.13.14 1.99 3.22 2.02 3.12 0Z"/></svg>