<?xml version="1.0" encoding="UTF-8"?><svg xmlns="http://www.w3.org/2000/svg" viewBox="0 0 180 180"><path d="M56.03 52.33c-6.18 1.55-12.44 3.1-17.89 6.54-2.78 1.75-5.2 3.91-7.16 6.55-2.18 2.95-3.45 6.46-4.38 9.98-2.07 7.77-3.26 15.77-5.38 23.52-1.04 3.78-2.72 6.92-5.08 10.04s-4.31 5.93-5.49 9.51-1.52 7.19-1.63 10.83c-.06 1.87.02 3.71.12 5.57s.17 3.63.79 5.32c1.29 3.49 4.48 5.85 7.21 8.19 3.11 2.65 6.35 5.13 9.64 7.55s6.5 4.6 9.81 6.83 6.35 4.39 9.76 6.2c3.2 1.7 6.78 3.16 10.48 3.08s7.38-1.77 9.87-4.57 3.3-6.46 4.28-9.96c.9-3.2 2.13-6.34 4.35-8.87 2.07-2.37 4.94-4.11 8.16-4.2 1.57-.04 3.2.17 4.6.93s2.72 1.79 4.22 2.46c1.57.7 3.2.97 4.88.49 2.3-.66 1.29-4.32-.99-3.59-1.39.45-2.55-.26-3.72-.98-1.44-.89-2.78-1.99-4.33-2.68-3.06-1.38-6.56-1.28-9.67-.1-6.77 2.57-9.84 9.1-11.43 15.68-.81 3.35-1.81 6.52-4.48 8.87-2.37 2.09-5.95 3.02-9 2.16-3.31-.94-6.03-3.05-8.81-4.97-3.22-2.21-6.51-4.32-9.74-6.51-6.25-4.25-12.62-8.51-18.44-13.35-1.08-.89-2.27-1.95-2.85-3.26-.71-1.62-.5-3.62-.45-5.34.11-3.36.03-6.76.54-10.09.53-3.51 1.68-6.72 3.67-9.67s4.26-5.49 5.73-8.66c1.61-3.46 2.44-7.17 3.35-10.86s1.86-7.58 2.78-11.38 1.63-8.03 3.22-11.77c1.35-3.18 3.51-5.86 6.21-8 5.17-4.11 11.89-6.39 18.11-8.37 1.98-.63 1.17-3.63-.86-3.12m5.33 4.04c6.65 2.63 13.23 5.39 19.62 8.61 2.91 1.47 5.93 2.87 8.69 4.61 2.45 1.54 4.61 3.56 5.56 6.36s1.05 5.82 1.09 8.78c.05 3.42.08 6.84.11 10.25.04 5.43-.04 10.87.15 16.3.24 6.84.12 13.78.85 20.59.21 1.97 2.93 2.01 3.09 0 .53-6.44.21-12.92.49-19.37.25-5.69.08-11.42.04-17.12-.03-3.42-.06-6.83-.1-10.25s-.12-6.82-1.13-10.04c-2.12-6.74-8.23-10.08-14.28-12.81-7.58-3.42-15.37-6.53-23.36-8.89-1.93-.57-2.6 2.25-.81 2.95Z"/><path d="M91.11 146.6c-1.7-2.44-4.93-3.36-7.9-3.29-1.32.03-2.65.22-3.87.73-2.48 1.04-4.25 3.33-5.3 5.8s-1.48 5.15-2 7.79c-.14.72-.3 1.46-.71 2.07-.41.6-1.04 1.01-1.47 1.6s-.6 1.49-.06 1.98l-1.29-.75c3.87 6.81 13.09 5.94 18.43 1.56 4.5-3.69 7.92-12.13 4.19-17.5Zm-6.16 9.76c-1.84 2.79-7.19 2.91-6.41-1.31.41-2.24 2.03-5.06 4.68-4.81.02 0 .04.01.06.02.09 0 .17-.03.25-.03 3.4-.28 2.71 4.18 1.42 6.14Z"/><path d="M92.83 145.59c-4.2-5.71-13.85-5.71-18.32-.34-2.35 2.82-3.34 6.33-4.03 9.87-.18.9-.3 1.82-.53 2.71-.21.82-.74 1.17-1.28 1.78-1.35 1.5-1.65 3.49-.29 5.09l2.42-3.14-1.29-.75c-1.73-1-3.75 1-2.74 2.74 3.15 5.36 9.48 6.98 15.24 5.32s10.48-6.65 12.11-12.65c.96-3.54.8-7.49-1.29-10.62-1.42-2.13-4.89-.13-3.45 2.02 2.73 4.09.84 9.76-2.05 13.26-2.69 3.24-7.28 5.25-11.49 4.53-2.42-.42-4.37-1.75-5.61-3.87l-2.74 2.74 1.29.75c2.05 1.19 3.85-1.46 2.42-3.14.15.74.22.97.22.7 0-.05.02-.09.07-.13.19-.05.51-.5.64-.64.51-.51.95-1.07 1.25-1.73.61-1.33.75-2.86 1.03-4.28.53-2.64 1.17-5.39 2.83-7.58 1.56-2.06 3.75-2.91 6.29-2.9 2.06 0 4.55.54 5.85 2.3.64.87 1.73 1.3 2.74.72.86-.5 1.36-1.86.72-2.74Z"/><path d="M83.22 155.35c-.06.09-.12.17-.18.25l.31-.4c-.22.28-.47.52-.75.74l.4-.31c-.33.25-.69.46-1.07.62l.48-.2c-.39.16-.8.28-1.22.34l.53-.07q-.54.075-1.08 0l.53.07c-.27-.04-.52-.1-.77-.2l.48.2c-.19-.08-.37-.18-.53-.3l.4.31c-.15-.11-.28-.24-.4-.39l.31.4c-.12-.16-.21-.32-.29-.5l.2.48c-.09-.22-.14-.44-.18-.68l.07.53c-.04-.32-.03-.65.01-.97l-.07.53c.09-.66.29-1.3.54-1.91l-.2.48c.23-.53.51-1.04.87-1.5l-.31.4c.26-.34.56-.65.9-.91l-.4.31c.25-.19.52-.35.81-.47l-.48.2c.27-.11.55-.19.84-.23l-.53.07c.25-.03.5-.03.76-.01l-.53-.07c.47.14.83.06 1.3 0l-.53.07c.26-.03.53-.03.79 0l-.53-.07c.18.03.35.07.52.14l-.48-.2q.225.09.42.24l-.4-.31q.18.15.33.33l-.31-.4c.11.14.19.29.26.45l-.2-.48c.11.26.17.53.21.81l-.07-.53c.05.43.04.87-.02 1.3l.07-.53c-.09.66-.27 1.31-.53 1.92l.2-.48c-.14.32-.3.63-.49.92-.57.88-.21 2.25.72 2.74 1 .53 2.13.22 2.74-.72.8-1.22 1.2-2.7 1.32-4.14.14-1.69-.43-3.41-1.87-4.39-.98-.67-2.17-.68-3.29-.53l.53-.07h-.08c.18.03.35.06.53.08-1.08-.33-2.36.02-3.35.48-.75.36-1.43.95-1.95 1.61-1.16 1.46-1.89 3.22-2.04 5.08-.14 1.65.62 3.25 2.01 4.14 1.22.78 2.81.84 4.19.52 1.64-.38 3.07-1.41 4-2.8.59-.87.2-2.25-.72-2.74-1.01-.53-2.11-.21-2.74.72ZM131.47 126c-1.4-2.02-4.08-2.78-6.54-2.72-1.09.02-2.2.18-3.2.61-2.05.86-3.52 2.76-4.39 4.8-.87 2.05-1.23 4.27-1.65 6.45-.12.6-.25 1.21-.59 1.71-.34.49-.86.84-1.22 1.32s-.49 1.24-.05 1.64l-1.07-.62c3.21 5.63 10.83 4.92 15.25 1.29 3.73-3.06 6.56-10.03 3.46-14.48m-5.1 8.08c-1.52 2.31-5.95 2.41-5.31-1.09.34-1.85 1.68-4.19 3.87-3.98.02 0 .03.01.05.02.07 0 .14-.02.21-.03 2.81-.23 2.24 3.45 1.17 5.08Z"/><path d="M133.2 124.99c-3.6-4.89-11.84-4.98-15.7-.35-1.99 2.38-2.84 5.33-3.42 8.32-.15.74-.26 1.5-.44 2.24-.15.61-.56.87-.97 1.32-1.25 1.39-1.49 3.22-.24 4.7l2.42-3.14-1.07-.62c-1.73-1-3.75 1-2.74 2.74 2.68 4.57 8.09 5.98 13 4.56s8.88-5.63 10.26-10.71c.82-3.02.68-6.39-1.1-9.05-.6-.9-1.76-1.29-2.74-.72-.89.52-1.32 1.83-.72 2.74 2.13 3.18.71 7.71-1.65 10.55-1.17 1.41-2.67 2.49-4.26 3.05-1.69.6-3.44.88-4.92.61-1.09-.2-1.67-.43-2.56-.98-.7-.43-1.39-1.24-1.88-2.06l-2.74 2.74 1.07.62c2.05 1.19 3.85-1.46 2.42-3.14 0 0 .41.93.24.96.15-.03.43-.43.53-.53.44-.44.82-.93 1.09-1.5.53-1.13.65-2.41.89-3.62.43-2.15.94-4.42 2.3-6.19 1.23-1.6 2.92-2.24 4.91-2.23 1.57 0 3.54.38 4.54 1.73.64.87 1.73 1.3 2.74.72.86-.5 1.36-1.86.72-2.74Z"/><path d="m124.64 133.07-.15.21.31-.4c-.18.23-.39.43-.62.61l.4-.31c-.27.21-.57.38-.88.51l.48-.2c-.32.13-.66.23-1.01.28l.53-.07c-.3.04-.6.04-.89 0l.53.07c-.22-.03-.43-.08-.64-.17l.48.2c-.16-.07-.3-.15-.44-.25l.4.31c-.12-.09-.23-.2-.33-.32l.31.4c-.1-.13-.18-.27-.24-.41l.2.48c-.07-.18-.12-.37-.15-.56l.07.53c-.03-.27-.02-.53.01-.8l-.07.53c.08-.54.24-1.07.45-1.58l-.2.48c.19-.44.43-.86.72-1.25l-.31.4c.22-.28.46-.54.75-.76l-.4.31c.21-.16.43-.29.67-.39l-.48.2c.23-.09.46-.15.7-.19l-.53.07c.21-.02.42-.03.63 0l-.53-.07c.45.14.81.06 1.26 0l-.53.07c.22-.02.44-.02.65 0l-.53-.07c.15.02.29.06.43.11l-.48-.2c.12.05.24.12.35.2l-.4-.31q.15.12.27.27l-.31-.4c.09.12.16.24.22.38l-.2-.48c.09.22.14.44.17.67l-.07-.53c.04.36.03.72-.01 1.08l.07-.53c-.07.55-.22 1.08-.44 1.59l.2-.48c-.11.27-.25.52-.4.76-.57.88-.21 2.25.72 2.74 1 .53 2.13.22 2.74-.72.69-1.06 1.03-2.35 1.14-3.6.13-1.53-.43-3.05-1.72-3.93a3.1 3.1 0 0 0-1.1-.46c-.68-.14-1.21-.11-1.89-.01l.53-.07h-.07c.18.03.35.06.53.08-.57-.18-1.23-.09-1.81 0-.43.07-.83.25-1.23.43-.65.31-1.24.82-1.68 1.38-1.02 1.29-1.65 2.81-1.79 4.45-.12 1.49.58 2.92 1.84 3.73 1.09.7 2.5.75 3.73.47 1.45-.33 2.7-1.25 3.52-2.47.28-.41.33-1.07.2-1.54s-.49-.97-.92-1.2c-1.01-.53-2.11-.21-2.74.72Zm33.64-20.22c-1.4-2.02-4.08-2.78-6.54-2.72-1.09.02-2.2.18-3.2.61-2.05.86-3.52 2.76-4.39 4.8-.87 2.05-1.23 4.27-1.65 6.45-.12.6-.25 1.21-.59 1.71-.34.49-.86.84-1.22 1.32s-.49 1.24-.05 1.64l-1.07-.62c3.21 5.63 10.83 4.92 15.25 1.29 3.73-3.06 6.56-10.03 3.46-14.48m-5.1 8.07c-1.52 2.31-5.95 2.41-5.31-1.09.34-1.85 1.68-4.19 3.87-3.98.02 0 .03.01.05.02.07 0 .14-.02.21-.03 2.81-.23 2.24 3.45 1.17 5.08Z"/><path d="M160 111.84c-3.6-4.89-11.84-4.98-15.7-.35-1.99 2.38-2.84 5.33-3.42 8.32-.15.74-.26 1.5-.44 2.24-.15.61-.56.87-.97 1.32-1.25 1.39-1.49 3.22-.24 4.7l2.42-3.14-1.07-.62c-1.73-1-3.75 1-2.74 2.74 2.68 4.57 8.09 5.98 13 4.56s8.88-5.63 10.26-10.71c.82-3.02.68-6.39-1.1-9.05-.6-.9-1.76-1.29-2.74-.72-.89.52-1.32 1.83-.72 2.74 2.13 3.18.71 7.71-1.65 10.55-1.17 1.41-2.67 2.49-4.26 3.05-1.69.6-3.44.88-4.92.61-1.09-.2-1.67-.43-2.56-.98-.7-.43-1.39-1.24-1.88-2.06l-2.74 2.74 1.07.62c2.05 1.19 3.85-1.46 2.42-3.14 0 0 .41.93.24.96.15-.03.43-.43.53-.53.44-.44.82-.93 1.09-1.5.53-1.13.65-2.41.89-3.62.43-2.15.94-4.42 2.3-6.19 1.23-1.6 2.92-2.24 4.91-2.23 1.57 0 3.54.38 4.54 1.73.64.87 1.73 1.3 2.74.72.86-.5 1.36-1.86.72-2.74Z"/><path d="m151.45 119.91-.15.21.31-.4c-.18.23-.39.43-.62.61l.4-.31c-.27.21-.57.38-.88.51l.48-.2c-.32.13-.66.23-1.01.28l.53-.07c-.3.04-.6.04-.89 0l.53.07c-.22-.03-.43-.08-.64-.17l.48.2c-.16-.07-.3-.15-.44-.25l.4.31c-.12-.09-.23-.2-.33-.32l.31.4c-.1-.13-.18-.27-.24-.41l.2.48c-.07-.18-.12-.37-.15-.56l.07.53c-.03-.27-.02-.53.01-.8l-.07.53c.08-.54.24-1.07.45-1.58l-.2.48c.19-.44.43-.86.72-1.25l-.31.4c.22-.28.46-.54.75-.76l-.4.31c.21-.16.43-.29.67-.39l-.48.2c.23-.09.46-.15.7-.19l-.53.07c.21-.02.42-.03.63 0l-.53-.07c.45.14.81.06 1.26 0l-.53.07c.22-.02.44-.02.65 0l-.53-.07c.15.02.29.06.43.11l-.48-.2c.12.05.24.12.35.2l-.4-.31q.15.12.27.27l-.31-.4c.09.12.16.24.22.38l-.2-.48c.09.22.14.44.17.67l-.07-.53c.04.36.03.72-.01 1.08l.07-.53c-.07.55-.22 1.08-.44 1.59l.2-.48c-.11.27-.25.52-.4.76-.57.88-.21 2.25.72 2.74 1 .53 2.13.22 2.74-.72.69-1.06 1.03-2.35 1.14-3.6.13-1.53-.43-3.05-1.72-3.93a3.1 3.1 0 0 0-1.1-.46c-.68-.14-1.21-.11-1.89-.01l.53-.07h-.07c.18.03.35.06.53.08-.57-.18-1.23-.09-1.81 0-.43.07-.83.25-1.23.43-.65.31-1.24.82-1.68 1.38-1.02 1.29-1.65 2.81-1.79 4.45-.12 1.49.58 2.92 1.84 3.73 1.09.7 2.5.75 3.73.47 1.45-.33 2.7-1.25 3.52-2.47.28-.41.33-1.07.2-1.54s-.49-.97-.92-1.2c-1.01-.53-2.11-.21-2.74.72ZM33.27 68.86c6.74 5.85 14.78 10.65 23.12 13.82 4.23 1.61 8.78 3.14 13.36 2.58 4.28-.52 7.99-2.8 11.82-4.61 4.88-2.3 9.96-4.08 15.15-5.52 2.44-.68 1.4-4.48-1.05-3.8-4.29 1.19-8.49 2.83-12.48 4.82s-7.43 4.47-11.59 5.63c-4.39 1.22-8.32-.44-12.34-2.11s-7.92-3.51-11.74-5.56c-4.29-2.31-8.35-4.97-12.37-7.72-1.46-1-3.25 1.3-1.9 2.47Zm-11.91 38.52c4.37 3.77 8.83 7.44 13.57 10.74 2.43 1.69 4.96 3.23 7.58 4.61 2.44 1.28 4.97 2.28 7.52 3.32s5.34 1.83 8.18 1.92 5.32-.83 7.88-1.75c5.28-1.89 10.45-4.01 15.57-6.29 2.96-1.32 5.92-2.64 8.9-3.92q2.025-.87 4.08-1.71c1.6-.65 3.15-1.16 4.52-2.23s.26-3.68-1.45-3.49c-2.66.29-5.24 1.85-7.66 2.97s-4.85 2.29-7.27 3.44c-4.89 2.32-9.76 4.67-14.65 6.99-2.46 1.17-4.93 2.37-7.61 2.93-1.21.25-2.47.33-3.69.14-1.39-.21-2.75-.87-4.04-1.39-2.45-1-4.79-2.31-7.16-3.51-2.5-1.27-4.92-2.68-7.28-4.2-5.25-3.37-10.17-7.23-15.25-10.85-1.33-.95-2.99 1.2-1.75 2.27Z"/><path d="M62.26 124.79c-3.58 1.67-6.35 5.33-8.54 8.49-2.31 3.33-3.72 7.26-4.27 11.27-.67 4.87-.5 9.9-.56 14.81-.04 3.7-.69 8.71 3.08 10.89 2.19 1.27 4.13-2.07 1.98-3.39-1.09-.67-1.14-2.32-1.18-3.47-.06-1.98 0-3.97-.01-5.96-.02-4.25-.36-8.64.55-12.83.73-3.38 2.06-6.59 3.79-9.58.86-1.49 1.94-2.85 3.1-4.11 1.23-1.33 2.68-2.42 3.93-3.72s-.32-3.14-1.87-2.42Zm-44.05 5.5c0 .06.02.12.03.17l-.06-.42c.11.86.14 1.72.02 2.58l.06-.47c-.08.55-.22 1.08-.43 1.59l.18-.43c-.24.56-.66 1.13-.6 1.76s.29 1.16.86 1.49 1.17.27 1.74 0c.76-.35 1.11-1.38 1.36-2.12.19-.59.29-1.21.35-1.83.12-1.22-.14-2.44-.69-3.53-.35-.68-1.26-.91-1.92-.63-.3.12-.58.34-.74.63-.21.39-.22.75-.16 1.19Zm20.52 13.88c0 .06.02.12.03.17l-.06-.42c.11.86.14 1.72.02 2.58l.06-.47c-.08.55-.22 1.08-.43 1.59l.18-.43c-.24.56-.66 1.13-.6 1.76s.29 1.16.86 1.49 1.17.27 1.74 0c.76-.35 1.11-1.38 1.36-2.12.19-.59.29-1.21.35-1.83.12-1.22-.14-2.44-.69-3.53-.35-.68-1.26-.91-1.92-.63-.3.12-.58.34-.74.63-.21.39-.22.75-.16 1.19Zm38.21-84.74c.15-5.28 1.58-10.79 4.41-15.28 2.32-3.68 5.65-6.49 9.21-8.93 4.79-3.29 9.82-5.9 15.48-7.34 6.24-1.58 12.38-1.76 18.76-1.15s12.5 1.51 18.08 4.35c2.77 1.41 5.4 3.2 7.49 5.52 1.76 1.96 2.87 4.38 4.16 6.65 1.63 2.86 3.46 5.57 4.82 8.57 1.25 2.76 2.53 6.25 1.27 9.22-1.05 2.5-3.38 4.3-5.63 5.68-2.81 1.71-5.83 3.03-8.95 4.03-7.24 2.32-14.83 2.85-22.38 2.74-4.3-.06-8.6-.22-12.9-.41s-8.6-.15-12.91-.17c-2.57-.01-2.56 3.89 0 3.98 8.28.31 16.51 1.34 24.82 1.13 7.36-.19 14.73-1.01 21.85-2.95a55.4 55.4 0 0 0 10.2-3.89c2.75-1.39 5.5-3.08 7.51-5.46 2.36-2.79 3.26-6.05 2.71-9.66s-2.2-6.97-3.97-10.08c-1.62-2.85-3.25-5.72-4.93-8.53s-3.87-5.11-6.5-7.07c-5.59-4.17-12.19-6.01-19.01-6.91s-13.51-1.34-20.2-.12-13.18 3.32-19.12 6.76c-4.73 2.74-9.09 6.05-12.33 10.5-1.77 2.44-3.07 5.2-3.93 8.08-1.04 3.52-1.16 7.09-1.1 10.73.04 1.99 3.04 1.99 3.09 0Z"/><path d="M119.32 30.91c-.05-3.62-.19-7.16-.73-10.74s-1.24-7.04-1.79-10.56l-1.81 2.37c8.36.12 16.72.68 25.02 1.69l-1.66-2.9c-1.93 2.96-5.19 5.02-8.44 6.28-2.01.78-4.11 1.31-6.22 1.72s-4.41.47-6.45 1.13-1.71 3.75.52 3.84c2.43.1 5.11-.56 7.49-1.05s4.57-1.12 6.74-2.04c3.98-1.68 7.32-4.29 9.69-7.93.88-1.35-.32-2.74-1.66-2.9-8.31-.99-16.66-1.52-25.02-1.58-1.32 0-2 1.2-1.81 2.37 1.11 6.76 2.92 13.42 3.01 20.31.03 2.01 3.15 2.01 3.12 0Z"/><path d="M119.07 20.88c.37-2.36.14-4.82-.67-7.07-.11-.31-.23-.65-.11-.96.2-.49.87-.54 1.4-.51 5.74.36 11.47.96 17.15 1.81a68.5 68.5 0 0 1-17.22 5.82"/><path d="M120.55 21.29c.49-1.32.46-2.94.31-4.33-.08-.72-.18-1.44-.35-2.14s-.46-1.4-.58-2.12v.94q-1.26.57-.48.48h.23c.37.02.73.07 1.1.09.73.06 1.46.11 2.2.17 1.53.13 3.05.27 4.57.43q4.41.465 8.79 1.14l-.44-3.4c-5.37 2.49-11 4.37-16.8 5.53-1.04.21-1.64 1.44-1.37 2.41.3 1.09 1.37 1.57 2.41 1.37 6.14-1.19 12.09-3.22 17.64-6.1 1.32-.69 1.16-3.17-.44-3.4-5.19-.75-10.4-1.33-15.63-1.69-1.1-.07-2.34-.29-3.41.05-1.33.42-2.02 1.73-1.72 3.07.25 1.13.71 2.18.87 3.34.17 1.25 0 2.5.09 3.75.12 1.76 2.42 2.05 3.02.41Zm-7.52 12.15c.87.1 1.41.17 2.3.21.74.03 1.48.05 2.21.01.83-.04 1.66-.15 2.49-.26s1.79-.18 2.47-.64c.58-.4.98-1.13.75-1.84s-.82-1.1-1.57-1.2c-.44-.06-.97.11-1.42.19-.32.06-.64.13-.96.2-.38.07-.75.14-1.13.19-.01 0-.53.07-.21.03l-.71.09c-.25.03-.29.04-.11.01-.11.01-.22.03-.33.04-.16.02-.33.04-.49.05-.36.03-.71.06-1.07.08-.74.04-1.47.08-2.22.06s-1.42.65-1.39 1.39c.04.82.61 1.3 1.39 1.39M96.67 47.86l.23-.02c.21 0 .4-.04.58-.13.19-.06.35-.16.48-.31.15-.14.25-.3.31-.48.09-.18.14-.37.13-.58l-.05-.4q-.105-.375-.39-.66l-.3-.23c-.23-.14-.49-.2-.76-.2l-.23-.02c-.21 0-.4.04-.58.13-.19.06-.35.17-.49.31-.15.14-.25.3-.31.49-.09.18-.14.38-.13.58l.05.4c.07.26.2.48.39.67l.31.24c.24.14.49.21.76.21m9.82-3.73c1.97 0 1.97-3.06 0-3.06s-1.97 3.06 0 3.06m-.47 9.47c1.82 0 1.82-2.83 0-2.83s-1.82 2.83 0 2.83m9.58-4.07c2 0 2-3.11 0-3.11s-2 3.11 0 3.11m23.75-1.32-.02-.23c0-.21-.04-.4-.13-.58-.06-.19-.17-.35-.31-.49-.14-.15-.3-.25-.49-.31-.18-.09-.38-.14-.58-.13l-.4.05c-.26.07-.48.2-.67.39l-.24.31c-.14.24-.21.49-.21.76l-.02.23c0 .21.04.41.13.59.06.19.17.35.32.49.14.15.3.25.49.32.18.1.38.14.59.13l.41-.05c.26-.07.48-.2.68-.39l.24-.31c.14-.24.21-.5.21-.77Zm4.78-4.58c1.92 0 1.92-2.98 0-2.98s-1.92 2.98 0 2.98m2.8 9.43c2.03 0 2.03-3.16 0-3.16s-2.03 3.16 0 3.16M97.66 85.84c1.13 2.24 3.66 3.63 6.17 3.39 2.67-.25 4.72-2.07 5.66-4.52l-3.21.42c1.54 3.21 3.68 6.54 7.61 6.79 1.72.11 3.44-.53 4.53-1.89 1.21-1.51 1.31-3.38 1.41-5.23l-3.08 1.28c2.49 3.04 6.5 6.47 10.71 4.77 3.53-1.43 4.86-5.84 3.14-9.12l-2.9 2.23c3.11 2.83 8.56 3.49 11.47-.05 2.46-3 1.96-8.03-1.57-9.99-2.16-1.19-4.09 2.12-1.93 3.31 1.45.8 1.62 2.96.63 4.22-1.43 1.81-4.46 1.23-5.99-.09s-3.98.34-2.9 2.23c.86 1.5-.19 3.62-1.9 3.88-2.48.38-4.73-2.35-6.22-3.95-1.07-1.15-3.1-.26-3.08 1.28.02 1.92-.44 4.13-2.87 3.38-2.07-.63-3.14-3.06-4.04-4.83-.74-1.45-2.73-.9-3.21.42-.94 2.63-4.33 2.63-5.82.52-1.12-1.59-3.53-.23-2.63 1.54Z"/><path d="M137.61 77.17c1.41 1.64 3.15 2.91 5.09 3.87s4.01 1.82 6.18 1.97c3.99.27 7.53-3.7 5.18-7.44l-2.52 2.52c2.96 1.91 7.05 3.43 10.47 1.89 1.58-.71 2.52-2.15 2.35-3.89-.2-1.98-1.71-3.21-3.28-4.2l-.45 3.45c3.1-.6 5.63-3.33 5.83-6.51.1-1.66-.49-3.4-1.88-4.4-1.47-1.05-3.37-1.07-4.73.16s.06 3.49 1.73 2.96c1.32-.42 1.27 1.1.89 2.01-.5 1.21-1.6 1.9-2.84 2.13-1.69.31-1.71 2.64-.45 3.45.47.3.84.63 1.26.97.04.03.21.52.28.23-.11.48-1.63.45-1.97.44-1.94-.05-3.61-1.11-5.33-1.87-.85-.38-1.78-.31-2.38.47-.52.67-.56 1.83.14 2.42.47.39-.31 1.28-.66 1.49-1.12.66-2.75.09-3.86-.29-2.5-.86-4.93-2.16-6.77-4.08-1.44-1.5-3.57.71-2.25 2.25Z"/><path d="M157.3 78.96c-.72 3.28-.58 7.25-2.93 9.93-2.24 2.56-5.94 2.96-9.12 3.76-3.93.98-7.9 1.77-11.9 2.37-10.61 1.59-21.84 2.27-32.46.36.03-1.33.06-4.08.09-5.41 1.77.23 3.64-.61 4.64-2.09 1.73 1.18 3.5 2.38 5.51 2.98s4.34.52 6.03-.72c.43-.31.83-.71 1.35-.79.51-.08 1.02.15 1.49.36 2.39 1.1 5.04 2.03 7.62 1.5s4.91-3.02 4.38-5.6c2.34.63 4.9 1.02 7.13.08s3.84-3.67 2.81-5.86c2.75 3.58 9 3.52 11.68-.11"/><path d="M155.63 78.5c-.78 3.1-.51 7.3-3.11 9.59-1.25 1.1-2.93 1.55-4.51 1.92-1.8.43-3.61.84-5.41 1.25-8.65 1.98-17.56 3.14-26.43 3.23-4.93.05-9.87-.25-14.73-1.11l1.51 1.98c.04-1.8.06-3.61.1-5.41l-2.06 2.06c2.61.24 4.91-1.06 6.41-3.12l-2.81.74c2.59 1.75 5.3 3.41 8.5 3.59 1.52.09 3.1-.23 4.44-.94.29-.15.55-.34.82-.54l.48-.36q-.195-.09.03 0c.67.03 1.6.7 2.24.94 2.93 1.12 6.39 1.56 9.23-.05 2.62-1.49 4.08-4.23 3.6-7.22l-2.46 2.46c3.13.81 6.86 1.29 9.67-.7 2.32-1.64 3.88-4.74 2.72-7.54l-3.34 1.95c3.5 4.34 11.08 4.31 14.51-.11.66-.86.83-2.01 0-2.84-.69-.69-2.17-.86-2.84 0-2.19 2.83-6.58 2.91-8.85.12-1.22-1.51-4.1.12-3.34 1.95.56 1.36-.17 2.72-1.44 3.38-1.84.97-4.14.44-6.03-.06-1.59-.42-2.69.99-2.46 2.46.29 1.83-2.03 3.08-3.53 3.19-1.21.09-2.4-.19-3.54-.57s-2.33-1.13-3.57-1.38c-1.4-.27-2.36.38-3.46 1.11-.87.58-1.86.75-2.89.68-2.39-.18-4.51-1.75-6.43-3.06-.98-.67-2.19-.11-2.81.74-.68.92-1.79 1.17-2.86 1.07-1.13-.1-2.04 1.03-2.06 2.06-.04 1.8-.05 3.61-.09 5.41-.02.83.64 1.83 1.51 1.98 9.46 1.65 19.08 1.41 28.59.24 4.78-.59 9.54-1.37 14.24-2.45 3.82-.87 8.3-1.41 11.45-3.93 3.65-2.91 3.65-7.59 4.35-11.8.36-2.15-2.78-3.12-3.33-.92Z"/><path d="M157.52 82.23c1.58 4.52-.05 9.42-2.35 13.37s-5.62 7.83-9.51 10.46c-4.36 2.94-9.54 4.23-14.62 5.33-4.98 1.08-10.03 1.8-15.13 1.87-2.8.04-5.63-.07-8.4-.52-2.93-.47-5.67-1.39-8.5-2.24-2.39-.72-4.07 2.99-1.73 4.11 5.11 2.45 11.25 3.18 16.86 3.24s11.57-.81 17.17-2.13 11.26-2.83 16.03-5.98c4.44-2.93 8.17-7.08 10.87-11.66 1.51-2.57 2.7-5.39 3.16-8.35s.13-5.81-1.18-8.65c-.69-1.49-3.22-.44-2.67 1.13Zm-57.56 64.44c2.95-1.47 5.86-3.01 8.72-4.66s5.52-3.19 8.11-5c.69-.49 1.1-1.28.87-2.14-.21-.75-1.01-1.47-1.82-1.39-1.82.18-3.14 1.14-4.63 2.11s-2.84 1.88-4.27 2.8c-2.86 1.84-5.74 3.64-8.67 5.38-1.87 1.11-.23 3.84 1.69 2.89Zm35.44-18.34c.21-.2.43-.39.66-.58l.16-.13c.04-.03.24-.19.03-.03s-.01 0 .03-.02c.05-.04.11-.08.17-.12.47-.34.97-.66 1.48-.94s1-.53 1.52-.77c.22-.1-.09.03-.14.06.06-.03.13-.05.19-.08l.39-.15c.29-.11.59-.19.88-.3.45-.17.82-.4 1.07-.82.22-.38.32-.95.18-1.38-.31-.96-1.22-1.47-2.2-1.25-.7.16-1.38.48-2.03.77-.57.25-1.12.54-1.64.87-1.12.71-2.18 1.56-3.1 2.52-.6.63-.67 1.74 0 2.35s1.67.63 2.35 0"/><path d="M160.34 115.47c1.48-.75 2.96-1.51 4.41-2.33 1.21-.68 2.42-1.42 3.12-2.66s.98-2.83 1.28-4.25c.32-1.51.61-3.03.86-4.55s.48-3.12.66-4.69c.17-1.42-.12-2.83-1.49-3.56-1.27-.68-2.73-1.15-4.08-1.64-1.52-.56-3.15-1.32-4.78-1.39-2.04-.1-2.66 2.76-1.01 3.74 1.06.63 2.37.87 3.54 1.25s2.3.77 3.44 1.16c.25.09.51.21.76.27l.38.14c-.41-.8-.62-.98-.62-.53-.23.41-.15 1.36-.22 1.83-.16 1.22-.35 2.43-.56 3.64s-.43 2.35-.67 3.51c-.21.99-.27 2.35-.8 3.24-.48.81-1.64 1.31-2.39 1.82-1.14.77-2.25 1.6-3.36 2.42-1.54 1.13-.24 3.48 1.51 2.59ZM73.71 82.81c.13 1.66-.6 3.24-1.11 4.83-.65 2.05-.92 4.19-1.23 6.32-.42 2.88-.93 5.75-1.44 8.62l-2.31 13.07c-.42 2.39-.85 4.79-1.45 7.15 6.25-3.96 12.74-7.55 19.41-10.74 2.71-1.3 5.49-2.55 8.46-3.08.44-.08.91-.15 1.24-.46.3-.28.42-.7.51-1.1.31-1.37.41-2.78.52-4.18.37-4.9.74-9.82.38-14.71-.16-2.21-.47-4.4-.78-6.6-.26-1.82-.51-3.64-.77-5.46-.03-.23-.09-.49-.29-.61-.21-.12-.46-.03-.68.07-6.41 2.77-12.83 5.53-19.24 8.3"/><path d="M72.34 82.81c-.16 1.6-.97 3.09-1.5 4.58s-.82 3.11-1.08 4.7c-.55 3.33-1.1 6.65-1.7 9.97-1.21 6.72-2.13 13.58-3.79 20.21-.4 1.62 1.4 3.18 2.91 2.24 5.19-3.27 10.53-6.32 16.02-9.07 2.58-1.29 5.18-2.62 7.91-3.57 2.43-.84 5.69-.68 6.59-3.6s.79-6.22.98-9.2c.2-3.18.32-6.38.15-9.57s-.62-6.04-1.04-9.04c-.32-2.29-.18-7.52-3.83-6.66-1.68.39-3.39 1.42-4.97 2.1-1.68.72-3.36 1.45-5.04 2.17-3.36 1.45-6.72 2.9-10.06 4.38-1.02.45-1.26 1.95-.74 2.83.62 1.07 1.8 1.18 2.83.74 3.22-1.36 6.43-2.73 9.64-4.12 1.53-.66 3.05-1.32 4.58-1.98.84-.36 1.68-.73 2.52-1.09.53-.23 1.59-.95 2.14-.87l-1.48-.61.21.26-.54-.92c.44 1.89.58 3.88.85 5.8.3 2.09.58 4.18.73 6.29.3 4.33.04 8.68-.28 13-.08 1.04-.14 2.07-.24 3.11-.04.44-.09.88-.16 1.31-.03.2-.15.5-.13.69l-.07.3.43-.32c-.02-.17-5.22 1.51-5.61 1.67-3.81 1.56-7.5 3.5-11.13 5.44-4.17 2.22-8.25 4.6-12.24 7.13l2.91 2.24c1.71-6.87 2.63-13.97 3.84-20.95.59-3.4 1.09-6.8 1.58-10.21.24-1.67.57-3.32 1.03-4.95s.78-3.09.49-4.78-2.54-1.05-2.69.36Zm-5.77 2.48c-4.53 11.26-5.91 23.51-8.78 35.31-.34 1.41-1.05 3.12-2.5 3.18-.54.02-1.06-.21-1.55-.43-3.03-1.39-6.06-2.78-9.09-4.16-1.72-.79-3.44-1.58-5.01-2.61-2.21-1.46-4.09-3.38-6.23-4.95-2.64-1.93-5.67-3.33-8.12-5.49-.18-.16-.36-.33-.43-.55-.07-.24-.02-.49.04-.73.77-3.24 1.55-6.48 2.32-9.73 1.1-4.61 2.2-9.23 3.56-13.78 1.07-3.6 2.3-7.15 3.69-10.63 1.33 3.04 8.41 6.5 11.23 8.24s1.41 1.84 4.56 2.9c4.74 1.61 9.56 3.09 14.52 3.72"/><path d="M65.25 84.52c-3.98 9.13-5.66 18.91-7.68 28.6-.5 2.38-.98 4.78-1.65 7.12-.13.45-.32 1.36-.77 1.62.2-.12.05-.02-.14-.07-.25-.07-.53-.23-.75-.33-.68-.31-1.36-.63-2.04-.94-4.4-2.03-9.34-3.73-13.14-6.8-2.07-1.67-4.02-3.45-6.25-4.92-1.07-.71-2.17-1.37-3.25-2.05-.86-.54-2.45-1.3-2.97-2.2l.28 1.02c-.1-1.19.57-2.73.85-3.9l1.05-4.4c.7-2.93 1.39-5.86 2.14-8.77 1.44-5.64 2.99-11.41 5.33-16.75h-3.57c1.08 2.51 3.83 4.21 6.04 5.6s4.79 2.45 6.83 4.09c.63.5 1.15 1.15 1.88 1.57 1.49.86 3.3 1.29 4.92 1.82 4.07 1.32 8.18 2.37 12.43 2.93 2.42.32 3.02-3.97.58-4.3-3.88-.53-7.67-1.51-11.4-2.68-1.45-.46-2.97-.86-4.35-1.51-.22-.1-.42-.31-.12-.05-.12-.1-.22-.21-.33-.31-.41-.41-.86-.77-1.32-1.11-1.99-1.46-4.28-2.52-6.38-3.8-1.82-1.11-4.28-2.54-5.22-4.34-.88-1.69-3.23-1.08-3.78.49-1.33 3.78-2.74 7.5-3.86 11.35s-2.15 8.06-3.12 12.12c-.46 1.94-.92 3.88-1.39 5.82l-.66 2.78c-.24 1.01-.65 2.12-.62 3.17.04 1.9 2.08 3.08 3.47 4.04 1.53 1.05 3.15 1.94 4.71 2.93 3.09 1.97 5.57 4.74 8.76 6.57 3.48 1.99 7.31 3.48 10.96 5.14 1.7.77 3.59 2.02 5.52 1.47 1.53-.43 2.47-1.8 3.01-3.21.64-1.68.88-3.55 1.25-5.3.4-1.88.79-3.77 1.16-5.66 1.72-8.65 3.37-17.36 6.39-25.68.58-1.61-2.1-2.77-2.8-1.18Zm35.03 48.58c9.1-4.4 18.13-8.96 27.15-13.53 8.69-4.4 17.39-8.75 25.76-13.74 4.63-2.76 9.18-5.68 13.67-8.68 1.96-1.31.07-4.51-1.85-3.16-15.97 11.35-33.62 19.74-50.98 28.7-5.08 2.62-10.13 5.27-15.17 7.97-1.61.86-.19 3.21 1.42 2.43Z"/><path d="M101.84 116.17c-.47 4.58-.95 9.17-1.42 13.75 7.3-4.08 18.67-9.38 25.97-13.46-6.57.4-17.23 1.75-23.8 1.43"/><path d="M100.42 115.78c-.9 4.66-1.28 9.43-1.81 14.14-.16 1.43 1.63 2.15 2.71 1.56 8.55-4.69 17.47-8.7 26.02-13.39 1.6-.88.93-3.62-.95-3.52-7.9.44-15.88 1.64-23.8 1.28-2.62-.12-2.62 3.97 0 4.08 7.97.33 15.88-1.04 23.8-1.58l-.95-3.52c-8.49 4.8-17.44 8.74-25.93 13.54l2.71 1.56c.43-4.57 1.02-9.16 1.09-13.75.02-1.62-2.57-2.05-2.89-.39Zm58.71-22.13-3.68 5.93c2.49-1 4.98-2 7.48-3 .28-.11.57-.24.73-.49.29-.47-.08-1.12-.59-1.32s-1.09-.09-1.63.02"/><path d="M158.14 92.65c-1.55 1.9-2.8 4.03-4.11 6.09-.35.56-.26 1.33.13 1.83s1.12.83 1.73.59c2.5-.97 5.01-1.92 7.5-2.91.76-.3 1.4-.64 1.83-1.37.46-.79.36-1.88-.14-2.62-.46-.68-1.13-1.16-1.94-1.3-.97-.17-2.13-.06-2.84.69-.4.42-.57 1-.41 1.57.16.59.59.9 1.12 1.12.29.12.66.14.98.12.09 0 .18-.02.28-.03.04 0 .43.03.17-.02-.12-.02-.13-.02-.04 0 .14.04.09.01-.13-.08.2.11-.05-.05-.1-.1.26.23-.16-.23-.05-.07.07.12.04.06-.08-.19l-.03-.27c0-.21.08-.43.21-.6a.4.4 0 0 1 .16-.16c.11-.08.12-.09.04-.04-.24.08-.1.06.06 0-.13.05-.25.1-.37.15l-1.42.59c-1.89.78-3.78 1.57-5.66 2.35l1.86 2.42c1.2-1.98 2.51-3.94 3.47-6.05.29-.65.23-1.36-.36-1.81-.51-.39-1.4-.43-1.85.11Zm-73.49 36.13c1.34-.55 2.65-1.13 3.92-1.82.58-.32 1.16-.65 1.73-.99l.87-.54c.36-.23.78-.47 1.06-.79.46-.53.67-1.34.26-1.98-.38-.59-1.14-.98-1.84-.75s-1.37.76-2.03 1.17q-.81.51-1.65.99c-1.15.65-2.31 1.29-3.5 1.88-.69.34-.91 1.27-.63 1.93s1.11 1.19 1.82.9Zm-15.83-88.7c-.52-.21-1.04-.41-1.56-.63-.26-.11-.52-.21-.78-.32-.11-.05-.22-.09-.33-.14.35.15-.06-.03-.13-.06-1.09-.47-2.17-1.03-3.29-1.41-.78-.26-1.64.24-1.94.95s-.07 1.7.67 2.06c1.09.52 2.28.87 3.43 1.24 1.06.34 2.13.66 3.2.96.69.19 1.53-.24 1.69-.96.18-.79-.24-1.41-.96-1.69m6.68-13.44-1.33-1.72-.64-.83c-.11-.15-.22-.3-.34-.44s-.27-.26-.4-.39c-.56-.54-1.43-.6-2.05-.12-.26.2-.49.48-.56.81-.09.39-.08.86.16 1.2.27.39.55.77.88 1.11l.76.81 1.49 1.6c.52.55 1.53.56 2.04 0 .25-.28.44-.64.42-1.02l-.05-.38c-.07-.24-.19-.46-.37-.64Zm12.66-5.52c-.21-.63-.53-1.2-.78-1.81l.16.39c-.12-.29-.24-.59-.37-.88l.17.39c-.21-.5-.39-1.01-.55-1.53s-.27-1.05-.46-1.56c-.15-.39-.36-.77-.75-.98-.33-.18-.67-.24-1.05-.19-.77.1-1.46.79-1.42 1.61.05 1.19.5 2.29.96 3.36.4.93.91 1.9 1.64 2.62.45.44 1.23.58 1.78.23s.89-1.03.67-1.66Zm15.12-4.66c-.06-.15-.12-.3-.15-.45l.05.39c-.03-.3-.01-.6 0-.9 0-.15 0-.29-.01-.44v-.24c0-.2-.05-.39-.09-.59l-.15-.35-.23-.3-.3-.23a1.1 1.1 0 0 0-.55-.18.65.65 0 0 0-.39 0c-.13 0-.26.03-.37.1a.84.84 0 0 0-.33.19c-.16.1-.29.24-.38.41a2.3 2.3 0 0 0-.31.76c-.07.29-.12.58-.09.88s.07.57.16.85.2.52.31.78l-.15-.35c.06.15.1.3.15.45.05.19.13.36.26.5.1.16.24.29.41.38.31.18.78.26 1.13.15s.7-.34.88-.67l.15-.35q.105-.39 0-.78Z"/></svg>