<?xml version="1.0" encoding="UTF-8"?><svg xmlns="http://www.w3.org/2000/svg" viewBox="0 0 180 180"><path d="M87.5 126.14c-8.06-.15-16.1-1.11-24.04-2.51-8.91-1.57-17.76-3.67-26.3-6.69-3.64-1.29-7.22-2.77-10.61-4.62-1.54-.84-3.21-1.72-4.53-2.88-1.99-1.74-.73-4.07.44-5.94 4.45-7.1 12.46-11.71 19.79-15.29 8.24-4.02 17.02-7.02 25.89-9.29 10.07-2.58 20.3-3.65 30.68-2.81 10.54.86 21.15 3.04 30.81 7.43 4.65 2.11 9.1 4.68 13.22 7.7 2.04 1.49 3.98 3.12 5.82 4.85 1.53 1.44 3.47 2.98 4.32 4.96.67 1.54.67 3.35.04 4.9-.79 1.94-2.38 2.94-4.13 3.93-4.67 2.63-9.49 4.99-14.44 7.05-10.1 4.2-20.89 7.21-31.77 8.43-2.6.29-5.2.46-7.82.53-2.35.06-2.36 3.72 0 3.66 11.59-.31 23.08-2.67 34.04-6.4 5.53-1.89 10.97-4.09 16.25-6.61 4.54-2.17 9.91-4.17 11.9-9.19.81-2.06.92-4.41.35-6.54-.65-2.45-2.22-4.27-3.97-6.04-3.84-3.88-8.19-7.29-12.82-10.18-9.47-5.92-20.11-9.55-31.09-11.39-11.22-1.87-22.45-2.24-33.69-.31-10.07 1.73-20.02 4.83-29.44 8.78-8.67 3.64-17.59 8.15-24.1 15.11-3.11 3.33-7.31 8.69-5.03 13.45 1.04 2.17 3.32 3.51 5.31 4.69 1.66.99 3.4 1.87 5.16 2.67 8.47 3.84 17.57 6.22 26.67 8.02 9.04 1.79 18.24 3.02 27.44 3.52 1.88.1 3.75.16 5.63.18 2.03.01 2.03-3.12 0-3.16Z"/><path d="M87.84 84.13c-4.19.35-7.55 3.32-7.7 7.52-.16 4.2 2.73 8.23 6.63 9.79.45.18.96.37 1.15.82.26.59-.19 1.24-.61 1.73l-9.69 11.25c8.09.74 16.25.71 24.33-.11.13-.01.27-.03.36-.13.15-.17.04-.43-.07-.63-2.54-4.36-7.56-7.77-10.92-12.38 5.29-1.18 9.98-5.63 8.88-10.94-.54-2.63-2.25-5.1-4.73-6.13-1.18-.49-2.48-.64-3.75-.75-1.83-.16-3.71-.26-5.47.27s-3.4 1.78-3.91 3.55"/><path d="M87.84 82.63c-4.97.38-9.22 3.84-9.48 9.02-.12 2.5.74 5.08 2.2 7.1.79 1.1 1.69 2.05 2.77 2.88.48.37.97.71 1.5 1 .32.17.64.32.97.47l.27.12c.34.2.36.17.05-.08v-1.03c-.16.96-1.52 2-2.16 2.74-.87 1-1.72 2-2.59 3-1.73 2-3.42 4.03-5.13 6.04-1.12 1.32-.35 3.16 1.37 3.3 4.21.35 8.43.57 12.66.5 2.11-.03 4.22-.16 6.33-.28 1.9-.11 4.08-.04 5.93-.51 4.29-1.1-.93-6.56-2.3-8.02-2.44-2.59-5.2-4.93-7.32-7.8-.37.91-.74 1.82-1.11 2.72 3.55-.83 6.89-2.87 8.85-6 1.97-3.14 1.89-7 .15-10.23-.86-1.59-2.17-3.02-3.76-3.9-1.9-1.06-4.12-1.28-6.25-1.44-4.13-.31-8.93.8-10.28 5.27-.71 2.36 2.81 3.25 3.65 1.01 1.08-2.89 5.11-2.63 7.55-2.44 2.84.22 5.1 1.2 6.28 3.95 2.18 5.08-2.66 9.11-7.17 10.2-1.07.26-1.83 1.77-1.11 2.72 1.73 2.31 3.73 4.34 5.78 6.36.96.94 1.92 1.89 2.82 2.89.78.86 1.85 1.91 2.3 3.01v-.97l-.07.3.84-1.09c.28-.16-.76 0-.89.01-.57.05-1.13.1-1.7.14-.97.07-1.94.14-2.92.18-2.03.1-4.06.1-6.09.1-4.06 0-8.12-.17-12.17-.56.46 1.1.91 2.2 1.37 3.3 2.93-3.36 5.87-6.7 8.75-10.1 1.25-1.48 3.02-3.3 1.79-5.35-.84-1.39-2.74-1.65-4-2.56-2.39-1.72-4.08-4.85-3.51-7.84s3.01-4.77 5.84-5.13c1.86-.24 1.96-3.15 0-3Z"/><path d="M18.7 111.25c4.8 9.08 11.99 15.99 20.77 21.22 4.82 2.87 9.9 5.26 15.21 7.08 5.7 1.95 11.63 2.81 17.58 3.57 11.07 1.41 22.14 1.53 33.12-.66 9.51-1.89 19.07-5.29 27.37-10.34 9.55-5.81 17.58-13.77 23.52-23.24 1.2-1.92-1.77-3.6-3.01-1.76-10.54 15.66-26.85 26.83-45.14 31.35-10.16 2.51-20.52 3.18-30.94 2.38-5.76-.44-11.26-1.77-16.77-3.45s-10.65-3.69-15.64-6.36c-9.51-5.08-17.85-11.98-23.37-21.36-1.02-1.74-3.64-.2-2.7 1.58Zm-1.02-4.31c-.23-10.35 3.8-20.38 9.17-29.23 18.03-29.74 62.46-36.14 92.7-24.2 18.76 7.41 35.38 23.2 36.1 44.59-2.69-5.22-4.56-7.97-9.55-11.05-7.1-4.39-14.84-7.85-23.01-9.53-4.55-.94-12.74-3.53-17.38-3.85-10.62-.74-14.62-1.21-25.19 0-15.01 1.72-32.58 9-46.52 14.83-4.97 2.08-10.17 4.48-13.14 8.97"/><path d="M19.16 106.94c.19-7.85 2.76-15.62 6.28-22.57C28.3 78.71 31.78 73.48 36.29 69c8.06-7.99 18.48-13.25 29.37-16.18s23.04-3.68 34.52-2.16c11.75 1.56 23.18 5.59 32.88 12.47 10.11 7.17 18.12 17.74 20.29 30.14.28 1.6.42 3.21.49 4.83l3.35-.91c-1.98-3.79-4.11-7.29-7.54-9.95-4.21-3.27-9.19-5.79-14.07-7.88-2.49-1.07-5.01-2.04-7.61-2.82-2.3-.69-4.65-1.15-6.97-1.74-4.3-1.09-8.58-2.42-12.97-3.09-4.67-.71-9.54-.94-14.27-1.05s-9.65.25-14.44.87c-10.59 1.39-20.81 4.82-30.75 8.63-5.52 2.12-10.99 4.38-16.44 6.7-5.07 2.16-10.06 4.77-13.17 9.51-1.54 2.35 2.16 4.43 3.74 2.18 2.61-3.71 6.92-5.79 10.97-7.53 4.44-1.91 8.94-3.73 13.44-5.5 9.59-3.76 19.43-7.26 29.61-9.04 9.02-1.58 17.99-1.33 27.08-.72 4.31.29 8.41 1.29 12.59 2.36 4.4 1.12 8.9 1.93 13.23 3.31 5.62 1.79 11.01 4.41 16 7.55 3.95 2.49 6.35 5.92 8.46 10.02.81 1.59 3.41.84 3.35-.91-.24-6.81-1.86-13.48-5.06-19.51-3.1-5.83-7.46-11.01-12.48-15.29-9.71-8.28-21.7-13.52-34.19-15.88s-24.75-2.17-36.84.4c-11.87 2.53-23.35 7.6-32.56 15.6-4.62 4.01-8.55 8.77-11.66 14.04-4.21 7.13-7.6 15-8.35 23.32-.19 2.06-.22 4.1-.1 6.16.11 1.89 2.91 1.91 2.95 0Z"/><path d="M17.49 109.88c.86 7.66 4.77 14.85 9.05 21.15 3.92 5.77 8.92 10.7 14.58 14.75 10.38 7.43 22.64 11.14 35.11 13.22 10.4 1.73 21.12 2.19 31.52.17 10.24-2 19.81-6.64 27.49-13.74 4.22-3.9 7.82-8.48 10.81-13.39a74 74 0 0 0 4.49-8.61c1.42-3.2 2.44-6.59 3.99-9.7.93-1.86 1.75-3.78 2.54-5.71.38-.94-.42-2.03-1.3-2.29-1.06-.31-1.91.38-2.29 1.3-.75 1.8-1.53 3.62-2.46 5.34-.83 1.53-1.33 3.16-1.95 4.78a83 83 0 0 1-3.98 8.85c-2.62 5-5.78 9.72-9.64 13.86-6.74 7.23-15.34 12.27-24.88 14.81-9.63 2.56-19.74 2.64-29.58 1.41-11.43-1.43-23.06-4.31-33.09-10.12-5.75-3.33-10.95-7.54-15.26-12.6-2.17-2.54-4-5.31-5.72-8.17-1.96-3.26-3.93-6.61-5.23-10.2-.65-1.78-1.12-3.61-1.38-5.48-.22-1.6-3.02-1.24-2.84.38Z"/><path d="M19.22 105.5c-1.66-10.17-4.95-19.89-7.37-29.88-.45.79-.89 1.57-1.34 2.36 3.23-.6 6.49-.83 9.78-.75 1.11.03 1.87-.92 1.95-1.95.54-7.46.55-14.93 0-22.38-.1-1.37-.62-3.51 1.4-3.11 1.4.28 2.78.7 4.17 1.05l5.14 1.3c1.27.32 2.72.85 4.02.49 1.42-.4 2.22-1.63 2.72-2.93.6-1.56 1.07-3.16 1.7-4.71 1.25-3.08 2.79-6.05 4.54-8.88.92-1.49 1.89-2.95 2.95-4.34.42-.55.59-.97 1.27-.81s1.47 1.04 1.96 1.46c3.24 2.75 6.48 5.5 9.72 8.24.8.68 2.08.87 2.86 0 2.72-3.04 5.46-6.08 8.19-9.12 1.36-1.52 2.73-3.04 4.09-4.56.6-.67 1.22-1.56 1.95-2.1.56-.42.95-.13 1.54.18 5.79 3.11 9.86 8.78 14.63 13.16.83.76 2.19.87 3.01 0 3.9-4.15 7.1-8.95 11.3-12.82.45-.41.91-.83 1.39-1.2.2-.15.57-.51.82-.54.58-.08-.07-.11.12-.03.72.32 1.5 1.86 1.89 2.47 1.49 2.29 2.76 4.73 3.98 7.18 1.09 2.18 1.98 4.61 3.31 6.65.9 1.39 2.27 2.33 3.98 2.23 1.56-.09 3.12-.82 4.52-1.46 2.63-1.2 5.04-2.81 7.5-4.31 1.23-.75 2.47-1.48 3.76-2.12.55-.27 1.1-.53 1.67-.75.45-.17 1.5-.28 1.84-.56h.17a.73.73 0 0 1-.53-.38c-.02 0 0 .86 0 .97-.03.94-.09 1.87-.17 2.8-.15 1.82-.38 3.63-.7 5.43A66 66 0 0 1 140 52.84c-.46 1.3.78 3.06 2.21 2.9 6.5-.75 13.04-.81 19.55-.17l-2.32-2.32c.13 6.24-1 12.35-3.29 18.16-.45 1.13.5 2.63 1.63 2.88l5.29 1.13 2.64.56c.32.07 1.69.58 1.99.43.13-.07.06-.38-.04-.24s-.11.47-.18.66c-.31.79-.76 1.55-1.14 2.31-.79 1.59-1.59 3.18-2.4 4.76-3.19 6.26-6.45 12.48-9.79 18.66-1.37 2.54 2.46 4.79 3.87 2.26a595 595 0 0 0 11.45-21.61c1.5-2.97 4.82-7.77 1.11-10.46-1.49-1.08-3.56-1.25-5.31-1.62l-6.24-1.35 1.63 2.88c2.44-6.15 3.58-12.78 3.42-19.4-.03-1.34-1.04-2.2-2.32-2.32-6.51-.62-13.05-.54-19.55.23l2.21 2.9c1.25-3.53 2.23-7.15 2.87-10.84.59-3.41 1.21-7.1 1.01-10.57-.09-1.59-.75-3.01-2.21-3.74-1.58-.79-3.4-.27-4.95.33-3.07 1.18-5.83 2.93-8.61 4.65-1.29.8-2.58 1.59-3.92 2.29-.66.35-1.33.68-2.03.96-.24.1-.49.19-.74.28s-.51.17-.76.25c-.47.04-.53.1-.19.18-.69-.49-1.1-2.07-1.47-2.84-.67-1.39-1.34-2.79-2.03-4.17-1.31-2.64-2.67-5.29-4.34-7.73-1.82-2.66-4.36-5.23-7.75-3.34-2.93 1.64-5.32 4.63-7.43 7.17-2.28 2.74-4.39 5.65-6.79 8.29h3.01c-2.77-2.51-5.27-5.3-7.97-7.89a51 51 0 0 0-4.39-3.78c-1.44-1.1-3.09-2.31-4.85-2.83-2.14-.64-3.98.22-5.45 1.78-1.54 1.64-3 3.37-4.49 5.05-3.04 3.42-6.07 6.85-9.12 10.26h2.86l-9.37-7.9c-1.31-1.1-2.64-2.41-4.34-2.88s-3.35.13-4.52 1.41c-2.39 2.61-4.26 5.98-5.91 9.09s-3.04 6.37-4.17 9.7c-.12.36-.26 1.39-.59 1.64.22-.17-.06-.06-.33-.15-.47-.15-.98-.25-1.46-.37l-5.37-1.36c-1.36-.34-2.72-.72-4.08-1.03-2.6-.6-5.25.58-6.15 3.19-.6 1.75-.07 3.89.03 5.69.13 2.27.22 4.54.25 6.81.07 4.55-.04 9.09-.34 13.63l1.95-1.95c-3.63-.07-7.23.27-10.8.95-1.03.2-1.57 1.42-1.34 2.36 2.47 9.96 5.86 19.65 7.99 29.71.43 2.03 3.4 1.14 3.07-.85Z"/></svg>