<?xml version="1.0" encoding="UTF-8"?><svg xmlns="http://www.w3.org/2000/svg" viewBox="0 0 180 180"><path d="M26.97 107.25c1.02-1.66 1.82-3.4 3.01-4.96 1.15-1.5 2.53-2.8 3.97-4.02 2.84-2.41 6.3-4.12 9.94-4.91.99-.22 3.68-.98 4.26.26.7 1.49-1.2 3.1-2.16 3.89-1.84 1.49-3.82 2.83-5.72 4.25-.91.68-1.72 1.3-1.81 2.52-.08 1.09.52 1.98.78 3.02.45 1.75.19 3.59-.39 5.28-.67 1.95-2.01 3.19-3.51 4.5-1.28 1.11.08 3.58 1.71 2.94 2.98-1.17 5.04-4.01 6.1-6.95.51-1.42.7-3.03.61-4.54-.05-.8-.16-1.61-.36-2.39s-.57-1.42-.74-2.16v1.15c-.05.3-.46.34-.02.21.26-.08.53-.39.75-.56.38-.28.75-.56 1.13-.84.94-.7 1.89-1.39 2.83-2.09 1.52-1.13 3-2.25 4.08-3.83 2.21-3.27 1.24-7.98-2.73-9.24-3.18-1.01-7.23.23-10.19 1.45-3.2 1.32-6.26 3.22-8.67 5.73-2.55 2.65-5.24 6.3-5.92 9.99-.33 1.8 2.01 2.97 3.04 1.28Z"/><path d="M15.77 128.16c1.18-3.44 2.09-6.96 2.79-10.53.7-3.54 1-7.12 1.55-10.68.51-3.33 1.37-6.53 3.21-9.38.86-1.34 1.88-2.56 2.97-3.72 1.14-1.22 2.7-2.3 3.49-3.78.66-1.24-.47-3.22-2.01-2.62-1.69.66-2.98 2.07-4.25 3.33s-2.37 2.54-3.38 3.95c-2.13 2.98-3.29 6.41-3.86 10.01-.58 3.63-.78 7.3-1.27 10.94-.53 3.93-1.35 7.8-2.29 11.65-.48 1.99 2.39 2.75 3.04.84Zm32-2.3c-.59.58-1.05 1.3-1.61 1.91s-1.21 1.2-1.87 1.74c-.53.43-1.18.9-1.85 1.35-.72.48-1.43.97-2.16 1.45-1.7 1.13-3.3 2.19-4.44 3.93-.51.78-.88 1.66-1.17 2.55-.31.96-.7 2.2-.36 3.18s1.61 1.76 2.62 1.06c.89-.62 1.23-1.51 1.69-2.45.37-.77.76-1.55 1.26-2.25-.17.24.09-.11.15-.18.13-.15.27-.29.42-.43.36-.34.5-.44.8-.66.71-.52 1.43-1.01 2.14-1.53 1.44-1.05 2.84-2.22 4.02-3.55 1.13-1.27 2.55-2.94 2.83-4.67.23-1.4-1.34-2.55-2.48-1.44Z"/><path d="M10.17 129.65c5.21 1.25 10.2 3.46 14.49 6.67 2.09 1.57 3.89 3.45 5.55 5.46 1.83 2.21 4.92 4.88 8.04 3.6 1.05-.43 1.81-1.29 1.63-2.49-.16-1.05-1.09-2.05-2.23-1.97-1.32.09-2.05-.15-3-1.11s-1.81-2.14-2.76-3.16a33.2 33.2 0 0 0-6.2-5.2c-4.53-2.94-9.72-4.63-15.11-4.77-1.7-.05-2.07 2.58-.4 2.98Zm134.86-48.28c-3.38-3.1-7.27-5.56-11.62-7.05-2.26-.77-4.63-1.2-7.01-1.38-2.1-.16-4.29-.11-6.22.81-4.6 2.19-3.94 8.25-.5 11.17 1.73 1.47 3.77 2.25 5.8 3.19 1.65.76 3.5 1.68 4.16 3.5.46 1.28.7 2.57 1.36 3.78.55 1.02 1.31 1.96 2.13 2.77 1.73 1.72 4.05 3.46 6.54 3.68 1.75.15 2.27-2.07 1.32-3.19-1.13-1.33-2.86-1.99-4.16-3.14s-2.13-2.38-2.59-4.04c-.54-1.93-1.31-3.62-2.86-4.95-1.36-1.17-2.91-1.96-4.54-2.67s-3.37-1.33-4.55-2.61c-.69-.74-1.45-2.2-.65-3.12.9-1.04 2.95-.83 4.16-.77 1.85.1 3.69.39 5.49.84 4.16 1.03 8.13 2.75 11.46 5.48 1.59 1.3 3.86-.86 2.3-2.3Z"/><path d="M126.24 68.02c6.85 1.85 14.44 2.97 20.35 7.22 2.82 2.03 4.03 4.88 4.82 8.16.85 3.5 1.78 6.86 3.32 10.13.83 1.76 1.8 3.46 2.9 5.08 1.15 1.69 2.38 3.55 4.19 4.58 1.72.98 3.22-.92 2.51-2.51-.72-1.63-2.06-2.97-3.05-4.45-1.01-1.5-1.91-3.08-2.7-4.71-1.59-3.31-2.3-6.8-3.24-10.32-.94-3.53-2.62-6.64-5.51-8.93s-6.22-3.66-9.63-4.77c-4.28-1.4-9.04-2.5-13.57-2.41-1.66.04-2.05 2.48-.4 2.93Zm1.49 40.28c1.22 1.31 2.98 2.25 4.68 2.8 1.64.53 3.42.66 5.01 1.34 1.42.61 2.41 1.88 3.41 3.01.65.74 1.3 1.47 1.95 2.21.75.85 1.5 2.01 2.69 2.21 1.23.21 2.67-.53 2.59-1.97-.07-1.36-.9-2.11-1.76-3.06-.69-.77-1.39-1.54-2.08-2.31-1.29-1.43-2.57-2.87-4.36-3.67-1.69-.76-3.47-.96-5.28-1.28s-3.32-.92-4.94-1.75c-1.58-.8-3.15 1.13-1.9 2.47Z"/><path d="M160.74 98.71c1.16 2.29-.73 5.21-1.98 7.06a32.7 32.7 0 0 1-5.72 6.43 31.6 31.6 0 0 1-7.05 4.56c-2.61 1.24-5.65 2.67-6.02 5.88-.21 1.87 2.69 3.11 3.87 1.6.4-.52.71-1.14 1.19-1.59.45-.41 1.02-.7 1.56-.98 1.34-.69 2.72-1.28 4.03-2.04 2.83-1.63 5.44-3.69 7.69-6.05 3.76-3.94 9.66-11.58 4.98-16.85-1.28-1.44-3.35.39-2.55 1.97ZM33.23 94.89c-1.15-4.62-2.02-9.31-2.78-14.01-.35-2.18-.94-4.59-.76-6.8.18-2.15 2.25-3.27 3.92-4.28 3.74-2.25 7.86-3.7 12.01-4.97 4.54-1.39 9.13-2.65 13.72-3.85q14.16-3.705 28.56-6.33c4.76-.86 9.54-1.62 14.33-2.3 2.28-.32 4.56-.64 6.85-.85 2.03-.19 4.11-.33 6.08.27 3.74 1.13 5.27 5.2 6.24 8.61.65 2.29 1.18 4.62 1.74 6.93.68 2.76 1.17 5.65 2.25 8.28.37.9 1.11 1.55 2.14 1.4.89-.13 1.78-.94 1.69-1.92-.23-2.71-.99-5.33-1.61-7.98-.56-2.4-1.09-4.82-1.71-7.21-.95-3.66-2.33-7.64-5.27-10.19-3.83-3.33-8.69-3.2-13.42-2.5-5.16.76-10.3 1.6-15.43 2.54-10.3 1.88-20.55 4.08-30.7 6.66-5.05 1.29-10.07 2.66-15.06 4.15-4.56 1.35-9.12 2.86-13.3 5.17-2.21 1.22-4.77 2.69-6.08 4.93-1.43 2.44-.85 5.35-.46 7.99.87 5.82 2.27 11.49 4.06 17.09.6 1.89 3.47 1.12 2.98-.82Zm4.19 24.39c1.15 3.07 3.8 5.43 6.76 6.75 3.54 1.57 7.47 1.41 11.25 1.05 8.2-.78 16.2-2.75 24.15-4.82 8.13-2.12 16.25-4.25 24.38-6.37 4.15-1.08 8.3-2.17 12.45-3.25 3.37-.88 6.91-1.59 10-3.28 7.99-4.37 7.17-15.15 3.83-22.29-.95-2.03-4.52-.56-3.66 1.54 1.35 3.28 1.96 6.8 1.63 10.34-.28 2.98-1.52 5.28-4.18 6.7-2.69 1.43-5.86 1.99-8.78 2.75-3.67.96-7.34 1.93-11.01 2.9-7.5 1.97-14.99 3.94-22.49 5.92-7.16 1.88-14.32 3.84-21.63 5-2.03.32-4.07.57-6.11.73-1.95.16-3.97.36-5.92.09-3.52-.5-6.03-2.57-8.37-5.09-.89-.96-2.77.03-2.29 1.33Z"/><path d="M38.67 90.4c0-.05-.09-.62-.05-.34-.03-.2-.05-.4-.07-.6-.04-.4-.07-.8-.07-1.21 0-.35.01-.69.05-1.04-.04.39.04-.2.06-.27.04-.18.1-.36.16-.54.07-.18.06-.18-.02.03.04-.08.08-.17.12-.25.09-.16.18-.32.28-.48.21-.35-.23.21.07-.08.05-.05.51-.44.22-.23.18-.12.36-.22.55-.33.19-.09.19-.09.02-.01.1-.04.2-.07.31-.1.21-.06.42-.12.63-.16l.32-.06c.19-.03.21-.03.07-.01-.24.03.3-.02.35-.03.19-.01.39-.01.59-.01s.39.01.58.02c.09 0 .68.09.27 0 .19.04.37.09.56.15.09.03.45.21.12.04.17.09.32.18.49.27.15.11.15.1 0-.01l.21.18c.06.06.38.49.2.2.12.19.23.37.32.57-.11-.25.05.17.07.22.07.21.13.42.18.64.24.94.47 1.87.94 2.73.41.75 1.44.99 2.16.57.77-.45.96-1.4.57-2.16-.15-.28-.19-.41-.3-.85-.1-.38-.17-.76-.26-1.14-.19-.82-.44-1.66-.91-2.35-.94-1.39-2.44-2.16-4.05-2.51-3.34-.72-7.47.98-8 4.65-.26 1.79.04 3.54.49 5.27.2.77 1.05 1.23 1.81 1.03.84-.23 1.15-1.02 1.03-1.81Zm74.26-29.16c-.68.48-1.38.99-1.81 1.72-.46.78-.62 1.8-.29 2.66s.92 1.59 1.74 2.01c.88.45 1.84.53 2.8.32.47-.1.94-.32 1.35-.57.24-.15.49-.32.7-.51.23-.21.35-.45.47-.73.21-.48.24-.97-.1-1.41-.29-.38-.85-.62-1.33-.45-.31.11-.61.18-.9.36-.2.13-.41.24-.63.34l.35-.15c-.32.13-.65.23-1 .28l.4-.05c-.22.02-.44.03-.66 0l.4.05c-.2-.03-.39-.08-.58-.16l.36.15q-.27-.12-.51-.3l.3.23c-.15-.12-.29-.26-.41-.42l.23.3c-.1-.14-.19-.29-.25-.44l.15.36c-.05-.14-.09-.28-.11-.43l.05.4c-.01-.13-.02-.25 0-.38l-.05.4c.02-.16.06-.31.12-.46l-.15.35c.1-.23.24-.44.4-.65l-.23.3c.27-.34.58-.63.9-.91.53-.46.51-1.33.11-1.85s-1.24-.77-1.81-.36Zm0 9.72c-.68.48-1.38.99-1.81 1.72-.46.78-.62 1.8-.29 2.66s.92 1.59 1.74 2.01c.88.45 1.84.53 2.8.32.47-.1.94-.32 1.35-.57.24-.15.49-.32.7-.51.23-.21.35-.45.47-.73.21-.48.24-.97-.1-1.41-.29-.38-.85-.62-1.33-.45-.31.11-.61.18-.9.36-.2.13-.41.24-.63.34l.35-.15c-.32.13-.65.23-1 .28l.4-.05c-.22.02-.44.03-.66 0l.4.05c-.2-.03-.39-.08-.58-.16l.36.15q-.27-.12-.51-.3l.3.23c-.15-.12-.29-.26-.41-.42l.23.3c-.1-.14-.19-.29-.25-.44l.15.36c-.05-.14-.09-.28-.11-.43l.05.4c-.01-.13-.02-.25 0-.38l-.05.4c.02-.16.06-.31.12-.46l-.15.35c.1-.23.24-.44.4-.65l-.23.3c.27-.34.58-.63.9-.91.53-.46.51-1.33.11-1.85s-1.24-.77-1.81-.36Zm-.81 26.82-9.06-33.7c-.26-.98-.54-1.99-1.17-2.79-1.6-2.04-4.68-1.92-7.24-1.52-6.06.95-12.03 2.41-17.84 4.35l-25.92 6.27c-.64.15-1.32.33-1.75.82-.72.8-.49 2.04-.21 3.08 3.33 12.66 6.67 25.32 10 37.98.19.74.42 1.53 1.03 2 .55.43 1.3.49 2 .49 3.36.02 6.66-.8 9.91-1.61 12.18-3.05 24.36-6.09 36.54-9.14 1.43-.36 3.01-.83 3.73-2.11.7-1.23.35-2.76-.02-4.13ZM89.63 87.64q-4.41 5.1-9.18 9.87c-.74.74-1.52 1.49-2.49 1.86s-2.21.27-2.9-.52c-.37-.43-.53-.99-.68-1.54-1.62-5.94-2.86-11.98-3.72-18.07l.35 3.06c-.24-.99-.48-1.99-.37-3s.63-2.03 1.54-2.46c.78-.37 1.7-.26 2.55-.11 2.8.47 5.59 1.16 8.11 2.47 2.37 1.23 4.43 2.96 6.46 4.68.58.49 1.21 1.06 1.26 1.82.05.74-.46 1.39-.94 1.95Z"/><path d="M114.04 97.24c-1.9-7.06-3.8-14.12-5.69-21.18-.91-3.37-1.81-6.74-2.72-10.11-.77-2.87-1.31-6.13-4.25-7.58-2.56-1.27-5.5-.83-8.2-.39-3.33.55-6.64 1.26-9.91 2.11-3.32.87-6.55 1.97-9.88 2.78-3.52.85-7.04 1.7-10.56 2.56-3.44.83-6.88 1.66-10.32 2.5-1.37.33-2.96.52-4.15 1.33-1.31.88-1.82 2.42-1.67 3.95.17 1.68.76 3.35 1.18 4.98.46 1.76.93 3.53 1.39 5.29l2.79 10.58c.89 3.37 1.77 6.73 2.66 10.1.46 1.76.93 3.53 1.39 5.29.43 1.62.7 3.43 1.45 4.94 1.59 3.21 5.85 2.45 8.74 2.02 3.36-.51 6.65-1.46 9.95-2.28 7.85-1.96 15.7-3.93 23.56-5.89l5.77-1.44c1.67-.42 3.41-.73 5.02-1.34 1.45-.55 2.75-1.42 3.44-2.87.81-1.71.48-3.57.02-5.33-.65-2.49-4.51-1.43-3.86 1.06.22.84.7 2.09.02 2.83-.72.79-2.34.94-3.3 1.18l-9.13 2.28c-6.25 1.56-12.5 3.13-18.75 4.69-3.03.76-6.06 1.53-9.09 2.27-1.4.34-2.81.67-4.23.9-1.27.2-3 .56-4.28.28-.43-.1-.41-.4-.58-1.01-.22-.8-.42-1.6-.63-2.4-.42-1.6-.84-3.2-1.27-4.81-.8-3.04-1.6-6.09-2.41-9.13-1.65-6.25-3.29-12.5-4.94-18.75-.3-1.13-.98-2.62-.95-3.8.01-.48-.1-.32.44-.44.75-.18 1.49-.36 2.24-.55 3.12-.75 6.24-1.51 9.36-2.26 6.11-1.48 12.22-2.89 18.24-4.68 2.94-.87 5.91-1.62 8.91-2.24 2.55-.53 5.3-1.26 7.93-1.13.96.05 2.01.25 2.61 1.07.81 1.11.98 2.88 1.33 4.17.93 3.45 1.85 6.9 2.78 10.35 1.9 7.06 3.8 14.12 5.69 21.18.67 2.48 4.53 1.43 3.86-1.06Z"/><path d="M88.21 86.22c-2.09 2.41-4.23 4.77-6.44 7.07-1.06 1.11-2.12 2.23-3.24 3.28-.39.37-.86.83-1.41.96-.31.07-.53.01-.58-.04-.37-.38-.45-1.49-.58-2-.21-.78-.4-1.56-.6-2.34a147 147 0 0 1-2.78-14.45c-.31-2.21-4.18-1.71-3.93.53.12 1.02.23 2.04.35 3.06 1.31-.18 2.62-.35 3.93-.53-.18-.75-.66-2.1-.16-2.83.33-.5.88-.36 1.43-.29 1.99.26 4.01.79 5.89 1.49 1.84.69 3.53 1.75 5.1 2.93.82.62 1.61 1.29 2.4 1.95.26.22.91.61 1.03.94-.16-.43-.18 0-.4.26-.69.83-.81 2.02 0 2.83.71.71 2.13.83 2.83 0 1.09-1.3 1.92-2.77 1.28-4.5-.52-1.41-1.87-2.33-2.99-3.25-2.52-2.07-5.11-3.87-8.18-5.02-1.46-.54-2.97-.93-4.49-1.24-1.5-.3-3.16-.7-4.67-.27s-2.57 1.66-3.08 3.1c-.56 1.61-.22 3.35.16 4.96.51 2.14 4.19 1.74 3.93-.53-.12-1.02-.23-2.04-.35-3.06l-3.93.53c.54 3.77 1.21 7.52 2.04 11.24q.615 2.79 1.35 5.55c.46 1.73.85 3.53 2.55 4.47 3.41 1.89 6.41-1.29 8.58-3.51 2.69-2.74 5.29-5.57 7.8-8.48 1.68-1.94-1.14-4.78-2.83-2.83ZM34.8 67.59c.34-1 .19-2.23.19-3.28s0-2.15-.02-3.23l-.91 1.58c3.19-1.54 6.5-2.81 9.93-3.72.82-.22 1.64-.42 2.47-.59.3-.06.6-.12.91-.11.1 0 .53.13.24-.05-.23-.13.05.12.12.28-.07-.16.03.16.04.17.1.29.17.58.28.86.39 1.03.93 1.79 2.01 2.16 1.67.58 2.76-1.39 2.11-2.74-.09-.19-.41-.67-.41-.67-.14-.31-.2-.65-.32-.97-.35-.95-.88-1.79-1.79-2.3-1.81-1.01-4.01-.36-5.88.11-4 1.02-7.88 2.49-11.54 4.41-.54.28-.94.97-.91 1.58.06 1.13.16 2.27.24 3.4s.09 2.38.55 3.46c.54 1.27 2.33.71 2.7-.35Zm59.8-16.8c.23-.91.05-1.97.38-2.84.2-.52.75-.59 1.29-.7 2.16-.44 4.4-.62 6.58-.91l3.38-.45c.61-.08 1.61-.36 2.18-.1.32.14.39.7.59 1.18.46 1.13 1.22 2.22 2.59 2.18 1.24-.04 1.98-1.12 1.75-2.29-.13-.67-.49-.91-.74-1.4-.14-.27-.35-.91-.57-1.31a4.13 4.13 0 0 0-2.73-2.07c-1.2-.26-2.36-.09-3.55.08-1.42.2-2.84.41-4.26.61s-2.72.39-4.08.59c-1.18.17-2.34.29-3.44.78s-2.04 1.38-2.41 2.58.2 2.45.19 3.69c-.01 1.62 2.43 1.98 2.84.38ZM56.7 138.8c4.08 4.38 9.79 7.46 15.91 7.2 5.53-.23 11.76-3.25 13.51-8.88.85-2.73.1-5.84-2.18-7.65-2.41-1.91-5.49-1.45-7.75.44s-3.91 5.12-4.23 8.01c-.33 3.04 1.52 5.71 3.61 7.75 3.81 3.73 9.32 5.69 14.63 5.08 5.3-.61 10-3.73 12.86-8.2 1.44-2.25 2.59-5.17 2.56-7.88-.03-2.86-2.12-4.82-4.89-5.07-2.7-.24-5.25 1.35-6.39 3.78-1.24 2.66-.82 5.69.84 8.08 3.89 5.6 11.2 6.05 17.04 3.56 3.09-1.31 6.07-3.17 8.47-5.53 1.13-1.11 2.46-2.59 2.97-4.12.59-1.78-.33-3.47-2.24-3.65-2.2-.2-2.75 3.59-.53 3.9l.2.03-.88-.51.13.14-.51-.88c-.18-.56.15-.34-.05-.21-.11.07-.38.64-.42.7-.24.37-.5.73-.78 1.06-.75.88-1.61 1.69-2.52 2.41-1.66 1.32-3.56 2.52-5.53 3.32-3.52 1.43-7.8 1.71-10.88-.87-1.23-1.03-2.31-2.67-2.11-4.35.16-1.36 1.15-2.7 2.6-2.76 3.35-.15-.04 6.41-.87 7.68-4.31 6.57-13.11 8.12-19.51 3.61-1.49-1.05-2.99-2.54-3.75-4.21-.98-2.15.24-4.31 1.48-6.09.71-1.02 2.1-2.75 3.54-2.19 1.55.6 1.61 2.65 1.12 3.95-1.58 4.16-6.81 5.95-10.88 5.85-4.83-.11-9.31-2.59-13.07-5.45-1.16-.88-2.42.96-1.51 1.95Zm-47.11.58c2.17.32 4.33.77 6.38 1.56 1.77.68 3.39 1.78 4.86 2.96s2.92 2.51 4.42 3.71 3.44 2.83 5.49 3.09c.66.08 1.35-.5 1.58-1.06.28-.7.09-1.31-.36-1.89-.58-.73-1.54-1.22-2.26-1.81-.76-.63-1.51-1.26-2.25-1.91-1.58-1.38-3.16-2.76-4.86-3.99a18.4 18.4 0 0 0-5.59-2.77c-2.26-.67-4.63-.87-6.95-1.15-1.84-.23-2.3 3-.44 3.27Zm4.13 9.33c.3.02-.16-.05.02 0 .08.02.16.03.24.05s.49.08.52.16c-.01-.04-.26-.12-.04-.02.09.04.18.09.27.14.16.09.32.18.47.28.07.05.14.09.21.14.04.03.32.24.13.09-.17-.13.04.04.08.06.08.07.16.13.24.2.28.24.54.5.82.75.62.56 1.24 1.11 1.9 1.62.73.56 1.71 1.23 2.66 1.16.71-.05 1.31-.4 1.59-1.07.26-.62.15-1.43-.36-1.9-.39-.37-.81-.51-1.26-.76-.32-.17-.63-.38-.93-.59-.08-.06-.17-.12-.25-.18.15.13.2.16.02 0-.15-.12-.29-.24-.43-.36-.38-.32-.76-.64-1.16-.94-1.36-1.03-2.98-1.88-4.74-1.81-.77.03-1.52.66-1.48 1.48s.65 1.42 1.48 1.48Zm135.05-18.07c.85-.74 1.48-1.76 2.31-2.54.81-.76 1.69-1.41 2.6-2.04 1.96-1.35 4.08-2.42 6.09-3.69 2.11-1.33 4.18-2.81 5.86-4.68 1.88-2.09 3.75-4.76 4.54-7.49.59-2.02-2.2-3.06-3.3-1.39-.78 1.19-1.35 2.51-2.13 3.71s-1.6 2.25-2.57 3.23c-1.62 1.63-3.54 2.82-5.46 4.06s-4.04 2.5-5.9 3.97c-1.7 1.34-3.93 3.25-4.5 5.43-.39 1.48 1.38 2.37 2.45 1.43Zm19.99-10.38c-.74 1.27-1.82 2.26-3.03 3.06-1.35.9-2.7 1.74-4.14 2.48-2.75 1.42-6.48 3.16-7.31 6.45-.19.76.13 1.6.82 2 .62.37 1.67.33 2.15-.28.56-.71.81-1.09 1.42-1.71s.91-.84 1.54-1.26c1.31-.86 2.73-1.55 4.08-2.34 2.91-1.73 5.42-3.88 6.9-6.99.76-1.6-1.49-2.99-2.42-1.41ZM44.52 46.37c-.81-.97-1.63-1.94-2.44-2.9l-1.2-1.43c-.41-.49-.8-1.01-1.28-1.43-.66-.57-1.56-.69-2.28-.14-.66.51-.92 1.5-.45 2.24.41.64.93 1.18 1.43 1.74l1.28 1.43 2.56 2.86c.59.66 1.79.64 2.38 0 .66-.72.61-1.66 0-2.38Zm13.4-5.54c-.03-1.78-.29-3.54-.82-5.24-.28-.88-.62-1.74-1.01-2.59s-.91-2.12-1.77-2.49c-.55-.24-1.09-.32-1.64 0-.51.3-.78.82-.8 1.4-.04.91.7 1.85 1.11 2.64.19.37.37.74.53 1.12-.15-.34.1.25.12.31.07.17.13.34.19.51.26.73.46 1.48.64 2.24.09.38.18.75.25 1.13.04.2.07.41.1.61.03.19.03.2 0 .05.01.1.03.21.04.31.09.79.64 1.57 1.53 1.53.82-.04 1.54-.67 1.53-1.53M71.43 38c.37-1.55.34-3.23.41-4.82l.09-2.26c.03-.76.16-1.59.07-2.35s-.48-1.48-1.28-1.68c-.34-.09-.59-.07-.93 0-.54.11-1.12.67-1.22 1.22-.15.86-.11 1.76-.13 2.63-.01.78-.03 1.56-.04 2.35-.03 1.62-.13 3.3.15 4.91.26 1.47 2.55 1.37 2.88 0m12.76-.97c.18-.65.41-1.28.65-1.91.08-.21-.11.25-.02.04.04-.09.08-.19.12-.28.07-.15.14-.3.21-.44.15-.31.31-.62.48-.92.33-.59.7-1.15 1.1-1.7.05-.07.56-.8.58-.79l-.11.14c.07-.09.14-.18.21-.26.08-.11.16-.21.23-.32.1-.15.19-.3.29-.45.43-.65.18-1.57-.4-2.03-.65-.5-1.46-.39-2.06.12-1.16.98-2 2.34-2.68 3.69s-1.22 2.8-1.55 4.29c-.18.78.24 1.69 1.07 1.88s1.66-.24 1.88-1.07Zm12.8 2.23a7 7 0 0 1 .46-.48l.49-.46.48-.44.13-.12c.12-.11.22-.25.32-.39.07-.09.14-.19.21-.28.11-.17.17-.35.18-.55.04-.2.04-.39-.03-.59l-.15-.35c-.09-.17-.22-.31-.38-.41a.8.8 0 0 0-.33-.19c-.18-.09-.37-.13-.57-.13-.39.02-.76.15-1.04.43l-.2.19c-.15.14-.27.32-.38.49l-.32.46c-.21.3-.41.61-.63.91l.21-.27-.28.33q-.195.18-.27.42c-.08.16-.12.32-.11.5 0 .32.14.7.38.92s.58.4.92.38.69-.12.92-.38Z"/></svg>