<?xml version="1.0" encoding="UTF-8"?><svg xmlns="http://www.w3.org/2000/svg" viewBox="0 0 180 180"><path d="M140.75 113.88c-3.63-7.24-9.45-12.78-16.75-16.24-7.66-3.63-16.51-4.53-24.86-3.43s-16.34 4.3-22.27 10.59c-5.35 5.67-8.78 13.05-10.11 20.7-2.54 14.66 1.97 30.53 14.49 39.32 10.93 7.67 25.96 8.66 38.3 4.06 7.34-2.74 14.13-7.6 18.93-13.8 5.96-7.69 8.14-17.37 6.85-26.96-.34-2.51-1.07-4.83-2.16-7.1-.75-1.55-3.12-.44-2.71 1.14.58 2.27 1.09 4.57 1.49 6.88.41 2.35.36 4.72.09 7.08-.49 4.35-1.83 8.41-4.03 12.2-3.79 6.53-9.51 11.83-16.41 14.95-10.69 4.83-23.74 5.32-34.22-.12-5.22-2.71-9.54-6.78-12.41-11.95-3.31-5.95-4.56-12.96-4.25-19.71s2.43-13.74 6.29-19.48 9.92-10.13 16.87-12.06c14.26-3.96 31.4-.88 41 11.06 1.13 1.41 2.11 2.95 2.97 4.54 1.03 1.89 3.83.22 2.87-1.68Z"/><path d="M73.81 149.51c3.81-8.59 13.07-13.58 21.14-17.47a94.5 94.5 0 0 1 28.71-8.56c5.88-.77 11.77-1.21 17.58.21 2.14.52 3.05-2.78.91-3.3-5.5-1.34-10.92-1.16-16.51-.55a99.6 99.6 0 0 0-15.87 3.01c-10.02 2.78-20.14 7.06-28.52 13.3-4.34 3.24-8 7.19-10.01 12.28-.58 1.47 1.92 2.54 2.57 1.08"/><path d="M91.51 99.9c10.8-.05 19.57 8.43 23.43 17.93 2.14 5.28 2.94 10.86 3.51 16.49.61 6.1 1.11 12.43-.07 18.5-1.14 5.83-4.35 10.89-8.64 14.92-1.58 1.49.78 3.82 2.38 2.38 4.23-3.82 7.46-8.75 9.01-14.25 1.79-6.37 1.46-13.32.88-19.84-.55-6.2-1.26-12.45-3.48-18.31-2.04-5.38-5.15-10.48-9.58-14.23-4.9-4.15-10.96-6.55-17.42-6.45-1.85.03-1.85 2.88 0 2.88Z"/><path d="M75.97 114.79c4.07-2.45 9.63-1.05 13.69.78 4.26 1.92 7.99 5.05 10.53 8.99 2.68 4.17 4.08 9.08 4.05 14.03-.03 5.34-1.93 10.43-3.82 15.35-1.82 4.73-4.15 9.68-8.5 12.59-1.81 1.21-.09 4.16 1.71 2.93 4.43-3.03 7.07-7.63 9.09-12.49 2.26-5.43 4.44-11.21 4.73-17.14.54-11.02-5.51-21.79-15.49-26.64-5.14-2.5-12.25-4.1-17.42-.84-1.54.97-.14 3.4 1.44 2.46Zm54.65-9.37c-1.12 1.18-1.59 3.16-1.92 4.72s-.5 3.23-.52 4.85c-.04 3.42.67 6.82 1.94 9.99 1.24 3.07 2.88 5.94 4.71 8.69.95 1.43 1.95 2.83 2.97 4.21s2.1 3.04 3.38 4.29 3.51-.37 2.53-1.95c-.88-1.41-2.05-2.68-3.04-4.02-.89-1.21-1.77-2.43-2.61-3.67-1.73-2.55-3.37-5.2-4.59-8.04-1.2-2.79-1.97-5.79-2.05-8.84-.04-1.57.07-3.13.35-4.67s.99-3.15.97-4.69c-.01-1.05-1.36-1.67-2.12-.88ZM57.83 90.28c.06-4.75.62-10.87 5.98-12.53 4.94-1.54 9.68 1.5 12.23 5.64 1.49 2.43 2.33 5.2 2.83 7.99.48 2.7.84 5.74.19 8.44-1.02 4.27-5.5 6.73-9.73 6.18-2.57-.33-5.01-1.81-6.74-3.69-1.87-2.03-2.85-4.66-3.94-7.15-.61-1.4-2.73-.61-2.74.74-.03 6.09 5.26 12.26 10.99 13.88 5.62 1.59 12.55-.71 15.36-6.01 1.76-3.31 1.72-7.16 1.3-10.78s-1.22-7.19-2.95-10.43c-3.11-5.85-9.28-10.05-16.07-8.85-3.46.61-6.54 2.79-8.09 5.97-1.61 3.29-1.75 7.02-1.64 10.61.06 1.94 2.99 1.95 3.02 0Z"/><path d="M63.84 75.44 91.33 68c5.56-1.5 11.39-3.02 17-1.72 2.29.53 4.88 1.47 6.82.14 1.06-.73 1.64-1.99 2.63-2.81.94-.77 2.16-1.08 3.34-1.37 3.86-.95 8.31-1.81 11.53.53 1.41 1.02 2.37 2.54 3.2 4.07a41.54 41.54 0 0 1 4.99 20.97c-.03 1.12-.14 2.31-.82 3.2-.54.7-1.35 1.12-2.15 1.5-2.9 1.41-8.53 3.38-11.62 2.48-.94-.27-1.86-.64-2.74-1.08-.81-.41-1.59-1.2-2.41-1.5-1.4-.51-2.16 1.55-2.85 2.38-1.08 1.28-2.67 1.99-4.24 2.55-2.54.91-5.16 1.55-7.78 2.18-9.5 2.29-21.49 6.37-30.98 8.66 5.33-2.52 9.09-9.51 8.77-15.39-.41-7.62-4.16-15.85-11.34-18.43"/><path d="M64.25 76.94c6.34-1.4 12.62-3.12 18.9-4.79 3.2-.85 6.4-1.71 9.6-2.54 2.85-.75 5.74-1.5 8.68-1.77 1.46-.13 2.93-.16 4.38-.02 1.42.13 2.77.55 4.15.86 2.69.59 5.44.52 7.42-1.65.77-.85 1.32-1.88 2.41-2.36 1.21-.53 2.66-.76 3.95-1.02 2.2-.45 4.86-.83 6.94.24 2.23 1.14 3.35 3.85 4.33 6.02 1.2 2.67 2.13 5.46 2.76 8.32.59 2.71.91 5.47.93 8.25 0 .94.21 2.4-.37 3.23-.55.78-2 1.25-2.86 1.61-1.94.81-4.07 1.5-6.16 1.74-2.44.28-4.27-.68-6.26-1.99-2.51-1.65-4.57-.46-6.04 1.8-1.21 1.86-3.84 2.58-6.05 3.22-3.03.88-6.12 1.52-9.17 2.33-3.04.81-6.07 1.69-9.08 2.61-5.98 1.82-11.98 3.52-17.98 5.28.5 1.19 1 2.37 1.5 3.56 7.04-3.89 10.58-11.85 9.51-19.69-1.04-7.56-5.08-15.01-12.5-17.85-1.06-.41-2.31.45-2.59 1.47-.32 1.17.4 2.2 1.47 2.59 5.9 2.15 8.92 8.64 9.74 14.48.83 5.89-1.82 13.11-7.6 15.62-2.14.93-.52 3.95 1.5 3.56 5.76-1.11 11.39-2.97 17.03-4.58 5.73-1.64 11.48-3.16 17.24-4.69 2.75-.73 5.81-1.48 8.16-3.14 1.04-.73 1.78-1.59 2.46-2.65.04-.06.5-.73.52-.7l-.79.09c.24.13.47.27.69.43.35.23.67.5 1.03.71 4.69 2.83 9.9 1.67 14.68-.27 2.52-1.02 5.17-2.12 5.92-5.02.72-2.77.36-6.07.02-8.87-.73-5.99-2.61-12.32-6.13-17.3-1.59-2.26-3.74-3.95-6.49-4.5-2.79-.55-5.63-.12-8.37.51-1.33.3-2.69.6-3.92 1.21-1.34.66-2.13 1.73-3.07 2.83-1.81 2.1-5 .38-7.27.02-7.28-1.14-14.55 1.43-21.47 3.34-7.54 2.08-15.13 4.06-22.58 6.46-1.91.61-1.13 3.43.83 3Z"/><path d="M134.84 65c1.66-.39 3.34-.73 5.03-.92.75-.09 1.29-.19 1.93.22s1.21.89 1.79 1.35c2.51 1.99 3.69 4.35 4.28 7.47.31 1.68.48 3.39.55 5.1.05 1.17.49 3.27-.5 4.1-2.38 2.01-5.53 3.32-8.5 4.14-2.53.7-1.45 4.64 1.08 3.93 1.99-.56 3.93-1.31 5.77-2.26 1.69-.87 3.59-1.93 4.91-3.32 1.55-1.64 1.36-4.01 1.3-6.11a43.6 43.6 0 0 0-.72-6.65c-.36-1.9-.93-3.83-1.94-5.49-1.05-1.74-2.55-3.05-4.16-4.26-1.73-1.3-3.17-2.16-5.4-1.83s-4.22.81-6.28 1.39-1.18 3.63.87 3.15Z"/><path d="M149.67 67.73c.73-.14 1.45-.34 2.19-.44-.31.04.2-.02.26-.03.19-.02.37-.03.56-.04.44-.02-.17-.09.25.03.36.1-.19-.18.09.05.36.31-.24-.29.08.08.05.06.34.43.09.07.18.26.34.53.49.81.08.15.15.31.22.47-.17-.37.05.13.06.18a9 9 0 0 1 .39 1.51c-.06-.35 0 .02 0 .17.02.34 0 .67 0 1 0 .41.11-.33-.01.1-.04.13-.04.34-.13.45l.08-.19c-.05.09-.1.18-.16.26l.12-.16c-.17.15-.15.15.04 0-.13.09-.28.16-.42.24-.36.21.31-.1-.12.05-.32.11-.63.24-.95.36-.95.36-1.83.72-2.61 1.38-.55.47-.64 1.38-.38 2s.94 1.15 1.67 1.12c1.08-.04 2.02-.45 3.01-.85.98-.39 1.98-.78 2.69-1.6 1.41-1.64 1.32-4.07.81-6.05-.46-1.77-1.51-3.82-3.21-4.68-1.12-.56-2.3-.48-3.49-.22-.98.22-1.95.53-2.83 1.02-.69.39-.95 1.27-.65 1.98.32.76 1.08 1.07 1.87.92ZM95.25 49.48c-3.78 5.89-7.55 11.95-12.03 17.35-.46.55-.92 1.11-1.43 1.63s-.79.79-1.25.07-.51-2.04-.67-2.89c-.24-1.25-.47-2.51-.67-3.77-.79-4.87-1.19-9.76-1.41-14.69-.04-.9-.63-1.87-1.58-2.07-5.4-1.16-10.71-2.73-15.85-4.76-.73-.29-1.69-.5-2.24-1.05.19.19-.51.23.15-.02.49-.18.96-.47 1.45-.67 2.52-1.03 5.06-2.02 7.61-2.97 1.28-.47 2.56-.94 3.84-1.39s2.76-.81 3.71-1.84c1.77-1.92 1.29-5.07 1.33-7.47.04-2.92.06-5.85.13-8.78.03-1.08.16-4.59 2.08-3.93 1.26.44 2.5 1.76 3.54 2.56 1.3 1 2.6 2 3.91 3.01s2.6 2 3.91 3.01c1.06.82 2.12 1.83 3.32 2.43V19.6l.18-.1c.54 1.28 1.08 2.57 1.62 3.85 5.08-3.07 10.59-5.01 16.3-6.55.07-.02.9-.33.79-.23-.13.12-.16-.27-.11-.03-.05-.25-.25.97-.31 1.2-.33 1.26-.8 2.47-1.35 3.64-1.25 2.64-2.78 5.14-4.01 7.79-1.15 2.47-2.88 5.77-.82 8.21.88 1.05 2.06 1.88 3.06 2.81 1.06.99 2.08 2.01 3.07 3.06a65.5 65.5 0 0 1 5.73 6.93c.74 1.03 1.61 2.1 2.18 3.24.39.78.27 1.14-.49 1.12-1.35-.03-2.8-.59-4.1-.9-1.94-.46-3.88-.93-5.82-1.39l-11.16-2.67c-2.72-.65-3.88 3.54-1.15 4.19 3.88.92 7.77 1.84 11.66 2.75l5.34 1.26c1.62.38 3.28.9 4.95 1.02 3.21.23 5.75-2.36 5.18-5.61-.27-1.54-1.29-2.82-2.16-4.09a83 83 0 0 0-3.17-4.26 72 72 0 0 0-7.05-7.64c-.53-.49-1.06-.98-1.61-1.45-.29-.25-1.15-.83-1.21-1.11-.11-.48.46-1.47.64-1.94.33-.86.73-1.7 1.14-2.53 1.44-2.89 3.12-5.66 4.33-8.66 1.1-2.7 2.44-6.59-.61-8.54-1.68-1.08-3.56-.38-5.3.11s-3.58 1.05-5.33 1.66c-3.72 1.3-7.33 2.92-10.7 4.96-2.01 1.21-.71 4.53 1.62 3.85.27-.08.58-.17.82-.33 1.24-.81 1.49-2.89 0-3.64-1.2-.6-2.25-1.61-3.31-2.43-1.3-1-2.6-2.01-3.91-3.01-1.3-1-2.6-2.01-3.91-3.01-1.14-.88-2.25-1.91-3.54-2.56-2.73-1.4-5.77-.33-7.3 2.27s-1.16 6.02-1.2 8.92c-.02 1.56-.05 3.11-.07 4.67-.01.82-.03 1.64-.04 2.46 0 .64.2 1.78-.08 2.35-.38.78-2.11 1-2.95 1.3-1.58.56-3.16 1.15-4.74 1.74-1.42.54-2.84 1.09-4.25 1.66-1.3.52-2.73.96-3.93 1.72-2.44 1.55-2.85 4.76-.73 6.81 1.15 1.11 2.94 1.58 4.4 2.15 1.62.63 3.25 1.22 4.9 1.77q5.175 1.71 10.5 2.85l-1.58-2.07c.19 4.49.7 8.97 1.38 13.41.34 2.21.74 4.41 1.2 6.59.41 1.94.81 3.84 2.58 5.01 3.53 2.34 6.17-1.12 8.13-3.65 2.07-2.68 3.96-5.5 5.76-8.36 1.88-2.98 3.7-6.01 5.49-9.05 1.07-1.81-1.68-3.39-2.81-1.64Z"/><path d="M58.2 36.51c-2.57.9-5.01 2.18-7.2 3.8-.68.5-1.36 1.07-1.67 1.85-.39 1-.08 2.16.55 3.02s1.53 1.49 2.44 2.05c3.65 2.29 7.64 4.01 11.81 5.09 1.58.41 3.22.74 4.57 1.65-.08 5.38.21 10.76.86 16.1.1.85.26 1.79.92 2.34.63.53 1.53.54 2.35.53 1.06-.02 2.11-.03 3.17-.05.48 0 1.04-.06 1.3-.46.18-.27.15-.62.12-.94-.73-7.47-3.22-14.73-3.35-22.23 0-.36-.02-.75-.25-1.02-.2-.24-.53-.33-.84-.4-4.56-1.15-9.05-2.6-13.43-4.33-1.78-.71-3.65-1.54-4.7-3.14"/><path d="M57.83 35.17c-3.16.68-6.31 2.09-8.78 4.21-2.81 2.42-2.07 6.2.7 8.29 2.62 1.98 5.82 3.42 8.85 4.64 1.51.61 3.06 1.14 4.64 1.57s3.06.8 4.48 1.78l-.96-1.68c-.15 5.59.11 11.27.94 16.81.38 2.53 2.04 4.03 4.61 4.11 1.22.04 2.48 0 3.7-.06 1.14-.06 2.36-.35 2.98-1.43s.36-2.2.21-3.32c-.19-1.41-.41-2.81-.68-4.21-.49-2.62-1.06-5.22-1.55-7.83-.49-2.6-.9-5.21-1.02-7.85-.05-1.13.03-2.38-.82-3.26s-2.31-1.07-3.46-1.41c-2.86-.83-5.71-1.72-8.51-2.74-2.44-.89-5.26-1.69-7.02-3.71-1.37-1.58-3.86.45-2.85 2.2 1.8 3.1 5.67 4.13 8.83 5.27 1.85.66 3.71 1.28 5.59 1.84.98.29 1.96.56 2.95.8.46.12.91.22 1.37.34l.46.11c.52.18.44.06-.26-.38-.23.13.12 2.46.15 2.8.08.94.2 1.88.32 2.82.27 2.01.64 4.01 1.03 6.01.36 1.85.75 3.69 1.07 5.54.16.93.31 1.85.44 2.79.1.71.46 2.05.2 2.71l.5-.86c.46-.12.49-.15.07-.11h-.45c-.53.02-1.06.02-1.58.03-.45 0-1.7.23-2.12-.03-.4-.25-.38-1.42-.43-1.83-.11-.97-.2-1.95-.29-2.92-.35-4.06-.48-8.14-.48-12.21 0-.68-.37-1.34-.96-1.68-2.23-1.27-5.02-1.55-7.45-2.32-2.7-.86-5.27-2-7.71-3.43-1.03-.61-2.15-1.24-2.89-2.21-.81-1.06-.49-1.68.45-2.43 2.05-1.66 4.48-2.99 6.82-4.2 1.46-.75.41-2.86-1.07-2.54Zm7.74-2.23c1.91-5.43.93-10.52 1.55-16.25.12-1.15.34-2.35 1.07-3.25.89-1.09 2-1.76 3.36-2.12 1.34-.36 6.57-1.81 4.81-1.19-2.34 2.45-3.85 5.33-4.2 8.7-.34 3.37-.06 6.77-.11 10.16 0 .37-.02.76-.24 1.07-.19.26-.49.41-.78.54-.92.43-1.84.86-2.76 1.28"/><path d="M66.97 33.33c1.08-2.84 1.43-5.78 1.53-8.8.09-2.82-.16-5.82.43-8.6.46-2.18 2.29-2.77 4.21-3.29.81-.22 1.61-.44 2.42-.65l.93-.24c.23-.06.97-.13.22-.08l-.85-.23h.01c-.11-.87-.23-1.75-.34-2.63.08-.07.81-.32.51-.33-.15 0-.42.15-.53.21-.48.28-.89.78-1.25 1.19-.66.74-1.25 1.57-1.76 2.42a15.3 15.3 0 0 0-2.05 5.93c-.31 2.4-.25 4.82-.2 7.23.01.59.03 1.18.03 1.77 0 .49.16 1.31 0 1.77l.15-.07c-.16.08-.32.16-.49.23-.26.12-.53.24-.79.37-.59.27-1.18.55-1.78.82-.87.4-1.09 1.66-.64 2.43.53.89 1.55 1.04 2.43.64 1.05-.49 2.21-.9 3.19-1.51 1.15-.71 1.45-1.85 1.48-3.13.06-2.58-.12-5.16-.02-7.73.08-2.13.36-4.23 1.32-6.16.49-.98 1.09-1.88 1.76-2.74.09-.11.4-.4.42-.53 0-.08-.54.27-.27.06s.59-.26.87-.49c.81-.67.57-2.18-.34-2.64-1.32-.68-3.58.39-4.9.74-2.37.64-4.74 1.39-6.14 3.59-.81 1.27-1 2.78-1.14 4.25-.17 1.79-.21 3.59-.21 5.39 0 3.39-.04 6.77-1.02 10.04-.54 1.82 2.15 2.49 2.8.77Zm26.62 24.62c3.41.58 6.79 1.35 10.12 2.3 1.4.4 2.8.83 4.25.96 3.9.36 7.55-1.94 11.04-3.71.33-.17.8.06.77-.32-2.37-.82-4.94-.75-7.42-1.09-4.85-.67-9.35-2.92-14.14-3.94-.4-.09-.82-.16-1.2-.04-.47.15-.81.55-1.13.94-.77.95-1.54 1.91-2.31 2.86"/><path d="M93.21 59.33c2.69.58 5.34 1.28 8 2 2.47.67 4.99 1.65 7.58 1.66 2.44.01 4.72-.84 6.92-1.8 1.18-.52 2.31-1.17 3.49-1.68.95-.41 1.93-.49 2.43-1.82.38-1.02-.44-2.06-1.35-2.37-2.49-.86-5.09-.83-7.67-1.2-2.55-.37-5.02-1.21-7.46-2.03s-4.87-1.87-7.35-2.05c-1.39-.1-2.48.52-3.35 1.56s-1.81 2.16-2.53 3.32c-1.15 1.87 1.45 3.79 2.99 2.31.88-.84 1.61-1.84 2.39-2.78.39-.47.23-.48.8-.28.41.15.87.21 1.3.33 2.23.6 4.39 1.39 6.59 2.09 2.16.68 4.33 1.23 6.58 1.51 2.24.28 4.51.27 6.69.93l-1.35-2.37-.06.18 1.34-1.34c-3.74 1.11-7.19 4.53-11.64 3.92-2.23-.31-4.39-1.16-6.59-1.65-2.44-.54-4.9-.93-7.37-1.25-1.59-.21-1.94 2.47-.38 2.81m-25.76 82.94c-5-.68-10.16-.22-14.96 1.35-3.84 1.25-7.91 3.86-8.26 7.88-.22 2.55 1.22 5.03 3.18 6.68s4.4 2.61 6.81 3.47c14.61 5.24 33.59 8.07 49.11 8.36-4.04-.48-11.56-1.22-15.5-2.21-3.77-.95-5.24-2.62-8.49-4.74-4.39-2.86-7.22-5.78-8.62-10.83-.61-2.19-3.57-5.82-2.26-7.69"/><path d="M67.86 140.77c-3.74-.5-7.24-.75-10.99-.22-3.11.44-6.26 1.28-9.01 2.85-2.45 1.39-4.59 3.46-5.44 6.21-.95 3.07.13 6.3 2.12 8.7 2.1 2.54 5.34 3.84 8.36 4.92 2.93 1.04 5.92 1.95 8.92 2.77 6.49 1.78 13.11 3.08 19.77 4.04 3.69.53 7.43 1.05 11.15 1.26 3.53.2 7.05.28 10.59.43 1.89.08 2.39-3.1.46-3.37-3.02-.42-6.05-.74-9.07-1.17-2.88-.41-6.09-.7-8.74-1.97-1.38-.66-2.6-1.58-3.84-2.47-1.37-.98-2.83-1.85-4.15-2.91-2.21-1.77-3.9-4.05-4.87-6.72-.57-1.57-1.08-3.06-1.85-4.55-.31-.6-.64-1.21-.87-1.85-.09-.25-.21-.59-.24-.82-.04-.33-.11-.07.05-.33 1.35-2.23-2.15-4.27-3.49-2.04-1.8 2.98.83 6.05 1.9 8.75.62 1.55.99 3.14 1.83 4.61s1.85 2.75 3.02 3.9c2.53 2.48 5.65 4.43 8.58 6.39 2.95 1.98 6.25 2.71 9.71 3.21 3.85.56 7.72.97 11.59 1.34v-3.43c-5.78.01-11.64-.7-17.38-1.4-5.85-.71-11.67-1.72-17.41-3.06-5.53-1.28-11.38-2.67-16.51-5.17-2.22-1.08-4.55-2.69-5.41-5.12-.79-2.25.34-4.21 2.06-5.64 2.21-1.84 5.13-2.68 7.88-3.33 3.49-.82 7.32-1.19 10.89-.75 1.73.21 2.16-2.83.42-3.07Zm60.73-118.42 2.76-2.76c.25-.25.41-.63.41-.98s-.15-.75-.41-.98-.61-.42-.98-.41-.72.14-.98.41l-2.76 2.76c-.25.25-.41.63-.41.98s.15.75.41.98.61.42.98.41.72-.14.98-.41m6.04 11.49c.12-.05.23-.11.35-.16.27-.13-.23.08.03 0 .21-.07.41-.15.62-.22.43-.14.88-.27 1.32-.4.87-.25 1.76-.41 2.64-.59.73-.15 1.17-.95 1.07-1.65s-.73-1.37-1.47-1.3c-1.06.1-2.07.34-3.08.69s-1.92.82-2.84 1.31c-.62.33-.86 1.24-.48 1.84.42.66 1.16.8 1.84.48m3.81 12.89c.16-.11.33-.2.5-.27l-.33.14c.24-.1.5-.17.76-.21l-.38.05c.33-.04.67-.05 1 0l-.38-.05c.19.03.37.07.55.13.34.11.8.03 1.1-.14s.58-.51.65-.85c.08-.36.06-.77-.14-1.1s-.49-.52-.85-.65c-.71-.25-1.47-.27-2.2-.13-.36.07-.69.21-1.02.36s-.62.37-.91.6c-.24.19-.41.66-.4.96s.1.58.29.82c.17.22.42.42.7.48.34.08.74.07 1.04-.14Zm1.03 8.5c2.06 0 2.06-3.2 0-3.2s-2.06 3.2 0 3.2M36.68 70.06c-10.8 5.04-18.24 18.41-13.73 30.1 2.2 5.71 7.3 10.11 13.52 10.6 5.74.45 11.51-3.48 13.02-9.08.8-2.99.39-6.51-2.56-8.13-2.65-1.46-5.93-1.02-8.48.4-5.58 3.1-8.75 10.11-9.36 16.21-.58 5.81 1.49 12.08 6.84 15.05 4.48 2.49 10.81 1.37 13.63-3.11.83-1.33 1.39-3.19.05-4.39-1.12-1-3.03-1.08-4.45-.91-3.14.38-6.05 2.44-7.47 5.27-3.44 6.83.7 14.14 5.36 19.13 1.26 1.35 3.14-.62 2-2-3-3.63-6.05-8.15-5.34-13.1.31-2.15 1.37-4.21 3.24-5.39.87-.55 1.87-.92 2.9-.98.46-.03.89.09 1.34.11.77.02.19.19.23-.11-.04.27-.3.65-.44.88-2.03 3.24-6.8 3.79-9.9 1.92-3.92-2.37-5.49-7.59-4.71-11.92.46-2.59 1.53-5 2.78-7.29 1.06-1.94 2.39-3.85 4.15-5.22 1.48-1.15 3.63-2.07 5.49-1.28s1.16 3.41.54 4.8c-1.64 3.7-5.85 5.76-9.77 4.92-4.25-.91-7.63-4.14-9.01-8.22-3.38-9.96 2.74-21.02 11.74-25.52 1.84-.92.23-3.59-1.6-2.74Z"/></svg>