<?xml version="1.0" encoding="UTF-8"?><svg xmlns="http://www.w3.org/2000/svg" viewBox="0 0 180 180"><path d="M76.44 20.88c-7.45 14.77-15.61 29.17-24.4 43.18-8.8 14.02-18.1 27.7-28 40.96-2.71 3.63-5.49 7.21-8.27 10.78-2.85 3.67-5.63 7.46-7.6 11.69-.61 1.32.08 3.33 1.83 3.19 20.76-1.72 41.65-1.7 62.47-1.9 20.85-.2 41.67-.68 62.47-2.22 11.71-.87 23.4-2 35.06-3.39 1.68-.2 3.52-2.11 2.21-3.86-17.06-22.72-38.13-41.98-58.55-61.59-6.11-5.87-12.28-11.66-18.52-17.39-1.29-1.19-3.08-.58-3.68.97-3.28 8.6-7.45 16.96-11.8 25.06-4.39 8.18-9.22 16.11-14.39 23.82-2.92 4.35-5.97 8.61-9.11 12.79-.96 1.27.32 3.5 1.9 3.32 17.86-2.09 36.01-2.49 53.97-1.67 2.02.09 2.91-2.51 1.6-3.87-3.49-3.61-7.09-7.13-10.59-10.73l-5.17-5.31c-1.78-1.83-3.74-3.49-5.51-5.33-1.63-1.69-4.2.89-2.57 2.57 1.72 1.78 3.26 3.73 4.97 5.51s3.54 3.69 5.31 5.53c3.48 3.63 6.87 7.34 10.37 10.96l1.6-3.87c-18.05-.82-36.01-.05-53.97 1.79.52 1.25 1.04 2.51 1.56 3.76 11.52-14.91 21.35-31.05 29.43-48.07 2.28-4.8 4.32-9.7 6.44-14.58l-3.45.45c10.46 10.53 21.17 20.79 31.84 31.1 9.89 9.55 19.73 19.17 28.96 29.37 5.24 5.78 10.27 11.76 14.96 18 .74-1.29 1.48-2.57 2.21-3.86-20.7 2.47-41.47 4.08-62.3 4.94-20.84.86-41.69.71-62.53 1.36-11.75.37-23.46 1.03-35.17 2.1l1.83 3.19c3.71-7.2 9.35-13.32 14.23-19.73 5.01-6.58 9.85-13.29 14.52-20.11a493 493 0 0 0 25.97-42.26c4.49-8.2 8.78-16.51 12.86-24.91.96-1.98-1.98-3.74-2.98-1.74ZM21.22 44.93c-3.7.05-7.15 2.78-8.23 6.31s.17 7.62 2.92 10.09c.76.68 1.62 1.25 2.59 1.58.78.26 1.61.36 2.43.42 5.29.35 10.21-1.75 11.86-7.13 1.47-4.8-.35-9.11-5.09-10.74-2.37-.81-4.98-1.09-7.39-.41s-4.6 2.37-5.53 4.7"/><path d="M21.22 43.39c-5.81.15-10.66 4.64-10.65 10.57 0 2.91 1.11 5.68 2.98 7.88 2.18 2.58 5.17 3.57 8.47 3.57 5.05 0 10.05-2.32 12.14-7.13 2.13-4.9 1.2-10.76-3.59-13.68-5.73-3.49-15.21-2.4-17.66 4.62-.72 2.06 2.55 3.45 3.54 1.49 2.11-4.18 7.03-4.9 11.12-3.2 3.3 1.37 4.29 4.58 3.35 7.85-.98 3.39-3.75 5.37-7.04 5.83-1.96.27-4.32.27-5.99-.91-1.57-1.11-2.59-2.87-3.03-4.72-.98-4.04 1.98-8.95 6.37-9.11 1.97-.07 1.99-3.13 0-3.08Zm119.43-3.65c-3.7.05-7.15 2.78-8.23 6.31s.17 7.62 2.92 10.09c.76.68 1.62 1.25 2.59 1.58.78.26 1.61.36 2.43.42 5.29.35 10.21-1.75 11.86-7.13 1.47-4.8-.35-9.11-5.09-10.74-2.37-.81-4.98-1.09-7.39-.41-2.41.67-4.6 2.37-5.53 4.7"/><path d="M140.65 38.2c-5.81.15-10.66 4.64-10.65 10.57 0 2.91 1.11 5.68 2.98 7.88 2.18 2.58 5.17 3.57 8.47 3.57 5.05 0 10.05-2.32 12.14-7.13 2.13-4.9 1.2-10.76-3.59-13.68-5.73-3.49-15.21-2.4-17.66 4.62-.72 2.06 2.55 3.45 3.54 1.49 2.11-4.18 7.03-4.9 11.12-3.2 3.3 1.37 4.29 4.58 3.35 7.85s-3.75 5.37-7.04 5.83c-1.96.27-4.32.27-5.99-.91-1.57-1.11-2.59-2.87-3.03-4.72-.98-4.04 1.98-8.95 6.37-9.11 1.97-.07 1.99-3.13 0-3.08ZM84.03 146.19c-3.7.05-7.15 2.78-8.23 6.31s.17 7.62 2.92 10.09c.76.68 1.62 1.25 2.59 1.58.78.26 1.61.36 2.43.42 5.29.35 10.21-1.75 11.86-7.13 1.47-4.8-.35-9.11-5.09-10.74-2.37-.81-4.98-1.09-7.39-.41s-4.6 2.37-5.53 4.7"/><path d="M84.03 144.65c-5.81.15-10.66 4.64-10.65 10.57 0 2.91 1.11 5.68 2.98 7.88 2.18 2.58 5.17 3.57 8.47 3.57 5.05 0 10.05-2.32 12.14-7.13 2.13-4.9 1.2-10.76-3.59-13.68-5.73-3.49-15.21-2.4-17.66 4.62-.72 2.06 2.55 3.45 3.54 1.49 2.11-4.18 7.03-4.9 11.12-3.2 3.3 1.37 4.29 4.58 3.35 7.85s-3.75 5.37-7.04 5.83c-1.96.27-4.32.27-5.99-.91-1.57-1.11-2.59-2.87-3.03-4.72-.98-4.04 1.98-8.95 6.37-9.11 1.97-.07 1.99-3.13 0-3.08Z"/></svg>