<?xml version="1.0" encoding="UTF-8"?><svg xmlns="http://www.w3.org/2000/svg" viewBox="0 0 180 180"><path d="M26.26 119.02c12.17 1.56 24.54 1.3 36.65-.69 11.19-1.84 22.44-5.06 32.19-11.01 4.82-2.94 10.47-6.68 13.03-11.91.84-1.71-.22-3.26-2-3.49-7.84-1.01-14.5-5.94-22.15-7.61-6.46-1.41-14.35-.92-18.93 4.49-1.09 1.29-1.95 2.73-2.93 4.09-.66.92-1.54 2.07-2.74 2.24-1.7.25-3.82-.86-5.44-1.34-1.81-.53-3.63-1.01-5.48-1.36-3.64-.7-7.41-.99-11.05-.15-3.66.85-6.79 2.99-9.14 5.9-2.53 3.14-4.36 6.86-7.4 9.57-2.97 2.65-6.89 4.22-10.86 4.44-1.17.06-2.17.85-2.32 2.05-.13 1.05.52 2.4 1.69 2.59-.02 0-.76-.3-.79-.46 0 .04.15.13.18.17.12.18.3.35.44.52-.31-.39.23.33.29.41.22.31.44.63.66.95.73 1.07 1.42 2.17 2.14 3.24 2.36 3.53 5.53 6.71 8.63 9.59 6.18 5.72 13.39 10.24 21.47 12.72 14.04 4.31 30.26 3 43.03-4.44 7.84-4.57 14.69-11.7 17.22-20.58.75-2.65-3.14-3.63-4.07-1.12-5.09 13.8-19.27 21.9-33.34 23.51-6.85.78-13.83.28-20.46-1.61-7.52-2.14-14.2-6.21-19.99-11.42a74 74 0 0 1-5.58-5.63c-.93-1.05-1.84-2.12-2.72-3.22.31.38.25.34.04.01-.15-.23-.31-.47-.47-.7-.82-1.24-1.62-2.49-2.48-3.69-.68-.95-1.65-2.6-2.94-2.81l-.63 4.63c3.89-.21 7.69-1.34 11-3.42s5.66-4.86 7.81-8.01c1.94-2.85 3.78-5.92 6.91-7.6 2.95-1.59 6.5-1.65 9.74-1.22 3.71.49 7.2 1.75 10.79 2.73 2.06.56 4.18.61 6.1-.41 1.51-.8 2.61-2.11 3.6-3.46 1.81-2.46 3.16-4.92 6.1-6.19 2.75-1.18 5.97-1.27 8.9-.85 4.11.58 7.93 2.3 11.71 3.92 4.37 1.87 8.7 3.59 13.46 4.15l-2-3.49c-2.01 4.21-6.4 7.28-10.18 9.78a64.4 64.4 0 0 1-13.3 6.74c-11.1 4.12-23.08 6.11-34.88 6.75-6.52.36-13.01.41-19.51-.24-1.88-.19-1.82 2.67 0 2.91Z"/><path d="M25.16 117.64c3.67 3.08 8.3 4.41 12.92 5.34 5.17 1.03 10.43 1.69 15.68 2.13 10.65.89 21.43.69 32.02-.84 5.72-.83 11.3-2.28 16.56-4.71 1.11-.51 1.38-2.11.81-3.09-.66-1.14-1.98-1.32-3.09-.81-8.77 4.06-18.76 4.99-28.31 5.4-10.11.43-20.23-.06-30.24-1.55-5.05-.75-9.94-1.91-14.53-4.21-1.43-.72-3.2 1.2-1.82 2.36Z"/><path d="M74.9 79.33c-5.89-6.01-.71-15.85 1.15-22.47.99-3.52 1.9-7.29 4.16-10.26 2.16-2.84 5.49-4.48 8.91-5.26 4.1-.94 8.43-.55 12.53.18 4.67.83 9.29 1.95 13.91 3.02 9.13 2.12 18.2 4.45 27.27 6.78 4.62 1.19 9.23 2.38 13.84 3.59 1.88.49 3.78.97 5.41 2.08 1.33.91 2.36 2.19 3.14 3.59 3.95 7.07.44 14.94-1.74 21.95-.98 3.16-1.91 6.32-3.31 9.31-1.51 3.23-3.39 6.11-7.03 7.04-6.9 1.77-13.57-1.03-20.39-1.65-2.03-.19-3.98-.02-5.63 1.28-1.37 1.09-2.45 2.58-3.74 3.77-2.46 2.27-5.2 4.2-8.05 5.95-5.55 3.41-11.51 6.11-17.6 8.41-1.14.43-2.28.91-3.43 1.28-2.62.84-1.5 4.99 1.14 4.14 6.31-2.02 12.43-4.3 18.31-7.37 3.36-1.75 6.64-3.71 9.65-6.02 1.47-1.13 2.89-2.31 4.22-3.6 1.11-1.08 2.13-3.03 3.79-3.06 3.44-.07 6.87 1.02 10.22 1.62 3.9.7 7.88.88 11.8.19 8.69-1.53 11.84-10.24 14.17-17.67 2.5-8 6.28-16.5 3.35-24.93-1.33-3.81-3.83-7.35-7.49-9.23-2.17-1.11-4.55-1.67-6.89-2.28s-4.77-1.25-7.16-1.87c-9.79-2.54-19.59-4.99-29.45-7.25-4.88-1.12-9.76-2.22-14.67-3.18s-9.66-1.69-14.51-1.08c-4.15.52-8.12 1.93-11.42 4.55-3.33 2.65-5.22 6.47-6.49 10.45-1.34 4.2-2.55 8.52-3.64 12.78s-1.49 8.69.17 12.82c.72 1.79 1.76 3.39 3.21 4.67 1.54 1.36 3.74-.78 2.28-2.28Z"/><path d="M98.26 60.61c-.43-1-.89-2-1.21-3.04-.58-1.89-3.59-1.61-3.54.48.03 1.14.33 2.27.75 3.32s.96 2.52 2.01 3.13c1.49.87 2.67-.28 3.67-1.27q1.335-1.32 2.64-2.64c1.8-1.82-.93-4.52-2.8-2.8-1.2 1.1-2.39 2.2-3.59 3.3-1.35 1.24-.21 3.27 1.4 3.38 2.37.16 4.69.66 6.94 1.43l.54-3.96c-2.39.06-4.86-.05-7.19-.63-1.66-.41-2.79 1.01-2.55 2.55.33 2.14.81 4.26 1.2 6.39.42 2.3 4.23 1.79 4.1-.55-.12-2.13-.49-4.26-1.16-6.29-.26-.8-.89-1.4-1.75-1.5-.91-.11-1.55.3-2.09 1-1.18 1.53-2.35 3.07-3.53 4.59 1.19.49 2.38.99 3.57 1.48.07-.99.51-2.3 1.2-3.11.55-.65.79-1.47.43-2.29-.31-.7-1.09-1.38-1.92-1.29-1.72.19-3.45.29-5.18.28v4.29l5.23-.54c1.15-.12 2.15-.9 2.15-2.15 0-1.07-.99-2.27-2.15-2.15-1.74.18-3.49.37-5.23.55-1.15.12-2.14.9-2.14 2.14 0 1.16.98 2.14 2.14 2.14 1.93 0 3.83-.16 5.74-.45l-2.04-3.51c-1.43 1.81-2.28 3.75-2.42 6.07-.05.91.69 1.78 1.54 2.02.97.27 1.79-.21 2.36-.96 1.17-1.53 2.36-3.05 3.55-4.58l-3.51-.93c.55 1.69.92 3.4 1.04 5.18 1.37-.18 2.73-.37 4.1-.55-.42-2.12-.75-4.27-1.23-6.38l-2.55 2.55c2.77.49 5.48.83 8.29.66 2.26-.13 2.75-3.25.54-3.96-2.6-.84-5.29-1.32-8.01-1.5l1.4 3.38 3.58-3.31-2.8-2.8c-1.19 1.2-2.31 2.5-3.56 3.63l.86-.5-.18.07h1.03l-.17-.04.85.5.04.12c-.07-.11-.14-.21-.2-.32-.09-.15-.17-.29-.26-.44-.17-.3-.33-.61-.46-.92-.31-.75-.46-1.54-.68-2.32-1.1.46-2.19.92-3.29 1.39.63 1.06 1.11 2.21 1.62 3.33.38.82 1.55 1.02 2.28.6.86-.5.95-1.45.6-2.28Zm22.07 14.36c-.73-1.37-1.76-2.56-2.61-3.86s-1.53-2.8-1.41-4.35c.04-.55.19-1.11.56-1.52s.98-.63 1.49-.42c.5.21.76.74.97 1.23.86 2.12 1.28 4.42 1.22 6.71.64-2.2 2.23-4.1 4.27-5.13.58-.29 1.23-.52 1.87-.43s1.27.57 1.34 1.21c.08.73-.52 1.34-1.08 1.8a28.3 28.3 0 0 1-6.91 4.17"/><path d="M121.7 74.17c-.73-1.45-1.76-2.71-2.57-4.12-.2-.35-.41-.72-.56-1.09.08.19-.06-.18-.08-.23-.07-.19-.12-.38-.17-.58-.04-.16-.08-.33-.1-.49.04.31 0-.23 0-.29 0-.2 0-.4.02-.6-.03.38.06-.16.07-.21l-.06.12q.18-.285 0-.06c.01-.17.2-.09-.08.03-.19.08-.39.06-.57-.02-.05-.02-.4-.21-.35-.3-.01.02.21.36.24.43-.23-.41.06.16.08.23.15.4.28.81.4 1.22.47 1.65.61 2.8.58 4.56-.02.99.77 1.83 1.73 1.96s1.89-.47 2.19-1.43c.05-.17.11-.33.17-.5.14-.44-.12.2.07-.17.17-.34.35-.68.55-1 .1-.15.2-.29.3-.43.08-.11.07-.09-.04.06.06-.07.11-.14.17-.2.23-.27.48-.52.74-.75.05-.04.45-.37.27-.24-.17.13.32-.22.37-.25.3-.19.61-.38.94-.52-.31.13.2-.05.26-.07l.19-.04c-.22.03-.2.04.04.03l-.18-.02c.22.07.21.06-.02-.02l-.14-.13c.16.16.16.15 0-.04a.6.6 0 0 1-.08-.48c.03-.34.02-.39-.04-.14.09-.21.1-.25.02-.12-.08.12-.06.09.06-.08-.28.22-.53.49-.81.71-.52.43.31-.22-.23.18-.17.12-.33.25-.5.37-.34.24-.68.48-1.03.7-1.46.95-3.01 1.68-4.57 2.44-.94.46-1.24 1.73-.86 2.63s1.49 1.58 2.49 1.22c1.73-.62 3.37-1.54 4.9-2.54.82-.54 1.6-1.12 2.36-1.72.68-.54 1.37-1.12 1.77-1.92.53-1.07.58-2.3-.05-3.35s-1.79-1.62-2.98-1.7c-1.84-.12-3.69 1.09-5 2.27-1.41 1.27-2.42 2.97-2.97 4.78 1.31.18 2.61.35 3.92.53.04-2.24-.31-4.52-1.07-6.63-.41-1.13-.87-2.31-1.97-2.94-1.23-.71-2.89-.44-3.89.56-1.84 1.85-1.31 4.76-.25 6.86.96 1.88 2.54 3.35 3.6 5.17.43.74 1.43 1 2.17.57.78-.46.95-1.4.57-2.17Zm21.5 6.08c-1.55-1.47-1.18-4.13-2.47-5.83 1.79-.85 3.57-1.7 5.36-2.54.1-.05.21-.1.32-.07.1.02.17.11.24.19 1.31 1.58 2.31 3.42 2.91 5.38-2.1 1.33-4.29 2.52-6.55 3.56"/><path d="M144.36 79.09c-.13-.14-.19-.27-.05-.05-.07-.12-.15-.24-.22-.36-.03-.06-.16-.43-.09-.18s-.04-.15-.06-.2c-.16-.51-.26-1.03-.36-1.55-.23-1.17-.57-2.27-1.15-3.32l-.7 2.68c.9-.41 1.8-.82 2.7-1.24.44-.2.87-.41 1.3-.61l.65-.31.32-.15c.35-.17.39-.02-.29.01l-1.01-.27c-.31-.14-.29-.27-.12-.07.13.16.2.24.03.03a17 17 0 0 1 1.25 1.91c.24.43.51.88.66 1.34-.08-.25-.07-.18 0 .03.05.12.1.25.14.37.09.25.17.5.25.75l.92-2.27a57 57 0 0 1-6.55 3.56c-.96.44-1.27 1.89-.72 2.75.63.98 1.73 1.2 2.75.72 2.26-1.05 4.44-2.24 6.55-3.56.73-.46 1.19-1.4.92-2.27-.37-1.17-.84-2.31-1.43-3.38s-1.25-2.12-2.07-2.96c-.41-.43-1-.67-1.59-.7-.55-.02-1.01.2-1.49.42-.57.27-1.14.54-1.7.81-1.16.55-2.31 1.13-3.47 1.7-1.18.58-1.2 2.22-.4 3.08.26.27-.21-.36.04.05l.18.33c.22.43-.09-.3.04.07.04.12.09.24.13.36.17.51.3 1.03.46 1.54.38 1.2.88 2.41 1.84 3.26.64.57 1.7.68 2.32 0s.62-1.64 0-2.32ZM12.14 115.23c6.84.93 13.48-1 19.3-6.39 2.7-2.5 4.98-5.84 8.56-6.71 1.89-.46 3.87-.15 5.78.25 3.43.72 6.81 1.75 10.3 2.07s7.19-.11 10.1-2.07c3.62-2.45 5.65-7.01 9.68-8.72 1.39-.59 2.92-.79 4.44-.84 8.25-.23 16.51 4 24.51 1.95-6.7 6.38-15.34 10.25-23.84 13.92-2.33 1.01-4.68 2.01-7.12 2.72-2.42.71-4.91 1.12-7.39 1.53-12.34 2.05-24.8 4.11-37.28 3.37-1.34-.08-2.82-.15-3.9.65 6.58 4.17 14.32 6.1 22.01 7.35 9.13 1.48 18.41 2.08 27.65 1.78 7.59-.24 15.22-1.1 22.42-3.53a33.36 33.36 0 0 1-11.16 11.82c-4.36 2.77-9.31 4.49-14.36 5.58-16.69 3.6-35.36-.11-47.8-11.8-1.65-1.55-3.18-3.22-4.71-4.89-1.84-2.01-3.69-4.02-5.53-6.04"/><path d="M11.73 116.69c6.48.94 12.95-.43 18.26-4.35 2.58-1.91 4.56-4.32 6.94-6.44 1.02-.91 2.19-1.71 3.54-2.02 1.74-.41 3.57-.01 5.28.36 6.88 1.51 14.48 4.14 21.05.05 2.53-1.58 4.23-3.97 6.21-6.14.92-1 1.91-1.94 3.14-2.56 1.56-.79 3.29-.85 5.01-.76 8.11.46 16.04 4.01 24.21 2.06l-2.13-3.66c-3.7 3.47-8.05 6.15-12.54 8.48-4.56 2.37-9.31 4.5-14.1 6.36-5.32 2.07-11.02 2.76-16.63 3.65-5.74.92-11.49 1.74-17.29 2.16-3.27.24-6.56.36-9.84.3-2.81-.05-6.23-.82-8.74.82-1.44.94-1.49 2.99 0 3.92 8.12 5.08 17.64 6.98 27 8.22 10.01 1.33 20.24 1.71 30.31.81 5.6-.5 11.15-1.47 16.51-3.22l-2.53-3.29c-3.15 5.49-7.8 9.88-13.46 12.71-5.46 2.74-11.7 4.15-17.76 4.64-11.47.92-23.32-1.51-32.99-7.89-6.15-4.06-10.84-9.91-15.77-15.3-2.02-2.21-5.3 1.08-3.28 3.28 4.83 5.27 9.44 10.86 15.3 15.04 5.08 3.62 10.93 6.21 16.97 7.77 12.47 3.22 26.44 2.43 38.25-2.84a35.68 35.68 0 0 0 16.61-15.16c.9-1.62-.61-3.93-2.53-3.29-9.03 3.05-18.69 3.63-28.15 3.51s-19.1-1.03-28.31-3.31c-4.88-1.21-9.59-2.93-13.88-5.61v3.92c.83-.54 1.8-.39 2.75-.34 1.48.08 2.95.13 4.43.15 2.96.03 5.91-.09 8.86-.3 5.95-.43 11.87-1.26 17.76-2.19 5.67-.9 11.53-1.54 16.93-3.56 4.99-1.86 9.94-4.1 14.7-6.49 5.26-2.64 10.21-5.81 14.5-9.87 1.63-1.55-.07-4.16-2.13-3.66-6.9 1.69-13.96-1.29-20.83-1.82-3.33-.26-7.18.11-10.01 2.04-2.41 1.64-4.13 4-6.15 6.05-2.19 2.22-4.76 3.45-7.89 3.65-3.63.22-7.21-.67-10.73-1.44-3.49-.76-7.1-1.72-10.54-.24-2.78 1.19-4.75 3.53-6.82 5.63-5.12 5.21-11.77 7.98-19.09 7.18-1.68-.18-2.09 2.73-.4 2.98Zm11.65-36.91c-.14-.16-.27-.31-.4-.48l.27.34c-.38-.5-.78-.99-1.17-1.49l.29.37c-.31-.41-.61-.83-.89-1.26-.14-.21-.28-.42-.43-.62s-.29-.46-.49-.63c-.1-.09-.21-.17-.31-.26-.31-.26-.61-.43-1.01-.49-.38-.05-.8 0-1.13.21-.68.44-.99 1.2-.81 1.99.07.33.16.64.32.94.1.17.2.33.31.5.29.45.67.86 1.02 1.26.26.29.53.57.81.85.38.37.79.69 1.22 1l-.34-.26c.26.2.51.4.78.59.31.23.9.28 1.26.16s.63-.3.85-.59.37-.63.35-.99c-.02-.45-.18-.81-.48-1.15Zm14.24-8.74c-.04-.09-.08-.17-.12-.26-.05-.11-.1-.36 0 .01-.05-.18-.13-.36-.19-.54-.12-.35-.22-.7-.31-1.05-.19-.72-.33-1.47-.43-2.21l.06.47c-.06-.47-.08-.95-.26-1.4-.14-.36-.3-.65-.61-.89-.29-.22-.66-.38-1.04-.37-.3.01-.59.09-.86.23-.32.17-.73.65-.79 1.02-.03.24-.09.49-.1.74s.05.51.1.76c.04.22.09.44.15.65q.18.72.45 1.41c.39 1.01.87 1.97 1.39 2.92.38.68 1.38.96 2.04.54.72-.47.9-1.29.54-2.04Zm15.36-3.13c0-.13 0-.26.02-.39l-.05.38c.18-1.27.33-2.59.18-3.87-.05-.43-.14-.79-.46-1.1-.27-.27-.72-.48-1.1-.46s-.82.15-1.1.46l-.24.32c-.14.24-.21.51-.21.79-.15 1.28 0 2.6.18 3.87l-.05-.38c.01.13.02.26.02.39.02.37.15.73.41 1 .25.25.65.43 1 .41.79-.04 1.38-.62 1.41-1.41Z"/></svg>