<?xml version="1.0" encoding="UTF-8"?><svg xmlns="http://www.w3.org/2000/svg" viewBox="0 0 180 180"><path d="M86.45 45.19c.03 16-.25 31.99-.22 47.99 0 4.93.02 9.86.02 14.8 0 .99.89 2.01 1.94 1.94 9.6-.69 19.24-1.1 28.85-1.38 4.81-.14 9.63-.22 14.45-.25 2.33-.01 4.65-.02 6.98 0 1.16 0 2.33.01 3.49.02.66 0 1.34.07 1.99.02.44-.03 2.67-.96.73-.2h-1.12.03l-.93-.54.02.03-.54-.93c-.06-.21.08-.89-.03-.71-.06.1-.08.32-.11.43-.11.39-.25.77-.38 1.16-.32.9-.67 1.78-1.02 2.66-.05.13-.43 1.03-.22.54-.12.28-.25.56-.38.84-.64 1.34-1.34 2.65-2.08 3.94-2.74 4.79-5.99 9.23-9.9 13.14-7.35 7.35-16.58 12.51-26.73 14.77-10.81 2.4-22.21 1.34-32.62-2.33-9.66-3.41-17.63-10.02-22.76-18.88-5.81-10.04-7.82-21.9-8.15-33.36l-2.15 2.15c28.95-2.54 57.93-4.84 86.97-6.25 8.09-.39 16.18-.71 24.28-.94 1.12-.03 2.2-.96 2.15-2.15-.44-10.49-4.26-20.68-10.55-29.07-6.65-8.87-15.63-15.46-25.96-19.43-19.95-7.67-43.94-5.24-61.44 7.23-4.51 3.21-8.42 7.06-11.76 11.48s-5.63 9.39-7.16 14.78c-.61 2.15 2.74 3.07 3.34.92 2.49-8.82 8.47-16.27 15.55-21.86 7.25-5.72 16.03-9.5 25.06-11.31 20.23-4.06 42.66 1.86 56.44 17.65 7.14 8.19 11.71 18.7 12.17 29.6l2.15-2.15c-29.05.83-58.07 2.79-87.03 5.14-8.07.66-16.15 1.35-24.22 2.05-1.13.1-2.18.9-2.15 2.15.32 11.41 2.29 23.02 7.51 33.27 5.24 10.28 13.77 18.12 24.46 22.46 11.27 4.58 24.13 5.75 36.04 3.33 11.38-2.32 21.96-8.18 30.05-16.5 4.22-4.34 7.86-9.33 10.66-14.7a64 64 0 0 0 2.76-6.04c.58-1.48 1.86-3.8 1.17-5.4-.65-1.52-2.52-1.66-3.64-.58l1.49-.62c-18.62-.16-37.19.52-55.76 1.93l1.94 1.94c-.09-16-.18-31.99-.46-47.99-.09-4.93-.17-9.86-.19-14.8 0-1.95-3.04-1.95-3.03 0Z"/><path d="M59.52 70.22a11.8 11.8 0 0 0-1.51 3.69c-.26 1.2-.3 2.58.4 3.65.52.79 1.29 1.24 2.23 1.32.79.07 1.54-.27 2.12-.79.92-.84 1.21-2.2 1.3-3.38.05-.66.09-1.32.04-1.98-.04-.45-.09-.92-.21-1.36-.15-.54-.37-1.21-.81-1.57-.25-.2-.5-.39-.82-.48-.41-.11-.83-.07-1.21.09-.65.27-1.18.96-1.15 1.7.02.39.1.69.26 1.05.04.09.09.18.13.28l-.19-.45c.15.38.24.78.3 1.18l-.07-.5c.1.83.1 1.7 0 2.53l.07-.49c-.05.36-.13.71-.27 1.04l.18-.43c-.04.09-.08.17-.13.26-.1.16-.24.19.12-.14l-.14.14c.29-.35.32-.22.1-.11l.43-.18c-.08.03-.16.06-.25.07l.48-.06c-.09.01-.18.01-.28 0l.48.06c-.07 0-.13-.04-.2-.04.32.15.4.18.25.1l-.05-.03c.27.22.34.27.21.16l-.05-.05c-.2-.18.25.42.09.12-.03-.06-.06-.12-.1-.18-.09-.14.16.48.07.15-.04-.16-.08-.31-.11-.48l.06.46c-.04-.34-.04-.67 0-1.01l-.06.45c.08-.61.21-1.21.4-1.8.09-.27.23-.54.29-.81-.02.09-.12.28-.03.08.04-.08.08-.17.11-.25.07-.15.14-.29.22-.44.38-.73.21-1.74-.56-2.15s-1.69-.18-2.15.56Zm53.33-3.04a11.8 11.8 0 0 0-1.51 3.69c-.26 1.2-.3 2.58.4 3.65.52.79 1.29 1.24 2.23 1.32.79.07 1.54-.27 2.12-.79.92-.84 1.21-2.2 1.3-3.38.05-.66.09-1.32.04-1.98-.04-.45-.09-.92-.21-1.36-.15-.54-.37-1.21-.81-1.57-.25-.2-.5-.39-.82-.48-.41-.11-.83-.07-1.21.09-.65.27-1.18.96-1.15 1.7.02.39.1.69.26 1.05.04.09.09.18.13.28l-.19-.45c.15.38.24.78.3 1.18l-.07-.5c.1.83.1 1.7 0 2.53l.07-.49c-.05.36-.13.71-.27 1.04l.18-.43c-.04.09-.08.17-.13.26-.1.16-.24.19.12-.14l-.14.14c.29-.35.32-.22.1-.11l.43-.18c-.08.03-.16.06-.25.07l.48-.06c-.09.01-.18.01-.28 0l.48.06c-.07 0-.13-.04-.2-.04.32.15.4.18.25.1l-.05-.03c.27.22.34.27.21.16l-.05-.05c-.2-.18.25.42.09.12-.03-.06-.06-.12-.1-.18-.09-.14.16.48.07.15-.04-.16-.08-.31-.11-.48l.06.46c-.04-.34-.04-.67 0-1.01l-.06.45c.08-.61.21-1.21.4-1.8.09-.27.23-.54.29-.81-.02.09-.12.28-.03.08.04-.08.08-.17.11-.25.07-.15.14-.29.22-.44.38-.73.21-1.74-.56-2.15s-1.69-.18-2.15.56Zm-76.19 22.8c.3 11.37 8.06 21.67 18.03 27.13s20.16 9.17 31.49 8.16c-.86-12.17-.08-26.86-.94-39.03a260.3 260.3 0 0 1-46.08 3.03"/><path d="M35.08 89.98c-.06 8.58 4.19 16.68 10.25 22.57 3.18 3.09 6.84 5.46 10.75 7.5 4.39 2.28 8.97 4.26 13.74 5.58 5.31 1.47 10.86 2.07 16.36 1.61 1-.08 2.04-.83 1.96-1.96-.9-12.98-.27-26.03-.77-39.03-.04-1.05-.95-2.28-2.13-2.13-7.65.93-15.28 1.88-22.97 2.37s-15.4.67-23.11.5c-2.95-.07-2.95 4.51 0 4.58 15.52.35 31.37-.37 46.65-3.26-.9-.69-1.8-1.37-2.7-2.06 1.3 12.95.21 26.04 1.11 39.03l1.96-1.96c-9.16.77-17.96-1.67-26.16-5.63-3.7-1.79-7.33-3.74-10.46-6.43s-5.53-5.57-7.49-8.96c-2.18-3.77-3.5-7.97-3.83-12.31-.15-2-3.14-2.06-3.16 0Z"/><path d="M37.38 29.69c-13.7 8.39-23.14 21.88-27.11 37.37-3.95 15.41-3.04 31.99 1.62 47.14 2.27 7.36 5.37 14.74 9.71 21.13a69 69 0 0 0 15.5 16.29c12.26 9.27 27.34 14.52 42.51 16.39 15.03 1.86 30.83.47 45.02-5 15.13-5.83 27.57-16.59 35.74-30.6 8.57-14.72 12.29-32.07 11.78-49.01-.26-8.61-1.6-17.23-4.06-25.49-2.92-9.79-7.85-18.72-15.18-25.92-12.14-11.91-28.94-17.85-45.54-19.94-8.58-1.08-17.29-1.11-25.88-.15s-16.63 2.61-24.43 5.65c-3.66 1.43-7.16 3.13-10.62 4.98-2.19 1.17-.24 4.5 1.95 3.33 6.72-3.59 14.33-5.9 21.74-7.59 7.99-1.82 16.19-2.67 24.39-2.63 16.06.08 32.68 3.58 46.33 12.34 7.5 4.82 13.77 11.32 18.13 19.12 4.23 7.56 6.46 16.3 7.78 24.82 2.48 16.11.79 33-5.26 48.15-5.75 14.4-15.92 27.05-29.53 34.68-12.43 6.96-26.98 9.76-41.13 9.61-14.61-.16-29.52-3.44-42.43-10.38-6.24-3.36-11.99-7.57-16.89-12.71-4.96-5.2-8.59-11.47-11.55-17.98-6.21-13.68-8.8-29.13-7.35-44.08 1.42-14.67 7.27-29.09 17.71-39.64 2.65-2.68 5.55-5.06 8.67-7.16 1.67-1.12.16-3.8-1.59-2.73Z"/><path d="M87.97 86.68c2.12.91 3.48 2.96 4.81 4.85 3.31 4.68 7.21 8.94 11.56 12.67.66.56 1.38 1.21 1.47 2.07 12.72-1.1 25.5-1.4 38.25-.91 2.79-7.88 3.06-16.36 1.82-23.65-17.85 5.09-37.27 2.73-55.77 4.24"/><path d="M87.18 88.03c1.67.98 2.75 2.52 3.81 4.09q1.905 2.82 4.08 5.46c2.175 2.64 2.89 3.33 4.45 4.89.78.78 1.56 1.55 2.37 2.31.61.57 1.68 1.19 1.83 2.06.15.9 1.22 1.63 2.1 1.6 6.38-.27 12.73-.81 19.11-.97s12.76-.11 19.14.12c1.03.04 1.84-.73 2.15-1.64 2.68-7.8 3.01-16.12 1.93-24.25-.19-1.46-1.29-2.57-2.87-2.19-8.99 2.22-18.02 3.06-27.27 3.27s-18.61 0-27.89.73c-1.3.1-2.42 1.04-2.42 2.42 0 1.23 1.11 2.53 2.42 2.42 9.44-.77 18.91-.57 28.36-.83s19.05-.81 28.01-3.65l-2.79-1.58c1.48 7.44.71 15.33-1.79 22.46.72-.55 1.44-1.09 2.15-1.64-6.38-.25-12.76-.31-19.14-.16s-12.81.32-19.11 1.13l2.1 1.6c-.6-2.36-3.07-3.73-4.77-5.27-1.85-1.68-3.58-3.49-5.22-5.37-1.55-1.78-2.96-3.65-4.38-5.53s-2.89-3.52-5.16-4.35c-1.7-.62-2.71 1.99-1.21 2.87Z"/><path d="M96.22 127.09c8.82-.72 17.17-2.75 25.41-5.96s16.28-7.4 22.74-13.24c1.77-1.6-.63-4.84-2.59-3.36-3.37 2.53-6.63 5.15-10.2 7.4s-7.25 4.25-11.07 5.98c-7.56 3.42-16.04 5.63-24.28 6.62-1.6.19-1.67 2.7 0 2.56Z"/></svg>