<?xml version="1.0" encoding="UTF-8"?><svg xmlns="http://www.w3.org/2000/svg" viewBox="0 0 180 180"><path d="M82.76 42.56c.98-.98 1.99-1.92 2.97-2.88.57-.56.67-1.49.28-2.18-2.08-3.65-5.19-6.56-8.43-9.17-3.55-2.85-7.24-5.53-10.88-8.28-1.89-1.42-3.77-2.85-5.67-4.28-1.81-1.36-3.67-3.14-5.72-4.11-4.43-2.09-7.76 2.87-10.14 5.82-2.78 3.44-5.34 7.05-7.62 10.84-2.02 3.35-5.38 8.16-2.69 12.03 1.1 1.58 2.79 2.42 4.51 3.18q3.135 1.38 6.21 2.88c4.03 1.97 7.99 4.11 11.84 6.42 2.22 1.33 4.41 2.71 6.56 4.15 1.01.67 2.02 1.36 3.02 2.06s1.98 1.53 3.17 1.92c2.84.93 4.18-1.28 5.4-3.4 1.36-2.37 2.81-4.66 4.22-7-1 .26-2 .52-3 .79 1.77 1.18 3.54 2.36 5.31 3.53 2.41 1.6 4.71-2.33 2.27-3.89-1.79-1.14-3.58-2.29-5.37-3.43-1-.64-2.42-.21-3 .79-1.05 1.81-2 3.65-3.09 5.43-.5.82-1.01 1.64-1.5 2.47-.09.15-.69.93-.64 1.07-.06-.18.7-.14.59-.42-.03-.08-.7-.42-.75-.45-3.22-2.17-6.41-4.37-9.73-6.38s-6.7-3.91-10.15-5.69c-3.44-1.77-7-3.27-10.48-4.95-1.28-.62-2.48-1.3-2.2-2.91.3-1.7 1.42-3.3 2.27-4.76 1.94-3.35 4.09-6.58 6.43-9.66 1.16-1.52 2.37-3 3.63-4.43.69-.8 1.99-2.82 3.24-2.27.87.39 1.66 1.17 2.41 1.73.85.63 1.7 1.27 2.55 1.9 1.7 1.26 3.41 2.52 5.11 3.78 3.56 2.63 7.17 5.21 10.68 7.91 3.22 2.48 6.23 5.23 8.54 8.6V37.5c-.78 1.13-1.53 2.27-2.32 3.39-.92 1.31 1.08 2.76 2.17 1.68Zm41.16 36.22c1.5.91 2.9 1.99 4.45 2.82 1.7.91 3.31.3 4.34-1.24.96-1.43 1.64-3.14 2.43-4.67.45-.88.9-1.76 1.35-2.63.3-.59.63-1.59 1.08-1.97l-.92.54.25-.08h-1.11c.81.13 1.74.89 2.48 1.31 1.01.56 2.03 1.13 3.04 1.69 1.88 1.05 3.76 2.09 5.64 3.14 3.91 2.17 7.81 4.34 11.72 6.51 1.88 1.05 3.76 2.09 5.64 3.14.79.44 3.6 1.48 3.35 2.53-.2.83-.87 1.71-1.29 2.45-.55.97-1.12 1.93-1.7 2.88-1.08 1.76-2.21 3.48-3.33 5.21-1.24 1.92-2.47 3.85-3.73 5.77-1.09 1.66-2.28 3.35-3.93 4.51h2.16c-5-3.43-9.95-6.93-14.86-10.48-2.42-1.75-4.83-3.52-7.24-5.29-1.17-.86-2.34-1.73-3.5-2.6-.65-.48-1.29-.97-1.94-1.45-.39-.29-1.16-.68-1.35-1.09l.29 1.05.77-1.34c.35-.6.7-1.2 1.06-1.8 1.23-2.09-1.86-3.81-3.21-1.88-.52.75-1.03 1.51-1.59 2.23s-1.15 1.46-1.2 2.45c-.1 1.91 1.61 2.84 2.93 3.85 3.01 2.32 6.03 4.63 9.09 6.88a572 572 0 0 0 18.61 13.14c.58.39 1.58.41 2.16 0 2.22-1.58 3.84-3.63 5.32-5.89 1.64-2.5 3.22-5.03 4.83-7.54 1.63-2.55 3.25-5.1 4.67-7.77 1.33-2.48 1.89-5.13-.53-7.17-2.2-1.86-5.12-3.06-7.63-4.46-2.82-1.57-5.64-3.14-8.46-4.7-2.75-1.53-5.5-3.06-8.25-4.58-2.68-1.49-5.32-3.19-8.1-4.48-1.53-.71-3.02-.1-3.86 1.3-.86 1.44-1.55 3.02-2.32 4.51-.21.4-2.49 4.63-2.4 4.69l.31-.16c.44-.13.41-.25-.11-.36-.3-.27-.88-.42-1.25-.59-.85-.38-1.7-.72-2.54-1.12-1.82-.87-3.37 1.67-1.6 2.74Z"/><path d="M87.45 42.46c.44 4.39 3.46 7.77 6.27 10.95s5.92 6.13 9.31 8.74c3.45 2.64 7.18 4.84 11.2 6.49 2.03.83 4.13 1.51 6.27 1.99a43 43 0 0 0 4.89.78c.29.03.58.05.87.07.5.01.58.02.26.04l-.97-1.26v.12c.11-.35.21-.71.3-1.06-.49 1.11-1.4 2.08-2.11 3.05-.77 1.05-1.55 2.1-2.32 3.16-1.42 1.94-2.74 4.11-4.38 5.87-.66.72-1.17.87-2.14.61-1.14-.31-2.26-.77-3.35-1.2-1.91-.76-3.77-1.62-5.59-2.56a69 69 0 0 1-20.14-15.62c-.81-.91-1.6-1.84-2.35-2.8-.03-.03-.37-.49-.38-.49.06-.03-.35.76.16.23s.88-1.44 1.28-2.08c1.53-2.5 3.07-4.98 4.45-7.57 1.17-2.19-1.9-3.92-3.29-1.92s-2.69 4.07-3.98 6.15c-1.05 1.7-3.17 4.02-2.68 6.18.22.96.91 1.69 1.5 2.44.67.85 1.37 1.68 2.08 2.49 1.34 1.53 2.74 3 4.2 4.4 5.88 5.64 12.72 10.33 20.14 13.7 1.89.86 3.81 1.66 5.76 2.34 2.24.79 4.54.95 6.49-.6 1.62-1.29 2.75-3.25 3.97-4.9 1.45-1.97 2.91-3.94 4.36-5.91 1.28-1.74 3.59-4.27 1.34-6.25-.87-.76-1.96-.73-3.04-.82s-2.09-.24-3.13-.44c-4.3-.84-8.38-2.46-12.16-4.64-4.17-2.4-7.84-5.44-11.28-8.78-1.75-1.7-3.41-3.48-5.01-5.33-1.56-1.81-3.05-3.64-3.65-5.99-.44-1.7-3.33-1.41-3.15.43ZM42.48 24.19c5.24 4.44 10.85 8.46 16.46 12.41 2.78 1.96 5.61 3.85 8.45 5.72 1.46.95 2.92 1.9 4.39 2.83 1.44.91 2.91 1.91 4.53 2.47s2.65-1.59 1.56-2.68c-1.21-1.2-2.78-2.09-4.21-3-1.4-.9-2.79-1.8-4.18-2.72-2.84-1.87-5.65-3.79-8.45-5.72-5.6-3.85-11.02-7.96-16.56-11.88-1.51-1.07-3.41 1.37-1.99 2.58Z"/><path d="M61.87 20.24c-2.98 3.54-5.37 7.63-7.76 11.58a185 185 0 0 0-5.19 9.07c-.56 1.05-1.26 2.06-1.54 3.2-.38 1.55 1.61 2.88 2.78 1.62.8-.87 1.29-1.98 1.86-3 .58-1.03 1.17-2.06 1.76-3.09 1.11-1.92 2.21-3.85 3.34-5.77 2.33-3.94 4.96-7.76 7.03-11.84.7-1.39-1.16-3.09-2.28-1.76Zm11.17 7.88c-4.96 7.33-9.33 15.01-13.25 22.95-.99 2 2.01 3.77 3.01 1.76 3.94-7.91 8.26-15.64 12.77-23.23.97-1.63-1.48-3.02-2.52-1.47Zm58.74 55.92c4.83 3.4 9.92 6.41 14.9 9.58 2.46 1.56 4.92 3.11 7.39 4.65 1.2.75 2.4 1.49 3.6 2.24 1.33.83 2.64 1.79 4.08 2.41.84.36 1.73.31 2.33-.46.51-.66.55-1.79-.14-2.37-2.26-1.87-5.07-3.22-7.58-4.73-2.57-1.54-5.14-3.07-7.72-4.58-5.16-3.02-10.23-6.23-15.53-9-1.52-.79-2.69 1.3-1.32 2.27Z"/><path d="M145.41 75.86c-2.4 3.46-4.51 7.03-6.63 10.67-1.02 1.75-2.08 3.47-3.24 5.13-1.22 1.75-2.77 3.26-3.97 5-.96 1.4.62 2.74 1.96 2.55l.65-.09c1.57-.23 1.53-2.86 0-3.13-.22-.04-.43-.08-.65-.11l.41 3.17c1.71-1.31 3.04-3.24 4.28-4.99s2.35-3.57 3.42-5.43c2.16-3.73 4.06-7.6 6.17-11.36.89-1.58-1.39-2.86-2.4-1.4Zm10.36 5.57a58.3 58.3 0 0 1-5.66 11.91c-1.14 1.85-2.37 3.64-3.69 5.36s-2.92 3.41-4.27 5.2c-1.27 1.69 1.44 3.64 2.87 2.22 1.64-1.62 3.04-3.57 4.42-5.41 1.39-1.85 2.7-3.75 3.86-5.75 2.32-3.99 4.13-8.29 5.45-12.71.57-1.92-2.35-2.69-2.98-.82M94.65 47.99c2.28-4.42 5.37-8.45 8.38-12.39.67-.88 1.33-1.78 2.02-2.66s1.19-1.78 2.45-1.59c1.17.17 2.37.76 3.45 1.21 1.25.53 2.47 1.11 3.68 1.74 4.43 2.3 8.54 5.18 12.17 8.61 1.86 1.75 3.69 3.63 5.24 5.68.88 1.16.84 1.83.13 3.07-.58 1-1.21 1.98-1.83 2.96-2.83 4.49-5.76 8.92-8.52 13.45-1.33 2.18 2.09 4.17 3.41 2 2.76-4.53 5.7-8.95 8.52-13.45 1.43-2.27 3.6-4.92 2.85-7.78-.39-1.49-1.45-2.68-2.41-3.83s-1.87-2.15-2.86-3.17c-3.99-4.09-8.63-7.6-13.65-10.33-2.58-1.4-5.3-2.7-8.1-3.61-1.41-.46-2.94-.65-4.36-.12s-2.3 1.71-3.21 2.9c-3.77 4.95-7.23 10.2-9.94 15.8-.83 1.72 1.7 3.24 2.59 1.51Z"/><path d="M104.86 31.06c2.2 6.76 7.17 11.79 12.7 16.04 2.8 2.16 5.75 4.45 9.08 5.71 3.07 1.17 7.09 1.03 9.48-1.48 1.58-1.66-.76-3.88-2.47-2.47-2.26 1.85-5.21 1.11-7.56-.17-2.65-1.45-5.15-3.31-7.5-5.2-4.6-3.68-8.72-8.1-11.35-13.42-.65-1.31-2.83-.4-2.37 1Z"/><path d="M105.08 32.24c-3.25 4.58-6.49 9.16-9.74 13.74-.3.43-.62.89-.63 1.41-.01.51.26.98.55 1.41 2.58 3.83 6.48 6.52 10.29 9.12 1.89 1.29 3.79 2.58 5.68 3.88 3.17 2.16 6.51 4.39 10.32 4.81.52.06 1.07.08 1.55-.13.73-.31 1.16-1.04 1.55-1.73 2.08-3.73 4.16-7.45 6.24-11.18-5.53.36-10.89-2.44-14.85-6.32s-6.75-8.77-9.48-13.59"/><path d="M103.75 31.46c-3.18 4.24-6.31 8.5-9.39 12.81-.68.95-1.43 1.9-1.46 3.12-.03 1.14.63 2.13 1.27 3.01 1.37 1.88 2.99 3.52 4.79 5 3.73 3.07 7.87 5.67 11.86 8.39 1.9 1.29 3.84 2.53 5.96 3.44 1.96.84 4.52 1.76 6.66 1.15 2.46-.69 3.56-3.87 4.68-5.88 1.48-2.65 2.97-5.3 4.45-7.95.68-1.22-.16-2.97-1.66-2.9-11.3.57-17.78-10.49-22.54-19.03-1.3-2.34-4.93-.23-3.59 2.1 5.6 9.71 13.34 21.47 26.13 20.79-.55-.97-1.11-1.93-1.66-2.9-2.15 3.86-4.12 7.9-6.48 11.63-.4.63-.81.54-1.53.42-.96-.16-1.93-.46-2.83-.83-1.82-.75-3.51-1.85-5.15-2.94-3.48-2.33-7.01-4.63-10.37-7.12-1.5-1.11-2.94-2.31-4.23-3.67-.61-.64-1.19-1.32-1.7-2.05-.33-.48-.41-.41-.28-.84.16-.5.78-1.12 1.07-1.54 2.94-4.19 5.82-8.41 8.66-12.66 1.12-1.68-1.5-3.1-2.66-1.55m-21.26 34.1c-.45 1.37-1.32 2.56-1.95 3.86-1.89 3.85-1.55 8.5-.06 12.52s2.68 5.97 5.18 9.45c.35.49.72.99 1.27 1.25.45.21.96.22 1.45.24 3.05.07 7.56 1.3 10.61 1.14 2.43-.13 4.89-.41 7.13-1.37 3.37-1.45 5.9-4.06 6.88-7.6-11.34-2.78-21.66-9.58-28.68-18.9"/><path d="M81.17 64.79c-.99 2.16-2.5 3.95-3.16 6.27-.61 2.14-.72 4.43-.46 6.63.5 4.15 2.23 8.23 4.48 11.74 1.07 1.67 2.29 4.09 4.17 4.93.9.41 1.87.36 2.83.44s1.98.25 2.97.41c4.47.71 8.93 1.18 13.35-.23 4.53-1.44 8.14-4.84 9.47-9.44.28-.96-.34-2.08-1.32-2.33-10.87-2.66-20.78-9.11-27.55-18.04-.62-.82-1.62-1.23-2.59-.68-.81.46-1.29 1.78-.68 2.59 7.42 9.76 17.92 16.76 29.81 19.77l-1.32-2.33c-2.23 7.45-10.89 8.08-17.36 7.05-1.69-.27-3.4-.54-5.11-.61-.97-.04-1.1-.12-1.67-.91a69 69 0 0 1-1.56-2.25c-1.87-2.85-3.35-6.05-4.07-9.4-.44-2.03-.5-4.2 0-6.23.55-2.21 1.97-4.04 2.55-6.25.42-1.61-2.04-2.79-2.78-1.17Z"/><path d="M87.35 91.64c-6.71-4.13-14.74-3.38-22.19-2.26-.92.14-1.41 1.14-1.49 1.95-.32 3.64 1.99 6.69 4.59 8.96 2.61 2.28 5.34 4.47 8.13 6.54 5.52 4.09 11.56 7.39 18.46 8.26.79.1 1.71-.67 1.87-1.43 1.37-6.31-.17-13.64-5.18-18.01-1.2-1.05-3.44.36-2.37 1.83 3.22 4.4 5.09 9.69 3.81 15.15.8-.45 1.59-.9 2.39-1.36-6-.87-11.26-3.77-16.1-7.3-2.41-1.75-4.7-3.66-6.98-5.57-2.19-1.83-4.84-3.93-4.56-7.08-.5.65-.99 1.3-1.49 1.95 6.62-.99 13.66-1.57 20.02.95 1.54.61 2.42-1.78 1.1-2.6Z"/><path d="M81.89 96.4c-.34.21-.65.46-.92.75s-.53.6-.74.94c-.45.73-.81 1.57-.57 2.45s1.01 1.45 1.89 1.45c.52 0 1.02-.22 1.44-.52.31-.22.63-.46.89-.74s.51-.59.72-.92c.22-.34.39-.73.53-1.11.19-.54 0-1.3-.43-1.68-.33-.3-.73-.49-1.18-.49-.61 0-1.15.35-1.47.85-.1.16-.17.4-.24.59l.17-.4c-.13.31-.3.61-.51.88l.26-.34q-.3.39-.69.69l.34-.26c-.15.12-.31.24-.49.31l.4-.17s-.08.03-.12.03l.44-.06h-.08l.44.06s-.06-.01-.1-.03l.4.17s-.03-.02-.05-.03l.34.26s-.04-.03-.06-.05l.26.34s-.03-.04-.04-.07l.17.4s-.03-.09-.03-.14l.06.44v-.18l-.06.44c.01-.11.04-.21.08-.31l-.17.4c.23-.52.54-1.02.88-1.47l-.25.32c.13-.17.29-.33.4-.51l.15-.24.15-.36q.09-.3.03-.6c-.04-.31-.17-.64-.41-.86-.49-.45-1.23-.59-1.82-.23Zm40.84-56.05c2.27-2.76 4.47-5.57 6.66-8.39 1.12-1.45 2.22-2.91 3.32-4.36 1.08-1.42 2.26-2.8 3.23-4.29 1.08-1.65-1.44-3.65-2.76-2.13-1.19 1.37-2.22 2.92-3.32 4.37-1.07 1.43-2.16 2.86-3.22 4.3-2.12 2.88-4.21 5.77-6.25 8.71-.95 1.37 1.26 3.11 2.33 1.8Zm-46.54 69.64c.17-.25.35-.49.54-.73l-.22.29c.31-.4.59-.82.9-1.22l-.23.3c.26-.34.53-.68.79-1.02l-.24.31c.14-.17.27-.35.42-.52.06-.08.13-.15.19-.23.29-.36.49-.72.49-1.2 0-.35-.16-.77-.42-1.02s-.65-.47-1.02-.42c-.23.03-.4.05-.61.13s-.21.09-.38.22c-.12.09-.22.18-.32.29-.12.14-.23.28-.35.42-.3.38-.59.75-.85 1.16-.19.31-.37.62-.54.94-.21.41-.37.86-.53 1.3-.11.29-.03.74.13 1 .16.24.36.42.62.53s.57.15.84.07c.34-.11.57-.31.78-.6Z"/><path d="M60.91 92.96c-13.63-4.96-29.65-2.3-40.81 7-5.75 4.79-9.98 11.45-11.4 18.84-1.55 8.06-.28 16.42 2.96 23.91 6.64 15.36 22.8 25.1 39.2 26.15 7.3.47 14.46-.95 20.84-4.59 5.94-3.39 10.95-8.42 14.45-14.29 3.46-5.79 5.56-12.63 5.43-19.41-.15-7.48-2.9-15.45-8.3-20.77-.82-.81-1.76-1.48-2.56-2.31s-1.6-1.63-2.41-2.44c-1.2-1.2-3.04.64-1.86 1.86 5.24 5.38 9.67 11.91 10.77 19.49.86 5.91-.15 12.16-2.61 17.59-5.02 11.09-15.77 19.9-28.19 20.63-14.91.88-30.34-6.15-38.36-18.98-3.88-6.21-5.94-13.58-5.74-20.91.19-6.93 2.74-13.43 7.42-18.56 8.73-9.58 22.89-13.52 35.5-11.35 1.64.28 3.25.67 4.84 1.16 1.95.59 2.7-2.34.83-3.01Z"/><path d="M35.27 95.96c.2 2.25 1.19 4.34 1.72 6.53s.5 4.76-1.04 6.4c-1.48 1.58-4.3 2.48-4.13 4.63.05.67.43 1.27.78 1.84 1.17 1.91 2.18 4.39.99 6.29-.61.97-1.74 1.63-2.04 2.74-.29 1.06.26 2.33-.37 3.23-.28.4-.73.64-1.19.81-2.37.87-5.26.07-6.84-1.89-.44-.54-.79-1.16-1.3-1.64-.9-.84-2.17-1.12-3.32-1.55-1.15-.44-2.35-1.23-2.54-2.44-.11-.68.12-1.39-.02-2.07-.15-.75-.73-1.34-1.08-2.02-.9-1.74-.24-3.87.63-5.62 3.64-7.35 11.02-12.73 19.13-13.94"/><path d="M33.55 95.96c.23 3.12 1.93 6.06 1.82 9.18-.09 2.65-2.24 3.28-3.92 4.87-.89.84-1.55 1.97-1.57 3.23-.03 1.62.96 2.8 1.64 4.16.47.95 1.02 2.3.46 3.31-.65 1.17-1.82 1.8-2.2 3.19-.19.7-.15 1.45-.22 2.16 0 .05-.09.55.08.33-.15.2-.65.27-.87.32-1.13.23-2.36 0-3.32-.64-1.06-.71-1.57-1.94-2.53-2.76-1.09-.93-2.43-1.25-3.72-1.8-.35-.15-1.01-.39-1.21-.76-.26-.48-.02-1.37-.07-1.93-.15-1.49-1.54-2.52-1.51-4 .04-2.42 2.05-5.13 3.52-6.94 3.83-4.71 9.26-7.81 15.24-8.75 1.05-.17 1.63-1.48 1.38-2.42-.31-1.12-1.37-1.54-2.42-1.38-6.21.98-12.06 4.24-16.24 8.93-2.12 2.38-4.18 5.28-5.04 8.38-.48 1.71-.48 3.54.36 5.14.35.66.83 1.09.84 1.86 0 1.03-.05 1.91.44 2.86.72 1.37 2.11 2.21 3.52 2.73.65.24 1.35.39 1.98.7.85.42 1.24 1.24 1.82 1.94 2.05 2.47 5.67 3.52 8.72 2.47 1.7-.59 2.85-1.89 2.9-3.74.02-.62-.3-1.35-.03-1.92.31-.68 1.14-1.23 1.58-1.83 1.01-1.37 1.23-3.02.9-4.67-.17-.83-.48-1.62-.84-2.38-.17-.37-.36-.73-.57-1.09-.19-.33-.74-.94-.72-1.33.05-.82 1.67-1.59 2.25-2.04 1.44-1.09 2.54-2.42 2.97-4.22.98-4.13-1.45-7.69-2.04-11.64-.29-1.91-3.53-1.48-3.39.46Zm-4.91 42.74c-.15 1.21-.31 2.43-.14 3.64.17 1.2.7 2.41 1.68 3.13.66.49 1.48.72 2.17 1.18.88.59 1.49 1.5 2.18 2.31 1.28 1.49 2.93 2.67 4.75 3.4 1.16.46 2.44.74 3.65.47 1.22-.27 2.35-1.19 2.58-2.41.25-1.33-.58-2.64-1.6-3.52s-2.25-1.5-3.25-2.41c-1.57-1.44-2.47-3.54-4.19-4.79-1.2-.88-2.79-1.33-3.61-2.57-.14-.21-.26-.44-.47-.58-.33-.22-.77-.13-1.15-.04-.51.12-1.03.26-1.44.58s-.65.91-.43 1.39"/><path d="M27.32 138.34c-.45 2.23-.78 4.47.27 6.59.44.88 1.11 1.66 1.94 2.19.8.51 1.71.75 2.39 1.44.63.64 1.13 1.4 1.74 2.05.71.76 1.52 1.42 2.38 2.01 1.7 1.17 3.87 2.12 5.97 2.08 2.01-.04 4.03-1.08 4.88-2.96.94-2.09.03-4.38-1.56-5.88-1.39-1.31-3.14-2.07-4.39-3.54s-2.23-3.07-3.85-4.18c-.78-.53-1.7-.85-2.43-1.45-.83-.68-1.07-1.62-2.27-1.86-2.17-.44-5.44 1.51-4.45 4.02.69 1.75 3.36 1.11 2.88-.79.1.39-.18.15.1.2.06.01.96-.22.99-.27-.12.21-.62-.65-.51-.17.04.16.24.34.34.47.25.32.51.59.82.84 1.02.82 2.31 1.25 3.28 2.11 1.06.94 1.77 2.23 2.65 3.34.95 1.2 2.16 2.04 3.41 2.91.75.52 2.23 1.59 1.88 2.68-.3.95-1.63 1.07-2.46.94-1.4-.22-2.78-.96-3.9-1.8s-1.91-2-2.86-3.02a6.9 6.9 0 0 0-2.06-1.54c-.6-.3-1.31-.53-1.75-1.06-1.08-1.3-.84-3.43-.75-4.98.09-1.52-2.38-1.88-2.69-.36Zm36.97 10.44-6.55-.03c-1.01 0-2.17.06-2.79.85-.4.5-.48 1.21-.92 1.68-.47.51-1.23.62-1.91.79s-1.43.51-1.59 1.19c-.21.86.66 1.6 1.48 1.91 1.23.47 2.58.52 3.89.57.71.03 1.41.05 2.12.08 1.2.05 2.4.09 3.6.05.81-.03 1.61-.09 2.41-.21 2.02-.29 4.27-1.17 4.87-3.12.12-.4.16-.83.02-1.22-.3-.85-1.3-1.2-2.2-1.3s-1.85-.06-2.61-.55"/><path d="M64.29 147.37c-2.06-.11-4.12-.24-6.18-.26-1.55-.02-3.22.07-4.33 1.33-.4.46-.67 1.5-.97 1.76-.2.18-.6.2-.86.26-.45.11-.9.25-1.32.46-1.5.76-2.24 2.61-1.28 4.1 1.05 1.63 3.11 2.03 4.9 2.21 1.9.19 3.84.22 5.75.26 3.06.06 7.01-.07 9.26-2.5 1.27-1.37 1.91-3.64.54-5.18-.56-.62-1.36-1.02-2.17-1.19-.84-.18-2.05.04-2.81-.34-1.6-.81-2.97 1.48-1.41 2.42.78.47 1.51.69 2.41.79.31.04 1.43 0 1.61.36.12.25-.33.78-.51.97-.37.38-.87.64-1.37.83-1.35.52-2.86.61-4.29.64-1.89.05-3.8-.06-5.69-.13-.85-.03-1.7-.07-2.52-.29-.22-.06-.67-.36-.86-.37-.09-.12-.12-.11-.1.02-.16.26-.18.36-.05.28.07.05 1.38-.37 1.54-.42.84-.27 1.54-.74 2.02-1.48.28-.42.36-1.08.79-1.35.51-.31 1.51-.15 2.07-.15 1.94 0 3.88-.12 5.82-.2 1.82-.08 1.82-2.74 0-2.83Zm13.47 2.24-1.49 1.25c-.43.36-.91.88-.7 1.4.16.4.64.56 1.07.56s.86-.11 1.28-.02c.57.12 1.04.59 1.63.6.91.02 1.43-1 1.73-1.86.06-.19.13-.39.05-.57-.11-.25-.44-.31-.72-.31-.92 0-2.17.05-2.4-.84"/><path d="M76.75 148.59c-.5.41-1.01.82-1.5 1.23-.53.44-1 1.02-1.13 1.71-.19.97.25 1.92 1.11 2.4.65.36 1.34.36 2.06.33.12 0 .32.04.43 0 0 0-.36-.02-.11 0 .09 0 .27.15-.12-.06.23.13.47.25.71.36.7.33 1.5.51 2.26.23 1.27-.48 1.96-1.65 2.39-2.88.42-1.19-.26-2.55-1.53-2.81-.6-.12-1.2-.07-1.81-.14l.44.06c-.12-.02-.24-.03-.35-.06-.06-.01-.11-.03-.17-.05-.27-.07.16.04.19.08l-.16-.09c.01 0 .34.29.2.15-.08-.08-.06-.06.05.08.18.24.13.16-.17-.22-.03-.03-.05-.06-.08-.09-.19-.2-.5-.4-.77-.46l-.44-.06.36.05c-.41-.05-.81-.08-1.17.15a2 2 0 0 0-.33.26c-.74.74-.58 1.84.06 2.56.56.63 1.35.85 2.16.94.51.06 1.01 0 1.52.04l-.43-.06c.08.01.29.09.03-.03-.31-.14-.52-.39-.64-.73l-.06-.43c.01.06.01.13 0 .19l.06-.43c-.04.2-.1.39-.17.58-.15.39.13-.26 0-.01-.04.07-.07.14-.11.21s-.08.14-.12.2c-.21.34.2-.2.02-.01-.05.05-.1.11-.15.16-.18.19.35-.25.03-.04-.21.14.37-.13.11-.05s.44-.04.08-.02c-.12 0-.06 0 .2.03-.06-.01-.11-.03-.17-.05-.29-.07.3.15.05.02-.57-.28-1.12-.53-1.77-.58-.46-.04-.91.07-1.37.06-.12-.01-.05 0 .2.03-.05-.01-.1-.02-.15-.04.23.11.28.13.14.06l-.06-.04c.14.08.25.18.32.32-.07-.13-.06-.08.05.14.04.11.04.23 0 .34q-.045.21 0 .03c-.1.21-.12.25-.05.11.03-.05.06-.1.1-.15.02.03-.24.27.01.01.16-.17.35-.32.53-.47l1.22-1.04c.57-.49.54-1.53 0-2.02-.62-.57-1.4-.51-2.02 0Zm-12.48-8.21c-2.86-1.27-6.17-.7-9.2.04-1.18.29-2.67.48-3.37-.51-.77-1.1.16-2.7-.37-3.93-.23-.52-.69-.9-.95-1.41-.51-.98-.11-2.22.61-3.06s1.72-1.37 2.65-1.97c2.38-1.53 4.43-3.59 5.95-5.98.51-.8.97-1.64 1.63-2.3s1.61-1.15 2.54-1c.99.16 1.74.96 2.4 1.72.68.78 1.39 1.63 1.52 2.66.09.76-.15 1.55 0 2.3.33 1.6 2.35 2.66 2.16 4.28-.11.95-.96 1.61-1.61 2.32-.81.88-1.37 2.28-.66 3.24.18.24.42.43.57.7.38.69-.12 1.61-.83 1.95s-1.55.28-2.34.21"/><path d="M64.96 139.21c-2.03-.99-4.2-1.32-6.44-1.07-1.08.12-2.15.31-3.21.54-.39.09-1.86.61-2.22.28-.15-.14.11-1.43.12-1.84.02-1.12-.33-2-1-2.87-1.14-1.51 1.57-2.68 2.57-3.36 1.75-1.17 3.36-2.58 4.69-4.22.64-.79 1.24-1.61 1.78-2.47.45-.71.98-1.89 1.87-2.15.67-.2 1.19.53 1.59.96.61.68 1.23 1.35 1.19 2.31-.04 1.08-.1 2.01.36 3.01.34.74.87 1.32 1.34 1.98.49.69.54.72-.05 1.33-.8.82-1.52 1.65-1.89 2.76s-.3 2.34.34 3.32c-.11-.17.46.61.48.6l.03-.5-.05.06c-.05-.04-1.26.08-1.5.08-1.88-.05-2.4 3.08-.45 3.36 1.5.22 3.05.33 4.29-.72 1.05-.88 1.54-2.25 1.08-3.57-.38-1.11-1.26-1-.43-2.1.75-.99 1.74-1.64 2.09-2.91.31-1.11.03-2.27-.57-3.22-.44-.69-1.4-1.44-1.55-2.29-.1-.57.09-1.23.04-1.82-.06-.63-.23-1.2-.5-1.77-.53-1.11-1.49-2.19-2.4-3.01-2.39-2.16-5.4-1.46-7.25.98-.71.93-1.25 1.98-1.96 2.92a19 19 0 0 1-2.59 2.77c-1.86 1.64-4.58 2.56-5.76 4.86-.6 1.16-.76 2.56-.21 3.77.24.53.71.91.95 1.43.19.42.05.95.01 1.4-.11 1.43.19 2.88 1.47 3.72 1.13.74 2.52.66 3.79.41 2.97-.58 5.94-1.49 8.92-.44 1.44.51 2.44-1.81 1.05-2.48Zm-19.99-17.53c-.58.7-1.17 1.44-1.36 2.32s.18 1.96 1.03 2.27c.07.02.14.04.2.03.34-.04.3-.54.36-.88.14-.74 1.23-1.23.98-1.94-.09-.26-.36-.46-.39-.73-.03-.28.19-.52.39-.71s.44-.4.45-.69-.4-.52-.56-.29"/><path d="M44.02 120.73c-.55.64-1.11 1.3-1.45 2.08-.38.88-.54 1.83-.25 2.76.07.23.17.47.28.68.03.06.06.12.1.17.08.12.06.06-.04-.18.02.08.04.16.09.23.23.56.77.95 1.31 1.18.8.34 1.66.14 2.2-.55.37-.47.4-.99.47-1.56l-.06.41c0-.07.03-.14.04-.2.04-.12 0-.04-.1.23.02-.04.04-.07.06-.11.03-.05.07-.1.1-.16-.23.4-.18.22-.08.11.25-.3.53-.58.74-.91.29-.46.4-1 .33-1.53a2.2 2.2 0 0 0-.31-.88c-.09-.14-.19-.26-.26-.42l.16.38s-.03-.09-.03-.13l.06.42v-.15l-.06.42s.03-.1.05-.14l-.16.38s.04-.07.06-.1c.07-.1.02-.05-.13.16.06-.05.11-.11.17-.17.1-.09.19-.18.27-.28.48-.56.77-1.28.56-2.02-.18-.66-.72-1.14-1.36-1.33-.69-.2-1.64.11-1.93.81-.13.31-.22.57-.17.91.04.3.16.61.39.82.47.43 1.17.55 1.73.22l-.26.11-.39.05h.04c-.13-.02-.26-.04-.39-.05.14.03.06 0-.23-.11a.86.86 0 0 1-.31-.29c-.18-.24-.04-.04-.01.04l-.16-.38v.05c0-.14-.02-.28-.04-.42v.13l.06-.42s-.02.1-.04.14l.16-.38s-.08.12-.08.13c-.02-.04.26-.28.09-.14-.09.07-.17.16-.26.24-.31.3-.57.69-.69 1.1-.15.54-.07 1.07.17 1.56.09.19.24.35.34.53l-.16-.37c.02.06.04.11.06.18l-.06-.42v.21l.06-.42c-.01.05-.03.1-.04.15l.16-.37c-.04.09-.09.16-.14.25-.1.16.13-.16.14-.17-.04.03-.07.09-.1.12-.2.24-.4.48-.59.73-.39.54-.44 1.12-.52 1.76l.05-.41c-.01.08-.1.32.02.04q.105-.225.03-.09c.84-.47 1.08-.66.71-.58l.41-.05h-.14l.4.05s-.09-.02-.13-.04c-.14-.05-.08-.03.18.07-.08-.07-.4-.26.03.05-.11-.1-.23-.19-.35-.27-.59-.28-.49-.17.31.35-.04-.08-.09-.15-.14-.23-.12-.2.12.37.01.02-.03-.09-.05-.18-.07-.27-.06-.23.03.4 0 .03v-.28c.01-.15 0-.09-.03.17 0-.05.02-.1.03-.15.03-.11.06-.22.1-.33.02-.05.04-.11.06-.16q-.12.3-.03.09c.06-.1.11-.21.16-.31.12-.2.25-.4.39-.59.03-.05.07-.1.11-.14.09-.12.07-.09-.05.06.05-.1.15-.19.22-.28.23-.29.39-.56.39-.95 0-.33-.15-.72-.39-.95-.5-.46-1.41-.57-1.9 0Zm39.44-.41c-2.59.21-4.89 2.37-5.26 4.94-.21 1.47.15 2.95.17 4.43a9.78 9.78 0 0 1-2.85 6.97c-.41.4-.86.79-1.07 1.33-.4 1.02.24 2.13.86 3.04.18.27.38.55.66.7.96.51 1.91-.67 2.36-1.66.81-1.79 1.63-3.58 2.44-5.37 1.08.03 2.39-.92 3.09-.09.24.29.27.69.31 1.07.18 1.97.68 3.92 1.48 5.73.32.74 1.08 1.58 1.77 1.17.39-.23.49-.75.55-1.2.25-1.96.43-4.16-.78-5.73-.71-.92-1.9-1.62-2.02-2.78-.21-2.12 3.24-3.09 3.26-5.22-1.51.32-2.94.99-4.15 1.95-.46.36-.9.78-1.44.99s-1.25.16-1.61-.3c-.19-.24-.26-.56-.31-.87-.42-2.91.84-6.01 3.17-7.8.79-.61 1.81-1.57 1.24-2.38"/><path d="M83.46 118.92c-3.17.14-6.06 2.46-6.75 5.6-.43 1.98.18 3.93.02 5.91-.13 1.59-.77 3.17-1.76 4.42-1.07 1.35-2.41 2.24-2.23 4.18.14 1.54 1.29 3.66 2.8 4.22 1.7.63 3.17-.72 3.88-2.15.92-1.86 1.72-3.79 2.58-5.67l-1.24.71c.54-.03 1.77-.1 2.22-.43-.27.2-.37-.69-.27.39.04.41.09.83.16 1.24.27 1.69.74 3.61 1.61 5.1.74 1.25 2.24 2.27 3.67 1.43 1.28-.75 1.32-2.42 1.42-3.72.12-1.47.07-3.02-.57-4.38-.32-.68-.79-1.25-1.31-1.78-.32-.32-1.06-.81-1.07-1.34-.01-.68 1.33-1.51 1.76-1.94.86-.87 1.42-1.81 1.51-3.04.07-1-1-1.62-1.87-1.42-1.79.4-3.38 1.18-4.83 2.31-.27.21-.53.43-.82.6-.2.04-.18.1.06.19-.04-.2-.06-.4-.07-.6-.05-.75.04-1.48.24-2.21.42-1.52 1.31-2.71 2.52-3.69s2.49-2.36 1.85-4.04c-.92-2.43-4.51-.7-3.17 1.34-.21-.31.21-.43-.16-.27-.16.07-.34.33-.48.44-.34.3-.7.58-1.02.91-.7.73-1.3 1.58-1.74 2.48-.87 1.79-1.29 3.76-1.03 5.74.25 1.98 1.82 3.29 3.85 2.64 1.01-.33 1.72-1.14 2.58-1.71.93-.61 1.92-1.01 3-1.27l-1.87-1.42c-.05.69-1.01 1.32-1.47 1.75-.71.67-1.42 1.45-1.69 2.41-.79 2.84 2.45 3.93 2.8 6.43.09.62.04 1.27 0 1.89-.03.33-.11.68-.1 1-.01.13-.04.26-.08.39l.8-.38c.02-.13-.39-.75-.46-.93-.16-.39-.29-.8-.42-1.2-.25-.81-.44-1.64-.58-2.48-.2-1.24-.17-2.63-1.38-3.37s-2.36.02-3.61.09c-.47.02-1.03.25-1.24.71-.62 1.38-1.25 2.76-1.87 4.13-.27.59-.49 1.29-.9 1.8l-.24.25c-.28.16-.28.2-.02.11.28 0 .28-.12-.01-.36l-.2-.32c-.3-.54-.44-.79-.12-1.29.31-.47.87-.86 1.23-1.3.81-.99 1.43-2.07 1.88-3.26.44-1.16.67-2.42.7-3.66.03-1.38-.31-2.75-.23-4.14.12-2.27 1.93-3.86 4.08-4.25 1.56-.28 1.2-2.83-.37-2.76Zm25.45 9.99c2.1-.61 4.26-1.13 6.29-1.97.39-.16.71-.34.93-.71.2-.33.28-.82.16-1.2-.28-.86-1.05-1.24-1.91-1.09-2.16.39-4.25 1.12-6.35 1.74-.84.25-1.45 1.19-1.17 2.06s1.16 1.43 2.06 1.17Zm.82 12.87c1.02.03 2.05.1 3.06.2.26.03.52.05.78.09.12.01.24.03.36.04.11.01.47.1.04 0 .61.13 1.25.19 1.87.2.79.01 1.46-.61 1.56-1.38s-.38-1.5-1.14-1.74c-1.08-.35-2.28-.41-3.41-.51-1.04-.09-2.08-.15-3.12-.17-.85-.02-1.67.76-1.63 1.63s.72 1.6 1.63 1.63Zm-4.32 10.79c.81.45 1.59.95 2.32 1.52l-.3-.23c.3.23.59.47.88.72.36.32.73.62 1.12.9.27.2.8.25 1.11.14s.55-.26.75-.52.32-.56.31-.87l-.05-.38c-.07-.24-.19-.45-.37-.63-.57-.74-1.39-1.31-2.14-1.85-.68-.5-1.4-.94-2.14-1.34-.68-.36-1.63-.19-2.01.53s-.19 1.61.53 2.01Zm-6.81 10.29v.21c-.02.2.03.39.12.56.06.18.16.34.3.47.13.14.29.24.47.3.17.09.36.13.56.13l.39-.05c.25-.07.46-.19.64-.38l.23-.3c.13-.23.2-.47.2-.74v-.21c0-.2-.04-.39-.13-.56-.06-.18-.16-.34-.3-.47-.13-.14-.29-.24-.47-.3-.17-.09-.36-.13-.56-.13l-.39.05c-.25.07-.46.19-.64.37l-.23.29c-.13.23-.2.47-.2.73Zm11.94-44.27.17-.07q.345-.195.54-.54a1.48 1.48 0 0 0 0-1.52q-.195-.345-.54-.54l-.17-.07c-.25-.14-.52-.22-.8-.22-.29 0-.56.07-.8.22q-.36.21-.57.57c-.14.25-.22.52-.22.8 0 .29.07.56.22.8q.21.36.57.57c.25.14.52.22.8.22.29 0 .56-.07.8-.22M26.83 73.43c1.88-4.12 6.1-6.28 10.45-6.83s10.65.61 13.01 5c1.02 1.89 1.23 4.41-.38 6.05-1.01 1.03-3.71 2.12-4.7.42-1.04-1.79 1.69-4.31 2.84-5.31 1.69-1.46 3.75-2.52 5.88-3.17 2.37-.72 4.84-.98 7.31-.75 2.62.24 4.9 1.32 7.3 2.29 1.44.58 2.6-1.59 1.5-2.57-4.44-3.96-12.01-4.23-17.43-2.49-2.91.94-5.64 2.48-7.85 4.6-2.2 2.1-4.28 5.33-3.17 8.47 1.13 3.2 5.08 4.18 8.02 3.1 3.13-1.15 5.15-3.96 5.34-7.27.45-7.66-7.47-11.76-14.06-12.1-6.62-.33-13.79 2.77-16.6 9.07-.77 1.72 1.76 3.22 2.55 1.49Z"/></svg>