<?xml version="1.0" encoding="UTF-8"?><svg xmlns="http://www.w3.org/2000/svg" viewBox="0 0 180 180"><path d="M13.97 127.46C24.73 117.34 35.44 107.18 46.14 97c2.64-2.52 5.29-5.03 7.93-7.55 1.32-1.26 2.62-2.55 4.04-3.7.52-.43.6-.33 1.26-.13 1 .3 1.99.66 2.98.99 6.81 2.29 13.53 4.78 20.22 7.38 3.77 1.47 7.5 3.03 11.29 4.44s7.7 2.63 11.47 4.19l-.81-3.06c-5.84 7.26-12.71 13.83-19.64 20.02-3.45 3.08-6.96 6.09-10.49 9.06-1.82 1.54-3.68 3.04-5.53 4.54-1.66 1.35-3.36 3.14-5.32 4.04-4.65 2.14-8.91-3.18-11.33-6.34-1.15-1.5-3.56-1.09-3.65.99-.12 2.67-2.35 4.68-4.7 5.61-3.35 1.32-7.06.45-10.32-.68-3.79-1.32-7.49-2.96-11.22-4.44l-11.79-4.68c-1.05-.42-2.3.46-2.58 1.46-.33 1.19.41 2.16 1.46 2.58 4.47 1.78 8.94 3.55 13.41 5.33 4.15 1.65 8.34 3.56 12.72 4.51 3.88.84 7.92.8 11.44-1.21 3.12-1.78 5.34-4.83 5.5-8.47l-3.35 1.39c2.94 3.8 6.3 7.66 11.36 8.29s8.98-3.47 12.75-6.51c7.93-6.41 15.93-12.83 23.03-20.16 4.01-4.14 7.64-8.52 11.13-13.1.78-1.03-.12-2.32-1.09-2.69-3.51-1.35-6.86-2.97-10.31-4.46s-6.95-2.83-10.44-4.21c-6.89-2.73-13.84-5.34-20.89-7.64-1.65-.54-3.36-1.18-5.07-1.47-2-.34-3.35.59-4.66 1.96-2.64 2.76-5.44 5.36-8.18 8-5.49 5.3-10.99 10.59-16.48 15.89-6.21 5.99-12.37 12.03-18.54 18.06-1.47 1.43.76 3.64 2.24 2.24Z"/><path d="M57.8 95.68c-.97 1.38-.29 3.21 1.04 4.08 1.63 1.06 3.49.37 5.1-.32L61.8 97.3c-.91 1.72-1.13 4.23 1.18 4.96.86.27 1.66.08 2.52-.02s1.24.35 1.99.79c3.55 2.07 7.9 3.42 12 3.75 1.77.14 1.85-2.36.39-2.9-3.05-1.14-6.32-1.57-9.29-2.97-1.35-.64-2.65-1.79-4.16-1.95-.65-.07-1.45-.04-2.07.17-.04.01-.39 0-.4.03.25.48.37.55.38.23.04-.17.1-.33.17-.49.64-1.44-.67-2.84-2.14-2.14-.45.21-1.12.6-1.63.52-.14-.02-.23-.1-.35-.12-.22-.05.07-.44-.13-.02.79-1.65-1.39-2.92-2.44-1.43Zm-9.11 10.16c1.49 1.52 3.19 2.27 5.22 2.86s4.09 1.19 6.11 1.87 4.09 1.43 6.1 2.23c2.14.85 4.2 1.94 6.36 2.74 1.83.67 2.91-2.13 1.3-3.08-1.84-1.09-3.95-1.85-5.94-2.66s-4.03-1.59-6.09-2.27-4.14-1.28-6.23-1.83c-1.76-.46-3.73-.84-5.22-1.95-1.24-.92-2.63 1.04-1.61 2.09m-4.45 8.97c3.02 1.8 6.23 3.34 9.47 4.73 1.68.72 3.36 1.43 5.04 2.15.87.37 1.74.74 2.61 1.1.94.39 1.94.95 2.94 1.12 1.93.33 2.98-2.01 1.33-3.16-.76-.53-1.72-.8-2.58-1.15s-1.71-.69-2.56-1.02c-1.77-.7-3.53-1.39-5.3-2.09-3.23-1.27-6.48-2.44-9.57-4.04-1.56-.81-2.9 1.45-1.38 2.36m-6.82 9.9c2.18 0 2.19-3.39 0-3.39s-2.19 3.39 0 3.39"/><path d="M9.6 142.43c1.08.44 2.05 1.08 3.11 1.56.89.4 1.82.76 2.72 1.13 1.89.78 3.79 1.53 5.7 2.28 3.88 1.53 7.77 3.02 11.65 4.55 7.55 2.98 14.93 6.48 22.66 8.98.88.28 1.98-.18 2.42-.99 1.9-3.45 5.17-5.93 8.05-8.53 3.35-3.02 6.72-6.02 10.08-9.03a804 804 0 0 0 19.65-18.19c3.66-3.51 7.28-7.05 10.87-10.63 1.64-1.63-.9-4.18-2.54-2.54-12.8 12.76-25.93 25.37-39.84 36.92-3.58 2.98-7.55 5.76-9.99 9.83l2.42-.99c-7.72-2.58-15.05-6.11-22.68-8.93-3.83-1.41-7.67-2.77-11.52-4.12-2-.7-4-1.41-6.01-2.09s-4.09-1.14-6.06-1.86c-1.68-.61-2.32 1.98-.73 2.64Z"/><path d="M29.79 138.1c4.55 1.8 8.95 4 13.65 5.34s9.85 1.77 14.41.02c3.01-1.15 5.58-3.18 8.11-5.17a15.1 15.1 0 0 1-7.75 2.09c-1.53-.01-3.1-.27-4.41-1.08s-2.29-2.22-2.28-3.76c-.77 2.9-3.45 5.19-6.43 5.5"/><path d="M29.06 139.34c6.4 2.87 12.52 6.4 19.63 7.11 3.41.34 6.87-.09 10.05-1.39s5.76-3.43 8.38-5.61c1.47-1.22-.42-3.51-2-2.6a13.35 13.35 0 0 1-7.13 1.76c-1.85-.07-4.56-.81-4.66-3.08-.09-2.03-2.98-2.5-3.58-.48-.75 2.52-2.74 3.68-5.14 4.3-1.91.49-1.52 3.46.47 3.44 3.85-.04 7.15-3.22 8.19-6.77l-3.58-.48c.16 3.66 3.17 5.97 6.61 6.45 3.65.51 7.32-.47 10.49-2.28l-1.67-2.85c-2.4 1.8-4.94 3.75-7.76 4.83s-6.1 1.17-9.11.76c-6.28-.84-12.15-3.66-18.08-5.74-1.52-.53-2.6 1.96-1.11 2.63M82.74 85.3c4.03-18.51 7.55-37.1 10.39-55.83l-2.36 1.34c12.16 3.38 24.29 6.89 36.39 10.5 5.97 1.78 11.93 3.61 17.88 5.43 2.98.91 5.96 1.83 8.93 2.75.31.1.63.19.94.29-.07-.02 1.36.5.66.03l-.16-.23c0 .23 0 .47-.02.7-.02.3-.05.61-.07.91-.12 1.53-.25 3.06-.4 4.59-1.16 11.99-3.13 23.88-5.32 35.73-1.1 5.94-2.25 11.87-3.38 17.8-.26 1.36-.52 2.72-.77 4.08-.06.3-.11.6-.17.9l-.08.45c-.15.37-.11.42.13.17-.1-.6.36.16-.01-.21-.15-.15-.76-.23-.95-.3-2.29-.79-4.53-1.73-6.78-2.62-5.6-2.22-11.17-4.54-16.75-6.81-5.29-2.15-10.59-4.37-16.07-5.97-2.01-.59-3.48 2.61-1.46 3.47 10.33 4.38 20.85 8.45 31.34 12.45 2.43.93 4.89 1.78 7.34 2.68 2.16.79 5.23 2 6.62-.72.64-1.25.71-2.89.98-4.26l.93-4.78c.61-3.15 1.23-6.3 1.83-9.46 2.41-12.6 4.71-25.24 6.2-37.98.37-3.14.68-6.29.93-9.44.11-1.34.14-2.73-.83-3.8-1.09-1.19-3.02-1.49-4.49-1.95-6.34-1.98-12.69-3.92-19.05-5.81-14.38-4.28-28.81-8.37-43.28-12.31-.91-.25-2.21.31-2.36 1.34-2.78 18.75-5.92 37.46-9.56 56.06-.37 1.87 2.47 2.68 2.88.79Z"/><path d="M147.07 116.32c1.99-3.93 5.6-9.25 7.6-13.18.19-.37.41-.78.81-.91.35-.12.73.02 1.07.16 3.02 1.2 6.04 2.39 9.07 3.59-1.82-8.99-2.88-19.65-4.88-32.51-1.31-8.43-2.52-16.88-3.28-24.05-.38 7.46.71 19.18-.17 26.59-.16 1.36-.39 2.72-.61 4.07-.33 1.97-.65 3.93-.98 5.9-1.14 6.88-2.28 13.77-3.89 20.55"/><path d="M148.51 117.16c1.49-2.22 2.83-4.54 4.26-6.8.72-1.15 1.44-2.3 2.14-3.46.32-.54.64-1.08.95-1.63.15-.26.29-.52.43-.78l.16-.3c.19-.32.21-.37.08-.15l-1.05.29c.63-.06 1.51.5 2.1.74.83.33 1.66.65 2.5.98 1.66.65 3.33 1.28 5.01 1.9 1.54.58 2.8-1.12 2.5-2.5-1.41-6.37-2.27-12.92-3.15-19.39-1.08-7.91-2.34-15.79-3.46-23.69-.61-4.3-1.17-8.62-1.63-12.94-.25-2.35-3.62-2.45-3.74 0-.31 6.62.22 13.26.14 19.88-.09 7.64-1.75 15.13-3.02 22.63-.8 4.72-1.72 9.42-2.62 14.13-.42 2.23 2.8 3.18 3.44.95 2.35-8.29 3.49-16.93 4.86-25.43.57-3.52 1.05-7.01 1.13-10.58.08-3.5-.04-7-.14-10.49-.11-3.69-.23-7.4-.05-11.09h-3.74c.85 7.97 2.01 15.9 3.23 23.81 1.15 7.43 2.08 14.88 3.08 22.33.49 3.67 1.1 7.31 1.75 10.95l2.5-2.5c-2.7-1.13-5.41-2.25-8.14-3.31-1.27-.5-2.6-.94-3.86-.13-.99.63-1.4 1.79-1.92 2.78-2.19 4.17-5.11 8.09-6.77 12.52-.69 1.85 2.05 2.77 3.04 1.28Z"/><path d="M91.08 41.14c19.29 6.46 38.74 12.4 58.07 18.73 1.3.42 2.59.86 3.89 1.28 1.03.34 2.23.96 3.33.95 1.24-.01 2.3-1.01 2.29-2.27 0-.51-.19-.94-.43-1.37-.04-.06-.1-.18-.15-.22-.33-.31.09-.84.08.64l-.63 1.53.04-.04-.95.56-.74.03c2.69.59 3.78-3.3 1.14-4.13-1.47-.46-3.14.38-3.17 2.05 0 .48.12.92.36 1.33.06.11.15.23.22.32.34.41-.12.41-.08-.64l.63-1.53-.04.04.95-.56c.37-.07 1.16.18.34-.17-.19-.08-.42-.12-.61-.18-.48-.14-.96-.29-1.44-.43-1.03-.31-2.06-.61-3.09-.92-2.01-.6-4.01-1.21-6.02-1.8-4.09-1.21-8.17-2.42-12.25-3.67-8.51-2.62-17.01-5.29-25.51-7.95-5.11-1.6-10.24-3.11-15.37-4.64-1.97-.59-2.77 2.41-.84 3.06Zm17.16-7.98c.62-1.74.65-3.74-.28-5.38-1.09-1.9-3.35-2.72-5.43-2.21-4.11 1-6.12 5.95-4.49 9.67.8 1.84 2.69 3.53 4.7 3.91.82.16 1.78-.23 1.98-1.12s-.29-1.63-1.12-1.98c-.16-.06-.31-.12-.47-.18-.05-.02-.32-.14-.13-.05.17.08-.04-.02-.06-.03-.3-.16-.58-.34-.87-.52-.2-.12.17.18.02.01-.04-.05-.1-.09-.15-.13-.11-.1-.22-.21-.33-.32-.09-.09-.31-.37-.12-.11-.1-.14-.2-.28-.29-.42s-.17-.3-.24-.45c-.14-.27.06.21-.03-.08-.05-.16-.11-.33-.15-.49-.03-.11-.09-.61-.06-.21a6 6 0 0 1-.02-.93c0-.07.01-.14.02-.21.01-.24-.06.26 0 .02.05-.18.08-.37.13-.56.05-.17.1-.33.16-.49 0-.01.1-.24.03-.09-.07.17.06-.13.08-.16.07-.15.15-.29.24-.43.05-.09.36-.47.15-.24.22-.25.45-.48.7-.7-.22.2.1-.07.18-.13.16-.1.32-.2.49-.28.04-.02.31-.13.12-.06-.18.07.04-.01.07-.02.15-.05.31-.09.46-.13.06-.01.34-.03.12-.02s.03 0 .06 0h.27c.18 0 .12.01-.02-.02.18.04.36.09.54.14-.25-.07.04.02.14.08l.24.15c-.05-.03-.23-.21-.02 0 .13.12.24.24.36.37-.02-.03-.13-.22-.06-.07.04.09.12.18.17.27.03.05.05.12.09.17.1.14-.07-.24.02.04.05.17.11.33.15.5.03.12.09.56.05.24.05.37.09.74.07 1.12 0 .06 0 .13-.01.19-.01.28.02-.1-.01.07-.04.18-.07.37-.12.55-.19.73.24 1.52.98 1.72.77.21 1.47-.26 1.72-.98Zm13.57 3.94c.62-1.74.65-3.74-.28-5.38-1.09-1.9-3.35-2.72-5.43-2.21-4.11 1-6.12 5.95-4.49 9.67.8 1.84 2.69 3.53 4.7 3.91.82.16 1.78-.23 1.98-1.12s-.29-1.63-1.12-1.98c-.16-.06-.31-.12-.47-.18-.05-.02-.32-.14-.13-.05.17.08-.04-.02-.06-.03-.3-.16-.58-.34-.87-.52-.2-.12.17.18.02.01-.04-.05-.1-.09-.15-.13-.11-.1-.22-.21-.33-.32-.09-.09-.31-.37-.12-.11-.1-.14-.2-.28-.29-.42s-.17-.3-.24-.45c-.14-.27.06.21-.03-.08-.05-.16-.11-.33-.15-.49-.03-.11-.09-.61-.06-.21a6 6 0 0 1-.02-.93c0-.07.01-.14.02-.21.01-.24-.06.26 0 .02.05-.18.08-.37.13-.56.05-.17.1-.33.16-.49 0-.01.1-.24.03-.09-.07.17.06-.13.08-.16.07-.15.15-.29.24-.43.05-.09.36-.47.15-.24.22-.25.45-.48.7-.7-.22.2.1-.07.18-.13.16-.1.32-.2.49-.28.04-.02.31-.13.12-.06-.18.07.04-.01.07-.02.15-.05.31-.09.46-.13.06-.01.34-.03.12-.02s.03 0 .06 0h.27c.18 0 .12.01-.02-.02.18.04.36.09.54.14-.25-.07.04.02.14.08l.24.15c-.05-.03-.23-.21-.02 0 .13.12.24.24.36.37-.02-.03-.13-.22-.06-.07.04.09.12.18.17.27.03.05.05.12.09.17.1.14-.07-.24.02.04.05.17.11.33.15.5.03.12.09.56.05.24.05.37.09.74.07 1.12 0 .06 0 .13-.01.19-.01.28.02-.1-.01.07-.04.18-.07.37-.12.55-.19.73.24 1.52.98 1.72.77.21 1.47-.26 1.72-.98Zm13.56 3.94c.62-1.74.65-3.74-.28-5.38-1.09-1.9-3.35-2.72-5.43-2.21-4.11 1-6.12 5.95-4.49 9.67.8 1.84 2.69 3.53 4.7 3.91.82.16 1.78-.23 1.98-1.12s-.29-1.63-1.12-1.98c-.16-.06-.31-.12-.47-.18-.05-.02-.32-.14-.13-.05.17.08-.04-.02-.06-.03-.3-.16-.58-.34-.87-.52-.2-.12.17.18.02.01-.04-.05-.1-.09-.15-.13-.11-.1-.22-.21-.33-.32-.09-.09-.31-.37-.12-.11-.1-.14-.2-.28-.29-.42s-.17-.3-.24-.45c-.14-.27.06.21-.03-.08-.05-.16-.11-.33-.15-.49-.03-.11-.09-.61-.06-.21a6 6 0 0 1-.02-.93c0-.07.01-.14.02-.21.01-.24-.06.26 0 .02.05-.18.08-.37.13-.56.05-.17.1-.33.16-.49 0-.01.1-.24.03-.09-.07.17.06-.13.08-.16.07-.15.15-.29.24-.43.05-.09.36-.47.15-.24.22-.25.45-.48.7-.7-.22.2.1-.07.18-.13.16-.1.32-.2.49-.28.04-.02.31-.13.12-.06-.18.07.04-.01.07-.02.15-.05.31-.09.46-.13.06-.01.34-.03.12-.02s.03 0 .06 0h.27c.18 0 .12.01-.02-.02.18.04.36.09.54.14-.25-.07.04.02.14.08l.24.15c-.05-.03-.23-.21-.02 0 .13.12.24.24.36.37-.02-.03-.13-.22-.06-.07.04.09.12.18.17.27.03.05.05.12.09.17.1.14-.07-.24.02.04.05.17.11.33.15.5.03.12.09.56.05.24.05.37.09.74.07 1.12 0 .06 0 .13-.01.19-.01.28.02-.1-.01.07-.04.18-.07.37-.12.55-.19.73.24 1.52.98 1.72.77.21 1.47-.26 1.72-.98Zm13.57 3.94c.62-1.74.65-3.74-.28-5.38-1.09-1.9-3.35-2.72-5.43-2.21-4.11 1-6.12 5.95-4.49 9.67.8 1.84 2.69 3.53 4.7 3.91.82.16 1.78-.23 1.98-1.12s-.29-1.63-1.12-1.98c-.16-.06-.31-.12-.47-.18-.05-.02-.32-.14-.13-.05.17.08-.04-.02-.06-.03-.3-.16-.58-.34-.87-.52-.2-.12.17.18.02.01-.04-.05-.1-.09-.15-.13-.11-.1-.22-.21-.33-.32-.09-.09-.31-.37-.12-.11-.1-.14-.2-.28-.29-.42s-.17-.3-.24-.45c-.14-.27.06.21-.03-.08-.05-.16-.11-.33-.15-.49-.03-.11-.09-.61-.06-.21a6 6 0 0 1-.02-.93c0-.07.01-.14.02-.21.01-.24-.06.26 0 .02.05-.18.08-.37.13-.56.05-.17.1-.33.16-.49 0-.01.1-.24.03-.09-.07.17.06-.13.08-.16.07-.15.15-.29.24-.43.05-.09.36-.47.15-.24.22-.25.45-.48.7-.7-.22.2.1-.07.18-.13.16-.1.32-.2.49-.28.04-.02.31-.13.12-.06-.18.07.04-.01.07-.02.15-.05.31-.09.46-.13.06-.01.34-.03.12-.02s.03 0 .06 0h.27c.18 0 .12.01-.02-.02.18.04.36.09.54.14-.25-.07.04.02.14.08l.24.15c-.05-.03-.23-.21-.02 0 .13.12.24.24.36.37-.02-.03-.13-.22-.06-.07.04.09.12.18.17.27.03.05.05.12.09.17.1.14-.07-.24.02.04.05.17.11.33.15.5.03.12.09.56.05.24.05.37.09.74.07 1.12 0 .06 0 .13-.01.19-.01.28.02-.1-.01.07-.04.18-.07.37-.12.55-.19.73.24 1.52.98 1.72.77.21 1.47-.26 1.72-.98ZM91.01 83.64c2.07-10.64 4.46-21.19 6.85-31.75l-2.31 1.31c8.24 2.84 16.46 5.75 24.71 8.57 4.07 1.39 8.13 2.83 12.27 4.03 4.09 1.19 8.26 2.08 12.23 3.65l-1.41-2.48c-1.07 5.83-2.13 11.66-3.2 17.5-.52 2.84-1.02 5.68-1.52 8.51-.46 2.55-.31 5.5-1.37 7.9l1.64-.94c-.48-.01-.1.03-.39-.03-.24-.05-.47-.12-.7-.19-.64-.19-1.26-.43-1.89-.66-1.72-.64-3.47-1.2-5.21-1.78-3.15-1.04-6.25-2.23-9.35-3.43-7.03-2.72-14.02-5.52-21.07-8.18-3.41-1.28-6.83-2.56-10.32-3.61-2.35-.71-3.29 2.87-1.01 3.65 13.49 4.61 26.57 10.33 40.06 14.97 1.86.64 3.74 1.24 5.59 1.93 1.39.52 2.78 1.11 4.29 1.15.61.02 1.39-.36 1.64-.94 1.11-2.49 1.2-5.16 1.74-7.79.62-2.98 1.13-5.99 1.67-8.98 1.09-5.99 2.18-11.99 3.27-17.99.21-1.16-.31-2.05-1.41-2.48-3.97-1.56-8.15-2.45-12.23-3.63s-8.2-2.63-12.27-4.02c-8.25-2.81-16.52-5.54-24.77-8.33-.93-.31-2.1.36-2.31 1.31-2.32 10.58-4.32 21.25-6.3 31.9-.37 2 2.68 2.87 3.07.85Z"/><path d="M95.74 61.52c1.95.68 3.8 1.68 5.75 2.39s3.9 1.36 5.86 1.99c3.84 1.24 7.69 2.47 11.54 3.68 7.78 2.46 15.59 4.83 23.39 7.24 2.06.64 2.95-2.61.89-3.22-7.82-2.35-15.6-4.82-23.37-7.29-3.85-1.22-7.69-2.46-11.54-3.71-1.88-.61-3.77-1.21-5.66-1.77-2.06-.6-4.2-.9-6.24-1.53-1.42-.44-1.99 1.73-.61 2.21Zm-2.01 7.86c1.95.68 3.8 1.68 5.75 2.39s3.9 1.36 5.86 1.99c3.84 1.24 7.69 2.47 11.54 3.68 7.78 2.46 15.59 4.83 23.39 7.24 2.06.64 2.95-2.61.89-3.22-7.82-2.35-15.6-4.82-23.37-7.29-3.85-1.22-7.69-2.46-11.54-3.71-1.88-.61-3.77-1.21-5.66-1.77-2.06-.6-4.2-.9-6.24-1.53-1.42-.44-1.99 1.73-.61 2.21Zm-2.04 7.4c2.01.78 3.91 1.9 5.92 2.71 1.84.74 3.71 1.44 5.57 2.11 3.88 1.41 7.77 2.81 11.66 4.19 7.78 2.77 15.59 5.45 23.39 8.16 2.03.71 2.92-2.54.89-3.22-7.82-2.65-15.6-5.42-23.37-8.21-3.89-1.39-7.77-2.8-11.65-4.22-1.86-.68-3.73-1.35-5.61-1.98-2.03-.68-4.17-1.05-6.18-1.76-1.41-.5-1.96 1.69-.61 2.21Z"/><path d="M101.49 53.41c-.77 2.56-1.15 5.24-1.66 7.87-.53 2.72-1 5.45-1.51 8.17a804 804 0 0 1-2.3 11.74c-.29 1.41-.71 2.86-.75 4.3-.06 2.02 2.61 2.07 3.27.44.51-1.26.67-2.71.95-4.04l.78-3.83q.81-4.08 1.56-8.16c.48-2.64.98-5.29 1.39-7.95s.94-5.43 1.03-8.17c.05-1.61-2.3-1.86-2.75-.37Zm6.92 2.42c-.77 2.56-1.15 5.24-1.66 7.87-.53 2.72-1 5.45-1.51 8.17a804 804 0 0 1-2.3 11.74c-.29 1.41-.71 2.86-.75 4.3-.06 2.02 2.61 2.07 3.27.44.51-1.26.67-2.71.95-4.04s.52-2.55.78-3.83q.81-4.08 1.56-8.16c.48-2.64.98-5.29 1.39-7.95s.94-5.43 1.03-8.17c.05-1.61-2.3-1.86-2.75-.37Zm6.92 2.41c-.77 2.56-1.15 5.24-1.66 7.87-.53 2.72-1 5.45-1.51 8.17a804 804 0 0 1-2.3 11.74c-.29 1.41-.71 2.86-.75 4.3-.06 2.02 2.61 2.07 3.27.44.51-1.26.67-2.71.95-4.04s.52-2.55.78-3.83q.81-4.08 1.56-8.16c.75-4.08.98-5.29 1.39-7.95s.94-5.43 1.03-8.17c.05-1.61-2.3-1.86-2.75-.37Zm6.92 2.42c-.77 2.56-1.15 5.24-1.66 7.87-.53 2.72-1 5.45-1.51 8.17-.5 2.64-1.01 5.28-1.53 7.91-.25 1.28-.51 2.56-.77 3.83-.29 1.41-.71 2.86-.75 4.3-.06 2.02 2.61 2.07 3.27.44.51-1.26.67-2.71.95-4.04l.78-3.83q.81-4.08 1.56-8.16c.48-2.64.98-5.29 1.39-7.95.42-2.71.94-5.43 1.03-8.17.05-1.61-2.3-1.86-2.75-.37Zm6.93 2.42c-.77 2.56-1.15 5.24-1.66 7.87-.53 2.72-1 5.45-1.51 8.17a804 804 0 0 1-2.3 11.74c-.29 1.41-.71 2.86-.75 4.3-.06 2.02 2.61 2.07 3.27.44.51-1.26.67-2.71.95-4.04s.52-2.55.78-3.83q.81-4.08 1.56-8.16c.48-2.64.98-5.29 1.39-7.95s.94-5.43 1.03-8.17c.05-1.61-2.3-1.86-2.75-.37Zm6.92 2.42c-.77 2.56-1.15 5.24-1.66 7.87-.53 2.72-1 5.45-1.51 8.17a804 804 0 0 1-2.3 11.74c-.29 1.41-.71 2.86-.75 4.3-.06 2.02 2.61 2.07 3.27.44.51-1.26.67-2.71.95-4.04l.78-3.83q.81-4.08 1.56-8.16c.48-2.64.98-5.29 1.39-7.95s.94-5.43 1.03-8.17c.05-1.61-2.3-1.86-2.75-.37Zm-79.78 93.75c14.89-3.78 31.29-8.06 45.89-12.84l-9.48-20.16c17.33-2.3 35.77-5.96 52.87-9.57-.68.53-3.69.07-5.37-.81-9.07-4.76-20.36-5.23-28.61-11.29-1.24 2.16-3.08 4.38-4.83 6.17-3.1 3.17-6.34 7.17-9.43 10.34-1.13 1.16-2.27 2.32-3.41 3.47a514 514 0 0 1-35.79 32.97"/><path d="M56.74 160.79c15.44-3.65 30.92-7.46 46.03-12.32 1.4-.45 1.86-1.85 1.27-3.12-3.13-6.73-6.29-13.46-9.45-20.18l-1.86 3.25c17.95-2.4 35.73-5.9 53.45-9.64-.56-1.32-1.11-2.64-1.67-3.96.25-.15.57-.02.14-.07-.28-.04-.58 0-.87-.04-.54-.07-1.08-.22-1.59-.38-1.29-.41-2.48-1.17-3.73-1.7-2.9-1.24-5.91-2.18-8.93-3.06-5.83-1.7-11.79-3.26-16.79-6.87-.95-.69-2.46-.17-3 .79-2.23 3.95-5.71 7.04-8.69 10.42-3.24 3.69-6.61 7.22-10.07 10.71-6.94 7-14.09 13.81-21.43 20.4-4.2 3.77-8.47 7.47-12.79 11.1-1.98 1.67.87 4.49 2.84 2.84 7.69-6.43 15.2-13.07 22.51-19.93 7.23-6.78 14.44-13.67 21.02-21.08 3.54-3.98 7.6-7.68 10.4-12.25l-3 .79c5.51 3.98 12.2 5.65 18.62 7.54 3.16.93 6.32 1.92 9.29 3.37 2.26 1.11 5.83 2.6 8.28 1.15 2.17-1.28.7-4.45-1.67-3.96-17.33 3.66-34.73 7.17-52.29 9.5-1.68.22-2.61 1.65-1.86 3.25 3.15 6.72 6.32 13.44 9.5 20.15.42-1.04.85-2.08 1.27-3.12-15.1 4.99-30.4 9.18-45.74 13.35-1.98.54-1.15 3.55.85 3.07Z"/><path d="M92.81 127.62c2.61 5.37 5.23 10.72 7.88 16.07 3.23 6.51 6.42 13.1 10.97 18.83.85 1.07 1.73 2.56 2.97 3.19 1.65.84 3.41-.11 4.99-.63 3.21-1.04 6.65-1.37 9.97-1.9 6.51-1.03 13.02-2.08 19.5-3.31 7.19-1.36 14.36-2.88 21.37-4.97 1.33-.4 2.09-2 1.32-3.24-6.41-10.36-16.11-18.26-22.6-28.56-1.34-2.13-4.69-.2-3.39 1.98 6.26 10.46 15.83 18.41 22.17 28.81l1.32-3.24c-12.19 3.56-24.79 5.65-37.3 7.76-2.92.49-5.85.94-8.76 1.48-1.59.29-3.18.65-4.71 1.19-.69.24-1.51.48-2.13.87-.11.07-.62.06-.25.22-.29-.13-.65-1.03-.81-1.3-1.76-2.91-3.86-5.61-5.64-8.51-1.9-3.09-3.51-6.34-5.15-9.57-2.87-5.65-6.42-10.94-9.25-16.6-.82-1.64-3.25-.2-2.46 1.44Z"/><path d="M112.49 134.76c2.4.95 4.99-.08 6.42-2.13l-2.78-.36c.36 1.68 2.12 2.11 3.61 1.9 2.21-.31 4.41-.82 6.61-1.24 4.54-.87 9.09-1.75 13.63-2.63 2.07-.4 1.2-3.57-.87-3.16l-10.95 2.13-5.35 1.05c-.89.18-1.78.35-2.67.53-.33.06-.79.09-1.11.2-.61.21-.27-.55.03.4-.4-1.26-2.07-1.48-2.78-.36s-1.91 1.31-3.04.91c-1.75-.63-2.44 2.09-.76 2.76Zm4.91 8.3c8.8-1.62 17.56-3.43 26.33-5.19 2.07-.42 1.2-3.63-.88-3.18-8.73 1.88-17.48 3.71-26.18 5.73-1.73.4-.98 2.95.73 2.64m7.03 8.82 7.25-1.59c1.21-.27 2.41-.55 3.62-.82s2.48-.43 3.61-.86c.74-.28 1.27-.92 1.14-1.75-.11-.72-.77-1.46-1.57-1.38-1.27.12-2.52.53-3.76.83s-2.5.6-3.74.91c-2.44.61-4.88 1.23-7.33 1.84-1.84.46-1.06 3.24.78 2.83ZM26.71 81.91c-1.53-7.37.75-15.17 6.02-20.55 4.83-4.92 12.9-8.3 19.81-6.4 6.68 1.84 8.65 10.62 3.08 14.93-1.22.95-2.8 1.59-4.34 1.7-.69.05-1.37.08-1.65-.63-.26-.66-.15-1.5-.07-2.19.41-3.67 1.79-7.27 3.75-10.38 4.7-7.49 12.78-11.29 21.42-11.81 2.52-.15 2.53-3.79 0-3.92-9.55-.51-18.88 4.97-24.08 12.8-2.56 3.86-4.13 8.32-4.64 12.92-.22 1.97-.05 4.19 1.48 5.63 1.66 1.55 4.34 1.29 6.35.7 3.96-1.18 7.4-4.42 8.53-8.44s-.21-8.79-3.17-11.85c-3.36-3.46-8.46-4.21-13.06-3.68s-8.72 2.11-12.36 4.73C25.22 61.63 21.3 72.5 23.67 82.75c.46 1.99 3.45 1.14 3.04-.84m80.71-64.93-.42-1.47-.21-.73c-.16-.57-.39-1.08-.94-1.38-.31-.17-.74-.25-1.08-.14s-.67.32-.84.65c-.16.31-.27.62-.24.97.02.27.07.48.15.72l.23.73.46 1.46c.12.37.35.7.69.9s.8.27 1.16.15.71-.34.9-.69.26-.76.15-1.16Zm13.81.96c.01-.16.03-.32.05-.48l-.05.39c.1-.78.32-1.53.62-2.25l-.16.37c.1-.24.23-.48.34-.72.1-.21.21-.43.29-.65.16-.5-.02-1.19-.41-1.55s-.95-.51-1.47-.36c-.47.13-.77.44-1.02.83-.2.31-.33.68-.47 1.02-.43 1.06-.62 2.25-.62 3.4 0 .76.67 1.49 1.45 1.45.38-.02.77-.14 1.03-.43s.4-.63.43-1.03Zm12.74 3.48c.37-.87.81-1.72 1.39-2.47l-.24.31c.47-.6 1-1.13 1.6-1.59l-.32.25c.46-.35.99-.63 1.29-1.14.28-.46.27-1.07 0-1.53-.25-.43-.79-.8-1.31-.75-.36.04-.69.12-1.01.3-.12.06-.22.15-.33.23-.3.23-.6.46-.88.71-.4.36-.76.75-1.09 1.18-.79 1.01-1.46 2.13-1.78 3.38-.18.71.17 1.44.85 1.72.29.12.64.17.95.07.34-.11.73-.33.87-.67Zm12.98 6.19c.23-.17.47-.34.7-.52-.04.03.38-.3.14-.11-.18.14-.01.01.02-.02.1-.08.21-.15.31-.23.4-.29.8-.56 1.22-.81s.82-.48 1.24-.7l.66-.33c.32-.15.58-.38.86-.6.23-.18.35-.53.38-.8.04-.3 0-.63-.17-.89-.36-.56-.94-.75-1.58-.64-.59.1-1.1.38-1.62.67-.44.24-.87.5-1.3.77-.91.59-1.8 1.24-2.58 1.99-.51.49-.53 1.31-.11 1.86.39.5 1.26.79 1.82.36Zm12.39 8.88.21-.14c.18-.12.39-.23.52-.39l.31-.39.22-.29c.11-.17.16-.34.17-.53.03-.13.03-.25 0-.38 0-.19-.07-.37-.17-.53l-.22-.29-.29-.22c-.17-.11-.34-.16-.53-.17q-.285-.06-.57.03l-.47.12c-.24.06-.39.16-.58.28l-.22.14c-.19.1-.34.24-.45.41-.14.16-.24.34-.29.55-.07.21-.08.43-.03.64 0 .21.07.41.19.6l.25.33c.2.2.44.34.71.41l.43.06c.29 0 .56-.07.81-.22Z"/></svg>