<?xml version="1.0" encoding="UTF-8"?><svg xmlns="http://www.w3.org/2000/svg" viewBox="0 0 180 180"><path d="M131.3 50.15c-2.77-.35-4.97-3.41-6.87-5.18-2.45-2.28-5.18-4.31-8.02-6.06-5.32-3.28-12.2-6.06-18.47-3.94s-10 8.62-11.69 14.71C84.82 54.8 83.86 62.91 89 66.42c3.17 2.16 7.09.84 9.65-1.62 2.5-2.39 3.49-5.9 6.01-8.25-1.15-.89-2.3-1.77-3.45-2.66-2.32 3.82-3.03 8.77-1.44 13.01 1.49 3.98 4.56 7.45 8.73 8.65 1.91.55 2.95-2.11 1.32-3.14-2.59-1.64-4.96-3.84-5.93-6.84-1.05-3.21-.64-6.59 1.12-9.46 1.33-2.18-1.65-4.33-3.45-2.66-1.99 1.85-3.14 4.28-4.61 6.52-.98 1.49-3.15 3.94-5.2 2.95-1.62-.79-2.04-3.17-2.13-4.78-.16-2.82.29-5.69 1.13-8.38 1.53-4.88 4.65-10.15 10.08-11.14s11.07 1.97 15.48 4.8c2.64 1.69 5 3.67 7.34 5.74 2.26 1.99 4.63 3.47 7.67 3.81 1.81.2 1.77-2.59 0-2.81Z"/><path d="M87.36 42.08c-6.99-.75-13.96-1.03-21-1.07-6.87-.04-13.84.09-20.69.69-2.62.23-5.43.76-7.31 2.76-2.08 2.22-2.14 5.39-.91 8.05 2.59 5.56 10.26 6.45 15.59 7.18 7.66 1.05 15.43 1.3 23.15 1.68l-.57-4.23c-5.36 2.15-11.36 4.87-12.13 11.36-.31 2.65.66 5.33 2.72 7.07s4.7 2.63 7.31 3.31V74.7c-5.39.75-10.28 5.25-9.62 11.01.32 2.77 1.85 5.16 4.32 6.49 2.37 1.28 5.11 1.54 7.76 1.72v-4.26c-5.63.74-7.86 7.11-4.82 11.66 3.32 4.98 10 5.77 15.5 5.47 5.22-.28 11.9-1.46 15.15-6.04 1.4-1.97 1.92-4.73 1.12-7.03-.97-2.77-3.51-4.07-6.2-4.74-6.77-1.69-13.76-.57-20.52.55-2.33.39-1.79 4.24.56 4.12 4.34-.23 8.82-.48 12.96-1.91 3.69-1.28 8.67-3.82 8.35-8.44-.33-4.74-4.9-6.82-8.93-7.8a41.2 41.2 0 0 0-14.64-.9c-1.14.13-2.13.88-2.13 2.13 0 1.07.98 2.24 2.13 2.13 5.02-.48 10.19.28 14.94-1.82 4.18-1.85 7.08-6.19 6.02-10.82-.61-2.64-4.62-1.52-4.05 1.12.68 3.19-2.47 5.55-5.16 6.33-3.8 1.1-7.84.55-11.74.92v4.26c3.88-.46 7.82-.41 11.66.33 2.32.45 7.32 1.14 7.68 4.22.17 1.42-1.31 2.34-2.37 2.95-1.4.82-2.9 1.39-4.46 1.81-3.35.91-6.82 1.1-10.26 1.29.19 1.37.37 2.74.56 4.12 4.49-.75 9.03-1.48 13.6-1.24 2.08.1 4.31.37 6.26 1.15 1.46.58 2.16 1.71 1.85 3.28-.7 3.63-5.44 4.73-8.49 5.33-4.01.79-9.03 1.06-12.85-.65-1.7-.76-3.37-2.2-3.69-4.13-.2-1.25.5-3.2 1.97-3.39 2.67-.35 2.81-4.07 0-4.26-2.94-.2-7.4-.57-7.82-4.31-.43-3.85 3.2-6.02 6.52-6.47 2.2-.3 1.92-3.67 0-4.18-2.95-.78-7.48-2.03-6.85-5.99.68-4.23 5.43-6.12 8.94-7.42 2.28-.84 1.91-4.06-.57-4.23-6.08-.43-12.18-.68-18.25-1.26-2.92-.28-5.82-.67-8.69-1.28-2.2-.47-4.77-.93-6.5-2.48-1.14-1.02-2.16-3.18-.78-4.42 1.44-1.29 4.07-1.15 5.87-1.26 6.17-.4 12.34-.6 18.52-.76 7-.18 14-.18 21-.26 2.13-.03 2.03-3.02 0-3.23Z"/><path d="M78.08 65.15c1.52-.47 2.9-.56 4.51-.57.78 0 1.57 0 2.35.05.39.02.78.06 1.17.1.46.05-.2-.04.21.03.35.06.69.11 1.04.14.61.05 1.37-.39 1.64-.94.25-.52.27-.91.19-1.46-.09-.61-.75-1.2-1.33-1.33-1.82-.4-3.83-.3-5.66-.01-.83.13-1.65.31-2.45.55s-1.59.61-2.38.91c-.66.25-1.11.88-.91 1.6.18.67.93 1.12 1.6.91Zm56.81 34.69c-2.95-.89-5.88-1.38-8.98-1.29s-6.22.59-9.29 1.04c-5.86.87-11.87 1.9-17.55-.41-1.1-.45-2.41.49-2.7 1.53-.35 1.26.43 2.25 1.53 2.7 5.84 2.4 12.24 1.55 18.28.53 2.98-.5 5.94-1.17 8.95-1.47s6.08-.53 8.94.29c1.88.54 2.67-2.36.81-2.92ZM93.4 66.33c-1.07 7.36 3.61 13.3 7.62 18.94 1.07 1.51 3.48.18 2.52-1.47-3.07-5.32-7.94-10.47-7.27-17.07.16-1.62-2.63-2.02-2.87-.39Z"/><path d="M132.93 49.25c-2.13 4.11-3.09 8.92-3.82 13.45-.77 4.76-1.18 9.56-1.13 14.38s.5 9.49 1.31 14.17c.4 2.32.9 4.62 1.49 6.9s.95 5.3 2.86 6.67c1 .72 2.34-.06 2.67-1.09.4-1.26-.13-2.46-.49-3.67-.3-1.02-.59-2.04-.86-3.07a84.2 84.2 0 0 1-2.68-20.13c-.07-4.51.16-9.06.76-13.54.61-4.5 1.82-8.89 2.42-13.38.18-1.36-1.95-1.82-2.53-.69m35.53 1.62c-6.24-.65-12.49-1.31-18.73-1.96-.5-.05-1.03-.1-1.49.12-.53.25-.84.8-1.08 1.33-1.57 3.38-2.93 9.81-3.22 13.53-1.09 13.72-1.11 25.14 2.48 38.43.29 1.09.72 2.29 1.73 2.77.6.29 1.3.27 1.97.23 5.69-.29 11.36-.88 16.98-1.78.56-.09 1.17-.21 1.55-.63.37-.41.43-1 .47-1.56 1.29-16.76 1.12-33.64-.52-50.37"/><path d="M168.46 49.32c-5.67-.71-11.33-1.51-17.01-2.14-1.22-.13-2.53-.42-3.72 0-1.16.4-1.87 1.4-2.36 2.47-.83 1.83-1.42 3.77-1.92 5.72-1.13 4.43-1.55 8.91-1.82 13.46-.31 5.1-.42 10.21-.13 15.32.29 5.06.99 10.1 2.11 15.04.5 2.2.85 5.12 2.49 6.81 1.83 1.89 4.82 1.28 7.17 1.14 2.84-.17 5.68-.4 8.5-.76q1.965-.255 3.93-.54c1.23-.18 2.63-.24 3.71-.92 2.21-1.4 1.83-4.74 1.97-7 .18-2.88.31-5.76.4-8.64.41-12.8-.2-25.54-1.51-38.27-.22-2.14-3.59-2.18-3.39 0 .94 10.17 1.2 20.4 1.08 30.61-.06 5.11-.26 10.22-.59 15.32-.07 1.15-.16 2.3-.25 3.45-.03.34.03.91-.09 1.24.1-.29.44-.1-.17-.11-.26 0-.57.09-.82.13-2.55.4-5.11.71-7.68 1-2.43.28-4.86.5-7.3.66-.69.05-1.81.36-2.3-.21-.58-.69-.69-2.06-.91-2.9-1.13-4.49-1.91-9.05-2.29-13.66s-.42-9.07-.25-13.61c.15-4.14.28-8.35 1-12.43.38-2.16.87-4.32 1.51-6.42.25-.83.51-1.67.86-2.47.08-.18.22-.39.27-.58.25-.28.27-.37.08-.27-.16.05-.13.07.09.05.64-.06 1.41.12 2.05.19 5.74.57 11.5.96 17.26 1.44 2.02.17 1.94-2.87 0-3.11ZM57.01 41.14c.12-.44.86-.35 1.18-.17.86.47 1.06 1.93 1.2 2.77.45 2.82.42 5.75.38 8.6-.07 5.19-.08 10.3.42 15.48 1.02 10.54 3.19 20.93 5.57 31.23 1.26 5.45 2.44 11.01 4.44 16.25.52 1.37 2.96 1.35 2.79-.38-.54-5.59-2.02-11.06-3.28-16.51s-2.54-11.38-3.58-17.11c-1.03-5.68-1.87-11.41-2.26-17.17-.4-5.95.17-11.96-.47-17.89-.3-2.83-.63-6.71-3.46-8.25-2.1-1.15-5.46-.28-5.87 2.35-.29 1.89 2.41 2.75 2.94.81Zm-8.24 15.04c-3.85 13.93-2.29 28.53-4.53 42.69-.62 3.91-1.68 7.65-2.76 11.45-.54 1.88 2.35 3.21 3.24 1.37 3.05-6.33 3.75-13.85 4.28-20.77.57-7.38.66-14.79 1.26-22.17.32-3.93.75-7.86 1.6-11.72.44-2-2.54-2.85-3.09-.85M45.3 29.47c-1.18-1-2.21-2.17-3.2-3.36-.11-.14-.23-.28-.34-.42-.06-.08-.13-.15-.18-.23.11.16.14.19.01.01-.23-.3-.45-.6-.66-.91-.52-.75-.98-1.51-1.57-2.21-.56-.66-1.64-.63-2.28-.14-.72.56-.82 1.44-.45 2.24.38.82.99 1.52 1.56 2.21.49.6 1 1.18 1.54 1.73s1.09 1.11 1.69 1.6c.38.3.77.58 1.15.89-.1-.08-.13-.1-.02 0 .08.06.15.13.23.19.17.14.34.27.51.41.31.24.59.42 1.01.42.35 0 .77-.15 1.01-.42.49-.53.61-1.5 0-2.01Zm11.11-6.76c-.13-.62-.25-1.24-.34-1.87l-.03-.23c.02.15.02.14 0-.05l-.06-.45c-.04-.3-.07-.6-.1-.9-.06-.6-.11-1.21-.15-1.81-.04-.65-.03-1.32-.11-1.97-.11-.85-.68-1.68-1.64-1.64-.91.04-1.62.72-1.64 1.64-.02.65.09 1.32.16 1.97.08.74.18 1.49.3 2.23.2 1.3.44 2.59.71 3.87.16.77 1.11 1.29 1.85 1.05.82-.26 1.21-1.02 1.05-1.85Zm10.46 1.69c.05-.12.06-.15 0-.01.03-.08.07-.16.1-.24.07-.16.14-.32.22-.48.15-.32.3-.64.46-.95q.495-.975 1.05-1.92c.555-.945.75-1.2 1.15-1.78.2-.29.41-.58.62-.86.29-.39.49-.75.65-1.22.39-1.24-1.12-2.42-2.23-1.71-.22.14-.45.29-.63.47-.19.2-.36.48-.53.7-.22.3-.43.62-.63.93-.41.63-.79 1.28-1.14 1.94-.76 1.4-1.4 2.86-1.95 4.34-.27.73.3 1.66 1.04 1.83.87.2 1.51-.27 1.83-1.04Zm11.22 7.61 1.35-.96c.54-.39 1.09-.77 1.6-1.2.15-.14.26-.3.32-.5.1-.18.14-.38.13-.59-.02-.35-.12-.66-.33-.93-.2-.25-.48-.48-.8-.55-.39-.09-.84-.07-1.19.16-.56.37-1.07.8-1.59 1.21-.43.34-.86.68-1.3 1.02-.15.14-.25.3-.31.48-.09.18-.14.37-.13.57.02.34.11.64.32.9.19.25.46.46.78.53.37.08.83.08 1.15-.15Z"/><path d="M71.57 113.37c-3.49-.3-6.77.1-10.03 1.39-3.27 1.3-6.26 3.18-8.81 5.61-4.51 4.28-7.22 10.29-8.02 16.41-.79 6.05.28 12.42 3.44 17.68 2.79 4.64 7.1 8.21 12.08 10.28 9.16 3.82 20.07 2.26 28.45-2.8 8.78-5.31 15.01-14.89 14.14-25.4-.88-10.58-8.22-22.42-19.58-23.77a24 24 0 0 0-4.13-.11c-2.32.14-2.35 3.74 0 3.64 9.98-.41 17.49 8.21 19.29 17.41 1.72 8.78-2.32 17.51-9.33 22.82-6.68 5.06-15.71 7.32-23.8 5.33-4.08-1-7.77-3.07-10.69-6.14-3.61-3.8-5.52-8.91-5.7-14.11-.2-5.82 1.53-11.88 5.24-16.42 2.08-2.54 4.65-4.53 7.52-6.1s6.56-2.87 9.94-2.61c2 .15 1.98-2.94 0-3.11Zm-30.75-2.83c.44.12.88.24 1.32.37h.01z"/><path d="m40.29 112.47.67.18c.22.06.44.13.66.18.27.08.53.1.8.04.27-.01.51-.09.74-.24.23-.13.42-.3.56-.52.18-.19.3-.42.36-.68l.07-.53c0-.36-.09-.7-.27-1.01l-.31-.4c-.25-.25-.54-.42-.88-.51-.39-.11-.78-.21-1.17-.32l-.17-.05c-.27-.08-.53-.1-.8-.04-.27.01-.51.09-.74.24-.23.13-.42.3-.56.52-.18.19-.3.42-.36.68l-.07.53c0 .36.09.7.27 1.01l.31.4c.25.25.54.42.88.51.39.11.78.21 1.17.32l.17.05 1.06-3.86c-.22-.05-.44-.12-.66-.18l-.67-.18c-.27-.08-.53-.1-.8-.04-.27.01-.51.09-.74.24-.23.13-.42.3-.56.52-.18.19-.3.42-.36.68l-.07.53c0 .36.09.7.27 1.01l.31.4c.25.25.54.42.88.51Z"/><path d="M56.6 119.27c-1.06-.87-2.36-2.24-3.3-3.1-3.07-2.8-7.13-4.14-11.16-5.27-2.85-.68-6.92-1.1-9.84-.88-18.23 1.36-28.58 24.5-18.06 39.17 3.58 4.99 9.2 8.53 15.12 10.05 7.33 1.88 15.27.84 22.16-2.29-2.1-1.38-3.15-3.88-3.93-6.27-1.59-4.95-2.48-10.2-1.8-15.36.68-5.15 3.04-10.2 7.07-13.48.82-.66 4.55-1.91 3.74-2.58Zm-11.75 20.74c-.39 2.75-4.02 4.71-6.71 5.37-.25 2.5-2.31 5.04-4.81 4.78-2.34-.24-3.86-3.28-2.66-5.3-1.56-.03-1.16.04-2.68-.3-1.79-.4-3.73-1.22-4.37-2.93-.7-1.9.65-3.99 2.31-4.87 2.01-1.08 4.19-.31 6.3-.01-4.24-.71-10.57-5.3-7.25-9.95 1.56-2.18 4.62-3.8 7.31-2.98l-.33-.88c.25-1.6.58-3.35 1.86-4.34 1.36-1.05 3.52-.77 4.66.52 1.15 1.28 1.25 3.33.37 4.81 1.73-.48 3.72.04 4.91 1.38 1.18 1.35 1.42 3.48.47 4.99-.68 1.08-1.95 1.74-3.21 1.77 1.25.45 2.33 1.4 2.99 2.57.91 1.61 1.1 3.55.84 5.39Z"/><path d="M58.01 117.86c-1.82-1.53-3.36-3.33-5.32-4.69s-4.18-2.3-6.42-3.08c-4.48-1.55-9.38-2.43-14.13-2.05-7.21.59-13.63 4.35-18.02 10.04-4.25 5.52-6.57 12.67-6.02 19.65.65 8.17 5.11 15.2 11.98 19.63 9.76 6.3 22.1 5.94 32.44 1.32 1.5-.67 1.09-2.69 0-3.45-1.44-1.01-2.2-2.75-2.77-4.35-.71-2.02-1.26-4.11-1.66-6.22-.79-4.17-.8-8.53.44-12.61.95-3.13 2.81-6.75 5.59-8.64 1.73-1.17 6.57-2.59 3.88-5.55-1.74-1.91-4.56.93-2.83 2.83l.08.09-.51-.88-.04-.34.27-1.01c-.02.05.37-.12 0-.06-.26.04-.64.36-.89.48-.54.27-1.1.51-1.63.79-1.47.79-2.7 2.15-3.73 3.45-2.48 3.13-4.11 6.88-4.76 10.82-.77 4.67-.36 9.42.78 14.01.98 3.96 2.26 8.19 5.76 10.65v-3.45c-8.14 3.64-17.94 4.2-26.01.06-6.36-3.26-11.07-8.95-12.22-16.08-1.91-11.78 6.08-24.59 17.98-26.91 4.23-.82 8.87-.22 12.96 1.01 2.36.71 4.68 1.54 6.77 2.86 1.96 1.24 3.43 3.04 5.2 4.52 1.96 1.65 4.8-1.17 2.83-2.83Z"/><path d="M42.92 139.48c-.43 2.31-3.29 3.45-5.32 3.97-.94.24-1.35 1.05-1.47 1.93-.15 1.14-1.18 2.89-2.52 2.8-1-.07-1.67-1.45-1.22-2.31.7-1.34-.16-2.99-1.73-3.01-1.28-.02-1.52-.03-2.82-.4-.85-.24-2.23-.7-2.4-1.72s.94-2.09 1.83-2.39c1.38-.47 3.04.11 4.42.33 1.07.17 2.15-.27 2.46-1.4.27-.97-.33-2.26-1.4-2.46-2.44-.45-5.61-1.98-6.54-4.46-1.06-2.85 3.17-5.24 5.54-4.61 1.37.36 3-.98 2.46-2.46l-.33-.88v1.06c.19-1.18.35-3.6 2.02-3.51 1.52.08 1.82 1.84 1.22 2.96-.84 1.55.54 3.35 2.26 2.94 1.31-.31 2.84.18 3.31 1.54.44 1.28-.28 2.58-1.67 2.67-2.34.15-2.6 3.1-.53 3.93 2.37.95 2.63 3.85 2.36 6.03-.13 1.07 1.01 2 2 2 1.19 0 1.87-.92 2-2 .51-4.22-1.24-8.25-5.3-9.88l-.53 3.93c3.81-.25 6.53-3.57 5.62-7.39-.88-3.72-4.77-5.53-8.32-4.68l2.26 2.94c2.08-3.86-.19-9.19-4.99-8.97-3.88.18-6.52 4.89-5.23 8.4l2.46-2.46c-4.88-1.3-11.37 2.87-10.71 8.31.55 4.49 5.45 7.71 9.59 8.48l1.06-3.86c-2.58-.4-5.16-1.11-7.64.12-2.07 1.02-3.69 3.26-3.69 5.62 0 4.68 5.44 6.26 9.24 6.32-.58-1-1.15-2.01-1.73-3.01-1.66 3.17.09 7.46 3.71 8.21 4.13.86 7-3.06 7.49-6.68-.49.64-.98 1.29-1.47 1.93 3.34-.86 7.43-3.05 8.11-6.77.46-2.52-3.39-3.6-3.86-1.06Z"/><path d="M31.65 131.29c.73.83 2.04.94 3.06 1.16.93.21 1.86.44 2.78.68s1.83.57 2.74.88c.42.14.83.28 1.25.43.07.02.72.3.4.15.22.11.44.23.66.34.83.41 1.78.28 2.37-.47.55-.71.52-1.77-.14-2.41-1.57-1.51-3.88-2.09-5.96-2.51-1.1-.22-2.21-.38-3.33-.44-.5-.03-1-.03-1.51-.05-.59-.03-1.14-.12-1.72.02-1.04.24-1.22 1.51-.59 2.23Zm5.61 5.5c-.7-.36-1.39-.73-2.08-1.1-.82-.44-1.72-.75-2.61-1.01-.38-.11-.76-.18-1.15-.24-.34-.05-.67-.09-1.01-.14-.44-.06.43.06-.13-.02-1.09-.16-2.31-.78-3.33-.1-.75.5-1.04 1.27-.87 2.14.27 1.34 1.71 1.74 2.87 1.94.78.13 1.58.24 2.36.36.79.12 1.56.33 2.35.45s1.62.3 2.42.49c.74.18 1.49-.17 1.79-.88.28-.66.05-1.54-.62-1.89Zm16.41-11.69c1.77 1.98 3.72 5.04 6.76 4.78.7-.06 1.38-.24 2.03-.49.59-.23 1.17-.6 1.81-.68 1.12-.14 2.29.56 3.3.93 2.65.95 5.01.38 7.25-1.26 1.09-.8 1.78-1.85 1.73-3.26-.05-1.59-1.1-2.96-2.74-3.07l1.89 1.89c-.03-1.07.26-2.01.06-3.1-.25-1.4-2.32-.98-2.38.32-.03.59-.2.98-.56 1.44l.56-.56-.07.07c-1.08.35-1.85 1.72-1.13 2.77.18.26.6.62.63.77.03.12.04.05-.07.31-.3.67-1.14 1-1.84 1.15-1.72.37-3.47-.92-5.07-1.39-.87-.26-1.74-.4-2.65-.3-.95.1-1.83.47-2.76.61-.7.1-1.17-.36-1.67-.79-.94-.8-1.87-1.62-2.8-2.43-1.57-1.36-3.69.73-2.29 2.29Zm-4.79 11.48c1.39 1.48 2.74 2.79 4.7 3.47.1.03.19.07.29.1 0 0 .3.12.15.05.05.02.45.22.27.13.3.16-.04.1.05-.08 0 0-.04.38-.05.52-.05 1.08.47 2.13 1.26 2.85.7.63 1.49.98 2.34 1.36.37.17.72.35 1.07.58.05.03.05.05.08.09.04.07.09.14.12.21-.1-.23.09.18 0 0-.06-.11.01.03 0 .09.01-.1.09-.15.01-.06-.15.17.13-.14.12-.17 0-.05.23.04-.04.01-.07 0-.2.05-.28.07-.2.04-.41.06-.62.08-.97.11-1.9.06-2.84-.2-1.07-.29-2.11-.75-3.15-1.14-.56-.21-1.13-.39-1.7-.59-.43-.15-1.09-.39-1.31-.51l.55.55-.05-.07v1.49l.03-.06c.52-.93-.13-2.18-1.24-2.16h-.07c-.71.01-1.17.46-1.43 1.09-.3.75.14 1.66.81 2.03.6.34 1.32.52 1.96.78 1.14.47 2.27.98 3.47 1.28s2.5.55 3.77.71 2.65.1 3.77-.54c1.18-.68 1.65-2.1 1.32-3.39-.3-1.16-1.15-2.05-2.16-2.64-.43-.25-.9-.44-1.35-.66s-.74-.38-1-.67c.13.14-.18-.41-.09-.16.07.21 0 .04 0-.06-.01.21.01-.1.01-.12.1-.85.08-1.6-.4-2.35s-1.13-1.15-1.9-1.47c-.28-.11-.57-.21-.86-.3-.31-.1-.41-.13-.61-.22-1.11-.55-1.9-1.26-2.78-2.14-1.44-1.43-3.61.75-2.22 2.22m18.16 8.23c.86-.04 1.71-.07 2.57-.11.41-.02.82-.06 1.23-.04 0 0 .29.04.16 0l.13.08c-.1-.08-.09-.06.05.06.51.55 1.07 1.03 1.74 1.39.28.14.56.27.83.43.01 0 .4.25.2.11.14.11.28.22.43.33-.19-.24-.24-.26-.13-.05l-.19-.69c.46-.6.54-.77.23-.51-.09.07-.18.14-.28.2-.19.14-.37.27-.57.39-.28.18-.59.37-.9.51-.81.36-1.62.19-2.47.27-.76.07-1.46.14-2.14 0-.34-.07-.7-.17-1.02-.3-.14-.06-.6-.38-.87-.5-.53-.23-1.12-.23-1.55.2-.38.38-.53 1.09-.2 1.55 1.01 1.42 2.89 1.55 4.37 1.69.78.07 1.54.23 2.33.13.92-.11 1.79-.32 2.63-.71.7-.32 1.34-.77 1.96-1.22.32-.22.62-.44.85-.76.43-.58.44-1.33.13-1.97-.39-.8-1.16-1.22-1.92-1.59-.14-.07-.28-.14-.41-.21-.05-.03-.42-.26-.27-.15-.28-.22-.5-.52-.77-.76-.87-.78-1.84-.94-2.97-.87-1.05.06-2.11.13-3.16.2-.78.05-1.45.63-1.45 1.45 0 .76.67 1.49 1.45 1.45Zm13.06 2.14c1.84 0 1.84-2.86 0-2.86s-1.84 2.86 0 2.86m-.43-16.36c-.8.86-1.55 1.76-2.26 2.7-.7.92-1.29 1.92-.95 3.12.32 1.14 1.41 1.95 2.54 2.17.54.11 1.08.11 1.63.09.07 0 .77-.05.78 0 .02.12-.44-.39-.15.01.59.81 1.68 1.19 2.62 1.4 1.21.28 2.47.48 3.7.21 1.05-.23 2.02-.89 2.58-1.81s.65-2.04.65-3.1c0-.81-.7-1.51-1.51-1.51-.87 0-1.44.69-1.51 1.51-.04.46-.07 1.23-.33 1.52.14-.16-.19.2-.01.05-.03.03-.42.24-.22.15-.13.06-.27.09-.41.12-.11.02-.11.02 0 .01-.09 0-.19.01-.28.02-.72.02-1.45-.16-2.15-.34-.42-.11-.44-.07-.72-.29.16.13-.15-.2-.15-.19-.17-.18-.33-.33-.54-.47-.75-.5-1.59-.48-2.45-.45-.28.01-.67.04-.89 0-.03 0-.45-.14-.22-.06-.16-.1-.18-.11-.07-.03l-.11-.11a.3.3 0 0 1 .11.14v.29s.13-.3.14-.32c.2-.35.46-.67.7-.99.47-.63.98-1.23 1.5-1.82s.57-1.45 0-2.02c-.53-.53-1.5-.57-2.02 0"/><path d="M87.38 130.56c-.61-.33-1.21-.65-1.82-.99-.33-.18-.69-.22-1.05-.14-.23.06-.43.18-.6.35-.13.12-.23.27-.28.44-.09.16-.12.34-.12.53s.03.36.12.53c.06.17.15.32.28.44.17.17.37.29.6.35.64.24 1.28.48 1.92.73.16.05.33.06.49.02.16 0 .32-.06.46-.15l.25-.19c.12-.11.2-.24.25-.39.06-.1.08-.2.08-.31.04-.16.03-.33-.02-.49-.1-.3-.28-.58-.56-.73m.11 15.69c.64-.03 1.27-.05 1.91-.08.48-.02.96-.08 1.39-.33s.67-.58.95-.96c.2-.27-.21.23.01 0 .03-.03.09-.12.14-.13-.02 0-.31.21-.13.1.07-.04.41-.21.16-.1s.11-.03.18-.04c.03 0 .13-.01.15-.03-.04.04-.43.04-.14.03.08 0 .43.03.14-.01s.1.03.18.04c.23.04.46.04.69.06.55.05 1.09-.4 1.29-.87.22-.53.1-1.12-.29-1.54-1.16-1.23-3.18-.82-4.36.15-.27.22-.47.49-.67.77-.13.18.09-.09.09-.11 0 .04-.11.12-.14.15-.06.05-.04.04.06-.05.08-.08.18-.13.29-.16-.2.07.08 0 .14 0-.32.07-.69.07-1.02.1l-1.03.1c-.4.04-.74.14-1.03.43-.25.25-.44.67-.43 1.03.03.76.64 1.5 1.46 1.46Zm-15.34 17.87c.75-.55 1.33-1.23 1.64-2.12.23-.69.21-1.57.67-2.15 1.12-1.42 3.46-1.5 5.05-1.97 1.04-.31 2.05-.74 2.93-1.39.82-.61 1.53-1.37 2.57-1.58 1.99-.4 3.81.46 5.17 1.87 1.66 1.72 4.34-.95 2.63-2.63-1.8-1.78-4.28-2.82-6.8-2.99-1.38-.09-2.79.18-3.97.93-.94.6-1.7 1.47-2.74 1.91-1.12.48-2.37.6-3.52.97s-2.16.86-3.06 1.59-1.52 1.67-1.79 2.75c-.14.58-.16 1.17-.16 1.76 0 .36.11.89-.12 1.08-1.09.9.37 2.82 1.52 1.98Zm38.4-17.24c7.07.53 15.31-1.77 19.91-7.47 2.26-2.8 3.46-6.39 2.76-9.98-.64-3.26-3.13-6.05-6.33-6.97-3.22-.92-6.6.46-8.35 3.3-1.73 2.8-1.12 6.3 1.27 8.5 2.46 2.27 6.04 3.23 9.26 3.78 3.7.63 7.46.52 10.89-1.13 3.16-1.52 5.75-4.45 6.24-7.99s-.91-6.95-3.91-8.79c-.62 1.06-1.24 2.12-1.86 3.19 4.26 2.06 9.13 2.22 13.45.23 3.67-1.69 7.16-5.25 7.8-9.36.26-1.65-1.98-2.93-2.9-1.22-1.57 2.9-3.3 5.51-6.32 7.06s-7.03 1.58-10.18.11c-2.12-.99-3.93 1.95-1.86 3.19 1.67 1 2.41 2.98 2.24 4.87-.19 2.14-1.64 3.9-3.42 5-4.26 2.63-10.4 1.78-14.78-.21-1.68-.76-3.7-2.17-3.25-4.29.43-2.03 2.56-3.24 4.53-2.78 2.23.53 3.77 2.57 4.06 4.78.32 2.47-.74 5.01-2.34 6.84-4.06 4.65-10.92 6.6-16.91 6.38-1.92-.07-1.89 2.83 0 2.97Z"/></svg>