<?xml version="1.0" encoding="UTF-8"?><svg xmlns="http://www.w3.org/2000/svg" viewBox="0 0 180 180"><path d="M129.76 8.97c-17.44.76-34.91 3.04-51.88 7.13-17.11 4.13-33.76 10.04-49.72 17.45-3.64 1.69-7.25 3.42-10.91 5.05-3.17 1.41-6.71 2.99-8.96 5.73-.64.78-1.03 2.01-.38 2.94 5.86 8.29 13.8 14.73 21.64 21.06.85.69 1.89.93 2.89.37 12.41-6.93 25.22-12.93 38.71-17.46 13.51-4.54 27.37-7.75 41.49-9.64 7.81-1.04 15.68-1.66 23.55-1.91l-2.35-2.35c-.83 7.12-1.57 14.25-2.31 21.38-.18 1.74-.37 3.48-.56 5.22-.07.63-.1 1.28-.23 1.9-.15.76-.23.87-.96 1.04-3.3.74-6.76.99-10.12 1.36-7.2.8-14.38 1.62-21.44 3.3-6.74 1.6-13.34 3.79-19.77 6.37-6.51 2.61-12.85 5.61-19.04 8.9-1.47.78-2.93 1.58-4.38 2.39s-3.12 1.58-3.93 3.17c-1.78 3.52 2.52 6.85 4.62 9.09 5.01 5.37 10.11 10.71 15.44 15.77 1.21 1.15 2.55 2.12 4.3 2.1 1.83-.02 3.28-1.17 4.73-2.15 2.56-1.73 5.22-3.3 7.96-4.72 12.5-6.49 26.75-10 40.85-9.39l-2.48-2.48c.36 7.03-.94 14.01-1.19 21.02 1.25-.72 2.49-1.43 3.74-2.15-1.75-1.03-4.34-1.16-6.32-1.21-2.77-.07-5.62.3-8.32.89-5.39 1.17-10.43 3.62-14.71 7.09-8.27 6.7-14.28 18.7-9.45 29.06s16.97 14.03 27.19 13.47c5.54-.3 11.1-1.91 15.71-5.05 4.27-2.91 7.57-6.96 9.75-11.63 2.17-4.62 3.61-9.9 2.99-15.04-.67-5.49-3.71-10.02-8.82-12.3-1.15-.51-2.51-.33-3.2.84-.58 1-.32 2.68.84 3.2 1.71.76 3.38 1.92 4.38 3.25 1.12 1.5 1.59 2.85 1.96 4.7.67 3.38-.2 7.42-1.49 10.89-1.37 3.67-3.64 7.31-6.63 10.04-3.42 3.12-7.77 5-12.29 5.81-8.36 1.51-18.96-.71-24.36-7.74-5.74-7.46-1.77-17.3 4.17-23.47 3.58-3.71 8.11-6.36 13.06-7.79a32.3 32.3 0 0 1 7.81-1.24c1.03-.04 2.03 0 3.05.11.35.04.87.11 1.38.22.17.03.34.08.51.11.15.04.29.08.43.12-.3-.15-.35-.16-.14-.05 1.67.99 3.67-.29 3.74-2.15.27-7.01 1.55-13.99 1.17-21.02-.07-1.38-1.08-2.42-2.48-2.48-12.45-.51-25.04 2.09-36.5 6.89-5.72 2.4-10.97 5.4-16.16 8.79-.33.22-.68.54-1.02.48-.43-.08-1.04-.97-1.33-1.25-1.39-1.36-2.76-2.72-4.14-4.1-2.51-2.52-5-5.06-7.46-7.63a278 278 0 0 1-3.33-3.53l-1.98-2.13c-.16-.18-1.36-1.62-1.43-1.59l-.13.52c-.26.24-.22.23.13-.02.23-.11.48-.28.69-.4.79-.45 1.57-.89 2.37-1.33 1.46-.81 2.92-1.6 4.4-2.38 5.96-3.15 12.07-6.03 18.35-8.49 6.3-2.47 12.77-4.55 19.38-6.06s13.47-2.24 20.27-3.04c2.12-.25 4.23-.51 6.34-.81 1.72-.25 3.71-.33 5.27-1.19s2.38-2.38 2.68-4.08c.35-2.03.49-4.11.72-6.16.85-7.75 1.59-15.51 2.43-23.26.13-1.23-1.18-2.39-2.35-2.35-28.9 1.15-57.67 7.86-84.28 19.11-7.45 3.15-14.8 6.54-21.87 10.47.96.12 1.93.25 2.89.37-7.46-6.05-15.25-12.21-20.83-20.13-.13.98-.25 1.96-.38 2.94 1.85-2.24 4.73-3.49 7.33-4.65 3.01-1.36 6.01-2.72 8.99-4.14 7.66-3.67 15.49-6.97 23.47-9.88 16.03-5.85 32.63-10.26 49.44-13.19 9.54-1.66 19.16-2.72 28.82-3.27 2.34-.13 2.36-3.76 0-3.66Z"/><path d="M120.69 120.17c-4.02.18-7.98 1.07-11.84 2.19-10.47 3.05-20.53 8.03-28.52 15.45-7.99 7.43-12.88 15.71-14.22 26.54 20.11 6.21 47.88 6.62 59.97.24-8.54 2.74-17.26 3.79-25.6.5-2.3-.91-4.58-2.09-6.15-4-2.07-2.52-2.61-5.92-3.03-9.16-.55-4.16-1.03-8.39-.32-12.52s2.78-8.21 6.33-10.43"/><path d="M120.69 118.68c-5.57.11-11.08 1.37-16.36 3.08-4.95 1.6-9.78 3.72-14.3 6.3-8.53 4.86-16.33 11.83-21.12 20.48-2.66 4.8-3.97 9.87-5.04 15.2-.27 1.32.38 2.4 1.63 2.87 4.04 1.51 8.46 2.35 12.7 3.07 4.53.76 9.1 1.29 13.68 1.56 8.25.49 16.68.26 24.79-1.39 3.6-.73 7.19-1.76 10.46-3.46 2.06-1.07.64-4.48-1.59-3.77-8.2 2.6-17.44 3.75-25.5-.01-1.64-.77-3.27-1.73-4.35-3.23-1.08-1.51-1.56-3.35-1.9-5.15-.81-4.25-1.34-8.8-.92-13.12.39-3.93 2.07-8.1 5.46-10.34 2.17-1.44.17-4.94-2.06-3.52-8.83 5.61-8.21 16.82-6.96 25.89.64 4.66 2.02 8.95 6.04 11.76 4.03 2.81 9.34 4.07 14.18 4.35 5.8.34 11.59-.89 17.09-2.63-.53-1.26-1.06-2.51-1.59-3.77-5.74 2.99-12.74 3.74-19.17 4.04-8.42.4-16.92-.19-25.23-1.59-4.71-.8-9.27-2.04-13.91-3.15l1.71 2.25c.47-8.59 5.32-16.71 11.18-22.75 6.69-6.91 15.01-12.02 23.97-15.44 5.48-2.09 11.23-4 17.1-4.5 1.88-.16 1.95-3.02 0-2.98Z"/><path d="M135.89 125.79c6.29-.16 12.54 1.53 18.24 4.21 5.7 2.67 10.9 6.31 15.87 10.18-10.33 10.8-23.78 18.17-37.72 23.54-4.58 1.76-9.31 3.34-14.22 3.6a62.8 62.8 0 0 0 15.56-6.49c2.41-1.41 4.74-3 6.69-5 3.47-3.56 5.61-8.38 5.92-13.34s-1.22-10.01-4.22-13.97"/><path d="M135.89 127.49c12.36.21 23.14 6.79 32.59 14.21v-3.05c-5.16 5.2-11.04 9.71-17.28 13.53-6.27 3.84-13 7.23-19.84 9.92-4.26 1.67-8.7 3.1-13.3 3.36.16 1.2.33 2.41.49 3.61 7.59-2.04 15.4-5.36 21.5-10.41 5.66-4.69 8.86-12.15 8.16-19.5-.4-4.22-1.88-8.29-4.4-11.72-.67-.91-1.82-1.36-2.86-.75-.89.52-1.43 1.96-.75 2.86 5.08 6.76 5.31 15.82.47 22.78-2.47 3.56-6.24 5.95-9.98 7.97-4.16 2.25-8.55 3.97-13.11 5.21-1.95.53-1.63 3.74.49 3.61 4.26-.27 8.32-1.38 12.32-2.8 3.75-1.32 7.52-2.66 11.15-4.28 7.08-3.14 13.96-6.89 20.16-11.54 3.54-2.66 6.81-5.6 9.83-8.83 1.04-1.11.68-2.53-.44-3.38-10.1-7.76-21.97-14.94-35.2-14.22-2.17.12-2.2 3.35 0 3.39Zm-61.69-8.91c2.83 3.1 5.91 5.97 8.78 9.03 1.41 1.51 2.8 3.05 4.15 4.62q.99 1.14 1.95 2.31c.74.89 1.39 1.84 2.38 2.46 1.17.74 2.9-.5 2.42-1.86-.39-1.11-1.13-1.93-1.87-2.83-.68-.82-1.36-1.63-2.06-2.44a135 135 0 0 0-4.38-4.87c-2.95-3.14-6.05-6.28-9.5-8.87-1.47-1.1-3.02 1.2-1.88 2.44Zm11.49-5.63c.46 1.38 1.7 2.55 2.57 3.7s1.8 2.43 2.68 3.66 1.69 2.41 2.51 3.63l1.17 1.8c.52.82.97 1.81 2 2.03.84.18 1.76-.24 1.98-1.12.27-1.06-.26-1.78-.8-2.62a108 108 0 0 0-3.84-5.62 94 94 0 0 0-4.27-5.39c-.53-.63-1.08-1.35-1.81-1.74-1.08-.58-2.61.39-2.18 1.68Zm10.49-5.81c.46 1.61 1.33 3.12 2.14 4.58.8 1.44 1.64 2.85 2.56 4.22s1.87 2.67 2.86 3.96c.52.67 1.05 1.34 1.59 2 .6.73 1.18 1.65 2.15 1.86s2.11-.45 2.03-1.54-.7-1.63-1.33-2.39c-.53-.63-1.05-1.27-1.55-1.92-.95-1.21-1.85-2.47-2.71-3.75-.87-1.29-1.72-2.59-2.53-3.92-.85-1.4-1.57-2.91-2.55-4.22-.43-.58-1.1-.91-1.81-.59-.65.29-1.04 1-.84 1.71Zm12-4.17c-.32 1.82.55 3.27 1.38 4.82.79 1.47 1.6 2.93 2.42 4.39.82 1.45 1.64 2.91 2.48 4.36.88 1.52 1.66 3.2 2.71 4.61 1.36 1.83 3.94.31 3.04-1.77-.61-1.41-1.54-2.74-2.32-4.06q-1.215-2.1-2.46-4.17c-.8-1.34-1.58-2.69-2.41-4.01-.41-.66-.83-1.32-1.24-1.98-.36-.57-.77-1.09-.73-1.79.11-1.62-2.58-2.02-2.87-.39Zm11.79.69c1.17 2.06 2.31 4.14 3.51 6.18 1.09 1.84 2.12 3.81 3.74 5.25.65.57 1.63.64 2.26 0 .58-.58.66-1.7 0-2.26-1.49-1.29-2.38-3.02-3.42-4.75-1.19-1.97-2.44-3.9-3.67-5.84-.96-1.53-3.32-.16-2.43 1.42ZM29.45 66.78c2.21 1.5 3.93 3.62 5.61 5.68 1.79 2.19 3.63 4.3 5.63 6.29 4.09 4.07 8.52 7.77 12.59 11.85l2.86-2.86c-.47-.43-.97-.82-1.49-1.18-1.5-1.05-3.68 1.07-2.58 2.58.38.52.76 1.01 1.2 1.47 1.8 1.88 4.72-1.02 2.86-2.86-4.2-4.16-8.8-7.9-13.05-12.01-3.99-3.86-7.23-8.76-12.02-11.71-1.77-1.09-3.31 1.62-1.62 2.77Zm16.47-7.1c3.11 4.54 6.6 8.75 10.38 12.74 1.84 1.94 3.75 3.82 5.65 5.7l3.08 3.05c1.09 1.07 2.13 2.3 3.41 3.14 1.47.97 3.47-.98 2.46-2.46-.78-1.15-1.87-2.07-2.86-3.04l-3.11-3.05c-1.91-1.87-3.81-3.76-5.69-5.66-3.74-3.79-7.47-7.68-10.59-12.01-1.17-1.63-3.89-.1-2.73 1.59m16.87-6.07c1.28 2.2 2.96 4.21 4.46 6.27s3.07 4.13 4.59 6.21c3.05 4.15 6.07 8.33 9.04 12.53.84 1.19 3.17 1.31 3.47-.45.09-.53.14-1.06.2-1.6.18-1.68-2.44-2.31-3.17-.86-.17.33-.35.65-.49 1h3.28c-3.01-4.28-6.07-8.53-9.2-12.72-1.54-2.06-3.08-4.13-4.67-6.15-1.62-2.06-3.19-4.28-5.06-6.11-1.25-1.23-3.34.34-2.44 1.88Zm15.89-4.9c2.75 4.96 6.24 9.58 9.45 14.24 1.6 2.31 3.19 4.63 4.79 6.94.8 1.16 1.6 2.31 2.39 3.47.69 1 1.43 2.48 2.87 2.3.75-.09 1.55-.48 1.72-1.31.16-.75.02-1.33-.51-1.9s-1.37-.56-2.03-.26l-.08.04c-1.06.48-1.07 2.34 0 2.82l.08.04-.83-1.45v.13c.27-.5.56-1 .84-1.5l-.1.06h1.8c.42.3.37.43.07-.07-.17-.28-.38-.55-.56-.82l-1.13-1.63c-.75-1.09-1.51-2.18-2.26-3.26l-4.66-6.73c-3.03-4.38-5.96-8.94-9.4-13.01-1.18-1.4-3.31.39-2.47 1.9Zm15.42-4.46c1.36 2.39 3.11 4.58 4.67 6.85 1.61 2.35 3.22 4.7 4.79 7.07q2.295 3.465 4.5 6.99c.68 1.08 1.37 2.16 2 3.26.68 1.2 1.17 2.49 1.84 3.69.77 1.38 3.41.87 3.17-.86-.36-2.7-2.01-5.09-3.43-7.36-1.55-2.49-3.16-4.94-4.8-7.37-1.59-2.37-3.23-4.7-4.92-7-1.75-2.38-3.46-4.93-5.53-7.05-1.18-1.2-3.13.33-2.31 1.78Zm16.41-3.75c3.2 4.62 6.38 9.25 9.64 13.82 1.47 2.06 2.92 4.15 4.21 6.33.64 1.09 1.25 2.19 1.8 3.33s.91 2.56 1.81 3.52c1.03 1.09 2.77.21 2.83-1.17.05-1.25-.66-2.49-1.18-3.6-.57-1.21-1.2-2.39-1.88-3.54-1.32-2.25-2.81-4.4-4.34-6.52-3.33-4.64-6.83-9.15-10.28-13.71-1.15-1.53-3.77-.1-2.63 1.54Zm15.13-1.22c2.03 3.2 4.54 6.08 7.12 8.84.58.62 1.7.63 2.28 0 .6-.66.62-1.62 0-2.28-2.51-2.66-4.81-5.5-7.2-8.26-.46-.53-1.32-.51-1.84-.11s-.74 1.21-.36 1.8Z"/></svg>