<?xml version="1.0" encoding="UTF-8"?><svg xmlns="http://www.w3.org/2000/svg" viewBox="0 0 180 180"><path d="M117.46 87.43c-3.37-6.9-7.37-14.62-5.96-22.56.29-1.62.74-3.68 1.81-4.98 1.06-1.3 2.17.49 2.49 1.49 1.24 3.88 1.08 8.37.71 12.37-.46 4.94-1.61 9.78-2.72 14.61-.53 2.31 2.94 3.29 3.57.98 2.25-8.23 4.64-17.1 10.29-23.74 1-1.18 2.78-3.1 4.53-2.68 1.69.4 1.82 2.63 1.44 3.98-.59 2.1-2.07 3.98-3.32 5.73-1.27 1.78-2.63 3.5-4.06 5.15-3.31 3.8-7.02 7.21-11.01 10.27-.86.66-1.25 1.64-.7 2.67.86 1.59-1.28 3.24-2.43 3.94-1.96 1.19-4.14 2.13-5.49 4.08-.62.9-1.01 1.98-.95 3.09.07 1.29.81 2.07 1.51 3.07.95 1.36.68 3.37-.7 4.34-1.54 1.09-.1 3.64 1.5 2.56 1.87-1.26 3.01-3.41 2.91-5.68-.05-1.1-.37-2.16-.97-3.08-.29-.44-.79-.89-.69-1.45s.76-1.08 1.17-1.42c1.97-1.6 4.53-2.33 6.24-4.28s2.55-4.66 1.28-7.14c-.23.89-.47 1.78-.7 2.67 4.33-3.17 8.27-6.86 11.75-10.93 1.72-2.01 3.35-4.12 4.85-6.31 1.44-2.09 3.04-4.35 3.52-6.9.43-2.29-.04-4.8-1.73-6.49-1.85-1.85-4.6-1.9-6.84-.79-2.21 1.1-3.81 3.07-5.25 5.02-1.55 2.1-2.85 4.38-3.97 6.74-2.51 5.31-4.14 10.97-5.74 16.6 1.19.33 2.38.66 3.57.98 1.24-5.14 2.41-10.32 2.91-15.59.24-2.6.31-5.22.09-7.82-.2-2.36-.44-4.94-1.53-7.08-.98-1.95-3.03-3.4-5.26-3.17s-3.61 2.14-4.45 4.1c-1.91 4.42-1.98 9.35-.96 14 1.2 5.47 3.92 10.37 6.68 15.18.98 1.71 3.46.21 2.62-1.53Z"/><path d="M115.23 90.32c1.61.3 2.33 1.72 2.65 3.2.29 1.31.65 3.39-.04 4.63-.36.65-1.1 1.04-1.59 1.59-.67.76-1.1 1.68-1.16 2.7-.11 1.91 1.26 3.81 2.62 5.01 1.13.99 2.81-.24 2.09-1.61-.42-.8-.99-1.62-1.15-2.53-.14-.79.1-1.12.68-1.64 1.57-1.41 2.32-3 2.35-5.13.05-3.71-1.27-8.76-5.57-9.48-.89-.15-1.81.23-2.07 1.17-.22.82.28 1.9 1.17 2.07Z"/><path d="M107.49 63.64c-9.2.43-18.15 2.26-26.64 5.85-4.19 1.77-8.22 3.88-12.03 6.36-3.91 2.55-7.42 5.29-8.62 10.03-.55 2.15-.6 4.4-.63 6.61-.04 2.5-.04 5-.02 7.5.05 5.15.16 10.29.93 15.39 1.32 8.78 9.29 14.45 16.59 18.37 15.05 8.08 32.77 9.55 49.45 7.09 8.54-1.26 17.07-3.5 24.82-7.37 3.94-1.97 7.65-4.4 10.96-7.3 3.24-2.83 6.52-6.26 7.87-10.43.72-2.24.82-4.66.95-6.99s.21-4.61.25-6.91c.07-4.69.34-9.56-.25-14.22-.56-4.46-2.51-8.36-5.69-11.54-3.25-3.25-7.22-5.22-11.46-6.88-2.26-.88-4.56-1.63-6.86-2.38-2.17-.7-3.08 2.68-.94 3.41 7.42 2.53 16.35 5.73 19.84 13.45 1.8 3.98 1.35 8.66 1.34 12.91 0 4.21-.06 8.43-.34 12.63-.14 2.07-.26 4.22-1.11 6.15-.81 1.84-2.13 3.41-3.5 4.85-2.74 2.89-5.88 5.32-9.29 7.37-6.88 4.12-14.58 6.57-22.41 8.16-15.13 3.07-31.29 2.69-45.76-3.02-3.55-1.4-6.93-3.2-10.14-5.25-3.22-2.06-6.39-4.39-8.78-7.41-2.86-3.6-2.32-8.1-2.4-12.39-.09-4.86-.21-9.72-.13-14.58.06-3.82.43-7.98 3.39-10.73 3-2.79 6.95-4.86 10.55-6.76 7.38-3.89 15.63-6.78 23.86-8.21 2.06-.36 4.13-.62 6.21-.8 1.87-.17 1.93-3.06 0-2.97Z"/><path d="M61.01 91.01c-.39 4.37.56 8.79 2.92 12.51 2.51 3.95 6.48 6.85 10.44 9.24 8.07 4.86 17.18 7.28 26.47 8.33 9.43 1.07 19.11.83 28.43-1.05 9.22-1.86 18.13-5.4 26.25-10.13 4.4-2.57 8.54-5.72 11.5-9.92 1.45-2.06 2.64-4.42 3.22-6.89s.45-4.98.05-7.45c-.26-1.6-3.02-1.25-2.85.39.41 3.9-1.27 8.04-3.41 11.25-2.3 3.46-5.57 6.1-9.06 8.28-7.3 4.56-15.32 8.18-23.73 10.06-8.54 1.91-17.3 2.52-26.03 1.92-8.48-.58-17.07-2.19-24.82-5.8-4.38-2.04-8.81-4.65-12.11-8.23-3.1-3.35-4.77-7.97-4.57-12.52.08-1.74-2.52-1.69-2.67 0Z"/><path d="M66.1 126.06c-.19 6.26-.29 12.51-.26 18.77.01 2.86-.06 5.85 1.04 8.55.93 2.29 2.54 4.2 4.44 5.74 4.23 3.43 9.45 5.91 14.46 7.96 5.33 2.18 11.01 3.39 16.7 4.17 11.49 1.57 23.23 1.02 34.5-1.74 5.3-1.29 10.63-3.01 15.62-5.24 4.69-2.1 9.04-5.21 11.41-9.89 5.32-10.48 1.03-22.5 3.03-33.58.44-2.43-3.1-3.5-3.77-1.04-2.51 9.29.74 19.11-1.51 28.42-1.1 4.56-3.63 8.05-7.64 10.5-4.24 2.58-9.18 4.11-13.91 5.53-10.34 3.11-21.21 4.21-31.98 3.4-5.3-.4-10.6-1.27-15.72-2.7-5.24-1.46-10.18-3.83-14.89-6.52-2.12-1.21-4.32-2.52-5.9-4.44-1.81-2.2-1.96-4.91-2.05-7.64-.22-6.75-.25-13.5-.38-20.25-.04-2.06-3.14-2.06-3.2 0Zm7.86-16.52c7.2-3.39 14.35-6.85 21.69-9.93 3.62-1.52 7.26-2.98 10.91-4.42 1.79-.71 3.58-1.4 5.38-2.09l2.7-1.02c.53-.2 1.05-.38 1.58-.59.6-.23.9-.57 1.41-.91 1.16-.77.88-3.15-.79-2.93-.57.07-1.07-.02-1.63.15-.46.14-.9.35-1.35.52-.97.38-1.94.75-2.91 1.14-1.79.71-3.58 1.42-5.36 2.15-3.78 1.55-7.52 3.18-11.25 4.84-7.38 3.3-14.77 6.63-21.93 10.41-1.79.94-.22 3.53 1.57 2.68Z"/><path d="M119.48 89.79c6.83-2.64 13.72-5.2 20.72-7.38 3.5-1.09 7.03-2.09 10.56-3.09 1.69-.48 3.38-.93 5.08-1.39 1.84-.49 3.74-.88 5.43-1.78 1.5-.8.82-3.27-.87-3.22-1.92.06-3.77.69-5.6 1.23-1.68.5-3.36 1.02-5.03 1.55-3.58 1.13-7.12 2.37-10.66 3.63-6.97 2.48-13.88 5.04-20.69 7.92-1.43.6-.4 3.09 1.07 2.53Z"/><path d="M79.61 72.29c9.52 5.01 19.52 9.06 29.09 13.96s18.25 9.83 27.03 15.31c4.99 3.11 9.81 6.46 14.74 9.67 2.06 1.34 3.79-1.84 1.89-3.24-8.37-6.17-17.45-11.56-26.49-16.67-9.17-5.19-18.61-9.86-28.22-14.16-5.62-2.52-11.27-5.08-17.04-7.25-1.39-.52-2.3 1.7-1.01 2.38Zm-8.46 37.21c-.18 3.51-.04 7.04.18 10.55.22 3.48.35 7.02.84 10.47.26 1.85 3.25 1.38 3.22-.44-.05-3.41-.51-6.84-.75-10.24-.24-3.45-.41-6.89-.52-10.35-.06-1.92-2.87-1.91-2.97 0Z"/><path d="M150.35 110.85c.02 3.5-.02 6.99-.06 10.49-.02 1.72-.07 3.43-.14 5.15-.04.89-.08 1.78-.13 2.67-.06 1.04.06 1.69.95 2.35.4.29 1.01.22 1.41 0 1.55-.86 1.15-3.48 1.21-5.02.07-1.72.11-3.43.12-5.15.03-3.5-.14-7.01-.46-10.49-.16-1.83-2.92-1.9-2.91 0Z"/><path d="M70.3 129.44c8.84 6.96 19.66 11.38 30.85 12.58 4.74.51 9.52.45 14.28.19 10.44-.58 20.86-2.18 30.87-5.21 5.97-1.8 11.99-4.25 16.23-8.82-1.75 6.9.57 10.62 0 17.71-.12 1.51-3.7 6.38-4.26 7.79-1.44 3.68-5.5 5.53-9.28 6.67-4.12 1.24-8.34 2.07-12.57 2.86-15.28 2.86-31.38 5.19-46.09.16a48.5 48.5 0 0 1-14.29-7.8c-1.42-1.12-2.82-2.38-3.6-4.01-.8-1.67-.88-3.58-.96-5.43l-.6-15.48"/><path d="M69.31 130.43c9.9 8.17 21.98 12.88 34.79 13.69 7.08.44 14.25-.05 21.28-.9 6.93-.84 13.81-2.14 20.52-4.09 6.54-1.91 13.25-4.51 18.11-9.47-1.16-.68-2.33-1.35-3.49-2.03-.56 2.17-.86 4.4-.79 6.64.07 1.94.36 3.86.55 5.79.1 1.05.17 2.11.19 3.17 0 .58 0 1.16-.03 1.75-.01.23-.03.46-.04.69-.03.68.14-.36-.03.09-.14.37-.03.09 0 .03-.07.13-.13.28-.19.41-.16.31-.32.61-.49.91-.39.68-.8 1.35-1.22 2.02-.68 1.1-1.45 2.18-2 3.35-.78 1.67-1.75 2.85-3.35 3.82-3.79 2.29-8.52 3.12-12.8 4.01-18.48 3.85-39.21 7.44-56.59-2.13-2.22-1.22-4.38-2.61-6.36-4.19-1.9-1.52-3.33-3.07-3.66-5.56-.36-2.8-.29-5.71-.4-8.54-.12-3.08-.25-6.16-.37-9.24-.11-2.62-4.19-2.64-4.09 0 .21 5.65.26 11.34.66 16.98.18 2.54.79 4.85 2.41 6.86 1.46 1.81 3.44 3.22 5.33 4.55 8.41 5.9 18.44 8.76 28.63 9.24 10.52.5 21.03-1.17 31.34-3.07 5.06-.93 10.32-1.8 15.11-3.74 2.02-.82 3.95-1.85 5.53-3.38.71-.68 1.35-1.49 1.83-2.35.27-.47.44-.99.67-1.47-.3.61.18-.27.26-.41.89-1.55 1.91-3.01 2.78-4.56.41-.73.83-1.5 1.08-2.3.33-1.05.29-2.25.29-3.34 0-5.04-1.38-9.89-.23-14.91.44-1.93-2.01-3.65-3.49-2.03-3.88 4.25-9.09 6.51-14.49 8.2-6.3 1.98-12.79 3.37-19.33 4.29-12.8 1.8-26.15 2.38-38.56-1.79a63.9 63.9 0 0 1-17.68-9.18c-1.27-.94-2.92 1.19-1.69 2.2Z"/><path d="M110.86 47.49c-18.92 4.59-37.73 9.6-56.56 14.54-.88.23-1.47 1.07-1.49 1.96-.63 21.96-1.1 43.93-1.63 65.9-.07 3-.14 5.99-.22 8.99-.08 3.16.09 6.33.02 9.49-.03 1.38 1.45 2.02 2.57 1.47 5.71-2.77 12.2-4.31 18.5-4.75 2.29-.16 2.32-3.74 0-3.59-7.15.46-13.77 2.36-20.23 5.4l2.57 1.47c.08-2.75.4-5.49.47-8.24s.15-5.49.22-8.24c.15-5.49.3-10.98.44-16.48.3-10.98.59-21.97.89-32.95.17-6.16.31-12.31.44-18.47l-1.49 1.96c18.79-5.08 37.6-10.09 56.29-15.51 1.88-.55 1.1-3.4-.81-2.94Z"/><path d="M54.08 63.07c-11.61-5.72-24.9-12.52-36.04-19.08-1.06 27.34-.15 55.34-1.06 82.69 11.91 7.23 23.82 14.47 35.72 21.7-.49-15.73-.67-31.46-.53-47.2.11-12.54.43-25.09 1.06-37.62"/><path d="M54.78 61.87C42.89 55.3 30.71 49.23 19 42.33c-1.3-.76-2.83.23-2.89 1.66-.86 21.54-.47 43.1-.7 64.65-.06 6.02-.17 12.03-.38 18.04-.02.69.39 1.33.96 1.67 11.9 7.24 23.75 14.59 35.72 21.71 1.22.73 3.01-.19 2.93-1.68-.59-11.08-.53-22.2-.67-33.28-.13-10.9.06-21.83.35-32.73.17-6.27.41-12.54.72-18.8.12-2.34-3.52-2.34-3.64 0-1.11 21.95-1.36 43.97-1.04 65.94.09 6.29.32 12.58.38 18.88l2.93-1.68c-11.84-7.34-23.82-14.47-35.73-21.69l.96 1.67c.69-21.54.31-43.1.61-64.65.08-6.01.21-12.03.43-18.04l-2.89 1.66c11.74 6.88 23.84 13.19 36.31 18.63 1.6.7 3.01-1.51 1.4-2.4Zm8.19-25.01C57.08 32.3 49.54 26.64 49.3 18.44c-.04-1.56.11-3.62 1.36-4.73 1.09-.97 2.75-.77 3.97-.16 3.27 1.62 4.34 6.26 5.16 9.46 1.23 4.79 1.66 9.72 1.39 14.65-.12 2.16 3.52 2.72 3.84.52.92-6.32 1.91-12.77 3.66-18.91.66-2.31 1.61-5.78 3.96-6.97.75-.38 1.79-.55 2.52-.02.95.69 1.35 2.42 1.63 3.49 1.33 5.11-.2 10.47-3.84 14.23s-8.56 5.98-12.82 8.98c-4.94 3.47-9.24 7.92-9.85 14.19-.19 1.98 3.16 2.45 3.5.47.96-5.63 5.75-9.55 10.31-12.45 5.04-3.21 10.5-6.16 13.94-11.22 3.45-5.06 4.08-11.87 1.74-17.51-1.23-2.95-3.58-4.85-6.9-4.3-2.99.49-5.08 2.95-6.3 5.57-1.64 3.5-2.41 7.31-3.18 11.08-.83 4.09-1.55 8.19-2.15 12.32 1.28.17 2.56.35 3.84.52.29-5.26-.21-10.58-1.51-15.69-1.09-4.29-2.7-9.63-6.95-11.81-1.93-1-4.27-1.38-6.36-.65-2.23.78-3.7 2.67-4.38 4.88-1.43 4.64.2 9.98 2.79 13.89 3.13 4.71 7.71 8 12.28 11.2 1.52 1.07 3.5-1.45 2.01-2.6Z"/><path d="M61.14 54.43c1.73-2.13 3.15-4.52 4.03-7.13.44-1.29.69-2.63.86-3.99.09-.67.14-1.35.15-2.02.02-.82.09-1.78-.4-2.47-.71-1-2.44-1.3-3.08 0-.58 1.19-.22 2.74-.29 4.05-.06 1.19-.24 2.23-.54 3.41-.59 2.35-1.56 4.46-3.03 6.39-.99 1.3 1.24 3.04 2.28 1.76Z"/><path d="M29.87 52c5.78-2.18 11.7-4.07 17.54-6.12 2.85-1 5.69-2 8.55-2.95 1.47-.49 2.94-.97 4.41-1.45s3.23-.81 4.47-1.85.16-3.03-1.28-3.09-3.06.79-4.45 1.3-2.76 1.01-4.14 1.51c-2.92 1.06-5.84 2.1-8.75 3.16-5.76 2.11-11.41 4.48-17.14 6.64-1.77.67-1 3.54.79 2.86Z"/><path d="M64.09 41.72c3.2 2.43 6.44 4.81 9.69 7.17 1.62 1.18 3.25 2.36 4.87 3.55.81.59 1.62 1.18 2.44 1.76.38.27.91.53 1.22.87.13.14.25.46.45.65.65.63 1.86.73 2.5 0l.12-.13c.64-.73.67-1.5.3-2.36s-1.26-1.42-2.01-1.96c-.86-.62-1.73-1.24-2.6-1.86L76 45.84c-3.38-2.38-6.76-4.75-10.18-7.07-.76-.52-1.89-.15-2.33.61-.51.87-.12 1.77.61 2.33Z"/><path d="M83.27 55.5c-.64 2.56-.7 5.26-.82 7.89s-.26 5.19-.11 7.77c.1 1.83 2.68 1.81 2.83 0 .42-5.09.2-10.23.61-15.32.12-1.44-2.16-1.72-2.5-.34ZM18.48 43.85c2.72-1.79 6.18-2.33 9.32-3.02s6.17-1.32 9.26-1.97c3.28-.68 6.56-1.36 9.83-2.06 1.44-.31 2.88-.62 4.32-.95 1.17-.27 2.73-.39 3.7-1.14.95-.73 1.17-2.75-.39-2.98-1.36-.21-2.68.28-4 .59-1.47.34-2.95.67-4.42.99-3.38.74-6.77 1.45-10.15 2.17-3.12.66-6.23 1.32-9.33 2.08-3.33.82-6.88 1.56-9.69 3.64-1.55 1.15-.13 3.75 1.55 2.64Zm61.85-10.19c5.32 2.49 10.58 5.1 15.85 7.72 2.6 1.29 5.19 2.58 7.78 3.9 2.28 1.17 4.89 2.2 6.72 4.04s4.55-.99 2.76-2.76c-1.89-1.87-4.33-2.97-6.68-4.15-2.74-1.38-5.48-2.73-8.24-4.07-5.45-2.63-11-5.06-16.56-7.45-1.86-.8-3.52 1.89-1.62 2.78Z"/><path d="M66.65 41.94c4.18-.94 8.41-1.51 12.64-2.13 2.29-.34 4.6-.64 6.89-.97 1.77-.26 4.2-.18 5.78-1.1 1.2-.7.9-2.49-.38-2.88-1.76-.55-4.12.2-5.89.46-2.38.35-4.75.8-7.12 1.25-4.24.79-8.48 1.68-12.68 2.65-1.77.41-1.02 3.13.75 2.73Zm44.24 6.74-.15 1.14-.08.57c-.03.23-.05.38.03.64l.09.27c.08.23.2.47.37.64l.29.23c.17.11.35.16.54.17q.195.045.39 0c.13 0 .25-.03.37-.1.12-.03.23-.1.32-.19.16-.1.28-.24.37-.41l.15-.24c.18-.31.2-.62.24-.97l.06-.59.13-1.16c0-.22-.04-.42-.13-.6-.06-.19-.17-.36-.32-.5-.14-.15-.31-.26-.5-.32-.19-.1-.39-.14-.6-.13-.4.02-.82.15-1.1.46l-.24.32c-.14.24-.21.51-.21.79Zm14.68-6.59c4.66-.59 8.52-3.52 10.92-7.5 2.84-4.7 3.45-10.37 3.87-15.73.19-2.37-3.45-2.33-3.67 0-.58 5.98 2.1 12.12 6.65 15.99 4.87 4.15 10.91 5.44 17.15 5.13 2.4-.12 2.43-3.72 0-3.76-5.39-.1-11.36 1.23-15.72 4.52-4.06 3.06-6.96 7.94-6.5 13.15 1.28-.17 2.56-.35 3.84-.52-1.03-4.49-2.44-9.49-6.22-12.46-2.2-1.72-4.85-2.33-7.61-2.4-3.22-.08-6.58.07-9.77.58-2.09.33-1.54 3.62.49 3.62 2.8 0 5.6-.3 8.4-.32 2.19-.02 4.42.18 6.18 1.63 2.99 2.45 3.94 6.81 4.75 10.39.48 2.11 4.03 1.7 3.84-.52-.36-4.07 1.87-7.92 5.19-10.2 3.92-2.69 8.51-3.25 13.11-3.71l-.5-3.69c-4.83.72-10.5-1.04-14.16-4.21s-5.94-8.18-5.47-13.22h-3.67c-.48 7.71-2 18.96-11.51 20.33-1.63.23-1.26 3.11.39 2.9ZM20.34 20.86c-.77-2.15-1.87-4.05-3.28-5.84-1.19-1.5-3.51.42-2.6 2.01 1.19 2.07 2.59 4.02 4.07 5.9.64.81 1.33 1.96 2.33 2.36s2.2.03 2.77-.93c.37-.63.32-1.38.63-2.02.33-.68.9-1.22 1.41-1.76 1.21-1.28 2.42-2.6 2.78-4.39.36-1.81-1.59-2.86-2.97-1.73-2.7 2.2-4.55 5.42-5.45 8.76-.27 1 .34 1.92 1.28 2.25 3.75 1.32 8.32.36 11.68 2.72l.93-3.44-6.19-.54c-1.76-.16-3.59-.32-5.22-1.05-1.05-.46-2.44-.17-2.74 1.11-.67 2.81-1.09 5.67-1.29 8.55-.15 2.15 3.09 2.47 3.67.5.93-3.16.99-6.42.3-9.63-.22-1.01-1.38-1.56-2.32-1.32-3.12.81-6.29 1.39-9.5 1.71l.51 3.79c3.17-.59 6.52-1.12 9.5-2.36 2.09-.87 1.31-3.69-.93-3.37-3.23.45-6.39 1.41-9.6 2.01-2.11.39-1.66 4 .51 3.79 3.56-.35 7.05-.98 10.5-1.93-.77-.44-1.55-.88-2.32-1.32.59 2.55.47 5.13-.27 7.63l3.67.5a47 47 0 0 1 1.14-7.56l-2.74 1.11c4.09 1.8 8.9 1.69 13.29 2.06 1.99.17 2.29-2.5.93-3.44-3.74-2.62-8.45-1.61-12.57-3.05.43.75.85 1.5 1.28 2.25.76-2.87 2.32-5.18 4.44-7.21-.99-.58-1.98-1.15-2.97-1.73-.24 1.48-1.48 2.43-2.42 3.5-.53.6-1.05 1.24-1.4 1.96-.19.37-.36.78-.46 1.18-.05.17-.09.36-.1.53-.05.65-.3.1.29-.17l.87-.24-.27-.03.87.24c-.46-.3-.83-.96-1.18-1.39-.48-.59-.95-1.2-1.41-1.82-.87-1.19-1.68-2.42-2.49-3.66-.87.67-1.73 1.34-2.6 2.01 1.13 1.27 2.05 2.73 2.7 4.31.72 1.76 3.6 1.06 2.92-.81Zm-5 113.65c-2.75 6.5-2.34 14.23 1.74 20.12 3.75 5.41 10.36 9.45 17.09 9.17 3.38-.14 6.67-1.58 8.5-4.53 1.7-2.73 1.45-6.34-.77-8.7-2.33-2.48-6.01-2.36-8.52-.24-2.64 2.24-3.03 5.96-1.74 9.03 1.55 3.67 5.04 5.85 8.61 7.25 3.96 1.56 8.69 2.59 12.96 2.42 1.71-.07 1.66-2.46 0-2.62-3.03-.3-6-.6-8.89-1.61-2.54-.89-5.32-2-7.36-3.82-1.69-1.51-3.15-3.99-2.35-6.32.57-1.66 2.74-3.1 4.33-1.83 1.67 1.32 1.32 3.71.04 5.15-1.75 1.96-4.55 2.32-7.03 2-4.65-.59-9.09-3.35-11.78-7.17-3.52-4.99-4.12-11.41-1.88-17.05.68-1.69-2.25-2.95-2.97-1.25ZM93.48 24.83c-.01-.57.03-1.13.08-1.7 0-.11.04-.23.04-.34-.03.23-.04.26 0 .08.01-.07.02-.15.04-.22.05-.26.1-.52.17-.78.13-.51.3-1.02.49-1.51.06-.14.11-.28.17-.42.12-.33-.12.25.02-.04.13-.27.26-.55.39-.82.34-.71.22-1.66-.54-2.06s-1.56-.14-2.06.54c-1.47 2.01-2.05 4.83-1.79 7.28.04.41.14.76.44 1.07.26.26.69.46 1.07.44.8-.04 1.52-.66 1.51-1.51Zm9.21 3.36c.37-.61.75-1.21 1.16-1.8q.3-.435.63-.87c.05-.06.1-.13.14-.19.18-.24-.11.13.01-.01l.33-.42c.44-.54.87-1.08 1.34-1.59.55-.61 1.16-1.17 1.59-1.87.32-.53.24-1.33-.23-1.76s-1.18-.56-1.76-.23c-.72.41-1.27 1.04-1.82 1.65s-1.09 1.25-1.59 1.91c-.89 1.17-1.69 2.4-2.4 3.68-.38.68-.19 1.67.54 2.05s1.62.18 2.05-.54Zm9.64 4.82c.16-.32.35-.62.56-.9l-.23.29c.3-.38.63-.72 1.01-1.01l-.3.23c.3-.23.62-.42.94-.6s.64-.36.98-.51l-.33.14.05-.02c.35-.15.63-.3.83-.64.17-.3.25-.74.14-1.07s-.32-.66-.64-.83l-.33-.14a1.33 1.33 0 0 0-.74 0c-.53.08-1 .23-1.48.47s-.89.57-1.29.91c-.69.6-1.29 1.38-1.67 2.22-.16.36-.25.71-.14 1.11.09.33.35.69.66.86.33.18.74.26 1.11.14.34-.11.69-.33.86-.66Z"/></svg>