<?xml version="1.0" encoding="UTF-8"?><svg xmlns="http://www.w3.org/2000/svg" viewBox="0 0 180 180"><path d="M32.47 168.01c-3.74-1.71-7.8-4.95-7.4-9.53.42-4.82 5.54-5 9.32-4.94 2.29.04 2.78-2.88 1.1-4.05-1.69-1.18-1.56-4.61-1.51-6.4.08-2.55 1.18-4.22 3.68-4.86 1.13-.29 2.29-.39 3.44-.44 1.49-.07 3.09-.2 4.56.15 2.7.65 4.3 3 5.74 5.21 1.11 1.71 3.8.64 3.31-1.39-.64-2.65-1.46-6.31.67-8.51 1.99-2.05 5.49-2.48 8.19-2.29 2.65.19 5.28 1.33 7.1 3.28 2.26 2.42 3.15 5.74 4 8.84.6 2.18 3.52 1.54 3.72-.5.09-.92 1.13-1.68 1.93-1.94 1.08-.35 2.21-.02 3.15.56 2.49 1.53 3.24 4.65 3.7 7.34.18 1.06 1.62 1.86 2.61 1.48 3.94-1.48 8.53.44 9.71 4.62 1.29 4.56-1.86 8.12-5.88 9.77-5.24 2.15-11.22 2.11-16.79 2.3-6.23.21-12.46.35-18.69.53-7.13.2-14.31.19-21.43.7-2.62.19-2.68 4.09 0 4.12 7.13.1 14.3-.31 21.43-.51 7.12-.2 14.24-.39 21.36-.59 6.2-.17 13.11-.44 18.58-3.74 4.91-2.97 7.59-8.72 5.66-14.32-2.1-6.06-9.07-9.29-15.08-6.99l2.61 1.48c-.81-4.51-2.91-9.1-7.56-10.67-4.26-1.44-8.72 1.38-9.11 5.84 1.24-.17 2.48-.34 3.72-.5-1.12-3.92-2.31-8.06-5.21-11.07-2.66-2.76-6.48-4.14-10.26-4.23-3.73-.09-8.25 1.12-10.71 4.1-2.82 3.43-1.92 7.91-.94 11.85l3.31-1.39c-2.01-3.03-4.43-6.08-8.04-7.21-1.95-.61-4.09-.63-6.12-.57-1.77.06-3.57.28-5.23.94-3.84 1.54-5.51 5.01-5.53 9-.02 3.6.5 7.57 3.68 9.76.37-1.35.73-2.7 1.1-4.05-3.02-.03-6.21.07-8.92 1.55s-4.24 4.19-4.49 7.21c-.54 6.51 4.84 10.77 10.25 13.02 1.69.7 2.92-2.2 1.25-2.97Z"/><path d="M79.06 137.5c-2.5-8.7-5.38-17.3-8.42-25.83-3.05-8.55-6.47-16.94-10.53-25.06-1.13-2.25-2.23-4.54-3.51-6.71-.92-1.57-2.47-3.33-1.89-5.26-.29.38-.58.76-.87 1.13 1.04-.54 2.16-1.1 3.35-1.22 1.28-.12 1.85.6 2.42 1.65 1.58 2.88 3.05 5.82 4.62 8.7.45.82 1.33 1.01 2.17.89 4.24-.62 8.47-1.26 12.72-1.83 1.2-.16 1.6-1.76 1.08-2.66-1.6-2.8-3.18-5.62-4.72-8.46-.16-.29-1.02-1.46-.91-1.71-.02.05.11-.05.31-.08 1.29-.24 2.85-.48 4.15-.19 2.3.52 3.01 3.32 3.76 5.22 1.19 3.02 2.38 6.03 3.6 9.04 4.67 11.59 9.53 23.11 14.57 34.54 2.88 6.53 5.82 13.03 8.83 19.5.44.95 1.83 1.2 2.67.7.98-.58 1.15-1.71.7-2.67-5.92-12.8-11.62-25.7-17.05-38.72-2.71-6.51-5.37-13.05-7.96-19.61-1.11-2.8-1.97-6-3.7-8.49-1.87-2.7-4.62-3.67-7.82-3.31-1.57.18-3.41.22-4.59 1.41-1.12 1.12-1.38 2.78-.77 4.21.72 1.72 1.76 3.36 2.66 4.99 1.02 1.84 2.08 3.65 3.16 5.45.36-.89.72-1.78 1.08-2.66-.18.02-.25-.07.27-.04-.13 0-.28.04-.42.05l-1.45.18c-1.47.18-2.94.36-4.41.55s-2.84.37-4.26.55c-.25.03-.51.07-.76.1-.18.02-.36.05-.54.07-.78.1.3-.04-.11.01-.19.02-.38.05-.57.07l1.66.95c-1.5-2.91-3.01-5.84-4.61-8.7-1.43-2.55-3.67-3.87-6.62-3.4-1.18.19-2.29.63-3.37 1.13-.64.29-1.32.57-1.71 1.19s-.48 1.57-.49 2.29c-.02 2.68 1.75 4.86 2.99 7.08 3.11 5.58 5.48 11.67 7.91 17.57 2.41 5.83 4.62 11.75 6.77 17.68 2.49 6.86 4.84 13.77 7.56 20.54.74 1.85 3.66 1.18 3.07-.85Z"/><path d="M100.91 149.16c.38-5.82 5.86-10.49 11.68-8.6 1.39.45 2.86-1.01 2.4-2.4-.9-2.75-1.75-5.67.75-7.82 2-1.72 4.76-2.37 7.34-2.19 5.38.36 9.3 4.89 10.14 10 .16.99 1.33 1.59 2.23 1.46 1.04-.16 1.69-.96 1.76-2 .05-.75 1.25-1.13 1.84-1.25 1.14-.23 2.42.02 3.47.5 2.51 1.16 3.69 3.74 3.48 6.41-.12 1.49 1.93 2.77 3.17 1.82 3.34-2.55 5.52 3.17 5.53 5.67.02 4.05-4.32 5.91-7.68 6.63-4.09.88-8.44.62-12.59.51-4.85-.13-9.7-.32-14.55-.54-5.53-.25-11.06-.55-16.58-1-2.86-.23-2.89 4.33 0 4.48 11.49.61 22.99 1.4 34.51 1.55 4.98.07 10.19.14 14.79-2.05 2.13-1.01 4.09-2.59 5.33-4.61 1.45-2.35 1.6-5.17.99-7.81s-2.1-5.15-4.39-6.57-5.37-1.52-7.49.1c1.06.61 2.11 1.21 3.17 1.82.38-4.79-2.64-9.21-7.18-10.69-3.98-1.29-9.58.16-9.89 5.03l4-.54c-1.25-7.19-7.44-12.92-14.83-12.98-3.6-.03-7.45 1.28-9.97 3.92-3.01 3.15-2.66 7.43-1.12 11.2l2.4-2.4c-3.88-.95-8-.34-11.2 2.14-3.11 2.41-4.88 6.31-4.52 10.24.17 1.91 2.87 1.95 3 0ZM39.26 95.5c-1.33 5.7-6.99 9.15-12.66 7.83-2.59-.6-3.67 3.26-1.1 3.99 5.37 1.53 9.04 6.84 8.19 12.45l4.08.55c.33-2.63 2.27-4.9 4.5-6.19 2.86-1.65 6.25-1.81 9.45-1.4 2.37.31 2.76-3.49.55-4.1-2.92-.81-5.68-2.65-7.38-5.18-1.96-2.92-2.36-6.21-1.78-9.63.38-2.26-2.84-3.25-3.5-.96-2.45 8.49 3.25 17.55 11.55 19.8.18-1.37.37-2.73.55-4.1-4.14-.53-8.65.02-12.19 2.37-3.29 2.18-5.43 5.47-5.92 9.39-.29 2.3 3.73 2.87 4.08.55 1.18-7.86-3.36-15.35-11.09-17.55l-1.1 3.99c7.66 1.77 15.28-3.28 16.49-11.07.27-1.75-2.3-2.56-2.73-.75Zm78.42 8.03c5.68-4.47 4.07-12.17.72-17.52l-3.01 2.32c2.86 2.34 5.83 4.59 9.66 4.88 3.93.3 7.6-1.65 10.96-3.43l-2.36-3.06c-2.48 2.75-4.98 5.74-5.49 9.54-.55 4.06 1.43 7.74 3.44 11.11l3.14-2.43c-2.4-3.03-6.1-4.63-9.87-5.06-4.31-.49-8.56.81-12.45 2.53-1 .44-1.23 1.89-.72 2.76.6 1.03 1.76 1.16 2.76.72 5.63-2.49 13.15-3.54 17.46 1.88 1.43 1.8 4.29-.51 3.14-2.43-1.51-2.53-3.38-5.47-2.98-8.56.37-2.85 2.52-5.22 4.32-7.32 1.4-1.63-.35-4.18-2.36-3.06-2.62 1.47-5.53 3.06-8.62 2.96-2.84-.09-5.22-2.04-7.32-3.75-.74-.6-1.72-.78-2.52-.15-.72.57-1.01 1.65-.49 2.47 2.42 3.86 4.48 9.88.57 13.57-1.37 1.29.62 3.13 2.02 2.02ZM69.1 92.45c4.05-.37 8.08-1 12.14-1.38l-1.74-1.33c.73 3.35 3.71 5.61 4.49 8.89.43-.77.87-1.53 1.3-2.3-4.21 1-8.41 1.99-12.6 3.09l1.86.49c-2.08-2.56-3.08-5.56-3.57-8.78-.3-2.01-3.64-1.54-3.54.48.19 4.03 1.91 7.88 4.41 11 .42.52 1.25.65 1.86.49 4.19-1.08 8.37-2.17 12.58-3.17 1-.24 1.53-1.34 1.3-2.3-.8-3.35-3.67-5.61-4.6-8.86-.28-.99-1.25-1.45-2.22-1.26-4 .8-8.04 1.36-12.03 2.17-1.53.31-1.21 2.91.37 2.76Zm5.85 16.3c2.19-.27 4.36-.64 6.53-1.05 1.02-.19 2.04-.38 3.06-.58 1-.19 2.13-.58 3.15-.5l-.87-.23c-.21-.09 0 .1.06.26.11.29.25.57.37.85.2.45.4.9.61 1.35.46 1 .92 2.01 1.38 3.02.89 1.95 1.72 3.95 2.71 5.85.34-.84.69-1.69 1.03-2.53-4.04.94-8.13 1.68-12.27 2.05-.37.03-.7-.12-.26.24.58.47.13-.07.02-.25-.26-.44-.52-.88-.77-1.33-.47-.84-.94-1.68-1.37-2.55-.88-1.76-1.53-3.6-2.09-5.48-.6-2-3.69-1.16-3.13.86.6 2.19 1.36 4.34 2.22 6.44.45 1.09.92 2.17 1.47 3.22.56 1.06 1.13 2.33 2.41 2.63 1.18.28 2.62-.11 3.81-.27s2.4-.35 3.6-.56c2.45-.44 4.88-.99 7.27-1.68.84-.24 1.53-1.24 1.2-2.12-.86-2.33-1.95-4.58-2.99-6.84-.49-1.06-.97-2.13-1.47-3.18-.5-1.04-.94-2.43-2.04-2.95-1.05-.5-2.25 0-3.31.22-1.19.25-2.39.49-3.58.74-2.38.49-4.77.98-7.12 1.63-1.46.4-1.24 2.94.37 2.75Zm6.62 19.13c4.63-.3 9.14-1.1 13.62-2.28.25-.07.75-.05.2-.23-.48-.16-.2.03-.05.29.28.49.56.99.82 1.49.51.95.99 1.91 1.45 2.88.93 1.97 1.76 3.98 2.48 6.04.43-.76.87-1.52 1.3-2.29-2.76.44-5.53.87-8.29 1.28-1.31.19-2.63.37-3.95.54-.67.09-1.35.17-2.02.25-.46.06-1.34.35-1.79.2l.89.52c-.38-.29-.64-1.43-.86-2.02a52 52 0 0 1-2.4-8.47c-.19-.97-1.36-1.53-2.26-1.28-1.04.29-1.44 1.28-1.28 2.26.43 2.59 1.01 5.14 1.8 7.64.72 2.28 1.43 5.67 4.48 5.37 2.74-.27 5.47-.9 8.19-1.33 2.83-.45 5.65-.91 8.48-1.38.94-.16 1.61-1.41 1.3-2.29-.86-2.41-1.84-4.79-2.97-7.08-.53-1.08-1.1-2.14-1.69-3.18s-1.11-2.14-2.26-2.6-2.31 0-3.45.33c-1.28.36-2.58.69-3.88.97-2.59.57-5.23 1.04-7.86 1.36-.81.1-1.48.62-1.49 1.49 0 .77.69 1.54 1.49 1.49Z"/><path d="M90.2 147.69c.91-.1 1.81-.16 2.72-.3.81-.13 1.63-.28 2.43-.46s1.6-.38 2.39-.6c.22-.06.44-.12.65-.19.32-.09-.13-.04.21-.02.8.03 1.66-.51 2.06-1.16.58-.95 0-2.08-.98-2.41-.87-.3-1.93.14-2.56.76l.72-.42c-1.29.51-2.63.93-3.96 1.3s-2.67.79-4.02 1.06c-.59.12-.97.79-.88 1.35s.59 1.14 1.21 1.07ZM82.74 10.81c-6.4 1.55-12.02 5.6-15.83 10.92-4.33 6.03-6.2 13.64-6.15 21 .03 3.81.7 7.58 2.67 10.89 1.83 3.07 4.43 5.6 7.3 7.7 5.57 4.07 12.47 6.12 19.29 6.58 8.95.61 17.93-1.6 26.25-4.77.91-.35 1.6-1.08 1.6-2.11 0-.9-.67-1.93-1.6-2.11-8.54-1.63-17.94-4.37-23.21-11.86-2.59-3.69-3.59-7.87-3.19-12.35.22-2.41.86-4.79 1.64-7.08.73-2.16 1.61-4.27 2.99-6.11 2.84-3.78 7.09-6.24 11.07-8.62 1.51-.9 1.14-3.13-.48-3.64-5.26-1.66-10.96-1.56-16.14.34-2.06.75-1.25 3.96.92 3.33 4.67-1.37 9.53-1.3 14.16.17l-.48-3.64c-4.06 2.4-8.27 4.93-11.36 8.56-3.37 3.95-5.22 9.25-6.05 14.32-.85 5.18-.35 10.36 2.22 15.01 2.26 4.09 5.81 7.43 9.78 9.84 5.17 3.13 11.08 4.77 16.95 5.93V58.9c-12.31 4.57-26.62 7.29-38.75.67-5.33-2.91-10.19-7.61-11-13.89-.83-6.44.52-13.52 3.57-19.24 3.12-5.85 8.28-10.56 14.73-12.36 2.12-.59 1.23-3.82-.91-3.3Z"/><path d="M70.73 32.99c1.89 0 1.89-2.94 0-2.94s-1.89 2.94 0 2.94m7.16-6.52-.02-.08v-.04s-.02-.01-.02-.02a1 1 0 0 0-.07-.17 1 1 0 0 0-.07-.17c-.12-.21-.29-.37-.5-.5-.22-.12-.45-.19-.7-.19s-.48.06-.7.19c-.21.12-.37.29-.5.5a.5.5 0 0 0-.07.17c-.03.05-.05.11-.07.17v.03s-.01.03-.02.04l-.02.08c-.07.25-.07.51 0 .76.07.24.19.45.37.63l.29.22c.22.13.46.19.72.2.2 0 .38-.03.55-.12.18-.06.33-.16.46-.3.18-.18.3-.39.37-.63.07-.25.07-.51 0-.76Zm-1.6 7.92c1.97 0 1.97-3.06 0-3.06s-1.97 3.06 0 3.06m-1.81 5.51c-1.32.72-2.31 2.1-2.54 3.59-.26 1.64.22 3.3 1.44 4.46 1.25 1.19 2.93 1.62 4.61 1.31.81-.15 1.6-.51 2.3-.95.66-.41 1.32-.9 1.81-1.51.65-.8 1.01-1.72 1.03-2.76.02-.95-.28-2.05-.96-2.73a1.4 1.4 0 0 0-1.83-.11c-.58.45-.65 1.16-.36 1.79.05.11.1.21.16.31.01.02.11.19.03.04s.02.05.03.1c.04.11.05.23.09.34.05.15 0-.06 0-.09 0 .08.01.15.01.23 0 .13-.02.34.02.09-.02.13-.05.27-.09.4-.02.06-.04.11-.06.17 0-.02.11-.21.03-.08l-.21.36c.13-.2-.03.02-.09.09-.1.11-.21.2-.32.3l-.15.12c.02-.02.18-.13.04-.04-.13.08-.25.18-.38.26a7.4 7.4 0 0 1-.97.53c.03-.01.2-.07.04-.02-.15.05-.3.11-.45.15s-.31.07-.46.11c-.17.04.04 0 .06 0-.07 0-.13.01-.2.01h-.41c-.19 0 .09 0 .11.02-.03-.03-.17-.03-.22-.04a2.3 2.3 0 0 1-.37-.11c-.01 0-.15-.06-.16-.06.02-.02.25.13.11.04-.09-.06-.2-.1-.29-.16-.05-.03-.09-.06-.14-.09-.22-.14.05.03.04.04-.03.03-.48-.46-.52-.51-.13-.12.08.08.06.09 0 0-.09-.13-.1-.14-.08-.12-.16-.25-.23-.38 0-.01-.07-.15-.07-.15.02 0 .09.27.05.1-.03-.11-.07-.21-.1-.32-.02-.08-.03-.38-.04-.18s0 .02 0-.02v-.45c.01-.25.02.05-.01.07.03-.01.07-.34.09-.38s.08-.36.13-.37c0 0-.13.26-.01.05.04-.07.07-.13.11-.2.03-.06.23-.37.13-.22l.02-.03c.05-.06.1-.11.15-.17.09-.09.37-.32.12-.14.12-.09.25-.17.38-.24.67-.38.95-1.35.53-2.01s-1.29-.92-2.01-.53Zm6.48 15.77c1.87 0 1.87-2.91 0-2.91s-1.87 2.91 0 2.91m7.12-.07c2.07 0 2.07-3.22 0-3.22s-2.07 3.22 0 3.22m.89 4.78c1.92 0 1.92-2.98 0-2.98s-1.92 2.98 0 2.98"/><path d="M62.93 32.72c-9.23-.29-19-.46-27.02 4.1-1.91 1.09-3.85 2.72-3.94 4.92-.09 2.07 1.52 3.83 3.27 4.94s3.75 1.85 5.28 3.24c.9.81 1.64 2.08 1.16 3.2-.35.84-1.27 1.28-2.12 1.6-2.53.92-5.23 1.36-7.67 2.49s-4.7 3.19-5.03 5.86c-.48 3.91 3.3 7.07 7.03 8.32 2.07.7 4.47 1.24 5.57 3.12.82 1.4.66 3.14 1.08 4.71.62 2.29 2.47 4.05 4.43 5.38 3.86 2.62 8.51 4.08 13.18 4.12-2.96-3.73-5.98-7.58-7.33-12.14-.18-.62-.33-1.29-.13-1.91.22-.67.82-1.13 1.41-1.5 3.5-2.21 8.84-2.3 11.16 1.13 1.71 2.53 1.66 6.58 4.51 7.66.99.37 2.09.24 3.14.11.88-.11 1.77-.23 2.65-.34.38-.05.8-.11 1.07-.39.45-.45.29-1.2.1-1.81-.65-2.06-1.29-4.11-1.94-6.17-.26-.82-.51-1.69-.27-2.51.47-1.57 2.43-2.05 4.05-2.27 1.66-.22 3.43-.42 4.92.35 1.19.62 1.99 1.77 2.72 2.89a77.6 77.6 0 0 1 6.89 13.3c7.47-2.77 13.23-10.74 11.77-18.58-4.16.37-8.34.4-12.5.11-3.27-.23-6.54-.67-9.69-1.58-6.99-2.04-13.25-6.49-17.47-12.43-.72-1.02-1.39-2.09-1.86-3.24-2.05-5.07.04-10.77 2.12-15.83"/><path d="M62.93 30.97c-8.3-.65-17.13-.86-24.96 2.4-3.52 1.46-7.8 3.75-8.19 8.01-.42 4.56 3.75 6.77 7.18 8.52.56.29 3.87 1.94 2.52 2.62-1.84.92-4.16 1.04-6.12 1.66-3.72 1.17-7.61 3.47-8.52 7.57-.88 3.94 1.53 7.38 4.68 9.5 1.52 1.02 3.14 1.72 4.86 2.31 1.42.49 3.13.97 3.55 2.6.27 1.05.2 2.17.41 3.24s.64 2.06 1.2 2.95c1.21 1.9 2.94 3.35 4.83 4.52 4.14 2.57 8.92 3.81 13.77 3.88 1.92.03 2.48-2.17 1.44-3.47-1.88-2.35-3.75-4.72-5.21-7.36-.68-1.23-1.28-2.51-1.67-3.87-.14-.48-.27-.65.08-1.02s.97-.62 1.42-.82c1.76-.78 4-1.05 5.8-.26 1.96.86 2.44 2.92 3.1 4.76.77 2.14 1.85 4.28 4.16 5.06 1.48.5 3.02.26 4.53.07s3.27-.12 4.35-1.36c.87-1 .77-2.29.45-3.49-.47-1.76-1.09-3.49-1.64-5.22-.26-.82-1.09-2.22-.14-2.79.89-.53 2.22-.6 3.23-.67 1.63-.12 2.79.13 3.82 1.45s1.86 2.86 2.69 4.3c1.77 3.07 3.34 6.26 4.66 9.55.36.9 1.32 1.77 2.39 1.36 8.37-3.19 14.88-11.76 13.16-20.98-.15-.78-1.11-1.53-1.91-1.45-4.38.43-8.82.4-13.2.04-4.06-.34-8.13-1.06-11.89-2.68-3.22-1.39-6.22-3.34-8.79-5.72s-5.32-5.35-6.18-8.79c-1.12-4.47.93-9.25 2.6-13.31.41-1-.45-2.21-1.4-2.47-1.15-.32-2.06.39-2.47 1.4-1.69 4.15-3.41 8.66-2.94 13.22.44 4.38 2.99 7.98 5.92 11.13 5.78 6.2 13.52 9.78 21.86 10.89 5.48.73 11 .66 16.5.27-.64-.48-1.27-.97-1.91-1.45 1.11 6.97-4.06 13.75-10.37 16.18.8.45 1.59.9 2.39 1.36-1.38-3.39-2.94-6.69-4.74-9.87-1.53-2.69-3.19-6.28-6.15-7.63-1.47-.67-3.09-.71-4.67-.55-1.5.16-3.05.35-4.41 1.06-1.24.65-2.17 1.75-2.43 3.14-.35 1.85.55 3.77 1.09 5.5.25.79.49 1.58.75 2.37.12.38.22 1.1.45 1.42l.09.31c.07.39.23.21.48-.55-.08-.13-2.33.33-2.59.36-.79.1-1.82.34-2.57-.03s-1.09-1.24-1.38-1.95c-.52-1.29-.87-2.63-1.48-3.88-2.52-5.14-9.15-5.57-13.74-3.11-1.52.82-2.89 2.05-3.02 3.88s.79 3.73 1.53 5.35c1.63 3.58 4.12 6.69 6.53 9.77.48-1.16.96-2.31 1.44-3.47-3.73-.09-7.42-1.19-10.62-3.1-1.4-.83-2.85-1.82-3.88-3.11-1.11-1.37-1.2-2.97-1.55-4.63-.83-3.87-3.95-5.12-7.37-6.18-2.54-.79-5.96-2.78-5.74-5.9.23-3.3 4.28-4.73 6.88-5.56 3.09-.99 8.76-2.18 7.82-6.63-.8-3.8-5.25-4.84-7.83-7.05-.91-.78-2.04-2.01-1.52-3.29.56-1.37 2.22-2.23 3.45-2.89 7.66-4.07 16.74-3.75 25.15-3.87 2.28-.03 2.22-3.33 0-3.5Zm27.64-.18c3.04-.94 6.56-.64 9.13 1.24s3.93 5.46 2.82 8.44c-.25.66-.61 1.33-.53 2.03.09.88.86 1.56 1.69 1.87s1.73.36 2.6.53c2 .38 3.9 1.49 4.99 3.2 1.1 1.71 1.28 4.04.23 5.78-1.31 2.18-4.23 2.99-6.72 2.46s-4.61-2.14-6.44-3.91a35 35 0 0 1-4.02-4.59c-3.37-4.58-5.65-10.63-3.6-15.93"/><path d="M90.99 32.31c4.04-.87 9.24.5 9.88 5.25.3 2.24-1.57 4.11-.53 6.34 1.19 2.56 3.8 2.46 6.14 3.13 1.84.53 3.5 1.96 3.65 3.96s-1.41 3.24-3.26 3.45c-2.05.24-4.03-.85-5.59-2.09-1.92-1.52-3.66-3.41-5.14-5.35-1.59-2.09-2.9-4.45-3.64-6.97-.76-2.61-.68-5 .07-7.59.58-2.03-2.6-3.51-3.51-1.48-2.5 5.58-.36 12.07 2.85 16.9 3.1 4.65 7.91 10.31 13.91 10.69 2.65.17 5.45-.88 7.06-3.05 1.81-2.42 1.77-5.89.15-8.41s-4.25-3.79-7.1-4.25c-.48-.08-1.48-.07-1.84-.48-.19-.21.12-.7.28-1.13.49-1.31.62-2.71.44-4.1-.91-6.92-8.53-10.11-14.67-7.84-1.89.7-1.17 3.48.84 3.04Z"/></svg>