<?xml version="1.0" encoding="UTF-8"?><svg xmlns="http://www.w3.org/2000/svg" viewBox="0 0 180 180"><path d="M56.36 70.05c-9.63.12-19.27.24-28.9.38-2.39.03-4.77.06-7.16.11-1.86.04-3.82.13-5.59.76-1.99.71-3.69 1.99-4.65 3.91-.9 1.8-1.15 3.78-1.32 5.76-.85 9.56-.82 19.21.03 28.76.34 3.85-.02 9.89 4.65 11.19 2.11.59 4.57.28 6.74.27 2.41 0 4.83-.01 7.24-.02l32.73-.09c1.29 0 2.26-1.06 2.31-2.31.56-13.51.98-27.02 1.47-40.53.1-2.82-.05-5.87 1.79-8.21 1.72-2.19 4.18-3.83 6.29-5.61 4.73-3.99 9.28-8.2 13.64-12.59 4.89-4.93 9.52-10.11 13.89-15.5-.91.12-1.82.24-2.73.35 14.1 7.67 19.16 25.44 21.19 40.25 2.29 16.74.34 34.05-5.31 49.95-3.19 8.97-7.63 17.48-13.18 25.21.98-.26 1.97-.52 2.95-.77-6.07-3.91-11.72-8.44-16.84-13.54a103 103 0 0 1-7.03-7.72c-1.04-1.26-2.06-2.55-2.84-4-.89-1.67-1.11-3.52-1.2-5.38-.2-4.04.1-8.1.27-12.14.17-3.95.34-7.89.5-11.84.17-4.11.29-8.22.43-12.33.06-1.69 0-3.52.76-5.08.69-1.43 1.96-2.52 3.1-3.57 6.76-6.26 13.51-12.54 20.25-18.82-1.01-.27-2.02-.53-3.03-.8 7.4 18.71 9.53 39.48 5.99 59.3-1.01 5.65-2.47 11.21-4.36 16.63l2.71-1.1c-6.36-2.94-11.24-8.08-12.5-15.12-.51-2.84-.24-5.77-.14-8.63.12-3.51.28-7.02.5-10.53.26-4.15.56-8.33 1.25-12.44.38-2.24-3.06-3.21-3.44-.95-1.29 7.71-1.64 15.57-1.94 23.37-.12 3.16-.34 6.31.12 9.45.55 3.77 2.08 7.34 4.41 10.35 2.59 3.35 6.05 5.91 9.88 7.68 1.13.52 2.29.1 2.71-1.1 6.79-19.51 7.98-40.87 3.51-61.03-1.27-5.75-3.02-11.38-5.2-16.85-.5-1.26-1.96-1.8-3.03-.8-6.24 5.86-12.49 11.7-18.7 17.58-2.72 2.58-5.43 5.02-6.04 8.91-.64 4.06-.62 8.32-.8 12.43-.38 8.53-.59 17.08-1.26 25.59-.32 4.05.22 7.79 2.59 11.19 2.15 3.08 4.74 5.93 7.32 8.65 5.92 6.23 12.63 11.73 19.86 16.38 1.05.67 2.3.14 2.95-.77 10.33-14.42 16.91-31.35 19.28-48.92 1.19-8.82 1.32-17.76.31-26.61-.99-8.64-2.87-17.24-6.27-25.27-3.58-8.43-9.2-16.36-17.47-20.69-.81-.42-2.1-.44-2.73.35A209.7 209.7 0 0 1 70.06 60.6c-2.22 1.93-4.68 3.69-6.67 5.86-2.15 2.34-3.16 4.99-3.47 8.13-.34 3.42-.36 6.9-.52 10.34-.16 3.46-.4 6.92-.57 10.38-.38 7.82-.69 15.65-1.01 23.48l2.31-2.31c-8.91.02-17.82.04-26.73.05-4.41 0-8.83.02-13.24.03h-3.25c-.74 0-1.83.19-2.5-.2 0 0-.09-.01-.18-.29-.12-.35-.2-.73-.26-1.09-.16-1-.24-2.02-.34-3.03a163 163 0 0 1-.5-26.31c.12-1.96.19-3.97.49-5.92.22-1.44.62-2.87 1.94-3.65s2.92-.85 4.37-.93c2.09-.11 4.19-.17 6.29-.26q15.075-.66 30.15-1.35c2.23-.1 2.26-3.51 0-3.48Z"/><path d="M37.14 72.13a357 357 0 0 0-.4 45.22c-5.35-.14-13.99.14-19.34 0-1.14-.03-2.41-.12-3.18-.95-.61-.66-.75-1.61-.85-2.5-1.2-10.36.08-22.05.58-32.47.11-2.23 2.08-3.97 3.92-5.23 1.08-.74 2.45-.85 3.76-.94 5.15-.35 10.3-.71 15.46-1.06"/><path d="M35.63 72.13c-1.32 15.03-1.51 30.16-.78 45.22l1.88-1.88c-4.62-.14-9.23-.09-13.85-.09-2.06 0-4.28.19-6.33-.11-1.03-.15-1.02-.62-1.15-1.58-.19-1.4-.27-2.82-.34-4.23-.3-5.63-.05-11.27.29-16.89.16-2.75.35-5.49.51-8.24.06-1.07-.09-2.4.28-3.42s1.32-1.85 2.16-2.49c1.05-.81 2.04-1 3.33-1.1 1.66-.12 3.32-.23 4.99-.34l10.47-.72c2.62-.18 2.64-4.29 0-4.11l-10.47.72c-1.66.11-3.32.22-4.99.34-1.41.1-2.82.24-4.12.85-2.35 1.1-4.83 3.53-5.44 6.11-.34 1.41-.26 2.95-.34 4.39-.09 1.59-.2 3.19-.3 4.78-.4 6.32-.79 12.66-.54 18.99.06 1.42.15 2.84.28 4.26.14 1.5.18 3.25 1.04 4.56 1.55 2.38 4.47 2.27 7 2.28 5.84.03 11.69-.3 17.54-.18.97.02 1.94-.88 1.88-1.88-.9-15.07-.82-30.16.02-45.22.11-1.95-2.85-1.91-3.02 0Zm84.44 4.17c12.56 4.37 15.4 23.04 6.95 32.4-2.37 2.62-5.36 4.48-8.82 5.28-2.84.66-1.64 5.03 1.2 4.37 7.73-1.79 13.74-8.09 15.95-15.61 2.3-7.85.8-17.1-4.32-23.54-2.6-3.27-6.32-5.7-10.51-6.2-1.98-.24-2.13 2.72-.45 3.3"/><path d="M105.22 36.27a97.4 97.4 0 0 1 23.36-16.5c.13 6.38-.87 12.77-2.95 18.8 7.69-1.6 15.45-2.86 23.25-3.77-3.42 6.06-7.34 11.83-11.72 17.24 7.67.53 15.32 1.47 22.89 2.82a104 104 0 0 1-15.76 15.85c8.34 2.76 16.48 6.15 24.32 10.13l-19.35 10.5c7.07 4.64 13.85 9.73 20.27 15.24-6.37 1.67-12.87 2.77-19.36 3.86 3.86 6.31 7.36 12.84 10.48 19.55-6.92-.68-13.81-1.65-20.65-2.9 2.2 6.54 3.07 13.52 2.53 20.4-.05.67-.18 1.44-.77 1.77-.55.31-1.24.06-1.82-.19-3.43-1.47-6.86-2.93-10.29-4.4a40.3 40.3 0 0 1-4.53 15.57 86.5 86.5 0 0 1-15.07-11.44c-.49-.47-1-.97-1.2-1.62-.4-1.25.42-2.52 1.16-3.6 4.85-7.16 7.67-15.69 8.02-24.33 9.23-2.64 16.63-10.85 18.29-20.31s-2.5-19.7-10.29-25.32c-.76-.55-1.56-1.06-2.19-1.76-1.22-1.34-1.67-3.18-2.1-4.94-2.39-9.73-5.58-19.72-12.54-26.94-.96-1-2.07-2.41-1.35-3.6"/><path d="M106.37 37.42c6.97-6.44 14.79-11.62 23.24-15.9-1.02-.58-2.04-1.17-3.06-1.75.04 6.23-.94 12.35-2.95 18.24-.55 1.62 1.12 2.88 2.59 2.59a272 272 0 0 1 22.69-3.65l-1.86-3.23c-3.36 5.87-7.18 11.49-11.43 16.75-1.23 1.52-.44 3.65 1.57 3.79 7.47.54 14.92 1.44 22.29 2.78l-1-3.78c-4.7 5.8-10.01 11.1-15.8 15.81-1.45 1.18-.48 3.38 1.02 3.88a175.6 175.6 0 0 1 23.76 9.9v-4.02c-6.45 3.5-12.9 7-19.35 10.49-1.63.88-1.39 3.1 0 4.03 6.84 4.63 13.47 9.55 19.74 14.92.35-1.34.71-2.69 1.06-4.03-6.38 1.65-12.87 2.76-19.37 3.85-1.55.26-2.2 2.33-1.45 3.56 3.84 6.32 7.33 12.86 10.46 19.56.7-1.23 1.41-2.45 2.11-3.68-6.7-.66-13.37-1.59-20-2.8-1.7-.31-3.62 1.09-2.99 2.99 1.11 3.36 1.94 6.84 2.31 10.36.18 1.72.27 3.44.28 5.16 0 .94-.01 1.88-.05 2.82-.02.38.02 1.34-.14 1.47l1.06-.62c.32.12.26.11-.18-.04l-.23-.09c-.46-.17-.9-.38-1.34-.57-.97-.41-1.94-.83-2.9-1.25-1.86-.8-3.72-1.6-5.59-2.4-1.75-.75-3.48.13-3.64 2.09-.43 5.01-1.88 9.89-4.19 14.35l3.3-.87c-3.57-2.14-6.99-4.51-10.2-7.16-1.58-1.31-3.32-2.64-4.69-4.17-.5-.55-.28-.62.17-1.37.55-.91 1.17-1.77 1.72-2.67 4.28-7.1 6.66-15.25 7.03-23.52l-1.72 2.26c12.56-3.7 21.65-16.37 20.2-29.54-.73-6.61-3.61-12.93-8.37-17.62-1.22-1.2-2.56-2.21-3.94-3.21-1.32-.97-1.86-2.16-2.28-3.7-.93-3.41-1.73-6.84-2.84-10.19-1.28-3.85-2.83-7.64-4.85-11.16-1-1.74-2.14-3.4-3.37-4.98-.58-.74-1.19-1.46-1.82-2.16-.36-.39-.76-.75-1.08-1.17-.07-.09-.15-.27-.23-.34-.31-.27.06-.54-.24.11.52-1.13.32-2.47-.82-3.14-.99-.58-2.62-.31-3.14.82-1.77 3.86 2.01 6.4 4.09 9.15 2.06 2.73 3.72 5.78 5.07 8.93 1.35 3.13 2.38 6.41 3.29 9.69.89 3.19 1.27 7.02 3.27 9.75 1.03 1.4 2.49 2.24 3.83 3.31 1.2.95 2.3 2.05 3.29 3.21 1.92 2.26 3.41 4.95 4.35 7.76 1.91 5.69 1.75 11.95-.92 17.38-2.95 6.01-8.27 10.71-14.72 12.59-1.03.3-1.67 1.21-1.72 2.26-.2 4.27-1.01 8.46-2.39 12.5-.68 1.99-1.5 3.92-2.47 5.8-1.02 1.98-2.29 3.77-3.42 5.67-1.28 2.16-1.42 4.52.25 6.51 1.41 1.67 3.24 3.1 4.91 4.5 3.57 2.98 7.35 5.68 11.33 8.08 1.08.65 2.7.28 3.3-.87 2.75-5.24 4.37-10.89 4.87-16.78-1.21.7-2.43 1.39-3.64 2.09 3.29 1.39 6.58 2.78 9.85 4.19 1.59.69 3.21 1.29 4.83.29s1.78-2.78 1.9-4.46c.47-6.86-.5-13.83-2.66-20.34l-2.99 2.99c7.05 1.28 14.16 2.28 21.29 3 2.02.2 2.81-2.18 2.11-3.68-3.12-6.71-6.63-13.23-10.5-19.54-.48 1.19-.97 2.38-1.45 3.56 6.49-1.11 12.98-2.21 19.36-3.88 1.66-.43 2.46-2.84 1.06-4.03-6.58-5.62-13.5-10.89-20.79-15.55v4.03l19.35-10.5c1.48-.8 1.55-3.24 0-4.02-8.02-4.06-16.34-7.52-24.88-10.36l1.02 3.88c5.8-4.72 11.05-10.04 15.71-15.9.94-1.18.86-3.46-1-3.78-7.78-1.34-15.61-2.32-23.49-2.86.52 1.26 1.05 2.53 1.57 3.79 4.48-5.58 8.49-11.48 12-17.73.72-1.28-.16-3.43-1.86-3.23-7.99.95-15.93 2.24-23.8 3.89l2.59 2.59a55.9 55.9 0 0 0 2.96-19.36c-.04-1.6-1.68-2.46-3.06-1.75-8.63 4.4-16.57 10.35-23.49 17.11-1.5 1.47.77 3.71 2.3 2.3Z"/></svg>