<?xml version="1.0" encoding="UTF-8"?><svg xmlns="http://www.w3.org/2000/svg" viewBox="0 0 180 180"><path d="M50.91 55.48c6.12-5.35 10.25-12.43 14.21-19.42 1.97-3.48 3.95-6.98 6.22-10.27s5.03-6.67 9.55-6.56c2.56.06 5.06.9 7.47 1.68 2.72.88 5.52 1.87 8.31 2.53 1.79.43 3.03-2.14 1.29-3.07-2.3-1.23-4.92-2.12-7.38-2.98s-4.75-1.6-7.2-1.97-4.93-.38-7.25.52c-2.18.85-3.99 2.33-5.52 4.08-5.65 6.53-9.13 14.73-13.46 22.12-2.37 4.04-5.03 7.93-8.55 11.05-1.57 1.39.73 3.67 2.3 2.3Z"/><path d="M81.25 36.43c5.47.9 11.02 1.35 16.57 1.19 2.78-.08 5.54-.29 8.3-.62.9-.11 2.25-.44 3.08.06.63.39.77 1.3.75 1.97-.12 4.55-5.37 6.47-9.06 7.13-2.39.42-5.49.08-7.48 1.66-.81.64-1.39 1.52-2.08 2.29-.79.89-1.64 1.73-2.54 2.51-3.83 3.3-8.35 5.1-13.41 4.88-2.01-.09-2.53 3.24-.48 3.58 5.15.85 10.45-.93 14.62-3.93 2.08-1.5 3.9-3.27 5.51-5.27.36-.44.65-.92 1.19-1.13.62-.24 1.44-.21 2.09-.28 1.51-.17 3.03-.34 4.52-.63 4.87-.96 10.25-4 11.18-9.34.44-2.56-.2-5.56-2.58-7-2.45-1.49-5.56-.65-8.22-.38-7.15.74-14.36.77-21.52.17-1.78-.15-2.21 2.85-.43 3.15Zm25.46 19.95c-1.92 3.03-4.67 5.4-7.91 6.94-.95.45-3.23 1.63-4.18.67-1.13-1.14.35-3.16.94-4.12l-3.45-2.02c-1.99 4.69-5.42 7.94-10.18 9.72-2.29.85-4.63 1.55-6.87 2.52-2.08.91-4.77 2.29-5.81 4.42-.79 1.61.93 3.86 2.67 2.67.97-.66 1.74-1.54 2.73-2.17s2.08-1.15 3.19-1.58c2.4-.93 4.87-1.64 7.23-2.67 4.95-2.16 8.88-6.27 10.71-11.37.76-2.12-2.64-3.56-3.66-1.54-1.17 2.32-2.33 5.13-1.05 7.66 1.29 2.53 4.21 2.96 6.72 2.23 5-1.45 9.24-5.22 11.81-9.67 1.07-1.87-1.73-3.48-2.87-1.68Z"/><path d="M56.53 44.8c-2.43-1.26-5.04-2.43-7.83-1.74-2.77.69-4.53 3.07-4.41 5.91.1 2.55 1.2 5.16 2.28 7.43 1.08 2.29 2.43 4.44 3.92 6.48 3.18 4.33 6.97 8.17 11.2 11.48 2.07 1.62 4.21 3.13 6.47 4.47 2.09 1.24 4.36 2.55 6.69 3.27 3.01.92 6.19-.26 7.02-3.48.84-3.24-1.21-6.08-3.4-8.23-1.85-1.82-4.53.92-2.83 2.83.99 1.11 2.86 2.78 2.24 4.47-.56 1.5-2.89.07-3.81-.38-3.5-1.71-6.83-3.86-9.88-6.28C58.06 66.15 52.4 60 49.44 52.65c-.57-1.41-2.02-4.33-.5-5.54 1.81-1.43 4.56-.15 6.38.57 1.66.65 2.78-2.06 1.21-2.87Zm38.74-9.62c.9-5.97 2.76-11.98 5.68-17.28 1.24-2.25 2.81-5.2 5.53-5.85 2.13-.51 4.86.72 6.76 1.61a69.3 69.3 0 0 1 15.37 9.86c4.46 3.77 8.31 8.55 9.9 14.26.32 1.16.99 2.94.33 4.07-.74 1.28-2.37 2.37-3.53 3.27-2.53 1.98-5.33 3.62-8.2 5.04-6.02 2.98-12.6 5.2-19.14 6.72-3.44.8-6.93 1.28-10.47 1.14-.25 0-1-.18-1.18-.07l-.23-.04c.31.38.38.37.2-.03.04-.34-.25-1-.32-1.34-.07-.38-.14-.75-.19-1.13-.08-.58-.33-1.45 0-1.99.26-.43.93-.62 1.37-.78 3.07-1.03 6.37-1.24 9.44-2.31 3.01-1.05 5.68-2.66 7.58-5.26s2.75-6.22 1.35-9.35c-1.01-2.24-2.55-3.67-5-4.09-5.08-.87-10.24.57-15.27 1.19-1.02.13-1.91.79-1.91 1.91 0 .93.88 2.04 1.91 1.91 3.05-.4 6.07-.91 9.11-1.37 1.71-.26 3.56-.49 5.4-.18.69.12 1.32.28 1.72.76.64.78.98 2.27.97 3.26-.02 3-2.46 5.45-4.97 6.73-3.06 1.56-6.6 1.97-9.91 2.73-1.47.34-2.99.79-4.15 1.8-1.47 1.27-1.85 3.02-1.71 4.9.12 1.6.31 3.68 1.2 5.07 1.07 1.67 3.04 1.73 4.82 1.78 3.96.12 7.94-.48 11.79-1.39 6.99-1.67 14.03-4.11 20.43-7.38 3.18-1.62 6.19-3.55 8.95-5.82 1.19-.97 2.41-1.99 3.31-3.25 1.21-1.71 1.12-3.7.76-5.67-2.42-13.27-15.28-22.05-26.48-27.7-2.75-1.39-6.04-2.87-9.18-2.83-3.69.05-6.37 2.69-8.25 5.6-4.05 6.26-6.16 13.73-7.06 21.07-.23 1.85 3 2.31 3.28.44Zm15.33 32.25c-6 .11-16.43 2.26-17.11 9.71-.43 4.69 3.65 7.64 7.53 9.08 4.18 1.55 8.85 1.75 13.27 2.05 8.84.6 17.98.39 26.48-2.35 3.5-1.13 8.12-2.62 9.81-6.24 1.91-4.08-1.35-8.06-4.79-10-4.14-2.35-9.16-2.94-13.83-3.27-5.53-.39-11.06.19-16.58.42-2.05.09-2.07 3.21 0 3.2 7.88-.01 15.97-.7 23.72 1.12 2.74.64 6.82 1.79 7.93 4.78s-3.48 4.53-5.51 5.29c-6.99 2.61-14.47 3.28-21.88 3.12-3.8-.08-7.6-.34-11.37-.76-1.8-.2-3.59-.53-5.32-1.08-1.51-.49-3.29-1.15-4.35-2.39-5-5.83 8.49-9.24 11.99-9.56 1.97-.18 2.05-3.16 0-3.12Z"/><path d="M93.62 75.94c-.9 4.88-1.65 9.71-1.94 14.67s-.2 10.07.13 15.08c.69 10.47 2.52 21.06 5.59 31.1.89 2.9 1.95 5.75 2.96 8.61 1.02 2.88 1.9 6.12 3.67 8.64.89 1.26 2.65.47 2.41-1.02-.42-2.7-1.68-5.27-2.56-7.85s-1.58-5.03-2.25-7.58c-1.34-5.07-2.65-10.14-3.62-15.29-1.84-9.73-2.64-19.61-2.49-29.5.08-5.48.29-11.03.97-16.48.2-1.62-2.57-2-2.87-.39Zm54.69 1.68c2.03 19.74 2.62 39.93-2.84 59.19-1.54 5.44-3.63 10.7-5.33 16.08-.62 1.97 2.28 3.14 3.3 1.39 1.29-2.2 2.07-4.77 2.91-7.17s1.74-4.91 2.52-7.39c1.53-4.85 2.68-9.81 3.49-14.84 1.61-10.04 1.97-20.26 1.2-30.4-.44-5.8-1.23-11.55-2.19-17.28-.29-1.71-3.23-1.33-3.05.41Z"/><path d="M110.04 121.57c-3.03 2.45-7.45 5.25-10 8.19s-4.6 6.42-5.31 10.25c-.34 1.82-.36 3.68-.38 5.52-.05 6.52.04 13.05.28 19.57.06 1.65.13 3.31.55 4.9.8-3.45 1.79-6.85 2.96-10.19 1.08-3.07 2.48-6.29 5.23-8.03 1.13-.71 6.05-2.06 7.03-2.97 1.61-1.49.53-.85.76-3.03.77-7.36.15-14.77.15-24.2-.62-.11-1.29.26-1.53.84"/><path d="M109.26 120.23c-3.41 2.63-7.34 4.75-10.29 7.94-3.02 3.26-5.48 7.34-6.2 11.77-.41 2.49-.37 5.03-.38 7.55s0 5.22.04 7.83.09 5.22.18 7.83c.09 2.46.14 4.96.75 7.36.45 1.77 3.23 1.83 3.65 0 .98-4.32 2.12-8.9 4.04-12.92.76-1.58 1.74-3.24 3.28-4.17.83-.5 2.16-.85 3.27-1.25 2.26-.81 6.14-2.06 5.57-5.18-.02-.09-.09-.45-.08-.34 0-.05.01-.62.03-.86.08-1.04.18-2.07.23-3.11.1-1.98.11-3.97.09-5.95-.06-5.04-.33-10.09-.29-15.13 0-1.04-.85-1.77-1.83-1.83a3.06 3.06 0 0 0-3.03 1.8c-.91 2.03 1.69 3.59 3 1.75-.14.09-.12.13.04.12l-1.83-1.83c.05 4.43.14 8.86.18 13.29.02 2.01 0 4.03-.09 6.04-.08 1.83-.44 3.71-.39 5.53 0 .38.04.82.14 1.18.09.31.04.82.16-.14.09-.7.28-.79-.19-.28 0 0-.43.37-.18.18.23-.17-.19.11-.24.13-1.2.58-2.46 1.02-3.71 1.48s-2.47.91-3.54 1.73c-1.53 1.17-2.7 2.74-3.57 4.44-2.28 4.43-3.52 9.51-4.69 14.33h3.65c-.52-2.23-.43-4.56-.5-6.84a449 449 0 0 1-.22-14.68c0-2.26-.08-4.56.21-6.8.53-3.98 2.63-7.74 5.34-10.66s6.17-5.28 9.29-7.86c1.33-1.11-.48-3.5-1.87-2.43Zm40.94 6c3.53 5.02 4.19 9.69 4.66 15.62.55 7.03.37 14.22.17 21.27.32-1.16 0-2.38-.32-3.54-.93-3.35-1.87-6.73-3.64-9.73-1.76-2.99-2.47-4.84-5.84-5.7 1.94-6.05 3.28-9.77 5.21-15.83"/><path d="M148.74 127.08c3.07 4.8 3.82 10.16 4.22 15.73.48 6.78.04 13.53.22 20.31.05 2 3.26 2.63 3.65.49.44-2.44-.41-4.82-1.09-7.14s-1.48-4.62-2.61-6.77c-.86-1.62-1.75-3.33-2.92-4.74s-2.72-2.19-4.44-2.66l1.34 2.36c.83-2.65 1.68-5.29 2.56-7.93s1.89-5.25 2.55-7.93c.56-2.31-2.64-3.07-3.48-.96-1.03 2.57-1.78 5.27-2.67 7.9s-1.79 5.26-2.66 7.9c-.32.99.38 2.09 1.34 2.36 2.75.77 3.92 3.21 5.19 5.58.92 1.73 1.58 3.57 2.15 5.43.5 1.62 1.58 3.92 1.17 5.62 1.22.16 2.43.33 3.65.49.58-7.02.49-14.25-.05-21.27-.46-5.97-1.52-11.58-5.17-16.48-1.27-1.7-4.13-.17-2.93 1.71Zm-42.81 29.71c5.79 2.6 12.6 3.4 18.9 2.98 3.26-.22 6.5-.7 9.7-1.31 2.76-.53 6.38-1.08 8.31-3.35 1.36-1.61-.36-4.3-2.37-3.07-1.07.66-1.99 1.29-3.21 1.67-1.32.4-2.68.66-4.03.91-2.93.56-5.87.97-8.84 1.18-2.83.2-5.65.26-8.48 0-3.01-.27-5.93-.97-8.87-1.63-1.49-.33-2.65 1.92-1.1 2.61ZM37.24 52.51c-.29 4.27 1.35 8.37 2.98 12.24s3.7 7.53 6.87 10.41c3.05 2.78 6.6 5.46 10.29 7.33 1.85.93 3.79 1.74 5.68 2.57s3.8 1.99 5.81 2.73c1.4.51 2.32-1.72 1.01-2.4-1.71-.89-3.57-1.53-5.24-2.5-1.69-.98-3.22-2.16-4.78-3.33-3.08-2.33-6.4-4.35-9.34-6.88-2.91-2.51-4.88-5.6-6.48-9.07-.79-1.71-1.55-3.45-2.27-5.2-.78-1.88-1.57-3.83-1.43-5.9s-2.99-2-3.12 0Z"/><path d="M31.42 62.08c-.2 3.79 1.34 7.62 2.92 10.99s3.56 6.38 6.4 8.63c2.64 2.09 5.74 3.6 8.79 5.01 1.55.72 3.14 1.37 4.74 1.96 1.48.55 3.27 1.44 4.88 1.35 1.06-.06 2.01-1.57.98-2.37-1.22-.95-2.83-1.29-4.28-1.78s-2.97-1.04-4.41-1.66c-2.82-1.2-5.3-2.77-7.56-4.84-2.39-2.19-4.35-4.53-5.85-7.42-1.56-2.99-3.53-6.44-3.71-9.87-.1-1.86-2.79-1.86-2.89 0ZM26.2 74.21c-.04 2.34 1.16 4.54 2.24 6.55s2.3 4.05 3.76 5.87c1.32 1.64 2.91 3.14 4.82 4.06 1.92.92 4.26 1.6 6.4 1.17 1.27-.26 1.23-2.25 0-2.53-.83-.19-1.67-.27-2.47-.59s-1.53-.72-2.24-1.19c-1.47-.98-2.77-2.16-3.9-3.52-1.19-1.44-2.14-3.07-3.05-4.7-.49-.88-.99-1.76-1.49-2.64-.43-.77-.86-1.58-.92-2.47-.14-2.01-3.12-2.05-3.16 0Zm-3.19 14.72c.39.33.8.64 1.27.84.29.13.58.26.89.34.22.06.46.08.69.09h.3c.22 0 .43-.04.62-.14.2-.07.37-.18.52-.33l.25-.33c.12-.19.18-.39.19-.6.04-.14.04-.29 0-.43 0-.22-.07-.42-.19-.6l-.25-.33c-.2-.2-.44-.34-.71-.42-.2-.04-.4-.1-.61-.14s-.4-.11-.59-.19l.39.17a3.7 3.7 0 0 1-.79-.46l.33.25-.03-.02c-.15-.16-.32-.27-.52-.34-.19-.1-.4-.15-.63-.14-.22 0-.43.04-.63.14-.2.07-.38.18-.52.34-.28.31-.5.72-.48 1.15s.15.87.48 1.15Zm88.76 52.84c6.07 1.14 12.22 1.4 18.35.69 5.99-.69 12.41-2 17.83-4.72 1.79-.9.54-3.91-1.37-3.26-2.78.94-5.47 2.06-8.32 2.82s-5.7 1.35-8.59 1.71c-5.8.72-11.72.67-17.52-.1-1.61-.21-1.99 2.55-.39 2.85Zm-.49-8.75c6.64-.07 13.26-.13 19.85-1.03 3.22-.43 6.41-1.03 9.55-1.9 1.56-.43 3.1-.93 4.61-1.5 1.5-.57 3.28-1.08 4.49-2.17s-.12-2.69-1.44-2.48c-1.52.24-3.07 1.22-4.53 1.74-1.38.5-2.79.94-4.2 1.32-3.06.83-6.2 1.43-9.35 1.83-6.28.81-12.65 1.08-18.97 1.28-1.85.06-1.87 2.91 0 2.89Zm39.5-86.98c.58-.72 1.23-1.37 1.96-1.93l-.27.21c.66-.51 1.35-.97 2.05-1.43.54-.36.79-1.01.53-1.62-.11-.25-.28-.49-.53-.62-.29-.15-.68-.26-1-.13-.52.21-1.01.43-1.48.74s-.88.64-1.29 1c-.74.67-1.38 1.44-1.95 2.26-.17.25-.22.69-.13.97.09.27.23.48.45.65.45.35 1.26.39 1.65-.1Zm3.09 10.37 1.01-.13c.17-.02.34-.04.5-.07.19-.03.39-.05.58-.09l.26-.06c.18-.04.34-.13.48-.25q.225-.15.36-.39l.14-.34c.06-.19.07-.37.03-.56 0-.13-.03-.25-.1-.35a1.03 1.03 0 0 0-.29-.45c-.27-.25-.62-.42-.99-.41h-.27c-.2.01-.37.04-.58.07-.17.02-.34.05-.5.07l-1.01.14c-.19.04-.35.13-.49.26-.16.1-.28.24-.37.41l-.15.35c-.06.19-.07.38-.03.58 0 .13.03.25.1.36.06.18.16.33.3.47l.29.23c.23.13.47.2.73.2Zm.29 9.98.56-.02c.2 0 .39-.03.57-.13.18-.06.34-.16.47-.3.14-.13.24-.29.3-.47.09-.18.13-.36.13-.57l-.05-.39c-.07-.25-.2-.46-.38-.65l-.3-.23c-.23-.13-.48-.2-.74-.2l-.56-.02c-.2 0-.4.03-.57.13-.18.06-.34.16-.48.31-.14.13-.25.29-.31.48-.09.18-.14.37-.13.57l.05.39c.07.25.2.47.38.66l.3.23c.23.13.48.2.75.2Zm-53.18 16.17c3.83-2.41 8.16-4.02 12.63-4.71 3.49-.54 7.03-.52 10.56-.5 5.59.03 11.31.08 16.59 1.91 1.01.35 2.18 1.05 2.08 2.11-1.83.95-3.78 1.67-5.8 2.12-2.04.46-4.13.64-6.21.81-6.62.55-7.37.66-14.01 1.02-1 .05-4.57-.44-5.54-.68-1.92-.46-7.02-1.12-8.94-.68"/><path d="M101.77 83.91c6.02-3.62 12.82-4.68 19.75-4.67 3.53 0 7.08.02 10.59.3 1.68.13 3.35.35 5 .72.91.2 1.8.44 2.69.73.31.1.59.25.89.36.45.16.24.47.23.02l.95-1.66c-4.17 2.18-8.67 2.51-13.27 2.91-3.11.27-6.23.51-9.35.67-2.81.15-5.35-.09-8.1-.65-2.95-.6-6.35-1.19-9.34-.56-2.47.52-1.41 4.23 1.04 3.77 2.27-.43 5.59.19 8.06.68 3.2.64 6.21.68 9.45.47 3.25-.21 6.5-.51 9.75-.77 4.82-.39 9.32-1.03 13.69-3.2.59-.29.96-1.02.95-1.66-.03-4.08-5.86-4.83-8.89-5.29-4.12-.63-8.27-.66-12.42-.65-4.18 0-8.38.12-12.47 1.07-3.85.89-7.46 2.59-10.79 4.7-1.7 1.08-.16 3.76 1.59 2.71M65.58 97.52c-7.01 4.41-14.79 9.36-15.58 18.44-.32 3.71.83 7.78 3.65 10.33 3.4 3.08 8.23 3.73 12.65 3.39 4.64-.36 9.18-1.98 12.05-5.81 1.18-1.58 2.3-3.9 1.88-5.92-.51-2.45-3.16-3.25-5.36-3.43-8.4-.69-14.85 7.72-15.38 15.4-.61 8.89 7.11 16.95 15.86 17.39 2.17.11 2.04-3.03 0-3.3-5.81-.75-11.01-5.09-12.2-10.91s2.19-11.83 7.47-13.98c1.52-.62 3.37-.99 4.97-.48.09.03.4.2.48.19.39-.04-.05.04.05-.32-.08.26-.11.54-.21.8-.24.64-.6 1.28-1.01 1.82-1.98 2.67-5.44 3.82-8.62 4.08-3.13.25-6.95.18-9.51-1.92-2.02-1.65-2.73-4.29-2.66-6.81.22-7.6 7.18-12.58 12.97-16.34 1.63-1.06.13-3.66-1.53-2.62Zm48.52-57.45c-.66 6.18-3.83 11.77-6.93 17.16-.22.38-.46.78-.84.99-.3.16-.66.18-1 .2-3.4.17-6.81.34-10.21.52-.28.01-.58.02-.8-.14-.29-.21-.35-.61-.38-.97-.09-1.05-.17-2.1-.26-3.16-.05-.66-.1-1.36.21-1.94.3-.56.87-.91 1.44-1.16 2.27-1.01 4.85-.94 7.3-1.33a19.4 19.4 0 0 0 6.15-2.07"/><path d="M112.61 39.66c-.72 4.89-3.08 9.32-5.46 13.59-.58 1.03-1.16 2.07-1.77 3.08-.12.2-.03.14.1.07-.18.09-.76.03-.93.04l-1.96.09c-1.31.06-2.62.12-3.93.19s-2.78.31-4.09.14l1.03.28c.35.83.47.92.36.28l-.06-.79c-.03-.39-.06-.79-.1-1.18-.04-.48-.06-.97-.1-1.46-.03-.28-.02-.27.03-.32.37-.41 1.32-.58 1.83-.71.74-.18 1.5-.29 2.26-.37 3.56-.39 6.81-1 10.02-2.68 2.32-1.22.27-4.74-2.06-3.52-1.72.9-3.56 1.52-5.49 1.84s-3.9.33-5.81.8c-1.92.47-4.03 1.41-4.67 3.45-.3.96-.17 1.99-.09 2.97.09 1.08.05 2.27.33 3.32.69 2.61 3.35 2.19 5.45 2.07 2.09-.11 4.19-.22 6.28-.34 1.02-.05 2.13 0 3.1-.36 1-.36 1.61-1.17 2.13-2.06.99-1.72 1.96-3.45 2.87-5.22 2.05-4 3.42-8.31 3.79-12.79.14-1.72-2.78-2.14-3.04-.41Zm21.66 53.49c-3.93-.23-7.87.7-11.03 3.09-2.82 2.13-4.79 5.12-5.76 8.52-.9 3.12-.96 6.66.27 9.69s3.81 5.45 6.78 6.88c4.68 2.25 10.15 2.08 14.55-.74 4.08-2.61 6.99-6.96 7.72-11.76.42-2.79.1-5.49-1.09-8.06-.57-1.24-1.35-2.76-2.46-3.58-1.26-.94-2.24-2.19-3.66-2.94-1.75-.93-3.07 1.48-1.52 2.6.8.58 2.08 1.14 2.66 1.97.3.42.53.92.84 1.35s.57.86.8 1.32c.87 1.67 1.04 3.38.96 5.2-.17 3.55-2.13 7.04-4.91 9.46-2.71 2.36-6.35 3.39-9.82 2.29-1.91-.6-4.12-1.96-5.59-3.62-1.62-1.83-1.98-4.39-1.73-6.74.69-6.46 6.35-11.95 13-11.7 2.1.08 2.08-3.13 0-3.25Z"/><path d="M133.04 96.55c1.94.75 2.79 3.57 3.23 5.36.62 2.54.92 5.27.47 7.87-.42 2.43-1.58 4.64-3.44 6.28s-4.02 2.14-6.39 2.69c-2.03.46-1.51 3.49.48 3.54 3.04.08 6.26-1.71 8.37-3.77 2.34-2.28 3.63-5.3 4.08-8.51s.08-6.54-.85-9.63c-.84-2.78-2.35-5.35-5.38-5.9-1.37-.25-1.85 1.57-.57 2.06ZM94.18 34.26a87.9 87.9 0 0 0 33.28-8.86c.48-.23 1.01-.48 1.52-.33.33.1.59.36.84.61 3.49 3.61 6.27 7.89 8.15 12.54.32.79.61 1.63.46 2.46-.19 1-.98 1.76-1.74 2.42-7.81 6.79-17.55 11.33-27.77 12.98 2.89-3.53 4.94-7.74 5.93-12.19.65-2.96.79-6.24-.78-8.83"/><path d="M94.18 35.66c6.08-.19 12.12-.98 18.03-2.45 2.87-.72 5.71-1.59 8.49-2.63 1.45-.54 2.88-1.14 4.3-1.75.7-.3 1.39-.62 2.08-.94.55-.25 1.3-.8 1.9-.72l-1.06-.29c.82.39 1.55 1.5 2.14 2.19.62.74 1.22 1.5 1.77 2.29 1.16 1.64 2.19 3.37 3.08 5.16.48.97 1.02 1.99 1.31 3.05.24.87-.11 1.17-.76 1.77-1.45 1.33-3.05 2.51-4.67 3.62-6.74 4.62-14.4 7.65-22.46 8.97.72 1.24 1.44 2.47 2.16 3.71 2.73-3.36 4.81-7.14 6.04-11.31 1.17-3.99 1.74-8.69-.56-12.4-1.49-2.42-5.12-.29-3.8 2.22 1.54 2.93.84 6.38-.08 9.4-.99 3.24-2.61 6.31-4.74 8.95-1.43 1.77-.09 4.09 2.16 3.71 5.92-.98 11.65-2.91 16.99-5.64 2.68-1.37 5.24-2.96 7.66-4.74 2.16-1.59 5.34-3.53 6.21-6.23.48-1.48.03-2.97-.54-4.35-.62-1.49-1.3-2.96-2.08-4.37a42 42 0 0 0-5.27-7.44c-.95-1.07-1.97-2.35-3.49-2.48-1.66-.14-3.17.93-4.63 1.61a93 93 0 0 1-8.81 3.54c-6.9 2.37-14.09 4.02-21.35 4.74-1.76.17-1.84 2.87 0 2.81Z"/></svg>