<?xml version="1.0" encoding="UTF-8"?><svg xmlns="http://www.w3.org/2000/svg" viewBox="0 0 180 180"><path d="M109.11 125.03c-6.49-2.43-12.94-6.91-20.2-5.02-3.92 1.02-6.29 3.92-7.91 7.47-.85 1.87-1.67 3.84-1.16 5.93.42 1.69 1.64 3.19 3.15 4.03 4.23 2.38 7.8-.96 10.24-4.14l-3.47-1.46c-.83 4.16 1.43 9.96 6.13 10.69 1.78.27 2.89-1.91 1.26-2.98-2.3-1.52-4.33-3.69-3.73-6.69.44-2.21-2.18-3.14-3.47-1.46-.87 1.13-2.02 2.68-3.52 2.98-1.26.25-2.63-.72-2.89-1.98-.31-1.5.99-3.58 1.69-4.84.86-1.54 1.97-2.82 3.63-3.5 3.04-1.25 6.46-.52 9.47.43 3.34 1.06 6.67 2.25 9.98 3.39 1.81.63 2.54-2.19.79-2.85Z"/><path d="M82.66 123.14c-3.75-1.35-8.31.14-10.12 3.84-1.66 3.4-.23 7.4 3.33 8.76v-3.58c-2.96.7-5.16 3.6-4.83 6.67s3.07 5.38 6.14 5.5v-3.74c-3.37.06-5.54 3.54-4.44 6.65 1.22 3.44 4.73 4.66 8.03 5.17v-3.59c-2.07.81-4.38 2.1-4.48 4.61-.12 2.92 2.85 4.47 5.16 5.4 5 2.03 11.22 1.41 14.32-3.46l-3.42-.93c.06 2.49 2.85 3.24 4.89 3.54 1.8.27 3.71.12 5.46-.39 2.87-.84 5.56-2.43 8.5-3.04 2.34-.49 1.32-3.93-.98-3.54-2.33.4-4.58 1.47-6.78 2.29-.98.37-1.97.75-3.01.92-.82.13-1.66.16-2.49.13-.43-.01-1.92-.07-2.17-.53l.25.92v-.3c.01-1.88-2.45-2.41-3.42-.93-1.72 2.65-5.16 3.14-8.02 2.4-1.35-.35-3.25-.91-4.22-1.98-.33-.37-.47-.45-.08-.77.42-.35.97-.57 1.48-.75 1.54-.57 1.98-3.24 0-3.59-1.66-.29-3.71-.57-4.88-1.92-.54-.63-1.13-2.55.3-2.56 2.42-.03 2.4-3.63 0-3.74-2.99-.13-3.12-4.18-.32-4.84 1.93-.46 1.59-2.98 0-3.58-1.69-.64-1.55-2.9-.65-4.1 1.38-1.84 3.99-2.12 6.1-2.33 1.47-.15 1.79-2.06.35-2.58Z"/><path d="M79.28 151.83c.74.23 1.45 0 2.2.02s1.45.09 2.17.17c.78.08 1.57.16 2.36.09.85-.07 1.69-.26 2.54-.33 1.2-.1 2.56.02 3.3.89-.09-.11.08.11.09.12.02.03.19.36.18.33-.06-.13.07.32.04.1.02.13.02.27 0 .4.02-.19-.05.18-.07.22-.09.25.14-.19-.12.21-.23.34-.43.65-.56 1.05-.3.92.53 2.14 1.55 2.04 2.39-.25 3.21-3.17 2.46-5.16s-2.7-3.28-4.8-3.57c-2.12-.3-4.15.43-6.26.4-1.69-.02-4.91-.5-5.75 1.46-.27.65-.08 1.36.64 1.58Z"/><path d="M74.7 142.72c1.6 1.14 3.67 1.34 5.58 1.23 2.14-.12 4.26-.33 6.41-.27 1.38.04 3.16-.08 3.84 1.39.25.55.24 1.12-.01 1.67-.34.73-1.02.96-1.53 1.53-.92 1.03-.36 2.99 1.2 2.91 2.45-.13 4.07-2.93 4.14-5.16.08-2.36-1.51-4.58-3.68-5.43-1.19-.47-2.53-.48-3.8-.51-1.35-.03-2.7.02-4.04.12-1.24.1-2.47.28-3.7.48-1.04.17-2.17.34-3.17-.1-1.45-.63-2.56 1.2-1.25 2.13Zm1.37-7.33c.63.08 1.25.14 1.89.17s1.26.05 1.89.08l-.43-.06c.42.15.86.12 1.3.12.82 0 1.44-.27 1.92-.95.2-.28.23-.68.19-1-.05-.37-.2-.61-.43-.9-.42-.51-1.15-.63-1.77-.58l-.46.03c-.18.02-.38.02-.55.07-.2.05-.39.16-.57.24l.82-.22c-.65.08-1.29.15-1.94.23-.73.08-1.44.21-2.16.35-.6.12-.96.79-.88 1.35.09.65.59 1 1.21 1.07Z"/><path d="M87.35 142.24c.76-.05 1.47-.23 2.15-.57.58-.29 1.15-.71 1.58-1.21.53-.62.94-1.26 1.24-2.02.24-.61.43-1.37.37-2.03-.05-.47-.16-.89-.51-1.23-.3-.3-.8-.53-1.23-.51-.96.04-1.72.77-1.74 1.74 0 .3.01.6-.03.9l.06-.45c-.06.47-.2.92-.39 1.35l.16-.39c-.14.32-.32.61-.53.88l.25-.32c-.12.16-.24.31-.36.47l.24-.31c-.25.32-.53.61-.86.87l.29-.23c-.2.15-.4.29-.61.41-.1.06-.2.11-.31.16s-.28.07.07-.03c-.06.02-.12.05-.18.07-.59.21-.98.72-.89 1.36.08.57.6 1.12 1.22 1.08Zm20.43-16.67c-.32.26-.34-.06-.4.29-.02.14.22.66.27.82q.255.885.45 1.77c.3 1.34.59 2.68.8 4.03.41 2.62.55 5.29.59 7.94s-.05 5.22-.18 7.82c-.06 1.13-.1 2.26-.36 3.36s-.84 1.85-1.45 2.81c-1.01 1.6 1.03 3.71 2.64 2.64 2.65-1.77 3-5.45 3.16-8.35.19-3.6.25-7.21 0-10.8s-.7-7.06-1.8-10.38c-.46-1.39-.89-3.14-2.07-4.1-1.11-.91-2.68-.89-3.71.11-1.38 1.33.63 3.19 2.06 2.06Zm9.55-1.05c2.04 3.93 2.22 8.53 2.36 12.95.06 2.1.13 4.19.19 6.29.11 3.69.22 7.46-.91 10.98 9.14.53 26.11-.47 35.27-.62.38 0 .77-.02 1.1-.2.51-.28.75-.87.93-1.43 2.41-7.2 3.13-14.97 2.06-22.49-.23-1.62-.71-3.47-2.19-4.17-.66-.32-1.42-.34-2.16-.36-7.35-.19-22.5.81-29.86.62-2.04-.05-4.1-.11-6.06-.65"/><path d="M115.99 125.3c1.99 4.28 1.68 9.27 1.82 13.87.15 4.97.77 10.24-.7 15.06-.38 1.25.65 2.37 1.85 2.43 6.76.38 13.55.19 20.31-.04 3.43-.11 6.86-.25 10.29-.35 1.46-.05 2.93-.07 4.39-.13 2.34-.1 3.54-1.14 4.27-3.35 1.42-4.28 2.22-8.78 2.47-13.28.12-2.24.09-4.5-.07-6.74-.13-1.84-.22-3.85-.9-5.59-.72-1.86-2.07-3.26-4.1-3.61-1.49-.26-3.08-.19-4.59-.23-3.26-.08-6.53.09-9.79.19-7.69.23-15.51.93-23.19.17-1.67-.17-2.46 2.58-.88 3.25 3.16 1.34 6.78 1.3 10.18 1.32 2.98.01 5.97-.11 8.94-.21 5.87-.19 11.8-.71 17.67-.54.55.02 1.15-.03 1.57.38.46.45.59 1.39.71 1.99.39 1.93.52 3.95.57 5.91a47 47 0 0 1-2.11 15.08c-.12.4-.37.87-.43 1.29.02-.13.63.04.12-.06-.18-.03-.42 0-.6 0-1.36 0-2.73.05-4.09.09-3.17.1-6.34.23-9.51.34-7.07.25-14.2.68-21.26.28.62.81 1.24 1.62 1.85 2.43 1.62-5.32.99-11.09.82-16.57-.16-5.13-.5-10.33-2.98-14.94-.96-1.78-3.5-.22-2.67 1.56Zm-31.98 32.55c-1.07 1.87-2.75 3.72-5.08 3.71s-3.28-1.74-3.49-3.84c-.23-2.2.47-5.69-2-6.83-2.22-1.03-6.34-.51-7.55 1.85-.56 1.09-.47 2.5-.43 3.69.05 1.61.25 3.22.58 4.8.53 2.55 1.48 4.98 3.34 6.86 3.55 3.6 9.23 4.67 13.96 3.02 5.61-1.96 9.62-7.33 9.14-13.38-.18-2.24-3.65-2.29-3.53 0 .23 4.37-2.43 8.39-6.6 9.81-3.71 1.26-8.31.54-10.85-2.67-1.37-1.74-1.85-4.14-2.12-6.28-.08-.64-.12-1.3-.15-1.94-.02-.45-.2-1.56 0-1.95.13-.26-.08-.11.28-.3.5-.26 1.27-.24 1.82-.26-.07 0 .84-.01.84 0l-.43-.39.08.29c-.05.46.15 1.12.16 1.61.02 1.19-.11 2.39 0 3.57.2 2.21 1.34 4.22 3.35 5.26 4.74 2.45 9.65-.96 11.17-5.56.49-1.47-1.73-2.37-2.48-1.05Zm-.56-34.94c-.31-11.76.63-25.18.32-36.94-.02-.6-.02-1.24.27-1.73.48-.82 1.48-.72 2.29-.54.79.18 1.66.41 2.12 1.22.32.56.38 1.28.42 1.97.68 10.65-.06 22.97.26 33.64-1.69.51-3.27 1.52-4.59 2.92"/><path d="M84.83 122.91c.21-10.08.62-20.17.68-30.25v-3.6c0-1.2-.28-2.65-.05-3.81.06-.27.04 0-.09.02.16-.03.36.04.5.06.3.05.82.12 1.05.36.54.55.31 2.42.34 3.14.2 4.95.18 9.92.14 14.88-.05 5.61-.15 11.22.01 16.83l1.25-1.65c-2.03.66-3.89 1.78-5.31 3.39-1.41 1.6.78 3.83 2.35 2.35 1.15-1.08 2.35-1.97 3.86-2.46.7-.23 1.27-.88 1.25-1.65-.15-5.69-.03-11.37.04-17.06.07-5.64.22-11.37-.34-16.99-.26-2.59-1.66-4.06-4.22-4.48-1.15-.19-2.39-.08-3.25.79s-.98 2.2-.96 3.41c.12 5.7 0 11.39-.1 17.08-.13 6.52-.38 13.12.08 19.63.12 1.76 2.73 1.8 2.77 0Z"/><path d="M23.88 88.43c6.23-5.77 17.18-5.91 23.46-.16 1.02.93 2.52.74 3.27-.42 2.03-3.16 5.71-5.08 9.47-4.96 3.66.12 7.1 2.3 8.87 5.48.66 1.19 2.13 1.17 3.07.4 7.11-5.83 18.58-6.03 25.86-.37.82.64 2.09.91 2.89 0 2.65-3.04 6.46-4.84 10.53-4.69 3.93.14 7.49 2.19 9.9 5.23.7.88 2.12.66 2.85 0 5.28-4.78 14.14-4.86 19.54-.22 1.11.95 3.05.7 3.43-.91 1.63-6.92-.64-13.76-3.51-20.03-2.45-5.34-5.67-10.3-9.46-14.8-7.53-8.94-17.57-16.03-28.58-19.98-24.95-8.94-53.64-.59-71.77 18.27-8.73 9.08-15.49 21.81-13.98 34.74.22 1.86 2.84 1.94 2.95 0 .32-5.4 1.23-10.78 3.22-15.83 1.9-4.8 4.75-9.27 8.09-13.19 7.45-8.74 17.53-15.38 28.31-19.26 12.01-4.32 25.02-5.36 37.43-2.1 10.64 2.79 20.35 8.42 28.09 16.23 4.34 4.39 8.02 9.38 10.9 14.84 3.15 5.98 6 13.18 4.34 20.01l3.43-.91c-7.12-6.19-18.29-6.04-25.3.27h2.85c-3.05-3.87-7.82-6.25-12.74-6.44-5.05-.2-10.1 2.07-13.42 5.85h2.89c-9.18-7.17-22.56-7.02-31.52.49 1.02.13 2.05.26 3.07.4-2.53-4.42-7.13-7.41-12.25-7.67-5.25-.27-10.28 2.63-13.06 7.02l3.27-.42c-8.01-7.24-21.09-6.94-28.53.97-1.33 1.42.71 3.45 2.13 2.13Zm34 7.64c-4.49 4.3-9.61 8.28-15.94 9.21-3.48.51-7 .4-10.45 1.19s-6.71 2.09-9.97 3.37c-1.4.55-2.16 1.98-1.38 3.4 4.78 8.71 9.54 17.46 14.74 25.93.61.99 2.22 1.38 3.05.39 2.67-3.18 6.92-4.82 10.72-6.18 4.31-1.55 8.69-2.86 12.76-5 2.22-1.17 4.42-2.4 6.52-3.76.99-.64 1.97-1.31 2.92-2.01s2.06-1.34 2.76-2.25c1.62-2.12-.29-4.02-1.62-5.61-1.33-1.58-2.51-3.29-3.62-5.04-2.58-4.06-4.92-8.42-6.5-12.97-.76-2.19-4.23-1.28-3.51.97 1.25 3.87 2.97 7.63 5 11.15 1.07 1.86 2.22 3.67 3.48 5.42.57.79 1.16 1.57 1.77 2.33.18.22 1.48 2.08 1.75 2.03l.2-.54-.24.2c-.22.1-.47.36-.67.51-.47.36-.95.7-1.43 1.04-.97.68-1.95 1.34-2.95 1.96-1.95 1.22-3.96 2.3-6.06 3.23-3.93 1.73-8 3.02-12.02 4.52-4.55 1.7-8.46 3.89-12.01 7.23l3.05.39c-4.4-8.92-9.26-17.61-14.1-26.3-.46 1.13-.92 2.27-1.38 3.4 3.4-1.36 6.82-2.73 10.4-3.53 3.56-.79 7.24-.73 10.79-1.54 6.51-1.47 11.74-6.2 16.27-10.84 1.49-1.52-.8-3.8-2.33-2.33Z"/><path d="M50.58 111.73c-2.37-.04-4.9.6-6.6 2.35-.85.87-1.47 1.99-1.6 3.2-.16 1.63 1.26 2.62 2.67 2.97 1.24.3 2.48.17 3.73-.01.48-.07.96-.15 1.44-.23-.34.06.28-.03.38-.03.25-.02.5-.03.75-.02.22 0 .45.01.67.04-.33-.04.21.05.29.07.11.03.57.21.28.07.08.04.17.08.25.13.09.05.34.24.13.07.07.06.13.13.2.19.3.26-.07-.15.07.08.02.03.16.33.11.19-.04-.11-.04.22 0 .09 0 .03.01-.48.14-.37 0 0-.65.39-.72.43-1 .53-2.08.89-3.3 1.11-.42.08-.9.13-1.5.15h-.42c.33 0-.08 0 .11.03.33.05-.31-.15-.44-.18l-.44-.06q-.81.12-.15 0c-.49-.04-1.03.3-1.25.72-.49.9-.22 1.94.64 2.5.59.38 1.37.4 2.05.36 1.23-.08 2.47-.3 3.64-.68s2.29-.86 3.27-1.54c1.28-.88 1.87-2.3 1.27-3.79-.89-2.22-3.39-2.95-5.59-2.84-.56.03-1.12.11-1.67.19-.59.09-.87.14-1.39.19-.3.03-.6.04-.9.04-.12 0-.24 0-.36-.01-.33-.02-.17-.01-.09 0a3.2 3.2 0 0 1-.85-.23c.16.07-.08-.05-.08-.06 0 .03.41.66.31.69 0 0 .1-.33.09-.31-.08.26.08-.16.1-.19.05-.09.11-.18.17-.27.17-.29-.08.05.13-.18.48-.5.59-.61 1.2-.94.99-.52 2.41-.75 3.62-1.02 1.66-.37 1.24-2.87-.39-2.9Z"/><path d="M47.11 111.27h-.12l.36.05c-.09-.01-.18-.04-.27-.07l.35.15c-.14-.06-.29-.13-.44-.18a.5.5 0 0 1-.11-.04l.35.15c-.09-.04-.18-.09-.25-.15l.3.23q-.12-.09-.21-.21l.24.31c-.05-.07-.09-.14-.13-.22l.15.36s-.03-.07-.04-.11c-.04-.16-.12-.31-.18-.47l.15.37s-.01-.03-.02-.05c-.05-.2-.14-.37-.27-.52-.11-.17-.25-.3-.43-.39l-.36-.15c-.2-.06-.4-.07-.61-.03-.14 0-.27.04-.38.1-.19.06-.35.17-.49.31l-.24.31c-.14.24-.21.49-.21.77-.02.35.1.66.26.97.09.18.23.33.35.48.05.06.11.12.17.17.15.12.31.26.48.35s.36.17.55.23l.12.03c.16.03.32.07.48.06.38-.02.79-.12 1.11-.33l.27-.21c.13-.12.22-.26.28-.43.06-.1.09-.22.09-.34.04-.18.03-.36-.02-.53l-.13-.32-.21-.27c-.12-.13-.26-.22-.43-.28q-.24-.12-.51-.12Zm3.76 14.08.22.2c.13.14.28.24.46.3.17.09.35.13.55.12.2 0 .38-.03.55-.12.18-.06.33-.16.46-.3l.22-.29c.13-.22.19-.46.2-.72l-.05-.38c-.07-.24-.19-.45-.37-.63l-.2-.22c-.13-.14-.29-.24-.47-.3a1.07 1.07 0 0 0-.56-.12c-.2 0-.38.03-.56.12-.18.06-.33.16-.47.3l-.23.29c-.13.23-.2.47-.2.73l.05.38c.07.24.19.46.37.64Zm-13.3-4.7-.15-.19-.07-.09c-.18-.22-.46-.31-.71-.41a.97.97 0 0 0-.56-.02c-.19 0-.36.06-.52.17l-.28.22c-.17.17-.29.38-.36.62v.05c-.09.28-.08.54-.01.82l.03.12.06.24c.07.26.21.49.4.68s.42.32.68.4l.41.06q.42 0 .78-.21c.18-.1.32-.23.43-.4.14-.15.23-.32.28-.53.07-.27.07-.55 0-.82a1.5 1.5 0 0 0-.4-.68Zm21.47-6.09c1.93 0 1.93-3 0-3s-1.93 3 0 3m63.58-22.63c-4.46.43-8.57 2.19-12.01 5.06-3.08 2.57-7.62 7.54-5.13 11.83 2.28 3.91 7.98 4.24 11.95 3.67 4.57-.66 8.81-2.74 12.41-5.58 3.89-3.07 7.81-7.47 7.64-12.74-1.1.3-2.2.59-3.29.89 1.29 1.75 2.71 3.69 3.07 5.89s-.9 3.91-2.15 5.53c-2.39 3.1-5.66 5.6-9.22 7.22-3.36 1.53-7.75 2.76-11.46 2.03-4.37-.86-5.26-5.09-5.93-8.89-.41-2.31-3.9-1.32-3.51.97.62 3.65 1.55 7.48 4.68 9.8s7.65 2.2 11.41 1.44c7.4-1.48 14.56-6.43 18.46-12.9 2.76-4.56.48-8.98-2.31-12.87-.96-1.34-3.33-.99-3.29.89.07 3.67-2.45 6.65-5.02 9-2.6 2.38-5.77 4.32-9.19 5.27-2.92.81-7.18 1.08-9.78-.8-2.66-1.92 1.45-5.83 2.97-7.26 2.84-2.67 6.34-4.49 10.09-5.49 1.59-.42 1.33-3.13-.4-2.96Z"/><path d="M119.51 100.83a.28.28 0 0 1-.2.08c-.19.03-.19.04-.02.04h.13c-.15-.02-.14-.01.01.03l-.93-1.64c-.09.3.15-.2-.01.05-.04.07-.09.14-.13.21-.07.13.17-.16 0 0-.08.07-.14.14-.22.21-.04.04-.32.24-.05.05-.07.05-.14.1-.22.15-.16.11-.32.23-.48.34-.87.63-1.54 1.25-1.96 2.26-.21.5.11 1.17.5 1.46.45.34 1.05.39 1.55.11 3.01-1.7 6.02-3.39 9.03-5.09-.72-.41-1.44-.83-2.16-1.24-.02.27.07-.13 0 0-.02.05-.05.16-.06.21-.01.15.13-.21 0 0-.04.06-.07.13-.11.19-.05.08-.11.15-.15.23-.08.17.15-.16.02-.02-.12.13-.22.27-.34.4-.55.6-1.13 1.17-1.59 1.85-.62.92-.92 2.28.09 3.06.59.45 1.23.4 1.92.24.56-.13 1.2-.21 1.67-.57.42-.32.7-.73.62-1.29-.07-.49-.42-.97-.93-1.08s-.95-.06-1.46.04c-.16.03-.33.07-.49.1-.08.02-.16.03-.25.05-.39.06-.22.1.53.12l.52.52q.12.315.06.66l.03-.1c-.08.18-.08.19-.01.04l.06-.1c.06-.1.12-.19.18-.29.17-.28-.14.15.06-.08.32-.38.67-.73 1-1.1.83-.9 1.43-1.86 1.52-3.11.07-1.11-1.26-1.75-2.16-1.24-3 1.72-5.99 3.44-8.99 5.16l2.05 1.57c-.13.33.01.03.04-.03.11-.22-.12.09 0 0 .14-.12.26-.28.41-.4.04-.04.33-.24.05-.05.07-.05.14-.11.22-.16.16-.12.32-.23.48-.35.79-.61 1.52-1.3 1.77-2.31a1.36 1.36 0 0 0-.93-1.64c-.86-.27-1.78.01-2.38.67-.45.49-.49 1.27 0 1.76s1.26.45 1.76 0ZM83.48 30.14c.19-2.37.39-4.74.58-7.11.07-.88.27-1.94 1.1-2.25.63-.24 1.36.12 1.76.67s.55 1.23.68 1.89c.44 2.11.87 4.22 1.31 6.33.13.63.2 1.42-.32 1.8-.23.17-.53.2-.82.21-1.36.06-2.74-.29-3.9-1"/><path d="M85.01 30.14c.25-2.3.53-4.59.72-6.9 0-.05.11-.77.03-.34.04-.19.09-.38.13-.57.07-.18.06-.18-.02.01.04-.08.09-.16.14-.23q-.075.165-.24.24c.16-.09.15-.09-.02 0-.1.04-.2.04-.3.01q.285.09.03 0c.17.11.18.11.04.02.13.14.14.15.05.04.21.32.26.64.38 1.15.48 2.21.9 4.43 1.35 6.65.03.2.03.19 0-.02 0 .1.01.19 0 .29.05-.22.05-.24 0-.05.05-.23.19-.4.41-.52.07-.04.15-.06.24-.05h-.36c-.25 0-.5-.01-.74-.05.3.04-.37-.09-.43-.1-.24-.06-.47-.14-.71-.22-.21-.08-.23-.09-.08-.03-.11-.05-.22-.11-.33-.16-.31-.15-.63-.24-.96-.36-1.63-.59-2.98 1.79-1.7 2.92.97.85 2.15 1.28 3.42 1.45s2.79.27 3.77-.66c.9-.86.98-2.06.78-3.21s-.46-2.23-.69-3.33-.47-2.3-.72-3.45c-.26-1.21-.73-2.31-1.75-3.06s-2.38-.84-3.44-.16c-.92.59-1.38 1.63-1.53 2.67-.38 2.63-.39 5.34-.53 7.99-.04.83.74 1.53 1.53 1.53.9 0 1.44-.71 1.53-1.53Z"/><path d="M50.25 84.53c-.72-9.43.86-19.15 4.84-27.76 3.75-8.11 9.2-15.35 17.38-19.32 7.6-3.69 16.46-3.9 24.16-.38 7.71 3.53 13.89 9.84 18.01 17.2 2.48 4.44 4.03 9.18 4.92 14.18a170 170 0 0 1 2.29 18.68c.16 2.29 3.74 2.32 3.59 0-.37-5.95-1.05-11.88-2.02-17.76-.82-4.99-2.07-9.75-4.25-14.33-3.93-8.24-10.35-15.58-18.38-20.01-8.15-4.5-17.7-5.5-26.52-2.35-9.12 3.26-15.94 10.07-20.51 18.48-5.51 10.14-7.94 21.88-6.45 33.35.24 1.81 3.07 1.91 2.92 0Z"/><path d="M72.88 86.05c-.69-7.41-.57-14.92.6-22.28 1.1-6.96 2.88-14.22 5.99-20.58 1.29-2.63 2.96-5.26 5.45-6.91 1.07-.71 2.46-1.5 3.72-.8 1.14.63 1.82 2.06 2.3 3.2 1.42 3.35 2.38 6.98 3.22 10.52s1.49 7.35 1.84 11.08c.4 4.27.39 8.53.24 12.81s-.2 8.72.64 13.04c.44 2.29 3.89 1.31 3.48-.96-.75-4.14-.54-8.39-.4-12.57s.12-8.38-.27-12.56c-.75-7.87-2.34-16.18-5.68-23.4-1.35-2.92-3.85-5.5-7.33-4.95-3.46.55-6.34 3.49-8.25 6.25s-3.22 6.08-4.34 9.3c-1.34 3.84-2.4 7.78-3.19 11.77-1.75 8.89-2.21 18.03-1.16 27.03.23 1.97 3.33 2.03 3.14 0ZM30.42 12.89c-.1 4.25-.34 8.47-.17 12.71.08 2.06 3.12 2.06 3.2 0 .17-4.25-.07-8.47-.17-12.71-.05-1.84-2.81-1.84-2.86 0m1.48 23.69-.07 1.44-.03.69c-.01.25.02.5.03.75.02.39.15.75.43 1.03.25.25.67.44 1.03.43s.77-.14 1.03-.43.4-.63.43-1.03c.01-.24.05-.48.04-.72l-.03-.72-.07-1.44c-.02-.37-.14-.72-.41-.99-.24-.24-.64-.43-.99-.41-.79.04-1.36.61-1.4 1.4Zm8.65-15.31c-.19 2.36-.2 4.72-.23 7.08s-.1 4.72.02 7.08c.11 2.1 3.16 2.1 3.27 0 .12-2.36.05-4.72.02-7.08s-.04-4.72-.23-7.08c-.15-1.83-2.7-1.83-2.84 0Zm11.82 8.94c1.84 0 1.84-2.86 0-2.86s-1.84 2.86 0 2.86m2.02-9.56c1.8 0 1.8-2.8 0-2.8s-1.8 2.8 0 2.8m7.45-7.47c-.06 5.2-.22 10.41-.11 15.6.04 2.09 3.21 2.09 3.25 0 .11-5.2-.05-10.41-.11-15.6-.02-1.95-3.01-1.95-3.03 0m11.62 10.19c1.96 0 1.96-3.05 0-3.05s-1.96 3.05 0 3.05m30.35-10.48c-.02 4.43-.28 8.86 0 13.29.12 1.86 2.77 1.86 2.89 0 .28-4.43.02-8.86 0-13.29 0-1.85-2.87-1.85-2.88 0Zm-7.52 9.49h.29c.19 0 .37-.03.54-.12.17-.06.32-.15.45-.29.14-.13.23-.28.29-.45q.135-.255.12-.54l-.05-.37c-.07-.24-.19-.44-.36-.62l-.28-.22a1.35 1.35 0 0 0-.71-.19h-.29c-.19 0-.37.03-.54.12-.17.06-.32.15-.45.29-.14.13-.23.28-.29.45q-.135.255-.12.54l.05.37c.07.24.19.44.36.62l.28.22c.22.13.45.19.71.19m17.05 6.42c1.88 0 1.88-2.92 0-2.92s-1.88 2.92 0 2.92m2.31-8.43c2.56 0 2.57-3.98 0-3.98s-2.57 3.98 0 3.98M120.6 10c-.07 3.18-.12 6.36-.17 9.54s-.21 6.39.07 9.54c.17 1.94 2.84 1.94 3.02 0 .28-3.15.12-6.37.07-9.54s-.11-6.36-.17-9.54c-.04-1.81-2.78-1.81-2.81 0Zm1.7 27.05c1.72 0 1.72-2.67 0-2.67s-1.72 2.67 0 2.67"/><path d="M122.3 37.05c1.72 0 1.72-2.67 0-2.67s-1.72 2.67 0 2.67m8.53-17.51c-.05 5.35-.18 10.69-.21 16.04-.02 2.63-.05 5.26-.05 7.9s.19 5.42.31 8.14c.09 1.97 2.98 1.97 3.06 0 .12-2.64.31-5.25.31-7.9s-.03-5.43-.05-8.14c-.04-5.35-.16-10.69-.21-16.04-.02-2.03-3.14-2.03-3.16 0m13.36 10.98c0 3.76-.05 7.51.02 11.27.03 1.93 2.97 1.93 3 0 .06-3.76.02-7.51.02-11.27 0-1.95-3.03-1.95-3.03 0Z"/></svg>