<?xml version="1.0" encoding="UTF-8"?><svg xmlns="http://www.w3.org/2000/svg" viewBox="0 0 180 180"><path d="M128.43 33.75c-6.64 4.05-13.52 7.68-20.42 11.26-6.87 3.56-13.7 7.22-20.52 10.87s-13.6 7.41-19.94 11.85c-2.95 2.06-5.68 4.33-6.66 7.95-.88 3.24-.49 7.07.9 10.12 1.32 2.92 4.47 4.58 7.33 2.56.87-.61 1.71-1.85 2.86-1.56 1.54.39 2.89.96 4.48.34 1.28-.5 2.18-1.48 3.02-2.54.62-.78 1.3-1.91 2.33-2.15 1.46-.35 3.12.45 4.6.41s2.9-.61 3.96-1.71c.89-.91 1.44-2.07 2.24-3.05.98-1.19 2.12-1.06 3.55-.93 1.57.14 3.16.09 4.49-.86 1.15-.82 1.8-2.05 2.48-3.25.64-1.13 1.2-1.93 2.6-1.97 1.49-.03 2.95.31 4.44.12 3.24-.41 4.08-2.95 5.63-5.35.72-1.12 1.6-1.13 2.84-.89 1.43.28 2.92.65 4.35.21 1.5-.47 2.38-1.67 2.96-3.05.53-1.26.69-2.21 2.2-2.3s3.15-.18 4.38-1.3c1.11-1.01 1.59-2.5 1.68-3.96.21-3.23-2.23-5.96-1.33-9.21.32-1.15.92-2.08 2.12-2.36 2.08-.48 1.2-3.65-.88-3.19-2.75.61-4.3 3.15-4.72 5.78-.25 1.61-.12 3.15.34 4.72.42 1.42 1.17 2.92.97 4.43-.19 1.46-1.1 1.56-2.39 1.65-1.51.1-2.94.35-4.01 1.52-.93 1.01-1.06 2.37-1.76 3.48-.67 1.07-2 .53-3.03.34-1.45-.27-2.92-.43-4.31.21-1.16.53-1.97 1.52-2.61 2.6-.55.92-.96 2.23-1.86 2.89-.99.72-2.5.36-3.62.28-3.13-.24-5.34.71-6.91 3.49-.46.82-.89 2.07-1.82 2.49-1.36.61-3.31-.15-4.78.07-2.97.44-3.77 2.93-5.61 4.86-.87.91-1.84.76-2.99.54-1.73-.33-3.43-.65-5.1.09-1.02.44-1.84 1.21-2.56 2.04-.58.68-1.28 1.96-2.16 2.29-.43.16-.85-.03-1.26-.16-.78-.25-1.54-.55-2.38-.57-1.68-.03-2.85.91-4.1 1.88-.57.45-.97.93-1.54.26-.9-1.04-1.15-2.89-1.3-4.19-.38-3.26.54-5.96 3.08-8.07 2.75-2.28 5.91-4.16 8.95-6.01s6.39-3.76 9.65-5.53c14.67-8.01 29.74-15.51 43.8-24.57 1.77-1.14.16-3.94-1.66-2.83Z"/><path d="M130.42 33.99c2.45 2.33 4.09 5.51 4.56 8.86 5.09.97 10-1.97 14.51-4.52 5.26-2.97 10.73-5.56 16.37-7.74 1.08-.42 2.21-.85 3-1.69 1.78-1.91 1.14-4.95.38-7.45-.83-2.72-1.96-5.79-4.62-6.8-1.24-.47-2.63-.39-3.94-.15-3.71.69-7.06 2.62-10.3 4.56-6.71 4.03-13.29 8.28-19.73 12.74"/><path d="M129.3 35.11c2.19 2.26 3.51 5.11 3.95 8.21.08.56.71 1.15 1.25 1.25 6.83 1.23 12.68-2.86 18.41-5.92 3.07-1.64 6.22-3.16 9.42-4.54 2.77-1.19 6.59-1.93 8.45-4.5 1.68-2.33 1.27-5.4.56-8-.71-2.58-1.66-5.44-3.62-7.35-4.89-4.77-12.91-.25-17.64 2.55-6.98 4.13-13.85 8.52-20.48 13.18-2.18 1.53-.13 5.14 2.11 3.62 5.15-3.51 10.34-6.96 15.64-10.24 2.59-1.61 5.18-3.26 7.89-4.67 2.25-1.17 5.06-2.49 7.66-2.3 2.24.16 3.29 2.2 3.96 4.09s1.76 4.5.98 6.44c-.36.9-1.29 1.3-2.13 1.64-1.49.62-3 1.19-4.49 1.82a122 122 0 0 0-8.2 3.84c-2.95 1.52-5.77 3.27-8.72 4.78-2.7 1.38-5.75 2.61-8.84 2.12l1.25 1.25c-.6-3.67-2.42-6.99-5.16-9.5-1.5-1.38-3.67.77-2.24 2.24Zm-2.77 51.45c-9.35 2.26-18.71 4.53-27.84 7.58-4.53 1.51-8.99 3.23-13.34 5.19-4.09 1.84-8.27 3.81-11.79 6.63-3.33 2.67-5.61 6.53-5.24 10.91.4 4.75 2.96 8.68 5.69 12.42 1.3 1.78 2.58 3.64 3.4 5.7.87 2.19 1.07 4.49.95 6.83s-.49 4.66-.4 7.01c.09 2.21.68 4.32 1.64 6.3 3.77 7.71 12.82 11.43 20.88 12.39 4.71.56 9.56.12 14.11-1.19 4.61-1.33 8.8-3.7 13.14-5.67 7.61-3.44 16.12-4.49 23.5-8.48 7.66-4.15 12.48-11.81 14.23-20.24.92-4.42.57-9.13-3.05-12.27-1.57-1.35-3.36-2.41-4.97-3.71a45.6 45.6 0 0 1-4.76-4.46c-2.88-3.12-5.26-6.66-7.11-10.48-1.01-2.09-1.85-4.28-3.11-6.24-1.13-1.75-2.59-3.31-4.22-4.61-1.73-1.38-3.59-2.44-5.62-3.29-1.97-.83-3.44 2.61-1.47 3.48 3.59 1.59 6.38 4.22 8.28 7.65 1.06 1.91 1.84 3.96 2.82 5.91.89 1.76 1.89 3.46 3 5.09 2.33 3.41 5.07 6.54 8.21 9.22 1.53 1.31 3.15 2.47 4.78 3.63 1.52 1.08 2.76 2.26 3.2 4.13.84 3.55-.72 7.83-2.09 11.06-1.54 3.6-3.79 6.9-6.88 9.33-5.94 4.68-13.8 6.01-20.79 8.37-8.19 2.78-15.45 8.11-24.28 8.78-7.72.58-16.54-1.37-21.93-7.3-2.61-2.87-3.49-6.28-3.51-10.1-.03-4.45.42-8.73-1.39-12.93-1.65-3.83-4.25-7.16-6.22-10.82-1.87-3.45-2.91-7.57-.4-10.98 2.22-3.01 5.93-4.78 9.16-6.46 3.93-2.05 7.98-3.84 12.11-5.43 8.42-3.23 17.11-5.68 25.82-7.98 2.12-.56 4.25-1.11 6.37-1.66s1.24-3.83-.91-3.31Z"/><path d="M78.06 105.5c-2.38 2.56-2.63 6.56-1.53 9.87 1.1 3.32 3.33 6.12 5.5 8.86 2.18 2.73 4.39 5.55 5.47 8.88 1.25 3.9.82 8.1.55 12.19-.11 1.64-.17 3.37.54 4.85.55 1.15 1.52 2.04 2.49 2.87 2.08 1.79 4.3 3.48 6.87 4.46 5.9 2.25 12.57.38 18.27-2.32 5.71-2.7 11.13-6.25 17.31-7.55 3.68-.78 7.51-.72 11.17-1.63 9.23-2.3 16.05-10.57 19.09-19.59-1.1 3.92-2.46 7.76-4.08 11.49-1.93 4.44-4.47 8.99-8.79 11.18-4.54 2.3-10.04 1.49-14.9 3.01-1.84.57-3.56 1.47-5.26 2.38-8.66 4.6-17.92 9.58-27.67 8.52-2.67-.29-5.26-1.03-7.82-1.84-5-1.57-10.57-4.06-11.97-9.11-.8-2.87-.02-5.91-.06-8.88-.05-3.63-1.31-7.11-2.56-10.52-.49-1.34-.99-2.7-1.81-3.87-.77-1.1-1.78-1.99-2.65-3.01-3.36-3.93-4.28-9.78-2.29-14.55"/><path d="M76.96 104.4c-3.09 3.32-3.39 8.15-1.8 12.25 1.83 4.71 5.47 8.21 8.24 12.33 1.41 2.09 2.47 4.3 2.89 6.8s.26 4.99.1 7.46c-.15 2.39-.52 4.93.4 7.22.87 2.16 2.75 3.66 4.53 5.07 3.89 3.08 8.24 4.97 13.28 4.71 4.99-.26 9.68-2.11 14.1-4.32 4.44-2.22 8.79-4.8 13.61-6.14s10.14-.88 14.98-2.62c9.03-3.24 15.29-11.42 18.33-20.26l-3.65-1.01c-1.32 4.66-2.93 9.32-5.13 13.65-1.83 3.61-4.35 7.17-8.36 8.48-4.41 1.44-9.2.86-13.6 2.41-4.58 1.61-8.75 4.38-13.14 6.44-4.27 2-8.85 3.76-13.59 4.12-4.81.37-9.45-.81-13.96-2.4-3.18-1.12-6.81-2.75-8.46-5.88-1.06-2-.83-4.32-.66-6.5.2-2.59.14-5.07-.42-7.61s-1.53-5.2-2.52-7.7c-.49-1.23-1.02-2.43-1.82-3.49-.82-1.09-1.82-2.01-2.69-3.05-2.95-3.51-3.43-8.47-1.85-12.66.36-.97-.41-2.07-1.33-2.34-1.09-.31-1.94.39-2.34 1.33-1.78 4.23-1.42 9.12.58 13.21 1.09 2.24 2.91 3.75 4.38 5.69 1.49 1.96 2.19 4.68 2.94 6.99.79 2.45 1.36 4.92 1.27 7.5-.1 2.76-.61 5.51.05 8.25.99 4.12 4.48 7.03 8.16 8.78 4.33 2.05 9.28 3.57 14.05 3.98 5.14.44 10.39-.82 15.16-2.66 4.94-1.91 9.54-4.48 14.23-6.91 2.22-1.15 4.45-1.94 6.92-2.31 2.46-.37 4.95-.48 7.4-.95 5.4-1.03 9.28-4.39 11.97-9.07 2.89-5.02 4.82-10.73 6.39-16.28.67-2.36-2.86-3.29-3.65-1.01-2.4 6.98-7.08 13.51-13.81 16.84-4.07 2.01-8.62 2.11-13.03 2.75-4.59.67-8.81 2.52-12.91 4.62-7.41 3.8-16.77 9.47-25.14 5.02-1.94-1.03-3.7-2.41-5.31-3.89-.68-.63-1.35-1.29-1.69-2.17-.4-1.06-.32-2.26-.26-3.37.26-4.65.83-9.43-.89-13.9-1.85-4.79-5.6-8.31-8.43-12.49-2.39-3.53-4.5-8.94-1.35-12.72 1.26-1.51-.81-3.69-2.2-2.2Z"/><path d="M105.15 137.4c1.04-1.88 2.16-3.74 3.39-5.5.57-.83 1.2-1.62 1.78-2.45.72-1.04 1.35-2.25 1.01-3.54-.37-1.39-2.16-1.47-2.9-.38-.18.27-.3.53-.42.83.13-.33-.12.29-.13.31.07-.17.03-.06-.02.04-.21.41-.45.8-.71 1.17-.58.83-1.19 1.65-1.74 2.5a37.5 37.5 0 0 0-2.96 5.42c-.34.77-.23 1.69.56 2.15.72.42 1.74.18 2.15-.56Z"/><path d="M100.6 130.15a78 78 0 0 0 9.44 2.93c.56.14 1.12.26 1.69.38.24.05.48.1.73.15.1.02.98.26.58.07l-.57-.57.07.09-.22-.8v.11c.15-.37.3-.74.46-1.11l-.08.08 1.51-.4-.09-.02c-1.44-.37-2.61 1.47-1.48 2.55l.06.06c.39.37.98.56 1.51.4.96-.3 1.57-1.3 1.17-2.28-.33-.79-1.05-1.04-1.82-1.2-1.37-.28-2.74-.58-4.1-.91-2.72-.67-5.4-1.49-8.03-2.45-.77-.28-1.67.32-1.87 1.06-.24.86.29 1.58 1.06 1.87Zm28.89-.68c1.04-1.88 2.16-3.74 3.39-5.5.57-.83 1.2-1.62 1.78-2.45.72-1.04 1.35-2.25 1.01-3.54-.37-1.39-2.16-1.47-2.9-.38-.18.27-.3.53-.42.83.13-.33-.12.29-.13.31.07-.17.03-.06-.02.04-.21.41-.45.8-.71 1.17-.58.83-1.19 1.65-1.74 2.5a37.5 37.5 0 0 0-2.96 5.42c-.34.77-.23 1.69.56 2.15.72.42 1.74.18 2.15-.56Z"/><path d="M124.94 122.22a78 78 0 0 0 9.44 2.93c.56.14 1.12.26 1.69.38.24.05.48.1.73.15.1.02.98.26.58.07l-.57-.57.07.09-.22-.8v.11c.15-.37.3-.74.46-1.11l-.08.08 1.51-.4-.09-.02c-1.44-.37-2.61 1.47-1.48 2.55l.06.06c.39.37.98.56 1.51.4.96-.3 1.57-1.3 1.17-2.28-.33-.79-1.05-1.04-1.82-1.2-1.37-.28-2.74-.58-4.1-.91-2.72-.67-5.4-1.49-8.03-2.45-.77-.28-1.67.32-1.87 1.06-.24.86.29 1.58 1.06 1.87Zm-23.66-8.98c2.33 1.01 4.74 1.79 7.25 2.22s5.24.71 7.69-.34c2.11-.9 3.92-2.43 5.26-4.28 1.12-1.54 2.65-4.44 1.86-6.37-.51-1.23-2.24-1.73-3-.39-.46.81-.48 1.76-.77 2.64-.24.74-.61 1.42-1.04 2.06-.95 1.41-2.38 2.69-3.97 3.31-1.81.71-4 .4-5.87.08-2.13-.36-4.2-.97-6.21-1.79-1.63-.67-2.84 2.16-1.21 2.87Zm-31.91.92c-5.02-3.25-10.29-8.44-10.56-14.42-.22-4.71-.12-15.06-1.2-19.65-.88-3.77-3.42-6.92-4.83-10.52-2.36-5.98-1.18-13.41 3.48-17.84 2.68-2.55 6.24-3.97 9.79-4.99 9.69-2.78 19.96-2.98 29.72-5.48 3.3-.84 6.56-1.95 9.94-2.33 3.39-.37 7.02.07 9.77 2.08-3.19.54-5.81 2.73-8.44 4.62C95.33 54 80.59 57.26 68.83 65.56c-2.86 2.02-5.6 4.43-7.03 7.62-.91 2.02-1.25 4.26-1.45 6.47-.23 2.6-.24 5.36 1.03 7.63s4.23 3.8 6.58 2.67c1.68-.81 3.02-2.84 4.85-2.47.6.12 1.12.5 1.72.64 1.37.32 2.69-.68 3.6-1.76s1.71-2.35 3-2.9c2.63-1.12 5.75 1.32 8.43.3 1.66-.63 2.56-2.36 3.53-3.84s2.5-2.98 4.25-2.66c.92.17 1.71.83 2.64.9 1.57.13 2.75-1.38 3.44-2.8s1.34-3.06 2.79-3.67c1.9-.8 4.22.61 6.09-.25 2.53-1.16 2.38-5.55 5.04-6.37.3 7.17.28 14.35-.07 21.51-.04.81-.1 1.67-.6 2.31-.42.55-1.09.84-1.73 1.1-7.5 3.05-15.47 4.75-23.17 7.26s-15.33 5.99-20.91 11.86c-.41.43-.82.88-1.35 1.15-1.75.87 1.51-2 .25-3.49-1.31-1.55-.36 6.27-1.45 4.57"/><path d="M70.12 112.87c-3.15-2.37-6.28-5.21-8.13-8.74-1.57-2.98-1.3-6.27-1.38-9.54-.08-3.57-.15-7.15-.49-10.71-.14-1.51-.31-3.04-.68-4.51-.53-2.1-1.53-4.06-2.56-5.95-1.92-3.53-3.51-6.87-3.31-10.99.17-3.61 1.66-7.15 4.37-9.58 3.22-2.88 7.72-4.08 11.82-5.03 4.76-1.1 9.61-1.72 14.45-2.42 5.47-.79 10.78-1.89 16.12-3.34 4.65-1.26 9.93-2.3 14.17.64l.46-3.54c-2.72.53-5.04 2.03-7.24 3.63-2.15 1.57-4.31 3.08-6.62 4.4-4.84 2.78-9.99 4.98-15.09 7.21-5.04 2.2-10.09 4.44-14.8 7.3-4.61 2.81-9.36 6.2-11.45 11.38-1.03 2.57-1.35 5.48-1.44 8.23-.09 2.69.31 5.6 1.98 7.8 1.42 1.86 3.67 3.2 6.06 3.15 1.24-.03 2.41-.47 3.42-1.17.64-.44 1.76-1.76 2.6-1.75.36 0 .79.32 1.11.45.56.21 1.17.33 1.77.3 1.41-.08 2.67-.84 3.67-1.79.89-.85 1.49-2.08 2.49-2.81.9-.66 2.03-.37 3.03-.15 2.47.56 4.97 1.08 7.17-.56.97-.72 1.68-1.67 2.34-2.67s1.21-2.15 2.24-2.74c1.13-.64 2.55.67 3.77.72 1.39.07 2.72-.63 3.65-1.62s1.44-2.18 2.05-3.37c.56-1.08.99-1.77 2.29-1.71 1.41.06 2.75.49 4.17.16 1.28-.3 2.29-1.06 3.06-2.1.59-.79.97-1.69 1.39-2.58.27-.56.63-1.65 1.28-1.89-.83-.64-1.67-1.27-2.5-1.91a248 248 0 0 1-.01 20.04c-.04.99.24 2.38-.77 2.88-2.11 1.05-4.51 1.72-6.75 2.44-9.38 2.99-19.15 4.98-27.93 9.6-2.27 1.2-4.43 2.57-6.45 4.15-.97.75-1.91 1.54-2.8 2.39-.48.46-.94.94-1.41 1.42-.13.13-.26.27-.4.4-.35.33-.32.06.21.07l.99.27-.04-.03.9 1.17v-.05c-.01.35-.01.7-.01 1.04.04-.25-.25.34-.07.14.06-.07.1-.2.15-.28.15-.26.3-.53.43-.8.36-.75.66-1.57.63-2.42-.07-1.83-2.03-3.85-3.84-2.46-1.03.8-1.09 2.19-1.15 3.39-.03.57-.03 1.14-.06 1.7-.01.24-.05.48-.05.72 0-.15.12-.31.01-.14l.34-.52.85-.5.42-.05.97.26c.19.12.34.27.46.45-1.41-2.01-4.74-.09-3.32 1.94.68.96 1.81 1.59 2.96.92.89-.52 1.09-1.5 1.19-2.44.08-.72.1-1.44.14-2.16.01-.19.02-.37.04-.56 0-.07.07-.62.02-.32s.02-.19.05-.22c.34-.35-.28.44-.29.45l-.87.5-1.59-.41a.8.8 0 0 1-.16-.24c-.01 0-.07-.25-.03-.24.07.02-.24.62-.3.72-.43.81-.97 1.57-.72 2.54.3 1.15 1.48 1.72 2.58 1.44 1.19-.3 2.04-1.25 2.86-2.09 3.89-3.98 8.81-6.82 13.93-8.93 5.66-2.34 11.61-3.86 17.49-5.55 2.99-.86 5.97-1.76 8.9-2.82 1.34-.49 2.8-.92 4.04-1.64 1.45-.85 2.12-2.25 2.3-3.87.41-3.64.32-7.42.34-11.08.02-3.75-.06-7.5-.22-11.24-.05-1.19-1.24-2.37-2.5-1.91-1.92.7-2.92 2.17-3.75 3.97-.32.7-.61 1.52-1.11 2.13-.55.67-1.35.55-2.14.46-2.36-.25-4.55-.36-6.27 1.59-.72.82-1.18 1.79-1.66 2.76-.32.67-.89 2.1-1.78 2.18-.27.02-.77-.31-1.05-.43-.63-.27-1.22-.48-1.92-.52-1.33-.09-2.55.43-3.59 1.24-.95.74-1.67 1.69-2.33 2.69-.55.85-1.07 1.93-1.94 2.5-.73.48-1.56.39-2.39.23-1.25-.24-2.46-.62-3.74-.71-2.59-.18-4.37 1.24-5.91 3.15-.49.61-1.33 1.89-2.24 1.87-.5-.01-1.06-.46-1.54-.59-.65-.18-1.31-.2-1.97-.06-1.06.22-1.92.8-2.76 1.46-.71.55-1.46 1.28-2.4 1.33-2 .11-3.42-1.8-3.88-3.53-.66-2.45-.34-5.35.14-7.81 1.02-5.2 4.85-8.39 9.11-11.14 4.33-2.79 8.99-5.02 13.68-7.12 5.29-2.36 10.65-4.58 15.75-7.34 2.59-1.4 5.1-2.94 7.49-4.67s4.52-3.39 7.33-3.92c1.79-.34 1.7-2.68.46-3.54-4.03-2.83-9.14-2.83-13.79-1.89-2.51.51-4.95 1.29-7.42 1.93s-5.23 1.17-7.87 1.6c-5.13.84-10.31 1.4-15.43 2.38-4.75.91-9.75 2.05-13.93 4.59-7.43 4.51-10.29 14.1-7.15 22.14 1.58 4.03 4.4 7.49 5.09 11.84.58 3.6.59 7.31.69 10.95.11 4.09-.18 8.33 1.57 12.13 2.08 4.53 6.12 8.02 10.38 10.43 1.72.97 3-1.45 1.51-2.58Z"/><path d="M117.91 41.85c.44-3.56-4.8-5.7-7.33-6.74-5.58-2.3-11.55-3.74-17.42-5.06-6.62-1.49-13.33-2.6-20.04-3.59-4.05-.6-8.12-1.21-12.2-1.53-4.88-.38-9.74 0-14.58.72-4.7.7-9.32 1.79-13.9 3.02-3.38.9-6.8 1.7-10.04 3.04-3.45 1.43-6.61 3.39-8.89 6.4S9.68 44.8 8.76 48.44c-.98 3.86-1.2 7.95-.11 11.81 1.17 4.13 3.82 7.54 5.42 11.47 1.77 4.34 1.3 8.86.25 13.31-.54 2.3-.89 4.55-.42 6.89.4 2 1.58 3.83 2.83 5.41 1.37 1.74 3.06 2.86 4.9 4.05 1.83 1.18 3.57 2.38 5.58 3.25 4.35 1.88 8.88 3.2 13.34 4.75s9.41 3.09 14.18 4.34c4.18 1.09 8.5 2.84 12.85 2.95 2.07.05 4.05-.4 5.86-1.42 2.13-1.2.22-4.48-1.92-3.28-3.29 1.86-7.32.87-10.71-.18-4.46-1.37-8.81-3.1-13.29-4.44s-8.7-2.49-13.02-3.85c-2.07-.65-4.13-1.34-6.15-2.14-1.86-.74-3.84-1.37-5.47-2.56-1.51-1.1-2.9-2.92-3.76-4.57-.8-1.54-1.18-3.4-1.12-5.13.07-2.15.81-4.26 1.11-6.39.31-2.21.36-4.34.08-6.55-.54-4.28-2.4-7.76-4.42-11.5-.91-1.68-1.82-3.41-2.29-5.28-.41-1.62-.41-3.33-.32-4.99.35-6.43 3.16-13.86 8.96-17.21 2.8-1.62 5.93-2.51 9.04-3.32 3.89-1.02 7.79-2.07 11.73-2.88 4.34-.89 8.74-1.52 13.18-1.68 4.51-.16 9 .4 13.46.98 6 .79 12.07 1.75 18.07 2.82s12.04 2.21 17.93 3.85c2.29.64 4.67 1.39 6.77 2.31.57.25 1.46.67 2.11 1.08s.76.43 1.29 1.06c-.37-.45.48.63.07.12.03.03.09.24.07.28.09-.21-.02-.23-.04.05-.14 2.05 2.9 1.95 3.14 0Z"/><path d="M19.91 66.3c5.13 4.18 11.7 5 17.85 6.83 3.66 1.09 7.11 2.74 10.64 4.18 1.85.75 3.72 1.44 5.59 2.13 1.75.64 3.94 1.95 5.81 1.52.89-.2 1.52-1.48.92-2.27-1.15-1.53-3.32-1.91-5.05-2.54-1.79-.66-3.58-1.34-5.39-1.94a367 367 0 0 0-10.7-3.32c-5.96-1.76-12.9-2.36-17.9-6.36-1.25-1-3.04.75-1.78 1.78Zm6.76-22.69c6.12 1.5 12.24 3.02 18.37 4.5 2.99.72 5.92 1.59 8.88 2.4 2.82.77 5.91 1.54 8.83.97 1.87-.37 1.47-3.47-.45-3.35-1.39.09-2.72.14-4.11-.05s-2.76-.57-4.16-.8c-3.04-.51-6.02-1.19-9.02-1.9-5.9-1.39-11.8-2.73-17.71-4.09-1.51-.35-2.15 1.95-.64 2.32Zm20.48-8.11h-.21c-.21-.02-.4.03-.58.12-.19.06-.35.16-.48.31-.15.14-.25.3-.31.48-.09.18-.14.37-.13.58l.05.4q.105.375.39.66l.3.23c.23.14.49.2.76.2h.21c.21 0 .4-.04.57-.14.18-.06.35-.16.48-.31.15-.14.25-.3.31-.48.09-.18.14-.37.13-.57l-.05-.4c-.07-.25-.2-.47-.38-.66l-.3-.23c-.23-.13-.48-.2-.75-.2Zm8.51.44c1.85 0 1.85-2.88 0-2.88s-1.85 2.88 0 2.88m.63 6.22c1.84 0 1.84-2.86 0-2.86s-1.84 2.86 0 2.86m7.27-3.88c1.65 0 1.65-2.56 0-2.56s-1.65 2.56 0 2.56m10.17-1.45c2.19 0 2.2-3.41 0-3.41s-2.2 3.41 0 3.41m16.69 85.56c1.74 0 1.74-2.7 0-2.7s-1.74 2.7 0 2.7m4.29-2.91c1.73 0 1.73-2.69 0-2.69s-1.73 2.69 0 2.69m.14 5.07h.14c.14 0 .27-.02.39-.09.13-.04.23-.11.33-.21q.15-.135.21-.33a.86.86 0 0 0 .09-.39l-.04-.27c-.05-.17-.14-.32-.26-.45l-.21-.16a1.03 1.03 0 0 0-.51-.14h-.14c-.14 0-.27.02-.39.09-.13.04-.23.11-.33.21q-.15.135-.21.33a.86.86 0 0 0-.09.39l.04.27c.05.17.14.32.26.45l.21.16c.16.09.33.14.51.14m37.52-13.5c1.93 0 1.93-3 0-3s-1.93 3 0 3m4.71-3.19c1.93 0 1.93-3 0-3s-1.93 3 0 3m2.32 2.78-.05-.11q-.18-.3-.48-.48c-.21-.12-.44-.18-.68-.18s-.47.06-.68.18q-.3.18-.48.48l-.05.11c-.13.22-.19.46-.19.71s.06.49.19.71c.13.21.29.38.5.5.22.13.46.19.71.19s.49-.06.71-.19c.21-.13.38-.29.5-.5.13-.22.19-.46.19-.71s-.06-.49-.19-.71m-113.16-1.26c-1.95 2.5-3.53 5.09-4.19 8.23-.6 2.87-.51 5.93.4 8.73 1.84 5.67 6.55 9.92 12.42 11.04 5.98 1.15 13.62 1.1 18.72-2.66 4.49-3.3 6.73-9.48 3.16-14.32-1.69-2.28-4.33-3.52-7.18-3.2-3.15.36-5.9 2.26-8.15 4.41-4.27 4.1-7.44 10.3-5.69 16.3 1.71 5.87 7.3 9.57 13.05 10.73 5.73 1.16 13.87 1.38 17.67-3.94 1.75-2.45 2.31-6.49-.4-8.51-2.93-2.2-6.39.15-8.58 2.27-2.36 2.29-4.21 5.27-3.18 8.67.93 3.05 3.59 5.34 6.29 6.83 1.81 1 3.27-1.59 1.6-2.74s-3.53-2.52-4.42-4.41c-.97-2.06.05-3.89 1.51-5.4.78-.81 3.86-4.13 5-2.48s-.67 3.9-1.87 4.83c-1.85 1.43-4.32 1.75-6.59 1.79-2.46.05-4.94-.15-7.32-.8-4.11-1.11-8.12-3.88-9.2-8.21s1.38-8.67 4.27-11.67c2.45-2.54 7.55-6.18 10.28-2.03 2.18 3.31.05 7.17-2.94 9.07-4 2.53-9.59 2.49-14.12 1.83-4.85-.71-8.87-3.59-10.66-8.24-1.8-4.68-.77-10.53 2.26-14.48.93-1.22-1.19-2.88-2.15-1.66Zm66.61-86.93c-.14-.14-.27-.29-.4-.45l.23.3c-.25-.33-.46-.69-.62-1.07l.16.38c-.07-.17-.12-.35-.19-.52a2 2 0 0 1-.08-.24.6.6 0 0 0-.04-.12c-.08-.27-.21-.51-.41-.71-.02-.02-.03-.04-.05-.06l.24.32c-.05-.07-.1-.13-.14-.2-.14-.2-.31-.4-.52-.52-.28-.17-.61-.22-.93-.17-.26.04-.48.13-.69.29-.24.19-.45.45-.52.76-.01.06-.03.12-.04.19 0 .02 0 .05-.01.07-.01.08-.03.17-.03.25-.04.14-.04.28 0 .43.03.2.07.39.14.58.13.38.31.75.53 1.08.36.56.8 1.08 1.32 1.49.13.14.29.24.47.3.17.09.36.13.56.13.36 0 .79-.16 1.03-.43s.45-.64.43-1.03-.15-.75-.43-1.03Zm12.39-1.62-.39-1.59-.19-.77c-.09-.38-.17-.79-.4-1.12-.19-.28-.41-.49-.73-.62s-.67-.18-.99-.08c-.65.21-1.11.78-1.12 1.47 0 .43.13.78.27 1.16l.27.74c.19.51.38 1.03.57 1.54.13.35.31.64.64.84.3.18.74.25 1.08.14.74-.24 1.16-.96.98-1.72Zm13.02-1.7c0-.37.02-.75.07-1.12l-.06.41c.04-.28.09-.55.16-.82.03-.13.07-.26.1-.39.06-.26.08-.52.09-.78l-.05-.4q-.075-.285-.27-.51c-.19-.25-.46-.46-.78-.53-.26-.06-.53-.06-.79 0-.39.09-.67.38-.89.69-.42.59-.5 1.33-.59 2.04-.06.47-.08.94-.06 1.42.02.4.16.79.45 1.08.27.27.7.47 1.08.45s.81-.15 1.08-.45.45-.67.45-1.08Zm14.25.23.21-.42c.12-.19.19-.4.2-.63.05-.22.04-.45-.03-.67a1.2 1.2 0 0 0-.3-.57c-.12-.18-.28-.33-.47-.43l-.4-.17q-.45-.12-.9 0l-.4.17c-.25.15-.46.35-.61.61l-.21.42c-.12.19-.19.4-.2.63-.05.22-.04.45.03.67q.075.33.3.57c.12.18.28.33.47.43l.4.17q.45.12.9 0l.4-.17c.25-.15.46-.35.61-.61"/></svg>