<?xml version="1.0" encoding="UTF-8"?><svg xmlns="http://www.w3.org/2000/svg" viewBox="0 0 180 180"><path d="M53.1 85.61c4.67 2.05 8.83-1.93 13.45-2.03 4.77-.1 9.21 2.37 13.84 3.15 2.58.44 5.1.3 7.62-.42 2.48-.71 4.91-1.85 7.54-1.73s4.92 1.15 7.38 1.63c2.5.49 4.92.43 7.27-.64 2.6-1.19 4.75-3.33 6.73-5.35 2.17-2.22 4.09-4.62 5.95-7.1.65-.86-.01-2.36-1.04-2.55-21.14-3.96-42.62-5.77-64.03-7.56-6.04-.51-12.1-1.11-18.15-1.44-1.16-.06-2.11 1.02-2.12 2.12-.11 8.86 6.43 14.74 12.69 19.97 1.57 1.31 3.84-.91 2.26-2.26-5.17-4.46-11.46-10.19-10.72-17.7l-2.12 2.12c10.57 1.12 21.23 1.68 31.83 2.51 10.63.83 21.24 1.9 31.82 3.23 6.03.76 12.04 1.62 18.06 2.43-.5-.87-1-1.74-1.5-2.62-1.44 2.14-3.09 4.14-4.84 6.02-1.63 1.75-3.35 3.61-5.41 4.85-4.4 2.65-9.09-.43-13.67-.82-2.46-.21-4.81.53-7.12 1.27-2.4.77-4.64 1.29-7.17.89-4.48-.72-8.53-3.07-13.06-3.55-2.61-.28-5.01.22-7.36 1.34s-4.52 3-7.18 1.98c-1.29-.5-2.23 1.69-.95 2.26"/><path d="M77.24 22.35c-.68 7.2-1.72 14.34-2.61 21.51q-.66 5.31-1.29 10.62c-.21 1.81-.42 3.62-.59 5.43s-.57 3.65-.46 5.43c.12 1.92 2.79 2.37 3.39.46.53-1.7.58-3.62.83-5.38.25-1.81.47-3.63.67-5.45.4-3.62.75-7.24 1.07-10.87.64-7.25 1.02-14.51 1.66-21.76.15-1.73-2.53-1.71-2.69 0Z"/><path d="M77.64 23.24c2.06 3.45 4.88 6.58 7.45 9.65 2.61 3.13 5.24 6.24 7.96 9.27 5.44 6.08 11.05 11.97 17 17.53l1.11-2.69c-2.82.08-5.56-.9-8.25-1.61s-5.53-1.06-8.35-1.21c-5.57-.29-11.23.25-16.69-1.15-2.35-.6-3.35 3-1 3.63 5.63 1.5 11.46 1.17 17.22 1.32 2.83.07 5.55.41 8.3 1.03 2.92.65 5.75 1.31 8.76 1.14 1.37-.08 2.06-1.66 1.11-2.69-5.46-5.93-10.97-11.85-16.31-17.9-2.64-2.99-5.28-5.99-7.86-9.04s-5.06-6.43-7.97-9.23c-1.29-1.24-3.45.35-2.5 1.93ZM48.29 81.57c-4.12-.02-8.23.83-12.01 2.47-.71.31-1.48.73-1.66 1.48-.27 1.1.88 2 1.89 2.51 6.32 3.15 19.22 4.26 26.16 4.77 21.35 1.57 37.92 1.84 58.81-3.5 1.03-.26 2.24-.74 2.4-1.79.19-1.24-1.23-2.06-2.42-2.46-1.78-.59-3.59-1.09-5.42-1.48-.78-.17-1.61-.31-2.36-.03-.63.24-1.1.75-1.61 1.19-2.79 2.39-6.85 2.56-10.49 2.06s-7.27-1.55-10.93-1.17c-3.39.36-6.64 1.94-10.05 1.76-5.5-.3-10.39-5.15-15.79-4.06-1.23.25-2.38.8-3.59 1.16-3.05.91-6.47.54-9.25-1.02-1.5-.84-2.94-2.05-4.66-2.05"/><path d="M48.29 79.8c-3.7-.14-7.38.26-10.87 1.52-1.54.56-3.39 1.13-4.34 2.56s-.68 3.35.51 4.62c1.76 1.87 4.77 2.65 7.18 3.3 2.76.75 5.59 1.24 8.42 1.65 5.73.82 11.52 1.2 17.29 1.59 7.08.47 14.21.88 21.3.67 6.92-.2 13.79-.69 20.64-1.75 3.62-.56 7.22-1.27 10.78-2.11 2.63-.62 7.64-1.53 6.53-5.44-.89-3.12-5.35-3.81-8.01-4.45-1.64-.39-3.4-.85-5-.09-1.37.65-2.28 1.91-3.71 2.49-2.91 1.2-6.27.71-9.27.2-3.81-.65-7.5-1.29-11.34-.52-2.01.4-3.97 1.12-6.01 1.33-1.68.18-3.24-.11-4.83-.66-3.14-1.08-6.02-2.95-9.34-3.46-1.76-.27-3.46-.17-5.15.39-1.85.61-3.52 1.31-5.51 1.27-1.73-.04-3.38-.54-4.87-1.41-1.73-1.01-3.28-2.01-5.34-2.11-2.61-.13-2.59 3.9 0 4.05 1.33.08 2.51 1.16 3.63 1.79 1.36.76 2.85 1.31 4.39 1.58 1.42.25 2.84.3 4.27.12 1.68-.21 3.15-.82 4.75-1.31 2.53-.78 4.89-.01 7.26.95 2.54 1.03 4.99 2.28 7.73 2.67 3.17.45 6.14-.51 9.19-1.24 3.46-.83 6.71-.33 10.16.29 2.99.54 5.95.94 8.97.46 1.34-.21 2.64-.63 3.84-1.27.59-.31 1.13-.69 1.65-1.11.56-.45.94-1.02 1.69-1.02 1.46.01 3.15.69 4.53 1.1.66.2 1.4.35 2.01.67.13.07.29.2.43.23.23.26.28.3.16.1.22-.5.24-.63.05-.41-.1-.05-1.4.49-1.53.52-.77.2-1.55.39-2.33.57-1.67.39-3.34.76-5.02 1.1a135 135 0 0 1-18.57 2.39c-12.05.72-24.36.07-36.36-1.16-5.59-.57-11.26-1.23-16.67-2.79-1.09-.31-2.19-.66-3.23-1.11-.52-.23-.99-.56-1.49-.8l-.25-.25c.14.23.16.48.05.73.1.04.58-.28.72-.35 3.36-1.51 7.27-2.36 10.94-2.53 2.28-.1 2.29-3.46 0-3.55Zm31.74-55.13a223 223 0 0 0 1.58-11.06c.15-1.27.46-2.66.28-3.95-.11-.77-1.03-1.33-1.75-1.33-.84 0-1.47.58-1.75 1.33-.24.65-.22 1.46-.29 2.14l-.17 1.66c-.12 1.2-.24 2.4-.33 3.6-.2 2.4-.34 4.8-.47 7.21-.09 1.63 2.63 2.05 2.9.39Z"/><path d="M80.53 10c1.27 1.47 3.19 2.18 4.97 2.95 3.82 1.65 7.42 3.82 10.67 6.43-5.44.77-10.92 1.22-16.41 1.33"/><path d="M79.18 10.79c1.74 2.62 4.94 3.47 7.62 4.81 2.84 1.42 5.56 3.12 8.04 5.11l.83-3.15c-5.27.73-10.6 1.13-15.91 1.27-2.42.06-2.43 3.81 0 3.77 5.67-.1 11.3-.6 16.91-1.4 1.34-.19 1.88-2.32.83-3.15-2.56-2.03-5.27-3.84-8.17-5.34-2.5-1.28-5.5-2.01-7.7-3.81-.6-.49-1.4-.64-2.05-.12-.58.46-.84 1.36-.4 2.02ZM31.21 70.42c-3.7 1.72-7.66 4.75-7.93 9.17-.33 5.28 4.59 8.38 8.91 9.98 10.28 3.81 21.46 4.56 32.31 5.23 11.28.7 22.62 1.44 33.91.62 5.69-.41 11.35-1.23 16.9-2.53 3.87-.91 7.75-1.84 11.42-3.4 3.79-1.62 8.41-4.5 9.24-8.91.94-5.02-4.8-6.31-8.4-7.32-1.41-.4-2.45 1.83-1.03 2.44 1.61.7 3.22 1.5 4.61 2.58.39.3.7.57.87.97.08.19.1.39-.07.88-1.01 2.92-4.43 4.72-7.09 5.82-3.18 1.32-6.57 2.1-9.91 2.89-4.88 1.17-9.83 1.98-14.84 2.42-10 .87-20.05.44-30.05-.15-9.62-.56-19.36-.95-28.8-3.09-2.64-.6-5.26-1.33-7.8-2.26-2.08-.76-4.32-1.79-5.61-3.67-1.14-1.65-1.5-3.57-.42-5.34 1.15-1.89 3.13-3.15 5.04-4.16 1.45-.77.18-2.85-1.27-2.17Z"/><path d="M91.77 92.19c3.43-2.03 3.76 10.75 3.79 12.28.05 2.76-.11 5.51-.16 8.26-.06 2.92-.32 6.03.09 8.92.24 1.66 2.88 1.53 3.22 0 .39-1.76.38-3.64.53-5.43.15-1.8.25-3.6.31-5.4.13-3.44.23-6.9-.1-10.34-.3-3.04-.62-6.67-2.38-9.27-1.57-2.32-4.83-3.41-7.05-1.29-1.19 1.13.34 3.1 1.75 2.27"/><path d="M96.11 120.38c-4.63 2.41-9.17 4.98-13.71 7.56-1.76 1-4.34 1.91-5.26 3.84-.55 1.17-.32 2.46-.23 3.7.09 1.29.16 2.59.22 3.88.46 10.19.01 20.42-1.19 30.55-.12 1.04.98 1.92 1.93 1.93 3.25.03 6.5.3 9.75.39 3.25.1 6.5.11 9.75.13s6.33.04 9.5.03c1.5 0 3-.04 4.5-.07 1.36-.03 2.9.02 4.12-.7 2.96-1.74.97-5.17.49-7.69-.54-2.85-.53-5.78-.51-8.67.03-6.22.31-12.44.85-18.64.13-1.54.54-3.26 0-4.76-.59-1.61-2.21-2.36-3.55-3.25-2.9-1.92-5.58-4.13-8.68-5.73-1.54-.8-3.44 1.3-1.96 2.54 2.11 1.78 4.39 3.32 6.6 4.97 1.07.8 2.1 1.63 3.09 2.52.28.25.46.37.5.55.15.62-.13 1.55-.19 2.18-.53 5.71-.84 11.43-.94 17.16-.04 2.63-.09 5.28.09 7.91.09 1.31.24 2.62.46 3.92.06.35.72 4.03 1.05 4.02.1 0 .65-1.02.69-.96 0-.01-.66 0-.62 0-.67-.02-1.33-.06-2-.07-1.5-.03-3-.07-4.5-.08-2.92-.02-5.83-.03-8.75-.01-3.25.01-6.5 0-9.75.08-3.33.09-6.67.34-10 .36.62.81 1.24 1.63 1.86 2.44 1.54-9.55 2.17-19.21 1.83-28.87-.08-2.35-.23-4.69-.4-7.04-.03-.29-.05-.58-.07-.88.02-.31-.04-.27-.18.11.48-.34 1.02-.61 1.53-.91.98-.59 1.96-1.17 2.94-1.76 4.2-2.52 8.38-5.05 12.49-7.72 1.86-1.21.23-4.01-1.74-2.98Z"/><path d="M92.49 155.88c-.33-4.25-.67-9.28 1.79-12.99 2.15-3.25 5.93-5.11 9.67-5.76l-1.86-2.42c-1.05 1.99-.72 4.02.14 6.02.88 2.06 1.59 3.85 1.17 6.13-.39 2.1-1.47 4.04-2.74 5.73-1.12 1.49-2.47 3.12-4.15 3.98-.56.29-1.43.66-2.07.46-.39-.12-.31-.01-.37-.25-.08-.32.36-.93.51-1.17 1.17-1.91 2.79-3.53 4.09-5.35 1.27-1.78 2.22-3.76 2.96-5.81.37-1.03.62-2.09.85-3.16.23-1.09.27-2.18.48-3.26.35-1.85-2.31-2.24-2.56-.35-.12.91-.5 1.92-.75 2.83-.27.99-.61 1.96-.95 2.92-.66 1.87-1.57 3.64-2.72 5.26s-2.47 3.05-3.61 4.65c-1.05 1.46-2.09 3.25-1.25 5.07 1.72 3.75 6.69 1.71 8.94-.24 2.71-2.36 5.13-5.83 6.19-9.27.65-2.11.8-4.46.2-6.6-.47-1.68-2.39-4.15-1.48-5.92.7-1.35-.45-2.67-1.86-2.42-4.6.8-9.07 3.08-11.71 7.04-3.11 4.66-2.27 10.06-1.36 15.23.24 1.39 2.6 1.09 2.49-.34ZM32.05 64.03c-4.57 1.19-9.33 2.46-13.3 5.12-4.25 2.85-6.94 7.03-8.23 11.96-1.35 5.15-1.45 10.79-.97 16.07.5 5.47 1.66 10.87 3.43 16.07 3.47 10.2 9.09 19.67 15.94 27.97 3.38 4.09 7.07 7.89 10.71 11.73.23.24.48.47.68.73l.1.12c.22.45.27.46.14.03-.16.41-.5.79-.69 1.2-.49 1.02-.68 2.16-.69 3.28-.02 2.46.9 4.43 2.96 5.8 2.45 1.64 5.71 2.35 8.51 3.18 2.9.86 5.84 1.6 8.81 2.2 5.85 1.18 11.98 1.85 17.93 1.1 1.19-.15 2.22-.91 2.22-2.22 0-1.15-1.02-2.28-2.22-2.22-9.95.55-19.89-1.56-29.32-4.61-1.09-.35-2.21-.67-3.2-1.25-.78-.45-.9-.51-1.04-1.48-.27-1.82 1.1-3.25.77-5.09-.43-2.41-2.75-4.05-4.33-5.75-1.71-1.83-3.31-3.78-4.88-5.73-12.59-15.51-22.76-34.39-21.12-54.97.4-5.02 1.71-10.19 5.49-13.75 3.6-3.39 8.53-5.02 13.13-6.56 1.84-.62 1.1-3.42-.81-2.92Zm94.78 2.92c6.35 2.2 13.12 4.75 16.33 11.11 1.63 3.23 2.13 6.98 2.34 10.55.23 3.91.06 7.86-.54 11.73-1.22 7.88-3.9 15.4-7.39 22.55-1.71 3.51-3.55 7.2-6.02 10.25-1.18 1.45-2.45 2.84-3.61 4.32-1.23 1.56-2.49 3.09-3.79 4.6a159 159 0 0 1-4.43 4.93c-1.42 1.52-3.28 2.97-4.34 4.77-.62 1.05-.85 2.28-.53 3.48.19.71.86 1.4.87 2.13 0 .67-.57 1.15-.98 1.61-.21.24-.62.59-.7.9.14-.51 1.57-1.02.36-.56-2.62 1-1.63 5.06 1.18 4.28 3.07-.85 5.42-4.33 4.73-7.55-.1-.49-.3-.95-.51-1.4-.09-.19-.32-.98-.34-.48s-.02.07.07.03c.12-.05.43-.47.55-.6.4-.43.82-.85 1.22-1.28 1.42-1.5 2.81-3.02 4.17-4.57 2.84-3.23 5.67-6.56 8.07-10.14.54-.8.88-1.68 1.42-2.48.62-.91 1.22-1.83 1.81-2.76 1.15-1.8 2.36-3.55 3.46-5.37 4.43-7.36 7.65-15.57 9.14-24.04.75-4.28 1.14-8.64.98-12.98-.14-4.05-.63-8.23-2.16-12.02-1.69-4.18-4.55-7.5-8.5-9.71-3.74-2.09-7.93-3.18-12.06-4.21-1.91-.48-2.64 2.29-.81 2.92Z"/><path d="M145.8 75.46c4.18-1.12 8.92-.8 12.78 1.24 4.4 2.33 6.46 6.43 7.09 11.25.76 5.85.3 11.66-2.39 16.98-2.44 4.83-6.14 8.87-10.31 12.28-5.31 4.34-11.43 7.6-17.42 10.86-2.48 1.35-.27 5.14 2.22 3.79 11.27-6.14 23.16-12.91 29.28-24.73 3.06-5.9 4.08-12.59 3.34-19.18-.66-5.94-3.04-11.42-8.33-14.59-5.12-3.07-11.68-3.55-17.24-1.46-2.18.82-1.35 4.18.98 3.56"/><path d="M148.74 83.52c3.12.23 5.43 1.98 6.65 4.88s1.5 6.79.58 9.88c-.87 2.94-2.93 5.38-5.01 7.56-1.15 1.21-2.35 2.37-3.53 3.55-1.34 1.33-2.83 2.51-4.13 3.89-1.76 1.87.95 4.58 2.82 2.82 1.61-1.51 3-3.23 4.56-4.79 1.39-1.39 2.8-2.77 4.09-4.26 2.57-2.95 4.59-6.25 5.02-10.22s-.18-8.3-2.33-11.54c-1.94-2.92-5.46-5.24-9.09-4.57-1.68.31-1.13 2.69.38 2.81Zm-107.68 70.1c5.65 3.08 11.69 5.32 17.99 6.62 3.11.64 6.26 1.1 9.42 1.3 3.18.21 6.57.42 9.75.06.97-.11 1.79-.75 1.8-1.8 0-.93-.83-1.85-1.8-1.8-1.55.08-3.1.33-4.65.4s-3.11 0-4.65-.09c-3.03-.17-6.05-.53-9.03-1.13a67.2 67.2 0 0 1-17.36-6.08c-1.66-.85-3.12 1.61-1.47 2.51ZM37.1 55.57c-1.42-2.21-1.57-4.91-.77-7.37.84-2.56 2.46-4.8 3.13-7.43.67-2.65.37-5.3-1.36-7.48s-3.64-4.31-3.35-7.16c.13-1.34-2.13-1.66-2.36-.32-.24 1.36-.52 2.83-.3 4.19.24 1.47.91 2.76 1.81 3.93.8 1.04 1.87 1.96 2.08 3.32.21 1.3-.14 2.64-.59 3.85-1.01 2.71-2.7 5.07-3.06 8-.36 2.9.48 5.64 2.12 8.02 1.11 1.61 3.74.13 2.66-1.55Zm8.19-41.36c-.13 2.17-.69 4.32-.69 6.5 0 2.06.91 3.63 2.07 5.26 2.02 2.85 3.93 6.22 3.73 9.84-.2 3.57-3.26 5.99-4.61 9.12-1.23 2.86-1.46 7.43 2.08 8.7 1.27.45 2.23-1.11 1.66-2.16-.62-1.15-1.06-2.14-.82-3.48.27-1.55 1.26-2.84 2.18-4.08 2.12-2.85 3.71-5.79 3.4-9.47s-1.85-6.84-3.94-9.69c-1.05-1.44-2.32-2.58-2.35-4.46-.04-2-.09-4.08.03-6.08.1-1.76-2.63-1.75-2.73 0Zm19.62 39.56c.1.16.1.18 0 .07a4.9 4.9 0 0 1-.54-1.36 6.5 6.5 0 0 1-.06-2.41c.15-.91.63-1.66 1.06-2.45q.705-1.275 1.2-2.64c.62-1.75.92-3.7.88-5.56-.04-1.85-.32-3.92-1.3-5.51-.77-1.25-3.14-.85-2.97.8.22 2.12.69 4.09.45 6.25s-1.08 3.85-2.02 5.69c-1.05 2.05-1.34 4.28-.77 6.52.48 1.89 2 3.49 4.08 3.23.71-.09 1.3-.54 1.31-1.31 0-.66-.61-1.38-1.31-1.31Zm63.93 90.42c11.49-.93 23.76-1.7 33.83 3.92.88.49 1.77 1.06 2.32 1.91 1.32 2.05.17 4.83-1.51 6.6-2.85 3-6.96 4.43-10.98 5.44-7.09 1.78-14.39 2.57-21.66 3.36-3.09.33-6.19.67-9.28 1-2.12.23-4.7.25-5.84-1.55l.69-4.69c.07-.47.15-.97.48-1.32.3-.32.74-.45 1.11-.7 1.44-.97 1.13-3.17 1.91-4.73.44-.89 1.24-1.54 2.01-2.16 1.84-1.48 3.67-2.97 5.51-4.45"/><path d="M128.84 146c5.88-.43 11.78-.77 17.66-.25 2.77.24 5.51.72 8.18 1.49 2.6.75 5.67 1.73 7.83 3.42 1.82 1.43.06 3.76-1.19 4.93-1.87 1.74-4.29 2.78-6.69 3.53-5.99 1.89-12.34 2.74-18.56 3.46-3.69.43-7.39.81-11.08 1.21-1.59.17-3.2.42-4.8.47-1.12.03-2.22.05-2.95-.89l.62 1.51c.12-1.07.3-2.13.46-3.19.06-.43.16-.86.19-1.3.12-.44.12-.47-.02-.09.2-.1.39-.2.58-.32 1.44-.96 1.97-2.45 2.31-4.06.13-.63.22-1.28.6-1.82.45-.65 1.2-1.13 1.81-1.62 1.72-1.38 3.45-2.74 5.13-4.17 1.78-1.52-.64-4.74-2.54-3.29s-3.73 2.97-5.58 4.47c-1.53 1.24-2.79 2.52-3.29 4.49-.17.67-.17 1.6-.52 2.2s-1.25.83-1.74 1.41c-.67.79-.81 1.75-.96 2.74-.17 1.17-.34 2.35-.52 3.52-.2 1.27-.06 2.1.85 3.07.7.74 1.63 1.25 2.59 1.55 1.81.56 3.75.3 5.59.1 4.74-.51 9.49-.99 14.23-1.56 4.78-.57 9.55-1.24 14.24-2.3 3.89-.88 7.96-1.99 11.27-4.31 3.16-2.22 6.46-6.18 4.98-10.33-.72-2.02-2.43-3.23-4.26-4.19s-3.92-1.83-5.99-2.45c-9.2-2.74-19-1.85-28.41-1.03-2.29.2-2.33 3.78 0 3.61Zm17.01-71.53a9.26 9.26 0 0 1 2.22 5.49c.01.25.05.55.28.67.19.09.42 0 .62-.07 1.04-.36 2.3.16 2.79 1.15.1.2.21.44.43.45.08 0 .16-.03.24-.06 1.23-.53 2.54-1.14 3.2-2.3.56-.98.54-2.18.51-3.31-.01-.37-.02-.75-.17-1.08-.35-.78-1.28-1.07-2.1-1.27-.96-.24-1.93-.48-2.92-.46s-2.01.34-2.68 1.07"/><path d="M144.67 75.64c.1.12.18.22.35.49.16.24.3.49.44.74.11.2.21.41.3.62-.13-.3.08.23.08.23.06.16.11.33.16.49.07.25.13.5.19.75.03.14.05.28.08.42-.01-.08-.03-.31 0 .04.06.7.05 1.39.45 2.01.62.98 1.63 1.06 2.67.89h.08c-.39.04-.3.03.27-.05-.44.07-.21.03-.09.03.4 0-.23-.13-.03-.01.07.01.13.03.2.05.2.07.17.06-.07-.04.03 0 .23.13.24.13.34.19-.07-.05-.06-.05l.1.1c.14.16.12.13-.05-.07.03 0 .14.24.13.24.53.97 1.48 1.61 2.61 1.35 1.07-.25 2.23-.92 3.09-1.59 1.05-.81 1.84-1.91 2.11-3.23.26-1.25.35-2.83.03-4.07-.38-1.46-1.63-2.31-3-2.75-1.35-.43-2.9-.8-4.31-.68-1.54.13-3.76.8-4.1 2.55-.27 1.36.82 2.52 2.21 2.21.25-.06.5-.14.73-.26.42-.33.53-.41.32-.25-.12.09-.1.08.05-.03.08-.04.52-.24.09-.08.15-.05.29-.1.45-.14.11-.03.58-.17.1-.04.15-.04.32-.03.47-.03.16 0 .33 0 .49.01.1 0 .2.01.29.02-.17-.03-.18-.03-.04 0 .69.11 1.39.27 2.06.47.1.03.34.06.42.14-.22-.1-.27-.12-.14-.06.06.03.13.06.19.1.31.15-.15-.25.04.03-.14-.21-.17-.25-.1-.13.07.11.06.07-.03-.11.05.43.04-.28.04.21 0 .18.01.35.02.53v.94c0 .06-.06.59-.02.33.04-.27-.04.19-.05.24q-.06.24-.15.48c.15-.39-.05.04-.1.12-.18.37.2-.18-.06.09l-.32.32c-.35.33.32-.19-.09.07-.13.08-.26.17-.39.25-.27.16-.55.3-.83.44-.12.06-.24.11-.36.16-.46.21.18-.02-.13.03h1.03c.09.02.88.85.72.44-.03-.08-.09-.16-.14-.23a4 4 0 0 0-.57-.7c-.42-.41-.89-.68-1.42-.91s-1.05-.33-1.6-.33c-.3 0-.62.03-.91.1-.15.03-.28.1-.42.16-.1.04-.19.08-.28.12-.4.17-.05.19 1.06.08l.64.64c-.17-.22.01.13.04.2.1.27 0-.16-.02-.24-.04-.38-.09-.77-.17-1.15-.11-.59-.29-1.17-.52-1.73-.52-1.28-1.2-2.4-2.11-3.44-.58-.66-1.77-.63-2.35 0-.66.72-.59 1.63 0 2.35Zm4.15 37.48a12.45 12.45 0 0 1 1.62 7.14c-.03.33-.07.67-.26.93-.25.34-.7.47-1.1.61-2.15.76-3.82 2.45-5.8 3.57-.33.19-.69.36-1.07.38s-.8-.17-.94-.53c-.22-.56.3-1.11.65-1.6 1.04-1.46.73-3.47 1.35-5.15.64-1.73 2.22-2.93 3.87-3.76"/><path d="M147.34 113.98c.87 1.69 1.23 3.45 1.21 5.29 0 .26-.01.51-.03.76 0 0-.04.35 0 .16s-.04.12-.04.13c.11-.11.16-.3.25-.43.06-.08.3-.11.09-.07s-.45.15-.65.23c-1 .39-1.92.9-2.8 1.5-.78.52-1.52 1.1-2.3 1.61-.07.05-1.14.66-1.14.66-.06-.24.74.13.7.1.52.32.2.87.53 1.31l-.07.15q.06-.12.15-.24c.56-.84 1.03-1.62 1.26-2.62.11-.48.17-.96.23-1.44-.02.13.1-.7.05-.4-.03.2.02-.13.02-.14.04-.27.08-.53.14-.79.05-.23.12-.45.19-.67s0-.01-.02.03c.06-.14.14-.28.22-.42l.15-.24c.17-.29-.04.03.08-.13.14-.17.29-.33.45-.49q.27-.27.57-.51c-.03.03-.2.15-.02.02.13-.09.26-.19.4-.27.52-.34 1.04-.62 1.51-1.03.62-.55.7-1.6.3-2.29-.44-.75-1.31-1.05-2.14-.87-1.22.27-2.46 1.25-3.34 2.1-.93.89-1.64 2-2.03 3.24-.35 1.12-.34 2.31-.64 3.45-.03.13-.07.25-.11.37-.02.06-.15.33-.02.07-.12.23-.26.44-.41.65-.47.64-.83 1.3-.86 2.12-.09 1.99 1.93 3.1 3.69 2.76 1.22-.24 2.36-1.16 3.35-1.86s1.96-1.4 3.03-1.96c.03-.01.34-.15.1-.05.12-.05.24-.09.37-.14.33-.12.67-.24.97-.41a3.1 3.1 0 0 0 1.51-2.04c.33-1.48.14-3.21-.2-4.67s-.96-2.94-1.77-4.24c-1.16-1.88-3.96-.23-2.95 1.73Z"/></svg>