<?xml version="1.0" encoding="UTF-8"?><svg xmlns="http://www.w3.org/2000/svg" viewBox="0 0 180 180"><path d="M32.19 57.13c-.04-.21.02.37.02.49 0 .37-.01.73-.03 1.1-.03.84-.1 1.68-.19 2.51-.16 1.5-.37 3.03-.79 4.48-.54 1.9-2.47 3.08-4.09 4.02-2.18 1.26-4.54 2.04-7.01 2.47-1.97.34-1.53 3.66.47 3.5 3.07-.24 6.85-.66 9.4 1.49 1.08.91 1.54 2.2 1.94 3.51.47 1.53.91 3.05 1.77 4.42 1.1 1.75 3.52.56 3.19-1.35-.5-2.9.48-6.05 2.48-8.19 2.11-2.25 4.99-3.21 8.03-3.05V68.8c-3.07-.14-6.69-.44-9.2-2.42-2.9-2.29-2.84-6.3-2.84-9.66 0-2.16-3.24-2.14-3.34 0-.21 4.42.03 9.27 3.69 12.34 3.25 2.73 7.59 3.36 11.69 3.48 2.41.07 2.4-3.64 0-3.73-3.98-.15-8.13 1.6-10.74 4.62-2.73 3.16-3.7 7.19-3.14 11.28 1.06-.45 2.13-.9 3.19-1.35-.92-1.58-1.18-3.41-1.84-5.1s-1.57-3.05-3-4.12c-3.27-2.46-7.43-2.33-11.3-1.99l.47 3.5c2.82-.51 5.56-1.51 8.02-2.99 2.25-1.35 4.5-3.09 5.33-5.69.54-1.67.69-3.53.87-5.26s.39-3.67-.08-5.4c-.54-1.97-3.37-1.12-3.01.83Zm12.99-40.95c-7.76 1.37-15.54 2.84-23.35 3.94-1.49.21-1.97 2.17-1.34 3.3 1.95 3.5 4.33 6.7 6.98 9.7 2.35 2.65 4.04 5.9 3.4 9.57-.21 1.23-.86 2.64-2.24 2.88-.97.17-1.56-.49-1.71-1.4-.5-2.99 3.14-4.81 5.26-6 2.21-1.24.24-4.62-1.99-3.4-3.01 1.64-6.41 3.76-7.15 7.39-.66 3.19.69 6.88 4.12 7.7 3.86.92 7.37-2.36 8.09-5.96.78-3.85-.18-8.36-2.51-11.51-1.36-1.84-2.99-3.45-4.39-5.25-1.47-1.89-2.78-3.91-3.99-5.98-.45 1.1-.89 2.2-1.34 3.3 7.64-1.84 15.39-3.32 23.09-4.89 2.22-.45 1.26-3.76-.93-3.37Z"/><path d="M44.55 18.39c-.4 3.15 2.86 5.69 4.36 8.14a25.2 25.2 0 0 1 3.38 9.06c.19 1.19.42 3.13-.76 3.93-.78.53-2.82.1-3.36-.71-.74-1.11.87-2.84 1.55-3.61 1.13-1.28 2.44-2.28 3.72-3.39 1.66-1.43-.48-4.08-2.31-2.99-2.71 1.6-5.75 4.66-6.73 7.7-1.21 3.77 1.77 6.47 5.25 6.99 3.88.58 6.52-2.44 6.62-6.14.09-3.4-1.18-7.01-2.63-10.02-.81-1.68-1.8-3.26-2.94-4.75-.93-1.22-2.68-2.58-2.85-4.2-.22-2.13-3.03-2.1-3.3 0Z"/><path d="M28.03 31.33c7.26-.92 14.42-2.49 21.4-4.7 2.24-.71 1.29-4.26-.98-3.54-6.84 2.16-13.79 3.85-20.85 5.12-1.74.31-1.36 3.34.42 3.12Zm33.6 11.44c-.29 6.14-.57 12.47 1.66 18.32 1.75 4.59 5.02 8.87 9.56 10.97 11.07 5.1 20.6-5.06 25.44-13.94 2.81-5.16 4.83-10.79 6.19-16.49 1.41-5.94 2.15-12.23.72-18.24-1.19-4.98-4-9.38-8.27-12.25-4.05-2.73-9.14-3.58-13.87-2.34-5.57 1.46-10.2 5.43-13.64 9.91-3.81 4.97-6.53 11.07-6.37 17.43.04 1.69 2.73 2.21 3.07.42 1.71-9.07 6.21-18.3 14.74-22.74 3.63-1.89 7.82-2.36 11.65-.77 3.66 1.52 6.61 4.67 8.11 8.31 2.02 4.9 1.75 10.55.78 15.66-.98 5.16-2.51 10.34-4.65 15.15-1.99 4.48-4.52 8.91-8.01 12.39-2.98 2.97-7.1 5.51-11.49 4.75-4.63-.81-8.24-4.71-10.07-8.86-2.4-5.45-2.41-11.81-2.49-17.66-.03-1.98-2.97-1.96-3.06 0Z"/><path d="M80.93 73.3c9.05-2.68 18.69-3.49 28.08-3.54 4.77-.02 9.55.25 14.29.76 2.23.24 4.44.58 6.66.88 2.19.3 4.47.31 6.37-.98 3.1-2.1 4.62-5.93 5.87-9.32 1.16-3.16 2.04-6.69 1.41-10.06-.76-4.06-4.54-6.01-7.88-7.8-4.12-2.21-8.48-3.91-12.68-5.96-4.53-2.22-8.48-4.92-11.71-8.84-3.63-4.41-7.12-8.92-10.54-13.49-1.2-1.61-3.82-.22-2.77 1.62 2.41 4.17 5.21 8.19 8.2 11.96 2.8 3.52 5.61 6.72 9.39 9.22 3.61 2.39 7.61 4.09 11.54 5.86 2.07.93 4.12 1.88 6.13 2.93 1.75.92 3.77 1.9 5.24 3.23 2.01 1.81 1.05 5.42.39 7.63-.83 2.81-1.99 5.92-3.91 8.23-1.24 1.49-2.62 1.62-4.47 1.37-2.2-.29-4.39-.65-6.59-.89-4.51-.51-9.06-.75-13.6-.74-10.33.01-20.48 1.61-30.27 4.9-1.89.64-1.11 3.59.83 3.01Z"/><path d="M117.62 37.85c.38 2.24.61 4.52.38 6.78-.2 1.94-.75 3.82-1.29 5.7-1.66 5.73-3.47 11.72-7.65 15.98 6.62-.56 13.31-.4 19.9.47 1.5.2 3.17.39 4.37-.53.68-.52 1.09-1.33 1.45-2.11 1.44-3.09 2.64-6.28 3.58-9.56.32-1.1.61-2.24.47-3.37-.33-2.77-2.99-4.6-5.51-5.78-1.91-.9-3.88-1.64-5.81-2.5-2.6-1.17-5.11-2.55-7.61-3.92"/><path d="M116.12 37.85c.33 2.69.42 5.42-.15 8.08-.51 2.38-1.27 4.72-2.01 7.04-1.38 4.3-3.08 8.66-6.3 11.94-1.14 1.16-.37 3.5 1.4 3.38 4.94-.32 9.88-.39 14.82 0 4.08.32 9.55 2.18 12.16-2.12 1.15-1.89 1.92-4.13 2.69-6.19.79-2.1 1.62-4.3 2.01-6.52.75-4.32-1.95-7.48-5.59-9.39-2.2-1.15-4.57-1.95-6.83-2.96-2.53-1.13-4.96-2.48-7.39-3.82-2.25-1.24-4.26 2.2-2.01 3.44 3.64 2 7.31 3.81 11.13 5.45 2.29.98 6.6 2.43 6.8 5.47.12 1.79-.84 3.84-1.41 5.5-.67 1.96-1.43 3.88-2.3 5.76-.27.59-.55 1.44-1.13 1.79s-1.45.21-2.08.15c-2.1-.19-4.17-.5-6.28-.66-4.85-.35-9.74-.34-14.58.14l1.4 3.38c3.56-3.83 5.55-8.61 7.06-13.55.77-2.53 1.61-5.11 2.03-7.72.49-3.06.14-5.99-.48-8.99-.34-1.63-3.15-1.29-2.95.4Zm-35.25-7.92c-3.22 3.05-4.99 7.11-5.7 11.44-.66 4.02-.89 9.11 2.82 11.79 4.34 3.13 8.2-2.62 9.71-6.08.85-1.95 1.46-3.97 1.85-6.05.41-2.27.79-4.68.47-6.98s-1.49-4.44-3.63-5.42c-2.07-.95-5.05-.36-6.01 1.89-.82 1.91 1.61 3.44 2.83 1.66.65-.95 1.88-.78 2.6-.04 1.05 1.08 1.16 2.7 1.11 4.13-.11 3.07-.64 6.42-1.96 9.21-.62 1.32-1.4 2.55-2.42 3.6-.38.39-.97 1.11-1.52 1.27-.59.17-1.13-.37-1.47-.82-1.59-2.07-1.14-5.51-.76-7.9.56-3.46 1.65-7.09 4.02-9.76 1.17-1.32-.65-3.17-1.94-1.94"/><path d="M77.86 53.2c1.72 1.01 3.42 2.07 5.18 3.03 1.53.84 2.74 1.77 3.88 3.09.49.57.94 1.16 1.32 1.81.18.32.36.64.49.98.07.19.12.39.17.58.01.04.08.48.05.21.02.16.02.33.02.5 0 .09-.03.45 0 .2-.02.16-.06.32-.11.48-.02.08-.15.42-.05.2-.38.87-.8.95-1.19 1.93s.61 1.97 1.54 2.02c2.3.13 3.4-2.77 3.51-4.62.14-2.19-.98-4.16-2.33-5.79s-2.85-3-4.69-3.96c-2.09-1.1-4.3-1.97-6.46-2.92-.65-.29-1.41-.19-1.8.47-.36.62-.14 1.43.47 1.8ZM84 31.12c1.32.04 2.61.24 3.94.13s2.51-.29 3.73-.61c2.39-.63 4.7-1.73 6.52-3.42 3.3-3.05 5.43-9 1.34-12.34-1.17-.96-2.58.47-1.65 1.65.49.62.48 1.6.49 2.34a7 7 0 0 1-.38 2.44c-.51 1.54-1.58 2.88-2.8 3.93-1.43 1.22-3.12 1.97-4.92 2.44-.99.26-2 .46-3.01.62-1.08.16-2.16.45-3.25.51-1.48.09-1.5 2.27 0 2.31Zm30.65 61.42c-3.34-2.8-7.74-3.95-12.05-4.6-3.06-.46-6.16-.71-9.26-.75l2.15-.23c-1.46.08-2.94.15-4.41.25-3.49.07-6.98.39-10.42 1-6.61.94-13.02 2.64-18.73 6.05-2.17 1.3-4.27 2.9-5.45 5.14-2.05 3.86-.82 8.86 2.07 12.13s7.13 5.05 11.38 6.05c6.92 1.62 14.15 1.43 21.2.55 9.01-1.13 18.4-3.65 24.63-10.24 1.03-1.09 1.97-2.29 2.54-3.68 1.64-4.03-.32-8.86-3.66-11.66Zm-15.81 9.36c-.19.46-.5.86-.84 1.22-2.07 2.18-5.18 3.02-8.16 3.39-2.34.29-4.73.36-7.02-.18-1.41-.33-2.81-.92-3.77-2s-1.36-2.74-.69-4.02c.39-.74 1.09-1.27 1.81-1.7 2.03-1.21 4.33-1.77 6.69-2.07.94-.14 1.89-.23 2.85-.26l1.57-.09-.91.1c1.09 0 2.18.06 3.26.23 1.43.22 2.89.6 3.99 1.52 1.1.93 1.75 2.52 1.21 3.86Z"/><path d="M116.07 91.12c-6.2-5.06-15.02-5.81-22.72-5.94v4l2.15-.23c1.07-.11 2-.84 2-2 0-1.04-.92-2.06-2-2-10.35.54-20.86 1.19-30.47 5.45-4.08 1.81-8.7 4.38-10.59 8.65-1.82 4.11-.9 9.02 1.69 12.6 5.75 7.96 17.45 9.31 26.5 9.12 9.19-.19 19.16-1.58 27.35-6.02 4.22-2.29 9.05-5.92 10.51-10.71 1.43-4.68-.86-9.84-4.41-12.92-1.94-1.68-4.78 1.14-2.83 2.83 2.46 2.13 4.36 5.53 3.43 8.86-.97 3.47-4.76 6.18-7.7 7.92-6.86 4.05-15.19 5.37-23.02 5.9-4.69.32-9.46.24-14.08-.68-3.7-.74-7.58-1.93-10.48-4.45-2.63-2.28-4.58-5.94-3.73-9.5.92-3.86 4.92-5.99 8.21-7.58 9.18-4.45 19.65-4.93 29.64-5.46v-4l-2.15.23c-2.51.26-2.63 3.96 0 4 3.74.06 7.49.36 11.15 1.11 3.1.63 6.25 1.63 8.74 3.66.84.68 2.01.82 2.83 0 .7-.7.84-2.14 0-2.83Z"/><path d="M97.12 100.89c-1.09 2.31-4.24 3.1-6.52 3.5-2.76.49-6.22.76-8.82-.51-.83-.4-1.82-1.16-1.75-2.21s1.58-1.64 2.4-2c2.78-1.21 5.88-1.33 8.86-1.49v-4l-.91.1c-1.07.11-2 .84-2 2 0 1.09.92 1.99 2 2 1.58.02 7.55.13 6.54 3.08-.84 2.44 3.02 3.49 3.86 1.06.87-2.52-.53-5.14-2.66-6.51-2.22-1.42-5.17-1.61-7.73-1.63v4l.91-.1c1.07-.11 2-.84 2-2 0-1.04-.92-2.06-2-2-3.22.17-6.55.34-9.59 1.5-2.87 1.09-6 3.04-5.63 6.56.78 7.32 11.03 6.95 16.23 5.88 3.07-.63 6.85-2.19 8.27-5.22.46-.98.27-2.16-.72-2.74-.87-.51-2.27-.26-2.74.72Zm-42.63-8.65c-.77-2.33-.92-4.75-.56-7.18l-1.36 1.36c2.73-.9 5.49-1.7 8.29-2.31 1.38-.3 2.76-.55 4.15-.77.67-.11 1.33-.23 1.99-.33.45-.07 1.46-.4 1.84-.32l-.8-.47c-.12-.36-.13-.35-.01.03.04.14.08.29.11.43.06.29.09.56.11.85l1.82-1.82c-.98.04-1.97.16-2.91.45-.21.07-.97.22-1.09.4-.04.06.53.14.65.39.09.2-.03.78.13.35.37-.99-.41-2.14-1.36-2.4-1.06-.29-2.08.36-2.4 1.36-.54 1.67.51 3.62 2.24 4.03 1.63.39 3.12-.87 4.75-.96.92-.05 1.9-.79 1.82-1.82-.15-1.89-.55-4.41-2.92-4.47-1.98-.06-4.07.29-6.01.62-3.89.66-7.72 1.64-11.43 2.99-.87.32-1.36.96-1.43 1.88-.23 2.89.32 5.83 1.32 8.54.7 1.89 3.71 1.12 3.06-.84Zm84.04-26.92c4.83.98 10.51 4.36 11.44 9.63.93 5.3-3.65 9.81-7.59 12.55-4.71 3.28-9.81 5.92-13.52 10.43-3.48 4.23-5.86 9.31-6.63 14.75-.18 1.31-.12 2.6.93 3.54 1 .9 2.59 1.06 3.87 1.21 2.33.28 4.88-.19 6.22-2.31.8-1.26.76-2.72.97-4.13.17-1.13.53-2.24 1.06-3.25 1.18-2.27 2.97-4.12 4.9-5.77 7.45-6.37 18.05-10.66 20.61-21.13 3.04-12.47-7.65-24.39-19.15-27.35-2.63-.68-3.76 3.42-1.12 4.07 4.93 1.22 9.42 3.75 12.67 7.7 3.04 3.7 4.97 8.81 4.17 13.63-1.61 9.75-12.2 14.26-19.06 19.85-3.69 3-7.03 6.91-7.75 11.76-.12.83-.02 2.29-.77 2.86-.66.5-1.81.32-2.56.2-.28-.05-1.24-.42-1.44-.33l-.15-.04c.33.51.49.57.49.16.07-.08.13-.72.14-.77.25-1.29.6-2.55 1.02-3.79 1.58-4.66 4.53-8.82 8.36-11.92 4.29-3.48 9.52-5.69 13.4-9.7 4.1-4.24 6.48-10.24 3.89-15.9-2.48-5.43-8.26-8.49-13.99-9.08-1.79-.19-2.19 2.79-.43 3.15Z"/><path d="M35.82 97.21c4.55 7.46 9.53 14.62 15.08 21.37 2.77 3.37 5.67 6.63 8.69 9.78 1.54 1.6 3.1 3.17 4.69 4.72 1.42 1.38 2.98 3.41 5.13 3.43s4.4-.65 6.47-1.01c2.19-.38 4.38-.75 6.57-1.15 4.31-.78 8.62-1.57 12.93-2.38 8.98-1.68 17.95-3.44 26.87-5.39 9.72-2.13 19.37-4.53 28.94-7.27 1.43-.41 2.17-2.45.93-3.52-4.96-4.25-9.45-9.03-14.45-13.24-.9-.76-2.2-.88-3.08 0-.78.78-.9 2.32 0 3.08 4.99 4.22 9.52 8.95 14.55 13.13.31-1.17.62-2.34.93-3.52-16.57 5.03-33.6 8.54-50.59 11.81-8.43 1.62-16.87 3.15-25.3 4.75-.93.18-1.86.35-2.79.54-.5.1-.99.21-1.49.31-.59.11-.61 0-1.04-.4-1.57-1.46-3.1-2.96-4.61-4.48-2.97-2.99-5.82-6.09-8.6-9.27-6.26-7.18-12.02-14.84-17.07-22.92-1.09-1.75-3.86-.15-2.78 1.62Z"/><path d="M34.59 96.41c-.86 11 1.42 21.93 1.63 32.91.03 1.42.03 2.83 0 4.25-.03 1.26-.08 2.56.29 3.79.75 2.49 3.02 3.8 4.91 5.35 3.91 3.21 7.34 6.97 10.58 10.84 3.36 4 6.53 8.15 9.88 12.16.73.88 1.47 1.75 2.23 2.61.85.97 1.69 2.1 2.77 2.84 1.22.83 2.54.78 3.93.59 1.64-.22 3.27-.45 4.91-.67 12.11-1.66 24.21-3.4 36.3-5.23 13.72-2.07 27.42-4.29 41.07-6.77.88-.16 1.55-1.16 1.54-2.02-.24-13.04-.79-26.08-1-39.12-.04-2.36-3.72-2.37-3.67 0 .28 13.04.23 26.08.48 39.12l1.54-2.02c-23.4 4.27-46.94 7.72-70.48 11.08-2.86.41-5.72.83-8.58 1.24-.74.11-1.47.21-2.21.32-.34.05-1.15.28-1.49.16-.37-.13-.8-.78-1.06-1.06-.45-.49-.89-.98-1.32-1.48-3.28-3.73-6.33-7.65-9.47-11.49s-6.31-7.56-9.87-10.95c-1.76-1.67-3.64-3.16-5.55-4.66-.77-.61-1.57-1.26-1.78-2.27-.25-1.2-.04-2.59-.04-3.81.02-5.87-.57-11.7-1.18-17.52-.63-6.06-1.13-12.1-1.34-18.19-.07-1.96-2.86-1.92-3.02 0m88.49-73.79.66-3.79c.11-.62.21-1.24.32-1.86.05-.31.11-.62.16-.93.09-.56.08-.98 0-1.55s-.72-1-1.25-1.07c-.57-.08-1.22.19-1.49.72-.21.39-.35.75-.42 1.18-.05.29-.09.58-.13.86-.1.62-.19 1.25-.29 1.87-.19 1.25-.39 2.49-.58 3.74-.13.81.21 1.74 1.1 1.94.77.17 1.79-.23 1.94-1.1Zm12.16 4.37c.11-.3.14-.62.21-.93s.18-.61.27-.92.2-.61.32-.91c.02-.04.12-.28.03-.07s.01-.02.03-.07c.07-.15.14-.31.22-.46.28-.55.6-1.09.97-1.59l.17-.23c.12-.17.02 0-.05.06.1-.1.19-.24.29-.35.18-.21.35-.41.51-.63.13-.17-.19.23-.04.06.06-.07.12-.15.18-.22.52-.63.66-1.6 0-2.21s-1.53-.55-2.21 0c-1.14.91-2 2.21-2.63 3.52-.33.7-.63 1.43-.84 2.18-.09.33-.15.66-.2 1-.07.42-.19.93-.14 1.36.08.75.51 1.36 1.29 1.47s1.38-.36 1.64-1.07Zm9.17 7.41c.86-.56 1.72-1.13 2.56-1.73.91-.65 1.88-1.31 2.61-2.16.48-.56.58-1.32.11-1.93s-1.25-.75-1.89-.38c-.76.44-1.45 1.01-2.13 1.58-.6.5-1.21.99-1.83 1.46l.3-.23c-.39.3-.79.6-1.18.89-.31.23-.56.47-.66.86-.1.35-.05.81.15 1.11.41.63 1.3.96 1.98.52Zm11.21 9.23.58-.3c.2-.11.37-.26.49-.45.16-.17.26-.37.31-.6.07-.23.08-.47.03-.7-.01-.23-.08-.45-.21-.65l-.27-.36q-.33-.33-.78-.45l-.47-.06c-.32 0-.61.08-.89.24l-.59.29c-.21.11-.37.26-.5.45-.16.17-.26.37-.32.6-.07.23-.08.47-.03.7q.015.345.21.66l.28.36q.33.33.78.45l.47.06c.32 0 .62-.08.89-.24Z"/><path d="M69.22 134.98c.7 11.42.27 22.9-1.28 34.24-2.69-6.08-8.67-13.42-13.67-17.81-4.45-3.91-6.8-8.81-10.71-13.26-.61-.7-1.64 0-2.06-.84-1.08-2.18-1.99-8.74-1.57-11.13 1.63-9.26-.74-17.73-2.73-26.92 1.07 3.76 9.33 14.65 11.74 17.72 1.9 2.43.3 2.51 2.57 4.6a579 579 0 0 0 17.63 15.6"/><path d="M67.71 134.98c-.02 11.3-.02 22.52-1.56 33.74 1.13-.15 2.26-.29 3.38-.44-2.18-4.87-5.61-9.26-9.13-13.22-1.69-1.9-3.51-3.63-5.37-5.37-2.02-1.88-3.67-4.07-5.25-6.31-.82-1.15-1.62-2.31-2.47-3.44s-1.65-2.42-2.71-3.29c-.42-.34-1.27-.79-1.86-.69h-.15c-.39-.06-.23.09.49.42-.02 0-.09-.22-.09-.23-.09-.93-.56-1.93-.73-2.86-.37-1.93-.62-3.94-.57-5.91.06-2.29.66-5.15.64-7.79-.04-7.06-1.86-13.96-3.34-20.82-1.19.33-2.37.65-3.56.98.69 2.28 2.1 4.38 3.39 6.35 1.68 2.58 3.47 5.08 5.3 7.54.75 1.01 1.5 2.01 2.27 3.01.63.82 1.5 1.69 1.82 2.69.46 1.45.87 2.44 2.02 3.54 1.73 1.66 3.55 3.25 5.33 4.85 4.05 3.64 8.15 7.22 12.3 10.75 1.8 1.53 4.42-1.07 2.61-2.61-3.54-3.01-7.04-6.06-10.51-9.15-1.79-1.6-3.58-3.21-5.35-4.83-1.14-1.05-2.46-1.96-2.77-3.25s-1.12-2.39-1.96-3.47c-.15-.19-.02-.03-.23-.3-.15-.2-.31-.4-.46-.6-.38-.49-.75-.99-1.13-1.49-1.79-2.39-3.54-4.8-5.2-7.27-.85-1.27-1.69-2.56-2.46-3.88-.33-.57-.65-1.15-.95-1.75s-.26-.51-.44-1.11c-.69-2.28-4.06-1.34-3.56.98 1.32 6.09 2.93 12.19 3.16 18.45.06 1.55.03 3.11-.09 4.66-.11 1.32-.4 2.61-.5 3.93-.16 2.06.14 4.17.46 6.2.28 1.76.56 4.02 1.63 5.51.41.56.92.89 1.59 1.04.25.06.52.07.77.09.13.01-.25-.47-.05 0 .24.53.89 1.05 1.26 1.52.52.66 1.02 1.34 1.52 2.03 1.65 2.28 3.24 4.62 5.08 6.75 1.75 2.02 3.85 3.69 5.72 5.6 4.18 4.28 7.89 9.18 10.36 14.65.62 1.37 3.17 1.11 3.38-.44 1.54-11.43 2.4-23.25 1-34.73-.23-1.87-3.01-2-3.02 0Zm28.99 6.91c.17 2.1.25 4.2.21 6.3s-.29 4.2-.28 6.3c0 1.79 2.76 2.24 3.18.43.49-2.15.55-4.41.56-6.6s-.09-4.29-.29-6.43c-.09-.91-.71-1.69-1.69-1.69-.86 0-1.76.77-1.69 1.69m9.82-1.91c.17 2.1.25 4.2.21 6.3s-.29 4.2-.28 6.3c0 1.79 2.76 2.24 3.18.43.49-2.15.55-4.41.56-6.6s-.09-4.29-.29-6.43c-.09-.91-.71-1.69-1.69-1.69-.86 0-1.76.77-1.69 1.69m9.81-1.9c.17 2.1.25 4.2.21 6.3s-.29 4.2-.28 6.3c0 1.79 2.76 2.24 3.18.43.49-2.15.55-4.41.56-6.6.01-2.15-.09-4.29-.29-6.43-.09-.91-.71-1.69-1.69-1.69-.86 0-1.76.77-1.69 1.69m9.81-1.9c.17 2.1.25 4.2.21 6.3s-.29 4.2-.28 6.3c0 1.79 2.76 2.24 3.18.43.49-2.15.55-4.41.56-6.6s-.09-4.29-.29-6.43c-.09-.91-.71-1.69-1.69-1.69-.86 0-1.76.77-1.69 1.69"/></svg>