<?xml version="1.0" encoding="UTF-8"?><svg xmlns="http://www.w3.org/2000/svg" viewBox="0 0 180 180"><path d="M123.58 94.31c.25-5.33.51-10.74.33-16.07-.02-.68-.36-1.46-1.01-1.76-4.87-2.29-9.4-5.22-13.4-8.83l-1.47 3.56c20.97-2.57 41.84-5.86 62.58-9.87-.68-1.16-1.35-2.32-2.03-3.49-5.52 6.67-10.81 13.35-15.07 20.91-4.33 7.68-10.12 14.44-15.52 21.38l3.29.42c-2.42-3.59-4.76-7.2-6.85-11-.47-.86-1.82-1.3-2.65-.7-2.99 2.15-6.26 3.9-9.7 5.22-.99.38-1.68 1.33-1.38 2.42.26.96 1.42 1.75 2.42 1.38 3.8-1.42 7.32-3.31 10.6-5.67-.88-.23-1.77-.46-2.65-.7 2.07 3.78 4.2 7.56 6.58 11.16.66 1 2.41 1.56 3.29.42 5.41-6.94 11.35-13.71 15.74-21.37 2.14-3.74 4.33-7.4 6.87-10.88 2.52-3.46 5.24-6.76 7.97-10.06 1.34-1.62.08-3.89-2.03-3.49a924 924 0 0 1-61.47 9.72c-1.63.2-2.96 2.22-1.47 3.56 4.27 3.84 9.05 7.04 14.29 9.41l-1.01-1.76c.26 5.37.62 10.69.62 16.07 0 2.03 3.05 2.01 3.14 0Z"/><path d="M123.46 95.9c1.33-1.99 2.59-4.02 3.86-6.05 1.18-1.88 2.22-4.05 3.82-5.62 1.43-1.4 3.39-2.23 5.13-3.18 2.1-1.14 4.2-2.27 6.29-3.42a421 421 0 0 0 24.2-14.41c1.74-1.12.2-3.78-1.62-2.78-6.52 3.56-13.59 5.97-20.56 8.5-7.35 2.66-14.71 5.31-22.09 7.89-2.02.71-1.13 3.97.89 3.22 7.49-2.75 15.02-5.45 22.54-8.13 7.11-2.53 14.23-5.02 20.84-8.71l-1.62-2.78a463 463 0 0 1-24.95 15.02c-2.08 1.17-4.18 2.31-6.29 3.42-1.87.98-3.78 1.9-5.23 3.48s-2.58 3.66-3.71 5.55c-1.31 2.19-2.62 4.38-3.86 6.61-.86 1.55 1.39 2.83 2.36 1.38ZM12.5 69.16c.87-4.48 3.4-8.32 7.05-11.04 4.18-3.12 9.74-4.45 14.64-5.98 10.63-3.32 21.6-6.11 32.63-7.73 2.26-.33 4.74-.54 6.92.28 2.06.77 3.33 2.56 4.31 4.43 1.2 2.29 2.13 4.73 3.15 7.1 1.18 2.75 2.36 5.51 3.54 8.26 4.65 10.86 9.31 21.72 13.96 32.58l6.93 16.17c1.12 2.62 2.25 5.24 3.37 7.86 1.07 2.49 2.24 5.01 2.7 7.7.42 2.44-.09 4.84-1.2 7.03-1.05 2.07-2.39 4.19-4.16 5.72-1.94 1.67-4.6 2.27-6.98 3.04-2.78.9-5.56 1.79-8.34 2.68-5.41 1.72-10.84 3.38-16.31 4.92-5.36 1.51-10.78 3.05-16.26 4.03-4.01.72-8.92 1.03-12.25-1.78-1.89-1.59-3.07-3.85-4.26-5.97-1.32-2.36-2.59-4.75-3.82-7.17-9.98-19.72-16.61-40.93-23.62-61.83-.9-2.7-1.83-5.37-2.86-8.02-.8-2.05-3.99-1.29-3.37.93 1.63 5.89 3.66 11.67 5.58 17.48 1.82 5.52 3.66 11.04 5.57 16.53 3.85 11.05 8.04 22.01 13.06 32.59 2.4 5.07 4.84 10.34 7.97 15.01 1.41 2.11 3.17 4.01 5.47 5.16 2.24 1.13 4.72 1.61 7.22 1.67 5.43.12 10.89-1.51 16.1-2.86 5.89-1.53 11.73-3.25 17.53-5.05 5.73-1.78 11.52-3.49 17.16-5.52 2.61-.94 4.9-2.25 6.67-4.43 1.71-2.09 3.14-4.46 4.11-6.98 2.2-5.68.21-10.91-2.05-16.2-2.42-5.63-4.83-11.27-7.25-16.9-4.95-11.55-9.9-23.09-14.85-34.64-2.46-5.74-4.92-11.47-7.38-17.21-2.01-4.69-4.41-9.48-9.92-10.52-2.56-.48-5.12-.24-7.68.16-2.92.45-5.82 1.01-8.71 1.6-5.83 1.19-11.61 2.6-17.33 4.22-5.69 1.62-11.49 3.29-16.95 5.61-4.76 2.02-8.67 5.21-10.93 9.94-1.03 2.15-1.66 4.38-1.96 6.73-.2 1.58 2.49 1.94 2.79.38Z"/><path d="M24.79 51.34c-4.33 1.64-5.6 6.12-5.26 10.4.37 4.62 1.94 9.2 3.3 13.61 1.55 5.06 3.24 10.1 5.19 15.02 2.14 5.41 4.55 10.73 6.8 16.1 4.5 10.73 9.01 21.44 14.45 31.74 2.4 4.55 5.86 9.28 11.66 8.66 3.13-.33 6.26-1.3 9.32-2.01 3.15-.72 6.29-1.43 9.43-2.21 7.05-1.74 14.04-3.74 20.96-5.94 3.23-1.03 6.6-1.94 9.68-3.36 2.51-1.16 4.55-3.01 4.75-5.9.14-1.94-3.01-2.37-3.41-.46s-2.36 2.87-4.04 3.5c-2.69 1.02-5.46 1.88-8.2 2.76-5.76 1.86-11.57 3.55-17.41 5.13-5.75 1.55-11.56 3.06-17.42 4.14-2.43.45-5.22 1.18-7.47-.22-1.79-1.11-2.94-3.07-3.94-4.86-5.22-9.38-9.4-19.35-13.54-29.24-3.95-9.43-8.31-18.69-11.58-28.39-1.69-5-3.32-10.08-4.57-15.21-.85-3.48-1.58-8.78 2.44-10.52 1.54-.67.44-3.35-1.16-2.74Z"/><path d="M46.87 156.59c3.62-3.12 7.24-6.24 10.86-9.37.34-.3.7-.6 1.12-.76.56-.22 1.18-.18 1.78-.19 1.59-.02 3.15-.37 4.7-.72 2.29-.52 4.58-1.03 6.88-1.55 2.16-.48 4.31-.97 6.46-1.47a364 364 0 0 0 32.27-9.17c-1.88 2.54-3.76 5.07-5.66 7.59-.83 1.1-1.68 2.22-2.85 2.94-.85.53-1.82.81-2.78 1.1-9.46 2.78-18.92 5.55-28.39 8.33-5.16 1.51-10.35 3.03-15.7 3.59-1.88.2-3.81.27-5.65-.18"/><path d="M47.59 157.83c3.74-2.61 7.15-5.77 10.66-8.69.92-.77 1.2-.99 2.39-1.01 1.12-.02 2.23-.17 3.33-.38 2.16-.4 4.31-.94 6.45-1.42 8.78-1.96 17.52-4.03 26.17-6.5 4.99-1.43 9.94-2.97 14.87-4.59-.73-.95-1.46-1.89-2.18-2.84-1.35 1.8-2.81 3.51-4.16 5.31-1.07 1.42-2.1 3.21-3.57 4.25-1.58 1.12-3.93 1.43-5.76 1.96-2.13.62-4.26 1.25-6.39 1.87-8.27 2.43-16.51 5.04-24.85 7.23-2.29.6-4.6 1.13-6.95 1.5s-4.79.67-7.11.16c-2.66-.58-3.79 3.5-1.13 4.08 4.43.97 9.19.02 13.54-.98s8.81-2.39 13.19-3.67l13.72-4.02c2.21-.65 4.42-1.29 6.62-1.94s4.48-1.11 6.51-2.12c2.16-1.07 3.51-3.14 4.91-5.01 1.64-2.19 3.15-4.47 4.76-6.68.99-1.36-.65-3.36-2.18-2.84-8.75 2.98-17.63 5.57-26.59 7.83-4.48 1.13-8.99 2.16-13.5 3.18-2.14.48-4.28.99-6.43 1.45-1.09.23-2.16.41-3.27.46s-2.17.1-3.15.72c-2.05 1.31-3.83 3.31-5.64 4.92-2.03 1.8-4.13 3.55-5.99 5.52-1.07 1.13.35 3.21 1.73 2.25M60.07 51.66c-2.73.26-5.4.69-8.05 1.38-1.3.34-2.58.73-3.84 1.18-1.2.43-2.63.79-3.67 1.54-1.29.93-1.78 2.72-.53 3.93 1.15 1.12 2.82.57 4.17.25 2.69-.63 5.35-1.33 8-2.12 1.47-.43 2.94-.87 4.38-1.38s3.1-1.82 2.46-3.61c-.29-.83-.95-1.36-1.84-1.4-.22 0-.45-.02-.67-.03-2.45-.1-2.45 3.73 0 3.81.22 0 .45.02.67.02l-1.84-1.4c-.02-.41.07-.78.28-1.1.12-.04.09-.03-.08.03-.33.04-.7.24-1.02.34-.58.19-1.17.38-1.75.56-1.27.4-2.54.78-3.82 1.14s-2.56.71-3.85 1.03a115 115 0 0 1-2.67.65c-.2.05-.4.09-.6.14.24-.02.47.06.68.26l.48.82c-.62 1.01-.69 1.34-.2.99.05-.04.11-.06.17-.08.27-.13.55-.22.83-.33.6-.23 1.21-.46 1.82-.67 1.17-.41 2.35-.81 3.54-1.17 2.41-.74 4.87-1.4 7.34-1.93 1.59-.34 1.27-3.05-.39-2.89Zm2.53 22.55c-8.27.12-15.75 5.64-18.83 13.24-3.12 7.69.19 16.33 6.89 20.88 9.73 6.61 26.61 4.54 32.69-6.14 1.85-3.25 2.44-6.98 1.91-10.65s-1.96-7.66-5.51-9.5c-1.9-.98-3.58 1.91-1.67 2.86 4.72 2.35 4.31 10.11 2.42 14.21-2.04 4.42-6.55 7.01-11.13 8.08s-9.87.82-14.1-1.15c-5.47-2.55-9.32-8.29-8.23-14.46 1.29-7.27 8.28-13.43 15.57-14.17 2.01-.2 2.1-3.23 0-3.2Z"/><path d="M64.25 98.52c-3.72-1.55-7.63-3.67-10.52-6.52l.31 2.38c1.08-1.8 2.13-3.92 3.77-5.29l-.87.51s1.12.52 1.4.64c.71.32 1.41.66 2.1 1 1.32.66 2.61 1.38 3.87 2.15 1.69 1.03 3.34-.96 2.56-2.56-.12-.24.57-1.49.66-1.73.3-.77.6-1.54.91-2.3.58-1.46 1.15-2.92 1.73-4.38s1.15-2.92 1.74-4.37c.31-.77.61-1.53.92-2.3.14-.35.63-1.8.66-1.81l-1.44.19c.39.09.91.72 1.22.97.56.45 1.12.9 1.69 1.35l1.5 1.2c.38.31 1.01.64 1.24 1.08l-.26-.95c.07.93-.46 2.12-.71 3.01s-.52 1.78-.8 2.67c-.6 1.92-1.26 3.82-1.97 5.71a93 93 0 0 1-3.49 8.07c-.22.46-.58 1.6-1.15 1.7-2.12.38-1.38 3.32.47 3.5 2.09.2 3.16-1.66 3.96-3.28.92-1.89 1.78-3.8 2.59-5.74 1.67-4 3.08-8.11 4.2-12.3.52-1.95 1.22-3.84-.5-5.38s-3.5-2.81-5.24-4.2c-.75-.59-1.48-1.2-2.5-1.07-1.14.15-1.74 1-2.16 1.98-.87 2.05-1.67 4.13-2.5 6.2-.95 2.38-1.89 4.75-2.82 7.14-.85 2.19-2.32 4.61-1.16 6.92l2.56-2.56c-1.46-.89-2.93-1.75-4.46-2.52-1.4-.71-3.28-1.97-4.88-2s-2.62 1.38-3.53 2.55c-1.01 1.31-1.98 2.7-2.67 4.21-.48 1.04-.22 2.01.7 2.68 3.78 2.76 7.54 5.06 12.09 6.38 1.94.56 2.56-2.21.81-2.94Zm-3.94 24.73c1.88 1.34 4.58 1.34 6.43-.06 1.93-1.47 2.52-3.95 1.87-6.22-.36-1.24-2.11-1.85-3.03-.8-1.42 1.62-.73 4.1 1.36 4.76s4.78-.85 6.75-1.51c2.3-.78 4.61-1.54 6.93-2.24 2.43-.74 5.03-1.25 7.34-2.31 1.43-.66.73-3.07-.8-2.97-3.38.23-6.85 1.53-10.08 2.5-1.63.49-3.25 1-4.86 1.55-.77.26-1.53.53-2.29.8-.39.14-.96.26-1.32.47l-.42.12q.315.435.24 1.02l-3.32-.43c.82 2.06-1.32 3.57-3.1 2.42-1.84-1.19-3.43 1.67-1.7 2.9m10.3 6.77c5.85-1.44 11.7-2.88 17.54-4.36 2.22-.56 1.28-4.01-.95-3.44-5.83 1.5-11.65 3.04-17.47 4.58-2.07.55-1.2 3.72.88 3.21ZM56.13 30.53c5.75-4.49 12.97-7.02 20.24-7.36 7-.33 15.08 1.19 20.28 6.24 4.59 4.46 6.44 13.09.19 17.11-1.42.91-3.02 1.3-4.71 1.16-1.49-.12-2.74-.65-1.87-2.27.73-1.37 2.4-2.29 3.74-2.96 1.47-.73 3.14-1.2 4.77-1.37 7.84-.79 14.59 5.01 15.62 12.69.21 1.58 2.5 1.95 3.48.92 2.36-2.51 5.6-3 8.89-2.45 1.85.31 3.28-2.23 1.37-3.24-4.34-2.29-9.92-.69-13.19 2.75l3.55 1.47c-1.15-8.95-8.39-16.05-17.56-16.3-4.5-.12-9.25 1.36-12.6 4.44-1.6 1.47-2.66 3.5-2.4 5.71.3 2.61 2.29 4.15 4.78 4.57 4.74.79 9.11-1.22 11.87-5.08 2.56-3.58 3.03-8.29 1.67-12.42-3.07-9.33-12.75-13.59-21.86-14.53-10.22-1.05-20.57 2.23-28.56 8.62-1.66 1.32.68 3.6 2.32 2.32Z"/></svg>