<?xml version="1.0" encoding="UTF-8"?><svg xmlns="http://www.w3.org/2000/svg" viewBox="0 0 180 180"><path d="M29.22 88.53c-6.07 1.61-12.14 3.17-18.19 4.85-1.02.28-1.92 1.54-1.49 2.62 1.07 2.66 3.07 4.45 5.56 5.8 2.64 1.43 5.44 2.57 8.13 3.89 5.94 2.92 11.74 6.11 17.44 9.47 11.3 6.66 22.2 13.98 33.43 20.75 2.9 1.75 6.2 4.58 9.8 3.58s6.8-3.17 10.26-4.53c1.08-.42 1.82-1.43 1.5-2.63-.29-1.06-1.54-1.88-2.63-1.5-3 1.05-5.82 2.54-8.77 3.7-1.12.44-1.9.9-3 .29-1.37-.76-2.7-1.62-4.04-2.43-5.34-3.27-10.63-6.59-15.93-9.92-10.57-6.65-21.18-13.28-32.31-18.95-3.09-1.57-6.24-3.02-9.41-4.42-2.04-.9-4.98-2-5.92-4.24-.5.87-.99 1.75-1.49 2.62 6.02-1.76 12.01-3.64 18.01-5.48 2.21-.68 1.3-4.08-.96-3.48Z"/><path d="M91.86 133.34c.98-6.46 5.3-11.98 10.86-15.25 6.41-3.78 14.06-4.64 21.37-4.2 4.71.29 9.35 1.13 13.96 2.05l-1.32-3.24c-2.83 4.41-5.66 8.83-8.49 13.24l-4.18 6.51-2.16 3.36-1.08 1.68-.54.84c-.33.45-.38.54-.13.29l1.1-.3c-.25.02-.88-.38-1.21-.55-.61-.3-1.22-.59-1.84-.88-1.19-.55-2.4-1.07-3.61-1.56a74 74 0 0 0-7.26-2.5c-4.9-1.4-10.09-2.18-15.17-2.59-2.25-.18-2.23 3.3 0 3.5 7.97.7 15.86 2.97 23.09 6.41.88.42 1.76.86 2.62 1.32s1.73 1.08 2.72 1.2c2.43.3 3.47-2.1 4.57-3.81 2.38-3.71 4.76-7.42 7.14-11.14 2.74-4.27 5.48-8.55 8.22-12.82.73-1.14.05-2.96-1.32-3.24-8.73-1.73-17.69-3.05-26.55-1.54-7.7 1.31-14.98 4.96-19.72 11.3-2.5 3.34-3.96 7.31-4.28 11.46-.14 1.8 2.92 2.25 3.19.43Z"/><path d="M114.85 117.07c-1.94-1.5-4.5-1.91-6.89-2.04-1.34-.07-2.76-.08-3.94.66-1.1.69-1.86 1.9-1.77 3.22.23 3.11 3.59 3.63 5.92 4.55 1 .39 2 .92 2.85 1.57.21.16.42.45.65.57-.34-.24-.23-.65.31-1.2-.03 0 .34-.05-.03 0-.6.08-1.16.33-1.78.37-1.38.11-2.74-.04-4.1-.33-.76-.16-1.51-.36-2.26-.58-.35-.1-.7-.21-1.05-.31-.15-.05-.31-.1-.46-.14-.45-.12.01-.05.13.22-.32-.74-1.39-.97-2.06-.67s-1.27 1.17-.95 1.94.8 1.28 1.61 1.58c.66.24 1.35.42 2.03.61 1.36.38 2.73.68 4.14.86s2.82.17 4.23-.06c1.32-.21 3-.63 3.36-2.13.4-1.67-1.13-2.85-2.32-3.69-1.06-.74-2.23-1.29-3.43-1.76-1.06-.42-2.36-.59-3.29-1.26-.03-.02-.12-.14-.19-.25.03.04-.06-.24-.06 0 0-.18.08-.18.16-.25.05-.04.19-.13.34-.18.61-.23 1.33-.17 1.97-.16.68 0 1.37.02 2.05.08 1.24.1 2.44.43 3.48 1.12.61.4 1.49.12 1.84-.48.41-.69.09-1.39-.48-1.84Zm-85.13 3.26c-4.29 1.41-8.4 4.07-10.68 8.07-1.17 2.05-1.74 4.4-1.32 6.75.39 2.19 1.7 4.08 3.13 5.72 3.18 3.65 7.73 6.09 11.84 8.54s8.69 5.64 13.74 4.7c4.1-.77 6.73-4.15 9.54-6.9 1.62-1.58 3.71-2.78 4.94-4.72s1.44-4.49-.11-6.28c-1.29-1.49-3.44-1.99-5.33-1.62-2.16.43-3.87 1.98-5.34 3.53-1.56 1.64-3.06 3.34-5.48 3.43s-4.67-.94-6.73-1.98a46 46 0 0 1-7.15-4.45q-.795-.615-1.56-1.26c-.64-.55-.73-.6-.32-1.37a8.3 8.3 0 0 1 2.18-2.63c1.72-1.36 4.07-2.23 4.52-4.64.4-2.12-.91-4.35-3.19-4.41-2.09-.05-2.09 3.2 0 3.25-.17 0-.08-.14-.02.16.04.2.04.36-.03.55-.26.7-1.33 1.2-1.91 1.57-1.6 1.01-2.96 2.23-4 3.82-1.1 1.69-1.83 3.73-.28 5.38 1.39 1.48 3.25 2.72 4.92 3.86 3.37 2.31 7.34 4.73 11.44 5.38 2.06.33 4.11.17 6-.78 1.73-.87 3.02-2.37 4.35-3.73 1.1-1.12 2.57-2.59 4.3-2.29 1.94.34 1.22 2.3.25 3.33-1.3 1.38-2.92 2.48-4.29 3.79-1.27 1.21-2.48 2.49-3.86 3.58-1.2.95-2.62 1.74-4.17 1.85-2.13.16-4.18-.71-6.03-1.68-3.89-2.02-7.7-4.32-11.3-6.82-3.07-2.13-7.08-5.41-6.14-9.66s5.25-7.62 8.94-9.09c1.81-.72 1.11-3.63-.83-3Z"/><path d="M9.35 95.62c-.98 6.64-1.26 13.15-.63 19.85.28 2.91.5 5.99 2.46 8.32 1.94 2.3 5.08 3.92 7.75 5.21 2.08 1.01 3.91-2.07 1.82-3.12-2.31-1.16-5.21-2.44-6.93-4.44-1.67-1.94-1.6-5.25-1.81-7.66-.5-5.88-.58-11.93-.13-17.82.11-1.43-2.32-1.79-2.53-.34m18.26 37.35c5.12 4.3 11.27 7.46 17.41 10.05.9.38 1.99-.41 2.22-1.26.28-1.03-.35-1.85-1.26-2.22-2.89-1.18-5.72-2.49-8.48-3.96s-5.51-3.15-8.27-4.7c-1.27-.72-2.82 1.09-1.62 2.1Zm25.9 15.17c5.19 4.72 10.94 8.9 17.01 12.41 2.98 1.73 6.08 3.59 9.33 4.77 3.57 1.3 7.01.1 10.24-1.53 13.32-6.73 26.71-13.13 40.5-18.86 1.5-.62 3.05-1.27 4.2-2.46 1.3-1.35 1.67-3.06 1.66-4.88-.03-4.31-.37-8.62-.66-12.92-.13-1.92-2.95-1.96-3.02 0-.13 3.53-.28 7.06-.26 10.59 0 1.21.34 3.06-.32 4.13-.62 1-2.08 1.47-3.1 1.9a525 525 0 0 0-19.01 8.28c-6.34 2.92-12.62 5.98-18.83 9.16-2.63 1.35-5.81 3.62-8.93 3.19-1.52-.21-2.96-1.07-4.3-1.75-1.47-.75-2.92-1.52-4.36-2.32-6.4-3.58-12.48-7.65-18.34-12.06-1.36-1.02-3.07 1.22-1.82 2.36Z"/><path d="M81.27 138.02c.16 8.06-1.2 16.76.67 24.6 2.13-.23 6.49-1.86 8.41-2.8 12.23-5.96 24.66-11.5 37.27-16.6 1.71-.69 3.57-1.5 4.43-3.13.29-.55.45-1.16.59-1.77.81-3.51 1.18-7.12 1.09-10.71-2.39 3.06-4.8 6.15-6.46 9.66-.63 1.32-1.16 2.71-2.01 3.9-.86 1.19-2.12 2.18-3.59 2.29-1.37.1-2.67-.57-3.87-1.23l-8.55-4.65c-1.58-.86-3.18-1.73-4.92-2.18-1.61-.42-3.29-.46-4.95-.48-1.81-.02-3.62-.02-5.43.02"/><path d="M79.94 138.02c-.82 8.22-1.71 16.97.15 25.11.17.73 1.05 1.5 1.84 1.4 3.49-.44 6.89-1.84 10.04-3.37 4.59-2.22 9.21-4.39 13.86-6.49 4.57-2.07 9.17-4.09 13.8-6.04 2.38-1.01 4.77-1.99 7.16-2.97 1.96-.8 4.02-1.49 5.63-2.92 1.88-1.67 2.28-4.3 2.65-6.66.44-2.81.61-5.63.57-8.47-.02-1.5-2.18-2.72-3.26-1.35-2.5 3.17-5.04 6.37-6.81 10.02-.77 1.6-1.39 3.62-2.89 4.71s-3.14-.19-4.47-.93c-3.72-2.07-7.4-4.49-11.34-6.12-4.03-1.67-8.65-1.31-12.93-1.24-2.86.05-2.87 4.5 0 4.45 2.41-.04 4.84-.1 7.24.03 2.09.11 3.89.72 5.75 1.66 1.99 1.02 3.96 2.07 5.94 3.12s3.95 2.31 6.06 3.07c4.33 1.57 7.6-1.49 9.31-5.18 1.84-3.97 4.17-7.44 6.85-10.9l-3.26-1.35c.05 2.25-.07 4.51-.41 6.74-.25 1.66-.33 4.29-1.62 5.51s-3.5 1.81-5.16 2.49c-2.18.89-4.35 1.8-6.52 2.72-8.65 3.66-17.2 7.54-25.66 11.61-3.26 1.57-6.91 3.57-10.5 4.03l1.84 1.4c-1.84-7.96-.13-16.09-1.18-24.1-.22-1.68-2.48-1.73-2.66 0Zm-60.56-27.71-.05.11.94-.73c-.45.16-.82.37-1.06.8-.12.21-.23.52-.3.77-.09.29-.14.59-.19.88-.14.73-.24 1.47-.33 2.21-.07.62-.11 1.25-.11 1.87-.01.93-.14 2.22.67 2.84.38.3.78.56 1.29.54.49-.02.94-.19 1.29-.54.79-.77.59-1.74.57-2.72-.01-.62 0-1.25.02-1.88s.06-1.2.12-1.8c.02-.15.03-.3.05-.45.03-.2.02-.17-.01.09.04-.18.06-.35.07-.53.04-.63-.04-1.23-.53-1.69l.46 1.12v-.13c-.03-.66-.46-1.34-1.14-1.49-.63-.14-1.44.08-1.75.71Zm47.45 27.79-.05.11.94-.73c-.45.16-.82.37-1.06.8-.12.21-.23.52-.3.77-.09.29-.14.59-.19.88-.14.73-.24 1.47-.33 2.21-.07.62-.11 1.25-.11 1.87-.01.93-.14 2.22.67 2.84.38.3.78.56 1.29.54.49-.02.94-.19 1.29-.54.79-.77.59-1.74.57-2.72-.01-.62 0-1.25.02-1.88s.06-1.2.12-1.8c.02-.15.03-.3.05-.45.03-.2.02-.17-.01.09.04-.18.06-.35.07-.53.04-.63-.04-1.23-.53-1.69l.46 1.12v-.13c-.03-.66-.46-1.34-1.14-1.49-.63-.14-1.44.08-1.75.71Zm-38.85-17.44c.14.05.28.1.42.16.28.11-.2-.09-.04-.02.07.03.14.06.2.09.27.12.54.25.79.41s.49.34.73.51c-.36-.25.02.02.12.1.12.11.25.21.36.32.43.4.85.84 1.24 1.29.05.06.1.11.14.17.04.05.21.27.04.05s0 0 .03.05c.04.06.09.12.13.18.18.26.35.52.5.79.43.75 1.51 1.07 2.26.59s1.08-1.47.59-2.26c-.8-1.3-1.81-2.41-3.06-3.28-1.12-.78-2.43-1.38-3.73-1.78-.68-.21-1.51.25-1.67.95-.17.76.23 1.42.95 1.67Zm26.23 14.97c.14.05.28.1.42.16.28.11-.2-.09-.04-.02.07.03.14.06.2.09.27.12.54.25.79.41s.49.34.73.51c-.36-.25.02.02.12.1.12.11.25.21.36.32.43.4.85.84 1.24 1.29.05.06.1.11.14.17.04.05.21.27.04.05s0 0 .03.05c.04.06.09.12.13.18.18.26.35.52.5.79.43.75 1.51 1.07 2.26.59.73-.47 1.08-1.47.59-2.26-.8-1.3-1.81-2.41-3.06-3.28-1.12-.78-2.43-1.38-3.73-1.78-.68-.21-1.51.25-1.67.95-.17.76.23 1.42.95 1.67Zm-14.93-32.27c-.38-2.67-1.31-5.2-2.44-7.63-1.1-2.35-2.35-4.76-3.81-6.91-2.88-4.25-7.38-6.05-12.07-7.61.16 1.2.31 2.41.47 3.61 3.41-1.74 6.81-3.5 10.2-5.27 1.66-.87 3.32-1.73 4.98-2.6.87-.45 1.73-.91 2.6-1.36.62-.32 1.2-.64 1.9-.49 1.71.36 3.45 2.5 4.61 3.72 1.88 1.97 3.27 4.15 4.32 6.66.61 1.46 2.95 1.43 2.95-.4 0-3.25-2.02-6.23-4.04-8.61-1.67-1.96-3.77-4.19-6.22-5.08-1.97-.72-3.76-.19-5.56.72-1.96 1-3.9 2.03-5.85 3.05-3.97 2.07-7.94 4.14-11.88 6.25-1.56.83-1.09 3.13.47 3.61 4.06 1.26 7.99 2.65 10.47 6.32 2.59 3.84 5.27 8.18 6.18 12.77.36 1.82 2.98 1 2.73-.75Z"/><path d="M37.15 108.04c11.13-6.93 22.28-13.82 33.46-20.66.89-.54 1.24-1.74.7-2.65-3.47-5.82-7.84-11.06-12.99-15.46-.13 1.04-.27 2.07-.4 3.11 16.37-8.3 32.72-16.64 49.16-24.8 1.31-.65 1.37-2.92 0-3.55-6.05-2.8-11.82-6.12-17.15-10.12-.36 1.31-.71 2.62-1.07 3.93 17.25-2.19 34.49-4.37 51.74-6.56 4.93-.62 9.85-1.26 14.78-1.87-.6-1.05-1.21-2.1-1.81-3.15-6.7 15.18-14.75 29.76-24.11 43.46-2.64 3.86-5.38 7.65-8.21 11.37a581 581 0 0 0 3.96 1.07c-.79-7.09-1.94-14.13-3.47-21.09-.33-1.49-1.96-1.78-3.14-1.28-10.2 4.34-20.4 8.66-30.59 13.03-1.05.45-1.37 2.1-.78 2.99 1.3 1.99 2.59 3.99 3.89 5.98.63.96 1.25 1.92 1.88 2.89.31.48.63.96.94 1.44.21.32.63 1.35.94 1.5.06.03.11.55.15-.03.03-.4.09-.14-.21-.04-.46.15-.94.48-1.37.69-1.04.51-2.07 1.02-3.11 1.53-2.14 1.06-4.29 2.11-6.43 3.17-8.51 4.18-17.03 8.34-25.55 12.48q-7.35 3.555-14.7 7.08c-2.43 1.17-.31 4.77 2.11 3.62 9.3-4.45 18.58-8.92 27.86-13.4 4.6-2.22 9.2-4.46 13.8-6.69 2.3-1.12 4.6-2.24 6.89-3.36 2-.98 4.62-1.86 4.95-4.41.17-1.38-.43-2.6-1.16-3.72s-1.52-2.34-2.28-3.51c-1.61-2.48-3.22-4.95-4.82-7.43-.26 1-.52 2-.78 2.99 10.19-4.35 20.36-8.74 30.54-13.11-1.05-.43-2.09-.85-3.14-1.28 1.47 6.59 2.59 13.25 3.34 19.96.24 2.17 2.65 2.79 3.96 1.07 10.05-13.19 18.94-27.3 26.34-42.15 2.09-4.19 4.06-8.43 5.93-12.72.54-1.25-.04-3.38-1.81-3.15-17.24 2.22-34.49 4.36-51.74 6.53-4.93.62-9.85 1.24-14.78 1.87-2.13.27-2.81 2.63-1.07 3.93 5.33 4 11.07 7.42 17.21 10.02v-3.55C88.7 52.42 72.3 60.66 55.93 68.94c-1.08.55-1.34 2.31-.4 3.11 4.9 4.2 9.11 9.1 12.45 14.62.23-.88.46-1.77.7-2.65a5467 5467 0 0 1-33.17 21.14c-1.8 1.14-.15 3.99 1.67 2.86Z"/><path d="M41.39 82.72c-2.59.58-4.76 2.81-5.35 5.39-.18.79.24 1.76 1.1 1.94.93.19 1.88.3 2.83.24.54-.03 1.09-.11 1.63-.21.15-.03.3-.07.46-.1q.285-.06 0 0c-.1 0-.2-.04-.28-.1a.63.63 0 0 1-.25-.26c.08.15.08.13-.02-.06.03.15.04.15.01.02-.02-.13-.02-.13-.02.02.03-.21.03-.21-.02-.01-.06.18-.07.19 0 .04-.09.18-.2.36-.31.53-.47.74-1.04 1.46-1.4 2.26-.33.72-.25 1.52.41 2.04.58.45 1.56.48 2.07-.12.73-.85 1.36-1.89 1.91-2.87.6-1.08.83-2.42.11-3.5-.37-.55-.91-.96-1.56-1.11s-1.3.01-1.95.15c-.11.02-.23.04-.34.07-.18.03-.23.04-.13.02h-.05c-.26.03-.52.04-.78.04q-.435 0-.87-.03c-.05 0-.26-.03-.1 0-.17-.02-.34-.06-.51-.09l1.1 1.94c.06-.26.12-.51.21-.76.01-.04.15-.37.06-.18s.07-.14.09-.17c.12-.23.25-.46.4-.68.02-.03.24-.31.11-.16-.11.14.15-.16.18-.2.16-.18.33-.35.52-.5.05-.05.36-.27.11-.09.09-.06.18-.13.27-.19a8 8 0 0 1 .97-.53c-.23.1.07-.02.15-.05.7-.24 1.23-.98.99-1.74s-.97-1.16-1.74-.99Zm29.73 19.16c-2.75.33-5.5 1.42-7.88 2.84-2.17 1.3-3.88 3.49-3.99 6.09-.11 2.75 1.84 5.11 4.24 6.22 2.66 1.23 5.74 1.14 8.6 1.13 5.41-.01 11.29-.54 15.88-3.7 2.29-1.57 3.97-3.71 3.09-6.64-.78-2.6-3.27-4.71-5.85-5.43-2.32-.65-4.97-.66-7.37-.79s-4.85-.34-7.15.21c-1.71.41-1.39 3.27.42 3.13 3.23-.25 6.49-.34 9.73-.12 1.74.12 3.44.68 4.88 1.67 1.39.96 2.89 2.81 1.3 4.25-3.02 2.74-7.55 3.54-11.47 3.77-2.2.13-4.41.13-6.61.04-1.92-.08-4.28-.32-5.55-1.98-2.99-3.92 5.49-7.37 8.12-7.8 1.62-.27 1.26-3.1-.39-2.9Z"/><path d="M62.31 111.29c4.2 1.28 8.62 1.66 13 1.37 4.21-.28 8.87-1.01 12.69-2.88 1.41-.69.42-2.94-1.06-2.51-1.98.57-3.88 1.31-5.9 1.77s-3.94.72-5.95.85c-4.07.26-8.14-.14-12.14-.91-1.51-.29-2.14 1.87-.64 2.32Zm.62 3.95c-1.27 1.09-1.2 3.07-.38 4.41.93 1.51 2.72 2.12 4.32 2.61 3.98 1.2 8.25 1.72 12.4 1.73 2.02 0 4.03-.13 6.04-.39 1.79-.23 3.65-.61 4.94-1.99 1.12-1.2 1.57-3.04.83-4.55-.81-1.67-2.79-2.85-4.4-3.64-1.88-.93-3.53 1.88-1.65 2.82.78.39 2.67 1.22 2.99 2.13s-.79 1.39-1.48 1.59c-2.51.72-5.39.69-7.98.65-2.72-.05-5.43-.34-8.1-.91-1-.21-6.32-.87-5.28-2.7.84-1.48-1.05-2.8-2.27-1.75Z"/><path d="M61.66 117.03c-3.67 2.19-1.25 7.36 1.49 9.14 1.79 1.16 3.96 1.59 6.03 1.94 2.39.4 4.8.7 7.21.9s4.87.29 7.31.27c2.21-.02 4.37-.2 6.17-1.61 2.73-2.14 3.82-6.21 2.76-9.49-.49-1.52-3.19-1.37-2.96.4.29 2.29.08 5.12-1.99 6.6-1.27.91-2.99.77-4.47.77-1.95 0-3.9-.06-5.85-.2-3.46-.24-7.13-.51-10.48-1.5-1.34-.4-2.76-1.05-3.43-2.36-.62-1.2-.37-2.22.07-3.42.39-1.07-.96-1.98-1.87-1.44Z"/><path d="M71.12 131.12c6.26-.44 12.56-.55 18.83-.3 2.09.08 2.09-3.18 0-3.25-6.29-.22-12.56-.04-18.83.53-1.91.18-1.95 3.15 0 3.02m-22.07-17.49c3.39-1.09 6.77-2.17 10.16-3.26.08-.03.19-.05.25.01.07.07.03.18 0 .27-.55 1.4.02 2.97.59 4.36.06.15.14.32.28.4.19.1.45.02.61.15.22.19.05.54-.11.78-.4.63-.6 1.39-.55 2.13.03.51.12 1.15-.32 1.43-.35.22-.8.03-1.17-.15-1.62-.83-3.25-1.65-4.87-2.48-.54-.28-1.09-.55-1.58-.92-.76-.57-1.38-1.36-2.28-1.66"/><path d="M49.49 115.22c1.74-.53 3.47-1.07 5.21-1.6.83-.25 1.66-.51 2.49-.76s1.74-.62 2.63-.79h-.95l.12.04-1.25-1.25.03.13v-.95c-.4 1.36-.44 2.62-.03 3.99.19.65.44 1.3.72 1.91.14.3.33.55.57.77.25.24.55.4.89.49.1.04.21.05.32.06.4.07.33.03-.23-.11l-.66-.66c-.11-.15.21-1.64-.16-.98-.07.12-.13.24-.19.36-.17.35-.32.73-.41 1.11-.15.65-.18 1.32-.12 1.98 0 .19 0 .22.01.07 0-.12.06-.22.15-.31.11-.27.32-.39.65-.38.2-.2.39-.25.56-.14.1.06.06.04-.11-.05l-.21-.11c-.14-.07-.28-.14-.42-.22-.67-.34-1.34-.68-2.01-1.03-1.19-.61-2.43-1.16-3.55-1.88-.27-.18.15.13-.08-.05-.12-.09-.23-.19-.34-.29-.2-.18-.4-.36-.61-.53-.61-.5-1.19-.9-1.95-1.13-.88-.26-1.82.24-2.17 1.06-.32.77-.08 1.91.75 2.29a5 5 0 0 1 .77.43c-.12-.1-.13-.1-.03-.02.28.22.54.47.81.7.71.61 1.47 1.07 2.3 1.49 1.74.88 3.46 1.88 5.25 2.64 1.12.47 2.36.44 3.22-.51.71-.78.68-1.75.65-2.73-.02-.43-.08.1.02-.32 0 0 .16-.52.08-.33.18-.42.46-.75.58-1.21.15-.62.07-1.25-.27-1.79-.26-.4-.59-.64-1.01-.82-.11-.05-1.24-.34-.69-.18l.81.47s.14.37.07.13c-.05-.17-.13-.33-.19-.49-.12-.33-.23-.66-.32-1l-.09-.4c-.13-.6 0 .12-.04-.22-.01-.17-.02-.33-.01-.5v-.2c0 .12.01.11.04-.01.13-.46.24-.9.13-1.38a1.87 1.87 0 0 0-1.28-1.37c-.87-.26-1.73.17-2.55.44-2.92.98-5.85 1.96-8.78 2.93-.84.28-1.4 1.14-1.15 2.03.23.84 1.17 1.41 2.03 1.15Zm26.66-14.34c4.85.3 10.05.82 13.73 3.99 1.46 1.26 2.64 3.36 1.72 5.05-.81 1.5-3.1 2.41-2.75 4.08.1.49.43.89.76 1.26 1.34 1.5 3.03 3.16 2.71 5.15 2.65-1.43 4.42-4.06 6.9-5.76 1.7-1.17 3.67-1.86 5.62-2.53 3.92-1.36 9.88-.68 14.01-1.03-8.5-3.05-18.7-9.01-26.43-13.68-1.57-.95-3.29-1.97-5.11-1.75-.8.1-1.55.43-2.29.76-1.49.67-2.98 1.34-4.47 2-.14.06-.3.16-.31.31s.3.19.27.04"/><path d="M76.15 102.35c2.76.25 5.54.55 8.18 1.43 1.96.65 5.59 2.14 5.84 4.6.1.98-.91 1.56-1.54 2.16-.86.82-1.61 1.81-1.63 3.05-.05 2.85 3.77 4.04 3.48 6.83-.15 1.44 1.65 2.2 2.75 1.58 2.1-1.18 3.7-2.95 5.46-4.55 1.92-1.75 4.19-2.72 6.63-3.53 4.31-1.43 9.06-.63 13.52-.96 2.11-.16 2.49-2.92.49-3.64-7.09-2.57-13.75-6.32-20.23-10.11q-2.385-1.395-4.74-2.82c-1.55-.94-3.11-2.04-4.89-2.47-1.96-.48-3.66.04-5.45.81-1.05.46-2.09.93-3.14 1.4-.91.4-1.86.69-2.36 1.62-.32.6-.4 1.41 0 2.01.51.75 1.05 1 1.93 1.12.68.09 1.39-.44 1.72-.99l.06-.09c1.34-2.19-2.11-4.2-3.44-2.01l-.06.09 1.72-.99-.14-.02 1.72.99-.08-.11v2.01l.1-.19-.71.71c1.57-.94 3.48-1.68 5.18-2.36s2.94 0 4.38.83c2.92 1.68 5.79 3.45 8.71 5.11 6.03 3.42 12.22 6.67 18.74 9.04l.49-3.64c-4.8.36-9.86-.45-14.51 1.09-2.58.85-5.09 1.88-7.22 3.6-1.96 1.59-3.52 3.64-5.74 4.9l2.75 1.58c.16-1.6-.49-3.05-1.43-4.31-.48-.65-1.02-1.25-1.56-1.85-.32-.35-.52-.39-.41-.75.14-.48 1-.99 1.34-1.36.47-.5.89-1.04 1.16-1.67.65-1.46.43-3.04-.28-4.44-1.39-2.76-4.53-4.48-7.37-5.37-3.04-.96-6.28-1.13-9.45-1.25-1.91-.07-1.85 2.77 0 2.94Zm-24.11-7.26c-.05-3.81.73-7.7 2.36-11.16l-1.55.89c2.56-.08 5.11-.24 7.66-.41 1.25-.08 2.5-.17 3.74-.26s2.82.05 3.84-.64 1.11-2.15 0-2.78-2.58-.3-3.84-.21-2.5.18-3.74.26c-2.55.17-5.11.29-7.66.46-.58.04-1.29.3-1.55.89-1.78 4.13-2.58 8.47-2.15 12.97.17 1.81 2.9 1.88 2.88 0Zm-29.38 6.07c4-1.04 8-2.08 12.01-3.12.13-.03.27-.07.39 0 .13.06.19.2.24.33.85 2.04 1.59 4.14 2.2 6.26-1.07.75-2.25 1.35-3.48 1.79-.19.07-.39.13-.6.13-.3 0-.58-.16-.84-.31-3.24-1.83-4.45-2.55-7.9-3.96"/><path d="M23.05 102.57c2.07-.44 4.15-.85 6.21-1.35 2.01-.49 4.04-1.13 6.09-1.44h-.98l.19.04-.81-.47c-.42-.42-.02.08.06.29.1.26.2.52.3.77q.3.78.57 1.56c.36 1.05.71 2.1 1.03 3.16l.86-2.1c-.19.13-3.09 1.94-3.23 1.67.15-.04.28-.03.39.05a10 10 0 0 1-.44-.25c-.23-.13-.45-.26-.68-.38-.49-.28-.98-.56-1.47-.83-1.92-1.07-3.92-1.96-5.95-2.8-.93-.38-2.05.41-2.3 1.3-.29 1.07.37 1.91 1.3 2.3 2.07.86 4.06 1.87 6.01 2.96 1.32.74 2.63 1.7 4.22 1.2 1.42-.44 2.79-1.18 4.02-2.01.69-.46 1.09-1.28.86-2.1-.48-1.69-1.03-3.35-1.68-4.98-.35-.89-.63-1.99-1.45-2.56-1.03-.72-2.05-.27-3.12.04-1.75.5-3.51.96-5.27 1.44-1.85.51-3.67 1.11-5.51 1.68s-1.06 3.21.78 2.82Zm104.86 9.84c12.43-12.91 22.65-27.78 33.53-41.97.56-.72 1.53-1.58 1.89-2.4-.07.15.27-.2.23-.3.09.3-.61-.36-.19.46.31.6.58 1.24.87 1.85 1.36 2.9 2.69 5.81 4.06 8.71v-1.97a427 427 0 0 1-16.67 23.81q-4.335 5.745-8.88 11.31c-3.09 3.79-6.36 7.44-9.36 11.29-1.38 1.78.87 4.25 2.55 2.55 3.37-3.4 6.41-7.19 9.43-10.89 3.05-3.73 6.03-7.52 8.95-11.36 5.82-7.65 11.36-15.51 16.59-23.58.77-1.18 1.29-1.97.65-3.36-.55-1.19-1.16-2.36-1.73-3.53-1.09-2.22-2.02-4.57-3.24-6.72-1-1.76-2.95-2.92-4.86-1.71-1.49.95-2.54 2.92-3.6 4.31-5.04 6.61-9.95 13.31-14.96 19.94-5.55 7.33-11.14 14.67-17.38 21.43-1.3 1.41.77 3.5 2.11 2.11Z"/><path d="M142.9 57.89c6.19 3.45 12.92 6.09 19.52 8.66.91.36 1.99-.39 2.23-1.27.28-1.02-.35-1.88-1.27-2.23-6.5-2.5-12.8-5.48-19.26-8.07-1.68-.68-2.76 2.04-1.22 2.9Zm-4.84 7.72c1.64.32 2.99 1.15 4.46 1.9s2.92 1.48 4.39 2.23 2.93 1.47 4.4 2.2c.73.36 1.47.72 2.2 1.09.38.19.83.33.96.74.56 1.76 3.4 1.53 3.33-.45-.07-1.82-1.56-2.75-3.04-3.46-1.8-.86-3.6-1.72-5.41-2.57s-3.51-1.64-5.27-2.45-3.44-1.61-5.28-1.91c-.74-.12-1.5.19-1.71.97-.19.68.23 1.57.97 1.71M55.8 82.98c1.81-2.07 3.62-4.13 5.43-6.2.24-.27.52-.57.89-.59.43-.03.78.34 1.06.67.98 1.17 1.96 2.33 2.94 3.5.07.09.15.18.18.29.1.4-.44.63-.85.69-1.9.24-3.83.3-5.75.17"/><path d="M56.53 84.23c1.06-.79 1.89-1.86 2.77-2.84.85-.94 1.69-1.89 2.54-2.84.2-.22.4-.45.6-.67.04-.04.07-.08.11-.12.07-.07.08-.08.01-.03.03.09-.47.15-.62.11-.02 0-.29-.1-.27-.13 0 0 .23.24.25.27.2.23.38.47.58.7.42.51.84 1.02 1.26 1.52l.6.72c.09.11.18.21.26.32.28.34.01-.08.17.26l-.24-.88c.05-.41.22-.73.52-.97.21-.09.23-.1.04-.05.2-.02.18-.02-.07 0-.14.02-.27.03-.41.04-.55.05-1.09.09-1.64.11-1.1.04-2.19-.05-3.29 0-.86.03-1.57.63-1.68 1.48-.1.77.39 1.73 1.23 1.88 1.86.32 3.82.2 5.69 0 1.02-.11 2-.26 2.66-1.12.36-.47.48-1.02.41-1.6-.09-.69-.56-1.18-1-1.69-.59-.68-1.17-1.37-1.76-2.05-.55-.65-1.1-1.47-1.88-1.86-1.09-.56-2.23-.27-3.09.57-.61.6-1.14 1.31-1.7 1.95-.67.78-1.34 1.57-2.01 2.35s-1.51 1.62-2.03 2.56c-.31.56-.23 1.29.23 1.75.42.42 1.25.61 1.75.23Zm11.78-19.42a202.7 202.7 0 0 0 23.45-25.46c3.83 2.33 7.65 4.66 11.48 7-7.72 3.3-15.43 6.59-23.15 9.89"/><path d="M69.3 65.79c4.27-3.91 8.53-7.77 12.47-12.02 3.93-4.24 7.57-8.7 11.24-13.17-.71.09-1.42.18-2.13.28 3.76 2.44 7.6 4.75 11.42 7.09l.45-3.41c-7.9 3.29-15.78 6.62-23.64 10-.97.42-1.19 1.84-.7 2.67.59 1 1.69 1.12 2.67.7 7.72-3.28 15.42-6.6 23.1-9.97 1.34-.59 1.09-2.56 0-3.22-3.83-2.32-7.64-4.68-11.53-6.9-.89-.51-1.84-.14-2.41.63-3.37 4.59-7.16 8.91-11 13.1s-7.72 8.42-11.91 12.26c-1.32 1.21.65 3.17 1.97 1.97ZM42.41 54.52c-2.52-.89-5.04-1.79-7.55-2.72-1.23-.46-2.46-.92-3.7-1.37-.64-.24-1.28-.47-1.92-.71-.27-.1-.54-.22-.82-.33-.53-.21-.97-.15-1.52-.08-1.39.19-1.58 2.08-.78 2.94.59.62 1.35.77 2.13 1.02.65.21 1.29.43 1.94.64 1.25.41 2.49.82 3.74 1.23q3.81 1.26 7.59 2.58c.84.29 1.81-.34 2.04-1.16.25-.91-.31-1.74-1.16-2.04Zm13.84-11.3c-2.54-2.97-5.08-5.93-7.65-8.87-1.26-1.45-2.52-2.9-3.79-4.35s-2.53-3.06-3.97-4.42c-.62-.58-1.58-.67-2.26-.13-.61.49-.96 1.52-.44 2.22 1.19 1.62 2.58 3.08 3.92 4.58l3.95 4.43c2.63 2.95 5.28 5.89 7.94 8.82 1.41 1.55 3.62-.72 2.29-2.29Zm14.36-12.04c-.6-2.78-1.27-5.55-2.04-8.29-.37-1.35-.77-2.69-1.18-4.02-.44-1.42-.73-3.17-1.96-4.11-.78-.59-1.97.05-2.19.89-.35 1.37.54 2.96.98 4.25.45 1.32.88 2.66 1.29 3.99.82 2.67 1.55 5.37 2.21 8.09.46 1.88 3.3 1.08 2.89-.8m18.68-7.54c.04-.99.07-1.98.08-2.97v-1.46c.02-.7.02-1.42-.39-2.02-.65-.93-1.85-.93-2.5 0-.41.58-.41 1.28-.41 1.96 0 .51 0 1.01.01 1.52 0 .99.04 1.98.08 2.97.03.82.7 1.6 1.56 1.56s1.53-.69 1.56-1.56Zm23.89-2.05-.24-.44c-.1-.17-.23-.32-.36-.47l-.15-.19-.28-.21c-.16-.1-.33-.15-.51-.16a.7.7 0 0 0-.36 0c-.18 0-.35.06-.51.16l-.28.21-.21.28c-.1.16-.15.33-.16.51-.04.18-.03.36.02.55l.06.23.03.12c.04.16.12.31.18.46l.21.46c.09.17.22.31.38.42.14.13.31.22.5.27.2.06.39.07.59.03.2 0 .38-.07.55-.18l.3-.23c.18-.19.31-.4.38-.66l.05-.39c0-.27-.07-.52-.2-.75ZM29.16 68.08c1.66 0 1.66-2.58 0-2.58s-1.66 2.58 0 2.58"/></svg>