<?xml version="1.0" encoding="UTF-8"?><svg xmlns="http://www.w3.org/2000/svg" viewBox="0 0 180 180"><path d="M66.82 112.54c.25-3.71 0-7.51-.25-11.22-.25-3.54-.54-7.12-1.08-10.62-.48-3.13-1.52-6-3.1-8.74-1.36-2.36-2.99-4.62-4.03-7.15-1.01-2.47-1.19-5.06-.1-7.54 1.21-2.76 3.43-4.92 5.67-6.86 2.48-2.14 5.11-4.12 7.23-6.64 1.17-1.38 3.07-4.65 5.29-3.95 2.64.84 4.51 4 4.86 6.6.4 2.95-.96 6.13-3.34 7.91-1.43 1.07-1.23 3.07.48 3.71 3.17 1.17 5.87 3.62 7.61 6.49.86 1.41 3.33.51 2.76-1.16-1.54-4.45-4.89-7.62-9.29-9.24l.48 3.71c5.52-4.15 7.15-11.96 2.95-17.68-1.93-2.63-5.15-5.17-8.61-4.32-3.22.79-4.98 3.96-7.11 6.19-4.77 5.02-11.76 8.61-13.49 15.87-1.64 6.85 3.14 12.31 6.12 17.96 2 3.79 2.48 8.34 2.94 12.55.51 4.71.58 9.42.86 14.14.12 2.01 2.99 2.01 3.12 0Zm-5.56-69.91c.89-5.16-.59-10.16-2.38-14.97-1.31-3.5-3.27-7.01-3.82-10.74-.21-1.4-.16-3.1 1.02-4.09 1.4-1.18 3.52-1 5.07-.25 4.29 2.07 5.99 6.87 7.07 11.17 1.5 6.01 2.69 12.09 4.2 18.09.52 2.06 3.72 1.63 3.7-.5-.03-3.45 2.45-6.64 5.79-7.52 1.52-.4 3.38-.29 4.65.73 1.56 1.26 1.31 3.7 1.22 5.47h3.72c0-3.59 2.29-7.26 6.17-7.43 3.36-.15 6.04 2.93 4.85 6.22 1.19.33 2.37.65 3.56.98 1.35-4.42 2.68-8.85 4.04-13.27 1.12-3.65 2.4-7.5 4.88-10.49.98-1.18 2.47-2.53 4.11-2.52 1.73 0 1.95 2.17 2 3.5.14 3.55-1.33 6.98-2.61 10.22-1.51 3.82-3.05 7.83-2.56 12.01.12 1.01.78 1.89 1.89 1.89.96 0 1.98-.87 1.89-1.89-.36-4.2 1.33-8.05 2.83-11.87 1.56-3.96 2.86-8.04 2.06-12.33-.39-2.12-1.59-4.15-3.74-4.84-1.95-.63-4.11 0-5.79 1.07-3.72 2.36-5.88 6.79-7.36 10.78-2.03 5.47-3.51 11.18-5.19 16.76-.69 2.3 2.77 3.19 3.56.98 1.93-5.39-2.58-10.82-8.04-10.89-6.07-.08-10.23 5.39-10.25 11.12 0 2.4 3.6 2.38 3.72 0 .14-2.88-.01-6.04-2.3-8.11-2.04-1.85-4.96-2.32-7.61-1.85-5.25.94-9.29 6-9.24 11.27 1.23-.17 2.47-.33 3.7-.5-1.22-6.06-2.56-12.13-4.04-18.13-1.27-5.12-3.44-10.35-8.18-13.17-4.08-2.43-10.15-1.96-12.18 2.9-1.7 4.09.37 8.72 2.02 12.47 2.43 5.52 4.84 11.2 4.81 17.33 0 1.55 2.52 2 2.79.38Zm54.83 19.87c.88 8.91-.4 17.69-3.59 26.03-1.51 3.94-3.32 7.79-4.47 11.86-.57 2.03-.9 4.11-1.05 6.21-.15 2.05-.25 4.49.79 6.34.7 1.24 2.73 1.01 3.07-.4.49-2 .13-4.16.47-6.19s.87-3.88 1.45-5.76c1.28-4.11 2.92-8.08 4.37-12.13 3.04-8.54 3.86-17.47 1.87-26.34-.36-1.59-3.07-1.28-2.9.39Z"/><path d="M73.77 38.72c-.14.46-.19.96-.27 1.44-.17.93-.27 1.87-.37 2.82-.09.83-.16 1.67-.2 2.5-.03.56-.09 1.25.12 1.79.29.74 1.04 1.34 1.88 1.07s1.27-1.05 1.07-1.88c-.03-.11.02.55.03.18v-1.22c.02-.81.07-1.62.12-2.43s.11-1.62.15-2.44c.01-.3.03-.59.06-.89.01-.11.03-.22.04-.33-.04.56-.04.28-.01.13.16-.69-.21-1.5-.95-1.67s-1.45.22-1.67.95Zm10.22 23.12c1.75 1.32 4.16.68 5.52-.88 1.55-1.78 1.93-4.4 2.17-6.66.26-2.44.09-4.91-.1-7.35-.1-1.27-.21-2.55-.28-3.82-.08-1.36.05-2.68.09-4.04h-3.73c.52 4.98.61 9.91.54 14.91-.06 4.35 1.3 9.03 6.16 9.97 3.81.74 9.63-.74 10.76-5.01.41-1.54.38-3.26.46-4.84.09-1.68.14-3.37.19-5.06.11-3.68.29-7.39.18-11.07-.06-2.15-3.17-2.11-3.31 0-.38 5.6-.46 11.23-.83 16.84-.07 1.07.06 2.59-.48 3.54-.78 1.34-3.03 1.98-4.45 2.06-1.65.1-3.33-.26-4.21-1.77s-.83-3.41-.8-5.13c.07-4.82-.06-9.65-.47-14.45-.2-2.37-3.61-2.43-3.73 0-.09 1.92.17 3.92.32 5.84.15 1.94.35 3.88.4 5.83.05 1.91 0 3.85-.43 5.72-.23.99-1.02 3.89-2.64 3.1s-2.65 1.26-1.32 2.27Zm-1.9 4.93c3.76.68 7.49 1.47 11.2 2.37 1.78.44 3.56.9 5.33 1.39s3.85 1.47 5.7 1.38c1.36-.07 1.67-1.66.65-2.42-1.46-1.09-3.81-1.4-5.55-1.88q-2.655-.72-5.34-1.38c-3.71-.9-7.45-1.68-11.2-2.35-1.88-.34-2.68 2.54-.79 2.88Zm-19 34.98c-3.42.13-7.3.46-9.74 3.2-2.23 2.51-2.6 6.27-.21 8.8 2.11 2.24 5.51 2.68 8.42 2.8 4.09.17 8.18 0 12.25-.29 8.32-.6 16.61-1.77 24.96-1.91 4.16-.07 8.23.26 12.36.69 3.77.4 7.68.27 10.77-2.17 3.12-2.46 4.26-6.61 2.06-10.09-2.1-3.31-6.15-5.9-10.01-6.49-2.54-.39-3.66 3.16-1.08 3.93 2.7.81 5.49 2.01 7.25 4.34 1.45 1.93.79 3.98-1.1 5.32-2.58 1.82-6.11 1.27-9.04.95-3.33-.36-6.65-.55-10-.52-6.9.07-13.77.86-20.63 1.51-3.52.33-7.04.62-10.57.76-2.99.11-6.15.3-9.12-.12-1.91-.27-5.11-1.22-4.12-3.8 1.18-3.09 5.18-3.46 7.98-3.84 1.74-.24 1.32-3.12-.41-3.05Z"/><path d="M61.91 105.21c-.92.06-1.86.13-2.74.41s-1.73.78-2.24 1.55c-.46.7-.62 1.6-.43 2.41s.74 1.54 1.47 1.96c.42.24.88.37 1.34.51.9.26 1.82.52 2.75.49.1 0 .21-.01.28-.08.08-.07.09-.19.1-.29l.63-6.45c.02-.18.04-.37.15-.5s.36-.18.46-.04"/><path d="M61.91 103.71c-1.85.06-3.8.18-5.32 1.36s-2.38 3.39-1.7 5.3c.36 1.01.96 1.82 1.83 2.46.7.52 1.57.77 2.4 1.01.95.27 1.96.53 2.95.44.89-.08 1.74-.51 1.99-1.44.14-.53.12-1.12.17-1.67.1-.98.19-1.96.29-2.94l.15-1.51c.03-.24.05-.48.08-.72 0-.08.13-.44.02-.17q0 .18-.12.33c-.35.52-.81.72-1.39.58.61.22 1.35-.1 1.72-.59.42-.54.43-1.21.13-1.81-.38-.76-1.34-1.13-2.14-.91-.72.2-1.23.76-1.47 1.45-.15.44-.14.94-.18 1.4-.03.41-.07.81-.11 1.22-.08.79-.15 1.58-.23 2.37-.04.38-.07.76-.11 1.15l-.03.36c0 .07-.08.3 0 .13s0 .07-.02.13c0 .04-.01.08-.02.12-.03.13 0 .07.07-.18l.62-.62c.64-.12.79-.18.45-.17-.09 0-.19-.01-.28-.02l.19.03c-.09-.02-.18-.03-.28-.04-.32-.05-.64-.12-.96-.2-.12-.03-1.68-.52-1.69-.51.22.1.24.1.07.02-.06-.03-.11-.06-.16-.09s-.09-.06-.14-.09c-.15-.11-.12-.08.1.08-.06-.08-.17-.15-.24-.22-.05-.05-.1-.11-.15-.16.15.2.19.25.11.14-.07-.11-.14-.21-.2-.33-.03-.05-.05-.1-.07-.15-.06-.12-.03-.07.07.17.02-.03-.1-.32-.11-.37-.1-.44-.02.29-.01-.07v-.36c.02-.2.01-.16-.02.11.01-.08.03-.16.05-.23.02-.09.05-.28.11-.34-.1.23-.11.26-.02.09l.06-.1c.04-.07.08-.13.13-.2-.16.19-.18.22-.06.08.08-.08.16-.17.24-.25.06-.05.11-.1.17-.15l-.16.13c.04-.09.3-.21.38-.26.14-.09.44-.33.61-.33-.22.09-.24.1-.07.03.09-.03.17-.06.26-.09.13-.04.26-.08.4-.12.31-.08.63-.15.95-.2-.34.05.11-.01.15-.02l.56-.06c.78-.08 1.54-.63 1.5-1.5-.04-.79-.66-1.53-1.5-1.5Zm49.77-2.91a31.3 31.3 0 0 0-1.21 9.03c0 .27.03.58.26.72.13.08.29.08.45.08.89-.01 1.78-.07 2.66-.18 2.19-.26 4.6-.98 5.66-2.92.7-1.26.64-2.9-.13-4.12-.36-.56-.84-1.02-1.37-1.42-.91-.69-2.03-1.22-3.16-1.06"/><path d="M110.21 100.4c-.78 2.4-1.27 4.86-1.42 7.38-.08 1.3-.34 3.02.71 4 .63.58 1.44.61 2.25.58.67-.02 1.33-.07 1.99-.14 2.14-.24 4.24-.75 5.94-2.14 1.85-1.52 2.6-4.2 1.79-6.46-.52-1.44-1.52-2.49-2.74-3.37s-2.85-1.44-4.4-1.11c-.9.2-1.45 1.17-1.33 2.04s.89 1.62 1.83 1.61h.64c-.42 0 .01 0 .13.04.08.02.69.26.32.09.15.07.3.15.44.23.19.11.37.23.56.35.34.23-.14-.14.15.11.16.15.33.29.48.45.07.07.31.39.13.14.12.17.22.35.32.54-.19-.35.01.04.04.14.06.2.11.4.14.6-.06-.43-.02.03-.02.13 0 .11-.1.71 0 .29-.03.15-.06.3-.11.45-.03.1-.06.19-.1.29.08-.19.08-.2-.01-.01-.09.13-.17.27-.25.4-.08.11-.05.07.08-.1-.06.07-.12.14-.18.2-.11.11-.22.22-.34.32-.34.3.19-.09-.12.09-.14.08-.26.17-.4.25s-.28.15-.42.22c-.08.04-.17.08-.25.12.19-.08.22-.1.1-.05-.31.1-.62.22-.94.3s-.64.16-.97.22c-.16.03-.32.05-.48.08-.2.03-.18.03.05 0l-.28.03c-.44.05-.88.09-1.33.12l-.67.03c-.13 0-.25 0-.38.01.2.06.21.05.02-.02l.77.45c.17.19.25.41.25.65v-.79c0-.4 0-.81.03-1.21.03-.78.09-1.55.18-2.32.05-.4.08-.8.13-1.2.04-.31-.01.04.04-.3.03-.19.06-.37.09-.55.13-.8.3-1.59.49-2.38s-.25-1.7-1.07-1.88-1.62.25-1.88 1.07ZM73.66 41.43c-8.47.05-16.9-.46-25.37.12-2.16.15-4.41.25-6.44 1.07-2.39.97-3.94 2.94-4.35 5.49-.76 4.74.43 11.68 5.91 12.93 2.99.69 6.33.45 9.38.4 3.38-.06 6.79-.24 10.12-.87 1.12-.21 1.76-1.56 1.47-2.59-.33-1.21-1.46-1.64-2.59-1.47-5.07.73-10.14.75-15.25.85-1.85.04-3.65 0-4.31-2.03s-1.01-4.37-.61-6.48c.66-3.53 5.77-3.02 8.53-3.18 3.85-.22 7.7-.32 11.55-.51 3.99-.2 7.98-.46 11.97-.53 2.06-.04 2.07-3.21 0-3.2Zm32.95 1.33c3.82-.22 7.63-.47 11.45-.76l5.72-.44c1.67-.13 3.48-.45 5.15-.2 1.6.25 3.19 1.08 4.68 1.68l5.46 2.16c3.49 1.38 6.99 2.72 10.48 4.08-.16-1.26-.33-2.52-.49-3.78-3.47 1.75-6.95 3.48-10.41 5.24-1.69.86-3.37 1.75-5.05 2.64-1.72.9-3.1 1.62-5.07 1.67-7.79.18-15.55.17-23.33-.03-2.54-.06-2.55 4.02 0 3.95 4.05-.1 8.11-.18 12.16-.24 4.03-.05 8.06.32 12.09.21 1.97-.05 3.59-.75 5.33-1.6 1.78-.87 3.57-1.73 5.35-2.63 3.69-1.86 7.36-3.77 11.03-5.65 1.72-.88 1.04-3.19-.49-3.78-3.58-1.36-7.15-2.72-10.74-4.06-1.75-.65-3.51-1.31-5.26-1.96-1.68-.63-3.35-1.39-5.13-1.64-1.74-.25-3.5.01-5.24.17l-5.72.52c-3.99.36-7.97.76-11.95 1.19-2.03.22-2.12 3.37 0 3.25Z"/><path d="M52.36 43.35c-1.98 1.72-2.36 4.71-2.24 7.17.13 2.7.54 5.44 1.6 7.93.5-.88 1.01-1.75 1.51-2.63-.67 0-1.17.21-1.68.65-.56.49-.63 1.44-.27 2.06.41.7 1.17.89 1.92.78.21-.03.21-.03.02 0 1.44-.02 2.03-1.45 1.51-2.63-.81-1.85-1.03-4.04-1.21-6.04-.18-2.04.05-3.77 1.15-5.52.39-.61.19-1.47-.38-1.89-.61-.46-1.36-.38-1.93.11Zm4.62 84.1c9.48 3.68 14.06 1.82 20.8.82 6.74-.99 13.5-2.38 20.31-2.01 3.83.21 7.6.97 11.42 1.23s7.83-.02 11.18-1.75c-2.76 13.21-2.01 26.82-1.12 40.25.02.33.04.68-.16.95-.24.34-.72.43-1.16.49a240.3 240.3 0 0 1-48.47 2.16c-3.67-.21-7.39-.51-10.81-1.76 1.45-2.43 1.48-5.35 1.39-8.13-.31-10.3-2.08-22.02-3.39-32.25"/><path d="M56.58 128.89c3.67 1.54 7.51 2.53 11.51 2.48 3.16-.04 6.25-.72 9.36-1.19 4.83-.72 9.68-1.52 14.55-1.86 4.96-.35 9.72.32 14.63.9 5.07.6 10.41.65 15.1-1.67-1.03-.79-2.05-1.58-3.08-2.36-1.41 6.85-1.97 13.85-2.01 20.84-.02 3.45.08 6.9.25 10.35.08 1.77.18 3.53.3 5.29.11 1.61.47 3.38.3 4.98l.28-1.03c.37-.23.35-.28-.07-.15-.32.05-.65.09-.97.14-.63.09-1.26.18-1.89.26-1.3.17-2.59.32-3.89.46-2.44.26-4.88.49-7.32.68-4.97.38-9.96.63-14.95.72-4.99.1-9.99.04-14.98-.18-4.76-.21-9.59-.29-14.14-1.86.44 1.09.88 2.18 1.33 3.26 1.69-3.06 1.75-6.49 1.61-9.9-.15-3.5-.42-6.99-.77-10.47-.72-7.06-1.74-14.09-2.64-21.13-.15-1.13-.87-2.11-2.11-2.11-1.03 0-2.26.97-2.11 2.11.87 6.73 1.82 13.46 2.51 20.21.33 3.28.61 6.57.76 9.87.14 3.02.48 6.45-1.08 9.17-.76 1.32-.01 2.78 1.33 3.26 3.21 1.16 6.64 1.54 10.02 1.77 3.4.23 6.8.35 10.21.41 7.04.12 14.09-.05 21.1-.58 3.43-.26 6.85-.59 10.27-1 1.81-.22 3.61-.45 5.41-.69 1.48-.2 3.51-.15 4.82-.97 1.41-.88 1.43-2.4 1.35-3.88-.1-1.76-.19-3.53-.29-5.29-.2-3.45-.35-6.9-.4-10.35-.12-7.74.27-15.5 1.84-23.09.38-1.84-1.4-3.19-3.08-2.36-3.82 1.9-8.12 1.8-12.27 1.37-4.73-.5-9.36-1.25-14.13-1-4.88.26-9.69 1.18-14.5 1.96-3.08.5-6.15 1.23-9.26 1.53-4.17.4-8.16-.42-12.09-1.78-1.86-.64-2.51 2.16-.79 2.88Z"/><path d="M51.41 123.29c1.08 2.09 2.38 3.76 4.44 4.97 2.23 1.32 4.82 1.96 7.33 2.47 2.64.54 5.29.95 7.99.72s5.4-.82 7.99-1.71c2.12-.73 1.26-3.7-.92-3.33-2.28.39-4.53 1.03-6.84 1.25s-4.51-.04-6.76-.49c-2.09-.42-4.27-.86-6.22-1.75-1.68-.77-3.69-1.89-4.65-3.52-.9-1.52-3.17-.18-2.36 1.38Zm70.98-5.02c-.19 1.35-.61 2.41-1.35 3.54-.22.33-.24.37-.43.6-.22.26-.44.51-.68.74-.26.26-.54.51-.82.75-.1.09-.21.17-.31.26.22-.18-.25.18-.25.18-.61.43-1.26.8-1.93 1.13-.62.3-1.08.49-1.85.76-1.53.54-3.11.9-4.71 1.19-1.08.19-1.79 1.57-1.46 2.58.37 1.15 1.42 1.68 2.58 1.46 3.62-.68 7.11-1.84 9.98-4.22 2.52-2.09 4.25-5.25 4.24-8.56 0-.76-.58-1.42-1.33-1.5-.67-.08-1.57.33-1.68 1.1Zm16.74-73.84c-.79 2.28-.85 4.8-.16 7.12 2.84-.94 5.55-2.25 8.05-3.89-2.16-.52-4.32-1.05-6.48-1.57"/><path d="M137.84 43.68c-1.35 2.48-1.31 5.67-.57 8.34.25.89 1.26 1.52 2.17 1.23 3-.96 5.87-2.3 8.51-4 .63-.41.98-1.08.88-1.84s-.61-1.34-1.32-1.53c-2.14-.59-4.31-1.1-6.47-1.63-.97-.24-2.11.31-2.34 1.33s.29 2.1 1.33 2.34c2.16.52 4.32 1.06 6.5 1.51-.15-1.12-.29-2.25-.44-3.37-1.23.81-2.5 1.55-3.82 2.2-.32.16-.65.32-.98.47-.17.08-.35.16-.53.24-.04.02-.54.23-.32.14s-.28.11-.32.13l-.54.21c-.36.14-.72.27-1.09.4l2.17 1.23c-.08-.28-.16-.56-.23-.84-.06-.25-.19-.59-.16-.85-.03.37 0 0-.01-.11-.01-.14-.03-.29-.04-.43-.02-.29-.03-.58-.02-.87 0-.58.07-1.15.13-1.73-.03.3 0 0 .02-.13.02-.12.04-.24.07-.36q.06-.285.09-.57c.02-.12.03-.23.05-.35-.02.18-.02.17 0-.02.12-.74-.13-1.45-.86-1.76-.66-.28-1.51-.05-1.86.61Zm-10.91-2.75c-.87 2.49-1.37 5.02-1.46 7.66-.04 1.23.03 2.45.18 3.67.08.69.18 1.37.3 2.06.13.74.22 1.57.66 2.2 1.06 1.53 3.11.85 3.32-.9.08-.67-.19-1.38-.31-2.04-.1-.52-.19-1.05-.25-1.58-.13-1.13-.18-2.27-.18-3.41-.01-2.29.2-4.61.7-6.85.43-1.94-2.3-2.67-2.95-.81Z"/><path d="M106.1 50.16c3.4-.17 6.82-.18 10.23-.31s6.82-.34 10.23-.38c2.42-.03 2.36-3.93 0-3.72-3.4.3-6.82.45-10.23.66s-6.82.55-10.23.73c-1.94.1-1.95 3.13 0 3.03ZM54.21 52.6c3-.06 6-.16 8.99-.3 3.02-.15 6.1-.21 9.09-.61.84-.11 1.36-1.15 1.24-1.9-.12-.82-.83-1.54-1.7-1.5-2.93.12-5.87.53-8.8.73s-5.88.37-8.82.49c-1.98.08-2 3.13 0 3.09M36.89 71.77a47 47 0 0 0-4.47-1.51c-1.61-.45-3.23-.89-4.9-.99-.84-.05-1.55.68-1.66 1.46s.39 1.63 1.21 1.85c1.49.41 3.02.61 4.52.99s2.97.84 4.42 1.37c.81.29 1.84-.33 2.03-1.15.22-.95-.29-1.69-1.15-2.03Zm-.64 11.62c-1.67 0-3.33.07-5 .17-.81.05-1.63.11-2.44.18-.96.09-2.27.05-3.08.57-1.31.84-1.13 2.94.44 3.37.95.26 2.08-.12 3.04-.27l1.21-.18c.13-.02.12-.02-.02 0 .13-.02.25-.03.38-.05.19-.02.38-.05.56-.07 1.63-.19 3.27-.29 4.9-.35.88-.03 1.73-.75 1.69-1.69s-.74-1.69-1.69-1.69Zm-.23 12.76-2.83 1.81c-.46.3-.93.59-1.39.89l-.7.44c-.35.22-.63.48-.91.78-.48.51-.65 1.35-.25 1.97.37.58 1.14.99 1.84.75.38-.13.76-.26 1.1-.48l.64-.43c.47-.32.95-.63 1.42-.95.94-.62 1.87-1.24 2.81-1.85.74-.49 1.12-1.52.61-2.32-.48-.75-1.52-1.12-2.32-.61Zm4.91 17.16c2.37 0 2.38-3.69 0-3.69s-2.38 3.69 0 3.69m94.14-45.77c5.31.33 9.28 4.53 10.55 9.5.61 2.41.72 5.25-.22 7.6-.8 2-2.62 3.4-4.62 4.09-1.58.54-5.37 1.49-6.36-.49-.35-.69.11-1.15.77-1.4 1.23-.46 2.71.21 3.82.71 2.37 1.07 3.92 2.33 4.44 4.96.44 2.22.24 4.68-.24 6.88-1.19 5.5-4.4 9.9-8.75 13.37-1.75 1.39.51 4.21 2.37 3.07 5.62-3.46 9.48-9.8 10.6-16.25.58-3.36.7-7.09-.65-10.28-1.46-3.42-5.09-5.48-8.58-6.37-3.28-.83-7.61.51-7.97 4.4-.38 4.16 3.91 6.24 7.46 6.08 3.3-.15 6.66-1.35 9.05-3.67 2.6-2.53 3.46-6.19 3.29-9.71-.4-8.16-6.47-15.38-14.97-15.5-1.95-.03-1.92 2.9 0 3.02Z"/></svg>