<?xml version="1.0" encoding="UTF-8"?><svg xmlns="http://www.w3.org/2000/svg" viewBox="0 0 180 180"><path d="M89.14 55.92c-1.03.96-1.24 2.53-.57 3.76.73 1.34 2.11 1.97 3.47 2.51 3.13 1.23 6.46 1.89 9.82 2.06 3.28.16 6.53-.33 9.66-1.31 2.16-.67 6.71-3.13 4.9-6.04-1.07-1.72-3.78-.16-2.73 1.59 0-.58-.17-.69-.5-.34-.22.12-.44.24-.66.35-.31.14-.63.26-.96.37-.9.31-1.82.56-2.76.73-2.07.39-4.2.54-6.3.56s-4.07-.19-6.08-.61c-1.01-.21-2.01-.48-3-.8-.46-.15-.94-.29-1.39-.49-.38-.16-.57-.45-.79-.2 1.27-1.46-.7-3.47-2.13-2.13Z"/><path d="M87.89 57.73a14.6 14.6 0 0 0-.99 7.21c.27 2.33.96 3.8 3.18 4.74 4.27 1.81 9.05 2.35 13.65 2.07 2.4-.15 4.79-.47 7.17-.85 2.12-.34 4.81-.41 6.64-1.66 1.78-1.22 2.13-3.35 1.99-5.36-.09-1.17-.19-2.4-.49-3.54-.31-1.2-.95-2.12-1.64-3.13-1.16-1.69-3.79-.21-2.78 1.62.8 1.46 1.03 3.41 1.15 5.05.04.56.2 1.44-.11 1.96-.29.5-.91.57-1.42.68-3.59.75-7.31 1.3-10.98 1.48-3.41.17-6.86.05-10.15-.97-.64-.2-1.84-.42-2.34-.91-.44-.44-.41-1.5-.46-2.09-.14-1.86.05-3.68.52-5.49.51-1.95-2.22-2.58-2.94-.81"/><path d="M97.34 71.71c.17.75.33 1.5.49 2.26.15.74.3 1.57.73 2.2 1.01 1.48 2.86 1.52 4.47 1.57.74.03 1.52.09 2.24-.11 1-.27 1.79-1.07 2.01-2.09.06-.27.09-.55.11-.83.04-.41-.07.39 0-.07.06-.37.14-.73.25-1.08.09-.31.21-.61.31-.92.07-.18.07-.17-.01.02.04-.08.08-.17.12-.25.2-.45.32-.89.13-1.38-.33-.84-1.02-1.26-1.92-1.09-.99.19-1.45 1.34-1.78 2.18-.2.52-.36 1.06-.45 1.6-.04.21-.07.43-.09.64-.02.12-.03.23-.05.35.04-.24.04-.3.02-.16-.13.43.18-.2 0 .08.11-.17.3-.44.53-.43-.05.02-.11.03-.16.04-.13.03-.07.02.19-.02-.1-.02-.24.01-.34.01-.32 0-.63-.01-.95-.03s-.66-.03-.99-.05l-.46-.03c-.09 0-.26-.06-.33-.03.27.04.33.05.19.03-.05 0-.11-.02-.16-.03-.04 0-.28-.11-.31-.09.25.11.3.13.13.04l-.09-.06c.12-.02.49.56.24.18-.06-.12-.04-.07.06.14-.02-.06-.04-.11-.05-.17l-.15-.5c-.09-.29-.2-.58-.31-.87l-.66-1.89c-.26-.76-1.07-1.34-1.89-1.07-.83.27-1.26 1.05-1.07 1.89Zm-3.7-12.69c.42-4.16-2.98-7.32-5.6-10.09-2.9-3.05-5.68-6.03-7-10.11-.63-1.95-1.01-3.98-1.45-5.98-.45-2.03-.63-4.07-.19-6.13.4-1.89 1.53-2.93 3.33-3.54 2.01-.68 4.15-1.07 6.24-1.4 4.5-.71 9.08-.87 13.63-.88 4.64-.01 9.28.03 13.83 1.04 2.16.48 4.29 1.12 6.37 1.87.77.28 1.73.57 2.27 1.24s.55 1.59.56 2.36c.08 3.98-.55 8.01-1.93 11.75-.71 1.93-1.64 3.85-2.88 5.49-1.09 1.44-2.41 2.7-3.66 4-2.62 2.71-5.1 5.71-5.71 9.55-.17 1.09.28 2.2 1.43 2.52.98.27 2.34-.33 2.52-1.43.57-3.52 2.98-5.99 5.34-8.48 1.27-1.33 2.51-2.69 3.6-4.18 1.24-1.71 2.13-3.67 2.93-5.62 1.73-4.16 2.53-8.72 2.54-13.22 0-2.16-.43-4.43-2.07-5.97-1.63-1.53-4.12-2.22-6.22-2.81-4.84-1.37-9.86-1.81-14.88-1.87-5.05-.06-10.11.02-15.13.61-2.43.28-4.84.66-7.23 1.21-2.06.47-4.16 1.06-5.84 2.4-3.61 2.88-3.3 8.45-2.48 12.51.5 2.48.99 4.98 1.93 7.35.97 2.45 2.34 4.6 4.04 6.61 1.67 1.96 3.58 3.7 5.37 5.55 1.65 1.71 3.49 3.54 3.87 6 .23 1.51 2.34.96 2.47-.33Z"/><path d="M82.79 28.45c6.23 2.71 12.63 4.23 19.45 4.23 3.3 0 6.73-.23 9.96-.95 1.59-.35 3.1-.92 4.63-1.46 1.6-.56 3.43-.92 4.9-1.79 1.34-.8.41-2.67-1.02-2.41-1.58.29-3.07 1.04-4.66 1.36-1.43.29-2.9.43-4.35.62-3.16.41-6.26.79-9.46.81-6.19.02-12.58-.79-18.51-2.62-1.29-.4-2.22 1.67-.94 2.23Z"/><path d="M88.42 28.09c8.91-2.1 18.23-2.44 27.26-.99.33.05.76.24.69.57-7.94 1.04-16.05 1.98-23.92.49"/><path d="M88.79 29.43c4.43-.78 8.95-1.33 13.45-1.47a69.6 69.6 0 0 1 9.92.4c.55.06 1.1.13 1.65.2.31.04.62.09.94.14.69.21.67.02-.06-.58.56-.74 1.12-1.47 1.68-2.21-7.82 1.02-15.6 1.84-23.42.43-2.34-.42-3.35 3.14-.99 3.59 8.05 1.51 16.37.52 24.41-.54 1.23-.16 1.85-.98 1.68-2.21-.33-2.35-4.42-2.16-6.12-2.34-2.67-.27-5.35-.39-8.03-.35-5.38.07-10.68.74-15.85 2.24-1.75.51-1 2.99.74 2.68Zm-38.83 29.6c-3.05.45-4.42 3.82-4.24 6.56.1 1.49.37 3.19 1.23 4.44.84 1.22 2.12 1.96 3.51 2.4 2.88.91 6.14 1.08 9.13.69s5.54-1.75 6.13-4.87c.34-1.8.65-3.7.21-5.52-.38-1.56-1.46-3.13-3.14-3.32l.74.2c-.57-.33-1.06-.66-1.73-.76-.92-.14-1.81.28-1.95 1.3-.13.94.59 1.74 1.53 1.77.3 0 .55.14.84.24l-.64-.37.17.14-.38-.65c.19.56.56.96.8 1.48.2.43.27.87.27 1.36 0 1.15-.17 2.65-.67 3.68-.18.38-.38.48-.78.7-.28.15-.79.32-1.28.42s-.89.15-1.54.19c-.76.05-1.53.06-2.29.06-1.3-.01-2.61-.11-3.88-.41-.86-.21-1.68-.44-2.04-1.29-.78-1.87-.83-4.6 1.2-5.58.69-.33.93-1.29.64-1.95-.34-.77-1.05-1.02-1.84-.9Z"/><path d="M64.9 62.45c1.91.61 3.82.52 5.81.53 1.99.02 3.98.03 5.97.05 3.97.03 7.97.16 11.94-.06 2.09-.12 2.09-3.13 0-3.25-3.97-.22-7.97-.09-11.94-.06l-5.97.05c-2 .02-3.91-.08-5.81.53-1.08.35-1.08 1.85 0 2.2Zm0 5.3c1.91.61 3.82.52 5.81.53l5.97.05c3.97.03 7.97.16 11.94-.06 2.09-.12 2.09-3.13 0-3.25-3.97-.22-7.97-.09-11.94-.06l-5.97.05c-2 .02-3.91-.08-5.81.53-1.08.35-1.08 1.85 0 2.2Zm13.33 43.36c-2.94-2.58-1.17-7.57 1.08-9.97 2.53-2.7 6.2-4.3 7.17-8.19l-2.62 1.07c1.87.81 3.09 2.26 3.49 4.26.22 1.09 1.69 1.65 2.6 1.06 1.74-1.13 2.12-2.86 2.45-4.78.31-1.76 1.05-3.28 2.6-4.28 1.49-.96 3.22-1.5 4.49-2.81.7-.72 1.12-1.57 1.46-2.5.26-.74.35-1.49.98-2l-3.01-.79c.56 2.38 2.42 4.13 4.53 5.23 2.18 1.13 4.83 1.62 6.57 3.47 1.78 1.89 1.77 4.08 1.94 6.5.19 2.64 1.97 5.06 4.85 4.52.92-.17 1.24-1.18 1.12-1.98-.32-2.12.66-4.31 2.37-5.59l-2.12-.27c2.25 2.77 4.87 5.98 5.65 9.55.77 3.51-1.67 6.39-4.59 7.96-3.38 1.82-7.44 2.47-11.22 2.79-4.13.34-8.31.2-12.43-.22-4.64-.47-9.21-1.34-13.78-2.22-2.28-.44-3.27 3.04-.97 3.51 9.19 1.87 18.73 3.43 28.11 2.34 4.31-.5 9.04-1.29 12.81-3.56 3.41-2.06 6.09-5.7 5.81-9.84-.32-4.77-3.74-9.41-6.92-12.78-.68-.72-1.78-.61-2.47 0-2.45 2.14-3.73 5.54-3.4 8.77l1.18-1.55c-.84.13-.73-2.19-.71-2.54.04-1.13.12-2.17-.11-3.29-.41-1.99-1.52-3.87-3.04-5.21-1.69-1.49-3.76-2.18-5.79-3.04-1.64-.69-3.46-1.63-3.91-3.49-.35-1.41-2.02-1.62-3.01-.79-.74.62-1.16 1.44-1.49 2.34-.24.66-.36 1.45-.8 2.01-.98 1.25-2.91 1.71-4.19 2.58a9.3 9.3 0 0 0-3.51 4.53c-.28.78-.39 1.58-.52 2.4-.1.6-.12 1.63-.69 2 .87.35 1.73.7 2.6 1.06-.55-2.8-2.48-5.26-5.09-6.41-1.02-.45-2.31-.15-2.62 1.07-.49 1.91-2.16 3.12-3.64 4.29-1.85 1.46-3.54 3.03-4.66 5.14-2.05 3.85-2.42 9.36 1.72 11.98 1.38.87 3.03-1.19 1.77-2.29Z"/><path d="M89.83 113.79c-.54-1.57-1.05-3.41-.15-4.81 1.03-1.61 3.47-1.85 4.52-3.45.48-.73.59-1.63.86-2.45s.85-1.67 1.71-1.8c-.13 1.36-.16 2.96.91 3.8.88.69 2.23.54 3.11-.15s1.36-1.78 1.58-2.88c.3-1.54.15-3.16-.43-4.62.85.07 1.62.56 2.26 1.13 2.16 1.92 3.29 4.93 2.92 7.8-.11.89-.36 1.77-.26 2.66s.67 1.81 1.56 1.94c1.2.18 2.06-1.09 2.6-2.18.59 1.85 1.05 4.19-.43 5.45-.63.54-1.48.72-2.3.86-5.74.97-11.71.55-17.26-1.2"/><path d="M91.25 113.39c-.33-1.06-.95-2.62-.25-3.64.53-.77 1.67-1.11 2.44-1.57 1.02-.6 1.89-1.36 2.39-2.45.33-.73.46-2.71 1.35-2.91l-2.04-1.55c-.16 1.57-.11 3.28.98 4.54 1.2 1.39 3.16 1.63 4.78.85 3.42-1.64 3.66-6.55 2.5-9.65l-1.89 1.89c1.68.24 2.92 1.97 3.54 3.45.83 1.96.4 3.69.21 5.7-.18 1.94.8 4.15 2.93 4.44 1.99.28 3.37-1.34 4.09-2.99l-2.71-.35c.29.92.8 3.05-.09 3.8-.59.49-1.72.52-2.44.61-1.03.14-2.07.21-3.11.28-1.08.08-2.08.23-3.17.11-1.03-.11-2.07-.23-3.1-.39-2.09-.32-4.15-.83-6.17-1.46-2.22-.7-3.18 2.8-.96 3.48 2.56.79 5.18 1.27 7.85 1.48 1.32.11 2.64-.06 3.96.03s2.62.07 3.96-.09c2.19-.26 4.85-.44 6.16-2.5 1.26-1.98.57-4.12-.04-6.16-.37-1.21-2.05-1.47-2.71-.35-.16.27-.85 1.41-1.05 1.37-.4-.09-.24-1.29-.22-1.52.18-1.72.38-3.22-.02-4.95-.67-2.88-2.91-6.52-6.1-6.98-1.03-.15-2.35.66-1.89 1.89.6 1.63 1 4.28-.39 5.66-.4.39-1.15.67-1.53.13-.4-.59-.2-1.69-.15-2.34.08-1.07-1.09-1.8-2.04-1.55-1.73.45-2.54 1.95-2.97 3.56-.18.66-.29 1.27-.8 1.75-.46.44-1.12.7-1.67 1-1.31.72-2.51 1.62-2.99 3.11-.54 1.67-.07 3.44.5 5.03.63 1.77 3.42 1.05 2.85-.79Z"/><path d="M74.27 103.63c-5.28.06-7.03 5.85-6.55 10.21.49 4.46 1.85 8.73 4.05 12.65 2.09 3.71 4.85 7.08 7.84 10.09.79.8 1.63 1.56 2.43 2.35.39.39.8.76 1.18 1.17l.39.39s-.07-.48 0-.1c.23 1.38-.51 2.91.21 4.24.97 1.79 3.24 2.79 5.11 3.27 2.66.68 5.32 1.22 8.05 1.58s5.37.56 8.05.41c2.41-.13 4.8-.57 7.2-.82 2.04-.21 4.28-.74 5.29-2.74.83-1.64.32-3.62.22-5.36-.08-1.49.99-2.6 2.3-3.66 1.67-1.35 3.08-2.6 4.32-4.37 3.36-4.81 5.91-9.93 6.7-15.79.4-2.92.39-5.83.33-8.78-.03-1.31-.02-2.67-.83-3.78s-2.12-1.59-3.47-1.28c-2.24.52-1.29 4.03.95 3.45-.49.13-.22-.54-.33.12-.03.18.02.42.02.6.01.53 0 1.06 0 1.58-.02 1.16-.06 2.31-.13 3.47-.14 2.28-.36 4.54-.9 6.77-1.02 4.2-3.21 7.93-5.66 11.44-1.97 2.81-5.43 4.19-6.84 7.43-.64 1.48-.51 2.92-.42 4.49.03.48.15 1.4 0 1.73-.11.23.16-.09-.08.05-.32.18-.67.26-1.03.32-4.05.66-8.28 1.02-12.37.74-2.35-.16-4.66-.54-6.98-.94-1.86-.32-4.15-.38-5.72-1.53-.07-.05-.21-.19-.3-.23-.82-.39.37.29.08.62.07-.08 0-.57 0-.71.02-.63.08-1.26.11-1.89.06-1.84-.98-2.96-2.23-4.21-2.57-2.57-5.11-5.33-7.27-8.25-2.39-3.24-4.25-6.77-5.37-10.65-.95-3.29-2.54-9.82 2.07-11.14 1.6-.46 1.31-2.95-.4-2.93Z"/><path d="M131.88 107.59c2.29-1.06 5.24-.47 7.11 1.16 2.44 2.12 2.35 5.67 1.79 8.58-.64 3.34-1.86 6.38-4.82 8.29-3.25 2.11-6.94 2.36-10.69 2.73-2.42.24-2.53 3.84 0 3.86 7.11.05 15.07-2.53 18.02-9.56 2.4-5.72 3.02-14.69-3.53-17.92-3-1.48-6.53-1.54-9.41.26-1.66 1.04-.22 3.39 1.51 2.59Z"/><path d="M132.06 113.23c.46-.22 1.1-.38 1.55-.29.37.07.5.36.59.72.17.67 0 1.44-.07 2.12-.04.32-.07.64-.11.96-.04.35-.07.66-.1.86-.22 1.3-.64 1.84-1.79 2.47-.62.34-1.06.52-1.75.67l-.57.12c.24-.04-.31.03-.3.03-.67.07-1.25.17-1.73.69-.74.81-.57 1.98.33 2.58 1.03.68 2.47.09 3.51-.34.79-.32 1.77-.72 2.58-1.25.86-.57 1.67-1.28 2.14-2.22s.6-1.93.69-2.96c.16-1.87.57-4.08-.61-5.72-.64-.89-1.59-1.46-2.71-1.48-1.03-.02-1.98.49-2.82 1.04-1.25.82-.17 2.61 1.16 1.98ZM52.27 59.99c1.75.19 3.52.25 5.28.17.32-.01.68-.05.9-.28.2-.21.24-.52.27-.8 1.5-14.91 1.06-29.95.25-44.91-.05-.97-.12-1.99-.63-2.82-1.36-2.19-5.02-1.52-6.48.6-1.47 2.11-1.39 4.89-1.26 7.46.7 13.38 1.39 26.76 2.09 40.14"/><path d="M51.89 61.37c1.91.32 3.88.54 5.82.38 2.06-.17 2.51-1.61 2.7-3.41.43-4.09.66-8.21.8-12.32.29-8.4.11-16.8-.25-25.19-.09-2.06-.19-4.11-.3-6.17-.09-1.7-.19-3.52-1.39-4.85-1.93-2.14-5.34-1.86-7.5-.26-2.86 2.12-3.14 5.97-3.01 9.25.16 4.09.4 8.17.6 12.26.47 9.5.99 19 1.49 28.49.12 2.34 3.78 2.36 3.66 0-.38-7.27-.75-14.54-1.13-21.8-.19-3.63-.38-7.27-.58-10.9-.18-3.35-.57-6.76-.47-10.11.06-2.11.75-5.01 3.39-4.99 1.23 0 1.46.91 1.56 2.01.16 1.78.2 3.57.28 5.35.35 7.24.57 14.49.49 21.74-.04 3.95-.18 7.9-.43 11.84-.06.99-.13 1.97-.21 2.95s-.32 2.01-.25 2.95l-.04.49c.63-.48.62-.64-.03-.5-.39-.12-1.02.02-1.44.03-1.12.01-2.24 0-3.35-.05-1.58-.06-1.99 2.54-.38 2.81Zm.9 10.87c-.59 14.68-.41 29.38-.22 44.06.08 6.69.17 13.39.25 20.08 0 .41.02.84.25 1.18.32.47.95.6 1.52.69 1.02.16 2.16.29 3-.32 1.29-.94.49-2.87.72-4.45.72-5.11.23-3.43 0-8.96-.84-20.66.13-40.49.22-53.09-1.09 0-2.19-.02-3.28-.03"/><path d="M51.22 72.24c-.74 10.61-.69 21.3-.6 31.93.09 10.57.21 21.15.39 31.72.02 1.17.11 2.34 1.01 3.19.79.75 1.92.91 2.95 1.03 2.19.26 4.5-.5 5.04-2.87.21-.9.08-1.8.05-2.71-.03-1.02.18-2.03.29-3.05.12-1.08.12-2.1.01-3.18-.47-4.51-.49-9.07-.57-13.6-.09-5.02-.09-10.04-.05-15.07.09-9.4.44-18.8.51-28.2 0-.95-.8-1.73-1.74-1.74-1.09 0-2.19-.08-3.28-.1-2.33-.03-2.34 3.62 0 3.62 1.09 0 2.19-.05 3.28-.04l-1.74-1.74c-.13 16.88-.9 33.73-.35 50.61.06 1.95.12 3.9.31 5.84.09.91.17 1.79.11 2.71-.12 1.63-.42 3.18-.33 4.83.04.89.2 1.16-.76 1.15-.35 0-.9-.01-1.21-.17-.48-.24.1.09.08-.02-.08-.34-.01-.86-.02-1.22-.12-9.83-.26-19.67-.36-29.5-.1-11.14 0-22.28.11-33.42.02-2.04-3-2-3.14 0Z"/><path d="M60.31 130.11c4.85.43 9.69.28 14.52-.31.95-.12 1.78-.74 1.78-1.78 0-.88-.82-1.89-1.78-1.78-4.81.57-9.68.78-14.52.77-.84 0-1.55.71-1.55 1.55 0 .9.71 1.47 1.55 1.55"/><path d="M50.96 130.15c-5.67 7.91-9.33 16.79-13.12 25.69-.45 1.06-.21 2.62 1.17 2.89 6.93 1.33 14 1.26 21.03 1.3 7.13.03 14.26.07 21.38.1 14.26.07 28.51.11 42.77.17 7.9.03 15.95.49 23.81-.41 1.21-.14 2.49-1.22 1.98-2.6-3.52-9.72-7.48-19.45-12.24-28.64-1.15-2.22-4.51-.26-3.36 1.96 4.59 8.89 8.25 18.36 11.64 27.77l1.98-2.6c-6.9.78-13.9.43-20.83.36l-21.38-.21c-14.17-.14-28.34-.27-42.52-.39-7.92-.07-15.84-.03-23.74-.65l1.89 2.49c2.95-9 7.72-17.36 12.02-25.75.86-1.68-1.42-2.96-2.5-1.46Z"/><path d="M39.22 157.4c1.05 4.13 1.77 8.35 2.16 12.6l52.48-.93c7.56-.13 15.12-.27 22.67-.03 10.25.33 20.54 1.35 30.74.25.17-3.28.73-5.03.95-10.88-7.73 1.61-15.96 2.71-23.85 2.79-18.09.19-36.17.37-54.26.56-9.78.1-19.64.2-29.26-1.6"/><path d="M37.67 157.83c.84 4.04 1.44 8.05 1.75 12.17.08 1.06.83 1.96 1.96 1.96 13.99 0 27.99-.41 41.98-.66 13.68-.25 27.32-.55 40.98.11 7.64.37 15.3.74 22.92-.03 1.18-.12 2.02-.87 2.09-2.09.21-3.64.79-7.22.91-10.88.04-1.4-1.34-2.24-2.59-1.97-6.58 1.42-13.32 2.3-20.04 2.59-6.97.31-13.97.2-20.94.27-14.12.14-28.25.41-42.37.4-7.66 0-15.35-.23-22.9-1.64-1.15-.22-2.34.32-2.67 1.52-.29 1.05.36 2.46 1.52 2.67 13.9 2.51 28.23 1.62 42.28 1.47 14.4-.15 28.82-.1 43.21-.47 7.75-.2 15.4-1.37 23-2.87-.86-.66-1.73-1.32-2.59-1.97-.18 3.64-.8 7.24-1 10.88l2.09-2.09c-6.81.73-13.65.58-20.48.26-6.87-.32-13.73-.61-20.61-.6-13.77.04-27.54.42-41.31.66-7.83.14-15.66.23-23.49.51l1.96 1.96c-.5-4.38-1.34-8.79-2.58-13.03-.59-2-3.52-1.16-3.1.86Zm20.75-10.28c1.41 0 1.41-2.19 0-2.19s-1.41 2.19 0 2.19m4.66-4.11c1.57 0 1.57-2.44 0-2.44s-1.57 2.44 0 2.44m2.02 6.31.64-.64c.13-.12.23-.27.28-.44.09-.16.12-.34.12-.52 0-.19-.03-.36-.12-.52-.05-.17-.15-.31-.28-.44l-.28-.21c-.21-.12-.44-.18-.69-.19l-.36.05c-.23.06-.43.18-.6.35l-.64.64c-.13.12-.23.27-.28.44-.09.16-.12.34-.12.52 0 .19.03.36.12.52.05.17.15.31.28.44l.28.21c.21.12.44.18.69.19l.36-.05c.23-.06.43-.18.6-.35m4.98-4.34c1.93 0 1.93-3 0-3s-1.93 3 0 3m60.83-94.68c5.43.04 10.38 3.92 12.53 8.78 2.07 4.68 1.57 11.52-3.16 14.44-2.05 1.26-4.75 1.79-7.03.86-.25-.1-.49-.31-.75-.38-.51-.15-.14.01-.09-.1.19-.47.56-.85.92-1.19 1.02-.99 2.35-1.63 3.69-2.08s2.82-.88 4.24-.93c1.75-.07 3.06.76 4.36 1.86 2.26 1.93 4.57 4.26 5.29 7.24.85 3.49-.59 7.37-2.35 10.36-1.7 2.88-3.93 4.64-6.87 6.14-1.77.9-.5 3.47 1.3 3.08 3.67-.79 6.63-3.99 8.51-7.07 2.17-3.55 3.67-7.96 3.1-12.15s-3.29-7.33-6.3-10c-1.54-1.36-3.18-2.75-5.27-3.12s-4.29.04-6.32.59c-3.41.91-8.37 3.28-8.5 7.41-.14 4.28 5.98 5.35 9.17 4.94 8.42-1.09 12.37-9.78 10.94-17.48-1.5-8.09-9.2-14.39-17.41-14.07-1.85.07-1.87 2.88 0 2.89Zm-89.79-1.65c-.84-.68-1.59-1.46-2.25-2.31l.27.35q-.285-.375-.54-.75c-.08-.12-.17-.24-.26-.35-.27-.36-.36-.45-.71-.72-.06-.04-.12-.09-.18-.13l-.4-.17-.44-.06c-.37 0-.72.13-1.01.36-.54.42-.75 1.09-.6 1.75.08.34.21.65.4.95s.42.56.64.82c.27.33.56.64.86.94.69.69 1.46 1.31 2.26 1.87.31.22.89.28 1.25.16s.62-.29.84-.58.36-.63.35-.98c-.02-.4-.15-.88-.47-1.14ZM34.43 60.9c-.91-.22-1.81-.45-2.72-.67l-1.31-.32c-.66-.16-1.42-.43-2.08-.19-.53.19-.95.54-1.11 1.11-.15.53 0 1.16.41 1.54.56.52 1.2.6 1.91.71l1.34.22 2.78.45c.4.07.77.07 1.14-.15.31-.18.6-.53.68-.88.17-.76-.23-1.62-1.03-1.82Zm-2.72 13.04c-.79-.05-1.6-.07-2.39-.03-.5.02-.99.1-1.48.18-.41.07-.8.21-1.19.35-.71.26-1.18.87-1.07 1.65.04.31.17.64.41.86.27.25.67.49 1.06.44.67-.08 1.33-.15 2-.24l-.43.06c.46-.06.93-.13 1.39-.19l-.42.06c.71-.09 1.41-.13 2.13-.11.79.02 1.54-.71 1.51-1.51-.04-.86-.66-1.46-1.51-1.51Zm.93 15.03-1.45.68-.71.33c-.12.06-.24.11-.36.17-.22.12-.41.3-.61.46l-.24.31c-.11.18-.17.37-.18.58-.04.33 0 .7.18.99.37.58 1.06.9 1.75.71.63-.17 1.19-.51 1.76-.82.47-.25.93-.5 1.4-.75.33-.18.61-.56.7-.92s.06-.85-.15-1.18-.52-.61-.92-.7l-.41-.05c-.28 0-.53.07-.77.21Zm7.17 14.34-1.08.37c-.26.07-.48.2-.67.39l-.24.31c-.14.24-.21.49-.21.76 0 .21.04.4.13.58.06.19.17.35.31.49.14.15.3.25.49.31.18.09.38.14.58.13.27 0 .53-.07.76-.21l1.03-.48c.17-.09.31-.22.41-.37.13-.14.22-.31.26-.49l.05-.39c0-.2-.03-.39-.13-.56a.7.7 0 0 0-.19-.32c-.1-.16-.24-.28-.41-.37l-.35-.15c-.26-.07-.52-.07-.77 0Zm5.89 12.36c1.84 0 1.84-2.86 0-2.86s-1.84 2.86 0 2.86"/></svg>