<?xml version="1.0" encoding="UTF-8"?><svg xmlns="http://www.w3.org/2000/svg" viewBox="0 0 180 180"><path d="M45.27 31.72C32.55 37.92 22 48.17 13.05 58.97 8.7 64.22 6.3 71 9.94 77.3c1.72 2.97 4.57 4.45 7.92 4.55 1.25.04 2.98-.25 3.94.71.91.9 1.55 2.06 2.45 2.98.95.97 2.21 1.69 3.61 1.7 1.58.02 2.9-.74 4.26-1.42 1.44-.72 2.48-.27 3.69.7 1.35 1.09 2.38 2.48 3.79 3.52 2.85 2.1 5.76 1.67 8.87.45 1.2-.47 2.58-1.14 3.91-.93 1.4.22 2.5 1.41 3.69 2.08 1.55.87 3.03 1.02 4.76.64.86-.19 1.61-.48 2.51-.38.98.11 1.94.49 2.85.85 3.62 1.44 7.14 2.68 11.01 3.27 2.68.41 6.42.78 8.09-1.96.96-1.57.56-3.26-.13-4.85-.74-1.7-1.65-3.33-2.63-4.9-2.13-3.41-4.62-6.56-6.81-9.92s-4.2-7.27-6.12-10.99c-1.93-3.73-4.26-7.11-6.89-10.38-2.33-2.89-4.83-5.82-6.15-9.35l-.59 2.23c2-2.24 1.76-5.07.7-7.69-.95-2.36-2.26-4.8-4.67-5.94-2.13-1.01-4 2.14-1.86 3.18 1.37.66 2.38 2.13 2.83 3.56.22.69.29 1.56.22 2.21-.03.26-.15.67-.25.98-.02.07-.13.36-.03.14-.02.06-.38.53-.19.32-.52.58-.88 1.46-.59 2.23 2.33 6.2 7.27 10.64 10.81 16.1 3.82 5.89 6.71 12.31 10.8 18.03 1.91 2.68 3.92 5.3 5.65 8.11.82 1.33 1.79 2.8 2.27 4.29.28.88-.5.82-1.3.87-1.53.08-3.13-.29-4.62-.59-1.74-.35-3.48-.8-5.18-1.32-3.37-1.04-6.24-2.36-9.85-1.82-1.52.23-2.53-.04-3.85-.8-1.23-.7-2.47-1.46-3.89-1.68-3.05-.49-5.32 1.49-8.18 1.96s-4.57-3.06-6.48-4.6c-1.28-1.03-2.77-1.78-4.45-1.79-1.53 0-2.89.7-4.24 1.34-1 .47-1.7.73-2.47-.16-.75-.87-1.21-1.97-2.01-2.79-1.03-1.06-2.36-1.67-3.83-1.81-.77-.07-1.55-.02-2.33-.05-.69-.03-1.11-.21-1.71-.52-2.17-1.09-4.46-2.63-5.16-5.08-.8-2.8.96-5.7 2.63-7.82 2.26-2.87 4.77-5.54 7.2-8.26s5.06-5.54 7.74-8.16c5.29-5.16 10.86-10.01 17.3-13.69 1.92-1.1.23-3.89-1.72-2.94Z"/><path d="M52.93 42.13c-4.39 4.2-9.24 7.96-13.87 11.9-2.38 2.02-4.78 4.04-6.99 6.25-2.47 2.46-5.13 4.88-7.17 7.72-.7.98-1.22 1.99-1.67 3.1s-.45 2.18-.72 3.28c-.49 2-2.06 3.86-4.23 3.88-2 .02-1.95 2.92 0 3.08 2.12.17 4.17-.39 5.68-1.93 1.42-1.45 2.08-3.47 2.89-5.29.86-1.93 1.54-3.83 2.67-5.62 1.04-1.64 2.19-3.23 3.58-4.6 4.64-4.56 9.72-8.69 14.63-12.95 2.49-2.16 4.96-4.38 7.23-6.78 1.27-1.34-.69-3.32-2.03-2.03ZM15.26 72.97c.18.19.35.39.53.59s.35.4.51.61l-.21-.27q.435.57.72 1.23l-.14-.34c.08.2.15.37.26.55.18.29.5.57.84.64.31.07.61.05.91-.07.27-.11.53-.31.67-.57.18-.33.24-.71.14-1.08s-.3-.73-.52-1.05-.46-.63-.72-.92-.54-.52-.85-.74-.66-.36-1.01-.5l-.31-.04c-.16 0-.31.03-.45.1-.22.09-.44.25-.55.47-.24.46-.19 1.02.18 1.4Z"/><path d="M37.07 70.21c.32.01.62-.05.89-.2.29-.09.53-.25.74-.48.23-.21.38-.46.48-.74.14-.28.21-.57.2-.89l-.08-.61c-.11-.39-.31-.73-.59-1.02l-.47-.36c-.36-.21-.75-.31-1.17-.32-.32-.01-.62.05-.89.2-.29.09-.53.25-.74.48-.23.21-.38.46-.48.74-.14.28-.21.57-.2.89l.08.61c.11.39.31.73.59 1.02l.47.36c.36.21.75.31 1.17.32m8.37-5.9c2.09 0 2.09-3.25 0-3.25s-2.09 3.25 0 3.25m6.86-5.77c2.26 0 2.27-3.52 0-3.52s-2.27 3.52 0 3.52m2.92 6.05s-.04-.01-.06-.02l1.63 1.25s-.42-.55-.44-.57c-.25-.27-.55-.46-.9-.58-.33-.17-.69-.25-1.07-.24l-.74.1a2.75 2.75 0 0 0-1.4.91c-.19.23-.39.47-.55.73l-.26.62-.09.69.09.69c.08.34.24.64.47.89.12.2.27.35.47.47.16.16.35.27.58.34q.3.18.66.18c.35.08.69.06 1.04-.05.12-.04.23-.07.36-.09l-.73.1s.08 0 .12-.01c.38.01.74-.07 1.07-.24.34-.11.64-.3.9-.58l.43-.56c.25-.43.38-.9.38-1.4 0-.03-.09-.71-.1-.75l-.28 2.1s.02-.03.03-.05c.24-.42.36-.87.37-1.35.01-.37-.06-.71-.23-1.03a2 2 0 0 0-.55-.86c-.33-.33-.73-.56-1.18-.69Zm-5.93 11.14c1.95 0 1.95-3.03 0-3.03s-1.95 3.03 0 3.03m10.94.31c-.02-.08-.05-.16-.07-.24l.05.39v-.02a1.47 1.47 0 0 0-.73-1.27 1.466 1.466 0 0 0-2.01.53 1.466 1.466 0 0 0 .55 2.02l-.29-.23c-.08-.09-.15-.19-.23-.29l.15.2c.09.16.21.3.36.39.14.12.3.21.48.25l.37.05c.19 0 .37-.03.54-.12.12-.03.22-.09.31-.18q.225-.15.36-.39l.14-.34q.105-.375 0-.75Zm5.25-.06c1.75 0 1.75-2.72 0-2.72s-1.75 2.72 0 2.72m-33.42 4.53c.43.2.85.39 1.26.64q.27.165.54.36c.02.02.3.21.17.12s.13.11.16.13c.09.08.19.17.27.27.02.02.24.28.15.17s.12.18.14.2l.24.36c.28.42.55.83.82 1.26s.52.85.75 1.3c.11.21.21.43.31.64.2.42-.1-.25.05.1.05.13.11.26.16.39.43 1.02 1.05 2.07 2.21 2.35.61.15 1.35-.09 1.66-.67.28-.53.29-1.37-.23-1.78-.16-.13-.3-.25-.47-.37.14.1.18.12.03 0-.13-.11.15.25 0 .01-.06-.09-.12-.19-.18-.28-.2-.35-.35-.72-.52-1.08-.43-.93-1-1.79-1.58-2.63-.65-.94-1.29-1.83-2.24-2.49-.82-.57-1.84-.85-2.79-1.17-.56-.19-1.2.17-1.41.69s-.06 1.24.49 1.49Zm17.01 4.57c-.24-.1 0 0 .05.02.08.04.17.08.25.12q.24.12.48.27c.24.15.31.2.46.3-.24-.15.04.04.08.07.06.05.11.1.16.15.56.51 1.06 1.09 1.53 1.68.43.54.9 1.05 1.44 1.48.42.34.85.69 1.38.86.6.2 1.25.22 1.82-.09.66-.36.85-1.24.49-1.87-.17-.3-.41-.53-.71-.71-.27-.17.2.08.04.04s-.29-.24-.45-.34c-.14-.09-.29-.17-.43-.26-.13-.09-.24-.26 0 0-.04-.05-.11-.09-.16-.13-.54-.47-1.02-1-1.56-1.47-1.25-1.07-2.63-2.05-4.2-2.59-.63-.22-1.42.25-1.57.89-.17.74.23 1.3.89 1.57Zm49.54-8.28c-2.99 1.07-5.99 2.11-8.97 3.22-1.49.56-2.97 1.15-4.45 1.73-1.51.59-3.35 1.02-4.54 2.15-1.13 1.07-.25 3.02 1.25 3.03 1.59 0 3.19-.93 4.65-1.52 1.53-.62 3.06-1.23 4.57-1.87 2.92-1.24 5.81-2.55 8.71-3.83 1.63-.72.47-3.5-1.22-2.9ZM68.4 90.58c-3.41 1.02-6.76 2.2-10.13 3.34-1.25.42-2.02 2.21-.84 3.2 12.33 10.36 26.1 18.8 38.63 28.9 3.11 2.51 6.14 5.12 9.04 7.87 1.5 1.42 3.07 2.39 5.22 1.92 1.97-.43 3.9-1.62 5.72-2.46 7.78-3.56 15.56-7.13 23.36-10.66 8.69-3.93 17.42-7.79 26.01-11.95 1-.48 1.27-1.91.74-2.81-.61-1.04-1.8-1.2-2.81-.74-14.92 6.81-29.84 13.6-44.73 20.47a540 540 0 0 0-5.45 2.55c-.89.43-1.78.87-2.68 1.28-.74.34-1.29.63-1.96.09-1.46-1.17-2.77-2.58-4.18-3.82-1.5-1.32-3.03-2.61-4.58-3.87-5.99-4.88-12.29-9.38-18.59-13.84-7.12-5.05-14.28-10.08-21.02-15.63l-.84 3.2c3.46-1.35 6.92-2.66 10.33-4.13 1.66-.72.47-3.41-1.22-2.9Z"/><path d="M56.87 95.81c-.02 4.25-.1 8.51 0 12.76.03 1.03-.1 2.09.59 2.93.75.91 1.93 1.66 2.84 2.41l5.79 4.71c7.65 6.23 15.34 12.4 22.99 18.63 3.85 3.13 7.7 6.26 11.54 9.41 1.6 1.31 2.96 2.63 4.19 4.29 1.58 2.14 3.82 1.45 5.8.36 8.34-4.6 16.79-9.02 25.32-13.26a683 683 0 0 1 29.16-13.62c.61-.27 1.06-1.13 1.02-1.78-.26-4.42-.18-8.85.26-13.26.11-1.09-1.01-2.02-2.02-2.02-1.19 0-1.9.93-2.02 2.02q-.735 6.615-.33 13.26c.34-.59.68-1.19 1.02-1.78a668 668 0 0 0-44.11 21.31c-1.98 1.05-3.96 2.11-5.93 3.18-1.06.57-2.11 1.15-3.16 1.73l-1.47.81c-.19.1-.38.24-.58.32a.7.7 0 0 1-.26.11c-.13.06-.14.04-.03-.07l.9.52c-.59-.48-.97-1.25-1.46-1.84-.59-.7-1.25-1.34-1.94-1.94-1.54-1.34-3.16-2.6-4.74-3.88-3.21-2.61-6.41-5.22-9.62-7.83-6.5-5.28-13-10.55-19.52-15.8-3.75-3.02-7.49-6.05-11.35-8.92l.93 1.62c-.42-4.78-.18-9.59-.7-14.36-.21-1.94-3.1-2.05-3.11 0Z"/><path d="M62.95 30.3c-1.3 1.32-2.64 2.6-3.95 3.91-1.28 1.29-2.92 2.6-3.89 4.16-1.59 2.57.21 4.61 1.85 6.54s3.39 3.83 5.16 5.68c7.04 7.35 14.8 13.98 22.69 20.4 4.04 3.29 8.05 6.73 12.34 9.7s9.04 4.65 13.78 6.44c9.83 3.71 19.68 7.38 29.3 11.63 4.8 2.12 9.55 4.38 14.19 6.85 2.29 1.22 4.51 2.6 6.81 3.8 1.03.54 2.19.89 3.34.53 1.29-.4 2-1.52 2.63-2.63 1.33-2.36 2.64-4.73 3.96-7.1.79-1.42 1.24-2.44.32-3.87-1.34-2.11-3.4-3.89-5.18-5.62-5.02-4.89-10.17-9.68-15.48-14.25-4.15-3.57-8.38-7.03-12.62-10.49-3.81-3.11-7.44-6.51-11.68-9.04s-8.61-4.41-12.99-6.36c-4.57-2.03-9.15-4.02-13.74-5.99-9.26-3.96-18.55-7.86-27.84-11.76-2.19-.92-4.37-1.85-6.56-2.77-2.16-.9-3.78 2.89-1.61 3.81 17.34 7.37 34.58 14.91 51.67 22.83 4.06 1.88 8.5 3.4 12.15 6.01 3.84 2.74 7.36 5.99 11.01 8.97 6.88 5.62 13.53 11.44 20.04 17.49 1.81 1.69 3.62 3.38 5.38 5.11.9.89 1.79 1.78 2.65 2.71.35.38.69.77 1.02 1.15.32.37-.09-.16.09.11.09.13.17.31.28.43.12.13-.03.22-.02-.06 0-.17-.05-.73-.12-.89v-.27c-.11.22-.23.43-.35.65l-.48.86c-.64 1.15-1.28 2.3-1.92 3.44-.6 1.08-1.18 2.16-1.8 3.23.09-.15-.27.42-.27.45l.4-.17-.2-.1c-.28-.41-1.29-.75-1.73-1-4.29-2.46-8.7-4.71-13.17-6.82-8.99-4.23-18.25-7.83-27.49-11.47-4.58-1.8-9.18-3.55-13.74-5.41-2.17-.88-4.31-1.88-6.31-3.11-2.11-1.3-4.02-2.87-5.95-4.42-7.48-5.99-15-11.94-22.08-18.41-3.55-3.25-7-6.63-10.26-10.17-.82-.89-1.62-1.78-2.41-2.69-.4-.45-.79-.91-1.18-1.37-.12-.14-.29-.29-.38-.45-.15-.28-.16.26-.06-.11.17-.61 1-1.32 1.4-1.79.61-.7 1.23-1.39 1.85-2.08 1.16-1.29 2.3-2.59 3.38-3.96 1.23-1.57-.77-3.76-2.25-2.25Z"/><path d="M62.85 33.91c3.92 5.37 9.28 9.69 14.39 13.88 5.31 4.35 10.6 8.76 15.96 13.05 6.04 4.84 12.83 8.98 19.91 12.07 9.42 4.12 18.91 8.08 28.34 12.16 4.91 2.12 9.72 4.33 14.27 7.16 4.11 2.56 8.6 5.58 13.49 6.31 2.25.34 3.26-2.82.96-3.5-2.05-.6-4.05-1.29-5.93-2.33-1.91-1.06-3.74-2.26-5.58-3.42-3.91-2.45-7.95-4.53-12.19-6.38-9.25-4.04-18.53-8.02-27.8-12.01-7.39-3.18-14.55-6.86-21.01-11.71-2.61-1.96-5.06-4.11-7.64-6.11-2.72-2.11-5.46-4.19-8.19-6.29-3.18-2.45-6.3-4.96-9.39-7.53-2.62-2.17-5.23-4.44-7.36-7.11-1-1.25-3.2.42-2.25 1.73Z"/><path d="M98.26 79.88c.98-2.04 2.35-4.03 3.7-5.79.64-.84 1.43-1.73 2.2-2.51.4-.41.82-.81 1.24-1.19.49-.45 1.04-.85 1.33-1.47.52-1.07-.34-2.36-1.57-2.04s-2.27 1.55-3.14 2.45c-.91.94-1.75 1.95-2.54 2.99-.73.96-1.37 1.99-1.96 3.05-.62 1.13-1.08 2.35-1.55 3.55-.52 1.31 1.67 2.24 2.28.96Zm8.67 53.8c-.28.67-.22 1.46-.25 2.18s-.06 1.42-.1 2.13c-.07 1.37-.13 2.74-.23 4.12s-.2 2.74-.33 4.11c-.06.71-.14 1.42-.22 2.13-.03.29-.11.62-.11.91 0 .61.3 1.01.66 1.46.6.75 1.68.49 2.31 0 .76-.59.74-1.49.83-2.37.07-.71.14-1.42.19-2.13.11-1.42.2-2.84.22-4.26s.04-2.85-.02-4.27.06-3.06-.55-4.33c-.55-1.14-2.03-.62-2.41.32Zm24.73-32.24c-7.63-4.55-16.36-5.95-25.08-4.65-4.51.68-8.88 2.03-13.08 3.8-.96.4-2.13.73-2.8 1.57-.82 1.02-.67 2.26.06 3.27 1.14 1.6 2.53 3.06 4.01 4.35 5.8 5.05 13.38 7.77 21 8.31 4.47.32 9.07-.34 13.16-2.2 2.13-.97 4.09-2.29 6.06-3.55 1.65-1.06 5-2.36 4.75-4.75-.21-1.99-2.86-3.75-4.36-4.8-1.8-1.26-3.81-2.19-5.85-2.99s-4.11-1.43-6.24-1.91c-2.58-.59-5.02-1.2-7.67-1.28-2.21-.07-2.1 3.13 0 3.36 3.87.43 7.86 2.08 11.5 3.4 1.67.6 3.3 1.32 4.83 2.24.72.43 1.43.9 2.08 1.45.3.25.58.51.86.77.18.18.87 1.16.72.61l.21-1.64c-.08.18-1.08.65-1.3.79-.49.31-.98.63-1.47.94-1 .64-1.99 1.3-3.01 1.92-1.82 1.12-3.68 2.07-5.75 2.65-3.76 1.04-7.96 1.12-11.8.45-3.55-.62-7.01-1.79-10.11-3.64a26.9 26.9 0 0 1-6.06-4.91c-.45-.49-1.44-1.34-1.67-1.88l-.23 1.78.1-.18-.83.83c2.66-1.56 5.98-2.48 8.94-3.28 3.14-.84 6.32-1.35 9.57-1.5 6.12-.27 12.33.64 17.74 3.63 1.94 1.07 3.64-1.83 1.73-2.97Z"/><path d="M114.12 103.33c-.34.1-.69.23-1 .4-.44.24-.79.58-1.07 1-.07.1-.13.21-.18.32-.1.23-.22.47-.27.73-.12.58-.11 1.06 0 1.63.05.25.17.49.27.73.06.13.12.25.21.37.15.2.3.42.49.59.48.42 1.05.65 1.7.56.44-.06.87-.24 1.18-.57s.44-.61.59-1.01c.11-.28.19-.58.25-.88.09-.47.16-.96.17-1.44s-.05-.99-.13-1.48c-.06-.41-.48-.87-.82-1.06-.38-.22-.94-.32-1.37-.18s-.85.41-1.06.82l-.18.43c-.08.32-.08.63 0 .95 0 .06.02.11.03.17l-.06-.47c.06.5.06 1 0 1.49l.06-.47c-.06.42-.15.86-.32 1.25l.18-.42c-.02.05-.05.1-.08.15l.28-.36s-.03.04-.05.06l.36-.28s-.04.03-.06.04l.42-.18s-.05.02-.08.02l.47-.06H114l.47.06c-.03 0-.06-.01-.09-.02l.42.18s-.06-.03-.08-.05l.36.28c-.08-.06-.14-.14-.2-.21l.28.36a2 2 0 0 1-.22-.38l.18.42c-.08-.18-.13-.37-.16-.57l.06.46c-.02-.16-.02-.33 0-.49l-.06.46c.02-.16.06-.3.12-.45l-.17.4c.1-.22.22-.44.36-.63l-.25.32c.09-.12.2-.22.32-.32l-.31.24c.06-.05.12-.08.2-.11l-.36.15.09-.03c.37-.14.69-.34.89-.69.19-.32.27-.79.15-1.15s-.34-.71-.69-.89-.76-.26-1.15-.15Z"/><path d="m71.85 104.31 37.71-18.09c.29-.14.6-.28.92-.24.36.05.64.33.88.6 1.57 1.75 2.76 3.83 3.47 6.07.31.99.49 2.18-.19 2.96-.6.69-1.62.77-2.53.82-6.9.39-13.73 1.9-20.16 4.45-.62.24-1.26.53-1.63 1.08-.69 1.03-.1 2.41.57 3.45 4.22 6.56 11.52 10.85 19.21 12.15s15.7-.24 22.76-3.57c2.39-1.13 4.76-2.52 6.34-4.64.28-.38.55-.81.51-1.28-.03-.4-.28-.74-.52-1.05-2.51-3.15-6.25-5.07-10.05-6.39s-7.77-2.12-11.54-3.54c-.31-.12-.64-.25-.84-.52-.19-.27-.22-.62-.24-.95-.11-1.96-.22-3.92-.34-5.88 14.48 4.13 28.49 9.94 41.65 17.26.56.31 1.2.8 1.06 1.42-.1.43-.53.68-.91.87-15.65 7.91-29.05 12.25-44.73 20.1.47.24-2.93.46-2.46.7-1.54.55-3.29.12-4.69-.72s-2.54-2.05-3.72-3.17c-9.01-8.57-21.29-12.91-30.76-20.96"/><path d="M72.66 105.71c11.96-5.38 23.77-11.13 35.63-16.73.2-.1 2.11-1.16 2.25-1.06l-.28.03c-.39-.04-.39.07 0 .34.12.25.42.52.59.75.82 1.15 1.52 2.42 1.97 3.76.12.36.48 1.05.33 1.43-.09.22-.02.17-.5.26-1.44.28-2.97.23-4.43.38-5.96.63-12.11 1.92-17.59 4.4-6.18 2.79.06 9.85 3.01 12.55 3.79 3.48 8.5 5.95 13.48 7.22 5.59 1.42 11.48 1.31 17.09.09 2.92-.64 5.73-1.61 8.47-2.8 2.38-1.04 4.72-2.26 6.64-4.04 1.06-.99 2.3-2.32 2.4-3.83.11-1.65-1.07-2.93-2.16-4.02-2.2-2.21-4.94-3.74-7.8-4.93-3.05-1.26-6.26-2.05-9.42-2.96-.82-.24-1.63-.48-2.44-.75-.29-.1-.59-.19-.88-.29s-.58-.2-.87-.31c.33.58.45.66.38.23.11-.28-.06-.93-.08-1.23l-.09-1.47c-.06-.98-.11-1.96-.17-2.94l-2.52 1.92c7.31 2.1 14.5 4.61 21.53 7.54 3.45 1.44 6.85 3.02 10.2 4.69 1.65.82 3.29 1.66 4.92 2.53.81.43 1.63.87 2.43 1.31l1.41.78c.2.11.4.22.6.34q.63.495 0-.42l.29-1.08c.25-.1.2-.07-.15.1-.29.15-.59.29-.89.44-.44.22-.88.43-1.32.65-1.01.49-2.02.98-3.04 1.45-1.83.86-3.68 1.7-5.53 2.52-3.71 1.64-7.44 3.24-11.18 4.82-7.67 3.24-15.32 6.5-22.77 10.23-1.15.58-1.46 2.5-.43 3.34l.04.03-.55-2.07v.03l.97-1.27c.56-.39.15-.09-.25-.01-.37.07-.74.11-1.11.18-.93.17-1.96.65-2.16 1.7-.13.71-.05 1.57.55 2.08l.04.03.94-3.57c-1.73.51-3.28-.58-4.52-1.69-1.43-1.28-2.77-2.66-4.25-3.89-2.91-2.4-6.04-4.51-9.25-6.49-6.43-3.95-13.24-7.41-19.05-12.27-.9-.75-2.19-.88-3.07 0-.78.78-.9 2.31 0 3.07 6.29 5.35 13.62 9.1 20.61 13.43 3.35 2.08 6.62 4.31 9.53 6.98 3.1 2.84 6.47 6.44 11.13 4.97 1.39-.44 2.26-2.5.94-3.57l-.04-.03c.18.69.37 1.38.55 2.08v-.03l-.97 1.27c-.56.39-.16.08.24 0 .37-.07.74-.11 1.11-.18.92-.17 1.97-.66 2.15-1.7.13-.71.06-1.57-.55-2.07l-.04-.03c-.14 1.11-.29 2.23-.43 3.34 11.93-5.93 24.44-10.53 36.53-16.11 1.5-.69 3-1.4 4.49-2.13 1.51-.73 3.47-1.38 4.72-2.54 1.13-1.04 1.25-2.7.41-3.95-.91-1.35-2.81-2.05-4.19-2.79-5.92-3.16-12.04-5.94-18.24-8.5-6.96-2.88-14.08-5.34-21.33-7.41-1.19-.34-2.59.62-2.52 1.92.09 1.55.18 3.1.26 4.66.08 1.48.03 2.99 1.32 3.98 1.06.82 2.65 1.17 3.92 1.56 1.48.46 2.97.87 4.46 1.29 2.61.74 5.25 1.49 7.69 2.7 1.14.56 2.26 1.2 3.27 1.97.45.34.87.7 1.27 1.09.19.18.38.37.56.57.17.18.69.99.7.65.01-.4-.33.25-.39.33-.17.2-.36.39-.54.57-.44.44-.91.83-1.42 1.19-1.09.76-2.28 1.38-3.48 1.95a41 41 0 0 1-7.84 2.74c-5.35 1.28-11.02 1.42-16.35-.05-4.6-1.26-8.88-3.66-12.21-7.09-.81-.83-1.57-1.72-2.24-2.67-.32-.46-.68-.94-.92-1.45-.09-.21-.22-.44-.21-.67 0-.15-.02-.12-.09.1.07-.07.16-.12.25-.16 1.23-.27 2.52-1.01 3.73-1.41 1.46-.49 2.93-.93 4.42-1.31 2.8-.72 5.65-1.31 8.52-1.66 2.43-.3 6 .25 7.53-2.14 1.46-2.29.1-5.34-1.02-7.47-1.05-2-3.04-5.52-5.76-4.88-1.59.38-3.19 1.45-4.65 2.17l-4.92 2.4c-3.13 1.53-6.26 3.05-9.4 4.58-6.56 3.19-13.14 6.35-19.64 9.66-1.88.96-.23 3.63 1.63 2.79Z"/><path d="M115.76 104.22c-1.36-.11-2.75.82-3.14 2.13-.15.5-.17 1.04-.19 1.57 0 .15 0 .3.05.44.06.14.18.24.3.33 1.49 1.12 3.73 1.09 5.19-.07.28-.22.53-.48.65-.81.09-.26.1-.54.11-.81.02-.76.01-1.58-.44-2.18-.5-.67-1.43-.89-2.26-.85-.98.04-1.98.38-2.68 1.06s-1.08 1.74-.82 2.69"/><path d="M115.76 102.83c-1.05-.12-2.18.1-3.05.71-.54.37-1.01.8-1.35 1.37-.35.58-.52 1.21-.61 1.88-.1.76-.21 1.54.1 2.26s.92 1.18 1.57 1.52c.99.51 2.13.79 3.24.71s2.26-.41 3.18-1.08c.63-.46 1.13-.96 1.44-1.69.27-.63.29-1.33.28-2.01 0-.6-.05-1.24-.27-1.8-.32-.8-.77-1.39-1.47-1.9-1.07-.78-2.51-.85-3.77-.67-1.48.22-2.78 1.04-3.66 2.24-.38.51-.66 1.14-.77 1.76-.09.49-.1.89-.04 1.38.04.33.12.63.29.92.2.33.48.55.79.77s.95.29 1.32.17c.4-.13.84-.39 1.02-.79.2-.42.31-.71.34-1.19 0-.17.01-.34.03-.52l-.07.51c.05-.28.11-.56.21-.82l-.19.46c.11-.27.26-.51.44-.74l-.3.39c.17-.2.36-.38.56-.55l-.39.3c.25-.18.51-.33.79-.45l-.46.2c.38-.16.77-.26 1.18-.31l-.51.07c.41-.05.81-.07 1.22-.02l-.51-.07c.24.04.47.1.7.19l-.45-.19c.14.06.26.14.39.21-.35-.18-.27-.22-.11-.07.21.2-.19-.31-.09-.12.01.02.13.2.12.21 0 0-.17-.48-.06-.12.05.17.08.35.11.53l-.07-.49c.06.49.07 1.02.02 1.51l.06-.48c-.01.07-.03.13-.04.2-.05.27.08-.15.08-.16 0 .04-.23.34-.02.06.18-.23.03-.05-.02 0-.06.06-.39.34-.14.14.24-.18.05-.04 0 0-.06.04-.13.08-.19.12-.1.06-.21.12-.32.17-.23.12.16-.09.17-.07 0 0-.16.06-.17.06-.26.09-.53.15-.8.19l.47-.06c-.43.06-.85.06-1.28 0l.47.06c-.2-.03-.39-.07-.58-.12-.1-.03-.2-.07-.3-.1-.3-.1.39.19.09.04a6 6 0 0 1-.48-.26c-.05-.03-.1-.07-.15-.1l.22.17c-.13-.13-.1-.07.09.17.1.28.13.33.09.14l.06.48c-.01-.45 0-.91.06-1.35l-.06.47c.03-.21.08-.41.14-.61.09-.28-.16.31-.06.13.04-.06.07-.13.1-.2.02-.04.25-.46.28-.45-.01 0-.29.35-.07.1.06-.07.12-.13.18-.19.05-.04.13-.09.16-.15q-.3.225-.15.12l.11-.08c.13-.09.27-.17.42-.25.21-.11.03 0-.08.02.08-.02.18-.06.25-.09.26-.1-.31 0-.03 0h.27c.73.01 1.42-.65 1.39-1.39-.04-.82-.61-1.3-1.39-1.39Zm-57.49 7.9 22.62 24.12c3.3 3.52 6.6 7.03 9.89 10.55 4.61 4.91 9.22 9.82 13.84 14.73a3.82 3.82 0 0 0 4.65.73 408 408 0 0 0 48.96-31.97c1.92-1.46 3.9-3.02 4.93-5.2-17.24 8.51-34.5 17.03-52.45 23.9-1.06.4-2.15.81-3.28.75-1.06-.06-2.06-.53-3-1.02-5.86-3.06-10.99-7.32-16.08-11.55L74.21 124"/><path d="M57.23 111.78c12.84 14.52 26.26 28.51 39.42 42.74 1.62 1.75 3.24 3.5 4.85 5.25 1.55 1.67 2.93 3.34 5.33 3.6 2.18.23 3.94-.93 5.75-1.97 1.96-1.12 3.92-2.27 5.87-3.42 7.94-4.67 15.73-9.58 23.34-14.76 4.19-2.86 8.31-5.83 12.39-8.84 2.05-1.51 4.09-3.03 6.1-4.59 1.83-1.42 3.53-3.02 4.59-5.11.9-1.79-.9-3.57-2.68-2.68-11.92 5.89-23.86 11.76-36.04 17.1-3 1.31-6 2.59-9.03 3.83-1.41.57-2.82 1.14-4.24 1.69s-3.12 1.46-4.72 1.68c-1.27.18-2.42-.56-3.5-1.14a57 57 0 0 1-4.22-2.57c-2.48-1.66-4.85-3.48-7.16-5.36-5.93-4.81-11.76-9.75-17.64-14.63-1.97-1.64-4.83 1.18-2.84 2.84 5.46 4.55 10.91 9.13 16.39 13.66 2.51 2.07 5.05 4.11 7.72 5.99s5.43 3.81 8.45 4.88 6.16-.49 9.03-1.63c3.29-1.3 6.55-2.66 9.8-4.05 6.33-2.71 12.59-5.59 18.81-8.54 7.09-3.37 14.12-6.86 21.17-10.33l-2.68-2.68c-.85 1.68-2.2 2.91-3.66 4.06-1.66 1.3-3.36 2.55-5.06 3.8-3.52 2.59-7.1 5.09-10.7 7.57-7.2 4.96-14.55 9.7-22.04 14.19-3.75 2.25-7.54 4.41-11.37 6.52-1.82 1-2.69-.31-3.91-1.59-1.59-1.66-3.18-3.33-4.76-4.99-6.39-6.7-12.73-13.44-19.08-20.18-7.1-7.55-14.25-15.04-21.55-22.39-1.36-1.37-3.36.68-2.1 2.1Zm-35.88-14.6 7.9 8.74c.79.88 1.71 2.3 3.09 1.84.88-.29 1.38-1.23 1.13-2.14-.17-.63-.76-1.12-1.2-1.58-1.37-1.43-2.73-2.86-4.1-4.29l-4.59-4.8c-.59-.62-1.64-.59-2.23 0-.63.63-.57 1.6 0 2.23"/><path d="M22.69 106.53c1.71-1.34 3.54-2.52 5.43-3.59 2.02-1.15 4.05-2 6.06-2.89.82-.36 1.05-1.51.74-2.25s-1.28-1.36-2.13-1.04c-2.26.83-4.44 2.03-6.48 3.29s-3.97 2.74-5.78 4.32c-.62.54-.56 1.61 0 2.17.64.64 1.51.51 2.17 0Zm13.87 14.87c2.07 0 2.07-3.22 0-3.22s-2.07 3.22 0 3.22m7.56-8.74c2.14 0 2.15-3.33 0-3.33s-2.15 3.33 0 3.33m4.7 9.67c2.22 0 2.23-3.45 0-3.45s-2.23 3.45 0 3.45m60.27-87.64c5.33-3.49 8.58-9.62 7.98-16.03l-3.56.48c1.85 8.71 11.11 12.55 19.24 11.65 2.36-.26 2.49-3.77 0-3.78-8.47-.06-14.65 8.16-12.18 16.28.73 2.41 4.27 1.41 3.75-1.03-.79-3.75-3.55-6.85-6.91-8.58-3.94-2.03-8.46-2.31-12.8-2.09-2.54.13-2.55 4.11 0 3.97 5.99-.33 14.43.59 15.96 7.73 1.25-.34 2.5-.69 3.75-1.03-1.77-5.73 2.4-11.48 8.43-11.46v-3.78c-6.53.76-14.15-1.68-15.75-8.83-.44-1.95-3.77-1.57-3.56.48.54 5.09-1.61 10.48-5.88 13.43-1.58 1.09-.12 3.68 1.52 2.6Zm40.66 11.71-.48 6.8-.24 3.4c-.04.52-.09 1.05-.11 1.57-.03.61.07-.08-.04.3-.1.35.03-.1.17-.18-.61.35-.91 1.11-.73 1.79.2.72.83 1.09 1.53 1.16 1.62.18 2.29-1.52 2.39-2.82s.12-2.62.19-3.92l.39-8.1c.04-.83-.73-1.53-1.53-1.53-.88 0-1.47.7-1.53 1.53Z"/><path d="M144.35 53.31c1.89.43 3.8.82 5.74 1.03.92.1 1.84.19 2.77.25.46.03.92.05 1.38.07.56.02 1.17.1 1.7-.1 1.53-.58 1.5-2.5 0-3.09-.52-.21-1.15-.14-1.7-.14-.43 0-.85-.02-1.28-.03-.92-.02-1.84-.06-2.77-.12-1.83-.12-3.67-.22-5.5-.44-.64-.07-1.22.56-1.29 1.14-.07.62.29 1.29.94 1.44Zm9.32 15.96c2.06 0 2.06-3.2 0-3.2s-2.06 3.2 0 3.2m4.5-3.17c1.92 0 1.92-2.98 0-2.98s-1.92 2.98 0 2.98m.82 6.74c1.92 0 1.92-2.98 0-2.98s-1.92 2.98 0 2.98M42.28 119.16c1.82 0 1.82-2.83 0-2.83s-1.82 2.83 0 2.83m20.74-83.44c3.64 5.18 8.55 9.31 13.41 13.37 1.95 1.64 3.91 3.27 5.86 4.91 3.3 2.76 6.59 5.52 10.04 8.08 2.71 2.02 5.51 3.91 8.38 5.67-.26.34-.51.68-.77 1.01.95-.09 1.91-.17 2.86-.26-1.8 3-5.53 4.54-7 7.71-1.85-2.52-4.54-4.26-7.07-6.1-3.51-2.56-6.8-5.42-10.08-8.28-2.43-2.12-4.86-4.23-7.29-6.35-1.69-1.48-3.4-2.96-4.84-4.68-1.05-1.25-1.95-2.62-2.86-3.99-1.44-2.18-2.88-4.37-4.32-6.55 1.84-.79 1.46-4.16 3.39-4.7"/><path d="M61.83 36.41c4.61 6.86 11.11 12.04 17.36 17.32 3.28 2.77 6.55 5.56 9.95 8.19 3.43 2.66 7.01 5.04 10.65 7.41-.12-.96-.25-1.92-.37-2.88-.26.33-.53.66-.79.99-.91 1.14-.46 3.31 1.32 3.19.95-.06 1.91-.13 2.86-.2l-1.67-2.9c-1.95 2.95-5.43 4.43-7.05 7.69h3.43c-2.42-3.2-5.75-5.26-8.9-7.65-3.53-2.68-6.84-5.65-10.19-8.57s-6.8-5.57-9.74-8.77c-2.98-3.24-5.19-7.31-7.61-10.98L60.36 42c1.1-.56 1.73-1.55 2.19-2.65.2-.49.35-1.01.58-1.49.07-.15.43-.46.13-.36 2.42-.86 1.37-4.74-1.07-3.87-1.34.48-2.18 1.38-2.74 2.68-.31.71-.59 1.94-1.13 2.22-.93.47-1.29 1.88-.72 2.75 2.42 3.67 4.67 7.58 7.49 10.95 2.82 3.36 6.47 6.09 9.76 8.96 3.31 2.88 6.59 5.8 10.04 8.51 3.04 2.38 6.81 4.4 9.18 7.52.82 1.08 2.69 1.48 3.43 0 1.56-3.16 5.13-4.71 6.95-7.74.69-1.15-.18-3.07-1.67-2.9-.95.11-1.91.21-2.86.32l1.61 2.81c.25-.34.5-.69.74-1.03.58-.8.13-2.05-.66-2.51-7.19-4.18-13.53-9.68-19.91-14.97-6.07-5.03-12.75-9.82-17.52-16.17-1.04-1.38-3.38-.11-2.37 1.39Z"/></svg>