<?xml version="1.0" encoding="UTF-8"?><svg xmlns="http://www.w3.org/2000/svg" viewBox="0 0 180 180"><path d="M10.67 69.31c4.92 2.14 5.83 7.89 8.06 12.23 1.43 2.79 3.51 5.57 5.78 7.74 2.48 2.38 5.6 3.72 8.91 4.51 7.18 1.71 14.93 3.28 22.33 2.53 3.1-.32 6.35-.93 8.71-3.15 2.37-2.23 2.62-5.65.96-8.38-1.82-2.99-5.06-5.18-8.15-6.7-3.32-1.64-6.87-2.72-10.41-3.75l-.63 4.65c12.39 1.14 23.26 8.16 35.46 10.03 3.07.47 6.4.39 9.01-1.51 2.36-1.72 3.88-4.48 3.29-7.45-.53-2.67-2.71-4.59-4.98-5.86-2.69-1.5-5.7-2.53-8.55-3.68-7.16-2.88-14.36-5.67-21.66-8.17-.38 1.38-.76 2.76-1.14 4.15 3.79 1.14 7.58 2.28 11.38 3.41 1.84.55 3.69.82 5.42-.21 1.31-.78 2.28-2.2 2.66-3.66.89-3.43-1.16-6.69-3.41-9.08-2.34-2.48-5.29-4.26-8.53-5.28l-1.11 4.02c1.61.3 2.87 1.25 4.23 2.11 1.33.84 2.75 1.49 4.32 1.7 3.33.44 6.41-1.72 6.44-5.23.02-3.11-2.05-5.87-3.87-8.2-1.94-2.49-4.35-4.79-7.55-5.44-2.18-.44-3.77 2.61-1.59 3.77 2.63 1.4 5.56 2.89 8.49 3.54 1.28.28 2.57.22 3.67-.54 1.16-.8 1.57-2.19 1.77-3.53.78-5.42-2.98-10.16-7.19-13.09s-9.75-4.46-15.07-4.71c-5.06-.24-10.07.53-15.1.93-5.88.46-11.76.25-17.22-2.22-1.11-.5-2.44-.32-3.1.81-.58 1-.29 2.56.81 3.1 4.39 2.14 9.1 3.09 13.97 3.16 4.49.06 8.95-.55 13.41-.95s8.8-.56 13.07.54c4.26 1.09 8.67 3.31 11.06 7.17.59.95 1.05 1.98 1.21 3.09.07.52.08 1.11 0 1.62-.03.18-.11.37-.12.55-.04.53-.2.07.11.1-1.09-.12-2.45-.76-3.53-1.18-1.42-.56-2.8-1.23-4.16-1.94-.53 1.26-1.06 2.51-1.59 3.77 2.21.44 3.75 1.93 5.14 3.63 1.28 1.56 2.9 3.52 3.2 5.58.28 1.94-1.73 1.77-3.02 1.22-2.35-1-4.09-2.9-6.69-3.38s-3.7 3.2-1.11 4.02c2.23.71 4.31 1.88 6.02 3.48 1.4 1.32 3.56 3.62 3 5.75-.18.68-.64 1.31-1.38 1.29-1.3-.02-2.85-.8-4.08-1.17-2.94-.9-5.87-1.8-8.81-2.69-2.67-.82-3.73 3.24-1.14 4.15 5.83 2.04 11.63 4.14 17.38 6.39 2.85 1.12 5.69 2.28 8.51 3.48 1.89.8 4.23 1.63 5.55 3.3 1.21 1.54.4 3.32-1.14 4.25-2.21 1.34-5.1.72-7.46.15-5.39-1.29-10.57-3.31-15.78-5.17-6.02-2.16-12.1-4.05-18.5-4.63-2.72-.25-3.12 3.93-.63 4.65 5.14 1.49 10.77 3.03 14.66 6.93 1.42 1.42 2.29 3.14.28 4.34-2.22 1.32-5.17 1.35-7.67 1.35-3.33 0-6.63-.36-9.91-.92-3.15-.54-6.36-1.09-9.45-1.95-2.95-.82-5.16-2.15-7.18-4.46-1.71-1.95-3.23-4-4.43-6.3s-2.12-4.67-3.61-6.77c-1.62-2.28-3.67-3.97-6.26-5.04-1.82-.75-3.18 2.42-1.35 3.21Z"/><path d="M70.92 85.2c-1.6 3.05-2.99 6.21-4.14 9.45-.16.46-.31 1.03.02 1.4.21.23.54.29.84.34l7.94 1.32c.75-2.86 2.81-5.45 5.6-6.41s6.26 0 7.82 2.5c1.57 2.51.66 6.35-2.04 7.55 4.13.61 8.25 1.23 12.38 1.84a63 63 0 0 1 2.27-11.32c.12-.4.3-.85.7-.96.32-.09.65.08.94.23 2.63 1.32 5.98 1.2 8.38-.5s3.62-4.99 2.7-7.78-4.04-4.74-6.91-4.14c.55-1.83 1.09-3.66 1.64-5.5.07-.24.14-.52.03-.74-.12-.24-.41-.33-.66-.41-3.47-.98-7.04-1.6-10.64-1.85 2.32-1.98 1.73-6.11-.71-7.95s-5.97-1.64-8.68-.24-4.75 3.82-6.55 6.28c-1.54-.59-3.15-.98-4.79-1.16-.31.62-.61 1.24-.92 1.86 5.04.96 10.25 1.98 14.43 4.95 2.54 1.8 4.72 4.76 4.07 7.8-.54 2.51-2.91 4.29-5.39 4.91-2.49.62-5.1.29-7.64-.04l-8.12-1.05"/><path d="M69.47 84.35c-1.06 1.73-2 3.52-2.84 5.38-.76 1.7-2.07 3.93-2.04 5.83.04 2.39 2.27 2.76 4.13 3.1 2.09.38 4.19.74 6.29 1.1 1.15.2 2.28-.29 2.62-1.49.95-3.25 4.09-6.28 7.67-4.86 2.59 1.03 3.31 4.75.58 6.09-1.55.76-1.3 3.62.51 3.89 4.13.61 8.25 1.23 12.38 1.83 1.46.21 2.52-.55 2.67-2.04.2-1.89.49-3.77.88-5.63.19-.94.41-1.88.65-2.82.1-.39.2-.78.31-1.16.06-.23.13-.46.2-.7.24-.54.19-.61-.12-.19l-1.04.28c-.16-.08-.13-.08.07.03.22.11.44.2.67.29.36.15.71.28 1.08.39.73.21 1.49.32 2.25.38 1.44.12 2.95-.1 4.3-.62 2.79-1.07 4.91-3.35 5.71-6.25 1.66-5.96-3.48-11.56-9.53-10.51l2.58 2.58c.54-1.82 1.21-3.65 1.64-5.49.46-1.95-.49-3.25-2.33-3.81-3.55-1.07-7.28-1.62-10.97-1.88.5 1.22 1.01 2.43 1.51 3.65 1.95-1.81 2.51-4.68 1.75-7.19-.82-2.73-3.01-4.74-5.77-5.44-6.56-1.64-11.72 3.3-15.26 8.14.8-.32 1.6-.65 2.4-.97-1.74-.64-3.51-1-5.35-1.22-.67-.08-1.53.45-1.82 1.04s-.61 1.25-.91 1.87c-.54 1.11-.17 2.81 1.25 3.08 3.59.67 7.3 1.3 10.66 2.78 2.68 1.18 6.74 3.56 6.56 7.01s-4.24 4.34-6.9 4.34c-4.12 0-8.32-.98-12.41-1.46-2.09-.25-2.6 3.4-.5 3.7 2.55.36 5.11.67 7.66.99 2.4.3 4.85.67 7.27.42 4.12-.42 8.26-2.99 8.74-7.42.49-4.53-3.26-8.23-6.88-10.28-4.02-2.27-8.6-3.24-13.08-4.11.42 1.03.83 2.05 1.25 3.08.31-.62.61-1.24.92-1.86l-1.82 1.04c1.45.18 2.86.59 4.22 1.1.94.35 1.87-.26 2.4-.97 2.27-3.06 5.34-6.57 9.54-6.31 1.5.09 2.96.79 3.59 2.22.51 1.18.43 2.52-.53 3.41-1.45 1.35-.23 3.52 1.51 3.65s3.52.34 5.26.66c.85.16 1.69.33 2.53.52.46.1.92.21 1.37.33l.46.12c.54.18.6.17.19-.02l-.54-.93.06.36v-1.12c-.44 1.98-1.14 3.93-1.71 5.88-.49 1.65 1.07 2.84 2.58 2.58 2.34-.42 4.56 1.74 4.58 4.01.03 2.75-2.15 4.93-4.84 5.19-1.62.16-2.76-.46-4.22-.94-1.9-.63-3.29.61-3.88 2.32-1.31 3.79-1.94 7.9-2.39 11.87l2.67-2.04c-4.12-.63-8.25-1.24-12.37-1.86l.51 3.89c2.47-1.21 3.88-3.94 3.87-6.64-.02-2.9-1.72-5.51-4.32-6.79-6.07-2.98-12.39 1.35-14.06 7.38.87-.5 1.75-.99 2.62-1.49-1.48-.24-2.96-.48-4.45-.71-.7-.11-1.41-.21-2.11-.32-.52-.08-1.36-.04-1.77-.34l.73.73-.17-.3.28 1.02c-.08-.74.42-1.62.68-2.32q.45-1.215.93-2.4c.66-1.67 1.38-3.32 2.1-4.97.84-1.94-1.74-3.59-2.9-1.7Zm-23.18 26.52c-2.21-2.54-1.62-6.87 1.78-7.99 2.96-.97 5.98 1.65 5.15 4.74-.46 1.7 1.31 2.73 2.74 2.1 1.81-.79 3.66-1.52 5.52-2.2.74-.27 1.9-.89 2.72-.78.7.09 1.19.83 1.62 1.33 1.13 1.32 1.89 2.86 2.94 4.22 1.44 1.86 3.27 1.19 5.16.55 2.3-.77 6.79-1.41 7.73 1.76 1 3.36-3.7 2.83-5.62 3.22-1.57.32-1.88 2.36-.9 3.41 2.98 3.19 5.91 6.42 8.79 9.7.14-1.06.27-2.13.41-3.19a72.2 72.2 0 0 1-15.28 6.71l2.28 2.97c1.53-2.5.31-5.39-1.87-7.03-1.98-1.49-4.74-2.92-7.26-2.93-2.61-.01-4.78 1.79-5.41 4.3-.72 2.89.57 5.55 1.99 7.99.41-1.02.83-2.04 1.24-3.06-4.26 1.64-8.51 3.29-12.75 4.97l2.39.97c-1.71-3.2-3.5-6.36-5.17-9.58-.54-1.05-1.83-1.16-2.79-.73-2.74 1.24-6.34.64-8.53-1.42-1.13-1.06-1.85-2.35-.77-3.71s3.21-1.46 4.86-1.31c1.56.14 2.67-1.91 1.82-3.17-1.85-2.74-3.5-5.6-4.95-8.57l-1.25 3.07c3.15-1.26 6.39-2.23 9.72-2.9 2.62-.53 1.51-4.53-1.1-4.01a55 55 0 0 0-9.73 2.88c-1.32.52-1.89 1.76-1.25 3.07 1.44 2.97 3.08 5.84 4.92 8.58.61-1.06 1.21-2.11 1.82-3.17-2.9-.27-6.08.42-8.01 2.76-2.05 2.48-2.07 5.7-.12 8.24 3.41 4.43 9.69 5.52 14.61 3.17l-2.79-.73c1.73 3.19 3.34 6.45 5.02 9.67.4.76 1.56 1.3 2.39.97 4.25-1.65 8.49-3.35 12.73-5.05 1.22-.49 2-1.8 1.24-3.06-.71-1.18-3.38-6.04-.18-6.12 1.27-.03 6.73 2.08 5.64 3.85-.91 1.48.6 3.48 2.28 2.97a76.8 76.8 0 0 0 16.26-7.1c1.19-.69 1.26-2.22.41-3.19-2.88-3.28-5.8-6.52-8.78-9.71l-.9 3.41c2.54-.51 5.21-.13 7.15-2.22 1.68-1.81 1.96-4.58.97-6.79s-3.15-3.69-5.45-4.23c-1.46-.34-2.94-.31-4.42-.08-.69.11-1.37.28-2.04.49-.4.12-1.7.83-2.09.71l.86.5c-.57-.45-.9-1.3-1.31-1.9-.51-.76-1.07-1.5-1.64-2.21-1.13-1.4-2.38-2.81-4.26-3.08s-3.65.56-5.32 1.2c-1.86.71-3.68 1.51-5.48 2.36.91.7 1.82 1.4 2.74 2.1 1.4-5.68-4.02-11.03-9.68-9.15-5.76 1.92-7.34 9.29-2.83 13.4 1.35 1.24 3.19-.63 2-2Zm83.1-4.45c-4.25-.53-8.5-1.07-12.75-1.6-.48 2.67-1.13 5.31-1.94 7.9-2.37-2.24-6.2-2.76-9.08-1.25-1.05.55-1.99 1.37-2.54 2.42-1.04 1.97-.48 4.59 1.15 6.12 1.62 1.53 4.12 1.96 6.24 1.27a26.9 26.9 0 0 0-2.55 9.46c-.04.46-.06.96.19 1.36.27.44.78.64 1.27.81a85 85 0 0 0 11.4 3.18c.3-2.61 1.83-5.13 4.2-6.26 2.37-1.12 5.53-.58 7.11 1.51s1.07 5.56-1.22 6.83a50 50 0 0 0 14.75 3.17c.44.03.92.04 1.29-.2.35-.23.53-.64.68-1.03 1.24-3.14 2.02-6.47 2.3-9.84-3.42-.36-6.57-2.66-7.95-5.81-.25-.58-.45-1.2-.42-1.83.05-.73.41-1.41.88-1.97 2.25-2.73 7.1-2.63 9.23.19 1.5-3.06 3-6.13 4.5-9.19a61.4 61.4 0 0 0-16.39-4.49c2.22-.61 3.09-3.62 2.06-5.67s-3.38-3.16-5.66-3.45c-1.16-.15-2.38-.12-3.44.38-1.99.93-2.92 3.18-3.67 5.24"/><path d="M129.79 104.95c-4.21-.68-8.41-1.46-12.62-2.06-1.01-.14-2.22.23-2.45 1.39-.54 2.66-1.18 5.3-1.99 7.89l3.43-.91c-4.28-3.87-12.59-3.83-15.12 2.14-1.13 2.66-.42 5.89 1.6 7.94 2.16 2.19 5.49 2.77 8.38 1.92-.77-1.01-1.55-2.01-2.32-3.02-1.03 2.19-1.89 4.46-2.37 6.84-.41 2.01-1.18 4.93.39 6.62.69.74 1.61 1.06 2.55 1.39q1.785.63 3.6 1.17c2.42.73 4.87 1.34 7.35 1.85 1 .21 2.42-.29 2.59-1.47.38-2.75 2.29-5.76 5.47-5.24 1.19.19 2.35.93 2.6 2.18.21 1.05-.09 2.21-1.04 2.8-1.62.99-1.14 3.17.49 3.79 2.51.94 5.08 1.7 7.7 2.24s5.32 1.06 7.93 1.02c2.9-.04 3.67-2.61 4.41-4.95.85-2.67 1.34-5.43 1.59-8.22.11-1.21-1.04-1.94-2.06-2.06-1.64-.21-3.24-1.05-4.41-2.2-.8-.79-2.38-2.53-1.74-3.72 1.3-2.42 4.98-1.82 6.45 0 .79.98 2.66.69 3.19-.41 1.5-3.07 3-6.13 4.5-9.19.44-.89.34-2.33-.73-2.78a66.2 66.2 0 0 0-17.42-4.77l.54 4c2.45-.8 3.9-3.05 3.98-5.59.09-2.75-1.75-5.15-4.12-6.36-2.57-1.31-5.98-1.82-8.62-.44-2.43 1.27-3.54 3.95-4.43 6.39s2.97 3.46 3.87 1.07c.47-1.24.98-2.73 2.06-3.59 1.24-.99 3.17-.65 4.54-.14 1.12.42 2.42 1.27 2.61 2.56.12.78-.13 1.9-.97 2.17-2.31.76-1.67 3.71.54 4a60 60 0 0 1 15.37 4.2l-.73-2.78c-1.5 3.06-3 6.13-4.5 9.19 1.06-.14 2.13-.27 3.19-.41-3.23-4.02-10.67-3.66-13.03 1.14-1.4 2.85.29 5.99 2.28 8.1s4.69 3.32 7.57 3.68l-2.06-2.06c-.19 2.12-.6 4.2-1.19 6.24-.06.2-1.13 2.98-1.05 3.05-.18.22-.06.13.36-.28-.19 0-.38-.01-.56-.03-.53-.03-1.07-.08-1.6-.13-4.23-.41-8.39-1.46-12.37-2.95.16 1.26.33 2.52.49 3.79 2.15-1.31 3.37-3.79 3.14-6.31-.26-2.82-2.06-5.02-4.7-6-5.52-2.05-10.87 2.47-11.61 7.88.86-.49 1.72-.98 2.59-1.47a87 87 0 0 1-8.26-2.13c-.91-.28-1.95-.79-2.92-.97-.27-.05-.37-.24-.26 0 .15.34.18-.73.19-.9.09-.85.25-1.7.44-2.53.4-1.79.95-3.56 1.73-5.22.72-1.55-.48-3.55-2.32-3.02-1.45.42-3.07.29-4.23-.76-1.02-.92-1.4-2.56-.72-3.78 1.6-2.87 6.14-2.5 8.28-.59 1.16 1.03 2.96.63 3.43-.91.79-2.61 1.44-5.23 1.88-7.92-.64.49-1.28.97-1.92 1.46 4.24.46 8.5.74 12.75 1.13 1.68.15 2.09-2.7.4-2.98Z"/><path d="M115.87 105.39c1.88-4.36 3.32-8.9 4.83-13.4l-3.08.81c3.91 4.06 10.85 3.09 12.74-2.44.81-2.38.29-5.05-1.53-6.83s-4.47-2.5-6.83-1.61l2.02 2.62c1.49-3.19 2.37-6.5 2.66-10.01-.78.59-1.56 1.19-2.34 1.78 4.02 1.08 8.05 2.15 12.07 3.23 1.69.45 2.8-1.32 2.12-2.76-.56-1.21.19-2.73 1.17-3.49 1.31-1.01 3.2-1.15 4.78-.91 1.37.21 3.21.74 3.91 2.08.46.89.27 1.91-.66 2.32-1.97.86-.75 3.59 1 3.71 1.91.13 3.8.34 5.68.65.95.16 1.9.33 2.84.53a50 50 0 0 1 1.88.43q.78.285.27-.03l-.53-.91c.14.49-.23 1.43-.33 1.91-.15.75-.33 1.49-.53 2.23-.4 1.48-.89 2.92-1.45 4.34-.7 1.79 1.59 3.11 3.04 2.34 2.54-1.35 5.91-.26 7.51 2.04.88 1.26 1.19 2.86-.16 3.89-.99.76-2.39 1.03-3.61 1.04-1.97.02-3.96-.33-5.25 1.57-.61.9-.9 2.05-1.27 3.07-.4 1.11-.81 2.22-1.21 3.33-.08.22-.16.44-.24.67-.23.47.02.42.77-.17 0-.07-1.8-.33-1.96-.35-1.15-.2-2.3-.39-3.45-.59-2.46-.42-4.91-.86-7.37-1.33l.87 3.28c2.63-2.3 2.98-6.3 1.43-9.3-1.65-3.19-5.47-4.73-8.92-4.38-3.88.39-7.03 2.76-9.2 5.91-.43.62-1.14 1.55-1.31 2.3-.26.36-.22.4.13.11q-.45-.015-.9-.06c-.49-.03-.98-.07-1.46-.1-2.44-.17-4.88-.33-7.32-.49-2.63-.18-2.62 3.91 0 4.09l5.85.42c1.73.12 4.04.69 5.64-.17 1.41-.76 1.86-2.46 2.67-3.72s1.86-2.42 3.14-3.21c2.15-1.34 5.21-1.68 7.27.05 1.73 1.46 1.92 4.27.2 5.78-1.06.93-.56 3.02.87 3.28 2.29.42 4.57.85 6.86 1.3 1.14.23 2.28.45 3.42.68s2.34.59 3.48.6c2.44.02 3.07-2.28 3.76-4.16.38-1.03.76-2.07 1.15-3.1.15-.42.26-.94.5-1.31-.06.09-.57.08-.09.09.33.01.65.04.98.06 3.19.22 6.78-.75 8.68-3.51 2.25-3.29.45-7.65-2.39-9.92-3.17-2.54-7.53-3.2-11.16-1.25 1.01.78 2.03 1.56 3.04 2.34.78-1.99 1.41-4.03 1.86-6.12.41-1.9 1.32-4.69-.72-5.96-.83-.51-1.96-.63-2.89-.83-1.1-.23-2.21-.44-3.32-.61-2.24-.34-4.5-.58-6.77-.7.33 1.24.67 2.47 1 3.71 2.45-1.12 3.36-4.3 2.47-6.73-1.03-2.83-3.95-4.34-6.77-4.79-3.02-.47-6.36-.07-8.66 2.13-2.14 2.04-2.75 5.18-1.49 7.83l2.12-2.76c-4.03-1.06-8.06-2.11-12.09-3.16-1.23-.32-2.25.59-2.34 1.78-.21 2.82-.89 5.62-2.05 8.21-.55 1.24.4 3.26 2.02 2.62 2.53-.99 5.1 1.38 3.99 3.99-1.19 2.8-4.77 2.79-6.71.84-.96-.97-2.74-.54-3.08.81-1.13 4.48-2.57 8.86-3.81 13.31-.41 1.47 1.9 2.55 2.54 1.07Zm-28.25-71.7c7.98-5.68 19.13-6.82 27.88-2.18 3.82 2.03 8.48 6.24 6.9 11.08-.72 2.21-2.63 3.96-4.46 5.28-2.24 1.61-4.7 3.07-7.39 3.74-1.52.38-6.13.99-5.7-1.72.37-2.33 3.69-3.63 5.52-4.54 5.08-2.52 10.8-4.19 16.48-4.5 4.87-.27 10.52.6 13.62 4.78 2.39 3.22 3.04 8.21-.59 10.81-.93.67-2.04 1.12-3.18 1.28-.7.1-2.84.22-3.32-.48.13.19.04.23.12.01.12-.33.29-.6.52-.86.39-.44.91-.75 1.41-1.04 1.14-.65 2.43-1.04 3.73-1.19 6.01-.69 11.13 3.34 14.71 7.73 1.21 1.48 3.85-.52 2.67-2.06-4-5.27-9.66-9.72-16.62-9.47-3.12.11-6.75 1.18-8.85 3.63-1.07 1.25-1.76 2.92-1.24 4.56s2.07 2.44 3.62 2.81c6.24 1.5 12.46-3.07 12.92-9.43.47-6.42-4.39-11.84-10.12-13.9-6.69-2.41-14.59-1.08-21.17 1.08-3.53 1.16-7.22 2.66-10.3 4.77-2.74 1.87-4.95 5.07-3.61 8.49 1.43 3.64 6.06 3.95 9.38 3.38 3.53-.6 6.89-2.49 9.73-4.6 2.65-1.96 5.1-4.4 6.06-7.65s.14-6.51-1.66-9.17c-3.63-5.38-10.19-8.28-16.45-9.16-6.34-.89-13.02.16-18.64 3.31-1.39.78-2.68 1.7-3.93 2.69-1.42 1.13.46 3.61 1.96 2.54Zm-5.16 107.68c-.65.66-1.06 1.61-1.57 2.38-.25.38-.52.74-.79 1.11-.14.18 0 .06.04-.05-.03.09-.15.19-.21.26-.14.18-.28.35-.43.52-.56.65-1.13 1.29-1.75 1.89s-1.33 1.16-1.97 1.76c-.59.55-.74 1.62-.3 2.3.07.11.21.29.3.38.55.57 1.63.77 2.3.3 1.66-1.15 3.06-2.74 4.28-4.34.53-.7 1.03-1.43 1.48-2.18.23-.39.46-.78.67-1.18.25-.47.59-1.07.67-1.58.11-.7-.07-1.48-.75-1.84-.63-.34-1.45-.28-1.97.25Zm11.58 4.74c-.11 1.94-.38 3.71-.82 5.63-.22.95-.48 1.88-.79 2.81s-.76 1.87-1.01 2.84c-.5 1.92 2.14 3.03 3.18 1.34.6-.97.95-2.15 1.3-3.23.3-.96.56-1.94.77-2.92.46-2.13.68-4.29.69-6.47 0-.9-.77-1.66-1.66-1.66-.94 0-1.61.76-1.66 1.66m12.99 1.69c-.07 1.87-.16 3.74-.17 5.61s-.14 3.89.21 5.8c.27 1.47 2.7 1.47 2.97 0 .35-1.9.23-3.87.21-5.8s-.1-3.74-.17-5.61c-.08-1.96-2.97-1.96-3.05 0m14.38 1.46c.26.43.48.88.68 1.35l-.17-.4a11 11 0 0 1 .73 2.57c.06.41.12.84.37 1.18.34.47.77.79 1.38.79.53 0 1.14-.3 1.38-.79.16-.32.28-.6.28-.97 0-.11-.01-.22-.02-.33a9 9 0 0 0-.15-1.03c-.09-.44-.2-.87-.34-1.29-.32-.96-.74-1.89-1.27-2.75-.45-.74-1.5-1.09-2.27-.59s-1.06 1.47-.59 2.27Zm14.5 1.39c2.22 0 2.23-3.45 0-3.45s-2.23 3.45 0 3.45M38.75 125c2.45-1.23 4.57-2.85 5.78-5.37 1.14-2.36 1.54-4.94 1.86-7.52.1-.82-.64-1.49-1.32-1.74-1.29-.48-2.64.56-2.67 1.88-.03 1.4 1.44 1.98 2.56 1.47.28-.12.12-.08-.48.14l-.91-.25.1.05-.89-1.56c-.06.55-.13 1.09-.2 1.64-.01.09-.04.27 0 .08-.02.12-.03.24-.05.37-.04.27-.09.55-.13.82-.19 1.07-.46 2.14-.87 3.15-.11.27.08-.18-.04.09-.05.11-.1.22-.15.32-.12.24-.25.47-.39.7-.3.5-.44.69-.85 1.11-.82.84-1.82 1.48-2.78 2.14-1.5 1.04-.21 3.28 1.44 2.46Zm3.08 10.11c4.53-2.14 7.03-6.58 9.34-10.81 1.34-2.45 2.36-4.97 2.99-7.69.33-1.4.57-2.82.87-4.22s.86-2.91 1.12-4.38c.3-1.71-1.98-2.92-2.94-1.24-1.27 2.21-1.53 5.15-2.02 7.62-.53 2.7-1.25 5.23-2.52 7.68-2.01 3.86-4.21 8.55-8.23 10.66-1.59.83-.19 3.14 1.4 2.39Zm22.04-28.61c-.77 6.22-2.38 12.42-4.96 18.14a58 58 0 0 1-4.51 8.2 56 56 0 0 1-2.64 3.69c-.51.65-1.05 1.3-1.59 1.93-.42.49-.94 1.3-1.57 1.54-2.14.8-1.21 4.27.95 3.45 1.73-.65 2.8-2.02 3.95-3.42 1.07-1.3 2.08-2.63 3.04-4.01 2.02-2.9 3.78-5.99 5.25-9.2 2.94-6.42 4.78-13.25 5.16-20.31.11-2.03-2.86-1.92-3.09 0Zm10.4 5.54c-1.23 6.61-3.64 13.06-7.19 18.77-1.2 1.94 1.85 3.71 3.05 1.78 3.84-6.19 6.21-12.94 7.1-20.16.21-1.68-2.65-2.07-2.96-.4Zm6.4 15.6c.05.38.04.76 0 1.14l.05-.41c-.06.45-.19.9-.37 1.32l.16-.38c-.15.35-.34.68-.58.98l.25-.32s-.05.06-.07.09c-.2.2-.33.43-.41.7l-.06.42c-.02.5.25.96.63 1.25.35.27.74.37 1.18.31.21 0 .41-.07.59-.19q.36-.21.57-.57c1.03-1.34 1.31-3.12.98-4.75-.07-.34-.38-.73-.69-.89s-.61-.22-.95-.18c-.31.04-.64.17-.86.41-.25.27-.48.67-.44 1.06ZM13.95 69.67c-1.66-3.99-1.98-8.85-1.78-13.13.21-4.43 1.31-8.83 2.87-12.97 2.97-7.85 8.19-16.27 16.53-19.15 2.16-.75 4.56-1.2 6.85-.9 1.55.2 4.31 1.27 4.01 3.32-.18 1.21.3 2.43 1.58 2.78 1.07.29 2.59-.36 2.78-1.58.44-2.84-.63-5.46-2.96-7.18-2.12-1.56-4.87-2.02-7.45-1.92-5.38.21-10.41 2.59-14.45 6.07-3.99 3.44-6.95 8-9.19 12.72-2.39 5.02-4.04 10.31-4.65 15.84-.32 2.93-.29 5.85.15 8.77.46 3.09 1.61 5.71 2.92 8.51.72 1.55 3.47.43 2.8-1.18Z"/><path d="M39.68 22.74c-3.5.08-6.97 1.08-9.97 2.89.56.73 1.48 1.06 2.36 1.31 2.87.8 5.89 1.06 8.86.77.51-.05 1.03-.12 1.46-.38.61-.36.98-1.07.93-1.77s-.52-1.36-1.17-1.62"/><path d="M39.68 21.3c-3.82-.05-7.54.91-10.87 2.8-1.09.61-1.05 1.92-.36 2.79 1.18 1.49 3.37 1.91 5.13 2.24 1.95.37 3.95.54 5.94.47 1.94-.08 4.17-.24 5.16-2.2s.02-4.36-2.07-5.15c-.81-.3-1.77.27-2.07 1.02-.32.8-.05 1.75.72 2.2.11.06.22.13.32.2a.14.14 0 0 1-.11-.09q.165.285.06.09v.09c.06-.28-.04.3.03-.04-.03.13-.09.12-.26.14-1.08.15-2.48.21-3.71.16-1.29-.05-2.56-.22-3.83-.5-.62-.14-1.25-.28-1.85-.5-.38-.14-.68-.32-.97-.65l-.36 2.79c2.73-1.7 5.86-2.76 9.07-2.98 1.83-.13 1.87-2.85 0-2.88Z"/></svg>