<?xml version="1.0" encoding="UTF-8"?><svg xmlns="http://www.w3.org/2000/svg" viewBox="0 0 180 180"><path d="M131.04 22.14c-4.46 7.38-11.14 13.05-18.75 17-6.7 3.48-14 5.57-21.32 7.31-3.11.74-6.25 1.42-9.37 2.11-5.27 1.17-10.79 2.29-15.35 5.34-4.55 3.04-7.86 7.65-10.84 12.16-1.58 2.39-3.04 5.23-2.9 8.17.12 2.38 1.16 4.6 3.03 6.09 3.33 2.66 8.3 2.95 12.2 1.48 2.57-.97 4.85-2.48 7.11-4 2.08-1.39 4.53-3.33 7.06-3.77 1.14-.2 1.9.65 2.68 1.36 1.12 1.02 2.2 2.07 3.26 3.14 1.87 1.9 3.99 3.95 5.21 6.36 2.58 5.11-3 9.32-6.68 11.73-4.15 2.71-9.91 6.56-14.42 2.39-1.92-1.78-3.39-4.07-4.51-6.42-.98-2.06-1.6-4.28-2.48-6.39-1.73-4.11-5.12-8.22-10.13-6.91-2.39.62-4.45 2.49-5.56 4.67-1.35 2.65-1.39 5.61-.92 8.49.45 2.72 1.32 5.4 2.2 8 .84 2.46 1.82 4.9 3.06 7.19 2.45 4.51 5.98 8.21 10.77 10.19 10.43 4.32 21.47.83 30.8-4.47 2.48-1.41 4.91-2.91 7.33-4.42l-2.27-3.88c-7.62 5.63-15.17 11.35-22.66 17.16-3.44 2.67-6.93 5.35-10.55 7.78-3.11 2.1-6.51 4.46-6.91 8.5-.36 3.71 1.94 6.67 5.26 8.02 3.04 1.23 6.46.93 9.49-.17 3.27-1.19 6.2-3.06 9.02-5.06 2.83-2.02 5.66-4.06 8.47-6.11 7.6-5.54 14.91-11.52 20.92-18.81l-3.46-2.67c-3.64 6.82-9.08 12.32-14.62 17.62-2.78 2.65-5.59 5.26-8.28 8-2.68 2.73-5.71 5.66-7.39 9.15-1.62 3.36-1.81 7.73 1.04 10.53s7.61 1.93 11.02.41c3.73-1.66 7.12-4.32 10.28-6.86 3.14-2.53 6.07-5.31 8.81-8.27 6.18-6.67 11.39-14.16 16.43-21.69-1.38-.58-2.75-1.16-4.13-1.74-1.43 7.28-5.3 13.48-9.5 19.48-2 2.85-4.06 5.66-5.86 8.64-1.88 3.11-3.81 7.01-2.77 10.74 1.04 3.74 4.89 5.76 8.61 5.37 4.15-.43 7.46-3.26 10.44-5.95 5.73-5.16 10.52-11.36 14.42-18 4-6.82 7.15-14.21 9.47-21.77 2.6-8.48 4.11-17.24 5.62-25.97.77-4.41 1.54-8.82 2.46-13.21.83-3.95 1.74-7.83 4.1-11.19 3.99-5.67 10.25-9.78 11.9-16.91 1.86-8.04-3.13-15.44-8.6-20.82-5.76-5.67-12.62-10.32-20.05-13.51-1.85-.79-3.74-1.45-5.61-2.17-1.99-.77-2.85 2.43-.88 3.19 3.47 1.34 6.84 3.3 9.99 5.26s6.14 4.22 9.02 6.61 5.58 4.88 7.82 7.78c2.02 2.62 3.86 5.8 4.11 9.16.51 6.65-5.01 11.28-8.99 15.81-2.51 2.85-4.46 5.89-5.68 9.51-1.28 3.81-1.91 7.89-2.64 11.84-2.92 15.83-5.05 31.8-11.93 46.53-3.02 6.45-6.72 12.64-11.34 18.09a66 66 0 0 1-7.6 7.65c-2.22 1.89-5.34 4.47-8.47 3.32s-1.69-4.94-.6-7.06c1.48-2.9 3.42-5.57 5.29-8.22 3.99-5.65 7.99-11.31 10.29-17.9.58-1.67 1.03-3.38 1.37-5.11.48-2.51-2.68-3.93-4.13-1.74-8.13 12.22-16.84 24.16-29.08 32.58-1.52 1.04-3.1 2.07-4.83 2.75-1.36.54-3.24 1.14-4.69.7-2.74-.82-1.71-4.75-.71-6.48 1.72-2.97 4.36-5.5 6.75-7.92 2.51-2.54 5.12-4.98 7.69-7.45 5.79-5.56 11.48-11.4 15.27-18.55 1.11-2.1-1.8-4.69-3.46-2.67-4.8 5.85-10.53 10.87-16.56 15.41-2.84 2.15-5.79 4.15-8.66 6.26-2.37 1.74-4.7 3.52-7.21 5.04-2.35 1.42-5.02 2.81-7.82 2.89-2.06.06-5.04-.7-5.34-3.12-.36-2.95 3.27-4.7 5.31-6.03 3.45-2.24 6.56-5 9.86-7.45 7.8-5.8 15.54-11.69 23.21-17.66 2.01-1.56-.6-4.92-2.72-3.53-8.61 5.67-18.38 11.98-29.2 10.44-4.73-.67-8.94-3.3-11.71-7.2-2.76-3.88-4.3-8.44-5.58-12.99-.73-2.59-1.62-5.57-.79-8.24.5-1.6 1.88-3.34 3.69-3.37 3.34-.04 4.65 5.44 5.61 7.95 1.79 4.67 5 10.11 9.77 12.24 5.34 2.39 10.86-.66 15.49-3.26s9.06-6.02 9.97-11.38c.98-5.78-3.51-10.01-7.1-13.91-1.73-1.88-3.66-4.37-6.1-5.34-2.7-1.07-5.65.27-8.02 1.57-3.97 2.17-7.78 6.07-12.49 6.44-3.27.26-7.27-1.1-6.5-5.02.51-2.61 2.42-4.9 3.93-7.01s3.1-4.18 5-5.98c3.76-3.56 8.64-4.99 13.57-6.12 3.48-.79 6.98-1.52 10.46-2.3 15.15-3.42 30.62-9.28 40.23-22.15 1.32-1.77 2.49-3.63 3.52-5.58s-1.81-3.62-2.95-1.73Z"/><path d="M111.17 77.71c-2.22 2.6-5.89 3.52-9.21 3.33-1.93-.11-3.76-.59-5.58-1.26s-3.77-1.69-5.76-2.11c-1.07-.23-2.27.96-1.54 2.01 2.73 3.94 8.55 6.01 13.21 5.85s8.6-2.28 11.13-6.09c.89-1.34-1.19-2.97-2.25-1.73m-3.14 15.51c5.4-.04 10.79-.69 16.03-1.96q3.84-.93 7.53-2.31c3.69-1.38 5.39-1.88 7.54-3.47 1.32-.97.62-3.45-1.2-2.86-2.4.78-4.65 2.13-7.01 3.04-2.45.94-4.96 1.76-7.5 2.43a66 66 0 0 1-15.39 2.17c-1.91.05-1.92 2.98 0 2.97Zm10.44 10.29c2.9-.19 5.78-.61 8.61-1.29s5.71-1.48 8.23-2.81c1.48-.78.47-3.3-1.16-2.74-2.59.89-5.06 1.94-7.73 2.62a46.6 46.6 0 0 1-7.95 1.29c-.79.06-1.47.63-1.47 1.47 0 .75.67 1.52 1.47 1.47Z"/><path d="M36.78 63.2c-3.67-6.58-7.04-13.32-10.11-20.21a109.7 109.7 0 0 1 20.6 9.38c.65-8.35 2.09-16.64 4.28-24.73 3.29 6.09 6.59 12.17 9.88 18.26l12.36-23.28c2.35 6.37 4.7 12.75 7.05 19.12a93.8 93.8 0 0 1 15.38-16.95c.08 4.94.57 9.86 1.46 14.72.17.91.5 1.98 1.39 2.21.41.1.83 0 1.24-.11l9.7-2.58c-.91 2.92-4.28 4.19-7.24 4.97-8.42 2.21-17.05 3.68-25.25 6.6-8.2 2.91-16.13 7.46-21.21 14.53-2.95 4.11-4.69 10.14-1.39 13.98-3.61 1.27-5.78 5.16-6.11 8.97s.83 7.58 2.1 11.19 2.69 7.23 4.99 10.29c6.07 8.06 17.53 10.7 27.33 8.35-1.98 3.29-5.18 5.83-8.84 7-1.04.33-2.12.56-3.1 1.03-1.3.62-2.37 1.63-3.41 2.64-4.98 4.82-9.77 9.84-14.36 15.03-.57-5.85.09-11.82 1.91-17.41-7.36 2.62-14.73 5.25-22.09 7.87.05-3.09 1.29-6.03 2.51-8.87 2.23-5.19 4.46-10.39 6.69-15.58-8.13.18-16.22 2.06-23.6 5.48 1.12-8.12 8.43-13.93 11.41-21.57a317 317 0 0 1-20.36-2.64c6.06-4.75 12.13-9.49 18.19-14.24a182 182 0 0 0-17.23-17.81c8.45.7 16.84 2.1 25.06 4.18"/><path d="M38.11 62.42c-3.51-6.49-6.78-13.12-9.61-19.93l-2.33 2.33c3.46 1.31 6.91 2.55 10.28 4.1 3.36 1.55 6.64 3.27 9.83 5.15 1.37.8 2.84-.25 2.96-1.7a135 135 0 0 1 4.23-24.2l-3.64.48 9.87 18.27c.7 1.3 2.77 1.31 3.47 0 4.13-7.76 8.25-15.51 12.38-23.27l-3.72-.49c2.35 6.38 4.69 12.75 7.04 19.13.63 1.72 2.7 1.97 3.75.49 4.34-6.1 9.42-11.62 15.09-16.51l-3.56-1.47c.05 2.78.17 5.57.47 8.34.28 2.59.41 5.55 1.31 8.02.41 1.11 1.15 2.12 2.31 2.52 1.36.47 2.71-.02 4.03-.38l8.31-2.22-2.62-2.62c-.62 1.78-2.77 2.58-4.42 3.1-2.7.85-5.5 1.43-8.26 2.07-5.7 1.32-11.43 2.58-16.99 4.44-9.47 3.17-19.49 8.47-24.75 17.35-2.78 4.7-3.82 10.72-.17 15.23l.96-3.65c-4.41 1.65-7.06 5.79-7.65 10.36-.68 5.25 1.26 10.58 3.15 15.4 1.76 4.5 4.1 8.78 7.9 11.89 3.3 2.7 7.23 4.55 11.39 5.47 4.84 1.07 9.86 1 14.67-.13l-2.45-3.19c-1.49 2.4-3.71 4.33-6.31 5.46-1.29.56-2.68.8-3.98 1.32-1.66.66-3.02 1.72-4.31 2.94-5.19 4.9-10.1 10.14-14.83 15.48l3.87 1.6c-.52-5.71.09-11.35 1.83-16.8.5-1.58-1.17-3.36-2.79-2.79-7.36 2.62-14.73 5.24-22.1 7.86l2.89 2.2c.14-3.99 2.23-7.78 3.78-11.38 1.7-3.97 3.41-7.95 5.11-11.92.64-1.49-.07-3.47-1.96-3.41-8.59.24-16.95 2.21-24.75 5.79l3.35 2.57c.61-4.03 2.72-7.43 5-10.73 2.4-3.49 4.84-6.88 6.42-10.84.6-1.51-.89-2.77-2.21-2.89-6.61-.64-13.2-1.49-19.76-2.55l1.01 3.81c6.06-4.75 12.1-9.52 18.15-14.28.99-.78.7-2.31 0-3.14-5.35-6.3-11.1-12.26-17.23-17.81l-1.57 3.78c8.26.7 16.43 2.08 24.47 4.1 2.77.7 3.95-3.58 1.18-4.28-8.42-2.12-17-3.53-25.65-4.25-1.9-.16-2.94 2.54-1.57 3.78A184.5 184.5 0 0 1 26.6 78.23v-3.14c-6.08 4.73-12.17 9.45-18.24 14.19-1.3 1.01-.6 3.55 1.01 3.81 6.96 1.13 13.95 2.05 20.97 2.73-.74-.96-1.47-1.93-2.21-2.89-3.06 7.62-10.14 13.14-11.4 21.57-.3 2.03 1.45 3.44 3.35 2.57 7.04-3.23 14.72-4.98 22.45-5.18-.65-1.14-1.31-2.28-1.96-3.41-1.84 4.27-3.68 8.55-5.53 12.82-1.77 4.11-3.85 8.21-4 12.77-.05 1.4 1.51 2.69 2.89 2.2 7.36-2.63 14.72-5.27 22.09-7.89l-2.79-2.79a45.6 45.6 0 0 0-2 18.01c.16 1.79 2.45 3.2 3.87 1.6 4.82-5.44 9.79-10.86 15.14-15.78 2.32-2.13 5.54-2.35 8.23-3.9 2.73-1.58 4.96-3.85 6.6-6.52 1.03-1.68-.67-3.6-2.45-3.19-6.81 1.58-14.35.7-20.27-3.17-3.16-2.07-5.41-4.98-7.07-8.35-1-2.02-1.76-4.14-2.5-6.26-.74-2.14-1.46-4.34-1.74-6.6-.47-3.7.48-8.69 4.42-10.21 1.6-.62 2.06-2.31.96-3.65-2.64-3.19-.51-8.13 1.5-11.05 2.65-3.86 6.42-6.93 10.4-9.31 9.26-5.55 20.01-7.52 30.37-9.99 4.91-1.17 11.42-2.15 13.33-7.61.55-1.57-1.14-3.01-2.62-2.62-2.16.57-4.31 1.15-6.47 1.72-.62.16-1.23.33-1.85.49-.26.07-1.19.15-1.39.37-.45.07-.36.19.28.38a.52.52 0 0 1-.14-.36c-.03-.43-.19-.9-.27-1.32-.78-4.43-1.22-8.94-1.3-13.45-.04-1.89-2.21-2.64-3.56-1.47-5.92 5.14-11.15 10.99-15.68 17.39l3.75.49c-2.36-6.37-4.72-12.75-7.07-19.12-.57-1.53-2.84-2.15-3.72-.49-4.11 7.77-8.22 15.53-12.34 23.3h3.47c-3.3-6.08-6.6-12.17-9.9-18.25-.82-1.51-3.2-1.15-3.64.48a138.5 138.5 0 0 0-4.33 25.25c.99-.57 1.97-1.13 2.96-1.7-6.61-3.84-13.75-7.33-21.09-9.51-1.7-.51-2.82 1.37-2.14 2.79 3.25 6.79 6.67 13.49 10.42 20.03.99 1.72 3.6.19 2.66-1.55Z"/><path d="M61.26 82.39c6.74.25 12.34-4.82 18.45-7.69 1.5-.71 3.2-1.3 4.8-.85 1.33.37 2.36 1.38 3.31 2.38 1.92 2.03 3.72 4.18 5.39 6.42.54.73 1.08 1.5 1.32 2.38.47 1.75-.35 3.59-1.32 5.12-3.4 5.35-9.05 9.23-15.27 10.48-1.25.25-2.54.4-3.79.14-1.81-.38-3.34-1.59-4.62-2.92-3.81-3.98-5.99-9.47-5.96-14.98"/><path d="M61.26 84c5.54.26 10.33-2.64 14.98-5.27 1.11-.63 2.24-1.25 3.39-1.81s2.63-1.39 3.94-1.18c1 .16 1.8 1.06 2.46 1.75a63 63 0 0 1 3.32 3.79c.87 1.06 1.77 2.14 2.52 3.29s.66 2.14.06 3.36c-1.09 2.24-2.89 4.19-4.76 5.8-1.8 1.55-3.94 2.85-6.17 3.69s-5.27 1.93-7.55.73c-2.54-1.35-4.42-4.18-5.66-6.69-1.33-2.67-1.98-5.62-1.99-8.59s-4.43-2.85-4.42 0c0 6.51 2.71 13.38 7.75 17.66 1.2 1.02 2.53 1.88 4.06 2.31 1.88.52 3.86.29 5.73-.12 3.02-.66 5.96-1.93 8.53-3.64s4.94-3.97 6.82-6.54c1.98-2.7 3.5-6.09 1.9-9.34-.77-1.57-2.02-2.95-3.11-4.3-1.17-1.45-2.4-2.85-3.7-4.19-2.51-2.6-5.48-3.74-9.02-2.41-6.49 2.45-11.77 8.46-19.08 8.5-2.08 0-2.06 3.12 0 3.22Zm53.41-41.5c7.94 4.02 15.47 9.04 22.23 14.83 1.73 1.49 3.47 3.02 4.85 4.84s2.41 3.69 3.44 5.63 2.12 4.04 3.09 6.1c1 2.13 1.68 4.4 2.72 6.5.4.82 1.51 1.08 2.29.75.91-.38 1.2-1.24 1.06-2.17-.35-2.38-1.53-4.73-2.51-6.91-1-2.22-2.12-4.38-3.27-6.52-1.05-1.95-2.15-3.88-3.49-5.64-1.51-1.99-3.28-3.68-5.16-5.31-7.12-6.13-14.96-11.19-23.45-15.21-2.06-.97-3.88 2.04-1.81 3.09Z"/><path d="M123.67 33.67c-.3 3.11-.73 6.19-1.29 9.26-.22 1.22 1.11 2.7 2.35 1.81 3.99-2.85 8.57-4.67 13.42-5.34l-2.16-1.64c-.04 4.71-.94 9.43-2.38 13.91-.48 1.49 1.31 2.78 2.61 2.01 4.21-2.49 8.99-3.96 13.82-4.66l-2.25-1.72c-.34 5.11-1.74 10.22-3.97 14.82-.72 1.48.46 3.01 2.07 2.7 4.9-.96 9.79-2 14.71-2.89l-2.38-1.81c.07 1.2-.79 2.88-1.37 4.14-.69 1.51-1.53 3.04-1.88 4.68-.51 2.43 3.15 3.48 3.75 1.03.8-3.26 3.59-6.36 3.26-9.86-.12-1.25-1.1-2.09-2.38-1.81-4.88 1.07-9.79 1.98-14.69 2.97l2.07 2.7c2.56-5.28 3.98-10.83 4.37-16.68.08-1.28-1.2-1.87-2.25-1.72-5.21.76-10.03 2.58-14.67 5.03l2.61 2.01c1.63-4.83 2.32-9.77 2.35-14.85 0-1.22-1.09-1.8-2.16-1.64-5.14.74-9.97 2.75-14.13 5.86l2.35 1.81c.54-3.35.94-6.72 1.19-10.11.14-1.93-2.8-1.89-2.98 0Zm10.09-2.63-.09-.1a1.1 1.1 0 0 0-.48-.31c-.18-.09-.37-.14-.57-.13l-.39.05c-.25.07-.47.2-.66.38l-.09.1-.25.33-.16.38c-.07.21-.08.43-.03.64 0 .15.04.28.11.41.04.14.11.25.21.36.07.12.17.22.29.29q.15.15.36.21c.19.1.4.15.62.14l.43-.06.38-.16.33-.25.25-.33.16-.38c.07-.21.08-.43.03-.64 0-.15-.04-.28-.11-.41-.06-.2-.18-.37-.33-.52Z"/><path d="M146.41 41.37c2.24 0 2.25-3.48 0-3.48s-2.25 3.48 0 3.48m13.43 8.6-.02-.16-.17-.41c-.11-.2-.26-.36-.44-.48a.8.8 0 0 0-.38-.22c-.21-.11-.43-.16-.67-.15l-.46.06-.41.17c-.2.11-.36.26-.48.44-.15.17-.26.36-.31.59l-.02.16q-.12.465 0 .93c.08.3.23.55.45.77l.35.27c.27.16.57.24.88.24.24 0 .47-.04.67-.15.22-.07.4-.19.56-.36.22-.22.37-.48.45-.77q.12-.465 0-.93m-63.14 54.1c.9.51 1.78 1.07 2.63 1.65.42.29.85.57 1.27.86.22.15.43.3.65.46.11.08.21.16.32.23.33.21.67.23 1.05.28.57.07 1.18-.37 1.45-.83.3-.52.31-1.18 0-1.7-.4-.67-1.11-.99-1.77-1.35q-.675-.375-1.35-.72c-.93-.46-1.87-.9-2.81-1.35-.35-.17-.71-.25-1.1-.14-.33.09-.69.35-.85.65-.36.67-.18 1.55.51 1.95Zm8.66 7.78c1.18.53 2.32 1.1 3.47 1.69s2.33 1.09 3.5 1.63l-.59-.59.05.1c.25.52.94.86 1.49.86.69 0 1.31-.43 1.58-1.06.24-.57.16-1.22-.22-1.71-.4-.52-1.16-.84-1.81-.62l-.11.04h.87c-1.19-.48-2.38-.99-3.59-1.42s-2.42-.87-3.61-1.36c-.61-.25-1.34.23-1.58.77s-.06 1.4.55 1.67m13.95 6.81c.92.59 1.85 1.18 2.77 1.78l1.36.87c.57.36 1.11.74 1.74 1l.45.06c.23 0 .45-.04.66-.15.33-.14.64-.37.81-.7.34-.65.3-1.54-.27-2.06-.47-.44-1.07-.75-1.62-1.08l-1.42-.88c-.93-.58-1.87-1.16-2.8-1.73-.75-.46-1.88-.19-2.3.6-.44.83-.19 1.79.6 2.3Z"/></svg>