<?xml version="1.0" encoding="UTF-8"?><svg xmlns="http://www.w3.org/2000/svg" viewBox="0 0 180 180"><path d="M89.04 170c.71-8.94 1.62-17.96 1.06-26.93-.52-8.38-2.42-16.49-5.9-24.15a62.3 62.3 0 0 0-13.77-19.33c-6.07-5.75-13.2-10.32-20.61-14.14-8.95-4.61-18.31-8.48-27.82-11.79-2.08-.72-3.72 1.82-2.74 3.57 1.71 3.07 2.7 6.33 3.71 9.67 1.04 3.42 1.83 6.9 2.54 10.4 1.31 6.46 2.94 12.74 5.94 18.64 1.37 2.69 2.99 5.23 4.75 7.69 1.79 2.5 3.7 5.08 5.87 7.27 4.62 4.66 10.01 8.5 15.76 11.66 3.65 2.01 7.49 3.48 11.42 4.86 3.44 1.2 6.87 2.71 9.53 5.26 1.41 1.35 3.36-.67 2.12-2.12-2.17-2.55-5.07-3.92-8.03-5.34-3.15-1.51-6.2-3.16-9.27-4.83-5.89-3.21-11.62-6.57-16.71-10.96-4.53-3.91-8.44-8.08-11.41-13.31-3.2-5.61-5.16-11.71-6.26-18.06-.68-3.97-1.02-7.99-1.72-11.96-.7-3.94-2.11-7.82-4.07-11.31-.91 1.19-1.83 2.38-2.74 3.57 8.17 2.83 16.19 6.11 23.96 9.91 7.13 3.49 14.15 7.44 20.23 12.59 11.86 10.05 19.3 24.47 21.08 39.88 1.12 9.72.58 19.52.02 29.26-.11 1.97 2.89 1.94 3.05 0Z"/><path d="M89.68 147.37c1.48-12.37 4.41-25.09 10.25-36.17 2.86-5.43 6.45-10.44 10.85-14.73 5.02-4.89 10.95-8.81 17.01-12.27 6.87-3.93 14.12-7.13 21.64-9.59l-2.87-2.19c.68 7.27.97 14.63.55 21.93-.38 6.55-1.69 12.95-5.03 18.66-3.09 5.27-7.36 9.84-11.97 13.81s-9.51 6.96-14.93 9.09a50.7 50.7 0 0 1-19.28 3.52c-2.83-.05-2.83 4.34 0 4.39 12.67.24 25.09-4.64 35.14-12.18 5.22-3.92 9.81-8.55 13.49-13.96 4.03-5.93 6.09-12.58 6.85-19.66.91-8.46.52-17.15-.29-25.6-.13-1.38-1.35-2.69-2.87-2.19-7.09 2.33-13.99 5.29-20.54 8.87-6.52 3.56-12.89 7.68-18.41 12.67-9.81 8.86-16.07 21.03-19.44 33.69-1.91 7.17-2.86 14.5-3.29 21.9-.12 2.06 2.91 1.96 3.14 0Z"/><path d="M119.34 103.44c-4.02.22-7.2 4.32-6.21 8.26.55 2.19 2.27 4.02 4.38 4.84s4.54.66 6.59-.3c2.58-1.21 4.59-3.88 4.45-6.73-.1-2.02-1.27-3.92-2.92-5.1-3.24-2.3-7.98-2.03-10.81.79-1.24 1.23-1.85 3.25-1.01 4.79"/><path d="M119.34 101.86c-2.28-.02-4.38.82-5.97 2.46s-2.5 3.87-2.44 6.12c.14 5.17 5.01 9 10.03 8.67 4.9-.32 9.81-4.22 9.64-9.48-.16-5.09-4.82-8.63-9.66-8.78-2.61-.08-5.17.86-7.15 2.55-2.01 1.73-3.12 5.14-1.52 7.49.49.73 1.37 1.1 2.21.73.77-.34 1.31-1.24 1.03-2.09-.13-.39-.21-.74-.21-.97s.02-.39.16-.77c.17-.45.57-.97 1.11-1.46.86-.77 2.41-1.34 3.5-1.42 2.75-.19 5.7 1.2 6.36 4.1.12.52.08 1.25-.04 1.71-.17.68-.43 1.22-.95 1.91-.26.34-.98 1.01-1.39 1.28-.7.46-1.4.75-2.22.94-1.57.37-3.23.1-4.5-.69-.48-.3-.99-.73-1.44-1.32-.38-.5-.64-1.19-.85-1.9-.13-.45-.07-1.31.07-1.84.2-.78.42-1.18.96-1.94.7-.98 2.16-1.97 3.69-2.21.77-.12 1.24-1.04 1.14-1.74-.12-.78-.75-1.37-1.56-1.38ZM23.05 78.64c5.78 11.93 12.59 23.22 22.02 32.66 4.43 4.43 9.13 8.6 13.9 12.65 4.86 4.12 9.92 8 14.74 12.16 2.58 2.22 5.23 4.37 7.74 6.67 2.34 2.14 4.41 4.51 4.98 7.73.32 1.8 3.04 1.29 3.08-.42.16-6.16-5.91-10.33-10.14-13.83-4.96-4.11-10.13-8-15.11-12.09-9.88-8.13-19.18-16.91-26.35-27.59-4.27-6.36-8.09-13.02-12.13-19.53-1.09-1.75-3.62-.22-2.74 1.6Z"/><path d="M32.53 114.67c.64.12 1.24.37 1.89.47s1.37.19 2.05.26c1.21.13 2.42.18 3.64.16 2.56-.03 5.15-.26 7.66-.77.83-.17 1.3-1.15 1.09-1.92-.24-.88-1.09-1.23-1.92-1.09-2.32.39-4.62.67-6.97.71-1.17.02-2.34 0-3.5-.04-.56-.02-1.12-.06-1.68-.1-.65-.05-1.3.03-1.95-.05-1.35-.16-1.66 2.12-.32 2.38Zm24.18-20.08c3.29 9.24 4.85 19.12 4.12 28.91-.16 2.07 3.09 2.07 3.23 0 .74-10.27-.88-20.46-5.11-29.86-.57-1.26-2.71-.36-2.24.95m-1.24 44.47c1.38.18 2.89-.16 4.21-.55 1.33-.4 2.61-.96 3.86-1.55 1.23-.58 2.45-1.19 3.63-1.85.65-.36 1.31-.72 1.91-1.16.57-.41 1.21-.68 1.73-1.17s.56-1.38.12-1.94c-.5-.62-1.21-.68-1.9-.38-.64.27-1.2.74-1.82 1.06-.55.28-1.06.62-1.6.92a44 44 0 0 1-3.42 1.7c-1.1.49-2.22.92-3.36 1.28-1.24.38-2.47.54-3.74.76-.71.12-1.15.95-1.05 1.61.12.78.69 1.18 1.44 1.27Zm34.69-6.09c-2.11-9.57-2.44-19.46-2.48-29.22-.04-9.02-.37-18.28 1.12-27.21.83-4.94 2.38-9.62 4.3-14.24.79-1.91-2.13-2.86-3.17-1.34-5.13 7.55-6 17.58-6.33 26.45-.36 9.78-.37 19.74.49 29.5.5 5.72 1.42 11.38 2.98 16.92.56 2 3.55 1.16 3.1-.86Zm4.2-31.71c1.93 0 1.93-3 0-3s-1.93 3 0 3m7.63-12.86c-.52-.41-1.05-.8-1.55-1.24l-.72-.65c-.33-.3-.66-.64-1.06-.85-.71-.39-1.59-.23-2.09.42s-.43 1.53.13 2.12c.3.32.7.54 1.07.79l.84.55c.55.36 1.07.78 1.59 1.18.27.21.82.25 1.13.15s.56-.27.76-.53.33-.57.32-.89c-.02-.36-.13-.81-.43-1.04Zm11.67-9.38-.73-1.69.15.36c-.23-.55-.46-1.09-.69-1.64l-.33-.8a6.2 6.2 0 0 0-.56-1.09c-.42-.64-1.19-.93-1.91-.63s-1.1 1.07-.89 1.81c.28.96.78 1.85 1.23 2.74.4.81.79 1.62 1.18 2.43.34.7 1.39.94 2.02.53.32-.2.59-.51.68-.88.09-.41.02-.75-.15-1.14m15.09-9.32-.36-2c-.05-.2-.14-.38-.28-.53-.11-.17-.26-.3-.44-.4a1.2 1.2 0 0 0-.58-.19 1.1 1.1 0 0 0-.62.03c-.38.12-.74.36-.93.72s-.27.79-.16 1.2l.51 1.96c.09.36.36.7.68.89.17.11.35.17.55.18.2.04.39.04.59-.03.36-.12.71-.34.89-.68l.15-.35c.07-.26.07-.53 0-.79Zm13.24-5.59-.2.24q-.195.18-.27.42c-.08.15-.12.32-.11.5 0 .18.03.35.11.5q.075.24.27.42l.26.2c.2.12.42.18.65.18l.34-.05q.33-.09.57-.33l.24-.2q.195-.18.27-.42c.08-.16.12-.33.11-.51 0-.18-.03-.35-.11-.51a.9.9 0 0 0-.27-.42l-.27-.21a1.3 1.3 0 0 0-.67-.18l-.35.05c-.22.06-.42.18-.58.34ZM95.92 141.9c20.51 7.67 44.68 4.7 62.72-7.7a38.6 38.6 0 0 0-19.68-7.95c-.51-.05-1.03-.1-1.53.02-.77.18-1.4.71-2.01 1.21a68.9 68.9 0 0 1-28.99 14.14"/><path d="M95.2 143.12c3.59 2.34 8.19 3.37 12.36 4.16 4.34.82 8.8 1.15 13.21 1.1 8.77-.11 17.6-1.86 25.73-5.13 4.68-1.88 9.14-4.21 13.3-7.04 1.09-.74 1.73-2.65.47-3.63-6.13-4.76-13.85-8.29-21.7-8.69-2.21-.11-3.67 1.04-5.29 2.37-1.5 1.24-3.06 2.4-4.68 3.49-3.25 2.2-6.69 4.14-10.27 5.74-4 1.78-8.2 3.15-12.45 4.16-2.58.61-1.48 4.5 1.09 3.96 7.31-1.54 14.35-4.3 20.81-8.05 3.27-1.9 6.29-4.11 9.27-6.43.63-.49.92-.62 1.7-.55.9.08 1.81.23 2.7.4 1.8.34 3.57.8 5.3 1.39 3.88 1.32 7.47 3.34 10.71 5.84v-3.99c-13.7 9.37-30.81 13.26-47.24 11.05-2.3-.31-4.57-.73-6.85-1.21s-4.71-1.19-7.09-1.51c-1.52-.2-2.53 1.65-1.09 2.58Zm-5.25-77.69c-1.63-8.86-8.62-15.55-13.93-22.82a68.4 68.4 0 0 1-9.26-17.54c-.7-1.99-1.27-4.34-.08-6.08 1.65-2.42 5.63-1.81 7.67.31s2.77 5.11 3.91 7.81c.84 2.01 1.93 3.92 3.24 5.66a51.6 51.6 0 0 1-1.91-15.33c.04-1.66.19-3.38 1-4.84.81-1.45 2.45-2.57 4.09-2.26 2.44.45 3.35 3.43 3.69 5.88.61 4.43.96 8.91 1.03 13.38 1.56-3.45 1.67-7.37 2.6-11.04s3.12-7.49 6.8-8.42c.89-.23 1.93-.23 2.63.37.44.37.68.92.86 1.46 2.04 5.88-.4 12.27-2.81 18.01 2.19-2.91 3.47-6.4 5.38-9.49 1.92-3.1 4.8-5.96 8.43-6.33 1.53-.16 3.32.32 3.98 1.71.39.83.3 1.8.16 2.71a32.9 32.9 0 0 1-6.9 15.59c4.28-4.32 8.75-8.71 14.33-11.11 1.03-.44 2.22-.81 3.24-.34 1.4.65 1.71 2.55 1.33 4.05-.5 1.94-1.79 3.57-3.14 5.05a47.7 47.7 0 0 1-8.98 7.66c3.96-2.29 8.05-4.36 12.24-6.2 1.12-.49 2.29-.97 3.51-.94s2.51.72 2.85 1.9c.47 1.62-.96 3.13-2.28 4.17a76.3 76.3 0 0 1-12.32 7.94c4.42-1.09 8.95-1.74 13.49-1.95.72-.03 1.49-.05 2.12.31 1.12.62 1.38 2.21.88 3.39s-1.55 2.02-2.61 2.73c-13.25 8.97-31.74 5.77-45.62 13.71"/><path d="M91.46 65.01c-1.65-9.7-8.86-16.63-14.29-24.35-2.99-4.24-5.53-8.84-7.44-13.67-.45-1.13-.89-2.27-1.24-3.44-.28-.94-.67-2.22-.2-3.17.66-1.33 2.56-.91 3.61-.35 2.09 1.12 2.92 3.86 3.72 5.93 1.07 2.79 2.36 5.4 4.15 7.81 1.26 1.69 4.29.8 3.62-1.53a48 48 0 0 1-1.81-11.28c-.09-2.15-.81-7.94 2.22-8.64 2.21-.51 2.58 4.05 2.74 5.33.5 3.97.77 7.96.84 11.96.03 1.82 2.89 2.93 3.73 1.01 1.49-3.43 1.8-7.05 2.6-10.66.61-2.74 1.75-5.87 4.31-7.35.47-.27 1.24-.67 1.79-.59.49.08.51.42.66.92.53 1.72.63 3.48.48 5.27-.32 3.72-1.78 7.36-3.26 10.75-1.06 2.44 1.94 4.19 3.54 2.07 2.29-3.02 3.56-6.63 5.61-9.8 1.5-2.31 3.94-4.96 6.92-5 1.34-.01 1.77.47 1.62 1.79-.2 1.79-.72 3.6-1.28 5.31a30.7 30.7 0 0 1-5.07 9.36c-1.64 2.05 1.01 4.92 2.96 2.96 2.4-2.42 4.81-4.85 7.5-6.94 1.25-.97 2.57-1.85 3.95-2.62.63-.35 3.18-2.03 3.86-1.39.55.51-.03 2.03-.25 2.5-.66 1.45-1.78 2.64-2.86 3.78-2.4 2.53-5.06 4.77-7.96 6.7-2.23 1.48-.25 4.97 2.11 3.62 2.74-1.57 5.52-3.06 8.37-4.42.91-.44 6.35-3.61 7.11-2.12.36.7-1.48 1.97-1.89 2.3-1.18.93-2.4 1.8-3.64 2.64a76 76 0 0 1-8.08 4.8c-2.21 1.15-.65 4.46 1.65 3.91 2.56-.61 5.15-1.1 7.76-1.41 1.17-.14 2.34-.24 3.52-.32.38-.03 2.46-.41 2.71-.04.69 1.02-2.52 2.79-3.07 3.12a32 32 0 0 1-5.31 2.57c-8.12 3.03-16.88 3.55-25.3 5.33-4.78 1.01-9.47 2.55-13.65 5.1-2.28 1.39-.27 4.8 2.09 3.58 8.65-4.5 18.58-5.25 28-7.07 4.71-.91 9.37-2.15 13.71-4.25 2.15-1.04 4.58-2.31 6.21-4.1 1.76-1.94 2.43-4.97.62-7.13-1.98-2.35-5.67-1.55-8.34-1.26-3.39.37-6.75.96-10.07 1.77l1.65 3.91c3.53-1.84 6.92-3.93 10.12-6.29 2.76-2.03 7.28-5.18 5.03-9.19-.86-1.53-2.61-2.38-4.32-2.48-2.06-.11-3.99.88-5.82 1.7-3.81 1.72-7.53 3.64-11.16 5.72.7 1.21 1.41 2.41 2.11 3.62 3.64-2.42 7.07-5.28 9.94-8.59 2.38-2.75 5.1-7.48 2.08-10.82-3.15-3.49-8.6.13-11.54 2.17-3.6 2.49-6.73 5.55-9.8 8.65l2.96 2.96c2.26-2.83 4.07-5.88 5.42-9.23.66-1.63 1.19-3.3 1.58-5.01.39-1.7.86-3.61.5-5.35-.75-3.65-4.94-4.52-8.06-3.67s-5.76 3.29-7.66 5.95c-2.38 3.33-3.71 7.28-6.09 10.62 1.25.53 2.5 1.05 3.75 1.58 1.73-4.3 3.49-8.71 3.6-13.42.05-2.22-.23-4.8-1.29-6.79-1.04-1.93-3.08-2.59-5.17-2.18-3.94.78-6.51 4.3-7.88 7.83-1.57 4.06-1.32 8.62-3.05 12.62 1.24.34 2.48.67 3.73 1.01-.09-4.84-.36-9.77-1.21-14.54-.62-3.53-2.91-7.45-7.09-6.66-4.85.92-5.52 6.42-5.51 10.44 0 4.89.73 9.74 2 14.45 1.21-.51 2.42-1.02 3.62-1.53-1.68-2.32-2.86-4.79-3.85-7.46-.92-2.48-1.94-5.14-4-6.91-3.9-3.36-10.84-2.54-11.43 3.37-.28 2.81 1.02 5.64 2.07 8.17 1.14 2.76 2.43 5.45 3.91 8.05 2.81 4.94 6.35 9.29 9.9 13.7 3.68 4.57 7.38 9.3 8.66 15.16.43 1.99 3.34 1.12 3.01-.83Z"/></svg>