<?xml version="1.0" encoding="UTF-8"?><svg xmlns="http://www.w3.org/2000/svg" viewBox="0 0 180 180"><path d="M67.5 147.84c-4.06-8.56-9.89-16.05-14.38-24.37-2.36-4.37-5.09-9.21-5.03-14.32.03-2.57.68-5.1 1.52-7.52s2.15-4.68 2.78-7.14c.72-2.8-.13-5.22-1.09-7.84s-1.95-5.32-2.93-7.97-1.95-5.32-2.93-7.97c-.89-2.42-1.63-4.44-3.72-6.06-.55-.43-.68-.54-.39-1.24.36-.84 1.08-1.52 1.78-2.07 1.67-1.31 3.64-2.26 5.68-2.83s4.31-.78 6.48-.52c.35.04.88.29 1.21.25.43-.05.48-1.23-.05-1.03-.99.36-1.66 1.93-1.74 2.86-.18 2.36 1.63 4.9 2.75 6.89 1.21 2.15 2.53 4.24 3.96 6.25 1.45 2.05 3 4.03 4.65 5.92s3.11 3.73 5.64 4.12c2.33.35 4.69.02 7.01.51 2.17.46 4.18 1.39 5.84 2.87 1.88 1.67 3.19 4.04 4.59 6.1 1.46 2.15 2.89 4.32 4.3 6.51 5.04 7.87 9.67 15.98 14.38 24.05 2.28 3.91 4.6 7.81 7 11.65 1.25 2 2.54 3.97 3.84 5.94 1.23 1.87 2.66 3.92 2.94 6.2.52 4.27-3.79 7.26-6.88 9.31-4.06 2.68-8.4 4.97-12.94 6.71a71 71 0 0 1-14.24 3.82c-2.36.38-4.76.65-7.15.73-1 .04-2.11.1-2.96-.53-.79-.58-1.32-1.55-1.81-2.37a32.2 32.2 0 0 1-3.03-6.65c-.83-2.53-4.7-1.5-4.01 1.1s1.73 5.22 3.06 7.62c1.28 2.32 2.86 4.54 5.58 5.21 2.53.62 5.39.18 7.94-.11s5.29-.73 7.9-1.32c5.21-1.18 10.28-2.97 15.11-5.25s9.3-4.81 13.13-8.23c3.82-3.41 5.99-8.24 4.07-13.27-.97-2.54-2.52-4.74-3.99-7q-2.025-3.09-3.96-6.24c-5.13-8.31-9.86-16.85-14.9-25.21-2.72-4.51-5.53-8.98-8.47-13.36-1.63-2.44-3.22-5-5.09-7.26-1.57-1.9-3.78-3.4-6.03-4.34-2.43-1.02-5.07-1.39-7.7-1.47-.99-.03-2.3.23-3.24-.17s-1.8-1.69-2.49-2.48a67.6 67.6 0 0 1-8.92-12.95c-.48-.9-1.2-1.95-1.44-2.94.12.49-.25.38.24.07.17-.1.32-.25.46-.39a3.6 3.6 0 0 0 1.01-1.85c.58-2.76-2.25-4.27-4.53-4.59-4.96-.71-10.17.36-14.39 3.11-2.05 1.33-3.92 2.97-4.79 5.31-.38 1.02-.49 2.18-.2 3.24.42 1.51 1.49 2.19 2.59 3.14.67.58.94 1.42 1.24 2.23.55 1.49 1.09 2.97 1.64 4.46 1.03 2.81 2.07 5.63 3.1 8.44.52 1.41 1.03 2.81 1.55 4.22.48 1.3 1.25 2.77 1.23 4.18-.02 1.08-.48 2.13-.92 3.1-.65 1.45-1.29 2.9-1.85 4.39-2.04 5.37-2.71 10.98-.79 16.49 3.44 9.85 10.14 17.96 15.74 26.6 1.47 2.27 2.86 4.58 4.16 6.96 1.06 1.95 3.87.24 2.94-1.72Z"/><path d="M43.1 58.4c-.3-.85-.76-1.59-1.03-2.36s-.47-1.54-.58-2.34c.04.27-.02-.26-.03-.31-.02-.2-.03-.4-.04-.6-.02-.43 0-.87.02-1.3 0-.08.05-.58.04-.44-.01.1.07-.44.09-.53.04-.19.11-.39.13-.59l.04-.15c-.09.25-.24.46-.47.62.15-.07.18-.08.08-.04-.11.05-.07.03.14-.05.19-.07.39-.14.58-.21.39-.13.78-.25 1.18-.34.23-.06.47-.1.7-.15.1-.02.2-.04.3-.05q-.24.03-.03 0a12.7 12.7 0 0 1 2.56-.03c.01 0 .65.09.28.03.2.03.41.07.61.11.4.08.8.18 1.19.31.23.07.46.15.68.23.1.04.19.07.29.11-.17-.07-.14-.06.08.04l-.73-.73s.22.49.16.34c-.05-.12.07.22.08.26.1.3.17.61.24.92.13.64 0-.17.03.2.02.18.03.35.03.53v.42c0 .05-.03.56-.02.37q.045-.225-.03.21c-.02.12-.03.23-.04.35-.01.14-.03.27-.03.41-.01.37.02.74.09 1.1.17.8.66 1.52 1.4 1.91.83.43 1.85.28 2.42-.48.54-.72.55-1.81-.15-2.46.09.08.14.25.19.37-.09-.2.08-.18 0 .07.02-.06.01-.18.01-.24-.01-.29-.09.31 0 .04.17-.56.19-1.24.2-1.83 0-1.26-.24-2.52-.73-3.68-.32-.76-.67-1.37-1.47-1.71-.57-.25-1.14-.48-1.74-.66-1.12-.34-2.3-.52-3.46-.59-2.27-.13-4.57.32-6.63 1.25-.6.27-1.14.62-1.49 1.2-.37.61-.44 1.3-.53 1.99-.12 1-.13 2-.02 3 .14 1.23.39 2.44.84 3.6s1.02 2.53 1.98 3.4c1.06.96 3.09.04 2.56-1.49Zm35.18 108.28c-.41-.05-.81-.19-1.21-.3l1.2 2.12c.64-3.37 2.86-6.19 5.23-8.59 2.26-2.29 4.86-4.18 7.67-5.74 5.76-3.21 12.4-5.04 18.96-5.53 1.96-.15 3.98-.19 5.92.14.94.16 1.88.4 2.77.73.48.18.94.41 1.39.65.13.07.37.26.51.28.42.07-.04.32.15-.13-.65 1.59 1.75 2.84 2.83 1.65 1.68-1.85.35-4.12-1.5-5.21-1.86-1.1-4.06-1.66-6.18-1.94-4.24-.56-8.62.02-12.79.87-7.77 1.59-15.39 4.9-21.23 10.37-1.62 1.51-3.07 3.2-4.34 5.01-1.42 2.01-2.85 4.44-2.78 6.99.03 1.21 1.07 1.85 2.18 1.66.42-.07.78-.12 1.21-.11 1.91 0 1.82-2.71 0-2.91Zm-27.05-46.11c2.62-3.67 6.04-6.84 9.6-9.58 3.37-2.59 6.89-5.24 10.66-7.22 1.75-.92 3.69-1.72 5.69-1.77.78-.02 1.35-.04 1.84.59.88 1.12 1.59 2.43 2.37 3.62 2.9 4.43 5.83 8.84 8.71 13.28 3.24 4.98 6.36 10.02 9.27 15.2l1.2-2.95c-7.81 1.45-15.08 4.96-21.29 9.88a47.5 47.5 0 0 0-8.07 8.15c-1.21 1.56-2.68 3.28-3.29 5.18-.71 2.21.27 4.47 2.48 5.23 1.07.37 2.28-.42 2.57-1.46.32-1.18-.4-2.16-1.46-2.57.69.27.17.31.44.11.2-.15.46-.87.61-1.1q.63-.96 1.32-1.89c.91-1.25 1.89-2.44 2.93-3.58 2.16-2.37 4.56-4.53 7.17-6.39a47.1 47.1 0 0 1 17.65-7.7c1.28-.27 1.83-1.89 1.2-2.95-5.89-9.93-11.93-19.78-18.38-29.36-1.45-2.16-2.66-4.81-5.48-5.28-2.32-.39-4.75.15-6.9 1.02-4.38 1.77-8.29 4.71-12.03 7.56-4.56 3.48-8.67 7.36-11.46 12.44-.96 1.75 1.51 3.11 2.63 1.54Z"/><path d="M54.74 112.92c-1.34-4.78-.53-10.13 2.19-14.28.67-1.02 1.46-2.01 1.76-3.2.36-1.47-.09-3-.55-4.44-.75-2.4-1.5-4.8-2.26-7.2-2.2-7.02-5.12-14.85-11.89-17.7-1.35-.57-2.99-1.09-3.44-2.49-.5-1.58.93-3.11 2.34-3.98 3.64-2.24 8.17-2.98 12.33-2.03-.26 8.4 5.49 15.65 10.93 22.06 1.74 2.06 3.53 4.15 5.85 5.53s5.3 1.94 7.72.75c-3.38-.87-6.76-1.74-10.14-2.62 7.15-1.88 14.79 1.99 19.65 7.57s7.59 12.63 10.6 19.39c5.3 11.89 15.12 25.23 22.58 35.9-4.25 1.24-12.16-1.25-16.59-.99-11.99.7-23.44 7.72-29.49 18.1-2.51-2.39-5.26-5.53-4.35-8.88.36-1.34 1.27-2.45 2.2-3.48 7.26-8.03 17.37-13.43 28.08-15.01.76-.11 1.75-.45 1.71-1.22-.01-.23-.12-.44-.23-.65-6.84-12.61-13.92-25.54-24.9-34.77-.65-.55-1.36-1.1-2.2-1.26-.99-.18-1.98.23-2.89.66a53 53 0 0 0-17.37 13.09"/><path d="M56.14 112.53c-.54-2.39-.61-4.97-.11-7.37s1.62-4.6 3.02-6.72c1.52-2.32 1.66-4.6.89-7.23s-1.67-5.35-2.51-8.02c-1.26-4.02-2.68-8.13-4.93-11.72-1.1-1.75-2.42-3.42-4-4.75-1.64-1.37-3.44-2.07-5.27-3.08-.99-.54-.82-1.03 0-1.75.94-.84 2.21-1.41 3.39-1.82 2.61-.91 5.39-1.12 8.09-.54l-1.48-1.94c-.14 7.72 4.12 14.35 8.76 20.15 4.51 5.64 10.59 13.45 18.77 9.93 1.67-.72 1.04-3.24-.48-3.68-3.35-.97-6.72-1.89-10.1-2.78v4.22c4.93-1.2 9.99.64 13.92 3.62 4.36 3.31 7.25 8.12 9.63 12.96 2.4 4.89 4.34 9.99 6.9 14.8 2.72 5.11 5.83 10 9.05 14.8 3.55 5.28 7.29 10.41 10.98 15.59l1.22-3.01c-2.98.83-6.35-.02-9.32-.5-3.5-.57-6.76-.81-10.28-.3-7.31 1.07-14.2 4.41-19.79 9.2a37.7 37.7 0 0 0-8 9.6c1.13-.15 2.25-.29 3.38-.44-1.37-1.3-2.9-2.74-3.61-4.55s.08-3.26 1.3-4.63a44 44 0 0 1 8.84-7.59c3.21-2.09 6.65-3.8 10.28-5.02 1.9-.64 3.84-1.16 5.8-1.55 1.74-.35 3.92-.32 5.07-1.9 1.43-1.96-.16-4.03-1.12-5.8-1.01-1.86-2.02-3.73-3.07-5.57-2.01-3.57-4.11-7.09-6.38-10.5s-4.82-6.84-7.57-9.99c-1.33-1.53-2.73-3-4.19-4.4s-2.98-3.04-4.77-3.91c-2.41-1.17-4.71-.11-6.92.99a54 54 0 0 0-6 3.5 55.8 55.8 0 0 0-10.68 9.38c-1.85 2.11 1.23 5.21 3.09 3.09 2.89-3.29 6.16-6.24 9.79-8.7 1.86-1.26 3.8-2.4 5.81-3.41.69-.35 1.88-1.17 2.69-1.05.74.12 1.51 1.02 2.04 1.48 6.63 5.83 11.79 13.04 16.32 20.58 1.31 2.18 2.57 4.4 3.81 6.62.59 1.05 1.17 2.1 1.75 3.15.31.56.61 1.11.91 1.67.13.25.27.49.4.74l.2.37c.23.43.27.5.11.19l.3-1.1c.15-.3.43-.14-.08-.1-.36.03-.73.12-1.09.18-.86.14-1.71.31-2.56.5-1.63.37-3.24.82-4.82 1.36-3.21 1.1-6.32 2.5-9.25 4.21a50 50 0 0 0-8.34 6.13c-2.41 2.18-5.53 4.9-6.11 8.26-.73 4.18 2.21 7.67 5 10.39 1 .97 2.66.76 3.38-.44 3.53-5.9 8.71-10.58 14.87-13.61 3.08-1.52 6.41-2.54 9.79-3.1 3.17-.52 6.15-.22 9.31.19 3.51.45 7.3 1.22 10.79.3 1.21-.32 1.98-1.92 1.22-3.01-6.79-9.86-13.94-19.59-19.6-30.16s-8.4-22.21-17.96-29.49c-5-3.81-11.4-5.85-17.62-4.27-2.08.53-2.09 3.69 0 4.22 3.39.86 6.78 1.68 10.19 2.45l-.48-3.68c-2.79 1.3-5.99-.63-7.97-2.5-2.37-2.23-4.44-4.89-6.44-7.45-3.76-4.8-7.19-10.36-7.07-16.66.02-.84-.63-1.76-1.48-1.94-2.8-.6-5.65-.62-8.45.02-2.49.57-5.25 1.67-7.1 3.5-1.94 1.92-2.48 4.88-.35 6.89 1.69 1.6 4.28 1.92 6.15 3.31 3.53 2.62 5.53 6.94 6.98 10.97.89 2.47 1.64 4.99 2.43 7.49.42 1.34.86 2.69 1.26 4.04.44 1.48.74 2.82-.05 4.23-.74 1.32-1.68 2.5-2.32 3.89s-1.13 2.83-1.42 4.32c-.59 3.03-.46 6.05.45 9 .55 1.78 3.2 1.05 2.79-.77Z"/><path d="M69.93 116.58c-2.82.8-5.44 1.4-7.78 3.26-2.06 1.63-4.17 3.9-4.7 6.57s.34 5.6 2.43 7.33 4.87 2.4 7.51 1.89l-2.58-1.46c.55 2.88 2.96 7.14 6.44 5.49 2.85-1.34 5.53-3.32 8.03-5.23.81-.62 1.45-1.83.74-2.81-1.09-1.5-2.16-3.01-3.28-4.49l-.32 2.46c1.9-2.31 3.86-5.07 3.73-8.21-.12-2.75-1.83-5.51-4.63-6.14-2.44-.55-3.48 3.21-1.03 3.75 1.3.29 1.89 1.68 1.8 2.93-.14 1.89-1.52 3.46-2.73 4.8-.57.63-.84 1.7-.32 2.46 1.05 1.52 2.15 3.01 3.23 4.51l.74-2.81c-1.83 1.39-3.73 2.7-5.7 3.89l-1.32.78c-.31.18-1 .34-.3.43s.23.02.11-.26c-.41-.94-.92-1.62-1.14-2.66-.23-1.09-1.54-1.77-2.58-1.46-1.39.41-2.76.11-3.63-1.11-.83-1.15-1.02-2.67-.46-3.96.67-1.57 2.19-3.14 3.51-4.17 1.51-1.18 3.33-1.93 5.15-2.47 2.11-.62 1.22-3.9-.91-3.3Z"/><path d="M66.29 129.5c1.96 0 1.96-3.05 0-3.05s-1.96 3.05 0 3.05m4.07-2.86c1.95 0 1.95-3.03 0-3.03s-1.95 3.03 0 3.03m6.41 3.65c2.84-.35 5.61-1.22 8.49-1.26.86-.01 1.55-.58 1.81-1.38.29-.89.45-1.38 1.04-2.22l-3.59-1.51c-.48 1.82-1.36 4.14.57 5.43.65.43 1.46.62 2.2.86l1.2.39c.7.23 1.23.2 1.91-.11l-1.43.19.06.02-1.24-2.19v.04c.39-.41.8-.81 1.21-1.22h-.05q1.05.615 2.1 1.2v-.03c-.46-1.28-1.82-1.56-2.83-.74l-.03.02c-.58.46-.62 1.47-.27 2.07.33.56.92.91 1.58.91.84 0 1.43-.56 1.71-1.3.41-1.09-.37-2.12-1.34-2.49-.63-.24-1.27-.43-1.91-.64-.26-.09-.62-.29-.89-.3.5.12.73.55.67 1.29.03-.15.07-.29.1-.44.16-.64.32-1.28.46-1.92.49-2.18-2.36-3.4-3.59-1.51-.73 1.12-1.2 2.37-1.33 3.7l1.38-1.81c-2.76.44-5.78.56-8.45 1.59-.79.31-1.35.98-1.22 1.87.11.75.82 1.58 1.67 1.48Zm-.37-12.69c.27-.36.42-.89.56-1.31.12-.36.25-.72.39-1.07.02-.05.11-.2.1-.25.02.07-.14.32-.03.07.07-.16.14-.33.22-.49.17-.36.34-.72.53-1.07l-.69.69c.06-.05.12-.09.18-.13.61-.41 1.01-1.01 1.01-1.76 0-.68-.38-1.45-1.01-1.76-.24-.12-.51-.28-.77-.31q.51.225.21.09c-.06-.03-.12-.06-.18-.1a1 1 0 0 1-.17-.11c-.17-.12-.11-.08.18.14-.08-.1-.2-.19-.29-.29-.36-.39.18.32 0 .02-.07-.12-.14-.23-.21-.35q-.135-.285.09.21c-.02-.06-.04-.13-.06-.19-.04-.13-.06-.26-.08-.4l.07.54c0-.07-.01-.14-.02-.2l-3.48 1.44c1.12.97 2.41 1.92 3.9 2.16 1.13.19 2.22.12 3.12-.7.11-.1.21-.22.32-.33l.16-.16q.225-.195-.12.09c.12-.04.26-.18.37-.26.34-.23.56-.45.79-.78.65-.94-.02-2.28-1.04-2.56s-2.02.25-2.77.9c-.09.08-.17.15-.25.23-.15.14-.11.11.12-.08l.26-.1c-.2.05-.14.04.19-.02-.07 0-.15 0-.22-.01l.28.04c-.08-.01-.15-.03-.23-.04l-.34-.09c-.07-.02-.15-.05-.22-.08.27.12.34.15.2.09-.23-.11-.45-.23-.67-.37-.12-.08-.23-.16-.34-.24a5 5 0 0 0 .17.13c-.06-.05-.12-.1-.19-.15-.21-.18-.42-.36-.62-.56-.6-.57-1.46-.74-2.23-.42s-1.27 1.05-1.25 1.86c.03 1.21.48 2.26 1.23 3.2.7.85 1.93 1.54 3.04 1.55l-2.04-2.04v.24l.26-.97c-.38.86-.73 1.73-1 2.64-.28.97-.6 2.03-.39 3.03.13.62.75 1.07 1.33 1.15.68.09 1.2-.23 1.6-.76Zm-17.59 8c-.06 0-.12 0-.18-.01l.79.21c-.28-.13-.55-.29-.85-.38-.19-.06-.39-.09-.59-.13-.54-.1-1.1-.14-1.65-.21-.41-.05-.82-.12-1.23-.14-.36-.02-.74-.04-1.09.06-.86.25-1.51.87-1.63 1.77-.11.83.3 1.72 1.09 2.08.43.2.71.29 1.19.31h.31c.41 0 .82-.03 1.23-.06s.82-.05 1.23-.08c.34-.03.68-.08 1.01-.14.21-.04.4-.14.6-.21l-.42.06h.18c.82-.01 1.6-.71 1.56-1.56-.04-.9-.69-1.5-1.56-1.56Zm5.41 7.94c-.56.44-.94 1.09-1.26 1.72-.36.72-.67 1.46-.94 2.22-.22.63-.41 1.28-.55 1.93-.09.43-.22.9-.23 1.34-.01.93.6 1.84 1.53 2.07 1.05.26 2.02-.34 2.36-1.34.16-.46.07-1.11-.19-1.51-.37-.57-.91-.87-1.59-.9-.76-.04-1.51.57-1.7 1.29v.03c.27-.36.54-.71.82-1.07h-.03c.31-.07.62-.15.92-.24h-.04c.32.08.63.17.95.25a2.6 2.6 0 0 0-.54-.23l.85.49-.05-.05.49.85-.02-.07.07.51v-.16l-.07.51c.16-1.07.39-2.14.68-3.18.14-.51.29-1.02.45-1.52.03-.1.07-.2.11-.31.02-.07.05-.13.08-.2-.1.23-.11.26-.04.1.11-.22.22-.45.35-.67.4-.66.2-1.53-.4-2-.26-.2-.6-.35-.94-.33-.44.02-.75.19-1.09.45ZM33.74 57.46C27.46 51.8 23.41 44 22.2 35.64c-.94.72-1.87 1.44-2.81 2.16 3.77 1.7 7.42 3.64 10.91 5.86 1.29.82 3.04-.25 3.02-1.74-.08-9.3 2.94-18.56 8.83-25.81l-3.43-1.42c-.01 6.29 1.4 12.42 4.07 18.11.61 1.3 2.86 1.32 3.47 0 4.61-10.08 13.65-17.84 24.33-20.81-.78-1.01-1.55-2.02-2.33-3.03-3.17 6.72-5.66 13.64-7.39 20.86-.53 2.21 1.96 3.39 3.58 2.08 15.34-12.38 36.02-13.35 54.84-14.12l-1.16-4.3c-6.1 4.4-12.21 8.8-18.27 13.27-6.05 4.46-12.08 9-18.27 13.26-1.81 1.25-1.18 4.11 1.13 4.19 12.42.4 24.88.29 37.3.41l-1.65-3.98c-5.09 4.26-10.98 7.56-17.09 10.13-6.22 2.61-12.69 4.76-19.27 6.27-2.34.53-1.89 3.57 0 4.3 7.33 2.83 14.85 5.19 22.38 7.42v-4.3C90 67.38 75.35 68.73 60.66 68.56c-2.81-.03-2.81 4.33 0 4.36 15.07.17 30.13-1.26 44.91-4.16 2.26-.44 1.98-3.7 0-4.3-7.52-2.29-14.94-4.89-22.38-7.42v4.3c6.9-1.87 13.77-3.68 20.36-6.49 6.53-2.78 12.66-6.34 18.11-10.91 1.61-1.35.24-3.97-1.65-3.98-12.43-.1-24.88-.42-37.3-.24.38 1.4.76 2.79 1.13 4.19 5.98-4.55 12.17-8.86 18.3-13.22s12.22-8.79 18.3-13.21c.84-.61 1.35-1.55 1.06-2.61-.26-.95-1.22-1.74-2.23-1.69-16.08.72-32.64 1.61-47.34 8.83-3.79 1.86-7.29 4.17-10.53 6.88l3.58 2.08c1.57-6.83 3.83-13.57 6.82-19.92.73-1.56-.48-3.54-2.33-3.03-11.71 3.27-21.65 11.71-26.7 22.76h3.47c-2.36-5.03-3.53-10.53-3.52-16.08 0-1.61-2.29-2.82-3.43-1.42-6.55 8.07-10.25 18.22-10.01 28.65l3.02-1.74c-3.53-2.17-7.2-4.08-11.01-5.69-1.58-.67-3.1.42-2.81 2.16 1.5 8.92 6.25 17.05 13.19 22.83 1.4 1.17 3.42-.78 2.03-2.03Z"/><path d="M55.38 42.51c1.63 0 1.63-2.53 0-2.53s-1.63 2.53 0 2.53m5.43-2.77c2.08 0 2.08-3.23 0-3.23s-2.08 3.23 0 3.23m.27 6.79c1.91 0 1.91-2.97 0-2.97s-1.91 2.97 0 2.97m46.89 36.09c8.96-1.23 17.91 1.91 25.48 6.52 6.64 4.04 12.76 10.4 11.42 18.8-.6 3.78-2.41 7.69-5.56 10.01-2.96 2.18-7.12 2.91-10.36.9-1.82-1.13-5.39-5.83-1.96-7.05 1.79-.64 3.93-.56 5.8-.59 2.19-.04 4.41.05 6.58.39 8.56 1.35 16.87 6.71 18.19 15.86.34 2.38 4.5 1.85 4.24-.57-1.12-10.13-9.81-17.11-19.32-19.22-4.98-1.11-10.66-1.46-15.69-.47-2.41.48-4.61 1.87-5.4 4.29s-.07 5.29 1.22 7.43c2.62 4.34 7.63 6.47 12.58 5.79 5.16-.71 9.49-4.13 11.97-8.63 2.64-4.79 3.55-10.83 1.86-16.09-1.48-4.61-4.75-8.35-8.52-11.27-9.26-7.17-21.77-10.97-33.43-9.37-.91.13-1.4 1.28-1.18 2.09.26.98 1.18 1.31 2.09 1.18ZM34.5 110.04l-3.09-.69-1.55-.35c-.66-.15-1.28-.22-1.96-.19-.76.04-1.55.53-1.73 1.31-.07.31-.07.64 0 .95.09.39.45.9.82 1.07s.72.36 1.11.47c.23.07.48.1.72.14l1.57.26c1.05.18 2.09.35 3.14.53.5.08.95.08 1.4-.18.38-.22.74-.65.84-1.09.21-.92-.28-2.02-1.27-2.24ZM33.99 122c-.89.46-1.8.89-2.71 1.32l-1.34.63c-.46.22-.94.41-1.35.71-.38.28-.73.61-.84 1.09-.09.41-.07.8.09 1.19.33.79 1.29 1.35 2.15 1.05 1.07-.37 2.03-1.05 3.01-1.63.88-.52 1.75-1.04 2.65-1.52.76-.41 1.06-1.52.59-2.24-.5-.78-1.43-1.01-2.24-.59Zm4.63 10.71c-.97 1.02-1.87 2.11-2.7 3.25-.38.53-.74 1.07-1.07 1.62-.42.69-1.08 1.6-1.03 2.43.04.6.29 1.13.83 1.45.48.28 1.22.34 1.69 0 .32-.23.6-.47.77-.82.07-.13.12-.27.19-.4.13-.29.27-.57.41-.85.29-.58.61-1.14.95-1.69s.68-1.05 1.05-1.56c.04-.06.09-.12.13-.18.02-.03.17-.24.05-.06-.13.19.06-.06.09-.1l.14-.17q.315-.375.66-.75c.54-.59.63-1.59 0-2.17s-1.58-.62-2.17 0Zm7.57 7.61c0 .17-.02.34-.04.5l.05-.41c-.04.3-.1.61-.19.9-.04.15-.1.29-.14.44 0 .02-.01.04-.01.06l-.06.46c0 .09 0 .18.03.27.01.23.08.44.2.64.03.05.07.1.1.15.2.32.54.62.92.7l.41.05c.28 0 .53-.07.77-.21.32-.15.6-.38.78-.7.08-.14.16-.33.21-.49s.06-.4.07-.58c.02-.2.02-.4.01-.6-.02-.53-.11-1.07-.25-1.58-.1-.34-.35-.7-.67-.87l-.35-.15c-.19-.06-.39-.07-.58-.03a.7.7 0 0 0-.37.1c-.18.06-.34.16-.47.3-.27.29-.41.63-.43 1.03Z"/></svg>