<?xml version="1.0" encoding="UTF-8"?><svg xmlns="http://www.w3.org/2000/svg" viewBox="0 0 180 180"><path d="M54.7 18.92c-.01.22.03-.03-.05.3-.05.23-.12.46-.19.69-.17.55-.39 1.09-.62 1.61-.59 1.35-1.28 2.65-1.98 3.95-1.21 2.24-2.61 4.38-3.81 6.62-.9 1.68-1.37 3.63-.46 5.41.93 1.82 2.62 2.25 4.52 2.09.18-.01.35-.03.53-.04-.37.02-.13-.41-.14.02-.01.4.31 1.02.44 1.38.35.98.76 1.97 1.33 2.85 1.02 1.56 2.49 2.89 4.32 3.4 1.18.33 2.34.18 3.54.05.06 0 .61-.02.63-.06-.13.23-.77-.56-.8-.28-.01.15.41.71.48.83.59 1.13.94 2.65 1.93 3.51s3.17.05 2.56-1.49c-.75-1.88-1.25-5.34-3.46-6.06-1.63-.53-3.25.56-4.81-.53s-2.06-2.91-2.62-4.58c-.67-1.99-2.03-2.83-4.12-2.65-.66.06-1.1.32-1.23-.46-.12-.72.4-1.5.74-2.1 1.22-2.14 2.43-4.26 3.52-6.46 1.19-2.41 2.83-5.24 2.9-8 .05-2.05-3.05-2.02-3.17 0Z"/><path d="M56.75 14.79c-.7.81-1.09 2.07-1.33 3.11-.26 1.11-.32 2.22-.12 3.34.31 1.76 1.39 3.38 2.71 4.55 1.5 1.34 3.33 2.18 5.26 2.71 1.69.47 6 1.79 5.94-1.27-.03-1.41-1.69-2.03-2.69-1.12l-.08.07.72-.42c.58-.17-.22 0 .29.01-.18 0-.43-.08-.61-.11-.37-.06-.75-.13-1.12-.21-.78-.16-1.55-.35-2.3-.59s-1.17-.43-1.84-.79-1-.6-1.46-1.02c-.53-.49-.75-.75-1.07-1.27-.39-.65-.5-.88-.65-1.58-.12-.52-.1-1.2 0-1.83.16-.87.56-1.81.52-2.69-.05-1.02-1.41-1.78-2.17-.9Zm6.72 19.4c1.99.87 4.16 1.26 6.33 1.2-.58-.76-1.16-1.52-1.74-2.29-.43 2.25-.69 4.56-.07 6.8.52 1.88 1.66 3.81 3.48 4.67.73.35 1.56.26 2.08-.41.47-.61.46-1.56-.13-2.11-.26-.24-.5-.51-.74-.77-.07-.08-.14-.15-.2-.23.12.16.11.15 0 0a5 5 0 0 1-.25-.39c-.19-.31-.36-.63-.5-.96.17.39-.07-.22-.09-.3-.06-.17-.1-.35-.15-.52s-.08-.35-.11-.53c-.04-.23-.04-.26-.02-.09l-.03-.29c-.04-.45-.05-.91-.04-1.36s.04-.91.08-1.36c0-.07.08-.66.04-.39.04-.26.08-.52.12-.77.11-.65.03-1.27-.46-1.76-.44-.44-1.15-.66-1.76-.46-.93.3-1.39.38-2.38.35-.78-.02-1.6-.22-2.41-.5-.64-.22-1.38.2-1.61.79s-.07 1.43.56 1.71Z"/><path d="M54.03 14.36c2.19-2.45 5.93-2.65 9.01-2.49.53.03 1.36.06 1.78.41.46.38.47 1.12.79 1.62 1.16 1.82 3.13 1.33 4.92 1.17 3.3-.29 7.16.69 8.68 3.96.74 1.59.52 3.44 1.09 5.09a6.8 6.8 0 0 0 3.4 3.89c2.87 1.43 7.16.9 9 3.89 1.2 1.96 3.73.56 3.46-1.46-.55-4.04-5.55-4.71-8.7-5.5-1.63-.41-2.96-.94-3.37-2.71-.47-2.07-.49-4.06-1.65-5.93-2.22-3.58-6.31-5.34-10.42-5.32-1.09 0-2.2.13-3.27.36-.04 0-.52.08-.54.12l.61.41-.1-.3c-.02-.47-.5-1.1-.79-1.46-1.18-1.45-3.1-1.84-4.89-1.88-4.19-.08-8.71.78-11.34 4.31-1 1.35 1.22 3.05 2.33 1.8Zm20.91 23.65c1.37 5.03 6.32 7.23 11.12 7.63 2.45.2 5.19.01 7.29-1.41s3.05-3.63 2.68-6c-.11-.68-.91-1.08-1.53-1-.74.1-1.12.67-1.21 1.37-.17 1.32-1.41 2.36-2.57 2.85-1.58.68-3.47.62-5.15.47-3.01-.27-6.61-1.67-7.85-4.68-.69-1.67-3.29-1.08-2.79.77ZM64.37 48.64c-3.57-.25-7.63 1.2-10.66 3.02-3.43 2.06-6.25 5.23-7.18 9.2-.98 4.2-.02 8.38 1.08 12.44.57 2.11 1.14 4.21 1.85 6.28.72 2.09 1.51 4.41 2.84 6.2.59.79 1.51 1.24 2.48.81.81-.36 1.54-1.42 1.15-2.34-.78-1.87-1.72-3.64-2.39-5.57-.62-1.79-1.14-3.61-1.64-5.44-.92-3.38-2.06-6.93-1.52-10.48.5-3.26 2.64-5.87 5.37-7.6s5.93-2.39 9.02-3.52c1.62-.59 1.35-2.87-.4-2.99Z"/><path d="M58.92 62.04c-.66 3.52-1.2 7.07-1.39 10.66-.17 3.31.21 6.77 2.07 9.6 3.18 4.83 8.91 6.93 14.18 8.62l-1.57-2.06c.33 4.97-3.41 9.18-6.56 12.61-3.19 3.46-6.71 6.61-10.04 9.93-3.37 3.35-6.6 6.93-9.02 11.03-2.59 4.39-4.07 9.29-4.46 14.36-.22 2.82-.04 5.67.44 8.45.48 2.73 1.39 5.97 3.07 8.2 1.04 1.38 3.27.62 2.87-1.21-.53-2.45-1.44-4.76-1.86-7.26s-.55-4.89-.39-7.36c.3-4.78 1.83-9.44 4.33-13.52 4.82-7.87 12.51-13.4 18.61-20.19 3.72-4.13 7.67-9.17 7.28-15.05-.06-.98-.62-1.76-1.57-2.06-4.15-1.33-9.25-2.9-11.73-6.79-1.49-2.34-1.6-5.06-1.52-7.75.1-3.29.28-6.53.18-9.82-.05-1.61-2.61-2.12-2.93-.4ZM96 54.78c1.02 3.7 1.77 7.46 2.04 11.29.26 3.63-.29 7.25-.04 10.86s1.82 6.53 4.44 9.09c2.4 2.34 4.73 4.57 6.56 7.4 3.53 5.46 5.69 11.95 5.63 18.49-.06 6.89-4.61 12.79-9.39 17.35-5.38 5.12-11.92 8.53-17.77 13.02-1.92 1.47-.34 4.28 1.91 3.26 6.31-2.84 12.3-6.99 17.5-11.54s10.41-10.59 11.89-17.46c1.53-7.09-.43-15.21-3.74-21.53-1.6-3.06-3.66-5.91-6.01-8.44-2.18-2.34-5.53-4.33-6.54-7.51-.62-1.92-.5-3.99-.43-5.98.08-2.19.04-4.37-.17-6.56-.43-4.45-1.52-8.74-3.32-12.83-.65-1.48-2.99-.42-2.57 1.08Zm27.27 2.64c-5.13-3.63-10.2-7.34-15.31-11.01-2.14-1.54-4.33-3.03-6.7-4.19s-5.7-2.75-8.24-1.81c-1.49.55-1.91 2.56-.45 3.44 1.1.67 2.43.79 3.65 1.15s2.3.76 3.4 1.29c2.38 1.14 4.61 2.57 6.82 4 5.09 3.27 10.17 6.55 15.22 9.89 1.73 1.14 3.26-1.58 1.61-2.75Z"/><path d="M99 67.25c3.88 3.23 8.04 6.08 12.56 8.36 4.24 2.15 9.08 3.99 13.92 3.5 4.3-.44 8.26-2.38 10.76-5.98 2.7-3.89 2.59-9.29 2.39-13.81-.28-6.09-.71-12.17-2.03-18.14-.42-1.92-3.17-1.06-2.89.8.72 4.78 1.3 9.57 1.45 14.41.07 2.33-.03 4.68-.12 7.01-.08 2.03-.23 4.14-1.01 6.04-1.33 3.27-4.65 4.98-8 5.48-4.06.61-8.21-.77-11.83-2.5-4.6-2.2-9.04-4.84-13.29-7.65-1.47-.97-3.28 1.32-1.9 2.47Z"/><path d="M123.6 65.18c.53-3.85 1.41-7.61 2.59-11.31.59-1.85 1.2-3.68 1.77-5.54s1.42-3.95 1.17-5.9c-.18-1.44-2.04-2.23-2.9-.78-1.01 1.7-1.3 3.81-1.88 5.69s-1.25 3.81-1.83 5.73c-1.15 3.79-2.2 7.76-1.67 11.74.09.7.46 1.27 1.21 1.37.61.08 1.44-.31 1.53-1ZM58.33 86.57c-3.51-2.81-7.1-5.52-10.85-7.99-1.84-1.21-3.72-2.36-5.62-3.47s-4.07-2.73-6.26-3.03c-1.65-.22-2.22 2.05-1.27 3.07.72.77 1.76 1.16 2.67 1.65.98.53 1.95 1.07 2.91 1.63 1.91 1.1 3.78 2.26 5.65 3.43 3.68 2.3 7.31 4.69 10.85 7.2 1.45 1.03 3.33-1.36 1.92-2.49"/><path d="M26.67 79.63c1.08 3.88 3.36 7.63 5.68 10.88s5.22 6.43 8.51 9c6.62 5.17 15.93 7.83 23.32 2.52 3.78-2.71 6.42-6.58 8.94-10.42 1.41-2.14-2.02-4.12-3.43-2-3.82 5.75-8.38 11.74-16.05 11.12-7.2-.58-13.37-6.38-17.74-11.68-2.68-3.26-4.49-6.9-6.54-10.56-.82-1.46-3.15-.48-2.7 1.14Z"/><path d="M29.82 79.13c-.34-.59-.85-.99-1.42-1.34-.24-.14-.48-.28-.71-.43-.03-.02-.37-.27-.21-.15s-.17-.15-.19-.17c-.87-.78-1.59-1.73-2.32-2.64-.81-1.01-1.62-2.01-2.46-2.99s-1.89-2.01-3.23-2.2c-.93-.13-1.79.15-2.18 1.07-.33.79-.07 1.91.76 2.31.23.11.44.24.66.37.44.25-.44-.35.17.12.56.43-.16-.18.16.13.38.36.73.73 1.08 1.12.84.96 1.69 1.9 2.55 2.85.76.84 1.51 1.68 2.41 2.37.5.39 1.01.73 1.6.98.26.11.54.24.81.3.11.04.09.03-.05-.03l.13.06.12.07q-.195-.165 0 .03c1.18 1.25 3.2-.35 2.36-1.82Zm6.51-5.15c.87-1.99.65-4.71-.1-6.72-.82-2.18-2.31-3.79-4.24-5.07-.83-.55-1.71-1.02-2.59-1.47-.63-.33-1.25-.64-1.97-.69-.78-.05-1.48.22-2.07.71-1.79 1.47-1.73 4.23-.83 6.15.24.51.58.98.97 1.38.19.2.41.37.63.54.11.09.23.17.34.26s-.07-.07.12.09c.07.07.15.14.23.2.27.22-.06-.14.12.14-.13-.21-.01-.3-.11.08-.17.67-.41 1.42-.36 2.12.09 1.43 2.02 2.11 2.8.76.48-.84.79-2.17.75-3.13-.05-1.13-.69-1.93-1.55-2.59-.14-.11-.29-.22-.44-.32-.03-.02-.28-.21-.16-.11.11.09-.09-.08-.09-.08-.33-.32-.37-.36-.6-.79s-.25-1.04-.11-1.52c.02-.08.04-.16.07-.23-.08.19.04-.05.06-.07-.1.09.05.07.02.01-.06-.12.15 0-.02.02-.06 0-.22.06-.29.07s-.22.06-.06 0l.09.02c-.14-.06-.15-.07-.02-.01.11.05.22.11.34.16.76.37 1.51.75 2.24 1.18.36.21.72.43 1.06.68.07.05.51.39.26.19.18.15.36.3.54.46q.42.39.78.84c.13.16 0 0-.02-.02.07.1.14.2.21.31.13.21.26.42.37.64.04.08.08.16.12.25.08.16-.03-.12.07.16.08.23.16.46.23.7.13.45.22.9.3 1.36.06.33.04.14.07.47q.045.375.06.75c.03.61.04 1.19.18 1.78.26 1.12 2.11 1.49 2.61.34Zm91.54-33.17c-.78-.29-1.6-.87-2.19-1.45-.67-.67-1.07-1.26-1.53-2.2-.92-1.86-1.13-4.42-.83-6.3.05-.33 0-.17-.1 0 .2-.1.23-.13.07-.07.14-.05.29-.09.43-.13.19-.03.48.01.71.13.11.06.21.13.31.2-.13-.1-.12-.08.05.07.09.09.17.18.25.27-.1-.13-.08-.1.05.08.13.22.25.44.37.66.09.2.11.23.05.1.05.12.09.24.14.36.47 1.32.75 2.91 2.49 3 .35.02.72 0 1.05-.12.23-.05.26-.06.09-.05.22.01.25 0 .1-.03.49.05.48.29 1.07.58 1.32.63 2.54-.4 2.33-1.79-.16-1.07-1.22-1.81-2.18-2.13-.42-.14-.87-.2-1.31-.19-.28 0-.58.04-.85.12-.29.08 0 .06-.3.03l.91.24c.11.06.38.67.4.41 0-.08-.05-.2-.07-.28a11.7 11.7 0 0 0-.76-2.08c-.36-.78-.89-1.54-1.56-2.08-1.81-1.48-4.77-1.76-6.48.08-.86.92-.99 2.08-1.06 3.29-.06 1.03-.03 2.05.1 3.07.26 2.03.87 4.05 2.11 5.71 1.33 1.77 3.08 3.16 5.27 3.66.85.19 1.76-.26 2-1.13s-.31-1.69-1.13-2Z"/><path d="M128.4 32.12c.4-.38.54-.9.74-1.4.12-.3.24-.61.36-.91.23-.61.48-1.22.7-1.84s.44-1.23.67-1.83c.11-.29.23-.59.34-.88.07-.16.15-.33.2-.5.12-.39.07-.74.01-1.14-.16-.98-1.6-1.55-2.39-.97-.31.23-.57.44-.76.78-.13.24-.22.53-.32.79-.11.29-.22.59-.32.88-.23.63-.44 1.27-.65 1.91s-.38 1.3-.56 1.94c-.09.31-.18.63-.26.94-.05.18-.1.36-.14.54-.09.38-.08.67-.01 1.05.08.48.56.88 1 1 .5.14 1.02-.01 1.4-.37Zm7.21-6.91c.17 1.29.34 2.57.46 3.87.11 1.17.29 2.35.23 3.53-.05.96-.39 2-.66 2.98-.33 1.18-.61 2.37-.64 3.61-.03 1.04.9 1.92 1.92 1.92s1.9-.88 1.92-1.92c.04-2.19 1.25-4.4 1.21-6.72-.02-1.31-.31-2.59-.59-3.86s-.53-2.55-.78-3.82c-.33-1.71-3.3-1.34-3.07.42ZM52.97 162.53c9.73 7.77 22.78 11.48 35.06 8.72a42.1 42.1 0 0 0 16.63-7.88c5-3.9 8.94-8.95 12.44-14.19 4.16-6.22 7.79-12.78 11.76-19.12l-3.69.48c5.76 5.65 11.85 11.32 19.09 15.05 7.87 4.05 16.59 5.03 25.28 5.77-.2-1.51-.41-3.02-.61-4.53-1.2.17 1.29 0 1.14.07-.18.08-.16-.22 0 .01-.17-.24-.46-.45-.66-.67-.49-.55-.85-1.05-1.3-1.7a55 55 0 0 1-2.14-3.32c-2.23-3.79-3.94-7.86-5.9-11.79s-4.12-7.84-7.38-10.77c-3.08-2.77-6.88-4.57-10.89-5.55-4.7-1.15-9.6-1.32-14.42-1.29.54 1.3 1.08 2.6 1.61 3.9 5.44-4.62 10.01-10.57 13.18-16.96 1.56-3.16 2.87-6.52 3.4-10.02.54-3.59.41-7.23.65-10.85s.84-7.49 3.33-10.3c1.69-1.91-.41-4.64-2.7-3.5-5.91 2.95-11.75 6.1-17.07 10.03-5.25 3.88-10.2 8.53-13.26 14.38-1.8 3.45-2.77 7.08-3.12 10.95-.22 2.38 3.85 2.96 4.2.57 1.86-12.45 11.9-20.81 22.11-26.9 3.07-1.83 6.21-3.54 9.39-5.18l-2.7-3.5c-5 5.7-4.51 13.34-4.91 20.43s-3.71 13.44-7.85 19.08c-2.29 3.12-4.93 6.01-7.87 8.53-1.54 1.31-.26 3.91 1.61 3.9 7.83-.06 16.85.27 22.78 6.12 3 2.96 4.89 6.95 6.7 10.7 1.88 3.9 3.59 7.92 5.92 11.58.85 1.33 1.72 2.63 2.7 3.87s2.35 2.91 4.05 2.71c2.95-.34 2.98-4.3 0-4.61-7.95-.83-16.05-1.7-23.21-5.53-6.72-3.6-12.25-8.89-17.83-13.99-1.1-1.01-2.91-.88-3.69.48-3.16 5.48-6.4 10.93-9.76 16.29-3.13 4.99-6.55 9.79-10.93 13.77-8.38 7.61-20.14 11.08-31.34 9.7-6.5-.8-12.69-3.46-17.89-7.4-1.42-1.07-3.31 1.36-1.91 2.48ZM50.7 15.2c-.81 1.01-1.99 1.57-3.08 2.21-1.34.79-2.54 1.79-3.4 3.1-1.78 2.71-1.59 6.34.41 8.87.93 1.18 2.25 2.08 3.72 2.46 1.12.3 2.36.13 2.86-1.06.23-.55.17-1.14-.13-1.64-.4-.66-1.02-.84-1.7-1.02-.13-.03-.25-.07-.37-.11-.57-.19.14.09-.17-.08-.26-.14-.52-.28-.75-.46.27.21-.22-.21-.21-.21-.09-.09-.18-.19-.27-.29-.25-.27-.13-.15-.07-.07-.14-.18-.26-.38-.37-.59-.14-.27-.36-.95-.37-1.26-.03-.78 0-1.07.23-1.77.38-1.17 1.3-2.09 2.36-2.87 1.36-1.01 2.72-2 3.45-3.57.28-.61.22-1.32-.35-1.74-.49-.37-1.35-.43-1.77.11ZM20.39 46.03c.23-3.22.51-6.39.45-9.62l-3.75.51a46 46 0 0 1 1.35 9.2c.05 1.15 1.23 2.37 2.48 1.89 3.01-1.17 6.01-2.33 9.02-3.5-.65-1.11-1.29-2.22-1.94-3.34-2.14 1.69-4.33 3.31-6.51 4.94-.97.73-1.57 2.35-.42 3.3a494 494 0 0 0 8.39 6.74l2.07-3.56c-3.17-1-6.15-2.58-8.72-4.69-1.22-1.01-3.02-.68-3.52.93-.86 2.77-1.9 5.47-3.02 8.15 1.37.18 2.73.37 4.1.55-.38-2.97.11-5.85 1.55-8.48.73-1.32-.18-3.08-1.75-3.06-2.95.04-5.91-.49-8.63-1.67l-1.07 3.95c1.93.13 3.87.31 5.8.37 1.89.06 3.94-1.11 3.33-3.32-.74-2.64-4.81-1.53-4.11 1.13l.05.18c.07-.55.14-1.1.22-1.64 1.12-.46 1.29-.67.53-.64-.28-.02-.55-.03-.83-.05l-1.66-.09-3.32-.18c-1.04-.06-1.96.85-2.08 1.84-.13 1.13.51 1.91 1.52 2.32 3.25 1.34 6.75 1.93 10.26 1.86-.58-1.02-1.17-2.04-1.75-3.06-1.76 3.2-2.57 6.89-2.22 10.53.09.93.59 1.75 1.53 2.01.83.23 1.98-.13 2.36-.96 1.27-2.81 2.34-5.7 3.27-8.64l-3.52.93c3.15 2.61 6.68 4.57 10.57 5.82 1.93.62 3.76-2.21 2.07-3.56-2.81-2.23-5.62-4.47-8.44-6.7v2.97c2.28-1.77 4.53-3.61 6.78-5.41 1.52-1.22-.12-4.06-1.94-3.34l-9 3.57 2.48 1.89c-.18-3.45-.71-6.87-1.58-10.21-.53-2.02-3.93-1.68-3.75.51.27 3.17.51 6.44.33 9.62-.11 1.96 2.89 1.93 3.03 0Zm97.55-22.89c-2.36-.17-4.71-.49-7.03-.95-1.6-.32-3.2-.72-4.62-1.53-.67-.38-1.3-.87-1.82-1.44-.86-.95-.11-2.45 1.17-2.41 3.2.1 6.37 1.68 8.27 4.28.28-.42.06-.97-.14-1.43-.94-2.15-1.35-4.54-1.16-6.89.07-.85.29-1.81 1.04-2.22.84-.46 1.95.09 2.43.91s.52 1.83.55 2.79c.03 1.16.06 2.32.08 3.49.04 1.6.11 3.3 1.01 4.62"/><path d="M117.94 21.67c-1.15-.12-2.31-.45-3.43-.73s-2.35-.51-3.52-.8c-.53-.13-1.05-.28-1.57-.44-.3-.09-.59-.19-.88-.3-.33-.12-.01.02-.36-.15-.49-.23-.97-.49-1.41-.81.15.11-.31-.27-.38-.34-.09-.08-.17-.16-.25-.25q-.315-.345 0 0c.02.09.09.76.12.38-.06.34-.06.39 0 .16-.14.29-.15.34-.04.13-.04.06-.56.54-.25.29-.29.11-.32.13-.09.07-.32.04-.34.06-.04.06.2.03.42.03.63.04.26.03.28.03.05 0 .14.02.28.05.41.07a11.3 11.3 0 0 1 2 .6c-.33-.14.38.2.45.23.43.23.84.49 1.25.77s1.29 1.18 1.83 1.84c.77.94 2.71.73 3.2-.41.34-.79.5-1.52.26-2.37-.13-.49-.42-1.03-.57-1.41-.35-.91-.64-2.07-.73-2.9-.05-.48-.08-.97-.08-1.46 0-.28 0-.57.02-.85 0-.1.1-.79.02-.39.04-.18.08-.37.13-.55-.09.19-.09.18.02-.02l-.11.12c.16-.16.16-.17.01-.02-.1.07-.21.11-.34.11l-.18-.03c.22.07.23.06.03-.02.17.11.21.13.1.04-.1-.09-.07-.06.08.08.16.17.16.18.02.03.11.21.14.26.09.16.07.39.14.51.16.96.06 1.11.06 2.23.09 3.35.05 2.2.05 4.52 1.29 6.44.59.91 1.78 1.29 2.75.72.9-.53 1.32-1.84.72-2.75-.05-.07-.39-.68-.3-.47-.12-.26-.19-.55-.25-.82-.02-.08-.13-.79-.11-.55-.03-.29-.05-.59-.07-.88-.07-1.27-.07-2.55-.1-3.83-.03-1.34-.06-2.69-.64-3.94-.53-1.15-1.57-2.04-2.81-2.35-1.47-.36-2.96.26-3.78 1.51-.67 1.02-.79 2.29-.83 3.48-.03 1.31.11 2.63.38 3.91.13.64.32 1.26.53 1.87.11.31.23.61.35.91.06.14.11.27.16.41.1.46.15.28.16-.54h3.52a11.87 11.87 0 0 0-4.9-4.14c-.99-.45-2.02-.83-3.1-1.03-1.14-.21-2.37-.41-3.47.05-2.52 1.07-2.91 4.21-1 6.05 1.73 1.67 4.05 2.56 6.38 2.99 1.38.26 2.79.5 4.19.57s2.79 0 4.18.06c.79.03 1.47-.7 1.47-1.47 0-.86-.68-1.39-1.47-1.47ZM73.62 90.04c2.63.77 5.34.38 7.7-.98l-2.29-.6c1.55 3.21 4.54 6.26 8.36 6.13 3.89-.13 6.91-3.65 5.95-7.53-1.05.44-2.1.89-3.15 1.33 1.76 2.54 4.65 4.64 7.82 4.78 1.5.07 3.08.08 4.51-.44.72-.26 1.36-.65 1.87-1.23.43-.49.68-1.48 1.17-1.85 1.65-1.2.07-3.97-1.62-2.77-.5.36-.9.72-1.24 1.24-.26.4-.44 1.01-.81 1.33-.7.6-2.28.57-3.13.41-2.14-.4-4.29-1.44-5.6-3.23-1.1-1.5-3.71-.68-3.15 1.33.61 2.21-1.65 3.54-3.61 3.08-2.1-.5-3.48-2.54-4.49-4.29-.43-.75-1.55-1.11-2.29-.6-1.57 1.06-3.36 1.41-5.21.97s-2.67 2.36-.8 2.91Zm2.63 10.01c3.21 6.09 11.5 7.12 16.15 2.07-.96-.12-1.93-.25-2.89-.37 1.88 2.8 4.61 5.09 8.08 5.39 3.06.27 6.31-1.24 7.41-4.2.48-1.29-1.42-2.36-2.31-1.35-3.15 3.6-7.57 1.68-10-1.71-.63-.87-2.07-1.36-2.89-.37-3.06 3.69-8.7 3.32-11.09-.9-.9-1.6-3.31-.18-2.46 1.44"/><path d="m102.7 101.8.03.12v-.71c-.49 1.33 1.29 2.61 2.27 3.18s2 .94 3.07 1.14c1.19.21 2.34.22 3.53.04.51-.08 1-.2 1.49-.37.11-.04.22-.08.32-.13.19-.08.68-.29.32-.14.34-.14.71-.28 1.02-.49.45-.31.92-.86.84-1.46-.09-.66-.28-1.07-.84-1.46-.51-.35-1.19-.26-1.71 0-.21.1-.41.23-.61.34-.15.08-.12.07.02 0q-.165.075-.33.12c-.42.15-.85.24-1.28.33-.32.07.16 0-.04 0-.09 0-.19.02-.28.03-.23.02-.47.03-.7.02-.21 0-.42 0-.63-.03-.12 0-.23-.02-.35-.03-.26-.02.39.07-.05-.01-.41-.08-.82-.17-1.22-.31l-.33-.12c-.14-.05-.27-.12-.06-.02-.19-.09-.38-.18-.56-.28-.39-.21-.75-.46-1.12-.7-.24-.16.07.06-.07-.05-.16-.12-.3-.27-.47-.37-.39-.23-.87-.32-1.31-.18h.71l-.11-.04c-.92-.37-1.81.71-1.57 1.57Zm-38.02 3.97c-.33 3.25 1.91 6.24 4.73 7.62 3.61 1.77 7.72 1.07 11.49.3l-2.04-.83c1.44 3.18 4.23 6.04 7.74 6.78 3.45.73 6.95-.5 9.02-3.37h-3.08c2.9 5.39 10.14 6.42 14.45 2.09h-2.54c.62.58 1.24 1.15 1.86 1.72 1.69 1.56 4.21-.95 2.53-2.53-.61-.58-1.23-1.15-1.85-1.73-.71-.66-1.83-.71-2.54 0-2.71 2.73-7.06 2.03-8.83-1.36-.68-1.3-2.34-1-3.08 0-1.25 1.69-3.73 2.11-5.64 1.51-2.34-.73-3.93-2.79-4.93-4.94-.35-.75-1.31-.98-2.04-.83-2.75.58-5.8 1.25-8.54.25-1.99-.73-3.67-2.49-3.54-4.7.12-2.07-2.98-2-3.19 0Zm-2.85 14.88c2.19 4.86 7.57 7.17 12.69 6.52l-1.76-2.31c-1.08 3.95 2.94 6.49 6.15 7.49 3.89 1.21 7.78.81 11.65-.2-.81-.62-1.62-1.23-2.43-1.85-.17 2.24 1.11 4.4 2.85 5.71s4.28 2.07 6.19.88c1.14-.71 1.18-3-.42-3.21-1.16-.16-2.3-.03-3.3-.76-.89-.64-1.42-1.53-1.5-2.62-.11-1.53-1.52-2.28-2.88-1.65-2.39 1.11-5.4 1.02-7.91.39-1.73-.44-4.98-1.42-4.82-3.7.08-1.11-1.24-2.17-2.31-1.76-3.75 1.42-7.95-1.02-9.59-4.46-.84-1.77-3.41-.23-2.62 1.53Zm-14.43 3.51c.08 3 1.59 5.91 3.96 7.75 1.21.94 2.62 1.63 4.12 1.98.79.18 1.62.29 2.43.3s1.57-.21 2.34-.16l-1.37-3.3c-3.22 3.62.31 8.65 3.72 10.57 3.64 2.04 8.26 2.12 11.5-.7l-3.15-.83c.82 2.18 2.32 3.88 4.5 4.78 2.03.84 4.58.98 6.34-.49 1.11-.92.18-2.79-1.15-2.77-1.28.02-2.4.3-3.64-.21-1.03-.42-2.03-1.23-2.41-2.31-.5-1.4-2.03-1.78-3.15-.83-1.79 1.51-4.53.97-6.44 0-1.09-.56-2.07-1.3-2.71-2.36-.66-1.09-.63-1.81-.17-2.95.65-1.61-1.5-3-2.84-2.18-.75.46-2.26.2-3.06.01-1.05-.24-2.05-.67-2.91-1.32-1.74-1.33-2.65-3.24-3.09-5.34-.33-1.59-2.87-1.23-2.82.38Zm-2.06 23.81c2.94 1.92 6.61 2.6 10.04 1.84-.77-.44-1.55-.88-2.32-1.32 1.33 3.45 4.1 6.17 7.74 7.11s7.66-.18 10.52-2.68c-.97-.13-1.95-.25-2.92-.38 2.06 2.84 5.52 3.68 8.89 3.37 3.6-.33 8.01-2.02 7.15-6.47-.59.77-1.17 1.54-1.76 2.31.8-.02 1.57.02 2.32-.28 1.5-.59 1.62-2.62 0-3.18-.77-.26-1.52-.2-2.32-.19-1.27.02-1.97 1.15-1.76 2.31.3 1.71-3.93 1.74-4.89 1.72-1.8-.04-3.47-.48-4.71-1.84-.72-.78-1.89-.63-2.63 0-4.16 3.51-10.1 1.48-12.18-3.25-.32-.73-1.41-1.1-2.13-.87-2.62.84-5.19.72-7.62-.62-1.59-.87-2.91 1.43-1.41 2.42Z"/><path d="M89.3 144.32c5.23.18 10.44-.95 15.4-2.62 2.97-1 5.89-2.21 8.45-4.01 4.21-2.96 7.27-7.52 8.42-12.53 2-8.68-1.61-17.56-5.14-25.74 1 5.27 1.47 10.64 1.38 16-.03 2.17-.17 4.39-1.07 6.37-.97 2.14-2.74 3.78-4.49 5.35-6 5.36-12.29 10.4-18.83 15.09"/><path d="M89.3 145.92c4.9.29 9.84-.61 14.52-2.04 4.43-1.36 8.78-3.12 12.31-6.2 6.82-5.93 8.91-14.97 7.29-23.62-1.02-5.42-3.23-10.54-5.39-15.58-.36-.84-1.55-1.07-2.3-.75-.89.37-1.24 1.26-1.07 2.17.83 4.48 1.18 9.01 1.23 13.56.02 2.05.08 4.18-.43 6.18-.48 1.83-1.56 3.25-2.88 4.56-2.99 2.97-6.33 5.65-9.6 8.31s-6.93 5.46-10.51 8.03c-.84.61-1.26 1.68-.69 2.64.49.83 1.79 1.31 2.64.69 3.85-2.77 7.62-5.64 11.3-8.63 3.55-2.89 7.41-5.79 10.46-9.21 1.45-1.62 2.56-3.45 3.07-5.58.53-2.2.54-4.5.53-6.75-.03-4.96-.63-9.91-1.55-14.79-1.12.47-2.24.95-3.36 1.42 3.29 7.6 6.93 16.28 4.84 24.69-.86 3.45-2.67 6.61-5.19 9.11-2.85 2.83-6.54 4.5-10.28 5.79-4.83 1.66-9.79 2.75-14.91 2.78-2.08.01-2.05 3.08 0 3.2Z"/><path d="M121.47 108.93c.98-4.22 2.09-8.51 4.02-12.41 1.65-3.34 3.86-6.31 6.31-9.1 4.93-5.61 10.61-10.66 14.26-17.26l-3.2-1.35c-.47 2.09-1.55 3.9-2.55 5.77s-1.92 3.89-2.7 5.93c-1.49 3.93-2.61 8-4.33 11.84s-4.02 7.14-6.93 10.13c-2.99 3.07-6.49 5.51-9.58 8.44-1.43 1.36.46 3.94 2.15 2.79 3.58-2.45 6.97-5.56 9.94-8.72 2.99-3.17 5.5-6.73 7.28-10.71 1.81-4.05 3.07-8.31 4.71-12.42.8-2.01 1.73-3.94 2.76-5.83 1.09-2 2.13-4.04 2.61-6.28.4-1.87-2.2-3.16-3.2-1.35-3.68 6.7-9.55 11.71-14.44 17.47-2.48 2.92-4.77 6.04-6.33 9.55-1.81 4.08-2.75 8.39-3.61 12.74-.36 1.83 2.39 2.62 2.82.78Zm-2.1 8.3c2.55 2.68 5.65 4.65 9.27 5.5 2.03.48 4.14.59 6.18 1.03 1.9.4 3.78.94 5.6 1.61 3.57 1.3 6.95 3.17 10 5.43 1.6 1.19 3.19 2.5 4.48 4.03 1.07 1.26 1.82 2.77 2.51 4.26 1.54 3.36 2.8 7.55 6.22 9.5.27-1.01.55-2.02.82-3.02-1.03-.07-2.27-.78-3.22-1.18s-1.93-.86-2.88-1.32c-1.89-.92-3.74-1.97-5.47-3.16-3.43-2.36-5.88-5.65-9.01-8.35-3.26-2.82-6.88-5.18-10.43-7.61-3.95-2.71-7.81-5.52-11.71-8.28-2.08-1.47-4.16 2.02-2.01 3.44 3.98 2.63 8 5.2 11.94 7.89 3.67 2.5 7.47 4.91 10.75 7.93 1.54 1.42 2.87 3.04 4.39 4.5 1.54 1.48 3.26 2.78 5.06 3.92a43 43 0 0 0 5.42 2.9c.95.43 1.93.82 2.91 1.18 1.09.4 2.45.59 3.46 1.16 1.3.74 3.26-.86 2.22-2.22-2.05-2.68-3.47-5.45-4.86-8.52-1.61-3.56-3.75-6.37-6.82-8.82-6-4.79-13.27-7.97-20.88-9.05-2.25-.32-4.48-.51-6.61-1.32-1.98-.76-3.85-1.88-5.38-3.36-1.26-1.22-3.13.65-1.92 1.92Zm-69.12 40.86.12-.21.06-.11c.08-.15.14-.28.21-.47.01-.03.02-.07.04-.1.06-.18.09-.29.09-.52 0-.19-.05-.39-.09-.58-.07-.24-.19-.45-.37-.63a1 1 0 0 0-.46-.29c-.17-.09-.35-.13-.55-.12-.26 0-.5.07-.72.19l-.1.04c-.15.07-.24.13-.39.28-.11.11-.21.26-.3.4l-.07.1c-.04.07-.07.14-.1.21l-.1.22c-.12.18-.18.38-.19.59q-.075.315.03.63c.05.21.14.38.28.54.11.17.26.31.44.41l.38.16q.42.12.84 0l.38-.16q.36-.21.57-.57Zm16.44 9.53c.14-.63 4.11-.06 4.71.01 1.81.21 3.61.39 5.41.02 3.38-.7 5.91-3.6 5.31-7.12-.57.75-1.14 1.49-1.7 2.24 3.19.21 6.53.22 9.17-1.84 1.1-.86 1.85-1.94 2.33-3.25.26-.72.35-.91 1.04-1.25.61-.31 1.22-.58 1.79-.94 5.1-3.24 7.32-9.89 4.15-15.28-1.16-1.97-4.24-.19-3.08 1.8 2.52 4.3-.06 9.12-4.18 11.16-.93.46-1.84.96-2.42 1.86-.63.97-.67 2.11-1.59 2.91-1.94 1.69-4.84 1.43-7.22 1.3-1.24-.07-1.9 1.18-1.7 2.24.26 1.4-1.29 2.4-2.43 2.71-1.58.42-3.29.18-4.89.01-2.51-.26-7.45-.64-7.55 3.05-.05 1.61 2.49 1.99 2.84.38Zm38.46-25.56c2.03 1.99 2.32 6.01-.5 7.54-.56.3-.97 1.16-.73 1.79 1.2 3.04-1.68 4.96-4.45 5-.91.01-1.72.77-1.7 1.7.02 1.04-.18 2.01-.67 2.93-.52.99-1.38 1.53-2.05 2.38-.93 1.17-.12 3.18 1.57 2.69 3.11-.9 4.71-5.06 4.56-8l-1.7 1.7c2.55-.14 5.11-.99 6.7-3.1 1.41-1.86 1.78-4.45.64-6.53-.08.64-.17 1.28-.25 1.92 1.69-1.64 2.9-3.45 3.01-5.89.1-2.26-.91-4.49-2.56-6.01-1.24-1.15-3.09.67-1.87 1.87Zm8.4-4.62c-.19-.14.18.17.21.2.12.12.23.25.34.38-.18-.21.12.19.15.23.07.11.13.22.19.33.08.15.16.31.23.46-.13-.3.06.2.08.25.1.31.18.62.24.94l.03.19q-.03-.27 0 .03l.06.63c.03.4.04.79.03 1.19-.02.83-.13 1.65-.14 2.48.82-.47 1.64-.94 2.47-1.41-.07-.04-.13-.08-.2-.12-.99-.6-2.27.17-2.27 1.3v.23c0 .82.63 1.5 1.42 1.61.72.1 1.68-.37 1.8-1.17.51-3.57.06-7.98-3.3-10.06-.6-.37-1.5-.15-1.83.48-.37.7-.12 1.38.48 1.83Zm6.03-6.02c.25.05.49.12.72.22l-.39-.16c.28.12.55.28.8.47l-.33-.26q.405.315.72.72l-.26-.34c.2.26.36.54.49.84l-.17-.4c.11.27.16.56.26.84.14.4.38.8.77 1 .34.18.69.25 1.07.2.35-.05.71-.19.96-.46.3-.33.49-.73.49-1.18 0-.66-.27-1.32-.58-1.89-.25-.46-.58-.89-.95-1.25-.73-.72-1.72-1.29-2.74-1.45-.21-.07-.43-.08-.64-.03-.21 0-.41.07-.6.19-.33.2-.65.58-.74.96-.09.41-.07.87.16 1.24.22.34.55.66.96.74M54.59 30.28a2.89 2.89 0 0 0-.23 2.53c.14.36.27.58.51.87.16.2.36.35.56.5.31.23.69.4 1.07.48.52.11.99.11 1.51 0s.91-.38 1.29-.7c.6-.49.95-1.23 1.21-1.94.12-.34.22-.69.3-1.04.06-.31.11-.62.12-.94.01-.42-.1-.78-.28-1.15-.12-.25-.38-.43-.62-.53-.26-.11-.57-.15-.85-.07-.22.07-.41.18-.58.34-.27.25-.34.58-.38.92v.07c0-.12.02-.23.04-.35-.05.33-.06.66-.1.99l.05-.37c-.07.51-.24 1.02-.43 1.49l.14-.34c-.12.28-.26.54-.44.78l.22-.29c-.11.14-.24.27-.38.39l.29-.22a2.4 2.4 0 0 1-.38.23l.34-.14q-.21.09-.42.12l.38-.05c-.17.02-.33.02-.5 0l.38.05c-.17-.02-.32-.07-.48-.13l.34.15c-.12-.05-.23-.12-.33-.19l.29.23c-.1-.08-.19-.17-.28-.27l.23.29c-.12-.16-.23-.33-.31-.52l.14.34c-.06-.16-.11-.31-.13-.48l.05.37c-.02-.18-.02-.37 0-.55l-.05.35c.01-.07.02-.15.04-.22.16-.62-.15-1.25-.74-1.5s-1.25-.02-1.59.52Zm6.32 42.34c4.98-1.22 10.37-.67 15.01 1.53 4.25-7.82 13.3-12.76 22.17-12.09-.85 6.25-.38 12.67 1.38 18.72.29 1 .62 2.01 1.18 2.89.99 1.57 2.62 2.62 3.93 3.93.25.25.49.52.55.87.1.66-.53 1.19-1.13 1.49-2.13 1.08-4.69 1.22-6.99.56s-4.34-2.09-5.91-3.9c-.12 1.71-.45 3.69-1.95 4.53-1.15.64-2.59.36-3.79-.18a10.27 10.27 0 0 1-5.22-5.32c-.62.74-1.29 1.51-2.2 1.84-1.01.36-2.13.12-3.16-.19-1.96-.58-3.85-1.35-5.66-2.31-1.8-.95-3.53-2.1-4.87-3.64s-2.26-3.5-2.26-5.54"/><path d="M61.31 74.07c4.45-.96 9.51-.1 13.6 1.81.96.45 2.17.29 2.74-.72 4.04-7.22 12.18-11.65 20.45-11.04-.66-.87-1.33-1.74-1.99-2.61-.52 3.79-.68 7.58-.3 11.4.37 3.7.92 7.94 2.67 11.27.79 1.5 2.03 2.62 3.3 3.7.31.26.62.51.91.79.15.13.29.27.41.44.41-1.03.4-1.39-.04-1.08-.2-.03-.77.35-1 .42-.38.12-.76.22-1.15.28-3.27.5-6.22-1.21-8.32-3.58-1.31-1.49-3.46-.18-3.6 1.49-.06.73-.12 1.72-.57 2.33-.52.71-1.55.34-2.22.04-1.96-.85-3.36-2.5-4.23-4.42-.54-1.19-2.51-1.41-3.33-.43-.4.47-.9 1.23-1.54 1.39s-1.55-.21-2.17-.41c-1.7-.53-3.34-1.22-4.91-2.06-2.85-1.53-5.69-3.79-5.99-7.26-.22-2.57-4-2.65-4.06 0-.12 5.17 4.04 8.91 8.28 11.12 2.16 1.12 4.56 2.2 6.96 2.67 2.71.53 4.69-.4 6.43-2.44-1.11-.14-2.22-.29-3.33-.43 1.44 3.26 4.6 6.25 8.2 6.84 2.03.34 4.01-.26 5.26-1.96 1.07-1.45 1.32-3.23 1.44-4.98l-3.6 1.49c2.71 3.01 6.62 5.13 10.75 4.94 1.95-.09 4.26-.59 5.76-1.93.75-.67 1.23-1.63 1.19-2.65-.05-1.13-.75-1.89-1.54-2.6-1.35-1.2-2.94-2.37-3.68-4.06-.84-1.92-1.25-4.14-1.62-6.2-.81-4.47-.85-9.05-.3-13.56.14-1.15-1.06-2-2.06-2.06-9.65-.56-19.23 4.66-23.9 13.15.91-.24 1.82-.48 2.74-.72-5.33-2.44-10.78-2.68-16.41-1.25-1.88.48-1.08 3.3.8 2.89Z"/></svg>