<?xml version="1.0" encoding="UTF-8"?><svg xmlns="http://www.w3.org/2000/svg" viewBox="0 0 180 180"><path d="M130.04 32.17c-12.88-.34-25.69 2.45-37.95 6.17-6.05 1.84-12 3.99-17.88 6.3s-11.87 4.65-17.07 8.3c-4.86 3.41-8.67 8.19-10.8 13.75-2.31 6.01-1.29 12.35.72 18.28 2.17 6.41 4.52 12.77 6.73 19.17 2.2 6.39 4.56 12.73 7.49 18.83 2.62 5.43 5.77 10.56 9.62 15.2 3.92 4.73 8.65 8.7 13.83 11.98 5.54 3.51 11.55 6.32 17.55 8.95 6.32 2.77 12.87 5.48 19.67 6.79 6.23 1.2 12.66 1.05 18.54-1.51 5.8-2.53 9.56-7.51 12.95-12.65 3.74-5.67 7.24-11.5 10.42-17.5s6.07-12.02 7.45-18.59c.66-3.16.97-6.4.78-9.62-.21-3.57-.92-7.09-1.66-10.58-1.47-6.99-3.02-13.96-4.5-20.95-1.5-7.07-3.02-14.15-4.51-21.22-.74-3.48-1.46-6.95-2.21-10.43-.66-3.08-1.51-6.22-3.62-8.64-1.79-2.05-4.48-3.44-7.24-3.16-1.09.11-2.02.85-2.02 2.02 0 1.01.93 2.13 2.02 2.02 6.11-.61 6.9 8.55 7.77 12.67 1.41 6.67 2.81 13.34 4.21 20.02 1.4 6.67 2.8 13.34 4.2 20.02.7 3.32 1.36 6.65 2.04 9.97.66 3.2 1.26 6.43 1.31 9.7.1 6.13-1.77 12.1-4.23 17.65-2.58 5.83-5.67 11.46-8.91 16.95-3.05 5.15-6.13 10.82-10.51 14.97-4.09 3.88-9.83 5.25-15.35 5.11-6.33-.16-12.42-2.31-18.26-4.58-5.88-2.29-11.69-4.74-17.36-7.51-5.32-2.6-10.88-5.31-15.25-9.39-4.14-3.86-7.41-8.44-10.13-13.38-6-10.91-9.03-23.13-13.35-34.74-2.15-5.77-5.38-11.57-5.68-17.84-.27-5.49 2.36-10.34 6.24-14.05 4.16-3.99 9.38-6.74 14.62-9.04s10.87-4.43 16.4-6.38c11.48-4.05 23.34-7.64 35.47-9.04 2.83-.33 5.65-.59 8.5-.68 2.15-.07 2.16-3.29 0-3.34Z"/><path d="M113.02 76.51c4.03 6.75 7.34 14 9.34 21.63.96 3.68 1.61 7.42 1.82 11.22.1 1.8.75 6.99-2.47 6.31-1.84-.39-3.26-2.04-4.29-3.51a19.6 19.6 0 0 1-1.56-2.65c-.48-.98-.76-2.05-1.34-2.97-.84-1.36-3.2-.88-3.13.85.09 2.14 1.33 4.37 2.46 6.15s2.61 3.63 4.38 4.95 4.04 2.11 6.19 1.38c2.04-.7 3.37-2.51 3.93-4.53s.47-4.15.3-6.19a60 60 0 0 0-1-7.04c-.93-4.58-2.45-9.06-4.36-13.31-2.16-4.8-4.87-9.35-7.82-13.69-1.01-1.49-3.39-.15-2.44 1.43Z"/><path d="M131.21 124.73c1.55-1.52 3.14-2.98 4.69-4.5 1.29-1.26 2.6-2.77 4.26-3.54 1.53-.71 3.17-.3 4.29.95 1.2 1.34 1.49 3.27 1.46 5-.13 7.1-5.33 13.07-11.49 16.02-7.17 3.43-15.89 3.35-23.38 1.13-3.26-.97-6.5-2.45-8.87-4.96-1.03-1.09-2.43-2.83-2.16-4.44.23-1.36 1.74-2.24 2.92-2.66 3.67-1.32 7.74-.43 11.45.21 4.08.7 8.17 1.03 12.15-.4 1.83-.66 1.12-3.47-.81-2.95-4.03 1.08-8.42-.24-12.42-.94-4.21-.74-8.63-1.24-12.66.56-1.99.89-3.71 2.44-4.47 4.52-.81 2.25-.05 4.75 1.19 6.69 2.32 3.65 6.05 5.98 10 7.52 8.89 3.46 19.6 3.51 28.35-.38 7.74-3.45 13.97-10.98 14.18-19.7.06-2.63-.52-5.31-2.22-7.37-1.57-1.9-3.99-3.07-6.47-2.68s-4.23 2.03-5.83 3.71c-2.02 2.11-3.99 4.27-6.02 6.38-1.16 1.21.64 3.02 1.85 1.85ZM77.55 79.07c.84-3.91 3.72-6.99 6.95-9.19 3.4-2.31 7-4.24 11.14-4.6 2.8-.24 2.83-4.16 0-4.38-4.99-.38-10.04 2.88-13.8 5.81-3.87 3.02-6.78 6.96-7.3 11.95-.18 1.72 2.65 2.08 3.01.41m65.26-23.91c-1.86-.89-3.65-1.8-5.66-2.3s-4.27-.78-6.42-.92c-2.02-.13-4.03-.17-6.04.1s-4.78.73-5.89 2.69c-.78 1.38.22 2.92 1.73 3.01 1.6.1 3.24-.91 4.84-1.14 1.76-.24 3.59-.18 5.37-.13s3.55.13 5.32.33c1.69.2 3.61.39 5.18 1.07.79.34 1.69.22 2.16-.57.41-.69.2-1.79-.57-2.16ZM84.77 88.31c-.7 1.02-.77 2.54-.69 3.74.08 1.28.33 2.58.78 3.79.93 2.47 2.67 4.75 4.85 6.24 2.03 1.39 4.75 1.88 7.07.96 3.23-1.28 5.28-4.21 5.56-7.65.14-1.71-.21-3.46-.58-5.12-.19-.84-.4-1.68-.59-2.52-.2-.9-.28-1.79-.8-2.57-.81-1.22-2.44-.91-2.94.38s.08 3 .39 4.34c.15.65.3 1.3.44 1.95s.23 1.23.27 1.64c.06.63.06 1.26.02 1.9-.03.58.05-.2-.02.14-.03.15-.06.3-.1.45-.03.12-.07.24-.11.36s-.08.24-.13.35q.09-.21 0-.03c-.13.26-.28.51-.44.75-.3.47.2-.17-.19.24-.1.1-.19.21-.29.31q-.33.33-.69.63c.28-.24.07-.05 0 0-.16.1-.31.21-.48.31-.2.12-.41.22-.61.32.49-.23-.19.05-.34.09-.11.03-.23.05-.34.08-.43.11.06-.06.07 0 0 .01-.7.02-.74.02-.08 0-.28.02-.33-.02.1.07.42.09.15.02-.22-.06-.44-.09-.65-.16-.14-.04-.81-.35-.27-.08-.23-.12-.46-.22-.68-.35-.18-.11-.36-.23-.54-.35-.12-.08-.24-.17-.35-.25.05.04.35.3.08.05-.4-.35-.78-.7-1.13-1.09-.15-.17-.3-.35-.45-.53.34.41-.15-.22-.23-.33-.32-.48-.62-.97-.87-1.49-.12-.23-.23-.47-.34-.71-.07-.14-.13-.28-.2-.42-.18-.38.11.33-.04-.1-.19-.53-.37-1.06-.49-1.61-.03-.12-.05-.24-.08-.36-.02-.1-.08-.64-.04-.17l-.06-.72c-.03-.56.04-1.11-.02-1.66-.17-1.49-1.93-2.07-2.82-.76Zm40.67-11.66c-.7 1.02-.77 2.54-.69 3.74.08 1.28.33 2.58.78 3.79.93 2.47 2.67 4.75 4.85 6.24 2.03 1.39 4.75 1.88 7.07.96 3.23-1.28 5.28-4.21 5.56-7.65.14-1.71-.21-3.46-.58-5.12-.19-.84-.4-1.68-.59-2.52-.2-.9-.28-1.79-.8-2.57-.81-1.22-2.44-.91-2.94.38s.08 3 .39 4.34c.15.65.3 1.3.44 1.95s.23 1.23.27 1.64c.06.63.06 1.26.02 1.9-.03.58.05-.2-.02.14-.03.15-.06.3-.1.45-.03.12-.07.24-.11.36s-.08.24-.13.35q.09-.21 0-.03c-.13.26-.28.51-.44.75-.3.47.2-.17-.19.24-.1.1-.19.21-.29.31q-.33.33-.69.63c.28-.24.07-.05 0 0-.16.1-.31.21-.48.31-.2.12-.41.22-.61.32.49-.23-.19.05-.34.09-.11.03-.23.05-.34.08-.43.11.06-.06.07 0 0 .01-.7.02-.74.02-.08 0-.28.02-.33-.02.1.07.42.09.15.02-.22-.06-.44-.09-.65-.16-.14-.04-.81-.35-.27-.08-.23-.12-.46-.22-.68-.35-.18-.11-.36-.23-.54-.35-.12-.08-.24-.17-.35-.25.05.04.35.3.08.05-.4-.35-.78-.7-1.13-1.09-.15-.17-.3-.35-.45-.53.34.41-.15-.22-.23-.33-.32-.48-.62-.97-.87-1.49-.12-.23-.23-.47-.34-.71-.07-.14-.13-.28-.2-.42-.18-.38.11.33-.04-.1-.19-.53-.37-1.06-.49-1.61-.03-.12-.05-.24-.08-.36-.02-.1-.08-.64-.04-.17l-.06-.72c-.03-.56.04-1.11-.02-1.66-.17-1.49-1.93-2.07-2.82-.76Z"/><path d="M96.73 133.19c1.39 1.12 3.27 1.74 4.95 2.3 1.73.57 3.49 1.01 5.29 1.3 3.67.59 7.38.71 11.07.26 7.14-.88 13.9-3.73 19.74-7.9 3.3-2.36 6.27-5.05 9.19-7.86 1.34-1.29-.74-3.38-2.04-2.04-5.81 5.94-13.09 11.1-21.11 13.51-4.19 1.26-8.6 1.68-12.96 1.38-2.19-.15-4.35-.52-6.48-1.03-1.06-.26-2.11-.56-3.14-.9s-2.17-.88-3.3-1.09c-1.08-.19-2.28 1.22-1.21 2.08Zm26.13-99.71 3.66-.33c-27.51-13.16-58.97-15.9-89.41-14.02-6.21.38-13.24 1.41-16.77 6.53-1.26 1.83-1.92 3.99-2.52 6.13a206.6 206.6 0 0 0-7.81 57.93c.1 12.5 1.73 21.91 8.1 32.79 5.92 10.12 13.73 19.15 22.93 26.41 11.93 9.41 32.2 10.61 44.73 1.24-11.05-6.08-19-12.07-24.78-23.86-.72-1.46-1.38-2.94-2.01-4.44-.13.85-.48 1.59-1.26 1.87-.64.22 2.7-2 2.04-2.11-6.42-1.02-15.78 12.39-22.26 7.05-6.51-5.35-.21-14.37 4.9-17.92 3.36-2.33 9.31-4.98 13.36-4.45-1.61-5.17-4.86-8.81-6.67-13.91C46.95 86.4 44.38 80.3 44.42 74c-1.91.68-5.18 1.98-7.04 2.63-1.22.43-1 .18-2.28.35-3.78.49-6.04-2.62-4.99-5.54 1.1-3.03 4.78-5.22 7.96-6.66 2.46-1.11 5.19-1.8 7.81-1.68l.95 1.08c2.02-4.04 5.15-7.6 8.74-10.38 5.84-4.51 12.84-7.23 19.84-9.57a245 245 0 0 1 47.45-10.76Zm-93.5 71.76c-.86 3.22-3.3 6.21-6.57 6.81-3.97.73-7.93-2.37-9.18-6.2-1.25-3.84-.27-8.09 1.53-11.69 2.36-4.72 6.12-8.73 10.68-11.38l1.69-1.23c-1.41 1.74-.77 4.29-.15 6.44.7 2.42 1.3 4.87 1.78 7.35.64 3.27 1.08 6.68.22 9.9"/><path d="m122.86 35.48 3.66-.33c1.77-.16 2.97-2.79 1.01-3.73-18.9-9-39.6-13.25-60.42-14.45-10.27-.59-20.62-.52-30.88.22-4.19.3-8.47.89-12.26 2.81-4.28 2.17-6.53 5.97-7.85 10.45-3.16 10.73-5.29 21.78-6.63 32.88-1.3 10.8-1.97 21.86-1.27 32.73.6 9.38 2.98 18.28 7.61 26.49 4.83 8.57 11.1 16.42 18.32 23.09 3.3 3.04 6.77 6.04 10.75 8.15 3.7 1.96 7.72 3.32 11.83 4.07 8.39 1.51 17.23.73 24.98-2.94 1.79-.85 3.48-1.87 5.07-3.04 1.15-.85 1.43-2.67 0-3.45-5.43-3-10.75-6.29-15.2-10.65-4.89-4.8-8.22-10.65-10.87-16.92-.66-1.57-3.35-1.13-3.66.48-.05.26-.24.57.08.49h1.06-.02c.47.81.93 1.63 1.4 2.45v-.03c-.16.29-.33.59-.51.88.95-1.11 2.74-1.66 2.77-3.38.05-2.65-3.37-2.32-5.07-1.84-3.87 1.08-7.07 3.93-10.45 5.97-1.5.91-3.13 1.86-4.9 2.06-.38.04-1.04 0-1.56-.17-.67-.22-1.52-.9-2.09-1.62-2.87-3.65.54-8.77 3.15-11.48 1.84-1.92 4.04-3.3 6.43-4.44 2.57-1.22 5.52-2.24 8.41-1.92 1.28.14 2.3-1.39 1.93-2.53-1.67-5.16-5.08-9.48-6.91-14.56-2-5.56-4.34-11.2-4.36-17.2 0-1.22-1.29-2.37-2.53-1.93s-2.6.97-3.89 1.46c-1.22.46-2.5 1.11-3.78 1.37.31-.06-.14 0-.23 0-.29.02-.59.04-.89.07-.58.05-1.13.1-1.69-.08-.79-.25-1.42-.86-1.54-1.7-.34-2.38 2.84-4.34 4.54-5.32 2.91-1.68 6.09-2.87 9.48-2.77l-1.41-.59.95 1.08c.82.94 2.58.7 3.14-.4 4.71-9.23 14.03-14.23 23.41-17.65 10.43-3.8 21.24-6.71 32.11-8.96a244 244 0 0 1 18.79-3.12c1.07-.13 2-.82 2-2 0-.98-.92-2.14-2-2-11.72 1.47-23.33 3.71-34.72 6.82-5.52 1.5-11.01 3.18-16.41 5.1-5.08 1.81-10.13 3.92-14.66 6.89-4.97 3.26-9.26 7.57-11.98 12.89l3.14-.4c-.85-.96-1.4-1.64-2.8-1.68-1.94-.05-3.96.34-5.8.94-3.22 1.06-6.57 2.76-9.02 5.16-2.16 2.12-3.53 5.18-2.26 8.12.57 1.32 1.61 2.4 2.91 3.03 1.5.73 2.97.68 4.59.58 1.48-.09 2.77-.61 4.15-1.13 1.64-.62 3.27-1.26 4.93-1.85l-2.53-1.93c.02 6.23 2.25 12.05 4.35 17.82.96 2.65 2.12 5.15 3.51 7.61s2.71 4.77 3.56 7.39l1.93-2.53c-2.58-.28-5.25.39-7.65 1.29-2.43.91-4.84 2.07-6.95 3.6-3.71 2.68-7.11 6.74-8.14 11.29-1.02 4.55 1.18 9.9 5.99 11.2 3.74 1.01 7.5-1.16 10.53-3.11 1.89-1.21 3.71-2.54 5.67-3.64.83-.47 1.56-.85 2.42-1.11.29-.09.9-.23 1-.24-.26.03.4-.01.35-.01.13 0 .27 0 .4.01-.16-.04-.18-.04-.08 0l-1.2-.92.03.04-.27-1.01v.06c.08-.34.18-.67.27-1.01-.11.23.37-.33.03-.04-.09.08-.17.16-.26.24-.28.25-.57.47-.86.71-.58.46-1.05.82-1.31 1.57-.35 1.02.41 2.19 1.4 2.46 1.98.55 3.49-1.63 3.8-3.27l-3.66.48c2.78 6.58 6.37 12.7 11.49 17.73 4.69 4.6 10.29 8.12 16.01 11.28v-3.45c-12.57 9.28-31.56 7.85-43.46-1.86a92.8 92.8 0 0 1-18.78-20.76c-4.99-7.58-8.59-15.69-9.82-24.74-1.33-9.81-.81-20.02 0-29.85.87-10.6 2.58-21.13 5.1-31.47.62-2.56 1.29-5.11 2.01-7.64.59-2.05 1.21-4.19 2.58-5.87 2.44-2.99 6.4-4.08 10.06-4.65 4.46-.7 9.09-.74 13.59-.87 4.93-.15 9.86-.16 14.79-.02 19.78.58 39.62 3.77 58.02 11.23 2.25.91 4.46 1.9 6.65 2.94.34-1.24.67-2.48 1.01-3.73l-3.66.33c-1.08.1-2 .85-2 2 0 1.01.92 2.1 2 2Z"/><path d="M27.44 104.71c-.93 3.27-3.87 6.43-7.54 5.15-3.87-1.35-5.25-5.66-4.73-9.4.59-4.24 3.01-8.27 5.91-11.35 2.21-2.35 4.87-3.95 7.45-5.82l-2.74-2.74c-2.44 3.34-.29 7.89.57 11.41 1 4.09 2.12 8.57 1.08 12.76-.62 2.5 3.23 3.56 3.86 1.06 1.04-4.18.34-8.44-.55-12.58-.44-2.05-.99-4.07-1.55-6.09-.42-1.5-.95-3.17.05-4.54 1.16-1.59-1.15-3.89-2.74-2.74-2.52 1.83-5.18 3.41-7.43 5.6-2.98 2.91-5.36 6.48-6.81 10.39-1.52 4.08-1.83 8.96.43 12.83 1.89 3.24 5.54 5.75 9.4 5.49 4.63-.3 7.99-4.13 9.2-8.37.71-2.48-3.15-3.54-3.86-1.06m11.55 22.59c2.35-3.45 5.57-6.11 9.25-8.05 3.66-1.92 7.73-3.73 11.81-4.5 1.97-.37 1.14-3.39-.83-3.01-2.25.42-4.35 1.25-6.45 2.14-2.16.92-4.31 1.87-6.36 3.03-3.96 2.23-7.23 5.24-9.63 9.11-.87 1.41 1.29 2.63 2.2 1.29Zm1.31-53.03c-.04-.13-.07-.26-.09-.4l.05.39c.02-.39-.11-.76-.17-1.14l.06.43c-.03-.26-.04-.52-.06-.78s-.02-.52.01-.78l-.06.46c.03-.16.06-.3.12-.45l-.18.42c.05-.12.11-.22.19-.32l-.27.35c.06-.08.13-.14.21-.21l-.36.28q.135-.105.3-.18l-.42.18c.07-.03.14-.05.22-.06l-.47.06h.23l-.47-.06c.09.01.16.04.24.07l-.42-.18c.06.03.12.06.17.1l-.36-.28q.12.09.21.21l-.27-.36c.07.1.13.2.19.32l-.18-.42c.06.15.11.3.13.46l-.06-.47c.04.31.02.61 0 .92 0 .14-.01.29-.01.43 0 .43.07.84.28 1.22.13.24.38.48.61.61.33.19.71.25 1.09.2.68-.09 1.21-.57 1.42-1.23.13-.42.08-.95.11-1.4s0-.89-.09-1.34c-.02-.11-.06-.22-.1-.33-.1-.24-.19-.5-.34-.72-.28-.41-.62-.78-1.07-1-.61-.3-1.28-.41-1.94-.21-.59.18-1.07.53-1.45 1.02-.65.84-.74 1.85-.61 2.87.07.55.26 1.02.49 1.53.1.21.2.4.34.58s.32.36.48.54c.39.43 1.16.52 1.65.21.51-.33.79-.93.62-1.54Zm99.22-40.23c1.72 0 1.72-2.67 0-2.67s-1.72 2.67 0 2.67m-9.28-12.33c0-.83-.02-1.64-.1-2.46-.09-.93-.17-1.85-.36-2.77-.15-.74-.97-1.19-1.67-1.09s-1.39.74-1.32 1.5c.15 1.74.54 3.47 1.04 5.15.18.59.74.96 1.35.88s1.06-.59 1.06-1.2Zm12.12-.9c-.06-.64-.11-1.27-.03-1.92l-.06.44c.08-.56.24-1.1.46-1.62l-.17.4c.14-.32.3-.63.5-.92.09-.13.19-.26.28-.39.16-.25.24-.52.29-.81.11-.52.01-1.03-.38-1.42s-.91-.5-1.42-.38-.96.39-1.29.82c-.19.25-.38.5-.54.77-.31.53-.57 1.13-.73 1.73s-.24 1.22-.25 1.83.05 1.3.27 1.89c.28.73.9 1.23 1.71 1.12.71-.1 1.42-.76 1.35-1.53Zm10.36 2.23c.74-.63 1.47-1.27 2.21-1.9.36-.31.72-.61 1.07-.93.36-.34.76-.66 1.08-1.04.26-.31.48-.68.46-1.1-.02-.35-.12-.67-.34-.95-.45-.58-1.37-.84-2.02-.4-.49.33-.92.74-1.36 1.13-.38.33-.73.68-1.09 1.02-.71.68-1.43 1.35-2.14 2.03-.57.54-.59 1.59 0 2.13.29.26.66.46 1.07.44s.75-.17 1.07-.44Zm14.68 5.89.34-.62.16-.3s.03-.06.05-.09c.07-.13.13-.27.17-.41l.06-.43v-.17l-.05-.41-.15-.37-.24-.31c-.14-.15-.3-.25-.49-.32a.76.76 0 0 0-.39-.1.7.7 0 0 0-.41 0c-.14 0-.27.04-.39.1-.19.06-.35.17-.49.32l-.13.1c-.15.12-.25.28-.33.45l-.15.32-.29.63c-.12.18-.18.38-.19.59q-.075.315.03.63c.05.21.14.38.28.54.11.17.26.31.44.41l.38.16q.42.12.84 0l.38-.16q.36-.21.57-.57Zm-92.49 86.69c1.99 0 1.99-3.09 0-3.09s-1.99 3.09 0 3.09m8.32-7.83s-.03-.01-.05-.02c-.13-.03-.38-.05-.43-.06h-.1c-.14.01-.29.03-.43.06-.02 0-.04 0-.05.01-.15.04-.29.11-.43.18-.12.06-.23.16-.33.26l-.03.03c-.05.06-.1.13-.14.18s-.1.12-.14.18c0 .01-.02.03-.02.04-.03.06-.06.14-.08.19s-.06.13-.08.19c0 .01 0 .03-.01.04-.03.14-.04.28-.06.42l.05.38c.04.19.13.35.25.48.06.11.15.19.26.26.14.13.3.21.48.25l.38.05.38-.05c.19-.04.35-.13.48-.25.15-.1.28-.23.37-.4.01-.03.03-.05.05-.08l-.22.29s.05-.06.08-.08l-.29.23s.07-.04.11-.06l-.35.15c.13-.05.26-.1.39-.16.01 0 .03-.01.04-.02l-.35.15s.08-.03.13-.04l-.39.05h.11l-.39-.05s.05 0 .07.02c.2.06.39.07.59.03.2 0 .38-.07.55-.17.17-.09.31-.22.41-.38.13-.14.22-.31.26-.5l.05-.39c0-.27-.07-.51-.2-.74l-.23-.3c-.18-.18-.4-.31-.65-.38Zm-1.61 9.22c1.81 0 1.81-2.81 0-2.81s-1.81 2.81 0 2.81m7.01-2.47c2.56 0 2.57-3.98 0-3.98s-2.57 3.98 0 3.98m56.68-17.05c1.79 0 1.79-2.78 0-2.78s-1.79 2.78 0 2.78m6.47-7.86-.33-.28a1 1 0 0 0-.44-.28c-.16-.09-.34-.12-.52-.12-.19 0-.36.03-.52.12-.17.05-.31.15-.44.28l-.21.28c-.12.21-.18.44-.19.69l.05.36c.06.23.18.43.35.6l.28.33c.13.14.28.23.45.29.17.09.34.13.54.12.19 0 .37-.03.54-.12.17-.06.32-.15.45-.29l.22-.28c.13-.22.19-.45.19-.7l-.05-.37c-.07-.24-.19-.44-.36-.61Zm1.34 7.56.28-.33c.15-.14.25-.3.31-.49.1-.18.14-.38.13-.59 0-.21-.04-.41-.13-.59-.06-.19-.17-.35-.31-.49l-.31-.24c-.24-.14-.49-.21-.77-.21l-.4.05c-.26.07-.48.2-.67.39l-.33.28c-.15.14-.26.31-.32.5-.1.19-.14.38-.13.6 0 .21.04.41.13.6.06.19.17.36.32.5l.31.24q.36.21.78.21l.41-.06c.26-.07.49-.21.69-.4Zm4.38-4.02c1.73 0 1.73-2.69 0-2.69s-1.73 2.69 0 2.69"/></svg>