<?xml version="1.0" encoding="UTF-8"?><svg xmlns="http://www.w3.org/2000/svg" viewBox="0 0 180 180"><path d="M81 12.51c-17.68 9.33-35.79 17.7-54.42 24.94-5.41 2.1-10.86 4.11-16.34 6.05-1.55.55-2.04 2-1.41 3.46 8.41 19.18 17.5 38.35 33.06 52.84 7.63 7.1 16.16 13.13 24.13 19.83 3.53 2.97 6.88 6.07 9.81 9.65s5.42 7.45 7.7 11.44c5.15 8.99 9.11 18.64 12.26 28.49.47 1.46 2.18 2.3 3.57 1.45 19.57-11.89 38.42-24.87 57.07-38.15 4.92-3.5 9.83-7.01 14.76-10.5.84-.59 1.47-1.66 1.11-2.72-2.9-8.47-6.06-16.94-10.59-24.69-2.29-3.92-4.95-7.65-8.01-11.01s-6.6-6.3-10.26-9.02c-7.21-5.36-15.04-9.82-22.1-15.38-7.01-5.53-13.48-11.9-18.42-19.37-5.55-8.39-9.16-18.25-9.15-28.38 0-2.87-4.45-2.87-4.45 0-.01 18.76 10.57 35.34 24.29 47.39 6.95 6.11 14.74 11 22.36 16.21 7.41 5.07 14.22 10.74 19.26 18.26 5.61 8.36 9.2 17.81 12.44 27.28l1.11-2.72c-17.93 12.68-35.7 25.58-54.15 37.52-5.85 3.78-11.75 7.48-17.7 11.09 1.19.48 2.38.97 3.57 1.45-2.84-8.92-6.35-17.68-10.71-25.97-4.29-8.15-9.51-16.13-16.38-22.34-7.73-6.99-16.29-12.98-24.19-19.77-7.97-6.85-14.73-14.65-20.31-23.56-6.29-10.05-11.18-20.88-16-31.69-.47 1.15-.94 2.3-1.41 3.46 19.06-6.9 37.74-14.81 55.74-24.14 5.22-2.71 10.38-5.52 15.5-8.42 1.93-1.09.22-4-1.73-2.97Z"/><path d="M26.83 80.42c-5.61 4.17-11.21 8.34-16.82 12.5a77.7 77.7 0 0 0 26.23 19.71c7.07 3.25 14.61 5.43 21.56 8.92 17.9 9 30.53 26.04 39.31 44.05-5.52-7.79-7.67-18.81-13.19-26.59-.85-1.19-2.22-2.96-2.89-4.27-1.18-2.31-1.8-2.81-2.75-5.23-2.67-6.81-10.99-10.36-16.92-14.62-5.94-4.27-12.43-7.74-18.17-12.27-7.44-5.87-10.78-12.29-14.85-20.85"/><path d="M25.94 78.89C20.25 82.92 14.55 86.93 8.89 91c-1.23.89-1.44 2.33-.45 3.5 4.98 5.91 10.95 10.99 17.45 15.15 6.9 4.41 14.49 7.23 22.1 10.15 7.11 2.73 13.87 6.07 19.86 10.82 5.53 4.38 10.44 9.55 14.71 15.15 4.96 6.5 9.13 13.58 12.74 20.9 1.21-.71 2.42-1.41 3.63-2.12-4.37-6.21-6.45-13.62-9.68-20.42-.8-1.67-1.66-3.31-2.66-4.87-.95-1.49-2.07-2.87-3.04-4.35-.87-1.33-1.62-2.78-2.4-4.17s-1.26-2.98-2.11-4.36c-3.57-5.78-10.06-8.83-15.49-12.53-3.4-2.32-6.8-4.62-10.27-6.84-3.48-2.22-7.01-4.47-10.13-7.18-6.01-5.21-9.59-12.06-12.96-19.13-.5-1.05-2-1.32-2.94-.77-1.07.63-1.27 1.89-.77 2.94 3 6.31 6.2 12.56 11.12 17.63 5.76 5.94 13.23 9.88 20.05 14.43 2.95 1.97 5.87 3.95 8.87 5.84 2.74 1.73 5.47 3.54 7.63 6 .97 1.11 1.72 2.37 2.28 3.73.62 1.5 1.43 2.84 2.22 4.24 1.76 3.11 4.03 5.86 5.73 9 4.04 7.45 6.04 15.93 10.91 22.94 1.54 2.22 4.81.32 3.63-2.12-6.33-13.04-14.51-25.54-25.52-35.11-5.67-4.93-11.99-8.94-18.9-11.9-7.65-3.28-15.6-5.74-22.86-9.87-7.57-4.31-14.25-9.84-20.06-16.32l-.45 3.5c5.67-4.36 11.31-8.77 16.95-13.17 1.57-1.23-.51-3.95-2.15-2.79Zm74.1 89.17c8.91-3.22 17.82-6.45 26.73-9.67 14.04-5.08 28.16-10.19 41.05-17.72-4.34-1.69-7.57-5.33-11.38-8-.32-.23-.69-.46-1.09-.42s-.7.35-.98.63c-4.67 4.78-10.36 8.41-15.99 12.01-9.03 5.76-18.05 11.51-27.28 16.95"/><path d="M100.46 169.6c9.55-2.93 18.96-6.44 28.36-9.81 8.79-3.15 17.57-6.36 26.11-10.17 4.78-2.13 9.47-4.44 14.01-7.04 1.82-1.04 1.13-3.36-.53-4.05-3.74-1.56-6.66-4.67-9.82-7.11-.92-.71-1.82-1.43-3.04-1.47s-2.13.61-2.98 1.43a60 60 0 0 1-5.01 4.39c-3.49 2.72-7.26 5.07-10.99 7.44-4.17 2.66-8.34 5.32-12.53 7.96-4.67 2.94-9.35 5.85-14.08 8.69-2.5 1.5-.25 5.38 2.29 3.91 8-4.63 15.85-9.52 23.64-14.49 3.61-2.3 7.26-4.57 10.77-7.02 1.75-1.22 3.46-2.5 5.11-3.84.8-.66 1.59-1.33 2.35-2.03.43-.4.86-.82 1.28-1.24.21-.21.42-.42.62-.64.36-.33.27-.31-.28.06l-1.16-.31c2.2.93 4.07 3.01 5.93 4.47 2.1 1.65 4.23 3.07 6.72 4.06-.18-1.35-.35-2.7-.53-4.05-16.02 9.47-33.87 15.23-51.23 21.69-5.31 1.97-10.64 3.89-15.86 6.08-1.83.76-1.18 3.69.85 3.07ZM35.48 51.68c7.65-3.19 15.34-6.31 22.85-9.81 6.5-3.03 12.71-6.48 18.92-10.07l-2.27-.29c3.33 3.74 8.54 5.22 13.38 4.17l-2.48-2.48c-.5 2.04.12 3.84.94 5.71a78 78 0 0 0 2.29 4.79c1.56 3.01 3.24 5.94 5.18 8.72 3.43 4.92 7.46 9.38 11.94 13.36 8.63 7.69 18.73 13.39 27.56 20.79 3.29 2.75 6.34 5.65 8.81 9.17 2.38 3.4 4.61 7.11 6.37 10.86l.28-2.13c-3.08 2.63-4.86 6.71-4.79 10.76.01.82.33 1.94-.03 2.71-.4.85-1.63 1.5-2.34 2.07-1.66 1.32-3.31 2.66-4.99 3.97-5.88 4.58-12.36 8.38-18.55 12.52-3.97 2.65-7.89 5.39-11.76 8.19 1.06.61 2.11 1.21 3.17 1.82-.33-3.49-1.82-6.7-4.32-9.18-1.19-1.18-2.61-2.2-4.13-2.91-.8-.37-1.62-.69-2.47-.91q-.51-.135-1.02-.21c-.17-.03-.92-.13-.92-.13-.04.19 1.27.32 1.21.74.02-.19-.5-.83-.6-1.03-.3-.55-.57-1.12-.85-1.68-.47-.95-.9-1.93-1.39-2.87-1.73-3.32-4.27-6.36-6.69-9.2-10.49-12.29-24.29-21.05-35.48-32.61-6.38-6.59-11.73-14.17-16-22.28l-.32 2.5c1.95-2.45 2.5-5.57 2.33-8.65-.17-3-.84-6.15-2.51-8.71-1.35-2.06-4.67-.14-3.32 1.94 1.22 1.87 1.78 4.21 1.87 6.43.08 1.94 0 4.48-1.29 6.07-.61.76-.78 1.61-.32 2.5 3.72 7.17 8.3 13.88 13.63 19.95 5.29 6.01 11.46 11.14 17.58 16.28 6.04 5.07 12.1 10.15 17.52 15.9 2.75 2.92 5.34 5.99 7.57 9.32 1.39 2.07 2.37 4.22 3.49 6.43.5.99 1.05 2.29 2.03 2.89.68.42 1.57.37 2.33.56s1.53.47 2.24.85c2.97 1.59 5.29 4.59 5.62 8.01.14 1.41 1.74 2.85 3.17 1.82 6.4-4.64 12.95-9.03 19.56-13.35 3.39-2.21 6.77-4.41 9.98-6.88 1.67-1.29 3.31-2.62 4.95-3.95 1.58-1.28 3.7-2.5 4.62-4.38 1.06-2.15.16-4.64.62-6.92.45-2.22 1.54-4.22 3.1-5.86.53-.56.69-1.45.28-2.13-1.87-3.1-3.42-6.38-5.42-9.42s-4.29-5.89-6.97-8.35c-2.4-2.2-5.01-4.19-7.61-6.15-2.27-1.71-4.46-3.51-6.75-5.19-9.07-6.69-18.33-13.17-25.4-22.08-2.15-2.72-4.06-5.64-5.75-8.66-.93-1.67-1.79-3.37-2.57-5.12-.4-.89-.77-1.8-1.13-2.71s-.87-1.91-.64-2.89c.37-1.54-.97-2.81-2.48-2.48-3.51.77-7.13-.42-9.66-2.93-.56-.56-1.58-.75-2.27-.29-5.88 3.92-12.28 7.14-18.64 10.17-7.41 3.53-14.88 6.91-22.3 10.41-1.4.66-.39 3.13 1.07 2.53Zm-9.56 5.42s.06.09.09.13l-.16-1.22-.02.09c-.09.33-.09.66 0 .98q.09.36.33.63c.13.2.3.36.52.48.29.17.6.25.93.25s.64-.08.93-.25q.42-.24.66-.66c.17-.29.25-.6.25-.93s-.08-.64-.25-.93c-.12-.22-.27-.4-.48-.53a1.5 1.5 0 0 0-.63-.33l-.49-.07c-.33 0-.64.09-.93.25l-.1.07 1.22-.16c-.06-.01-.11-.03-.17-.04l-.4-.05-.4.05-.36.15c-.18.1-.32.23-.43.39a.9.9 0 0 0-.2.34c-.07.12-.1.25-.1.38-.04.13-.04.27 0 .4 0 .2.07.39.18.57Zm134.13 57.08-.02-.03a1.5 1.5 0 0 0-.47-.52c-.12-.11-.25-.19-.41-.24-.22-.12-.46-.17-.71-.16l-.49.07-.44.19c-.21.12-.39.27-.52.47-.11.12-.19.25-.24.41-.12.22-.17.46-.16.71l.07.49.19.44c.12.21.27.39.47.52.12.11.25.19.41.24.22.12.46.17.71.16l.49-.07.44-.19q.42-.24.66-.66l.02-.03q.24-.42.24-.9t-.24-.9"/><path d="M113.94 67.34c-9.35-6.77-21.4-4.09-30.85 1-9.6 5.17-18.21 14.28-17.03 25.95.49 4.87 2.34 9.69 5.98 13.09s8.88 5.13 13.88 5.36c9.85.45 19.35-4.91 26.04-11.79 3.86-3.96 6.84-8.56 8.54-13.84.86-2.68 1.22-5.55.86-8.35-.38-2.98-1.88-5.8-3.75-8.1-1.45-1.78-4.04.78-2.54 2.54 2.88 3.39 2.94 8.4 1.68 12.47-.6 1.93-1.7 3.65-2.82 5.33-1.14 1.71-2.32 3.37-3.67 4.92-5.3 6.08-12.83 11.3-21.06 12.07-3.98.37-8.14-.25-11.63-2.28-3.5-2.03-5.6-5.55-6.48-9.43-1.01-4.49-.29-9.03 2.07-12.97 2.34-3.91 5.91-6.99 9.74-9.4 8.28-5.22 20.25-9.14 29.35-3.68 1.88 1.13 3.4-1.65 1.69-2.89m-38.5-10.58c-1.74-2.51-4.1-4.54-6.92-5.75-1.47-.63-3.2-1.29-4.82-1.15-2 .17-3.61 1.79-3.26 3.87.26 1.51 1.06 3.24 1.91 4.51.92 1.37 2.29 2.16 3.36 3.38.49.56.89 1.2 1.28 1.83.11.17.66 1.01.64 1.14-.03.16-.45.16-.7.12-.73-.12-1.41-.64-2.02-1.03-2.53-1.59-5.43-3.47-6.59-6.36-.41-1.04-1.41-1.69-2.53-1.21s-1.33 1.63-.9 2.66l.07.17-.25-.94v.19l.24-.92-.1.15c-.95 1.47.96 3.43 2.44 2.44.91-.61 1.27-1.45 1.03-2.54l-3.62 1c1.22 3.03 3.43 5.22 6.05 7.09 2.42 1.72 5.78 4.26 8.79 2.39 3.64-2.27.62-6.95-1.52-9.12-1.07-1.08-2.26-1.75-2.98-3.14-.32-.61-.58-1.25-.81-1.9.01.04-.22-.56-.19-.58.26-.18-.13.54-.17.5 0 0 .69-.04.82-.02 3.12.45 6.13 2.33 8.03 4.84.51.68 1.36 1.03 2.16.57.69-.4 1.05-1.46.57-2.16Z"/><path d="M56.21 68.24c3.61-2.97 7.3-5.84 11.07-8.6 3.76-2.75 7.76-5.19 11.49-7.95 1.55-1.15.22-3.63-1.55-2.64-4.16 2.32-8.05 5.33-11.86 8.17-3.85 2.86-7.58 5.85-11.22 8.96-1.44 1.23.63 3.25 2.07 2.07Zm74.57 44.43c-1.56-2.43-3.5-4.76-6.28-5.82-1.44-.55-3.24-.59-4.44.54s-1.3 3.13-.88 4.67c.43 1.56 1.37 2.86 2.37 4.09.8.98 1.75 1.96 2.21 3.16.19.5.24.83.17 1.26.02-.13-.18.58-.14.46.06-.19-.18.21-.04.07.18-.18-.39.33-.18.18.23-.16-.06 0-.19 0-.17 0-.39-.07-.58-.16-.58-.25-1.12-.67-1.61-1.05-2.55-1.98-4.24-4.49-5.73-7.31-.95-1.8-4.12-.55-3.36 1.41 1.09 2.79 2.96 5.34 5.12 7.39 2.08 1.96 5.48 4.74 8.41 2.77 2.64-1.77 2.32-5.41.83-7.81-.77-1.23-1.8-2.25-2.67-3.41-.36-.48-.72-1.01-.96-1.56-.13-.29-.25-.65-.28-.96-.02-.16.08-.59.03-.73 0 0-.01.02 0 .02-.29.14-.33.18-.14.11q.18-.045.06-.03c.34.05.52.01.87.11.63.17 1.19.47 1.73.83 1.25.84 2.2 2.07 3.04 3.3 1.11 1.62 3.74.13 2.66-1.55Z"/><path d="M112.91 122.83c3.53-2.7 6.89-5.6 10.02-8.74 1.45-1.46 2.82-3 4.23-4.5 1.34-1.43 2.75-2.73 4.56-3.56.79-.36.98-1.51.58-2.2-.48-.82-1.4-.92-2.2-.58-3.73 1.61-6.2 5.26-8.95 8.08a92 92 0 0 1-9.82 8.77c-.67.52-1.04 1.36-.57 2.16.39.67 1.48 1.09 2.16.57ZM101.8 73.65c-4.23 3.7-8.6 7.27-13.44 10.14-1.05.62-1.43 2.32-.41 3.19 1.6 1.36 2.97 2.85 4.04 4.67s1.97 3.42 3.73 4.51V92.6c-2.72 1.98-6.22 3.34-9.53 1.99-1.38-.56-2.56-1.63-3.11-3.03-.61-1.57-.05-2.94.04-4.53s-1.96-2.22-3.04-1.26c-1.82 1.62-1.72 4.76-.97 6.89.8 2.26 2.41 4.15 4.54 5.27 4.65 2.43 10.07 1.21 14.15-1.76 1.24-.9 1.41-2.69 0-3.56s-2.02-2.77-2.92-4.1a19.4 19.4 0 0 0-4.47-4.7v3.51c4.93-3.33 9.68-6.92 13.75-11.3 1.47-1.58-.75-3.76-2.35-2.35Zm-10.32 4.14.02-.14c0-.25-.04-.48-.15-.69-.07-.22-.2-.41-.37-.58-.16-.17-.35-.3-.58-.37q-.315-.165-.69-.15l-.48.06c-.3.09-.57.24-.79.46l-.28.36q-.24.42-.24.9l.02.14c0 .24.04.47.15.68.07.22.19.41.37.57.16.17.35.3.57.37.21.11.44.16.68.15l.47-.06c.3-.08.56-.24.78-.46l.28-.36c.16-.28.24-.57.24-.9Z"/><path d="m102.76 87.29.02-.14c0-.25-.04-.48-.15-.69-.07-.22-.2-.41-.37-.58-.16-.17-.35-.3-.58-.37q-.315-.165-.69-.15l-.48.06c-.3.09-.57.24-.79.46l-.28.36q-.24.42-.24.9l.02.14c0 .24.04.47.15.68.07.22.19.41.37.57.16.17.35.3.57.37.21.11.44.16.68.15l.47-.06c.3-.08.56-.24.78-.46l.28-.36c.16-.28.24-.57.24-.9Zm-.36-11.04c.33.33.64.87.99 1.3.36.45.73.88 1.09 1.33.71.86 1.43 1.7 2.12 2.57l.24.3c.09.11.16.21.03.04.17.23.34.45.51.68.32.43.65.86.96 1.29s.63.87.9 1.34c.06.1.1.21.16.31-.09-.15-.08-.25-.02-.03.07.27.13.55.23.81.31.81 1.01 1.52 1.94 1.48.88-.04 1.71-.6 1.94-1.48.39-1.48-.39-2.9-1.23-4.06-.77-1.06-1.58-2.1-2.44-3.1-.76-.89-1.53-1.77-2.37-2.58-.44-.42-.87-.83-1.34-1.21-.31-.25-.62-.51-.95-.73-.23-.15-.42-.25-.59-.41-.61-.56-1.56-.6-2.17 0-.58.58-.59 1.58 0 2.17Z"/></svg>