<?xml version="1.0" encoding="UTF-8"?><svg xmlns="http://www.w3.org/2000/svg" viewBox="0 0 180 180"><path d="M123.43 15.07q2.28 1.875 4.44 3.9c2.16 2.025 2.89 2.54 4.14 3.95l-.48-.82.08.23v-.99l-.12.29.48-.82c.16-.03.17-.02.05.02-.2.02-.41.02-.61.02-.31 0-.6 0-.91.04-.88.09-1.77.37-2.41 1.01-1.55 1.55-.48 3.65-.15 5.45.18.96.26 1.93.29 2.9.02.73.23 1.93-.17 2.56s-1.44 1.17-2.03 1.65c-.79.65-1.58 1.3-2.27 2.07-1.29 1.42.33 3.62 2.06 2.67 1.49-.81 2.82-1.92 4.15-2.97s1.96-2.2 2.12-3.89c.15-1.58.01-3.19-.21-4.76-.12-.85-.29-1.7-.51-2.53-.07-.29-.11-.78-.28-1-.09-.44-.22-.24-.39.61.08-.04.17-.06.26-.04 1.09.32 2.8-.31 3.56-1.09 1.42-1.45.5-2.95-.72-4.07-2.58-2.36-5.33-4.53-8.09-6.68-1.59-1.24-3.87.94-2.26 2.26Zm-5.39 4.25c-1.38-2.17-4.59-2.47-6.46-.75-1.87 1.73-2.02 4.84-.66 6.91.38.58.84 1.12 1.37 1.56.66.54 1.3.88 2.08 1.2.36.14.96.04 1.27-.17s.53-.45.67-.79c.32-.75.04-1.64-.67-2.06-.12-.07-.24-.15-.36-.22-.09-.06-.5-.37-.09-.05-.14-.11-.29-.22-.43-.34-.15-.11-.12-.08.09.08-.03-.07-.19-.16-.24-.21-.21-.19-.4-.4-.59-.61-.23-.25.23.33-.01-.03-.07-.1-.13-.21-.2-.31-.07-.12-.13-.25-.2-.37-.08-.17-.06-.13.05.13-.03-.07-.05-.13-.07-.2-.03-.09-.06-.19-.08-.29-.02-.06-.03-.13-.04-.19-.03-.18-.03-.13.02.16 0-.25-.04-.5-.02-.75.03-.42-.08.35 0 .01.03-.13.05-.26.09-.38.02-.06.04-.13.06-.19.06-.17.04-.12-.06.14.06-.07.09-.18.13-.26.06-.1.18-.22.21-.33-.17.21-.2.25-.08.12.04-.05.09-.1.13-.14.08-.08.22-.16.29-.25l-.2.15s.1-.07.15-.1c.1-.06.23-.1.32-.17-.25.1-.3.12-.14.06.06-.02.11-.04.17-.05.09-.02.18-.04.26-.06.17-.03.12-.02-.15.02.06 0 .12 0 .18-.01.1 0 .27.04.36 0-.26-.04-.3-.05-.14-.02.06.01.12.02.17.04.03 0 .23.09.25.08-.22-.1-.25-.11-.11-.05.05.03.1.05.16.08l.15.09c-.17-.14-.2-.16-.08-.06.08.09.17.17.25.26.45.53 1.33.5 1.84.11s.74-1.21.36-1.8Z"/><path d="M119.97 8.6c-4.19-.51-8.15 1.32-11.76 3.25-3.36 1.81-6.2 4.21-6.69 8.21-.24 1.94.07 3.9.53 5.78.14.56.29 1.11.45 1.66l.12.41c.07.59.23.54.47-.13.05.14-2.45 1.25-2.64 1.33-3.27 1.49-7.14 4.12-6.23 8.27.45 2.07 3.19 1.33 3.41-.46.39-3.33 4.39-4.19 6.86-5.49 1.74-.92 2.5-2.2 2.03-4.17-.39-1.63-.98-3.2-1.12-4.88-.13-1.55.05-3.12 1.01-4.4.86-1.15 2.17-1.92 3.4-2.62 3.11-1.77 6.46-3.9 10.15-3.9 1.89 0 1.78-2.64 0-2.86Zm-13.58 24.45c-1.22.29-2.39.87-3.27 1.77-1.02 1.05-1.38 2.3-1.69 3.69-.06.26-.12.51-.21.76l-.08.23c.1-.29-.05.1-.08.16q-.195.39-.42.75c-.01.02-.25.35-.24.36l.14-.17c-.06.08-.12.15-.18.22-.35.4-.74.74-1.14 1.09-.36.32.35-.23-.05.04l-.36.24c-.24.16-.47.33-.71.49-1.75 1.09-.62 3.82 1.4 3.33 2.64-.64 4.54-2.95 5.43-5.41.23-.64.34-1.3.41-1.97 0-.06.06-.57.03-.33-.03.26.04-.19.05-.24.06-.28.15-.54.26-.8-.11.29-.04.09.05-.08q.075-.15.18-.3c.04-.06.08-.12.12-.17-.11.14-.13.16-.05.06.08-.09.15-.18.23-.26.1-.1.2-.19.3-.29.31-.27-.23.12.13-.09.05-.03.4-.21.14-.1.13-.05.27-.09.4-.12.77-.2 1.24-1.05 1.03-1.82s-1.04-1.22-1.82-1.03Zm7.34-5.78c-.22 1.74-.36 3.82.79 5.27.85 1.07 2.4 1.93 1.25 3.44-.48.63-1.3.86-1.73 1.58-.69 1.13-.34 2.42-.08 3.63.41 1.87.82 3.53-.53 5.05s.33 3.69 2.14 2.77c2.12-1.07 2.7-3.89 2.48-6.05-.07-.68-.19-1.35-.33-2.01-.08-.38-.17-.75-.25-1.13-.04-.21-.1-1.24-.27-.45-.12.56.03.22.31.01.23-.17.46-.35.67-.55.38-.38.73-.84.98-1.32 1.03-1.94.89-4.34-.57-6.02-.5-.58-1.32-.98-1.41-1.77-.12-1.1.1-2.25-.51-3.25-.88-1.45-2.75-.68-2.94.8m-5.12 12.49s.08.58.05.32c.02.18.04.37.05.55.01.42-.01.84-.06 1.25.04-.3-.02.11-.04.21-.03.18-.06.36-.11.54s-.09.35-.15.53c-.03.09-.07.17-.09.26-.05.18.11-.21-.03.06s-.3.54-.47.8.01-.05.05-.05c-.02 0-.12.15-.15.18-.13.15-.26.29-.4.42-.06.05-.12.1-.17.16-.11.1-.08.16.07-.04-.07.1-.27.19-.38.26-.09.06-.34.13-.4.22 0 0 .32-.12.14-.06-.09.03-.18.07-.27.09-.51.16-.99.2-1.41.6-.78.72-.6 2.15.34 2.65s2.18.04 3.06-.45c1.42-.78 2.4-2.1 2.97-3.59.69-1.8.49-3.78.08-5.62-.16-.71-1.01-1.19-1.7-.97-.77.25-1.1.94-.97 1.7Zm15.01-2.43c-.36 1.52-.06 3.2.13 4.72.11.89.23 1.78.34 2.67s.04 2.11.72 2.78c.81.81 2.03.54 2.64-.34.52-.76.12-2.03 0-2.85s-.25-1.73-.37-2.6c-.02-.12-.03-.24-.05-.35-.04-.28-.02-.16 0 .05-.04-.35-.09-.69-.14-1.04-.03-.22-.07-.44-.1-.66-.02-.14-.11-.88-.04-.27-.05-.46-.11-.93-.19-1.39l-.03-.18c-.06-.34.03.38.02.15 0-.09-.02-.19-.02-.28 0-.74-.56-1.36-1.29-1.46s-1.46.34-1.63 1.06Zm-.46-15.74c1.65 0 1.65-2.56 0-2.56s-1.65 2.56 0 2.56"/><path d="M106.32 45.73c-5.43-1.39-11.93-1.29-14.87 4.3-.73 1.39-1.09 2.89-1.59 4.36-.73 2.14-1.18 4.3-1.68 6.51s-1.24 4.54-2.08 6.75c-1.65 4.34-3.64 8.64-4.32 13.28-.58 3.97-.31 8.04 1.34 11.74s4.98 6.34 8.92 7.48c4.49 1.31 9.74 1.56 14.34.87 5.13-.78 9.83-3.06 14.78-4.5 2.42-.71 4.84-1.13 7.36-1.2 2.76-.08 5.4.4 8.04 1.16 1.9.54 3.28-2.42 1.38-3.28-4.15-1.9-8.83-2.56-13.35-1.93-4.21.59-8.15 2.25-12.13 3.65-1.95.69-3.93 1.31-5.97 1.71-2.25.44-4.54.45-6.82.3-3.64-.24-7.9-.58-10.64-3.28-5.48-5.38-2.74-14.24-.41-20.36 1.61-4.24 3.19-8.38 3.96-12.87.4-2.33 1.01-4.61 1.67-6.88.12-.41.25-.8.4-1.2s-.08.13.12-.27c.11-.22.22-.45.34-.66.44-.77.94-1.36 1.54-1.79 2.47-1.77 5.96-1.42 8.85-.85 1.96.39 2.81-2.52.83-3.03Z"/><path d="M106.96 64.55c-.44 1.44-.92 2.82-1.57 4.07-.49.95-1.03 1.86-1.45 2.85-.67 1.58-1.07 3.18-1.44 4.85-.18.83-.39 1.66-.7 2.44-.35.85-.95 1.56-.98 2.53-.03 1.16 1.06 1.71 2.06 1.57 1.99-.29 2.85-3.26 3.24-4.88.41-1.69.7-3.4 1.28-5.05.1-.27.2-.54.31-.81-.14.35 0 0 .03-.07.09-.22.19-.44.28-.66.21-.5.42-1 .6-1.51.6-1.62.86-3.27 1.07-4.98.19-1.61-2.29-1.81-2.73-.37Z"/><path d="M100.8 83.9c-.32.5-.3.31.21.21.38-.08.75-.17 1.13-.23.73-.13 1.47-.21 2.22-.26 1.53-.1 3.06-.14 4.59-.09 3.03.1 6.05.41 9.08.65 2.8.21 6.04.74 8.64-.57 1.22-.61 2.25-1.39 3.59-1.76s2.63-.3 3.98-.48c2.06-.27 2.44-2.78.48-3.58-2.87-1.17-6.62.02-9.13 1.52-.54.32-1.05.71-1.69.82-.68.12-1.45.03-2.14.01-1.71-.04-3.42-.17-5.13-.31-3.32-.27-6.64-.6-9.98-.41-1.7.09-3.39.34-5.05.76-1.33.34-2.98.71-3.58 2.1-.8 1.86 1.62 3.4 2.78 1.62m32.62 2.79c.28.01.56.03.83.06.08 0 .16.02.24.03-.27-.04-.31-.04-.12-.01l.35.06c.56.1 1.13.22 1.68.37s1.06.33 1.58.54c.13.05.07.03-.17-.07.07.03.14.06.22.1.24.11.47.21.72.3.05.02.11.04.16.07-.36-.15-.29-.12.22.09.15.05.29.09.45.12.72.13 1.55-.08 1.92-.78s.26-1.48-.27-2.06c-.57-.62-1.34-.95-2.1-1.25-.57-.23-1.15-.42-1.75-.57-1.29-.33-2.63-.45-3.96-.38-.89.05-1.75.75-1.7 1.7s.75 1.66 1.7 1.7Z"/><path d="M140.86 88.11c1.87 0 1.87-2.91 0-2.91s-1.87 2.91 0 2.91"/><path d="M137.99 83.44c-1.58-2.63-2.15-5.61-.96-8.54.61-1.51 1.76-2.68 1.95-4.36.1-.85-.06-1.67-.36-2.47-.2-.52-.64-1.15-.46-1.68l-2.41 1.37c5.62.87 11.21.88 16.83 0l-2.47-1.88c0-.34-.05-.11-.28.15-.28.33-.55.67-.75 1.05-.59 1.13-.34 2.25.29 3.3 1.01 1.66 1.75 3.4 1.94 5.36.2 1.94-.03 3.86-.66 5.7-.54 1.57-1.69 3.99-3.4 4.54-2.39.77-1.37 4.56 1.04 3.78 4.79-1.54 6.93-7.84 6.99-12.4.03-2.4-.48-4.78-1.46-6.96-.24-.54-.51-1.07-.82-1.57-.05-.08-.33-.66-.43-.66-.2.8-.21 1.04-.03.71.06-.11.07-.13.04-.06.85-.65 1.43-1.86 1.42-2.91-.01-1.38-1.23-2.08-2.47-1.88-4.86.77-9.89.78-14.75 0-1.09-.18-2.04.27-2.41 1.37-.3.9-.23 1.85.05 2.75.19.61.69 1.33.65 1.99-.05.78-.82 1.58-1.16 2.25-.43.83-.79 1.72-1 2.63-.83 3.55.03 7.73 2.61 10.38 1.24 1.27 3.39-.36 2.47-1.9Z"/><path d="M132.53 48.02c.55.99 1.03 1.92 1.76 2.8.69.83 1.56 1.9 2.74 1.9s1.92-1.02 2.1-2.07c.22-1.26.37-2.53.55-3.8h-3.4c.17 1.23-.37 2.41-.04 3.67s1.23 2.32 2.44 2.72 2.48-.07 3.3-1.03c.97-1.14 1.81-2.43 2.69-3.64 1.21-1.65-1.43-3.62-2.81-2.17-.55.58-1.01 1.22-1.45 1.89-.28.42-.63 1.01-1.04 1.15.17-.06-.58.03-.66.04-.46.06-.92.14-1.34.38-1.04.59-1.55 1.89-1.09 3 .19.47.53.86.73 1.34s.28 1.02.39 1.52c.24 1.04.43 2.1.59 3.15.33 2.16.81 4.35.8 6.55 0 1.43 2.24 1.43 2.22 0-.04-2.34.12-4.63-.21-6.95-.16-1.12-.37-2.23-.6-3.33-.18-.84-.63-2.23-.39-2.93l-.48.82q-.63.225-.12.09c-.09.03-.02.03.22-.02.39-.06.77-.08 1.15-.2.64-.22 1.22-.6 1.7-1.07.86-.85 1.3-2 2.1-2.88-.94-.72-1.87-1.45-2.81-2.17-.53.71-1.07 1.41-1.6 2.12-.09.12-.68.71-.67.87-.2.18-.1.18.29 0 .22.12.31.13.26.02.01-.04-.14-.23-.16-.33-.08-.33.01-.75.04-1.08.06-.84.07-1.6-.07-2.43-.14-.85-1.15-1.38-1.93-1.26-.93.14-1.42.83-1.53 1.73-.08.73-.17 1.45-.25 2.18-.05.42-.01 1.29-.2 1.56l.6-.6-.18.08 1.29-.17c-.34-.07-.99-.94-1.26-1.23-.45-.5-.95-1.01-1.3-1.59-.92-1.53-3.27-.17-2.4 1.4Z"/><path d="M138.97 63.62c-1.2-.41-2.5-.93-3.39-1.72-1.07-.95-1.45-2.12-1.88-3.5l-2.46 1.89a27.6 27.6 0 0 1 6.76 4.63c.68.64 1.77.68 2.45 0 1.3-1.3 2.71-2.7 4.25-3.67-.86-.66-1.71-1.32-2.57-1.98-.06.21-.1.43-.11.65q-.045.33 0 .06c-.03.18-.07.35-.12.53s-.1.34-.16.51c.11-.3-.11.23-.15.3-.1.19-.21.37-.32.54-.04.06-.35.45-.14.2-.27.32-.58.61-.91.87-.77.61-.69 2.02 0 2.65.82.75 1.83.66 2.65 0 1.78-1.42 3.06-4 2.64-6.3-.25-1.4-2.02-1.55-2.92-.77-.73.62-1.6 1.24-2.36 1.9s-1.5 1.35-2.21 2.07h2.45c-2.23-2.07-4.75-3.8-7.51-5.09-.62-.29-1.3-.32-1.86.13-.5.4-.82 1.12-.6 1.76.63 1.9 1.4 3.75 3.06 4.99 1.37 1.02 3.11 1.48 4.72 1.95.7.21 1.47-.25 1.66-.94.2-.74-.25-1.43-.94-1.66Zm11.16 2.03c1.53-1.29 2.43-3.1 3.12-4.94.32-.87.57-1.76.85-2.64.14-.45.29-.9.46-1.35.07-.2.15-.4.23-.59.04-.09.12-.29.04-.09.09-.21.19-.4.24-.62.14-.64-.09-1.32-.67-1.66-.52-.3-1.38-.27-1.78.23-.64.82-.96 1.89-1.3 2.87-.3.88-.57 1.76-.87 2.64-.15.42-.29.84-.45 1.25-.04.11-.07.16 0 .02-.04.11-.09.21-.14.31-.1.21-.2.41-.3.61-.2.38-.43.74-.68 1.09.13-.17 0 0-.06.07-.07.09-.15.17-.23.25-.16.17-.32.33-.5.48-.59.52-.53 1.53 0 2.07.6.6 1.46.51 2.07 0Z"/><path d="M155.25 53.41c-.29-.94-.56-1.89-.79-2.85q-.165-.69-.3-1.38c-.02-.12-.04-.24-.06-.37l-.03-.22c-.02-.1-.01-.1 0 .02q.03.21 0-.06l-.02-.15c-.02-.15-.03-.3-.04-.44-.08-.94-.77-1.85-1.8-1.8s-1.75.79-1.8 1.8.08 2.13.41 3.12c.36 1.08.94 2.42 1.86 3.14s2.08.49 2.89-.25c.36-.33.68-.72 1-1.09.74-.87 1.42-1.8 2.04-2.76l-3.2-1.87c-.4.9-.81 1.81-1.21 2.71-.23.51-.53 1.04-.65 1.58-.19.85-.01 1.78.64 2.4.88.82 2.17.85 3.3.86 1.1 0 2.2-.13 3.28-.36.78-.17 1.43-1.04 1.39-1.83s-.56-1.65-1.39-1.83c-1.36-.28-3.02-.08-3.98 1.04-.59.69-.72 1.63-.14 2.38s1.5.84 2.34.47c-.36.15-.28.12.24-.1.19-.09.15-.08-.1.03.07-.08.33-.11.43-.14.47-.12-.3-.04.07-.01h.26c-.29-.05-.33-.05-.12-.01v-3.65l-.59.12c-.1.02-.2.03-.3.05.23-.03.27-.03.13-.02-.38.04-.75.07-1.13.09-.35.01-.7 0-1.06-.01-.15 0-.3-.02-.45-.03-.25-.02-.2-.02.14.02-.07-.01-.14-.03-.21-.05.43.12.72.41.87.89q-.075.975.03.57c.2-.44-.13.26.05-.14.15-.33.29-.67.44-1 .31-.72.63-1.43.94-2.15.21-.47.33-.91.19-1.43-.12-.43-.45-.9-.85-1.11-.91-.48-1.99-.21-2.54.67-.2.33-.42.65-.64.96-.11.16-.22.31-.34.47-.06.08-.12.15-.17.23.13-.16.15-.19.07-.09-.23.28-.45.56-.69.83-.13.15-.26.29-.39.43-.07.07-.13.14-.2.21-.41.38 0 .29 1.24-.29l.81.47c-.2-.17.04.02.04.09 0-.04-.16-.22-.19-.27-.11-.17-.21-.34-.31-.51l-.12-.24c-.03-.05-.17-.41-.08-.15.08.24-.02-.05-.03-.09-.04-.1-.08-.21-.11-.32-.12-.36-.19-.73-.26-1.1-.04-.23.03.37 0 .02 0-.09-.01-.18-.02-.27-.01-.22 0-.45 0-.67h-3.6c.24 2.35.78 4.61 2.06 6.62.41.65 1.2.93 1.91.63s1.11-1.07.89-1.81Zm-4.59 10.98c0-.06.01-.11.02-.17l-.05.4c.13-.89 0-1.78.13-2.68l-.06.44c.09-.64.25-1.28.5-1.88l-.17.41c.06-.13.11-.26.17-.38-1.05-.44-2.11-.89-3.16-1.33-.11.75-.2 1.49-.26 2.25-.05.66-.13 1.3.03 1.95.26 1.08 1.27 1.88 2.38 1.86.51-.01 1.03-.18 1.45-.47.33-.23.63-.51.95-.76l-.37.29c.34-.26.7-.51 1.09-.68l-.44.18c.11-.04.22-.08.34-.1l-.49.07c.09-.01.18-.02.27 0l-.49-.07c.07.01.13.03.19.05l-.44-.18s.08.04.12.07l-.37-.29s.05.04.07.07l-.29-.37s.03.05.04.08l-.18-.44s.02.06.02.09l-.07-.48v.14l.07-.48c0 .06-.03.12-.05.18l.18-.43c-.03.06-.07.13-.11.18l.28-.36s-.03.04-.05.05l.36-.28s-.04.03-.06.03l.42-.18h-.04c.16-.01.31-.03.47-.05h-.08l.46.06h-.04c-.7-.22-1.59.12-1.94.78s-.29 1.53.27 2.08c.51.51 1.22.68 1.92.53.64-.14 1.14-.64 1.39-1.23.45-1.06.11-2.33-.94-2.9-.94-.51-2-.31-2.9.17-.62.34-1.15.81-1.71 1.24l.37-.29c-.12.09-.25.17-.38.23l.44-.18c-.07.03-.13.04-.2.06l.49-.07h-.2l.49.07s-.09-.02-.13-.04l.44.18s-.07-.04-.1-.06l.37.29s-.06-.05-.08-.08l.29.37a.6.6 0 0 1-.11-.2l.18.44c-.03-.1-.05-.19-.07-.3l.07.48c-.05-.47.02-.96.05-1.43.03-.55.04-1.09.03-1.65a1.75 1.75 0 0 0-1.5-1.7c-.89-.12-1.6.42-1.9 1.24-.33.92-.53 1.85-.6 2.83-.08 1.04 0 2.17.52 3.09.3.54 1.04.86 1.64.67.24-.08.46-.2.64-.37.3-.27.38-.65.43-1.03Zm-23.39-16.18c.18-.03.35-.06.53-.08l-.46.06c.51-.07 1.01-.16 1.51-.23l-.46.06c.38-.05.8-.05 1.17-.14.24-.06.49-.11.73-.18.34-.09.62-.3.83-.58s.36-.62.34-.97c-.01-.28-.09-.56-.22-.81-.17-.32-.6-.67-.96-.74-.26-.05-.52-.08-.78-.1-.14-.02-.28-.04-.41-.04-.12 0-.24.02-.35.04-.27.03-.54.07-.82.11-.53.08-1.04.19-1.55.36-.42.14-.78.39-1 .77-.21.36-.3.89-.17 1.29s.38.8.77 1l.4.17c.3.08.6.08.89 0Zm7.06 47.15c-.72 5.41-1.54 10.99-4.41 15.64-4.92 7.98-14.74 11.45-24.02 12.77-10.31 1.47-20.88.95-31.01-1.44-8.06-1.9-18.76-4.69-24.01-11.89-4.74-6.49-5.12-16.27.3-22.49 3.46-3.96 9.26-4.92 14.5-4.55s10.42 1.78 15.67 1.52c-.64 6.59 4.89 12.57 11.21 14.53 6.33 1.96 13.18.81 19.6-.81 6.42-1.61 12.87-3.69 19.49-3.52"/><path d="M132.87 95.36c-.36 2.7-1.07 5.41-1.83 8.04-.74 2.57-1.7 5.01-3.23 7.23-2.5 3.62-6.35 6.2-10.34 7.91-4.32 1.85-9.04 2.82-13.69 3.34-5.88.65-11.82.67-17.71.07-5.18-.53-10.28-1.64-15.3-3-4.25-1.15-8.47-2.56-12.27-4.83-3.53-2.1-6.47-5.06-7.89-8.98-1.44-3.97-1.58-8.54.2-12.43 5.47-11.94 20.84-5.03 30.54-5.55l-2.23-2.23c-.49 7.49 5.14 13.77 11.82 16.32 8.3 3.17 17.5.69 25.72-1.46 4.92-1.29 9.87-2.51 14.99-2.42 2.87.05 2.87-4.4 0-4.45-8.32-.15-16.11 2.92-24.16 4.52-6.92 1.38-14.96 1.54-20.35-3.74-2.38-2.33-3.88-5.39-3.56-8.77.11-1.18-1.11-2.25-2.23-2.23-6.27.16-12.37-1.83-18.64-1.62-5.25.18-10.51 1.84-13.84 6.11-6.42 8.23-4.68 20.8 2.88 27.7 3.74 3.41 8.43 5.54 13.19 7.13s10.19 2.89 15.37 3.71c6.43 1.01 12.97 1.35 19.47.88 5.58-.4 11.24-1.23 16.53-3.12s10.58-4.96 14.09-9.66c1.86-2.5 3.12-5.4 3.94-8.4.91-3.31 1-6.68 1.45-10.06.1-.78-.74-1.45-1.45-1.45-.87 0-1.35.68-1.45 1.45Zm-15.76-27.43c2.17 0 2.18-3.38 0-3.38s-2.18 3.38 0 3.38m12.82 0c2.17 0 2.18-3.38 0-3.38s-2.18 3.38 0 3.38"/><path d="M68.22 102.21c2.55 7.4 4.43 15.83.9 22.82-3.84 7.59-12.71 10.93-20.79 13.61 2.5 8.99 4.24 18.19 5.2 27.48.12 1.2-.05 2.81-1.24 3.03-3.94-10.6-8.66-20.91-14.11-30.82-.65-1.19-1.34-2.5-1.06-3.83.7-3.32 6.06-2.97 7.96-5.78 1.6-2.37-.03-5.46-.97-8.16-.97-2.8-1.15-5.81-1.15-8.77 0-5.45.58-11 2.75-16 2.16-5 6.06-9.44 11.18-11.32"/><path d="M66.67 102.64c2.43 7.5 4.39 16.71-.76 23.56-4.29 5.7-11.66 8.16-18.16 10.31-1.13.37-1.87 1.51-1.54 2.71 1.36 4.97 2.52 9.99 3.44 15.05.46 2.53.88 5.07 1.26 7.61.19 1.27.38 2.54.56 3.81.07.46.06.91.12 1.37.07.61-.37.42.2.23l2.35 1.34c-2.7-6.72-5.37-13.42-8.49-19.96-1.49-3.12-3.05-6.2-4.68-9.25-.44-.83-.91-1.64-1.34-2.47-.29-.55-.73-1.28-.64-1.95.1-.77.96-1.16 1.63-1.47 1.99-.94 4.23-1.45 5.7-3.22 2.17-2.61 1.43-5.83.36-8.73-2.36-6.42-2.17-13.92-.58-20.54.8-3.31 2.11-6.5 4.21-9.2s4.59-4.39 7.5-5.8c1.88-.91.56-3.9-1.41-3.34-6.1 1.73-10.47 7.32-12.81 12.96-2.68 6.48-3.28 14.34-2.38 21.26.24 1.85.69 3.6 1.35 5.35.51 1.35 1.45 3.14 1.15 4.64-.39 1.96-3.57 2.54-5.07 3.27-2.56 1.24-4.11 3.68-3.27 6.58.47 1.63 1.47 3.12 2.28 4.6.89 1.66 1.77 3.33 2.62 5.01 3.82 7.53 7.43 15.29 10.18 23.29.34.98 1.3 1.62 2.35 1.34 2.66-.73 2.81-3.54 2.66-5.83-.21-3.07-.59-6.15-1.07-9.2-.96-6.04-2.28-12.02-3.93-17.91l-1.54 2.71c6-2.01 12.12-4.24 17.01-8.38 5.36-4.54 7.62-11.28 6.93-18.18-.43-4.27-1.64-8.4-3.09-12.42-.69-1.92-3.75-1.14-3.1.86Z"/><path d="M93.04 102.21c2.55 7.4 4.43 15.83.9 22.82-3.84 7.59-12.71 10.93-20.79 13.61 2.5 8.99 4.24 18.19 5.2 27.48.12 1.2-.05 2.81-1.24 3.03-3.94-10.6-8.66-20.91-14.11-30.82-.65-1.19-1.34-2.5-1.06-3.83.7-3.32 6.06-2.97 7.96-5.78 1.6-2.37-.03-5.46-.97-8.16-.97-2.8-1.15-5.81-1.15-8.77 0-5.45.58-11 2.75-16 2.16-5 6.06-9.44 11.18-11.32"/><path d="M91.49 102.64c2.43 7.5 4.39 16.71-.76 23.56-4.29 5.7-11.66 8.16-18.16 10.31-1.13.37-1.87 1.51-1.54 2.71 1.36 4.97 2.52 9.99 3.44 15.05.46 2.53.88 5.07 1.26 7.61.19 1.27.38 2.54.56 3.81.07.46.06.91.12 1.37.07.61-.37.42.2.23.78.45 1.57.89 2.35 1.34-2.7-6.72-5.37-13.42-8.49-19.96-1.49-3.12-3.05-6.2-4.68-9.25-.44-.83-.91-1.64-1.34-2.47-.29-.55-.73-1.28-.64-1.95.1-.77.96-1.16 1.63-1.47 1.99-.94 4.23-1.45 5.7-3.22 2.17-2.61 1.43-5.83.36-8.73-2.36-6.42-2.17-13.92-.58-20.54.8-3.31 2.11-6.5 4.21-9.2s4.59-4.39 7.5-5.8c1.88-.91.56-3.9-1.41-3.34-6.1 1.73-10.47 7.32-12.81 12.96-2.68 6.48-3.28 14.34-2.38 21.26.24 1.85.69 3.6 1.35 5.35.51 1.35 1.45 3.14 1.15 4.64-.39 1.96-3.57 2.54-5.07 3.27-2.56 1.24-4.11 3.68-3.27 6.58.47 1.63 1.47 3.12 2.28 4.6.89 1.66 1.77 3.33 2.62 5.01 3.82 7.53 7.43 15.29 10.18 23.29.34.98 1.3 1.62 2.35 1.34 2.66-.73 2.81-3.54 2.66-5.83-.21-3.07-.59-6.15-1.07-9.2-.96-6.04-2.28-12.02-3.93-17.91l-1.54 2.71c6-2.01 12.12-4.24 17.01-8.38 5.36-4.54 7.62-11.28 6.93-18.18-.43-4.27-1.64-8.4-3.09-12.42-.69-1.92-3.75-1.14-3.1.86Zm10.92 15.84c-.69 7.85-1.38 15.82-.03 23.58 1.24 7.12 4.16 13.88 5.26 21.03.42 2.77 1.1 6.23 3.82 6.9.55-5.73-2-21.01-2.61-26.73-1.6-15.18 4.54-20.55 7.11-35.6.15-.86.27-1.79-.16-2.55s-1.67-1.06-2.16-.34"/><path d="M100.91 118.48c-.55 5.13-1.11 10.28-1.04 15.44.06 5.08.83 10.03 2.16 14.93s2.84 9.43 3.66 14.3c.58 3.44 1.37 7.61 5.28 8.64 1.23.32 2.28-.59 2.36-1.8.25-3.98-.32-8.09-.79-12.03-.5-4.28-1.13-8.54-1.66-12.82-.62-4.93-.69-9.83.43-14.69 1.06-4.61 2.91-8.99 4.3-13.5.97-3.14 1.86-6.4 2.27-9.67.2-1.57-.09-3.29-1.52-4.22-1.28-.83-2.96-.77-4.03.37-1.66 1.76 1.02 4.43 2.65 2.65l-.58.13q-.285-.33-.15-.06c-.05.08-.01.7-.02.75-.06.68-.23 1.37-.36 2.04-.27 1.37-.57 2.73-.93 4.09-.59 2.26-1.31 4.48-2.06 6.69-1.4 4.08-2.9 8.15-3.57 12.43-1.34 8.51.61 17.04 1.62 25.48.48 4.05 1.14 8.29.67 12.36.79-.6 1.57-1.2 2.36-1.8-1.24-.4-1.67-1.93-1.96-3.07-.48-1.88-.66-3.83-1.09-5.73-.99-4.36-2.47-8.58-3.62-12.89-2.47-9.24-2.04-18.58-1.39-28.04.14-1.95-2.8-1.89-3 0Zm17.15 0c-.69 7.85-1.38 15.82-.03 23.58 1.24 7.12 4.16 13.88 5.26 21.03.42 2.77 1.1 6.23 3.82 6.9.55-5.73-2-21.01-2.61-26.73-1.6-15.18 4.54-20.55 7.11-35.6.15-.86.27-1.79-.16-2.55s-1.67-1.06-2.16-.34"/><path d="M116.56 118.48c-.55 5.13-1.11 10.28-1.04 15.44.06 5.08.83 10.03 2.16 14.93 1.29 4.75 2.84 9.43 3.66 14.3.58 3.44 1.37 7.61 5.28 8.64 1.23.32 2.28-.59 2.36-1.8.25-3.98-.32-8.09-.79-12.03-.5-4.28-1.13-8.54-1.66-12.82-.62-4.93-.69-9.83.43-14.69 1.06-4.61 2.91-8.99 4.3-13.5.97-3.14 1.86-6.4 2.27-9.67.2-1.57-.09-3.29-1.52-4.22-1.28-.83-2.96-.77-4.03.37-1.66 1.76 1.02 4.43 2.65 2.65l-.58.13q-.285-.33-.15-.06c-.05.08-.01.7-.02.75-.06.68-.23 1.37-.36 2.04-.27 1.37-.57 2.73-.93 4.09-.59 2.26-1.31 4.48-2.06 6.69-1.4 4.08-2.9 8.15-3.57 12.43-1.34 8.51.61 17.04 1.62 25.48.48 4.05 1.14 8.29.67 12.36.79-.6 1.57-1.2 2.36-1.8-1.24-.4-1.67-1.93-1.96-3.07-.48-1.88-.66-3.83-1.09-5.73-.99-4.36-2.47-8.58-3.62-12.89-2.47-9.24-2.04-18.58-1.39-28.04.14-1.95-2.8-1.89-3 0Zm18.97-18.59c2.31.73 4.73 1.04 7.15 1.1s5.08.27 7.16-1.19c1.8-1.27 3.26-3.19 4.19-5.18.5-1.08.92-2.21 1.17-3.38.25-1.16.42-2.76-.28-3.79-.64-.95-1.79-.86-2.44 0-.56.73-.72 1.9-.96 2.78-.23.83-.54 1.61-.93 2.38-.73 1.42-1.59 3.03-2.95 3.95-1.47 1-3.58.79-5.28.84-2.03.06-4.05.12-6.04-.35-1.85-.43-2.6 2.28-.79 2.85Z"/><path d="M145.14 94.15c.07-.38.08-.75.1-1.13 0-.14.02-.28.03-.42 0-.07.01-.14.02-.21-.04.28-.04.32-.02.14.04-.25.1-.51.1-.77 0 .53 0 .09.02-.06.05-.27.12-.55.2-.81.04-.13.08-.27.13-.4.04-.12.13-.27.15-.39-.11.26-.13.3-.05.13.21-.5.24-.56.08-.19.07-.11.12-.26.18-.38.12-.25.26-.49.39-.74.11-.22.21-.45.29-.69.06-.16.05-.12-.05.1.03-.06.06-.13.09-.19.32-.7.25-1.47-.39-1.97-.26-.2-.59-.34-.92-.33-.43.02-.74.18-1.08.45-.58.45-1.03.99-1.37 1.65s-.61 1.33-.79 2.03c-.37 1.44-.51 3.17.13 4.55.25.54.97.8 1.51.72s1.15-.5 1.26-1.09ZM56.54 82.2c-5.68 1.23-10.36 4.5-15.09 7.69-4.06 2.74-9.95 7.02-15.15 5.28s-4.94-8.62-2.87-12.48c3.01-5.6 9.13-6.33 14.67-7.96 3.24-.96 6.56-2.42 8.8-5.05 2.15-2.53 3.45-5.9 2.34-9.18-.57-1.67-3.44-1.54-3.27.44.59 6.9-7.2 8.88-12.4 10.21-3.17.81-6.46 1.73-9.17 3.65-2.61 1.84-4.57 4.36-5.77 7.31-2.24 5.48-1.34 12.73 3.82 16.27 5.61 3.85 12.89.62 17.92-2.64 5.53-3.59 10.57-8.64 17.02-10.51 1.95-.57 1.13-3.46-.83-3.03Z"/><path d="M47.55 59.86c-2.41.72-5.27.07-6.86-1.87-1.59-1.95-1.54-5.15.35-6.81-.86 1.09-.35 2.96.94 3.47.65.26 1.37.2 2.07.24 1.19.07 2.44.49 3.15 1.45s.62 2.54-.39 3.16"/><path d="M48.14 58.85c-.18-.12-.36-.21-.58-.26a4 4 0 0 0-.5-.06c.3.03.22.02-.25-.04-.29-.02-.58.01-.88 0q-.255 0-.51-.03c-.14-.01-.45.03-.05 0-.3.02-.7-.14-.98-.22l-.36-.12c-.08-.03-.16-.06-.23-.09q.36.15.09.03c-.26-.14-.51-.27-.75-.43-.07-.05-.14-.09-.2-.14.22.17.25.2.09.07-.12-.11-.25-.22-.37-.33-.09-.09-.18-.17-.27-.26-.06-.06-.11-.12-.17-.19-.14-.16-.11-.13.08.11-.05-.21-.32-.48-.42-.69-.03-.07-.07-.14-.1-.21.12.3.15.35.07.16-.05-.15-.1-.29-.14-.44a4 4 0 0 1-.08-.34c-.11-.56 0 .33-.01-.04-.02-.27-.03-.54-.02-.81 0-.15.04-.31.04-.46.02.61-.02.19.02-.02l.09-.33c.02-.07.05-.14.07-.22.08-.2.05-.14-.08.17.14-.21.25-.47.38-.69.12-.17.08-.13-.12.14.05-.06.1-.12.15-.17.1-.11.21-.22.33-.32-1.08-.83-2.15-1.66-3.23-2.49-.96 1.3-.85 3.13-.15 4.51.81 1.6 2.48 2.21 4.18 2.27.34.01.67.02 1.01.04.42.02-.49-.09.03.01.15.03.3.06.44.11.08.02.16.05.25.08.21.08.16.06-.13-.06.01.05.3.15.34.18.07.04.14.09.21.13.18.13.14.1-.11-.09.05.08.2.2.27.27.27.28-.28-.39.02.06.2.3-.12-.44-.04-.08l.06.21c.04.21.03.14-.02-.22-.01.1 0 .23.01.33.02.34.13-.53 0 0-.03.1-.09.2-.1.3.14-.32.17-.38.08-.19-.03.06-.07.12-.11.18.28-.37.24-.32-.13.16-.12.16-.08.11.11-.15-.53.62-.77 1.55-.29 2.28.44.68 1.31 1.12 2.13.87 1.97-.63 2.67-2.75 2.26-4.63-.38-1.74-1.86-2.9-3.45-3.48-.75-.27-1.57-.36-2.36-.39-.15 0-.3 0-.45-.01-.1 0-.2 0-.3-.01-.23-.02-.2-.01.1.03l-.29-.06c-.23-.07-.19-.05.11.07a.9.9 0 0 0-.27-.15c.28.22.33.27.18.13-.05-.05-.1-.09-.14-.15-.23-.23.28.45.02 0l-.05-.09c-.09-.19-.06-.12.08.21 0-.1-.07-.3-.11-.4.04.38.05.46.04.24v-.15c-.04-.45-.12.43-.03.09.01-.07.03-.13.05-.2.07-.2.04-.13-.1.21.08-.1.14-.24.22-.35.29-.39.35-1.14.21-1.58s-.37-.79-.74-1.07c-.83-.64-1.93-.53-2.7.16-1.96 1.77-2.58 4.83-1.67 7.28.51 1.38 1.34 2.54 2.54 3.41 1.11.8 2.44 1.19 3.78 1.36.74.09 1.45.04 2.19-.06.8-.12 1.77-.46 2.13-1.26.27-.61.15-1.21-.42-1.6Z"/></svg>