<?xml version="1.0" encoding="UTF-8"?><svg xmlns="http://www.w3.org/2000/svg" viewBox="0 0 180 180"><path d="M64 40.19a350 350 0 0 0-23.62 35.02c-7.03 11.9-13.45 24.13-19.63 36.49-1.59 3.17-3.16 6.35-4.73 9.53s-3.11 6.18-4.28 9.44c-2.1 5.86-2.69 12.86 2.02 17.65 4.19 4.26 10.71 4.75 16.34 4.97 7.94.3 15.88.79 23.83 1.09 15.56.59 31.14.63 46.7.07 7.78-.28 15.55-.77 23.31-1.41 4.83-.4 9.68-.34 14.49-1 4.53-.62 9.6-1.93 12.66-5.59 4.75-5.69 1.85-12.78-1.21-18.51-7.27-13.66-14.49-27.36-22.02-40.88-7.4-13.29-15.15-26.37-22.98-39.41-5.74-9.56-14.86-22.37-27.8-19.45-2.7.61-4.81 2.07-6.54 4.2-.65.79-.76 1.88 0 2.66.66.67 2.02.79 2.66 0 3-3.68 8.76-3.71 12.78-1.94 5.24 2.32 9.2 7.24 12.29 11.89 3.81 5.72 7.17 11.78 10.62 17.73 3.69 6.34 7.31 12.72 10.85 19.14 7.09 12.87 14.04 25.82 20.92 38.8 1.71 3.22 3.41 6.43 5.12 9.65 1.43 2.71 3.07 5.7 3.12 8.84.09 4.7-4.14 6.61-8.11 7.56-4.29 1.03-8.74 1.07-13.17 1.28-6.52.3-13.03 1.01-19.56 1.37a709 709 0 0 1-44.71 1.11c-7.45-.05-14.9-.21-22.35-.52-3.64-.15-7.28-.33-10.92-.63-2.76-.23-5.52-.52-8.17-1.36-2.19-.7-4.39-1.89-5.68-3.85-1.48-2.24-1.69-5.01-1.22-7.6 1.11-6.18 4.55-11.87 7.29-17.43 11.69-23.73 24.2-46.97 38.97-68.95 1.86-2.77 3.79-5.5 5.75-8.21.56-.77.13-1.94-.63-2.39-.9-.54-1.82-.12-2.39.63Z"/><path d="M77.86 29.66c8.63-2.09 17.91-3.71 26.23-.61 9.84 3.67 16.17 13.04 21.85 21.87 3.36 5.22 6.71 10.44 10.07 15.66 7.8 12.13 15.6 24.25 23.4 36.38 3.09 4.81 6.2 9.64 8.6 14.84 1.26 2.73 2.34 5.71 1.89 8.69-.4 2.65-1.96 4.97-3.66 7.05a48.73 48.73 0 0 1-20.8 14.84c4.57-4.5 9.53-10.19 8.2-16.46-.4-1.88-1.35-3.59-2.28-5.26-2.73-4.88-5.45-9.76-8.18-14.65-6.42-11.49-12.83-22.98-19.66-34.23-3.04-5.02-6.17-9.98-9.29-14.95l-10.74-17.07c-4.06-6.45-8.43-13.19-15.19-16.7"/><path d="M78.24 31.06c5.67-1.19 11.52-2.21 17.34-1.82 5.3.35 10.22 2.08 14.45 5.32 3.81 2.91 6.93 6.67 9.7 10.56 3.24 4.54 6.16 9.31 9.18 13.99 6.83 10.62 13.69 21.22 20.5 31.86 3.39 5.31 6.81 10.59 10.17 15.92 1.57 2.48 3.11 4.99 4.52 7.57s2.86 5.26 3.58 8.12c.78 3.09-.07 5.71-1.86 8.26-1.67 2.39-3.77 4.54-5.92 6.49a47 47 0 0 1-14.98 9.15c.64 1.09 1.27 2.18 1.91 3.28 2.99-2.95 6-6.18 7.7-10.08 1.85-4.25 1.49-8.38-.63-12.46-2.32-4.46-4.89-8.8-7.35-13.19-2.46-4.41-4.92-8.82-7.4-13.22-4.94-8.78-9.93-17.54-15.16-26.14-5.27-8.66-10.74-17.19-16.14-25.77-5.01-7.96-9.91-17.03-18.54-21.59-2.31-1.22-4.36 2.28-2.05 3.51 7.07 3.74 11.26 10.87 15.38 17.43 5.14 8.17 10.31 16.32 15.4 24.53 10.19 16.41 19.55 33.29 28.96 50.15 1.31 2.35 2.75 4.66 3.9 7.09.92 1.96 1.25 4.05.71 6.16-1.09 4.33-4.49 7.78-7.57 10.83-1.32 1.31.01 3.98 1.91 3.28a51.7 51.7 0 0 0 14.72-8.38c2.12-1.73 4.1-3.63 5.9-5.69 1.97-2.25 3.87-4.67 4.83-7.55 1.98-5.92-1.63-12.19-4.45-17.2-3.2-5.69-6.9-11.09-10.44-16.57-7.28-11.25-14.51-22.52-21.75-33.79-3.36-5.23-6.64-10.52-10.13-15.66-2.94-4.34-6.13-8.6-10.06-12.1-4.7-4.18-10.27-6.86-16.54-7.62-6.92-.84-13.91.75-20.55 2.57-1.82.5-1.05 3.18.77 2.8ZM33.75 53.65c-.93-2.23-1.99-4.39-3.31-6.42-.46-.71-1.46-1.07-2.22-.58s-1.06 1.45-.58 2.22c1.19 1.93 2.28 3.94 3.19 6.01.14.33.62.66.96.74.36.08.7.06 1.04-.08.66-.28 1.24-1.15.93-1.89ZM19.29 64.63c-.97-.2-1.93-.42-2.88-.69s-1.89-.58-2.85-.82c-.75-.19-1.52.18-1.82.9-.27.64-.07 1.62.63 1.93.56.25 1.12.49 1.71.66.48.14.95.26 1.43.38.98.24 1.97.44 2.96.61.42.07.81.07 1.19-.16.32-.19.62-.55.71-.92.17-.77-.23-1.72-1.07-1.89ZM11.9 84.52l-1.9-.04c-.22 0-.43.04-.63.14-.2.07-.38.18-.53.34-.16.15-.27.32-.34.53-.1.19-.15.4-.14.63.02.42.16.86.48 1.15s.72.49 1.15.48l1.9-.04c.41 0 .83-.17 1.13-.47.16-.14.27-.32.33-.51.1-.19.15-.39.14-.61-.02-.41-.15-.84-.47-1.13s-.69-.46-1.13-.47Zm38.7-43.34c2.17 0 2.18-3.38 0-3.38s-2.18 3.38 0 3.38"/><path d="M100.48 96.42c-15.85-3.62-33.37-3.39-47.33 5.9-3.44 2.29-6.59 5.03-9.21 8.24-1 1.22-.82 3.41 1 3.8 4.15.87 7.59 3.61 11.61 4.89 3.75 1.19 7.6 2.06 11.48 2.66 8.19 1.27 16.54 1.54 24.77.52 8.08-1 16.01-3.14 23.27-6.87 1.66-.85 3.72-1.74 5.03-3.1 1.83-1.89.88-4.17-.81-5.72-3.07-2.84-6.56-5.26-10.27-7.18-8.43-4.35-18.14-6.37-27.55-4.81-1.88.31-1.43 3.39.45 3.31 7.54-.32 15.16.69 22.13 3.66 3.48 1.48 6.82 3.41 9.81 5.73.67.52 1.32 1.07 1.96 1.63.3.26.67.75 1.02.93.32.17.12.46.32-.09.23-.62 0-.19-.2-.1-.77.33-1.52.93-2.26 1.35-.83.46-1.67.91-2.52 1.33-13.14 6.49-28.93 7.93-43.27 5.51-3.95-.67-7.85-1.61-11.65-2.87-4.18-1.38-7.78-4.2-12.12-5.14l1 3.8c9.34-11.41 24.05-16 38.41-15.8 4.73.07 9.4.66 14.04 1.61 2.05.42 2.94-2.69.87-3.16Z"/><path d="M81.04 98.16c-4.33.29-8.1 4.02-8.71 8.32s1.76 8.79 5.52 10.97c3.45 2 8.04 2.05 11.37-.15s5.08-6.67 3.84-10.46c-.36-1.11-.95-2.14-1.64-3.08-2.73-3.75-7.64-6.23-12.09-4.94"/><path d="M81.04 96.61c-5.07.16-9.58 3.9-10.57 8.92-1.03 5.25 1.57 10.74 6.08 13.53 4.65 2.89 11.17 2.56 15.22-1.23 3.91-3.66 4.75-9.64 1.91-14.17-1.56-2.49-3.87-4.64-6.54-5.88-2.69-1.24-5.98-1.87-8.75-.53-1.61.78-.86 3.56.93 3.42 1.98-.16 3.69-.3 5.6.41 1.78.67 3.35 1.87 4.55 3.33 2.32 2.82 2.71 6.51.46 9.51-2.34 3.11-6.77 3.71-10.2 2.22-3.26-1.42-5.55-4.88-5.5-8.45.06-3.94 3.36-7.49 7.22-8.03 1.74-.24 1.31-3.11-.41-3.05"/><path d="M77.76 31.88c-.22 21.25.05 42.5.63 63.75.06 2.1 3.27 2.11 3.27 0-.06-21.25-.36-42.51-1.1-63.75-.06-1.79-2.78-1.81-2.8 0M51.19 61.5c4.85 10.59 10.24 20.97 15.91 31.14.99 1.78 3.66.21 2.73-1.59-5.35-10.35-10.68-20.71-16.21-30.97-.87-1.62-3.17-.2-2.43 1.42m45.35 27.06c1.82-6.08 3.45-12.2 5.56-18.19 2.11-6 4.51-11.9 7.19-17.67.87-1.88-1.92-3.52-2.79-1.63a210 210 0 0 0-7.34 18c-2.15 6.1-4.22 12.35-5.5 18.7-.38 1.87 2.32 2.65 2.88.79m-59.07-4.87c2.95 3.31 5.96 6.57 8.98 9.82 1.49 1.6 2.98 3.19 4.48 4.78s3 3.39 4.66 4.88c1.64 1.47 3.71-.71 2.38-2.38s-3-3.2-4.49-4.78c-1.55-1.63-3.09-3.27-4.64-4.9-3.06-3.21-6.11-6.42-9.21-9.59-1.38-1.41-3.45.7-2.15 2.15Zm71.44 16.33c5.54-5.31 10.77-10.94 15.85-16.68.62-.7.69-1.76 0-2.45-.63-.63-1.83-.71-2.45 0-5.08 5.76-10.35 11.33-15.63 16.9-1.4 1.48.76 3.64 2.23 2.23m-61.32 10.86c-3.82-.26-7.67-.22-11.49-.46-1.92-.12-3.83-.28-5.74-.44-1.8-.15-4.04-.75-5.78-.17-1.51.5-1.87 2.56-.45 3.41 1.63.97 3.94.84 5.78.99 1.98.16 3.97.24 5.96.29 3.88.11 7.86.2 11.72-.27 2.11-.26 2.2-3.21 0-3.36Zm73.55.63c3.43-.79 6.88-1.33 10.37-1.8 1.63-.22 3.27-.41 4.91-.56.9-.08 1.81-.15 2.71-.21 1.05-.07 1.94-.07 2.74-.85.84-.82.5-2.01-.34-2.64s-1.81-.43-2.79-.34c-.9.08-1.81.17-2.71.28-1.78.2-3.55.43-5.32.72-3.51.58-6.99 1.42-10.43 2.31-2 .52-1.15 3.55.85 3.09Zm-103.3 38.47c5.68-4.45 12.01-7.97 18.2-11.66 3.06-1.82 6.08-3.71 9-5.75 1.48-1.04 2.93-2.12 4.31-3.28 1.34-1.12 2.81-2.27 3.78-3.75.74-1.13-.69-2.4-1.79-1.79-1.54.87-2.85 2.21-4.27 3.27-1.44 1.08-2.91 2.15-4.4 3.16-2.95 2-6 3.83-9.05 5.67-6.17 3.72-12.36 7.37-17.9 12-1.5 1.25.63 3.29 2.12 2.12Zm38.15 1.2c5.88-9.6 11.46-19.39 17.12-29.12 1.1-1.9-1.84-3.62-2.94-1.72-5.65 9.74-11.39 19.43-16.82 29.29-.95 1.73 1.61 3.23 2.64 1.55m24.77-23.2c.27 4.2.39 8.4.53 12.6.07 2.06.12 4.13.14 6.19s-.37 4.4.42 6.26c.44 1.02 2.23 1.01 2.67 0 .79-1.79.41-4.09.38-6.02-.04-2.14-.1-4.29-.19-6.43-.17-4.21-.57-8.41-1.01-12.6-.19-1.85-3.08-1.92-2.95 0Zm13.62-5.88c2.33 3.55 4.58 7.16 6.71 10.83 1.05 1.81 2.07 3.64 3.07 5.47 1.01 1.84 1.89 3.94 3.3 5.51 1.02 1.15 2.64-.1 2.39-1.39-.4-2.04-1.68-4.07-2.64-5.9-.97-1.85-2-3.67-3.06-5.47-2.16-3.67-4.46-7.23-6.92-10.71-1.21-1.7-4.03-.13-2.85 1.66m15.9 2.01c2.86 2.15 5.51 4.58 8.38 6.72 2.92 2.17 5.94 4.2 9.05 6.08s6.27 3.47 9.53 5c1.64.77 3.29 1.55 4.89 2.4s3.06 2.08 4.72 2.57c1.94.58 3.05-1.83 1.86-3.2-1.11-1.28-3.05-2.1-4.52-2.89s-3.1-1.56-4.67-2.3c-3.33-1.56-6.61-3.19-9.78-5.04-3.07-1.78-6.06-3.72-9.01-5.69-3.01-2.01-6.16-3.85-9.08-5.98-1.42-1.03-2.73 1.3-1.36 2.33Z"/></svg>