<?xml version="1.0" encoding="UTF-8"?><svg xmlns="http://www.w3.org/2000/svg" viewBox="0 0 180 180"><path d="M109.43 19.82c1.43 1.84 2.91 3.61 4.46 5.35.69.77 1.46 2 2.31 2.59.42.29.14.61.53-.05.68-1.15.21-.3.08-.36-.22-.1-1.16.46-1.4.58-1.66.83-2.82 2.42-2.53 4.33.28 1.83 1.72 3.04 2.99 4.26a15.4 15.4 0 0 1 3.29 4.57c.2.43.89 1.64.69 2.16.03-.09-.42.2-.56.29-.44.29-.85.67-1.12 1.12-.47.78-.53 1.8-.33 2.67s.81 1.61.98 2.48c.31 1.57-1.09 2.97-2.38 3.58-2.09.98-10.38 2.21-9.94-1.87.11-1.05-.96-1.86-1.9-1.9-2.99-.12-4.94-3.04-5.56-5.69-.42-1.76-.43-3.65-.47-5.45-.04-1.97.47-3.94.71-5.89.4-3.22.6-7.07-1.63-9.72-2.03-2.41-5.64-2.36-7.7 0-2.61 3.01-.83 7.24 2.05 9.28 1.55 1.1 2.92-1.4 1.47-2.51-1.29-.99-2.14-2.82-1.17-4.3.76-1.15 2.12-1.57 3.08-.44 1.08 1.27 1.24 3.18 1.27 4.77.05 2.19-.27 4.38-.55 6.54-.26 2.02-.84 3.97-.79 6.02.05 1.93.44 3.85 1.25 5.6 1.47 3.16 4.51 5.43 8.03 5.58l-1.9-1.9c-.23 2.19 1.15 4.28 3.01 5.36 2.06 1.19 4.58 1.18 6.88 1.02 4.38-.3 9.53-2.22 9.88-7.33.07-1.08-.22-2.07-.67-3.04-.06-.13-.54-.86-.48-1.03.02-.07.89-.49 1.08-.66 1.8-1.7.94-4.29.07-6.22-.95-2.13-2.34-4.07-4.01-5.69-.48-.47-1.88-1.37-1.96-2.12-.07-.63 1.07-.87 1.56-1.07 1.12-.46 2.05-1.21 2.17-2.5.13-1.51-1.02-2.57-1.96-3.59-2.2-2.37-4.38-4.72-6.74-6.93-1.43-1.34-3.22.62-2.09 2.09Z"/><path d="M102.44 18.3c.12.3.23.6.33.92.05.16.09.33.13.5.02.07.02.18.05.25-.03-.08-.02-.27-.02-.08 0 .05.02.48 0 .49 0 0 .07-.36 0-.05-.02.06-.07.17-.07.23 0-.08.13-.24.02-.08-.01.02-.19.29-.05.09s-.04.03-.08.07c-.06.06-.12.11-.18.16-.13.13.22-.16.07-.05-.07.05-.13.1-.2.14-.13.09-.27.18-.41.27-.32.22-.65.46-.93.73-.77.77-1.23 1.88-.67 2.91.49.91 1.84.86 2.35 0 .12-.2.17-.46.29-.65-.24.4.04-.03.1-.13.13-.22-.16.16-.03.04.06-.05.11-.12.16-.17s.12-.11.18-.16c.22-.19-.03-.03-.04.03 0-.06.34-.24.4-.29.21-.15.41-.3.61-.46.32-.26.59-.57.82-.92 1-1.52.37-3.35-.3-4.85-.28-.62-1.14-.8-1.71-.56s-1.04.98-.79 1.61Zm-1.82 9.81c.28 2.47 3.32 5.83 6.02 4.66.54-.24.98-.57 1.48-.74.6-.2.96-.22 1.6-.18.48.03 1.14.19 1.73.38.69.22 1.35.57 2.06.75 1.74.44 2.69-1.9 1.2-2.86-1.04-.67-2.44-1.15-3.66-1.4s-2.67-.28-3.9.19c-.68.26-1.17.63-1.74 1.08-.14.11-.22.17-.43.27-.04.02.16.01.15.01-.12 0-.23-.06-.34-.11-.88-.39-1.82-1.4-2-2.35-.23-1.21-2.32-.95-2.18.29Z"/><path d="M107.8 18.54c1.67.81 3.38.73 4.82-.56 1.46-1.3 1.9-3.38 1.23-5.2-1.67-4.51-7.01-4.75-10.67-2.66h1.65c-2.4-1.57-5.54-2.37-8.34-1.44-2.59.85-4.71 2.98-5.29 5.68l2.22-1.26c-3.11-1.09-6.65.18-8.68 2.7-2.28 2.81-2.67 7.43 1.27 8.93-.26-.99-.52-1.98-.79-2.98-1.39 1.44-1.45 3.56-.4 5.24 1.11 1.78 3.21 2.37 5.15 2.73 2.1.39 3.02-2.72.89-3.24-.49-.12-4.21-1.09-3.12-2.21 1-1.03.44-2.5-.79-2.98-1.51-.59.6-3.35 1.22-3.86 1.23-1 2.79-1.36 4.29-.86.88.29 2.03-.34 2.22-1.26.83-4.08 5.56-4.14 8.5-2.37.49.3 1.16.3 1.65 0 1.75-1.08 4.41-1.68 5.83.26.47.65.7 1.51.26 2.23s-1.44 1.31-2.26 1.05c-1.19-.38-2.01 1.48-.86 2.04ZM89.87 37.42c-3.76-1.69-7.73-2.31-11.81-1.67-3.98.63-7.58 2.77-10.42 5.56-2.78 2.72-4.95 6.02-7.05 9.27-2.55 3.96-5.09 7.91-7.58 11.91-2.33 3.76-4.55 7.58-5.09 12.05-.5 4.14.47 8.48 2.64 12.04 4.52 7.44 13.07 10.25 21.38 10.14 5.12-.07 10.17-1.02 15.27-1.32 2.64-.15 5.29-.11 7.91.26 2.71.38 5.35.89 8.09 1.04 2.24.13 2.13-3.17 0-3.42-4.23-.5-8.34-1.66-12.63-1.71s-8.53.59-12.77 1.02c-7.45.77-15.74.84-21.37-4.89-2.46-2.5-4.15-5.79-4.51-9.3-.41-3.95.88-7.37 2.84-10.72 2.14-3.66 4.51-7.21 6.79-10.78 2.03-3.18 3.98-6.46 6.27-9.47 2.25-2.94 5.06-5.74 8.57-7.11 3.75-1.45 8.1-1.7 11.84-.11 1.89.81 3.56-1.94 1.64-2.81Z"/><path d="M87.76 83.9c2.09-1.23 4.37-2.2 6.72-2.76 1.12-.27 2.26-.44 3.41-.5 1.27-.07 2.53.08 3.8.04 1.89-.06 2.31-2.78.45-3.31-1.35-.39-2.85-.37-4.25-.3-1.46.08-2.93.3-4.36.65-2.83.71-5.35 1.98-7.63 3.79-1.37 1.09.39 3.25 1.85 2.39Zm13.76 1.68c.06 0 .38.04.1 0s.05.01.09.02l.44.06-.24-.03c.07.04.18.03.26.04.31.06.61.13.92.22.32.1.63.22.94.34.29.11-.28-.13-.08-.03.06.03.13.06.19.09.16.07.31.15.47.24.28.15.55.32.8.5l.21.15c.19.14-.05-.03-.11-.08.12.12.27.22.4.34.74.67 1.25 1.6 2.38 1.61.71 0 1.37-.51 1.56-1.19.34-1.21-.65-2.21-1.49-2.95-.62-.55-1.3-1.04-2.04-1.43-1.46-.77-3.15-1.24-4.81-1.13-.84.06-1.66.7-1.62 1.62s.71 1.52 1.62 1.62Z"/><path d="M86.33 79.93c-5.67-3.11-11.67-5.35-17.96-6.84-1.1-.26-2.26.34-2.57 1.46-.29 1.05.35 2.32 1.46 2.57 5.94 1.33 11.81 3.26 17.41 5.65.81.35 1.76.24 2.24-.59.44-.75.19-1.82-.59-2.24Z"/><path d="M72.38 76.36c1.15-.72 2.06-1.94 2.94-2.96.95-1.09 1.84-2.23 2.72-3.38q1.215-1.59 2.34-3.24c.71-1.04 1.3-2.16 2.14-2.94 1.47-1.37-.41-3.73-2.12-2.75-1.24.71-1.93 2.18-2.7 3.33s-1.56 2.25-2.39 3.35c-.76 1-1.55 1.98-2.35 2.95-.43.53-.87 1.06-1.32 1.58-.5.58-1.1 1.18-1.46 1.86-.71 1.36.77 3.1 2.2 2.2m20.01-45.32c-1.12 1.07-1.63 2.74-2.13 4.15q-.345.99-.72 1.95c-.09.23.22-.52-.03.09.03-.07-.21.5-.09.22.1-.23-.04.09-.06.14-.03.07-.07.15-.1.22-.25.53-.51.98-.55 1.58-.09 1.16 1.41 1.99 2.36 1.36.82-.55 1.18-1.56 1.53-2.45.26-.66.45-1.35.66-2.03s.4-1.32.64-1.97c.12-.32.23-.64.36-.96-.12.29.05-.11.1-.2q.18-.375.33-.78c.2-.54-.13-1.28-.63-1.54-.55-.29-1.2-.22-1.66.21Zm13.56 50.68c-2.63-6.29.39-13.74 6.97-15.91.83-.27 1.3-.94 1.36-1.79.08-1.03.2-2.04.4-3.05.11-.58.24-1.17.39-1.75 0-.03.29-.64.01-.52.35-.15 1.83.92 2.19 1.12a66.2 66.2 0 0 1 12.74 9.13c.27-1.01.54-2.03.8-3.04-1.68.5-3.64.81-5.19 1.64-1.59.85-1.85 2.55-1.64 4.18.2 1.55 1.03 3.14.81 4.72-.2 1.48-1.22 2.78-2.19 3.85-1.12 1.24-2.36 2.39-3.61 3.51-1.08.96-2.45 2.52-3.84 3.02-1.23.44-3.05-.89-4.05-1.49-1.41-.86-2.66-1.89-3.82-3.07-1.77-1.81-4.54.97-2.77 2.77 2.36 2.41 5.64 4.97 9.02 5.68 1.86.4 3.43-.24 4.9-1.36 1.57-1.2 3.09-2.48 4.52-3.83 2.44-2.3 5.11-4.98 5.62-8.44.3-2.01-.44-3.75-.82-5.69-.06-.28.02-1.07-.4-.64.17-.18 1.02-.32 1.23-.38 1.06-.32 2.13-.65 3.19-.97 1.26-.38 1.85-2.09.8-3.04-4.04-3.7-8.48-6.96-13.26-9.64-2.07-1.16-4.88-2.82-6.85-.56-.8.92-1.05 2.21-1.29 3.37-.31 1.48-.5 2.98-.62 4.48.45-.6.91-1.19 1.36-1.79-3.88 1.27-7.26 4.05-9.03 7.77-1.97 4.15-1.72 8.81.28 12.89.74 1.52 3.44.43 2.77-1.17Z"/><path d="M123.81 61.07c2.93-1.3 5.6-3.29 7.71-5.71 1.07-1.23 2.03-2.56 2.8-4 .41-.77.77-1.56 1.09-2.37.3-.73.77-1.7.67-2.5-.07-.6-.31-1.12-.92-1.36-.51-.2-1.26-.16-1.63.31-.57.71-.75 1.6-1.07 2.43-.23.61-.52 1.2-.83 1.8-.67 1.26-1.44 2.48-2.36 3.57-1.91 2.27-4.24 4.06-6.94 5.28-.72.33-.9 1.37-.53 2.01.44.75 1.28.85 2.01.53Z"/><path d="M136.18 44.85c-1.71-1.93-3.16-3.9-3.45-6.55-.05-.48-.13-2.6.86-2.34.59.15.93 1.76 1.06 2.25.5 1.93 3.24 1.42 3.35-.45.08-1.36.99-2.68 2.24-3.24.16-.07.34-.1.5-.17.58-.25-.11-.17-.09-.17 0 0 .16.37.19.58.12.75-.13 1.55-.62 2.12-1.4 1.62.88 3.96 2.37 2.37.56-.59 1.12-1.21 1.81-1.65.34-.22.71-.43 1.12-.47.19-.02.49.07.48.03-.07-.17-.16.35-.12.27-.13.28-.25.45-.48.67-.7.68-1.54 1.18-2.23 1.87-.93.95-.33 3.06 1.19 2.88.93-.11 2.5-.36 3.29.28s-.14 1.72-.77 2.09c-1.37.8-3.11.91-4.66.9-1.92-.02-3.81-.34-5.69-.67-.98-.17-1.98.26-2.26 1.28-.24.88.3 2.09 1.28 2.26 2.71.46 5.49.95 8.26.71 2.4-.21 5-.82 6.54-2.83 1.41-1.83 1.49-4.53-.28-6.17-1.51-1.41-3.78-1.49-5.71-1.24.4.96.8 1.92 1.19 2.88 1.05-1.09 2.47-1.79 3.19-3.18s.75-3.19-.4-4.35c-2.57-2.59-6.22.08-8.13 2.05l2.37 2.37c1.16-1.33 1.78-2.99 1.58-4.76s-1.33-3.62-3.36-3.55c-3.48.11-6.02 3.6-6.23 6.81l3.35-.45c-.46-1.85-1.36-3.98-3.34-4.61-2.31-.74-4.51.91-5.15 3.11-.62 2.12-.03 4.55.83 6.52.85 1.96 2.19 3.82 4.06 4.91 1.53.9 2.95-1.12 1.84-2.38Zm-7.44 14.4c1.7-1.02 3.56-1.79 5.57-1.7 1.05.04 2.09.25 3.14.4.52.08 1.04.15 1.55.23.26.04.52.08.78.11.17.03.35.05.52.08q.57.135-.09-.18l-.46-1.12v.12c.16-.37.32-.74.47-1.12-.36.38-.98.65-1.42.93-.54.33-1.09.66-1.66.94-.91.46-1.94.73-2.83.79-1.96.14-3.95-.42-5.48-1.68-.71-.59-1.72-.69-2.41 0-.62.62-.69 1.79 0 2.41 3.35 2.98 8.11 3.55 12.11 1.58 1.01-.5 1.92-1.14 2.81-1.82.52-.4 1.18-.78 1.44-1.42.3-.74.06-1.57-.58-2.05-.48-.36-1.01-.41-1.58-.48l-1.95-.27c-1.27-.17-2.54-.39-3.82-.47-2.74-.18-5.28.8-7.55 2.27-1.53 1-.15 3.42 1.44 2.47Z"/><path d="M129.59 56.02c1.15-1.54 1.99-3.29 2.32-5.2.17-.97.26-1.96.21-2.95-.04-.99-.15-2-.63-2.88-.55-.99-1.65-1.65-2.79-1.39-.94.21-1.68.95-2.26 1.68-1.16 1.46-1.79 3.17-1.92 5.03-.07.94.03 1.92.27 2.84s.65 2.14 1.45 2.77c.53.42 1.19.6 1.82.23.57-.33.87-1.05.69-1.69a6 6 0 0 0-.46-1.09c-.03-.06-.19-.4-.13-.26.07.17-.02-.05-.03-.07l-.09-.27c-.1-.29-.17-.59-.23-.9-.01-.07-.02-.14-.04-.21 0 .02.03.27 0 .07-.01-.17-.03-.33-.04-.5-.01-.31 0-.62.01-.93 0-.07.05-.45.03-.28-.03.19.01-.04.02-.07l.06-.28c.07-.3.15-.6.25-.89.05-.13.1-.27.15-.4.07-.17-.01.04-.02.06.04-.09.08-.17.12-.26.14-.28.3-.54.47-.8.04-.06.08-.12.12-.17-.02.02-.15.18-.03.04.11-.13.22-.25.33-.37.07-.07.14-.13.2-.2s.14-.07.08-.08c-.09-.01-.26.07-.38.05a.8.8 0 0 1-.26-.08c-.02 0-.2-.19-.08-.06s-.04-.06-.04-.07c.05.07.09.15.13.22.15.24.02.07 0 0 .02.06.04.13.06.19l.09.4c.05.28.07.53.09.96.02.34.02.68 0 1.03-.01.32-.05.82-.07.97-.21 1.59-.73 3.21-1.56 4.58-.34.56-.12 1.33.43 1.66.62.36 1.26.09 1.66-.43m-3.95 40.87c3.95-.82 7.66-3.43 10.1-6.59 1.28-1.65 2.24-3.54 2.7-5.58.24-1.05.38-2.15.36-3.23-.02-1.17-.08-2.58-1.01-3.41s-2.12-.41-2.56.68c-.35.86-.04 1.84-.03 2.74.01.82-.07 1.62-.25 2.41-.39 1.65-1.15 3.21-2.17 4.56-1.9 2.53-4.85 4.76-7.95 5.52-1.9.47-1.09 3.3.8 2.91Zm5.87-14.13c.39-.68.49-1.46.54-2.24.04-.7-.03-1.41-.17-2.1s-.42-1.33-.74-1.93c-.14-.26-.3-.52-.47-.76-.31-.43-.62-.89-1.11-1.11-.6-.26-1.21-.3-1.76.12-.47.36-.78 1.07-.57 1.67.13.35.26.63.51.93.08.1.16.19.24.29.13.15-.25-.35-.06-.07.04.05.07.1.11.15.07.1.14.21.2.32.14.23.25.47.37.71.09.18-.14-.35-.04-.09.02.06.05.12.07.18.05.13.09.27.14.4a7 7 0 0 1 .29 1.14c.04.21 0-.06-.01-.12 0 .08.02.16.03.23.05.55-.02 1.09 0 1.63s.38 1.12.95 1.25 1.17-.08 1.46-.6Zm-3.94 5.11c.13-1.03.03-2.14-.32-3.12a9.4 9.4 0 0 0-.74-1.57c-.12-.2-.25-.39-.39-.58-.28-.37-.58-.8-1.02-.99-.35-.15-.65-.25-1.04-.19-.34.05-.7.19-.94.45q-.285.315-.42.72c-.14.43-.02.87.16 1.26.14.3.4.55.63.78.15.16.29.32.43.5l-.26-.33q.495.66.81 1.41l-.16-.37c.25.6.45 1.21.54 1.86l-.05-.37c.02.18.04.36.05.55.03.71.6 1.39 1.36 1.36.35-.02.72-.13.96-.4.26-.28.35-.58.4-.96Zm-61.73 6.94c-6.64 8.6-2.07 20.75 3.77 28.37 6.5 8.48 15.48 14.43 25.24 18.53 5.46 2.3 11.32 4.54 17.18 5.51.82.14 1.6-.15 1.94-.95.29-.68.08-1.73-.67-2.06-4.57-1.98-9.39-3.34-13.98-5.29-4.47-1.9-8.76-4.19-12.82-6.85-7.68-5.03-15.24-12.13-18.36-21-.82-2.34-1.34-4.76-1.28-7.25.07-2.76.91-5.24 1.95-7.76.31-.74-.27-1.64-.94-1.92-.81-.34-1.53.01-2.03.66Zm41.87.65c.83.06 1.72-.28 2.46-.62.68-.31 1.28-.75 1.85-1.22s1.07-1.08 1.5-1.69c.18-.25.35-.52.48-.8.29-.6.34-1.27 0-1.86-.29-.5-.82-.83-1.4-.83-.64 0-1.26.36-1.59.9-.09.15-.15.32-.23.47-.17.32-.36.62-.58.91l.27-.34c-.36.45-.77.86-1.22 1.21l.34-.26c-.54.41-1.13.73-1.75.99l.39-.16c-.42.17-.85.31-1.27.51-.57.28-.88 1.11-.69 1.7.22.66.76 1.06 1.45 1.11Z"/><path d="M122.04 103.15c5.48 1.94 10.61 5.18 15.14 8.81s9.04 8.05 12.44 13.06c3.28 4.85 5.72 10.29 6.65 16.1s-.63 11.65-4.44 15.99c-6.13 7-15.48 9.79-24.57 10.33-9.66.57-19.35-1-28.51-4.08a65 65 0 0 1-15.68-7.72c-5.72-3.83-10.66-8.77-13.87-14.9-.73-1.39-2.69-1.51-3.75-.48-11.73 11.29-27.5 18.17-43.75 19.09l2.34 1.78c-1.7-6.43.48-13.35 4.68-18.37 4.79-5.73 11.87-8.84 19.2-9.74 4.38-.54 8.84-.38 13.2.28 1.17.18 2.33-.19 2.81-1.38.43-1.07.08-2.39-.97-2.97-11.96-6.57-20.57-18.8-19.67-32.83.26-3.97 1.36-7.87 3.23-11.38l-3.1.81c5.32 2.93 9.96 7.05 13.45 12.02 1.77 2.52 3.21 5.22 4.5 8.02.6 1.31 1.09 2.66 1.53 4.04.49 1.52 1.1 3.11 1.36 4.69.37 2.25 3.79 1.29 3.42-.94-.27-1.62-.37-3.24-.78-4.84-.41-1.57-.92-3.12-1.5-4.64-1.21-3.17-2.87-6.15-4.84-8.91-3.91-5.48-8.94-10.09-14.85-13.35-1.04-.58-2.51-.29-3.1.81-3.84 7.16-4.79 15.51-3.12 23.43 1.56 7.42 5.62 14.25 10.96 19.58 2.99 2.98 6.42 5.54 10.1 7.6l1.83-4.35c-8.85-1.43-18.04-.96-26.32 2.71-7.56 3.35-13.59 9.74-16.21 17.62-1.43 4.31-1.65 8.99-.49 13.39.26.98 1.3 1.84 2.34 1.78 17.59-.96 34.47-8.33 47.13-20.57l-3.75-.48c5.86 11.46 17.42 19.11 29.13 23.69 9.67 3.78 20.33 5.76 30.71 5.57 10.31-.2 21.17-2.79 28.82-10.12 4.72-4.52 7.54-10.38 7.73-16.95.19-6.52-2.02-13.13-5.17-18.77-6.33-11.31-17.15-20.24-29.25-24.77-1.4-.52-2.77-1.1-4.19-1.59-1.87-.65-2.66 2.3-.81 2.95ZM90.65 67.82c2.27 0 2.28-3.53 0-3.53s-2.28 3.53 0 3.53m15.31 1.32c2.27 0 2.28-3.53 0-3.53s-2.28 3.53 0 3.53"/><path d="M64.16 102.28c1.86 2.63 4.91 4.28 8.18 3.98 3.24-.29 6.16-2.31 7.54-5.26-.84.11-1.68.22-2.52.32 2.55 2.61 6.03 4.94 9.85 4.43 3.39-.45 6.28-3.01 6.48-6.51-.95.39-1.89.78-2.84 1.18 2.72 2.35 5.89 4.99 9.71 4.92 3.11-.06 6.34-1.91 7.01-5.12l-2.79.74c3.5 2.71 8.3 3.15 12.1.75 1.78-1.12.14-3.95-1.66-2.83-2.44 1.52-5.77 1.53-8.09-.28-.91-.71-2.49-.62-2.79.74-.42 1.95-2.58 2.84-4.44 2.64-2.61-.28-4.81-2.27-6.71-3.9-1.11-.95-2.76-.31-2.84 1.18-.11 2.04-2.34 3.33-4.21 3.32-2.58 0-4.8-1.76-6.53-3.51-.67-.68-2.08-.63-2.52.32-2.06 4.46-7.71 4.97-10.73 1.18-.99-1.24-3.15.4-2.22 1.71Zm12.06 15c2.45 1.95 5.75 2.97 8.86 2.32 2.69-.56 4.98-2.58 5.73-5.23l-2.74.72c3.4 2.71 7.62 4.07 11.98 3.51 3.44-.44 7.59-2.92 7.17-6.91-.85.49-1.69.97-2.54 1.46 3.26 1.65 7.03 3.48 10.77 2.46 3.03-.83 5.58-3.35 5.59-6.62l-2.14 1.63c5.1 1.86 10.88.62 14.91-2.96 1.68-1.49-.8-3.96-2.46-2.46-3.13 2.82-7.61 3.58-11.54 2.15-1.05-.38-2.14.6-2.14 1.63 0 1.98-1.97 3.29-3.78 3.52-2.62.34-5.26-1.12-7.49-2.27-1.03-.54-2.67.1-2.54 1.46.24 2.59-3.16 3.52-5.18 3.61-3.12.13-6.12-.9-8.6-2.78-.86-.65-2.16.05-2.41.98-.45 1.67-1.92 2.74-3.58 3.07-2.19.43-4.26-.55-6.21-1.4-1.26-.55-2.95 1.08-1.64 2.12Zm4.87 15.01c5.65 1.72 11.67-.14 15.68-4.37l-1.99.26c3.26 1.98 7.2 3.6 11.07 3.13 3.25-.39 6.33-2.16 7.68-5.25-.87.11-1.74.22-2.61.34 2.12 2.44 5.57 3.6 8.73 2.83 3.15-.77 5.63-3.39 6.42-6.51-.81.33-1.63.66-2.44.99 2.42 1.4 5.61 1.42 7.89-.29 1.65-1.23.14-4.03-1.66-2.83-1.43.95-3.03 1.15-4.55.26-.91-.54-2.17-.05-2.44.99-1.15 4.45-6.6 5.62-9.6 2.22-.65-.73-2.2-.62-2.61.34-.94 2.19-3.19 3.41-5.51 3.58-3.14.22-6-1.26-8.72-2.61-.6-.3-1.52-.33-1.99.26-2.96 3.67-8.09 5.13-12.58 3.86-1.83-.52-2.59 2.28-.78 2.83Zm35.07 7.75c2.82 1.34 6.2 2.18 9.25 1.08 2.59-.94 4.76-2.99 5.3-5.75l-2.72.72c4.98 4.75 13.23 2.35 14.92-4.32l-2.57 1.05c4.89 2.99 11.78 1.93 15.44-2.53 1.45-1.77-1.08-4.32-2.53-2.53-2.67 3.29-7.48 4.25-11.14 2.03-.95-.57-2.3-.04-2.57 1.05-1.03 4.14-5.98 5.8-9.24 2.95-.84-.73-2.48-.57-2.72.72-.34 1.85-1.74 3.16-3.53 3.66-2.27.64-4.62.01-6.77-.75-1.52-.54-2.58 1.93-1.11 2.63Zm21.96-19.25c1.98 0 1.98-3.08 0-3.08s-1.98 3.08 0 3.08m-19.82 29.6c4.4 3.37 10.77 2.89 14.88-.67l-2.63-.34c1.49 2.97 4.53 4.96 7.86 5.09s6.46-1.75 8.19-4.53c-1.02-.13-2.04-.27-3.06-.4.89 2.94 3.23 5.41 6.28 6.1 3.15.71 6.56-.48 8.59-2.98 1.39-1.71-1.07-4.16-2.43-2.43-2.63 3.35-7.97 2.7-9.22-1.58-.41-1.42-2.29-1.61-3.06-.4-2.51 3.92-8.13 3.44-10.27-.55-.53-.98-1.86-1.04-2.63-.34-3.03 2.8-7.76 2.9-11.06.55-1.53-1.09-2.88 1.38-1.45 2.48Zm-6.79 2.47c-.56 2.44.67 4.69 2.66 6.07 2.23 1.54 5.15 1.54 7.75 1.46l-.79-.21.21.12c-.21-.78-.41-1.57-.62-2.35-1.22 2.22-2.23 5.08-.28 7.23.82.9 1.98 1.28 3.15 1.46 1.43.23 2.86.3 4.3.17-.49-.86-.99-1.72-1.48-2.57-1.47 2.03-1.19 5.12.67 6.82 1.67 1.52 3.98-.8 2.47-2.47-.67-.75-.75-1.74-.19-2.61.67-1.04-.19-2.67-1.48-2.57-.91.07-1.82.07-2.73-.01-.56-.05-1.49-.1-1.97-.42-1.01-.69.09-2.53.48-3.27.74-1.4-.86-3.41-2.35-2.35l-.21.15.79-.21c-1.89.15-4.02.35-5.78-.51-1.37-.67-2.45-2.01-2.28-3.58.15-1.34-2.05-1.62-2.35-.32Zm-9.91 11.78c-.7-1.01-1.38-2.43-1.27-3.69.05-.63.62-1.89 1.45-1.78s1.65-.13 1.99-.98c.29-.73.08-1.74-.69-2.11-1.11-.54-1.29-1.86-1.28-2.99.01-1.78.99-2.05 2.58-2.37 1.07-.22 1.52-1.59 1-2.47-.61-1.04-1.76-2.7-.74-3.85 1.38-1.56-.7-3.62-2.28-2.28-2.47 2.11-1.23 5.49.12 7.82.33-.82.67-1.64 1-2.47-1.33.23-2.72.58-3.72 1.56s-1.39 2.48-1.42 3.89c-.07 2.62.89 5.21 3.44 6.24l.45-3.32c-2.23-.15-4.11 1.53-4.77 3.58-.78 2.44.45 4.65 1.78 6.59.99 1.44 3.36.08 2.36-1.38Zm-16.52-7.24c-.34-.33-.36-1.62-.4-2.13-.07-.8-.11-1.65.09-2.44.47-1.77 2.25-2.07 3.83-2.32 1.07-.17 1.46-1.57.98-2.41s-1.14-1.82-.39-2.69 2.12-1.05 3.18-1.24c1.16-.21 1.37-1.54.99-2.43-.48-1.11-.06-1.42.67-2.25.96-1.09.04-2.79-1.42-2.44-1.29.31-2.32 1.31-2.66 2.61s.03 2.55.56 3.75l.99-2.43c-2.03.39-4.08 1.05-5.28 2.86-1.29 1.96-.58 4.08.54 5.91.33-.8.65-1.61.98-2.41-2.8.52-5.44 1.71-6.13 4.76-.3 1.34-.21 2.68-.01 4.03.21 1.44.44 2.71 1.69 3.6 1.39.99 2.98-1.17 1.8-2.33Z"/><path d="M75.38 149.23c-.05-1.52.26-3.11 1.27-4.3 1-1.18 2.43-1.87 3.97-1.91a1.683 1.683 0 0 0 1.44-2.5c-.51-.93-.63-2.09-.09-3.03.24-.42.56-.77.97-1.04.57-.37 1.21-.43 1.8-.76 1.16-.67 1.01-2.7-.39-2.98-2.13-.43-4.46 1.34-5.4 3.15-1.04 1.99-.99 4.45.24 6.35l1.44-2.5c-2.41.05-4.86 1.08-6.39 2.98s-2.28 4.48-1.64 6.93c.4 1.53 2.84 1.24 2.79-.38Zm-6.46-7.86c-.22-.43-.31-1.01-.31-1.43 0-.31.02-.48.06-.63.03-.14.07-.28.11-.42.01-.05.13-.37.06-.2.1-.24.32-.6.42-.73-.05.07.18-.2.21-.23 0 0 .36-.33.2-.2.69-.54 1.5-.73 1.97-1.54s.38-1.64.42-2.53c.02-.41.25-.91.57-1.29.89-1.03 2.37-1.41 3.73-1.58.96-.12 1.62-.68 1.69-1.69.03-.48-.08-.95-.32-1.37-.63-1.1-1.99-.88-2.66 0-.31.4-.36.88-.4 1.37l1.69-1.69c-2.1.25-4.15.73-5.77 2.18a5.95 5.95 0 0 0-1.68 2.61c-.14.46-.21.97-.22 1.45 0 .21.02.42.03.62v.41c-.01-.06 0-.12.05-.16.07-.05.08-.09.05-.12-.09.05-.19.11-.28.16-.18.11-.36.22-.53.35-.35.26-.67.53-.96.86-.58.69-1.01 1.45-1.28 2.31-.52 1.65-.34 3.51.63 4.95 1.04 1.54 3.34.21 2.5-1.46Zm-.59-44.94a18.5 18.5 0 0 0-3.15 6.08c1.24.71 2.71.88 4.13.99 11.79.88 23.83-1.82 34.12-7.65-11.11-1.84-22.62-2.37-33.56.29"/><path d="M67.28 95.38c-1.8 1.93-3.01 4.15-3.83 6.65-.24.73.15 1.66.82 2.02 3.04 1.63 6.92 1.49 10.28 1.44 3.45-.05 6.89-.4 10.29-1 6.89-1.23 13.37-3.76 19.58-6.93 1.48-.75 1.19-3.31-.48-3.64-11.31-2.24-23.41-2.56-34.66.14-2.69.65-1.55 4.78 1.14 4.14 10.96-2.6 21.94-1.81 32.99-.37-.34-1.24-.67-2.47-1.01-3.71-5.39 3.32-11.49 5.42-17.7 6.63-3.06.6-6.17.93-9.29 1.03-1.6.05-3.21.03-4.81-.05-1.51-.08-3.15-.07-4.54-.77l.82 2.02c.62-2.06 1.57-3.98 2.71-5.81.88-1.42-1.17-3.04-2.33-1.8Zm-1.62 16.53c-.41 4.27 1.07 8.48 2.52 12.52 1.5 4.16 3.04 8.39 5.74 11.88 1.08 1.39 2.33 2.64 3.67 3.78 9.22 7.78 22.67 9.54 34.18 5.92-7.41-1.69-14.45-4.65-21.44-7.61-3.8-1.61-7.65-3.25-10.87-5.82-2.13-1.7-3.94-3.77-5.74-5.82-1.42-1.62-2.91-3.44-2.96-5.59"/><path d="M64.43 111.57c-1.2 5.04.97 10.25 2.65 14.93 1.63 4.54 3.54 9 6.85 12.59 6.06 6.57 14.95 9.98 23.74 10.53 4.92.31 9.92-.35 14.62-1.8 1.71-.53 1.89-3.21 0-3.65-8.03-1.86-15.68-5.12-23.21-8.42-3.51-1.54-6.96-3.26-9.78-5.9-1.44-1.35-2.75-2.83-4.04-4.32-1.09-1.25-2.41-2.66-2.57-4.39-.23-2.4-3.88-2.49-3.81 0 .12 4.15 3.83 7.55 6.55 10.33 3.02 3.09 6.58 5.3 10.49 7.07 8.16 3.7 16.63 7.23 25.37 9.26v-3.65c-7.49 2.32-15.65 2.38-23.09-.19-3.71-1.28-7.22-3.28-10.14-5.92-3.31-2.99-5.37-6.78-6.99-10.89-1.95-4.96-3.75-9.92-4.14-15.27-.1-1.36-2.15-1.81-2.5-.34Z"/></svg>