<?xml version="1.0" encoding="UTF-8"?><svg xmlns="http://www.w3.org/2000/svg" viewBox="0 0 180 180"><path d="M50.12 25.32c-7.85 4.51-15.79 8.94-23.91 12.95-4.05 2-8.27 3.7-12.3 5.74-1.79.9-3.61 2.04-4.71 3.76-.98 1.53-1.25 3.43-1.04 5.21.23 2.05.88 3.96 1.46 5.93.63 2.16 1.24 4.32 2.06 6.42.68 1.74 1.49 3.41 2.79 4.79.6.64 1.28 1.2 2.03 1.64.69.4 1.63.6 2.23 1.14.55.5.54 1.44.76 2.11.34 1.03.88 1.92 1.76 2.57 1.51 1.11 3.39 1.21 5.2 1.32 4.31.27 8.58.65 12.9.7 4.82.05 9.72-.21 14.48-1.02 2.29-.39 4.54-1.05 6.76-1.72 2.38-.73 4.8-1.54 6.93-2.84 1.71-1.04.62-3.99-1.4-3.33-3.77 1.23-7.36 2.62-11.31 3.24-3.8.59-7.61.99-11.45 1.11-4.01.13-8.02.03-12.03-.04-1.96-.03-3.92-.05-5.88-.18-.55-.04-1.33-.06-1.78-.41-.51-.39-.51-1.2-.68-1.79-.53-1.8-1.7-2.97-3.39-3.73-1.6-.71-2.75-1.07-3.6-2.71s-1.22-3.49-1.79-5.21c-.65-1.94-1.46-3.81-1.97-5.8-.35-1.38-.61-3.03-.04-4.4.65-1.59 2.36-1.89 3.81-2.42 3.99-1.45 7.84-3.44 11.6-5.4 8.39-4.38 16.31-9.53 24.33-14.54 1.95-1.22.2-4.24-1.81-3.09Z"/><path d="M17.62 57.89c.53.62 1.09 1.2 1.71 1.73.69.6 1.41 1.2 2.22 1.61.66.33 1.42.22 1.88-.38.19-.25.33-.57.31-.89-.02-.36-.13-.8-.43-1.03-.32-.25-.63-.49-.96-.72-.24-.17-.48-.34-.71-.52l.3.23c-.82-.63-1.57-1.34-2.25-2.12-.24-.27-.69-.43-1.04-.43s-.79.16-1.04.43-.45.65-.43 1.04.17.73.43 1.04Zm9.29-2.84c.03.14.05.29.07.43l-.05-.4c.11.89.1 1.8-.02 2.68l.06-.43c-.08.55-.22 1.08-.32 1.62-.15.78.15 1.55.92 1.87.32.13.7.19 1.03.08.36-.12.79-.36.95-.73.12-.29.28-.6.35-.91.05-.21.08-.43.11-.64.07-.52.14-1.03.14-1.55.01-.94-.15-1.9-.41-2.81-.22-.74-1.04-1.27-1.81-1.03-.36.12-.7.34-.88.67-.19.37-.22.72-.15 1.13Zm30.37-29.47c5.47-1.86 10.84-4.87 16.78-3.3 5.07 1.34 8.74 5.15 11.85 9.15 2.66 3.43 5.88 6.86 6.86 11.22.51 2.27.14 4.57-.64 6.74-.45 1.26-1.17 2.42-1.46 3.73a9.5 9.5 0 0 0-.05 3.93c.55 2.71 2.39 5.05 4.45 6.8 2.21 1.88 5.26 4.16 8.22 4.36 1.63.11 2.42-2.1 1.31-3.17-1.01-.98-2.26-1.5-3.46-2.22s-2.24-1.44-3.23-2.33c-1.5-1.36-3.02-3.16-3-5.29.01-1.2.55-2.19 1.01-3.26.6-1.41 1.08-2.85 1.33-4.37.41-2.51.27-5.07-.54-7.5-1.57-4.68-4.95-8.42-7.98-12.21-3.39-4.25-7.57-7.75-12.91-9.22-6.77-1.86-13.89.81-19.67 4.31-1.36.82-.49 3.19 1.11 2.64Zm28.94 63.1c-1.21 2.34-2.67 4.53-4.61 6.34l2.39-.31c-1.51-.85-3.41-1.44-5.11-1.74-1.73-.3-3.53-.36-5.23.17-3.2.99-6.19 4.38-4.94 7.9.72 2.01 3.85 1.79 3.85-.52 0-1.78 1.07-3.1 3.04-3.47 2.44-.46 4.56.78 6.87 1.27.93.2 1.69-.15 2.22-.91 1.6-2.27 3.1-4.59 4.26-7.12.36-.78.22-1.71-.57-2.17-.71-.42-1.78-.2-2.17.57Z"/><path d="M75.1 99.65c-.3.26-.53.58-.69.94-.1.24-.21.48-.28.74s-.1.53-.13.8c-.05.41-.01.82.07 1.22.05.25.17.5.28.73.1.2.34.44.51.6.24.23.52.36.85.41s.67 0 .95-.18c.21-.14.39-.32.53-.53.23-.35.21-.75.15-1.14 0-.03 0-.06-.01-.09l.05.4c-.04-.3-.06-.6-.12-.9-.03-.18-.07-.35-.1-.53l.06.43c-.03-.26-.03-.51 0-.77l-.06.42c.03-.24.09-.47.19-.7l-.16.37c.11-.26.21-.52.31-.78l-.15.35.02-.04c.11-.17.16-.35.17-.54.04-.19.03-.39-.03-.58-.1-.31-.26-.56-.52-.75s-.56-.33-.88-.31c-.4.02-.72.16-1.03.43Zm5.01 2.17c-.55.77-.8 1.7-.8 2.64l.23-.83-.03.05.61-.61h-.01c-.2.12-.36.27-.49.45-.15.17-.26.36-.31.59l-.06.46q0 .465.24.87c.02.04.04.09.06.13l.26.34.34.26.4.17c.22.07.45.08.67.03.15 0 .29-.04.43-.12.14-.04.27-.11.37-.22q.195-.12.3-.3.225-.24.3-.57c0-.05.01-.09.02-.14q.105-.345.03-.69a1.2 1.2 0 0 0-.21-.64c-.25-.39-.59-.66-1.04-.8h-.01c.25.14.5.29.75.43l-.04-.04.43.73s0-.05-.01-.07l.06.44c-.05-.39-.03-.78.02-1.17l-.05.41c.03-.24.09-.47.17-.7q.09-.285.03-.57c0-.19-.07-.37-.17-.53l-.22-.29c-.13-.14-.28-.24-.46-.3a.65.65 0 0 0-.36-.1q-.285-.06-.57.03l-.34.14c-.22.13-.39.3-.52.52Z"/><path d="M82.9 104.03s.51-.13.23-.07l.44-.06c-.13.02-.13.03-.02.02.32 0 .64 0 .95.04-.29-.04.25.05.25.05l.44.09c.32.07.64.14.96.2 1.71.32 3.37.28 4.76-.89 1.32-1.1 2.12-2.91 2.99-4.36.45-.74.89-1.48 1.33-2.23.48-.83 1.12-1.71 1.32-2.66.12-.57-.03-1.16-.52-1.52-.43-.32-1.14-.46-1.61-.11-.79.57-1.31 1.38-1.87 2.16-.5.71-1 1.41-1.49 2.13s-.98 1.43-1.47 2.14c-.22.32-.44.65-.67.97-.1.14-.19.3-.3.43.14-.17-.26.24-.25.23.16-.13-.1.05-.16.08-.18.1.25-.05-.08.02-.13.03-.27.07-.4.1-.2.05.27 0-.08 0-.62 0-1.22-.03-1.84-.1-1.44-.16-2.83-.25-4.14.47-1.55.86-.5 3.34 1.2 2.86ZM68.1 79.34c-1.08 2.12-2.44 4.11-3.81 6.06-.78 1.12-1.67 2.16-2.46 3.27-.29.4-.83 1.14-.98 1.33.07-.09-.24.31-.33.41-.14.16-.27.33-.42.49l2.02-.53c-3.23-1.26-6.81-2.4-10.23-1.17-3.15 1.13-5.67 4.37-4.6 7.8.64 2.05 3.92 1.76 3.85-.52-.05-1.87 1.24-3.11 3.01-3.45 2.33-.44 4.72.56 6.86 1.35.64.23 1.58-.01 2.02-.53 1.66-1.98 2.89-4.2 4.19-6.41 1.25-2.12 2.57-4.25 3.61-6.49.85-1.83-1.8-3.44-2.74-1.6Z"/><path d="M53.67 95.61c-.3.26-.53.58-.69.94-.1.24-.21.48-.28.74s-.1.53-.13.8c-.05.41-.01.82.07 1.22.05.25.17.5.28.73.1.2.34.44.51.6.24.23.52.36.85.41s.67 0 .95-.18c.21-.14.39-.32.53-.53.23-.35.21-.75.15-1.14 0-.03 0-.06-.01-.09l.05.4c-.04-.3-.06-.6-.12-.9-.03-.18-.07-.35-.1-.53l.06.43c-.03-.26-.03-.51 0-.77l-.06.42c.03-.24.09-.47.19-.7l-.16.37c.11-.26.21-.52.31-.78l-.15.35.02-.04c.11-.17.16-.35.17-.54.04-.19.03-.39-.03-.58-.1-.31-.26-.56-.52-.75s-.56-.33-.88-.31c-.4.02-.72.16-1.03.43Zm5.01 2.18c-.55.77-.8 1.7-.8 2.64l.23-.83-.03.05.61-.61h-.01c-.2.12-.36.27-.49.45-.15.17-.26.36-.31.59l-.06.46q0 .465.24.87c.02.04.04.09.06.13l.26.34.34.26.4.17c.22.07.45.08.67.03.15 0 .29-.04.43-.12.14-.04.27-.11.37-.22q.195-.12.3-.3.225-.24.3-.57c0-.05.01-.09.02-.14q.105-.345.03-.69a1.2 1.2 0 0 0-.21-.64c-.25-.39-.59-.66-1.04-.8h-.01c.25.14.5.29.75.43l-.04-.04.43.73s0-.05-.01-.07l.06.44c-.05-.39-.03-.78.02-1.17l-.05.41c.03-.24.09-.47.17-.7q.09-.285.03-.57c0-.19-.07-.37-.17-.53l-.22-.29c-.13-.14-.28-.24-.46-.3a.65.65 0 0 0-.36-.1q-.285-.06-.57.03l-.34.14c-.22.13-.39.3-.52.52Z"/><path d="M61.47 100s.51-.13.23-.07l.44-.06c-.13.02-.13.03-.02.02.32 0 .64 0 .95.04-.29-.04.25.05.25.05l.44.09c.32.07.64.14.96.2 1.71.32 3.37.28 4.76-.89 1.32-1.1 2.12-2.91 2.99-4.36.45-.74.89-1.48 1.33-2.23.48-.83 1.12-1.71 1.32-2.66.12-.57-.03-1.16-.52-1.52-.43-.32-1.14-.46-1.61-.11-.79.57-1.31 1.38-1.87 2.16-.5.71-1 1.41-1.49 2.13s-.98 1.43-1.47 2.14c-.22.32-.44.65-.67.97-.1.14-.19.3-.3.43.14-.17-.26.24-.25.23.16-.13-.1.05-.16.08-.18.1.25-.05-.08.02-.13.03-.27.07-.4.1-.2.05.27 0-.08 0-.62 0-1.22-.03-1.84-.1-1.44-.16-2.83-.25-4.14.47-1.55.86-.5 3.34 1.2 2.86Z"/><path d="M65.1 72.85c.93 3.19 2.61 6.18 4.08 9.14.71 1.44 1.45 2.87 2.01 4.38.96 2.61 1.62 5.32 2.28 8.01.63 2.59 4.64 1.49 3.99-1.1-1.13-4.49-2.49-8.73-4.78-12.77-.88-1.54-1.76-3.07-2.61-4.63-.69-1.26-1.54-2.64-1.95-3.86-.63-1.89-3.58-1.12-3.01.83Zm42.98 21.08c-6.8 5.4-13.75 10.97-17.29 19.16-1.86 4.29-2.46 9.23.25 13.33 2.39 3.62 6.29 6.05 10.11 7.93 4.86 2.39 10.01 3.84 15.38 4.46l-2.35-2.35c.02 2.26.36 4.5 1.02 6.66.54-.96 1.09-1.91 1.63-2.87-3.62 1.31-6.92 3.16-9.88 5.62-2.9 2.4-5.78 5.91-4.43 9.9.87 2.56 4.46 1.51 4.01-1.1-.41-2.4 2.64-4.76 4.27-6 2.2-1.67 4.67-3 7.27-3.92 1.17-.41 2.01-1.59 1.63-2.87-.54-1.79-.8-3.55-.82-5.42-.01-1.38-1.08-2.2-2.35-2.35-3.91-.45-7.83-1.5-11.43-3.08-3.36-1.47-6.88-3.33-9.35-6.11-5.26-5.93 1.09-14.73 5.16-19.46 2.88-3.34 6.17-6.33 9.6-9.09.73-.59.6-1.83 0-2.44-.71-.73-1.72-.58-2.44 0Z"/><path d="M114.64 148.79c-1.48.74-2.87 1.75-4.03 2.93-.63.63-1.18 1.34-1.67 2.09-.67 1.01-1.08 2.47-.31 3.54.55.77 1.43 1.15 2.34.77.78-.33 1.44-1.34 1.09-2.21-.03-.08-.06-.16-.07-.25l.07.51c-.01-.15-.02-.29 0-.44l-.07.51c.03-.16.07-.31.13-.46l-.19.45c.23-.53.58-1.03.92-1.5.09-.12.18-.25.27-.37.04-.05.08-.12.12-.16-.04.04-.25.32-.1.13.19-.24.39-.48.6-.7.39-.43.81-.83 1.25-1.2.07-.05.13-.11.2-.16.17-.14-.27.2-.09.07.13-.09.25-.18.37-.27.25-.18.51-.34.78-.5.71-.43 1.04-1.45.57-2.18s-1.38-.97-2.18-.57Zm6.83-.15c-1.45 1.06-2.85 2.2-4.15 3.45-.67.65-1.35 1.31-1.89 2.08-.36.51-.57 1.12-.61 1.75-.06.93.44 1.66 1.17 2.18.58.42 1.49.26 2.01-.14.56-.43.86-1.21.65-1.91a.6.6 0 0 1-.04-.18l.07.5c-.02-.18-.04-.36-.02-.55l-.07.51c.01-.07.03-.13.04-.19.06-.27-.08.15-.08.16-.02-.09.19-.34.24-.41.03-.05.19-.25.01-.03s0 0 .03-.04c.1-.13.2-.25.3-.38.43-.53.87-1.06 1.32-1.57.89-1 1.85-1.95 2.85-2.84.57-.5.56-1.43.12-2s-1.35-.84-1.97-.39Zm3.19 6.78.44.26c-.09.72-.19 1.44-.28 2.16.54-.27.68-.78.88-1.28l-.18.42c.14-.25-.23.26-.08.11.13-.13-.38.25-.1.09.12-.07.24-.15.36-.22.35-.22.67-.47.99-.73.47-.38.92-.79 1.32-1.24.48-.53.92-1.11 1.32-1.7s.72-1.28 1.01-1.97c.17-.4.04-1.11-.19-1.46s-.52-.61-.91-.78c-.8-.34-1.98-.09-2.37.78s-.87 1.71-1.45 2.47l.29-.38c-.52.67-1.11 1.28-1.76 1.82l-.48.39c.41-.36.16-.13.07-.05-.17.13-.37.27-.53.43-.73.73-.98 1.76-.49 2.7.32.6 1.26 1.05 1.92.78l.06-.02-1.06-.14c.29.18.54.21.87.25.31.04.76-.18.96-.4s.33-.48.37-.78c.09-.67-.32-1.3-.97-1.49Z"/><path d="M129.34 152.24c2.32-1.54 4.25-3.63 6.17-5.62 2.01-2.08 4.66-4.3 5.78-7 .77-1.87.47-3.71-.35-5.51-.78-1.71-1.7-3.44-2.82-4.96-2.37-3.24-5.75-4.91-9.5-6.12-3.35-1.08-6.73-1.03-10.19-1.36-2.44-.23-2.93 3.7-.58 4.25 1.68.39 3.41.43 5.13.48 1.62.04 3.1.42 4.67.92 1.88.6 3.82 1.31 5.36 2.59 1.56 1.29 2.56 3.09 3.51 4.84.41.76 1.07 1.67 1.08 2.58.01.75-.48 1.45-.91 2.02-.9 1.18-1.94 2.28-2.92 3.4-2.05 2.36-4.1 4.82-6.44 6.89-1.4 1.24.44 3.65 2.01 2.6m-55.4-60.82c-3.02 2.4-6.1 4.75-8.72 7.58s-4.78 6.2-6.34 9.8c-1.86 4.31-2.46 9.18.23 13.31 2.37 3.63 6.29 6.06 10.11 7.93 4.86 2.39 10.01 3.84 15.38 4.46l-2.35-2.35c.02 2.26.35 4.5 1.02 6.66l1.63-2.87c-3.62 1.31-6.92 3.16-9.88 5.62-2.89 2.4-5.79 5.91-4.43 9.9.88 2.56 4.45 1.51 4.01-1.1-.41-2.4 2.64-4.76 4.27-6 2.2-1.67 4.67-3 7.27-3.92 1.17-.41 2.02-1.59 1.63-2.87-.53-1.79-.81-3.55-.82-5.41-.01-1.38-1.08-2.2-2.35-2.35-3.91-.45-7.83-1.5-11.43-3.08-3.36-1.47-6.89-3.33-9.35-6.11-2.63-2.97-2.24-6.62-.87-10.1 1.2-3.04 2.93-6.01 4.99-8.56 2.46-3.04 5.4-5.66 8.44-8.1.73-.59.6-1.83 0-2.44-.71-.73-1.72-.58-2.44 0"/><path d="M82.71 144.49c-1.48.74-2.87 1.75-4.03 2.93-.63.63-1.18 1.34-1.67 2.09-.67 1.01-1.08 2.47-.31 3.54.55.77 1.43 1.15 2.34.77.78-.33 1.44-1.34 1.09-2.21-.03-.08-.06-.16-.07-.25l.07.51c-.01-.15-.02-.29 0-.44l-.07.51c.03-.16.07-.31.13-.46l-.19.45c.23-.53.58-1.03.92-1.5.09-.12.18-.25.27-.37.04-.05.08-.12.12-.16-.04.04-.25.32-.1.13.19-.24.39-.48.6-.7.39-.43.81-.83 1.25-1.2.07-.05.13-.11.2-.16.17-.14-.27.2-.09.07.13-.09.25-.18.37-.27.25-.18.51-.34.78-.5.71-.43 1.04-1.45.57-2.18s-1.38-.97-2.18-.57Zm6.83-.15c-1.45 1.06-2.85 2.2-4.15 3.45-.67.65-1.35 1.31-1.89 2.08-.36.51-.57 1.12-.61 1.75-.06.93.44 1.66 1.17 2.18.58.42 1.49.26 2.01-.14.56-.43.86-1.21.65-1.91a.6.6 0 0 1-.04-.18l.07.5c-.02-.18-.04-.36-.02-.55l-.07.51c.01-.07.03-.13.04-.19.06-.27-.08.15-.08.16-.02-.09.19-.34.24-.41.03-.05.19-.25.01-.03s0 0 .03-.04c.1-.13.2-.25.3-.38.43-.53.87-1.06 1.32-1.57.89-1 1.85-1.95 2.85-2.84.57-.5.56-1.43.12-2s-1.35-.84-1.97-.39Zm3.19 6.78.44.26-.28 2.16c.54-.27.68-.78.88-1.28l-.18.42c.14-.25-.23.26-.08.11.13-.13-.38.25-.1.09.12-.07.24-.15.36-.22.35-.22.67-.47.99-.73.47-.38.92-.79 1.32-1.24.48-.53.92-1.11 1.32-1.7s.72-1.28 1.01-1.97c.17-.4.04-1.11-.19-1.46s-.52-.61-.91-.78c-.8-.34-1.98-.09-2.37.78s-.87 1.71-1.45 2.47l.29-.38c-.52.67-1.11 1.28-1.76 1.82l-.48.39c.41-.36.16-.13.07-.05-.17.13-.37.27-.53.43-.73.73-.98 1.76-.49 2.7.32.6 1.26 1.05 1.92.78l.06-.02-1.06-.14c.29.18.54.21.87.25.31.04.76-.18.96-.4s.33-.48.37-.78c.09-.67-.32-1.3-.97-1.49Z"/><path d="M97.41 147.94c1.28-.63 2.42-1.71 3.47-2.68 1.19-1.09 2.31-2.25 3.43-3.42.91-.95 1.79-1.93 2.68-2.89.53-.57 1.14-1.13 1.5-1.83.52-1 .57-2.16.38-3.24-.15-.89-1.21-1.63-2.09-1.59s-1.92.63-2.09 1.59c-.06.37-.1.73-.12 1.1 0 .07 0 .15-.02.22-.02.18 0 .09.04-.27-.01.07-.03.14-.05.21-.07.22-.03.13.12-.25-.05.03-.12.21-.15.25-.15.28.38-.45 0 0-.09.11-.19.21-.29.32-.21.24-.42.47-.63.71-.87.98-1.73 1.97-2.6 2.96-1.84 2.1-3.75 4.13-5.61 6.22-1.27 1.43.31 3.43 2.01 2.6Zm1.27-81.83c11.75 6.1 23.61 11.99 35.34 18.15 1.45.76 2.89.04 3.45-1.4 1.41-3.62 1.59-7.55 1.78-11.39.2-4.06.22-8.13.39-12.19.04-.98.1-1.95.15-2.93 0 .04.07-1 .09-.98l-.39.34c.12.03.23.07.33.13 1.11 1.06 2.24 1.98 3.14 3.27 1.72 2.45 2.8 5.22 3.63 8.07 2.02 6.91 2.91 14.22 3.78 21.35.45 3.67.87 7.48.43 11.18-.39 3.3-1.52 6.45-3.26 9.27-3.74 6.04-9.88 10.2-15.92 13.69-2.77 1.61-.27 5.92 2.52 4.3 6.33-3.68 12.47-8.03 16.74-14.07 2.14-3.02 3.7-6.59 4.27-10.26.68-4.39.46-8.79-.08-13.18-.55-4.43-1.22-8.85-2-13.24-.63-3.54-1.29-7.13-2.47-10.54s-2.81-6.64-5.11-9.46c-1.76-2.16-5.82-6.18-8.51-3.01-.64.76-.77 1.7-.86 2.65-.12 1.3-.16 2.6-.28 3.9-.22 2.52-.54 5.04-.75 7.56-.41 4.79-.29 9.77-2.16 14.28 1.15-.47 2.3-.94 3.45-1.4-11.88-6.24-23.96-12.16-36.36-17.29-1.83-.76-3.09 2.29-1.35 3.2Zm-23.2 2.14c-1.86.32-3.8.62-5.61 1.17q-1.35.405-2.67.87c-.53.19-1.04.42-1.56.64s-1.1.42-1.47.88-.6 1.01-.43 1.63c.14.51.62 1.1 1.17 1.17.47.06.84.09 1.3-.03.19-.05.38-.13.57-.19.44-.14.89-.28 1.33-.43.92-.32 1.83-.65 2.75-.94 1.82-.58 3.6-1.25 5.45-1.74.82-.22 1.32-1.12 1.1-1.93-.24-.89-1.09-1.24-1.93-1.1m-52.65 2.66c-.21.15-.19.18.04.08.12-.02.23-.03.35 0 .31.05.62.33.88.5.79.53 1.55 1.13 2.52 1.29s1.79-.24 2.44-.93 1.28-2.11 2.13-2.54l-1.24.16c.71.13 1.25 1.46 1.89 1.89.86.57 1.9.75 2.86.29s1.78-1.58 2.53-2.36c.11-.11 1.28-1.24 1.24-1.29q-1.02-.285-.3.09c.2.14.41.28.61.41 1.6 1.07 3.65 3.13 5.64 1.79 1.8-1.21 3.25-3.47 4.48-5.21l-2.61.34c1 1.03 2 2.06 3.04 3.05 1.08 1.03 2.22 1.28 3.58.57 2.28-1.18 4.31-3.06 5.88-5.07l-2.17.28c2 1.34 4.61 4.16 7.16 2.62 1-.61 1.87-1.48 2.58-2.41.36-.47.69-.96.95-1.48.11-.23.22-.46.32-.69.1-.21.18-.43.27-.65.07-.23.09-.24.05-.03l-1.39.57c.4-.05 2.11 1.55 2.63 1.98.63.52 1.62.83 2.37.31 3.36-2.33 5.64-5.76 6.1-9.87.22-1.92-2.72-2.15-3.25-.44-.86 2.77-2.39 5.27-4.82 6.94.79.1 1.58.2 2.37.31-1.63-1.36-4.36-4.24-6.61-2.7-.95.65-1.14 1.84-1.7 2.78-.27.46-.58.87-.95 1.26-.21.23-.44.46-.68.66-.28.22-.26.12-.2.12l.96.26c-1.51-.64-2.96-1.75-4.35-2.63-.89-.56-1.88-.1-2.45.64a16.3 16.3 0 0 1-4.48 4.01c-.61.25-.45.37.46.35.02-.03-.94-.9-.98-.94-.77-.73-1.54-1.44-2.33-2.15-.84-.75-1.99-.58-2.61.34-.5.74-1.03 1.46-1.59 2.15-.21.26-1.83 1.8-1.77 1.99.72.15.92.13.59-.07-.17-.13-.35-.25-.53-.36-.41-.27-.82-.54-1.24-.81-.75-.49-1.5-1.12-2.34-1.43-1.68-.63-2.73.46-3.79 1.62-.5.55-1.18 1.61-1.82 1.98-.2.14-.21.2-.04.16-.1-.12-.19-.24-.28-.37-.19-.31-.43-.61-.67-.87-1.09-1.18-2.68-1.42-3.84-.21-.65.68-1.32 1.48-1.85 2.25-.29.28-.31.34-.09.17.24-.1.19-.19-.17-.27-.23-.22-.63-.43-.9-.6-1.21-.79-2.68-1.3-4.05-.58-1.24.65-1.82 1.78-1.59 3.14.27 1.55 2.85 1.2 2.75-.37Zm37.31-35.92c-.79.76-.79 2.1-.87 3.12-.07.85-.1 1.7-.04 2.54.07 1.01.33 2 1.11 2.71.71.64 1.64 1.02 2.52 1.38 1.65.68 3.46.65 5.01-.28 1.46-.88 2.49-2.31 3.03-3.92.66-1.96.64-4.24.36-6.27-.12-.87-1.17-1.37-1.95-1.27-.87.12-1.53.85-1.54 1.74 0 .7.08 1.4.09 2.1 0 .35 0 .7-.02 1.04 0 .16-.03.32-.04.48 0 .21.01-.04.01-.07-.02.13-.04.26-.07.39q-.09.465-.24.93c-.02.08-.05.15-.08.23-.08.26-.03-.07.03-.06-.02 0-.18.37-.2.4-.06.11-.13.23-.2.33-.03.05-.26.38-.13.19s-.15.17-.2.22c-.1.11-.21.21-.32.32l-.14.13s.27-.19.1-.08c-.12.08-.24.17-.37.24-.04.02-.33.14-.33.17 0-.02.31-.11.13-.06-.08.02-.16.05-.24.08-.11.03-.32.03-.42.09.02-.01.33-.02.15-.03h-.19c-.12 0-.42-.04-.14.01-.21-.03-.41-.08-.61-.15-.15-.05-.3-.1-.45-.16-.01 0-.26-.1-.09-.03s-.07-.03-.09-.04c-.3-.14-.61-.27-.91-.43-.15-.08-.28-.23-.09-.03-.1-.1-.28-.26-.07-.06-.17-.17-.02-.09 0 .03-.01-.07-.04-.13-.05-.2-.01-.05-.05-.15-.04-.2-.02.12.03.25.02.04-.04-.83-.09-1.65-.07-2.48.01-.93.24-2.01-.25-2.85-.45-.77-1.5-.88-2.14-.28Zm17.61 76.85c1.17 2.86 2.88 5.29 5.01 7.53 1.06 1.11 2.2 2.17 3.46 3.06.57.4 1.2.74 1.82 1.04.7.35 1.4.56 2.17.33.99-.3 1.47-1.12 1.57-2.11.16-1.63-1.81-2.4-3.05-1.75l-.03.02c-1.49.78-1.2 3.33.48 3.68h.04c-.3-1.12-.6-2.25-.9-3.38l-.04.04.9-.53-.07.03h1.1l-.08-.02.93.54q-.315-.3-.69-.51c-.55-.23-.69-.29-.41-.17.16.07.15.06-.04-.02-.27-.12-.54-.24-.81-.38-.56-.27-1.12-.55-1.67-.83s-1.09-.59-1.6-.93c-.25-.16-.48-.34-.72-.51.26.19-.15-.13-.16-.13-.13-.1-.25-.2-.38-.31-.45-.39-.86-.82-1.26-1.26-.37-.41-.9-1.04-1.1-1.31-.73-1.01-1.38-2.06-1.93-3.18-.3-.62-1.15-.83-1.75-.57s-1.08 1-.81 1.65Z"/><path d="M114.47 137.22a8.54 8.54 0 0 0-.29 3.92c.04.26.09.55-.03.78-.09.18-.27.3-.45.41-1.77 1.1-3.71 1.91-5.51 2.96s-3.52 2.39-4.5 4.24c-.98 1.84-1.09 4.26.17 5.93-3.87.26-7.79-.34-11.4-1.74-.13-.05-.27-.11-.36-.21-.3-.34.03-.85.34-1.17l7.58-7.82c1.21-1.25 2.44-2.51 3.41-3.96.68-1 1.25-2.1 2.18-2.87 2.2-1.81 5.45-1.12 8.18-.34"/><path d="M113.11 136.43c-.41.9-.63 1.76-.74 2.74-.04.4-.07.79-.06 1.19 0 .3.16.81.07 1.09l.47-.8c-.59.67-1.87 1.08-2.67 1.47-.87.43-1.76.85-2.61 1.32-1.53.83-3.04 1.84-4.21 3.15-2.39 2.66-3.41 6.79-1.25 9.91l1.74-3.03c-1.89.11-3.8.06-5.66-.26-.95-.16-1.9-.38-2.83-.64-.71-.2-1.65-.35-2.23-.8l.73.73-.11-.22.28 1.02c-.02.47-.31.55.16.17.27-.22.51-.53.76-.78.4-.42.81-.83 1.21-1.25.91-.94 1.82-1.88 2.73-2.81 1.69-1.75 3.48-3.44 5.03-5.33.72-.88 1.35-1.81 1.97-2.77.45-.69.93-1.35 1.71-1.68 1.74-.74 3.97-.02 5.68.46 2.51.7 3.58-3.2 1.08-3.9-3.45-.97-7.56-1.64-10.42 1.1-1.36 1.31-2.16 3.11-3.4 4.53-1.43 1.64-3 3.16-4.51 4.71-1.52 1.56-3.03 3.13-4.55 4.69-.72.74-1.43 1.52-1.49 2.61-.05 1.02.48 1.9 1.37 2.38 1.76.96 4.03 1.4 5.98 1.71 2.17.34 4.34.48 6.54.34 1.4-.09 2.68-1.69 1.74-3.03-2.21-3.16 1.43-6.23 3.93-7.69 1.83-1.06 4.18-1.83 5.72-3.31.83-.79.81-1.74.67-2.79-.14-1.03-.08-1.99.07-3.02.11-.79-.13-1.52-.91-1.85-.66-.28-1.64-.07-1.96.64Zm13.6 18.94c7.25.02 14.39-1.77 21.3-3.96 6.66-2.12 13.34-4.71 18.66-9.25 1.52-1.29 2.98-2.87 3.28-4.84.28-1.82-.52-3.68-1.76-5.04s-2.86-2.31-4.51-3.13c-8.92-4.45-19.29-5.91-29.1-4.11-.07 1.46.79 2.77 1.62 3.98 1.09 1.58 2.18 3.16 3.27 4.75 1.04 1.5 2.12 3.31 1.54 5.04-.26.76-.81 1.38-1.35 1.97-3.81 4.21-7.63 8.42-11.44 12.63"/><path d="M126.71 157.14c6.85.09 13.51-1.21 20.04-3.18 5.81-1.75 11.67-3.76 16.86-6.96 2.51-1.55 5.11-3.38 6.89-5.76 1.97-2.64 2.2-5.96.58-8.84-1.51-2.7-4.3-4.37-7-5.69a47 47 0 0 0-8.8-3.28c-6.96-1.83-14.27-2.02-21.34-.72-1.02.19-1.79 1.34-1.77 2.33.03 2.89 1.9 5.1 3.47 7.36.8 1.15 1.64 2.27 2.38 3.46.5.8 1.13 1.76.51 2.65-.79 1.13-1.9 2.12-2.82 3.14-.98 1.08-1.96 2.17-2.94 3.25-2.07 2.29-4.15 4.56-6.18 6.89-1.93 2.22 1.21 5.44 3.26 3.26 2.22-2.36 4.39-4.79 6.57-7.19 1.09-1.2 2.18-2.4 3.27-3.61 1.02-1.12 2.22-2.23 3.01-3.54 1.71-2.85.38-5.86-1.31-8.34-.9-1.32-1.81-2.64-2.71-3.97-.68-.99-1.68-2.1-1.68-3.36l-1.77 2.33c5.27-.92 10.72-.87 15.97.14 2.66.51 5.28 1.24 7.82 2.2 2.36.89 5.05 1.9 6.95 3.6 1.75 1.57 2.44 3.67.9 5.64s-3.73 3.36-5.77 4.61c-4.65 2.85-9.82 4.67-15 6.28-6.27 1.96-12.79 3.65-19.4 3.76-2.28.04-2.29 3.52 0 3.55Zm-61.85-30.58c-3.93.17-7.8 1.55-10.94 3.91-1.92 1.45-3.67 3.46-3.82 5.86-.11 1.81.72 3.58 1.93 4.92s2.78 2.31 4.37 3.17c4.75 2.55 9.91 4.23 15.04 5.9-.32-4.72 2.61-9.5 6.98-11.34.53-.22 1.12-.45 1.4-.95.15-.27 2.64-1.18 2.67-1.49.12-1.28-2.21-1.99-2.09-3.27a27.54 27.54 0 0 1-16.19-5.56"/><path d="M64.86 124.92c-4.35-.19-8.54 1.07-12.07 3.62s-5.98 6.37-4.55 10.66c1.43 4.3 5.61 6.64 9.48 8.43 4.24 1.96 8.67 3.46 13.14 4.8 1.29.39 2.88-.7 2.77-2.11-.16-2.23.41-4.29 1.68-6.13.58-.84 1.32-1.6 2.14-2.21.93-.69 2.04-.99 3-1.61.23-.15.5-.35.69-.55.96-.99-.16-.1 0-.11.26-.02.66-.33.91-.45.75-.35 1.59-.67 2.1-1.36.74-1 .57-2.33-.09-3.33-.3-.46-.69-.83-1.09-1.2-.13-.12-.26-.28-.4-.38-.37-.24-.01-.31 0 .27a2.197 2.197 0 0 0-2.16-2.16c-5.61-.16-10.47-2.23-15.05-5.35-2.09-1.42-4.73 1.91-2.74 3.55 4.94 4.05 11.45 6.05 17.79 6.13l-2.16-2.16c.02 1.02.41 1.85 1.09 2.6.25.27.53.5.8.75.5.47.22.49.21-.08l.29-1.09c.61-.54.74-.68.37-.45-.13.07-.27.14-.41.21-.31.16-.63.3-.95.45-.71.34-1.07.82-1.67 1.28-.21.16-1.43.55-1.92.84a13.5 13.5 0 0 0-2.44 1.87c-2.86 2.74-4.46 6.71-4.35 10.66l2.77-2.11c-3.6-1.26-7.25-2.4-10.73-3.95-2.85-1.26-6.68-2.74-8.33-5.58s.55-5.2 2.76-6.79c2.79-2 6.19-3.25 9.57-3.76 1.9-.29 1.32-3.15-.44-3.22Zm41.19-82.29c1.99 0 1.99-3.09 0-3.09s-1.99 3.09 0 3.09m4.46 9.31c.91-.66 1.86-1.26 2.84-1.81s1.99-1.03 2.95-1.62c.62-.38.88-1.14.59-1.81s-1.01-1.03-1.71-.84c-1.2.32-2.32.88-3.39 1.51-.98.58-1.93 1.22-2.84 1.92-.33.25-.59.5-.71.92-.1.37-.06.86.16 1.19.42.65 1.41 1.05 2.11.55Zm4.92 8.01c1.09-.42 2.18-.86 3.25-1.33.48-.21.96-.42 1.44-.64.23-.11.47-.2.69-.32.34-.18.62-.44.88-.71.41-.41.52-1.04.3-1.57-.2-.47-.76-.96-1.31-.88-.36.05-.72.07-1.06.19s-.69.3-1.03.46q-.69.33-1.38.63c-.23.1-.46.2-.7.3-.09.04-.55.25-.12.05-.1.05-.2.08-.3.13-.5.21-1.01.41-1.51.61-.4.16-.73.35-.96.74-.2.34-.29.85-.16 1.23.25.76 1.13 1.44 1.97 1.12Zm7.43 6.33.29-.3.15-.15.02-.02.26-.34s.02-.04.02-.05l.06-.09.17-.39c.07-.22.08-.44.03-.65a.8.8 0 0 0-.11-.41c-.07-.2-.18-.38-.34-.53l-.33-.26-.39-.17c-.22-.07-.44-.08-.65-.03-.22 0-.42.07-.61.19l-.09.05-.04.02s-.02 0-.02.01c-.06.04-.12.09-.18.14-.06.04-.12.09-.18.14-.05.05-.1.1-.16.14l-.31.28c-.17.15-.28.34-.35.55q-.165.3-.15.66c0 .23.04.45.15.66.07.21.19.39.35.55l.34.27c.27.15.55.23.86.23l.45-.06c.29-.08.54-.23.75-.44Zm23.55 23.7c-3.27-3.25-6.68-6.43-10.51-9.01a45 45 0 0 0-5.86-3.36c-1.09-.51-2.2-.85-3.32-1.25s-2.21-.81-3.44-.94c-1.28-.14-2.08 1.8-1.08 2.61.84.69 1.74 1.19 2.69 1.71.99.54 1.88 1.23 2.86 1.79 1.9 1.09 3.79 2.19 5.66 3.34 3.71 2.28 7.34 4.62 10.6 7.52 1.63 1.45 3.98-.85 2.41-2.41Z"/></svg>