<?xml version="1.0" encoding="UTF-8"?><svg xmlns="http://www.w3.org/2000/svg" viewBox="0 0 180 180"><path d="M95.94 88.38c-12.05 1.71-24.01 3.58-35.94 6-6.05 1.23-12.07 2.58-18.09 3.94-3.16.71-6.44 1.3-9 3.44-2.09 1.74-3.31 4.39-3.83 7.01-1.11 5.67.04 11.64.95 17.26.97 5.97 2.21 11.93 4 17.7.89 2.85 1.92 5.65 3.11 8.39s2.71 5.41 5.91 6.09c3.26.69 6.85.46 10.15.18 3.49-.3 6.95-.86 10.39-1.49 3.73-.68 7.44-1.45 11.18-2.05 1.33-.21 3.26-.84 4.46 0 1.41 1 2.59 2.48 3.9 3.61 5.15 4.44 11.71 7.74 18.65 7.52 1.78-.06 2.71-1.85 1.95-3.39l-7.29-14.67-1.35 3.31c4.02-1.08 8.05-2.1 12.07-3.17 3.43-.92 6.94-1.7 10.28-2.91 2.78-1.01 5.54-2.35 7.6-4.52 2.48-2.62 3.45-6 3.57-9.54.13-3.79-.3-7.66-.71-11.43-.41-3.87-.98-7.74-1.64-11.58-.85-4.98-1.59-10.26-3.45-15-.91-2.32-2.08-4.67-4.06-6.27-2.19-1.77-4.81-2.01-7.45-1.25-2.43.7-1.4 4.5 1.05 3.8.78-.22 1.56-.22 2.14-.07.63.16 1.17.53 1.7 1.04 1.08 1.04 1.92 2.7 2.46 4.17 1.54 4.18 2.2 8.75 2.94 13.12 1.17 6.91 2.07 13.9 2.35 20.91.11 2.82.11 5.88-1.67 8.24-1.46 1.94-3.84 3.11-6.07 3.92-3.26 1.19-6.69 1.96-10.03 2.86-4.1 1.1-8.18 2.25-12.28 3.35-1.48.4-1.98 2.03-1.35 3.31 2.43 4.89 4.85 9.78 7.28 14.67l1.95-3.39c-5.69.18-10.79-2.48-15.15-5.92a43 43 0 0 1-3.12-2.72c-1.13-1.08-2.31-2.15-3.86-2.56-1.45-.39-2.96-.08-4.41.14-1.62.25-3.24.53-4.85.84-6.47 1.22-12.92 2.79-19.52 3.13-1.55.08-3.1.09-4.65.02-1.35-.07-2.92 0-3.85-1.14-1.5-1.81-2.3-4.55-3.1-6.73-3.83-10.5-6.01-22.12-5.85-33.32.03-2.21.29-4.55 1.47-6.48 1.38-2.26 3.97-2.84 6.37-3.41 5.92-1.4 11.86-2.74 17.8-4.1 12.5-2.87 25.11-5.49 37.75-7.69.87-.15 1.34-1.21 1.13-2-.25-.94-1.13-1.26-2-1.13Z"/><path d="M50.3 128.8c3.74-3.05 6.99-6.69 9.59-10.75.7-1.09 1.4-2.25 2.52-2.89 2.76-1.56 5.98.82 9.04 1.68.91.25 1.9.36 2.76-.01.83-.36 1.42-1.11 1.94-1.86 1.93-2.75 4.12-6.14 7.49-6.1 1.47.02 2.83.74 4.15 1.4 5.92 2.98 11.34 9.98 18.77 6.43-7.64 5.07-14.89 3.34-24.05 2.9-1.55-.07-5.53 2.52-7.03 2.89-1.41.35-7.39.27-8.66.98-7.11 3.96-13.96 8.92-21.54 5.96"/><path d="M51.37 129.87c4.02-3.18 7.52-6.93 10.35-11.2.52-.79 1.08-1.73 2.04-2.02.97-.29 2.01.09 2.92.41 2.26.81 4.53 2.19 7.02 1.85 2.54-.35 3.76-2.54 5.12-4.44 1.03-1.44 2.41-3.42 4.31-3.7 2.01-.29 4.36 1.41 5.97 2.46s3.26 2.33 4.94 3.41c1.88 1.21 3.93 2.3 6.14 2.73 2.57.5 4.99.07 7.35-1.01l-1.94-3.32c-3.87 2.52-8.16 3.51-12.74 3.42-2.32-.05-4.62-.25-6.93-.42-1.99-.15-3.85-.42-5.74.34-1.58.64-3.05 1.56-4.63 2.18-.12.05-.73.22-.58.19.13-.02-.56.04-.71.05-.8.04-1.61.06-2.41.1-1.61.08-3.3.1-4.87.49-2.03.5-3.95 2.03-5.75 3.04-4.77 2.69-9.93 5.17-15.42 3.14-2.33-.86-3.32 2.85-1.02 3.71 5.01 1.87 10.08.66 14.75-1.57 2.44-1.17 4.77-2.56 7.11-3.92.26-.15.52-.29.77-.44.7-.42.38-.21.17-.13.26-.09.54-.15.81-.2.68-.13 1.5-.18 2.26-.23 1.62-.12 3.28-.14 4.89-.45 1.54-.3 2.96-1.21 4.35-1.9.69-.35 1.38-.69 2.11-.94s1.87-.05 2.87.02c2.47.17 4.93.4 7.41.48 5.44.17 10.62-.62 15.26-3.63 2.11-1.37.29-4.34-1.94-3.32-3.85 1.76-7.4-.24-10.6-2.39-1.7-1.14-3.33-2.36-5.1-3.39-2.06-1.19-4.47-2.48-6.92-2.23-2.22.23-4.08 1.52-5.55 3.14-.76.84-1.43 1.75-2.09 2.67-.51.7-1.11 1.98-1.99 2.27-.96.31-2.35-.42-3.22-.77-1.1-.44-2.18-.95-3.33-1.26-2.36-.65-4.82-.36-6.61 1.44-.96.96-1.61 2.18-2.34 3.3-.77 1.18-1.58 2.35-2.43 3.48-1.81 2.37-3.89 4.5-6.15 6.44-1.49 1.28.64 3.31 2.13 2.13Z"/><path d="M58.58 129.59c8.08 2.22 16.77.65 24.6-2.31 1.54-.58 3.06-1.21 4.57-1.85 1.04-.44 2.09-.87 3.14-1.31 4.47-1.86 8.88-4.76 13.59-5.84-1.94.44-2.93 3.7-3.67 5.21-3.84 7.88-10.82 16.68-19.75 18.87-10.22 2.51-20.5-3.82-28.86-8.86-1.99-1.2-3.98-2.42-5.99-3.58.45-.19 6.32 3.12 6.77 2.92"/><path d="M58.19 130.99c7.7 2.61 16.48 1.1 23.97-1.51 3.98-1.39 7.96-3.02 11.77-4.83 3.61-1.71 7.1-3.72 11.02-4.64l-.95-3.46c-1.91.56-3.06 2.28-3.91 3.98s-1.65 3.45-2.63 5.12c-2.26 3.87-5.04 7.45-8.48 10.35-3.37 2.84-7.48 4.78-11.92 4.94-5.09.18-9.97-1.66-14.46-3.89-5.31-2.63-10.26-5.93-15.39-8.88l-.48 3.71c-1.28.25-.98-.13-.43.17-.37-.2.42.2.58.27.79.37 1.57.77 2.36 1.15 1.29.63 2.77 1.61 4.26 1.32 2.56-.49 1.47-4.39-1.08-3.9 1.28-.25.98.13.43-.17.37.2-.42-.2-.58-.27-.79-.37-1.57-.77-2.36-1.15-1.29-.63-2.77-1.61-4.26-1.33-1.76.33-1.92 2.88-.48 3.71 9.16 5.29 18.28 12.23 29.17 13.13 10.18.84 18.41-5.56 24.04-13.45 1.49-2.09 2.8-4.29 3.91-6.6.44-.91.78-1.87 1.2-2.79.29-.65.71-1.73 1.46-1.96 2.21-.66 1.29-4.01-.95-3.46-3.7.9-7.07 2.72-10.45 4.41-3.7 1.85-7.58 3.45-11.46 4.88-7.51 2.76-15.23 3.88-23.12 2.34-1.83-.36-2.55 2.2-.77 2.8Zm51.29-33.61c-2.13 1.82-5.72-.52-7.34-1.98-2.41-2.18-3.97-5.06-4.83-8.17-.51-1.84-.79-3.72-.89-5.63-.08-1.66.31-3.62-.13-5.23-.47-1.72-2.04-2.35-3.68-2.33-2.15.03-4.31.2-6.46.3l1.7 2.95c1.64-3.26 3.53-6.39 5.7-9.32 1.03-1.39 2.13-2.73 3.29-4.02.98-1.09 2.23-2.96 3.87-2.8l-1.95-1.95c-.63 7.89-.72 16 .32 23.85.44 3.34 1.48 6.64 4.03 8.98 1.17 1.08 2.54 1.91 4.05 2.46.1.04.58.33.37.08.18.23.18.74.23 1.03.2 1.11.35 2.2.62 3.29.51 2.02 3.9 1.66 3.71-.5-.15-1.75-.26-3.89-1.06-5.48s-2.19-1.75-3.59-2.49c-2.98-1.56-4.14-4.53-4.57-7.71-1.04-7.72-.85-15.76-.22-23.5.09-1.12-.97-1.85-1.95-1.95-2.19-.22-4 1.16-5.45 2.65s-2.74 3.03-3.99 4.64c-2.62 3.37-4.91 6.94-6.81 10.76-.62 1.25.11 3.03 1.7 2.95 1.32-.06 2.65-.13 3.97-.19.69-.03 2.44-.43 2.98-.05l-.7-.7c.32.42.07 1.42.07 1.98 0 .85.01 1.7.06 2.55.11 1.78.34 3.57.74 5.31.71 3.06 2.05 5.96 3.97 8.44 2.93 3.77 10.12 8.81 14.35 3.93 1.28-1.47-.65-3.39-2.13-2.13Zm13.66-5.24c4.45-5.32 4.17-13 3.73-19.55-.22-3.28-.77-6.65-2.43-9.53-1.72-2.98-4.6-4.51-6.99-6.82-2.83-2.73-2.91-6.77-2.99-10.46l-1.43 1.88c2.33-.64 4.69-.73 7.04-.2l-1.34-2.35c-.64 3.62-1.06 7.99 1.93 10.75 1.45 1.33 3.33 2.03 4.74 3.42 1.15 1.13 2.01 2.52 2.64 4 1.37 3.18 1.78 6.75 2.01 10.18.3 4.44.66 9.09-.24 13.48-.84 4.08-3 7.97-6.82 9.9-2.22 1.13-.27 4.47 1.96 3.35 8.4-4.26 9.36-14.61 8.98-22.94-.32-7.12-.68-15.9-6.46-20.98-.81-.71-1.7-1.31-2.62-1.86s-1.92-1.13-2.41-2.19c-.85-1.85-.38-4.16-.02-6.08.18-.98-.26-2.11-1.34-2.35-3.03-.7-6.09-.66-9.1.14-.82.22-1.44 1.03-1.43 1.88.06 4.29.35 8.8 3.22 12.24 2.56 3.07 6.49 4.51 8.08 8.41 1.5 3.69 1.45 7.91 1.5 11.83.05 4.17-.19 8.47-2.72 11.96-1.05 1.45 1.34 3.3 2.49 1.92Z"/><path d="M124.82 87.11c.42 1.21 1.27 2.22 1.94 3.32s1.19 2.41.84 3.65c-.14.49-.4.93-.68 1.34-.85 1.25-2.05 2.41-3.54 2.63-.23.04-.48.05-.69-.05-.22-.1-.39-.29-.53-.49a5.4 5.4 0 0 1-.97-3.34c.01-.27.05-.54.15-.79.1-.24.26-.45.42-.65.88-1.14 1.77-2.28 2.65-3.42"/><path d="M123.43 87.49c.28 1.09.82 2.05 1.4 3 .25.42.52.84.75 1.27.06.11.11.22.16.34-.07-.17.06.17.07.2.04.12.07.23.11.35.02.06.05.41.04.17l.24-.88c-.17.36-.28.65-.31 1.06s.07-.21-.03.21c-.03.15-.07.3-.11.44-.04.13-.04.12.02-.02l-.09.17c-.19.32-.38.62-.6.92.16-.22.02-.03-.07.08s-.19.21-.29.32c-.12.12-.24.24-.37.36-.05.05-.46.33-.13.12-.24.15-.47.29-.71.42.37-.19-.05.02-.15.05q-.12.045-.24.06-.21.045.09 0h-.18c.22 0 .42.06.59.19.24.18.23.28.04-.02-.08-.13-.16-.27-.24-.4-.26-.46.07.27-.11-.23-.05-.15-.1-.29-.14-.45-.02-.07-.12-.56-.09-.39.03.21-.02-.26-.02-.31v-.54c-.02.37.09-.14-.04.14.07-.15.18-.28.27-.4.47-.63.96-1.25 1.44-1.88.24-.31.48-.63.72-.94.4-.52.58-.94.65-1.62.1-1.06-1.18-2-2.17-1.65-.72.26-1.07.63-1.51 1.2l-1.06 1.36c-.71.91-1.66 1.82-1.93 2.97-.48 1.99.19 4.65 1.7 6.06 1.87 1.75 4.79.19 6.24-1.34.65-.68 1.27-1.49 1.67-2.34.29-.62.5-1.24.53-1.94.01-.31-.02-.63-.08-.94-.04-.23-.14-.34-.22-.61.06.19.02.03 0-.07-.48-2.22-2.27-3.66-3.22-5.63-.31-.64-1.19-.86-1.8-.59-.66.29-1.01.99-.83 1.7Zm-79.16 69.4a229.7 229.7 0 0 0 57.18 12.73c4.55.41 9.18.69 13.66-.22 4.39-.9 8.47-2.9 12.49-4.89 7.49-3.72 14.96-7.49 22.4-11.31 3.26-1.67 7.03-4.22 6.68-7.87-.36-3.84-4.91-5.56-8.67-6.43-6.35-1.47-12.7-2.93-19.05-4.4-2.52 5.33-8.15 8.48-13.74 10.35s-11.53 2.82-16.8 5.47c3.2 3.74 5.57 8.2 6.87 12.95-5.38 2.3-11.81 1.98-16.93-.85-4.16-2.29-7.57-6.16-12.21-7.17-2.37-.52-4.83-.23-7.23.06-5.44.66-10.89 1.31-16.33 1.97"/><path d="M43.84 158.41a203 203 0 0 0 31.3 9.35c5.33 1.13 10.69 2.07 16.09 2.81 5.41.74 10.89 1.47 16.36 1.58s10.6-1.02 15.64-3.19 9.99-4.83 14.93-7.31 9.84-4.67 14.49-7.42c3.61-2.13 7.21-5.67 6.01-10.26-1.2-4.61-6.42-6.35-10.54-7.32-6.18-1.45-12.37-2.93-18.56-4.34-.92-.21-2.12.12-2.57 1.04-2.27 4.67-6.92 7.41-11.66 9.11-5.97 2.15-12.29 3.15-18.02 5.97-1.36.67-1.28 2.43-.44 3.43 2.95 3.49 5.08 7.59 6.32 11.98l1.52-2.67c-3.97 1.65-8.3 1.91-12.41.6s-7.02-4.3-10.54-6.46c-1.82-1.11-3.81-1.99-5.93-2.31-2.49-.37-4.93-.11-7.41.19-5.28.62-10.56 1.25-15.83 1.89-1.17.14-2.19.9-2.19 2.19 0 1.07 1.01 2.33 2.19 2.19 4.21-.51 8.41-1.01 12.62-1.53 3.62-.44 7.72-1.46 11.29-.36 3.07.94 5.58 3.24 8.16 5.05 2.79 1.96 5.88 3.43 9.27 3.99 4.02.66 8.16.31 11.94-1.26 1.08-.45 1.87-1.43 1.52-2.67-1.45-5.15-3.98-9.83-7.43-13.91-.15 1.14-.29 2.28-.44 3.43 5.84-2.87 12.41-3.62 18.42-5.98 5.29-2.08 10.39-5.33 12.97-10.58-.86.35-1.71.7-2.57 1.04 5.08 1.18 10.17 2.32 15.25 3.48 2.13.49 4.31.88 6.38 1.58 1.41.48 3.05 1.16 3.97 2.4 2.16 2.91-2.2 5.6-4.3 6.75-4.49 2.46-9.14 4.68-13.71 6.99-4.6 2.32-9.17 4.73-13.86 6.85s-9.23 3.14-14.27 3.09-10.1-.67-15.09-1.3c-4.98-.63-9.94-1.45-14.87-2.41-11.23-2.19-22.33-5.14-33.17-8.76-1.97-.66-2.71 2.33-.84 3.06ZM27.1 93.76c-.91-.76-1.79-1.55-2.68-2.34-.32-.28-.69-.47-1.13-.47-.39 0-.86.17-1.13.47s-.49.7-.47 1.13c.02.39.14.87.47 1.13.94.73 1.88 1.46 2.8 2.22.14.15.3.25.49.31.18.09.37.14.58.13.37 0 .81-.16 1.07-.44s.46-.66.44-1.07c-.02-.38-.14-.81-.44-1.07m8.93-5.35c-.64-1.49-1.22-3.01-1.96-4.45-.36-.7-1.29-.94-1.98-.65s-1.2 1.13-.92 1.87c.62 1.64 1.42 3.21 2.16 4.8.16.34.59.62.93.72.37.1.87.06 1.2-.16s.63-.54.72-.93l.06-.42c0-.28-.07-.54-.21-.79Zm10.49-2.84c.03-.7.06-1.39.08-2.09s.06-1.4 0-2.09c-.04-.43-.15-.8-.46-1.12-.27-.27-.72-.48-1.12-.46s-.83.15-1.12.46-.42.68-.46 1.12c-.06.69-.02 1.39 0 2.09s.05 1.39.08 2.09c.03.78.67 1.54 1.5 1.5s1.47-.66 1.5-1.5m11.26.35c.54-.91 1.12-1.8 1.72-2.68.29-.43.59-.85.89-1.26.08-.1.15-.21.23-.31.03-.04.21-.27.06-.08-.18.24.19-.25.21-.27.22-.3.35-.63.49-.97.08-.21.06-.54 0-.76-.08-.3-.27-.55-.51-.74-.41-.32-1.13-.45-1.58-.11-.17.13-.36.25-.52.4-.15.13-.25.29-.37.44-.19.24-.36.49-.53.75-.3.45-.6.91-.88 1.38-.56.92-1.05 1.88-1.49 2.87-.15.34-.24.66-.13 1.02.08.31.32.64.61.79.64.34 1.44.16 1.82-.48Zm13.94 1.58c2.13 0 2.13-3.31 0-3.31s-2.13 3.31 0 3.31m39.6-42.82c-.35-.15-.69-.29-1.05-.4l1.08 1.08c-.2-1.47-.2-3.03-.02-4.51l-1.27 1.67c2.86-.88 5.89-1.51 8.9-1.38 1.05.05 2.02.34 2.87.87.3.19.13.2.1.06-.06-.27-.08.29-.09.32.03-.22-.1.42-.13.51-.03.11-.06.23-.1.34-.06.15 0-.09-.08.15.06-.16.07.03-.04.04.1-.01.15-.13.27-.14-1.98.09-2 3.1 0 3.09 1.95-.01 3.09-1.79 3.39-3.54.22-1.29.05-2.41-.97-3.33a7 7 0 0 0-2.66-1.48c-1.88-.57-3.96-.48-5.89-.29-2.21.22-4.39.68-6.48 1.44-.77.28-1.21.85-1.27 1.67-.13 1.81.01 3.57.5 5.33.23.85 1.08 1.24 1.9 1.08.25-.05.49-.11.74-.19.96-.29 1.41-1.92.31-2.38Zm-.82-8.05c1.81-.41 3.6-.77 5.46-.88.94-.05 1.87-.06 2.81 0 .49.03.97.07 1.45.12.21.02.41.06.62.08.43.03.74-.09 1.13-.25.8-.34.93-1.69.29-2.22-.61-.5-1.17-.57-1.93-.64-.52-.05-1.04-.09-1.56-.11q-1.455-.06-2.91.06c-2.05.16-4.15.52-6.07 1.28-.67.27-1.14.89-.93 1.64s.94 1.09 1.64.93Zm-.11-6.26c2.5-.02 5-.24 7.5-.32l-1.13-.47c.51.4.87.71 1.56.7.32 0 .64-.04.96-.05.97-.05 1.9-.82 1.85-1.85-.04-.96-.82-1.9-1.85-1.85-.32.02-.64.03-.96.05-.36.03-.71.06-1.02.26l-.37.29c-.33.43-.38.5-.17.2l1.13-.47c-2.61.24-5.27.48-7.83 1.08-1.36.32-1.06 2.44.33 2.42Z"/><path d="M116.14 29.08c.96-.63 1.36-1.64 1.88-2.62.65-1.23-.15-2.79-1.6-2.79.64 0 .42.71.53-.19.08-.7.23-1.39.3-2.1.14-1.35.21-2.74.1-4.1s-.33-2.68-.61-4.01-.5-2.75-1.13-3.97c-.61-1.17-2.72-.68-2.58.7.17 1.63.7 3.17.77 4.82s.04 3.18-.08 4.76-.66 3.1-.54 4.61c.14 1.72 1.41 3.22 3.23 3.2l-1.6-2.79c-.49.96-1.19 1.96-1.15 3.07.04 1.18 1.39 2.14 2.48 1.42Z"/></svg>