<?xml version="1.0" encoding="UTF-8"?><svg xmlns="http://www.w3.org/2000/svg" viewBox="0 0 180 180"><path d="M146.23 34.28c-17.82-1.19-35.65-2.06-53.51-2.26-8.97-.1-17.93-.03-26.89.19-4.28.11-8.63.21-12.8 1.28-3.26.83-6.39 2.3-9.14 4.23-5.68 3.99-9.96 9.67-12.33 16.19-2.86 7.83-2.44 16.56-2.51 24.77-.07 8.74-.29 17.64.79 26.34.82 6.66 1.78 14.13 6.14 19.52 2.24 2.77 5.33 4.34 8.7 5.32 4.15 1.21 8.5 1.86 12.74 2.67 8.74 1.69 17.53 3.18 26.3 4.67q3.33.57 6.66 1.11c-.6-.79-1.21-1.58-1.81-2.38 1.02 10.6 3.17 21.05 6.18 31.26.47 1.59 2.95 2.15 3.76.49 4.78-9.84 9.17-19.89 12.92-30.18l-2.14 1.63c10.47.77 20.99 1.35 31.43-.09 4.82-.67 9.91-1.63 14.32-3.76 2.13-1.03 4.02-2.59 5.22-4.65s1.66-4.31 2.11-6.56c4.29-21.3 8.56-42.72 9.79-64.46.31-5.53.66-11.42-2.05-16.46-2.31-4.3-6.52-7.36-11.26-8.4-2.87-.63-4.1 3.78-1.22 4.41 3.51.77 6.6 3.05 8.33 6.2 2.16 3.92 1.77 8.72 1.54 13.03-.53 10.09-1.74 20.14-3.31 30.12-1.57 9.97-3.5 19.87-5.47 29.76-.48 2.39-.87 4.81-1.48 7.17-.47 1.82-1.18 3.52-2.72 4.68-1.61 1.22-3.62 1.82-5.52 2.38-2.3.67-4.65 1.2-7.01 1.61-10.78 1.87-21.84 1.13-32.7.57-1.01-.05-1.84.73-2.14 1.63-3.4 10.03-7.39 19.84-12.18 29.29l3.76.49c-2.73-9.87-4.39-19.97-5.22-30.17-.08-1-.7-2.18-1.81-2.38-8.45-1.5-16.92-2.85-25.4-4.22-4.28-.69-8.58-1.32-12.87-1.95-2.1-.31-4.22-.6-6.33-.85-1.78-.21-3.58-.48-5.18-1.32-5.49-2.88-7.18-9.93-7.81-15.6-.92-8.29-1.22-16.74-.83-25.08.2-4.22.42-8.44.67-12.65.23-3.91.47-7.84 1.3-11.67 1.36-6.27 4.35-11.88 9.16-16.18 2.17-1.93 4.72-3.56 7.44-4.6 3.56-1.36 7.31-1.75 11.1-1.91 8.51-.36 17.04-.46 25.55-.56 17.08-.21 34.21-.08 51.28.74 2.16.1 4.31.22 6.46.33 2.43.13 2.4-3.6 0-3.77Z"/><path d="M87.33 50.39c-6.56.22-13.14.72-18.5 4.94-4.68 3.69-6.96 10.13-4.46 15.75 2.51 5.64 9 7.05 14.59 7.11 3.15.03 6.51-.11 9.33-1.66 2.57-1.4 4.59-4.22 4.49-7.22-.11-3.36-2.72-5.72-5.69-6.8-3.61-1.31-7.37-.15-11.05-.75-1.17-.19-2.37.3-2.71 1.54-.29 1.05.36 2.52 1.54 2.71 2.9.46 5.76.04 8.67.19 1.59.09 3.64.66 4.54 2.1.96 1.52-.27 3.29-1.57 4.13-1.98 1.28-4.59 1.24-6.85 1.23-3.75-.02-8.76-.31-10.86-3.97s-.24-8.24 2.71-10.91c4.17-3.78 10.41-4.65 15.81-4.93 2.22-.12 2.24-3.54 0-3.47Zm21.36 4.29c-2.75-.45-5.35.33-7.46 2.15s-3.16 4.38-3.45 7.1c-.5 4.75 2.06 9.18 5.9 11.82 3.94 2.71 9.17 3.23 13.52 1.24 4.39-2.01 7.9-6.65 8.66-11.41.45-2.84 0-5.94-1.96-8.15-2.07-2.34-6.04-4.47-9.22-3.78-1.77.38-1.34 2.62 0 3.18 1.04.44 2.18.54 3.23.99.99.42 1.99 1.05 2.74 1.83 1.18 1.24 1.34 3.15 1.15 4.77-.38 3.31-2.63 6.53-5.43 8.26-5.48 3.39-13.62-.16-14.5-6.68-.53-3.88 2.1-8.4 6.38-8.23 1.74.07 2.2-2.81.42-3.1ZM66.81 87.11c-5.73-1.67-11.66 2.47-13.76 7.67-1.96 4.85-.54 10.3 2.8 14.17 3.09 3.57 8.69 6.28 13.42 4.66 4.29-1.47 6.58-5.83 7.59-9.99 1.33-5.49 1.35-14.59-5.9-15.56-1.89-.25-2.34 3.02-.45 3.35 4.26.72 3.53 7.3 2.86 10.4s-2.07 6.09-4.7 7.4c-.66.33.17-.05-.23.1-.18.07-.37.13-.56.19-.27.08-.77.19-.89.2-.61.07-1.49 0-2.18-.17-1.79-.43-3.48-1.34-4.83-2.6-2.51-2.33-4.04-5.87-3.27-9.26 1.03-4.55 5.16-7.32 9.67-7.43 1.78-.04 2.16-2.61.42-3.12Zm17.78 1.02c-1.97 1.6-1.8 4.8-2.06 7.08-.32 2.83-.5 5.7-.08 8.54.54 3.67 2.81 7.03 5.74 9.23 2.85 2.14 6.65 3.01 9.9 1.22 3.73-2.06 5.46-6.73 6.14-10.7.83-4.85.63-10.08-.99-14.75-.36-1.04-1.4-1.74-2.52-1.43-1.01.28-1.8 1.47-1.43 2.52 1.21 3.38 1.57 7 1.33 10.57-.22 3.17-.96 7-3.22 9.4-.89.94-1.94 1.44-2.92 1.48-1.06.04-2.09-.27-3.09-.84-2.34-1.33-4.19-3.76-4.94-6.36-.62-2.16-.47-4.51-.39-6.73.05-1.37.13-2.73.2-4.09.05-.85-.13-2.27.52-2.94 1.42-1.47-.67-3.44-2.2-2.2Zm26.3 3.43c3.17.11 6.34.26 9.51.4 1.58.07 3.17.15 4.75.22 1.53.07 3.45.49 4.93.04.87-.26 1.51-1.06 1.51-1.98 0-.98-.66-1.63-1.51-1.98s-1.86-.25-2.74-.28c-.73-.02-1.46-.05-2.19-.07-1.58-.04-3.17-.06-4.75-.04-3.18.02-6.34.16-9.51.36-2.13.13-2.16 3.25 0 3.33"/><path d="M118.67 114.5c.17-4.13 1.25-8.14 2.1-12.16.42-1.99.79-4 1.01-6.02s.42-4.28-.06-6.27-3.52-1.53-3.59.49.13 3.98-.08 5.99-.58 3.96-.95 5.92c-.76 3.98-1.54 7.98-1.51 12.05.02 1.99 3 1.97 3.08 0m20.89-4.87c.54-1.43.79-2.99 1.24-4.45s.97-3.06 1.43-4.59.87-2.95 1.14-4.46.78-3.69 0-5.17c-.58-1.12-2.41-1.14-2.98 0-.44.88-.38 1.76-.46 2.71-.05.64-.15 1.28-.27 1.92-.27 1.52-.67 3.01-1.09 4.49s-.89 2.97-1.26 4.48-.84 3.13-.73 4.69c.12 1.74 2.36 2 2.96.4Zm6.84 2.56c2.91-5.4 4.99-11.28 6.43-17.24.52-2.15-2.8-3.07-3.31-.91-1.36 5.73-3.38 11.22-5.79 16.59-.34.76-.22 1.66.55 2.12.7.41 1.72.18 2.12-.55Zm-10.65 5.3c2.25 0 2.26-3.5 0-3.5s-2.26 3.5 0 3.5m8.93-1.59-.13-.25c-.13-.22-.31-.4-.53-.53a1.5 1.5 0 0 0-1.5 0c-.22.13-.4.31-.53.53l-.13.25c-.15.25-.22.53-.22.82s.08.57.22.82c.15.25.34.44.59.59s.53.22.82.22.57-.08.82-.22c.25-.15.44-.34.59-.59s.22-.53.22-.82-.08-.57-.22-.82M29.72 82.93c-3.14 1.06-6.52 1.13-9.78 1.74s-6.64 1.93-8.45 4.71c-1.97 3.01-1.61 6.94-1.04 10.49 1.87 11.5 5.29 22.74 10.16 33.32 1.51 3.28 3.31 6.67 6.43 8.49 2.6 1.52 5.73 1.72 8.74 1.85 12.79.53 25.61.32 38.38-.63 3.91 6.33 7.82 12.65 11.74 18.98 1.8-7.48 2.87-15.13 3.21-22.82.03-.78.03-1.65-.49-2.23-.51-.57-1.34-.69-2.11-.77a354 354 0 0 1-39.23-6.45c-2.43-.54-4.91-1.13-7.03-2.44-4.39-2.71-6.43-7.96-7.81-12.93-2.74-9.92-3.97-20.26-3.61-30.55"/><path d="M29.24 81.17c-3.92 1.16-8.1.85-12.04 1.93-3.66 1-6.98 3.23-8.48 6.81-1.56 3.73-.9 7.86-.24 11.71.75 4.36 1.71 8.69 2.92 12.95 1.19 4.18 2.69 8.29 4.34 12.31 1.54 3.75 3.04 7.65 5.19 11.11 2.06 3.32 4.93 5.81 8.79 6.77 4.24 1.05 8.88.87 13.22.99 10.41.28 20.85-.05 31.24-.79l-1.77-1.01c3.9 6.34 7.85 12.64 11.81 18.94.86 1.37 3.2 1.24 3.59-.47.94-4.07 1.67-8.19 2.22-12.33.27-2.06.5-4.14.67-6.21.16-1.97.49-4.1.25-6.07-.52-4.24-5.84-3.84-9.02-4.26-4.21-.56-8.41-1.16-12.6-1.84-4.2-.68-8.39-1.44-12.56-2.28-4.09-.82-8.31-1.52-12.3-2.76-3.21-1-5.49-2.98-7.16-5.87-1.67-2.9-2.58-6.17-3.42-9.39-2.36-9.06-3.36-18.35-3.07-27.7.08-2.52-3.82-2.51-3.91 0-.27 8.24.42 16.54 2.02 24.63 1.29 6.49 2.85 14.26 7.94 18.96 2.83 2.62 6.42 3.66 10.11 4.47 4.16.92 8.33 1.74 12.52 2.5 8.39 1.51 16.84 2.74 25.33 3.59.49.05 2.28.06 2.45.26.16.19-.07 1.94-.1 2.41-.14 2.32-.34 4.64-.61 6.95-.55 4.69-1.42 9.33-2.55 13.91 1.2-.16 2.39-.31 3.59-.47-3.87-6.36-7.74-12.7-11.66-19.02-.36-.58-1.05-1.07-1.77-1.01-8.51.64-17.04.96-25.58.93-4.27-.01-8.53-.06-12.8-.21-3.57-.13-7.17-.4-9.76-3.16-2.36-2.52-3.68-6.03-4.99-9.17-1.55-3.72-2.88-7.54-4.04-11.4s-2.2-7.77-3.06-11.72c-.79-3.61-1.71-7.4-1.67-11.11.02-1.74.34-3.56 1.47-4.95 1.04-1.28 2.56-2.07 4.09-2.62 4-1.44 8.37-1.35 12.39-2.77 2.19-.77 1.31-4.2-.97-3.53Zm16-54.85-1.3-1.35-.63-.66c-.29-.3-.64-.65-1-.85l-.37-.16c-.21-.06-.41-.07-.62-.03-.32.04-.66.18-.89.43-.18.2-.32.43-.4.68-.12.38-.03.85.16 1.19s.53.7.83.98l.68.65 1.35 1.3c.29.28.69.45 1.09.45.38 0 .83-.17 1.09-.45s.47-.68.45-1.09-.16-.79-.45-1.09Zm19.44-6.5c-.03-.07-.07-.15-.1-.22l.14.34c-.32-.76-.55-1.57-.67-2.39l.06.41c-.04-.34-.07-.69-.09-1.04v-.48c-.01-.3-.09-.58-.15-.87-.12-.6-.8-1.1-1.41-1.07-.68.03-1.18.44-1.41 1.07-.36.98-.18 2.13.07 3.12.23.9.61 1.77 1.14 2.54.21.3.47.54.84.64.33.09.78.05 1.08-.14s.56-.48.64-.84c.09-.39.02-.72-.14-1.08Zm18.44-.58c0-.27.02-.54.05-.8 0-.07.01-.13.02-.2-.03.2-.03.25-.02.14l.06-.34c.1-.49.19-.98.34-1.46.07-.22.15-.45.23-.67.02-.06.05-.12.08-.19-.09.22-.11.25-.04.1.06-.12.11-.24.17-.36.23-.45.48-.88.74-1.31.43-.7.17-1.76-.56-2.15-.36-.19-.81-.29-1.21-.16s-.68.38-.94.72c-.7.93-1.16 2.06-1.45 3.19s-.37 2.32-.21 3.49c.05.38.12.69.4.97.24.24.63.42.97.4.75-.03 1.35-.6 1.37-1.37m21.43 2.53c.88-1 1.77-2 2.68-2.98.96-1.05 1.97-2.07 2.78-3.25.41-.6.16-1.48-.38-1.89-.25-.19-.57-.33-.89-.32-.41.02-.71.18-1.04.43-1.04.81-1.88 1.84-2.76 2.83s-1.74 1.98-2.59 2.99c-.27.32-.46.67-.46 1.1 0 .38.17.84.46 1.1.59.54 1.63.65 2.2 0Z"/></svg>