<?xml version="1.0" encoding="UTF-8"?><svg xmlns="http://www.w3.org/2000/svg" viewBox="0 0 180 180"><path d="M169.95 59.79c-.39-9.83-3.44-19.75-9.77-27.27-6.34-7.52-16.2-12.33-25.98-11.38-9.08.89-17.09 6.42-23.57 12.84-9.69 9.6-17.21 22.45-16.67 36.07-6.66-12.77-17.7-23.53-31.28-28.32-13.58-4.8-29.65-3.09-41.03 5.73-3.58 2.77-6.69 6.23-8.68 10.29-1.84 3.75-2.68 7.93-2.9 12.1-.76 14.18 5.53 27.98 14.31 39.14 15.74 20.01 38.73 32.5 61.9 43.48 7.76 3.68 14.59 9.11 19.72 15.99l.1.13c11.37-18.25 27.17-33.25 40.42-50.18s24.29-37.15 23.44-58.63Zm-36.79 40.96c-3.85 2.69-7.62 5.53-11.7 7.87-21.12 12.11-46.87 10.84-69.85 5.58.33-.85 1.16-1.48 2.06-1.58 7-10.73 16.43-23.17 27.66-29.35 11.23-6.17 25.11-8.29 37.05-3.63 9.5 3.71 17.33 11.4 27.3 13.55-2.75-.59-10.29 6-12.51 7.55Z"/><path d="M171.95 59.79c-.39-8.89-2.74-17.89-7.79-25.31-4.76-6.99-11.88-12.4-20.13-14.51-17.82-4.56-33.98 9.06-43.39 22.86-5.45 7.99-9.02 17.46-8.68 27.23l3.73-1.01c-7.54-14.37-20.61-26.5-36.62-30.48-16.15-4.03-35.32.42-45.49 14.33-5.48 7.5-6.32 17.33-5.04 26.27 1.26 8.8 4.89 17.2 9.68 24.64 9.45 14.68 23.3 26 38.04 35.06 7.48 4.6 15.27 8.68 23.16 12.53 3.9 1.9 7.89 3.64 11.57 5.95 3.59 2.25 6.88 4.95 9.8 8.02 1.28 1.35 2.48 2.76 3.59 4.24.89 1.2 2.6 1.37 3.45 0 9.17-14.67 21.17-27.2 32.34-40.31s21.08-26.42 27.05-42.26c3.27-8.68 5.08-17.94 4.75-27.24-.09-2.57-4.09-2.58-4 0 .59 16.36-5.81 31.85-14.49 45.43-9.09 14.23-20.86 26.44-31.75 39.26-6.24 7.35-12.24 14.93-17.36 23.11h3.45a54.9 54.9 0 0 0-18.17-15.64c-3.73-1.99-7.63-3.69-11.41-5.58s-7.46-3.8-11.13-5.82c-14.61-8.05-28.55-17.69-39.36-30.55-5.42-6.45-10.02-13.77-12.83-21.74-2.8-7.95-4.02-16.9-1.8-25.15 4.39-16.34 23.46-23.3 38.83-21.75s29.1 11.79 37.38 24.71q1.56 2.445 2.91 5.01c1.35 2.565 3.79.95 3.73-1.01-.27-7.92 2.23-15.53 6.27-22.28 4.06-6.78 9.59-13 15.94-17.72 6.27-4.66 13.75-7.85 21.69-6.84 7.59.97 14.52 5.32 19.31 11.2 5.77 7.09 8.4 16.37 8.79 25.38.11 2.56 4.11 2.58 4 0Z"/><path d="M132.15 99.03c-4.9 3.43-9.7 7-15.08 9.67-4.72 2.35-9.73 4.06-14.87 5.24-10.47 2.42-21.37 2.54-32.02 1.42-6.08-.64-12.1-1.73-18.05-3.09l1.2 2.94c.35-.73.94-.55 1.55-1.01.71-.55 1.19-1.59 1.68-2.33.95-1.43 1.93-2.85 2.92-4.25 2.09-2.94 4.27-5.81 6.62-8.55 4.57-5.35 9.73-10.4 15.9-13.87 6.36-3.58 13.61-5.77 20.91-6.04 7.38-.27 14.21 1.62 20.62 5.21 7.02 3.94 13.61 8.98 21.61 10.77.35-1.29.71-2.57 1.06-3.86-2.78-.47-5.46 1.41-7.63 2.91s-4.41 3.41-6.43 4.84c-2.08 1.47-.09 4.95 2.02 3.45 1.94-1.37 3.75-2.93 5.69-4.32 1.1-.79 2.21-1.55 3.4-2.2.45-.25.94-.49 1.25-.6.25-.09.5-.17.75-.21-.56.1.58.1-.12-.02 1.06.18 2.15-.28 2.46-1.4.28-1-.34-2.22-1.4-2.46-7.05-1.58-12.95-5.87-19.08-9.46-6.49-3.81-13.32-6.34-20.89-6.66-7.56-.31-15.09 1.39-21.98 4.44-6.58 2.91-12.25 7.34-17.23 12.49-5.72 5.92-10.59 12.64-15.08 19.52l1.2-.92c-1.41.26-2.64 1.2-3.26 2.49-.53 1.1-.15 2.63 1.2 2.94 21.57 4.92 45.09 6.38 65.73-2.89 6.27-2.82 11.76-6.83 17.36-10.75 2.09-1.47.1-4.93-2.02-3.45Z"/><path d="M99.17 84.31c-5.62-1.25-11.79 3.24-13.73 8.36-2.27 5.99.45 13.3 6.34 15.97 6.26 2.84 14.04 1.03 17.58-5.08 3.47-5.98 1.31-13.63-4.21-17.53-2.79-1.97-6.17-2.5-9.49-1.92s-6.62 2.37-8.01 5.42c-.65 1.43 1.1 3.13 2.33 1.8 2.92-3.15 7.28-5.09 11.53-3.37 4.63 1.87 7.14 7.32 5.54 12.04-1.64 4.85-6.99 7.14-11.78 5.91-4.65-1.19-7.38-5.48-6.74-10.21.33-2.44 1.7-4.49 3.52-6.09 1.67-1.47 4.04-3.04 6.38-2.66 1.69.28 2.46-2.24.72-2.62Z"/><path d="M97.43 94.3c-.25.09-.52.18-.74.31-.49.29-.56.46-.9.9 0 .01-.02.02-.02.03l-.05.07-.09.12s-.05.09-.08.14c-.2.35-.3.73-.31 1.13 0 .4.1.78.31 1.13.2.34.47.61.8.8.35.2.73.3 1.13.31.05 0 .1.01.16 0h.16c.26-.04.59-.05.8-.12l.59-.25s.02 0 .03-.02c.01 0 .02-.02.03-.02l.08-.06q.435-.225.69-.63c.22-.24.36-.52.44-.83l.09-.65c.01-.34-.06-.65-.21-.95-.06-.21-.16-.39-.32-.54q-.255-.405-.69-.63l-.59-.25c-.43-.12-.87-.12-1.3 0ZM50.44 26.84c-.24-.35-.48-.71-.72-1.06l-.36-.53s-.06-.09-.09-.13c-.19-.28-.31-.41-.6-.59-.08-.05-.17-.1-.25-.15l-.32-.14-.36-.05-.36.05c-.18.04-.33.12-.46.24a.7.7 0 0 0-.24.24c-.08.08-.14.18-.17.3-.06.11-.09.22-.09.34-.04.18-.03.36.02.54l.06.3c.05.24.16.41.3.59l.36.51.74 1.03c.09.17.22.31.38.42.14.13.31.22.5.27.2.06.39.07.59.03.2 0 .38-.07.55-.18.32-.2.6-.51.68-.89s.07-.82-.15-1.14Zm15.97-4.24c-.44-1.84-.84-3.7-1.35-5.53-.21-.76-1.08-1.3-1.85-1.05s-1.25 1.03-1.05 1.85c.45 1.84 1.02 3.65 1.55 5.47.2.71 1 1.22 1.73.98s1.16-.96.98-1.73Zm16.76-2.73c.29-1.05.29-2.19.25-3.27s-.16-2.2-.37-3.29c-.15-.74-.97-1.18-1.66-1.09s-1.41.74-1.31 1.49c.12.96.22 1.92.28 2.89.03.48.02.97.04 1.45 0 .22.02.45.03.67v.33c0 .17.02.33.05.5.02.16.02.14 0-.05.05.36.12.71.4.97.23.21.48.34.79.38.67.09 1.32-.32 1.51-.98Zm17.37-3.84c-.01-.22-.03-.44 0-.66l-.05.36a7.7 7.7 0 0 1 .51-1.82l-.15.35c.25-.59.6-1.11.99-1.61l-.24.31c.14-.17.28-.34.44-.49.56-.57.61-1.59 0-2.14s-1.52-.58-2.14 0c-.82.76-1.37 1.71-1.74 2.76-.33.95-.37 1.95-.28 2.94.03.36.13.68.39.94.23.23.61.4.94.39.68-.03 1.37-.59 1.33-1.33m17.65-3.48v.29c0 .22.04.42.14.61.06.2.17.36.33.51q.21.225.51.33c.19.1.39.14.61.14l.42-.06c.27-.07.5-.21.7-.41l.25-.32c.14-.25.21-.51.22-.8v-.29c.02-.22-.03-.42-.13-.61q-.09-.3-.33-.51-.21-.225-.51-.33c-.19-.1-.39-.14-.61-.14l-.42.06c-.27.08-.5.21-.7.41l-.25.32c-.14.25-.22.51-.22.8Z"/></svg>