<?xml version="1.0" encoding="UTF-8"?><svg xmlns="http://www.w3.org/2000/svg" viewBox="0 0 180 180"><path d="M68.76 30.21c-13.32 4.63-25.75 12.11-35.42 22.44S17.07 75.63 14.37 89.43c-2.51 12.84-1.63 26.03 2.94 38.31 2.22 5.97 5.29 11.61 9.43 16.48 4.41 5.18 10.03 9.15 16.26 11.85 14.67 6.36 31.52 6.68 46.91 2.9 13.57-3.33 26.34-9.86 37.03-18.84s19.01-20.45 23.5-33.57c4.16-12.16 4.49-25.49 1.57-37.96-2.88-12.27-9.17-24.11-18.94-32.26-11.56-9.65-27.16-13.19-41.96-11.2-3.86.52-7.54 1.47-11.22 2.73-2.58.89-1.47 5.01 1.13 4.11 7.1-2.44 15.1-3 22.54-2.43 6.92.52 13.76 2.32 19.83 5.73 10.24 5.77 17.65 15.57 21.73 26.48 4.15 11.09 5.31 23.42 3.05 35.06-2.44 12.6-8.89 24.11-17.68 33.38-8.99 9.47-20.31 16.77-32.57 21.24-13.1 4.78-27.52 6.58-41.3 4.05-7.42-1.36-14.65-3.99-20.79-8.44A43 43 0 0 1 23.97 134c-6.14-10.46-7.44-23.22-6.38-35.12 1.15-13 5.48-25.33 13.03-36.01 7.63-10.79 18.26-19.42 29.98-25.4 2.95-1.5 5.97-2.83 9.06-4 2-.76 1.18-3.98-.9-3.25Z"/><path d="M52.08 157.63c29.22 6.52 63.7 3.67 90.78-9.53 10.17-4.96 24.93-12.67 26.97-25.11.86-5.23-1.51-11.17-6.33-13.39-3.89-1.79-8.45-.96-12.63-1.9-2.9 10.28-9.91 18.82-16.94 26.87-1.91 2.19-3.85 4.38-6.14 6.15-2.35 1.82-5.03 3.17-7.69 4.51-8.39 4.22-16.79 8.44-25.18 12.66"/><path d="M51.68 159.08c11.15 3.05 22.76 4.05 34.29 3.88 11.76-.17 23.53-1.69 34.91-4.66 10.43-2.72 20.44-6.79 29.9-11.97 8.09-4.43 16.64-10.28 20.05-19.24 1.96-5.15 1.53-11.14-1.86-15.6-1.83-2.41-4.37-4.03-7.32-4.74-3.35-.81-6.84-.48-10.2-1.19-1.18-.25-2.38.34-2.73 1.55-2.61 9.03-8.37 16.58-14.4 23.62-3.09 3.61-6.14 7.33-10.23 9.83-4.45 2.72-9.3 4.85-13.95 7.19-5.45 2.74-10.9 5.48-16.34 8.24-2.52 1.28-.3 5.05 2.22 3.79 5.02-2.5 10.03-5.02 15.03-7.53 4.84-2.43 9.82-4.69 14.51-7.4 4.42-2.56 7.75-6.18 11.06-10s6.39-7.65 9.21-11.77c3.11-4.55 5.65-9.47 7.17-14.78l-2.73 1.55c2.88.61 5.8.53 8.72.8 2.36.22 4.52.97 6.18 2.72 3.02 3.19 3.31 7.91 1.98 11.9-2.7 8.1-10.92 13.39-18 17.31-18.48 10.24-39.15 15.49-60.22 16.31-12.21.48-24.43-.66-36.46-2.71-1.88-.32-2.71 2.39-.8 2.91ZM22.51 45.3l-4.44-.91c-1.58-.32-3.18-.74-4.79-.88-.92-.08-1.72.77-1.83 1.62-.12.9.43 1.81 1.34 2.05.73.2 1.49.27 2.24.39s1.44.23 2.16.34l4.42.66c.87.13 1.87-.22 2.09-1.18.19-.85-.25-1.9-1.18-2.09Zm11.21-14.9c-.71-.72-1.38-1.48-2-2.28l.25.33c-.36-.47-.71-.95-1.04-1.45-.44-.67-.79-1.45-1.53-1.82-.49-.24-1.03-.29-1.51 0s-.72.76-.74 1.3.13.99.41 1.41c.15.22.3.45.45.67.39.55.8 1.09 1.22 1.62.7.87 1.46 1.69 2.27 2.45.6.56 1.64.64 2.22 0s.62-1.6 0-2.22Zm15.82-6.34c-.26-.99-.45-1.98-.59-2.99l.06.44q-.09-.675-.15-1.35c-.02-.21-.03-.42-.05-.63-.04-.52-.12-.88-.34-1.36-.11-.23-.38-.47-.59-.59-.32-.19-.69-.25-1.06-.2-.65.09-1.19.55-1.38 1.19-.21.7-.03 1.45.08 2.15.07.47.16.93.26 1.39.2.94.46 1.87.77 2.78.26.77 1.08 1.35 1.9 1.08s1.3-1.06 1.08-1.9Zm14.24-1.76c1.98 0 1.98-3.08 0-3.08s-1.98 3.08 0 3.08M10 66.28c.18 0 .38-.04.53-.07.04 0 .07-.01.11-.02s.07-.02.1-.03c.14-.06.29-.12.43-.18.02 0 .03-.02.05-.03.03-.02.06-.03.09-.05.07-.05.14-.11.21-.16s.14-.1.2-.16c.03-.02.05-.05.08-.08.01-.01.02-.03.03-.04.1-.12.2-.25.29-.38.12-.19.19-.4.2-.62.05-.22.04-.45-.03-.67a1.2 1.2 0 0 0-.3-.57c-.12-.18-.28-.33-.47-.43l-.4-.17c-.3-.08-.6-.08-.89 0l-.4.17q-.375.225-.6.6c-.02.04-.05.08-.07.11l.26-.34c-.05.06-.1.11-.16.16l.34-.26c-.06.05-.13.09-.2.12l.39-.17c-.07.03-.14.05-.22.06-.21.05-.4.15-.56.29-.18.12-.32.27-.42.46l-.16.39a1.2 1.2 0 0 0-.03.65c0 .15.04.28.11.41.07.2.18.38.34.53l.33.26c.25.15.53.22.82.22m45.2 2.03c.92-2.5 1.86-5.04 3.41-7.22 1.55-2.17 3.81-3.97 6.45-4.37.92-.14 1.93-.08 2.69.45.83.59 1.22 1.62 1.44 2.62 1.01 4.52-.32 9.22-1.91 13.57-2.18 5.98-4.94 11.86-9.16 16.62-.7.8-1.48 1.58-2.47 1.97s-2.24.29-2.95-.5c-.46-.51-.63-1.22-.74-1.91-.55-3.25-.31-6.62.67-9.76.15-.47.33-.96.71-1.28.47-.39 1.13-.41 1.74-.44 2.67-.14 5.3-.78 7.73-1.89a67.6 67.6 0 0 0-7.37-7.58"/><path d="M56.65 68.71c1.54-3.97 3.68-9.44 8.49-10.25 1.06-.18 1.77.01 2.14 1.06.41 1.16.47 2.47.45 3.69-.04 2.64-.7 5.2-1.52 7.69-1.53 4.62-3.46 9.19-6.06 13.31-1.22 1.93-2.63 4.2-4.46 5.62-.45.35-1.33.85-1.76.25-.58-.83-.45-2.7-.47-3.66-.03-1.34-.03-2.69.23-4.01.13-.68.23-1.55.55-2.18.27-.54.39-.44 1.05-.48 2.93-.18 5.7-.9 8.38-2.08 1.11-.49.98-1.96.35-2.71a74 74 0 0 0-7.33-7.62c-1.71-1.55-4.27 1.03-2.53 2.53 2.67 2.31 5.14 4.83 7.42 7.53.12-.9.23-1.81.35-2.71-1.49.67-3.06 1.14-4.66 1.44-1.5.27-3.3.03-4.64.83s-1.68 2.32-2.01 3.68c-.41 1.64-.72 3.43-.77 5.12-.08 2.72.03 7.04 3.21 8.03 3.21.99 5.64-1.57 7.45-3.83 4.02-5.03 6.7-10.93 8.82-16.98 1.12-3.2 2.05-6.58 2-9.99-.05-2.86-.61-6.88-3.83-7.83-3.18-.94-6.74 1.02-8.86 3.29-2.48 2.66-3.73 6.1-4.9 9.47-.65 1.85 2.22 2.58 2.91.8Zm34.99.42c.92-2.5 1.86-5.04 3.41-7.22s3.81-3.97 6.45-4.37c.92-.14 1.93-.08 2.69.45.83.59 1.22 1.62 1.44 2.62 1.01 4.52-.32 9.22-1.91 13.57-2.18 5.98-4.94 11.86-9.16 16.62-.7.8-1.48 1.58-2.47 1.97s-2.24.29-2.95-.5c-.46-.51-.63-1.22-.74-1.91-.55-3.25-.31-6.62.67-9.76.15-.47.33-.96.71-1.28.47-.39 1.13-.41 1.74-.44 2.67-.14 5.3-.78 7.73-1.89a67.6 67.6 0 0 0-7.37-7.58"/><path d="M93.09 69.53c1.54-3.97 3.68-9.44 8.49-10.25 1.06-.18 1.77.01 2.14 1.06.41 1.16.47 2.47.45 3.69-.04 2.64-.7 5.2-1.52 7.69-1.53 4.62-3.46 9.19-6.06 13.31-1.22 1.93-2.63 4.2-4.46 5.62-.45.35-1.33.85-1.76.25-.58-.83-.45-2.7-.47-3.66-.03-1.34-.03-2.69.23-4.01.13-.68.23-1.55.55-2.18.27-.54.39-.44 1.05-.48 2.93-.18 5.7-.9 8.38-2.08 1.11-.49.98-1.96.35-2.71a74 74 0 0 0-7.33-7.62c-1.71-1.55-4.27 1.03-2.53 2.53 2.67 2.31 5.14 4.83 7.42 7.53.12-.9.23-1.81.35-2.71-1.49.67-3.06 1.14-4.66 1.44-1.5.27-3.3.03-4.64.83s-1.68 2.32-2.01 3.68c-.41 1.64-.72 3.43-.77 5.12-.08 2.72.03 7.04 3.21 8.03 3.21.99 5.64-1.57 7.45-3.83 4.02-5.03 6.7-10.93 8.82-16.98 1.12-3.2 2.05-6.58 2-9.99-.05-2.86-.61-6.88-3.83-7.83-3.18-.94-6.74 1.02-8.86 3.29-2.48 2.66-3.73 6.1-4.9 9.47-.65 1.85 2.22 2.58 2.91.8Zm-32.45 39.8c-4.92-3.23-10.75-6.32-16.71-3.89-5.47 2.23-7.3 8.05-6.36 13.52.93 5.37 4.59 10.03 8.8 13.32 4.65 3.63 10.23 6.04 15.97 7.33 12.03 2.69 24.87.32 35.06-6.65 4.87-3.33 9.91-7.76 11.97-13.45 1.98-5.47.05-11.78-5.41-14.28-6.19-2.82-12.54-.58-18.4 1.9-3.24 1.37-6.46 2.58-9.96 3.1s-7.39.52-10.95-.17c-2.13-.41-3.03 2.64-.91 3.28 5.65 1.71 11.55 1.81 17.22.09 5.07-1.54 9.86-4.86 15.23-5.3 3.99-.33 8.71.97 9.62 5.42 1.05 5.15-3.24 9.68-6.74 12.8-7.9 7.02-18.46 10.66-28.99 10.11-9.54-.49-20.81-4.46-26.18-12.89-2.32-3.65-3.95-9.58-.45-13.09 4.28-4.3 11.44-1.13 15.81 1.23 1.57.85 2.88-1.41 1.4-2.39Z"/><path d="M59.23 108.82c-5.53-1.8-12.25-.88-14.65 5.08s-.47 13.55 4.23 18.07c1.35 1.3 2.86 2.45 4.43 3.47 1.74 1.13 3.88 2.58 5.95 2.93 1.77.3 2.61-1.76 1.19-2.83-.94-.71-2.1-1.11-3.13-1.68a34 34 0 0 1-2.46-1.48c-1.36-.9-2.63-1.91-3.79-3.06-2.36-2.35-3.74-5.29-3.94-8.64-.18-3.01.33-6.76 3.18-8.43 2.42-1.41 5.57-1 8.21-.63 1.82.25 2.62-2.22.78-2.82Z"/><path d="M55.35 136.46c1.42 0 1.42-2.2 0-2.2s-1.42 2.2 0 2.2M46 120.42c7.88 3.28 16.35 5.26 24.9 5.47 4.2.11 8.43-.25 12.55-1.08 4.27-.85 8.41-2.27 12.52-3.69 4.18-1.45 8.27-3.18 11.58-6.18 1.54-1.39-.75-3.67-2.28-2.28-2.72 2.48-6.13 3.97-9.57 5.18-3.86 1.36-7.79 2.69-11.78 3.6-7.81 1.77-16.02 1.58-23.85.03-4.53-.89-8.98-2.23-13.3-3.85-1.78-.67-2.46 2.1-.77 2.8m67.38-23.67c1.73 0 1.73-2.69 0-2.69s-1.73 2.69 0 2.69m5.18-4.83c1.93 0 1.93-3 0-3s-1.93 3 0 3m.62 7.86c1.9 0 1.9-2.95 0-2.95s-1.9 2.95 0 2.95m5.76-4.93.2-.05.32-.13c.15-.08.28-.2.37-.34.08-.08.14-.18.17-.29.08-.16.12-.33.11-.51l-.05-.35-.13-.32c-.08-.15-.2-.28-.34-.37a1 1 0 0 0-.45-.24l-.2-.05c-.24-.07-.48-.07-.73 0-.23.06-.43.18-.6.35l-.21.28c-.12.21-.19.44-.19.69 0 .19.03.36.12.53.06.17.15.32.28.44.17.17.37.29.6.35.24.07.48.07.73 0Zm8.35-4.31c2.02 0 2.02-3.14 0-3.14s-2.02 3.14 0 3.14M27.34 98.1v-.21c0-.21-.04-.4-.13-.58-.06-.19-.17-.35-.31-.49-.14-.15-.3-.25-.49-.31-.18-.09-.38-.14-.58-.13l-.4.05c-.26.07-.48.2-.67.39l-.24.31c-.14.24-.21.49-.21.76v.21c0 .21.04.4.13.58.06.19.17.35.31.49.14.15.3.25.49.31.18.09.38.14.58.13l.4-.05c.26-.07.48-.2.67-.39l.24-.31c.14-.24.21-.49.21-.76m2.21-5.89h.41c.19 0 .37-.03.53-.12.17-.06.32-.15.44-.28.13-.12.23-.27.28-.44.09-.16.13-.34.12-.53l-.05-.37c-.07-.23-.18-.44-.35-.61l-.28-.22c-.21-.12-.45-.19-.69-.19h-.41c-.19 0-.37.03-.53.12-.17.06-.32.15-.44.28-.13.12-.23.27-.28.44-.09.16-.13.34-.12.53l.05.37c.07.23.18.44.35.61l.28.22c.21.12.45.19.69.19m3.53 7.88c1.76 0 1.76-2.73 0-2.73s-1.76 2.73 0 2.73m5.81-4.79c1.74 0 1.74-2.7 0-2.7s-1.74 2.7 0 2.7"/></svg>