<?xml version="1.0" encoding="UTF-8"?><svg xmlns="http://www.w3.org/2000/svg" viewBox="0 0 180 180"><path d="M94.43 116.59a47 47 0 0 0-2.71 11.95c-.02.2-.03.42.1.58.12.15.32.19.51.22 1.14.18 2.3.25 3.45.23.31 0 .63-.02.89-.18.39-.23.58-.7.61-1.16s-.07-.9-.11-1.36c-.12-1.39.36-2.74.71-4.09.37-1.43.61-2.9.7-4.38.04-.64.03-1.34-.38-1.83-.66-.78-1.91-.56-2.89-.26"/><path d="M92.77 116.13c-1.07 2.55-1.95 5.18-2.47 7.89-.28 1.47-.57 3.02-.63 4.51-.04.95.36 1.99 1.25 2.46.72.38 1.58.43 2.38.51 1.39.15 3.13.36 4.4-.35 1.44-.8 1.73-2.47 1.56-3.95-.06-.55-.07-1.12 0-1.49.14-.73.35-1.44.55-2.15.38-1.41.64-2.85.75-4.31.12-1.57.11-3.26-1.19-4.37s-3.07-1.03-4.63-.59c-1.05.3-1.81 1.49-1.46 2.57s1.45 1.79 2.57 1.46c.3-.09.6-.16.91-.23-.42.09.1 0 .19 0 .31-.01.06.03-.11-.05-.16-.07-.2-.19-.31-.3l-.04-.15c.05.21.06.24.05.1-.06-.24 0 .25 0 .31 0 .21-.02.42-.04.63-.07.74-.16 1.31-.31 2.14s-.39 1.68-.61 2.52c-.24.89-.43 1.79-.49 2.71-.03.44 0 .87.06 1.3.02.19.05.38.06.56 0 .16-.09.54.03.13-.1.35.08-.09.2-.22 0 0 .45-.44.52-.3-.03-.06-1.08 0-1.18 0-.78-.02-1.69-.03-2.29-.25l.9.53.09.12.28 1.03c-.11-.92.14-1.92.26-2.72.16-1.03.33-2.07.53-3.09.41-2.05.9-4.09 1.52-6.08.27-.89-.33-1.87-1.2-2.11-.99-.27-1.75.34-2.11 1.2Z"/><path d="M97.23 129.21c2.4-.19 4.8-.32 7.2-.48 1.14-.08 2.48-.37 3.62-.18.97.16 1.8.96 2.54 1.55.89.71 1.76 1.45 2.6 2.23.77.72 1.47 1.58 2.47 1.98 2.3.91 4.03-1.26 5.59-2.6l-2.46-2.46c-1.13 1.16-2.28 2.3-3.43 3.45l2.18-.28c-2.08-.95-4.17-1.86-6.25-2.78-.89-.4-1.79-.79-2.68-1.19s-1.76-.92-2.72-1.08c-1.9-.33-4.15.56-5.99.98-.55.12-1.11.25-1.66.37-.47.11-1.26.13-1.66.37q-.96.015 0 .48c.19.41.35.54.47.37.05-.03.05-1.05.06-1.17.19-1.88-2.88-2.74-3.64-.99-.79 1.82-.84 4.19 1.19 5.22 1.13.57 2.33.21 3.49-.06 1.26-.3 2.53-.59 3.79-.89 1.1-.26 2.31-.74 3.44-.83 1.04-.08 2.26.77 3.19 1.17 2.39 1.04 4.77 2.11 7.17 3.13.73.31 1.59.35 2.18-.28 1.11-1.18 2.22-2.37 3.35-3.53 1.58-1.64-.78-3.91-2.46-2.46-.47.41-.95.81-1.42 1.22-.18.15-.36.3-.53.46-.29.21-.23.22.19.05-.56-.79-1.54-1.5-2.27-2.13-1.47-1.29-3.17-2.89-5.05-3.54-1.94-.67-4.25-.13-6.23.11-2.22.27-4.4.67-6.6 1.1-1.52.29-1.19 2.84.37 2.72Z"/><path d="M96.15 128.44c-1.09 1.43-.53 1.69-.99 3.42-.51 1.94-3.05 4.63-4.2 6.28-1 1.43-1.97 2.73-3.6 2.11l-7.7-2.95c-.21-.08-.42-.16-.64-.14-.27.02-.5.19-.72.36-.85.64-1.71 1.28-2.56 1.92.24-1.18.65-2.32 1.22-3.37.11-.21.25-.43.47-.52.21-.09.45-.05.67 0 3.37.66 6.74 1.33 10.12 1.99 1.22-2.6 2.44-5.19 3.66-7.79"/><path d="M95.07 127.35c-.8.92-1.27 1.83-1.44 3.04-.12.89-.51 1.74-1.09 2.57-.68.99-1.46 1.91-2.2 2.85-.35.45-.7.89-1.03 1.36-.23.32-.7 1.18-1.1 1.27-.13.03-.54-.17-.73-.24-.59-.23-1.19-.47-1.78-.7-1.51-.59-3.02-1.19-4.53-1.78-.41-.16-.84-.38-1.28-.49-2.05-.52-3.69 1.33-5.17 2.46l2.97 2.28c.12-.59.27-1.17.47-1.74.06-.18.13-.35.2-.52.07-.16.15-.33.23-.49.18-.3.07-.24-.31.17h-1.05c3.5.5 6.98 1.37 10.45 2.06.81.16 1.86-.09 2.25-.92 1.22-2.6 2.45-5.19 3.67-7.79.46-.98.27-2.17-.72-2.75-.87-.51-2.29-.27-2.75.72-1.22 2.6-2.43 5.2-3.65 7.8l2.25-.92c-3.05-.6-6.1-1.19-9.15-1.79-1.63-.32-3.19-.54-4.23 1.04-.78 1.19-1.27 2.67-1.58 4.04-.35 1.55 1.45 3.4 2.97 2.28.7-.51 1.39-1.03 2.09-1.54.15-.11.35-.22.48-.36.34-.34.01 0 0-.09.13 3.02-.22-.04-.21.07 0 0 .04.01.05.02.11.21 1.13.42 1.34.5l4.71 1.76c1.49.55 2.89 1.19 4.48.47 1.34-.6 2.15-1.83 2.98-2.99.72-1.01 1.52-1.95 2.26-2.95.81-1.08 1.58-2.3 1.93-3.62.18-.66.26-1.37.28-2.05.01-.59-.05-.55.33-1.18.87-1.46-1.24-3.19-2.4-1.86Zm.69-13.37c-1.77.35-3.55.59-5.31 1.04-1.75.45-3.51.85-5.25 1.35s-2.83 1.41-3.99 2.67c-1.22 1.32-2.4 2.68-3.62 4l2.61 2.61c1.03-1.15 2.07-2.34 3.32-3.26 1.29-.95 2.69-1.41 4.27-1.62 1.9-.26 3.8-.48 5.69-.82 1.66-.3 4.64-.66 4.35-3.06-.12-1-.77-1.87-1.87-1.87-.91 0-1.99.86-1.87 1.87l.03-.13.48-.82s.09-.01.11 0c-.15-.02-.41.09-.55.12-.45.09-.89.17-1.34.25-.89.17-1.79.33-2.68.46-1.68.26-3.41.33-5.06.79-3.11.87-5.38 3.17-7.49 5.49-1.59 1.75.98 4.35 2.61 2.61 1.12-1.19 2.28-2.34 3.4-3.53.46-.49.91-1.08 1.45-1.49.5-.38 1.13-.53 1.71-.71 1.61-.47 3.22-.94 4.83-1.4s3.29-1.17 4.94-1.75c1.76-.62 1.06-3.15-.77-2.79Z"/><path d="M97.07 117.24c1.32.57 2.64 1.14 3.89 1.85 1.27.73 2.44 1.64 3.83 2.14 3.2 1.15 5.85-1.67 7.81-3.82.64-.7.69-1.79 0-2.48-.73-.73-1.73-.59-2.48 0-.93.74-1.86 1.49-2.8 2.22-.6.46-1.25 1-1.99 1.04-.99.05-2.07-.44-3-.73a53 53 0 0 1-3.5-1.18c-.96-.36-2.08.4-2.34 1.33-.28 1.02.35 2.02 1.33 2.34 1.34.43 2.68.86 4.03 1.23 1.37.38 2.77.75 4.2.51 1.31-.22 2.38-.95 3.4-1.75s2.09-1.68 3.14-2.52l-2.48-2.48c-.93.94-1.92 1.9-2.99 2.67-.71.5-1.08.41-1.89-.02-1.05-.55-2.01-1.24-3.09-1.74-1.25-.58-2.54-1.06-3.84-1.53-1.69-.61-2.9 2.21-1.23 2.93Zm-2.35-2.68q-.645-.84-1.35-1.56c-.56-.57-1.19-1.21-1.29-2.21-.1-1.01.45-1.98 1.11-2.21.23-.08.47-.08.7-.01.43.13.81.51 1.18.89.32.33.64.68.86 1.16s.31 1.14.13 1.66c-.25.71-.92.95-1.1 1.7-.08.32-.05.69.02 1.02"/><path d="M95.97 113.84c-.22-.36-.45-.71-.7-1.05-.15-.21-.3-.41-.46-.61-.09-.11-.18-.23-.27-.34-.2-.26.24.33.05.06s-.37-.54-.54-.82c-.04-.07-.08-.13-.11-.2-.16-.32.02.12.05.12-.07-.01-.13-.53-.14-.59l.06.48a3.4 3.4 0 0 1 0-.64l-.07.49c.03-.17.1-.33.12-.5q-.18.405-.09.21c.02-.04.04-.09.06-.13.04-.07.08-.13.12-.2.08-.15-.32.33-.1.12.06-.05.26-.23 0-.03-.35.26 0 0 .01.01.02.06-.58.16-.07.07l-.49.07c.08 0 .16-.01.23 0l-.49-.07s.22.02.23.04c0 0-.41-.22-.17-.07.03.02.17.08.17.11 0-.03-.32-.28-.12-.09.23.21.44.42.65.65.06.06.34.4.15.16s.08.13.12.2c.03.06.14.3.03.02s-.02-.05 0 .01c.05.14.08.29.1.44l-.07-.49c.03.21.03.4.01.61l.07-.49c-.01.08-.02.16-.05.24-.09.35.08-.11.07-.13.01.03-.1.16-.11.19-.09.16.32-.37.11-.14-.27.29-.53.58-.75.9-.24.34-.42.73-.5 1.14-.12.57-.16 1.34.07 1.89.19.44.39.86.84 1.1.37.2.75.27 1.17.22.89-.12 1.59-.88 1.59-1.8 0-.31-.06-.6-.02-.91l-.07.5c.01-.07.04-.14.05-.2.05-.31-.06.23-.09.2l.09-.15c.07-.12.22-.19-.14.18.15-.15.29-.33.43-.5.59-.72.95-1.53.93-2.47-.02-1.57-.91-2.85-2.03-3.88-.69-.64-1.57-1.15-2.54-1.08-1.06.08-1.85.62-2.46 1.46-.95 1.3-.89 3.17-.12 4.54.34.59.82 1.03 1.34 1.45s1.04.94 1.53 1.45 1.34.54 1.89.11.75-1.24.37-1.85Z"/><path d="M78.68 97.09c-5.25-1.99-10.72-3.72-15.8-6.12-2.02-.96-3.9.96-2.97 2.97 1.93 4.19 3.08 8.75 3.38 13.36l2.19-2.19c-6.21.42-12.39 1.24-18.48 2.5-1.69.35-2.09 2.59-.98 3.73 4.03 4.16 8.04 8.32 12.06 12.49v-3.17c-4.63 3.93-9.72 7.26-15.12 10.04-1.42.73-1.57 3.26 0 3.95 5.44 2.39 11.09 4.13 16.96 5.09l-1.01-3.83c-4.03 5.17-7.41 10.74-10.02 16.76-.74 1.7.49 4 2.59 3.36a99.6 99.6 0 0 1 15.18-3.35c-.95-.72-1.9-1.45-2.85-2.17.5 4.66.97 9.32 1.51 13.97.17 1.5 1.86 3.08 3.4 1.95 5.62-4.09 11.28-8.11 16.93-12.16-1.09-.44-2.18-.89-3.27-1.33 2.41 6.22 5.17 12.34 8.39 18.18.65 1.18 2.58 1.54 3.5.45 4.75-5.62 8.7-11.89 11.57-18.68l-3.43.44c6.16 5.16 12.57 9.98 19.29 14.38 1.09.71 3.08.08 3.28-1.33l2.64-19.07-2.14 1.63c7.93.26 15.8 1.26 23.54 3 1.91.43 3.49-1.54 2.53-3.29a37.6 37.6 0 0 0-13.16-13.94l.46 3.56c5.56-4.31 10.83-8.99 15.76-14 1.12-1.14.71-3.42-.99-3.76-6.99-1.39-13.98-2.8-20.97-4.2l1.36 3.34c4.64-6.15 8.96-12.53 12.95-19.12 1.14-1.89-.74-3.65-2.6-3.38-9.09 1.34-18.11 3.06-27.06 5.14.87 1.13 1.74 2.27 2.62 3.4 3.41-7.1 6.17-14.49 8.18-22.11.45-1.69-1.14-3.35-2.86-2.86-10.32 2.94-20.42 6.55-30.3 10.74-1.16.49-1.41 2.2-.84 3.19.7 1.2 2.02 1.33 3.19.84 9.5-4.04 19.26-7.45 29.19-10.29l-2.86-2.86c-1.91 7.23-4.47 14.26-7.71 21-.87 1.82.56 3.88 2.62 3.4 8.94-2.09 17.97-3.81 27.05-5.17l-2.6-3.38c-3.97 6.6-8.28 12.99-12.9 19.15-.85 1.13.03 3.08 1.36 3.34 6.99 1.38 13.99 2.76 20.98 4.16l-.99-3.76c-4.81 4.87-9.92 9.44-15.33 13.62-1.33 1.03-1.58 2.93 0 3.92 4.86 3.04 8.83 7.25 11.58 12.28l2.53-3.29c-8.13-1.78-16.41-2.82-24.73-3.11-.87-.03-2.01.7-2.14 1.63-.89 6.35-1.78 12.71-2.66 19.06 1.09-.44 2.18-.89 3.28-1.33-6.39-4.19-12.58-8.72-18.45-13.62-1.36-1.14-2.99-.61-3.66.97a64.2 64.2 0 0 1-10.73 17.21l3.5.45c-2.98-5.56-5.67-11.23-7.95-17.12-.47-1.21-1.99-2.25-3.27-1.33-5.65 4.04-11.28 8.1-16.97 12.09l3.4 1.95c-.48-4.66-1.02-9.31-1.53-13.97-.12-1.08-.94-2.42-2.25-2.25-5.35.71-10.63 1.79-15.8 3.36l2.59 3.36c2.44-5.63 5.54-10.99 9.31-15.84.93-1.19.89-3.51-1.01-3.83-5.45-.89-10.81-2.41-15.87-4.63v3.95c5.74-2.96 11.08-6.62 15.98-10.82.93-.8.79-2.36 0-3.17-4.03-4.15-8.06-8.3-12.08-12.47l-.98 3.73c5.71-1.17 11.48-1.98 17.3-2.41 1.11-.08 2.28-.94 2.19-2.19-.4-5.43-1.74-10.61-4.02-15.55l-2.45 3.19c5.61 1.41 11.09 3.58 16.57 5.44 2.1.71 2.93-2.52.91-3.28Z"/><path d="M71.44 51.53c-1.01 3.02-1.64 6.18-2.47 9.26-.84 3.09-1.77 6.15-2.78 9.19-.41 1.22.72 2.93 2.1 2.76 4.58-.58 9.16-1.13 13.73-1.76l-2.49-3.24c-2.4 4.96-4.89 9.91-6.99 15.01-.45 1.09.69 2.4 1.79 2.34 2.9-.16 5.77-.3 8.66-.53L81.4 81.8c-2.64 5.13-3.23 11.11-4.42 16.69-.45 2.09 2.38 2.79 3.15.87.86-2.16 1.18-4.51 1.69-6.77.73-3.22 2-6.22 2.94-9.37.44-1.47-.95-2.46-2.26-2.26-2.65.4-5.49.56-8.17.44.53.93 1.07 1.86 1.6 2.79 2.68-4.61 5.02-9.45 7.42-14.21.67-1.32-.11-3.54-1.91-3.32-4.39.54-8.77 1.16-13.15 1.74l2.1 2.76c.92-3.15 1.77-6.31 2.52-9.51s1.52-6.4 1.74-9.66c.13-1.91-2.65-2.11-3.21-.43Zm21.99-3.18c-1.27 4.22-2.98 8.35-4.9 12.31-.61 1.27.11 2.91 1.66 2.89 3.99-.05 7.98-.18 11.96-.28-.57-1-1.14-1.99-1.72-2.99-3.25 5.16-6.59 10.29-10.13 15.26-.84 1.18.27 3.26 1.76 3.07 3.97-.49 7.77-1.93 11.75-2.37l-1.77-3.09c-2.1 3.96-4.23 7.9-6.24 11.91-1.64 3.28-3.24 6.65-4.18 10.2-.54 2.04 2.63 3.56 3.54 1.49 1.43-3.25 2.72-6.54 4.32-9.72 1.99-3.96 4.14-7.84 6.1-11.81.86-1.73-.55-3.25-2.32-3.01-3.78.52-7.41 1.84-11.2 2.31l1.76 3.07c3.55-4.97 6.81-10.13 10.03-15.31.78-1.26-.23-3.04-1.72-2.99-3.99.13-7.98.23-11.96.42l1.66 2.89c1.93-4.37 3.41-8.8 4.65-13.41.53-1.99-2.48-2.81-3.07-.85Z"/><path d="M109.97 45.23c-14.52 2.78-29.04 5.57-43.57 8.35-9.63 1.84-19.33 3.7-29.13 3.64-2-.01-4.04-.11-5.91-.82s-3.57-2.12-4.16-4.04c-1.1-3.58 2.03-7.16 5.44-8.71 4.06-1.85 8.67-2.03 13.13-1.93-2.93-.96-4.98-4.09-4.7-7.16s2.89-5.76 5.94-6.16c1.56-.2 3.13.13 4.66.5 3.4.81 6.77 1.77 10.09 2.87-4.06-3.23-5.94-9.06-4.25-13.96s6.99-8.39 12.13-7.71c2.12.28 4.1 1.17 6.02 2.1 6.77 3.26 13.51 7.28 17.7 13.52-1.6-2.04-1.43-5.13.04-7.27s4.02-3.37 6.6-3.67c3.61-.42 7.39.9 9.95 3.48s3.85 6.37 3.4 9.98c3.29-1.51 6.97-1.93 10.58-2.14 2.19-.13 4.43-.18 6.52.48s4.03 2.14 4.7 4.23c.88 2.75-.72 5.81-3.05 7.53s-5.24 2.39-8.06 3.02l-27.9 6.27"/><path d="M109.53 43.63c-14.4 2.6-28.84 5.02-43.24 7.67-7.03 1.29-14.06 2.62-21.19 3.18-3.47.27-7.13.56-10.59.14-2.01-.24-4.96-1.25-5.06-3.69-.12-2.83 3.16-4.95 5.44-5.83 3.41-1.31 7.3-1.25 10.89-1.12 1.12.04 2.11-.9 2.23-1.97.14-1.19-.54-2.08-1.63-2.5-1.59-.6-2.77-2.23-2.96-3.9-.21-1.83.89-3.55 2.38-4.54 2.06-1.39 4.78-.36 6.96.21 2.84.73 5.69 1.54 8.45 2.53 1.98.71 3.65-2.19 2.07-3.56-4.77-4.14-5.84-11.92-.42-16.03 2.8-2.12 6.04-2.31 9.26-1.1 3.54 1.33 7.01 3.32 10.18 5.37 3.47 2.24 6.69 4.97 9.03 8.41 1.36-.8 2.72-1.59 4.09-2.39-1.36-1.89-.85-4.29.9-5.77s4.31-1.94 6.55-1.58c5.37.87 8.7 5.76 8.13 11.05-.22 1.98 2.12 2.68 3.56 2.04 3.71-1.64 8.23-1.98 12.25-1.87 2.71.08 6.92 1.36 6.05 4.89s-5.07 4.79-8.18 5.59c-4.46 1.15-8.96 2.14-13.45 3.16-5.21 1.19-10.42 2.35-15.57 3.77-2.36.65-1.34 4.03 1 3.62 5.51-.97 10.97-2.21 16.43-3.42q3.975-.885 7.95-1.74c2.48-.53 5.02-.95 7.46-1.66 4.46-1.31 8.71-4.43 9.28-9.36s-3.8-8.65-8.38-9.37c-2.77-.43-5.62-.24-8.39.07-3.08.34-5.99.98-8.84 2.24 1.19.68 2.37 1.36 3.56 2.04.86-8.12-5.38-15.19-13.39-15.87-3.65-.31-7.73.98-10.16 3.81s-3.2 7.49-.84 10.74c.75 1.03 2.06 1.54 3.24.85 1.04-.61 1.58-2.18.85-3.24-2.6-3.78-5.95-6.83-9.74-9.39s-8.03-4.87-12.33-6.46c-4.24-1.56-8.93-1.13-12.65 1.51-3.54 2.5-5.76 6.27-6.03 10.62-.29 4.7 1.88 9.6 5.6 12.48.69-1.19 1.38-2.38 2.07-3.56-3.65-1.09-7.3-2.23-11.03-3-3.42-.7-6.95-.54-9.68 1.89-5.27 4.68-2.78 13.17 3.54 15.32l.6-4.47c-6.91-.01-15.37.56-19.73 6.74-1.95 2.77-2.03 6.54.01 9.27 2.32 3.1 6.13 4.07 9.83 4.21 7.98.3 16.08-1.04 23.9-2.49 7.96-1.48 15.88-3.16 23.81-4.78 8.94-1.82 17.87-3.75 26.81-5.56 2.1-.43 1.2-3.57-.88-3.19Zm11.42 28.06.35-1.32c.06-.22.12-.44.17-.66s.08-.45.11-.68c.06-.19.07-.39.03-.58 0-.19-.07-.37-.17-.54-.18-.3-.52-.59-.87-.67-.37-.08-.79-.07-1.12.15s-.55.5-.67.87c-.07.22-.15.43-.2.65s-.09.45-.13.67l-.27 1.34c-.08.38-.06.76.14 1.11.17.3.52.58.86.66.37.08.78.07 1.11-.14s.56-.49.66-.86m11.92 1.27c.07-.09.14-.19.21-.28l-.26.34c.38-.49.79-.95 1.24-1.38.22-.21.44-.41.67-.61.12-.11.24-.21.34-.33s.21-.24.31-.36c.26-.29.47-.68.45-1.08-.02-.35-.12-.65-.33-.93-.2-.25-.47-.48-.8-.55l-.41-.05c-.28 0-.53.07-.77.21-.16.07-.32.15-.47.23-.13.07-.24.17-.35.25-.12.09-.25.19-.37.29-.27.21-.51.46-.75.7-.57.58-1.09 1.23-1.57 1.89-.12.19-.19.4-.2.62q-.075.33.03.66c.11.38.4.8.76.99.38.2.85.3 1.28.17l.4-.17c.25-.15.45-.35.59-.59Zm7.35 7.34c.7-.29 1.4-.59 2.08-.92l.84-.42c.15-.08.3-.16.44-.23.25-.14.47-.32.68-.51l.25-.32c.12-.18.18-.38.19-.59.05-.34 0-.72-.19-1.01q-.225-.345-.57-.57c-.3-.2-.88-.29-1.22-.16-.27.1-.53.2-.77.35-.12.08-.25.16-.37.24-.27.17-.55.34-.83.51-.55.32-1.1.63-1.67.92-.31.16-.61.55-.68.89s-.06.65.07.97c.12.29.33.56.61.71.33.17.78.3 1.14.15Zm6.78 8.91c2.23 0 2.24-3.47 0-3.47s-2.24 3.47 0 3.47m-98.75 2.92c-.36-.27-.72-.53-1.08-.8l-.54-.4c-.08-.06-.16-.13-.25-.18-.1-.06-.22-.1-.33-.15-.19-.12-.39-.18-.61-.19a1.2 1.2 0 0 0-.65.03l-.39.16c-.19.1-.34.24-.46.42q-.15.15-.21.36c-.1.19-.15.4-.14.63.02.42.15.87.48 1.15.26.23.53.46.83.63l.6.34c.39.22.79.44 1.18.66.35.2.79.26 1.19.16.36-.1.74-.37.92-.71.19-.36.28-.79.16-1.19l-.16-.37c-.14-.23-.32-.42-.55-.55Zm-8.52 6.36c-.6-.12-1.2-.24-1.81-.33-.29-.08-.59-.08-.88 0l-.4.17q-.375.225-.6.6c-.12.19-.19.4-.2.62q-.075.33.03.66.075.33.3.57c.12.18.27.32.47.43.26.15.54.23.84.23.61.04 1.23.05 1.84.07.21 0 .41-.04.59-.13.19-.06.35-.17.49-.32l.24-.31q.165-.27.18-.57c.04-.14.04-.27 0-.41 0-.2-.07-.39-.18-.57-.21-.32-.53-.63-.92-.7Zm-3.1 10.13-.84.33c-.29.08-.54.23-.76.44l-.27.35c-.16.27-.23.56-.23.87 0 .24.04.46.15.66.07.21.19.4.36.55.16.17.34.29.55.36.2.11.43.16.66.15.31 0 .6-.08.87-.23l.78-.48c.19-.1.34-.24.46-.42.15-.16.24-.34.29-.56l.06-.44c0-.23-.04-.44-.14-.63a.8.8 0 0 0-.21-.36c-.12-.18-.27-.32-.46-.42l-.39-.17q-.435-.12-.87 0Zm1.66 14.31c2.15 0 2.16-3.34 0-3.34s-2.16 3.34 0 3.34"/></svg>