<?xml version="1.0" encoding="UTF-8"?><svg xmlns="http://www.w3.org/2000/svg" viewBox="0 0 180 180"><path d="M76.32 136.38c-7.85-.81-15.43-3.37-22.32-7.21-5.81-3.24-12.54-8.09-12.59-15.47-.03-3.61 2.05-6.31 4.64-8.6 3.1-2.74 6.58-5.06 10.02-7.34 3.36-2.23 6.75-4.45 10.41-6.16 3.07-1.43 7.17-2.98 10.52-1.6 1.33.55 2.56 1.71 2.95 3.12.45 1.62-.6 3.08-1.63 4.23-3.01 3.36-6.53 6.24-10.24 8.79-2.26 1.55-.91 5.17 1.9 4.5 6.16-1.48 12.78-2.33 18.91-.25 4.72 1.6 8.49 4.88 10.59 9.41 1.04 2.24 4.61.65 3.94-1.66-1.73-6.01-6.99-10.26-12.69-12.34-7.06-2.58-14.92-1.63-22.05.09.63 1.5 1.26 3 1.9 4.5 3.92-2.7 7.67-5.81 10.91-9.31 3.02-3.26 4.77-7.68 2.03-11.72-5.95-8.75-17.77-3.34-24.77.9-4.12 2.49-8.16 5.21-12.01 8.1-3.53 2.65-7.24 5.52-9.04 9.69-1.82 4.22-1.26 8.95.67 13.03s5.21 7.02 8.76 9.47c8.49 5.86 19.01 8.82 29.21 9.52 2.39.17 2.32-3.45 0-3.69Z"/><path d="M50.7 97.94c-4.02-7.55-8.23-15-12.22-22.56-3.92-7.43-8.02-15.02-10.88-22.94-1.13-3.13-1.97-7.34-.72-10.57.96-2.5 3.47-3.57 5.77-2.64s4.25 3.12 5.78 5.07c1.69 2.15 3.11 4.51 4.5 6.86 4.96 8.4 9.15 17.23 13.98 25.7 1 1.75 4.38 1.14 4.08-1.11-.56-4.25.84-9.1 4.84-11.23 1.54-.82 2.96-1.05 4.48-.41 2.24.96 4.14 2.9 5.92 4.51s4.93-.46 3.52-2.72c-2.35-3.74-.81-7.93 2.88-10.1 4.69-2.75 10.04 1.31 13.63 4.09.89.69 2.01.93 2.96.18.88-.7 1.15-1.91.58-2.91-4.8-8.48-9.08-17.26-12.74-26.3-.83-2.04-1.73-4.1-2.31-6.23-.42-1.56-.71-3.45.5-4.74 2.39-2.56 6.56-.25 8.54 1.67 2.58 2.52 4.43 5.79 6.49 8.73 2.9 4.12 5.65 8.35 8.32 12.63 4.36 7 8.72 14.03 12.66 21.28 7.48 13.78 14.59 30.54 9.38 46.32-2.45 7.42-7.76 13.26-14.42 17.21-2.5 1.48-5.17 2.63-7.82 3.83q-1.485.675-2.97 1.32c-.09.04-.19.08-.28.12-.34.15.36-.15.01 0-.22.09-.45.19-.67.28-.55.22-1.11.44-1.67.65-2.16.81-4.37 1.49-6.62 1.99-2.74.61-4.72.85-7.6.95-7.3.26-14.4-1.22-21.48-2.81-2.37-.53-4.7-1.18-7.03-1.89-2.43-.74-3.35 2.9-1.03 3.75 8.36 3.07 16.8 5.49 25.75 5.82 5.77.21 11.58-.52 17.07-2.31 4.72-1.54 9.37-3.64 13.82-5.84 7.66-3.78 14.51-9.83 18.06-17.71 7.61-16.9 1.35-35.37-6.74-50.83-4.06-7.75-8.74-15.17-13.36-22.59-2.84-4.55-5.75-9.06-8.84-13.44-2.32-3.3-4.47-6.9-7.19-9.88-2.76-3.02-6.8-5.28-11-4.67-2.29.34-4.39 1.62-5.6 3.61-1.23 2.01-1.27 4.38-.86 6.64s1.37 4.37 2.21 6.47c.97 2.43 1.98 4.85 3.03 7.25 2.1 4.81 4.36 9.54 6.79 14.19 1.2 2.29 2.43 4.56 3.7 6.81l3.54-2.73c-5.4-4.19-12.63-8.91-19.41-4.6-5.5 3.5-7.75 10.36-4.16 16.06 1.17-.91 2.35-1.81 3.52-2.72-2.38-2.14-4.85-4.51-7.9-5.66-2.61-.98-5.35-.46-7.77.78-5.69 2.92-7.88 9.76-7.04 15.75 1.33-.56 2.67-1.13 4-1.69-4.74-8.16-8.8-16.7-13.59-24.83-1.62-2.76-3.31-5.48-5.28-8.01s-4.1-4.85-6.9-6.18c-2.95-1.4-6.26-1.34-8.94.66-3.45 2.57-4.16 7-3.8 11.05.4 4.45 2.15 8.38 3.95 12.41 1.88 4.22 3.91 8.38 6.04 12.49 4.83 9.34 10.23 18.39 15.68 27.38 1.11 1.83 3.86.21 2.86-1.67Z"/><path d="M55.95 70.34c.06 3.46 1.62 6.45 3.56 9.22 1.85 2.63 4.15 5.23 5.22 8.25.34.95 1.28 1.58 2.3 1.3.91-.25 1.66-1.35 1.3-2.3-1.21-3.26-3.37-5.92-5.5-8.62-1.79-2.26-3.74-4.86-3.86-7.85-.08-1.93-3.05-1.95-3.02 0m10.51-15.46c1.43 1.39 2.53 3.22 3.76 4.95 1.78 2.52 3.55 5.04 5.33 7.56 1.24 1.74 2.47 3.49 3.72 5.22 2.65 3.68 4.24 7.97 6.71 11.76 2.3 3.53 5.55 6.89 9.79 7.92 3.9.95 8.41.03 10.96-3.26 4.15-5.35 2.59-13.29.39-19.1-2.75-7.25-7.59-15.17-15.03-18.34-.74-.31-1.52-.27-2.05.41-.43.56-.5 1.6.12 2.08 5.07 3.93 9.08 9.03 11.78 14.86 1.24 2.67 2.16 5.53 2.66 8.44.19 1.11.29 2.36.26 3.61 0 .28-.02.56-.04.83-.01.15-.03.31-.04.46 0-.05.04-.29 0-.03-.12.74-.32 1.48-.57 2.19-1.18 3.32-4.55 4.28-7.72 3.3-3.39-1.05-5.75-4.28-7.49-7.19-2.07-3.48-3.7-7.16-6.16-10.41-1.26-1.66-2.48-3.33-3.74-4.99-1.96-2.59-3.96-5.19-6.07-7.67-1.46-1.71-2.96-3.57-4.81-4.88-1.35-.96-2.91 1.15-1.75 2.27Z"/><path d="M80.95 98.48c1.66.9 3.6.46 5.07-.59s2.74-2.26 3.79-3.7c1.04-1.44 1.67-3.1 1.86-4.86.09-.84.02-1.69-.15-2.52-.1-.46-.26-.9-.46-1.33-.28-.62-.66-.97-1.23-1.34-1.03-.68-2.82.2-2.66 1.52.02.2.01.37.04.57.02.14.36 1.03.18.59.11.28.22.56.3.85.04.15.06.3.1.44.07.29-.02-.43 0 .11.01.31.01.61 0 .92 0 .16-.02.24 0 .03-.02.15-.05.3-.08.45-.07.3-.15.6-.25.89-.04.1-.15.39-.05.15-.06.15-.14.29-.21.44-.15.29-.31.57-.49.84-.16.24-.33.48-.5.72-.36.5.1-.12-.12.16-.1.13-.21.25-.31.38-.43.49-.87.97-1.34 1.43s-.8.74-1.27 1.07c-.18.13-.47.32-.61.38.1-.04-.26.04-.1.03.11 0-.07 0-.13-.02-.68-.32-1.5-.19-1.9.5-.37.63-.16 1.54.5 1.9ZM51.86 82.25c.28-.14.57-.29.85-.43.15-.08.28-.2.37-.34q.18-.195.24-.45c.06-.18.06-.35.02-.53 0-.18-.06-.34-.16-.49l-.21-.27c-.17-.16-.36-.28-.59-.34l-.35-.05c-.24 0-.46.06-.67.18-.29.14-.57.28-.86.42-.16.08-.28.2-.37.34q-.18.195-.24.45a.96.96 0 0 0-.02.53c0 .18.06.34.16.5l.21.27c.17.17.36.28.59.34l.36.05c.24 0 .47-.06.67-.18m53.38-27.02c.35-.08.7-.18 1.04-.32.27-.11.55-.23.81-.36s.5-.35.72-.53c.14-.13.24-.29.3-.47.09-.18.13-.36.13-.57l-.05-.39c-.05-.19-.13-.36-.26-.5a.7.7 0 0 0-.26-.26c-.14-.13-.31-.22-.5-.26-.38-.09-.79-.06-1.13.15-.21.13-.43.26-.65.39s-.44.24-.67.34l.35-.15c-.19.08-.38.15-.57.2-.35.11-.66.34-.85.65-.1.16-.16.34-.17.53q-.06.285.03.57c.11.34.32.68.65.85l.34.14c.25.07.5.07.76 0Z"/><path d="M105.27 88.05a91.3 91.3 0 0 1-12.21 12.81c-1.4 1.2-2.84 2.38-4.51 3.17-3.45 1.64-7.45 1.48-11.25 1.11a71 71 0 0 0 4.14-5.47c4.87-.71 8.98-5.03 9.46-9.93a18.65 18.65 0 0 0 7.14 2.1"/><path d="M104.16 86.94c-3.77 4.23-7.74 8.32-12.06 12-1.99 1.7-3.99 3.25-6.59 3.87-2.69.64-5.49.41-8.21.19.5 1.22 1.01 2.44 1.51 3.66 1.55-1.92 3.02-3.9 4.39-5.96l-1.22.94c5.88-1.05 10.26-6.04 10.91-11.9-1 .58-2.01 1.15-3.01 1.73 2.53 1.3 5.29 2.21 8.15 2.35 2.18.1 2.75-3.56.53-3.88s-4.54-.83-6.65-1.92c-1.45-.75-2.84.21-3.01 1.73-.34 2.92-2.32 5.54-4.85 6.94-1.38.76-3.41.68-4.36 1.96-1.27 1.7-2.52 3.38-3.89 4.99-1.27 1.49-.36 3.45 1.51 3.66 3.04.33 6.15.45 9.15-.25 3.01-.7 5.47-2.42 7.77-4.41 4.69-4.05 8.88-8.68 12.41-13.77 1.01-1.46-1.28-3.23-2.47-1.9Zm-63.37-44.1c5.75 1.83 11.62 3.32 17.55 4.45.15-5.87.29-11.75.44-17.62l19.23 8.73c1.55-3.26 3.03-6.56 4.43-9.9 2.63 8.11 5.25 16.22 7.88 24.33-3.3-1.03-6.79-1.94-10.18-1.26s-6.6 3.42-6.69 6.88c-.02.7-.04 1.6-.7 1.82-.3.1-.62 0-.92-.1-1.72-.61-3.38-1.47-5.19-1.72-2.4-.33-4.94.53-6.65 2.25s-2.56 4.26-2.23 6.66c-4.67-7.5-9.34-14.99-14.01-22.49"/><path d="M40.39 44.29c2.86 1.01 5.67 2.08 8.6 2.87 2.91.79 5.85 1.48 8.8 2.11 1.35.29 2.52-.59 2.6-1.98.32-5.86.37-11.75.48-17.62-1.05.6-2.1 1.2-3.15 1.81 6.43 2.87 12.87 5.75 19.3 8.62.9.4 2.2.34 2.69-.7 1.54-3.27 3.05-6.55 4.46-9.88l-3.65-.48c2.6 8.12 5.48 16.15 7.93 24.31l2.39-2.39c-4.36-1.54-9.37-2.63-13.76-.6-1.7.79-3.19 2.01-4.28 3.55-.55.79-.99 1.69-1.24 2.62-.14.51-.21 1.05-.26 1.58-.07.9-.2.57.36.27l1.1-.3c-.71.09-1.96-.66-2.7-.95-.92-.35-1.85-.65-2.83-.8-2.12-.33-4.24 0-6.17.93-3.72 1.81-5.99 5.99-5.46 10.09 1.34-.36 2.69-.73 4.03-1.09-4.75-7.44-9.38-14.97-14.1-22.44-1.41-2.23-4.94-.19-3.55 2.07 4.61 7.53 9.33 15 13.91 22.54 1.04 1.71 4.24 1.15 4.03-1.09-.31-3.23 1.62-6.36 5.02-6.75 1.66-.19 3.23.47 4.73 1.07 1.69.67 3.61 1.42 5.05-.19 1.15-1.28.58-2.97 1.22-4.43.51-1.17 1.57-2.06 2.66-2.66 3.45-1.91 7.66-.63 11.19.32 1.35.36 2.89-.95 2.39-2.39-2.8-8.05-5.17-16.25-7.82-24.35-.66-2.01-3.12-1.77-3.85 0-1.32 3.18-2.71 6.33-4.2 9.44.9-.23 1.79-.47 2.69-.7-6.39-2.95-12.78-5.89-19.17-8.84-1.44-.66-3.1.12-3.15 1.81-.18 5.86-.42 11.75-.4 17.62.87-.66 1.73-1.32 2.6-1.98-5.92-1.02-11.91-2.3-17.7-3.92-1.88-.53-2.6 2.26-.8 2.89Zm64.27-12.84c3.79 2.38 7.79 4.42 11.94 6.09.43.17.89.35 1.36.3.65-.06 1.18-.54 1.66-.99 3.29-3.1 6.59-6.2 9.88-9.3.65 7.42.72 14.88.21 22.31 7.62-1.26 15.29-2.22 22.98-2.87a103.2 103.2 0 0 1-11.95 21.08c8.19.49 16.35 1.43 24.43 2.84-5.92 5.58-11.5 11.51-16.69 17.77a176 176 0 0 1 21.55 11.88c-7.83 1.8-15.5 4.27-22.91 7.39 3.35 6.81 6.14 13.9 8.31 21.17l-16.26-4.83c1.41 6.85 2.58 13.75 3.5 20.68-7.27-1.77-14.42-4.01-21.41-6.7a37.4 37.4 0 0 1-8.21 16.06l-7.77-14.37c-.21-.4-.44-.85-.3-1.28.19-.63.97-.81 1.62-.92 5.77-.98 10.85-4.3 15.54-7.78 4.85-3.6 9.68-7.68 12.08-13.23 2.01-4.66 2.11-9.89 2.18-14.96.05-3.54.09-7.11-.6-10.58-1.22-6.17-4.7-11.78-5.37-18.04-.19-1.75-.15-3.53-.57-5.24-.37-1.51-1.09-2.91-1.8-4.29-4.82-9.37-9.81-18.95-17.57-26.08"/><path d="M103.92 32.71c2.25 1.5 4.56 2.89 6.94 4.16 1.16.61 2.33 1.18 3.52 1.73 1.25.58 2.64 1.35 4.07 1.06 1.24-.25 2.13-1.12 3.03-1.96l3.02-2.81c2.13-1.98 4.25-3.98 6.37-5.96-1.11-.46-2.21-.92-3.32-1.37.61 7.41.63 14.89.12 22.31-.1 1.45 1.38 2.16 2.58 1.97 7.42-1.17 14.94-2.16 22.44-2.65l-1.88-3.28c-3.3 7.41-7.23 14.48-12.04 21.02-1.11 1.51.42 3.34 1.97 3.44 7.98.5 15.94 1.38 23.82 2.77-.34-1.28-.67-2.55-1.01-3.83a203 203 0 0 0-16.74 17.72c-.89 1.06-1.01 3.01.48 3.71 7.42 3.49 14.61 7.51 21.53 11.93.19-1.48.39-2.95.58-4.43-7.83 1.84-15.49 4.27-22.92 7.36-1.53.64-2.23 2.04-1.47 3.6 3.23 6.62 5.98 13.51 8.09 20.57l2.97-2.97c-5.42-1.62-10.83-3.24-16.25-4.87-1.9-.57-3.37 1.26-3.02 3.02 1.39 6.85 2.61 13.73 3.6 20.65l2.89-2.89c-7.28-1.72-14.42-4.06-21.39-6.75-1.19-.46-2.67.51-2.96 1.68-1.34 5.54-3.85 10.69-7.55 15.05l3.67.47c-1.39-2.53-2.78-5.06-4.16-7.6l-2-3.7c-.31-.58-.63-1.16-.94-1.74-.18-.34-.74-1.1-.7-1.43l-.31 1.16c-.14.27-.84.26-.09.2.18-.01.37-.07.54-.1.49-.09.98-.19 1.46-.31 1.03-.26 2.04-.59 3.03-.98q2.865-1.125 5.52-2.7c3.47-2.06 6.76-4.51 9.86-7.09 2.98-2.47 5.75-5.29 7.73-8.64 2.19-3.7 3.1-7.88 3.44-12.13.35-4.38.45-8.92.1-13.3-.35-4.41-1.67-8.44-3.22-12.55-.72-1.92-1.44-3.84-1.97-5.81-.57-2.12-.7-4.19-.91-6.36-.41-4.32-2.64-7.98-4.62-11.75-4.29-8.15-9.03-15.97-15.83-22.27-2.03-1.89-5.09 1.16-3.05 3.05 6.54 6.07 11.06 14.08 15.16 21.9 1.02 1.95 2.17 3.91 3.02 5.94.93 2.24.8 4.62 1.11 6.98.61 4.64 2.56 8.87 4.06 13.26.77 2.24 1.4 4.54 1.63 6.9.24 2.49.22 4.99.19 7.48-.06 4.62-.07 9.4-1.77 13.77-1.5 3.87-4.44 6.98-7.54 9.65-3.28 2.82-6.87 5.45-10.64 7.56-2.13 1.19-4.35 2.16-6.73 2.73-1.21.29-2.48.36-3.5 1.14-1.09.83-1.53 2.23-1.16 3.56.37 1.32 1.28 2.59 1.92 3.79.71 1.31 1.41 2.61 2.12 3.92q2.115 3.915 4.2 7.86c.67 1.27 2.7 1.58 3.67.47 4.28-4.88 7.39-10.74 8.88-17.07-.99.56-1.97 1.12-2.96 1.68 7.01 2.66 14.16 4.8 21.42 6.65 1.32.34 3.17-.69 2.97-2.27-.9-7.15-2.03-14.27-3.49-21.33l-3.02 3.02c5.42 1.6 10.85 3.2 16.27 4.79 1.74.51 3.5-1.22 2.97-2.97-2.26-7.49-5.06-14.75-8.52-21.76l-1.47 3.6c7.41-3.12 15.07-5.63 22.9-7.42 2.14-.49 2.24-3.35.58-4.43-6.91-4.48-14.11-8.39-21.58-11.83l.48 3.71a203 203 0 0 1 16.64-17.82c1.17-1.11.71-3.54-1.01-3.83-8.29-1.41-16.64-2.43-25.04-2.92.66 1.15 1.32 2.29 1.97 3.44 4.88-6.7 8.99-13.95 12.07-21.65.5-1.24-.78-2.9-2.1-2.76-7.88.83-15.71 1.75-23.52 3.08.86.66 1.72 1.31 2.58 1.97.48-7.45.35-14.87-.31-22.31-.15-1.65-2.03-2.59-3.32-1.37-1.76 1.67-3.52 3.33-5.28 5-.94.89-1.87 1.78-2.81 2.67-.35.33-.7.67-1.05 1-.27.26-.85 1.06-1.25 1.12-.34.05-1.16-.44-1.49-.57-.43-.17-.86-.33-1.29-.51-1.15-.46-2.28-.96-3.4-1.48-2.1-.98-4.15-2.06-6.16-3.22-1.64-.95-3.03 1.49-1.47 2.52Z"/><path d="m33.72 71.01-.03 11.56c-7.24.17-14.47.75-21.65 1.75.65.76 1.43 1.4 2.2 2.04l15.85 13.03a273 273 0 0 1-20.13 16.54c8.88.58 17.69 2.22 26.18 4.89-3.9 7.11-7.79 14.21-11.69 21.32l24.04-2.76c2 6.27 3.54 12.69 4.58 19.19l18.81-10.29c.47-.26.99-.53 1.53-.44.53.09.94.5 1.31.9 4.23 4.58 8.11 9.49 11.59 14.66 6.5-8.58 13-17.15 19.5-25.73-3.15 2.57-7.5 2.99-11.56 3.11-9.87.27-19.86-.67-29.27-3.67-9.41-3.01-18.25-8.15-24.88-15.47-2-2.21-3.88-4.82-4.01-7.8-.13-2.91 1.41-5.62 3.13-7.98 1.75-2.41 3.74-4.65 5.92-6.68.64-.59 1.33-1.24 1.46-2.1.12-.81-.28-1.59-.67-2.31-3.34-6.1-6.68-12.21-10.02-18.31"/><path d="M32.15 71.01c-.1 3.85-.24 7.71-.29 11.56l1.83-1.83c-7.42.03-14.82.7-22.17 1.7-1.57.21-1.72 2.3-.86 3.27 1.21 1.35 2.68 2.45 4.08 3.6 1.57 1.3 3.14 2.59 4.7 3.89 3.07 2.54 6.15 5.08 9.22 7.63v-2.88c-6.4 5.61-12.95 11.05-19.77 16.13-1.69 1.26-1.15 3.84 1.08 3.99 8.7.59 17.28 2.23 25.61 4.83-.43-1.05-.86-2.11-1.29-3.16-3.9 7.1-7.8 14.21-11.69 21.32-.71 1.3.15 3.45 1.87 3.26l24.04-2.76-2.09-1.59c1.99 6.28 3.53 12.69 4.59 19.19.23 1.43 2.06 1.89 3.17 1.29 3.21-1.75 6.41-3.51 9.62-5.26 1.53-.84 3.06-1.68 4.59-2.51l2.41-1.32 1.09-.6c.32-.17 1.08-.41 1.28-.69.32-.13.23-.16-.25-.11l.06.09c0 .11.78.84.84.91a108 108 0 0 1 4.74 5.55c2.08 2.58 4.03 5.26 5.88 8.01.98 1.45 2.75 1.33 3.75 0 6.49-8.58 12.99-17.16 19.49-25.74.64-.85.22-2.21-.56-2.78-.93-.69-1.96-.52-2.83.17-2.67 2.09-6.39 2.35-9.64 2.46-4.21.14-8.43.04-12.63-.33-7.96-.71-15.96-2.52-23.24-5.87-6.66-3.06-12.88-7.33-17.69-12.91-1.12-1.3-2.17-2.78-2.63-4.45s-.13-3.36.62-4.89c1.68-3.48 4.48-6.5 7.24-9.16 1.63-1.57 2.89-3.27 2.15-5.65-.34-1.1-1.03-2.13-1.59-3.13-.6-1.09-1.21-2.17-1.81-3.26-2.5-4.49-4.97-8.99-7.44-13.49-1.23-2.24-4.65-.24-3.43 2 2.26 4.15 4.52 8.29 6.76 12.45 1.09 2.03 2.25 4.03 3.28 6.09.42.84.25.89-.46 1.55-.81.76-1.6 1.52-2.36 2.33-2.75 2.92-5.59 6.3-6.9 10.15-1.39 4.1.02 8.06 2.56 11.34 4.74 6.13 11.46 10.9 18.38 14.25 7.76 3.76 16.13 5.86 24.67 6.79 4.94.54 9.93.7 14.9.5 4.43-.18 8.73-.92 12.3-3.72-1.13-.87-2.26-1.74-3.39-2.62-6.5 8.58-13.01 17.15-19.52 25.72h3.75a126 126 0 0 0-10.4-13.41c-1.13-1.26-2.29-2.92-4.08-3.18-1.96-.28-3.9 1.24-5.53 2.13-1.75.96-3.5 1.91-5.25 2.87-3.64 1.99-7.29 3.99-10.93 5.98 1.06.43 2.11.86 3.17 1.29a136 136 0 0 0-4.57-19.19c-.26-.82-1.13-1.7-2.09-1.59-8.01.92-16.02 1.84-24.04 2.77.62 1.09 1.25 2.17 1.87 3.26 3.89-7.11 7.79-14.22 11.68-21.33.68-1.25.06-2.74-1.29-3.16a116 116 0 0 0-26.76-4.95l1.08 3.99c7.11-5.31 13.99-10.91 20.49-16.95.75-.69.83-2.2 0-2.88-3.1-2.52-6.19-5.04-9.28-7.57-1.51-1.24-3.03-2.47-4.54-3.71s-3.02-2.33-4.29-3.73c-.29 1.09-.58 2.18-.86 3.27 7.01-.99 14.06-1.49 21.13-1.8.98-.04 1.84-.8 1.83-1.83-.03-3.85-.15-7.71-.23-11.56-.04-2.02-3.09-2.02-3.14 0Z"/></svg>