<?xml version="1.0" encoding="UTF-8"?><svg xmlns="http://www.w3.org/2000/svg" viewBox="0 0 180 180"><path d="M75.76 38.22c12.56-.23 25.38 1.99 37.35 5.68 5.05 1.56 10.06 3.4 14.58 6.18s7.73 6.39 10.18 11.01 4.63 9.33 8.89 12.64c3.66 2.85 7.95 4.65 11.88 7.07 1.78 1.1 3.47 2.34 4.81 3.96 1.62 1.95 2.34 4.35 2.74 6.82.21 1.29.35 2.58.51 3.87.21 1.62.69 3.15 1.02 4.74.57 2.75-.88 4.7-2.92 6.38-2.06 1.69-4.46 3.07-6.71 4.49a152 152 0 0 1-7.68 4.56c-5.2 2.85-10.63 5.34-16.39 6.86-2.78.73-5.76 1.45-8.65 1.27-3.06-.19-6.12-1.32-9-2.31-5.98-2.05-11.77-4.63-17.59-7.07-11.75-4.94-23.46-9.96-34.92-15.54-5.31-2.58-10.62-5.22-15.77-8.12-2.16-1.22-4.28-2.55-6.09-4.26-2.01-1.91-3.34-4.29-4.62-6.73-1.44-2.75-2.67-5.58-3.9-8.43-1.1-2.54-2.58-5.01-3.07-7.77-.87-4.97 3.63-9.44 7.19-12.2 3.55-2.75 7.63-4.93 11.67-6.86 4.48-2.15 9.1-3.79 13.89-5.08 1.98-.53 4.05-1.11 6.11-1.15s2.09-3.27 0-3.23c-2.36.04-4.65.17-6.98.57-2.56.43-5.1 1.29-7.54 2.17-5 1.79-9.87 4.05-14.45 6.74-4.37 2.56-8.83 5.52-11.82 9.69-1.67 2.33-2.85 5.21-2.85 8.11 0 3.23 1.41 6.24 2.73 9.11 2.64 5.74 4.67 12.05 8.8 16.95 3.57 4.23 8.76 6.74 13.56 9.27 12.06 6.35 24.55 11.84 37.1 17.13 6.17 2.6 12.35 5.17 18.55 7.69 3.05 1.24 6.13 2.45 9.26 3.49 3.15 1.05 6.42 2.06 9.75 2.23 3.11.16 6.38-.61 9.37-1.4 3.12-.83 6.14-1.96 9.1-3.24 5.83-2.52 11.32-5.77 16.6-9.29 2.39-1.59 4.79-3.18 7.02-4.98s4.16-4.11 4.52-7.01c.19-1.53-.04-3-.32-4.51s-.41-3.07-.57-4.64c-.31-3.18-.89-6.4-2.52-9.19-2.51-4.28-6.84-6.89-11.1-9.18-4.11-2.21-8.49-4.34-11.22-8.29-3.25-4.7-4.95-10.19-8.82-14.5-3.85-4.28-8.96-7.24-14.24-9.41-5.67-2.33-11.67-3.89-17.67-5.11-6.54-1.32-13.16-2.13-19.83-2.34-3.32-.11-6.64-.08-9.96-.02-2.03.04-2.04 3.19 0 3.16Z"/><path d="M38.85 57.33c8.87-.86 17.77-.29 26.32 2.3 7.35 2.23 14.8 5.57 20.79 10.47 2.95 2.41 5.72 5.18 7.99 8.26 2.17 2.95 3.94 6.18 6.12 9.13 2.13 2.89 4.73 5.81 7.92 7.56 3.42 1.87 7.45 2.3 10.8 4.26 7.03 4.1 7.84 13.17 8.85 20.39.2 1.4 2.54 1.07 2.47-.33-.33-6.85-1.42-14.83-6.32-20.03-2.67-2.83-6.36-4.31-9.95-5.62-1.91-.7-3.8-1.36-5.6-2.32s-3.04-2.09-4.29-3.57c-2.44-2.88-4.22-6.28-6.25-9.45-2.13-3.34-4.62-6.45-7.5-9.18-5.91-5.6-12.75-9.71-20.51-12.17-9.83-3.12-20.67-3.46-30.87-2.37-1.69.18-1.72 2.84 0 2.67Z"/><path d="M77.91 63.77c5.02 4.55 12.86 4.63 19.23 4.16 7.93-.59 15.31-3.24 22.74-5.88 5.45-1.94 10.88-3.96 16.35-5.86 2.2-.76 1.25-4.28-.97-3.51-9.23 3.21-18.33 6.81-27.68 9.69-5.93 1.83-12.42 2.59-18.61 2.1-3.24-.25-6.77-.88-9.56-2.65-1.18-.75-2.56 1-1.51 1.95Zm26.19 25.95c7.8-1.53 15.4-3.63 22.9-6.24 3.67-1.27 7.29-2.67 10.87-4.17s7.56-3.02 11.04-4.98c1.71-.97.55-4.04-1.38-3.27-3.59 1.44-7.05 3.24-10.63 4.73s-7.35 2.95-11.07 4.3c-7.36 2.68-14.87 5.04-22.4 7.18-1.58.45-.91 2.75.67 2.44Zm62.33 1.3c-7.28 4.27-14.83 8.07-22.71 11.12-3.88 1.5-7.83 2.8-11.84 3.89-1.78.49-3.61 1.03-5.46 1.2-2 .18-3.44-.21-5.32-.85-1.77-.6-2.62 1.65-1.66 2.85 2.71 3.35 8.28 2.2 11.82 1.29 4.31-1.1 8.56-2.46 12.72-4.05 8.49-3.24 16.58-7.53 23.88-12.96 1.44-1.07.19-3.42-1.44-2.47Z"/><path d="M66.38 60.04c.04 2.08.91 4.05 1.76 5.95 1.15 2.55 2.6 6.72 4.55 8.73 1.99 2.05 4.62 3.33 7.2 4.58 7.56 3.65 14.86 5.73 22.42 9.38-3.11-3.82-6.22-7.63-9.33-11.45-.94-1.15-1.88-2.31-2.99-3.3-.53-.47-1.09-.9-1.61-1.38-1.28-1.18-2.27-2.63-3.54-3.81-4.75-4.4-12.63-4.46-16.75-9.45"/><path d="M65.04 60.04c-.3 2.22.62 4.38 1.44 6.4.68 1.68 1.3 3.38 2.05 5.03.71 1.54 1.51 3.04 2.64 4.33 1.32 1.51 3.09 2.67 4.83 3.64 3.88 2.16 8.05 3.84 12.18 5.46 4.39 1.73 9.01 3.19 13.25 5.25 1.81.88 3.31-1.18 2.09-2.7-2.99-3.71-5.98-7.42-8.96-11.12-1.32-1.64-2.65-3.15-4.25-4.53s-2.68-3-4.16-4.39c-4.81-4.52-12.25-4.6-16.71-9.5-.71-.78-2.01-.7-2.73 0-.81.8-.65 1.92 0 2.73 2.13 2.67 5.4 4.07 8.5 5.28 2.82 1.1 6.01 2.05 8.29 4.13 1.49 1.36 2.65 3.03 4.21 4.34 1.61 1.36 2.96 2.85 4.3 4.48 3.03 3.67 6.05 7.34 9.08 11.01.7-.9 1.39-1.8 2.09-2.7-2.03-.96-4-2-6.08-2.88-2.03-.86-4.09-1.64-6.14-2.43-3.99-1.53-7.94-3.12-11.76-5.03-1.61-.81-3.25-1.67-4.6-2.88-1.24-1.11-2.02-2.51-2.73-3.99-1.61-3.31-3.34-6.7-4.18-10.29-.38-1.61-2.46-1.03-2.64.36Zm39.48 5.06c-.82 1.32-1.47 2.75-1.91 4.25-.21.7-.37 1.46-.1 2.14.5 1.27 2.16 1.56 3.16 2.49 1.55 1.43 1.19 3.93.71 5.98-.61 2.62-1.24 5.29-2.58 7.63 3.28-.97 6.54-2.02 9.77-3.14.53-.18 1.08-.38 1.45-.79.36-.39.52-.92.66-1.43.43-1.52.86-3.03 1.3-4.55.58-2.04 1.06-4.53-.42-6.05-.52-.53-1.25-.89-1.62-1.53-.27-.47-.31-1.03-.29-1.57.14-2.52 1.72-4.69 3.26-6.69-4.26 1.84-8.7 3.28-13.23 4.3"/><path d="M103.34 64.42c-1.22 1.73-2.57 4.05-2.59 6.23-.03 2.38 1.79 3.12 3.45 4.27 1.52 1.06.84 3.31.47 4.8-.59 2.4-1.17 4.81-2.37 6.99-.71 1.29.47 3 1.96 2.55 3.37-1 6.78-2.04 10.07-3.29 1.47-.55 2.36-1.42 2.88-2.91.56-1.61.97-3.29 1.43-4.93.72-2.55 1.18-5.65-.85-7.74-.36-.37-1.12-.71-1.34-1.18-.26-.55.08-1.52.25-2.05.5-1.5 1.52-2.83 2.48-4.07.5-.64.72-1.42.28-2.16-.36-.62-1.3-1.12-2.02-.82a81 81 0 0 1-13.24 4.24c-2.31.53-1.33 4.08.98 3.56 4.7-1.07 9.22-2.6 13.64-4.54l-2.44-2.44c-1.74 2.3-3.58 4.98-3.47 8 .05 1.5.74 2.51 1.86 3.44.99.83 1.16 1.66.99 2.94-.18 1.34-.65 2.66-1.01 3.96-.23.83-.44 1.68-.7 2.5-.21.66-.3.8-.92 1.04-3.17 1.25-6.52 2.13-9.78 3.1l1.96 2.55c1.16-2.1 1.9-4.4 2.45-6.73.48-2.05.98-4.2.54-6.3s-1.89-2.99-3.56-3.98c-.99-.59-.72-1.26-.41-2.29.35-1.16.82-2.29 1.38-3.37.81-1.57-1.35-2.79-2.35-1.37Zm23.98-5.87c-.89 1.98-1.78 3.96-2.68 5.95-.24.54-.48 1.18-.17 1.68.2.33.59.5.86.78.47.5.52 1.25.52 1.94 0 4.07-.59 8.15-1.74 12.06 1.18.21 2.39-.37 3.23-1.23s1.38-1.95 1.9-3.03c2.31-4.75 4.62-9.5 6.4-14.47.8-2.24 1.42-4.94-.05-6.81-2.67.94-5.23 2.2-7.61 3.73"/><path d="M126.12 57.85q-1.575 2.85-2.88 5.82c-.36.83-.69 1.7-.47 2.62.11.43.33.83.63 1.15.19.21.57.39.71.61.38.6.06 2.07.03 2.72-.05 1.1-.15 2.19-.29 3.28a44 44 0 0 1-1.36 6.45c-.33 1.14.56 2.01 1.62 2.12 2.84.29 4.88-1.91 6.1-4.22 1.42-2.69 2.71-5.48 3.98-8.25s2.45-5.41 3.35-8.21c.79-2.43 1.09-5.21-.41-7.45-.43-.64-1.24-1.08-2.02-.82-2.85.94-5.54 2.24-8.03 3.92-1.88 1.27-.19 4.27 1.8 3.08 2.29-1.38 4.69-2.57 7.18-3.55-.67-.27-1.34-.55-2.02-.82 1.24 1.63.54 3.69-.07 5.45-.79 2.28-1.72 4.51-2.7 6.71s-2.01 4.36-3.05 6.53c-.83 1.73-1.75 4.54-4.13 4.28l1.62 2.12c1.19-4.08 2.02-8.58 1.78-12.85-.05-.88-.21-1.7-.75-2.42-.14-.19-.56-.73-.81-.78-.21-.21-.2-.12.03.26q.105-.375.27-.72c.82-1.99 1.7-3.94 2.42-5.97.53-1.49-1.79-2.44-2.54-1.07Zm15.77 8.57c-.83 3.26-1.93 6.45-3.3 9.53 1.89-.64 3.72-1.49 5.43-2.51.39-.23.82-.54.86-1 .02-.26-.09-.52-.2-.75-.51-1.08-1.02-2.16-1.53-3.25"/><path d="M140.59 66.06c-.48 1.58-1.04 3.15-1.61 4.7s-1.1 2.83-1.83 4.34c-.3.62-.31 1.3.13 1.86.4.52 1.11.79 1.76.6 1.13-.32 2.22-.8 3.28-1.28.98-.45 1.97-.96 2.83-1.6.57-.42 1.06-.91 1.28-1.6.24-.79 0-1.5-.31-2.22-.48-1.1-.98-2.19-1.47-3.28-.37-.83-1.64-1.09-2.36-.62-.83.54-1.05 1.49-.62 2.36s.84 1.69 1.25 2.54c.11.23.23.45.33.68.09.18.09.19.02.05-.05-.21-.02-.4.07-.59a.43.43 0 0 1 .2-.2l-.24.15c-.17.1-.34.19-.51.28-1.66.88-3.07 1.48-4.65 2.12l2.06 2.06c.62-1.56 1.21-3.13 1.73-4.73s.91-3.23 1.26-4.89c.15-.71-.21-1.46-.94-1.66s-1.45.24-1.66.94Zm-47.02 40.02c6.37-.07 12.5 4.6 14.13 10.76.17.63.29 1.27.59 1.85 1.17 2.31 4.33 2.65 6.29 4.34.13.11.25.24.3.4.1.36-.25.68-.57.88-2.7 1.77-5.88 2.81-9.11 2.98-4.21.22-8.56-1.1-11.64-3.98s-4.71-7.37-3.77-11.47c.42-1.85 1.41-3.66 3.04-4.65 1.63-.98 3.96-.91 5.25.49"/><path d="M93.57 107.43c4.66.51 8.91 3.15 11.16 7.31 1.15 2.13 1.18 4.72 2.98 6.48.82.79 1.83 1.34 2.85 1.82.64.31 2.25.79 2.58 1.4l-.27-1.01v.26l.27-1c.27-.16.21-.12-.2.14-.18.11-.36.22-.54.32-.43.24-.87.47-1.32.67-.74.33-1.51.59-2.29.8-1.7.47-3.43.65-5.19.58-3.23-.13-6.51-1.35-8.83-3.65s-3.55-5.44-3.09-8.57c.2-1.36.76-2.9 1.87-3.78.84-.66 2.3-.89 3.19-.17 1.88 1.52 4.28-.8 2.67-2.67-1.97-2.31-5.54-2.35-7.95-.73-2.67 1.79-3.88 5.01-4.03 8.11-.32 6.44 4.07 12.02 9.84 14.37 5.83 2.37 13.17 1.49 18.27-2.25 1.33-.98 1.82-2.75.62-4.06-.91-.99-2.23-1.58-3.42-2.15-.87-.42-2.03-.84-2.58-1.69-.38-.58-.45-1.34-.64-1.99-.22-.73-.5-1.44-.81-2.13-2.54-5.59-8.92-9.76-15.14-9.11-1.74.18-1.73 2.51 0 2.7M40.01 82.99c6.37-.07 12.5 4.6 14.13 10.76.17.63.29 1.27.59 1.85 1.17 2.31 4.33 2.65 6.29 4.34.13.11.25.24.3.4.1.36-.25.68-.57.88-2.7 1.77-5.88 2.81-9.11 2.98-4.21.22-8.56-1.1-11.64-3.98s-4.71-7.37-3.77-11.47c.42-1.85 1.41-3.66 3.04-4.65s3.96-.91 5.25.49"/><path d="M40.01 84.34c4.66.51 8.91 3.15 11.16 7.31 1.15 2.13 1.18 4.72 2.98 6.48.82.79 1.83 1.34 2.85 1.82.64.31 2.25.79 2.58 1.4l-.27-1.01v.26l.27-1c.27-.16.21-.12-.2.14-.18.11-.36.22-.54.32-.43.24-.87.47-1.32.67-.74.33-1.51.59-2.29.8-1.7.47-3.43.65-5.19.58-3.23-.13-6.51-1.35-8.83-3.65-2.2-2.19-3.55-5.44-3.09-8.57.2-1.36.76-2.9 1.87-3.78.84-.66 2.3-.89 3.19-.17 1.88 1.52 4.28-.8 2.67-2.67-1.97-2.31-5.54-2.35-7.95-.73-2.67 1.79-3.88 5.01-4.03 8.11-.32 6.44 4.07 12.02 9.84 14.37s13.17 1.49 18.27-2.25c1.33-.98 1.82-2.75.62-4.06-.91-.99-2.23-1.58-3.42-2.15-.87-.42-2.03-.84-2.58-1.69-.38-.58-.45-1.34-.64-1.99-.22-.73-.5-1.44-.81-2.13-2.54-5.59-8.92-9.76-15.14-9.11-1.74.18-1.73 2.51 0 2.7m22.28-46.6c.04-.76-.04-1.51-.06-2.27s-.02-1.47-.03-2.2v-.62c0-.13.08-.55-.02-.11-.11.37-.32.61-.63.74-.14.06-.14.06.01.02.15 0 .31-.06.47-.08q.57-.105 1.14-.18l.62-.09.22-.03c.73-.1 1.47-.18 2.21-.24l1.15-.09c.31-.02.66.02.96-.04-.58-.05-.95-.33-1.13-.85l.03.12c.02.17.06.33.09.5l.18 1.13c.12.75.24 1.5.4 2.25.19.86 1.11 1.38 1.94 1.26s1.62-.86 1.53-1.73c-.11-1.03-.29-2.06-.45-3.08-.17-1.09-.29-2.21-1.34-2.85-.86-.53-1.98-.33-2.93-.26s-1.89.17-2.83.29c-1.04.14-2.08.28-3.11.5-1.26.27-2.04 1.24-2.09 2.53-.04 1.02.09 2.05.24 3.06.14.91.26 1.86.62 2.72.27.67.81 1.13 1.58 1.03s1.2-.69 1.25-1.41Z"/><path d="M66.48 30.67c.88-3.41 1.07-6.74-.9-9.67-1.67-2.48-4.35-4.05-7.22-4.74-6.56-1.57-13.9 0-19.83 2.99-2.83 1.42-5.12 3.17-6.98 5.89-1.6 2.34-2.56 5.09-3.68 7.68a60 60 0 0 1-4.57 8.54c-3.35 5.24-7.54 9.93-10.56 15.37A38.3 38.3 0 0 0 7.99 72.5c-.8 10.49 2.52 21.11 7.72 30.12 5.37 9.31 12.99 17.38 21.71 23.62 4.71 3.37 10.62 6.96 16.62 5.01 2.75-.89 5.12-2.88 5.98-5.71s-.41-5.71-2.71-7.54c-4.47-3.56-10.52-4-15.97-3.1-5.32.88-10.61 3.41-14.12 7.59-3.64 4.34-5.2 10.11-3.49 15.61 1.6 5.16 5.64 9.5 10.53 11.74 6.03 2.76 12.85 2.77 19.32 2.09 7.01-.74 13.92-1.84 20.98-1.96 3.45-.06 6.89.05 10.33.3 1.29.09 2.38-1.16 2.38-2.38 0-1.37-1.09-2.29-2.38-2.38-6.47-.47-12.97-.41-19.43.2-6.13.59-12.22 1.83-18.4 1.83-5.05 0-10.45-.91-14.38-4.34-3.22-2.81-5.4-6.87-4.85-11.24 1.17-9.46 12.92-14.59 21.44-13.05 2.15.39 4.38 1.17 5.98 2.72 1.74 1.7.74 3.96-1.15 5.05-4.57 2.64-9.94-1.05-13.63-3.59-7.82-5.39-14.57-12.43-19.73-20.4-5-7.71-8.88-16.94-8.67-26.28.1-4.63.99-9.15 2.65-13.48 1.9-4.96 5.1-9.39 7.99-13.8 3.2-4.88 6.33-9.68 8.61-15.07.56-1.33 1.14-2.65 1.79-3.94.34-.68.7-1.35 1.1-1.99.08-.13.67-.95.45-.67.35-.44.74-.85 1.16-1.23.63-.59.76-.67 1.3-1.05 4.54-3.23 10.3-4.95 15.65-5.07.72-.02 1.44 0 2.16.05.28.02.56.05.84.07.1.01.34.04.83.13.58.11 1.15.26 1.71.43.3.09.6.19.89.3.38.14.08.03 0 0 .19.09.39.18.58.27.24.12.47.25.7.39.1.06.79.56.43.28.45.36.86.76 1.22 1.21-.27-.35.21.34.27.44.14.23.26.47.37.71-.04-.1.06.17.16.46.12.36.24.74.32 1.11.25 1.08.22 2.52 0 3.84-.35 2.08 2.68 3.01 3.22.89Z"/><path d="M75.65 86.4c.52.39 1.07.7 1.65.97.38.18.76.34 1.15.49.15.06.3.11.44.16.23.08.46.09.7.05.25-.03.46-.12.66-.27.06-.05.12-.1.19-.14.34-.27.46-.86.33-1.26-.1-.32-.25-.58-.52-.78-.19-.15-.38-.24-.61-.31-.17-.05-.34-.1-.51-.16q-.495-.165-.96-.36l.33.14c-.53-.22-1.04-.47-1.56-.73-.31-.15-.64-.22-.99-.13-.3.08-.62.31-.77.59-.16.3-.24.66-.13.99l.13.31c.11.19.27.35.46.46Zm-25.07-9.35c.52.39 1.07.7 1.65.97.38.18.76.34 1.15.49.15.06.3.11.44.16.23.08.46.09.7.05.25-.03.46-.12.66-.27.06-.05.12-.1.19-.14.34-.27.46-.86.33-1.26-.1-.32-.25-.58-.52-.78-.19-.15-.38-.24-.61-.31-.17-.05-.34-.1-.51-.16q-.495-.165-.96-.36l.33.14c-.53-.22-1.04-.47-1.56-.73-.31-.15-.64-.22-.99-.13-.3.08-.62.31-.77.59-.16.3-.24.66-.13.99l.13.31c.11.19.27.35.46.46Zm54.88 61.27c-4.08-.96-7.91-1.79-12.09-.81-3.47.81-6.57 2.75-8.71 5.6s-2.81 6.34-2.06 9.72c.81 3.65 3.47 6.16 6.85 7.52 4.3 1.74 9.21 2.33 13.79 2.85 1.47.17 2.6-1.86 1.74-3.04-2.82-3.89-3.07-9.25-.98-13.54.96-1.97 2.44-4.12 4.6-4.88 1.77-.62 4.13.36 4.08 2.45-.05 1.93 2.9 2.34 3.38.46.9-3.56-2.12-6.68-5.53-7.09-3.66-.44-6.77 2.11-8.76 4.92-4.04 5.72-4.27 13.95-.26 19.72l2.28-2.97c-4.16-.62-8.7-1.28-12.61-2.9-2.96-1.23-4.72-3.79-4.27-7.05 1.05-7.78 11.58-9.4 17.76-8.06 1.89.41 2.7-2.46.8-2.91Z"/><path d="m110.07 150.3.34.02c-.12-.01-.08 0 .1.03.21.06.43.1.64.15.38.09.75.17 1.14.22.98.14 1.95.27 2.94.34l1.27.09c.06 0 .56 0 .58.05-.31-.05-.35-.05-.13-.01.07.01.13.03.2.05.49.14-.26-.18.07.04-.25-.2-.3-.24-.14-.11-.2-.28-.24-.34-.12-.16-.12-.32-.15-.39-.08-.19-.03-.36-.04-.44-.03-.22 0-.22.05-.43.16-.62-.11.17-.18.36-.21.56-.15.77.04 1.51.68 2s1.39.46 2.12.15c.8-.34 1.2-1.38 1.23-2.19.02-.61-.16-1.26-.49-1.77-.81-1.27-2.26-1.57-3.66-1.61-1.07-.03-2.14-.07-3.21-.02-.67.03-1.32.07-1.98.16-.24.03-.48.07-.72.1-.13.02-.27.06-.4.06.21 0-.27-.05-.28-.05-.76-.02-1.5.69-1.46 1.46.04.83.64 1.41 1.46 1.46Zm-.91 7.31.34.02c-.12-.01-.08 0 .1.03.21.06.43.1.64.15.38.09.75.17 1.14.22.98.14 1.95.27 2.94.34l1.27.09c.06 0 .56 0 .58.05-.31-.05-.35-.05-.13-.01.07.01.13.03.2.05.49.14-.26-.18.07.04-.25-.2-.3-.24-.14-.11-.2-.28-.24-.34-.12-.16-.12-.32-.15-.39-.08-.19-.03-.36-.04-.44-.03-.22 0-.22.05-.43.16-.62-.11.17-.18.36-.21.56-.15.77.04 1.51.68 2s1.39.46 2.12.15c.8-.34 1.2-1.38 1.23-2.19.02-.61-.16-1.26-.49-1.77-.81-1.27-2.26-1.57-3.66-1.61-1.07-.03-2.14-.07-3.21-.02-.67.03-1.32.07-1.98.16-.24.03-.48.07-.72.1-.13.02-.27.06-.4.06.21 0-.27-.05-.28-.05-.76-.02-1.5.69-1.46 1.46.04.83.64 1.41 1.46 1.46Zm-6.37-17.29c-4.87-.29-10.15.47-13.74 3.79-1.09 1.01-2.01 2.28-2.24 3.74-.45 2.84 1.81 5.46 4.36 6.8s5.46 1.85 8.03 3.15c-1.02-2.73-.89-5.81.06-8.56s2.67-5.19 4.72-7.26"/><path d="M102.79 138.75c-2.65-.18-5.12-.38-7.76.11-2.63.49-5.06 1.63-7.11 3.35-2.27 1.9-3.71 4.62-3.21 7.61.44 2.66 2.47 4.89 4.7 6.27 2.7 1.68 5.94 2.08 8.76 3.46.74.36 1.58.38 2.25-.16.6-.47 1.01-1.37.73-2.13-1.86-5.13.64-10.21 4.23-13.88 1.79-1.83-1.02-4.65-2.82-2.82-4.52 4.62-7.63 11.31-5.33 17.77l2.98-2.29c-2.72-1.35-5.83-1.92-8.44-3.49-.99-.59-1.85-1.4-2.41-2.38-.51-.9-.63-1.72-.22-2.66.97-2.18 3.54-3.57 5.66-4.31 2.48-.86 5.33-1.42 7.97-1.32 2.03.08 2-3 0-3.14Z"/><path d="M111.83 159.94c-.59-.17-1.18-.03-1.77.08-.21.03-.23.04-.08.02-.11.01-.23.03-.34.04-.23.02-.46.05-.68.07-.89.08-1.81.08-2.7 0l-.61-.06c.36.05.25.03-.35-.05.24.03.25.03.01 0-.46-.08-.91-.17-1.36-.29s-.89-.27-1.33-.44c-.8-.32-1.46-.29-2.26.05-.71.3-1.05 1.35-.83 2.05.44 1.45 2.02 1.9 3.34 2.23 1.1.28 2.25.44 3.38.44 1.1 0 2.2-.15 3.26-.43.56-.15 1.09-.38 1.62-.61.59-.26 1.14-.56 1.49-1.13.46-.74.01-1.73-.8-1.96Zm5.95-129.46.06-1.13c.01-.19.02-.38.04-.57.02-.22.03-.38-.04-.63-.03-.09-.06-.19-.09-.28l-.15-.35c-.09-.17-.21-.3-.37-.41a.8.8 0 0 0-.32-.19 1.07 1.07 0 0 0-.56-.12c-.26.01-.5.08-.73.2-.32.17-.56.52-.66.86-.03.09-.06.19-.09.28-.05.21-.06.42-.04.63.02.19.03.38.04.57l.06 1.13c.02.38.14.73.42 1.01.25.25.65.43 1.01.42s.75-.14 1.01-.42.39-.61.42-1.01Zm14.6 3.9q0-.18.03-.36l-.05.36c.06-.42.2-.82.36-1.21l-.15.35c.13-.3.29-.58.48-.83l-.24.31c.26-.33.55-.64.89-.9l-.3.23.21-.15c.32-.21.57-.5.68-.88.1-.35.05-.82-.15-1.14s-.51-.59-.88-.68c-.4-.09-.77-.04-1.14.15a4.34 4.34 0 0 0-1.94 2.03c-.26.55-.42 1.05-.47 1.66-.04.47.02.95.12 1.41.06.3.33.64.6.78s.54.19.83.15c.65-.09 1.11-.63 1.13-1.28Zm13.07 10.41c.54-.34 1.07-.7 1.6-1.06.26-.18.52-.35.78-.54.35-.25.69-.54 1.03-.81.27-.21.45-.73.44-1.06s-.11-.64-.32-.91c-.45-.58-1.29-.78-1.94-.39-.28.17-.56.33-.83.51-.25.18-.5.35-.75.53-.52.37-1.03.74-1.53 1.12-.17.09-.32.22-.42.39q-.195.21-.27.51c-.1.36-.05.84.15 1.16s.51.6.9.69.81.07 1.16-.15Zm9.12 13.48.85-.22c.28-.07.56-.18.84-.27.19-.05.36-.13.5-.27.16-.1.29-.24.38-.42.11-.17.17-.35.18-.55.04-.2.04-.39-.03-.59-.12-.36-.34-.71-.68-.89s-.75-.26-1.14-.15c-.28.08-.57.14-.85.24l-.83.29c-.19.05-.36.13-.5.26-.16.1-.29.24-.38.41a1 1 0 0 0-.17.55c-.04.2-.03.39.03.59.12.36.34.7.67.88s.74.25 1.13.15Zm6.71 12.06.22-.07c.19-.06.36-.13.55-.21.13-.06.27-.12.4-.18.17-.09.31-.22.41-.38.13-.14.22-.31.26-.5l.05-.39c0-.2-.03-.39-.13-.56a.7.7 0 0 0-.19-.32c-.1-.16-.24-.28-.41-.38l-.35-.15q-.39-.105-.78 0l-.43.1c-.07.02-.14.04-.2.07l-.21.08q-.3.075-.51.27-.24.165-.39.42c-.11.17-.17.36-.18.56-.04.2-.04.4.03.6l.15.36c.13.23.31.4.54.54l.36.15c.27.07.53.07.8 0Z"/></svg>