<?xml version="1.0" encoding="UTF-8"?><svg xmlns="http://www.w3.org/2000/svg" viewBox="0 0 180 180"><path d="M129.71 137.81c-6.28-2.21-12.38-5.72-18.31-8.98-3.75-2.06-7.5-4.14-11.16-6.37-1.6-.98-3.19-1.99-4.74-3.05-1.4-.96-2.35-1.64-3.45-2.57-3.23-2.73-5.24-6.56-6.71-10.48-2.04-5.46-3.48-11.08-3.92-16.9-.39-5.22-.51-10.56-.31-15.79.05-1.45.19-2.96.8-3.98.24-.4.04-.26.42-.52-.33.22.04-.02.13-.07.34-.17-.49.13.15-.06.35-.1 1.43.04 1.9.22 1.21.48 2.14 1.71 2.92 3.24.94 1.82 1.51 3.9 2 5.94 1 4.16 1.41 8.45 2.5 12.59.6 2.3 4.57 1.92 4.28-.58a512 512 0 0 0-6.92-43.51c-.42-2.07-1.39-4.87-.57-6.97s3.28-1.54 4.76-.61c1.75 1.1 2.43 3.15 3.06 5.01.84 2.48 1.49 5.01 2.16 7.54.66 2.49 1.52 4.93 1.58 7.53.06 2.38.04 4.56.89 6.84.35.94 1.17 1.61 2.23 1.45.89-.13 1.9-.98 1.76-1.99-1.48-11.14-3.64-22.2-4.93-33.37-.22-1.92-.05-3.68 2.26-3.46 1.8.17 2.83 1.56 3.72 2.99 2.69 4.34 3.26 9.2 3.96 14.17.87 6.23 1.52 12.49 2.7 18.68.45 2.36 3.84 1.62 3.98-.54.37-5.72.28-11.46-.36-17.16-.32-2.91-.76-5.81-1.3-8.68-.5-2.66-1.44-5.41-1.29-8.15.09-1.68.95-3.83 2.88-3.99 2.03-.16 3.73 1.61 4.54 3.28 1.09 2.27 1.31 4.95 1.67 7.41.44 3.02.89 6.05 1.33 9.07.98 6.7 1.92 13.41 2.98 20.1.37 2.33 4.16 1.76 4.08-.55-.24-7.32-1.44-14.58-1.66-21.9-.04-1.19.1-2.12 1.01-2.96.97-.89 2.05-1.43 3.28-.74 1.3.73 1.9 2.3 2.36 3.63.66 1.92 1.2 3.88 1.72 5.84 2 7.52 3.15 15.25 3.65 23.01.5 7.84-.78 15.73.72 23.52 1.44 7.53 5.56 14.35 10.91 19.75 1.97 1.99 5.04-1.08 3.07-3.07-5.01-5.05-8.7-11.5-9.92-18.55-.71-4.13-.55-8.38-.44-12.55.11-4.25.04-8.44-.36-12.67-.79-8.34-2.21-16.7-4.8-24.68-1.11-3.42-2.56-7.2-6.35-8.33-3.19-.96-6.76 1.18-8.15 4.07-.88 1.85-.69 3.88-.59 5.86.11 2.16.29 4.31.48 6.46.4 4.43.88 8.86.92 13.31h4.16c-.9-6.74-1.92-13.45-2.9-20.18l-1.5-10.3c-.41-2.82-.85-5.71-2.31-8.22-2.75-4.74-9.54-6.67-13.12-1.71-1.65 2.29-1.84 5.18-1.46 7.88.46 3.25 1.32 6.45 1.84 9.69 1.13 7.11 1.36 14.34.86 21.52l3.98-.54c-1.14-6.12-1.78-12.31-2.62-18.47-.77-5.62-1.57-11.14-4.83-15.94-1.34-1.98-3-3.67-5.43-4.19-2.22-.48-4.83-.06-6.39 1.73-2.13 2.45-1.31 5.8-.91 8.71.43 3.11.89 6.22 1.37 9.33 1.06 6.97 2.2 13.94 3.12 20.93l3.99-.54c-.79-2.13-.64-3.89-.72-6.16-.1-2.73-.89-5.31-1.57-7.94-.7-2.74-1.38-5.48-2.31-8.16-.84-2.42-1.82-4.84-3.88-6.49-2.49-1.99-6.05-2.92-8.98-1.29-2.5 1.39-3.46 4.17-3.38 6.91.09 3.23 1.06 6.47 1.68 9.63q1.17 6.03 2.19 12.09c1.49 8.86 2.73 17.75 3.74 26.68l4.28-.58c-1.03-3.94-1.43-8.03-2.33-12s-2.12-8.45-5.24-11.18-8.59-3.09-10.69 1.13c-1.9 3.82-1.26 8.89-1.24 13 .04 6.42.25 12.97 1.96 19.19 1.67 6.08 3.65 12.27 7.59 17.3 2.03 2.6 4.84 4.53 7.56 6.35 3.63 2.43 7.42 4.62 11.25 6.71 4.37 2.4 8.93 4.5 13.49 6.52 3.37 1.5 6.79 3.04 10.29 4.21 2.1.7 2.97-2.57.91-3.3Z"/><path d="M111.05 97.78c-2.32-2.26-5.18-3.81-8.09-5.15-1.43-.66-2.88-1.29-4.32-1.94-.7-.32-1.39-.65-2.06-1.01-.74-.4-1.44-.92-2.2-1.28-.94-.44-2.03-.34-2.69.54-.61.81-.6 2 .16 2.74 1.17 1.13 2.82 1.86 4.3 2.52 1.53.69 3.11 1.25 4.7 1.81 2.81 1 5.69 2 7.95 4.04 1.52 1.37 3.75-.82 2.26-2.26Zm-10.43-13.45c4.47 1.16 8.73 3.06 12.86 5.1 2.02 1 4 2.06 5.96 3.15 1.05.58 2.09 1.18 3.13 1.77s2.06 1.3 3.29 1.32c1.21.02 2.02-1.38 1.39-2.42s-1.74-1.56-2.78-2.15-2.09-1.17-3.15-1.75c-2.1-1.15-4.23-2.26-6.39-3.3-4.33-2.07-8.81-3.64-13.5-4.68-1.92-.43-2.73 2.45-.81 2.95Zm15.04-4.26c.14 0 .27 0 .41.03l-.36-.05q.39.06.75.21l-.33-.14c.13.06.25.12.38.19.15.09.31.16.48.2l.2.06.34.05.34-.05.3-.13q.225-.12.36-.33c.08-.08.13-.17.16-.28.06-.1.09-.21.09-.32.03-.11.03-.22 0-.34 0-.17-.06-.33-.15-.47-.04-.07-.09-.14-.14-.2-.07-.09-.15-.22-.23-.3-.07-.07-.21-.18-.3-.24-.04-.03-.08-.05-.12-.07-.25-.13-.52-.24-.79-.33a4 4 0 0 0-.5-.12c-.29-.04-.58-.08-.87-.07-.35.01-.7.14-.95.39-.13.12-.22.27-.28.43-.08.16-.12.33-.12.52.02.35.13.71.39.95s.59.39.95.39Zm34.97 26.38c2.97 6.34 3.75 13.68 2.18 20.5-.49 2.13-1.22 4.26-2.53 6.01-1.66 2.23-4.15 3.71-6.71 4.77a29.84 29.84 0 0 1-14.41 2.11c-1.11-.11-2.27-.31-3.18-.96-.87-.62-1.98-1.65-2.76-.92-.14.13-.24.31-.32.49-1.22 2.6-.42 5.82 1.38 8.05 1.8 2.24 4.43 3.64 7.11 4.68.9.35 1.84.68 2.6 1.28.6.48 1.06 1.1 1.63 1.62 1.45 1.31 3.48 1.79 5.43 1.87 5.77.25 11.23-2.45 16.21-5.36 2.05-1.2 4.09-2.45 5.86-4.02 4.17-3.7 6.72-9.16 6.87-14.73.05-1.85-.15-3.7-.35-5.54l-1.23-11.25c-.11-1-.22-2.02-.61-2.95-.91-2.19-3.12-3.49-5.19-4.64-1.98-1.1-3.96-2.2-5.95-3.31-1.19-.66-2.43-1.34-3.78-1.42-1.36-.08-2.86.62-3.25 1.92"/><path d="M149.3 107.22c2.37 5.48 2.78 12.03 1.66 17.86-.51 2.63-1.26 5.36-3.18 7.33-1.86 1.92-4.4 3.09-6.91 3.91-2.93.96-5.97 1.44-9.05 1.4-1.3-.02-2.91.06-4.13-.47-1.33-.57-2.12-1.73-3.7-1.8-3.14-.14-4.08 3.77-3.92 6.23.19 2.91 1.6 5.63 3.73 7.6 2.29 2.12 4.98 3.13 7.77 4.37 1.17.52 1.79 1.47 2.75 2.27 1.15.95 2.53 1.6 3.99 1.93 6.13 1.38 12.45-1.14 17.75-4.03 5.21-2.84 10.2-6.09 13.17-11.4 1.39-2.48 2.31-5.21 2.71-8.03.45-3.21.07-6.36-.27-9.56-.41-3.74-.7-7.51-1.24-11.23-.49-3.36-2.57-5.58-5.39-7.29-1.54-.93-3.14-1.77-4.71-2.65-1.44-.8-2.86-1.69-4.37-2.35-3.23-1.42-7.08-.86-8.46 2.74-.43 1.12.48 2.44 1.56 2.74 1.25.34 2.31-.43 2.74-1.56.19-.51 1.38-.25 1.7-.16 1.33.38 2.57 1.24 3.77 1.91 2.28 1.26 4.86 2.38 6.91 4s2.06 4.02 2.34 6.51c.34 3.09.69 6.18 1.02 9.27.28 2.61.52 5.26 0 7.85-.47 2.37-1.38 4.59-2.68 6.63-2.88 4.47-7.8 7.14-12.43 9.48-2.41 1.21-4.93 2.22-7.59 2.72-2.22.42-5.13.62-7.14-.62-.98-.6-1.63-1.63-2.56-2.31-1.1-.8-2.39-1.19-3.63-1.7-2.13-.89-4.36-2.12-5.72-4.05-.6-.85-1.05-1.89-1.18-2.93-.05-.44-.05-.94.02-1.37.03-.17.21-.58.19-.71.15-.34-.07-.35-.67 0q-1.2 0-.42.3c2 1.86 4.85 2.12 7.44 2.2 5.48.18 11.27-1.05 16.06-3.77 2.54-1.44 4.75-3.48 6.06-6.12 1.36-2.75 1.99-5.81 2.3-8.84.63-6.21-.92-12.28-3.62-17.83-.88-1.8-3.41-.22-2.64 1.55ZM44.85 30.09c-6.54-2.39-13.9-4.49-20.93-3.43-3.08.46-5.99 2.07-7.35 4.99-1.53 3.29-1.74 7.1-1.83 10.67-.05 1.76-.13 3.5-.08 5.26s.05 3.54.81 5.13c1.46 3.06 5.66 3.94 8.58 4.91 3.45 1.15 6.97 1.97 10.58 2.46 3.3.45 7.33 1.22 10.48-.19 3.14-1.4 4.97-4.37 6.16-7.46 1.44-3.76 2.1-7.86 2.19-11.87.06-2.49-3.75-2.47-3.86 0-.13 3.03-.62 6.02-1.51 8.92-.62 2.04-1.45 4.5-3.31 5.76-2.07 1.4-5.41.82-7.72.61-3.02-.27-6.05-.78-9.01-1.45-2.7-.62-5.77-1.25-8.21-2.61-1.09-.61-1.26-1.6-1.36-2.77-.14-1.59-.14-3.19-.08-4.78.12-3.02.95-6.19 1.85-9.07.71-2.26 2.09-3.41 4.4-3.82 2.92-.53 6.09-.14 9.03.12 3.49.31 6.91.88 10.26 1.95 2.13.68 2.96-2.57.91-3.31Z"/><path d="M36.56 37.2c-1.37-.54-2.59-.91-4.09-.76-1.57.16-3.05.75-4.3 1.72-2.23 1.72-3.88 4.77-3.43 7.65s4.06 4.85 6.75 5.28c2.93.47 5.87-.31 8.17-2.21 2.4-1.98 3.98-6.28 1.77-8.93-.78-.93-2.51-.18-2.43 1.01.06.91.3 1.84.1 2.7s-.61 1.6-1.24 2.21c-1.35 1.31-3.15 1.63-4.92 1.55-1.56-.07-3.13-.77-4.27-1.97-.22-.23-.18-.53-.13-.96.02-.23 0-.05 0 0 .02-.14.05-.27.08-.41.06-.27.14-.53.23-.8.07-.21.26-.59.48-.95.25-.41.4-.6.81-1 .67-.65 1.5-1.05 2.48-1.3.94-.24 2.18-.38 3.17-.04.74.25 1.58-.29 1.78-1.01.23-.82-.28-1.49-1.01-1.78m-11.58-1.19c1.83 0 1.83-2.84 0-2.84s-1.83 2.84 0 2.84m.1 32.43c-5 .95-9.33 4.86-10.78 9.74-1.46 4.88.02 10.51 3.68 14.05-2.65.81-5.15 2.08-7.36 3.74-.26.2-.53.42-.61.74-.08.34.1.69.27.99 1 1.77 2.03 3.52 3.08 5.25.29.47.62.98 1.15 1.14.47.14.97-.03 1.43-.21 2.31-.89 4.57-1.9 6.77-3.04 2.64 4.15 5.29 8.3 7.93 12.45.15.24-.94.47-.67.56.3.09.62-.05.9-.19 3.26-1.66 6.53-3.31 9.79-4.97.52-.26 1.09-.59 1.21-1.16.1-.48-.16-.96-.42-1.37a78 78 0 0 0-9.31-12.09c1.61-1.18 4.48-2.33 6.08-3.51.32-.24.67-.5.77-.89.1-.37-.05-.75-.2-1.1-.78-1.8-1.73-3.52-2.84-5.13-1.73-.07-3.32.86-4.9 1.55-1.59.69-3.53 1.13-4.97.17-2.02-1.35-1.64-4.62.01-6.41s4.08-2.58 6.25-3.67c-.93-1.94-1.86-3.87-2.79-5.81m26.08 46.16c-3.1.47-6.17 1.2-9.25 1.64-.85.12-1.65 1.22-1.57 2.06.4 4.26.86 8.51 1.32 12.76.41 3.84 1.1 7.75 1.1 11.62 0 2.79-.84 5.4-3.97 5.79-2.7.34-6.91-.8-7.22-4.04-.3-3.12 4.27-4.04 6.44-4.65 2.85-.8 1.65-5-1.21-4.4-3.76.78-8.05 2.5-9.47 6.4-1.74 4.78 1.91 9.31 6.3 10.77s9.58.48 12.08-3.5c2.32-3.71 1.41-8.51.96-12.59-.67-6.06-1.3-12.11-2.05-18.16l-1.06 1.85c2.67-1.18 5.61-1.78 8.49-2.35 2.12-.42 1.18-3.51-.88-3.19Zm36.41 43.31c-3.22-.43-6.37-1.47-9.39-2.65-2.95-1.15-6-2.58-8.51-4.53-1.61-1.25-5.62-5.29-2.6-7.17 3.38-2.1 8.13 1.05 10.93 2.8 1.46.91 3.63-.62 3.02-2.32-.88-2.46-2.4-6.54.71-8.07 2.34-1.15 4.89-.04 6.35 1.95 2.02 2.75 2.08 6.33 1.66 9.58-.5 3.89-1.66 7.63-2.5 11.45-.55 2.5 2.88 3.37 3.78 1.04.91-2.36 1.46-4.87 1.97-7.34s.97-4.94 1.05-7.44c.15-4.25-1.06-8.84-4.47-11.63-3.01-2.46-7.48-3.04-10.75-.67-4.12 2.99-3.28 8.06-1.77 12.24 1.01-.77 2.02-1.55 3.02-2.32-3.35-2.07-7.2-4.28-11.3-3.92-3.88.35-7.17 3-6.8 7.17.61 6.86 9.02 10.69 14.64 12.71 3.39 1.22 6.93 2.05 10.52 2.29 1.77.12 2.22-2.9.43-3.15Zm48.43-130.15c.16-.77.36-1.54.62-2.29.13-.39.28-.77.43-1.15-.06.14-.07.17 0 .01.04-.09.08-.17.12-.26.09-.2.18-.39.28-.58.34-.71.72-1.4 1.15-2.07.21-.32.42-.64.65-.95.46-.64.78-1.19.58-2.03-.17-.7-.89-1.23-1.6-1.22-.94.01-1.43.58-1.93 1.27-.25.35-.49.71-.71 1.08-.44.71-.83 1.46-1.17 2.23-.72 1.63-1.23 3.34-1.5 5.1-.12.82.21 1.76 1.12 1.97.8.18 1.79-.24 1.97-1.12Zm8.31 4.46c.72-.44 1.38-1.02 2.04-1.55.6-.48 1.19-.97 1.78-1.47s1.14-.97 1.69-1.47c.28-.25.55-.5.82-.76.21-.21.42-.42.58-.67.23-.35.3-.74.31-1.15.04-.86-.76-1.57-1.58-1.58-.77-.01-1.26.33-1.82.82-.28.25-.56.5-.83.75-.55.51-1.11 1-1.67 1.49s-1.1.95-1.66 1.41c-.59.49-1.22.94-1.77 1.47-.62.6-.65 1.6-.13 2.27s1.49.9 2.23.44Zm4.38 8.97c.98-.25 1.95-.51 2.93-.76.48-.12.96-.25 1.44-.37.24-.06.49-.11.72-.19.34-.12.67-.29 1-.44.59-.27.9-1.14.71-1.74a1.9 1.9 0 0 0-.4-.68c-.23-.25-.74-.49-1.09-.45s-.74.06-1.1.14c-.22.05-.44.13-.66.19l-1.48.44-2.91.86c-.78.23-1.35 1.1-1.09 1.91s1.07 1.31 1.91 1.09Zm5.32 6.19h-.46c-.24 0-.46.05-.66.16-.21.07-.4.19-.55.36-.17.16-.29.34-.36.55-.11.2-.16.43-.15.66l.06.46c.08.29.23.54.44.76l.35.27c.27.16.56.23.87.23h.46c.24.02.46-.03.67-.14.21-.07.4-.19.56-.36.17-.16.29-.34.36-.56.11-.21.16-.43.15-.67l-.06-.46c-.08-.29-.23-.55-.44-.76l-.35-.27c-.27-.16-.56-.23-.87-.24Z"/></svg>