<?xml version="1.0" encoding="UTF-8"?><svg xmlns="http://www.w3.org/2000/svg" viewBox="0 0 180 180"><path d="M133.04 37.18c-6.6 6.07-13.99 11.82-22.21 15.5-4.39 1.97-9.12 2.19-13.86 2.05-5.91-.18-11.79-1.06-17.71-.81-5.17.22-10.2 1.41-14.74 3.94-4.11 2.29-7.6 5.51-10.4 9.28-4.01 5.4-11.16 21.86-.1 23.65 4.63.75 8.5-1.67 11.45-5.01 1.58-1.8 3.03-3.85 4.97-5.29 1.7-1.26 3.71-1.79 5.82-1.63 4.13.3 8.14 3.09 10.48 6.4.59.83 1.38 1.87 1.26 2.95-.13 1.14-1.09 2.21-1.79 3.06a79 79 0 0 1-5.78 6.32c-2.07 2.03-4.24 3.98-6.53 5.75-1.55 1.2-4.12 3.1-6.23 2.39-.62-.21-1.04-.61-1.26-.94-.4-.61-.55-1.14-.73-2.02-.28-1.43-.25-3.34-.33-5-.18-3.96-1.13-8.31-5.39-9.7-5.43-1.78-10.59 2.92-12.11 7.76-.75 2.39-.86 4.94-1.14 7.41s-.58 5.13-.33 7.69.97 5.09 2.53 7.21c1.59 2.16 3.64 3.88 5.81 5.43 2.08 1.49 4.33 2.9 6.74 3.79 2.61.96 5.46 1 8.15.37 2.58-.6 5.02-1.83 7.34-3.08 2.62-1.42 5.2-2.9 7.75-4.43 2.62-1.57 5.21-3.2 7.77-4.88l-3.11-3.11c-4.71 6.82-9.92 13.23-15.43 19.42-2.8 3.15-5.67 6.25-8.52 9.37-1.55 1.69-3.11 3.39-4.65 5.09-1.58 1.73-2.87 3.57-3.07 5.98-.26 3 1.51 6.06 4.24 7.32 2.68 1.23 5.69 1.14 8.53.57 7.25-1.45 12.32-7.25 16.86-12.67 3.17-3.78 6.1-7.75 9.29-11.52 3.57-4.22 7.15-8.42 10.8-12.57l-2.86-2.86c-4.82 6.12-9.75 12.16-14.56 18.29-2.41 3.07-4.82 6.14-7.24 9.21-2.37 3-5.02 6.12-5.56 10.04-.45 3.25.62 6.86 3.52 8.68 3.18 2 7.38 1.02 10.46-.67 3.02-1.66 5.64-4.08 8.08-6.48 2.67-2.63 5.26-5.36 7.84-8.09 6.64-7.02 13.02-14.28 19.16-21.75.72-.87.85-2.11 0-2.96-.74-.74-2.24-.88-2.96 0-4.28 5.22-8.94 10.12-13.39 15.2-2.19 2.5-4.31 5.09-6.6 7.51-1.76 1.86-3.85 3.74-4.42 6.35-1.24 5.74 5.45 10.37 10.61 9.59 2.81-.43 5.08-2.16 7.29-3.82 2.51-1.89 4.96-3.85 7.31-5.94 4.69-4.17 9-8.75 13.03-13.57 3.92-4.69 7.64-9.57 10.67-14.89 2.99-5.24 5.37-10.9 6.62-16.81 1.26-5.9 1.24-11.96 2.17-17.9.51-3.28 1.31-6.57 2.87-9.52 1.32-2.49 3.02-4.75 4.71-7 3.48-4.66 6.98-9.59 6.8-15.68-.09-2.85-4.52-2.86-4.44 0 .14 4.61-2.62 8.52-5.23 12.08-3.05 4.16-6.08 8.16-7.66 13.14-1.71 5.39-1.94 11.13-2.47 16.72-.53 5.51-1.68 10.85-3.8 15.97-4.29 10.36-11.64 19.42-19.29 27.49-4.02 4.24-8.33 8.25-13 11.77-1.86 1.4-3.96 3.36-6.37 3.67-1.95.25-4.02-.97-5.07-2.56-1.37-2.09.8-3.94 2.18-5.36 2.33-2.42 4.47-5.05 6.68-7.58 4.6-5.28 9.3-10.48 13.74-15.89l-2.96-2.96c-5 6.14-10.19 12.13-15.55 17.97-4.61 5.02-9.22 10.24-14.39 14.69-2.14 1.84-4.73 3.89-7.64 4.21s-4.51-1.9-4.29-4.65c.25-3.11 2.69-5.75 4.53-8.09 2.19-2.78 4.38-5.57 6.57-8.35 5-6.37 9.88-12.83 14.89-19.19.68-.86.84-2.02 0-2.86-.74-.74-2.14-.82-2.86 0-5.79 6.56-11.43 13.24-16.86 20.1-2.45 3.1-4.96 6.16-7.73 8.97-2.16 2.19-4.34 4.32-7.22 5.5-2.16.88-4.85 1.42-6.92 1.05-.51-.09-1.03-.22-1.52-.42.29.12-.32-.18-.4-.22-.1-.06-.19-.12-.29-.18-.32-.21.01.03-.16-.11s-.33-.3-.48-.46c-.25-.27.16.24-.06-.06-.07-.09-.13-.19-.19-.29-.22-.37-.38-.67-.46-1.31-.21-1.75 1.33-3.09 2.39-4.26l4.32-4.71c2.66-2.9 5.32-5.8 7.93-8.75 5.84-6.59 11.36-13.44 16.37-20.68 1.29-1.87-1.25-4.33-3.11-3.11-4.99 3.27-10.1 6.35-15.33 9.2-2.18 1.18-4.39 2.3-6.83 2.82s-4.84-.05-7.01-1.26c-3.67-2.04-8.35-4.87-9.64-9.14-.72-2.39-.58-4.94-.35-7.39.21-2.24.36-4.55.79-6.76.42-2.16 1.19-4.33 3.11-5.59 1.51-.99 3.55-1.46 4.73-.16.24.26.52.82.68 1.34.25.84.32 1.38.38 2.16.15 1.8.1 3.61.29 5.4.44 4.12 2.46 8.11 7.13 8.36 2.62.14 5.21-1.12 7.3-2.59 2.26-1.59 4.37-3.44 6.39-5.31s3.98-3.89 5.81-5.98 3.96-4.24 4.63-6.92c1.24-4.92-3.69-9.65-7.39-12.11s-8.5-3.8-12.88-2.55c-4.89 1.39-7.41 5.62-10.78 9.03-1.3 1.31-2.75 2.28-4.6 2.57-1.32.2-2.81.01-3.42-.91-.95-1.43-.19-4.14.19-5.76.49-2.11 1.23-4.15 2.23-6.07 4.06-7.81 11.6-13.5 20.38-14.7 10.83-1.48 22.06 2.48 32.72-.75 4.15-1.26 7.98-3.52 11.54-5.95 3.85-2.63 7.62-5.54 11.01-8.74 1.41-1.33 2.82-2.66 4.18-4.05 1.54-1.58-.8-3.89-2.41-2.41Z"/><path d="M71.38 79.03c-3.39 1.02-5.75 4-7.88 6.81-.74.98-1.53 2.07-1.48 3.31.03.85.47 1.63.81 2.41.62 1.41.99 2.94 1.06 4.48.09 1.71-.18 3.45.09 5.14s1.24 3.45 2.89 3.93c1.47.43 3.02-.25 4.37-.98 5.89-3.16 11.35-7.63 14.22-13.66.56-1.18 1.03-2.49.83-3.78-.25-1.63-1.48-2.92-2.65-4.08-1.41-1.4-2.88-2.84-4.74-3.52-2.24-.81-4.73-.4-7.06.11"/><path d="M70.96 77.51c-2.72.72-4.88 2.41-6.74 4.47-1.83 2.03-4.39 4.64-4.09 7.58.15 1.51 1.04 2.8 1.44 4.25.46 1.67.36 3.32.33 5.03-.04 2.81.54 5.88 3.06 7.53 2.71 1.78 5.82.32 8.33-1.07s5-3.14 7.2-5.08c2.08-1.84 3.95-3.97 5.46-6.3 1.6-2.48 3.2-5.55 2.26-8.56-.5-1.59-1.6-2.89-2.74-4.07s-2.33-2.34-3.7-3.26c-3.12-2.1-7.04-2-10.53-.99-1.15.33-1.87 1.56-1.55 2.73.35 1.28 1.54 1.72 2.73 1.55 2.29-.32 4.64-.88 6.75.38 1.59.95 3.26 2.52 4.34 4.02 1.35 1.86 0 4.01-1.01 5.73s-2.31 3.34-3.77 4.78c-1.57 1.54-3.29 2.9-5.13 4.11q-1.32.87-2.7 1.65c-1.38.78-1.97 1.26-3.03 1.26-2.03 0-2.07-3.03-2.05-4.41.03-2.64-.02-5.13-1.04-7.62-.53-1.29-1.16-2.11-.37-3.41.59-.98 1.34-1.88 2.05-2.78 1.43-1.8 3.14-3.65 5.33-4.51 1.84-.72 1.16-3.55-.83-3.03Z"/><path d="M103.11 88.32c-3.33-2.35-6.71-4.56-10.3-6.49-1.76-.95-3.53-1.87-5.33-2.75-.93-.45-1.86-.91-2.79-1.36s-1.93-1.01-2.99-1.03-2.08 1.38-1.34 2.34c1.22 1.58 3.5 2.36 5.24 3.27s3.57 1.8 5.35 2.71c3.61 1.83 7.29 3.63 10.63 5.93 1.63 1.12 3.12-1.51 1.54-2.63Zm-4.67 11.8c5.75-.3 11.48-1.19 17.04-2.69 2.75-.74 5.46-1.65 8.1-2.72a96 96 0 0 0 3.91-1.68c1.3-.6 2.82-1.14 3.85-2.17 1.11-1.1-.05-2.72-1.44-2.47-1.28.24-2.49 1.06-3.66 1.61-1.23.58-2.47 1.13-3.73 1.64a87 87 0 0 1-7.87 2.73 76 76 0 0 1-16.19 2.9c-1.81.13-1.84 2.94 0 2.84Zm8.84 9.56c4.85-.68 9.63-1.61 14.37-2.87 2.28-.61 4.55-1.28 6.79-2.03 1.2-.4 2.38-.81 3.57-1.24s2.28-.74 3.23-1.49.16-2.47-.99-2.39c-1.23.09-2.35.67-3.5 1.08a145 145 0 0 1-10.11 3.25c-4.61 1.3-9.3 2.4-14.01 3.26-1.61.29-.9 2.65.67 2.43Zm-19.35 1.34c.22.13.43.27.64.43l-.27-.21c.21.16.42.33.64.49l-.28-.22q.585.465 1.05 1.05l-.23-.3c.16.21.33.44.45.68l-.15-.36c.04.1.08.2.12.31.06.17.1.33.2.49.17.28.37.44.63.62.45.31 1.12.27 1.58 0 .48-.28.76-.79.77-1.35 0-.31-.07-.62-.22-.89-.08-.13-.22-.29-.33-.43-.07-.09-.16-.18-.23-.27l.24.31c-.24-.33-.5-.66-.79-.96s-.61-.54-.93-.79c-.56-.42-1.2-.71-1.88-.9-.61-.17-1.24.16-1.48.73s-.03 1.25.51 1.57Zm13.9 8.61c.51.32 1.01.68 1.49 1.05l-.32-.25c.67.52 1.3 1.11 1.83 1.77.24.3.77.47 1.14.47.39 0 .87-.18 1.14-.47s.49-.71.47-1.14l-.06-.43c-.08-.27-.21-.51-.41-.71-.55-.68-1.18-1.26-1.88-1.78-.3-.22-.6-.43-.93-.6-.43-.23-.9-.39-1.36-.54-.33-.11-.82-.04-1.11.14-.27.17-.46.39-.59.69-.28.66-.03 1.41.59 1.8m18.4 7.59c.29.11.58.23.86.35l-.33-.14q.72.315 1.44.66c.72.345.92.52 1.36.81l-.31-.24c.21.19.44.36.68.53.33.23.87.27 1.24.16s.78-.39.96-.74c.2-.37.3-.83.16-1.24-.12-.38-.37-.79-.74-.96-.26-.12-.53-.24-.81-.32l.37.16c-.49-.22-.99-.42-1.49-.62l.34.14c-.98-.44-1.98-.84-3-1.18-.68-.22-1.52.26-1.68.95-.08.35-.06.74.14 1.05s.47.49.82.63Zm49.6-69.44c-9.28-10.94-21.17-20.34-35.8-22.17-4.26-.53-8.59-.77-12.87-.51-4.36.26-9.23.92-12.7 3.82-5.2 4.34-2.2 11.81 2.27 15.4 2.09 1.67 4.97-1.01 3.01-3.01-1.13-1.15-2.27-2.39-2.9-3.89-.23-.55-.36-1.14-.47-1.72-.02-.13 0 .27-.01-.18v-.75c-.02-.46-.03.02-.01-.08.03-.17.06-.33.11-.5.05-.19.11-.37.18-.55-.16.44-.06.12.08-.09.08-.14.17-.27.25-.41.26-.45-.21.18.08-.1.26-.26.51-.52.79-.75.2-.17-.13.1-.14.11.1-.07.19-.14.29-.2.16-.09.3-.19.46-.29.38-.22.78-.42 1.18-.59-.39.17 0 0 .17-.05.19-.07.39-.14.58-.2.47-.16.95-.29 1.43-.41 2.2-.55 3.46-.68 5.72-.81 3.96-.24 7.95-.05 11.89.38l1.05.12c.08 0 .72.1.33.04-.37-.05.18.03.28.04.99.15 1.97.32 2.95.54 3.49.78 6.85 2.08 10.04 3.69 7.36 3.69 14.29 9.01 19.66 15.25 1.26 1.46 3.34-.66 2.11-2.11Z"/><path d="M114.22 51.26c-1.26-.98-2.33-2.26-2.79-3.79s-.23-3.31.82-4.51c1.26-1.44 3.34-1.77 5.25-1.93 3.33-.27 6.67-.28 10.01-.16.14.64-.36 1.22-.83 1.68a56.3 56.3 0 0 1-12.17 8.95"/><path d="M115.29 50.19c-1.19-1.03-2.32-2.37-2.33-4.02 0-1.45.84-2.45 2.16-2.86 1.74-.54 3.67-.52 5.5-.59 2.29-.08 4.59-.05 6.88.03l-1.87-1.87s.06-.02.06-.05c-.03.08-.09.15-.18.2-.19.2-.4.38-.6.56-.49.45-.99.89-1.5 1.33-.98.87-1.99 1.7-3.04 2.49s-2.16 1.56-3.28 2.28-2.39 1.4-3.51 2.2c-.75.54-1.16 1.42-.76 2.32.34.77 1.32 1.43 2.19 1.08 3.01-1.21 5.75-3.27 8.3-5.25 1.2-.93 2.39-1.9 3.5-2.95 1.18-1.1 2.78-2.43 2.58-4.22-.11-1.04-.77-1.84-1.87-1.87-2.71-.09-5.42-.1-8.13.04-2.36.13-5 .2-7.07 1.49s-3.13 3.74-2.77 6.23 1.98 4.38 3.93 5.8c1.38 1 3.12-1.25 1.83-2.37Zm7.66-21.07c4.65-.8 9.64-.62 14.32-.23 4.79.4 9.52 1.42 14.11 2.85 3.8 1.19 7.93 2.67 10.31 6.06 1.12 1.59 2.1 3.35 3.54 4.68 1.06.99 3.24 1.9 3.45 3.49.18 1.36 2.14 1.89 2.56.35.94-3.43-3.38-4.92-4.9-7.28-.92-1.44-1.58-3.03-2.55-4.43a13.85 13.85 0 0 0-3.93-3.81c-3.28-2.13-7.35-3.28-11.12-4.16a60.7 60.7 0 0 0-12.38-1.54c-4.79-.1-9.39.7-14.08 1.57-1.62.3-.92 2.73.68 2.46Zm17.3-10.31c5.76.52 11.8 1.1 17.16 3.46 2.31 1.02 4.3 2.56 6.51 3.74 2.27 1.22 2.77 4.23 5.01 5.45 1.17.64 2.29-.84 1.4-1.82-1.79-1.95-3.34-4.06-4.83-6.25s-4.39-3.56-6.77-4.58c-5.85-2.5-12.21-2.83-18.48-3.19-2.06-.12-2.01 2.99 0 3.17Zm29.58-2.48c-.39-.39-.78-.79-1.22-1.13s-.9-.66-1.38-.94c-.94-.57-1.98-1.13-3.05-1.36-.75-.16-1.49.16-1.8.88-.28.66-.05 1.56.62 1.9.48.25.98.45 1.47.66l-.38-.16c.7.3 1.39.65 2.04 1.05.32.2.62.42.94.61.16.1.32.2.47.3.07.05.14.09.21.14.05.03.09.07.14.1-.17-.14-.2-.16-.08-.06.31.24.59.41 1 .41.35 0 .76-.15 1-.41.51-.56.56-1.45 0-2ZM78.78 124.16a154.7 154.7 0 0 1-46.83 12.52 54.5 54.5 0 0 1 11.87-15.56 329 329 0 0 1-29.42-9.89c6.11-2.48 12.13-5.15 18.07-8.02-7.49-4.72-14.98-9.45-22.47-14.17 5.74-1.25 11.48-2.49 17.23-3.74-5.15-10.97-10.31-21.94-15.46-32.91a60.5 60.5 0 0 1 18.04 6.29c-5.31-13.12-8.48-27.1-9.36-41.22 12.65 9.51 26.3 17.68 40.65 24.33.34-5.84.69-11.68 1.03-17.52 8.01 5.98 15.24 13 21.44 20.84 2.67-3.75 5.33-7.5 8-11.25 3.07 7.28 5.66 14.75 7.75 22.37-8.32-1.4-16.81-2.59-25.16-1.37S57.52 60.01 52.79 67c-2.3 3.4-3.65 7.34-4.83 11.26-.61 2.02-1.18 4.15-.79 6.22.39 2.08 2.03 4.07 4.14 4.14-2.09 1.9-3.56 4.41-4.55 7.05-4.59 12.26 2.47 27.61 14.77 32.09"/><path d="M78.32 122.5c-14.74 6.14-30.49 10.27-46.37 11.93l1.95 3.39c2.94-5.7 6.78-10.78 11.5-15.13 1.25-1.16.58-3.28-.98-3.72-9.96-2.82-19.77-6.15-29.42-9.89v4.29c6.28-2.56 12.49-5.3 18.59-8.25 1.57-.76 1.31-3 0-3.82-7.49-4.72-14.99-9.44-22.48-14.17-.18 1.35-.35 2.69-.53 4.04 5.74-1.25 11.48-2.5 17.23-3.74 1.5-.33 1.89-2.03 1.32-3.24-5.16-10.97-10.31-21.94-15.47-32.9-.83 1.07-1.65 2.15-2.48 3.22 6.12 1.11 12.04 3.11 17.53 6.05 1.5.8 3.93-.57 3.18-2.45-5.19-12.96-8.36-26.7-9.26-40.64-1.09.63-2.19 1.26-3.28 1.88A228.5 228.5 0 0 0 60 43.67c1.52.71 3.16-.14 3.26-1.87l1.02-17.52-3.24 1.86c7.86 5.88 14.91 12.81 21.02 20.49.93 1.17 2.64.56 3.35-.43 2.66-3.75 5.32-7.51 7.98-11.26-1.29-.17-2.57-.34-3.86-.5 3.07 7.28 5.67 14.75 7.79 22.36l2.54-2.54c-11.19-1.85-23.02-3.57-33.95.43-4.59 1.68-8.95 4.21-12.32 7.79-3.7 3.93-5.79 8.86-7.38 13.96-.92 2.95-1.96 6.26-.99 9.34.88 2.78 3.15 4.8 6.08 5.01-.5-1.22-1.01-2.43-1.51-3.65-10.24 9.83-7.77 27.33 1.78 36.7 2.7 2.65 5.91 4.52 9.43 5.83 2.36.88 3.38-2.89 1.04-3.77-9.98-3.72-16.23-16.04-14.14-26.32.71-3.49 2.25-7 4.91-9.43 1.49-1.36.2-3.48-1.51-3.65-1.67-.16-2.13-2.49-2.07-3.8.1-2.29 1.04-4.64 1.77-6.79 1.43-4.22 3.41-8.14 6.67-11.24 6.28-5.98 15.06-8 23.49-8.15 5.93-.1 11.77.72 17.6 1.71 1.51.26 2.99-.91 2.54-2.54a182.5 182.5 0 0 0-7.71-22.38c-.72-1.71-2.74-2.07-3.86-.5-2.67 3.75-5.35 7.49-8.02 11.24 1.12-.14 2.23-.29 3.35-.43-6.34-8-13.7-15.07-21.86-21.19-1.41-1.06-3.16.41-3.24 1.86-.35 5.84-.7 11.68-1.04 17.52 1.09-.62 2.17-1.25 3.26-1.87a227.6 227.6 0 0 1-40.64-24.35c-1.31-.98-3.38.34-3.28 1.88.91 14.34 4.06 28.47 9.45 41.8l3.18-2.45c-5.83-3.1-12.05-5.35-18.55-6.53-1.95-.36-3.31 1.44-2.48 3.22 5.15 10.97 10.3 21.95 15.45 32.92l1.32-3.24c-5.74 1.25-11.49 2.49-17.23 3.74-1.94.42-2.05 3.08-.53 4.04 7.49 4.73 14.98 9.45 22.47 14.18v-3.82a312 312 0 0 1-17.54 7.78c-2.07.84-2.13 3.46 0 4.29 9.65 3.75 19.47 7.03 29.42 9.89-.33-1.24-.65-2.48-.98-3.72-4.98 4.56-9.16 9.99-12.25 16-.7 1.37.13 3.59 1.95 3.39 16.6-1.77 32.6-6.18 47.7-13.29 1.75-.82.48-3.91-1.33-3.16Z"/></svg>