<?xml version="1.0" encoding="UTF-8"?><svg xmlns="http://www.w3.org/2000/svg" viewBox="0 0 180 180"><path d="M42.31 85.86c-2.27.91-4.6 1.83-6.68 3.12-1.34.84-1.29 2.68 0 3.53 2.86 1.87 6.01 3.38 9.06 4.92s6.17 3.06 9.32 4.47c6.35 2.83 12.8 5.46 19.34 7.8 1.62.58 3.24 1.14 4.87 1.68 1.72.57 3.47 1.25 5.29 1.38 3.54.25 7.07-1.88 10.21-3.25 6.19-2.69 12.32-5.49 18.45-8.3 7.2-3.3 14.41-6.56 21.7-9.67l-3.55-2.04c-.16 2.24-.31 4.48-.47 6.72-.07 1.08-.14 2.16-.22 3.24-.05.73-.08 1.49-.57 2.07-.45.52-1.15.85-1.75 1.17-.95.52-1.92 1.03-2.88 1.54a454 454 0 0 1-5.37 2.82c-6.74 3.5-13.57 6.8-20.47 9.99-3.61 1.67-7.23 3.59-10.98 4.92-1.94.69-3.62.73-5.6.17s-3.98-1.28-5.94-1.97c-7.85-2.76-15.51-6.06-22.92-9.84-2.05-1.05-4.08-2.13-6.09-3.25q-1.515-.84-3-1.71c-.84-.49-2.14-.98-2.83-1.69-.55-.58-.53-1.82-.65-2.57-.19-1.19-.38-2.38-.57-3.58-.4-2.46-.78-4.92-1.29-7.36-.48-2.33-4.48-1.86-4.22.57.26 2.44.62 4.86.99 7.29.33 2.15.42 4.54 1.1 6.61.73 2.24 2.64 3.24 4.55 4.36s4 2.29 6.02 3.38c7.95 4.28 16.2 7.99 24.66 11.15 2.09.78 4.18 1.52 6.3 2.23 2.24.75 4.57 1.59 6.97 1.47 2.26-.12 4.31-.92 6.36-1.82s4.08-1.83 6.12-2.75c7.53-3.42 14.99-6.96 22.35-10.74 2.1-1.08 4.2-2.18 6.29-3.29s4.39-2.04 6.06-3.65c1.95-1.88 2-4.48 2.18-7.01.2-2.82.39-5.64.59-8.46.14-1.98-2.06-2.67-3.55-2.04-12.21 5.21-24.19 10.91-36.33 16.28-1.57.69-3.14 1.38-4.71 2.06s-3.29 1.54-5.01 2.03c-1.49.41-2.75.03-4.19-.43-1.54-.5-3.08-1.02-4.61-1.55a265 265 0 0 1-18.62-7.27c-3.45-1.5-6.89-3.03-10.29-4.63s-6.65-3.43-10.05-4.97c.14 1.07.28 2.14.41 3.21 1.58-1.46 3.58-2.33 5.51-3.25 1.7-.81.48-3.8-1.3-3.08Z"/><path d="M43.14 108c1.41 12.71 3.44 25.36 5.31 38.01.42 2.82.53 5.93 1.61 8.59 1.09 2.69 3.39 4.1 5.85 5.39 5.42 2.84 11.06 5.19 16.67 7.63 2.84 1.24 5.67 2.64 8.61 3.64 2.66.9 5.6 1.09 8.39.88 5.59-.43 10.5-2.61 15.22-5.51 2.56-1.57 5.09-3.19 7.6-4.84 2.07-1.36 4.23-2.62 6.26-4.04s3.73-2.98 4.7-5.2 1.3-4.49 1.68-6.76c.97-5.85 1.71-11.76 2.51-17.64.97-7.15 1.84-14.32 2.46-21.52.13-1.51-1.93-2.76-3.19-1.83-8.74 6.55-19.14 10.27-29.23 14.18-2.79 1.08-5.58 2.17-8.37 3.25-1.36.53-2.72 1.11-4.1 1.58-1.49.51-2.51.1-3.95-.43-5.44-2.02-10.89-4.01-16.3-6.09-5.83-2.24-11.57-4.77-16.88-8.08-2.49-1.55-4.77 2.38-2.29 3.93 10.04 6.27 21.7 9.77 32.73 13.86 1.32.49 2.66 1.13 4.05 1.37 1.64.29 3.13-.09 4.65-.67 2.95-1.13 5.89-2.29 8.83-3.44 5.51-2.14 11.05-4.23 16.48-6.56 5.83-2.5 11.45-5.4 16.52-9.24-1.06-.61-2.12-1.22-3.19-1.83-1.26 11.15-2.84 22.25-4.34 33.37-.32 2.35-.64 4.71-1.11 7.04-.36 1.81-.68 3.81-1.96 5.22-1.38 1.52-3.19 2.52-4.91 3.58-2.25 1.39-4.43 2.9-6.67 4.33-4.39 2.8-8.74 5.79-13.87 7.02-2.43.58-4.93.74-7.42.52-2.68-.24-5.12-1.46-7.56-2.52-5.36-2.32-10.77-4.57-16.09-6.98-2.27-1.03-5.03-2-6.94-3.65-1.89-1.64-1.85-4.87-2.2-7.15-2.03-13.29-3.87-26.63-6.38-39.84-.34-1.77-3.38-1.39-3.18.43M76.8 73.11c.66-6.49 4.53-12.59 10.38-15.56.91-.46 1.22-1.58 1.02-2.51-.46-2.17-.37-4.28.37-6.38.45-1.29 1.71-4.04 3.29-4.3 1.9-.31 2.11 3.14 2.12 4.23 0 2.69.02 5.19.75 7.81.62 2.21 1.55 4.44 1.5 6.76-.04 1.85-.88 3.53-1.86 5.06-2.17 3.41-5.01 6.29-6.47 10.12-1.06 2.78-.96 5.8-.8 8.71l.27 4.74c.1 1.67.15 3.21.91 4.73s2.9.94 3.41-.45c.57-1.55.36-3.14.27-4.76s-.18-3.15-.26-4.73c-.14-2.69-.2-5.38 1.05-7.84 2.11-4.13 5.72-7.27 7.37-11.67.92-2.47.87-5.09.29-7.63-.6-2.63-1.78-5.16-1.86-7.89-.08-2.95.36-5.99-1.3-8.63-1.49-2.37-4.27-3.85-7.04-2.84-2.89 1.06-4.79 4.05-5.85 6.79-1.13 2.92-1.33 6.33-.44 9.34l1.02-2.51c-6.71 4.05-11.24 11.46-10.89 19.4.08 1.8 2.57 1.74 2.75 0Z"/><path d="M83.16 54.03c-3.63 2.61-8.05 4.33-12.3 5.62s-8.96 2.22-13.49 3.11c.84 1.1 1.69 2.2 2.53 3.3 3.49-6.13 1.29-13.27-2.43-18.72-4.09-6-9.17-11.37-14.03-16.75l-1.05 4c18.22-3.26 37.84-8.24 50.42-22.89h-3.37c7.23 8.81 12.31 19.13 17.35 29.28l.37-2.88c-3.4 3.21-7.11 6.03-11.14 8.4-2.47 1.46-.27 5.22 2.25 3.85 4.45-2.44 8.56-5.41 12.25-8.89.81-.76.83-1.95.37-2.88-5.23-10.55-10.57-21.09-18.08-30.25-.78-.95-2.59-.91-3.37 0C77.32 22.44 58.59 26.7 41.12 29.98c-1.86.35-2.18 2.77-1.05 4 4.36 4.73 8.86 9.44 12.67 14.63 3.1 4.22 6.13 10.05 3.29 15.19-.98 1.78.63 3.7 2.53 3.3 4.71-1 9.44-2.04 13.99-3.64 2.25-.79 4.46-1.71 6.58-2.79s4.08-2.59 5.99-4.08c1.44-1.12-.47-3.63-1.97-2.55Z"/><path d="M67.16 36.27a12.7 12.7 0 0 0-3.8 4.34c-.59 1.1-.03 2.23 1.08 2.65 2.13.81 3.94 1.52 5.94 2.49.99.48 1.97.99 2.93 1.52 1.23.69 2.61 1.39 3.98.6 1.57-.9.87-3.36-.91-3.38h-.35c.09-.02.18 0 .25.06-.05.04-.61-.34-.68-.37-.43-.24-.87-.48-1.31-.7-.91-.47-1.84-.93-2.78-1.35-1.99-.9-4.02-1.73-6.11-2.35.36.88.72 1.76 1.08 2.65.67-1.5 1.46-2.57 2.59-3.7.55-.55.6-1.46.12-2.06-.45-.56-1.38-.87-2.03-.4M45.7 111.1c12.52 11.38 27.84 18.77 41.6 28.43.25 6.98.5 13.95.74 20.93.1 2.83.2 5.67.83 8.43 3.29-.26 6.29-1.9 9.17-3.51 2.36-1.31 4.71-2.62 7.07-3.93 4.82-2.68 9.73-5.43 13.54-9.42.43-.45.85-.92 1.11-1.49.31-.68.36-1.44.43-2.18.71-7.7 3.21-15.15 4.02-22.84.27-2.59.35-5.19.42-7.8.09-2.93.17-5.86.26-8.8-9.07 5.09-18.3 9.91-27.65 14.46-2.43 1.18-4.88 2.35-7.42 3.29-1.5.55-3.06 1.03-4.66 1.05-1.28 0-2.54-.28-3.78-.61-6.46-1.73-12.56-4.55-18.63-7.36"/><path d="M44.68 112.13c3.05 3 6.21 5.77 9.62 8.35 3.38 2.56 6.92 4.9 10.5 7.17 7.17 4.55 14.54 8.76 21.37 13.82l-1.11-1.94c.04 5.07.28 10.14.48 15.2.2 4.9.12 9.94 1.19 14.76.19.87 1.22 1.73 2.15 1.64 5.25-.54 9.73-3.5 14.25-6.01 4.46-2.48 9.04-4.85 13.11-7.97 1.87-1.44 4.08-3.07 5.3-5.14.7-1.19.8-2.53.93-3.87.13-1.37.32-2.73.56-4.09.92-5.37 2.35-10.64 3.09-16.05.87-6.29.66-12.72.84-19.06.05-1.6-1.77-2.51-3.09-1.77-7.68 4.25-15.47 8.32-23.33 12.21-3.83 1.89-7.66 3.91-11.71 5.3-1.91.65-3.67 1.01-5.67.57s-4.07-1.12-6.06-1.8c-4.53-1.56-8.87-3.57-13.21-5.59-1.08-.5-2.37-.3-3.01.79-.56.95-.3 2.51.79 3.01 4.06 1.87 8.12 3.73 12.29 5.35s8.71 3.47 13.12 2.78c2.2-.35 4.29-1.29 6.31-2.17s4.2-1.96 6.28-2.98q6.24-3.06 12.39-6.3c4.68-2.46 9.3-5.01 13.89-7.62l-3.09-1.77c-.15 5.2-.18 10.45-.7 15.62s-1.77 10.05-2.8 15.04c-.52 2.51-.96 5.04-1.25 7.59-.1.85-.03 1.96-.51 2.71-.61.95-1.7 1.77-2.55 2.5-3.5 3.03-7.64 5.24-11.66 7.48-2.46 1.37-4.92 2.76-7.39 4.11-2.21 1.21-4.55 2.44-7.1 2.67l2.15 1.64c-.56-2.66-.63-5.38-.71-8.09-.09-2.82-.18-5.65-.26-8.47s-.21-5.81-.33-8.72c-.05-1.3.09-2.83-.26-4.08-.36-1.33-2.16-2.09-3.23-2.77-8.5-5.43-17.17-10.6-25.6-16.12-4.75-3.11-9.53-6.33-13.89-9.97-1.41-1.18-3.41.72-2.06 2.06Z"/><path d="M62.55 101.64c1.63-6-1.71-10.79-5.34-15.26-.48 1.16-.96 2.32-1.44 3.47 4.41-.22 8.81-.85 13.12-1.8a79 79 0 0 0 6.37-1.68c1.05-.32 2.09-.67 3.13-1.03.55-.19 1.1-.43 1.66-.58.42-.11.56-.16.62-.12.67.46 1.21 1.68 1.64 2.36.53.84 1.04 1.68 1.52 2.56a34.4 34.4 0 0 1 2.34 5.31c1.33 3.87 1.73 7.68 2.03 11.73.2 2.71 4.04 2.72 4.22 0 .28-4.33-.73-9.01-2.14-13.08-.76-2.18-1.69-4.31-2.8-6.33-1.03-1.88-2.23-3.95-3.74-5.49-1.88-1.9-4.25-1.21-6.46-.42s-4.62 1.53-6.97 2.13c-4.77 1.23-9.62 1.97-14.52 2.38-1.79.15-2.64 2.1-1.44 3.47 2.64 3 6.38 7.19 5.29 11.58-.47 1.89 2.41 2.69 2.92.81Z"/><path d="m68.94 96.17 3.86-.92 1.9-.45c.75-.18 1.43-.42 2.14-.72.57-.24.87-1.11.68-1.68s-.77-1.16-1.43-1.09c-1.41.15-2.74.57-4.11.95l-3.82 1.08c-.74.21-1.27 1.05-1.03 1.81s1.01 1.22 1.81 1.03Zm2.58 5.48 1.78-.21.87-.1c.41-.05.87-.06 1.25-.17.33-.1.6-.29.81-.56.22-.29.3-.58.34-.95 0-.04-.04-.38-.06-.42-.12-.33-.28-.59-.56-.81s-.59-.32-.95-.34c-.4-.01-.85.1-1.25.16l-.87.13-1.77.26c-.34.05-.76.41-.92.7-.16.31-.23.63-.18.98.04.32.18.65.42.88.28.26.69.49 1.08.45Zm19.72-3.89c2.28-5.35 5.93-10.21 10.61-13.72.56-.42 1.24-.76 1.76-1.22.22-.2.32-.09.03-.11.34.02 1.06.47 1.37.61 1.67.75 3.33 1.51 5.01 2.24 3.51 1.53 7.01 3.07 10.53 4.58-.26-.98-.51-1.95-.77-2.93-1.26 1.86-2.58 3.67-3.92 5.47q-.96 1.29-1.95 2.55c-.7.89-1.63 1.71-1.83 2.86s.69 2.26 1.91 1.91 1.95-1.33 2.79-2.23c.79-.85 1.56-1.72 2.3-2.6 1.56-1.86 3.01-3.8 4.41-5.78.62-.88.23-2.49-.77-2.93-3.95-1.77-7.9-3.53-11.87-5.24-1.93-.83-3.9-1.91-5.91-2.53-1.88-.57-3.25.33-4.69 1.42-5.55 4.21-9.66 9.82-12.03 16.37-.63 1.75 2.3 3.02 3.04 1.28Z"/><path d="M102.44 91.42c.51.08 1 .2 1.49.36.24.08.48.17.72.26.18.07-.33-.15-.08-.03.05.03.11.05.16.08l.36.18c.45.24.89.5 1.31.81.05.04.1.07.15.11.16.11-.27-.17-.1-.08.15.08.28.22.42.33-.05-.04-.26-.21-.1-.08.29.23.59.43.89.65.49.36 1.36.21 1.76-.23.17-.19.3-.4.37-.64.1-.31.06-.85-.15-1.12-.21-.29-.43-.6-.69-.86s-.57-.48-.87-.71c-.45-.33-.92-.63-1.42-.88-1.07-.55-2.22-.96-3.41-1.15-.43-.07-.81-.07-1.2.16-.32.19-.63.56-.71.93-.17.75.23 1.77 1.09 1.91Zm-2.18 5.56 1.12.46c.19.08.37.16.56.23.21.08.44.13.67.14.21 0 .43-.05.64-.08.25-.07.47-.2.65-.38s.31-.4.38-.65c.14-.53-.02-1.04-.38-1.44-.14-.16-.3-.3-.49-.41-.16-.1-.42-.19-.62-.25s-.38-.11-.58-.17l-1.15-.34c-.37-.11-.82-.04-1.15.15-.31.18-.6.54-.69.89-.09.38-.07.81.15 1.15l.23.3c.19.18.41.31.66.38ZM65.32 85.84c.75-3.31-.39-7.24-1.58-10.32-1.29-3.37-3.03-6.49-4.95-9.54-1.76-2.79-3.82-5.54-4.69-8.77-.99-3.69.55-7.15 1.06-10.77.13-.93-.15-1.8-1.07-2.18-.83-.35-1.85-.05-2.31.76-1.88 3.31-2.93 7.34-2.47 11.17.45 3.73 2.27 7.02 4.26 10.14s3.94 6.05 5.55 9.29a31 31 0 0 1 1.93 4.86c.53 1.77.64 3.6 1.1 5.38.4 1.53 2.8 1.6 3.16 0Z"/><path d="M44.09 94.32a38.15 38.15 0 0 0-6.98-19.16 98 98 0 0 0 17.45-2.45c.67-.16 1.39-.32 2.04-.07.79.3 1.24 1.13 1.59 1.91 1.41 3.09 2.45 6.35 3.08 9.69-2.64.46-5.18 1.46-7.43 2.9 2.28 3.81 4.35 7.75 6.18 11.8-5.03-1.71-10.07-3.42-15.1-5.13"/><path d="M45.67 94.32c.13-3.52-.72-7.26-1.85-10.58-1.17-3.43-2.75-6.71-4.81-9.69l-1.89 3.3c5.27-.23 10.54-.92 15.71-1.99q.93-.195 1.86-.42c.22-.06.94-.37 1.16-.29.48.18 1.01 2.1 1.21 2.59.96 2.45 1.67 4.98 2.18 7.55l1.48-2.61c-2.82.53-5.51 1.59-7.94 3.12-.97.61-1.37 1.89-.76 2.91 2.28 3.82 4.34 7.75 6.18 11.8l2.4-3.13c-5.03-1.71-10.07-3.42-15.1-5.14-2.6-.89-3.72 3.23-1.13 4.11 5.03 1.71 10.07 3.42 15.1 5.13 1.93.66 3.11-1.58 2.4-3.13-1.84-4.04-3.91-7.98-6.19-11.79l-.76 2.91c2.15-1.35 4.43-2.22 6.92-2.69 1.19-.22 1.69-1.57 1.48-2.61-.57-2.88-1.4-5.7-2.53-8.41s-2.53-5.33-5.99-4.81c-2.87.43-5.69 1.17-8.56 1.61-3.03.46-6.08.73-9.13.91-1.51.09-2.94 1.85-1.89 3.3 1.94 2.7 3.65 5.62 4.84 8.73 1.22 3.18 1.82 6.43 2.51 9.74.37 1.8 3.04 1.3 3.1-.42M99.1 65.9c5.32 1.9 10.8 3.38 16.35 4.42a33.9 33.9 0 0 1-5.52 11.69c-2.48-1.66-5.59-3.38-8.27-2.07-.86.42-1.55 1.11-2.25 1.76-2.5 2.34-5.3 4.37-8.3 6.02-.02-4.57 1.42-9.14 4.06-12.87 1.72-2.42 4.01-4.72 4.25-7.68"/><path d="M98.3 67.29c2.63 1.22 5.4 2.08 8.18 2.88s5.59 1.63 8.42 2.2c-.49-.87-.99-1.73-1.48-2.6-1.1 4.02-2.91 7.77-5.36 11.15l2.97-.78c-3.32-2.18-7.65-4.17-11.32-1.53-1.61 1.16-2.97 2.66-4.54 3.88-1.62 1.25-3.35 2.36-5.14 3.36l3.25 1.87c.02-3.88 1.09-7.64 3.18-10.92 2.04-3.2 4.69-5.67 5.12-9.63.13-1.16-1.08-2.16-2.16-2.16-1.27 0-2.03.99-2.16 2.16-.17 1.56-1.24 2.96-2.14 4.18-1.14 1.54-2.32 3.01-3.23 4.71-1.92 3.59-2.92 7.6-2.94 11.66 0 1.67 1.83 2.66 3.25 1.87 3.09-1.72 5.98-3.81 8.58-6.21 1.07-.99 1.98-1.93 3.54-1.68 1.65.27 3.15 1.28 4.51 2.19 1.05.7 2.31.12 2.97-.78 2.68-3.67 4.6-7.8 5.69-12.22.26-1.03-.33-2.4-1.48-2.6-2.8-.5-5.57-.94-8.33-1.64s-5.42-1.59-8.16-2.28c-1.69-.43-2.94 2.14-1.23 2.93Z"/><path d="M110.05 73.31c-.03-2.63.38-5.19 1.25-7.68.77-2.18 2-4.98 3.82-6.49l-.87.51c.38-.15 2.01.78 2.42.94.93.36 1.86.7 2.79 1.05 1.79.66 3.57 1.33 5.36 1.99 3.65 1.36 7.31 2.68 10.94 4.08-.17-1.26-.33-2.53-.5-3.79-4.1 2.69-7.16 6.56-9.31 10.93-1.19 2.42-2.14 4.95-2.93 7.53-.82 2.67-1.71 5.46-2.04 8.24-.12 1.01.88 1.92 1.8 2.03 1.08.13 1.89-.49 2.27-1.48.88-2.31 1.28-4.83 1.99-7.2.69-2.31 1.48-4.6 2.54-6.77 1.82-3.75 4.33-7.28 7.79-9.7 1.5-1.05 1.24-3.17-.5-3.79-3.74-1.34-7.46-2.75-11.19-4.13-1.86-.69-3.73-1.38-5.59-2.07-.93-.34-1.86-.69-2.8-1.02s-1.85-.79-2.82-.85c-1.95-.11-2.96 1.59-3.85 3.05s-1.61 3.02-2.2 4.62c-1.16 3.18-1.63 6.62-1.42 10 .12 1.94 3.07 1.98 3.05 0"/><path d="M128.38 78.17c5.05 2.28 10.47 4.31 14.57 8.19l1.48-3.58c-3.89.16-7.83 1.26-11.48 2.57-1.88.68-3.74 1.46-5.54 2.33s-3.63 1.76-4.98 3.2c-1.28 1.36-.03 3.8 1.88 3.23 1.78-.54 3.38-1.57 5.04-2.39s3.26-1.5 4.96-2.11c3.5-1.25 7.07-1.9 10.68-2.71 1.88-.42 1.9-2.88.5-3.83-4.86-3.31-9.95-6.78-15.89-7.78-.77-.13-1.55.14-1.86.91-.27.66-.08 1.64.65 1.97Zm-88.32 13.9.05.02-.41-.17c.24.1.47.21.72.27l.37.08.73.16c.4.09.79.16 1.2.21.06 0 .13.01.19.02.36.04.74-.08 1.06-.26.59-.33 1-.96 1-1.65s-.4-1.35-1-1.69c-.3-.17-.49-.2-.78-.24s-.55-.07-.84-.08h-.38c-.25-.02-.5-.03-.75-.04h-.35c-.27-.02-.54.03-.81.08l-.41.17c-.2.11-.36.26-.48.44-.22.29-.39.66-.37 1.04.01.31.09.6.23.87.11.2.26.36.44.48.17.15.36.25.58.31Zm11.93-14.95c-1.77-3.22-3.42-6.56-5.82-9.37-2.21-2.59-5.05-4.74-8.26-5.91v4.34c2.6-.96 5.14-2.1 7.56-3.46s4.8-2.83 6.7-4.83c1.55-1.63-.42-4.29-2.42-3.14-2.18 1.25-4.19 2.76-6.38 4a45.6 45.6 0 0 1-6.65 3.09c-2.12.78-2.14 3.56 0 4.34 5.71 2.08 9.5 7.56 12.62 12.49 1.06 1.67 3.62.19 2.66-1.55ZM117.4 29.3c1.63-1.11 3.29-2.18 4.81-3.43.28-.23.48-.76.46-1.12s-.12-.68-.34-.96c-.48-.62-1.35-.81-2.05-.41-1.59.91-3.05 2.03-4.55 3.09-.36.25-.63.55-.75.98-.11.39-.06.92.17 1.26.45.7 1.49 1.11 2.24.59Zm4.59 9.22c.46-.12.92-.22 1.39-.3.25-.05.5-.1.75-.14.1-.02.22-.02.32-.05-.41.11-.03 0 .08 0 .96-.11 1.93-.09 2.89-.15.75-.05 1.37-.53 1.47-1.3.09-.68-.34-1.52-1.07-1.65-.61-.1-1.2-.17-1.82-.14s-1.22.11-1.83.2c-1.02.15-1.99.42-2.95.8-.36.14-.65.31-.85.65-.18.3-.25.75-.14 1.1.24.74.98 1.2 1.75.99Zm1.79 7.05c.09.16.22.31.34.45.04.05.09.1.14.15.19.16.39.33.63.43.16.07.35.16.53.21.02 0 .04 0 .05.01.14.03.29.05.43.06h.1c.19 0 .39-.04.58-.07s.37-.11.52-.22l.29-.23c.14-.13.24-.29.3-.47.07-.11.1-.24.1-.37.04-.19.03-.39-.03-.58l-.15-.35-.23-.29c-.13-.14-.29-.24-.47-.3-.17-.09-.36-.13-.56-.13h-.05l.39.05c-.12-.02-.28-.05-.41-.06H126l.4.05a2 2 0 0 1-.47-.12l.36.15c-.1-.04-.19-.1-.27-.16l.3.23c-.07-.06-.14-.12-.2-.2l.23.3s-.03-.04-.04-.06c-.09-.17-.22-.31-.38-.41-.14-.13-.31-.22-.5-.26-.2-.06-.39-.07-.59-.03-.2 0-.38.07-.55.18l-.3.23c-.18.18-.31.4-.38.65l-.05.39c0 .27.07.51.2.75Z"/></svg>