<?xml version="1.0" encoding="UTF-8"?><svg xmlns="http://www.w3.org/2000/svg" viewBox="0 0 180 180"><path d="M124.78 86.16c-6.93.84-13.86 1.56-20.75 2.69s-13.39 2.43-20.01 4.05c-11.71 2.86-25.13 6.27-33.24 15.87-4.07 4.82-7.32 11.2-7.27 17.65.02 1.98 3.03 2.47 3.51.48 1.24-5.07 3.33-9.77 6.58-13.9 3.47-4.41 8.17-7.39 13.21-9.71 5.43-2.49 11.24-4.12 17-5.65 6.26-1.66 12.58-3.06 18.94-4.3 7.3-1.42 14.65-2.78 22.02-3.71.94-.12 1.72-.71 1.73-1.73 0-.85-.8-1.85-1.73-1.73Z"/><path d="M45.34 123.56c-9.13-3.04-18.71-5.77-28.43-5.09-2.18.15-3.34 3.17-1.18 4.34 1.53.84 3.03 1.74 4.43 2.79 1.1.83 2.53 1.82 3.28 3 .51.79.58 1.76.26 2.61-.43 1.13-1.45 1.6-2.5 2.15-2.2 1.15-.97 4.18 1.18 4.35 2.37.19 6.08.36 7.25 2.89 1.01 2.19-1.63 3.32-3.25 3.98-1.17.48-2 1.56-1.63 2.88.33 1.19 1.67 2.01 2.88 1.63 1.52-.47 3.4.04 4.12 1.58s0 3.24-1.28 4.24c-.91.71-.84 2.26-.18 3.08.79.99 1.91 1.08 3.02.6 7.95-3.38 14.06-10.13 16.94-18.23l-3.71.98c3.14 3.76 8.48 2.61 12.65 3.96.77.25 1.43.65 1.94 1.3.97 1.24 1.61 2.39 3.11 3.07 2.97 1.35 6.74 1.46 9.95 1.24 5.46-.37 10.7-2.08 15.98-3.39 4.32-1.07 8.66-2.07 12.99-3.07 8.86-2.05 17.8-3.93 26.54-6.47 2.72-.79 5.97-1.77 8.06-3.81.95-.93 1.37-2.19.93-3.49.08.23-.3-1.07-.26-.65.02.26-.02-.23.01-.36.11-.48.41-.81.77-1.15.78-.74 1.76-1.25 2.62-1.9 1.35-1.02 2.48-2.19 3.51-3.53 1.74-2.28 2.96-4.87 3.98-7.54 1.28-3.35 2.42-6.93 2.47-10.55.05-3.42-.98-6.86-2.76-9.76-3.62-5.92-10.33-9.65-17.23-9.88-2.25-.07-2.82 3.54-.54 3.99 5.21 1.02 10.37 3.14 13.41 7.74 1.48 2.23 2.41 4.82 2.45 7.51.04 2.9-.89 5.73-1.84 8.43-.87 2.49-1.96 4.95-3.52 7.09-1.47 2.02-3.46 3.11-5.35 4.66-1.99 1.63-3.6 4.78-2.16 7.28.19.33-.02.06.01.05l.2-1.25c-.13.09-.26.18-.39.26-.65.29-1.25.75-1.9 1.05-1.12.52-2.31.88-3.5 1.23-8.03 2.35-16.25 4.1-24.4 5.99-4.31 1-8.63 1.99-12.93 3.03-4.22 1.02-8.4 2.3-12.65 3.19-3.38.7-6.96 1.16-10.41.67-1.38-.2-2.42-.39-3.2-1.56s-1.67-2.14-2.92-2.81c-2.16-1.17-4.63-1.34-7.02-1.59-2.07-.21-4.09-.41-5.45-2.12-1.15-1.43-3.18-.4-3.71.98-2.64 6.95-8.23 12.47-15.03 15.36l2.84 3.68c2.91-2.27 3.75-6.69 2.01-9.92-1.76-3.26-5.91-4.85-9.41-3.73l1.24 4.51c1.85-.77 3.8-1.59 5.15-3.14 1.54-1.76 2.14-4.2 1.42-6.46-1.61-5.07-7.22-6.1-11.81-6.46l1.18 4.35c1.85-.97 3.43-2.13 4.3-4.1.79-1.77.92-3.82.26-5.66-.76-2.09-2.41-3.53-4.1-4.9-1.85-1.5-3.82-2.85-5.94-3.95-.39 1.45-.78 2.9-1.18 4.34 9.4-.92 18.44 1.67 27.46 3.96 2.3.59 3.21-2.8.98-3.54Z"/><path d="M75.87 112.68c-1.55.38-3.04.96-4.12 2.18-1.21 1.35-1.86 2.99-1.93 4.8-.13 3.56 2.32 6.5 5.51 7.74 2.71 1.05 6.09.69 8.43-1.08 2.15-1.63 3.63-4.28 3.39-7.04-.13-1.47-.59-2.87-1.5-4.05a7.3 7.3 0 0 0-1.66-1.58c-.13-.09-.27-.18-.41-.26a5 5 0 0 0-.5-.21c-.24-.09.04-.01.09.05-.12-.14-.59-.25-.79-.32-.17-.06-.33-.11-.5-.15-.9-.24-1.98.3-2.19 1.24-.23 1 .31 1.85 1.24 2.19.09.03.48.23.06.02.11.06.23.11.34.17.18.1.35.23.52.35.02.01.31.2.3.21-.01.02-.33-.3-.05-.03.19.18.36.35.54.54.27.28-.17-.28-.04-.06.05.08.11.16.16.24.12.18.21.36.31.55.11.2 0 .26-.03-.09 0 .1.09.23.12.32.07.22.11.44.16.66.09.41-.03-.47 0-.05 0 .1.02.19.02.29v.63c-.02.22-.15.37.02-.05-.02.06-.03.17-.04.23-.05.25-.11.5-.19.74-.02.07-.11.22-.1.28l.11-.25c-.03.07-.07.15-.1.22-.09.19-.2.36-.3.54-.21.38.3-.33 0 0l-.25.28c-.18.19-.36.38-.55.56-.03.03-.28.28-.31.27 0 0 .43-.3.09-.07-.24.16-.47.32-.73.45-.08.04-.17.09-.25.13-.44.23.45-.15-.01 0-.27.09-.53.18-.81.25-.14.04-.75.07-.83.17.03-.03.55-.05.15-.03-.14 0-.28.02-.42.03-.24 0-.47 0-.71-.01-.07 0-.37-.07-.42-.04.34.05.39.05.15.01-.09-.02-.18-.03-.28-.05-.23-.05-.46-.11-.68-.18-.03 0-.4-.12-.4-.14s.42.2.13.05c-.25-.13-.5-.25-.74-.4l-.24-.15c-.08-.05-.15-.11-.23-.16.25.19.28.22.1.07-.17-.16-.35-.32-.51-.49-.06-.07-.41-.43-.06-.03-.1-.12-.19-.27-.27-.4-.06-.09-.11-.18-.16-.28-.05-.08-.32-.57-.06-.07-.14-.28-.22-.62-.29-.92-.03-.15-.09-.32-.09-.48v-.56c0-.11 0-.21.02-.32.03-.24.02-.21-.01.08-.05-.23.16-.7.24-.92.04-.12.13-.56.02-.07.03-.14.14-.29.2-.41q.105-.195.24-.39c.06-.08.11-.17.17-.25-.15.19-.16.21-.02.04.21-.23.4-.46.62-.68.11-.11.22-.21.33-.31.25-.25-.2.11.13-.11.13-.08.25-.18.38-.25-.25.13.27-.07.34-.09.83-.23 1.33-1.13 1.11-1.95s-1.12-1.31-1.95-1.11Zm23.6-5.79c-1.55.38-3.04.96-4.12 2.18-1.21 1.35-1.86 2.99-1.93 4.8-.13 3.56 2.32 6.5 5.51 7.74 2.71 1.05 6.09.69 8.43-1.08 2.15-1.63 3.63-4.28 3.39-7.04-.13-1.47-.59-2.87-1.5-4.05a7.3 7.3 0 0 0-1.66-1.58c-.13-.09-.27-.18-.41-.26a5 5 0 0 0-.5-.21c-.24-.09.04-.01.09.05-.12-.14-.59-.25-.79-.32-.17-.06-.33-.11-.5-.15-.9-.24-1.98.3-2.19 1.24-.23 1 .31 1.85 1.24 2.19.09.03.48.23.06.02.11.06.23.11.34.17.18.1.35.23.52.35.02.01.31.2.3.21-.01.02-.33-.3-.05-.03.19.18.36.35.54.54.27.28-.17-.28-.04-.06.05.08.11.16.16.24.12.18.21.36.31.55.11.2 0 .26-.03-.09 0 .1.09.23.12.32.07.22.11.44.16.66.09.41-.03-.47 0-.05 0 .1.02.19.02.29v.63c-.02.22-.15.37.02-.05-.02.06-.03.17-.04.23-.05.25-.11.5-.19.74-.02.07-.11.22-.1.28l.11-.25c-.03.07-.07.15-.1.22-.09.19-.2.36-.3.54-.21.38.3-.33 0 0l-.25.28c-.18.19-.36.38-.55.56-.03.03-.28.28-.31.27 0 0 .43-.3.09-.07-.24.16-.47.32-.73.45-.08.04-.17.09-.25.13-.44.23.45-.15-.01 0-.27.09-.53.18-.81.25-.14.04-.75.07-.83.17.03-.03.55-.05.15-.03-.14 0-.28.02-.42.03-.24 0-.47 0-.71-.01-.07 0-.37-.07-.42-.04.34.05.39.05.15.01-.09-.02-.18-.03-.28-.05-.23-.05-.46-.11-.68-.18-.03 0-.4-.12-.4-.14s.42.2.13.05c-.25-.13-.5-.25-.74-.4l-.24-.15c-.08-.05-.15-.11-.23-.16.25.19.28.22.1.07-.17-.16-.35-.32-.51-.49-.06-.07-.41-.43-.06-.03-.1-.12-.19-.27-.27-.4-.06-.09-.11-.18-.16-.28-.05-.08-.32-.57-.06-.07-.14-.28-.22-.62-.29-.92-.03-.15-.09-.32-.09-.48v-.56c0-.11 0-.21.02-.32.03-.24.02-.21-.01.08-.05-.23.16-.7.24-.92.04-.12.13-.56.02-.07.03-.14.14-.29.2-.41q.105-.195.24-.39c.06-.08.11-.17.17-.25-.15.19-.16.21-.02.04.21-.23.4-.46.62-.68.11-.11.22-.21.33-.31.25-.25-.2.11.13-.11.13-.08.25-.18.38-.25-.25.13.27-.07.34-.09.83-.23 1.33-1.13 1.11-1.95s-1.12-1.31-1.95-1.11Zm23.61-5.79c-1.55.38-3.04.96-4.12 2.18-1.21 1.35-1.86 2.99-1.93 4.8-.13 3.56 2.32 6.5 5.51 7.74 2.71 1.05 6.09.69 8.43-1.08 2.15-1.63 3.63-4.28 3.39-7.04-.13-1.47-.59-2.87-1.5-4.05a7.3 7.3 0 0 0-1.66-1.58c-.13-.09-.27-.18-.41-.26a5 5 0 0 0-.5-.21c-.24-.09.04-.01.09.05-.12-.14-.59-.25-.79-.32-.17-.06-.33-.11-.5-.15-.9-.24-1.98.3-2.19 1.24-.23 1 .31 1.85 1.24 2.19.09.03.48.23.06.02.11.06.23.11.34.17.18.1.35.23.52.35.02.01.31.2.3.21-.01.02-.33-.3-.05-.03.19.18.36.35.54.54.27.28-.17-.28-.04-.06.05.08.11.16.16.24.12.18.21.36.31.55.11.2 0 .26-.03-.09 0 .1.09.23.12.32.07.22.11.44.16.66.09.41-.03-.47 0-.05 0 .1.02.19.02.29v.63c-.02.22-.15.37.02-.05-.02.06-.03.17-.04.23-.05.25-.11.5-.19.74-.02.07-.11.22-.1.28l.11-.25c-.03.07-.07.15-.1.22-.09.19-.2.36-.3.54-.21.38.3-.33 0 0l-.25.28c-.18.19-.36.38-.55.56-.03.03-.28.28-.31.27 0 0 .43-.3.09-.07-.24.16-.47.32-.73.45-.08.04-.17.09-.25.13-.44.23.45-.15-.01 0-.27.09-.53.18-.81.25-.14.04-.75.07-.83.17.03-.03.55-.05.15-.03-.14 0-.28.02-.42.03-.24 0-.47 0-.71-.01-.07 0-.37-.07-.42-.04.34.05.39.05.15.01-.09-.02-.18-.03-.28-.05-.23-.05-.46-.11-.68-.18-.03 0-.4-.12-.4-.14s.42.2.13.05c-.25-.13-.5-.25-.74-.4l-.24-.15c-.08-.05-.15-.11-.23-.16.25.19.28.22.1.07-.17-.16-.35-.32-.51-.49-.06-.07-.41-.43-.06-.03-.1-.12-.19-.27-.27-.4-.06-.09-.11-.18-.16-.28-.05-.08-.32-.57-.06-.07-.14-.28-.22-.62-.29-.92-.03-.15-.09-.32-.09-.48v-.56c0-.11 0-.21.02-.32.03-.24.02-.21-.01.08-.05-.23.16-.7.24-.92.04-.12.13-.56.02-.07.03-.14.14-.29.2-.41q.105-.195.24-.39c.06-.08.11-.17.17-.25-.15.19-.16.21-.02.04.21-.23.4-.46.62-.68.11-.11.22-.21.33-.31.25-.25-.2.11.13-.11.13-.08.25-.18.38-.25-.25.13.27-.07.34-.09.83-.23 1.33-1.13 1.11-1.95s-1.12-1.31-1.95-1.11Zm-47.85-4.84c-.51-2.01-.61-4.11-.17-6.15.16-.75.32-1.92.87-2.5.52-.55 1.51-.72 2.2-.95 4.26-1.39 8.63-2.43 13.03-3.32 4.14-.84 8.5-2.03 12.74-1.9 1.72.05 3.08.59 4.07 2.03.49.71.87 1.51 1.22 2.3.17.38.81 1.42.7 1.79-.7 2.44 2.53 3.49 3.87 1.63 1.22-1.69.06-3.83-.67-5.49-.68-1.55-1.6-3.1-2.87-4.24-3.31-2.96-7.82-2.47-11.89-1.82-4.25.68-8.5 1.57-12.69 2.57-2.14.51-4.27 1.07-6.38 1.7-1.81.55-3.96 1-5.5 2.15-1.86 1.39-2.34 3.8-2.59 5.98-.28 2.4 0 4.84.74 7.14.67 2.1 3.86 1.24 3.31-.91Z"/><path d="M83.05 79.85c-1.25-4.61-2.29-9.28-3.25-13.95-.88-4.34-1.52-8.83-1.4-13.26.11-3.89 1.16-7.46 4.17-10.08 3.15-2.73 7.3-4.71 11.15-6.23 2.07-.82 4.18-1.51 6.33-2.09 2-.54 4.1-1.13 6.17-1.3 1.69-.14 2.54.31 2.96 1.97.34 1.37.95 3.61.13 4.89-.9 1.4-3.48 1.68-4.92 2.13-2.12.67-4.24 1.37-6.33 2.16-3.64 1.38-8.23 2.86-10.79 5.98-1.61 1.96-1.88 4.23-2.06 6.68a72 72 0 0 0-.15 7.78c.2 5.37.93 10.77 2.42 15.94.78 2.71 4.89 1.58 4.22-1.16-1.19-4.86-2.07-9.77-2.32-14.78-.12-2.51-.11-5.03.03-7.55.12-2.13.26-3.88 2.01-5.31 1.61-1.32 3.72-2.11 5.59-2.96 2.29-1.04 4.64-2.01 7.04-2.78 2.11-.68 4.35-1.08 6.37-2.01 2.15-.99 3.28-2.84 3.52-5.16.42-4.04-.7-9.38-5.35-10.3-2.31-.45-4.71.13-6.97.62-2.32.5-4.61 1.14-6.85 1.91-4.5 1.55-8.89 3.59-12.85 6.24C78 39.85 75.18 43.3 74.23 48c-1.07 5.28-.36 10.82.66 16.05 1.11 5.74 3.08 11.16 5.01 16.66.69 1.95 3.69 1.18 3.13-.86Z"/><path d="M81.38 75.56c.39.07.71.07 1.1 0 .17-.04.34-.08.51-.11.33-.06.65-.12.98-.16l-.43.06c.53-.07 1.07-.1 1.6-.14.25-.02.5-.03.76-.05.38-.03.79-.03 1.15-.14.57-.18.98-.63 1.06-1.23.04-.27 0-.52-.1-.77-.11-.27-.33-.59-.61-.71-.37-.16-.54-.22-.94-.27l-.28-.03c-.22-.02-.44-.04-.66-.05-.46 0-.91.03-1.37.09-.55.07-1.1.15-1.64.26-.22.04-.43.09-.65.14-.11.03-.22.05-.32.08-.35.11-.56.27-.84.5-.85.69-.41 2.36.67 2.55Zm-2.79-10.63q.48-.12.96-.21c.05 0 .55-.09.34-.06s.29-.03.34-.03c.63-.06 1.26-.07 1.89-.04.29.01.63 0 .91.08-.4-.11.17.03.25.04.14.02.28.05.41.08.74.15 1.44.44 2.19.52.67.08 1.42-.56 1.57-1.19.16-.72-.11-1.44-.75-1.84s-1.53-.56-2.27-.7-1.54-.24-2.31-.28c-1.47-.06-2.96.11-4.38.49-.82.22-1.4 1.17-1.13 2s1.12 1.36 2 1.13Zm-.57-11.23c.79-.02 1.56.02 2.34.1.19.02.21.02.05 0 .1.01.21.03.31.05.21.03.41.07.62.11q.57.12 1.14.27c.32.09.64.18.95.3l.24.09c-.18-.08-.18-.08-.02 0 .13.07.27.13.4.2s.25.15.38.23c.07.05.14.09.2.14q-.225-.18-.03 0c.35.36.72.72 1.23.84.94.21 1.79-.43 1.83-1.39.04-1.09-1.02-1.91-1.87-2.41-.7-.41-1.48-.7-2.25-.92a18.3 18.3 0 0 0-5.51-.68c-.8.02-1.58.69-1.54 1.54s.68 1.56 1.54 1.54Zm4.21-12.38c.86.02 1.58.17 2.46.52.25.1-.14-.07.11.05.13.06.25.12.38.18a11.7 11.7 0 0 1 1.78 1.11c.59.44 1.4 1.19 2.01 1.8.71.71 1.38 1.47 2.06 2.22.56.63 1.7.61 2.26 0 .61-.66.61-1.61 0-2.26-2.95-3.21-6.4-6.51-11.07-6.48-.78 0-1.44.66-1.44 1.44s.66 1.42 1.44 1.44Zm13.55-6.78c.33.24.58.61.88.94.15.17.31.34.46.51.08.1.16.19.25.29.04.05.22.27.1.11.19.24.38.49.57.72.1.12-.07-.1.08.11.08.1.15.2.22.31.28.39.54.8.79 1.21s.45.8.66 1.2q.18.345.33.69c.04.09.08.19.12.28-.12-.28.01.04.04.1.18.45.34.9.47 1.37.17.56.27 1.18.57 1.69.35.59 1.14.95 1.81.74.72-.23 1.1-.81 1.18-1.54.06-.56-.16-1.24-.33-1.77s-.38-1.1-.61-1.63c-.43-1.01-.91-1.97-1.54-2.87s-1.3-1.8-2.1-2.53c-.44-.4-.91-.79-1.4-1.14-.43-.31-.9-.55-1.33-.86-.53-.39-1.35-.09-1.66.43-.36.62-.09 1.27.43 1.66Z"/><path d="M100.61 29.36c-.63-3.46 1.4-7.44 4.69-8.75 1.72-.68 3.67-.74 5.42-.13 1.94.67 3.44 2.24 4.76 3.75 1.43 1.63 2.66 3.39 3.27 5.49.65 2.23 1.04 4.61 1.19 6.92.27 4.05-.42 8.78-3.82 11.47-1.56 1.24-3.77 1.91-5.73 1.39-2.16-.56-3.55-2.39-4.5-4.3-1.19-2.39-4.73-.29-3.58 2.09 2.45 5.05 7.83 7.9 13.28 5.75 5.53-2.19 8.16-7.9 8.45-13.55.16-3.14-.34-6.35-1.02-9.4-.65-2.94-1.97-5.41-3.86-7.74-1.77-2.18-3.83-4.27-6.45-5.39-2.44-1.04-5.24-1.2-7.78-.43-5.85 1.76-9.03 7.86-7.31 13.65.57 1.93 3.34 1.11 2.98-.82Z"/><path d="M106.13 18.1c2.65-.83 5.31-1.66 7.96-2.48 1.99-.62 3.98-1.24 6.04-1.54.86-.13 1.75-.2 2.59.03.99.27 1.82.93 2.58 1.63 4.16 3.8 6.98 9 8.11 14.52s.6 11.34-1.31 16.65c-.18.5-.38 1.01-.75 1.4-.45.46-1.08.69-1.69.88a44.8 44.8 0 0 1-14.63 2.06c3.89-2.37 8.02-5 9.78-9.2 1.2-2.87 1.11-6.15.31-9.15s-2.26-5.79-3.78-8.5c-.85-1.51-1.72-3.03-2.93-4.27s-2.8-2.2-4.53-2.31"/><path d="M106.55 19.62c2.36-.68 4.72-1.32 7.08-2.01 2.2-.65 4.45-1.42 6.73-1.68 2.11-.24 3.26.95 4.63 2.39s2.51 3.03 3.49 4.74c1.97 3.43 3.13 7.32 3.36 11.26.14 2.24.04 4.51-.36 6.72q-.285 1.575-.72 3.12c-.2.7-.42 2.21-1 2.7-.75.64-2.4.8-3.35 1.03-1.2.3-2.41.55-3.64.74-2.56.41-5.17.5-7.76.39l1.11 4.09c3.08-1.85 6.24-3.82 8.51-6.66 2.68-3.37 3.64-7.44 3.06-11.69-.57-4.2-2.53-8.03-4.59-11.68-2.08-3.7-4.74-7-9.22-7.46-1.16-.12-2.16 1.08-2.16 2.16 0 1.27 1 2.04 2.16 2.16 3.05.32 4.73 3.96 6.01 6.29 1.61 2.94 3.21 6.09 3.56 9.48.32 3.09-.43 6.02-2.54 8.33-1.98 2.18-4.52 3.75-7 5.28-1.84 1.13-1.1 4.08 1.11 4.09 5.22.02 10.83-.57 15.75-2.41 2.76-1.03 3.48-3.54 4.18-6.17.68-2.53 1.06-5.17 1.14-7.78a30.9 30.9 0 0 0-3.14-14.52c-1.05-2.15-2.4-4.14-3.96-5.96-1.45-1.7-3.2-3.56-5.38-4.28-2.7-.88-6.05.32-8.63 1.15-3.11 1-6.18 2.09-9.28 3.13-1.91.64-1.13 3.61.84 3.04ZM60.67 142.55c-1.77-1.24-3.9-1.85-6.04-1.43-2.01.4-3.69 1.69-4.87 3.33-2.52 3.52-1.29 8.22 1.12 11.43s6.42 6.11 10.52 4.76c4.19-1.39 5.76-5.91 4.73-9.94-.58-2.25-1.88-4.23-3.28-6.05-1.55-2.01-3.87-3.61-6.51-3.1-.91.18-1.43 1.27-1.2 2.11.25.92 1.21 1.41 2.11 1.2 1.24-.29 2.02 1.12 2.65 1.96.9 1.18 1.8 2.45 2.33 3.84.78 2.03.85 5.02-1.43 5.99-1.01.43-2.08.29-3.02-.11-1.24-.53-2.18-1.35-3.07-2.35-1.66-1.88-2.89-4.57-1.96-6.86.14-.34.54-.95.89-1.3.37-.37.9-.74 1.31-.91 1.3-.55 2.88-.63 4.15.12 1.74 1.03 3.17-1.55 1.56-2.67Z"/><path d="M57.92 152.07h.15c.22 0 .42-.04.61-.14q.3-.09.51-.33c.16-.14.27-.32.33-.51.1-.19.15-.39.14-.61l-.06-.42c-.08-.27-.21-.5-.41-.7l-.32-.25c-.25-.14-.52-.22-.8-.22h-.15c-.22 0-.42.04-.61.14q-.3.09-.51.33c-.16.14-.27.32-.33.51-.1.19-.15.39-.14.61l.06.42c.08.27.21.5.41.7l.32.25c.25.14.52.22.8.22M18.76 85.89c5.71.75 11.65-.4 16.66-3.23 2.04-1.15 4.24-2.64 6.53-2.11 1.01.23 1.88.84 2.74 1.4 4.21 2.74 9.6 4.76 14.17 2.69 1.65-.74 3.08-1.98 4.82-2.48 3.32-.95 6.71.97 9.63 2.82-2.39 1.44-2.73 4.76-2.29 7.51.12.73.27 1.47.15 2.19-.35 2.12-2.71 3.16-4.74 3.87-5.42 1.9-10.85 4.06-15.33 7.64s-7.96 8.79-8.24 14.52c-.02.37-.03.75-.21 1.06-.5.85-1.78.62-2.71.29a65.8 65.8 0 0 0-21.11-3.74c-1.08-.01-2.22-.02-3.12-.61-.78-.51-1.23-1.39-1.62-2.24-3.44-7.58-4-16.41-1.56-24.37.47-1.51 1.07-3.05 2.2-4.16s2.91-1.7 4.35-1.04"/><path d="M18.32 87.46c3.9.59 7.79.45 11.62-.55 1.9-.5 3.74-1.21 5.5-2.08 1.61-.8 3.23-2.09 5.05-2.34 1.59-.22 2.94 1.11 4.21 1.88 1.64.98 3.39 1.8 5.2 2.39 3.65 1.18 7.54 1.09 10.93-.8 1.77-.99 3.32-2.23 5.47-1.92s4.13 1.59 5.95 2.74V83.2c-2.89 1.89-3.75 5.35-3.41 8.63.15 1.44.72 2.67-.62 3.62s-2.94 1.3-4.4 1.83c-7.12 2.61-14.16 6.02-18.86 12.19-2.19 2.87-3.69 6.22-4.16 9.81-.04.29-.28 1.21-.14 1.45.19.34.7-.6.73-.5-.01-.05-.81-.22-.9-.25-.59-.19-1.18-.41-1.77-.6-2.01-.65-4.04-1.19-6.1-1.64-4.15-.9-8.4-1.43-12.65-1.55-.84-.02-1.79.09-2.61-.1-.73-.17-.95-.72-1.26-1.37-.8-1.63-1.37-3.4-1.83-5.15-1.11-4.2-1.4-8.65-.78-12.95.31-2.13 1.35-10 4.99-8.6 1.09.42 2.37-.46 2.66-1.51.34-1.22-.42-2.24-1.51-2.66-4.52-1.75-7.86 2.58-9.09 6.33-1.36 4.16-1.89 8.69-1.64 13.06.25 4.41 1.28 8.7 3.03 12.76.83 1.93 1.96 3.63 4.09 4.24s4.58.3 6.77.46c4.56.33 9.06 1.19 13.44 2.48 1.88.56 4.07 1.75 6.09 1.28.9-.21 1.73-.76 2.2-1.57.56-.96.45-2.08.58-3.13 1.02-8.17 8.4-13.53 15.35-16.65 2.18-.98 4.44-1.78 6.69-2.59 1.8-.65 3.66-1.44 4.9-2.95.73-.9 1.16-1.93 1.23-3.08s-.25-2.21-.32-3.33c-.08-1.5.02-3.46 1.41-4.37 1.32-.86 1.35-2.72 0-3.58-3.34-2.1-7.37-4.27-11.42-2.97-1.86.6-3.33 1.89-5.11 2.63-1.57.65-3.38.7-5.03.38-1.8-.36-3.5-1.03-5.11-1.89s-3.17-2.2-5-2.7c-4.07-1.11-7.45 2.21-10.93 3.7-4.08 1.75-8.59 2.33-12.99 1.91-1.81-.17-2.26 2.93-.43 3.21Zm91.54-5.22c5.47.31 10.01-5.07 15.48-4.88 3.8.13 7.1 2.95 10.9 3.16 5.32.28 10.74-4.55 15.46-2.08 2.07 1.09 3.68 3.51 6.01 3.32 1.17-.09 2.19-.87 3.34-1.11 1.75-.37 3.58.59 4.72 1.97s1.72 3.13 2.23 4.85c4.67 15.78 1.2 31.59-10.91 43.02-19.25 18.17-49.52 24.14-75.1 24.98-5.61.18-11.89-.09-15.84-4.08 1.1-1.09 2.77-1.3 4.31-1.48 19.69-2.26 38.77-8.08 57.72-13.87 3.18-.97 6.5-2.03 8.84-4.39 1.07-1.08 1.89-2.4 2.93-3.51 2.21-2.35 5.32-3.68 7.6-5.96 3.87-3.88 4.72-9.87 4.35-15.34-.4-5.9-2.21-12.09-6.76-15.88-3.84-3.19-9.06-4.2-14.05-4.29-4.56-.09-9.13.49-13.52 1.71-.88.24-1.95.46-2.58-.19-.96-1.01.1-3.08-1.02-3.9"/><path d="M109.86 83.78c3.25.24 6.11-1.19 8.93-2.6s5.45-2.55 8.55-1.61c3.36 1.02 6.33 3.08 9.99 2.88 3.33-.19 6.3-1.76 9.51-2.5 1.33-.31 2.77-.39 4 .3 1.3.73 2.3 1.87 3.58 2.64 1.46.87 3.15 1.16 4.79.64 1.57-.5 2.74-1.4 4.26-.24 1.33 1.03 1.89 2.81 2.36 4.35.51 1.69.94 3.4 1.27 5.13.64 3.33.87 6.74.7 10.13a37.9 37.9 0 0 1-5.93 18.48c-3.6 5.62-8.73 10.15-14.2 13.89-11.09 7.59-24.01 12.04-37.09 14.72-6.57 1.34-13.23 2.22-19.92 2.75-3.19.25-6.4.44-9.6.5-3.26.07-6.59-.02-9.68-1.15-1.36-.5-2.59-1.28-3.62-2.29v3.19c.71-.63 1.82-.71 2.72-.82 1.63-.2 3.25-.4 4.88-.63 2.92-.41 5.84-.9 8.74-1.44 5.81-1.09 11.56-2.44 17.28-3.92 5.81-1.51 11.57-3.18 17.32-4.9 2.76-.83 5.51-1.67 8.27-2.51 2.59-.79 5.21-1.53 7.65-2.71 2.3-1.12 4.05-2.73 5.62-4.72 1.62-2.07 3.51-3.45 5.65-4.94 2.11-1.47 4-3.09 5.39-5.28 1.28-2.02 2.09-4.37 2.51-6.72 1.63-9.17-.55-20.85-8.77-26.31-4.97-3.3-11.39-3.88-17.19-3.59-3.33.17-6.67.66-9.91 1.49-.16.04-1.7.39-1.7.41.01-.26.6.49.58.5v-.56c-.02-1.35-.18-2.64-1.23-3.6-2.1-1.92-5.25 1.21-3.14 3.14-.22-.2-.05.02-.08.31-.05.51.01 1.12.11 1.62.22 1.17.92 2.13 1.99 2.67 1.19.6 2.52.4 3.76.08 1.37-.35 2.74-.69 4.14-.95 5-.91 10.51-1.15 15.46.17 4.52 1.2 7.93 3.99 9.88 8.26 1.82 4 2.34 8.73 2.05 13.08-.31 4.53-1.98 8.52-5.75 11.19-2.01 1.43-4.19 2.72-5.84 4.58-1.63 1.84-2.84 3.74-5.05 4.95s-4.52 1.78-6.82 2.48c-2.75.84-5.51 1.68-8.27 2.51-5.52 1.65-11.05 3.26-16.62 4.73-6.18 1.63-12.4 3.09-18.68 4.27-3.17.59-6.36 1.12-9.56 1.54-2.98.39-6.15.35-8.52 2.46-.9.8-.83 2.37 0 3.19 5.33 5.2 13.25 4.96 20.16 4.63 7.08-.33 14.13-1.05 21.12-2.21 14.07-2.33 28.13-6.56 40.4-13.98 6.06-3.67 11.95-8.17 16.42-13.71s7.71-12.32 8.89-19.5c1.2-7.32.55-14.85-1.66-21.92-1.17-3.72-3.53-7.66-7.9-7.8-.91-.03-1.78.2-2.61.54-.62.25-1.39.76-2.09.7-1.34-.13-2.68-1.77-3.72-2.49-6.45-4.49-13 3-19.69.85-3.57-1.15-6.68-3.01-10.57-2.37-3.26.53-6.03 2.5-8.98 3.84-1.41.65-2.91 1.14-4.48 1.14-2 0-1.96 2.93 0 3.08ZM75.35 31.34q-.57-.75-1.11-1.53l-.53-.76c-.25-.36-.53-.7-.83-1.02-.26-.28-.75-.48-1.13-.47-.36.02-.68.12-.97.34-.26.2-.5.49-.57.83-.09.41-.07.87.16 1.23s.48.71.76 1.03l.63.72c.41.48.81.96 1.2 1.46.21.27.74.46 1.07.44s.65-.11.92-.33c.25-.19.47-.47.54-.79.08-.37.09-.85-.15-1.17Zm-11.01 9q-.51-.105-.99-.3l.4.17c-.25-.11-.49-.23-.73-.38-.21-.13-.5-.28-.72-.34-.12-.03-.25-.06-.38-.09l-.4-.05-.4.05-.36.15c-.17.09-.32.22-.42.39-.09.09-.16.2-.19.33a.7.7 0 0 0-.1.38c-.04.13-.04.27 0 .4 0 .2.07.39.18.56.15.31.34.6.61.82.2.16.38.3.6.42.11.06.21.11.32.16.54.25 1.09.46 1.68.56.22.07.44.08.67.03.22-.01.43-.08.62-.2.19-.11.35-.25.47-.43q.225-.24.3-.57c.1-.43.08-.91-.17-1.29-.23-.35-.57-.68-1-.77Zm-3.36 13.68h-.58c-.23 0-.44.04-.63.14-.2.07-.38.18-.53.34-.16.15-.27.32-.34.53-.1.2-.15.41-.14.63l.06.44q.12.42.42.72l.33.26c.26.15.53.22.83.22h.58c.23 0 .44-.04.63-.14.2-.07.38-.18.53-.34.16-.15.27-.32.34-.53.1-.2.15-.41.14-.63l-.06-.44q-.12-.42-.42-.72l-.33-.26c-.26-.15-.53-.22-.83-.22m6.86 13.43-.07-.27-.16-.38c-.1-.19-.24-.34-.41-.45-.1-.1-.22-.17-.35-.21-.19-.1-.4-.15-.62-.14l-.43.06-.38.16c-.19.1-.34.24-.45.41-.14.15-.24.34-.29.54l-.07.27a1.68 1.68 0 0 0 .43 1.63l.34.26c.26.15.54.23.84.23.23 0 .44-.04.64-.14.21-.07.39-.18.54-.35a1.68 1.68 0 0 0 .43-1.63Zm18.77-39.51c2.56 0 2.57-3.98 0-3.98s-2.57 3.98 0 3.98"/><path d="M62.6 143.84c21.35-4.84 42.62-10.06 63.87-15.33 5.96-1.48 11.91-2.96 17.88-4.41 2.18-.53 1.25-3.93-.93-3.36-21.18 5.54-42.47 10.66-63.74 15.82-5.96 1.45-11.9 2.98-17.85 4.47-1.82.46-1.05 3.22.77 2.8Z"/><path d="M11.64 95c-2.52 7.17-1.64 15.03-.65 22.57 1.37 10.4 3.03 21.21 9 29.84 6.73 9.73 18.22 15.37 29.88 17.29s23.62.5 35.28-1.47c6.16-1.04 12.32-2.24 18.19-4.36 5.19-1.88 10.09-4.45 14.97-7.02 6.5-3.42 13-6.85 19.49-10.29-14.35 5.69-29.19 11.46-44.63 11.06-5.88-.15-11.7-1.21-17.57-1.54-2.79-.16-6.17.16-7.47 2.64-.61 1.15-.6 2.55-1.19 3.71-1.02 2.02-3.48 2.78-5.7 3.28-2.14.48-4.49.89-6.47-.06-1.71-.82-2.82-2.53-3.63-4.25a22.5 22.5 0 0 1-1.92-12.34c-3.45 5.61-7.94 11.31-14.35 12.8-.56.13-1.21.21-1.66-.16-.65-.54-.38-1.56-.26-2.4.5-3.53-3.78-6.73-7.02-5.25 2.09-2.35 3.67-5.16 4.58-8.17.19-.62.34-1.31.03-1.87-.32-.57-1.01-.81-1.64-1l-7.97-2.4c2.06-2.01 4.3-4.7 3.37-7.42-.36-1.05-1.16-1.89-1.93-2.69l-7.08-7.32c-.77-.8-1.55-1.6-2.46-2.23"/><path d="M10.24 94.61c-2.23 5.9-2.22 12.21-1.61 18.4.58 5.88 1.33 11.8 2.54 17.58s2.99 11.14 5.94 16.08c2.79 4.66 6.55 8.59 10.96 11.75 9.23 6.62 20.73 9.22 31.94 9.44 6.69.13 13.37-.56 19.99-1.53s12.83-1.98 19.06-3.71c7.04-1.96 13.55-5.2 20-8.59 6.64-3.49 13.26-7.03 19.9-10.53 2.22-1.17.67-5.08-1.74-4.13-13.63 5.35-27.76 10.9-42.62 10.88-3.9 0-7.78-.45-11.65-.89-3.37-.38-6.93-1-10.32-.6-3.16.38-6.01 1.83-7.07 5.03-.36 1.1-.33 2.46-1.29 3.23s-2.18 1.03-3.3 1.29c-1.52.36-3.45.89-4.97.26-1.39-.57-2.18-2.11-2.78-3.39-1.62-3.47-2.06-7.37-1.63-11.15.28-2.44-3.25-3-4.37-1.18-1.58 2.57-3.29 5.06-5.41 7.21-1.01 1.02-2.09 1.96-3.3 2.73s-2.51 1.18-3.85 1.74l-.37.1c-.46.17-.21.48.76.94.02-.02.08-.72.08-.72.11-.84.14-1.57-.01-2.41-.25-1.37-1-2.65-1.97-3.65-1.95-2.01-5.12-3.03-7.78-1.94.72 1.25 1.45 2.49 2.17 3.74 1.39-1.59 2.63-3.31 3.57-5.19.87-1.74 1.96-3.91 1.87-5.9-.13-2.56-2.31-3.35-4.38-4.01-2.34-.74-4.67-1.46-7.02-2.17l1.02 3.87c1.65-1.62 3.23-3.46 3.95-5.7.79-2.49-.02-4.85-1.65-6.77-1.62-1.91-3.49-3.66-5.23-5.46-1.8-1.87-3.52-3.86-5.63-5.39-1.03-.74-2.61-.18-3.21.84-.69 1.18-.19 2.46.84 3.21 1.5 1.08 2.73 2.63 4.01 3.95l4.38 4.53c.99 1.02 2.46 2.1 2.05 3.69s-1.73 2.78-2.8 3.84c-1.26 1.25-.63 3.38 1.02 3.87 1.72.52 3.44 1.04 5.16 1.54.78.22 1.57.44 2.35.67-.14-.04.86.27.87.26l-.23-.58c0 .12-.03.25-.07.36-.61 1.23-.9 2.58-1.57 3.81s-1.52 2.47-2.48 3.57c-.66.75-.88 1.81-.35 2.71.46.78 1.62 1.4 2.52 1.03 1.82-.75 4.26.52 4.24 2.63-.02 1.64-.51 3.13.87 4.45 1.45 1.38 3.59.96 5.3.39 6.46-2.16 10.86-7.86 14.31-13.43l-4.37-1.18c-.44 3.66-.06 7.47 1.16 10.95s3.05 6.9 6.67 8.16c3.11 1.08 7.16.15 10.11-1.07 1.52-.63 2.87-1.53 3.82-2.9s.83-3.05 1.62-4.42c1.16-2.02 5.18-1.35 7.04-1.21 4.15.33 8.28.93 12.44 1.25 7.88.59 15.73-.37 23.38-2.29 8.67-2.18 16.99-5.49 25.27-8.8-.58-1.38-1.16-2.75-1.74-4.13-5.62 2.99-11.27 5.93-16.91 8.9-5.49 2.89-10.96 5.94-16.8 8.08-5.73 2.1-11.73 3.3-17.72 4.33-6.27 1.07-12.58 1.98-18.94 2.3-11.05.55-22.26-.82-32.1-6.16-4.34-2.35-8.25-5.42-11.37-9.26-3.35-4.12-5.43-9.1-6.89-14.16-1.73-5.98-2.6-12.18-3.41-18.34-.87-6.58-1.47-13.47.51-19.91.56-1.82-2.15-2.49-2.8-.77Z"/><path d="M69.81 166.05c22.96-2.22 46.09-4.47 68.2-11.06 6.35-1.89 12.76-4.23 17.8-8.54 5.85-5 9.37-12.3 11.15-19.79s1.96-15.26 2.14-22.95c-3.55 5.4-7.27 10.69-11.14 15.86-2.66 3.54-5.39 7.04-8.48 10.22-12.61 12.97-30.12 19.75-47.05 26.14"/><path d="M69.81 167.62c18.78-1.02 37.72-3.15 56.09-7.25 8.6-1.92 17.64-4.03 25.45-8.25 7.33-3.97 12.43-10.36 15.54-18.02 3.9-9.59 4.14-20.18 4.35-30.39.05-2.22-2.87-2.79-4-1.08-3.45 5.27-7.06 10.44-10.83 15.48-3.39 4.52-6.94 8.93-11.12 12.75-7.81 7.14-17.27 12.2-26.9 16.42-5.6 2.45-11.37 4.49-17 6.87-2.14.9-.61 4.49 1.58 3.76 5.31-1.78 10.51-3.91 15.66-6.1 4.97-2.11 9.87-4.42 14.57-7.09 4.8-2.73 9.39-5.86 13.58-9.47 4.39-3.79 8.11-8.19 11.63-12.78 4.38-5.74 8.55-11.66 12.54-17.68l-4-1.08c-.4 15.75-1.36 34.88-16.54 43.9-3.43 2.04-7.17 3.45-10.96 4.65-4.23 1.34-8.52 2.5-12.84 3.54-8.81 2.12-17.74 3.65-26.71 4.92-10.15 1.44-20.36 2.4-30.51 3.82-1.75.24-1.34 3.18.42 3.08"/></svg>