<?xml version="1.0" encoding="UTF-8"?><svg xmlns="http://www.w3.org/2000/svg" viewBox="0 0 180 180"><path d="M122.54 149.4c-5.67-14.76-11.34-29.51-17-44.27-7.08-18.42-14.15-36.85-21.23-55.27-.41-1.06-.96-2.26-2.05-2.57-.67-.19-1.38 0-2.04.2-22.18 6.55-44.15 13.81-65.87 21.76 13.64-23.7 27.91-39.2 40.34-50.9-9.7 8.22-18.22 17.73-26.7 27.2-5.87 6.56-11.81 13.21-15.95 20.99-1.05 1.97-1.99 4.08-1.99 6.3 0 2.26.98 4.39 1.94 6.44 10.86 23.23 21.72 46.45 32.61 69.66l-13.45-28.72c.98 3.8 18.43 39.21 20.5 42.54.57.92 1.23 1.85 2.2 2.31.86.41 1.85.4 2.79.36 11.37-.4 22.53-2.98 33.61-5.54 9.92-2.3 19.85-4.6 29.77-6.89 1.2-.28 2.63-.79 2.83-2.01.09-.54-.11-1.08-.31-1.59m-82.3-44.52c-1.88-6.53-.57-14.04 4.23-18.93 3.86-3.93 9.29-5.82 14.77-6.32h-4.05c7.67-1.26 15.93-.14 22.36 4.22s10.66 12.25 9.57 19.94c-.92 6.51-5.55 12.21-11.46 15.08-12.59 6.1-31.33.19-35.42-13.99m55.57 32.94c-1.99 3.54-6.49 4.64-10.49 5.31 1.05 1.4 2.42 2.56 3.98 3.36-.8 1.85-2.59 3.13-4.51 3.75-1.91.63-3.96.69-5.98.72-.42 0-.86 0-1.2-.24-.33-.24-.48-.65-.59-1.04-.39-1.39-.53-2.84-.42-4.28-3.6.23-7.1 2.13-10.64 1.45-4.01-.77-6.7-4.63-8.07-8.48 4.91-1.1 9.83-2.15 14.76-3.13-.99-1.19-.08-1-.74-2.4-.15-.31-.29-.65-.25-1 .05-.49.44-.86.83-1.16 2.39-1.88 9.57-2.48 12.58-2.09-.79.52 3.06.87 3.19 1.81s-7.55 2.24-7.09 3.07a85 85 0 0 1 15.38-4.44c.38 2.97.72 6.17-.75 8.78Z"/><path d="M124.47 148.87c-8.76-22.81-17.52-45.61-26.28-68.42l-6.6-17.19c-1.07-2.79-2.14-5.57-3.21-8.36-.54-1.39-1.07-2.79-1.61-4.18-.49-1.27-.9-2.61-1.71-3.71-1.9-2.56-4.66-1.66-7.25-.89-2.89.86-5.77 1.73-8.65 2.61a1076 1076 0 0 0-55.34 18.59l2.26 2.94c8.82-15.28 19.33-29.48 31.59-42.18 2.74-2.84 5.56-5.61 8.44-8.32 1.9-1.79-.89-4.47-2.83-2.83-7.63 6.48-14.54 13.74-21.25 21.15-6.52 7.2-13.36 14.34-18.73 22.47-2.49 3.76-5.68 8.47-5.19 13.2.26 2.5 1.32 4.75 2.37 7.01 1.13 2.41 2.26 4.83 3.38 7.24 4.55 9.73 9.1 19.45 13.65 29.18l15.36 32.79c.46.98 1.86 1.23 2.74.72 1-.59 1.18-1.75.72-2.74-3.93-8.39-7.86-16.78-11.79-25.16-.56-1.19-1.11-2.37-1.67-3.56-.98-2.09-4.23-.6-3.66 1.54.43 1.62 1.24 3.19 1.92 4.72 1.19 2.67 2.43 5.32 3.68 7.96 3.03 6.4 6.14 12.77 9.31 19.12 1.27 2.55 2.55 5.1 3.86 7.63.86 1.67 1.68 3.42 2.86 4.9 2.01 2.53 4.79 2.44 7.75 2.27 3.26-.18 6.5-.55 9.73-1 6.44-.91 12.8-2.3 19.14-3.75 7.27-1.67 14.54-3.37 21.81-5.05 3.6-.83 7.2-1.66 10.8-2.5 1.29-.3 2.66-.68 3.64-1.63 1.27-1.25 1.35-2.94.76-4.54-.88-2.39-4.75-1.36-3.86 1.06.03.08.19.94.29.69.06-.16-.04-.06-.1 0-.25.23-.7.29-1.01.38-1.52.41-3.09.72-4.63 1.08-3.04.7-6.08 1.41-9.12 2.11-6.08 1.41-12.15 2.82-18.23 4.22-6.02 1.39-12.06 2.74-18.16 3.72-3.03.48-6.07.86-9.13 1.09-1.43.11-2.87.21-4.3.23-1.29.01-1.95-.3-2.67-1.39-2.26-3.46-3.93-7.4-5.77-11.08-2.99-5.99-5.94-12.01-8.82-18.06-1.38-2.89-2.75-5.79-4.06-8.72-.26-.57-.51-1.15-.76-1.72l-.3-.69c-.14-.33.02.05.04.1l-.15-.36c-.24-.6-.51-1.2-.67-1.82l-3.66 1.54c3.93 8.39 7.86 16.78 11.79 25.16.56 1.19 1.11 2.37 1.67 3.56 1.15-.67 2.3-1.35 3.45-2.02-8.83-18.84-17.66-37.69-26.47-56.54-2.17-4.65-4.4-9.27-6.52-13.94-.94-2.08-1.63-4.2-1.01-6.48.59-2.19 1.83-4.22 2.99-6.15 4.85-8.04 11.41-14.9 17.66-21.85 7.31-8.12 14.79-16.13 23.13-23.22l-2.83-2.83C41.51 28.05 30.89 40.24 21.8 53.6c-3.25 4.77-6.3 9.67-9.19 14.67-.82 1.41.56 3.56 2.26 2.94 10.94-4 21.93-7.83 32.99-11.48 10.95-3.61 21.95-7.33 33.08-10.33 1-.27 1.03.06 1.43 1.03.57 1.38 1.07 2.79 1.61 4.18 1.07 2.79 2.14 5.57 3.21 8.36 2.14 5.57 4.28 11.15 6.42 16.72 4.23 11 8.45 22 12.68 33 4.77 12.43 9.55 24.85 14.32 37.28.39 1.01 1.35 1.7 2.46 1.4.96-.26 1.79-1.45 1.4-2.46Z"/><path d="M42.17 104.34c-1.44-5.18-.83-10.92 2.34-15.36 3.33-4.67 9.22-6.81 14.73-7.35 2.51-.25 2.63-4.01 0-4-1.35 0-2.7 0-4.05.01l.53 3.93c7.43-1.19 15.79-.03 21.83 4.74 5.4 4.25 8.95 11.5 7.37 18.41-1.51 6.57-6.91 11.68-13.27 13.56-5.5 1.63-11.47 1.16-16.79-.89-5.89-2.28-10.87-6.9-12.69-13.04-.73-2.46-4.59-1.41-3.86 1.06 4.01 13.51 19.7 20.08 32.8 17.15 7.69-1.72 14.32-7.19 17.03-14.65 2.87-7.89 0-16.73-5.72-22.57-7.17-7.32-17.99-9.18-27.77-7.62-2.26.36-1.67 3.94.53 3.93 1.35 0 2.7 0 4.05-.01v-4c-6.9.68-13.73 3.28-17.96 9.03-3.92 5.32-4.71 12.48-2.96 18.75.69 2.48 4.55 1.42 3.86-1.06Zm51.91 32.47c-1.86 3.13-6 3.83-9.3 4.39-1.66.28-1.7 2.3-.88 3.34 1.19 1.52 2.68 2.76 4.38 3.68-.24-.91-.48-1.82-.72-2.74-1.06 2.24-3.39 3.1-5.73 3.35-.7.07-1.4.1-2.09.12-.27 0-.68-.06-.93.02h-.32c.34.38.5.46.46.24.07-.06-.32-1.49-.33-1.64-.08-.72-.06-1.44-.02-2.16.07-1.02-.97-2.08-2-2-2.08.17-4.06.72-6.09 1.19-1.66.38-3.41.66-5.05.06-2.87-1.04-4.65-4.09-5.64-6.81-.47.82-.93 1.64-1.4 2.46 4.91-1.1 9.83-2.14 14.76-3.13 1.64-.33 1.72-2.27.88-3.34-.21-.26.04.77.11.06.03-.31-.03-.65-.11-.95-.02-.08-.37-1.11-.42-1.1-.13.48-.12.64.03.45.12-.08.25-.16.37-.24.96-.58 2.17-.82 3.26-1.04 2.51-.51 5.22-.73 7.77-.42l-1.41-3.41c-.9.77-.88 2.23-.07 3.05.51.51 1.21.73 1.88.95.36.12.74.21 1.1.35.18.07-.04.05.11.05.08.04.16.09.24.14l-.19-2.47c-.12-.25.5 0 .06-.09-.02 0-.34.17-.12.07.24-.11-.23.09-.28.1-.17.06-.33.12-.5.17-1.81.6-7.72 1.42-6.63 4.51.33.94 1.4 1.81 2.46 1.4a87.3 87.3 0 0 1 15.38-4.44l-2.53-1.93c.32 2.54.77 5.41-.47 7.77-1.2 2.28 2.25 4.3 3.45 2.02 1.62-3.08 1.45-6.44 1.02-9.79-.17-1.35-1.13-2.2-2.53-1.93a88 88 0 0 0-15.38 4.44c.82.47 1.64.93 2.46 1.4-.24.64-.49 1.28-.73 1.92l.09-.06c-.02-.07.42-.14.14-.09-.18.04.39-.14.53-.19.66-.23 1.32-.42 1.99-.62 1.24-.37 2.61-.68 3.74-1.34 1.45-.84 1.91-2.67.61-3.91-.6-.57-1.41-.85-2.17-1.11q-.435-.15-.87-.27c-.54-.16-.23-.16-.04.08l.51.88v-.06c-.08.51-.14 1.03-.21 1.54l-.21.28c1.47-1.26.12-3.23-1.41-3.41-3.52-.42-7.55 0-10.91 1.1-1.73.57-3.85 1.54-4.38 3.45-.17.63-.14 1.29.06 1.91.09.27.26.52.32.81.1.46-.04-.19 0 .1.15 1.15.34 1.74 1.07 2.69l.88-3.34c-4.93.99-9.85 2.03-14.76 3.13-.99.22-1.76 1.48-1.4 2.46 1.34 3.67 3.6 7.46 7.3 9.14 2.13.96 4.33 1.09 6.62.73 2.26-.36 4.43-1.19 6.72-1.38l-2-2c-.12 1.84-.03 4.21.9 5.86 1.13 2 3.44 1.74 5.4 1.63 3.96-.23 8.28-1.53 10.12-5.4.45-.95.3-2.19-.72-2.74-1.43-.77-2.57-1.77-3.57-3.05l-.88 3.34c4.45-.76 9.23-2.09 11.69-6.23 1.32-2.22-2.14-4.23-3.45-2.02Z"/><path d="M59.22 79.73c-7.11 1.55-8.91 9.69-8.1 15.91.9 6.86 3.58 13.81 8.78 18.56 2.29 2.09 5.41 4.28 8.56 4.71 3.43.47 6.05-2.43 7.14-5.39 2.36-6.4-.18-14.14-3.06-19.92-1.73-3.48-3.78-7.02-6.24-10.04-2.58-3.17-6.14-5.51-10.37-4.75-2.08.37-1.6 3.78.5 3.68 5.97-.27 9.44 5.96 12 10.46 2.83 4.96 5.07 10.55 4.65 16.37-.16 2.14-.93 5.27-3.22 6.12-1.12.41-2.46-.34-3.45-.84-1.13-.57-2.21-1.27-3.19-2.07-4.37-3.61-6.82-8.86-8.03-14.3-1.2-5.37-1.55-13.45 4.78-15.83 1.66-.62 1.03-3.07-.74-2.68Z"/><path d="M43.97 108.57c14.87-4.35 29.66-8.96 44.36-13.85 1.58-.52.9-3.03-.69-2.5-14.69 4.9-29.47 9.57-44.31 14-1.5.45-.86 2.79.65 2.35Zm-2.38-18.03c6.13 3.52 13.53 4 20.31 2.32 3.11-.77 6.28-2.18 8.36-4.7 2.23-2.69 2.95-5.99 3.62-9.32.32-1.61-2.09-2.31-2.49-.69-.68 2.78-1.43 5.87-3.31 8.11-1.84 2.19-4.62 3.27-7.34 3.91-5.89 1.38-12.44 1.01-17.82-1.92-1.5-.82-2.83 1.44-1.34 2.29Zm14.62 31.79c1.61-5.49 5.92-9.67 11.38-11.29 5.37-1.6 11.42-.9 15.59 3.04 1.51 1.42 3.64-.74 2.26-2.26-4.51-5-12.58-5.51-18.65-3.66-6.31 1.93-11.74 6.88-13.04 13.51-.31 1.59 1.99 2.27 2.46.68Zm14.36-76.41c.6-2.85.63-5.77.72-8.66.04-1.36.07-2.72.21-4.07.12-1.19.26-2.96.91-3.99s2.57-.72 3.58-.74c1.78-.04 3.56 0 5.33.07 3.41.13 6.82.37 10.23.64 13.41 1.09 26.69 3.32 39.9 5.78 3.36.62 6.71 1.27 10.06 1.91 2.81.54 5.88.83 8.58 1.8.88.31 1.71.75 1.87 1.74.25 1.52-.18 3.37-.3 4.9-.29 3.48-.57 6.96-.86 10.44-.6 7.29-1.17 14.59-1.74 21.88-.24 2.99-.22 6.14-.85 9.08-.22 1.03-.52 2.08-1.25 2.87-.88.96-2.24 1.04-3.46 1.03-3.76-.03-7.55-.48-11.29-.83-3.88-.36-7.76-.79-11.62-1.28-7.88-1-15.69-2.17-23.52-3.52-2.39-.41-3.47 3.15-1.02 3.71 14.91 3.38 30.14 5.33 45.39 6.28 3.13.2 6.51.12 8.8-2.35 2.09-2.25 2.54-5.41 2.8-8.34.68-7.68 1.29-15.37 1.92-23.05.32-3.9.62-7.79.93-11.69.15-1.91.3-3.81.46-5.72.14-1.8.41-3.67-.24-5.41-1.08-2.86-3.99-4.06-6.78-4.64-3.55-.74-7.13-1.38-10.7-2.06-14.37-2.74-28.82-5.29-43.39-6.67-3.98-.38-7.97-.64-11.97-.77-2.1-.07-4.2-.11-6.3-.02-1.9.08-4.11.02-5.86.87-3.29 1.61-3.13 6.15-3.17 9.26-.05 3.56.35 7.22-.22 10.75-.3 1.86 2.48 2.7 2.88.79ZM18.04 66.64c8.06-3.76 15.94-7.9 23.74-12.17 3.83-2.1 7.64-4.22 11.44-6.37 1.97-1.12 3.93-2.25 5.88-3.4 1.94-1.13 4.01-2.18 5.83-3.49 1.89-1.36.29-4.15-1.83-3.13s-3.94 2.27-5.88 3.4c-1.96 1.14-3.92 2.27-5.88 3.4-3.78 2.19-7.57 4.34-11.38 6.47-7.75 4.33-15.56 8.56-23.29 12.93-1.55.87-.19 3.08 1.37 2.35Zm17.63-16.42c8.37-7.12 17.49-13.18 26.37-19.62 1.75-1.27.18-4.17-1.73-2.97-9.49 5.94-17.99 13.48-26.3 20.92-1.14 1.02.52 2.64 1.67 1.67Z"/><path d="M137.48 43.26c-3.18-.69-6.39-1.3-9.62-1.74-1.59-.22-3.19-.35-4.79-.42-1.57-.07-3.01.22-3.92 1.62-.77 1.19-.96 2.73-1.22 4.09-.3 1.62-.53 3.24-.76 4.87-.46 3.28-.71 6.57-.74 9.88 0 .8.59 1.63 1.38 1.82 6.84 1.56 13.69 2.41 20.71 2.35 1.08 0 1.87-.87 1.92-1.92.13-2.71.35-5.41.68-8.11s.52-5.37.86-8.04c.22-1.68-2.51-1.98-2.92-.39-.7 2.74-1.34 5.42-1.7 8.22-.35 2.76-.6 5.54-.78 8.32l1.92-1.92c-6.59-.06-13.27-.71-19.71-2.13.46.61.92 1.21 1.38 1.82.07-5.47.75-10.84 2.2-16.12.01-.05.17-.48.16-.5-.04-.06-.29.09-.23.2.07.12 1.78.08 2.01.09 1.35.06 2.7.13 4.05.19 2.77.13 5.53.36 8.27.75.82.12 1.62-.2 1.86-1.06.22-.75-.26-1.69-1.06-1.86Z"/><path d="M126.54 51.17c1.62 0 1.62-2.52 0-2.52s-1.62 2.52 0 2.52m8.99 2.64c1.62 0 1.62-2.52 0-2.52s-1.62 2.52 0 2.52"/><path d="M130.76 47.8c0 1.11.01 2.22-.09 3.32-.04.46-.11.91-.2 1.37-.1.48-.16 1.11-.38 1.55l1.72-.7c-1.14-.22-2.32-.26-3.47-.32-1.04-.06-2.28-.32-3.29 0-1.15.36-1.94 1.52-1.94 2.72 0 1.13.56 2.07 1.28 2.9 1.22 1.41 3.15 2.3 4.99 2.49 2.02.21 3.96-.48 5.54-1.71.62-.48.5-1.54 0-2.04-.6-.6-1.43-.49-2.04 0-1.76 1.42-4.37 1.19-5.84-.47-.2-.23-.27-.31-.43-.58-.07-.11-.14-.22-.18-.34.05.13-.03-.32 0-.1.02.15-.05.14.02-.02 0 .07-.03.12-.07.17-.08.14-.22.23-.4.25-.03.05-.14 0 .08 0 .18 0 .36 0 .54.01 1.59.04 3.25.19 4.84.02.6-.07 1.37-.42 1.47-1.12.09-.62.3-1.22.41-1.84q.18-1.005.27-2.04c.1-1.3.05-2.61-.26-3.88-.35-1.43-2.52-1.1-2.53.34ZM83.1 42.06c3.7-.12 7.22-.97 8.48-4.86.5-1.54-1.26-2.53-2.51-1.93-3.19 1.51-7.8 5.97-4.38 9.53 3.11 3.24 7.37.55 9.72-2.07l-3.01-1.25c-.04.84-.1 1.68-.17 2.52-.07.93.85 1.74 1.73 1.73 2.71-.01 5.34-.13 8.06.06 2.75.19 5.64.61 8.38.4 1.52-.12 2.01-2.37.38-2.78-2.73-.69-5.71-.76-8.52-1.04s-5.5-.11-8.3-.1L94.69 44c.07-.84.14-1.68.23-2.52.18-1.58-2.01-2.24-3.01-1.25s-2.87 3.22-4.5 2.14c-1.43-.95 2.57-3.7 3.39-4.14-.86-.49-1.72-.99-2.58-1.48 0 2.16-3.67 2.34-5.11 2.44-1.83.13-1.87 2.93 0 2.88Zm7.81 8.96c2.2.35 4.4.75 6.61 1.03 1.09.14 2.17.27 3.26.39 1.05.12 2.2.38 3.26.32 1.66-.09 2.15-2.57.41-3.01-1.09-.27-2.3-.26-3.42-.36s-2.17-.21-3.26-.33c-2.17-.23-4.34-.37-6.51-.63-1.46-.17-1.81 2.35-.35 2.58Zm29.31 26.86c-.07 2.1 2.24 3 3.93 2.17 1.43-.7 2.59-2.12 3.31-3.51-1.12-.47-2.24-.94-3.36-1.42-.43 1.97-1.55 4.84.47 6.31 1.91 1.38 4.75-.08 6.39-1.29h-1.87c-.19-.14-.25-.34-.11-.04.07.16.18.32.28.46.28.41.6.79 1.02 1.05.86.53 1.93.55 2.9.68s1.88.25 2.83.37c1.02.13 2.13.41 3.16.35 2-.11 2.39-2.83.47-3.47-.83-.28-1.78-.3-2.64-.42l-2.82-.39-1.33-.18c-.14-.02-.41-.11-.55-.09-.27.05.01-.04.09.12-.27-.6-.83-1.22-1.42-1.65-.48-.35-1.39-.35-1.87 0-.46.33-.93.64-1.44.88-.2.09-.39.17-.6.24-.18.06-.36.12-.54.16-.4.03-.36.12.13.27.32.05.48.23.5.53 0-.12 0-.23.01-.35.01-.14.06-.33.1-.55l.39-2.03c.17-.9-.18-1.81-1.06-2.17-.78-.32-1.9-.09-2.29.75-.25.54-.54 1.05-.94 1.49-.19.21-.4.38-.6.58-.08.08-.17.14-.27.19.31-.08.61 0 .88.27l.23.85v-.2c-.17-2.14-3.3-2.18-3.37 0Z"/><path d="m101.1 88.39 36.84 22.44c.45.27.93.56 1.45.56.55 0 1.05-.29 1.51-.6 1.8-1.19 3.46-2.59 5.11-3.99 3.06-2.59 6.12-5.19 9.19-7.78 4.82-4.08 9.67-8.19 13.86-12.92.34-.39.69-.79.83-1.29.33-1.2-.68-2.35-1.71-3.05-1.71-1.17-3.69-1.87-5.6-2.68a49.4 49.4 0 0 1-9.74-5.54c.03 4.88-.03 9.76-.19 14.64-.05 1.71-.28 3.72-1.76 4.59-.53.31-1.15.43-1.76.53-13.54 2.19-27.36-.46-40.7-3.64"/><path d="M100.31 89.73c6.46 4.33 13.07 8.41 19.68 12.51 3.3 2.05 6.61 4.09 9.92 6.11 1.62.99 3.24 1.99 4.86 2.98 1.54.93 3.14 2.23 5.02 2.07 1.68-.15 3.16-1.52 4.44-2.51 1.48-1.15 2.89-2.38 4.32-3.59 2.86-2.44 5.73-4.88 8.59-7.32 2.76-2.35 5.51-4.71 8.13-7.21 1.23-1.17 2.41-2.38 3.58-3.61 1.15-1.21 2.67-2.47 3.01-4.19.83-4.17-4.54-6.22-7.49-7.47-3.7-1.57-7.18-3.53-10.41-5.92-1.41-1.04-3.38.37-3.37 1.94.02 4.07 0 8.14-.11 12.2-.03 1.4.23 3.35-.4 4.67-.51 1.07-2.78.95-3.79 1.06-7.95.87-16.01.19-23.86-1.17-4.5-.78-8.95-1.77-13.39-2.83-2.83-.67-4.04 3.69-1.2 4.37 8.65 2.06 17.44 3.92 26.35 4.39 4.44.24 8.89.11 13.3-.47 1.99-.26 4.16-.39 5.62-1.94 1.29-1.38 1.65-3.29 1.75-5.11.3-5.04.25-10.12.22-15.16-1.12.65-2.25 1.29-3.37 1.94 2.57 1.83 5.28 3.43 8.14 4.75 1.44.66 2.92 1.23 4.38 1.84.67.28 1.32.58 1.96.93.38.21 1.58.75 1.69 1.26.15.68-1.69 2.17-2.21 2.7-1.13 1.16-2.3 2.28-3.49 3.38-2.38 2.2-4.84 4.3-7.32 6.39-2.56 2.16-5.13 4.32-7.69 6.48-1.27 1.07-2.54 2.15-3.82 3.21-.58.48-1.16.96-1.76 1.41-.51.39-1.41 1.32-2.05 1.42l.04.11c-.2-.08-.39-.18-.57-.31-.36-.2-.7-.43-1.06-.65-.7-.43-1.41-.86-2.12-1.29-1.55-.94-3.11-1.89-4.66-2.83-2.97-1.8-5.94-3.59-8.92-5.37-6.74-4.03-13.47-8.07-20.34-11.86-1.77-.97-3.22 1.58-1.57 2.68Zm28.53-68.61c-.22-.76-.42-1.53-.65-2.28l-.34-1.09c-.15-.5-.35-.97-.56-1.44-.13-.32-.6-.63-.92-.71a1.56 1.56 0 0 0-1 .08c-.71.3-1.07 1.06-.89 1.82.36 1.51 1 2.96 1.55 4.41.14.36.32.67.67.87.31.18.77.26 1.12.15.74-.24 1.24-1 1.01-1.79Zm12.94-1.5.64-2.36.32-1.16c.05-.19.11-.39.15-.58.07-.31.08-.65.11-.97l-.05-.41c-.05-.2-.14-.37-.28-.52-.2-.25-.48-.48-.8-.55a1.9 1.9 0 0 0-.82 0c-.33.08-.78.39-.92.71-.21.46-.4.92-.53 1.41l-.32 1.21-.63 2.37c-.21.79.28 1.8 1.13 2s1.76-.26 2-1.13Zm11.82 4.29 1.84-1.63c.3-.26.6-.53.9-.79.31-.29.59-.6.87-.92.24-.28.41-.6.41-.98 0-.34-.15-.75-.41-.98s-.61-.42-.98-.41l-.37.05c-.24.07-.44.19-.61.36-.32.26-.64.51-.93.81s-.57.59-.86.88c-.57.59-1.15 1.17-1.72 1.76-.48.49-.53 1.38 0 1.87s1.31.49 1.87 0Zm9.85 9.73.83-.3.41-.15c.19-.07.42-.14.58-.24a3.3 3.3 0 0 0 .45-.33c.09-.12.19-.24.28-.36.15-.26.22-.54.23-.83 0-.23-.04-.44-.14-.64-.07-.2-.18-.38-.34-.53-.21-.2-.45-.35-.73-.42-.16-.03-.31-.05-.47-.06-.15.01-.31.03-.46.06a.4.4 0 0 0-.11.02c-.08.03-.16.06-.23.1-.08.03-.16.06-.23.1-.03.01-.06.03-.09.04l-.41.18-.81.35c-.19.1-.35.25-.46.42-.15.16-.24.35-.3.56l-.06.44c0 .23.04.44.14.64q.06.21.21.36c.12.18.27.32.46.42l.39.17c.29.08.58.08.88 0Zm1.25 10.44h.21c.26 0 .5-.04.73-.16.23-.08.44-.21.61-.39.18-.17.31-.37.39-.61.12-.23.17-.47.16-.73l-.07-.5c-.09-.32-.25-.6-.49-.83l-.38-.3c-.29-.17-.61-.26-.95-.26h-.21c-.26 0-.5.04-.73.16-.23.08-.44.21-.61.39-.18.17-.31.37-.39.61-.12.23-.17.47-.16.73l.07.5c.09.32.25.6.49.83l.38.3c.29.17.61.26.95.26"/></svg>