<?xml version="1.0" encoding="UTF-8"?><svg xmlns="http://www.w3.org/2000/svg" viewBox="0 0 180 180"><path d="M66.69 25.9c-7.49-2.14-15.76-.29-21.76 4.61-3.3 2.7-6.03 6.54-6.4 10.88-.35 4.14 2 8.19 5.98 9.56 2.4.83 4.03-2.98 1.74-4.13-7.19-3.61-16.44-3.38-22.31 2.62-5.18 5.29-6.4 13.84-1.2 19.56 2.69 2.96 6.23 4.93 10.31 4.85v-3.88c-10.34.51-18.7 9.77-19.4 19.89-.68 9.86 6.95 18.1 16.17 20.42 4.55 1.14 9.58.88 13.79-1.29 2.27-1.17 4.65-3.65 4.23-6.41-.44-2.89-3.72-4.11-6.2-4.77-5.8-1.53-12.06 0-16.68 3.75-4.34 3.53-7.08 8.87-7.71 14.4-2 17.52 20.69 17.86 32.58 16.65l-1.26-4.64c-3.43 1.76-4.89 5.69-4.43 9.37.51 4.12 2.93 7.53 6.75 9.22 4.41 1.96 9.35 1.68 13.97.68 4.86-1.05 9.69-2.72 13.64-5.82s6.93-8.04 7.22-13.24c.07-1.18-1.05-2.18-2.18-2.18-1.28 0-2.06 1-2.18 2.18-.37 3.64 1.51 7.32 4.26 9.65 3.23 2.73 7.35 3.83 11.54 3.72s8.53-1.22 12.43-2.83c3.8-1.58 7.26-3.83 9.7-7.2 2.6-3.58 3.7-8.38 2.28-12.64-1.28.74-2.56 1.49-3.84 2.23 2.81 3.14 7.09 4.57 11.23 4.46 4.7-.13 9.05-2.16 12.87-4.77s7.9-5.4 10.15-9.33c2.14-3.73 1.71-8.13-1.17-11.31s-7.38-4.65-11.42-5.57l-.63 4.63c8.7-.83 17.89-3.95 22.8-11.67 2.26-3.55 2.94-7.76 3.62-11.84.39-2.38.62-4.88-.29-7.17-.96-2.4-2.93-4.09-5.3-5.03-5-1.96-10.41.2-15.52-.87v4.58c9.55-3.98 18.73-10.98 19.52-22.12.76-10.65-8.68-18.21-18.68-18.6-6.4-.25-12.63 2.13-18.05 5.37l2.41 4.13c7.8-4.71 7.83-16.28 2.06-22.6-7.23-7.92-19.73-6.8-28.39-2.22-5.57 2.95-10.31 7.24-14.9 11.5l3.33 3.33c3.89-4.76 1.71-11.78-3.52-14.56-5.28-2.8-11.81-1.75-17.01.68-4.89 2.29-9.07 6.28-11.73 10.98-2.35 4.16-5.85 12.89.72 14.94 5.78 1.8 12.17-3.74 11.48-9.66-.24-2.04-3.48-2.07-3.23 0 .4 3.43-2.96 6.86-6.46 6.26-.83-.14-1.66-.43-1.68-1.35-.03-1.02.33-2.12.61-3.09.53-1.88 1.33-3.64 2.35-5.3 2.07-3.36 5.02-6.13 8.48-8.02s7.63-3.02 11.46-2.29c2.03.38 4.04 1.29 5.11 3.15.81 1.41 1.21 3.55.08 4.92-1.9 2.31 1.06 5.42 3.33 3.33 6.49-5.97 13.92-12.77 23.15-13.56 3.98-.34 8.04.3 11.39 2.57 2.73 1.85 4.42 4.92 4.69 8.09.3 3.43-.73 6.94-3.75 8.77-2.63 1.59-.24 5.71 2.41 4.13 7.29-4.36 16.7-7.03 24.3-1.86 3.08 2.1 5.13 5.45 5.28 9.21.17 4.08-1.46 8.14-4.11 11.2-3.19 3.68-7.47 6.23-11.93 8.09-.99.41-1.74 1.15-1.74 2.29 0 1 .73 2.08 1.74 2.29 4.25.9 8.47-.07 12.74.23 1.58.11 3.26.57 4.33 1.81 1.14 1.31 1.01 3.2.79 4.81-.28 2.02-.73 4.06-1.15 6.05-.33 1.53-.78 2.8-1.48 4.08-1.48 2.71-3.74 4.85-6.45 6.46-3.88 2.3-8.37 3.41-12.83 3.84-1.17.11-2.17.81-2.32 2.04-.13 1.11.53 2.32 1.69 2.59 4.14.94 13.06 3.73 9.96 9.64-1.6 3.05-4.84 5.25-7.57 7.22-3.04 2.19-6.43 4.27-10.21 4.81-3.4.49-7.01-.33-9.35-2.94-1.51-1.69-4.56.08-3.84 2.23 1.2 3.59-.13 7.46-2.69 10.13-2.82 2.93-6.7 4.51-10.55 5.57-4.04 1.11-8.75 1.89-12.73.13-3.08-1.37-5.51-4.28-5.45-7.74h-4.36c.22 8.15-7.92 12.55-14.79 14.29-3.43.87-7.23 1.49-10.75.77-1.62-.33-3.24-.92-4.52-2-.89-.76-1.5-1.77-1.85-2.75-.25-.71-.39-1.33-.42-1.88-.04-.76-.02-1.35.11-1.83.36-1.3.78-1.93 1.95-2.53 2.12-1.08 1.21-4.89-1.26-4.64-5.73.57-11.47 1.51-17.24.77-4.62-.59-10.16-2.39-11.66-7.34-1.37-4.52.34-9.73 2.93-13.49 2.69-3.88 6.98-6.58 11.72-7 2.46-.22 4.99.1 7.26 1.11.7.31 1.91.72 1.69 1.67-.23.98-1.31 1.78-2.14 2.24-3.21 1.79-7.16 2.18-10.72 1.46-7.21-1.45-13.75-7.2-14.02-14.91-.3-8.63 6.65-17.37 15.39-18.3 1.04-.11 1.94-.81 1.94-1.94 0-.99-.89-2.02-1.94-1.94-3.41.27-6.58-1.59-8.22-4.57-1.59-2.89-1.44-6.32-.02-9.25 3.49-7.18 12.37-8.73 19.16-5.43l1.74-4.13c-2.73-.9-3.18-4.29-2.46-6.68.88-2.93 3.16-5.55 5.56-7.37 4.82-3.65 11.15-4.99 16.99-3.41 2.09.57 2.97-2.65.89-3.24Zm55.37 113.53c-6.42-.39-12.6 3.56-14.89 9.58-.59 1.55-.85 3.35-.3 4.95.6 1.75 2.03 2.94 3.67 3.67 2.82 1.26 6 1.44 8.97.64 3.36-.91 6.29-3.04 8.12-6 .55-.88.27-2.1-.54-2.71-.91-.68-1.91-.5-2.76.16-2.63 2.04-3.08 5.9-1.72 8.8 1.48 3.16 5.08 4.86 8.47 4.81 6.86-.11 14.77-7.46 13.57-14.65-.67-4.01-4.39-6.9-8.41-6.24l1.69 4.01c3.55-1.76 6.74-4.83 6.99-9 .24-4.18-2.62-7.46-6.73-7.92-7.56-.84-15.24 4.54-18.06 11.34-.9 2.17 2.67 3.61 3.77 1.59 2.44-4.48 6.77-8.03 12-8.48 1.19-.1 2.73-.19 3.68.69.7.66.92 1.68.87 2.62-.16 2.61-2.61 4.3-4.73 5.38-2.36 1.2-.61 4.41 1.69 4.01 2.41-.42 3.35 2.96 2.91 4.68-.71 2.77-3.07 5.13-5.49 6.52-2.2 1.27-5.15 1.73-7.29.07-1.68-1.31-1.87-3.85-.23-5.25l-3.3-2.55c-1.38 2.28-3.66 3.74-6.23 4.32-1.16.26-2.41.3-3.58.1s-2.91-.64-3.47-1.74c-.61-1.19.18-2.91.75-3.96.67-1.25 1.55-2.32 2.61-3.25 2.2-1.94 5.05-3.02 7.99-2.93 2.1.06 2.07-3.12 0-3.25Zm29.8 12.7c-2.93 1.13-6.04 2.62-7.29 5.7-1.18 2.9-.29 6.39 2.65 7.83 1.52.74 3.2 1.02 4.86 1.22 1.75.21 3.48.02 5.08-.72 2.53-1.17 4.45-3.72 5.08-6.42.44-1.88.37-3.92-.52-5.67-.79-1.57-2.68-3.21-4.56-2.98-.89.11-1.66.6-1.77 1.56s.42 1.67 1.29 1.98c.57.2.65.16 1.07.46.26.18-.15-.15.08.07l.21.21c.28.29.11.15.07.08.09.14.19.29.26.44.15.32.27.87.27 1.19s0 .63-.02.95c0 0-.05.38-.02.17s-.06.27-.07.31q-.09.375-.21.75c-.03.09-.06.18-.1.27-.11.31.11-.22-.03.07-.22.47-.48.92-.78 1.34-.19.26.16-.19-.05.06-.06.07-.12.15-.19.22-.17.19-.35.37-.54.55-.09.09-.19.17-.29.25.03-.03.2-.15.02-.02a6 6 0 0 1-1.07.63c-.06.03-.35.13-.05.02-.21.07-.42.14-.64.2-.54.14-1.07.15-1.64.12-1.1-.05-2.24-.25-3.3-.58-.57-.18-.57-.16-1.08-.52-.19-.13-.02-.02 0 0-.1-.09-.2-.18-.29-.28.06.06.16.29-.03-.05-.08-.13-.16-.27-.22-.41-.1-.21.01.01.02.04-.03-.12-.06-.24-.1-.36-.11-.33-.04-.15-.02-.03-.01-.12-.02-.25-.02-.38s.03-.62.01-.51c-.03.22.04-.17.05-.22.04-.16.08-.32.13-.47.04-.12.08-.25.13-.37-.08.19 0 0 .05-.07.14-.26.27-.52.45-.76.22-.3.71-.8 1.1-1.13.91-.76 2.12-1.33 3.22-1.84 1.62-.77.47-3.58-1.23-2.93Z"/><path d="M44.31 69.8c.24 3.58.97 7.15 1.36 10.72.19 1.76.37 3.53.52 5.29s.09 3.83.52 5.62c.25 1.04 1.42 1.65 2.43 1.38 1.14-.31 1.52-1.37 1.38-2.43q-.03-.33-.12-.63c-.37-1.51-2.36-1.59-3.14-.41a3.3 3.3 0 0 0-.34.57l3.67 1c.16-1.71-.24-3.6-.42-5.3-.2-1.87-.43-3.74-.69-5.6-.49-3.53-.88-7.23-1.9-10.65-.52-1.73-3.4-1.49-3.27.44"/><path d="M44.28 69.31c2.37 4.06 6.35 7.35 10.12 10.05 1.01.73 2.5-.04 2.8-1.14 1.39-5.15 2.76-10.3 4.13-15.45h-3.84c2.12 7.19 3.98 14.49 6.37 21.59.4 1.19 1.86 2.01 3.03 1.23 1.36-.9 1.72-2.35 1.01-3.8-1-2.05-3.93-.55-3.51 1.48l.05.25v-1.04l.37-.45 3.03 1.23c-1.9-7.25-4.35-14.38-6.52-21.56-.56-1.84-3.33-1.95-3.84 0-1.33 5.16-2.66 10.32-3.97 15.49l2.8-1.14c-1.77-1.22-3.45-2.55-5.03-4s-3.05-3.11-4.65-4.58c-1.23-1.14-3.26.31-2.37 1.83Zm29.25-9.72c-4.53-.13-5.51 5.71-5.65 9.15-.08 1.92.36 3.83 1.59 5.34 1.34 1.65 3.44 2.4 5.5 2.63 8.1.89 15.44-8.69 11.08-16.03-2.2-3.69-7.67-5.58-11.27-2.74-1.52 1.2.13 3.85 1.89 3.24.57-.2 1.13-.44 1.73-.54.35-.06-.25 0 .1 0 .14 0 .29-.01.43-.01s.29 0 .43.02q.21.015 0 0l.32.06c1.08.24 1.84.66 2.52 1.48 1.41 1.7 1.44 4.31.45 6.21-1.12 2.14-3.32 3.98-5.91 4.35-1.24.18-2.64-.04-3.64-.68-.42-.27-.63-.53-.85-.92-.11-.19-.11-.19-.21-.51-.04-.14-.08-.28-.11-.42 0 0-.09-.61-.06-.34-.16-1.46.03-2.75.26-4.07.21-1.22.43-2.8 1.84-3.03.78-.13 1.27-1.06 1.16-1.77-.12-.8-.77-1.38-1.59-1.4Zm11.38-6.41c-.07 1.46 1.65 2.74 2.56 3.73.98 1.06 1.96 2.13 2.95 3.19q3 3.255 5.88 6.63c.9 1.05 2.95.53 3.2-.84a80.7 80.7 0 0 0 1.28-17.02c-.03-.93.02-1.84-.49-2.65-.66-1.05-2.44-1.24-3.05 0-.69 1.41-.31 3.23-.3 4.77s-.03 3.18-.12 4.76c-.17 3.06-.52 6.1-1.02 9.13l3.2-.84q-2.925-3.33-5.97-6.54c-1-1.05-2.01-2.08-3.05-3.09-.96-.94-2.24-2.67-3.7-2.59-.77.04-1.34.6-1.38 1.38Zm27.69-12.26c-1.75-.25-3.56.33-5.21.89s-3.92 1.22-4.51 2.98c-.3.89-.16 1.87-.1 2.79s.14 1.87.22 2.81q.24 2.805.54 5.61c.18 1.65.1 3.7 1.02 5.14.55.86 1.55 1.43 2.58 1.4s1.97-.59 2.87-1.03c3.39-1.65 6.81-3.24 10.18-4.94.9-.45 1.22-1.68.84-2.56-.44-1-1.38-1.35-2.42-1.19-.23.04-.46.07-.69.11-.96.15-1.55 1.29-1.42 2.17.15.99.94 1.66 1.94 1.71l.7.03-1.03-3.82c-2.67 1.25-5.3 2.58-7.94 3.87-.69.34-1.38.67-2.06 1.01-.26.13-.94.31-1.11.54-.27.37 1.08.13.98.49.02-.08-.09-.4-.11-.51-.06-.35-.08-.7-.13-1.05-.09-.76-.17-1.52-.26-2.28-.32-2.92-.58-5.85-.82-8.77-.02-.16-.03-.31-.04-.47-.44.55-.51.72-.22.53.3-.05.69-.36.97-.49.52-.25 1.05-.49 1.59-.7 1.3-.51 2.78-.74 3.99-1.44 1.06-.61 1.01-2.66-.37-2.86Z"/><path d="M106.6 54.39c.62-.29 1.25-.57 1.88-.84q.27-.12 0 0c.09-.04.18-.08.27-.11.14-.06.27-.11.41-.17.34-.14.68-.27 1.02-.4.64-.25 1.28-.48 1.92-.7.74-.26 1.62-.43 2.25-.89.58-.42 1.01-1.14.77-1.89-.23-.7-.85-1.24-1.61-1.23-.85.01-1.62.37-2.4.67s-1.5.6-2.24.92c-1.32.57-2.63 1.18-3.91 1.84-.76.39-1.04 1.51-.58 2.22.51.8 1.4.97 2.22.58m-41.27 57.98c-3.52-4.99-7.45-9.77-10.76-14.9l-1.74 3.03c2.39.32 4.81.51 7.21.76 1.12.12 2.24.23 3.37.35 1.01.1 2.23.44 3.23.15 2.23-.64 1.9-3.89 2.09-5.71l.75-7.15-3.69 1.53c2.24 2.32 4.42 4.7 6.51 7.17s3.93 5.13 6.07 7.53c1.6 1.81 4.57-.53 3.33-2.57-1.72-2.81-4.01-5.39-6.14-7.89s-4.38-4.95-6.7-7.3c-1.41-1.43-3.53-.26-3.69 1.53s-.32 3.5-.48 5.24l-.22 2.38-.13 1.43c-.02.24-.34 1.32.03.7l1.25-.96q.555-.03-.27-.06l-.96-.09c-.48-.05-.96-.09-1.44-.14-1.12-.11-2.24-.21-3.37-.32-2.24-.21-4.49-.48-6.73-.62-1.86-.12-2.5 2.23-1.43 3.44 4.04 4.57 7.58 9.64 11.43 14.38 1.13 1.39 3.53-.45 2.49-1.92Zm20.14-34.45c-3.58.51-6.7 3.34-7.48 6.88-.87 3.91.89 8 4.26 10.13 6.32 4 17.9.66 17.11-8.08-.2-2.26-1.16-4.27-2.63-5.98-1.42-1.66-3.62-3.18-5.74-3.75s-3.18 2.26-1.44 3.43c1.21.81 2.55 1.34 3.63 2.36.89.85 1.6 1.88 1.94 3.06.68 2.35-.28 4.69-2.69 5.69-2.27.94-4.87 1.1-7.12.18-2.03-.83-3.41-2.92-3.36-5.2.05-2.45 1.85-4.76 4.45-5.42.9-.23 1.44-1.23 1.19-2.1-.27-.98-1.19-1.33-2.1-1.19Zm13.68-3.57c1.44 4.51 2.98 8.98 4.5 13.47.31.91 1.15 1.54 2.13 1.39.86-.13 1.8-.94 1.68-1.91-.4-3.51-1.24-6.91-2.57-10.19-.35-.86-.72-1.71-1.12-2.55-.15-.31-.31-.61-.4-.95-.11-.42-.13-.23-.04-.52.18-.59 1.25-1.17 2.18-1.41 1.1-.28 2.53-.35 3.38.36.33.28.58.74.57.89-.01.6-.26 1.08-.58 1.58-1.4 2.18-4.24 3.28-6.56 4.26-.74.31-1.1 1.35-.99 2.06.13.88.68 1.39 1.48 1.72 2.84 1.17 5.66 2.4 8.56 3.42.73.26 1.47.5 2.21.73.82.25 1.76.63 2.61.39 2.09-.57 2.39-3.72.1-4.28s-3.43 2.41-1.52 3.61l.1.06c-.33-.57-.66-1.15-.99-1.72v.14c.1-.34.19-.68.29-1.02l-.08.12 1.76-1.01c.26-.03-.21-.04-.36-.08-.27-.07-.53-.15-.8-.23-.53-.16-1.06-.33-1.59-.5-1.05-.35-2.09-.74-3.13-1.14-2.03-.79-4.05-1.64-6.07-2.47l.49 3.78c2.6-1.11 5.33-2.38 7.17-4.61 1.06-1.28 1.94-2.82 1.99-4.53.05-1.61-.74-3.21-1.97-4.24-2.56-2.14-6.45-1.97-9.27-.4-1.33.74-2.51 1.94-2.92 3.43-.5 1.82.32 3.42 1.07 5.02 1.59 3.4 2.57 7.08 3.16 10.78l3.75-1.03c-1.67-4.44-3.32-8.9-5.07-13.31-.33-.83-1.1-1.41-2.03-1.15-.83.23-1.42 1.18-1.15 2.03Zm15.22-7.98c.5 5.21 1.88 10.2 4.13 14.93.34.71 1.48 1.21 2.23.91 1.86-.76 3.73-1.51 5.59-2.28l2.79-1.17c1.11-.46 2.4-.95 2.65-2.29s-.85-2.76-2.34-2.34c-.82.24-1.6.76-2.4 1.1-.89.37-1.77.74-2.66 1.12-1.72.74-3.44 1.49-5.16 2.24l2.7.71c-2.13-4.19-3.51-8.74-4.15-13.4-.11-.84-1.14-1.35-1.89-1.24s-1.58.83-1.5 1.7Z"/><path d="M118.05 74.21c1.01-.24 2-.54 3-.84 1.09-.34 2.24-.68 3.26-1.19.8-.4 1.06-1.47.74-2.24-.35-.83-1.24-1.26-2.12-1.04-.52.13-1 .34-1.49.54-.58.23-1.17.46-1.74.71-.95.41-1.89.82-2.81 1.29-.67.34-.9 1.24-.62 1.9.3.71 1.05 1.06 1.8.88Zm-.99-7.37 3.52-1.06c.58-.17 1.15-.35 1.73-.53.81-.26 1.62-.45 2.26-1.05.51-.47.62-1.28.36-1.89-.28-.67-.88-1.01-1.59-1.07-.74-.06-1.45.31-2.13.57-.54.21-1.09.42-1.63.63l-3.38 1.34c-.4.16-.72.35-.95.73-.2.34-.28.84-.16 1.22.26.8 1.1 1.36 1.95 1.11Zm-88.84 64.23c-2.04 1.57-1.93 4.91-.32 6.92s4.23 2.92 6.77 3.33c4.05.66 8.26.32 12.15-.99-1.34 1.99-2.64 4.06-3.24 6.38s-.39 4.97 1.09 6.85c.95 1.21 2.33 2 3.75 2.58 4.75 1.93 10.35 1.61 14.85-.84s7.8-6.98 8.76-12.02c-.69 3.78 1.94 7.71 5.54 9.08s7.8.45 10.93-1.78c3.14-2.23 5.3-5.61 6.71-9.19-4.82 1.02-10.11-2.64-10.85-7.51-6.87 9.98-20.51 14.71-32.09 11.13-1.94-.6-3.85-1.43-5.39-2.75-2.83-2.45-4.09-6.58-3.08-10.19-4.82.23-9.65-.01-14.42-.72"/><path d="M26.97 129.83c-1.9 1.49-2.45 4.04-2 6.33.51 2.58 2.47 4.6 4.79 5.71 5.36 2.56 12.06 2.15 17.58.41l-2.27-2.96c-2.11 3.08-4.12 6.54-3.86 10.42.27 3.98 2.7 6.75 6.3 8.25 7 2.91 15.31 1.32 20.78-3.91 2.86-2.74 4.87-6.37 5.65-10.26l-3.86-1.06c-1.1 7.11 5.11 12.92 12.12 12.27 7.46-.68 12.36-6.53 15-13.07.65-1.61-1.19-2.83-2.57-2.57-3.88.73-7.62-2.31-8.27-6.05-.34-1.95-2.91-1.83-3.84-.5-3.54 5.06-8.98 8.62-14.9 10.25-5.76 1.59-12.96 1.61-18.21-1.59-3-1.83-4.45-5.44-3.58-8.84.33-1.29-.64-2.77-2.06-2.71-4.62.2-9.27.02-13.85-.65-1.14-.17-2.3.28-2.63 1.5-.28 1.01.34 2.47 1.5 2.63 4.98.72 9.97 1.02 14.99.79-.69-.9-1.37-1.8-2.06-2.71-1.01 3.94-.03 8.15 2.62 11.24 2.64 3.07 6.92 4.5 10.8 5.14 7.48 1.24 15.29-.31 21.77-4.25 3.67-2.23 6.79-5.18 9.24-8.7l-3.84-.5c1.07 6.12 7.47 10.1 13.43 8.96l-2.57-2.57c-1.85 4.59-5.24 8.96-10.35 9.94-2.16.41-4.56.04-6.3-1.35-1.6-1.27-2.92-3.51-2.59-5.62.17-1.07-.27-2.15-1.4-2.46-.99-.27-2.25.33-2.46 1.4-1.45 7.18-7.58 12.53-14.99 12.58-3.01.02-7.87-.75-9.31-3.86-1.6-3.47.92-7.32 2.75-10.13.94-1.44-.63-3.51-2.27-2.96-4.17 1.41-8.92 1.81-13.19.57-1.6-.46-3.39-1.31-4.14-2.9-.6-1.27-.58-2.78.51-3.75.71-.64.64-1.83 0-2.49-.73-.75-1.74-.58-2.49 0Z"/><path d="M96.02 140.79c6.05 4.48 14.79 3.99 21.36.32s11.27-9.99 14.84-16.62c1.55 1.89 4.24 2.46 6.68 2.33 5.19-.28 10.16-3.29 12.8-7.76 2.65-4.47 2.89-10.28.64-14.96 3.59-2.12 7.15-4.7 9-8.45 2.56-5.21.68-14.95 1.53-20.69-1.23 8.93-7.64 20.32-16.37 22.57 3.32 2.79 6.87 6.49 6.18 10.78-.49 3.06-3.02 5.33-5.42 7.28-3.58 2.91-7.29 5.76-11.55 7.53-4.26 1.76-9.2 2.34-13.48.64-3.28 10.18-13.56 17.66-24.25 17.65"/><path d="M94.93 141.87c6.4 5.21 15.43 4.85 22.54 1.29 7.36-3.69 12.55-10.64 16.4-17.71l-3.02.39c2.48 2.84 6.51 3.25 10.03 2.7s6.81-2.24 9.41-4.66c5.7-5.3 6.96-13.84 3.72-20.78-.23.89-.47 1.78-.7 2.68 5.22-3.11 10.03-7.17 10.98-13.48.44-2.93.39-5.9.31-8.86-.07-2.64-.29-5.36.08-7.98.14-1.03-.25-2.04-1.33-2.35-.9-.26-2.2.31-2.35 1.33-.68 4.64-2.45 9.1-5.03 13.02-2.39 3.63-5.72 6.99-10.02 8.16-1.35.36-2.03 2.32-.87 3.3 2.39 2.03 5.68 4.82 5.68 8.26 0 3.54-3.68 6.01-6.15 7.98-6.08 4.83-13.87 9.65-21.84 6.53-1.12-.44-2.29.49-2.62 1.49-3.13 9.29-12.41 15.99-22.2 16.06-2.77.02-2.78 4.33 0 4.31 11.76-.07 22.68-8.06 26.31-19.24l-2.62 1.49c7.32 2.69 15.18-.22 21.28-4.42 2.95-2.04 6.03-4.28 8.51-6.89 2.41-2.54 3.83-5.75 3.08-9.28-.8-3.74-3.81-6.7-6.62-9.08l-.87 3.3c5.08-1.38 9.06-5.15 11.96-9.41s4.99-9.4 5.72-14.56l-3.75-.51c-.69 5.18.2 10.44-.31 15.64-.24 2.39-.95 4.55-2.49 6.43-1.85 2.27-4.31 3.91-6.8 5.39-.97.58-1.15 1.71-.7 2.68 2.44 5.25 1.28 11.74-2.86 15.77-1.89 1.84-4.28 3.12-6.85 3.71s-5.55.61-7.37-1.43c-.81-.91-2.45-.66-3.02.39-3.39 6.29-7.76 12.41-14.12 15.97-6.01 3.37-13.72 3.74-19.64-.03-1.45-.92-3.24 1.3-1.87 2.42Zm13.86 12.2c.69 2.18 1.49 4.41 3.06 6.07 1.61 1.7 3.94 2.66 6.28 2.73s4.68-.7 6.61-2.02c-.54 1.34.22 2.88 1.24 3.91 1.65 1.67 3.97 2.59 6.31 2.75s4.69-.4 6.84-1.36c1.96-.88 3.84-2.18 4.77-4.11.58-1.22.74-2.58.86-3.92.21-2.22.37-4.46.06-6.67s-1.12-4.4-2.63-6.03c1.05-.68 1.27-2.11 1.3-3.36.02-1.09-.02-2.18-.14-3.26a4.7 4.7 0 0 1-1.79 3.79c-.39.3-.86.6-.93 1.09-.05.35.14.69.32.99.92 1.5 1.99 2.96 2.4 4.66.29 1.21.23 2.48.04 3.71-.31 2.05-.98 4.12-2.4 5.63-.79.84-1.79 1.47-2.81 2.01-4.63 2.42-10.54 2.93-14.97.16-.78-.49-1.54-1.11-1.91-1.96s-.26-1.96.47-2.54c-1.5 1.17-3.45 1.66-5.35 1.62s-3.76-.55-5.54-1.24"/><path d="M107.36 154.47c.94 4.03 2.62 7.62 6.64 9.36s8.15.89 11.73-1.28l-2.88-2.21c-1.54 4.18 3.13 7.67 6.6 8.69 4.05 1.2 8.63.2 12.17-2 1.6-.99 3.08-2.32 3.93-4.02 1.03-2.07 1.14-4.53 1.29-6.8.29-4.37-.3-8.78-3.28-12.17l-.39 3.06c2.63-1.98 2.42-5.32 2.1-8.3-.26-2.4-3.84-2.53-3.84 0 0 1.77-1.38 2.13-2.23 3.4-1.16 1.74 0 3.33.93 4.84 1.01 1.65 1.57 3.11 1.35 5.08-.17 1.62-.62 3.4-1.62 4.72-1.91 2.52-6.04 3.65-9.05 3.78-1.63.07-3.25-.12-4.78-.69-.72-.27-1.48-.64-2.1-1.11-.23-.17-.51-.38-.64-.64-.15-.29-.16-.23-.04-.35 1.71-1.61-.54-4.64-2.54-3.3-2.91 1.94-6.17 1.28-9.27.14-1.08-.4-2.34.45-2.62 1.49-.33 1.2.41 2.21 1.49 2.62 4.32 1.65 9.13 2.09 12.95-.96l-2.97-2.97c-1.34 1.36-1.63 3.37-.79 5.08s2.55 2.78 4.21 3.52c3.28 1.46 6.91 1.65 10.4.9s7.34-2.48 9.39-5.55c1.94-2.91 2.75-7.46 1.54-10.77-.36-.99-.86-1.91-1.42-2.8-.23-.37-.46-.89-.77-1.2-.26-.27-.08-.55-.3-.02-.27.64.19.11.39-.05 1.53-1.3 2.29-3.18 2.34-5.16h-3.84c.09 1.08.14 2.17.1 3.26-.02.42.01 1.42-.33 1.68-1.03.78-1.3 2.03-.39 3.06 2.04 2.31 2.34 5.51 2.23 8.46s-.1 6.21-2.72 8.04c-2.33 1.63-5.59 2.54-8.42 2.18-1.68-.21-5.92-1.73-5.27-4.1.42-1.54-1.44-3.25-2.88-2.21-2.38 1.71-5.53 2.41-8.31 1.24s-4.14-4.08-5.22-6.72c-.7-1.73-3.31-1.12-2.86.79Z"/><path d="M145.98 161c-.66 2.97 1.05 6.15 3.67 7.7s5.93 1.61 8.82.7c1.01-.32 1.99-.76 2.83-1.4 2.31-1.76 3.25-4.88 3.04-7.78-.24-3.31-2.25-6.8-5.51-7.45 2.59 1.57 4.42 4.92 3.16 7.67-.55 1.2-1.59 2.1-2.64 2.91-1.74 1.33-3.64 2.52-5.75 3.09s-4.48.45-6.35-.69"/><path d="M144.48 160.59c-1.09 2.88.38 6.48 2.53 8.49 2.51 2.35 6.02 3.15 9.37 2.72s6.73-1.96 8.47-5.07c1.49-2.68 1.79-6.06.94-8.99-.91-3.14-3.18-5.97-6.47-6.75-2.04-.48-3.18 2.22-1.42 3.36 1.24.8 2.35 2.13 2.58 3.63.25 1.6-.83 2.72-2.02 3.67-2.75 2.19-6.8 4.43-10.24 2.42-2.15-1.25-4.1 2.09-1.95 3.33 5.21 3 11.22.15 15.3-3.45 2.05-1.81 3.08-4.25 2.52-6.97-.5-2.44-2.25-4.54-4.34-5.81-.47 1.12-.95 2.24-1.42 3.36 3.98.84 4.86 6.24 3.59 9.49-1.68 4.29-8.1 5.14-11.67 2.82-2.05-1.33-2.81-3.51-2.74-5.84.06-1.85-2.45-1.96-3.04-.41Z"/></svg>