<?xml version="1.0" encoding="UTF-8"?><svg xmlns="http://www.w3.org/2000/svg" viewBox="0 0 180 180"><path d="M133.56 30.7c-3.67 8.34-12.7 12.52-19.96 17.19-8.65 5.56-16.78 12.34-22.39 21.05-3.05 4.74-5.37 10.06-6.3 15.64-.19 1.15.3 2.33 1.51 2.66 1.07.29 2.43-.36 2.66-1.51 2.02-9.82 7.58-18.17 14.84-24.94 3.77-3.52 7.92-6.58 12.21-9.43 3.83-2.55 7.8-4.9 11.39-7.8 3.88-3.14 7.11-6.95 8.87-11.66.6-1.63-2.12-2.8-2.83-1.19Z"/><path d="M87.07 86.9c1.49 1.62 2.83 3.12 3.8 5.14.85 1.77 1.3 3.68 1.69 5.59s.65 3.79.66 5.72c0 1.03-.04 2.08-.25 3.09s-.56 2.04-.64 3.1c-.11 1.38 1.74 1.99 2.64 1.09 1.69-1.69 1.88-4.66 1.91-6.92s-.31-4.74-.79-7.05c-.93-4.49-2.91-9.82-7.11-12.24-1.58-.91-3.12 1.17-1.91 2.48"/><path d="M87.79 84.35c-5.7.81-7.39 8.51-4.59 12.8l3.11-2.4c-1.43-1.74-3.7-1.25-5.19.11s-2.34 3.15-2.41 5.07.88 4.02 2.51 5.19 3.78 1.3 5.7.79l-1.9-.77c1.77 3.25 5.25 6.87 9.3 5.99 1.64-.36 1.49-2.74 0-3.18-1.33-.39-2.64-1.04-3.71-1.93-.94-.78-1.99-1.57-2.69-2.58-.39-.57-1.17-1.05-1.9-.77-1.56.59-3.73-.07-3.65-2.05.03-.78.37-1.59.83-2.22.17-.24.48-.44.62-.7.03-.06.26-.13.26-.19-.02.23-1.23-.74-.57.02 1.46 1.68 4.41-.55 3.11-2.4-1.82-2.59-1.14-6.65 1.96-7.92 1.79-.73 1.12-3.15-.79-2.88Z"/><path d="M92.64 110.79c5.47 4.77 12.86 7.1 19.86 8.43 7.97 1.51 16.01 1.61 24.03.48l-2.6-3.38c-1.72 2.43-2.15 5.58-.92 8.31.76 1.69 3.17.69 3.25-.88.09-1.92.48-3.54 1.64-5.11.99-1.33-.33-3.65-1.98-3.46-7.35.86-14.86.71-22.15-.58-6.65-1.18-13.15-3.15-19-6.58-1.68-.98-3.67 1.42-2.13 2.76Z"/><path d="M84.63 84.22c-.24.24-.95.22-1.35.26-.75.07-1.52.1-2.27 0-.5-.06-.79-.34-1.21-.94-.51-.71-.88-1.55-1.23-2.34-1.39-3.13-2.4-6.53-4.69-9.17-2.51-2.89-7.14-3.15-10.46-1.68-3.71 1.64-6.14 5.41-6.78 9.33-.84 5.14.5 10.19 1.35 15.23.75 4.48.85 9.17 3.21 13.2 3.07 5.25 9.66 8.34 15.44 9.4 6.51 1.2 15.57-.35 17.96-7.54.5-1.5-1.7-2.87-2.74-1.6-1.61 1.96-3.28 3.74-5.68 4.7s-5.27 1.17-7.93.96c-5.14-.41-10.56-2.83-13.42-7.28-2.2-3.43-2.43-7.7-3.04-11.62-.7-4.52-2.29-9.09-1.47-13.71.58-3.22 2.22-6.62 5.6-7.59 1.31-.38 2.95-.36 4.18.28 1.03.53 1.75 1.94 2.32 2.99 1.64 3.06 2.55 7.13 5.19 9.53 1.4 1.27 2.92 1.42 4.73 1.18 1.4-.18 3.18-.6 4.16-1.72 1.12-1.28-.65-3.09-1.88-1.88Z"/><path d="M67.22 88.59c.33 1.01.81 1.94 1.49 2.75s1.63 1.44 2.65 1.6c1.11.17 2.31.03 3.26-.61 1.08-.73 1.8-1.93 1.7-3.25-.05-.75-.29-1.44-.65-2.1-.32-.59-.76-1.33-1.34-1.67-1.11-.65-2.44.42-2.13 1.64.14.57.6 1.04.87 1.56.03.06.06.11.08.17.07.15.05.12-.04-.1-.02.05.1.3.12.36.03.11.03.26.08.36-.03-.25-.04-.3-.03-.13v.18c-.01.17 0 .12.03-.13-.01.06-.02.12-.04.18l-.06.18c.1-.22.11-.25.03-.1-.03.05-.06.1-.09.16q-.135.195.09-.12c-.08.05-.15.16-.22.23-.18.18.33-.21 0 0-.09.05-.2.09-.28.15.24-.1.29-.12.14-.06-.05.02-.1.04-.15.05-.09.03-.18.05-.27.07-.36.07.34-.02.05 0-.11 0-.21.01-.32.01s-.21-.02-.32-.02c.48 0 .18.02.02-.02-.11-.03-.22-.07-.34-.1q-.225-.09.12.06c-.05-.02-.1-.05-.16-.07-.1-.05-.2-.11-.3-.17-.05-.03-.09-.06-.14-.1-.12-.09-.09-.07.1.08-.05-.08-.19-.16-.26-.23a6 6 0 0 1-.24-.25c-.04-.04-.08-.09-.11-.13-.1-.12-.07-.09.06.09-.04-.1-.14-.2-.2-.29-.13-.19-.25-.39-.35-.6-.05-.1-.1-.2-.15-.31-.02-.05-.05-.1-.07-.15.08.2.1.24.04.1-.14-.35-.3-.63-.64-.83-.3-.17-.73-.25-1.07-.14-.68.22-1.21.97-.97 1.7Zm6.84 73.9c-1.23-3.67-2.02-7.46-2.26-11.33-.22-3.48-.22-7.24.64-10.64.48-1.89 2.27-5.16 4.78-3.88 1.2.62 1.14 2.94 1.31 4.08.33 2.14.65 4.27.98 6.41s3.19 1.62 3.76 0a46 46 0 0 1 5.79-11.22c2.25-3.21 5.03-6.52 8.23-8.82.88-.63 3.23-2.14 3.93-.51s-.86 3.37-1.72 4.5c-2.88 3.75-5.46 7.63-7.61 11.85-1.16 2.28 1.93 4.02 3.39 1.98 2.35-3.31 4.99-6.41 7.87-9.28 1.45-1.44 2.95-2.82 4.52-4.13 1.23-1.04 2.85-2.73 4.57-2.78.42-.01 1.15.12 1.37.55.3.58-.35 1.4-.62 1.87-1.06 1.82-2.21 3.6-3.39 5.35-2.36 3.48-4.93 6.81-7.69 9.98l2.81 2.81c2.77-3.26 5.53-6.52 8.3-9.78 1.28-1.51 2.5-3.08 3.88-4.5.92-.95 2.17-2.04 3.6-1.78.22.04.41.12.61.21.04.02.4.22.18.17-.09-.02-.07-.23-.13-.24.07.01.06.47.04.62-.15 1.08-.63 2.14-1.11 3.12-1.02 2.08-2.28 4.03-3.66 5.89-2.04 2.77-3.25 5.99-5.3 8.75-.6.81-.21 2.09.53 2.64.85.64 1.9.52 2.69-.16 3.3-2.85 5.94-6.36 9.18-9.28 1.04-.93 2.62-2.57 3.66-.79.96 1.64 0 4.06-.53 5.7-2.31 7.09-7.06 14.07-13.26 18.31-2.05 1.4-.23 4.65 1.97 3.37 6.5-3.78 11.26-10.33 14.14-17.18 1.46-3.47 3.23-8 1.58-11.68-.73-1.62-2.17-3.02-3.94-3.42-2.23-.5-4.12.68-5.75 2.06-3.6 3.04-6.39 6.91-9.94 10l3.22 2.48c2.09-2.83 3.33-6.12 5.4-8.97 1.63-2.23 3.07-4.62 4.13-7.17s1.78-5.91-1.09-7.65c-3.95-2.39-7.88.75-10.36 3.66-3.62 4.26-7.23 8.53-10.84 12.8-1.64 1.94 1.13 4.75 2.81 2.81a114 114 0 0 0 7.53-9.68c1.16-1.67 2.27-3.38 3.34-5.11.99-1.62 2.18-3.35 2.02-5.33-.31-3.93-4.9-5.09-8.01-3.76-1.77.76-3.26 2.08-4.72 3.31s-2.96 2.6-4.36 3.99c-3.18 3.15-6.04 6.59-8.63 10.24l3.39 1.98c1.98-3.9 4.31-7.6 6.99-11.06 2.21-2.85 4.6-7.06 1.58-10.31s-7.6-.78-10.3 1.59c-2.97 2.6-5.58 5.58-7.85 8.8-2.62 3.74-4.67 7.85-6.18 12.16h3.76c-.4-2.63-.79-5.26-1.21-7.89-.32-2-.99-3.9-2.85-4.96-3.43-1.96-7.66.09-9.39 3.31-2.01 3.74-1.93 8.62-1.7 12.75.27 4.78 1.24 9.52 2.86 14.03.69 1.92 3.75 1.12 3.09-.85Z"/><path d="M76.66 76.88c-1.32-4.61-4.35-8.4-8.8-10.32s-9.39-1.96-14.04-1.07c-10.11 1.93-19.45 8.36-25.02 16.97-2.85 4.4-4.62 9.44-5.01 14.67-.42 5.57 1.19 11.06 3.85 15.91s6.8 9.51 11.46 12.74c2.39 1.65 5.14 2.75 7.47 4.48s2.95 4.18 3.4 6.87c.52 3.1 1 6.1 2.18 9.03s2.69 5.61 4.61 8.1c3.85 5 9 8.61 14.95 10.71 1.07.38 2.3-.43 2.59-1.47.33-1.19-.41-2.17-1.47-2.59-9.01-3.51-15.93-12.2-17.63-21.66-.49-2.74-.69-5.5-1.81-8.09s-3.28-4.5-5.75-5.91c-4.63-2.64-9.27-5-12.96-8.96-6.67-7.17-8-17.93-4.32-26.87 3.47-8.44 11.19-15.13 19.65-18.28s20.01-3.42 23.46 6.61c.69 2 3.79 1.19 3.19-.88Zm37.25 94.62c11.35 2.04 23.66-3.36 31.07-11.93 6.23-7.21 10.01-18.49 4.77-27.29-1.56-2.63-3.81-4.69-6.35-6.35-1.47-.96-3.02-1.77-4.61-2.5-1.74-.81-3.56-1.71-5.43-2.15-2.32-.55-3.77 2.64-1.64 3.9 2.5 1.48 5.37 2.31 7.91 3.75 2.07 1.18 4.06 2.58 5.5 4.5 2.35 3.13 3.02 7.18 2.4 10.99-1.48 9.17-8.49 16.42-16.61 20.36-5.19 2.52-10.82 3.43-16.55 3.33-1.9-.03-2.41 3.04-.46 3.39"/><path d="M38.63 74.46c-3.18 3.98-3.14 9.78.28 13.62.99 1.11 2.34 1.96 3.86 1.99 1.35.03 2.67-.5 3.73-1.3 2.18-1.65 3.43-4.4 3.2-7.14-.15-1.73-2.73-2.32-3.19-.43-.67 2.72.13 5.8 2.33 7.63s5.57 2.52 7.98.9c1.39-.94.52-3.02-1.13-2.68s-3.25.42-4.58-.65c-1.27-1.01-1.84-2.76-1.46-4.33l-3.19-.43c.12 1.64-.45 3.32-1.78 4.36-.53.42-1.26.78-1.96.68-.76-.11-1.39-.86-1.82-1.44-1.89-2.62-1.86-6.41-.06-9.06.88-1.3-1.21-2.96-2.21-1.7Zm-9.15 32.71c-.04-2.04 1.82-3.85 3.62-4.5.87-.32 1.99-.47 2.78.12.45.33.98 1.1.71 1.69-.73 1.61 1.25 3.55 2.63 2.03 1.6-1.76 4.84-5.43 7.53-3.41 2.48 1.86.63 5.51-.89 7.27l2.9 1.69c.95-2.29 4.1-1.98 5.45-.36 1.94 2.35.74 5.43-1.33 7.22-1.3 1.13.08 3.68 1.75 3 2.52-1.03 4.41 1.5 3.9 3.87-.67 3.11-3.77 4.57-6.53 5.4-2.26.68-1.32 4.03.97 3.53 4.69-1.03 9.19-4.39 9.38-9.55.16-4.36-4.29-8.55-8.67-6.71l1.75 3c3.66-3.24 4.67-9.23.81-12.77-3.5-3.2-9.11-2.01-10.82 2.45-.61 1.59 1.82 3.01 2.9 1.69 1.56-1.91 2.82-4.02 2.99-6.54.14-2.05-.67-4.28-2.26-5.62-1.75-1.48-4.18-1.73-6.32-1.02-2.42.8-4.22 2.64-5.88 4.49l2.63 2.03c1.76-3.96-1.88-7.56-5.86-7-1.97.28-3.89 1.34-5.19 2.85-1.42 1.64-1.92 3.39-1.63 5.52.21 1.53 2.7 1.14 2.67-.36Zm37.32 25.38c1.72-1.77 3.46-3.49 5.08-5.35s3.33-3.8 4.7-5.88c.87-1.32-1.19-2.96-2.22-1.71-1.55 1.87-2.95 3.86-4.49 5.73s-3.09 3.76-4.78 5.5c-1.09 1.12.62 2.83 1.71 1.71m3.6 5.96a43.2 43.2 0 0 0 9.15-7.46c2.49-2.68 4.85-5.89 5.91-9.44.45-1.5-1.84-2.52-2.57-1.08-.77 1.51-1.5 3.02-2.45 4.44s-2.01 2.75-3.16 4c-2.47 2.69-5.3 5.03-8.31 7.08-1.5 1.02-.15 3.42 1.44 2.46Zm28.19-24.52c-.57 1.89-1.11 3.81-1.08 5.8.02.93.14 1.89.42 2.78.33 1.05.88 2.51 2.09 2.76.78.16 1.86-.22 2-1.13.12-.77-.04-1.26-.4-1.93-.09-.16-.17-.32-.24-.49.16.37-.07-.24-.09-.3-.11-.35-.18-.71-.25-1.07.07.38 0-.07-.01-.16q-.03-.315-.03-.63c0-.4 0-.79.04-1.18.02-.24.05-.47.08-.71 0-.05.07-.54.03-.26.13-.89.32-1.77.51-2.65.17-.81-.24-1.75-1.11-1.95s-1.69.26-1.95 1.11Zm13.36 13.54c.66-.69 1.31-1.38 1.97-2.05l-2.54-1.48c-.49 3.31 2.48 5.04 5.29 5.79 1.45.39 3.07.32 4.25-.7.49-.43.84-.97 1.05-1.59.07-.22.12-.45.18-.68.14-.57.24-.33-.05-.18l-2.51-1.02c.78 3.55 4.78 4.89 7.85 3.38 1.42-.7 2.6-1.94 3.31-3.34.42-.82.73-1.7.92-2.6.1-.48.17-.97.23-1.45.03-.22.05-.44.07-.66 0-.18-.03-.13-.12.14l-1.25.52.2-.02c.95-.09 1.77-.75 1.77-1.77 0-.89-.81-1.87-1.77-1.77-1.82.18-2.21 1.5-2.39 3.08-.14 1.23-.46 2.56-1.22 3.56-.54.71-1.4 1.37-2.32 1.4s-1.78-.47-1.98-1.37c-.26-1.16-1.57-1.47-2.51-1.02-.77.37-1.21 1.1-1.45 1.89-.08.27-.09.66-.23.9-.17.27.12-.05-.04.02-.07.03-.17.09-.25.08-1.12-.08-3.9-.71-4.04-2.17-.11-1.15-1.68-2.2-2.59-1.07-.6.74-1.22 1.47-1.83 2.2-1.15 1.37.72 3.34 2 2Zm19.46 20.78c1.29-1.41 2.81 1.75 2.88 2.73.13 1.96 2.71 2.29 3.37.46.27-.75.28-1.55.26-2.34-.01-.39-.13-.93.11-1.26s.98-.6 1.37-.73c.13-.05.26-.08.4-.1.33.03.38.02.16-.03.03 0 .06 0 .09.02.08.05.08-.02 0-.23-.22.95.29 1.83 1.22 2.14 2.46.82 3.11-2.15 4.1-3.65.45-.69 1.04-1.31 1.68-1.82.75-.6 1.94-.95 2.34-1.87s.11-1.93-.92-2.25c-1.72-.54-3.8 1.39-4.87 2.56-.58.63-1.11 1.33-1.53 2.07-.25.44-.46.9-.66 1.37-.06.15-.28.5-.2.46l.88-.24.1.02 1.22 2.14c.34-1.51-.34-2.95-1.69-3.71s-2.88-.42-4.2.18c-1.2.54-2.32 1.34-2.79 2.62s.06 2.55-.36 3.74l3.37.46c-.16-2.18-1.13-4.2-2.98-5.44-1.67-1.13-4.19-1.15-5.5.55-.51.65-.64 1.53 0 2.17.57.57 1.6.61 2.17 0ZM85.27 81.84c1.38-7.05 4.73-13.7 9.57-19.01 6.53-7.17 15.65-11.81 23.84-16.78s17.77-10.09 18.73-20.62c.24-2.61-.12-5.34-1.43-7.61-4.41-7.67-15.61-8.72-23.45-7.26-12.39 2.3-19.93 11.41-25.48 22.02.82-3.01 1.64-6.06 1.65-9.18s-.72-6.54-3.07-8.58c-5.7-4.93-14.46-4.65-20.75-1.01-10.88 6.28-12.8 21.07-9.75 32.22 2.62 9.57 8.91 17.84 16.58 24.14 1.9 1.56 3.94 3.07 5.14 5.22.87 1.55 1.23 3.32 1.96 4.94s1.99 3.18 3.73 3.48 3.76-1.32 3.26-3.02"/><path d="M86.74 82.25c1.31-5.55 3.73-10.67 7.12-15.25s7.87-8.12 12.58-11.2 9.51-5.72 14.28-8.56c3.99-2.38 8.02-4.78 11.47-7.92s6.22-7.22 7.03-11.9c.93-5.36-.34-10.8-4.56-14.45-6.83-5.91-17.72-6.21-26-3.71-10.98 3.32-18.34 12.42-23.5 22.21l4 1.69c1.39-5.11 2.75-10.79.69-15.92-1.81-4.51-6.46-7.19-11.1-8-8.96-1.57-18.02 2.64-22.81 10.31-4.39 7.03-5.1 15.96-3.65 23.97 1.75 9.61 7.29 18.27 14.24 24.99 2 1.94 4.24 3.58 6.29 5.47 1.04.96 1.94 2 2.51 3.31s.94 2.8 1.57 4.14c1.13 2.41 3.43 4.73 6.29 4.58 3-.16 5.31-2.82 4.68-5.8-.58-2.73-4.73-1.57-4.17 1.15.03.15 0-.12.04-.15-.11.15.11.12-.27.31-.19.1-.4.17-.61.15-.6-.06-1.16-.74-1.48-1.19-1.3-1.83-1.55-4.25-2.64-6.2s-2.81-3.48-4.53-4.88-3.31-2.76-4.86-4.28c-5.85-5.74-10.52-12.85-12.42-20.89-1.51-6.41-1.37-13.69 1.38-19.76 2.9-6.42 8.91-10.92 16.07-11.15 3.66-.12 8.66.96 10.77 4.3 2.67 4.23.98 9.97-.22 14.38-.63 2.35 2.82 3.93 4 1.69 4.16-7.91 9.71-15.6 18.17-19.26 3.85-1.66 8.09-2.35 12.26-2.28s8.16.88 11.52 3.17c3.77 2.57 5.12 6.95 4.26 11.35s-3.41 7.63-6.65 10.39-7.06 4.91-10.72 7.14c-4.57 2.79-9.26 5.41-13.7 8.41-5.02 3.39-9.64 7.26-13.27 12.14s-6.02 10.71-7.02 16.69c-.32 1.89 2.48 2.75 2.94.81Zm-21.38 1.7c.84.08 1.4-.72 1.95-1.21q.585-.525 1.2-1.02l-.31.24c.36-.27.73-.53 1.11-.77s.79-.43 1.15-.7c.31-.23.61-.51.7-.91.08-.34.06-.67-.08-.99-.28-.67-1.07-1.11-1.8-.88-.6.19-1.12.51-1.64.86s-.98.71-1.45 1.1c-.38.32-.74.67-1.07 1.05-.55.64-1.28 1.39-.99 2.31.18.57.64.87 1.21.92ZM42.9 29.74c-.9-.25-1.79-.5-2.69-.77s-1.77-.59-2.69-.74c-.42-.07-.8-.07-1.17.15-.32.18-.62.55-.7.91-.2.87.26 1.57 1.06 1.87.87.33 1.8.49 2.7.71s1.81.45 2.71.68c.74.19 1.62-.24 1.8-1.02s-.23-1.57-1.02-1.8Zm-1.62 12.54c-.88.12-1.76.23-2.64.34-.54.07-1.09.11-1.63.21-.21.04-.44.07-.65.13-.23.06-.45.17-.67.26-.36.15-.71.33-.9.69-.16.3-.23.62-.18.96.1.72.73 1.32 1.48 1.31.55 0 1.08-.07 1.63-.19.45-.1.88-.24 1.32-.36.86-.25 1.72-.49 2.59-.73.64-.18 1.04-.81.95-1.46-.08-.58-.65-1.24-1.3-1.15Zm1.12 13.31-.86.6c-.39.27-.74.57-1.11.87-.15.14-.25.3-.31.48-.09.18-.14.37-.13.58l.05.4q.075.3.27.51.105.165.27.27.21.195.51.27l.4.05c.27 0 .52-.07.76-.2l.44-.29c.25-.16.48-.35.71-.53l.82-.65c.15-.14.25-.3.31-.48.09-.18.14-.37.13-.58l-.05-.4q-.075-.3-.27-.51a.9.9 0 0 0-.27-.27q-.21-.195-.51-.27l-.4-.05c-.27 0-.52.07-.76.2m6.05-35.15-.04-.09.04.32c-.01.09-.03.2-.04.31l.03-.14-.14.32c.04-.05.07-.12.09-.19a.5.5 0 0 0 .07-.17c.04-.13.06-.26.05-.39v-.07c-.02-.17-.02-.4-.07-.53 0-.03-.02-.05-.03-.08v-.02c-.06-.12-.11-.24-.16-.36 0 0-.16-.23-.25-.32l-.12-.12-.29-.22c-.16-.1-.34-.16-.53-.17a.8.8 0 0 0-.38 0c-.19 0-.37.07-.53.17l-.29.22-.22.29c-.1.16-.16.34-.17.53q-.06.285.03.57c0 .05.01.11.02.16.01.08.04.12.08.21s.05.14.09.21c.08.13.15.25.27.36.04.03.07.07.11.1.02.02.04.04.06.05.09.08.19.17.3.23l.33.14c.13.03.26.05.39.05l-.68-.18c.05.02.11.05.17.07l-.43-.43.05.09c.08.14.18.25.31.34.12.11.25.18.41.21l.32.04c.16 0 .32-.03.46-.1.1-.03.19-.08.26-.15.13-.08.23-.2.31-.34l.12-.29c.06-.21.06-.42 0-.64Z"/></svg>