<?xml version="1.0" encoding="UTF-8"?><svg xmlns="http://www.w3.org/2000/svg" viewBox="0 0 180 180"><path d="M151.18 22.03c-12.34-5.01-24.99-9.9-38.45-10.58-3.51-.18-7.04-.02-10.5.59-4.27.75-8.31 2.37-12.3 4.02-7.56 3.14-15.21 6.24-22.17 10.6-3.11 1.95-6.76 4.16-8.61 7.45-1.05 1.88-1.34 4-1.42 6.12s-.11 4.4-.12 6.6c-.05 9.06-.08 18.12-.28 27.18-.21 9.06-.46 18.12-.72 27.18-.13 4.49-.26 8.98-.38 13.46-.11 3.86-.58 7.95.29 11.75.38 1.67 1.12 3.23 2.24 4.53 1.27 1.47 3.06 2.32 4.77 3.15 3.94 1.9 7.83 3.87 11.75 5.79 7.95 3.89 16.12 7.36 24.28 10.77 4.05 1.69 8.1 3.44 12.22 4.94 3.85 1.4 8.01 2.53 12.15 2.16s7.77-2.25 11.06-4.77c3.42-2.62 6.7-5.45 10.02-8.2 6.92-5.72 13.85-11.42 20.78-17.12 1.47-1.21 2.96-2.4 4.14-3.92 1.29-1.68 1.95-3.58 2.18-5.67.4-3.62-.29-7.43-.57-11.04-1.22-15.74-2.17-31.51-4.39-47.14-.53-3.72-1.13-7.43-1.85-11.12-.49-2.52-1.12-5.02-1.56-7.56-.48-2.76-.72-5.61-1.59-8.29-2.64-8.09-10.97-11.75-18.38-14.43-3.46-1.25-6.98-2.31-10.52-3.29-2.59-.72-3.69 3.28-1.11 4.02 5.91 1.7 11.92 3.51 17.39 6.37.91.48 1.81.99 2.68 1.55.38.25.76.51 1.13.78.24.17.27.19.71.56.58.49 1.13 1.02 1.64 1.58.13.14.25.29.37.43.28.32-.01-.03.05.06.21.29.42.58.61.88.34.54.62 1.1.89 1.68.05.12-.15-.4 0 0 .05.13.1.27.15.4.11.31.22.63.31.95.36 1.23.59 2.5.8 3.77.61 3.79 1.36 7.52 2.09 11.29 2.84 14.71 4 29.72 5.14 44.64.28 3.66.55 7.33.83 10.99.27 3.52.72 7.06.81 10.59.04 1.69-.08 3.38-1.02 4.84s-2.39 2.51-3.69 3.58l-9.91 8.17c-6.54 5.39-13.05 10.83-19.66 16.14-2.77 2.23-5.87 4.37-9.51 4.73-3.9.39-7.76-.82-11.38-2.16-7.89-2.93-15.63-6.28-23.37-9.59-7.75-3.31-15.57-6.56-23.17-10.19-1.62-.77-3.53-1.47-4.7-2.89-.95-1.15-1.35-2.67-1.53-4.12-.47-3.8-.02-7.79.09-11.6.24-8.73.47-17.45.71-26.18.23-8.65.56-17.29.96-25.93.2-4.32.4-8.64.62-12.97.11-2.16.2-4.32.26-6.48.05-1.7.08-3.45 1.01-4.94.82-1.31 2.15-2.3 3.39-3.19a64 64 0 0 1 4.86-3.16c3.33-1.97 6.81-3.69 10.34-5.29s7.11-3.1 10.69-4.57 7.57-2.94 11.56-3.64c6.55-1.16 13.42-.39 19.9.87s12.74 3.11 18.93 5.24c2.43.84 4.83 1.75 7.22 2.7.81.32 1.76-.35 1.98-1.12.26-.92-.32-1.65-1.12-1.98Z"/><path d="M60.31 40.21c-.34-1.8 1.13-3.55 2.87-4.16 1.73-.6 3.63-.35 5.44-.04 14.24 2.41 28.25 5.32 40.83 12.41 2.43 1.37 4.88 2.88 6.47 5.17 1.37 1.98 1.98 4.37 2.44 6.73 2.51 13 2.89 28.26 3.68 41.44.79 13.13 2.62 26.15 2.62 39.33 0 4.68 1.21 9.38.32 13.97 4.72-2.22 8.71-5.69 12.64-9.12 9.37-8.18 18.74-16.36 28.11-24.53 1.5-1.31 0-.2.95-1.94 1.29-2.34 2.12-6.14 1.98-8.81-.67-12.65-4.3-25.96-5.55-38.57-.6-6.04-.11-12.13-.41-18.18-.32-6.27-1.5-12.49-3.49-18.44-.63-1.88-1.36-3.76-2.51-5.36-1.64-2.28-4.05-3.88-6.49-5.26-4.16-2.35-8.56-4.21-12.99-6-6.18-2.5-19.07-4.52-25.73-4.77-6.19-.24-5.77 1.02-11.75 2.64-11.17 3.02-28.36 9.32-36.81 17.23"/><path d="M61.76 40.21c-.23-2.48 2.69-3.01 4.57-2.86 2.62.2 5.25.89 7.83 1.38 5.05.95 10.08 2.04 15.03 3.44 4.84 1.37 9.61 3.03 14.16 5.16 2.24 1.05 4.45 2.19 6.56 3.47 1.97 1.19 3.84 2.57 4.97 4.62 1.16 2.09 1.55 4.55 1.96 6.87.44 2.51.79 5.04 1.08 7.58.59 5.13.97 10.29 1.28 15.45.65 10.65 1.2 21.29 2.14 31.92.56 6.3 1.1 12.6 1.29 18.92.09 3.06.04 6.1.31 9.15.27 3.06.69 6.19.15 9.24-.31 1.73 1.28 2.98 2.88 2.21 4.02-1.93 7.54-4.67 10.92-7.55 3.69-3.14 7.31-6.35 10.96-9.53 3.81-3.32 7.62-6.65 11.45-9.96 1.88-1.63 3.76-3.26 5.65-4.88 1.18-1.02 3.6-2.39 3.58-4.19 0-.29-.09-.79-.29-1.05-.14-.18.2.84.19.8.06.22-.39.86.07.14.09-.14.16-.29.23-.44.45-.92.83-1.88 1.13-2.85.57-1.84.92-3.82.95-5.75.08-4.61-.77-9.37-1.49-13.91-1.49-9.36-3.81-18.7-4.31-28.18-.26-5 .03-10-.18-15-.21-4.74-.88-9.47-2.01-14.07-1.06-4.32-2.3-9.05-5.25-12.5-2.75-3.22-6.86-5.24-10.6-7.04-3.73-1.8-7.58-3.6-11.53-4.86-3.31-1.06-6.72-1.79-10.13-2.42-3.59-.66-7.22-1.18-10.86-1.52-3.11-.29-6.41-.56-9.42.44-1.31.44-2.58 1.01-3.89 1.45-1.67.55-3.39.97-5.08 1.47-3.53 1.04-7.02 2.22-10.46 3.52-7.06 2.67-14.24 5.76-20.34 10.28a48 48 0 0 0-3.89 3.25c-2.08 1.92 1.03 5.02 3.1 3.1 4.03-3.73 9.25-6.41 14.19-8.72 5.28-2.48 10.77-4.51 16.34-6.25 2.55-.8 5.17-1.41 7.7-2.28 1.86-.63 3.89-1.64 5.69-1.81 5.16-.47 10.65.49 15.72 1.37 5.54.95 10.76 2.36 15.94 4.51 3.34 1.39 6.64 2.92 9.77 4.76 2.75 1.62 5.05 3.52 6.41 6.49 1.46 3.19 2.32 6.77 3.04 10.19.77 3.67 1.22 7.4 1.36 11.15.14 3.77.01 7.54.07 11.31.06 3.86.46 7.67.99 11.49 1.15 8.28 2.92 16.47 4.04 24.76.47 3.51 1.15 7.3.68 10.84-.2 1.53-.6 3.12-1.24 4.53-.6 1.32-1.33 2.46-.54 3.88l-.29-1.05v.05c.1-.35.19-.7.29-1.05.27-.31.3-.35.1-.13-.15.15-.31.29-.47.43-.43.39-.87.77-1.31 1.15-.87.77-1.74 1.53-2.61 2.3-1.8 1.59-3.61 3.18-5.41 4.77-3.48 3.07-6.99 6.12-10.48 9.17-3.4 2.97-6.79 5.97-10.21 8.92-3.17 2.73-6.46 5.31-10.25 7.13.96.74 1.92 1.48 2.88 2.21.53-2.97.39-5.89.11-8.88-.27-2.87-.35-5.7-.41-8.58-.12-6.08-.59-12.14-1.12-18.2-.53-6.05-1.12-12.1-1.49-18.17-.33-5.48-.58-10.97-.92-16.45s-.79-11.21-1.52-16.78c-.35-2.7-.76-5.4-1.27-8.08s-1.1-5.21-2.52-7.45c-2.74-4.33-8.08-6.75-12.56-8.82-4.99-2.3-10.18-4.11-15.48-5.55-5.91-1.61-11.92-2.81-17.96-3.79-3-.49-6.37-1.4-9.31-.2-2.43.99-3.94 3.34-3.51 5.96.26 1.59 2.99 1.24 2.84-.38Z"/><path d="M72.33 95.95c1.1-5.87 5.96-9.09 11.75-9.07 6.36.03 11.62 3.19 15.4 8.08 4.79 6.19 8.21 15.22 5.7 23.01-.96 2.99-2.91 5.64-5.69 7.13-3.28 1.76-7.17 1.36-10.62.31-9.83-2.98-15.66-12.36-15.75-22.36-.02-1.94-3.21-2.53-3.51-.48-1.56 10.72 4.43 21.24 14.15 25.86 4.42 2.1 9.64 3.28 14.49 2.12 4.1-.98 7.56-3.76 9.69-7.36 5.03-8.47 2.51-19.49-2.38-27.41-2.34-3.8-5.47-7.43-9.38-9.68-3.02-1.73-6.43-2.73-9.89-3-3.67-.29-7.61.37-10.75 2.37-3.42 2.17-5.39 5.75-6.03 9.7-.29 1.82 2.45 2.63 2.8.77Zm10.66-36.7c.12-.57.32-1.12.61-1.52.32-.43.61-.65.99-.89.87-.55 1.57-.67 2.74-.63.13 0 .94.11.52.03.32.05.63.12.94.2.29.08.56.17.84.27.1.04.46.2.08.03.16.07.32.15.47.23.26.13.5.28.75.44.14.09.28.19.42.29-.37-.28-.06-.05.02.04.54.52 1.11 1.14 1.48 1.63 1.12 1.53 1.8 2.93 2.22 4.72.2.88.28 1.25.27 2.23 0 .18-.02.36-.02.55-.01.68.06-.27 0 .13s-.15.76-.27 1.13c-.02.06-.27.7-.06.21-.07.16-.15.31-.23.46s-.16.29-.26.44c0 0-.38.52-.17.25s-.21.22-.2.22c-.11.12-.24.23-.36.34-.27.25.45-.27-.07.06-.2.12-.4.24-.6.35-.33.18.51-.14-.09.04-.17.05-.33.11-.5.15s-.35.08-.52.11c.46-.06-.03-.02-.15-.02-.95.03-1.34-.07-2.33-.38-3.42-1.09-5.52-4.44-5.97-8.28-.1-.88-.6-1.64-1.55-1.76-.86-.1-1.74.4-1.96 1.28-1.25 5.04 1.73 10.22 6.25 12.47 2.21 1.1 4.72 1.65 7.17 1.17 2.1-.41 3.88-1.81 5.04-3.56 2.59-3.93 1.57-9.24-.68-13.06-2.07-3.51-5.33-5.92-9.44-6.23-1.79-.13-3.76.24-5.28 1.24-1.68 1.11-2.61 2.87-2.91 4.83-.12.78.19 1.56 1.01 1.79.72.2 1.62-.24 1.79-1.01Z"/><path d="M82.99 103.93c-.51-5.29 4.77-6.3 7.89-4.07 2.27 1.63 4.19 4.39 5.09 7.37 1.37 4.58-1.29 8.04-5.04 7.61-4.35-.5-8.56-7.44-7.23-12.45"/><path d="M84.44 103.93c-.03-.65 0-1.17.27-1.79-.12.28.1-.17.11-.18.08-.13.17-.25.25-.38.18-.27.04-.05 0 0 .13-.14.27-.27.4-.41.28-.29-.28.11.09-.06.08-.04.17-.1.24-.14.08-.05.5-.2.07-.05.13-.05.26-.09.4-.13s.85-.12.34-.09c.32-.02.63-.02.95-.01.13 0 .46.08 0-.01.15.03.29.05.44.09.25.06.48.14.72.22.48.16-.36-.21.07.04.13.08.27.14.4.22.11.07.21.14.32.21.42.27-.15-.17.23.18.31.28.62.56.91.86.13.14.26.28.39.43-.02-.02.47.57.25.28.6.76 1.13 1.59 1.58 2.45.41.79.55 1.14.83 2.07.12.41.22.82.29 1.24-.09-.51 0 .17.01.23.01.2.01.41 0 .62 0 .1-.08.75.01.16-.03.19-.06.37-.11.55s-.4.99-.12.45c-.08.15-.15.31-.24.46-.01.02-.31.5-.1.18s-.1.11-.13.15c-.1.11-.66.55-.14.18-.23.16-.46.28-.7.43.49-.29.12-.05-.06 0-.16.05-.33.08-.49.13s-.36-.02.11 0c-.18 0-.36.02-.54.02-.16 0-.41.02-.55-.04.59.22.18.01 0-.03-.16-.04-.31-.1-.47-.14-.53-.16.44.25-.05-.02-.25-.14-.51-.27-.75-.43-.15-.1-.3-.2-.44-.31.47.35-.02-.03-.09-.1-.29-.25-.56-.52-.81-.8-.13-.14-.26-.3-.38-.44-.42-.48.25.37-.12-.16-.27-.39-.53-.78-.76-1.19-.2-.36-.38-.72-.56-1.09-.28-.6.13.43-.08-.2-.06-.19-.14-.38-.2-.58-.26-.82-.48-1.67-.66-2.51-.01-.05-.11-.67-.05-.21-.03-.19-.04-.38-.05-.58-.02-.43.02-.87.05-1.3.08-1.72-2.57-2.51-3.33-.9-1.91 4.03-.26 8.59 2.34 11.88 2.48 3.14 6.68 5.03 10.48 2.99 1.75-.94 3.02-2.75 3.46-4.67.56-2.44 0-4.78-.97-7.02-1.63-3.75-4.95-7.48-9.25-7.84-1.8-.15-3.65.4-5 1.61-1.57 1.4-1.91 3.5-1.68 5.5.09.78.6 1.45 1.45 1.45.76 0 1.49-.67 1.45-1.45Zm3.58-40.95c-.05.18-.06.36-.09.54 0 .04 0 .07-.01.11v.05c.02.14.03.27.06.41.01.07.03.15.05.22v.03c.02.06.04.12.07.17.02.06.05.12.07.17.02.04.2.27.23.29l.02.02c.11.09.23.19.35.27l.32.14.36.05.36-.05c.17-.04.33-.12.46-.24q.15-.09.24-.24c.08-.08.14-.18.17-.3.06-.1.09-.22.09-.34a1.1 1.1 0 0 0-.02-.54v-.05l.05.36V64c-.03-.29-.04-.48-.19-.73l-.06-.09a1 1 0 0 1-.1-.19l.14.32c-.06-.14-.12-.29-.19-.42-.02-.04-.04-.07-.05-.11l.13.31s-.03-.08-.04-.12l-.13-.3a1 1 0 0 0-.32-.35.6.6 0 0 0-.28-.16 1 1 0 0 0-.48-.11l-.33.04-.3.13c-.15.08-.26.19-.35.32-.11.12-.19.26-.22.43ZM40.29 71.4c-5.28.32-10.59 2-15.64 3.49s-10.22 3.22-15.23 5.1c-1.78.67-2.44 3.23-.56 4.27 1.47.82 2.47 2.25 3.51 3.53s2.12 2.65 3.11 4.03c1.96 2.75 3.79 5.7 4.85 8.93.89 2.73 1.72 6.15.57 8.93-.36.86-1.02 1.94-2.04 2.06s-1.94-.76-2.31-1.62c-1.57-3.64 2.97-7.05 5.36-8.91.94-.73.77-2.36 0-3.13-.93-.93-2.18-.73-3.13 0-3.69 2.85-7.44 6.64-6.77 11.73.57 4.33 5.19 7.7 9.38 5.59 3.68-1.85 4.65-6.62 4.5-10.35-.19-4.63-2-8.93-4.42-12.83-1.37-2.21-2.94-4.29-4.55-6.33-1.65-2.09-3.3-4.4-5.71-5.67-.19 1.42-.37 2.85-.56 4.27 4.91-1.96 9.88-3.75 14.91-5.35 2.44-.78 4.89-1.51 7.35-2.24 2.61-.77 5.26-1.42 7.78-2.46 1.46-.61 1.5-3.15-.41-3.04Z"/><path d="M39.71 73.41c2.36 3.17 4.72 6.1 6.4 9.72 1.64 3.54 2.86 7.51 2.9 11.44.02 1.73-.3 3.69-1.71 4.87-.86.72-2.34 1.05-3.17.06-1-1.19.57-3.24 1.3-4.18 1.37-1.78 3.01-3.29 4.52-4.94 1.1-1.2.44-3.75-1.47-3.55-.44.05-.87.1-1.31.18-1.94.35-1.75 3.27 0 3.74.25.08.5.13.75.17-.31-1.16-.61-2.32-.92-3.48-1.69 1.42-3.19 3.18-4.57 4.9-1.37 1.71-2.62 3.6-2.81 5.84-.35 4.16 3.89 7.04 7.73 5.95 4.31-1.22 6.07-5.92 5.89-10.01-.17-4.14-1.37-8.23-3.04-11.99-1.81-4.07-4.71-8.27-8.37-10.85-1.24-.87-3.06.89-2.14 2.14Z"/><path d="M19.38 90.15c8.62-2.83 17.29-5.53 25.9-8.38 2.41-.8 1.41-4.55-1.06-3.83-8.73 2.57-17.27 5.66-25.74 8.98-1.96.77-1.2 3.91.89 3.22Zm27.53-53.8c-.43-.59-.89-1.14-1.41-1.64-.21-.21-.44-.4-.67-.59-.21-.16-.42-.34-.64-.49s-.51-.22-.77-.29c-.31-.09-.64-.05-.94.07-.28.12-.54.32-.69.59-.12.23-.18.47-.2.73-.02.36.17.76.42 1.02.08.08.15.17.23.25.17.17.38.29.58.42s.4.27.59.41l-.3-.24c.52.4.98.87 1.38 1.39l-.23-.3.11.14c.09.17.22.31.38.41.14.13.31.22.5.26.35.1.82.05 1.13-.15s.59-.5.67-.88.08-.82-.15-1.13Zm-6.19 7.67-1.82-.26c-.42-.06-.86-.15-1.28-.18-.3-.02-.61-.01-.91-.02-.78-.02-1.43.61-1.53 1.35s.36 1.54 1.12 1.71c.3.07.59.14.89.2.42.08.86.11 1.28.15l1.83.2c.37.04.89-.2 1.14-.47s.39-.56.44-.92 0-.73-.19-1.03c-.21-.33-.56-.68-.96-.74Zm1.14 9.82c-1.01.21-2 .46-2.98.74-1.07.31-2.23.56-3.21 1.09-.72.39-.99 1.34-.68 2.07.13.32.36.63.68.79.42.22.81.24 1.28.17.52-.08 1-.28 1.5-.45.46-.16.92-.31 1.38-.46.96-.31 1.91-.63 2.87-.96.76-.26 1.35-1.07 1.08-1.9s-1.05-1.26-1.9-1.08Zm-.44 70.76c-9.42 4.21-18.78 8.72-28.37 12.54-2.28.91-2.04 4.23.59 4.37 5.41.29 10.74.65 15.98 2.16 4.27 1.23 8.54 3.38 11.01 7.24 2.09 3.26 2.58 7.38.17 10.63-.9 1.22-2.34 2.31-3.84 2.52-1.07.15-2.84-.21-3.06-1.23-.23-1.01.71-2.15 1.29-2.88.76-.97 1.62-1.86 2.52-2.7 1.96-1.84 4.22-3.29 6.65-4.44.83-.39 1.25-1.49 1.12-2.34-.15-1-.78-1.57-1.68-1.95-.78-.33-1.7-.27-2.49 0-2.33.77-1.82 3.98.56 4.17q-.42-.135.12.12v-4.05a29.3 29.3 0 0 0-7.59 5.18c-2.07 1.95-4.52 4.48-5.06 7.38-.55 2.93 1.01 5.56 3.71 6.72 2.5 1.08 5.21.82 7.61-.39 5.04-2.53 7.24-8.73 6.1-14.03-1.22-5.69-5.81-10.16-10.94-12.54-3.21-1.49-6.62-2.4-10.09-3.01-3.94-.69-8.08-1.19-12.08-1.01.37 1.38.75 2.77 1.12 4.15 9.31-4.82 18.99-9.01 28.5-13.45.9-.42 1.11-1.7.66-2.5-.53-.93-1.61-1.06-2.5-.66Z"/><path d="M27.48 141.56c2.41-.26 4.7-.69 6.99-1.49 2.16-.76 4.34-1.75 6.25-3.02s3.47-2.87 4.23-5.04c.74-2.12.68-5.3-1.05-6.93-1.25-1.18-3.01.02-2.73 1.59.15.82.52 1.58.56 2.41.04.76-.09 1.51-.42 2.2-.68 1.42-2.04 2.41-3.36 3.19-3.31 1.97-7.11 3.35-10.86 4.2-1.58.36-1.28 3.07.39 2.89"/></svg>