<?xml version="1.0" encoding="UTF-8"?><svg xmlns="http://www.w3.org/2000/svg" viewBox="0 0 180 180"><path d="M64.18 62.75c-12.63.42-25.62 2.58-35.82 10.57-9.31 7.29-14.76 18.69-16.14 30.29-1.41 11.8 2.15 23.93 10.77 32.31 8.25 8.01 19.85 11.82 31.03 13.38 17.48 2.45 36.41.28 51.24-9.94 7.11-4.9 12.5-12.37 14.86-20.68 2.26-7.94 2.21-17.06.26-25.05-1.91-7.85-6.11-15.19-12.25-20.48-7.48-6.45-17.02-9.63-26.74-10.6-2.86-.29-5.74-.38-8.62-.33s-2.95 4.59 0 4.58c9.61-.03 19.53 1.54 27.8 6.67 3.21 1.99 5.97 4.41 8.42 7.41 1.95 2.39 4.06 6.08 5.16 8.9 2.73 7 3.4 14.09 2.62 21.59-.41 3.89-1.57 7.97-3.2 11.36-1.73 3.58-3.82 6.33-6.63 9.12-5.59 5.55-12.68 8.89-20.45 11.03s-16.29 2.88-24.66 2.42c-9.18-.5-18.81-2.38-27.14-6.83-4.98-2.66-9.4-6.26-12.54-10.99-2.92-4.39-4.78-9.51-5.29-14.77-1.03-10.56 2.13-21.82 8.82-30.12 3.58-4.44 7.96-7.93 13.1-10.42s11.08-4.07 16.87-4.98c2.83-.45 5.68-.73 8.54-.93 2.22-.16 2.27-3.58 0-3.5Z"/><path d="M65.75 64.11c-.64-3.01-1.91-5.84-3.02-8.69-.55-1.42-1.11-2.84-1.66-4.26l-.84-2.13c-.42-1.05-.72-1.86-1.65-2.56-.88-.66-2.53 0-2.7 1.1s.1 1.74.5 2.69c.34.81.69 1.62 1.04 2.43.6 1.4 1.21 2.8 1.81 4.19.6 1.4 1.21 2.8 1.81 4.19.61 1.42 1.38 2.75 1.99 4.17.29.67 1.25.87 1.85.61.7-.31 1.02-1.01.86-1.75ZM40.28 91.74c-3.69-.84-7.23-.41-10.52 1.56s-5.72 5.14-7.1 8.76c-2.71 7.15-1.11 16.45 3.82 22.27 2.53 2.99 6.19 4.9 10.09 5.22 3.32.27 6.64-.99 9.22-3.02 4.48-3.52 5.96-9.29 5.79-14.77-.1-3.11-.72-6.21-1.74-9.15s-2.62-7.44-6.07-8.18c-1.19-.26-2.47 1.36-1.32 2.27 1.93 1.53 2.99 4.05 3.78 6.33a27.8 27.8 0 0 1 1.43 6.43c.41 4.14 0 8.76-2.61 12.18-1.27 1.66-3.08 2.88-5.07 3.51-2.86.91-5.9.15-8.32-1.51-5.15-3.54-6.87-11.15-6.02-17.02.5-3.43 1.92-6.77 4.52-9.11 2.38-2.15 6.11-3.69 9.34-3.02 1.79.37 2.56-2.35.76-2.76Z"/><path d="M57.24 47.14c-4.1 1.73-8.79 2.04-13.08.85-2.13-.59-4.44-1.89-4.76-4.08-.32-2.21 1.55-4.09 3.35-5.41a43.47 43.47 0 0 1 21.83-8.27c1.13-.1 2.31-.15 3.35.29 2.15.9 3.02 3.68 2.41 5.94-.6 2.25-2.31 4.04-4.11 5.52-2.62 2.15-5.59 3.89-8.79 4.99"/><path d="M56.81 45.55c-1.17.19-2.3.57-3.48.75-1.29.2-2.59.24-3.89.21-2.06-.05-4.34-.3-6.18-1.3-1.4-.75-2.08-1.77-.99-3.18 1.3-1.68 3.43-2.86 5.22-3.92 4.03-2.39 8.43-4.06 13.03-4.99 1.06-.22 2.13-.4 3.21-.51.99-.11 2.32-.4 3.27 0 1.19.5 1.42 2.12 1.14 3.24-.54 2.21-2.65 3.91-4.39 5.19-2.11 1.56-4.41 2.9-6.88 3.81-2.6.96-1.54 5.12 1.16 4.22 3-1 5.84-2.43 8.37-4.33 2.36-1.77 4.63-3.79 5.77-6.58 1-2.45.86-5.36-.69-7.56-1.95-2.77-5.09-2.89-8.17-2.52-6.25.74-12.31 2.7-17.76 5.86-2.52 1.46-5.25 3.13-7.01 5.49s-1.95 5.63.12 7.97 5.7 3.16 8.79 3.43c3.41.3 7.78-.22 10.64-2.26 1.56-1.11.59-3.31-1.27-3.01Zm19.58 47.97c-3.92 2.74-5.11 9.72-3.53 14.02.43 1.17 1.36 2.24 2.59 2.49 5.7 1.15 6.92-7.97 6.39-11.74-.3-2.14-.86-7.19-3.99-5.46-.49.27-1.58 1.02-1.94 1.46-.71.89-1.43 1.78-2.14 2.67"/><path d="M75.58 92.14c-3.76 2.38-5.37 7.05-5.35 11.33 0 2.14.36 4.62 1.67 6.38a5.55 5.55 0 0 0 6.17 1.95c3.46-1.12 4.92-5 5.49-8.27.53-3.07.45-6.41-.56-9.39-.73-2.14-2.33-4.05-4.83-3.51-1.15.25-2.18 1.04-3.07 1.77-.59.48-1.02 1.11-1.48 1.71-.58.76-1.12 1.47-1.39 2.41-.4 1.37 1.14 2.45 2.34 1.8 1.87-1.01 2.53-3.09 4.44-3.91-.31.14.03-.02.11-.01.28.02-.42.11 0 .02l-.25-.03c.2.06.17.04-.1-.06.27.21-.03-.2-.02-.03 0 0 .35.44.02-.02.09.12.16.26.24.38.04.06.25.54.08.12.07.16.12.32.17.48.2.61.34 1.25.45 1.89a23 23 0 0 1 .19 1.25c.07.49 0 0 0 .06.11 1.16.12 2.33.02 3.49-.02.3-.05.59-.09.88.06-.42-.03.17-.04.21-.03.18-.06.36-.1.54-.13.65-.31 1.29-.53 1.91-.01.03-.23.57-.07.2-.07.16-.14.31-.22.47-.12.25-.26.49-.41.73-.09.14-.18.27-.27.4.21-.28.05-.06 0 0-.1.11-.21.22-.32.34-.07.07-.15.14-.23.2.18-.14.19-.15.02-.03-.13.08-.77.36-.34.21-.24.08-.48.15-.73.19.49-.08-.03-.01-.12-.02-.17-.01-.34 0-.51-.03.39.05.04 0-.01-.02-.24-.11-.4-.12-.64-.32-.44-.37-.65-1-.82-1.57-.23-.8-.3-1.33-.35-2-.22-3.35.59-7.35 3.36-9.6 1.41-1.15-.42-3.48-1.94-2.52Zm23.22 1.38c-3.92 2.74-5.11 9.72-3.53 14.02.43 1.17 1.36 2.24 2.59 2.49 5.7 1.15 6.92-7.97 6.39-11.74-.3-2.14-.86-7.19-3.99-5.46-.49.27-1.58 1.02-1.94 1.46-.71.89-1.43 1.78-2.14 2.67"/><path d="M97.99 92.14c-3.76 2.38-5.37 7.05-5.35 11.33 0 2.14.36 4.62 1.67 6.38a5.55 5.55 0 0 0 6.17 1.95c3.46-1.12 4.92-5 5.49-8.27.53-3.07.45-6.41-.56-9.39-.73-2.14-2.33-4.05-4.83-3.51-1.15.25-2.18 1.04-3.07 1.77-.59.48-1.02 1.11-1.48 1.71-.58.76-1.12 1.47-1.39 2.41-.4 1.37 1.14 2.45 2.34 1.8 1.87-1.01 2.53-3.09 4.44-3.91-.31.14.03-.02.11-.01.28.02-.42.11 0 .02l-.25-.03c.2.06.17.04-.1-.06.27.21-.03-.2-.02-.03 0 0 .35.44.02-.02.09.12.16.26.24.38.04.06.25.54.08.12.07.16.12.32.17.48.2.61.34 1.25.45 1.89a23 23 0 0 1 .19 1.25c.07.49 0 0 0 .06.11 1.16.12 2.33.02 3.49-.02.3-.05.59-.09.88.06-.42-.03.17-.04.21-.03.18-.06.36-.1.54-.13.65-.31 1.29-.53 1.91-.01.03-.23.57-.07.2-.07.16-.14.31-.22.47-.12.25-.26.49-.41.73-.09.14-.18.27-.27.4.21-.28.05-.06 0 0-.1.11-.21.22-.32.34-.07.07-.15.14-.23.2.18-.14.19-.15.02-.03-.13.08-.77.36-.34.21-.24.08-.48.15-.73.19.49-.08-.03-.01-.12-.02-.17-.01-.34 0-.51-.03.39.05.04 0-.01-.02-.24-.11-.4-.12-.64-.32-.44-.37-.65-1-.82-1.57-.23-.8-.3-1.33-.35-2-.22-3.35.59-7.35 3.36-9.6 1.41-1.15-.42-3.48-1.94-2.52Zm-14.04 25.94c1.28.37 2.63.57 3.96.59.59.01 1.19-.02 1.78-.09.4-.05.81-.1 1.21-.17.44-.08.83-.25 1.22-.46.59-.31.94-1.15.73-1.79s-.81-1.17-1.53-1.16c-.41 0-.79.03-1.2.11-.12.03-.25.05-.38.07-.1.02-.64.16-.18.03-.5.14-1.13.1-1.65.1-.14 0-1.65-.1-1.65-.1q.345.045.06 0c-.06 0-.13-.02-.19-.03-.15-.02-.29-.05-.44-.08q-.435-.09-.87-.21c-.83-.22-1.83.28-2.03 1.15s.26 1.77 1.15 2.03ZM22.08 133.1c-2.89-.13-5.93-.23-8.51 1.08s-4.42 4.55-3.17 7.16c.41.85 1.09 1.54 1.83 2.12 2.01 1.56 4.51 2.35 6.99 2.92 3.24.74 6.55 1.16 9.86 1.55 15.82 1.87 31.99 3.19 47.58-.07-10.36 0-20.76-.27-31-1.81-2.66-.4-5.33-.9-7.8-1.96-1.95-.84-3.73-2.01-5.49-3.19-3.48-2.33-6.92-4.71-10.33-7.13-.11-.08-.24-.2-.19-.33s.3 0 .19.08"/><path d="M22.48 131.64c-5.42-.74-11.93-.42-14.18 5.55-2.34 6.22 4.58 9.85 9.51 11.13 6 1.56 12.33 2.09 18.49 2.72s12.85 1.08 19.32.94c7.24-.15 14.38-1.33 21.51-2.44 2.04-.32 1.39-3.31-.46-3.42-9.69-.59-19.37-.49-29-1.89-2.25-.33-4.52-.67-6.71-1.3s-4.09-1.66-5.99-2.88c-2-1.29-3.95-2.65-5.91-3.99-.93-.64-1.86-1.28-2.78-1.92s-2.06-1.25-2.89-2.03l.54.93-.04-.18-.97 2.39.09-.05h-2.14l.11.05c-.32-.8-.65-1.59-.97-2.39v.08c-.21 1.12.29 2.28 1.46 2.6 1.02.28 2.4-.35 2.6-1.48v-.08c.17-.87-.07-1.97-.96-2.39-.8-.38-1.54-.45-2.34 0-.86.48-1.16 1.47-.97 2.39s.86 1.37 1.56 1.88c.85.61 1.71 1.21 2.56 1.81 1.65 1.16 3.3 2.31 4.96 3.44 3.2 2.17 6.37 4.43 10.08 5.65 3.76 1.23 7.83 1.61 11.75 2.03s8.06.68 12.1.83c4.59.17 9.26.25 13.85-.02-.15-1.14-.31-2.28-.46-3.42-5.39 1.38-10.95 1.63-16.49 1.57s-11.1-.32-16.66-.74-11.06-1.01-16.57-1.68c-2.65-.32-5.32-.73-7.91-1.4-2.06-.53-4.65-1.32-5.99-3.11-1.16-1.54.13-3.53 1.42-4.52 2.21-1.69 5.44-1.56 8.07-1.69 1.6-.08 2.18-2.73.4-2.98Zm71.58-77.99.21-1.76c.07-.59.15-1.17.12-1.76-.03-.76-.55-1.39-1.32-1.5s-1.46.36-1.67 1.09c-.2.69-.26 1.42-.34 2.13l-.21 1.8c-.04.38.21.88.47 1.14.28.28.74.49 1.14.47s.85-.16 1.14-.47l.25-.33c.15-.25.22-.52.22-.81Zm13.81 6.58c.31-.49.64-.97.99-1.43l-.25.32c.5-.64 1.04-1.26 1.62-1.83s1.22-1.08 1.8-1.65.58-1.43.12-2.03-1.31-.78-2-.4c-1.07.6-2 1.51-2.81 2.42s-1.57 1.93-2.2 3c-.42.71-.18 1.76.57 2.16s1.69.18 2.16-.57Zm9.06 8.79c.18-.15.35-.3.54-.44l-.31.24c.44-.34.9-.65 1.37-.95.23-.14.47-.27.69-.41.25-.15.48-.32.73-.47.65-.39.92-1.2.62-1.9-.28-.65-1.08-1.14-1.8-.88-.43.15-.89.3-1.28.53a11.8 11.8 0 0 0-2.71 2.14c-.27.29-.44.67-.44 1.07 0 .37.17.82.44 1.07s.67.46 1.07.44.75-.17 1.07-.44Zm5.97 11.06c2.01 0 2.01-3.12 0-3.12s-2.01 3.12 0 3.12m45.81-7.97c-1.03-1.67-2.48-3.03-3.91-4.37-6.56-6.13-13.12-12.26-19.68-18.4-.97-.9-2.77-2.5-4.09-2.63-1.13-.11-2.32 3.29-3.46 7.04l1.26-4.19c-.49 1.62-.98 3.24-1.46 4.86-.12.39-.24.79-.35 1.18l.24-.8c-3.15 10.52-6.14 21.1-7.96 31.92-.19 1.11-.34 2.32.24 3.29.86 1.44 2.85 1.59 4.52 1.51 9.8-.52 19.21-3.87 28.31-7.53 3.13-1.26 6.63-2.99 7.47-6.26.49-1.9-.08-3.95-1.11-5.62Zm-25.16 4.14c.13-.03.25-.07.38-.1-2.43-4.59-4.55-9.34-6.33-14.21 3.14-2.08 6.81-3.36 10.57-3.69 1.47 5.2 2.94 10.41 4.42 15.61-2.89.76-5.77 1.53-8.66 2.29.1.2.2.4.31.6l-.68-.5Zm11.05 7.16c-2.47 1.17-5.5 1.27-7.89-.06-.37-.21-.74-.46-.94-.83s-.22-.81-.2-1.23c.03-.72.13-1.44.39-2.11.55-1.37 1.75-2.39 3.08-3.02.98-.47 2.03-.75 3.1-.98l-.18-.03-4.09.63c1.25-.63 2.71-.84 4.09-.63l1.31-.2c-.38.08-.76.15-1.14.23.8.14 1.57.42 2.27.83.63.38 1.19.85 1.68 1.4.7.77 1.27 1.75 1.22 2.78-.08 1.47-1.38 2.59-2.71 3.22Z"/><path d="M170.44 71.1c-2.38-3.71-6.14-6.57-9.33-9.55l-10.57-9.88c-1.56-1.45-3.08-2.95-4.68-4.36-1.31-1.14-2.99-2.56-4.83-2.6-1.51-.03-2.53 1.23-3.16 2.45-.99 1.9-1.6 4.02-2.23 6.06l3.86 1.06 1.26-4.19c.74-2.47-3.11-3.52-3.86-1.06-.61 2.01-1.22 4.03-1.82 6.04-.74 2.47 3.12 3.53 3.86 1.06l.24-.8-3.86-1.06c-1.94 6.5-3.83 13.01-5.41 19.6-.77 3.21-1.48 6.45-2.08 9.7-.51 2.72-1.54 6.11.69 8.36 2.01 2.03 5.29 1.66 7.86 1.41 3.27-.32 6.51-.9 9.69-1.69 6.13-1.53 12.14-3.73 17.95-6.2 2.56-1.09 5.12-2.49 6.7-4.86 1.95-2.93 1.43-6.57-.27-9.48-1.3-2.22-4.76-.21-3.45 2.02 1.1 1.87 1.51 4.08-.04 5.83-1.33 1.5-3.31 2.37-5.13 3.11-5.13 2.09-10.34 4.03-15.69 5.44-2.62.69-5.29 1.27-7.98 1.64-1.36.18-2.73.32-4.1.38-.71.03-2.02.2-2.61-.34s-.29-1.5-.18-2.16c.25-1.51.54-3.02.84-4.52.55-2.77 1.17-5.52 1.84-8.26 1.55-6.35 3.37-12.63 5.24-18.9.74-2.47-3.12-3.53-3.86-1.06l-.24.8 3.86 1.06c.6-2.01 1.21-4.03 1.82-6.04l-3.86-1.06-1.26 4.19c-.74 2.47 3.1 3.52 3.86 1.06.51-1.66.97-3.4 1.75-4.95.3-.59.89-1.03-.06-.71-.67.23-.28.08.11.27.31.16.61.36.89.57 1.33.97 2.49 2.21 3.7 3.33 1.46 1.36 2.92 2.73 4.37 4.09l8.75 8.18c1.46 1.36 2.92 2.72 4.37 4.09 1.31 1.23 2.63 2.45 3.6 3.97 1.38 2.16 4.85.16 3.45-2.02Z"/><path d="m144.08 78.18.38-.1c1.29-.34 1.79-1.81 1.2-2.94-2.34-4.44-4.4-9.02-6.13-13.74-.31.75-.61 1.51-.92 2.26 2.87-1.87 6.13-3.09 9.56-3.42l-1.93-1.47c1.47 5.2 2.94 10.41 4.42 15.61.47-.82.93-1.64 1.4-2.46-2.89.76-5.77 1.53-8.66 2.29-1.3.35-1.77 1.81-1.2 2.94.1.2.2.4.31.6l2.74-2.74-.68-.5c-.87-.64-2.23-.15-2.74.72-.59 1.01-.16 2.1.72 2.74l.68.5c.71.51 1.84.27 2.42-.31.65-.65.72-1.63.31-2.42-.1-.2-.2-.4-.31-.6l-1.2 2.94c2.89-.76 5.77-1.53 8.66-2.29 1.04-.28 1.69-1.43 1.4-2.46-1.47-5.2-2.94-10.41-4.42-15.61-.22-.78-1.06-1.55-1.93-1.47-4.13.39-8.09 1.69-11.58 3.96-.69.45-1.23 1.41-.92 2.26 1.85 5.04 4.03 9.95 6.53 14.69l1.2-2.94-.38.1c-2.49.66-1.43 4.52 1.06 3.86Z"/><path d="M153.6 81.68c-.42.19.17-.04-.22.1-.18.06-.36.13-.54.19-.37.11-.74.19-1.12.27-.43.09.25 0-.23.03-.19.01-.38.03-.57.04q-.525.015-1.05-.03c-.09 0-.19-.02-.28-.03q.285.045.06 0c-.18-.05-.37-.07-.56-.12-.34-.08-.67-.19-.99-.32.35.14-.14-.08-.21-.11-.16-.09-.33-.18-.48-.28.14.11.15.12.05.03-.1-.1-.09-.08.04.05.05.13.08.52.07.14 0-.19 0-.39.01-.58 0-.06.08-.64.03-.33.03-.18.07-.35.12-.52l.09-.31c-.07.14-.08.15-.02.03.13-.29.3-.57.5-.82-.25.33.08-.07.14-.13.12-.13.26-.24.39-.36.32-.31-.19.1.16-.12.15-.1.3-.2.45-.29s.31-.18.47-.26c.01 0 .51-.23.28-.14.8-.33 1.66-.53 2.5-.72s1.51-1.09 1.47-1.93-.59-1.77-1.47-1.93c-1.01-.19-2.11.1-3.11.25-.74.11-1.48.23-2.22.34.51 1.22 1.03 2.44 1.54 3.66.3-.15-.02 0 .16-.08.13-.05.25-.09.38-.13.29-.09.58-.15.88-.21-.33.06.1 0 .16 0 .17-.01.33-.02.5-.01.13 0 .27.01.4.01.46.01-.3-.06.33.03s1.45-.14 2.11-.24l-1.06-3.86c-.38.08-.76.15-1.14.23-1.88.4-1.93 3.49 0 3.86.46.09.93.2 1.36.39-.29-.12.37.21.43.25.17.1.34.21.5.33-.25-.18.31.27.36.32.14.14.28.28.42.43.08.09.16.18.24.28-.12-.16-.12-.14.02.04.04.06.34.58.25.41-.08-.16.11.36.13.45-.13-.54-.02.44 0 .09.01-.25-.09.3-.12.38.16-.44-.09.09-.14.18-.08.12-.06.09.06-.07-.07.09-.15.17-.23.25-.05.05-.49.42-.32.3s-.32.2-.37.24c-.2.12-.4.22-.61.33-.94.46-1.27 1.87-.72 2.74.62.97 1.73 1.21 2.74.72 2.43-1.19 4.47-3.82 3.44-6.64-.98-2.69-3.6-4.72-6.38-5.26v3.86c.38-.08.76-.16 1.14-.23 1.03-.21 1.71-1.48 1.4-2.46-.37-1.13-1.35-1.57-2.46-1.4l-1.31.2h1.06c-1.99-.27-3.82-.05-5.64.83-.89.43-1.18 1.65-.82 2.5.42.98 1.36 1.31 2.36 1.16l4.09-.63h-1.06l.18.03v-3.86c-2.14.47-4.28 1.23-5.88 2.79s-2.55 4.21-2.06 6.5c.54 2.48 3.51 3.42 5.72 3.7s4.26-.2 6.22-1.1c.95-.44 1.26-1.89.72-2.74-.63-.98-1.72-1.19-2.74-.72ZM28.36 98.05c2.61.34 4.53 3.18 5.58 5.36 1.13 2.36 1.63 5.09 1.78 7.69s.15 5.08-.24 7.53c-.2 1.22-.5 2.47-1.03 3.59-.55 1.18-1.48 1.95-2.15 3.02-.92 1.47.84 2.87 2.21 2.21s2.36-2.33 2.97-3.66 1.02-2.79 1.24-4.27c.48-3.18.37-6.41 0-9.6s-1.12-6.41-2.81-9.19c-1.63-2.69-4.21-5.2-7.54-5.2-1.68 0-1.57 2.33 0 2.53Zm8.11-5.56c.09-3.17.24-6.31.85-9.44.55-2.83 1.22-5.86 2.65-8.39 2.85-5.01 9.73-6.32 14.76-7.97 2.04-.67 1.18-3.46-.87-3.15-3.35.51-6.72 1.82-9.79 3.23-2.79 1.29-5.3 3.1-6.88 5.79-1.6 2.74-2.43 6.05-3 9.14-.65 3.53-.95 7.21-.53 10.78.21 1.74 2.74 1.85 2.8 0Z"/><path d="M35 127.31c.4 6.22 3.63 11.85 8.48 15.71 2.62 2.08 5.55 3.64 8.71 4.71s6.83 2.03 10.06 1.45c1.72-.31 1.45-2.76 0-3.22s-2.9-.5-4.33-.78-2.89-.62-4.3-1.07c-2.7-.86-5.29-2.11-7.58-3.78-4.16-3.03-7.4-7.86-8.08-13.01-.24-1.83-3.1-1.95-2.97 0Z"/></svg>