<?xml version="1.0" encoding="UTF-8"?><svg xmlns="http://www.w3.org/2000/svg" viewBox="0 0 180 180"><path d="M131.25 30.15c-4.78-.36-9.63-.12-14.25 1.17-12.84 3.6-22 14.63-30.3 25.07-8.62-18.78-26.34-36.93-48.44-36.44-7.73.17-15.58 3.19-20.63 9.04-8.05 9.31-8.64 24.31-6.72 35.9 2.02 12.18 7.31 23.57 13.28 34.38 10.24 18.54 31.61 50.98 45.85 66.66l.08-1.77c8.24-13.48 21.96-22.61 35.82-30.18 13.86-7.58 28.48-14.16 40.51-24.41 11.32-9.65 23.23-23.84 23.55-39.43.42-20.78-18.58-38.46-38.74-39.99Zm-2.97 72.15c-13.48 12.02-31.94 18.47-49.97 16.15-18.32-2.36-39.89-15.12-46.04-33.53l-.21-.67 1.17.83c11.7-1.84 19.82-13.2 31.23-16.38 7.43-2.07 15.83-.22 21.7 4.77.42.36.87.75 1.42.8.78.08 1.44-.54 2.01-1.08 2.38-2.28 5.24-4.09 8.41-4.99 5.67-1.6 11.86-.13 16.98 2.78s9.34 7.16 13.37 11.46c3.35 3.57 7.05 7.45 11.91 8.07-1.63-.21-10.31 10.3-11.98 11.79"/><path d="M131.25 28.15c-7.79-.56-15.48.63-22.41 4.36-6.13 3.3-11.32 8.16-15.93 13.31-2.65 2.96-5.15 6.05-7.62 9.16 1.05.13 2.09.27 3.14.4-6.65-14.39-17.91-27.78-32.78-34.03-7.56-3.17-16.12-4.38-24.17-2.56-8.28 1.87-15.4 7.07-19.22 14.7-3.64 7.29-4.6 15.72-4.18 23.77.47 9.15 2.83 18.04 6.31 26.48 6.12 14.83 14.85 28.62 23.58 42.03 8.55 13.13 17.49 26.17 27.64 38.12.99 1.16 1.99 2.31 3.02 3.44 1.22 1.35 3.34.23 3.41-1.41l.08-1.77-.27 1.01c7.29-11.83 18.81-20.14 30.67-26.98 12.87-7.42 26.6-13.38 38.73-22.05 11.18-8 21.88-18.59 27.37-31.38 2.63-6.11 3.95-12.74 3.13-19.39-.75-6.07-2.94-11.88-6.34-16.97-6.71-10.03-17.58-17.42-29.47-19.63-1.55-.29-3.11-.49-4.68-.61-2.57-.21-2.55 3.79 0 4 11.63.94 22.83 7.45 29.7 16.84 3.47 4.74 5.91 10.21 6.75 16.04.91 6.27-.28 12.69-2.86 18.44-5.64 12.57-16.35 22.92-27.59 30.59-12.2 8.33-25.83 14.2-38.52 21.7-5.98 3.54-11.77 7.45-17.03 12-2.59 2.23-5.04 4.63-7.28 7.21-1.12 1.29-2.19 2.63-3.21 4s-2.33 2.86-2.92 4.41c-.29.77-.21 1.72-.25 2.54 1.14-.47 2.28-.94 3.41-1.41-9.7-10.7-18.02-22.73-26.04-34.71-8.24-12.31-16.3-24.9-23-38.14-7.5-14.82-13.14-32.19-9.23-48.89 1.78-7.61 5.87-14.25 12.99-17.87 7.04-3.58 15.42-3.66 22.92-1.61 14.73 4.03 26.18 16.09 33.36 29.12.9 1.63 1.74 3.3 2.52 4.99.5 1.09 2.38 1.36 3.14.4 7.97-10.02 16.91-21.25 29.86-24.68 4.33-1.15 8.82-1.3 13.27-.98 2.57.18 2.56-3.82 0-4Z"/><path d="M126.86 100.89c-11.69 10.36-27.17 16.45-42.85 16.01-13.59-.39-27.33-6.03-37.52-14.99-5.61-4.94-10.2-11.02-12.5-18.19-.98.75-1.96 1.51-2.94 2.26.37.26.74.58 1.13.8.92.52 2.03.18 3-.04 1.85-.42 3.63-1.09 5.35-1.87 3.48-1.58 6.63-3.77 9.74-5.96 6.27-4.43 12.75-9.17 20.78-9.03 4.03.07 8.01 1.24 11.43 3.37 1.58.98 3.15 2.96 5.11 3.03 2.32.08 3.85-2.24 5.55-3.46 3.55-2.55 7.7-3.66 12.05-3.14 4.41.53 8.48 2.56 12.04 5.13 4.02 2.91 7.37 6.61 10.79 10.18 3.21 3.36 6.94 6.75 11.72 7.45l.53-3.93c-1.29-.06-2.46 1-3.36 1.79-1.33 1.16-2.55 2.46-3.75 3.75-2.09 2.25-4.01 4.76-6.28 6.83-1.91 1.74.93 4.56 2.83 2.83 2.07-1.88 3.82-4.17 5.72-6.22 1.15-1.24 2.3-2.48 3.53-3.65l.78-.72c.12-.11.77-.61.41-.36.17-.12.35-.22.51-.34.18-.14-.31.08-.39.08 2.21.1 2.79-3.6.53-3.93-4.01-.59-6.97-3.33-9.68-6.14-3-3.11-5.91-6.31-9.25-9.07-6.7-5.51-15.6-9.59-24.39-7.1-2 .57-3.94 1.47-5.67 2.62-.89.58-1.74 1.23-2.54 1.92-.39.33-.9.7-1.22 1.1-.09.11-.31.21-.37.33.11-.2.45.33-.02-.13-2.81-2.79-7.03-4.62-10.83-5.51-3.97-.94-8.15-.98-12.12-.03-3.71.89-7.17 2.68-10.37 4.71-6.91 4.39-13.27 10.48-21.62 11.86.51.07 1.03.13 1.54.2l-1.17-.83c-1.43-1.01-3.45.67-2.94 2.26 4.5 14 16.52 24.34 29.59 30.27 6.66 3.02 13.73 5.04 21.03 5.66 8.27.71 16.71-.39 24.59-2.96 9-2.94 17.28-7.76 24.35-14.03 1.93-1.71-.91-4.53-2.83-2.83Z"/><path d="M32.63 87.98c6.69 2.29 14.02 3.14 21.07 2.9 3.42-.12 6.82-.54 10.18-1.19 3.71-.72 7.27-1.36 11.05-.73 3.59.6 7.09 1.49 10.73 1.81 3.51.31 7.05.39 10.55-.06 3.59-.46 6.92-1.22 10.57-.66s6.97 1.65 10.49 2.3c7.82 1.45 16.37 1.92 24.19.25 2.03-.43 1.62-3.87-.5-3.67-3.64.35-7.23.79-10.9.8-3.48.01-6.96-.22-10.4-.74s-6.88-1.48-10.34-2.13c-3.52-.67-6.81-.64-10.33 0s-7 .76-10.58.6c-3.64-.16-7.11-.83-10.69-1.44-3.52-.6-6.89-.72-10.43-.21-3.45.49-6.86 1.13-10.34 1.39-7.98.6-15.77-.28-23.56-1.98-1.8-.4-2.5 2.16-.76 2.76"/><path d="M38.9 89.35c11.37 3.66 22.53 7.89 34.27 10.29 10.49 2.14 21.46 2.88 32 .67 5.55-1.16 11.72-3.18 16.15-6.85 1.64-1.36-.45-3.75-2.19-2.83-2.22 1.17-4.3 2.52-6.63 3.5s-4.57 1.67-6.93 2.24c-4.87 1.17-9.88 1.59-14.88 1.54-11.13-.11-21.93-2.54-32.58-5.64-6.18-1.8-12.34-3.63-18.55-5.32-1.55-.42-2.18 1.91-.66 2.4m55.51-59.38c-.39-.54-.7-1.16-1.04-1.74s-.66-1.18-.98-1.79-.6-1.22-.88-1.84c-.08-.18-.07-.16.03.07-.03-.08-.06-.16-.1-.23-.06-.16-.13-.31-.19-.47a6.3 6.3 0 0 0-.6-1.19c-.45-.7-1.29-1.01-2.07-.68-.32.13-.63.36-.79.68-.22.42-.23.81-.17 1.28.11.81.48 1.54.82 2.27q.45.945.96 1.86c.51.915.7 1.16 1.09 1.72.21.3.42.59.64.87.28.36.6.68.87 1.03.46.59 1.45.53 1.99.12s.83-1.34.39-1.96Zm14.75-6.57c.02-1.47-.02-2.92-.14-4.39-.06-.72-.12-1.43-.2-2.15-.1-.9-.09-1.95-.55-2.75-.71-1.23-2.76-1.03-3.1.4-.21.9.05 1.83.18 2.73.06.42-.02-.2.02.19.02.19.05.38.07.58l.12 1.07c.15 1.43.29 2.87.42 4.31.08.82.68 1.63 1.59 1.59s1.57-.7 1.59-1.59Zm14.93-3.06c.4-1.32.81-2.64 1.2-3.96s.85-2.63 1.11-3.98c.16-.84-.23-1.8-1.14-2.01s-1.69.28-2.01 1.14c-.47 1.29-.75 2.66-1.09 3.99s-.67 2.67-1 4.01c-.19.77.25 1.68 1.06 1.86s1.62-.25 1.86-1.06Zm17.78-.27c.36-.64.76-1.25 1.2-1.82l-.24.31c.19-.25.39-.49.6-.73.1-.12.21-.23.31-.34.19-.21.33-.44.49-.67l.15-.36q.09-.3.03-.6c-.04-.32-.17-.65-.42-.87a1.74 1.74 0 0 0-.67-.39c-.33-.11-.88-.06-1.17.15-.22.17-.48.32-.66.53-.11.13-.22.26-.33.4-.29.36-.57.72-.83 1.09-.4.56-.76 1.15-1.07 1.77-.19.36-.26.77-.15 1.17.1.35.37.73.7.91.72.38 1.66.19 2.07-.54Zm11.2 5.41.22-.02c.22 0 .43-.04.63-.14.2-.07.38-.18.53-.34.16-.15.27-.32.34-.53.1-.19.15-.4.14-.63l-.06-.43q-.12-.42-.42-.72l-.33-.26c-.25-.15-.53-.22-.82-.22l-.22-.02c-.23 0-.44.04-.64.14-.2.07-.38.18-.53.34-.16.15-.27.33-.34.53-.1.2-.15.41-.14.64l.06.44c.08.28.22.52.42.73l.33.26c.26.15.53.22.83.23"/><path d="M60.94 89.11c-.05 1.05-.11 2.11-.12 3.16l-.02 1.55v.78c0 .47.09.88.29 1.31.44.92 2.01.92 2.44 0 .2-.43.3-.83.29-1.31v-.72l-.02-1.61c-.01-1.05-.08-2.11-.12-3.16-.03-.71-.6-1.39-1.36-1.36s-1.33.6-1.36 1.36Zm12.1-2.26c-.29 1.61-.27 3.25-.29 4.88 0 .79-.02 1.58-.02 2.37 0 .86-.05 1.71.1 2.57.23 1.35 2.49 1.35 2.73 0 .15-.85.11-1.7.1-2.57 0-.79-.02-1.58-.02-2.37-.02-1.63 0-3.27-.29-4.88-.21-1.14-2.1-1.14-2.31 0m12.03 3.64c-.12 1.17-.05 2.36-.05 3.53 0 .57 0 1.13-.02 1.7 0 .28-.02.57-.02.85 0 .27 0 .53.08.79.05.15.12.3.19.45.08.14.09.13.02-.02.21.54.57.93 1.17 1.01.52.07 1.16-.17 1.4-.67.09-.16.07-.15-.06 0 .13-.11.22-.24.28-.38.19-.33.24-.67.27-1.04.02-.28.01-.57.01-.85v-1.84c-.02-1.31-.04-2.64-.32-3.93-.16-.73-.95-1.17-1.65-1.07-.78.11-1.22.72-1.3 1.47m13.23-1.65a100 100 0 0 1-.14 5.19c-.05.85-.12 1.69-.2 2.54-.09.95-.4 2.06.08 2.92.41.75 1.55.9 2.14.28.73-.78.69-2.09.78-3.1.08-.85.14-1.69.18-2.54.09-1.76.11-3.52.01-5.29-.04-.77-.62-1.42-1.42-1.42s-1.42.65-1.42 1.42Zm11.07 1.1c-.04 1.05-.07 2.11-.08 3.16l-.02 1.55c0 .66-.1 1.49.28 2.05.57.86 1.75.86 2.32 0 .36-.55.29-1.35.28-1.99 0-.54-.01-1.07-.02-1.61-.01-1.06-.04-2.11-.08-3.16-.03-.7-.6-1.38-1.34-1.34s-1.32.59-1.34 1.34"/></svg>