<?xml version="1.0" encoding="UTF-8"?><svg xmlns="http://www.w3.org/2000/svg" viewBox="0 0 180 180"><path d="M110.12 12.38c-15.33 3.6-29.61 11.01-42.36 20.13-12.66 9.07-24.07 20.07-34.05 32.01-9.91 11.85-18.44 25.12-23.04 39.98-2.13 6.9-3.7 14.33-3.17 21.58.51 6.84 2.55 13.73 6.62 19.32 4.35 5.97 10.49 9.95 17.71 11.53 7.35 1.6 15.02.92 22.34-.49 13.96-2.68 27.13-8.6 39.07-16.22 12.63-8.07 24.06-18.14 33.94-29.4 9.64-10.99 18-23.25 24.05-36.58 2.93-6.46 5.32-13.17 6.91-20.1 1.77-7.66 2.62-15.89.46-23.57-3.73-13.24-16.61-22.92-30.43-22.32-3.42.15-6.43 1.05-9.61 2.21-2.16.79-1.23 4.28.96 3.48 2.85-1.04 6.15-1.41 9.17-1.42s5.95.42 8.8 1.34c5.79 1.87 10.76 5.68 14.02 10.83 7.85 12.39 3.16 28.63-1.72 41.25-4.87 12.58-11.94 24.35-20.28 34.93-8.85 11.23-19.17 21.4-30.67 29.9-11.03 8.15-23.22 15-36.29 19.28-6.32 2.07-12.96 3.69-19.62 3.95-6.97.28-14.27-.84-19.92-5.24-10.23-7.97-11.78-22.92-9.39-34.77 2.9-14.41 9.87-27.56 18.59-39.28 8.72-11.73 19.14-22.5 30.32-31.89 11.43-9.6 24.21-17.89 38.09-23.47 3.41-1.37 6.89-2.59 10.41-3.67 2.1-.64 1.23-3.79-.91-3.28Z"/><path d="M21.82 150.21c7.36 6.65 16.43 14.3 25.97 17.52s19.68 2.09 28.85-.87c42.48-13.69 75.04-47.95 89.51-89.74 3.56-10.29 5.76-23.03 1.55-33.41-4.07-10.07-11.39-18.71-19.37-25.93 9.91 10.21 12.31 25.81 10.09 39.4-2.11 12.9-9.63 24.26-17.28 34.56-7.93 10.68-15.47 21.8-24.78 31.37-10.56 10.85-22.94 17.86-36.1 25.06-12.32 6.74-31.72 11.35-45.64 9.55"/><path d="M20.52 151.51c6.8 6.33 14.03 12.71 22.55 16.61 9.05 4.14 18.98 4.46 28.6 2.33 8.15-1.8 16.11-5.14 23.59-8.79s13.95-7.61 20.36-12.29c12.98-9.49 24.28-21.11 33.51-34.27 4.57-6.51 8.61-13.39 12.08-20.54s6.86-15.21 8.9-23.22c2.27-8.9 3.18-18.85-.15-27.61-3.28-8.63-8.94-16.23-15.34-22.8a105 105 0 0 0-4.81-4.62c-1.98-1.79-4.81 1-2.94 2.94 8.76 9.13 11.24 22.35 9.95 34.59-1.51 14.29-9.71 26.32-18.06 37.55-8.84 11.89-17.24 24.43-28.37 34.37-5.15 4.6-10.82 8.55-16.7 12.16-5.82 3.57-11.81 7.14-18 10.04-6.4 3-13.29 5.04-20.22 6.38-6.82 1.32-13.92 1.93-20.84 1.06-1.25-.16-2.32 1.18-2.32 2.32 0 1.38 1.07 2.16 2.32 2.32 6.43.81 12.93.3 19.3-.76 6.7-1.11 13.31-2.94 19.61-5.48 6.35-2.57 12.31-6.03 18.21-9.48 6.33-3.7 12.49-7.71 18.19-12.34 12.01-9.75 20.95-22.52 29.97-34.93 8.7-11.97 18.06-24.3 20.5-39.3 2.06-12.67.45-26.92-7.33-37.51-1.01-1.37-2.1-2.68-3.28-3.91l-2.94 2.94c6.47 5.88 12.38 12.49 16.54 20.23 2.05 3.81 3.64 7.82 4.19 12.14s.31 8.84-.42 13.16c-1.37 8.06-4.29 15.85-7.61 23.3a149.4 149.4 0 0 1-11.02 20.33c-8.3 12.83-18.64 24.3-30.59 33.83s-25.51 16.99-39.94 21.88c-8.61 2.92-17.9 4.52-26.89 2.33-8.72-2.12-16.28-7.75-23.09-13.37-1.66-1.37-3.29-2.77-4.91-4.19-1.77-1.55-4.36.98-2.61 2.61Z"/><path d="M37 93.33C48.6 71.12 66.92 53.22 87.75 39.6c5.43-3.55 11.12-6.9 17.09-9.44 4.78-2.04 9.89-3.37 15.02-4.19 3.32-.53 6.91-.79 10.11-.08 2.84.62 5.24 1.97 6.71 4.4 2.1 3.46 2.13 7.91 1.8 11.86-.48 5.7-1.95 11.37-3.83 16.76-3.9 11.13-10.18 21.41-17.49 30.6-7.43 9.34-16.03 17.75-25.36 25.19-8.89 7.09-18.65 13.53-29.26 17.75-5.42 2.16-11.16 3.82-17 4.16-4.62.27-10.35.04-14.17-2.95-3.46-2.71-3.88-7.1-3.71-11.19.22-5.37 1.14-10.68 2.9-15.76.81-2.34 1.78-4.68 3.2-6.72 1.19-1.72-1.62-3.35-2.81-1.64-3.25 4.69-4.98 10.27-6.05 15.83-.97 5.03-2.11 10.7-.69 15.75 3.26 11.67 18.05 11.8 27.72 9.91 12.07-2.36 23.39-8.53 33.38-15.5 10.12-7.06 19.54-15.2 27.88-24.3 8.54-9.33 16.07-19.75 21.41-31.25 2.57-5.52 4.67-11.26 6.06-17.19 1.29-5.52 2.22-11.38 1.36-17.03-.58-3.81-2.25-7.4-5.38-9.75-2.78-2.09-6.35-2.8-9.76-2.89-4.09-.12-8.2.56-12.18 1.44-6.3 1.4-12.37 3.74-18.14 6.62-6.07 3.03-11.79 6.82-17.28 10.77-5.36 3.86-10.49 8.05-15.32 12.56-9.51 8.88-18.01 19.11-24.81 30.2-1.67 2.72-3.23 5.5-4.67 8.35-.85 1.68 1.66 3.16 2.54 1.48Z"/><path d="M93.89 56.25c-6.18 3.25-12.36 6.48-18.51 9.79-1.27.69-2.74 1.31-3.51 2.61-.78 1.31-.4 2.88.67 3.88s2.41 1.65 3.76 2.03c.66.19 1.37.3 2.06.35.4.03.78.02 1.18 0l.31-.02c.44.03.42-.02-.05-.15l-.51-.87c-.17-.45.25-.46-.32-.2-.28.13-.58.38-.82.56-.52.37-1.02.77-1.51 1.17-.97.81-1.87 1.71-2.68 2.68-1.71 2.06-3.16 4.46-3.9 7.05s-.59 5.55 1.22 7.74c1.69 2.05 4.26 2.78 6.67 1.62 1.45-.69.8-3.3-.84-3.12-2.98.34-3.6-2.89-2.96-5.12.81-2.82 2.68-5.44 4.78-7.45 1.71-1.64 6.39-4.12 3.57-6.96-1.12-1.13-2.51-.77-3.92-.85-.76-.04-3.22-.55-3.36-1.32v1.02c.08-.55 1.21-.92 1.66-1.17l2.58-1.44c1.79-1 3.58-2 5.36-3.02 3.56-2.03 7.13-4.06 10.7-6.09 1.79-1.02.2-3.71-1.61-2.75Z"/><path d="M86.73 66.08c-.85 1.11-1.58 2.24-1.74 3.66s.44 2.71 1.54 3.51c1.29.93 3.02.57 4.32-.12 1.06-.56 1.97-1.54 2.56-2.56.67-1.16 1.05-2.55.94-3.89-.06-.66-.55-1.31-1.27-1.27s-1.26.56-1.27 1.27c0 .21-.02.42-.04.62-.02.15.01-.11.01-.11 0 .03-.03.17-.03.19-.02.11-.05.22-.08.33-.05.2-.12.4-.19.59-.08.23.11-.24-.03.07l-.15.3c-.1.18-.21.36-.33.53-.03.04-.06.08-.08.12-.15.21.02-.04.05-.06-.08.05-.16.18-.22.25-.14.15-.29.3-.44.44-.04.04-.33.27-.15.13.17-.13-.11.07-.16.11-.17.11-.35.22-.53.32l-.3.15c-.04.02-.19.08 0 0 .21-.08-.03.01-.07.03-.12.04-.25.08-.38.11-.05.01-.11.02-.17.04-.18.05.13-.02.12-.01-.07.06-.29 0-.39 0-.17 0 .12 0 .12.02l-.21-.06c.03-.02.3.17.1.04-.03-.02-.08-.06-.11-.07-.12-.03.11.07.13.11-.01-.03-.07-.06-.09-.08-.04-.04-.07-.09-.12-.12-.11-.08.1.11.1.13 0-.06-.12-.19-.16-.26-.03-.05-.05-.11-.08-.16-.07-.13.07.15.06.15.01-.04-.07-.21-.08-.25-.02-.07-.07-.4-.04-.15s0-.09 0-.16c0-.05.05-.32.02-.35.01.02-.06.29-.01.13.03-.09.04-.18.06-.27.03-.13.08-.24.12-.37.04-.15-.03.07-.04.08.02-.08.08-.17.12-.25.26-.52.59-1.01.91-1.49.4-.58.13-1.52-.48-1.84-.71-.38-1.38-.12-1.84.48ZM78.7 84.69c.44.06.86.12 1.29.07s.88-.11 1.3-.26c.83-.3 1.58-.76 2.13-1.46.14-.13.25-.29.31-.48.09-.18.13-.37.13-.57 0-.36-.16-.79-.43-1.04s-.65-.45-1.04-.43-.77.14-1.04.43c-.13.13-.26.26-.41.37l.3-.23c-.33.25-.69.48-1.08.64l.36-.15c-.31.13-.63.22-.97.26l.4-.05c-.28.04-.57.04-.85.01-.34-.03-.81.18-1.04.43s-.36.52-.4.84 0 .66.17.94c.19.3.51.62.88.67Z"/><path d="M101.07 52.15c-2.91 1.93-6.14 5.32-4.12 9.07.75 1.4 2.09 2.16 3.51 2.75.68.28 2.21.65 2.41 1.29l.93-2.3c-2.87 1.91-5.43 5.32-5.4 8.93.01 1.67.92 3.09 2.41 3.83 1.2.6 2.66.66 3.75 1.46l.5-3.86c-4.78 1.81-9.13 4.66-12.53 8.5-1.68 1.89-3.53 4.11-3.98 6.67s.69 5.23 3.29 6.18c2.18.79 3.34-2.45 1.52-3.61-2.65-1.69 2.49-6.63 3.67-7.79 2.61-2.54 5.74-4.57 9.14-5.87 1.78-.68 2.02-2.75.5-3.86-.82-.6-1.8-.9-2.76-1.17-.32-.09-.7-.16-.99-.28-.12-.05-.42-.21-.44-.25.02.04.09-.05.12.06-.19-.81.56-2.2.95-2.88a7.64 7.64 0 0 1 2.29-2.54c.71-.5 1.24-1.4.93-2.3-.87-2.59-3.11-3.05-5.35-4.03-3.07-1.34-.01-4.26 1.56-5.48 1.43-1.11-.43-3.51-1.94-2.52Z"/><path d="M95.42 50.76c2.27-.98 4.85-1.3 7.3-1.03 1.28.14 2.4.14 3.33-.89.59-.66 1.02-1.22 1.88-1.54 1.55-.57 3.41-.28 4.89.39.62.28 1.74.76 1.77 1.55.03.93-.93 1.99-1.48 2.64-1.12 1.33-.43 3.48 1.45 3.51 2.51.04 5.15.68 6.98 2.5 1.66 1.65 2.12 3.9 1.73 6.16-.34 1.95 2.26 3.34 3.36 1.41 1.88-3.3.62-7.43-1.77-10.11-2.56-2.87-6.55-4.03-10.29-4.07l1.45 3.51c2.01-2.41 3.93-5.84 1.53-8.69-1.75-2.08-4.95-3.09-7.6-3.15a8.8 8.8 0 0 0-3.86.77c-.64.29-1.21.66-1.74 1.11-.25.21-.47.43-.68.67l-.2.26q-.6.705-.06.18c-.73.11-1.61-.08-2.36-.03-.8.05-1.62.15-2.4.32-1.67.36-3.28 1.07-4.74 1.94-1.71 1.01-.21 3.33 1.51 2.59M54.99 93.05c2.35-.45 4.7-.9 7.05-1.32l-.88-3.21c-1.46.42-2.35 2.08-3.14 3.26-.18.27-.36.53-.54.8-.16.24-.07.09.05-.05-.18.21-.35.42-.53.63-.72.86-1.42 1.73-2.12 2.6-1.37 1.72-2.75 3.43-4.22 5.07-.76.84-1.53 1.67-2.35 2.46-.76.74-1.96 1.5-2.42 2.48-.62 1.31.4 2.85 1.91 2.48 1.09-.27 2.02-1.3 2.81-2.06s1.52-1.54 2.25-2.34c1.44-1.6 2.79-3.28 4.12-4.97 1.19-1.5 2.49-2.97 3.56-4.56.37-.54.7-1.11 1.06-1.65.21-.31.42-.62.65-.92-.17.21.09-.08.12-.13.11-.22-.15.06-.33.13.84-.32 1.42-1.12 1.16-2.05-.24-.87-1.18-1.4-2.05-1.16-2.3.62-4.61 1.22-6.91 1.82-1.77.46-1.01 3.05.75 2.71Z"/><path d="M42.13 106.21c1.65 1.2 3.45 2.12 5.39 2.77.9.3 1.82.54 2.75.7 1.06.19 2.18.38 3.26.36v-4.01c-.83.1-1.6.18-2.21.81s-.7 1.8 0 2.44c.65.6 1.37.7 2.21.76 1.05.07 2.05-.97 2.01-2.01-.05-1.15-.88-1.93-2.01-2.01-.49-.03-.98-.03-1.47-.06-.18-.01-.37-.03-.55-.05-.12-.01-.24-.03-.36-.04.22.03.21.03-.02 0-.88-.14-1.74-.32-2.6-.57-.85-.25-1.68-.55-2.5-.89.27.11-.35-.16-.41-.18-.17-.08-.33-.16-.5-.24-.44-.22-.87-.46-1.29-.71-.76-.45-1.89-.2-2.32.61-.47.88-.16 1.76.61 2.32Zm30.85-7.48c-.9.77-.53 2.16.43 2.7.88.49 2.16.35 3.13.3 2.11-.09 4.24-.43 6.28-.98s3.95-1.37 5.77-2.37c.88-.48 1.73-1.02 2.54-1.61.89-.64 2.17-1.39 2.64-2.41.66-1.46-.44-3.39-2.21-2.87-.87.26-1.46.88-2.17 1.42-.64.48-1.31.93-2 1.35-1.35.84-2.74 1.58-4.21 2.17s-3.02 1.11-4.59 1.46c-.73.16-1.46.3-2.2.39-.63.08-1.5.3-2.12.17l.85.66-.07-.11c-.49-.75-1.41-.84-2.07-.27"/><path d="M68.81 102.77c-.29 2.42.6 4.75 2.6 6.19 2.01 1.46 4.69 1.75 7.1 1.6 2.62-.16 5.1-.87 7.51-1.88 1.3-.54 2.56-1.15 3.81-1.8 1.22-.64 2.6-1.24 3.38-2.41.69-1.04-.21-2.57-1.44-2.52-1.11.05-2.05.63-3.01 1.15-.98.53-1.96 1.05-2.96 1.52-1.88.89-3.86 1.61-5.9 2.04-2.98.62-8.79.58-8.35-3.89.17-1.76-2.53-1.72-2.73 0Z"/><path d="M65.81 111.82c1.51 5.27 6.29 7.67 11.51 7.62 2.15-.02 4.35-.34 6.44-.85 1.74-.42 3.44-1.04 5.09-1.72 1.77-.73 3.78-1.41 5.29-2.6s-.17-3.39-1.77-3.04-3.09 1.35-4.58 1.98c-1.5.64-3.04 1.2-4.61 1.62-1.79.48-3.49.78-5.24.87s-3.6-.04-5.3-.69c-1.98-.76-3.43-2.39-4.48-4.18-.73-1.25-2.76-.43-2.36.99Z"/><path d="M91.93 97.96c-1.53 1.82-2.4 4.25-1.48 6.57 1 2.5 3.55 3.74 6.14 3.34l-1.62-3.84c-3.56 2.27-5.23 7.08-3.39 10.98.63 1.34 2.37 1.22 3.33.43 1.08-.9 1.06-2.51.09-3.46-.8-.79-2.06-.57-2.65.34l-.08.13.65-.65c-.12.05-.22.12-.31.21-.34.25-.26.21.24-.11.87.49 1.74.99 2.61 1.48-.09-.33-.16-.66-.24-.99-.11-.39 0 .11-.03-.13-.01-.17-.03-.34-.03-.51s0-.34.01-.51c0-.08.06-.54 0-.14.05-.34.13-.67.23-.99.04-.13.09-.26.13-.39.2-.56-.18.29.11-.23.15-.27.29-.53.47-.79.07-.11.27-.37.08-.14.11-.13.22-.26.34-.38s.24-.23.36-.35c.3-.29-.16.09.22-.17 1.94-1.36.78-4.34-1.62-3.84.4-.08-.53-.01-.13.04-.17-.02-.34-.07-.5-.13-.31-.11.2.12-.09-.05s-.69-.53-.83-.83c-.31-.67-.35-1.84.26-2.62.53-.68.66-1.59 0-2.25-.57-.57-1.7-.66-2.25 0Zm30.3-30.86c.33.03-.19-.07 0 0 .08.03.17.04.25.07.04.01.08.03.13.04l-.13-.05.23.12c.08.05.15.1.23.14.35.23-.17-.18-.01 0 .14.15.29.28.43.43.06.07.12.13.18.2.26.27-.17-.26-.02-.04.13.19.26.37.37.57s.21.4.31.61c.06.13.18.55.29.62-.07-.05-.15-.37-.04-.08.04.09.08.19.11.28.08.22.17.43.25.65.18.48.37.97.55 1.45.23.61.46 1.21.71 1.8.08.19.31.51.3.71 0-.04-.14-.41-.07-.15.04.18.17.45.29.64l-.27-1.01v.07c.1 1.06.81 1.9 1.94 1.93 1.51.04 2.53-1.53 2.11-2.92-.18-.59-.43-1.17-.66-1.74-.51-1.26-.99-2.54-1.57-3.77s-1.38-2.31-2.48-3.05c-1.17-.79-2.51-1.04-3.89-.83-.82.12-1.3 1.1-1.2 1.84.12.86.81 1.39 1.65 1.46ZM67.2 110.39c-1.38.12-2.73.85-3.93 1.5-1.19.64-2.35 1.33-3.49 2.06-2.28 1.46-4.43 3.15-6.44 4.96-3.96 3.56-7.7 7.9-9.89 12.79-1.01 2.24 1.8 3.85 3.26 1.91 3.02-4.01 5.98-7.96 9.64-11.43 1.75-1.66 3.59-3.2 5.53-4.63q1.56-1.155 3.21-2.19c1.65-1.035 2.41-1.3 3.24-2.24s.35-2.85-1.13-2.72Z"/><path d="M46.41 134.28c5.66-2.95 11.43-5.71 17.48-7.78 1.48-.51 2.97-.97 4.47-1.41s2.86-1.31 2.84-3.12c-.04-3.15-1.3-6.81-2.85-9.52-1-1.75-4.12-.58-3.36 1.41.54 1.41 1.1 2.8 1.52 4.26.37 1.3.86 2.82.75 4.18l.27-.99c.34-.18.27-.18-.2 0-.27.08-.54.17-.81.26a94 94 0 0 0-4.43 1.53c-2.01.75-4 1.57-5.97 2.45-3.9 1.74-7.64 3.78-11.16 6.2-1.53 1.05-.21 3.38 1.47 2.51Zm9.68-53.71-.08-.19-.15-.35c-.09-.17-.22-.31-.38-.41a.8.8 0 0 0-.32-.19c-.17-.09-.36-.13-.56-.13l-.39.05-.35.15c-.17.09-.31.22-.41.38-.13.14-.22.31-.26.5l-.08.19c-.07.27-.07.55 0 .82.07.26.21.49.4.68l.31.24q.36.21.78.21c.21 0 .41-.04.59-.13.19-.06.36-.17.5-.32.19-.19.32-.42.4-.68.07-.27.07-.55 0-.82m2.25-3.74.2.22c.13.14.29.25.48.31.18.09.37.13.57.13s.39-.03.57-.13c.18-.06.34-.16.48-.31l.23-.3c.13-.23.2-.48.2-.75l-.05-.39c-.07-.25-.2-.47-.38-.65l-.22-.2c-.13-.14-.29-.24-.47-.3-.17-.09-.36-.13-.56-.13s-.39.03-.56.13c-.18.06-.34.16-.47.3l-.23.3c-.13.23-.2.47-.2.74l.05.39c.07.25.19.46.38.64Zm3.32 7.47c1.87 0 1.87-2.91 0-2.91s-1.87 2.91 0 2.91m58.85-45.64.26-.29c.16-.15.27-.32.34-.53.1-.2.15-.41.14-.63 0-.23-.04-.44-.14-.63-.07-.2-.18-.38-.34-.53l-.33-.26c-.26-.15-.53-.22-.83-.22l-.44.06q-.42.12-.72.42l-.29.26c-.16.15-.28.33-.34.54-.1.2-.15.41-.14.64 0 .23.04.44.14.64.07.21.18.38.34.54l.34.26c.26.15.54.23.84.23l.44-.06c.28-.08.53-.22.73-.43Zm3.52-5.61v.55c0 .23.04.44.14.64.07.21.18.39.35.54.15.16.33.28.54.35.2.1.41.15.64.14l.44-.06c.28-.08.53-.22.74-.43l.26-.34c.15-.26.23-.54.23-.84v-.55c0-.23-.04-.44-.14-.64-.07-.21-.18-.39-.35-.54-.15-.16-.33-.28-.54-.35-.2-.1-.41-.15-.64-.14l-.44.06c-.28.08-.53.22-.74.43l-.26.34c-.15.26-.23.54-.23.84m.84 11.82c2.03 0 2.03-3.16 0-3.16s-2.03 3.16 0 3.16m9.41-2.81c1.98 0 1.98-3.08 0-3.08s-1.98 3.08 0 3.08m-99.46 70.93c-.71 1.05-1.23 2.24-1.52 3.47-.12.53-.03 1.24.43 1.61.63.5 1.27.79 2.09.8.57.01 1.17-.14 1.71-.32 1.13-.37 2.25-.77 3.38-1.17L39 114.9c-.68 1.3-.68 2.92.2 4.13.98 1.34 2.83 2.12 4.38 1.27.56-.31.85-.98.76-1.6-.08-.58-.53-1.22-1.15-1.33-.07-.01-.14-.03-.21-.04-.11-.02-.22-.03-.34-.05-.26-.04-.3-.04-.11-.01.26.02 0 0-.06-.02-.08-.01-.15-.03-.23-.05-.3-.08-.04-.07.03.04-.03-.04-.16-.09-.21-.11-.24-.12.05.07.06.07-.05 0-.18-.18-.21-.2-.14-.13.13.24.06.07-.02-.05-.13-.29-.05-.05.09.26-.02-.1-.03-.12-.08-.22.02.01 0 .11.02-.09.02-.37 0-.47-.04.24-.04.29-.01.16 0-.04.02-.08.03-.11.02-.19-.17.34-.02.03.31-.62.3-1.31-.13-1.87-.39-.51-1.13-.82-1.77-.6-.96.32-1.92.63-2.87.96-.41.14-.81.26-1.23.39-.31.09.23 0 .03 0-.04 0-.28 0-.3.01.06-.06.34.12.11 0 .4.18.07.02-.01-.03l.76 1.87c.09-.54.21-1.06.39-1.58.04-.13.09-.25.14-.38-.1.26.01-.02.06-.12.12-.25.24-.49.38-.72.4-.69.18-1.71-.55-2.1-.77-.41-1.61-.16-2.1.55Zm-1.93 11.75c.6 1.07 1.51 2.01 2.57 2.62.53.31 1.11.56 1.71.73.24.07.49.12.74.16s.49.09.73.08c.32 0 .64-.09.92-.25.15-.09.28-.21.41-.32.29-.23.48-.77.47-1.13-.02-.42-.16-.83-.47-1.13-.26-.25-.56-.45-.91-.54-.25-.06-.51-.07-.76-.1l.46.06a6.2 6.2 0 0 1-1.46-.4l.41.17c-.51-.22-.99-.5-1.42-.84l.34.26c-.36-.29-.69-.61-.97-.97l.25.33c-.08-.11-.16-.22-.24-.34-.23-.35-.54-.62-.95-.73-.38-.11-.89-.06-1.23.16-.74.47-1.01 1.4-.57 2.18Zm72.4-43.63c-2.46 1.66-5.68 5.07-4.59 8.35 1.07 3.23 5.61 4.45 8.57 3.47l-1.91-3.29c-1.98 1.9-3.14 4.71-2.53 7.45.58 2.59 2.95 4.95 5.72 4.38 1.55-.32 1.69-2.53.43-3.27-1.02-.6-1.91-1.07-2.12-2.35.04.23 0-.14 0-.18v-.54c.02-.22.12-.62.22-.9.23-.64.63-1.29 1.05-1.82 1.44-1.79-.3-3.97-2.38-3.09-.91.38-3.59.03-3.8-1.18-.14-.76.54-1.74.93-2.33.52-.79 1.19-1.52 1.95-2.1.65-.5.99-1.31.54-2.07-.39-.67-1.39-1-2.07-.54Zm8.57-7.48a25 25 0 0 0-1.68 3.4c-.45 1.1-.98 2.3-.86 3.51.32 3.28 4.3 3.23 6.72 2.9l-2.19-2.19c-.48 1.63-.68 3.46.01 5.07s2.42 2.66 4.05 3.21c1.2.41 2.48-.89 2.09-2.09-.3-.92-.85-1.47-1.68-1.95-.25-.15-.51-.29-.75-.45s-.03.01-.14-.12c-.2-.25.17.35-.1-.14-.06-.11-.1-.24-.04-.05q-.075-.225-.12-.45c-.06-.3 0 .39-.01-.17v-.4c0-.66.11-1.33.19-1.99.15-1.21-1.25-1.95-2.25-1.71-.69.16-1.47.18-2.16.04-.15-.03-.31-.07-.46-.12-.01 0 .17.09.13.11 0 0 .04.07.03.08-.08.11.09-.55.06-.42.33-1.57 1.07-3.11 1.84-4.51.96-1.74-1.65-3.27-2.67-1.56Z"/></svg>