<?xml version="1.0" encoding="UTF-8"?><svg xmlns="http://www.w3.org/2000/svg" viewBox="0 0 180 180"><path d="M26.61 94.59c9.87 1.93 19.44 5.38 28.91 8.7 9.85 3.45 19.57 7.3 29.53 10.44 2.74.86 5.49 1.68 8.25 2.45s5.41 1.59 8.18 1.95c.92.12 1.76-.81 1.86-1.64.12-.99-.45-1.72-1.35-2.07-2.25-.87-4.65-1.42-6.95-2.16s-4.76-1.57-7.13-2.38c-4.89-1.68-9.76-3.4-14.64-5.11-9.76-3.43-19.54-6.85-29.51-9.6-5.37-1.48-10.83-2.64-16.31-3.63-1.99-.36-2.86 2.66-.84 3.06Z"/><path d="M45.81 166.29c6.22-3.98 12.06-8.56 17.77-13.24 7.29-5.99 14.42-12.2 21.33-18.61 14.48-13.42 28.48-27.33 42.81-40.9 6.12-5.79 12.25-11.59 18.64-17.07l-3.94-1.04c2.57 7.96 4.27 16.11 5.82 24.31.76 3.98 1.21 8.01 1.98 12s1.9 7.82 3.27 11.64c1.26 3.5 2.64 7.15 2.86 10.9.09 1.51.12 3.28-.79 4.58-.76 1.1-2.08 1.75-3.27 2.27-3.75 1.63-7.77 2.81-11.68 3.97s-7.97 2.24-11.99 3.23c-16.74 4.13-33.58 7.91-50.39 11.73-4.2.95-8.4 1.9-12.61 2.84s-8.32 1.95-12.56 2.36c-1.97.19-4.05.36-6.02.12-1.32-.16-2.34-.61-2.82-1.91-.63-1.7-.75-3.65-1.06-5.43a312 312 0 0 0-1.12-6.1c-3.14-16.35-7.69-32.54-13.14-48.27-.68-1.97-1.5-3.88-2.31-5.8-.87-2.05-4.2-.58-3.57 1.5 2.51 8.29 5.39 16.45 7.72 24.8 2.36 8.43 4.21 16.97 5.95 25.54.85 4.19 1.6 8.4 2.31 12.62.32 1.91.83 3.78 2.11 5.29s3.05 2.2 4.89 2.48c4.28.64 8.79-.04 13-.81 4.44-.81 8.84-1.88 13.25-2.87 17.62-3.96 35.24-7.95 52.81-12.11 8.44-2 16.86-4.14 25.04-7.05 3.56-1.27 7.65-2.51 9.77-5.9s1.56-7.99.64-11.65c-1-3.98-2.93-7.65-4.37-11.48-1.5-3.97-2.42-8.13-2.95-12.34-.53-4.24-.84-8.52-1.54-12.74-.72-4.33-1.67-8.6-2.84-12.82-.57-2.07-1.19-4.13-1.86-6.17-.57-1.77-2.58-2.21-3.94-1.04-12.69 10.9-24.44 22.95-36.45 34.59-14.07 13.63-28.08 27.39-42.71 40.41-6.21 5.53-12.55 11.1-19.56 15.6-1.6 1.03-.12 3.6 1.5 2.56Z"/><path d="M55.93 99.65c-1.88-3.64-3.86-7.19-5.4-11s-2.79-7.72-3.69-11.73c-1.8-7.98-2.31-16.22-1.45-24.36.48-4.58 1.47-9.1 2.85-13.5L46.8 40.5c19.8-2.66 39.54-5.69 59.2-9.31 5.58-1.03 11.15-2.1 16.71-3.2-.87-1.13-1.74-2.26-2.61-3.4-4.4 7.86-5.14 16.95-5.5 25.79-.38 9.37-.25 19.03 2.67 28.03 1.54 4.74 3.87 9.17 7.11 12.96 1.61 1.89 4.98-.65 3.48-2.69-4.82-6.59-7.41-14.43-8.25-22.51-.47-4.52-.5-9.07-.32-13.61.16-4.19.36-8.42.95-12.58.63-4.49 1.76-9.02 3.86-13.06.96-1.85-.61-3.81-2.61-3.4-19.56 4.01-39.22 7.5-58.95 10.54-5.6.86-11.21 1.69-16.82 2.46-.7.1-1.24.82-1.44 1.44-5.15 16.51-4.33 34.75 2.28 50.73 1.85 4.47 4.1 8.91 7.12 12.71 1.06 1.34 2.99-.37 2.27-1.75Z"/><path d="M82.1 76.59c-6.48-3.18-13.21-6.56-17.54-12.34-1.19-1.59-2.19-3.37-2.5-5.33-.32-1.96.13-4.11 1.51-5.53.84-.86 1.95-1.41 3.1-1.76 3.57-1.07 7.66-.2 10.48 2.24a22.5 22.5 0 0 1-4.25 5.22c2.05.73 4.07 1.53 6.06 2.43a54 54 0 0 0-4.31 4.73q3.51.615 6.93 1.65c-1.1 1-2.19 2-3.29 3 1.2.4 2.4.81 3.6 1.21.17.06.35.12.46.26.12.15.14.35.15.55.1 1.62.21 3.25.31 4.87"/><path d="M82.92 75.19c-6.22-3.29-13.25-6.78-17.25-12.82-1.74-2.63-2.9-6.85.68-8.54 3.03-1.43 6.93-.72 9.47 1.37l-.29-2.28a22.2 22.2 0 0 1-3.94 4.86c-1.09 1.01-.43 2.65.82 3.1 1.9.68 3.76 1.45 5.6 2.26-.13-.98-.25-1.97-.38-2.95-1.63 1.62-3.17 3.31-4.55 5.14-.68.89.01 2.48 1.09 2.67q3.51.63 6.93 1.65c-.27-1.01-.54-2.03-.8-3.04-1.1 1-2.2 2-3.29 3s-.43 2.63.8 3.05l2.02.68.9.3.45.15c.41.16.31.08-.29-.25l-.25-.92c.2 1.71.23 3.44.39 5.16.2 2.25 3.67 2.33 3.58 0-.04-1.14-.1-2.27-.17-3.41-.06-.91.01-1.98-.44-2.8s-1.23-1.09-2.06-1.38c-1.05-.36-2.1-.7-3.15-1.05l.8 3.05c1.1-1 2.19-2 3.29-3s.45-2.67-.8-3.04c-2.28-.68-4.58-1.23-6.93-1.65l.8 3.04c1.41-1.61 2.82-3.2 4.35-4.69.8-.77.73-2.45-.38-2.95-2.14-.96-4.31-1.8-6.52-2.59.27 1.03.55 2.06.82 3.1 1.78-1.63 3.31-3.51 4.57-5.58.4-.66.33-1.76-.29-2.28-2.71-2.27-6.18-3.54-9.74-3.24s-7.09 1.98-8.34 5.59c-2.49 7.19 4.86 13.94 10.16 17.48 3.37 2.25 7.05 3.94 10.73 5.61 1.86.84 3.5-1.8 1.63-2.79Zm5-25.09a39 39 0 0 0-4.05 4.9c1.69.4 3.38.79 5.07 1.19-.7 1.89-1.79 3.63-3.17 5.09l5.13.99a22.4 22.4 0 0 1-1.94 3.69c.82-.34 1.8.18 2.28.93s.58 1.67.67 2.56c.18 1.75.36 3.5.53 5.24.74-3.46 3.38-6.14 5.37-9.07 2.67-3.94 4.24-8.61 4.5-13.36.12-2.23-.14-4.7-1.75-6.25-2.1-2.02-5.6-1.56-8.18-.19a15.06 15.06 0 0 0-6.81 7.57"/><path d="M87.08 49.26c-1.65 1.36-3.05 2.89-4.41 4.54-.82 1-.54 2.41.75 2.83 1.64.54 3.36.89 5.04 1.29L87.2 55.7c-.61 1.61-1.53 3.06-2.68 4.33-.81.9-.6 2.68.78 2.94 1.71.32 3.43.64 5.13.98l-1.05-2.57c-.56 1.28-1.21 2.5-1.97 3.67-.87 1.33.56 3.02 2.02 2.62.63-.17 1.07 6.3 1.14 7.01.2 1.96 3.14 2.69 3.67.5.85-3.55 3.63-6.17 5.55-9.16 2.2-3.42 3.62-7.34 4.18-11.36.48-3.5.56-7.68-2.3-10.25-2.75-2.47-6.72-2.08-9.85-.6-3.69 1.74-6.63 5.28-7.86 9.14-.57 1.79 2.17 2.97 3.06 1.29 1.68-3.18 4.32-6.2 7.89-7.25 1.34-.39 3.13-.59 4.29.38 1.28 1.07 1.28 3.19 1.21 4.7-.18 4.19-1.54 8.32-3.76 11.87-2.12 3.39-5.07 6.23-6.01 10.25l3.67.5c-.13-1.27-.26-2.54-.4-3.81-.12-1.19-.15-2.48-.52-3.62-.68-2.09-2.66-3.68-4.91-3.02.67.87 1.34 1.75 2.02 2.62.82-1.32 1.49-2.69 2.09-4.13.34-.82-.38-2-1.22-2.15-1.71-.31-3.42-.66-5.13-1l.78 2.94c1.61-1.72 2.8-3.67 3.67-5.86.35-.88-.39-2.02-1.26-2.22-1.69-.38-3.38-.84-5.09-1.08.34.83.68 1.66 1.01 2.49 1.09-1.79 2.35-3.49 3.62-5.15.88-1.15-.91-2.24-1.88-1.45ZM73.37 90.72c2.08 3.11 6.37 2.96 8.32-.2.74-1.2-.5-2.93-1.89-2.46l-.1.03c-1.11.38-1.46 1.45-1.01 2.48.83 1.86 3.15.81 4.51.38 1.89-.6 3.75-1.29 5.6-2.02s3.69-1.46 5.52-2.23 3.68-1.44 5.34-2.43c1.33-.8.47-3.12-1.09-2.58-3.08 1.06-6.01 2.61-9.09 3.7-1.51.53-3.03 1-4.56 1.46-.73.22-1.45.45-2.18.68-.44.14-.87.27-1.31.4l-.44.13c-.82.12-.62.39.62.82l-.6 2.31.09-.05-2.29-2.29c-.73 1.42-2.25 1.32-3.17.15-1.01-1.28-3.16.39-2.26 1.74Zm7.65 9.68c7.68-2.56 15.35-5.14 23.02-7.73 1.99-.67 1.11-3.85-.87-3.15-7.64 2.72-15.27 5.45-22.89 8.2-1.66.6-.97 3.25.74 2.68m11.33 4.36c1.29-.25 2.58-.56 3.84-.95.62-.19 1.23-.4 1.84-.62.31-.12.63-.23.94-.36.13-.05.27-.11.4-.16.09-.04.88-.32.53-.21l-1.16-.15.08.04c.61.29 1.26.29 1.8-.13.58-.45.78-1.21.5-1.89-.58-1.37-2.62-1.25-3.04.19l-.03.09.69-.9c-.29.17-.6.29-.91.42s.11-.04-.18.07c-.18.07-.36.14-.53.21-.58.23-1.17.44-1.76.64-1.23.41-2.48.75-3.74 1.03-.71.16-1.19 1.02-.97 1.7.25.76.94 1.11 1.7.97Zm30.63 17.38c3.52 1.99 7.03 4 10.57 5.95 1.74.96 3.48 1.91 5.24 2.85.85.45 1.69.91 2.54 1.36 1.04.56 2.02 1.24 3.23 1.25 1.36.02 2.48-1.66 1.64-2.86-.71-1.02-1.69-1.44-2.76-2.01l-2.55-1.35c-1.76-.93-3.53-1.84-5.3-2.75-3.6-1.86-7.23-3.65-10.86-5.46-1.99-.99-3.73 1.89-1.76 3.01Z"/><path d="M127.83 137.85c2.4-3.49 4.89-6.93 7.35-10.38 1.19-1.67 2.42-3.32 3.65-4.97.63-.85 1.27-1.69 1.91-2.53.7-.91 1.56-1.96 1.1-3.17-.26-.69-.73-1.02-1.45-1.1-1.26-.14-2.07.93-2.75 1.82-.64.84-1.27 1.69-1.9 2.54-1.29 1.75-2.53 3.54-3.74 5.34-2.41 3.56-4.54 7.27-6.55 11.06-.84 1.59 1.39 2.85 2.39 1.4Zm2.29-23.85v.04l-.06.43.06.43v.03q.015.12.09.21.105.33.36.57.33.33.78.45l.47.06c.32 0 .61-.08.89-.24q.39-.24.63-.63l.18-.42q.12-.465 0-.93c-.05-.23-.16-.43-.31-.6-.12-.19-.29-.34-.49-.45-.27-.16-.57-.24-.89-.24l-.47.06q-.45.12-.78.45t-.45.78Zm-9.48 16.09c1.66 0 1.66-2.58 0-2.58s-1.66 2.58 0 2.58m24.09-5.51c1.67 0 1.67-2.59 0-2.59s-1.67 2.59 0 2.59m-7.09 12.62c2.1 0 2.1-3.27 0-3.27s-2.1 3.27 0 3.27M26.98 92.48l15.66-21.36c.22 4.79.55 9.61 1.68 14.28 1.13 4.66 3.11 9.2 6.3 12.79-6.76-3.1-16.39-4.1-23.65-5.7"/><path d="M28.22 93.73c5.53-7.1 10.9-14.29 16.22-21.55l-3.9-1.06c.46 10.09 1.69 20.63 8.59 28.55.85-1.1 1.7-2.21 2.56-3.31-7.66-3.45-16.05-4.11-24.17-5.85-2.57-.55-3.67 3.38-1.09 3.95 3.91.87 7.85 1.56 11.78 2.33s7.76 1.6 11.34 3.21c2.16.97 4.2-1.43 2.56-3.31-6.1-6.99-6.97-16.71-7.38-25.57-.1-2.18-2.69-2.7-3.9-1.06-5.21 7.12-10.37 14.26-15.37 21.53-1.12 1.62 1.53 3.71 2.76 2.13Zm90.03-31.02c8.94 3 16.51 9.56 25.71 11.6-6.7 3.22-12.52 8.25-16.66 14.43-5.23-6.95-8.81-15.76-7.18-24.31"/><path d="M117.36 64.23c8.78 3.82 16.58 10.01 26.02 12.2l-.53-4.03c-7.08 3.42-13.09 8.7-17.48 15.2h3.86c-4.78-6.39-8.47-14.45-7.01-22.6.21-1.16-.31-2.35-1.52-2.68-1.06-.29-2.47.36-2.68 1.52-1.72 9.34 1.82 18.57 7.35 26.02 1.03 1.38 2.85 1.48 3.86 0 4-5.86 9.48-10.53 15.85-13.65 1.69-.83 1.27-3.62-.53-4.03-9.26-2.1-16.66-8.85-25.83-11.17-1.86-.47-3.26 2.4-1.36 3.23ZM43.47 167.75c-9-3.16-17.52-7.55-25.65-12.55-1.96-1.21-3.93-2.48-5.46-4.21s-2.56-4.01-2.33-6.3c.39-3.85 4.04-6.47 7.54-8.13 4.69-2.23 9.74-3.71 14.89-4.37.02 5.7 3.19 11.42 4.24 17.03s.05 11.16 3.86 15.41"/><path d="M43.85 166.35c-8.27-3.42-16.32-7.77-23.91-12.49-3.01-1.87-7.32-4.16-7.64-8.16-.28-3.46 3.4-5.73 6.06-7.07 4.39-2.21 9.23-3.65 14.11-4.29l-2.15-2.15c.1 6.31 3.32 11.89 4.38 18.01.46 2.71.46 5.47.87 8.19.44 2.92 1.52 5.52 3.51 7.72 1.83 2.03 4.65-.91 2.96-2.96-3.24-3.93-2.38-9.81-3.26-14.5-1.05-5.56-4.07-10.72-4.17-16.45-.02-1.04-.98-2.3-2.15-2.15-5.18.69-10.17 2.05-14.96 4.15-3.88 1.69-8.02 4.25-9.38 8.51-1.6 4.99 1.68 9.58 5.49 12.43 4.03 3 8.69 5.36 13.16 7.63 5.25 2.66 10.67 4.73 16.31 6.4 1.85.54 2.45-2.11.77-2.8ZM29.95 50.38a55 55 0 0 0-6.59.31c-.36.04-.72.08-1.08.13-.28.04-.55.07-.83.11-.33.05-.61.19-.91.32-.7.3-1.05 1.35-.83 2.04.26.8.91 1.25 1.74 1.32s1.69-.21 2.47-.32c.04 0 .58-.08.18-.03l.5-.06 1.08-.12c1.42-.14 2.84-.23 4.26-.26.9-.02 1.76-.78 1.72-1.72s-.76-1.71-1.72-1.72Zm2.07-16.34c-1.08-.61-2.16-1.22-3.25-1.84l-1.59-.9c-.62-.35-1.31-.82-2.01-.97-.74-.17-1.63.1-2.01.82s-.32 1.61.28 2.15c.53.49 1.2.79 1.85 1.1.57.28 1.14.56 1.71.83l3.36 1.64c.77.38 1.81.23 2.24-.59.41-.78.21-1.79-.59-2.24Zm10.97-11.71c-.61-.88-1.16-1.82-1.62-2.79-.06-.12-.11-.24-.17-.37-.05-.11-.2-.55-.03-.07-.09-.25-.2-.5-.3-.75s-.18-.51-.28-.76c-.14-.34-.26-.63-.5-.91l-.24-.27c-.35-.38-.95-.51-1.44-.38-.45.12-.96.54-1.03 1.03s-.12.92.01 1.41c.07.28.17.54.28.81.25.62.51 1.23.8 1.82.49 1 1.07 1.94 1.73 2.84.25.35.53.62.96.74.39.11.9.06 1.24-.16.69-.44 1.09-1.46.58-2.2Zm16.12-7.14s-.01-.09-.02-.13l.05.39c-.1-.75-.1-1.52 0-2.27l-.05.39c.03-.2.06-.41.1-.61s.1-.41.09-.62-.06-.41-.09-.61c-.08-.45-.53-.83-.95-.95s-1.03-.02-1.32.35c-.23.28-.45.55-.55.92q-.06.24-.09.48-.105.615-.15 1.23c-.05.74.02 1.47.13 2.21.05.34.4.72.68.88.32.19.78.26 1.14.15s.7-.34.88-.68l.15-.35c.07-.26.07-.52 0-.79Zm19.53 2.45.95-.62c.19-.1.35-.25.46-.43.15-.16.25-.35.3-.56q.105-.33.03-.66c0-.22-.08-.43-.2-.62l-.26-.34a1.65 1.65 0 0 0-.73-.43l-.44-.06c-.3 0-.58.08-.84.23l-.94.64c-.19.1-.35.25-.46.42-.15.16-.24.35-.3.56q-.105.33-.03.66c0 .22.08.42.2.61l.26.33c.21.2.45.35.73.42l.44.06c.3 0 .57-.08.83-.23Zm57.83 21.42c4.32-1.72 9.02-2.34 13.63-1.6 4.06.65 8.67 2.09 11.19 5.58 1.02 1.41 1.54 3.15.89 4.83-.64 1.65-2.17 2.76-3.67 3.57-1.86 1.01-3.95 1.69-6.02 2.13-1.95.42-4.59.69-6.34-.51s-.03-1.89 1.31-2.2c2.29-.53 4.76-.65 7.1-.55 4.15.19 8.46 1.68 11.08 5.07 2.18 2.82 2.63 6.86.47 9.84-1.18 1.63-3.04 2.42-5.01 2.52-.97.05-1.97.03-2.92-.19-.48-.11-1.76-.4-1.81-1.03-.07-.73 1.31-1.28 1.83-1.45 1.01-.32 2.09-.3 3.11-.05 2.26.56 3.93 2.19 5.06 4.17 2.33 4.08 2.6 9.13-.13 13.06-1.13 1.64 1.43 3.61 2.76 2.13 3.98-4.43 3.28-11.49.66-16.44-2.58-4.86-8.69-8.55-14.06-5.66-2.51 1.35-3.94 4.64-1.72 6.95 1.91 1.99 5.26 2.27 7.84 1.99 5.6-.6 9.44-5.24 9.28-10.85s-4.52-10.06-9.53-12.09c-2.98-1.2-6.27-1.57-9.46-1.45-2.7.1-6.08.16-8.4 1.72-2.58 1.74-2.77 5.1-.48 7.19 2.42 2.21 6.03 2.35 9.1 1.85 5.01-.82 11.56-3.34 13.45-8.52 2.39-6.56-4.13-11.83-9.61-13.71-6.76-2.32-14.2-1.79-20.73.96-1.53.65-.42 3.34 1.14 2.71Z"/></svg>