<?xml version="1.0" encoding="UTF-8"?><svg xmlns="http://www.w3.org/2000/svg" viewBox="0 0 180 180"><path d="M93.54 48.87C81.43 61.14 69.82 73.9 58.55 86.95c-3.23 3.75-6.43 7.52-9.6 11.32h2.97c-4.27-4.85-12.61-6.49-16.94-.82-1.76 2.3-2.58 5.54-1.54 8.33.59 1.57 1.65 2.81 2.95 3.85 1.13.9 2.51 1.7 3.31 2.94 1.94 2.98-.19 7.28-1.57 10.05-.84 1.7.54 3.54 2.41 3.14 4.08-.88 7.82-3.02 10.66-6.09l-3.64-1.51c-.42 4.84 1.18 9.51 4.19 13.28.68.85 2.33.81 3.02 0 2.41-2.84 4.48-5.92 6.14-9.26h-3.65c2.17 4.34 5.25 8.21 9.02 11.28.96.78 2.68.91 3.31-.43 1.73-3.64 2.64-7.52 2.6-11.56-1.06.61-2.12 1.22-3.18 1.82 3.47 2.26 6.94 4.53 10.41 6.79 1.06.69 2.89.06 3.11-1.26.85-5.14.85-10.26.02-15.4l-3.11 2.39c2.93 2.23 7.27.95 9.39-1.78 2.57-3.31 1.74-7.98-.35-11.29-.62 1.08-1.24 2.16-1.86 3.23 3.58.35 7 1.55 10.08 3.38 1.52.9 3.07-.3 3.23-1.86.47-4.56.1-9.16-1.03-13.61l-2.64 2.64 11.07 4.02c1.33.48 2.72-.77 2.72-2.07-.01-4.41-.72-8.8-2.12-12.99-.69.91-1.38 1.81-2.07 2.72 3.83.12 7.54.93 11.1 2.35 1.32.53 2.73-.8 2.72-2.07-.03-4.76-2.07-9.38-5.65-12.53l-.95 3.59c13.28-5.37 23.6-16.98 27.09-30.92.67-2.68-3.47-3.83-4.14-1.14-3.1 12.38-12.21 23.12-24.09 27.92-1.37.55-2.29 2.41-.95 3.59 2.77 2.44 4.37 5.8 4.4 9.49l2.72-2.07c-3.91-1.56-8.04-2.37-12.24-2.5-1.34-.04-2.51 1.41-2.07 2.72 1.29 3.85 1.95 7.79 1.97 11.84l2.72-2.07-11.07-4.02c-1.6-.58-3.02 1.16-2.64 2.64 1.04 4.09 1.31 8.27.88 12.47 1.08-.62 2.16-1.24 3.23-1.86-3.77-2.24-7.9-3.54-12.25-3.97-1.63-.16-2.67 1.94-1.86 3.23 1.11 1.77 2.11 4.41.82 6.36-.9 1.35-2.69 1.88-4.01.88-1.65-1.25-3.37.81-3.11 2.39.71 4.34.7 8.82-.01 13.15l3.11-1.26c-3.47-2.26-6.94-4.52-10.42-6.78-1.35-.88-3.19.28-3.18 1.82.03 3.26-.61 6.47-2.02 9.43 1.1-.14 2.21-.28 3.31-.43-3.52-2.87-6.34-6.36-8.36-10.43-.69-1.38-2.96-1.38-3.65 0-1.51 3-3.32 5.82-5.51 8.38h3.02c-2.31-2.9-3.26-6.6-2.94-10.26.16-1.85-2.44-2.81-3.64-1.51-2.38 2.57-5.36 4.25-8.78 4.98.8 1.05 1.61 2.09 2.41 3.14 1.77-3.55 3.5-7.61 2.66-11.66-.37-1.81-1.37-3.44-2.73-4.68-1.26-1.15-3.03-2-3.97-3.47-1.4-2.18.23-5.34 2.36-6.38 3.09-1.5 6.72.33 8.81 2.66.7.79 2.27.84 2.97 0 10.95-13.33 22.32-26.3 33.98-39.01 3.35-3.65 6.73-7.26 10.12-10.87 1.55-1.65-.89-4.1-2.49-2.49Z"/><path d="M99.05 50.32c-5.24-4.27-12.01-9.43-11.4-17 .22-2.67 1.5-5.56 3.96-6.85 3.52-1.85 7.65.32 10.64 2.22 1.99 1.26 3.79 2.81 6.24 3.01 1.1.09 2.24-.15 3.3-.42.97-.25 2.07-.71 3.08-.53 1 .17 1.93-.12 2.48-1.01 3.35-5.39 7.41-11.5 14.16-12.64 2.67-.45 5.41.19 7.3 2.19 1.59 1.69 2.25 4.09 1.71 6.35-.5 2.11 2.53 3.58 3.61 1.52 1.82-3.46.84-7.3-1.51-10.25-2.39-3-6.11-4.52-9.92-4.36-9.07.38-14.78 7.92-19.15 14.98l2.48-1.01c-1.2-.21-2.29-.19-3.48.05-1.1.22-2.17.66-3.29.77-.97.09-1.74-.38-2.52-.89-1.07-.7-2.11-1.44-3.22-2.09-4.13-2.43-9.12-4.01-13.7-1.83-3.34 1.59-5.5 5.1-6.18 8.66-.78 4.11.08 8.13 2.34 11.64 2.73 4.25 6.84 7.44 11.11 10.03 1.51.92 3.38-1.34 1.94-2.52Zm-40.44 53.6c2.82-.2 4.9-1.86 7.18-3.33 2.24-1.44 4.86-2.39 7.54-2.44.85-.01 1.83.08 2.27.6.59.7.61 1.92.49 2.86-.35 2.79-2.43 4.85-3.72 7.21-.84 1.54.96 3.76 2.59 2.59 2.79-2.01 5.14-5.43 5.77-8.84.67-3.62-.62-7.78-4.52-8.81-3.36-.89-7.26.3-10.17 1.99-1.46.85-2.69 1.98-3.91 3.13s-2.22 2.18-3.87 2.48c-1.44.26-1.12 2.67.35 2.56M47 108.73c1.17.89 2.34 1.78 3.51 2.68.28.21.81.24 1.13.15.34-.09.71-.36.88-.67.18-.34.27-.75.15-1.13l-.15-.35c-.13-.22-.31-.4-.53-.53-1.18-.87-2.36-1.75-3.54-2.62-.28-.21-.79-.23-1.11-.14s-.69.35-.86.66c-.18.33-.26.74-.14 1.11l.14.34c.13.22.3.39.52.52Z"/><path d="M62.73 111.73c.9-1.01 1.8-2.02 2.71-3.03.3-.34.5-.75.5-1.22 0-.42-.19-.93-.5-1.22s-.76-.52-1.22-.5c-.43.02-.93.16-1.22.5-.87 1.04-1.74 2.08-2.62 3.12-.29.34-.49.71-.49 1.17 0 .41.18.89.49 1.17s.73.5 1.17.49.88-.16 1.17-.49Zm5.59-27.68a37 37 0 0 1 11.07 2.49c.54.21 1.07.44 1.6.68.66.3 1.31.72 2.01.88 1.48.34 2.89-1.6 1.59-2.73-1.07-.93-2.62-1.43-3.92-1.94s-2.64-.96-4-1.33c-2.72-.74-5.53-1.18-8.35-1.35-.89-.05-1.65.8-1.65 1.65 0 .94.76 1.59 1.65 1.65m8.99-9.57c2.69.4 5.35 1.04 7.91 1.95 1.21.43 2.39.92 3.56 1.46 1.29.59 2.76 1.52 4.2 1.58s2.35-1.96 1.21-2.92c-1.13-.95-2.81-1.39-4.18-1.95a45 45 0 0 0-3.89-1.43c-2.74-.86-5.54-1.44-8.4-1.78-1.75-.21-2.18 2.84-.42 3.1Zm5.86-8.96c2.92.16 5.8.83 8.54 1.85a31.2 31.2 0 0 1 5.73 2.83c.82.52 1.53 1.11 2.55 1.09 1.31-.02 1.83-1.31 1.37-2.39-.38-.88-1.33-1.33-2.11-1.8a32.4 32.4 0 0 0-6.62-3.03c-3.06-.98-6.24-1.46-9.45-1.6-1.95-.08-1.94 2.93 0 3.03Zm9.13-7.74a81 81 0 0 1 11.73 2.28c.66.18 1.33.36 1.99.55.75.22 1.46.51 2.23.24s1.47-1.33.87-2.13-1.2-.97-2.09-1.23c-.71-.21-1.42-.4-2.13-.58-1.33-.33-2.68-.64-4.03-.9-2.83-.56-5.7-.97-8.57-1.26-.82-.08-1.52.75-1.52 1.52 0 .9.7 1.42 1.52 1.52Zm7.3-13.96c1.83 1.11 3.67 2.23 5.5 3.34.89.54 1.77 1.1 2.65 1.66.73.46 1.47.74 2.32.38.41-.17.76-.46.98-.86.35-.65.25-1.26-.03-1.91-.3-.7-1.36-1.06-2.05-.83-.79.25-1.29.92-1.33 1.75v.07c.18-.43.35-.86.53-1.29l-.05.04.81-.47c.3-.11.6-.08.9.08l-.32-.17-.47-.25c-.37-.2-.74-.39-1.11-.59-.76-.41-1.52-.83-2.27-1.25-1.49-.82-2.97-1.65-4.46-2.47-.73-.41-1.78-.2-2.19.57s-.19 1.73.57 2.19Zm29.68-11.51c-1.59 2.64-3.59 4.98-5.68 7.24-1.05 1.13-2.11 2.24-3.16 3.37-.55.59-1.1 1.19-1.64 1.8-.74.83-1.7 1.8-1.21 3.02.36.91 1 1.45 1.99 1.51.57.04 1.17-.24 1.56-.65.68-.7.68-1.58.31-2.42l-.02-.05c-.31-.7-1.28-1.05-1.97-.94-.83.13-1.34.65-1.64 1.42l-.02.06 1.93-1.47h-.08l1.44.6-.05-.06.32 2.5c.12-.28-.19.21.02-.08.12-.16.26-.32.38-.47.23-.28.47-.56.7-.84.47-.56.95-1.11 1.43-1.67 1.01-1.17 2.03-2.33 3.03-3.51 2-2.38 3.9-4.85 5.39-7.58 1.08-1.99-1.87-3.72-3.04-1.77Zm6 4.77c-.45 1.56-.76 3.19-.89 4.81s.31 3.17 1.3 4.52c1.71 2.35 4.25 4.11 7.14 4.62.95.17 2.04-.26 2.28-1.29.21-.91-.28-2.08-1.29-2.28-.54-.1-1.07-.25-1.59-.43-.14-.05-.29-.1-.43-.16-.31-.12.37.18-.15-.07-.25-.12-.49-.24-.73-.38-.48-.28-.89-.55-1.14-.77-.44-.37-.85-.79-1.22-1.23-.04-.04-.17-.22-.06-.08-.1-.14-.2-.28-.29-.43-.11-.17-.31-.5-.36-.59-.25-.55-.23-.96-.23-1.55 0-1.34.17-2.63.51-3.93.48-1.83-2.31-2.6-2.83-.78ZM23.11 57.66c5.28 2.76 10.69 5.31 16.03 7.97 7.12 3.55 14.27 7.05 21.37 10.65 2.51 1.27 4.97 2.83 7.57 3.92.95.4 2.14-.35 2.49-1.22.42-1.05 0-1.98-.86-2.63-.75-.57-1.65-.91-2.49-1.32-1.21-.59-2.42-1.19-3.63-1.78-3.32-1.6-6.65-3.17-9.98-4.74-7.19-3.37-14.42-6.65-21.62-9.99-2.45-1.13-4.88-2.32-7.27-3.57-1.8-.94-3.4 1.78-1.59 2.73ZM107.98 91c4.64 2.03 9.39 1.45 14.25.69 4.79-.74 9.56-1.08 14.39-.5 1.21.14 2.41.35 3.6.6.62.13 1.24.27 1.85.43.25.07 1.03.16 1.17.4.49.84-1.32 1.47-1.94 1.64-2.37.63-4.89.88-7.31 1.27-2.62.42-5.23.83-7.85 1.25-2.55.4-1.97 4.72.61 4.52 3.4-.26 6.76 0 10.06.89 2.55.69 6 1.73 7.53 4.08 1.64 2.53-4.57 1.53-5.44 1.41-3.68-.51-7.38-.74-11.09-.69-3.1.04-3.04 4.56 0 4.78s6 .98 8.71 2.37c1.23.63 2.54 1.33 3.51 2.34.41.43 1.16 1.45.74 2.11s-1.83.34-2.47.23c-1.74-.3-3.48-.62-5.22-.94-3.6-.65-7.2-1.31-10.79-1.97-1.28-.23-2.61.35-2.97 1.69-.33 1.19.4 2.71 1.69 2.97 3.51.71 7.43 1.68 9.77 4.63.41.52.78 1.12 1.03 1.73.05.13.07.28.13.4.29.54 0 .33.26.04-.2.22-.59.44-.84.59-1.5.91-3.21 1.24-4.95 1.02-4.03-.51-7.75-3-11.47-4.47-3.88-1.53-7.96-2.67-12.1-3.28-1.86-.27-3.86-.33-5.51.74-1.98 1.29-2.58 3.67-2.19 5.9.35 2 1.57 3.76 2.95 5.21 1.28 1.35 2.89 2.44 4.03 3.93.65.85 1.16 2.08.77 3-.45 1.05-2.29.44-3.27.17-3.18-.88-6.04-2.52-8.75-4.37-6.41-4.39-11.99-9.98-19.39-12.73-1.25-.46-2.7.52-3.03 1.72-.39 1.41.48 2.53 1.72 3.03 6.84 2.77 12.17 8.18 18.18 12.3 3.05 2.09 6.36 3.89 9.94 4.87 2.17.6 4.52.93 6.6-.15 1.86-.96 2.86-2.91 3.05-4.93.43-4.46-3.05-7.12-5.9-9.92-.66-.65-1.31-1.34-1.72-2.18-.15-.31-.63-1.4-.23-1.72.26-.21 1.1-.08 1.39-.06 1.04.08 2.08.32 3.09.53 4.46.92 8.72 2.41 12.84 4.33s8.5 3.81 13.12 2.65c2.2-.55 4.93-1.89 5.98-4.01 1.11-2.25-.34-5.15-1.71-6.98-3.02-4.01-7.79-5.67-12.54-6.63-.43 1.55-.86 3.11-1.28 4.66 4.64.84 9.28 1.68 13.91 2.53 3.76.69 8.96 1.65 10.48-3.1 1.35-4.21-1.96-7.52-5.28-9.46-3.73-2.18-8-3.38-12.31-3.54v4.78c2.31-.11 4.61-.09 6.92.09s4.58.69 6.89.84c3.96.26 8.75-2.54 7.46-7.13-1.09-3.92-5.57-6.01-9.07-7.22-4.23-1.46-8.8-2-13.25-1.64l.61 4.52c4.54-.73 9.09-1.42 13.63-2.15 1.94-.31 4-.88 5.39-2.35 1.31-1.38 2.05-3.46 1.5-5.35-.6-2.07-2.42-3.14-4.39-3.64-2.17-.55-4.42-.89-6.65-1.13-4.52-.48-9.05-.25-13.53.54-4.61.81-9.44 2.13-14.11.93-1.69-.44-2.97 2.19-1.24 2.94Zm-72.2 6.23c-1.99-.4-4.01-1.17-5.92-1.87-1.92-.71-3.81-1.51-5.69-2.32-3.77-1.62-7.79-3.51-11.88-4.13v4.3l.41-.14c1.61-.55 2.07-2.81.49-3.73l-.36-.21c-2.83-1.64-4.87 3.27-1.72 4.08 2.02.52 4.03.96 6.01 1.62 1.97.66 3.92 1.4 5.87 2.11s3.9 1.42 5.89 2.02c2.03.62 4.01.94 6.09 1.27 1.94.31 2.81-2.6.83-3Z"/><path d="M75.66 129.8c-1.04.99-1.83 2.41-2.42 3.71s-1.23 2.78-1.58 4.22c-.4 1.65-.15 3.33 1.18 4.48 1.09.95 2.46 1.63 3.77 2.21 2.75 1.23 5.61 2.02 8.62 2.29 1.57.15 3.2-.02 4.57-.86 1.22-.75 2.18-1.88 3-3.04 1.44-2.04-1.82-4.56-3.47-2.68-.56.64-1.19 1.49-1.78 1.86-.65.4-1.71.3-2.61.21-2.06-.22-4.17-.78-6.08-1.6-.97-.41-1.9-.91-2.81-1.44-.03-.02-.47-.25-.35-.18-.21-.23-.25-.25-.1-.05.06.05.09.1.1.17-.09-.01.24-1.16.26-1.24.31-1.1.72-2.16 1.1-3.24.39-1.1.92-2.19 1.16-3.33.31-1.47-1.41-2.56-2.55-1.48Zm26.99 2c.53-.51 1.09-.98 1.64-1.48.54-.5 1.12-.96 1.7-1.41l-.4.31c.35-.27.7-.52 1.06-.77s.76-.45 1.1-.71c.43-.33.76-.64.91-1.19.13-.48.07-1.11-.2-1.53s-.68-.8-1.19-.91c-.55-.13-1.02-.04-1.53.2s-1.02.65-1.48.99c-.6.44-1.2.9-1.75 1.4-.44.4-.86.82-1.27 1.25-.49.53-.91 1.16-1.31 1.76-.48.72-.2 1.73.44 2.23.68.53 1.64.46 2.27-.13Zm24.42-41.74c2.65-2.52 4.95-5.46 7.25-8.29s4.51-5.61 6.72-8.44c4.5-5.76 8.88-11.61 13.08-17.59.69-.98.18-2.46-.79-3.02-1.11-.65-2.33-.18-3.02.79-4.17 5.87-8.39 11.7-12.71 17.46-2.11 2.8-4.24 5.58-6.41 8.34s-4.66 5.72-6.65 8.79c-1.02 1.58 1.24 3.2 2.54 1.96Zm-8.45-3.17c.02-1.43-.08-2.87-.29-4.29 1.9.06 3.81.11 5.71.17.16 0 .34 0 .46-.11.13-.12.13-.31.13-.49-.09-3.66 0-7.32.24-10.97.05-.66.27-1.51.93-1.56-.08.77-.7 1.36-1.29 1.87a59.4 59.4 0 0 1-9.16 6.51 9.4 9.4 0 0 1 2.32 3.14"/><path d="M119.9 86.89c.17-1.41.34-2.86.22-4.29l-1.8 1.8c1.79.06 3.58.15 5.37.19 1 .03 1.94-.21 2.47-1.14.46-.81.27-1.92.27-2.81-.01-1.83.02-3.66.1-5.49.04-.91.09-1.83.14-2.74.02-.34.04-.97.08-1.15-.02.13.07-.24.07-.26.06-.16.04-.14-.07.07-.09.2-.24.34-.45.43l-2.34-2.34c-.14.74-1.09 1.27-1.64 1.73-.8.66-1.61 1.3-2.45 1.91-1.77 1.29-3.61 2.46-5.5 3.57-1.03.61-1.34 2.21-.39 3.05 1 .9 1.56 2.03 2.46 3 .52.56 1.46.65 2.11.27.72-.42.91-1.19.8-1.97-.21-1.55-1.52-3.02-2.63-4.06l-.39 3.05c2.17-1.24 4.25-2.65 6.23-4.17 1.04-.79 2.07-1.61 3.06-2.47.91-.79 1.78-1.69 2.01-2.92.27-1.46-.85-2.65-2.34-2.34-2.76.57-2.4 4.38-2.47 6.47a119 119 0 0 0-.05 7.04c0 .17 0 .34.01.51-.02.49.02.46.14-.09l.66-.66-.21.1.92-.25c-1.97.09-3.99-.08-5.96-.13-1.22-.03-1.97 1.17-1.73 2.28.27 1.27.61 2.51.74 3.81.17 1.66 2.36 1.63 2.56 0M23.76 56.45l16.52.6c-2.06-6.57-4.29-13.1-6.68-19.56l17.79 7.41c.3-7.69.59-15.38.89-23.06 5.33 4.76 10.55 9.65 15.64 14.67-.66-2.27.38-4.63 1.07-6.89 1.1-3.61 1.29-7.42 1.48-11.18a59.2 59.2 0 0 1 13.7 12.78c-1.92 2.95-1.79 6.9-.4 10.13 1.39 3.24 3.87 5.88 6.48 8.24.19.17.39.37.44.62.06.36-.22.68-.48.94-3.13 3.09-6.26 6.19-9.71 8.92-1.5 1.19-4.6 6.84-6.01 8.13-3.19 2.92-4.03 2.2-5.25 6.35-3.3-1.92-6.67-3.75-10.23-5.12-3.26-1.25-6.66-2.1-10-3.13-6.5-2-12.79-4.69-18.73-8"/><path d="M23.76 58.05c5.51.37 11.01.65 16.52.87 1.19.05 2.14-1.23 1.79-2.35-2.04-6.58-4.25-13.1-6.61-19.57l-2.37 2.37c5.92 2.49 11.85 4.96 17.79 7.43 1.23.51 2.43-.76 2.47-1.88.3-7.69.59-15.38.9-23.06-1.12.46-2.24.93-3.36 1.39 5.32 4.78 10.53 9.67 15.61 14.7 1.45 1.44 3.84-.02 3.37-1.96-.34-1.4.1-2.77.52-4.11s.89-2.78 1.17-4.22c.6-3.03.78-6.13.94-9.21-1.02.58-2.03 1.17-3.05 1.75 5.06 3.43 9.51 7.66 13.28 12.48l-.32-2.48c-2.1 3.39-2.18 7.68-.77 11.35.74 1.91 1.8 3.62 3.06 5.23.61.78 1.26 1.52 1.95 2.23.65.67 1.85 1.43 2.25 2.26l-.28-1.05-.04.35.28-1.05c-.47.79-1.48 1.52-2.14 2.15s-1.35 1.31-2.04 1.96c-1.43 1.35-2.88 2.67-4.39 3.92-1.04.87-1.9 1.6-2.71 2.68s-1.49 2.12-2.2 3.21c-1.3 1.97-2.23 3.31-4.14 4.75-.91.68-1.78 1.33-2.45 2.26-.77 1.06-1.19 2.33-1.56 3.57l3.09-1.26c-3.07-1.78-6.18-3.46-9.46-4.83-3.29-1.37-6.73-2.28-10.14-3.29-6.74-2-13.24-4.7-19.42-8.06-2.28-1.24-4.3 2.2-2.03 3.48a97.3 97.3 0 0 0 19.42 8.36c3.41 1.04 6.87 1.92 10.2 3.23 3.24 1.28 6.3 2.99 9.31 4.74 1.2.69 2.7.04 3.09-1.26.2-.66.39-1.33.73-1.93.27-.48.26-.45.76-.91.34-.31.58-.45 1.12-.85.72-.55 1.45-1.1 2.1-1.73 2.04-1.98 3.33-4.75 5.01-7.02.8-1.08 2.22-2.08 3.35-3.07 1.78-1.55 3.48-3.18 5.16-4.83 1.49-1.47 4.23-3.4 2.9-5.79-.51-.92-1.48-1.59-2.23-2.32-.8-.79-1.59-1.62-2.29-2.5-2.64-3.3-4.35-8.02-1.94-11.92.52-.85.24-1.77-.32-2.48-3.99-5.09-8.77-9.47-14.13-13.09-1.35-.91-2.98.32-3.05 1.75-.16 3.19-.3 6.4-1.09 9.51-.77 3.05-2.17 5.88-1.38 9.1 1.12-.65 2.25-1.31 3.37-1.96-5.12-5-10.34-9.88-15.68-14.63-1.28-1.14-3.29-.36-3.36 1.39-.28 7.69-.58 15.38-.88 23.06.82-.63 1.65-1.25 2.47-1.88-5.93-2.47-11.86-4.94-17.8-7.39-1.32-.55-2.85 1.08-2.37 2.37 2.41 6.46 4.66 12.97 6.74 19.54.6-.78 1.2-1.57 1.79-2.35-5.51-.18-11.01-.3-16.52-.34-2.07-.01-2.03 3.05 0 3.19ZM10.02 90.86c6.17 8.36 13.43 15.91 21.53 22.42a232 232 0 0 0-13.4 20.05c7.04-.94 14.17-1.24 21.26-.89-.14 6.88.13 13.76.82 20.6 6.42-4.08 12.83-8.16 19.25-12.25 5.09 8.15 10.18 16.31 15.27 24.46l9.64-16.24c5.92 3.8 11.83 7.61 17.75 11.41 3.1-5.14 5.71-10.56 7.8-16.19 5.38 3.19 10.76 6.37 16.14 9.56a68 68 0 0 0 5.01-19.49c4.62 3.11 9.66 5.62 14.93 7.42a37.05 37.05 0 0 0-3.16-19.25c-2.36 1-5.04 1.19-7.52.54 2.05 3.48-.16 8.33-3.8 10.08s-8.05.99-11.67-.78c-2.69-1.32-5.16-3.19-8.06-3.96s-6.54-.06-7.88 2.63c1.69 2.23 3.37 4.46 5.06 6.69.73.97 1.51 2.14 1.17 3.31-.19.65-.69 1.16-1.22 1.58-2.94 2.36-7.25 2.88-10.67 1.27-.93-.44-1.82-1.02-2.83-1.21-3-.54-5.33 2.46-8.11 3.71-4.53 2.03-9.65-.8-13.79-3.53-.47-.31-.98-.66-1.15-1.2-.15-.46-.01-.96.12-1.42.67-2.34 1.33-4.69 2-7.03.31-1.08.62-2.21.41-3.31s-1.12-2.16-2.24-2.14a18.8 18.8 0 0 0-4.13 5.87 21.87 21.87 0 0 1-8.05-10.23c-2.04 3.58-4.7 6.82-7.81 9.52-2.43-3-4.06-6.64-4.67-10.45a18.37 18.37 0 0 1-11.18 2.83c1.9-3.88 3.84-8.26 2.48-12.36-.78-2.36-2.56-4.22-3.89-6.33s-2.19-4.85-1-7.03"/><path d="M8.66 91.65c6.1 8.54 13.34 16.38 21.45 23.05l-.32-2.45c-4.87 6.41-9.33 13.11-13.46 20.02-.73 1.23.18 3.36 1.8 3.14 7.05-.92 14.16-1.22 21.26-.89l-2.09-2.09c-.13 6.9.17 13.73.85 20.6.14 1.46 1.67 2.69 3.1 1.78l19.23-12.27-2.78-.73c5.1 8.15 10.17 16.32 15.26 24.47.81 1.3 2.73 1.35 3.53 0 3.21-5.42 6.41-10.84 9.65-16.24l-2.81.74 17.7 11.49c.98.64 2.36.19 2.93-.77 3.21-5.3 5.89-10.88 8.09-16.68-1.09.44-2.17.88-3.26 1.33 5.37 3.21 10.74 6.42 16.1 9.63.97.58 2.66.32 3.15-.83 2.81-6.61 4.57-13.5 5.33-20.65-1.16.66-2.31 1.33-3.47 1.99a67.3 67.3 0 0 0 15.48 7.66c1.54.53 2.79-.84 2.93-2.23.68-7.01-.61-14-3.53-20.39-.37-.81-1.7-1.38-2.55-1.04-2.06.83-4.15 1.08-6.32.55-1.91-.46-3.49 1.56-2.53 3.29 1.26 2.28-.13 5.18-2.13 6.54-2.93 2-7.1 1.22-10.1-.2-3.51-1.67-6.66-4.2-10.64-4.6-3.3-.34-6.88.92-8.53 3.95-.35.64-.48 1.63 0 2.26 1.81 2.39 3.73 4.72 5.42 7.19.52.76.82.98.09 1.56-.88.7-1.94 1.16-3.03 1.43-2.19.54-4.16.07-6.13-.91-2.35-1.17-4.57-1.35-6.97-.19-1.9.91-3.42 2.59-5.42 3.28-2.21.77-4.67.04-6.7-.93-1.1-.52-2.16-1.13-3.19-1.77-.39-.24-1.14-.95-1.56-1-.5-.06.42-.11.05.35.19-.23.21-.77.29-1.06.79-2.79 1.93-5.68 2.27-8.57.33-2.73-1.28-6.14-4.47-6.04-1.59.05-2.76 1.84-3.64 2.99-.96 1.25-1.76 2.56-2.42 3.99 1.02-.27 2.04-.53 3.06-.8-3.14-2.19-5.63-5.33-7.02-8.9-.67-1.71-3.05-2.32-4.08-.53a35.8 35.8 0 0 1-7.47 9.07h3.16c-2.18-2.75-3.51-6.03-4.09-9.47-.24-1.42-2.15-2.04-3.28-1.34-3.05 1.91-6.46 2.74-10.05 2.52.64 1.12 1.29 2.25 1.93 3.37 2.15-4.4 4.41-9.56 2.56-14.47-.81-2.16-2.24-3.89-3.52-5.78-.99-1.46-2.35-3.66-1.46-5.47 1.26-2.56-2.58-4.82-3.85-2.25-1.07 2.17-1.09 4.53-.22 6.78.84 2.21 2.3 3.96 3.6 5.9 1.22 1.83 1.88 3.71 1.58 5.94-.33 2.49-1.47 4.84-2.56 7.08-.76 1.57.17 3.26 1.93 3.37 4.32.27 8.64-.85 12.3-3.14-1.09-.45-2.19-.89-3.28-1.34.72 4.24 2.58 8.08 5.24 11.44.78.99 2.34.72 3.16 0 3.25-2.85 6-6.24 8.16-9.98-1.36-.18-2.72-.36-4.08-.53 1.84 4.73 4.91 8.66 9.08 11.57.92.64 2.58.23 3.06-.8.94-2.05 2.17-3.84 3.78-5.42l-1.58.65c-.35-.03.02 0 .05.34.04.52-.01.96-.14 1.47-.34 1.38-.77 2.74-1.15 4.1-.67 2.35-2.26 5.52-.44 7.69.75.9 1.86 1.51 2.85 2.12 1.09.68 2.21 1.32 3.38 1.86 2.31 1.07 4.84 1.92 7.42 1.74s4.56-1.26 6.6-2.68c1.47-1.03 2.89-2.24 4.7-1.41 2.21 1.02 4.23 1.88 6.73 1.84 2.38-.03 4.83-.72 6.81-2.06 2.63-1.78 3.84-4.41 2.16-7.36-.73-1.28-1.76-2.42-2.64-3.59-1.04-1.38-2.08-2.75-3.13-4.13v2.26c1.59-2.92 5.68-1.77 8-.58 1.91.98 3.69 2.18 5.65 3.05s4.02 1.46 6.19 1.67c4.02.39 8.08-1.02 10.55-4.29 2.2-2.91 2.81-6.81 1.01-10.07l-2.53 3.29c2.9.71 5.93.58 8.71-.52l-2.55-1.04c2.55 5.68 3.43 11.94 2.8 18.11l2.93-2.23c-5.09-1.78-9.9-4.18-14.38-7.18-1.6-1.07-3.3.4-3.47 1.99-.7 6.5-2.42 12.84-4.92 18.87 1.13-.46 2.25-.92 3.38-1.38-5.4-3.16-10.79-6.32-16.19-9.49-1.32-.78-2.77 0-3.26 1.33-2.01 5.46-4.54 10.69-7.51 15.69.98-.26 1.96-.51 2.93-.77-5.93-3.78-11.86-7.56-17.8-11.33-.94-.6-2.26-.19-2.81.74-3.19 5.43-6.42 10.83-9.64 16.25h3.53c-5.09-8.16-10.2-16.3-15.28-24.46-.56-.91-1.83-1.33-2.78-.73-6.42 4.07-12.84 8.15-19.26 12.22 1.03.59 2.07 1.19 3.1 1.78-.67-6.82-.92-13.75-.79-20.6.02-1.17-.98-2.04-2.09-2.09-7.1-.33-14.21-.03-21.26.9l1.8 3.14c4.12-6.91 8.6-13.59 13.34-20.09.47-.65.33-1.94-.32-2.45-8.08-6.38-15.32-13.62-21.6-21.78-.52-.68-1.34-1.02-2.15-.56-.69.39-1.05 1.46-.56 2.15Z"/><path d="M152.31 53.79a62.3 62.3 0 0 1-2 20.78c3.25.39 6.47 1.03 9.62 1.9-1.93 3.81-4.07 7.5-6.41 11.07a75.6 75.6 0 0 1 16.47 8.75c-4.43 4.34-8.87 8.67-13.3 13.01-.21.21-.44.45-.46.75-.01.32.23.6.46.83 3.2 3.25 6.4 6.51 9.59 9.76a91.4 91.4 0 0 1-24.2 4.31c1.96-3.47 2.37-7.79 1.1-11.57 3.79-.62 6.79-4.38 6.56-8.21s-3.67-7.2-7.51-7.35c2.34-.46 4.29-2.48 4.67-4.84.38-2.35-.84-4.88-2.92-6.05-1.35-.76-2.94-.96-4.48-1.06-3.16-.21-6.34-.08-9.48.38"/><path d="M150.89 53.79c-.08 6.86-.63 13.62-2.44 20.26-.37 1.34.64 2.29 1.87 2.45 3.08.4 6.11 1.05 9.08 1.93-.4-.99-.81-1.99-1.21-2.98-2.02 3.76-4.12 7.47-6.47 11.04-.81 1.23.07 2.61 1.25 3.07 5.65 2.18 10.99 5.1 15.95 8.58-.14-1.12-.29-2.23-.43-3.35l-6.84 6.66c-2.21 2.15-4.67 4.21-6.71 6.53-2.46 2.81 1.1 5.36 2.95 7.25l6.85 6.97c.32-1.22.65-2.45.97-3.67a90.3 90.3 0 0 1-23.62 4.23c.63 1.1 1.26 2.2 1.9 3.3 2.21-4.06 2.71-8.85 1.27-13.25l-1.5 2.64c4.7-.91 8.48-5.62 8.07-10.45-.42-5.02-4.62-8.93-9.59-9.25l.55 4.07c5.71-1.32 8.07-8.19 4.44-12.76-1.9-2.4-4.8-3.08-7.73-3.22-3.35-.16-6.67.13-9.98.6-1.01.14-1.57 1.43-1.32 2.33.3 1.09 1.31 1.47 2.33 1.32 2.34-.33 4.72-.39 7.08-.29 1.81.08 4.2.03 5.72 1.16 2.79 2.08 1.55 6.13-1.63 6.87-2.38.55-1.69 3.92.55 4.07 2.75.18 5.32 2.67 5.41 5.46.1 2.98-2.19 5.44-5.04 5.97-1.11.2-1.82 1.61-1.5 2.64 1.05 3.32.75 6.83-.92 9.89-.76 1.4.17 3.38 1.9 3.3 8.41-.37 16.76-1.83 24.78-4.39 1.57-.5 2.16-2.46.97-3.67l-4.97-5.06c-.8-.81-1.6-1.63-2.4-2.44-.4-.41-.8-.81-1.2-1.22-.23-.23-.46-.46-.69-.7-.37-.41-.45-.47-.24-.21v1.17c-.13.49.23-.12.41-.3l.87-.86c.58-.57 1.16-1.14 1.74-1.72 1.1-1.09 2.21-2.18 3.31-3.26 2.27-2.23 4.53-4.47 6.8-6.7 1.04-1.02.67-2.58-.43-3.35-5.28-3.67-10.99-6.62-16.99-8.92.42 1.02.83 2.05 1.25 3.07 2.33-3.57 4.51-7.25 6.36-11.1.55-1.14.14-2.64-1.21-2.98-3.34-.85-6.73-1.47-10.16-1.88.62.82 1.24 1.63 1.87 2.45 1.85-7.06 2.59-14.43 1.51-21.67-.24-1.62-2.78-1.18-2.79.38Z"/></svg>