<?xml version="1.0" encoding="UTF-8"?><svg xmlns="http://www.w3.org/2000/svg" viewBox="0 0 180 180"><path d="M130.47 23.14c.08-.08.18-.16.26-.24.09-.09.16-.19.25-.28.17-.18.35-.34.54-.49l-.33.26c.24-.19.5-.34.77-.49.13-.07.25-.14.38-.21.14-.07.27-.17.4-.24l.32-.24c.15-.14.26-.31.32-.5.13-.31.19-.69.08-1.02a1.8 1.8 0 0 0-.4-.69c-.14-.15-.31-.26-.5-.32-.19-.1-.39-.14-.6-.13-.13.01-.27.03-.4.05s-.28.02-.41.06c-.26.07-.52.2-.76.32-.37.17-.72.47-1.03.72-.23.18-.43.39-.62.61-.17.2-.33.41-.48.62-.11.16-.17.36-.24.53-.03.07-.06.14-.08.21l-.05.4c0 .21.04.41.13.59.12.29.33.58.62.73.24.13.5.2.77.21.38.02.81-.18 1.08-.45Zm4.73.32-.02-.03.16.37s-.02-.04-.02-.06l.06.41v-.06l-.06.41s0-.04.02-.06l-.16.37s.03-.06.05-.09l-.24.32c.04-.05.09-.09.14-.13l-.32.25c.09-.06.18-.12.28-.16l-.38.16c.41-.17.83-.34 1.24-.51.32-.13.64-.26.94-.41.2-.1.38-.24.56-.37.3-.2.58-.5.67-.87.07-.32.06-.64-.07-.95-.12-.28-.32-.55-.59-.69a1.6 1.6 0 0 0-1.12-.15c-.17.03-.35.07-.52.1-.28.06-.56.2-.83.31-.33.14-.67.28-1 .43-.41.17-.77.32-1.09.65-.26.26-.44.57-.55.92-.14.43-.07 1.04.21 1.41.1.18.23.32.4.43.15.14.32.23.52.28.37.1.86.06 1.19-.16s.62-.53.71-.92.05-.81-.16-1.19Zm2.64 4.97c.05-.02.1-.04.16-.05l-.37.05h.17c.21 0 .4-.05.59-.13.09-.04.17-.07.26-.11l-.36.15c.32-.13.66-.24 1-.34s.68-.18 1.03-.23c.2-.05.37-.14.52-.28.17-.11.3-.25.4-.43l.16-.37c.06-.2.07-.41.03-.61 0-.14-.04-.27-.11-.39-.06-.19-.17-.36-.32-.5-.28-.26-.69-.49-1.09-.45-.56.06-1.1.15-1.63.33-.31.11-.62.26-.91.41-.09.05-.18.1-.26.15-.27.17-.41.32-.59.59-.03.04-.05.08-.08.12l.22-.28s-.08.08-.12.11l-.21.27c-.1.15-.15.32-.16.5-.04.29 0 .61.16.86.13.19.29.36.48.48.15.1.32.15.5.16.18.04.36.03.54-.02ZM79.43 12.89c.11-.06.22-.11.33-.16.12-.06.22-.14.33-.21.22-.14.44-.26.66-.39s.43-.24.66-.35c.12-.06.24-.11.35-.17.22-.12.39-.29.55-.48s.31-.4.37-.64c.09-.32.05-.65-.07-.95-.1-.24-.24-.42-.45-.58a.8.8 0 0 0-.32-.19c-.17-.09-.36-.13-.56-.13-.25-.02-.51-.02-.74.06s-.47.19-.7.31q-.36.195-.69.42c-.31.21-.61.46-.88.71s-.5.55-.7.87l-.14.32c-.06.18-.06.36-.02.54.04.29.16.58.37.78.17.16.38.28.6.35.34.11.74.03 1.05-.14Zm4.66 2.03c.11-.09.23-.19.35-.28l-.29.23c.86-.66 1.79-1.2 2.79-1.63l-.36.15c.5-.21 1-.43 1.5-.65.3-.13.59-.56.66-.86.07-.32.06-.63-.07-.94-.28-.67-1-1-1.71-.84-1.82.43-3.51 1.55-4.91 2.77-.57.5-.55 1.54 0 2.04.28.25.64.44 1.02.42.4-.02.71-.17 1.02-.42Zm4.39 2.36s.04-.03.06-.05l-.29.22c.23-.17.47-.31.73-.43l-.35.15c.23-.1.47-.19.7-.29l-.34.15c.13-.05.26-.1.39-.14.18-.04.34-.13.48-.25q.225-.15.36-.39l.14-.34c.06-.19.07-.37.03-.56 0-.13-.03-.25-.1-.35a1.03 1.03 0 0 0-.29-.45l-.28-.22c-.22-.13-.46-.19-.71-.19-.26.03-.53.06-.79.12-.19.04-.35.13-.53.2-.07.03-.14.06-.21.1-.37.19-.7.44-1.01.72-.14.13-.24.28-.29.46-.09.17-.13.35-.12.55 0 .2.03.38.12.55.06.18.16.33.29.46.27.25.63.43 1.01.42l.38-.05c.24-.07.45-.19.63-.37ZM54.42 139.3c-8.34-.6-16.81.23-24.78 2.82-3.1 1-6.23 2.36-8.61 4.65-2.55 2.47-3.63 5.88-3.02 9.36 1.4 7.97 9.99 11.37 16.9 13.11 8.13 2.04 16.57 2.34 24.9 2.6 17.45.53 35.03.67 52.46-.33 7.96-.46 16.17-1.49 23.41-5.04 5.43-2.66 11.48-8.54 9.34-15.23-1.8-5.61-8.34-8.01-13.6-9-3-.56-6.08-.76-9.12-1.01-3.2-.27-6.39-.4-9.6-.32-2.02.05-4.03.18-6.04.34-2.66.22-2.71 4.37 0 4.19 6.28-.42 12.5-.16 18.76.42 4.65.43 10.34.98 13.91 4.37 3.93 3.73.18 8.81-3.59 11.21-5.86 3.72-13.29 4.9-20.09 5.48-7.63.65-15.33.72-22.99.83-8.13.12-16.27.11-24.4-.04-7.7-.14-15.46-.22-23.12-1.05-3.76-.41-7.5-1.08-11.13-2.15-3.16-.93-6.52-2.09-8.98-4.37-2.21-2.05-3.82-5.37-2.47-8.33 1.23-2.71 4.28-4.29 6.92-5.3 7.87-3.01 16.51-4.32 24.91-3.95 2.11.09 2.08-3.12 0-3.27Z"/><path d="M54.58 167.25c-.75-8.46.23-17.1 2.26-25.33 1.02-4.13 2.3-8.2 3.93-12.13.77-1.85 1.61-3.68 2.52-5.47.31-.6.43-1.13 1.1-1.3 1.1-.27 2.38-.12 3.49-.07 2.45.09 4.73-.05 7-1.02s4.22-.66 6.54-.43c4.58.45 9.2.74 13.75 1.46 3.96.62 8 1.63 11.27 4.06.57.42 1.22.78 1.18 1.5-.07 1.08-.56 2.29-.85 3.33-.65 2.33-1.37 4.64-2.19 6.92-.89 2.48-2.09 4.88-2.79 7.43s-.6 5.24.08 7.82 1.74 5.02 2.52 7.56c.84 2.75 1.43 5.54 1.88 8.38.35 2.19 4.15 1.71 3.91-.53-.28-2.72-.76-5.42-1.41-8.07-.6-2.46-1.48-4.79-2.26-7.19s-1.02-4.64-.13-7.16c.81-2.28 1.86-4.48 2.69-6.75q1.365-3.735 2.37-7.59c.61-2.37 1.5-5.02-.02-7.23-1.3-1.88-3.68-3.23-5.72-4.17s-4.05-1.61-6.18-2.08c-4.73-1.06-9.63-1.34-14.45-1.79-2.62-.24-5.36-.75-7.98-.59-2.47.15-4.52 1.62-7 1.67-2.4.05-4.95-.43-7.3.29s-3.26 2.83-4.22 4.87c-1.96 4.13-3.5 8.47-4.74 12.87-2.8 9.95-4 20.47-2.72 30.76.12.93.71 1.71 1.72 1.72.87 0 1.8-.8 1.72-1.72Z"/><path d="M49.59 143.02c-6.3.95-12.52 2.38-18.6 4.28-1.58.49-3.18 1.03-4.52 2s-2.42 2.44-2.52 4.09c-.19 3.02 1.81 7.01 4.52 8.35 6.78 3.35 15.23 3.03 22.67 4.41-.24-4.02 1.49-10.78.98-14.78s-2.96-5.68.32-8.02"/><path d="M49.16 141.47c-4.92.71-9.76 1.44-14.59 2.66-4.14 1.05-9.44 2.04-11.8 6.02-2.12 3.57-.56 8.22 1.91 11.19 2.61 3.15 7.33 4.17 11.17 4.84 4.89.86 9.89.96 14.77 1.82 1.16.21 2.52-.51 2.45-1.87-.22-4.27.97-8.48 1.04-12.75.03-1.97-.34-3.84-.97-5.7-.18-.54-.47-1.39-.47-1.73 0-.11-.02-.16.12-.39.22-.35.66-.65.98-.9 1.66-1.32-.54-4.19-2.28-2.96-1.8 1.27-2.91 2.92-2.53 5.19.31 1.83 1.23 3.47 1.33 5.36.23 4.66-1.29 9.23-1.09 13.88.82-.62 1.63-1.24 2.45-1.87-3.8-.7-7.63-1.04-11.46-1.56-3.57-.48-7.43-1.11-10.66-2.81-2.08-1.1-4.2-4.66-3.28-7.05.57-1.48 2.15-2.35 3.53-2.91 1.9-.77 3.91-1.31 5.87-1.89 4.69-1.39 9.53-2.69 14.36-3.48.86-.14 1.33-1.2 1.12-1.98-.24-.93-1.12-1.25-1.98-1.12Zm21.45 13.32c6.74-3.42 13.51-7.05 19.71-11.4 1.54-1.08.16-3.57-1.5-2.56-6.51 3.93-12.92 7.95-19.67 11.46-1.65.86-.2 3.33 1.46 2.5m12.61 5.96c1.96-1.03 3.9-2.09 5.81-3.2 1.91-1.1 3.86-2.19 5.67-3.44.67-.46.97-1.32.54-2.05s-1.35-.95-2.05-.54c-1.91 1.11-3.75 2.34-5.66 3.46s-3.83 2.2-5.78 3.25c-.69.37-.91 1.34-.52 2 .41.71 1.3.89 2 .52Zm-9.2-16.87c.4-.13.81-.27 1.21-.4s.8-.31 1.2-.47c.19-.04.35-.13.49-.26.16-.1.28-.24.37-.4.18-.31.26-.76.14-1.11s-.33-.68-.66-.86-.74-.26-1.11-.14c-.41.13-.82.24-1.22.39s-.8.3-1.2.46c-.19.04-.35.13-.49.26-.16.1-.28.24-.37.41-.18.31-.26.77-.15 1.12s.33.69.67.87.75.27 1.12.15Zm33.47.75c-2.43.91-2.84 4.31-1.85 6.7s2.89 4.33 3.84 6.75c1.04 2.65.82 5.6.59 8.44 2.26.86 4.77.59 7.15.21 3.95-.63 7.85-1.53 11.68-2.7 2.71-.83 5.43-1.81 7.65-3.56s3.89-4.41 3.84-7.24c-.01-.71-.15-1.44-.54-2.03-.37-.55-.94-.92-1.5-1.27-8.82-5.38-19.72-5.93-30.03-5.37"/><path d="M107.09 143.16c-4.01 1.33-4.25 6.33-2.69 9.61.99 2.08 2.65 3.82 3.46 5.99.92 2.46.63 5.2.41 7.76-.07.82.61 1.48 1.32 1.73 2.57.9 5.25.67 7.89.29 2.77-.41 5.51-.97 8.22-1.65 4.76-1.21 10.2-2.6 13.63-6.38 1.56-1.72 2.66-3.81 2.93-6.13.14-1.2.07-2.45-.43-3.56-.58-1.3-1.68-2.09-2.87-2.8-4.18-2.5-8.92-4.01-13.71-4.8-5.61-.92-11.29-.98-16.95-.7-2.62.13-2.63 4.24 0 4.09 8.32-.46 16.98-.31 24.81 2.87.94.38 1.87.83 2.76 1.31.72.38 1.97.85 2.38 1.59.82 1.46-.45 3.85-1.32 4.98-2.53 3.29-7.04 4.45-10.84 5.51-2.62.73-5.27 1.33-7.94 1.83-2.52.47-5.11.94-7.6.09l1.32 1.73c.17-2.26.3-4.52-.09-6.76s-1.38-3.97-2.57-5.76c-1.31-1.99-4.2-6.32-.93-8.04 1.52-.8.48-3.35-1.18-2.8Zm-43.57-23.75c4.17-3.61 8.35-7.23 12.42-10.95 2.11-1.94 4.27-4.01 5.22-6.72.87-2.48.63-5.25 1.6-7.69 1.08-2.72 3.5-4.67 4.92-7.23 1.47-2.66 1.78-5.78 2.05-8.81.3-3.34.6-6.78-.4-9.98-.38-1.21-.93-2.36-1.48-3.5-3.76-7.8-7.53-15.59-11.29-23.39 2.09-.05 3.65-1.84 5.28-3.16s4.3-2.13 5.62-.5c.79.97.72 2.44 1.54 3.39.6.7 1.57.97 2.25 1.59.76.7 1.05 1.75 1.4 2.72 2.63 7.36 9.83 12.85 10.79 20.6.35 2.79-.17 5.61-.52 8.4-.72 5.78-.7 11.65.05 17.42.09.7.18 1.46-.18 2.08-.34.58-1 .88-1.61 1.16a36.8 36.8 0 0 0-11.93 8.75c6.67-3.1 12.22-8.37 19.11-10.95 4.59-1.72 9.6-2.19 14.08-4.18 2.4-1.06 4.74-2.71 5.65-5.17.59-1.59.51-3.35.23-5.02-.87-5.02-3.57-9.7-3.71-14.79-.07-2.43.41-5.08-.92-7.11-.34-.52-.8-1-.92-1.62-.31-1.6 1.69-2.55 3.27-2.92 1.07-.25 2.14-.5 3.22-.75.55-.13 1.14-.25 1.67-.05.51.2.85.66 1.14 1.13 1.25 2.06 1.73 4.48 2.19 6.84l3.75 19.31c.25 1.29.5 2.61.33 3.92-.17 1.28-.74 2.47-1.32 3.62a74.9 74.9 0 0 1-15.35 20.39c-4.33 4.06-9.16 7.63-12.91 12.24-.68.83-1.34 1.72-2.29 2.22-1.46.77-3.24.45-4.85.1-8.64-1.88-17.54-3.97-26.24-2.38-2.98.55-6.05 1.52-8.98.74"/><path d="M64.53 120.42c4.84-4.09 9.93-7.98 14.43-12.45 1.93-1.91 3.58-4.13 4.25-6.81.68-2.71.54-5.49 2.11-7.92 1.47-2.28 3.47-4.12 4.57-6.64 1.19-2.72 1.49-5.68 1.76-8.6s.48-5.98-.08-8.95-2.23-5.88-3.56-8.66c-3.25-6.75-6.49-13.51-9.74-20.26l-1.71 2.98c1.49-.11 2.76-.61 3.96-1.48 1.08-.79 2-1.84 3.16-2.52.49-.29 1.58-.86 2.15-.47.32.22.41.91.52 1.23.23.71.49 1.39.93 2 .73 1 1.98 1.28 2.73 2.18.38.45.51 1.12.71 1.66.27.74.57 1.46.9 2.17 1.11 2.41 2.63 4.61 4.15 6.78 3.1 4.44 6.06 8.74 5.73 14.38-.2 3.42-.86 6.78-1.02 10.21s-.07 6.96.28 10.42c.08.81.42 1.84.3 2.64-.09.6-.19.49-.88.82-1.54.74-3.04 1.53-4.48 2.45a39.5 39.5 0 0 0-7.85 6.61c-1.56 1.7.38 4.05 2.39 3.1 5.9-2.79 10.88-7.16 16.77-9.96s12.85-2.73 18.42-6.25c2.64-1.66 4.57-4.06 4.92-7.23s-.72-6.55-1.72-9.59-2.14-6.26-2.08-9.62c.03-1.48.11-2.94-.11-4.42a8.2 8.2 0 0 0-.65-2.18c-.23-.49-.93-1.21-1.04-1.61.1.36-.37.19.14-.02.23-.09.43-.26.65-.36.47-.21 1-.31 1.5-.42.84-.2 1.98-.26 2.76-.64.07-.04.73-.06.26-.22.29.1.57.86.7 1.11 1.47 2.92 1.76 6.55 2.37 9.72l2.1 10.86c.34 1.73.72 3.47 1 5.21s.03 3.15-.76 4.74c-2.83 5.71-6.51 11.04-10.76 15.78s-9.55 8.75-14.18 13.3c-1.33 1.31-2.53 2.71-3.74 4.13-.46.55-.93 1.15-1.64 1.36-.76.23-1.63.06-2.39-.1-4.01-.82-7.96-1.84-12.02-2.45s-8.02-.97-12.05-.64c-2.08.17-4.11.56-6.14.99-1.85.39-3.73.74-5.61.31-2.62-.61-3.74 3.4-1.11 4.04 3.9.94 7.58-.42 11.43-.91 3.8-.48 7.69-.3 11.48.21s7.59 1.33 11.36 2.12c1.56.33 3.2.75 4.8.6 1.99-.19 3.5-1.13 4.77-2.65 2.24-2.66 4.61-5.1 7.22-7.4s5.26-4.52 7.72-6.97a77 77 0 0 0 12.49-16.31c1.74-3.04 3.62-6.18 3.19-9.82-.46-3.83-1.42-7.65-2.15-11.44s-1.43-7.6-2.22-11.39c-.57-2.75-1.57-7.54-4.87-8.21-1.72-.35-3.88.46-5.54.89-1.34.34-2.7.9-3.68 1.9a3.76 3.76 0 0 0-.68 4.31c.32.66.86 1.18 1.15 1.85.32.76.35 1.62.37 2.43.03 1.62-.05 3.21.16 4.82.25 1.9.75 3.74 1.34 5.57 1.02 3.17 2.65 6.63 2.47 10.03-.19 3.69-3.68 5.51-6.79 6.58-3.8 1.31-7.81 1.85-11.6 3.2-7.3 2.61-13.05 8.01-20 11.3l2.39 3.1c2.24-2.45 4.76-4.59 7.59-6.34 1.37-.85 2.81-1.53 4.25-2.25s2.42-1.88 2.52-3.55-.33-3.44-.45-5.11c-.14-1.94-.19-3.88-.17-5.82.05-3.71.54-7.33.96-11.01.37-3.23.23-6.43-.96-9.49-1.04-2.67-2.57-5.07-4.19-7.41s-3.32-4.63-4.64-7.16c-.62-1.19-1.02-2.43-1.53-3.66-.28-.68-.62-1.31-1.1-1.86-.61-.69-1.42-.98-2.12-1.54-.45-.37-.54-.76-.72-1.3-.28-.87-.61-1.72-1.22-2.41-1.13-1.27-2.83-1.64-4.47-1.38s-3 1.09-4.25 2.13c-1.02.85-2.17 2.24-3.59 2.35-1.55.12-2.39 1.57-1.71 2.98 2.76 5.69 5.52 11.39 8.28 17.08 1.32 2.72 2.8 5.42 3.94 8.22 1.08 2.66 1.12 5.46.93 8.29s-.34 5.57-1.16 8.21-2.59 4.35-4.13 6.43c-1.69 2.29-2.28 4.73-2.63 7.52s-1.05 4.84-2.88 6.89c-2.12 2.38-4.62 4.44-6.95 6.61-2.56 2.37-5.14 4.71-7.75 7.02-1.39 1.23.63 3.2 2.02 2.02Z"/><path d="M88.61 106.17c8.61-8.86 19.17-15.64 30.6-20.27 1.06-.43 1.9-1.45 1.52-2.68a113.8 113.8 0 0 1-5.17-33.77c-.93.7-1.85 1.41-2.78 2.11 7.16 2.15 14.85 1.41 21.55-1.86l-3.2-1.3c2.18 5.97 4.1 12.03 5.75 18.17 1.51 5.62 3.4 11.49 1.25 17.19-1.8 4.76-5.55 8.59-8.99 12.19-3.81 3.99-7.38 8.17-10.86 12.44-3.88 4.75-7.8 9.45-12.03 13.9-2.02 2.12 1.19 5.34 3.22 3.22 7.82-8.18 14.41-17.42 22.18-25.65 3.81-4.03 7.85-8.15 10.13-13.29 1.15-2.6 1.85-5.33 1.86-8.19 0-3.37-.85-6.71-1.67-9.95-1.82-7.18-4.04-14.25-6.62-21.19-.51-1.38-1.86-1.97-3.2-1.3-5.64 2.79-12.18 3.21-18.18 1.39-1.37-.42-2.77.72-2.78 2.11-.02 11.83 1.79 23.65 5.36 34.93.51-.89 1.01-1.78 1.52-2.68-12.08 4.97-22.82 12.65-31.79 22.12-1.47 1.55.86 3.89 2.35 2.35Z"/><path d="M64.75 120.35c2.5-11.04 8.47-21.08 13.31-31.19 1.23-2.58 2.41-5.18 3.51-7.82 1.02-2.45 2.64-5.48 2.37-8.19-.14-1.48-.95-2.65-1.73-3.86s-1.56-2.52-2.29-3.8c-1.47-2.57-2.82-5.2-4.04-7.89-2.68-5.89-4.7-12.08-6.13-18.39l-2.01 2.64c7.58.38 15.18-2.78 20.24-8.45l-3.27-.42c4.51 7.84 9.09 15.65 13.52 23.54 2.05 3.65 3.64 7.45 4.47 11.57.73 3.59.75 7.27.35 10.9-.48 4.38-1.59 8.69-2.55 12.98-.57 2.54 3.29 3.63 3.92 1.08 1.93-7.78 3.78-15.75 2.66-23.8-1.25-9.04-6.28-16.61-10.73-24.36l-8.04-14.01c-.64-1.11-2.37-1.43-3.27-.42a21.69 21.69 0 0 1-17.3 7.22c-1.42-.07-2.3 1.39-2.01 2.64 2.51 11.14 6.95 21.84 13.12 31.46.32.49.77 1.02.92 1.59.14.53-.07 1.09-.23 1.6-.43 1.38-.97 2.73-1.49 4.07-.99 2.53-2.07 5.02-3.21 7.5-2.33 5.08-4.86 10.07-7.12 15.18-2.56 5.78-4.61 11.65-6.01 17.82-.45 1.99 2.61 2.84 3.06.84Zm52.19-72.08c-.06-2.5.1-5.13.33-7.62s.79-4.85 1.81-7.05c1.07-2.31 2.72-4.2 4.14-6.29 1.3-1.91 2.14-3.99 3.7-5.73 1.09-1.23.06-3.72-1.76-3.03-2.64 1-3.48 3.57-4.84 5.8-1.54 2.53-3.6 4.67-4.83 7.39-1.19 2.63-1.81 5.42-2.07 8.28s.11 5.72.64 8.64c.3 1.64 2.92 1.24 2.89-.39Zm21.79-17.72c-.59.69-1.5.81-2.26 1.24s-1.43 1.06-1.98 1.72c-1.16 1.4-1.93 3.01-2.69 4.65s-1.75 3.26-2.68 4.87c-1.02 1.77-2.47 4.48-1.42 6.49.63 1.21 2.45 1.12 3.1 0 .48-.82.44-1.87.75-2.78.28-.8.69-1.55 1.1-2.3.91-1.65 1.72-3.29 2.43-5.03.55-1.35 1.1-2.8 2.03-3.94 1.07-1.32 2.76-1.88 3.73-3.3.85-1.25-1.12-2.79-2.11-1.63Z"/><path d="M68.38 38.11c-1.43-1.77-2.61-4.18-2.98-6.43-.41-2.49.73-4.82 1.74-7.02 2.32-5.05 6.3-8.86 9.54-13.31 1.26-1.74-1.56-3.91-2.98-2.3-2.13 2.41-4.08 5.01-6.07 7.54-1.96 2.48-3.37 5.1-4.62 7.99s-1.86 5.46-1.14 8.44 2.5 5.05 4.36 7.24c1.28 1.51 3.37-.65 2.15-2.15m19.86-18.68c-.82 1.04-1.75 1.95-2.87 2.66-.61.39-1.28.73-1.77 1.28s-.73 1.39-1.02 1.85c-.41.64-.82 1.16-1.1 1.88s-.35 1.46-.47 2.2-.22 1.53-.33 2.3c-.15 1.07-.55 2.39.44 3.19.42.34 1.03.66 1.6.42.6-.25 1.04-.51 1.3-1.12.17-.39.2-.82.26-1.24l.33-2.29c.11-.76.13-1.45.31-2.16.13-.48.54-.95.79-1.46.15-.32.28-.65.37-1 .08-.28.06-.37.17-.5.35-.39.94-.73 1.39-1.12 1.08-.92 2-2.02 2.8-3.19.89-1.31-1.22-2.98-2.22-1.71Zm63.26 62.82c4.48 3.39 4.48 10.39 4.11 15.42-.44 6.05-2.58 12.46-7.66 16.18-2.26 1.65-4.95 2.76-7.77 2.76-1.06 0-5.13-.5-4.19-2.41s4.24-1.66 5.9-1.12c2.31.76 4.25 2.59 5.34 4.75 1.5 2.97.71 6-.68 8.86s-2.98 5.74-5.83 7.43c-1.83 1.09-.63 4.03 1.46 3.46 3.89-1.06 6.06-4.76 7.78-8.14 1.85-3.65 3.18-7.63 1.87-11.69-2.12-6.53-10.69-12.32-17.27-8.04-3.16 2.06-4.13 6.37-1.03 9.01 2.92 2.48 7.23 2.52 10.75 1.54 8.02-2.23 13.07-9.62 14.6-17.48s1.48-18.48-5.82-23.23c-1.72-1.12-3.12 1.51-1.57 2.68ZM86.17 61.47c2.03 0 2.03-3.16 0-3.16s-2.03 3.16 0 3.16M59.13 88.86c-2.24-1.98-4.48-3.97-6.73-5.95-1.09-.97-2.19-1.92-3.27-2.91-.57-.52-1.16-1.09-1.95-1.27-.99-.22-2.17.12-2.61 1.12-.71 1.6.73 3.12 2.36 2.36l.12-.06-.9.24c-.13.02-.36-.15-.13-.03-.14-.07-.24-.14-.04-.02.09.05.18.1.27.16-.19-.13.05.05.1.09.49.4.98.8 1.46 1.2 1 .83 2 1.67 3 2.5 1.97 1.64 3.94 3.29 5.91 4.93.7.58 1.69.68 2.38 0 .61-.61.68-1.77 0-2.38Zm-11.97 14.73c-3.29-.69-6.59-1.34-9.89-1.95-3.29-.61-6.7-1.5-10.06-1.58-1.97-.05-2.36 2.92-.46 3.42 3.16.84 6.56 1 9.8 1.5 3.27.5 6.53 1.04 9.79 1.63 1.95.35 2.82-2.6.83-3.01Zm-2.24 18.17c-2.06.7-4.12 1.39-6.17 2.11-1.03.36-2.05.72-3.08 1.08l-1.42.5c-.24.08-.47.17-.71.25-.13.05-.27.09-.4.12.8-.14 1.23.36 1.3 1.51.39-1.37-1.29-2.87-2.56-1.97-.84.59-1.29 1.5-.98 2.53.29.97 1.1 1.61 2.08 1.75.86.12 1.62-.22 2.41-.52l2.12-.8c2.79-1.05 5.56-2.12 8.34-3.2.88-.34 1.48-1.17 1.22-2.14-.24-.87-1.25-1.52-2.14-1.22Z"/></svg>