<?xml version="1.0" encoding="UTF-8"?><svg xmlns="http://www.w3.org/2000/svg" viewBox="0 0 180 180"><path d="M155.28 152.72c-3.68-.03-7.36-.04-11.04-.12l-5.52-.12-2.55-.06c-1-.02-2.08-.15-3.03.23-1.71.68-1.71 2.81 0 3.5.95.38 2.02.25 3.03.23l2.55-.06 5.52-.12c3.68-.08 7.36-.09 11.04-.12 2.16-.02 2.17-3.34 0-3.36m-21.9-37.38c1.31-1.79 2.61-3.58 3.92-5.37 1.3-1.77 2.77-3.5 3.82-5.42.41-.75.24-1.67-.44-2.2s-1.65-.49-2.24.13c-1.58 1.69-2.82 3.73-4.15 5.61s-2.6 3.66-3.91 5.49c-.53.74-.16 1.96.62 2.37.9.48 1.8.16 2.37-.62Zm6.81 10.2c3.83-2.97 8.12-5.29 12.52-7.29.83-.38 1.09-1.55.76-2.31-.34-.76-1.32-1.42-2.18-1.07-4.94 2-9.43 4.85-13.56 8.21-.73.59-.62 1.85 0 2.46.73.73 1.72.58 2.46 0m3.3 9.76c2.63.31 5.27.3 7.89-.06 1.23-.17 2.44-.4 3.64-.72 1.3-.34 2.79-.69 3.88-1.48.68-.49 1.05-1.28.69-2.1s-1.12-1.09-1.98-.97c-1.21.16-2.38.72-3.56 1.04s-2.32.56-3.5.73c-2.34.35-4.71.4-7.06.19-.91-.08-1.69.83-1.69 1.69 0 1 .78 1.58 1.69 1.69Zm4.34 12.51c2.35 0 2.36-3.66 0-3.66s-2.36 3.66 0 3.66"/><path d="M83.38 81.6c19.16 12.69 36 30.8 43.5 52.85a84.2 84.2 0 0 1 4.28 21.49c.9-.68 1.79-1.37 2.69-2.05l-5.4-1.35c-3.14-.78-6.16.48-8.5 2.62-1.27 1.16-2.77 1.84-4.54 1.61-1.96-.25-3.51-1.58-5.43-1.92-2.08-.37-4.24.03-6 1.22-1.73 1.18-3.09 1.71-5.18 1.06-1.07-.33-1.98-1.01-3.06-1.31-1-.29-2.14-.27-3.14.03-1.92.59-3.51 2.19-3.99 4.15l3.73-.99c-15.29-12.7-21.55-32.52-23.46-51.68-.61-6.13-.76-12.28-1.01-18.43-.12-2.78-4.32-2.81-4.34 0-.1 11.24.82 22.73 3.28 33.71 2.16 9.66 5.81 19.13 11.39 27.34 3.09 4.55 6.75 8.71 10.99 12.22 1.23 1.02 3.3.77 3.73-.99.2-.84.97-1.29 1.8-1.03s1.53.76 2.32 1.06c.98.37 1.99.57 3.03.66 1.98.18 4.09-.46 5.69-1.62 1.32-.96 2.66-1.51 4.26-.81 1.79.79 3.42 1.55 5.41 1.71 1.86.15 3.83-.31 5.46-1.22 1.53-.86 2.54-2.39 4.19-3.06.28-.11.6-.19.89-.26.1-.02.83-.17.38-.17.23 0 .5.12.72.17 1.89.46 3.78.91 5.66 1.37 1.25.3 2.8-.62 2.69-2.05-.98-13.23-4.75-26.08-11.27-37.64-5.96-10.57-14.02-19.89-23.26-27.72-5.02-4.26-10.37-8.14-15.89-11.72-1.73-1.12-3.31 1.62-1.61 2.75Z"/><path d="M67.11 89.41c4.56-4.5 10.57-7.22 16.89-8.1 1.21-.17 1.96-2.03 1.22-3-2.12-2.75-3.55-5.93-5.49-8.8-2.06-3.04-4.69-6.01-8.66-5.98-3.58.03-6.46 1.68-9.11 3.92-2.53 2.14-5.1 4.63-4.38 8.26.43 2.18 1.59 4.35 2.4 6.41l2.7 6.84c.39.98 1.3 1.66 2.39 1.36.93-.26 1.75-1.41 1.36-2.39-.87-2.21-1.74-4.41-2.61-6.62-.78-1.98-1.78-3.98-2.34-6.03-.45-1.65.62-2.68 1.79-3.7 1.21-1.05 2.41-2.16 3.8-2.97s3.3-1.28 4.84-.98c1.61.31 2.83 1.91 3.76 3.15 2.26 3.03 3.71 6.59 6.02 9.59.41-1 .81-2 1.22-3-6.98.97-13.34 4.59-18 9.85-1.31 1.48.76 3.6 2.19 2.19Z"/><path d="M85.44 79.18c4.81-5.25 9.61-10.51 14.42-15.76.34-.37.7-.78.77-1.28.05-.35-.05-.71-.15-1.05l-5.89-20.16c-.03-.11.12-.18.18-.09 2.9 4.34 5.98 8.5 9.12 12.67 2.4 3.19 6.36 5.68 7.79 9.51.88 2.35-.09 4.61-.83 6.86-.85 2.6-1.87 5.13-2.93 7.65-2.09 4.98-4.33 9.9-5.84 15.09-4.72-4.94-10.24-8.41-15.85-12.3"/><path d="M86.52 80.26c4.18-4.13 8.13-8.48 12.13-12.79 1.72-1.85 4.39-3.74 3.79-6.56-.09-.43-.23-.86-.35-1.28-1.36-4.84-2.81-9.66-4.22-14.49-.46-1.58-.92-3.16-1.39-4.74l-.2 1.52.05-.12c-.74.3-1.49.61-2.23.91l.13.04-1.18-.91c2.24 3.34 4.6 6.6 7 9.82 1.09 1.46 2.14 2.97 3.35 4.34 1.06 1.19 2.23 2.28 3.35 3.42 1.03 1.06 2 2.15 2.69 3.46.89 1.68.5 3.26-.06 4.98-1.25 3.84-2.77 7.56-4.35 11.26-1.81 4.23-3.75 8.49-4.92 12.96l3.4-.9c-4.88-4.9-10.62-8.67-16.29-12.58-2.11-1.45-4.09 1.98-2 3.43 5.36 3.71 10.93 7.23 15.41 12.03 1.1 1.17 2.94.5 3.4-.9 2.74-8.29 6.72-16.1 9.33-24.43.61-1.94.93-4.04.29-6.02-.56-1.72-1.58-3.22-2.75-4.59-1.08-1.27-2.3-2.4-3.48-3.57-1.33-1.33-2.43-2.79-3.56-4.3-1.41-1.89-2.81-3.8-4.18-5.72-.73-1.03-1.45-2.06-2.17-3.1-.65-.94-1.19-2.19-2.37-2.52-.76-.21-1.89.12-2.23.91-.65 1.47.18 3.12.6 4.57.73 2.5 1.46 5 2.19 7.51s1.41 4.87 2.13 7.29c.2.69.42 1.38.62 2.07.03.11.08.23.1.34.05.27.03.47.1.26-.17.58-1.08 1.26-1.49 1.71-4.33 4.8-8.72 9.55-12.84 14.54-1.23 1.49.74 3.58 2.17 2.17ZM62.67 89.5c-6.14.03-12.28.06-18.42.1-.55 0-1.15-.01-1.57-.36-.3-.25-.45-.62-.6-.98L31.52 61.95c-.05 11.05.89 22.11 2.8 32.99.07.41.15.84.4 1.17.24.33.61.53.98.73 9.21 4.88 19.25 7.94 29.22 10.98a82.4 82.4 0 0 1-1.61-18.07"/><path d="M62.67 87.81c-3.98-.16-7.97-.21-11.95-.27-1.99-.03-3.98-.03-5.97-.04-.21 0-.7.07-.93-.02.4.35.45.27.14-.25l-.18-.46c-.39-1-.8-2-1.21-3-3.03-7.45-6.08-14.9-9.07-22.37-.82-2.04-4.03-1.94-4.04.55-.03 9.29.63 18.56 1.94 27.76.3 2.13.41 4.56 1.12 6.59.72 2.09 3.16 2.98 4.99 3.87 4.01 1.94 8.16 3.62 12.36 5.09 4.78 1.68 9.64 3.07 14.49 4.51 1.57.47 2.8-1.04 2.5-2.5-1.19-5.78-1.69-11.63-1.58-17.52.05-2.57-3.95-2.58-4 0-.11 6.24.48 12.48 1.65 18.61l2.5-2.5c-7.82-2.44-15.73-4.9-23.22-8.23-.92-.41-1.84-.83-2.75-1.27-.86-.42-1.96-.76-2.73-1.33-.41-.31-.38-.31-.48-.87-.09-.48-.17-.96-.25-1.44-.19-1.12-.36-2.25-.53-3.37-.62-4.24-1.08-8.5-1.4-12.77-.36-4.86-.53-9.74-.52-14.61-1.35.18-2.7.36-4.04.55 3.31 8.23 6.51 16.5 9.82 24.72.77 1.91 1.38 3.98 3.66 4.41 1.97.37 4.21.06 6.21.02 4.48-.09 8.97-.21 13.44-.44 2.18-.11 2.19-3.3 0-3.39Zm.69-20.87c-.43-1.55-.9-3.09-1.37-4.63L57.13 46.4a135 135 0 0 0 12.89 18.54c-1.47.43-2.92.96-4.32 1.59"/><path d="M64.92 66.51c-1.82-6.92-4.2-13.69-5.96-20.62-1.16.49-2.32.98-3.47 1.46 1.75 3.38 3.96 6.6 6.12 9.72s4.59 6.23 7.11 9.16l.81-3.08c-1.59.54-3.15 1.23-4.66 1.95-1.65.79-.47 3.7 1.26 3 1.43-.58 2.88-1.01 4.38-1.4 1.46-.38 1.63-2.04.81-3.08-2.28-2.88-4.47-5.82-6.57-8.83-2.12-3.05-3.98-6.25-5.99-9.36-1.11-1.72-4.24-.66-3.47 1.46 1.21 3.37 2.19 6.84 3.27 10.25s2.23 6.79 3.23 10.22c.59 1.99 3.65 1.16 3.12-.86Zm-2.16 14.9c2.13-2.06 4.4-4.03 6.96-5.54 1.2-.71 2.45-1.31 3.79-1.73.69-.21 1.39-.39 2.09-.5.75-.12 1.53-.07 2.26-.27 1.47-.4 1.55-2.7 0-3.06s-3.47.14-4.97.59c-1.6.49-3.14 1.19-4.58 2.04-2.88 1.71-5.27 4.08-7.5 6.54-1.17 1.3.66 3.17 1.93 1.93Zm-16.82 28.16c-6.14 3.13-10.36 10.36-11.42 17.01-.55 3.48-.32 7.16 1.48 10.27 1.67 2.9 4.58 5.14 7.95 5.47 5.95.58 13.46-3.54 15.7-9.17 1.13-2.85.29-6.06-2.06-8.04-2.78-2.35-6.22-.25-8.48 1.77-6.95 6.21-11.15 16.73-6.81 25.6.7 1.43 3.11.43 2.58-1.09-2.33-6.79.09-14.17 4.55-19.5.9-1.08 1.88-2.15 2.98-3.03.42-.34.88-.65 1.36-.89.27-.14.35-.17.56-.24.13-.04.68-.14.48-.12.39-.03.23-.03.44.05-.14-.06.17.11.22.16.42.38.78.86 1.01 1.37.37.8.37 1.54.14 2.38-.61 2.16-2.63 3.88-4.51 5.03-2.12 1.31-4.63 2.29-7.15 2.29-2.29 0-4.36-1.31-5.69-3.34-1.46-2.23-1.77-4.91-1.5-7.52.61-6.01 4.32-12.84 9.63-15.93 1.63-.95.19-3.35-1.47-2.51Zm9.6 48.91c5.11.04 10.22.06 15.34.12 2.47.03 4.95.15 7.42.19 2.52.04 5.41.4 7.88-.19 1.64-.39 1.64-2.92 0-3.31-2.46-.59-5.35-.23-7.88-.19-2.47.04-4.95.16-7.42.19-5.11.06-10.22.08-15.34.12-1.99.02-1.99 3.08 0 3.09Zm45.49-39.37c-6.41 1.15-12.53 5.88-13.98 12.44-1.47 6.67 2.3 13.58 8.33 16.58 6.41 3.18 14.25 1.52 19.41-3.25 2.76-2.56 4.78-6.1 5.23-9.86.39-3.26-.42-6.59-1.89-9.49-1.69-3.35-4.54-6.29-8.29-7.17-1.98-.46-3.92-.36-5.9.01-2.13.4-4.27.82-6.23 1.75-1.6.76-.41 2.99 1.14 2.7s2.89-.86 4.36-1.1 3.18-.16 4.66.06c2.58.38 4.56 1.85 5.91 4.04 1.31 2.13 2.16 4.69 2.24 7.2.09 2.87-1.09 5.63-2.97 7.77-3.48 3.97-9.2 6.07-14.34 4.44-4.81-1.52-8.43-6.37-8.15-11.45.33-5.9 5.73-10.7 11.26-11.79 1.89-.37 1.08-3.22-.79-2.88m-30.92 1.88c5.81-4.24 11.81-8.11 18.32-11.21 6.46-3.07 13.29-5.38 20.26-6.97 2.44-.55 1.41-4.31-1.03-3.75-14.27 3.26-28.34 9.85-39.38 19.54-1.27 1.12.44 3.4 1.84 2.38Z"/><path d="M75.47 157.12c13.19 14.13 37.44 15.4 54.69 9.52a62.5 62.5 0 0 0 10.4-4.65c3.19-1.8 6.29-3.86 8.71-6.61-3.73-.03-7.45-.05-11.18-.08-1.07 0-2.17 0-3.14.42-1.02.45-1.92 1.36-3.04 1.28-.61-.04-1.14-.39-1.69-.65-2.84-1.35-6.26-.63-9.06.81-2.03 1.04-4 2.47-6.28 2.51-2.9.05-5.52-2.19-8.41-1.93-1.16.1-2.23.61-3.3 1.06-2.23.93-4.74 1.66-7.02.88-1.2-.41-2.37-1.24-3.62-1.01-1.21.22-2.16 1.41-3.39 1.38-.8-.02-1.48-.54-2.14-.98-2.9-1.93-6.63-2.54-10-1.66"/><path d="M74.38 158.21c6.64 7.94 17.07 11.85 27.09 13.17 10.17 1.34 20.87.25 30.51-3.28 6.7-2.46 13.84-5.94 18.69-11.32 1.13-1.25.37-3.35-1.4-3.37-2.92-.03-5.83-.07-8.75-.1-1.34-.02-2.7-.11-4.03.01s-2.52.59-3.73 1.29c-.36.21-.53.34-.84.3-.48-.06-1.06-.52-1.52-.71-1.23-.48-2.59-.68-3.91-.63-2.6.1-5.02 1.02-7.29 2.25-.96.52-1.91 1.11-2.95 1.46-1.23.41-2.3.25-3.51-.15-2.44-.8-4.63-1.86-7.27-1.39-2.5.44-4.65 2.14-7.27 2.12-1.14 0-2.07-.53-3.11-.93-1.23-.48-2.53-.61-3.79-.14-.62.23-1.14.58-1.71.88-.47.25-.4.23-.85-.03-1.23-.71-2.34-1.44-3.69-1.94-2.76-1.02-5.8-1.09-8.65-.4-2.7.66-1.56 4.84 1.15 4.17 2.18-.53 4.5-.4 6.58.47 1.12.47 2.04 1.27 3.14 1.78 1.29.59 2.62.55 3.89-.04.67-.31 1.31-.97 2.07-.88 1.22.15 2.32 1 3.56 1.2 2.73.42 5.25-.49 7.74-1.51 1.02-.42 2-.79 3.11-.6 1.24.2 2.41.78 3.59 1.19 2.42.85 4.76.89 7.14-.12 2.26-.95 4.21-2.45 6.63-3.03 1.02-.24 2.1-.34 3.13-.12 1.23.25 2.24 1.07 3.5 1.19 1.51.14 2.57-.62 3.84-1.28 1.15-.6 2.56-.42 3.83-.41q4.98 0 9.96.03l-1.4-3.37c-4 4.48-9.73 7.46-15.24 9.65a61.3 61.3 0 0 1-14.46 3.79c-9.46 1.26-19.45.53-28.38-2.95-4.92-1.92-9.4-4.82-13.24-8.44-1.47-1.38-3.43.67-2.18 2.18Zm18.55-14.32c1.06-1.05 1.72-2.61 2.49-3.88s1.53-2.51 2.31-3.75c1.58-2.52 3.32-4.95 4.74-7.57.72-1.33-1.1-2.9-2.17-1.68-2.02 2.3-3.64 4.92-5.24 7.52-.8 1.29-1.57 2.59-2.32 3.91s-1.75 2.68-2.08 4.12c-.29 1.3 1.28 2.31 2.27 1.32Zm13.49-20.08q.06-.225.15-.45l-.13.31c.12-.27.27-.53.45-.76l-.21.27c.37-.47.83-.86 1.29-1.23l-.28.21c.44-.34.92-.63 1.33-1.01.48-.44.48-1.22.1-1.71-.17-.22-.4-.41-.68-.47l-.35-.05q-.36 0-.66.18c-.36.15-.68.38-1 .62-.4.29-.79.59-1.13.94-.65.68-1.2 1.52-1.37 2.46-.07.35-.05.68.13.99.16.27.46.52.77.59.67.15 1.41-.2 1.59-.9Zm-3.82 18.77c1.68-2.31 3.23-4.69 4.73-7.12.72-1.17 1.41-2.36 2.09-3.56.74-1.31 1.49-2.61 2.01-4.03.23-.64-.21-1.4-.81-1.64-.69-.28-1.31 0-1.74.57-.83 1.1-1.47 2.34-2.16 3.52-.72 1.23-1.44 2.45-2.17 3.68-1.42 2.41-2.9 4.79-4.36 7.18-.39.64-.14 1.53.5 1.9.7.41 1.46.11 1.9-.5Zm9.63-4.05.24-.41c.11-.17.16-.35.17-.54.04-.19.03-.38-.03-.58l-.15-.35c-.09-.17-.21-.3-.37-.41a.8.8 0 0 0-.32-.19 1.07 1.07 0 0 0-.56-.12l-.38.05c-.24.07-.46.19-.64.37l-.29.37c-.18.18-.31.4-.38.65l-.05.39c0 .27.07.51.2.75.09.17.22.31.38.41.14.13.31.22.5.26.2.06.39.07.59.03.2 0 .38-.07.55-.18.22-.13.4-.31.53-.53ZM25.63 33.16c-1.75.85-3.56 1.87-4.6 3.59s-1.01 3.93-.03 5.68c2.18 3.87 7.63 3.53 9.91 0 1.06-1.63-.96-3.24-2.49-2.49-2.23 1.11-3.22 3.88-2.59 6.22.74 2.77 3.46 4.42 6.17 4.71 2.65.28 5.46-.82 7.12-2.93 1.79-2.27 2-5.24.77-7.81l-2.41 2.41c1.62.91 3.55 1.19 5.2.18 1.44-.88 2.33-2.5 2.74-4.1.77-3.01.19-7.53-3.36-8.46-2.54-.67-4.96.97-6.8 2.52l3.1 1.8c.75-3.5-.13-7.91-3.58-9.7-2.87-1.49-7.13-.82-8.55 2.37-.91 2.05 1.95 3.86 3.08 1.8.72-1.33 2.58-1.62 3.84-.85 1.75 1.08 2.04 3.57 1.64 5.4s1.68 2.99 3.1 1.8c.65-.55 1.36-1.04 2.14-1.39-.26.11.44-.13.61-.17.35-.09-.29 0 .05-.01h.44c.14 0-.42-.03-.04 0 .08 0 .42.16.14.03-.32-.15.08.08.11.08s.11.07.13.09c-.06-.05-.28-.27-.13-.08.08.1.18.19.26.28.05.06-.18-.32-.03-.01.05.1.11.21.17.3.21.35-.06-.23.03.05q.12.36.21.72c.03.13.05.25.07.38-.07-.38 0-.09 0 .1.02.29.03.59.02.88 0 .14-.02.27-.03.41-.02.37-.01.12-.01.13-.05.27-.1.53-.17.8-.05.17-.34.92-.15.5-.11.25-.25.48-.39.72-.03.06-.27.37-.1.16s-.12.12-.17.17c-.06.06-.38.32-.16.16s-.13.07-.19.11c-.24.14.34-.08-.04.02-.13.03-.26.07-.39.09.4-.08.08-.02-.12-.03-.28-.02.29.1-.11-.02-.16-.05-.32-.09-.48-.14.34.12-.21-.11-.3-.16-1.6-.86-3.19.84-2.41 2.41 1.42 2.84-1.49 5.43-4.19 5.35-1.19-.03-2.63-.62-3.17-1.77-.43-.91-.11-1.97.78-2.42l-2.49-2.49c-.98 1.58-3.28 1.45-3.97-.3-.89-2.26 1.77-3.59 3.39-4.45 1.77-.94.21-3.54-1.56-2.67Zm35.24-16.61c-4.94 1.12-8.43 6.28-6.5 11.22 1.94 4.97 8.4 6.41 12.14 2.49 1.31-1.37.01-3.75-1.88-3.22-5.72 1.59-10.17 8.13-6.3 13.64 1.83 2.6 5.02 3.61 8.03 2.52 3.39-1.22 5.35-4.2 7.05-7.18l-3.62-1.53c-.44 3.03 1.32 5.75 4.23 6.75 2.97 1.02 6.51-.03 9.17-1.47 2.47-1.34 4.39-3.83 3.69-6.76-.65-2.74-3.27-4.48-5.62-5.68l-1.96 3.35c5.49 2.54 13.2-1.6 12.56-8.14-.38-3.91-4.14-5.68-7.65-5.97-3.52-.29-6.93.98-9.61 3.22l2.83 2.83c3.78-3.95 3.38-10.62-1.55-13.46s-11.01.22-11.49 5.79c-.18 2.06 3.06 2.43 3.56.48.7-2.72 3.56-4.26 6.06-2.72 2.56 1.57 2.55 5.04.59 7.09-1.81 1.89.88 4.45 2.83 2.83 1.62-1.35 3.72-2.08 5.82-2.09 1.63-.01 4.55.38 4.71 2.47.24 3.16-3.96 5.58-6.7 4.33-2.24-1.02-4.22 2.22-1.96 3.35 1.28.64 2.95 1.44 3.66 2.77.66 1.24-.39 2.2-1.41 2.8-1.45.85-3.3 1.51-4.99 1.48-1.07-.02-3.17-.71-2.95-2.18.32-2.09-2.41-3.62-3.62-1.53-1.07 1.84-2.18 3.92-4.09 5.01-1.48.84-3.23.84-4.27-.64-2.27-3.26 1.09-6.54 4.03-7.62-.63-1.07-1.25-2.15-1.88-3.22-1.89 2.34-5.33 1.32-6.26-1.36-1.06-3.08 1.28-5.85 4.18-6.6 1.96-.51 1.13-3.47-.83-3.03ZM43.65 55.86c2.01 0 2.01-3.12 0-3.12s-2.01 3.12 0 3.12m4.49-7.83-.26.03c-.2 0-.4.03-.57.13-.18.06-.34.16-.48.31-.14.13-.25.29-.31.48-.09.18-.14.37-.13.57l.05.39c.07.25.2.47.38.66l.3.23c.23.13.48.2.75.2l.26.03c.21 0 .4-.04.58-.13.19-.06.35-.17.49-.31.15-.14.25-.3.31-.49.09-.18.14-.38.13-.58l-.05-.4c-.07-.26-.2-.48-.39-.67l-.31-.24c-.24-.14-.49-.21-.76-.21Zm1.59 9.57c1.86 0 1.86-2.89 0-2.89s-1.86 2.89 0 2.89m-.79-35.9c1.94 0 1.94-3.02 0-3.02s-1.94 3.02 0 3.02m5.16-9.8c-.09.01-.17.02-.26.04-.11.02-.3.13-.44.19l-.11.05a1.323 1.323 0 0 0 0 2.28l.11.05c.14.06.33.17.44.19.09.01.17.03.26.04q.39.105.78 0c.25-.07.46-.2.65-.38l.23-.3c.13-.23.2-.48.2-.74 0-.2-.03-.39-.13-.57-.06-.18-.16-.34-.3-.47a1.48 1.48 0 0 0-1.43-.38M41 16.77c2.07 0 2.07-3.22 0-3.22s-2.07 3.22 0 3.22"/></svg>