<?xml version="1.0" encoding="UTF-8"?><svg xmlns="http://www.w3.org/2000/svg" viewBox="0 0 180 180"><path d="M45.32 159.7c16.09 2.07 31.68 6.14 47.08 11.15 3.81 1.24 7.42 1.52 11.3.39s7.83-2.68 11.72-4.03c7.92-2.76 15.83-5.52 23.75-8.29 9.01-3.14 18.03-6.3 27.04-9.43 1.15-.4 1.7-1.41 1.47-2.6-1.49-7.96-2.46-15.98-2.85-24.07-.4-8.14-.28-16.3-.11-24.45.02-.86-.68-1.93-1.58-2.08-5.86-.94-11.2-3.34-15.6-7.36-3.89-3.56-6.88-7.89-9.83-12.23-1.43-2.1-2.86-4.2-4.41-6.21-1.24-1.61-2.44-2.95-4.61-3.1s-4.33.34-6.4.55c-8.83.87-17.68 1.63-26.53 2.28-10.01.74-20.03 1.33-30.06 1.81-.96.05-1.88.65-2.12 1.62-2.61 10.13-9.55 18.85-18.75 23.81-1.06.57-2.15 1.11-3.27 1.56-1.3.53-2.75.86-3.96 1.58-3.17 1.89-2.14 5.68-1.89 8.73.58 7.07.81 14.18.69 21.28-.14 7.99-.78 15.97-1.65 23.91-.25 2.28 3.69 2.84 4.04.55 2.12-14.05 2.49-28.39 1.54-42.56-.11-1.63-.24-3.26-.38-4.88-.07-.78-.17-1.56-.22-2.34-.04-.66-.16-.77.38-1.06 1.12-.59 2.48-.91 3.65-1.4 1.23-.52 2.44-1.1 3.61-1.75 4.63-2.55 8.81-6.03 12.16-10.11 3.88-4.73 6.77-10.2 8.3-16.14l-2.12 1.62c17.65-.82 35.28-2.09 52.87-3.78q3.345-.315 6.69-.66c.93-.09 1.88-.27 2.81-.27.86 0 1.14.54 1.64 1.19 1.46 1.86 2.82 3.89 4.16 5.86 3.04 4.45 6.12 8.96 10.04 12.69 5.02 4.78 11.22 7.89 18.07 8.98l-1.58-2.08c-.17 8.29-.28 16.58.15 24.87.43 8.32 1.49 16.59 3.05 24.77.49-.87.98-1.73 1.47-2.6-15.75 5.53-31.5 11.03-47.25 16.55-3.92 1.37-7.84 2.74-11.75 4.12-1.86.65-3.72 1.35-5.67 1.69-1.83.33-3.62.09-5.39-.39-3.8-1.02-7.51-2.4-11.29-3.48s-7.69-2.1-11.57-3c-8.85-2.06-17.82-3.51-26.84-4.56-.91-.11-1.67.85-1.68 1.68-.01 1 .78 1.56 1.68 1.68Z"/><path d="M64.8 76.19c1.12 1.32 1.86 2.92 2.67 4.44s1.6 2.98 2.4 4.46c1.57 2.92 3.18 5.82 4.98 8.61 3.56 5.53 8.02 10.65 13.81 13.91 1.69.95 3.46 1.75 5.23 2.53s3.41 1.55 5.32 1.62c2.02.08 4.14-.47 6.11-.82s4.09-.71 6.13-1.06l25.02-4.32c9.4-1.62 18.81-3.25 28.21-4.87 1.08-.19 1.69-1.52 1.42-2.5-.31-1.14-1.41-1.61-2.5-1.42-16.19 2.79-32.38 5.59-48.57 8.38-4.09.71-8.18 1.39-12.26 2.12-1.76.31-3.38.73-5.13.16-1.84-.61-3.64-1.47-5.38-2.32-5.81-2.84-10.16-7.37-13.79-12.65-2.06-3-3.89-6.15-5.68-9.32-.89-1.58-1.77-3.17-2.69-4.74-1-1.7-1.93-3.31-3.54-4.51-1.41-1.05-2.75 1.11-1.76 2.28Z"/><path d="M96.49 109.25c-.32 10.08-.16 20.18.05 30.26.11 4.96.23 9.92.39 14.88.08 2.47.15 4.94.24 7.41.1 2.46.16 5.1.9 7.47.73 2.31 3.88 1.31 3.54-.98-.71-4.77-.8-9.58-1-14.4-.2-4.96-.38-9.92-.53-14.88-.31-9.92-.49-19.85-.95-29.77-.08-1.69-2.59-1.71-2.64 0Zm51.85 3.18c-6.95 1.62-13.92 3.19-20.88 4.8-3.43.79-6.98 1.37-10.35 2.37-1.5.44-2.46 1.47-2.52 3.08-.06 1.76.18 3.58.28 5.34.2 3.48.42 6.97.63 10.45l.33 5.47c.09 1.43 0 3.18 1.16 4.25 1.28 1.19 2.88.64 4.34.18q2.355-.75 4.71-1.47c2.58-.8 5.16-1.58 7.74-2.36 4.7-1.41 9.4-2.82 14.05-4.38.73-.25 1.53-1.01 1.43-1.87-1.02-8.52-.98-17.03-.6-25.59.11-2.5-3.68-2.46-3.86 0-.6 8.51-.44 17.12.58 25.59.48-.62.95-1.25 1.43-1.87-4.02 1.35-8.08 2.59-12.14 3.82-2.37.72-4.75 1.43-7.12 2.16l-4.17 1.29c-1.58.5-3.23 1.2-4.87 1.46h1.04c.46.08.35.67.31-.2-.02-.5-.06-1-.08-1.49-.06-1-.11-1.99-.17-2.99l-.36-6.22c-.12-2.07-.23-3.98-.34-5.97-.11-1.92-.51-4.03-.3-5.94l-.27 1c-.07.17-.53.13-.01.04.32-.05.65-.16.97-.24.65-.16 1.28-.33 1.92-.51 1.36-.38 2.73-.71 4.1-1.06 2.65-.68 5.3-1.36 7.96-2.04 5.3-1.36 10.6-2.75 15.91-4.1 1.93-.49 1.12-3.44-.82-2.98Z"/><path d="M133.43 106.31c-.22 3.49-.45 6.97-.67 10.46-3.54.79-7.08 1.57-10.62 2.36-2.14.48-4.49 1.09-5.72 2.91-1.15 1.71-.96 3.96-.72 6 .64 5.45 1.28 10.89 1.91 16.34.12 1.05.31 2.21 1.14 2.86 1 .78 2.43.45 3.64.09 7.07-2.11 14.14-4.22 21.21-6.34 1.7-.51 3.4-1.02 5.08-1.59.5-.17 1.04-.37 1.35-.8.34-.45.36-1.05.38-1.61l.24-9.99c.08-3.43.16-6.93-.79-10.23-.14-.5-.32-1.01-.68-1.38-.63-.65-1.63-.73-2.54-.75-3.71-.07-7.43.17-11.1.71.09-1.87.3-3.73.61-5.57.24-1.44.63-2.99 1.77-3.9.78-.62 1.81-.84 2.79-1.04 6.73-1.35 13.51-2.48 20.31-3.41-.73 14.03-.64 28.09.27 42.11.06.97.08 2.09-.64 2.75-.41.38-.98.52-1.53.65a266 266 0 0 0-35.96 11.29c-6.79 2.67-13.51 5.63-20.62 7.22.53-16.37-3.91-32.6-3.25-48.97.05-1.16.19-2.45 1.08-3.19.53-.43 1.22-.58 1.88-.72 10.67-2.22 21.34-4.43 32.01-6.65"/><path d="M131.83 106.31c-.31 3.49-.6 6.98-.94 10.46.46-.6.92-1.21 1.38-1.81-4.13.89-8.4 1.55-12.45 2.73-3.65 1.07-6.09 3.5-6.32 7.41-.11 1.96.29 3.97.52 5.91l.78 6.69c.26 2.23.51 4.46.78 6.69.22 1.74.58 3.57 2.15 4.61 1.66 1.1 3.64.75 5.44.22 2.12-.63 4.24-1.27 6.36-1.9 4.24-1.27 8.48-2.54 12.73-3.8 2.02-.6 4.05-1.19 6.05-1.85 1.78-.59 3.52-1.25 3.99-3.29s.21-4.33.26-6.38c.05-2.21.11-4.43.14-6.64.03-2.37-.05-4.73-.45-7.07-.36-2.11-.93-4.4-3.13-5.24-1.98-.76-4.51-.44-6.58-.36-2.52.1-5.02.37-7.52.73l2.53 1.93c.12-2.23.14-4.95 1.03-7.04.41-.96 1.16-1.2 2.11-1.41 1.38-.31 2.78-.55 4.17-.82 5.54-1.04 11.11-1.94 16.7-2.7-.85-.65-1.71-1.3-2.56-1.95-.37 7.1-.54 14.2-.49 21.31.05 7.01.44 13.99.76 20.99.01.31.03.63 0 .94-.03.36.19 0-.03.14-.55.32-1.44.36-2.05.51a271 271 0 0 0-14.74 4.03c-6.55 1.99-13.02 4.24-19.39 6.73-6.93 2.71-13.78 5.76-21.06 7.4.86.65 1.72 1.31 2.58 1.96.35-11.19-1.58-22.25-2.65-33.36-.27-2.79-.48-5.59-.59-8.4-.1-2.57-.33-5.36.03-7.92.16-1.09.63-1.07 1.67-1.29 1.45-.31 2.91-.61 4.36-.91 2.83-.59 5.66-1.18 8.49-1.76l18.92-3.93c2.56-.53 1.48-4.45-1.08-3.92-5.98 1.24-11.96 2.49-17.95 3.73-2.91.6-5.82 1.21-8.73 1.81-1.46.3-2.91.6-4.37.91s-2.83.53-3.88 1.56c-1.88 1.86-1.61 4.97-1.62 7.4-.02 2.88.11 5.77.31 8.65.42 5.85 1.19 11.67 1.85 17.5.75 6.62 1.34 13.26 1.15 19.93-.04 1.38 1.33 2.25 2.58 1.96 6.83-1.56 13.27-4.28 19.76-6.86a267 267 0 0 1 30.34-10.01c1.62-.43 3.24-.84 4.86-1.24 1.53-.37 3.2-.59 4.29-1.84s1.06-2.87.97-4.42c-.11-1.81-.22-3.63-.31-5.44-.19-3.8-.31-7.59-.38-11.39-.14-8.26.01-16.52.43-24.78.07-1.46-1.35-2.12-2.56-1.95-6.4.88-12.77 1.94-19.11 3.19-2.71.53-5.2 1.2-6.41 3.95s-1.27 5.89-1.42 8.73c-.08 1.44 1.33 2.1 2.53 1.93 3.53-.51 7.17-.77 10.74-.64.41.02.76-.02 1 .29.37.46.43 1.64.53 2.19.31 1.74.34 3.53.33 5.3-.02 3.69-.17 7.39-.26 11.08-.01.55.17 1.49-.07 1.98.16-.34.24-.1-.22 0-.3.06-.63.21-.92.31-1.85.61-3.72 1.15-5.58 1.71l-10.37 3.09c-3.36 1-6.75 2.28-10.18 3.02-.34.07-.88.25-1.18 0s-.27-1.08-.32-1.44c-.26-1.89-.44-3.8-.67-5.69-.42-3.59-.88-7.19-1.26-10.79-.14-1.34-.41-3.04.24-4.29s2.34-1.76 3.65-2.1c3.86-1 7.79-1.8 11.68-2.69.82-.19 1.35-1.01 1.38-1.81.11-3.49.27-6.97.41-10.46.09-2.09-3.04-2.03-3.22 0Z"/><path d="M130.28 115.8c-.48 4.56-.37 9.21-.25 13.79.06 2.3.15 4.6.28 6.89.12 2.19.09 4.61.68 6.73.42 1.49 2.42 1.06 2.56-.35.22-2.24-.2-4.64-.33-6.88s-.22-4.43-.28-6.65c-.12-4.51.05-9.03-.1-13.55-.06-1.68-2.39-1.61-2.56 0Z"/><path d="M118.91 134.87c6.97-1.41 13.94-2.88 20.8-4.76 1.74-.48 1.01-3.12-.74-2.7-6.91 1.68-13.77 3.52-20.69 5.17-1.5.36-.86 2.59.63 2.29m-73.56 22.7c3.62-9.52 1.8-20.13 2.84-30.26.19-1.83.59-3.86 2.1-4.92.95-.67 2.17-.81 3.33-.93 2.33-.24 4.89-.43 6.81.9 2.52 1.75 2.85 5.29 2.89 8.36.13 9.48-.15 18.99-1.47 28.38"/><path d="M46.54 158.26c2.31-4.86 2.84-10.28 2.99-15.59s-.28-10.7.5-15.93c.13-.9.34-1.99.99-2.67.73-.77 2-.82 2.99-.92 2.05-.21 4.72-.5 6.17 1.33 1.2 1.51 1.31 3.71 1.36 5.55.07 2.84.03 5.7-.02 8.54-.1 6.7-.49 13.41-1.41 20.05-.13.97.24 1.93 1.26 2.22.84.24 2.09-.3 2.22-1.26.92-6.64 1.38-13.33 1.51-20.03.06-3.17.08-6.35-.04-9.52-.09-2.33-.35-4.83-1.58-6.87-1.42-2.35-3.83-3.43-6.5-3.59-2.47-.15-5.8-.03-7.84 1.51s-2.52 4.23-2.76 6.67c-.29 3-.34 6.02-.36 9.03-.06 6.92-.16 13.7-2 20.42-.4 1.46 1.83 2.5 2.51 1.06Zm36.3-82.22c1.92 7.58 6.56 14.06 12.2 19.35 3.05 2.86 6.41 5.37 9.86 7.74 1.73 1.18 3.48 2.33 5.24 3.47 1.59 1.03 3.32 2.19 5.3 1.81 1.32-.25 1.54-2.28.38-2.88-.81-.42-1.68-.66-2.48-1.12-.74-.42-1.44-.9-2.15-1.36-1.63-1.06-3.26-2.13-4.86-3.23-3.13-2.16-6.18-4.46-9.01-7.01-5.29-4.76-9.78-10.61-11.92-17.46-.51-1.63-2.98-.96-2.56.71Zm17.11-4.15c-1.05 4.19 1.8 8.16 4.03 11.45 2.21 3.25 4.71 6.32 7.45 9.14 2.78 2.86 5.79 5.3 8.98 7.69s6.77 4.58 10.41 6.02c1.88.75 3.07-2.26 1.36-3.23s-3.33-1.67-4.94-2.62c-1.5-.89-2.88-1.92-4.34-2.85-2.99-1.89-5.75-4.33-8.3-6.77s-4.99-5.17-7.13-8.04a66 66 0 0 1-2.93-4.29c-1.07-1.71-2.38-3.66-1.94-5.77.36-1.72-2.22-2.46-2.65-.73m14.35.85c3.45 6.73 8.56 12.46 13.54 18.08 2.27 2.56 4.64 5.03 7.34 7.14 1.36 1.06 2.78 2.05 4.3 2.87s3.19 1.68 4.88 1.81 2.19-2.3.84-3.09-2.92-1.17-4.3-1.93-2.67-1.63-3.89-2.6c-2.57-2.05-4.85-4.45-7.05-6.88-4.77-5.27-9.64-10.64-13.14-16.87-.92-1.65-3.38-.19-2.52 1.47m-37.95 49.61c5.81 1.08 6.6 1.07 10.35 1.38 0 7.11.7 15.65.69 22.77-3.46-.85-6.92-1.7-10.38-2.54-.37-.09-.78-.21-.98-.63-.13-.26-.15-.58-.17-.89-.41-6.52-.18-13.12.66-19.57"/><path d="M75.94 123.82c3.58.72 7.12 1.24 10.75 1.6L85 123.73c-.03 3.81 0 7.57.15 11.38s.45 7.59.49 11.38l2.21-1.68c-2.56-.62-5.11-1.26-7.67-1.89l-1.8-.45c-.13-.03-.8-.29-.9-.22-.18.12.13.26.15.24.14-.13-.08-1.47-.09-1.71-.03-.7-.05-1.4-.07-2.1-.13-5.32.3-10.55.78-15.83.18-1.93-3.09-2.39-3.41-.46-.98 5.96-1.13 12.14-.85 18.16.06 1.23-.06 2.7.61 3.78.72 1.16 2.08 1.34 3.3 1.64 3.01.73 6.02 1.45 9.03 2.2 1.1.27 2.2-.53 2.21-1.68.02-3.8-.03-7.58-.21-11.38-.18-3.79-.5-7.6-.54-11.38-.01-.95-.77-1.63-1.69-1.69-3.35-.21-6.63-.6-9.94-1.16-1.9-.32-2.75 2.55-.81 2.94Zm-44.1-16.62c-6.81-2.19-12.41-7.81-14.48-14.68-1.13-3.76-1.24-7.81-.36-11.64.44-1.92 1.12-3.77 2.06-5.5s2.2-3.49 3.15-5.33c2.08-4.02 2.78-8.94-.39-12.61-.32 1.2-.64 2.41-.95 3.61 1.5-.28 2.82.7 3.88 1.62 1.39 1.19 2.57 2.47 3.74 3.87 2.24 2.68 4.99 5.34 8.73 5.19 1.58-.06 2.4-1.64 1.73-3.01-3.53-7.17-4.54-15.16-2.05-22.85 2.2-6.79 7.01-12.58 13.16-16.15L47 28.47c1.39 5 2.94 10.21 6.65 14.03 3.33 3.43 8.21 5.3 12.91 3.84 4.48-1.39 7.96-5.12 9.43-9.52 1.71-5.15.71-10.78-1.39-15.65-2.23-5.15-5.88-9.48-10.32-12.87l-1.08 3.98c13.17-.64 28.99.95 36.89 13.08 1.72 2.64 2.7 5.47 3.22 8.56.58 3.48 1.05 6.95 3.3 9.82 3.79 4.84 11 6.43 16.67 4.34 3.4-1.26 6.45-3.71 7.52-7.29.97-3.25.13-7.23-2.61-9.38l-2.68 3.47c6.25 3.11 13.64 6.68 16.29 13.66.6 1.58.88 3.2.8 4.88-.09 2.1-.59 4.19-.45 6.3.23 3.41 2.28 7.13 5.95 7.65 4.23.61 6.94-3.35 8.17-6.85l-4 .52c4.28 6.46 3.46 15.58-.65 21.94-.97 1.5 1.39 3.39 2.52 1.94 2.91-3.73 4.58-7.96 4.86-12.7.27-4.64-.91-9.25-2.95-13.39-.71-1.44-3.07-1.42-3.78 0-.64 1.27-1.33 3.44-2.8 4.01-1.2.47-2.11-.82-2.5-1.79-.79-1.98-.14-4.42.05-6.46.2-2.13.04-4.27-.58-6.32-2.67-8.79-11.01-13.41-18.7-17.22-.99-.49-2.17-.35-2.85.57-.59.79-.71 2.22.17 2.9 1.82 1.42 2.2 3.89 1.15 5.92-1.21 2.34-3.91 3.61-6.41 4.01-2.35.38-4.91-.02-7-1.16-2.42-1.31-3.79-3.35-4.45-5.99-.78-3.14-.91-6.37-2.09-9.42-1.07-2.77-2.58-5.26-4.47-7.54-3.8-4.58-9.02-7.84-14.59-9.82-7.66-2.72-15.95-3-23.98-2.53-2.23.13-2.75 2.72-1.08 3.98 6.27 4.68 11.44 13.08 10.41 21.16-.47 3.69-2.59 7.02-5.96 8.7-3.17 1.59-6.72.67-9.28-1.64-3.67-3.31-5-8.25-6.28-12.84-.36-1.3-1.89-1.92-3.06-1.25-7.09 4.13-12.52 10.84-15.05 18.65-2.7 8.37-1.9 18.33 2.59 25.97l1.73-3.01c-3.63.36-5.79-3.32-7.61-5.87-2.33-3.27-5.71-5.76-9.9-4.98-1.72.32-1.92 2.49-.95 3.61 2.53 2.92-.2 7.32-1.79 9.95-2.21 3.65-3.88 7.36-4.45 11.63-1.07 8 1.73 16.23 7.54 21.84 3.07 2.97 6.84 5.15 10.92 6.37 1.99.6 2.82-2.47.86-3.1Z"/><path d="M36.26 87.91c1.99 0 1.99-3.09 0-3.09s-1.99 3.09 0 3.09m6.72-10.54.02.41c0 .2.03.38.12.55.06.18.16.33.3.46.13.14.28.24.46.3.17.09.35.13.55.12l.38-.05c.24-.07.45-.19.63-.37l.22-.29c.13-.22.19-.46.2-.72l.02-.41c0-.2-.03-.39-.13-.56-.06-.18-.16-.34-.3-.47-.13-.14-.29-.24-.47-.3-.17-.09-.36-.13-.56-.13l-.39.05c-.25.07-.46.19-.64.37l-.23.29c-.13.23-.2.47-.2.73Zm3.75 8.18-.03-.41c0-.2-.03-.38-.12-.56-.06-.18-.16-.33-.3-.47-.13-.14-.29-.24-.47-.3a1.07 1.07 0 0 0-.56-.12l-.38.05c-.24.07-.46.19-.64.37l-.23.29c-.13.23-.2.47-.2.73l-.03.41c0 .2.03.39.13.57.06.18.16.34.31.48.13.14.29.25.48.31.18.09.37.13.57.13l.39-.05c.25-.07.47-.2.65-.38l.23-.3c.13-.23.2-.48.2-.75m6.7-4.22c1.94 0 1.94-3.02 0-3.02s-1.94 3.02 0 3.02m37.19-26.16c1.93 0 1.93-3 0-3s-1.93 3 0 3m5.77-7.95c.14.07.28.13.42.2.15.07.3.14.46.19l.11.03.23.07c.2.06.39.07.59.03.2 0 .38-.07.55-.18l.3-.23c.14-.13.25-.29.31-.48.07-.12.1-.24.1-.37.04-.2.04-.39-.03-.59l-.15-.35c-.13-.22-.31-.4-.53-.53l-.18-.14c-.06-.05-.12-.1-.19-.14l-.4-.22c-.18-.12-.38-.18-.59-.19q-.315-.075-.63.03c-.21.05-.38.14-.54.28-.17.11-.31.26-.41.44l-.16.38a1.5 1.5 0 0 0 0 .84l.16.38q.21.36.57.57Zm2.82 11.21c1.92 0 1.92-2.98 0-2.98s-1.92 2.98 0 2.98m11.44-.36c1.99 0 1.99-3.09 0-3.09s-1.99 3.09 0 3.09M56.62 68.36c.31-3.63-1.2-7.36-4.05-9.67l-.72 2.74c6.74-2.05 14.09.29 18.64 5.6 1.2 1.41 3.38-.11 2.97-1.73-.61-2.38 1.08-4.66 3.32-5.35 1.59-.49 1.39-3.24-.41-3.04-4.46.5-7.34 5.03-6.34 9.33.99-.58 1.98-1.15 2.97-1.73-5.18-6.31-14.32-8.77-22.03-6.26-1.43.46-1.52 2.17-.39 3 2.26 1.65 3.42 4.33 3.29 7.09-.09 1.78 2.6 1.74 2.75 0Zm61.11-3.96c.93-1.32 1.79-2.69 2.53-4.12q.51-.99.96-2.01c.34-.77.58-1.67 1.09-2.34l-2.37.31c2.09 1.67 3.52 3.85 4.14 6.46.29 1.19 1.75 1.42 2.58.68 2.16-1.93 4.46-3.69 6.86-5.31l-2.34-1.35c.36 2.69.5 5.52 1.08 8.18.62 2.82 4.19 1.54 6.07.94 1.39-.44 1.24-2.87-.36-2.69-.93.11-1.84.31-2.75.49-.26.05-.53.11-.79.16.66.7.92.79.78.28.11-.32-.13-1.08-.18-1.43-.24-1.98-.49-3.95-.73-5.93-.13-1.07-1.25-2.07-2.34-1.35-2.64 1.75-5.13 3.7-7.47 5.82l2.58.68c-.77-3.06-2.51-5.82-4.99-7.77-1-.78-2.54-.34-2.57 1.07-.02.69-.46 1.48-.73 2.1a34 34 0 0 1-3.26 5.84c-.95 1.38 1.28 2.64 2.23 1.3Z"/></svg>