<?xml version="1.0" encoding="UTF-8"?><svg xmlns="http://www.w3.org/2000/svg" viewBox="0 0 180 180"><path d="M63.99 101.98c-4.97-4.75-10.17-9.74-12.17-16.52-2.09-7.1-1.06-14.7-2.78-21.89-1.63-6.82-5.04-13.13-9.49-18.51a48.2 48.2 0 0 0-7.71-7.46c-2.46-1.91-5.43-3.59-7.07-6.33-.38-.64-.47-1.06-.34-1.77.19-1.06.76-2.05 1.39-2.9 1.14-1.53 2.95-3.18 4.91-3.48.5-.08 1.02.07 1.37.27.92.52 1.79 1.08 2.64 1.7 2.11 1.53 4.1 3.22 6.09 4.89 4.37 3.68 8.6 7.17 14.03 9.21 6.41 2.4 13.33 2.67 20.1 2.9 7.65.26 15.58.67 22.02 5.3 3.25 2.33 5.9 5.44 8.54 8.4 3.08 3.45 6.18 6.89 9.28 10.32l.9-3.42c-4.01 1.06-8.01 2.11-12.02 3.17-1.16.31-1.58 1.43-1.42 2.51.3 2.04.6 4.07.91 6.11.06.38.4 1.7.26 1.91.21-.3-.47-.09-.62-.06-.56.08-1.13.14-1.69.2-4.1.49-8.21.99-12.31 1.47-1.19.14-2.33 1.15-1.89 2.49 1.13 3.45 2.26 6.91 3.39 10.36l1.9-2.5c-4.93.23-9.6-1.85-14.54-1.61-1.39.07-2.14 1.21-1.92 2.52.67 3.96 2.27 7.68 3.54 11.47l1.92-2.51c-3.54-.04-7.43 1.27-10.88.15-.98-.32-2.19.37-2.42 1.37-.55 2.4-.77 4.84-.59 7.29.18 2.48 4.06 2.51 3.89 0-.14-2.12 0-4.18.49-6.25l-2.42 1.37c3.87 1.27 7.98-.02 11.93.03 1.24.02 2.32-1.29 1.92-2.51-1.26-3.79-2.86-7.51-3.54-11.47l-1.92 2.52c4.93-.24 9.61 1.83 14.54 1.59 1.22-.06 2.33-1.22 1.9-2.5-1.14-3.45-2.28-6.9-3.41-10.35l-1.89 2.49c2.57-.3 5.15-.6 7.72-.89 2.58-.29 5.29-.39 7.83-.92 2.51-.53 3.26-2.73 2.94-5.03-.35-2.6-.74-5.2-1.12-7.79-.47.84-.95 1.67-1.42 2.51 4.01-1.05 8.01-2.11 12.02-3.16 1.55-.41 1.9-2.3.9-3.42-2.87-3.19-5.73-6.4-8.62-9.58-2.54-2.8-5.05-5.67-7.99-8.07-5.95-4.86-13.08-6.58-20.61-7.09-7.03-.48-14.15-.13-21.03-1.89-3.31-.85-6.44-2.18-9.3-4.07-2.12-1.4-4.02-3.11-5.96-4.74-2.19-1.85-4.38-3.69-6.66-5.41-1.56-1.18-3.37-2.66-5.36-3.02-4.92-.9-9.97 4.2-11.3 8.53-2.02 6.59 5.96 10.43 10.04 13.9 5.55 4.72 10.13 10.75 12.8 17.57 1.35 3.44 2.23 7.05 2.6 10.72.39 3.87.46 7.77 1.01 11.63.53 3.73 1.65 7.29 3.64 10.51s4.34 5.75 6.93 8.23c1.31 1.25 2.66 2.46 4.01 3.66 1.42 1.26 3.49-.77 2.1-2.1Z"/><path d="M54.17 56.75c.51-.9 1.07-1.78 1.68-2.61.07-.1.15-.2.22-.3.1-.13-.09.11.08-.1s.34-.42.52-.63c.34-.39.68-.78 1.04-1.15.7-.73 1.45-1.41 2.24-2.05l.29-.23c-.24.19.29-.23.35-.27.03-.02.33-.26.19-.15s.17-.12.19-.14c.5-.37 1-.73 1.46-1.16s.56-1.23.23-1.75-1.03-.9-1.63-.66c-2.13.84-3.97 2.56-5.51 4.22s-2.86 3.49-3.93 5.47c-.37.69-.2 1.66.54 2.05s1.64.19 2.05-.54Zm7.6 6.67 2.37-2.46 1.15-1.19c.2-.21.4-.43.6-.65.26-.3.45-.61.64-.96.28-.52.24-1.25-.22-1.67s-1.13-.54-1.67-.22c-.31.19-.63.38-.9.63-.21.2-.42.41-.62.63l-1.17 1.25-2.33 2.49c-.54.58-.62 1.58 0 2.14s1.56.61 2.14 0ZM22.93 33.15c-1.17 1.16-3.12.15-4.42-.87-1.15-.91-2.3-1.82-3.45-2.72-1.48-1.17-3.02-2.41-3.74-4.16-.85-2.05-.38-4.46.74-6.38s2.1-3.49 3.82-4.9c1.74-1.42 3.4-2.71 5.49-3.51 1.52-.58 3.27-.84 4.75-.16 2.11.97 3.87 3.47 5.61 5.02.61.55 1.34.98 1.87 1.6s.86 1.54.49 2.27c-.5 1-1.85 1.08-2.95 1.21-5.35.62-9.71 5.92-9.29 11.29"/><path d="M22.3 32.08c-.81.55-1.74-.42-2.35-.92-.96-.79-1.92-1.59-2.89-2.37-1.55-1.23-3.63-2.57-4.21-4.58-.61-2.15.58-4.18 1.71-5.91 1.21-1.86 2.85-3.28 4.68-4.52 1.6-1.09 4.07-2.57 6.06-1.74 1.8.75 3.1 2.68 4.43 4.03.73.73 1.63 1.28 2.34 2.03.11.12.2.26.31.37.25.27-.08.19.11 0-.14.14-.59.15-.78.19-2.05.35-3.88.69-5.66 1.84-3.86 2.48-6.57 7.14-5.88 11.8.3 2 3.37 1.42 3.42-.46.06-2.27.57-4.33 2.02-6.14s3.34-2.97 5.53-3.32c1.17-.19 2.33-.2 3.36-.87 1.22-.79 1.79-2.24 1.49-3.66s-1.26-2.32-2.32-3.15c-1.04-.81-1.91-1.77-2.81-2.72-1.88-1.96-4.01-3.83-6.9-3.73-2.9.09-5.52 1.64-7.75 3.36-3.99 3.06-8.63 8.69-6.71 14.11 1.08 3.04 3.9 4.88 6.34 6.78 2.12 1.65 5.53 4.02 7.98 1.54.96-.97-.3-2.76-1.51-1.95Zm47.67 75.54c2.69.13 5.37.35 8.04.68 0-2.21-.07-4.42-.23-6.63-2.43.09-4.86.12-7.29.08-.06.73-.12 1.47-.17 2.2"/><path d="M69.97 109.14c1.32.09 2.63.21 3.95.35.63.07 1.26.13 1.89.2.31.04.63.07.94.11.18.02.37.05.55.07l.24.03q-.27-.03.03 0c.55.08 1 .05 1.45-.3.42-.32.65-.78.66-1.31.04-2.21 0-4.42-.14-6.63-.05-.94-.76-1.78-1.76-1.76-2.43.03-4.86.05-7.29-.01-1.06-.02-1.77.87-1.85 1.85-.03.37-.06.73-.1 1.1-.01.16-.03.31-.04.47-.03.22 0 .44.06.65-.03-.23-.03-.24 0-.02.1.88.59 1.61 1.53 1.73.86.12 1.7-.41 1.94-1.26s.26-1.77.32-2.67l-1.85 1.85c2.43.03 4.86 0 7.29-.16l-1.76-1.76q.285 3.315.33 6.63l1.67-1.67c-2.67-.29-5.35-.46-8.04-.53-.79-.02-1.55.71-1.52 1.52.04.87.67 1.46 1.52 1.52ZM81.2 95.11l5.96.78c.08.01.17.02.25-.02.19-.09.14-.38.08-.59-.31-.98-.29-2.06.06-3.03.1-.29.21-.67-.04-.84-.09-.07-.21-.08-.33-.09-2.33-.26-4.63-.8-6.83-1.62 0 1.17-.01 2.34-.02 3.51"/><path d="M80.8 96.56c1.41.22 2.82.44 4.23.65.33.05.66.1.99.14.42.06.88.18 1.31.17a1.92 1.92 0 0 0 1.59-.93c.3-.49.3-1.12.17-1.66-.03-.13-.07-.26-.1-.39-.02-.08-.03-.17-.05-.25-.04-.2.02.12.02.12-.03 0-.02-.47-.02-.51v-.19c0-.06 0-.13.01-.19l-.03.19c0-.28.13-.61.23-.87.13-.37.24-.72.24-1.13 0-.57-.24-1.11-.65-1.52-.26-.26-.63-.44-.98-.53-.1-.03-.25-.04-.35-.05-.12-.02-.24-.03-.37-.05l.2.03c-.66-.05-1.34-.21-1.99-.35-1.5-.32-2.98-.72-4.42-1.25-1.11-.41-2.25.64-2.25 1.72 0 .66 0 1.31-.01 1.97 0 .91-.08 2 .66 2.65.67.59 1.55.58 2.22 0 .74-.64.67-1.75.68-2.65 0-.66 0-1.31.01-1.97l-2.25 1.72c1.95.71 3.94 1.21 5.99 1.48.3.04.6.08.9.11.11.01.22.03.34.04.58.07.2-.25-1.14-.97a.67.67 0 0 1-.02-.42c0-.28 0-.04-.03.05-.03.11-.07.22-.1.34-.08.28-.11.57-.15.85-.08.59-.08 1.14 0 1.72.04.29.08.57.16.85.03.11.06.22.1.33l.02.08c-.08-.3-.04-.59.11-.88l.58-.58c.61-.08.8-.14.55-.15-.06 0-.12-.01-.18-.02-.12-.01-.24-.03-.35-.04l-.78-.09c-.52-.06-1.04-.12-1.56-.17l-3.12-.34c-.74-.08-1.39.64-1.48 1.31s.34 1.54 1.08 1.65Zm11.11-9.72c2.47-.22 4.96-.28 7.44-.19.41-2.13.88-4.25 1.4-6.36-3.07-.3-6.16-.33-9.23-.07-.12.01-.26.03-.34.13s-.07.24-.05.36c.25 1.86.58 3.7 1.01 5.53"/><path d="M91.91 88.3c2.47-.07 4.98-.22 7.44-.02.73.06 1.37-.55 1.57-1.2.66-2.06 1-4.23 1.56-6.32.22-.84-.28-2.07-1.25-2.2-3.02-.41-6.1-.48-9.14-.23-.41.03-.91.03-1.3.17-.64.22-1.08.63-1.34 1.25-.36.84-.04 1.88.11 2.75.25 1.54.46 3.17 1.13 4.6.3.64 1.25.99 1.91.78.7-.23 1.25-.86 1.24-1.63-.01-1.08-.31-2.18-.5-3.24-.09-.49-.17-.99-.24-1.48-.04-.25-.07-.49-.11-.74.04.33-.01-.25 0-.32l-.25.93.05-.11-.66.66c-.65.11-.79.15-.4.11h.19c.22-.03.44-.04.66-.06.38-.02.75-.05 1.13-.06.79-.03 1.57-.05 2.36-.05 1.57 0 3.14.1 4.71.19l-1.73-2.27c-.51 2.25-1.14 4.53-1.31 6.84l1.63-1.63c-2.63.02-5.22.03-7.83.41-.72.1-1.13.96-1.05 1.6.09.7.7 1.29 1.43 1.27Zm14.29-15.18c2.5-.03 5-.26 7.47-.69.1-.02.22-.04.28-.13.05-.07.06-.17.06-.26v-5.19c0-.08 0-.16-.05-.22-.08-.09-.22-.08-.34-.06-2.12.37-4.24.74-6.37 1.11-.17.03-.34.06-.47.18-.14.13-.18.32-.21.51-.17.95-.2 1.93-.1 2.89"/><path d="M106.2 74.68c1.86.02 3.72-.06 5.57-.27.53-.06 1.06-.13 1.59-.2.62-.08 1.13-.14 1.64-.54 1.02-.79.81-2.24.83-3.39.01-.94.02-1.88.02-2.82 0-.7 0-1.37-.45-1.95-.62-.81-1.51-.85-2.43-.69-1.82.31-3.63.65-5.45.97-.53.1-1.11.14-1.58.44-.65.41-1.03 1.05-1.16 1.8-.2 1.22-.32 2.49.01 3.69.23.84 1.06 1.36 1.9 1.24s1.45-.83 1.5-1.7c.02-.41.01-.82.02-1.23 0-.19.01-.39.03-.58 0-.12.02-.24.03-.36.03-.26-.04-.03 0 .05-.05-.13.1-.37.1-.51l-.59.75-.25.11s.25-.05.28-.05c.43-.08.86-.15 1.29-.22.83-.14 1.67-.29 2.5-.43.43-.07.86-.15 1.29-.22.23-.04.46-.08.68-.12.1-.02.2-.03.3-.05.12-.02.1-.02-.05 0-.28.05-.55 0-.81-.16l-.85-1.1v-.27c-.01.08-.02.15-.02.23v1c0 .48 0 .97.01 1.45 0 .46 0 .92.01 1.37v1c.07.52.09.64.05.36a.8.8 0 0 1 .02-.41l.45-.77-.07.07.77-.45c-.54.22-1.21.25-1.78.34l-.98.15c.3-.04-.06 0-.16.02-.15.02-.3.04-.46.05-1.27.15-2.55.25-3.82.3-.82.03-1.6.7-1.56 1.56s.69 1.55 1.56 1.56Zm-9.83 87.54c-3.29-13.82-4.96-28.03-6.91-42.09l-2.54 2.54c1.11.2 2.23.39 3.34.59 1.3.23 2.84.7 4.15.42 3.06-.67 3.21-3.99 4.17-6.4.47-1.19 1.04-2.41 1.75-3.49.61-.94 1.28-.92 2.28-.43 1.16.57 1.99 1.62 3.13 2.2 1.22.63 2.72.58 3.9-.11 1.05-.61 1.55-1.58 2.11-2.59l4.11-7.44c.26-.46.51-.93.77-1.39l.15-.27.17-.3c.29-.75.14.01-.1-.08 1.48.53 2.92 1.47 4.28 2.26 1.45.84 2.86 1.74 4.25 2.69 1 .68 2.25.11 2.87-.75 1.4-1.94 2.79-3.88 4.19-5.81.67-.94 1.35-1.87 2.02-2.81.34-.47.67-.94 1.01-1.4l.58-.8c.4-.45.4-.52-.02-.22l-1.06-.29c.76.35 1.33 1.11 1.92 1.68.65.63 1.3 1.25 1.94 1.88 1.35 1.31 2.71 2.62 4.06 3.93.84.81 2.12.78 2.96 0 2.05-1.88 4.13-3.74 6.22-5.58l1.44-1.26c.24-.21.52-.39.72-.63l.18-.16c.23-.1.24-.17.03-.19-.01-.09-.3-.1-.32-.06-.02.05.17.3.19.37.13.63.41 1.27.61 1.89 1.68 5.24 3.32 10.5 4.8 15.8 2.92 10.5 5.21 21.26 5.38 32.2.03 2.16.41 4.98-.62 6.97-.76 1.47-2.16 2.55-3.54 3.41-3.41 2.11-7.38 3.48-11.15 4.82-10.06 3.57-20.62 5.47-31.25 6.14-4.48.28-9.27.72-13.74 0-3.53-.57-6.41-2.01-7.09-5.76-.2-1.12-1.56-1.75-2.59-1.47-1.19.33-1.65 1.46-1.47 2.59 1.51 9.46 12.57 9.41 19.98 9.18 11.87-.38 23.77-2.07 35.07-5.79 4.54-1.5 9.32-3.15 13.5-5.49 1.85-1.04 3.63-2.33 4.96-4 1.7-2.16 2.12-4.56 2.18-7.25.29-12.26-2.14-24.44-5.43-36.19-.9-3.23-1.87-6.44-2.87-9.64-.52-1.67-1.06-3.35-1.59-5.02-.47-1.47-.83-3.03-1.51-4.42-.58-1.19-1.5-2.12-2.84-2.39-1.81-.36-3.14.89-4.4 1.98-2.65 2.29-5.26 4.62-7.84 6.99h2.96l-5.65-5.47c-1.68-1.62-3.74-4.13-6.25-2.41-1.02.7-1.69 1.95-2.4 2.94l-2.31 3.21c-1.54 2.14-3.08 4.28-4.62 6.41l2.87-.75c-2.51-1.72-5.13-3.3-7.87-4.64-1.23-.6-2.53-1.2-3.92-.78-1.18.35-1.95 1.32-2.54 2.34-1.16 2.04-2.27 4.11-3.4 6.16l-1.87 3.38c-.11.2-.22.41-.34.61-.08.14 0 .04.09.05.18.02-.4-.31-.45-.35-.37-.28-.73-.58-1.1-.86-2.12-1.61-5.12-2.63-7.53-.99-2.26 1.54-3.44 4.9-4.3 7.37-.25.7-.52 1.43-.66 2.16-.1.55-.22.44.09.48-.58-.08-1.15-.2-1.73-.3-1.31-.23-2.62-.45-3.93-.68-1.66-.29-2.77.92-2.54 2.54 2.01 14.08 4.05 28.1 7.75 41.86.55 2.03 3.64 1.18 3.15-.87Z"/><path d="M99.02 167c-1.25-.63-2.61-1.39-3.04-2.72-.56-1.76.8-3.52 2.17-4.76 6.87-6.2 16.17-8.88 25.23-10.76 12.39-2.57 25.3-4.01 37.67-1.31 1.49.32 3.16.87 3.76 2.26.34.79.25 1.71 0 2.53-1.08 3.46-4.67 5.41-8.01 6.84-16.58 7.08-34.9 10.02-52.87 8.49-1.36-.12-2.77-.28-3.91-1.03-1.25-.83-2.01-2.36-1.9-3.86"/><path d="M99.72 165.79c-.6-.46-1.62-1.08-1.96-1.77-.44-.9.41-1.86.99-2.47 1.5-1.59 3.38-2.87 5.25-3.99 3.78-2.27 7.91-3.77 12.14-4.96 9.49-2.68 19.54-4.34 29.41-4.45 5.09-.05 10.28.29 15.24 1.5.53.13 1.61.3 1.93.84s-.14 1.42-.4 1.9c-.88 1.64-2.54 2.69-4.13 3.54-4.18 2.22-8.86 3.73-13.38 5.09a110.5 110.5 0 0 1-14.51 3.33c-5.53.89-11.14 1.31-16.74 1.33-2.75 0-5.5-.09-8.24-.29-1.96-.14-4.96-.08-4.96-2.73 0-2.87-4.29-2.84-4.44 0-.15 2.95 1.69 5.49 4.42 6.5 2.57.95 5.7.85 8.41.96 5.88.24 11.77 0 17.61-.69 5.82-.69 11.58-1.79 17.22-3.35 5.5-1.53 11.09-3.37 16.21-5.91 2.25-1.11 4.35-2.57 5.84-4.61s2.38-5.22.81-7.53c-1.48-2.17-4.24-2.66-6.65-3.09a68.5 68.5 0 0 0-9.03-1.01c-6.13-.29-12.25.24-18.31 1.12-5.65.82-11.3 1.92-16.8 3.46-5.56 1.56-11.09 3.77-15.77 7.21-2.25 1.65-5.07 3.69-5.69 6.6-.68 3.17 1.72 5.21 4.46 6.05 1.63.5 2.26-1.66 1.08-2.56Zm-.99-119.14c-3.31 2.17-6.84 3.88-10.01 6.26s-6.09 4.87-8.69 7.77c-2.29 2.56-6.27 6.96-3.22 10.29 1.69 1.85 3.72 3.48 5.56 5.18 1.93 1.79 3.88 3.57 5.82 5.36 1.78 1.64 4.45-1.01 2.66-2.66-3.51-3.24-7.04-6.47-10.56-9.71-.23-.21-.74-.53-.85-.81-.12-.3-.02-.42.15-.77.31-.66.71-1.28 1.12-1.88.94-1.36 2.05-2.6 3.19-3.79 2.3-2.38 4.79-4.62 7.41-6.64 2.85-2.19 5.98-3.96 8.96-5.97 1.62-1.09.11-3.73-1.55-2.64Zm26.81 60.66c1.35 7.14 3.07 14.21 4.9 21.25.25.96 1.3 1.53 2.25 1.28 10.02-2.74 20.27-4.52 30.65-5.19 2.48-.16 2.49-4.05 0-3.88-10.7.74-21.31 2.55-31.62 5.54l2.25 1.28c-1.95-7-3.68-14.05-5.47-21.09-.49-1.93-3.31-1.1-2.95.81Z"/><path d="M84.31 58.57c.53 2.69 1.06 5.43.61 8.18-.18 1.11-.49 2.22-.98 3.23-.26.52-.55 1.03-.88 1.51-.38.54-.89.98-1.23 1.55-.72 1.22.71 2.59 1.91 1.91s2.09-2.17 2.7-3.37c.64-1.27 1.1-2.64 1.34-4.05.54-3.21.19-6.61-.88-9.68-.57-1.64-2.93-.99-2.59.71ZM92 52.39c1.55 4.51 2.36 9.24 2.3 14.02-.03 2.32-.2 4.68-.8 6.93q-.435 1.665-1.2 3.21c-.765 1.545-1.2 1.88-1.56 2.92-.48 1.4 1.31 2.09 2.26 1.31 1.66-1.35 2.63-4.26 3.21-6.26.71-2.47.94-5.1 1-7.66.11-5.18-.76-10.35-2.53-15.21-.61-1.66-3.27-.97-2.68.74m10.09.47c.25.28.26 1.13.32 1.47.1.58.18 1.17.27 1.75q.285 1.845.42 3.72c.18 2.55.16 5.11-.06 7.66-.07.8.73 1.48 1.48 1.48.86 0 1.42-.68 1.48-1.48.23-2.89.2-5.8-.1-8.69-.15-1.44-.33-2.9-.64-4.32-.29-1.33-.54-2.66-1.74-3.47s-2.33.91-1.45 1.88Zm28.56 67.51c1.81.15 3.82.69 5.45 1.46.9.43 1.77.93 2.59 1.5.4.28.63.45.99.75.46.38.88.9 1.41 1.18 1.34.68 2.78-.7 2.05-2.05-.28-.53-.81-.94-1.27-1.32s-.96-.77-1.47-1.12c-.92-.64-1.9-1.19-2.93-1.63-2.18-.94-4.45-1.49-6.82-1.62-.77-.04-1.43.69-1.43 1.43 0 .83.66 1.37 1.43 1.43Zm-3.12-14.6c5.23 1.57 10.45 3.45 15.02 6.49 1.98 1.32 3.8 2.86 5.4 4.63.79.88 1.51 1.8 2.15 2.79.68 1.05 1.16 2.23 1.94 3.2 1.05 1.32 2.87-.15 2.6-1.51-.25-1.25-1.11-2.46-1.82-3.51s-1.56-2.14-2.45-3.12c-1.73-1.91-3.74-3.58-5.89-5.01-4.9-3.29-10.53-5.24-16.18-6.77-1.81-.49-2.56 2.26-.77 2.8Zm20.05-3.21c2.44 1.23 4.89 2.55 6.98 4.32s3.74 3.88 5.17 6.18c1.03 1.65 3.67.12 2.62-1.53-1.59-2.48-3.44-4.84-5.72-6.72-2.33-1.92-5-3.28-7.73-4.52-.64-.29-1.41-.18-1.8.47-.34.58-.16 1.48.47 1.8ZM120.24 40.8c-.09-2.39-.14-4.78-.33-7.16-.06-.81-.67-1.59-1.55-1.55-.83.04-1.56.68-1.55 1.55.03 2.39.2 4.77.33 7.16.04.81.68 1.59 1.55 1.55.82-.04 1.59-.68 1.55-1.55m19.3 8.26c1.3-2.68 3-5.16 4.8-7.53.43-.57.14-1.46-.37-1.85-.56-.43-1.38-.4-1.89.11-2.21 2.22-3.9 4.87-5.25 7.69-.35.74-.23 1.73.56 2.15.7.37 1.77.23 2.15-.56Zm13.09 15.72c.8-.22 1.56-.56 2.32-.87s1.54-.61 2.31-.93c1.6-.66 3.29-1.23 4.8-2.06 1.6-.87.52-3.5-1.25-2.96-1.65.51-3.24 1.33-4.82 2.01-.76.33-1.52.67-2.27 1.01s-1.53.65-2.24 1.06c-1.45.85-.49 3.19 1.15 2.73Zm12.06 17.05c1.62-.23 3.26-.41 4.85-.78.78-.18 1.25-1 1.15-1.76s-.77-1.43-1.57-1.39c-1.78.1-3.55.43-5.32.69-.39.06-.82.45-1 .77-.21.36-.3.89-.17 1.29s.38.8.77 1l.4.17c.3.08.6.08.89 0ZM44.8 105.57c-4.15 7.57-8.23 16.58-4.93 25.26 2.77 7.28 10 12.71 17.96 10.21 3.85-1.21 7.75-3.87 9.89-7.35 2.15-3.51 1.79-8.08-1.79-10.5-1.52-1.03-3.47-1.33-5.17-.6-2.01.85-3.36 2.85-4.45 4.66-2.17 3.62-3.14 7.97-1.53 11.99 3.72 9.33 14.97 11.37 23.89 10.41 1.71-.18 1.78-2.63 0-2.72-6.67-.32-14.03-.14-18.79-5.68-2.03-2.37-2.8-5.36-2-8.39.39-1.47 1.05-2.82 1.86-4.1.64-1 1.71-2.94 3.12-2.84 1.11.08 2.02 1.27 2.32 2.24.43 1.4-.29 2.93-1.1 4.05-1.78 2.46-4.77 4.39-7.67 5.2-5.8 1.63-10.87-2.57-12.92-7.78-2.9-7.39.49-15.93 3.94-22.54.9-1.73-1.68-3.26-2.63-1.54Zm35.89-6.61q4.68.6 9.36 1.11c.14.02.3.03.41-.07.09-.08.12-.21.14-.33.44-2.73.69-5.5.73-8.26-2.3-.26-4.62-.39-6.94-.37-.3 0-.62.01-.87.18-.31.21-.42.6-.51.96-.37 1.52-.66 3.07-.86 4.62"/><path d="M80.3 100.38c1.73.44 3.51.66 5.28.89l2.6.33c.82.1 1.82.39 2.63.17 1.18-.32 1.47-1.39 1.64-2.44.15-.91.27-1.82.39-2.74.21-1.72.34-3.45.4-5.18.03-.75-.6-1.7-1.39-1.83-1.43-.22-2.84-.4-4.29-.49-.7-.04-1.4-.07-2.11-.08s-1.45-.07-2.12.11c-1.67.44-2.14 1.92-2.47 3.41-.31 1.4-.59 2.83-.72 4.26-.09 1 .83 1.86 1.75 1.98s2.03-.46 2.21-1.44c.2-1.07.34-2.15.56-3.22.11-.51.21-1.03.35-1.53.02-.06.1-.22.08-.27.03.11-.16.36-.24.43l-.52.31-.24.02c.1-.05.3-.01.41-.01 2.28-.02 4.57.09 6.84.24l-1.9-1.9c0 1.42-.06 2.83-.16 4.25-.05.69-.12 1.38-.19 2.06l-.12 1.03c-.02.12-.02.14 0 .04l-.03.21-.03.21c-.04.19-.03.16.04-.09l.63-.63-.12.06.89-.24c-.75.09-1.62-.12-2.37-.2-.8-.08-1.6-.16-2.39-.25-1.62-.17-3.25-.36-4.89-.37s-2.01 2.47-.39 2.89Z"/></svg>