<?xml version="1.0" encoding="UTF-8"?><svg xmlns="http://www.w3.org/2000/svg" viewBox="0 0 180 180"><path d="M47.55 106.37c-2.05-9.23-5.14-18.45-4.95-28.01.16-7.96 2.98-16.3 10.09-20.63 3.07-1.87 6.71-2.72 10.27-2.02s7.07 2.72 9.78 5.35c6.2 6.01 8.44 14.73 10.25 22.89 1.18 5.32 2.4 10.65 3.45 16 1.04 5.29 1.45 10.68 2.21 16.01.69-.9 1.37-1.8 2.06-2.71-7.4-.21-14.81-.42-22.21-.64l-11.23-.33c-3.26-.1-7.28-.91-9.83 1.63-1.04 1.03-1.87 2.31-2.73 3.48a79 79 0 0 0-2.98 4.34c-1.73 2.71-3.3 5.53-4.71 8.42-2.66 5.47-5.06 11.32-6.05 17.35-.92 5.6-.74 11.69 2.4 16.62 2.91 4.56 7.73 7.2 13.03 7.87 11.87 1.49 21.49-6.5 27.82-15.7 8.4-12.22 13.55-26.49 18.44-40.38.86-2.44-3.02-3.49-3.87-1.07-4.14 11.76-8.5 23.48-14.79 34.28-4.99 8.58-12.1 17.88-22.83 18.63-4.18.29-8.76-.61-11.92-3.53-3.63-3.35-4.55-8.3-4.23-13.05.37-5.38 2.28-10.67 4.42-15.57a87.3 87.3 0 0 1 8.87-15.62c.71-1 1.7-2.96 2.9-3.39.61-.22 1.44-.07 2.08-.06 1 .02 2 .05 2.99.08 3.83.1 7.65.2 11.48.29 7.65.2 15.31.39 22.96.6 1.53.04 2.25-1.39 2.06-2.71-.73-5.1-1.14-10.25-2.08-15.31-.96-5.16-2.19-10.29-3.31-15.41-1.96-9-4.38-18.5-10.95-25.35-6-6.25-14.96-9.51-23.25-5.97-8.36 3.57-13.16 12.04-14.3 20.76-1.5 11.59 2.71 22.65 5.45 33.72.52 2.09 3.69 1.21 3.22-.89Z"/><path d="M59.55 52.71c19.77.05 36.44 1.18 56.18 2.22.46 8.43.39 16.88-.2 25.3l5.59.09c.49 0 1.02 0 1.43-.28.55-.39.67-1.14.74-1.81.82-8.14 1.09-16.33.8-24.5 3.58.25 7.15.54 10.73.89 8.74.84 16.34 6.93 18.27 15.57 1.23 5.49.45 11.08.28 16.63-.25 8.07-.25 16.18-1.39 24.19-.12.82-.13 1.86-.54 2.6-1.65 3.02-.87-.23-4.14.87s5.62 1.34 2.18 1.53c-10.89.58-45.5-.01-56.39-.64.24-13.48-2.02-23.82-4.91-36.99-.86-3.92-3.29-9.19-5.31-12.66-3.07-5.26-13.6-11.79-19.66-12.37"/><path d="M59.55 54.12c18.73.88 37.46 1.76 56.18 2.77l-1.95-1.95c.44 8.43.39 16.88-.18 25.3-.07 1.05.94 1.91 1.93 1.93l4.66.07c1.35.02 2.79.08 3.83-.94.97-.95 1.1-2.26 1.22-3.54.16-1.63.29-3.26.41-4.89.45-6.38.41-12.74.2-19.12l-1.76 1.76c6.75.47 13.9.31 19.72 4.22 2.3 1.55 4.24 3.63 5.62 6.03 1.64 2.87 2.24 6.14 2.37 9.41.17 3.97-.25 7.94-.38 11.91-.13 4.12-.19 8.24-.38 12.36-.19 4.01-.57 7.97-1.06 11.95-.08.67-.18 1.22-.55 1.81-.08.12-.16.24-.17.23-.22-.29 2.39.37 1.66-.37-.63-.64-1.86-.8-2.7-.74-1.25.09-2.88.55-3.42 1.81s.18 2.39 1.32 2.9c.65.29 1.35.4 2.05.51.32.05.65.09.97.14.36.06.82.3.15-.07l-.71-.71v-1.97c.24-.22.47-.46.71-.69.38-.17 1.09-.22.37-.19-.28.01-.56.03-.83.04-.68.03-1.37.05-2.05.07-1.61.05-3.22.05-4.83.06-4.07.02-8.14-.03-12.22-.08-8.72-.11-17.44-.22-26.16-.48-3.49-.11-6.98-.23-10.47-.39l2.11 2.11c.06-11.74-2.07-23.25-4.54-34.69-1.14-5.25-2.9-10.13-5.48-14.86-2.04-3.73-5.2-6.5-8.68-8.88-3.92-2.68-8.52-5.09-13.3-5.61-1.08-.12-2.02 1.01-2.02 2.02 0 1.19.93 1.9 2.02 2.02 3.53.38 7.22 2.39 10.25 4.32 3.12 1.98 6.22 4.38 8.06 7.64 2.45 4.34 4.18 8.83 5.25 13.69 1.17 5.32 2.31 10.66 3.12 16.05.92 6.07 1.23 12.17 1.07 18.31-.03 1.2 1 2.04 2.11 2.11 7.42.5 14.88.56 22.32.69 8.84.15 17.69.22 26.53.05q2.715-.06 5.43-.15c1.56-.05 3.58.21 4.62-1.17.41-.54.33-1.44 0-1.98-.76-1.25-2.5-1.09-3.76-1.36-.21-.04-.54-.21-.74-.2.84-.05.06 2.47.27 3.05-.04-.12.32.05 0-.01-.16-.03.2-.08.4-.12s.35-.04.54-.06c-.19.02.11.13-.14-.03.21.14.42.29.64.41 1.2.64 2.43.17 3.21-.85 1.06-1.38 1.31-2.85 1.52-4.53.51-4.17.88-8.32 1.06-12.52.17-4.12.21-8.23.36-12.35s.6-8.25.24-12.38c-.58-6.62-3.48-12.54-8.82-16.59-6.52-4.95-14.85-4.85-22.66-5.41-.93-.07-1.79.86-1.76 1.76.18 5.39 0 10.8-.3 16.18-.14 2.61-.33 5.23-.6 7.83-.02.22-.04.44-.08.66-.06.3 0 .07.15 0-.45.21-1.49-.02-2-.03l-3.96-.07 1.93 1.93c.6-8.42.68-16.87.23-25.3-.06-1.09-.85-1.89-1.95-1.95-18.7-.96-37.45-2.45-56.18-1.68-1.81.07-1.81 2.73 0 2.81Z"/><path d="M118.54 49.13c.2-4.81-.13-9.65-.38-14.46-.12-2.33-.25-4.65-.37-6.98-.06-1.16-.12-2.33-.19-3.49l-.11-1.99c-.02-.4-.18-1.14-.07-1.49l-.51.88.19-.16-.88.51c.76-.26 1.99-.21 2.9-.28 1.14-.08 2.28-.16 3.42-.22q3.3-.18 6.6-.27c3.3-.09 4.41-.08 6.61-.07s4.3 0 6.39.56l-1.49-1.96c.11 3.97.11 7.94.13 11.91l2.09-2.09q-8.64.705-17.28 1.26c-1.03.07-2.24.91-2.1 2.1.05.38-.06 1.08.12.29l.54-.93-.02.02 2.04-.54h-.02c.31.17.62.35.93.53.56.56.14.08-.03-.21s-.37-.62-.62-.87c-1.08-1.07-2.87-.85-3.61.49-.77 1.38-.53 3.49-.49 5 .05 2.11.2 4.22.19 6.33-.02 4.24-.28 8.48-.28 12.72 0 4.31.17 8.67.46 12.96.16 2.34 3.3 2.25 3.58 0 .37-3.07.1-6.21 0-9.29-.1-3.11 0-6.19.18-9.3.18-3.01.31-6.02.24-9.04-.04-1.46-.14-2.93-.18-4.39q-.03-1.155 0-2.31c.01-.25.12-.68.06-.91q-.03.21 0 .03.135-.495-.39.6l-.93.54-.45.06-1.06-.29c-.24-.13-.59-.76-.4-.33.06.15.16.32.24.47.35.58.77 1.05 1.45 1.25s1.53 0 2.04-.54c.65-.68.69-1.48.58-2.35l-2.1 2.1c5.76-.37 11.52-.8 17.28-1.27 1.12-.09 2.1-.88 2.09-2.09-.02-3.97-.14-7.94-.25-11.91-.03-.89-.61-1.73-1.49-1.96-2.44-.65-4.96-.68-7.48-.69-2.45 0-4.9.03-7.34.1-2.61.08-5.22.22-7.82.41-1.3.09-2.61.19-3.9.32-1.06.11-2.04.2-2.74 1.12s-.48 2.13-.4 3.23l.27 3.99c.17 2.58.34 5.15.52 7.73.35 5.2.63 10.43 1.46 15.58.26 1.61 2.69 1.13 2.75-.37Zm-81.22 54.13c-9.33-6.93-19.9-14.28-22.46-26.41-.65.85-1.29 1.7-1.94 2.54l12.03 1.38c1.51.17 2.58-1.87 1.76-3.07-5.89-8.57-8.59-19.29-7.13-29.62l-3.05 1.24c1.71 1.18 3.5 2.23 5.38 3.12 1.79.85 3.71 1.7 5.73 1.69 4.32-.04 6.15-4.01 6.88-7.68 1.6-7.95-.95-16.02-5.1-22.79-2.38-3.88-5.25-7.43-8.19-10.9-.51 1.24-1.03 2.47-1.54 3.71 13.23-1.25 26.6 2.42 37.41 10.13 3.08 2.19 5.88 4.75 8.42 7.55 1.23 1.35 3.93.35 3.76-1.56-.37-4.24-1.85-8.34-1.99-12.59-.1-2.87.52-6.34 3.05-8.1-1.01-.27-2.03-.53-3.04-.8 2.99 5.84 9.7 7.25 15.09 9.96 2.86 1.44 5.08 3.31 6.57 6.18 1.67 3.22 2.3 6.94 2.92 10.48.34 1.93 3.21 2.13 4.09.53 2.49-4.5 6.33-7.95 11.01-10.04-1.1-.63-2.21-1.27-3.31-1.9.26 5.98 1.65 11.63 3.8 17.2 1.86 4.83 4.22 10.16 2.32 15.33-.41 1.11.45 2.39 1.52 2.68 1.22.33 2.27-.41 2.68-1.52 2.02-5.49.15-11.21-1.84-16.41-2.16-5.64-3.88-11.19-4.08-17.27-.06-1.8-1.79-2.56-3.31-1.9-5.37 2.33-9.83 6.46-12.66 11.58 1.36.18 2.73.36 4.09.53-.66-3.72-1.43-7.43-3.05-10.87-1.54-3.26-3.98-5.88-7.09-7.69-2.73-1.59-5.74-2.58-8.6-3.9-2.57-1.19-4.99-2.61-6.32-5.21-.52-1.01-2.1-1.46-3.04-.8-3.48 2.43-5.01 6.36-5.22 10.5-.24 4.77 1.6 9.32 2.01 14.03 1.25-.52 2.51-1.04 3.76-1.56-9.57-10.55-22.97-17.17-37.08-18.83-3.94-.47-7.92-.48-11.87-.08-1.91.19-2.82 2.22-1.54 3.71 5.47 6.36 10.8 13.29 12.31 21.76.36 2.02.44 4.11.24 6.15-.17 1.73-.49 3.93-1.53 5.38-1.08 1.5-3.16.61-4.53 0-2.11-.92-4.11-2.1-6.01-3.4-1.01-.7-2.87-.05-3.05 1.24-1.63 11.46.98 23.25 7.62 32.79l1.76-3.07-12.03-1.32c-1.38-.15-2.19 1.4-1.94 2.54 2.8 12.95 14.13 21.43 24.82 27.93 1.69 1.03 3.03-1.47 1.51-2.59Z"/><path d="M41.63 39.74c1.93 0 1.93-3 0-3s-1.93 3 0 3m5.88-4.94c2.02 0 2.02-3.14 0-3.14s-2.02 3.14 0 3.14m1.75 8.69c1.99 0 1.99-3.09 0-3.09s-1.99 3.09 0 3.09m-19.18 26.7c1.86 0 1.86-2.89 0-2.89s-1.86 2.89 0 2.89m5.02-3.47c1.6 0 1.6-2.48 0-2.48s-1.6 2.48 0 2.48m-.44 7.56c1.8 0 1.8-2.8 0-2.8s-1.8 2.8 0 2.8m-.87 7.47c1.88 0 1.88-2.92 0-2.92s-1.88 2.92 0 2.92m49.23-38.92-.03-.09v-.05c-.05-.14-.11-.27-.18-.41-.13-.23-.32-.41-.54-.54a1.48 1.48 0 0 0-1.52 0c-.23.13-.41.32-.54.54-.07.14-.12.26-.17.41v.05s-.03.06-.04.09c-.07.28-.07.56 0 .83s.21.5.4.69l.32.25c.24.14.51.21.79.21.22 0 .42-.04.61-.14.19-.06.36-.17.51-.32.19-.2.33-.43.4-.69.07-.28.07-.56 0-.83Zm7.2 3.57c2.09 0 2.09-3.25 0-3.25s-2.09 3.25 0 3.25M106.9 170c.42-15.82.28-31.63.33-47.46 0-1.84.01-3.68.04-5.52.01-.8.02-1.61.04-2.41 0-.42.03-.85.04-1.27 0-.12.04-.27.03-.39.02-.17 0-.09-.03.24.15-.63-.26-.25-1.25 1.15l-1.47-.19c-.34-.2-.62-.89-.8-1 .02.01 0 .11.03.12s.1.66.04.18c-.05-.41.02.08 0 .15-.18.68.38-.88.26-.67l2.16-.88c.38.29.76.58 1.14.88.37.59.14.31.06-.1-.1-.5-.17-1-.24-1.5-.62.81-1.24 1.62-1.86 2.44 1.31.15 2.61.31 3.92.46.65.08 1.31.15 1.96.22.36.04 1.01-.01 1.3.19l-.7-.7c-.05-.32-.06-.23-.01.25.01.29.03.57.04.86.03.58.05 1.15.08 1.73l.15 3.5a2250 2250 0 0 1 .68 21.38c.14 4.74.31 9.48.57 14.22.25 4.67.32 9.38.99 14.01.21 1.48 2.46 1.03 2.52-.34.19-4.32-.08-8.67-.12-12.99-.04-4.5-.06-9.01-.15-13.51-.17-8.83-.33-17.66-.73-26.48-.09-2.09.27-5.08-2.32-5.74-1.19-.3-2.54-.31-3.76-.44-1.47-.16-2.94-.31-4.41-.46-1.37-.14-2.03 1.34-1.86 2.44.2 1.23.25 3 1.75 3.39.8.21 1.75-.13 2.16-.88.43-.79.29-1.93.02-2.76-.38-1.19-1.72-1.9-2.87-1.22-.82.48-.98 1.35-1.05 2.22-.31 3.9-.06 7.91-.05 11.82.02 10.35.06 20.69.19 31.04.06 4.69.19 9.37.2 14.06 0 1.92 2.93 1.92 2.98 0Zm37.5-125.4c.63-.8 1.23-1.61 1.78-2.46s1.15-1.73 1.44-2.7c.21-.72-.2-1.49-.87-1.77-.3-.13-.66-.18-.98-.08-.39.13-.66.36-.9.69-.26.37-.44.77-.65 1.17s-.42.79-.64 1.17c-.44.77-.92 1.52-1.44 2.24-.2.28-.25.79-.14 1.1s.26.55.51.74.55.32.87.31c.35-.02.78-.13 1.01-.42Zm17.54 15.49q1.185-.54 2.34-1.14l1.14-.58c.55-.28 1.15-.59 1.44-1.18.23-.46.27-.96 0-1.42-.13-.21-.29-.38-.5-.5-.22-.13-.46-.19-.71-.19-.63-.08-1.26.3-1.8.6l-1.12.62c-.76.42-1.5.85-2.24 1.3-.64.4-.95 1.31-.52 1.98.2.31.5.58.86.66.4.09.74.02 1.11-.15m.77 30.45c1.45.01 2.91.07 4.36 0 .79-.04 1.55-.67 1.52-1.52s-.67-1.47-1.52-1.52c-1.45-.08-2.91-.02-4.36 0-.8 0-1.56.7-1.52 1.52s.67 1.52 1.52 1.52m-2.68 32.44q1.47.75 2.97 1.44c1.09.49 2.19 1 3.32 1.4.76.27 1.61-.24 1.9-.93s.08-1.69-.66-2.01c-.34-.15-.68-.28-1.02-.42-.14-.06-.28-.12-.42-.17-.33-.14.27.12-.03-.01-.5-.22-1.01-.44-1.51-.67-.98-.45-1.95-.93-2.91-1.43-.76-.4-1.81-.22-2.23.59-.4.75-.22 1.82.59 2.23Zm-17.7 13.23c.12.91.36 1.76.7 2.6.21.52.43 1.03.69 1.52.1.2.23.38.36.56.17.23.32.44.54.61.14.1.27.19.41.28.5.3 1.15.24 1.61-.11.2-.16.34-.34.45-.58.14-.32.12-.59.07-.94 0-.05-.01-.11-.02-.16l.05.4c-.03-.21-.04-.43-.1-.64s-.18-.41-.27-.61q-.15-.315-.33-.63-.33-.6-.6-1.23l.16.39c-.31-.74-.59-1.51-.81-2.27s-1.08-1.31-1.86-1.06c-.37.12-.72.35-.91.7l-.15.36q-.105.405 0 .81Zm-18.19 6.42v.55c0 .23.04.45.08.68v.04c.05.21.15.39.29.55.08.11.09.13.16.19l.08.06c.13.14.29.24.47.3.17.09.36.13.56.13l.39-.05c.25-.07.46-.19.64-.37l.08-.06.03-.03c.19-.16.38-.51.42-.75.04-.22.08-.45.08-.68v-.55c0-.23-.04-.44-.14-.64-.07-.2-.18-.38-.34-.53-.15-.16-.33-.27-.53-.34-.2-.1-.41-.15-.64-.14l-.44.06c-.28.08-.52.22-.73.42l-.26.33c-.15.26-.22.53-.23.83Zm-80.4-1.79c4.64 5.1 9.52 10.09 14.82 14.51.62.52 1.52.61 2.13 0 .56-.56.6-1.58 0-2.13-5.08-4.71-10.1-9.44-14.78-14.55-1.34-1.47-3.51.71-2.18 2.18Zm6.65-11.36c4.85 5.61 10.33 10.93 16.57 14.96 1.41.91 3.18-1.29 1.83-2.37-5.74-4.6-11.36-9.22-16.38-14.62-1.27-1.36-3.21.64-2.02 2.02Zm14.4-2.21c.78 1.01 1.59 1.99 2.46 2.92q.585.63 1.2 1.23c.5.49 1.06.9 1.63 1.3.28.2.79.25 1.11.14s.55-.26.75-.52c.45-.58.38-1.35-.11-1.89-.39-.42-.77-.84-1.18-1.24s-.82-.8-1.22-1.21q-1.185-1.245-2.25-2.58c-.22-.27-.74-.46-1.07-.44s-.65.11-.92.33c-.25.19-.47.47-.54.79-.08.37-.09.85.15 1.17Zm-18.06 29.75c2.24 0 2.25-3.48 0-3.48s-2.25 3.48 0 3.48"/></svg>