<?xml version="1.0" encoding="UTF-8"?><svg xmlns="http://www.w3.org/2000/svg" viewBox="0 0 180 180"><path d="M75.71 127.81c-1.65-1.08-3.11-2.79-4.48-4.26-1.75-1.89-3.47-3.91-5.46-5.55-1.77-1.46-3.68-2.82-6.05-2.92-1.98-.08-3.93.55-5.8 1.12-1.71.52-3.42 1.06-5.12 1.64-3.25 1.1-6.46 2.35-9.55 3.85-2.61 1.27-5.82 2.53-7.04 5.37-1.93 4.51.43 10.48 3.43 13.98 1.07 1.25 2.42 2.28 3.64 3.38l4.62 4.17c3.08 2.78 6.16 5.56 9.23 8.34 2.95 2.66 5.83 5.44 8.89 7.97 2.59 2.14 5.52 4.14 8.91 4.68 3.84.61 7.47-.58 10.92-2.19s6.72-3.31 9.89-5.26c3.01-1.85 6.22-4.02 8.04-7.14 1.91-3.27 1.39-6.82-1.15-9.57-3.08-3.34-7.19-5.74-10.83-8.4-3.94-2.87-7.94-5.69-11.8-8.66-.54-.42-1.33-.84-1.78-1.22-1.24-1.06-3.05.73-1.8 1.8s2.33 2.17 3.59 3.17c1.76 1.41 3.48 2.87 5.26 4.26 3.55 2.77 6.98 5.69 10.51 8.48 1.45 1.14 3.07 2.3 4.23 3.74 2.07 2.56-.06 5.23-2.1 7.02-2.53 2.21-5.58 3.86-8.54 5.42-2.98 1.57-6.02 3.34-9.29 4.22-3.12.84-5.97.28-8.68-1.42s-4.98-4-7.33-6.12c-5.6-5.07-11.19-10.14-16.78-15.21-1.99-1.8-4.34-3.5-5.67-5.75-1.03-1.74-1.84-3.79-1.94-5.82-.04-.81.03-1.65.29-2.23.43-.95 1.3-1.28 2.29-1.83 2.69-1.5 5.48-2.79 8.35-3.88 3.44-1.3 6.99-2.53 10.54-3.47.86-.23 1.66-.36 2.54-.36.26 0 .68.11.89.2.84.37 1.61.93 2.32 1.5 2.12 1.69 4.08 3.54 6.05 5.4 1.61 1.53 3.18 3.22 5.08 4.4 1.81 1.12 3.41-1.68 1.66-2.83Z"/><path d="M50.28 129.11c.51-.31 1.04-.6 1.58-.85.14-.06.27-.13.41-.18-.22.09-.03.02.08-.03.28-.11.56-.21.84-.31.53-.19 1.06-.37 1.6-.51.65-.17 1.36-.24 1.92-.63.45-.31.72-.77.64-1.34-.07-.52-.44-.98-.96-1.12-.76-.21-1.54 0-2.28.2-.59.17-1.17.38-1.74.61-1.2.5-2.32 1.19-3.36 1.97-.53.4-.85 1.11-.45 1.73.37.57 1.13.82 1.73.45Zm40.02-19.93c-2.9-2.2-6.72-5.61-9.62-7.81-1.31-.99-2.74-2.23-2.74-3.88 0-.99.55-1.88 1.07-2.71 1.69-2.69 4.1-5.75 7.25-5.33 1.53.2 2.8 1.22 3.99 2.19l9.8 8.03c2.78-3.02 5.57-6.04 8.35-9.06 1.58-1.71 3.61-3.59 5.9-3.12 1.19.25 2.15 1.1 3.05 1.92l3.54 3.24c.83.76 1.73 1.63 1.83 2.76.12 1.37-.95 2.52-1.96 3.45-3.43 3.17-7.02 6.17-10.75 8.99 3.89 2.78 7.56 5.87 10.95 9.23.53.52 1.08 1.14 1.05 1.88-.03.63-.49 1.14-.92 1.59-2.03 2.09-4.2 4.03-6.51 5.8-.54.42-1.17.85-1.85.77-.54-.06-.99-.42-1.4-.78-3.36-2.87-6.56-5.93-9.59-9.15-3.06 3.6-6.3 7.64-10.02 10.53-.84.66-1.75 1.31-2.81 1.46-1.42.19-2.96-1.33-4.19-2.07-1.66-.99-4.04-2.4-4.69-4.22-1.01-2.82 1.98-5.27 4.11-7.37 2.75-2.71 3.68-3.38 6.16-6.36"/><path d="M91.42 108.06c-2.76-2.16-5.35-4.53-8.04-6.78-1.1-.91-2.7-1.82-3.38-3.11s.93-3 1.64-3.97c.8-1.09 1.82-2.29 3.13-2.77 1.59-.58 3.01.58 4.17 1.52 3.28 2.66 6.53 5.36 9.8 8.03.76.62 1.9.8 2.64 0 2.78-3.02 5.55-6.05 8.36-9.05.92-.98 2.15-2.44 3.59-2.62 1.52-.19 2.95 1.67 3.94 2.57.71.65 1.42 1.29 2.12 1.94.43.39 1.39 1.07 1.45 1.72.12 1.14-2.08 2.58-2.8 3.22-2.89 2.6-5.9 5.06-9 7.4-1.22.92-1.26 2.44 0 3.35a86 86 0 0 1 7.51 6.09c1.17 1.06 2.41 2.13 3.45 3.32-.13-.15.27-.37-.17.08-.26.26-.51.53-.77.79-.6.59-1.2 1.18-1.82 1.75-1.18 1.08-2.39 2.16-3.68 3.12-.71.53-.51.53-1.18-.03s-1.31-1.14-1.95-1.72a125 125 0 0 1-7.27-7.13c-.7-.74-2.13-.8-2.82 0-2.69 3.13-5.31 6.36-8.39 9.11-.81.73-2.47 2.57-3.67 2.13-.8-.29-1.52-1.02-2.23-1.49s-1.41-.85-2.1-1.31c-.96-.65-2.35-1.6-2.01-2.92.36-1.43 1.84-2.61 2.85-3.59 2.39-2.32 4.81-4.58 6.95-7.14 1.64-1.96-1.17-4.8-2.83-2.83-1.99 2.37-4.22 4.46-6.43 6.6-2.29 2.22-5.19 4.86-4.54 8.41.63 3.41 4.14 4.91 6.67 6.71 1.52 1.08 3.11 2.06 5.05 1.63 1.81-.4 3.32-1.72 4.68-2.9 3.31-2.84 6.03-6.27 8.82-9.6h-2.82c3.03 3.2 6.21 6.32 9.61 9.14 1.82 1.5 3.68 1.77 5.65.31 1.67-1.24 3.26-2.6 4.77-4.02 1.33-1.25 3.19-2.67 3.56-4.55.43-2.19-1.46-3.75-2.88-5.09-3.14-2.98-6.52-5.7-10.04-8.22v3.35c3.84-2.93 7.61-6 11.12-9.32 1.55-1.47 2.98-3.4 2.38-5.66-.56-2.14-2.65-3.59-4.21-5-1.62-1.47-3.27-3.34-5.48-3.86s-4.2.47-5.85 1.8c-1.81 1.47-3.31 3.35-4.88 5.06-1.78 1.93-3.56 3.87-5.34 5.8h2.64c-3.14-2.57-6.28-5.15-9.43-7.72-2.73-2.24-5.7-4.07-9.23-2.35-2.71 1.32-5.13 4.51-6.22 7.27-1.44 3.62 1.44 5.94 4.02 7.89 3.05 2.3 5.94 4.81 8.99 7.1 1.42 1.06 3.32-1.37 1.91-2.48Z"/><path d="M125.23 75.59c-13.16-4.07-27.44-3.96-40.52.35-6.46 2.13-12.63 5.18-18.16 9.15a68 68 0 0 0-4.25 3.31c-1.18 1-2.39 2.18-3.9 2.67-3.1 1-5.82-2.69-7.47-4.76-1.97-2.47-3.47-5.57-1.77-8.56 1.5-2.64 3.78-4.9 6.08-6.85 5.03-4.28 11.05-7.56 17.12-10.12 6.08-2.56 12.58-4.19 19.08-5.19 6.85-1.05 13.95-1.27 20.82-.31 7.04.98 13.91 3.22 20.02 6.89 2.22 1.33 5.06 2.48 5.33 5.39.18 1.94-.61 3.86-1.46 5.55-.76 1.51-1.55 3.2-2.64 4.51-.78.94-2.25 2.06-3.54 1.43-1.98-.98-3.46 1.65-1.71 2.93 3.52 2.58 7.46-.31 9.38-3.36 2.2-3.5 4.47-7.72 3.86-11.98-.52-3.62-3.11-5.44-6.03-7.2-3.37-2.03-6.84-3.8-10.54-5.14-14.67-5.33-31.13-4.27-45.93-.05-6.87 1.96-13.51 4.98-19.57 8.76-3.05 1.9-6 4.04-8.61 6.51-2.43 2.3-5.03 5.15-6.07 8.39-1.25 3.94.68 7.87 3.08 10.91 2.27 2.89 5.14 6.16 9.06 6.43s6.87-2.97 9.72-5.25c2.86-2.28 5.98-4.27 9.21-6 12.97-6.93 28.8-9.54 43.26-6.68 1.79.35 3.56.79 5.31 1.3 1.94.56 2.75-2.42.83-3.01Z"/><path d="M127.19 41.21c-17.88-5.5-37.32-5.16-55.04.81-8.9 3-17.37 7.32-24.91 12.93-1.86 1.39-3.65 2.85-5.42 4.35-1.62 1.38-3.51 3.01-5.73 3.23s-4.18-1.1-5.74-2.52c-1.72-1.58-3.31-3.41-4.68-5.3-2.57-3.54-4-7.65-1.65-11.65 2.14-3.64 5.29-6.75 8.5-9.45 6.85-5.75 14.97-10.18 23.19-13.64 8.41-3.54 17.41-5.77 26.42-7.11 9.44-1.4 19.21-1.64 28.66-.2 9.77 1.48 19.03 4.75 27.47 9.9 1.58.97 3.33 1.83 4.67 3.13s1.84 2.95 1.86 4.75c.02 2.6-1 5.08-2.16 7.35-1.06 2.09-2.14 4.39-3.68 6.18-1.29 1.5-3.53 2.95-5.51 1.88-1.95-1.06-3.46 1.67-1.71 2.93 2.12 1.52 4.95 1.41 7.22.27 2.38-1.2 3.97-3.57 5.26-5.82 2.72-4.75 5.67-10.25 4.18-15.89-1.17-4.42-5.16-6.45-8.78-8.65-4.5-2.73-9.31-4.95-14.29-6.64-19.8-6.73-41.79-5.05-61.58.81-9.02 2.67-17.73 6.77-25.66 11.82-4.05 2.58-7.98 5.47-11.41 8.84-1.66 1.62-3.14 3.39-4.54 5.24s-2.57 3.74-3.08 5.93c-1.24 5.27 1.56 10.17 4.78 14.11s7.19 8.25 12.53 7.71c5.09-.52 8.71-4.97 12.57-7.88 3.99-3.01 8.25-5.67 12.7-7.94 17.41-8.89 38.3-12.08 57.52-8.23 2.42.48 4.82 1.08 7.19 1.77 1.94.57 2.75-2.42.83-3.01Zm-91.14 96.96c-2.11 1.62-4.23 3.23-6.34 4.85-1.09.84-2.26 1.78-2.57 3.12-.56 2.46 1.96 4.42 4.16 5.65a248 248 0 0 0 38.26 17.29c1.85.65 3.77 1.3 5.73 1.17 5.71-.38 15.58-10.26 17.7-11.13-5.08 2.87-10.74 6.83-14.97 7.86s-8.87 1.02-12.77-.93c-1.65-.83-3.12-1.97-4.56-3.14-5.25-4.27-10.2-8.91-15.14-13.54-3.34-3.13-6.75-6.36-8.81-10.45"/><path d="M35.32 136.92c-1.7 1.05-3.31 2.19-4.92 3.36-1.47 1.08-3.14 2.1-4.2 3.62-1.89 2.73-.64 5.84 1.71 7.8 2.64 2.2 6 3.66 9.03 5.24 3.32 1.72 6.67 3.37 10.06 4.95 6.78 3.15 13.71 6 20.74 8.54 2.99 1.08 6.13 2.25 9.34 1.42 2.18-.56 4.22-1.77 6.08-3 2.33-1.54 4.5-3.31 6.65-5.07 1.4-1.15 2.54-2.45 4.08-3.12-.6-1.03-1.2-2.05-1.8-3.08-7.06 3.84-13.98 9.62-22.58 7.94-4.38-.86-7.69-3.95-10.96-6.79-3.63-3.14-7.13-6.43-10.62-9.73-3.55-3.35-7.24-6.66-9.51-11.06-1.14-2.21-4.47-.26-3.33 1.95 2.16 4.19 5.57 7.49 8.98 10.67 3.74 3.48 7.48 6.97 11.36 10.3 3.57 3.07 7.24 6.62 11.88 7.96 4.18 1.2 9.07.94 13.12-.64 4.8-1.88 9.07-4.9 13.48-7.52 2.01-1.2.25-4-1.8-3.08-1.21.55-1.98 1.38-3.05 2.2-1.67 1.27-3.3 2.61-4.99 3.86-1.78 1.31-3.62 2.6-5.59 3.62s-3.59 1.39-5.81.84c-3.27-.81-6.48-2.2-9.61-3.42s-6.35-2.53-9.48-3.91c-6.2-2.72-12.3-5.69-18.26-8.9-1.53-.83-3.18-1.59-4.59-2.62-.78-.57-1.98-1.52-1.82-2.63.2-1.39 2.27-2.48 3.25-3.26 1.69-1.35 3.34-2.7 4.92-4.17 1.2-1.12-.35-3.14-1.75-2.27Z"/><path d="M66.05 136.01c.07 2.05.08 4.1.05 6.15s-.24 4.1-.21 6.14c0 .77.58 1.44 1.35 1.53.68.08 1.6-.34 1.71-1.11.3-2.12.3-4.3.32-6.44s0-4.18-.09-6.27c-.03-.84-.69-1.56-1.56-1.56s-1.59.72-1.56 1.56Z"/><path d="M60.61 142.91c4.66.67 9.32 1.41 13.97 2.2.88.15 1.78-.23 2.03-1.15.22-.78-.27-1.89-1.15-2.03-4.8-.77-9.61-1.46-14.42-2.11-.76-.1-1.46.68-1.54 1.36-.08.69.34 1.61 1.12 1.72Zm81.4-48.68c2.88-1.13 5.77-2.26 8.65-3.39s5.98-2.11 8.75-3.55c1.83-.95.57-3.91-1.4-3.33-2.89.86-5.69 2.25-8.47 3.41l-8.45 3.51c-.86.36-1.48 1.15-1.21 2.13.23.83 1.26 1.55 2.13 1.21Zm.16 16.05c2.97.8 5.91 1.69 8.85 2.63 2.93.93 5.82 1.99 8.77 2.85 1.78.52 3.07-2.28 1.29-3.07-5.73-2.56-11.94-4.15-18.03-5.6-2.07-.49-2.95 2.64-.88 3.19m-1.43 16.9c1.54.92 3.03 1.91 4.47 2.98l.51.39c.09.06.17.13.26.19.22.16-.16-.13.05.04.35.28.71.56 1.06.85.33.27.66.55.99.82.1.09.2.17.31.26.08.06.15.12.23.18.18.14.22.17.13.1-.11-.08.13.1.15.12.11.08.21.17.32.25.65.52 1.63.68 2.25 0 .58-.64.63-1.62 0-2.25-1.36-1.37-2.91-2.54-4.48-3.67s-3.05-2.07-4.65-2.99c-.72-.41-1.77-.19-2.17.57s-.19 1.71.57 2.17Zm-10.33 16.51c2.34 0 2.35-3.64 0-3.64s-2.35 3.64 0 3.64M25.36 78.23c-4.18 4.43-9 10.22-6.97 16.8 1.71 5.53 8.3 9.72 13.9 10.07 2.74.17 5.62-.81 7.48-2.87s2.93-5.55.54-7.52c-2.16-1.78-5.78-1.25-8.13-.18-2.68 1.21-4.78 3.47-6.09 6.07-1.49 2.96-2.23 6.34-2.51 9.62-.24 2.89.36 6.2 3.34 7.37 1.59.63 2.44-1.56 1.53-2.62-2.33-2.69-.97-7.41 0-10.41 1.16-3.62 4.05-7.51 8.27-7.4.3 0 1.09-.01 1.31.21.19.19.14.34.06.69-.18.82-.76 1.55-1.41 2.07-1.44 1.14-3.37 1.4-5.13 1.04-3.68-.75-8.26-3.39-9.57-7.13-1.81-5.16 2.54-9.98 5.71-13.49 1.41-1.56-.86-3.86-2.32-2.32Zm30.82-11.11c-.69 4.21-1.32 8.44-1.88 12.67-.28 2.09-.52 4.19-.74 6.29s-.79 4.4-.37 6.42c.3 1.46 2.19 1.12 2.64 0 .37-.93.37-2.04.47-3.03.1-1.05.2-2.1.31-3.15.21-2.02.43-4.03.65-6.05.46-4.15.98-8.29 1.57-12.42.25-1.72-2.36-2.49-2.65-.73m14.24-5.84c-.31 4.04-.72 8.07-.95 12.12-.11 2.02-.18 4.04-.24 6.07-.03.93-.05 1.87-.07 2.8-.02 1.06-.17 2.19.15 3.2.46 1.47 2.43 1.41 2.92 0 .35-1 .23-2.16.25-3.2l.06-2.8c.05-2.02.13-4.04.18-6.07.11-4.03.16-8.09.42-12.12.11-1.75-2.59-1.73-2.72 0m16.49-4.94c-.29 3.53-.54 7.06-.71 10.6-.09 1.77-.17 3.53-.26 5.3l-.12 2.45c-.05.94-.22 1.94.1 2.84.38 1.08 2.12 1.6 2.7.35.72-1.54.51-3.55.59-5.23l.27-5.5c.18-3.6.29-7.2.34-10.81.03-1.9-2.77-1.85-2.92 0Zm18.29-2.78c-.74 6.71-1.15 13.55-1.07 20.3.03 2.07 2.95 1.98 3.16 0l.06-.59c.16-1.56-1.89-1.67-2.62-.71l-.38.5 2.94.8c.17-6.78.42-13.53.91-20.3.06-.81-.73-1.49-1.5-1.5-.88 0-1.41.7-1.5 1.5m21.26 5.17c-.54 3.05-.99 6.11-1.47 9.16-.23 1.47-.44 2.95-.66 4.42s-.87 3.47-.18 4.9c.39.81 1.64.92 2.22.29 1.04-1.13.99-3.18 1.2-4.65s.44-2.95.65-4.43c.44-3.09.89-6.19 1.26-9.29.2-1.71-2.72-2.11-3.02-.41Z"/></svg>