<?xml version="1.0" encoding="UTF-8"?><svg xmlns="http://www.w3.org/2000/svg" viewBox="0 0 180 180"><path d="M47.09 101.28c-3.51-.92-6.21 2.01-6.79 5.26-.29 1.66-.18 3.49.62 5 .91 1.72 2.72 3.08 4.45 3.88 4.36 2.02 9.49 2.04 14.2 2.44 5.43.46 10.86.86 16.31 1.11 10.88.51 21.81.43 32.65-.61 5.2-.5 10.35-1.25 15.49-2.14 2.52-.44 5.02-.96 7.34-2.08 3.2-1.54 5.19-4.49 4.42-8.1-.44-2.06-1.63-3.78-3.58-4.64-1.89-.83-4.09-.84-5.87-1.93-.33 1.22-.66 2.44-.99 3.67 2.63 0 5.22.72 7.48 2.08.78.47 1.55 1.01 2.12 1.73.53.67.52 1.95.5 2.96-.07 2.77-.82 5.61-1.46 8.3-.49 2.08-1.1 4.12-2.2 5.96-2.7 4.5-7.48 6.44-12.45 7.22-2.83.45-5.72.59-8.57.82-3.2.26-6.4.51-9.61.73-12.69.89-25.51 1.34-38.15-.36-3.17-.43-6.33-1-9.45-1.7-2.51-.56-5.27-1.12-7.34-2.75-1.93-1.52-2.81-3.94-3.56-6.2-.84-2.5-1.99-5.05-2.2-7.7-.18-2.25.25-4.37.95-6.48.03-.09.07-.18.1-.27.14-.4-.2.38.04-.09.12-.23.24-.45.36-.67.06-.1.13-.19.19-.29.03-.04-.26.25.07-.08.19-.19.38-.39.58-.56.24-.2-.41.27.02 0l.42-.27.39-.21c.07-.04.65-.28.29-.14.79-.32 1.62-.52 2.45-.69 2.66-.55 5.41-.67 8.12-.83 2.31-.13 2.32-3.47 0-3.59-4.3-.22-9.64-.37-13.47 1.99-2.34 1.44-3.39 3.78-4.06 6.35-.88 3.37-.73 7 .41 10.29.92 2.65 1.76 5.4 2.94 7.94 1.3 2.79 3.43 4.97 6.25 6.23 2.94 1.31 6.17 1.93 9.31 2.53 14.01 2.7 28.3 2.59 42.48 1.66 6.94-.45 13.96-.8 20.85-1.73 6.03-.82 11.6-3.03 15.26-8.11 1.63-2.26 2.57-4.95 3.22-7.63.81-3.32 1.77-6.93 1.68-10.36-.04-1.55-.26-3.12-1.17-4.41-.77-1.08-1.82-1.93-2.92-2.65-2.89-1.88-6.44-2.87-9.87-2.95-2.03-.05-2.57 2.65-.99 3.67 1.41.91 3.01 1.28 4.62 1.68 1.19.29 2.28.52 2.74 1.76.21.59.3 1.03.27 1.6 0 .18-.18.74-.27.91-.37.7-1.06 1.19-1.96 1.67-1.75.93-4.03 1.39-6.12 1.76-3.91.69-7.83 1.33-11.77 1.79-18.99 2.22-38.16 1.29-57.16-.33-3.59-.31-8.61-.5-10.76-3.92-1.09-1.72-.38-6.23 2.4-5.79 1.73.28 2.52-2.23.74-2.7Z"/><path d="M50.34 134.38c.31 2.2.99 4.31 1.51 6.47.52 2.15.97 4.33 1.34 6.51.63 3.68.95 7.46 2.7 10.83 3.85 7.43 13.56 7.99 20.89 8.68 8.98.84 18.05.72 27.01-.36 2.27-.27 4.54-.6 6.8-.99 2.03-.35 4.12-.66 6.06-1.35 3.65-1.3 6.03-3.92 7.38-7.5s1.68-7.76 2.16-11.61c.54-4.36 1.01-8.78 2.4-12.97.9-2.72-3.39-3.88-4.28-1.18-2.22 6.71-2.2 13.91-3.52 20.81-.51 2.65-1.27 5.69-3.61 7.32-1.5 1.05-3.39 1.39-5.15 1.74-2.05.4-4.12.75-6.19 1.04-8.33 1.19-16.81 1.47-25.2.95-3.96-.25-7.95-.62-11.86-1.32-3.09-.56-6.5-1.47-8.49-4.09-2.25-2.96-2.52-7.07-3.16-10.61-.81-4.48-1.83-9.53-4.23-13.46-.88-1.44-2.77-.42-2.56 1.08Z"/><path d="M55.31 153.64c-3.26-.31-6.6.11-9.68 1.23-2.56.93-5.26 2.82-5.32 5.54-.04 1.78 1.12 3.41 2.6 4.39s3.24 1.44 4.97 1.83c20.01 4.54 40.82 3.64 61.28 2.13 8.52-.63 17.25-1.42 24.99-5.04 1.19-.56 2.43-1.26 2.99-2.45 1.15-2.45-1.21-5.12-3.62-6.35a17.9 17.9 0 0 0-8.89-1.91c-.77 4.14-4.07 7.45-7.87 9.28-3.79 1.83-8.05 2.38-12.24 2.8a231 231 0 0 1-31.48 1c-2.86-.1-5.76-.27-8.46-1.22-4.66-1.63-8.4-5.66-9.68-10.42"/><path d="M55.71 152.18c-4.45-.78-9.86-.33-13.71 2.26-1.67 1.12-3.16 2.72-3.59 4.74-.49 2.3.38 4.59 2.01 6.24s3.89 2.49 6.11 3.03c2.52.62 5.07 1.1 7.63 1.53 5.15.86 10.34 1.43 15.55 1.75 10.5.65 21.03.32 31.52-.33 9.88-.61 20.29-.85 29.73-4.14 2.33-.81 5.14-1.71 6.93-3.5 1.87-1.87 2.04-4.59.77-6.84-2.61-4.61-9.14-6.15-14.03-5.97-.87.03-1.83.62-2.02 1.53-2.07 10.06-15.47 10.4-23.49 11.01-5.57.43-11.15.65-16.73.67-2.87.01-5.75-.03-8.62-.13-2.54-.08-5.1-.16-7.56-.83-4.5-1.23-8.03-4.82-9.29-9.29-.73-2.59-4.77-1.49-4.04 1.11 1.32 4.66 4.58 8.77 8.94 10.95 5.2 2.6 11.46 2.3 17.13 2.36 6.24.07 12.48-.11 18.7-.55 5.82-.41 12.06-.62 17.6-2.6 5.3-1.9 10.22-5.85 11.4-11.61l-2.02 1.53c3.34-.12 8.17.58 10.24 3.59.96 1.4.2 2.21-1.12 2.91-1.76.93-3.68 1.6-5.59 2.18-8.14 2.48-16.81 2.79-25.24 3.34-17.83 1.17-35.99 1.56-53.55-2.27-1.93-.42-4.2-.76-5.75-2.1-1.27-1.09-1.68-2.65-.52-3.98 1.28-1.47 3.36-2.2 5.18-2.72 2.29-.65 4.65-.9 7.03-.91 1.65 0 2.13-2.67.4-2.98Zm19.76-45.47c-1.61-9.91-9.36-18.35-19.23-20.44-5.49-1.16-11.16-.55-16.24 1.83-4.41 2.06-8.06 5.39-10.94 9.26-3.35 4.49-5.69 9.61-8.18 14.6-1.03 2.07 2.05 3.9 3.12 1.82 3.35-6.52-1.36-12.76-1.9-19.28-.26-3.21.92-6.17 3.75-7.89 1.41-.86 2.85-1.14 4.48-1.14 2.02 0 3.63-.66 4.76-2.39.9-1.39 1.43-2.94 2.46-4.27s2.27-2.46 3.66-3.37c2.79-1.83 6.06-2.81 9.41-2.61 6.69.4 12.26 5.6 13.82 11.96.57 2.31.85 4.68 1.4 6.99.51 2.15 1.34 4.18 2.29 6.17 1.81 3.8 4.13 7.38 4.77 11.62.15 1.02 1.44 1.59 2.34 1.33 1.09-.31 1.48-1.32 1.33-2.34-.59-3.99-2.62-7.53-4.41-11.09-.92-1.82-1.74-3.65-2.24-5.62-.55-2.16-.77-4.39-1.16-6.59-1.36-7.64-6.78-13.97-14.4-15.94-7.29-1.88-15.23 1.08-19.83 6.97-.59.76-1.14 1.55-1.61 2.39-.41.75-.69 1.73-1.23 2.39-.51.63-1.22.44-1.98.45-.99.02-2 .15-2.95.43-3.55 1.04-6.47 3.75-7.81 7.18-1.5 3.86-.39 8.09.79 11.87 1.06 3.4 2.76 7.45 1.15 10.94 1.04.61 2.08 1.22 3.12 1.82 3.4-7.68 8.36-15.83 15.63-20.42 7.82-4.94 18.43-4.39 25.47 1.75a21.9 21.9 0 0 1 7.17 12.49c.4 2.12 3.55 1.2 3.21-.88Zm32.62 7.51c-.26-3.12.46-6.17.99-9.22.48-2.77 1-5.55 1.74-8.27 1.36-5.01 3.47-9.88 7.22-13.57 1.6-1.58 3.48-2.94 5.58-3.78 2.54-1.03 5.06-.99 7.76-1.05 2.99-.06 5.78-.82 8.62-1.66 2.49-.74 5.19-1.57 7.78-.88 5.87 1.56 8.11 8.25 9.83 13.35l3.66-2.13c-3.87-3.34-8.89-4.04-13.85-3.65-2.34.18-4.94.36-7.2 1.06-2.82.87-3.57 3.17-4.5 5.68-.73 1.96-1.9 4.01-3.75 5.1s-4.25 1.22-6.29 2c-1.11.43-2.14.96-3.03 1.76-1.07.94-1.6 2.21-2.41 3.34-1.15 1.57-3.2 1.89-4.98 2.3-2.48.57-5.06 1.28-6.85 3.22-2.01 2.18-2.78 5.14-2.12 8.03.63 2.73 4.62 1.54 4.14-1.14-.3-1.67.44-3.53 1.86-4.48 1.55-1.03 3.54-1.24 5.31-1.68 1.91-.47 3.81-1.18 5.25-2.58 1.49-1.44 1.96-3.63 3.95-4.51 1.77-.78 3.77-.94 5.57-1.63 2.18-.83 3.9-2.22 5.28-4.09 1.32-1.79 2.02-3.83 2.79-5.89.33-.87.58-1.14 1.48-1.34 1.04-.23 2.12-.37 3.17-.52 4.3-.58 9.55-.92 13.07 2.11 1.53 1.32 4.41.1 3.66-2.13-1.94-5.74-4.25-11.91-9.8-15.1-2.72-1.57-5.72-1.92-8.79-1.47-3.17.47-6.13 1.79-9.27 2.36-3.06.55-6.19.02-9.26.73-2.67.61-5.18 1.9-7.36 3.56-4.69 3.57-7.78 8.63-9.63 14.17-1.13 3.37-1.81 6.87-2.38 10.38-.61 3.79-1.42 7.79-.94 11.63.12 1 .76 1.83 1.84 1.84.93 0 1.93-.85 1.84-1.84Zm-19.97 1.47c.48-5.21.46-10.49.62-15.72.16-5.24.28-10.48.39-15.72.21-10.48.32-20.96.47-31.44.07-5.15.1-10.31.22-15.46.11-4.75.44-9.54 2.04-14.05 2.41-6.81 8.99-12.81 16.59-10.44 9.71 3.03 12.3 14.21 12.62 23.13.1 2.84 4.51 2.85 4.42 0-.3-9.54-2.73-19.73-11.18-25.31-3.73-2.46-8.3-3.52-12.69-2.57s-7.77 3.64-10.35 6.97c-6.31 8.15-5.93 18.96-6.06 28.74-.15 11.31-.31 22.62-.43 33.94-.07 6.24-.08 12.48-.1 18.72-.02 6.38-.22 12.84.19 19.21.14 2.11 3.06 2.07 3.25 0"/><path d="M121.77 31.92c-10.1 2.86-18.5 11.14-21.49 21.2-.5 1.7-.79 3.74.39 5.06 1.68 1.88 4.83.79 6.79-.8 2.96-2.4 5.2-5.69 6.36-9.32-.42 2.19-.79 4.47-.3 6.65s2.04 4.27 4.22 4.74c3 .64 5.89-2.07 6.59-5.06s-.18-6.1-1.04-9.04c-.46 3.59.96 7.36 3.67 9.76.77.68 1.67 1.27 2.69 1.45 2.66.46 5.03-2.17 5.34-4.85s-.83-5.28-1.95-7.74c1 3.27 3.95 5.62 7.11 6.93 2.65 1.1 6.25 1.35 7.88-1.01 1.35-1.94.52-4.79-1.24-6.37s-4.17-2.18-6.51-2.58c4.23 1.48 8.68 2.32 13.16 2.48 2.06.07 4.41-.13 5.68-1.76 1.37-1.76.72-4.49-.87-6.06s-3.84-2.24-6.02-2.73c-9.58-2.16-19.67-1.98-29.16.54"/><path d="M121.29 30.2c-8.02 2.02-14.96 7.24-19.39 14.2-1.12 1.76-2.03 3.62-2.81 5.55s-1.5 3.96-1.42 6.01c.09 2.22 1.28 4.24 3.41 5.04 2 .75 4.23.17 6.05-.8 4.29-2.28 7.3-7.08 8.79-11.56l-4.22-1.16c-.66 3.45-1.14 7.14.67 10.33 1.58 2.79 4.62 4.47 7.82 3.75 2.95-.66 5.23-3.29 6.12-6.08 1.13-3.52.1-7.33-.9-10.74-.74-2.53-4.09-1.81-4.35.59-.33 3.06.47 6.29 2.2 8.85 1.7 2.52 4.44 4.97 7.7 4.57 2.97-.37 5.33-2.93 6.03-5.77.88-3.52-.62-6.99-2.04-10.13-1.03-2.27-4.81-.66-4.03 1.7 1.12 3.38 3.66 5.98 6.79 7.62 2.96 1.55 6.75 2.52 9.89.92 3.37-1.71 4.01-5.75 2.43-8.93-1.72-3.45-5.61-4.75-9.15-5.37-2.79-.49-3.91 3.34-1.18 4.28 4.51 1.55 9.32 2.49 14.09 2.6 1.96.04 4.11-.2 5.76-1.35 1.76-1.23 2.75-3.26 2.58-5.41-.37-4.72-4.54-7.11-8.7-8.13-4.69-1.15-9.58-1.7-14.4-1.75-5.59-.05-11.19.66-16.59 2.06-3 .78-1.72 5.43 1.28 4.64 7.65-2.01 15.7-2.59 23.54-1.44 1.85.27 3.71.61 5.52 1.09 1.44.38 3.12.9 4.1 2.1.59.72 1.07 2.02.42 2.83-.72.9-2.3.87-3.33.87-4.46-.02-8.89-.94-13.09-2.38l-1.18 4.28c2.05.35 4.75.78 6.08 2.58.97 1.32 1.07 3.26-.77 3.73s-3.96-.37-5.57-1.29c-1.88-1.07-3.57-2.61-4.27-4.72l-4.03 1.7c.87 1.93 1.97 4.2 1.67 6.39-.17 1.25-1.2 2.99-2.65 2.92-1.6-.08-3-2.17-3.68-3.43-.94-1.74-1.2-3.67-.99-5.62-1.45.2-2.9.39-4.35.59.96 3.28 2.81 9.44-1.59 11.21-1.49.6-2.78-.42-3.46-1.71-1.07-2.06-.58-4.62-.17-6.79.51-2.75-3.34-3.87-4.22-1.16-1.04 3.17-2.99 6.17-5.64 8.23-.8.63-2.17 1.49-3.25 1.28-1.2-.24-.79-1.95-.58-2.77 1.54-6.08 5.59-11.62 10.48-15.46 2.82-2.22 6.12-4 9.53-5.12 2.17-.71 1.29-4-.95-3.44M80.28 98.69c-2.36-.4-4.77-.76-7.18-.81-1.1-.02-2.16.98-2.11 2.11.05 1.19.93 2.05 2.11 2.11 2.25.11 4.52-.07 6.75-.29.79-.08 1.45-.54 1.56-1.38.1-.71-.36-1.61-1.14-1.74Zm22.12.2c-2.35-.36-4.67-.8-7.05-.99-1.11-.09-2.22-.11-3.33-.18-.24-.02-.48-.03-.72-.06-.08 0-.96-.13-.57-.07-.95-.15-1.68-.13-2.57.27-.94.43-1.33 1.96-.73 2.79 1.02 1.41 2.5 1.58 4.11 1.49 1.15-.06 2.29-.16 3.44-.19 2.31-.06 4.68-.1 6.98.21.81.11 1.55-.72 1.63-1.44s-.36-1.7-1.19-1.83m-33.78-77.7c-1.75-1.35-3.5-2.71-5.25-4.06-.86-.67-1.73-1.33-2.58-2.01l-1.24-.98c-.36-.29-.7-.58-1.12-.76-.53-.22-.99-.23-1.56-.14-.39.06-.88.48-1.06.82-.24.45-.25.87-.18 1.37.12.85.86 1.38 1.51 1.84l1.38.97c.89.63 1.77 1.27 2.65 1.91 1.77 1.28 3.53 2.56 5.3 3.83.72.52 1.8.18 2.3-.46s.56-1.8-.14-2.34Zm-2.1 14.47c-2.88-.08-5.76-.21-8.65-.33-1.41-.06-2.83-.11-4.24-.17-1.56-.06-3.28-.39-4.73.29-1.3.6-1.22 2.71 0 3.33 1.36.7 3.07.43 4.56.42 1.47 0 2.94-.02 4.4-.03 2.88-.02 5.76-.04 8.65-.03 2.25.01 2.24-3.42 0-3.48Zm2.97 13.17c-2.09.57-4.18 1.11-6.29 1.6-1.02.24-2.03.47-3.05.69-1.21.26-2.36.48-3.48 1.01-.75.35-1.15 1.45-.9 2.21.27.82 1 1.45 1.89 1.44 1.23-.01 2.41-.38 3.59-.7q1.5-.42 3-.87c2.07-.62 4.14-1.28 6.19-1.98.9-.31 1.5-1.21 1.23-2.17s-1.25-1.49-2.17-1.23Zm-4.7 86.76c-.6 2.35 1.26 4.68 1.86 6.88.74 2.7 1.31 5.46 1.91 8.19.59 2.71 1.13 5.42 1.65 8.14.38 1.95.49 5.69 2.95 6.22.98.21 1.94-.44 1.95-1.48.01-.98-.56-1.88-.76-2.83-.25-1.2-.43-2.42-.65-3.62-.47-2.56-1.02-5.11-1.6-7.65-.57-2.5-1.14-5.02-1.85-7.48-.33-1.15-.72-2.32-1.27-3.39-.52-1.01-1.16-1.86-1.44-2.98-.34-1.36-2.39-1.35-2.74 0Zm47.75-.99a85 85 0 0 0-4.41 14.65 105 105 0 0 0-1.67 11.21c-.1 1.14-.1 2.33-.7 3.34h3.26c-.12-.19-.26-.38-.4-.55-.91-1.19-3.33-1.03-3.19.86 0 .22.03.43.07.64.23 1.74 2.48 2.72 3.52.95 1.26-2.12 1.15-4.74 1.4-7.12.27-2.65.66-5.28 1.16-7.89.98-5.18 2.35-10.25 3.99-15.25.64-1.96-2.29-2.66-3.03-.83Zm-25.93 2.53c-.32 2.42-.15 4.95-.1 7.39s.14 4.92.27 7.38c.14 2.46.34 4.92.58 7.37.11 1.14.23 2.29.36 3.43.15 1.28.15 2.72.61 3.92.76 2.02 3.49 1.65 3.7-.5.12-1.27-.22-2.65-.37-3.91-.13-1.14-.25-2.29-.37-3.43-.23-2.37-.42-4.75-.59-7.12q-.255-3.57-.39-7.14c-.135-3.57.04-4.96-.25-7.39-.27-2.23-3.16-2.21-3.45 0"/></svg>