<?xml version="1.0" encoding="UTF-8"?><svg xmlns="http://www.w3.org/2000/svg" viewBox="0 0 180 180"><path d="M11.49 68.74c18.4.5 36.79.53 55.19.52 5.22 0 10.52.25 15.73-.18 2.65-.22 2.66-3.91 0-4.12-4.55-.38-9.17-.18-13.74-.18H54.69c-9.16 0-18.31.03-27.47.17-5.25.08-10.49.21-15.73.35-2.22.06-2.23 3.39 0 3.45Zm-.18 36.98c3.16.55 6.48.43 9.68.45 3.22.03 6.45.05 9.67.05 2.43 0 2.44-3.79 0-3.78-3.22 0-6.45.03-9.67.05-3.2.03-6.52-.1-9.68.45-1.37.24-1.37 2.53 0 2.77Z"/><path d="M32.26 104.31c.8-3.12.95-6.26 1.36-9.44l-2.08 2.08c2.1-.01 4.21 0 6.31-.1 1.07-.06 2.06-.88 2.02-2.02-.13-4.56-.44-9.11-1.32-13.6-.59.78-1.19 1.56-1.78 2.33 1.59-.03 3.18-.07 4.77-.1.91-.02 1.47-.58 1.8-1.37.96-2.3 2.07-4.54 3.26-6.73-.98.13-1.97.25-2.95.38 2.52 2.79 5.03 5.59 7.55 8.38v-2.61a40.3 40.3 0 0 0-6.66 7.91c-.67 1.04-.01 2.51 1.14 2.81 3.04.79 5.99 1.84 8.82 3.22-.23-.89-.47-1.78-.7-2.67a50.4 50.4 0 0 1-4.54 7.02c-.88 1.13-.71 2.93.88 3.34 2.6.68 5.06 1.82 7.68 2.39 1.93.42 2.73-1.91 1.28-3.03-2.25-1.72-5.19-2.51-7.9-3.22.29 1.11.59 2.23.88 3.34 1.93-2.48 3.63-5.09 5.08-7.88.45-.87.29-2.2-.7-2.67-3.15-1.48-6.4-2.69-9.77-3.55.38.94.76 1.88 1.14 2.81 1.69-2.65 3.69-5.07 5.96-7.24.75-.72.65-1.88 0-2.61l-7.5-8.43c-.8-.9-2.39-.64-2.95.38-1.36 2.47-2.54 5.02-3.61 7.63l1.8-1.37c-1.59.05-3.18.1-4.77.14-1.23.04-2.05 1.15-1.78 2.33.96 4.15 1.35 8.38.82 12.62l2.02-2.02c-2.1-.08-4.21-.02-6.31 0-1.49.01-2.18 1.31-2 2.63.37 2.74-.03 5.73-.28 8.48-.16 1.74 2.59 2.05 3.01.41Z"/><path d="M59.32 105.54c3.49.37 7.01.36 10.51.36 3.49 0 7.04.22 10.51-.13a1.851 1.851 0 0 0 0-3.7c-3.47-.34-7.03-.13-10.51-.13-3.51 0-7.02 0-10.51.36-2.08.22-2.08 3.01 0 3.23Z"/><path d="M83.84 104.42c1.23-8.05 1.89-16.16 1.81-24.3-.04-4.07-.22-8.14-.62-12.19-.16-1.59-.55-3.25-2.31-3.73-.3-.08-2.12-.26-2.27.07 0-.01.3.49.47.55-.08.16-.09.19-.03.08.1-.07.21-.11.32-.14 1.36-.31 2.84-.28 4.23-.34 1.73-.08 3.48-.12 5.2 0 1.15.08 2.67.16 3.41 1.17.91 1.23 1.03 3.23 1.2 4.69.43 3.75.3 7.54.16 11.3-.14 3.95-.08 7.89-.17 11.83-.05 2.2-.2 4.41-.69 6.57-.34 1.51-.83 3.28-2.27 4.1-2.83 1.62-6.59.2-8.57-2.06-1.75-1.99-4.6.91-2.89 2.89 2.39 2.79 6.2 4.3 9.86 3.88 1.98-.23 3.95-.91 5.35-2.39 1.33-1.41 2.09-3.27 2.53-5.13 1.08-4.54.85-9.19.89-13.81s.41-8.97.27-13.45c-.07-2.27-.28-4.54-.69-6.77-.34-1.82-.95-3.72-2.34-5.02-2.75-2.58-7.57-2.18-11.04-1.98-3.22.18-8.72.18-8.6 4.73.05 2.03 1.69 3.26 3.62 3.26.11 0 .89.02.94-.05l-.68-.52.03.29c-.05.18.06.54.08.73.13 1.22.24 2.43.33 3.65.84 10.54.61 21.19-.71 31.68-.23 1.8 2.91 2.24 3.19.43Zm30.92-72.63c-2.83-.38-5.62-.99-8.47-1.33s-5.7-.56-8.56-.72c-4.95-.27-10.64-.83-14.74 2.52-3.67 3.01-3.98 8.12-.72 11.55 3.33 3.49 8.79 4.48 13.41 4.15 5.34-.37 10.26-2.63 15.53-3.31s10.62.38 15.84 1.22c4.87.78 10.2 1.69 15.08.45 4.29-1.09 7.8-4.55 6.85-9.26-1.15-5.68-7.15-7.81-12.29-7.9-6.27-.12-12.31 1.32-18.37 2.75-1.98.47-1.14 3.6.84 3.06 4.71-1.29 9.53-1.47 14.4-1.55 3.41-.05 8.22-.25 10.42 2.94.76 1.1 1.14 2.54.38 3.73s-2.25 1.73-3.57 2.04c-3.96.94-8.41.21-12.37-.39-4.52-.69-9.07-1.56-13.66-1.55-4.7.01-9.09 1.35-13.6 2.47-4.14 1.03-8.69 1.62-12.77-.03-2.45-.99-5.44-3.56-3.27-6.3 1.23-1.54 3.31-2.12 5.19-2.27 2.53-.21 5.12-.06 7.65.01 2.69.08 5.38.21 8.07.36s5.55.15 8.29.49c1.77.22 2.21-2.9.43-3.15Zm-76.7 81.79c-3.3 5.71-6.07 12.07-7 18.64-.43 3.05-.6 6.18.49 9.12 1.02 2.73 2.77 5.03 5.13 6.74s5.53 2.97 8.54 2.68c2.98-.29 5.71-1.79 7.75-3.96 4.4-4.68 5.1-10.92 3.49-16.94-.99-3.71-2.86-7.28-4.83-10.56-1.92-3.19-4.06-6.29-6.43-9.17-1.24-1.5-3.92.53-2.72 2.1 3.5 4.59 7.12 9.29 9.13 14.76 1.78 4.82 3.06 10.35.16 15-1.19 1.91-2.99 3.63-5.18 4.31s-4.36.12-6.31-.99-3.67-2.87-4.55-5.01-.83-4.47-.57-6.73c.71-6.28 2.93-12.66 5.79-18.27.97-1.92-1.81-3.58-2.9-1.7Z"/><path d="M97.04 103.09c7.35 3.75 15.41 4.94 23.52 3.13 6.91-1.55 13.37-5.39 17.57-11.13 3.99-5.46 5.31-12.93 3.02-19.35-1.2-3.38-3.26-6.22-6.13-8.38-3.11-2.34-6.92-3.67-10.68-4.52-4.42-.99-9.04-1.34-13.56-1-2.33.17-4.67.5-6.95 1.04s-4.75 1.19-6.79 2.42c-2.12 1.28-.73 4.55 1.67 3.97 1.72-.41 3.36-1.1 5.06-1.58 1.84-.51 3.73-.92 5.62-1.19 3.49-.49 7.09-.51 10.58-.03 6.24.85 13.31 3 16.37 9 2.53 4.97 1.91 11.19-.93 15.88-3.08 5.08-8.4 8.49-14.01 10.18-7.44 2.24-15.99 1.7-23.15-1.32-1.64-.69-2.78 2.07-1.21 2.87Zm10.46-59.78c-.61 2.14-.62 4.66.35 6.7 1.08 2.26 3.66 2.49 5.85 2.76s4.63.58 6.71-.13c1.83-.62 3.26-2.01 4.01-3.78.4-.93.63-1.94.6-2.96-.05-1.28-.43-3.16-1.94-3.41-.84-.14-1.59.1-2.06.84-.44.69-.35 1.37-.14 2.11.05.16.08.33.11.5-.07-.49-.02.06-.02.14 0 .07-.06.68-.01.41s-.09.34-.1.4c-.05.17-.1.33-.17.49.17-.42-.06.08-.09.14-.08.15-.18.29-.27.44.24-.37-.1.11-.17.19-.14.14-.28.28-.44.4.28-.22-.03 0-.15.07-.14.08-.46.2-.14.09-.25.09-.5.16-.76.21-.28.05-.88.06-1.31.06-1.12 0-2.25-.05-3.38-.14q-.78-.06-1.56-.15c-.63-.07-.65 0-1.19-.2.24.09-.19-.18-.03-.02-.25-.26-.03.04-.19-.29-.13-.26-.04-.07-.13-.33-.1-.31-.19-.62-.24-.94-.17-.9-.13-1.83.06-2.71.45-2.06-2.59-2.93-3.18-.88Z"/><path d="M111.71 51.35c-.23 2.22-.36 4.43-.38 6.66q-.015 1.605 0 3.21c0 .58.02 1.15.03 1.73 0 .24 0 .5.01.74.04.6.27.97.65 1.42.53.63 1.82.67 2.34 0 .36-.46.6-.81.64-1.42.01-.24 0-.5-.01-.74 0-.58-.02-1.15-.03-1.73-.01-1.07-.03-2.14-.05-3.21-.04-2.23-.15-4.44-.32-6.66-.14-1.86-2.69-1.83-2.88 0m6.08.83c-.12 2.14-.18 4.27-.21 6.41-.01 1.07-.04 2.14-.04 3.2 0 .58-.01 1.14.09 1.71.05.28.1.52.25.78.16.27.38.49.65.65q.735.3.27.12c1.15.56 2.25-.14 2.39-1.37l.02-.15-.23.85c.22-.41.33-.79.27-1.26-.01-.14-.04-.28-.07-.41.03.19.04.17.02-.05.02-.44 0-.88 0-1.32 0-1.03-.03-2.06-.04-3.09-.03-2.03-.1-4.04-.21-6.06-.05-.85-.69-1.57-1.57-1.57s-1.52.72-1.57 1.57ZM11.37 66.87a263 263 0 0 0-1.31 28.49c.02 2.86.1 5.75.87 8.5 5.52-.43 11.04-.99 16.53-1.7.32-.04.65-.09.92-.26.61-.39.71-1.23.73-1.95.05-1.45.11-2.91.16-4.36.03-.87.12-1.85.79-2.39.47-.38 1.11-.45 1.71-.51 1.32-.12 2.64-.25 3.97-.37.31-.03.65-.08.85-.32.2-.25.16-.62.1-.94l-1.74-10.2c1.49-.32 3.05-.35 4.55-.08 1.93-2.75 3.86-5.5 5.78-8.25 2.47 3.15 4.66 6.52 6.53 10.07.2.38.4.78.4 1.21 0 .49-.25.94-.49 1.36-.94 1.61-1.88 3.23-2.82 4.84 2.97.45 5.89 1.19 8.71 2.22-1.42 2-2.72 4.09-3.89 6.25-.12.22-.24.47-.16.7.07.22.29.36.49.47 1.32.75 2.63 1.51 3.95 2.26.77.44 1.56.89 2.42 1.07.97.2 1.97.07 2.95-.05 5.39-.68 10.84-.96 16.28-.83a280 280 0 0 0 .97-32.26c0-.28-.02-.58-.19-.8-.29-.38-.86-.35-1.34-.28-4.3.62-8.63.98-12.98 1.07-4.27.09-8.53-.07-12.8-.23-8.98-.34-17.97-.69-26.95-1.03-4.39-.17-8.79-.34-13.12-1.06"/><path d="M9.79 66.44c-.92 6.32-1.33 12.7-1.54 19.08-.1 3.11-.14 6.23-.13 9.35.01 3.19.1 6.41.92 9.51.21.77 1.04 1.49 1.87 1.43 4.39-.35 8.77-.79 13.13-1.31 1.75-.21 4.42-.04 5.78-1.34 1.38-1.32 1.18-3.4 1.25-5.14.04-.93-.14-2.2.13-3.09.03-.1.2-.39-.03-.21.21-.17.8-.13 1.07-.16 1.83-.18 4.82.16 5.98-1.59.49-.74.43-1.6.3-2.42-.17-1.14-.37-2.27-.55-3.41-.37-2.27-.77-4.53-1.16-6.8-.45.8-.91 1.6-1.36 2.4 1.16-.23 2.35-.27 3.52-.08.93.15 1.66-.12 2.2-.89l5.79-8.25c-1.02.13-2.05.26-3.07.4 1.88 2.42 3.58 4.99 5.1 7.65.35.62.93 1.34 1.11 2.03.12.47-.12.62-.45 1.19-.82 1.41-1.64 2.83-2.46 4.24-.58.99-.11 2.69 1.18 2.89 2.97.46 5.88 1.19 8.71 2.22l-1.17-2.88c-.94 1.31-1.83 2.66-2.66 4.04-.75 1.25-2.05 2.89-1.63 4.44s2.35 2.21 3.57 2.92c1.36.79 2.73 1.73 4.25 2.2s2.93.26 4.4.09c1.72-.2 3.44-.36 5.17-.48 3.53-.25 7.08-.31 10.62-.23 1.22.03 2.01-1 2.11-2.11.63-6.85 1.01-13.71 1.11-20.58.05-3.39.04-6.79-.03-10.18-.03-1.43.09-2.97-1.06-4.02-1.28-1.18-3.06-.7-4.6-.52-13.36 1.63-26.93.46-40.33-.03-7.64-.28-15.46-.13-23.02-1.35-1.16-.19-2.35.3-2.68 1.52-.29 1.04.35 2.49 1.52 2.68 8.77 1.44 17.81 1.32 26.67 1.67 8.83.35 17.69.96 26.52.82 2.41-.04 4.83-.18 7.23-.4q1.8-.165 3.6-.39c.81-.1 2.36-.55 2.94-.34l-.97-.56c-.34-.29-.16-.89-.22-.08-.02.32.02.67.02.99.02.66.03 1.32.04 1.99.02 1.41.03 2.81.04 4.22a298 298 0 0 1-1.01 24.56l2.11-2.11c-4.53-.07-9.06.11-13.57.59-1.8.19-4.13.92-5.87.23-.96-.38-1.87-1.02-2.76-1.53s-1.81-.98-2.67-1.54l.72.72-.2-.28.27 1.01v-.36c-.08.34-.17.67-.26 1.01 1.03-2.33 2.56-4.53 4.01-6.62.78-1.11-.08-2.49-1.17-2.88a47.6 47.6 0 0 0-8.71-2.22l1.18 2.89c.97-1.66 2-3.31 2.91-5 1.03-1.92.55-3.4-.44-5.21-1.86-3.4-4.02-6.59-6.41-9.64-.84-1.07-2.43-.52-3.07.4-1.93 2.75-3.85 5.51-5.78 8.26.73-.3 1.47-.6 2.2-.89-1.9-.3-3.7-.29-5.59.08-1.11.21-1.52 1.43-1.36 2.4l.9 5.34c.27 1.57.89 3.41.82 4.99l.26-.97-.06.08.85-.49c-2.4.76-5.7-.32-7.51 1.93-.76.95-.91 2.15-.97 3.33-.08 1.48-.24 3.04-.16 4.52 0 .09 0 .25-.04.35.09-.24.15-.06-.18-.14-.59-.15-1.58.19-2.18.26-1.54.18-3.08.35-4.61.51-3.08.32-6.16.59-9.25.83.62.48 1.25.95 1.87 1.43-.75-2.86-.8-5.78-.82-8.72-.02-3.12 0-6.23.09-9.35.17-6.14.59-12.27.93-18.4.1-1.81-2.94-2.27-3.21-.43Zm19.2-10.07c-1.58-.87-3.16-1.74-4.76-2.58-.77-.41-1.54-.81-2.31-1.22-.89-.47-1.81-1.08-2.78-1.37v3.61c.34-.09.67-.18 1-.3.67-.23 1.26-.85 1.22-1.6-.03-.68-.49-1.49-1.22-1.6-.5-.08-1-.13-1.5-.18-.78-.07-1.64.63-1.81 1.38-.2.88.16 1.59.86 2.12s1.58.81 2.34 1.18c.81.39 1.63.79 2.44 1.18 1.6.77 3.21 1.52 4.83 2.27.79.37 1.84.25 2.29-.6.41-.78.22-1.84-.6-2.29m9.47-2.32c-.97-1.92-1.95-3.88-2.73-5.83-.41-1.03-.79-2.07-1.14-3.13-.36-1.12-.57-2.35-1.12-3.4-.81-1.57-3.46-.86-3.36.91.07 1.25.6 2.5 1.02 3.67.4 1.12.85 2.23 1.32 3.33.91 2.1 1.97 4.16 3.26 6.05 1.15 1.7 3.68.23 2.75-1.61Zm10.79.54c.29-2.66.59-5.33.88-7.99.14-1.3.25-2.6.41-3.9.06-.51.14-1.02.25-1.53.15-.71.43-1.42.39-2.16-.09-1.8-2.17-2.17-3.17-.86-.82 1.07-.85 2.96-.99 4.25s-.23 2.59-.32 3.88l-.6 8.3c-.06.85.77 1.58 1.58 1.58.93 0 1.48-.73 1.58-1.58Zm8.46 2.61c2.18-1.03 3.77-2.9 5.18-4.79.32-.43.64-.87.96-1.31.17-.24.35-.47.53-.71.04-.05.08-.11.12-.16-.13.16-.15.19-.07.09.1-.12.19-.25.29-.37.7-.87 1.54-1.58 2.29-2.4.61-.66.69-1.62.14-2.34-.54-.69-1.52-.91-2.3-.46-1.14.67-1.98 1.79-2.77 2.83-.67.88-1.27 1.8-1.88 2.71-.31.46-.63.92-.96 1.37-.08.11-.16.21-.23.32-.05.07-.3.39-.06.08-.16.21-.33.41-.5.61-.34.39-.7.77-1.1 1.1-.09.08-.3.24-.09.08-.1.08-.21.15-.32.23-.25.17-.52.33-.79.48-.7.38-.98 1.41-.55 2.08.48.74 1.31.91 2.08.55Zm75.19 11.91c8.18-.95 17.68-1.16 24.35 4.52 6.55 5.58 6.86 15.08 7.14 23.04.2 5.56.11 11.14-.03 16.71-.04 1.68 1.88 2.68 3.28 1.88-.3.17-.15-.11-.08.21.14.62.19 1.16.19 1.8 0 1.51-.01 3.08-.22 4.58-.14 1.05-.36.99-1.43 1.22-1.55.34-3.12.6-4.69.83-5.65.84-11.43.9-17.11.42-1.45-.12-2.9-.28-4.34-.46q-1.005-.12-2.01-.27c-.38-.06-.77-.11-1.15-.17-.2-.03-.95-.26-.84-.14 0 0-.08-.87-.1-1.22-.05-.74-.11-1.47-.16-2.21-.07-1.04-.49-2.7.2-3.6.55-.73 1.67-.75 2.39-1.36 1-.85 1.63-2.08 1.83-3.36.27-1.68.14-3.47.17-5.17.03-1.69.08-3.38.07-5.06 0-1.29-.13-2.57-.3-3.85-.09-.69-.19-1.37-.33-2.05-.04-.21-.09-.42-.14-.63-.19-.77-.08-.35-.17.22.39-2.51-2.92-3.48-3.83-1.06.44-1.17 1.71-1.15.73-1.22-2.13-.14-2.66 3.41-.51 3.78 1.17.2 2.78.25 3.41-1.03l-3.63-1.53c-.27 1.05.24 2.19.42 3.21.24 1.36.35 2.76.36 4.15.02 1.69-.04 3.38-.06 5.06s.24 3.63-.37 5.18c-.05.14-.5.47-.09.23-.25.14-.63.19-.9.29-.74.29-1.43.73-2 1.29-1.14 1.13-1.68 2.69-1.65 4.27.03 1.48.17 2.96.25 4.44.05.87.07 1.78.35 2.62.62 1.81 2.13 2.67 3.92 3 3.67.68 7.43 1.09 11.15 1.3 3.36.19 6.73.14 10.08-.15 3.6-.32 7.48-.67 10.95-1.69 1.85-.54 3.23-1.74 3.69-3.67.44-1.82.39-3.88.42-5.74.02-1.89-.12-3.9-1.45-5.36-1.34-1.47-3.51-1.86-5.24-.88 1.09.63 2.19 1.26 3.28 1.88.12-5.32.28-10.64.13-15.97-.14-4.9-.37-9.93-1.51-14.71-1.03-4.31-2.99-8.46-6.27-11.52-3.19-2.98-7.25-4.92-11.5-5.83-5.68-1.22-11.48-.72-17.14.41-1.86.37-1.47 3.58.45 3.36Z"/><path d="M137.68 114.89c5.25.96 10.59 1.6 15.93 1.65 2.6.02 5.2-.06 7.79-.23 1.38-.09 2.75-.21 4.13-.35s2.31-.15 3.14-1.27c.42-.57.25-1.31 0-1.89-.23-.53-.74-.81-1.25-.98-.61-.2-1.35.03-1.79.47l-.06.06c-1.5 1.53.39 3.74 2.21 2.86l.08-.04-2.22-.29.08.07-.54-1.31v.11c.32-.54.63-1.08.94-1.62q.45-.21-.33-.03c-.32.04-.65.07-.97.11-.65.07-1.29.13-1.94.18-1.13.1-2.27.18-3.4.24-2.35.13-4.71.15-7.06.16-4.78.01-9.57-.24-14.32-.78-1.64-.19-2.03 2.6-.39 2.9Zm2.38-39.85c1.16-1.1 2.15-2.35 3.04-3.67.42-.61.8-1.25 1.12-1.92.21-.43.4-.87.58-1.31.17-.4.37-.82.47-1.25.19-.87-.19-1.74-1.03-2.09-.73-.31-1.86-.08-2.21.73s-.55 1.67-.87 2.49c-.03.08-.07.16-.1.24-.09.23.11-.27.02-.04l-.21.48c-.15.34-.32.67-.49 1-.33.62-.7 1.2-1.12 1.77-.05.07-.1.14-.16.21-.08.11-.1.12 0 0l-.37.46c-.24.28-.49.56-.75.83-.53.55-.59 1.52 0 2.07s1.47.56 2.07 0Zm-.8 18.98c8.11-5.15 14.37-12.52 18.4-21.23.39-.84.24-1.85-.62-2.35-.73-.42-1.98-.24-2.35.62-3.54 8.19-9.56 15.38-16.89 20.47-1.51 1.05-.13 3.5 1.46 2.5Zm.73 10.65c5.43-.74 10.65-1.9 15.64-4.24 2.2-1.03 4.28-2.28 6.2-3.77s3.93-3.21 5.21-5.28c1.15-1.84-1.46-3.82-2.98-2.3-1.59 1.59-2.98 3.29-4.79 4.68-1.78 1.36-3.7 2.54-5.71 3.54-4.47 2.21-9.49 3.55-14.39 4.4-.83.14-1.28 1.15-1.08 1.9.24.9 1.08 1.19 1.9 1.08ZM106.6 76.72c1.87 0 1.87-2.91 0-2.91s-1.87 2.91 0 2.91m4.81-3.19c2.02 0 2.02-3.14 0-3.14s-2.02 3.14 0 3.14m.83 7.12c1.98 0 1.98-3.08 0-3.08s-1.98 3.08 0 3.08m4.67-3.13c2.02 0 2.02-3.14 0-3.14s-2.02 3.14 0 3.14"/></svg>