<?xml version="1.0" encoding="UTF-8"?><svg xmlns="http://www.w3.org/2000/svg" viewBox="0 0 180 180"><path d="M97.18 40.42c-16.9 2.65-33.81 5.27-50.71 7.97-8.16 1.3-16.44 2.36-24.44 4.48-3.49.92-7.19 1.92-9.98 4.34s-3.59 6.33-3.99 9.95c-.94 8.33.07 16.72.98 25.01s1.77 16.39 2.67 24.58c.42 3.82.91 7.67 1.93 11.38.93 3.38 2.22 6.89 4.59 9.54 3.88 4.35 9.98 4.94 15.46 4.63 7.04-.4 14.09-1.21 21.1-1.97s14.41-1.69 21.59-2.71c13.47-1.92 26.96-4.03 40.32-6.58 5.33-1.02 10.64-2.19 15.86-3.68 4.49-1.28 9.51-2.68 13.26-5.6 2.67-2.08 4.28-5 4.73-8.34s-.07-6.41-.51-9.58c-.77-5.63-1.22-11.31-1.7-16.97-1.07-12.64-1.91-25.3-3.19-37.92-.31-3.08-.33-6.5-1.68-9.32s-4.2-4.46-7.18-4.99c-3.29-.58-6.52-.18-9.8.29-2.96.42-5.9.96-8.83 1.53-3.14.62-6.28 1.27-9.41 1.92-2.01.42-1.59 3.9.49 3.64 6-.77 11.91-2.09 17.92-2.74 2.74-.3 5.66-.68 8.41-.23 1.06.17 2.2.48 3.08 1.12 1.23.9 1.63 2.33 1.86 3.76.86 5.31 1.13 10.77 1.59 16.12.53 6.24 1.01 12.48 1.51 18.72s.97 11.95 1.56 17.92c.26 2.66.55 5.32.92 7.98s.91 5.73.41 8.51c-.85 4.77-5.26 6.63-9.24 8.06-4.99 1.8-10.18 3.06-15.36 4.19-11.98 2.62-24.17 4.42-36.28 6.31-13.69 2.13-27.43 3.86-41.23 5.12-3.13.29-6.26.61-9.4.82-2.4.16-4.89.28-7.26-.19s-4.45-1.44-5.97-3.31c-2-2.46-2.92-5.94-3.62-8.97-.77-3.36-1.16-6.78-1.52-10.21-.41-3.94-.85-7.88-1.27-11.82-.86-7.95-1.95-15.92-2.39-23.9-.22-4.04-.22-8.1.23-12.13.34-3.05 1.01-5.9 3.84-7.53 3.04-1.74 6.78-2.46 10.15-3.27 3.7-.89 7.45-1.58 11.2-2.25 16.12-2.86 32.25-5.72 48.37-8.59L98 43.42c1.98-.35 1.12-3.3-.83-3Z"/><path d="m103.31 39.29-.13-.03h-.03c-.3-.07-.51-.09-.81-.01-.14.04-.27.11-.41.18a1.46 1.46 0 0 0-.72 1.25 1.46 1.46 0 0 0 .72 1.25c.13.07.28.15.41.18l.39.05c.13 0 .27-.02.4-.05h.04l.13-.03.34-.14c.17-.09.3-.21.4-.37.09-.09.15-.2.18-.32.09-.17.13-.36.12-.55l-.05-.38-.14-.34c-.09-.17-.21-.3-.37-.4-.14-.13-.3-.21-.49-.26ZM10.46 77c8.58-1.75 17.22-3.23 25.83-4.86s17.37-3.26 26.06-4.85c17.34-3.16 34.67-6.32 52.02-9.41 9.79-1.74 19.6-3.36 29.39-5.07 1.12-.2 1.75-1.57 1.47-2.59-.32-1.18-1.47-1.68-2.59-1.47-17.33 3.24-34.65 6.52-51.99 9.66-17.32 3.14-34.64 6.23-51.94 9.52-4.78.91-9.56 1.86-14.34 2.82s-9.81 2.23-14.73 3.29c-1.94.42-1.11 3.36.82 2.97Zm13.35-11.02c2.48 0 2.49-3.86 0-3.86s-2.49 3.86 0 3.86m9.04-1.9c2.48 0 2.49-3.86 0-3.86s-2.49 3.86 0 3.86m9.04-1.91c2.48 0 2.49-3.86 0-3.86s-2.49 3.86 0 3.86m106.31 41.57c4.64-.59 9.34-.61 13.99-.06 3.44.41 7.63 1.98 7.81 5.44.07 1.31-.52 2.57-1.11 3.74-3.47 6.82-7.82 13.15-12.16 19.46-1.63 2.37-3.31 4.79-5.62 6.49-4.06 2.99-9.43 3.34-14.47 3.55-16.68.69-33.38 1.04-50.07 1.05-8.35 0-16.7-.08-25.04-.24-4.17-.08-8.35-.19-12.52-.31-3.91-.12-7.84 0-11.75-.39-4.38-.43-8.41-1.42-12.44-3.18 10.09 2.91 38.27-1.26 56.02-2.78 5.13-.44 10.27-.88 15.37-1.64 5.48-.82 10.91-2.01 16.32-3.2 8.14-1.79 16.29-3.57 24.43-5.36 2.32-.51 4.67-1.03 6.79-2.1 6.44-3.25 9.51-11.89 6.56-18.47"/><path d="M148.2 105.5c3.13-.31 6.27-.38 9.41-.2 2.5.15 5.19.27 7.54 1.21 1.44.57 3.01 1.59 2.68 3.35-.24 1.26-1.06 2.47-1.66 3.59-.74 1.37-1.52 2.73-2.33 4.06-3.1 5.15-6.46 10.16-9.94 15.07-1.44 2.04-3.06 3.98-5.26 5.23s-4.63 1.76-7.05 2.03c-6.05.68-12.25.63-18.33.81s-12.56.33-18.84.43c-12.66.19-25.32.19-37.98-.01-6.95-.11-13.9-.38-20.85-.46s-13.36-.49-19.66-3.21l-1.69 4.01c2.93.83 6.07 1 9.1 1.07 4.03.09 8.06-.11 12.08-.38 9.1-.61 18.17-1.68 27.24-2.62 10.65-1.1 21.31-1.78 31.84-3.88 5.93-1.18 11.82-2.53 17.72-3.82s11.71-2.42 17.51-3.85c5.13-1.26 9.68-4.01 12.06-8.89 2.23-4.57 2.46-9.72.41-14.39-.47-1.07-2.04-1.32-2.97-.78-1.12.65-1.24 1.89-.78 2.97 1.38 3.24.92 7.17-.68 10.23-.85 1.61-1.96 3.1-3.42 4.21-1.87 1.42-4.18 2.05-6.43 2.57-11.08 2.59-22.22 5.02-33.37 7.31-10.14 2.08-20.38 2.77-30.66 3.82-8.64.88-17.28 1.88-25.94 2.54-4.37.33-8.75.59-13.13.57-3.36-.02-6.37-.07-9.4-.93-2.32-.65-4.03 3-1.69 4.01 6.07 2.62 12.35 3.63 18.93 3.77 6.62.14 13.24.31 19.87.43q20.46.39 40.92.09c6.78-.1 13.55-.25 20.33-.46 6.38-.2 12.91-.1 19.24-.98 2.86-.4 5.72-1.15 8.21-2.66s4.5-3.84 6.24-6.26c3.67-5.11 7.25-10.37 10.4-15.82.9-1.55 1.76-3.13 2.58-4.73s1.63-3.21 1.7-5.01c.1-2.8-1.77-5.11-4.17-6.33-2.69-1.37-5.68-1.68-8.65-1.82-3.88-.18-7.73.07-11.57.64-1.94.28-1.51 3.65.47 3.45ZM38.63 90.69c-3.68 5.45-5.14 7.62-8.81 13.07-.35.51-.7 1.05-.82 1.65-.14.72.06 1.46.27 2.16.5 1.72.99 3.44 1.49 5.17.07.23.14.47.31.62.27.25.69.21 1.06.16 5.59-.78 13.86-2.12 19.34-3.47-.01 2.66.43 5.33 1.31 7.84 3.52-1.06 3.16-.8 6.68-1.86.23-.07.48-.15.63-.33.16-.2.21-.48.18-.74-1.2-9.69-2.82-19.74-4.27-29.22-2.56.19-5.1.63-7.58 1.33l1.65 15.21c-3.82.76-7.64 1.52-11.45 2.28l5.1-6.31c.26-.32.53-.67.53-1.08 0-.4-.24-.75-.47-1.07-.99-1.37-3.38-4.21-4.38-5.58m68.53-13.31-8.81 13.07c-.35.51-.7 1.05-.82 1.65-.14.72.06 1.46.27 2.16.5 1.72.99 3.44 1.49 5.17.07.23.14.47.31.62.27.25.69.21 1.06.16 5.59-.78 13.86-2.12 19.34-3.47-.01 2.66.43 5.33 1.31 7.84 3.52-1.06 3.16-.8 6.68-1.86.23-.07.48-.15.63-.33.16-.2.21-.48.18-.74-1.2-9.69-2.82-19.74-4.27-29.22-2.56.19-5.1.63-7.58 1.33l1.65 15.21-11.45 2.28 5.1-6.31c.26-.32.53-.67.53-1.08 0-.4-.24-.75-.47-1.07-.99-1.37-3.38-4.21-4.38-5.58m-26.18 5.3c-.93-.25-1.89-.31-2.85-.27-1.9.08-3.76.57-5.47 1.39l.36-.32c-.64.34-1.25.73-1.84 1.14-1.29.82-2.45 1.83-3.41 3.01-1.56 1.75-2.8 3.79-3.57 6.01-1.51 4.33-1.2 9.31 1.02 13.33 2.24 4.06 6.87 5.93 11.38 5.44 7.28-.78 13.98-6.7 14.42-14.3.38-6.57-3.36-13.66-10.03-15.42Zm-4.06 20.84c-1.84.2-3.72-.56-4.63-2.21-.9-1.63-1.03-3.66-.41-5.42.32-.92.84-1.77 1.5-2.49.35-.42.76-.78 1.21-1.08.28-.2.57-.39.88-.56l-.16.15c.7-.34 1.46-.55 2.24-.58.39-.02.78 0 1.16.11 2.71.72 4.23 3.6 4.08 6.27-.18 3.09-2.9 5.5-5.86 5.82Z"/></svg>