<?xml version="1.0" encoding="UTF-8"?><svg xmlns="http://www.w3.org/2000/svg" viewBox="0 0 180 180"><path d="M87.68 122.86c-18.49 3.55-38.73 2.12-54.67-8.76-15.24-10.4-21.99-30.37-19.24-48.2 1.49-9.64 5.61-18.43 11.79-25.95 5.39-6.55 11.95-12.05 19.25-16.37 14.61-8.64 31.95-12.6 48.86-11.15 16.46 1.41 32.19 9.82 41.01 24.07 2.14 3.45 3.81 7.16 4.9 11.08 1.19 4.27 1.54 8.59 1.52 13.01-.03 7.68-1.25 15.45-5.1 22.2-3.14 5.51-7.71 9.92-12.29 14.28-1.26 1.2-2.52 2.39-3.76 3.6-1.81 1.76-3.24 3.73-2.54 6.39.63 2.39 2.6 4.1 4.41 5.63a285.4 285.4 0 0 1 39.46 40.51c1.58 1.99 3.33 3.97 4.69 6.11 1.17 1.84 1.06 3.89.06 5.78-.73 1.38-1.83 2.53-3.43 2.77-2.02.31-4.04-.62-5.73-1.61-4.18-2.44-8.01-5.61-11.6-8.83-7.4-6.65-13.89-14.24-20.07-22-3.07-3.85-6.05-7.76-9.06-11.66-1.48-1.92-2.97-3.84-4.46-5.75-1.38-1.76-2.73-4.26-5.24-4.35-2.05-.08-4.23 1.73-6.01 2.65-2.66 1.37-5.39 2.56-8.17 3.63-4.45 1.7-9.03 3.21-13.63 4.48-2.65.73-1.53 4.86 1.14 4.13 7.91-2.18 15.77-4.68 23.06-8.52.88-.46 1.75-.95 2.6-1.45.28-.17.57-.32.85-.5.18-.12-.13-.14-.08.02.15.44.72.9 1.02 1.26 3.15 3.93 6.23 7.92 9.32 11.9 6.29 8.08 12.65 16.13 19.83 23.45 3.54 3.61 7.27 7.02 11.26 10.13 3.9 3.04 8.33 6.79 13.46 7.23 4.53.39 7.89-2.67 9.38-6.72.92-2.52.69-5.28-.57-7.65-1.22-2.3-3.2-4.38-4.82-6.42A284.5 284.5 0 0 0 130.91 115c-2.13-1.89-4.28-3.75-6.46-5.59-1.12-.94-3.94-2.94-2.64-4.62 1.15-1.48 2.8-2.74 4.16-4.04 1.21-1.15 2.43-2.3 3.62-3.48 2.35-2.3 4.61-4.69 6.62-7.29 4.56-5.88 7.39-12.7 8.45-20.07 1.32-9.18 1.03-18.89-2.38-27.61-6.4-16.39-21.59-28.56-38.56-32.61-17.21-4.11-36.1-1.4-52.17 5.61S19.8 35.68 12.92 52.75C5.48 71.23 8.5 93.49 21.2 108.93c12.17 14.8 33.06 20.49 51.59 19.16 5.28-.38 10.53-1.15 15.71-2.23 1.97-.41 1.13-3.37-.83-3Z"/><path d="M49.32 31.35c-4.43 2.69-8.76 5.62-12.42 9.32-3.23 3.27-5.82 7.12-8 11.15-4.19 7.75-5.86 16.87-4.74 25.61C25.26 86 29 94.22 35.33 100.2c7.61 7.2 18.09 10.19 28.34 10.87 9.8.65 19.97-1.44 29.05-5.09 8.71-3.5 16.8-8.62 23.29-15.45 6.55-6.88 11.56-15.51 13.78-24.79 2.35-9.83.68-20.56-5.37-28.77-6.53-8.85-16.97-13.88-27.61-15.79-11.53-2.06-23.71-1.05-34.72 2.95-3.03 1.1-5.87 2.54-8.68 4.12-1.99 1.12-.24 4.02 1.77 3.04 10.33-5.04 21.81-7.31 33.28-6.76 9.92.48 20.38 3.38 27.97 10.04 7.01 6.15 10.59 15.12 10.05 24.4-.51 8.75-4.62 17.47-9.92 24.34-10.63 13.77-27.96 22-45.14 23.39-9.67.78-20.3-.57-28.64-5.82-6.66-4.2-11.35-10.9-13.51-18.42-2.19-7.65-1.84-15.87.77-23.37 2.8-8.05 8.09-15.17 14.49-20.72 1.95-1.69 4.02-3.2 6.18-4.62 1.48-.98.14-3.34-1.4-2.4Z"/><path d="M48.84 32.8c-1.59 3.81-2.61 7.83-3.74 11.8-.52 1.83-1.4 3.87-1.49 5.77-.11 2.12 1.55 2.88 3.33 3.31 3.65.88 7.42 1.12 11.16 1.36 3.68.24 7.5.45 10.99 1.78-.33-.81-.66-1.63-.99-2.44-1.8 2.67-3.43 5.4-5.51 7.89a55 55 0 0 1-6.82 6.8c-.46.38-.61 1.14-.45 1.7.46 1.55.76 3.06.76 4.68 0 1.55 2.46 1.98 2.78.38.39-2.01.4-4.01-.18-5.98l-.45 1.7c2.57-2.16 4.95-4.54 7.09-7.13 2.1-2.55 4.24-5.33 5.64-8.34.45-.97.11-2.12-.99-2.44-3.83-1.12-7.67-1.7-11.64-2.07-1.94-.18-3.89-.33-5.82-.58-.95-.12-1.89-.28-2.83-.47-.62-.13-2.22-.27-2.62-.71l.5.85-.08.09c.05-.19.1-.38.15-.56l.27-.95c.2-.71.39-1.43.58-2.15.4-1.51.81-3.03 1.21-4.54.79-2.96 1.57-5.9 2.01-8.94.27-1.89-2.11-2.55-2.85-.79Z"/><path d="M86.21 55.36c-2.72-.23-5.45-.42-8.17-.64s-5.48-.57-8.18-.46c-2.23.09-2.17 3.23 0 3.42 2.7.24 5.47.09 8.18.14 2.73.05 5.45.19 8.17.36 1.83.11 1.8-2.68 0-2.83ZM74.75 39.79l-5.44 1.31c-.88.21-1.77.43-2.65.64-.89.21-1.72.39-2.34 1.13-.57.69-.95 1.56-1.36 2.35s-.84 1.63-1.26 2.45c-.88 1.72-1.82 3.41-2.63 5.17-.36.78-.22 1.73.57 2.19.74.43 1.77.18 2.19-.57 1.69-3.03 3.17-6.21 4.68-9.33.06-.12.11-.3.2-.4-.02.02-.15.12-.05.06.33-.18.81-.24 1.18-.34l2.49-.67 5.13-1.38c1.68-.45.97-3.01-.72-2.61ZM44.73 60.77c.66-1.29 1.34-2.56 2.06-3.82.35-.62.71-1.23 1.08-1.84.41-.69.94-1.37 1.2-2.13.49-1.43-1.5-2.52-2.51-1.46-.53.56-.87 1.35-1.25 2.02s-.7 1.29-1.04 1.95c-.66 1.29-1.3 2.59-1.9 3.91-.29.65-.21 1.49.49 1.86.62.33 1.51.19 1.86-.49Zm61.07-1.36c1.47 1.46 2.72 3.1 4.14 4.59.27-.42.26-.47-.04-.15-.19.19-.39.37-.59.55-.36.34-.73.67-1.09 1.01-.9.85-1.78 1.72-2.66 2.58-3.36 3.28-6.64 6.66-9.9 10.03-1.18 1.22-.53 2.97.93 3.52 2.67 1.01 5.22 2.32 7.62 3.86s4.49 3.59 6.82 5.31c.78.58 2.02.21 2.56-.51.64-.85.47-1.8-.16-2.61-1.87-2.39-4.76-4.3-7.29-5.93s-5.49-3.07-8.43-4.2l.93 3.52c3.86-4.07 7.7-8.16 11.42-12.35 1.32-1.48 3.68-3.43 2.51-5.63-.51-.96-1.41-1.82-2.14-2.62-.89-.99-1.82-1.94-2.79-2.86-1.23-1.17-3.08.67-1.87 1.87Z"/><path d="M82.64 83.95c2.45-.29 4.91-.51 7.35-.9 1.18-.19 2.35-.39 3.52-.61s2.5-.35 3.62-.79c.78-.3 1.34-.96 1.2-1.84-.11-.76-.81-1.54-1.65-1.46-1.23.12-2.45.51-3.66.79-1.16.26-2.32.51-3.49.73-2.29.45-4.58.92-6.9 1.19-.78.09-1.45.6-1.45 1.45 0 .71.66 1.54 1.45 1.45Z"/><path d="M90.49 90.22c.42-1.26.78-2.53 1.07-3.82.07-.32.14-.63.2-.95.01-.07.03-.14.04-.2-.12.22-.08.13.1-.26q.105-.255 0 0c.05-.1.1-.21.14-.32.11-.25.11-.26 0-.05.1-.17.17-.35.2-.54-.14.31-.11.22.1-.26.01-.07.03-.14.04-.2.04-.18.06-.36.08-.55-.03.37-.01.28.05-.28.02-.44-.08-.77-.28-1.16-.49-.95-2.02-1.18-2.74-.35-.36.42-.55.81-.6 1.37-.03.27-.04 0 .03-.07-.09.09-.08.54-.08.69-.01.1 0 .21.03.31.04.27.05.32.01.14-.02-.12-.02-.13-.02-.03q-.015.15.03.3c.04.26.05.3 0 .14-.03-.11-.03-.12-.02-.02 0 .19.05.44.1.62v-.83c-.07.45-.08.78 0 1.22v-.78a40 40 0 0 1-1.19 5.16c-.21.7.25 1.56.98 1.72.77.18 1.47-.23 1.72-.98Zm4.06-44.67.06-.11.03-.05c.04-.07.06-.14.1-.22.09-.17.13-.35.12-.55v-.09s.01-.07.01-.11l-.05-.36-.14-.32-.21-.27c-.12-.13-.27-.22-.43-.28a.67.67 0 0 0-.34-.09.7.7 0 0 0-.36 0c-.12 0-.23.03-.34.09-.17.05-.31.15-.43.28l-.09.08c-.12.11-.21.19-.3.36-.04.07-.07.14-.11.21-.1.16-.16.34-.17.53q-.06.285.03.57c.04.19.13.35.26.49.1.16.23.28.4.37l.34.14c.25.07.51.07.76 0l.34-.14c.21-.13.39-.3.51-.51Zm6.96-2.94c1.99 0 1.99-3.09 0-3.09s-1.99 3.09 0 3.09m-79.25 65.96c-.58 4.07.86 8.24 3.21 11.61 9.57 13.75 25.66 20.67 42.12 21.2 8.12.26 16.27-.77 24.09-2.93 3.99-1.11 7.9-2.51 11.68-4.2 2.65-1.18 9.37-4.6 11.18-6.92 1.35-1.73-6.25-7.23-7.33-8.87-.14-.21-.29-.43-.53-.51-.22-.08-.47-.01-.7.05-10.85 3.19-18.24 8.98-29.54 9.3-2.87.08-9.09 1.88-11.95 1.63-7.53-.65-13.19-2.58-20.41-4.8s-14.09-7.2-19.64-12.33"/><path d="M21 108.23c-1.48 7.98 3.45 14.93 8.84 20.27 5.09 5.04 11.34 8.75 18.02 11.26 15.22 5.72 32.64 4.69 47.91-.27 6.27-2.04 12.87-4.73 18.19-8.73.98-.74 2.19-1.6 2.67-2.78s.15-2.32-.46-3.34c-1.26-2.12-3.33-3.78-5.13-5.41-.71-.65-1.43-1.29-2.08-2.01.35.39.06.07-.11-.16-.36-.47-.78-.86-1.34-1.1-1.12-.47-2.28-.02-3.36.33-3.7 1.17-7.25 2.73-10.82 4.25-3.29 1.41-6.62 2.76-10.1 3.61s-6.87.77-10.3 1.37c-2.83.49-5.78 1.39-8.68 1.16-3.98-.32-7.9-1.23-11.74-2.31-3.91-1.1-7.99-2.13-11.69-3.82-3.67-1.68-7.11-3.89-10.29-6.37a81 81 0 0 1-4.58-3.9c-2.05-1.88-5.11 1.16-3.06 3.06 4.69 4.33 9.87 8.35 15.7 11.02 2.91 1.34 5.96 2.24 9.02 3.18s5.85 1.75 8.83 2.4c2.89.63 6.05 1.33 9.02 1.23 2.46-.09 4.91-.66 7.32-1.12 2.4-.46 4.61-.5 7.06-.81 2.97-.38 5.86-1.09 8.68-2.08 3-1.06 5.91-2.36 8.83-3.62 1.44-.62 2.89-1.23 4.35-1.79.79-.3 1.58-.59 2.37-.86.73-.25 1.83-.83 2.6-.77l-1.09-.3.3.21-.78-.78c1.55 2.07 3.59 3.63 5.43 5.44.46.45.9.91 1.32 1.39.1.12.2.23.3.35.23.29-.15-.21.05.07.15.22.26.5.42.71-.13-.17-.17-.2-.08-.59s.53-.83.11-.44c-.48.45-.95.87-1.48 1.25-6.33 4.5-14.01 7.37-21.47 9.3-16.89 4.37-35.63 3.53-50.56-6.18-3.7-2.41-7.06-5.36-9.93-8.71-3.25-3.79-6-8.08-5.66-13.28.1-1.45-2.29-1.8-2.56-.35Zm123.4-46.79c6.42 8.03 8.06 19.38 5.07 29.21s-9.59 20.41-18.55 25.44c-2.25-1.35-5.15-5.13-7.25-6.71-.63-.47-1.28-.99-1.56-1.73-.43-1.1.1-2.35.77-3.32 1.5-2.17 3.73-3.72 5.65-5.53 2.28-2.15 4.14-4.69 5.98-7.22 2.19-2.99 4.37-5.99 6.56-8.98.72-.99 1.45-1.98 1.98-3.08.48-.98.8-2.03 1.1-3.07 1.01-3.61 1.68-7.31 2-11.04.01-.15 0-.34-.13-.41s-.27.22-.12.22"/><path d="M143.16 62.17c4.57 6.52 6.6 14.46 5.63 22.37-.93 7.59-4.63 15.19-9.28 21.19-2.66 3.43-5.86 6.43-9.64 8.59h2.07c-2.7-1.69-4.56-4.56-7.05-6.53-.66-.52-1.11-.76-.74-1.62s1.01-1.51 1.62-2.15c1.42-1.46 3.06-2.67 4.51-4.09 3.06-2.99 5.47-6.61 7.98-10.05 1.38-1.89 2.76-3.77 4.14-5.66 1.32-1.8 2.5-3.55 3.24-5.67.82-2.35 1.35-4.82 1.79-7.26.22-1.26.41-2.52.56-3.79.14-1.13.51-2.55-.2-3.56-.57-.8-1.38-1.16-2.35-.95-.61.13-1.15.55-1.43 1.1-.44.86-.33 1.81.32 2.52l.07.07c1.82 1.97 4.75-.98 2.94-2.94l-.07-.07c.11.84.22 1.68.32 2.52l.06-.12-1.24.95.13-.03-2.35-.95.12.17-.28-1.05c.09 2.16-.49 4.53-.92 6.63s-.89 4.48-1.79 6.5-2.47 3.82-3.77 5.61l-4.27 5.86c-2.55 3.5-5.14 6.68-8.42 9.54-2.84 2.47-7.13 6.84-3.7 10.61.65.71 1.49 1.24 2.18 1.9s1.36 1.36 2.02 2.05c1.38 1.44 2.78 2.93 4.48 4 .62.39 1.45.35 2.07 0 7.43-4.22 12.96-11.48 16.52-19.13 3.73-8.02 5.42-16.63 3.45-25.37-1.08-4.78-3.25-9.25-6.5-12.93-1.06-1.2-3.18.39-2.25 1.73Zm-17.79 77.05c1.5-2.79 3.45-5.17 5.79-7.3 1.15-1.05 2.22-1.87 3.56-2.72.67-.42 1.35-.82 2.05-1.18.79-.41 1.72-.7 2.31-1.39.98-1.15.33-2.89-1.23-2.96-1.03-.05-2.01.55-2.9 1.03-.73.39-1.43.82-2.12 1.28-1.47.98-2.87 2.09-4.16 3.3-2.49 2.35-4.53 5.27-6.02 8.35-.37.77-.21 1.71.57 2.16.72.42 1.76.19 2.16-.57Zm9.33 7.61c-.08-.49.44-1.11.69-1.49.37-.55.79-1.07 1.21-1.58.95-1.14 1.99-2.21 3.07-3.23 1.02-.96 2.06-1.81 3.2-2.59.59-.41 1.2-.81 1.84-1.14s1.17-.43 1.89-.66c1.82-.58 1.56-3.43-.46-3.41-1.85.03-3.59 1.13-5.05 2.16a34 34 0 0 0-4.1 3.41c-1.24 1.22-2.34 2.57-3.36 3.97-1.14 1.58-2.19 3.28-1.72 5.3.17.76 1.05 1.21 1.78 1.01.82-.23 1.13-1 1.01-1.78Zm6.5 9.95c1.04-1.24 1.95-2.59 2.99-3.84 1.04-1.26 2.16-2.45 3.34-3.58 1.1-1.05 2.24-2.07 3.45-2.99.64-.49 1.3-.96 2.01-1.35s1.6-.47 2.33-.88c1.26-.71 1.06-2.86-.42-3.18-1.89-.41-3.9.94-5.34 2.04-1.45 1.11-2.84 2.3-4.13 3.58-1.22 1.21-2.35 2.5-3.41 3.85-1.11 1.42-2.31 2.98-3.06 4.62-.3.65-.24 1.39.37 1.84.53.39 1.41.44 1.88-.11Zm12.31 7.05s.14-.41.09-.28c-.05.14.11-.23.13-.27.13-.25.27-.5.43-.74.1-.14.19-.29.3-.42-.14.19.05-.05.1-.12a34.5 34.5 0 0 1 3.19-3.16c.23-.19.46-.38.69-.56.26-.21-.05.03.11-.09l.36-.27c.48-.35.96-.69 1.45-1.02.52-.34 1.05-.67 1.59-.98.7-.4 1.46-.74 1.89-1.46.32-.54.32-1.23 0-1.77-.34-.58-.88-.81-1.52-.87-.8-.08-1.69.48-2.37.87-.56.32-1.12.67-1.66 1.03-1.16.78-2.27 1.66-3.31 2.6-1.96 1.78-4.05 3.95-4.63 6.62-.18.84.25 1.81 1.15 2.02.89.2 1.74-.27 2.02-1.15Z"/></svg>