<?xml version="1.0" encoding="UTF-8"?><svg xmlns="http://www.w3.org/2000/svg" viewBox="0 0 180 180"><path d="M88.82 86.03c-.47-.12-.96-.15-1.44-.14-.97.04-1.92.3-2.79.72l.2-.18c-.38.2-.74.44-1.09.69-.56.38-1.07.83-1.51 1.35-.82.9-1.46 1.95-1.86 3.1-.76 2.19-.61 4.71.51 6.74 1.13 2.05 3.47 3 5.75 2.75 3.68-.4 7.07-3.39 7.29-7.23.19-3.32-1.7-6.91-5.07-7.8Z"/><path d="M89.35 84.1c-2.01-.45-3.93-.06-5.77.79.81 1.05 1.62 2.09 2.42 3.14l.2-.18c1.73-1.55-.48-4.23-2.42-3.14-3.41 1.9-5.75 5.36-5.92 9.3-.16 3.75 1.75 7.4 5.39 8.67 3.13 1.1 6.66-.01 9.14-2.04 2.5-2.04 3.81-5.24 3.41-8.44-.46-3.7-2.78-7.05-6.47-8.09-2.48-.7-3.54 3.15-1.06 3.86.58.16.67.19 1.23.54.36.23.62.47 1.04.94.22.25-.14-.2.07.07.06.08.12.17.18.25.15.23.29.46.42.7a13 13 0 0 1 .22.46c.11.29.2.58.28.88l.09.4c0 .04.08.46.05.24s.02.2.02.24c.01.14.02.27.02.41.02.71.01.87-.13 1.45-.22.88-.71 1.77-1.27 2.38-.19.2-.39.4-.6.59-.1.09-.21.19-.32.27.07-.06.23-.16-.1.06-.23.16-.47.31-.71.44-.12.07-.25.13-.37.2l-.19.09c.13-.05.12-.05 0 0-1.08.44-1.94.59-2.87.47-.97-.12-1.76-.5-2.43-1.28-.49-.57-.95-1.93-1.01-2.8-.21-2.87 1.37-5.42 3.92-6.84-.81-1.05-1.62-2.09-2.42-3.14l-.2.18c-.73.66-.74 1.89-.16 2.63.66.82 1.65.95 2.58.52.82-.38 1.8-.59 2.69-.39 1.05.24 2.16-.32 2.46-1.4.28-1-.34-2.22-1.4-2.46Z"/><path d="M168.52 81.67c-4.53-3.1-9.07-6.19-13.6-9.29 5.03-5.82 10.05-11.64 15.08-17.46-8.01-.15-16.03.34-23.96 1.46 4.1-6.06 6.99-12.93 8.45-20.1-8.19 4.58-16.95 8.15-26 10.62-.99-7.09-1.98-14.19-2.96-21.28a253 253 0 0 0-20.21 20.45 88 88 0 0 0-14.87-20.92 75.3 75.3 0 0 0-11.18 22.11A54.7 54.7 0 0 0 63.48 33.5c-1.88 5.88-3.4 11.89-4.53 17.96l-1.02.57a131 131 0 0 0-22.39-16.67c.44 7.38 1.06 14.74 1.85 22.09a83.6 83.6 0 0 0-11.46-6.43 218 218 0 0 1 3.27 25.94 35.4 35.4 0 0 0-14.24-2.88 387 387 0 0 1 6.45 22.17c-3.79-.59-7.7-.35-11.39.7 2.76 4.56 5.53 9.12 8.29 13.68.18.29.36.61.32.95-.05.4-.39.68-.71.93-2.5 1.94-5 3.87-7.49 5.81a43.1 43.1 0 0 0 17.53 6.82l-10.98 11.25c7.53-.88 15.14-1.07 22.71-.58-1.12 5.81-2.25 11.63-3.37 17.44 11-4.28 21.55-9.72 31.42-16.2.12 6.98.23 13.96.35 20.94a149.8 149.8 0 0 0 33.19-29.15c2.13 6.27 4.25 12.54 6.38 18.81 3.11-1.96 5.24-5.11 7.27-8.18l13.8-20.76c5.19 3.94 10.39 7.87 15.58 11.81 1.16.88 2.74 1.79 3.97 1 .06-6.47.51-12.93 1.34-19.35.2-1.51.44-3.09 1.35-4.32.73-.99 1.82-1.65 2.87-2.28l13.32-7.95c-.69-2.85-4.75-3.35-6.37-5.8-1.37-2.07-.53-5 1.22-6.75s4.19-2.6 6.53-3.4ZM63.73 116.64c-.19.23-.49.33-.78.42-4.37 1.31-3.93 1-8.3 2.31a29.2 29.2 0 0 1-1.63-9.75c-6.82 1.68-17.1 3.34-24.05 4.32-.45.06-.97.11-1.31-.2-.22-.2-.31-.49-.39-.78-.62-2.14-1.23-4.28-1.85-6.43-.25-.88-.51-1.79-.33-2.69.15-.76.59-1.42 1.02-2.06 4.57-6.78 6.39-9.47 10.96-16.25l.93-.2c1.23 1.7 4.21 5.24 5.44 6.94.29.4.59.84.58 1.33 0 .51-.34.94-.66 1.34l-6.34 7.84c4.75-.94 9.5-1.89 14.24-2.83-.68-6.31-1.37-12.61-2.05-18.92 3.08-.86 6.24-1.42 9.42-1.65 1.81 11.79 3.82 24.29 5.32 36.34.04.32-.03.67-.23.91Zm40.39-22.32c-.54 9.46-8.88 16.81-17.93 17.79-5.61.61-11.37-1.72-14.15-6.76-2.76-5-3.14-11.19-1.27-16.58.96-2.76 2.5-5.29 4.44-7.47 1.2-1.46 2.64-2.72 4.24-3.74.74-.51 1.5-1 2.29-1.42l-.45.4c2.13-1.02 4.45-1.64 6.8-1.73 1.19-.05 2.39.03 3.55.33 8.29 2.2 12.94 11.01 12.47 19.18Zm45.79 5.55c-.19.23-.49.33-.78.42-4.37 1.31-3.93 1-8.3 2.31a29.2 29.2 0 0 1-1.63-9.75c-6.82 1.68-17.1 3.34-24.05 4.32-.45.06-.97.11-1.31-.2-.22-.2-.31-.49-.39-.78-.62-2.14-1.23-4.28-1.85-6.43-.25-.88-.51-1.79-.33-2.69.15-.76.59-1.42 1.02-2.06 4.57-6.78 6.39-9.47 10.96-16.25l.93-.2c1.23 1.7 4.21 5.24 5.44 6.94.29.4.59.84.58 1.33 0 .51-.34.94-.66 1.34l-6.34 7.84c4.75-.94 9.5-1.89 14.24-2.83-.68-6.31-1.37-12.61-2.05-18.92 3.08-.86 6.24-1.42 9.42-1.65 1.81 11.79 3.82 24.29 5.31 36.34.04.32-.03.67-.23.92Z"/><path d="M169.53 79.95c-4.53-3.1-9.07-6.19-13.6-9.29.13 1.05.27 2.09.4 3.14 5.03-5.82 10.05-11.64 15.08-17.46 1.11-1.29.4-3.38-1.41-3.41-8.2-.14-16.37.4-24.49 1.53.75.98 1.51 1.96 2.26 2.94a58.1 58.1 0 0 0 8.65-20.58c.35-1.69-1.36-3.14-2.94-2.26-8.07 4.49-16.62 7.97-25.53 10.42.82.47 1.64.93 2.46 1.4-.99-7.09-1.98-14.19-2.96-21.28-.22-1.6-2.36-1.77-3.34-.88a257 257 0 0 0-20.21 20.45c1.05.13 2.09.27 3.14.4-4-7.8-9.13-14.98-15.18-21.32-.96-1.01-2.41-.6-3.14.4-5 6.85-8.83 14.5-11.38 22.58 1.11-.29 2.23-.59 3.34-.88-4.45-5.67-9.97-10.44-16.2-14.07-1.15-.67-2.55-.03-2.94 1.2-1.87 5.89-3.38 11.88-4.53 17.96l.92-1.2-1.02.57c.81.1 1.62.21 2.42.31a135.5 135.5 0 0 0-22.8-16.98c-1.25-.74-3.1.19-3.01 1.73.45 7.38 1.06 14.74 1.85 22.09l3.01-1.73a87 87 0 0 0-11.46-6.43c-1.63-.76-3.27.48-2.94 2.26 1.57 8.4 2.63 16.88 3.2 25.41 1-.58 2.01-1.15 3.01-1.73-4.86-2.06-9.97-3.16-15.25-3.15-1.25 0-2.33 1.28-1.93 2.53q3.54 10.995 6.45 22.17l2.46-2.46c-4.19-.62-8.36-.43-12.45.7-1.23.34-1.87 1.83-1.2 2.94 2.29 3.78 4.58 7.55 6.86 11.33.3.5.6 1 .91 1.5l.26.43c.27.66.41.56.42-.31-.1-.02-.97.76-1.03.8-.46.36-.92.71-1.38 1.07l-5.33 4.13c-1.09.84-.54 2.51.4 3.14 5.42 3.6 11.58 6.02 18.01 7.02l-.88-3.34-10.98 11.25c-1.1 1.13-.39 3.62 1.41 3.41 7.54-.87 15.13-1.06 22.71-.58l-1.93-2.53c-1.12 5.81-2.25 11.63-3.37 17.44-.26 1.34.91 3.06 2.46 2.46 11.17-4.36 21.86-9.83 31.9-16.4l-3.01-1.73c.12 6.98.23 13.96.35 20.94.02 1.46 1.7 2.57 3.01 1.73 12.56-8.12 23.91-18.05 33.59-29.46l-3.34-.88c2.13 6.27 4.25 12.54 6.38 18.81.39 1.16 1.8 1.94 2.94 1.2 4.85-3.16 7.76-8.54 10.89-13.25 3.63-5.47 7.27-10.93 10.9-16.4-.91.24-1.82.48-2.74.72 3.57 2.71 7.14 5.41 10.71 8.12 1.73 1.31 3.42 2.7 5.2 3.93 1.74 1.21 3.69 1.76 5.66.76.62-.32.98-1.05.99-1.73.04-3.56.18-7.11.45-10.66.25-3.36.36-6.95 1.18-10.22.38-1.53 1.29-2.32 2.59-3.13 1.5-.92 3.01-1.8 4.52-2.7 3.05-1.82 6.11-3.64 9.16-5.46.75-.45 1.17-1.4.92-2.26-.51-1.76-1.74-2.95-3.24-3.93-1.12-.73-2.7-1.31-3.42-2.5-.82-1.35 0-3.16 1-4.18 1.51-1.52 3.67-2.21 5.65-2.88 2.42-.83 1.38-4.69-1.06-3.86-4.55 1.55-10.2 4.25-9.9 9.97.13 2.4 1.45 4.14 3.37 5.46 1.16.8 3.31 1.49 3.74 2.98.31-.75.61-1.51.92-2.26-3.33 1.99-6.66 3.97-9.99 5.96-3.04 1.82-6.62 3.35-7.88 6.92-.59 1.68-.7 3.56-.9 5.32-.23 1.93-.42 3.86-.58 5.79-.31 3.87-.48 7.75-.52 11.63l.99-1.73c-.41.21-1.31-.55-1.62-.76-.78-.54-1.52-1.14-2.27-1.72-1.49-1.13-2.99-2.26-4.48-3.39-3.05-2.31-6.1-4.62-9.15-6.94-.9-.68-2.2-.09-2.74.72l-10.35 15.57c-1.6 2.41-3.17 4.86-4.83 7.23-1.44 2.06-3.05 4.04-5.17 5.42l2.94 1.2c-2.13-6.27-4.25-12.54-6.38-18.81-.44-1.31-2.3-2.11-3.34-.88-9.46 11.15-20.5 20.89-32.79 28.83 1 .58 2.01 1.15 3.01 1.73-.12-6.98-.23-13.96-.35-20.94-.02-1.45-1.7-2.58-3.01-1.73-9.73 6.37-20.1 11.76-30.94 16l2.46 2.46c1.12-5.81 2.25-11.63 3.37-17.44.26-1.33-.56-2.44-1.93-2.53-7.57-.48-15.17-.29-22.71.58.47 1.14.94 2.28 1.41 3.41l10.98-11.25c.96-.98.67-3.1-.88-3.34a42.6 42.6 0 0 1-17.06-6.62c.13 1.05.27 2.09.4 3.14 2.1-1.63 4.21-3.26 6.31-4.89.89-.69 1.94-1.32 2.32-2.45.36-1.08 0-2.05-.56-2.98-2.67-4.52-5.44-8.98-8.16-13.47l-1.2 2.94c3.36-.92 6.87-1.21 10.32-.7 1.47.22 2.88-.85 2.46-2.46q-2.895-11.175-6.45-22.17l-1.93 2.53c4.53 0 9.05.83 13.23 2.6 1.27.54 3.12-.04 3.01-1.73-.59-8.88-1.71-17.72-3.34-26.47l-2.94 2.26c3.98 1.86 7.8 4 11.46 6.43 1.19.79 3.17-.23 3.01-1.73-.78-7.35-1.4-14.71-1.85-22.09l-3.01 1.73c7.89 4.67 15.25 10.14 21.99 16.35.67.62 1.62.76 2.42.31 1.14-.63 1.81-1.06 2.08-2.46a152 152 0 0 1 4.4-17.26l-2.94 1.2c5.96 3.47 11.14 8.02 15.39 13.44.99 1.26 2.94.4 3.34-.88 2.45-7.77 6.17-15.05 10.98-21.63l-3.14.4c5.83 6.1 10.71 13 14.56 20.51.57 1.1 2.32 1.34 3.14.4 6.35-7.19 13.1-14.01 20.21-20.45l-3.34-.88c.99 7.09 1.98 14.19 2.96 21.28.15 1.07 1.53 1.65 2.46 1.4 9.22-2.53 18.12-6.18 26.48-10.82-.98-.75-1.96-1.51-2.94-2.26a55.5 55.5 0 0 1-8.25 19.62c-1.09 1.62.71 3.15 2.26 2.94 7.76-1.08 15.6-1.52 23.42-1.39l-1.41-3.41c-5.03 5.82-10.05 11.64-15.08 17.46-.88 1.02-.71 2.38.4 3.14 4.53 3.1 9.07 6.19 13.6 9.29 2.13 1.46 4.13-2.01 2.02-3.45Z"/><path d="M62.32 115.22c.23-.19.11-.17-.35.04l-.8.24c-.33.1-.66.19-.99.28-.6.17-1.2.32-1.8.48-1.43.36-2.84.76-4.26 1.18.82.47 1.64.93 2.46 1.4-1.02-3-1.55-6.05-1.56-9.22 0-1.33-1.27-2.24-2.53-1.93-6.81 1.66-13.77 2.79-20.7 3.83-.78.12-1.56.23-2.33.34-.08.01-.81.06-.83.11l.29.23c.29.32.36.32.22 0 .04-.23-.2-.69-.26-.92-.58-2.03-1.37-4.09-1.75-6.17-.32-1.69 1.49-3.45 2.38-4.77s1.84-2.73 2.76-4.1c2.18-3.23 4.36-6.47 6.54-9.7-.4.31-.8.61-1.2.92l.93-.2-2.26-.92c1.64 2.24 3.49 4.33 5.15 6.55.17.22.33.49.5.7.2-.36.21-.38.02-.06l-.3.37c-.68.89-1.41 1.74-2.11 2.61-1.31 1.62-2.62 3.24-3.93 4.85s-.1 3.75 1.95 3.34c4.75-.94 9.5-1.89 14.24-2.83.78-.15 1.56-1.11 1.47-1.93-.68-6.31-1.37-12.61-2.05-18.92-.49.64-.98 1.29-1.47 1.93 2.92-.8 5.87-1.34 8.89-1.58-.64-.49-1.29-.98-1.93-1.47.93 6.03 1.87 12.05 2.77 18.08.45 2.97.88 5.95 1.3 8.92.21 1.5.42 3.01.62 4.51.11.8.21 1.59.31 2.39l.12.95c.01.09.06 1.05.17.86-1.27 2.24 2.19 4.26 3.45 2.02.78-1.37.39-2.82.2-4.31-.22-1.7-.45-3.39-.68-5.09-.45-3.3-.93-6.59-1.42-9.88-.97-6.51-1.99-13.02-2.99-19.52-.12-.8-1.13-1.53-1.93-1.47-3.37.27-6.7.83-9.95 1.72-.77.21-1.56 1.07-1.47 1.93.68 6.31 1.37 12.61 2.05 18.92.49-.64.98-1.29 1.47-1.93-4.75.94-9.5 1.89-14.24 2.83.65 1.11 1.3 2.23 1.95 3.34l4.83-5.97c1.36-1.69 3.37-3.48 2.51-5.85-.56-1.53-1.96-2.89-2.97-4.15-1.04-1.29-2.1-2.57-3.08-3.9-.56-.76-1.31-1.12-2.26-.92-.65.14-1.32.22-1.82.71-.83.83-1.43 2.07-2.09 3.03-1.11 1.64-2.22 3.29-3.32 4.93-1.06 1.58-2.13 3.15-3.19 4.73-1.24 1.83-2.87 3.7-3.66 5.77-.91 2.37.23 4.94.89 7.23.57 1.97.83 5.29 3.13 6.01.95.3 1.98.05 2.93-.09l3.07-.45c2.11-.32 4.22-.66 6.33-1.01 4.63-.78 9.25-1.62 13.81-2.74l-2.53-1.93c.01 3.5.57 6.97 1.7 10.29.34 1.01 1.37 1.72 2.46 1.4 1.55-.46 3.12-.89 4.69-1.29 1.74-.45 3.9-.75 5.28-1.95 1.95-1.69-.89-4.51-2.83-2.83Zm39.8-20.9c-.57 8.38-8.25 15.23-16.48 15.84-4.25.31-8.83-1.21-11.3-4.87-2.78-4.13-3.36-9.64-2.13-14.39 1.47-5.68 5.47-10.24 10.54-13.04l-2.42-3.14-.45.4c-1.8 1.61.49 4.04 2.42 3.14 2.78-1.29 6.15-1.97 9.15-1.1 2.35.68 4.4 2.03 6.07 3.81 3.34 3.56 4.83 8.54 4.59 13.35-.13 2.57 3.87 2.57 4 0 .3-6.06-1.87-12.37-6.23-16.66-2.17-2.14-4.94-3.8-7.92-4.5-3.93-.93-8.08-.03-11.67 1.65.81 1.05 1.62 2.09 2.42 3.14l.45-.4c1.73-1.55-.48-4.21-2.42-3.14-5.49 3.03-9.83 7.87-11.9 13.83-2 5.75-1.56 12.35 1.27 17.75 2.61 4.98 7.82 7.85 13.34 8.19 5.24.32 10.53-1.71 14.61-4.9 4.67-3.66 7.66-9.02 8.06-14.95.17-2.57-3.83-2.56-4 0Zm46.38 4.13c.23-.19.11-.17-.35.04l-.8.24c-.33.1-.66.19-.99.28-.6.17-1.2.32-1.8.48-1.43.36-2.84.76-4.26 1.18.82.47 1.64.93 2.46 1.4-1.02-3-1.55-6.05-1.56-9.22 0-1.33-1.27-2.24-2.53-1.93-6.81 1.66-13.77 2.79-20.7 3.83-.78.12-1.56.23-2.33.34-.08.01-.81.06-.83.11l.29.23c.29.32.36.32.22 0 .04-.23-.2-.69-.26-.92-.58-2.03-1.37-4.09-1.75-6.17-.32-1.69 1.49-3.45 2.38-4.77s1.84-2.73 2.76-4.1c2.18-3.23 4.36-6.47 6.54-9.7l-1.2.92.93-.2-2.26-.92c1.64 2.24 3.49 4.33 5.15 6.55.17.22.33.49.5.7.2-.36.21-.38.02-.06l-.3.37c-.68.89-1.41 1.74-2.11 2.61-1.31 1.62-2.62 3.24-3.93 4.85s-.1 3.75 1.95 3.34c4.75-.94 9.5-1.89 14.24-2.83.78-.15 1.56-1.11 1.47-1.93-.68-6.31-1.37-12.61-2.05-18.92-.49.64-.98 1.29-1.47 1.93 2.92-.8 5.88-1.34 8.89-1.58l-1.93-1.47c.93 6.03 1.87 12.05 2.77 18.08.45 2.97.88 5.95 1.3 8.92.21 1.5.42 3.01.62 4.51.11.8.21 1.59.31 2.39l.12.95c.01.09.06 1.05.17.86-1.27 2.24 2.19 4.26 3.45 2.02.78-1.37.39-2.82.2-4.31-.22-1.7-.45-3.39-.68-5.09-.45-3.3-.93-6.59-1.42-9.88-.97-6.51-1.99-13.02-2.99-19.52-.12-.8-1.13-1.53-1.93-1.47-3.37.27-6.7.83-9.95 1.72-.77.21-1.56 1.07-1.47 1.93.68 6.31 1.37 12.61 2.05 18.92l1.47-1.93c-4.75.94-9.5 1.89-14.24 2.83.65 1.11 1.3 2.23 1.95 3.34l4.83-5.97c1.36-1.69 3.37-3.48 2.51-5.85-.56-1.53-1.96-2.89-2.97-4.15s-2.1-2.57-3.08-3.9c-.56-.76-1.31-1.12-2.26-.92-.65.14-1.32.22-1.82.71-.83.83-1.43 2.07-2.09 3.03-1.11 1.64-2.22 3.29-3.32 4.93-1.06 1.58-2.13 3.15-3.19 4.73-1.24 1.83-2.87 3.7-3.66 5.77-.91 2.37.23 4.94.89 7.23.57 1.97.83 5.29 3.13 6.01.95.3 1.98.05 2.93-.09l3.07-.45c2.11-.32 4.22-.66 6.33-1.01 4.63-.78 9.25-1.62 13.81-2.74l-2.53-1.93c.01 3.5.57 6.97 1.7 10.29.34 1.01 1.37 1.72 2.46 1.4 1.55-.46 3.12-.89 4.69-1.29 1.74-.45 3.9-.75 5.28-1.95 1.95-1.69-.89-4.51-2.83-2.83Z"/></svg>