<?xml version="1.0" encoding="UTF-8"?><svg xmlns="http://www.w3.org/2000/svg" viewBox="0 0 180 180"><path d="M103.94 45.78c-12.38 4.62-24.8 9.11-37.1 13.94-12.17 4.78-24.25 9.81-36.23 15.06-1.5.66-2.99 1.31-4.48 1.97-1.21.54-2.41 1.08-3.35 2.04-2.08 2.1-1.6 5.18-1.5 7.86.22 5.84.65 11.67 1.05 17.5.2 2.89.42 5.78.6 8.67.16 2.59.41 5.2.17 7.79-.21 2.21-.29 4.7 1.74 6.13 1.65 1.17 3.59 2.18 5.4 3.1 2.02 1.02 4.71 1.26 6.93.9 2.38-.38 4.37-2.03 6.53-2.98 2.98-1.31 5.96-2.6 8.93-3.93 11.98-5.37 23.75-11.21 35.41-17.24 11.56-5.98 23.02-12.15 34.48-18.29 5.84-3.13 11.67-6.25 17.51-9.38 2.72-1.46 5.7-2.73 8.24-4.48 2.73-1.87 2.79-4.88 3.09-7.89a336 336 0 0 0 1.56-24.51c.04-1.69.29-3.55-.01-5.23-.61-3.39-4.19-2.88-6.69-3.88-1.26-.5-2.32-1.45-3.63-1.8-1.58-.43-2.94.16-4.39.73-2.76 1.08-5.51 2.16-8.27 3.22-5.67 2.19-11.34 4.35-17 6.55-2.7 1.05-5.39 2.12-8.08 3.21-.94.38-1.58 1.24-1.3 2.29.24.9 1.35 1.66 2.29 1.3 10.57-4.11 21.22-8.02 31.8-12.1.61-.23 1.22-.47 1.82-.71.52-.2 1.21-.63 1.78-.67.51-.04.87.32 1.29.57.71.43 1.46.78 2.23 1.09 1.22.5 2.45.76 3.74.98.12.02.58.05.72.15-.42-.29-.11-.17-.19.16-.19.77-.03 1.87-.05 2.66-.14 6.29-.46 12.57-.96 18.83-.24 3.05-.52 6.1-.85 9.14-.12 1.11-.23 2.02-1.21 2.67-1.19.78-2.53 1.38-3.78 2.06-5.54 2.97-11.09 5.94-16.63 8.91-10.86 5.82-21.71 11.67-32.61 17.39-10.91 5.73-21.89 11.32-33.03 16.57a689 689 0 0 1-16.85 7.64c-1.2.53-2.42 1.02-3.54 1.71-.82.5-1.62 1.14-2.54 1.43-1.19.37-2.53.04-3.76.02-.23 0-.57-.14 0 .02-.13-.04-.27-.05-.4-.09s-.62-.25-.12-.03c-.26-.12-.52-.25-.77-.38-.66-.35-1.3-.72-1.95-1.09-.47-.27-.94-.55-1.41-.82-.44-.26-1.31-.57-1.62-.95-.38-.47-.15-1.61-.11-2.15.08-1.04.2-2.05.18-3.09-.05-2.62-.14-5.24-.25-7.86-.24-5.56-.62-11.12-.93-16.67-.15-2.65-.28-5.31-.36-7.96-.03-1.06-.18-2.28.09-3.31s1.42-1.4 2.33-1.81c22.49-10.07 45.28-19.52 68.19-28.62 2.89-1.15 5.78-2.28 8.69-3.36 1.84-.69 1.04-3.66-.82-2.97Z"/><path d="M150.15 35.95c-7.81 3.08-15.46 6.52-23.2 9.77-8.22 3.45-16.46 6.87-24.7 10.29-8.28 3.44-16.56 6.91-24.77 10.52-6.68 2.93-13.28 6.03-19.97 8.91-3.51 1.51-7.03 3-10.55 4.49-1.99.84-3.97 1.68-5.96 2.52-1.17.5-2.33.99-3.5 1.49-.58.25-1.16.49-1.74.74-.22.1-.45.19-.67.29-.2.09-.41.18-.62.26-1.05.34-.61 1.2 1.34 2.58h-3.12c-.56-.75-.04-1.65-.34-.66-.13.43-.26.84-.35 1.28-.17.88-.25 1.79-.26 2.69-.01 1.72.26 3.42.41 5.13.33 3.87.46 7.75.56 11.63s.14 7.62.22 11.42c.07 3.57-.02 7.18 1.52 10.48.99 2.12 4.13.28 3.14-1.84-1.41-3.02-.99-6.89-1.05-10.13-.07-3.89-.12-7.78-.24-11.67s-.25-7.49-.64-11.21c-.18-1.69-.43-3.44-.23-5.14.12-1.06 1.14-2.79.37-3.8-.82-1.08-2.32-1.23-3.12 0-1.07 1.66.88 3.2 2.46 2.8 1.05-.27 2.08-.86 3.07-1.29 1.12-.49 2.24-.97 3.36-1.46 3.72-1.61 7.44-3.21 11.16-4.81 6.38-2.75 12.72-5.56 19.04-8.44 17.11-7.79 34.57-14.78 51.9-22.08 9.24-3.89 18.59-7.72 27.38-12.57 1.15-.64.36-2.69-.92-2.18Z"/><path d="M24.72 83.21c1.55.78 3.01 1.71 4.48 2.63.74.46 1.46.94 2.17 1.43.36.25.71.5 1.06.76.43.32.81.67 1.35.8 1.36.33 2.7-1.18 1.89-2.46-.54-.84-1.64-1.37-2.47-1.89-.76-.47-1.53-.93-2.31-1.36-1.54-.86-3.17-1.56-4.78-2.28-.65-.29-1.51-.21-1.88.49-.33.62-.19 1.54.49 1.88"/><path d="m26 83.17 4.19 4.75c.31.35.63.72.82 1.15.22.52.24 1.11.25 1.68.15 7.47.3 14.93.46 22.4.09 4.61.2 9.3 1.53 13.71-1.47-.8-2.94-1.61-4.41-2.41-.29-.16-.59-.32-.79-.58-.32-.4-.36-.95-.38-1.46-.68-12.8-1.83-25.57-3.43-38.28"/><path d="M24.92 84.25c1.24 1.51 2.5 3.01 3.73 4.53.55.69.72 1.08.75 1.97s.02 1.83.03 2.74c.04 3.9.14 7.8.22 11.7.15 7.32-.36 15.1 1.76 22.18l2.8-2.15c-.8-.43-1.61-.87-2.41-1.3-.59-.32-1.7-.66-2.15-1.17-.23-.26-.15-1.29-.18-1.82a537 537 0 0 0-.98-14.26c-.62-7.53-1.37-15.06-2.33-22.55-.13-1.03-.79-1.91-1.91-1.91-.94 0-2.04.88-1.91 1.91 1 8.16 1.9 16.32 2.55 24.51.33 4.09.61 8.19.84 12.29.1 1.79.03 3.63 1.63 4.79 1.51 1.09 3.32 1.89 4.95 2.79 1.43.79 3.26-.52 2.8-2.15-1.04-3.64-1.31-7.36-1.41-11.13-.11-4.01-.17-8.02-.26-12.03s-.16-7.96-.29-11.95c-.06-1.88-.4-3.16-1.7-4.56-1.44-1.54-2.9-3.07-4.35-4.6-1.37-1.45-3.38.67-2.15 2.15Zm22.54-22.72c-.02 2.36-.08 4.72-.05 7.08.04 2.22-.35 5.44 2.45 6.14 1.04.26 2.45.23 3.39-.31 1.13-.65 1.55-1.9 1.5-3.14-.09-2.25-.43-4.5-.69-6.74-.07-.63-.15-1.25-.22-1.88-.09-.74-.07-1.54-.55-2.15-.54-.69-1.36-.8-2.18-.89-.69-.08-1.42-.05-2.09.14-1.86.52-1.55 3.53.47 3.44.37-.02.74-.06 1.11-.06.17 0 .34 0 .51.03h-.07c.28.07.27.05-.04-.06l-.64-.64c-.14-.56-.18-.64-.12-.26l.06.44c.03.22.06.44.08.66.07.52.13 1.03.2 1.55.13 1.04.26 2.07.36 3.11.1.96.19 1.93.25 2.9.02.25.03.49.03.74 0 .28-.03.08.06-.07q.075-.105.18-.18c.16-.06.17-.08.05-.05-.13.03-.1.02.07 0h-.33c-.03 0-.54-.01-.54-.02 0-.1.34.26.33.25.05.16.06.18.02.06q-.045-.12-.06-.24-.06-.315 0-.03c0-.08-.01-.17-.02-.25-.06-1.03-.08-2.07-.14-3.1-.12-2.17-.3-4.34-.44-6.5-.05-.79-.64-1.47-1.47-1.47s-1.46.67-1.47 1.47Z"/><path d="M59.11 57.44c-5.99 1.74-12.15 1.94-17.92-.67-.24-.11-.47-.22-.7-.35-.08-.04-.64-.4-.49-.28-.21-.16-.69-.89-.85-1.45-.45-1.58-.04-3.08-.08-4.66 0-.06.12-.39.09-.42-.05-.04-.4.39-.39.41.06.08 1.02.24 1.17.28 1.06.3 2.13.58 3.2.84 2.15.51 4.34.91 6.54 1.03 4.59.26 9.16-.94 12.86-3.71l-2.63-.69c1.12 2.02 1.62 4.36 1.26 6.66-.16 1.03.26 2.08 1.35 2.37.91.25 2.22-.31 2.37-1.35.51-3.37 0-6.64-1.66-9.63-.46-.83-1.81-1.3-2.63-.69-3.88 2.9-8.46 3.68-13.2 2.95-2.46-.38-4.79-1.17-7.2-1.75-2.12-.52-4.26.1-4.88 2.4-.95 3.54-.91 8.49 2.34 10.84 2.33 1.69 5.71 2.67 8.55 2.98 2.31.24 4.75.17 7.04-.28s4.44-1.33 6.6-2.11c1.69-.61 1.02-3.24-.75-2.73Z"/><path d="M40.48 48.82c.61-3.49 1.51-6.96 2.27-10.42.27-1.23.31-2.83 1.61-3.4 1.36-.6 2.98-.85 4.46-.92 1.54-.07 3.06.07 4.55.46.7.18 1.48.38 2.11.74.54.31.62.68.76 1.27.4 1.74.72 3.5 1.09 5.25s.62 3.64 1.26 5.31c.31.8.99 1.37 1.89 1.23.81-.12 1.53-.82 1.49-1.69-.1-2.23-.76-4.49-1.23-6.67-.4-1.87-.59-3.99-1.38-5.74-.85-1.88-2.77-2.63-4.64-3.17-1.9-.55-3.93-.79-5.9-.7-1.96.08-3.95.44-5.77 1.18-1.92.78-2.98 2.21-3.48 4.19-1.06 4.19-1.48 8.42-2.02 12.69-.21 1.66 2.64 2.05 2.93.4Z"/><path d="M41.82 35.01c-1.14 1.9.43 3.58 2.17 4.23 1.75.65 3.79.7 5.64.71s3.73.07 5.49-.44c1.72-.5 3.56-1.8 3.47-3.8s-2.86-1.9-2.95 0c-.03.7-1.49.98-2.03 1.07-1.17.2-2.41.16-3.59.17-1.25.01-2.53 0-3.77-.21-.56-.1-1.14-.2-1.68-.38-.18-.06-.3-.11-.47-.2a.43.43 0 0 1-.14-.23c-.02.27 0 .27.07.02.49-1.31-1.53-2.08-2.21-.93Zm16.46 43.22a649 649 0 0 1-20.26 49.53c5.99-3.01 11.99-6.01 17.98-9.02.97-.48 1.96-.99 2.68-1.79.68-.75 1.08-1.71 1.46-2.64 6.27-15.2 12.53-30.41 18.8-45.61-6.46 3.23-13.11 6.06-19.91 8.49"/><path d="M56.77 77.82c-6.32 16.51-13.06 32.9-20.39 48.99-.79 1.73.83 3.5 2.61 2.61 4.53-2.28 9.06-4.55 13.58-6.84 2.09-1.06 4.41-1.97 6.3-3.35s2.59-3.29 3.43-5.34c3.92-9.52 7.84-19.05 11.78-28.56 2.23-5.37 4.46-10.74 6.71-16.11.71-1.69-1.49-2.8-2.81-2.16-6.33 3.1-12.83 5.88-19.47 8.27-2.33.84-1.33 4.58 1.03 3.74 6.97-2.48 13.77-5.37 20.36-8.71-.94-.72-1.87-1.44-2.81-2.16-3.71 9.16-7.44 18.3-11.21 27.43-1.9 4.61-3.8 9.21-5.7 13.82-.44 1.07-.89 2.15-1.33 3.22-.38.92-.71 1.95-1.3 2.76s-1.48 1.2-2.32 1.62c-1.08.54-2.17 1.08-3.26 1.62-4.98 2.47-9.96 4.96-14.93 7.44l2.61 2.61c7.51-16.37 14.3-33.03 20.13-50.08.66-1.94-2.32-2.69-3.03-.83Zm43.7-18.29c-6 15.32-11.93 31.7-18.81 47.17a57.5 57.5 0 0 1 15.9-8.29c1.35-.45-5.39 2.88-4.54 1.74.58-.77 4.72-1.01 5.05-1.91 4.65-12.7 13.09-33.16 18.6-45.63-5.43 2.54-9.34 4.48-14.98 6.5"/><path d="M99.15 58.76c-6.71 15.52-12.25 31.52-19.16 46.96-.36.8-.35 1.69.3 2.35.56.56 1.66.8 2.35.3 2.48-1.82 5.1-3.44 7.83-4.84 1.28-.65 2.58-1.28 3.91-1.83.74-.31 1.49-.6 2.25-.88.34-.13.69-.25 1.03-.37.86-.29.33.1-.46-.18l-1.38-2.43c.17-.28.34-.57.51-.86.64-.59-.06-.03-.35.12-.44.22-.88.44-1.33.64-.63.29-.58.28-1.12.47-.18.07-.39.11-.57.19-.07.02-.15.04-.22.05.41-.1.82-.04 1.21.18l.91 1.18.06.45-.27 1c-.07.15-.45.39-.43.39.23 0 .54-.17.78-.23.73-.19 1.47-.33 2.19-.54 1.68-.49 2.45-1.22 3.05-2.85 1.27-3.44 2.59-6.86 3.93-10.27a983 983 0 0 1 9.32-22.83c1.6-3.79 3.22-7.57 4.94-11.3.88-1.9-.89-3.64-2.78-2.78-4.81 2.18-9.52 4.5-14.49 6.3-2.43.88-1.39 4.78 1.08 3.9 5.3-1.88 10.41-4.25 15.47-6.69l-2.78-2.78c-4.13 9.77-8.3 19.51-12.25 29.35-1.88 4.68-3.73 9.37-5.5 14.1-.19.5-.38 1.01-.56 1.51-.02.06-.35.86-.32.88-.06-.04.4-.49.41-.52l.12-.04c-.14.05-.28.1-.43.15-.16.05-.32.09-.48.14-.52.14-1.05.25-1.57.37-1.65.4-4.35 1.63-3.07 3.82 1.09 1.85 3.42.68 4.85.06 1.28-.56 2.99-1.11 3.54-2.51.41-1.05-.46-2.1-1.38-2.43-1.11-.4-2.73.55-3.71.93-1.66.64-3.3 1.35-4.9 2.13-3.16 1.54-6.15 3.41-8.97 5.5l2.65 2.65c6.88-15.62 12.95-31.64 18.61-47.74.57-1.62-2.11-2.78-2.8-1.18Zm35.64-14.12c-5.72 14.81-11.74 29.52-18.04 44.09 4.53-3.47 5.76-4.86 10.94-7.23.51-5.12-.63 3.98 1.39-.75.45-1.05-2.54 3.93.93.88 3.45-3.04 11.69-27.26 13.47-31.5l1.11-2.64c1.26-3.01 2.56-6.07 4.64-8.58a50.8 50.8 0 0 1-13.75 7.49"/><path d="M133.3 44.22c-5.93 14.57-11.91 29.13-18.13 43.58-.33.76-.34 1.59.29 2.21.52.52 1.58.77 2.21.29 2.42-1.87 4.74-3.89 7.39-5.44.66-.39 1.34-.75 2.03-1.09.9-.45 2-.73 2.33-1.8.2-.64.15-1.43.21-2.09h-3.58c-.03 1.01-.12 2.19.42 3.09 1.63 2.67 4.24-.47 4.43-2.36.08-.78-.61-1.51-1.31-1.72-1.59-.49-2.65 1.48-2.98 2.75-.63 2.39 1.78 3.39 3.58 2.15 2.43-1.68 3.64-4.58 4.82-7.18 3.36-7.42 6.13-15.08 9-22.7.47-1.24.93-2.49 1.47-3.7 1.49-3.36 2.84-6.97 5.23-9.81.67-.8.85-1.9.16-2.76-.6-.75-1.86-1.17-2.72-.54-4.11 2.98-8.47 5.53-13.25 7.27-1.07.39-1.79 1.43-1.47 2.59.28 1.04 1.52 1.86 2.59 1.47 5.29-1.91 10.27-4.53 14.68-8.03-1.1-.85-2.2-1.7-3.31-2.55-2.9 3.75-4.49 8.47-6.16 12.85-1.01 2.65-1.96 5.32-2.93 7.98-2.38 6.47-4.62 13.17-7.95 19.23-.3.55-.61 1.09-.96 1.61-.08.12-.61.79-.26.38-.12.13-.23.27-.35.39-.2.2-.75.46-.91.7l2.23 1.43-.04.29s.08-.29.1-.34c.18-.41-.18.35.03-.07.06-.12.12-.23.18-.34.14-.29.39-.42 0-.08l-1.74.46c-.44-.57-.87-1.14-1.31-1.72.05-.64.09-.5-.14-.02-.05.09-.13.19-.16.29-.06.18.04-.17.07-.08-.09-.29 1.86-.27 2.41.33 0 0 .24.42.11.21-.05-.08 0 .39 0-.07s0-.92.01-1.38c.1-2.33-3.36-2.25-3.58 0-.05.54-.1 1.08-.16 1.62l.89-1.55c-4.09 1.87-7.41 4.49-10.96 7.21l2.5 2.5c6.39-14.71 12.44-29.55 17.96-44.6.69-1.89-2.25-2.63-2.98-.82Zm-87.68 79.43c-.57 8.15-.91 16.3-1.18 24.46-.14 4.34-.28 8.68-.47 13.01-.13 2.89-.74 7.2 1.58 9.42 2.53 2.41 7.63 1.56 8.92-1.74.6-1.54.56-3.27.59-4.89.03-1.33.16-2.65.26-3.97.37-5.27.45-10.56.45-15.84 0-8.88.02-17.78-.12-26.66-.04-2.38-3.67-2.39-3.7 0-.19 12.75.49 25.52-.04 38.27-.1 2.36-.29 4.71-.46 7.07-.1 1.4.07 2.87-.26 4.24-.26 1.04-1.21 1.2-2.24 1.06-1.25-.17-1.19-1.3-1.25-2.4-.09-1.52 0-3.05.07-4.57.19-4.02.32-8.05.47-12.07.3-8.46.49-16.93.57-25.4.02-2.07-3.04-2.03-3.19 0Z"/><path d="M126.78 86.14c-.57 8.15-.91 16.3-1.18 24.46-.14 4.34-.28 8.68-.47 13.01-.13 2.89-.74 7.2 1.58 9.42 2.53 2.41 7.63 1.56 8.92-1.74.6-1.54.56-3.27.59-4.89.03-1.33.16-2.65.26-3.97.37-5.27.45-10.56.45-15.84 0-8.88.02-17.78-.12-26.66-.04-2.38-3.67-2.39-3.7 0-.19 12.75.49 25.52-.04 38.27-.1 2.36-.29 4.71-.46 7.07-.1 1.4.07 2.87-.26 4.24-.26 1.04-1.21 1.2-2.24 1.06-1.25-.17-1.19-1.3-1.25-2.4-.09-1.52 0-3.05.07-4.57.19-4.02.32-8.05.47-12.07.3-8.46.49-16.93.57-25.4.02-2.07-3.04-2.03-3.19 0ZM89.37 26.59c-.38-3.04-.75-6.09-1.14-9.13-.06-.5-.16-.9-.53-1.27-.31-.31-.82-.55-1.27-.53-.88.04-1.92.8-1.8 1.8.37 3.04.76 6.09 1.14 9.13.06.49.16.9.53 1.27.31.31.82.55 1.27.53.87-.04 1.92-.8 1.8-1.8m41.95-3.1c1.04-2.16 2.09-4.32 3.13-6.48.5-1.04 1.01-2.08 1.51-3.13l.75-1.57c.35-.73.81-1.46.74-2.3-.11-1.19-1.42-2.3-2.6-1.49s-1.56 2.26-2.11 3.47c-.48 1.05-.97 2.11-1.45 3.16-1 2.19-2 4.37-3 6.56-.39.86-.24 1.88.63 2.39.77.45 1.98.23 2.39-.63Zm21.86 65.73c4.66.31 9.54.44 14.12-.59 1.79-.4 1.39-3.23-.43-3.19-2.29.05-4.55.31-6.83.43s-4.57.2-6.86.18c-.86 0-1.59.74-1.59 1.59 0 .91.73 1.53 1.59 1.59Zm-1.1 27.78c.76.39 1.63.6 2.47.79l1.06.24c.51.11 1.02.16 1.55.16.84.01 1.54-.65 1.65-1.46.05-.36 0-.76-.2-1.07l-.26-.34c-.21-.21-.46-.35-.74-.43-.34-.14-.67-.27-1.03-.34s-.74-.14-1.11-.21-.72-.11-1.08-.17c-.5-.07-.98-.18-1.49-.14-.68.04-1.38.46-1.54 1.17-.15.67.09 1.47.73 1.8ZM17.12 136.63c-1.31-.02-2.61-.03-3.92-.08-.46-.02-.98.22-1.31.54s-.56.85-.54 1.31.18.97.54 1.31.81.56 1.31.54c1.3-.05 2.61-.06 3.92-.08.46 0 .93-.19 1.25-.52.31-.31.54-.81.52-1.25-.04-.97-.78-1.76-1.77-1.77m4 23.13c-.84.43-1.64.94-2.39 1.51-.47.35-.93.72-1.36 1.11s-.79.92-1.12 1.41c-.22.32-.28.9-.17 1.26.11.35.3.63.59.85s.63.37.99.35c.46-.02.81-.19 1.16-.48.17-.14.35-.28.52-.42l-.35.27c.26-.2.55-.39.79-.62.15-.15.3-.29.46-.43.31-.28.64-.55.97-.81l-.35.27q.945-.735 1.98-1.32c.78-.44 1.11-1.57.61-2.34-.52-.81-1.49-1.06-2.34-.61Z"/><path d="M55.77 146.73c19.58-10.07 38.81-20.88 58.15-31.39 2.7-1.47 5.41-2.93 8.12-4.39 2.74-1.47 5.78-2.76 8.29-4.59.77-.56 1.16-1.43.77-2.35-.33-.79-1.34-1.43-2.22-1.09-2.61 1.01-5.04 2.6-7.49 3.95-2.4 1.33-4.8 2.66-7.2 3.97l-14.65 8.02-28.86 15.81c-5.54 3.03-11.06 6.1-16.52 9.26-1.8 1.04-.21 3.72 1.62 2.78Z"/></svg>