<?xml version="1.0" encoding="UTF-8"?><svg xmlns="http://www.w3.org/2000/svg" viewBox="0 0 180 180"><path d="M66.34 37.98c-15.46 8.6-30.25 18.35-45.41 27.46A496 496 0 0 1 8.9 72.45c-1.53.86-1.27 2.83 0 3.74 7.82 5.64 15.19 11.8 22.23 18.38v-3.2a44.2 44.2 0 0 0-5.67 8.04c-.6 1.1-.25 2.44.81 3.1a30.6 30.6 0 0 1 6 4.93v-3.22c-2.03 2.03-4.05 4.07-6.1 6.09-.9.88-.84 2.33 0 3.22 1.33 1.41 2.67 2.81 4.01 4.22v-3.25a81 81 0 0 1-9.85 9.23c-.83.66-.8 1.98-.37 2.83.86 1.68 2.18 3.03 3.8 4.01l-.84-3.22c-1.98 2.83-3.99 5.64-5.96 8.48-.7 1-.25 2.78.86 3.3 18.4 8.6 38.65 11.91 57.29 19.83 2.27.96 4.51 2.01 6.7 3.13 2.22 1.14 4.32 2.51 6.56 3.59 2.44 1.18 5.02 1.74 7.66.86 2.72-.91 5.33-2.35 7.93-3.55l31.59-14.58c11.88-5.48 23.76-10.97 35.65-16.45.99-.46 1.3-1.73 1.1-2.69-1.06-4.97-4.54-9.12-7.49-13.1-1.57-2.11-3.14-4.25-4.36-6.58-.45-.87-.83-1.75-1.1-2.69-.34-1.22-.53-1.99.31-2.98 1.61-1.88 3.05-3.69 3.94-6.05.5-1.31.77-2.69.88-4.09s-.16-2.76-.17-4.15c-.02-2.92.02-5.78-1.77-8.27-.82-1.14-1.92-2.09-2.57-3.35s-.2-1.83.57-2.86c.95-1.27 1.76-2.58 1.77-4.24.01-1.82-1-3.42-2.72-4.07s-3.75-.59-5.51-.71a84 84 0 0 0-5.94-.18l2.07 1.19a13.93 13.93 0 0 1-1.44-7.87c.15-1.37.7-2.69.68-4.08-.03-1.66-.9-3.09-2.32-3.93-.95-.56-2.13-.67-3.03-1.32-.66-.47-1.12-1.19-1.46-1.94-.84-1.89-1-4.06-1.09-6.1-.06-1.33-1.06-2.38-2.41-2.41-17.39-.43-34.79-1.36-52.12-2.92-4.95-.45-9.9-.95-14.85-1.49-1.33-.14-2.47 1.24-2.47 2.47 0 1.45 1.14 2.33 2.47 2.47 17.31 1.8 34.67 3.12 52.06 3.82 4.97.2 9.94.36 14.91.47l-2.41-2.41c.23 4.82 1.17 10.73 6.2 12.83.52.22 1.06.44 1.6.59.66.18.16.23.13-.02-.04-.3-.06.36-.08.44-.23 1.55-.64 3.01-.69 4.59-.1 3.22.71 6.38 2.17 9.23.38.74 1.26 1.19 2.07 1.19 1.59 0 3.17.03 4.76.11s3.2.38 4.78.4c.98.01-.32-.3-.15-.35 0 0-.64 1.2-.66 1.23-.79 1.1-1.62 2.1-1.9 3.47-.72 3.5 1.67 5.74 3.54 8.29 1.45 1.96.92 4.35 1.05 6.61.07 1.23.29 2.43.11 3.66s-.64 2.53-1.28 3.65c-1.03 1.79-2.84 3.08-3.67 4.96-1.13 2.54-.04 5.63 1.03 8.02.98 2.18 2.33 4.18 3.73 6.12 3.01 4.17 7.13 8.43 8.23 13.6l1.1-2.69c-20.68 9.55-41.37 19.08-62.05 28.62-2.56 1.18-5.11 2.36-7.67 3.54-1.96.91-4.44 2.62-6.7 2.1s-4.23-2.1-6.21-3.18a94 94 0 0 0-6.52-3.25c-9.02-4.11-18.49-7.02-27.98-9.82-10.62-3.14-21.33-6.19-31.4-10.88l.86 3.3c1.97-2.84 3.9-5.7 5.87-8.54.73-1.05.18-2.61-.84-3.22-.97-.57-1.61-1.31-2.13-2.31l-.37 2.83c3.52-2.82 6.79-5.92 9.8-9.28.84-.94.9-2.32 0-3.25-1.35-1.4-2.69-2.79-4.04-4.18v3.22c2.02-2.05 4.06-4.06 6.09-6.09.88-.88.85-2.33 0-3.22a35.4 35.4 0 0 0-6.93-5.62l.81 3.1c1.39-2.56 3.03-4.94 4.95-7.13.78-.89.94-2.32 0-3.2-7.31-6.8-15.13-13.11-23.24-18.93v3.74c15.38-8.74 30-18.8 45.01-28.13 3.94-2.45 7.91-4.86 11.93-7.18 1.87-1.08.2-3.95-1.7-2.9Z"/><path d="M10.7 74.88c17.93 5.52 36.97 5.64 55.34 8.97 4.55.82 9.07 1.83 13.51 3.13 2.29.67 4.39 1.49 6.67.28 2.08-1.1 3.98-2.78 5.88-4.16a634 634 0 0 0 22.88-17.47c8.4-6.72 16.63-13.65 24.67-20.79 2.07-1.84-.98-4.87-3.04-3.04-13.95 12.37-28.43 24.13-43.43 35.2-1.85 1.36-3.7 2.71-5.56 4.06-.89.64-1.78 1.3-2.68 1.92-.97.67-1.37.73-2.48.4-4.36-1.31-8.77-2.41-13.24-3.28-9-1.75-18.12-2.7-27.22-3.72-10.21-1.15-20.4-2.42-30.45-4.57-2.01-.43-2.83 2.48-.85 3.09Z"/><path d="M84.69 86.25c-.5 3.37-1.01 6.73-1.51 10.1a36 36 0 0 1 7.09 4.96c.35.32.72.67.83 1.13.14.55-.12 1.12-.36 1.63-1.56 3.25-3.12 6.5-4.68 9.74 1.97 1.4 3.94 2.8 5.92 4.2.52.37 1.07.79 1.22 1.41.19.77-.32 1.52-.8 2.15-2.32 3.04-4.63 6.08-6.95 9.13 2.43 1.11 4.85 2.23 7.28 3.34.47.22.99.48 1.15.97.15.46-.06.95-.28 1.38-.93 1.78-2.2 3.39-3.71 4.72.68 1.85 3.47 2.24 4.08 4.11.24.72.08 1.51-.11 2.25-.76 3.05-1.98 5.98-3.61 8.66 1.54.18 2.91 1.37 3.32 2.86s-.17 3.21-1.4 4.15c-10.02-7.97-22.2-12.77-34.49-16.35s-24.9-6.07-37.07-10.04c3.08-2.58 5.93-5.44 8.49-8.53-1.6.83-3.5-1.1-3.37-2.9s1.47-3.25 2.74-4.53c1.75-1.77 3.5-3.55 5.25-5.32.11-1.46-2.14-1.86-2.8-3.17-.72-1.43.77-2.94 2.08-3.88 1.3-.94 2.74-2.53 1.93-3.91-.18-.31-.46-.55-.74-.79-1.37-1.17-2.74-2.35-4.11-3.52 2.19-1.99 4.11-4.27 5.72-6.75.27-.42.54-.88.49-1.37-.04-.48-.38-.87-.7-1.23A42.3 42.3 0 0 0 20.8 80.31c-2.39-1.01-5.26-2.26-5.62-4.83"/><path d="M83.02 85.79c-.6 3.34-1.14 6.7-1.7 10.05-.14.84.09 1.73.89 2.18 1.39.78 2.73 1.63 4.02 2.56.63.45 1.23.93 1.82 1.43.25.21.52.57.82.71.2.31.29.35.27.13.02-.23-.02-.16-.12.2-.97 1.44-1.6 3.3-2.36 4.86s-1.57 3.24-2.36 4.86c-.52 1.07-.23 2.12.74 2.8 1.44 1.03 2.89 2.06 4.33 3.09.58.42 1.16.9 1.76 1.28.09-.37.09-.44-.01-.23-.08.16-.18.3-.29.45-.22.31-.48.61-.71.91-2.18 2.84-4.35 5.68-6.52 8.52-.66.87-.19 2.5.77 2.95 1.43.66 2.85 1.31 4.28 1.97.64.3 1.28.59 1.93.89.36.16.72.32 1.07.49l.28.14c.4.24.37.2-.08-.12v-1.15c-.26 1.81-2.19 3.63-3.48 4.79-.78.7-.72 1.77-.34 2.63.5 1.13 1.48 1.9 2.48 2.58.64.43 1.45.72 1.4 1.49-.09 1.46-.82 3.11-1.35 4.46-.59 1.5-1.34 2.92-2.16 4.3-.66 1.11-.1 2.95 1.29 3.18 1.89.32 2.44 2.13.96 3.39h3.06c-15.91-12.56-35.96-17.17-55.19-22.06-5.82-1.48-11.62-3.02-17.33-4.87.32 1.2.63 2.4.95 3.61 3.08-2.59 5.92-5.44 8.49-8.53.62-.74.85-1.73.34-2.62-.44-.75-1.57-1.35-2.44-.99-.77.32-.63-1-.44-1.45.65-1.49 2.19-2.67 3.3-3.8l2.1-2.13c.68-.69 1.6-1.37 2.09-2.21.87-1.49-.16-3.26-1.35-4.19-.39-.31-.81-.61-1.21-.89-.53-.37.01-.17-.14-.01-.08.09.41-.47.45-.51 1.1-1.21 2.55-1.9 3.37-3.4 2.21-4-2.53-6.68-5.11-8.89v3.06a37 37 0 0 0 3.92-4.22c1.03-1.31 2.44-2.83 2.83-4.49.47-2-.96-3.45-2.23-4.76a41 41 0 0 0-3.84-3.5c-2.74-2.21-5.69-4.13-8.88-5.63-1.94-.92-5.69-1.75-6.18-4.21-.23-1.13-1.56-1.77-2.61-1.48-1.2.33-1.68 1.48-1.48 2.61.48 2.81 2.94 4.5 5.36 5.6 2.82 1.29 5.57 2.56 8.16 4.29s5.01 3.82 7.13 6.14c.19.2.37.65.37.2 0-.56-.46.45-.59.64-.43.64-.89 1.28-1.37 1.88-1.11 1.39-2.34 2.67-3.64 3.88-.81.75-.86 2.32 0 3.06.87.75 1.74 1.49 2.62 2.24.37.32.75.64 1.12.96.22.18.43.37.65.56.18.21.21.12.09-.25-.88 1.29-2.26 2.02-3.24 3.25-1.18 1.47-1.65 3.43-.59 5.12.44.71 1.09 1.21 1.76 1.68.2.14.46.37.68.47.39.18-.06.13-.07-.3l.63-1.53-4.9 4.96c-1.36 1.38-2.79 2.84-3.41 4.73s-.26 3.81 1.03 5.3c1.15 1.33 3.08 2.07 4.76 1.37-.7-1.2-1.4-2.4-2.1-3.61a68.4 68.4 0 0 1-8.49 8.53c-1.31 1.11-.47 3.14.95 3.61 18.95 6.15 39.22 8.67 57.23 17.54 4.71 2.32 9.25 5.04 13.37 8.3.98.77 2.08.83 3.06 0 3.84-3.25 2.12-9.78-2.87-10.63l1.29 3.18c1.02-1.71 1.87-3.49 2.6-5.34.68-1.74 1.41-3.67 1.51-5.55.09-1.67-.63-3.1-1.91-4.14-.85-.69-2.12-1.17-2.56-2.18l-.34 2.63c1.24-1.11 2.32-2.38 3.23-3.77s1.97-3.25 1.1-4.96c-.79-1.54-2.61-2.06-4.07-2.73-1.72-.78-3.43-1.56-5.15-2.35l.77 2.95c1.41-1.85 2.81-3.71 4.22-5.56 1.2-1.59 3.05-3.35 3.61-5.3.66-2.31-.77-3.75-2.51-4.98-1.84-1.3-3.69-2.6-5.53-3.89.25.93.49 1.87.74 2.8.99-2.07 1.97-4.14 2.96-6.21.87-1.84 2.5-4.09 2.32-6.19-.17-2.04-2.35-3.38-3.83-4.51-1.62-1.23-3.32-2.3-5.12-3.24l.96 1.67c.45-3.37.91-6.73 1.31-10.1.23-1.93-3.06-2.38-3.41-.46Zm30.55 19.79c1.19 1.34 2.6 2.7 4.42 3.09s3.33-.37 4.57-1.55c2.8-2.66 3.99-6.08 5.21-9.62h-3.3c.23.64-.23 1.53-.09 2.27.21 1.09 1 1.92 2.1 2.14 1.22.24 2.3-.38 3.31-.97l3.6-2.1c2.33-1.36 4.64-2.74 6.96-4.12 1.2-.71 2.39-1.42 3.59-2.12s2.6-1.39 3.63-2.42c1.18-1.18-.01-3.32-1.65-2.83-2.12.62-4.09 2.15-5.97 3.27s-3.65 2.17-5.48 3.26-3.65 2.18-5.47 3.28c-.49.3-.98.59-1.47.89l-.51.3c.56.83.83 1.03.84.57.32-.57.14-1.77-.08-2.32-.72-1.77-3.2-1.56-3.37.46-.19 2.38-1.7 4.98-3.17 6.81-.64.79-1.48 1.93-2.62 1.76s-2.14-1.38-2.88-2.19c-1.34-1.47-3.49.7-2.18 2.18Zm9.42 10.09c3.89-2.13 7.79-4.24 11.67-6.39 3.87-2.14 7.84-4.17 11.62-6.47 2.01-1.22.23-4.24-1.84-3.14-3.91 2.07-7.68 4.44-11.5 6.68s-7.64 4.5-11.45 6.76c-1.65.97-.18 3.48 1.5 2.56m4.5 9.87c2.07-1.29 4.15-2.57 6.33-3.67 1.07-.54 2.16-1.06 3.26-1.55s2.31-.89 3.38-1.52c.68-.4.97-1.28.66-2-.34-.77-1.08-1.07-1.89-.93-1.3.22-2.5.8-3.69 1.33s-2.32 1.07-3.45 1.68c-2.27 1.23-4.45 2.6-6.48 4.2-.6.47-.56 1.51-.12 2.05.47.59 1.34.82 2.02.4Z"/><path d="M50.66 78.19c15.9-12.97 32.28-25.38 49.15-37.06 1.94-1.34.06-4.54-1.85-3.17-13.15 9.41-26.06 19.13-38.68 29.25-3.62 2.9-7.22 5.84-10.8 8.81-1.53 1.27.66 3.42 2.18 2.18Zm72.28-49.93c.27-2.19.51-4.38.7-6.57.09-1.08.18-2.15.26-3.23.04-.54.07-1.08.11-1.62.05-.76-.1-1.37-.4-2.08-.49-1.14-2.32-1.02-2.85 0-.59 1.13-.5 2.33-.53 3.57a184 184 0 0 1-.13 3.35c-.11 2.19-.26 4.38-.44 6.57-.08.89.81 1.65 1.65 1.65.98 0 1.54-.76 1.65-1.65Zm14.08 4.32c2.13-2.71 4.29-5.4 6.36-8.16q1.485-1.98 2.94-3.99c.52-.71 1.03-1.42 1.54-2.14.55-.77 1.15-1.49 1.43-2.4.24-.79-.16-1.7-.86-2.11-.77-.45-1.61-.24-2.26.29s-1.11 1.42-1.58 2.13-.92 1.37-1.38 2.05c-.92 1.36-1.86 2.72-2.81 4.07-1.87 2.67-3.73 5.34-5.72 7.92-.54.7-.69 1.65 0 2.33.57.57 1.78.7 2.33 0Zm13.63 6.43c1.97-1.42 4.06-2.65 6.21-3.77 1.06-.55 2.14-1.07 3.24-1.55 1.18-.52 2.82-.94 3.46-2.16.53-1.01.07-2.2-1.04-2.55-1.43-.44-2.99.55-4.23 1.18-1.09.56-2.17 1.16-3.23 1.78-2.12 1.26-4.15 2.67-6.14 4.12-.74.54-1.11 1.48-.61 2.33.43.74 1.58 1.15 2.33.61Zm11.03 12.96.42-.42c.18-.17.31-.37.39-.61.12-.23.17-.47.16-.73 0-.26-.04-.5-.16-.73a1.5 1.5 0 0 0-.39-.61l-.38-.3c-.29-.17-.61-.26-.95-.26l-.5.07c-.32.09-.6.25-.83.49l-.42.42c-.18.17-.31.37-.39.61-.12.23-.17.47-.16.73 0 .26.04.5.16.73.08.23.21.44.39.61l.38.3c.29.17.61.26.95.26l.5-.07c.32-.09.6-.25.83-.49m-57.05-22.98c2.3 0 2.31-3.58 0-3.58s-2.31 3.58 0 3.58"/></svg>