<?xml version="1.0" encoding="UTF-8"?><svg xmlns="http://www.w3.org/2000/svg" viewBox="0 0 180 180"><path d="M113.97 46.79C97 45.56 77.05 49.05 60.62 53.45c-1.33.36-2.7.75-3.76 1.64s-1.72 2.4-1.2 3.68c-8.07-1.24-16.81-2.82-22.28-8.89-.5-.55-.98-1.17-1.09-1.91-.25-1.66 1.37-2.94 2.83-3.77 21.2-12.25 46.44-15.19 70.92-15.98 8.72-.28 21.69-.18 29.89 2.82.51.19 1.05.41 1.34.88.45.72.08 1.65-.31 2.41-2.35 4.61-6.5 8.25-10 11.17-2.98 2.49-11.02 8.32-12.99 1.31"/><path d="M113.97 45.28c-17.33-1.22-34.9 1.29-51.68 5.58-2.22.57-4.62 1.02-6.49 2.42-1.84 1.39-2.89 3.77-2.17 6.04l2.58-2.58c-5.1-.79-10.43-1.6-15.13-3.86-2.28-1.09-4.37-2.5-6.08-4.37-.72-.79-.76-1.06.08-1.77 1.09-.91 2.51-1.54 3.76-2.21 10.42-5.56 21.84-8.95 33.42-11.04 11.46-2.07 23.14-2.88 34.77-3.2 5.25-.15 10.51-.1 15.75.33 2.65.22 5.29.55 7.89 1.1 1.04.22 2.08.48 3.11.79.41.12 1.18.57 1.59.52l.11.04c.23.12.2 0-.11-.37-.06.03-.38.86-.4.9-2.46 4.61-6.91 8.67-10.97 11.6-1.59 1.15-3.29 2.24-5.19 2.74-.67.18-1.24.26-1.86-.03-.32-.14-.78-.9-1.02-1.69-.75-2.5-4.68-1.43-3.92 1.08 3.64 11.93 18.24-1.42 22.39-5.94 1.97-2.14 4.51-4.98 5.06-7.92.69-3.67-3.18-4.65-5.92-5.37-5.96-1.56-12.23-1.96-18.37-2.08-12.8-.25-25.78.64-38.45 2.49-13.31 1.95-26.47 5.45-38.49 11.58-2.82 1.44-7.25 3.13-7.98 6.63s3.2 6.45 5.76 8.15c5.63 3.74 12.53 4.91 19.08 5.91 1.46.22 3.12-.9 2.58-2.58-.46-1.43 1.45-2.14 2.5-2.46 1.8-.56 3.66-.99 5.49-1.44 3.83-.96 7.66-1.87 11.53-2.65 7.82-1.59 15.74-2.79 23.71-3.3 4.36-.28 8.71-.34 13.07-.03 1.95.14 1.94-2.89 0-3.03Z"/><path d="M51.07 39.97c1.6-11.78 10.05-22.26 21.28-26.19 11.25-3.94 23.9-1.25 32.96 6.38 2.26 1.9 4.34 4.06 6.07 6.45 1.8 2.49 3.2 5.2 4.61 7.92.92 1.78 3.8.55 3.23-1.36-1.69-5.65-5.6-10.74-9.92-14.66-4.42-4.01-9.7-7.08-15.43-8.79-13.16-3.95-27.92-.19-37.12 10.16-4.94 5.56-7.67 12.37-8.55 19.71-.19 1.62 2.65 2.02 2.87.39Zm4.55 20.07c4.61 4.99 12.05 6.7 18.47 4.52s10.98-7.42 12.47-13.77c-1.1.14-2.2.29-3.3.43 2.97 6.35 10.16 10.62 17.18 9.93 7.16-.71 13.35-5.96 15.19-12.92.59-2.24-2.85-3.19-3.47-.96-1.48 5.36-6.46 9.78-12.09 10.22-5.76.44-11.26-2.91-13.71-8.1-.66-1.41-2.97-1.02-3.3.43-1.19 5.15-5.07 9.59-10.15 11.22-5.32 1.71-11.29.17-15.64-3.18-1.29-.99-2.69 1.07-1.68 2.17Z"/><path d="M76.08 64.12c6.42 3.19 14.89 1.52 20.23-3.01.72-.61.63-1.84 0-2.46-.73-.73-1.72-.59-2.46 0-2.31 1.83-5.04 3-7.94 3.48-2.95.49-5.8 0-8.63-.82-1.64-.47-2.78 2.02-1.19 2.81ZM49.31 16.08c-1.12-1.15-2.12-2.44-3.13-3.68-.24-.3-.47-.6-.71-.89-.14-.18.22.28 0 0-.05-.07-.11-.14-.16-.21l-.36-.48c-.61-.82-1.16-1.85-2.07-2.34-.63-.34-1.39-.31-1.96.14s-.76 1.14-.63 1.86c.18 1 1.03 1.83 1.65 2.59.52.64 1.05 1.27 1.6 1.89 1.08 1.23 2.27 2.33 3.43 3.48.62.61 1.74.66 2.34 0 .61-.67.64-1.68 0-2.34Zm-6.14 5.98c-2.02-.44-4.04-.91-6.07-1.29-.98-.19-1.96-.35-2.94-.5-1.21-.19-2.52-.51-3.73-.33-.76.12-1.39 1.04-1.35 1.78.04.87.56 1.47 1.35 1.78.56.22 1.27.2 1.86.26.46.05.91.09 1.37.15.99.11 1.98.23 2.96.37 1.84.25 3.81.55 5.68.96.87.19 1.77-.26 2.02-1.15.23-.82-.28-1.83-1.15-2.02Zm-5.1 8.82c-1.28.05-2.56.32-3.81.59-.58.13-1.16.26-1.74.41-.71.19-1.67.34-2.16.93-.38.46-.58.98-.42 1.58.15.55.59.98 1.13 1.13.8.23 1.59-.14 2.35-.36.55-.16 1.1-.32 1.65-.47 1.13-.3 2.28-.51 3.39-.84.73-.22 1.19-.91 1.09-1.66s-.73-1.34-1.49-1.31Z"/><path d="M54.61 56.48c-4.95 23.37-10.17 46.68-15.16 70.04-1.21 5.69-2.41 11.38-3.56 17.08-.56 2.78-1.16 5.56-1.63 8.36-.35 2.1-.46 4.18-.01 6.28 1.8 8.55 11.92 10.12 19.06 11.24 22.86 3.58 46.22 3.18 68.96-1.07 2.78-.52 5.55-1.1 8.3-1.73 2.56-.59 5.19-1.17 7.49-2.47 3.85-2.16 5.5-6.13 5.11-10.42-.35-3.87-1.8-7.47-2.77-11.2-1.54-5.91-3.02-11.84-4.52-17.76-5.92-23.44-11.99-46.84-18.07-70.23-.75-2.9-1.51-5.79-2.26-8.69-.61-2.34-4.24-1.35-3.63 1 5.89 22.61 11.87 45.2 17.55 67.87 1.4 5.61 2.79 11.22 4.21 16.83 1.25 4.95 2.36 9.96 3.86 14.84 1 3.27 2.52 7.15 1.66 10.61-1.1 4.48-6.55 5.22-10.35 6.08-21.56 4.89-43.95 6.15-65.93 3.82-5.26-.56-10.59-1.21-15.75-2.36-2.97-.66-6.36-1.74-8.23-4.31-2.42-3.32-1.06-7.39-.33-11.03 1.1-5.44 2.23-10.88 3.36-16.32 4.66-22.38 9.73-44.67 13.9-67.15.53-2.84 1.04-5.69 1.55-8.53.33-1.83-2.42-2.63-2.82-.78Zm75.87.06c4.78-.4 11.76-1.01 14.52 4 1.24 2.24 1.26 5.31 1.05 7.8-.21 2.53-1.35 4.41-3.61 5.58-2 1.03-4.89 1.78-7.14 1.41-.93-.15-1.94-.64-2.28-1.59-.39-1.07.64-1.73 1.53-2.05 2.32-.82 4.99.33 6.84 1.71 1.93 1.44 3.45 3.46 4.5 5.61 1.26 2.57 1.73 5.5 1.42 8.35-.33 3.05-1.65 5.65-3.35 8.15-1.05 1.55 1.37 3.44 2.61 2.02 4.65-5.34 5.32-13.35 2.45-19.67-2.52-5.55-9.36-11.87-15.94-9.27-3.19 1.26-4.79 4.71-2.67 7.68 2.21 3.09 6.2 2.92 9.53 2.2 3.11-.67 6.22-2.08 8.03-4.81 1.97-2.96 1.86-7.03 1.39-10.4-.55-3.95-2.72-7.15-6.4-8.81-3.96-1.78-8.27-1.51-12.48-1.11-2.03.19-2.06 3.38 0 3.2"/><path d="M38.24 159.79c-.08-1.62 1.93-1.99 3.15-2.24 1.87-.38 3.75-.71 5.64-1.04 3.48-.6 6.96-1.18 10.46-1.65 6.98-.94 14-1.55 21.03-1.87 14.25-.65 28.62-.17 42.77 1.59 3.95.49 7.9 1.08 11.82 1.75.93.16 1.86.29 2.79.47.66.13 1.41.22 1.88.75.84.95.19 2.29-.91 2.65-2.18.71-1.27 3.78.93 3.39 3.63-.64 5.4-4.66 3.78-7.86-.87-1.72-2.49-2.66-4.33-3.04-2.01-.42-4.06-.69-6.09-.98-8.13-1.17-16.31-2.04-24.5-2.54-16.44-1-32.93-.41-49.25 1.84-4.6.63-9.19 1.4-13.74 2.36-3.64.77-9.35 1.8-8.39 6.83.32 1.67 3.05 1.29 2.96-.4Zm34.01-71.87c1.35-1.75 3.65-3.52 5.98-2.71 2.67.92 1.67 4.08.62 5.88-.67 1.14-1.53 2.18-2.1 3.38-.56 1.17-.87 2.41-1.07 3.69-.38 2.45-.58 4.97-.71 7.44-.1 1.84 2.45 1.94 3.02.41 1.04-2.79.59-5.94 1.39-8.81.43-1.53 1.42-2.71 2.23-4.04.95-1.56 1.69-3.25 1.77-5.1.15-3.45-2.4-6.03-5.76-6.31-3.4-.29-6.12 2.05-7.91 4.69-1.08 1.59 1.41 2.92 2.52 1.47Z"/><path d="M71.43 87.54c-.92-1.6-1.83-3.22-2.79-4.8-.46-.74-1.51-1.09-2.28-.6s-1.08 1.48-.6 2.28c.2.34.4.69.57 1.05.08.17.17.34.24.52.04.1.16.44 0-.02.04.1.08.19.12.29.28.72.51 1.47.68 2.23.08.36.12.72.2 1.08.15.63.57 1.21 1.14 1.52 1 .54 2.13.26 3.07-.24.78-.42 1.09-1.57.61-2.32-.51-.8-1.48-1.06-2.32-.61-.06.03-.11.06-.17.09-.15.08.43-.15.15-.06-.13.04-.25.08-.38.1l.45-.06q-.18.03-.36 0l.45.06s-.12-.04-.13-.03c.07-.06.47.24.52.3.03.03.33.45.27.48 0 0-.04-.15-.04-.17-.06-.28-.09-.56-.15-.84-.11-.56-.26-1.11-.44-1.65-.4-1.18-.94-2.33-1.6-3.39l-2.88 1.68c1 1.56 2.06 3.08 3.1 4.61.44.64 1.33.99 2.03.53s.95-1.31.53-2.03Zm8.58-4.98c0-.23.01-.45 0-.68 0-.09-.02-.25.02-.34q-.045.315 0 .06c.01-.04.02-.08.04-.12.03-.13-.18.33 0 .05s-.14.13-.03.04c.25-.22-.19.11-.05.03.1-.06.04-.04-.18.07a1.4 1.4 0 0 1-.5 0l-.68-.4c-.14-.11-.28-.46-.26-.63 0 .06 0 .14.01.2 0 .07-.03.23 0 .3-.03-.1.06-.34 0-.07l-.06.24-.03.1c-.05.12-.04.13 0 0q.075-.18 0 0l-.05.09c-.05.09-.1.17-.16.25-.34.51-.24 1.26.12 1.72.38.49 1.02.71 1.63.55.52-.14 1.04-.27 1.57-.41.26-.07.52-.14.78-.2.11-.03.22-.06.34-.09.07-.02.13-.03.2-.05-.58-.08-.74-.07-.49.02l-.69-.4a1.4 1.4 0 0 1-.25-.45c-.03-.29-.04-.35-.04-.17-.01.17 0 .12.02-.15-.01.06-.03.11-.05.17.11-.23.12-.27.05-.13l-.09.15c-.09.13-.07.1.08-.1a.8.8 0 0 1-.13.13c-.12.11-.09.08.11-.07a1 1 0 0 1-.17.11c-.03.02-.35.19-.35.19.22-.09.25-.1.09-.05-.06.02-.13.04-.19.05-.13.03-.26.06-.4.08h.84c-.06-.01-.12-.03-.17-.04-.98-.23-1.95.37-2.09 1.39-.12.92.62 1.97 1.64 1.89.64-.05 1.29-.04 1.93.05l-.44-.06c.25.03.5.07.75.13.1.02.27.11.36.11-.24-.11-.29-.13-.14-.05l.08.05c-.2-.17-.25-.19-.13-.08-.16-.22-.19-.25-.11-.11a.94.94 0 0 1-.09-.75c.13-.26.15-.31.08-.18q.15-.255.39-.39c-.22.14.43-.12.11-.05-.11.02.48-.03.11-.02-.09 0-.18-.01-.26 0-.13 0 .47.08.09 0-.1-.02-.19-.04-.29-.07l-.33-.09c-.32-.08.37.14 0 0-.11-.07-.06-.03.14.12a.8.8 0 0 1-.13-.13c.16.22.2.26.11.11q.15.39.09.15l.06.45v-.17l-.06.45.02-.09c.08-.47.05-.87-.17-1.29-.24-.46-.73-.73-1.23-.8-.46-.06-.87.04-1.24.33-.45.35-.59.77-.66 1.32-.1.75.32 1.56.87 2.04.52.45 1.15.69 1.82.82 1.18.22 2.43.15 3.22-.88.56-.72.58-1.69.17-2.49-.36-.7-1-1.12-1.72-1.38-.57-.2-1.2-.27-1.79-.33a8.5 8.5 0 0 0-1.59-.03l.84 3.12c.16-.12.32-.24.47-.37l-.7.41c.83-.29 1.65-.58 2.3-1.21.73-.72 1.16-1.8.95-2.82-.15-.69-.66-1.23-1.33-1.44-.54-.17-1.1 0-1.63.15-.78.21-1.56.43-2.34.64.58.76 1.16 1.51 1.75 2.27.45-.67.67-1.47.71-2.27.02-.49-.05-.99-.27-1.44-.3-.62-.99-1.01-1.67-.99-1.03.04-1.83.77-2.22 1.68-.35.84-.3 1.79-.04 2.65.21.67.84 1.1 1.53 1s1.19-.67 1.21-1.37ZM66.55 93.54c-2.59 3.48-4.5 7.32-5.38 11.59-.43 2.05-.82 4.4.8 6.05 1.77 1.81 4.28.87 5.75-.77-.94-.55-1.88-1.09-2.81-1.64-.49 2.83 1.53 5.74 4.55 5.75 3 0 4.72-3.03 4.33-5.72-.83.48-1.66.97-2.49 1.45 1.72 2.21 5.33 1.9 6.78-.4.84-1.34-1.11-2.86-2.2-1.69-.69.74-1.82.77-2.48 0-1.02-1.2-2.8.11-2.49 1.45.18.78-.67 1.65-1.46 1.63-.69-.02-1.43-.84-1.31-1.55.27-1.52-1.59-2.99-2.81-1.64-.17.19-.8.84-.92.77-.31-.19-.23-.86-.22-1.16.09-1.49.54-3.01.95-4.44.85-2.91 2.07-5.76 3.75-8.29.98-1.49-1.33-2.74-2.35-1.37Z"/><path d="M77.52 110.22c4.67-.28 9.26-1.13 13.71-2.6 1.89-.62 3.94-1.69 5.95-1.29.33.07-.02-.02.14-.23-.27.36-.72.6-1.08.84-1.03.69-2.06 1.37-3.08 2.06-1.38.92-.93 3.27.88 3.25.32 0 .35.48.29.75-.17.68-1.03 1.16-1.6 1.47-1.7.9-3.63 1.21-5.53 1.11v3.59c-.15 0-.02-.15-.1.02-.08.16.12.11-.09.33-.47.51-1.26.68-1.91.81-1.95.41-4.12.44-6.07-.02-3.59-.84-6.46-3.41-7.06-7.14-.33-2.11-4.04-1.63-3.76.51.87 6.72 6.98 10.7 13.45 10.8 2.81.04 6.79-.36 8.48-2.96 1.49-2.3.1-6.13-2.95-5.95-2.29.13-2.33 3.53 0 3.59 3.35.09 7.59-.81 9.71-3.66 1.87-2.52.69-6.8-2.86-6.74.29 1.08.59 2.16.88 3.25 1.24-.84 2.52-1.65 3.73-2.53 1.02-.74 1.96-1.67 2.07-3 .23-2.79-2.75-3.94-5.08-3.71-2.97.29-5.81 1.76-8.68 2.53a58 58 0 0 1-9.44 1.73c-2 .2-2.06 3.3 0 3.17Z"/><path d="M61.76 112.03c.27 6.95 2.45 13.82 7.94 18.45 2.96 2.5 6.44 4 10.31 4.36 1.87.17 4.74.56 6.22-.94 1.49-1.52.79-3.92-1.12-4.61-1.71-.61-2.74 1.42-2.13 2.77 1.33 2.95 3.29 6.62 6.86 7.04 1.92.23 2.27-2.49.91-3.38-1.03-.67-1.91-1.12-2.65-2.14s-1.32-2.25-1.86-3.43c-.71.92-1.42 1.85-2.13 2.77.3-1.27.13-1.86-.5-1.75-.15.02-.29.03-.44.03-.37.02-.75.02-1.13.02-.83 0-1.65-.02-2.48-.11-1.4-.15-2.78-.51-4.06-1.11-2.23-1.05-4.12-2.6-5.69-4.49-3-3.6-4.96-8.81-5.22-13.49-.1-1.81-2.9-1.83-2.83 0Z"/><path d="M82.65 138.65c-.42-.4-.84-.8-1.24-1.23-.19-.2-.37-.4-.55-.6l-.3-.36c-.22-.26.2.28-.05-.07-.33-.45-.58-.93-.84-1.42-.08-.18-.07-.14.04.12-.03-.07-.06-.14-.08-.21-.04-.11-.08-.21-.11-.32-.09-.29-.15-.58-.19-.88l.07.49c-.1-.84-.03-1.68-.71-2.32-.5-.47-1.45-.71-2.05-.27-.44.33-.75.67-.92 1.2-.1.3-.12.63-.09.94.05.5.12 1 .28 1.48.26.81.64 1.6 1.15 2.28 1.06 1.41 2.39 2.46 3.78 3.52.28.21.84.25 1.16.15s.58-.27.78-.54c.44-.58.43-1.45-.12-1.97Zm10.04-6.85c6.22-4.11 10.3-10.58 10.93-18.06.2-2.32-.49-4.2-1.02-6.4-.33-1.39-.32-2.65.12-4.02.85-2.64 3.25-4.76 6.1-4.74 1.57.01 3.14.61 4.36 1.59 1.46 1.16 2.04 2.85 3.16 4.28.74.95 2.59.43 2.78-.73.64-3.84-3.15-7.13-6.36-8.43-3.58-1.45-7.55-.83-10.51 1.64-2.72 2.27-4.31 5.99-3.93 9.53.24 2.24 1.79 4.07 1.72 6.34-.06 1.98-.56 3.93-1.23 5.79-1.47 4.1-4.18 7.91-7.77 10.41-1.7 1.18-.12 3.97 1.64 2.81Z"/><path d="M102.18 109.7c.53-1.27 1.26-2.45 2.22-3.38.52-.51 1.04-.88 1.73-1.2.47-.22 1.23-.41 1.7-.43 1.18-.06 2.27.25 2.81 1.22.13.23.16.32.25.67.05.17.08.35.12.52 0-.01.08.49.06.29.12.92 0 1.85.66 2.58.49.55 1.39.47 1.89 0 .78-.74.7-2.13.6-3.12-.1-.98-.36-1.97-.9-2.81-1.15-1.77-3.21-2.65-5.29-2.6-4.28.09-7.63 3.5-8.61 7.5-.18.75.24 1.55 1 1.76.82.23 1.46-.28 1.76-1"/><path d="M101.82 110.33c.42-.15.84-.28 1.28-.37.11-.02.25-.07.36-.07l-.17.02c.06 0 .12-.01.18-.02.22-.02.44-.04.66-.04.15 0 .48-.04.6.03-.23-.03-.28-.04-.16-.02.05 0 .1.02.15.03l.24.06c.08.02.16.05.24.07.05.02.09.03.14.05.11.04.06.02-.14-.06 0-.01.46.24.48.26.01 0 .21.14.21.14l-.12-.09c.04.03.08.06.11.1.06.06.12.11.17.17.16.17.04.08-.02-.05.08.16.2.33.29.48s-.1-.3-.01-.03c.03.1.07.2.09.31l.06.26c.06.28.07.03 0-.04.08.1.04.52.04.65 0 .4 0 .81-.03 1.21-.03.51.31 1.15.78 1.36.38.18.8.3 1.22.16.69-.23 1.13-.8 1.16-1.52.05-1.02.05-2.09-.26-3.07a4.93 4.93 0 0 0-2.09-2.7c-.9-.56-1.99-.83-3.04-.84-1.26-.01-2.42.38-3.57.86-.3.13-.61.57-.67.88-.07.33-.06.64.07.96.27.63 1.04 1.1 1.73.85Zm-.85 5.82c2.21 0 2.22-3.44 0-3.44s-2.22 3.44 0 3.44m-25.68-26.2c1.93 0 1.93-3 0-3s-1.93 3 0 3"/></svg>