<?xml version="1.0" encoding="UTF-8"?><svg xmlns="http://www.w3.org/2000/svg" viewBox="0 0 180 180"><path d="M142.43 134.76c-11.16 1.43-22.32 2-33.55 1.24-7.87-.54-16.6-.88-23.5-5.15-3.1-1.92-5.43-4.64-6.36-8.2-.8-3.03-.61-6.66 1.5-9.13 1.42-1.66 3.59-2.37 5.25-3.75 1.83-1.52 2.78-3.71 3.51-5.92.65-2 1.16-3.99 2.45-5.7 1.18-1.57 2.88-2.86 4.72-3.55 2.4-.9 5.07-.76 7.38-1.97s3.58-3.47 3.77-6-.7-5.04-1.95-7.19-3.02-4.29-3.62-6.86l-1.05 2.58c4.96-3.12 10.73-3.9 16.49-3.55s11.39 1.62 16.74 3.46c4.32 1.49 9.07 3.78 11.43 7.91 1.37 2.4 1.21 5.09 1.92 7.69.86 3.17 3.15 4.72 5.56 6.67 1.74 1.41 2.87 3.52 3.05 5.68.17 2.05-.35 3.91-2.14 4.93-1.51.86-1.47 3.1 0 3.97 2.4 1.41 4.63 3.39 6.25 5.66.78 1.1 1.48 2.28 1.79 3.6.22.91.12 1.57-.24 2.37-.2.46-.39.92-.59 1.38l-.21.51c.18-.42.07-.15-.04.08-.27.61-.55 1.21-.9 1.77-.09.15-.2.29-.29.44-.23.38.08-.08 0 .02-.25.29-.5.57-.77.84-.15.14-.31.28-.46.41-.32.28.23-.15-.13.11-.41.29-.82.56-1.26.81-3.02 1.75-6.47 2.77-9.76 3.89-2.48.84-1.49 4.49 1.08 3.93 5.39-1.17 12.01-2.89 15.32-7.74.43-.63.77-1.31 1.08-2.01.21-.48.42-.97.62-1.46.18-.43.03-.08.05-.11l.3-.69c1.42-3.22.89-6.34-.88-9.34-2.05-3.44-5.2-6.42-8.64-8.44v3.97c5-2.85 5.34-9.35 3-14.06-.56-1.14-1.35-2.23-2.26-3.12-1.05-1.03-2.34-1.78-3.44-2.75-2.52-2.22-1.85-5.75-2.87-8.69-1.9-5.46-6.71-9.02-11.84-11.26-5.86-2.55-12.28-4-18.61-4.74-7.42-.87-15.22-.14-21.66 3.93-.89.56-1.29 1.56-1.05 2.58.57 2.43 1.91 4.5 3.24 6.58 1.08 1.7 2.19 3.49 2.2 5.58s-1.26 2.78-3.07 3.17c-2.32.51-4.52.77-6.68 1.85s-4.06 2.78-5.51 4.74c-1.4 1.9-2.12 4.12-2.83 6.35s-1.42 3.77-3.38 4.94-3.82 2.34-5.22 4.25c-4.94 6.76-2.09 16.89 4.08 21.81 6.98 5.57 16.43 6.67 25.05 7.14 12.57.68 24.95-.3 37.37-2.23 1.81-.28 1.4-3.46-.44-3.22Z"/><path d="M118.08 114.62c-6.74-.16-13.61-.44-20.02-2.72-2.63-.93-6.25-2.34-7.79-4.83-1.25-2.03-.06-5.33.44-7.45.41-1.75-1.97-2.82-2.93-1.23-1.62 2.7-2.69 6.64-1.37 9.64 1.48 3.39 5.31 5.13 8.56 6.41 7.29 2.9 15.38 2.96 23.11 2.86 1.73-.02 1.73-2.65 0-2.69Zm8.58-13.57c3.47-.19 6.99-.34 10.39-1.1a18.7 18.7 0 0 0 7.9-3.86c2.15-1.78 3.89-4.19 4.74-6.86.83-2.63.95-6.24-.85-8.5-.87-1.1-2.82-.18-2.75 1.14.06 1.25.53 2.41.54 3.68 0 1.04-.18 2.03-.52 3-.74 2.15-2.22 3.96-3.92 5.43-4.24 3.66-10.18 4.39-15.54 4.93-1.35.13-1.39 2.22 0 2.14Zm11.44 13.31c3.45.77 7.06.69 10.5-.09 3.86-.88 7.29-2.63 10.23-5.29 1.91-1.73-.96-4.62-2.84-2.84-4.48 4.25-10.98 6.93-17.19 5.69-1.64-.33-2.36 2.16-.7 2.53m-47.41 21.17c19.31 5.84 41.49 3.33 61.22-.92 2.02-.44 4.07-.91 5.86-1.94 2.59-1.49 4.9-4.18 7.86-3.83 1.9.23 3.47 1.8 4.05 3.63s.31 3.84-.36 5.63c-1.49 3.96-4.84 7.01-8.64 8.88-3.8 1.86-8.03 2.65-12.23 3.13-21.78 2.48-44.39-3.16-62.47-15.55"/><path d="M90.34 136.77c11.52 3.58 23.33 4.49 35.33 3.67 6.04-.42 12.06-1.21 18.03-2.25 2.92-.51 5.83-1.07 8.72-1.69s5.48-1.43 7.87-3.13c1.47-1.05 3.67-3.23 5.66-2.37 2.49 1.08 2.08 4.5 1.28 6.52-1.91 4.82-6.81 7.66-11.57 9.02-5.45 1.55-11.31 1.89-16.95 1.9s-11.2-.47-16.7-1.48c-12.46-2.28-24.58-6.93-35.09-14.04-2.02-1.37-3.9 1.9-1.91 3.26 9.96 6.83 21.09 11.89 32.9 14.49 11.8 2.6 24.63 3.27 36.5.7 5.8-1.25 11.39-3.95 14.94-8.85 1.75-2.42 3-5.53 2.74-8.56-.27-3-1.99-5.78-4.9-6.83-2.62-.95-5.27.22-7.4 1.72-1 .71-1.96 1.49-3.03 2.1-1.4.8-2.96 1.2-4.52 1.56-6.15 1.42-12.4 2.55-18.66 3.38-7.12.94-14.3 1.4-21.48 1.22s-14.24-.86-21.08-2.82c-1.6-.46-2.27 2-.69 2.49Zm27.13-49.57c1.84 0 1.84-2.86 0-2.86s-1.84 2.86 0 2.86m6.42-3.25.21-.1q.225-.12.36-.33a1 1 0 0 0 .23-.44c.05-.17.06-.34.02-.51 0-.17-.06-.33-.15-.48l-.2-.26q-.24-.24-.57-.33l-.34-.05c-.23 0-.45.06-.65.18l-.21.1q-.225.12-.36.33a1 1 0 0 0-.23.44c-.05.17-.06.34-.02.51 0 .17.06.33.15.48l.2.26q.24.24.57.33l.34.05c.23 0 .45-.06.65-.18m.71 6.09c1.98 0 1.98-3.08 0-3.08s-1.98 3.08 0 3.08m6.92-1.95c1.77 0 1.77-2.75 0-2.75s-1.77 2.75 0 2.75m-9.23 37.32c2.03 0 2.03-3.16 0-3.16s-2.03 3.16 0 3.16m4.08-5.34.21.84c.05.21.15.4.29.56.12.18.27.32.46.42.19.12.39.18.61.19.22.05.44.04.65-.03l.39-.17c.25-.15.44-.34.59-.59l.17-.39q.12-.435 0-.87l-.21-.84c-.05-.21-.15-.4-.29-.56-.12-.18-.27-.32-.46-.42-.19-.12-.39-.18-.61-.19-.22-.05-.44-.04-.65.03l-.39.17c-.25.15-.44.34-.59.59l-.17.39q-.12.435 0 .87m3.89 6.92.84-.02c.23 0 .44-.04.64-.14.21-.07.39-.18.54-.35.16-.15.28-.33.35-.54.1-.2.15-.41.14-.64l-.06-.44c-.08-.28-.22-.53-.43-.74l-.34-.26c-.26-.15-.54-.23-.84-.23l-.84-.02c-.23 0-.45.04-.65.15-.21.07-.39.18-.54.35-.16.15-.28.33-.35.54-.11.2-.15.42-.15.65l.06.45c.08.29.22.53.43.74l.34.26c.26.15.55.23.85.23Zm7.55-3.11c2.35 0 2.36-3.66 0-3.66s-2.36 3.66 0 3.66m10.65-57.01a83 83 0 0 1 6.33-9.5c.4-.52.81-1.02 1.22-1.53.63-.77 1.09-1.36 1.23-2.37s-1.17-1.88-2.09-1.59c-1.41.45-2.31 2.07-3.16 3.19s-1.6 2.16-2.36 3.27c-1.5 2.19-2.89 4.45-4.18 6.77-.45.82-.2 1.89.62 2.37s1.91.19 2.37-.62Zm7.79 8.81c2.08-1.25 4.24-2.36 6.46-3.33 1.04-.45 2.09-.86 3.16-1.24 1.21-.43 2.48-.76 3.6-1.41.68-.4 1.03-1.26.82-2.02-.19-.71-.95-1.39-1.73-1.31-1.4.13-2.64.63-3.93 1.16-1.2.49-2.38 1-3.55 1.56a67 67 0 0 0-6.58 3.61c-1.89 1.17-.17 4.13 1.74 2.98Zm5.91 11.72c1.33.35 2.79.36 4.11-.02s2.97-1.2 3.64-2.5c.34-.65.31-1.54-.27-2.06s-1.38-.65-2.06-.27c-.3.17-.53.33-.81.55l.37-.28c-.24.18-.48.37-.72.56l.37-.29c-.45.34-.93.62-1.45.84l.43-.18c-.55.22-1.11.39-1.7.47l.46-.06c-.56.07-1.11.08-1.67 0l.45.06c-.09-.01-.18-.03-.26-.04-.45-.08-.88-.07-1.29.17-.35.2-.68.6-.77 1-.2.87.26 1.82 1.17 2.06Zm-57-56.04c5.53-1.46 11.98-.32 15.69 4.33 3.44 4.31 3.07 10.11-.97 13.9-2.1 1.97-5 3.04-7.86 3.21-1.5.09-6.06.25-5.75-2.28.31-2.55 4.06-3.95 6.14-4.47 2.68-.67 5.52-.53 8.12.37 5.83 2.01 9.11 7.86 9.12 13.82 0 2.04 2.92 1.96 3.11 0 .67-6.97-3.89-13.95-10.25-16.61-3.28-1.38-6.94-1.67-10.42-.94s-7.16 2.52-8.65 5.78c-1.61 3.53.8 6.69 4.27 7.55s7.71.23 11.04-1.36c6.75-3.22 9.98-11.14 6.84-18-3.7-8.09-13.22-10.02-21.14-7.89-1.66.45-.96 3.02.71 2.58Zm-46.83 69.77c-7.29-10.19-6.76-24.22 1.22-33.88 3.88-4.7 9.11-8.48 15.13-9.82 5.81-1.29 12.25.19 16.35 4.65 4.31 4.69 5.31 11.39 4.99 17.53-.15 2.81-.32 6.06-1.42 8.7-.45 1.09-1.1 1.95-2.13 2.51-1.62.88-2.83 1.62-3.84 3.22-1.75 2.78-2.97 5.8-5.31 8.18-1.85 1.87-4.18 3.19-6.7 3.92-5.11 1.48-10.56.58-14.93-2.43-4.9-3.38-8.14-9.27-8.68-15.16-.32-3.52.11-7.01 1.21-10.36s2.97-6.38 5.01-9.28c1.23-1.75-1.51-3.82-2.94-2.27-9.49 10.19-10.24 27.13-.55 37.4 4.39 4.65 10.62 7.31 17.03 6.95 6.89-.38 12.75-3.84 16.49-9.61.99-1.52 1.8-3.13 2.69-4.71.41-.73.79-1.28 1.54-1.67s1.56-.73 2.27-1.27c2.53-1.94 3.45-5.14 3.91-8.17 1.15-7.55 1.17-15.59-2.65-22.44-3.5-6.29-9.9-9.97-17.04-10.3s-14.17 2.97-19.47 7.72c-5.22 4.67-9.22 11.06-10.43 18.02a32.03 32.03 0 0 0 2.9 19.78c.77 1.53 1.68 2.98 2.71 4.35 1.17 1.56 3.82.07 2.66-1.55Z"/><path d="M92.36 58.38c-1.27-1.13-2.28-2.49-3.52-3.63-1.45-1.32-3.3-2.12-5.08-2.91-4.2-1.87-8.6-3.37-13.16-4.01s-9-.31-13.27 1.81c-4.36 2.16-8.42 5.06-11.61 8.77-6.9 8.05-9.88 18.99-7.36 29.34 1 4.1 2.92 7.82 5.7 11 2.62 3 5.89 5.83 9.43 7.66 2.2 1.14 4.55 1.95 6.87 2.79 2.93 1.07 5.99 1.93 9.12 2.1 6.37.34 12.13-2.66 17.62-5.49 1.63-.84.2-3.22-1.43-2.44-4.48 2.14-9.33 4.37-14.39 4.42-4.74.05-9.47-1.99-13.8-3.73-3.42-1.37-6.32-3.6-8.96-6.14-2.46-2.37-4.49-5.13-5.67-8.37-3.28-9.03-1.25-18.91 4.22-26.63 2.45-3.46 5.77-6.27 9.41-8.41 1.78-1.04 3.66-2.06 5.67-2.57 1.84-.46 3.76-.5 5.64-.38 4.64.29 9.24 1.7 13.59 3.27 1.8.65 3.8 1.29 5.34 2.48 1.35 1.05 2.51 2.29 3.9 3.32 1.3.96 2.92-1.17 1.72-2.23Z"/><path d="M40.58 80c-3.5-4.55-7.31-8.83-11.16-13.08-4.21-4.65-8.22-9.41-11.94-14.47-.93-1.26-1.84-2.52-2.75-3.79-.84-1.17-1.92-2.41-2.41-3.78-1.01-2.87 4-1.99 5.44-1.79 6.49.94 12.97 2.31 19.39 3.67 3.65.77 7.27 1.66 10.89 2.56 1.89.47 3.8.84 5.67 1.37s3.68 1.04 5.59 1.36c2.1.35 2.9-2.45.88-3.19-6.85-2.53-13.79-4.52-20.92-6.05-7.02-1.51-14.13-3.04-21.25-4.01-3.26-.44-7.16-.69-9.27 2.39-2.08 3.02-.09 6.35 1.72 8.9 4.04 5.67 8.25 11.15 12.97 16.28 4.82 5.24 9.99 10.18 14.62 15.59 1.17 1.37 3.65-.5 2.53-1.95Z"/><path d="M21.19 41.54c-1.04 2.85-1.89 5.75-2.4 8.75-.51 2.95-.98 6.12-.71 9.12.18 1.89 2.8 1.91 2.95 0 .24-2.89.23-5.77.7-8.65s1.13-5.74 2.06-8.5c.56-1.66-2.02-2.34-2.61-.72Zm10.62 2.76c-2.49 8.22-4.08 17.15-3.69 25.77.09 1.96 3.02 1.98 3.06 0 .08-4.22.18-8.4.71-12.6.54-4.2 1.43-8.36 2.59-12.43.49-1.73-2.16-2.45-2.68-.74Zm9.64 2.28c-.53 5.36-1.67 10.65-2.6 15.95-.91 5.16-1.95 10.65-1.57 15.91.15 2.01 3.03 2.03 3.14 0 .15-2.67.22-5.33.53-7.99s.76-5.33 1.22-7.97c.9-5.27 1.78-10.53 2.02-15.89.08-1.78-2.56-1.72-2.73 0Zm21.31 59.22c5.61-.12 10.21-4.44 13.51-8.99 6.47-8.92 10.22-19.78 10.64-30.79.1-2.62-.1-5.53-1.96-7.39-1.02-1.02-2.43-1.58-3.86-1.84-5.34-.99-10.64 1.83-15.03 5.03-2.25 1.64-4.44 3.45-5.98 5.78-1.28 1.92-2.06 4.13-2.76 6.33-1.7 5.3-3.06 10.82-2.77 16.39s2.39 11.23 6.63 14.84"/><path d="M62.76 107.04c8.77 0 14.72-8.28 18.63-15.17 4.47-7.87 6.89-16.81 7.3-25.84.19-4.29-.78-8.63-5.09-10.49-4.34-1.88-9.31-.67-13.38 1.34-3.89 1.92-7.95 4.75-10.7 8.13-3.04 3.73-4.39 8.63-5.55 13.22-2.45 9.65-2.32 21.3 5.78 28.37 1.95 1.71 4.83-1.14 2.86-2.86-5.87-5.13-6.85-13.4-5.55-20.69.72-4.07 1.81-8.37 3.53-12.14 1.66-3.63 4.68-6.13 7.92-8.31s6.79-4.07 10.69-3.98c1.65.04 3.67.36 4.76 1.73.99 1.26 1.14 3.01 1.17 4.55.15 7.8-2.07 15.79-5.38 22.79-1.82 3.86-4.04 7.71-6.89 10.91-2.6 2.91-6.05 5.68-10.09 5.98-1.57.12-1.61 2.47 0 2.47Z"/></svg>