<?xml version="1.0" encoding="UTF-8"?><svg xmlns="http://www.w3.org/2000/svg" viewBox="0 0 180 180"><path d="M66.3 98.06c1.66-11.75 3.58-23.45 5.29-35.19.82-5.61 1.46-11.24 2.3-16.84.48-3.18 1.16-6.64 3.28-9.17 2.07-2.46 5.14-3.77 8.26-4.26 3.79-.59 7.67.11 11.36.94 4 .9 7.98 1.93 11.97 2.9 8.13 1.99 16.28 3.94 24.42 5.9 8.2 1.98 16.41 3.94 24.61 5.94 2.87.7 6.21 1.44 8.21 3.81s1.93 5.59 1.63 8.44c-.37 3.61-1.31 7.2-2.04 10.76-.85 4.13-1.68 8.26-2.54 12.38-1.7 8.17-3.45 16.32-5.25 24.47-1.78 8.06-3.41 16.2-5.51 24.18-.45 1.72-1.08 3.2-2.42 4.41-1.16 1.04-2.61 1.76-3.99 2.48-3.56 1.86-7.17 3.64-10.78 5.39-7.13 3.46-14.36 6.71-21.7 9.7-3.65 1.49-7.32 2.92-11.01 4.3-3.73 1.39-7.49 2.91-11.4 3.71-7.71 1.58-15.31-2.18-22.33-4.91-7.36-2.85-14.64-5.88-21.8-9.2-7.12-3.29-14.11-6.86-20.9-10.78-2.79-1.61-5.63-3.09-8.44-4.65-1.3-.72-2.62-1.49-3.73-2.5s-1.54-1.79-1.52-3.24c0-.78.1-1.57.14-2.35.04-.72-.06-1.5.07-2.2.27-1.52 1.71-1.87 2.97-2.32 3.81-1.34 7.64-2.64 11.48-3.89 7.76-2.54 15.58-4.9 23.44-7.09 3.89-1.08 7.79-2.14 11.71-3.16 2.78-.72 1.61-5-1.19-4.31-8.39 2.09-16.73 4.4-25 6.92-4.1 1.25-8.18 2.54-12.25 3.89-2.07.68-4.14 1.38-6.2 2.09-1.96.67-4.19 1.19-6.01 2.2-1.54.85-2.69 2.29-3.25 3.94s-.35 3.59-.45 5.31c-.1 1.83.04 3.75 1.04 5.34.87 1.38 2.18 2.45 3.49 3.39 2.66 1.91 5.72 3.17 8.54 4.8 3.52 2.04 7.03 4.07 10.63 5.97 7.35 3.88 14.89 7.4 22.53 10.65 7.66 3.26 15.42 6.52 23.33 9.14 3.93 1.3 8.06 2.15 12.21 1.67 4.26-.5 8.28-2 12.28-3.48 7.87-2.9 15.64-6.06 23.31-9.46 7.71-3.42 15.29-7.11 22.73-11.08 3.29-1.76 6.3-3.74 7.77-7.32.78-1.89 1.16-3.91 1.63-5.89.51-2.17 1.02-4.34 1.52-6.51 3.98-17.21 7.82-34.47 11.34-51.78 1.33-6.56 4.21-15.27-.04-21.36-2.14-3.07-5.52-4.62-9.02-5.59-4.02-1.11-8.12-1.98-12.17-2.95-8.63-2.07-17.26-4.13-25.88-6.2-8.57-2.05-17.14-4.29-25.77-6.08-7.33-1.53-15.69-1.77-21.65 3.51-5.28 4.68-5.51 12.3-6.36 18.8-1.68 12.74-3.48 25.46-5.05 38.21-.32 2.6-.63 5.21-.93 7.82-.2 1.73 2.82 2.16 3.07.42Z"/><path d="M86.62 41.93c18.34 4.77 36.81 9.03 55.27 13.37 2 .47 4.05.86 6.02 1.47 1.26.39 2.89.95 3.56 2.2.43.81.2 1.68 0 2.52a86 86 0 0 0-.71 3.55l-1.14 6.15c-1.2 6.5-2.36 13-3.59 19.49s-2.43 12.39-3.8 18.55c-.42 1.87-.88 3.74-1.24 5.62-.23 1.2-.37 3.91-2.18 3.58-2.11-.39-4.25-1.4-6.28-2.08-2.14-.72-4.27-1.43-6.41-2.14-8.46-2.81-16.94-5.59-25.36-8.53-4.22-1.47-8.42-2.98-12.6-4.55-2.03-.76-4.06-1.54-6.08-2.34l-3-1.2c-.74-.3-2.21-.58-2.78-1.17-.45-.46-.14-1.21-.04-1.83.19-1.21.39-2.42.59-3.63.37-2.34.73-4.68 1.07-7.02.67-4.6 1.35-9.21 2.05-13.8.71-4.65 1.47-9.28 2.26-13.92.36-2.12.74-4.25 1.01-6.39.19-1.48.3-2.97.69-4.41.34-1.28.88-2.45 2.03-3.18 2.03-1.29.15-4.54-1.89-3.24-3.15 2.01-3.91 5.48-4.32 8.95-.54 4.49-1.37 8.94-2.1 13.41-1.61 9.84-2.97 19.71-4.67 29.54-.38 2.2-1.48 5-.46 7.14.96 2.01 3.37 2.65 5.28 3.43 4.37 1.8 8.8 3.47 13.24 5.09 9 3.28 18.09 6.31 27.18 9.32 4.5 1.49 8.99 2.98 13.49 4.49 2.14.72 4.36 1.74 6.58 2.17 2.3.45 4.43-.75 5.62-2.7 1.12-1.83 1.3-4.28 1.73-6.35a1120 1120 0 0 0 3.2-15.81c1.24-6.47 2.36-12.96 3.52-19.44.75-4.21 1.51-8.43 2.29-12.63.42-2.31 1.42-4.91.77-7.25-.49-1.78-1.87-3.19-3.45-4.08s-3.37-1.37-5.13-1.78c-2.43-.57-4.86-1.13-7.29-1.7l-15.06-3.51c-9.88-2.3-19.77-4.61-29.69-6.71-2.44-.52-4.89-1.02-7.34-1.52-1.87-.39-2.67 2.39-.79 2.88Z"/><path d="m92.55 62.81 2.98 7.09c1 2.39 1.89 4.93 3.2 7.18.9 1.53 3.46.53 2.91-1.23-.77-2.48-2.04-4.85-3.13-7.21l-3.24-6.99c-.7-1.51-3.38-.41-2.73 1.15Z"/><path d="M91.74 74.14c1.14-.5 2.16-1.29 3.18-1.99s2.06-1.43 3.08-2.16 2.05-1.46 3.07-2.18c.44-.31.87-.63 1.35-.88.06-.03.72-.32.42-.2.32-.13.63-.27.95-.41.62-.28.93-1.13.84-1.75-.1-.67-.57-1.29-1.26-1.46-1.47-.36-2.73.28-3.9 1.12-1.07.77-2.14 1.55-3.21 2.33s-2.09 1.54-3.13 2.31c-1.14.85-2.41 1.67-3.36 2.73-.54.6-.65 1.48-.13 2.13s1.33.75 2.1.42Zm29-4.4c.99 2.36 1.99 4.73 2.98 7.09s1.89 4.93 3.2 7.18c.9 1.53 3.46.53 2.91-1.23-.77-2.48-2.04-4.85-3.13-7.21l-3.24-6.99c-.7-1.51-3.38-.41-2.73 1.15Z"/><path d="M119.93 81.07c1.14-.5 2.16-1.29 3.18-1.99s2.06-1.43 3.08-2.16 2.05-1.46 3.07-2.18c.44-.31.87-.63 1.35-.88.06-.03.72-.32.42-.2.32-.13.63-.27.95-.41.62-.28.93-1.13.84-1.75-.1-.67-.57-1.29-1.26-1.46-1.47-.36-2.73.28-3.9 1.12-1.07.77-2.14 1.55-3.21 2.33s-2.09 1.54-3.13 2.31c-1.14.85-2.41 1.67-3.36 2.73-.54.6-.65 1.48-.13 2.13.54.68 1.33.75 2.1.42ZM90 89.3c.76-.47 1.52-.95 2.29-1.42.35-.22.69-.43 1.04-.65.3-.18 1.35-.49.45-.42l-.92-.25c-.34-.39-.36-.34-.04.15.14.27.28.55.42.82.2.41.39.82.57 1.24.42.99.77 2.02 1.09 3.04.45 1.47 2.04 1.7 3.15.83.95-.74 1.89-1.48 2.84-2.22l1.32-1.04c.24-.19.96-.84 1.09-.87-.48-.06-.97-.13-1.45-.19-.39-.23-.37-.5-.14.06.11.28.27.54.41.81.31.6.61 1.21.89 1.82.52 1.14.97 2.32 1.43 3.49.51 1.29 2.13 1.98 3.22.85.87-.9 1.78-1.79 2.77-2.56.79-.61 2-1.79 3-1.95h-1.02l.26.09-.85-.49c.27.28.44.95.59 1.33.29.7.53 1.41.76 2.13.44 1.37.8 2.76 1.06 4.17.29 1.53 2.42 1.95 3.43.9 1.62-1.68 3.41-3.43 5.44-4.6l-1.03.28.34-.04-1.03-.28c.26.15.64.9.84 1.17.38.51.75 1.02 1.13 1.53.76 1.03 1.53 2.04 2.38 3.01 1.44 1.67 4.21-.5 3.04-2.35-.93-1.48-1.98-2.85-3.02-4.25-.91-1.22-1.76-2.94-3.5-2.89-1.51.04-2.88 1.44-4 2.33-1.23.99-2.39 2.06-3.49 3.19l3.43.9c-.33-1.79-.79-3.54-1.45-5.24-.6-1.55-1.19-3.66-2.82-4.41-1.74-.81-3.39.7-4.69 1.69a55 55 0 0 0-4.3 3.61l3.22.85c-.49-1.6-1.15-3.14-1.87-4.64-.58-1.21-1.26-3.12-2.53-3.76-1.65-.83-3.01.72-4.2 1.65l-4.16 3.26c1.05.28 2.1.55 3.15.83-.39-1.26-.86-2.49-1.4-3.69-.5-1.11-1.05-2.63-2-3.43-1.03-.86-2.18-.51-3.2.16-1.23.81-2.45 1.63-3.67 2.44-1.85 1.23-.16 4.18 1.75 3ZM9.29 121.63c4.19 2.75 8.64 5.13 13.03 7.55 4.4 2.42 8.86 4.72 13.33 7 8.95 4.55 18.06 8.8 27.2 12.96 4.52 2.05 9 4.22 13.59 6.1 2.18.89 4.41 1.59 6.76 1.86s4.88-.12 7.25-.58c4.74-.93 9.27-2.66 13.75-4.43 4.71-1.86 9.44-3.67 14.13-5.57 9.79-3.95 20.22-8.03 28.38-14.91 1.48-1.25-.5-3.86-2.09-2.71-7.53 5.45-15.76 9.39-24.33 12.93-4.55 1.88-9.15 3.65-13.74 5.45-4.38 1.71-8.74 3.56-13.26 4.89-2.27.66-4.59 1.21-6.95 1.44-2.29.23-4.45-.13-6.62-.84-4.6-1.5-9.06-3.68-13.47-5.66-8.87-3.98-17.61-8.23-26.3-12.59-4.84-2.43-9.65-4.93-14.43-7.49-4.92-2.63-9.76-5.43-14.74-7.93-1.7-.85-3.09 1.5-1.49 2.55Z"/><path d="M158.62 48.34c2.28.2 2.7 2.5 2.8 4.41.15 2.82-.32 5.64-.75 8.42-1.11 7.25-2.49 14.42-4.02 21.6-3.12 14.64-6.72 29.16-10.18 43.72-.23.95-.5 1.83-.29 2.8.02.1.05.23.09.32-.1-.2.07-.83.12-.96 0 0 .16-.43.08-.13-.06.22-.06.05 0 .01-.35.25-.72.48-1.08.7-1.5.91-3.06 1.7-4.52 2.66-1.86 1.23-.26 3.82 1.72 2.94 1.53-.68 2.99-1.51 4.43-2.37.69-.41 1.44-.84 2.02-1.4.49-.47.82-1.09.82-1.78 0-.25-.06-.48-.11-.72-.08-.35.01-.26-.03.08.08-.6-.16.4.02-.24.28-.95.46-1.93.69-2.89l1.32-5.57c.92-3.88 1.81-7.77 2.68-11.67 3.48-15.75 7.01-31.51 9.38-47.47.69-4.65 2.45-15.41-5.17-15.14-1.74.06-1.7 2.52 0 2.67ZM64.01 126.8c-4.05.92-8.03 2.14-11.9 3.65a70.1 70.1 0 0 0 18.73 9.67c.49.17 1.01.33 1.52.28s.98-.31 1.43-.57c2.84-1.61 5.69-3.22 8.53-4.82-4.89-3-10.01-5.62-15.3-7.82-1.01-.42-2.06-.83-3.15-.86-1.28-.03-2.5.47-3.68.96-1.22.51-2.44 1.01-3.66 1.52"/><path d="M63.59 125.27c-4.07.84-8.08 1.94-11.97 3.41-1.55.58-1.75 2.4-.44 3.36 4.77 3.49 9.95 6.32 15.44 8.5 1.34.53 2.71 1.1 4.1 1.48s2.57.16 3.82-.51c2.93-1.57 5.8-3.28 8.7-4.91 1.22-.69 1.15-2.46 0-3.16-4.36-2.67-8.89-5.07-13.56-7.15-2.1-.93-4.29-2.09-6.66-1.83-2.58.28-5.09 1.7-7.45 2.71-1.96.84-.54 4.29 1.47 3.48 1.22-.49 2.44-1 3.66-1.5.87-.36 1.79-.79 2.74-.88 1.92-.19 4.14 1.19 5.82 1.94 4.18 1.87 8.22 4.01 12.13 6.39v-3.16c-2.56 1.45-5.12 2.9-7.67 4.34-.44.25-1.04.74-1.56.79s-1.21-.34-1.67-.51c-1.23-.44-2.45-.91-3.66-1.42-4.87-2.06-9.49-4.71-13.8-7.77l-.44 3.36c3.87-1.52 7.81-2.86 11.84-3.89 1.99-.51 1.14-3.47-.84-3.06ZM32.06 46.78c-4.21.45-8.85 3.04-8.44 7.94.18 2.09 1.37 3.85 3.32 4.65 1.89.77 4.07.45 5.53-1.02 1.36-1.37-.02-3.75-1.89-3.24-2.47.68-4.18 2.89-4.44 5.41-.25 2.48 1.13 4.83 3.19 6.14 2.18 1.4 4.98 1.28 7.23.12 2.34-1.22 4.29-3.99 3.35-6.69-.68-1.97-3.89-1.78-3.81.52.11 3.34 3.08 5.6 6.32 5.44 2.9-.14 5.78-1.85 7.19-4.41s1.24-5.84-.66-8.11-5.17-2.78-7.7-1.41c-2 1.09-.53 3.76 1.45 3.44 5.11-.83 7.5-7.44 4.14-11.33-1.51-1.74-3.99-2.64-6.26-2.39-2.68.3-5.53 2.4-5.26 5.37.19 2.1 3.22 2.77 3.84.52 1.34-4.86-4.16-9.03-8.25-5.77-1.37 1.09.11 3.51 1.71 2.94 1.39-.49 3.28-.06 2.77 1.79l3.84.52c-.11-1.22 1.46-1.61 2.43-1.52s1.89.55 2.47 1.31c1.48 1.94-.34 4.57-2.43 4.93l1.45 3.44c1.02-.57 2.37-.26 3.08.66.81 1.05.77 2.6.15 3.71-.69 1.23-1.96 2.11-3.34 2.41-1.18.25-3.02 0-3.04-1.55-1.27.17-2.54.34-3.81.52.33 1.04-.94 1.94-1.78 2.28-.98.39-2.13.36-3.01-.24-1.54-1.04-1.74-3.57.23-4.31l-1.89-3.24c-.44.46-1.04.47-1.61.17-.73-.38-.95-1.2-.86-1.98.28-2.53 3.04-3.61 5.2-4.01 1.68-.31 1.32-3.19-.41-3.01m2.23 35.4c-2.47 2.9-1.66 7.73 1.93 9.35 3.9 1.76 8.18-1.22 8.67-5.24h-3.72c.23 2.97 2.68 5.19 5.66 5.3 3 .11 5.97-1.79 7.72-4.12 1.74-2.31 2.14-5.75.06-8.02-1.97-2.13-5.23-2-7.35-.24l3.28 1.36c-.14-3.98-4.81-7.03-8.59-6.78-1.94.13-3.92 1.33-4.41 3.32-.49 1.98.69 4.07 2.65 4.6 1.61.44 3.2-1.43 2.24-2.92-2.3-3.55-7.87-5.54-11.53-2.77-.73.55-1.15 1.4-.75 2.3.33.76 1.31 1.42 2.18 1.07 2.32-.94 5.17-.93 6.69 1.41.75-.97 1.49-1.94 2.24-2.92.82.23-.35.29.25.08.8-.27 1.34-.21 2.18.08 1.06.37 2.97 1.18 3.02 2.52.06 1.75 2.01 2.42 3.28 1.36.59-.5 1.62-.27 2 .36.67 1.11-.06 2.52-.84 3.34-.98 1.05-2.36 2.02-3.83 2.15-.93.08-2.34-.39-2.42-1.5-.18-2.44-3.42-2.34-3.72 0-.18 1.42-2.18 2.44-3.44 1.86-1.48-.69-1.86-2.83-1.06-4.13.9-1.44-1.25-3.18-2.39-1.85ZM57.36 38.9c2.11 0 2.11-3.28 0-3.28s-2.11 3.28 0 3.28m4.56-5.43c2.06 0 2.06-3.2 0-3.2s-2.06 3.2 0 3.2m3.53 10.59c2.08 0 2.08-3.23 0-3.23s-2.08 3.23 0 3.23M52.18 30.23c2.16 0 2.17-3.36 0-3.36s-2.17 3.36 0 3.36m76.49-14.41c.29 1.48 1.18 3.2.37 4.66-.33.59-.94.89-1.49 1.24-.69.43-1.37.92-1.9 1.55-1.97 2.35-2.62 6.78-.04 8.99.53.46 1.26.61 1.89.24.56-.33.96-1.13.72-1.76s-.53-1.26-.63-1.94c-.04-.29-.03-1.22.04-1.53.29-1.23.89-1.89 2.04-2.65 1.56-1.03 2.71-2.29 2.99-4.2.28-1.96-.28-4.06-1.3-5.74-.89-1.47-3-.47-2.68 1.13Zm11.31-.09c.74 1 .94 2.4.42 3.56-.65 1.47-2.32 2.27-3.14 3.66-.9 1.54-.88 3.33.17 4.78.38.53.92 1.03 1.19 1.63.24.54.04 1.07-.14 1.59-.38 1.05.98 2.06 1.89 1.46 1.69-1.12 2.02-3.46.94-5.14-.38-.59-1.08-1.12-1.35-1.77-.23-.57.31-1.2.68-1.59 1.32-1.4 2.7-2.58 3.02-4.59s-.26-3.74-1.56-5.22c-1-1.14-3.04.39-2.12 1.64Zm-24.81 4.14c.19.17.37.34.55.52l.24.27c.06.07.05.06-.03-.04.04.06.08.13.12.2.06.1.11.2.16.3-.1-.21-.02-.05.01.08.02.05.03.11.04.16.02.11.02.07-.01-.12 0 0 .01.33 0 .32.04-.22.04-.24 0-.07l-.02.07c-.08.27-.03.02.05-.08-.04.05-.07.14-.11.2-.03.05-.23.33-.05.09s0 0-.05.05c-.06.07-.13.13-.2.2l-.36.33c-.5.45-1.07.84-1.52 1.35-.75.86-1.16 1.85-.89 3 .18.78 1 1.25 1.76 1.15.85-.11 1.29-.77 1.39-1.57-.07.6.02.03.07-.14.08-.24.11-.04-.07.14.05-.05.08-.16.12-.22.04-.07.1-.14.14-.21-.06.11-.26.32-.07.1.12-.14.26-.27.39-.39.61-.57 1.23-1.07 1.72-1.75.62-.86.89-2.03.55-3.05-.4-1.23-1.42-2.12-2.45-2.83-.51-.35-1.26-.14-1.61.32s-.37 1.23.1 1.64ZM86.18 156.65l.38 7c3.74-.66 7.37-1.87 10.96-3.12 12.08-4.21 23.97-8.94 35.65-14.17 4.36-1.96 8.69-3.98 13.02-6.01 1.37-.64 2.79-1.32 3.73-2.5.88-1.11 1.24-2.53 1.58-3.91 4.5-18.49 9.01-36.97 13.51-55.46 1.92-7.89 3.85-16.15 1.99-24.05-.27-1.16-.9-2.54-2.09-2.59 2.29 5.47 4.52 12.01 1.34 17.01 1.66-4.04 1.13-8.91-1.38-12.49.95 4.01-.13 8.18-1.16 12.16-4.19 16.08-7.87 32.3-11.04 48.61-1.2 6.19-2.53 12.78-6.95 17.27-2.77 2.81-6.46 4.47-10.08 6.01a345.6 345.6 0 0 1-49.19 16.67l1.08 5.34"/><path d="M84.61 156.65c.08 2.33.15 4.67.23 7 .04 1.2 1.06 1.86 2.19 1.67 5.27-.92 10.31-2.8 15.32-4.61q7.65-2.76 15.21-5.79c10.05-4.04 19.92-8.48 29.71-13.1 1.94-.92 3.8-2.05 4.81-4.03 1.13-2.21 1.5-4.84 2.08-7.23 1.29-5.3 2.59-10.61 3.88-15.91 2.62-10.77 5.2-21.55 7.91-32.3 1.46-5.79 3.04-11.58 3.57-17.55.27-3.02.2-6.03-.28-9.02-.36-2.27-1.09-5.41-3.81-5.82-1.26-.19-3.04.86-2.4 2.4 1.94 4.68 4.42 10.7 1.51 15.49l3.62 1.53c1.81-4.58 1.26-9.97-1.5-14.06-1.31-1.95-4.29-.74-3.79 1.6 1 4.64-.76 9.45-1.91 13.9-1.22 4.73-2.4 9.48-3.49 14.24-2.18 9.53-4.26 19.08-6.16 28.67-1.49 7.52-2.47 16.53-9.35 21.23-3.62 2.47-7.89 4.01-11.93 5.65a348 348 0 0 1-44.12 14.57c-1.09.28-1.6 1.41-1.39 2.45.36 1.78.73 3.56 1.1 5.33.52 2.49 4.3 1.43 3.81-1.05-.35-1.78-.71-3.56-1.07-5.34-.46.82-.93 1.63-1.39 2.45 9.55-2.46 18.99-5.32 28.29-8.58q7.095-2.49 14.07-5.28c4.32-1.73 8.81-3.36 12.86-5.66 3.75-2.13 6.76-5.13 8.66-9.02 1.83-3.74 2.75-7.8 3.54-11.85 1.95-9.92 3.99-19.81 6.35-29.64 1.31-5.46 2.66-10.92 4.04-16.37 1.4-5.48 3.31-11.12 2.07-16.82-1.26.53-2.52 1.06-3.79 1.6 2.21 3.27 2.69 7.23 1.25 10.92-.84 2.14 2.5 3.39 3.62 1.53 3.52-5.83 1.25-12.75-1.17-18.53l-2.4 2.4c.35.05.28-.06.48.41.15.33.23.69.31 1.05.3 1.3.48 2.61.57 3.94.17 2.45.04 4.91-.25 7.35-.6 5.03-1.93 9.98-3.09 14.91-2.36 10.07-4.86 20.1-7.3 30.15-1.23 5.06-2.47 10.13-3.7 15.19-.61 2.5-1.18 5.02-1.83 7.51-.56 2.1-1.49 3.21-3.44 4.18-9.04 4.5-18.39 8.54-27.74 12.35-5.32 2.17-10.69 4.23-16.09 6.19-5.3 1.92-10.65 3.99-16.21 5.04.73.56 1.46 1.11 2.19 1.67-.17-2.33-.36-4.67-.54-7-.15-1.99-3.21-2.04-3.14 0Z"/><path d="M60.89 105.26c10.94 4.29 21.91 8.36 33 12.24 10.87 3.8 21.71 7.7 32.57 11.54 6.29 2.23 12.54 4.57 18.86 6.74 2.25.77 3.18-2.74.98-3.54-10.97-3.97-22.03-7.72-33.06-11.51-10.95-3.76-21.82-7.75-32.76-11.55-6.28-2.18-12.64-4.11-18.98-6.1-1.42-.45-1.93 1.66-.6 2.18Z"/></svg>