<?xml version="1.0" encoding="UTF-8"?><svg xmlns="http://www.w3.org/2000/svg" viewBox="0 0 180 180"><path d="M39.78 97.26c15.75 3.95 31.71 6.91 47.57 10.37 4.3.94 8.59 1.95 12.86 2.99.78.19 1.85-.11 2.21-.9 5.83-12.53 6.3-26.36 9.55-39.61l-1.38 1.38c15.39-4.16 30.93-7.8 46.55-11.02q6.495-1.335 13.02-2.55l-2.43-1.38c-.05-.34.13-1.02-.12-.31-.13.36-.24.72-.38 1.08-.08.21-.16.41-.25.61.21-.51-.1.23-.16.36-.26.59-.53 1.17-.8 1.76-1.41 3-2.93 5.96-4.45 8.91-3.07 5.93-6.26 11.79-9.34 17.71-.4.78-.82 1.55-1.18 2.35-.31.68-.62 1.37-.51 2.14.14.91.8 1.61 1.73 1.74.33.05.48.07.85-.04.03 0 1.26-.37.23-.11l-2.26-.92.02.03-.2-1.54c-.03.13-.37.8-.49 1.18-.24.72-.33 1.5-.39 2.26-.11 1.38.03 2.77.05 4.15h4c-.08-.65-.11-1.29-.1-1.95h-4c.94 10.11 1.82 20.26 1.88 30.42.03 4.87-.07 9.8-.82 14.62-.15.94-.08 2.26-.97 2.77s-1.84.9-2.74 1.38c-1.91 1.02-3.81 2.06-5.71 3.11-10.23 5.65-20.46 11.33-31.05 16.28-1.22.57-2.38 1.13-3.5 1.88s-2.2 1.56-3.61 1.58c-1.46.02-2.91-.5-4.3-.89-1.68-.47-3.35-.95-5.03-1.42-6.54-1.85-13.08-3.7-19.63-5.55-14.52-4.11-29.04-8.22-43.57-12.29.43 1.05.85 2.09 1.28 3.14 1.9-3.94 2.49-8.2 2.69-12.53.21-4.52.25-9.04.37-13.56.24-9.49.49-18.98.73-28.47.07-2.64-4.02-2.63-4.09 0-.27 9.16-.53 18.32-.8 27.47-.13 4.41-.23 8.83-.39 13.24-.15 3.97-.44 8.07-2.19 11.69-.6 1.23-.13 2.74 1.28 3.14 13.41 3.78 26.82 7.52 40.24 11.26l20.13 5.61c3.32.93 6.63 1.96 9.99 2.77 1.57.38 3.17.6 4.78.32 1.43-.24 2.69-.99 3.87-1.79 2.6-1.73 5.53-2.89 8.34-4.26s5.84-2.91 8.73-4.42c5.19-2.71 10.32-5.54 15.45-8.38 2.09-1.15 4.17-2.31 6.26-3.45.85-.46 1.7-.92 2.55-1.37 1.11-.58 2.38-1 3.27-1.92 1.73-1.76 1.73-5.11 1.99-7.43.28-2.5.42-5.02.49-7.54.33-11.83-.8-23.66-1.89-35.43-.23-2.52-3.96-2.62-4 0-.01.66.02 1.3.1 1.95.13 1.07.83 2 2 2 1.07 0 2.02-.92 2-2-.03-1.47-.24-3.01-.01-4.47.2-1.26 1.22-2.32.49-3.61-.44-.78-1.41-1.13-2.26-.92-.26.07-.47.21-.71.31l1.01-.27h-.05c.58.33 1.15.66 1.73.99l-.03-.04.27 1.01c0 .44 0 .22.08-.06.03-.13.37-.54-.15.36.05-.09.08-.19.13-.28.15-.31.3-.61.46-.92.45-.88.9-1.75 1.36-2.62 1.41-2.69 2.84-5.37 4.26-8.06 3.1-5.87 6.26-11.73 9.04-17.76.83-1.79 2.16-3.98 1.86-6.03-.16-1.12-1.49-1.55-2.43-1.38-15.67 2.93-31.26 6.37-46.73 10.24-4.29 1.07-8.57 2.18-12.84 3.34-.65.18-1.21.72-1.38 1.38-3.16 12.86-3.58 26.48-9.14 38.68l2.21-.9c-15.8-3.74-31.83-6.51-47.74-9.74-4.32-.88-8.63-1.79-12.92-2.78-1.91-.44-2.72 2.46-.81 2.94Z"/><path d="M101.12 110.14c16.9-6.3 33.99-12.11 51.33-17.1 2.22-.64 1.27-4.11-.96-3.47-17.36 5-34.46 10.82-51.15 17.75-1.69.7-1.01 3.48.78 2.82M78.66 69.77c-2.49-2.84-4.01-6.75-4.35-10.5-.39-4.23.61-8.06 2.59-11.77 1.2-2.24-2.05-4.14-3.4-1.99-2.59 4.12-3.57 9.42-2.93 14.21.62 4.68 2.81 8.72 5.9 12.24 1.32 1.5 3.5-.7 2.19-2.19"/><path d="M80.65 42.79a30.5 30.5 0 0 1-8.91 1.71c-2.4.09-6.26.29-8.01-1.72-1.73-1.99.71-3.76 2.26-4.82 2.38-1.64 4.79-3.25 7.33-4.65 4.63-2.55 10.07-4.36 15.37-3.05 5.4 1.33 8.4 6.07 11.2 10.49 2.88 4.53 5.64 9.67 6.13 15.11.45 5.01-1.43 9.48-4.43 13.42-3.02 3.96-6.91 7.32-10.91 10.25-3.97 2.91-10.04 5.36-10.89 10.8-.47 3.05 1.15 5.8 3.94 7.06s5.78 1.14 8.73 1.07c1.55-.04 3.14-.11 4.68.09.75.1 1.51.27 2.23.52.2.07.41.18.61.24 1.28.37-.82-.43-.45-.99-.13.2-.06 1.03-.1 1.32-.1.69-.24 1.37-.35 2.06-.28 1.73-.53 3.45-.55 5.2-.02 1.19 1.03 2.21 2.21 2.21 1.3 0 2.08-1.02 2.21-2.21.3-2.76 1.2-5.58 1.17-8.36-.03-3.21-3.32-4.02-5.97-4.39-3.04-.43-6.09-.08-9.14-.2-1.66-.06-4.88-.37-4.81-2.65.08-2.66 3.25-4.21 5.15-5.49 2.24-1.52 4.42-3.14 6.51-4.85 4.35-3.56 8.47-7.68 11.31-12.57 2.92-5.05 3.71-10.61 2.38-16.29-1.43-6.1-4.78-11.67-8.35-16.75-1.71-2.44-3.5-4.75-5.93-6.52s-5.4-2.68-8.39-2.97c-6.18-.6-12.15 1.85-17.34 4.98-1.59.96-3.13 1.99-4.67 3.04-1.36.92-2.8 1.85-3.9 3.08-2.29 2.56-2.49 6.08-.06 8.65s6.52 2.83 9.91 2.72c3.86-.13 7.52-1.08 11.04-2.64 1.62-.72.47-3.48-1.22-2.88Z"/><path d="M80.41 63.03c-.12 3.41-2.68 5.81-5.02 7.98-2.63 2.44-5.01 5.17-7.24 7.98-4.57 5.78-10.02 15.35-5.4 22.57 1.39 2.17 4.34.29 3.37-1.97-1.64-3.83-.76-7.49.87-11.18 1.52-3.44 3.7-6.51 6.04-9.43 2.06-2.56 4.32-4.94 6.38-7.5s3.62-5.18 3.65-8.45c.02-1.71-2.6-1.71-2.66 0Zm-6.95-24.57c1.8 0 1.8-2.8 0-2.8s-1.8 2.8 0 2.8m7.11-.22c1.8 0 1.8-2.8 0-2.8s-1.8 2.8 0 2.8m-15 7.29c-.73.74-1.14 1.66-1.67 2.53-.06.1-.14.2-.2.31-.08.15.15-.15-.06.07-.17.19-.34.37-.53.55-.17.16-.35.31-.52.45-.11.09-.26.21-.06.06-.1.08-.2.15-.31.23-.8.59-1.63 1.15-2.53 1.58-.08.04-.42.15-.06.03-.1.03-.19.07-.29.11-.24.08-.49.15-.73.21-.14.03-.61.19-.75.14.09.04.31-.02.04-.01-.15 0-.31.01-.46.01-.95 0-1.86.84-1.82 1.82.05 1.08.8 1.7 1.82 1.82 2.54.3 4.8-1.21 6.7-2.71.91-.72 1.74-1.48 2.38-2.45.27-.41.47-.87.67-1.31.11-.24.22-.49.35-.73.06-.11.12-.21.18-.31.17-.29-.14.14.1-.14.55-.63.67-1.65 0-2.26s-1.64-.64-2.26 0Z"/><path d="M61.52 51.66c-.13.92-.23 1.83-.21 2.76 0 .4.03.8.06 1.2l.06.62c.04.3.04.38.12.6.06.16.12.31.19.46.09.13.19.25.29.38.3.37.85.48 1.29.42s.94-.31 1.12-.73c.06-.15.12-.3.19-.44.03-.15.05-.31.06-.47.01-.11.02-.2.01-.31-.01-.18-.04-.35-.06-.53q-.06-.6-.09-1.2c-.04-.78-.06-1.57-.04-2.35s-.59-1.41-1.33-1.5c-.33-.04-.69 0-.98.18-.31.2-.65.53-.7.92Zm39.49 59.1c1.57 19.7 2.56 39.45 2.97 59.2 5.22-3.91 10.9-7.14 16.56-10.35 9.54-5.42 19.07-10.84 28.61-16.26.49-.28 1-.57 1.31-1.05.23-.35.33-.77.42-1.18a95.5 95.5 0 0 0 1.44-33.49c-.66-4.91-1.7-9.84-1.17-14.77-2.93 1.68-5.86 3.37-8.91 4.81-3.96 1.87-8.1 3.33-12.24 4.75-8.97 3.07-17.99 5.97-27.07 8.69-.13.04 0-.25.06-.12"/><path d="M99.52 110.76c.59 9.85 1.03 19.72 1.5 29.58.47 9.87.61 19.75.99 29.62.05 1.33 1.7 2.68 2.97 1.7 5.28-4.08 11.22-7.3 17.02-10.57 6.22-3.51 12.45-7.02 18.68-10.52 3.19-1.79 6.41-3.53 9.56-5.37 1.27-.74 2.18-1.66 2.62-3.09.5-1.65.75-3.44 1.04-5.13 1.18-6.83 1.66-13.78 1.37-20.72-.16-3.89-.6-7.74-1.17-11.59-.58-3.92-1.14-7.84-.74-11.81.17-1.71-1.97-2.65-3.29-1.89-3.71 2.13-7.44 4.25-11.39 5.92-3.78 1.6-7.68 2.89-11.56 4.2a757 757 0 0 1-24.75 7.9l1.69.22-.06-.04c.26 1 .53 2 .79 3l.04-.09-2.48 1.01.07.02c2.74.67 3.92-3.56 1.17-4.23l-.07-.02c-.88-.21-2.06.13-2.48 1.01l-.04.09c-.55 1.17-.23 2.23.79 3 .94.71 2.18.14 3.16-.16 1.1-.33 2.19-.66 3.28-1a711 711 0 0 0 19.59-6.31c4.33-1.47 8.44-2.86 12.55-4.59 4.13-1.75 8.03-3.92 11.91-6.15-1.1-.63-2.2-1.26-3.29-1.89-.66 6.7 1.22 13.38 1.74 20.03.51 6.56.35 13.17-.49 19.7-.2 1.56-.45 3.11-.73 4.66-.14.79-.3 1.58-.46 2.36-.15.72-.09 1.3-.64 1.72-1.24.95-2.83 1.63-4.18 2.41-1.59.91-3.17 1.82-4.76 2.73-5.91 3.39-11.82 6.79-17.73 10.17-6.39 3.66-12.72 7.33-18.71 11.62.99.57 1.98 1.13 2.97 1.7-.03-9.87-.58-19.77-1.1-29.62-.26-4.89-.53-9.79-.91-14.67s-.95-9.94-1.44-14.91c-.19-1.88-3.1-1.94-2.98 0Zm-53.51 17.42c-.8 2.31.38 5.19 2.81 5.93 2.64.8 5.06-1.16 5.38-3.73.13-1.02-1.18-1.97-2.11-1.61-.47.18-.84.34-1.17.74-.84 1-.51 2.37.74 2.82 3.13 1.11 6.3 2.16 9.52 2.96q2.445.6 4.92 1.05c2.475.45 3.48.67 5.24.58 1.81-.09 2.25-2.68.43-3.21-1.61-.47-3.29-.61-4.93-.9s-3.29-.65-4.92-1.06c-3.15-.78-6.23-1.8-9.36-2.67.34.83.67 1.65 1.01 2.48l-.2.27-2.51-1.44c-.05.47-.91.72-1.32.52-.7-.33-.72-1.27-.52-1.89.63-1.92-2.36-2.72-3.01-.83Zm3.12 14.41c5.62 1.4 11.26 3.01 16.98 3.92 1.98.31 2.84-2.44.84-3.06-5.53-1.73-11.34-2.7-17.02-3.77-1.88-.35-2.71 2.43-.8 2.91m-8.94-46.8c8.18-2.19 12.18-2.84 17.73-4.67 1.84-.61 3.69-1.47 5.62-1.3a25.4 25.4 0 0 0-1.61 9.13c-5.55-1.35-11.17-2.43-16.82-3.24"/><path d="M40.6 97.3c3.92-.97 7.87-1.77 11.78-2.75 1.57-.39 3.13-.81 4.67-1.28 2.1-.64 4.25-1.76 6.49-1.61-.59-.77-1.18-1.55-1.77-2.32-1.18 3.08-1.72 6.33-1.71 9.62l2.37-1.8c-5.57-1.34-11.2-2.22-16.85-3.12-2.49-.4-3 3.11-.47 3.44 5.49.7 10.95 1.98 16.33 3.29 1.17.29 2.37-.56 2.37-1.8 0-2.96.53-5.85 1.51-8.65.41-1.17-.65-2.28-1.77-2.32-2.41-.08-4.6.93-6.85 1.65-1.64.53-3.3 1-4.96 1.44-3.99 1.04-7.99 2.07-11.96 3.21-1.93.55-1.12 3.5.83 3.01Zm41.44-43.41c1.93.29 3.87.43 5.83.32s3.99-.27 5.77-.97c.74-.29 1.26-.99 1.03-1.82s-1.03-1.16-1.82-1.03c-1.71.28-3.35.73-5.09.85s-3.58.07-5.35-.15c-.69-.09-1.32.61-1.4 1.23s.31 1.45 1.02 1.56Zm.07 10.25c2 .21 4.01.39 6.01.47.98.04 1.97.05 2.95.05 1.14 0 2.26.09 3.32-.38.5-.22.75-.91.67-1.4-.09-.59-.46-.96-1.01-1.17-.95-.36-2.11-.15-3.1-.14s-1.97 0-2.95 0c-1.97 0-3.93-.03-5.9-.12-.73-.03-1.34.64-1.34 1.34 0 .79.62 1.27 1.34 1.34Zm-5.08 9.22c1.76.77 3.54 1.29 5.45 1.52.87.1 1.75.15 2.62.13 1.02-.02 2.08-.06 3.02-.48.59-.26.84-1.1.68-1.68-.19-.68-.77-1.01-1.43-1.09-.53-.06-.73.03-1.22.07a18.6 18.6 0 0 1-3.58-.02c-.6-.06-1.36-.19-2.1-.35-.8-.17-1.58-.4-2.36-.67-.65-.23-1.41.21-1.65.81-.23.58-.07 1.46.57 1.75Zm-7.24 9.34c2.42 1.36 5.31 2.42 8.12 2.49.5.01 1.12-.3 1.34-.77.18-.39.28-.77.16-1.19-.13-.47-.57-1.01-1.08-1.08-.4-.06-.81-.09-1.21-.15.39.06-.18-.03-.25-.04l-.4-.06c-.64-.11-1.27-.24-1.9-.42s-1.19-.36-1.78-.58c-.15-.06-.29-.11-.43-.17.29.12-.14-.07-.2-.09-.31-.14-.61-.29-.9-.44-.67-.35-1.61-.2-1.99.52s-.19 1.59.52 1.99Zm-1.46 12.8c1.02.23 2.05.51 3.1.61.33.03.78-.18 1-.41s.35-.5.39-.81 0-.64-.17-.9c-.21-.32-.48-.52-.85-.65-.22-.08-.43-.14-.66-.2l-.68-.15-1.35-.3c-.38-.08-.78-.05-1.13.15-.3.18-.59.52-.67.87-.09.37-.07.79.15 1.13.2.31.5.59.87.67Zm25.05-12.33 13.39 2.55c.34 2.15-1.99 3.74-2.7 5.8-.24.7-.29 1.45-.52 2.16-.23.7-.7 1.4-1.42 1.58-.51.13-1.05-.03-1.56-.17a36.2 36.2 0 0 0-12.25-1.3c-.75.05-1.51.12-2.23-.08s-1.41-.73-1.54-1.47c-.15-.85.45-1.64 1.01-2.3 2-2.34 4.08-4.75 6.87-6.05"/><path d="M92.93 84.77c4.45.92 8.91 1.77 13.37 2.64l-1.29-1.69c.1 1.14-.78 2.01-1.41 2.89-.87 1.22-1.32 2.41-1.65 3.86-.06.28-.09.62-.25.87s.26.13-.26.09c-.78-.06-1.62-.44-2.39-.61-1.7-.38-3.44-.64-5.17-.8s-3.44-.18-5.15-.09c-.74.04-1.43.07-2.16.01-.3-.02-.17-.33-.21-.02 0-.01.24-.36.29-.43 1.72-2.38 4.08-4.69 6.71-6.02 2.13-1.07.26-4.16-1.85-3.17-2.9 1.36-5.09 3.79-7.13 6.19-1.01 1.19-1.99 2.58-1.6 4.24.4 1.71 2.02 2.72 3.68 2.9s3.32-.11 4.96-.08c1.76.03 3.52.19 5.26.51 1.63.3 3.41 1.11 5.07 1.09 1.79-.02 3.05-1.37 3.57-2.98.24-.74.25-1.55.56-2.27.28-.65.76-1.23 1.16-1.81.89-1.29 1.68-2.74 1.48-4.36-.09-.72-.48-1.54-1.29-1.69-4.47-.84-8.94-1.68-13.42-2.46-2.08-.36-3 2.77-.88 3.21Zm-58.56 9.52c-3.87-2.79-8.02-5.15-11.83-8.04-3.76-2.85-7.28-6.01-10.56-9.39-.34 1.3-.68 2.59-1.03 3.89 18.57-6.19 37.34-11.64 56.43-15.96.22-.05 1.89-.43 1.89-.42-.02-.07-.94-.45-.91-.47-.03.02.19.59.21.64.39 1.08.96 2 1.64 2.92 1.35 1.85 2.93 3.4 4.94 4.51s3.92-2 1.86-3.18c-1.59-.91-3.07-2.26-3.71-4.02-.68-1.87-.9-4.25-3.17-4.85-1.15-.3-2.37.11-3.5.36-1.26.28-2.52.57-3.78.86-2.52.58-5.04 1.18-7.55 1.8-9.81 2.41-19.56 5.09-29.22 8.04-5.49 1.67-10.96 3.41-16.38 5.29-1.63.56-2.32 2.59-1.03 3.89a95.5 95.5 0 0 0 11.42 9.83c4.01 2.93 8.23 5.76 12.92 7.47 1.97.71 2.8-2.09 1.33-3.16Zm-4.75-45.78c-1.14-.63-2.29-1.23-3.46-1.79-.57-.28-1.14-.56-1.72-.84-.68-.33-1.4-.74-2.14-.95-.92-.25-1.88.24-2.24 1.1s-.07 1.94.78 2.37c.69.35 1.46.56 2.19.82.58.21 1.15.43 1.72.66.18.08.16.07-.05-.02.06.03.12.05.18.08.14.06.28.12.43.18.28.12.57.25.85.38.6.27 1.21.55 1.8.84.77.37 1.81.24 2.24-.59.41-.77.21-1.8-.59-2.24ZM46.59 26.9c-.85-1.47-1.77-2.87-2.78-4.22-.57-.75-1.15-1.5-1.74-2.23s-1.35-1.92-2.36-2.13c-.65-.13-1.29-.01-1.76.47-.5.5-.56 1.1-.47 1.76s.61 1.1 1.03 1.55c.28.3.55.59.82.9.55.62 1.09 1.26 1.62 1.9.12.15.24.3.36.44.06.07.12.15.18.22.12.15.18.21.02.03.26.31.49.65.73.97.5.67 1 1.34 1.49 2.02s1.48 1.12 2.29.6 1.07-1.48.6-2.29Zm27.08-11.93c-.27-.94-.56-1.88-.88-2.8-.35-1.02-.65-2.14-1.26-3.04-.48-.71-1.32-1.05-2.14-.7s-1.18 1.18-.99 2.02c.16.69.48 1.32.77 1.96.24.53.47 1.06.7 1.6l-.17-.4c.31.73.6 1.47.89 2.21.15.4.35.73.73.95.34.2.85.28 1.23.16.81-.26 1.36-1.1 1.11-1.96Zm32.41 3.94 1.63-1.92.8-.94c.36-.42.74-.83 1.04-1.29.24-.35.31-.96.18-1.36-.12-.37-.32-.68-.63-.92-.7-.54-1.68-.48-2.32.14-.3.29-.54.63-.8.95l-.79.96c-.53.64-1.05 1.28-1.58 1.92-.3.37-.51.74-.51 1.23 0 .43.19.94.51 1.23s.77.53 1.23.51.94-.16 1.23-.51Zm23.19 16.44c1.1-1.38 2.4-2.64 3.8-3.72l-.35.27c.56-.43 1.16-.82 1.72-1.25l-.35.27c.33-.26.64-.5.81-.89.25-.54.32-1.1 0-1.64-.28-.48-.84-.82-1.4-.8-.42.01-.77.08-1.14.29-.24.14-.46.33-.68.5-.26.2-.51.4-.76.61-.48.41-.95.85-1.39 1.31-.96 1-1.8 2.13-2.53 3.31-.38.61-.18 1.44.37 1.86.52.4 1.45.45 1.9-.11Zm17.54 11.57.69-.24c.25-.09.49-.18.72-.31l.33-.17c.2-.11.36-.25.48-.44.15-.16.25-.36.3-.58l.06-.45c0-.23-.04-.45-.15-.65a.8.8 0 0 0-.22-.37c-.12-.18-.28-.33-.48-.44l-.4-.17q-.45-.12-.9 0l-.35.06c-.12.02-.24.05-.35.08l-.68.21c-.23.06-.44.16-.61.32-.2.13-.35.29-.46.5-.13.21-.2.43-.21.67q-.075.36.03.72l.18.43c.16.27.37.48.64.64l.43.18q.48.135.96 0Z"/></svg>