<?xml version="1.0" encoding="UTF-8"?><svg xmlns="http://www.w3.org/2000/svg" viewBox="0 0 180 180"><path d="M108.05 51.25a474 474 0 0 1-50.86 54.95 438 438 0 0 1-16.04 14.11c.88-.11 1.75-.23 2.63-.34-5.35-2.31-10.95-3.73-16.79-3.94-4.05-.15-8.53.75-11.68 3.45-3.61 3.1-3.76 8.2-.95 11.89 3.11 4.09 8.38 6.34 13.11 7.93 5.82 1.96 12.1 2.72 18.21 2.15 2.17-.2 2.83-2.71 1.08-3.98-1.79-1.31-4.19-1.21-6.14-.32-2.12.96-3.43 2.86-4.21 4.99-.75 2.04-.98 4.31-1.21 6.46-.22 1.99-.3 4.01-.12 6 .36 3.99 1.7 7.92 4.98 10.44 3.24 2.5 7.63 2.78 11.39 1.35 3.91-1.49 7.12-4.29 9-8.04 2.15-4.28 2.76-9.11 2.86-13.85.05-2.43-.2-4.92.09-7.34.29-2.44 1.6-4.15 3.17-5.93 3.01-3.4 6.17-6.67 9.4-9.86 13.03-12.9 27.3-24.76 37.99-39.81 2.56-3.61 4.66-7.43 6.93-11.22.96-1.61 2.06-3.29 3.63-4.37 1.96-1.35 4.28-1.18 6.54-.92 10.02 1.14 20.75.38 29.99-4.01 3.67-1.74 7.15-5.01 6.62-9.42-.49-4.09-4.12-6.55-7.74-7.79-4.31-1.48-9.27-1.4-13.76-1.06-5.01.38-10.25 1.27-14.92 3.18-2.05.84-3.99 2.2-4.49 4.49-.29 1.33.63 2.87 2.13 2.8 6.8-.31 6.72-9.33 6.41-14.18-.42-6.75-2.01-13.75-5.86-19.41-3.1-4.57-8.29-9.98-14.42-8.21-6.41 1.86-8.42 9.34-8.69 15.2-.33 7.42 3.37 13.84 5.23 20.82.7 2.6 4.74 1.5 4.04-1.11-1.4-5.22-3.95-10.11-4.89-15.45-.43-2.43-.31-5.11.14-7.53.45-2.45 1.35-4.88 3.2-6.63 3.61-3.42 7.82.11 10.32 3.05 3.59 4.22 5.42 9.51 6.34 14.91.55 3.23.63 6.5.38 9.76-.1 1.32-.62 4.34-2.2 4.38l2.13 2.8c.35-1.45 2.72-1.88 3.93-2.26 2.29-.7 4.63-1.25 6.99-1.64 4.42-.73 9.14-.95 13.6-.39 2.55.32 6.41 1.32 7.59 3.92 1.36 2.99-2.3 5.22-4.56 6.25-8.43 3.85-18.21 4.42-27.28 3.36-2.23-.26-4.55-.4-6.7.38-1.83.66-3.43 1.82-4.72 3.28-2.63 2.98-4.25 6.71-6.34 10.06-8.8 14.1-21.28 25.35-33.24 36.7-6.05 5.74-12.15 11.52-17.56 17.88-1.49 1.75-2.75 3.64-3.24 5.92-.49 2.29-.38 4.61-.35 6.93.04 4.14-.12 8.35-1.49 12.31-1.18 3.4-3.44 6.34-6.79 7.81-2.74 1.2-6.1 1.29-8.46-.76-2.51-2.17-3.05-5.73-3.06-8.87 0-1.74.13-3.49.39-5.21.27-1.83.51-4.02 1.73-5.51.81-1 2.1-1.41 3.15-.61l1.08-3.98c-4.61.33-9.21 0-13.7-1.13-4.11-1.04-8.49-2.63-11.91-5.22-2.29-1.74-4.59-4.92-2.33-7.5 1.96-2.25 5.57-2.84 8.39-2.84 5.22 0 10.65 1.2 15.44 3.24.97.41 1.82.35 2.63-.34 19.13-16.36 36.91-34.18 53.06-53.5 4.56-5.46 8.96-11.04 13.26-16.71 1.08-1.42-1.38-3.34-2.49-1.92Z"/><path d="M84.27 80.08A221 221 0 0 1 59.1 47.29c-.29-.47-.59-.95-.68-1.5-.17-1.07.49-2.07 1.04-3 3.41-5.81 2.89-13.68-1.24-19-1.59-2.04-3.84-3.79-6.42-3.93-2.86-.15-5.53 1.77-7.01 4.23s-1.96 5.37-2.22 8.23c-.41 4.5-.33 9.04.22 13.53-4.37-1.35-9-2.71-13.45-1.67-4.45 1.05-8.46 5.48-7.31 9.91.69 2.66 3.06 4.65 5.67 5.53s5.44.8 8.18.51c3.4-.36 7.08-.97 10.07.69 1.42.79 2.53 2.03 3.62 3.25l22.82 25.61c.44.5.97 1.03 1.64 1.02.52-.01.95-.36 1.35-.7 3.69-3.12 5.22-6.8 8.92-9.91"/><path d="M85.45 78.91c-5.07-5.73-9.94-11.67-14.47-17.84-2.27-3.09-4.46-6.23-6.56-9.43-1.01-1.54-2.01-3.08-2.98-4.64-.34-.54-.93-1.15-.83-1.8.12-.76.9-1.61 1.24-2.3 2.86-5.82 2.63-13.04-.74-18.62-1.69-2.8-4.31-5.49-7.6-6.26-3.36-.79-6.79.58-9.06 3.1-2.79 3.08-3.58 7.21-3.94 11.22-.41 4.51-.28 9.03.19 13.53.89-.68 1.79-1.36 2.68-2.04-7.26-2.35-16.34-4.03-21.63 2.97-2.11 2.79-2.67 6.38-1.13 9.56s4.93 5.19 8.3 5.8c3.97.73 7.79-.21 11.75-.27 1.73-.03 3.45.19 4.89 1.24s2.62 2.62 3.82 3.96c5.84 6.56 11.69 13.11 17.53 19.67 1.51 1.69 2.95 3.72 4.71 5.15 2.11 1.71 4.2.63 5.92-.99 3.04-2.86 5.06-6.6 8.22-9.35 2.03-1.76-.92-4.67-2.94-2.94-2.54 2.18-4.32 4.97-6.5 7.47-.46.53-.95 1.04-1.45 1.53-.19.18-.92.65-.99.88l-.2.13c.75.18.9.11.46-.22-.12-.32-.66-.74-.89-.99l-.99-1.11c-.66-.74-1.32-1.48-1.98-2.23-5.18-5.82-10.36-11.63-15.54-17.45-2.26-2.54-4.42-5.63-7.34-7.46-2.89-1.81-6.38-1.74-9.64-1.4-3.25.34-6.83.92-9.95-.41-2.15-.91-4.13-2.97-3.76-5.46.43-2.86 3.24-4.99 5.89-5.63 4.09-.99 8.42.49 12.32 1.63 1.72.5 2.81-1.09 2.61-2.61-.5-3.72-.55-7.53-.3-11.28.2-3.15.5-6.67 2.37-9.33 1.54-2.19 4.23-3.47 6.75-2.15 2.41 1.26 4.12 3.88 5 6.39.9 2.57 1.2 5.39.69 8.08-.24 1.28-.62 2.55-1.2 3.72-.75 1.51-1.88 2.9-1.89 4.67-.01 1.72 1.11 3.14 2 4.52 1 1.54 2.02 3.08 3.07 4.59 2 2.91 4.07 5.77 6.21 8.57 4.84 6.36 10 12.44 15.57 18.18 1.5 1.54 3.75-.76 2.34-2.34Zm4.61 28.43c7.61 6.44 15.43 12.65 23.26 18.82 3.72 2.93 7.48 5.87 11.63 8.17-2.32 2.46-3.23 6.17-2.29 9.42s3.69 5.91 6.97 6.74c1.04.27 2.15.35 3.18.03 1.78-.56 2.97-2.24 3.74-3.94 1.72-3.76 2.08-8.12 1-12.1 3.86.84 7.72-1.18 11.06-3.28 2.22-1.39 4.46-2.92 5.87-5.12s1.79-5.27.24-7.38c-1.14-1.55-3.08-2.3-4.97-2.71-5.78-1.24-11.8.05-17.46 1.74-1.08.32-2.19.66-3.31.52-1.16-.15-2.19-.81-3.16-1.46a212.4 212.4 0 0 1-26.01-20.48c-2.48 3.6-5.44 6.88-8.78 9.71"/><path d="M89.04 108.35c5.43 5.29 11.44 10 17.32 14.77 5.65 4.59 11.22 9.32 17.55 12.96l-.41-3.19c-2.82 3.04-4.03 7.38-2.87 11.41 1.08 3.74 4.06 6.76 7.73 7.99 2.11.71 4.51.73 6.46-.45 1.71-1.04 2.88-2.8 3.67-4.6 1.85-4.23 2.18-8.84 1.08-13.32l-2.61 2.61c3.32.7 6.45-.06 9.46-1.53 2.74-1.33 5.54-3.05 7.78-5.14 2.17-2.02 3.68-4.7 3.78-7.71.1-3.02-1.52-5.73-4.16-7.16-2.73-1.48-6.1-1.86-9.17-1.84-3.48.03-6.95.67-10.31 1.55-1.43.38-2.96 1.06-4.44 1.22-1.4.15-2.62-.94-3.7-1.67q-4.005-2.7-7.89-5.58c-5.88-4.36-11.5-9.06-16.91-13.99-1.16-1.06-2.75-.79-3.62.47-2.38 3.45-5.21 6.54-8.37 9.29-.92.79-.81 2.36 0 3.17.91.91 2.25.79 3.17 0 3.5-2.97 6.54-6.38 9.18-10.13l-3.62.47c4.39 4.07 8.94 7.95 13.67 11.62 2.34 1.82 4.71 3.59 7.11 5.32 2.26 1.62 4.55 3.46 7.02 4.76 1.32.7 2.7 1.08 4.2.94 1.63-.15 3.19-.74 4.76-1.17 2.88-.79 5.82-1.43 8.82-1.55 2.51-.1 5.47-.04 7.76 1.15 1.99 1.03 2.34 3.16 1.45 5.13-1.16 2.57-3.94 4.19-6.24 5.6-2.5 1.53-5.56 3.24-8.61 2.71-1.55-.27-3.06.93-2.61 2.61.82 3.04.72 6.21-.26 9.2-.42 1.29-1.01 2.74-2.03 3.69s-2.43.82-3.72.36c-5.15-1.84-6.68-8.49-3.1-12.52.84-.94.8-2.53-.41-3.19-6.27-3.42-11.82-8.28-17.44-12.65-5.92-4.59-11.7-9.4-17.75-13.83-1.33-.97-2.87 1.13-1.73 2.25Z"/><path d="M71.8 90.66c-1.38-.32-2.67.38-3.28 1.65-.42.88-.21 1.81.62 2.36 1.5.99 3.35 1.2 5.09 1.46 2.04.31 4.1.56 6.15.76 4.03.38 8.09.52 12.13.34 4.01-.18 8.1-.6 12.02-1.51 1.56-.36 3.18-1.23 3.33-3.01.14-1.55-1.09-3.2-2.75-3.02-2.21.24-2.31 3.64 0 3.53l-.81-.59c.23-.5.23-.69-.02-.58-.04-.03-.69.18-.71.19-.69.16-1.4.29-2.1.41-1.48.27-2.97.48-4.46.64-3 .32-6.01.45-9.02.42-2.94-.03-5.88-.21-8.8-.52-1.5-.16-3-.36-4.49-.58-1.27-.19-2.71-.24-3.82-.94.26.65.53 1.3.79 1.95.1-.4.38-.57.69-.82.76-.61.31-1.95-.57-2.15Z"/><path d="M86.75 74.92c-3.52.62-3.39 5.22-3.43 7.91-.07 4.49.22 9.02.66 13.49.42 4.24.73 8.75 2.04 12.82.56 1.74 1.71 3.7 3.88 3.18 2.07-.5 2.77-2.97 2.12-4.78-.67-1.85-3.44-1.62-3.5.47-.02.73-.16.8.72.91.92.11.68.15.43-.54s-.41-1.34-.56-2.02c-.32-1.38-.52-2.78-.73-4.19-.44-3.08-.77-6.17-1.02-9.28-.24-3.02-.4-6.05-.51-9.08-.05-1.35-.16-2.7-.12-4.04.02-.64.01-1.9.76-2.13 1.75-.55 1.02-3.02-.75-2.71Zm20.46 18.76c3.74-2.84 7.77-5.25 12.03-7.24 2.01-.94 4.08-1.79 6.25-2.25 1.13-.24 2.28-.36 3.43-.27.4.03 1.1.04 1.45.27-.44-.29-.14-.23-.42.31-1.63 3.18-6.21 4.51-9.4 5.24-4.53 1.04-9.32 1.74-13.97 1.6-2.22-.07-2.65 3.28-.52 3.85 3.36.9 6.58 2.17 9.62 3.86 2.17 1.21 5.15 2.97 5.14 5.8l1.41-1.86c-3.59 1.44-7.31-.09-10.37-2.08-3.27-2.12-6.21-4.87-8.58-7.97-.65-.84-1.69-1.29-2.69-.71-.83.48-1.36 1.84-.71 2.69 2.88 3.75 6.31 7.1 10.35 9.59 3.82 2.35 8.65 3.92 13.02 2.18.81-.32 1.4-.94 1.41-1.86.03-3.84-2.86-6.62-5.92-8.51-3.59-2.21-7.59-3.83-11.65-4.93-.17 1.28-.35 2.57-.52 3.85 4.51.16 9.11-.56 13.53-1.42 3.78-.74 7.55-1.95 10.57-4.42 1.44-1.17 2.89-2.75 3.25-4.63.43-2.19-.9-3.98-3.03-4.47-4.55-1.05-9.13.78-13.16 2.71-4.5 2.16-8.66 4.93-12.52 8.09-1.41 1.16.5 3.67 1.97 2.55ZM24.69 72.47c-1.12-.64-2.24-1.28-3.37-1.92-.55-.31-1.11-.62-1.65-.94-.64-.38-1.3-.88-2.03-1.07s-1.63.12-1.99.81-.32 1.6.28 2.13c.55.5 1.25.78 1.92 1.11.59.29 1.17.6 1.75.91l3.45 1.78c.75.39 1.8.22 2.22-.58s.21-1.77-.58-2.22ZM21.9 87.06c-1.27-.02-2.54 0-3.81.03-.63.02-1.27.05-1.9.09-.72.04-1.51.02-2.2.23-.81.24-1.32 1.02-1.21 1.85s.81 1.41 1.66 1.46c.28.02.54-.03.82-.07.05 0 .51-.07.28-.04s.31-.04.36-.05c.15-.02.29-.04.44-.05.61-.07 1.22-.14 1.83-.2 1.24-.12 2.49-.21 3.73-.27.78-.04 1.53-.66 1.49-1.49s-.66-1.48-1.49-1.49m2.2 15.51-2.1.5c-.7.17-1.41.31-2.09.52-.42.13-.81.41-1.03.79s-.31.92-.17 1.33.39.82.79 1.03c.42.22.86.27 1.33.17.7-.15 1.39-.37 2.08-.56l2.07-.58c.4-.11.78-.4.99-.76s.3-.88.17-1.28c-.29-.88-1.14-1.38-2.05-1.16Zm131.09-28.19c2.15-.69 4.25-1.59 6.1-2.9.34-.24.6-.52.71-.93.1-.37.06-.87-.16-1.2-.45-.69-1.39-1.01-2.13-.56-.89.55-1.8 1.08-2.71 1.58-.45.25-.91.48-1.37.7-.23.11-.46.22-.7.32-.07.03-.5.23-.13.06-.13.06-.26.11-.38.16-.36.14-.65.31-.85.66-.18.31-.26.76-.14 1.1.23.71 1 1.24 1.76 1Zm1.56 13.47c.49-.08.98-.18 1.48-.23-.42.05-.03 0 .05 0 .11-.01.23-.03.34-.04.25-.03.49-.05.74-.08.97-.09 1.94-.15 2.91-.25.42-.04.79-.14 1.09-.45.27-.27.47-.71.45-1.09-.04-.85-.68-1.53-1.55-1.55-2.11-.03-4.26.35-6.32.79-.77.16-1.29 1.11-1.05 1.85.27.84 1.02 1.2 1.85 1.05Zm-1.43 12.06.04.04-.22-.28c.21.34.47.53.78.77.13.1.27.18.42.26.4.19.81.36 1.24.47s.87.17 1.3.2.93-.05 1.37-.14c.37-.07.75-.4.93-.71.2-.33.28-.82.16-1.2s-.35-.74-.71-.93l-.37-.16c-.28-.07-.55-.07-.83 0-.04 0-.08.01-.12.02l.41-.06c-.5.06-1.01.06-1.51 0l.41.06c-.43-.06-.84-.17-1.23-.34l.36.15c-.26-.11-.52-.21-.78-.32l.35.15c-.2-.09-.4-.2-.61-.24l.33.14-.05-.03c-.6-.33-1.35-.19-1.77.35-.39.51-.41 1.36.11 1.81Zm1.81 8.8-.25-.17-.36-.15q-.3-.09-.6-.03a.7.7 0 0 0-.38.1c-.19.06-.35.16-.49.31l-.24.31-.15.36q-.09.3-.03.6c0 .2.07.39.18.56l.17.25c.14.23.33.42.56.56.24.14.51.21.79.21l.42-.06c.26-.07.49-.21.69-.4.15-.14.26-.31.32-.5.1-.19.14-.39.13-.6 0-.28-.07-.54-.21-.79-.14-.23-.33-.42-.56-.56ZM70.84 14.76c2.91-2.13 6.63-3.66 10.28-2.77 3.01.73 5.7 3.36 5.23 6.68-.21 1.46-1.21 2.66-2.39 3.48s-2.88 1.74-4.31 1.6c-1.77-.17.53-2.07 1.1-2.42 1.69-1.05 3.45-2.02 5.24-2.9 1.94-.96 3.96-1.75 6.08-2.21 2.32-.5 4.51-.28 6.85-.1 1.82.14 1.8-2.33.39-2.92-2.5-1.03-5.55-.73-8.13-.2-2.7.55-5.26 1.65-7.71 2.89-2.24 1.13-5.11 2.31-6.78 4.24-1.64 1.89-1.86 5.01.4 6.54 1.89 1.28 4.32.73 6.28-.08 2.22-.92 4.3-2.34 5.54-4.44 2.49-4.2.55-9.56-3.42-12.04-5.26-3.28-11.52-1.28-16.14 2.1-1.53 1.12-.05 3.69 1.5 2.56Zm-4.62 150.33c4.6 2.26 10 2.06 14.7.16 4.16-1.68 9.19-4.71 9.85-9.59.63-4.7-3.34-8.96-8.14-7.22-4.98 1.81-6.52 8.26-5.28 12.96 1.27 4.81 6.84 7.63 11.2 9.06 4.73 1.55 9.99 1.62 14.57-.46 4.23-1.92 8.09-6.28 6.66-11.23-.65-2.25-2.43-4.03-4.76-4.45-2.22-.4-4.54.42-5.71 2.43-1.24 2.14-.83 4.97.58 6.92 1.64 2.27 4.34 3.47 6.96 4.18 3.01.82 6.08 1.07 8.99-.24 2.57-1.16 4.71-3.25 6.59-5.31 1.12-1.23-.63-3-1.83-1.83-2.69 2.61-5.48 5.52-9.54 5.22-1.91-.14-3.88-.87-5.6-1.69-1.42-.68-2.88-1.64-3.38-3.22-.37-1.16-.21-2.74 1.13-3.15 1.43-.44 2.83.52 3.3 1.86 1.16 3.36-2.04 6.14-4.74 7.42-3.15 1.49-6.86 1.6-10.22.85-3.39-.76-7.07-2.34-9.53-4.86-2.36-2.42-2.2-7.48-.07-10.05.88-1.06 2.49-1.85 3.87-1.32s1.82 2.09 1.74 3.4c-.25 3.76-4.77 6.26-7.83 7.54-3.88 1.62-8.34 2.27-12.29.51-1.4-.62-2.64 1.4-1.22 2.09Zm-15.64-40.84c.82 1.43 1.72 2.83 2.75 4.11.2.24.66.41.96.4s.58-.1.82-.29c.22-.17.42-.42.49-.71.08-.33.08-.76-.14-1.05-.28-.38-.57-.77-.86-1.14l.21.28c-.72-.93-1.4-1.9-2.03-2.89-.36-.56-1.16-.85-1.75-.46s-.82 1.13-.46 1.75Zm5.69-5.75c.37.73.76 1.46 1.18 2.16.45.78.91 1.6 1.54 2.25.47.48 1.24.5 1.75.1.55-.42.64-1.12.34-1.72-.35-.72-.88-1.36-1.32-2.03s-.86-1.37-1.27-2.07c-.34-.59-1.18-.84-1.76-.46-.62.4-.79 1.12-.46 1.76Zm7.41-.45c1.91 0 1.91-2.97 0-2.97s-1.91 2.97 0 2.97m43.55-47.75v-.21a.83.83 0 0 0-.1-.47.9.9 0 0 0-.25-.39.9.9 0 0 0-.39-.25.96.96 0 0 0-.47-.11l-.33.04c-.21.06-.39.16-.54.32l-.19.25c-.11.19-.17.4-.17.62v.21c0 .17.04.32.11.47.05.15.13.28.25.39.11.12.24.2.39.25.15.08.3.11.47.1l.32-.04c.21-.06.39-.16.54-.31l.19-.25c.11-.19.17-.4.17-.62m.58-8.38c.1.2.2.4.3.61.04.1.09.19.13.29.02.06.05.11.07.17-.08-.19-.09-.22-.03-.08a17 17 0 0 1 .79 2.39c.13.52.21 1.06.47 1.55.27.51.99.81 1.54.63.62-.2.93-.69 1-1.32.04-.32-.05-.68-.12-1-.05-.21-.1-.41-.16-.61-.12-.44-.26-.87-.41-1.29-.34-.93-.74-1.84-1.22-2.71-.34-.63-1.26-.88-1.87-.49-.65.42-.84 1.19-.49 1.87Zm5.59-4.83c.15.15.28.31.42.47.11.13-.17-.22-.07-.09l.09.12c.06.09.13.18.19.28.23.35.42.73.59 1.12l-.14-.32c.24.58.4 1.17.48 1.79l-.05-.37c.03.27.08.54.11.81l-.05-.37c0 .07.02.15.03.22.04.37.13.7.4.97.24.24.63.42.97.4.74-.03 1.38-.6 1.38-1.38-.02-2.05-1.04-4.1-2.5-5.51-.49-.47-1.36-.53-1.85 0s-.5 1.32 0 1.85Zm8.17-.14h.21c.19 0 .37-.03.53-.12.17-.06.32-.15.45-.29.13-.13.23-.27.29-.45.09-.16.13-.34.12-.53l-.05-.37c-.07-.23-.18-.44-.36-.61l-.28-.22a1.34 1.34 0 0 0-.7-.19h-.21c-.19 0-.37.03-.53.12-.17.06-.32.15-.45.29-.13.13-.23.27-.29.45-.09.16-.13.34-.12.53l.05.37c.07.23.18.44.36.61l.28.22c.22.13.45.19.7.19"/></svg>