<?xml version="1.0" encoding="UTF-8"?><svg xmlns="http://www.w3.org/2000/svg" viewBox="0 0 180 180"><path d="M26.7 101.48c-1.17-6.03-1.89-12.31-1.74-18.46.03-1.24.22-2.44 1.03-3.42s1.95-1.68 3.03-2.35c2.55-1.58 5.25-2.92 7.97-4.17 5.79-2.66 11.64-5.19 17.46-7.77 5.75-2.55 11.47-5.17 17.28-7.58s11.38-4.56 17.34-5.87c5.95-1.31 12.02-1.13 18.01-.15 6.12 1 12.15 2.56 18.17 4.05 5.84 1.45 11.65 3.05 17.27 5.19 2.54.97 5.49 1.94 7.62 3.69s2.55 4.48 3.15 6.97c1.41 5.83 2.77 11.67 3.85 17.56 2.09 11.48 3.1 23.49.39 34.95-.64 2.71-1.42 5.48-2.58 8.01-1.25 2.73-3.14 4.6-5.61 6.25-4.96 3.32-10.2 6.24-15.5 8.96-10.88 5.59-22.19 10.32-33.37 15.24-5.21 2.29-10.77 5.38-16.62 5.25-5.77-.13-11.21-3.23-16.43-5.35-5.68-2.32-11.52-4.19-17.48-5.67-2.89-.72-5.81-1.28-8.73-1.89-2.4-.5-5.15-1.1-6.99-2.84-1.43-1.35-2.64-3.19-1.98-5.22.82-2.53-3.16-3.61-3.98-1.1-.85 2.61-.34 5.43 1.17 7.72 1.66 2.53 4.26 4.03 7.08 4.97 2.84.95 5.86 1.34 8.77 1.98q4.725 1.035 9.36 2.4c6.21 1.83 12.16 4.19 18.15 6.61 2.87 1.16 5.78 2.13 8.87 2.52s6.31-.02 9.34-.93c3.08-.93 6.02-2.31 8.95-3.61s5.94-2.64 8.92-3.96c6.03-2.68 12.08-5.33 18.05-8.15 5.77-2.72 11.49-5.59 17.02-8.78 5.31-3.06 11.59-6.2 14.39-11.95 2.69-5.52 3.95-11.82 4.56-17.88s.4-12.53-.32-18.75c-.74-6.37-1.94-12.68-3.34-18.93-.7-3.14-1.45-6.27-2.21-9.39-.68-2.78-1.53-5.6-3.68-7.61-2.22-2.08-5.2-3.19-7.97-4.32-3.04-1.23-6.14-2.29-9.28-3.24-6.16-1.86-12.44-3.33-18.7-4.79-6.46-1.51-13.07-2.87-19.74-2.84-6.56.03-12.87 1.71-19.01 3.89-6.13 2.18-12.09 4.81-18.03 7.45-6.37 2.83-12.74 5.65-19.11 8.48-5.64 2.5-11.74 4.79-16.68 8.57-2.58 1.97-3.81 4.53-3.8 7.79s.47 6.65.91 9.91.99 6.3 1.63 9.41c.43 2.06 3.55 1.18 3.15-.87Z"/><path d="M24.82 80.56c9.55 1.72 18.88 4.6 28.4 6.5 4.64.92 9.29 1.85 13.77 3.41 3.79 1.32 7.73 3.1 9.75 6.76 2.05 3.71 2.96 8.22 4.02 12.28 1.23 4.74 2.22 9.55 2.93 14.4 1.41 9.58 1.65 19.36.63 28.99-.29 2.72-.73 5.41-1.26 8.09-.27 1.35-.56 2.7-.88 4.04-.09.39-.6 1.51-.47 1.9.08.24-.11-.02.05-.12.25-.15.07-.09.16-.19.2-.24.03.03-.02-.01-.04-.03.38-.04-.1 0-.02 0-.3.05-.09.02.24-.03-.28.01-.32 0-.65 0-1.28-.05-1.93-.15-2.31-.36-4.58-1.02-6.82-1.66-2.43-.69-3.48 3.12-1.04 3.78 2.16.59 4.33 1.17 6.53 1.54 1.47.24 3.04.5 4.53.17 1.23-.27 2.25-1 2.66-2.21.79-2.31 1.08-4.94 1.48-7.35 1.69-10.31 2.12-20.76 1.11-31.16-.99-10.15-3.02-20.46-6.45-30.08-.73-2.06-1.62-4.07-2.96-5.81-1.36-1.75-3.19-3.09-5.13-4.13-4.25-2.29-9.05-3.53-13.74-4.55-5.7-1.24-11.42-2.28-17.1-3.62-5.76-1.35-11.5-2.51-17.37-3.27-1.36-.18-1.68 2.16-.33 2.41Z"/><path d="M40.02 103.42c-4.97-2.22-10.81-3.69-16.28-2.8-5.12.83-8.52 4.9-10.68 9.35-2.21 4.55-3.21 9.57-3.3 14.61-.08 4.57.44 9.36 2.49 13.5.96 1.94 2.37 3.65 4.2 4.82 2.21 1.41 4.95 1.83 7.47 2.41l8.24 1.89c2.75.63 5.36 1.49 8.06 1.16 5.14-.63 8.58-5.03 10.07-9.69 1.57-4.9 1.78-10.42 1.21-15.5-.33-2.97-.92-5.9-1.83-8.75-.87-2.7-1.89-5.76-3.72-7.98s-4.97-2.98-7.62-3.86c-2.99-.99-6.04-1.75-9.16-2.22-.98-.15-1.95.25-2.25 1.28-.26.9.31 2.05 1.28 2.25 4.49.93 9.29 1.99 13.37 4.18 1.83.98 2.58 3.09 3.3 4.93.84 2.13 1.5 4.32 1.97 6.56.92 4.35 1.09 8.91.5 13.32-.52 3.91-1.64 8.49-5.3 10.63-1.78 1.04-3.59.92-5.54.5-2.43-.53-4.85-1.07-7.27-1.61s-4.83-1.03-7.23-1.59c-1.96-.46-3.74-1.09-5.07-2.67-2.26-2.69-2.62-6.62-2.82-9.98-.26-4.29.05-8.58 1.34-12.69 1.21-3.87 3.59-8.95 7.74-10.36 2.4-.82 5.18-.67 7.67-.45 2.7.24 5.38.83 7.96 1.66 1.68.54 2.88-2.16 1.22-2.9Zm37.28-8.86c18.8-9.01 38.19-16.88 58.01-23.33 5.61-1.83 11.26-3.54 16.94-5.14 2.23-.63 1.28-4.12-.96-3.48-20.26 5.76-40.18 12.89-59.4 21.53-5.45 2.45-10.81 5.07-16.15 7.76-1.79.9-.22 3.53 1.56 2.67Zm3.55-25.03c1.57.7 3.19.89 4.88.58 1.62-.29 3.3-1.16 4.16-2.6.36-.6.27-1.51-.26-2s-1.38-.68-2-.26l-.36.24c-.17.11-.32.23-.48.36l.2-.16-.36.28-.15.12c.36-.32.18-.14.08-.07-.12.09-.25.17-.37.24-.24.15-.57.24-.79.41.05-.04.36-.14.14-.06-.08.03-.16.06-.23.09-.14.05-.28.09-.43.13l-.39.09c-.08.02-.16.03-.24.04-.21.05.36-.04.15-.02-.3.03-.59.05-.89.04-.15 0-.3-.02-.44-.03-.29-.02.28.05.08.01l-.2-.03c-.31-.06-.61-.14-.91-.25-.72-.26-1.55.24-1.82.9s-.07 1.62.63 1.93Z"/><path d="M87.96 67.42c-.32-1.78-1.12-3.52-1.81-5.18s-1.42-3.41-2.19-5.1c-1.55-3.42-3.24-6.79-5-10.1-1.72-3.25-3.51-6.47-5.45-9.6q-1.455-2.34-2.97-4.65c-1.03-1.56-2.03-3.42-3.67-4.42-1.38-.84-2.8.54-2.54 1.95.33 1.76 1.68 3.34 2.65 4.82s1.98 3.1 2.95 4.66c1.89 3.07 3.75 6.15 5.5 9.3s3.41 6.34 4.99 9.58c.81 1.65 1.62 3.3 2.4 4.96s1.45 3.41 2.46 4.9c.96 1.4 2.98.52 2.68-1.13Z"/><path d="M65.31 29.2c-2.79.62-5.72.82-8.48.13-2.77-.69-5.37-2.34-6.81-4.81-3.5-6.02 1.12-12.1 6.98-13.9 3.74-1.15 8.53-.74 11.69 1.71 5.31 4.12 2.66 13.55-2.82 16.26"/><path d="M64.89 27.65c-4.29.66-9.58.32-12.52-3.31-2.47-3.05-1.64-6.79 1.03-9.31 2.75-2.59 6.85-3.52 10.5-2.66 1.71.4 3.36 1.16 4.45 2.5-.22-.27.2.29.19.27.12.18.22.36.32.55-.03-.05.27.57.17.33s.14.4.12.35c.32.95.36 1.25.37 2.2.02 1.6-.4 3.34-1.15 4.78-.83 1.6-1.89 2.8-3.44 3.63-2.14 1.14-.26 4.27 1.88 3.22 3.92-1.92 6.38-6.29 6.78-10.53.2-2.16-.22-4.46-1.32-6.34-1.29-2.2-3.44-3.63-5.8-4.51-5.03-1.87-10.94-.8-15.11 2.49-4.26 3.37-5.94 9.08-3.28 13.97 1.5 2.75 4.17 4.64 7.1 5.63 3.45 1.16 7.09.78 10.53-.17.83-.23 1.35-1.14 1.12-1.97-.25-.91-1.11-1.25-1.97-1.12ZM25.68 80.72c.28 6 1.3 11.97 3.01 17.72 3.84 1.27 7.68 2.54 11.51 3.84 2.02.69 4.08 1.41 5.77 2.72 3.98 3.1 4.95 8.61 5.6 13.61.63 4.88 1.24 9.82.7 14.71s-2.33 9.8-5.87 13.22c-.53.51-1.11 1-1.79 1.29-.86.38-1.83.43-2.77.47-3.04.14-6.08.27-9.11.41 1.28 2.34 3.38 4.22 5.84 5.23 1.77.73 3.69 1.01 5.58 1.33 12.59 2.16 24.8 6.53 35.9 12.83 3.27-9.5 4.01-19.69 3.94-29.74-.04-5.13-.29-10.31-1.53-15.29-.99-3.96-2.6-7.75-3.46-11.74-.76-3.54-.95-7.27-2.51-10.55-1.79-3.77-5.25-6.54-9.02-8.32s-7.89-2.69-11.96-3.62c-9.79-2.23-19.53-4.66-29.22-7.28"/><path d="M24.22 80.72c-.04 3.32.25 6.62.8 9.89q.39 2.34.93 4.65c.18.77.38 1.53.57 2.3.21.84.29 1.81 1.02 2.37 1.15.89 3.18 1.23 4.55 1.7 1.61.55 3.22 1.09 4.83 1.63 2.74.92 6 1.64 8.2 3.62 3.81 3.42 4.18 9.43 4.75 14.18.73 6.08 1.21 12.52-1.13 18.33-.57 1.42-1.34 2.82-2.27 4.03-.71.93-1.65 2.13-2.78 2.58-1.51.6-3.61.32-5.21.39-1.92.08-3.84.14-5.76.21-1.6.06-2.62 1.74-1.82 3.17 2.06 3.69 5.55 6.06 9.63 6.99 4.46 1.01 8.96 1.65 13.39 2.86 8.78 2.39 17.11 5.92 25.08 10.3 1.22.67 2.65.05 3.07-1.25 2.59-7.94 3.82-16.15 4.08-24.49.27-8.54.03-17.11-2.57-25.31-1.24-3.91-2.38-7.72-3.05-11.78-.65-3.91-1.66-7.55-4.18-10.69-4.98-6.2-13.08-8.13-20.45-9.83-9.7-2.24-19.36-4.64-28.97-7.24-2.89-.78-4.12 3.7-1.23 4.47 8.1 2.19 16.24 4.26 24.41 6.17 7.03 1.64 15.41 2.54 21.03 7.52 2.65 2.35 3.97 5.21 4.66 8.65.77 3.81 1.38 7.52 2.59 11.23 1.27 3.9 2.47 7.76 2.93 11.86.45 4.03.5 8.1.46 12.15-.08 8.8-.78 17.81-3.73 26.16l3.07-1.25c-7.62-4.42-15.87-7.84-24.32-10.3a115 115 0 0 0-12.73-2.89c-1.98-.34-4.02-.66-5.78-1.68-1.58-.91-2.82-2.22-3.73-3.79-.61 1.06-1.21 2.11-1.82 3.17 3.04-.16 6.08-.3 9.11-.46 1.31-.07 2.6-.19 3.8-.75 1.12-.53 2.06-1.43 2.89-2.33 3.44-3.79 5.14-8.73 5.73-13.75.68-5.84-.16-11.88-1.07-17.66-.71-4.5-2.1-9.31-5.81-12.27-2.47-1.97-5.54-2.86-8.48-3.85-3.21-1.08-6.43-2.21-9.69-3.14l1.33 1.33c-1.88-5.55-2.73-11.42-3.39-17.22-.21-1.82-2.9-1.93-2.92 0Z"/><path d="M15.98 112.34c4.24-.62 8.43.41 12.54 1.34 1.69.38 3.37.69 4.4 2.23 1.03 1.55 1.53 3.52 1.94 5.31.92 4 1.14 8.19 1.18 12.29.02 2.05 0 4.12-.17 6.17-.12 1.49-.4 3.41-2.13 3.74-2.24.43-1.3 3.89.95 3.44 5.07-1.03 4.66-7.51 4.62-11.43-.05-5-.46-10.12-1.53-15.01-.48-2.18-1.14-4.52-2.4-6.39-1.25-1.87-3-2.77-5.14-3.28-4.9-1.18-10-2.06-15.02-1.17-1.84.33-1.03 3.04.76 2.77Zm83.58-.46c2.46 1.21 4.94 2.39 7.44 3.53q1.845.84 3.69 1.65c.64.28 1.29.55 1.93.82s1.37.67 2.1.8c1.85.32 2.89-1.94 1.28-3.04-.59-.4-1.32-.61-1.99-.88-.63-.25-1.25-.51-1.87-.76-1.2-.5-2.41-.99-3.61-1.5-2.49-1.05-4.97-2.15-7.42-3.27-.76-.35-1.66-.21-2.11.55-.4.68-.2 1.74.55 2.11Z"/><path d="M105.26 123.56c1.96-2.73 3.76-5.56 5.34-8.53.79-1.48 1.53-2.98 2.22-4.51s1.66-3.27 1.84-4.98c.08-.74-.6-1.49-1.27-1.67-.78-.21-1.51.16-1.96.8-.49.7-.73 1.65-1.05 2.45-.29.73-.58 1.47-.89 2.19a83 83 0 0 1-6.85 12.72c-.45.68-.14 1.68.54 2.07.76.45 1.59.12 2.07-.54Zm26.61-24.13c2.46 1.21 4.94 2.39 7.44 3.53q1.845.84 3.69 1.65c.64.28 1.29.55 1.93.82s1.37.67 2.1.8c1.85.32 2.89-1.94 1.28-3.04-.59-.4-1.32-.61-1.99-.88-.63-.25-1.25-.51-1.87-.76-1.2-.5-2.41-.99-3.61-1.5-2.49-1.05-4.97-2.15-7.42-3.27-.76-.35-1.66-.21-2.11.55-.4.68-.2 1.74.55 2.11Z"/><path d="M137.57 111.11c1.96-2.73 3.76-5.56 5.34-8.53.79-1.48 1.53-2.98 2.22-4.51.71-1.56 1.66-3.27 1.84-4.98.08-.74-.6-1.49-1.27-1.67-.78-.21-1.51.16-1.96.8-.49.7-.73 1.65-1.05 2.45-.29.73-.58 1.47-.89 2.19a83 83 0 0 1-6.85 12.72c-.45.68-.14 1.68.54 2.07.76.45 1.59.12 2.07-.54Zm-.44 8.09c-6.63 2.62-13.12 5.59-19.74 8.24-3.11 1.25-6.47 2.45-8.65 5.15-2 2.48-2.92 6.1-1.28 9.01 1.52 2.71 4.82 3.98 7.82 3.77 3.56-.25 6.84-1.93 9.95-3.55 3.24-1.69 6.52-3.3 9.72-5.08 2.73-1.52 5.61-3.03 7.59-5.53s3.22-6.47 2.06-9.62c-1.2-3.28-4.65-3.26-7.5-2.45-1.92.55-1.12 3.48.83 3 .82-.2 1.81-.37 2.65-.12.94.28.96 1.28.91 2.14-.11 2.23-1.18 4.22-2.83 5.69-1.99 1.77-4.58 2.97-6.9 4.23-2.55 1.38-5.15 2.64-7.72 3.98-2.51 1.3-5.03 2.68-7.83 3.23-1.83.36-4.54.11-5.37-1.89-.9-2.17.88-4.46 2.53-5.66 2.17-1.58 4.8-2.48 7.24-3.57 5.93-2.66 11.72-5.62 17.68-8.22 1.53-.67.43-3.35-1.15-2.73Zm-119.34 5.73c.85.22 1.7.38 2.57.5s1.74.2 2.62.14c.7-.05 1.37-.58 1.34-1.34s-.59-1.31-1.34-1.34c-.8-.03-1.6-.04-2.4-.11l-.61-.06c-.09 0-.38-.03-.02 0-.09 0-.19-.03-.28-.04-.4-.06-.81-.14-1.2-.22-.65-.14-1.42.19-1.58.89s.2 1.39.89 1.58Zm0 6.39c.85.22 1.7.38 2.57.5s1.74.2 2.62.14c.7-.05 1.37-.58 1.34-1.34s-.59-1.31-1.34-1.34c-.8-.03-1.6-.04-2.4-.11l-.61-.06c-.09 0-.38-.03-.02 0-.09 0-.19-.03-.28-.04-.4-.06-.81-.14-1.2-.22-.65-.14-1.42.19-1.58.89s.2 1.39.89 1.58Zm137.92-59.01c1.65-.52 3.37.52 4.7 1.64 3.76 3.19 6.62 7.56 7.46 12.41s-.5 10.16-3.96 13.66c-.11.11-.24.23-.39.23-.16 0-.29-.12-.4-.23-1.15-1.3-.87-3.26-.89-4.99-.02-1.51-.32-3-.61-4.49l-3.09-15.41"/><path d="M156.15 73.92c1.22-.24 2.4.88 3.23 1.62.99.89 1.92 1.87 2.73 2.92 1.59 2.04 2.84 4.36 3.51 6.87 1.18 4.45.34 10.26-3.31 13.43l.88-.52-.21.07h1.07l-.22-.07.88.52c-1.01-.92-.44-3.4-.55-4.64-.18-2.11-.7-4.19-1.12-6.26-.91-4.41-1.77-8.83-2.66-13.24-.49-2.42-4.19-1.4-3.71 1.02 1.04 5.21 2.11 10.42 3.1 15.64.22 1.17.43 2.33.46 3.52.02 1.09-.07 2.17.06 3.25.22 1.93 1.52 4.87 3.97 4.06 1.03-.34 1.75-1.38 2.38-2.21s1.22-1.75 1.68-2.72c.92-1.94 1.46-3.96 1.69-6.09.47-4.3-.74-8.71-2.97-12.38a24 24 0 0 0-4.69-5.57c-1.96-1.72-4.38-3.23-7.08-2.43-2.07.61-1.2 3.62.88 3.21m-38.91 55.16c-.39 2.04-.54 4.11-.6 6.18-.06 2.04-.23 4.22.24 6.22.14.59.75 1.02 1.34 1.02.56 0 1.26-.43 1.34-1.02.29-2.01.08-4.07.12-6.1s.15-3.97.14-5.95c0-1.43-2.29-1.84-2.58-.35m7.94-3.54c.03 2.03 0 4.06-.05 6.09-.04 2.02-.27 4.06-.15 6.09.04.73.53 1.35 1.27 1.44.68.08 1.46-.33 1.61-1.05.42-2.08.4-4.24.41-6.36s-.09-4.14-.25-6.21c-.06-.77-.61-1.42-1.42-1.42-.76 0-1.43.65-1.42 1.42m8.25-2.51c.16 1.9.21 3.82.13 5.72-.08 1.91-.26 3.8-.36 5.71-.09 1.68 2.51 2.01 2.92.39.96-3.81.85-7.94.41-11.82-.09-.83-.64-1.55-1.55-1.55-.78 0-1.62.71-1.55 1.55M55.28 75.21c1.96 0 1.96-3.05 0-3.05s-1.96 3.05 0 3.05m8.04-5.51c1.77 0 1.77-2.75 0-2.75s-1.77 2.75 0 2.75m-.84 9.47c2.1 0 2.1-3.27 0-3.27s-2.1 3.27 0 3.27m7.37-4.59c2.02 0 2.02-3.14 0-3.14s-2.02 3.14 0 3.14"/></svg>