<?xml version="1.0" encoding="UTF-8"?><svg xmlns="http://www.w3.org/2000/svg" viewBox="0 0 180 180"><path d="M61.1 34.78c-3.66 1.5-7.23 3.46-10.3 5.96-3.12 2.54-5.84 5.51-8.25 8.72-4.77 6.37-8.2 13.8-10.04 21.54-.25 1.05.19 1.99 1.05 2.58 3.29 2.26 6.63 4.46 9.96 6.66-.14-1.12-.29-2.24-.43-3.36-2.85 3.46-5.8 6.84-8.72 10.24-.75.87-.86 2.13 0 3l4.27 4.29-.33-2.59c-1.45 1.92-3.84 2.96-5.72 4.37-2.33 1.75-4.2 3.86-4.44 6.89-.15 1.91.53 3.77 1.13 5.54.54 1.6 1.09 3.21 1.66 4.8 1.16 3.25 2.4 6.48 3.82 9.62 2.8 6.2 6.48 12.18 11.59 16.74 2.74 2.44 5.78 4.51 8.75 6.66 2.83 2.06 5.35 4.33 7.79 6.83 2.47 2.54 5.18 4.71 8.72 5.47 3.94.85 8.16.8 12.17.99 8.29.38 16.58.49 24.88.34 4.15-.08 8.29-.22 12.44-.42 3.71-.18 8.03.04 10.73-2.98 1.1-1.23 1.81-2.72 2.81-4.03.86-1.12 1.94-2.12 3.06-2.98 2.49-1.9 5.3-3.34 7.99-4.92 5.92-3.47 10.7-8.16 14.16-14.1 3.71-6.37 5.75-13.56 6.82-20.81 1.09-7.39 1.52-14.95 1.34-22.42-.17-6.89-.99-13.88-3.13-20.46-2.21-6.79-5.85-12.9-10.87-17.99-2.56-2.6-5.38-4.9-8.29-7.1-1.43-1.08-2.9-2.12-4.37-3.16-1.01-.71-2.42-1.61-2.87-2.82-.55-1.45.91-3.34 1.53-4.58.93-1.85 1.85-3.7 2.78-5.55 1.57-3.15 4.31-7.02 3-10.69-1.02-2.88-3.83-4.37-6.63-5.12-3.54-.94-7.39-1.04-11.02-1.36-16.31-1.42-32.8-1.36-49.1.14A299 299 0 0 0 60.67 11c-1.78.28-3.64.47-5.34 1.09-3.41 1.24-5.5 4.05-5.65 7.68-.14 3.45 1.48 6.53 3.42 9.25 2.07 2.89 4.45 5.55 6.35 8.56 1.66 2.64 5.87.21 4.2-2.45-1.86-2.96-4.17-5.57-6.21-8.4-1.51-2.1-3.23-4.58-2.85-7.32.43-3.11 4.2-3.2 6.66-3.59 3.65-.58 7.31-1.08 10.98-1.51 15.47-1.8 31.08-2.38 46.64-1.67 3.83.17 7.65.42 11.47.73 2.88.24 6.19.18 8.92 1.32.81.34 1.69.84 2.06 1.62.58 1.22-.4 2.83-.97 3.98-1.73 3.48-3.47 6.96-5.2 10.44-.8 1.61-1.55 3.23-1.36 5.07.18 1.69 1.03 3.15 2.18 4.37 2.24 2.38 5.36 4.05 7.95 6.03 5.32 4.07 10.16 8.8 13.42 14.71 6.29 11.39 6.6 25.09 5.87 37.76-.77 13.33-3.26 27.88-13.4 37.49-4.38 4.15-10.14 6.24-14.85 9.93-1.11.87-2.15 1.81-3.07 2.88-1.09 1.28-1.87 2.71-2.85 4.06-.84 1.15-1.8 1.66-3.21 1.85-1.96.26-3.99.24-5.96.33-7.79.34-15.59.44-23.38.32q-5.97-.09-11.94-.36c-3.71-.16-7.62-.09-11.27-.76-3.15-.59-5.24-2.42-7.41-4.67-2.4-2.49-4.95-4.7-7.73-6.76-2.75-2.03-5.61-3.92-8.19-6.18a38 38 0 0 1-6.31-7.09c-3.57-5.19-6.05-11.02-8.19-16.91-.55-1.53-1.09-3.07-1.62-4.61s-1.41-3.28-1.27-4.91c.18-2.04 2.2-3.31 3.77-4.4 2.09-1.45 4.14-2.87 5.68-4.93.56-.74.28-1.97-.33-2.59l-4.29-4.27v3c2.9-3.42 5.78-6.86 8.74-10.21.97-1.1.73-2.53-.43-3.36-3.26-2.32-6.51-4.66-9.81-6.92l1.05 2.58c1.7-7.2 4.85-14.03 9.14-20.05 4.19-5.88 9.73-11.26 16.32-14.34 1.69-.79.47-3.78-1.29-3.06Z"/><path d="M65.21 22.53c16.86 3.45 34.18 3.69 51.19 1.3 4.84-.68 9.79-1.4 14.48-2.81 1.91-.57 1.07-3.19-.8-2.91-4.17.62-8.3 1.5-12.48 2.08s-8.21.94-12.33 1.17c-8.33.47-16.68.39-25-.26-4.75-.37-9.5-.92-14.22-1.63-1.97-.3-2.88 2.64-.84 3.06M53.64 68.85c-1.53 1.86-3.38 3.61-5.22 5.03-.85.66-1.91 1.37-2.91 1.94-.54.31-1.06.65-1.59.98-.24.14-.49.28-.72.43-.21.13-.44.28-.61.47l-.3.38c-.23.5-.27.6-.11.31-.58 1.17.14 2.37 1.42 2.48-.26-.01-.24 0 .07.03.17.05.34.05.5 0 .32-.04.6-.14.89-.28s.54-.32.8-.49c.61-.39 1.21-.79 1.78-1.24.99-.79 1.96-1.62 2.89-2.47 1.86-1.7 3.53-3.61 5.08-5.6.46-.59.58-1.39 0-1.97-.49-.49-1.49-.58-1.97 0"/><path d="M51.28 62.45c.03 1.38.22 2.78.53 4.13.15.63.34 1.25.55 1.87.26.75.44 1.69 1.02 2.26.45.44 1.23.58 1.77.23.59-.38.78-.98.67-1.65s-.65-1.25-.93-1.84c-.04-.08-.07-.16-.1-.24.05.13.05.11-.01-.04-.05-.12-.1-.24-.14-.36-.11-.3-.22-.61-.32-.92-.18-.58-.33-1.17-.44-1.76-.03-.15-.05-.3-.07-.45q-.03-.225 0-.06c0-.06-.02-.13-.02-.19-.04-.32-.06-.65-.08-.97-.04-.63-.53-1.23-1.2-1.2-.64.03-1.22.53-1.2 1.2Zm7.78 18.22c-.91-.28-1.83-.53-2.76-.72-.45-.09-.91-.17-1.36-.24-.3-.05-.6-.07-.9-.13.24.04-.1-.03-.15-.03-.13-.02-.26-.05-.4-.07l.97.75c-.58-.88-1.12-1.78-1.63-2.7-.24-.44-.47-.88-.69-1.33-.28-.57-.49-1.21-.94-1.66s-1.19-.59-1.79-.34c-.56.24-1.06.86-1.01 1.5.06.73.4 1.34.74 1.99.24.47.49.93.75 1.39.51.89 1.05 1.76 1.63 2.61.3.43.59.78 1.11.94.33.11.74.05 1.08.06.54.02 1.08.09 1.62.16-.2-.03.1.02.16.03l.4.06c.27.04.54.09.8.15q.795.165 1.59.36c.72.19 1.59-.24 1.76-1 .18-.78-.23-1.52-1-1.76Zm1.67-11.62.19-.09q.33-.195.54-.54a1.5 1.5 0 0 0 0-1.5q-.195-.33-.54-.54l-.19-.09a1.64 1.64 0 0 0-.81-.22c-.29 0-.56.07-.81.22q-.36.21-.57.57c-.14.25-.22.52-.22.81s.07.56.22.81q.21.36.57.57c.25.14.52.22.81.22s.56-.07.81-.22M38.06 94.76c1.3.08 2.6.18 3.89.3 1.06.1 2.28.12 3.27.54.84.36 1.15 1.16 1.38 1.99.34 1.22.59 2.48.89 3.71.27 1.07.43 2.39 1.45 3.04.98.62 2.4.58 3.52.72.66.08 1.32.13 1.98.19s.68.06 1.07.62c.78 1.11 1.54 2.23 2.4 3.28 1.04 1.27 3.1-.37 2.26-1.74-.57-.93-1.22-1.82-1.86-2.7-.56-.78-1.07-1.59-1.92-2.07s-1.93-.6-2.89-.77c-.52-.1-1.05-.17-1.57-.25-.36-.06-.95-.04-1.25-.23l.61.61c-.37-.49-.42-1.55-.57-2.21-.21-.88-.42-1.77-.65-2.65-.4-1.54-.99-3.02-2.33-3.96-1.24-.87-2.75-1.02-4.22-1.1-1.81-.1-3.63-.19-5.44-.23s-1.85 2.79 0 2.91Z"/><path d="M45.07 110.93c.98-1.08 2.03-2.08 3.09-3.09.52-.49 1.05-.98 1.54-1.5.55-.58 1.23-1.16 1.66-1.84.34-.55.24-1.39-.24-1.84a1.74 1.74 0 0 0-.67-.39c-.32-.1-.89-.06-1.17.15-.64.49-1.13 1.14-1.66 1.75-.49.56-.94 1.15-1.4 1.73-.91 1.15-1.81 2.3-2.8 3.38-.41.45-.48 1.21 0 1.65.45.41 1.21.48 1.65 0m6.16 9.05c1.81 0 1.81-2.81 0-2.81s-1.81 2.81 0 2.81m8.19 29.08c-5.5.18-10.97 1.39-16.03 3.56-2.25.96-4.67 2.46-5.02 4.88-.25 1.71.69 3.43 2.01 4.54s2.99 1.72 4.64 2.24c9.45 2.97 19.43 3.71 29.32 4.35 22.62 1.46 45.44 2.51 67.85-.84 4.79-.72 9.62-1.66 13.93-3.85 2.32-1.18 4.71-3.21 4.51-5.81-.18-2.42-2.52-4.05-4.71-5.08a36.3 36.3 0 0 0-15.54-3.48c-.86 0-1.76.04-2.5.48-.86.5-1.35 1.44-1.9 2.28-2.46 3.75-6.7 6.04-11.07 7.06-4.36 1.03-8.9.94-13.39.84l-33.49-.72c-4.88-.1-10.26-.4-13.79-3.77-1.73-1.66-2.93-3.98-5.1-5"/><path d="M59.42 147.25c-4.67.01-9.38.78-13.79 2.31-3.53 1.23-8.2 2.95-9.19 7.04-1.1 4.51 2.76 7.73 6.52 9.15 4.36 1.65 9.08 2.55 13.68 3.24 9.57 1.44 19.3 1.86 28.95 2.38s19.9.86 29.85.65 19.65-.93 29.34-2.55c4.46-.74 9.09-1.81 13.05-4.07 3.42-1.95 6.23-5.68 4.36-9.69-1.73-3.73-6.53-5.42-10.15-6.58-2.31-.74-4.67-1.21-7.07-1.51-2.13-.27-4.52-.56-6.64-.1-2.26.49-3.23 2.24-4.46 3.98-1.04 1.46-2.45 2.63-3.98 3.54-3.72 2.22-8.07 2.85-12.34 2.98-5 .15-10.02-.11-15.02-.22s-10-.22-15-.32c-4.61-.1-9.29.01-13.88-.42-1.77-.17-3.61-.5-5.24-1.22s-2.89-1.91-4.05-3.31c-1.19-1.44-2.39-2.86-4.09-3.73-2.55-1.29-4.81 2.55-2.25 3.85 1.46.74 2.39 2.08 3.43 3.31 1.14 1.36 2.48 2.55 4.06 3.4 3.31 1.76 7.13 2.18 10.82 2.31 9.22.35 18.47.4 27.7.6 8.6.18 17.96 1.28 26.03-2.34 1.76-.79 3.37-1.83 4.84-3.08s2.44-2.7 3.51-4.23c.95-1.37 3.03-.88 4.51-.78 2.1.15 4.16.51 6.19 1.04 2.07.55 4.11 1.25 6.03 2.2 1.15.57 2.7 1.35 3.21 2.62 1.23 3.02-4.61 5.12-6.53 5.78-4.04 1.4-8.31 2.04-12.53 2.61-4.6.62-9.22 1.05-13.85 1.34-18.27 1.15-36.63.14-54.87-1.14-8.72-.61-17.64-1.45-25.95-4.33-1.52-.53-3.25-1.3-3.96-2.84-.64-1.38.11-2.53 1.25-3.35 1.48-1.08 3.31-1.72 5.02-2.32 2.02-.7 4.09-1.28 6.18-1.72s4.19-.7 6.31-.85c2.29-.17 2.35-3.61 0-3.61Zm-16.2-91.57c2.69-2.11 6.26-2.58 9.56-2.84 4.05-.32 7.82-.07 11.56 1.63s6.96 3.39 10.79 4.33 7.52 1.28 11.3 1.05c4.06-.25 7.84-1.38 11.7-2.56 3.93-1.2 7.92-1.84 12.03-1.75 8.33.18 15.83 4.16 24.09 4.78 4.31.32 9.19.11 13.3-1.37 3.65-1.32 7.18-4.91 5.58-9.1-.84-2.21-4.31-1.37-3.62 1 .99 3.38-3.76 4.58-6.11 5.01-3.9.72-8.01.77-11.92.13s-7.65-2.04-11.5-3-7.78-1.38-11.7-1.22-7.79.95-11.61 2-7.44 1.93-11.35 2.04c-3.67.11-7.31-.36-10.82-1.42s-6.75-3.05-10.25-4.33c-4.17-1.53-8.68-1.36-13.01-.75-3.68.51-7.44 1.52-10.08 4.31-1.32 1.39.62 3.18 2.06 2.06"/><path d="M63.58 51.51c2.77.69 5.67-.02 8.49-.46 5.39-.83 10.94-.62 16.27.54 1.81.39 3.6.89 5.38 1.39 1.54.43 4.41.97 5.95 1.4-7.53 1.99-16.96 3.87-24.31 1.28-2.45-.86-4.71-2.2-7.17-3.01"/><path d="M63.2 52.89c3.24.78 6.34.22 9.58-.16s6.57-.46 9.85-.16 6.22.99 9.26 1.83c2.41.66 4.88 1.11 7.29 1.77V52.6c-5.02 1.28-10.16 2.4-15.36 2.42-2.44 0-4.86-.24-7.19-.95-2.73-.84-5.17-2.51-7.94-3.21-1.96-.5-3.45 2.55-1.44 3.41 2.75 1.19 5.49 2.62 8.36 3.49 2.57.79 5.32 1.08 8 1.08 5.61 0 11.17-1.2 16.55-2.67 1.76-.48 1.76-3.09 0-3.57-2.34-.64-4.73-1.06-7.06-1.71-3.13-.87-6.27-1.58-9.51-1.92s-6.43-.37-9.61.03c-1.67.21-3.32.51-4.96.84s-3.35.64-5.05.29c-1.79-.37-2.56 2.32-.76 2.76Zm54.04 1.49c1.99.6 6.27-.17 8.2-.95s3.71-1.9 5.62-2.73c4.87-2.12 10.4-2.31 15.66-1.56 1.83.26 3.99.95 4.4 2.75.28 1.22-.45 2.5-1.47 3.22s-2.29 1.01-3.52 1.24c-8.2 1.55-15.21 2.33-22.79-1.16"/><path d="M116.85 55.81c2.9.84 6.7.18 9.46-.9 2.13-.84 4.12-2.03 6.28-2.78s4.2-1.11 6.38-1.25 4.45-.03 6.66.23c.77.09 3.38.27 3.49 1.34.16 1.6-3.72 1.94-4.66 2.12-2.19.4-4.38.75-6.6.92s-4.53.2-6.77-.12c-2.52-.35-4.83-1.21-7.2-2.08-2.13-.78-3.5 2.58-1.54 3.64 4.41 2.37 9.73 3.04 14.66 2.76 2.64-.15 5.27-.53 7.88-.99 2.38-.42 5.05-.77 6.82-2.6 1.81-1.87 2.12-4.78.35-6.78-1.45-1.63-3.72-2.06-5.77-2.33-5.17-.67-10.53-.31-15.36 1.74-2.46 1.04-4.65 2.74-7.2 3.54-1.83.58-4.18 1.15-6.09.68s-2.61 2.32-.79 2.85Zm3.48 33c-8.97-3.89-18.99-5.04-28.59-3.11-4.76.96-9.43 2.67-13.68 5.01a47 47 0 0 0-6.23 4.15c-1.96 1.53-4.8 3.37-4.2 6.24.51 2.45 2.54 4.84 4.2 6.62 1.78 1.9 3.87 3.54 6.06 4.95 4.61 2.97 9.91 4.94 15.32 5.75s11.16.69 16.38-1.03c5.04-1.66 8.66-5.01 11.77-9.19 3-4.03 5.48-8.75 9.59-11.8 4.69-3.47 10.67-4.51 16.34-5.1l-2.23-2.23c-.2 2.7-.68 5.37-1.42 7.98-.37 1.33-.82 2.63-1.32 3.91-.26.67-.54 1.99-1.18 2.39-.7.44-2.16-.04-2.89-.17-1.39-.25-2.77-.5-4.14-.85-2.78-.71-5.52-1.6-8.17-2.72-2.67-1.13-4.26 2.55-1.55 3.68a69 69 0 0 0 9.77 3.27c2.76.7 6.42 2.05 9.14.58 1.29-.69 2.02-1.89 2.61-3.18.72-1.57 1.34-3.18 1.85-4.83 1.01-3.27 1.56-6.65 1.75-10.06.06-1.1-1.08-2.37-2.23-2.23-4.97.6-9.94 1.43-14.54 3.5-4.36 1.96-7.63 5.18-10.44 8.97-2.5 3.37-4.61 7.08-7.63 10.03-3.49 3.41-8.17 4.74-12.95 5.07-9.6.65-20.09-2.68-26.75-9.83-.74-.79-1.4-1.63-1.98-2.54-.16-.25-.67-1.46-.89-1.56l-.04-.09c-.07-.23-.15-.12-.21.33.15 0 .73-.68.84-.78 1.58-1.41 3.28-2.68 5.06-3.83 3.74-2.39 7.8-4.21 12.06-5.42 9.61-2.72 19.94-2.62 29.28 1.06 1.68.66 2.91-2.22 1.24-2.94"/><path d="M90.85 88.33c1.25-2.02 2.81-3.95 4.4-5.71 1.62-1.8 3.31-3.59 5.24-5.06 1.83-1.4 3.78-2.28 6.01-2.84 2.27-.58 4.77-.98 6.71-2.39 1.97-1.42.31-4.27-1.9-3.25s-4.58 1.45-6.93 2.14c-2.46.72-4.59 1.94-6.58 3.56-4.08 3.32-7.02 7.49-9.34 12.16-.79 1.59 1.44 2.92 2.39 1.4Zm10.92-1.73c.62-1.39 2.09-1.93 3.41-2.49.88-.37 1.77-.71 2.6-1.18.77-.44 1.41-1.05 2.14-1.53 1.39-.9 3.14-.85 4.51-1.85.69-.51 1.02-.71 1.87-.7 1.03.02 2.05-.02 2.96-.56 1.6-.94.5-3.22-1.22-2.88-.86.17-1.75-.09-2.62-.02-1.09.08-1.89.51-2.76 1.14-.75.54-1.54.68-2.42.92-.94.25-1.8.65-2.59 1.23s-1.48 1.14-2.31 1.59-1.72.81-2.57 1.25c-1.63.85-2.95 2.3-3.61 4.01-.57 1.49 1.94 2.57 2.6 1.1Zm11.97 1.84c.06-.02.14-.05.19-.08l-.16.07.35-.15c.12-.07.23-.15.34-.23.24-.16.5-.31.74-.46.48-.31.97-.59 1.48-.84.25-.12.51-.22.75-.35-.07.04-.31.13-.11.05.16-.07.33-.14.49-.21.06-.03.13-.05.19-.08-.07.03-.31.13-.11.05.55-.22 1.09-.43 1.65-.62.78-.26 1.37-1.1 1.1-1.94s-1.08-1.29-1.94-1.1c-1.29.28-2.51.77-3.65 1.42s-2.41 1.48-3.16 2.63c-.31.48-.21 1.25.21 1.64.48.44 1.06.47 1.64.21Zm-17.41 30.99c1.25 1.19 1.3 3.2 1.91 4.74.78 1.97 2.16 3.39 3.86 4.6 3.49 2.48 7.48 4.5 11.57 2.19 1.66-.94 3.02-2.31 5-2.47 2.08-.18 4.23-.16 5.87-1.67.69-.63 1.16-1.49 1.35-2.4.16-.75-.06-2.02.3-2.69.31-.57 1.35-.69 1.93-1.04.86-.52 1.56-1.35 1.77-2.35.52-2.57-2.5-4-4.25-5.16-1.2-.8-2.41-1.6-3.62-2.4s-2.37-1.84-3.75-2.15-3.01 1.28-2.02 2.63c1.2 1.63 3.31 2.61 5 3.7.88.57 1.75 1.14 2.63 1.71.41.26.82.52 1.23.77.2.13.41.25.61.38.31.19.75.75.63.05-.11-.6-.02-.29-.47-.19-.38.09-.8.29-1.15.47a4.04 4.04 0 0 0-1.88 1.84c-.36.7-.45 1.46-.53 2.23-.06.56.02 1.33-.38 1.78-.92 1.03-3.45.62-4.68.84-1.74.31-3.16 1.29-4.59 2.27-1.35.92-2.53 1.6-4.18 1.03s-3.14-1.6-4.5-2.57c-1.57-1.12-2.34-2.36-2.95-4.15s-1.31-3.26-2.82-4.4c-1.42-1.07-3.14 1.24-1.88 2.44Z"/><path d="M104.02 118.32c.26.18.39.69.5 1.01.21.62.42 1.26.76 1.82.78 1.28 2.08 2.13 3.28 2.98s2.33 1.65 3.58 2.34c1.35.75 2.93 1.57 4.49 1.68 1.43.11 2.04-2.11.74-2.74-.68-.33-1.41-.5-2.1-.79-.61-.26-1.2-.57-1.77-.9-1.24-.7-2.43-1.49-3.6-2.3-.95-.65-1.96-1.29-2.5-2.34-.57-1.11-.94-2.29-2.14-2.89-1.43-.71-2.52 1.21-1.24 2.12Zm7.92-1.44c1.64 1.63 3.45 3.16 5.44 4.35.96.57 1.96 1.1 2.98 1.56 1.15.52 2.56 1.34 3.85 1.1 1.12-.21 1.3-1.66.63-2.39-.46-.5-1.12-.66-1.75-.88-.42-.15-.94-.35-1.29-.5-1-.42-1.98-.91-2.93-1.45-1.83-1.03-3.61-2.15-5.22-3.51-.5-.42-1.22-.49-1.71 0-.46.46-.46 1.25 0 1.71ZM80.3 97.07h-.13c-2.48.23-1.19 3.85.72 2.68l.09-.06c.88-.54.88-1.82 0-2.36l-.09-.06c-1.91-1.16-3.22 2.45-.72 2.67h.13c1.86.17 1.86-3.04 0-2.88Zm12.1-3.1c.42 1.86.53 3.81.38 5.71-.07.88-.22 1.7-.43 2.58-.12.5-.25 1-.4 1.49l-.21.63c-.05.14-.1.28-.15.41-.08.23-.1.28-.06.13l.64-.64-.11.08h1.76l-.07-.05.86 1.49v-.09l-1.26 1.65.06-.02c1.82-.61 1.5-3.26-.45-3.35h-.06c-.79-.04-1.41.56-1.65 1.26-.16.47-.09 1.07.19 1.48.44.64 1.18 1.02 1.97.8 1.45-.4 1.79-2.22 2.13-3.5.32-1.21.49-2.46.58-3.71.16-2.42-.13-4.84-.84-7.16-.56-1.83-3.28-1.07-2.86.79Z"/><path d="M96.03 97.14c2.83-.9 5.66-1.8 8.49-2.69.83-.26 1.67-.53 2.54-.48s1.76.48 2.12 1.27c.23.5.21 1.08.18 1.63-.08 1.81-.15 3.62-.23 5.43-.03.61-.06 1.24-.32 1.79-.34.71-1.07 1.26-1.15 2.04a42.3 42.3 0 0 1-11.45-.75c-.21-.04-.43-.09-.61-.22-.63-.44-.35-1.42-.05-2.13a18.2 18.2 0 0 0 1.42-6.16"/><path d="M96.41 98.53c2.07-.62 4.19-1.05 6.26-1.66.98-.29 1.96-.6 2.96-.86.44-.12.84-.22 1.3-.19h.03c.1.02.2.05.29.08.04.01.14.07.15.08-.1-.1.14.26.04.04-.09-.2.02.3.02.14.02.51-.03 1.02-.06 1.53-.05 1.09-.11 2.17-.16 3.26-.03.53-.05 1.06-.08 1.59 0 .05-.07.61-.03.39-.01.08-.22.56-.11.36-.44.81-1.08 1.37-1.25 2.33l1.87-1.43c-3.39.24-6.81.12-10.16-.49a10 10 0 0 1-.53-.1c-.12-.02-.25-.05-.37-.08-.16-.05-.15-.02.05.08.2.11.34.28.42.52l.04.16-.03.14c.02-.09.04-.19.07-.28.19-.7.51-1.36.72-2.05.52-1.69.79-3.46.86-5.23.04-.95-.84-1.77-1.77-1.77-1.02 0-1.69.81-1.77 1.77-.14 1.79-.58 3.55-1.27 5.2-.39.95-.74 1.84-.54 2.89.21 1.11 1.03 1.89 2.1 2.2 1.9.56 4.05.72 6.02.87s4.1.17 6.15.03c.79-.05 1.72-.56 1.87-1.43q.09-.33-.03-.09c.06-.12.12-.23.2-.34.11-.17.24-.32.36-.48.35-.47.63-.99.79-1.56.34-1.2.25-2.54.3-3.78.04-1.25.11-2.51.13-3.77s-.3-2.54-1.3-3.41c-2.16-1.86-4.84-.88-7.2-.07s-4.72 1.8-7.12 2.61c-1.74.58-1.02 3.31.76 2.77ZM74.34 86.95c0-.07.02-.14.03-.21l.03-.25q.075-.36-.03-.72v-.08l-.03-.1-.18-.42a1.3 1.3 0 0 0-.46-.5.86.86 0 0 0-.39-.23 1.33 1.33 0 0 0-.68-.15l-.47.06-.42.18a1.3 1.3 0 0 0-.5.46c-.16.17-.26.37-.32.6l-.02.1v.05s-.01.02-.01.03l-.06.48c.02.16.04.33.07.49 0 .07.02.14.03.21l.18.42c.11.21.26.37.46.5.11.11.24.19.39.23.21.11.44.16.68.15l.47-.06.42-.18c.21-.11.37-.26.5-.46.16-.17.26-.37.32-.6Zm4.4-7.11v-.13c.13-1.21-1.39-1.9-2.33-1.35-1.06.62-.95 2.05 0 2.69l.05.04c.4.27 1.07.27 1.47 0l.05-.04c.95-.64 1.06-2.07 0-2.69-.94-.55-2.47.13-2.35 1.35v.13a1.556 1.556 0 0 0 3.11 0m-7.98-3.01c1.47 0 1.47-2.28 0-2.28s-1.47 2.28 0 2.28m6.43-4.34c1.76 0 1.76-2.73 0-2.73s-1.76 2.73 0 2.73m7.06 9.45c1.9 0 1.9-2.95 0-2.95s-1.9 2.95 0 2.95m-.83-6.72c1.8 0 1.8-2.8 0-2.8s-1.8 2.8 0 2.8m-23.81 71.61c1.48.89 3.3.61 4.63-.42 1.58-1.22 1.93-3.25 2.13-5.12.32-3.15 1.05-6.35 3.11-8.85.91-1.1 2.06-2.08 3.39-2.62.97-.4 2.73-.9 3.21.37.31.83.38 1.78.54 2.64.21 1.19.42 2.37.6 3.56.17 1.11.34 2.23.52 3.34.16 1.01.21 2.1.7 3.02.8 1.5 2.5 2.25 4.16 2.26 2.09.01 3.87-.9 5.76-1.63.81-.32 2.23-.7 2.95-.06.33.29.42.87.62 1.26s.46.75.74 1.09q.84 1.05 1.98 1.77c1.42.9 3.19 1.32 4.86 1.12 1.97-.23 3.46-1.53 5.33-2 .71-.18 1.42-.23 1.93.37.55.64.86 1.46 1.45 2.07 1.24 1.28 3.13 1.6 4.79 1.06 4.25-1.38 4.69-6.31 8.18-8.52 1.25-.79 3.62-1.64 5.06-.85s1.04 3.32.88 4.67c-.1.81.67 1.67 1.42 1.86 1.38.35 2.73.26 4.13.33.53.03 1.6.16 1.58.87-.05 1.85 2.7 2.67 3.57.97 1.1-2.17.11-4.31-1.94-5.45-2.2-1.23-4.49-.23-6.83-.5l1.93 1.93c-.05-3.61-.64-7.77-4.61-9.05-3.79-1.22-8.46 1.25-10.31 4.6-.91 1.64-1.29 3.76-2.62 5.14-.47.49-1.22.95-1.92.97-.83.03-1.1-.55-1.49-1.19-1.05-1.72-2.46-2.88-4.57-2.83s-3.58 1.25-5.42 1.9c-1.46.52-3.13.18-4.2-1-.56-.63-.69-1.33-.95-2.11-.35-1.04-.96-1.92-1.88-2.54-1.54-1.04-3.51-1.07-5.23-.52-.91.29-1.82.74-2.64 1.22s-1.62 1.28-2.58 1.43c-.62.09-.89.04-1.09-.49-.39-1.01-.26-2.5-.37-3.58-.23-2.26-.37-4.54-.62-6.8-.22-2.05-.93-3.97-2.89-4.96-1.78-.9-3.93-.79-5.77-.11-3.84 1.41-6.35 4.6-7.79 8.33-.71 1.83-1.1 3.8-1.23 5.76-.07 1.06.05 2.15-.16 3.19-.12.61-.74 2.13-1.63 1.66-1.6-.86-2.99 1.5-1.43 2.44ZM35.69 78.45c-4.75.51-9.72 2.2-13.75 4.8-1.78 1.15-3.4 2.86-3.18 5.14.22 2.27 2.13 3.69 3.97 4.72v-3.17c-1.91 1.29-3.76 2.68-5.46 4.23-1.61 1.47-3.46 3.13-4.44 5.11s-1.03 4.5.63 6.12c.82.79 1.93 1.18 3.05 1.16.58-.01 1.16-.17 1.72-.27.53-.1.87.09.66-.46-.24-.65-.06-.34-.4-.14-.18.1-.4.39-.56.56-.38.41-.73.84-1.07 1.29-.69.92-1.27 1.89-1.71 2.95-.85 2.01-1.33 4.29-1.05 6.47.3 2.29 1.71 4.39 4.12 4.77 1.02.16 2.05-.02 2.91-.6.96-.64 1.3-1.63 2.04-2.43.07-.07.29-.22.31-.28.3-.13.13-.29-.52-.48l-.04.24c-.25.39-.31 1.21-.36 1.66-.12 1.06.1 2.12.68 3.03 1.17 1.83 3.43 2.71 5.42 3.33 1.51.48 2.58-1.93 1.1-2.6-1.28-.58-3.04-1.37-3.61-2.78-.24-.59-.03-1.22.04-1.83.11-.93.06-1.84-.49-2.63-1.06-1.52-3.15-1.45-4.57-.49-.61.41-1.18 1.49-1.84 1.74-.27.1-.57-.2-.75-.58-.66-1.39.02-3.64.48-4.99.29-.83.65-1.61 1.11-2.37.5-.83 1.23-1.51 1.71-2.33.95-1.62.38-3.48-1.25-4.36-.76-.41-1.61-.55-2.47-.51-.44.02-.9.14-1.35.11-.32-.02-.3.07-.37-.3-.3-1.54 1.97-3.51 2.91-4.52 1.6-1.72 3.34-3.29 5.26-4.64 1.07-.75 1.3-2.47 0-3.17-.75-.4-2.55-1.2-2.12-2.31.49-1.24 2.65-2.02 3.72-2.58 3.15-1.64 6.49-2.66 9.9-3.58 1.62-.44 1.36-3.21-.41-3.02ZM24.7 75.33c2.21 0 2.22-3.44 0-3.44s-2.22 3.44 0 3.44m-6.64-.12c2.05 0 2.05-3.19 0-3.19s-2.05 3.19 0 3.19"/></svg>