<?xml version="1.0" encoding="UTF-8"?><svg xmlns="http://www.w3.org/2000/svg" viewBox="0 0 180 180"><path d="M91.83 136.67c-9.81-10.97-19.68-21.84-28.96-33.27-8.04-9.9-16.3-20.72-20.03-33.09-2.91-9.66-2.08-20.32 2.19-29.46C49.07 32.2 55.77 24.99 63.88 20c8.28-5.1 17.93-7.9 27.67-7.75 10.02.15 20.15 3.5 28.07 9.69 15.23 11.91 18.36 32.32 14.96 50.35-1.9 10.04-5.67 19.46-10.79 28.28-7.03 12.11-15.87 23.05-22.95 35.12-1.71 2.92-3.31 5.9-4.79 8.95-.97 2 1.93 3.76 3.02 1.77 7.02-12.8 16.31-24.19 24.31-36.37 6.34-9.66 11.62-19.84 14.52-31.07 4.91-19.01 3.66-41.33-10.48-56.25-7.44-7.86-17.9-12.9-28.56-14.47-10.57-1.56-21.28.07-31 4.44-18.89 8.49-32.64 27.74-31.21 48.87.91 13.55 8.27 25.56 16.23 36.16 8.76 11.66 18.67 22.37 28.6 33.03 2.62 2.81 5.24 5.61 7.84 8.43 1.56 1.68 4.02-.81 2.51-2.51"/><path d="M119.8 44.6c-2.87-7.98-10.9-13.38-19.26-14.78-6.15-1.03-12.48-.64-18.16 1.1-8.07 2.3-15.35 8.41-19.12 15.84-4.25 8.36-3.48 19.29 2.63 26.41 5.72 6.67 14.74 9.05 23.21 9.46 7.07.34 13.7-.35 19.78-4.35 6.69-4.41 11.34-11.79 12.03-19.8.4-4.66.47-9.48-1.11-13.88m-11.62 24.61c-2.95.79-5.9 1.59-8.85 2.38-.33.09-.68.18-1 .07-.42-.13-.67-.55-.88-.93-1.63-2.89-3.25-5.78-4.88-8.66-3.11 3.55-6.44 6.9-9.98 10.02a88 88 0 0 1-8.16-6.07c3.94-2.5 7.54-5.54 10.67-9l-.23-.47c-3.08-3.75-7-6.81-11.38-8.89 2.64-2.75 5.66-5.13 8.95-7.06 3.64 3.69 6.88 7.76 9.65 12.13l7.83-14.58c.22-.42.49-.87.93-1.02.45-.15.95.05 1.37.28 1.97 1.08 3.48 2.81 4.95 4.5.5.58 1.03 1.23 1.05 1.99.02.72-.42 1.37-.84 1.95-2.76 3.84-5.52 7.68-8.28 11.53 3.84 3.22 6.96 7.3 9.07 11.84Z"/><path d="M121.73 44.07c-2.09-5.64-6.3-10.15-11.57-13.01-5.74-3.12-12.41-4.11-18.88-3.72s-13.38 2.33-18.92 6.2c-4.99 3.49-9.21 8.27-11.61 13.9-2.38 5.6-2.84 12.01-1.2 17.88 1.63 5.85 5.37 10.78 10.49 14.03 5.22 3.31 11.45 4.74 17.56 5.2 6.54.5 13.27.03 19.27-2.83 6.32-3.01 11.35-8.56 14.03-14.99 1.41-3.38 1.97-6.87 2.18-10.51.23-4.09 0-8.25-1.34-12.15-.84-2.42-4.7-1.38-3.86 1.06 1.09 3.15 1.36 6.4 1.26 9.72-.09 2.83-.34 5.61-1.18 8.32-1.56 5.05-4.86 9.64-9.14 12.74-4.93 3.56-10.72 4.8-16.71 4.8-5.42 0-10.94-.66-15.99-2.72-4.84-1.97-8.98-5.4-11.33-10.11-2.29-4.58-2.76-10.07-1.61-15.03 2.54-10.98 12.53-18.72 23.22-20.88 11.55-2.34 26.91.81 31.48 13.16.89 2.39 4.75 1.36 3.86-1.06Z"/><path d="M107.65 67.28c-1.55.42-3.11.84-4.66 1.25l-2.33.63c-.41.11-1.02.19-1.4.38l-.47.13c.52.45.68.52.46.21-.03-.56-.9-1.59-1.18-2.09-.41-.72-.81-1.44-1.22-2.17-.85-1.52-1.71-3.03-2.56-4.55-.6-1.07-2.29-1.37-3.14-.4a114 114 0 0 1-9.98 10.02l2.42-.31a86 86 0 0 1-7.75-5.76l-.4 3.14c4.08-2.62 7.81-5.73 11.07-9.31.64-.7.72-1.59.31-2.42-1.02-2.11-3.31-3.96-5.09-5.43-2.23-1.83-4.64-3.4-7.24-4.65l.4 3.14c2.55-2.63 5.39-4.88 8.54-6.75l-2.42-.31c3.52 3.59 6.64 7.5 9.34 11.73.78 1.22 2.71 1.38 3.45 0 1.38-2.57 2.76-5.15 4.15-7.72.65-1.22 1.31-2.43 1.96-3.65.35-.64.69-1.29 1.04-1.93.19-.36.38-.72.58-1.07.07-.13.13-.25.2-.37q.18-.315 0 0h-1.06c1.56.22 2.97 1.96 3.97 3.05.36.39 1.49 1.29 1.59 1.84.08.46-1.03 1.58-1.28 1.94-2.52 3.51-5.05 7.02-7.57 10.53-.48.66-.31 1.89.31 2.42a33.85 33.85 0 0 1 8.76 11.44c1.1 2.33 4.55.3 3.45-2.02a36.5 36.5 0 0 0-9.39-12.25l.31 2.42c2.67-3.71 5.34-7.41 8-11.13 1.2-1.68 1.93-3.49.78-5.44-.91-1.55-2.44-3.05-3.77-4.24s-3.24-2.8-5.16-2.44c-2.15.41-2.94 2.86-3.86 4.57-2.15 4-4.3 8.01-6.45 12.01h3.45a77.3 77.3 0 0 0-9.97-12.54c-.62-.63-1.67-.76-2.42-.31a45.4 45.4 0 0 0-9.35 7.38c-.84.86-.79 2.57.4 3.14 2.28 1.1 4.47 2.42 6.43 4.03 1.52 1.25 3.62 2.87 4.47 4.62l.31-2.42c-3.05 3.33-6.46 6.25-10.26 8.68-1 .64-1.44 2.28-.4 3.14 2.74 2.29 5.59 4.42 8.56 6.39.77.51 1.78.26 2.42-.31 3.53-3.13 6.86-6.47 9.98-10.02-1.05-.13-2.09-.27-3.14-.4 1.06 1.88 2.11 3.75 3.17 5.63.84 1.49 1.62 3.72 3.16 4.6 1.64.93 3.82-.1 5.48-.55 2.02-.54 4.04-1.09 6.06-1.63 2.48-.67 1.43-4.53-1.06-3.86Zm-5.73 89.28c-8.19-.8-16.57.56-24.08 3.92-1.51.68-3.22 1.82-3.08 3.47.13 1.5 1.73 2.38 3.14 2.91 10.02 3.75 21.1 3.83 31.67 2.19 3.84-.59 7.94-1.58 10.46-4.53.61-.71 1.12-1.58 1.12-2.52-.01-2.14-2.47-3.29-4.54-3.83-10.43-2.69-21.55-2.72-31.99-.06"/><path d="M101.92 155.03c-4.48-.54-8.99-.46-13.45.24-4.21.66-8.82 1.83-12.54 3.95-1.61.92-3.13 2.43-3.17 4.4-.04 1.96 1.27 3.51 2.92 4.41 1.83 1 3.98 1.58 5.99 2.11 2.18.58 4.39 1 6.62 1.3 4.52.62 9.08.72 13.63.42 4.14-.28 8.47-.67 12.47-1.84 3.45-1.01 8.09-3.37 8.64-7.38.6-4.33-4.16-5.95-7.49-6.72-10.4-2.4-21.05-2.16-31.36.51-2.14.56-1.24 3.83.91 3.31 7.54-1.82 15.56-2.19 23.25-1.25 1.92.24 3.83.58 5.72 1 1.44.32 3.12.57 4.36 1.44 2.57 1.78-2.35 4.35-3.82 4.89-3.16 1.16-6.64 1.54-9.97 1.86-3.84.38-7.7.49-11.55.26-3.72-.23-7.41-.82-11.01-1.84-1.53-.44-3.32-.83-4.67-1.71-.2-.13-.48-.29-.6-.5-.05-.09-.06-.28-.07-.07.02-.48.69-.88 1.06-1.1 1.64-1 3.58-1.63 5.4-2.23 1.99-.65 4.02-1.19 6.06-1.6 4.18-.84 8.43-1.11 12.68-.83 1.99.13 1.9-2.82 0-3.05Zm-65.89-13.56c2.94.09 5.89.19 8.83.26l-1.75-1.75c.25 2.8.57 5.59.87 8.38.1.9.75 1.89 1.8 1.8l3.9-.33c1.11-.09 2.53.01 3.53-.56 2.13-1.23 1-4.42.75-6.33l-2.04-15.56-1.81 1.81a155 155 0 0 1 12.52-.78c.41 0 1.3-.12 1.63.19.27.24.13.77.11 1.11-.05.86-.09 1.72-.09 2.59.01 1.6.16 3.21.4 4.79.2 1.34.71 2.67 2.14 3.11s3.29.1 4.8.05c1.8-.06 3.59-.13 5.39-.19l-1.75-1.33c.45 2.38 1.08 4.67 2 6.92.29.7.85 1.3 1.67 1.27 1.1-.03 2.19-.04 3.29-.14 2.01-.18 1.98-2.88 0-3.11-1.09-.12-2.19-.17-3.29-.22.56.42 1.12.85 1.67 1.27-.76-2.28-1.41-4.6-1.84-6.96-.14-.75-1.01-1.36-1.75-1.33-1.8.06-3.59.12-5.39.19-.82.03-1.63.06-2.45.08-.31.01-.92-.1-1.16.04-.41-.03-.28.12.39.46l-.08-.29c0-.78-.25-1.64-.31-2.44-.07-.88-.1-1.76-.1-2.64 0-1.46.35-3.04-.19-4.44-1.13-2.96-4.72-2.62-7.28-2.53-3.46.13-6.91.37-10.35.73-.87.09-1.94.76-1.81 1.81.58 4.36 1.15 8.73 1.73 13.09l.42 3.21c.07.49.13.99.2 1.48.06.43 0 1.26.2 1.63.01.53.27.28.77-.75-.32.03-.65.06-.97.08-.49.04-.97.09-1.46.13l-3.41.3 1.8 1.8c-.31-2.79-.62-5.59-.98-8.38-.12-.92-.7-1.76-1.75-1.75-2.95.05-5.89.13-8.83.2-1.95.05-1.95 2.97 0 3.03Zm74.69 3.75c2.5.09 5 .17 7.5.26.72.02 1.44-.53 1.61-1.23.85-3.37 1.47-6.8 2.37-10.16l-1.76 1.34c3.09.09 6.17.17 9.26.26.83.02 1.56-.6 1.8-1.37 1.13-3.76 1.69-7.69 1.63-11.62l-1.9 1.9c2.25-.25 4.5-.47 6.76-.65 1.13-.09 2.26-.18 3.39-.25.64-.04 1.29-.09 1.94-.12.21-.01.42-.02.63-.02-.2-.29-.26-.31-.17-.07.4.88.42 2.15.55 3.1.16 1.12.27 2.24.36 3.36q.27 3.525.15 7.05c-.04 1.06.89 1.78 1.86 1.86 2.95.23 5.87.04 8.77-.57l-2.28-1.29c.28 1.53.28 3.05.24 4.61-.05 1.98 3.26 2.53 3.54.48.29-2.05.16-4.04-.22-6.07-.19-1.03-1.37-1.48-2.28-1.29-2.57.54-5.17.67-7.78.41l1.86 1.86c.14-2.76.1-5.52-.17-8.27-.14-1.38-.32-2.76-.54-4.13-.19-1.19-.31-2.5-1.05-3.5-1.56-2.09-4.9-1.26-7.11-1.09-2.82.21-5.64.48-8.45.79-1.01.11-1.92.78-1.9 1.9.06 3.62-.41 7.15-1.43 10.63.6-.46 1.2-.91 1.8-1.37-3.09-.07-6.17-.13-9.26-.2-.73-.02-1.63.57-1.76 1.34-.58 3.43-1.44 6.82-2.06 10.25.54-.41 1.07-.82 1.61-1.23-2.5.1-5 .2-7.5.31-1.79.07-1.79 2.72 0 2.78ZM33.43 86.06c-1.45-.49-2.91-.93-4.39-1.32-.73-.19-1.45-.37-2.18-.55-.37-.09-.73-.15-1.11-.21-.86-.14-1.58-.17-2.26.49-.58.57-.6 1.39-.27 2.07.48 1.01 1.75 1.1 2.72 1.27a67 67 0 0 1 6.6 1.51c.85.24 1.87-.29 2.08-1.18.21-.93-.28-1.77-1.18-2.08Zm5.5 11.74a89 89 0 0 1-7.15 2.14c-1.19.3-2.39.56-3.59.81s-3.03.39-3.87 1.36c-.66.76-.67 2.07.33 2.59 1.32.69 3.05.11 4.42-.23 1.23-.31 2.44-.7 3.65-1.09 2.5-.82 4.94-1.8 7.34-2.89 1.5-.69.44-3.23-1.13-2.68Zm6.08 11.59c-2.17 2.25-4.32 4.52-6.61 6.66a124 124 0 0 1-5.2 4.58c-.3.25-.63.48-.9.75-.63.61-.7 1.27-.58 2.1.09.63.7 1.04 1.24 1.24 1.2.44 2.12-.49 2.96-1.21.59-.51 1.18-1.03 1.76-1.55 1.19-1.07 2.35-2.18 3.48-3.32 2.28-2.3 4.46-4.69 6.44-7.26.49-.64.16-1.68-.42-2.12-.64-.48-1.58-.47-2.15.13Zm100.56-31.48c2.06-.14 4.09.68 5.43 2.28 1.44 1.72 1.86 4.24 1.95 6.41.17 4.45-1.37 8.91-4.97 11.7-1.47 1.14-3.35 2.05-5.22 2.26-.27.03-.58.06-.85.02-.29-.04-.46-.22-.44.02-.04-.49 1.5-1.24 1.86-1.39 2.85-1.23 6.68-.33 8.49 2.24 2.19 3.11 1.04 7.82-1.95 9.98-1.76 1.27-.25 4.02 1.73 2.95 4.88-2.64 6.54-9.24 4.11-14.09s-8.77-6.79-13.62-4.85c-2.69 1.08-6.07 4.06-3.99 7.21 1.7 2.57 5.47 2.03 7.94 1.11 6.02-2.23 9.85-7.74 10.61-14.01.43-3.55-.08-7.79-2.1-10.83-1.98-2.99-5.42-4.56-8.98-4.24-2.03.18-2.07 3.35 0 3.2Z"/></svg>