<?xml version="1.0" encoding="UTF-8"?><svg xmlns="http://www.w3.org/2000/svg" viewBox="0 0 180 180"><path d="M50.13 41.59c-.68 6.74-5.05 12.32-10.96 15.41-7.51 3.92-16.61 4.42-24.91 3.99-1.63-.09-2.85 1.98-1.92 3.35 11.05 16.32 22.76 32.13 34.94 47.62.42.53 1.46.8 2.09.55 6.71-2.68 12.89-6.27 18.37-11 1.28-1.11 2.28-2.42 2.17-4.2s-1.34-3.4-2.34-4.81a44.3 44.3 0 0 0-7.11-7.92l-.95 3.6c3.43-1.09 6.85-2.18 10.28-3.28 1.71-.55 3.43-1.09 5.14-1.64 1.56-.5 3.25-.87 4.05-2.45s.03-3.33-.97-4.64-2.04-2.55-3.12-3.77c-2.12-2.39-4.45-4.66-6.82-6.8l.3 2.31c2.97-4.12 6.19-7.94 9.95-11.38.63-.58.75-1.67.31-2.39-3.07-5.1-6.35-10.15-10.62-14.33-2.03-1.99-4.28-3.83-6.79-5.18-2.37-1.28-5.66-3.21-8.34-1.93-1.59.76-.2 3.1 1.38 2.36 1.06-.5 2.83.8 3.7 1.33 1.04.63 2.03 1.33 2.99 2.08 1.98 1.54 3.8 3.28 5.45 5.17 3.37 3.84 6.18 8.14 8.83 12.5l.31-2.39c-3.93 3.63-7.56 7.74-10.45 12.25-.41.64-.34 1.81.3 2.31 2.09 1.66 3.97 3.43 5.69 5.46.84.99 1.64 2 2.39 3.07.38.54.75 1.08 1.1 1.63.08.13.26.57.38.64s.51-.32.26-.41c-.32-.12-1.52.48-1.87.59-.7.22-1.4.44-2.1.67-1.4.44-2.8.89-4.21 1.33-2.88.91-5.76 1.83-8.65 2.74-1.45.46-2.23 2.48-.95 3.6 2.13 1.86 4.11 3.91 5.8 6.18.43.58.84 1.16 1.24 1.76.31.47 1.06 1.26 1.12 1.84.02.22-.16.38-.47.67-.57.52-1.18 1.01-1.78 1.49-4.52 3.63-9.7 6.69-15.1 8.81l2.09.55C38.46 93.7 27.13 78.01 16.2 62.09l-1.92 3.35c12.75.58 29.48-1.59 36.3-14.04 1.66-3.03 2.49-6.38 2.75-9.81.15-2.05-2.97-2-3.17 0Zm39.76 47.27c-3.31.12-6.63.11-9.93.32-1.47.09-2.57 1.65-1.74 3.03 2.97 4.89 7.42 12.33 2.5 17.5-1 1.05-2.1 1.35-3.37 1.95-1.47.69-2.35 1.86-3.28 3.13-1.57 2.15-4.65 2.9-7.1 3.49-1.12.27-1.9 1.61-1.54 2.71.9 2.75 2.9 4.74 4.86 6.77s3.83 3.91 5.83 5.78c4.03 3.77 8.37 7.34 13.25 9.96 5.25 2.82 10.84 4.18 16.78 4.53 6.53.38 13.12.24 19.66.28s13.45.04 20.18.04c3.4 0 6.81 0 10.21-.01 1.3 0 2.65.09 3.89-.38 1.6-.61 2.34-2 2.73-3.59 1.56-6.4 2.93-12.85 4.4-19.27.73-3.21 1.47-6.42 2.2-9.64s1.65-6.45 2.06-9.73c.87-6.97-3.93-12.94-8.45-17.71-4.48-4.73-9.72-8.67-14.9-12.6-.76-.58-2.14-.33-2.76.36-1.31 1.45-2.62 2.9-3.93 4.34-.66.72-1.31 1.45-1.97 2.17-.42.46-1.14 1.61-1.74 1.86-.46.19-.82-.09-1.25-.32-.84-.45-1.66-.97-2.48-1.45-1.76-1.03-3.52-2.06-5.27-3.09-1.6-.94-3.25-2.2-5.2-2.03s-3.26 1.69-4.6 2.88l-8.94 8.01c1.19.15 2.38.31 3.56.46a67.5 67.5 0 0 1-7.05-12.29c-.74-1.67-3.07-1.27-3.91 0-3.21 4.82-7.04 9.3-11.26 13.26-1.94 1.82.91 4.56 2.88 2.88 4.77-4.04 8.83-8.65 12.29-13.85h-3.91c1.92 4.34 4.28 8.44 7.05 12.29.88 1.22 2.4 1.5 3.56.46 2.92-2.62 5.84-5.23 8.76-7.85.48-.43 1.31-1.49 1.93-1.69.27-.09 1.05.51 1.49.77 1.76 1.03 3.52 2.06 5.27 3.09 3.12 1.83 6.76 4.68 10.15 1.79 1.35-1.15 2.49-2.64 3.68-3.96 1.37-1.51 2.73-3.02 4.1-4.52l-2.76.36c4.2 3.18 8.4 6.4 12.19 10.08 1.83 1.78 3.58 3.66 5.12 5.7s3.21 4.4 3.77 6.99c.61 2.8-.44 5.82-1.06 8.53l-2.04 8.91c-1.38 6.02-2.75 12.04-4.13 18.07l-.99 4.34c-.12.54-.46 1.31-.45 1.87 0 .18.15-.06.29-.11-.26.11-.57.07-.85.08-3.15.06-6.31.01-9.47.02-6.14 0-12.29 0-18.43-.01s-12.43-.06-18.65-.14c-5.62-.08-11.17-.41-16.43-2.58-5.12-2.11-9.64-5.52-13.74-9.19-2.09-1.87-4.1-3.84-6.07-5.84-1.79-1.81-4.38-3.73-5.23-6.21l-1.54 2.71c3.24-.82 6.83-2.06 9-4.76.5-.62.86-1.4 1.46-1.93s1.31-.67 2-.98c1.52-.68 2.78-1.81 3.78-3.12 5.33-6.93 1.31-15.12-2.68-21.57l-1.74 3.03c3.31-.24 6.62-.71 9.93-1.05 2.07-.21 2.16-3.37 0-3.3Zm.07-25.1c1.95-1.23 3.88-2.5 5.87-3.67 1.54-.9 3.51-1.71 4.61-3.17 1.25-1.68.83-3.72.16-5.54-.62-1.69-1.35-3.35-2.18-4.96-3.32-6.44-8.3-11.92-14.28-15.98l-1.02 3.75c6.15-.02 12.7-.12 18.22-3.17 4.68-2.59 8.32-7.27 8.44-12.76-1.17.48-2.34.97-3.51 1.45 12.34 11.74 24.71 23.45 37.09 35.16l.94-3.55c-2.24.83-4.48 1.63-6.73 2.44-1.92.7-4 1.28-5.44 2.82-2.6 2.76-2.25 6.83-1.74 10.29l2.13-2.8c-3.9-.35-7.1-3.5-10.72-4.77-1.95-.68-4.12-.96-6.15-.48-1.77.42-3.21 1.48-4.54 2.68-1.01.91-1.98 2-3.28 2.51-1.84.73-4.28-.45-6.12-.84-4.45-.96-8.94-1.32-13.46-1.72-2.49-.22-2.56 3.99 0 3.92 4.5-.12 9.04.62 13.4 1.66 2.08.49 4.25 1.37 6.42 1.23 1.84-.12 3.26-1.06 4.62-2.23 1.06-.91 2.04-2.11 3.34-2.7 1.66-.75 3.68-.16 5.26.51 3.84 1.62 6.92 4.26 11.22 4.63 1.58.14 2.32-1.51 2.13-2.8-.29-1.91-.78-4.98.96-6.38 1.18-.96 3.06-1.35 4.46-1.88 1.79-.67 3.57-1.35 5.37-2.02 1.43-.53 2.18-2.37.94-3.55-12.38-11.7-24.77-23.39-37.19-35.06-1.3-1.22-3.47-.35-3.51 1.45-.08 4.32-3.36 7.74-7.04 9.59-4.73 2.37-10.36 2.28-15.51 2.32-2.08.02-2.64 2.67-1.02 3.75 5.01 3.36 9.19 7.87 12.18 13.1.75 1.31 1.43 2.65 2.03 4.04.37.86 1.58 2.94 1.1 3.83-.29.54-1.13.93-1.6 1.26-.81.57-1.61 1.16-2.43 1.72-1.63 1.12-3.31 2.18-4.96 3.26s-.13 3.69 1.54 2.63Z"/><path d="M114.66 95.84c12.71 11.25 24.06 23.92 33.9 37.75 2.8 3.93 5.58 7.96 7.57 12.37.5 1.1 2.09 1.37 3.06.8 1.13-.66 1.3-1.95.8-3.06-1.78-3.97-4.22-7.52-6.82-11-2.58-3.45-5.24-6.83-8.01-10.12-5.55-6.6-11.51-12.87-17.75-18.81-3.54-3.37-7.18-6.62-10.92-9.76-1.26-1.05-3.08.71-1.82 1.82ZM37.81 71.71l-.05-.3-.15-.35c-.09-.17-.22-.31-.38-.41a.8.8 0 0 0-.33-.19c-.18-.09-.37-.13-.57-.13l-.39.05-.35.15c-.17.09-.31.22-.41.38-.13.14-.22.31-.26.5l-.05.3q-.105.405 0 .81c.07.26.2.48.39.67l.31.24c.24.14.49.21.77.21.21 0 .41-.04.59-.13.19-.06.35-.17.49-.31.19-.19.32-.41.39-.67q.105-.405 0-.81Zm6.05-5.63c1.91 0 1.91-2.97 0-2.97s-1.91 2.97 0 2.97m0 10.12c2.03 0 2.03-3.16 0-3.16s-2.03 3.16 0 3.16m6.26-5.15c1.86 0 1.86-2.89 0-2.89s-1.86 2.89 0 2.89m57.68-22.2c-1.51 2.13-3.53 3.77-5.86 4.93-2.52 1.25-5.36 1.81-7.79 3.23-.58.34-.83 1.09-.56 1.71.29.67.92.9 1.61.79 1.51-.24 2.92-.79 4.33-1.35s2.88-1.2 4.23-2.01c2.52-1.5 4.64-3.56 6.22-6.02.37-.58.12-1.4-.45-1.73-.64-.37-1.33-.1-1.73.45"/><path d="M24.88 79.36A43.1 43.1 0 0 1 10 81.83a238.8 238.8 0 0 0 42.67 54.55c5.71 5.44 11.78 10.65 18.88 14.08 4.83 2.33 10.03 3.79 15.28 4.88 21.92 4.55 44.62 2.83 66.89.45 1.7-.18 3.47-.39 4.93-1.28 2.89-1.77 3.68-5.54 4.2-8.89-13.02 3.81-39.28 5.07-52.75 3.55-21.54-2.43-31.34-11.6-43.91-29.26 2.85-1.75 5.7-3.51 8.54-5.26 1.84-1.13 3.87-3.62 2.26-5.07 1.81-.73 3.81-1.65 4.45-3.49.36-1.03.2-2.15.05-3.23-.95-6.54-1.95-13.24-5.12-19.03-3.66.19-7.3.82-10.81 1.87-.36.11-.74.24-.97.54-.5.69.16 1.6.74 2.22 2.54 2.7 4.37 6.07 5.26 9.67.14.57.25 1.17.05 1.72s-.68.93-1.14 1.29c-3.5 2.71-7.13 5.26-10.88 7.62-3.82 2.4-8.53 4.68-12.66 2.86-3.17-1.39-4.9-4.77-6.39-7.89-2.79-5.85-4.51-6.81-7.3-12.66-1.58-3.31-5.04-12.04-8.71-11.87"/><path d="M24.47 77.86c-4.74 1.5-9.51 2.06-14.47 2.01-1.5-.02-2.41 1.67-1.69 2.95 12.24 21.61 27.98 41.66 46.48 58.27 4.67 4.19 9.7 8.13 15.35 10.93 5.83 2.88 12.15 4.55 18.53 5.75 13.48 2.52 27.25 2.83 40.92 2.11 7.74-.41 15.46-1.08 23.18-1.85 3.41-.34 6.88-.72 9.19-3.57 1.9-2.35 2.58-5.33 3.04-8.25.25-1.59-.96-3.23-2.72-2.72-6.4 1.85-13.11 2.65-19.72 3.23-7.54.66-15.13.97-22.7.8-12.95-.28-26.06-2.5-36.3-11.02-6.05-5.03-10.89-11.34-15.43-17.71l-.8 3.04c1.63-1 3.25-2.01 4.88-3.01s3.22-1.84 4.66-2.98c2.38-1.88 4.17-5.23 1.71-7.81l-.97 3.69c2.18-.89 4.54-1.95 5.64-4.19 1.28-2.61.33-5.8-.09-8.52-.88-5.63-2.14-11.22-4.86-16.28-.35-.64-1.16-1.13-1.9-1.09-3.88.22-8.09.7-11.75 2.08-1.95.73-2.92 2.65-2.01 4.6.72 1.56 2.19 2.72 3.14 4.15.88 1.33 1.63 2.76 2.16 4.27.22.62.51 1.32.59 1.98.06.54.14.13.01.44-.15.35-.95.76-1.23.98-3.15 2.39-6.4 4.65-9.76 6.75-2.69 1.68-6.08 3.71-9.39 3.13-2.93-.51-4.57-3.27-5.82-5.69-1.44-2.79-2.83-5.52-4.57-8.15-1.52-2.3-2.87-4.68-4.02-7.19s-2.3-5.11-3.85-7.43c-1.45-2.16-3.46-4.55-6.3-4.54s-2.84 4.42 0 4.41c.16 0 .18-.01.41.11.4.21.33.18.67.51.76.74 1.35 1.6 1.91 2.51 1.19 1.94 2.15 4.02 3.1 6.08 1.05 2.31 2.2 4.56 3.58 6.69 1.5 2.32 3.01 4.6 4.22 7.09s2.48 5.17 4.56 7.15c2.44 2.32 5.63 3.25 8.94 2.77 3.17-.46 6.09-1.99 8.77-3.67 3.08-1.93 6.08-4.01 8.99-6.19 1.46-1.09 3.44-2.2 4.03-4.03.54-1.69-.19-3.65-.78-5.24-.64-1.72-1.44-3.39-2.45-4.92-.48-.73-1.01-1.43-1.55-2.11-.26-.32-.52-.64-.8-.94-.14-.16-.28-.31-.43-.45-.25-.35-.28-.42-.1-.21l-.3 1.1q-.405.27.03.09c.23-.07.46-.13.69-.2.46-.13.92-.25 1.39-.36.85-.21 1.71-.39 2.57-.55 1.77-.32 3.55-.52 5.35-.62l-1.9-1.09c2.18 4.05 3.26 8.54 4.05 13.04.37 2.11.92 4.36.94 6.51.01 1.74-1.64 2.39-3.05 2.96-1.52.62-2.21 2.38-.97 3.69-.25-.27.18-.45-.14-.06-.23.28-.39.56-.64.82-.76.78-1.74 1.28-2.66 1.85-2.31 1.42-4.61 2.83-6.92 4.25-.95.59-1.51 2.04-.8 3.04 4.3 6.03 8.81 12.03 14.31 17.03 4.97 4.53 10.69 8.02 17.05 10.24 6.73 2.35 13.91 3.26 21 3.57 7.65.34 15.34.12 22.98-.46 7.97-.6 16.13-1.43 23.83-3.67l-2.72-2.72c-.34 2.2-.65 4.8-2.06 6.61-1.66 2.13-4.91 2.02-7.34 2.28-6.59.72-13.19 1.36-19.8 1.78-12.95.81-26.09.75-38.93-1.34-6.22-1.01-12.54-2.36-18.35-4.87-5.51-2.38-10.43-5.89-14.95-9.8-8.96-7.74-17.13-16.52-24.66-25.64-8.57-10.39-16.21-21.53-22.93-33.2-.56.98-1.13 1.96-1.69 2.95 5.2.02 10.45-1.08 15.29-2.93 1.83-.7 1.11-3.61-.83-3Z"/><path d="M170 105.16c-.22 9.44 0 21.07-.67 30.48-.28 3.94-.61 7.9-1.67 11.7-.63 2.23-1.57 4.49-3.36 5.97-1.61 1.33-3.72 1.87-5.79 2.15-2.18.3-4.39.35-6.57.16 2.01-2.27 4.01-4.54 6.02-6.81 1.93-2.19 3.9-4.42 5.11-7.07.48-1.04.83-2.12 1.18-3.21 1.83-5.8 3.35-11.71 4.55-17.68"/><path d="M168.55 105.16c-.39 7.76-.46 15.53-.74 23.3-.14 3.9-.36 7.8-.8 11.68-.39 3.5-.83 7.93-3.09 10.8-2.57 3.27-8.29 3.06-11.99 2.78l1.35 3.26c2.29-2.61 4.6-5.2 6.86-7.82 2.08-2.41 3.97-4.91 5.13-7.9s2.06-6.39 2.92-9.61q1.365-5.115 2.4-10.29c.48-2.36-3.14-3.36-3.62-1-1.29 6.43-2.84 12.9-5 19.1-.99 2.84-2.8 5.14-4.77 7.37-2.2 2.49-4.42 4.96-6.62 7.45-1.15 1.29-.31 3.12 1.35 3.26 4.06.34 9.13.26 12.67-2.05s4.76-6.31 5.53-10.15c1.69-8.41 1.51-17.29 1.48-25.83-.02-4.78-.15-9.57-.17-14.35 0-1.88-2.81-1.86-2.91 0ZM90.63 40.84c-.55 2.95-1.37 5.94-3.17 8.35s-4.75 4.14-7.73 3.76c-.44 2.35-2.19 4.21-3.86 5.93l-4.72 4.84c-.33.34-.69.77-.58 1.24.05.22.2.4.35.57 1.73 2.03 3.46 4.07 5.19 6.1 1.15 1.36 2.33 2.74 2.97 4.4 1.09 2.82.39 6.26-1.73 8.42 2.34.9 3.1 4.1 5.4 5.1.87.38 1.85.38 2.8.38h6.48c.36 0 .74 0 1.07-.16.28-.13.49-.37.7-.59 3.51-3.91 6.48-8.31 8.79-13.04.8-.63 1.92.13 2.64.84q3.765 3.765 7.41 7.65c.26.28.57.58.95.6.37.02.69-.23.97-.47 1.78-1.48 3.56-2.96 5.34-4.43 1.11-.92 2.29-1.87 3.71-2.06 1.51-.2 2.97.49 4.34 1.16 2.26 1.11 4.52 2.23 6.78 3.34 1.08.53 2.36 1.07 3.45.56 1.61-.75 1.8-3.32 3.49-3.87-2.4-3.36-5.07-6.53-7.96-9.47-.39-.4-.79-.8-1.3-1.03-.67-.31-1.44-.29-2.17-.38-2.34-.29-4.35-1.73-6.36-2.96s-4.35-2.32-6.65-1.8c-.92.21-1.76.66-2.62 1.05-6.61 2.98-14.24 2.07-21.42 1.1-2.47-.33-4.99-.68-7.21-1.81 2.82-2.46 5.63-4.93 8.45-7.39.79-.69 1.63-1.49 1.72-2.53.04-.5-.11-1-.25-1.48-1.06-3.52-2.11-7.04-3.17-10.56-.06-.2-.17-.45-.38-.45s-.15.44.01.31"/><path d="M89.13 40.42c-1.23 4.56-3.48 11.1-9.41 10.39-.9-.11-1.86.74-2.06 1.57-.75 3.05-3.59 5.23-5.7 7.38-1.12 1.14-2.84 2.4-3.39 3.95-.68 1.93.69 3.25 1.85 4.62 2.08 2.46 4.64 4.88 6.21 7.7 1.23 2.21.85 5-.87 6.84-.87.94-.92 2.89.45 3.49 2.21.96 2.95 3.79 5.12 4.97 1.53.84 3.26.83 4.95.83 1.91 0 3.82.07 5.73 0 1.78-.06 2.8-.76 3.94-2.07s2.3-2.77 3.37-4.21c1.99-2.71 3.73-5.59 5.22-8.6l-.82.82c-.89-.14-1.05-.08-.5.17.13.09.25.2.36.32.42.36.8.81 1.19 1.21.85.86 1.69 1.73 2.53 2.6.78.81 1.56 1.63 2.34 2.45.73.77 1.45 1.76 2.39 2.27 2.39 1.3 4.35-.9 6.04-2.31 1.57-1.31 3.19-3.08 5.04-3.98 1.72-.83 3.81.72 5.3 1.47 1.93.96 3.85 1.99 5.83 2.86 2.02.89 4.28 1.11 6.05-.45.57-.51 1.01-1.16 1.4-1.82.19-.31.46-.67.59-1 .1-.25.25-.26-.02-.15 1.28-.52 2.41-2.11 1.42-3.49-2.52-3.5-5.27-6.9-8.33-9.95-.79-.79-1.67-1.47-2.76-1.79s-2.13-.21-3.16-.54c-1.8-.57-3.34-1.82-4.96-2.75-1.87-1.07-4-1.97-6.2-1.91-2.12.05-3.8 1.13-5.74 1.83-3.84 1.4-7.92 1.54-11.96 1.27-2.23-.15-4.46-.42-6.68-.72s-4.67-.58-6.76-1.58l.48 3.73c2.08-1.82 4.16-3.65 6.23-5.47 1.74-1.52 4.08-3.07 4.51-5.5.22-1.26-.17-2.44-.53-3.64-.39-1.3-.79-2.6-1.18-3.9s-.79-2.6-1.18-3.9c-.42-1.4-.66-2.87-2-3.66-.93-.55-2.02-.32-2.8.36-.54.47-.86 1.21-.79 1.93.09.95.65 2.04 1.7 2.23l.12.02c1.23.22 2.49-.34 2.84-1.62.31-1.12-.38-2.62-1.62-2.84l-.12-.02c.57.74 1.13 1.49 1.7 2.23l-.02-.18-.68 1.64.13-.11-2.8.36.25.15-.83-.83c.41.9.58 2.01.86 2.96.32 1.07.64 2.14.96 3.22s.64 2.14.96 3.22c.13.43.23.86.38 1.28.19.56.18.09-.02.42-.37.62-1.15 1.11-1.69 1.58-.86.75-1.72 1.5-2.58 2.24-1.72 1.5-3.44 2.99-5.15 4.49-1.09.96-.85 3.09.48 3.73 3.76 1.81 8.02 2.13 12.11 2.6 4.06.47 8.12.66 12.17.08 1.92-.28 3.79-.75 5.59-1.48 1.77-.72 3.22-1.7 5.18-1.13 1.83.54 3.38 1.75 5 2.71 1.87 1.1 3.71 1.75 5.86 2.01 1.03.12 1.43.74 2.15 1.49.79.83 1.57 1.68 2.32 2.54 1.58 1.8 3.07 3.68 4.47 5.63l1.42-3.49c-1.24.5-2.08 1.21-2.82 2.33-.29.44-.54.92-.82 1.38-.1.16-.14.28-.29.29-.4.04-1.07-.39-1.4-.55-.71-.35-1.41-.7-2.12-1.04-1.48-.73-2.97-1.46-4.46-2.18-2.94-1.41-5.91-2.17-8.84-.26-1.33.87-2.53 1.98-3.75 2.99l-1.91 1.58c-.32.26-.64.53-.95.79l-.38.32c-.35.39-.46.46-.33.19h1.23s-.76-.88-.93-1.06c-.44-.47-.89-.93-1.34-1.4-.78-.81-1.57-1.62-2.36-2.43-1.46-1.49-3.09-3.71-5.19-4.32-1-.29-2.07-.18-2.96.38-1.03.65-1.46 2.12-2.02 3.16a58 58 0 0 1-3.34 5.4c-.6.86-1.22 1.7-1.88 2.52-.32.4-.65.79-.98 1.18-.27.32-.87.78-1.01 1.16-.33.29-.27.32.19.09-.29 0-.58.01-.86 0H89.5c-1.16 0-2.32 0-3.49.01-.78 0-1.73.13-2.46-.21-.6-.28-1.02-.88-1.42-1.39-1.07-1.38-2.05-2.85-3.71-3.57l.45 3.49c2.9-3.12 3.68-7.6 1.92-11.49-.88-1.95-2.39-3.58-3.77-5.19-.82-.96-1.63-1.91-2.45-2.86-.69-.8-1.72-1.7-2.15-2.63l.3 1.1c0 .45-.05.24.28-.04.3-.25.57-.58.84-.87.45-.46.9-.92 1.34-1.39.96-.99 1.93-1.97 2.88-2.98 1.65-1.76 3.22-3.75 3.7-6.17-.69.52-1.38 1.05-2.06 1.57 3.46.24 6.74-1.57 8.86-4.23 2.29-2.87 3.2-6.45 3.61-10.02.2-1.77-2.61-2.06-3.05-.41Zm10.5 74.29c2.06 0 2.06-3.2 0-3.2s-2.06 3.2 0 3.2m7.25-7.35-.02-.41c0-.21-.04-.4-.13-.57-.06-.18-.16-.35-.31-.48-.14-.15-.3-.25-.48-.31-.18-.09-.37-.14-.57-.13l-.4.05c-.25.07-.47.2-.66.38l-.23.3c-.13.23-.2.48-.2.75l-.02.41c0 .21.04.4.13.58.06.19.16.35.31.49.14.15.3.25.49.31.18.09.37.14.58.13l.4-.05c.26-.07.48-.2.67-.39l.24-.31c.14-.24.21-.49.21-.76Zm1.11 8.66-.08-.39-.14-.32a1 1 0 0 0-.35-.38.64.64 0 0 0-.3-.17c-.16-.08-.33-.12-.52-.12l-.36.05-.32.14c-.16.08-.28.2-.38.35-.12.13-.2.28-.24.46l-.08.39c-.07.25-.07.51 0 .76.07.24.19.45.37.63l.29.22c.22.13.46.19.72.2.2 0 .38-.03.55-.12.18-.06.33-.16.46-.3.18-.18.3-.39.37-.63.07-.25.07-.51 0-.76Zm7.65-2.36c1.76 0 1.76-2.73 0-2.73s-1.76 2.73 0 2.73m10.68 12.52c2.02 0 2.02-3.14 0-3.14s-2.02 3.14 0 3.14m-23.82 7.02c2.07 0 2.07-3.22 0-3.22s-2.07 3.22 0 3.22m8.79-8.18.08.39.15.35c.09.17.21.3.37.41.09.09.2.15.32.19.17.09.36.13.56.12l.38-.05.35-.15c.17-.09.3-.21.41-.37.13-.14.21-.3.26-.49l.08-.39q.105-.405 0-.81c-.07-.26-.2-.48-.39-.68l-.31-.24c-.24-.14-.5-.21-.77-.21-.21 0-.41.04-.59.13-.19.06-.35.17-.49.32a1.5 1.5 0 0 0-.39.68q-.105.405 0 .81Zm-.17 11.02c2.02 0 2.02-3.14 0-3.14s-2.02 3.14 0 3.14m13.56-.86c1.98 0 1.98-3.08 0-3.08s-1.98 3.08 0 3.08m16.01 3.81c2.12 0 2.12-3.3 0-3.3s-2.12 3.3 0 3.3m-40.24-43.43c1.73 0 1.73-2.69 0-2.69s-1.73 2.69 0 2.69"/></svg>