<?xml version="1.0" encoding="UTF-8"?><svg xmlns="http://www.w3.org/2000/svg" viewBox="0 0 180 180"><path d="M106.01 126.86c-11.01 2.08-22.03 4.27-32.59 8.11-5.18 1.88-10.14 4.25-14.97 6.89-4 2.19-8.03 4.41-11.7 7.13-3.56 2.64-7.35 5.95-8.78 10.29-1.67 5.07 1.41 9.84 6.24 11.52 2.32.81 5.07.77 7.5.95 2.59.19 5.18.33 7.78.4 5.2.15 10.4.06 15.59-.27 20.93-1.33 41.33-6.54 60.25-15.6 5.77-2.76 11.76-5.45 16.54-9.81 2.3-2.11 4.38-4.8 5.05-7.91.8-3.68-.28-7.65-2.86-10.4-4.5-4.78-12.02-4.88-18.12-4.87-3.7 0-7.42.2-11.1.55-3.29.31-6.51.91-9.78 1.34-1.24.17-2.64.4-3.61.48-2.06.18-2.08 3.41 0 3.23 5.87-.5 11.77-.73 17.66-1.09 6.02-.37 12.69-.87 18.43 1.03.7.23.74.24 1.22.49.42.22.82.45 1.19.75 1.45 1.15 2.41 2.58 2.85 4.37.58 2.38-.17 4.65-1.7 6.69-3.52 4.69-9.56 7.51-14.74 9.99-7.75 3.71-15.61 6.99-23.84 9.52-9.3 2.87-18.88 4.89-28.54 6.01a169 169 0 0 1-36.45.26c-1.83-.19-3.64-.83-4.78-2.37-2.49-3.35 1.42-7.51 3.77-9.68 3.04-2.81 6.62-4.95 10.18-7.02 4.22-2.45 8.46-4.88 12.91-6.92 9.46-4.34 19.75-6.99 29.88-9.23 2.48-.55 4.98-1.04 7.48-1.51 2.19-.41 1.26-3.76-.92-3.34Z"/><path d="M43.95 156.76c17.27 1.92 34.84 1.71 51.92-1.5s33.67-9.46 48.15-19.06c2.21-1.47 4.43-3.07 5.81-5.33.53-.86.83-2.17-.02-2.72-.29-.19-.83.04-.98-.27-2.53-5.06-36.38-1.83-57.73 4.29-6.96 1.99-22.14 5.79-28.06 9.97-2.71 1.92-5.19 4.18-7.99 5.97-3.51 2.25-7.65 3.86-10.05 7.27"/><path d="M43.59 158.04c9.74 1.72 19.9 1.85 29.76 1.43 9.76-.42 19.5-1.65 29.02-3.84 8.92-2.06 17.6-4.94 25.93-8.73 4.15-1.89 8.2-4 12.11-6.35 3.59-2.15 7.63-4.39 10.23-7.75 1.14-1.47 2.12-3.49 1.04-5.28-.23-.38-.57-.75-.95-.97-.15-.08-.48-.22-.69-.27-1.11-.24.34.16.35.58 0-.27-.48-.66-.68-.86-1.17-1.14-2.93-1.61-4.49-1.91-2.28-.44-4.66-.6-7.21-.65-3.06-.06-6.13.07-9.19.27-14.21.95-28.13 3.68-41.83 7.47-6.76 1.87-13.59 3.74-20.04 6.54-3.28 1.43-5.98 3.36-8.79 5.57-1.75 1.38-3.52 2.7-5.45 3.83-1.7 1-3.46 1.91-5.09 3.03-1.71 1.17-3.17 2.51-4.39 4.19-.65.89-.15 2.28.73 2.8 1.04.61 2.15.16 2.8-.73 2.15-2.94 5.82-4.38 8.83-6.24 3.41-2.1 6.25-5.03 9.7-7.06 5.47-3.22 11.94-4.9 18-6.64 5.94-1.7 11.89-3.41 17.93-4.73 6.89-1.5 13.86-2.64 20.86-3.44 5.94-.67 11.98-1.17 17.96-.93 1.08.04 2.16.13 3.24.25.4.04.08 0 .37.05.21.03.43.07.64.1.41.07.83.16 1.24.27.33.09.65.19.97.31s-.3-.17.08.04c.15.08.3.17.45.25.35.18-.08-.02 0-.02.03 0 .22.2.23.23-.06-.17-.26-.34-.07-.06.28.4.63.75 1.09.94.19.08.5.2.72.16.93-.16-.77-.41-.49-.58-.03.02-.14.46-.17.52-.39.85-1.1 1.6-1.77 2.23-1.47 1.41-3.22 2.5-4.93 3.59-3.59 2.31-7.31 4.41-11.12 6.32-7.78 3.89-15.96 6.89-24.34 9.2-17.98 4.96-36.74 5.87-55.27 4.67-2.32-.15-4.65-.3-6.97-.4-1.46-.06-1.83 2.33-.35 2.59Z"/><path d="M40.63 163.42c-1.17-6.05-3.18-11.99-3.99-18.11-.36-2.68-.19-5.25 1.68-7.33 1.72-1.92 3.95-3.32 6.08-4.74 9.44-6.25 19.75-11.13 30.5-14.67 11.34-3.73 23.15-5.92 34.98-7.32 6-.71 12.03-1.44 18.05-1.93 2.87-.23 5.76-.37 8.64-.22 2.29.12 4.3.38 6.01 2.02 1.73 1.65 2.82 3.83 3.83 5.97 1.4 2.99 2.95 5.92 4.32 8.92.67 1.47 1.28 2.97 1.77 4.52.19.6.38 1.21.52 1.83.12.53.07.26.12.8.1 1 .16 2 .15 3 0 .43-.04.86-.05 1.28 0 .54-.15.48.18.19-1.67 1.45.77 3.88 2.43 2.43-.35.31.51-.55.62-.75.21-.35.35-.76.47-1.15.29-1 .29-2.1.27-3.14-.03-2.08-.33-4.03-.93-6.01-.93-3.05-2.22-5.99-3.56-8.88-1.19-2.58-2.36-5.22-3.74-7.7-1.23-2.22-2.8-4.28-4.89-5.75-2.36-1.66-5.18-1.88-7.98-1.97-6.4-.2-12.75.86-19.08 1.6-13.07 1.52-26.17 3.24-38.83 6.96-11.81 3.47-23.25 8.45-33.66 15.03-5.27 3.33-11.77 7.01-12.08 13.95-.17 3.67.89 7.45 1.91 10.95 1.07 3.68 2.47 7.28 3.36 11.01.45 1.88 3.24 1.07 2.88-.79Z"/><path d="M46.57 129.3c.54-8.24.36-16.57.47-24.83.11-8.28.29-16.55.57-24.83.55-16.38 1.47-32.75 2.81-49.08.32-3.92.46-7.95 1.28-11.81.65-3.06 1.72-6.08 5.19-6.59 2.89-.42 5.61.97 7.83 2.69 2.86 2.23 5.36 5.01 7.8 7.68 10.41 11.44 18.77 24.61 27.2 37.53 9.99 15.29 19.87 30.62 29.14 46.36 1.43 2.42 5.23.22 3.78-2.21-8.61-14.41-17.7-28.5-26.88-42.55-8.9-13.62-17.61-27.57-28.32-39.88-2.54-2.92-5.19-5.78-8.04-8.4-2.53-2.33-5.51-4.57-8.97-5.22-3.26-.61-6.78-.05-9.3 2.24-2.78 2.52-3.49 6.73-3.96 10.27-1.13 8.43-1.51 17.01-2.07 25.49-.56 8.51-1 17.02-1.34 25.54-.68 17.02-1.08 34.12-.38 51.14.09 2.16.2 4.3.42 6.46.18 1.76 2.65 1.8 2.77 0"/><path d="M45.56 126.72c17.95-20.28 40.52-36.46 65.49-46.97.49-.2 1.03-.41 1.53-.23.42.15.7.54.95.91 5.18 7.72 8.43 16.75 14.59 23.71-13.24 1.93-26.37 4.52-39.49 7.1-6.43 1.26-12.89 2.54-19.02 4.82-2.92 1.09-5.75 2.4-8.57 3.7-3.62 1.68-7.27 3.36-10.55 5.63"/><path d="M46.6 127.76a193.2 193.2 0 0 1 32.08-28.02c5.85-4.06 11.94-7.78 18.22-11.13 3.2-1.71 6.45-3.33 9.75-4.84 1.57-.72 3.15-1.44 4.75-2.1.17-.07.35-.17.53-.21.06-.02-.36-.31-.11-.13s.46.69.64.96c.53.83 1.05 1.67 1.55 2.52 4.12 7 7.36 14.53 12.75 20.71.28-1.07.57-2.15.85-3.22-10.79 1.58-21.52 3.49-32.22 5.59-10.33 2.02-20.74 3.76-30.46 7.97-2.63 1.14-5.17 2.46-7.75 3.71s-5.2 2.64-7.62 4.29c-1.91 1.31-.11 4.44 1.83 3.13 4.24-2.86 8.94-4.83 13.61-6.85s9.36-3.67 14.31-4.86c10.31-2.48 20.83-4.28 31.25-6.2 6.01-1.11 12.03-2.16 18.07-3.04 1.55-.23 1.69-2.26.85-3.22-4.97-5.68-7.99-12.7-11.74-19.18-.93-1.61-1.85-3.38-3.05-4.8-1.41-1.66-3.21-1.3-5-.54-3.47 1.47-6.9 3.05-10.27 4.74a182 182 0 0 0-37.1 24.68c-6.44 5.53-12.28 11.57-17.8 18-1.22 1.42.79 3.48 2.08 2.08Zm-1.04-34.39c14.96-16.5 33-27.59 54.18-34.46-.51-1.95-1.77-3.59-3-5.18-2.33-3-4.66-6-6.99-9.01-.26-.34 1.58-1.79 1.18-1.94-.57-.22-3.33 1.15-3.88 1.41a197 197 0 0 0-31.37 18.34c-2.82 2.02-5.69 4.23-7.16 7.37-1.05 2.24-1.3 4.76-1.54 7.23-.45 4.72-.89 9.44-1.34 14.16"/><path d="M46.64 94.45c11.44-12.08 24.99-21.87 40.2-28.64 4.37-1.94 8.86-3.62 13.4-5.09.96-.31 1.6-1.3 1.31-2.31-.8-2.77-2.63-4.97-4.4-7.18-.93-1.17-1.87-2.33-2.78-3.52-.5-.65-1-1.31-1.51-1.96-.2-.26-.4-.52-.6-.79-.04-.05-.73-.78-.74-.81v.99c-.04.19-.27.32-.1.21.13-.09.27-.3.37-.42.25-.29.53-.58.73-.9.65-1.07.32-2.44-.86-2.96-1.56-.68-3.68.6-5.06 1.25-5.05 2.34-10 4.86-14.84 7.62-5.07 2.89-10.01 6.01-14.8 9.34-4.38 3.05-9.14 6.21-10.86 11.54-1 3.1-1.07 6.52-1.37 9.74L43.71 91.3c-.1 1.04.96 1.94 1.94 1.94 1.13 0 1.84-.89 1.94-1.94.49-5.16.92-10.32 1.47-15.47.24-2.22.68-4.43 1.92-6.33 1.09-1.67 2.66-3.02 4.23-4.22 7.66-5.83 16.06-10.85 24.58-15.31 2.45-1.28 4.91-2.53 7.41-3.72.66-.32 1.33-.64 2-.95.32-.14.63-.29.96-.41.15-.06.32-.1.48-.16.85-.36.34.61-.95-.55-.18-.44-.37-.89-.55-1.33v.08c.09-.32.17-.63.26-.95-.22.51-1.22 1.3-1.44 2.19-.27 1.13.48 1.86 1.12 2.68s1.33 1.69 1.99 2.53c1.33 1.69 2.62 3.42 3.92 5.13 1.17 1.54 2.43 3.04 2.98 4.92.44-.77.87-1.54 1.31-2.31-16.29 5.34-31.57 13.48-44.47 24.84-3.67 3.23-7.07 6.68-10.29 10.35-1.28 1.46.79 3.59 2.15 2.15ZM43.63 41.5c7.04-7.36 17.52-13.07 26.45-17.96.21-.12-1.28-.02-1.21-.25.07-.22-.05-.46-.16-.67-1.67-3.12-3.73-6.12-6.59-8.2s-6.63-3.14-10.02-2.11c-1.06.32-2.11.88-2.71 1.81-.45.69-.61 1.52-.76 2.33a108 108 0 0 0-1.71 15.82c-.08 2.25-.27 4.87-2.13 6.13"/><path d="M44.6 42.47c3.97-3.74 8.51-6.97 13.16-9.81 2.36-1.44 4.76-2.8 7.18-4.14 1.21-.67 2.42-1.33 3.64-1.98.97-.52 2.64-1.05 3.2-2.06.61-1.11.06-2.49-1.16-2.85-.25-.08-.53-.1-.8-.11-.44-.02-.8-.26.07.13l.9 1.17c.04.11.09.36 0-.14a3 3 0 0 0-.23-.73c-.16-.36-.34-.7-.53-1.05a34 34 0 0 0-1.48-2.46c-.97-1.43-2.05-2.81-3.3-4.01-2.61-2.51-5.91-4.21-9.54-4.51s-7.49.99-8.69 4.56c-.6 1.79-.77 3.82-1.03 5.69-.29 2.09-.54 4.19-.72 6.29s-.26 4.31-.37 6.46c-.08 1.56-.28 2.98-1.43 4.12-1.54 1.52.42 3.98 2.28 2.96 3.52-1.93 3.1-6.76 3.3-10.17.26-4.49.69-9.08 1.66-13.47.84-3.81 6.61-2.45 9.02-1.1 3.27 1.83 5.89 5.29 7.44 8.67l-.27-.99c.05 1 .35 1.82 1.34 2.23.35.14.71.18 1.09.22.2.02.94.18.25-.01-.39-.95-.77-1.9-1.16-2.85.4-.78.28-.44-.19-.18-.29.16-.59.33-.88.49-.59.33-1.19.67-1.78 1-1.15.65-2.3 1.31-3.44 1.97-2.39 1.39-4.75 2.85-7.06 4.38-4.53 3.01-8.82 6.24-12.42 10.34-1.16 1.32.65 3.17 1.94 1.94Zm78.02 7.07c5.33-4.97 10.84-9.8 15.95-15.01 1.55-1.58-.78-3.85-2.41-2.41-5.46 4.82-10.58 10.07-15.83 15.13-1.5 1.45.77 3.7 2.29 2.29m12.55 22.04c3.03-1.29 5.94-2.85 9-4.09 1.52-.62 3.06-1.2 4.61-1.74s3.66-.88 4.91-2.05c.89-.83.55-2.73-.77-2.92-1.77-.26-3.54.59-5.18 1.19-1.65.6-3.29 1.24-4.91 1.92-3.2 1.34-6.53 2.73-9.45 4.63-.8.52-1.14 1.57-.64 2.43.53.91 1.54 1.01 2.43.64Zm10.55 19.1c1.43.09 2.87.19 4.3.28s3.08.36 4.57.11c.66-.11 1.2-.9 1.18-1.54-.03-.72-.48-1.33-1.18-1.54-.77-.24-1.61-.24-2.41-.29l-2.15-.15c-1.43-.1-2.87-.19-4.3-.29-.89-.06-1.75.83-1.71 1.71.04.98.75 1.65 1.71 1.71ZM27.5 76.18c-7.09-.18-12.57 4.98-15.55 10.98-1.51 3.04-2.9 6.53-2.66 9.99.23 3.37 2.08 6.14 4.94 7.88 4.91 3 12.45 3.05 16.43-1.56 2.03-2.35 2.62-5.8.08-8.02-2.36-2.07-5.65-1.95-8.23-.35-6.17 3.83-8.57 12.25-7.1 19.03.46 2.12 3.62 1.21 3.22-.89-.85-4.55.34-9.58 3.3-13.16 1.26-1.52 3.31-3.44 5.47-2.81 2.37.69 1.7 2.87.23 4.17-3.09 2.73-8.15 2.25-11.45.23-4.65-2.84-2.95-8.33-1.04-12.4 2.32-4.95 6.47-9.78 12.35-9.92 2.04-.05 2.04-3.12 0-3.17Z"/></svg>