<?xml version="1.0" encoding="UTF-8"?><svg xmlns="http://www.w3.org/2000/svg" viewBox="0 0 180 180"><path d="M55.46 125.5c4.76-.12 9.52-.28 14.29-.28 1.1 0 2.12-1.15 1.73-2.26-1.36-3.88-4.25-7.68-4.28-11.91l-1.91 1.91c7.59-.19 15.18-.35 22.78-.53 3.66-.09 7.36-.36 11.01-.27.67.02.54.43.84 1.2.42 1.08.86 2.16 1.29 3.24.8 2.01 1.59 4.02 2.36 6.03.33.87 1 1.47 1.96 1.49 2.97.06 5.95-.11 8.9-.47 1.38-.17 2.76-.36 4.12-.6s3.12-.36 4.33-1.12c2.6-1.64 1.46-4.52.32-6.67-1.32-2.47-2.58-4.96-3.8-7.49-4.94-10.28-8.99-20.97-12.6-31.78-3.76-11.26-7.25-22.61-10.33-34.08-.78-2.92-1.54-5.85-2.11-8.82-.53-2.73-.69-5.48-.93-8.24-.23-2.59-.36-5.71-1.56-8.07-1.28-2.52-4.4-2.21-6.8-2.32-10.94-.49-21.94-.18-32.88.27-5.34.22-10.67.5-16 .81-1.74.1-3.74-.16-4.79 1.52-.44.7-.65 1.54-.81 2.35-1.11 5.64-.97 11.64-1 17.36s.22 11.94.63 17.92c1.44 20.86 4.34 42.49 13.68 61.46 1.14 2.32 2.38 4.58 3.72 6.8 1.25 2.07 4.36.24 3.24-1.89-9.29-17.7-13.51-37.34-15.41-57.11-1.22-12.75-1.85-25.61-1.05-38.41.08-1.23.18-2.45.32-3.67.07-.65-.02.05.04-.31.04-.24.07-.49.12-.73.07-.4.17-.8.27-1.19.03-.14.1-.27.14-.4 0 .02-.26.5-.03.13-.18.28-.4.47-.57.56-.03.02-.59.25-.59.24 0 .02 1.19-.07 1.24-.07 2.42-.14 4.84-.28 7.26-.41 10.39-.55 20.8-.92 31.21-.97 2.59-.01 5.19 0 7.78.04l3.68.06c.96.02 2.15-.13 3.08.1-.34-.08-.11-.51-.13.12 0 .23.19.71.24.9.15.6.27 1.2.38 1.81.23 1.33.35 2.68.46 4.03.23 2.75.46 5.48.98 8.19 1.06 5.52 2.67 10.96 4.2 16.37 1.53 5.43 3.22 10.8 4.92 16.18 3.3 10.42 6.8 20.79 10.95 30.91 2.01 4.91 4.16 9.76 6.51 14.52.58 1.19 1.18 2.36 1.79 3.54.32.62.65 1.24.98 1.86.2.38.42 1.16.71 1.46l.05.17c.02-.2.1-.38.23-.54 0 0-.98.22-.82.19-.63.14-1.26.26-1.89.38-1.4.26-2.81.47-4.22.63-2.72.31-5.44.41-8.18.42l1.96 1.49c-.91-2.23-1.8-4.47-2.68-6.72-.73-1.87-1.33-4.79-3.11-5.97-1.53-1.01-3.68-.64-5.42-.59-2 .06-4 .11-6 .17-8.33.22-16.66.43-24.99.68-1.02.03-1.92.85-1.91 1.91.05 4.77 3.09 8.54 4.65 12.86l1.73-2.26c-4.75.39-9.52.62-14.29.89-1.89.11-1.92 3.02 0 2.97Z"/><path d="M92.67 78.6c-.17-.85-.71-1.57-1.24-2.25-4.12-5.35-8.25-10.7-12.37-16.05-2.76-3.58-5.52-7.16-8.57-10.48-1.16-1.26-2.48-2.54-4.17-2.81-1.47-.23-4 .35-5 3.68l.12-.61c-3.18 9.04-6.35 18.07-9.53 27.11-.56 1.61-1.12 3.43-.34 4.95 1 1.97 3.61 2.32 5.82 2.4 9.61.33 19.24 0 28.81-1 1.53-.16 3.11-.35 4.43-1.13 1.33-.78 2.34-2.3 2.04-3.81m-26.63-8.96c-.85-4.63-1.56-9.29-2.13-13.97-.02-.17-.04-.35.05-.49.09-.15.28-.2.44-.25 1.81-.48 3.73-.56 5.58-.25.21.04.42.08.58.22.19.16.26.43.32.67.52 2.24.8 4.53 1.08 6.81l.66 5.43c.05.41.09.85-.1 1.22-.35.66-1.25.74-2 .74-1.39 0-2.79-.02-4.18-.03zm7.39 10.38c-.5.23-1.06.31-1.61.36-.76.07-1.54.08-2.25-.2-1.03-.4-1.78-1.39-2-2.48-.23-1.08.02-2.23.56-3.2.32-.59.83-1.14 1.41-1.43l-1.73.28c.98-.67 2.17-1.02 3.35-.99.31 0 .62.04.91.14.31.11.6.28.87.47 1.16.83 2.09 2.06 2.28 3.48s-.5 2.97-1.79 3.57"/><path d="M94.6 78.07c-.59-2.24-2.48-4.07-3.86-5.86-1.61-2.09-3.22-4.18-4.83-6.26-3.05-3.96-6.06-7.95-9.18-11.85-1.55-1.94-3.14-3.87-4.84-5.69-1.37-1.48-2.99-2.95-5.05-3.32-3.59-.65-6.39 1.81-7.46 5.07l3.86 1.06.12-.61c.51-2.53-3-3.5-3.86-1.06-2 5.69-4 11.37-5.99 17.06-.99 2.8-1.97 5.61-2.96 8.41-.89 2.54-2.05 5.31-.8 7.94 1 2.1 3.21 3.06 5.4 3.38 2.66.39 5.41.3 8.1.32 5.87.04 11.74-.17 17.59-.63 2.97-.23 6.34-.19 9.19-1.17 2.61-.89 5.04-3.28 4.65-6.25-.14-1.07-.82-2-2-2-.97 0-2.14.92-2 2 .26 1.98-1.91 2.58-3.49 2.82-2.41.37-4.89.5-7.32.68-5.12.37-10.25.56-15.39.56-2.47 0-4.95 0-7.42-.14-1.2-.06-3.36-.14-3.8-1.55-.28-.91.17-2.01.45-2.85.41-1.23.86-2.45 1.29-3.68.85-2.42 1.7-4.83 2.55-7.25 1.94-5.53 3.89-11.06 5.83-16.59l-3.86-1.06-.12.61c-.51 2.52 3.05 3.52 3.86 1.06.83-2.55 2.8-2.84 4.71-1.12 2.9 2.62 5.3 5.96 7.69 9.03 2.59 3.32 5.15 6.67 7.72 10.01 1.31 1.7 2.62 3.39 3.92 5.09l2.11 2.74c.52.67 1.12 1.33 1.34 2.17.65 2.49 4.51 1.43 3.86-1.06Z"/><path d="M67.97 69.1c-.43-2.37-.83-4.74-1.19-7.12-.18-1.16-.35-2.33-.5-3.5-.07-.5-.13-1.01-.2-1.51-.04-.29-.07-.58-.11-.88-.02-.15-.04-.29-.05-.44-.02-.24-.02-.23-.02.04l-.51.88c-.5.24-.6.32-.3.23.14-.04.27-.07.41-.1.27-.06.55-.12.83-.15.43-.05.86-.07 1.29-.08.51 0 1.03 0 1.55.07.04 0 .42.11.51.08-.61-.85-.85-1.07-.73-.64l.09.37c.47 2.07.72 4.18.97 6.28.13 1.05.25 2.1.38 3.14l.21 1.71c0 .03.06.78.08.79-.11-.06.32-.42.34-.52l.14-.07c-.21.04-.25.05-.11.04.2 0-.34.01-.41.01h-1.59c-.6 0-1.2 0-1.79-.01-.11 0-.95.01-.41.05-.08 0-.18-.06-.26-.09-1.02-.35-2.19.4-2.46 1.4-.3 1.1.37 2.11 1.4 2.46.61.21 1.24.18 1.88.18.9 0 1.79.01 2.69.02 1.58.01 3.31-.21 4.18-1.73.47-.83.43-1.75.32-2.66-.1-.86-.21-1.71-.31-2.57-.21-1.75-.42-3.5-.65-5.24-.21-1.56-.38-3.2-.84-4.71-.65-2.14-2.82-2.32-4.74-2.35-.84-.02-1.67.06-2.5.18s-1.75.22-2.46.65c-1.78 1.09-1.03 3.43-.81 5.11.52 3.92 1.13 7.83 1.84 11.73.19 1.06 1.48 1.66 2.46 1.4 1.12-.31 1.59-1.39 1.4-2.46Z"/><path d="M72.43 78.3c.5-.21.07-.05-.04-.02s-.22.05-.34.08c-.05 0-.09.02-.14.02-.15.02-.09.02.19-.02-.05.05-.28.03-.35.03-.26.02-.52.04-.79.03-.12 0-.24-.02-.36-.02-.24 0 .4.1.04 0-.11-.03-.23-.05-.34-.09-.35-.11-.06-.08.06.04-.06-.06-.24-.13-.31-.17-.3-.17.25.23.08.07-.07-.07-.15-.13-.22-.2-.06-.07-.23-.34-.08-.07l-.05-.09c-.06-.1-.12-.21-.18-.31-.17-.31.11.33.03.1-.03-.09-.07-.19-.09-.28s-.04-.2-.07-.3c-.06-.24.02.43 0 .05 0-.14-.01-.27 0-.41v-.14q.03-.27 0 0c-.03.17-.02.17 0 0l.03-.14c.02-.11.05-.22.09-.34s.07-.22.11-.33c.14-.44-.2.37.02-.03.11-.19.21-.38.33-.57.22-.36-.29.3 0 0 .06-.06.12-.13.18-.19.05-.04.09-.09.14-.13q.165-.15-.15.12s.31-.18.32-.19c.88-.47 1.19-1.62.82-2.5-.41-.98-1.36-1.32-2.36-1.16l-1.73.28c.51 1.22 1.03 2.44 1.54 3.66.25-.17.51-.3.77-.44.14-.06.08-.04-.16.06.08-.03.17-.07.26-.1.13-.04.26-.09.39-.12l.4-.09c.45-.11-.45.02 0 0 .27-.02.54-.01.81-.02.4 0-.44-.11.06.01.06.01.13.03.19.05q-.345-.165-.15-.06c.14.09.29.16.43.25.13.09.39.37 0-.01.17.17.37.32.55.49.09.09.17.18.25.27.05.06.11.12.16.19-.17-.23-.22-.28-.13-.16.14.22.29.44.41.68l.05.11c.09.19.07.15-.06-.14-.02.07.1.28.11.34.03.12.06.23.08.35.09.41-.01-.44 0-.07v.34c0 .07-.03.58 0 .18.02-.36-.02.03-.04.12-.03.1-.13.28-.12.38l.12-.27c-.03.07-.06.14-.1.2-.05.1-.11.19-.17.29-.2.33.31-.33.05-.05-.08.08-.16.16-.23.24-.25.28.36-.22.06-.04-.13.08-.25.15-.39.22-.94.46-1.27 1.88-.72 2.74.62.97 1.73 1.21 2.74.72 1.39-.67 2.4-2.14 2.68-3.64.31-1.64-.04-3.36-1.02-4.72-1.03-1.44-2.47-2.72-4.28-2.96s-3.58.23-5.02 1.2c-.83.56-1.22 1.55-.82 2.5s1.36 1.32 2.36 1.16l1.73-.28c-.51-1.22-1.03-2.44-1.54-3.66-2.83 1.51-3.78 5.5-2.38 8.26.66 1.31 1.98 2.37 3.43 2.66 1.62.32 3.35.13 4.85-.52.43-.19.8-.77.92-1.2.13-.48.07-1.12-.2-1.54s-.69-.8-1.2-.92c-.56-.13-1.02-.02-1.54.2ZM37.41 17.61c-1.43-.05-7.53-.55-8.04.79s-1.1 9.13-.69 15.42c1.11 16.9-2.72 38.75-6.89 55.05-2.36 9.22-6.74 19.16-11.59 27.56-.58 1 .19 2.25 1.35 2.2 5.32-.23 8.71-.25 12.72-.47 1.05-.06 2.16-.16 3.03-.75 2.49-1.67.19-6.57 2.86-7.93.73-.37 1.59-.41 2.41-.44 3-.11 6-.23 9-.34a97 97 0 0 1-6-10c-.71-1.37-1.39-2.77-1.79-4.26-.47-1.77-.54-3.62-.59-5.45-.26-9.33-.3-18.7-1.73-27.92-.33-2.11-.73-4.2-.99-6.32-.87-7.02.7-29.29 1.37-36.34"/><path d="M37.41 16.01c-1.55-.11-3.09-.28-4.64-.28s-3.54.06-4.62 1.27c-1.01 1.14-1 3.28-1.16 4.69-.27 2.51-.37 5.04-.39 7.56-.04 5.32.4 10.59.17 15.92-.24 5.59-.82 11.18-1.62 16.72-.82 5.63-1.85 11.24-3.06 16.8-1.16 5.35-2.4 10.72-4.16 15.91-1.93 5.7-4.37 11.21-7.17 16.53-.62 1.17-1.25 2.34-1.91 3.49-.73 1.28-1.24 2.53-.58 3.97 1.33 2.91 5.01 2.02 7.57 1.93 2.81-.09 5.62-.14 8.43-.32s5.49-1.11 6.16-4.14c.24-1.09.24-2.2.3-3.31.02-.43.02-.88.2-1.29.05-.11.03-.14.26-.25.62-.3 1.67-.18 2.34-.2l2.37-.09c1.89-.07 3.79-.14 5.68-.22 1.43-.05 2.65-1.71 1.74-3.04-2.2-3.21-4.21-6.54-5.97-10.02-.76-1.51-1.46-3-1.78-4.67-.38-1.95-.31-4-.36-5.98-.2-7.85-.33-15.73-1.34-23.53-.43-3.32-1.21-6.63-1.46-9.97-.14-1.9-.15-3.82-.14-5.72.03-5.05.28-10.09.57-15.13.28-4.76.6-9.52 1.04-14.26.25-2.62-3.85-2.61-4.09 0-.88 9.38-1.48 18.83-1.61 28.26-.03 2.09-.04 4.18.08 6.27.17 2.92.77 5.8 1.22 8.68 1.23 7.91 1.37 15.95 1.56 23.94.05 2.21.03 4.44.27 6.64.24 2.24.87 4.28 1.86 6.31 1.89 3.9 4.22 7.65 6.66 11.22l1.74-3.04c-3 .11-6 .2-9 .34-2.46.11-4.73.84-5.55 3.39-.27.84-.33 1.76-.38 2.64-.04.73.04 1.63-.26 2.31-.19.43-.65.58-1.32.68-1.21.18-2.5.15-3.73.19-2.48.09-4.95.15-7.43.24-.62.02-1.26 0-1.87.07-1.14.15-.17-.14-.15.27l.15.18q-.21.9.15.09c.85-.99 1.41-2.52 2.02-3.67 2.66-5.03 5-10.25 6.94-15.61 3.54-9.81 5.56-20.28 7.22-30.55 1.68-10.39 2.85-20.99 2.39-31.53-.23-5.2-.46-10.36.11-15.55.04-.34.05-.39.12-.82 0-.06.07-.22.06-.27.05-.15.04-.15-.02 0-.08.21-.22.38-.42.5.03-.08.27-.12.6-.19.38-.08.75-.11 1.13-.14 1.68-.13 3.37-.07 5.05-.06 2.07.02 2.02-3.04 0-3.19Zm106.83 113.11c-5.41.44-10.81.67-16.24.63s-10.85-.45-16.28-.54c-4.19-.08-8.48.47-12.44 1.9-3.44 1.25-8.32 3.6-8.65 7.79-.09 1.18.26 2.29 1.01 3.19.36.44 1.01 1.28 1.53 1.5.33.14-.04.07.05.03.12-.04.4-1.92.47-1.88-.16-.1-1.41.31-1.66.36-1.18.23-2.35.46-3.53.7-4.85.98-9.61 2.24-14.12 4.29-3.27 1.48-6.67 3.65-6.75 7.64-.05 2.23 1.06 4.28 2.76 5.68 4.08 3.34 10.03 4.02 15.09 4.52 4.53.44 9.05.4 13.59.53 10.27.29 20.49.43 30.76-.14 9.49-.53 19.36-1.16 27.78-6.04 1.95-1.13 4.05-2.57 4.51-4.94.38-1.95-.59-3.5-1.61-5.06-.83-1.26-.89-1.68.53-2.58 1.93-1.21 3.97-2.1 5.79-3.51 3.4-2.63 6.84-6.83 4.2-11.24-2.2-3.67-7.03-4.88-10.96-5.47-2.49-.37-5.12-.36-7.62-.2-2.14.14-2.18 3.44 0 3.36 2.42-.09 4.7.14 7.08.54 1.96.33 4.03.74 5.8 1.7 1.12.6 2.56 1.57 2.71 2.97.19 1.78-1.87 3.37-3.12 4.3-1.75 1.3-3.65 2.25-5.54 3.31-1.63.91-3.23 2.16-3.81 4.01s.06 3.58 1.05 5.1c.29.44.84 1.17.98 1.49.07.16.05.64.11.38-.04.16-.38.56-.58.74-1.45 1.28-3.56 2.19-5.34 2.92-2.04.83-4.16 1.45-6.31 1.93-4.21.93-8.51 1.27-12.8 1.52-9.96.59-19.94.81-29.91.5-4.46-.14-8.93-.12-13.39-.33-4.74-.22-9.84-.54-14.05-2.37.12.05-.35-.16-.47-.22-.2-.1-.4-.2-.6-.32-.22-.12-.43-.25-.64-.39-.08-.05-.15-.1-.22-.15-.47-.32.19.17-.05-.03-.32-.27-.62-.56-.89-.87.39.45-.48-.98-.25-.39-.07-.17-.11-.35-.17-.52-.03-.1-.05-.21-.07-.31-.07-.3.03.4.01.09-.01-.2-.01-.39-.02-.59 0-.11.01-.24.02-.35-.04.44 0-.04.07-.23.5-1.26 1.85-1.98 2.99-2.58 3.8-2.01 7.98-3.23 12.15-4.2 2.27-.53 4.56-.91 6.84-1.39 1.77-.37 3.71-1.49 3.19-3.62-.17-.72-.6-1.28-1.07-1.83-.32-.37-.97-.9-1-1.13-.12-1.01 1.71-2.05 2.44-2.49 2.86-1.7 6.31-2.54 9.58-2.99 4.64-.65 9.66-.18 14.43-.24 5.1-.07 10.19-.35 15.28-.68q3.69-.24 7.38-.6c2.04-.2 2.08-3.39 0-3.22Z"/><path d="M104.71 140.87c1.07 1.03 1.12 2.67.56 3.98-.64 1.49-2.12 2.38-3.53 3.02-3.35 1.52-7.07 1.86-9.98 4.3-.89.75-.54 2.21.35 2.75 1.77 1.07 3.8 1.19 5.82 1.24 2.41.06 4.81.09 7.22.18 4.9.19 9.8.48 14.71.48s9.63-.09 14.4-.61c4.81-.52 9.58-1.48 14.3-2.54 1.5-.34.87-2.63-.64-2.31-4.59.98-9.23 1.39-13.9 1.71s-9.11.56-13.68.59-9.16 0-13.74-.17c-2.25-.08-4.5-.23-6.74-.41-1.95-.15-4.33.03-5.97-1.2v3.03c3.64-2.73 8.59-2.95 11.96-6.1 2.77-2.59 3.6-7.27.25-9.74-1.04-.77-2.28.9-1.37 1.78Z"/><path d="M118.41 141.74c.19.15-.88 1.49-.99 1.63-.56.71-1.04 1.42-1.2 2.33-.14.79.21 1.69 1.07 1.89 4.74 1.1 9.74 1.52 14.61 1.46 2.38-.03 4.76-.19 7.13-.48s5.13-.51 7.43-1.37c1.45-.54 1.4-3.08-.39-2.92-2.36.21-4.68.86-7.04 1.14s-4.59.42-6.89.45c-4.74.07-9.37-.44-14.03-1.25l1.13 1.48c.07-.6.69-1.19 1.01-1.67.35-.53.62-1.1.73-1.74.21-1.25-.21-2.44-1.3-3.12-1.41-.87-2.49 1.21-1.26 2.16Zm16.08-1.45c.48 0 .97 0 1.45.04.26.02.52.04.78.07.02 0 .38.05.13.01l.39.06c.48.08.95.17 1.42.29s.97.29 1.46.37c.59.1 1.15-.11 1.39-.68.21-.5.05-1.23-.48-1.47-1.06-.49-2.27-.65-3.42-.8-1.03-.13-2.08-.17-3.12-.13-.58.02-1.15.5-1.12 1.12s.49 1.12 1.12 1.12m13.08-1.84c1.89 0 1.89-2.94 0-2.94s-1.89 2.94 0 2.94m8.65-.88c1.9 0 1.9-2.95 0-2.95s-1.9 2.95 0 2.95m-2 5.9c2.07 0 2.07-3.22 0-3.22s-2.07 3.22 0 3.22m-21.09-43.11c.92-2.84 1.99-5.62 3.22-8.35s2.78-5.37 4.13-8.08c1.09-2.18-2-4.04-3.29-1.92-1.65 2.69-2.88 5.73-4.09 8.63-1.2 2.89-2.27 5.84-3.22 8.82-.66 2.08 2.59 2.96 3.25.9m9.14 7.9c2.6-2.14 5.16-4.34 7.78-6.47 1.22-.99 2.45-1.97 3.7-2.93.71-.55 1.42-1.08 2.13-1.62.59-.46.98-.82 1.56-1 1.52-.46 1.83-2.18.88-3.33-1.8-2.17-4.45.23-5.95 1.45s-2.94 2.42-4.39 3.66c-2.85 2.45-5.67 4.96-8.26 7.68-.68.71-.7 1.86 0 2.56.75.75 1.8.62 2.56 0Zm8.05 10.29c1.82-.79 3.64-1.58 5.46-2.38l2.68-1.17c.91-.39 1.92-.72 2.74-1.28.77-.53 1.14-1.43.76-2.32s-1.29-1.31-2.19-1.08c-1.05.27-2.04.86-3.01 1.33l-2.72 1.31c-1.81.87-3.63 1.75-5.44 2.62-.81.39-1.09 1.61-.62 2.35.55.86 1.47 1 2.35.62Z"/></svg>