<?xml version="1.0" encoding="UTF-8"?><svg xmlns="http://www.w3.org/2000/svg" viewBox="0 0 180 180"><path d="M108.04 31.62c-4.44-3.25-10.38-4.61-15.79-5.12-2.73-.26-5.62.1-7.97 1.6s-4.1 3.86-5.78 6.15c-3.92 5.33-7.83 10.67-11.75 16-3.47 4.72-7.51 9.37-9.71 14.86-3.38 8.44 1.6 17.1 8.24 22.26 6.34 4.93 14.89 9.23 23.14 7.79 5.53-.97 9.13-5.32 12.16-9.7 3.83-5.54 8.22-10.66 11.23-16.73 1.25-2.51-2.53-4.73-3.78-2.21-2.53 5.09-6 9.51-9.36 14.06-2.52 3.41-4.74 7.7-8.77 9.57-6.17 2.86-14.13-.96-19.38-4.4-2.44-1.6-4.83-3.45-6.66-5.76-.22-.28.28.41-.03-.05-.06-.09-.13-.18-.19-.27-.35-.52-.68-1.06-1-1.6-.66-1.13-1.26-2.29-1.67-3.53-.59-1.74-.85-3.57-.53-5.4.84-4.71 4.3-8.73 7.05-12.46 3.58-4.86 7.16-9.73 10.74-14.59 1.84-2.49 3.59-5.07 5.54-7.48 1.73-2.14 3.63-3.77 6.48-3.99 2.62-.2 5.32.24 7.89.72 2.93.55 5.75 1.44 8.26 3.09 1.78 1.17 3.29-1.59 1.64-2.81"/><path d="M95.93 52.12c.57-.01 1.13 0 1.7.03.31.02.61.05.91.08.13.01.26.03.39.04.05 0 .58.08.28.03s.23.04.28.05c.13.02.26.04.39.07.28.05.56.11.83.18.58.14 1.14.29 1.72.39.88.16 1.73-.17 2.09-1.03.31-.74.08-1.85-.73-2.21-.67-.31-1.33-.53-2.05-.68s-1.44-.24-2.16-.32c-1.22-.13-2.44-.1-3.66.03-.46.05-.85.15-1.18.49-.29.29-.51.77-.49 1.18.04.89.74 1.7 1.67 1.67Z"/><path d="M98.68 62.28c2.73-4.79 5.95-9.42 9.24-13.84.77-1.04 1.55-2.07 2.35-3.08.79-1.01 1.59-2.25 2.64-3.03.81-.61 1.85-.65 2.81-.7 1.56-.08 3.12-.18 4.68-.26 11.79-.67 23.59-1.18 35.4-1.57 2.82-.09 5.66-.29 8.48-.23 1.44.03 3.65.14 3.52 2.06-.08 1.19-.64 2.41-1.04 3.53-.47 1.31-.95 2.61-1.46 3.91-1 2.56-2.09 5.08-3.25 7.57a137 137 0 0 1-5.59 10.68c-.13.23-.62 1.07-.65 1.08-.19.09-1.56-.11-2.02-.14-5.9-.42-11.79-.94-17.67-1.54a562 562 0 0 1-39.18-5.45c-1.19-.21-2.41.32-2.75 1.56-.3 1.08.37 2.54 1.56 2.75 12.74 2.2 25.55 3.99 38.4 5.34 6.37.67 12.75 1.23 19.14 1.7 1.49.11 3.14.39 4.53-.34 1.27-.67 1.98-1.95 2.67-3.14 1.55-2.68 3-5.41 4.36-8.19 2.62-5.37 5.16-10.99 6.87-16.72.76-2.55.69-5.44-1.5-7.27-1.92-1.6-4.53-1.82-6.93-1.77-12.97.26-25.94.92-38.9 1.65-3.51.2-7.17.15-10.64.75-3.39.59-5.18 3.29-7.08 5.88-2.01 2.72-3.9 5.53-5.7 8.4-1.8 2.89-3.35 5.88-4.96 8.87-.94 1.75 1.68 3.3 2.67 1.56ZM77.13 36.09c-7.7-.54-15.38-1.4-23.08-1.98-3.89-.29-7.77-.59-11.66-.84-1.69-.11-3.38-.09-4.94.67-1.58.77-2.7 2.23-3.81 3.54-2.33 2.75-4.58 5.58-6.73 8.47-1.02 1.37-2.02 2.76-3.01 4.16-1.01 1.44-2.3 2.93-2.91 4.6-1.19 3.3 1.69 5.43 4.58 5.94 3.57.64 7.18 1.1 10.77 1.56 7.83 1 15.74 1.69 23.64 1.8 2.77.04 2.74-4.16 0-4.28-6.41-.28-12.8-.62-19.18-1.33-3.04-.34-6.08-.73-9.11-1.18-1.57-.23-3.15-.47-4.72-.73-.49-.08-1-.15-1.47-.32-.16-.06-.44-.24-.6-.3-.01 0 .24.24.16.35.85-1.08 1.54-2.39 2.33-3.53a176 176 0 0 1 9-11.79c.82-.99 1.72-2.41 2.86-3.06s2.85-.32 4.13-.24c3.47.21 6.95.42 10.42.62 7.77.45 15.56.6 23.33 1.08 2.06.13 2.05-3.06 0-3.2Z"/><path d="M108.15 53.79c19.1.34 38.19.84 57.28 1.11 2.38.03 2.38-3.67 0-3.7-19.09-.29-38.19-.14-57.28.02-1.66.01-1.66 2.55 0 2.58Z"/><path d="m114.95 59.51 5.55-9.63c.91-1.58 1.81-3.16 2.72-4.74.44-.77.88-1.53 1.32-2.3s.98-1.53 1.01-2.48c.04-1.04-1.24-1.8-2.13-1.22-.8.52-1.14 1.31-1.6 2.11-.4.72-.8 1.44-1.2 2.15-.92 1.64-1.84 3.29-2.75 4.94-1.8 3.24-3.59 6.48-5.39 9.73-.89 1.61 1.55 3.04 2.47 1.44m20.85-16.4c-1.88 3.71-3.8 7.42-5.81 11.06-2.02 3.66-4.36 7.12-6.43 10.74-1.08 1.89 1.63 3.36 2.86 1.67 2.49-3.39 4.52-7.24 6.49-10.95 1.99-3.75 3.74-7.57 5.26-11.54.52-1.36-1.7-2.29-2.36-.99Zm7.36 20.61c2.51-4.14 4.72-8.46 6.88-12.79 2.14-4.29 4.47-8.6 6.26-13.05.7-1.75-2.19-2.95-3.04-1.28-2.17 4.23-3.96 8.69-6.04 12.97-2.09 4.29-4.28 8.53-6.29 12.86-.69 1.49 1.36 2.76 2.24 1.31ZM31.04 46.96c6.42.61 12.85 1.2 19.26 1.89 3.12.33 6.24.7 9.36 1.09 1.66.21 3.32.42 4.98.65 1.59.22 3.25.61 4.85.54 1.7-.07 2-2.39.4-2.93s-3.23-.59-4.82-.8-3.28-.42-4.92-.62q-4.8-.585-9.6-1.08c-6.49-.67-12.99-1.18-19.51-1.43-1.76-.07-1.7 2.54 0 2.7Z"/><path d="M34.19 59c2.41-3.53 4.97-6.98 7.64-10.31 1.32-1.65 2.66-3.27 4.04-4.87 1.39-1.62 2.96-3.22 4.08-5.05.63-1.03-.68-2.51-1.74-1.74-1.74 1.26-3.16 2.96-4.54 4.58s-2.86 3.44-4.23 5.21c-2.7 3.49-5.21 7.09-7.59 10.81-.95 1.49 1.37 2.8 2.35 1.37Zm17.01-2.59c4.42-6 8.98-11.93 13.25-18.03 1.02-1.46-1.38-3.35-2.49-1.92-4.65 5.96-8.92 12.29-13.1 18.59-.98 1.48 1.32 2.74 2.33 1.36Zm51.77-25.78c.59-.95 1.14-1.94 1.73-2.9.29-.47.6-.92.92-1.36.05-.07.1-.13.15-.2.14-.18-.05.05-.08.11.07-.11.16-.21.25-.31.33-.4.73-.78.84-1.3.13-.59 0-1.18-.43-1.62-.38-.38-1.09-.65-1.62-.43-.35.14-.68.28-.93.59a34 34 0 0 0-.98 1.3c-.35.49-.67.99-.97 1.5-.65 1.1-1.18 2.29-1.44 3.54-.14.69.14 1.37.81 1.65s1.37.02 1.75-.57m-7.27-1.32c.82-.51 1.37-1.25 1.93-2.01.21-.29.42-.58.62-.88.33-.49.65-1.07.6-1.67-.04-.52-.25-.98-.72-1.25s-1-.24-1.47 0c-.37.19-.61.47-.83.82-.1.15-.19.3-.28.46-.18.32-.37.64-.56.95s-.4.6-.59.9c-.24.39-.43.8-.59 1.24-.07.2-.05.49 0 .69.07.27.24.5.46.67.4.31.99.37 1.43.1Z"/><path d="M97.16 20.35c5.13-.56 10.7.07 15.25 2.63 1.93 1.09 3.65 2.49 5.11 4.15.71.8 1.31 1.68 1.83 2.62.59 1.05.78 2.21 1.32 3.24.31.59 1.24 1.05 1.9.77 3.55-1.49.88-5.8-.66-7.89a21.2 21.2 0 0 0-6.48-5.81c-5.72-3.3-12.28-3.76-18.66-2.58-1.6.3-1.26 3.05.39 2.87m-38.5 48.46c.04-1.38.97-2.62 2.15-3.34s2.58-.99 3.95-1.11c5.33-.46 10.75 1.17 15.21 4.12 4.47 2.95 8.02 7.17 10.6 11.86 1.14 2.08 2.13 4.44 1.64 6.76-.53 2.55-2.69 4.4-4.72 6.04 2.33-.32 4.29-1.9 5.89-3.62 2.21-2.38 3.97-5.13 5.73-7.87l7.56-11.82c.11-.17.22-.38.12-.55-.08-.14-.26-.19-.42-.22l-9.34-1.89c-.87-.18-1.88-.46-2.2-1.3-.16-.42-.1-.9 0-1.34.46-2.31 1.49-4.5 2.97-6.33.11-.13.22-.27.25-.44.1-.55-.67-.79-1.23-.79-1.37-.01-2.8 0-4-.64s-2.07-2.16-1.49-3.4c.35-.75 1.12-1.21 1.88-1.55 1.95-.87 4.11-1.27 6.24-1.16.65.03 1.32.11 1.93-.1.99-.34 1.58-1.33 2.13-2.21 1.48-2.36 3.31-4.49 5.41-6.31 1.29-1.12 2.82-2.38 2.8-4.08 0-.75-.33-1.46-.79-2.05-1.12-1.43-2.93-2.1-4.66-2.66-5.21-1.71-10.65-3.15-16.12-2.69-1.58.13-3.18.44-4.54 1.24-1 .59-1.83 1.42-2.64 2.25A104.4 104.4 0 0 0 63.46 61.9c6.64-.23-3.74-3.63 1.83 0"/><path d="M60.12 68.81c.25-2.12 2.92-2.66 4.64-2.77 2.08-.13 4.19.05 6.23.52 4.05.95 7.81 2.99 10.91 5.76s5.6 6.1 7.44 9.78c.89 1.78 1.58 3.86.6 5.74-.85 1.62-2.39 2.81-3.78 3.95-1.63 1.33.2 3.46 1.85 3.18 5.3-.9 8.8-6.36 11.56-10.49 1.66-2.49 3.28-5.02 4.92-7.53.79-1.22 1.6-2.42 2.4-3.64s2.06-2.57 1.98-4.04c-.09-1.64-1.49-2.12-2.87-2.4-1.56-.32-3.11-.63-4.67-.95-1.37-.28-2.74-.43-4.11-.66-.22-.04-.47-.07-.68-.14-.37-.12-.09.22-.15-.09-.12-.64.38-1.48.63-2.03.51-1.14 1.11-2.23 1.86-3.23.76-1.01 1.45-2.04.7-3.31-.68-1.14-1.95-1.35-3.16-1.39-.99-.03-2.48.1-3.16-.79-1.19-1.55 4.61-2.21 5.51-2.21 1.3 0 2.52.2 3.73-.4 1.1-.54 1.82-1.52 2.48-2.52 1.51-2.32 3.22-4.38 5.32-6.21 1.9-1.65 3.81-3.59 3.29-6.34-.51-2.69-2.94-4.27-5.3-5.22-2.66-1.06-5.49-1.87-8.28-2.5-5.37-1.21-12.36-2.06-16.92 1.73-2.32 1.93-4.32 4.38-6.27 6.68s-3.89 4.8-5.68 7.32c-3.63 5.11-6.78 10.54-9.45 16.22-.62 1.31.09 3.15 1.77 3.08 1.59-.07 3.8-.26 4.27-2.14.42-1.69-1.03-2.81-2.42-3.32-1.22-.45-2.76-.45-3.49.84-1.11 1.95 1.07 3.42 2.44 4.32 2.19 1.44 4.22-2.07 2.05-3.51-.22-.15-.45-.29-.66-.45-.58-.42.24.19-.2-.16-.05-.04-.23-.27-.27-.27.26-.02.45.99.44 1.1l-.28 1.03c-.2.43-1.05.85-1.52.89h.14c-.39.02-.41-.09-.06.03.1.03.52.21.19.06-.36-.16.14.11.21.13.19.05-.31-.33-.09-.05-.3-.38-.55-1.19-.41-1.66-.07.25.95-1.46.69-.97.04-.08.46-.13.16-.08-.13.02-.27.06-.4.09-.31.05.3-.03-.1 0-.23.02-.45.03-.68.04l1.77 3.08c2.93-6.19 6.44-12.1 10.51-17.61a99 99 0 0 1 6.61-8.02c1.07-1.17 2.14-2.41 3.34-3.44 1.28-1.09 2.82-1.52 4.47-1.67 3.73-.33 7.46.27 11.06 1.21 1.65.43 3.28.92 4.9 1.46 1.18.39 3 .96 3.53 2.23.46 1.09-.8 2.02-1.52 2.66-1.39 1.25-2.73 2.51-3.91 3.96-1 1.23-1.82 2.54-2.72 3.84-.24.35-.46.69-.87.82-.32.1-.84-.02-1.17-.03-.61-.02-1.22-.02-1.83.04-3.11.27-8.42 1.52-8.34 5.52.04 1.69 1.16 3.24 2.6 4.05.89.5 1.89.7 2.89.82.41.05.82.07 1.24.08.28 0 .55 0 .83.01.29.04.16-.09-.39-.4l-.25-.94q.135-.54-.21.09c-.16.22-.32.45-.47.68q-.39.615-.72 1.26c-.47.94-.87 1.92-1.11 2.94-.4 1.73-1.09 3.68.29 5.16 1.29 1.37 3.58 1.72 5.33 2.09 2.24.47 4.58.75 6.78 1.39l-.91-.53.18.15-.6-1.46.02.28.28-1.04c-1.14 2.29-2.75 4.46-4.12 6.63-1.43 2.28-2.85 4.57-4.3 6.84-2.24 3.53-5.12 8.56-9.62 9.31.62 1.06 1.23 2.12 1.85 3.18 3-2.42 5.82-5.39 5.36-9.56-.46-4.16-3.26-8.06-5.81-11.25-5.1-6.37-12.77-11.04-21.1-11.14-4.19-.05-9.78 1.19-10.09 6.28-.12 1.91 2.71 1.82 2.92 0Z"/><path d="M58.47 103.86c5.48-7.37 10.76-14.87 16.11-22.33.53-.75.24-1.8-.31-2.43-.97-1.09-2.11-1.78-3.44-2.34l-1.09 3.97c1.83.44 2.87 1.35 4.09 2.73 1.55 1.75 4.26-.49 3.17-2.44-1.23-2.19-3.74-3.77-6.16-4.26-2.62-.53-3.57 3.05-1.09 3.97.68.25 1.21.67 1.71 1.2l-.31-2.43c-5.06 7.63-10.19 15.2-15.12 22.91-1.01 1.58 1.4 2.88 2.47 1.44Zm-14.37 1.12c1.12 2.31 2.29 4.59 3.61 6.79a86 86 0 0 0 3.07 4.77c.45.66.88 1.47 1.61 1.83 1.46.73 2.83-.47 2.58-1.99-.11-.7-.66-1.25-1.07-1.81-.37-.51-.73-1.03-1.09-1.55-.72-1.04-1.41-2.09-2.09-3.16-1.35-2.13-2.65-4.3-3.83-6.53-.41-.77-1.48-1.01-2.21-.58-.8.47-.96 1.42-.58 2.21Z"/><path d="M40.11 115.23c2.84-.29 5.69-1.19 8.46-1.88l4.07-1.02c1.36-.34 2.85-.62 4.22-1.08 2.3-.77 1.36-4.04-.99-3.6-1.37.25-2.72.7-4.06 1.05s-2.81.75-4.21 1.12c-2.75.73-5.67 1.32-8.29 2.44-1.44.61-.72 3.12.8 2.97m-9.91-1.77c-1.07 5.55 4.17 9.33 8.41 11.7 4.77 2.67 10.2 4.08 15.64 4.33 2.47.11 2.47-3.74 0-3.84-4.42-.18-8.73-1.29-12.72-3.2-1.88-.9-3.81-1.94-5.43-3.27-1.38-1.14-3.21-2.91-2.9-4.89.31-1.94-2.61-2.81-3-.83m-12.01 7.03c-.76 3.94 1.82 7.41 4.24 10.26 2.34 2.75 5.16 5.09 8.26 6.93 6 3.54 13.83 5.78 20.82 4.57 2.18-.38 1.64-3.86-.52-3.82-3.14.05-6.11.12-9.21-.54-2.98-.64-5.84-1.68-8.51-3.14s-5.15-3.27-7.3-5.42-5.21-5.24-4.84-8.44c.19-1.67-2.63-2.05-2.95-.4Zm-9.41 17.18c3.93 5.25 8.43 10.21 14.04 13.72 5.53 3.46 12.76 6.05 19.36 5.04 2.12-.32 1.51-3.57-.49-3.62-3.12-.08-6-.18-9.03-1.05-2.96-.84-5.75-2.15-8.35-3.78-5.11-3.21-9.41-7.45-13.23-12.09-1.05-1.27-3.31.44-2.31 1.78Zm2.11 20.83c.35.55.75 1.07 1.17 1.56s.99.93 1.53 1.34q.675.51 1.41.9c.69.37 1.46.79 2.26.72.63-.05 1.16-.35 1.41-.95.23-.54.14-1.28-.32-1.69-.11-.1-.22-.19-.34-.28-.22-.17-.45-.25-.71-.36l.4.17c-.39-.17-.78-.31-1.17-.47l.39.17q-1.185-.495-2.22-1.26c-.1-.07-.33-.3.01.01-.08-.08-.17-.14-.26-.21-.12-.1-.25-.19-.38-.29.2.15.23.18.11.08a11 11 0 0 1-1.17-1.08c-.46-.49-1.26-.5-1.77-.11s-.71 1.17-.35 1.74Z"/></svg>