<?xml version="1.0" encoding="UTF-8"?><svg xmlns="http://www.w3.org/2000/svg" viewBox="0 0 180 180"><path d="M67.03 85.19c-.27-3.15-.23-6.31.18-9.45.2-1.55.48-3.11.88-4.62.32-1.22 1.36-1.41 2.48-1.75 5.59-1.72 11.83-1.44 17.56-.58 5.7.86 11.24 2.58 16.36 5.23 4.27 2.21 9.45 5.46 11.07 10.29.42 1.24-.13 2.05-.97 2.94-1.15 1.2-2.41 2.31-3.62 3.45-2.7 2.56-5.36 5.17-8.08 7.71 1.12.14 2.24.29 3.35.43-1.95-2.96-3.92-5.91-5.84-8.9-.59-.91-1.97-1.48-2.96-.78-1.22.88-2.45 1.75-3.67 2.64l-1.73 1.27c-.58.43-1.45.87-1.92 1.41l-.35.25.69.15c.02-.07-.6-.69-.68-.78-.46-.53-.92-1.07-1.38-1.6-1.02-1.19-2.02-2.39-3.08-3.54-.65-.7-1.81-.8-2.62-.34-3.43 1.98-6.7 4.21-9.6 6.93l3.07.81c-.32-1.3-.66-2.6-.72-3.95s.1-2.64.11-3.96c0-1.09-1.08-1.92-2.13-1.62l-6.64 1.87c-2.13.6-1.22 3.94.91 3.31l6.62-1.94-2.13-1.62c0 1.41.25 2.8.33 4.21s.03 2.79.04 4.19c0 1.26 1.61 2.47 2.76 1.59 3-2.3 6.15-4.43 9.56-6.08l-2.62-.34c1.17 1.47 2.42 2.88 3.64 4.3 1.14 1.34 2.22 2.92 4.19 2.84 1.85-.07 3.51-1.81 4.92-2.84 1.54-1.13 3.06-2.27 4.59-3.42l-2.96-.78c1.99 2.94 3.93 5.91 5.88 8.87.77 1.17 2.31 1.41 3.35.43 2.71-2.55 5.49-5.03 8.23-7.56 2.25-2.08 5.49-4.3 6.08-7.52.61-3.31-1.55-6.64-3.59-9.05s-4.43-4.16-6.98-5.72c-5.79-3.53-12.35-5.71-19.01-6.84-6.68-1.13-13.98-1.64-20.57.25-1.67.48-3.74 1.09-4.8 2.58s-1.15 3.62-1.38 5.36c-.53 4.07-.52 8.19 0 12.26.25 1.96 3.33 2.06 3.16 0Zm-2.05-28.92c-3.75-4.91-8.7-8.71-14.31-11.26a53 53 0 0 0-9.45-3.26c-1.64-.4-3.3-.7-4.96-.99-1.75-.31-3.61-.78-5.38-.5-1.22.19-1.42 2.13-.35 2.66 1.41.69 3.06.82 4.58 1.13s3.14.71 4.69 1.12c3.05.81 6.11 1.77 9 3.04 5.24 2.31 10.05 5.53 13.68 10 1.13 1.39 3.6-.49 2.5-1.93Z"/><path d="M51.14 47.62c-6.96-.65-14.14 1.53-19.57 5.93-.07.06-.14.12-.15.21 0 .1.07.18.15.24 2.81 2.38 6.98 2.73 10.43 1.47s6.25-3.94 8.32-6.99"/><path d="M51.52 46.24c-6.65-1.18-13.82.77-19.33 4.56-1.35.93-3.59 2.34-2.18 4.23.92 1.23 2.75 2 4.16 2.45 3.16.99 6.61.56 9.59-.8 3.37-1.53 6.01-4.29 8.07-7.31 1.28-1.87-1.75-3.6-3.02-1.77-1.83 2.64-4.32 5.12-7.42 6.19-2.65.91-6.48.96-8.6-1.2l.48.82-.05-.13v.99l.05-.12-.48.82c2.25-2.17 5.54-3.59 8.48-4.53 3.25-1.03 6.48-1.36 9.88-1.38 1.57 0 2.02-2.53.38-2.82Zm74.81 28.42c4.4-3.62 9.53-6.37 14.96-8.09 2.67-.85 5.42-1.49 8.2-1.85 2.88-.37 5.77-.13 8.64-.42 1.57-.16 2.19-2.55.4-2.96-2.96-.69-6.26-.32-9.24.06s-6.12 1.04-9.08 2.03a48.5 48.5 0 0 0-16.06 9.05c-1.53 1.29.67 3.44 2.19 2.19Z"/><path d="M141.64 64.2c-.61-2.3-.55-4.71-.5-7.09.05-1.98.1-4.01.76-5.88.81-2.29 2.48-4.19 4.41-5.66s4.12-2.55 6.3-3.62c.39 1.3.1 2.7-.25 4.01-1.81 6.8-5.48 13.1-10.5 18.03"/><path d="M143.11 63.8c-.48-2.26-.4-4.59-.33-6.88.07-2.06.14-4.23 1.12-6.1 1.95-3.73 5.96-5.64 9.57-7.41-.82-.33-1.63-.66-2.45-1 .47 1.91-.49 4.16-1.12 5.96a36.4 36.4 0 0 1-2.29 5.19c-1.86 3.49-4.27 6.36-6.89 9.29-1.41 1.58.73 3.72 2.32 2.32 3.24-2.85 5.85-6.76 7.8-10.58.99-1.94 1.84-3.96 2.52-6.03.74-2.26 1.46-4.65.88-7.03-.27-1.11-1.52-1.45-2.45-1-4.21 2.07-8.78 4.49-10.91 8.92-1.07 2.23-1.29 4.64-1.34 7.08-.06 2.72-.09 5.45.65 8.09.53 1.89 3.33 1.09 2.92-.81Zm-9.77 5.66c3.53-.8 7.22.23 10.57 1.6 3.65 1.5 7.14 3.43 10.21 5.92-3.82 1.33-8.1 1.29-11.89-.1-3.8-1.39-7.08-4.14-9.13-7.62"/><path d="M133.67 70.67c3.49-.54 7.12.75 10.27 2.15 3.18 1.42 6.24 3.18 8.93 5.4l.78-2.94c-7.23 2.31-15.1-.33-19.04-6.91-1.16-1.94-4.21-.17-3.04 1.77 4.69 7.76 14.35 11.58 23.01 8.53 1.1-.39 1.91-2.06.78-2.94-3.22-2.51-6.73-4.48-10.51-6.02s-7.81-2.51-11.85-1.46c-1.6.42-.89 2.67.67 2.43Zm-51.5-10.29c1.72-.52 3.05-2.12 3.4-3.88.43-2.19-.43-4.39.08-6.56.99-4.15 5.15-6.07 9.06-4.71 3.75 1.3 7.31 4.06 11.45 2.44 4.55-1.79 5.81-6.74 7.67-10.76 1.03-2.23-2.07-4.16-3.36-1.96-1.65 2.81-2.59 8.75-6.62 9.22-1.72.2-3.45-.73-4.96-1.42-1.9-.86-3.78-1.69-5.87-1.88-4.09-.38-8.23 1.92-10.03 5.62-.93 1.91-1.25 3.92-.98 6.02.17 1.29 1.23 4.72-.5 5.43-1.46.6-.93 2.93.67 2.44Z"/><path d="M113.54 35.1c-3.85-4.42-6.76-10.14-7.31-16.04-.12-1.22-.14-2.53.29-3.7.25-.69 1.08-2.04 1.98-1.63s1 2.08 1.09 2.87c.2 1.66.39 3.23 1.25 4.71.94 1.61 3.89 1.03 3.71-1.01-.16-1.84-.01-3.63.56-5.39.32-.97.91-2.95 2.19-2.91 1.12.04 2.01 1.24 2.24 2.24.43 1.85-.21 3.81-.73 5.57-.61 2.1 2.72 3.63 3.63 1.53.67-1.56 1.34-3.25 2.48-4.53.86-.97 2.39-2.05 3.75-1.5 1.68.68.88 2.03.2 3.13-1.06 1.72-2.11 3.44-3.17 5.16-1.06 1.73 1.04 3.74 2.74 2.74 1.57-.92 3.26-1.98 5.12-2.09 1.09-.07 2.79.57 2.93 1.86.13 1.17-1.66 1.57-2.49 1.75-1.85.4-3.63.57-5.3 1.56-1.91 1.13-1.03 3.97 1.1 4.06 1.4.06 2.94.05 4.23.65.72.34 1.64 1.07 1.56 1.95-.2 2.33-4.21 2.33-5.81 2.4-5.5.24-11.15-.49-15.78-3.67-1.04-.71-2.58-.19-3.19.84-.68 1.16-.2 2.47.84 3.19 3.19 2.2 6.92 3.45 10.73 3.98 3.77.52 8.02.67 11.75-.25s7.08-4.4 5.62-8.41-6.04-4.98-9.96-5.03c.37 1.35.73 2.71 1.1 4.06 2.06-1.29 4.72-1.01 6.84-2.28 2.26-1.35 3.43-3.94 2.43-6.46-.9-2.26-3.07-3.88-5.48-4.16-3.01-.35-5.78 1.12-8.29 2.59l2.74 2.74 2.31-3.78c.73-1.19 1.65-2.41 2.06-3.76.81-2.64-.79-5.35-3.22-6.43s-5.24-.27-7.26 1.38c-2.13 1.73-3.2 4.3-4.23 6.76l3.83 1.05c.76-2.69 1.52-5.69.5-8.42-.84-2.25-2.89-4.07-5.31-4.37-6-.74-7.64 7.86-7.26 12.23 1.24-.34 2.47-.67 3.71-1.01-.94-1.61-.6-3.65-1.16-5.39s-1.62-3.32-3.37-3.96c-4.25-1.55-7.13 3-7.46 6.6-.35 3.73.82 7.74 2.24 11.15 1.53 3.68 3.77 7.02 6.61 9.82 1.58 1.56 3.84-.77 2.41-2.41Z"/><path d="M109.04 28.4c.48-.47 1.16-.73 1.74-.75.73-.02 1.12.26 1.63.85.68.78 1.46 1.59 2.57 1.63 1.25.05 2.07-.9 3.09-1.46.75-.41 1.69-.7 2.51-.31.58.28.96.77.66 1.38-.49.98-1.77 1.14-2.07 2.28-.17.66.03 1.36.51 1.84.3.31.88.5 1.11.69.46.37.53 1.11.31 1.47s-.61.64-.9.96c-.54.6-.91 1.2-.93 2.03-.05 1.58 1.97 1.88 2.77.75.46-.66 1.06-1.19 1.54-1.85.52-.71.78-1.59.75-2.46s-.3-1.73-.81-2.44a4.14 4.14 0 0 0-1.44-1.26c-.15-.07-.3-.13-.45-.19.04 0 .08.02.12.03l.39.67-.04-.15v.81c-.37.41-.4.5-.1.27.17-.12.33-.24.49-.37.24-.19.46-.39.66-.61.42-.47.76-1 .97-1.59.42-1.16.23-2.46-.49-3.46-1.62-2.25-4.52-2.32-6.81-1.12-.26.14-.51.29-.76.45-.2.14-.81.46-.9.67-.06.13-.13.07.08.11.1.02-.21-.19-.24-.23-.78-.79-1.34-1.56-2.42-1.98-1.94-.76-4.51-.11-5.42 1.88-.55 1.2.86 2.48 1.9 1.47ZM68.81 90.71c-.02 1.98.17 3.96.56 5.9.37-.57.91-1.04 1.53-1.32.87-.39 2.06-.61 2.25-1.54.07-.33-.02-.67-.08-1-.13-.81-.04-1.66.27-2.42-1.07.07-2.13.33-3.1.77"/><path d="M67.31 90.71c-.09 2.13.11 4.23.54 6.32.12.61.74 1.06 1.32 1.14.68.09 1.18-.23 1.58-.76-.04.06-.21.25-.06.1.06-.06.11-.12.16-.18.09-.09.19-.18.28-.27.14-.14-.3.21-.06.05.05-.04.11-.07.16-.11.13-.08.26-.14.39-.21.18-.1-.33.11-.16.07.06-.02.13-.05.19-.07.1-.04.2-.07.31-.11.35-.12.68-.25 1.02-.4.5-.22.92-.56 1.31-.95.46-.46.63-1.07.69-1.7.04-.46-.07-.92-.13-1.37l.06.48q-.075-.615 0-1.23l-.07.49c.06-.41.17-.8.33-1.19.22-.54 0-1.22-.34-1.65-.35-.46-.89-.76-1.48-.74-.77.02-1.53.12-2.27.31-.3.08-.59.17-.88.28-.33.12-.65.24-.93.45-.38.3-.64.67-.78 1.14-.21.71.13 1.72.84 2.06.38.18.65.29 1.08.29.45 0 .74-.14 1.14-.31l-.47.2c.86-.35 1.74-.54 2.66-.69l-.5.07h.11c-.61-.81-1.21-1.61-1.82-2.4-.22.63-.33 1.31-.34 1.98s.15 1.32.25 1.99l-.06-.48c.02.15.02.29 0 .44l.06-.48s-.02.1-.04.15c.19-.43.17-.39-.05.13-.06.3.19-.51.29-.46-.03.04-.07.07-.1.1-.13.11-.07.07.18-.13-.07.04-.13.08-.19.12-.16.09-.33.17-.5.25-.4.18.3-.12.03-.01-.2.08-.4.16-.59.25-1.03.44-1.89 1.17-2.45 2.14l2.9.38c-.09-.48-.17-.95-.24-1.43 0-.06-.02-.12-.03-.18-.02-.12-.01-.08.02.12.01-.09-.03-.27-.05-.36-.03-.24-.05-.48-.08-.72-.09-.97-.18-1.93-.21-2.9-.02-.79-.68-1.55-1.51-1.51-.84.04-1.47.66-1.51 1.51Zm11.29 4.52c.91 1.41 1.92 2.75 3.02 4.02.06.06.12.13.2.15.09.01.18-.04.25-.09 1.58-1.1 3.15-2.2 4.73-3.3a8.65 8.65 0 0 1-2.88-3.27c-.09-.17-.19-.36-.37-.42-.19-.06-.38.05-.55.15-1.33.82-2.6 1.74-3.8 2.74"/><path d="M77.2 96.05c.53.86 1.09 1.71 1.69 2.53.34.46.7.92 1.06 1.37.54.68 1.13 1.29 2.1 1.16.67-.09 1.15-.46 1.7-.83.44-.3.89-.59 1.33-.89.88-.59 1.76-1.21 2.67-1.76.56-.35.93-.94.93-1.61 0-.72-.38-1.2-.93-1.61-.09-.07-.18-.14-.27-.2-.19-.13.27.24.01 0-.17-.15-.34-.29-.49-.45s-.31-.32-.46-.48l-.17-.2c-.3-.35.23.33-.03-.04-.66-.94-1.06-2.28-2.33-2.57-1.33-.3-2.47.62-3.5 1.34-.41.29-.82.59-1.22.89-.48.37-1.01.73-1.44 1.17-.66.69-.73 1.75-.15 2.5.55.71 1.66 1.02 2.46.49.26-.17.51-.37.75-.57l.3-.24c.03-.03.3-.23.1-.08s.07-.05.11-.08l.24-.18c.18-.14.37-.27.55-.4.33-.23.66-.46 1-.68.19-.12.38-.25.57-.37.08-.05.18-.09.24-.15.12-.11-.39.1-.08.05h-1.02l-.55-.36c-.16-.22-.21-.27-.14-.15.03.09.11.2.15.29.1.17.2.35.31.51.29.45.63.88.98 1.29.62.72 1.37 1.38 2.18 1.87-.13-.98-.25-1.96-.38-2.93-.08.07-.17.13-.25.2.28-.22-.02 0-.08.05-.19.14-.39.28-.58.42-.39.28-.78.56-1.17.85-.37.27-.74.53-1.1.8-.19.14-.39.28-.58.42-.11.08-.22.16-.32.24-.04.03-.09.06-.13.09-.12.08-.08.07.1-.03l1.34.18c.12.06.2.2.04.02-.07-.08-.14-.15-.2-.23l-.4-.46c-.28-.33-.55-.66-.82-1-.06-.08-.12-.16-.19-.24-.17-.2.14.19-.02-.02-.12-.16-.25-.32-.37-.49-.26-.35-.51-.7-.75-1.06-.48-.7-1.44-1.08-2.21-.58-.72.47-1.05 1.44-.58 2.21m17.25.26c.81 1.55 1.61 3.1 2.42 4.66a54 54 0 0 1 4.58-4.25 13.2 13.2 0 0 1-2.84-3.94 41 41 0 0 1-4.43 3.66"/><path d="M93.04 97.13c.71 1.6 1.47 3.19 2.23 4.77.53 1.09 2.11 1.16 2.91.37 1.48-1.47 3.02-2.88 4.64-4.19.8-.65.69-2.06 0-2.73-.28-.28-.56-.56-.82-.86-.12-.14-.24-.29-.36-.43-.17-.21.2.28.05.06-.07-.1-.14-.19-.2-.28-.46-.65-.85-1.34-1.18-2.05-.56-1.18-2.23-1.2-3.08-.4-.7.66-1.42 1.29-2.16 1.9-.18.14-.35.29-.53.43-.1.08-.19.17-.3.23.13-.08.22-.17.04-.03-.49.37-1.06.7-1.46 1.15-.65.72-.75 1.75-.15 2.53s1.59.89 2.49.5c.55-.24 1.05-.72 1.52-1.08.38-.29.75-.59 1.12-.9.76-.63 1.49-1.28 2.2-1.96l-3.08-.4c.77 1.61 1.88 3.09 3.17 4.32v-2.73a47 47 0 0 0-4.52 4.3c.97.12 1.94.25 2.91.37-.85-1.53-1.71-3.05-2.61-4.55-.44-.73-1.49-1.07-2.23-.59-.81.52-.96 1.4-.59 2.23Z"/><path d="M66.45 81.19c4.29-.68 8.52-1.64 12.89-1.51 4.13.13 8.34.98 12.32 2.05 7.06 1.89 13.97 5.51 17.63 12.11 1.09 1.96 4.1.21 3.01-1.76-4-7.22-11.54-11.4-19.28-13.52-4.32-1.18-8.94-2.08-13.43-2.24-4.67-.16-9.45.71-13.96 1.87-1.98.51-1.1 3.3.83 3Zm-31.33 28.77c-1.16-1.89-2.22-3.83-2.95-5.93-.45.79-.9 1.58-1.35 2.38 2.12-.32 4.17-1.18 6.05-2.18.93-.49 1.81-1.06 2.66-1.67.93-.67-.25-.18-.21-.41-.01.08.24.24.28.3.21.35.46.65.62 1.04.37.96.12 2.06.93 2.86s1.82.77 2.86.65l7.44-.84-1.97-1.97c.1 2.67.23 5.33.35 8l1.96-1.96c-2.2-.03-4.37.17-6.54.55-.91.16-1.33 1.08-1.43 1.88-.19 1.6-.43 3.19-.57 4.8l1.92-1.92c-1.48-.09-2.93-.37-4.37-.7-1.47-.34-2.91-.92-4.39-1.16-1.82-.29-3.16 2.12-1.33 3.16 2.81 1.6 6.44 1.96 9.58 2.48.93.15 2.19-.23 2.37-1.34.28-1.76.46-3.54.68-5.31l-1.43 1.88c1.82-.31 3.66-.42 5.5-.39 1.03.02 2-.91 1.96-1.96-.11-2.67-.2-5.34-.33-8-.05-.96-.87-2.11-1.97-1.97l-4.46.57-2.12.27c-.42.05-1.44.25-1.66.18l.85.5-.17-.14.5.86c-.24-.7-.11-1.57-.34-2.3s-.55-1.37-.98-1.96c-1.09-1.5-2.73-2.67-4.63-1.81-1.45.66-2.69 1.84-4.12 2.57-1.45.74-2.98 1.23-4.52 1.73-1.16.38-1.82 1.73-1.15 2.84 1.22 2.03 2.4 4.09 3.71 6.07 1.13 1.71 3.88.15 2.78-1.62Zm44.44-.35c-2.34 1.9-4.92 4.08-7.68 5.34-1.53.69-1.15 2.79 0 3.58 1.79 1.22 3.91 1.75 5.81 2.75.81.43 1.47.92 1.92 1.73.62 1.11 1.06 2.19 1.94 3.13.74.79 2.34.89 3.06 0 .46-.57.96-1.13 1.54-1.58.26-.2.55-.37.83-.53.17-.1.35-.19.52-.28-.27-.09-.31-.08-.12.02.69.31 1.36 1.09 1.95 1.56.74.6 1.47 1.2 2.21 1.79 1.01.82 2.72.92 3.4-.44 1.57-3.1 3.47-5.99 5.76-8.61 1.05-1.2.7-3.18-.96-3.63s-2.37-2.03-3.06-3.39c-.96-1.89-1.86-3.83-3.64-5.1-1.68-1.19-3.76-1.29-5.43-.05-.59.44-1.06.95-1.56 1.49-.22.24-.45.48-.69.71-.13.11-.26.22-.37.35.2-.13.16-.16-.13-.07-1.61.22-1.44 2.73 0 3.09 1.67.41 2.93-.22 4.15-1.32.21-.19.7-.78 1-.84.58-.11 1.13.73 1.4 1.12 1.07 1.53 1.63 3.35 2.72 4.88 1.12 1.57 2.56 2.81 4.45 3.32l-.96-3.63c-2.52 2.9-4.69 6.06-6.43 9.49l3.4-.44c-1.04-.85-2.09-1.69-3.13-2.54-1.07-.87-2.13-1.93-3.57-2.08-2.43-.25-4.95 1.85-6.36 3.64h3.06c-.79-.84-1.1-2.06-1.78-3a8.5 8.5 0 0 0-2.69-2.34c-1.98-1.12-4.26-1.55-6.17-2.8l.42 3.25c1.18-1.1 2.58-1.99 3.83-3.02s2.49-2.11 3.68-3.23c1.59-1.48-.72-3.66-2.34-2.34Zm31.25-3.21c-1.3.4-2.6.83-3.91 1.19-1.41.39-2.76 1.06-2.98 2.67-.21 1.56.91 2.56 1.97 3.47.9.77 1.76 1.59 2.59 2.43a33 33 0 0 1 1.72 1.91c.11.13.21.25.31.38.04.05.38.49.17.22.34.44.66.9.99 1.36.39.53.7.91 1.36 1.13.57.19 1.27.16 1.8-.18 1.07-.69 1.84-1.96 2.39-3.07s.97-2.37 1.21-3.63c.28-1.49.46-3.04.53-4.56.07-1.62-.95-4.02-3.01-3.28-1.1.4-1.45 1.42-1 2.46-.38-.86.32.88.44.7a.8.8 0 0 1-.23-.38c.05.21.05.18.01-.08.04.39 0 .78-.04 1.16-.11 1.19-.18 1.99-.4 3.08-.1.5-.23 1-.39 1.49-.08.24-.16.47-.25.71.13-.32-.12.25-.15.31-.21.42-.45.82-.73 1.19.21-.29-.24.27-.28.32-.16.17-.32.33-.5.47l.88-.51-.12.04 1.53.2q.525.6.3.27c-.05-.08-.11-.16-.17-.24-.09-.13-.19-.27-.29-.4-.28-.38-.56-.75-.85-1.11-.43-.54-.87-1.08-1.33-1.59a27.4 27.4 0 0 0-3.81-3.58c-.23-.18-.47-.36-.71-.54-.3-.23.04.06-.1-.08-.1-.1-.2-.2-.31-.29.11.15.12.18.05.06s-.06-.09.04.1c.04.28.04.52-.11.76-.09.14-.25.17-.03.06.02 0 .48-.24.16-.1.17-.08.35-.14.53-.21.39-.14.79-.28 1.18-.42.79-.28 1.57-.56 2.36-.84s1.33-1.06 1.09-1.92c-.22-.8-1.11-1.34-1.92-1.09Zm-80.06 28.62c3.39-4.62 9.3-6.75 14.42-8.77-.87-.66-1.73-1.32-2.6-1.98.19 1.85.55 3.63 1.13 5.4.33 1 1.47 1.87 2.58 1.46 3.38-1.26 6.83-2.27 10.36-2.98-.9-.69-1.8-1.37-2.7-2.06.02 2.37-.15 4.73-.57 7.06-.26 1.47.98 3.3 2.67 2.67a90.6 90.6 0 0 1 13.51-3.88l-2.78-2.12 1.26 9.65c.18 1.36 1.28 2.6 2.8 2.13 1.74-.53 3.49-1.07 5.23-1.6.79-.24 1.59-.48 2.38-.73s1.84-.78 2.65-.72l-1.13-.31.27.17-.81-.81c.34.47.39 1.13.53 1.7.18.73.37 1.47.55 2.2.38 1.46 1.12 2.83 2.79 3.01 1.55.16 2.81-.89 4.03-1.69 1.33-.87 2.67-1.74 4-2.61-1.13-.46-2.25-.92-3.38-1.37.65 1.96 1.44 3.88 2.37 5.73s2.39 3.49 4.67 2.72c1.76-.59 3.31-2.42 4.53-3.76 1.31-1.43 2.48-2.98 3.53-4.6h-4.03c2.24 4.28 1.95 9.39.3 13.82-.81 2.18-2.04 4.23-3.39 6.12-.69.96-1.44 1.87-2.22 2.76-.41.47-.84.92-1.27 1.37-.19.2-.38.4-.58.59-.14.15-.29.3-.44.44-.21.2-.19.2.06-.02h1.24c1 .2.24.28.22.17s-.3-.52-.34-.58c-.21-.36-.43-.72-.66-1.06-.53-.8-1.12-1.6-1.8-2.28-1.42-1.4-3.3-2.36-5.33-2.28-2.44.1-4.68 1.51-6.86 2.47s-4.27 1.81-6.45 2.63c-2.21.84-4.45 1.62-6.71 2.33-.71.22-1.17.58-1.69-.03-.6-.71-.74-1.78-.95-2.65-.52-2.18-1.34-4.8-3.96-5.03-1.15-.11-2.13.29-3.19.7-1.17.45-2.35.88-3.54 1.28-2.45.84-4.92 1.6-7.42 2.28-1.29.35-2.58.67-3.88.97-.61.14-1.22.28-1.84.41-.31.07-.61.13-.92.2l-.46.09c-.72.1-.61.15.33.16l.87.87c-.23-.33-.28-2.01-.36-2.74l-.39-3.4c-.15-1.3-.29-2.59-.44-3.89-.13-1.11-.21-2.19-1-3.06-1.52-1.67-4.64-1.22-6.67-1.25-2.48-.04-4.97-.04-7.44.17l2.4 2.4c-.16-5.03 1.83-10.05 5.24-13.73 1.63-1.77-.85-4.22-2.63-2.63-4.71 4.21-7.19 10.09-7.41 16.36-.04 1.28 1.13 2.42 2.4 2.4 2.4-.04 4.79-.15 7.19-.12 1.16.02 2.32.05 3.47.1.59.03 1.18.34.17-.37-1.56-1.1-.41-.5-.56-.26-.17.27.18 1.59.22 1.94.28 2.43.55 4.86.83 7.29.25 2.18.78 4.68 3.53 4.67 1.04 0 2.14-.35 3.15-.57 1.15-.25 2.29-.52 3.43-.81a114 114 0 0 0 13-4.13c.41-.16 1.02-.26 1.38-.52.46-.34-.72-.77-.72-.47 0 .11.15.37.19.48.36 1.03.49 2.13.84 3.17.67 1.98 1.98 3.88 4.05 4.56 2.28.75 4.81-.48 6.95-1.22 4.37-1.51 8.66-3.25 12.85-5.21 1.44-.67 3.08-1.78 4.57-.69 1.28.93 1.83 2.4 2.71 3.64 1.46 2.07 3.78 2.27 5.61.55 1.45-1.37 2.79-2.89 4.03-4.46 5.84-7.44 8.97-17.46 4.29-26.31-.85-1.61-3.13-1.41-4.03 0a27 27 0 0 1-2.64 3.51c-.48.54-.99 1.06-1.51 1.56-.26.25-.53.5-.79.74l-.33.29c-.4.32-.44.37-.15.16l1.17.32c.18.3.17.27-.03-.08-.15-.27-.29-.55-.43-.83-.25-.49-.48-.98-.71-1.47-.47-1.03-.85-2.08-1.21-3.15-.45-1.33-2.07-2.24-3.38-1.37-1.06.7-2.12 1.41-3.18 2.11-.79.52-1.92 1.6-2.82 1.73h1.21l-.32-.09 1 .58c.13.23.14.21.05-.06-.06-.22-.11-.44-.17-.66-.1-.37-.19-.73-.29-1.1-.2-.76-.35-1.56-.61-2.31-.62-1.78-2.14-2.74-4.02-2.3-3.43.8-6.82 2.12-10.19 3.17l2.72 1.55c-.41-3.02-.81-6.04-1.21-9.07-.2-1.46-1.24-2.44-2.78-2.12q-6.9 1.44-13.5 3.93l2.67 2.67c.48-2.72.72-5.45.65-8.22-.04-1.44-1.33-2.36-2.7-2.06-3.52.78-6.97 1.78-10.34 3.05l2.58 1.46c-.53-1.58-.9-3.18-1.14-4.83-.21-1.44-1.95-1.7-3.01-1.23-5.9 2.64-11.56 5.66-15.43 11.01-1.14 1.57 1.46 3.05 2.59 1.51Z"/><path d="M27.21 140.04c2.72.46 4.95 2 6.97 3.8s3.77 3.67 5.36 5.75c1.55 2.04 2.87 4.24 3.99 6.54.55 1.14 1.05 2.31 1.47 3.51s.65 2.64 1.27 3.79c.67 1.26 2.48.6 2.55-.69s-.49-2.83-.91-4.1c-.44-1.34-.96-2.66-1.56-3.94-1.21-2.62-2.8-5.05-4.57-7.33-3.36-4.3-8.16-9.23-13.81-10.03-1.74-.25-2.54 2.39-.74 2.7Zm9.07-10.46c5.85 2.02 10.14 6.82 13.2 12.02 1.69 2.87 3.11 5.91 4.39 8.98s2.58 6.43 2.85 9.88c.14 1.85 3.05 1.87 2.91 0-.29-3.82-1.57-7.36-3.02-10.87-1.4-3.39-2.83-6.76-4.72-9.91-3.44-5.76-8.35-10.73-14.83-12.87-1.77-.58-2.5 2.17-.76 2.77Zm21.83 4.22c3.71 4.38 7.18 8.91 8.97 14.44.87 2.68 1.49 5.43 2.04 8.19.28 1.42.55 2.83.83 4.25s.35 3.18 1.14 4.44c.65 1.03 2.59 1.02 2.83-.37.26-1.51-.25-3.04-.54-4.53-.31-1.57-.62-3.14-.94-4.7-.61-2.97-1.27-5.95-2.31-8.81-2.13-5.84-5.91-10.35-10-14.92-1.23-1.38-3.18.63-2.01 2.01Zm18.31 4.76c2.27 2.93 4.16 6.36 5.46 9.83 1.44 3.86 1.88 7.87 2.78 11.85.44 1.94 3.78 1.57 3.54-.48-.5-4.32-1.49-8.82-3.13-12.86-1.57-3.88-3.83-7.28-6.54-10.45-1.27-1.49-3.25.63-2.11 2.11m19.48 7.95c.16.1.32.2.47.31-.18-.14.06.06.09.08.07.06.14.13.21.19.14.13.26.27.39.42.03.04.23.28.08.08.06.07.11.15.17.23.23.33.44.67.63 1.03.09.17.18.33.27.5.04.08.08.17.13.26.03.05.16.36.04.08.31.72.52 1.49.65 2.26.01.07.05.4.01.07 0 .09.02.19.03.28.02.19.02.38.04.57.01.21.02.43.04.64.04.51.19.88.54 1.26.54.61 1.55.53 2.1 0 .9-.87.57-2.51.37-3.61-.18-.98-.51-1.92-.92-2.83-.79-1.75-2.17-3.38-3.87-4.31-.66-.36-1.6-.18-1.97.52s-.17 1.55.52 1.97Zm-71.29 8.22c.11 2.11.21 4.22.32 6.33.05 1.01.16 2.14.94 2.78.09.07.19.14.31.17.16.04.33-.02.49-.07a37.4 37.4 0 0 1 6.61-1.48c.13-.02.28-.05.32-.17.02-.06 0-.13-.02-.2-.68-2.31-.99-4.72-.94-7.13 0-.24 0-.5-.13-.69-.2-.27-.59-.29-.93-.29-2.63.06-5.26.19-7.88.41"/><path d="M23.07 154.73c0 .66-.07 1.32-.07 1.98 0 .73 0 1.45.04 2.18.05 1.27.03 2.57.26 3.83.25 1.43 1.29 3.05 2.89 3.12.65.03 1.27-.23 1.88-.4q.99-.285 2.01-.51c.61-.14 1.23-.26 1.85-.37l.93-.15c.12-.02.25-.04.37-.05-.19.03-.17.02.06 0 .19-.02.38-.04.57-.08 1.02-.26 1.7-1.13 1.66-2.18-.03-.79-.33-1.59-.48-2.37-.06-.31-.11-.62-.16-.94-.06-.4-.02-.12 0-.03-.02-.19-.05-.38-.07-.57-.07-.63-.11-1.26-.13-1.89-.02-.58.04-1.18-.02-1.76-.12-1.18-.83-2.15-2.01-2.46-.71-.19-1.51-.12-2.24-.11-.79.01-1.58.03-2.36.07-1.6.07-3.31.04-4.88.39-1 .22-1.6 1.3-1.47 2.25.14 1.04.99 1.72 2.02 1.78.72.04 1.45-.07 2.16-.12s1.44-.1 2.17-.13 1.38-.07 2.07-.11c.36-.02.72-.03 1.08-.05.15 0 .31 0 .46-.02.4-.03-.03-.02-.21-.1-.25-.1-.94-1.07-.81-1.11-.02 0 0 .51 0 .52 0 .32 0 .63.02.95.03.7.08 1.39.17 2.08.1.81.23 1.61.4 2.4.07.31.14.62.22.92.05.18.09.37.15.55.06.2.13.68.1.04l.26-.96-.06.1.68-.68c.44-.23-.01-.08-.17-.05l-.56.09c-.31.05-.62.1-.93.16-.68.13-1.35.28-2.02.44s-1.34.35-2 .55c-.18.06-.36.11-.54.17-.09.03-.17.06-.26.08-.36.1-.1.15.79.14l.17.12c-.12-.13-.13-.13-.04-.02.17.17-.08-.16-.12-.22-.1-.17.08.3 0-.03-.03-.14-.07-.28-.1-.42-.08-.35 0 .19-.01-.03-.01-.15-.03-.29-.04-.44-.05-.7-.09-1.4-.13-2.1s-.1-1.45-.17-2.18c-.07-.78-.23-1.57-.3-2.28-.08-.8-.65-1.58-1.54-1.54-.83.04-1.54.68-1.54 1.54Zm22.7 10.89a99 99 0 0 0 3.95 3.14c.58.44 1.19.88 1.91 1.01.73.13 1.48-.09 2.19-.31 1.08-.33 2.15-.67 3.23-1 .33-.1.68-.22.88-.49.25-.33.22-.79.16-1.21-.12-.91-.28-1.82-.49-2.71-.12-.51-.31-1.09-.81-1.27-.3-.1-.62-.02-.92.05l-10.49 2.73c.17-.08.35-.16.52-.23"/><path d="M44.59 166.8c.9.79 1.81 1.57 2.74 2.33s1.85 1.63 2.95 2.12c1.34.6 2.67.43 4.05.05 1.14-.31 2.29-.62 3.41-1 1.45-.49 2.42-1.59 2.38-3.18-.03-1.18-.3-2.46-.57-3.61-.29-1.23-1.06-2.46-2.39-2.72s-2.75.34-4.01.66c-1.38.36-2.76.72-4.15 1.08-1.36.35-2.82.61-4.14 1.1.65 1.12 1.3 2.23 1.95 3.35.12-.14.25-.25.39-.36.62-.49.66-1.57.28-2.21-.43-.74-1.25-.98-2.06-.84.19-.01.18-.02-.04-.02-1.21-.01-2.13 1.1-1.97 2.27.17 1.29 1.31 1.85 2.5 1.67 1.31-.2 2.62-.66 3.91-1l3.66-.96 1.71-.45c.33-.09.65-.17.98-.26.14-.04.28-.07.43-.11-.24.04-.46 0-.67-.15a.9.9 0 0 1-.31-.28c-.09-.24-.09-.25-.02-.03.04.18.09.35.13.53.14.6.25 1.2.35 1.8.02.15.05.3.07.45q-.03-.27 0 .06c0 .24 0 .24.03 0 .08-.22.2-.41.37-.55l.15-.07c-.13.04-.26.09-.39.13-.31.1-.61.2-.92.3-.61.2-1.23.39-1.84.6-.22.07-.44.15-.66.22-.14.05-.29.09-.43.12-.24.04-.29.05-.16.05-.5.08-.62-.03-1.12-.34-.45-.29-.88-.62-1.32-.93a89 89 0 0 1-2.9-2.21c-.71-.56-1.67-.69-2.36 0-.61.61-.68 1.77 0 2.36Zm29.96-.74c2.12.57 2.64 2.27 4.59 3.28.19.1 1.18.64 1.39.65.26.01.52-.09.76-.2 3.12-1.37 6.1-3.05 8.87-5.03-.64-.22-1-.86-1.47-1.34-.77-.78-1.89-1.14-2.98-1.18s-2.18.21-3.24.5c-2.57.7-5.07 1.62-7.47 2.76"/><path d="M74.11 167.68c1.19.38 1.84 1.48 2.82 2.3s2.52 1.89 3.86 1.84c1.05-.04 2.08-.64 3.01-1.08.82-.38 1.62-.78 2.41-1.2 1.71-.91 3.36-1.94 4.98-3 1.17-.77 1.49-2.85 0-3.54-.06-.03-.28-.17-.13-.03-.11-.1-.21-.22-.3-.33-.2-.23-.38-.48-.59-.69-.59-.6-1.3-1.01-2.07-1.32-1.56-.63-3.25-.55-4.87-.23-3.21.63-6.35 1.89-9.3 3.27-1.04.49-1.3 1.98-.76 2.91.62 1.06 1.87 1.25 2.91.76 2.5-1.18 5.14-2.16 7.83-2.79.62-.14 1.17-.19 1.81-.21.18 0 .85.15.99.21.44.21.59.44.97.87.56.63 1.17 1.02 1.95 1.33l-.49-3.75a42 42 0 0 1-4.5 2.97c-.74.42-1.49.83-2.24 1.22-.71.36-1.55.93-2.34 1.06h.97c-.07-.01-.27-.13-.11-.02.19.13-.24-.12-.25-.12-.19-.09-.38-.19-.57-.29-.59-.31-.96-.58-1.43-1.02-1.1-1.03-2.16-1.94-3.65-2.35-2.1-.57-2.95 2.59-.89 3.24Z"/></svg>