<?xml version="1.0" encoding="UTF-8"?><svg xmlns="http://www.w3.org/2000/svg" viewBox="0 0 180 180"><path d="M120.26 168.37c-.73-2.47-.93-4.64-1.13-7.16-.29-3.53-.41-7.07-.47-10.61-.14-8.23-.04-16.47.03-24.71.06-6.94.23-13.9-.1-20.84-.18-3.73-.53-7.61-1.82-11.12-.9-2.45-2.25-4.76-4.3-6.41s-4.72-2.68-7.41-3.13c-3.17-.53-6.68-.86-9.88-.47-3.11.38-6.35 2.13-7.11 5.42s1.2 6.11 3.76 7.81c2.87 1.9 6.49 1.9 9.67 2.97v-4.29c-5.62 1.53-10.07 7.99-8.01 13.77.65 1.82 3.69 1.69 3.58-.48-.2-3.86 1.68-7.87 5.62-8.99 2.16-.62 2.07-3.63 0-4.29-2.58-.83-5.57-.8-7.99-2.08-1.39-.73-3.27-2.58-1.95-4.17 1.57-1.9 4.81-1.43 6.96-1.33 2.39.1 4.78.28 7.07 1.04 7.27 2.42 7.47 11.7 7.67 18.15.44 14.29-.23 28.58.36 42.87.15 3.68.35 7.36.76 11.01.3 2.66.62 5.39 1.45 7.94.67 2.06 3.89 1.21 3.27-.9Z"/><path d="M91.64 87.91c1.38-5.62-4.54-8.05-9.04-8.69-5.32-.76-11.91-.58-15.38 4.23-2.51 3.48-1.41 8.61 2.69 10.22l1.08-3.93c-4.2-.9-8.29 2.26-8.73 6.5s3.06 8.02 7.04 8.83l1.14-4.12c-4.63-.75-8.58 3.12-8.06 7.78.56 4.96 4.92 7.71 9.52 8.3v-4.29c-3.9-.04-6.89 3.63-6.83 7.41.07 4.19 3.47 7.51 7.05 9.16 2.1.96 4.31 1.58 6.5 2.28.54.17 1.63.36 1.84.8.18.38.05 1.23.07 1.62.03.66.05 1.32.08 1.99.21 5.05.49 10.1.85 15.14.41 5.61.77 11.28 1.74 16.82.35 2.01 3.54 1.51 3.51-.48-.06-4.55-.52-9.09-.81-13.62s-.57-9.26-.79-13.89c-.11-2.23-.2-4.47-.29-6.7s-.56-4.01-2.69-4.98c-3.47-1.59-7.7-1.82-10.65-4.46-1.11-1-2.27-2.48-2.08-4.09.15-1.31 1.08-2.7 2.5-2.7 1.16 0 2.15-.99 2.15-2.15 0-1.28-.99-2-2.15-2.15-2.21-.28-4.53-1.56-5.15-3.83-.43-1.59.49-4.14 2.56-3.84 1.14.17 2.3-.28 2.63-1.49.29-1.04-.35-2.42-1.49-2.63-2-.37-3.97-1.83-4.06-4.03-.07-1.74 1.73-3.62 3.53-3.25 2.6.53 3.52-3 1.08-3.93-1.01-.39-1.26-1.87-1.1-2.79.28-1.62 1.93-2.74 3.33-3.36.58-.25 1.19-.45 1.81-.58.42-.09.78-.13.84-.14 1.09-.11 2.18-.15 3.27-.13 2.34.05 4.73.3 6.92 1.17 1.56.62 2.77 1.5 2.45 3.13-.4 2.03 2.63 2.92 3.13.86Z"/><path d="M68.22 93.25c3.7.18 7.34.83 10.88 1.9 1.58.48 3.38.94 4.74 1.93 1 .73 2.09 2.18 1.74 3.51-.32 1.21-2.04 1.14-3.04 1.18-1.5.06-3.01.04-4.51-.04-3.11-.15-6.23-.48-9.26-1.21l-1.09 3.96c3.95.78 7.94 1.31 11.9 2.07 1.89.36 3.96.66 5.62 1.7 1.28.8 2.4 2.33 1.59 3.83-.39.73-1.09 1.29-1.83 1.64-.25.12-.49.2-.75.27-.23.04-.2.04.07 0l-.38.03c-1.3 0-2.59-.07-3.88-.2-2.71-.28-5.4-.78-8.11-1.05v4.24c.18 0 .35.02.53.04.33.03.5.06.48.06.66.1 1.33.21 1.99.32 1.62.28 3.23.58 4.83.91 1.09.22 2.18.43 3.25.71.94.25 1.95.55 2.73 1.17.36.29.69.68.85 1.12.3.86-.18.37.44.28-2.29.36-1.77 4.26.55 4.07 3.86-.33 3.94-4.91 2.07-7.42-1.57-2.1-4.08-2.99-6.54-3.54-3.62-.81-7.45-1.79-11.17-1.95-2.77-.12-2.67 3.97 0 4.24l.52.06c.46.05-.1-.02.3.04.62.08 1.23.17 1.85.26 1.51.21 3.03.43 4.55.6 2.43.27 5.1.68 7.4-.33 3.67-1.61 5.86-5.62 4.07-9.43-1.75-3.72-5.89-4.87-9.59-5.58-4.06-.78-8.17-1.3-12.23-2.1-2.56-.5-3.68 3.34-1.09 3.96 3.95.93 8.07 1.31 12.12 1.37 3.67.06 8.91.05 9.73-4.55.39-2.19-.39-4.33-1.79-6.01s-3.41-2.52-5.41-3.21c-4.53-1.55-9.34-2.13-14.11-1.78-1.89.13-1.91 2.86 0 2.95Z"/><path d="M68.24 93.09c3.39 1.13 7.12 1.43 10.67 1.62 2.06.11 4.13.05 6.15-.47 2.08-.54 5.59-1.84 6-4.29.26-1.54-1.65-3.13-2.9-1.69-.66.76-1.15 1.27-2.07 1.74s-1.97.78-3.01.98c-1.6.3-3.24.22-4.86.13-1.66-.09-3.32-.21-4.98-.33-1.42-.1-2.85-.12-4.25-.4-1.76-.34-2.46 2.12-.74 2.7Zm27.75 3.48c.16 14.82.86 29.62 2.11 44.39.02.24.03.51-.13.69-.16.17-.41.19-.64.2-1.3.06-2.61.12-3.91.17-.66.03-1.41.02-1.83-.48-.29-.34-.34-.82-.37-1.27l-1.14-14.9c-.07-.92-.14-1.85-.07-2.77.11-1.32.51-2.62.39-3.93-.07-.78-.33-1.54-.4-2.32-.23-2.33 1.14-4.6.9-6.93-.16-1.61-1.08-3.04-1.4-4.62-.34-1.69 0-3.42.1-5.14.11-1.98-.12-3.98-.67-5.88 1.12.84 2.28 1.64 3.46 2.4"/><path d="M94.38 96.57c0 7.49.02 14.97.33 22.46.16 3.7.39 7.4.64 11.09.12 1.81.25 3.61.39 5.42.07.98.15 1.97.23 2.95.06.7.42 1.99.14 2.64l.88-1.15-.29.16.97-.26c-1.24.15-2.52.13-3.77.17-.01 0-.88-.05-.97.03.24.4.32.46.23.18-.03-.33-.06-.66-.1-.99-.22-2.31-.38-4.64-.56-6.95-.19-2.47-.41-4.94-.57-7.41-.15-2.19.55-4.33.31-6.49-.13-1.11-.53-2.16-.38-3.29.12-.93.43-1.84.62-2.75.44-2.11.26-3.93-.5-5.95-.37-.99-.72-1.94-.76-3.01s.14-2.19.23-3.28c.18-2.33-.12-4.6-.65-6.87l-2.87 2.21c1.12.85 2.26 1.67 3.46 2.4 2.17 1.33 4.05-1.98 1.98-3.39-1.16-.79-2.33-1.56-3.46-2.39-1.39-1.01-3.36.66-2.87 2.21s.72 3.23.68 4.91-.37 3.42-.18 5.14c.18 1.57.87 2.91 1.3 4.4s-.02 2.81-.35 4.26c-.38 1.66-.45 3.11-.16 4.78s-.12 3.15-.25 4.82.12 3.52.25 5.25l.42 5.46c.14 1.82.29 3.64.4 5.46.09 1.55 0 3.25 1.26 4.37s2.95.83 4.45.75c1.56-.09 3.76.22 4.74-1.28.86-1.31.23-3.64.12-5.1-.14-1.81-.27-3.61-.4-5.42-.25-3.61-.47-7.23-.65-10.85-.42-8.22-.91-16.45-1.1-24.68-.05-2.06-3.2-2.07-3.2 0ZM82.63 149.9c-5.29.29-10.66.42-15.84 1.67-4.32 1.04-11.47 3.13-11.83 8.55s6.22 7.88 10.51 9.01c5.81 1.54 11.88 1.93 17.85 2.32 12.44.81 24.92.94 37.37.39 5.62-.25 11.39-.57 16.77-2.37 4.53-1.52 11.02-4.74 10.07-10.56-.9-5.5-8.07-7.21-12.62-8.2-5.79-1.26-11.74-1.38-17.64-1.36-2.82 0-2.83 4.41 0 4.39 4.62-.03 9.3-.04 13.88.67 2.08.32 4.14.78 6.16 1.39 1.7.51 3.56 1.05 4.94 2.22 3.74 3.18-3.16 6.31-5.52 7.13-4.55 1.59-9.38 2.02-14.17 2.26-11.02.56-22.07.56-33.09.04-5.33-.25-10.69-.53-15.98-1.2-2.46-.31-4.91-.77-7.3-1.43-1.99-.55-4.21-1.15-5.81-2.54-3.98-3.48 4.96-5.86 7.16-6.42 5.11-1.29 10.38-1.69 15.54-2.66 1.85-.35 1.44-3.4-.45-3.3"/><path d="M79.17 153.39c-5.74.67-11.57 1.45-16.87 3.76-.91.39-1.88.93-2.15 1.88-.34 1.23.69 2.41 1.76 3.1 2.38 1.54 5.26 2.04 8.06 2.51l12.45 2.1c.04-4.42-.26-8.85-.89-13.23"/><path d="M79.17 151.84c-4.31.38-8.63.8-12.82 1.9-3.16.83-9.35 2.43-8 6.95 1.16 3.89 6.57 5.04 10 5.65 4.51.8 9.03 1.53 13.55 2.29 1.24.21 2.47-.51 2.48-1.89.03-4.61-.31-9.19-.95-13.75-.15-1.05-1.49-1.63-2.42-1.38-1.13.31-1.53 1.36-1.38 2.42.6 4.21.85 8.46.83 12.7.83-.63 1.65-1.26 2.48-1.89-3.87-.65-7.73-1.29-11.6-1.94-1.63-.27-3.27-.52-4.86-.95-1.36-.36-3.01-.85-4.04-1.86-.35-.34-.47-.43-.28-.71.28-.42 1.3-.68 1.77-.87 1.62-.64 3.29-1.16 4.97-1.61 3.51-.93 7.1-1.5 10.69-2.02 1.72-.25 1.33-3.21-.41-3.05Zm39.89 1.14-.32 14.39c-.01.64.1 1.46.72 1.62.17.04.35.02.52 0l2.06-.27c1.59-.21 3.18-.42 4.76-.68 3.99-.67 7.93-1.7 11.69-3.18 1.29-.51 2.59-1.09 3.62-2.02s1.78-2.26 1.69-3.65c-.03-.41-.13-.84-.4-1.15-.2-.23-.46-.39-.73-.53-6.22-3.42-13.7-3.29-20.79-3.06-.28 0-.56.02-.84.03"/><path d="m117.42 152.98-.28 8.68c-.05 1.41-.09 2.81-.13 4.22-.03 1.09-.17 2.27.29 3.29 1.1 2.45 4.14 1.42 6.2 1.15 2.67-.35 5.31-.76 7.93-1.36 2.58-.59 5.12-1.32 7.6-2.26 2.3-.88 4.59-1.99 5.91-4.18 1.23-2.04 1.43-4.97-.67-6.5-1.86-1.36-4.23-2.24-6.45-2.81-5.41-1.4-11.2-1.34-16.75-1.04-2.93.16-2.98 4.62 0 4.59 3.93-.04 7.85-.26 11.78.15 1.9.2 3.76.61 5.59 1.16.83.25 1.65.53 2.43.88.24.11 1.01.49.99.45-.05-.13-.09.45-.12.55-.44 1.63-2.33 2.46-3.73 3.05-2.01.84-4.09 1.52-6.19 2.09s-4.26 1.01-6.42 1.35q-1.545.24-3.09.45l-1.33.18c-.27.04-.57.03-.82.11-.36.12-.68-.15 0 .31 1.28.86.28.31.39.17.1-.13 0-.85 0-1.03l.03-1.98c.02-1.24.03-2.48.04-3.72l.09-7.94c.03-2.13-3.23-2.12-3.3 0ZM83.84 80.26a91.5 91.5 0 0 1-1.23-15.51c1.47-.32 2.99-.4 4.49-.22.53.06 1.09.18 1.45.56.35.38.43.94.5 1.45.5 3.88 1.44 7.69 2.38 11.49.57 2.3 1.14 4.6 1.7 6.9-2.36-2.18-5.4-3.63-8.58-4.09"/><path d="M85.41 80.26c-.53-5.16-1.01-10.31-.96-15.51l-1.35 1.78c.95-.19 1.9-.27 2.87-.24.39.01.78.08 1.16.11.53.04-.03.09 0-.12-.02.13.06.33.09.45.34 2.1.65 4.2 1.11 6.28.91 4.16 2 8.28 3.03 12.41l3.07-1.78c-2.64-2.37-5.87-3.99-9.4-4.53-.96-.15-1.93.24-2.21 1.26-.24.86.29 2.06 1.26 2.21 2.91.47 5.58 1.67 7.76 3.66 1.35 1.23 3.51.03 3.07-1.78-1.19-4.89-2.52-9.78-3.47-14.72-.23-1.22-.42-2.44-.6-3.67-.16-1.13-.63-2.19-1.66-2.8-1.95-1.15-4.96-.72-7.06-.28-.78.17-1.35 1-1.35 1.78.01 5.33.38 10.71 1.56 15.92.38 1.69 3.27 1.37 3.08-.42Z"/><path d="M83.09 65.75c-7.6 1.17-15.25 2.18-22.9 2.93-3.74.37-7.49.71-11.24.98-3.39.24-6.95.74-10.35.42-1.09-.1-2.31-.36-3.12-1.16-1.05-1.03-1.23-2.73-1.47-4.1-.69-3.85-1.25-7.73-1.75-11.61-.96-7.5-1.66-15.04-2.32-22.57-.16-1.8-.32-3.6-.46-5.41-.11-1.4-.43-3.29.54-4.48 1.52-1.86 5.13-1.68 7.24-1.84 7.79-.62 15.58-1.22 23.37-1.81 15.42-1.16 30.84-2.25 46.27-3.28 4.31-.29 8.63-.57 12.94-.85 2.16-.14 4.31-.28 6.47-.41 2.07-.13 4.28-.5 6.35-.38 1.29.08 1.73 1.29 2.15 2.39.72 1.88 1.31 3.81 1.79 5.77s1.8 6.26-.49 7.57c-1.5.85-1.39 3.67.52 3.97 1.31.2 2.45.87 2.96 2.16.35.88.18 1.84.17 2.76-.02 1.18.12 2.33.5 3.45.56 1.61 1.46 3.11 1.11 4.86-.3 1.52-1.22 2.72-2.56 3.45-1.2.66-1.46 2.48-.44 3.42 1.47 1.36 2.43 3 2.87 4.95.21.92.28 1.94.14 2.87-.02.18-.06.35-.11.52.25-.19.28-.24.12-.16-.44.27-1.2.34-1.7.47-4.71 1.23-9.52 2.09-14.36 2.64-9.98 1.15-19.99 1.1-30.01 1.38-2.71.08-2.72 4.18 0 4.22 8.89.14 17.85-.02 26.7-.86 4.45-.42 8.89-1.02 13.27-1.9 2.17-.44 4.34-.94 6.47-1.53s3.49-1.61 3.85-3.82c.71-4.35-.94-8.89-4.16-11.87l-.44 3.42c2.11-1.16 3.64-3.1 4.37-5.38.85-2.64.16-4.96-.78-7.44s-.02-5.26-1.3-7.76c-1.07-2.09-3.19-3.69-5.51-4.05l.52 3.97c2.81-1.6 3.58-4.9 3.31-7.92-.33-3.68-1.44-7.44-2.82-10.85-.6-1.5-1.34-2.94-2.65-3.94-1.67-1.27-3.62-1.12-5.6-.99q-6.345.39-12.69.81a5682 5682 0 0 0-50.5 3.5c-8.46.63-16.91 1.27-25.36 1.93-3.62.28-7.61.18-11.12 1.23-3.57 1.06-5.71 3.75-5.84 7.49-.07 1.99.24 4.02.42 6s.36 4.1.54 6.14c.38 4.18.79 8.35 1.26 12.52s1.01 8.38 1.64 12.55c.3 2.02.62 4.03.98 6.04.32 1.78.8 3.54 1.92 4.99 2.16 2.79 5.77 3.24 9.07 3.11 4.09-.16 8.18-.53 12.25-.91 8.31-.77 16.61-1.87 24.81-3.42 2.01-.38 4.01-.79 6-1.21 1.98-.42 1.1-3.28-.82-2.98ZM40.36 84.68l-2.75-.84c-1.02-.31-2.05-.7-3.13-.75-.7-.03-1.46.54-1.61 1.23s.1 1.51.77 1.89c.93.53 2.02.74 3.04 1.02.92.25 1.85.51 2.77.76.86.24 1.9-.29 2.1-1.19s-.28-1.82-1.19-2.1Zm.36 17.92h-.32c.13.02.27.04.4.05-.97-.16-1.97-.11-2.95-.12s-2.02 0-3 .17c-.38.07-.85.45-1.03.79s-.26.71-.2 1.1c.12.88.82 1.42 1.69 1.49s1.75-.04 2.6-.14l1.27-.14c.54-.06 1.1-.08 1.62-.22l-.4.05.32-.03c.41-.04.77-.14 1.07-.44.26-.26.46-.69.44-1.07-.04-.82-.66-1.51-1.51-1.51Zm3.91 20.35c-.07.02-.14.05-.21.06h.71c-.17-.02-.34-.05-.51-.07l.38.05c-.14-.02-.29-.05-.43-.06-.11 0-.32.04-.47.06l-.22.03c-.21.04-.43.15-.63.24-.35.15-.7.31-1.04.5-.66.38-1.27.9-1.8 1.45-.3.32-.49.75-.49 1.19 0 .41.18.91.49 1.19s.74.51 1.19.49.89-.16 1.19-.49c.33-.36.68-.68 1.06-.98l-.34.26c.25-.19.48-.38.72-.57l-.33.26c.21-.16.42-.31.64-.45.11-.07.22-.14.33-.2.21-.12.39-.28.57-.42l-.3.23c.2-.15.39-.29.56-.48l-.27.21.05-.03-.32.13c.05-.02.1-.04.16-.06.33-.13.6-.29.79-.61.17-.28.24-.7.13-1.02-.22-.67-.92-1.13-1.62-.92Zm14.05 13.71c-.33.08-.65.22-.96.36-.19.09-.38.19-.55.3-.28.19-.56.4-.81.63-.18.17-.31.35-.47.56-.02.03-.03.05-.05.07l-.17.41-.06.46s0 .1-.01.14c0 .29.08.57.22.82.1.19.24.34.42.46.16.14.34.24.56.29q.435.12.87 0c.04-.02.09-.03.13-.05.3-.11.54-.22.77-.45.02-.02.03-.04.05-.05.08-.08.15-.18.23-.26.15-.17.32-.32.49-.46l-.34.26c.26-.2.55-.37.85-.5l-.39.16s.06-.02.08-.03c.21-.05.4-.15.55-.29.18-.11.32-.27.42-.46.12-.19.18-.39.19-.6a1.2 1.2 0 0 0-.03-.65c-.13-.39-.37-.77-.75-.97s-.81-.27-1.25-.16Zm75.78-58.45c6.04.99 11.17 5.06 13.88 10.5 1.28 2.58 2.07 5.78 1.37 8.64-.79 3.23-3.5 4.55-6.55 5.1-1.5.27-3.07.42-4.59.41-.9 0-2.39-.02-2.97-.86-.74-1.07.49-2.34 1.42-2.72 1.36-.57 3.04-.39 4.43-.03 6.33 1.65 9.66 8.14 9.39 14.32-.18 4.11-1.76 8.02-4.01 11.42-2.26 3.41-5.31 6.02-8.08 8.98-1.29 1.38.39 3.83 2.09 2.71 3.74-2.44 6.91-6.02 9.36-9.72 2.56-3.87 4.22-8.32 4.52-12.97.53-8.23-4.48-17.18-13.08-18.77-4.1-.76-9.4.45-10.14 5.27s3.9 6.46 7.74 6.33c4-.14 8.55-.72 11.58-3.59 3.13-2.97 3.51-7.66 2.62-11.66-1.96-8.8-9.79-15.23-18.6-16.26-1.63-.19-2.02 2.62-.39 2.89Z"/><path d="M55.27 29.89c-2.7 5.17-5.16 10.46-7.67 15.72-.69 1.44.13 3.15 1.83 3.19 2.29.05 4.57.03 6.85-.15s4.7-.29 6.91-.84c2.74-.68 2.5-3.33 2.54-5.61s.03-4.62 0-6.94H61.3c.15 3.67.35 7.34.62 11.01s.34 7.46 1.19 11.01c.52 2.18 3.73 1.62 3.81-.52.13-3.55-.44-7.19-.66-10.74s-.4-7.17-.53-10.76c-.1-2.84-4.45-2.86-4.43 0 .03 3.24.19 6.57-.08 9.8l.3-1.12-.16.34.8-.8c-.66.42-2.15.36-2.95.46-1.05.13-2.11.23-3.17.31-2.2.17-4.4.29-6.61.31l1.83 3.19c2.41-5.5 4.86-10.99 7.07-16.57.7-1.76-2.19-2.95-3.06-1.29m56.42-5.67c-2.7 5.17-5.16 10.46-7.67 15.72-.69 1.44.13 3.15 1.83 3.19 2.29.05 4.57.03 6.85-.15 2.26-.18 4.7-.29 6.91-.84 2.74-.68 2.5-3.33 2.54-5.61s.03-4.62 0-6.94h-4.43c.15 3.67.35 7.34.62 11.01s.34 7.46 1.19 11.01c.52 2.18 3.73 1.62 3.81-.52.13-3.55-.44-7.19-.66-10.74s-.4-7.17-.53-10.76c-.1-2.84-4.45-2.86-4.43 0 .03 3.24.19 6.57-.08 9.8l.3-1.12-.16.34.8-.8c-.66.42-2.15.36-2.95.46-1.05.13-2.11.23-3.17.31-2.2.17-4.4.29-6.61.31l1.83 3.19c2.41-5.5 4.86-10.99 7.07-16.57.7-1.76-2.19-2.95-3.06-1.29m-30.72 5.03c-5 2.51-9.89 5.6-10.57 11.66-.63 5.57 2.89 10.75 7.95 12.84 5.32 2.19 11.24.96 15.64-2.6 4.35-3.52 7.46-9.54 6.46-15.21-1.14-6.46-8.16-11.32-14.58-9.21-2.22.73-1.26 3.71.94 3.41 4.34-.6 8.5 1.54 9.64 5.94 1.09 4.2-1.49 8.7-4.56 11.41-2.94 2.6-7.01 3.73-10.82 2.63-3.7-1.06-6.37-4.25-6.51-8.14-.18-4.96 4.28-7.7 8.08-9.88 1.85-1.06.22-3.79-1.66-2.85Z"/><path d="M80.82 36.87A84 84 0 0 0 84 41.43c.54.72 1.08 1.45 1.62 2.16.33.44.67.87 1.01 1.3.43.54.77.99 1.45 1.21.87.28 1.99-.49 1.91-1.45-.04-.4-.11-.73-.32-1.07-.17-.27-.41-.52-.61-.78l-.86-1.1c-.58-.72-1.15-1.45-1.72-2.19-.13-.17-.27-.34-.4-.52.1.13-.02-.03-.06-.07l-.2-.26c-.28-.37-.57-.74-.85-1.11-.62-.82-1.28-1.61-1.92-2.41-.44-.55-1.36-.5-1.87-.11-.54.41-.75 1.24-.37 1.83Z"/><path d="M81.86 45.52c1.56-1.2 3.07-2.44 4.52-3.77.69-.63 1.36-1.27 2.02-1.92.73-.71 1.55-1.42 2.13-2.26.44-.63.17-1.55-.4-1.99-.66-.51-1.4-.36-2.02.12-.35.27-.64.65-.95.97s-.63.65-.95.97c-.66.66-1.33 1.3-2.01 1.94-1.34 1.25-2.71 2.48-4.1 3.66-.55.47-.52 1.38-.11 1.91s1.3.82 1.87.37"/></svg>