<?xml version="1.0" encoding="UTF-8"?><svg xmlns="http://www.w3.org/2000/svg" viewBox="0 0 180 180"><path d="M107.28 147.48c-3.39-7.57-8.58-14.1-15.33-18.94-6.11-4.38-13.3-7.07-20.43-9.27-3.97-1.23-7.98-2.33-11.97-3.48.19 1.44.38 2.88.56 4.32l7.32-5.49c2.18-1.64 4.86-3.2 5.4-6.11.52-2.76-.71-5.55-1.54-8.13-.96-3.01-1.92-6.02-2.88-9.04-.72.95-1.44 1.89-2.16 2.84l17.39-2.16c1.17-.14 2.26-.9 2.22-2.22-.13-5.13-.19-10.27.07-15.4.02-.32-.09-1.17.11-1.45 0 .01-.38-.12.25 0 1.18.23 2.61.04 3.81.06 2.47.05 4.94.11 7.41.17 2.11.05 4.91.58 6.86-.46s2.06-3.37 2.15-5.33c.22-5.13.29-10.27.22-15.4l-2.09 2.09c2.1.05 4.21.11 6.31.16.7.02 1.5-.41 1.82-1.05 3.99-7.94 2.57-17.21-1.45-24.84-3.7-7.02-8.85-13.43-14.11-19.33l-3.09 3.09c1.93 1.59 3.85.47 5.98.15 1.73-.26 4.39-.11 6.41.04 4.66.34 9.25 1.43 13.64 2.99 8.9 3.17 17.17 8.59 23.29 15.82 6.64 7.83 10.06 18.29 10.77 28.43.38 5.47.03 11-1.14 16.36-1.23 5.7-3.4 10.92-6.11 16.07-3.15 5.99-5.67 12.29-6.04 19.13-.36 6.69 1.64 13.17 5.08 18.86l1.33-3.27c-7.47 2.35-14.72 5.52-21.8 8.86-7.07 3.33-14 6.94-20.78 10.83-2.46 1.41-.24 5.22 2.22 3.8 13.17-7.56 27.01-14.64 41.54-19.19 1.35-.42 2.1-2 1.33-3.27-3.01-5.01-4.75-10.52-4.46-16.4.29-5.91 2.52-11.47 5.24-16.65 2.76-5.24 5.14-10.56 6.52-16.34 1.3-5.45 1.87-11.1 1.66-16.7-.39-10.65-3.43-21.75-9.73-30.47-5.73-7.92-13.79-14.06-22.68-18.06-4.99-2.25-10.24-3.91-15.67-4.71-2.66-.39-5.33-.62-8.02-.6-1.25.01-2.56 0-3.79.24-.5.1-.99.26-1.48.39-.19.05-.38.11-.58.14-.3.06-.38.07-.24.05-.54-.02-.35.11.58.4-2.16-1.77-5 .96-3.09 3.09 4.82 5.38 9.42 11.17 12.95 17.48 3.58 6.39 5.45 14.58 2.06 21.45.61-.35 1.22-.7 1.82-1.05-2.1-.04-4.21-.07-6.31-.11-1.11-.02-2.11.97-2.09 2.09.11 5.13.07 10.27-.09 15.4-.02.47-.11 1.02-.06 1.49.01.11-.2.56.07.33-.26.23-1.2.07-1.51.06-.66-.01-1.32-.03-1.97-.04-2.47-.05-4.94-.11-7.41-.16-1.32-.03-2.63-.06-3.95-.1-.97-.03-1.99-.11-2.94.17-2.44.72-2.68 3.12-2.82 5.26-.35 5.13-.57 10.26-.45 15.4l2.22-2.22c-5.8.7-11.59 1.41-17.39 2.11-1.37.17-2.65 1.31-2.16 2.84.8 2.54 1.6 5.08 2.41 7.61l1.2 3.81c.32 1 .75 2.08.74 3.15 0 .94-.5 1.43-1.21 2-1 .8-2.08 1.52-3.12 2.27-2.13 1.55-4.26 3.1-6.38 4.65-1.61 1.17-1.5 3.69.56 4.32 13.43 4.07 28 7.09 38.3 17.38 3.31 3.31 5.87 7.16 7.9 11.37.91 1.88 3.61.24 2.78-1.62Z"/><path d="M105.84 147.77c-.59 1.78.33 3.67 1.18 5.35a95 95 0 0 1 4.39 10.19c.81 2.23 1.7 4.69 3.78 5.83 1.03.56 2.24.72 3.41.79 6.7.43 13.68-1.29 19.9-3.67 4.6-1.76 9.01-4.12 12.9-7.14 3.72-2.89 7.66-6.64 9.07-11.27.27-.88.46-1.84.17-2.72-.16-.51-.47-.96-.78-1.39-3.11-4.43-6.86-9.29-10.21-13.54-.26-.33-.52-.13-.86-.38-1.39-1.05-1.93 1.01-3.56 1.62-7.04 2.65-6.52 2.83-13.61 5.34s-19.51 7.16-23.46 13.56"/><path d="M104.35 147.36c-.94 2.94.69 5.75 1.86 8.37 1.18 2.66 2.23 5.39 3.22 8.12.84 2.32 1.72 4.78 3.7 6.38 2.33 1.88 5.53 1.9 8.39 1.83 5.94-.14 11.8-1.63 17.33-3.73 5.41-2.06 10.41-4.84 14.91-8.49 3.88-3.15 8.12-7.45 8.96-12.61.49-3.02-1.51-5.16-3.18-7.45-1.83-2.51-3.7-4.98-5.6-7.43-1.5-1.94-3.07-4.87-5.84-4.94-1.19-.03-2.06.7-2.87 1.46s-1.91 1.03-2.95 1.44c-3.72 1.46-6.93 2.89-10.76 4.26-4.7 1.68-9.4 3.43-13.86 5.7-4.14 2.1-8.92 4.84-11.21 9.05-1.25 2.3 1.95 4.03 3.44 2.01 2.13-2.88 5.23-4.88 8.32-6.58 3.46-1.9 7.11-3.41 10.81-4.79 3.34-1.25 6.71-2.39 10-3.78 1.41-.6 2.82-1.19 4.38-1.8 1.1-.43 2.31-.76 3.34-1.34.46-.26.88-.62 1.27-.98.34-.32.96-.62.16-.51-.65.08-.45-.03.09.28.1.06.33.26.22.17.42.38.76.96 1.11 1.4.84 1.07 1.68 2.15 2.5 3.23 1.6 2.09 3.18 4.19 4.72 6.32.59.82 1.65 1.84 1.91 2.83.25.93-.4 2.22-.79 3.04-.99 2.08-2.45 3.87-4.08 5.48-7.01 6.95-16.72 11.19-26.34 12.97-2.86.53-5.78.76-8.68.59-1.17-.07-2.39-.19-3.28-1.03-.77-.73-1.25-1.76-1.64-2.73-1.07-2.61-2-5.25-3.22-7.8a75 75 0 0 0-2.09-4.11c-.67-1.21-1.57-2.57-1.26-4.02.41-1.94-2.38-2.73-2.98-.82ZM139.07 64c-.03-2.05-.09-4.1-.21-6.14-.09-1.56.12-3.79-1.17-4.94s-3.68-.96-5.27-.95c-1.92 0-3.84.2-5.74.52s-3.63 1.02-5.48 1.29c-1.84.27-3.48-.71-5.13-1.38-1.84-.75-3.75-1.3-5.7-1.65s-4.05-.7-6.01-.4c-1.8.27-1.73 3.24 0 3.57s3.48.28 5.21.61 3.42.81 5.06 1.42c1.46.54 2.86 1.29 4.42 1.53 1.75.28 3.41-.1 5.08-.58 3.33-.97 6.66-1.39 10.13-1.32.39 0 1.03.18 1.37.06-.38.13-.21-.71-.28.1s.15 1.77.21 2.59q.195 2.835.27 5.67c.05 2.09 3.28 2.1 3.25 0Z"/><path d="M135.21 41.86c-.48 1.62-.98 2.86-1.78 4.32-.39.71-.81 1.39-1.26 2.06-.23.33-.46.66-.7.98-.32.42-.56.81-.75 1.31-.45 1.18 1.15 2.4 2.18 1.68.5-.35.85-.77 1.2-1.27q.36-.525.69-1.08c.44-.73.84-1.49 1.2-2.27a29 29 0 0 0 1.81-5.02c.17-.68-.22-1.48-.93-1.64s-1.43.22-1.64.93Zm-11.12-17.25c-1.94 1.53-3.88 3.07-5.82 4.6-.94.74-1.88 1.48-2.81 2.25l-1.47 1.21c-.48.4-1.03.77-1.43 1.25-.49.59-.62 1.38-.12 2.01.48.6 1.29.77 1.98.39.6-.33 1.11-.84 1.64-1.28l1.38-1.15c.97-.82 1.93-1.65 2.88-2.48 1.88-1.65 3.76-3.29 5.64-4.94.54-.47.48-1.39 0-1.87-.55-.55-1.31-.44-1.87 0Z"/><path d="M133.49 31.83a65.5 65.5 0 0 0-6.31-7.69v2.27c1.19-1.24 2.48-2.34 3.94-3.24.74-.46 1.51-.87 2.31-1.22.97-.43 2.19-.57 2.54-1.78.2-.68-.15-1.28-.68-1.67-1.01-.75-2.54.17-3.52.61-.83.37-1.63.8-2.39 1.28-1.65 1.04-3.19 2.29-4.47 3.75-.56.64-.66 1.64 0 2.27 2.22 2.12 4.29 4.4 6.15 6.84.46.6 1.21.92 1.92.5.61-.36.94-1.3.5-1.92Zm-9.35 111.55c-3.55-7.28-6.93-14.65-10.45-21.95-3.14-6.53-5.94-13.96-11.31-19.05-4.26-4.04-12.77-7.9-17.65-2.61-2.15 2.33-2.56 5.9-.43 8.39 2.04 2.38 5.52 3.73 8.51 4.38 6.77 1.48 13.74-.18 19.73-3.46 3.07-1.68 5.9-3.77 8.59-6.01 2.57-2.15 5.46-4.45 6.87-7.58 1.23-2.74 1.12-6.11-.98-8.4-1.9-2.08-4.72-2.98-7.47-2.59-5.66.82-8.87 6.15-8.55 11.55.43 7.36 5.53 13.33 9.14 19.4 4.65 7.83 9.31 15.67 13.96 23.5 1.26 2.12 4.58.19 3.31-1.93-3.58-5.97-7.15-11.94-10.73-17.9-1.66-2.77-3.28-5.58-5.02-8.3-1.48-2.31-3.05-4.57-4.37-6.98-2.05-3.77-4.29-9.66-1.08-13.44 1.15-1.36 2.89-2.33 4.7-2.35 1.92-.02 4.04 1.19 4.34 3.22.4 2.71-1.74 4.95-3.55 6.64-2.17 2.04-4.47 3.98-6.92 5.68-4.8 3.33-10.29 5.87-16.22 6-2.75.06-5.53-.35-8.06-1.45-1.96-.85-5.01-2.41-3.7-4.99 1.22-2.39 4.55-2.33 6.77-1.74 2.6.69 4.86 2.26 6.73 4.16 2.4 2.43 4.13 5.43 5.68 8.45 1.73 3.35 3.36 6.74 5.04 10.11 3.46 6.94 7.06 13.82 10.49 20.78.86 1.75 3.47.22 2.62-1.53ZM77.42 43.44c-2.86 2.83-5.41 5.9-7.94 9.02h2.45c-2.9-2.93-5.45-5.92-7.39-9.59-.38-.72-1.37-1.11-2.14-.87-4.75 1.47-9.35 3.41-13.82 5.58 1.01.58 2.01 1.16 3.02 1.73.09-4.73 1.15-9.4 3.22-13.66.52-1.07.19-2.85-1.25-3.06-4.49-.68-9-1.17-13.53-1.44l2.05 2.69c1.36-4.71 5.01-8.47 8.88-11.31 4.05-2.97 8.62-5.14 13.48-6.39 2.33-.6 4.7-.98 7.11-1.11q1.845-.105 3.69-.03c1.2.05 2.3.05 3.18.95 1.7 1.73 3.03 3.99 4.19 6.1 1.17 2.14 2.14 4.37 2.89 6.68.87 2.7 1.5 5.49 1.77 8.31.13 1.37.2 2.75.19 4.13 0 .69-.02 1.38-.06 2.06-.02.34-.04.69-.07 1.03-.08.96-.24.4.12.25l1.08-.29c-.71.05-1.49-.28-2.21-.42-.87-.17-1.75-.29-2.63-.38a17.8 17.8 0 0 0-5.15.21c-2.19.4-1.6 3.76.51 3.79 1.81.02 3.66.02 5.46.33s3.74 1.3 5.45.3c1.43-.84 1.57-2.52 1.69-4 .13-1.72.16-3.44.07-5.16-.33-6.65-2.17-13.2-5.37-19.03-1.45-2.63-3.2-5.71-5.57-7.62-2.64-2.12-6.85-1.75-10.03-1.5-6.51.5-12.92 2.45-18.55 5.78-6.16 3.64-12.19 9.09-14.2 16.19-.39 1.38.69 2.62 2.05 2.69 4.16.22 8.3.61 12.42 1.21l-1.25-3.06c-2.36 4.95-3.64 10.27-3.63 15.76 0 1.59 1.69 2.41 3.02 1.73 4.14-2.11 8.43-3.84 12.81-5.39-.71-.29-1.43-.58-2.14-.87 2.16 3.71 4.87 7.39 8.22 10.12.89.72 2.07.66 2.72-.35 2.11-3.25 4.69-6.18 7.39-8.95 1.38-1.41-.76-3.56-2.17-2.17ZM65.91 75.9a467 467 0 0 0-1.3-7.31c-.35-1.86-.42-4.48-2.64-5.08-1.98-.53-4.43 1.05-6.19 1.82-1.9.84-3.92 1.67-6.03 1.68-3.78.02-5.33-3.18-6.76-6.16-.75-1.57-1.47-3.48-2.81-4.65-1.93-1.68-3.97-.38-5.37 1.2-1.55 1.74-2.9 3.66-3.96 5.73a29 29 0 0 0-1.39 3.17c-.27.71-.46 2.42-1 2.85l.94-.55c-.37.13-.86-.09-1.24-.18l-2.1-.48c-1.32-.3-2.64-.61-3.97-.9-1.25-.28-2.21.38-2.67 1.52-3.45 8.49-3.11 18.24.84 26.5 1.74 3.65 4.23 6.99 7.19 9.75 1.5 1.4 3.15 2.67 4.88 3.77 1.92 1.21 4.1 2.38 6.38 1.49 1.13-.44 2-1.26 2.94-2.01.93-.74 1.9-1.43 2.9-2.08 2.14-1.39 4.42-2.61 6.79-3.56.98-.4 1.48-1.04 1.59-2.09.52-4.98.14-9.99-1.1-14.84l-1.54 2.71c5.5-2.12 10.74-4.78 15.57-8.18 2.22-1.56.18-5.21-2.16-3.7-4.61 2.98-9.46 5.6-14.58 7.62-1.12.44-1.87 1.46-1.54 2.71a37.7 37.7 0 0 1 1.02 13.66l1.59-2.09c-3.82 1.54-7.39 3.5-10.66 6.01-.67.52-1.3 1.15-2.03 1.59-.76.47-1.47-.08-2.17-.5-1.46-.86-2.83-1.84-4.11-2.95-5.58-4.87-9.23-11.78-9.78-19.2-.34-4.63.41-9.18 2.15-13.47l-2.67 1.52c2.33.52 4.67 1.07 7.02 1.51 1.25.23 2.48.29 3.51-.59.79-.68 1.12-1.57 1.39-2.55a23.4 23.4 0 0 1 2.36-5.61c.5-.86 1.05-1.7 1.66-2.49.34-.44.7-.86 1.07-1.27.19-.21.38-.41.57-.61.26-.27.3-.31.13-.1h-1.12c-.08-.01-.01-.16.13.15.13.26.3.5.44.75.29.51.55 1.04.81 1.57.52 1.06 1.02 2.13 1.59 3.16 1.13 2.02 2.65 3.95 4.78 4.97 2.6 1.25 5.62 1.09 8.33.25 1.42-.44 2.79-1.07 4.14-1.7 1.27-.59 2.62-1.4 4.02-1.62h-1q-.3-.45-.18-.09l.15.63c.09.4.18.8.28 1.2.2.88.4 1.76.61 2.64.41 1.76.85 3.51 1.28 5.27.48 1.97 3.33 1.11 3-.83Z"/><path d="m37.47 80.59 5.69 3.4c.92.55 1.82 1.11 2.69 1.74s1.86 1.4 2.87 1.88c.84.4 1.97.26 2.45-.64s.18-1.87-.64-2.45c-.91-.65-2.03-1.11-3.05-1.58s-1.91-.96-2.84-1.49c-1.92-1.1-3.84-2.19-5.76-3.29-1.57-.89-2.96 1.49-1.41 2.42Z"/><path d="M34.02 88.59c.59-1.65 1.23-3.19 1.99-4.76.37-.77.75-1.55 1.18-2.3.09-.16.19-.31.29-.46q.165-.225 0 0c.06-.07.12-.14.18-.2s.13-.12.19-.18c-.17.12-.17.14-.02.04.16-.07.32-.15.46-.24.6-.39 1-1.16.76-1.88-.21-.66-.86-1.28-1.6-1.22-1.24.1-2.13.96-2.66 2.04-.46.92-.86 1.87-1.25 2.81q-1.17 2.775-2.01 5.67c-.19.67.24 1.4.9 1.59.71.2 1.35-.24 1.59-.9Zm33.13-64.3c.79 1.89 1.59 3.78 2.38 5.67.33.79.95 1.79.96 2.66.01.72-.89 1.19-1.39 1.62-2.9 2.48-5.54 5.26-7.89 8.28-.6.77-.75 1.8 0 2.55.64.64 1.93.76 2.55 0 1.38-1.69 2.78-3.36 4.27-4.96.74-.8 1.49-1.59 2.24-2.39s1.55-1.49 2.19-2.33c1.37-1.83.89-3.71.02-5.64-.98-2.16-1.96-4.32-2.95-6.48-.6-1.33-2.96-.36-2.38 1.01Z"/><path d="M78.8 34.03c-.94-.32-1.88-.65-2.82-.97s-1.86-.72-2.79-1.06c-.39-.15-.97-.03-1.32.17s-.69.61-.79 1.02c-.2.89.27 1.87 1.19 2.1.96.25 1.93.44 2.89.71s1.91.54 2.86.81c.73.21 1.61-.25 1.78-1.01.18-.8-.24-1.51-1.01-1.78Z"/><path d="M55.89 47.27c2.43 2.83 4.57 5.91 6.36 9.18 1.73-.56 3.46-1.11 5.19-1.67.43-.14.89-.28 1.33-.17.43.1.78.42 1.1.73 1.43 1.36 2.86 2.71 4.28 4.07.4.38.89.8 1.44.73.35-.04.64-.27.91-.49a60 60 0 0 0 10.53-10.96c.17-.23.36-.47.63-.54.29-.08.58.06.85.19 1.49.71 3.04 1.3 4.62 1.78.52.16 1.06.3 1.59.2 1.18-.22 1.79-1.51 2.21-2.63 1.19-3.22 2.28-6.49 2.71-9.89s.16-6.96-1.29-10.06c-.14-.31-.31-.62-.58-.83-.36-.28-.84-.34-1.3-.38l-7.15-.66c1.62 5.09 1.65 10.54 1.66 15.88 0 1.42-.06 3-1.06 3.99-.93.92-2.37 1.05-3.68 1.05-2.39 0-4.79-.23-7.13-.7-.29-.06-.59-.12-.87-.02-.29.1-.51.35-.7.58-1.75 2.1-3.51 4.2-5.26 6.3-.29.35-.6.71-1.03.85-.73.24-1.49-.23-2.09-.71a22.6 22.6 0 0 1-5.97-7.28c-.19-.37-.41-.78-.79-.94-.27-.11-.57-.08-.85-.03-1.25.21-2.45.75-3.45 1.54"/><path d="M54.62 48.01c2.18 3.02 4.3 6.07 6.05 9.37.37.7 1.32 1.07 2.07.84 1.5-.45 3-.94 4.49-1.41.25-.08.88-.43 1.15-.35-.29-.08.3.34.34.38.53.51 1.07 1.02 1.6 1.53 1.84 1.77 4.22 4.99 7.03 3.05 2.24-1.55 4.28-3.57 6.17-5.53.96-.99 1.88-2.02 2.76-3.08.47-.56.92-1.12 1.37-1.69.28-.36.64-1.09 1.03-1.28l-.99.27c.46.02 1.14.49 1.57.67s.83.35 1.25.51c.94.36 1.92.76 2.91.94 1.9.35 3.49-.43 4.55-2.02s1.53-3.56 2.1-5.31c.65-2 1.18-4.04 1.49-6.12.59-3.96.38-8.01-1.25-11.7-.87-1.97-2.27-2.45-4.29-2.68-2.22-.25-4.45-.45-6.68-.67-1.36-.13-2.41 1.46-2.04 2.68 1.2 3.94 1.46 8.01 1.52 12.1.01 1 .02 1.99.02 2.99 0 .73.1 1.63-.21 2.32-.53 1.18-2.77.8-3.8.76-.96-.04-1.91-.11-2.86-.23-1.08-.13-2.19-.49-3.27-.53-2.21-.08-3.49 2.15-4.75 3.62-.68.79-1.35 1.6-2.01 2.41-.31.37-.62.74-.93 1.12-.07.09-.45.46-.53.63l-.24.24.71-.21c0-.05-.78-.54-.86-.61-.37-.3-.73-.63-1.08-.96-.68-.64-1.34-1.33-1.93-2.06-.63-.79-1.17-1.65-1.67-2.53s-.9-1.8-1.81-2.34c-1.98-1.17-4.9.19-6.55 1.42-.91.68-1.37 1.82-.75 2.88.52.89 1.96 1.44 2.88.75.11-.08 2.53-1.46 2.53-1.25 0 .15-.6-.99-.3-.07.06.18.2.38.29.55.27.48.55.95.85 1.41 1.1 1.7 2.4 3.32 3.86 4.72 1.44 1.39 3.3 3.06 5.47 2.44 1-.29 1.7-1.04 2.34-1.8.78-.92 1.56-1.85 2.33-2.77.72-.87 1.43-1.75 2.14-2.62.18-.22.44-.43.56-.68.21-.43-.12.25-.22.17.32.28 1.44.23 1.89.29 2.16.3 4.44.55 6.62.32 2-.2 3.92-1.02 4.87-2.9.87-1.73.77-3.73.76-5.62-.03-5.07-.25-10.2-1.78-15.07-.68.89-1.36 1.78-2.04 2.68 1.19.11 2.38.21 3.58.32.64.06 1.27.11 1.91.16.53.04 1.34-.08 1.81.14-.11-.05-.27-.3-.1.02.11.21.2.43.29.65.18.46.33.94.46 1.42.31 1.14.47 2.29.52 3.47.09 2.3-.24 4.55-.8 6.77s-1.19 4.62-2.18 6.68c-.35.74-.39.81-1.14.6-1.2-.33-2.4-.77-3.54-1.28-1.11-.5-2.24-1.08-3.45-.47-.93.47-1.46 1.43-2.09 2.23A60 60 0 0 1 80 53.9c-.72.72-1.45 1.43-2.2 2.11-.43.39-.86.78-1.3 1.16-.22.19-.44.38-.66.56l-.33.28q-.675.375-.03.27c.37-.32.31.22.06-.23-.18-.32-.81-.76-1.08-1.01l-1.44-1.35c-.92-.86-1.85-1.98-2.97-2.59-1.33-.72-2.7-.25-4.03.19-1.41.46-2.83.91-4.24 1.39l2.07.84c-1.94-3.35-4.16-6.55-6.91-9.29-1.14-1.14-3.31.39-2.31 1.78ZM43.9 65.46c1.8-1.98 4.28-3.17 6.7-4.32.42-.2.87-.41 1.34-.35.59.07 1.04.53 1.51.89 1.53 1.17 3.74 1.58 4.68 3.25.08.14.14.31.07.45-.05.1-.17.16-.27.21-2.82 1.29-5.81 2.62-8.9 2.35-.6-.05-1.2-.17-1.73-.44-.95-.49-1.62-1.45-2.63-1.8"/><path d="M44.63 66.72c.6-.35 1.1-.85 1.66-1.25s1.18-.77 1.8-1.11 1.27-.64 1.92-.95c.5-.23 1.19-.72 1.73-.76-.19.01-.11-.06.04.1.11.11.46.39.66.54.51.39 1.05.71 1.62 1 .52.27 1.05.52 1.55.83.13.08.27.17.39.26-.16-.13-.04-.04.04.05.09.09.18.17.26.26-.09-.13-.1-.14-.02-.03.12.19.1.09-.05-.3l.57-1.39c.2-.15.16-.14-.11 0l-.48.21c-.16.07-.32.14-.49.21q-.84.36-1.71.66c-1.03.37-2.21.73-3.21.84s-2.04.16-2.87-.38c-.48-.3.16.16-.27-.21-.29-.25-.6-.49-.9-.73-.49-.37-.99-.62-1.57-.84-1.01-.39-2.2.43-2.47 1.4-.31 1.14.39 2.08 1.4 2.47-.24-.09.06.05.09.07.12.08.24.15.35.24-.16-.12.28.24.34.3.58.48 1.14.91 1.84 1.2 1.3.55 2.8.63 4.19.48s2.81-.47 4.15-.97c1.28-.47 2.63-1 3.82-1.67.87-.49 1.37-1.38 1.22-2.39-.11-.77-.61-1.46-1.14-2.02-.76-.79-1.75-1.31-2.72-1.79s-1.74-1.05-2.6-1.59c-1.42-.9-2.83-.54-4.23.17-1.24.62-2.46 1.26-3.61 2.04s-2.58 1.74-3.21 3.03.66 2.76 1.99 1.99Zm18.7 3.43c1.87-.08 3.76.06 5.6.4.92.17 1.86.41 2.57 1.01.68.57 1.07 1.42 1.28 2.28.75 3.09-.72 6.4-3.03 8.59s-5.33 3.45-8.34 4.5c-2.9 1.01-5.86 1.85-8.86 2.53-.3.07-.65.18-.74.47-.08.26.08.53.24.75a29.4 29.4 0 0 1 4.63 10.92c.07.35.13.71.03 1.05-.12.4-.45.71-.78.97-4.11 3.24-9.84 3.31-15.04 2.72 3.52-1.02 6.86-2.65 9.83-4.81.55-.4 1.1-.84 1.38-1.46.25-.57.24-1.21.22-1.83-.08-2.57-.15-5.13-.23-7.7-.04-1.31-.04-2.75.77-3.78.62-.79 1.6-1.19 2.53-1.58 3.31-1.42 6.44-3.25 9.29-5.44.52-.4 1.05-.83 1.3-1.43.21-.49.21-1.05.19-1.59-.06-1.93-.32-3.85-.76-5.73"/><path d="M63.33 71.67c1.17.1 2.35.17 3.51.34.95.14 2.55.22 3.32.89 1.29 1.13.87 3.59.33 4.96-1.57 3.97-5.85 5.81-9.6 7.11-2.37.82-4.77 1.54-7.21 2.13-1.02.25-2.33.36-3.12 1.14-.97.97-.91 2.32-.25 3.44 1.16 1.95 2.34 3.79 3.14 5.93q.525 1.395.9 2.85c.11.44.46 1.22.38 1.66 0-.05.23-.37.01-.17-.19.18-.41.31-.62.45-3.87 2.56-8.8 2.31-13.22 1.88l.54 3.99c2.13-.66 4.19-1.5 6.15-2.56 1.84-.99 3.96-2.13 5.39-3.68 1.6-1.72 1.21-4.08 1.15-6.23-.03-1.2-.07-2.41-.1-3.61-.03-1.07-.18-2.22-.02-3.28.27-1.87 2.94-2.35 4.39-3.06 2.02-.99 3.96-2.14 5.8-3.43 1.83-1.28 3.69-2.52 3.89-4.93.19-2.31-.31-4.82-.8-7.06-.54-2.43-4.29-1.4-3.74 1.03.25 1.09.45 2.18.57 3.29.08.77.4 2.19.02 2.88-.35.65-1.47 1.19-2.06 1.6-.8.56-1.62 1.09-2.45 1.59a47 47 0 0 1-5.37 2.75c-1.71.75-3.18 1.8-3.75 3.67-.55 1.8-.28 3.82-.23 5.67.04 1.12.07 2.24.11 3.37.03.8.32 2.16.03 2.91-.24.64-1.18 1.07-1.73 1.43-.86.56-1.74 1.08-2.66 1.55-1.81.93-3.71 1.63-5.67 2.19-2.35.67-1.62 3.72.54 3.99 5.44.66 11.52.47 16.07-2.99 1.14-.87 1.92-1.93 1.82-3.43s-.6-3-1.07-4.39c-1-3-2.56-5.55-4.12-8.26l.28 1.02-.03-.39-.28 1.02.17-.24-.73.73c.77-.42 2.05-.49 2.92-.72 1.02-.27 2.03-.56 3.03-.86 1.93-.59 3.86-1.23 5.73-2 3.36-1.4 6.54-3.33 8.53-6.46 1.78-2.79 2.62-6.99.72-9.95-2.15-3.35-7.54-3.25-11-2.73-1.8.27-1.18 2.84.4 2.98Z"/></svg>