<?xml version="1.0" encoding="UTF-8"?><svg xmlns="http://www.w3.org/2000/svg" viewBox="0 0 180 180"><path d="M36.61 161.21c-.84-18.59-2.22-37.13-3.84-55.67-.91.7-1.83 1.39-2.74 2.09 9.01 1.97 17.77 5.07 26.54 7.89s17.66 5.57 26.42 8.56c4.28 1.46 8.53 3.03 12.64 4.92 2.08.96 4.03 2.07 6.19.63 1.69-1.13 3.09-2.85 4.55-4.26 5.72-5.52 11.57-10.9 17.71-15.96 7.2-5.93 14.8-11.34 22.76-16.22l-3.24-1.32c2.9 12 5.39 24.09 7.47 36.26.93 5.42 2.11 10.93 2.34 16.44.17 4.21-.42 8.97-4.35 11.36-2.31 1.41-5.08 2.02-7.7 2.59-2.9.63-5.84 1.05-8.79 1.42-6.19.78-12.38 1.53-18.57 2.26-12.44 1.48-24.89 2.85-37.38 3.86-7.06.57-14.12 1.03-21.2 1.33-3.45.15-6.91.26-10.37.32-1.71.03-3.52.21-5.23.06-.4-.04-.82-.27-1.21-.26-.63 0 .07-.39-.16.44.72-2.63-3.37-3.76-4.08-1.13-.74 2.72 1.49 4.66 3.96 5.2 1.31.28 2.67.19 4 .18 1.73-.02 3.46-.05 5.19-.1 6.75-.17 13.49-.49 20.23-.94 13.32-.88 26.6-2.24 39.86-3.77 6.71-.77 13.42-1.59 20.13-2.41 6.42-.79 13.03-1.34 19.23-3.32 2.66-.85 5.3-2.09 7.19-4.21 1.68-1.88 2.77-4.22 3.26-6.68 1.08-5.35.03-10.82-.8-16.13-2.32-14.76-5.27-29.41-8.78-43.93-.33-1.37-2.05-2.04-3.24-1.32-13.72 8.41-26.19 18.51-37.87 29.54-1.42 1.34-2.84 2.7-4.24 4.06l-1.98 1.92c-.32.32-.63.67-.99.95-.14.1-.04.15.09.14-.24.02-.7-.31-.91-.41-4.01-1.89-8.14-3.51-12.32-4.99-8.53-3.01-17.21-5.65-25.83-8.42-9.71-3.13-19.39-6.59-29.38-8.73-1.23-.26-2.91.6-2.74 2.09 2.1 18.5 3.62 37.09 4.85 55.67.14 2.11 3.41 2.14 3.31 0Z"/><path d="M48.22 106.47c-3.11-12.29-6.14-24.6-9.28-36.89l-2.99 2.3c5.73 2.55 11.36 5.3 16.86 8.31.86.47 1.78.29 2.49-.32 1.93-1.67 3.01-3.99 3.71-6.41.34-1.17.59-2.37.86-3.55.17-.75.32-2.6.9-3.07l-.91.53c.26-.09 1.53.73 1.92.96.75.46 1.46.97 2.14 1.53 1.33 1.12 2.56 2.36 3.77 3.6 1.17 1.2 2.52 3.09 4.18 3.6 2.22.68 3.45-1.13 4.55-2.72a58 58 0 0 0 4.57-7.85c.2-.41.39-.82.58-1.23.1-.23.21-.47.32-.7.33-.46.11-.47-.64-.03-.01.14 1.74 1.25 1.97 1.44.79.65 1.56 1.33 2.3 2.04a38 38 0 0 1 4.04 4.5c.75 1 2.26 1.5 3.25.42 3.3-3.63 6.39-7.45 9.27-11.42l-3.25.42c3.07 2.42 5.63 5.32 7.58 8.71.69 1.2 2.28 1.31 3.25.42 3.49-3.19 6.98-6.39 10.47-9.58l-3.26-.42c5.57 12.25 9.92 25.03 13.04 38.12.62 2.62 4.67 1.51 4.04-1.11-3.21-13.44-7.75-26.53-13.49-39.1-.58-1.28-2.37-1.24-3.26-.42-3.49 3.2-6.98 6.39-10.47 9.59l3.25.42c-2.12-3.67-4.9-6.92-8.23-9.54-1.12-.88-2.4-.75-3.25.42-2.68 3.69-5.56 7.21-8.62 10.59l3.25.42c-1.43-1.89-2.97-3.7-4.68-5.34-1.55-1.48-3.33-3.25-5.28-4.2-2.36-1.14-4.17.14-5.15 2.29a60 60 0 0 1-3.41 6.42c-.55.9-1.13 1.79-1.74 2.66-.11.15-.46.53-.52.74l-.27.37 1.09-.26c.03-.06-1.18-1.16-1.29-1.27-1.46-1.48-2.88-3-4.44-4.38-2.52-2.23-8.76-7.12-10.69-1.79-1.35 3.73-1.13 8.49-4.35 11.27.83-.11 1.66-.21 2.49-.32-5.5-3-11.13-5.78-16.89-8.27-1.56-.67-3.48.44-2.99 2.3 3.28 12.25 6.66 24.46 9.96 36.7.56 2.09 3.77 1.21 3.24-.89ZM35.8 48.56c2.49 1.97 4.98 3.95 7.46 5.92.35.28.73.57 1.18.57.88 0 1.34-1.01 1.62-1.84 1.32-3.94 3.46-7.6 6.24-10.68.52-.58 1.11-1.16 1.87-1.33.77-.17 1.55.12 2.28.42 3.89 1.6 7.61 3.63 11.07 6.03 1.63-2.78 3.27-5.57 4.9-8.35.23-.4.5-.82.94-.97.42-.14.87 0 1.28.17 3.58 1.43 6.64 3.88 9.92 5.91.6.37 1.33.74 1.99.49.52-.2.83-.73 1.09-1.21 1.71-3.15 3.43-6.29 5.14-9.44 4.93 2.07 9.87 4.14 14.8 6.21.32.14.68.27 1.01.15.27-.1.44-.35.6-.58 1.97-2.87 3.94-5.75 5.91-8.62-5.95-7.13-11.9-14.26-17.86-21.39-24.28 7.68-48.59 15.24-72.95 22.67C28 37.79 31.71 42.9 35.42 48"/><path d="m34.63 49.73 4.8 3.9c1.3 1.06 2.83 2.84 4.54 3.14 1.69.3 2.94-.91 3.57-2.35.71-1.6 1.25-3.24 2.09-4.79s1.79-3.07 2.92-4.42c.48-.58 1.13-1.56 1.81-1.91.57-.29 1.35.19 1.9.42 3.59 1.54 7.01 3.48 10.23 5.7.91.63 2.27.17 2.8-.73l2.7-4.59c.41-.7.82-1.39 1.23-2.09.3-.51.8-1.7 1.18-1.91l-1.03.28c.94-.12 2.14.74 2.94 1.18 1.06.59 2.09 1.24 3.1 1.91.96.63 1.9 1.28 2.86 1.9 1.06.69 2.18 1.52 3.48 1.62 2.74.22 3.75-2.41 4.84-4.42 1.32-2.43 2.65-4.86 3.97-7.3-.77.31-1.54.63-2.31.94 4.86 2.04 9.69 4.14 14.57 6.13 2.81 1.14 4.06-1.12 5.45-3.13 1.56-2.25 3.13-4.5 4.68-6.76.57-.82.24-1.88-.33-2.57-5.94-7.14-11.96-14.22-17.83-21.42-.47-.57-1.43-.76-2.1-.56-19.01 5.66-37.92 11.67-56.88 17.5a7595 7595 0 0 1-16.13 4.94c-1.34.41-2.4 2.24-1.44 3.53 3.88 5.21 7.87 10.32 11.88 15.43 1.32 1.68 4.17-.52 2.97-2.29-3.52-5.22-7.04-10.43-10.69-15.57l-1.44 3.53c18.98-5.8 37.91-11.72 56.83-17.73 5.36-1.7 10.72-3.39 16.05-5.18l-2.1-.56c6.03 7.06 11.93 14.24 17.89 21.36l-.33-2.57c-1.03 1.51-2.05 3.02-3.08 4.53l-1.4 2.06c-.28.41-.56.82-.84 1.24l-.28.41c-.38.52-.38.55.02.09h1.1c-1.23-.25-2.44-.93-3.59-1.41-1.35-.56-2.69-1.12-4.04-1.69-2.62-1.09-5.23-2.19-7.85-3.28-.8-.33-1.92.22-2.31.94-1.67 3.08-3.34 6.16-5.03 9.23-.11.21-.2.47-.36.64q.6-.18.15-.33c-.19-.11-.37-.22-.55-.34-.61-.38-1.2-.78-1.8-1.17-1.31-.87-2.61-1.76-3.96-2.58-2.38-1.44-6.24-3.95-8.43-.97-.99 1.35-1.75 2.9-2.6 4.34l-2.7 4.59 2.8-.73c-3.1-2.14-6.38-3.98-9.84-5.48-1.71-.74-3.56-1.68-5.45-1.02-1.7.59-2.85 2.28-3.89 3.65-2.17 2.87-3.92 6.05-5.04 9.48-.05.15-.31.62-.28.76-.19.28-.02.28.52 0-.15-.12-.3-.23-.46-.35-.76-.58-1.51-1.17-2.26-1.75-1.63-1.27-3.27-2.53-4.9-3.8-1.65-1.28-4.01.99-2.34 2.34Zm29.44 38.81c.89 2.67 3.5 4.57 6.37 4.23 2.96-.35 4.91-2.82 5.25-5.65l-2.95.4c.99 4.2 5.93 6.25 9.63 4.04 1.68-1.01 3.41-3.2 2.33-5.23-.89-1.67-3.52-1.82-4.43-.11-.42.8-.18 1.71.58 2.2 1.98 1.3 4.29.59 6.43.13 2.48-.54 4.95-1.09 7.43-1.63 5.02-1.1 10.11-2.07 15.07-3.43 2-.55 1.13-3.4-.84-3.06-4.59.79-9.13 1.94-13.68 2.96l-6.7 1.5-3.35.75c-.89.2-1.89.5-2.73 0l.58 2.2c-.73-.44-1.2-.38-1.42.17l-.21.24c-.24.25-.53.45-.83.61-.65.34-1.4.5-2.13.39-1.34-.19-2.4-1.28-2.81-2.53-.54-1.62-2.84-1.31-2.95.4-.22 3.31-4.87 3.7-5.94.68-.59-1.67-3.26-.97-2.68.74Zm13.24 13.2c5.32-1.05 10.65-2.1 15.97-3.14l7.75-1.5c1.37-.27 2.74-.53 4.12-.8s2.83-.38 4.09-.9c1.67-.69 1.64-3.4-.46-3.38-1.37.01-2.76.44-4.1.73-1.28.28-2.57.55-3.85.83-2.73.58-5.46 1.17-8.19 1.75-5.38 1.15-10.77 2.28-16.15 3.42-1.95.41-1.12 3.36.82 2.98Zm12.56 10.03c2.87-.49 5.75-.98 8.62-1.46 1.44-.24 2.87-.49 4.31-.73s3.02-.34 4.36-.92c.67-.29.95-1.24.77-1.9-.2-.74-.88-1.19-1.62-1.23-1.42-.08-3.03.46-4.43.73l-4.29.81c-2.86.54-5.72 1.07-8.58 1.61-.85.16-1.34 1.19-1.12 1.98.25.91 1.12 1.27 1.98 1.12Zm-59.4-6.94c2.9-5.02 6.5-9.63 10.66-13.67 1.41 5.02 2.82 10.04 4.23 15.05.1.36.19.78-.03 1.07-4.25-.26-8.68-.56-12.37-2.68"/><path d="M31.68 105.54c1.66-2.26 3.23-4.59 5-6.76 1.8-2.21 3.71-4.32 5.77-6.3l-3.13-.83c.72 2.62 1.46 5.23 2.2 7.84l1.08 3.84.52 1.84.26.92.17.61c.07.41.13.29.16-.37l1.61-.93c-2.02-.12-4.04-.24-6.03-.6-1-.18-1.98-.42-2.95-.74-1-.33-1.91-.88-2.92-1.18-1.65-.5-3.06 1.77-1.73 2.96 1.72 1.53 4.39 2.16 6.6 2.56 2.32.42 4.68.59 7.03.73.62.04 1.33-.38 1.61-.93.75-1.45.11-2.9-.29-4.36s-.83-2.97-1.25-4.46c-.82-2.92-1.63-5.84-2.47-8.75-.39-1.35-2.12-1.82-3.13-.83-4.16 4.12-8.15 8.9-10.55 14.29-.74 1.66 1.35 2.89 2.43 1.42Zm94.85-25.53c6.5 2.68 12.79 5.86 18.8 9.52.24.15.5.33.52.61.02.31-.27.54-.54.71L137 96.19c-.61.39-1.24.79-1.95.95s-1.53.03-2.02-.5c-.32-.35-.46-.82-.6-1.28l-3.51-11.99"/><path d="M126.15 81.38c3.22 1.33 6.36 3.01 9.45 4.62q2.25 1.17 4.47 2.43c.74.42 1.47.85 2.2 1.28.68.41 1.73.82 2.24 1.43l-.45-.78.07.26v-.95l-.06.21.46-.8c-.54.69-1.65 1.14-2.39 1.61-1.02.64-2.03 1.29-3.05 1.93-.96.61-1.92 1.22-2.88 1.84-.47.3-1.19.91-1.8.88.15 0 .04.2-.05-.12l-.15-.54c-.16-.54-.32-1.09-.48-1.64-.32-1.09-.64-2.18-.95-3.27-.67-2.3-1.31-4.61-2.02-6.9-.72-2.33-4.33-1.36-3.68 1.01 1.04 3.77 2.2 7.51 3.3 11.26.54 1.82 1.25 3.53 3.34 3.89 1.92.33 3.49-.72 5.03-1.72 1.65-1.06 3.29-2.14 4.93-3.22 1.38-.9 3.9-1.91 3.93-3.84s-2.5-2.88-3.93-3.69c-1.63-.93-3.29-1.82-4.96-2.68-1.89-.97-3.8-1.9-5.74-2.76-2.01-.89-4.06-1.63-6.09-2.47-.71-.29-1.55.32-1.74.99-.23.81.29 1.45.99 1.74Zm10.38-42.18 3.79-2.65c1.26-.88 2.55-1.74 3.78-2.66.4-.3.71-.6.84-1.1.12-.44.07-1.02-.19-1.41-.52-.8-1.65-1.22-2.51-.66-1.29.84-2.53 1.77-3.79 2.66l-3.78 2.67c-.78.55-1.22 1.62-.66 2.5.5.78 1.66 1.24 2.5.66Zm.26 16.97c2.51-.86 5.11-1.49 7.73-1.89 1.21-.18 2.44-.29 3.67-.35 1.41-.07 2.85.04 4.24-.26 1.77-.38 1.62-2.97 0-3.44-1.36-.39-2.84-.29-4.24-.2-1.47.09-2.94.27-4.4.5-2.73.44-5.37 1.18-7.94 2.19-.89.35-1.52 1.19-1.24 2.19.24.89 1.28 1.56 2.19 1.24Zm5.5 13c1.38.3 2.74.65 4.08 1.08.67.22 1.34.45 2 .69s1.3.58 1.98.72c.84.17 1.67-.18 2.01-.99s.02-1.66-.7-2.13c-.66-.43-1.48-.67-2.22-.93a39 39 0 0 0-2.08-.67c-1.38-.41-2.76-.76-4.17-1.05-.87-.18-1.87.25-2.09 1.18-.19.85.26 1.89 1.18 2.09ZM44.25 169.53c10.37-2.41 19.66-7.78 28.34-13.78 4.62-3.19 9.24-6.42 13.65-9.89 4.32-3.39 8.3-7.18 12.08-11.15 4.29-4.5 8.57-9.18 12.16-14.26 1.19-1.68-1.38-3.52-2.79-2.15-3.85 3.78-7.21 8.05-10.88 11.99-3.62 3.89-7.39 7.65-11.46 11.07-4.19 3.51-8.68 6.68-13.12 9.86-4.17 2.99-8.42 5.88-12.85 8.46-5.04 2.94-10.3 5.37-15.95 6.85-1.93.51-1.11 3.43.82 2.98Zm75.01-32.63c3.98 1.16 7.7 2.96 11.34 4.91 1.77.95 3.53 1.94 5.3 2.9 1.83.99 4.3 2.59 6.36 1.59.83-.41 1.16-1.7.64-2.46-.7-1.03-1.65-1.23-2.73-1.7-.98-.42-1.92-.91-2.87-1.4-1.79-.93-3.58-1.87-5.4-2.74-3.77-1.81-7.65-3.43-11.68-4.57-2.24-.64-3.19 2.83-.96 3.48Z"/><path d="M125.99 147.26c1.9-2.52 3.8-5.04 5.71-7.56.92-1.22 1.84-2.44 2.77-3.65l1.48-1.95c.48-.63 1.08-1.26 1.4-2 .35-.82.31-1.74-.46-2.32s-1.66-.46-2.36.14c-.65.56-1.1 1.36-1.59 2.06l-1.4 1.99-2.72 3.86c-1.84 2.61-3.69 5.22-5.54 7.83-.49.7-.12 1.76.57 2.16.81.47 1.64.12 2.16-.57Z"/></svg>