<?xml version="1.0" encoding="UTF-8"?><svg xmlns="http://www.w3.org/2000/svg" viewBox="0 0 180 180"><path d="M32.07 54.17c-5.76 2.58-11.03 7.33-12.15 13.54-1.22 6.77 2.66 13.35 6.87 18.79 4.77 6.17 10.48 12.05 17.84 14.65s16.65 1.04 21.11-5.36c.55-.79 1.03-1.71.92-2.66-.1-.81-.61-1.51-1.1-2.16C56.93 79.56 48.11 68.31 39.1 57.2c-.93-1.15-1.92-2.33-3.27-2.93s-3.18-.38-3.98.86"/><path d="M31.25 52.76c-4.27 1.88-8.18 4.68-10.78 8.61-2.82 4.27-3.37 9.48-1.96 14.35 1.48 5.12 4.62 9.59 7.9 13.7 3.09 3.88 6.62 7.48 10.74 10.27 7.43 5.05 17.89 6.83 25.74 1.58 1.79-1.2 3.35-2.7 4.55-4.49.73-1.08 1.25-2.35 1.17-3.67-.1-1.47-.96-2.61-1.81-3.74-3.58-4.73-7.2-9.44-10.85-14.12-4.09-5.26-8.23-10.48-12.41-15.67-1.86-2.31-3.7-5.4-6.37-6.86-2.38-1.3-5.46-.96-6.95 1.45-1.1 1.77 1.52 3.88 2.93 2.26 1.21-1.39 2.9.26 3.75 1.21 1.67 1.88 3.19 3.9 4.77 5.86 3.26 4.05 6.49 8.13 9.7 12.22 3.15 4.03 6.28 8.07 9.38 12.14.74.97 1.48 1.94 2.21 2.91.53.7 1.83 1.89 1.69 2.81-.22 1.41-2.18 3-3.26 3.77-6.22 4.44-14.54 3.29-20.75-.47-3.6-2.18-6.65-5.13-9.4-8.29-2.94-3.38-5.78-6.99-7.73-11.05-2.03-4.23-2.66-9.1-.37-13.36 2.1-3.91 5.8-6.77 9.75-8.63 1.91-.9.24-3.63-1.64-2.81Z"/><path d="M39.57 62.62c3.44-2.39 6.91-4.72 10.38-7.07 1.28-.87 2.66-2.04 4.25-2.19 1.43-.13 2.69.57 3.36 1.81.27.5.56 1.22.47 1.8-.11.69-1.17 1.04-1.73 1.4-1.51.96-3 1.97-4.46 3.01-1.58 1.13-3.12 2.3-4.64 3.51-1.47 1.17-3.13 2.34-4.36 3.76-1.14 1.33.35 3.71 2 2.59 1.48-1.01 2.78-2.33 4.18-3.46s2.69-2.12 4.07-3.13c1.4-1.02 2.82-2 4.27-2.94s3.23-1.66 3.85-3.29c1.18-3.06-.59-6.69-3.45-8.07-1.47-.71-3.09-.94-4.69-.58-1.72.39-3.17 1.47-4.56 2.51-3.48 2.59-6.95 5.2-10.46 7.75-1.54 1.12-.09 3.7 1.51 2.59Zm14.32 19.45c3.44-2.39 6.91-4.72 10.38-7.07 1.28-.87 2.66-2.04 4.25-2.19 1.43-.13 2.69.57 3.36 1.81.27.5.56 1.22.47 1.8-.11.69-1.17 1.04-1.73 1.4-1.51.96-3 1.97-4.46 3.01-1.58 1.13-3.12 2.3-4.64 3.51-1.47 1.17-3.13 2.34-4.36 3.76-1.14 1.33.35 3.71 2 2.59 1.48-1.01 2.78-2.33 4.18-3.46s2.69-2.12 4.07-3.13c1.4-1.02 2.82-2 4.27-2.94s3.23-1.66 3.85-3.29c1.18-3.06-.59-6.69-3.45-8.07-1.47-.71-3.09-.94-4.69-.58-1.72.39-3.17 1.47-4.56 2.51-3.48 2.59-6.95 5.2-10.46 7.75-1.54 1.12-.09 3.7 1.51 2.59ZM30.3 87.84a27.9 27.9 0 0 0-9.38 14.12c-.58 2.04-.92 4.21-.38 6.26 1.07 4.05 5.15 6.44 7.62 9.82.7.96 1.3 2.07 1.33 3.26.06 2.31-1.94 4.12-3.93 5.28s-4.27 2.11-5.51 4.05c1.66-.08 3.3-.4 4.87-.94-.28 1.11-.4 2.26-.35 3.41a7 7 0 0 1 2.07-1.87c0 .94.02 1.87.03 2.81-.86-2.17.65-4.55 2.33-6.18s3.71-3.18 4.22-5.46c.5-2.21-.6-4.48-2.06-6.21s-3.28-3.14-4.65-4.94c-3.79-4.98-3.11-12.8 1.48-17.06 1.15-1.06 2.54-1.98 3.13-3.42s-.27-3.58-1.82-3.46"/><path d="M29.52 86.5c-5.77 4.41-10.54 11.38-11.07 18.81-.28 3.82 1.61 6.89 4.14 9.56 1.13 1.19 2.34 2.31 3.4 3.57.89 1.05 1.95 2.47 1.27 3.88-.76 1.6-2.63 2.44-4.08 3.28-1.86 1.08-3.57 2.25-4.78 4.08-.76 1.15.23 2.96 1.64 2.85 1.84-.15 3.6-.5 5.35-1.09l-2.22-2.22c-.29 1.28-.44 2.58-.38 3.89.09 1.87 2.28 2.28 3.32.9.39-.51.87-.93 1.4-1.28l-2.6-1.49c.03.93.02 1.87.02 2.81 1.14-.15 2.27-.31 3.41-.46-.63-1.93 1.01-3.63 2.32-4.83 1.42-1.31 2.95-2.6 3.82-4.36 2.12-4.29-.74-8.43-3.73-11.39-1.42-1.41-2.85-2.76-3.75-4.58-.72-1.47-1.03-3.14-1.03-4.77 0-3.55 1.55-6.51 4.2-8.8 1.57-1.36 3.15-3 3.06-5.24s-1.63-4.2-3.94-4.23c-2.49-.03-2.5 3.85 0 3.88.03 0-.17-.23-.06-.04s.17.47.14.69c-.11.64-.8 1.2-1.24 1.6-1.31 1.2-2.56 2.29-3.56 3.78-1.87 2.8-2.7 6.38-2.37 9.72.36 3.75 2.01 6.84 4.65 9.5 2.36 2.38 6.33 5.64 3.67 9.23-1.2 1.63-2.91 2.8-4.13 4.42-1.36 1.82-2.17 4.11-1.4 6.35.61 1.78 3.44 1.59 3.41-.46-.02-.94-.04-1.87-.04-2.81.01-1.3-1.48-2.17-2.6-1.49-.94.57-1.76 1.26-2.46 2.11l3.04 1.26c-.01-1.01.07-1.94.31-2.93.31-1.28-.86-2.67-2.22-2.22-1.44.47-2.88.73-4.38.79l1.64 2.85c.96-1.34 2.64-2.05 4.05-2.79s2.91-1.72 3.98-3c1.16-1.38 1.91-3.06 1.73-4.89-.18-1.92-1.25-3.51-2.46-4.96-1.99-2.38-4.77-4.22-6.2-7.03-1.61-3.18-.11-7.35 1.29-10.35 1.73-3.71 4.2-6.95 7.31-9.62 1.31-1.13-.47-3.5-1.87-2.43Zm71.89-73.91c-6.25.16-13.14-2.01-18.7 1.97-5.46 3.91-5.23 11.6-5.45 17.61q-.21 5.535.03 11.07c.14 3.22.24 6.53.94 9.69.63 2.82 1.94 5.54 4.19 7.42 2.21 1.85 4.96 2.84 7.78 3.29 5.68.91 11.62.57 17.36.64 2.96.04 5.92.07 8.88.11 3.28.04 6.73.11 9.86-1.03 2.56-.93 4.75-2.52 6.13-4.89 1.26-2.18 1.74-4.67 2-7.15.28-2.6.26-5.21.41-7.82.21-3.55.41-7.1.55-10.65.26-6.58.85-14.34-5.16-18.69s-14.15-2.25-21.04-3.06c-1.86-.22-2.28 2.92-.44 3.28 5.65 1.13 11.76-.4 17.17 1.96 2.23.97 3.97 2.59 4.75 4.93s.81 4.99.75 7.51c-.15 5.9-.61 11.78-.82 17.67-.13 3.78.03 8.91-3.16 11.6-1.95 1.64-4.7 2.02-7.16 2.12-2.69.12-5.4 0-8.09-.04-5.41-.06-10.83-.06-16.24-.2-4.36-.11-9.91-.47-12.41-4.65-1.29-2.17-1.61-4.8-1.81-7.26-.26-3.24-.39-6.49-.41-9.73-.03-3.61.08-7.22.33-10.82.2-2.85.35-6.15 2.21-8.5 1.6-2.01 4.37-2.84 6.83-3.06 3.57-.32 7.16.14 10.73-.16 2.02-.17 2.09-3.26 0-3.2Z"/><path d="M95.59 12.8c-6.73-3.09-7.04 8.4-7.16 12.3-.17 5.62-.1 11.25-.08 16.87s-.48 11.26.73 16.64c.5 2.24 1.99 4.03 4.3 4.49 1.96.39 4.07-.16 5.96.58 1.81.71 3-2.22 1.32-3.13-1.48-.8-3.04-.82-4.68-.83-1.31 0-2.74.08-3.33-1.31-.85-2-.77-4.65-.87-6.78-.11-2.41-.09-4.83-.1-7.25-.01-4.88-.13-9.76-.09-14.64.03-3.28-.04-6.63.37-9.89.15-1.19.36-2.47.88-3.56.47-.97.68-1.24 1.64-.86 1.51.58 2.59-1.95 1.11-2.63"/><path d="M100.6 35.86h.06c-.12 0-.24.02-.35.04h.16l-.37-.05c.24.04.47.06.71.09l-.4-.05c.17.03.34.09.5.15l-.38-.16c.13.06.24.13.36.21l-.34-.26c.11.09.21.19.3.31l-.27-.35c.18.23.32.5.44.77l-.18-.43c.17.4.33.82.39 1.26l-.07-.49c.02.18.03.36.01.55l.07-.49a1.4 1.4 0 0 1-.11.4l.19-.44c-.04.09-.09.17-.15.26l.29-.37c-.07.08-.14.16-.23.23l.37-.29c-.12.09-.25.16-.39.22l.44-.19c-.14.06-.29.09-.44.11l.49-.07c-.17.02-.34.01-.51 0l.5.07c-.19-.03-.36-.08-.54-.15l.45.19a2.4 2.4 0 0 1-.48-.29l.38.29c-.12-.1-.23-.2-.32-.32l.29.38c-.09-.12-.17-.25-.23-.39l.19.45q-.09-.21-.12-.45l.07.5q-.03-.255 0-.51l-.07.5c.03-.17.07-.34.14-.5l-.19.45c.08-.18.17-.34.29-.49l-.29.38c.11-.14.23-.26.37-.36l-.38.29c.22-.16.45-.32.66-.5.19-.17.32-.38.45-.59.46-.73.17-1.82-.59-2.23-.56-.31-1.13-.38-1.75-.21-.48.13-.93.46-1.27.82a3.97 3.97 0 0 0-1.02 1.82c-.08.34-.14.71-.11 1.06.04.57.15.98.39 1.49.29.62.82 1.13 1.39 1.5s1.35.59 2.05.58c.89 0 1.72-.34 2.39-.92 1.37-1.19 1.17-3.28.35-4.72-.4-.7-.97-1.37-1.7-1.72-.23-.11-.48-.22-.73-.27-.44-.09-.7-.09-1.14-.02-.24.04-.47.12-.69.23-.33.18-.49.39-.71.68l.22-.28c-.11.13-.21.26-.31.4-.12.17-.18.46-.18.66 0 .29.1.56.28.79.34.44.84.57 1.37.47Zm18.77 0h.06c-.12 0-.24.02-.35.04h.16l-.37-.05c.24.04.47.06.71.09l-.4-.05c.17.03.34.09.5.15l-.38-.16c.13.06.24.13.36.21l-.34-.26c.11.09.21.19.3.31l-.27-.35c.18.23.32.5.44.77l-.18-.43c.17.4.33.82.39 1.26l-.07-.49c.02.18.03.36.01.55l.07-.49a1.4 1.4 0 0 1-.11.4l.19-.44c-.04.09-.09.17-.15.26l.29-.37c-.07.08-.14.16-.23.23l.37-.29c-.12.09-.25.16-.39.22l.44-.19c-.14.06-.29.09-.44.11l.49-.07c-.17.02-.34.01-.51 0l.5.07c-.19-.03-.36-.08-.54-.15l.45.19a2.4 2.4 0 0 1-.48-.29l.38.29c-.12-.1-.23-.2-.32-.32l.29.38c-.09-.12-.17-.25-.23-.39l.19.45q-.09-.21-.12-.45l.07.5q-.03-.255 0-.51l-.07.5c.03-.17.07-.34.14-.5l-.19.45c.08-.18.17-.34.29-.49l-.29.38c.11-.14.23-.26.37-.36l-.38.29c.22-.16.45-.32.66-.5.19-.17.32-.38.45-.59.46-.73.17-1.82-.59-2.23-.56-.31-1.13-.38-1.75-.21-.48.13-.93.46-1.27.82a3.97 3.97 0 0 0-1.02 1.82c-.08.34-.14.71-.11 1.06.04.57.15.98.39 1.49.29.62.82 1.13 1.39 1.5s1.35.59 2.05.58c.89 0 1.72-.34 2.39-.92 1.37-1.19 1.17-3.28.35-4.72-.4-.7-.97-1.37-1.7-1.72-.23-.11-.48-.22-.73-.27-.44-.09-.7-.09-1.14-.02-.24.04-.47.12-.69.23-.33.18-.49.39-.71.68l.22-.28c-.11.13-.21.26-.31.4-.12.17-.18.46-.18.66 0 .29.1.56.28.79.34.44.84.57 1.37.47ZM22.15 144.19c-2.02.17-4.04.24-6.07.25-.99 0-1.99 0-2.98-.05s-2.06-.16-3.1-.13c-.75.02-1.39.55-1.48 1.31-.08.7.33 1.5 1.08 1.65 2.06.41 4.27.36 6.36.33s4.14-.21 6.19-.46c.78-.1 1.45-.6 1.45-1.45 0-.73-.67-1.52-1.45-1.45m2.52 9.79-3.73 2.99-1.81 1.45c-.67.54-1.56 1.06-1.95 1.85-.27.55-.27 1.16.12 1.67.37.48.99.69 1.58.54.91-.24 1.65-1.04 2.36-1.64l1.88-1.58 3.71-3.11c.61-.51.57-1.63 0-2.15-.66-.61-1.49-.53-2.15 0Zm10.11 5.08c-.23 1.47-.32 2.94-.13 4.42s.46 3.21 1.32 4.5c.42.63 1.16.91 1.87.61s1.01-1.03.87-1.77c-.13-.65-.36-1.26-.53-1.9-.09-.32-.16-.64-.23-.96-.03-.14-.05-.28-.08-.42-.02-.09-.03-.19-.04-.28-.02-.16-.03-.19-.01-.07s.01.1 0-.07l-.03-.28-.03-.42c-.02-.33-.04-.66-.05-.99-.01-.66.02-1.32.1-1.97.09-.76-.65-1.42-1.33-1.51s-1.57.35-1.69 1.1Zm8.59-23.09c.8-1.87 1.65-3.73 2.54-5.55s1.95-3.59 2.79-5.44c.34-.76.22-1.66-.55-2.12s-1.65-.14-2.12.55c-1.13 1.68-2 3.57-2.88 5.39s-1.73 3.69-2.53 5.56c-.34.79-.24 1.71.57 2.18.67.39 1.84.22 2.18-.57m7.66 6.24c1.77-1.34 3.57-2.63 5.42-3.87s3.78-2.34 5.62-3.59c.68-.46.98-1.34.55-2.08s-1.35-.93-2.08-.55c-1.99 1.04-3.85 2.37-5.69 3.67s-3.74 2.72-5.55 4.16c-.55.44-.51 1.38-.11 1.89s1.28.81 1.85.37Zm4.79 10.09-5.66-.15c1.49 1.25 3.23 2.19 5.08 2.77-1.88.96-3.77 1.92-5.65 2.89 2.63-1.34 9.91.64 13.11.74 4.57.14 9.03-.23 13.19-2.27 9.07-4.45 14.97-13.24 26.27-11.98 3.54.4 6.89 1.74 10.19 3.08 7.13 2.89 14.38 5.8 22.03 6.63s15.89-.67 21.68-5.74c3.61-3.16 6.19-7.61 10.49-9.74.92-.46 1.92-.81 2.66-1.52s1.11-1.95.49-2.77c-.8-.18-1.61.24-2.31.67-8.3 5.15-14.53 14.56-24.22 15.82-3 .39-6.03-.08-9.01-.6-4.97-.86-9.95-1.87-14.59-3.84-5.32-2.25-10.19-5.75-15.86-6.86-7.64-1.49-15.51 1.66-21.87 6.15-4.5 3.18-8.7 7.14-14.03 8.56-5.19 1.39-11.04 0-15.06-3.58.48.85.96 1.7 1.43 2.55"/><path d="M55.82 150.81c-1.89-.14-3.77-.3-5.66-.48-1.53-.15-2.45 2.12-1.29 3.11 1.76 1.48 3.67 2.59 5.86 3.32l-.45-3.47c-1.9.94-3.79 1.89-5.69 2.83-.95.47-1.21 1.82-.7 2.69.58.99 1.72 1.14 2.69.7-.2.09.4-.09.55-.12.06-.01.53-.04.75-.05.86-.03 1.72.03 2.58.12 1.72.17 3.43.49 5.14.74 4.2.62 8.58.54 12.72-.48 7.8-1.94 13.2-8.23 20.26-11.63 3.46-1.67 7.29-2.13 11.05-1.31 4.97 1.08 9.62 3.49 14.36 5.27 8.9 3.36 18.47 5.75 27.97 3.63 4.3-.96 8.39-2.9 11.71-5.82 3.06-2.69 5.28-6.41 8.72-8.65 1.84-1.2 4.13-1.71 5.27-3.78 1.29-2.34.32-5.69-2.76-5.43-2.07.17-3.98 1.83-5.58 3.05-1.7 1.3-3.33 2.68-4.94 4.09-2.87 2.52-5.7 5.14-9.01 7.08-3.8 2.22-7.74 2.8-12.09 2.22-4.9-.65-9.9-1.64-14.58-3.26s-8.59-4.2-12.99-6.07c-4.55-1.93-9.21-2.62-14.1-1.84s-9.13 2.75-13.09 5.28c-3.87 2.47-7.24 5.66-11.26 7.89-3.73 2.07-7.86 2.71-11.98 1.44-1.85-.57-3.58-1.53-5.05-2.8-1.75-1.51-4.55.39-3.3 2.55.49.84.98 1.69 1.47 2.53 1.33 2.3 4.83.25 3.56-2.08-.47-.86-.93-1.71-1.4-2.57l-3.3 2.55c3.21 2.79 7.16 4.43 11.41 4.7 4.28.27 8.37-1.16 11.97-3.38s7.01-5.3 10.77-7.59c3.65-2.22 7.75-4 12.03-4.45 9.31-.98 16.57 5.59 24.99 8.32 4.61 1.5 9.48 2.41 14.29 3.06 4.44.6 8.63.25 12.73-1.61 3.84-1.74 7.12-4.54 10.27-7.29 1.61-1.4 3.2-2.83 4.86-4.18.79-.64 1.6-1.26 2.44-1.84.76-.52 1.74-1.44 2.69-1.33l-1.93-1.11c-.18-.3.15-.11-.15.05-.39.22-.75.48-1.15.67-1.03.5-2.03.99-2.97 1.66-1.8 1.29-3.34 2.87-4.82 4.51-2.81 3.12-5.54 5.97-9.48 7.65-8.75 3.72-18.54 1.77-27.17-1.24-8.96-3.13-18.28-8.87-28.03-5.72-7.48 2.41-12.64 8.75-19.73 11.87-4.24 1.87-9.37 2.16-13.91 1.49-3.66-.55-8.23-1.87-11.75-.19l1.98 3.39c1.87-.98 3.75-1.96 5.62-2.94 1.52-.8 1.02-2.99-.45-3.47s-3.02-1.23-4.3-2.23l-1.29 3.11c1.89-.09 3.77-.15 5.66-.19 1.93-.04 1.89-2.83 0-2.97Zm-29.6-65.64c-1.59.94-3.03 2.13-4.24 3.52s-2.23 3.33-1.46 5c.35.78 1.04 1.35 1.7 1.89.72.59 1.44 1.17 2.15 1.76 1.36 1.11 2.86 2.28 4.61 2.35 1.71.07 3.27-.91 4.7-1.86l4.46-2.96c.13-.09.27-.2.28-.35 0-.2-.2-.33-.36-.45-.61-.5-.49-1.43-.47-2.22.03-1.42-.48-2.84-1.41-3.92-.29-.33-.8-.64-1.12-.34"/><path d="M25.45 83.85c-2.79 1.45-5.93 3.98-6.78 7.15-.48 1.79-.02 3.53 1.21 4.9 1.11 1.23 2.59 2.27 3.9 3.29 1.4 1.1 2.88 2.07 4.68 2.29s3.49-.41 5.01-1.31c1.62-.95 3.17-2.06 4.74-3.09.76-.5 1.61-.94 1.94-1.84.2-.56.19-1.09-.05-1.62-.14-.31-.61-.68-.68-.85.08.19.06-.48.06-.56.01-.41.01-.8-.03-1.21-.11-1-.38-1.94-.83-2.85-.43-.86-1.06-1.74-1.91-2.21-1.17-.65-2.35-.24-3.1.79s.23 2.72 1.47 2.56c-.08 0-.29-.11-.17.04.18.23.36.53.48.8.24.54.33 1.13.33 1.72 0 .65-.06 1.3.11 1.95.21.81.66 1.3 1.22 1.87l-.48-.83.06.18.19-1.45c.17-.36-.36.18-.5.27-.3.2-.59.4-.89.59-.59.4-1.19.79-1.78 1.19-.96.64-1.93 1.37-2.99 1.85-2.13.96-3.78-.46-5.39-1.77-.93-.75-2.04-1.47-2.82-2.38-.53-.61-.43-1.29-.11-1.99.92-2.01 2.88-3.62 4.66-4.85 1.61-1.11.22-3.56-1.55-2.64Zm49.03 38.18c3.19-5.28 7.4-9.94 12.4-13.56 4.65-3.36 10.77-6.5 16.67-5.06 4.83 1.18 9.05 5.34 7.91 10.64-.62 2.84-2.4 5.09-4.69 6.83-1.01.77-2.16 1.45-3.33 1.93-.97.4-2.62.95-3.59.28-3.72-2.55 8.46-10.6 10.22-11.69 4.95-3.09 10.65-5.38 16.55-5.48 5.28-.09 11.13 1.85 13.19 7.18.86 2.23.94 4.81-.31 6.9s-3.88 3.82-6.29 4.41c-.79.2-2.28.41-2.53-.66-.3-1.28 1.17-2.96 1.88-3.88 1.82-2.33 4.06-4.33 6.53-5.95 5.33-3.5 11.47-5.37 17.7-6.48 2.32-.41 1.32-3.88-.97-3.51-6.75 1.09-13.55 3.32-19.22 7.22-2.84 1.96-5.36 4.3-7.41 7.08s-3.63 7.01-.06 9.21c2.76 1.7 6.37.28 8.87-1.24 2.89-1.75 5.24-4.45 5.77-7.87 1.09-7.01-4.01-13.01-10.46-14.95-7.03-2.12-14.79-.22-21.19 2.96-3.28 1.63-6.32 3.7-9.18 5.98-2.64 2.1-6.29 4.69-6.97 8.21s1.89 6.62 5.57 6.42c3.41-.19 7.09-2.04 9.55-4.34 5.45-5.08 6.42-13.8.81-19.13-5.36-5.09-13.14-5.25-19.64-2.44-6.98 3.01-12.88 8.63-17.35 14.67a50 50 0 0 0-3.11 4.75c-1.01 1.74 1.66 3.3 2.7 1.58Z"/></svg>