<?xml version="1.0" encoding="UTF-8"?><svg xmlns="http://www.w3.org/2000/svg" viewBox="0 0 180 180"><path d="M92.84 114.24c-6.28-1.8-12.59-3.48-18.92-5.06-3.17-.79-6.34-1.55-9.52-2.28-1.43-.33-2.86-.64-4.3-.96-1.77-.39-3.47-.95-5.28-1.18-1.4-.18-2.74-.09-4.08.34-1.2.39-2.32.93-3.6.95-2.02.03-4.08-.85-5.34-2.45-1.31-1.65-1.56-3.93-.97-5.91.64-2.14 2.39-3.61 4.43-4.38 2.45-.92 5.45-1.26 8.03-.79 1.75.32 4.97 1.99 3.76 4.3-.63 1.2-.15 3.05 1.36 3.33 6.22 1.18 12.43 2.45 18.64 3.69 5.62 1.12 11.44 2.06 16.64 4.56 1.2.57 2.33.25 3.11-.82 2.12-2.9 5.09-5.73 8.83-6.13 3.63-.38 6.51 2.04 7.87 5.26 1.28 3.04 1.14 6.61-.66 9.41-1.65 2.58-4.67 4.37-7.75 4.4-3.48.03-6.99-2.23-8.21-5.53-.43-1.16-1.55-1.95-2.82-1.6-1.12.31-2.02 1.65-1.6 2.82 1.63 4.52 5.6 7.99 10.39 8.8 4.72.8 9.64-1.07 12.73-4.72s4.26-8.96 2.82-13.74c-1.49-4.94-5.43-9.16-10.72-9.73-6.31-.68-11.38 3.67-14.81 8.47l3.11-.82c-5.46-2.61-11.36-3.73-17.25-4.9-6.38-1.26-12.76-2.48-19.12-3.8l1.36 3.33c1.58-2.88.77-6.47-1.57-8.7-2.46-2.34-6.06-2.85-9.31-2.71-6.31.27-13.04 3.24-14.1 10.16-1 6.57 3.68 12.37 10.29 12.9 1.4.11 2.84-.08 4.17-.53.78-.27 1.55-.67 2.37-.83.77-.15 1.54-.05 2.31.09 3.86.68 7.7 1.34 11.54 2.14 8.47 1.77 16.89 3.8 25.24 6.06 2.24.61 3.18-2.83.96-3.47Z"/><path d="M65.48 99.57c9.1-12.74 18.31-25.39 27.92-37.74l-3.58-1.48c.25 2.44 1 4.72 2.44 6.72.67.93 1.81 1.36 2.88.75 2.88-1.63 5.75-3.26 8.63-4.89-1.06-.61-2.12-1.21-3.17-1.82l.54 7.97c.08 1.22 1.31 2.61 2.68 2.05 3.72-1.52 7.43-3.04 11.15-4.57l-2.71-2.07c-.09 2.21-.17 4.42-.26 6.63-.04 1.07 1.02 2.28 2.15 2.15 3.6-.41 7.07-1.24 10.42-2.64L122.46 67c-10.7 11.53-21.35 23.11-32 34.68-1.93 2.09 1.19 5.22 3.13 3.13 10.66-11.57 21.34-23.12 31.95-34.73.65-.72.84-1.77.34-2.63-.44-.75-1.58-1.37-2.45-1-2.96 1.25-6.07 2.14-9.26 2.52l2.15 2.15c.08-2.21.15-4.42.23-6.63.04-1.26-1.43-2.6-2.71-2.07-3.71 1.54-7.43 3.07-11.14 4.61l2.68 2.05-.57-7.97c-.11-1.58-1.71-2.65-3.17-1.82-2.87 1.63-5.75 3.27-8.62 4.9l2.88.75c-.99-1.37-1.7-2.89-1.87-4.59-.16-1.55-2.34-3.08-3.58-1.48-9.8 12.62-19.21 25.57-27.87 39.01-1.19 1.85 1.67 3.44 2.91 1.7Z"/><path d="M102.23 66.33c-8.32 11.25-17.79 21.64-26.74 32.38-1.5 1.81 1.1 4.42 2.6 2.6 9.06-11.03 18.57-21.74 26.79-33.43 1.14-1.63-1.49-3.1-2.64-1.55Zm-3.6-23.45c-4.77-6.07-10.15-11.78-16.07-16.76l.62 1.51c.13-5.76.72-11.42 1.98-17.05-.7.54-1.41 1.07-2.11 1.61 4.2.17 8.41.32 12.61.57 3.9.24 8.02.29 11.77 1.5 3.16 1.02 5.83 3.14 8.28 5.33 2.73 2.44 5.33 5 8.23 7.25 3.5 2.72 7.22 5.12 11.16 7.15v-3.81c-3.65 1.62-7.32 3.21-10.96 4.86-1.75.8-2.31 2.39-1.73 4.19s1.25 3.68 1.87 5.52l2.13-2.8c-2.13-.24-4.26-.49-6.39-.73-1.92-.22-3.93-.63-5.82 0-3.19 1.07-4.96 4.13-6.26 7.02l3.47-.45c-1.71-1.62-3.42-3.24-5.14-4.85-.65-.61-1.89-.93-2.68-.35a20.8 20.8 0 0 0-4.52 4.55c-.7.97-.16 2.46.79 3.02 1.12.65 2.32.18 3.02-.79.81-1.12 1.82-2.14 2.93-2.96l-2.68-.35c1.71 1.62 3.42 3.24 5.14 4.85.94.89 2.86.9 3.47-.45.81-1.79 1.95-4.75 4.17-5.15 1.51-.27 3.33.22 4.83.4 1.89.22 3.77.43 5.66.65 1.4.16 2.56-1.55 2.13-2.8l-1.05-3.09-.45-1.32c-.09-.27-.35-1.68-.51-1.06l-.57.98c.28-.35 1.8-.84 2.41-1.11l2.91-1.29c2.01-.89 4.02-1.79 6.04-2.68 1.51-.67 1.38-3.11 0-3.81-3.51-1.8-6.86-3.89-10.01-6.26s-5.69-4.93-8.49-7.44c-2.73-2.44-5.63-4.67-9.05-6.04-3.75-1.5-7.95-1.66-11.93-1.93-4.92-.35-9.86-.53-14.79-.7-.91-.03-1.91.7-2.11 1.61-.8 3.63-1.37 7.31-1.7 11.02-.17 1.91-.29 3.83-.32 5.76-.01.93-.15 1.96.46 2.73.54.69 1.47 1.27 2.17 1.8 5.46 4.16 10.33 9.28 14.72 14.53 1.4 1.67 3.67-.71 2.36-2.36Z"/><path d="M82.24 28.53c5.94-.84 11.88-1.7 17.81-2.61 1.16-.18 2.66-.14 3.69-.77 1.24-.75 1.11-2.21 1.19-3.47.17-2.7.86-5.4 1.98-7.86.43-.95.27-2.08-.7-2.65-.83-.48-2.22-.27-2.65.7-.83 1.88-1.51 3.79-1.92 5.8-.2.98-.34 1.98-.44 2.98-.08.8.09 1.85-.16 2.58l.81-1.06c-.42.3-1.67.28-2.26.37l-2.5.41c-1.74.29-3.49.57-5.23.86-3.48.57-6.95 1.21-10.43 1.82-.8.14-1.24 1.12-1.05 1.85.23.87 1.05 1.16 1.85 1.05Z"/><path d="M101.26 25.6c3.87 2.96 7.64 6.03 11.15 9.41a104 104 0 0 1 7.41 7.95c.8.96 1.49 2.11 2.42 2.85 1.43 1.14 3.33-.24 2.53-1.95-.52-1.1-1.55-2.07-2.33-2.99s-1.64-1.89-2.48-2.81c-1.73-1.89-3.53-3.71-5.4-5.47-3.68-3.46-7.6-6.74-11.82-9.54-1.61-1.07-2.94 1.42-1.48 2.54ZM58.6 106.99c-10.24 12.68-14.88 25.58-21.73 40.37-.08.17-4.46.33-4.96.44-2.01.45-3.89 1.35-5.4 2.77-3.4 3.19-4.38 8.13-2.2 12.29 5.46 10.43 23.31 8.81 28.72-.8 1.02-1.82 1.63-3.92 1.38-5.99s-2.53-3.67-4.4-4.57c12.88-9.71 25.01-22.23 33.5-35.95.3-.48.6-1.04.42-1.57-.12-.36-.44-.62-.74-.85-6.81-5.12-15.64-7.48-24.1-6.42"/><path d="M57.46 105.84c-4.96 5.97-9.12 12.42-12.59 19.36s-6.46 14.1-9.73 21.13l.72-.72c.21-.16.38-.22.58-.18-.16-.03-.4.04-.56.05q-.795.075-1.59.12c-.94.06-1.91.06-2.84.23-3.32.6-6.29 2.68-8.19 5.42-3.57 5.15-2.39 12.09 2.06 16.28 7.12 6.71 19.7 5.61 26.6-.86 2.32-2.17 4.02-5.12 4.44-8.28.25-1.92.06-3.78-1.13-5.37-1.08-1.44-2.6-2.5-4.19-3.3v3.52c8.79-6.59 16.9-14.11 23.98-22.52 3.48-4.13 6.72-8.48 9.64-13.03.74-1.16 1.53-2.29 1.41-3.73-.14-1.66-1.55-2.55-2.8-3.42-2.19-1.53-4.55-2.75-7.02-3.75-5.39-2.18-11.38-2.96-17.15-2.28-1.16.14-2.17.9-2.17 2.17 0 1.07 1 2.31 2.17 2.17 4.13-.49 8.27-.22 12.29.87 1.94.53 3.84 1.22 5.64 2.11.92.46 1.83.95 2.71 1.49.68.42 1.98.99 2.37 1.7l-.29-1.07c.08.63-.89 1.72-1.27 2.31a85 85 0 0 1-1.67 2.52c-1.15 1.68-2.34 3.32-3.57 4.93-2.52 3.29-5.23 6.45-8.06 9.48-5.6 6-11.72 11.53-18.25 16.51-1.1.84-1.52 2.77 0 3.52 1.31.65 3.23 1.61 3.46 3.23.26 1.91-.67 3.92-1.71 5.45-1.47 2.15-3.79 3.74-6.18 4.7-4.88 1.95-11.18 1.99-15.52-1.29-2.52-1.9-4.22-5.07-3.76-8.28.26-1.81 1.14-3.5 2.42-4.79.7-.71 1.49-1.25 2.37-1.7.46-.23.91-.41 1.4-.57.2-.06 1.58-.35.75-.24 1.18-.15 2.38-.16 3.56-.25.5-.04 1.07-.05 1.55-.19 1.14-.33 1.49-1.41 1.94-2.39 1.91-4.19 3.73-8.42 5.63-12.61 4.13-9.13 8.68-18.24 14.85-26.19 1.25-1.61-.94-3.91-2.29-2.29Zm83.5-55.25c2.49-1.28 5.02-2.49 7.59-3.61 1.19-.52 2.38-1.02 3.59-1.51.63-.25 1.25-.5 1.88-.74.76-.29 1.6-.52 2.29-.96s1.05-1.35.7-2.15c-.37-.84-1.15-1.13-2.03-1-.75.11-1.48.5-2.18.78-.63.25-1.25.51-1.88.77-1.34.56-2.67 1.14-4 1.75a136 136 0 0 0-7.65 3.78c-1.9 1.01-.22 3.85 1.68 2.87Zm.03 12.02c2.61.02 5.25.16 7.84.54 1.3.19 2.59.43 3.87.71.64.14 1.28.3 1.91.47.73.19 1.47.48 2.23.43 1.75-.11 2.21-2.17.86-3.16-1.09-.8-2.89-.97-4.19-1.24-1.39-.29-2.8-.51-4.21-.7-2.76-.36-5.53-.49-8.31-.36-2.12.1-2.14 3.3 0 3.31m-2.66 11.43 3.69 3.1c1.31 1.1 2.58 2.26 3.96 3.27.53.39 1.28.27 1.82 0 .42-.21.71-.64.83-1.08.17-.6 0-1.33-.46-1.76-1.15-1.07-2.46-2.01-3.68-3s-2.47-1.99-3.7-2.98c-.37-.3-.74-.51-1.23-.51-.43 0-.94.19-1.23.51-.59.65-.75 1.84 0 2.46Z"/></svg>