<?xml version="1.0" encoding="UTF-8"?><svg xmlns="http://www.w3.org/2000/svg" viewBox="0 0 180 180"><path d="M88.4 155.56c-15.16-5.33-30.56-10.03-46.18-13.83-3.9-.95-7.82-1.85-11.74-2.7-3.62-.79-7.31-1.38-10.86-2.45-2.46-.74-5.44-1.71-6.58-4.22-.98-2.16-1.06-4.88-.7-7.19.17-1.1.43-2.28.98-3.26.41-.72 1.21-1.29 2.03-1.86 3.17-2.21 6.31-4.46 9.44-6.71 6.54-4.71 13.03-9.49 19.46-14.34a1148 1148 0 0 0 28.29-22.02c2.74-2.2 5.81-4.32 7.71-7.36 2.03-3.24 2.17-7.3 2.65-10.98.54-4.09 1.07-8.19 1.61-12.28s1.07-8.19 1.61-12.28c.4-3.06.35-7.01 3.15-8.97 2.63-1.84 5.76-1.53 8.79-1.36 3.65.2 7.29.45 10.93.78 6.04.53 12.06 1.27 18.07 2.06 5.75.76 11.49 1.53 17.25 2.12 6.5.67 14.21.58 19.49 5.04 2.11 1.78 3.83 4.19 4.03 7.01.13 1.83-.33 3.65-.69 5.43-.42 2.11-.84 4.23-1.27 6.34-1.62 8.14-3.29 16.26-4.75 24.43-.69 3.88-1.25 7.92-2.49 11.67-1.15 3.49-3.53 6.22-5.96 8.9-5.45 6-10.92 11.99-16.38 17.98-5.59 6.13-11.16 12.27-16.74 18.41s-10.73 12.13-16.33 17.95c-2.09 2.17-4.48 4.32-7.52 4.93-2.34.47-1.35 4.06.99 3.59 3.47-.7 6.25-2.74 8.72-5.2 2.85-2.85 5.48-5.95 8.2-8.93 5.8-6.38 11.61-12.76 17.41-19.14 5.75-6.32 11.48-12.66 17.22-18.98 2.82-3.11 5.68-6.18 8.44-9.33 2.56-2.93 4.71-6.04 5.89-9.79 1.24-3.95 1.85-8.14 2.74-12.18.93-4.21 1.79-8.43 2.63-12.66s1.69-8.46 2.54-12.69c.79-3.94 2.14-8.16 1.51-12.2-1.06-6.85-7.52-11.34-13.77-13.04-3.87-1.05-7.91-1.32-11.89-1.7-3.17-.3-6.34-.67-9.51-1.06-12.92-1.6-25.77-3.41-38.78-4.12-3.61-.2-7.13-.26-10.38 1.58-3.24 1.84-4.79 4.98-5.32 8.56-1.26 8.46-2.23 16.97-3.33 25.45-.28 2.13-.56 4.26-.83 6.39-.23 1.74-.45 3.59-1.21 5.19-1.52 3.18-5.04 5.36-7.7 7.51a1091 1091 0 0 1-39.63 30.42c-3.38 2.48-6.77 4.93-10.18 7.37-1.7 1.22-3.41 2.44-5.12 3.64-1.14.8-2.35 1.55-3.37 2.5-2.06 1.93-2.72 4.84-3.02 7.55-.33 2.94 0 6.05 1.22 8.76 1.39 3.1 4.28 4.65 7.33 5.82 3.52 1.35 7.3 1.9 10.98 2.64 16.29 3.3 32.49 7.34 48.35 12.29 3.91 1.22 7.81 2.5 11.69 3.81 2.08.71 2.96-2.56.91-3.28Z"/><path d="M146.81 39.43c-9.99-2.24-20.06-4.01-30.21-5.29-5-.63-10.02-1.15-15.05-1.5-1.22-.08-2.43-.16-3.65-.23-1.29-.07-2.74-.32-3.95.26-2.22 1.07-2.14 3.68-2.41 5.8-.73 5.78-1.45 11.56-2.23 17.34-.13.96.22 2.15 1.34 2.36 10.54 1.95 21.07 3.94 31.62 5.87 5.23.95 10.47 1.91 15.7 2.86 2.25.41 5.01 1.39 7.22.44 1.98-.84 2.71-2.84 3.06-4.81 1.05-5.9 2-11.82 2.92-17.74.34-2.17-2.91-3.16-3.36-.93-.98 4.82-1.95 9.63-2.84 14.46-.21 1.13-.4 2.26-.62 3.39-.1.51-.18 1.55-.65 1.9-.52.38-1.9-.09-2.44-.19-1.23-.22-2.45-.45-3.68-.67-9.73-1.78-19.45-3.59-29.19-5.31-5.57-.98-11.14-1.96-16.7-2.96l1.41 1.85c.61-4.72 1.27-9.43 1.93-14.15l.48-3.42c.07-.49.13-.98.2-1.46.02-.17.05-1.08.22-1.24-.48.46 1.02.35 1.26.37l1.46.09c1.22.08 2.43.16 3.65.25 9.32.69 18.6 1.65 27.84 3.01 5.3.78 10.59 1.7 15.85 2.74 2 .39 2.86-2.62.85-3.07Z"/><path d="M103.64 40.9c-.14.11-.27.22-.41.33.24-.2-.09.06-.11.08-.31.24-.62.47-.91.73-.44.41-.87.85-1.28 1.29-.89.96-1.7 2-2.44 3.08-.61.89.01 2.19 1 2.45 1.42.38 2.89.61 4.35.72q.99.075 1.98.03c1.01-.04 2.41.02 2.92-1.03.34-.71.23-1.32-.25-1.91-.64-.81-1.78-.51-2.67-.48a24 24 0 0 1-2.83-.07l-.56-.06c-.37-.04.29.05-.11-.01-.65-.1-1.3-.23-1.95-.38.33.82.66 1.63 1 2.45.33-.51.68-1 1.04-1.49.08-.1.15-.21.23-.31-.25.29.01-.01.06-.08.19-.24.38-.47.58-.7.75-.88 1.55-1.78 2.4-2.57.56-.52.56-1.53 0-2.04-.63-.58-1.41-.5-2.04 0Z"/><path d="M109.29 42.46c-2.07 2.26-3.58 4.87-4.56 7.77-.33.96-.79 2.11-.1 3.01.48.62 1.26.83 1.98.52.68-.29.98-.91 1.17-1.59s.43-1.39.7-2.07c.05-.14.11-.28.17-.42-.12.31-.03.06 0 0l.18-.42c.04-.09.08-.18.12-.28a30.3 30.3 0 0 1 2.7-4.7c.43-.61.16-1.51-.39-1.94s-1.46-.44-1.97.12m23.77 2.27c-.14.11-.27.22-.41.33.24-.2-.09.06-.11.08-.31.24-.62.47-.91.73-.44.41-.87.85-1.28 1.29-.89.96-1.7 2-2.44 3.08-.61.89.01 2.19 1 2.45 1.42.38 2.89.61 4.35.72q.99.075 1.98.03c1.01-.04 2.41.02 2.92-1.03.34-.71.23-1.32-.25-1.91-.64-.81-1.78-.51-2.67-.48a24 24 0 0 1-2.83-.07l-.56-.06c-.37-.04.29.05-.11-.01-.65-.1-1.3-.23-1.95-.38.33.82.66 1.63 1 2.45.33-.51.68-1 1.04-1.49.08-.1.15-.21.23-.31-.25.29.01-.01.06-.08.19-.24.38-.47.58-.7.75-.88 1.55-1.78 2.4-2.57.56-.52.56-1.53 0-2.04-.63-.58-1.41-.5-2.04 0Z"/><path d="M138.71 46.29c-2.07 2.26-3.58 4.87-4.56 7.77-.33.96-.79 2.11-.1 3.01.48.62 1.26.83 1.98.52.68-.29.98-.91 1.17-1.59s.43-1.39.7-2.07c.05-.14.11-.28.17-.42-.12.31-.03.06 0 0l.18-.42c.04-.09.08-.18.12-.28a30.3 30.3 0 0 1 2.7-4.7c.43-.61.16-1.51-.39-1.94s-1.46-.44-1.97.12m-21.03-2.62c-1.9 1.12-3.92 2.49-5.03 4.44-.61 1.07-.91 2.36-.51 3.56.38 1.15 1.31 2.1 2.38 2.65 3.89 1.98 9.49.08 11.08-4.04.43-1.11.51-2.43.16-3.57-.38-1.28-1.32-2.6-2.68-2.92-.83-.2-1.67.19-2.01.99s-.04 1.69.7 2.13c.06.04.47.28.31.18-.21-.14.28.27.11.09-.15-.15.05.07.08.12.04.06.07.13.11.19.01.02.11.25.04.07-.08-.21.06.22.06.22.04.14.06.43.04.13 0 .18.02.35.01.52 0 .08-.01.15-.01.23 0-.03.06-.28 0-.08s-.09.39-.15.59c-.02.07-.05.14-.08.22.03-.07.14-.27-.02 0-.07.13-.15.26-.23.4 0 .02-.15.23-.04.07.12-.17-.08.09-.11.13a4.7 4.7 0 0 1-.61.59c.03-.02.2-.14.04-.03-.15.1-.3.2-.46.3-.13.08-.27.15-.41.22-.07.03-.14.07-.21.1-.17.08.2-.07-.1.04-.32.11-.65.21-.98.29-.18.04-.36.07-.54.11.03 0 .27-.03.07 0-.11 0-.21.02-.32.03-.35.02-.69.02-1.03 0s-.08 0 0 0c-.08-.01-.15-.03-.23-.04-.2-.04-.41-.09-.6-.16-.07-.02-.15-.05-.22-.08.04.01.22.12.06.02-.15-.09-.32-.17-.47-.27-.26-.16.08.1-.14-.11-.07-.07-.14-.15-.21-.22.11.11.09.12 0-.01-.01-.02-.14-.24-.05-.06.1.19-.02-.12-.04-.16-.07-.17 0 .02 0 .07v-.23c-.04-.23-.08.22 0 0 .02-.08.04-.16.06-.23s.05-.15.08-.23c.1-.25-.18.31.07-.12.1-.17.2-.34.31-.5l.15-.21c-.15.19.08-.08.11-.12.3-.34.62-.66.93-.98.63-.64 1.33-1.26 2.02-1.79.61-.47.94-1.24.52-1.97-.39-.67-1.3-.91-1.97-.52Z"/><path d="M12.32 123.25c14.82 3.17 29.55 6.95 44.11 11.13 7.29 2.09 14.51 4.44 21.82 6.44 3.55.97 7.08 2.68 10.83 2.7 3.1.02 6.03-1.22 8.58-2.91 2.91-1.93 5.53-4.31 8.16-6.58 2.8-2.41 5.58-4.85 8.29-7.36 5.59-5.2 10.9-10.71 16.28-16.12 5.47-5.51 10.95-11.02 16.42-16.53 2.56-2.57 4.8-5.03 5.61-8.67.79-3.55 1.23-7.19 1.91-10.77 1.61-8.5 3.6-16.96 5.61-25.38.99-4.13 2.01-8.26 3.12-12.37.48-1.76 1.52-3.92 1.08-5.77-.41-1.75-2.1-3.09-3.69-3.78-2.29-.99-3.67 2.21-1.34 3.17.46.19 1.47.78 1.68 1.24.23.51-.19 1.4-.31 1.89-.48 1.9-.95 3.81-1.43 5.71-.88 3.49-1.72 6.99-2.53 10.49-1.66 7.17-3.16 14.38-4.49 21.62-.65 3.52-1.34 7.03-2.03 10.54-.31 1.57-.65 3.17-1.31 4.65-.72 1.62-1.92 2.89-3.15 4.14-5.09 5.16-10.22 10.28-15.33 15.42-10.2 10.27-20.35 20.51-31.52 29.75-2.25 1.87-4.77 3.7-7.66 4.43-3.51.88-6.9-.62-10.18-1.73-3.37-1.14-6.68-2.42-10.07-3.52-3.38-1.1-6.77-2.13-10.18-3.13-15.67-4.6-31.48-8.42-47.48-11.67-1.93-.39-2.76 2.55-.82 2.97Z"/><path d="M79.71 70.29c9.1 1.13 18.08 3 27.02 4.99 9.05 2.01 18.09 4.08 27.15 6.07 5.2 1.14 10.4 2.27 15.6 3.38 2.23.48 3.19-2.93.95-3.44-18.29-4.13-36.6-8.38-55.05-11.76-5.2-.95-10.42-1.76-15.68-2.35-1.99-.23-1.96 2.87 0 3.11Z"/><path d="M96.13 140.95c-.53 5.5.07 11.11 1.74 16.38a571 571 0 0 1 29.75-31.12c3.42-3.32 6.91-6.62 9.8-10.42 3.01-3.96 5.34-8.42 8.49-12.28 3.87-4.75 9.01-8.65 11.45-14.27.88-2.04 1.37-4.22 1.85-6.39 3.05-13.71 6.09-27.41 9.14-41.12.3-1.34.59-2.78.13-4.07-.47-1.3-3.24-4.52-4.47-3.9-2.71 13.58-6.98 23.77-9.68 37.35-.46 2.29-1.79 12.74-2.63 14.92-1.59 4.1-.78 5.01-3.67 8.33a293.3 293.3 0 0 1-50.68 46.09"/><path d="M94.63 140.95c-.62 5.71-.13 11.35 1.57 16.84.37 1.18 2 1.78 2.9.77 7.04-7.93 14.3-15.67 21.77-23.2 7.28-7.33 15.25-14.04 20.96-22.74 2.65-4.03 5.26-7.89 8.61-11.38 3.07-3.21 6.35-6.44 8.28-10.51 2.21-4.68 2.88-10.11 3.99-15.13 1.18-5.32 2.36-10.64 3.56-15.96s2.39-10.64 3.59-15.95c.53-2.33 1.3-4.87.22-7.16-.64-1.36-1.75-2.62-2.91-3.57-1.28-1.05-3.75-2.13-4.88-.2-.59 1.01-.64 2.59-.9 3.72-.29 1.27-.59 2.54-.91 3.8-1.19 4.74-2.61 9.42-3.97 14.11-1.38 4.73-2.69 9.49-3.72 14.31-.6 2.81-.98 5.65-1.42 8.48-.41 2.69-.67 5.55-1.54 8.14-.5 1.5-.91 3-1.37 4.51-.47 1.55-1.61 2.84-2.73 4.12-13.05 14.88-27.62 28.46-43.42 40.38a254 254 0 0 1-5.97 4.38c-.87.62-1.29 1.73-.71 2.72.5.86 1.84 1.34 2.72.71 16.01-11.47 30.9-24.49 44.33-38.89 1.68-1.81 3.34-3.63 4.98-5.48 1.37-1.55 2.93-3.09 3.87-4.96.68-1.34.97-2.78 1.39-4.21.35-1.22.84-2.38 1.12-3.63 1.39-6.25 1.92-12.63 3.42-18.86 2.58-10.67 6.43-21.04 8.46-31.84l-1.39 1.39c.49-.19-.42-.02-.39-.04-.04.03-.36-.4.12.05.2.18.46.31.67.49.51.45.99.98 1.37 1.55.42.62.52.82.48 1.75-.05 1.24-.44 2.48-.7 3.69-1.13 5.16-2.27 10.33-3.4 15.49-1.12 5.08-2.25 10.16-3.38 15.24-.57 2.58-1.15 5.16-1.73 7.74-.5 2.25-.95 4.57-1.85 6.71-1.65 3.91-4.77 6.95-7.64 9.98-3.21 3.39-5.9 7.02-8.42 10.95-2.62 4.09-5.45 7.84-8.85 11.31-3.52 3.59-7.18 7.05-10.73 10.61a574 574 0 0 0-23.43 24.92c.97.26 1.93.51 2.9.77-1.6-5.13-2.3-10.56-1.92-15.92.14-1.95-2.8-1.88-3 0M82.11 80.03a5.56 5.56 0 0 0-2.69 2.26c-.21.34-.37.79-.14 1.1.17.23.47.3.75.35 1.69.29 3.4.54 5.1.75 1.02.12 2.12.22 3.02-.29.79-.45 1.27-1.29 1.71-2.09.17-.31.34-.65.26-.99-.11-.44-.58-.66-1-.82-2.73-.98-6.09-1.18-8.25.76"/><path d="M81.71 78.57c-1.12.44-2.16 1.06-2.95 1.99-.95 1.11-1.82 2.77-.58 4.04.91.93 2.53.95 3.75 1.14 1.31.2 2.63.43 3.95.53 1.38.11 2.7-.17 3.79-1.04.91-.72 1.7-1.96 2.07-3.06 1.06-3.14-3.11-4.03-5.32-4.3-2.49-.31-5.36.18-6.81 2.45-.35.55-.22 1.33.23 1.78.49.49 1.18.51 1.78.23l.42-.21c.09-.05.19-.1.28-.14-.03.01-.21.08-.04.02.32-.1.64-.2.96-.29s.66-.18.99-.25c.08-.02.16-.03.23-.04-.07.01-.36.03 0 0 .19-.02.38-.03.56-.04.35-.01.71 0 1.06.03.16.01.33.03.49.05-.33-.04.16.03.26.05.35.07.7.15 1.04.24.16.04.31.09.47.14.1.03.2.07.31.1.16.05.15.08 0 0 .16.09.07.06.07.03 0-.02-.33-.66-.33-.73 0-.24.06-.24-.08.02-.18.33-.37.65-.58.96-.03.04-.21.24-.04.05-.06.06-.11.13-.17.18s-.12.12-.18.17c.03-.03.17-.12 0-.02-.08.04-.15.09-.23.13.04-.02.18-.06 0-.01-.11.03-.23.06-.35.08-.28.05.21 0-.08 0-1.75.06-3.47-.3-5.15-.56-.25-.04-.5-.08-.74-.11-.11-.02-.21-.03-.32-.04l-.14-.02c-.16-.05-.19-.05-.08 0 .04-.07.49 1.06.5 1.06-.04-.02.12-.26.04-.1.04-.07.09-.15.13-.22.02-.03.17-.24.12-.19a6 6 0 0 1 .57-.59c.02-.02.2-.17.08-.08.35-.28.77-.49 1.18-.67.68-.3.89-1.27.62-1.89s-1.07-1.16-1.79-.88Zm19.51 5.4a5.56 5.56 0 0 0-2.69 2.26c-.21.34-.37.79-.14 1.1.17.23.47.3.75.35 1.69.29 3.4.54 5.1.75 1.02.12 2.12.22 3.02-.29.79-.45 1.27-1.29 1.71-2.09.17-.31.34-.65.26-.99-.11-.44-.58-.66-1-.82-2.73-.98-6.09-1.18-8.25.76"/><path d="M100.82 82.51c-1.12.44-2.16 1.06-2.95 1.99-.95 1.11-1.82 2.77-.58 4.04.91.93 2.53.95 3.75 1.14 1.31.2 2.63.43 3.95.53 1.38.11 2.7-.17 3.79-1.04.91-.72 1.7-1.96 2.07-3.06 1.06-3.14-3.11-4.03-5.32-4.3-2.49-.31-5.36.18-6.81 2.45-.35.55-.22 1.33.23 1.78.49.49 1.18.51 1.78.23l.42-.21c.09-.05.19-.1.28-.14-.03.01-.21.08-.04.02.32-.1.64-.2.96-.29s.66-.18.99-.25c.08-.02.16-.03.23-.04-.07.01-.36.03 0 0 .19-.02.38-.03.56-.04.35-.01.71 0 1.06.03.16.01.33.03.49.05-.33-.04.16.03.26.05.35.07.7.15 1.04.24.16.04.31.09.47.14.1.03.2.07.31.1.16.05.15.08 0 0 .16.09.07.06.07.03 0-.02-.33-.66-.33-.73 0-.24.06-.24-.08.02-.18.33-.37.65-.58.96-.03.04-.21.24-.04.05-.06.06-.11.13-.17.18s-.12.12-.18.17c.03-.03.17-.12 0-.02-.08.04-.15.09-.23.13.04-.02.18-.06 0-.01-.11.03-.23.06-.35.08-.28.05.21 0-.08 0-1.75.06-3.47-.3-5.15-.56-.25-.04-.5-.08-.74-.11-.11-.02-.21-.03-.32-.04l-.14-.02c-.16-.05-.19-.05-.08 0 .04-.07.49 1.06.5 1.06-.04-.02.12-.26.04-.1.04-.07.09-.15.13-.22.02-.03.17-.24.12-.19a6 6 0 0 1 .57-.59c.02-.02.2-.17.08-.08.35-.28.77-.49 1.18-.67.68-.3.89-1.27.62-1.89s-1.07-1.16-1.79-.88Zm19.29 5.4a5.56 5.56 0 0 0-2.69 2.26c-.21.34-.37.79-.14 1.1.17.23.47.3.75.35 1.69.29 3.4.54 5.1.75 1.02.12 2.12.22 3.02-.29.79-.45 1.27-1.29 1.71-2.09.17-.31.34-.65.26-.99-.11-.44-.58-.66-1-.82-2.73-.98-6.09-1.18-8.25.76"/><path d="M119.71 86.45c-1.12.44-2.16 1.06-2.95 1.99-.95 1.11-1.82 2.77-.58 4.04.91.93 2.53.95 3.75 1.14 1.31.2 2.63.43 3.95.53 1.38.11 2.7-.17 3.79-1.04.91-.72 1.7-1.96 2.07-3.06 1.06-3.14-3.11-4.03-5.32-4.3-2.49-.31-5.36.18-6.81 2.45-.35.55-.22 1.33.23 1.78.49.49 1.18.51 1.78.23l.42-.21c.09-.05.19-.1.28-.14-.03.01-.21.08-.04.02.32-.1.64-.2.96-.29s.66-.18.99-.25c.08-.02.16-.03.23-.04-.07.01-.36.03 0 0 .19-.02.38-.03.56-.04.35-.01.71 0 1.06.03.16.01.33.03.49.05-.33-.04.16.03.26.05.35.07.7.15 1.04.24.16.04.31.09.47.14.1.03.2.07.31.1.16.05.15.08 0 0 .16.09.07.06.07.03 0-.02-.33-.66-.33-.73 0-.24.06-.24-.08.02-.18.33-.37.65-.58.96-.03.04-.21.24-.04.05-.06.06-.11.13-.17.18s-.12.12-.18.17c.03-.03.17-.12 0-.02-.08.04-.15.09-.23.13.04-.02.18-.06 0-.01-.11.03-.23.06-.35.08-.28.05.21 0-.08 0-1.75.06-3.47-.3-5.15-.56-.25-.04-.5-.08-.74-.11-.11-.02-.21-.03-.32-.04l-.14-.02c-.16-.05-.19-.05-.08 0 .04-.07.49 1.06.5 1.06-.04-.02.12-.26.04-.1.04-.07.09-.15.13-.22.02-.03.17-.24.12-.19a6 6 0 0 1 .57-.59c.02-.02.2-.17.08-.08.35-.28.77-.49 1.18-.67.68-.3.89-1.27.62-1.89s-1.07-1.16-1.79-.88Zm-50.1 4.12a5.56 5.56 0 0 0-2.69 2.26c-.21.34-.37.79-.14 1.1.17.23.47.3.75.35 1.69.29 3.4.54 5.1.75 1.02.12 2.12.22 3.02-.29.79-.45 1.27-1.29 1.71-2.09.17-.31.34-.65.26-.99-.11-.44-.58-.66-1-.82-2.73-.98-6.09-1.18-8.25.76"/><path d="M69.21 89.11c-1.12.44-2.16 1.06-2.95 1.99-.95 1.11-1.82 2.77-.58 4.04.91.93 2.53.95 3.75 1.14 1.31.2 2.63.43 3.95.53 1.38.11 2.7-.17 3.79-1.04.91-.72 1.7-1.96 2.07-3.06 1.06-3.14-3.11-4.03-5.32-4.3-2.49-.31-5.36.18-6.81 2.45-.35.55-.22 1.33.23 1.78.49.49 1.18.51 1.78.23l.42-.21c.09-.05.19-.1.28-.14-.03.01-.21.08-.04.02.32-.1.64-.2.96-.29s.66-.18.99-.25c.08-.02.16-.03.23-.04-.07.01-.36.03 0 0 .19-.02.38-.03.56-.04.35-.01.71 0 1.06.03.16.01.33.03.49.05-.33-.04.16.03.26.05.35.07.7.15 1.04.24.16.04.31.09.47.14.1.03.2.07.31.1.16.05.15.08 0 0 .16.09.07.06.07.03 0-.02-.33-.66-.33-.73 0-.24.06-.24-.08.02-.18.33-.37.65-.58.96-.03.04-.21.24-.04.05-.06.06-.11.13-.17.18s-.12.12-.18.17c.03-.03.17-.12 0-.02-.08.04-.15.09-.23.13.04-.02.18-.06 0-.01-.11.03-.23.06-.35.08-.28.05.21 0-.08 0-1.75.06-3.47-.3-5.15-.56-.25-.04-.5-.08-.74-.11-.11-.02-.21-.03-.32-.04l-.14-.02c-.16-.05-.19-.05-.08 0 .04-.07.49 1.06.5 1.06-.04-.02.12-.26.04-.1.04-.07.09-.15.13-.22.02-.03.17-.24.12-.19a6 6 0 0 1 .57-.59c.02-.02.2-.17.08-.08.35-.28.77-.49 1.18-.67.68-.3.89-1.27.62-1.89s-1.07-1.16-1.79-.88Zm19.51 5.41a5.56 5.56 0 0 0-2.69 2.26c-.21.34-.37.79-.14 1.1.17.23.47.3.75.35 1.69.29 3.4.54 5.1.75 1.02.12 2.12.22 3.02-.29.79-.45 1.27-1.29 1.71-2.09.17-.31.34-.65.26-.99-.11-.44-.58-.66-1-.82-2.73-.98-6.09-1.18-8.25.76"/><path d="M88.32 93.05c-1.12.44-2.16 1.06-2.95 1.99-.95 1.11-1.82 2.77-.58 4.04.91.93 2.53.95 3.75 1.14 1.31.2 2.63.43 3.95.53 1.38.11 2.7-.17 3.79-1.04.91-.72 1.7-1.96 2.07-3.06 1.06-3.14-3.11-4.03-5.32-4.3-2.49-.31-5.36.18-6.81 2.45-.35.55-.22 1.33.23 1.78.49.49 1.18.51 1.78.23l.42-.21c.09-.05.19-.1.28-.14-.03.01-.21.08-.04.02.32-.1.64-.2.96-.29s.66-.18.99-.25c.08-.02.16-.03.23-.04-.07.01-.36.03 0 0 .19-.02.38-.03.56-.04.35-.01.71 0 1.06.03.16.01.33.03.49.05-.33-.04.16.03.26.05.35.07.7.15 1.04.24.16.04.31.09.47.14.1.03.2.07.31.1.16.05.15.08 0 0 .16.09.07.06.07.03 0-.02-.33-.66-.33-.73 0-.24.06-.24-.08.02-.18.33-.37.65-.58.96-.03.04-.21.24-.04.05-.06.06-.11.13-.17.18s-.12.12-.18.17c.03-.03.17-.12 0-.02-.08.04-.15.09-.23.13.04-.02.18-.06 0-.01-.11.03-.23.06-.35.08-.28.05.21 0-.08 0-1.75.06-3.47-.3-5.15-.56-.25-.04-.5-.08-.74-.11-.11-.02-.21-.03-.32-.04l-.14-.02c-.16-.05-.19-.05-.08 0 .04-.07.49 1.06.5 1.06-.04-.02.12-.26.04-.1.04-.07.09-.15.13-.22.02-.03.17-.24.12-.19a6 6 0 0 1 .57-.59c.02-.02.2-.17.08-.08.35-.28.77-.49 1.18-.67.68-.3.89-1.27.62-1.89s-1.07-1.16-1.79-.88Zm19.29 5.4a5.56 5.56 0 0 0-2.69 2.26c-.21.34-.37.79-.14 1.1.17.23.47.3.75.35 1.69.29 3.4.54 5.1.75 1.02.12 2.12.22 3.02-.29.79-.45 1.27-1.29 1.71-2.09.17-.31.34-.65.26-.99-.11-.44-.58-.66-1-.82-2.73-.98-6.09-1.18-8.25.76"/><path d="M107.21 96.99c-1.12.44-2.16 1.06-2.95 1.99-.95 1.11-1.82 2.77-.58 4.04.91.93 2.53.95 3.75 1.14 1.31.2 2.63.43 3.95.53 1.38.11 2.7-.17 3.79-1.04.91-.72 1.7-1.96 2.07-3.06 1.06-3.14-3.11-4.03-5.32-4.3-2.49-.31-5.36.18-6.81 2.45-.35.55-.22 1.33.23 1.78.49.49 1.18.51 1.78.23l.42-.21c.09-.05.19-.1.28-.14-.03.01-.21.08-.04.02.32-.1.64-.2.96-.29s.66-.18.99-.25c.08-.02.16-.03.23-.04-.07.01-.36.03 0 0 .19-.02.38-.03.56-.04.35-.01.71 0 1.06.03.16.01.33.03.49.05-.33-.04.16.03.26.05.35.07.7.15 1.04.24.16.04.31.09.47.14.1.03.2.07.31.1.16.05.15.08 0 0 .16.09.07.06.07.03 0-.02-.33-.66-.33-.73 0-.24.06-.24-.08.02-.18.33-.37.65-.58.96-.03.04-.21.24-.04.05-.06.06-.11.13-.17.18s-.12.12-.18.17c.03-.03.17-.12 0-.02-.08.04-.15.09-.23.13.04-.02.18-.06 0-.01-.11.03-.23.06-.35.08-.28.05.21 0-.08 0-1.75.06-3.47-.3-5.15-.56-.25-.04-.5-.08-.74-.11-.11-.02-.21-.03-.32-.04l-.14-.02c-.16-.05-.19-.05-.08 0 .04-.07.49 1.06.5 1.06-.04-.02.12-.26.04-.1.04-.07.09-.15.13-.22.02-.03.17-.24.12-.19a6 6 0 0 1 .57-.59c.02-.02.2-.17.08-.08.35-.28.77-.49 1.18-.67.68-.3.89-1.27.62-1.89s-1.07-1.16-1.79-.88Zm-50.1 4.13a5.56 5.56 0 0 0-2.69 2.26c-.21.34-.37.79-.14 1.1.17.23.47.3.75.35 1.69.29 3.4.54 5.1.75 1.02.12 2.12.22 3.02-.29.79-.45 1.27-1.29 1.71-2.09.17-.31.34-.65.26-.99-.11-.44-.58-.66-1-.82-2.73-.98-6.09-1.18-8.25.76"/><path d="M56.71 99.65c-1.12.44-2.16 1.06-2.95 1.99-.95 1.11-1.82 2.77-.58 4.04.91.93 2.53.95 3.75 1.14 1.31.2 2.63.43 3.95.53 1.38.11 2.7-.17 3.79-1.04.91-.72 1.7-1.96 2.07-3.06 1.06-3.14-3.11-4.03-5.32-4.3-2.49-.31-5.36.18-6.81 2.45-.35.55-.22 1.33.23 1.78.49.49 1.18.51 1.78.23l.42-.21c.09-.05.19-.1.28-.14-.03.01-.21.08-.04.02.32-.1.64-.2.96-.29s.66-.18.99-.25c.08-.02.16-.03.23-.04-.07.01-.36.03 0 0 .19-.02.38-.03.56-.04.35-.01.71 0 1.06.03.16.01.33.03.49.05-.33-.04.16.03.26.05.35.07.7.15 1.04.24.16.04.31.09.47.14.1.03.2.07.31.1.16.05.15.08 0 0 .16.09.07.06.07.03 0-.02-.33-.66-.33-.73 0-.24.06-.24-.08.02-.18.33-.37.65-.58.96-.03.04-.21.24-.04.05-.06.06-.11.13-.17.18s-.12.12-.18.17c.03-.03.17-.12 0-.02-.08.04-.15.09-.23.13.04-.02.18-.06 0-.01-.11.03-.23.06-.35.08-.28.05.21 0-.08 0-1.75.06-3.47-.3-5.15-.56-.25-.04-.5-.08-.74-.11-.11-.02-.21-.03-.32-.04l-.14-.02c-.16-.05-.19-.05-.08 0 .04-.07.49 1.06.5 1.06-.04-.02.12-.26.04-.1.04-.07.09-.15.13-.22.02-.03.17-.24.12-.19a6 6 0 0 1 .57-.59c.02-.02.2-.17.08-.08.35-.28.77-.49 1.18-.67.68-.3.89-1.27.62-1.89s-1.07-1.16-1.79-.88Zm19.52 5.41a5.56 5.56 0 0 0-2.69 2.26c-.21.34-.37.79-.14 1.1.17.23.47.3.75.35 1.69.29 3.4.54 5.1.75 1.02.12 2.12.22 3.02-.29.79-.45 1.27-1.29 1.71-2.09.17-.31.34-.65.26-.99-.11-.44-.58-.66-1-.82-2.73-.98-6.09-1.18-8.25.76"/><path d="M75.82 103.6c-1.12.44-2.16 1.06-2.95 1.99-.95 1.11-1.82 2.77-.58 4.04.91.93 2.53.95 3.75 1.14 1.31.2 2.63.43 3.95.53 1.38.11 2.7-.17 3.79-1.04.91-.72 1.7-1.96 2.07-3.06 1.06-3.14-3.11-4.03-5.32-4.3-2.49-.31-5.36.18-6.81 2.45-.35.55-.22 1.33.23 1.78.49.49 1.18.51 1.78.23l.42-.21c.09-.05.19-.1.28-.14-.03.01-.21.08-.04.02.32-.1.64-.2.96-.29s.66-.18.99-.25c.08-.02.16-.03.23-.04-.07.01-.36.03 0 0 .19-.02.38-.03.56-.04.35-.01.71 0 1.06.03.16.01.33.03.49.05-.33-.04.16.03.26.05.35.07.7.15 1.04.24.16.04.31.09.47.14.1.03.2.07.31.1.16.05.15.08 0 0 .16.09.07.06.07.03 0-.02-.33-.66-.33-.73 0-.24.06-.24-.08.02-.18.33-.37.65-.58.96-.03.04-.21.24-.04.05-.06.06-.11.13-.17.18s-.12.12-.18.17c.03-.03.17-.12 0-.02-.08.04-.15.09-.23.13.04-.02.18-.06 0-.01-.11.03-.23.06-.35.08-.28.05.21 0-.08 0-1.75.06-3.47-.3-5.15-.56-.25-.04-.5-.08-.74-.11-.11-.02-.21-.03-.32-.04l-.14-.02c-.16-.05-.19-.05-.08 0 .04-.07.49 1.06.5 1.06-.04-.02.12-.26.04-.1.04-.07.09-.15.13-.22.02-.03.17-.24.12-.19a6 6 0 0 1 .57-.59c.02-.02.2-.17.08-.08.35-.28.77-.49 1.18-.67.68-.3.89-1.27.62-1.89s-1.07-1.16-1.79-.88Zm19.29 5.39a5.56 5.56 0 0 0-2.69 2.26c-.21.34-.37.79-.14 1.1.17.23.47.3.75.35 1.69.29 3.4.54 5.1.75 1.02.12 2.12.22 3.02-.29.79-.45 1.27-1.29 1.71-2.09.17-.31.34-.65.26-.99-.11-.44-.58-.66-1-.82-2.73-.98-6.09-1.18-8.25.76"/><path d="M94.71 107.53c-1.12.44-2.16 1.06-2.95 1.99-.95 1.11-1.82 2.77-.58 4.04.91.93 2.53.95 3.75 1.14 1.31.2 2.63.43 3.95.53 1.38.11 2.7-.17 3.79-1.04.91-.72 1.7-1.96 2.07-3.06 1.06-3.14-3.11-4.03-5.32-4.3-2.49-.31-5.36.18-6.81 2.45-.35.55-.22 1.33.23 1.78.49.49 1.18.51 1.78.23l.42-.21c.09-.05.19-.1.28-.14-.03.01-.21.08-.04.02.32-.1.64-.2.96-.29s.66-.18.99-.25c.08-.02.16-.03.23-.04-.07.01-.36.03 0 0 .19-.02.38-.03.56-.04.35-.01.71 0 1.06.03.16.01.33.03.49.05-.33-.04.16.03.26.05.35.07.7.15 1.04.24.16.04.31.09.47.14.1.03.2.07.31.1.16.05.15.08 0 0 .16.09.07.06.07.03 0-.02-.33-.66-.33-.73 0-.24.06-.24-.08.02-.18.33-.37.65-.58.96-.03.04-.21.24-.04.05-.06.06-.11.13-.17.18s-.12.12-.18.17c.03-.03.17-.12 0-.02-.08.04-.15.09-.23.13.04-.02.18-.06 0-.01-.11.03-.23.06-.35.08-.28.05.21 0-.08 0-1.75.06-3.47-.3-5.15-.56-.25-.04-.5-.08-.74-.11-.11-.02-.21-.03-.32-.04l-.14-.02c-.16-.05-.19-.05-.08 0 .04-.07.49 1.06.5 1.06-.04-.02.12-.26.04-.1.04-.07.09-.15.13-.22.02-.03.17-.24.12-.19a6 6 0 0 1 .57-.59c.02-.02.2-.17.08-.08.35-.28.77-.49 1.18-.67.68-.3.89-1.27.62-1.89s-1.07-1.16-1.79-.88Zm-50.09 4.13a5.56 5.56 0 0 0-2.69 2.26c-.21.34-.37.79-.14 1.1.17.23.47.3.75.35 1.69.29 3.4.54 5.1.75 1.02.12 2.12.22 3.02-.29.79-.45 1.27-1.29 1.71-2.09.17-.31.34-.65.26-.99-.11-.44-.58-.66-1-.82-2.73-.98-6.09-1.18-8.25.76"/><path d="M44.21 110.2c-1.12.44-2.16 1.06-2.95 1.99-.95 1.11-1.82 2.77-.58 4.04.91.93 2.53.95 3.75 1.14 1.31.2 2.63.43 3.95.53 1.38.11 2.7-.17 3.79-1.04.91-.72 1.7-1.96 2.07-3.06 1.06-3.14-3.11-4.03-5.32-4.3-2.49-.31-5.36.18-6.81 2.45-.35.55-.22 1.33.23 1.78.49.49 1.18.51 1.78.23l.42-.21c.09-.05.19-.1.28-.14-.03.01-.21.08-.04.02.32-.1.64-.2.96-.29s.66-.18.99-.25c.08-.02.16-.03.23-.04-.07.01-.36.03 0 0 .19-.02.38-.03.56-.04.35-.01.71 0 1.06.03.16.01.33.03.49.05-.33-.04.16.03.26.05.35.07.7.15 1.04.24.16.04.31.09.47.14.1.03.2.07.31.1.16.05.15.08 0 0 .16.09.07.06.07.03 0-.02-.33-.66-.33-.73 0-.24.06-.24-.08.02-.18.33-.37.65-.58.96-.03.04-.21.24-.04.05-.06.06-.11.13-.17.18s-.12.12-.18.17c.03-.03.17-.12 0-.02-.08.04-.15.09-.23.13.04-.02.18-.06 0-.01-.11.03-.23.06-.35.08-.28.05.21 0-.08 0-1.75.06-3.47-.3-5.15-.56-.25-.04-.5-.08-.74-.11-.11-.02-.21-.03-.32-.04l-.14-.02c-.16-.05-.19-.05-.08 0 .04-.07.49 1.06.5 1.06-.04-.02.12-.26.04-.1.04-.07.09-.15.13-.22.02-.03.17-.24.12-.19a6 6 0 0 1 .57-.59c.02-.02.2-.17.08-.08.35-.28.77-.49 1.18-.67.68-.3.89-1.27.62-1.89s-1.07-1.16-1.79-.88Zm19.52 5.4a5.56 5.56 0 0 0-2.69 2.26c-.21.34-.37.79-.14 1.1.17.23.47.3.75.35 1.69.29 3.4.54 5.1.75 1.02.12 2.12.22 3.02-.29.79-.45 1.27-1.29 1.71-2.09.17-.31.34-.65.26-.99-.11-.44-.58-.66-1-.82-2.73-.98-6.09-1.18-8.25.76"/><path d="M63.32 114.14c-1.12.44-2.16 1.06-2.95 1.99-.95 1.11-1.82 2.77-.58 4.04.91.93 2.53.95 3.75 1.14 1.31.2 2.63.43 3.95.53 1.38.11 2.7-.17 3.79-1.04.91-.72 1.7-1.96 2.07-3.06 1.06-3.14-3.11-4.03-5.32-4.3-2.49-.31-5.36.18-6.81 2.45-.35.55-.22 1.33.23 1.78.49.49 1.18.51 1.78.23l.42-.21c.09-.05.19-.1.28-.14-.03.01-.21.08-.04.02.32-.1.64-.2.96-.29s.66-.18.99-.25c.08-.02.16-.03.23-.04-.07.01-.36.03 0 0 .19-.02.38-.03.56-.04.35-.01.71 0 1.06.03.16.01.33.03.49.05-.33-.04.16.03.26.05.35.07.7.15 1.04.24.16.04.31.09.47.14.1.03.2.07.31.1.16.05.15.08 0 0 .16.09.07.06.07.03 0-.02-.33-.66-.33-.73 0-.24.06-.24-.08.02-.18.33-.37.65-.58.96-.03.04-.21.24-.04.05-.06.06-.11.13-.17.18s-.12.12-.18.17c.03-.03.17-.12 0-.02-.08.04-.15.09-.23.13.04-.02.18-.06 0-.01-.11.03-.23.06-.35.08-.28.05.21 0-.08 0-1.75.06-3.47-.3-5.15-.56-.25-.04-.5-.08-.74-.11-.11-.02-.21-.03-.32-.04l-.14-.02c-.16-.05-.19-.05-.08 0 .04-.07.49 1.06.5 1.06-.04-.02.12-.26.04-.1.04-.07.09-.15.13-.22.02-.03.17-.24.12-.19a6 6 0 0 1 .57-.59c.02-.02.2-.17.08-.08.35-.28.77-.49 1.18-.67.68-.3.89-1.27.62-1.89s-1.07-1.16-1.79-.88Zm19.3 5.39a5.56 5.56 0 0 0-2.69 2.26c-.21.34-.37.79-.14 1.1.17.23.47.3.75.35 1.69.29 3.4.54 5.1.75 1.02.12 2.12.22 3.02-.29.79-.45 1.27-1.29 1.71-2.09.17-.31.34-.65.26-.99-.11-.44-.58-.66-1-.82-2.73-.98-6.09-1.18-8.25.76"/><path d="M82.21 118.07c-1.12.44-2.16 1.06-2.95 1.99-.95 1.11-1.82 2.77-.58 4.04.91.93 2.53.95 3.75 1.14 1.31.2 2.63.43 3.95.53 1.38.11 2.7-.17 3.79-1.04.91-.72 1.7-1.96 2.07-3.06 1.06-3.14-3.11-4.03-5.32-4.3-2.49-.31-5.36.18-6.81 2.45-.35.55-.22 1.33.23 1.78.49.49 1.18.51 1.78.23l.42-.21c.09-.05.19-.1.28-.14-.03.01-.21.08-.04.02.32-.1.64-.2.96-.29s.66-.18.99-.25c.08-.02.16-.03.23-.04-.07.01-.36.03 0 0 .19-.02.38-.03.56-.04.35-.01.71 0 1.06.03.16.01.33.03.49.05-.33-.04.16.03.26.05.35.07.7.15 1.04.24.16.04.31.09.47.14.1.03.2.07.31.1.16.05.15.08 0 0 .16.09.07.06.07.03 0-.02-.33-.66-.33-.73 0-.24.06-.24-.08.02-.18.33-.37.65-.58.96-.03.04-.21.24-.04.05-.06.06-.11.13-.17.18s-.12.12-.18.17c.03-.03.17-.12 0-.02-.08.04-.15.09-.23.13.04-.02.18-.06 0-.01-.11.03-.23.06-.35.08-.28.05.21 0-.08 0-1.75.06-3.47-.3-5.15-.56-.25-.04-.5-.08-.74-.11-.11-.02-.21-.03-.32-.04l-.14-.02c-.16-.05-.19-.05-.08 0 .04-.07.49 1.06.5 1.06-.04-.02.12-.26.04-.1.04-.07.09-.15.13-.22.02-.03.17-.24.12-.19a6 6 0 0 1 .57-.59c.02-.02.2-.17.08-.08.35-.28.77-.49 1.18-.67.68-.3.89-1.27.62-1.89s-1.07-1.16-1.79-.88Z"/></svg>