<?xml version="1.0" encoding="UTF-8"?><svg xmlns="http://www.w3.org/2000/svg" viewBox="0 0 180 180"><path d="M64.7 83.45c-6.44 9.22-12.88 18.43-19.32 27.65 4.05-1.6 8.23-2.88 12.48-3.82-.32 2.32-.63 4.64-.95 6.97 3.8-2.38 7.61-4.76 11.41-7.14.1 2.04.2 4.08.31 6.12.02.42.05.87.29 1.22.77 1.14 2.53.2 3.5-.78l5.38-5.44c.44 2.29 1.4 4.49 2.77 6.38 6.22-7.96 11.95-16.3 17.14-24.97.66-1.11 1.32-2.53.64-3.62-.47-.76-1.42-1.04-2.28-1.26-8.41-2.13-17.08-3.26-25.76-3.37-1.8-.02-4.01.27-4.65 1.95"/><path d="M63.28 82.62c-6.66 9.07-13.11 18.29-19.59 27.49-.94 1.34.64 3.48 2.21 2.87 4.07-1.58 8.21-2.91 12.46-3.91-.78-.6-1.57-1.2-2.35-1.79l-.9 6.97c-.18 1.38 1.66 2.23 2.72 1.56q5.685-3.6 11.4-7.17l-2.67-1.53c.11 2.14.12 4.31.32 6.44.16 1.75 1.24 3.22 3.13 3.2 1.79-.02 3.18-1.3 4.36-2.49l4.72-4.75c-1-.27-2.01-.53-3.01-.8.5 2.45 1.5 4.77 2.95 6.82.59.84 2.07 1.36 2.85.37 6.22-7.95 12.03-16.25 17.26-24.89 1.17-1.94 2.22-4.42.55-6.42-1.43-1.71-4.09-1.98-6.13-2.45-5.1-1.17-10.31-1.94-15.53-2.38-2.76-.23-5.58-.47-8.35-.37-2.21.08-4.74.72-5.7 2.94-.43.97-.29 2.11.71 2.69.86.5 2.23.26 2.69-.71.55-1.15 2.36-.95 3.43-.94 2.17.03 4.34.13 6.5.3 4.4.33 8.75.94 13.08 1.8 1.9.38 4.13.6 5.92 1.35.61.26.44.52.16 1.14-.46 1.01-1.13 1.96-1.7 2.9-2.21 3.66-4.53 7.25-6.93 10.78-2.71 3.98-5.56 7.87-8.52 11.67.95.12 1.9.24 2.85.37a15.7 15.7 0 0 1-2.6-5.94c-.28-1.35-2.1-1.72-3.01-.8-1.01 1.02-2.02 2.04-3.02 3.07-.92.94-1.82 2.11-2.91 2.85-.08.05-.51.22-.54.28-.11.01-.12.03-.05.04.18.06.31.17.42.35.1-.05-.1-1.86-.11-1.97-.08-1.49-.15-2.98-.22-4.47-.06-1.29-1.48-2.28-2.67-1.53-3.81 2.38-7.61 4.75-11.43 7.11l2.66 2.04c.33-2.32.67-4.63 1-6.95.2-1.42-.79-2.61-2.29-2.29-4.26.91-8.46 2.13-12.51 3.72l2.21 2.87c6.41-9.23 12.83-18.45 19.06-27.8 1.19-1.79-1.62-3.34-2.85-1.66Zm-50.7 60.07c4.75-5.19 9.44-9.71 15.83-12.66l-.72 6.06c3.86-1.87 7.85-3.48 11.92-4.83-.03 2.74-.81 5.48-2.21 7.83 3.99-1.22 7.91-2.69 11.72-4.39-1.01 2.22-1.8 4.54-2.36 6.91 4.08-.61 8.1-1.61 11.99-2.98-.99.35-2.59 3.2-3.37 4.03a47 47 0 0 1-4.03 3.84c-5.55 4.72-12.29 8.31-19.44 10.09-5.45 1.36-16.76 3.57-20.53-2.16-1.76-2.67-1.59-6.44-.28-9.26 1.75-3.76 10.57-10.92 13.93-13.36"/><path d="M13.55 143.66c4.71-4.75 9.58-9.32 15.72-12.15l-2.58-1.48c-.25 2.02-.58 4.03-.81 6.06-.17 1.48 1.63 2.09 2.71 1.56 3.73-1.82 7.54-3.39 11.48-4.71l-2.21-1.68c-.06 2.48-.74 4.8-1.99 6.94-.76 1.3.5 3.05 1.99 2.59 4.15-1.26 8.19-2.79 12.15-4.54l-2.45-2.45c-1.07 2.37-1.94 4.81-2.56 7.34-.36 1.45.88 2.43 2.23 2.23q6.135-.915 12-2.94l-1.43-3.39c-1.05.48-1.78 1.6-2.43 2.5-.77 1.06-1.38 1.9-2.29 2.81a48.2 48.2 0 0 1-8.15 6.51c-5.06 3.22-10.6 5.33-16.47 6.51-4.09.82-9.46 1.76-13.34-.27-2.22-1.16-3.09-3.36-2.97-5.81.11-2.18 1.05-3.94 2.4-5.5 3.45-3.98 7.56-7.46 11.66-10.76 1.48-1.19-.45-3.68-2.04-2.64-4.25 2.79-8.48 6.13-11.93 9.87-1.78 1.92-3.27 3.95-3.86 6.55-.77 3.36-.25 7.04 2.04 9.71 3.49 4.07 9.94 3.97 14.78 3.36 6.14-.78 12.11-2.5 17.63-5.33 3.75-1.92 7.24-4.34 10.39-7.13 1.48-1.31 2.99-2.69 4.17-4.29.65-.88 1.48-2.5 2.3-2.88 1.89-.88.55-4.09-1.43-3.39-3.9 1.37-7.89 2.38-11.98 3.03l2.23 2.23c.53-2.23 1.23-4.4 2.16-6.49.75-1.68-.77-3.2-2.45-2.45-3.67 1.63-7.45 3.03-11.28 4.23l1.99 2.59c1.53-2.68 2.35-5.64 2.43-8.72.03-1.09-1.14-2.04-2.21-1.68-4.21 1.4-8.36 3.05-12.37 4.96l2.71 1.56c.25-2.02.41-4.04.63-6.06.16-1.41-1.54-1.97-2.58-1.48-6.37 3.03-11.41 7.85-15.93 13.17-1.13 1.33.68 3.22 1.94 1.94Zm39.62-82.05c3.48-.02 6.95.04 10.43.02l4.97-.02c1.29 0 2.82-.18 4.05.32 1.18.48 1.72 1.7 2.31 2.75.69 1.23 1.48 2.4 2.43 3.44 1.73 1.9 3.89 3.36 6.25 4.35 4.97 2.08 10.66 1.59 15.29-1.14 2.37-1.4 4.31-3.34 5.82-5.63.59-.89 1.12-1.83 1.86-2.61.91-.95 1.83-1.06 3.1-1.09 7.23-.14 14.47-.9 21.69-1.38 3.19-.21 6.4-.49 9.6-.43 1.27.02 2.6.1 3.76.69 1.21.62 1.96 1.8 2.58 2.97 1.29 2.42 2.09 5.11 2.56 7.81.95 5.46.25 11.44-2.26 16.41-.6 1.19-1.31 2.34-2.23 3.31-.19.2-.4.38-.59.58-.85.86.24-.09-.12.12-.2.12-.41.22-.62.33-.28.14.51-.2.02 0-.13.05-.27.1-.4.15q-.45.165-.9.3c-.75.24-1.52.44-2.29.64-6.53 1.64-13.25 2.61-19.91 3.59-12.55 1.86-25.49 1.06-37.99-.82-6.37-.96-12.68-2.15-18.98-3.5-6.09-1.3-12.2-2.64-18.19-4.33C39.63 86.8 34 84.71 28.8 81.68c-3.6-2.1-7.77-4.73-9.53-8.7-.8-1.81-.88-3.92-.03-5.73.49-1.04 1.28-2.07 2.3-2.64 1.15-.64 2.54-.54 3.82-.48 4.25.21 8.49-.15 12.73-.29 2.43-.08 4.86-.15 7.29-.15 2.8 0 2.77-4.19 0-4.33-5.15-.26-10.31.13-15.46.32-2.06.08-4.1-.13-6.15-.08-3.31.09-5.99 1.63-7.83 4.37-3.21 4.78-1.72 10.59 1.75 14.71s8.28 6.82 12.92 9.04c5.86 2.8 12.08 4.71 18.38 6.23 6.43 1.55 12.92 2.93 19.41 4.2 13.41 2.62 27.04 4.61 40.74 4.19 8.86-.27 17.73-1.76 26.43-3.43 3.48-.67 7.17-1.27 10.42-2.74 1.89-.85 3.28-2.62 4.37-4.33 1.62-2.54 2.71-5.53 3.36-8.46 1.35-6.05.96-12.55-1.35-18.32-1.09-2.71-2.43-5.59-4.92-7.28-2.37-1.61-5.37-1.67-8.14-1.59-7.79.22-15.58 1.14-23.36 1.69-1.63.11-3.25.22-4.88.29-2.18.09-4.33 0-6.16 1.38-2.08 1.57-3.01 4.06-4.72 5.94a14.03 14.03 0 0 1-6.96 4.16c-5.16 1.31-10.76-.77-14.03-4.94-1.79-2.27-2.62-5.13-5.65-6.1-1.35-.43-2.82-.4-4.22-.37l-5.71.15c-3.48.09-6.95.25-10.43.33-1.85.05-1.86 2.88 0 2.88Z"/><path d="M38.45 61.17c-2.63-3.46-5.4-6.82-8.29-10.07-1.77-1.99-3.62-3.96-5.91-5.31-1.84-1.09-4.49-1.62-5.92-.02-.91 1.01-.97 2.5-.93 3.85.11 4.28.7 8.54 1.76 12.68a65.8 65.8 0 0 1 17.72-2.03"/><path d="M39.84 60.36c-2.02-2.78-4.13-5.51-6.31-8.17-2.07-2.53-4.19-5.08-6.8-7.07-2.16-1.64-5.1-3.02-7.84-2.02-3.39 1.24-3.57 4.84-3.41 7.92.2 3.98.8 7.94 1.76 11.81.26 1.06 1.42 1.65 2.45 1.39 2.79-.7 5.61-1.25 8.46-1.57s5.82-.22 8.73-.46c2.49-.2 2.42-3.54 0-3.83-2.97-.35-6.17.02-9.13.36-3.07.36-6.12.9-9.12 1.66.82.46 1.63.93 2.45 1.39-.91-3.59-1.48-7.25-1.65-10.95-.04-.96-.43-3.14.5-3.85.73-.55 2.08-.1 2.81.22 2.96 1.33 5.17 4.22 7.29 6.55 2.52 2.77 4.95 5.63 7.29 8.56 1.13 1.42 3.6-.47 2.53-1.95Zm45.83 62.96c1.12.07 2.3-.21 3.41-.35 1.2-.16 2.39-.31 3.59-.48 2.27-.33 4.55-.63 6.82-1.03.81-.14 1.32-1.09 1.2-1.84s-.81-1.56-1.65-1.46c-2.34.3-4.67.7-6.99 1.07-1.13.18-2.26.38-3.39.58-1.1.19-2.31.28-3.36.68-1.51.58-1.3 2.73.38 2.84Zm-2.19 9.35c1.62 1.02 3.3 1.96 5.05 2.74 1.8.81 3.68 1.68 5.65 1.97.75.11 1.48-.12 1.79-.88.26-.65.07-1.56-.62-1.89-.93-.44-1.86-.79-2.83-1.14-.86-.31-1.69-.64-2.41-.96-1.73-.76-3.43-1.59-5.06-2.54-.73-.42-1.7-.17-2.13.56s-.16 1.68.56 2.13Zm-5.76 7.65c.35 1.41.84 2.76 1.42 4.09.27.62.56 1.22.89 1.81.36.67.74 1.38 1.29 1.9.5.47 1.33.64 1.93.25.56-.36.98-1.13.73-1.8-.27-.73-.7-1.35-1.08-2.03-.31-.55-.6-1.11-.86-1.68-.07-.15-.14-.31-.21-.46-.07-.17-.07-.15.02.04-.03-.08-.06-.16-.1-.23-.11-.27-.21-.55-.31-.83-.23-.63-.43-1.28-.6-1.93-.22-.82-1.16-1.4-1.99-1.13s-1.35 1.11-1.13 1.99Zm33.79-67.59c-1.38 2.18-2.35 4.58-2.74 7.14s-.55 5.39.33 7.82c.23.64.8 1.09 1.51.98.63-.09 1.25-.66 1.19-1.35-.18-2.29-.5-4.49-.16-6.79s1.01-4.51 2.06-6.53c.75-1.45-1.31-2.66-2.19-1.28Zm8.4-1.02c-1.38 2.18-2.35 4.58-2.74 7.14s-.55 5.39.33 7.82c.23.64.8 1.09 1.51.98.63-.09 1.25-.66 1.19-1.35-.18-2.29-.5-4.49-.16-6.79s1.01-4.51 2.06-6.53c.75-1.45-1.31-2.66-2.19-1.28Zm8.41-1.02c-1.38 2.18-2.35 4.58-2.74 7.14s-.55 5.39.33 7.82c.23.64.8 1.09 1.51.98.63-.09 1.25-.66 1.19-1.35-.18-2.29-.5-4.49-.16-6.79s1.01-4.51 2.06-6.53c.75-1.45-1.31-2.66-2.19-1.28Zm16.85 4.05c.26-4.93 1.76-9.74 4.36-13.93 2.04-3.28 5.9-8.48 10.43-7.45 3.96.9 5.8 5.7 6.76 9.16 1.16 4.17 1.48 8.53 1.41 12.84s-.6 8.87-1.55 13.21c-.78 3.54-1.78 7.1-3.49 10.31-1.52 2.86-3.68 5.86-6.78 7.13-2.83 1.16-6.32.61-8.4-1.68-2.31-2.54-3.07-6.35-3.59-9.63-.29-1.84-.59-3.69-.61-5.55-.02-1.55.15-3.13.26-4.68.09-1.24-1.97-1.54-2.19-.3-.29 1.58-.32 3.11-.39 4.71-.08 1.87-.23 3.77-.09 5.64.28 3.73 1.06 7.74 3.17 10.91s5.88 5.1 9.88 4.7c4.31-.42 7.65-3.19 10.1-6.6 2.41-3.34 3.87-7.28 4.93-11.24 1.31-4.88 2.05-9.95 2.29-14.99s-.05-10.18-1.3-15.07c-1.12-4.38-3.27-9.46-7.58-11.54-5.94-2.87-11.32 1.76-14.61 6.38-3.66 5.14-5.66 11.36-5.86 17.65-.06 1.86 2.78 1.84 2.88 0ZM74.56 61.09c1.08-2.22 2.97-4.04 5.36-4.77 2.93-.9 6.21-.68 9.24-.68s6.44-.2 9.58.13c3.19.34 4.57 3.78 6.61 5.8 1.66 1.65 4.27-.44 3.19-2.46-.89-1.66-2.38-3.23-3.67-4.59s-2.7-2.35-4.49-2.71c-1.91-.39-3.9-.27-5.83-.26s-3.91.03-5.87.06c-3.61.07-7.49-.1-10.86 1.37-3 1.3-5.13 3.8-6.22 6.85-.61 1.72 2.17 2.91 2.97 1.25Z"/><path d="M82.92 54.86c-1.65 1.65-2.79 3.63-3.47 5.86-.33 1.09-.51 2.23-.6 3.37-.09 1.21-.15 2.6.37 3.71.48 1.03 2.27.79 2.48-.32.2-1.04-.01-2.13.06-3.19.06-.95.24-1.88.49-2.79.5-1.85 1.41-3.64 2.57-5.16.36-.48.12-1.25-.31-1.57a1.22 1.22 0 0 0-1.6.1Zm14.41-.3c-1.92 2.25-3.36 4.85-4.12 7.72-.37 1.41-.59 2.87-.66 4.33s-.17 3.28.54 4.55c.55.99 2.29.85 2.53-.33.25-1.27-.09-2.67-.05-3.97s.22-2.45.52-3.65c.61-2.4 1.65-4.75 3.17-6.71.45-.58.57-1.36 0-1.92-.49-.49-1.44-.56-1.92 0Z"/><path d="m88.17 52.45 15.62-20.84c1.84-2.45 3.72-4.95 6.25-6.68 1.54-1.06 3.28-1.79 5.06-2.37 3.05-.99 6.91-1.3 8.96 1.16 1.38 1.65 1.43 4.02 1.25 6.16-.8 9.41-4.82 18.2-8.79 26.77-.23.49-.48 1.01-.95 1.27-.34.18-.74.2-1.12.22-3.23.13-4.44 1.24-7.67 1.37-.65.03.54-.97 0-1.32-.52-.33-2.45-1.93-2.75-2.47-1.89-3.38-8.34-4.24-12.13-3.43"/><path d="M89.22 53.5c4.23-5.19 8.25-10.53 12.28-15.88 3.52-4.67 6.81-10.42 12.46-12.72 2.06-.84 4.6-1.66 6.84-1.09 2.5.63 2.83 3.05 2.72 5.3-.31 6.13-2.39 12.18-4.71 17.81-.64 1.55-1.32 3.08-2.01 4.6-.38.84-.76 1.67-1.15 2.5-.27.57-.6 1.82-1.07 2.24.03-.03.5-.26-.14-.04-.43.15-1.07.08-1.53.14-.68.09-1.35.22-2.02.39-.64.17-1.28.37-1.93.52-.5.12-1.38.43-1.83.37l1.14.88-.05-.07.26.96c-.05.44-.17.72.08.13.09-.2.15-.36.19-.58.14-.64.01-1.29-.37-1.82-.45-.62-1.06-.91-1.61-1.38-.35-.3-.67-.61-1-.92-.03-.03-.31-.36-.16-.17.18.24-.19-.33-.23-.37-.59-.84-1.34-1.52-2.19-2.08-3.32-2.19-7.99-2.53-11.8-1.76-2.38.48-1.37 4.1 1 3.63 2.59-.51 5.76-.26 8.12.96 1.17.6 1.58 1.38 2.41 2.32.41.46.89.87 1.37 1.27.23.2.47.39.71.57.18.14.37.28.55.42.4.31.24.08-.48-.68v-1.01c-.08.45.15-.19-.08.24-.19.35-.31.71-.32 1.11-.03.73.33 1.46.99 1.83 1.34.76 3.58.03 4.97-.34 1.42-.38 2.73-.63 4.19-.78 2.07-.21 2.91-1.49 3.71-3.24 3.17-6.91 6.36-13.95 7.84-21.45.65-3.27 1.45-7.21.34-10.47-1.03-3.01-3.69-4.63-6.78-4.84-3.19-.22-6.58.97-9.36 2.45-3.18 1.69-5.47 4.41-7.61 7.24-5.48 7.24-10.95 14.52-16.1 22-.94 1.37 1.26 3.11 2.33 1.8ZM14.91 91.81c-3.46 5.72-7.09 12.13-5.55 19.07 1.32 5.92 6.94 10.08 12.99 8.63 2.91-.7 6.23-2.45 8.16-4.79 1.87-2.27 2.33-5.84-.09-7.92-2.09-1.81-5.21-1.42-7.55-.36-2.34 1.05-4.34 2.82-5.89 4.83-3.49 4.53-5.2 11.46-2.59 16.8.8 1.64 3.18.45 2.83-1.19-.83-3.84-.86-7.56.97-11.15 1.55-3.04 4.73-6.72 8.45-6.78 2.06-.03 2.58 1.82 1.44 3.39-1.38 1.91-4.19 3.29-6.41 3.87-4.52 1.19-8.25-2.15-9.23-6.41-1.37-5.92 1.99-11.68 4.86-16.59.9-1.54-1.47-2.92-2.39-1.4m143.15-15.37c-.83 1.6-1.25 3.36-1.25 5.17 0 .59.01 1.28.3 1.8.43.79 1.34 1.19 2.21.97.67-.17 1.19-.62 1.46-1.25.32-.76.17-1.61-.22-2.31s-1.34-1-2.09-.68-1.21 1.17-.97 1.97c.06.18.13.36.15.55l-.06-.45v.18l.06-.45-.02.09.17-.4c-.07.15-.01.08.16-.19.27-.18.33-.24.19-.16l.4-.17s-.07.03-.11.03l.44-.06h-.11l.44.06h-.05c.13.04.27.1.4.16.17.12.31.26.43.42l.17.4a.5.5 0 0 1-.03-.17l.06.44c-.11-.95-.12-1.91 0-2.86l-.06.42c.11-.81.3-1.63.56-2.41.23-.68-.21-1.43-.83-1.7s-1.47-.05-1.8.59ZM16.98 74.87c9 2.6 18.13 4.67 27.37 6.25 4.6.78 9.21 1.47 13.84 2 4.59.53 9.37 1.28 13.99 1.06 1.51-.07 2.02-2.48.38-2.78-4.56-.82-9.28-.93-13.89-1.45-4.6-.52-9.18-1.11-13.75-1.82-9.18-1.44-18.3-3.29-27.33-5.49-1.45-.35-2.05 1.82-.61 2.23"/></svg>