<?xml version="1.0" encoding="UTF-8"?><svg xmlns="http://www.w3.org/2000/svg" viewBox="0 0 180 180"><path d="M106.23 131.35c-12.34-8.89-14.29-25.33-13.19-39.37 1.19-15.13 6.89-30.41 19.01-40.13 4.79-3.84 11.2-7.23 17.5-5.66 5.57 1.39 9.72 6.06 11.86 11.22 2.86 6.92 2.52 15.11 1.78 22.41-.76 7.53-2.12 15.45-5.36 22.34-2.84 6.04-7.94 13.45-15.62 12.05-3.94-.72-7.35-2.99-10.93-4.66-4-1.86-8.11-2.71-12.5-3.01-2.1-.15-4.2-.12-6.31-.06-2.86.08-2.79 4.15 0 4.39 4.51.38 9.1.38 13.5 1.52 4.26 1.1 8.04 3.44 12.23 4.74 3.94 1.22 8.06 1.31 11.86-.39 3.64-1.62 6.41-4.6 8.61-7.84 4.64-6.85 6.72-15.06 7.96-23.13 1.3-8.49 2.1-17.69-.07-26.11-1.65-6.42-5.65-12.62-11.62-15.78-6.52-3.45-13.67-2.31-19.91 1.18-14.49 8.11-22.44 24.37-24.89 40.24-2.37 15.39-1.49 33.61 10.23 45.24 1.31 1.3 2.75 2.47 4.27 3.53 1.67 1.16 3.21-1.54 1.59-2.71Z"/><path d="M108.47 138.23c1.78 2.71 4.29 4.67 6.42 7.08 2.12 2.4 3.48 5.3 5.01 8.08 2.76 5.01 6.88 10.59 13.23 10.44 2.54-.06 5.13-1.05 6.77-3.05.81-.98 1.24-2.13 1.69-3.3.57-1.49 1.12-2.2 2.78-1.57 1.41.53 2.71 1.38 4.11 1.96 1.36.56 2.76 1.01 4.2 1.3 3.06.61 6.24.68 9.28-.06 5.52-1.34 12.31-6.68 9.43-13.08-1.09-2.42-3.4-3.46-5.74-4.36-1.72-.66-3.83-1.39-2.67-3.6.68-1.3 1.86-2.23 2.86-3.27 1.08-1.14 2.11-2.42 2.6-3.93.98-3-.54-5.81-2.96-7.56-5.27-3.82-11.94-1.38-17.82-2.56-3.56-.72-6.57-2.96-10.12-3.77s-7.49-.8-11.22-1.35c-2.62-.39-5.19-1.25-7.61-2.31-3.24-1.41-6.41-2.94-9.7-4.26-1.81-.72-3.12 2.36-1.34 3.17 2.65 1.2 5.18 2.62 7.76 3.96 2.09 1.08 4.12 2.28 6.38 2.98 5.74 1.78 12.08.68 17.66 3.07 2.94 1.26 5.56 2.7 8.79 3.07 2.87.33 5.75.03 8.63.08 2.35.04 5.4.32 7.07 2.21 1.73 1.96-.78 4.01-2.12 5.34-2.07 2.07-4.13 4.98-3.09 8.05.78 2.32 2.83 3.43 4.96 4.28 1.63.64 3.91 1.17 4.22 3.2.41 2.67-2.19 4.69-4.27 5.76-4.84 2.49-10.79 1.46-15.54-.7-2.57-1.17-5.74-2.37-8.08-.05-1.63 1.62-1.57 4.34-3.64 5.55-5.29 3.1-10.09-3.11-12.35-7.07-1.75-3.06-3.37-6.27-5.87-8.79-2.36-2.37-5.24-4.17-7.4-6.74-1.08-1.28-3.25.39-2.33 1.8Z"/><path d="M103.79 130.98c-8.56-2.88-16.65-7.19-24.83-11-8.21-3.82-16.43-7.64-24.65-11.43-8.13-3.75-16.25-7.52-24.39-11.25-3.57-1.64-7.44-3.12-10.53-5.6-3.18-2.56-4.82-6.19-5.81-10.07-3.42-13.4-1.01-28.93 9.06-38.96 1.26-1.25 2.61-2.54 4.16-3.43 1.52-.88 3.22-1.19 4.96-1.18 2.1.01 4.2.37 6.29.53 2.28.17 4.57.31 6.85.49 9.56.79 19.13 1.59 28.69 2.4 9.63.81 19.25 1.62 28.88 2.4 4.72.38 9.44.75 14.17 1.09 4.41.32 8.93.34 13.3 1.06 2.01.33 4 .82 5.84 1.72s3.21-1.57 1.54-2.63c-3.75-2.37-8.06-2.99-12.38-3.48-4.84-.55-9.71-.89-14.56-1.31-10.04-.85-20.08-1.64-30.11-2.48-9.99-.84-19.99-1.69-29.98-2.52-4.85-.4-9.72-.65-14.56-1.14-4.18-.43-8.29-.56-11.89 1.98C11.38 44.93 6.47 61.5 8.32 76.1c.52 4.12 1.39 8.26 3.14 12.05 1.82 3.94 4.88 6.89 8.61 9.03 3.77 2.17 7.88 3.83 11.83 5.63 4.25 1.93 8.49 3.86 12.74 5.79 8.64 3.93 17.29 7.85 25.94 11.76 8.51 3.84 16.96 8.01 25.67 11.37 2.21.85 4.46 1.63 6.73 2.29 1.95.57 2.74-2.39.83-3.03Z"/><path d="M50.26 36.97c-19.48 8.78-25.45 39.41-16.81 61.87 1.26 3.28.14-2.47 1.44.79.99 2.48.61 3.12 2.63 4.9 1.32 1.16 3.77 2.52 5.44 3.07 7.36 2.45 12.33 6.51 17.17 9.01 1.44.75 3.03-.73 2.39-2.22-.09-.22-.19-.43-.29-.65-6.25-13.93-7.87-30.28-3.67-45.15C62.25 55.53 71.71 39.5 87.2 39.8c1.03-1.75-22-3.47-30.08-3.86-3.26-.16-6.97.65-8.88 3.3"/><path d="M49.46 35.62c-9.63 4.22-15.82 13.31-18.97 23.06-3.48 10.77-3.7 22.69-1.09 33.67q.57 2.37 1.32 4.68c.4 1.22.77 2.64 1.46 3.74.89 1.42 2.95 1.42 3.66-.17.17-.38.2-.77.24-1.19.01-.12.02-.24.02-.36.01-.22 0 .08-.01.08-.03.18-.04.23-.01.14q.18-.69-.81 1.02l-.98.27h.04c-.33-.09-.66-.18-.98-.26-.9-.52-.54-.72-.33-.12.13.38.28.76.41 1.14.26.79.47 1.6.85 2.34.89 1.77 2.68 3.06 4.33 4.06 2 1.21 4.19 1.86 6.33 2.75 2.09.87 4.11 1.93 6.06 3.07 1.82 1.06 3.59 2.19 5.4 3.27 1.72 1.03 3.66 2.51 5.75 1.79 2.44-.84 2.86-3.4 1.94-5.5s-1.85-4.43-2.59-6.72c-5.55-17.11-4.29-36.9 5.78-52.13 4.54-6.87 11.34-12.42 19.93-12.31.7 0 1.51-.4 1.83-1.05 1.22-2.47-1.29-3.68-3.25-4.16-2.65-.64-5.4-1.02-8.1-1.34-6.35-.74-12.74-1.27-19.12-1.6-4.61-.24-9.27.43-12.2 4.37-1.47 1.97 1.9 4.6 3.44 2.65 2.04-2.59 5.32-2.72 8.36-2.55 2.53.14 5.05.3 7.58.49 2.95.22 5.89.46 8.84.75 1.44.14 2.88.31 4.32.46.59.06 1.19.13 1.78.2.28.03.56.07.83.1.54.07.23.03.66.09 1 .15 2.01.33 2.99.6.19.05.37.11.55.16.34.1.28.18-.03-.03.08.06.19.09.27.15-.68-.52-1.08-1.43-.57-2.48l1.83-1.05c-17.66-.16-27.89 18.25-31.32 33.34-2.37 10.43-2.09 21.4.49 31.77.63 2.53 1.4 5.03 2.31 7.47.46 1.24.97 2.47 1.49 3.69.08.19.39 1.03.51 1.07-.03-.01.09-.16.08-.12.11-.27.25.09-.06-.22-.59-.58-1.74-.97-2.45-1.4-.96-.58-1.9-1.17-2.86-1.75-2.03-1.25-4.09-2.46-6.23-3.5-2.45-1.2-5.13-1.89-7.53-3.14-1.82-.95-3.65-2.1-4.24-3.95-.48-1.5-1.05-4.3-3.1-4.28-1 0-1.77.75-1.98 1.69-.07.29-.09.65-.11.96 0 .07-.02.14-.01.2-.03-.3.25-.87.85-1.29l.98-.27h-.03c.33.09.65.18.98.26 1.09.69.52.72.43.29.07.29-.12-.29-.13-.33q-.3-.78-.57-1.56c-.4-1.16-.76-2.33-1.09-3.51-.64-2.33-1.13-4.71-1.49-7.1-.69-4.63-.78-9.38-.39-14.04.74-8.85 3.47-17.79 8.86-24.94 2.78-3.7 6.29-6.7 10.47-8.69 1.84-.88.23-3.51-1.59-2.71ZM92.7 109.5c1.88 7.12 7.06 12.96 9.3 19.97.42 1.32.76 2.71 1.56 3.85 1.32 1.85 3.61 2.65 5.58 3.77 6.31 3.6 9.5 10.73 13.32 16.91 1.8 2.91 3.95 5.81 7.06 7.26 3.1 1.45 7.36.92 9.18-1.98.53-.84.82-1.82 1.4-2.62 1.18-1.63 3.35-2.27 5.36-2.22s3.96.67 5.93 1.05c3.23.63 6.59.63 9.82 0 2.05-.4 4.12-1.09 5.62-2.54 1.49-1.45 2.25-3.83 1.33-5.7-1.31-2.67-5.39-3.54-5.82-6.48-.12-.78.07-1.58.3-2.34a22.3 22.3 0 0 1 2.57-5.61c.6-.93 1.28-1.88 1.37-2.98.2-2.45-2.52-4.05-4.9-4.7-5.34-1.46-11.28-1.44-15.83-4.59-1.61-1.12-3-2.61-4.83-3.31-2.85-1.1-6.07-.04-9.09-.47-3.3-.46-6.05-2.62-8.87-4.4-8.51-5.37-18.93-7.65-28.91-6.33-.5.07-1.04.16-1.37.55-.3.35-.33.84-.34 1.3-.03 2.45.52 4.91 1.58 7.12"/><path d="M91.25 109.9c.82 4.01 2.69 7.57 4.59 11.15.92 1.72 1.84 3.45 2.64 5.23.82 1.81 1.34 3.69 1.96 5.57.68 2.05 1.82 3.67 3.59 4.92 1.45 1.02 3.12 1.67 4.62 2.61 2.94 1.86 5.13 4.68 6.99 7.57 3.78 5.88 6.96 14.72 14.38 16.81 3.24.91 7.18.29 9.53-2.27 1.18-1.28 1.5-3.42 3.01-4.33s3.46-.66 5.08-.33c2.26.46 4.46 1.02 6.78 1.19s4.46.02 6.67-.34c3.98-.65 7.99-2.4 9.38-6.49.62-1.82.44-3.98-.62-5.61-.87-1.34-2.14-2.27-3.41-3.21-.88-.65-1.84-1.28-1.82-2.25s.53-2.04.87-2.89c.41-1 .92-1.96 1.48-2.87 1.11-1.82 2.25-3.55 1.83-5.79-.35-1.85-1.69-3.29-3.23-4.27-3.22-2.05-7.44-2.25-11.09-2.99-1.76-.36-3.55-.77-5.2-1.51-1.79-.8-3.2-2.05-4.75-3.21-1.75-1.31-3.65-2.02-5.83-2.19s-4.25.33-6.35.06c-3.76-.48-6.91-3.54-10.12-5.33a46 46 0 0 0-11.42-4.49c-4.05-.99-8.27-1.47-12.44-1.34-1.94.06-4.63-.06-6.36.9-2.11 1.17-2.06 3.53-1.8 5.63.28 2.23.9 4.26 2 6.23 1.12 2 4.63.65 3.8-1.6-.62-1.68-1.12-3.48-1.21-5.27 0-.15.02-1.32-.01-1.33.08.01-.46.47-.39.55 0 0 .44-.04.37-.05.9.12 2.05-.2 2.97-.24 3.61-.17 7.24.11 10.77.88s7.12 2.01 10.4 3.73 6.29 4.21 9.81 5.62c1.79.71 3.69.95 5.6.89 1.78-.06 3.7-.41 5.44.08 1.64.46 2.93 1.81 4.25 2.81 1.44 1.09 3.05 1.88 4.74 2.51 3.38 1.25 7.01 1.58 10.51 2.34 1.41.31 2.94.61 4.13 1.48 1.26.93.77 1.67.02 2.85-1.06 1.66-1.93 3.4-2.61 5.26s-1.17 3.77-.48 5.63c.55 1.47 1.62 2.53 2.84 3.47.91.7 2.05 1.35 2.73 2.26s.34 2.23-.35 3.11c-.99 1.26-2.65 1.83-4.15 2.2-3.92.97-7.83.56-11.72-.3-3.56-.79-7.61-1.14-10.46 1.61-1.24 1.19-1.52 2.98-2.68 4.17-.88.91-2.22 1.2-3.44 1.18-3.05-.05-5.46-2.38-7.16-4.71-2-2.75-3.57-5.8-5.34-8.7-1.74-2.87-3.66-5.72-6.08-8.06-1.19-1.15-2.52-2.2-3.94-3.06s-3.01-1.41-4.31-2.41c-1.38-1.05-1.71-2.7-2.25-4.26-.61-1.74-1.38-3.43-2.24-5.06-1.72-3.27-3.78-6.34-5.45-9.63-.81-1.6-1.6-3.21-2.18-4.9-.63-1.83-3.28-1.1-2.89.8Zm40.16-78.97c.23-2.11.53-4.2.9-6.29.39-2.22 1.02-4.42 1.22-6.67.08-.82-.7-1.57-1.46-1.66-.88-.11-1.54.4-1.85 1.21-.79 2.05-1.06 4.37-1.41 6.54-.37 2.28-.66 4.57-.88 6.86-.09.94.87 1.74 1.74 1.74 1.03 0 1.64-.8 1.74-1.74Zm15.96 7.61c1.83-1.49 3.69-2.94 5.54-4.41.91-.72 1.81-1.45 2.72-2.18s1.96-1.43 2.7-2.35c.53-.66.7-1.52.13-2.24s-1.43-.84-2.2-.44c-1.12.58-2.06 1.52-3.02 2.34-.91.77-1.83 1.54-2.74 2.31-1.82 1.55-3.62 3.12-5.45 4.65-.68.57-.59 1.73 0 2.32.68.68 1.63.56 2.32 0m7.96 14.45c1.95-.36 3.92-.72 5.85-1.21.95-.24 1.88-.52 2.82-.8 1.05-.32 2.11-.65 3.05-1.23.63-.4 1.04-1.22.8-1.97-.21-.66-.91-1.38-1.68-1.28-2.05.27-4 1.09-5.98 1.68-1.91.57-3.81 1.1-5.77 1.5-.91.19-1.43 1.26-1.2 2.11.26.96 1.2 1.37 2.11 1.2M21.46 44.31c21.38 3.08 42.77 6.08 64.16 9.08 6.03.85 12.08 1.89 18.14 2.51 1.49.15 1.84-2.36.36-2.62-5.31-.95-10.7-1.53-16.04-2.27s-10.7-1.49-16.05-2.24c-10.62-1.48-21.23-2.99-31.85-4.43-6.01-.82-12.03-1.64-18.04-2.45-1.59-.22-2.29 2.21-.67 2.44Z"/><path d="m120.85 111.46 9.82-3.28c1.58-.53 3.15-1.05 4.73-1.57 1.68-.56 3.47-1.01 5.07-1.78 1.61-.77.43-3.1-1.16-2.76s-3.18 1.06-4.72 1.6c-1.63.58-3.26 1.15-4.89 1.72-3.2 1.12-6.4 2.25-9.59 3.37-1.67.59-.97 3.25.74 2.68Zm-14.05-.54c6.75-3.54 13.5-7.07 20.25-10.61 3.37-1.77 6.75-3.54 10.12-5.31 1.61-.85 3.23-1.69 4.84-2.54 1.37-.72 2.72-1.5 3.14-3.09s-2.08-2.8-2.78-1.17c-.57 1.33-2.48 1.89-3.69 2.51-1.62.84-3.23 1.68-4.85 2.52-3.16 1.64-6.32 3.28-9.48 4.93l-19.17 9.99c-1.83.95-.21 3.72 1.62 2.77m-8.77-5.97c7.99-3.98 15.94-8.05 23.81-12.25 3.87-2.06 7.72-4.15 11.56-6.26 3.96-2.18 8.08-4.23 11.91-6.63 1.73-1.08.21-3.65-1.59-2.73-4.03 2.06-7.91 4.49-11.88 6.69s-7.68 4.22-11.54 6.29c-7.86 4.22-15.75 8.38-23.71 12.43-1.63.83-.2 3.27 1.44 2.46m-3.55-11.59c8.59-3.86 17.19-7.71 25.78-11.57 4.22-1.89 8.43-3.8 12.65-5.71 2.11-.95 4.22-1.9 6.32-2.85 1.97-.89 4.59-1.68 6.14-3.23 1.06-1.06-.02-2.82-1.44-2.47-1.1.28-2.09.93-3.11 1.42s-2 .93-3 1.38l-6.54 2.97c-4.21 1.91-8.42 3.82-12.63 5.74-8.56 3.91-17.12 7.83-25.68 11.74-1.75.8-.23 3.36 1.51 2.58m-.83-11.81a424 424 0 0 1 24.91-10.68c4.12-1.61 8.27-3.15 12.45-4.61s8.78-2.71 13.04-4.38c1.85-.72 1.18-3.5-.83-3.03-4.43 1.04-8.78 2.74-13.07 4.26s-8.62 3.14-12.88 4.83c-8.5 3.37-16.85 7.1-25.04 11.18-1.63.81-.2 3.19 1.42 2.43m3.16-10.53c7.09-3.17 14.17-6.38 21.23-9.62 3.45-1.58 6.91-3.17 10.36-4.75 3.58-1.64 7.34-3.09 10.81-4.96 1.53-.83.48-3.52-1.21-2.87-3.65 1.41-7.17 3.29-10.73 4.93-3.52 1.63-7.05 3.26-10.57 4.88-7.12 3.29-14.23 6.6-21.32 9.96-1.65.78-.21 3.16 1.42 2.43Zm10.35-14.39c4.33-1.58 8.65-3.17 12.96-4.8 2.16-.81 4.31-1.63 6.47-2.44 2.04-.76 4.14-1.75 6.34-1.83 1.79-.07 1.51-2.75-.33-2.47-4.44.67-8.74 2.6-12.96 4.06-4.43 1.53-8.84 3.1-13.25 4.68-1.75.63-.99 3.44.77 2.8"/></svg>