<?xml version="1.0" encoding="UTF-8"?><svg xmlns="http://www.w3.org/2000/svg" viewBox="0 0 180 180"><path d="M70.31 116.02c-.22-1.06.64-2.1 1.66-2.47s2.14-.23 3.21-.09c3.75.49 16.03 4.34 19.78 4.82.65.09-5.59-.56-5.94 0 1.67-.23-3.35 2.64-2.34 1.29 8.61-11.47 24.04-27.98 36.07-35.8a81.4 81.4 0 0 1-7.66 13.43c5.1-1.16 10.28-1.99 15.49-2.49-1.56 1.63-3.47 2.87-5.36 4.09-3.1 2-6.19 4-9.29 6 4.45-.08 8.91.79 13 2.54a90.3 90.3 0 0 1-15.55 3.74c2.74 2.49 7.51 1.53 10.13 4.14-4.61.71-9.3.92-13.96.64 1.66 2.68 6.31 2.13 7.86 4.88-5.88.52-11.81.53-17.69.02 2.61 1.34 5.08 2.94 7.37 4.77-2.86-.4-5.66-1.19-8.31-2.34 10.28 3.66 20.77 6.75 31.4 9.25l-8.55 3.72c.91.87 1.9 1.65 2.96 2.34-3.3-.69-6.6-1.39-9.91-2.08a35.3 35.3 0 0 0 4.04 5.32c-6.6-4.86-13.19-9.72-19.79-14.58-.05 1.9-2.22 2.91-4.06 3.38-4.65 1.2-10.07 1.62-13.8-1.4-4.35-3.53-5.22-10.85-10.49-12.72"/><path d="M72.06 116.02c-.11-1.62 4.03-.49 5-.26 2.1.5 4.18 1.08 6.26 1.65 3.7 1.02 7.39 2.06 11.12 2.94l.57-4.19c-1.08-.01-2.17-.17-3.25-.21-1.35-.05-3.23-.24-4.25.83-1.17 1.23-.43 3.83 1.51 3.64.43-.03.18-.11-.75-.26l-.98-1.28v.04c.01-.38.01-.76.01-1.13l.45-.77s-.07.08-.11.11c-.02.12.26-.19.11-.08a9 9 0 0 1-1.43.82c.16-.07.31-.05.11-.05-.32 0 .72.05.72.05l.94.55-.03-.03.63 1.51c.06.51-.56 1.14.03.51.25-.27.46-.61.69-.9.4-.52.81-1.04 1.22-1.56 1-1.26 2.03-2.51 3.07-3.75 2.2-2.62 4.47-5.19 6.8-7.7 4.77-5.15 9.78-10.12 15.12-14.68 2.61-2.23 5.33-4.33 8.2-6.21l-2.89-2.89c-2.14 4.71-4.7 9.2-7.67 13.43-1.13 1.62.73 3.5 2.4 3.12 4.92-1.11 9.9-1.86 14.92-2.32l-1.57-3.78c-1.92 1.93-4.28 3.29-6.56 4.74-2.57 1.64-5.12 3.29-7.68 4.94-1.85 1.19-1.2 4.28 1.15 4.26 4.29-.04 8.43.81 12.39 2.46v-4.43a93.4 93.4 0 0 1-15.55 3.73c-1.68.25-2.25 2.8-1.02 3.85 1.59 1.36 3.43 2.03 5.45 2.47 1.57.35 3.45.53 4.67 1.67l1.02-3.87c-4.41.66-8.9.8-13.35.55-1.7-.1-2.97 2.07-2 3.49 1.12 1.65 2.68 2.5 4.51 3.18.69.26 1.46.47 2.1.76.57.26 1 .53 1.25.94.67-1.17 1.34-2.33 2.01-3.5-5.89.51-11.79.5-17.69.03-2.29-.18-3.16 3.29-1.17 4.32 2.42 1.25 4.78 2.69 6.92 4.39.74-1.28 1.49-2.55 2.23-3.83-2.65-.4-5.28-1.07-7.75-2.13l-1.78 4.23c10.28 3.68 20.77 6.75 31.39 9.26l-.56-4.26-8.55 3.72c-1.37.6-1.47 2.72-.47 3.66 1.07.99 2.22 1.89 3.43 2.7l1.79-4.26c-3.3-.69-6.6-1.39-9.91-2.08-1.89-.4-3.77 1.6-2.63 3.42 1.29 2.06 2.77 3.99 4.4 5.78l2.82-3.65c-6.6-4.85-13.2-9.7-19.8-14.56-1.54-1.13-3.32.44-3.46 1.98-.05.56-1.89 1.03-2.37 1.16-1.54.41-3.12.71-4.72.79-2.96.16-5.88-.39-7.95-2.66-1.78-1.95-2.75-4.47-4.23-6.62-1.64-2.38-3.56-4.2-6.28-5.23-2.26-.86-3.23 2.77-1 3.62 2.56.97 3.8 4.38 5 6.59 1.57 2.89 3.39 5.76 6.39 7.33 3.52 1.84 7.56 1.83 11.38 1.18 3.62-.61 7.98-1.87 8.38-6.16-1.15.66-2.3 1.32-3.46 1.98 6.59 4.87 13.18 9.74 19.77 14.6.92.68 2.37.24 3-.6.71-.95.62-2.17-.18-3.05a34.7 34.7 0 0 1-3.67-4.85l-2.63 3.42c3.3.69 6.6 1.39 9.91 2.08 2.6.54 4.02-2.77 1.79-4.26-.89-.59-1.7-1.24-2.49-1.97l-.47 3.66 8.55-3.72c1.86-.81 1.27-3.82-.56-4.26-10.63-2.51-21.1-5.61-31.4-9.24-2.44-.86-4.21 3.2-1.78 4.23 2.87 1.22 5.78 2.11 8.87 2.55 1.02.15 2.03-.1 2.59-1.05.47-.8.43-2.16-.36-2.78-2.47-1.94-5.03-3.69-7.81-5.16l-1.17 4.32c5.89.51 11.8.49 17.69-.02 1.67-.14 3.01-1.89 2.01-3.5s-2.63-2.55-4.43-3.23c-1.12-.42-2.84-.77-3.43-1.65-.67 1.16-1.34 2.33-2 3.49 4.89.28 9.74 0 14.58-.73 1.74-.26 2.19-2.77 1.02-3.87-1.51-1.41-3.37-2.11-5.37-2.56-1.55-.35-3.51-.5-4.77-1.57l-1.02 3.85c5.28-.81 10.48-2.06 15.55-3.75 2.3-.77 2.04-3.57 0-4.43-4.31-1.8-8.95-2.66-13.61-2.61l1.15 4.26c2.69-1.74 5.38-3.48 8.07-5.23 2.44-1.6 4.95-3.16 7-5.27 1.23-1.26.44-3.99-1.57-3.78-5.41.56-10.75 1.45-16.05 2.65l2.4 3.12c2.96-4.24 5.52-8.73 7.66-13.44.8-1.75-.95-4.17-2.89-2.89-7.91 5.18-14.92 11.79-21.45 18.58-3.43 3.57-6.75 7.26-9.92 11.06-1.47 1.76-2.9 3.54-4.3 5.35-.53.68-1.26 1.4-1.51 2.25-.34 1.18.34 2.45 1.53 2.79 1.36.38 2.93-.57 3.99-1.34.77-.56 1.47-1.26 1.47-2.29 0-1.3-1.2-2.33-2.48-2.2l1.51 3.64c.08-.09-1.03.71-.65.41.15-.12.04 0-.15.02.25-.02.51-.03.76-.03.66 0 1.33.02 1.99.06.84.05 1.68.17 2.52.18 2.37.03 2.94-3.63.57-4.19-1.96-.46-3.43-.57-5.48-1.07-2.63-.64-5.24-1.37-7.86-2.05-2.06-.53-4.14-1.11-6.25-1.43-1.63-.25-3.41-.47-4.95.27-1.52.73-2.7 2.32-2.47 4.07.12.94.72 1.74 1.75 1.75.9 0 1.81-.81 1.75-1.75Z"/><path d="M80.49 123.96c-13.05 2.15-26.1 4.3-39.16 6.44l17.51 1.41c-2.4 1.95-4.63 4.11-6.63 6.47 4.59-.97 9.06-2.51 13.28-4.57-.59 3.37-1.19 6.74-1.78 10.11 3.05-3.31 6.11-6.62 9.16-9.93l.4 9.48c.98.06 1.57-1.03 1.92-1.94.87-2.28 1.74-4.55 2.61-6.83.88 1.08 1.67 2.24 2.35 3.46.42-3.14 1.19-6.24 2.3-9.21.27-.72.56-1.48.43-2.23s-.88-1.46-1.61-1.24"/><path d="M80.49 122.39c-13.32 1.41-26.54 3.73-39.78 5.76-1.13.17-1.83 1.53-1.67 2.56.18 1.2 1.1 1.93 2.29 2.02 5.83.47 11.68.75 17.51 1.2l-1.5-3.63a53.3 53.3 0 0 0-6.67 6.43c-1.44 1.66-.06 4.09 2.12 3.64 4.79-1 9.4-2.64 13.81-4.77l-3.24-2.49c-.6 3.37-1.19 6.74-1.78 10.11-.35 2.01 2.07 3.91 3.69 2.15l9.16-9.94c-1.25-.52-2.51-1.04-3.76-1.56.14 3.16.27 6.32.4 9.48.05 1.13.97 2.29 2.2 2.2 2.32-.16 3.36-1.79 4.14-3.79.86-2.19 1.68-4.4 2.53-6.6-1.23.32-2.45.65-3.68.97.76.94 1.41 1.96 2 3.01.85 1.5 3.75 1.42 4.03-.53.43-3.07 1.16-6.07 2.22-8.98.52-1.45.94-3.02.2-4.48-.64-1.24-1.99-2.2-3.43-2.02-1.18.15-2.21.91-2.21 2.21 0 1.08 1.02 2.37 2.21 2.21a1 1 0 0 1-.56-.52l-.08.31c-.24.27-.34.96-.47 1.33-.35.97-.66 1.95-.94 2.95-.53 1.91-.92 3.85-1.19 5.82l4.03-.53c-.79-1.38-1.7-2.66-2.69-3.9-1.14-1.42-3.16-.4-3.68.97-.55 1.44-1.1 2.88-1.66 4.33-.26.68-.52 1.37-.78 2.05-.07.18-.18.37-.22.55-.15.57-.49.28.25.23l2.2 2.2c-.13-3.16-.27-6.32-.4-9.48-.08-1.82-2.41-3.03-3.76-1.56-3.05 3.31-6.11 6.62-9.16 9.93l3.69 2.15c.59-3.37 1.19-6.74 1.78-10.11.34-1.94-1.44-3.37-3.24-2.49-4.06 1.97-8.34 3.41-12.74 4.38l2.12 3.64c2.01-2.36 4.21-4.53 6.6-6.5 1.56-1.29.14-3.49-1.5-3.63-5.84-.48-11.67-1.15-17.51-1.62l.62 4.58c13-2.29 26.08-4.29 38.95-7.18 1.69-.38 1.36-3.27-.42-3.08Zm7.77 10.88c-.38-.27.51.42.4.33-.31-.26.1.11.15.16.06.06.11.12.17.19-.13-.17-.13-.18-.03-.03.09.15.19.29.27.44s.16.31.23.47c.04.08.07.16.11.24-.09-.21-.09-.23-.02-.05.13.34.25.69.35 1.04.54 1.78.82 3.63 1.39 5.4.28.88 1.24 1.54 2.18 1.24 1.01-.33 1.37-1.19 1.24-2.18-.27-1.99-.87-4-1.59-5.87-.66-1.72-1.75-3.68-3.7-4.12-.73-.17-1.46.16-1.76.86s0 1.42.61 1.86Zm6.7-2.94c3.02 2.58 4.87 6.48 4.95 10.44"/><path d="M93.98 131.31q.51.495.96 1.02c.34.39.55.65.79.99.56.79 1.03 1.63 1.44 2.51.15.32.26.59.43 1.08q.225.66.39 1.35c.06.24.11.48.15.73.02.11.04.22.05.33.03.17-.02-.13.02.15.03.2.05.39.08.59.01.08.04.24.01.07.05.36.11.7.19 1.05.33 1.34 2.53 1.43 2.8 0 .44-2.29-.4-4.79-1.38-6.85s-2.48-3.79-4.27-5.17c-.54-.42-1.42-.14-1.78.36-.4.54-.4 1.33.11 1.82ZM73.22 112.8c-3.31-1.88-6.73-3.85-10.44-4.84-.9-.24-1.84.23-2.19 1.08-.33.79-.08 1.92.76 2.32 3.56 1.71 6.84 3.82 10.17 5.94l.41-3.16c-2.07.54-3.91 1.48-5.52 2.89-.67.58-.65 1.68-.14 2.34.57.74 1.48.84 2.3.46.9-.42 1.56-.69 2.53-1.03 1.01-.35 2.08-.56 3.03-1.07 1.48-.79.75-3.04-.83-3.07-1.14-.02-2.27.4-3.34.77s-2.15.82-3.18 1.32l2.16 2.8c.18-.16.36-.32.54-.47-.22.17.22-.16.22-.16.34-.24.7-.46 1.07-.66.74-.4 1.17-.58 2.09-.79 1.21-.27 1.75-2.06.76-2.89-3.11-2.63-6.72-4.7-10.39-6.43l-1.43 3.4c3.58.76 6.65 2.23 9.9 3.87.73.37 1.64.19 2.07-.54s.17-1.67-.54-2.07Z"/><path d="M73.76 94.25c-5.86-.95-11.69-2.05-17.52-3.18s-11.71-2.05-17.57-2.97c-2.01-.32-3.81 1.98-2.12 3.64 4.77 4.68 9.53 9.37 14.28 14.06l1.52-3.68c-9.98.74-19.95 1.76-29.87 3.06-.97.13-1.82.59-2.09 1.59-.24.89.15 2.02 1 2.45 7.08 3.58 14.38 6.7 21.84 9.37v-4.22A164 164 0 0 0 13 126.39c-1.4.72-1.46 3.07 0 3.78 8.28 4.03 16.57 8.05 24.85 12.09l-.44-3.43c-5.37 5.01-10.12 10.64-14.21 16.74-1.05 1.57.7 3.82 2.48 3.23 8.79-2.94 17.73-5.47 26.79-7.41l-2.73-2.73c-2.4 5.73-3.52 11.93-3.37 18.14.04 1.81 1.86 2.68 3.4 1.95 8.7-4.14 17.15-8.8 25.3-13.96-1.11-.45-2.21-.9-3.32-1.35 1.66 5.4 2.88 10.93 3.56 16.53.22 1.78 2.36 3.13 3.82 1.58 5.28-5.61 10.58-11.2 15.87-16.79-.89.11-1.77.23-2.66.34 7.02 4.55 14.01 9.14 21.06 13.63 1.63 1.04 3.64-.68 3.18-2.44-1.22-4.61-1.87-9.28-2-14.05-.9.68-1.79 1.36-2.69 2.05 8.84 3.39 17.68 6.79 26.52 10.18 1.64.63 2.85-1.18 2.6-2.6q-1.53-8.385-3.63-16.65l-2.57 2.57c6.31 2.65 12.9 4.3 19.71 5 .82.08 1.67-.6 1.95-1.31.35-.87.11-1.62-.44-2.34-4.59-5.93-9.17-11.87-13.76-17.8l-.95 3.61c8.3-2.45 16.69-4.57 25.15-6.36 1.75-.37 2.22-3.21.52-3.98-7.63-3.49-15.5-6.42-23.58-8.71l.52 4.01c8.06-5.46 15.27-12.08 21.34-19.69 1.34-1.68.14-4.2-2.14-3.68-7.3 1.64-14.59 3.28-21.89 4.91.72 1.23 1.43 2.46 2.15 3.69a93.7 93.7 0 0 0 15.56-27.64c.49-1.37-.78-2.82-2.14-2.81-7.09.07-14.03 1.93-20.2 5.42 1.09.84 2.18 1.67 3.26 2.51 1.81-7.53 3.61-15.05 5.42-22.58.45-1.88-1.55-3.5-3.27-2.52-6.94 3.95-13.65 8.29-20.09 13l3.36 1.93c-.76-6.51-2.25-12.87-4.57-19.01-.72-1.92-2.88-2.08-4.08-.53-5.29 6.85-10.62 13.67-15.86 20.56-2.87 3.78-5.69 7.48-8.89 11.18-.82.95-1.66 1.9-2.56 2.78-.31.3-.63.58-.95.87-.2.18.41-.2-.08.04-.45.22.22-.06.12-.03-2.73.81-1.57 5.09 1.18 4.28 1.74-.52 3.14-2.24 4.31-3.53 1.87-2.06 3.63-4.24 5.36-6.42 3.51-4.43 6.91-8.94 10.36-13.41 3.62-4.69 7.24-9.38 10.87-14.07l-4.08-.53c2.17 5.74 3.7 11.72 4.42 17.82.17 1.48 1.83 3.04 3.36 1.93 6.44-4.72 13.15-9.06 20.09-13.01l-3.27-2.52c-1.8 7.53-3.61 15.05-5.41 22.58-.45 1.88 1.55 3.48 3.26 2.51 5.5-3.11 11.65-4.76 17.96-4.82l-2.14-2.81A87.6 87.6 0 0 1 140.28 102c-1.36 1.68-.12 4.2 2.15 3.69l21.88-4.92-2.14-3.68c-5.83 7.32-12.7 13.76-20.44 19.02-1.53 1.04-1.37 3.47.52 4.01 7.71 2.18 15.25 4.92 22.55 8.24l.52-3.98c-8.46 1.81-16.84 3.95-25.14 6.41-1.7.5-1.93 2.35-.95 3.61l13.79 17.78 1.51-3.65c-6.39-.64-12.68-2.27-18.6-4.75-1.55-.65-2.91 1.19-2.57 2.57 1.37 5.52 2.56 11.07 3.58 16.66l2.6-2.6c-8.84-3.4-17.68-6.8-26.51-10.2-1.29-.49-2.72.77-2.69 2.05.14 5.12.85 10.22 2.07 15.2 1.06-.81 2.12-1.63 3.18-2.44-6.98-4.61-14.02-9.13-21.03-13.69-.79-.52-2.01-.34-2.66.34-5.31 5.58-10.62 11.16-15.94 16.73 1.27.53 2.55 1.06 3.82 1.58-.69-6.02-1.9-11.94-3.68-17.73-.41-1.35-2.05-2.15-3.32-1.35-8.15 5.15-16.59 9.81-25.3 13.96 1.13.65 2.26 1.3 3.4 1.95-.14-5.84.95-11.55 3.13-16.96.68-1.67-1.25-3.07-2.73-2.73-9.05 2.06-17.98 4.5-26.78 7.46l2.48 3.23a90.6 90.6 0 0 1 13.51-15.87c.97-.91.81-2.82-.44-3.43-8.28-4.03-16.56-8.06-24.85-12.1v3.78c9.33-4.82 19.1-8.69 29.18-11.58 2.17-.62 1.98-3.51 0-4.22-7.12-2.53-14.07-5.5-20.81-8.9l-1.1 4.05c9.93-1.31 19.89-2.34 29.87-3.1 1.79-.14 2.93-2.29 1.52-3.68-4.76-4.69-9.5-9.39-14.25-14.1l-2.12 3.64c5.94.97 11.88 1.98 17.84 2.76 5.84.77 11.67 1.58 17.49 2.5.92.15 1.84-.24 2.11-1.2.23-.82-.29-1.97-1.2-2.11Z"/><path d="M54.64 35.67C52.2 46.24 50.2 56.9 48.51 67.62c-.24 1.51 1.31 3.25 2.86 2.2 5.47-3.69 11.02-7.26 16.67-10.68l-2.95-2.27a84.2 84.2 0 0 0-3.92 22.86c-.05 1.6 1.78 2.52 3.1 1.78 3.89-2.16 7.64-4.56 11.23-7.18l-2.97-2.28c-.75 3.99-.87 8.11-.99 12.16s-.44 8.19.1 12.16c.23 1.68 2.98 1.58 3.3 0 .77-3.81.44-7.92.55-11.79s.19-7.71.93-11.46c.31-1.55-1.41-3.4-2.97-2.28-3.62 2.59-7.38 4.95-11.28 7.11l3.1 1.78c.23-7.39 1.46-14.73 3.67-21.79.52-1.67-1.48-3.17-2.95-2.27-5.63 3.45-11.17 7.04-16.6 10.79l2.86 2.2c1.58-10.75 3.45-21.45 5.48-32.13.38-2.01-2.63-2.89-3.1-.86Zm20.84-1.86c-1.67 5.2-2.68 10.67-3.94 15.98-.31 1.31.84 2.54 2.18 2.18 4.74-1.27 9.47-2.55 14.2-3.85l-2.08-2.7c-2.3 5.32-4.64 10.61-6.94 15.93-.62 1.44.41 3.37 2.18 2.84 3.75-1.13 7.44-2.43 11.06-3.93l-2.4-2.4c-.87 3.2-1.21 6.57-1.59 9.85-.48 4.26-.84 8.53-1.19 12.8-.32 3.9-.59 7.81-.91 11.71-.11 1.3-.22 2.6-.39 3.89.07-.56 0 .07-.04.27-.03.19-.06.38-.1.56-.03.12-.1.29-.1.41 0 .15-.19.12.04-.07.14-.12.07-.27.29-.44.72-.55 1.74-.54 2.43 0 .11.08.4.45.37.62.02-.1-.1-.32-.13-.43-.05-.24-.1-.48-.14-.72l-.06-.4c-.07-.45 0 .09-.03-.19-.29-2.31-.28-4.75-.93-6.97-.37-1.26-2.54-1.47-2.77 0-.36 2.21-.13 4.52.1 6.75.11 1.09.12 2.45.67 3.44.95 1.72 3.08 1.1 3.66-.52.29-.8.37-1.68.49-2.52 1.15-8.3 1.49-16.7 2.33-25.03.42-4.21.67-7.85 1.78-11.96.35-1.3-.97-2.99-2.4-2.4-3.62 1.49-7.31 2.82-11.05 3.97l2.18 2.84c2.28-5.34 4.5-10.69 6.78-16.02.6-1.4-.39-3.17-2.08-2.7-4.73 1.31-9.45 2.64-14.17 3.98l2.18 2.18c1.18-5.34 2.64-10.71 3.41-16.12.26-1.86-2.29-2.69-2.89-.8Z"/><path d="M100.57 30.29C76.88 42.37 51.09 51.09 24.53 52.4c-2.71.13-5.79.04-7.59-1.99-1.82-2.05-1.46-5.39.18-7.58s4.25-3.43 6.85-4.28c2.57-.84 5.24-1.38 7.94-1.62-.6.28-1.16-.42-1.43-1.03-1.32-3.02-1.84-6.76.08-9.44 1.5-2.1 4.22-3.05 6.8-3.04s5.08.86 7.5 1.76c-2.05-4.01-1.14-9.32 2.14-12.41s8.63-3.69 12.51-1.41c3.53 2.08 5.52 5.98 7.1 9.76.2-5.25 4.85-10.09 10.1-10.01s9.87 5.58 8.6 10.68c3.66-4.94 11.33-6.3 16.46-2.93 1.09.72 2.11 1.66 2.56 2.89s.21 2.78-.83 3.57"/><path d="M99.74 28.87C86.85 35.43 73.1 40.72 59.17 44.55c-6.98 1.92-14.08 3.43-21.25 4.44-3.54.5-7.11.85-10.68 1.08-2.38.15-6.17.86-8.26-.71-2.61-1.98-.22-5.67 1.8-6.96 3.22-2.07 7.36-2.93 11.12-3.28l-.57-4.24-.29.06h1.15c.32.28.39.3.23.07q-.15-.36-.27-.72c-.13-.37-.24-.74-.34-1.11-.21-.81-.33-1.62-.33-2.47.02-1.57.59-3.02 1.9-3.94 3.23-2.28 7.61-.71 10.91.53 1.93.72 3.17-1.64 2.44-3.17-2.35-4.9.74-10.81 6.01-11.79 6.2-1.15 9.72 4.46 11.77 9.41.92 2.22 4.14 2.02 4.3-.58.25-3.99 3.78-7.87 7.91-7.81 3.81.06 7.33 4.09 6.49 7.89-.57 2.55 2.53 3.6 4 1.69 1.98-2.58 5.45-3.8 8.61-3.68 1.61.06 3.19.51 4.57 1.35.93.56 2.85 2.13 1.64 3.28-1.98 1.88.91 4.62 2.95 2.95 2.57-2.11 1.97-5.82-.02-8.08-1.79-2.04-4.59-3.3-7.24-3.7-5.51-.85-10.92 1.23-14.3 5.67 1.33.56 2.67 1.12 4 1.69 1.46-6.51-3.78-13.06-10.37-13.45s-12.31 5.77-12.63 12.21c1.36-.37 2.72-.74 4.08-1.1-1.55-3.63-3.43-7.24-6.64-9.68s-7.07-3.06-10.82-2.15c-7.92 1.92-11.6 10.96-8.05 18.08l2.44-3.17c-5.38-1.96-12.53-3.4-16.54 1.96-1.71 2.29-2 5.15-1.55 7.9s1.69 6.76 5.14 6.04c2.35-.49 1.87-4.46-.57-4.24-6.78.62-17.18 2.85-18.27 11.07-.49 3.69 1.49 6.92 5 8.17s7.41.53 10.87.22c16.06-1.42 31.86-5.35 46.9-11.12 8.59-3.3 16.82-7.24 25.01-11.41 1.89-.96.22-3.81-1.66-2.85Z"/></svg>