<?xml version="1.0" encoding="UTF-8"?><svg xmlns="http://www.w3.org/2000/svg" viewBox="0 0 180 180"><path d="M67.5 126.16c-.33-5.74-.44-11.47-.33-17.22.1-5.22.39-10.43.45-15.65.08-8.34-.51-18.05 5.24-24.86 2.39-2.83 5.71-4.55 9.24-5.56 3.45-.98 7.26-1.39 10.79-.59 3.31.75 6.57 2.71 8.82 5.26s3.12 5.79 3.49 9c1.14 9.97-.27 20.08.56 30.07l3.03-1.74c-7.51-3.3-14.35-8.25-22.78-8.9-3.71-.28-7.51.16-11.14.92-3.44.71-7.05 1.8-9.97 3.81-2.38 1.64-.26 5.43 2.29 3.93 2.74-1.62 5.83-2.54 8.92-3.2s6.58-1.05 9.89-.82 6.85 1.43 9.97 2.76c3.64 1.55 7.19 3.33 10.78 4.98 1.27.59 3.13-.08 3.03-1.74-.6-9.56.56-19.14-.09-28.69-.27-3.99-1.03-8.08-3.28-11.47-2.32-3.49-5.86-5.99-9.69-7.59-3.87-1.61-8.2-1.65-12.29-1.04s-8.27 2.11-11.61 4.59c-7.98 5.92-9.41 16.15-9.46 25.42-.03 5.89-.09 11.78-.07 17.67.02 6.89.5 13.81 1.12 20.66.18 1.95 3.21 2.01 3.09 0"/><path d="M101.67 105.17c2.62 1.82 5.2 3.84 8.21 4.96s6.26 1.32 9.36.49c2.84-.76 5.44-2.29 7.81-4 2.31-1.67 4.44-3.6 7-4.9 4.6-2.36 10.6-2.91 15.16-.15 3.69 2.24 5.6 6.52 5.61 10.65.03 12.02-14.69 16.04-23.7 19.83-2.91 1.23-5.91 2.53-8.47 4.42-2.46 1.83-4.8 4.77-3.68 8.03 1.11 3.23 4.84 4.57 7.95 4.84s6.39-.66 9.3-1.88 6.04-2.84 9.29-3.55c2.44-.53 4.97-.38 7.37.26s4.71 1.74 6.6 3.38c2.19 1.9 3.48 4.51 5.98 6.08 2.03 1.28 2.69 3.5 1.57 5.7-1.4 2.73-3.97 3.65-6.85 3.81-3.58.2-7.15.47-10.73.59s-7.03.44-10.52.22c-3.27-.2-6.38-1.33-9.57-2.01-3.38-.72-6.82-.74-10.21-1.31-5.45-.91-10.84-3.05-14.65-7.19-3.43-3.73-5.07-9.34-3.48-14.24 1.73-5.31 7.24-8.08 12.2-9.62 3.31-1.02 6.7-1.71 10.01-2.74 1.26-.39 2.85-.73 3.81-1.68s1.29-2.4.91-3.71a3.8 3.8 0 0 0-2.43-2.52c-1.54-.5-3.19.22-4.6.79-3.07 1.24-5.87 2.99-8.79 4.53s-6.11 2.65-9.28 3.72c-1.38.47-2.8.98-4.26 1.16-1.68.21-3.24-.25-4.74-1-2.87-1.43-5.56-3.09-8.53-4.34s-6.18-2.24-9.45-2.67-6.41-.2-9.5.7-1.75 5.62 1.31 4.75c6.2-1.78 12.73-.03 18.37 2.72 2.96 1.44 5.78 3.54 9.04 4.26 3.58.79 6.96-.4 10.31-1.57s6.42-2.36 9.43-3.99c2.91-1.58 5.74-3.48 8.91-4.51.1-.03.81-.25.82-.25 0 .04-.55-.04-.68-.16-.54-.48-.14-.84.16-1.22l.24-.09c-.29.11-.59.22-.89.32-.45.15-.89.3-1.34.44-.9.28-1.81.54-2.72.79-3.25.88-6.55 1.62-9.71 2.82-5.6 2.14-10.82 5.62-12.91 11.5-1.93 5.42-.65 11.86 2.54 16.54 3.4 4.98 8.76 8.21 14.46 9.9 3.12.93 6.34 1.29 9.57 1.58 1.71.16 3.43.31 5.09.74s3.21 1.02 4.84 1.44c3.62.94 7.28 1.06 11 .9s7.15-.31 10.73-.48c1.75-.08 3.5-.19 5.25-.28s3.39-.2 4.97-.82c3.13-1.23 5.7-3.8 6.8-7 1.01-2.93.46-6.28-1.51-8.68-.93-1.14-2.22-1.65-3.3-2.58s-1.73-2.23-2.65-3.26c-3.83-4.24-9.55-6.72-15.25-6.78-3.16-.03-6.16.78-9.06 2-3.05 1.28-5.98 2.9-9.24 3.6-1.36.29-2.81.42-4.19.2-.88-.15-2.95-.6-3.24-1.65-.22-.79 1.03-1.81 1.52-2.19 1.27-1.01 2.83-1.75 4.27-2.48 10.41-5.25 25.45-7.83 29.64-20.46 1.6-4.81.99-10.36-1.52-14.75-2.87-5.01-8.03-7.83-13.7-8.3-5.98-.5-11.65 1.79-16.32 5.37-4.61 3.54-9.32 7.26-15.49 5.84-3.07-.71-5.93-1.97-8.7-3.46-1.73-.93-3.1 1.51-1.52 2.6Z"/><path d="M148.96 155.63c2.16 0 2.17-3.36 0-3.36s-2.17 3.36 0 3.36m8.77-1.44c2.16 0 2.17-3.36 0-3.36s-2.17 3.36 0 3.36m-57.5-9.13c1.97.07 4.3-.06 5.96-1.27.98-.71 1.3-1.6 1.57-2.73.12-.5-.09.41-.28.19.01.02.5-.13.57-.15.47-.09.95-.05 1.43-.05 1.23 0 2.14-.64 2.63-1.74.42-.94.81-1.98.71-3.03-.07-.69-.24-1.33-.68-1.88-.28-.36-.73-.82-.94-1.09-.19-.24-.54-.73-.77-1.08-.33-.5-.62-1.1-1.08-1.5-.62-.52-1.53-.76-2.26-.29s-1.08 1.28-.86 2.11c.26.94 1 1.82 1.59 2.58.29.37.58.73.91 1.06.18.18.65.72.77.76-.09-.03-.01-.35-.04-.11-.04.27.03.19-.03.42-.04.19-.1.38-.16.56l-.06.18c-.07.18-.07.2-.02.07.08 0 .39-.28.4-.24 0-.02-.6-.03-.61-.04-.53-.02-1.04.03-1.56.11-1.01.15-1.97.5-2.55 1.39-.24.36-.37.78-.5 1.19-.02.05-.11.52-.05.24-.11.18-.11.19-.02.05l-.12.12c-.32.21.15-.02-.18.13-.04.02-.47.25-.21.12-.34.17-.6.26-1.15.45-.9.31-1.82.65-2.74.88-1.47.37-1.11 2.54.35 2.59Zm18.97-1.78c.02.15-.46.56-.54.62-.43.34-.95.52-1.45.72-1.27.51-2.54 1.1-3.28 2.31s-.76 2.65-.2 3.89c.21.47.7.85.83 1.32.18.63.11 1.26.38 1.89 1.14 2.68 4.36 3.51 6.9 2.42.64-.28 1.2-.66 1.73-1.12.05-.05.49-.43.49-.43.02.07-.3.03-.31.09 0-.01.72.28.75.29 1.22.42 2.6.27 3.73-.34 1.26-.67 1.99-1.83 2.39-3.16.28-.94.36-2.08 1.22-2.48 1.79-.83.17-3.75-1.57-2.68-.96.59-1.47 1.45-1.86 2.48-.3.8-.43 1.72-.93 2.43-.38.53-1.09.84-1.72.77s-1.18-.47-1.85-.5c-.74-.03-1.39.26-1.95.72-.76.61-1.34 1.26-2.37 1.32-.82.05-1.58-.41-1.96-1.15-.22-.43-.14-.89-.25-1.36-.15-.65-.59-1.05-.88-1.62-.37-.72.07-1.38.69-1.75 1.13-.68 2.41-.94 3.45-1.79 1.16-.95 1.67-2.22 1.45-3.69-.12-.81-1.14-1.25-1.85-1.05-.87.24-1.17 1.05-1.05 1.85Zm8.97-9.5c-.23-.91.26-2.01 1.08-2.48 1.15-.65 2.48-.22 3.36-1.47.84-1.19.16-2.52.63-3.76.4-1.06 1.54-1.71 2.58-1.11 1.47.85 2.84-.55 2.62-2.02-.17-1.16.88-2.47 2.01-2.66 1.4-.22 2.62 1.12 2.63 2.44 0 1.39 1.61 2.41 2.84 1.63.92-.58 1.69.04 2.06.91.85 1.97 4 .56 3.43-1.44-.87-3.04-4.75-4.41-7.39-2.72l2.84 1.63c-.04-3.49-3.15-6.54-6.7-6.14s-5.75 3.93-5.15 7.31c.87-.67 1.75-1.34 2.62-2.02-1.84-.99-4.1-.88-5.74.47s-2.02 3.45-1.66 5.44c.05.27.25.06.12.14-.11.07-.44 0-.57 0-.48.02-.93.1-1.37.28-.84.33-1.55.87-2.1 1.59-1.14 1.5-1.3 3.28-.51 4.98.64 1.38 2.73.38 2.38-1.01Zm-.69-30.68c-1.4 2.88 1.06 6.11 3.85 6.9 1.44.41 2.93.18 4.28-.43.34-.16.7-.32 1.02-.52l.34-.18c-.53.05-.56.19-.09.4.37.5 1.5.88 2.05 1.07 3.13 1.08 5.85-1.02 7.75-3.32.46-.56.85-1.18 1.31-1.75s.65-.57 1.36-.44c1.84.34 3.24.42 4.99-.36.94-.42 1.14-1.77.68-2.59-.56-.98-1.65-1.08-2.59-.68-1.11.47-2.27-.11-3.4-.17-1.27-.07-2.47.38-3.35 1.3-1.47 1.52-2.23 4.74-4.74 4.99-1.3.13-2.14-.99-3.19-1.52-1.22-.61-2.26.06-3.35.58-.96.46-2.02.57-2.96-.04-1.05-.68-1.14-1.84-1.53-2.92-.35-.98-1.9-1.44-2.44-.32Zm-41.01 22.69c4.1-1.28 3.1-6.89 7.12-8.26.99-.34 1.75.03 2.72.22s1.86.13 2.77-.22c1.99-.76 3.31-2.44 5.57-2.48.68-.01 1.78 0 2.15.6.21.34.2.96.36 1.35.2.49.45.93.84 1.31 1.35 1.34 3.36 1.34 5.12 1.07.63-.1 1.75-.47 2.26.05.48.47.45 1.71.64 2.33.66 2.09 2.14 3.66 4.44 3.35.8-.11 1.38-1.07 1.38-1.81 0-.87-.59-1.52-1.38-1.81-.96-.35-.96-2.1-1.26-2.93-.59-1.6-1.76-2.81-3.48-3.11-1.56-.28-3.03.42-4.56.26-.57-.06-.51 0-.64-.54-.2-.82-.46-1.61-1.06-2.23-2.43-2.52-7.15-1.67-9.76.04-.58.38-1.16.89-1.81 1.13-.76.29-1.48-.15-2.25-.28-1.58-.27-3.2.05-4.58.85-1.51.87-2.77 2.31-3.48 3.89-.65 1.46-.56 4.02-2.11 4.84-1.3.69-.41 2.83 1.01 2.38Zm-21.72-12.72c2.98 1.41 6.52 2.81 9.66.97.68-.4 1.22-.97 1.81-1.49s.95-.65 1.77-.52c1.71.26 3.22.58 4.79-.4 1.46-.9 1.84-2.16 2.42-3.66.21-.55.41-.34 1.17-.35s1.59-.1 2.29-.49c1.39-.78 1.81-2.17 2.12-3.64.27-1.3 1.09-1.93 2.41-2.11 2.19-.3 1.54-3.66-.5-3.73-3.3-.11-5.11 2.38-5.68 5.33-.11.56-.03.78-.46.92-.66.22-1.53 0-2.23.19-1.59.44-2.3 1.79-2.69 3.26s-1.27 1.53-2.69 1.27c-1.64-.3-3.08-.23-4.43.83-1.21.95-1.95 2.06-3.62 2.14s-3.39-.69-4.94-1.34c-1.6-.67-2.76 2.07-1.19 2.81Z"/><path d="M67.73 97.99c-1.2-2.96-.89-6.29-.47-9.46.49-3.69 1.11-7.37 1.86-11.02.27-1.3.55-2.61 1.04-3.85.59-1.49 1.47-2.84 2.34-4.17.7-1.07 1.41-2.15 2.35-3.02 1.18-1.08 2.66-1.75 4.16-2.29 4.15-1.5 8.62-2.08 13.01-1.7 2.13.18 4.31.62 6.1 1.79 1.28.84 2.3 2.01 3.23 3.22 1.11 1.42 2.13 2.92 2.91 4.54 1.03 2.14 1.63 4.5 1.75 6.88.11 2.21-.19 4.41-.41 6.61-.56 5.65-.55 11.34-.54 17.02a21.3 21.3 0 0 0-7.71-5.39c-4.35-1.77-9.18-2.05-13.87-1.72-1.84.13-3.68.35-5.46.85-3.37.94-6.5 2.89-10 3.05"/><path d="M69.15 97.6c-.94-2.78-.63-5.75-.21-8.6.47-3.2 1.05-6.39 1.72-9.55.31-1.48.59-2.99 1.08-4.43.47-1.36 1.21-2.59 1.99-3.8s1.47-2.42 2.52-3.35c.94-.83 2.12-1.36 3.29-1.78 2.84-1.03 5.82-1.62 8.84-1.72 2.74-.09 5.94-.03 8.37 1.41s4.11 4.14 5.37 6.47c1.42 2.65 1.98 5.56 1.86 8.55-.15 3.52-.69 7.02-.84 10.55-.16 3.73-.16 7.46-.16 11.2 1.19-.49 2.38-.99 3.57-1.48-4.75-5.14-11.37-7.63-18.27-7.93-3.5-.15-7.22.05-10.61.96s-6.23 2.86-9.63 3.1c-2.72.19-2.75 4.44 0 4.27 3.31-.21 6.24-1.59 9.33-2.66s6.33-1.29 9.55-1.27 6.46.35 9.47 1.49c2.77 1.06 5.21 2.84 7.22 5 1.25 1.34 3.58.29 3.57-1.48-.01-3.73-.02-7.47.13-11.2.15-3.6.69-7.18.78-10.78s-.68-6.87-2.26-9.95c-1.48-2.89-3.66-5.94-6.33-7.83s-6.09-2.31-9.27-2.39c-3.5-.09-7.07.41-10.42 1.45-3.07.96-5.79 2.28-7.77 4.9-2.03 2.69-3.75 5.64-4.48 8.96-.86 3.91-1.41 7.9-1.91 11.87-.47 3.83-.71 7.53.83 11.16.65 1.53 3.21.44 2.68-1.13Z"/><path d="M101.26 130.77c-15.59 1.12-30.97 4.09-46.42 6.35-4.07.6-8.14 1.15-12.22 1.61l2.16 2.16c-3.53-27.38-4.53-55.08-2.85-82.63q.15-2.46.33-4.92c.03-.39 0-.99.19-1.34.3-.54 1.29-1.04 1.76-1.38 2.49-1.78 4.99-3.55 7.49-5.32 5.03-3.56 10.03-7.16 14.87-10.97 4.78-3.77 9.39-7.77 13.6-12.17.5-.52 1-1.05 1.48-1.59.4-.43.88-1.29 1.4-1.53.87-.42 1.65.82 2.19 1.31 2.39 2.18 4.87 4.27 7.41 6.28 5.62 4.47 11.46 8.68 17.34 12.8 2.57 1.81 5.18 3.56 7.87 5.19 1.38.84 2.78 1.65 4.19 2.43.76.42 1.53.84 2.29 1.25.66.35 1.48.63 1.97 1.2l-.57-.98c.2.52-.06 1.77-.1 2.44-.06 1.12-.13 2.24-.18 3.36-.1 1.94-.2 3.87-.29 5.81-.18 3.82-.29 7.64-.45 11.46-.31 7.15-.63 14.3-1.18 21.44-.33 4.26-.73 8.52-1.22 12.77-.13 1.15 1.08 2.13 2.13 2.13 1.26 0 2-.98 2.13-2.13 1.92-16.31 2.36-32.74 3.2-49.13.11-2.23.24-4.46.37-6.69.06-1.07.24-2.2-.34-3.18s-1.65-1.52-2.62-2.03c-3.43-1.82-6.79-3.77-10.06-5.87-7.1-4.57-14.03-9.57-20.69-14.76-1.7-1.33-3.39-2.68-5.04-4.08s-3.22-3.06-4.98-4.37c-1.51-1.13-3.59-1.32-5.27-.44s-2.97 2.84-4.3 4.21C71.12 25.39 64.7 30.6 58.07 35.49c-3.35 2.47-6.74 4.88-10.14 7.28-1.67 1.18-3.33 2.36-5 3.54s-3.7 2.25-4.47 4.2c-.74 1.88-.58 4.26-.71 6.25-.15 2.38-.29 4.76-.4 7.14q-.345 7.02-.45 14.04c-.3 18.73.57 37.47 2.69 56.08.26 2.29.54 4.57.83 6.85.14 1.06.89 2.31 2.16 2.16 7.68-.87 15.33-2.03 22.96-3.23 8.04-1.26 16.09-2.54 24.1-4.01 3.99-.73 7.97-1.52 11.96-2.24 1.58-.29 1.23-2.92-.38-2.81Z"/><path d="M82.03 38.7c-2.59.25-4.81 1.62-6.58 3.49-1.82 1.92-3.45 4.55-2.49 7.27.81 2.3 3.21 3.64 5.57 3.7 1.25.03 2.48-.37 3.58-.93.57-.29 1.1-.67 1.6-1.06s.96-.94 1.49-1.27l-2.43-.64c1.59 2.14 4.06 3.55 6.8 3.25 2.53-.27 5.03-1.95 5.51-4.59.48-2.67-.92-5.6-2.71-7.52-1.9-2.04-4.77-3.09-7.5-2.36-2.13.57-1.2 3.58.89 3.24 1.44-.24 2.91.39 3.92 1.4s2.11 2.8 1.99 4.3c-.1 1.17-1.27 1.85-2.36 1.95-1.5.14-2.86-.68-3.75-1.83-.72-.92-2.26-.53-2.79.36-.67 1.14-2.59 2.1-3.87 2.18-1.01.07-2.38-.38-2.65-1.48-.36-1.45 1.13-3.04 2.03-3.99 1.18-1.24 2.41-2.29 4.14-2.6 1.61-.3 1.26-3.05-.39-2.89Zm-6.78-.35c-.1-.36-.31-.67-.45-1.01l.16.39c-.11-.25-.21-.51-.31-.76l.17.39c-.09-.21-.16-.42-.22-.64s-.09-.44-.15-.66a1.2 1.2 0 0 0-.3-.57c-.12-.18-.28-.33-.47-.43l-.4-.17c-.22-.07-.45-.08-.67-.03-.15 0-.29.04-.42.11-.21.07-.39.18-.54.35-.29.31-.53.75-.49 1.19.03.36.08.71.2 1.05s.25.65.4.97c.09.19.21.37.34.54.28.37.54.75.96.99l.36.15.4.05.4-.05q.3-.075.51-.27.165-.105.27-.27c.09-.09.16-.2.19-.33.07-.12.1-.24.1-.38.04-.2.04-.4-.03-.6Zm5.63-2.12.02-.04-.81.63c.12-.04.25-.1.37-.16.22-.13.4-.31.53-.53.13-.23.2-.48.2-.75.01-.17.02-.34.04-.51.02-.18 0-.36.01-.54.01-.35.04-.71.09-1.06l-.06.45c.04-.29.09-.58.12-.87.02-.23.03-.36-.04-.63-.05-.19-.14-.36-.22-.54l.16.38-.02-.05c-.07-.27-.21-.5-.41-.7s-.43-.33-.7-.41c-.52-.14-1.17 0-1.54.41-.25.28-.5.58-.57.96-.04.25-.08.5-.09.75q-.015.405 0 .81c.015.405.03.52.06.78s.05.5.12.75l.12.4c.07.25.2.47.38.65s.4.31.65.38c.13.02.28.05.41.05l-.96-.4.03.03c.57.59 1.7.49 2.09-.27Zm7.41-2.15c-.03-.09-.04-.19-.06-.28l.06.41q-.03-.285 0-.57l-.06.43c.04-.24.09-.47.18-.7l-.17.4c.08-.19.18-.37.31-.53l-.26.34c.13-.16.25-.32.38-.48l-.26.34c.18-.22.38-.42.53-.67l.16-.39.06-.43-.06-.43c-.05-.21-.15-.4-.29-.55a.8.8 0 0 0-.29-.29q-.15-.15-.36-.21c-.32-.14-.72-.19-1.06-.08-.39.13-.7.31-.99.6-.18.18-.34.38-.47.59-.2.33-.36.7-.45 1.08-.06.25-.1.52-.12.78-.01.19.02.39.04.57s.05.38.1.56c.07.24.18.48.29.7.16.31.57.62.91.7s.67.06.99-.08c.29-.12.58-.33.73-.62.19-.36.26-.77.15-1.17Zm5.66 4.21s.09-.04.13-.07c.02-.01.04-.03.06-.04.13-.09.26-.2.38-.3.08-.06.14-.13.21-.21.09-.12.19-.24.28-.36 0-.01.02-.02.02-.03l.03-.06c.07-.15.13-.3.19-.45 0-.02.02-.04.02-.07.05-.17.07-.38.05-.57-.02-.16-.04-.33-.07-.49 0-.02 0-.05-.01-.07l-.16-.37-.24-.32-.32-.24a1.2 1.2 0 0 0-.58-.19.75.75 0 0 0-.42 0c-.14 0-.27.04-.39.11-.13.04-.25.1-.34.2-.17.11-.3.26-.4.44-.02.03-.04.05-.06.08l.25-.32s-.05.07-.08.1c-.06.06-.08.1-.15.19-.06.08-.1.12-.14.19a.2.2 0 0 1-.04.06c-.05.08-.1.16-.16.23l.26-.34c-.06.08-.14.16-.22.22l.34-.26s-.08.06-.12.08c-.19.1-.35.25-.46.43-.15.16-.25.35-.3.56q-.105.33-.03.66c0 .22.08.43.2.62l.26.34c.21.21.45.35.73.43l.44.06c.3 0 .58-.08.84-.23ZM83.81 16.2a634 634 0 0 0-30.78-2.52c-2.2-.13-4.46-.23-6.57.43-3.41 1.09-5.85 4.01-8.32 6.61-4.09 4.31 11.36-8.76 6.27-5.69-4.56 2.76-30.04 21.61-33.19 25.9-.55.75-.78.96-.79 1.55-.02 1.15 1.29 1.79 2.38 2.15 7.47 2.41 15.08 4.35 22.79 5.81 1.1.21 2.24.41 3.33.15 1.03-.25 1.92-.88 2.77-1.5 13.7-9.97 26.92-20.61 39.6-31.86"/><path d="M84.23 14.69c-10.16-1.55-20.46-2.37-30.71-3.06-2.4-.16-4.85-.31-7.2.3-2.18.57-4.07 1.8-5.77 3.24-1.48 1.25-2.8 2.72-4.1 4.15-.59.65-1.2 1.31-1.2 2.26 0 1.84 1.98 2.67 3.46 1.87.55-.3 1.05-.73 1.54-1.12a78 78 0 0 0 3.94-3.31c1.04-.93 2.35-1.91 3.08-3.13.77-1.28.26-3.04-1.27-3.45-.9-.25-1.75.15-2.51.59-3.42 1.97-6.58 4.5-9.75 6.83-4.85 3.56-9.64 7.22-14.34 10.98-3.2 2.57-6.79 5.14-9.43 8.32-1.07 1.29-1.99 2.71-1.43 4.46.68 2.1 2.99 2.8 4.87 3.39 4.81 1.52 9.68 2.84 14.6 3.96 2.48.57 4.97 1.11 7.47 1.54 2.35.4 4.42.27 6.46-1.08 4.09-2.71 7.95-5.86 11.83-8.85 7.98-6.14 15.8-12.5 23.42-19.08 1.86-1.6 3.7-3.22 5.54-4.85 1.94-1.72-.91-4.55-2.84-2.84-8.77 7.77-17.8 15.26-27.07 22.43a510 510 0 0 1-10.41 7.82c-1.08.79-2.18 1.78-3.4 2.34-1.06.48-2.23.18-3.32-.04q-2.235-.435-4.47-.93-4.335-.945-8.64-2.1c-4.305-1.155-5.71-1.6-8.53-2.5-.44-.14-.94-.42-1.39-.52.47.11-.41-.17-.32-.25.21-.18.21.75.09.75.05 0 1.03-1.29.44-.62.12-.13.23-.27.35-.4 1.47-1.62 3.21-3.03 4.89-4.43 5.14-4.28 10.5-8.3 15.88-12.28 2.65-1.96 5.31-3.91 8.01-5.8.91-.64 1.82-1.27 2.75-1.88.3-.19.59-.39.9-.57.13-.08.38-.16.49-.27.22-.23-.46.16-.3.12.15-.03-.85.02-.98-.02l-.97-.56h.01c-.19-.31-.38-.63-.56-.96-.19-.48-.02-1.18.18-1.54-.02.04-.05.07-.07.11.38-.66.23-.27.04-.09-.29.3-.58.6-.88.89-.81.78-1.65 1.52-2.51 2.26s-1.68 1.42-2.53 2.11c-.11.09-.21.17-.32.25.06-.04.38-.29.15-.12l-.46.34c-.79.54-.19.01.53.03l1.11.3h-.01c.26.26.53.52.79.78.1.36.2.73.3 1.1 0 .18-.48 1.44-.2.93-.33.61-.29.34-.11.17.37-.36.71-.76 1.06-1.14 1.28-1.36 2.55-2.81 4.05-3.94 3.38-2.56 7.56-1.91 11.53-1.7 9.29.49 18.56 1.3 27.85 1.86 1.73.1 2.17-2.8.42-3.07ZM9.96 127.62c6.12 3.47 12.36 6.72 18.68 9.82 3.15 1.55 6.32 3.08 9.55 4.47 1.6.69 3.12 1.28 4.87.8 1.44-.39 2.59-1.18 4.13-1.11 1.86.09 2.06-2.57.42-3.12-1.42-.48-2.84 0-4.26.19-1.35.17-2.61-.4-3.83-.92-3.17-1.36-6.35-2.69-9.49-4.1-6.21-2.79-12.33-5.8-18.36-8.95-1.92-1-3.6 1.84-1.7 2.91Z"/><path d="M96.69 133.68a942 942 0 0 1-40.95 14.77c-5.41 1.81-10.83 3.57-16.34 5.05-2.56.69-5.18 1.31-7.82 1.17-3.96-.21-7.68-2.17-10.62-4.84s-5.17-6.02-7.17-9.44c-2.18-3.73-4.19-7.88-3.73-12.18.04-.33.1-.68.33-.92.58-.58 1.54-.01 2.14.54 3.06 2.8 6.38 5.35 10 7.38 4.02 2.25 8.37 3.84 12.7 5.41 2.28.83 4.59 1.67 7 1.89 2.09.2 4.19-.07 6.27-.34 12.52-1.65 25-3.62 37.41-5.92"/><path d="M96.24 132.03c-13.12 4.91-26.33 9.61-39.63 14.02-6.59 2.18-13.25 4.47-20.04 5.97-3.11.68-6.19.73-9.16-.54-2.59-1.11-4.79-2.93-6.67-5.01-2.25-2.5-4.04-5.43-5.67-8.37-.89-1.61-1.71-3.25-2.24-5.02-.24-.79-.44-1.6-.53-2.43-.06-.54-.27-1.75.04-2.21l-.81.81c-1.55 1.06-.72-.24-.58.19.04.13.52.47.66.6.44.4.89.78 1.34 1.17 1.05.89 2.14 1.74 3.24 2.57 1.91 1.42 3.92 2.72 6.02 3.84 4.49 2.39 9.35 4.16 14.15 5.81 2.53.87 5.12 1.47 7.81 1.42s5.42-.54 8.09-.96c5.34-.83 10.68-1.67 16.02-2.53 6.07-.97 12.13-2.03 18.18-3.13 2.54-.46 1.47-4.36-1.07-3.89-12.99 2.44-26.12 4.69-39.29 5.91-3.19.3-5.98-.24-8.99-1.3-2.85-1.01-5.71-2.04-8.49-3.23s-5.47-2.6-7.99-4.29c-2.43-1.62-4.53-3.57-6.79-5.41-1.18-.96-2.86-1.66-4.32-.84s-1.75 2.55-1.78 4.14c-.04 3.09.97 6.06 2.28 8.82 2.44 5.13 5.85 10.45 10.3 14.05 2.21 1.79 4.7 3.24 7.45 4.03 2.96.84 6 .72 8.99.11 6.31-1.28 12.49-3.55 18.57-5.62 14.06-4.78 28-9.87 41.79-15.38 2.01-.8 1.17-4.08-.91-3.3Z"/></svg>