<?xml version="1.0" encoding="UTF-8"?><svg xmlns="http://www.w3.org/2000/svg" viewBox="0 0 180 180"><path d="M79.93 125.01c-18.09-7.32-32.53-22.44-40.14-40.29-3.87-9.07-6.28-19.42-5.54-29.32.4-5.3 2.16-10.46 5.82-14.4 3.44-3.7 7.99-6.21 12.82-7.59 6.74-1.92 13.81-1.76 20.71-.99 3.31.37 6.75.74 9.95-.48 2.85-1.08 5.1-3.34 7.97-4.35-.87-.49-1.74-.99-2.6-1.48.45 1.61.63 3.18.57 4.86-.04 1.17.98 1.97 2.05 2.05 4.21.33 8.39-.54 12.19-2.38l-2.93-2.25c-.43 2.72-.87 5.45-1.3 8.17-.16.98.24 2.24 1.39 2.44 3.62.65 7.21.63 10.81-.1-.74-.3-1.49-.61-2.23-.91.19.38-.8 2.26-1.05 2.94-.54 1.47-.58 3.14.52 4.37 1.38 1.54 3.4 1.41 5.24.96 2.34-.57 4.67-1.21 7-1.81l-1.96-3.37c-1.36 1.39-2.73 2.77-4.06 4.18-1.24 1.31-2.35 3.13-1.35 4.94.92 1.65 2.68 1.67 4.28 2.12 1.39.39 2.65 1.12 3.73 2.07 4.66 4.12 7.15 10.83 7.89 16.87 1.68 13.65-4.2 26.75-12.89 36.97-5.11 6-11.12 11.2-17.4 15.94h2.03c-6.26-3.88-14.35-4.73-21.2-1.97-1.05.42-1.79 1.4-1.47 2.59.27.99 1.53 1.91 2.59 1.47 5.93-2.49 12.61-2.08 18.06 1.38.55.35 1.49.41 2.03 0 11.24-8.43 22.37-18.13 28.58-31.01 5.89-12.22 7.19-27.83-.34-39.68-1.98-3.11-4.61-5.92-7.94-7.6-.81-.41-1.68-.77-2.55-1.01-.41-.11-.83-.19-1.25-.27-.15-.03-.34-.09-.49-.09l-.32-.08c.1.96.26 1.24.47.84.33-.18.7-.78.97-1.07.37-.39.75-.79 1.12-1.19l2.4-2.55c1.36-1.44.02-3.91-1.96-3.37-1.94.53-3.88 1.05-5.82 1.57-.78.21-1.55.35-2.33.51-.11.02-.07.1-.02.29-.18-.72.91-2.38 1.12-3.01.47-1.35.45-2.65-.18-3.94-.4-.82-1.42-1.07-2.23-.91-2.87.58-5.83.61-8.71.08l1.39 2.44c.44-2.72.88-5.45 1.31-8.17.28-1.75-1.28-3.05-2.93-2.25-3.2 1.54-6.66 2.07-10.18 1.71l2.05 2.05c.12-2.02-.09-4.03-.6-5.98-.27-1.06-1.53-1.84-2.6-1.48-2.73.93-4.88 2.74-7.42 4.02-2.76 1.39-5.96.96-8.92.63-6.54-.74-13.13-.94-19.61.39-11.32 2.32-21.28 10.01-23.81 21.66-1.25 5.79-.94 11.76-.09 17.58.74 5.07 2.04 10.05 3.84 14.84a79 79 0 0 0 16.34 26.21c7.89 8.41 17.61 15.02 28.37 19.17 1.88.72 2.65-2.26.83-3Zm27.15-102.48c1.4-1.81 2.65-3.72 3.64-5.79.5-1.04.95-2.11 1.34-3.19.42-1.17.67-2.3.76-3.54.05-.67-.51-1.31-1.13-1.48s-1.48.09-1.74.71c-.44 1.03-.82 2.05-1.17 3.11s-.66 1.81-1.09 2.74c-.9 1.91-1.99 3.72-3.26 5.4-.5.66-.17 1.72.43 2.18s1.69.54 2.22-.13Zm8.99 5.01c2.13-1.78 4.44-3.32 6.88-4.65 1.23-.67 2.49-1.27 3.77-1.83s2.99-.9 4.01-1.92c1.1-1.11.19-2.67-1.17-2.83-.79-.09-1.56.24-2.28.52-.78.31-1.55.64-2.31.98a42 42 0 0 0-3.92 2.06c-2.6 1.53-5.04 3.33-7.32 5.31-.68.59-.6 1.74 0 2.34.68.68 1.65.58 2.34 0Zm6.95 7.51c1.85-.54 3.74-.94 5.64-1.25 1.87-.31 3.82-.35 5.73-.62.78-.11 1.25-1.06 1.15-1.76-.12-.83-.76-1.32-1.57-1.39-2-.17-4.11.22-6.07.59s-3.81.94-5.65 1.63c-.73.28-1.24.98-1.01 1.79.21.75 1.03 1.24 1.79 1.01Zm13.18 5.36-.07-.1-.03-.05s-.01-.02-.02-.03c-.18-.27-.3-.42-.59-.59-.19-.11-.35-.15-.54-.2q-.285-.09-.57-.03c-.19 0-.37.07-.53.17l-.29.22c-.18.18-.3.39-.37.63l-.03.09c-.07.17-.09.25-.09.5 0 .22.03.35.09.53l.04.12c.08.28.22.52.42.73l.33.26c.26.15.53.22.83.23.23 0 .44-.04.64-.14.2-.07.38-.18.53-.34.16-.15.27-.33.34-.53.1-.2.15-.41.14-.64 0-.3-.08-.57-.23-.83M97.5 17.78c2.17 0 2.18-3.38 0-3.38s-2.18 3.38 0 3.38"/><path d="M80.4 125.22c-3.32 4.42 9.48 4.6 10.93 4.43 1.54-.18 10.91-1.93 6.98-3.72a27.3 27.3 0 0 0-13.78-2.32c-1.26.12-2.56.35-3.58 1.09"/><path d="M79.46 124.29c-1.09.99-1.57 2.52-.79 3.87.7 1.21 2.05 1.82 3.32 2.24 2.58.85 5.47 1.04 8.18 1.05 2.27 0 4.62-.56 6.77-1.22 1.31-.41 2.98-.93 3.74-2.18 1.1-1.82-.53-3.24-2.06-3.92-3.13-1.4-6.37-2.12-9.77-2.45-1.58-.15-3.18-.17-4.77 0s-3.99.47-4.71 2.13c-.51 1.19.06 2.77 1.57 2.73 1.13-.03 2.12-.69 3.24-.86s2.37-.22 3.55-.22c2.31 0 4.57.37 6.78 1.03 1.01.3 2.08.61 3.03 1.08.12.06.24.13.36.19-.33-.17-.18-.18-.08-.05-.29-.35-.36-1.09-.21-1.4s.2-.31.07-.14c-.11.15.38-.21.07-.06-.22.11-.43.24-.66.35-.07.03-.3.12.03-.01-.14.06-.28.11-.43.16q-.465.165-.93.3c-1.19.36-2.41.63-3.63.85-.2.04-.4.07-.6.11-.1.02-.7.09-.31.05.37-.03-.01 0-.09 0-.14 0-.29.01-.43.02q-1.41.03-2.82-.06c-.55-.03-1.1-.07-1.65-.13-.13-.01-.27-.03-.4-.04-.04 0-.57-.07-.19-.02-.32-.04-.64-.1-.96-.15-.65-.12-1.3-.25-1.93-.45-.15-.05-.86-.33-.48-.16-.22-.1-.42-.22-.63-.34-.09-.05-.18-.12-.27-.19.44.33-.02.01-.04-.07-.01-.07 0-.31.08.11-.09-.42.03.26-.02-.02s.06-.12 0 .06c.02-.07.05-.46-.02.01.02-.11.04-.22.07-.33.01-.05.17-.47.08-.28.6-1.33-.91-2.66-2.07-1.6Z"/><path d="M59.75 30.02c-5.4 2.58-7.48 8.62-8.25 14.16-1.01 7.25-.65 14.65.59 21.85 1.25 7.23 3.51 14.24 6.39 20.97 2.82 6.61 6.2 13.15 10.21 19.11 2.27 3.38 4.67 6.69 7.03 10.01 2.35 3.29 4.7 6.61 7.26 9.73 1.03 1.26 3.22-.41 2.27-1.75-3.98-5.66-8.49-11.01-12.03-16.98-3.49-5.88-7.01-11.78-9.94-17.97C57.39 76.69 53.7 62.86 54.4 49c.29-5.75 1.09-13.49 6.72-16.61 1.57-.87.19-3.13-1.39-2.37Zm30.84.08c-2.53.78-3.94 2.9-4.93 5.23-1.19 2.8-2.06 5.73-2.68 8.71-1.33 6.42-1.42 13.01-1.08 19.53.71 13.34 2.22 26.66 3.33 39.97.64 7.61 1.1 15.26 1.97 22.85.24 2.06 3.42 2.17 3.31 0-.33-6.46-1-12.92-1.54-19.37-.53-6.46-1.05-12.91-1.56-19.37-.49-6.34-1-12.68-1.52-19.02-.51-6.15-.88-12.35-.31-18.51.32-3.43 1.01-6.79 1.99-10.09.64-2.16 1.4-6.02 3.8-7 1.75-.72 1.11-3.51-.81-2.92Zm25.39 17.95c-3.79 3.78-4.62 9.47-2.34 14.25.57 1.21 1.23 2.25 1 3.64-.23 1.35-1.07 2.61-1.94 3.65-1.78 2.13-4.2 3.93-5.46 6.45s-1.51 5.23-.98 7.91c.25 1.29.74 2.47 1.16 3.71s.53 2.46.48 3.73c-.13 2.94-2.06 5.03-3.57 7.39s-2.46 5.16-3.23 7.9c-.91 3.28-1.74 6.55-3.18 9.65-1.49 3.22-3.51 6.13-5.07 9.3-.93 1.89 1.58 3.31 2.79 1.63 3.54-4.9 6.23-10.75 7.84-16.56.78-2.81 1.44-5.72 2.75-8.34s3.33-4.54 4.3-7.18c.94-2.56.42-4.98.31-7.6-.1-2.54-.39-5.09-.41-7.62-.02-2.62 1.68-4.58 3.4-6.37 1.93-2.01 3.84-4.26 4.32-7.1.3-1.75-.09-3.34-.86-4.91-.62-1.26-1.23-2.4-1.43-3.82-.37-2.72.35-5.59 2.12-7.7 1.16-1.38-.69-3.33-2.01-2.01ZM76.34 157.29c1.85-2.82 2.05-6.25 3.54-9.21.25-.5.55-1.19 1.04-1.52.53-.36 1.31-.36 1.93-.4 2.08-.14 4.16-.24 6.23-.35 1.87-.1 3.74-.24 5.62-.22 1.64.02 3.27.21 4.9.26 1.24.04 2.48.5 3.24 1.56.8 1.11 1.12 2.81 1.59 4.09.54 1.49 1.09 2.98 1.58 4.49.23.7.44 1.41.6 2.13.07.31.09.68.19.98.03.11.04.22.04.33.28-.7.32-.9.11-.6-.63.58-.81 1.77-1.18 2.51-.62 1.24-1.31 2.47-2.12 3.6-1.67 2.31-5.22 2.58-7.96 2.83-3.4.32-7.05.35-10.45.04-3.55-.32-7.22-2.61-8.94-5.79-.88-1.63-.52-3.39.06-5.07.73-2.15 1.76-4.19 2.45-6.35.53-1.67-1.97-2.72-2.83-1.19-1.14 2.04-2 4.24-3.07 6.32s-1.67 4.01-.99 6.29c1.09 3.65 4.62 6.75 7.86 8.53 3.79 2.09 8.78 1.66 12.96 1.44 2.15-.12 4.28-.42 6.38-.83 1.84-.36 3.91-.8 5.5-1.84 2.39-1.57 3.83-4.69 5.12-7.14.6-1.14 1.34-1.98 1.15-3.64-.2-1.84-.64-3.65-1.19-5.42s-1.22-3.45-1.83-5.18c-.75-2.12-1.63-3.76-3.5-5.09-1.6-1.14-3.37-1.45-5.29-1.49-2.09-.04-4.13-.32-6.22-.23-2.62.11-5.24.3-7.85.48-2.37.16-5.11.03-6.94 1.82-3.23 3.16-2.36 8.48-4.56 12.2-1.08 1.83 1.68 3.41 2.83 1.66"/><path d="M77.04 165.55c-.89-1.05-1.83-2.26-1.67-3.63.12-1.05.9-1.93 1.82-2.44s1.98-.71 3.02-.88a94 94 0 0 1 24.16-.9c.86.08 2.77-.34 3.12.45 1.11 2.44.67 3.64-.02 4.15 2.46-3.24.22-4.91-.46-6.42-.6-1.31-1.66-2.33-2.51-3.5a11.6 11.6 0 0 1-2.09-5.27c-.05-.36-.1-.76-.38-.99-.16-.13-.37-.17-.57-.21a65.5 65.5 0 0 0-16.42-1.17c-1.39.08-2.9.26-3.86 1.26-.62.65-.9 1.53-1.15 2.39-.98 3.31-1.92 6.78-4.22 9.34"/><path d="M78.09 164.93c-.76-1.11-1.88-2.68-.48-3.75 1.19-.91 3.1-.88 4.51-1.07 3.6-.5 7.23-.78 10.86-.88s7.27.04 10.9.34c.56.05 1.09.04 1.64.02.17 0 .75.08.87 0 .23.02.19 0-.13-.07l-.41-.4s.46 1.49.47 1.72c0 .18.05.3.03.08.02.2-.01.03-.13.13.93.72 1.86 1.44 2.79 2.15.99-1.46 1.62-3.08 1.22-4.85-.27-1.2-1.03-2.12-1.6-3.17-.86-1.58-2.09-2.85-3.02-4.37-.46-.75-.79-1.53-1.02-2.37-.25-.9-.17-1.92-.54-2.77-.89-2.01-3.74-2.02-5.62-2.32-2.26-.35-4.54-.61-6.82-.75s-4.5-.16-6.74-.01c-1.95.13-3.97.51-5.34 2.03-1.46 1.62-1.77 4-2.38 6.02s-1.42 4-2.77 5.67c-.7.86-.84 2.06 0 2.91.76.76 2.15.82 2.91 0 1.81-1.96 2.89-4.35 3.78-6.84.42-1.17.78-2.37 1.16-3.55.35-1.11.7-1.59 1.89-1.78 2.64-.43 5.56-.26 8.22-.14q2.295.09 4.59.36c.7.08 1.4.17 2.1.28.32.05.64.1.96.16.1.02.98.22.89.12l-.5-.86c.6 1.53.8 3.11 1.54 4.61s1.9 2.7 2.89 4.06c.62.86 1.18 1.89 1.69 2.82.62 1.14.22 1.97-.54 2.98-1.05 1.39 1.04 3.48 2.43 2.43 2.8-2.1 1.92-7.72-1.83-8.06-.72-.07-1.45.05-2.17.02-1.13-.04-2.26-.18-3.38-.24-2.58-.14-5.17-.17-7.75-.09-4.83.14-9.96.46-14.64 1.71-1.94.51-3.93 1.63-4.58 3.66-.72 2.24.67 4.08 2.18 5.58.95.95 2.72-.31 1.91-1.48Z"/><path d="M81.67 128.19c-.44 2.65-.97 5.27-1.25 7.95-.14 1.32-.28 2.64-.43 3.96-.14 1.3-.43 2.65-.44 3.96 0 1.44 2.15 1.75 2.52.34.33-1.27.4-2.64.6-3.94s.41-2.62.61-3.93c.42-2.66.6-5.33.85-8 .13-1.4-2.24-1.73-2.47-.33Zm9.08 9.5c-.07-.81.05-1.64.06-2.46s.06-1.58.05-2.37 0-1.58.05-2.37.23-1.66.18-2.46-.54-1.39-1.32-1.5c-.74-.1-1.47.35-1.67 1.09-.23.84-.17 1.81-.17 2.67s.03 1.64.08 2.46c.05.88.19 1.74.32 2.61.12.77.36 1.54.42 2.31.04.54.43 1 1 1 .51 0 1.04-.46 1-1Zm4.05-9.49c1 2.58 1.76 5.28 2.56 7.93.4 1.33.81 2.67 1.2 4s.59 2.9 1.25 4.13c.8 1.48 3.12.78 3.12-.84 0-1.38-.62-2.89-1.01-4.21a73 73 0 0 0-1.33-4.12c-.97-2.71-2.19-5.29-3.33-7.92-.6-1.38-3.01-.39-2.46 1.04ZM52.18 90.8c4.81-.62 9.67-.67 14.49-.11 4.85.56 9.52 1.88 14.14 3.41 1.42.47 2.44-1.84 1.04-2.46-9.17-4.04-19.78-5.07-29.66-3.79-.8.1-1.47.61-1.48 1.48 0 .72.69 1.58 1.48 1.48Zm-5.31-12.19c4.29-.2 8.59-.21 12.88-.03 2.11.09 4.21.21 6.31.38s4.35.53 6.53.56c1.42.02 1.75-2.16.34-2.5-4.14-.99-8.69-1.05-12.93-1.17-4.38-.13-8.75-.04-13.12.23-1.61.1-1.64 2.61 0 2.53Zm1.67-12.3c2.53-.08 5.06-.02 7.58.21s4.97.7 7.45 1.05c.68.1 1.36-.17 1.56-.88.18-.67-.23-1.36-.88-1.56-2.54-.75-5.2-1.07-7.83-1.3-2.62-.23-5.25-.27-7.88-.16-1.69.07-1.7 2.7 0 2.64m50.12 5.62s-.01-.03-.02-.04l.17.41s-.03-.1-.04-.15l.06.45v-.18l-.06.45c.01-.09.03-.18.04-.27.02-.12.03-.17.03-.27v-.09l-.06.44c0-.06.02-.11.04-.16l-.16.39c.07-.16.14-.33.21-.49l-.16.37.03-.06a1.51 1.51 0 0 0 0-1.54c-.27-.46-.78-.77-1.32-.75-.34 0-.71.08-.99.28-.13.09-.29.2-.41.33s-.23.28-.33.43-.18.33-.21.51c-.02.13-.07.39-.07.57 0 .19.03.39.08.57s.14.36.21.52c.11.2.25.36.44.48.17.15.36.25.58.31.23.07.45.08.68.03.23-.01.44-.08.64-.2l.35-.27c.21-.21.36-.47.44-.75l.06-.45c0-.31-.08-.6-.23-.86Zm3.8-3.77.56-.02c.2 0 .4-.03.57-.13.18-.06.34-.16.48-.31.14-.13.25-.29.31-.48.09-.18.14-.37.13-.57l-.05-.39c-.07-.25-.2-.47-.38-.66l-.3-.23c-.23-.13-.48-.2-.75-.2l-.56-.02c-.21 0-.4.04-.58.13-.19.06-.35.16-.48.31-.15.14-.25.3-.31.48-.09.18-.14.37-.13.58l.05.4q.105.375.39.66l.3.23c.23.14.49.2.76.2Zm.56 7.46c1.83 0 1.83-2.84 0-2.84s-1.83 2.84 0 2.84M95.2 65.14c2.01 0 2.01-3.12 0-3.12s-2.01 3.12 0 3.12m-67.87 82.55c2.35-1.83 5.71-1.76 8.12-.14 1.54 1.03 2.89-.92 2.29-2.29-2.13-4.87-.23-11.58 4.94-13.67 2.35-.95 5.32-.97 7.45.52 2.56 1.79 3.08 5.29 3.43 8.17.21 1.7 2.47 2.7 3.47.94 1.74-3.06 5.48-4.76 8.95-4.28 1.82.25 2.59-2.17.77-2.8-4.93-1.71-10.41.78-12.94 5.2 1.16.31 2.32.63 3.47.94-.39-3.29-.92-6.67-3.01-9.35-1.86-2.38-4.71-3.62-7.7-3.78-6.19-.32-11.47 4.25-12.91 10.11-.79 3.23-.46 6.77 1.18 9.68l2.29-2.29c-3.77-2.4-8.61-1.98-12.04.8-1.59 1.29.66 3.46 2.23 2.23Zm82.95-8.56c1.9-.09 3.51.81 4.37 2.51.71 1.4 2.52.54 2.67-.72.21-1.77 1.29-3.68 3.06-4.26 1.39-.46 3.4.12 3.81 1.67.44 1.65 2.82 1.59 3.29 0 .83-2.83 1.71-5.58 3.84-7.73 1.78-1.8 4.43-2.99 7-2.61 2.48.36 4.41 2.25 5.36 4.51 1.22 2.9.75 6.16-.2 9.05-.76 2.31 2.83 3.26 3.62 1 .33-.94 1.76-1.07 2.54-.71 1.39.63 1.92 2.23 2.44 3.54.33.83 1.01 1.4 1.95 1.27.8-.11 1.62-.86 1.54-1.74-.29-2.98-2.26-6.05-5.29-6.84-2.83-.74-5.83.71-6.79 3.48 1.21.33 2.41.66 3.62 1 1.26-3.88 1.52-8.15-.22-11.92-1.46-3.16-4.34-5.67-7.83-6.22-8.02-1.25-13.99 6.19-14.92 13.47l3.18-.86c-1.35-2.76-4.62-4.28-7.61-3.43-3.22.91-5.13 4.14-5.24 7.34l2.67-.72c-1.43-2.39-4.04-3.88-6.85-3.68-1.66.12-1.69 2.69 0 2.61Z"/></svg>