<?xml version="1.0" encoding="UTF-8"?><svg xmlns="http://www.w3.org/2000/svg" viewBox="0 0 180 180"><path d="M97.9 37.29c17-6.44 35.17-9.31 52.88-13.06 2.32-.49 4.63-.99 6.94-1.52 2.18-.5 4.75-1.25 6.84-.09-.26-1-.52-2-.79-3-4.92 6.69-11.46 12.05-18.39 16.55-7.56 4.91-15.63 9.07-23.74 13-4.9 2.38-9.86 4.62-14.87 6.75-1.12.47-1.36 2.13-.81 3.08.68 1.16 1.96 1.28 3.08.81 9.14-3.88 18.1-8.17 26.84-12.89 7.65-4.13 15.15-8.64 21.77-14.31 3.73-3.2 7.04-6.79 9.9-10.77.68-.94.18-2.47-.79-3-4.25-2.31-9.14-.48-13.51.52-4.5 1.04-9.01 2.01-13.53 2.99-9.41 2.04-18.82 4.13-28.08 6.78-4.95 1.42-9.87 2.98-14.68 4.83-2.05.79-1.17 4.12.92 3.33Z"/><path d="M98.2 45.97c.08 1.37.83 2.5 1.98 3.24s2.41.82 3.66.63c1.15-.17 2.26-.77 3.09-1.58.91-.88 1.43-2.05 1.6-3.29.18-1.37-.09-2.88-.93-4-.27-.37-.55-.65-1.01-.78-.41-.11-.95-.06-1.31.17-.73.47-1.14 1.53-.61 2.32.07.11.15.22.21.34.06.1.1.27.18.36-.1-.26-.12-.3-.06-.13.02.06.05.12.07.19.04.13.08.25.1.38.01.06.03.13.04.19.03.18.02.13-.02-.16-.02.11.02.28.02.4v.3c0 .07 0 .13-.02.2.04-.28.05-.34.02-.15-.03.13-.05.26-.09.39-.03.11-.12.27-.13.38.11-.25.12-.29.05-.13l-.09.18c-.06.11-.14.22-.21.33-.17.28.24-.26.03-.04-.09.09-.17.19-.26.28-.09.08-.21.16-.29.25.21-.16.25-.19.11-.09-.05.04-.11.07-.16.11-.11.07-.22.13-.33.19-.06.03-.11.06-.17.08.25-.1.29-.12.13-.06-.21.07-.42.14-.64.19-.06.01-.12.02-.19.03.28-.03.33-.04.15-.02-.13 0-.25.02-.38.02-.12 0-.27-.04-.38-.02.27.04.32.05.15.02-.06-.01-.12-.02-.18-.04-.12-.03-.24-.07-.36-.11-.31-.1.33.18.04.01l-.33-.18c-.05-.03-.1-.07-.16-.1.2.16.23.19.1.08-.09-.08-.17-.17-.26-.25-.11-.13-.08-.09.08.11-.03-.05-.07-.1-.1-.15s-.06-.1-.09-.16c.09.24.11.28.05.13-.03-.12-.1-.53-.04-.03-.05-.42-.14-.77-.45-1.09-.27-.27-.7-.47-1.09-.45-.79.04-1.59.68-1.54 1.54Zm14.63-6.19c.08 1.37.83 2.5 1.98 3.24s2.41.82 3.66.63c1.15-.17 2.26-.77 3.09-1.58.91-.88 1.43-2.05 1.6-3.29.18-1.37-.09-2.88-.93-4-.27-.37-.55-.65-1.01-.78-.41-.11-.95-.06-1.31.17-.73.47-1.14 1.53-.61 2.32.07.11.15.22.21.34.06.1.1.27.18.36-.1-.26-.12-.3-.06-.13.02.06.05.12.07.19.04.13.08.25.1.38.01.06.03.13.04.19.03.18.02.13-.02-.16-.02.11.02.28.02.4v.3c0 .07 0 .13-.02.2.04-.28.05-.34.02-.15-.03.13-.05.26-.09.39-.03.11-.12.27-.13.38.11-.25.12-.29.05-.13l-.09.18c-.06.11-.14.22-.21.33-.17.28.24-.26.03-.04-.09.09-.17.19-.26.28-.09.08-.21.16-.29.25.21-.16.25-.19.11-.09-.05.04-.11.07-.16.11-.11.07-.22.13-.33.19-.06.03-.11.06-.17.08.25-.1.29-.12.13-.06-.21.07-.42.14-.64.19-.06.01-.12.02-.19.03.28-.03.33-.04.15-.02-.13 0-.25.02-.38.02-.12 0-.27-.04-.38-.02.27.04.32.05.15.02-.06-.01-.12-.02-.18-.04-.12-.03-.24-.07-.36-.11-.31-.1.33.18.04.01l-.33-.18c-.05-.03-.1-.07-.16-.1.2.16.23.19.1.08-.09-.08-.17-.17-.26-.25-.11-.13-.08-.09.08.11-.03-.05-.07-.1-.1-.15s-.06-.1-.09-.16c.09.24.11.28.05.13-.03-.12-.1-.53-.04-.03-.05-.42-.14-.77-.45-1.09-.27-.27-.7-.47-1.09-.45-.79.04-1.59.68-1.54 1.54Zm48.44-16.46c-2.19-.98-4.43-2-6.08-3.73-3.52-3.68-.71-10.22 4.02-5.06 1.18 1.29 1.41 3.41 2.92 4.28-1.07-3.14.45-6.95 3.39-8.48.46-.24.98-.43 1.48-.29.86.23 1.19 1.28 1.26 2.17.37 4.33-2.06 8.77-5.91 10.79"/><path d="M162.01 22.05c-1.62-1.11-3.5-1.9-4.89-3.17-.16-.15-.32-.3-.47-.45-.09-.09-.17-.19-.26-.28-.02-.02-.19-.23-.06-.06.1.13-.16-.24-.22-.33-.11-.18-.2-.36-.3-.54-.17-.32.06.24-.04-.1-.05-.16-.11-.32-.15-.49s-.06-.32-.1-.49c.09.37.02.12 0-.1v-.46c0-.09.09-.57.02-.25s.03-.09.05-.16.17-.59.07-.27.06-.09.1-.17c.02-.05.07-.09.09-.14.08-.21-.29.26-.11.14.05-.04.19-.16.22-.22.11-.19-.33.26-.15.12.05-.04.12-.08.17-.1.17-.07-.23.09-.23.09s.17-.06.2-.06c.33-.04-.44-.03-.1 0 .09 0 .51.08.2 0s.19.09.29.11c.19.03-.11-.04-.14-.06.08.05.18.09.27.14.14.08.28.17.41.26.05.03.27.22.04.02l.22.19c.21.19.41.38.6.59.07.07.13.14.19.21-.13-.15-.07-.1.01.03.12.21.25.4.36.61.22.42.42.86.63 1.29.52 1.02 1.22 1.91 2.2 2.52 1.4.87 3.35-.58 2.83-2.18-.07-.23-.14-.46-.19-.7-.02-.12-.05-.24-.06-.35.03.22.03.21.01-.02 0-.24-.02-.48-.01-.72 0-.08.09-.81.02-.37.08-.48.22-.93.37-1.39.08-.21.09-.22 0-.03.05-.11.1-.22.16-.32q.165-.315.36-.63c.04-.06.46-.64.21-.33.15-.19.31-.36.48-.53s.35-.33.53-.48c-.31.25.27-.17.34-.21.1-.06.21-.12.31-.18q.315-.18.15-.06c-.01-.02-.45-.2-.5-.23.15.16.15.15 0-.02.1.2.11.19.01 0 .08.22.13.45.17.68-.08-.49 0 .31 0 .4v.78c0 .26-.03.52-.06.77.04-.37-.07.37-.08.44-.1.51-.24 1.01-.42 1.49-.2.56-.19.54-.51 1.14-.24.46-.53.89-.82 1.32-.14.18-.15.21-.05.07-.08.1-.16.2-.25.3-.17.2-.34.39-.52.57-.78.8-1.22 1.12-2.24 1.67-.91.49-1.2 1.75-.69 2.62.54.92 1.7 1.17 2.62.69 4.01-2.13 6.61-6.39 6.92-10.89.16-2.39-.55-5.71-3.56-5.73-2.34-.02-4.59 2.12-5.65 4.05-1.2 2.19-1.56 4.86-.77 7.25.94-.73 1.89-1.45 2.83-2.18-.31-.2-.09-.05-.03 0-.09-.07-.16-.16-.24-.23-.25-.23-.07-.08-.02 0-.07-.09-.13-.19-.19-.29-.26-.43-.47-.89-.69-1.34-.5-1.03-1.12-1.95-1.97-2.73-1.49-1.37-3.55-2.4-5.56-1.55-1.73.73-2.59 2.52-2.72 4.32-.14 1.96.68 3.9 1.96 5.35 1.78 2.02 4.65 3.44 7.24 4.07 1.67.41 2.5-1.76 1.14-2.7ZM86.54 43.7c-1.44-3.11-2.33-6.68-2.54-10.1-.1-1.65-.06-3.33.26-4.95.16-.83.38-1.64.64-2.44.14-.41.41-1.56.78-1.73l-.94.25c-.09-.12-.05-.12.1.01.14.12.27.23.4.35.27.24.53.47.79.72.57.52 1.12 1.06 1.66 1.61 1.02 1.05 1.99 2.15 2.88 3.31 1.82 2.38 3.36 5 4.61 7.72.42.91 1.73 1.13 2.53.66.94-.55 1.07-1.61.66-2.53-2.41-5.47-6.11-10.57-10.76-14.37-1.28-1.04-3-1.83-4.44-.54-1.1.98-1.58 2.71-1.97 4.08-.84 2.99-.91 6.15-.49 9.22.49 3.61 1.78 6.91 3.33 10.18.79 1.68 3.25.22 2.48-1.45Zm20.23-11.52c-1.02-2.78-1.81-5.52-1.89-8.5-.08-2.95.48-5.82 1.62-8.54l-2.75 1.12c5.24 2.57 9.13 7.3 10.51 12.99.57 2.36 4.21 1.36 3.65-1.01-1.57-6.55-6.16-12.33-12.26-15.21-1.18-.56-2.27-.07-2.75 1.12-2.38 5.95-2.38 13.65 1.11 19.2.87 1.39 3.39.51 2.77-1.17Zm-18.79 73.69c1.05 12.12 1.91 24.26 3.61 36.31.47 3.35.98 6.69 1.5 10.03.35 2.23.66 4.46 1.05 6.68.28 1.56.82 3.24 1.97 4.38 3.44 3.42 7.18-1.02 8.55-4.11 1.62-3.68 1.91-7.73 2.21-11.69.83-10.81 1.16-21.64 1.41-32.47.05-2.25-3.39-2.24-3.48 0-.35 8.86-.66 17.73-1.22 26.58-.25 3.99-.36 8.09-1.11 12.02-.31 1.63-.74 3.26-1.53 4.73-.34.63-1.59 3.06-2.33 2.18-.96-1.13-1-3.11-1.23-4.49-.32-1.92-.64-3.84-.95-5.76q-.75-4.575-1.44-9.15c-.68-4.54-1.24-9.1-1.74-13.67-.79-7.18-1.47-14.37-2.21-21.56-.2-1.92-3.22-1.97-3.05 0Zm28.37 7.51c.05 10.07-.1 20.17.46 30.23.14 2.49.33 4.98.62 7.45.25 2.19.47 4.45 1.28 6.51s2.07 3.95 4.17 4.69c2.25.79 4.25-.51 5.14-2.58.94-2.21 1.42-4.7 1.96-7.04.57-2.49 1.04-5 1.44-7.52.8-5.08 1.2-10.19 1.31-15.33.22-10.07-.31-19.99-2.19-29.9-2.09-11.03-5.42-21.78-8.89-32.45-.74-2.28-4.36-1.3-3.6.99 5.7 17.32 10.93 35 11.34 53.37.21 9.47-.29 19.01-2.49 28.25-.55 2.32-1.19 4.63-1.91 6.91-.08.24-.4 1.62-.73 1.66-.57.07-1.32-1.34-1.52-1.73-.82-1.55-1.04-3.43-1.25-5.14-.28-2.32-.49-4.64-.64-6.97-.68-10.46-.1-20.99-1.28-31.41-.23-1.99-3.21-2.11-3.2 0ZM86.32 52.12c1.38 6.85.98 13.77-1.37 20.36-2.24 6.28-6.28 11.64-11.23 16.04-9.83 8.75-22.37 13.71-32.14 22.54-2.71 2.45-5.18 5.2-7.21 8.25-2.01 3.02-3.74 6.47-4.05 10.13-.16 1.95 3.02 2.89 3.81 1.03 1.25-2.92 2.28-5.83 4.02-8.51s3.91-5.06 6.26-7.23c4.79-4.42 10.38-7.75 15.88-11.18s11.56-7.25 16.56-11.88c5.09-4.71 9.15-10.42 11.58-16.94 2.76-7.41 3.12-15.84.62-23.37-.58-1.74-3.1-1.04-2.74.76Z"/><path d="M53.32 121.6c6.53-2.28 14.51-1.4 19.24 4.04 1.93 2.22 3.19 5.2 3.23 8.15.05 3.04-1.28 5.81-3.4 7.94-2.59 2.6-6 4.16-9.55 4.96-1.92.44-2.3 3.33-.56 4.25 4.56 2.41 10.04 1.9 14.41 4.75.89.58 1.68 1.27 2.41 2.03.41.44.74.97 1.16 1.4.03.03.21.42.26.4.06-.02.18-.6.29-.48-.01-.02-.79.19-.92.21-.61.06-1.24.02-1.85 0q-2.34-.015-4.68-.09c-6-.17-11.99-.58-17.95-1.23-2.68-.29-5.36-.59-8-1.14-1.23-.25-2.44-.56-3.63-.95-.64-.21-1.28-.44-1.91-.72-.23-.1-.48-.26-.71-.33-.7-.21.2.04-.02.21.26-.2.52-1.35.69-1.7.29-.6.59-1.2.9-1.79.63-1.17 1.33-2.32 2.13-3.38a26.7 26.7 0 0 1 5.77-5.61c-.9-1.16-1.79-2.32-2.69-3.49-2.05 1.66-4.1 3.32-6.16 4.98-1.55 1.25-3.23 2.68-5.36 2.35-4.46-.69-5.83-5.69-6.01-9.53-.13-2.66-4.01-2.67-4.14 0-.29 5.82 2.47 12.27 8.61 13.78 3.01.74 5.84-.15 8.27-1.97 2.73-2.04 5.3-4.31 7.93-6.47 1.93-1.59-.64-4.97-2.69-3.49-4.93 3.57-9.02 8.35-11.37 14-.65 1.56-.89 3.26.11 4.74s2.97 2.11 4.56 2.68c3.12 1.13 6.42 1.62 9.7 2.03 7.12.89 14.3 1.41 21.48 1.63 1.73.05 3.45.09 5.18.1 1.44.01 2.91.04 4.27-.5s2.45-1.61 2.73-3.13c.35-1.9-.74-3.49-1.89-4.89-2.18-2.65-5.16-4.61-8.4-5.7-3.31-1.11-7-1.07-10.12-2.73-.19 1.42-.37 2.83-.56 4.25 7.83-1.76 15.39-7.32 16.28-15.79.88-8.41-5.42-16.06-13.34-18.1-4.81-1.24-9.98-.62-14.55 1.24-1.85.75-1.13 3.76.85 3.07Z"/><path d="M28.63 134.44c-4.22-1.75-6.83-6-9.07-9.75-1.35-2.26-2.7-4.57-3.56-7.07-.86-2.52-1.29-5.14-1.42-7.79-.11-2.48-.15-5.25 1-7.52.82-1.62 2.49-3.18 4.44-2.88s3.33 2.08 4.05 3.73c1.08 2.47 1.18 5.29 1.54 7.92.88 6.43 2.33 12.78 4.29 18.97.82 2.58 4.88 1.48 4.07-1.12-2.02-6.48-3.33-13.07-4.12-19.8-.37-3.14-.74-6.39-2.37-9.17-1.39-2.36-3.74-4.43-6.5-4.92s-5.74.6-7.7 2.74c-2.21 2.41-3.02 5.58-3.21 8.77-.38 6.43 1.25 12.68 4.56 18.19 3.09 5.14 6.87 11.39 13.15 12.82 2.08.47 2.72-2.33.86-3.1Zm89.82-32.84c.13 4.71-.9 9.55-3.03 13.75-1.05 2.07-2.31 4.05-3.84 5.81-.78.89-1.62 1.73-2.51 2.52s-2.16 1.43-2.9 2.36c-1.16 1.47-.15 4.09 1.99 3.42 1.39-.43 2.56-1.58 3.62-2.54.92-.84 1.79-1.75 2.59-2.7 1.77-2.09 3.3-4.39 4.45-6.88 2.28-4.96 3.28-10.3 2.56-15.74-.24-1.8-2.98-1.94-2.92 0Zm-40.54 41.16c4.57-.01 9.01-.82 13.27-2.48 1.11-.43 2-1.55 1.59-2.81-.35-1.07-1.62-2.07-2.81-1.59a67 67 0 0 1-12.49 3.66c-1.85.34-1.38 3.23.44 3.22"/><path d="M77.4 145.61c2.81 1.07 5.29 3.14 7.76 4.81 1.34.91 2.67 1.81 4.02 2.69.68.44 1.35.88 2.03 1.32.76.49 1.52 1.12 2.43 1.3.78.15 1.55-.04 2.04-.7.43-.58.61-1.53.15-2.16-1.04-1.44-2.95-2.3-4.44-3.24s-2.92-1.81-4.39-2.7c-2.8-1.69-5.58-3.51-8.78-4.34-1.98-.52-2.68 2.31-.83 3.01Zm27.08 13.59c2.74.3 6.21 1.23 8.75-.26 2.82-1.64 2.6-5.04 2.06-7.8-1.13-5.75-3.98-11.1-7.97-15.37-1.76-1.88-4.59.95-2.83 2.83a27.66 27.66 0 0 1 6.59 11.96c.28 1.08 1.35 4.16.18 5.01-.67.49-1.83.28-2.59.26-1.4-.04-2.79-.04-4.19-.07-.93-.02-1.72.8-1.72 1.72 0 1.01.79 1.62 1.72 1.72m-37.07-58.48c-.42-.15.41.16.51.19l.52.15c.35.1.7.2 1.05.29l2.13.5c.84.2 1.7.44 2.57.25 1.05-.23 1.73-1.03 2.09-2 .17-.47.26-.97.34-1.46.1-.62.18-1.26.13-1.89-.11-1.48-.67-2.93-2-3.73-.88-.53-2.28-.25-2.75.72-.13.26-.28.49-.43.73-.13.2.29-.35.13-.17-.04.05-.09.1-.13.15-.1.11-.2.22-.31.33-.05.05-.3.21-.3.27 0-.03.41-.3.17-.14-.06.04-.11.08-.17.11-.25.17-.52.31-.8.43l.49-.21c-.22.09-.44.17-.66.23-.66.18-1.16.52-1.52 1.1-.25.4-.34 1.05-.2 1.5.16.5.46.86.89 1.16.92.64 1.98.24 2.89-.15.42-.18.81-.4 1.17-.68.93-.71 1.75-1.56 2.24-2.64l-2.75.72s.29.18.29.19c-.02.02-.45-.4-.15-.1s-.12-.12-.09-.15c0 0 .19.27.17.28-.01 0-.2-.55-.07-.14.03.08.05.17.07.25s.08.48.03.1 0 .03 0 .11c.03.41 0 .81-.03 1.22 0 .07-.06.5-.01.12s0 .05-.02.12c-.03.21-.07.41-.13.61-.12.39.2-.29.01-.04l.17-.22c-.13.12-.09.09.13-.1.27-.1.32-.13.13-.08l.26-.04h-.22c-.19-.02-.15 0 .14.03-.2-.1-.53-.1-.75-.14l-.94-.18c-1.3-.24-2.61-.49-3.94-.59-.75-.05-1.4.62-1.49 1.31-.1.78.37 1.4 1.09 1.66Zm21.83-4.68c1.82 0 1.82-2.83 0-2.83s-1.82 2.83 0 2.83m7.85-3.39c1.83 0 1.83-2.84 0-2.84s-1.83 2.84 0 2.84m1.83 6.08c1.92 0 1.92-2.98 0-2.98s-1.92 2.98 0 2.98m-74.33 8.72c-.78.29-1.38 1.04-1.96 1.63-.54.55-1.11 1.13-1.46 1.82-.45.91-.66 1.91-.42 2.91.09.37.25.75.46 1.06.17.25.34.46.57.65.16.13.36.24.51.39-.11-.11-.17-.17-.04-.02 0 0-.22-.37-.23-.37.03.01.07.27.07.27.04.16.06.33.08.49.07.44.21.83.38 1.24.44 1.05 1.21 1.87 2.29 2.27.89.33 2.01.28 2.83-.22 1-.61 1.55-1.67 1.56-2.83 0-1.03-.37-2.07-.63-3.06-.28-1.05-.45-2.28-1.02-3.22-.96-1.57-3.37-.89-3.42.93-.03 1.02.39 2.08.65 3.06l.36 1.36c.05.2.11.4.16.61.02.09.04.18.06.28-.03-.28-.04-.31-.02-.09v.27q.075-.435 0-.12c.04-.16.12-.3.24-.41q.375-.255.12-.09c.29-.11.34-.13.14-.07.32-.03.38-.04.17-.03-.21 0-.16 0 .16.03l-.23-.06c.27.12.32.14.14.04.22.18.24.2.08.05-.14-.16-.13-.13.04.07-.05-.08-.1-.15-.14-.23-.09-.19-.09-.16.02.08l-.09-.27a9 9 0 0 1-.13-.55c-.09-.5-.18-.95-.42-1.41-.14-.26-.31-.52-.52-.73s-.54-.35-.74-.58c.17.15.19.16.06.04.17.24.2.28.1.11.11.29.13.34.06.14-.05-.2-.04-.14 0 .17v-.23q.015-.315-.03.15c.05-.02.1-.41.12-.48.02-.08.05-.16.08-.23-.11.25-.12.29-.03.11.09-.15.18-.3.28-.44.05-.08.11-.15.17-.23-.14.18-.14.18-.02.03s.24-.3.35-.45c.3-.38.54-.77.74-1.21.31-.69.36-1.3.05-2.01-.23-.51-1.03-.82-1.55-.63Zm15.75 26.67c1.69 0 1.69-2.62 0-2.62s-1.69 2.62 0 2.62m6.28-4.39c1.77 0 1.77-2.75 0-2.75s-1.77 2.75 0 2.75m17.73 19.17c-.77-.1-1.3-.81-1.7-1.48-.6-1.02-1.15-2.2-.86-3.34s1.82-1.97 2.71-1.18c-.38-.92-.77-1.85-.85-2.84s.17-2.06.91-2.72 2-.76 2.69-.05c.63.65.6 1.67.71 2.57s.64 1.95 1.54 1.94c.96 0 1.75-1.23 2.64-.87.69.28.7 1.25.58 1.99-.04.23-.08.49-.25.65-.17.18-.43.22-.67.26l-4.88.78c-1.58.25-3.49.8-3.82 2.37l1.78-.51"/><path d="M65.11 147.6s-.41-.25-.2-.08c-.1-.08-.2-.19-.3-.28-.06-.06-.25-.29-.12-.11-.1-.14-.19-.29-.28-.43-.37-.62-.59-1.03-.72-1.75.04.23 0-.12 0-.2 0-.13 0-.13-.02 0l.04-.19c.05-.16.06-.18 0-.05-.05.13-.04.11.04-.04l-.11.13c.06-.07.13-.14.2-.21-.22.22-.07-.04.05 0 .12-.06.08-.05-.11.04l.13-.04c-.24.02-.29.02-.15.02s.09-.02-.16-.04c.31.12-.15-.12-.22-.17.61.5 1.49.75 2.21.29.63-.4 1.15-1.3.84-2.06-.21-.53-.43-1.05-.58-1.6-.18-.63-.23-.84-.17-1.46-.03.35.06-.17.09-.28.08-.28-.13.22 0-.03.02-.04.2-.35.08-.17s.1-.1.13-.14c.17-.22-.23.13 0 0 .24-.13-.29.05-.02 0 .21-.04.29-.04.04-.04h.31c-.38-.01-.16-.02-.05.02-.16-.07-.18-.1-.32-.19.25.16.09.05.01-.01.18.15.06.16.01-.01l.09.32c.09.35.02.08 0 0 .02.17.03.35.05.52.1 1.25.34 2.37 1.16 3.36 1 1.19 2.59 1.34 3.93.72.34-.16.69-.35 1-.56.11-.07.33-.11-.12.03.18-.06.22 0-.17 0-.17 0-.39-.06-.52-.15l-.45-.46c.08.15.09.15.01 0l-.05-.12c.04.18.04.18.01 0 0-.31 0 .02-.01.1 0 .1-.02.2-.02.3.01.22.02-.16.03-.18-.13.46.02.03.06.03-.08 0 1.15-.62.59-.56-.35.03-.69.11-1.04.16-1.22.19-2.44.38-3.67.57-2.35.36-4.96 1.28-5.62 3.85-.39 1.53 1.01 3.01 2.57 2.57.6-.17 1.18-.36 1.77-.56 1.01-.34 1.78-1.42 1.42-2.51s-1.4-1.69-2.51-1.42c-.6.14-1.2.29-1.79.46l2.57 2.57c.03-.13.2-.37.03-.16-.26.3.15-.12.1-.12-.02 0-.28.33-.06.1.32-.31-.29.12-.04 0 .2-.09.39-.23.58-.33-.41.23-.13.05 0 0 .17-.06.35-.12.52-.17 1.19-.33 2.44-.46 3.65-.67 1.51-.25 3.36-.23 4.33-1.6.8-1.13.8-3.22.06-4.37-.97-1.52-2.8-1.69-4.28-.86-.21.12-.41.26-.62.38-.05.03-.22.14-.25.14.08.02.36-.11.09-.06.29-.06.47-.03.73.1-.09-.04-.31-.21.06.06-.25-.17-.01-.05.04.05l-.15-.27c.08.21.1.24.06.1-.02-.11-.14-.79-.1-.35-.04-.4-.09-.81-.15-1.21-.11-.66-.32-1.32-.71-1.86a3.76 3.76 0 0 0-4.14-1.39c-1.64.49-2.77 1.96-3.01 3.62-.27 1.85.34 3.46 1.06 5.14.96-.74 1.91-1.48 2.87-2.21-1.15-.9-2.53-1.1-3.84-.37-1.21.67-1.91 1.87-2.01 3.23-.09 1.34.49 2.64 1.18 3.75.73 1.17 1.73 2.3 3.24 2.21.67-.04 1.27-.44 1.45-1.11.16-.6-.09-1.43-.69-1.7Zm14.72-28.41c1.66 0 1.66-2.58 0-2.58s-1.66 2.58 0 2.58m42-40.9-1.99 1.83c-.53.49-1.07.99-1.4 1.64s-.38 1.47.04 2.06 1.41.74 1.87.18c.05.76-.59 1.36-1.05 1.95-.47.6-.75 1.58-.14 2.03.86.65 2.13-.69 3.11-.23.84.4.72 1.77 1.5 2.27.76.49 1.81-.29 1.94-1.19s-.34-1.75-.79-2.53c-.89-1.54-1.79-3.09-2.68-4.63"/><path d="M121.04 76.94c-1.04.62-1.99 1.53-2.87 2.36-.9.85-1.57 1.85-1.74 3.1-.18 1.33.39 2.68 1.57 3.37s2.7.49 3.64-.47l-3.12-1.29s.06-.29.02-.07c-.05.26.13-.2-.02.03-.05.07-.09.15-.14.22.02-.03.14-.18.01-.02-.32.41-.7.79-.94 1.25-.52.99-.71 2.22-.13 3.23.63 1.1 1.83 1.48 3.03 1.3.33-.05.63-.15.94-.26.14-.05.27-.1.41-.14.07-.02.14-.03.2-.05.22-.08-.37.03-.03.03-.25 0-.44-.07-.64-.22l-.14-.18.07.11s.17.28.02.02c-.13-.22.08.22.11.29.1.26.2.52.32.76.48.99 1.48 1.73 2.61 1.74 1.16 0 2.15-.64 2.8-1.57s.7-2.27.34-3.35c-.38-1.13-1.06-2.15-1.65-3.18s-1.24-2.15-1.86-3.22c-.49-.85-1.72-1.22-2.58-.68s-1.2 1.66-.68 2.58 1.09 1.88 1.63 2.82c.51.88 1.19 1.79 1.54 2.74-.11-.3.17.63.06.24 0 .25 0 .27.02.06l.08-.16c-.11.18-.1.18.04 0-.15.15-.14.15.04 0-.19.1-.17.1.05 0l.22-.02c.18 0 .73.16.72.41 0-.08-.15-.27-.19-.35.23.46-.03-.1-.07-.19-.1-.24-.2-.52-.33-.75-.53-.97-1.5-1.61-2.62-1.61-.44 0-.89.09-1.31.23-.29.1-.68.17-.95.31-.14.03-.09.02.17-.02.17 0 .32.05.46.14.35.22.39.54.44.88-.03.15-.03.13.01-.06.07-.2.06-.2-.01 0 .05-.09.1-.19.16-.27-.11.13-.12.15-.03.04.74-.95 1.41-1.77 1.42-3.05 0-1.56-2.02-2.44-3.12-1.29.14-.14.3-.12.45-.18.15-.01.14-.01-.04 0l.2.02.16.08c-.15-.09-.17-.1-.05-.02.06.07.15.21.21.27-.08-.08-.02-.27-.02-.05-.01-.52-.04.13.02-.15.04-.12.03-.12-.02 0l.09-.17c.03-.05.23-.36.19-.31.78-1.04 2.11-1.94 2.93-3.09.95-1.32-.87-2.91-2.15-2.15Zm-51.32 70.55c.46-1.76 4.99-3.14 6.78-2.81s3.77 3.7 5.18 4.85c2.29 1.85 7.88 3.54 10.17 5.39 1.06.85 1.72 2.65 2.31 3.87.39.82.42 2.99.73 3.83.93 2.54.78 2.36 3.49 2.35s5.31-1.86 6.21-4.41l7.24-.72c.61-.06 1.27-.14 1.75-.52.43-.35.65-.9.83-1.43 1.52-4.44.67-15.84-2.51-13.21 1.9-.7 6.05-1.51 6.05-.58 0 2.43.41 15.13 2.07 16.91s4.7 2.52 6.52.9c1.2-1.07 1.53-2.78 1.79-4.36.46-2.78.91-5.55 1.37-8.33.09-.58.21-1.19.6-1.62.84-.91 2.35-.48 3.48.05 5.14 2.4 10.06 5.28 14.67 8.59 1.58 1.13 3.24 2.52 3.49 4.44.22 1.67-.74 3.32-2.08 4.34s-3 1.5-4.64 1.86c-4.09.9-8.3 1.15-12.48 1.38-32.1 1.78-64.33 2.7-96.39.18-5.37-.42-10.77-.95-15.93-2.48-1.24-.37-2.7-1.11-2.67-2.41.02-.65.43-1.21.84-1.72 4.83-5.86 11.93-9.82 19.46-10.84-1.76 2.61-3.48 6.3-1.33 8.6.56.6 1.32.99 2.08 1.31 3.1 1.3 6.49 1.71 9.83 2.02 10.27.93 20.6.93 30.91.94 2.22 0 4.81-.19 6.02-2.05 1.63-2.51-.61-5.72-2.9-7.65-2.13-1.79-11.5-3.85-13.93-5.21"/><path d="M71.16 147.88c.3-.78 2.62-1.24 3.34-1.4 1.51-.33 1.99-.12 3.06 1.03 1.14 1.24 2.07 2.66 3.44 3.67 1.33.98 2.89 1.65 4.39 2.33 1.62.73 3.32 1.41 4.82 2.39 1.21.79 1.98 2.42 2.38 3.78.7 2.39.34 6.36 3.53 7 4.35.88 8.64-1.58 10.22-5.65-.58.44-1.16.89-1.74 1.33 2.25-.22 4.51-.44 6.76-.67 1.98-.2 3.65-.61 4.52-2.58.99-2.25 1.13-4.93 1.1-7.36s-.21-4.93-1.22-7.09c-.86-1.84-2.94-2.97-4.75-1.58-.73.56-1.13 1.36-.74 2.27.33.78 1.29 1.36 2.15 1.05 1.18-.41 2.44-.75 3.68-.88.25-.03.66.04.89-.05.11-.04.19-.03.15 0-.24.28-.77-1.48-.98-1.31-.09.07.01.83.01.97.05 2.21.15 4.42.32 6.62.18 2.46.39 4.96.92 7.37.52 2.39 1.71 4.01 4.07 4.95 3.37 1.35 6.77-.13 8.04-3.53.67-1.81.82-3.84 1.13-5.73.18-1.06.35-2.12.53-3.19.13-.77.11-2 .52-2.7-.05.09-.41.08-.1.1.17.01.35.07.52.12.31.09.58.21.87.34.97.45 1.92.96 2.87 1.46 1.83.97 3.63 2 5.4 3.07s3.5 2.21 5.2 3.41c1.12.79 2.76 1.74 3.24 3.11.55 1.56-1.11 2.83-2.35 3.38-1.7.76-3.7 1.03-5.53 1.3-4.37.66-8.84.76-13.26.99-8.94.47-17.89.85-26.84 1.11-17.89.53-35.8.53-53.67-.43-8.57-.46-17.5-.63-25.83-2.86-.43-.12-.88-.22-1.3-.37-.17-.06-.71-.41-.83-.39-.1.02-.09.47-.01.5 0 0 .66-.86.7-.91 1.16-1.33 2.44-2.57 3.82-3.67 2.64-2.12 5.72-3.77 8.94-4.81 1.68-.55 3.41-.93 5.16-1.19l-2.59-3.37c-1.64 2.48-3.23 5.69-2.43 8.74.92 3.51 4.64 4.81 7.82 5.57 3.61.87 7.4 1.1 11.1 1.35 3.76.26 7.52.4 11.28.49s7.53.11 11.3.12c3.02 0 6.47.42 9.34-.73 3.05-1.22 4.59-4.37 3.56-7.52-.79-2.44-2.86-4.92-5.17-6.09-2.23-1.13-4.73-1.8-7.11-2.51-1.24-.37-2.48-.73-3.71-1.13-.96-.31-1.63-.52-2.3-.88-2.24-1.2-4.24 2.21-2 3.41 3.13 1.68 6.84 2.39 10.17 3.57.77.27 1.5.54 2.23.89.28.14.56.29.83.45.13.08.25.16.37.24-.52-.38.29.3.36.38.96.95 3.26 3.5 1.62 4.77-.64.49-1.64.57-2.41.62-1.43.08-2.87.03-4.31.03-3.19 0-6.39-.02-9.58-.07-6.44-.1-12.89-.33-19.3-.97-1.63-.16-3.24-.38-4.84-.75-1.37-.32-2.99-.67-4.15-1.49-1.99-1.39.38-4.81 1.3-6.18.5-.75.36-1.87-.18-2.55-.63-.78-1.45-.96-2.41-.82-7.74 1.09-15.19 5.12-20.23 11.11-1.41 1.68-2.46 3.73-1.14 5.82 1.11 1.75 3.23 2.36 5.11 2.85 4.57 1.19 9.3 1.69 13.99 2.07 19.39 1.59 38.87 1.87 58.31 1.47 9.78-.2 19.56-.59 29.33-1.08 4.76-.24 9.53-.44 14.28-.81 2.45-.19 4.89-.46 7.31-.91 2.08-.39 4.26-.87 6.07-2.02 3.86-2.45 4.89-7.2 1.78-10.69-1.32-1.49-3.14-2.6-4.77-3.7q-2.775-1.86-5.67-3.51c-2.895-1.65-4.06-2.18-6.15-3.14-1.74-.8-3.69-1.71-5.59-.82-2.09.98-2.13 3.25-2.46 5.25-.39 2.37-.72 4.75-1.17 7.11-.27 1.41-.67 3.16-2.4 3.17-.68 0-1.35-.23-1.92-.59-.3-.19-.57-.4-.8-.66.42.48-.04-.2.01-.02-.16-.49-.5-1.81-.64-2.64-.21-1.22-.34-2.45-.45-3.69-.23-2.55-.37-5.11-.44-7.67-.02-.86.13-1.96-.35-2.71-.77-1.24-2.4-1.21-3.67-1.06-1.48.17-2.96.49-4.37.98.59 1.01 1.18 2.03 1.77 3.04-.27.21.17.03-.08.07-.22.04-.38.08-.61.03.3.07-.29-.19-.3-.2.03.01.18.16.18.19 0-.16-.07-.13.05.14s0-.05.07.14c.13.32.23.66.31.99.43 1.67.52 3.42.5 5.14-.02 1.58-.1 3.24-.6 4.75-.16.48-.17.63-.63.77-.74.22-1.67.17-2.43.25-1.69.17-3.38.34-5.07.5-.88.09-1.43.52-1.74 1.33-.62 1.59-2.21 2.82-3.9 3.05-.69.09-1.39-.04-2.07.03-.01 0-.2 0 .14.13.32.11.1.14.03-.06-.59-1.49-.59-2.98-1.01-4.5-.45-1.61-1.43-3.52-2.58-4.74s-2.84-1.95-4.33-2.64c-1.63-.75-3.31-1.43-4.89-2.29-1.41-.77-2.29-1.78-3.32-2.99s-2.31-2.66-3.96-3.04c-2.81-.65-7.79 1.07-8.67 4.06-.55 1.88 2.19 2.54 2.88.79Zm.73-114.99c-3.02-1.02-6-2.14-8.99-3.23-1.44-.53-2.88-1.04-4.33-1.56-1.55-.56-3.27-1.46-4.92-1.51-.92-.03-1.79.67-2.03 1.54-.26.95.2 1.84.97 2.37.72.51 1.66.7 2.49.95.79.24 1.57.48 2.36.73 1.46.45 2.92.9 4.39 1.34 3.04.92 6.09 1.81 9.11 2.8 2.19.72 3.11-2.7.95-3.44Zm-1.06 14.5c-4.93.54-9.96.96-14.92.83-.74-.02-1.61.43-1.95 1.12-.38.78-.45 1.5 0 2.28.37.63 1.18 1.2 1.95 1.12 5.15-.54 10.28-1.03 15.39-1.89 1.93-.33 1.51-3.67-.47-3.45Zm.38 17.78c-2.31.46-4.63.97-6.9 1.61-1.1.31-2.18.64-3.26 1.01-1.27.43-2.81.8-3.78 1.76-1.15 1.15-.33 3.38 1.37 3.31 1.32-.06 2.52-.81 3.72-1.33.92-.39 2.04-.82 3.05-1.19a48.6 48.6 0 0 1 6.69-1.91c.89-.18 1.41-1.24 1.18-2.08-.26-.93-1.18-1.36-2.08-1.18Z"/></svg>