<?xml version="1.0" encoding="UTF-8"?><svg xmlns="http://www.w3.org/2000/svg" viewBox="0 0 180 180"><path d="M81.07 46.48c-1.55-4.81-5.97-10.23-12.46-10.53h-3.25C58.13 37.4 51.54 46.07 54.1 53c1.72 4.66 6.71 9.4 11.73 10.04 2.53.32 5.13-.36 7.37-1.58 5.12-2.8 9.8-8.97 7.87-14.98m-6.09 3.8c-.8 1.7-2.93 2.38-4.63 1.86-2.39-.73-4.29-2.89-4.69-5.36-.25-1.5.85-4.66 2.72-4.77l-.64.52c1.67-.8 3.79-.58 5.21.77 1.59 1.51 3.09 4.73 2.03 6.98"/><path d="M83 45.95c-1.98-5.95-6.84-11.1-13.27-11.9-1.81-.23-3.94-.33-5.7.16-3 .82-5.75 2.64-7.87 4.91-4.44 4.76-6.13 11.4-2.68 17.21 3.71 6.23 11.07 10.61 18.3 7.95 7.1-2.61 13.56-10.44 11.21-18.33-.74-2.46-4.6-1.41-3.86 1.06 1.57 5.26-2.56 10.33-6.95 12.73-2.58 1.4-5.56 1.85-8.32.73-2.46-.99-4.66-2.9-6.19-5.04-1.39-1.94-2.35-4.11-2.1-6.54.23-2.25 1.33-4.43 2.73-6.17 1.5-1.85 3.46-3.44 5.69-4.31.5-.19 1.05-.38 1.57-.48-.42.08.15 0 .29 0 .85 0 1.7-.02 2.55 0 5.13.1 9.2 4.46 10.73 9.07.81 2.43 4.67 1.39 3.86-1.06Z"/><path d="M73.26 49.27c-.06.12-.13.24-.2.36-.17.31.24-.23 0 .02l-.28.28c-.07.07-.2.1 0 0 .27-.12-.07.04-.12.07-.03.02-.34.2-.35.19-.01-.02.39-.13.17-.07-.06.02-.12.05-.19.07-.13.04-.25.08-.38.1-.06.01-.13.02-.2.04-.24.06.38 0 .14-.02-.13 0-.27.01-.4.01-.08 0-.51-.05-.19 0s-.11-.03-.18-.05c-.16-.04-.31-.09-.47-.14-.38-.12.06 0 .07.04 0-.02-.18-.08-.2-.09-.13-.06-.26-.13-.39-.2s-.25-.15-.38-.23l-.18-.12c-.28-.18.05.05.05.05-.04.03-.6-.54-.65-.59l-.3-.33c-.03-.03-.2-.22-.03-.03s-.03-.05-.06-.09c-.18-.26-.35-.53-.5-.81-.02-.05-.15-.39-.19-.4.02 0 .13.35.06.14-.03-.09-.07-.18-.1-.28-.09-.28-.14-.57-.21-.85-.05-.23.02.55.03.15v-.34c0-.09.05-.53 0-.15s.01-.03.03-.12c.05-.25.12-.49.2-.74.03-.08.2-.51.07-.21s.06-.12.1-.2q.09-.18.21-.36c.03-.05.07-.1.1-.15.14-.23-.04.09-.11.13.11-.07.2-.23.3-.32.04-.04.08-.07.12-.11.13-.14-.33.19-.15.13.04-.01.1-.05.13-.08.23-.15-.15.1-.2.08.02 0 .12-.04.14-.04.14-.05.44-.04-.18.01l-1.41-3.41-.64.52c-.77.63-.71 1.91-.16 2.63.64.83 1.66.94 2.58.52.42-.2-.27.07 0 0 .12-.03.23-.08.35-.11.04-.01.4-.06.43-.09-.04.06-.41.03-.1.02.27-.01.53 0 .8 0s-.47-.11-.03 0c.12.03.24.05.36.09.08.02.3.05.35.11-.11-.14-.29-.14 0 0 .11.06.22.12.32.18.01 0 .4.28.17.1s.1.1.15.14c.09.09.18.18.26.27.06.06.12.13.17.19.04.05.09.1.13.15.09.11.06.07-.1-.13.15.1.3.43.4.59.13.21.25.42.36.64.06.11.11.23.16.34.11.22-.13-.35 0 0 .09.23.17.47.24.71.04.14.06.63.16.72-.03-.27-.04-.32-.02-.17 0 .07.01.14.02.22 0 .12.01.24.01.36s0 .23-.01.35c-.02.38.07-.29 0-.05-.03.11-.05.22-.08.34-.04.12-.21.52 0 .04-.43.95-.31 2.19.72 2.74.87.46 2.28.3 2.74-.72 1.32-2.96.27-6.19-1.65-8.63-.89-1.13-2.11-2-3.51-2.37-1.64-.44-3.29-.19-4.81.51.81 1.05 1.62 2.09 2.42 3.14l.64-.52c.61-.5.7-1.52.41-2.18s-1.04-1.3-1.83-1.23c-3.45.3-5.23 4.43-4.61 7.52.7 3.49 4.07 6.78 7.74 6.79 2.09 0 4.24-1.11 5.19-3.02.47-.94.28-2.21-.72-2.74-.9-.48-2.24-.28-2.74.72ZM42.31 77.3c-1.55-4.81-5.97-10.23-12.46-10.53H26.6c-7.23 1.45-13.82 10.12-11.26 17.05 1.72 4.66 6.71 9.4 11.73 10.04 2.53.32 5.13-.36 7.37-1.58 5.12-2.8 9.8-8.97 7.87-14.98m-6.09 3.8c-.8 1.7-2.93 2.38-4.63 1.86-2.39-.73-4.29-2.89-4.69-5.36-.25-1.5.85-4.66 2.72-4.77l-.64.52c1.67-.8 3.79-.58 5.21.77 1.59 1.51 3.09 4.73 2.03 6.98"/><path d="M44.23 76.77c-1.98-5.95-6.84-11.1-13.27-11.9-1.81-.23-3.94-.33-5.7.16-3 .82-5.75 2.64-7.87 4.91-4.44 4.76-6.13 11.4-2.68 17.21 3.71 6.23 11.07 10.61 18.3 7.95s13.56-10.44 11.21-18.33c-.74-2.46-4.6-1.41-3.86 1.06 1.57 5.26-2.56 10.33-6.95 12.73-2.58 1.4-5.56 1.85-8.32.73-2.46-.99-4.66-2.9-6.19-5.04-1.39-1.94-2.35-4.11-2.1-6.54.23-2.25 1.33-4.43 2.73-6.17 1.5-1.85 3.46-3.44 5.69-4.31.5-.19 1.05-.38 1.57-.48-.42.08.15 0 .29 0 .85 0 1.7-.02 2.55 0 5.13.1 9.2 4.46 10.73 9.07.81 2.43 4.67 1.39 3.86-1.06Z"/><path d="M34.49 80.09c-.06.12-.13.24-.2.36-.17.31.24-.23 0 .02l-.28.28c-.07.07-.2.1 0 0 .27-.12-.07.04-.12.07-.03.02-.34.2-.35.19-.01-.02.39-.13.17-.07-.06.02-.12.05-.19.07-.13.04-.25.08-.38.1-.06.01-.13.02-.2.04-.24.06.38 0 .14-.02-.13 0-.27.01-.4.01-.08 0-.51-.05-.19 0s-.11-.03-.18-.05c-.16-.04-.31-.09-.47-.14-.38-.12.06 0 .07.04 0-.02-.18-.08-.2-.09-.13-.06-.26-.13-.39-.2s-.25-.15-.38-.23l-.18-.12c-.28-.18.05.05.05.05-.04.03-.6-.54-.65-.59l-.3-.33c-.03-.03-.2-.22-.03-.03s-.03-.05-.06-.09c-.18-.26-.35-.53-.5-.81-.02-.05-.15-.39-.19-.4.02 0 .13.35.06.14-.03-.09-.07-.18-.1-.28-.09-.28-.14-.57-.21-.85-.05-.23.02.55.03.15v-.34c0-.09.05-.53 0-.15s.01-.03.03-.12c.05-.25.12-.49.2-.74.03-.08.2-.51.07-.21s.06-.12.1-.2q.09-.18.21-.36c.03-.05.07-.1.1-.15.14-.23-.04.09-.11.13.11-.07.2-.23.3-.32.04-.04.08-.07.12-.11.13-.14-.33.19-.15.13.04-.01.1-.05.13-.08.23-.15-.15.1-.2.08.02 0 .12-.04.14-.04.14-.05.44-.04-.18.01l-1.41-3.41-.64.52c-.77.63-.71 1.91-.16 2.63.64.83 1.66.94 2.58.52.42-.2-.27.07 0 0 .12-.03.23-.08.35-.11.04-.01.4-.06.43-.09-.04.06-.41.03-.1.02.27-.01.53 0 .8 0s-.47-.11-.03 0c.12.03.24.05.36.09.08.02.3.05.35.11-.11-.14-.29-.14 0 0 .11.06.22.12.32.18.01 0 .4.28.17.1s.1.1.15.14c.09.09.18.18.26.27.06.06.12.13.17.19.04.05.09.1.13.15.09.11.06.07-.1-.13.15.1.3.43.4.59.13.21.25.42.36.64.06.11.11.23.16.34.11.22-.13-.35 0 0 .09.23.17.47.24.71.04.14.06.63.16.72-.03-.27-.04-.32-.02-.17 0 .07.01.14.02.22 0 .12.01.24.01.36s0 .23-.01.35c-.02.38.07-.29 0-.05-.03.11-.05.22-.08.34-.04.12-.21.52 0 .04-.43.95-.31 2.19.72 2.74.87.46 2.28.3 2.74-.72 1.32-2.96.27-6.19-1.65-8.63-.89-1.13-2.11-2-3.51-2.37-1.64-.44-3.29-.19-4.81.51l2.42 3.14.64-.52c.61-.5.7-1.52.41-2.18-.29-.68-1.04-1.3-1.83-1.23-3.45.3-5.23 4.43-4.61 7.52.7 3.49 4.07 6.78 7.74 6.79 2.09 0 4.24-1.11 5.19-3.02.47-.94.28-2.21-.72-2.74-.9-.48-2.24-.28-2.74.72Z"/><path d="M36.88 74.37c1.26-.85 2.59-1.6 3.85-2.45s2.42-1.7 3.62-2.56c2.46-1.74 4.87-3.53 7.3-5.3.86-.63 1.29-1.72.71-2.7-.49-.84-1.84-1.35-2.7-.71-2.46 1.82-4.94 3.62-7.37 5.47-1.27.96-2.56 1.9-3.8 2.9-1.18.95-2.3 1.98-3.48 2.93-1.36 1.09.42 3.39 1.87 2.42m117.87 40.96c-1.55-4.81-5.97-10.23-12.46-10.53h-3.25c-7.23 1.45-13.82 10.12-11.26 17.05 1.72 4.66 6.71 9.4 11.73 10.04 2.53.32 5.13-.36 7.37-1.58 5.12-2.8 9.8-8.97 7.87-14.98m-6.09 3.8c-.8 1.7-2.93 2.38-4.63 1.86-2.39-.73-4.29-2.89-4.69-5.36-.25-1.5.85-4.66 2.72-4.77l-.64.52c1.67-.8 3.79-.58 5.21.77 1.59 1.51 3.09 4.73 2.03 6.98"/><path d="M156.68 114.8c-1.98-5.95-6.84-11.1-13.27-11.9-1.81-.23-3.94-.33-5.7.16-3 .82-5.75 2.64-7.87 4.91-4.44 4.76-6.13 11.4-2.68 17.21 3.71 6.23 11.07 10.61 18.3 7.95 7.1-2.61 13.56-10.44 11.21-18.33-.74-2.46-4.6-1.41-3.86 1.06 1.57 5.26-2.56 10.33-6.95 12.73-2.58 1.4-5.56 1.85-8.32.73-2.46-.99-4.66-2.9-6.19-5.04-1.39-1.94-2.35-4.11-2.1-6.54.23-2.25 1.33-4.43 2.73-6.17 1.5-1.85 3.46-3.44 5.69-4.31.5-.19 1.05-.38 1.57-.48-.42.08.15 0 .29 0 .85 0 1.7-.02 2.55 0 5.13.1 9.2 4.46 10.73 9.07.81 2.43 4.67 1.39 3.86-1.06Z"/><path d="M146.93 118.12c-.06.12-.13.24-.2.36-.17.31.24-.23 0 .02l-.28.28c-.07.07-.2.1 0 0 .27-.12-.07.04-.12.07-.03.02-.34.2-.35.19-.01-.02.39-.13.17-.07-.06.02-.12.05-.19.07-.13.04-.25.08-.38.1-.06.01-.13.02-.2.04-.24.06.38 0 .14-.02-.13 0-.27.01-.4.01-.08 0-.51-.05-.19 0s-.11-.03-.18-.05c-.16-.04-.31-.09-.47-.14-.38-.12.06 0 .07.04 0-.02-.18-.08-.2-.09-.13-.06-.26-.13-.39-.2s-.25-.15-.38-.23l-.18-.12c-.28-.18.05.05.05.05-.04.03-.6-.54-.65-.59l-.3-.33c-.03-.03-.2-.22-.03-.03s-.03-.05-.06-.09c-.18-.26-.35-.53-.5-.81-.02-.05-.15-.39-.19-.4.02 0 .13.35.06.14-.03-.09-.07-.18-.1-.28-.09-.28-.14-.57-.21-.85-.05-.23.02.55.03.15V115c0-.09.05-.53 0-.15s.01-.03.03-.12c.05-.25.12-.49.2-.74.03-.08.2-.51.07-.21s.06-.12.1-.2q.09-.18.21-.36c.03-.05.07-.1.1-.15.14-.23-.04.09-.11.13.11-.07.2-.23.3-.32.04-.04.08-.07.12-.11.13-.14-.33.19-.15.13.04-.01.1-.05.13-.08.23-.15-.15.1-.2.08.02 0 .12-.04.14-.04.14-.05.44-.04-.18.01-.47-1.14-.94-2.28-1.41-3.41l-.64.52c-.77.63-.71 1.91-.16 2.63.64.83 1.66.94 2.58.52.42-.2-.27.07 0 0 .12-.03.23-.08.35-.11.04-.01.4-.06.43-.09-.04.06-.41.03-.1.02.27-.01.53 0 .8 0s-.47-.11-.03 0c.12.03.24.05.36.09.08.02.3.05.35.11-.11-.14-.29-.14 0 0 .11.06.22.12.32.18.01 0 .4.28.17.1s.1.1.15.14c.09.09.18.18.26.27.06.06.12.13.17.19.04.05.09.1.13.15.09.11.06.07-.1-.13.15.1.3.43.4.59.13.21.25.42.36.64.06.11.11.23.16.34.11.22-.13-.35 0 0 .09.23.17.47.24.71.04.14.06.63.16.72-.03-.27-.04-.32-.02-.17 0 .07.01.14.02.22 0 .12.01.24.01.36s0 .23-.01.35c-.02.38.07-.29 0-.05-.03.11-.05.22-.08.34-.04.12-.21.52 0 .04-.43.95-.31 2.19.72 2.74.87.46 2.28.3 2.74-.72 1.32-2.96.27-6.19-1.65-8.63-.89-1.13-2.11-2-3.51-2.37-1.64-.44-3.29-.19-4.81.51.81 1.05 1.62 2.09 2.42 3.14l.64-.52c.61-.5.7-1.52.41-2.18s-1.04-1.3-1.83-1.23c-3.45.3-5.23 4.43-4.61 7.52.7 3.49 4.07 6.78 7.74 6.79 2.09 0 4.24-1.11 5.19-3.02.47-.94.28-2.21-.72-2.74-.9-.48-2.24-.28-2.74.72Zm-30.95 28.03c-1.55-4.81-5.97-10.23-12.46-10.53h-3.25c-7.23 1.45-13.82 10.12-11.26 17.05 1.72 4.66 6.71 9.4 11.73 10.04 2.53.32 5.13-.36 7.37-1.58 5.12-2.8 9.8-8.97 7.87-14.98m-6.08 3.8c-.8 1.7-2.93 2.38-4.63 1.86-2.39-.73-4.29-2.89-4.69-5.36-.25-1.5.85-4.66 2.72-4.77l-.64.52c1.67-.8 3.79-.58 5.21.77 1.59 1.51 3.09 4.73 2.03 6.98"/><path d="M117.91 145.62c-1.98-5.95-6.84-11.1-13.27-11.9-1.81-.23-3.94-.33-5.7.16-3 .82-5.75 2.64-7.87 4.91-4.44 4.76-6.13 11.4-2.68 17.21 3.71 6.23 11.07 10.61 18.3 7.95 7.1-2.61 13.56-10.44 11.21-18.33-.74-2.46-4.6-1.41-3.86 1.06 1.57 5.26-2.56 10.33-6.95 12.73-2.58 1.4-5.56 1.85-8.32.73-2.46-.99-4.66-2.9-6.19-5.04-1.39-1.94-2.35-4.11-2.1-6.54.23-2.25 1.33-4.43 2.73-6.17 1.5-1.85 3.46-3.44 5.69-4.31.5-.19 1.05-.38 1.57-.48-.42.08.15 0 .29 0 .85 0 1.7-.02 2.55 0 5.13.1 9.2 4.46 10.73 9.07.81 2.43 4.67 1.39 3.86-1.06Z"/><path d="M108.17 148.94c-.06.12-.13.24-.2.36-.17.31.24-.23 0 .02l-.28.28c-.07.07-.2.1 0 0 .27-.12-.07.04-.12.07-.03.02-.34.2-.35.19-.01-.02.39-.13.17-.07-.06.02-.12.05-.19.07-.13.04-.25.08-.38.1-.06.01-.13.02-.2.04-.24.06.38 0 .14-.02-.13 0-.27.01-.4.01-.08 0-.51-.05-.19 0s-.11-.03-.18-.05c-.16-.04-.31-.09-.47-.14-.38-.12.06 0 .07.04 0-.02-.18-.08-.2-.09-.13-.06-.26-.13-.39-.2s-.25-.15-.38-.23l-.18-.12c-.28-.18.05.05.05.05-.04.03-.6-.54-.65-.59l-.3-.33c-.03-.03-.2-.22-.03-.03s-.03-.05-.06-.09c-.18-.26-.35-.53-.5-.81-.02-.05-.15-.39-.19-.4.02 0 .13.35.06.14-.03-.09-.07-.18-.1-.28-.09-.28-.14-.57-.21-.85-.05-.23.02.55.03.15v-.34c0-.09.05-.53 0-.15s.01-.03.03-.12c.05-.25.12-.49.2-.74.03-.08.2-.51.07-.21s.06-.12.1-.2q.09-.18.21-.36c.03-.05.07-.1.1-.15.14-.23-.04.09-.11.13.11-.07.2-.23.3-.32.04-.04.08-.07.12-.11.13-.14-.33.19-.15.13.04-.01.1-.05.13-.08.23-.15-.15.1-.2.08.02 0 .12-.04.14-.04.14-.05.44-.04-.18.01l-1.41-3.41-.64.52c-.77.63-.71 1.91-.16 2.63.64.83 1.66.94 2.58.52.42-.2-.27.07 0 0 .12-.03.23-.08.35-.11.04-.01.4-.06.43-.09-.04.06-.41.03-.1.02.27-.01.53 0 .8 0s-.47-.11-.03 0c.12.03.24.05.36.09.08.02.3.05.35.11-.11-.14-.29-.14 0 0 .11.06.22.12.32.18.01 0 .4.28.17.1s.1.1.15.14c.09.09.18.18.26.27.06.06.12.13.17.19.04.05.09.1.13.15.09.11.06.07-.1-.13.15.1.3.43.4.59.13.21.25.42.36.64.06.11.11.23.16.34.11.22-.13-.35 0 0 .09.23.17.47.24.71.04.14.06.63.16.72-.03-.27-.04-.32-.02-.17 0 .07.01.14.02.22 0 .12.01.24.01.36s0 .23-.01.35c-.02.38.07-.29 0-.05-.03.11-.05.22-.08.34-.04.12-.21.52 0 .04-.43.95-.31 2.19.72 2.74.87.46 2.28.3 2.74-.72 1.32-2.96.27-6.19-1.65-8.63-.89-1.13-2.11-2-3.51-2.37-1.64-.44-3.29-.19-4.81.51l2.42 3.14.64-.52c.61-.5.7-1.52.41-2.18s-1.04-1.3-1.83-1.23c-3.45.3-5.23 4.43-4.61 7.52.7 3.49 4.07 6.78 7.74 6.79 2.09 0 4.24-1.11 5.19-3.02.47-.94.28-2.21-.72-2.74-.9-.48-2.24-.28-2.74.72Z"/><path d="M110.56 143.22c1.26-.85 2.59-1.6 3.85-2.45 1.23-.82 2.42-1.7 3.62-2.56 2.46-1.74 4.87-3.53 7.3-5.3.86-.63 1.29-1.72.71-2.7-.49-.84-1.84-1.35-2.7-.71-2.46 1.82-4.94 3.62-7.37 5.47-1.27.96-2.56 1.9-3.8 2.9s-2.3 1.98-3.48 2.93c-1.36 1.09.42 3.39 1.87 2.42m-77-48.6c15.37 15.06 31.06 29.77 47.14 44.08a1825 1825 0 0 0 9.88 8.73c1.22 1.07 2.4 2.28 3.82 3.09 1.58.9 3.97-1.05 2.7-2.7-1.61-2.11-3.89-3.76-5.88-5.51-2.01-1.78-4.03-3.56-6.03-5.34-4.02-3.57-8.04-7.14-12.04-10.73-8.01-7.18-15.98-14.42-23.94-21.66-4.47-4.06-8.98-8.09-13.43-12.17-1.48-1.35-3.65.79-2.21 2.21Zm-12.4-21.68c-3.86-3.06-5.66-7.89-7.06-12.46-1.55-5.07-2.34-10.42-1.98-15.72.47-7.09 3.33-13.77 8.54-18.53 8.38-7.66 21.39-9.09 31.3-3.55 3.04 1.7 5.67 3.95 7.89 6.64 2.62 3.16 4.2 6.82 5.84 10.53.93 2.12 4.25.6 3.67-1.55-1.98-7.26-7.2-13.98-13.42-18.11-5.48-3.63-12.19-5.4-18.74-5.02s-12.86 2.73-17.99 6.84C13.3 26.74 9.58 33.7 8.44 41.14c-.98 6.41-.3 12.89 1.61 19.07 1.75 5.67 4.29 11.62 9.16 15.27 1.46 1.09 3.4-1.4 1.96-2.54ZM76.7 53.08c3.96 3.86 7.69 7.95 11.69 11.78 4 3.82 8.02 7.63 12.1 11.36 8.17 7.47 16.49 14.76 24.83 22.03 2.3 2 4.55 4.04 6.87 6.01 1.22 1.04 2.44 2.08 3.67 3.11 1.23 1.02 2.43 2.23 3.89 2.92 1.59.75 3.99-.94 2.7-2.7-1.62-2.22-4.15-3.88-6.26-5.63s-4.21-3.5-6.35-5.22c-4.3-3.46-8.42-7.17-12.58-10.8-8.33-7.29-16.55-14.7-24.71-22.18-4.61-4.23-9.43-8.26-13.95-12.58-1.26-1.2-3.16.69-1.91 1.91Zm79.04 69.7c2.82.51 5.87 1.2 8.2 2.96 2.37 1.8 3.72 5.15 3.84 8.05.28 6.43-4.35 11.54-9.06 15.31-9.21 7.38-21.43 9.67-32.96 9.1-3.34-.17-6.66-.57-9.95-1.18s-6.54-1.77-9.86-2.33c-1.05-.18-2.1.19-2.53 1.24-.37.91-.1 2.22.88 2.67 3.03 1.41 6.5 2.07 9.77 2.7 3.32.65 6.69 1.1 10.07 1.35 6.66.47 13.45.05 19.94-1.58 6.45-1.62 12.5-4.51 17.71-8.65 5.58-4.44 10.67-10.72 10.39-18.25-.15-4.1-1.92-8.46-5.2-11.05-3.08-2.43-6.99-3.22-10.79-3.64-1.87-.21-2.31 2.96-.45 3.3"/><path d="M22.74 23.06c5.97-2.26 13.52-3.88 19.42-.57 1.49.84 2.67 1.96 3.74 3.28 1.41 1.76 3.01 3.36 4.38 5.16 2.92 3.82 5.53 7.95 8.64 11.62 1.13 1.33 3.36-.4 2.42-1.87-2.18-3.38-4.8-6.54-7.2-9.78-2.15-2.9-4.48-5.78-6.97-8.39-4.06-4.25-10.09-5.21-15.7-4.47-3.24.43-6.37 1.35-9.39 2.6-1.45.6-.86 2.99.66 2.41Zm52.67 40.6c3.74 3.6 7.37 7.31 11.18 10.84s7.62 7.06 11.44 10.57c7.11 6.55 14.49 12.75 21.69 19.19 4 3.58 7.89 7.31 11.45 11.33 1.47 1.66 3.9-.78 2.43-2.43-6.28-7.05-13.54-13.13-20.68-19.27-7.62-6.56-14.98-13.41-22.42-20.17-4.4-4-8.94-7.83-13.4-11.77-1.15-1.02-2.83.62-1.7 1.7Zm74.46 65.36c3.95 1.99 8.44 1.97 12.53 3.48 1.56.58 3.2 1.5 4.12 2.92.42.65.77 1.37.88 2.14.14.94-.15 1.85-.02 2.79.19 1.36 2.02 1.53 2.86.75 1.76-1.62 1.07-4.82.15-6.69-.99-2.03-2.82-3.67-4.87-4.58-4.56-2.04-9.78-1.15-14.34-3.09-.66-.28-1.41-.19-1.81.47-.35.58-.16 1.49.47 1.81Z"/><path d="M58.5 111.47c1.28-9.84 2.28-19.67 2.79-29.59-.96.55-1.93 1.11-2.89 1.66 5.7 3.79 11.42 7.57 17.13 11.35 1.07.71 2.51-.02 2.85-1.16 2.3-7.8 4.67-15.55 7.33-23.23.75-2.17-2.68-3.1-3.44-.95-2.7 7.66-5.33 15.36-7.64 23.15l2.85-1.16c-5.71-3.78-11.43-7.56-17.15-11.32-1.28-.84-2.83.28-2.89 1.66-.44 9.87-1 19.75-1.92 29.59-.18 1.94 2.74 1.86 2.98 0"/><path d="M84.84 70.79c1.08-.55 2.16-1.13 3.18-1.77 1.11-.7 2.15-1.52 3.17-2.33.3-.23.46-.76.46-1.12 0-.39-.17-.85-.46-1.12-.68-.62-1.56-.57-2.24 0-.23.19-.45.38-.68.56-.11.09-.23.18-.35.27-.06.05-.12.09-.17.14.17-.13.19-.15.05-.04-.55.41-1.11.8-1.65 1.22-.06.05-.11.09-.17.13.16-.13.18-.14.04-.03-.12.09-.24.18-.36.26l-.72.51c-.49.34-.98.66-1.48.98-.6.38-.89 1.22-.48 1.85s1.17.83 1.85.48ZM102.42 77c-.96.59-1.83 1.31-2.7 2.03-.38.32-.76.64-1.14.97-.63.55-1.39 1.1-1.37 2.03 0 .38.16.81.45 1.08.31.28.66.42 1.08.45.87.06 1.46-.71 2.04-1.25.37-.35.75-.69 1.13-1.03.75-.67 1.54-1.3 2.27-1.99.53-.49.54-1.36.11-1.91s-1.25-.76-1.87-.37Z"/><path d="M95.92 82.92c-.85 2.13-1.33 4.43-1.94 6.64-.57 2.06-1.11 4.14-1.68 6.2-1.18 4.29-2.39 8.57-3.64 12.84l2.16-1.23c-6.22-.88-12.43-1.55-18.72-1.76-1.09-.04-1.97.94-1.99 1.99-.06 3.18-.16 6.37-.33 9.55-.08 1.55-.19 3.1-.29 4.65s-.39 3.27-.3 4.88c.11 2.04 3.1 2.61 3.67.5.42-1.57.47-3.27.62-4.89q.225-2.445.36-4.89c.19-3.26.28-6.53.27-9.8l-1.99 1.99c5.93.05 11.91.35 17.78 1.16.95.13 1.87-.22 2.16-1.23 1.26-4.35 2.47-8.72 3.65-13.09 1.15-4.29 2.63-8.71 3.14-13.13.21-1.8-2.35-1.81-2.92-.39Zm-11.61 52.3c.9-3.9 1.76-7.82 2.72-11.7l-1.74 1.33c2.75.37 5.59.39 8.36.61 2.78.22 5.56.48 8.33.79.62.07 1.41-.41 1.67-.96 4.11-8.57 7.9-17.28 11.36-26.14.38-.97-.42-2.08-1.33-2.34-1.08-.31-1.97.38-2.34 1.33-3.4 8.52-7.08 16.92-11.02 25.2l1.67-.96c-2.77-.3-5.55-.56-8.33-.76-2.75-.2-5.6-.51-8.36-.38-.71.03-1.63.53-1.74 1.33-.58 3.98-1.26 7.95-1.9 11.93-.27 1.72 2.26 2.5 2.67.74Z"/><path d="M115.27 98.56c-.06.05-.21.16-.06.05l.15-.12c.1-.08.21-.15.31-.23.28-.21.56-.44.84-.66l.15-.12c-.06.05-.24.19-.08.06.1-.08.21-.16.31-.23l.66-.48c.86-.61 1.72-1.2 2.62-1.74l-.4.17c.37-.13.61-.28.91-.53s.51-.82.5-1.2-.13-.72-.36-1.02c-.54-.7-1.41-.8-2.18-.44-.18.09-.36.23-.5.38l.34-.26c-1.87 1.26-3.71 2.67-5.23 4.35-.5.56-.59 1.48 0 2.02.27.25.63.44 1.01.42.41-.02.69-.17 1.01-.42"/></svg>