<?xml version="1.0" encoding="UTF-8"?><svg xmlns="http://www.w3.org/2000/svg" viewBox="0 0 180 180"><path d="M63.16 57.68c-5.75-.33-10.23 3.67-12.32 8.75-1.09 2.67-1.7 5.74-.94 8.58.7 2.62 2.44 4.83 4.6 6.42 4.46 3.29 11.55 3.88 16.51 1.47 4.56-2.22 7.24-7.24 7.72-12.14.29-3.01-.29-6.29-1.96-8.84s-4.3-4.62-7.34-4.71c-2.51-.07-2.64 3.31-.56 4.11 1.59.61 2.96 1.24 3.99 2.67 1.11 1.56 1.55 3.48 1.55 5.37 0 3.32-1.55 6.87-4.32 8.81-3.14 2.2-7.97 2.04-11.36.45-1.63-.76-2.99-1.93-3.86-3.52-1-1.82-.82-3.76-.27-5.7 1.12-3.98 4.02-8.28 8.57-8.48 2.1-.09 2.09-3.13 0-3.25Z"/><path d="M62.64 80.18a8.7 8.7 0 0 1-3.11-2.01c-.41-.41-.54-.58-.83-1.1-.05-.09-.1-.18-.14-.27.01.03-.18-.42-.11-.22 0-.02-.15-.46-.2-.64a5 5 0 0 1-.14-.7c.05.31-.02-.33-.02-.43 0-.21 0-.42.01-.63 0-.12.02-.23.03-.35.04-.45-.06.31.02-.14s.19-.89.34-1.32c.04-.11.21-.55.16-.44-.09.21.08-.18.08-.17.06-.12.11-.23.17-.35 1.09-2.07 3.18-3.44 5.44-3.74 2.74-.36 5.54.86 6.54 3.63 1.14 3.15-.37 6.47-3.24 8.02-1.88 1.02-.22 3.84 1.67 2.86 3.72-1.93 5.67-6.08 5.04-10.18-.32-2.06-1.29-4.15-2.9-5.51s-3.46-1.97-5.44-2.11c-6.26-.43-11.85 5.26-10.9 11.53.23 1.5.95 2.87 1.96 3.99 1.3 1.43 3.07 2.19 4.87 2.79.67.22 1.43-.26 1.6-.91.2-.73-.25-1.36-.91-1.6Z"/><path d="M65.49 70.99s-.09-.03-.14-.05l.63.37-.02-.02.23.3c-.16-.24-.34-.44-.59-.6-.27-.17-.59-.21-.9-.24-.26-.02-.52.04-.77.07l.44-.06c-.2.02-.4.03-.58.1s-.37.14-.54.22c-.25.11-.46.29-.67.46-.42.34-.68.82-.84 1.32-.08.25-.11.53-.12.8s.04.56.08.8c.05.26.17.5.27.74.05.12.12.23.2.34.31.42.66.82 1.15 1.05.24.11.48.23.74.27s.53.09.8.07c.25-.02.55-.05.8-.14s.53-.19.75-.34c.21-.14.42-.29.59-.47.14-.15.26-.32.38-.48.04-.06.08-.11.11-.18.13-.26.25-.54.3-.83.04-.23.08-.49.08-.73s-.05-.49-.09-.73c-.03-.18-.08-.35-.14-.52-.08-.22-.17-.5-.28-.68-.08-.14-.21-.3-.32-.42-.35-.38-.83-.5-1.33-.54l.91.25s-.05-.02-.07-.04c-.27-.16-.57-.24-.88-.24-.32 0-.61.08-.88.24-.26.16-.47.36-.63.63s-.24.57-.24.88v.05l.06-.47v.04c.14-.27.3-.53.45-.8q-.165.195-.3.39l-.19.44c-.08.25-.09.49-.03.74 0 .1.02.2.04.29.03.09.08.19.11.28.07.19.12.37.15.57l-.07-.49c.01.13.02.25 0 .38l.07-.49c-.02.11-.04.22-.08.32l.19-.44c-.04.1-.1.19-.16.27l.29-.37c-.07.08-.14.15-.22.22l.37-.29c-.1.08-.21.14-.33.19l.44-.19c-.11.04-.22.07-.34.09l.49-.07c-.11.01-.21.01-.31 0l.49.07c-.11-.01-.21-.04-.31-.08l.44.18c-.1-.04-.19-.1-.28-.16l.37.28c-.09-.07-.18-.16-.25-.25l.28.37a2.3 2.3 0 0 1-.2-.34l.18.43c-.04-.11-.08-.23-.09-.35l.06.48q-.03-.195 0-.39l-.06.48c.02-.11.05-.21.09-.31l-.18.43c.07-.15.15-.31.25-.44l-.27.36c.08-.11.18-.2.29-.29l-.34.27c.14-.1.28-.19.44-.26l-.38.16c.18-.07.37-.12.53-.22.25-.16.44-.37.6-.62l-.23.3.02-.02-.63.37s.07-.01.1-.02l-.37.05h.04q.285 0 .54-.12c.17-.06.32-.15.45-.29.21-.23.34-.49.38-.8s0-.63-.17-.89l-.22-.28c-.17-.17-.38-.29-.62-.36ZM53.48 66.7c-2.83-2.97-5.57-5.89-7.69-9.44l-1.68 2.92c2.4-.02 4.79-.06 7.19-.1 1.51-.03 2.38-1.62 1.68-2.93-1.29-2.43-2.13-5-2.58-7.71l-1.86 2.44c2.66.32 5.24 1.15 7.61 2.38 1.29.67 2.93-.15 2.93-1.68 0-2.49 0-4.97-.03-7.46l-1.99 1.99c3.18.13 5.63 2.69 7.74 4.8 1.07 1.07 2.94.56 3.35-.88s.78-2.77 1.17-4.16l.26-.92c.14-.5.54-1-.12-.78s-.27.11-.04.34c.18.18.45.3.66.47 1.78 1.38 3.24 3.16 4.32 5.13 2.01 3.66 3.18 9.01.72 12.72-1.23 1.86 1.71 4.2 3.13 2.41 4.15-5.21 2.18-13.57-1.25-18.65-.92-1.35-1.98-2.63-3.19-3.73-1.13-1.03-2.46-2.2-4-2.51-1.95-.4-3.28.85-3.86 2.6-.65 1.97-1.12 4.02-1.68 6.02l3.35-.88c-2.94-2.94-6.21-5.78-10.57-5.94-1.07-.04-2 .94-1.99 1.99.03 2.49.07 4.97.12 7.46l2.93-1.68c-3.03-1.56-6.2-2.49-9.57-2.88-1.37-.16-2.04 1.36-1.86 2.44.49 3.04 1.5 5.93 2.94 8.65l1.68-2.93c-2.4.03-4.79.06-7.19.11-1.43.03-2.47 1.64-1.68 2.92 2.37 3.82 5.36 7.45 9.19 9.88 1.5.95 3.03-1.17 1.86-2.4Zm36.25 6.37c-2.64-1.5-5.77-1.74-8.43-.16s-4.03 4.38-4.12 7.31l2.7-2.05c-2.78-1.04-5.92-1.13-8.65.14-2.35 1.1-4.26 3.32-4.7 5.92-.47 2.78.46 5.68 2.48 7.65s4.87 2.88 7.69 2.87c1.31 0 2.52-1.66 1.63-2.85-.12-.16-.53-1.04-.73-1.12.02-.12-.05-.07-.23.13-.28.13-.32.18-.13.15.08.12.84.2.97.23 1.21.34 2.33.85 3.48 1.36 2.65 1.17 5.19 1.98 8.1 1.38 1.12-.23 1.76-1.55 1.47-2.59-.33-1.18-1.47-1.67-2.59-1.47-1.44.26-2.95-.18-4.32-.59-1.68-.49-3.3-1.15-5-1.59s-3.65-.73-4.8.91-.52 3.55.5 5.11l1.63-2.85c-2.87-.27-6.39-2.54-5.8-5.86.24-1.34 1.36-2.45 2.58-2.98 1.7-.74 3.57-.46 5.26.14 1.34.47 2.68-.75 2.7-2.05.02-1.49.71-2.88 1.94-3.74s3.26-1.24 4.69-.59c1.88.85 3.51-1.76 1.65-2.82Z"/><path d="M89.25 98.05c-5.46.7-11.32-.19-16.55-1.8s-10.33-4.15-14.51-7.76c-1.11-.96-3.12-.72-3.48.92-1.77 8.05-6.33 15.43-12.94 20.4-1.38 1.04-1.37 3.29.5 3.82 11.95 3.39 24.42-2.6 29.63-13.76l-3.58-1.51c-1.38 3.33-2.2 6.82-2.58 10.4-.16 1.53.03 3.1 1.43 4.01s3.39.91 4.98 1.06c1.79.17 3.6.23 5.39.15s3.09-.65 3.74-2.37c1.23-3.25 1.66-7.01 1.8-10.46h-3.84c.07 1.91.14 3.82.2 5.73.06 1.73-.28 4.2.82 5.66 1.97 2.6 6.33.99 8.97.81s2.54-4.13 0-3.95c-1.15.08-2.28.29-3.41.45-.58.08-1.17.15-1.76.16-.15 0-.55-.08-.68-.02l-.15-.03c.22.36.3.37.23.03.2-.45-.07-1.66-.09-2.15-.03-.72-.07-1.43-.1-2.15l-.21-4.54c-.11-2.47-3.75-2.48-3.84 0s-.43 4.91-1.08 7.31c-.14.53-.52 1.24-.53 1.79 0-.32.38.02.15-.21-.09-.09-.84.02-.98.02-1.39 0-2.78-.05-4.17-.17-.64-.06-1.29-.12-1.93-.21-.29-.04-.59-.08-.88-.14-.43-.09-.45-.27-.35.11.18.65.18-.16.19-.27.02-.29.05-.57.09-.86.07-.59.16-1.18.27-1.76.45-2.51 1.17-4.97 2.07-7.36.77-2.06-2.7-3.55-3.58-1.51-4.18 9.66-15.07 14.56-25.14 11.71l.5 3.82c7.48-5.64 12.83-13.73 14.84-22.91l-3.48.92c4.68 4.04 10.27 6.91 16.22 8.54s12.01 1.85 18.17.99c1.64-.23 1.27-3.13-.39-2.92Z"/><path d="M50.09 106.41c.76-3.7-.09-7.37-1.96-10.61-.89-1.55-2-2.98-3.17-4.33-.61-.71-1.25-1.39-1.9-2.06-.58-.6-1.33-1.18-1.84-1.84l.27 1.01-.02-.27-.59 1.42.15-.14-.89.52c2.28-.74 4.85-.95 7.19-.45 1.12.24 2.23.59 3.25 1.11 1.15.58 2.09 1.43 3.19 2.07.83.48 1.93.27 2.5-.5.62-.83.46-1.76-.15-2.54-.95-1.22-2.65-2.13-4.03-2.77-1.5-.69-3.06-1.21-4.69-1.46-1.74-.27-3.44-.3-5.18-.05s-4.72.54-4.77 2.8c-.03 1.17.75 1.87 1.52 2.61.64.61 1.27 1.22 1.89 1.85 1.19 1.21 2.36 2.46 3.34 3.85s1.76 2.81 2.25 4.38c.52 1.67.42 3.3.64 5 .1.75.5 1.4 1.32 1.5.71.08 1.52-.34 1.67-1.09ZM39.95 71.23c1.3.88 2.73 1.57 4.21 2.08.38.13.91.04 1.25-.16s.66-.58.74-.97c.2-.87-.26-1.72-1.13-1.99-.54-.16-1.07-.36-1.59-.57l.38.16q-1.2-.51-2.31-1.2c-.68-.43-1.73-.17-2.11.55-.41.78-.16 1.62.55 2.11Zm-1.02 7.04c.35.28.7.56 1.09.78.3.17.6.33.91.48.7.32 1.49.68 2.27.79.22.07.43.08.65.03.22 0 .42-.07.61-.19.34-.2.66-.59.75-.98.1-.42.07-.89-.16-1.26-.23-.35-.56-.65-.98-.75s-.84-.16-1.26-.28-.82-.26-1.21-.42l.37.15c-.44-.19-.87-.39-1.28-.61-.64-.34-1.41-.21-1.85.37-.19.24-.32.56-.31.87.02.36.13.78.42 1.02Zm44.31 3.62c-.16-.08-.34-.17-.48-.28l.3.23c-.33-.26-.67-.5-1-.76l.32.25c-.5-.39-.96-.81-1.36-1.31l.26.34q-.36-.465-.63-.99c-.27-.525-.62-.67-1-.77-.4-.11-.94-.06-1.29.17s-.67.58-.77 1-.06.89.17 1.29c.43.78 1.02 1.51 1.71 2.08.39.33.79.62 1.25.85s.94.37 1.43.49c.69.17 1.4-.17 1.68-.82.26-.62.05-1.45-.58-1.78Z"/><path d="M48.88 102.13c-4.07-2.76-8.63-4.68-12.33-8-3.17-2.83-5.66-6.33-6.53-10.54l-1.95 2.56c1.85 0 3.71-.02 5.56-.03 1.53 0 2.56-1.73 1.76-3.07-2.89-4.81-4.22-10.28-3.92-15.88l-2.61 1.99 6.49 2.51c1.45.56 3.03-1.13 2.55-2.55-.78-2.3-1.3-4.67-1.42-7.11-.06-1.19-.04-2.39.06-3.57.05-.56.11-1.12.2-1.67.05-.29.11-.59.16-.88.02-.12.05-.24.08-.35q.09-.33-.06.12l-.91.53.35-.08h-1.09c1.63.26 3.43 1.35 4.82 2.19 1.47.89 2.75 2.05 3.91 3.31s3.32-.04 2.78-1.62c-.87-2.54-2.83-4.21-5.11-5.5-1.09-.62-2.24-1.14-3.4-1.64-1.43-.62-3.05-1.27-4.37 0-.98.94-1.09 2.44-1.27 3.72a30 30 0 0 0-.31 4.56c.04 3.09.58 6.18 1.58 9.1l2.55-2.55-6.49-2.5c-1.33-.51-2.55.78-2.61 1.99a31.5 31.5 0 0 0 4.53 17.93l1.76-3.07c-1.85.02-3.71.03-5.56.06-1.37.02-2.23 1.27-1.95 2.56 1.02 4.74 3.91 8.93 7.53 12.09 4.04 3.52 9.01 6.39 14.07 8.14 1.7.59 2.52-1.85 1.17-2.77Z"/><path d="M49.98 86.69c.2-.34.41-.67.62-1.01.1-.16.21-.32.31-.47.04-.06.17-.18.18-.25-.15.19-.18.23-.1.14.03-.04.06-.08.1-.12.5-.61 1.05-1.19 1.66-1.7.08-.06.17-.12.24-.2-.09.1-.29.22-.07.06a11.6 11.6 0 0 1 1.55-.94c.17-.08.34-.16.52-.24.08-.03.16-.06.24-.1-.45.24-.17.07-.04.02.19-.07.39-.14.59-.2.56-.18.95-.47 1.24-.97.44-.75.19-1.81-.59-2.24-.53-.29-1.06-.37-1.65-.2a11.3 11.3 0 0 0-2.1.85c-.84.45-1.63 1.02-2.35 1.65-1.41 1.24-2.63 2.92-3.11 4.75-.19.73.19 1.5.88 1.79s1.5.03 1.89-.62Zm6.84 3.57c.21-.86 1.15-1.5 1.84-1.98.94-.66 1.94-1.24 2.98-1.73s1.94-.8 3.03-.98c1.15-.19 2.32.08 3.45-.09.55-.08.95-.73.95-1.24 0-.58-.4-1.07-.95-1.24-1.27-.42-2.94-.04-4.22.16s-2.61.47-3.82.96c-1.32.53-2.49 1.25-3.6 2.15-1.18.97-2.16 2.06-2.28 3.64s2.25 1.79 2.61.35Zm-6.76 25.07c.29 1.25.47 2.47.89 3.7s.87 2.3 1.42 3.39c1.13 2.24 2.56 4.32 4.23 6.19s3.59 3.52 5.66 4.93c.97.66 1.98 1.26 3.02 1.79 1.28.65 2.69 1.45 4.15 1.21s1.55-2.07.79-3c-.66-.82-2.15-1.19-3.09-1.67-1-.51-1.97-1.08-2.9-1.7-1.81-1.22-3.44-2.68-4.9-4.29s-2.74-3.4-3.8-5.31-2.11-3.95-2.62-6.03c-.46-1.85-3.27-1.07-2.85.79"/><path d="M68.35 122.19c-.46 4.05-.93 8.07-1.09 12.15-.13 3.31-.21 6.63.68 9.85 1.6 5.75 5.68 10.87 11.29 13.08 3.81 1.51 8.09 1.07 12.07.68 1.21-.12 2.26-.95 2.26-2.26 0-1.15-1.04-2.35-2.26-2.26-3.73.29-7.85.81-11.35-.85-2.85-1.36-5.02-3.76-6.49-6.52-1.61-3.03-2.01-6.16-2.06-9.54-.08-4.77-.25-9.56-.05-14.33.08-1.97-2.79-1.87-3 0"/><path d="M61.81 110.22c.49 2.3 1.88 4.4 3.82 5.73.39.27.8.51 1.09.88.31.39.44.89.57 1.37.59 2.2 1.42 5.79 2.01 7.98.34-2.29.54-5.05 2.01-6.96 1.69-2.19 4.65-3.51 7.17-3.78 3.6-.39 7.73.22 11.36.34l-.06-3.55c-2.71.58-5.62 1.14-8.18.08-.22-.09-.46-.2-.69-.13-.26.08-.41.35-.56.57-1.15 1.66-3.63 1.42-5.6 1l-4.64-.99c-1.23-.26-2.51-.55-3.49-1.34s-1.54-2.25-.92-3.34c-.6.55-1.2 1.11-1.8 1.66"/><path d="M60.47 110.59c.24 1.52.79 3.05 1.68 4.31.47.67 1.01 1.31 1.63 1.86.44.39 1.17.71 1.47 1.23s.32 1.41.47 2c.18.72.35 1.45.52 2.17.36 1.52.73 3.05 1.14 4.56.48 1.74 3.55 2.03 3.83 0s.35-4.16 1.36-5.87c.86-1.46 2.48-2.46 4.04-3 1.9-.66 3.92-.64 5.91-.57 2.44.09 4.87.35 7.31.45 1.03.04 1.94-.92 1.93-1.93-.02-1.18-.04-2.37-.05-3.55-.02-1.31-1.22-2.12-2.45-1.86-2.22.47-4.52.95-6.74.23-1.16-.38-2.23-.57-3.22.35-.56.52-.64.99-1.45 1.13-1.99.33-4.37-.62-6.29-1.04-.62-.13-4.67-.8-4.15-1.95.91-2.01-1.39-4.03-3.13-2.42-.6.55-1.2 1.11-1.8 1.66-1.89 1.74.93 4.55 2.82 2.82.6-.55 1.2-1.11 1.8-1.66l-3.13-2.42c-.92 2.02-.48 4.28 1.23 5.76 1.61 1.39 3.75 1.73 5.76 2.15s4.12 1.04 6.2 1.04c1.01 0 2.02-.17 2.94-.6.43-.2.84-.47 1.19-.8.12-.11 1.05-1.02.6-.75l-.98.27c.62 0 1.41.45 2.05.55.82.13 1.63.19 2.46.15 1.64-.07 3.27-.4 4.88-.74l-2.45-1.86.06 3.55 1.93-1.93c-5.02-.19-10.47-1.34-15.27.66-2.1.87-4.04 2.25-5.27 4.19-1.32 2.07-1.56 4.58-1.91 6.95h3.83c-.74-2.86-1.2-5.94-2.33-8.68-.67-1.63-1.93-2.12-3.18-3.2s-2.09-2.41-2.56-3.93c-.54-1.75-2.96-1-2.68.74ZM37.39 98.2c-5.98 1.88-11.35 5.63-15.19 10.59 4.26-.36 8.58.03 12.71 1.13-3.46 3.5-5.49 8.38-5.52 13.3a30.3 30.3 0 0 1 12.5-4.25c-2.21 1.49-3.19 4.34-3.08 7s1.14 5.19 2.23 7.63c1.76-3.51 4.78-6.36 8.38-7.92-.89 1.17.03 2.82.99 3.93 1.71 1.97 3.64 3.74 5.75 5.29-.3-2.06.34-4.24 1.71-5.81-4.26-3.86-7.05-9.3-7.73-15-3.56.19-7.16-.38-10.49-1.66 1.91-3.03 4.12-5.86 6.59-8.46a19.8 19.8 0 0 1-8.14-4.81"/><path d="M36.94 96.58c-6.39 1.57-12.11 5.67-16.17 10.78-.98 1.23-.5 3.6 1.43 3.46 4.11-.29 8.18.04 12.17 1.07l-.9-3.42a21.68 21.68 0 0 0-6.11 14.74c-.03 1.55 1.76 2.56 3.08 1.77 3.51-2.11 7.4-3.51 11.47-3.98l-1.03-3.79c-2.54 1.83-3.85 4.57-4.07 7.66-.25 3.42 1.13 6.69 2.53 9.73.61 1.33 2.8 1.27 3.43 0 1.65-3.3 4.3-5.72 7.67-7.21l-2.72-2.72c-1.47 2.35-.06 4.87 1.56 6.7 1.74 1.97 3.79 3.66 5.91 5.2 1.12.81 3.11-.26 2.92-1.68-.21-1.61.05-3.18 1.11-4.47.63-.77.81-1.94 0-2.68-3.87-3.57-6.51-8.41-7.18-13.66-.12-.98-.77-1.94-1.89-1.89-3.44.15-6.76-.41-9.98-1.63l1.15 2.83c1.85-2.88 3.96-5.56 6.31-8.05 1.02-1.09.56-2.81-.86-3.26-2.75-.86-5.2-2.32-7.28-4.31-1.82-1.74-4.58 1.02-2.76 2.76 2.57 2.46 5.61 4.25 9.01 5.31l-.86-3.26c-2.57 2.73-4.87 5.7-6.87 8.87-.72 1.13.04 2.41 1.15 2.83 3.52 1.3 7.26 1.87 11 1.7l-1.89-1.89c.79 6.26 3.62 12.04 8.28 16.35v-2.68c-1.67 2.02-2.59 4.51-2.31 7.15l2.92-1.68a35 35 0 0 1-3.83-3.44c-.5-.53-2.6-2.4-2.17-3.1 1.12-1.84-1.03-3.49-2.72-2.72-3.89 1.76-7.08 4.88-9.09 8.64h3.43c-1.43-3.35-3.63-9.15.17-11.87.74-.53 1.19-1.37.93-2.3-.22-.79-1.09-1.59-1.96-1.49-4.81.54-9.38 2.02-13.54 4.51l3.08 1.77c.08-4.44 1.83-8.66 4.92-11.85 1.05-1.09.61-3.03-.9-3.42-4.32-1.12-8.8-1.56-13.26-1.18l1.75 3.05c3.57-4.62 8.52-7.84 13.88-10 1.96-.79 1.26-3.77-.89-3.24Zm1.78-42.42c-.32-5.21-.39-11.31 2.81-15.71h-3.39c2.86 4.21 9.05 4.98 13.21 2.22 2.24-1.49 3.7-4.04 2.91-6.76s-3.17-4.55-5.41-5.94l-.48 3.67c6.96-2.72 15.15-1.22 20.54 4.02 1.59 1.55 3.67-.08 3.41-1.98-.63-4.51-3.25-8.44-6.97-11.01l-.49 3.75c2.61-.72 5.21-.15 7.75.59s4.94 1.56 7.22 2.77c3.96 2.09 7.51 5.83 7.65 10.56.07 2.33 3.24 2.19 3.52 0 .77-6.1-3.6-11.2-8.65-14-2.7-1.5-5.67-2.5-8.63-3.33-3.24-.91-6.64-1.46-9.95-.53-1.79.5-1.9 2.77-.49 3.75 2.89 1.99 4.62 5.12 5.1 8.56l3.41-1.98c-6.35-6.16-16.22-8.28-24.49-5.01-1.57.62-2.05 2.7-.48 3.67 1.29.8 2.93 1.74 3.57 3.2.6 1.38-.48 2.43-1.63 3.03-2.25 1.18-5.65 1.01-7.23-1.2-.89-1.24-2.51-1.27-3.39 0-3.69 5.33-3.01 11.62-2.37 17.7.19 1.85 3.07 1.92 2.95 0Z"/><path d="M79.16 42.3c1.73 0 1.73-2.69 0-2.69s-1.73 2.69 0 2.69m4.13-2.25c1.76 0 1.76-2.73 0-2.73s-1.76 2.73 0 2.73m0 5.12c1.71 0 1.71-2.66 0-2.66s-1.71 2.66 0 2.66M35.44 58.58v-.53l-.15.55c-.22.16-.44.33-.66.5.09-.03.18-.07.27-.11l.22-.17c.11-.1.18-.22.23-.36.07-.13.1-.27.1-.43 0-.15-.03-.3-.1-.43a.77.77 0 0 0-.23-.36.86.86 0 0 0-.36-.23.9.9 0 0 0-.43-.1l-.29.04c-.19.05-.35.15-.49.29l-.17.22c-.1.17-.15.36-.15.56l.04.29c.03.14.1.27.2.38.08.12.18.22.31.29.09.04.18.08.27.11l-.66-.51-.15-.54v.53q0 .225.09.42c.04.14.12.25.23.35.1.11.22.18.35.23q.195.105.42.09l.29-.04c.19-.05.35-.15.48-.28l.17-.22c.1-.17.15-.35.15-.55Z"/><path d="M35.69 58.94c.98-3.84-1.13-7.43-4.23-9.59s-7.59-3.84-11.41-3.44c-7.11.75-10.75 8.77-7.87 15.02 1.19 2.58 4.25 5.18 2.03 8-1.02 1.31-2.33 2.37-3.38 3.65-1.3 1.58-2.35 3.4-2.79 5.41-.85 3.81.34 7.87 3.5 10.28.78.6 1.6.98 2.52 1.34.25.1.54.17.76.33.17.13.09-.14.14.26.1.8-.22 1.72-.33 2.5-.14.98-.19 1.94.04 2.92.93 4.08 5.31 5.8 9.03 6.27 4.63.59 9.79-.06 13.93-2.29 2.09-1.13.66-4.76-1.65-3.91-3.4 1.25-6.66 2.11-10.32 1.86-1.91-.13-5.52-.59-6.35-2.72-.43-1.09.17-2.6.29-3.72.21-1.92-.36-3.78-1.97-4.94-1-.72-2.28-.9-3.26-1.66s-1.65-2.01-1.82-3.24c-.44-3.18 1.67-5.47 3.67-7.6 2.14-2.28 3.84-5.06 3.12-8.3-.64-2.89-3.19-4.86-3.84-7.7-.48-2.08.11-4.5 1.54-6.09 2.43-2.69 6.38-1.68 9.34-.55s6.8 3.39 6.08 7.01c-.41 2.09 2.68 3 3.22.89Z"/><path d="M20.84 58.91c1.09.27 1.77.64 2.72 1.26.11.07.22.15.33.23 0 0 .35.26.14.1.21.16.41.34.61.52.4.36.76.75 1.1 1.16.05.06.28.38.09.11.08.11.16.21.23.32.15.22.3.44.43.67.27.46.5.94.73 1.43.15.32-.1-.28.03.09.04.13.09.25.14.38.08.23.15.46.21.7.07.26.13.52.17.78 0 .05.07.5.04.23s.02.25.02.3c.07.91.75 1.79 1.75 1.75.86-.04 1.86-.78 1.75-1.75-.3-2.71-1.4-5.15-3.33-7.1a11.8 11.8 0 0 0-6.57-3.38c-.61-.1-1.23.16-1.4.8-.16.58.2 1.25.8 1.4Zm6.54 14.94c-.71.68-1.39 1.47-1.83 2.36-.51 1.04-.79 2.07-.92 3.22-.25 2.05.22 4.16 1.28 5.93.47.78 1.58 1.13 2.37.62s1.12-1.54.62-2.37c-.11-.18-.21-.36-.3-.55-.04-.08-.08-.17-.12-.25-.12-.22.09.27.01.03-.14-.39-.27-.78-.36-1.19l-.12-.61c-.04-.2 0-.09 0 .05 0-.09-.02-.18-.03-.28-.03-.42-.03-.83 0-1.25 0-.13.08-.61.02-.24.04-.21.07-.41.12-.61.09-.38.18-.76.3-1.14.04-.11.08-.21.12-.32.08-.25-.19.45.05-.13.05-.13.1-.25.15-.38.06-.15-.09.17.04-.08.08-.16.16-.33.25-.49.06-.1.12-.2.18-.29.02-.03.19-.26.07-.11.45-.58.56-1.35 0-1.91-.53-.53-1.38-.51-1.91 0Z"/><path d="M22.32 74.03c.69.63 1.39 1.24 1.97 1.99l-.22-.28q.42.54.75 1.14c.3.54.54 1.2 1.13 1.5.76.39 1.62.05 1.88-.77.24-.75-.18-1.54-.56-2.17-.3-.5-.64-.96-1.01-1.41-.65-.8-1.45-1.57-2.38-2.04-.58-.3-1.27-.19-1.67.33-.38.49-.38 1.27.1 1.7Zm1.9 20.47c.21 0 .4-.04.58-.13.19-.06.35-.16.48-.31.15-.14.25-.3.31-.48.09-.18.14-.37.13-.58l-.05-.4q-.105-.375-.39-.66l-.3-.23c-.23-.14-.49-.2-.76-.2-.21 0-.4.04-.58.13-.19.06-.35.16-.48.31-.15.14-.25.3-.31.48-.09.18-.14.37-.13.58l.05.4q.105.375.39.66l.3.23c.23.14.49.2.76.2m92.62-33.57c3.88.17 6.83 3.54 8.08 6.97.7 1.92 1.32 4.04.71 6.07-.47 1.55-1.57 2.92-2.9 3.83-3.08 2.12-8.2 2.78-11.6 1.1-3.07-1.52-5.05-4.83-5.46-8.18-.25-1.98.02-4.15.99-5.92 1.03-1.88 2.55-2.73 4.47-3.47 2.07-.79 1.97-4.19-.56-4.11-5.76.17-9.15 6.44-9.36 11.54s2.09 10.25 6.27 13.24c4.55 3.26 11.46 2.92 16.3.49 2.34-1.18 4.45-3.17 5.57-5.55 1.3-2.74 1.29-5.64.48-8.53-1.66-5.92-6.46-11.09-12.99-10.72-2.08.12-2.1 3.16 0 3.25Z"/><path d="M118.05 82.69c1.67-.56 3.3-1.25 4.58-2.49.99-.96 1.74-2.19 2.1-3.52.65-2.4.09-5.05-1.13-7.18-1.74-3.06-5.09-4.95-8.58-5.13-1.85-.09-3.79.36-5.38 1.32-1.85 1.11-3.09 2.94-3.71 4.99-1.34 4.43.6 9.35 4.75 11.5 1.89.98 3.55-1.84 1.67-2.86-2.47-1.34-3.99-3.99-3.56-6.83.22-1.4.96-2.85 2.1-3.72 1.07-.81 2.44-1.16 3.71-1.16 2.38 0 4.87 1.15 6.17 3.25q.315.525.57 1.08c.11.24-.13-.35.02.06.03.08.06.17.09.25q.135.39.24.78c.06.22.1.45.15.67.01.06.04.3 0 0 .01.11.03.23.03.34a6.6 6.6 0 0 1 0 1.05c0 .07-.05.48 0 .15-.04.26-.09.51-.16.76-.03.12-.07.23-.1.35 0 .01-.17.44-.06.18-.19.46-.55 1.03-.76 1.26-.91 1.07-2.14 1.89-3.45 2.38-.66.25-1.11.88-.91 1.6.18.65.93 1.14 1.6.91Z"/><path d="M114.89 73.73h.04a5 5 0 0 1-.37-.05c.03 0 .07.01.1.02l-.63-.37.02.02-.23-.3c.16.24.34.48.6.62.17.09.35.15.53.22l-.38-.16c.15.07.3.16.44.26l-.34-.27c.11.08.2.18.29.29l-.27-.36c.1.14.19.29.25.44l-.18-.43c.04.1.07.21.09.31l-.06-.48q.03.195 0 .39l.06-.48c-.02.12-.05.23-.09.35l.18-.43c-.05.12-.12.24-.2.34l.28-.37c-.07.09-.16.18-.25.25l.37-.28c-.09.06-.18.12-.28.16l.44-.18c-.1.04-.2.07-.31.08l.49-.07c-.11.01-.21 0-.31 0l.49.07c-.12-.02-.23-.05-.34-.09l.44.19a1.4 1.4 0 0 1-.33-.19l.37.29c-.08-.07-.16-.14-.22-.22l.29.37c-.06-.08-.12-.17-.16-.27l.19.44c-.04-.1-.07-.21-.08-.32l.07.49a2.4 2.4 0 0 1 0-.38l-.07.49c.03-.2.08-.38.15-.57.03-.09.08-.18.11-.28.09-.27.08-.52.04-.79-.01-.25-.08-.48-.22-.69l-.3-.39.46.8v-.04c0 .16.03.31.05.47v-.05c0-.32-.09-.61-.24-.88a1.8 1.8 0 0 0-.63-.63c-.27-.16-.57-.24-.88-.24-.32 0-.61.08-.88.24-.02.02-.04.03-.07.04l.91-.25c-.35.03-.65.06-.95.25-.27.17-.5.39-.66.66-.12.19-.19.41-.27.62-.06.17-.12.34-.16.52-.06.29-.11.58-.11.88 0 .23.04.46.08.68.01.09.03.17.06.26.18.5.43.97.84 1.32s.87.65 1.41.76 1.08.14 1.6-.02.98-.43 1.34-.81.65-.86.8-1.39.14-1.06.04-1.6c-.05-.27-.18-.53-.29-.78-.09-.19-.24-.36-.38-.52a.8.8 0 0 0-.16-.15c-.2-.17-.42-.35-.66-.48-.19-.09-.38-.17-.58-.24s-.41-.08-.62-.11l.44.06c-.25-.03-.51-.09-.77-.07h-.07c-.22 0-.42.04-.61.14-.07.02-.14.05-.2.09-.26.14-.45.37-.6.61l.23-.3-.02.02.63-.37s-.09.03-.14.05c-.18.04-.34.13-.48.25q-.225.15-.36.39c-.15.28-.21.57-.17.89.04.29.16.6.38.8l.28.22c.22.13.45.19.71.19Zm13.49-4.62c3.83-2.43 6.82-6.06 9.19-9.88.8-1.28-.24-2.89-1.68-2.92-2.4-.05-4.79-.08-7.19-.11l1.68 2.93c1.44-2.72 2.45-5.61 2.94-8.65.18-1.09-.49-2.6-1.86-2.44-3.38.4-6.55 1.33-9.57 2.88l2.93 1.68c.05-2.49.09-4.97.12-7.46.01-1.05-.92-2.03-1.99-1.99-4.36.17-7.63 3.01-10.57 5.94l3.35.88c-.54-1.93-1.06-3.86-1.61-5.78s-1.85-3.25-3.92-2.83c-1.54.31-2.87 1.49-4 2.51-1.21 1.1-2.27 2.37-3.19 3.73-3.44 5.07-5.4 13.44-1.25 18.65 1.41 1.76 4.37-.54 3.13-2.41-2.46-3.71-1.3-9.06.72-12.72 1.06-1.92 2.46-3.63 4.17-5 .13-.1 1.13-.66 1.15-.78l-.75-.3.2.69.26.92c.41 1.46.82 2.93 1.24 4.39s2.28 1.96 3.35.88c2.1-2.11 4.56-4.67 7.74-4.8l-1.99-1.99c-.02 2.49-.03 4.97-.03 7.46 0 1.53 1.64 2.35 2.93 1.68 2.37-1.23 4.95-2.07 7.61-2.38l-1.86-2.44c-.45 2.71-1.28 5.29-2.58 7.71-.7 1.3.17 2.9 1.68 2.93 2.4.04 4.79.09 7.19.1l-1.68-2.92c-2.12 3.54-4.86 6.47-7.69 9.44-1.17 1.22.34 3.37 1.86 2.4Zm-36.46 6.78c3.01-1.36 6.6 1.14 6.64 4.33.02 1.3 1.36 2.53 2.7 2.05 1.68-.59 3.56-.89 5.26-.15 1.22.53 2.35 1.64 2.59 2.99.59 3.32-2.94 5.58-5.8 5.86l1.63 2.85c.96-1.45 1.68-3.28.65-4.92-1.14-1.8-3.15-1.56-4.95-1.1-1.64.43-3.22 1.05-4.83 1.54-1.41.42-2.99.9-4.48.63-1.12-.2-2.27.3-2.59 1.47-.29 1.04.35 2.36 1.47 2.59 2.91.6 5.45-.21 8.1-1.38 1.15-.51 2.27-1.02 3.48-1.36.16-.04.86-.13.97-.23.15-.13-.07-.36-.36-.29-.18.05-.61.96-.73 1.12-.89 1.19.32 2.84 1.63 2.85 2.81 0 5.64-.88 7.69-2.87s2.95-4.87 2.48-7.65c-.44-2.58-2.34-4.84-4.7-5.92-2.73-1.26-5.85-1.18-8.65-.14l2.7 2.05c-.09-2.93-1.57-5.78-4.12-7.31s-5.79-1.34-8.43.16c-1.86 1.06-.23 3.67 1.65 2.82Z"/><path d="M90.35 100.97c6.17.86 12.13.65 18.17-.99s11.55-4.51 16.22-8.54l-3.48-.92c2.01 9.18 7.36 17.27 14.84 22.91l.5-3.82c-10.06 2.85-20.96-2.05-25.14-11.71-.87-2.02-4.36-.57-3.58 1.51.87 2.31 1.58 4.7 2.03 7.13.06.34.27 3.29.41 3.35l.34-.46-.34.09c-.26 0-.57.1-.83.14-.71.11-1.43.18-2.15.24-1.3.11-2.61.18-3.92.17-.31 0-.67-.06-.98-.01-.18.03-.54-.11-.24.1.33.23 0-.39-.06-.57-.09-.3-.18-.6-.26-.9-.68-2.47-1.05-4.97-1.14-7.54s-3.73-2.47-3.84 0c-.06 1.43-.13 2.87-.2 4.3-.04.8-.07 1.59-.11 2.39-.02.51-.3 1.72-.09 2.15s.04 0 .16-.01c-.25.02-.49.04-.75.04-.54 0-1.09-.07-1.63-.14-1.18-.16-2.35-.39-3.54-.47-2.54-.18-2.53 3.78 0 3.95s7.01 1.78 8.97-.81c1.07-1.42.75-3.74.81-5.42l.21-5.97h-3.84c.15 3.46.58 7.2 1.8 10.46.61 1.62 1.84 2.25 3.5 2.36 1.87.12 3.78.03 5.64-.14 1.56-.15 3.46-.16 4.84-.97 1.5-.89 1.74-2.51 1.57-4.1-.38-3.58-1.21-7.07-2.58-10.4l-3.58 1.51c5.21 11.16 17.68 17.16 29.63 13.76 1.88-.53 1.88-2.78.5-3.82-6.61-4.98-11.17-12.35-12.94-20.4-.36-1.63-2.37-1.88-3.48-.92-4.18 3.61-9.26 6.14-14.51 7.76s-11.08 2.51-16.55 1.8c-1.64-.21-2.05 2.68-.39 2.92Z"/><path d="M132.91 106.01c.23-1.7.12-3.34.64-5 .49-1.57 1.31-3.04 2.25-4.38s2.14-2.65 3.34-3.85c.62-.63 1.25-1.24 1.89-1.85.77-.74 1.55-1.43 1.52-2.61-.06-2.26-3.07-2.56-4.77-2.8s-3.45-.22-5.18.05c-1.64.25-3.19.77-4.69 1.46-1.39.64-3.08 1.55-4.03 2.77-.6.76-.8 1.73-.15 2.54.6.75 1.65.99 2.5.5 1.1-.64 2.04-1.49 3.19-2.07 1.03-.52 2.13-.87 3.25-1.11 2.34-.5 4.91-.29 7.19.45l-.89-.52.15.14-.59-1.42-.02.27.27-1.01c-.47.61-1.18 1.16-1.72 1.72-.65.67-1.29 1.35-1.91 2.06-1.21 1.39-2.36 2.86-3.28 4.46-1.87 3.24-2.72 6.92-1.96 10.61.15.73.97 1.2 1.67 1.09.81-.12 1.22-.72 1.32-1.5Zm5.59-37.44q-1.11.69-2.31 1.2l.38-.16q-.78.33-1.59.57c-.4.12-.76.38-.97.74s-.29.86-.16 1.25.37.77.74.97.84.3 1.25.16c1.48-.51 2.91-1.2 4.21-2.08.33-.23.6-.52.71-.92.1-.37.06-.86-.16-1.19-.44-.68-1.38-1.01-2.11-.55Zm.82 7.44c-.42.22-.85.43-1.28.61l.37-.15c-.4.17-.8.31-1.21.42s-.84.18-1.26.28c-.39.1-.77.41-.98.75s-.29.87-.16 1.26.37.78.75.98l.39.16q.435.12.87 0c.78-.11 1.57-.47 2.27-.79.31-.14.62-.3.91-.48.39-.23.74-.51 1.09-.78.26-.21.44-.7.42-1.02s-.11-.61-.31-.87c-.45-.58-1.21-.71-1.85-.37Zm-41.47 8.48c.49-.12.98-.27 1.43-.49s.86-.53 1.25-.85c.69-.57 1.27-1.3 1.71-2.08.22-.39.29-.87.17-1.29-.11-.39-.41-.81-.77-1-.39-.21-.86-.31-1.29-.17-.4.13-.81.38-1 .77q-.27.525-.63.99l.26-.34c-.39.5-.86.92-1.36 1.31l.32-.25c-.33.26-.67.5-1 .76l.3-.23c-.15.11-.32.2-.48.28-.29.15-.58.53-.65.85s-.06.62.07.93c.28.65.98 1 1.68.82Z"/><path d="M132.29 104.9c5.05-1.76 10.03-4.62 14.07-8.14 3.62-3.16 6.51-7.35 7.53-12.09.28-1.29-.58-2.54-1.95-2.56l-5.56-.06 1.76 3.07a31.5 31.5 0 0 0 4.53-17.93c-.06-1.21-1.29-2.5-2.61-1.99l-6.49 2.5 2.55 2.55a29.8 29.8 0 0 0 1.58-8.88c.03-1.53-.07-3.05-.28-4.56-.18-1.33-.27-2.95-1.3-3.94-1.26-1.21-2.81-.67-4.19-.07-1.16.49-2.3 1.01-3.4 1.62-2.35 1.3-4.38 2.99-5.27 5.59-.54 1.57 1.68 2.81 2.78 1.62 1.16-1.26 2.43-2.42 3.91-3.31 1.39-.84 3.2-1.92 4.82-2.19h-1.09l.35.08-.91-.53c-.17-.14-.08-.39-.03 0 .04.29.12.59.17.88.1.55.17 1.11.22 1.67.11 1.26.14 2.53.08 3.8-.12 2.43-.63 4.8-1.42 7.11-.48 1.41 1.09 3.11 2.55 2.55l6.49-2.51-2.61-1.99c.31 5.6-1.02 11.07-3.92 15.88-.8 1.34.23 3.06 1.76 3.07l5.56.03-1.95-2.56c-.86 4.22-3.36 7.71-6.53 10.54-3.71 3.32-8.26 5.24-12.33 8-1.34.91-.55 3.37 1.17 2.77Z"/><path d="M132.79 85.52c-.48-1.83-1.7-3.51-3.11-4.75-.72-.63-1.5-1.2-2.35-1.65-.47-.25-.96-.46-1.46-.64-.19-.07-.39-.14-.59-.2-.6-.18-1.15-.12-1.7.18-.77.43-1.03 1.49-.59 2.24.29.5.71.78 1.24.97.18.06.36.12.54.19.06.02.41.18.12.04s0 0 .07.03a10.5 10.5 0 0 1 1.59.85c.16.1.32.21.47.32.09.06.36.3-.02-.03.08.07.16.13.24.2.61.51 1.16 1.08 1.66 1.7.04.05.25.27.06.07s.05.07.08.12c.11.15.22.31.32.47.22.35.44.7.65 1.05.39.65 1.2.91 1.89.62s1.07-1.05.88-1.79Zm-7 4.38c-.11-1.55-1.05-2.62-2.2-3.58s-2.32-1.67-3.67-2.21c-1.18-.48-2.46-.74-3.72-.95s-3.03-.6-4.32-.17c-.54.18-.95.66-.95 1.24 0 .52.4 1.16.95 1.24 1.1.17 2.24-.08 3.36.08s2.11.52 3.13.99 1.98 1.04 2.9 1.67c.71.49 1.7 1.15 1.92 2.04.35 1.42 2.72 1.16 2.61-.35Zm1.3 24.65c-.51 2.08-1.59 4.16-2.62 6.03s-2.34 3.68-3.8 5.31-3.09 3.08-4.9 4.29c-.89.6-1.82 1.15-2.77 1.64s-2.54.89-3.22 1.73c-.75.93-.68 2.76.79 3s2.87-.56 4.15-1.21c1.04-.53 2.05-1.13 3.02-1.79 2.07-1.41 3.99-3.06 5.66-4.93s3.1-3.95 4.23-6.19c.55-1.1 1.03-2.23 1.42-3.39.41-1.23.6-2.45.89-3.7.43-1.85-2.39-2.64-2.85-.79"/><path d="M108.65 122.19c.2 4.69.05 9.4-.04 14.09-.07 3.47-.41 6.66-2.07 9.78-1.45 2.73-3.56 5.04-6.35 6.44-3.51 1.77-7.73 1.22-11.5.93-1.22-.1-2.26 1.11-2.26 2.26 0 1.32 1.04 2.14 2.26 2.26 3.61.36 7.42.75 10.96-.29 2.82-.83 5.39-2.51 7.4-4.63s3.64-4.86 4.64-7.72c1.06-3.01 1.16-6.12 1.09-9.27-.1-4.65-.62-9.24-1.14-13.85-.21-1.87-3.08-1.97-3 0Z"/><path d="M118.19 110.22c-.49 2.3-1.88 4.4-3.82 5.73-.39.27-.8.51-1.09.88-.31.39-.44.89-.57 1.37-.59 2.2-1.42 5.79-2.01 7.98-.34-2.29-.54-5.05-2.01-6.96-1.69-2.19-4.65-3.51-7.17-3.78-3.6-.39-7.73.22-11.36.34l.06-3.55c2.71.58 5.62 1.14 8.18.08.22-.09.46-.2.69-.13.26.08.41.35.56.57 1.15 1.66 3.63 1.42 5.6 1l4.64-.99c1.23-.26 2.51-.55 3.49-1.34s1.54-2.25.92-3.34c.6.55 1.2 1.11 1.8 1.66"/><path d="M116.85 109.85a8.64 8.64 0 0 1-2.43 3.8c-1.25 1.16-2.63 1.64-3.31 3.33-1.11 2.74-1.59 5.81-2.33 8.68h3.83c-.34-2.31-.58-4.74-1.81-6.79s-3.23-3.46-5.37-4.35c-4.8-2-10.24-.85-15.27-.66l1.93 1.93.06-3.55-2.45 1.86c1.6.34 3.23.67 4.88.74q1.125.045 2.25-.12c.43-.06.85-.13 1.26-.24.31-.09.69-.34.99-.34l-.98-.27c-.45-.27.48.64.6.75.34.33.76.6 1.19.8.91.44 1.93.6 2.94.6 2.08 0 4.18-.62 6.2-1.04s4.15-.76 5.76-2.15c1.71-1.48 2.16-3.74 1.23-5.76l-3.13 2.42c.6.55 1.2 1.11 1.8 1.66 1.88 1.73 4.71-1.07 2.82-2.82-.6-.55-1.2-1.11-1.8-1.66-1.73-1.6-4.05.4-3.13 2.42.52 1.15-3.53 1.81-4.15 1.95-1.92.42-4.29 1.37-6.29 1.04-.81-.13-.89-.6-1.45-1.13-.98-.92-2.06-.73-3.22-.35-2.21.73-4.52.24-6.74-.23-1.23-.26-2.43.55-2.45 1.86-.02 1.18-.03 2.37-.05 3.55-.02 1.01.9 1.97 1.93 1.93 2.44-.1 4.87-.36 7.31-.45 1.99-.07 4.01-.09 5.91.57 1.57.54 3.18 1.55 4.04 3 1.01 1.71 1.09 3.94 1.36 5.87.28 2.03 3.35 1.74 3.83 0 .4-1.45.75-2.91 1.1-4.37.19-.79.38-1.58.57-2.36.14-.56.18-1.51.47-2 .31-.51 1.02-.83 1.47-1.23.57-.51 1.07-1.09 1.52-1.71.95-1.31 1.54-2.87 1.79-4.46.27-1.73-2.14-2.49-2.68-.74Zm25.76-11.65c5.98 1.88 11.35 5.63 15.19 10.59-4.26-.36-8.58.03-12.71 1.13 3.46 3.5 5.49 8.38 5.52 13.3a30.3 30.3 0 0 0-12.5-4.25c2.21 1.49 3.19 4.34 3.08 7s-1.14 5.19-2.23 7.63a17.03 17.03 0 0 0-8.38-7.92c.89 1.17-.03 2.82-.99 3.93a35.2 35.2 0 0 1-5.75 5.29c.3-2.06-.34-4.24-1.71-5.81 4.26-3.86 7.05-9.3 7.73-15 3.56.19 7.16-.38 10.49-1.66a54.4 54.4 0 0 0-6.59-8.46 19.8 19.8 0 0 0 8.14-4.81"/><path d="M142.17 99.82c5.36 2.16 10.31 5.38 13.88 10l1.75-3.05c-4.45-.38-8.93.06-13.26 1.18-1.52.39-1.96 2.33-.9 3.42 3.09 3.19 4.84 7.41 4.92 11.85l3.08-1.77c-4.16-2.5-8.73-3.97-13.54-4.51-.87-.1-1.74.7-1.96 1.49-.25.92.19 1.77.93 2.3 3.8 2.72 1.6 8.52.17 11.87h3.43c-2.01-3.76-5.2-6.87-9.09-8.64-1.69-.77-3.85.88-2.72 2.72.42.7-1.65 2.56-2.17 3.1-1.19 1.24-2.46 2.4-3.83 3.44l2.92 1.68c.28-2.64-.64-5.13-2.31-7.15v2.68c4.66-4.3 7.49-10.08 8.28-16.35l-1.89 1.89c3.74.17 7.49-.39 11-1.7 1.11-.41 1.87-1.7 1.15-2.83a59.7 59.7 0 0 0-6.87-8.87l-.86 3.26c3.39-1.06 6.44-2.85 9.01-5.31 1.82-1.74-.95-4.5-2.76-2.76a18.4 18.4 0 0 1-7.28 4.31 1.974 1.974 0 0 0-.86 3.26c2.35 2.49 4.45 5.17 6.31 8.05l1.15-2.83a25 25 0 0 1-9.98 1.63c-1.11-.05-1.77.91-1.89 1.89-.67 5.25-3.31 10.09-7.18 13.66-.8.74-.63 1.92 0 2.68 1.06 1.28 1.32 2.86 1.11 4.47-.18 1.41 1.8 2.49 2.92 1.68 2.12-1.54 4.17-3.24 5.91-5.2 1.62-1.83 3.03-4.35 1.56-6.7l-2.72 2.72c3.37 1.49 6.02 3.9 7.67 7.21.63 1.27 2.82 1.33 3.43 0 1.4-3.04 2.77-6.3 2.53-9.73-.21-3.09-1.54-5.84-4.07-7.66l-1.03 3.79c4.07.47 7.96 1.87 11.47 3.98 1.32.79 3.11-.22 3.08-1.77a21.66 21.66 0 0 0-6.11-14.74l-.9 3.42c3.99-1.04 8.06-1.36 12.17-1.07 1.95.14 2.42-2.22 1.43-3.46-4.06-5.11-9.78-9.21-16.17-10.78-2.15-.53-2.85 2.45-.89 3.24Zm2.06-45.66c.63-6.08 1.32-12.37-2.37-17.7-.88-1.27-2.5-1.24-3.39 0-1.58 2.21-4.98 2.37-7.23 1.2-1.14-.6-2.24-1.66-1.63-3.03.65-1.46 2.28-2.4 3.57-3.2 1.58-.98 1.09-3.05-.48-3.67-8.27-3.27-18.14-1.15-24.49 5.01l3.41 1.98c.49-3.44 2.21-6.56 5.1-8.56 1.41-.97 1.3-3.25-.49-3.75-3.23-.9-6.55-.4-9.72.47s-6.1 1.86-8.86 3.39c-5.04 2.8-9.42 7.9-8.65 14 .28 2.18 3.45 2.33 3.52 0 .14-4.72 3.69-8.46 7.65-10.56 2.22-1.17 4.6-1.99 7-2.7 2.61-.77 5.29-1.4 7.98-.65l-.49-3.75c-3.71 2.57-6.34 6.5-6.97 11.01-.26 1.9 1.82 3.53 3.41 1.98 5.39-5.24 13.57-6.74 20.54-4.02l-.48-3.67c-2.19 1.37-4.56 3.22-5.36 5.78-.88 2.78.57 5.38 2.86 6.92 4.14 2.78 10.36 1.98 13.21-2.22h-3.39c3.2 4.41 3.14 10.5 2.81 15.71-.12 1.92 2.76 1.86 2.95 0Z"/><path d="M100.84 42.3c1.73 0 1.73-2.69 0-2.69s-1.73 2.69 0 2.69m-4.13-2.25c1.76 0 1.76-2.73 0-2.73s-1.76 2.73 0 2.73m0 5.12c1.71 0 1.71-2.66 0-2.66s-1.71 2.66 0 2.66m50.04 13.41v-.53l-.15.55c-.22.16-.44.33-.66.5.09-.03.18-.07.27-.11l.22-.17c.11-.1.18-.22.23-.36.07-.13.1-.27.1-.43 0-.15-.03-.3-.1-.43a.77.77 0 0 0-.23-.36.86.86 0 0 0-.36-.23.9.9 0 0 0-.43-.1l-.29.04c-.19.05-.35.15-.49.29l-.17.22c-.1.17-.15.36-.15.56l.04.29c.03.14.1.27.2.38.08.12.18.22.31.29.09.04.18.08.27.11l-.66-.51-.15-.54v.53q0 .225.09.42c.04.14.12.25.23.35.1.11.22.18.35.23q.195.105.42.09l.29-.04c.19-.05.35-.15.48-.28l.17-.22c.1-.17.15-.35.15-.55Z"/><path d="M147.53 58.05c-.65-3.28 2.66-5.53 5.23-6.66s6.37-2.42 9.08-.73c1.91 1.19 2.83 3.55 2.79 5.72-.04 2.82-2.17 4.69-3.3 7.11-1.47 3.15-.82 6.18 1.27 8.85 1.8 2.3 4.3 4.05 4.79 7.13.41 2.61-.84 4.79-3.23 5.8-1.56.66-2.91 1.47-3.52 3.16s-.11 3.3.11 4.99c.37 2.84-3.08 3.76-5.34 4.05-4.02.51-7.67-.39-11.41-1.77-2.29-.84-3.76 2.77-1.65 3.91 3.63 1.96 8.09 2.69 12.19 2.46 3.55-.2 7.45-1.08 9.68-4.1 1.07-1.45 1.4-3.17 1.18-4.95-.11-.87-.37-1.76-.37-2.64 0-.6.11-.45.74-.71 1.91-.8 3.42-1.74 4.65-3.44 1.1-1.51 1.67-3.31 1.81-5.16.31-4.13-2.04-7.51-4.76-10.33-.93-.95-2.27-2.07-2.53-3.45-.28-1.47.83-2.92 1.57-4.09 1.85-2.95 2.79-5.93 2.04-9.41-.65-2.99-2.63-5.8-5.46-7.08-4.26-1.93-9.28-.33-13.17 1.78s-6.75 5.97-5.6 10.43c.54 2.1 3.64 1.2 3.22-.89Z"/><path d="M158.56 56.71c-2.51.4-4.79 1.57-6.57 3.38-1.93 1.95-3.02 4.39-3.33 7.1-.1.91.88 1.79 1.75 1.75 1.01-.05 1.67-.77 1.75-1.75 0-.12 0-.28.04-.4-.13.41 0 .05.01-.07.05-.26.1-.52.17-.78s.14-.51.23-.77c.04-.13.09-.25.14-.38.16-.42-.15.32.03-.09.22-.49.46-.97.73-1.43.14-.23.28-.45.43-.67.08-.11.16-.22.23-.32-.2.28.06-.07.09-.11.34-.41.71-.8 1.1-1.16.2-.18.4-.35.61-.52-.19.15.1-.07.14-.1.11-.08.22-.15.33-.23.95-.62 1.62-.99 2.72-1.26.6-.15.96-.82.8-1.4-.18-.65-.79-.89-1.4-.8Zm-7.85 19.05c-.09-.11 0 0 .03.06.06.1.13.19.19.29.09.16.18.32.26.49.05.1.13.28.04.08.03.08.06.17.1.25.02.05.22.58.1.25.04.11.08.21.12.32.13.37.22.75.31 1.13.05.2.08.41.12.61.05.25-.02-.28 0-.03 0 .12.02.23.03.35.03.39.03.79 0 1.18 0 .09-.02.18-.02.28-.01.26.07-.41 0 .02-.03.18-.06.36-.1.54-.09.41-.21.8-.35 1.19-.07.18-.05.1.02-.03-.04.08-.08.17-.12.25-.1.21-.22.41-.34.61-.47.78-.2 1.94.62 2.37s1.87.21 2.37-.62a9.35 9.35 0 0 0 1.28-5.93c-.13-1.12-.4-2.13-.89-3.15-.44-.91-1.13-1.72-1.86-2.42-.53-.5-1.39-.52-1.91 0-.57.57-.45 1.33 0 1.91"/><path d="M156.11 71.99c-.92.48-1.72 1.24-2.38 2.04-.36.44-.7.89-.99 1.38-.38.63-.82 1.43-.57 2.19.26.82 1.13 1.15 1.88.77.58-.3.82-.96 1.13-1.5.22-.4.48-.78.75-1.14l-.22.28c.58-.75 1.27-1.36 1.97-1.99.48-.43.48-1.22.1-1.7-.41-.52-1.09-.63-1.67-.33m-.33 22.51c.21 0 .4-.04.58-.13.19-.06.35-.16.48-.31.15-.14.25-.3.31-.48.09-.18.14-.37.13-.58l-.05-.4q-.105-.375-.39-.66l-.3-.23c-.23-.14-.49-.2-.76-.2-.21 0-.4.04-.58.13-.19.06-.35.16-.48.31-.15.14-.25.3-.31.48-.09.18-.14.37-.13.58l.05.4q.105.375.39.66l.3.23c.23.14.49.2.76.2m-66.63 5.93c-.09 1.79-.13 3.58-.13 5.37s-.11 3.6.05 5.37c.07.78.62 1.45 1.45 1.45s1.38-.67 1.45-1.45c.16-1.77.05-3.6.05-5.37s-.04-3.58-.13-5.37-2.65-1.76-2.73 0Zm-.63-25.93c-.43 1.46-.29 3.15-.31 4.65s-.06 3.01-.06 4.51c0 3.06-.12 6.15.13 9.2.15 1.83 2.7 1.83 2.84 0 .24-3.05.14-6.14.13-9.2 0-1.5-.04-3.01-.06-4.51s.11-3.2-.31-4.65c-.34-1.16-2.01-1.16-2.35 0Zm1.27 67.04c-3.72-2.79-6.97-6.17-9.42-10.13l-2.47 2.47c2 1.48 3.73 3.38 5.04 5.49 1.22 1.97 2.28 4.02 4.65 4.74.99.3 1.91-.36 2.23-1.27.48-1.35-.08-2.54-.54-3.79s-.86-2.62-1.14-3.97c-.57-2.68-.68-5.43-.45-8.16l-3.6.49c.52 2.79 1.05 5.58 1.57 8.37s1.07 5.39 2.19 7.95c.32.74 1.37 1.05 2.1.85.84-.23 1.29-.97 1.36-1.79.57-6.11 1.41-12.18 2.47-18.22l-3.64-.49c.15 5.71-.24 11.43-1.19 17.06-.35 2.1 2.22 3.31 3.47 1.46 2.76-4.07 5.67-8.03 8.74-11.86l-3.18-1.85a32.6 32.6 0 0 1-6.82 11.4c-1.17 1.27-.04 3.99 1.86 3.2l9.04-3.75-2.17-2.83c-1.28 1.69-3.11 3.03-5.08 3.79-1.04.4-5 1.74-5.3-.08-.35-2.09-3.99-1.62-3.73.5.56 4.49 5.39 4.64 8.89 3.67s6.39-3.09 8.54-5.95c.97-1.28-.66-3.46-2.17-2.83-3.01 1.25-6.03 2.51-9.04 3.76l1.86 3.2c3.48-3.81 6.1-8.23 7.78-13.1.6-1.73-1.99-3.34-3.18-1.85-3.27 4.09-6.39 8.3-9.33 12.64l3.47 1.46c1-5.98 1.41-12.01 1.23-18.07-.06-1.99-3.27-2.64-3.64-.49-1.1 6.37-1.96 12.78-2.62 19.21l3.46-.94c-1.01-2.36-1.4-4.99-1.89-7.5-.51-2.64-1.03-5.29-1.54-7.93-.42-2.15-3.45-1.45-3.6.49-.21 2.65-.06 5.29.39 7.9.21 1.22.5 2.43.87 3.62.2.66.44 1.31.68 1.95.18.47.53 1.01.35 1.49l2.23-1.27c-.8-.26-1.27-1.11-1.68-1.79-.59-.98-1.15-1.97-1.84-2.89-1.5-2.02-3.27-3.71-5.32-5.17-1.49-1.06-3.41 1-2.47 2.47 2.82 4.41 6.5 8.23 11 10.94 1.72 1.04 3.06-1.49 1.54-2.63ZM78.86 69.35c2.96-3.35 7.7-3.6 11.88-3.46 3.75.13 7.58.61 10.52 3.14 1.7 1.46 4.13-.89 2.49-2.49-3.4-3.3-8.46-4.06-13.01-4.09-5.04-.03-10.39.89-13.81 4.95-1.12 1.33.76 3.26 1.93 1.93Zm.75-8.12c2.48-1.83 5.74-2.83 8.8-3.02 1.74-.11 3.51-.01 5.23.25.93.14 1.85.33 2.76.56l1.17.3c.26.07.52.15.77.22.47.21.51.16.11-.15l-.25-.91v.14c.19-.42.36-.84.53-1.26l-.11.09c-1.4 1.21.12 3.29 1.7 2.92l.14-.03c.56-.13 1.14-.67 1.25-1.25.52-2.75-2.8-3.19-4.76-3.65-2.36-.54-4.81-.9-7.23-.82-4.44.14-8.43 1.52-11.76 4.48-1.13 1 .39 3.04 1.64 2.12Zm-.16-8.21a27.1 27.1 0 0 1 11.6-1.92c1.93.11 3.84.44 5.69.98.94.27 1.87.58 2.76.96 1 .42 1.85.99 2.94 1.07 1.54.11 1.94-1.78 1.14-2.76-.7-.86-1.98-1.23-2.97-1.63s-1.95-.72-2.96-.99c-2.15-.57-4.39-.9-6.62-.97-4.41-.15-8.72.78-12.72 2.63-1.47.68-.41 3.26 1.11 2.64Zm8.72-12.98c-.09.16-.15.33-.22.5l.13-.31c-.04.08-.08.15-.12.22-.06.14-.13.28-.18.43-.04.1-.04.22-.05.32-.02.15-.04.29-.03.44.01.17.04.33.07.5 0 .05.02.09.03.14.04.12.11.28.16.39 0 .02.02.04.03.06l.06.09c.12.16.24.34.39.47s.3.26.47.35c.09.05.19.08.28.12.1.04.2.09.3.12.16.04.33.05.49.07h.11c.21 0 .43-.03.63-.09.09-.03.18-.07.27-.11s.18-.07.26-.12c.17-.09.32-.22.46-.35.18-.17.35-.38.46-.61s.22-.48.28-.74c.12-.6.12-1.19 0-1.79-.05-.21-.15-.4-.29-.56-.12-.18-.27-.32-.46-.42l-.39-.17c-.22-.07-.44-.08-.65-.03a.8.8 0 0 0-.41.11c-.2.07-.38.18-.53.34-.28.31-.51.73-.48 1.16.01.16.04.32.06.48l-.06-.44c.04.3.05.6 0 .89l.06-.43c-.02.13-.05.25-.1.37l.16-.39q-.045.105-.12.21l.25-.33c-.04.05-.09.1-.14.14l.32-.25s-.1.07-.16.09l.38-.16c-.06.02-.12.04-.18.05l.42-.06h-.2l.42.06a1 1 0 0 1-.22-.06l.37.16a1 1 0 0 1-.22-.12l.31.24a.8.8 0 0 1-.18-.18l.24.31c-.1-.14-.21-.28-.31-.41l.24.31c-.05-.07-.09-.14-.13-.22l.15.35c-.07-.16-.1-.33-.13-.49l.05.36c0-.07-.02-.14-.01-.2l-.05.35c.01-.07.03-.13.05-.2.05-.17.06-.34.02-.51 0-.17-.06-.33-.15-.48l-.2-.26c-.12-.13-.26-.21-.41-.27a.63.63 0 0 0-.33-.09 1 1 0 0 0-.51.02c-.31.1-.61.29-.77.59Z"/></svg>