<?xml version="1.0" encoding="UTF-8"?><svg xmlns="http://www.w3.org/2000/svg" viewBox="0 0 180 180"><path d="M47.17 72.84c-7.21-7.29-12.96-16.33-16.78-25.83-3.42-8.48-6.38-19.9.79-27.34 6.65-6.91 18.65-9.81 27.26-5.06 4.23 2.33 7.04 6.09 8.19 10.77 1.28 5.19.75 10.77-.63 15.89-1.6 5.96-4.45 11.43-7.8 16.58-1.72 2.64-3.58 5.2-5.52 7.69s-4.14 5.01-5.99 7.67c-1.41 2.03 1.69 4.32 3.37 2.6 2.18-2.23 4.11-4.72 6.04-7.17 1.92-2.43 3.79-4.9 5.54-7.46 3.48-5.09 6.41-10.61 8.3-16.49 3.49-10.86 3.54-24.71-6.35-32.24-9.34-7.12-22.81-5.58-32.02 1.01-4.51 3.23-7.8 7.71-8.81 13.23-1 5.48-.13 11.14 1.53 16.41 3.88 12.35 11.21 23.19 20.6 32 1.49 1.4 3.7-.79 2.25-2.25Z"/><path d="M47.47 23.61c-3.5-.27-7.04 2.12-8.09 5.47-3.26 10.41 15.07 15.07 17.63 4.58.76-3.1-.51-6.58-3.03-8.54s-6.15-2.35-9.06-1.05"/><path d="M47.47 21.96c-5.59-.57-10.59 4-10.59 9.6 0 3.72 2.47 6.94 5.7 8.59 3.15 1.6 7.16 2.16 10.5.81 4.08-1.65 6.43-5.7 5.92-10.11-.38-3.34-2.31-6.49-5.32-8.1-1.49-.8-3.19-1.27-4.88-1.3s-3.7.33-5.01 1.51c-.99.89-.24 2.8 1.12 2.71 1.14-.08 2.21-.46 3.35-.47 1.09 0 2.16.13 3.17.56 1.95.82 3.3 2.53 3.79 4.57.23.95.22 1.91-.04 2.85-.05.17-.1.34-.16.51-.04.11-.08.22-.12.32.01-.03.12-.27.03-.07-.16.35-.35.66-.55.98-.04.07-.09.13-.14.19 0-.01.22-.28.08-.11-.1.12-.19.24-.29.35-.23.27-.48.5-.74.74-.29.28.05-.02-.04.04-.14.1-.28.2-.42.29-.27.17-.55.31-.84.45-.46.23.24-.06-.11.04-.14.04-.28.1-.42.14-.33.11-.67.2-1.01.27-.15.03-.3.05-.44.08-.4.08.37-.02-.04 0-.36.02-.71.05-1.07.05-.33 0-.67-.02-1-.04-.08 0-.57-.07-.26-.02s-.32-.06-.41-.07c-.66-.13-1.29-.33-1.93-.55-.4-.14.04.03-.06-.02-.16-.08-.32-.15-.48-.23-.29-.15-.58-.31-.86-.48-.15-.09-.29-.19-.44-.29-.19-.13-.32-.25-.05-.02a8 8 0 0 1-.77-.69c-.21-.21-.39-.43-.58-.65.36.42.02.02-.06-.09-.09-.14-.18-.28-.27-.43s-.16-.3-.24-.45c-.2-.37.02.09-.02-.02-.11-.32-.22-.64-.3-.98-.05-.23-.08-.53-.04-.1-.02-.18-.03-.36-.04-.53-.02-.4 0-.79.03-1.19-.04.47.02-.09.06-.28q.06-.3.15-.6c.16-.54.33-.9.64-1.4 1.14-1.81 3.24-3.1 5.46-3.06.89.02 1.65-.77 1.65-1.65 0-.97-.76-1.56-1.65-1.65ZM153.5 125.64c-.18-3.63-.98-7.29-2.81-10.43-2.91-4.99-8.31-8.28-14.01-9.2s-11.62.38-16.75 3.04c-3.5 1.82-6.73 4.33-8.81 7.68-4.26 6.87-2.92 15.8-.22 23.42a77.05 77.05 0 0 0 18.97 29.52l2.51.32c5.34-6.47 10.72-12.99 14.78-20.33s6.77-15.65 6.34-24.03Zm-12.65 3.74c-2.56 10.49-20.89 5.83-17.63-4.58.92-2.95 3.76-5.15 6.81-5.45 2.65-.71 5.62-.19 7.78 1.49 2.52 1.96 3.79 5.44 3.03 8.54Z"/><path d="M155.5 125.64c-.35-6.08-2.29-12.03-6.96-16.16-4.24-3.75-9.75-5.72-15.38-5.77-11.62-.1-24.61 7.31-26.45 19.52-.87 5.75.26 11.63 2.14 17.06a78.3 78.3 0 0 0 7.89 16.36c3.18 5 6.91 9.67 11.12 13.84.84.84 1.47 1.1 2.6 1.25.62.08 1.3.25 1.93.25 1.54-.01 2.73-2.18 3.6-3.24 1.07-1.3 2.12-2.61 3.17-3.92 8.88-11.23 17.01-24.32 16.35-39.2-.11-2.56-4.11-2.58-4 0 .75 16.85-10.41 30.69-20.53 42.95l1.41-.59c-.84-.11-1.67-.22-2.51-.32l1.41.59a75.7 75.7 0 0 1-13.36-17.42c-3.45-6.18-6.5-13.15-7.33-20.25-.4-3.4-.26-6.87.91-10.11 1.15-3.19 3.48-5.84 6.23-7.76 5.96-4.18 13.87-6.28 20.99-4.2 3.41 1 6.52 2.94 8.82 5.66 2.69 3.18 3.72 7.39 3.96 11.46.15 2.56 4.15 2.58 4 0Z"/><path d="M138.92 128.85c-.09.34-.2.67-.31 1-.12.36.11-.2-.06.13-.08.17-.17.34-.26.5-.08.14-.16.27-.25.4-.07.1-.4.51-.09.15-.21.25-.43.49-.66.71-.11.1-.22.19-.33.29-.08.07.26-.17-.06.04-.27.17-.53.35-.82.49-.13.07-.26.13-.4.19.3-.15.13-.05-.07.02-.3.11-.61.21-.92.28s-.63.14-.96.19c.35-.05.14-.02-.07 0-.18.01-.35.03-.53.03-.31.01-.61 0-.92 0-.15 0-.31-.02-.46-.03-.18-.02-.57-.08-.16 0-.64-.1-1.26-.24-1.88-.44-.15-.05-.29-.1-.44-.15-.17-.06-.53-.22-.16-.05-.3-.13-.6-.28-.89-.43-.27-.14-.52-.3-.78-.47-.12-.08-.24-.17-.37-.26-.18-.13.1.08.11.09a9 9 0 0 1-.87-.79c-.1-.1-.2-.21-.3-.32-.05-.05-.09-.11-.14-.17-.18-.2.2.29.05.06-.18-.26-.35-.51-.51-.79-.07-.13-.13-.26-.2-.38-.16-.28.09.31-.05-.12-.09-.28-.18-.56-.25-.84-.02-.07-.1-.53-.06-.25s-.02-.25-.02-.34c-.02-.32 0-.63.01-.95.01-.18.08-.47 0-.12.04-.2.07-.39.12-.59.21-.87.54-1.63 1.1-2.32 1.32-1.62 3.03-2.03 4.89-2.43 2.18-.48 4.63.16 6.21 1.76 1.54 1.56 2.21 3.87 1.75 5.91-.24 1.05.32 2.16 1.4 2.46 1.01.28 2.22-.34 2.46-1.4 1.33-5.91-2.66-11.86-8.68-12.73-1.48-.21-2.92-.08-4.31.19s-2.76.58-4.04 1.34c-2.29 1.36-4.04 3.62-4.64 6.23-.8 3.54.42 7.13 3.25 9.41 2.66 2.13 6.21 3.25 9.61 2.87 4.24-.48 7.73-3.08 8.81-7.32.63-2.5-3.22-3.56-3.86-1.06ZM92.5 45.41c6.18-1.16 12.43-1.64 18.72-1.75 6.02-.1 12.07.33 17.97 1.59s11.44 3.23 16.5 6.28c2.22 1.34 4.4 2.99 5.73 5.26 1.17 2 1.46 4.34 1.04 6.22-.95 4.24-4.55 7.77-8.18 10.32-4.58 3.21-9.74 5.52-15.13 6.98-6.07 1.64-12.51 2.46-18.8 2.26-2.54-.08-5.74-.58-6.98-3.14-1.17-2.43 1.19-4.38 3.13-5.38 4.75-2.46 11.38-2.63 15.97.28 1.9 1.21 3.44 3.16 3.55 5.48.12 2.49-1.15 4.81-2.87 6.53-3.64 3.62-9.59 4.86-14.51 5.35-5.66.56-11.36.23-17.02-.12-12.84-.79-25.98-.55-38.64 1.97-11.37 2.26-23.8 8.83-26.42 21.19s6.02 22.19 16.43 26.44c12.75 5.2 26.89 2.34 40.18 1.91 3.42-.11 6.84-.18 10.25.17 2.57.26 3.16-4.06.61-4.53-3.75-.69-7.54-1.08-11.35-1.03-3.77.05-7.53.39-11.29.66-6.83.49-13.84.91-20.59-.5-5.82-1.22-11.14-3.81-15.03-8.39-3.35-3.94-4.95-9.14-3.59-14.13 3.36-12.32 17.46-16.08 28.55-17.43 7.23-.88 14.54-1.42 21.83-1.38 5.93.03 11.86.49 17.79.46 5.96-.03 12.18-.48 17.79-2.66 5.39-2.09 10.71-5.88 11.73-12 1-6.01-3.01-10.7-8.41-12.7-5.58-2.07-13.18-1.46-18.16 1.9-2.38 1.61-4.37 4.15-4.09 7.19s2.57 5.65 5.39 6.86c3.12 1.34 6.7 1.29 10.04 1.23 3.39-.06 6.78-.37 10.13-.88 6.44-.98 12.85-2.78 18.66-5.76 4.75-2.44 9.35-5.96 12.25-10.5 3.15-4.94 3.55-11.37.12-16.3-3.69-5.31-10.05-8.26-15.96-10.39-12.39-4.48-25.89-4.54-38.77-2.56-3.17.49-6.32 1.09-9.47 1.71-2.15.42-1.24 3.69.91 3.28Z"/><path d="M83.97 138.2a98.5 98.5 0 0 1-8.69-13.77c10.85 3.91 15.35 7.33 22.07 16.46a352 352 0 0 1-20.48 15.13c.86-4.96 2.22-9.86 4.33-14.43"/><path d="M85.34 137.4c-1.38-2.33-2.97-4.53-4.38-6.85s-2.74-4.69-3.98-7.11c-.74.96-1.48 1.93-2.22 2.89 4.19 1.56 8.37 3.33 11.97 6.03 3.49 2.61 6.3 6.07 8.87 9.56.11-.82.21-1.65.32-2.47-6.51 5.16-13.23 10.07-20.08 14.78 1.02.78 2.04 1.57 3.05 2.35.43-2.48.95-4.95 1.64-7.38s1.67-4.73 2.5-7.11c.71-2.04-2.4-3.28-3.44-1.45-2.53 4.42-3.83 9.85-4.71 14.83-.28 1.61 1.42 3.47 3.05 2.35 7.15-4.9 14.09-10.08 20.87-15.49.64-.51.81-1.81.32-2.47-2.96-4-6.12-7.82-10.12-10.82-3.96-2.97-8.56-4.88-13.19-6.51-1.71-.6-2.98 1.48-2.22 2.89 2.58 4.84 5.49 9.88 9.27 13.9 1.24 1.32 3.4-.38 2.49-1.92Zm11.29-95.78c-2.81-6.2-12.35-5.71-14.54.71-.78 2.3-.31 5.13 1.6 6.63.62.48 1.34.81 2.09 1.04 2.6.83 5.6.59 7.86-.95 2.26-1.53 3.62-4.42 3.05-7.09"/><path d="M98.03 40.81c-2.53-5.92-10.54-7.04-15.18-2.98-2.58 2.26-3.78 6.24-2.54 9.5.82 2.16 2.38 3.57 4.53 4.37 2.03.76 4.32.85 6.43.38 4.76-1.06 8.06-5.7 7.03-10.55-.19-.88-1.21-1.38-2.04-1.16-.93.26-1.31 1.15-1.16 2.04.46 2.6-1.64 5.12-4.04 5.86-1.43.44-2.89.43-4.32.04-.7-.19-1.3-.39-1.89-.85-.39-.3-.68-.69-.94-1.33.1.26-.03-.14-.05-.2-.05-.16-.09-.32-.13-.49-.1-.45-.06-.24-.08-.7-.01-.34 0-.69.04-1.02-.04.3.04-.13.05-.2.05-.23.12-.46.19-.68 0 .01.19-.51.08-.25s.11-.23.11-.22c.12-.24.25-.48.4-.7.07-.11.15-.22.22-.33.18-.25-.3.32.04-.04.21-.23.41-.46.64-.67.08-.07.16-.13.23-.2.37-.33-.32.2.1-.07.21-.14.42-.28.64-.41s.45-.24.67-.35c.32-.15.03 0-.03.01.19-.07.38-.14.57-.2.24-.07.49-.14.73-.19l.3-.06c.49-.11-.4.02.1-.02.56-.04 1.11-.06 1.67 0 .1 0 .2.02.3.03.38.04-.3-.08.18.04.27.06.54.12.81.2.15.04.29.09.43.14.05.02.5.22.13.05.28.13.55.27.81.43.13.08.26.16.38.25.3.2-.17-.16.14.1.24.2.47.42.68.65.36.39.6.75.94 1.42.4.78 1.49 1 2.21.58.83-.49.93-1.41.58-2.21Z"/></svg>