<?xml version="1.0" encoding="UTF-8"?><svg xmlns="http://www.w3.org/2000/svg" viewBox="0 0 180 180"><path d="M107.64 25.17c-5.33-1.37-10.8-2.17-16.28-2.69-6.38-.61-12.86-.78-19.25-.24-11.38.98-24.84 3.87-31.71 13.95-4.84 7.11-5.89 16.13-7.99 24.27-1.12 4.36-2.09 8.94-1.11 13.43.84 3.83 3.34 7.02 6.63 9.07 6.66 4.13 15.41 3.92 22.95 3.7 9.57-.28 19.24-1.64 28.24-5 7.59-2.83 14.74-7.08 20.52-12.8 6.06-5.99 10.86-13.91 12.41-22.37.42-2.31.64-4.68.61-7.03-.01-1.04-.88-1.93-1.93-1.93-1.15 0-1.79.89-1.93 1.93-1.06 8.12-3.88 16-9.14 22.35-4.74 5.72-10.83 10.15-17.53 13.33-7.73 3.67-16.29 5.54-24.78 6.28-4.46.39-8.94.5-13.41.4-3.24-.07-6.48-.38-9.59-1.31-2.68-.81-5.42-2.19-7-4.6-2.15-3.29-1.79-7.34-1.01-11.02.84-3.98 1.88-7.94 2.82-11.9.91-3.88 1.92-7.82 3.69-11.4 2.37-4.79 5.83-7.82 10.74-10.2 4.82-2.33 10.56-3.67 16.02-4.43 11.15-1.55 22.82-1.27 33.89.72 1.09.2 2.19.42 3.27.66 2.05.46 2.93-2.64.87-3.16Z"/><path d="M112.64 28.22c8.71.35 19.24.69 23.43 9.84 1.82 3.97 1.99 8.58 1.86 12.88-.17 5.37-.86 10.73-1.34 16.08-.31 3.44-.64 6.87-.93 10.31-.14 1.64-.27 3.27-.36 4.91-.1 1.82-.05 3.59-.02 5.4.03 1.92 3.06 2.48 3.47.47.65-3.25 1.12-6.49 1.47-9.8s.61-6.38.91-9.58c.55-5.85 1.27-11.73 1.45-17.6.15-4.99-.26-10.08-2.32-14.69-2.09-4.69-5.97-8.01-10.76-9.75-5.31-1.92-11.32-1.92-16.85-1.23-1.71.22-1.82 2.68 0 2.75ZM61.92 51.18c-2.42 1.01-4.65 2.4-6.81 3.89-1.16.8-2.29 1.64-3.4 2.5-.96.75-2.24 1.52-2.96 2.52-.97 1.36-.4 2.65.63 3.75 1 1.07 2.05 2.09 3.08 3.13 2.11 2.13 4.23 4.27 6.35 6.39.88.88 2.1.72 3 0 3.88-3.09 7.76-6.18 11.63-9.27.85-.68 1.74-1.26 1.99-2.38.3-1.33-.57-2.26-1.47-3.09-1.85-1.68-3.75-3.33-5.65-4.95-1.77-1.51-4.24.87-2.59 2.59 2 2.08 4.14 4.03 6.11 6.13l-.54-.92.1.24V60.6l.15-.31-.53.42-.71.56-1.59 1.26c-1.12.89-2.24 1.77-3.36 2.66-2.18 1.73-4.36 3.45-6.54 5.18h3c-3.31-3.33-6.83-6.52-10-9.98l.53.91-.09-.24v1.09l.09-.28-.53.9c3.21-3.53 7.53-5.93 11.29-8.78.62-.47.95-1.16.63-1.92-.27-.63-1.11-1.19-1.82-.89Zm23.01 40.2c-12.98-1.78-26.03-3.26-39.15-3.22-5.63.02-11.99.42-16.72 3.83-4.88 3.51-5.91 9.1-5.85 14.77.03 3.13.17 6.12 2.22 8.65 1.75 2.16 4.35 3.55 6.91 4.54 5.38 2.08 11.52 2.16 17.2 1.67 6.08-.52 12.08-1.89 17.74-4.16 5.8-2.32 11.02-5.57 16.21-9 2.53-1.67 5.04-3.46 7.79-4.77 2.28-1.09 4.92-1.72 7.34-.69 4.79 2.04 6.22 7.78 6.32 12.46.14 6.43-.65 12.95-1.07 19.36-.22 3.29-.43 6.58-.65 9.88-.19 2.83-.28 5.7-.78 8.49-.46 2.52-1.21 5.07-2.8 7.13-1.46 1.89-3.5 3.23-5.65 4.19-4.87 2.18-10.53 2.61-15.78 2.87-6.43.31-12.87.03-19.29-.23-6.62-.27-13.23-.55-19.85-.82-3.31-.14-6.62-.28-9.92-.43-2.25-.1-4.51-.25-6.69-.82-1.85-.48-3.71-1.28-4.88-2.86-1.5-2.01-1.6-4.75-1.63-7.16-.14-10.79 3.13-21.37 8.98-30.4 1.46-2.26 3.1-4.39 4.87-6.42 2-2.27-1.24-5.58-3.35-3.35-7.8 8.29-12.99 18.99-14.81 30.22-.47 2.88-.76 5.78-.8 8.7-.04 2.75.03 5.65.96 8.27 1.88 5.3 6.76 7.82 12.06 8.56 2.75.39 5.51.44 8.28.53 3.39.11 6.78.23 10.17.35 6.68.24 13.36.49 20.05.72s13.36.35 20-.31c5.38-.53 10.95-1.41 15.71-4.15 5.02-2.89 7.93-7.71 8.92-13.35 1.1-6.26 1.1-12.79 1.49-19.12.2-3.29.41-6.58.61-9.88.19-3.16.49-6.34.42-9.52-.13-5.75-1.78-11.65-6.53-15.27-4.97-3.79-10.99-2.43-16.04.45-5.43 3.09-10.45 6.86-16 9.76-5.46 2.85-11.39 4.77-17.46 5.76-5.58.91-11.79 1.25-17.31-.23-2.48-.67-5.31-1.82-6.99-3.86-1.61-1.96-1.19-5.26-1.13-7.64.07-2.52.39-5.26 1.98-7.33 1.48-1.92 3.79-2.96 6.05-3.64 5.9-1.76 12.4-1.31 18.49-1.23 6.74.08 13.45.49 20.17.95 3.28.22 6.54.58 9.79 1.01 1.85.25 2.31-3.03.44-3.28Z"/><path d="M27.29 117.9c4.59 2.72 9.48 5.24 14.79 5.74 7.56.71 14.82-2.76 21.58-6.24 9.32-4.79 18.54-9.77 27.66-14.92.62-.35 1.45-.69 2-.23.39.33.42.92.42 1.43-.09 12.22-1.53 24.39-2.96 36.53-.51 4.29-1.01 8.57-1.52 12.86-.62 5.25-1.78 11.32-6.48 13.75-2.12 1.09-4.59 1.2-6.97 1.29-17.34.63-34.85 1.25-51.88-2.07-2.12-.41-4.31-.93-5.97-2.31-3.36-2.82-3.24-7.97-2.5-12.29a86.4 86.4 0 0 1 12.3-31.82"/><path d="M26.47 119.31c3.31 2.15 6.77 4.12 10.54 5.33 3.9 1.25 7.89 1.44 11.91.76 8.2-1.4 15.75-6.05 23.01-9.88 3.84-2.03 7.62-4.14 11.43-6.22 1.87-1.02 3.73-2.05 5.59-3.08l2.79-1.56c.17-.1.52-.22.64-.36l.33-.17-1.09-.76c-.13.09 0 1.36-.01 1.55-.14 8.76-.93 17.48-1.91 26.18-.5 4.44-1.03 8.88-1.56 13.31-.45 3.83-.75 7.71-1.45 11.51-.5 2.7-1.23 5.71-3.22 7.73-2.48 2.53-6.34 2.26-9.61 2.37-8.6.28-17.21.52-25.81.28-8.4-.24-17.15-.71-25.33-2.78-1.48-.37-3-.91-4-2.13-.87-1.05-1.27-2.46-1.42-3.79-.38-3.38.42-6.86 1.16-10.13 1.72-7.62 4.5-14.99 8.26-21.85q1.38-2.505 2.91-4.92c1.5-2.37-2.26-4.55-3.75-2.19-4.5 7.09-8 14.84-10.34 22.91-1.12 3.85-2.05 7.81-2.52 11.8-.4 3.39-.24 7.3 1.77 10.21 2.45 3.53 6.48 4.38 10.46 5.09 4.49.8 9.03 1.36 13.58 1.73 9.22.74 18.48.66 27.72.36 4.36-.14 8.87-.03 13.19-.66 3.69-.54 6.75-2.52 8.64-5.75 1.73-2.96 2.38-6.41 2.83-9.76.59-4.4 1.05-8.82 1.57-13.23 1.1-9.35 2.22-18.71 2.75-28.11q.195-3.465.27-6.93c.04-1.89.45-4.53-1.43-5.73-2.06-1.31-4.26.31-6.05 1.32-2 1.13-4 2.24-6 3.35-7.97 4.4-16.04 8.82-24.29 12.68-3.8 1.78-7.91 3.4-12.13 3.76-4.27.37-8.28-.59-12.18-2.27-1.92-.82-3.77-1.79-5.61-2.78s-3.41 1.68-1.65 2.82ZM92.61 23.1c-.19-1.84-.03-3.71.26-5.53.15-.93.34-1.85.58-2.76.11-.4.17-1.12.47-1.4.33-.3 1.35-.36 1.8-.46.86-.18 1.74-.33 2.61-.44 1.81-.21 3.65-.29 5.47-.21 1.66.08 3.38.25 5.01.63.38.09.9.2 1.05.42.25.38.12 1.13.13 1.55.03 3.86 0 7.73.49 11.56.31 2.48 3.61 2.52 3.89 0 .4-3.63.34-7.28.31-10.93-.01-1.65 0-3.38-.95-4.81-.9-1.35-2.41-2.05-3.96-2.36-3.4-.68-6.98-.75-10.42-.42-1.81.17-3.62.45-5.39.87-1.56.37-3.12 1.05-3.88 2.56-.85 1.68-.96 3.81-1.08 5.66-.12 2.04.16 4.04.4 6.06.11.86.66 1.6 1.6 1.6.8 0 1.69-.74 1.6-1.6Zm-50.84 82.51c-.14 1.5 1.29 2.6 2.62 2.83.62.11 1.28.18 1.91.13.38-.03.78-.07 1.15-.2.55-.19.94-.41 1.37-.79.65-.57 1.01-1.44 1.06-2.29.06-1.04-.52-1.99-1.36-2.55-.74-.49-1.65-.51-2.49-.35-.35.07-.67.21-.99.36-.22.1-.44.21-.65.35-.46.3-.9.63-1.19 1.11-.6 1.02-.3 2.41.74 3.01.5.29 1.08.33 1.64.19.7-.17 1.2-.76 1.4-1.42s-.03-1.38-.49-1.89c-.21-.23-.53-.41-.83-.49-.42-.12-.58-.06-1.01 0l-.43.18c-.21.11-.38.27-.51.47-.11.11-.19.25-.23.4-.11.22-.17.45-.16.7v.02c.08-.31.16-.62.25-.93.22-.21.44-.43.67-.65h-.02c.32-.08.63-.16.95-.25h-.02c.17.02.34.05.51.07h-.02c.15.06.31.13.46.19-.37-.17-.66-.28-1.07-.28l.53.07h-.03c.16.06.32.13.48.19l-.03-.02.4.31-.02-.02.51.88v-.03c.01.18.04.36.06.53v-.06c-.03.18-.05.36-.07.54 0-.04.02-.07.03-.1l-.2.48.03-.05-.32.41c.05-.07.11-.12.18-.17l-.41.32c.29-.22.6-.4.94-.55l-.49.2c.23-.09.47-.18.72-.21l-.53.07c.12-.01.24-.02.36 0l-.53-.07q.12.015.24.06l-.48-.2c.08.03.15.07.22.12l-.4-.31c.06.05.1.09.15.15l-.31-.4c.06.08.1.15.14.24l-.2-.47c.03.07.04.14.06.21l-.07-.52c.01.09.01.18 0 .28l.07-.52c-.02.13-.05.26-.11.38l.2-.46q-.075.165-.18.3l.3-.39c-.09.11-.18.2-.29.29l.39-.3c-.13.1-.27.17-.42.23l.45-.19c-.23.09-.47.14-.72.18l.5-.07c-.48.06-.97.07-1.45 0l.48.06c-.28-.04-.57-.11-.83-.23l.42.18c-.09-.04-.17-.09-.25-.14l.35.27c-.06-.05-.12-.1-.17-.16l.26.34c-.05-.06-.08-.13-.12-.2l.17.39c-.02-.06-.04-.12-.05-.19-.06-.36-.43-.8-.75-.97s-.67-.24-1.04-.19c-.34.05-.69.19-.93.45-.31.33-.44.7-.48 1.15Zm68.92-14.24c6.18-1.11 12.55-1.32 18.81-1.48 3.04-.08 6.17-.15 9.18.38 2.2.39 4.49 1.07 6.07 2.74 1.54 1.63 1.98 4.06 2.18 6.21.11 1.19.2 2.37.24 3.56 0 .1 0 .3-.06.39-.11.16.2-.21 0-.08-.5.32-1.64.28-2.25.36-6.16.85-12.44 1.2-18.66 1.1-2.83-.05-5.34-.53-7.34-2.67-1.81-1.94-2.56-4.39-3.97-6.57-1.02-1.59-3.22-.52-2.93 1.23.22 1.32.76 2.52 1.27 3.75.57 1.37 1.16 2.71 2.04 3.92 1.91 2.64 4.43 4.23 7.68 4.69 3.59.51 7.34.27 10.95.1s7.4-.51 11.09-.98c1.61-.2 3.45-.22 4.84-1.14 1.5-.99 1.99-2.74 2.04-4.45.1-2.92-.23-6.18-1.31-8.91-2.6-6.51-9.45-8.26-15.86-8.38-8.42-.16-16.71 1.39-24.96 2.87-2.2.4-1.27 3.75.93 3.36Z"/><path d="M144.72 107.99c3.54 1.89 5.33 5.41 6.42 9.13 1.47 5.03 2.15 10.27 3.01 15.42.89 5.33 1.79 10.66 2.74 15.98.38 2.16 1.17 4.66.8 6.87-.3 1.83-1.77 2.88-3.33 3.64-4.33 2.1-9.68 2.24-14.39 2.59-5.17.39-10.49.94-15.68.72-10.53-.44-12.23-12.58-13.23-20.82-.71-5.91-.92-11.88-.62-17.82.11-2.21.38-4.31.82-6.47.39-1.89 1.23-3.73 2.96-4.71 2.03-1.14.24-4.15-1.81-3.1-4.14 2.12-5.68 6.65-6.15 10.99-.62 5.7-.48 11.56 0 17.27.47 5.68 1.12 11.68 3.02 17.09 1.62 4.63 4.55 9.37 9.26 11.35 2.71 1.14 5.66 1.24 8.56 1.15 3-.1 5.99-.25 8.98-.45 5.77-.37 11.82-.55 17.39-2.26 2.41-.74 4.91-1.81 6.67-3.68 1.84-1.95 2.6-4.51 2.43-7.16-.18-2.9-.9-5.8-1.42-8.65-.54-2.98-1.1-5.95-1.68-8.92-1.23-6.39-2.12-13-4.07-19.23-1.53-4.89-4.18-10.28-9.41-11.96-1.78-.57-2.93 2.14-1.28 3.03Z"/><path d="M97.16 166.41c5.95-.36 11.85-1.43 17.55-3.18.25-.08.53-.17.67-.39.28-.44-.12-.99-.48-1.37-3.55-3.71-5.68-8.74-5.87-13.87-1.4 4.37-3.33 8.56-5.25 12.73-.94 2.03-2.09 4.27-4.23 4.95"/><path d="M97.16 168.04c3.5-.06 7.02-.26 10.48-.87 1.64-.29 3.28-.66 4.89-1.06s4.01-.7 4.84-2.42c.93-1.93-.62-3.33-1.75-4.67-.87-1.03-1.61-2.18-2.25-3.36-1.33-2.47-2.12-5.24-2.25-8.04-.11-2.35-3.36-2.82-4.09-.55-1.06 3.31-2.41 6.51-3.84 9.68-.65 1.44-1.24 2.92-1.95 4.34-.49.97-1.08 2.08-2.16 2.48-.92.34-1.54 1.22-1.27 2.23.25.91 1.3 1.58 2.23 1.27 3.42-1.15 5-4.54 6.4-7.59 1.7-3.69 3.34-7.42 4.6-11.29-1.36-.18-2.73-.37-4.09-.55.12 2.97.75 5.84 1.91 8.58.56 1.31 1.22 2.58 2.02 3.77.45.66.94 1.3 1.45 1.92.2.24.4.47.6.7l.42.45c.1-.23.08-.49-.08-.76l.56-.96c.41-.2.39-.22-.05-.06l-.34.1-1.2.36q-1.035.3-2.07.57c-1.44.37-2.9.67-4.35 1.01-2.85.67-5.76 1.19-8.67 1.51-.87.1-1.62.68-1.62 1.62 0 .87.74 1.64 1.62 1.62Zm17.02-107.53c-7.87 11.74-18.1 22.01-30.34 29.08-1.6.92-2.56 1.02-4.38 1.3-1.72.27-1.75.25-3.48 0-11.32-1.64-25.24-1.38-36.68-1.66-.07-2.1-.06-4.19.05-6.29 19.17 5.57 40.38 3.78 58.36-4.9"/><path d="M112.87 59.74c-6.56 8.94-14.43 17.28-23.47 23.74-3.75 2.67-7.96 6.04-12.86 5.35-5.74-.81-11.51-1.19-17.3-1.38-6.65-.22-13.3-.22-19.94-.37l2.15 2.15c-.07-2.1-.06-4.19.04-6.29L38.78 85c15.43 4.41 31.97 4.29 47.35-.29 4.33-1.29 8.54-2.95 12.6-4.94 2.34-1.15.29-4.57-2.03-3.48-13.73 6.45-29.11 8.89-44.17 7.15-4.26-.49-8.48-1.38-12.6-2.57-1.39-.4-2.64.7-2.71 2.06-.1 2.1-.12 4.19-.06 6.29.04 1.18.95 2.12 2.15 2.15 12.02.27 24.17-.12 36.11 1.56 2.45.34 4.97.24 7.35-.55 2.66-.88 5.13-2.72 7.42-4.29 4.83-3.32 9.32-7.1 13.39-11.31 4.56-4.71 8.48-9.93 11.91-15.51 1.04-1.7-1.49-3.07-2.62-1.53m.83-33.95c.2-1.19 1.65-1.77 2.85-1.76 13.03.12 32.76 5.75 39.2 17.34 9.02 16.21 13.6 45.47 9.2 68.38a35.7 35.7 0 0 1-8.27 16.84c-.21-6.81-2.82-13.53-7.28-18.69a35.4 35.4 0 0 0 4.19-15.86c.07-2.97-.23-5.94-.54-8.89-1.15-11.18-2.32-22.44-5.64-33.17-.76-2.46-1.81-5.11-4.09-6.33-.51-.27-1.08-.47-1.45-.92-.49-.58-.48-1.42-.54-2.17-.31-4.56-3.41-8.57-7.22-11.09-3.81-2.53-8.29-3.8-12.71-5"/><path d="M115.31 26.23c.27-.88 3.75-.24 4.47-.19 1.84.15 3.67.39 5.49.71 3.97.7 7.9 1.74 11.68 3.15 6.72 2.49 13.68 6.42 17.21 12.91 4 7.34 6.35 15.58 7.98 23.74 1.86 9.31 2.63 18.87 2.29 28.36-.19 5.18-.64 10.44-1.81 15.5-1.25 5.41-3.81 10.47-7.47 14.65l3.68 1.52c-.27-7.31-3.33-14.54-8.04-20.08.1.79.21 1.59.31 2.38 3.27-6.2 4.75-13.08 4.4-20.07-.37-7.26-1.34-14.59-2.4-21.77-.51-3.44-1.11-6.87-1.87-10.26-.74-3.33-1.52-6.77-2.87-9.92-.55-1.28-1.24-2.51-2.22-3.52-.45-.46-.97-.88-1.51-1.22s-1.13-.47-1.27-.8c-.27-.64-.13-1.73-.26-2.43-.11-.62-.26-1.23-.46-1.82-.5-1.48-1.21-2.88-2.11-4.15-4.39-6.14-11.62-8.51-18.6-10.41-2.51-.68-3.58 3.21-1.07 3.89 5.72 1.54 11.91 3.27 15.84 8.03 1.69 2.05 2.43 4.29 2.71 6.89.16 1.48.68 2.72 1.99 3.55 1.12.71 2.03 1.12 2.75 2.3 1.49 2.46 2.09 5.58 2.78 8.34.84 3.37 1.51 6.79 2.05 10.22 1.05 6.58 1.74 13.24 2.35 19.87.35 3.75.49 7.52-.18 11.24-.63 3.52-1.78 6.9-3.45 10.05-.44.83-.28 1.69.31 2.38 4.19 4.93 6.27 10.88 6.51 17.3.07 1.74 2.39 3.01 3.68 1.52 3.63-4.17 6.38-9.02 7.96-14.32 1.47-4.91 2-10.19 2.35-15.28.7-10.33-.04-20.77-1.89-30.95-1.64-9-4.2-18.05-8.49-26.17-4-7.58-11.5-12.11-19.3-15.06-4.51-1.7-9.22-2.86-13.99-3.53-2.27-.32-4.56-.59-6.85-.62s-5.31.42-5.91 3.16c-.46 2.1 2.59 2.96 3.22.89Zm10.53 79.76c-3.8.08-6.53 3.18-7.6 6.6-1.21 3.86-.94 8.32-.84 12.31.2 8.77 1.42 17.57 3.49 26.08q.855 3.54 1.92 7.02c.74 2.43 1.71 4.7 2.68 7.04.8 1.93 3.93 1.22 3.24-.89-.61-1.86-1.05-3.76-1.65-5.62-.62-1.94-1.19-3.89-1.71-5.86-1.01-3.78-1.83-7.62-2.49-11.47-1.31-7.7-1.95-15.64-1.72-23.46.1-3.58 1.03-7.88 5.08-8.75 1.68-.36 1.3-3.03-.4-2.99Zm7.96 1.05c2.32 9.27 4.34 18.67 6.01 28.09.83 4.67 1.55 9.37 2.16 14.08.31 2.39.59 4.79.85 7.19.12 1.12.23 2.24.34 3.36.12 1.24.07 2.62.51 3.8.51 1.36 2.8 1.72 3.13 0 .44-2.26-.17-4.88-.41-7.16a298 298 0 0 0-3.08-21.73c-1.73-9.61-4.02-19.02-6.9-28.34-.51-1.66-3.03-.98-2.61.72Z"/></svg>