<?xml version="1.0" encoding="UTF-8"?><svg xmlns="http://www.w3.org/2000/svg" viewBox="0 0 180 180"><path d="M53.67 121.77c10.23-7.49 20.17-15.3 29.82-23.53s19.18-16.58 28.73-24.92c5.43-4.75 10.87-9.49 16.34-14.19 2.26-1.95-1.03-5.21-3.27-3.27-19.13 16.51-38.1 33.18-57.28 49.63-5.4 4.63-10.73 9.35-16.17 13.93-1.29 1.08.44 3.37 1.82 2.36Z"/><path d="M129.2 56.76c-.05-3.01-.29-6.02-.31-9.03 0-1.29.98-1.89 1.85-2.75 1.17-1.15 2.33-2.3 3.5-3.45 2.22-2.19 4.43-4.38 6.65-6.56 1.05-1.04 2.1-2.07 3.15-3.11 1.02-1 2-2.22 3.15-3.06.2-.14.66-.24.37-.29.45.08 1.16.93 1.46 1.2 1.13.98 2.25 1.97 3.36 2.99 2.21 2.03 4.35 4.12 6.42 6.28.16.17 1.14 1.48 1.4 1.48l.05-.88-.04.05c-.13 0-.57.51-.7.61-1.21 1.01-2.42 2-3.64 2.99-2.43 1.99-4.86 3.98-7.3 5.95s-4.79 3.94-7.66 5.3-5.55 1.54-8.56 1.22c-1.95-.2-2.2 2.78-.45 3.31 3.14.97 6.45.75 9.61.02 3.35-.78 6-3.05 8.62-5.16 2.89-2.34 5.78-4.68 8.66-7.04 1.4-1.15 2.84-2.28 4.21-3.46s2.17-2.77 1.53-4.58c-.54-1.52-2-2.7-3.09-3.82-1.26-1.3-2.55-2.57-3.87-3.82s-2.53-2.37-3.83-3.52-2.62-2.58-4.15-3.32c-3.51-1.71-6.28 1.69-8.5 3.89l-8.04 7.95c-1.51 1.5-3.03 3-4.54 4.49-1.28 1.27-2.9 2.5-3.67 4.17-.9 1.93-.28 4.2-.02 6.21.27 2.07.54 4.14.86 6.2s3.56 1.51 3.53-.48Zm-78.4 64.71c.05 3.01.29 6.02.31 9.03 0 1.29-.98 1.89-1.85 2.75-1.17 1.15-2.33 2.3-3.5 3.45-2.22 2.19-4.43 4.38-6.65 6.56-1.05 1.04-2.1 2.07-3.15 3.11-1.02 1-2 2.22-3.15 3.06-.2.14-.66.24-.37.29-.45-.08-1.16-.93-1.46-1.2-1.13-.98-2.25-1.97-3.36-2.99a141 141 0 0 1-6.42-6.28c-.16-.17-1.14-1.48-1.4-1.48l-.05.88.04-.05c.13 0 .57-.51.7-.61 1.21-1.01 2.42-2 3.64-2.99 2.43-1.99 4.86-3.98 7.3-5.95s4.79-3.94 7.66-5.3 5.55-1.54 8.56-1.22c1.95.2 2.2-2.78.45-3.31-3.14-.97-6.45-.75-9.61-.02-3.35.78-6 3.05-8.62 5.16-2.89 2.34-5.78 4.68-8.66 7.04-1.4 1.15-2.84 2.28-4.21 3.46-1.36 1.18-2.17 2.77-1.53 4.58.54 1.52 2 2.7 3.09 3.82 1.26 1.3 2.55 2.57 3.87 3.82s2.53 2.37 3.83 3.52 2.62 2.58 4.15 3.32c3.51 1.71 6.28-1.69 8.5-3.89l8.04-7.95c1.51-1.5 3.03-3 4.54-4.49 1.28-1.27 2.9-2.5 3.67-4.17.9-1.93.28-4.2.02-6.21-.27-2.07-.54-4.14-.86-6.2s-3.56-1.51-3.53.48Zm27.83-22.9c-1.41-7.71-.43-15.85 1.41-23.42 1.19-4.89 4.25-13.12 9.89-14.45 3.94-.93 6.76 3.35 8.79 6.84s2.49 7.65 2.91 11.68"/><path d="M80.1 98.17c-.79-4.79-.54-9.79.19-14.57.61-3.96 1.44-7.98 2.82-11.75 1.05-2.88 2.5-6.05 4.96-8 1-.79 2.4-1.52 3.7-1.12 1.48.46 2.61 1.88 3.47 3.1 1.35 1.92 2.52 3.96 3.17 6.23.72 2.52.92 5.12 1.28 7.71.31 2.24 4.11 1.72 3.96-.54-.36-5.28-1.46-10.23-4.39-14.69-2.36-3.6-6.02-7.24-10.69-5.53-3.81 1.39-6.32 4.91-7.97 8.46-1.85 3.99-2.84 8.28-3.51 12.61-.98 6.32-1.11 12.61.08 18.9.37 1.94 3.25 1.1 2.94-.81Zm23.33-9.94c.6 7.65-1.04 15.46-4.67 22.22-2.06 3.84-5.62 7.64-10.27 7.81-5.15.19-7.12-4.83-8.19-9.06-.11-.44-.22-.91-.06-1.33.13-.35.42-.61.7-.86l21.94-19.27"/><path d="M102.01 88.23c.02 5.31-.65 10.61-2.39 15.65-1.43 4.15-3.54 8.92-7.45 11.3-1.56.94-3.6 1.57-5.39.94-1.53-.53-2.54-1.81-3.25-3.21-.37-.74-.66-1.5-.91-2.29-.14-.44-.27-.88-.39-1.33-.04-.16-.16-.43-.15-.58-.16-.1-.15-.19.02-.27.17-.15.34-.31.51-.45 2.16-1.92 4.33-3.82 6.5-5.72 5.01-4.42 10.04-8.82 15.06-13.23 1.76-1.55-.82-4.12-2.57-2.57-5.21 4.57-10.41 9.15-15.62 13.71-1.24 1.09-2.48 2.17-3.72 3.26-1.17 1.03-2.91 2.07-3.6 3.51-.99 2.07.53 5.34 1.42 7.28.88 1.92 2.17 3.8 4.02 4.9 2.11 1.25 4.77 1.31 7.08.62 5.37-1.59 8.63-6.69 10.72-11.55 2.75-6.43 3.89-13.4 2.91-20.34-.23-1.6-2.78-1.18-2.78.38Zm-76.62 44.41c5.4 4.06 10.08 8.86 14.77 13.69.49.51 1.34.55 1.89.11.5-.4.81-1.28.37-1.85-4.34-5.63-9.83-10.31-15.55-14.47-.64-.46-1.63-.11-2 .52-.44.75-.11 1.52.52 2m7.62-6.73c4.5 4.24 8.98 8.5 13.59 12.61 1.32 1.18 3.25-.71 1.96-1.96-4.45-4.29-9.03-8.44-13.6-12.6-1.3-1.19-3.24.72-1.94 1.94Zm99.6-83.92c5.03 3.56 7.48 10.32 13.58 12.45 1.59.56 2.58-1.89 1.14-2.7-2.63-1.47-4.6-3.43-6.59-5.75-2.03-2.37-4.06-4.75-6.68-6.49-.65-.43-1.59-.13-1.97.52-.42.72-.12 1.52.52 1.97m5.96-7.14c2.42 1.71 4.67 3.73 6.65 5.94 1.99 2.21 3.64 4.69 5.18 7.23.91 1.52 3.1.19 2.35-1.37-2.76-5.75-7.53-10.62-12.89-14-.58-.37-1.4-.12-1.74.46-.37.64-.11 1.34.46 1.74Zm-75.74 65.17c-.13-10.88.85-21.86 2.49-32.61 1.63-10.73 4.16-21.34 7.63-31.63 1.55-4.58 3.19-9.18 5.53-13.42 1.12-2.03 2.39-4 3.93-5.75 1.42-1.62 3.14-3.51 5.29-4.11 4.32-1.2 8.45 4.08 10.58 7.11 2.72 3.87 4.67 8.22 6.34 12.62 4.33 11.39 7.61 23.32 8.54 35.51.09 1.22.97 2.26 2.26 2.26 1.15 0 2.35-1.04 2.26-2.26-.92-11.74-3.83-23.18-7.83-34.23-1.8-4.96-3.76-9.94-6.57-14.44-2.67-4.27-6.33-8.89-11.24-10.64-5.47-1.94-10.15 1.78-13.43 5.79-3.3 4.04-5.57 8.69-7.47 13.52-4.17 10.58-7.2 21.73-9.15 32.94-1.13 6.5-1.96 13.06-2.28 19.65-.32 6.56-.14 13.13.25 19.68.11 1.84 2.91 1.88 2.89 0Z"/><path d="M115.43 79.98c.13 10.88-.85 21.86-2.49 32.61-1.63 10.74-4.16 21.34-7.63 31.63-1.55 4.58-3.19 9.18-5.53 13.42-1.12 2.03-2.39 4-3.93 5.75-1.42 1.62-3.14 3.51-5.29 4.11-4.32 1.2-8.45-4.08-10.58-7.11-2.72-3.87-4.67-8.22-6.34-12.62-4.22-11.1-7.63-22.6-8.54-34.49-.09-1.22-.97-2.26-2.26-2.26-1.15 0-2.35 1.04-2.26 2.26.89 11.45 3.91 22.46 7.83 33.21 1.81 4.96 3.76 9.94 6.57 14.43 2.67 4.27 6.33 8.89 11.24 10.64 5.47 1.94 10.15-1.78 13.43-5.79 3.3-4.04 5.57-8.69 7.47-13.52 4.17-10.58 7.21-21.73 9.16-32.94 1.13-6.5 1.96-13.06 2.28-19.65.32-6.56.14-13.13-.25-19.68-.11-1.84-2.91-1.88-2.89 0Z"/><path d="m60.67 116.19-5.82 4.17c-.63.45-1.29.93-1.68 1.6-.74 1.25-.41 2.83-.02 4.23 4.54 16.25 14.77 30.85 28.5 40.65-3.39-2.83-6.79-5.8-9.07-9.58-1.41-2.33-2.35-4.91-3.29-7.47-2.08-5.68-4.16-11.41-5.15-17.38-.84-5.05-.89-10.26-2.5-15.12"/><path d="M59.86 114.81a82 82 0 0 0-6.43 4.28c-2.07 1.53-2.86 3.48-2.47 6.03.32 2.07 1.08 4.13 1.77 6.1.73 2.08 1.55 4.14 2.45 6.15 3.52 7.92 8.44 15.2 14.41 21.49 3.37 3.55 7.16 6.71 11.18 9.49 1.62 1.12 3.65-1.47 2.12-2.75-3.26-2.72-6.6-5.54-8.83-9.21-2.31-3.81-3.63-8.27-5.06-12.46-1.49-4.35-2.79-8.79-3.41-13.36s-.85-9.28-2.28-13.74c-.68-2.11-4.02-1.2-3.33.92 1.49 4.6 1.66 9.44 2.37 14.2s2.11 9.3 3.69 13.8 2.86 8.88 5.29 12.75 5.72 6.74 9.09 9.59l2.12-2.75c-12.49-9.32-22.16-22.5-26.87-37.38-.57-1.8-1.88-4.36-.12-5.8 2.04-1.67 4.24-3.12 6.25-4.84 1.39-1.19-.4-3.42-1.93-2.5Zm.88-11.34a47.3 47.3 0 0 1-8.4 7.46c-1.95-6.45-2.04-13.3-2.12-20.04-.13-11.2 1.58-22.37 4.73-33.11 4.35-14.86 11.11-30.56 24-40.1l-5.21 7.1c-1.71 2.32-3.43 4.67-4.61 7.3-.75 1.67-1.27 3.44-1.76 5.21-6 21.5-8.35 44.12-5.78 66.3"/><path d="M59.74 102.47c-2.76 2.32-5.39 4.76-8.39 6.78.95.39 1.9.77 2.86 1.16-1.89-6.84-2.06-13.91-2.05-20.96.02-7.18.78-14.35 2.2-21.39 2.39-11.79 6.28-23.76 12.58-34.07 3.41-5.59 7.69-10.72 12.96-14.65l-2.62-2.62c-1.83 2.49-3.7 4.95-5.54 7.43-1.66 2.26-3.3 4.56-4.44 7.14-1.16 2.64-1.89 5.44-2.63 8.22s-1.47 5.84-2.1 8.78c-2.49 11.6-4 23.53-4 35.4 0 6.65.28 13.28 1.03 19.89.12 1.05.82 1.96 1.96 1.96.97 0 2.08-.9 1.96-1.96-1.33-11.57-1.3-23.23-.13-34.82.58-5.73 1.45-11.43 2.57-17.08 1.12-5.6 2.35-11.3 4.16-16.72.99-2.97 2.67-5.56 4.49-8.08 1.99-2.75 3.96-5.5 5.96-8.23 1.11-1.51-1.11-3.75-2.62-2.62-10.04 7.51-16.51 18.35-21.02 29.87-5.06 12.94-8.23 26.76-8.66 40.67-.13 4.1-.06 8.23.17 12.33.23 4.21.72 8.51 1.99 12.54.34 1.09 1.79 1.93 2.86 1.16 3.28-2.38 6.38-5.03 8.64-8.43.94-1.41-1.06-2.67-2.21-1.7Z"/><path d="M67.27 51.87c14.09-3.1 28.04-6.79 41.86-10.94 1.98-.59 1.14-3.7-.86-3.1-13.82 4.13-27.75 7.87-41.75 11.35-1.75.43-1.01 3.08.74 2.7Zm2.98-12.61c5.95-1.08 11.89-2.27 17.79-3.6 2.87-.65 5.74-1.32 8.6-2.02 2.99-.73 6.12-1.32 9.02-2.35 1.71-.6 1.03-3.02-.74-2.7-2.96.54-5.88 1.51-8.8 2.24s-5.88 1.43-8.83 2.1c-5.9 1.34-11.82 2.59-17.76 3.71-1.71.32-.98 2.92.72 2.61Zm5.39-10.94c4.32-.87 8.63-1.73 12.95-2.6 4.29-.86 8.71-1.53 12.92-2.69 1.85-.51 1.03-3.07-.77-2.8-4.32.64-8.64 1.81-12.91 2.75-4.29.95-8.59 1.89-12.88 2.84-1.64.36-.94 2.83.69 2.5m-7.81 100.46c6.75.99 13.53 1.85 20.32 2.53 3.36.34 6.74.61 10.11.85 3.39.23 6.98.75 10.37.5 1.74-.13 2.42-2.95.44-3.27-3.29-.53-6.75-.44-10.08-.65-3.37-.22-6.74-.49-10.11-.77-6.76-.57-13.5-1.31-20.21-2.24-.85-.12-1.69.21-1.95 1.11-.21.75.26 1.83 1.11 1.95Zm-2.03 9.08c6.69 1.4 13.45 2.48 20.23 3.33 6.77.85 13.68 1.75 20.51 1.78 2 0 1.89-2.81 0-3.03-6.65-.79-13.37-1.12-20.03-1.88s-13.36-1.7-20.03-2.7c-1.61-.24-2.35 2.15-.69 2.5Zm7.01 11.69c5.4.63 10.8 1.15 16.22 1.53 5.38.37 10.87.86 16.27.73 1.83-.04 1.79-2.69 0-2.81-5.41-.38-10.85-.37-16.27-.73-5.41-.36-10.82-.82-16.22-1.39-1.72-.18-1.68 2.47 0 2.67m6.66 11.88c6.67.11 13.34 0 20-.15 1.97-.04 1.98-3.1 0-3.06-6.67.11-13.34.25-20 .62-1.66.09-1.68 2.57 0 2.59"/></svg>