<?xml version="1.0" encoding="UTF-8"?><svg xmlns="http://www.w3.org/2000/svg" viewBox="0 0 180 180"><path d="M10.48 82.23c20.59.79 41.23.49 61.83.51 20.61.02 41.22 0 61.83 0 11.62 0 23.29.27 34.9-.18 2.59-.1 2.6-3.93 0-4.03-10.29-.41-20.62-.18-30.91-.18h-30.91q-30.915 0-61.83.03c-11.63.01-23.28.04-34.9.49-2.17.08-2.17 3.29 0 3.38Z"/><path d="M169.55 78.92c-7.83 1.16-15.53 2.98-23.2 4.94-7.65 1.95-15.24 4.1-22.78 6.44-6.07 1.88-15.55 3.66-16.81 11.25-1.39 8.37 8.82 10.05 14.37 12.66 2.39 1.13 5.32 3.01 5.66 5.9.35 2.97-2.18 5.43-4.53 6.77-3.15 1.8-6.88 2.67-10.38 3.54-3.63.91-7.31 1.63-11 2.24-13.94 2.29-28.19 2.82-41.89 6.48-7.01 1.87-13.88 4.34-20.45 7.42-5.94 2.79-12.2 6.33-16.62 11.28-1.36 1.53.47 4.37 2.33 3.02 4.79-3.49 9.71-6.56 15.03-9.19 5.68-2.8 11.63-5.03 17.69-6.82 13.22-3.92 26.96-4.83 40.54-6.84 7.49-1.11 15.04-2.49 22.21-4.98 3.25-1.13 6.55-2.65 8.82-5.32s3.4-5.94 2.56-9.3c-1.83-7.37-10.09-8.7-15.89-11.47-2.33-1.11-4.92-2.81-3.52-5.69 1.44-2.96 5.16-3.95 8.03-4.88 8.27-2.68 16.62-5.15 25-7.45 8.55-2.34 17.18-4.35 25.71-6.74 2.15-.6 1.2-3.57-.9-3.25Z"/><path d="M103.26 84.64c-4.59.98-8.89 2.97-12.53 5.93-3.41 2.77-6.97 7.36-5.33 12.04 1 2.84 3.67 4.75 5.76 6.75.99.94 1.9 1.79 2.42 2.98.06.15.21.69.16.98.06-.33-.14.51-.13.49-.04.11-.27.51-.4.68-.72.95-1.95 1.39-3.02 1.77-1.28.46-2.6.82-3.93 1.11-2.94.64-5.94 1-8.92 1.38-1 .13-1.84.76-1.85 1.85-.01.96.86 1.9 1.85 1.85 5.3-.26 10.71-.76 15.63-2.88 3.3-1.42 5.92-4.84 4.55-8.53-1.09-2.93-3.74-4.91-5.91-7.01-.51-.49-1.01-.99-1.46-1.54-.05-.06-.19-.24-.35-.49-.08-.12-.15-.24-.22-.37-.05-.09-.1-.18-.15-.28.06.17.06.18.01.04-.76-1.99.55-4.14 1.71-5.69 3.11-4.14 8-6.82 12.96-8.02 1.99-.48 1.14-3.48-.84-3.06Zm-88.84 58.23c2.71-2.59 6.14-4.09 9.61-5.36 3.83-1.41 7.69-2.73 11.59-3.92 3.95-1.2 7.95-2.23 12-3.01 1.96-.38 3.93-.69 5.91-.91 2.14-.24 4.44-.11 6.54-.6 1.73-.41 1.83-3.26 0-3.6-2.11-.39-4.42-.03-6.54.2s-4.36.56-6.51.97c-4.37.82-8.65 1.99-12.88 3.35-4.07 1.31-8.1 2.76-12.06 4.37-3.68 1.5-7.24 3.27-10.11 6.07-1.59 1.56.83 3.98 2.44 2.44Zm2.29-17.76c7.13-3.79 15.37-5.12 23.26-6.32 7.73-1.18 16.12-1.96 23.25-5.41 3.41-1.65 6.61-4.61 6.91-8.58.12-1.6-2.39-1.9-2.78-.38-.81 3.19-3.49 4.87-6.36 6.11-3.44 1.49-7.25 2.28-10.91 3.02-7.56 1.52-15.29 2.21-22.76 4.2-4.22 1.13-8.25 2.74-12.04 4.93-1.57.91-.18 3.28 1.42 2.43Zm52.86-23.08c1.44 0 1.44-2.23 0-2.23s-1.44 2.23 0 2.23M72 92.09c.01-.08.02-.16.05-.24l-.34.59c.14-.17.29-.34.39-.53.06-.11.12-.21.18-.31.14-.21.25-.43.4-.62l-.24.32c.18-.23.38-.43.61-.61l-.32.25c.17-.13.35-.25.53-.36.09-.05.18-.11.27-.15.2-.1.37-.25.55-.39l-.31.24c.06-.05.13-.1.2-.14.27-.18.47-.4.59-.69s.17-.64.07-.95c-.08-.24-.2-.46-.37-.64-.27-.29-.65-.39-1.03-.43-.28-.02-.61-.03-.87.07s-.55.22-.81.36-.48.33-.69.52c-.13.11-.25.24-.36.37-.29.35-.58.72-.76 1.14-.12.27-.22.51-.27.8-.03.19-.06.39-.08.59s.04.41.09.6l-.05-.36c0 .08-.02.16-.02.25-.02.31.16.73.39.94s.47.33.76.37.6 0 .85-.16c.27-.17.56-.46.61-.79Zm-60.65 20.14c6.36-3.58 13.85-4.2 20.91-5.4 6.62-1.13 13.7-2.92 18.6-7.82 1.04-1.04-.37-3.04-1.63-2.11-5.55 4.11-12.19 5.63-18.9 6.7-7.09 1.14-14.3 2.13-20.49 6.04-1.63 1.03-.18 3.54 1.51 2.59m41.86-21.76.15-.85c.04-.25.11-.52.12-.77v-.42c0-.18-.03-.36-.12-.51a.95.95 0 0 0-.28-.43l-.27-.21a1 1 0 0 0-.5-.16.7.7 0 0 0-.36 0c-.18 0-.34.06-.5.16l-.27.21c-.17.17-.28.36-.34.59-.05.13-.11.27-.15.4s-.05.27-.07.41l-.14.83c-.06.19-.07.37-.03.56 0 .19.06.36.17.52.09.16.21.3.36.39.14.12.3.21.48.25.36.08.76.06 1.08-.14l.28-.22c.17-.18.29-.38.36-.62Zm-23.53-2.95c-1.55 1.82-3.86 3.12-6.06 4.01-1.17.47-2.39.79-3.63 1.01-.72.13-1.45.21-2.17.3-.9.11-1.94.13-2.7.69-.57.42-.94.99-.83 1.74.1.67.57 1.27 1.25 1.45.97.25 1.96-.03 2.93-.17.79-.12 1.59-.22 2.38-.38 1.47-.29 2.89-.81 4.25-1.45 2.62-1.23 4.56-3.2 6.41-5.37.45-.53.52-1.3 0-1.82-.46-.46-1.37-.53-1.82 0Zm111.19 17.64c2.25 0 2.26-3.5 0-3.5s-2.26 3.5 0 3.5m11.13-5.12.1.22a1.46 1.46 0 0 0 1.25.72c.26 0 .51-.07.73-.2s.39-.3.52-.52l.1-.22c.14-.24.21-.51.21-.79s-.07-.55-.21-.79-.33-.42-.56-.56c-.24-.14-.51-.21-.79-.21s-.55.07-.79.21-.42.33-.56.56c-.14.24-.21.51-.21.79s.07.55.21.79m-2.25 8.47c1.92 0 1.92-2.98 0-2.98s-1.92 2.98 0 2.98m11.37-1.41c1.89 0 1.89-2.94 0-2.94s-1.89 2.94 0 2.94m-12.76 17.02c1.66 0 1.66-2.58 0-2.58s-1.66 2.58 0 2.58m3.33 11.07c1.98 0 1.98-3.08 0-3.08s-1.98 3.08 0 3.08m4.99-5.88.55-.03c.2 0 .39-.03.56-.13.18-.06.34-.16.47-.3.14-.13.24-.29.3-.47.09-.17.13-.36.13-.56l-.05-.39c-.07-.25-.19-.46-.37-.64l-.29-.23c-.23-.13-.47-.2-.73-.2l-.55-.03c-.2 0-.4.03-.57.13-.18.06-.34.16-.48.31-.14.13-.25.29-.31.48-.09.18-.14.37-.13.57l.05.39c.07.25.2.47.38.66l.3.23c.23.13.48.2.75.2Zm4.72 7.99c2.19 0 2.2-3.41 0-3.41s-2.2 3.41 0 3.41m-45.74 11.05.23-.31.16-.38c.07-.21.08-.42.03-.64 0-.14-.04-.28-.11-.4q-.09-.3-.33-.51l-.32-.25-.38-.16a1.16 1.16 0 0 0-.64-.03c-.21 0-.41.07-.59.19l-.31.23c-.25.15-.44.34-.59.59-.15.26-.22.53-.23.83l.06.44c.08.28.22.52.42.73.15.16.33.27.53.34.2.1.41.15.64.14a1.67 1.67 0 0 0 1.42-.82Zm12.45-7.23c2.12 0 2.12-3.3 0-3.3s-2.12 3.3 0 3.3m.55 9.41c2.09 0 2.09-3.25 0-3.25s-2.09 3.25 0 3.25m12.21-4.11c2.15 0 2.16-3.34 0-3.34s-2.16 3.34 0 3.34m-48 3.28c2.09 0 2.09-3.25 0-3.25s-2.09 3.25 0 3.25M58.25 83.53c.08-.17.17-.32.29-.47l-.23.29c.13-.17.28-.31.44-.44l-.29.23c.16-.12.33-.22.48-.37.06-.06.12-.11.19-.16l-.28.22s.02-.02.03-.02l.28-.22.12-.15c.05-.07.1-.13.14-.19.12-.21.18-.43.18-.67s-.06-.47-.18-.67q-.18-.3-.48-.48a1.3 1.3 0 0 0-.67-.18h-.09l-.37.05-.11.03c-.04.01-.07.02-.11.04-.02 0-.04.01-.05.02-.06.03-.13.05-.19.08-.07.02-.13.05-.19.08-.16.1-.32.23-.47.35l-.18.15c-.2.19-.36.41-.52.63-.09.13-.17.26-.24.41-.11.17-.16.35-.17.54-.04.19-.03.38.03.58.04.19.13.35.26.49.1.16.24.28.41.37l.35.15c.26.07.51.07.77 0l.35-.15c.22-.13.39-.3.52-.52Zm-45.02 4.21c1.64-.25 3.22-.78 4.71-1.51.69-.34 1.36-.73 1.99-1.17.72-.5 1.47-1.04 2.06-1.69.49-.54.57-1.44 0-1.97s-1.38-.52-1.97 0c-.28.25-.54.52-.82.77-.13.12-.26.23-.4.35-.08.07-.17.14-.26.21-.06.05-.15.12-.04.03-.6.45-1.23.86-1.89 1.22-.31.17-.63.32-.95.47-.03.01-.32.14-.21.09.09-.04-.13.05-.15.06-.16.06-.33.13-.5.19-.73.26-1.47.46-2.23.6-.65.12-1.02.91-.86 1.51.19.7.85.96 1.51.86ZM10 26.48c5.63-.4 10.95 2.69 14.15 7.22 3.56 5.05 5.05 11.07 6.26 17.04.31 1.55 2.37 1.91 3.41.9 2.65-2.57 6.5-3.92 10.17-3.15S50.4 51.58 52 54.8c.8 1.61 3.29 1.13 3.74-.49 1.3-4.79 7.16-6.92 11.65-5.73 5.91 1.56 9.32 7.65 10.49 13.24.4 1.91 2.79 1.77 3.75.49 2.15-2.87 6.93-2.69 9.22-.18.82.9 2.67.76 3.2-.41 1.68-3.71 5.1-6.5 9.19-7.07 4.14-.57 8.24 1.31 10.84 4.49 1.1 1.34 3.67.27 3.51-1.45-.51-5.51 4.16-10.51 8.84-12.74 3.87-1.85 9.99-1.46 11.8 3.16.34.87 1.03 1.53 2.01 1.53.83 0 1.89-.64 2.01-1.53.59-4.15 5.67-6.9 9.38-4.67 1.5.91 2.99-.31 3.17-1.82 1.03-8.34 7.5-15.62 15.53-17.9 2.61-.74 1.5-4.81-1.12-4.07-9.99 2.84-17.36 11.72-18.62 21.96 1.06-.61 2.12-1.21 3.17-1.82-5.81-3.5-14.58.34-15.53 7.2h4.02c-2.64-6.68-10.45-8.75-16.75-6.15-6.38 2.64-12.71 9.5-12.02 16.83 1.17-.48 2.34-.97 3.51-1.45-3.46-4.21-9.08-6.35-14.46-5.57-5.17.75-9.8 4.27-11.98 9.01 1.07-.14 2.13-.27 3.2-.41-4.21-4.68-12-3.91-15.64.99 1.25.16 2.5.33 3.75.49-1.51-7.1-6.41-14.63-13.98-16.2-6.56-1.36-14.12 1.95-16.06 8.69l3.74-.49c-2.03-4.21-6.17-7.47-10.8-8.32-5-.92-10.23.7-13.81 4.33 1.14.3 2.28.6 3.41.9-1.46-6.69-3.34-13.65-7.86-18.99-4.09-4.83-10.44-8.12-16.85-6.84-1.48.3-1.16 2.76.36 2.65Z"/><path d="M51.93 51.53C50.41 20.26 94.8 11.8 113.74 31.08l.4.42c3.51 3.74 5.84 8.78 5.53 13.89-3.4 1.34-5.67 5.11-5.25 8.75-1-.54-2.02-1.05-3.07-1.5-2.83-1.23-5.91-2.11-8.99-1.84s-6.16 1.83-7.67 4.53c-.73 1.31-1.77 3.16-3.16 2.58-.56-.23-.87-.81-1.31-1.23-1.23-1.17-3.21-.92-4.82-.37s-3.25 1.36-4.91 1.04c0-2.92-2.36-5.22-4.55-7.15-2.21-1.95-4.46-3.92-7.1-5.25-2.64-1.32-5.75-1.94-8.57-1.05-3.11.98-5.37 3.61-7.46 6.11"/><path d="M53.51 51.53c-.06-5.86 1.58-11.35 5.04-16.07 3-4.11 7.8-7.42 12.45-9.35 5.46-2.27 11.03-3.18 16.84-3.05 5.58.13 11.38 1.39 16.33 3.88 6.88 3.46 13.71 9.96 13.37 18.45.35-.61.71-1.23 1.06-1.84-4.03 1.73-6.65 6.23-6.26 10.59l3.14-1.8c-6.17-3.31-14.19-5.77-20.24-.84-1.26 1.02-2.02 2.31-2.87 3.66-.15.24-.34.46-.49.69l-.23.22c.22-.2.49-.22.8-.06.14-.2-1.5-1.43-1.72-1.57-1.45-.83-3.2-.81-4.8-.47s-3.26 1.56-4.86 1.33l1.56 2.05c-.1-3.45-2.28-6.07-4.72-8.29-2.64-2.39-5.44-4.88-8.73-6.32-3.19-1.4-6.87-1.97-10.19-.65-3.2 1.28-5.51 3.81-7.67 6.41-.74.89-.87 2.16 0 3.03.76.76 2.28.89 3.03 0 1.62-1.92 3.31-4.02 5.6-5.17 2.34-1.17 5.13-.77 7.44.28 2.59 1.18 4.76 3.08 6.87 4.95 1.69 1.49 4.02 3.31 4.11 5.77.03.83.63 1.93 1.56 2.05 1.89.25 3.47-.11 5.24-.76.97-.36 2.57-1.14 3.57-.48.66.43.98 1.17 1.73 1.56s1.65.5 2.46.28c1.56-.42 2.56-1.86 3.32-3.18 3.71-6.42 11.91-3.66 17.11-.88 1.28.69 3.29-.14 3.14-1.8-.25-2.71 1.11-5.6 3.73-6.69.93-.38 1.51-1.02 1.57-2.06.49-8.95-5.48-16.39-12.75-20.87-5.5-3.39-11.85-5.19-18.25-5.76-12.23-1.08-26.2 2.68-34.25 12.45-4.74 5.74-6.78 12.93-6.2 20.33.16 2 3.18 2.06 3.16 0Z"/></svg>