<?xml version="1.0" encoding="UTF-8"?><svg xmlns="http://www.w3.org/2000/svg" viewBox="0 0 180 180"><path d="M21 107.98c-4.49.78-7.18 5.08-6.15 9.49.49 2.1 1.86 3.95 3.69 5.09 2.5 1.56 5.51 2.6 8.24 3.68 12.05 4.78 24.83 7.31 37.69 8.58 12.85 1.28 25.81 1.29 38.7.67 12.52-.61 25.13-2.01 37.21-5.48 6.73-1.93 13.31-4.53 19.43-7.93 2.8-1.55 6.24-3.23 7.87-6.14 1.51-2.69.97-6.71-2.03-8.14l-.54 4.12c-.23.05.06.13.21.33.37.49.57 1.15.67 1.74.28 1.63.13 3.48-.14 5.1-.62 3.83-2.11 7.45-3.85 10.89s-3.57 6.6-5.47 9.83c-1.8 3.07-3.68 6.12-5.87 8.92-4.49 5.75-10.38 9.95-17.09 12.78s-13.69 4.17-20.76 4.94c-16.15 1.77-32.59 1.88-48.66-.66-6.5-1.03-13.1-2.03-19.31-4.24-2.98-1.06-5.83-2.48-8.41-4.33s-4.81-4.51-6.91-7c-4.56-5.41-8.86-11.17-12.3-17.37-2.82-5.09-5.28-12.05-1.52-17.36.63-.88 1.48-1.64 2.51-2.01 2.4-.86 1.37-4.73-1.06-3.86-6.45 2.31-8.29 10.1-7.21 16.2.73 4.11 2.72 7.93 4.87 11.46 1.99 3.28 4.15 6.44 6.46 9.5 4.48 5.95 9.17 12.26 15.76 16.01 6.31 3.59 13.52 5.15 20.6 6.38 8.73 1.51 17.5 2.65 26.37 2.94 8.63.28 17.3-.15 25.9-.93 15.77-1.42 32.48-5.55 43.05-18.27 5.11-6.16 9.16-13.4 12.78-20.51 1.92-3.77 3.63-7.75 4.36-11.94.63-3.66 1.05-8.27-1.52-11.33-1.19-1.42-2.86-1.95-4.66-1.59s-2.24 3.28-.54 4.12c1.67.82-.32 2.96-1.22 3.63-2.23 1.66-4.81 2.97-7.28 4.21-4.89 2.48-10.03 4.41-15.29 5.95-10.86 3.17-22.12 4.59-33.39 5.27-23.06 1.38-46.75.91-69.14-5.25-3.12-.86-6.21-1.84-9.25-2.95a103 103 0 0 1-4.52-1.77c-1.22-.51-2.66-.96-3.7-1.81-1.32-1.08-1.89-2.87-1.58-4.53.37-2.01 1.88-3.15 3.8-3.56 1.92-.4 1.08-3.23-.8-2.91Z"/><path d="M21.33 117.96c-.51-2.75.79-5.39 2.83-7.18 2.08-1.82 4.95-2.11 7.53-1.34 6.25 1.88 8.4 8.9 6.92 14.73 1.25.35 2.51.69 3.76 1.04 1.58-6.44 6.93-12.47 14.03-12.01 2.91.19 5.88 1.57 7.72 3.86 2.53 3.16 2.15 7.55 1.57 11.29h3.87c-.38-2.79 2.02-5.41 4.21-6.74 2.33-1.42 5.2-2.04 7.91-1.63 5.38.82 9.31 5.48 9.89 10.79.29 2.65 4.25 2.8 4.25 0 .01-7.92-6.62-14.62-14.39-15.22-7.73-.59-16.94 5.29-15.73 13.87.27 1.92 3.58 1.91 3.87 0 .62-4.08 1-8.32-.74-12.2-1.27-2.83-3.68-5.12-6.48-6.43-6.25-2.91-13.31-1.44-18.17 3.38-2.75 2.72-4.65 6.26-5.56 10-.59 2.44 3.15 3.47 3.76 1.04 2.04-8.11-1.57-17.64-10.34-19.68-3.86-.9-7.9.03-10.76 2.83-2.66 2.61-3.89 6.79-2.66 10.35.6 1.73 3.06 1.03 2.73-.75Z"/><path d="M88.36 117.04c.8-2.27 1.3-4.62.07-6.84-.5-.9-1.27-1.75-2.25-2.1-.5-.18-1.04-.28-1.58-.27s-1.36.34-1.83.14c-1.4-.58-.8-3.99-.9-5.09-.06-.61-.15-1.24-.34-1.83-.16-.49-.48-.97-.58-1.48-.1-.53-.2-.24.13-.56.37-.36.95-.57 1.41-.78 10.06-4.74 20.23-9.26 30.35-13.86 1.06-.48 2.43-1.22 3.6-.74s2.06 1.59 2.86 2.47c.43.47.85.95 1.23 1.45.18.23.36.47.52.72.16.22.32.45.46.69l.34-.66c-.17-.09-1.67 1-1.89 1.14-.66.4-1.33.79-1.99 1.19-1.64.98-1.1 4.13 1.05 3.88 8.96-1.06 17.84-2.64 26.6-4.8 4.32-1.07 8.62-2.26 12.87-3.59.64-.2 2.13-.95 2.81-.7.57.21.92 1.17 1.1 1.72.55 1.66.39 3.42-.16 5.06-1.3 3.92-5.09 6.41-8.56 8.26-.93.49-1.28 1.74-.87 2.67.46 1.04 1.43 1.4 2.52 1.24 4.35-.67 8.7-1.35 13.04-2.02l-2.63-2.63c-1.38 7.36-5.24 13.91-10.77 18.93-.79.72-.73 2.06 0 2.78.82.82 1.95.67 2.78 0 6.37-5.09 10.62-12.58 12.12-20.58.32-1.71-.97-2.89-2.63-2.63-4.35.68-8.69 1.35-13.04 2.03l1.65 3.9c3.74-1.99 7.48-4.64 9.5-8.48s2.42-9.21-.56-12.76c-1.72-2.05-4.18-1.83-6.49-1.1s-4.86 1.52-7.31 2.2c-4.9 1.37-9.86 2.56-14.85 3.58-5.67 1.15-11.38 2.07-17.12 2.75l1.05 3.88c2.28-1.36 6.35-2.81 5.56-6.16-.33-1.39-1.5-2.65-2.37-3.73s-1.87-2.2-2.97-3.11c-2.63-2.18-5.42-2.25-8.49-.93s-5.96 2.71-8.93 4.08c-5.84 2.67-11.69 5.35-17.53 8.02-1.5.69-3 1.37-4.49 2.06-1.18.54-2.31 1.12-3.15 2.14-.96 1.17-1.17 2.64-.74 4.08.17.58.48 1.11.64 1.69.21.74.19 1.5.19 2.27.01 2.77.6 6.12 3.61 7.18.84.3 1.64.26 2.51.15.44-.06.92-.17 1.31.1 1.15.8.28 3.11 0 4.12-.58 2.05 2.46 2.83 3.15.87Z"/><path d="M108.44 101.85c5.96 4.94 14.14 4.66 21.46 4.77 7.99.12 15.94-.43 23.85-1.54 4.16-.59 8.45-1.22 12.47-2.48 2.39-.75 1.41-4.31-1.03-3.75-7.12 1.62-14.18 2.87-21.46 3.5-7.21.62-14.53 1.3-21.77 1-4.03-.17-8.38-.8-11.66-3.34-1.3-1-3.16.76-1.85 1.85ZM99 108.79c4.11 6.77 12.16 9.92 19.49 11.77 8.4 2.12 17.17 2.64 25.8 2.42 4.73-.12 9.6-.2 14.25-1.11 2.14-.42 1.59-3.71-.5-3.73-3.93-.04-7.87.43-11.81.57s-8.24.17-12.36-.03c-7.73-.37-15.42-1.41-22.68-4.18-3.81-1.45-7.56-3.59-9.81-7.1-.95-1.48-3.3-.13-2.37 1.39Zm-6.04 10.18c1.17 2.93 2.67 5.69 4.56 8.21.94 1.25 1.91 2.49 2.96 3.65.53.59 1.1 1.14 1.69 1.67.63.56 1.41 1.44 2.26 1.58 1.45.24 2.4-1.04 1.82-2.36-.31-.71-1.19-1.18-1.78-1.68-.55-.46-1.09-.94-1.62-1.42-1.1-.99-2.13-2.04-3.05-3.19-1.81-2.27-3.27-4.82-4.42-7.48-.59-1.37-2.99-.38-2.43 1.02Z"/><path d="M15.74 136.58c15.83 10.92 35.29 13.73 54.06 14.91 20.04 1.26 40.32.49 60.02-3.56 11.07-2.27 21.88-5.61 32.25-10.1.95-.41 1.18-1.82.69-2.64-.58-.98-1.68-1.12-2.64-.69-17.89 7.97-37.29 12.04-56.77 13.45-9.81.71-19.66.77-29.49.32s-18.77-1.21-27.98-3.06c-10.12-2.03-20.09-5.3-28.86-10.83-1.4-.88-2.62 1.28-1.29 2.2Zm10.17-29.44c-.54-1.27-.94-2.91-.28-4.21.44-.87 1.48-1.61 2.48-1.38 1.13.26 2.24-.52 2.26-1.72.05-3.96.09-7.92.14-11.88l-1.35 1.77c2.56-.35 5.17-.2 7.68.37.9.2 2.16-.27 2.31-1.31a52.6 52.6 0 0 1 2.38-9.66c-.79.45-1.59.9-2.38 1.35 2.61.59 5.15 1.43 7.57 2.58.91.43 2.14.3 2.65-.7.81-1.58 1.62-3.15 2.42-4.73.52-1.02.91-2.54 2.29-2.26 2.83.55 3.95 4.43 7.16 4.26 1.53-.08 2.69-1.36 3.8-2.28l3.81-3.18c.25-.21.58-.53.89-.68.28-.13.05-.16.22-.09.55.23 1.08 1.12 1.43 1.58.97 1.28 1.76 2.69 2.42 4.16.41.89 1.9 1.3 2.69.71 1.09-.82 2.22-1.6 3.4-2.29 1-.59 2.35-1.6 3.51-1.79.34-.05.25-.02.54.42.4.58.73 1.21 1.08 1.81.81 1.36 1.61 2.71 2.42 4.07.56.94 1.72 1.19 2.66.7 2.4-1.24 5.02-2.01 7.72-2.13l-1.64-.94c1.11 2.47 2.43 4.84 4 7.05 1.43 2.01 4.77.11 3.35-1.96-1.54-2.23-2.91-4.55-4.06-7.02-.26-.57-1.03-.98-1.64-.94-3.41.19-6.64 1-9.68 2.57l2.66.7c-1.01-1.71-2.02-3.43-3.04-5.14-.86-1.45-1.89-2.95-3.72-3.12s-3.45.86-4.94 1.66a34.5 34.5 0 0 0-4.59 2.96c.9.24 1.79.47 2.69.71-.8-1.76-1.81-3.38-3-4.9-1.07-1.36-2.36-2.8-4.24-2.8-1.87 0-3.27 1.43-4.61 2.55-.79.66-1.57 1.32-2.36 1.97l-1.27 1.06c-.24.2-.58.64-.87.71.38-.09.03-.05-.17-.28-.27-.3-.63-.55-.93-.82-.68-.63-1.35-1.25-2.09-1.8-1.39-1.02-3.15-1.64-4.89-1.34-1.91.32-3.05 1.67-3.9 3.31-.97 1.86-1.9 3.73-2.86 5.59.88-.23 1.77-.46 2.65-.7-2.73-1.29-5.56-2.3-8.5-2.96-1.07-.24-2.02.32-2.38 1.35-1.09 3.16-1.83 6.38-2.28 9.69.77-.44 1.54-.88 2.31-1.31-3.22-.69-6.41-.77-9.66-.29-.78.12-1.35 1.04-1.35 1.77-.01 3.96-.02 7.92-.04 11.88l2.26-1.72c-2.46-.54-4.98.58-6.21 2.8-1.35 2.43-.89 5.43.55 7.71 1.03 1.63 3.24.21 2.52-1.47Z"/><path d="M43.19 97.04h.48l-.6-.16s.03.02.05.03l-.56-.73c.01.06.03.11.07.17.05.16.14.3.26.41l.26.2h.01c.12.08.25.12.38.16l.17.05q.36.09.72 0c.23-.06.43-.18.6-.35l.21-.28c.12-.21.18-.44.19-.69 0-.19-.03-.36-.12-.52-.05-.17-.15-.31-.28-.44-.34-.34-.86-.49-1.32-.35l-.17.05c-.08.02-.14.05-.22.09-.06.02-.11.04-.17.07l-.26.2-.2.26c-.07.1-.11.21-.13.32l.56-.73s-.03.02-.05.03l.6-.16h-.48c-.16 0-.31.03-.45.1-.15.05-.27.13-.38.24-.12.11-.2.23-.24.38-.07.14-.11.29-.1.45l.04.31c.06.2.16.37.3.52l.24.18c.18.11.38.16.6.16Zm9.31-4.99.12-.16.06-.08c.1-.14.14-.31.2-.47.08-.28.08-.57 0-.85-.08-.27-.21-.51-.41-.71s-.44-.34-.71-.41c-.28-.08-.57-.08-.85 0l-.04.02c-.07.02-.13.05-.2.08s-.13.05-.2.08c0 0-.01 0-.02.01l-.08.06-.16.12q-.375.225-.6.6c-.15.26-.23.54-.23.85l.06.45c.08.28.22.53.43.74.15.16.33.28.54.35.2.11.42.15.65.14.3 0 .59-.08.85-.23q.375-.225.6-.6Zm-.29 11.47c1.99 0 1.99-3.09 0-3.09s-1.99 3.09 0 3.09m9.31-7.75c2.13 0 2.13-3.31 0-3.31s-2.13 3.31 0 3.31m.29 9.12c1.88 0 1.88-2.92 0-2.92s-1.88 2.92 0 2.92M86.19 73.4c2.75-2.99 6.94-4.18 10.97-4.77 7.94-1.17 16.23-.5 23.66 2.55 7.42 3.06 13.92 8.59 17.54 15.75-2.22.53-4.43 1.07-6.65 1.6-.92.22-5.06.58-5.96.29-1.59-.51.91-2.46.05-3.89-2.57-4.28-8.36-6.02-13.14-4.56-3.21.98-7.03 4.96-9.78 3.04-.81-.56-1.16-3.25-1.87-3.93-2.97-2.86-7.71-2.37-11.78-1.69-.62-.7-.43-1.95.38-2.42"/><path d="M87.25 74.46c2.7-2.46 6.26-3.47 9.82-3.97 3.92-.55 7.96-.63 11.9-.22 7.36.77 14.68 3.57 20.3 8.45 3.03 2.63 5.43 5.72 7.31 9.26l1.23-3.03c-2.37.62-4.9 1.51-7.25 1.84-.67.1-1.54.16-2.29.21-.47.03-.93.05-1.4.05-.13 0-.35-.04-.46-.01-.35.08-.04-.14.08.07.03.05.66 1.18.63 1.18-9.21-1.36.14-.26.08-.21.23-.19.43-.98.52-1.3.32-1.09.15-2.13-.45-3.08-1.15-1.83-2.89-3.33-4.83-4.27-3.94-1.92-8.6-2.01-12.51.01-1.54.8-3.39 2.44-5.19 2.53-.2 0-.43 0-.6-.1.17.11.02-.05-.05-.18-.48-.85-.56-1.91-1.05-2.78-1.19-2.09-3.98-3.13-6.24-3.45-2.71-.39-5.41-.03-8.09.41l2.28.93c-.21-.37-.24-.33-.11.11-.17.14-.12.11.15-.11 1.74-1.39-.56-4.39-2.4-3.1-1.66 1.17-2.38 3.37-1.12 5.14.57.81 1.32 1.08 2.28.93 2.11-.35 4.35-.67 6.48-.33.93.15 1.83.42 2.63.93.16.1.3.2.45.32.7.57.08-.04.25.26.19.33.29.75.41 1.11.73 2.1 1.77 3.66 4.17 3.86 2.02.17 3.95-.9 5.64-1.88 1.68-.97 3.23-1.93 5.2-2.15s4.04.12 5.8 1.03c.81.42 1.54.91 2.19 1.55.32.32.62.66.89 1.03.22.31.13.62.2.17.02-.12-.1.33-.11.36-1.01 1.67-.85 4.03 1.28 4.65 1.63.48 3.68.16 5.33-.02 2.8-.3 5.58-1.1 8.33-1.7 1.38-.3 1.8-1.91 1.23-3.03-3.49-7-9.81-12.61-16.87-15.86-8.15-3.76-17.35-4.63-26.17-3.25-4.36.68-9.05 2.04-11.97 5.57-1.21 1.46.67 3.42 2.11 2.11Z"/><path d="M46.6 78.22c-1-2.94-1.7-5.98-1.92-9.08-.14-2.06-.59-5.58 1.31-7.03.97-.74 2.35-.98 3.49-1.29a149.4 149.4 0 0 1 33.09-5.18c3.16-.14 6.32-.17 9.48-.11 3.02.06 6.15.05 9.14.47 3.2.45 3.54 3.56 4.04 6.23.68 3.59 1.34 7.18 2.01 10.77.37 1.96 3.73 1.54 3.51-.48-.39-3.65-.9-7.28-1.56-10.89-.52-2.87-1.03-6.11-3.43-8.08-2.55-2.09-6.35-1.88-9.46-2.04-3.63-.18-7.26-.22-10.9-.13-7.13.17-14.26.85-21.3 2.01-3.58.59-7.15 1.32-10.68 2.17-1.69.41-3.37.84-5.05 1.31-1.62.45-3.28.89-4.65 1.9-2.9 2.15-3.12 5.91-2.88 9.22.28 3.98 1.22 7.8 2.79 11.46.72 1.67 3.52.48 2.94-1.24Z"/><path d="M42.34 70.99c16.66-1.32 33.29-3.04 49.95-4.52l7.17-.63c1.01-.09 3.95-.78 4.7.28 1.29 1.82 4.32.03 3-1.75-2.33-3.14-6.6-1.96-9.92-1.6q-6.675.735-13.35 1.41c-8.82.89-17.64 1.77-26.46 2.65-5.04.5-10.06 1.09-15.08 1.67-1.54.18-1.61 2.6 0 2.47Zm66.16-14.65c3.95-5.42 11.97-5.29 16.94-1.52 6.25 4.75 7.73 12.97 7.08 20.37-.19 2.16 2.81 2.62 3.83 1.04 2.28-3.53 7.27-4.28 10.98-2.81 4.69 1.86 7.19 6.56 9.05 10.95.86 2.04 3.96.55 3.47-1.46-1.45-5.95-5.87-11.64-11.78-13.63-5.48-1.85-12.1-.1-15.27 4.88l3.83 1.04c.6-7.28-.8-14.87-5.64-20.55-4.17-4.91-10.71-7.63-17.08-5.97-3.41.88-6.36 3.05-8.19 6.06-1.09 1.8 1.58 3.25 2.77 1.62Z"/><path d="M118.33 50.91c-1.21.93-2.08 2.36-2.84 3.67s-1.42 2.73-1.98 4.16c-.53 1.35-.94 2.75-1.24 4.17-.32 1.5-.68 3.18-.48 4.71.09.67.45 1.24 1.17 1.33.65.08 1.32-.3 1.48-.97.33-1.36.39-2.78.68-4.15s.67-2.65 1.14-3.93 1.02-2.44 1.67-3.6 1.66-2.33 2.2-3.59c.24-.55.24-1.15-.21-1.6-.38-.38-1.14-.56-1.6-.21Zm9.22 3.33c-2.33 2.84-4.01 6.03-4.96 9.59-.89 3.35-1.47 7.43-.53 10.84.39 1.42 2.55 1.13 2.56-.35.02-1.67-.15-3.33-.05-5.01s.36-3.17.77-4.72c.83-3.16 2.26-6.19 4.13-8.86.79-1.13-1.04-2.57-1.93-1.49Zm19.58 19.45a27.7 27.7 0 0 0-2.94 6.25c-.35 1.06-.63 2.14-.82 3.23-.21 1.19-.52 2.55-.3 3.76.27 1.44 2.33 1.24 2.71 0 .31-1 .23-2.16.41-3.2s.4-2.05.69-3.05a24.6 24.6 0 0 1 2.44-5.71c.82-1.42-1.32-2.65-2.19-1.28"/><path d="M50.16 58.1c-3.26-.11-6.85-2.36-6.8-5.62.05-2.75 2.6-4.78 5.1-5.91 3.23-1.47 6.75-2.16 10.24-2.76 21.27-3.6 43.13-3.69 64.43-.26 2.49.4 5.12.92 6.99 2.61s2.55 4.96.72 6.7c-6.15-5.5-16.39-5.63-22.67-.28-.44.38-.88.78-1.42.98-.57.21-1.2.16-1.81.1-18.88-1.61-38.35-2.24-56.29 3.85"/><path d="M50.16 56.57c-1.91-.25-4.71-1.58-4.9-3.77-.21-2.56 3.04-4.13 5-4.88 3.26-1.25 6.75-1.82 10.19-2.35s7.18-1.04 10.79-1.4c14.36-1.45 28.88-1.32 43.22.34 3.72.43 7.64.75 11.26 1.77 1.36.38 2.85.98 3.59 2.27.47.8.77 2.08.08 2.86h2.93c-3.73-3.16-8.56-4.84-13.45-4.72-2.5.06-4.97.57-7.27 1.54-1.05.44-2.07.95-3.02 1.59s-1.85 1.82-2.94 1.91c-1.4.12-2.98-.24-4.38-.35-1.62-.13-3.24-.24-4.86-.35-3.09-.2-6.19-.34-9.29-.42-6.24-.15-12.5 0-18.71.66-6.87.73-13.76 2-20.28 4.31-2.43.86-1.43 4.7 1.08 3.9 11.35-3.62 23.01-4.94 34.9-4.87 6.04.03 12.07.37 18.09.85 1.35.11 2.78.36 4.14.23 1.5-.15 2.42-1.01 3.55-1.9 1.66-1.32 3.64-2.2 5.69-2.69 4.8-1.16 10.13-.09 13.83 3.25.84.76 2.09.81 2.93 0 2.56-2.49 2.09-6.51-.1-9.09-2.44-2.88-6.45-3.46-9.95-4-8.53-1.31-17.13-2.1-25.76-2.28-8.6-.18-17.2.19-25.75 1.12-4.29.47-8.57 1.06-12.81 1.81-3.89.69-7.95 1.52-11.44 3.48-3.18 1.79-6.08 5.29-4.69 9.14 1.23 3.4 4.89 5.17 8.34 5.11 2.03-.03 1.9-2.82 0-3.06Z"/><path d="M45.02 53.42c-1.22-4.6-1.29-9.35.36-13.86 1.33-3.64 3.78-6.83 6.66-9.39 6.65-5.91 15.66-8.23 24.33-9.06 4.86-.47 9.78-.62 14.66-.6 4.88.01 9.78.27 14.58 1.2 8.22 1.58 16.05 5.15 21.56 11.61 2.6 3.05 4.7 6.96 5.23 10.98.46 3.54-.32 7.54-3.61 9.44-2.3 1.33-.28 4.49 2.03 3.48 3.87-1.69 5.56-5.99 5.87-9.94.34-4.25-1.07-8.56-3.14-12.23-4.51-7.98-12.65-13.39-21.26-16.07-10.33-3.22-21.59-3.06-32.28-2.39-9.98.62-20.31 2.49-28.45 8.7-4.07 3.11-7.42 7.03-9.36 11.81-2.18 5.37-2.36 11.78-.12 17.16.73 1.75 3.46 1.15 2.94-.81Z"/><path d="M81.59 17.68c-.38-.99-1.1-1.9-1.47-2.85-.34-.88-.37-1.43-.1-2.15-.11.29.09-.14.13-.2-.22.35.36-.31.09-.11.02-.01.51-.26.26-.16.25-.1.52-.16.78-.2-.32.05.24-.01.3-.02.29-.02.58-.02.87-.03.59-.01 1.18-.02 1.77-.02 1.18 0 2.37.04 3.55.13.27.02.53.03.8.07-.35-.05.11.03.21.05.24.05.48.11.7.2-.37-.15.11.09.16.11-.17-.14-.17-.14 0 .01.15.16.15.17 0 0 .16.47-.02-.12.01-.11.01.12.01.25 0 .37.04-.21.03-.2-.01.04-.05.19-.1.38-.16.57-.34 1.05-.93 2.14-.82 3.27.09.95.66 1.77 1.67 1.89.93.11 1.86-.44 2.11-1.38s.54-1.82.84-2.74c.38-1.19.43-2.41-.08-3.57-.92-2.07-3.26-2.58-5.29-2.72-2.3-.16-4.69-.27-6.98.03s-4.29 1.7-4.67 4.11c-.21 1.34 0 2.58.56 3.81.23.52.52.99.86 1.45.4.54.84 1.19 1.37 1.61s1.22.62 1.87.24c.55-.32.95-1.11.71-1.74ZM46.82 36.36c.68-1.12 1.66-2.9 3.15-3 1.37-.09 2.63 1.21 3.66 1.93 3.13 2.19 6.49 1.65 9.48-.54 2.56-1.88 5.12-5.2 8.68-3.99 1.75.59 3.01 2.02 4.74 2.65 1.52.55 3.29.61 4.85.23 3.14-.75 5.35-3.52 8.3-4.72 3.19-1.3 4.95 1.08 7.06 3.01s4.98 3.21 7.74 1.77c1.91-1 3.76-4.35 6.17-4.05 1.04.13 1.83 1.17 2.5 1.88.99 1.05 1.98 2.13 3.25 2.86 4.1 2.36 8.21.07 11.46-2.58 1.78-1.45-.78-4.05-2.54-2.54-1.32 1.14-2.79 2.28-4.52 2.68-1.64.38-2.95-.43-4.09-1.53-1.76-1.69-3.36-3.96-6.05-4.04-3.08-.09-4.76 2.34-6.92 4.04-2.37 1.85-4.32-.55-5.99-2.16-2.31-2.23-4.93-3.4-8.15-2.38-1.61.51-3.06 1.33-4.46 2.26-1.27.84-2.54 1.95-4 2.45-1.58.54-3.16.14-4.53-.74-1.58-1.02-3.01-2.1-4.92-2.45-3.77-.7-6.59 1.51-9.27 3.82-1.37 1.18-3.19 2.66-5.13 2.44-1.67-.19-2.97-1.73-4.41-2.47-1.53-.78-3.19-.96-4.75-.17s-2.68 2.49-3.55 4.04c-.81 1.46 1.37 2.74 2.24 1.31Zm-9.9 122.79c1.49-2.34 3.08-4.61 4.94-6.68.52-.58 1.67-2.29 2.51-2.01 1.05.34 2 2.14 2.66 2.95 3.83 4.72 7.73 9.37 11.57 14.07.56.68 1.86.65 2.42 0a169 169 0 0 1 10.73-11.28q.855-.825 1.71-1.62c.34-.32.69-.64 1.04-.96.15-.14 1.06-.7.52-.51h-.98c-.22-.22-.16-.16.21.18l.48.45c.38.35.74.7 1.12 1.06.64.61 1.28 1.21 1.9 1.83 1.41 1.39 2.77 2.83 4.09 4.3 2.59 2.88 4.96 5.93 7.12 9.14.78 1.15 2.55 1.31 3.29 0 3.9-6.88 8.95-13.04 14.77-18.38h-2.89c5.52 4.96 10.64 10.27 15.89 15.49.9.9 2.46.7 3.1-.4 4.12-7.1 8.89-13.56 14.9-19.19h-2.91c2.99 2.86 5.49 6.03 8.16 9.17l.89-3.38-1.13.24c-2.12.45-1.68 3.99.52 3.82l1.15-.09c1.44-.11 2.64-1.66 1.75-3.04-2.28-3.54-5.38-6.75-8.43-9.64-.82-.78-2.09-.78-2.91 0-6.11 5.77-11.58 12.59-15.4 20.11 1.03-.13 2.07-.27 3.1-.4-4.74-5.63-10.25-10.76-15.8-15.59-.85-.74-2.04-.8-2.89 0-5.99 5.68-11.03 12.22-15.17 19.35h3.29c-4.3-6.54-9.43-12.71-15.55-17.63-.79-.64-1.6-1.16-2.67-.94-1 .21-1.76 1.13-2.46 1.79-1.49 1.4-2.95 2.84-4.38 4.29-2.98 3.03-5.84 6.17-8.59 9.41h2.42c-2.28-2.8-4.51-5.65-6.8-8.45-1.14-1.4-2.29-2.8-3.43-4.2-1.06-1.3-2.07-2.73-3.3-3.89-1.07-1.01-2.43-1.77-3.94-1.52s-2.61 1.48-3.62 2.61c-2.18 2.44-4.11 5.13-5.58 8.06-.85 1.7 1.53 3.12 2.56 1.5Z"/></svg>