<?xml version="1.0" encoding="UTF-8"?><svg xmlns="http://www.w3.org/2000/svg" viewBox="0 0 180 180"><path d="M46.2 97.47c-4.41-4.92-9.41-9.99-15.77-12.25-6.03-2.14-12.61-.51-16.97 4.16-10.35 11.11-4.27 27.14 2.07 38.6 3.37 6.1 7.43 11.82 12.02 17.07 4.55 5.2 9.69 10.27 15.53 14.01 5.63 3.6 12.83 5.65 19.33 3.19 6.22-2.35 9.75-8.27 10.5-14.68.95-8.16-2.75-16.43-6.28-23.57s-8.14-14.1-13.84-19.98c-1.05-1.08-3.09.38-2.15 1.66 3.87 5.23 7.52 10.7 10.65 16.4 3.15 5.73 6.12 11.95 7.4 18.41 1.09 5.47.4 11.92-3.98 15.85-4.39 3.93-11.17 3.24-16.12.88-5.57-2.66-10.27-7.1-14.53-11.49-4.41-4.54-8.34-9.51-11.74-14.84s-6.48-11.01-8.46-17.01c-1.89-5.73-2.69-12.2.1-17.79 2.64-5.29 7.92-8.84 13.97-7.49 6.47 1.45 11.56 6.52 15.95 11.18 1.45 1.54 3.7-.75 2.31-2.31Z"/><path d="M23.59 86.9c-20.64 4.87 10.22 44.31 16.97 51.44 10.75 11.37 21.38 17.35 27.23 16.27-4.34 2.34-10.25 5.2-14.95 3.71-4.7-1.5-9.63-4.73-13.42-7.88-10.93-9.09-19.37-22.53-24.44-35.81-1.63-4.26-2.92-8.73-2.93-13.29-.01-4.62 2.49-8.83 5.57-12.11"/><path d="M23.24 85.62c-5.28.87-8.3 5.11-8.25 10.32.06 5.97 2.8 11.86 5.5 17.04 3.1 5.94 6.83 11.53 10.83 16.9 3.39 4.54 6.94 8.93 11.02 12.87s8.97 8.02 14.22 10.83c3.54 1.89 7.63 3.52 11.71 2.81-.48-1.13-.95-2.26-1.43-3.39-2.7 1.45-5.47 2.84-8.47 3.52s-5.73-.07-8.53-1.46c-5.74-2.84-10.74-7.04-15.1-11.69-4.35-4.64-8.07-9.83-11.25-15.33-3.25-5.62-6.12-11.61-8.02-17.83-1.03-3.37-1.97-7.25-1.36-10.79.59-3.4 2.55-6.37 4.86-8.85 1.68-1.81-1.03-4.54-2.72-2.72-2.32 2.5-4.28 5.35-5.35 8.62-1.15 3.5-.85 7.23-.14 10.78 1.38 7.01 4.59 13.87 7.97 20.13 6.55 12.14 15.97 24.1 28.43 30.55 3.54 1.84 7.03 3.08 11.05 2.42 3.73-.61 7.22-2.39 10.52-4.15 1.97-1.06.53-3.72-1.43-3.39-.15.02-.28.04-.68.06-.28 0-.56 0-.85-.01-.71-.04-1.32-.16-2.07-.36-1.68-.43-3.28-1.11-4.82-1.9-4.35-2.24-8.28-5.27-11.9-8.54-4.13-3.74-7.89-7.99-11.23-12.31-3.78-4.9-7.33-10.02-10.48-15.36-2.94-4.97-5.8-10.34-6.84-16.07-.2-1.12-.31-2.34-.23-3.6.05-.82.33-2.08.68-2.76.99-1.95 2.79-3.05 5.06-3.79 1.65-.54.96-2.84-.71-2.56Z"/><path d="M14.86 92.45c5.14-4.37 11.08-7.7 17.02-10.83 1.55-.82 3.1-1.63 4.64-2.46s3.02-1.79 4.62-2.41c3.19-1.23 6.46-1.04 9.72-.24C62.12 79.27 70.2 88.3 77.02 97.16c3.7 4.8 6.96 10.02 9.38 15.58s3.91 11.3 3.32 17.18c-.12 1.24-.39 2.47-.74 3.66-.1.34-.21.69-.33 1.03-.02.05-.48 1.12-.15.44-.15.32-.32.62-.51.91-.45.69-.59.85-1.23 1.56s-1.36 1.44-2.08 2.12c-3.49 3.32-7.33 6.28-11.12 9.25-1.93 1.51-3.87 3-5.77 4.54-1.45 1.17-2.89 2.87-4.57 3.68-2.12 1.02-4.58.17-6.74-.47-3-.88-6.06-1.6-9.2-1.18-1.03.14-1.92.78-1.92 1.92 0 .95.88 2.04 1.92 1.92 2.9-.33 5.54.38 8.29 1.24 2.51.79 5.03 1.53 7.69 1.03 2.41-.46 4.04-2.1 5.81-3.64 1.51-1.31 3.1-2.53 4.67-3.76 4.05-3.17 8.15-6.31 11.97-9.76 1.6-1.45 3.19-2.95 4.56-4.62 1.42-1.73 2.27-3.46 2.84-5.64 3.34-12.62-3.26-26.12-10.33-36.22-3.53-5.04-7.58-9.85-11.94-14.2-4.32-4.31-9.29-7.97-15.08-10.04-3.17-1.13-6.73-1.99-10.11-1.87-3.96.14-7.14 1.74-10.55 3.6-6.36 3.46-12.91 6.7-18.6 11.23-1.38 1.1-2.67 2.28-3.91 3.54-1.46 1.48.71 3.57 2.25 2.25Z"/><path d="M67.41 82.72c14.42-10.17 28.24-21.27 41.94-32.38 6.92-5.61 13.79-11.28 20.62-17.01 3.26-2.73 6.43-5.61 9.8-8.2 2.78-2.13 6.02-4.17 9.62-4.29 5.31-.18 10.1 3.38 13.29 7.36 3.4 4.25 5.66 9.93 5.07 15.42-.33 3.05-1.72 5.7-3.85 7.88-2.93 3-6.39 5.56-9.62 8.22a1350 1350 0 0 1-20.05 16.19c-13.09 10.37-26.36 20.5-39.64 30.62-1.79 1.36-3.58 2.73-5.36 4.09-.92.7-1.41 1.86-.77 2.95.53.91 2.02 1.48 2.95.77 14.09-10.73 28.2-21.44 42.12-32.39 6.9-5.43 13.76-10.92 20.56-16.49 3.55-2.91 7.13-5.79 10.6-8.79 2.94-2.54 5.44-5.43 6.64-9.19 1.91-5.99.37-12.66-2.62-18.02s-7.77-10.08-13.69-11.99c-2.99-.97-6.26-1.06-9.29-.18-3.94 1.15-7.21 3.68-10.31 6.26-7.11 5.92-14.15 11.92-21.29 17.8C99.89 53.06 85.42 64.46 70.9 75.83c-1.83 1.43-3.62 2.9-5.43 4.36-1.39 1.13.45 3.55 1.93 2.5Z"/><path d="M59.5 75.92c2.75-2.26 5.78-4.25 8.64-6.38 2.85-2.12 5.75-4.18 8.68-6.19 2.79-1.91 5.6-3.98 8.59-5.57 1.38-.74 2.78-1.08 4.32-.69 1.69.42 3.17 1.73 4.9 1.81 1.25.06 2.31-1.57 1.52-2.65-1.09-1.48-3.25-2.26-4.99-2.75s-3.52-.55-5.23-.03c-1.78.53-3.34 1.58-4.87 2.59-1.65 1.09-3.29 2.19-4.91 3.32-3.25 2.26-6.45 4.58-9.59 6.98s-6.01 5.06-9.06 7.56c-1.41 1.16.6 3.15 2 2m19.81-3.09c5.52 3.06 10.42 7.15 14.19 12.24 1.85 2.5 3.44 5.19 4.71 8.03.65 1.44 1.18 2.94 1.64 4.46.43 1.43.52 3.48 1.41 4.68.79 1.06 2.54 1.05 2.94-.38.45-1.62-.39-3.69-.86-5.26s-1.06-3.12-1.72-4.63a42.7 42.7 0 0 0-5.14-8.85c-4.1-5.44-9.47-10.01-15.73-12.75-1.64-.72-3.09 1.55-1.44 2.47Zm54.86-44.57c1.39.76 2.9 1.28 4.28 2.08 1.37.8 2.67 1.72 3.86 2.76 2.44 2.13 4.5 4.64 6.2 7.4 1.77 2.89 3.15 5.99 4.24 9.19 1.18 3.48 2.04 7.03 1.57 10.72-.12.98.92 1.8 1.8 1.8 1.08.01 1.68-.84 1.8-1.8.52-3.97-.42-7.94-1.7-11.68-1.22-3.55-2.76-7.03-4.76-10.21-1.91-3.04-4.23-5.84-7.02-8.12-1.35-1.1-2.77-2.12-4.3-2.97-1.43-.8-3.17-1.71-4.81-1.96s-2.81 1.88-1.17 2.78Z"/><path d="M66.6 81.34c5.86 1.84 11.59 3.57 17 6.48 6.54 3.53 13.25 7.18 18.02 12.89a41.7 41.7 0 0 0-11.31 9.12c-4.05-7.98-9-15.51-14.73-22.39-1.26-1.52-2.59-3.02-4.23-4.12"/><path d="M65.95 82.47c3.14 1.47 6.48 2.48 9.7 3.77 3.2 1.27 6.24 2.73 9.25 4.39 5.53 3.04 11.46 6.35 15.39 11.42.13-.99.25-1.98.38-2.96-4.46 2.23-8.46 5.65-11.74 9.37l3.05.39c-2.58-5.07-5.51-9.96-8.78-14.62-1.62-2.31-3.32-4.56-5.08-6.77-1.73-2.16-3.49-4.25-5.75-5.87-2.08-1.49-4.15 2.01-2.02 3.45s3.61 3.46 5.15 5.36c1.71 2.11 3.33 4.29 4.88 6.53 3.06 4.43 5.81 9.07 8.26 13.88.55 1.07 2.25 1.3 3.05.39 3.17-3.6 6.83-6.36 10.89-8.86 1.06-.65 1.22-2.06.38-2.96-4.62-4.98-10.07-8.6-16.01-11.84-6.25-3.41-12.94-6.24-19.99-7.45-1.34-.23-2.45 1.71-1.01 2.38"/><path d="M67.87 81.37a297 297 0 0 0 36.26-27.71c2.98-2.66 5.9-5.38 8.95-7.97 3.03-2.57 6.18-5 9.32-7.42l6.93-5.34c1.54-1.19 3.2-2.42 5.14-2.53 2.87-.16 5.21 2.13 7.14 4.25 5.61 6.14 11.51 12.91 12.25 21.19.11 1.21.1 2.46-.33 3.59-.3.8-.8 1.51-1.32 2.18-5.47 7.13-13.55 11.66-21.1 16.53a202 202 0 0 0-26.13 20.02c-2.58 2.33-5.2 4.8-8.5 5.89s-7.5.35-9.28-2.63"/><path d="M68.63 82.66c11.7-7.39 22.83-15.58 33.35-24.58 5.3-4.54 10.36-9.36 15.81-13.73 2.74-2.2 5.53-4.32 8.31-6.47 1.35-1.04 2.69-2.08 4.04-3.12 1.17-.9 2.53-2.12 4.05-2.37 2.55-.41 4.68 2.41 6.18 4.06 1.98 2.18 3.95 4.37 5.7 6.74 1.7 2.3 3.29 4.78 4.31 7.45.9 2.35 2.13 6.01.88 8.41-1.33 2.55-3.87 4.76-6 6.62-2.31 2.01-4.81 3.78-7.36 5.46-5.45 3.6-11.04 6.98-16.35 10.79-6.19 4.44-12.14 9.21-17.8 14.31-2.43 2.18-4.95 4.79-8.18 5.73-2.18.63-5.11.39-6.47-1.68-1.54-2.33-5.27-.21-3.78 2.21 1.63 2.65 4.42 3.98 7.46 4.21 3.19.24 6.3-1.04 8.86-2.85 2.89-2.04 5.4-4.59 8.06-6.9 2.8-2.43 5.67-4.8 8.61-7.07 5.6-4.34 11.46-8.29 17.45-12.07 5.62-3.56 11.35-7.22 15.9-12.13 2.53-2.73 4.69-5.5 4.47-9.41-.19-3.32-1.21-6.52-2.67-9.49-1.45-2.95-3.4-5.62-5.47-8.16-1.93-2.37-3.95-4.78-6.18-6.88-2.36-2.23-5.33-3.91-8.67-3.15-1.67.38-3.12 1.35-4.46 2.36-1.53 1.16-3.04 2.35-4.56 3.52-6.08 4.69-12.12 9.39-17.8 14.57C93.99 60.3 81.01 70.76 67.13 80.05c-1.59 1.06-.13 3.63 1.51 2.59Z"/></svg>