<?xml version="1.0" encoding="UTF-8"?><svg xmlns="http://www.w3.org/2000/svg" viewBox="0 0 180 180"><path d="M94.3 32.5c-15.27-2.21-30.68-2.59-46-.71-3.58.44-7.22.85-10.74 1.66-3.02.7-6.05 2.49-6.34 5.89-.31 3.57 2.56 6.29 5.69 7.38 1.49.52 3.08.7 4.63.91 1.99.27 3.97.53 5.96.77 15.26 1.82 30.66 2.62 46.02 3.21 14.59.56 29.41.53 43.69-2.91 1.94-.47 3.87-1 5.78-1.6 1.64-.52 3.42-1.09 4.61-2.41 2.8-3.12.63-6.93-2.51-8.66-1.58-.87-3.29-1.28-5.03-1.65-2.05-.44-4.12-.83-6.2-1.15-4.29-.65-8.65-1.19-13-1.27-2.1-.04-1.98 2.95 0 3.19 6.79.83 13.72 1.78 20.24 3.96.94.31 1.92.8 2.62 1.51.21.21.51.48.51.75 0-.24-.01.02-.27.25-.87.76-2.49.96-3.56 1.28q-2.43.735-4.89 1.32c-12.73 3.05-25.93 3.24-38.95 2.86-13.75-.39-27.52-1.01-41.21-2.33-3.43-.33-6.85-.71-10.26-1.15-1.51-.19-3.03-.38-4.54-.64-1.31-.23-2.79-.49-3.84-1.37-.54-.45-1.19-1.36-.96-2.11.27-.91 1.58-1.28 2.36-1.5 3.09-.87 6.42-1.21 9.6-1.67 15.25-2.17 30.9-2.46 46.21-.82 1.69.18 2.11-2.75.4-2.99Z"/><path d="M114.08 49.07c3.21-7.2 6.4-14.33 10.42-21.12.69-1.16 1.36-2.99 2.78-3.37 1.9-.51 4.01-.59 5.96-.83 4.19-.52 8.57-.71 12.63-1.9 1.77-.52 1.21-2.78-.4-2.99-4.49-.59-9.21.18-13.68.74-2.08.26-4.43.31-6.39 1.07-1.86.72-2.88 2.29-3.86 3.94-4.3 7.23-8.12 15.1-10.28 23.26-.43 1.64 2.1 2.86 2.84 1.2ZM58.02 31.79c-1.11-7.44.95-15.66 8-19.43 10.17-5.45 25.51-1 30.74 9.37 3.44 6.8 1.75 16.17-4.6 20.38 1.68-2.13 2.31-4.9 2.68-7.59.05-.36.09-.75-.11-1.06-.22-.33-.64-.44-1.03-.52a95.8 95.8 0 0 0-34.09-1.03"/><path d="M59.65 31.79c-.53-4.82.19-10.27 3.31-14.17 2.95-3.67 7.61-5.3 12.2-5.42 8.88-.23 19.06 4.88 20.93 14.23 1.01 5.05-.7 10.83-5.01 13.85l2.9 2.9c1.14-1.57 1.87-3.41 2.31-5.29.37-1.59 1.05-3.92.16-5.43-.98-1.67-3.59-1.74-5.26-2.04-2.13-.38-4.27-.69-6.42-.95-8.55-1-17.21-.81-25.73.4-1.14.16-1.77 1.62-1.49 2.62.33 1.22 1.48 1.67 2.62 1.49 5.63-.87 11.31-1.21 17-1.02 2.78.09 5.55.31 8.31.64 1.4.17 2.79.38 4.17.62.7.12 1.41.25 2.11.39.31.06.62.12.93.19.21.04.41.08.61.13q.3.09 0-.03l-.52-.89c.34.87-.39 2.7-.66 3.58-.39 1.27-.98 2.4-1.79 3.45-1.31 1.7 1.22 4.02 2.9 2.9 5.05-3.35 7.64-9.44 7.4-15.4s-3.13-11.13-7.68-14.75c-8.62-6.86-23.26-8.81-31.72-.54-5.03 4.92-5.96 12.34-4.79 18.97.31 1.79 3.41 1.4 3.21-.43M33.06 44.17c13.73 18.22 31.9 32.17 47.84 48.29 1.87 1.89 3.37 3.86 3.68 6.58.34 3.04.27 6.17.31 9.22.09 6.17.04 12.34.05 18.51 0 3.13.03 6.25.09 9.38.03 1.48.08 2.96.13 4.44.04 1.17.13 1.7-1.01 2.16s-2.36.65-3.52 1c-1.38.41-2.73.87-4.08 1.37-2.63.98-5.23 2.09-7.78 3.27s-4.68 3.79-2.99 6.59c1.49 2.47 5.24 3.07 7.81 3.6 3.25.67 6.58.97 9.9 1.08s6.67-.19 10-.21c2.52-.01 2.51-3.85 0-3.91-2.96-.06-5.9-.24-8.86-.36-2.69-.11-5.37-.2-8.03-.64-1.37-.22-2.72-.51-4.06-.87-.65-.18-1.32-.35-1.96-.59-.15-.06-.8-.47-.9-.4-.14.09 1.45-1.93.02.3-.32.5 0 .04.1-.01.42-.23.8-.49 1.24-.69 1.22-.57 2.46-1.1 3.69-1.64 2.45-1.07 4.91-2.11 7.46-2.93 2.2-.71 4.8-1.15 6.21-3.2.76-1.1.87-2.39.84-3.69-.04-1.65-.12-3.29-.15-4.94-.07-3.04-.09-6.09-.1-9.13-.02-6.09.03-12.18-.07-18.27-.05-3-.05-6.02-.29-9.01-.23-2.83-1.07-5.28-2.82-7.53-1.63-2.09-3.64-3.88-5.56-5.71a544 544 0 0 0-6.09-5.73c-4.09-3.8-8.21-7.57-12.31-11.35-9.24-8.51-18.21-17.32-26.44-26.82-1.09-1.26-3.35.44-2.33 1.8Z"/><path d="M145.51 42.37c-7.39 8.53-15.36 16.52-23.62 24.21-8.19 7.63-16.64 15.01-24.56 22.92-1.83 1.83-3.52 3.84-4.37 6.31-.98 2.82-.8 6.06-.88 9-.16 6.09-.14 12.18-.14 18.27 0 3.13 0 6.25-.05 9.38s-.27 6.03-.23 9.04c.04 2.83 1.79 4.48 4.32 5.39s5.11 1.61 7.6 2.65c2.54 1.06 5.1 2.16 7.52 3.47.09.05.43.51.1.01-.58-.89.21-.19-.02-.3-.09-.04-.83.39-1.01.46-1.53.56-3.18.9-4.78 1.2-3 .55-6.06.74-9.1.83-3.26.09-6.51.3-9.77.37-2.51.05-2.52 3.89 0 3.91 2.88.02 5.75.24 8.63.25s5.77-.2 8.62-.57c3.67-.48 13.89-1.6 11.69-7.62-.93-2.54-3.96-3.42-6.21-4.4-2.52-1.1-5.09-2.12-7.72-2.97-1.3-.42-2.63-.76-3.95-1.13-.8-.22-1.73-.39-1.85-1.32-.2-1.45.09-3.1.12-4.56.04-1.56.06-3.13.08-4.69.07-6.25 0-12.51.03-18.76.01-3.13.05-6.25.13-9.38.07-2.75-.2-5.95 1.18-8.44 1.26-2.29 3.37-4.06 5.23-5.85 2.06-1.99 4.14-3.96 6.23-5.91 4.19-3.91 8.43-7.77 12.6-11.7 9.41-8.85 18.71-17.9 26.51-28.24 1.01-1.34-1.23-3.07-2.33-1.8Z"/><path d="M71.53 149.52c-8.22.52-16.36 2.27-24.06 5.17-2.55.96-5.46 2.6-5.54 5.33-.05 1.63 1.04 3.13 2.4 4.02s2.99 1.28 4.59 1.63c23.96 5.29 48.97 5.67 73.14 1.41 4.06-.72 8.26-1.63 11.52-4.16 1.12-.87 2.12-1.95 2.58-3.29s.25-2.96-.77-3.94c-.88-.85-2.16-1.08-3.36-1.27-5.45-.89-13.82-2.07-19.28-2.96.22 1.72 1.99 3.68.5 4.58s-3.25 1.19-4.96 1.44c-12.99 1.88-26.22 2.45-39.24.8-1.8-.23-3.8-.61-4.88-2.08s-.15-4.2 1.65-3.96"/><path d="M71.53 148.09c-5.98-.26-11.98.84-17.74 2.38-2.82.75-5.68 1.6-8.35 2.79-2.06.92-4.12 2.29-5.08 4.41-1.13 2.49-.36 5.3 1.58 7.16s4.74 2.52 7.35 3.09c6.03 1.3 12.12 2.27 18.25 2.97 12.11 1.38 24.36 1.57 36.51.59 6.14-.49 12.27-1.28 18.34-2.34 5.04-.88 10.95-2.17 14.34-6.37 1.8-2.23 2.49-5.44.72-7.9s-4.81-2.5-7.43-2.9c-5.57-.86-11.14-1.64-16.7-2.53-1.63-.26-2.86.9-2.56 2.56.14.77.43 1.96.89 2.6-.03.17.01.27.12.32.61-.71.64-.86.07-.47-.5.13-1 .41-1.52.54-2.22.58-4.57.77-6.84 1.04-5.07.6-10.17.98-15.27 1.09-5.02.11-10.04-.04-15.04-.5-2.01-.18-4.37-.17-6.27-.94-.49-.2-1.06-.53-1.1-1.05-.03-.29.11-.29.13-.52-.02.15-.77.09-.09.11 2.6.11 2.56-3.84 0-4.02-1.9-.13-3.46 1.3-3.97 3.06-.56 1.92.06 3.87 1.59 5.14 1.73 1.43 3.94 1.73 6.09 1.99 2.49.31 4.99.53 7.5.68 10.31.62 20.64-.05 30.85-1.48 2.36-.33 5.55-.59 7.26-2.49 1.76-1.96 0-4.15-.38-6.22l-2.56 2.56c4.35.71 8.71 1.34 13.06 2 2.07.31 4.14.62 6.21.97 1.64.28 3.53.75 2.57 2.84-.85 1.86-3.14 3.07-4.93 3.82-2.16.91-4.5 1.39-6.8 1.81-5.26.97-10.57 1.67-15.89 2.16-10.79 1-21.67 1.07-32.47.21-5.29-.42-10.56-1.07-15.79-1.96-2.67-.45-5.33-.97-7.98-1.54-1.95-.42-4.52-.74-5.74-2.54s.88-3.21 2.32-3.94c2.39-1.22 5.11-1.97 7.67-2.74 5.73-1.71 11.61-2.61 17.48-3.65 1.65-.29 1.16-2.74-.38-2.81ZM49.81 61.18c.92 1.95 3.12 2.84 5.13 3.18 2.7.47 5.47.48 8.2.31 5.6-.36 11.14-1.61 16.76-1.63 5.55-.01 10.92 1.39 16.24 2.82 5.15 1.39 10.18 2.56 15.53 2.88 2.76.16 5.52.05 8.24-.44 1.38-.25 2.74-.61 4.04-1.11 1.44-.55 2.53-1.22 3.75-2.13 1.71-1.28.28-3.9-1.7-2.91-4.09 2.04-8.53 2.93-13.09 2.74-4.82-.2-9.61-1.65-14.24-2.91-5.09-1.38-10.23-2.83-15.52-3.21s-10.48.62-15.65 1.52c-2.91.51-5.81.99-8.76 1.05-2.31.05-5.24.2-6.83-1.77-1.01-1.25-2.68.34-2.09 1.61Z"/><path d="M96.27 63.11c9.58-4.26 20.59-6.47 30.58-3.29.66.21 1.4.52 1.63 1.17.38 1.06-.82 1.99-1.86 2.43-7.57 3.18-16.17 2.25-24.27.93"/><path d="M96.65 64.49c6.71-2.81 14.26-4.6 21.57-4.25 1.8.09 3.59.32 5.35.7.92.2 1.88.4 2.77.73.04.01.41.18.42.17l.09.05-.13-.82s-.81.57-.91.61c-3.19 1.59-6.95 2.06-10.47 2.1-4.2.05-8.38-.51-12.51-1.19-2.29-.38-3.26 3.13-.96 3.5 4.53.71 9.1 1.33 13.7 1.23 2.19-.05 4.38-.28 6.54-.67s4.49-.86 6.27-1.99c1.81-1.16 2.91-3.49 1.32-5.33-1.34-1.55-4.04-1.93-5.95-2.29-4.44-.85-9.03-.77-13.48-.04-5.18.84-9.98 2.68-14.71 4.88-1.46.68-.4 3.26 1.11 2.63Z"/></svg>