<?xml version="1.0" encoding="UTF-8"?><svg xmlns="http://www.w3.org/2000/svg" viewBox="0 0 180 180"><path d="M12.04 80.75c4.82-5.16 9.37-10.57 14.13-15.79s9.61-10.38 14.54-15.44c4.68-4.81 9.35-9.72 14.4-14.15 4.37-3.83 9.81-7.74 15.74-8.52 6.27-.82 11.05 3.33 15.01 7.61 4.37 4.73 8.74 9.44 13.53 13.75s10.3 8.6 15.9 12.31c2.68 1.77 5.66 3.75 9.01 3.63s6.25-1.63 9.38-2.59c6.69-2.05 13.84.2 19.5 3.92 6.11 4.01 10.68 9.81 15.42 15.27.7.81 2.08.72 2.8 0 .83-.83.66-1.96 0-2.8-7.93-10.02-18.12-20.83-31.9-20.94-3.33-.03-6.37.8-9.46 1.97-1.43.54-2.92 1.18-4.47 1.26-1.64.09-3.32-.56-4.76-1.3-3.01-1.55-5.81-3.62-8.55-5.59-2.76-1.98-5.47-4.02-8.1-6.16-5.28-4.29-10.25-8.91-14.82-13.96-4.11-4.54-8.53-9.24-14.88-10.24-6.5-1.02-12.56 1.59-17.75 5.32-5.61 4.03-10.4 9.08-15.22 13.99-5.61 5.73-11.1 11.57-16.41 17.58-5.39 6.11-10.84 12.27-15.63 18.87-1.1 1.51 1.32 3.33 2.58 1.99Z"/><path d="M10 81.32c9.5 1.99 16.51 12.13 15 21.71 3.44-3.91 8.9-6.12 14.02-5.13 5.11 1 9.51 5.46 9.9 10.65 2.8-4.29 9.82-4.86 13.27-1.09 1.99-4.9 7.7-7.97 12.88-6.93s9.27 6.06 9.24 11.34c3.59-4.39 10.65-5.41 15.34-2.21.6-2.23 2.51-4.06 4.77-4.54s4.75.4 6.21 2.19c.27-4.73 4.11-9.02 8.78-9.8s9.7 2.01 11.5 6.39c.61-3.11 3.2-5.73 6.3-6.37s6.52.73 8.32 3.34c-.02-3.95 3.72-6.84 7.33-8.43 1.73-.76 3.62-1.39 5.48-1.08s3.64 1.85 3.62 3.74c-1.84-2.61-2.1-6.24-.67-9.09 1.44-2.85 4.51-4.79 7.7-4.86-3.96-4.61-8.97-9.54-15.02-9-6.82.61-11.73 8.07-18.58 8.09-5.9.02-10.64-5.56-16.54-5.76-2.62-.09-3.47-.63-1.4-2.23 2.17-1.67 3.31 2.99 4.23 1.04 6.03-12.7 15.28-14.04 14.64-13.78-6.78 2.69-14.35 4.81-17.59 2.73-4.52-2.91-2.91-3.16-7.54-6.35-.8-.55-13.57-11.69-14.54-11.74-1.32-.06-3.48 2.43-4.43 3.35-1.96 1.9-3.73 4.05-6.04 5.5s-5.41 2.06-7.75.65c-1.39-.84-2.34-2.29-3.73-3.14-2.83-1.71-6.49-.44-9.39 1.14-2.9 1.59-5.95 3.54-9.23 3.09-5.18-.72-8.74-7.21-13.91-6.45-2.43.36-4.29 2.27-5.95 4.08-8.75 9.52-17.49 19.04-26.24 28.56"/><path d="M9.57 82.89c8.26 2.15 14.74 10.98 13.47 19.6-.13.91.09 1.81.94 2.31.76.44 1.87.35 2.48-.32 3.05-3.37 7.79-5.55 12.37-4.52 4.03.91 7.66 4.38 8.16 8.59.22 1.85 2.49 2.7 3.6.98 2.15-3.35 7.59-3.43 10.23-.7 1.12 1.15 2.7.42 3.23-.85 1.64-3.9 6.36-6.44 10.51-5.61 4.42.88 7.76 5.03 7.8 9.51.01 1.58 2.19 2.7 3.32 1.38 3.19-3.75 8.85-4.61 12.98-1.9 1.08.71 2.53-.02 2.87-1.17 1.07-3.57 5.4-4.25 7.75-1.52 1.17 1.36 3.13.16 3.25-1.35.31-3.89 3.57-7.45 7.48-7.94 3.93-.49 7.66 1.98 9.18 5.53.68 1.59 3.3 1.1 3.65-.48.53-2.34 2.22-4.26 4.57-4.87s4.97.43 6.35 2.33c1.15 1.59 3.77 1.12 3.82-1.03.07-2.87 2.69-4.8 5.01-6.02 1.36-.72 2.91-1.42 4.47-1.51 1.11-.06 2.79.41 2.85 1.76l3.83-1.04c-2.98-4.45-.26-10.6 5.26-10.85 1.85-.08 2.63-2.16 1.46-3.52-2.76-3.2-5.87-6.5-9.79-8.28-3.94-1.79-7.97-1.68-11.87.14-3.37 1.57-6.17 4.11-9.53 5.68-3.49 1.62-6.68.71-9.94-.98-2-1.04-3.96-2.16-6.08-2.95-1.13-.42-2.28-.69-3.48-.83-.55-.06-1.11-.05-1.66-.12-.08-.01-.4-.05-.36-.06-.36.04-.13-.18.1.11l.53.92c.12.45.05.81-.2 1.08.15-.16.3-.3.46-.44.12-.07.12-.08-.01-.03q-.195.045-.39 0c-.19-.03-.13-.07 0 .06.19.17.35.36.53.55.95.99 2.24 1.76 3.61.99.79-.44 1.11-1.22 1.5-1.99.43-.86.9-1.7 1.41-2.53.93-1.51 1.97-2.93 3.18-4.22 1.69-1.81 3.56-3.3 5.78-4.41l.63-.3c.35-.16-.34.11.21-.09.27-.1.54-.2.82-.29.21-.07.46-.1.66-.18s.57.03-.31.03c.29 0-.23 0-.45-.08l-1.25-.96.33-2.53c.24-.3.89-.5.06-.19-.42.15-.84.32-1.26.48-.7.26-1.4.51-2.11.74-1.62.54-3.27 1.03-4.94 1.4-1.92.43-4.65.99-6.41.22s-3-2.24-4.27-3.57c-.79-.83-1.68-1.55-2.6-2.23-.38-.28-.76-.57-1.15-.83.72.47.19.14.01 0-2.44-2.06-4.88-4.14-7.33-6.18-1.35-1.13-2.7-2.25-4.08-3.34-.9-.71-1.82-1.54-2.85-2.09-2.08-1.1-4.17.63-5.62 2-2.1 1.99-3.95 4.32-6.24 6.09-1.93 1.49-4.86 2.69-7.02.97-1.08-.86-1.93-1.95-3.1-2.71-1.33-.86-2.97-1.25-4.55-1.21-3.18.08-5.99 1.61-8.7 3.1-2.42 1.33-5.11 2.72-7.87 1.53-4.35-1.88-7.39-6.63-12.65-6.02-3.67.42-6.13 3.25-8.48 5.81-2.8 3.05-5.61 6.1-8.41 9.16-5.61 6.1-11.25 12.18-16.77 18.36-1.78 1.99 1.1 4.92 2.95 2.95 5.12-5.42 10.14-10.94 15.18-16.43l7.4-8.06c1.23-1.34 2.46-2.69 3.7-4.03.93-1.01 1.87-2.07 3.04-2.8 2.06-1.28 3.94-.52 5.81.7 2.02 1.33 3.82 3.03 6.03 4.07 2.79 1.31 5.71 1.36 8.59.25 2.9-1.12 5.41-3.14 8.42-3.97 1.18-.33 2.49-.49 3.64.03s2.02 1.75 3.03 2.56c2.61 2.1 6 2.29 9.05 1.05 3.02-1.22 5.22-3.6 7.45-5.88.79-.8 1.57-1.62 2.38-2.4.37-.36.74-.73 1.17-1.02 1.01-.69-.18.06-.6-.47.19.23.71.44.95.61.68.49.77.57 1.27.96 1.43 1.13 2.83 2.29 4.22 3.46 2.38 1.99 4.71 4.04 7.11 5.99 1.45 1.18 2.94 2.2 4.21 3.6 1.59 1.75 3.7 3.57 6.03 4.19 2.9.77 6.13.15 8.97-.55 1.69-.42 3.35-.94 4.99-1.51.85-.3 1.69-.61 2.53-.93.55-.21 1.39-.38 1.79-.88.59-.75.83-1.65.33-2.53-.9-1.58-2.8-.99-4.13-.48-2.15.82-4.08 2.01-5.88 3.44-2.65 2.11-4.83 4.8-6.58 7.69-.5.83-.97 1.68-1.4 2.55-.1.2-.32.46-.33.68 0 .06 1.98-.26 2.12-.42s.28.37.09.07c-.06-.1-.21-.21-.3-.3-.92-.94-1.92-1.86-3.34-1.87-1.58 0-3.19 1.26-3.89 2.62-.9 1.75.33 3.46 2.09 3.89.91.22 1.85.19 2.77.28s1.74.35 2.56.65c1.66.6 3.21 1.51 4.77 2.34 3.41 1.8 6.94 3.22 10.86 2.51 3.47-.62 6.42-2.76 9.3-4.65 3.16-2.07 6.54-4.03 10.43-2.9 4.22 1.22 7.44 4.86 10.21 8.07.49-1.17.97-2.35 1.46-3.52-3.85.18-7.56 2.27-9.39 5.73-1.89 3.54-1.65 7.99.58 11.32 1.06 1.59 3.93 1.13 3.83-1.04-.12-2.6-1.85-4.62-4.27-5.48-2.64-.94-5.48-.03-7.92 1.05-4.19 1.86-8.23 5.29-8.35 10.2 1.27-.34 2.55-.69 3.82-1.03-2.44-3.36-6.51-5.14-10.63-4.27-3.79.8-6.88 4.06-7.69 7.81l3.65-.48c-2.25-5.14-8.09-8.17-13.57-7.28s-9.92 6.08-10.33 11.7c1.08-.45 2.16-.9 3.25-1.35-2.02-2.32-5.24-3.38-8.24-2.67-2.9.69-5.13 3.03-5.98 5.84.96-.39 1.91-.78 2.87-1.17-5.48-3.61-13.46-2.52-17.7 2.53l3.32 1.38c-.08-6.15-4.68-12.1-10.85-13.21-5.97-1.07-12.45 2.2-14.89 7.82l3.04-.39c-4.56-4.83-12.56-3.68-16.31 1.48 1.2.33 2.4.65 3.6.98-.38-5.95-4.86-10.98-10.59-12.48-6.05-1.58-12.61.96-16.7 5.51l3.42 1.99c1.55-10.71-5.66-21.87-16.54-23.83-2.03-.37-2.93 2.61-.87 3.15Zm.07 30.57c3.01 1.13 5.35 3.59 6.64 6.5.68 1.55 2.92.93 3.36-.44.57-1.78 2.82-2.52 4.49-1.95 2.24.76 3.32 3.15 3.67 5.32.28 1.75 2.52 1.53 3.36.44 2.5-3.3 7.57-5.15 11.48-3.4 3.53 1.59 5.52 5.86 4.12 9.5-.33.87.3 1.87 1.08 2.2.92.39 1.77 0 2.33-.76 1.44-1.92 4.18-2.73 6.44-2.01 2.33.74 3.92 3.08 3.98 5.48.04 1.45 2.07 2.6 3.13 1.3 3.2-3.92 8.67-3.99 12.56-1.12 1.6 1.18 3.47-1.37 2.09-2.71-4.68-4.54-13.16-3.65-17.24 1.24 1.04.43 2.09.86 3.13 1.3-.07-4.08-2.73-7.84-6.65-9.11s-8.26.5-10.67 3.76l3.41 1.44c1.99-5.24-1.1-11.49-6.08-13.76-5.6-2.55-12.25-.17-16 4.44l3.13 1.3c-.49-3.79-2.76-7.67-6.74-8.59-3.56-.82-7.54 1.14-8.58 4.73 1.12-.15 2.24-.29 3.36-.44-1.79-3.76-5.03-6.44-8.96-7.73-1.98-.65-2.75 2.37-.85 3.09Zm84.12 18.1c2.31-2.86 7.48-3.04 9.61.19.84 1.27 2.85 1.11 3.29-.43.75-2.63 2.97-4.79 5.64-5.41 2.66-.61 5.74.5 7.38 2.68.96 1.26 3.18 1.34 3.62-.47.59-2.4 2.31-4.92 4.95-5.26 1.87-.24 4.28 1.12 4.44 3.13.16 2.1 3.37 2.84 3.89.53a10.72 10.72 0 0 1 6.23-7.47c1.36-.57 2.98-.96 4.45-.65 1.08.23 2.44.75 2.39 2.02-.09 2.06 3.2 2.55 3.63.49.78-3.68 4.33-5.26 7.72-5.6 1.67-.17 2.3-2.69.42-3.13-5.3-1.23-10.03 3.1-11.71 7.75 1.21.16 2.42.33 3.63.49.31-2.41-1.52-4.41-3.59-5.31-2.27-.99-4.81-.89-7.14-.16-4.82 1.51-8.71 5.57-9.85 10.5l3.89.53c-.29-4.15-4.12-7.37-8.28-7.13-4.48.26-7.87 4.04-8.89 8.21l3.62-.47c-2.7-3.54-7.07-5.45-11.51-4.53-4.15.86-7.41 4.25-8.41 8.3l3.29-.43c-3.56-5.03-11.41-5.2-15.07-.19-1 1.36 1.29 3.14 2.36 1.82m-51.52 18.39c4.66.94 8.92 3.15 12.31 6.49.79.78 2.12.6 2.69-.35 1.72-2.85 4.55-5.08 7.93-5.46 3.4-.38 6.99 1.17 9.02 3.93.97 1.32 3.07 1.26 3.58-.47.64-2.19 2.77-3.94 5.1-3.93 2.36.02 4.44 1.73 5.07 3.96.42 1.5 2.18 1.81 3.28.87 2.59-2.21 5.75-4.01 9.08-4.83 1.18-.29 2.46-.42 3.67-.19s2.01.93 2.81 1.88c1.18 1.4 3.4-.11 2.96-1.73-1.08-4.03-6.07-4.56-9.53-3.97-4.34.74-8.47 3.23-11.77 6.06l3.28.87c-1.11-3.9-4.74-6.87-8.85-6.9-4.13-.03-7.77 2.95-8.88 6.86 1.19-.16 2.39-.31 3.58-.47-2.87-3.84-7.54-6.28-12.41-5.8-4.59.46-9.04 3.25-10.89 7.57.9-.12 1.79-.23 2.69-.35-3.84-3.69-8.62-6.24-13.85-7.26-2.08-.41-2.98 2.77-.88 3.19Z"/></svg>