<?xml version="1.0" encoding="UTF-8"?><svg xmlns="http://www.w3.org/2000/svg" viewBox="0 0 180 180"><path d="M77.11 144.29c-6.64-1.22-12.35-6.39-13.03-13.31-.37-3.81.55-7.25 2.64-10.44 1.95-2.98 4.34-5.88 7.2-8.02 2.92-2.19 6.42-3.55 10.11-3.3 3.14.22 5.82 2.09 7.99 4.25 2.3 2.3 4.11 5.05 5.54 7.96 1.22 2.47 2.29 5.35 2.34 7.95.11 5.14-2.49 12.48-8.41 13.22-1.03.13-1.91.79-1.91 1.91 0 .95.88 2.03 1.91 1.91 6.91-.76 11.7-7.41 12.74-13.95 1.17-7.38-2.72-15.03-7.32-20.55-2.49-2.98-5.69-5.64-9.45-6.79-4.41-1.34-9.29-.44-13.3 1.69-3.94 2.1-7.07 5.38-9.75 8.89-2.85 3.74-4.84 7.83-5.01 12.6-.35 9.86 7.47 18.49 17.31 18.98 1.71.09 2.13-2.71.41-3.02Z"/><path d="M80.33 125.43c-5.71.88-6.22 7.44-5.92 12.02.32 4.76 1.3 9.47 3.13 13.89s4.34 8.36 7.8 11.56c3.85 3.57 8.69 6.1 13.71 7.6 9.41 2.81 19.86 1.95 28.88-1.79 4.15-1.72 8.15-3.93 11.36-7.13 2.75-2.74 4.78-6.05 6.26-9.63 3.27-7.87 3.78-16.7 4.18-25.11.3-6.39.63-12.79.75-19.19.23-12.86.13-25.73-.02-38.59-.14-11.32-.24-22.64-.54-33.95-.05-1.76-.08-3.59-1.11-5.1-1.27-1.85-3.52-2.48-5.65-2.16-5.13.76-6.7 5.91-6.68 10.45s.29 9.32.4 13.97c.33 13.77.58 27.54.67 41.31.07 11.01-.09 22.04-.67 33.04-.34 6.35-1 13.17-3.74 18.89-2.83 5.92-7.75 9.64-14.26 10.97-9.07 1.85-20.95.7-25.93-8.28-2.53-4.56-1.93-10.01-2.98-14.96-.51-2.41-1.52-4.89-3.53-6.42-1.66-1.26-4.17-1.92-6.24-1.43-3.78.89-6.26 5.52-5.57 9.16.44 2.35 4.03 1.35 3.59-.99-.19-1.02 1.41-2.9 2.22-3.52.64-.49.67-.43 1.39-.38.68.04 1.4.21 1.96.63 1.62 1.22 1.98 3.98 2.21 5.83.33 2.6.47 5.21.93 7.79.86 4.72 3.15 8.93 6.89 11.97 3.85 3.12 8.44 4.8 13.33 5.4s10.02.19 14.7-1.12c3.29-.92 6.34-2.46 8.97-4.64 4.87-4.03 7.46-10.14 8.76-16.18 1.4-6.49 1.6-13.18 1.77-19.79.12-4.67.36-9.34.41-14.01.11-12.62-.15-25.25-.38-37.87-.11-6.14-.24-12.28-.39-18.41-.06-2.21-.11-4.42-.18-6.63-.08-2.69-.52-5.6.33-8.18.48-1.47 1.62-2.71 3.28-2.61 1.53.09 1.41 1.65 1.44 2.87q.075 2.58.12 5.16c.11 5.48.16 10.96.19 16.44.08 13.38.14 26.77.09 40.15-.04 12.25-.28 24.55-1.24 36.76-.58 7.39-1.68 15.21-5.77 21.57-4.47 6.96-12.71 10.64-20.57 12.24-9.08 1.86-18.83.57-26.72-4.44-7.78-4.94-11.68-13.59-13.02-22.44-.33-2.19-.51-4.45-.42-6.67.07-1.85.66-4.39 2.62-5.13 1.85-.7 1.12-3.22-.81-2.92"/><path d="M77.61 92.97c-4.23.81-8.17 3.16-11.45 5.87-3 2.48-5.9 5.03-9.41 6.77-5.15 2.56-13.54 4.82-18.25.59-3.05-2.73-3.47-6.96-3.83-10.8-.32-3.44-.67-6.88-.79-10.33-.21-6.22.1-13.57 4.6-18.29 2.92-3.05 7.03-4.27 11.1-4.88 5.22-.79 10.57-1 15.83-1.33 10.92-.7 21.86-.98 32.79-.62 5.18.17 10.36.44 15.54.7 3.92.2 9.19.71 11.48 4.4 1.98 3.19 1.88 7.37 2.36 10.97.61 4.57 1.39 9.16 1.26 13.79-.12 4.23-1.09 8.71-4.27 11.72s-7.96 4.87-12.14 4.84-7.91-2.63-11.18-5.06c-3.82-2.83-7.48-5.67-11.97-7.36-2.42-.91-4.92-1.43-7.48-1.73-1.16-.14-2.16 1.09-2.16 2.16 0 1.29 1 2 2.16 2.16 5.23.69 9.78 3.08 13.96 6.18 3.78 2.8 7.45 5.93 12.03 7.34 5.06 1.56 10.41.19 15.02-2.13 4.44-2.23 7.65-5.82 9.17-10.57s1.31-9.93.82-14.82c-.46-4.57-.88-9.23-1.63-13.77-.75-4.58-2.97-8.55-7.32-10.54-4.9-2.24-10.3-2.02-15.56-2.29-11.69-.59-23.32-.83-35.02-.31-5.87.26-11.73.66-17.59 1.13-5.41.44-11 .85-15.89 3.42-7.18 3.77-9.88 11.5-10.4 19.15-.26 3.8-.03 7.62.29 11.41.35 4.11.38 8.52 1.7 12.45 1.42 4.22 4.28 7.51 8.54 8.98 3.72 1.28 7.9.97 11.66.08s7.2-2.32 10.27-4.39c3.89-2.63 7.1-6.08 10.78-8.96 1.74-1.36 3.65-2.4 5.79-2.93 1.97-.49 1.12-3.39-.83-3.01Z"/><path d="M54.11 68.36a24 24 0 0 0-8.27 2.47c-.68.35-1.35.74-1.83 1.33-.58.72-.81 1.66-1 2.56-1.53 7.39-1.54 15.04-.18 22.45.18 1 .56 2.02 1.34 2.66 3.64 3 11.61-2.24 14.88-3.95 5.41-2.83 8.86-6.67 14.8-8.26 8.64-2.32 20.06-.32 27.73 4.27 3.06 1.83 5.88 4.18 9.28 5.24s7.73.38 9.51-2.71c.89-1.54.99-3.4 1.02-5.17.1-5.39-.24-10.78-1.04-16.11-.23-1.52-.5-3.08-1.33-4.37-2.08-3.26-6.61-3.64-10.48-3.64-17.57.02-35.13.8-52.63 2.34-2.02.18-4.06.37-5.99 1.02-6.1 2.07-8.44 2.78-8.08 19.81"/><path d="M54.11 66.84c-2.46.25-4.98.68-7.31 1.55s-4.34 1.94-5.24 4.28-1.07 4.9-1.34 7.28c-.29 2.54-.41 5.11-.36 7.67s.32 5.31.72 7.94c.34 2.29.72 4.72 2.8 6.11 2.79 1.87 6.55.67 9.37-.51 2.99-1.26 5.88-2.89 8.67-4.54 3.6-2.12 6.84-4.98 10.75-6.53 7.72-3.06 17.39-1.69 24.82 1.55 4.09 1.78 7.43 4.86 11.51 6.64 3.57 1.55 8.03 1.9 11.35-.5 4-2.9 3.56-8.28 3.46-12.68-.07-2.69-.25-5.38-.54-8.06-.26-2.38-.41-4.98-1.19-7.26-1.47-4.24-5.33-5.91-9.51-6.39-2.15-.24-4.33-.18-6.49-.17-2.73 0-5.47.03-8.2.08-10.77.17-21.54.73-32.28 1.52-2.73.2-5.45.42-8.18.65-2.52.22-5.08.39-7.49 1.18-1.67.54-3.44 1.11-4.89 2.11-4.13 2.86-4.44 8.51-4.6 13.07-.08 2.17-.05 4.33.09 6.5.15 2.35 3.63 2.39 3.69 0 .09-3.56-.05-7.18.44-10.72.13-.91.33-1.93.63-2.84.06-.2.14-.4.21-.6.13-.36.03-.08 0 0 .04-.1.09-.2.14-.29.17-.34.36-.66.58-.97 0-.01-.17.17.09-.1.11-.12.21-.23.33-.34s.23-.21.35-.31c.26-.22-.03.03-.08.06.09-.06.18-.13.28-.19.28-.16.54-.33.83-.48.15-.08.3-.14.45-.22.43-.2-.04 0 .21-.09 3.02-1.18 6.03-1.63 9.26-1.91 9.82-.84 19.67-1.53 29.52-1.78 4.89-.12 9.77-.3 14.66-.38 2.43-.04 4.87-.08 7.3-.07 1.7 0 3.41.07 5.06.51 1.41.37 2.77 1.05 3.54 2.35 1.07 1.82 1.14 4.33 1.37 6.39.54 4.67.86 9.49.57 14.19-.1 1.71-.54 3.37-2.06 4.32-1.31.83-3.01 1-4.52.81-3.95-.5-7.13-3.57-10.47-5.46-6.77-3.82-14.83-5.74-22.6-5.29-3.96.23-7.81 1.1-11.33 2.97s-6.36 4.34-9.75 6.19c-2.49 1.36-12.65 8.15-13.9 2.99-1.08-4.47-1.15-9.4-.91-13.97.13-2.39.4-4.76.85-7.11.16-.83.25-1.92.78-2.61.57-.74 1.67-1.11 2.48-1.5 2.09-1.02 4.2-1.71 6.5-2.02 1.68-.23 1.3-3.15-.4-2.98Zm58.86-33.49c-2.77.46-5.09 2.87-5.56 5.63-.52 3.07 1.04 6.04 3.61 7.71s6.2 1.54 9 .16c1.3-.64 2.49-1.62 3.4-2.75.55-.69 1.03-1.44 1.22-2.32s.16-1.71.12-2.56c-.1-1.9-.72-3.55-2.32-4.67-.65-.45-1.42-.77-2.17-1.02-.84-.27-1.73-.55-2.6-.27-1.03.33-1.55 1.73-.67 2.53.5.45.96.62 1.59.79.39.1.97.29 1.2.39.77.36 1.2.67 1.38 1.54.17.82.28 2.14-.14 2.88-.46.81-1.25 1.44-2.04 1.9s-1.81.79-2.6.86c-1 .08-1.92-.03-2.77-.39-.19-.08-.82-.46-.96-.57 0 0-.3-.27-.41-.38-.09-.1-.18-.19-.27-.29-.04-.04-.19-.24-.08-.08-.16-.21-.3-.44-.42-.67-.03-.06-.23-.49-.14-.27-.1-.24-.17-.5-.23-.76l-.06-.29c-.05-.32 0 .39-.01-.19 0-.26-.02-.52.02-.78 0 .05-.04.22.01.01.04-.16.07-.31.12-.47.09-.3.08-.28.18-.46.13-.23.25-.45.4-.66-.12.16.07-.09.08-.1.08-.1.17-.19.26-.29.16-.16.44-.41.56-.49.31-.23.76-.46 1.15-.57.83-.25 1.35-1.12 1.12-1.97-.25-.91-1.11-1.26-1.97-1.12Zm10.4-6.9c-.76.04-1.34-.2-2.01-.61-.74-.45-1.08-.67-1.64-1.31-.05-.06-.28-.38-.15-.19-.11-.16-.21-.33-.3-.5s0-.01 0 .02c-.02-.07-.05-.14-.07-.21s-.04-.14-.05-.22c-.08-.3-.03.12 0-.06.02-.12.02-.32 0-.44-.03-.17-.01.04-.02.09l.06-.29c.03-.14.08-.28.13-.43 0-.03.11-.25.03-.07-.09.2.11-.2.11-.2.07-.13.16-.26.24-.39.17-.26-.11.09.11-.13.13-.13.24-.26.38-.38.06-.05.11-.1.17-.15-.13.11-.11.07.02 0 .15-.09.3-.19.46-.27.07-.03.14-.07.2-.1-.04.02-.26.08-.05.03s.4-.13.6-.17c.09-.02.17-.04.26-.05.29-.05-.23.01.07 0 .39-.03.77-.03 1.15.01-.26-.03.17.03.25.05.24.05.47.11.7.18q.255.075.51.18c.34.13.16.07.09.04.08.04.16.08.25.12.38.19.74.4 1.09.64.25.17.53.39.81.76-.16-.21.11.2.15.27.05.1.1.2.16.29.13.24-.07-.21.03.05.07.18.13.37.17.56.03.11.04.22.06.33s.02.23.01.06c.03.44 0 .87.04 1.31.11 1.45 1.77 1.81 2.61.71.74-.98.72-2.39.48-3.54s-.84-2.16-1.67-2.93c-1.69-1.58-4.11-2.59-6.44-2.57s-4.4 1.11-5.66 3.05c-1.18 1.82-1.29 4.26-.04 6.08 1.52 2.2 4.45 3.67 7.11 3.23.7-.11 1.13-.94 1.04-1.59-.1-.67-.69-1.29-1.42-1.25Zm-24.46 8.5.2-.21.05-.05.01-.01c.08-.11.16-.22.25-.32 0-.01.01-.02.02-.03l.06-.13.15-.36q.09-.3.03-.6a.7.7 0 0 0-.1-.38 1.1 1.1 0 0 0-.31-.49l-.31-.24-.36-.15q-.3-.09-.6-.03c-.2 0-.39.07-.56.18l-.13.06s-.02 0-.03.02c-.02.01-.31.24-.32.25l-.01.01-.05.05-.21.2q-.225.21-.33.51c-.1.19-.14.39-.14.61s.04.42.14.61c.06.2.17.36.33.51l.32.25c.25.14.51.21.8.22l.42-.06c.27-.07.5-.21.7-.41Zm6.19-7.19c1.87 0 1.87-2.91 0-2.91s-1.87 2.91 0 2.91m0 6.84c1.79 0 1.79-2.78 0-2.78s-1.79 2.78 0 2.78m2.46-25.94c-1.34.33-2.58 1.1-3.33 2.28-.8 1.26-.71 2.96.14 4.17.9 1.28 2.33 2.03 3.9 2.05s3.05-.64 4.24-1.58a4.7 4.7 0 0 0 1.48-2.01c.15-.39.23-.83.2-1.24-.05-.86-.43-1.48-1.25-1.79-.59-.22-1.29.15-1.6.65-.17.28-.25.59-.25.92q.09.705.03.21v.21q.06-.345 0-.09l-.06.21c.09-.2.09-.22.02-.07-.04.07-.08.13-.12.19q-.15.21.03-.03c-.05.06-.1.12-.16.18-.08.09-.17.17-.25.25l-.18.15c.16-.12.17-.14.03-.04-.14.08-.27.17-.41.25s-.29.15-.44.22c-.16.07-.15.07.03-.01-.08.03-.15.06-.23.08-.25.08-.56.21-.83.21.43.01-.09 0-.18 0-.13 0-.36.03-.48-.02q.33.045.06 0c-.07-.02-.15-.03-.22-.05s-.13-.04-.2-.07c.19.09.24.11.13.06-.11-.06-.22-.11-.33-.18l-.18-.12c.17.14.2.15.07.05-.04-.04-.31-.25-.3-.3.13.18.15.2.05.07a2 2 0 0 1-.11-.18c-.03-.06-.07-.12-.1-.18.09.22.1.24.04.09 0-.04-.08-.3-.08-.3.03.24.03.28.02.11v-.21c.01-.17 0-.14-.02.1.01-.07.03-.13.05-.2s.04-.13.07-.19q-.135.315-.03.09c.03-.06.15-.34.21-.35-.14.17-.15.19-.05.06l.07-.08c.1-.1.2-.2.31-.29.13-.1.11-.09-.05.03l.18-.12c.12-.08.24-.16.37-.24.24-.15.49-.28.76-.4.63-.28.81-1.16.57-1.74-.27-.64-.96-.97-1.64-.81Zm31.12 35.77c1.55.18 3.11.22 4.67.1 1.65-.13 3.55-.25 4.99-1.13 1.21-.74.72-2.67-.73-2.68-.88 0-1.69.2-2.54.37-.33.07-.66.12-.99.18-.11.02-.22.03-.33.05.15-.02.12-.02-.07 0l-.5.06c-1.5.15-3 .15-4.5.02-.79-.07-1.55.75-1.52 1.52.04.9.67 1.42 1.52 1.52Zm0 8.64c1.55.18 3.11.22 4.67.1 1.65-.13 3.55-.25 4.99-1.13 1.21-.74.72-2.67-.73-2.68-.88 0-1.69.2-2.54.37-.33.07-.66.12-.99.18-.11.02-.22.03-.33.05.15-.02.12-.02-.07 0l-.5.06c-1.5.15-3 .15-4.5.02-.79-.07-1.55.75-1.52 1.52.04.9.67 1.42 1.52 1.52Zm0 8.64c1.55.18 3.11.22 4.67.1 1.65-.13 3.55-.25 4.99-1.13 1.21-.74.72-2.67-.73-2.68-.88 0-1.69.2-2.54.37-.33.07-.66.12-.99.18-.11.02-.22.03-.33.05.15-.02.12-.02-.07 0l-.5.06c-1.5.15-3 .15-4.5.02-.79-.07-1.55.75-1.52 1.52.04.9.67 1.42 1.52 1.52Zm0 8.64c1.55.18 3.11.22 4.67.1 1.65-.13 3.55-.25 4.99-1.13 1.21-.74.72-2.67-.73-2.68-.88 0-1.69.2-2.54.37-.33.07-.66.12-.99.18-.11.02-.22.03-.33.05.15-.02.12-.02-.07 0l-.5.06c-1.5.15-3 .15-4.5.02-.79-.07-1.55.75-1.52 1.52.04.9.67 1.42 1.52 1.52Zm0 8.64c1.55.18 3.11.22 4.67.1 1.65-.13 3.55-.25 4.99-1.13 1.21-.74.72-2.67-.73-2.68-.88 0-1.69.2-2.54.37-.33.07-.66.12-.99.18-.11.02-.22.03-.33.05.15-.02.12-.02-.07 0l-.5.06c-1.5.15-3 .15-4.5.02-.79-.07-1.55.75-1.52 1.52.04.9.67 1.42 1.52 1.52Z"/></svg>