<?xml version="1.0" encoding="UTF-8"?><svg xmlns="http://www.w3.org/2000/svg" viewBox="0 0 180 180"><path d="M61.76 158.87c-.21-13.93-.52-27.86-.95-41.79-.46-15.29-.96-30.58-1.42-45.87-.22-7.24-.42-14.48-.61-21.72-.08-3.31-.16-6.62-.23-9.93-.07-3.42.06-6.91-.33-10.3-.43-3.71-1.82-7.47-5.34-9.29-2.18-1.13-6.11-1.72-7.7.7-1.46 2.21-2.75 4.57-4.11 6.84-3.94 6.55-8.01 13.04-11.83 19.67-.08.14-.17.28-.25.42-.8 1.34.24 2.94 1.72 2.99l12.96.51c-.64-.49-1.28-.97-1.91-1.46.58 1.58.5 2.49.16 4.01-.41 1.81-.27 3.51.37 5.25l.51-1.93c-1.76 1.48-4.64 1.2-6.77 1.59-2.54.46-4.73 1.83-6.53 3.65-1.91 1.94-3.41 4.27-4.98 6.48-1.88 2.65-3.74 5.31-5.6 7.96-.77 1.1.04 2.65 1.21 2.98 7.03 1.98 14.23-.04 21.34.34l-1.94-1.47c1.22 3.1.12 6.61.05 9.82l2-2-10.88 1.32-5.44.66c-1.67.2-3.45.26-4.98 1.04-1.33.68-2.25 1.86-3.04 3.09-.94 1.46-1.83 2.95-2.74 4.42-1.93 3.12-3.86 6.23-5.78 9.35-.88 1.43.3 2.97 1.78 3.1 5.23.47 10.47.72 15.72.46 4.11-.2 8.18-.73 12.26-1.25-.49-.2-.98-.4-1.47-.61.23.21-.14-.36.08.1.02.05-.04-.18.07.2.12.44.22.88.25 1.17.13 1.14.11 2.31 0 3.46-.04.47-.11.92-.22 1.41-.05.23-.12.45-.18.68-.02.08-.24.64-.07.27-.07.15-.15.31-.25.45.32-.46-.13.05-.23.14-.41.38-.84.85-.97 1.41-.28 1.26.59 2.68 2 2.63.68-.03 1.49-.37 1.79-1.03.83-1.8-.51-3.31-2.35-3.28-1.51.03-3.06.32-4.57.46-3.84.35-7.68.62-11.52.92-3.6.28-7.7-.01-10.54 2.58-3.21 2.92-2.47 7.47-2.42 11.37.07 4.91.13 9.81.21 14.72.04 2.41.08 4.82.11 7.24.03 2.07-.19 4.39.39 6.41 1.26 4.46 6.06 4.22 9.8 4.29 4.13.08 8.27.06 12.4-.05 9.46-.25 18.94-.94 28.29-2.44 1.2-.19 1.86-1.68 1.57-2.76-.35-1.27-1.56-1.76-2.76-1.57-7.06 1.14-14.2 1.74-21.34 2.09-7.15.35-14.38.54-21.53.19-1.24-.06-2.1-.18-2.28-1.53-.25-1.83-.1-3.79-.13-5.64-.07-4.24-.15-8.48-.22-12.73-.07-4.16-.15-8.32-.22-12.48-.02-1.39-.08-2.62.85-3.74.8-.97 1.85-1.31 3.07-1.42 3.78-.32 7.56-.59 11.34-.89 1.82-.15 3.65-.29 5.47-.47.76-.07 1.51-.15 2.26-.23.34-.04.67-.08 1.01-.11.15-.02.31-.02.45-.05.84-.17.32.49-.59-.53l-.53-.92v.03l.21-1.6v.02c.59-.34 1.19-.69 1.79-1.03.67.88 1.34 1.75 2 2.63-.04.17-.57.72-.36.68.1-.02.31-.29.39-.38.18-.18.33-.33.49-.53.39-.5.64-1.05.86-1.64.41-1.15.57-2.39.68-3.6.2-2.26.24-5.14-1.02-7.13-1.01-1.61-2.5-1.28-4.12-1.07-1.42.18-2.85.36-4.28.52-2.92.32-5.85.53-8.79.58-4.29.08-8.58-.16-12.85-.55.59 1.03 1.19 2.07 1.78 3.1 1.71-2.77 3.41-5.55 5.11-8.33.85-1.39 1.7-2.78 2.56-4.16.6-.98 1.21-2.4 2.32-2.91 1.23-.56 2.91-.52 4.23-.69l4.94-.62 10.14-1.26c1.09-.14 1.98-.81 2-2 .06-3.61 1.19-7.39-.18-10.89-.34-.88-.98-1.42-1.94-1.47-6.71-.37-13.65 1.64-20.26-.24l1.21 2.98c1.78-2.52 3.56-5.04 5.32-7.57 1.52-2.18 2.95-4.49 4.86-6.36 1.72-1.68 3.63-2.33 5.98-2.59 2.6-.29 4.96-.68 7.02-2.41.5-.42.73-1.32.51-1.93-.58-1.58-.5-2.49-.16-4.01.41-1.81.27-3.51-.37-5.25-.32-.86-.98-1.42-1.91-1.46l-12.96-.51c.57 1 1.14 2 1.72 2.99 4.75-7.88 9.49-15.76 14.24-23.64.68-1.13 1.36-2.25 2.03-3.38l-.72.72c1.57-.83 3.45.18 4.53 1.38 1.52 1.71 1.81 4.27 1.93 6.46.23 4.19.22 8.4.33 12.59.25 9.16.53 18.32.83 27.48.64 19.52 1.29 39.03 1.98 58.55.34 9.7.67 19.4.91 29.11.05 2.1 3.3 2.11 3.27 0ZM81.71 21c.44 13.98.49 27.97.82 41.95.27 11.5.51 23.01.89 34.51.37 10.98.84 21.95 1.48 32.91.34 5.84.73 11.69 1.17 17.52.22 2.84.08 6.05 1.05 8.76.54 1.53 1.53 2.87 3.02 3.59 1.57.76 3.32.75 5.03.75 8.79 0 17.57-.17 26.35-.4 7.92-.21 16.02-.27 23.33-3.7.61-.29 1.17-1.2 1.08-1.88-1.32-9.96-2.63-19.92-3.94-29.88-.33-2.48-.62-4.96-.97-7.43-.31-2.16-1.35-3.98-3.57-4.61-2.21-.62-4.82-.36-7.1-.43-2.48-.07-4.96-.15-7.43-.22-5.7-.17-11.4-.39-17.1-.5l2.16 2.16-.42-4.95c-.07-.75-.02-1.62-.2-2.35q.135-.6-.15-.24c-.19.13-.19.17 0 .13.1.08.52-.03.63-.03 3.4-.21 6.8-.45 10.2-.67 6.71-.44 13.43-.89 20.14-1.33 1.6-.11 2.52-1.66 1.78-3.1a181 181 0 0 0-5.64-10.21c-1.04-1.74-2.1-3.46-3.21-5.15-.98-1.48-2.06-2.88-3.77-3.55s-3.68-.52-5.49-.53c-2.06-.02-4.11-.03-6.17-.05-4.19-.03-8.39-.07-12.58-.09.69.53 1.38 1.05 2.07 1.58-.69-2.96-.98-5.95-.92-8.99l-2.11 2.11c7.4-.9 14.91-.89 22.29.18 1.58.23 3.36-1.33 2.28-2.97-1.78-2.71-3.54-5.42-5.3-8.15-1.69-2.61-3.23-5.44-5.21-7.84s-4.71-2.77-7.66-3.02c-3.32-.28-6.66-.42-10-.4l2.12 2.12c0-2.6-.01-5.21-.02-7.81 0-.96-.65-1.71-1.53-2.01s-1.71-.58-2.56-.88v4.01c5.21-.86 10.46-1.46 15.73-1.8 1.82-.12 2.75-2.2 1.48-3.57-3.15-3.4-5.95-7.06-8.38-11.01-1.79-2.91-3.29-5.97-5.3-8.74-1.89-2.59-4.15-5.22-7.12-6.59-3.18-1.46-6.59-1.07-9.43.98-.91.66-1.36 1.81-.75 2.85.53.9 1.94 1.41 2.85.75 2.27-1.65 4.37-1.7 6.68-.16s3.94 3.84 5.39 6.07c1.79 2.76 3.24 5.71 5.03 8.47 2.38 3.67 5.09 7.13 8.07 10.33l1.48-3.57c-5.64.37-11.26 1.03-16.83 1.97-2.19.37-1.75 3.41 0 4.01.85.29 1.7.59 2.55.89l-1.53-2.01-.06 7.81c0 1.15.98 2.13 2.12 2.12 2.93-.01 5.85.05 8.78.25 1.28.09 2.64.08 3.89.4 1.09.28 1.79 1.03 2.42 1.93 3.33 4.77 6.43 9.72 9.58 14.61l2.28-2.97c-7.75-1.18-15.57-1.39-23.36-.5-1.16.13-2.08.86-2.11 2.11-.1 3.41.25 6.8 1 10.13.21.92 1.16 1.57 2.07 1.58 3.78.03 7.57.04 11.35.06l5.92.03c1.59 0 3.48-.25 5.03.11 1.38.33 2.1 1.94 2.81 3.03.97 1.5 1.93 3.01 2.86 4.55 1.9 3.13 3.67 6.33 5.33 9.58l1.78-3.1c-7.71.51-15.42 1.03-23.13 1.54-1.91.13-3.81.25-5.72.38-1.57.1-3.54-.05-4.82 1.06-1.4 1.22-1.34 2.95-1.23 4.65.12 1.98.25 3.96.38 5.94.08 1.2.93 2.11 2.16 2.16 9.25.36 18.5.55 27.75.82.73.02 2.03-.18 2.73.18.52.26.47.97.55 1.52.33 2.28.6 4.57.9 6.86.6 4.57 1.19 9.14 1.79 13.71l2.04 15.67 1.08-1.88c-6.1 2.84-13.06 2.85-19.64 3.04-7.62.21-15.25.34-22.87.48-1.82.03-3.65.08-5.47.09-1.07.01-2.46.14-3.16-.83-.66-.91-.66-2.3-.75-3.38l-.36-4.65c-.43-5.66-.83-11.32-1.17-16.99-1.33-21.59-1.95-43.21-2.58-64.82-.44-15.03-1.18-30.05-1.71-45.08-.07-2.07-3.3-2.09-3.23 0Z"/><path d="M48.36 20.61c5.79.93 11.59 1.87 17.38 2.8.99.16 2.02.33 2.82.92 1.49 1.09 1.75 3.16 1.87 5 .92 13.36 1.41 26.74 1.91 40.13.77 20.64 1.53 41.28 2.3 61.93.32 8.56 1.14 16.5 1.46 25.05.01.38.01.81-.25 1.09-.19.21-.48.29-.75.35-4.29 1.06-10.17 1.23-14.59.99.55-14.48-1.24-28.12-.12-42.56.42-5.34 1.35-10.67 1.01-16.02-.26-4.04-1.25-8-1.46-12.04-.19-3.74.29-7.49.02-11.22-.33-4.55-1.75-8.95-2.32-13.48-1.66-13.36 4.23-27.3.18-40.14"/><path d="M47.97 22.04c5.43 1.03 10.87 2.03 16.32 2.99.95.17 2.3.21 3.1.8.71.52.9 1.54 1.02 2.36.36 2.57.35 5.24.51 7.83.68 11.22 1.11 22.46 1.54 33.69.43 11.4.85 22.81 1.27 34.21.42 11.26.65 22.54 1.33 33.79.37 6.08.89 12.15 1.11 18.24 0-.22 0 .77.02.79q1.29-1.035.42-.72l-.36.09c-.63.15-1.27.26-1.9.37-1.27.21-2.55.33-3.83.41-2.66.17-5.32.15-7.98.03l1.97 1.97c.28-9.11-.4-18.19-.57-27.29-.09-4.6-.06-9.21.25-13.8.3-4.54 1.03-9.05 1.19-13.61.16-4.66-.81-9.14-1.31-13.75-.49-4.54.2-9.09-.16-13.63-.35-4.49-1.71-8.79-2.28-13.24-.52-4.13-.3-8.32.11-12.45.92-9.38 2.85-18.96.02-28.21-.74-2.41-4.53-1.38-3.78 1.04 2.45 7.98 1.06 16.37.14 24.49-.47 4.14-.85 8.31-.62 12.48.25 4.46 1.45 8.75 2.2 13.14.77 4.49.2 8.96.34 13.48.14 4.54 1.34 8.97 1.55 13.51.2 4.55-.46 9.07-.88 13.59s-.54 9.07-.5 13.61c.08 10.22.79 20.43.37 30.65-.05 1.11.94 1.91 1.97 1.97 4.87.27 10.18.21 14.92-1.05 3.04-.8 2.61-3.5 2.48-6.06-.15-2.96-.35-5.92-.55-8.88-.82-11.81-1.18-23.63-1.62-35.45-.9-24.05-1.53-48.13-2.87-72.16-.18-3.18-.24-6.42-.69-9.58-.38-2.72-1.7-5-4.48-5.78-1.41-.4-2.94-.49-4.39-.7-1.62-.24-3.23-.48-4.85-.71-3.37-.48-6.75-.91-10.12-1.36-1.65-.22-2.03 2.61-.39 2.92Z"/><path d="M53.06 160.6c15.01-1.42 22.34-1.45 37.42-1.59-.64-.59-1.22-1.25-1.72-1.96-2.63-3.72-2.97-8.52-3.4-13.05-.02-.26-.07-.56-.29-.69-.15-.09-.34-.08-.52-.07-6.06.48-12.14.74-18.22.76.03 1.52.07 3.04.1 4.56"/><path d="M53.06 162.2c12.48-.86 24.92-1.15 37.42-1.26 1.65-.01 2.61-2.14 1.37-3.32-2.15-2.05-3.19-4.66-3.77-7.53-.28-1.4-.44-2.82-.58-4.24-.13-1.33 0-2.96-1.05-3.96-1.08-1.03-3.03-.63-4.38-.56-1.72.09-3.44.18-5.17.25-3.53.14-7.06.2-10.6.2-1.18 0-2.22 1.01-2.2 2.2.03 1.69-.04 3.45.4 5.08.49 1.82 3.36 1.93 3.8 0 .37-1.66.25-3.39.21-5.08l-2.2 2.2c3.12-.03 6.24-.13 9.36-.29 1.48-.07 2.95-.17 4.43-.27.82-.06 1.64-.11 2.46-.19.54-.05 1.49-.38 1.96-.24l-.87-.51.17.18-.51-.87c.44 1.23.33 2.84.5 4.14.19 1.48.42 2.96.81 4.4.79 2.97 2.23 5.7 4.47 7.82l1.37-3.32c-12.53.12-24.97.44-37.42 1.92-2.01.24-2.1 3.36 0 3.22ZM90.39 18.65c6.43.65 12.93 2.44 19.27 3.68.64.13 1.31.26 1.86.62.54.35.93.88 1.3 1.4 2.77 3.85 5.81 5.96 8.58 9.81 2.08 2.9 4.19 5.84 5.43 9.19a25.4 25.4 0 0 1-11.38 2.29c.36.92 1.95.29 2.64.99.31.31.34.8.35 1.24.03 1.26.05 2.52.08 3.79 3.39.2 6.89.43 9.91 1.98 1.95 1 3.6 2.51 5.14 4.07 3.51 3.56 6.61 7.5 9.69 11.44.8 1.02 1.6 2.52.74 3.49-.38.43-.98.58-1.55.7a63 63 0 0 1-13.68 1.41c-.41 0-.85-.02-1.18-.26-.32-.23-.47-.62-.61-.99-1.56-4.11-8.14-9.7-10.06-13.65-.52-1.06.81-.59 0-1.45-1.28-1.36-.12-2.05-1.9-2.61-3.83-1.19-10.44-.21-14.38-.92-.56-.9-.97-4.79-.1-5.39s5.54.21 6.59.09c1.8-.2 3.6-.4 5.41-.59.66-.07 1.34-.15 1.89-.51 1.02-.66 1.3-2.08.97-3.25s-1.12-2.14-1.88-3.08a213 213 0 0 1-14.78-20.58"/><path d="M89.99 20.09c3.95.53 7.84 1.42 11.72 2.32 2.02.47 4.04.95 6.07 1.39.79.17 1.81.21 2.54.6.68.36 1.11 1.26 1.55 1.84 2.18 2.86 4.92 5.22 7.17 8.02 2.31 2.88 4.59 6.16 5.91 9.62l.9-2.2c-3.27 1.47-6.82 2.11-10.4 2.02-1.5-.04-2.41 1.68-1.69 2.94.33.58.79.99 1.4 1.24.27.11 1.57.54 1.75.32.03-.04-.28-.59-.43-.4-.1.12 0 .81.01 1.02l.06 2.84c.02 1.11.88 1.9 1.96 1.96 3.3.2 6.77.4 9.67 2.16s5.02 4.37 7.13 6.79 4.47 5.14 6.41 7.89c.19.26.62 1.04.63 1.07l.23-.31c-.22.07-.45.13-.68.18-.46.11-.93.19-1.4.27-1.69.31-3.39.53-5.1.68-1.73.15-3.48.26-5.22.28h-1.43c-.52-.07-.43.05.27.34.03-.01-.56-1.29-.68-1.52-1.19-2.28-2.99-4.26-4.67-6.19-1.6-1.84-3.37-3.65-4.61-5.76-.07-.12-.17-.38-.26-.47.22.21-1.49 2.7-.21 1.38.43-.45.65-1.04.63-1.66-.03-.94-.61-1.19-.95-1.94-.09-.19-.15-.62-.25-.9-1.02-2.86-5.6-2.76-8.08-2.82-2.9-.07-5.91.26-8.78-.22l1.24.95c-.09-.17 0-.16 0 .03 0-.1-.07-.22-.09-.32-.05-.3-.14-.58-.18-.88-.07-.55-.1-1.15-.04-1.71 0 0-.01-.36.02-.21 0 .03.17-.14.02-.08-.08.04-.77.62-.86.71.1-.11.21.06.06-.03-.09-.06.39-.02.59-.02.36 0 .72.02 1.07.04 1.21.07 2.43.28 3.65.29 1.84.02 3.76-.37 5.59-.58 2.05-.23 3.94-.73 4.86-2.78.79-1.78.44-3.76-.52-5.4-1.04-1.78-2.56-3.35-3.84-4.97-1.34-1.71-2.66-3.44-3.95-5.18-2.93-3.97-5.72-8.03-8.36-12.2-1.38-2.18-4.86-.16-3.47 2.03 3.27 5.16 6.71 10.2 10.39 15.07 1.8 2.38 3.98 4.64 5.56 7.17.2.32.44.69.5 1.07.04.23-.14.88-.07.81-.36.35-1.41.29-1.83.33l-2.46.27c-1.96.21-3.67.1-5.62-.04-1.7-.12-3.91-.3-4.92 1.41-.95 1.61-.66 4.04-.26 5.76.24 1.04.67 2.14 1.8 2.46 1.07.31 2.36.3 3.48.34 2.75.09 5.5-.09 8.24.11.49.04.98.09 1.47.18.26.05.51.1.76.17.43.11.66.38.31-.17-.49-.76-.05.4.04.66.21.57.88 1.42 1 1.64l-.28-1.05v.11c.11-.35.2-.7.3-1.05l.54-.52c-.18.12-.35.26-.51.4-.14.14-.29.35-.39.52-.33.58-.37 1.29-.21 1.93.24.95.93 1.89 1.49 2.68 1.38 1.95 2.98 3.74 4.53 5.56 1.37 1.6 2.8 3.22 3.8 5.09.45.83.69 1.81 1.46 2.52 1.11 1.02 2.71.89 4.1.87 3.2-.05 6.38-.38 9.54-.92 2.6-.45 6.51-.78 6.66-4.19.12-2.73-2.61-5.19-4.17-7.15-1.9-2.38-3.85-4.73-5.93-6.95-2.23-2.37-4.63-4.77-7.65-6.09-3.19-1.4-6.67-1.66-10.11-1.86l1.96 1.96c-.02-1.03-.05-2.05-.07-3.08-.02-.89 0-1.86-.45-2.67-.38-.68-1.03-1.18-1.76-1.42-.33-.1-.68-.14-1.02-.18-.84-.09-.35-.18-.04.34-.56.98-1.12 1.96-1.69 2.94 4.3.1 8.45-.81 12.36-2.56.72-.32 1.18-1.47.9-2.2-1.51-3.94-3.91-7.49-6.49-10.8-2.39-3.06-5.4-5.56-7.76-8.65-1.26-1.65-2.47-2.5-4.54-2.88s-4.22-.83-6.33-1.27c-4.37-.91-8.74-1.74-13.19-2.09-1.65-.13-2.07 2.71-.4 2.93Z"/><path d="m126.75 77.15.39 6.31c4.8.51 9.59 1.17 14.36 1.96 1.35.22 2.74.47 3.92 1.18 1.09.65 1.92 1.66 2.73 2.64 3.02 3.67 6.02 7.36 9.02 11.05.4.5.82 1.22.42 1.72-.17.21-.44.31-.69.39-5.48 1.77-11.41.93-17.17 1.2-.33.02-.68.05-.92.27-.3.28-.31.74-.29 1.15l.24 6.83c6.25-.21 12.51.16 18.69 1.11 1.43.22 2.91.49 4.05 1.38 1.51 1.18 2.08 3.18 2.54 5.05 2.35 9.44 4.29 18.99 5.83 28.6.15.93.29 1.9-.02 2.78-.6 1.71-2.59 2.42-4.35 2.87-9.01 2.32-18.33 3.46-27.64 3.39 1.69-.16 3.41-.34 4.97-1s2.98-1.89 3.43-3.53c.3-1.09.15-2.26 0-3.38l-4.14-29.96c-.27-1.98-.66-4.17-2.24-5.4-.99-.77-2.28-1.02-3.53-1.2-8.11-1.19-16.38-.67-24.55-1.39-.73-.06-3.23 1.44-3.68.86-.61-.78-1.43-4.73-.62-5.29s4.8.45 5.79.38a308 308 0 0 0 16.88-1.67c2.95-.37 5.93-.8 8.69-1.91 1.29-.52 2.69-1.45 2.69-2.84 0-.67-.34-1.29-.67-1.87-1.98-3.48-3.96-6.97-5.94-10.45-.61-1.07-1.24-2.17-2.21-2.93-1.84-1.46-4.42-1.36-6.76-1.56-5.19-.43-10.25-2.61-15.43-2.07-1.34.14-2.7.46-4.03.21s-2.64-1.31-2.6-2.66c.03-1.05.87-1.93 1.84-2.33s2.04-.42 3.09-.43c6.04-.06 12.07-.12 18.11-.19"/><path d="M125.18 77.15c.06 2.1.13 4.21.19 6.31.02.69.53 1.59 1.29 1.7 3.02.42 6.05.83 9.07 1.28 1.59.24 3.18.49 4.77.76 1.25.21 2.62.36 3.74.98 1.17.64 1.96 1.85 2.78 2.86.98 1.21 1.97 2.41 2.96 3.62s1.97 2.41 2.95 3.62l1.55 1.91c.26.32 1.2 1.13 1.21 1.49l.28-1.02c.14-.3.61-.23-.06-.08-.29.07-.58.16-.87.24-.58.14-1.17.27-1.77.36-1.16.19-2.33.27-3.5.31-2.51.1-5.03 0-7.54 0-2.22 0-5.22-.2-5.69 2.63-.2 1.16 0 2.41.05 3.57.06 1.38.11 2.76.17 4.15.04 1.05.88 2.03 1.99 1.99 6.03-.22 12.18.16 18.14 1.09 1.06.17 2.35.29 3.24.95.85.63 1.24 1.67 1.54 2.64.85 2.78 1.42 5.67 2.06 8.51a338 338 0 0 1 3.58 18.14c.22 1.32.55 2.68.63 4.02.07 1.13-.5 1.61-1.5 2.03-2.47 1.06-5.44 1.44-8.07 1.94-6.78 1.29-13.63 1.8-20.52 1.9v3.93c2.81-.35 5.63-.66 7.9-2.53 2.15-1.77 2.78-4.23 2.45-6.92-.81-6.46-1.77-12.9-2.65-19.35-.44-3.19-.87-6.37-1.29-9.56-.34-2.52-.5-5.25-2.11-7.34-1.74-2.25-4.54-2.62-7.17-2.98-3.22-.44-6.44-.63-9.68-.74-3.46-.11-6.92-.15-10.37-.34-1.4-.08-2.93-.43-4.3-.03-.46.13-.9.34-1.34.51-.17.06-.34.12-.5.18-.58.21-.44-.02 0 .13l.95.55c.16.13.08.23.13.18-.01 0 0-.09.03.1-.04-.26-.18-.53-.25-.79-.15-.55-.26-1.07-.3-1.59-.01-.15.06-.63-.01-.74-.2-.29.15.09-.02.07l-.06.11c-.18.38-.49.64-.93.8 0 .09-.41-.07-.11.02.09.03.24 0 .33 0 .35.01.7.04 1.06.08 1.13.13 2.25.41 3.39.46 1.91.08 3.94-.28 5.85-.45 4.23-.38 8.45-.84 12.65-1.4 2.03-.27 4.07-.58 6.04-1.16 1.73-.51 3.65-1.17 4.91-2.54 1.38-1.51 1.51-3.44.67-5.25-.89-1.9-2.08-3.7-3.11-5.52-1.07-1.88-2.13-3.76-3.21-5.64-.95-1.66-2.04-3.3-3.78-4.22-1.63-.85-3.43-1.08-5.24-1.21-1.96-.14-3.85-.37-5.77-.77-4-.83-8.01-1.86-12.12-1.34-.96.12-2.17.44-3.12.13-.19-.06-.52-.18-.64-.37s-.07-.07-.05-.14c.21-.7 1.8-.65 2.34-.66 1.21-.03 2.42-.03 3.63-.04 4.98-.05 9.95-.15 14.93-.24 2.61-.05 2.62-4.07 0-4.06-3.83 0-7.67 0-11.5.03-1.79.02-3.59.04-5.38.05s-3.83-.07-5.54.8c-3.22 1.64-3.6 5.79-.64 7.88 2.86 2.02 6.63.5 9.84.75 3.49.26 6.85 1.38 10.31 1.87 2.67.38 6.44-.22 8.21 2.26.96 1.35 1.7 2.9 2.51 4.34.95 1.67 1.9 3.34 2.85 5.02.4.7.79 1.39 1.19 2.09.16.29.47.67.55 1 .11.42.18-.02.07.2-.58 1.1-3.08 1.47-4.09 1.72-3.41.84-6.97 1.13-10.45 1.5-3.69.4-7.39.76-11.1 1-1.8.12-3.78-.68-5.85-.49-3.01.28-3.11 3.21-2.7 5.58s1.43 4.82 4.25 4.17c.89-.21 1.71-.76 2.61-.91-.84.14.65.12.69.12.48.04.96.07 1.44.1.96.06 1.93.1 2.89.14 3.7.14 7.4.15 11.1.32 1.76.08 3.53.19 5.29.33 1.5.12 3.38.09 4.77.78 1.3.65 1.59 2.26 1.82 3.56.35 1.98.58 3.98.86 5.97.61 4.25 1.19 8.51 1.78 12.77.58 4.2 1.3 8.4 1.75 12.62.18 1.68-.09 2.98-1.61 3.91s-3.31 1.06-4.99 1.18c-2.5.18-2.55 3.87 0 3.93 6.91.17 13.86-.52 20.65-1.76 3.05-.56 6.28-1.07 9.19-2.16s4.69-3.29 4.32-6.49c-.8-6.79-2.32-13.59-3.78-20.27-.73-3.34-1.48-6.69-2.35-10-.74-2.8-2.02-5.39-4.84-6.55-1.57-.65-3.28-.82-4.95-1.05-1.93-.26-3.86-.48-5.8-.63-3.84-.31-7.68-.32-11.53-.22l1.99 1.99-.12-3.9-.06-1.95c0-.33-.02-.65-.03-.98-.01-.38 0-.42.02-.12l-.73.73c-.14.08.6-.01.81-.02.53-.01 1.07-.02 1.6-.02 1.07 0 2.14 0 3.21.02 1.97.02 3.95.02 5.92-.14 2.88-.23 10.63-.95 7.9-5.71-1.01-1.77-2.62-3.34-3.91-4.92-1.4-1.71-2.8-3.43-4.21-5.14-1.29-1.58-2.53-3.25-4.21-4.45-1.52-1.08-3.34-1.45-5.15-1.75-4.86-.78-9.73-1.44-14.63-1.82l1.76 1.76c-.19-2.1-.38-4.21-.58-6.31-.18-1.98-3.2-2.05-3.14 0Zm-94.45 31.52c5.03-.07 10.15-.76 15.14-1.32 2.41-.27 4.82-.51 7.23-.7 1.29-.1 2.58-.19 3.87-.25s2.68.06 3.93-.29c1.9-.53 1.97-3.42 0-3.92-1.27-.32-2.63-.16-3.93-.1s-2.58.14-3.87.25c-2.5.2-4.99.49-7.47.82s-5.01.75-7.5 1.2c-2.6.46-5.23.8-7.79 1.46-1.59.41-1.27 2.89.39 2.87Zm7.84-18.07c3.38.05 6.71.12 10.09-.1 3.35-.22 6.76-.34 10.09-.76 1.36-.17 2.28-1.17 1.98-2.6-.27-1.3-1.49-1.78-2.68-1.58-1.07.18-1.7 1.75-1.06 2.62l.09.12-.26-.95-.02.16.27-1-.08.15 1.77-1.02c-3.43.14-6.87.6-10.29.94-3.45.35-6.81.98-10.22 1.6-1.4.26-1.03 2.4.33 2.42Zm-1.02-11.87c3.68.27 7.35.35 11.04.12 1.77-.11 3.53-.26 5.29-.46 1.8-.21 3.84-.24 5.51-.97.75-.33 1.06-1.39.86-2.12-.24-.86-.98-1.28-1.81-1.38s-1.8.15-2.65.27c-.77.1-1.54.2-2.32.29-1.76.21-3.53.4-5.3.56-3.54.32-7.08.65-10.63.88-1.8.12-1.8 2.67 0 2.8Zm-1.88-16.88c1.92-.04 3.85.2 5.78.18s4-.09 5.99-.19c1.92-.1 3.84-.23 5.76-.36 1.94-.14 4.33-.03 6.08-.89 1.53-.75 1.1-3.19-.47-3.58-1.79-.45-4.01.13-5.84.33-1.92.21-3.84.39-5.77.58l-5.77.57c-1.92.19-3.85.63-5.78.74-1.67.1-1.7 2.66 0 2.62Zm3.53-11.64c3.08.12 6.16.21 9.25.21s6.2-.06 9.23-.46c1.09-.14 2.04-.84 2.04-2.04 0-1.06-.93-2.09-2.04-2.04-3.07.15-6.17.54-9.23.86-3.08.32-6.16.61-9.25.82-1.69.11-1.71 2.58 0 2.64Zm64.32-3.87c-3.13-.19-6.25-.41-9.38-.49-1.53-.04-3.07-.03-4.6-.04-1.63 0-3.59-.28-5.07.45-1.28.63-1.31 2.81 0 3.43 1.47.7 3.3.42 4.89.39s3.19-.04 4.78-.11c3.14-.13 6.25-.4 9.38-.63 1.91-.14 1.93-2.87 0-2.98ZM86.1 59.63c2.39.37 4.88.16 7.28.03 2.38-.13 4.75-.28 7.13-.41 4.78-.28 9.75-.36 14.46-1.29 1.97-.39 1.36-3.22-.45-3.33-4.71-.3-9.56.31-14.26.66-2.29.17-4.59.34-6.88.52s-4.98.27-7.28.95c-1.3.38-1.54 2.64 0 2.88Z"/><path d="M86.92 76.37c5.93.5 11.94.03 17.88-.05 2.9-.04 5.8-.06 8.7-.05 3.05 0 6.17.19 9.19-.28 1.8-.28 1.74-3.23 0-3.57-2.92-.57-5.98-.45-8.94-.46-3.06 0-6.13 0-9.19.05-6.02.08-12.14.02-18.08 1.07-1.98.35-1.32 3.15.45 3.3Zm-1.04 10.97c6.95.37 13.98.06 20.92-.35 3.45-.21 6.89-.42 10.32-.87 3.44-.44 7.09-.5 10.45-1.35 1.66-.42 1.25-2.86-.39-2.92-3.4-.12-6.89.49-10.3.62s-6.88.41-10.32.61c-6.89.41-13.8.59-20.68 1.13-1.98.16-2.02 3 0 3.11Zm.63 18.08c5.76.98 11.6 1.11 17.43 1.03 2.88-.04 5.75-.14 8.63-.31 2.9-.17 6.02-.25 8.84-1.01 2.03-.54 1.51-3.42-.48-3.54-2.75-.17-5.61.24-8.36.4s-5.75.28-8.63.32c-5.67.09-11.34-.17-17.01-.02-1.72.04-2.26 2.82-.42 3.13m-55.88 14.34c5.07-.01 10.13.07 15.21-.06 5.07-.13 10.14-.21 15.22-.25 2.73-.02 2.73-4.31 0-4.23-5.07.14-10.15.32-15.22.55s-10.13.77-15.21 1.31c-1.68.18-1.77 2.69 0 2.69Zm56.43-1.05c8.55 0 17.06-.64 25.59-1.1 8.45-.46 16.91-.83 25.37-1.13 4.86-.17 9.85-.05 14.67-.72.89-.12 1.41-1.2 1.3-2-.13-.94-.87-1.5-1.79-1.58-4.18-.37-8.5 0-12.69.13-4.31.13-8.63.3-12.94.48-8.46.36-16.91.77-25.36 1.3-4.89.31-9.73.81-14.58 1.51-1.79.26-1.31 3.1.42 3.1Zm-76.5 16.33c4.23-.21 8.47-.27 12.7-.5 4.24-.24 8.47-.51 12.7-.78 8.47-.54 16.94-1.09 25.4-1.64-.17-1.27-.34-2.55-.52-3.82-.39.13-.76.29-1.15.43-1.76.64-1.58 3.36.46 3.38.41 0 .8.03 1.21.02 2.51-.08 2.49-4.05 0-3.89-8.47.56-16.94 1.12-25.4 1.69-4.15.28-8.3.56-12.45.87s-8.63.83-12.95 1.18c-1.94.16-1.99 3.16 0 3.06m.64 14.33c2.04.42 4.25.18 6.32.09s3.95-.17 5.92-.3a639 639 0 0 0 12.33-.94c8.21-.7 16.41-1.61 24.59-2.65 1.07-.13 1.99-.82 1.99-1.99 0-.97-.92-2.13-1.99-1.99-8.18 1.03-16.38 1.9-24.59 2.66-4.11.38-8.22.71-12.33 1.03-1.97.15-3.95.33-5.92.48-2.06.16-4.34.13-6.32.76-1.3.42-1.51 2.54 0 2.85m77.79-17.65c8.62-.32 17.24-.66 25.86-.89 4.31-.11 8.63-.22 12.94-.29 2.16-.04 4.31-.06 6.47-.08 1 0 1.99-.02 2.99-.02 1.15 0 2.35.11 3.46-.23 1.67-.51 1.69-2.9 0-3.41-1.95-.58-4.42-.19-6.44-.17-2.16.02-4.31.05-6.47.09-4.31.07-8.63.18-12.94.33-8.63.31-17.25.75-25.86 1.45-2.04.17-2.09 3.3 0 3.22Zm-.84 13.92c18.24.18 36.5-.57 54.75-.55 2.5 0 2.71-3.34.56-4.14-.41-.15-.82-.28-1.24-.4-2.18-.66-3.32 2.4-1.5 3.57.37.24.73.47 1.12.69l1.06-3.93c-18.22-.02-36.58-.13-54.75 1.38-2.14.18-2.21 3.37 0 3.39Z"/><path d="M103.79 130.56c-.11-.22-.26-.39-.46-.53-.14-.1-.85-.49-.32-.16-.76-.47-2.08-.06-2.24.91-.32 2.02-.25 4.07-.19 6.11.03.97.08 1.94.14 2.91.06 1.07.07 2.21.35 3.24.2.73.89 1.24 1.64 1.25.99.01 1.89-.53 2.16-1.51.32-1.15-.72-1.9-1.76-1.76.17-.03.2-.04.08-.03-.22.02-.09.06.37.13l.84 1.47c.11-1.02-.07-2.1-.13-3.13-.06-.97-.1-1.94-.16-2.91s-.1-1.94-.14-2.91c-.02-.52-.06-1.05-.1-1.57s-.05-1.25-.35-1.69l-.22 1.73.06-.07-.61.35.1-.02h-.71l.1.02-.58-.34.07.07c1.11 1.04 2.67-.26 2.04-1.57Zm18.19-.58q.03 3.885.12 7.77c.03 1.22.09 2.45.08 3.68 0 .21 0 .43-.03.64.05-.3-.11.29-.1.32-.04.12-.03.11.01-.02.1-.11.09-.09-.04.06-.34.36-.46.75-.48 1.24-.02.71.49 1.17 1.08 1.42 1.46.61 2.66-1.18 2.87-2.38.22-1.31.08-2.67.04-3.99-.08-2.91-.18-5.82-.31-8.73-.09-2.08-3.26-2.1-3.25 0Zm-8.68-13.15s-.36-.24-.2-.1c-.78-.68-2.16-.49-2.42.64-.2.86-.09 1.76-.03 2.63.05.78.1 1.56.17 2.34.14 1.59.24 3.18.44 4.76.1.86.69 1.7 1.66 1.66.86-.04 1.71-.73 1.66-1.66-.09-1.62-.28-3.24-.43-4.86-.07-.81-.17-1.62-.26-2.43-.1-.95-.17-1.9-.56-2.79-.42.73-.83 1.45-1.25 2.18-.26-.02.18.08.19.08 1.46.44 2.35-1.7 1.04-2.46Zm-.52 27.45c.08 2.69.11 5.38.27 8.08.08 1.32.16 2.65.23 3.97.04.73-.03 1.58.35 2.23.49.84 1.37 1.09 2.27.95.59-.09 1-.66 1.18-1.18l.03-.09c.47-1.34-1.26-2.66-2.43-1.87l-.08.05h1.7l-.08-.04.62.62c.04.08.06.17.06.26l-.03-.4-.05-.79-.12-1.72c-.07-1.1-.14-2.21-.23-3.31-.18-2.26-.43-4.5-.64-6.75-.08-.82-.65-1.53-1.53-1.53-.81 0-1.56.7-1.53 1.53Zm-88.57-24.07c-.1 2.56-.15 5.11-.11 7.67 0 .63.02 1.26.03 1.89s-.05 1.32.12 1.93c.24.88 1.06 1.57 1.99 1.54 1.06-.03 1.71-.85 1.81-1.84s-1.07-1.76-1.95-1.48l-.08.03h.85c.36.1.61.36.75.75.03.22.04.24.03.07.02-.22-.02-.45-.03-.67l-.06-1.45c-.04-.93-.07-1.85-.13-2.78-.11-1.9-.29-3.78-.47-5.67-.07-.74-.58-1.38-1.38-1.38s-1.35.63-1.38 1.38Zm19.68-1.38c0 .99.44 2.08.68 3.03s.45 1.99.66 3c.18.89.34 1.87.44 2.68q.09.735.15 1.47c.03.33.04.66.1.98.07.34.22.64.37.95.63 1.26 2.4.8 2.8-.37s.04-2.45-.12-3.59c-.14-1.01-.33-2.01-.54-3.01s-.51-1.98-.82-2.95c-.34-1.06-.71-2.28-1.41-3.15-.76-.94-2.32-.13-2.31.96m-9.3 13.63c-.24 4.14-.18 8.3-.11 12.45.02.97.82 1.8 1.8 1.8s1.83-.83 1.8-1.8c-.1-4.15-.22-8.31-.63-12.45-.18-1.82-2.77-1.88-2.88 0Zm-9.79 14.98c-.44 1.99-.75 4-.92 6.03-.16 2.01-.29 4.14.01 6.14.1.66.83 1.15 1.43 1.23.69.09 1.35-.23 1.71-.82.09-.14.17-.28.26-.42.85-1.39-.82-2.95-2.18-2.18-.14.08-.29.16-.43.24l2.59 1.49c.04-.94-.07-1.9-.07-2.84s0-1.9.03-2.84c.06-1.89.18-3.78.4-5.65.08-.7-.61-1.34-1.25-1.41-.67-.08-1.42.32-1.58 1.03m20.58-1.27c-.33 1.01-.4 2.2-.42 3.27-.02.96.02 1.92.11 2.88.1 1.04.24 2.08.45 3.11s.45 2.25 1 3.17c.39.64 1.19.98 1.91.78.66-.18 1.33-.91 1.24-1.63-.12-1.04-.5-2.03-.74-3.04-.19-.8-.39-1.81-.48-2.48-.12-.92-.18-1.85-.19-2.78s.05-1.93-.04-2.88c-.07-.72-.5-1.34-1.26-1.43s-1.36.34-1.59 1.04ZM29.22 94.35c-.96 2.84-2.07 5.25-3.5 7.92-.35.65-.19 1.57.51 1.93s1.53.17 1.93-.51c1.6-2.69 2.81-5.62 3.68-8.63.2-.68-.24-1.51-.95-1.67-.75-.17-1.43.23-1.67.95Zm9.04-1.48c-.27 1.39-.62 2.76-1.06 4.1-.22.66-.46 1.31-.7 1.96-.12.33-.25.65-.38.97l-.09.21c.05-.13.05-.11-.03.06-.12.27-.2.5-.27.78-.17.69.16 1.4.82 1.68s1.37 0 1.78-.58c.46-.66.72-1.5 1.01-2.25.25-.65.46-1.31.66-1.98.41-1.38.72-2.79.95-4.21.12-.72-.19-1.54-.98-1.72-.69-.16-1.57.21-1.72.98Zm8.57 5.72.55-.72.14-.18c.11-.15.26-.29.34-.45.07-.13.14-.27.2-.4.1-.15.15-.32.16-.5.04-.18.03-.36-.02-.53l-.13-.32a.94.94 0 0 0-.34-.37.66.66 0 0 0-.29-.17q-.24-.12-.51-.12l-.36.05c-.23.06-.42.18-.59.34-.11.1-.23.2-.33.3-.13.12-.23.3-.34.44l-.14.18-.55.72c-.1.16-.16.34-.17.53-.04.19-.03.38.03.56l.14.34c.09.16.21.3.36.4.09.09.19.15.31.18q.255.135.54.12l.38-.05c.24-.07.45-.19.62-.36Zm53.41-5.55c.1 2.35.4 4.77 1.13 7 .22.69.97 1.2 1.7.97s1.13-.94.97-1.7c-.24-1.07-.48-2.15-.66-3.24l-.06-.38c-.01-.1-.05-.38-.02-.12-.04-.29-.07-.59-.1-.88q-.075-.825-.12-1.65c-.03-.74-.63-1.46-1.42-1.42-.74.03-1.46.63-1.42 1.42m8.74-3.12c.01 1.89.26 3.8.77 5.62.5 1.79 1.18 3.69 2.32 5.17.48.62 1.26.96 2 .52s.84-1.27.52-2c-.64-1.49-1.37-2.88-1.86-4.51-.49-1.65-.75-3.16-.83-4.8-.04-.79-.64-1.46-1.46-1.46s-1.47.67-1.46 1.46m9.23 2.63.93 1.66c.31.55.62 1.11.97 1.64.21.32.5.57.87.67.35.1.82.05 1.13-.15s.59-.5.67-.87c.09-.4.03-.75-.15-1.13-.28-.57-.6-1.12-.92-1.67l-.96-1.65c-.19-.32-.53-.58-.88-.68s-.82-.05-1.14.15c-.68.44-.94 1.3-.53 2.02ZM97.04 67.41l.2-.04.32-.14c.16-.08.28-.2.38-.35.08-.08.14-.18.17-.3.08-.16.12-.33.12-.52l-.05-.36-.14-.32a1 1 0 0 0-.35-.38.97.97 0 0 0-.46-.24l-.2-.04a1.33 1.33 0 0 0-.74 0c-.24.07-.44.19-.61.36l-.22.28c-.13.22-.19.45-.19.7 0 .19.03.37.12.54.06.17.15.32.29.45.17.17.38.29.61.36.25.07.49.07.74 0Zm5.86-2.71c1.71 0 1.71-2.66 0-2.66s-1.71 2.66 0 2.66m2.07 5.18c1.7 0 1.7-2.64 0-2.64s-1.7 2.64 0 2.64m-64.94.7c1.81 0 1.81-2.81 0-2.81s-1.81 2.81 0 2.81m4.92-3.42.42.41c.14.15.31.26.5.32.19.1.38.14.6.13.21 0 .41-.04.6-.13.19-.06.36-.17.5-.32l.24-.31q.21-.36.21-.78l-.06-.41c-.07-.26-.21-.49-.4-.69l-.4-.43c-.14-.15-.31-.26-.51-.32-.19-.1-.39-.14-.61-.14s-.42.04-.61.14c-.19.06-.36.17-.51.32l-.25.32c-.14.24-.21.51-.21.79l.06.42c.07.27.21.5.4.69Zm3.59 6.15c1.85 0 1.85-2.88 0-2.88s-1.85 2.88 0 2.88"/></svg>