<?xml version="1.0" encoding="UTF-8"?><svg xmlns="http://www.w3.org/2000/svg" viewBox="0 0 180 180"><path d="M33.84 140.19c-4.55-13.33-7.7-27.11-10.93-40.8-1.86-7.89-3.75-15.76-5.78-23.61-1.12-4.34-2.28-8.67-3.5-12.98-.33-1.18-.67-2.36-1-3.54-.25-.86-.6-1.74-.45-2.66.28-1.67 1.6-2.3 2.98-2.96 3.19-1.53 5.94-3.6 8.79-5.65 3.23-2.32 6.86-4.31 10.66-5.49 6.84-2.12 13.45 2.86 19.29 5.82 2.98 1.51 6.03 2.95 9.21 3.97 2.5.8 5.55 1.52 8.14.7 1.85-.58 3.33-2.16 4.63-3.52 1.88-1.95 3.64-4.02 5.47-6.02 1.97-2.15 3.99-4.27 6.25-6.11.83-.68 1.84-1.37 2.86-1.9.61-.32.61-.32 1.13-.49.24-.08.47-.14.71-.2.13-.03.27-.06.4-.08-.43.07.12 0 .26 0 2.26-.05 4.37.74 6.45 1.56 1.92.76 3.79 1.64 5.63 2.59 3.71 1.92 7.36 3.99 11.3 5.41 2.28.82 4.53.84 6.72-.26 1.83-.92 3.48-2.3 5.11-3.52 2.71-2.01 5.32-4.14 8-6.18.73-.55 1.46-1.1 2.19-1.64.83-.61 1.79-1.61 2.77-1.93.9-.29 1.65.23 2.01 1.05.92 2.12 1.53 4.44 2.27 6.63.77 2.29 1.53 4.58 2.28 6.88 5.9 18.07 11.11 36.36 15.73 54.8 1.14 4.53 2.25 9.07 3.32 13.61.28 1.18.56 2.35.81 3.53.1.48.48 1.59.27 1.95-.15.26-.82.46-1.1.6-.5.25-1.01.5-1.51.75-1 .5-2 .99-3 1.48-3.38 1.66-6.78 3.27-10.18 4.89-3.77 1.8-7.46 3.82-11.27 5.53-2.05.92-3.81.85-5.88.04s-4.07-1.87-6.08-2.82c-2.19-1.03-4.39-2.06-6.58-3.09-2.08-.98-4.14-2.08-6.3-2.85s-4.27-.83-6.32-.02-3.74 2.21-5.49 3.52c-3.86 2.89-7.7 5.79-11.55 8.69-1.77 1.33-3.5 2.83-5.39 4-.64.4-1.21.67-1.97.46-1.07-.3-2.07-1.08-3.02-1.65-4.2-2.51-8.41-5.01-12.61-7.52-1.99-1.18-3.95-2.53-6.1-3.39-2.31-.92-4.56-.66-6.8.32-3.92 1.71-7.68 3.98-11.25 6.32-3.66 2.39-7.13 5.04-10.46 7.87-.95.81-.83 2.43 0 3.26.94.94 2.31.81 3.26 0 3.42-2.9 7.08-5.56 10.87-7.95 1.89-1.19 3.82-2.32 5.78-3.39 1.61-.87 3.76-2.46 5.67-2.4 2.05.07 4.15 1.84 5.84 2.85 2.21 1.31 4.42 2.63 6.64 3.94s4.28 2.54 6.42 3.81c1.96 1.16 4.01 2.64 6.38 2.61 2.24-.02 4.01-1.4 5.71-2.68 1.95-1.48 3.91-2.96 5.86-4.44 3.89-2.94 7.7-6.02 11.68-8.84 1.69-1.19 3.18-1.87 5.24-1.24 2.26.7 4.41 1.93 6.55 2.94 4.3 2.02 8.58 4.36 13.05 6 2.16.79 4.47 1.02 6.69.36s4.25-1.88 6.3-2.9c3.59-1.79 7.2-3.54 10.82-5.28 3.73-1.8 7.46-3.62 11.16-5.5 2-1.02 3.39-2.57 3.19-4.96-.19-2.31-.94-4.65-1.44-6.91-4.19-19.03-9.34-37.86-15.12-56.47-1.43-4.62-2.91-9.22-4.43-13.8q-1.14-3.435-2.31-6.87c-.71-2.07-1.19-4.65-2.69-6.32a6.01 6.01 0 0 0-4.77-1.95c-2.15.12-3.73 1.49-5.39 2.71-2.84 2.09-5.57 4.31-8.37 6.45-1.65 1.26-3.32 2.51-5.03 3.69-.71.49-1.47 1.07-2.32 1.29-1.06.27-2.14-.19-3.12-.56-3.86-1.47-7.39-3.61-11.07-5.44-2.11-1.05-4.29-1.98-6.5-2.81s-4.48-1.45-6.79-1.29c-2.7.19-5.09 1.49-7.21 3.1-4.68 3.56-8.31 8.21-12.31 12.48-.76.81-1.53 1.6-2.37 2.33-.15.13-.52.4-.14.13-.14.1-.28.19-.43.29-.13.09-.27.14-.4.22.49-.31.15-.07-.19.01-.64.16-2.03.05-2.99-.14-1.49-.31-2.95-.79-4.37-1.33-6.07-2.31-11.46-6.05-17.5-8.41-2.11-.82-4.36-1.39-6.63-1.41-2.39-.02-4.71.63-6.9 1.53-3.76 1.55-7.24 3.42-10.51 5.84-1.4 1.03-2.78 2.08-4.25 3-1.72 1.08-3.73 1.76-5.38 2.91-1.55 1.09-2.72 2.71-3.14 4.57-.49 2.18.21 4.14.81 6.21 2.55 8.72 4.89 17.49 7.1 26.3 3.65 14.5 6.87 29.14 11.36 43.42q1.545 4.92 3.27 9.78c.72 2.02 3.94 1.17 3.24-.89Z"/><path d="M32.67 39.99c3.94 11.59 6.76 23.51 9.52 35.43 2.78 11.97 5.97 23.77 9.45 35.55.98 3.31 1.97 6.63 2.91 9.95.92 3.28 1.49 6.78 2.82 9.91.71 1.68 3.17.68 3.22-.87.05-1.47-.41-2.82-.81-4.22a145 145 0 0 0-1.4-4.62c-.93-2.91-1.77-5.85-2.66-8.77-1.81-5.92-3.63-11.83-5.33-17.78-3.36-11.74-5.79-23.71-8.9-35.51-1.76-6.69-3.72-13.32-6.15-19.8-.61-1.63-3.23-.96-2.65.73Zm35.39 14.35c1.44 0 1.44-2.23 0-2.23s-1.44 2.23 0 2.23"/><path d="M66.87 51.94c2.56 11.99 4.99 24.01 7.59 36 2.56 11.8 5.22 23.53 6.9 35.49.93 6.61 1.87 13.17 3.79 19.59.6 2.02 3.72 1.17 3.16-.87-1.55-5.65-2.37-11.51-3.18-17.3-.83-5.93-1.81-11.79-3.05-17.65-2.52-11.91-5.19-23.79-7.82-35.67-1.5-6.79-3.16-13.54-4.67-20.33-.4-1.78-3.11-1.02-2.73.75Zm23.94-18.5c1.18 5.5 1.77 11.09 2.66 16.64.96 5.96 2.29 11.87 3.55 17.78l8.01 37.29c1.52 7.07 3.06 14.13 4.49 21.22.44 2.16 3.81 1.25 3.31-.91-2.84-12.48-5.44-25.01-8.13-37.52-2.63-12.26-5.55-24.49-7.81-36.83C95.76 44.96 95 38.77 93.5 32.7c-.43-1.75-3.07-1.01-2.7.74Zm28.84 9.52c.14 3 .82 5.97 1.36 8.91.55 2.99 1.09 5.97 1.64 8.96 1.11 6.06 2.23 12.12 3.37 18.17 2.28 12.07 4.71 24.11 7.31 36.11 1.47 6.76 3 13.51 4.53 20.25.47 2.09 3.66 1.2 3.21-.88-5.21-23.88-10.04-47.84-14.76-71.82-.67-3.4-1.34-6.81-2-10.21-.64-3.27-1.11-6.67-2.19-9.83-.44-1.28-2.54-1.16-2.47.33Z"/><path d="M40.56 143.39c8.38 2.36 16.77 4.71 25.15 7.07 2.18.61 4.41 1.23 6.67 1.1 3.23-.19 6.17-1.88 8.88-3.64 1.76-1.15 3.52-2.36 5.54-2.96 3.85-1.13 7.93.16 11.83 1.13 3.35.84 6.75 1.45 10.18 1.83 3.1.34 6.32.48 9.28-.52 2.77-.93 5.11-2.79 7.53-4.44 2.62-1.79 5.39-3.37 8.26-4.71 1.01-.47 2.05-.92 3.16-.99 1.14-.07 2.26.25 3.36.56 9.28 2.57 18.93 3.82 28.56 3.68a73.2 73.2 0 0 0-5.2-16.41c-4.66 3.57-9.98 6.18-15.39 8.45-5.11 2.14-10.67 4.02-16.1 2.92-5.5-1.11-9.91-5.07-14.8-7.83-1.22-.69-2.54-1.32-3.93-1.29s-2.68.72-3.88 1.41a88.3 88.3 0 0 0-14.47 10.41c-2.91 2.57-6.23 5.54-10.08 5.06-1.33-.17-2.57-.75-3.77-1.34-5.46-2.7-10.69-5.86-15.61-9.45-1.12-.82-2.26-1.67-3.59-2.06-2.7-.79-5.54.49-7.99 1.87-4.73 2.66-9.15 5.82-13.56 8.98"/><path d="M40.08 145.15c8.91 2.87 17.95 5.67 27.04 7.93 2.1.52 4.24.82 6.39.53s4.07-1.07 5.94-2.06c3.52-1.88 6.53-4.9 10.74-4.85 2.22.02 4.38.61 6.51 1.17s4.41 1.08 6.65 1.46c4.3.74 8.82 1.43 13.16.68 4.15-.72 7.34-3.32 10.73-5.61 1.81-1.23 3.68-2.39 5.64-3.38 1.72-.86 3.54-1.91 5.51-1.5 2.45.51 4.84 1.32 7.29 1.85s5.04.98 7.59 1.33c5.21.72 10.45 1.07 15.71 1.01 1.51-.02 2.39-1.38 2.11-2.78-1.14-5.85-2.98-11.5-5.41-16.94-.45-1-2.14-1.45-3.01-.79-3.74 2.82-7.85 5.03-12.08 7-4.17 1.94-8.67 3.99-13.3 4.43s-8.36-1.17-12.11-3.56c-1.81-1.15-3.57-2.37-5.38-3.52s-3.93-2.5-6.24-2.48-4.47 1.36-6.42 2.53-4.02 2.5-5.93 3.91-3.82 2.92-5.64 4.49c-1.6 1.38-3.1 2.91-4.79 4.19-1.46 1.11-3.2 2.18-5.09 2.11-2.17-.08-4.32-1.57-6.19-2.57-4.15-2.24-8.16-4.76-11.98-7.53-2.13-1.54-4.14-3.03-6.87-3.15s-5.29 1.07-7.57 2.36c-4.73 2.68-9.12 5.89-13.5 9.09-.88.64-1.31 1.75-.72 2.76.52.88 1.86 1.35 2.76.72 3.93-2.75 7.87-5.51 12.01-7.95 1.9-1.12 3.98-2.49 6.22-2.75s3.9 1.28 5.59 2.48c3.85 2.72 7.89 5.19 12.07 7.38 2.04 1.07 4.18 2.31 6.43 2.86 2.13.51 4.25.18 6.23-.69 3.94-1.73 6.99-5.18 10.37-7.74 1.88-1.42 3.83-2.77 5.8-4.07s3.87-2.71 5.97-3.56c1.94-.79 3.69.28 5.36 1.25 1.85 1.08 3.6 2.31 5.43 3.43 3.79 2.34 7.84 4.18 12.37 4.25 5.49.08 10.72-2.02 15.69-4.13 4.85-2.07 9.53-4.53 13.74-7.73l-3.01-.79c2.28 5.08 3.92 10.42 4.99 15.88l2.11-2.78c-9.16.12-18.19-1.04-27.06-3.32-2.07-.53-4.11-1.15-6.25-.64s-3.99 1.7-5.84 2.68c-3.67 1.94-6.86 4.63-10.51 6.55-3.72 1.96-7.99 1.56-12.02.99-4.44-.63-8.69-1.97-13.09-2.79-2.21-.41-4.41-.59-6.63-.22-2.1.35-4.02 1.32-5.81 2.45-3.3 2.08-6.63 4.62-10.74 4.38-2.33-.14-4.64-.99-6.88-1.61-2.53-.71-5.06-1.43-7.6-2.11-5.16-1.39-10.31-2.78-15.51-4.03-2.28-.55-3.2 2.79-.97 3.51ZM15.8 78.79c1.92-.22 3.9-1.04 5.77-1.58s3.93-1.14 5.79-1.96c3.28-1.44 6.15-4.12 7.45-7.5.26-.66.34-1.66.81-2.22.53-.62 1.65-.74 2.38-1 2.15-.76 4.29-1.56 6.39-2.45 1.73-.73 3.8-1.3 4.89-2.95s.55-3.55 1.03-5.35c.56-2.11 1.62-4.01 1.79-6.22.15-2.09-.53-4.14-2.26-5.38-.77-.55-1.92-.2-2.45.49-.62.81-.44 1.73.15 2.49 1.12 1.44.56 3.25.01 4.81-.37 1.06-.8 2.1-1.02 3.2-.23 1.11-.12 2.17-.22 3.27-.08.93-.8 1.13-1.61 1.39-1.23.4-2.47.76-3.69 1.17-2.31.79-5.03 1.43-7.11 2.73-1.94 1.22-1.91 3.39-2.86 5.22-.9 1.73-2.57 2.71-4.25 3.57-1.92.98-3.9 1.71-5.93 2.44s-4.72 1.61-6.1 3.3c-.7.86-.37 2.69 1.04 2.52ZM72 71.11c-2.59 0-5.47.11-7.75 1.49a6.7 6.7 0 0 0-2.56 2.75c-.67 1.31-.85 2.8-1.46 4.13-1.08 2.35-4.1 3.32-6.28 4.33-3.18 1.47-6.37 2.95-9.54 4.43-1.37.64-2.76 1.26-3.89 2.29s-1.92 2.52-2.57 3.96c-1.14 2.52-2.21 5.42-1.44 8.22.85 3.07 3.68 4.5 6.57 5.15 3.29.74 6.72 1 10.08.71 1.52-.13 3.06-.57 4.57-.59 1.6-.03 3.23.89 4.75 1.34 3.15.93 6.39 1.52 9.62 2.08 1.61.28 3.21.58 4.78-.08.68-.29 1.24-.73 1.81-1.21.45-.38.73-.76 1.34-.81s1.38.24 2 .31 1.18.11 1.78.1c1.36-.02 2.73-.24 4-.75 2.65-1.05 4.46-2.89 5.54-5.52 1.04-2.54 1.45-4.97 3.74-6.73s4.32-3.59 5.49-6.43a13.1 13.1 0 0 0 .64-7.89c-.69-2.97-2.59-5.54-5.02-7.32s-5.4-2.4-8.48-2.48c-1.18-.03-2.66.04-3.65-.72-.66-.51-1.1-1.22-1.79-1.71-.64-.47-1.38-.79-2.16-.97-1.63-.36-3.33-.1-4.93.26-1.77.39-3.52.83-5.27 1.3-2.53.69-1.46 4.41 1.08 3.9 1.35-.27 2.69-.58 4.03-.9 1.22-.29 2.53-.71 3.8-.58 1.11.11 1.53.94 2.3 1.63.97.87 2.18 1.43 3.46 1.67 2.29.43 4.65.04 6.88.77 1.94.63 3.67 2.06 4.72 3.8 2.29 3.76 1.12 8.69-2.28 11.36-.98.77-2.04 1.44-2.91 2.33-.93.96-1.55 2.09-2.03 3.33-.8 2.04-1.02 4.65-2.75 6.17-1.52 1.34-3.91 1.5-5.83 1.26-1.26-.16-2.49-.56-3.77-.22s-1.98 1.26-3 1.97c-.9.63-2.31.08-3.3-.11-1.54-.29-3.07-.59-4.6-.93-1.37-.31-2.74-.63-4.09-1.01s-2.77-1-4.2-1.27c-1.55-.3-2.97 0-4.5.26-1.43.23-2.88.33-4.33.33-2.67 0-5.61-.2-8.13-1.15-2.36-.89-2.23-2.95-1.55-5.05.36-1.1.84-2.17 1.39-3.19.68-1.27 1.55-1.93 2.82-2.56 3.02-1.49 6.11-2.86 9.15-4.3 2.6-1.23 5.46-2.29 7.61-4.25 1.11-1.01 1.84-2.28 2.33-3.69.42-1.22.53-2.66 1.3-3.73 1.43-1.96 4.27-2.12 6.47-2.26 2.04-.12 2.08-3.21 0-3.2Zm33.9-30.25c-.7 6.57-.02 13.43 2.06 19.72.48 1.46 1.16 2.6 2.54 3.37 1.52.85 3.25 1.43 4.84 2.13 3.35 1.48 6.67 3.02 10.04 4.46 1.41.6 2.83 1.34 4.33 1.69 1.62.38 3.12.19 4.68-.31 1.15-.37 2.19-.76 3.28 0s1.58 2.06 1.78 3.32c.42 2.64.12 6.01-1.71 8.09-1.6 1.81-3.92 2.81-6.16 3.56-2.8.93-5.77 1.48-8.13 3.38-1.09.87-1.95 1.98-2.46 3.29-.25.65-.26 1.31-.44 1.97s-.7.94-1.2 1.38c-4.07 3.67-7.13 9.76-5.29 15.28 1.05 3.16 3.67 4.17 6.79 4.24s6.69.31 9.72-.58c2.45-.73 4.35-2.46 5.92-4.41 1.43-1.78 2.72-3.89 4.62-5.23 2.37-1.68 5.51-2.02 7.46-4.33 2.16-2.57 1.54-5.71 2.55-8.67.49-1.44 1.7-2.51 2.56-3.73.97-1.38 1.66-2.96 2.05-4.61s.43-3.21.46-4.86c.02-1.07.27-3.17 1.5-3.11 2.65.14 2.67-4.06 0-4.14-3.26-.09-5.01 2.85-5.14 5.76-.06 1.38.12 2.77-.11 4.14-.26 1.47-.88 2.88-1.66 4.15-.7 1.14-1.66 2.08-2.39 3.2-.79 1.2-1.18 2.57-1.4 3.98-.34 2.23-.32 4.72-2.47 6.02-2.2 1.33-4.66 1.89-6.67 3.58-1.81 1.51-3.09 3.53-4.59 5.32-1.62 1.93-3.23 3.12-5.81 3.29-1.56.1-3.13.12-4.69.12-1.16 0-2.83.24-3.93-.28-.86-.41-1.02-1.59-1.11-2.44-.15-1.35.09-2.68.51-3.95.87-2.6 2.66-4.54 4.64-6.35.51-.47.99-.98 1.3-1.61.36-.71.35-1.41.51-2.18.24-1.13 1.03-1.99 1.99-2.59 2.26-1.41 5.06-1.8 7.51-2.79s4.64-2.16 6.32-4.07c1.98-2.26 2.77-5.09 2.85-8.06.08-2.83-.42-5.87-2.41-8.01s-4.59-2.47-7.34-1.78c-1.67.42-2.72.21-4.29-.47-1.85-.8-3.68-1.62-5.54-2.39-3.54-1.46-7.09-2.9-10.59-4.43-.83-.36-1.2-.52-1.51-1.39s-.54-1.78-.78-2.67c-.43-1.64-.78-3.31-1.05-4.98-.58-3.64-.77-7.36-.68-11.05.05-2.13-3.03-2.03-3.25 0Z"/><path d="M14.27 75.04c1.19-5.89.75-12.09-1.26-17.75-.33-.94-.71-1.93-.47-2.89.33-1.31 1.67-2.07 2.88-2.68L33 42.93a40.1 40.1 0 0 1 4.92 16.37c.06.73-.01 1.65-.69 1.93-.32.14-.69.08-1.03.09-1.25.03-2.31.99-2.95 2.06-.64 1.08-.98 2.31-1.55 3.43-1.28 2.53-3.66 4.37-6.25 5.54s-5.4 1.74-8.18 2.3"/><path d="M15.56 75.4c.88-3.47 1.31-7.09.95-10.66-.18-1.8-.49-3.6-.94-5.35-.22-.87-.49-1.73-.78-2.59-.2-.59-.66-1.45-.39-2.07.48-1.11 2.75-1.78 3.73-2.26 1.76-.88 3.52-1.75 5.28-2.63 3.52-1.75 7.04-3.5 10.56-5.26l-2.62-.69c1.8 3.29 3.09 6.8 3.89 10.46.21.93.38 1.88.52 2.82.1.72-.04 1.81.24 2.44-.09.56.09.49.55-.23-.18-.01-.36 0-.54.02-.42.03-.83.1-1.23.24-.84.29-1.61.81-2.22 1.46-1.23 1.31-1.68 2.97-2.44 4.54-.68 1.4-1.7 2.57-2.95 3.49-3.02 2.21-6.83 2.92-10.42 3.64-2.45.49-1.42 4.25 1.03 3.75 4.06-.83 8.25-1.76 11.64-4.29 1.6-1.19 3.01-2.67 3.92-4.47.62-1.22 1.1-3.97 2.63-4.48.87-.29 1.64 0 2.48-.56s1.25-1.48 1.36-2.47c.23-2.02-.3-4.33-.69-6.3-.84-4.21-2.41-8.25-4.48-12.01-.52-.95-1.71-1.14-2.62-.69-3.73 1.87-7.46 3.75-11.19 5.62l-5.49 2.76c-1.47.74-3.08 1.48-4.01 2.91-1.03 1.58-.79 3.32-.19 5.01.62 1.77 1.15 3.56 1.49 5.41.71 3.81.86 7.86.33 11.7-.23 1.65 2.14 2.43 2.58.71Zm30.75 16.07c-1.61.45-2.89 1.67-4.02 2.91-.97 1.06-1.91 2.21-2.41 3.56s-.51 2.96.3 4.15c1.08 1.58 3.19 2 5.08 2.29 1.2.18 2.41.36 3.61.55.69.1 1.53.14 1.92-.43.45-.67-.1-1.53-.55-2.19-1.36-1.99-1.95-4.38-2.53-6.72-.43-1.75-.86-3.57-.54-5.35"/><path d="M45.91 90.02c-2.94.84-5.36 3.15-7.01 5.69-1.73 2.65-1.85 6.49.78 8.63 2.38 1.93 5.79 2.01 8.69 2.41 1.71.24 3.75 0 4.34-1.95.53-1.77-.75-3.06-1.52-4.49-.74-1.4-1.14-2.96-1.53-4.49-.41-1.62-.99-3.41-.73-5.1.15-.97-.25-1.97-1.28-2.25-.87-.24-2.09.3-2.25 1.28-.45 2.8.29 5.56 1.04 8.26.35 1.27.78 2.52 1.36 3.72.25.52.54 1.02.85 1.51.13.2.25.54.42.69.29.27.01.08.03.07a.53.53 0 0 1 .13-.39c.02-.21.12-.35.32-.42l.19-.11-.12.03c.13.05-.09-.01-.14-.02-.38-.07-.17 0-.08 0-.18-.02-.37-.06-.55-.09l-2.08-.33c-1.14-.18-2.31-.32-3.41-.67-.76-.24-1.4-.55-1.73-1.27-.13-.28-.18-.68-.16-1.12s.14-.9.35-1.4c.45-1.07 1.28-2.07 2.07-2.95s1.72-1.97 2.85-2.35c1.82-.6 1.07-3.43-.8-2.89ZM75 73.44c-.69 4.88 1.97 9.52 3.08 14.32 1.23 5.32.54 10.94 1.78 16.25.11.47.24.94.52 1.33.57.77 1.63 1.01 2.59.96 3.84-.19 6.71-3.99 7.22-7.8.11-.81.16-1.69.67-2.33.35-.44.87-.71 1.37-.99 3.54-1.98 6.44-5.08 8.18-8.74.47-1 .87-2.06.88-3.16.02-1.83-1.04-3.55-2.47-4.7s-3.19-1.79-4.96-2.27c-1.93-.52-3.9-.88-5.89-1.06-1.85-.17-3.89-.26-5.22-1.56-.43-.43-.76-.96-1.19-1.38-1.46-1.43-4.17-1.24-5.41.38"/><path d="M73.49 73.03c-.69 3.79.41 7.43 1.59 11.01.61 1.83 1.19 3.67 1.51 5.58.33 1.99.41 4.02.5 6.03s.2 4.07.48 6.1c.23 1.71.39 3.91 1.72 5.17 2.5 2.38 6.56 1.06 8.87-.88 1.19-.99 2.16-2.32 2.8-3.72.34-.74.64-1.5.84-2.29.18-.74.17-1.54.4-2.26.2-.65.76-.8 1.33-1.13.74-.43 1.44-.91 2.11-1.42 1.39-1.05 2.65-2.23 3.75-3.58 2.16-2.68 4.42-6.26 3.7-9.84-.76-3.78-4.27-5.99-7.69-7.08-2.12-.68-4.31-1.08-6.51-1.35-1.56-.19-3.65-.02-4.84-1.22-.64-.64-1.07-1.36-1.84-1.87s-1.69-.81-2.63-.9c-1.79-.17-3.69.51-4.83 1.92-.67.83-.81 1.99 0 2.81.73.73 2.09.8 2.81 0 1.97-2.2 3.49 1.08 5.06 1.97 2.61 1.48 6.05 1.11 8.92 1.72 2.64.56 6.17 1.35 7.45 4.05 1.13 2.38-1.04 5.39-2.47 7.19-.85 1.07-1.84 2.06-2.9 2.91-1.13.91-2.52 1.48-3.61 2.41s-1.43 2.1-1.61 3.43-.51 2.47-1.16 3.59c-.57.97-1.34 1.84-2.31 2.42-.68.4-2.26 1.08-2.99.48-.37-.3-.38-1.24-.47-1.68-.18-.91-.29-1.82-.38-2.74-.16-1.71-.23-3.43-.33-5.15-.22-3.71-.73-7.27-1.91-10.8-1.15-3.44-2.51-6.77-2.29-10.47.1-1.74-2.75-2.16-3.07-.42Zm53.82 17.23c-1.07 1.57-2.15 3.14-3.22 4.71-.96 1.41-1.96 2.9-2.12 4.6-.05.5-.03 1.03-.23 1.49-.17.38-.48.68-.76.98-1.55 1.63-2.71 3.75-2.76 6s1.21 4.6 3.32 5.4c1.88.72 3.99.14 5.92-.44 1.26-.38 2.68-.89 3.17-2.11.32-.79.17-1.67.07-2.52-.34-2.88 0-5.79.01-8.69s-.36-5.92-1.95-8.34"/><path d="M126.2 89.16a58 58 0 0 0-4.28 5.69c-.6.91-1.12 1.86-1.48 2.89-.3.85-.16 1.97-.61 2.71-.52.85-1.38 1.53-1.92 2.39s-1.01 1.85-1.29 2.84c-.58 2.02-.43 4.12.46 6.02.84 1.79 2.42 3.2 4.32 3.76 2.16.63 4.49.07 6.58-.57 1.81-.56 3.67-1.38 4.43-3.25.41-1.01.37-2.03.25-3.09-.15-1.27-.2-2.55-.18-3.83.04-2.57.3-5.14.04-7.7-.24-2.34-.73-5.24-2.48-6.95-1.23-1.2-3.6 0-3 1.75.53 1.57 1.28 2.92 1.55 4.59.28 1.76.22 3.57.15 5.34-.07 1.98-.2 3.96-.04 5.94.05.66.34 1.59.18 2.24-.13.5-.53.68-.99.87-2.37 1-6.16 1.99-7.38-1.07-.51-1.28-.34-2.71.22-3.94.66-1.45 1.97-2.38 2.68-3.76.48-.92.33-1.94.59-2.91s.76-1.75 1.28-2.55c1.17-1.82 2.38-3.62 3.39-5.52.8-1.49-1.25-3.3-2.45-1.89Zm-16.55-49.61c-1.54 5.2-.33 10.78 1.2 15.98.77 2.62 1.88 5.51 4.38 6.6 2.45 1.07 5.82.21 7.5 2.29.15-.62.04-1.27-.07-1.9-1.07-5.97-2.15-11.94-3.22-17.91-.08-.46-.18-.95-.48-1.3-.36-.43-.95-.58-1.49-.71-1.93-.46-3.86-.92-5.78-1.38"/><path d="M108.1 39.12c-1.02 3.28-1.06 6.67-.56 10.05.44 3.02 1.16 6.15 2.29 8.99.96 2.44 2.39 4.71 4.92 5.72 1.22.49 2.53.6 3.83.75 1.06.12 2.15.21 2.91 1.03.83.89 2.74.54 2.93-.77.37-2.5-.5-5.22-.94-7.67-.5-2.83-.97-5.66-1.44-8.49-.23-1.38-.46-2.75-.7-4.13-.2-1.17-.48-2.25-1.48-3.01s-2.21-.92-3.34-1.2c-1.44-.36-2.89-.72-4.33-1.07-2.47-.61-3.53 3.24-1.05 3.81l3.38.78c.9.21 2.27.26 3.07.74-.21-.32-.23-.27-.07.13.06.28.11.55.16.83.09.48.18.97.28 1.45.23 1.21.46 2.41.7 3.62.44 2.25.87 4.5 1.29 6.76.21 1.13.41 2.26.62 3.39.17.95.64 2.18.46 3.14l2.93-.77c-1.63-1.88-4.01-1.94-6.29-2.28s-3.5-1.62-4.36-3.71c-1.04-2.54-1.71-5.35-2.2-8.05-.55-3.03-.66-6.16.08-9.17.5-2.02-2.49-2.83-3.1-.86ZM50.86 97.35c1.22-1.71 4.16-1.61 6-2.07 2.86-.71 5.33-2.38 7.62-4.18 1.08-.85 2.28-1.67 3.21-2.68.98-1.07 1.2-2.36 1.73-3.65.99-2.43 2.95-3.82 5.19-4.98 1.74-.9.52-3.59-1.31-3.11-2.65.69-4.92 2.78-6.29 5.1-.35.59-.63 1.21-.88 1.85-.27.71-.31 1.54-.61 2.22-.53 1.18-2.14 2.12-3.16 2.86-2.41 1.77-4.8 2.92-7.72 3.53-2.56.54-5.05 1.16-6.59 3.46-1.17 1.76 1.61 3.32 2.81 1.64Zm-1.55 5.5c2.75.46 5.55.36 8.23-.47 1.32-.41 2.59-.99 3.78-1.69.59-.34 1.17-.76 1.81-1 .79-.3 1.56-.14 2.38-.16 2.63-.05 4.38-1.77 5.88-3.74.71-.94 1.36-1.93 2.21-2.76 1.06-1.03 2.29-1.55 3.57-2.24 1.73-.93.51-3.48-1.29-3.07-2.47.56-4.65 2.51-6.14 4.48-1.21 1.6-2.24 3.78-4.45 4-1.34.13-2.52.15-3.77.72s-2.25 1.35-3.45 1.89c-2.46 1.1-5.26 1.45-7.92 1.02-1.96-.32-2.82 2.68-.83 3.01Zm12.1 5.12c1.84.69 3.75.13 5.51-.51s3.54-1.29 5.3-1.99c1.5-.59 3.01-1.22 4.38-2.07s3.05-2.06 3.7-3.55c.33-.76.28-1.61-.43-2.14-.64-.48-1.59-.48-2.17.13-.47.49-.82 1.07-1.31 1.55-.45.44-.93.82-1.46 1.16-1.16.75-2.42 1.34-3.69 1.88-1.52.63-3.05 1.23-4.56 1.88-1.39.59-3 1.5-4.54 1.03-1.71-.53-2.35 2.03-.73 2.64ZM38.08 56.94c1.41.1 2.69-.93 3.51-1.98.49-.64.55-1.27.69-2.03.13-.66.33-1.32.6-1.93.58-1.31 1.6-2.53 1.92-3.93.37-1.64-.22-3.41-.66-4.98-.61-2.16-3.88-1.26-3.36.93.15.65.34 1.29.51 1.94.11.43.3.98.19 1.43-.1.42-.44.86-.64 1.26-.28.55-.52 1.11-.76 1.67-.47 1.14-.79 2.31-.91 3.55-.04.46-.04.4-.35.76-.18.21-.47.62-.75.63-1.74.08-1.72 2.57 0 2.69Zm96.94 33.09c.7.84 1.4 1.98 1.56 3.09.09.6 0 1.25.13 1.87.08.36.22.73.42 1.04.12.18.29.33.4.52.15.27-.02-.02-.02.02.1.44.12 1.28.23 1.87.13.64.33 1.25.58 1.86.29.71.62 1.39 1.06 2.02.22.31.45.61.72.87.06.05.26.27.23.17-.05-.17-.07.32-.05.21-.09.68.6 1.29 1.21 1.37.69.08 1.33-.32 1.53-1 .48-1.61-.48-2.97-1.14-4.35-.28-.59-.48-1.23-.62-1.87-.17-.73-.12-1.49-.32-2.21-.14-.48-.37-.87-.69-1.26-.08-.1-.18-.2-.26-.3.15.19.09.34.09 0 0-.71-.1-1.48-.35-2.16-.55-1.51-1.69-2.55-2.72-3.73-.5-.57-1.47-.51-1.98 0-.57.57-.49 1.4 0 1.98Zm5.55-3.33c.25.02.6.15.87.31.09.05.18.11.26.16.4.26-.07-.07.14.1.18.15.35.31.51.47.68.69 1.24 1.49 1.92 2.18s1.53 1.28 2.4 1.69c1.11.52 2.36.93 3.59.73.65-.11 1.13-.81 1.21-1.41s-.2-1.43-.81-1.69c-.53-.23-1.03-.31-1.57-.47-.22-.06-.43-.14-.65-.21-.12-.04-.24-.09-.35-.13.16.06.15.07 0 0-.41-.2-.8-.43-1.18-.69s.15.13-.08-.06l-.31-.25q-.285-.24-.54-.48c-1.55-1.43-3.17-3-5.42-2.98-.74 0-1.37.62-1.37 1.37 0 .79.63 1.31 1.37 1.37Zm2.37-7.37c2.2.29 4.41.76 6.58 1.23 1.12.25 2.24.53 3.35.81.87.22 1.74.23 2.41-.49s.71-1.98-.08-2.67c-1.06-.94-2.9-.34-2.88 1.19v.1l.51-1.23.44-.27h.95c-1.84-.31-3.65-.77-5.49-1.07s-3.85-.47-5.79-.63c-.81-.07-1.51.74-1.51 1.51 0 .9.7 1.4 1.51 1.51Zm-3.99-7.21c1.62-.49 3.28-1.04 4.99-1.08s3.31.39 4.89.93 3.16 1.23 4.76 1.81c1.49.53 3.71 1.59 5.02.24.52-.54.74-1.54.28-2.2-.4-.57-.96-1.01-1.7-.95-1.01.08-1.72.75-1.78 1.78v.06c-.1 1.68 2.6 2.53 3.3.9l.02-.05-2.01.82.09.03-1.26-1.26.02.08c.28-.68.56-1.37.83-2.05l-.15.07 1.42-.19c-3.23-.67-6.18-2.17-9.37-2.92-3.55-.84-6.8-.24-10.22.84-2 .63-1.15 3.76.87 3.15Z"/><path d="M127.27 67.76c.2-.47.34-.83.29-1.34-.04-.37-.45-1.06-.34-1.36.25-.73 2.02-.94 2.63-1.08 2.56-.6 5.17-.85 7.78-1.15s5.27-.56 7.92-.73c1.24-.08 2.49-.13 3.74-.11 1.31.02 2.44.33 3.71.55 2.12.37 3.72-2.54 1.56-3.7-2.62-1.4-6.17-.92-9.01-.61-3.2.35-6.39.84-9.59 1.22-2.89.34-5.9.63-8.66 1.61-1.27.45-2.4 1.11-3 2.37-.29.6-.42 1.24-.34 1.91.07.58.62 1.17.64 1.69.06 1.29 2.08 2.15 2.69.73ZM126.08 55c1.82-.86 4.01-.7 5.98-.83s4-.42 5.87-1.29c1.04-.49 1.75-.72 2.93-.63 1.03.08 2.05.26 3.09.25s2.02-.16 2.97-.46c.57-.18 1.12-.42 1.66-.66.47-.21.85-.13.32-.39 2.11 1.02 3.92-1.39 2.45-3.18-1.83-2.22-4.32-.26-6.37.29-2.41.65-4.89-.36-7.26.56-1.02.4-1.92 1.02-2.97 1.35s-2.19.51-3.31.66c-2.39.32-4.64.75-6.85 1.79-1.71.81-.22 3.34 1.48 2.54Zm-4.49-9.98c4.26-.62 8.67-1.27 12.83-2.38 1.9-.51 3.66-1.38 5.52-1.99 2.03-.66 4.09-.83 6.19-1.07 1-.11 1.84-.77 1.85-1.85.01-.96-.86-1.9-1.85-1.85-2.1.11-4.27.39-6.3.95s-3.91 1.56-5.93 2.15c-4.3 1.26-8.85 1.74-13.22 2.75-2.19.5-1.2 3.59.91 3.28Z"/></svg>