<?xml version="1.0" encoding="UTF-8"?><svg xmlns="http://www.w3.org/2000/svg" viewBox="0 0 180 180"><path d="M68.88 56.36c-7.14.33-14.7 3.16-20.39 10.02-3.45 4.16-4.41 10.41-2.73 15.59 3.07 9.46 13.08 12.74 21.86 14.59 20.2 4.25 45.42 3.29 60.29-13.3 4.62-5.16 7.93-12.84 4.6-18.9 4.65 4.18 3.01 14.26 2.76 19.82-1.31 29.05-33.36 41.18-58.46 36.48-7.14-1.34-14.09-3.93-19.62-8.78-5.87-5.15-10.25-11.91-12.77-19.29-3.33-9.73-2.59-26.56 12.75-33.04"/><path d="M68.88 54.83c-5.37.15-10.83 1.47-15.39 4.39-4.88 3.13-9.08 7.61-10.31 13.42-1.15 5.41-.05 11.12 3.32 15.55 3.1 4.06 7.58 6.59 12.31 8.31 4.61 1.67 9.49 2.63 14.33 3.35 5.14.76 10.34 1.19 15.54 1.12 10.36-.15 20.93-2.19 29.99-7.39 5.17-2.97 9.98-7 13.37-11.94 3.68-5.37 5.61-12.38 2.42-18.43-1.19.92-2.38 1.84-3.57 2.75 1.77 1.66 2.3 4.23 2.49 6.62.22 2.94 0 5.9-.21 8.83-.2 2.66-.27 5.32-.8 7.94s-1.31 5.12-2.44 7.5c-4.49 9.42-13.28 15.87-22.97 19.26-10.4 3.64-21.94 4.29-32.63 1.68-7.35-1.79-13.79-5.22-18.91-10.84C51 102.11 47.5 96 45.89 89.62c-1.1-4.37-1.24-9.17-.14-13.66 1.26-5.14 4.2-9.44 8.32-12.74 1.19-.95 2.54-1.63 3.93-2.24 1.72-.76.47-3.8-1.29-3.07-3.04 1.27-6.03 2.81-8.45 5.07-2.15 2-3.88 4.45-5.07 7.13-2.26 5.07-3.02 10.76-2.39 16.27 1.66 14.54 12.1 28.09 25.56 33.61 11.74 4.82 25.58 5.01 37.75 1.74 11.21-3.01 21.9-9.44 28.06-19.51 3.21-5.25 4.95-11.27 5.32-17.4s1.5-12.65-.87-18.34c-.59-1.41-1.4-2.7-2.52-3.76-1.9-1.78-4.78.46-3.57 2.75 2.34 4.44.37 9.64-2.2 13.51s-6.18 6.99-10.01 9.45c-7.74 5-16.93 7.28-26.06 7.83-9.07.54-18.29-.41-27.11-2.62-8.03-2.01-17.02-6.11-17.91-15.45-.25-2.67.1-5.46 1.26-7.89 1.26-2.65 3.42-4.86 5.69-6.67 4.17-3.35 9.36-5.36 14.68-5.76 1.94-.15 1.99-3.12 0-3.06Z"/><path d="M50.14 62.22c-2.92-1.45-5.98-2.58-9.3-2.18-2.95.35-5.74 1.53-7.89 3.62-4.33 4.22-4.53 11.31.04 15.43 2.25 2.02 5.04 3.2 7.82 4.31 1.53.61 2.67-1.12 2.43-2.43-.55-3 .71-5.99 2.21-8.52 1.47-2.48 3.1-5.23 5.31-7.13.8-.69.71-2.06 0-2.77-.8-.8-1.97-.69-2.77 0-1.36 1.17-2.42 2.64-3.43 4.11s-1.99 2.89-2.85 4.42c-1.89 3.37-2.97 7.08-2.27 10.94l2.43-2.43c-2.28-.91-4.71-1.91-6.47-3.68s-2.33-4.49-1.37-6.91c.92-2.3 3.11-3.97 5.43-4.68 3.21-.98 6.37-.12 9.52.66 1.6.4 2.75-1.97 1.16-2.76m87.76 13.81c3.15-1.17 7.8-.24 8.42 3.67.54 3.43-3.15 6.53-5.62 8.3-6.31 4.52-13.96 6.01-21.36 7.79-2.72.66-1.55 4.69 1.15 4.16 7.11-1.41 14.55-3.29 20.75-7.18 3.06-1.92 6.16-4.42 7.95-7.62 1.91-3.41 1.73-7.38-.85-10.39-2.98-3.47-7.83-3.64-11.72-1.77-1.68.81-.49 3.7 1.28 3.04m-80.11 4.06c8.32-7.62 17.02-14.79 26.02-21.61.83-.63 1.28-1.68.7-2.66-.48-.82-1.82-1.34-2.66-.7-9.22 7.04-18.02 14.61-26.45 22.57-1.59 1.51.79 3.87 2.4 2.4Zm11.53 6.93c9.45-9.62 19.86-18.48 30.61-26.61.83-.63 1.27-1.67.7-2.65-.48-.81-1.81-1.34-2.65-.7-5.49 4.23-10.83 8.64-15.99 13.27s-10.01 9.55-14.83 14.52c-1.37 1.42.78 3.58 2.17 2.17Zm15.52 3.37C95.35 81.2 105.64 71.75 116 62.4c1.85-1.67-.9-4.42-2.74-2.74-10.32 9.39-20.68 18.75-30.74 28.41-1.54 1.48.74 3.7 2.32 2.32m20.83-2.14c2.45-2.58 5.01-5.03 7.63-7.44 1.29-1.19 2.61-2.35 3.94-3.48.65-.55 1.31-1.1 1.97-1.64.75-.61 1.61-1.21 2.07-2.08.62-1.19-.41-2.62-1.75-2.27-.96.25-1.76.95-2.51 1.57q-1.035.855-2.07 1.74-2.055 1.755-4.02 3.6c-2.63 2.46-5.11 5.07-7.51 7.76-1.35 1.51.83 3.73 2.24 2.24ZM80.64 12.62c.85 1.66 1.86 3.43 1.42 5.37-.33 1.47-1.54 2.65-2.75 3.46-3.3 2.23-7.46 3.21-10.15 6.3-2.7 3.11-3.54 7.65-.55 10.89 1.19 1.29 2.75 2.09 4.12 3.16 1.29 1.02 1.88 2.52.92 3.92-.78 1.15.8 2.79 1.96 1.96 3.64-2.62.7-7.46-1.62-9.85-1.1-1.13-2.65-2.31-2.53-4.06.11-1.6 1.29-2.99 2.53-3.91 1.76-1.31 3.85-2.1 5.75-3.18s3.56-2.42 4.78-4.15c2.58-3.67 1.78-8.73-1.46-11.76-1.29-1.21-3.19.3-2.4 1.86Zm11.89 36.74c.71-1.44 1.28-3 1.56-4.58.15-.85.26-1.72 0-2.57s-.76-1.48-1.25-2.17c-.8-1.13-1.65-2.27-1.96-3.64-.11-.49-.15-1.07-.09-1.6.05-.5.33-1.18.49-1.75.41-1.38-1.12-2.33-2.28-1.76-1.53.75-2.2 2.6-2.28 4.2s.52 3.31 1.37 4.72c.43.71.93 1.38 1.47 2 .38.44 1.11.98 1.29 1.55.2.61.06 1.53 0 2.17-.07.84-.32 1.66-.59 2.46-.46 1.33 1.66 2.24 2.28.96Zm3.42-22.07c2.68-1.62 5.34-3.27 6.55-6.32.67-1.68.62-3.64.04-5.34-.3-.87-.69-1.72-1.12-2.53-.49-.94-.99-1.92-2.04-2.29-.69-.24-1.5.28-1.68.95-.25.94.21 1.74.57 2.59.26.61.49 1.24.67 1.88.35 1.24.58 2.55.22 3.82-.58 2.06-2.68 3.86-4.4 5.18-.51.39-.78 1.03-.43 1.64.32.55 1.08.76 1.64.43Zm26.15-16.18c2.4 1.22 3.72 3.95 3.34 6.61-.45 3.15-3.98 4.51-4.74 7.62-.96 3.94 2.25 6 4.35 8.71 1.92 2.48 1.07 5.56-1.01 7.58-2.85 2.75-6.84 5.21-5.98 9.78.35 1.86 2.85 1.17 3.04-.41.44-3.72 4.96-5.23 7.18-7.68 2.63-2.91 3.23-7.16 1.6-10.72-.75-1.63-2.05-2.83-3.27-4.1-.78-.81-1.59-1.64-1.06-2.77.71-1.53 1.97-2.7 2.6-4.3.55-1.38.78-2.91.65-4.39-.31-3.4-2.23-6.66-5.38-8.14-1.48-.7-2.79 1.46-1.3 2.23Zm-18.93 27.6c2.18 0 2.19-3.39 0-3.39s-2.19 3.39 0 3.39m5.02-4.84h.21s.07-.01.1-.01c.16 0 .32-.01.48-.06l.05-.02.39-.16q.285-.15.45-.42.15-.15.21-.36c.1-.19.15-.4.14-.62l-.06-.43-.16-.39q-.15-.285-.42-.45c-.16-.14-.34-.24-.55-.29l-.05-.02c-.15-.05-.32-.06-.48-.07h-.1c-.07 0-.14-.01-.21-.01-.23 0-.44.04-.64.14-.21.07-.38.18-.53.34-.16.15-.28.33-.34.53-.1.2-.15.41-.14.64l.06.44c.08.28.22.52.43.73l.34.26c.26.15.54.23.84.23Zm.83 5.89.21-.02c.2-.01.39-.04.59-.08l.35-.15c.17-.09.3-.21.41-.37.09-.09.15-.2.19-.32.09-.17.13-.36.12-.56l-.05-.38-.15-.35c-.09-.17-.21-.3-.37-.41-.14-.13-.3-.21-.49-.26h-.05l-.02-.01c-.07 0-.13-.02-.2-.03l-.2-.03h-.11l-.21-.02c-.2 0-.4.03-.57.13-.18.06-.34.16-.48.31-.14.13-.25.29-.31.48-.09.18-.14.37-.13.57l.05.39c.07.25.2.47.38.66l.3.23c.23.13.48.2.75.2Zm22.03 16.94c0-.16 0-.18-.01-.06-.02.12 0 .11.03-.05l-.05.14q.135-.21.03-.06c-.13.17.12-.11.16-.14-.26.25.06 0 .13-.05.28-.17-.13.02.06-.03.12-.04.23-.08.35-.12.26-.08.52-.16.77-.26 1.19-.49 2.27-1.07 3.27-1.88 1.84-1.49 3.4-4.35 2.48-6.73-.31-.8-.97-1.34-1.87-1.22-.88.12-1.41.82-1.48 1.67-.02.18-.02.19 0 .05.04-.25.02-.13-.05.38 0 .06-.02.47 0 .19s-.03.12-.04.18c-.03.14-.05.28-.08.42-.05.2-.09.53-.21.69.09-.2.11-.24.05-.12-.03.07-.06.13-.1.2-.06.11-.11.21-.18.32l-.2.31c-.25.4.25-.27-.06.08-.16.18-.32.36-.49.53-.1.1-.21.2-.32.3-.04.03-.35.3-.14.13s-.11.08-.16.11l-.36.24c-.87.56-1.86.87-2.74 1.41-1.36.85-2.15 2.16-1.89 3.78.13.77 1.03 1.22 1.73 1.13.76-.1 1.39-.76 1.37-1.55ZM55.6 153.57c1.66-3.45 2.71-7.23 3.96-10.85s2.5-7.35 3.8-11.01 2.62-7.31 4-10.94c.66-1.74 1.32-3.48 1.99-5.21.74-1.91 1.65-3.79 1.9-5.83.11-.93-.76-1.87-1.6-2.1-1-.27-1.88.22-2.46 1-1.15 1.54-1.7 3.65-2.38 5.43s-1.38 3.63-2.04 5.45c-1.32 3.65-2.6 7.31-3.79 11s-2.37 7.39-3.4 11.12-2.18 7.44-2.59 11.24c-.15 1.38 2.03 1.93 2.62.71ZM93.13 170c-.25-9.13-.48-18.26-.8-27.39-.15-4.48-.34-8.96-.54-13.44l-.3-6.97c-.1-2.32-.08-4.68-.39-6.97-.16-1.2-.91-2.23-2.23-2.23-1.25 0-2.19 1.02-2.23 2.23-.09 2.31.17 4.67.28 6.97s.25 4.65.37 6.97c.24 4.48.48 8.96.76 13.44.57 9.13 1.21 18.26 1.85 27.39.14 2.05 3.29 2.1 3.23 0m36.69-22.56c-3.75-7.73-7.85-15.19-12.4-22.47-2.23-3.56-4.54-7.07-6.92-10.53-1.23-1.79-2.48-3.58-3.75-5.35s-2.44-3.87-4.02-5.28c-1.91-1.71-4.53.41-3.46 2.67.9 1.9 2.54 3.61 3.77 5.32s2.35 3.29 3.51 4.95c2.44 3.51 4.82 7.07 7.15 10.66 4.61 7.1 9.1 14.33 13.4 21.62 1.04 1.77 3.6.22 2.73-1.59Z"/><path d="M60.47 137.11c4.62 2.54 9.46 4.72 14.29 6.83 2.34 1.03 4.69 2.03 7.04 3.01 2.5 1.04 5.02 2.19 7.59 3 1.81.57 3.08-2.29 1.31-3.11-4.7-2.19-9.66-3.9-14.43-5.97-4.78-2.08-9.49-4.32-14.29-6.36-1.73-.74-3.27 1.64-1.52 2.6Z"/><path d="M91.19 149.61c4.43-2.86 8.86-5.72 13.24-8.66 2.19-1.47 4.38-2.94 6.57-4.4s4.48-2.76 6.46-4.43c1.44-1.21-.39-3.3-1.93-2.5-2.3 1.2-4.44 2.92-6.6 4.37-2.12 1.43-4.24 2.85-6.36 4.28-4.32 2.9-8.57 5.88-12.84 8.85-1.51 1.05-.12 3.52 1.46 2.5Zm-30.54-13.18c3.66-.08 7.32-.25 10.97-.53s7.34-.5 10.9-1.32c1.59-.37 1.23-2.84-.38-2.82-3.58.03-7.16.55-10.73.84-3.58.29-7.17.54-10.76.74-1.97.11-2 3.14 0 3.09"/><path d="M94.68 132.77c3.81-.35 7.61-.78 11.4-1.3 1.86-.25 3.72-.53 5.58-.79.93-.13 1.86-.26 2.79-.4s2.07-.18 2.98-.56c1.89-.77 1.78-3.68-.5-3.73-1.83-.04-3.81.67-5.61 1.03-1.91.38-3.82.72-5.74 1.05-3.76.64-7.53 1.23-11.3 1.79-1.64.24-1.27 3.07.39 2.92Z"/></svg>