<?xml version="1.0" encoding="UTF-8"?><svg xmlns="http://www.w3.org/2000/svg" viewBox="0 0 180 180"><path d="M108.31 19.68c-11.59 2.53-21.02 10.51-27.52 20.2-5.8 8.65-8.99 18.85-8.49 29.3.91 19.22 13.64 36.58 31.27 43.98 9.32 3.91 19.67 4.8 29.55 2.75 9.13-1.9 17.57-6.65 24.08-13.31 12.84-13.13 18.06-32.8 13.39-50.56-2.6-9.9-8.38-18.87-16.41-25.23-4.43-3.51-9.35-6.26-14.67-8.16s-10.85-3.04-16.27-2.59c-2.71.22-5.41.64-8.05 1.28-2.25.55-1.27 3.79.94 3.42 4.93-.83 10.25-.56 15.16.35s9.72 2.67 14.1 5.16c8.46 4.81 15.29 12.3 18.99 21.34 6.38 15.62 3.26 34.09-6.85 47.4-4.91 6.46-11.69 11.7-19.35 14.52-8.52 3.13-17.98 3.59-26.76 1.3-16.79-4.38-30.13-18.49-33.58-35.48-3.94-19.39 6.91-40.36 23.98-49.94 2.31-1.3 4.69-2.29 7.27-2.91 1.82-.44 1.05-3.2-.77-2.8Z"/><path d="M129.48 44.24c-7.62-1.13-14.91 1.21-20.06 7.06-4.76 5.41-7.43 12.63-6.02 19.83C105.44 81.53 116 88 126.16 87.6c2.99-.12 5.88-.79 8.61-2.02 2.57-1.16 5.57-3.04 6.83-5.66.82-1.72-.94-3.98-2.8-2.8-1.96 1.24-3.29 2.7-5.36 3.79-1.54.81-3.84 1.51-5.41 1.73-4.03.56-8.07-.15-11.49-1.91-3.53-1.82-6.48-4.72-7.8-8.32-1.91-5.16-.76-10.75 2.21-15.45 3.6-5.68 10.67-10.65 17.69-9.68.85.12 1.68-.21 1.94-1.1.21-.74-.26-1.82-1.1-1.94"/><path d="M100.77 79.02c4.58-1.58 9.01-3.67 13.5-5.48 2.22-.89 4.45-1.76 6.7-2.6s4.73-1.57 6.96-2.63c1.99-.94.56-3.96-1.46-3.46-2.3.58-4.54 1.62-6.75 2.48s-4.61 1.83-6.89 2.79c-4.45 1.86-9.06 3.72-13.21 6.18-1.4.83-.49 3.28 1.14 2.71ZM74.64 65.89c-7.54-2.75-15.74-3.57-23.61-1.91l-6.96 2.03C31.42 68.83 20.6 79.93 14.85 91.54c-17.21 34.73 13.99 74.26 52.07 67.19 23.06-4.28 37.82-25.52 38.41-47.41-18.37-7.27-31.17-25.59-30.69-45.43m5.16 45.74c-1.4 2.07-3.97 3.1-6.47 3.25-2.42.14-4.97.1-7.26-.77 1.19 1.48 2.39 2.97 3.24 4.66s1.34 3.63 1.02 5.5c-.35 2.02-1.64 3.81-3.32 4.98-2.94 2.04-6.85 2.13-10.3 2.05-.64-.01-1.27-.06-1.91-.13-.2.54-.41 1.09-.63 1.62-.84 2.01-2.12 4.03-4.17 4.78-1.03.38-2.16.39-3.25.26-1.14-.13-2.31-.44-3.18-1.2-1.06-.93-1.5-2.42-1.41-3.82s.67-2.73 1.36-3.96c.09-.16.2-.3.29-.45-2.96-1.06-5.9-2.39-7.99-4.72-2.32-2.58-3.27-6.73-1.26-9.57 2.39-3.39 7.42-3.34 11.44-2.32 2.8.71 5.53 1.72 8.12 3.01-2.98-1.85-5.96-3.69-8.94-5.54-1.95-1.21-4.02-2.54-4.97-4.63-1.34-2.94.05-6.59 2.57-8.61 2.51-2.02 5.87-2.68 9.1-2.73 2.38-.04 4.77.23 7.09.77.62-1.79 1.39-3.52 2.35-5.15.42-.72.88-1.43 1.52-1.97.36-.31.77-.55 1.2-.74 1.78-.77 3.98-.47 5.49.75s2.28 3.3 1.91 5.2c-.23 1.22-.88 2.32-1.52 3.39-.4.67-.8 1.35-1.2 2.02 2.94.52 5.81 1.33 8.19 3.09 3.36 2.49 5.23 7.51 2.88 10.96Z"/><path d="M75.18 63.96c-8.81-3.17-18.33-3.77-27.33-1.14-2.68.78-5.46 1.41-8.08 2.36-4.43 1.6-8.44 4.02-12.09 6.97C14.4 82.89 6.2 100.39 8.35 117.52c1.91 15.15 10.95 28.83 23.97 36.78 14 8.55 31.96 9.65 46.78 2.5 15.09-7.28 25.33-22.72 27.66-39.13.3-2.11.5-4.22.56-6.35.03-.95-.66-1.6-1.47-1.93-13.45-5.38-24.01-17.22-27.75-31.22-1.08-4.02-1.55-8.13-1.47-12.29.05-2.57-3.95-2.57-4 0-.32 16.05 7.68 31.25 20.41 40.83 3.61 2.71 7.57 4.86 11.75 6.53-.49-.64-.98-1.29-1.47-1.93-.47 15.36-8.16 30.6-21.13 39.12-12.74 8.37-29.58 9.36-43.34 2.85-12.63-5.97-22.29-17.53-25.63-31.12-3.77-15.35 1.59-31.17 12.26-42.52 2.99-3.18 6.36-6 10.16-8.18 3.08-1.77 6.25-2.75 9.63-3.73 2.09-.61 4.16-1.3 6.27-1.83 4.78-1.2 10.17-1.03 14.99-.15 2.58.47 5.1 1.17 7.57 2.06s3.47-2.99 1.06-3.86Z"/><path d="M78.08 110.62c-1.07 1.48-2.99 2.13-4.74 2.26-2.28.17-4.56.07-6.73-.7-.82-.29-1.84.2-2.26.92-.48.82-.25 1.72.31 2.42 2.53 3.15 5.71 7.72 2.11 11.33-2.95 2.95-8.15 2.68-11.97 2.33-.92-.09-1.64.69-1.93 1.47-.51 1.35-1.03 2.77-1.98 3.88-1.03 1.2-2.32 1.52-3.86 1.35-1.38-.15-2.61-.65-2.85-2.16-.23-1.51.55-3.06 1.36-4.28.76-1.16-.05-2.52-1.2-2.94-2.8-1.02-5.98-2.35-7.67-4.95-1.32-2.03-1.88-5.02.05-6.86 1.72-1.63 4.53-1.64 6.73-1.34 3.34.46 6.66 1.74 9.67 3.22 2.3 1.12 4.23-2.08 2.02-3.45-3.2-1.98-6.42-3.93-9.59-5.95-2.27-1.45-4.47-3.3-3.66-6.27 1.81-6.65 11.41-6.03 16.55-4.88 1.11.25 2.08-.33 2.46-1.4.94-2.67 2.7-8.08 6.52-6.58 1.35.53 2.24 1.96 2.12 3.42-.16 1.81-1.63 3.61-2.54 5.13-.61 1.03-.09 2.71 1.2 2.94 3.2.58 6.76 1.47 8.92 4.1 1.61 1.96 2.39 4.77.96 7.02s2.07 4.19 3.45 2.02c2.15-3.38 1.44-7.79-.84-10.92-2.7-3.71-7.06-5.28-11.43-6.08l1.2 2.94c1.46-2.46 3.35-5.04 3.04-8.05-.29-2.81-2.03-5.21-4.67-6.24-2.45-.95-5.41-.52-7.39 1.24-2.21 1.96-3.42 5.29-4.38 8.01l2.46-1.4c-7.43-1.66-18.55-1.44-21.37 7.33-1.26 3.91.46 7.49 3.59 9.88 3.54 2.7 7.61 4.85 11.4 7.2.67-1.15 1.35-2.3 2.02-3.45-3.81-1.86-7.94-3.42-12.19-3.82-3.54-.33-7.46.44-9.75 3.37-2.44 3.11-2.08 7.51-.07 10.75 2.26 3.65 6.27 5.53 10.16 6.94l-1.2-2.94c-1.4 2.13-2.28 4.74-1.77 7.29.53 2.7 2.68 4.52 5.33 4.99s5.22.19 7.3-1.58c1.95-1.65 2.91-4.07 3.78-6.39l-1.93 1.47c5.36.49 11.93.21 15.56-4.37 1.84-2.32 2.44-5.21 1.79-8.1-.7-3.09-2.72-5.6-4.65-8.02l-1.95 3.34c5.24 1.87 12.51 1.41 15.99-3.4.63-.88.15-2.23-.72-2.74-1.01-.59-2.1-.16-2.74.72Z"/><path d="M55.92 106.85c3.65 2.58 6.34 6.38 9.28 9.69 1.38 1.55 2.71 3.11 3.98 4.75 1.33 1.73 2.15 3.77 3.45 5.5.92 1.22 3.08.95 3.07-.83-.02-2.35-1.33-4.65-2.53-6.6-1.27-2.08-2.88-3.98-4.54-5.75-3.32-3.55-7-6.87-11.14-9.45-1.73-1.08-3.2 1.56-1.58 2.7ZM37.49 54.16c.02-7.27 4.6-13.96 10.16-18.31 2.98-2.33 6.46-4.08 10.01-5.39 1.87-.69 3.79-1.27 5.72-1.76s4.24-.75 6.1-1.7c.87-.44 1.27-1.6 1.02-2.51-.28-1.02-1.16-1.51-2.14-1.63-2.22-.27-4.8.59-6.94 1.15s-4.11 1.18-6.1 1.96c-4.15 1.62-8.04 3.77-11.47 6.63-6.31 5.26-10.23 13.28-9.63 21.55.15 2.07 3.26 2.13 3.27 0Z"/><path d="M63.82 26.15a31.46 31.46 0 0 1-9.63-10.28 81.6 81.6 0 0 1 22.22 6.7c-3.16 6.33-6.93 12.45-11.92 17.46.01-4.48-.45-8.96-1.36-13.34"/><path d="M64.67 24.7a31 31 0 0 1-8.69-9.87c-.78 1.01-1.56 2.02-2.33 3.03 7.5 1.32 14.77 3.32 21.71 6.52l-.75-2.87c-3.09 6.18-6.72 12.09-11.58 17.05l3.55 1.47c-.03-4.69-.56-9.28-1.6-13.85-.55-2.42-4.11-1.37-3.68 1.01a70 70 0 0 1 1.12 12.83c0 1.8 2.28 2.74 3.55 1.47 5.13-5.16 9.01-11.4 12.27-17.87.47-.94.33-2.37-.75-2.87-7.37-3.41-15.22-5.88-23.27-6.95-1.59-.21-2.53 1.9-1.78 3.11 2.68 4.34 6.24 7.98 10.56 10.69 1.87 1.17 3.4-1.65 1.7-2.9Zm84.62 101.14c-.02 7.27-4.6 13.96-10.16 18.31-2.98 2.33-6.46 4.08-10.01 5.39-1.87.69-3.79 1.27-5.72 1.76s-4.24.75-6.1 1.7c-.87.44-1.27 1.6-1.02 2.51.28 1.02 1.16 1.51 2.14 1.63 2.22.27 4.8-.59 6.94-1.15s4.11-1.18 6.1-1.96c4.15-1.62 8.04-3.77 11.47-6.63 6.31-5.26 10.23-13.28 9.63-21.55-.15-2.07-3.26-2.13-3.27 0Z"/><path d="M122.96 153.85a31.46 31.46 0 0 1 9.63 10.28 81.6 81.6 0 0 1-22.22-6.7c3.16-6.33 6.93-12.45 11.92-17.46-.01 4.48.45 8.96 1.36 13.34"/><path d="M122.11 155.3c3.57 2.62 6.54 6.02 8.69 9.87l2.33-3.03c-7.5-1.32-14.77-3.32-21.71-6.52l.75 2.87c3.09-6.18 6.72-12.09 11.58-17.05l-3.55-1.47c.03 4.69.56 9.28 1.6 13.85.55 2.42 4.11 1.37 3.68-1.01a70 70 0 0 1-1.12-12.83c0-1.8-2.28-2.74-3.55-1.47-5.13 5.16-9.01 11.4-12.27 17.87-.47.94-.33 2.37.75 2.87 7.37 3.41 15.22 5.88 23.27 6.95 1.59.21 2.53-1.9 1.78-3.11-2.68-4.34-6.24-7.98-10.56-10.69-1.87-1.17-3.4 1.65-1.7 2.9Z"/></svg>