<?xml version="1.0" encoding="UTF-8"?><svg xmlns="http://www.w3.org/2000/svg" viewBox="0 0 180 180"><path d="M62.23 45.69c-5.54 6-6.47 14.32-6.51 22.15s.12 17.99 7.95 22.47c3.82 2.19 8.44 1.78 12.44.35 3.81-1.36 7.82-3.25 11-5.78 3.08-2.46 4.89-6.42 3.62-10.34s-4.17-6.95-6.23-10.43c-2.54-4.3-4.01-9.1-6.13-13.61s-5.92-8.46-11.21-7.39c-2.51.51-1.43 4.25 1.05 3.81 3.58-.63 5.78 3.5 7.05 6.14 1.67 3.49 3.05 7.1 4.78 10.56 1.63 3.24 3.95 6.01 5.68 9.18 1.43 2.62 1.83 5.71-.36 8.03-2.19 2.33-5.44 3.75-8.3 5.05-3.09 1.4-7.1 2.77-10.33 1-6.26-3.43-6.26-11.65-6.36-17.86-.11-7.28-.29-15.34 4.31-21.44 1.07-1.41-1.26-3.17-2.44-1.88Z"/><path d="M66.19 89.43c-3.21 2.42-3.32 6.61-1.8 10.06.87 1.98 2.05 3.83 3.11 5.71 1.12 1.99 2.25 3.98 3.39 5.96s2.27 3.96 3.41 5.95c1.05 1.83 2 3.77 3.24 5.47 2.54 3.47 6.66 4.47 10.79 4.37 7.76-.18 14.84-4.48 20.27-9.75 2.88-2.8 5.8-5.98 5.28-10.29s-3.56-7.82-5.92-11.24c-2.74-3.97-5.33-8.08-8.24-11.92-2.42-3.19-5.78-6.48-10.13-5.99-1.18.13-2.2.91-2.2 2.2 0 1.09 1.01 2.33 2.2 2.2 2.76-.3 4.75 1.81 6.32 3.83 2.26 2.9 4.22 6.09 6.29 9.13s4.46 6.09 6.19 9.38c.64 1.22 1.24 2.65 1.03 4.05-.22 1.5-1.35 2.68-2.33 3.74-4.25 4.6-9.64 8.59-15.89 9.84-2.66.53-6.55.74-8.86-.93-1.14-.82-1.8-2.19-2.49-3.37-.99-1.69-1.97-3.38-2.96-5.08-2.22-3.81-4.44-7.61-6.68-11.4-1.45-2.46-4.68-6.74-2.19-9.51 1.08-1.21-.39-3.49-1.85-2.39Z"/><path d="M86.35 127c6.75 9.51 18.77 14.76 30.22 15.2 5.55.21 12.99-.37 16.17-5.67 1.45-2.41 1.77-5.61.23-8.06-.81-1.29-2.04-2.18-3.16-3.17a39 39 0 0 1-3.72-3.77c-2.28-2.65-3.84-5.78-6.06-8.46-2.21-2.65-5.78-4.7-9.31-3.69-2.09.59-1.78 4.24.53 3.94 2.59-.33 4.51.97 6.05 2.97 1.63 2.12 2.89 4.51 4.54 6.63 1.77 2.28 3.77 4.32 5.95 6.2.74.63 1.6 1.27 1.87 2.24.26.91.02 1.91-.41 2.73-2.17 4.14-8.89 3.99-12.87 3.86-4.84-.16-9.63-1.32-14.07-3.25-5.15-2.24-9.6-5.6-13.64-9.47-1.16-1.11-3.33.37-2.32 1.79ZM67.66 69.57c1.92 0 1.92-2.98 0-2.98s-1.92 2.98 0 2.98m6.37-5.13c1.69 0 1.69-2.62 0-2.62s-1.69 2.62 0 2.62m1.88 6.79c1.92 0 1.92-2.98 0-2.98s-1.92 2.98 0 2.98m6.84 41.67c1.54 0 1.54-2.39 0-2.39s-1.54 2.39 0 2.39m2.63-7.25.26-.13.07-.03c.22-.11.43-.33.55-.54s.22-.5.21-.76v-.03c-.01-.26-.05-.48-.19-.71-.1-.17-.14-.22-.25-.3-.18-.18-.4-.31-.65-.38-.13-.03-.27-.04-.4-.05-.31 0-.5.08-.77.21l-.07.03-.26.13c-.17.09-.31.22-.42.38-.13.14-.22.31-.27.5-.06.2-.07.39-.03.59 0 .2.07.38.18.55l.23.3c.19.18.4.31.66.38l.39.05c.27 0 .52-.07.75-.2Zm6.57 6.87c1.96 0 1.96-3.05 0-3.05s-1.96 3.05 0 3.05m1.41-8.11c1.84 0 1.84-2.86 0-2.86s-1.84 2.86 0 2.86"/><path d="m114.68 130.06.18-.09q.33-.195.54-.54a1.5 1.5 0 0 0 0-1.5q-.195-.33-.54-.54l-.18-.09c-.25-.14-.52-.22-.8-.22-.29 0-.56.07-.8.22q-.36.21-.57.57c-.14.25-.22.52-.22.8 0 .29.07.56.22.8q.21.36.57.57c.25.14.52.22.8.22.29 0 .56-.07.8-.22Zm2.5-6.36c1.78 0 1.78-2.77 0-2.77s-1.78 2.77 0 2.77m4.95 6.56c1.73 0 1.73-2.69 0-2.69s-1.73 2.69 0 2.69"/><path d="M56.15 38.82c-15.05 17.71-13 42.77-5.84 63.4 3.62 10.43 8.93 20.31 16.22 28.63 7.55 8.62 17.29 15.2 28.02 19.17 11.38 4.21 24.67 5.56 36.34 1.67 4.07-1.36 7.92-3.57 11.17-6.36 3.14-2.7 5.96-6.5 5.9-10.82-.04-2.6-1.1-4.96-2.75-6.93-2.03-2.43-4.4-4.6-6.54-6.93-4.39-4.77-8.36-9.83-12.21-15.04-7.72-10.46-15.19-21.15-22.22-32.09-3.56-5.54-7.04-11.11-10.57-16.67-3.52-5.54-6.96-11.25-10.96-16.47-3.01-3.92-6.8-8.08-11.94-8.88-4.28-.66-8.43.92-11.83 3.47-2.44 1.83-4.41 4.01-6.25 6.43-1.31 1.72 1.57 3.94 3.01 2.32 3.04-3.43 6.69-7.2 11.37-8.16 1.39-.28 2.79-.2 4.11.19 1.88.55 3.62 1.88 5.13 3.38 4.29 4.25 7.43 9.68 10.71 14.72 3.42 5.25 6.75 10.55 10.12 15.82 6.69 10.46 13.91 20.5 21.16 30.57 3.5 4.87 7.06 9.7 10.77 14.41s7.42 9.66 11.6 14.07c1.49 1.58 2.98 3.2 3.11 5.48.1 1.71-.56 3.29-1.51 4.72-2.16 3.24-5.73 5.55-9.15 7.25-9.32 4.65-21.11 4.23-30.98 1.73-10.54-2.68-20.42-8.12-28.31-15.6-7.43-7.04-13.04-15.78-17.09-25.14-4.01-9.26-6.61-19.38-7.52-29.43s.51-21.17 5.16-30.55c1.15-2.33 2.52-4.54 4.08-6.62.99-1.32-1.22-3.03-2.29-1.77Z"/><path d="M66.91 30.54c-2.76-4.4-4.98-9.18-6.49-14.16-.61-2.01-1.01-4.19-2.28-5.92-1.46-1.99-3.79-2.76-6.17-2.08s-4.68 2.33-6.77 3.65-3.66 3.21-3.03 5.84c.58 2.43 2.31 4.7 3.78 6.66 1.68 2.24 3.4 4.44 5.1 6.66s3.25 5.29 6.36 5.61c2.89.29 5.95-.63 8.41-2.1 2.07-1.24.22-4.42-1.89-3.24-1.75.97-3.71 1.59-5.73 1.56-.94-.01-1.21-.32-1.78-1.05-.7-.9-1.38-1.81-2.08-2.71-2.65-3.46-5.72-6.87-7.78-10.74-.29-.54-.95-1.52-.68-2.17.25-.61 1.22-1.02 1.74-1.33 1.69-1.01 3.47-2.42 5.37-2.99 1.69-.52 2.47.81 2.99 2.21.65 1.77 1.11 3.6 1.78 5.37 1.66 4.43 3.86 8.56 6.6 12.41 1.09 1.53 3.59.15 2.56-1.5Z"/><path d="M45.45 20.76c1.85 1.19 4.53 1.07 6.61.67 2.13-.41 4.15-1.34 6.08-2.32.7-.36.9-1.34.52-1.99-.41-.7-1.29-.89-1.99-.52-1.65.86-3.34 1.64-5.16 2.06-.89.2-1.77.32-2.68.31s-1.86-.21-2.8-.32c-1.19-.13-1.43 1.56-.57 2.11Zm12.94 15.02c-10.94 5.67-21.57 14.11-30.7 22.38l7.71 5.7c-5.2 4.21-10.07 8.82-14.55 13.78 3.84.68 7.64 1.56 11.37 2.66-3.71 6.04-7.15 12.25-10.29 18.61 4.09-.29 8.23.24 12.12 1.55a80 80 0 0 0-8.31 18.62c5.14.15 10.29.31 15.43.46a91.4 91.4 0 0 0-6.58 21.11l18.71-2.46c-.69 6.74-.54 13.58.46 20.28 4.96-2.11 9.91-4.22 14.87-6.33 2.14 4.76 4.28 9.53 6.42 14.29.26.58.59 1.22 1.2 1.4.63.18 1.26-.21 1.8-.58a55 55 0 0 0 9.31-8.41L99.18 170c3.66-3.56 7.6-6.82 11.79-9.73 2.89 2.38 5.78 4.76 8.66 7.15 2.2-1.41 8.25-8.12 9.84-10.2 2.46-3.21 2.52.85 4.46 4.41 2.19-5.45 7.93-16.07 10.11-21.52-3.3 4.91-13.47 11.23-19.36 11.84-5.31.55-10.65 1-15.99.79-24.8-1-47.18-20.1-56.1-43.25-1.32-3.44-2.87-7.31-3.89-10.85-2.55-8.83-3.27-16.64-2.95-25.82.47-13.14 4.41-25.72 12.3-36.23"/><path d="M57.58 34.41c-11.56 5.69-21.75 13.77-31.3 22.36-1.03.93-.56 2.38.4 3.09l7.7 5.72-.4-3.13C28.76 66.66 23.9 71.23 19.4 76.2c-.94 1.04-.7 3.12.9 3.4 3.84.68 7.63 1.57 11.38 2.66l-1.21-2.98c-3.71 6.05-7.19 12.22-10.35 18.57-.66 1.33.12 3.26 1.81 3.16 3.95-.24 7.79.26 11.55 1.5l-1.27-3.11a83.2 83.2 0 0 0-8.57 19.11c-.42 1.38.72 2.7 2.09 2.74 5.14.15 10.29.31 15.43.46l-1.87-3.26c-3.1 6.93-5.43 14.15-6.83 21.62-.23 1.22.58 2.97 2.11 2.77 6.24-.81 12.47-1.64 18.71-2.46l-2.2-2.2c-.7 6.97-.5 13.95.51 20.87.23 1.58 2.11 1.82 3.26 1.33 4.95-2.12 9.9-4.25 14.85-6.35-1-.26-2-.53-3-.79 1.3 2.91 2.6 5.81 3.89 8.72.63 1.42 1.27 2.83 1.91 4.24.57 1.26 1.06 2.66 2.31 3.41 2.73 1.62 5.66-1.39 7.6-3 2.31-1.91 4.44-4.01 6.43-6.25h-3.06l11.82 11.16c.86.81 2.2.83 3.06 0a93.6 93.6 0 0 1 11.35-9.4l-2.61-.34 8.67 7.14c.71.59 1.77.9 2.61.34 2.97-1.97 5.42-4.94 7.76-7.58.99-1.11 2.19-2.26 2.99-3.52.24-.37.62-.09-.68-.26-1.05-.14-.9-.36-.81-.05.1.35.35.76.48 1.11.48 1.27.97 2.54 1.6 3.74.95 1.82 3.3 1.06 3.94-.52 2.92-7.2 7.1-14.21 10.06-21.54.39-.96-.34-2.13-1.22-2.48-1.01-.41-2.02-.03-2.62.86-2.69 3.91-7.49 6.8-11.7 8.84-1.97.95-4.32 1.82-6.32 2.01-3.71.35-7.41.7-11.14.78-11.58.23-22.56-3.07-32.24-9.41-9.39-6.14-17.14-14.73-22.52-24.55-2.99-5.46-5.27-11.43-7.14-17.36-2.05-6.52-3.12-13.27-3.3-20.1-.19-7.49.43-14.94 2.47-22.17s5.23-13.58 9.58-19.43c.69-.93.15-2.39-.77-2.93-1.09-.64-2.24-.16-2.93.77-8.35 11.21-12.31 24.86-12.63 38.73-.17 7.26.45 14.52 2.17 21.59 1.64 6.75 4.17 13.51 7.19 19.77 10.25 21.21 31.68 38.26 55.75 39.25 4.37.18 8.74-.1 13.09-.5 3.31-.31 6.24-.8 9.31-2.11 5.49-2.35 11.32-6.06 14.76-11.05l-3.84-1.62c-2.94 7.27-7.2 14.16-10.17 21.51l3.94-.52c-1.04-1.98-1.46-5.45-3.76-6.41s-3.87 1.37-5.18 2.92c-1.4 1.65-2.85 3.24-4.35 4.8-.75.78-1.51 1.55-2.29 2.29-.36.34-.72.66-1.09.98-.41.36-.05.09-.58.44.87.11 1.74.22 2.61.34-2.89-2.38-5.77-4.77-8.66-7.15-.7-.57-1.79-.92-2.61-.34a100 100 0 0 0-12.23 10.07h3.06c-3.94-3.72-7.88-7.44-11.81-11.16-.81-.77-2.26-.89-3.06 0a56 56 0 0 1-4.77 4.75c-.79.69-1.59 1.37-2.42 2.01-.55.43-1.71 1.64-2.39 1.55l1.12.3c-.57-.25-1.13-2.23-1.4-2.84-.6-1.34-1.2-2.68-1.81-4.02l-3.63-8.03c-.53-1.17-2.01-1.21-3-.79-4.95 2.12-9.92 4.21-14.88 6.31l3.26 1.33a81 81 0 0 1-.4-19.69c.11-1.08-1.1-2.34-2.2-2.2-6.24.82-12.47 1.64-18.71 2.47l2.11 2.77c1.31-7.08 3.4-14.02 6.34-20.6.67-1.49-.11-3.2-1.87-3.26-5.14-.15-10.29-.31-15.43-.46l2.09 2.74a80.8 80.8 0 0 1 8.06-18.13c.73-1.22 0-2.69-1.27-3.11a33.7 33.7 0 0 0-12.68-1.61c.6 1.05 1.21 2.11 1.81 3.16 3.14-6.35 6.53-12.6 10.23-18.64.7-1.14.02-2.63-1.21-2.98-3.74-1.09-7.54-1.98-11.37-2.66l.9 3.4c4.49-4.95 9.35-9.58 14.52-13.81 1.09-.89.52-2.44-.4-3.13-2.57-1.89-5.14-3.79-7.72-5.68l.4 3.09c9.25-8.4 19.14-16.36 30.11-22.41 1.8-.99.22-3.63-1.6-2.74Zm74.71 5.01a25.5 25.5 0 0 1-1.88-3.03q-.225-.435-.42-.87c-.195-.435-.18-.38-.24-.57-.01-.04-.14-.48-.11-.32.02.09.08-.21 0-.07-.07.13-.07.28-.19.39-.18.17-.41.19-.64.19-.41.01-.51-.19-.83-.35-.08-.12-.08-.11.01.04l.06.13c-.07-.14-.08-.23-.04-.03.03.13.07.25.1.38l.45 1.93.9 3.86c.33 1.4 2.1 1.71 3.07.81 1.32-1.21 2.35-2 3.89-2.97.38-.24.76-.47 1.15-.69.2-.11.39-.22.59-.32.08-.05.17-.09.25-.13-.59.27-1.13-.02-1.61-.89.05.19.05.17.01-.04v.16q.06-.345 0-.03c-.07.2-.06.2.02 0-.07.15-.16.29-.25.42.21-.3-.15.14-.21.2s-.5.4-.22.2c-.14.1-.29.19-.43.28-.18.11-.37.21-.55.3-.06.03-.6.26-.3.14-.39.15-.79.26-1.2.36-.18.04-.35.08-.53.11-.07.01-.64.11-.46.08s-.4.04-.47.05c-.18.02-.36.03-.54.04-.43.03-.85.04-1.28.05-.86 0-1.71-.03-2.56-.05-1.71-.04-2.76 2.29-1.44 3.48 1.76 1.58 4.21 2.74 6.61 2.24 1.85-.39 1.71-3.14 0-3.6-.77-.21-1.54-.38-2.3-.61-.14-.05-.11-.04.08.04-.11-.05-.21-.1-.32-.15-.16-.08-.31-.17-.47-.26s-.3-.19-.44-.29c.36.25-.21-.18-.27-.24l-1.44 3.48c3.37-.04 7.14-.26 10.05-2.16 1.65-1.07 3.07-2.97 2.54-5.05-.35-1.37-1.69-2.19-3.06-1.8-.88.24-1.72.82-2.49 1.3-1.77 1.09-3.42 2.37-4.95 3.77l3.07.81c-.4-1.73-.8-3.45-1.21-5.18-.18-.75-.33-1.54-.79-2.18-.69-.99-1.84-1.46-3.02-1.11-1.08.32-1.77 1.34-1.92 2.41s.32 2.03.82 2.94c.84 1.54 1.8 2.98 2.89 4.36.49.62 1.54.57 2.1.13s.89-1.41.41-2.07Zm9.88 16.32c6.96.36 10.76 7.28 11.77 13.42.5 3.08.69 6.81-1.38 9.39-1.83 2.3-4.93 3.34-7.79 2.79-1.36-.26-7.19-2.46-4.78-4.41 1.08-.88 2.99-.73 4.27-.56 1.46.2 2.9.69 4.21 1.37 5.81 3.05 8.69 9.29 8.66 15.68-.02 3.76-.97 7.48-2.57 10.88-.84 1.8-1.84 3.52-2.95 5.17s-2.39 3.16-3.43 4.85c-1.13 1.85 1.36 3.53 2.87 2.22 3.22-2.8 5.67-7.07 7.38-10.95 1.81-4.1 2.9-8.51 2.77-13.02-.24-8.49-4.97-16.53-13.19-19.44-3.55-1.26-8.82-1.72-11.45 1.55-1.39 1.73-1.63 4.06-.4 5.95 1.14 1.75 3.16 2.99 5.04 3.78 3.8 1.6 8.29 1.41 11.75-.95 3.65-2.49 5.26-6.46 5.21-10.8-.11-9.36-5.58-19.9-15.99-20.33-2.19-.09-2.17 3.28 0 3.39Z"/></svg>