<?xml version="1.0" encoding="UTF-8"?><svg xmlns="http://www.w3.org/2000/svg" viewBox="0 0 180 180"><path d="M63.41 114.02c-4.98.38-9.95.19-14.94.06-5.69-.15-11.38-.34-17.06-.73a104 104 0 0 1-5-.45c-.11-.01-.7-.09-.47-.06.13.02-.62-.09-.83-.12-1.1-.18-2.21-.4-3.27-.77-.11-.04-.63-.24-.47-.17s-.32-.16-.41-.21c-.19-.1-.37-.22-.55-.33-.09-.05-.18-.12-.26-.18.19.14.15.13 0-.01-1.41-1.26-2.1-3.01-2.71-5.13-1.05-3.64-1.77-7.41-2.42-11.13-1.28-7.41-1.62-14.85-2.25-22.32-.43-5.13-1.05-10.52 1.79-15.08 1.61-2.58 4.1-4.56 6.26-6.66 1.98-1.92 3.96-3.88 6.24-5.45 2.22-1.53 4.6-2.6 7.25-3.13 3.44-.69 7.12-.49 10.62-.58 15.88-.41 31.77-.43 47.65-.3 15.64.14 31.28.45 46.92.71 3.61.06 7.35-.16 10.89.59 3.38.72 6.29 2.21 8.72 4.67s4.36 5.15 6.16 7.93c.96 1.49 1.73 3 2.08 4.74.37 1.85.24 3.82.15 5.7-.34 7.34-1.8 14.43-3.09 21.64-.74 4.12-1.26 8.28-2.17 12.37-.51 2.28-1.11 4.55-1.91 6.75-.39 1.07-.62 1.61-1.17 2.67-.23.44-.47.87-.73 1.29-.13.2-.26.41-.39.6-.07.1-.47.66-.24.36-.3.39-.62.75-.97 1.09l-.48.45c-.08.07-.16.14-.25.21.18-.15.15-.11-.02 0-.35.24-.71.45-1.08.64-.4.21.24-.06-.19.08-.24.08-.47.15-.71.21-.21.05-.43.07-.63.13-.33.1.65-.06.14-.02-.3.02-.59.06-.89.08-.75.06-1.5.1-2.24.14-8.98.42-18.05.36-27.02-.02-.77-.03-1.54-.07-2.31-.13-.31-.02-.62-.05-.93-.07-.13-.01-.27-.03-.4-.04-.51-.03.43.07.1.02-1.23-.18-2.48.3-2.84 1.61-.3 1.08.37 2.66 1.61 2.84.28.04.55.08.83.11-.78-.11.06.01.43.06.32.04.63.07.95.1.85.08 1.7.13 2.56.18 2.19.12 4.38.2 6.57.26 5.1.14 10.21.14 15.31.06 2.04-.03 4.08-.08 6.11-.19 1.57-.09 3.25-.14 4.74-.69 4.51-1.65 6.99-5.97 8.64-10.22 1.75-4.52 2.62-9.35 3.4-14.12.91-5.59 2.11-11.12 2.95-16.71.64-4.28 1.12-8.59 1.25-12.92.13-4.18-.57-7.95-2.85-11.51-3.99-6.23-8.83-12.39-16.2-14.55-3.87-1.13-7.88-1.08-11.87-1.15-3.94-.06-7.88-.13-11.82-.19-8.18-.14-16.35-.27-24.53-.37-16.69-.21-33.39-.32-50.08-.05-4.17.07-8.34.16-12.51.28-3.64.1-7.36.05-10.91 1.01-6.03 1.63-10.54 5.9-14.89 10.14-2.41 2.35-4.99 4.57-6.67 7.53-1.45 2.55-2.16 5.36-2.39 8.26-.24 2.94.04 5.91.29 8.84.31 3.69.45 7.4.77 11.09.38 4.29.95 8.56 1.69 12.8.67 3.83 1.38 7.75 2.56 11.46.73 2.3 1.74 4.67 3.55 6.33 1.74 1.6 3.97 2.43 6.26 2.87 5.14 1 10.55 1.22 15.77 1.3 6.03.09 12.03-.09 18.05-.48 2.26-.15 4.53-.32 6.78-.59.92-.11 1.69-.7 1.7-1.7 0-.87-.79-1.77-1.7-1.7Z"/><path d="M11.46 60.4c-.45-1.81 2.34-4.37 4.12-4.94 8.11-2.61 16.09-1.65 24.61-1.76 36.54-.47 73.08 1.49 109.62 1.22 4.38-.03 8.91-.07 12.92 1.69s7.35 5.86 6.75 10.19c.93-5.37-2.49-10.42-5.75-14.79-2.28-3.07-4.64-6.2-7.87-8.24-5.29-3.33-11.96-3.17-18.21-2.93-30.23 1.13-60.49 1.44-90.74.93-5.85-.1-11.91-.19-17.27 2.15-5.34 2.33-9.3 5.5-13.18 9.85"/><path d="M12.88 60.4c-.18-1.4 1.76-2.79 2.9-3.27 2.3-.97 5.2-1.23 7.66-1.43 5.18-.43 10.38-.04 15.56-.05 11.36-.01 22.71-.04 34.07.14 22.76.36 45.51 1.12 68.27 1.16 3.12 0 6.23-.01 9.35-.03 2.73-.01 5.52-.02 8.2.57 4.41.98 9.32 4.2 8.73 9.3-.24 2.07 3.34 2.57 3.66.5.87-5.57-1.75-10.48-4.9-14.88-2.93-4.11-6.05-8.52-10.61-10.94-4.78-2.53-10.3-2.9-15.6-2.81-5.99.09-11.98.36-17.97.51-25.01.64-50.03.74-75.04.27-6.42-.12-12.9-.08-18.88 2.56-5.25 2.32-9.63 5.9-13.36 10.22-1.82 2.11 1.15 5.17 3.09 3.09 3.19-3.42 6.76-6.41 10.96-8.52 4.71-2.37 9.81-2.76 15.01-2.73 11.7.06 23.4.26 35.1.21 11.88-.05 23.77-.22 35.65-.53 5.82-.15 11.63-.34 17.45-.55 5.24-.19 10.63-.8 15.85-.09 2.7.37 5.29 1.23 7.53 2.8 2.18 1.53 3.93 3.66 5.53 5.76 3.09 4.03 7.41 9.17 6.59 14.64 1.22.17 2.44.33 3.66.5.51-4.7-2.63-9.25-6.61-11.45-4.75-2.63-10.42-2.48-15.67-2.45-12.21.09-24.42-.07-36.63-.31-24.33-.46-48.63-1.03-72.96-.84-6.26.05-12.54-.33-18.76.69-2.66.43-5.64.99-7.81 2.68-1.7 1.33-3.31 3.37-2.83 5.66.33 1.54 3 1.23 2.79-.38Zm18.24 6.96c-1.36-.4-2.95.08-3.92 1.1-.89.94-1.31 2.24-1.4 3.51-.09 1.13.21 2.4.86 3.34.79 1.14 1.98 1.83 3.35 2.03 1.16.17 2.4.28 3.56.07.89-.16 1.71-.62 2.39-1.21 1.23-1.06 2.04-2.75 2.07-4.38.02-1.03-.33-2-.98-2.79-.73-.88-1.79-1.17-2.87-1.31-.36-.05-.89.21-1.13.47s-.39.56-.44.92c-.1.75.36 1.57 1.14 1.75.15.03.29.07.43.12.27.1-.05.07-.13-.06.02.04.13.08.17.1.1.07.2.16.31.21-.4-.2-.28-.24-.16-.11l.16.16c.19.18-.26-.39-.13-.17.03.05.06.09.09.14s.05.1.08.15c.13.22-.16-.45-.08-.21.03.11.07.21.09.32.01.05.02.11.03.17-.14-.57-.04-.36-.03-.17v.35c0 .06-.01.12-.02.18.02-.58.06-.38.02-.22-.06.27-.15.51-.23.77.19-.61.08-.18-.01-.02-.06.11-.13.23-.2.33-.04.05-.07.11-.11.16-.15.24.31-.37.12-.15-.1.11-.2.23-.31.34-.09.09-.19.18-.29.26-.22.2.4-.28.16-.13-.05.04-.11.07-.16.11l-.33.21c-.06.03-.12.06-.17.09-.35.19.4-.14.14-.05-.1.03-.21.07-.31.1-.06.02-.13.03-.19.05-.18.04-.34-.03.22-.02-.37 0-.75.01-1.12 0-.43-.01-.85-.06-1.28-.08.54.02.22.03.07 0-.1-.02-.2-.04-.3-.07l-.29-.09c-.18-.07-.13-.05.15.07l-.18-.09c-.08-.04-.17-.14-.25-.16l.2.15c-.05-.05-.1-.09-.15-.14-.06-.06-.12-.15-.19-.21.32.26.17.24.06.07-.05-.08-.1-.16-.14-.24-.08-.16-.09-.36.02.09-.05-.21-.14-.41-.19-.62-.04-.18.02-.38 0 .1 0-.12-.02-.25-.02-.38v-.28c0-.06 0-.13.01-.19q.03-.285-.03.18c.06-.21.08-.43.15-.64.03-.09.08-.18.09-.26-.12.27-.14.32-.06.16.03-.06.05-.11.08-.17.1-.19.28-.36.36-.55l-.14.18c.04-.05.09-.1.14-.15s.1-.1.15-.14c.13-.11.1-.09-.09.07 0 0 .24-.15.26-.16.15-.07.12-.06-.1.03.06-.02.13-.04.19-.06l.1-.02c.17-.03.13-.03-.11 0 0 0 .37 0 .4.01.73.08 1.36-.62 1.45-1.28.1-.73-.35-1.41-1.06-1.62Zm11.16 19.93.09 1.3c.11-.04.22-.06.33-.07.21.08.81.03 1 .04.83.03 1.66.07 2.49.1 1.74.06 3.49.09 5.23.13 3.4.08 6.81.19 10.21.25 6.64.12 13.28.21 19.92.32 13.44.21 26.89.34 40.33.51 3.82.05 7.64.09 11.45.14 1.83.02 3.65.05 5.48.07.5 0 2.92-.07 3.07.33.8 2.11 4.03 1.31 3.44-.95-.83-3.16-4.32-3.32-7-3.35-3.82-.05-7.64-.09-11.45-.14-7.55-.09-15.1-.19-22.66-.28-15.1-.19-30.21-.45-45.31-.45-4.23 0-8.47-.03-12.7 0-1.7.01-3.91-.32-5.4.66-1.22.79-1.77 2.38-.6 3.49 1.41 1.33 3.27-.64 2.09-2.09Zm0 9.12.09 1.3c.11-.04.22-.06.33-.07.21.08.81.03 1 .04.83.03 1.66.07 2.49.1 1.74.06 3.49.09 5.23.13 3.4.08 6.81.19 10.21.25 6.64.12 13.28.21 19.92.32 13.44.21 26.89.34 40.33.51 3.82.05 7.64.09 11.45.14 1.83.02 3.65.05 5.48.07.5 0 2.92-.07 3.07.33.8 2.11 4.03 1.31 3.44-.95-.83-3.16-4.32-3.32-7-3.35-3.82-.05-7.64-.09-11.45-.14-7.55-.09-15.1-.19-22.66-.28-15.1-.19-30.21-.45-45.31-.45-4.23 0-8.47-.03-12.7 0-1.7.01-3.91-.32-5.4.66-1.22.79-1.77 2.38-.6 3.49 1.41 1.33 3.27-.64 2.09-2.09Zm0 9.12.09 1.3c.11-.04.22-.06.33-.07.21.08.81.03 1 .04.83.03 1.66.07 2.49.1 1.74.06 3.49.09 5.23.13 3.4.08 6.81.19 10.21.25 6.64.12 13.28.21 19.92.32 13.44.21 26.89.34 40.33.51 3.82.05 7.64.09 11.45.14 1.83.02 3.65.05 5.48.07.5 0 2.92-.07 3.07.33.8 2.11 4.03 1.31 3.44-.95-.83-3.16-4.32-3.32-7-3.35-3.82-.05-7.64-.09-11.45-.14-7.55-.09-15.1-.19-22.66-.28-15.1-.19-30.21-.45-45.31-.45-4.23 0-8.47-.03-12.7 0-1.7.01-3.91-.32-5.4.66-1.22.79-1.77 2.38-.6 3.49 1.41 1.33 3.27-.64 2.09-2.09Z"/><path d="M66.74 105.17c-2.81 1.4-4.48 4.59-4.91 7.59-.24 1.68-.16 3.43.39 5.05.62 1.8 1.83 3.21 2.65 4.9s1.22 3.56 1.32 5.35c.11 2.03-.71 3.31-1.62 5.05-1.65 3.18-2.01 7.6 1.9 9.21 1.86.77 2.88-1.86 1.8-3.09-.6-.69-.32-1.87-.02-2.63.56-1.41 1.51-2.66 2.09-4.07 1.38-3.38.63-7.55-.78-10.82-1.1-2.56-3.53-4.54-3.82-7.4-.26-2.69.95-4.93 2.78-6.79 1.21-1.24-.31-3.07-1.8-2.33Zm26.97.17c-2.7 2.69-4.07 7.33-2.62 10.93.68 1.7 1.91 3.09 2.62 4.77.58 1.38.88 2.95.73 4.44-.16 1.62-1.01 2.94-1.88 4.28-1.02 1.57-1.95 3.24-2.28 5.1-.5 2.8.47 7.89 4.2 7.87 1.15 0 1.93-1.3 1.32-2.3s-1.54-1.65-1.68-2.93c-.16-1.47.64-2.83 1.43-4 .88-1.32 2.05-2.47 2.74-3.91.73-1.52 1.09-3.21 1.09-4.89.01-3.33-1.38-6.14-3.16-8.85-.81-1.24-1.45-2.36-1.25-3.9.24-1.75 1.19-3.25 1.61-4.93s-1.64-2.9-2.87-1.67Zm19.96 2.12c.94 1.06 1.79 1.97 2.28 3.33.49 1.38.36 2.68-.02 4.06-.43 1.56-1.01 3.14-.94 4.78.07 1.88.95 3.21 1.92 4.75 1.47 2.35 2.64 5.31 1.47 8.02-1.31 3.06-3.96 6.37-1.54 9.65 1.15 1.56 3.97.73 3.34-1.41-.5-1.67.71-3.08 1.56-4.38.99-1.53 1.72-3.08 1.94-4.9.42-3.54-.99-7.03-3.01-9.88-.41-.58-.96-1.16-1.07-1.89-.09-.64.09-1.32.23-1.93.41-1.75.96-3.47.77-5.29-.33-3.13-2.22-6.55-5.43-7.48-1.55-.45-2.48 1.47-1.5 2.57M76.21 111c-.67.97-1.2 1.96-1.35 3.14s.28 2.27.85 3.28c.92 1.62 2.25 3.84 4.28 4.12.63.09 1.32-.05 1.64-.67.29-.55.27-1.32-.23-1.76-.26-.23-.53-.46-.78-.71-.21-.22-.63-.52-.73-.81.04.1.15.21.03.03l-.15-.21c-.12-.16-.23-.32-.34-.48-.22-.32-.44-.64-.64-.97s-.4-.66-.56-1.01c.1.22.04.09 0-.06-.03-.09-.05-.18-.08-.27s-.04-.19-.07-.27c-.07-.2 0 .23 0 .01V114c0-.15.03-.17 0-.01.04-.19.08-.38.14-.57.03-.09.06-.19.09-.28.01-.03.14-.36.09-.24-.04.1.06-.14.08-.17.05-.11.1-.22.16-.34.31-.66.2-1.53-.5-1.9s-1.46-.14-1.9.5Zm2.81 16.18c.13.2.25.4.35.61.15.3.13.25.22.52.18.53.22.84.23 1.21 0 .24 0 .47-.02.71 0 .11-.04.25 0 .06-.03.14-.05.29-.08.43-.05.23-.11.46-.19.68-.01.03-.13.33-.07.2.06-.15-.15.27-.14.27-.61 1.09-1.45 1.93-1.87 3.14s-.51 2.78-.05 4.02c.51 1.38 2.48 1.51 2.94 0 .22-.72.26-1.47.33-2.05l.02-.2q-.03.15 0-.03c.02-.13.05-.27.08-.4.04-.16.08-.33.15-.48-.06.15.07-.12.08-.13.67-1.15 1.52-2.09 1.96-3.38.79-2.36.1-5.19-1.62-6.96-1.15-1.18-3.22.35-2.31 1.78Zm25.34-12.96c2.56 0 2.57-3.98 0-3.98s-2.57 3.98 0 3.98m.57 5.34c.49 1.78.96 3.57.88 5.43-.07 1.73-1.09 2.95-2.04 4.3s-1.84 2.96-1.81 4.71c.02 1.01.3 1.99.75 2.88s1.15 2.1 2.24 2.31c.84.16 1.73-.23 1.96-1.11.44-1.68-1.37-2.93-1-4.6.31-1.41 1.57-2.61 2.28-3.84 2.06-3.55 1.12-7.31-.24-10.92-.7-1.86-3.58-1.15-3.03.83Z"/></svg>