<?xml version="1.0" encoding="UTF-8"?><svg xmlns="http://www.w3.org/2000/svg" viewBox="0 0 180 180"><path d="M28.76 95.4c-2.53 1.94-7.05 2.82-7.27 6.67-.03.6.38 1.4.95 1.65 12.57 5.47 25.71 9.72 39 13.05 6.51 1.63 13.5 3.77 20.25 2.44 3.25-.64 6.29-2.15 9.17-3.74s5.52-3.18 8.2-4.89c3.08-1.96 6.09-4.01 9.03-6.17 3.06-2.24 6.33-4.49 9-7.18 1.71-1.72-.55-4.92-2.67-3.46-2.62 1.81-5 3.95-7.55 5.86s-5.17 3.74-7.83 5.5c-2.6 1.72-5.25 3.36-7.94 4.93s-5.22 3.08-8.06 4.05c-6.24 2.13-12.83.13-18.99-1.36s-12.65-3.3-18.9-5.21c-7.16-2.19-14.2-4.72-21.23-7.31l1.4 1.84c0-.32-.1.02.13-.27.11-.13.27-.27.39-.39.47-.44 1.03-.78 1.57-1.13 1.14-.73 2.32-1.41 3.34-2.32 1.36-1.21-.5-3.7-1.98-2.56Z"/><path d="M118.43 99.78c-.58-7.82-1.52-15.64-2.48-23.42-.47-3.86-.95-7.73-1.42-11.59-.22-1.81-.45-3.62-.67-5.42-.23-1.87-.31-3.87-.94-5.66-1.14-3.24-3.84-4.74-6.86-5.95-3.47-1.39-7-2.65-10.55-3.8-6.97-2.25-14.08-4.07-21.28-5.39-8.12-1.48-16.46-2.56-24.73-2.64-.73 0-1.53.41-1.87 1.07-.47.92-.94 1.84-1.42 2.76 1.27.17 2.54.33 3.81.5-.39-1.74-.37-3.58-.05-5.33l-.94 1.23c6.86-5.13 15.48-6.55 23.87-6.04 4.79.29 9.51 1.18 14.19 2.23 4.42.99 8.84 2.01 13.2 3.21 4.11 1.13 8.18 2.49 11.95 4.5 1.85.99 3.74 2.09 5.28 3.52s2.27 3.15 2.67 5.23c.91 4.78 1.51 9.64 2.25 14.45.76 4.91 1.51 9.81 2.27 14.72.81 5.28 1.86 10.58 2.43 15.9.26 2.39.58 7.06-2.37 8.01-2.43.79-1.39 4.63 1.06 3.84 3.94-1.27 5.29-5.17 5.42-8.99.07-2.05-.26-4.07-.57-6.09-.43-2.78-.85-5.56-1.28-8.34-1.72-11.24-3.32-22.51-5.18-33.73-.42-2.55-1.19-4.85-2.88-6.85-1.56-1.84-3.7-3.23-5.76-4.43-4.22-2.47-8.89-4.14-13.59-5.47-5.1-1.44-10.29-2.65-15.48-3.76S75.72 26 70.25 25.93c-5.41-.07-10.94.69-15.99 2.67-2.46.97-4.84 2.17-6.98 3.73-.75.55-1.17 1-1.36 1.93-.16.77-.24 1.59-.29 2.38-.09 1.58.11 3.13.36 4.69.29 1.83 2.98 1.94 3.81.5.52-.89 1.04-1.79 1.55-2.68l-1.87 1.07c6.97.42 13.9.92 20.8 2.05 6.92 1.13 13.78 2.67 20.5 4.64 3.44 1.01 6.84 2.13 10.21 3.36 1.47.54 2.95 1.07 4.39 1.68 1.19.51 2.51 1.1 3.2 2.25s.79 2.79.96 4.14l.75 5.92c.47 3.62.93 7.23 1.4 10.85 1.08 8.37 2.15 16.76 3.63 25.07.31 1.73 3.22 1.35 3.08-.42Zm-83.25 4.7c-1.22-4.29-3.56-8.18-5.47-12.18-1.89-3.96-3.42-8.07-4.23-12.39-.65-3.43-1.11-7.83.51-11.08 1.01-2.01 2.86-3.04 4.88-3.23 6.06-.59 11.72 3.16 16.4 6.69 7.28 5.48 13.61 12.25 19.45 19.21 3.05 3.64 5.97 7.42 8.45 11.48s4.4 8.68 5.83 13.43c.78 2.59 4.59 1.52 4.04-1.11-1.91-9.16-7.56-17.46-13.42-24.56-6.2-7.51-12.93-14.76-20.6-20.78-5.54-4.35-12.02-8.84-19.41-8.62-2.94.09-5.93 1.08-7.9 3.36-2.57 2.97-3.05 7.1-2.9 10.88.22 5.47 1.82 10.76 4.05 15.73 1.09 2.42 2.43 4.71 3.73 7.01 1.36 2.41 2.56 4.86 3.71 7.38.75 1.64 3.35.47 2.87-1.21Z"/><path d="M25.37 87.51c3 1.4 6.23 1.61 9.48 1.16 1.64-.23 3.24-.63 4.82-1.1.86-.26 1.71-.54 2.56-.81.91-.29 1.78-.53 2.51-1.17 1.06-.93.1-2.36-1.03-2.49-.81-.1-1.6.22-2.36.47s-1.49.48-2.24.71c-1.44.44-2.89.85-4.37 1.14-2.56.48-5.38.51-7.8-.57-.77-.34-1.67-.22-2.13.56-.39.67-.21 1.77.56 2.13Zm5.89 13.79c3.21 1.35 6.74 1.45 10.17 1.4 1.74-.03 3.37-.13 5.01-.76 1.77-.68 3.6-1.31 5.26-2.23s.5-3.33-1.22-2.88-3.3 1.21-4.94 1.85c-1.43.56-2.75.65-4.28.68-3.11.07-6.23.08-9.22-.89-.76-.25-1.6.29-1.81 1.03-.24.84.3 1.5 1.03 1.81Zm18.16 10.24c1.51.38 3.1.55 4.66.44.82-.06 1.65-.17 2.46-.36s1.65-.41 2.3-.86c.61-.42.9-1.13.6-1.83s-1-.98-1.73-.85c-.67.12-1.33.4-1.99.57-.33.09-.67.16-1.01.22l-.18.03-.52.06c-.66.06-1.33.07-2 .03-.15 0-.3-.02-.44-.03-.05 0-.62-.08-.34-.04-.34-.05-.68-.12-1.02-.19-.74-.17-1.62.23-1.8 1.02s.23 1.6 1.02 1.8ZM69.1 86.38c-1.07-4.2-1.56-8.71-1.67-13.04-.1-3.75.23-7.73 2.06-11.08 1.68-3.07 4.67-5.12 6.45-8.13.97-1.64 1.43-3.43 1.44-5.32.02-2.11-.48-4.24.17-6.29-.73.41-1.46.83-2.19 1.24 4.93 1.17 9.86 2.35 14.8 3.49l-1.32-1.73c.22 2.69.47 5.44 1.9 7.8 1.15 1.9 2.76 3.44 4.35 4.96 1.52 1.45 3.03 2.94 3.9 4.89 1.12 2.51 1.46 5.48 1.69 8.19.51 5.99.55 12.02 1.02 18.02.24 3.04.48 6.07.64 9.12l.06 1.23c0 .1-.07.93.17.47-.14.27-1.01.53-1.26.66a72 72 0 0 0-3.29 1.88c-5.12 3.07-10.01 6.56-15.32 9.3.97.39 1.93.79 2.9 1.18-3.14-10.22-8.66-19.71-15.8-27.65-1.6-1.78-4.22.85-2.63 2.63 6.75 7.55 11.62 16.41 14.62 26.07.39 1.26 1.75 1.78 2.9 1.18 4.87-2.53 9.38-5.7 14.05-8.59 1.1-.68 2.21-1.35 3.34-1.99 1.05-.59 2.37-1.07 3.23-1.93 1.07-1.08.99-2.55.92-3.95-.08-1.64-.19-3.29-.32-4.93-.47-6.33-.93-12.64-1.2-18.99-.23-5.53-.61-11.78-4.15-16.32-1.52-1.95-3.48-3.47-5.16-5.28-.88-.95-1.72-2.01-2.18-3.24-.56-1.51-.7-3.13-.82-4.72-.06-.77-.51-1.54-1.32-1.73-4.93-1.17-9.87-2.32-14.81-3.46-.96-.22-1.89.29-2.19 1.24-.68 2.18-.38 4.35-.33 6.57.04 1.87-.37 3.38-1.46 4.91s-2.4 2.7-3.58 4.06c-1.26 1.44-2.32 3-3.08 4.76-3.46 7.99-1.53 17.22.66 25.26.48 1.78 3.21 1.03 2.76-.76Zm54.47 11.02c1.96 0 1.96-3.05 0-3.05s-1.96 3.05 0 3.05"/><path d="M47.17 37.38c-.96 11.94 2.51 23.74 5.95 35.21.08.27.17.56.39.75.31.27.76.25 1.17.21 3.25-.34 6.42-1.37 9.24-3-3.61-9.68-5.49-20-5.51-30.32-2.42.04-4.84-.7-6.82-2.09"/><path d="M45.76 37.38c-.25 2.26-.52 4.38-.46 6.67.06 2.23.25 4.45.55 6.66.61 4.44 1.57 8.83 2.73 13.15.58 2.17 1.21 4.33 1.85 6.48.52 1.74.78 4.39 2.82 5.02 1.74.54 4.19-.22 5.87-.7 2.01-.57 3.96-1.41 5.78-2.44.69-.39 1.18-1.4.89-2.18-3.53-9.53-5.5-19.63-5.45-29.81 0-1.05-.89-1.91-1.93-1.93-2.15-.03-4.03-.71-5.84-1.83-2.16-1.34-3.94 1.91-1.96 3.35 2.25 1.63 5.04 2.36 7.8 2.34l-1.93-1.93c.17 10.52 1.93 20.96 5.58 30.84l.89-2.18c-1.54.87-3.14 1.57-4.85 2.05-.86.24-1.73.44-2.61.58-.1.02-1.07.06-1.12.13.55.57.73.64.55.2l-.21-.69c-1.1-3.69-2.18-7.39-3.14-11.12-.95-3.71-1.75-7.45-2.25-11.25-.24-1.81-.43-3.63-.53-5.46-.1-1.96-.29-4-.21-5.96.07-1.85-2.63-1.77-2.83 0Z"/><path d="M55.57 74.01c-.33.23-.12.75.12 1.07.83 1.13 1.66 2.27 2.48 3.4 1.54 2.11 3.33 4.39 5.91 4.86.13.02.26.04.38-.01.21-.1.26-.37.28-.59.4-3.94.15-7.94-.73-11.8-.05-.22-.11-.45-.28-.6-.18-.16-.43-.19-.67-.2-1.79-.11-3.61.27-5.21 1.08"/><path d="M54.44 72.88c-1.5 1.17-.24 3 .53 4.14s1.53 2.2 2.34 3.26c1.5 1.99 3.23 3.94 5.72 4.65.75.22 1.63.35 2.34-.06.9-.53 1.1-1.43 1.2-2.39a36.2 36.2 0 0 0-.16-8.31c-.1-.74-.21-1.49-.34-2.23s-.22-1.58-.58-2.24c-.86-1.59-2.94-1.55-4.51-1.36-1.73.21-4 .61-4.68 2.43-.32.84.36 1.77 1.14 2.01.87.27 1.64-.09 2.46-.36.64-.21 1.34-.37 1.9-.41.35-.03.7-.02 1.05-.05h.23c-.21-.03-.37-.15-.48-.37-.51-.48-.37-.39-.29-.05a32.5 32.5 0 0 1 .82 6.66c.02.8.01 1.6-.02 2.4l-.06 1.14c-.01.17-.03.34-.04.5-.04.54-.03 0 .19-.17l.79-.46c.44 0 .5-.02.18-.08-.13-.03-.25-.07-.38-.12-.45-.14.12.1-.29-.12s-.8-.45-1.16-.74c-.44-.35-1.23-1.19-1.73-1.78-.56-.68-1.11-1.44-1.7-2.23-.4-.54-.81-1.08-1.23-1.61-.16-.21-.33-.41-.49-.62a.7.7 0 0 1-.17-.22c-.21-.43-.24-.18-.08.72.46-.63.17-1.62-.41-2.06-.69-.51-1.45-.38-2.09.12ZM28.3 97.19s-.17-.07 0 .01c.28.13-.24-.1-.24-.1-.14-.05-.27-.07-.42-.09-.23-.03-.46-.05-.69-.03-.63.04-1.15.21-1.71.47-.84.38-1.67 1.07-2.08 1.9-.32.65-.47 1.35-.26 2.06s.73 1.22 1.36 1.56c.84.46 1.71.91 2.61 1.24 1 .37 2.11.59 3.18.51.89-.07 1.63-.7 1.64-1.64.02-1.93-.73-3.79-2.01-5.21-.56-.62-1.7-.61-2.26 0-.62.67-.6 1.59 0 2.26.05.06.1.11.15.17.04.04.17.22.01.01-.17-.22 0 0 .03.05s.07.1.1.15c.15.24.29.48.41.74.02.05.11.25 0 .01-.11-.27 0 .02.02.06.05.13.09.25.12.38.08.27.13.55.17.83l-.06-.43c.04.33.05.65.04.98l1.64-1.64c-.32.02-.64 0-.96-.04l.44.06c-.68-.09-1.32-.3-1.95-.56l.4.17c-.22-.09-.45-.19-.67-.28l.4.17c-.42-.18-.84-.38-1.25-.59-.2-.1-.4-.2-.6-.31-.07-.04-.14-.1-.21-.12.22.19.27.22.15.1.16.24.21.28.13.13l.17.4s-.03-.1-.04-.15l.06.44a1.7 1.7 0 0 1 0-.32l-.06.44c.02-.11.05-.21.1-.32l-.17.39c.04-.08.07-.15.12-.23.02-.04.04-.07.07-.11.07-.1.03-.05-.13.17.1-.09.19-.21.29-.31l.18-.18c.12-.11.28-.15-.07.04.13-.07.25-.18.39-.25.06-.03.12-.07.19-.1.04-.02.08-.04.11-.05.11-.05.05-.02-.18.08.15-.02.3-.12.43-.17s.29-.09.44-.13c.17-.05.32-.14.49-.19.23-.07-.3.09-.03.04.53-.1.96-.71.94-1.24a1.34 1.34 0 0 0-.94-1.24Zm70.22-40.28c3.06-1.63 6.66-2.22 10.08-1.67.3.05.62.12.81.35.18.22.19.53.2.82.23 11.09 3.67 21.88 4.51 32.94.1 1.37.16 2.79-.37 4.06-1.06 2.54-4.01 3.6-6.65 4.39-.12-5.82-.47-11.64-1.03-17.43-.73-7.48-1.92-15.2-6.04-21.49"/><path d="M98.9 58.32c1.58-.63 3.25-1.15 4.94-1.33 1.49-.16 3.4-.29 4.82.28l-.85-.49c-.17-.5-.22-.46-.15.13v.47c.02.55.04 1.11.07 1.66.05 1.03.14 2.05.25 3.07.2 1.91.46 3.81.76 5.7.61 3.92 1.39 7.81 2.07 11.72.65 3.75 1.44 7.68 1.38 11.49-.05 3.15-3.06 4.11-5.63 4.88l2.51 1.91c-.17-7.16-.58-14.36-1.5-21.47-.84-6.45-2.3-12.9-5.86-18.44-1.36-2.11-4.74-.15-3.37 1.97 3.33 5.18 4.69 11.27 5.42 17.32.82 6.84 1.21 13.74 1.35 20.62.03 1.26 1.25 2.29 2.51 1.91 3.3-.99 6.86-2.45 8.11-5.97.7-2 .41-4.23.2-6.29-.23-2.23-.54-4.44-.89-6.65-.73-4.54-1.66-9.05-2.39-13.6-.35-2.17-.64-4.34-.83-6.53-.1-1.1-.19-2.21-.24-3.31-.05-1.01.01-2.1-.67-2.94-1.35-1.66-4.56-1.37-6.45-1.13-2.39.3-4.65 1.04-6.68 2.35-1.31.84-.48 3.3 1.12 2.66Z"/><path d="M98.36 69.09c-4.77.87-9.62 1.38-14.46 1.65-1.29.07-2.58.12-3.88.14-.99.01-2.1-.14-3.06.17-2.57.83-1.68 4.11-1.52 6.09.4 4.9.86 9.8 1.38 14.69.52 4.86.83 9.88 2.12 14.61.5 1.82 3.27 1.45 3.28-.44.03-5.45-.98-10.95-1.53-16.37-.27-2.69-.53-5.38-.77-8.08l-.33-3.92c-.06-.74-.12-1.47-.17-2.21-.03-.44-.22-1.41-.14-1.67l-.53.91.2-.18-.91.53c.71-.21 1.69-.06 2.45-.09a96 96 0 0 0 2.42-.12c1.87-.12 3.72-.29 5.58-.55 3.61-.49 7.16-1.24 10.68-2.18 1.95-.52 1.11-3.34-.82-2.98Z"/><path d="M86.45 87.07c2.78 1.37 6.26.81 8.41-1.46 1.14-1.2 1.99-2.95 1.7-4.64-.29-1.67-1.98-2.61-3.56-1.92-1.63.72-2.01 2.8-1.06 4.22 1.1 1.63 3.04 1.61 4.74 1.19s3.51.18 5.27 0c1.75-.19 3.6-.7 5.06-1.72 1.69-1.18.24-3.72-1.62-2.78-1.68.85-3.3 1.39-5.21 1.29-1.08-.06-2.11-.31-3.2-.16-.51.07-.98.22-1.47.35-.31.08-.69 0-.95.05-.21.05 0-.02-.03 0 .05.08 0 .14-.15.2-.11.26-.26.27-.47.03-.48-.07-.26-.25-.32.22-.02.16-.07.32-.12.47-.25.72-.78 1.36-1.4 1.8-1.2.84-2.87 1.13-4.22.5-1.59-.73-2.99 1.59-1.39 2.37Zm3 8.27c2.4.07 4.81 0 7.21-.21 1.2-.11 2.4-.26 3.59-.44.62-.09 1.23-.19 1.85-.31s1.36-.19 1.89-.59c.48-.36.8-.83.7-1.46-.08-.54-.48-1.1-1.05-1.22-1.19-.25-2.51.27-3.69.5-1.13.22-2.28.41-3.42.55-2.35.29-4.71.43-7.07.44-1.77 0-1.77 2.7 0 2.75Zm1.55 7.59c2.2 0 2.21-3.42 0-3.42s-2.21 3.42 0 3.42M75.35 24.52c-.06.02-.59.24-.34.14-.28.11-.48.25-.72.44l2.5 1.04c.12-.96.08-1.93.15-2.9.03-.43.08-.96.13-1.31.02-.18.12-.4.09-.57-.13.48-.37.74-.73.77-.11.01-.05 0 .19-.02 1.97-.22 3.95-.25 5.92-.1.45.03.91.08 1.36.13.33.04.85.22 1.25.2.34.12.26-.03-.26-.45-.32-.14-.46-.34-.41-.6-.11.04-.11.73-.13.92-.05.52-.06 1.04-.02 1.56.08 1.06.27 2.11.49 3.15s.34 2.12.8 3.05c.34.69 1.27 1 1.99.81.76-.21 1.26-.92 1.29-1.7.03-.67-.19-1.37-.33-2.03-.13-.59-.26-1.17-.37-1.76-.2-1-.33-2.09-.22-3.04.1-.81.22-1.54-.24-2.28-.39-.63-1.05-1-1.77-1.14-1.23-.24-2.51-.36-3.76-.44a32 32 0 0 0-5.35.12c-.7.08-1.46.09-2.07.47-1.28.79-1.18 2.5-1.2 3.83-.02 1.23-.01 2.54.34 3.73.23.76 1.03 1.24 1.8 1.02.83-.23 1.15-1.02 1.02-1.8l-.03-.2-.13 1 .08-.11-.45.45.11-.08c.5-.36.78-.96.51-1.56-.23-.52-.89-.96-1.47-.72Z"/><path d="M73.71 18.94c.28.01.31.28.38.12.06-.14-.06-.7-.07-.85-.05-.7-.1-1.41-.11-2.12s-.01-1.41.06-2.11c.03-.3.08-.59.14-.88.02-.12.05-.23.08-.35-.9.43-1.09.64-.56.63 1.27.36 2.58-.51 3.72-.92 1.02-.36 2.07-.58 3.15-.62s2.14.08 3.2.36c.28.08 3.18 1.16 3.05 1.4a.7.7 0 0 1-.13-.32v.23c-.06.37.03.85.03 1.23.01.62.04 1.24.02 1.86-.02.5-.03.73-.2 1.21-.09.25.02.08-.14.3.07-.1-.3.31-.36.38-1.12 1.22 0 3.04 1.57 2.7 3.01-.63 2.68-4.64 2.6-6.91-.03-.78.01-1.61-.35-2.33-.38-.75-1.01-1.22-1.72-1.65a13.5 13.5 0 0 0-3.7-1.53c-2.67-.66-5.61-.57-8.19.42-.58.22-1.16.59-1.77.72s-1.23-.1-1.87.09c-1.7.53-1.9 2.45-2.03 3.96-.16 1.75.01 3.55.24 5.29.25 1.89 1.79 3.37 3.72 2.49 1.46-.67.61-2.76-.76-2.82Zm38.57 33.01a43 43 0 0 1 6.7-3.68c.33-.14.61-.26 1.03-.43.48-.19.95-.38 1.39-.64.58-.35.84-1.09.56-1.72-.29-.67-.93-.91-1.62-.8-.93.15-1.83.61-2.69.99-.79.34-1.56.71-2.33 1.1-1.56.79-3.06 1.69-4.51 2.66-.63.42-.97 1.3-.52 1.99.41.63 1.31.97 1.99.52ZM29.58 96.8c-4.01-.28-9.39.94-11.62 4.68-1.13 1.89-.94 4.15-.32 6.17.71 2.29 1.63 4.54 2.45 6.79.74 2.02 1.31 4.29 2.67 5.99 1.44 1.8 3.68 2.49 5.76 3.28 4.57 1.73 9.18 3.34 13.82 4.84 4.65 1.5 9.33 2.88 14.04 4.16 4.76 1.29 9.57 2.65 14.46 3.38 4.75.71 9.51.72 14.11-.78 4.23-1.38 8.06-3.69 11.72-6.18 9-6.12 17.83-12.59 26.15-19.61 1.21-1.02-.41-3.17-1.71-2.22-7.11 5.21-14.2 10.46-21.48 15.43-6.72 4.59-13.66 9.75-22.13 9.92-4.46.09-8.81-.85-13.12-1.91-4.35-1.07-8.68-2.24-12.98-3.49q-6.345-1.845-12.6-3.96c-2.12-.72-4.24-1.46-6.34-2.23-1.92-.7-4.07-1.27-5.84-2.32s-2.24-3.75-2.9-5.55c-.82-2.24-1.76-4.48-2.44-6.77-.26-.87-.56-1.88-.23-2.78s1.27-1.47 2.05-1.92c1.92-1.13 4.23-1.97 6.46-2.22 1.71-.19 1.76-2.58 0-2.7Zm99.14-10.83c3.93-3.76 7.86-7.52 11.78-11.28 1.15-1.1 2.39-2.47 2.12-4.04-.34-1.93-2.67-2.68-4.59-3.05-3.97-.75-7.94-1.5-11.92-2.25-.37 4.68 2.41 9.13 2.28 13.82"/><path d="M129.39 87.11c3.25-2.16 5.98-5.14 8.8-7.82 1.41-1.34 2.91-2.63 4.24-4.06 1.13-1.21 2.1-2.7 1.98-4.42-.21-3.16-3.4-4.46-6.08-5.04-3.88-.83-7.79-1.6-11.69-2.31-1.29-.23-2.42.54-2.49 1.89-.12 2.47.49 4.87 1.18 7.23.68 2.33 1.16 4.62 1.55 7.01.25 1.52 2.74 1.48 3.03 0 .92-4.82-2.2-9.4-1.83-14.23l-2.49 1.89c3.3.65 6.63 1.25 9.95 1.82 1.06.18 5.67.37 5.34 2.26-.2 1.16-1.69 2.21-2.48 2.98-1.22 1.18-2.45 2.36-3.67 3.54-2.47 2.38-5.11 4.68-7.14 7.46-.78 1.07.74 2.51 1.81 1.81Z"/><path d="M141.3 70.19c.92.31 1.19 1.52 1.35 2.36.25 1.27.33 2.61.43 3.9.22 2.7.29 5.49-.35 8.15-1.52 6.3-7.78 9.24-11.73 13.84-1.05 1.22.29 3.32 1.82 2.36 1.75-1.11 3.35-2.57 4.96-3.87 1.44-1.16 2.91-2.34 4.22-3.66 2.57-2.57 4.07-5.71 4.57-9.3.47-3.39.17-6.78-.28-10.16-.36-2.68-1.28-6.35-4.62-6.36-1.61 0-1.83 2.24-.37 2.73Z"/><path d="M27.72 123.47c1.2 6.75 3.41 13.42 5.33 20 1.66 5.68 3.06 12.14 7.76 16.17 4.29 3.68 9.9 5.13 15.21 6.66 6.42 1.85 12.89 4 19.5 5.06 6.53 1.05 12.86.54 18.81-2.51 5.54-2.83 10.37-7.07 15.15-11 5.08-4.18 9.97-8.57 14.88-12.94 4.43-3.94 9.07-7.7 12.46-12.62 3.88-5.64 4.18-12.32 4.97-18.89.44-3.68 1.11-7.32 1.55-11 .46-3.89.81-7.79 1.09-11.7.18-2.57-3.82-2.56-4 0-.46 6.5-1.17 12.96-2.24 19.38-.9 5.45-.75 11.26-2.85 16.45-2.08 5.12-6.48 9.02-10.54 12.59-4.5 3.96-8.91 8-13.47 11.89-4.63 3.95-9.3 7.96-14.31 11.44-4.94 3.43-10.16 5.6-16.26 5.39s-12.51-2.3-18.58-3.98c-5.24-1.45-10.94-2.44-15.8-4.98-2.6-1.36-4.7-3.26-6.11-5.86-1.53-2.83-2.32-6.05-3.25-9.11-1.05-3.46-2.1-6.92-3.12-10.39-1.07-3.62-2.05-7.3-3.43-10.81-.67-1.71-3.08-1.07-2.76.76Z"/><path d="M78.74 134.79c-.3 6.82.9 13.73 2.06 20.44.46 2.68 1.07 5.33 2.15 7.84.99 2.28 2.67 5.23 5.15 6.09 1.29.45 2.57-1.21 1.81-2.35-.67-.99-1.65-1.69-2.36-2.67s-1.24-2.02-1.66-3.11c-.91-2.33-1.39-4.82-1.8-7.28-1.06-6.3-1.98-12.61-2.71-18.95-.19-1.66-2.56-1.74-2.64 0Zm13.62-6.5c.16 6.22.11 12.44.3 18.66.1 3.07.19 6.14.29 9.2.05 1.49.09 2.99.14 4.48.05 1.6-.08 3.36.33 4.92.4 1.51 2.88 1.65 3.19 0 .28-1.52.08-3.13.02-4.67s-.12-2.99-.18-4.48c-.13-3.15-.25-6.3-.38-9.45-.25-6.23-.74-12.44-1.03-18.66-.08-1.73-2.75-1.75-2.7 0Zm11.93-6.18c.37 5.92.56 11.86.41 17.8-.15 5.96-.88 11.82-1.47 17.74-.19 1.89 2.98 2.33 3.33.45 1.1-5.87 1.42-11.99 1.58-17.95.16-6.03-.05-12.05-.78-18.04-.23-1.91-3.2-2.02-3.08 0Zm12.57-9.29c.7 10.77 1.07 21.43-.09 32.18-.1.96.89 1.76 1.77 1.77 1.04.01 1.67-.83 1.77-1.77 1.17-10.76 1.31-21.89-.69-32.56-.29-1.55-2.86-1.21-2.76.37Zm11.18-9.62c.43 5.62.79 11.28.92 16.91.06 2.78.05 5.56-.09 8.33-.07 1.39-.17 2.77-.3 4.15-.13 1.42-.53 2.92-.24 4.32.28 1.33 2.31 1.58 2.93.38s.62-2.64.74-3.97c.14-1.46.23-2.93.3-4.4.13-2.86.13-5.72.05-8.58-.17-5.76-.8-11.44-1.5-17.16-.21-1.74-2.94-1.83-2.8 0Zm-88.43 24.72c-.13 3.37.45 6.75 1.05 10.06.61 3.34 1.49 6.64 2.5 9.87s2.22 6.41 3.57 9.52c1.11 2.53 2.5 5.32 4.99 6.74 1.59.9 3.46-1.32 2.01-2.6-2.08-1.83-3.23-3.99-4.31-6.51-1.25-2.91-2.32-5.91-3.26-8.94-.91-2.95-1.64-5.95-2.29-8.97s-1.07-6.37-1.79-9.51c-.33-1.43-2.43-1.05-2.49.34ZM52 129.3c.39 6.39 1.83 12.59 3.33 18.8.75 3.1 1.49 6.21 2.25 9.31.39 1.59.79 3.18 1.18 4.77s.55 3.52 1.53 4.82c.67.89 2.5 1.06 2.73-.36.26-1.6-.3-3.13-.69-4.68s-.78-3.18-1.18-4.77c-.76-3.1-1.56-6.19-2.34-9.29-1.55-6.14-3.37-12.3-4.1-18.6-.2-1.7-2.83-1.78-2.72 0Zm15.05 3.94c-1.29.69-1.03 2.44-1 3.69.03 1.53.11 3.06.25 4.59.29 3.13.74 6.25 1.38 9.33 1.24 6.03 3.11 12.1 5.83 17.63.8 1.63 3.68.47 2.98-1.26-2.36-5.87-4.39-11.75-5.64-17.96-.61-3.01-1.02-6.05-1.31-9.11-.15-1.61-.21-3.22-.37-4.83-.1-1.01-.7-2.83-2.12-2.08"/><path d="M34.88 140.86c5.89 3.94 13.09 6.12 19.96 7.6 3.5.75 7.04 1.32 10.59 1.8 1.75.24 3.5.44 5.25.63 1.85.2 3.79.57 5.65.47 1.68-.09 2.12-2.52.4-2.99s-3.48-.52-5.19-.74c-1.74-.22-3.47-.45-5.21-.69-3.47-.47-6.94-1.04-10.37-1.78-6.88-1.48-13.27-3.8-19.58-6.89-1.72-.84-3.11 1.5-1.51 2.58Zm48.93 10.88c8.23-1.96 15.21-6.85 21.66-12.14 7.37-6.04 14.53-12.33 21.77-18.51 4.29-3.66 8.61-7.26 12.94-10.87 1.77-1.47-.8-4.07-2.54-2.54-7.22 6.33-14.5 12.58-21.79 18.82-6.61 5.65-13.05 11.75-20.35 16.52-3.88 2.53-8 4.6-12.52 5.72-1.94.48-1.12 3.46.83 3"/></svg>