<?xml version="1.0" encoding="UTF-8"?><svg xmlns="http://www.w3.org/2000/svg" viewBox="0 0 180 180"><path d="M95.36 34.27c-10.08-.36-20.2-1.04-30.23.3-2.68.36-5.35.81-7.99 1.42-2.38.55-4.71 1.35-6.6 2.95-3.66 3.09-4.55 8.4-5.59 12.8-1.25 5.32-2.31 10.69-3.16 16.09-.42 2.66-.71 5.34-1.12 8-.17 1.1-.41 1.91-1.34 2.59-.99.73-2.13 1.32-3.21 1.91-4.28 2.36-8.79 4.28-12.92 6.91-1.97 1.26-4.07 2.67-5.61 4.46-1.85 2.16-2.36 4.57-2.52 7.35-.32 5.54-.45 11.09-.42 16.63.01 2.64-.11 5.37.2 7.99.35 2.98 2.62 4.26 5.23 5.18 4.37 1.53 9.12 1.66 13.7 1.89 3.09.16 6.18.29 9.28.42 15.59.63 31.2.98 46.81 1.07 14.86.08 29.85.19 44.64-1.32 1.36-.14 3.03-.36 4.15-.47s2.01-.85 2.01-2.01c0-1-.92-2.12-2.01-2.01-6.05.61-12.22.65-18.29.81-7.51.2-15.02.31-22.53.32-15.61.03-31.23-.26-46.83-.79-6.18-.21-12.37-.46-18.55-.78-2.25-.12-4.53-.21-6.75-.57-1.19-.19-2.37-.45-3.52-.8-.63-.19-2.33-.58-2.62-1.12-.4-.76-.14-2.3-.16-3.14-.03-1.39-.05-2.77-.06-4.16-.02-2.69 0-5.38.07-8.08s.16-5.38.29-8.07c.12-2.33.23-4.18 2-5.85 3.33-3.16 7.72-5.2 11.78-7.24 2.12-1.07 4.24-2.13 6.29-3.33 2.17-1.27 4.2-2.63 5.04-5.12.78-2.34.79-5.07 1.14-7.51q.585-3.945 1.29-7.86c.93-5.11 1.91-10.23 3.24-15.25.5-1.9 1.05-3.96 2.46-5.41 1.55-1.6 3.78-2.14 5.87-2.64 9.47-2.23 19.12-2.57 28.81-2.42 2.57.04 5.14.09 7.71.13 2.1.03 2.09-3.18 0-3.25Z"/><path d="M41.41 79.51c7.1.57 14.33.28 21.45.28h19.62c4.3 0 8.6.06 12.89-.16 2.21-.12 2.21-3.32 0-3.44-7.13-.38-14.31-.16-21.45-.16-6.54 0-13.08-.04-19.62.01-4.29.04-8.61-.07-12.89.27-2.06.16-2.06 3.04 0 3.2m-2.3 18.85c-.97-.1-1.94-.12-2.92-.04-1.06.1-2.61.07-3.23 1.1-.96 1.6-1.19 3.79-1.35 5.61-.18 1.92-.12 3.85-.03 5.78.04.89.02 1.85.44 2.66.51.97 1.44 1.43 2.45 1.74 3.82 1.18 7.91 1.34 11.84.69 2-.33 3.94-.91 4.7-3 .64-1.77.28-3.9.22-5.74-.04-1.15-.04-2.29-.08-3.44-.03-1.05.03-2.2-.22-3.23-.33-1.32-1.48-1.91-2.75-1.98-1.12-.06-2.28-.06-3.4.04-2.17.2-2.17 3.17 0 3.38.65.06 1.29.06 1.93.06h1.04c.12 0 .31.03.42 0 .44.03.25-.19-.56-.68v.24c-.09.63.06 1.39.08 2.03q.03 1.095.03 2.19c.01 1.46-.06 2.92-.17 4.37-.04.48-.03 1-.1 1.33-.08.36-.03.29-.49.42-2.5.68-5.23.74-7.79.45-.57-.06-1.13-.16-1.68-.28-.7-.14-1.45-.46-2.15-.54-.25-.03-.15-.13-.11.02 0 0 .2.33.17.32.01 0-.02-.22-.03-.32l-.12-2.02c-.07-1.49-.1-2.99.02-4.48s.47-2.86.88-4.27l-1.22 1.22c1.37-.43 2.75-.56 4.18-.5.84.03 1.56-.74 1.56-1.56 0-.92-.72-1.47-1.56-1.56Z"/><path d="M77.71 37.52c10.44-.15 20.9-.57 31.23 1.21 2.65.46 5.36.94 7.91 1.79 2.2.73 3.74 2.06 4.71 4.17s1.37 4.58 1.89 6.84c.65 2.82 1.25 5.66 1.79 8.5 1.07 5.59 1.82 11.2 2.65 16.83.42 2.81 1.92 4.61 4.28 6.08 2.19 1.37 4.51 2.54 6.82 3.71 4.33 2.18 9.17 4.31 12.64 7.8 1.79 1.81 1.66 4.17 1.77 6.56.14 2.93.23 5.87.28 8.81s.05 5.87 0 8.81c-.02 1.3-.03 2.61-.08 3.91-.05 1.22-.49 1.28-1.66 1.7-4.18 1.52-8.68 1.61-13.07 1.82-6.23.3-12.46.51-18.69.69-15.89.45-31.79.67-47.69.63-14.19-.04-28.4-.23-42.57-1-1.25-.07-2.5-.12-3.75-.24-1.08-.11-2.01 1-2.01 2.01 0 1.18.92 1.9 2.01 2.01-.43-.04.78.1.92.11.32.04.63.07.95.11.7.08 1.4.15 2.1.23 1.48.15 2.97.28 4.45.4 3.33.26 6.66.42 10 .56 7.86.33 15.73.44 23.6.49 16.52.1 33.04-.1 49.55-.54 6.64-.18 13.27-.39 19.9-.7 4.25-.2 8.57-.29 12.73-1.23 2.53-.57 5.86-1.43 7.23-3.85.64-1.12.67-2.44.7-3.7a280 280 0 0 0-.31-22.75c-.16-2.93-.66-5.49-2.66-7.74-1.67-1.87-3.91-3.35-6.03-4.66-4.53-2.8-9.48-4.82-14.06-7.53-.85-.5-1.95-1.02-2.44-1.92-.58-1.05-.54-2.58-.69-3.74-.4-3-.84-5.98-1.35-8.96-.98-5.75-2.21-11.47-3.67-17.12-.58-2.26-1.38-4.63-2.72-6.56-1.58-2.28-3.81-3.69-6.43-4.52-5.06-1.61-10.66-2.21-15.94-2.55s-10.62-.22-15.92-.03c-2.79.1-5.59.22-8.38.31-2.08.07-2.1 3.28 0 3.25Z"/><path d="M131.66 76.31c-7.1-.57-14.33-.28-21.45-.28H90.59c-4.3 0-8.6-.06-12.89.16-2.21.12-2.21 3.32 0 3.44 7.13.38 14.31.16 21.45.16 6.54 0 13.08.04 19.62-.01 4.29-.04 8.61.07 12.89-.27 2.06-.16 2.06-3.04 0-3.2m2.3 25.18c1.43-.05 2.81.07 4.18.5l-1.22-1.22c.74 2.52 1.01 4.96.94 7.58-.02.68-.05 1.35-.09 2.03-.02.29-.03.58-.05.87-.01.23-.18.88.04.43.13-.26.27-.2-.02-.17s-.58.17-.85.24c-.72.18-1.44.34-2.17.46-2.51.42-5.17.37-7.66-.12-.4-.08-.97-.14-1.3-.32.11.06-.12-.24-.07-.09-.1-.29-.1-.4-.11-.62-.08-1.35-.18-2.7-.21-4.05-.04-1.61.01-3.23.07-4.84 0-.16 0-.31.02-.47.05-1.07-.54.49-.67.29.05.08 1.04 0 1.14 0 .8 0 1.59.02 2.38-.05 2.17-.2 2.17-3.17 0-3.38-.99-.09-1.98-.06-2.97-.05-1.12.01-2.25.22-2.88 1.26-.48.8-.44 1.81-.48 2.71q-.06 1.56-.09 3.12c-.03 1.95-.31 3.98-.09 5.92.24 2.14 1.42 3.6 3.55 4.11 3.86.92 7.99.88 11.84-.03.87-.2 1.84-.42 2.62-.86 1-.57 1.5-1.52 1.62-2.63.2-1.85.21-3.78.14-5.64-.08-2.1-.3-4.36-1.12-6.32-.29-.69-.59-1.31-1.37-1.53-.54-.16-1.2-.19-1.75-.25-1.12-.13-2.23-.13-3.35 0-.84.09-1.56.66-1.56 1.56 0 .82.72 1.59 1.56 1.56Zm-70.47-.4c-.35 1.98-.3 4.03-.31 6.04-.01 1.97-.04 3.93.18 5.89.09.81.63 1.51 1.51 1.51s1.42-.69 1.51-1.51c.22-1.96.19-3.92.18-5.89-.01-2.01.03-4.06-.31-6.04-.24-1.36-2.51-1.36-2.74 0Zm11.34 0c-.35 1.98-.3 4.03-.31 6.04-.01 1.97-.04 3.93.18 5.89.09.81.63 1.51 1.51 1.51s1.42-.69 1.51-1.51c.22-1.96.19-3.92.18-5.89-.01-2.01.03-4.06-.31-6.04-.24-1.36-2.51-1.36-2.74 0Zm11.33 0c-.35 1.98-.3 4.03-.31 6.04s-.04 3.93.18 5.89c.09.81.63 1.51 1.51 1.51s1.42-.69 1.51-1.51c.22-1.96.19-3.92.18-5.89-.01-2.01.03-4.06-.31-6.04-.24-1.36-2.51-1.36-2.74 0Zm11.34 0c-.35 1.98-.3 4.03-.31 6.04s-.04 3.93.18 5.89c.09.81.63 1.51 1.51 1.51s1.42-.69 1.51-1.51c.22-1.96.19-3.92.18-5.89-.01-2.01.03-4.06-.31-6.04-.24-1.36-2.51-1.36-2.74 0Zm11.34 0c-.35 1.98-.3 4.03-.31 6.04-.01 1.97-.04 3.93.18 5.89.09.81.63 1.51 1.51 1.51s1.42-.69 1.51-1.51c.22-1.96.19-3.92.18-5.89-.01-2.01.03-4.06-.31-6.04-.24-1.36-2.51-1.36-2.74 0ZM41.54 66.9c-1.34-.77-2.89-1.21-4.41-1.49s-3.16-.51-4.72-.18c-3.03.64-4.96 3.68-5.71 6.49-.8 3-.56 6.45.3 9.41.45 1.56 1.4 2.73 2.95 3.3 1.25.46 2.66.39 3.94.08.89-.22 1.46-1.15 1.33-2.03-.15-.98-.88-1.49-1.82-1.61-.21-.02-.42-.06-.63-.08-.02 0-.65-.05-.32-.01a4 4 0 0 1-.62-.11c-.07-.01-.6-.18-.27-.05-.08-.03-.53-.28-.22-.1-.27-.16-.1-.16-.04-.02-.21-.52-.26-1.13-.36-1.68-.21-1.1-.34-2.21-.34-3.33s.07-1.78.39-2.86c.21-.72.63-1.6 1.05-2.14.23-.29.69-.75.83-.84.29-.19.59-.27.94-.31 2.2-.25 4.33.21 6.49.51.8.11 1.58-.12 1.91-.94.3-.74.05-1.61-.66-2.02Zm88.76 1.78c1.09-.27 2.23-.39 3.35-.5.99-.09 2.07-.14 3.03 0 1.72.25 3.12 1.14 3.92 2.42.88 1.41 1.28 3.07 1.54 4.86.17 1.19.23 2.41.22 3.62-.01 1.4-.47 2.93.63 4.04.57.58 1.57.73 2.27.29 1.53-.95 1.39-3.02 1.4-4.63.01-1.41-.11-2.8-.32-4.19-.35-2.31-.99-4.71-2.39-6.62-1.62-2.21-3.92-3.36-6.62-3.65-1.3-.14-2.59 0-3.87.27-1.37.29-2.61.87-3.94 1.26-1.8.53-1.05 3.28.78 2.82ZM59.88 36.05c-.4-6.25-.04-12.59 1.19-18.73.21-1.07.33-2.45 1.01-3.34.63-.82 1.77-1.01 2.74-1.1 2.91-.27 5.89-.19 8.81-.27 6.37-.17 12.73-.4 19.1-.5 3.13-.05 6.27-.02 9.4.25 1.49.13 2.98.31 4.45.59.25.05.55.15.8.16.61.02.19.12.08-.09.31.62.4 1.56.56 2.23 1.66 6.89 2.73 13.9 3.23 20.97.19 2.66 4.36 2.68 4.17 0-.5-7.11-1.53-14.2-3.13-21.15-.34-1.45-.54-3.22-1.4-4.47-.95-1.38-2.61-1.61-4.14-1.86-3.52-.57-7.07-.8-10.63-.82-7.16-.05-14.34.31-21.5.51-3.37.1-6.81 0-10.16.34-3.01.32-5.49 1.58-6.62 4.52-.65 1.67-.89 3.55-1.15 5.31-.29 1.93-.53 3.88-.64 5.83-.22 4.03.04 8.05.59 12.04.26 1.83 3.36 1.41 3.24-.44Zm-41.32 88.9c-6.99-1.04-6.43 8.45-5.5 12.84.54 2.58 1.87 5.06 4.23 6.39 2.68 1.51 6.16 1.54 9.15 1.86 13.69 1.48 27.5 1.44 41.25 1.15 14.02-.3 28.04-.65 42.06-.96 7.07-.15 14.14-.3 21.2-.43 6.8-.13 13.63-.1 20.43-.4 2.98-.13 6.19-.56 8.69-2.33 2.72-1.93 3.86-4.9 4.18-8.13.31-3.13.43-7.05-1.05-9.91s-5.01-4.37-7.95-2.82c-2.38 1.26-.27 4.88 2.11 3.62.59-.31 1.31.13 1.73.56.81.83.96 2.17 1.02 3.28.12 2.29.17 4.8-.49 7.02-1.4 4.69-7.26 4.38-11.2 4.49-12.39.32-24.78.64-37.17.92-12.31.28-24.61.55-36.92.81-12.13.25-24.26.48-36.38-.1-3.35-.16-6.7-.39-10.04-.71-1.79-.17-3.59-.35-5.37-.59-1.2-.16-2.53-.33-3.55-1.03-1.83-1.25-2.28-3.85-2.48-5.89-.13-1.3-.25-2.65-.18-3.95.07-1.1.52-2.96 1.88-3.05 1.41-.09 1.96-2.42.36-2.65Z"/><path d="M25.23 145.32c-.74 4.32.21 9.38 2.98 12.84 1.2 1.5 2.72 2.66 4.51 3.36 2.29.9 4.93.86 7.35.98 4.55.23 9.13.63 12.7-2.71s4.36-7.88 5.08-12.28c.17-1.06-.28-2.14-1.39-2.45-.95-.26-2.28.32-2.45 1.39-.56 3.44-1.08 7.33-3.54 9.99-2.61 2.83-6.39 2.27-9.9 2.12-3.53-.15-7.17.02-9.53-3.05-2.31-3.01-2.18-6.65-2.72-10.2-.23-1.54-2.83-1.52-3.09 0Zm119.47 0c-.54 3.56-.42 7.18-2.72 10.2-2.35 3.07-6.01 2.91-9.53 3.05s-7.28.7-9.9-2.12c-2.46-2.66-2.98-6.56-3.54-9.99-.17-1.06-1.49-1.65-2.45-1.39-1.13.31-1.56 1.38-1.39 2.45.71 4.41 1.67 9.1 5.08 12.28 3.57 3.34 8.16 2.93 12.7 2.71 2.42-.12 5.07-.07 7.35-.98 1.79-.7 3.31-1.86 4.51-3.36 2.77-3.46 3.72-8.52 2.98-12.84-.26-1.52-2.85-1.54-3.09 0ZM64.87 21.94c1.45.13 2.92.16 4.38.05.81-.06 1.63-.17 2.43-.29s1.64-.24 2.39-.66c.6-.34.96-1.16.75-1.84-.23-.71-.82-1.16-1.57-1.19-.79-.04-1.56.2-2.33.34-.37.07-.73.12-1.1.18.37-.06-.15.02-.18.02l-.55.06c-1.4.14-2.81.21-4.22.17-.83-.02-1.62.74-1.58 1.58.04.92.69 1.5 1.58 1.58"/><path d="M68.37 20.34c-.39 1.21-.62 2.46-.85 3.71-.25 1.34-.53 2.68-.63 4.05-.05.76.63 1.42 1.33 1.51.75.1 1.48-.36 1.69-1.1.35-1.23.51-2.5.71-3.75.22-1.34.44-2.69.49-4.05.02-.7-.55-1.28-1.21-1.37-.7-.09-1.32.33-1.53 1m7.27 8.37c.73-1.39 1.54-2.74 2.45-4.01.46-.65.75-1.01 1.28-1.64.25-.29.5-.58.76-.87l.36-.39c.08-.09.16-.17.25-.26.17-.17.17-.17-.02.01l-.83.23h.12c-.28-.06-.56-.14-.84-.21-.33-.37-.43-.45-.3-.23.05.09.09.18.14.27.1.18.2.35.3.53.17.29.35.58.52.87.4.67.79 1.33 1.19 2s.77 1.27 1.16 1.9c.19.31.38.64.59.95.39.57.75.91 1.41 1.16.46.17 1.01 0 1.38-.28.42-.33.56-.72.62-1.24.12-1.01-.82-2.13-1.32-2.96-.49-.81-.99-1.61-1.49-2.41-.46-.74-.91-1.5-1.4-2.23-.32-.47-.62-.91-1.12-1.18-.73-.39-1.61-.25-2.21.32-1.18 1.11-2.19 2.53-3.12 3.86s-1.77 2.8-2.46 4.31c-.34.74-.21 1.62.54 2.05.68.39 1.68.18 2.05-.54Zm10.01-8.59c1.22 1.35 2.32 2.81 3.49 4.21.57.69 1.15 1.38 1.71 2.08.28.35.57.7.85 1.05.34.42.68.94 1.19 1.15.59.25 1.18.3 1.72-.12.51-.39.69-1 .55-1.63s-.6-1.09-.99-1.54l-.93-1.08c-.6-.7-1.21-1.39-1.82-2.08s-1.18-1.35-1.8-1.99c-.66-.68-1.34-1.34-1.97-2.05-.5-.55-1.5-.54-2 0-.54.59-.53 1.41 0 2"/><path d="M86.62 28.79c1.75-1.03 2.95-2.65 4.07-4.29.26-.38.51-.76.77-1.13.13-.19.26-.37.4-.56.07-.09.14-.18.2-.27.07-.09.05-.06-.08.1l.1-.13c.28-.35.57-.68.89-1 .16-.16.32-.31.49-.45.04-.03.33-.29.14-.12s.16-.11.2-.14c.7-.48 1.09-1.45.59-2.23-.45-.7-1.48-1.11-2.23-.59-1.69 1.17-2.83 2.83-3.93 4.54-.25.38-.49.77-.74 1.14-.13.19-.25.37-.39.56-.07.09-.13.18-.2.27s-.04.06.07-.09l-.1.13c-.28.35-.57.68-.89.98-.16.15-.33.29-.5.44-.09.07-.06.05.09-.07-.04.03-.09.07-.14.1-.11.07-.22.15-.33.21-.66.42-.99 1.36-.54 2.05.44.68 1.33.96 2.05.54Zm10.97-9.06c0 .69.11 1.37.19 2.06.09.8.19 1.61.3 2.41.09.69.19 1.37.28 2.06.11.78.11 1.63.54 2.31.7 1.1 2.39.92 2.77-.36.25-.84 0-1.73-.14-2.58l-.32-2.13c-.2-1.37-.35-2.82-.73-4.16-.45-1.59-2.91-1.29-2.9.39ZM25.66 147.57c-4.45-.49-9.1 1.48-11.83 5.04-.99 1.29-1.76 2.86-1.62 4.48.1 1.22.71 2.34 1.45 3.32 3.93 5.23 11.07 6.65 17.56 7.44 34.49 4.22 69.41 1.42 104.03-1.58 4.94-.43 9.89-.86 14.77-1.72 5.29-.94 10.69-2.48 14.74-6.01 2.03-1.77 3.74-4.52 2.78-7.03-.47-1.24-1.51-2.17-2.6-2.92-3.87-2.71-8.81-3.85-13.48-3.11-.66.1-1.35.26-1.85.7-.53.47-.76 1.19-.98 1.87-1.06 3.38-2.24 6.78-4.35 9.63-4.7 6.36-14 8.8-21.21 5.57-1.29-.58-2.53-1.33-3.42-2.43-.86-1.06-1.33-2.37-1.79-3.65-1.06-2.95-2.11-5.9-3.17-8.85-.2-.56-.43-1.16-.94-1.47-.45-.28-1.02-.26-1.55-.24-18.11.87-36.23 1.74-54.34 2.6.84 4.21-1.26 8.68-4.63 11.34s-7.83 3.67-12.13 3.54c-4.08-.12-8.23-1.27-11.42-3.83-3.19-2.55-5.29-6.63-4.88-10.7"/><path d="M26.14 145.85c-4.76-.67-9.52.84-12.91 4.31-1.79 1.83-3.27 4.27-3.12 6.92.14 2.5 1.73 4.73 3.48 6.42 3.24 3.12 7.62 4.71 11.95 5.59 5.31 1.08 10.79 1.5 16.18 1.95 23.78 1.97 47.69.96 71.45-.82 5.89-.44 11.78-.93 17.67-1.43 5.96-.51 11.94-.95 17.85-1.86 5.01-.78 10.13-1.93 14.5-4.6 3.96-2.42 8.64-7.25 6.04-12.26-1.18-2.28-3.65-3.84-5.91-4.9a21.5 21.5 0 0 0-7.71-2.02c-2.37-.17-5.68-.2-7.54 1.5-.87.8-1.25 1.94-1.6 3.03-.41 1.29-.83 2.57-1.32 3.82-1.63 4.17-4.27 7.55-8.37 9.47-3.67 1.72-8 1.99-11.83.66-2.08-.72-3.67-1.84-4.54-3.91-1.11-2.65-1.96-5.44-2.93-8.14-.45-1.27-.79-2.77-1.68-3.81-.95-1.11-2.18-1.4-3.6-1.38-3.07.05-6.15.28-9.22.42-12.05.53-24.1 1.1-36.15 1.68-2.99.14-5.98.29-8.97.43-1.58.08-2.47 1.39-2.21 2.9.6 3.35-1.19 6.8-3.75 8.87-2.83 2.3-6.62 3.13-10.2 3.12-6.98-.04-15.25-4.17-14.62-12.24.1-1.23-1.12-2.29-2.29-2.29-1.32 0-2.19 1.05-2.29 2.29-.65 7.95 5.86 14.24 13.12 16.07 7.14 1.8 16.16.59 21.13-5.32 2.78-3.3 4.08-7.44 3.31-11.71l-2.21 2.9c11.3-.54 22.6-1.06 33.9-1.64l16.95-.87c.66-.03 1.33-.07 1.99-.1.49-.02 1.45-.26 1.9-.08-.04-.01-.25-.28-.09-.04.11.16.15.43.22.61.28.78.56 1.55.83 2.33.91 2.53 1.73 5.11 2.75 7.59 3.54 8.62 15.35 8.95 22.67 5.48 3.91-1.85 6.99-5.03 8.94-8.87 1.11-2.19 1.93-4.52 2.67-6.86.34-1.07.3-1.29 1.43-1.47 1.17-.19 2.4-.18 3.58-.1 2.24.16 4.49.82 6.47 1.88 1.52.82 3.89 2.08 3.55 4.14-.34 2.03-2.31 3.63-3.91 4.7-1.91 1.28-4.01 2.19-6.2 2.88-4.78 1.49-9.81 2.08-14.77 2.58-5.5.55-11.02.98-16.53 1.44-22.21 1.85-44.51 3.32-66.82 2.61-5.56-.18-11.11-.49-16.65-.97-4.81-.41-9.71-.78-14.44-1.79-3.85-.82-7.79-2.15-10.48-5.18-.64-.72-1.3-1.59-1.49-2.55-.2-1.05.27-2.02.82-2.89 1.08-1.71 2.78-3.04 4.61-3.88 1.83-.85 3.89-1.19 5.9-1.09s2.48-3.22.47-3.5ZM55.1 74.09c2.31.05 4.57.03 6.87.31 2.06.25 4.13.55 6.17.88 1.89.31 3.77.72 5.47 1.62 1.72.91 3.21 1.87 5.19 2.08 1.69.18 2.11-2.76.4-2.99-1.9-.26-3.38-1.54-5.09-2.31-1.89-.85-3.89-1.31-5.92-1.67-4.32-.77-9.13-1.69-13.49-.84-1.68.33-1.23 2.88.39 2.92Zm34.9 0c2.31.05 4.57.03 6.87.31 2.06.25 4.13.55 6.17.88 1.89.31 3.77.72 5.47 1.62 1.72.91 3.21 1.87 5.19 2.08 1.69.18 2.11-2.76.4-2.99-1.9-.26-3.38-1.54-5.09-2.31-1.89-.85-3.89-1.31-5.92-1.67-4.32-.77-9.13-1.69-13.49-.84-1.68.33-1.23 2.88.39 2.92ZM48.76 48.68c9.93.36 19.91.12 29.85.14 9.95.02 19.9.15 29.85.23 2.82.02 5.64.03 8.46.04s5.59.09 8.38-.35c1.51-.23 1.51-2.82 0-3.06-4.86-.75-9.94-.34-14.85-.32-4.97.02-9.95.15-14.92.2-9.95.11-19.9.04-29.85.07-5.63.02-11.28-.1-16.91.11-1.89.07-1.89 2.87 0 2.94Z"/></svg>