<?xml version="1.0" encoding="UTF-8"?><svg xmlns="http://www.w3.org/2000/svg" viewBox="0 0 180 180"><path d="M169.45 71.68c-15.28 3.24-30.61 6.28-45.73 10.2-3.67.95-7.34 1.94-10.98 3-3.58 1.04-7.28 2.21-10.33 4.43-2.83 2.06-5.12 4.95-5.91 8.42s.18 6.83 2.42 9.68c1.46 1.87 4.1 3.86 4.25 6.41s-2.88 4.47-4.89 5.55c-2.58 1.38-5.37 2.44-8.09 3.53-2.97 1.19-5.97 2.33-8.97 3.44-12.49 4.62-25.12 8.86-37.34 14.17-11.58 5.03-23 11.65-32.14 20.46-1.08 1.04-2.08 2.15-3.06 3.28-1.43 1.65.85 4 2.42 2.42a81.5 81.5 0 0 1 14.04-11.27c5.42-3.45 11.27-6.15 17.08-8.84 11.9-5.51 24.34-9.71 36.62-14.25 5.95-2.2 11.88-4.47 17.71-7.01 5.37-2.33 12.69-6.13 11.05-13.23-.72-3.14-3.29-5.25-5.18-7.68-1.76-2.27-2.04-4.89-.7-7.47 1.55-2.98 4.41-4.79 7.44-6.01 3.39-1.37 6.99-2.27 10.5-3.26 15-4.2 30.17-7.82 45.31-11.51 1.79-.44 3.57-.87 5.36-1.31 2.05-.5 1.18-3.58-.87-3.15ZM25.29 98.64c2.09 0 2.09-3.25 0-3.25s-2.09 3.25 0 3.25m9.96-4.97c1.75 0 1.75-2.72 0-2.72s-1.75 2.72 0 2.72m-1.1 9.9c2.03 0 2.03-3.16 0-3.16s-2.03 3.16 0 3.16m10.23-3.18c2.56 0 2.57-3.98 0-3.98s-2.57 3.98 0 3.98m9.96-7.31c2.06 0 2.06-3.2 0-3.2s-2.06 3.2 0 3.2"/><path d="M57.56 160.88c6.05-3.98 12.72-6.93 19.53-9.33 6.87-2.41 13.88-4.39 20.65-7.08 6.72-2.67 13.33-5.79 19.14-10.14 5.89-4.4 11.64-11.15 9.61-19.08-.9-3.51-4.52-6.84-2.79-10.63 1.84-4.01 6.62-4.87 10.37-6.13 1.85-.62 1.07-3.13-.79-2.86-3.65.53-7.44 1.66-10.26 4.14s-4.25 6.17-3.1 9.78c.55 1.73 1.52 3.27 2.29 4.9.76 1.61 1.03 3.36.84 5.13-.42 3.79-2.8 6.97-5.54 9.47-5.27 4.82-12 8.16-18.56 10.85-6.8 2.79-13.78 5.16-20.64 7.79-7.69 2.95-15.34 6.12-22.15 10.82-1.43.99-.1 3.34 1.38 2.36Zm87.01-65.74c3.23-.61 6.42-1.43 9.62-2.23 1.6-.4 3.19-.8 4.79-1.19s3.22-.73 4.74-1.35c.67-.27 1.13-.81 1.03-1.58-.09-.64-.7-1.33-1.41-1.25-3.3.37-6.57 1.5-9.78 2.34-3.24.85-6.49 1.67-9.68 2.7-1.63.53-.96 2.86.7 2.55Zm19.83 8.53c-4.88.27-10.01.58-14.31 3.14-4.15 2.47-6.63 6.42-6.77 11.26-.07 2.47.26 4.95-.18 7.4a21.8 21.8 0 0 1-2.12 6.22c-2.13 4.16-5.3 7.47-8.88 10.42-4.44 3.65-9.53 6.16-14.4 9.13-1.72 1.05-.22 3.43 1.55 2.64 8.64-3.85 17.49-8.95 23.04-16.81 2.61-3.69 4.35-7.94 4.81-12.45.26-2.51-.22-5-.07-7.5.13-2.18 1.09-4.09 2.63-5.63 3.83-3.82 9.59-4.45 14.7-5 1.77-.19 1.85-2.93 0-2.83Zm-60.84 58.9c1.17-.86 2.37-1.7 3.48-2.64.26-.23.45-.71.43-1.05s-.11-.63-.32-.9c-.44-.56-1.28-.78-1.91-.38-1.12.71-2.17 1.52-3.24 2.3-.34.24-.6.51-.71.92-.1.37-.06.86.16 1.19s.53.62.92.71.86.09 1.19-.16Zm28.96 5.61c5.23-2.39 10.49-4.84 14.96-8.52 2.28-1.87 4.22-4.05 5.88-6.49.93-1.37 1.8-2.78 2.66-4.19s1.99-2.91 2.44-4.53-1.48-2.53-2.61-1.52-1.92 2.53-2.73 3.81-1.66 2.68-2.52 4a28.4 28.4 0 0 1-5.68 6.36c-4.19 3.47-9.17 5.91-14.02 8.31-1.86.92-.23 3.61 1.62 2.77m29.16-31.84.57-.43.14-.11s.05-.04.07-.05c.09-.07.26-.18.34-.27.04-.06.09-.11.13-.17a.7.7 0 0 0 .13-.17c.06-.1.11-.2.16-.29l.15-.35.05-.39-.05-.39c-.05-.19-.13-.36-.26-.5a.7.7 0 0 0-.26-.26.8.8 0 0 0-.32-.19.7.7 0 0 0-.37-.1c-.2-.04-.39-.03-.59.03-.11.03-.21.05-.32.08q-.285.075-.51.24l-.14.11-.56.42c-.19.1-.34.24-.46.42-.14.16-.24.34-.29.55a1.2 1.2 0 0 0-.03.65c0 .22.07.42.19.6l.25.33q.3.3.72.42l.43.06c.29 0 .57-.07.82-.22ZM9.89 74.01c5.17.63 10.51.63 15.72.65l15.72.07c10.32.05 20.63.02 30.95.02h62.64c11.72 0 23.48.28 35.19-.21 2.49-.1 2.5-3.77 0-3.88-10.47-.43-20.97-.21-31.45-.21h-30.95c-20.88 0-41.76-.05-62.64 0-5.82.01-11.65.05-17.47.08-5.87.03-11.88-.05-17.72.66-1.79.22-1.8 2.58 0 2.8Z"/><path d="M10.32 72.37a67.2 67.2 0 0 0 25.19-9.51c2.63-1.66 5.19-3.52 8.16-4.45 3.95-1.24 8.3-.71 12.25-1.99 3.73-1.21 6.76-3.91 9.8-6.39 4.34-3.55 8.93-6.79 13.72-9.7 2.99-1.81 6.17-3.53 9.65-3.88 5.35-.54 10.55 2.23 15.92 2.13 1.53-.03 3.08-.28 4.59.02 1.8.37 3.33 1.5 4.74 2.67 7.23 5.94 14.26 13.84 23.62 14.05 2 .05 4.06-.28 5.98.31 2.83.86 4.74 3.5 7.35 4.88 1.8.95 3.87 1.27 5.74 2.08 1.93.83 3.6 2.16 5.25 3.47 2.42 1.93 4.13 4.21 6.54 6.14"/><path d="M10.32 73.92c6.07-.74 11.9-2.43 17.51-4.84 2.72-1.17 5.39-2.48 7.93-4.01 2.39-1.44 4.68-3.14 7.26-4.23 2.85-1.2 5.96-1.18 8.99-1.54s5.76-1.1 8.38-2.61c2.47-1.43 4.66-3.31 6.89-5.09 2.47-1.97 5-3.85 7.62-5.62s5.24-3.47 7.99-4.96c2.47-1.34 5.08-2.35 7.93-2.29s5.61.94 8.39 1.52c1.48.31 2.99.56 4.5.66 1.59.1 3.17-.18 4.75-.08 2.57.18 4.72 2.51 6.55 4.11 1.96 1.71 3.88 3.46 5.89 5.11 4.04 3.31 8.56 6.46 13.81 7.39 1.54.27 3.07.38 4.64.34 1.45-.03 2.99-.2 4.36.39 2.65 1.14 4.45 3.68 7.11 4.87 1.6.71 3.31 1.07 4.93 1.72 1.36.54 2.61 1.41 3.77 2.29 2.73 2.09 4.88 4.76 7.53 6.93 1.04.85 2.51 1.02 3.52 0 .88-.88 1.05-2.67 0-3.52-2.44-1.98-4.42-4.44-6.88-6.39-2.44-1.94-4.86-3.56-7.87-4.5-1.29-.41-2.61-.73-3.78-1.43-1.05-.63-1.96-1.44-2.91-2.2-2.55-2.03-5.08-3.11-8.4-3.08-2.65.03-5.02.02-7.56-.85-2.38-.81-4.57-2.17-6.61-3.61-4.36-3.09-8.03-7.07-12.39-10.16-1.19-.84-2.53-1.55-3.96-1.86-1.74-.38-3.45-.13-5.21-.1-2.95.04-5.78-.81-8.64-1.43-3.05-.66-6.1-1.02-9.19-.41s-5.89 2.12-8.53 3.7c-5.46 3.27-10.6 7.07-15.46 11.17-2.13 1.79-4.32 3.67-6.9 4.78-2.74 1.18-5.79 1.16-8.7 1.5-3.47.41-6.53 1.42-9.51 3.25-2.85 1.75-5.59 3.66-8.54 5.25-6.14 3.3-12.81 5.41-19.61 6.81-1.68.35-1.33 3.25.41 3.04Zm56.3 46.33-.03-.28c0-.2-.03-.39-.13-.56-.06-.18-.16-.34-.3-.47-.13-.14-.29-.24-.47-.3-.17-.09-.36-.13-.56-.13l-.39.05c-.25.07-.46.19-.64.38l-.23.3c-.13.23-.2.47-.2.74l-.03.28c0 .21.04.4.13.57.06.18.16.35.31.48.14.15.3.25.48.31.18.09.37.14.57.13l.4-.05c.25-.07.47-.2.66-.38l.23-.3c.13-.23.2-.48.2-.75Zm5.7-5.37c1.99 0 1.99-3.09 0-3.09s-1.99 3.09 0 3.09m2.21 5.86c2.06 0 2.06-3.2 0-3.2s-2.06 3.2 0 3.2m8.86-4.66c2.11 0 2.11-3.28 0-3.28s-2.11 3.28 0 3.28m-67.31 24.09v-.14c0-.17-.05-.37-.08-.55l-.04-.27-.15-.36c-.1-.18-.23-.32-.39-.43a.9.9 0 0 0-.34-.2c-.18-.1-.38-.14-.59-.13l-.4.05-.36.15c-.18.1-.32.23-.43.39-.13.15-.23.32-.27.52l-.04.27c-.03.18-.08.38-.08.55v.14c0 .22.04.42.14.61.06.2.17.36.33.51q.21.225.51.33c.19.1.39.14.61.14l.42-.06c.27-.07.5-.21.7-.41l.25-.32c.14-.25.21-.51.22-.8Zm1.74-9.17c2.09 0 2.09-3.25 0-3.25s-2.09 3.25 0 3.25m5.54 7.94c1.98 0 1.98-3.08 0-3.08s-1.98 3.08 0 3.08m8.85-4.6c2.11 0 2.11-3.28 0-3.28s-2.11 3.28 0 3.28M12.57 87.15c1.91 0 1.91-2.97 0-2.97s-1.91 2.97 0 2.97M11.5 21.82c4.11-.71 8.46.52 11.52 3.37 3.14 2.92 4.87 7.09 5.22 11.33.13 1.51 2.1 2.72 3.28 1.36 2.54-2.93 6.34-4.73 10.23-3.64 3.52.98 6.33 4.29 6.69 7.94.17 1.71 2.16 2.8 3.51 1.46 1.83-1.82 4.12-2.99 6.65-3.49 2.6-.52 5.04-.02 7.51.8 1.82.61 2.87-2.09 1.28-3.04-5.72-3.41-13.77-1.7-18.35 2.82 1.17.49 2.34.97 3.51 1.46-.52-5.44-4.21-10.32-9.53-11.89s-11.58.58-14.53 5.27c1.19.32 2.39.65 3.58.97-.52-5.31-2.62-10.64-6.78-14.16-3.95-3.34-9.56-5.07-14.58-3.34-1.79.61-1.06 3.12.77 2.8Zm116.81 20.32c1.3-2.77 5.36-4.24 7.9-2.12 1.13.94 2.7.59 3.19-.84 1.03-3 2.89-6.04 5.87-7.42 2.58-1.19 5.85-.88 7.88 1.18 1.43 1.45 3.42.22 3.64-1.51.45-3.56 2.03-7.05 4.26-9.84 2.45-3.07 5.47-4.91 8.96-6.58 2.15-1.03.63-4.48-1.61-3.81-4.21 1.25-8.04 4.39-10.71 7.8-2.85 3.64-4.58 7.85-5.17 12.43 1.21-.5 2.43-1.01 3.64-1.51-3.21-3.27-8.27-3.92-12.4-2.13-4.21 1.83-7.11 5.95-8.05 10.37l2.8-1.14c-4.44-3.16-11-.97-13.02 3.93-.66 1.6 2.07 2.76 2.81 1.19Z"/></svg>