<?xml version="1.0" encoding="UTF-8"?><svg xmlns="http://www.w3.org/2000/svg" viewBox="0 0 180 180"><path d="M89.31 102.37c-8.73-4.39-15.02-12.52-17.99-21.75-3.36-10.46-2.9-22.91 1.38-33.07 2.41-5.7 6.74-10.04 11.51-13.83l-2.55.33c15.81 11.52 27.92 31.24 21.56 51.19-1.63 5.12-4.38 9.7-8.29 13.4-1.46 1.38.69 3.47 2.19 2.19 8-6.86 11.85-17.48 11.84-27.85 0-11.05-4.59-21.31-11.44-29.81-3.96-4.92-8.64-9.05-13.74-12.74-.81-.59-1.86-.22-2.55.33-4.57 3.65-8.81 7.87-11.42 13.17-2.67 5.43-3.97 11.51-4.51 17.51-1.04 11.56 1.68 23.45 8.86 32.71 3.59 4.64 8.18 8.51 13.47 11.07 1.9.92 3.57-1.89 1.66-2.85Z"/><path d="M67.57 65.2c-3.28-2.37-6.76-4.48-10.07-6.8-3.3-2.32-6.52-4.75-9.65-7.29-.84-.68-2.07-.87-2.9 0-3.75 3.94-6.24 8.89-7.4 14.19-1.15 5.22-1.27 10.98.59 16.05C41.95 91.77 52.92 97.64 63 100.52c3.2.92 6.48 1.53 9.79 1.9 1.64.18 3.29.29 4.94.33 1.72.04 3.5.14 5.14-.44 1.37-.48 1.63-2.68 0-3.04-2.62-.58-5.47-.19-8.15-.39-2.7-.2-5.38-.62-8.02-1.23-5.16-1.2-10.12-3.16-14.65-5.9-3.91-2.36-7.14-5.69-8.96-9.92-1.78-4.17-2.17-8.86-1.6-13.33.68-5.26 2.83-10.49 6.36-14.48-.83.11-1.66.21-2.48.32 3.27 2.5 6.62 4.9 10.05 7.19 3.4 2.28 6.89 4.6 10.59 6.38 1.82.87 3.19-1.51 1.57-2.68Zm41.09 1.7c2.54-4.5 7.1-7.35 11.31-10.11 5.38-3.53 10.75-7.06 16.13-10.6l-3.03-1.23c2.28 9.12 4.41 19.3 1.01 28.41-1.61 4.33-4.68 8.11-7.94 11.32s-6.95 5.9-11.11 7.73c-2.11.93-4.39 1.6-6.67 1.91-2.51.34-4.98.04-7.48-.18s-2.75 3.49-.57 4.24c4.61 1.58 10.2.65 14.66-1.01 4.75-1.77 9.02-4.55 12.78-7.93s7.33-7.55 9.52-12.18c2.28-4.82 3.1-10.13 2.91-15.43-.21-6.12-1.61-12.07-3.13-17.98-.32-1.23-1.92-1.97-3.03-1.23-5.6 3.74-11.21 7.47-16.79 11.22-4.5 3.02-9.03 6.35-11.32 11.44-.82 1.83 1.72 3.43 2.75 1.61"/><path d="M56.44 58.82c.84-4.13 2.47-8.1 4.77-11.64.14-.22.31-.45.56-.52.33-.1.67.12.94.33 1.13.85 2.26 1.71 3.39 2.56.41.31.86.7.87 1.21 0 .35-.2.65-.36.96-.58 1.06-.77 2.28-.9 3.48a38.6 38.6 0 0 0-.1 7.21c.03.39-.03.91-.42.97-.11.02-.22-.02-.33-.05-2.45-.75-4.75-1.98-6.74-3.59"/><path d="M57.61 59.5c.58-.9.82-2.08 1.17-3.09s.76-2 1.22-2.97.92-1.95 1.45-2.89c.26-.47.54-.94.82-1.39.16-.25.32-.49.48-.74.2-.32.22-.14.02-.05l-1 .27c-.24.01-.35-.2-.08.06.15.15.35.27.52.4.48.37.97.74 1.45 1.1.63.48 1.31.92 1.86 1.51l-.49-.85c.08.29.11.26.07-.07.04-.34 0-.36-.13-.04-.1.14-.17.34-.24.5a8.7 8.7 0 0 0-.56 1.65c-.25 1.07-.35 2.19-.43 3.28s-.12 2.18-.11 3.28q0 .9.06 1.8c.01.27.03.55.05.82l.03.33c-.02.42.08.29.3-.41l.82-.48c.58.06.66.04.22-.07-.14-.04-.27-.09-.4-.14-.27-.09-.54-.19-.8-.3-.51-.2-1.01-.44-1.5-.7-1.03-.54-2.03-1.17-2.94-1.89-.79-.63-1.87-.77-2.64 0-.65.65-.79 2.01 0 2.64 1.28 1.02 2.62 1.93 4.09 2.66.7.35 1.41.65 2.14.94s1.59.67 2.41.55c2.3-.34 2-2.73 1.94-4.44-.06-1.75 0-3.5.19-5.24.07-.68.17-1.36.37-2.02.23-.78.74-1.43.89-2.24.37-1.99-1.24-3.1-2.62-4.15s-3.08-2.9-4.96-2.38c-1.55.43-2.37 2.43-3.05 3.73-.85 1.62-1.57 3.3-2.11 5.05s-1.23 3.81-.94 5.64c.2 1.23 1.9 1.21 2.47.32Zm42.96-10.16c1.54-2.66 3.66-4.99 6.18-6.77 3.53 2.9 7.21 5.99 8.83 10.26.17.44.31.91.21 1.37-.08.37-.31.69-.53.99-1.44 1.97-2.88 3.95-4.32 5.92-.55.75-1.33 1.59-2.22 1.34-.65-.18-1.01-.86-1.28-1.48-.76-1.7-1.53-3.39-2.29-5.09-.88-1.95-1.81-3.98-3.45-5.35"/><path d="M101.96 50.15c.75-1.19 1.6-2.27 2.58-3.28s2.03-1.81 3.19-2.61l-2.36-.31c2.21 1.88 4.52 3.76 6.31 6.07.45.58.85 1.2 1.21 1.84.3.52.76 1.23.86 1.85q.06.315.09 0-.105.18-.24.36c-.25.36-.51.7-.77 1.05-.53.73-1.07 1.45-1.59 2.18-.53.73-1.05 1.46-1.58 2.19-.16.22-.31.46-.49.68-.27.33-.84.57.06.41.35-.06.23.42.1-.1-.1-.38-.37-.79-.54-1.14l-1.08-2.37c-1.21-2.66-2.41-6.44-5.12-7.96-1.44-.81-3.59.94-2.45 2.45.85 1.12 1.73 2.1 2.38 3.36.72 1.38 1.31 2.84 1.95 4.26.59 1.32 1.05 2.83 1.93 3.99 1.03 1.36 2.79 1.79 4.31.95 1.35-.75 2.2-2.23 3.09-3.44 1.03-1.4 2.06-2.8 3.08-4.2 1.07-1.48 1.1-2.95.41-4.61a17.2 17.2 0 0 0-2.15-3.77c-1.98-2.64-4.45-4.76-7.02-6.8-.62-.49-1.63-.85-2.36-.31-2.69 2.01-4.97 4.69-6.58 7.64-.99 1.82 1.67 3.37 2.78 1.62M38.3 69.83c-3.24-2.17-6.54-4.27-9.77-6.48-.82-.56-1.8-.22-2.49.32-2.3 1.8-3.24 4.7-3.95 7.42-.75 2.86-1.25 5.83-1.15 8.79.09 2.82.63 5.67 1.82 8.24 1.2 2.61 3.18 4.78 5.42 6.55 9.81 7.75 22.45 8.79 34.49 8.47 6.86-.19 13.71.15 20.57-.05 2.49-.07 2.5-3.94 0-3.88-5.56.14-11.11-.26-16.67-.28-5.79-.01-11.53.37-17.3-.3-5.17-.6-10.47-1.92-15.05-4.46s-8.59-6.09-9.18-11.51c-.31-2.89.06-5.86.67-8.69.56-2.55 1.13-5.66 3.24-7.41l-2.49.32c3.31 2.1 6.65 4.09 10.17 5.78 1.91.92 3.44-1.66 1.66-2.85Zm60.12 31.72c6.3-.14 12.51.5 18.76 1.12 6.18.61 12.49.87 18.57-.64 10.02-2.48 18.32-10.14 21.78-19.84 2.32-6.51 2.53-13.99 2.29-20.82-.04-1.09-.93-2.17-2.11-2.11-7.31.38-14.39 2.27-20.93 5.56-2.44 1.23-.29 4.9 2.15 3.67a47.5 47.5 0 0 1 18.78-5.02l-2.11-2.11c.22 5.93.11 12.23-1.57 17.97-1.27 4.33-3.72 8.27-6.9 11.45-3.35 3.35-7.51 5.78-12.09 6.98-5.53 1.45-11.31 1.16-16.95.78-6.69-.45-13.46-1.38-20.12-.25-1.86.32-1.4 3.29.44 3.25Z"/><path d="M32.6 66.93c-.31-.4-.1-.98.11-1.43.83-1.77 1.66-3.53 2.49-5.3.97.93 1.9 1.9 2.79 2.9.13.14.26.3.31.49.05.21-.01.43-.07.64-.46 1.61-.66 3.29-.59 4.96-1.27-.31-2.49-.83-3.59-1.54"/><path d="M34 66.55c-.1-.26-.06.02-.05.09.03.15.08-.17-.02.05.11-.23.24-.46.36-.69.29-.54.6-1.09.87-1.64.54-1.08 1.07-2.17 1.62-3.25l-2.86.37c.59.6 1.16 1.21 1.74 1.82.27.29.53.57.79.87l.22.25a.96.96 0 0 1-.23-.68c.03-.23.02-.24-.03-.02-.02.08-.05.16-.07.24a16.7 16.7 0 0 0-.59 5.22c.79-.61 1.59-1.21 2.38-1.82-.61-.15-1.21-.34-1.79-.57.3.12 0 0-.13-.07l-.42-.21c-.28-.15-.55-.3-.82-.47-.82-.51-2.07-.2-2.53.66-.49.92-.21 1.97.66 2.53 1.23.79 2.61 1.39 4.02 1.75 1.15.3 2.42-.57 2.38-1.82-.03-.89.02-1.78.13-2.67-.02.18-.03.2 0 0l.06-.33c.04-.22.08-.44.13-.66.13-.56.36-1.14.36-1.71 0-1.28-.91-2.11-1.73-2.98-.64-.67-1.3-1.31-1.98-1.93-.77-.7-2.37-.77-2.86.37-.61 1.41-1.28 2.81-1.86 4.23s-1.44 3.08-.19 4.44c.42.45 1.23.56 1.75.23s.91-1.03.66-1.63Zm104.52-6.99c1.32-1.88 2.89-3.59 4.66-5.06.25-.2.54-.42.85-.35s.49.38.63.67c.89 1.84 1.59 3.78 2.08 5.77.09.36.16.77-.06 1.06-.17.23-.48.32-.76.39-1.97.54-3.84 1.42-5.52 2.58-.13-1.26-.22-2.53-.28-3.8"/><path d="M139.86 60.35c.93-1.23 2.2-2.58 3.44-3.68.32-.28.64-.57.98-.82q-.195.135.06-.03c-.39.17-.79.1-1.21-.21l-.12-.13c.05.08.09.16.13.25.11.23.21.47.31.7-.1-.24.11.29.11.28.18.45.34.9.5 1.35.32.87.59 1.76.82 2.66.01.05.09.5.13.53-.28-.18.44-1.05.72-1.05-.35 0-.84.24-1.17.35-1.8.6-3.52 1.43-5.08 2.5.93.53 1.86 1.07 2.79 1.6-.14-1.41-.13-2.89-.4-4.27-.17-.87-1.14-1.39-1.96-1.28-.93.13-1.46.86-1.55 1.76-.12 1.23.09 2.57.22 3.8.07.67.31 1.24.92 1.6.54.32 1.33.37 1.87 0 .72-.49 1.46-.94 2.24-1.32.19-.1.39-.19.59-.28.08-.04.17-.08.25-.11-.04.02-.21.09-.01 0 .43-.18.87-.33 1.31-.48 1.01-.32 2.11-.55 2.65-1.59.54-1.03.24-2.13-.05-3.19-.5-1.82-1.19-3.58-2.05-5.26-.56-1.09-1.64-1.88-2.91-1.55-.95.25-1.7 1.07-2.39 1.74a27.3 27.3 0 0 0-3.77 4.59c-.46.7-.14 1.71.55 2.12.79.46 1.61.11 2.12-.55ZM39.64 97.45c-6.57-.16-13.21 3.04-17.35 8.12-2.28 2.79-3.92 6.11-3.58 9.81.32 3.48 1.99 6.73 4.44 9.19 5.02 5.04 12.8 7.14 19.61 8.33 7.41 1.29 14.93 1.26 22.33-.02 3.75-.65 7.38-1.68 10.96-2.97 3.38-1.21 6.81-2.47 10.46-1.95 6.7.97 12.6 5.36 19.62 4.19 3.72-.62 6.93-2.84 10.71-3.37 3.65-.5 7.36-.14 11.02.11 6.91.48 13.98.84 20.44-2.14 6.85-3.16 11.11-10.66 10.21-18.17-.44-3.7-2.03-7.08-4.53-9.85-1.18-1.31-2.6-2.45-4.11-3.36-1.67-1-3.31-1.49-5.24-1.7-2.14-.23-3.1 3.27-1.12 4.13 2.42 1.06 4.82 2.28 6.66 4.22s3 4.29 3.34 6.85c.71 5.29-2.09 10.5-6.7 13.06-5.12 2.85-11.42 2.69-17.08 2.46-7.04-.29-13.86-.28-20.59 2.05-2.95 1.02-5.68 1.46-8.76.76-2.93-.67-5.71-1.84-8.58-2.7-3.06-.92-6.19-1.44-9.38-.99-3.52.5-6.76 1.97-10.11 3.09-12.62 4.21-27.07 4.14-39.46-.88-3.02-1.23-6.1-3.01-7.99-5.74-1.86-2.69-2.59-6.03-1.09-9.05 2.92-5.88 9.59-9.38 15.9-10.07 2.14-.23 2.25-3.37 0-3.42Z"/><path d="M27.43 124.08c1.26-6.36 6.25-10.59 11.69-13.6 2.85-1.57 5.85-2.83 8.85-4.07q2.325-.96 4.62-1.98c1.51-.67 3.38-1.27 4.54-2.49 1.02-1.07-.04-2.5-1.34-2.3-1.7.26-3.43 1.45-5.01 2.13-1.69.73-3.41 1.42-5.11 2.14-3.21 1.36-6.4 2.77-9.39 4.58-5.21 3.15-11.56 8.55-11.53 15.22 0 1.5 2.38 1.92 2.69.36Zm39.94-23.78c-3.57.89-6.01 4.35-6.3 7.92-.08.96.12 2.05-.43 2.89-.36.55-.95.91-1.52 1.21-1.5.8-3.21 1.19-4.75 1.92-3.29 1.57-6.01 4.32-7.69 7.54-.84 1.62-1.49 3.37-1.8 5.17-.31 1.77-.65 4.01.22 5.65.72 1.35 2.79.98 3.18-.42.44-1.55.08-3.31.43-4.92s.94-3.1 1.78-4.5c1.6-2.67 3.95-4.79 6.82-6.01 2.77-1.17 6.12-2.29 6.82-5.63.37-1.74-.05-3.46.83-5.1.79-1.47 2.02-2.42 3.49-3.15s.43-2.96-1.09-2.58Zm15.63.42c-2.4.38-4.28 2.86-4.94 5.06-.39 1.32-.3 2.62-.12 3.96s.3 2.44-.76 3.4c-.87.78-1.91 1.34-2.72 2.19-.91.96-1.56 2.09-2.04 3.32-1.13 2.87-1.12 6.31-.45 9.28.47 2.1 3.47 1.49 3.59-.49.16-2.57-.36-5.22.68-7.68.85-2.02 2.8-2.79 4.11-4.41 1.77-2.18.9-4.44.64-6.93s1.2-3.87 3.07-5.18c1.32-.93.49-2.77-1.07-2.53Zm7.2 7.99c4.54 2.01 4.57 7.79 5.86 11.89.74 2.36 1.85 4.7 3.79 6.32 1.85 1.54 4.11 2.39 6.5 2.54 4.81.29 9.04-2.89 10.52-7.4 1.69-5.16-1.2-9.88-4.67-13.5a33.6 33.6 0 0 0-6.92-5.53c-1.2-.72-2.48-1.29-3.7-1.98-.91-.51-1.97-1.13-2.34-2.16-.81-2.25-4.42-1.29-3.62 1 .74 2.1 2.3 3.46 4.2 4.53s3.96 2.1 5.8 3.44c1.95 1.42 3.73 3.13 5.26 4.99 1.34 1.63 2.6 3.62 2.62 5.8.05 3.87-3.1 7.08-6.98 6.92-4.67-.19-6.36-4.38-7.58-8.21-1.4-4.42-3.05-9.24-7.69-11.14-1.43-.58-2.48 1.88-1.06 2.51Zm24.65-7.18c4.53 2.03 8.01 5.39 10.81 9.45 2.94 4.27 6.12 9.33 6.71 14.57.12 1.04.81 1.94 1.94 1.94.95 0 2.07-.89 1.94-1.94-.06-.54-.15-1.06-.28-1.58-.4-1.66-2.89-1.62-3.31 0-.09.36-.18.7-.23 1.07 1.27.17 2.55.34 3.82.52-.73-6.1-3.99-11.68-7.55-16.58-3.21-4.41-7.31-8.62-12.75-10.07-1.52-.4-2.64 1.94-1.11 2.63Zm20.37.67c1.29 1.34 2.93 2.23 4.45 3.27 1.71 1.17 2.57 2.7 3.6 4.44 1.1 1.86 2.21 3.71 3.16 5.65.44.9.85 1.82 1.2 2.76.18.47.28 1.05.5 1.5.03.07.01.37.1.22.03-.05.04-.07-.06-.05-1.76.3-1.68 3.12 0 3.48 1.44.31 2.78-.29 3.46-1.61.66-1.29.36-2.74-.12-4.03-.97-2.64-2.35-5.1-3.83-7.49-1.33-2.12-2.69-4.54-4.64-6.15-1.82-1.51-4.17-2.27-5.83-3.97-1.27-1.31-3.26.69-2 2Z"/><path d="M21.42 118.1c-4.53 1.11-9.98 3.2-10.48 7.84-1.34 12.58 18.68 15.91 27.36 17.43 31.74 5.54 65.79 5.97 97.6.55 10.39-1.77 20.64-5.29 29.16-11.51 1.78-1.3 3.6-2.91 3.98-5.08.41-2.38-1.1-4.76-3.12-6.1-2.01-1.34-4.45-1.84-6.81-2.32-1.36-.28-2.84-.54-4.09.07-.83.4-1.44 1.14-2.06 1.82-4.07 4.49-9.71 7.53-15.7 8.47-6.9 1.08-14-.55-20.92.39-3.89.53-7.64 1.86-11.51 2.51-5.52.93-11.27.46-16.56-1.36-1.53-.53-3.04-1.17-4.64-1.39-3.61-.5-7.12 1.16-10.57 2.33-15.95 5.41-33.41.59-49.36-4.85-2.55-.87-3.94-4.01-4.1-6.7"/><path d="M21 116.56c-4.53.94-10.02 2.81-11.63 7.65-1.24 3.73.16 7.96 2.6 10.85s5.93 4.72 9.37 6.13c3.6 1.48 7.39 2.44 11.2 3.23 24.35 5.02 49.66 6.48 74.45 4.97 6.66-.4 13.31-1.05 19.92-1.93s12.72-1.78 18.89-3.55c5.99-1.71 11.85-4.14 17.14-7.44 2.42-1.51 5.03-3.15 6.76-5.46 1.84-2.46 2.04-5.54.58-8.23-1.5-2.77-4.33-4.35-7.25-5.22-2.78-.83-6.39-1.89-9.13-.51-1.31.66-2.2 1.88-3.21 2.9s-2.18 2.04-3.41 2.89c-2.29 1.58-4.78 2.8-7.46 3.57-6.43 1.84-13.12.55-19.68.72-3.38.09-6.65.7-9.92 1.52-3.12.78-6.21 1.57-9.44 1.71s-6.56-.19-9.74-1.05c-3.07-.83-5.95-2.34-9.2-2.22-3.29.13-6.3 1.46-9.37 2.5-3.1 1.05-6.32 1.75-9.58 2.06-12.92 1.22-26.07-2.48-38.17-6.69-1.95-.68-2.8-2.82-2.95-4.76-.22-2.76-4.55-2.78-4.33 0 .2 2.56 1.02 5.16 2.86 7.03 1.95 1.98 5.09 2.55 7.64 3.4 6.03 2.01 12.19 3.7 18.47 4.72s12.57 1.37 18.86.51c3.16-.43 6.24-1.17 9.25-2.24 2.77-.98 5.79-2.4 8.81-1.98 1.35.19 2.65.74 3.93 1.19 1.57.55 3.16 1 4.79 1.33 3.09.61 6.26.86 9.4.66 6.44-.42 12.45-3.06 18.92-3.2s12.9.94 19.27-.52c5.48-1.26 10.63-4.19 14.49-8.27.71-.75 1.37-1.87 2.48-1.99 1.4-.15 3.08.42 4.42.76 2.28.58 5.22 1.67 5.8 4.27.52 2.33-1.94 4-3.58 5.16a56 56 0 0 1-7.62 4.5c-11.01 5.42-23.43 7.09-35.5 8.41-25.64 2.8-51.67 2.04-77.15-1.93-7.32-1.14-15.08-2.18-21.86-5.29-2.92-1.34-5.88-3.15-7.41-5.94-.66-1.21-.96-2.6-.92-4.06.06-2.02 1.26-3.49 2.92-4.55 1.87-1.2 4-1.92 6.12-2.54 1.99-.58 1.16-3.51-.85-3.09Z"/></svg>