<?xml version="1.0" encoding="UTF-8"?><svg xmlns="http://www.w3.org/2000/svg" viewBox="0 0 180 180"><path d="M144.33 75.29c-17.13-.84-34.35-.43-51.5-.31-17.17.12-34.33.29-51.5.45-9.67.09-19.33.18-29 .29-1.4.02-2.38 1.12-2.47 2.47-.27 4.14-.44 8.28-.48 12.42-.02 2.11 0 4.23.04 6.34.04 1.87-.07 3.91.62 5.68 1.32 3.4 5.09 3.96 7.73 5.96 2.32 1.76 4.1 4.25 4.7 7.12.52 2.5-.17 5.37-1.79 7.36-2.06 2.52-5.3 2.49-7.95 4.05-6.3 3.72-5.14 12.62-5.07 18.79.02 2.16.05 4.33.07 6.49.02 1.69-.05 3.43.36 5.09s1.41 3.16 3 3.87c1.79.8 3.87.51 5.77.45 8.49-.24 16.98-.43 25.47-.64 16.98-.42 33.96-.9 50.94-1.36l50.94-1.38c2.16-.06 4.33-.13 6.49-.2 1.04-.03 2.17-.74 2.4-1.83a69 69 0 0 0 .55-25.86c-.14-.83-.94-1.45-1.69-1.69-6.7-2.14-14.68-7.6-12.51-15.63.4-1.49 1.13-2.85 2.26-3.89 1.19-1.11 2.73-1.41 4.35-1.72 1.94-.37 3.9-.86 5.36-2.27 1.92-1.85 1.97-4.54 2.06-7.03.23-6.37.06-12.71-.49-19.07-.24-2.82-4.6-2.89-4.45 0 .31 5.93.38 11.89.2 17.83-.05 1.61.44 4.51-1.37 5.29-1.81.79-3.91.71-5.75 1.46-3.8 1.56-6.31 5.21-7.04 9.19-.81 4.41.33 8.66 3.07 12.18 3.24 4.17 8.07 6.73 13.02 8.32l-1.69-1.69c1.28 7.72 1.03 15.63-.68 23.26l2.4-1.83c-33.3.74-66.59 1.8-99.88 2.76-8.32.24-16.65.5-24.97.75-3.96.12-7.93.29-11.89.34-1.11.01-1.22-.32-1.37-1.41-.26-1.89-.09-3.9-.11-5.8-.04-3.86-.21-7.74-.07-11.6.09-2.32.36-5.31 2.4-6.8 1.21-.89 2.83-1.1 4.21-1.61 1.62-.6 3.07-1.43 4.34-2.63 2.31-2.19 3.63-5.25 4-8.38.42-3.54-.67-7.18-2.73-10.07-2.21-3.09-5.08-5.01-8.42-6.68-.51-.26-1.2-.53-1.53-1.03-.43-.68-.32-1.69-.34-2.45-.06-2.27-.08-4.55-.07-6.83.03-4.55.2-9.1.52-13.64l-2.47 2.47c17.17-.16 34.33-.39 51.5-.59s34.33-.44 51.5-.75c9.67-.18 19.35-.36 29-1.04 1.92-.14 1.94-2.9 0-3Z"/><path d="M40.66 79.35v.18c.36-.47.72-.94 1.08-1.42h-.04c-.74.14-1.17.91-1.21 1.6-.09 1.54-.05 3.07 0 4.61.02.75.05 1.51.07 2.26.03.92-.1 2.08.42 2.88.69 1.06 2.38 1.21 3.04 0 .48-.9.3-1.9.26-2.88-.04-.78-.08-1.57-.11-2.35-.08-1.66-.19-3.31-.43-4.96-.07-.49-.65-1.08-1.15-1.15h-.05c.36.46.72.94 1.08 1.41l-.02-.18c-.06-.76-.63-1.5-1.46-1.46s-1.46.64-1.46 1.46Zm0 17.27v.18c.36-.47.72-.94 1.08-1.42h-.04c-.74.14-1.17.91-1.21 1.6-.09 1.54-.05 3.07 0 4.61.02.75.05 1.51.07 2.26.03.92-.1 2.08.42 2.88.69 1.06 2.38 1.21 3.04 0 .48-.9.3-1.9.26-2.88-.04-.78-.08-1.57-.11-2.35-.08-1.66-.19-3.31-.43-4.96-.07-.49-.65-1.08-1.15-1.15h-.05c.36.46.72.94 1.08 1.41l-.02-.18c-.06-.76-.63-1.5-1.46-1.46s-1.46.64-1.46 1.46Zm0 17.26v.18c.36-.47.72-.94 1.08-1.42h-.04c-.74.14-1.17.91-1.21 1.6-.09 1.54-.05 3.07 0 4.61.02.75.05 1.51.07 2.26.03.92-.1 2.08.42 2.88.69 1.06 2.38 1.21 3.04 0 .48-.9.3-1.9.26-2.88-.04-.78-.08-1.57-.11-2.35-.08-1.66-.19-3.31-.43-4.96-.07-.49-.65-1.08-1.15-1.15h-.05c.36.46.72.94 1.08 1.41l-.02-.18c-.06-.76-.63-1.5-1.46-1.46s-1.46.64-1.46 1.46Zm0 17.26v.18c.36-.47.72-.94 1.08-1.42h-.04c-.74.14-1.17.91-1.21 1.6-.09 1.54-.05 3.07 0 4.61.02.75.05 1.51.07 2.26.03.92-.1 2.08.42 2.88.69 1.06 2.38 1.21 3.04 0 .48-.9.3-1.9.26-2.88-.04-.78-.08-1.57-.11-2.35-.08-1.66-.19-3.31-.43-4.96-.07-.49-.65-1.08-1.15-1.15h-.05c.36.46.72.94 1.08 1.41l-.02-.18c-.06-.76-.63-1.5-1.46-1.46s-1.46.64-1.46 1.46Zm0 17.27v.18c.36-.47.72-.94 1.08-1.42h-.04c-.74.14-1.17.91-1.21 1.6-.09 1.54-.05 3.07 0 4.61.02.75.05 1.51.07 2.26.03.92-.1 2.08.42 2.88.69 1.06 2.38 1.21 3.04 0 .48-.9.3-1.9.26-2.88-.04-.78-.08-1.57-.11-2.35-.08-1.66-.19-3.31-.43-4.96-.07-.49-.65-1.08-1.15-1.15h-.05c.36.46.72.94 1.08 1.41l-.02-.18c-.06-.76-.63-1.5-1.46-1.46s-1.46.64-1.46 1.46Zm29.22-18.28c-1.24-1.54-2.52-3.05-3.81-4.54-.64-.75-1.28-1.5-1.93-2.24-.51-.59-1.35-1.28-1.58-2.06-.26-.89.66-1.53 1.38-1.85 1.46-.65 3.07-.25 4.57.02 1.58.29 3.18.57 4.79.38 1.9-.23 3.61-.99 5.25-1.93 3.39-1.95 6.71-4.05 10.06-6.07 3.42-2.06 6.82-4.14 10.23-6.22 2.97-1.81 5.97-3.72 9.39-4.54 2.6-.62 5.54-.42 7.79 1.14.5.35.99.79 1.35 1.28.13.17.43.53.45.73h.13c-.1.13-.21.25-.35.35-.97 1.08-2.42 1.93-3.6 2.76-6.23 4.43-12.98 8.07-19.23 12.47-2.08 1.46-.1 4.92 2.01 3.44 6.37-4.47 13.24-8.17 19.54-12.74 1.45-1.05 3.05-2.1 4.3-3.39 1.48-1.52 1.41-3.57.32-5.3-1.89-2.99-5.22-4.53-8.64-4.9-3.87-.43-7.67.96-11.04 2.74-3.92 2.07-7.66 4.54-11.45 6.84-3.91 2.37-7.8 4.77-11.7 7.16-1.63 1-3.38 2.24-5.32 2.5s-4-.49-5.94-.73c-3.56-.43-8.53 1.62-8.04 5.95.25 2.18 2.04 3.74 3.46 5.24 1.81 1.91 3.6 3.82 5.47 5.67 1.42 1.39 3.32-.65 2.13-2.13Z"/><path d="M109.04 105.65c1.26-.49 2.53-.99 3.74-1.58s2.52-1.18 3.56-2.04c.61-.5.56-1.51.12-2.08-.2-.26-.49-.49-.82-.57-.44-.1-.81-.02-1.22.16-.56.24-1.08.62-1.59.94s-1.06.64-1.59.95c-1.06.62-2.11 1.28-3.18 1.87-.56.31-.77 1.03-.52 1.6.23.54.91.97 1.51.74Zm-13.86-.13c-6.69-1.93-17.18-4.39-23.87-6.31-.47-.13-.95-.27-1.43-.21-.53.06-1.01.36-1.46.64-1 .63-2 1.26-3 1.88 5.57 3.43 11.14 6.86 16.71 10.28.22.14.46.28.72.26.22-.02.41-.15.59-.27 3.1-2.15 6.2-4.3 9.3-6.46"/><path d="M95.6 104.02c-5.14-1.66-10.35-3.11-15.55-4.55q-3.69-1.02-7.38-2.07c-1.4-.4-2.69-.75-4.1-.21-1.49.57-2.86 1.66-4.2 2.51s-1.38 2.8 0 3.65l14.85 9.09c1.09.67 2.3 1.69 3.64 1.69s2.61-1.24 3.64-1.97c2.4-1.72 4.81-3.44 7.21-5.16 1.97-1.41.13-4.7-1.93-3.31l-4.89 3.3c-.82.55-1.63 1.1-2.45 1.65-.6.41-1.45 1.24-2.13 1.45h1.09c-.65-.12-1.34-.74-1.89-1.08-.7-.43-1.39-.86-2.09-1.29-1.46-.9-2.92-1.81-4.38-2.71-2.85-1.76-5.7-3.53-8.55-5.29v3.65c.63-.39 1.25-.78 1.88-1.17.46-.29 1.15-.93 1.69-1.04.76-.15 2.06.5 2.81.7 2.41.65 4.85 1.22 7.28 1.79 4.87 1.15 9.77 2.17 14.62 3.4 1.95.49 2.73-2.39.83-3Zm-7.55 18.63c4.14-3.89 9-7.01 14.26-9.16l-2.61 24.73c-.06.52-.12 1.06-.37 1.52-.27.48-.72.81-1.17 1.13a47.4 47.4 0 0 1-6.84 4.03c-1.41-7.37-2.28-14.84-2.59-22.34"/><path d="M89.15 123.74c4.05-3.54 8.6-6.58 13.67-8.43l-2.32-2.32c-.88 5.99-1.42 12.04-2.03 18.06-.15 1.48-.29 2.97-.44 4.45-.1 1.06.1 2.84-.7 3.61-.9.86-2.21 1.51-3.28 2.15-1.2.72-2.45 1.34-3.69 2 .93.38 1.87.76 2.8 1.14-1-3.48-1.37-7.27-1.78-10.86-.42-3.65-.7-7.31-.87-10.97-.1-2.28-3.66-2.3-3.56 0 .16 3.75.44 7.49.87 11.22.43 3.71 1.24 7.41 1.59 11.12.15 1.53 1.49 2.26 2.87 1.65 2.62-1.16 5.36-2.72 7.57-4.55 1.22-1.02 1.61-2.23 1.8-3.77.2-1.65.38-3.3.56-4.95.75-6.58 1.55-13.18 1.98-19.79.1-1.55-1.64-2.18-2.84-1.63-5.3 2.44-10.25 5.57-14.4 9.69-1.43 1.42.7 3.49 2.19 2.19Z"/><path d="M80.22 131.12c2.73-2.49 5.82-4.33 9.04-6.12 1.61-.9 3.24-1.76 4.85-2.65.78-.44 1.56-.88 2.32-1.34.96-.59 2.1-1.14 2.39-2.31.19-.79-.25-1.88-1.15-2.03-1.25-.2-2.01.37-3.03.99-.81.49-1.62.97-2.44 1.44-1.69.96-3.4 1.88-5.08 2.84-3.29 1.88-6.6 4.11-9.1 6.99-1.31 1.51.71 3.56 2.2 2.2Zm56.32-55.77a6457 6457 0 0 1-69.68-54.87c-6.2 4.05-11.96 8.77-17.17 14.04 2.83 5.19 8.14 9.64 7.83 15.54-.26 5-4.91 8.97-9.84 9.82s-9.98-.78-14.44-3.05c-.75-.38-1.53-.79-2.38-.78-1.18.02-2.17.84-3.06 1.62L16.01 68.11c-.47.42-.99.95-.92 1.58.05.48.44.85.81 1.17 1.83 1.62 3.65 3.24 5.48 4.85.53.47 1.08.95 1.73 1.24.95.43 2.03.41 3.06.39 36.37-.81 72.79-5.39 109.04-2.2"/><path d="M137.71 74.18c-4.48-3.62-8.85-7.38-13.33-11.01-4.49-3.63-9-7.23-13.5-10.84-8.95-7.18-17.99-14.25-26.98-21.39-5.11-4.06-10.21-8.12-15.31-12.19-.82-.65-1.99-1.02-2.95-.38-6.37 4.18-12.3 9.01-17.66 14.42-.77.78-.91 2-.38 2.95 1.32 2.37 3.03 4.49 4.57 6.72 1.3 1.88 2.67 3.98 2.91 6.32.48 4.69-3.99 8.19-8.26 8.78-3 .42-6.05-.27-8.85-1.3-2.82-1.03-5.74-3.46-8.86-2.31-1.46.54-2.6 1.63-3.75 2.65-1.35 1.2-2.7 2.39-4.05 3.59-1.23 1.09-2.46 2.17-3.68 3.26s-2.73 2.22-3.85 3.51c-1.14 1.31-1.46 3.09-.47 4.6.92 1.41 2.57 2.5 3.82 3.6s2.4 2.23 3.7 3.2c1.48 1.1 3.1 1.41 4.91 1.41 6.97 0 13.98-.45 20.94-.8 13.91-.7 27.81-1.64 41.72-2.16 15.61-.59 31.25-.64 46.82.71 1.28.11 2.38-1.17 2.38-2.38 0-1.38-1.09-2.26-2.38-2.38-27.27-2.37-54.62-.4-81.88 1.06-6.83.37-13.66.7-20.5.93-1.56.05-3.13.1-4.69.14-1.4.04-3.35.43-4.56-.44-1.22-.88-2.3-2.03-3.43-3.03l-1.83-1.62c-.23-.2-.58-.66-.87-.77-.39-.41-.4-.06-.04 1.06.21-.2.43-.4.65-.59 2.52-2.23 5.05-4.44 7.57-6.67 1.23-1.09 2.45-2.18 3.68-3.26.37-.32.84-.88 1.34-1.01s.9.17 1.32.38c5.44 2.74 11.97 4.82 18.02 2.87 5.49-1.77 10.29-6.76 9.93-12.84-.38-6.24-5.28-10.52-8.16-15.68-.13.98-.25 1.97-.38 2.95 5.08-5.12 10.65-9.7 16.67-13.66l-2.95-.38c18.09 14.45 36.16 28.94 54.66 42.87 5.26 3.96 10.63 7.77 15.91 11.71 1.49 1.11 3.47-1.42 2.01-2.6Zm15.73 17.42c5.52 3.69 11.04 7.39 16.56 11.08-5.3 6.5-10.6 13-15.9 19.49-.25.31-.52.63-.9.77-.43.16-.91.03-1.36-.08-3.32-.8-6.89-.52-10.05.77-2.15-2.49-2.98-6.08-2.13-9.26s3.35-5.88 6.46-6.97c1.91-.67 3.99-.76 5.86-1.53.62-.25 1.24-.6 1.58-1.18.25-.42.33-.93.4-1.42.39-2.91.51-5.84.38-8.77"/><path d="M152.33 92.71c5.21 4.31 11.07 7.91 16.59 11.8l-.43-3.34c-4.2 4.95-8.27 10-12.39 15.02-.99 1.21-1.98 2.42-2.97 3.62-.11.13-.72.71-.76.92-.27.25-.14.27.4.04l-.34-.08c-.58-.32-1.7-.32-2.35-.4-3-.36-6.09.06-8.9 1.17.73.19 1.46.39 2.2.58-3.55-4.28-1.59-11.01 3.72-12.68 2.86-.89 6.96-.8 8.48-3.91.73-1.49.71-3.47.83-5.1.14-1.95.18-3.91-.06-5.86-.31-2.53-3.95-2.68-4.06 0-.08 2.03-.07 4.07-.23 6.1-.06.8-.02 1.89-.3 2.65-.19.52-.42.55-.98.75-1.7.61-3.54.7-5.25 1.3q-2.28.81-4.11 2.37c-5.27 4.5-5.56 12.34-1.23 17.55.46.56 1.52.85 2.2.58 2.88-1.14 5.83-1.42 8.86-.78 1.59.34 2.98.25 4.19-.96 1.18-1.19 2.16-2.65 3.21-3.95 4.3-5.3 8.65-10.56 12.86-15.94.86-1.09.83-2.54-.43-3.34-2.8-1.78-5.6-3.55-8.38-5.36-2.78-1.8-5.53-3.68-8.45-5.24-1.5-.79-3.34 1.28-1.9 2.47Z"/></svg>