<?xml version="1.0" encoding="UTF-8"?><svg xmlns="http://www.w3.org/2000/svg" viewBox="0 0 180 180"><path d="M67.81 58.72c-9.77 7.67-19.13 15.82-28.22 24.29-4.53 4.23-9.01 8.51-13.44 12.85q-3.315 3.255-6.57 6.57c-2.05 2.08-4.17 4.12-5.95 6.44-1.67 2.19-2.89 4.73-2.95 7.53-.05 2.64 1.01 5.14 2.66 7.16 3.51 4.31 9.57 5.38 14.7 3.69 5.62-1.85 9.5-6.49 13.42-10.67 4.28-4.56 8.5-9.16 12.68-13.8a906 906 0 0 0 27.25-31.71c.21-.25.91-1.18 1.04-1.18-.5 0 .68.49.29.29.32.16.74.27 1.08.37 2.4.75 4.98 1.07 7.5.99 5.13-.17 10.18-1.88 14.51-4.61 9.25-5.85 14.51-16.01 17.54-26.22 1.54-5.19 3.04-10.83 1.99-16.25s-4.99-8.99-9.94-10.6c-5.3-1.72-10.99-.66-16.05 1.32a98.7 98.7 0 0 0-15.25 7.54c-8.92 5.43-17.49 14.34-16.91 25.57.13 2.56.75 4.98 1.81 7.32.88 1.95 4.18.56 3.47-1.46-3.21-9.18 2.53-18.65 9.6-24.18 3.95-3.09 8.49-5.42 12.99-7.59 4.59-2.22 9.53-4.61 14.75-4.57 3.85.03 8.03 1.59 9.95 5.13 2.24 4.13.85 9.43-.26 13.68-2.39 9.21-6.39 18.93-14.21 24.87-3.5 2.66-7.74 4.59-12.12 5.14-2.14.27-4.35.22-6.46-.24-1.08-.24-2.08-.65-3.13-.96-1.65-.48-3.21-.1-4.48 1.05-.93.84-1.67 1.92-2.46 2.89-.97 1.17-1.94 2.35-2.91 3.52-1.84 2.22-3.7 4.43-5.57 6.62-3.73 4.4-7.51 8.76-11.32 13.09-7.55 8.56-15.12 17.2-23.18 25.28-3.3 3.31-7.72 6.31-12.63 5.01-3.78-1-6.47-4.93-4.87-8.73.9-2.14 2.66-3.86 4.25-5.5 2.05-2.11 4.11-4.21 6.18-6.29 4.03-4.06 8.06-8.12 12.16-12.11 8.19-7.98 16.54-15.8 24.93-23.56 2.1-1.94 4.16-3.9 6.25-5.85 1.45-1.35-.64-3.28-2.12-2.12Zm46.8 36.51c-3.65-4.59-3.47-11.33-1.08-16.68 2.38-5.35 6.61-9.63 10.74-13.79 4.66-4.68 9.31-9.36 13.97-14.04 1.45-1.46 4.04-2.87 5.24-1.2.49.68.44 1.61.27 2.43-.64 3.22-2.63 5.99-4.56 8.65-3.15 4.33-6.3 8.66-9.46 12.98 1.75 1.28 3.51 2.55 5.26 3.83.43.31.92.65 1.45.58.5-.06.88-.45 1.22-.81 4.45-4.76 9.08-9.34 13.88-13.74.84-.77 1.72-1.55 2.82-1.84s2.46.11 2.89 1.16c.41.99-.13 2.09-.66 3.01a93.7 93.7 0 0 1-14.22 18.69c1.68 2.12 3.37 4.24 5.05 6.36a88.3 88.3 0 0 1 18.16-13.91c1.82.47 1.36 3.19.4 4.8-3.46 5.79-8.18 10.7-12.86 15.55-3.5 3.63-7.21 7.39-12.02 8.9-4.1 1.29-8.55.78-12.73-.23-1.62-.4-3.33-.87-4.93-.41-1.46.41-2.61 1.53-3.68 2.62-17.01 17.33-31.75 36.88-49.87 53.05-1.98 1.77-4.31 3.6-6.96 3.41-3.77-.28-6.04-4.78-5.39-8.5s3.3-6.74 5.87-9.52a589 589 0 0 1 53.27-50.95"/><path d="M115.99 94.42c-2.77-4-2.79-9.08-1.25-13.55 1.68-4.88 5.34-8.87 8.89-12.48 4.3-4.36 8.68-8.64 13.02-12.95 1.05-1.05 2.09-2.12 3.16-3.14.33-.32.65-.59 1.03-.83.03-.02 1.18-.59 1.16-.48.02-.15-.97 1.53-.3-.14.16-.41-.18.1-.06.01-.1.08-.31 1.6-.35 1.74-.39 1.25-1.01 2.4-1.7 3.51-1.69 2.74-3.72 5.3-5.61 7.9l-6.15 8.46c-.75 1.03-.09 2.37.79 3.01 1.69 1.23 3.38 2.47 5.08 3.69 1.82 1.3 3.76 1.29 5.39-.31 3.05-2.99 5.91-6.17 8.99-9.14 1.48-1.43 2.99-2.85 4.51-4.25.58-.53 1.16-1.17 1.87-1.54.19-.1.34-.16.54-.22.66-.19.22.27.23-.12 0 .2-.61 1.21-.86 1.63-.53.89-1.07 1.78-1.62 2.65a91 91 0 0 1-3.24 4.78c-2.63 3.63-5.55 7.03-8.68 10.22-.91.93-.76 2.19 0 3.15 1.68 2.12 3.37 4.24 5.06 6.35.75.94 2.36.77 3.14 0a86 86 0 0 1 17.71-13.57l-1.71.22c-.6-.21-.29-.74-.4.13-.06.5-.28.98-.53 1.42-.95 1.68-2.11 3.28-3.29 4.81-2.36 3.05-5.01 5.87-7.68 8.65-2.45 2.56-4.88 5.29-7.76 7.38-3.04 2.2-6.34 3.33-10.11 3.25-1.97-.04-3.9-.37-5.81-.81-2.1-.49-4.2-1.07-6.35-.57-1.76.41-3.22 1.59-4.49 2.83-1.38 1.36-2.71 2.77-4.05 4.17-5.45 5.72-10.68 11.64-15.9 17.56-5.23 5.91-10.45 11.83-15.87 17.57-2.71 2.86-5.46 5.68-8.29 8.42a206 206 0 0 1-4.3 4.06c-1.31 1.2-2.6 2.5-4.11 3.46-1.08.68-2.44 1.32-3.72.82-.98-.39-1.7-1.32-2.13-2.26-1.26-2.78-.02-5.66 1.59-8 2.16-3.14 5.05-5.85 7.66-8.62 2.79-2.96 5.62-5.9 8.47-8.8 11.43-11.62 23.39-22.65 35.64-33.4 1.53-1.34 3.07-2.68 4.61-4 .86-.74.76-2.22 0-2.98-.87-.87-2.1-.73-2.98 0-14.83 12.29-28.9 25.51-42.33 39.31-3.39 3.48-6.72 7-10.03 10.56-2.89 3.1-6.02 6.34-7.19 10.53-.97 3.49-.15 7.57 2.5 10.15 3.19 3.11 7.65 2.47 11.02 0 3.72-2.71 7.01-6.16 10.28-9.39 3.29-3.25 6.48-6.6 9.62-9.99 6.34-6.86 12.45-13.92 18.68-20.88 3.09-3.45 6.2-6.88 9.37-10.26 1.58-1.68 3.14-3.37 4.79-4.98.58-.57 1.19-1.15 1.96-1.45 1.03-.4 2.23-.05 3.25.19 4.63 1.1 9.48 1.85 14.15.53 4.23-1.2 7.74-3.96 10.84-6.97s6.28-6.36 9.2-9.73c1.54-1.78 3.02-3.63 4.39-5.55 1.16-1.62 2.45-3.34 3.03-5.27.51-1.69.5-3.82-.82-5.16-.72-.72-1.87-1.29-2.91-1.01-1.1.3-2.21 1.22-3.17 1.82-3.9 2.44-7.6 5.2-11.1 8.18-1.68 1.43-3.3 2.93-4.87 4.48h3.14c-1.68-2.12-3.36-4.24-5.05-6.36v3.15c3.08-3.16 5.94-6.52 8.58-10.06 1.28-1.72 2.51-3.49 3.67-5.29s2.64-3.74 3.22-5.8-.31-4.28-2.36-5.16c-1.85-.79-3.88-.32-5.47.83-1.84 1.33-3.45 3.02-5.09 4.58s-3.31 3.2-4.94 4.83c-.95.96-1.9 1.92-2.83 2.9l-1.32 1.38c-.38.4-1.09.9-1.31 1.39l-.13.14c-.29.25-.14.25.45-.01 0-.04-.65-.46-.71-.51-.5-.36-1-.73-1.5-1.09-1.13-.82-2.25-1.64-3.38-2.46l.79 3.01 6.31-8.65c1.97-2.7 4.12-5.36 5.82-8.25 1.44-2.46 3.28-6.28 1.82-9.09s-5.12-2.4-7.42-.79c-1.34.94-2.44 2.19-3.58 3.35l-3.82 3.88c-2.55 2.59-5.1 5.17-7.64 7.77-4.4 4.49-8.95 9.12-11.46 14.99s-2.58 13.31 1.82 18.47c1.17 1.37 3.55-.44 2.52-1.94Z"/></svg>