<?xml version="1.0" encoding="UTF-8"?><svg xmlns="http://www.w3.org/2000/svg" viewBox="0 0 180 180"><path d="M88.87 128.36c-5.43-6.42-22.52-13.58-25.96-19.52-1.71-2.95-2.19-6.45-2.24-9.85-.22-15.82 12-29.6 25.98-36.99 13.99-7.4 13.04 12.72 32.84 14.2-1.7-.13-5.07 1.78-6.79 2.44-8.56 3.28-16.01 9.25-20.19 17.5-5.02 9.9-4.45 21.47-3.64 32.22"/><path d="M90.05 127.18c-2.63-3.16-6.29-5.4-9.61-7.75-3.67-2.59-7.59-4.81-11.23-7.46-1.38-1-2.7-2.1-3.84-3.38-.33-.38-.15-.11-.4-.53s-.49-.82-.69-1.26c-.61-1.29-.96-2.73-1.19-4.14-.81-5.15.06-10.48 1.95-15.29 3.68-9.39 11.55-16.96 20.08-22.04 1.76-1.05 3.41-2.05 5.27-2.55.33-.09.67-.16 1.01-.22-.45.08.41-.03.56-.03.3 0 .59 0 .89.03.41.03.01 0-.06-.01.22.04.44.08.66.14.24.06.48.14.71.23.32.11-.47-.23.02 0 .13.06.25.12.37.18.53.28 1.03.61 1.51.97-.4-.3.29.25.39.34.23.2.46.41.68.62.52.49 1.02 1 1.51 1.52 2.45 2.59 4.8 5.19 7.71 7.28 3.87 2.78 8.41 4.16 13.13 4.55V74c-1.95-.05-3.86.92-5.59 1.71-1.8.82-3.61 1.5-5.46 2.38-3.98 1.9-7.69 4.45-10.85 7.52-7.13 6.92-10.53 16.11-11.27 25.89-.43 5.63 0 11.27.67 16.86.12 1.01.78 1.88 1.88 1.88 1 0 1.91-.86 1.88-1.88-.28-9.22-.93-18.79 2.2-27.64 2.75-7.79 8.66-13.97 15.85-17.87 1.9-1.03 3.89-1.79 5.86-2.67 1.47-.65 3.39-1.82 4.83-1.78 2.85.07 2.78-4.16 0-4.38-4.04-.32-7.75-1.63-11.02-4-2.3-1.66-4.56-4.22-6.67-6.44-1.95-2.06-4.1-4.1-6.87-4.95-3.34-1.03-6.74.12-9.7 1.7-9.5 5.09-18.18 12.94-22.95 22.72-2.37 4.86-3.78 10.16-3.77 15.59 0 5.15 1.05 10.56 4.94 14.2 1.71 1.61 3.67 2.97 5.62 4.26 2.21 1.46 4.45 2.94 6.77 4.21 4.16 2.29 8.67 4.65 11.87 8.24 1.44 1.62 3.71-.73 2.35-2.35Z"/><path d="M84.08 123.76c1.18 1.22 1.81 2.7 2.51 4.23.7 1.54 1.18 3.17 1.63 4.79.92 3.34 1.81 6.7 3.34 9.83 2.77 5.65 7.14 10.47 12.43 13.86 10.54 6.76 24.3 7.83 36.06 3.87 13.21-4.45 23.56-15.08 28.76-27.88 5.13-12.65 4.47-27.24-3.14-38.75-7.26-10.98-19.68-18.94-33.18-18.02-1.95.13-3.88.44-5.76.95-2.39.65-1.39 4.25 1.02 3.71 12.07-2.73 24.89 3.4 32.28 12.9 3.66 4.7 6.21 10.28 7.28 16.14 1.1 6.07.39 12.45-1.45 18.31-3.76 11.98-12.78 22.56-24.44 27.43-10.32 4.32-22.75 4.24-32.72-1-4.97-2.62-9.24-6.45-12.17-11.26-3.35-5.49-4.05-12.14-7.41-17.61-.78-1.27-1.96-2.47-3.03-3.5-1.3-1.26-3.25.69-1.99 1.99Zm-33-27.45c-6.89-.47-14.04-1.53-20.4-4.36-3.06-1.37-5.97-3.14-8.33-5.54-2.12-2.15-3.84-4.71-5.29-7.36-5.83-10.67-6.49-23.94-2.03-35.21C19.52 32.47 29.61 24.5 41.58 22.4c11.43-2 23.59 1.24 32.76 8.25 4.55 3.48 8.25 7.97 10.71 13.15 3.63 7.63 2.8 16.39 4.35 24.5.42 2.2.98 4.36 1.72 6.48 1.02 2.94 5.64 1.74 4.72-1.3-1.37-4.51-2.12-9-2.54-13.69-.4-4.46-.77-8.98-2.01-13.3-1.9-6.62-5.98-12.61-11.07-17.21-9.46-8.55-22.92-12.99-35.61-11.82-6.37.59-12.66 2.49-18.08 5.94-5.72 3.64-10.46 8.83-13.62 14.83C6.64 50.16 6.3 64.84 11.54 77.2c2.65 6.26 6.73 12.1 12.5 15.82 6.38 4.11 14.21 5.99 21.71 6.46 1.77.11 3.54.15 5.32.11 2.13-.05 2.09-3.14 0-3.28Z"/><path d="M11.57 59.22c1.68-4.81 6.27-8.03 10.93-9.59 5.52-1.85 11.59-2.27 17.38-2.19 10.46.14 21.15 2.38 30.15 7.89 2.34 1.43 4.53 3.08 6.51 4.98 1.01.96 1.96 1.98 2.85 3.05a28 28 0 0 1 1.62 2.15c.2.29.41 1.03.6.56l.54-.93-.2.23.91-.53-.27.11h1.07l-.27-.07c-2.17-.53-3.46 2.43-1.52 3.61 1.5.91 3.47.13 3.94-1.58.48-1.74-.91-3.37-1.87-4.67-1.74-2.34-3.7-4.49-5.91-6.39-4.53-3.89-9.79-6.78-15.38-8.83-5.9-2.17-12.18-3.32-18.44-3.68-6.95-.4-14.35.08-21.05 2.06-6.53 1.92-12.68 6.12-14.47 13.03-.48 1.87 2.24 2.58 2.86.79Z"/><path d="M12.57 71.08c5.47-6.02 13.88-7.52 21.65-7.73 9.91-.27 19.76.62 29.09 4.19 2.37.91 4.67 1.99 6.9 3.21 1.19.65 2.36 1.34 3.5 2.07s2.2 1.62 3.42 2.18c1.9.89 3.76-1.31 2.27-2.94-1.63-1.79-4.13-3.08-6.22-4.28a61 61 0 0 0-6.81-3.35c-4.68-1.97-9.54-3.35-14.57-4.08-5.57-.81-11.22-.93-16.84-.66-4.31.21-8.69.66-12.85 1.88-4.7 1.38-8.88 3.78-11.89 7.69-1.03 1.34 1.21 3.05 2.34 1.81Zm4.2 10.25c8.32-2.54 16.9-3.85 25.61-3.45 4.28.2 8.51.77 12.68 1.76a72 72 0 0 1 6.3 1.82c.97.33 1.92.68 2.87 1.06.77.3 1.7.57 2.23 1.26 1.01 1.32 3.36 1.04 3.35-.91 0-2.02-1.63-3-3.3-3.7s-3.39-1.34-5.13-1.9a68.5 68.5 0 0 0-10.85-2.57 71.7 71.7 0 0 0-22.41.12c-4.18.68-8.28 1.82-12.21 3.41-1.86.75-1.17 3.71.85 3.09Zm10 11.65c5.97-2.12 12.35-2.16 18.61-2.17 2.81 0 5.66 0 8.44.4 1.41.2 2.82.52 4.17.99s2.68 1.5 4.18 1.61c1.32.1 2.1-1.52 1.48-2.57-.82-1.38-2.63-1.98-4.07-2.52s-2.86-.87-4.34-1.1c-3.14-.49-6.28-.52-9.44-.43-6.68.18-13.55.36-19.81 2.97-1.69.71-1.04 3.48.78 2.83Zm.03-47.52c2.81-9.2 13.11-13.65 22.11-12.46 10.76 1.42 19.33 9.1 25.66 17.43 3.74 4.92 7.64 10.25 9.62 16.14.71 2.1 3.9 1.26 3.34-.92-.77-3.02-2.34-5.82-3.98-8.45s-3.31-5.1-5.11-7.55c-3.57-4.88-7.56-9.44-12.39-13.11-8.97-6.82-21.32-10.12-31.77-4.68-5.02 2.61-9.05 7.27-10.57 12.75-.55 1.99 2.49 2.82 3.09.85"/><path d="M45.11 44.35c.13-.12.34-.38.51-.42l-.15.12.18-.12c.08-.05.15-.1.23-.14.09-.05.21-.09.29-.15.15-.11-.31.11-.04.01.21-.07.41-.14.62-.19.02 0 .32-.07.32-.06 0-.02-.41.04 0 0 .2-.02.4-.02.6-.01.09 0 .18.01.27.02.36.02-.32-.07 0 0 .21.05.43.09.64.15.1.03.21.07.31.11.28.09-.19-.12-.04-.01s.36.18.52.29l.18.12-.15-.12s.21.18.25.21c.08.07.16.15.23.23s.32.27.03.03c.16.13.28.4.41.56.19.25.38.52.62.74.7.64 1.72 1.09 2.61.53.63-.39 1.04-1.38.54-2.05-.21-.28-.36-.48-.67-.66-.14-.07-.29-.13-.43-.19q.285.12.12.03c-.1-.06-.07-.04.09.07-.06-.06-.12-.11-.17-.17-.23-.23.14.23-.06-.07-.32-.47-.64-.94-1.05-1.33-.8-.77-1.86-1.34-2.96-1.57-2.32-.47-4.89.19-6.3 2.18-.45.63-.16 1.56.4 2 .62.48 1.46.41 2.03-.12Zm44.22 61.66c2.27 4.57 5.92 8.36 9.81 11.59 4.21 3.5 8.74 6.68 13.33 9.68 9.2 6.02 19.27 10.64 29.87 13.55 6.04 1.66 12.31 2.77 18.56 3.2 2.67.19 2.89-3.64.6-4.44-.68-.24-1.41-.33-2.11-.51-2.12-.55-3.64 2.62-1.54 3.66.83.41 1.59.87 2.45 1.21l.6-4.44c-10.38-1.02-20.56-3.37-30.23-7.31s-18.85-9.71-27.26-16.05c-4.39-3.31-8.37-7.09-11.31-11.76-1.11-1.76-3.68-.22-2.77 1.62m3.28-9.09c3.54 4.41 8.59 7.73 13.33 10.72 4.78 3.02 9.81 5.63 14.98 7.91 10.53 4.65 21.67 8.09 32.89 10.64 3.47.79 6.99 1.42 10.53 1.72 1.48.13 3.23.28 3.87-1.41.6-1.57-.94-3.45-2.64-2.75-1.02.42-1.53 1.22-1.33 2.34l.02.1c.32 1.8 3.31 1.8 3.63 0l.02-.1c-.61.47-1.22.93-1.83 1.4h.13l-.97-.27.13.08-.9-1.17.02.14.51-1.92-.16.15.89-.52c-.78.23-2.58-.19-3.56-.31-1.34-.16-2.67-.38-4-.63-2.77-.51-5.51-1.16-8.23-1.85-4.88-1.23-9.72-2.59-14.5-4.16-9.38-3.06-18.54-6.86-27.04-11.89-4.85-2.87-9.95-6.06-13.71-10.32-1.28-1.45-3.25.64-2.09 2.09Zm6.11-8.01c16.46 9.28 34.6 15.67 53.13 19.31 2.61.51 5.23.98 7.87 1.35 2.7.39 5.77.81 8.38-.22s1.55-4.43-1.1-4.01c-4.47.71-8.93-.33-13.33-1.15-4.48-.84-8.93-1.83-13.34-2.98-8.83-2.31-17.49-5.13-25.91-8.64-4.77-1.98-9.5-4.05-14.15-6.31-1.75-.85-3.28 1.66-1.55 2.64Zm10.95-6.43c8.45 3.54 17.21 6.22 26.1 8.43 8.9 2.21 17.86 3.97 26.95 5.14 1.03.13 1.92-.98 1.92-1.92 0-1.14-.89-1.8-1.92-1.92-8.91-1.04-17.8-2.53-26.52-4.66-8.73-2.13-17.3-4.84-25.81-7.71-1.71-.58-2.3 1.98-.73 2.64Z"/><path d="M98.32 116.24c.32 9.45 2.71 19.53 9.35 26.6 6.67 7.1 17.02 10.1 26.45 7.67a27.6 27.6 0 0 0 7.45-3.14c2.21-1.34 4.93-3.1 5.95-5.57.52-1.28-1.12-2.1-2.11-1.62-.98.47-1.73 1.25-2.55 1.95s-1.66 1.3-2.56 1.87c-1.8 1.14-3.73 2.04-5.77 2.67-4.08 1.26-8.4 1.42-12.54.4-8.56-2.12-14.72-8.49-17.71-16.64-1.67-4.55-2.46-9.37-2.99-14.18-.2-1.84-3.02-1.94-2.95 0Z"/><path d="M111.61 127.64c.88 4.73 3.86 9.11 8.25 11.24 2.22 1.08 4.72 1.6 7.18 1.41s5.2-.94 7.05-2.61c1.33-1.2-.38-3.33-1.89-2.45-.86.5-1.64 1.09-2.58 1.42s-1.9.55-2.88.61c-1.99.13-4.01-.23-5.79-1.15-3.53-1.82-5.95-5.35-6.87-9.16-.39-1.62-2.77-.92-2.47.68Z"/></svg>