<?xml version="1.0" encoding="UTF-8"?><svg xmlns="http://www.w3.org/2000/svg" viewBox="0 0 180 180"><path d="M28.03 73.13c-5.48 6.1-10.15 12.97-14.1 20.14-1.81 3.27-3.47 7.03-2.34 10.82 1.12 3.74 4.2 5.53 7.94 5.81 8.59.65 17.26.6 25.87.73s16.75.17 25.13.18c16.64.02 33.27-.13 49.9-.6 8.59-.24 17.17-.56 25.75-.96 4.1-.19 8.27-.22 12.36-.69 3.67-.42 7.24-1.59 9.3-4.88 1.87-2.98 1.94-7.03.74-10.27-1.35-3.63-3.84-6.34-6.18-9.34-3.41-4.37-4.22-10.74-9.18-13.85-1.42-.89-2.96-1.21-4.61-1.35-1.01-.09-1.92.85-2.03 1.8-.13 1.07.49 1.91 1.48 2.27 2.23.82 3.82 2.12 4.96 4.01 1.34 2.22 2.22 4.69 3.48 6.96 2.63 4.76 9.25 9.43 7.71 15.58-.71 2.82-3.18 3.75-5.84 4.06-3.69.43-7.47.44-11.18.61-8.04.37-16.08.67-24.12.91-31.06.9-62.11.5-93.18.62-2.31 0-4.61.02-6.92.09-1.79.05-3.98.38-5.67-.38-3.3-1.48-1.66-6.36-.5-8.65 3.87-7.62 8.83-14.72 13.71-21.72 1.01-1.44-1.27-3.19-2.44-1.88Z"/><path d="M36.22 73.09c29.36-3.71 59.23-4.93 88.76-2.74 8.32.62 16.59 1.62 24.86 2.73 1.19.16 2.4-.29 2.75-1.56.29-1.07-.36-2.55-1.56-2.75-29.58-4.8-60.04-4.88-89.8-1.89-8.49.85-16.97 1.93-25.42 3.14-1.72.25-1.33 3.29.42 3.07Z"/><path d="M43.96 70.93c.28-2.15.33-4.29.39-6.45.06-2.09-.1-4.28.14-6.35.15-1.32 1.3-1.69 2.46-1.96 1.83-.42 3.77-.48 5.63-.61 4.29-.31 8.59-.41 12.88-.3 2.11.06 4.21.17 6.32.33 1.97.15 4.05.21 5.99.63.74.16 1.05.18.98.9-.1 1.04-.24 2.06-.25 3.1 0 2.39.39 4.8 1.18 7.06s4.39 1.3 3.62-1-1.09-4.56-.81-6.94.7-4.55-1.44-6.08c-1.6-1.15-3.74-1.18-5.63-1.38-2.5-.26-5.01-.45-7.52-.56-5.02-.23-10.06-.16-15.07.2-3.64.26-8.93.06-11.32 3.41-1.44 2.01-1 4.76-.96 7.08.05 2.98.07 5.98.47 8.93.25 1.89 2.7 1.9 2.95 0Zm51.99-3.91c.96-1.58 1.55-3.17 1.72-5.02.08-.9.01-1.76-.11-2.65-.1-.72-.33-1.6.17-2.22.68-.84 2.2-1.07 3.19-1.21 1.71-.24 3.47-.28 5.19-.4 3.96-.26 7.94-.41 11.91-.22 1.89.09 3.79.26 5.66.58.91.15 1.82.34 2.72.55.8.19 1.91.31 2.6.78 1.22.84 1.11 3.42 1.27 4.72.29 2.27.35 4.76 1 6.95s4.01 1.8 4.08-.55-.52-4.71-.82-6.97c-.26-1.94-.37-4.04-1.36-5.78-1.11-1.96-3.13-2.63-5.19-3.14-2.21-.54-4.47-.89-6.73-1.11-4.49-.45-9.01-.3-13.51.04-2.18.16-4.37.32-6.54.58-1.68.2-3.4.51-4.87 1.39-1.75 1.04-2.83 2.81-2.71 4.88.08 1.28.51 2.5.5 3.79 0 1.18-.22 2.48-.7 3.56-.74 1.67 1.51 3.1 2.51 1.47ZM13.4 105.4c-2.51.38-3.31 3.56-3.38 6.09-.11 4.44.31 8.9 1.26 13.25.19.88.44 1.82 1.13 2.4.63.52 1.49.64 2.3.73 9.49 1.01 19.07.78 28.61.54 42.19-1.05 78.79.03 120.95-1.83 1.44-.06 3.03-.2 4.02-1.25.72-.77.95-1.87 1.14-2.91.86-4.58-.38-7.71.48-12.28.41-2.16-.93-9.5-3.06-10.03-1.54-.39-.12 2.92-1.34 3.94-4.79 4-11.45 4.7-17.68 5.12-7.27.49-14.54.84-21.82 1.15-28.31 1.22-50.53.74-78.86.98-11.77.1-23.66.1-35.13-2.53"/><path d="M12.96 103.79c-5.67.95-5.03 9.34-4.76 13.42.11 1.6.3 3.2.53 4.79s.43 3.28 1.04 4.77c1.32 3.27 4.9 3.17 7.89 3.41 13.58 1.1 27.28.17 40.88-.03 26.18-.38 52.36-.15 78.54-.57 6.59-.1 13.19-.29 19.78-.53 3.22-.11 6.66.08 9.82-.55 3.38-.66 4.62-3.45 5.02-6.57.37-2.92-.15-5.79-.13-8.71.01-2.07.47-3.97.22-6.04-.34-2.79-1.46-10.24-5.83-9.11-1.22.31-1.8 1.41-1.92 2.57-.04.38-.04.75-.04 1.13 0 .25-.04.53-.01.77-.02-.19-.15.32 0 .09.2-.29-.27.16-.31.18-.27.18-.53.38-.81.56-.55.35-1.12.67-1.7.96-1.25.62-2.58 1.05-3.93 1.4-5.83 1.5-12.1 1.46-18.07 1.77-13.28.69-26.58 1.15-39.88 1.33-12.42.16-24.83.12-37.25.15-13.27.04-26.71.78-39.92-.68-3.2-.35-6.39-.88-9.55-1.54-2.56-.53-3.66 3.32-1.09 3.95 10.85 2.65 22.18 2.82 33.29 2.77 10.91-.05 21.81-.07 32.72-.09 21.82-.05 43.62-.45 65.4-1.79 5.53-.34 11.3-.45 16.63-2.11 2.59-.8 5.1-1.99 7.19-3.74.94-.79 1.33-1.75 1.43-2.96.03-.38.02-.76.02-1.15 0-.19.03-.42 0-.6-.08-.4.12.16-.3.52l-.91.53c-.09.04-1.07-.2-.7-.06-.36-.14 0 .14-.11-.1.16.33.41.63.58.96.45.87.72 1.85.93 2.8.19.87.33 1.74.39 2.62.02.37.02.73.02 1.1 0 .07-.06.69 0 .16-.06.56-.18 1.11-.25 1.67-.36 3.1.12 6.22-.26 9.31-.11.9-.18 2.6-.89 3.28-.88.84-3.31.54-4.35.58-14.05.61-28.11.93-42.17 1.13-13.69.2-27.38.17-41.07.25-14.38.09-28.76.44-43.14.68-3.95.06-7.9.07-11.85-.06-2.14-.07-4.27-.19-6.4-.36-.98-.08-1.97-.14-2.95-.28-.5-.07-.86-.09-1.16-.49-.43-.58-.47-1.81-.61-2.53-.19-.93-.35-1.87-.49-2.81a54 54 0 0 1-.51-6.11c-.05-1.79-.57-6.29 1.9-6.86 2.13-.5 1.19-3.57-.89-3.22ZM31.44 73.2c-.75-5.87-1.47-11.73-1.54-17.66-.04-3.05.06-6.1.33-9.13.18-2.01.46-4.4 2.24-5.66 2.05-1.44 5.06-1.7 7.46-2.06 2.87-.43 5.78-.63 8.68-.76 6.01-.26 12.04-.23 18.06-.3 24.56-.25 49.12-.15 73.65 1.33 1.74.11 5.3-.18 6.38 1.61.66 1.09.33 2.73.25 3.92-.11 1.65-.21 3.31-.32 4.96-.22 3.47-.45 6.94-.68 10.42-.23 3.47-.57 6.94-.58 10.41 0 1.1.85 2.06 1.93 2.19.98.12 2.29-.49 2.44-1.59.9-6.58 1.09-13.3 1.53-19.93.2-3.02.73-6.21.48-9.23-.25-3.01-1.76-5.31-4.61-6.42-2.58-1.01-5.59-.89-8.32-1.03-3.31-.17-6.63-.31-9.94-.43-6.47-.23-12.93-.37-19.4-.43-13.11-.13-26.22-.12-39.33.02-6.54.07-13.1.08-19.64.29-3.01.1-6.03.27-9.02.63s-6.07.71-8.87 1.76c-2.97 1.12-5.07 3.23-5.91 6.33-.83 3.1-.8 6.55-.85 9.74-.11 7.17.49 14.54 2.52 21.44.47 1.6 3.27 1.38 3.04-.41Z"/><path d="M21.09 127.71c.33 4.63.86 9.25 1.58 13.84.06.37.13.76.39 1.01.25.25.63.31.98.37 2.35.34 4.73.49 7.1.46.33 0 .69-.02.96-.21.29-.19.43-.54.55-.86 2.22-5.63 4.24-11.34 6.05-17.11"/><path d="M19.37 127.71c-.03 3.2.26 6.42.67 9.59.21 1.64.37 3.3.69 4.92.36 1.83 1.78 2.54 3.48 2.77 1.59.22 3.19.37 4.8.43s3.45.3 4.66-.87c1.07-1.03 1.49-2.93 2.01-4.29.56-1.47 1.12-2.94 1.65-4.42 1.2-3.34 2.33-6.7 3.4-10.09.81-2.57-3.21-3.66-4.02-1.11a289 289 0 0 1-5.54 15.81c-.08.21-.58 1.2-.51 1.29-.11-.27.14-.42.74-.45h-.25c-.25-.07-.63.02-.89.02-1.13 0-2.25-.05-3.38-.13-.76-.06-2.24 0-2.78-.39l.73.73c-.25-.33-.24-.81-.3-1.23-.1-.65-.2-1.29-.29-1.94-.18-1.24-.32-2.48-.49-3.72-.33-2.46-.61-4.93-.99-7.39-.3-1.95-3.36-1.43-3.38.46Zm133.75 1.21c-.33 4.63-.86 9.25-1.58 13.84-.06.37-.13.76-.39 1.01-.25.25-.63.31-.98.37-2.35.34-4.73.49-7.1.46-.33 0-.69-.02-.96-.21-.29-.19-.43-.54-.55-.86-2.22-5.63-4.24-11.34-6.05-17.11"/><path d="M151.46 128.46c-.38 2.45-.66 4.93-.99 7.39-.16 1.18-.3 2.36-.46 3.54-.09.65-.19 1.3-.29 1.94-.07.47-.05 1.05-.33 1.41l.73-.73c-.51.37-1.89.32-2.6.38-1.12.09-2.25.14-3.38.15h-.89c-1.1-.02.42.31.31.43.03-.03-.46-1.15-.51-1.28a284 284 0 0 1-5.54-15.81c-.81-2.55-4.83-1.46-4.02 1.11.94 3 1.94 5.98 2.99 8.94.53 1.48 1.07 2.96 1.62 4.42s1.05 3.07 1.76 4.48c.8 1.58 2.3 1.85 3.92 1.85s3.2-.1 4.8-.28 3.57-.21 4.5-1.8c.39-.66.45-1.43.56-2.17.13-.86.24-1.71.36-2.57.48-3.62.87-7.27.84-10.92 0-.85-.65-1.59-1.49-1.69-.77-.09-1.75.38-1.89 1.23ZM42.08 93.12c3.71-2.13 7.74-3.49 11.81-4.75 4.33-1.34 8.69-2.58 13.08-3.7 8.72-2.24 17.54-4.07 26.43-5.49 5.04-.8 10.1-1.43 15.16-2.1.91-.12 1.67-.69 1.68-1.68 0-.86-.78-1.75-1.68-1.68-9.2.69-18.37 2.18-27.4 4.01-9.06 1.84-18.02 4.12-26.85 6.83-4.79 1.47-9.58 3.1-13.91 5.68-1.84 1.09-.18 3.94 1.68 2.87Zm29.93 5.38c8.68-3.19 17.57-5.82 26.56-7.96 4.43-1.05 8.89-1.96 13.37-2.72 4.62-.78 9.35-1.14 13.94-2.07 1.8-.37 1.36-3.17-.43-3.16-4.66.01-9.41.92-14 1.7-4.56.78-9.09 1.71-13.59 2.8-9.08 2.2-17.96 5.15-26.61 8.69-1.64.67-.98 3.36.75 2.73Zm41.5.71 2.34-.66c.4-.11.77-.4.98-.75.12-.19.18-.39.19-.61.05-.22.04-.44-.03-.65-.13-.4-.37-.78-.75-.98s-.83-.28-1.26-.17c-.78.21-1.57.41-2.35.62-.4.11-.79.41-.99.76-.12.19-.19.4-.2.62q-.075.33.03.66c.13.4.38.79.76.99s.84.29 1.28.17"/></svg>