<?xml version="1.0" encoding="UTF-8"?><svg xmlns="http://www.w3.org/2000/svg" viewBox="0 0 180 180"><path d="M23.48 148.02c13.69-22.97 23.73-48.18 29.34-74.33 1.61-7.49 2.85-15.05 3.78-22.66l-2.68 2.04c18.81 2.84 37.74 2.99 56.58.23 5.27-.77 10.51-1.78 15.7-2.99l-2.8-1.59c2.97 13.56 5.7 27.17 9.42 40.55s8.66 27.23 15.67 39.64c3.99 7.05 8.62 14.03 14.39 19.75 1.89 1.87 4.4-.86 2.84-2.84-4.36-5.51-8.57-11.06-12.14-17.14s-6.51-12.23-9.07-18.65c-5.18-12.96-8.74-26.49-11.84-40.08-1.7-7.46-3.26-14.95-4.9-22.43-.27-1.23-1.65-1.86-2.8-1.59-17.82 4.16-36.11 5.62-54.37 4.57-5.2-.3-10.42-.76-15.57-1.51-1.48-.22-2.51.56-2.68 2.04-3.06 26.05-10.32 51.68-21.28 75.5q-4.695 10.185-10.29 19.92c-1 1.75 1.67 3.31 2.7 1.58Z"/><path d="M52.87 51.03c1.73 14.22 4.92 28.24 8.88 42 3.73 12.98 7.91 25.93 13.57 38.21 3.1 6.73 6.66 13.36 11.26 19.2 1.29 1.64 3.92-.47 2.86-2.21-3.41-5.59-6.73-11.19-9.57-17.1-2.77-5.78-5.14-11.75-7.28-17.79-4.6-12.97-8.46-26.25-11.65-39.63-1.83-7.66-3.45-15.37-4.93-23.11-.33-1.75-3.36-1.38-3.15.43Zm59.83 31.13c-6.22.15-12.44.3-18.66.51-1.41.05-2.82.09-4.23.14s-2.9.13-4 1.12c-2.06 1.85-1.24 5.04-.93 7.43.72 5.69 2.05 11.33 3.8 16.79.84 2.6 1.78 5.17 2.84 7.69.55 1.3 1.11 2.59 1.71 3.87s1.12 2.58 2.31 3.36c1.12.73 2.42.69 3.7.7 1.48 0 2.95 0 4.43-.02 3.12-.04 6.23-.15 9.35-.3s6.06-.35 9.08-.61c2.69-.23 5.93-.69 6.66-3.86.56-2.45-1.34-5.17-2.36-7.27-1.2-2.48-2.43-4.95-3.57-7.46-2.2-4.84-4.14-9.97-4.78-15.28-.32-2.64.23-6.29-3.06-7.21-1.88-.53-4.32-.03-6.24.1-4.98.34-9.96.73-14.95 1-2.41.13-2.43 3.87 0 3.77 3.86-.17 7.71-.5 11.57-.74 1.87-.11 3.75-.22 5.62-.3.68-.03 1.37-.05 2.05-.06.21 0 .66-.08.86 0 .16.07-.13-.1-.03.02-.06-.08-.01.15-.03.38-.12 2.3.34 4.76.8 7 .48 2.36 1.18 4.67 1.99 6.94 1.64 4.58 3.72 8.99 5.8 13.39.51 1.07 1.02 2.14 1.52 3.22.16.35.35.7.48 1.06.05.15.17.36.15.51.02-.11 0-.01-.16.12-.69.54-2.22.36-3.05.42-1.39.11-2.78.21-4.17.29-5.32.33-10.65.47-15.98.44-.66 0-1.31 0-1.97-.02-.35 0-1.12.16-1.4-.04.35.25-.02-.32-.08-.45-.29-.59-.56-1.2-.84-1.8a92 92 0 0 1-2.76-6.85 98 98 0 0 1-3.97-14.25c-.52-2.62-1-5.29-1.28-7.95l-.06-.69c-.03-.3.15-.45-.06-.28-.26.21.85.07 1.02.06 1.49-.1 2.99-.19 4.48-.28 6.14-.39 12.27-.84 18.41-1.29 2.11-.15 2.16-3.38 0-3.33Z"/><path d="M10 150.82c20.77.22 41.54.45 62.31.56s41.7.27 62.55.3c5.82 0 11.63-.12 17.45-.29 2.91-.09 5.82-.09 8.72-.13s6 .08 8.97-.32c2.3-.3 2.31-3.29 0-3.59-2.64-.35-5.31-.28-7.98-.3s-5.15-.04-7.73-.08c-5.24-.09-10.46-.33-15.7-.34-10.3-.01-20.6.06-30.9.11-20.85.11-41.7.32-62.55.44-11.71.07-23.43.18-35.14.3-2.14.02-2.14 3.31 0 3.33Zm90.28-66.1c-.98 3.11.23 6.59.9 9.66.72 3.32 1.48 6.63 2.39 9.89s1.9 6.33 3.09 9.41 2.48 6.65 4.62 9.24c1.09 1.32 3.39-.09 2.86-1.66-.5-1.48-1.33-2.87-1.98-4.29s-1.28-2.84-1.85-4.29c-1.15-2.94-2.13-5.94-3-8.97s-1.63-5.96-2.37-8.96c-.38-1.53-.76-3.07-1.13-4.6s-.83-3.03-.42-4.57c.53-2.01-2.48-2.83-3.1-.86Z"/><path d="M91.45 106.29c10.02-.03 20.05-.83 30.06-1.19 2.36-.08 2.37-3.76 0-3.67-10.01.35-20.13.58-30.06 1.87-1.84.24-1.98 2.99 0 2.98ZM54.23 59.75c.46 7.93.92 15.86 1.37 23.79.29 5.01.58 10.01 1.11 15 1.8 16.91 6.33 33.38 9.47 50.09l-12.91.24c-1.5-28.84 1.21-61.16 1.21-91.21"/><path d="M52.73 59.75c.37 11.88.9 23.81 1.9 35.65s3.31 23.02 5.76 34.39c1.39 6.43 2.74 12.87 4.02 19.33l1.76-2.32c-4.3.12-8.61.11-12.91.2l1.87 1.87c-1.26-23.68.14-47.39.8-71.06.19-6.72.32-13.43.32-20.15 0-2.29-3.56-2.3-3.56 0-.01 23.91-1.62 47.78-1.7 71.69-.02 6.51.08 13.02.4 19.52.05 1 .82 1.88 1.87 1.87 4.31-.07 8.61-.24 12.91-.28 1.27-.01 1.97-1.16 1.76-2.32-2.03-11.37-4.92-22.58-7.05-33.93-1.05-5.59-1.94-11.22-2.52-16.88s-.9-11.67-1.26-17.51c-.41-6.69-.82-13.39-1.39-20.07-.16-1.89-3.05-1.94-2.98 0"/><path d="M55.9 54.73c-2.26-7.19-4.92-14.26-7.92-21.18-.41-.94-1.79-1.15-2.6-.68-.97.57-1.1 1.66-.68 2.6 2.93 6.63 5.74 13.3 8.41 20.03.67 1.68 3.36 1.05 2.79-.77"/><path d="M56.04 52.07c.33-3.61.65-7.22.79-10.84.07-1.74.13-3.48.17-5.23s.51-4.03-.65-5.47c-.47-.58-1.62-.57-2.09 0-1.16 1.42-.72 3.72-.75 5.47s-.07 3.48-.13 5.23c-.12 3.61-.22 7.23-.43 10.84-.12 2 2.9 1.95 3.08 0Z"/><path d="M55.88 54.02c3.53-5.09 6.69-10.41 9.44-15.96.41-.82.22-1.84-.61-2.32-.75-.44-1.91-.21-2.32.61-2.76 5.54-5.86 10.91-9.32 16.03-.49.73-.14 1.8.58 2.22.81.47 1.72.14 2.22-.58Zm69.9-7.04-.06-.02.86.66c.25.53-.23-.61-.21-.57-.11-.23-.24-.45-.36-.68-.21-.4-.43-.78-.65-1.17-.47-.83-.93-1.67-1.38-2.51s-.89-1.7-1.32-2.55-.79-1.77-1.3-2.56-1.45-1.13-2.32-.76c-.79.33-1.4 1.32-1.08 2.19.41 1.12 1.07 2.19 1.64 3.24.54.98 1.1 1.94 1.67 2.9s1.1 1.87 1.72 2.76c.39.57.79 1.25 1.38 1.62.79.49 1.73.26 2.23-.51s-.01-1.81-.84-2.06Z"/><path d="M127.97 49.48c.51-1.55.49-3.4.56-5.02s.14-3.1.15-4.66.01-3.1-.01-4.66.23-3.68-.57-5.1c-.54-.96-2.26-1.12-2.75 0-.69 1.55-.32 3.44-.27 5.1.05 1.55.07 3.1.08 4.66s.01 3.1 0 4.66c-.02 1.64-.18 3.4.16 5.02.3 1.41 2.25 1.21 2.65 0"/><path d="M128.29 49.93c1.09-1.52 2.16-3.05 3.22-4.59l1.56-2.28c.27-.39.53-.79.8-1.18.32-.47.66-.93.79-1.49.17-.72-.11-1.58-.79-1.94-.74-.39-1.45-.22-2.08.27-.43.33-.72.9-1.01 1.36-.25.4-.51.8-.76 1.2-.5.77-.99 1.55-1.5 2.32-1.02 1.56-2.05 3.12-3.09 4.67-.49.72-.16 1.87.59 2.27.85.45 1.73.16 2.27-.59Zm-71.68 3.05 35.59 4.07c1.21.14 2.51.32 3.38 1.17.95.93 1.1 2.38 1.25 3.7.72 6.68 2.61 13.23 5.55 19.27-4.45.85-8.89 1.7-13.34 2.56-1.04.2-2.2.47-2.79 1.35-.42.62-.47 1.42-.49 2.17-.39 12.03 1.26 24.69 8.26 34.48.31.43.64.86 1.09 1.13.65.38 1.45.38 2.2.35l27.23-.75c.98-.03 2.08-.11 2.7-.87.5-.6.53-1.45.5-2.23-.18-6.02-2.08-11.83-3.97-17.55-1.74-5.26-3.48-10.52-5.21-15.78-.83-2.5-2.15-5.43-4.77-5.74-2.42-.28-4.55 1.95-6.99 1.87-2.71-.09-4.42-2.86-5.62-5.28-2.72-5.46-5.48-11.09-6.01-17.17-.11-1.26-.1-2.6.51-3.72 1.49-2.72 5.34-2.58 8.44-2.41 5.84.32 11.74-.61 17.19-2.72.62-.24 1.41-.46 1.87.02.19.19.27.46.34.72 2.21 7.57 4.41 15.15 6.62 22.72 3.1 10.63 6.21 21.32 7.43 32.33.27 2.42.45 4.88 1.17 7.21.83 2.72 2.36 5.16 3.88 7.57 5.23 8.33 10.46 16.67 15.68 25-8.96.33-17.92.67-26.87 1-3.1.12-6.2.23-9.29-.06-2.11-.2-4.19-.59-6.3-.83-8.63-.95-17.46.79-25.98-.87-7.57-11.3-12.51-21.35-15.82-34.55-1.58-6.28-6.17-11.35-7.86-17.61-2.45-9.1-3.32-21.67-7.04-30.32-1.33-3.1-2.66-6.19-4-9.29.51-.53 1.57-.25 1.75.46"/><path d="M56.16 54.61c8.54 1.2 17.1 2.2 25.66 3.24l6.43.78 3.21.39c.7.08 1.53.11 2.18.4 1.27.57 1.05 2.96 1.19 4.09.25 2.02.57 4.02 1.04 6 1.04 4.44 2.6 8.69 4.72 12.73l1.24-3.05c-3.75.94-7.63 1.49-11.43 2.22-1.48.28-3.11.44-4.43 1.22-1.57.93-2.13 2.52-2.26 4.25-.49 6.49.09 13.28 1.49 19.63.73 3.27 1.77 6.45 3.13 9.51.61 1.38 1.29 2.72 2.06 4.02.81 1.38 1.69 3.02 2.9 4.1 1.43 1.28 3.21 1.23 5.01 1.18 1.98-.05 3.96-.11 5.94-.16 3.8-.11 7.59-.21 11.39-.32 1.98-.06 3.96-.11 5.94-.17 1.68-.05 3.54.11 5.17-.36 3.86-1.12 3.19-5.6 2.78-8.7-.99-7.47-3.83-14.63-6.18-21.75-1.14-3.47-2.11-7.09-3.56-10.45-1.11-2.57-3.02-4.94-6-5.19-1.63-.14-3.1.5-4.56 1.14-1.02.45-2.13 1.02-3.21.48-.98-.49-1.64-1.56-2.18-2.47-.82-1.4-1.5-2.89-2.2-4.35-1.72-3.59-3.28-7.28-4.02-11.21-.26-1.38-.85-3.73.09-4.96.6-.78 1.8-.95 2.72-1.01 3.53-.23 7.04.25 10.59-.15 2.04-.23 4.06-.56 6.05-1.06a42 42 0 0 0 4.41-1.36c.25-.1.5-.19.75-.28.52-.11.44-.14-.23-.1l-.83-.83c.37.58.47 1.4.66 2.06l.69 2.37c.51 1.74 1.01 3.47 1.52 5.21.97 3.31 1.93 6.63 2.9 9.94 1.89 6.5 3.84 12.99 5.44 19.57.78 3.19 1.47 6.41 2.04 9.64s.84 6.3 1.26 9.45 1.43 6.31 3.08 9.22 3.5 5.68 5.27 8.5c4.1 6.53 8.16 13.07 12.35 19.55l1.92-3.34c-9.03.46-18.08.72-27.12 1.06-4.51.17-8.84-.02-13.31-.63s-8.59-.6-12.93-.48c-4.84.13-9.73.34-14.52-.55l1.28.99c-3.62-5.4-6.97-11-9.7-16.92a90 90 0 0 1-3.4-8.51c-1.06-3.1-1.83-6.26-2.75-9.39-1.82-6.19-6.21-11.24-7.81-17.51-1.52-5.95-2.29-12.07-3.51-18.08-.68-3.33-1.47-6.67-2.65-9.86-1.44-3.89-3.24-7.68-4.88-11.49l-.77 2.95c-.45.09-.85-.02-1.2-.31.46 1.07 2.03 1.31 2.95.77 1.11-.65 1.23-1.87.77-2.95-.73-1.72-3.22-2.36-4.7-1.24-1.02.77-1.28 1.76-.77 2.95 2.15 5 4.54 9.93 5.94 15.21 1.29 4.88 2.08 9.88 2.98 14.84s1.79 9.81 3.99 14.34c1.11 2.29 2.42 4.47 3.58 6.73s1.97 4.73 2.66 7.28c2.68 10 6.88 19.46 12.3 28.27.67 1.09 1.36 2.18 2.06 3.26.88 1.36 1.47 2.65 3.19 2.95 2.91.51 5.85.7 8.8.71 5.98.03 11.98-.54 17.94.24 3.37.44 6.66.93 10.06.91s6.92-.21 10.37-.34c7.05-.26 14.1-.58 21.15-.75 1.65-.04 2.82-1.87 1.92-3.34-5.62-9.23-11.7-18.2-17.15-27.53-1.25-2.14-2.19-4.3-2.65-6.75-.48-2.59-.63-5.25-.99-7.86-.74-5.24-1.87-10.42-3.18-15.54-2.66-10.39-5.85-20.66-8.85-30.96-.37-1.26-.73-2.52-1.1-3.79-.41-1.4-.65-3.12-1.95-3.99-2.13-1.43-4.78.24-6.92.87-4.77 1.41-9.51 1.68-14.45 1.5-4-.14-8.77.78-9.81 5.33-.53 2.31-.03 4.93.48 7.2.56 2.5 1.45 4.91 2.45 7.27s2.05 4.49 3.16 6.7c.88 1.75 1.89 3.56 3.41 4.84 1.71 1.43 3.78 2 5.97 1.47 1.53-.38 3.61-2.11 5.24-1.6 1.43.44 2.13 2.56 2.56 3.82.86 2.49 1.66 5 2.49 7.51 1.67 5.04 3.47 10.06 4.91 15.17.7 2.48 1.32 5 1.62 7.56.14 1.2.24 2.42.2 3.63-.01.4-.1.14.07.04-.1.06-.28.11-.4.12-.58.04-1.17.06-1.76.08-5.45.15-10.89.29-16.34.44-2.72.07-5.45.15-8.17.22-.79.02-2.28.35-2.96-.11-.76-.52-1.37-1.93-1.83-2.71-2.32-3.86-3.87-8.09-4.87-12.47s-1.46-9.12-1.57-13.73c-.03-1.11-.03-2.23-.02-3.34 0-.62-.24-2.1.25-2.55.61-.56 2.21-.57 2.98-.72l4.05-.78c2.61-.5 5.23-1.13 7.87-1.48 1.47-.2 1.7-1.99 1.24-3.05-1.67-3.8-3.05-7.78-3.99-11.82-.46-1.96-.85-3.95-1.12-5.94s-.4-3.87-1.74-5.39-3.12-1.78-4.93-1.99c-2.28-.27-4.57-.49-6.86-.74-4.53-.49-9.06-.98-13.59-1.46-5.11-.54-10.21-1.07-15.32-1.52-1.88-.17-2.35 3.06-.45 3.33Z"/></svg>