<?xml version="1.0" encoding="UTF-8"?><svg xmlns="http://www.w3.org/2000/svg" viewBox="0 0 180 180"><path d="M25.17 117.55C38.16 97.77 56.3 82.01 76.32 69.63c21.5-13.28 45.04-22.59 69.07-30.19 1.63-.51 3.27-.99 4.94-1.37.98-.22 1.99-.54 2.87.12 1.48 1.1.65 3.26.25 4.71-1.17 4.2-3.11 8.13-5.21 11.94-4.88 8.87-10.79 17.25-17.17 25.1-13.28 16.33-30.11 29.93-48.9 39.42-9.88 4.99-20.31 8.8-31 11.69a217 217 0 0 1-17.42 3.92c-3.5.64-7.02 1.15-10.56 1.5-.6.06-2.36.45-2.83-.1-.25-.29-.1-1.06-.08-1.4.04-.82.13-1.63.26-2.44.5-3.15 1.59-6.18 3.13-8.96 1.23-2.21-1.89-3.9-3.32-1.94-2.1 2.88-3.56 6.18-4.26 9.68-.62 3.1-1.2 7.35 2.04 9.21 1.27.73 2.81.83 4.23.74 2.12-.14 4.24-.44 6.34-.73 3.45-.47 6.87-1.09 10.28-1.78 11.81-2.38 23.44-5.7 34.58-10.31 21.4-8.87 40.89-22.57 56.32-39.88 6.86-7.7 13.09-16.09 18.55-24.84 2.73-4.37 5.24-8.9 7.26-13.64.86-2.02 1.65-4.08 2.2-6.21.65-2.5 1.13-5.11-.39-7.41-1.81-2.75-4.84-3.36-7.88-2.7-3.64.79-7.16 2.05-10.69 3.25-6.93 2.35-13.88 4.62-20.71 7.27-11.8 4.59-23.37 9.83-34.42 16.01-21.68 12.11-41.49 27.85-56.15 48.06-1.8 2.49-3.52 5.04-5.15 7.64-1.06 1.7 1.58 3.22 2.67 1.56"/><path d="m55.38 114.77-17.29 11.59c2.7 6.47 1.13 14.49-3.82 19.46 2.12-.1 4.06-1.19 5.84-2.34 4.86-3.14 9.32-7.05 12.4-11.95s4.68-10.87 3.67-16.56"/><path d="M54.56 113.38c-5.87 3.7-11.73 7.37-17.52 11.2-.69.46-1.3 1.47-.95 2.33 2.39 5.91 1.19 12.85-3.29 17.45-1.17 1.2-.39 3.67 1.46 3.52 3.78-.3 6.98-2.54 9.94-4.75 2.96-2.22 5.7-4.69 7.98-7.61 4.7-5.99 7.21-13.48 5.92-21.08-.18-1.07-1.49-1.66-2.46-1.4-1.13.31-1.57 1.39-1.4 2.46 1.01 6.22-1.4 12.59-5.23 17.43-1.9 2.39-4.15 4.53-6.56 6.39-2.28 1.76-5.21 4.21-8.19 4.44.49 1.17.97 2.35 1.46 3.52 5.41-5.56 7.28-14.23 4.35-21.47l-.95 2.33c5.76-3.91 11.4-7.95 17.07-11.98 1.66-1.18.16-3.9-1.62-2.78Zm9.72-98.92c2.69 1.26 5.45 2.35 8.08 3.76l-.36-2.8c-.56.63-1.13 1.26-1.69 1.89s-1.17 1.22-1.59 1.93c-.91 1.55-.55 3.49 1.05 4.41.51.29 1.09.45 1.64.63.16.05.34.03.13.04.05 0 .28.08.05-.02.28.11.09.18.04.01s-.01.26 0 .08c0-.06-.09.25-.03.14-.14.27-.2.33-.42.52-.36.31-1.05.68-1.56.97-.77.44-1.08 1.43-.73 2.23.32.73 1.28 1.38 2.11 1.04 1.46-.61 2.96-1.36 3.75-2.82.8-1.48.8-3.51-.48-4.73-.53-.51-1.18-.8-1.87-1.04-.25-.08-.5-.15-.75-.24.32.12-.02 0-.08-.05-.16-.17.16.13.19.18s.11.44.15.45.05-.08.11-.15c.22-.24.46-.55.68-.81.61-.72 1.22-1.43 1.83-2.15.7-.82.74-2.25-.36-2.8-2.79-1.41-5.76-2.65-8.87-3.09-.65-.09-1.29.1-1.56.76-.23.56-.06 1.37.54 1.65Zm-6.21-5.78c-2.84.63-5.44 2.25-5.8 5.41-.07.65-.04 1.32.14 1.95a4.9 4.9 0 0 0 .63 1.33c.16.32.21.14.14-.54-.11-.04-1.14 1.36-1.24 1.48-.46.58-.92 1.17-1.29 1.82-1.47 2.5-1.56 5.53.15 7.95.83 1.17 1.91 2.12 3.17 2.81s3.18 1.62 4.59 1.07c1.14-.44 1.59-1.75.71-2.7-.79-.87-2.07-.98-3.09-1.48-.9-.44-1.73-1.03-2.29-1.88-1.16-1.76-.5-3.41.62-4.99.57-.8 1.36-1.5 1.81-2.37.65-1.24.12-2.2-.45-3.31-.9-1.77 1.56-3.38 2.92-3.9 1.62-.63 1.02-3.03-.73-2.64Z"/><path d="M60.48 20.57c.06.03.12.07.17.1.14.08.04.04-.03-.03.11.1.21.21.32.31.12.12-.12-.19-.03-.04.03.06.07.11.11.17s.07.12.1.18c.02.03.12.24.04.06s.01.04.02.07c.03.08.05.16.08.24.02.07.04.37.09.4-.04-.03-.03-.29-.01-.06 0 .07.01.14.01.21v.46c0 .04-.03.28 0 .07s-.01.06-.02.1c-.03.17-.08.34-.13.5s-.12.33-.17.49.09-.18-.03.07c-.04.08-.07.16-.11.23-.33.67-.74 1.28-1.05 1.97s-.24 1.37.37 1.83c.51.4 1.42.44 1.87-.11 1.18-1.45 2.13-3.4 2.11-5.31-.01-1.67-.8-3.44-2.34-4.23-.62-.32-1.48-.18-1.83.48s-.17 1.46.48 1.83Zm-1.13 9.95c-7.91-.22-15.91-.48-23.62 1.65-3.81 1.05-7.49 2.64-10.84 4.75-1.66 1.04-3.24 2.2-4.79 3.39-1.66 1.27-3.57 2.57-4.79 4.28-.48.67-.26 1.72.29 2.27.64.64 1.49.62 2.27.29 1.72-.73 3.27-2.26 4.78-3.37s2.94-2.1 4.47-3.05c3.2-1.98 6.55-3.48 10.19-4.47 7.16-1.94 14.66-2.45 22.04-2.85 1.85-.1 1.87-2.84 0-2.89m14.99 6.16c-.1 2.23-.36 4.45-.78 6.64-.22 1.13-.49 2.25-.8 3.36-.33 1.14-1.22 2.8-.38 3.89.45.58 1.04.91 1.79.73 1.54-.37 1.84-2.31 2.18-3.63.3-1.16.55-2.32.74-3.5.41-2.48.56-4.97.43-7.48-.1-2.04-3.08-2.05-3.17 0Z"/><path d="M68.07 53.74c1.15-.43 2.38-.63 3.55-1.02 1.03-.35 2.02-.79 3.02-1.22 2-.86 3.95-1.84 5.9-2.79 4.03-1.97 8.03-3.95 12.35-5.19 3.78-1.08 7.83-1.63 11.73-.89 1.76.33 3.48.85 5.07 1.68 1.69.88 3.07 2.14 4.67 3.14s3.39-.97 2.54-2.54c-1.87-3.5-6.5-5.45-10.18-6.3-4.38-1.01-8.88-.74-13.22.34-4.6 1.15-8.94 3.16-13.15 5.3-2.14 1.09-4.25 2.26-6.37 3.37-1.09.58-2.19 1.14-3.28 1.73s-2.16 1.4-3.33 1.84c-1.58.59-.89 3.15.7 2.55m-21.6-6.3c-.85 7.2-2.56 15.06 1.28 21.7 1.54 2.66 3.74 4.94 6.32 6.61 2.35 1.52 7.02 3.88 9.63 1.94 1.53-1.13.93-3.21-.93-3.44-5.16-.62-9.57-3.44-11.99-8.11-1.34-2.59-1.6-5.44-1.53-8.31.09-3.46.34-6.93.47-10.39.08-2.14-3.01-2.02-3.25 0"/><path d="M51.61 42.72c-2.19 1.04-4.59 1.15-6.98 1.25-2.54.1-5.1.37-7.58.91-2.43.53-4.84 1.28-7.09 2.35-1.11.53-2.19 1.1-3.24 1.74s-2.34 1.31-3.16 2.24c-.97 1.1-.05 3.01 1.49 2.56 1.15-.34 2.22-1.06 3.32-1.56s2.22-.96 3.36-1.36c2.4-.85 4.78-1.63 7.27-2.18 4.77-1.06 9.74-.97 14.19-3.24 1.8-.92.22-3.56-1.58-2.7Z"/><path d="M22.87 52.16c-.2.42-.4.84-.58 1.28l.16-.37c-.23.55-.54 1.08-.9 1.56l.25-.33c-.33.42-.7.8-1.12 1.13l.34-.26c-.27.21-.55.38-.84.56l-.42.24c-.25.15-.44.36-.65.54-.46.4-.54 1.14-.31 1.66s.78.94 1.39.94c.13 0 .26 0 .39-.01.42-.03.76-.17 1.13-.35.25-.13.48-.27.71-.44.56-.42 1.06-.86 1.49-1.42.88-1.13 1.67-2.56 1.48-4.04-.04-.31-.09-.56-.29-.81-.17-.22-.42-.42-.7-.48-.55-.12-1.26.07-1.52.62Zm-11.09 2.35c.33.37.77.61 1.23.76.24.08.5.1.74.13.13.01.27.01.41 0 .53-.06.98-.16 1.45-.43.53-.3 1-.86 1.15-1.46a1.5 1.5 0 0 0-.08-.98c-.12-.29-.33-.57-.62-.72-.24-.13-.49-.19-.76-.21-.38-.02-.8.18-1.07.44-.11.11-.21.23-.33.32l.32-.24c-.17.13-.34.27-.51.4l.32-.24c-.12.09-.24.16-.37.22l.36-.15c-.15.06-.31.11-.48.13l.4-.05c-.16.02-.31.02-.47 0l.39.05c-.18-.02-.34-.08-.5-.14l.34.14c-.09-.04-.17-.08-.25-.13-.28-.18-.75-.24-1.07-.14-.29.09-.53.25-.72.5s-.31.53-.3.84c.02.38.15.69.41.98ZM76.52 32.8c4.8-.13 9.32 1.96 14.08 2.36 4.57.39 8.93-1.29 12.25-4.47 1.54-1.48-.44-4.07-2.28-2.96-1.67 1.01-3.08 2.38-4.94 3.07-1.96.73-4.1.74-6.15.51-4.35-.48-8.52-1.94-12.95-1.44-1.82.2-1.92 2.97 0 2.92Zm-1.67 11.01c3.69.55 7.42 1.03 11.15 1.15.99.03 1.93-.89 1.88-1.88-.05-1.05-.83-1.85-1.88-1.88-3.59-.12-7.18-.1-10.77-.19-.7-.02-1.32.56-1.4 1.24-.08.63.31 1.46 1.02 1.57Zm27.17-2.65c.4-.16.8-.32 1.17-.54.29-.16.57-.34.84-.53.36-.25.71-.52 1.05-.79.13-.1.25-.2.37-.31.06-.05.13-.1.18-.16a.3.3 0 0 1 .07-.08c.1-.13.24-.27.31-.42l.16-.38q.105-.315.03-.63c-.04-.33-.18-.68-.44-.91-.2-.19-.44-.32-.7-.41q-.315-.105-.63-.03c-.21 0-.41.07-.59.19-.18.08-.36.24-.5.37-.07.06-.13.13-.19.19-.13.13-.27.26-.41.39-.27.25-.55.48-.84.7l.32-.24c-.43.33-.87.63-1.31.94-.3.21-.58.49-.67.87-.07.32-.06.64.07.95.12.28.32.55.59.69.32.17.76.29 1.12.15Zm-19.43 6.5c-2.16 3.9-3.27 8.37-3.2 12.82.02 1.07.07 2.25-.6 3.1-.33.41-.79.69-1.24.96-4.8 2.84-9.59 5.68-14.39 8.52-.52.31-1.05.62-1.65.72-.67.12-1.36-.04-2.01-.25-4.17-1.34-7.62-4.77-8.97-8.95-.34-1.06-.54-2.28 0-3.26.31-.56.83-.98 1.35-1.35 2.78-2 5.99-3.34 8.87-5.21.93-.61 1.84-1.27 2.89-1.64.86-.3 1.77-.38 2.68-.48 4.75-.49 9.47-1.27 14.12-2.35"/><path d="M81.39 46.96c-1.51 2.33-2.69 4.77-3.31 7.48-.29 1.25-.5 2.53-.61 3.81-.07.74-.08 1.48-.08 2.23 0 .48.11 1.16-.08 1.62-.35.82-1.94 1.35-2.69 1.78-1.35.78-2.68 1.59-4.02 2.39-2.61 1.55-5.21 3.11-7.82 4.66-1.03.61-1.53 1.03-2.73.65-1.11-.35-2.15-.91-3.1-1.57-1.72-1.19-3.09-2.87-3.99-4.75-.36-.75-1.05-2.1-.69-2.92.39-.88 2.12-1.62 2.89-2.08 2.37-1.39 4.84-2.58 7.14-4.09 1.33-.87 2.44-1.31 4.02-1.47s3.22-.34 4.82-.56c3.31-.45 6.6-1.09 9.86-1.84 2.6-.6 1.5-4.59-1.1-3.99-3.34.76-6.7 1.37-10.09 1.86-1.64.24-3.29.38-4.93.62-1.65.24-3.06.87-4.45 1.77-2.61 1.71-5.43 3.04-8.07 4.69-1.2.75-2.53 1.55-3.35 2.74-.95 1.4-.94 3.13-.53 4.71 1.34 5.12 6.04 9.89 11.28 10.99 3.19.67 6.08-1.86 8.67-3.38 2.97-1.75 5.94-3.48 8.89-5.25 1.54-.93 3.15-1.76 3.78-3.56.53-1.52.26-3.24.32-4.81.14-3.49.95-7.14 2.36-10.34.71-1.61-1.4-2.94-2.4-1.4Zm1.88 28.03c-.15 6.43-.89 12.84-1.91 19.18s-2.69 12.5-4.17 18.75c-.55 2.32 2.83 3.24 3.56.98 2.01-6.21 3.08-12.86 3.95-19.31.88-6.51 1.2-13.04 1.32-19.61.03-1.77-2.71-1.77-2.75 0Zm15-3.05c-.1 5.06-.75 10.19-1.46 15.2-.72 5.05-1.92 9.97-2.83 14.97-.42 2.29 2.82 3.25 3.53.97 1.53-4.96 2.25-10.32 2.86-15.46.62-5.24.68-10.42.75-15.68.02-1.83-2.81-1.83-2.84 0Zm11.98 5.47c.04 1.21.05 2.43.07 3.64 0 .61.01 1.22 0 1.82 0 .71-.07 1.42.14 2.1.19.63.81 1.18 1.51 1.15s1.28-.47 1.51-1.15.16-1.4.14-2.1c-.01-.61-.03-1.22-.06-1.82-.05-1.22-.17-2.43-.3-3.64-.09-.78-.63-1.55-1.51-1.51-.79.04-1.54.66-1.51 1.51Z"/><path d="M25.28 139.29c2.41-9.15 7.62-17.51 13.46-24.86 6.68-8.4 14.54-15.84 22.87-22.58s16.94-12.66 26.09-17.9c5.03-2.88 10.23-5.42 15.34-8.14s10-5.26 15.23-7.45c6.05-2.54 12.3-4.61 18.61-6.41 6.16-1.75 12.43-2.93 18.65-4.43 1.07-.26 1.72-1.48 1.43-2.52-.32-1.18-1.42-1.59-2.52-1.43-5.71.83-11.38 2.51-16.89 4.17-5.74 1.73-11.38 3.75-16.94 5.98-5.34 2.14-10.6 4.49-15.67 7.21-5.18 2.78-10.42 5.45-15.59 8.27-9.54 5.21-18.61 11.31-27.18 18-8.65 6.75-16.83 14.21-23.89 22.63-7.04 8.41-13.11 17.94-15.51 28.77-.36 1.61 2.06 2.3 2.49.69Zm-3.25 29.4c17.02-3.44 32.96-12.09 45.13-24.48 2.98-3.04 5.84-6.37 9.68-8.23 3.83-1.86 9.02-1.77 11.76 1.48.63.75 1.13 1.65 1.99 2.12 1.15.63 2.59.29 3.79-.26 5.09-2.32 8.04-7.58 11.12-12.25a86.3 86.3 0 0 1 24.8-24.65c3.56-2.32 7.53-4.44 11.78-4.31 1.07.03 2.21.25 2.96 1.02 1.36 1.41.69 3.74-.22 5.48s-2.02 3.72-1.27 5.53c.89 2.13 3.77 2.52 6.02 2.06s4.56-1.42 6.79-.82c3.17.87 4.64 5.35 2.59 7.92-.96 1.2-2.41 1.9-3.48 3s-1.67 3.01-.59 4.11c1.12 1.16 3.03.54 4.64.46 4.13-.19 7.54 4.76 5.88 8.55-1.36 3.1-4.89 4.47-7.68 6.37-2.57 1.74-4.7 4.14-6.12 6.9-.39.75-.73 1.6-.52 2.41.28 1.09 1.46 1.7 2.57 1.87 3.67.57 7.61-2.15 10.94-.5 3.05 1.51 3.43 6.06 1.52 8.87-.82 1.22-1.97 2.24-2.52 3.6s-.16 3.3 1.25 3.71c-6.52-1.9-14.45-.8-20.15-5.12-3-2.28-2.73-4.91-2.98-8.25-.88-11.65-12.96-13.23-20.41-5.98-3.1 3.02-6.09 6.59-10.3 7.61-3.55.86-7.27-.3-10.61-1.78-4.2-1.86-8.45-4.39-13.22-3.99-4.84.4-8.89 3.52-12.84 6.04-15.78 10.03-35.32 10.81-53.35 12.8"/><path d="M22.45 170.21c9.46-1.83 18.52-5.09 26.92-9.83 4.21-2.37 8.19-5.1 11.97-8.09 3.79-3 7.13-6.39 10.57-9.77 3-2.95 6.45-5.64 10.86-5.54 1.89.04 3.4.77 4.64 2.19 1.68 1.94 3.49 2.76 6.06 2.14 4.17-1 7.6-4.85 10.13-8.08 2.91-3.71 5.39-7.71 8.43-11.32 6.2-7.37 13.57-14.26 22-19.01 2.02-1.14 4.23-2.15 6.56-2.37.67-.07 2.12-.28 2.69.22.46.41.29 1.11.14 1.66-.62 2.29-2.29 4.04-2.25 6.56.04 2.45 1.75 4.37 3.99 5.12 2.03.68 4.21.41 6.26-.01 1.7-.35 4.1-1.19 5.32.29.75.91 1.01 2.32.46 3.25-.45.77-1.34 1.29-2.03 1.82-.97.74-1.89 1.53-2.47 2.62-1.19 2.21-1.07 5.16 1.21 6.63.91.59 2.01.8 3.08.78s2.11-.38 3.13-.24c1.35.18 2.51 1.35 3.03 2.58.6 1.43.3 2.79-.75 3.94-1.38 1.5-3.3 2.39-5 3.45-1.96 1.22-3.77 2.69-5.25 4.47s-3.47 4.32-3.5 6.82c-.03 2.81 2.39 4.53 4.97 4.83 2.38.28 4.67-.48 6.98-.92 1.52-.29 3.34-.33 4.08 1.28 1.83 3.98-3.24 6.46-3.52 10.15-.17 2.19 1 4.17 3.08 4.9l1.14-4.13c-5.34-1.5-11.11-1.06-16.32-3.05-2.12-.81-4.34-2.11-4.89-4.46-.55-2.38-.25-4.87-.89-7.26-1.1-4.1-4.06-7.4-8.15-8.65-3.99-1.22-8.44-.33-11.99 1.72-4.33 2.5-7 7.53-11.74 9.33-5.74 2.17-11.8-2.5-17-4.32-3.06-1.07-6.29-1.36-9.44-.53-2.93.77-5.64 2.35-8.2 3.93-2.48 1.53-4.9 3.13-7.5 4.46s-5.5 2.51-8.37 3.49c-6.36 2.19-12.99 3.48-19.64 4.43-6.74.96-13.54 1.68-20.31 2.42-1.01.11-1.88.79-1.88 1.88 0 .93.87 1.99 1.88 1.88 12.02-1.32 24.12-1.86 35.86-5 5.82-1.56 11.52-3.75 16.69-6.86 4.77-2.87 9.57-7.49 15.59-6.59 3.02.45 5.78 1.85 8.5 3.15 2.9 1.38 5.87 2.59 9.08 2.98 6.43.78 11.02-3.15 15.22-7.45 2.83-2.89 6.03-4.98 9.94-4.88 1.56.04 3.04.46 4.43 1.46 1.1.79 2.13 2.2 2.66 3.73.87 2.54.52 5.22 1.12 7.82.71 3.07 3.08 5.21 5.82 6.57 5.76 2.86 12.32 2.22 18.39 3.93 1.11.31 2.33-.39 2.63-1.5.34-1.23-.42-2.19-1.5-2.63.5.2.03.19.13-.16.07-.23.02-.43.09-.68.35-1.09 1.5-2.06 2.16-2.97 1.15-1.6 1.76-3.62 1.71-5.6-.13-4.7-3.82-8.01-8.53-7.49-2.21.24-4.7 1.37-6.93.98-.2-.03-.65-.14-.79-.32.14.18.06.05.26-.27.64-.99 1.12-2.03 1.86-2.96 1.4-1.76 3.12-3.11 5.04-4.27 1.82-1.1 3.73-2.16 5.22-3.7 3.22-3.33 3.27-8.15.29-11.66-1.37-1.62-3.33-2.7-5.44-2.93-.98-.11-1.93.06-2.91.14-.31.02-.65-.02-.95.04.43-.09-.21.43.11.07.18-.2.25-.61.45-.84.28-.33.65-.6.99-.86 1.05-.8 2.08-1.55 2.86-2.63 1.25-1.72 1.52-3.97 1.03-6.01-.46-1.9-1.72-3.68-3.41-4.68-2.29-1.36-5.09-1.03-7.53-.32-1.52.44-3.59 1.32-5.12.37-1.64-1.02.63-3.95 1.14-5.13.94-2.16 1.44-4.69-.04-6.74s-4.29-2.39-6.68-2.16c-5.12.5-9.6 3.32-13.71 6.21-4.05 2.84-7.89 6-11.39 9.5-3.5 3.49-6.66 7.3-9.5 11.35-1.38 1.98-2.59 4.07-3.84 6.13-1.11 1.83-2.2 3.78-3.62 5.38-1.42 1.59-3.35 3.35-5.49 3.83-1.13.25-1.48-.34-2.06-1.19-.66-.97-1.43-1.8-2.38-2.49-3.63-2.66-8.63-2.44-12.55-.61-4.41 2.05-7.62 6.05-10.95 9.45-3.32 3.39-6.92 6.51-10.78 9.27-7.83 5.61-16.56 9.89-25.75 12.75-2.22.69-4.47 1.27-6.74 1.76-1.99.43-1.14 3.43.84 3.04Z"/><path d="M77.21 169.38c1.93-.2 3.52-.79 5.23-1.7s3.49-1.99 5.56-2.11c4.32-.27 8.51 2.09 12.66 2.99 4.22.92 8.58 1.4 12.88.8 2.12-.29 4.15-.97 6.08-1.89 1.78-.85 3.44-1.93 5.26-2.7 3.89-1.64 8.56-.81 10.76 3.05.91 1.6 3.28.19 2.46-1.44-1.73-3.4-5.2-5.69-9.04-5.69-4.33 0-7.93 2.98-11.98 4.1-4.22 1.16-8.66 1.2-12.97.56-4.57-.68-9-2.14-13.59-2.69-2.49-.3-4.86.06-7.12 1.16-1.97.95-3.94 2.73-6.17 3.02-1.59.2-1.65 2.72 0 2.55Z"/></svg>