<?xml version="1.0" encoding="UTF-8"?><svg xmlns="http://www.w3.org/2000/svg" viewBox="0 0 180 180"><path d="M50.48 169.1c.74-4.75.97-9.43.31-14.2-.63-4.53-1.84-8.93-3.22-13.28-1.44-4.53-3.01-9.02-4.32-13.59-.65-2.27-1.49-4.69-1.68-7.05-.07-.9-.07-1.98.54-2.71.41-.49 1.13-.93 1.68-.47.8.66 1.01 2.41 1.28 3.34.33 1.12.62 2.25.91 3.39.57 2.29 1.14 4.57 1.83 6.83s4.1 1.35 3.6-.99c-.91-4.28-1.67-8.59-2.21-12.93-.25-2.04-.48-4.1-.6-6.16-.05-.9-.26-2.88.95-3.18 1.38-.34 2.36 1.38 2.69 2.41.54 1.7.63 3.54.92 5.3.66 4.02 1.6 8 2.15 12.04.27 2.01 3.71 1.55 3.56-.48-.3-4.18-.93-8.32-1.4-12.47-.22-1.95-.47-3.94-.45-5.9 0-.88.3-3.6 1.87-3.23.85.2 1.23 2.12 1.35 2.83.33 1.95.37 3.97.58 5.94.42 4.02 1.01 8.01 1.93 11.94.47 1.98 3.67 1.58 3.57-.48-.19-3.88-.37-7.76-.56-11.65-.05-.98-.1-1.96-.14-2.93-.03-.67-.19-1.56.1-2.2.56-1.26 2.01.17 2.35.88.78 1.63.81 3.69 1.05 5.45.27 1.95.53 3.9.79 5.85q.81 6.12 1.41 12.27c.23 2.36 3.81 2.46 3.76 0-.04-2.03.27-4 .97-5.9.32-.87.74-1.69 1.22-2.49.22-.36.59-.71.78-1.06.12-.23.33 0 .05-.15-.32-.16-.16.06-.17.1-.04.14.26.74.3.91.1.44.18.89.26 1.34.17.97.34 1.95.49 2.93.29 1.92.5 3.86.57 5.81.12 3.67-.34 7.44-2.18 10.67-1.97 3.46-4.76 6.23-5.88 10.15-1.26 4.43-.91 9.1-.28 13.6.3 2.15 3.77 1.6 3.74-.51-.06-4.42-.53-9.13 1.26-13.31.87-2.04 2.3-3.78 3.55-5.59 1.34-1.93 2.38-4.02 3.01-6.28 1.22-4.38.92-9.03.28-13.47-.31-2.16-.64-4.39-1.19-6.5-.51-1.96-1.88-3.79-4.12-3.56-2.59.27-4.01 3.26-4.9 5.36a19.3 19.3 0 0 0-1.51 7.94h3.76c-.38-3.82-.82-7.63-1.33-11.43s-.84-7.63-1.59-11.36c-.64-3.19-3.07-6.42-6.71-5.74-4.09.77-3.56 5.45-3.4 8.56l.63 12.29 3.57-.48c-.88-3.69-1.47-7.43-1.89-11.19-.36-3.21-.24-6.75-1.83-9.66s-5.28-3.05-7.46-.68c-2.41 2.61-1.64 6.8-1.31 10 .46 4.47 1.16 8.91 1.47 13.39l3.56-.48c-.51-3.82-1.38-7.58-2.04-11.38-.55-3.18-.51-7.11-3.11-9.45-2.36-2.13-6.36-2.2-7.98.87-.73 1.38-.79 3.01-.69 4.53.13 2 .35 3.99.58 5.98.53 4.67 1.26 9.32 2.23 13.92l3.6-.99c-.69-2.26-1.26-4.54-1.83-6.83s-1.05-4.99-2.22-7.12-3.64-3.14-5.96-2.14c-2.36 1.02-3.52 3.36-3.58 5.85-.06 2.76.94 5.62 1.69 8.25s1.59 5.25 2.45 7.86c1.62 4.9 3.3 9.79 4.51 14.81 1.39 5.75 2.09 11.81 1.33 17.7-.19 1.51 2.43 1.87 2.67.36Zm88.06-.36c-1.34-10.46 1.91-20.71 5.18-30.51 1.72-5.18 3.74-10.5 4.61-15.9.41-2.57.18-5.37-1.93-7.16-1.82-1.55-4.52-1.86-6.35-.14-1.95 1.83-2.44 5.2-3.07 7.69-.65 2.56-1.26 5.12-2.03 7.65l3.6.99c.86-4.05 1.52-8.13 2.03-12.23.25-2.01.46-4.02.64-6.04.14-1.63.34-3.32-.09-4.93-.88-3.35-4.5-4.56-7.41-2.86-3.1 1.81-3.41 5.49-3.9 8.68-.67 4.32-1.71 8.58-2.29 12.92l3.56.48c.28-3.94.85-7.85 1.3-11.78.38-3.31 1.28-7.47-.38-10.56-1.43-2.66-5.41-3.85-7.55-1.35-2.1 2.44-2.01 6.09-2.33 9.09-.45 4.29-1.06 8.54-2.06 12.74l3.57.48c.18-3.6.37-7.2.55-10.81.15-3.01 1.19-7.77-2.03-9.59-3.18-1.8-6.53.82-7.6 3.77-.65 1.79-.75 3.78-1.01 5.65s-.53 3.8-.78 5.71c-.58 4.31-1.1 8.62-1.53 12.94H115c.05-2.33-.29-4.71-1.09-6.9-.73-2-1.78-4.53-3.63-5.76s-4.2-.58-5.24 1.39c-.98 1.86-1.15 4.31-1.49 6.35-.76 4.5-1.15 9.04-.35 13.56.39 2.19 1.21 4.35 2.33 6.27s2.65 3.67 3.79 5.63c2.64 4.53 2.13 9.84 2.06 14.87-.03 2.08 3.44 2.68 3.74.51.56-3.99.84-7.97.1-11.96-.37-1.98-1.07-3.9-2.1-5.64s-2.29-3.23-3.38-4.89c-4.21-6.41-3.26-14.72-1.68-21.86.05-.24.38-.88.33-1.07.08.28.02-.35 0-.09h-.33c.13.06.25.16.34.28.59.85 1.14 1.7 1.56 2.65.94 2.1 1.32 4.37 1.28 6.66-.05 2.46 3.53 2.36 3.76 0 .4-4.1.88-8.19 1.41-12.27.25-1.87.5-3.74.76-5.62s.28-3.99 1.09-5.68c.34-.71 1.67-2.06 2.32-.98.33.54.17 1.45.15 2.05-.04 1.06-.1 2.12-.15 3.18-.19 3.88-.37 7.76-.56 11.65-.1 2.04 3.1 2.48 3.57.48.93-3.93 1.51-7.92 1.93-11.94.21-1.95.23-3.99.58-5.92.13-.71.5-2.66 1.35-2.85 1.49-.32 1.85 2.13 1.87 3.03.05 2.03-.23 4.09-.45 6.1-.46 4.16-1.1 8.3-1.4 12.47-.14 2.01 3.29 2.52 3.56.48.55-4.04 1.49-8.02 2.15-12.04.29-1.75.37-3.6.92-5.3.33-1.04 1.31-2.72 2.69-2.41 1.21.27 1 2.29.95 3.18-.11 2.06-.35 4.11-.6 6.16-.54 4.34-1.3 8.65-2.21 12.93-.5 2.34 2.89 3.31 3.6.99 1.24-4.06 2-8.27 3.37-12.3.19-.55.46-1.45 1.15-1.48.82-.03 1.42.91 1.61 1.57.62 2.14-.48 4.88-1.04 6.95-2.42 9.04-6.23 17.73-7.8 26.98-.91 5.38-.81 10.63.03 16.02.23 1.5 2.87 1.16 2.67-.36ZM112.16 22.95c2.91 4.9 6.32 9.5 9.65 14.12 1.72 2.38 3.43 4.77 5.09 7.2 1.3 1.9 3.36 4.29 3.56 6.66.12 1.39-1.21 1.43-2.3 1.66-1.5.31-2.91.86-4.01 1.97-2.08 2.09-2.51 5.17-2.91 7.95-.87 6.09-3.83 11.8-8.91 15.44-1.49 1.07-3.11 1.93-4.49 3.15-1.37 1.2-2.3 2.74-2.89 4.45s-.85 3.68-.69 5.53c.1 1.19.44 2.27.68 3.43.4 1.93 3.47 1.49 3.42-.46-.07-2.51-.25-4.85.8-7.24 1.23-2.79 4.26-3.98 6.53-5.75 5.22-4.08 8.68-10.2 9.59-16.76.29-2.13.24-5.66 2.15-7.09 1.04-.78 2.68-.73 3.87-1.21 1.56-.64 2.73-1.89 3.1-3.55.66-3-1.21-5.91-2.8-8.29s-3.27-4.64-4.98-6.91c-3.95-5.25-8.21-10.34-11.79-15.86-1.08-1.66-3.69-.16-2.67 1.56"/><path d="M110.15 21.26a30.75 30.75 0 0 1-4.79 14.51c-1.39-2.37-4.45-3.62-7.11-2.89-2.65.73-4.65 3.37-4.63 6.12.02 2.48 1.48 4.72 3.2 6.5s3.75 3.26 5.34 5.15c-.85 3.11-1.72 6.25-3.3 9.07s-3.94 5.32-6.98 6.39c-4.37 1.55-9.95 2.3-14.59 2.1-3.01-.13-4.81-1.48-7-3.36-1.56-1.34-3.16-2.64-4.68-4.04-2.58-2.37-5.76-5.39-6.1-9.1-.51-5.61 1.1-11.39 4.42-15.94-3.22 1.31-6.62 2.42-10.09 2.27s-7.05-1.79-8.71-4.84c-2.01-3.68-.76-8.34 1.39-11.94 2.22-3.71 5.41-6.89 9.26-8.85 2.95-1.5 6.37-2.33 9.68-2.4 2.19-.05 4.99 0 6.9 1.22 3.34 2.14 4.29 7.55-.03 10.94-1.22.96 2.11-3.92 2.4-4.16 1.08-.91 1.94-2.1 3.15-2.85 2.33-1.45 4.8-2.7 7.38-3.65 6.48-2.39 11.98.39 17.72 3 1.32.6 2.73-.45 4.01-1.12 4.27-2.22 12.47-2.18 15.51 1.54s4.23 8.59 5.34 13.27c.27 1.15.54 2.35.24 3.49s-1.35 2.17-2.52 2.01c-.84-.12-1.48-.79-2.03-1.43-3.67-4.3-6.91-9.65-12.34-11.21"/><path d="M108.59 21.26c-.57 4.84-2.25 9.46-4.9 13.54h3.33c-3.41-5.59-11.91-5.37-14.68.73-1.4 3.08-.73 6.48 1.18 9.2 2 2.85 4.92 4.78 7.18 7.39l-.53-2.02c-1.22 4.43-2.52 9.26-6.16 12.37-1.67 1.43-3.75 2.02-5.85 2.52-2.34.56-4.73.9-7.13 1.03-2 .1-4.26.3-6.13-.56-1.96-.91-3.58-2.63-5.2-4.01-1.82-1.56-3.66-3.15-5.27-4.93-1.28-1.41-2.45-3.06-2.67-4.99-.59-5.15 1.15-10.45 4.13-14.6 1.09-1.52-.75-4.02-2.54-3.3-4.17 1.68-9.28 3.43-13.55 1.08-4.14-2.27-3.97-7.04-2.11-10.85 1.97-4.03 5.24-7.45 9.24-9.49 2.1-1.07 4.48-1.75 6.82-1.99 2.09-.22 4.53-.35 6.55.35 1.46.5 2.46 1.78 2.68 3.23.12.81 0 1.66-.33 2.41-.17.38-.41.76-.67 1.09-.19.23-.45.42-.63.66-.23.32-.5.27.19.05h1.19-.03c.45.34.89.68 1.34 1.02l-.02-.03.31 1.13c0 .19-.02.6-.17.71.09-.07.17-.33.23-.42.22-.36.43-.72.65-1.07.45-.71.91-1.46 1.45-2.1-.63.76.55-.44.69-.58.5-.5.97-1.06 1.53-1.5 1.5-1.18 3.43-2.04 5.16-2.82 3.33-1.51 6.58-2.07 10.15-1.14 1.6.41 3.15 1 4.66 1.66 1.67.72 3.54 2.02 5.41 1.91 1.71-.1 3.01-1.17 4.53-1.82.91-.39 2.15-.69 3.21-.83 2.34-.32 5.03-.21 7.2.8 2.43 1.14 3.77 4.08 4.68 6.55.57 1.56 1.02 3.16 1.43 4.77.38 1.52 1.08 3.28.79 4.85-.02.12-.14.25-.24.3.21-.11-.16-.3-.35-.51-.59-.63-1.14-1.3-1.69-1.97-1.11-1.36-2.17-2.76-3.34-4.08-2.34-2.65-5.09-4.9-8.52-5.94-2.61-.8-3.73 3.29-1.13 4.08 2.97.91 5.17 3.12 7.14 5.43 1.02 1.2 2 2.44 2.98 3.67 1.03 1.3 2.01 2.81 3.63 3.42 1.88.72 3.85-.04 5.01-1.62 1.26-1.7 1.17-3.77.76-5.75-.75-3.56-1.7-7.15-3.24-10.46-1.31-2.81-3.13-5.48-6.03-6.78-2.61-1.17-5.57-1.53-8.42-1.3-1.43.12-2.88.34-4.25.78-1.42.45-2.61 1.3-3.98 1.84-.4.15-.22.13-.51.06-.4-.09-.82-.38-1.2-.55-.97-.44-1.94-.87-2.92-1.28-1.69-.71-3.42-1.35-5.21-1.74-3.87-.84-7.57-.41-11.21 1.1-1.87.78-3.69 1.66-5.44 2.69-1.61.95-2.81 2.15-4.16 3.41-1.26 1.19-2.29 2.81-3.12 4.33-.58 1.05-.96 2.22-.13 3.28 1.3 1.67 3.13.63 4.3-.52 4.62-4.52 3.27-12.51-2.99-14.69-3.28-1.14-7.34-.83-10.68-.17-3.58.7-6.97 2.25-9.86 4.47-5.44 4.2-10.34 11.45-9 18.62.62 3.32 3.03 6.1 6.05 7.52 3.4 1.6 7.13 1.69 10.76.89 1.93-.42 3.79-1.1 5.61-1.84-.85-1.1-1.69-2.2-2.54-3.3-2.19 3.05-3.72 6.62-4.38 10.32-.64 3.6-.84 7.53.85 10.88s4.51 5.69 7.17 7.97c2.65 2.28 5.4 5.13 8.84 6.15s7.84.41 11.43-.17c3.68-.59 7.52-1.49 10.49-3.85 2.92-2.32 4.75-5.62 6.03-9.06.68-1.82 1.35-3.77 1.74-5.68s-2.17-3.75-3.49-4.93c-2.39-2.14-6.38-5.5-4.54-9.14 1.53-3.02 5.71-3.24 7.55-.38.79 1.22 2.55 1.27 3.33 0 2.88-4.68 4.52-9.99 4.68-15.49.06-2.05-2.88-1.93-3.11 0Z"/><path d="M113.43 38.1c-.38 2.08-.13 4.31 1.06 6.1.66.99 1.54 1.78 2.68 2.16.59.19 1.36.28 1.97.11.29-.08.58-.2.84-.36.51-.3.79-.71.99-1.25.18-.47 0-1.03-.29-1.41-.33-.43-.74-.59-1.27-.64-.34-.03-.64.07-.97.12l.47-.06c-.3.03-.6.05-.9 0l.48.07c-.22-.04-.42-.09-.62-.18l.43.18c-.11-.05-.22-.11-.33-.17-.01 0-.16-.09-.16-.11 0 0 .34.29.14.11-.09-.09-.19-.17-.27-.26-.04-.05-.08-.09-.13-.14-.2-.23.2.28.08.1q-.465-.69-.78-1.44l.18.42c-.22-.52-.37-1.06-.5-1.61l-.09-.41-.03-.2c-.03-.17-.02-.14.02.11.03-.02-.03-.37-.04-.42 0-.14-.01-.28-.01-.42 0-.75-.57-1.38-1.31-1.48-.68-.09-1.52.34-1.65 1.08Zm1.59-4.23c.11-.09.22-.19.34-.27-.32.23.07-.05.14-.09.24-.16.5-.3.75-.43.13-.07.26-.13.39-.19.07-.03.13-.06.2-.09-.22.09-.25.1-.09.04.25-.1.5-.2.75-.28.53-.18 1.07-.31 1.62-.42.14-.03.28-.06.43-.08l.21-.03c-.29.04-.34.04-.14.02.29-.03.57-.05.86-.06.92-.03 1.8-.79 1.76-1.76-.04-.92-.77-1.8-1.76-1.76-.73.03-1.47.12-2.18.28s-1.42.46-2.08.76c-1.21.54-2.29 1.4-3.26 2.3-.56.52-.57 1.54 0 2.07.62.57 1.44.53 2.07 0Zm-1.49 24.45c-.41 1.03-.58 2.18-.53 3.28.03.6.13 1.2.31 1.77.09.3.21.59.33.88.16.39.4.69.67 1.02.4.48 1.29.56 1.8.23.54-.35.89-1.03.68-1.68-.1-.32-.17-.69-.36-.98.09.22.11.27.07.16-.02-.04-.03-.09-.05-.13-.04-.12-.08-.23-.12-.35-.14-.44-.22-.89-.29-1.35l.06.41c-.06-.47-.08-.95-.05-1.43 0-.09.05-.23.03-.32-.03.24-.04.28-.01.12 0-.06.02-.12.03-.18q.075-.36.18-.72c.21-.71-.26-1.58-.99-1.75-.82-.19-1.46.25-1.75.99ZM79.01 93.19c.65-5.28 1.38-10.7 1.25-16.03-.05-2.22-.35-4.5-1.21-6.56-.79-1.89-2.77-5.41-5.28-3.87-.71.44-1.02 1.25-.83 2.05.23 1 1.12 1.51 1.64 2.35.45.72.77 1.49 1.02 2.31.54 1.79.68 3.66.74 5.52.16 4.75.07 9.5-.32 14.24-.16 1.95 2.77 1.87 3 0Z"/><path d="M15.16 142.64c1.85-7.63 1.93-16.07 5.71-23.12 2.66-4.96 7.11-8.39 12.25-10.54 10.71-4.47 22.44-3.89 33.65-6.13 4.76-.95 13.04-3.61 12.19-9.96-.23-1.71-2.6-2.31-3.18-.43-.63 2.08-1.86 3.16-3.75 4.14-2.05 1.06-4.52 1.62-6.85 2.05-2.62.49-4.61.67-7.4 1.06-3 .42-6.02.61-9.03 1-11.47 1.51-24.33 4.8-30.62 15.51-4.53 7.71-4.15 17.09-5.95 25.59-.41 1.93 2.5 2.76 2.97.82Zm90.58-54.58c-.8 2.42-1.28 4.96-.69 7.48s2.25 4.49 4.47 5.82c2.04 1.22 4.35 2 6.5 3.01 1.28.6 2.54 1.25 3.77 1.95.57.32 1.13.66 1.68 1.01.27.17.54.38.82.53.66.35 1.21.3 1.92.19 1.08-.16 1.64-1.51 1.39-2.45-.39-1.51-2.05-2.2-3.31-2.92-1.04-.6-2.1-1.15-3.18-1.68-2.09-1.01-4.34-1.76-6.4-2.73-1.58-.74-3.3-1.76-3.99-3.45-.8-1.98-.61-4.33-.4-6.4.16-1.54-2.14-1.68-2.58-.35Zm32.87 24.1c3.64 1.19 7.03 2.53 10.27 4.61 3.05 1.96 5.79 4.34 8.1 7.13s4.2 6.38 5.49 9.93c.67 1.84 1.19 3.75 1.56 5.67.39 2.05.32 4.15.71 6.19.31 1.6 2.69 1.45 3.09 0 .58-2.1.38-4.58.17-6.72s-.6-4.26-1.2-6.33c-1.28-4.35-3.56-8.35-6.43-11.84-5.17-6.28-13.14-11.03-21.36-11.62-1.77-.13-1.96 2.47-.4 2.98m-64.26 53.08c-.19-3.2-.3-6.67 1.55-9.28.8-1.13 1.91-2 2.9-2.96 5.45-5.32 7.11-14.15 3.96-21.08a61.3 61.3 0 0 1 20.45-.5c-.93 3.71-1.38 7.53-1.33 11.35.03 1.97.22 4.02 1.24 5.7 1.21 1.97 3.38 3.13 4.96 4.82 3.5 3.75 3.57 9.45 3.45 14.58-.02.69.39-4.02.02-3.44-.63.98 2.04 5.01.88 5.09-11.26.8-28.12.59-39.36-.44-.06-1.44 1.02-2.09.95-3.53"/><path d="M75.77 165.24c-.09-3.35-.05-6.76 2.47-9.28 2.25-2.25 4.37-4.26 5.77-7.18 2.69-5.63 2.85-12.09.34-17.8l-1.1 2.71c6.39-1.21 13-1.35 19.44-.42l-1.35-2.38c-.97 3.86-1.54 7.88-1.47 11.87s1.06 6.98 4.03 9.5c1.17 1 2.48 1.91 3.39 3.17.87 1.22 1.39 2.6 1.73 4.04s.48 3.02.53 4.56-.14 2.98.07 4.42c.3 2.05 3.34 1.73 3.84 0 .25-.85.21-1.92.23-2.8.05-1.49-.3-3.54-2.34-3.24-1.88.27-2.08 2.3-1.67 3.79.17.64.44 1.25.67 1.87.11.29.19.59.3.87.17.41 0 .15.09-.1l.52-.89c.97-.35 1.14-.48.5-.4l-.51.03c-.4.02-.81.05-1.21.07-.72.04-1.44.07-2.16.1-1.59.07-3.18.11-4.76.14-3.45.07-6.91.06-10.37 0-6.57-.11-13.11-.59-19.67-.94l2.13 2.13c-.01-1.21.75-2.26.7-3.53-.09-2.44-3.54-2.38-3.75 0-.04.47-.43.9-.64 1.31-.37.73-.52 1.4-.57 2.22-.08 1.25 1.05 1.99 2.13 2.13 6.69.85 13.56.84 20.29.86 3.58.01 7.15-.04 10.72-.14 1.63-.05 3.25-.11 4.88-.19 1.36-.07 3.37.17 4.58-.51 1.38-.77 1.31-2.37.87-3.66-.19-.55-.42-1.08-.62-1.63-.11-.3-.21-.6-.3-.91-.02-.08-.14-.25-.05-.13q0 .15 0 0c0-.44-.16-.14-.46.89l-.88.51h.03c-.65-.18-1.29-.35-1.94-.52l.03.03-.51-.88c.07.19 0-.57-.01-.15v.4c0 .37-.02.74-.04 1.11-.02.33-.04.65-.07.97s-.21.87 0 .14h3.84c.16 1.08.08-.03.09-.29 0-.38.01-.76.02-1.14 0-.77 0-1.54-.03-2.3-.06-1.57-.22-3.15-.53-4.69-.63-3.09-2.08-5.94-4.47-8.04-1.13-.99-2.46-1.86-3.38-3.06-.98-1.27-1.18-2.91-1.24-4.47-.14-3.87.26-7.72 1.17-11.48.22-.91-.29-2.23-1.35-2.38-7.17-.97-14.34-.78-21.45.59-1.28.25-1.54 1.72-1.1 2.71 2.27 5.11 1.61 11.31-1.34 16.01a16.5 16.5 0 0 1-2.6 3.17c-1.19 1.14-2.5 2.24-3.28 3.72-1.53 2.9-1.3 6.35-1.01 9.5.16 1.78 2.88 1.85 2.83 0Zm65.85-25.42c.91 8.17 1.11 16.42.59 24.62-.06.96-.14 1.94-.51 2.82s-1.11 1.67-2.06 1.86c-.56.11-1.23-.05-1.52-.54-.16-.26-.18-.58-.21-.89-.49-6.8.51-13.71 2.91-20.09"/><path d="M140.14 139.82c.15 4.26.4 8.52.47 12.79s.18 8.53-.39 12.66c-.05.36-.11.76-.24 1.1-.1.27-.36.48-.46.72-.07.06-.14.1-.21.14.43.6.61.68.52.24.14-.37-.08-1.22-.1-1.63-.08-2.01-.09-4.03.1-6.04.38-4.01 1.35-7.95 2.74-11.72.8-2.17-2.67-3.11-3.47-.96-1.38 3.73-2.28 7.58-2.76 11.52-.23 1.92-.39 3.87-.42 5.8-.02 1.68-.3 4.12.85 5.5s3.2 1.41 4.67.52c1.6-.97 2.34-2.75 2.57-4.52.53-4.05.42-8.27.33-12.34-.09-4.75-.43-9.5-1.29-14.17-.3-1.65-2.98-1.26-2.92.39Zm-96.94-5.24-1.42 13.08c-.34 3.13-.68 6.27-.69 9.42 0 2.14.14 4.32.85 6.34s2.95 3.89 4.85 4.89c.26.14.55.26.84.23.72-.08 1-.96 1.09-1.68 1.01-7.89-1.75-15.83-3.59-23.56"/><path d="M41.7 134.17c-.82 4.79-1.48 9.61-2.03 14.43s-1.16 9.51-.09 14.05c.48 2.04 1.49 3.77 3.03 5.2 1.35 1.26 3.59 3.13 5.58 2.67 2.32-.54 2.56-3.1 2.68-5.05.15-2.35 0-4.69-.31-7.03-.72-5.32-2.32-10.45-3.6-15.65-.58-2.36-4.2-1.36-3.65 1.01.94 3.99 2.08 7.94 2.86 11.97.38 1.98.66 3.97.75 5.98.04.93.05 1.86 0 2.79-.02.46-.05.93-.1 1.39-.02.24-.05.47-.1.7q-.3.795.48-.21l1.04.28c-2.03-.91-3.98-2.51-4.58-4.71-.79-2.87-.58-6-.37-8.93.43-6.17 1.18-12.3 1.46-18.49.08-1.72-2.75-2.16-3.05-.41Z"/></svg>