<?xml version="1.0" encoding="UTF-8"?><svg xmlns="http://www.w3.org/2000/svg" viewBox="0 0 180 180"><path d="M70.77 62.81c-11 2.37-21.87 5.27-32.79 8.02-2.63.66-5.27 1.3-7.92 1.91-2.05.47-4.21.79-6.12 1.71s-3.03 2.47-3.24 4.49c-.1 1.02.02 2.06-.05 3.09-.08 1.22-.28 2.44-.38 3.66-.21 2.34.05 4.63 1.64 6.46 1.29 1.5 2.94 2.53 4.73 3.32 4.72 2.09 9.26 4.6 13.76 7.12 9.44 5.28 18.62 11.02 27.63 17.02 4.47 2.98 8.91 6.02 13.31 9.11 4.41 3.09 8.72 6.33 13.18 9.34 2.13 1.44 4.48 2.53 7.09 2.58 2.83.05 5.61-.96 8.3-1.72 5.49-1.54 10.98-3.09 16.47-4.63s10.98-3.09 16.47-4.63c2.86-.81 5.74-1.57 8.6-2.42 2.63-.78 4.08-2.23 4.38-5 .3-2.75.48-5.52.71-8.28.11-1.26.29-2.54 0-3.79-.32-1.35-1.2-2.35-2.28-3.16-4.32-3.24-8.98-6.12-13.51-9.07-18.24-11.87-37.16-22.76-56.54-32.63-2.37-1.21-4.75-2.4-7.14-3.58-2.38-1.17-4.48 2.39-2.09 3.58 18.39 9.1 36.33 19.1 53.72 29.99 4.38 2.74 8.7 5.6 13 8.45 2.09 1.39 4.17 2.78 6.24 4.19 1.04.71 2.07 1.41 3.1 2.13.93.64 1.34.91 1.29 2.08-.11 2.6-.42 5.21-.64 7.81-.05.65.06 2.33-.33 2.73-.54.57-2.24.73-2.97.93-5.25 1.49-10.5 2.99-15.74 4.48-5.25 1.49-10.5 2.99-15.74 4.48-2.54.72-5.09 1.45-7.63 2.17s-5.07 1.74-7.66 1.68c-2.27-.05-4.2-1.47-5.98-2.73-2.02-1.44-4.02-2.89-6.04-4.32-4.19-2.98-8.4-5.94-12.64-8.85-8.41-5.77-16.94-11.38-25.7-16.6-4.34-2.59-8.74-5.09-13.2-7.48-2.25-1.21-4.52-2.41-6.82-3.53-1.61-.79-3.44-1.34-4.9-2.41-1.53-1.12-1.99-2.21-1.89-4.06.12-2.26.48-4.44.45-6.71-.02-1.34.98-1.65 2.23-2.01 2.09-.61 4.24-1.02 6.35-1.53 10.31-2.54 20.47-5.64 30.73-8.4 2.46-.66 4.93-1.3 7.4-1.9 2-.48 1.15-3.5-.85-3.07Z"/><path d="M23.95 80.05c16.58 7.06 32.92 14.63 47.98 24.61 7.93 5.26 15.67 10.83 23.46 16.29 1.94 1.36 3.92 2.68 5.82 4.09 1.07.79 1.68 1.47 3.1 1.2 1.22-.23 2.44-.52 3.66-.81 4.7-1.1 9.39-2.19 14.09-3.29 10.69-2.49 21.39-4.93 32.1-7.34 2.8-.63 1.61-5-1.19-4.31-16.63 4.08-33.35 7.82-49.93 12.06l1.49.2c-5.26-3.25-10.24-7.05-15.32-10.59s-10.1-7.09-15.25-10.49c-9.69-6.4-19.94-11.91-30.47-16.8-6.01-2.79-12.12-5.36-18.31-7.73-1.67-.64-2.89 2.2-1.23 2.91"/><path d="m103.26 125.57.21 10.91c15.27-4 30.52-8.07 45.76-12.21l.78-7.26c-8.17 2.95-16.92 3.76-25.46 5.33-6.18 1.13-12.27 2.67-18.36 4.21"/><path d="M101.64 125.57c-.23 3.63-.21 7.27-.18 10.91.01 1.33 1.27 2.24 2.54 1.93 15.33-3.75 30.53-8.06 45.78-12.13.97-.26 1.43-1.09 1.54-2.02.27-2.42.54-4.84.83-7.26.17-1.36-1.51-2.48-2.72-2.07-7.02 2.35-14.31 3.36-21.59 4.56-7.5 1.24-14.91 2.95-22.23 4.99-2.66.74-1.54 4.74 1.14 4.13 7.42-1.69 14.77-3.55 22.29-4.77s14.63-2.15 21.53-4.76c-.91-.69-1.81-1.38-2.72-2.07-.22 2.42-.48 4.84-.73 7.26l1.54-2.02c-15.21 4.21-30.54 8.04-45.73 12.3.85.64 1.69 1.29 2.54 1.93-.11-3.64-.24-7.28-.6-10.91-.21-2.05-3.1-2.11-3.23 0m-4.53 13.09c-.12 9.33.57 18.67 2.06 27.89.21 1.32.62 2.87 1.88 3.34 1.07.39 2.29-.25 2.92-1.2s.8-2.12.93-3.24c1.02-8.74.68-17.56.34-26.35-2.69.33-5.45.12-8.06-.61"/><path d="M95.43 138.66c-.23 4.91-.22 9.82.13 14.72s.79 9.57 1.73 14.21c.38 1.88 1.41 3.77 3.38 4.31 2.05.56 4.14-.62 5.19-2.37 1.14-1.9 1.16-4.38 1.34-6.53.21-2.43.32-4.87.36-7.31.1-5.54-.07-11.08-.26-16.61-.03-1.03-.92-2.16-2.05-2.05-1.35.13-2.71.13-4.06.03s-2.65-.45-4-.57c-1.92-.18-2.76 2.89-1 3.7 2.75 1.27 6.09 1.34 9.06.95l-2.05-2.05c.36 8.14.67 16.29-.13 24.41-.1.96-.02 3.96-1.19 4.39-.22.08-.26-.08-.43-.53-.29-.81-.37-1.72-.5-2.56-.63-4.03-1.04-8.08-1.4-12.14-.41-4.65-.66-9.32-.77-13.99-.05-2.17-3.26-2.16-3.36 0Zm49.82-11.92c.13 7.27 1.34 16.11 2.11 23.34.27 2.59.65 5.24 1.89 7.53.2.37.43.74.78.97.7.46 1.69.23 2.31-.33s.95-1.37 1.21-2.16c3.65-10.93-1.65-24.72.63-36.01-2.44-.11-4.48 2.35-6.41 3.84"/><path d="M143.64 126.74c.04 5.4.48 10.76 1.04 16.13.28 2.69.56 5.39.87 8.07s.74 5.31 2.04 7.63c1.37 2.44 4.38 2.85 6.34.77 1.54-1.64 2.02-4.4 2.36-6.54.8-5.06.37-10.15-.11-15.22-.54-5.59-1.35-11.45-.21-17.02.24-1.18-.52-2.34-1.79-2.35-3.21-.02-5.51 2.35-7.78 4.33-1.63 1.42.55 4.32 2.34 3.03 1.55-1.11 3.37-3.61 5.44-3.65l-1.79-2.35c-1.66 8.99.61 17.93.6 26.94 0 2.16-.13 4.32-.57 6.43-.21.99-.45 2.02-.83 2.97-.12.29-.31.54-.43.81-.04.09-.49.25-.15.25.23 0 0-.09-.11-.33-1.85-4.31-1.91-9.17-2.47-13.78-.66-5.35-1.38-10.74-1.57-16.13-.07-2.06-3.24-2.08-3.22 0ZM24.81 95.38l-2.37 22.58c-.2 1.86-.09 4.25 1.65 4.93 1.06.41 2.29-.09 3.07-.91s1.18-1.92 1.55-2.99c2.27-6.53 2.64-13.26 3.69-20.1.03-.22.07-.45-.01-.66-.1-.27-.35-.44-.6-.59-2.25-1.4-3.4-2.48-5.96-3.16"/><path d="M23.18 95.38c-.31 2.62-.83 5.23-1.17 7.85s-.64 5.4-.93 8.1c-.27 2.46-.67 4.95-.77 7.43-.07 1.9.29 4 1.81 5.3 1.83 1.57 4.49 1.16 6.19-.39 1.63-1.49 2.3-3.89 2.91-5.94 1.44-4.85 1.99-9.89 2.64-14.89.18-1.35.53-2.76.57-4.11s-.7-2.22-1.8-2.93c-1.99-1.29-3.92-2.66-6.27-3.21-2.48-.57-3.44 2.99-1.05 3.8 1.51.51 2.78 1.23 4.11 2.11.33.22.65.48 1 .65.1.05.77.5.17-.05-.41-.38-.12-.21-.26.19-.32.92-.29 2.12-.42 3.09-.52 3.96-.97 7.93-1.89 11.82-.41 1.74-.86 3.55-1.57 5.2-.27.61-1.3 2.34-1.83 1.23-.6-1.27-.02-3.32.11-4.62.21-2.04.41-4.09.62-6.14.24-2.37.47-4.74.66-7.12s.21-4.93.43-7.36c.19-2.1-3.01-2.04-3.25 0Zm40.27 18.92c.63 2.2 1.25 4.41 1.88 6.61.32 1.12.65 2.27 1.36 3.2s1.88 1.59 3.02 1.36c1.02-.21 1.8-1.08 2.14-2.06s.31-2.05.21-3.08c-2.37-.2-4.68-1.08-6.59-2.5"/><path d="M62 114.7c.5 2.08 1.01 4.17 1.57 6.24.52 1.95 1.1 3.98 2.77 5.27 1.8 1.39 4.13 1.44 5.85-.1 1.62-1.44 1.89-3.74 1.71-5.78-.1-1.07-.77-1.73-1.84-1.84-.12-.01-.25-.02-.37-.04.3.04-.11-.02-.16-.03-.28-.05-.55-.11-.83-.18-.55-.14-1.08-.31-1.61-.51-.09-.03-.26-.11-.07-.03-.11-.05-.23-.1-.34-.16q-.375-.18-.75-.39c-.52-.29-1-.64-1.5-.96-.79-.51-1.89-.22-2.44.49s-.58 1.88.15 2.48c2.22 1.83 5.09 2.76 7.93 2.99l-1.84-1.84c.04.39.08.78.08 1.17 0 .2 0 .39-.01.58-.02.53.08-.23-.03.29-.04.19-.09.37-.15.56-.14.43.15-.21-.09.17-.02.03-.31.45-.09.18-.1.13-.22.24-.34.35.23-.2-.08.04-.17.09.26-.14-.06.01-.18.04.3-.07-.05-.01-.18-.02.26.01.06 0-.09-.04-.08-.02-.16-.05-.23-.08.14.06.16.06.05 0-.06-.03-.43-.27-.31-.18s-.22-.21-.26-.25c-.06-.06-.12-.12-.17-.19q.12.15 0 0c-.19-.28-.35-.57-.49-.88.11.24-.09-.22-.11-.26-.07-.17-.13-.35-.18-.52-.26-.78-.48-1.58-.72-2.37-.51-1.7-1.08-3.38-1.63-5.07-.6-1.84-3.37-1.1-2.91.8ZM42.88 74.16c6.22 3.3 12.64 6.23 18.89 9.48a419 419 0 0 1 18.21 10.09c12.12 7.1 23.9 14.76 35.39 22.83 1.51 1.06 3.01 2.12 4.51 3.19.87.62 1.74 1.25 2.61 1.88.69.5 1.42 1.16 2.27 1.38 1.89.48 3.87-1.24 2.89-3.17-.75-1.48-2.76-1.71-3.66-.24-1.01 1.66 1.41 3.63 2.74 2.11l.11-.12-1.24.51-1.34-1.16.54-1.3.35-.24h1c-.63-.13-1.19-.68-1.72-1.06-.62-.45-1.25-.89-1.87-1.33a680 680 0 0 0-11.55-8.01c-5.17-3.52-10.39-6.95-15.68-10.29-10.45-6.59-21.13-12.8-32.13-18.43-6.24-3.19-12.61-6.39-19.22-8.75-1.53-.55-2.52 1.86-1.1 2.61Zm16.24-5.01c11.49 4.21 22.32 10.21 32.76 16.55 10.48 6.36 20.85 13.02 30.86 20.11 5.71 4.04 11.16 8.37 16.51 12.87 1.94 1.63 4.75-1.09 2.82-2.82-9.48-8.5-20.42-15.37-31.09-22.25-10.44-6.72-20.92-13.43-31.97-19.11-6.17-3.17-12.52-5.99-19.1-8.19-1.81-.61-2.53 2.19-.78 2.83Zm17.51-22.02c-1.21-11.08-1.38-22.28-1.54-33.41l-.97 1.69c3.53-1.68 7.33-3.5 11.33-3.42 2 .04 3.85.73 5.66 1.53 1.96.87 3.91 1.76 5.87 2.63 7.74 3.47 15.48 6.93 23.23 10.38 7.16 3.19 14.29 6.46 21.14 10.29 3.41 1.91 6.74 3.95 9.95 6.18.8.56 1.6 1.13 2.38 1.71.49.36 1.25.75 1.48 1.35.3.78.04 2.2.04 3.04 0 1.08.02 2.15.02 3.23.07 9.76.13 19.52.24 29.28l2.21-2.21q-5.28.435-10.56.84c-1.28.1-3.05.63-4.15-.14-1.35-.94-2.62-2.03-3.94-3.01-5.34-3.95-10.94-7.54-16.67-10.9-8.63-5.07-17.47-9.86-26.67-13.8-6.54-2.8-13.21-5.19-20.02-7.23-2.55-.76-3.6 3.15-1.09 3.96 10.74 3.46 21.21 7.65 31.22 12.86 10.46 5.44 20.76 11.38 30.28 18.35 1.48 1.08 2.9 2.23 4.37 3.33 1.62 1.21 3.29 1.24 5.24 1.09 4-.31 8-.62 12-.91 1.19-.09 2.22-.94 2.21-2.21-.03-9.1-.1-18.2-.16-27.3-.02-2.32-.03-4.63-.05-6.95-.02-2.4-.55-4.12-2.5-5.61-3.26-2.51-6.72-4.77-10.26-6.87-7.14-4.23-14.66-7.75-22.22-11.12-8.14-3.62-16.32-7.13-24.5-10.67-2.35-1.02-4.7-2.04-7.06-3.05s-4.52-1.83-7.01-1.99c-4.94-.33-9.65 1.89-13.99 3.98-.6.29-.98 1.04-.97 1.69.2 11.16.93 22.35 2.41 33.41.11.82.62 1.51 1.52 1.52.75 0 1.6-.7 1.52-1.52Z"/><path d="M73.52 16.25c10.93 5 21.84 10.01 32.8 14.94 5.46 2.46 10.97 4.85 16.39 7.4 5.12 2.4 9.71 5.78 14.6 8.61 1.36.78 2.72 1.55 4.1 2.29 1.3.7 2.69 1.46 4.21 1.41 1.61-.06 3.21-.73 4.74-1.2 1.71-.53 3.46-.99 5.06-1.79.86-.43 1.14-1.58.79-2.41-.4-.95-1.31-1.26-2.28-1.12-1.36.2-2.67.68-3.98 1.1-1.35.43-2.91 1.19-4.33 1.32-1.1.1-2.13-.65-3.06-1.14q-1.875-.975-3.72-2.01c-4.73-2.64-9.15-5.84-14.07-8.12-10.46-4.86-21.1-9.37-31.64-14.05-6-2.67-12.07-5.19-18.09-7.82-1.74-.76-3.28 1.78-1.51 2.59Z"/><path d="M144.91 49.84c.83 10.5.73 21.08-.32 31.56 3.94.44 7.96.23 11.84-.63.3-.07.62-.15.81-.39.21-.27.19-.66.15-1-.28-2.72-.56-5.45-1.01-8.15-.64-3.86-1.62-7.67-2.03-11.57-.4-3.9-.19-7.96 1.46-11.52-2.69.43-5.36 1.07-7.95 1.91"/><path d="M143.4 49.84c.18 2.61.05 5.27.11 7.89.05 2.63.03 5.27 0 7.9-.08 5.27-.38 10.53-.91 15.77-.12 1.15 1.01 1.89 2 2 4.02.43 8.44.4 12.37-.68 2.19-.6 2.56-2.26 2.35-4.3-.22-2.1-.46-4.2-.76-6.3-1.08-7.35-4.28-15.72-.96-22.95.79-1.72-.5-3.29-2.32-3.01-2.77.42-5.91.84-8.37 2.23-1.56.88-.99 3.8.97 3.58 2.86-.31 5.65-1.36 8.49-1.86-.77-1-1.54-2.01-2.32-3.01-2.27 5.18-2.12 10.62-1.21 16.11.46 2.78 1.1 5.53 1.56 8.32.24 1.41.42 2.82.59 4.24s.51 2.92.38 4.3l.28-1.02c.4-.28.33-.32-.21-.13l-.47.09c-.47.09-.94.18-1.41.25-1 .15-2.01.24-3.02.3-1.98.11-3.97.04-5.94-.16l2 2c.51-5.24.8-10.51.82-15.77.01-2.63-.07-5.27-.2-7.9-.13-2.65-.56-5.25-.79-7.89-.17-1.91-3.15-1.95-3.02 0Z"/><path d="M75.36 32.74c4.7 2.25 9.26 4.78 14 6.97 4.75 2.2 9.66 3.73 14.59 5.45 9.42 3.29 18.3 8.16 26.95 13.1 2.47 1.41 4.92 2.85 7.35 4.33 2.46 1.49 4.86 3.39 7.48 4.57 1.71.77 3.84-1.36 2.18-2.82-1.87-1.65-4.2-2.85-6.33-4.15-2.23-1.35-4.46-2.69-6.72-3.99-4.43-2.56-8.93-5.02-13.49-7.35-4.43-2.27-8.94-4.39-13.59-6.18-4.84-1.86-9.89-3.12-14.64-5.21-2.66-1.17-5.29-2.39-7.94-3.58-2.78-1.24-5.65-2.31-8.42-3.56-1.63-.74-3.06 1.64-1.42 2.43Zm7.21 19.89c-.22 3.02-.22 6.06-.5 9.08-.14 1.48-.23 2.96.44 4.33a4 4 0 0 0 3.38 2.24c.92.06 1.77-.84 1.74-1.74-.09-2.71-.17-5.41-.26-8.12-.04-1.33-.05-2.66-.13-3.99-.04-.73-.17-1.42-.68-1.98-.58-.63-1.56-.97-2.38-.62-.89.38-1.53 1.18-1.25 2.2.23.84 1.3 1.63 2.2 1.25h-.14c-.3-.07-.6-.15-.9-.23-.32-.87-.47-1.1-.43-.71 0 .12.01.25.02.37l.03.83.06 1.51c.04 1.05.08 2.11.13 3.16.08 2.11.17 4.22.25 6.33l1.74-1.74q.225.06-.09-.03c.14.05.11.02-.08-.08.18.14-.13-.24-.04-.07-.07-.11-.13-.22-.19-.34.05.1.05.07 0-.07-.07-.23-.09-.44-.1-.69-.02-1.2.13-2.42.17-3.62.09-2.58-.02-5.09-.56-7.62-.31-1.44-2.34-1-2.44.33Zm27.68 12.25c-.22 3.53-.22 7.07-.48 10.59-.12 1.66-.34 3.42.27 5.02.61 1.59 1.8 2.72 3.53 2.87.92.08 1.76-.86 1.74-1.74-.09-3.31-.18-6.62-.26-9.93-.04-1.61-.02-3.25-.13-4.86-.13-1.83-1.6-3.32-3.48-2.37-.86.44-1.11 1.65-.64 2.45.51.88 1.58 1.08 2.45.64l.16-.08-.9.24.18.02-.9-.24-.06-.02-.46-.79c.34.81.16 2.36.2 3.36.04 1.27.08 2.54.13 3.81.09 2.59.17 5.19.26 7.78l1.74-1.74c.12 0-.25-.47-.28-.56-.2-.51-.21-1.09-.21-1.63 0-1.46.15-2.92.19-4.38.08-2.97-.06-5.85-.57-8.77-.25-1.45-2.36-.99-2.44.33Zm31.68 17.78c-.22 3.53-.22 7.07-.48 10.59-.12 1.66-.34 3.42.27 5.02.61 1.59 1.8 2.72 3.53 2.87.92.08 1.76-.86 1.74-1.74-.09-3.31-.18-6.62-.26-9.93-.04-1.61-.02-3.25-.13-4.86-.13-1.83-1.6-3.32-3.48-2.37-.86.44-1.11 1.65-.64 2.45.51.88 1.58 1.08 2.45.64l.16-.08-.9.24.18.02-.9-.24-.06-.02-.46-.79c.34.81.16 2.36.2 3.36.04 1.27.08 2.54.13 3.81.09 2.59.17 5.19.26 7.78l1.74-1.74c.12 0-.25-.47-.28-.56-.2-.51-.21-1.09-.21-1.63 0-1.46.15-2.92.19-4.38.08-2.97-.06-5.85-.57-8.77-.25-1.45-2.36-.99-2.44.33Z"/></svg>