<?xml version="1.0" encoding="UTF-8"?><svg xmlns="http://www.w3.org/2000/svg" viewBox="0 0 180 180"><path d="M59.02 85.58c-10.16-5.93-20.63-12.04-28.03-21.42-6.33-8.03-9.9-18.53-6.59-28.56 1.41-4.27 4.1-8.25 7.89-10.75 4-2.63 8.78-3.44 13.49-2.91 10.02 1.14 18.39 7.83 23.83 16 6.66 10.01 9.61 22.01 11.36 33.76.17 1.14 1.61 1.76 2.62 1.49 1.23-.34 1.64-1.47 1.49-2.62-1.64-12.1-3.12-24.84.53-36.73 3.02-9.84 9.97-18.6 20.35-21.04 4.48-1.06 9.26-.61 13.36 1.54 3.89 2.04 6.96 5.29 9.2 9.03 5.02 8.38 6.23 19.07 3.67 28.46-1.58 5.82-4.86 10.72-9.23 14.83-4.38 4.11-9.49 7.33-14.56 10.51-.96.6-1.41 1.81-.94 2.87.41.94 1.64 1.78 2.71 1.33 8.76-3.65 18.09-7.49 27.76-7.23 8.79.23 16.6 4.79 21.87 11.73 4.32 5.7 6.99 13.77 4.57 20.78-1.27 3.68-4.18 6.27-7.56 8.04-4.14 2.16-8.92 3.38-13.55 3.78-11.42.98-22.3-3.18-32.76-7.2-2.64-1.01-4.31 3.18-1.9 4.51 7.78 4.33 15.82 9.58 20.2 17.61 3.86 7.07 3.55 15.65-.36 22.65-4.02 7.2-11.37 11.47-19.61 11.47-3.97 0-7.95-.95-11.45-2.82-4.01-2.15-7.08-5.42-9.32-9.36-2.88-5.07-4.49-10.94-4.83-16.75-.17-2.86.14-5.66.25-8.51.11-2.7-.38-5.39-2.35-7.37-2.22-2.24-5.68 1.22-3.46 3.46 1.4 1.41.93 3.95.78 5.73-.25 2.84-.28 5.68 0 8.52.58 5.87 2.2 11.66 5.02 16.86 4.85 8.95 13.6 14.57 23.77 15.2 9.55.59 18.56-3.73 24.08-11.53s6.9-17.79 3.51-26.37c-4.24-10.71-13.99-17.64-23.73-23.02l-1.9 4.51c10.22 3.9 20.84 7.86 31.96 7.47 5.43-.19 10.82-1.36 15.81-3.49 4.38-1.87 8.43-4.72 10.79-8.96 4.27-7.71 2.47-17.48-1.81-24.78-4.73-8.08-13.04-14.54-22.32-16.28-12-2.25-23.79 2.39-34.66 6.96l1.77 4.2c9.94-6.24 20.14-13.08 24.66-24.41 4.17-10.45 3.4-22.99-1.54-33.04-4.55-9.26-13.46-16.4-24.17-15.87-11.84.58-21.6 8.98-26.25 19.52-6.15 13.96-4.34 29.13-2.53 43.8l4.18-.57c-1.63-11.39-4.43-22.92-10.42-32.87-5.73-9.53-14.61-17.47-25.76-19.71-5.37-1.08-10.92-.74-15.95 1.52-4.78 2.15-8.63 6.13-10.98 10.79-5.22 10.35-3.38 22.29 2.65 31.87 7.68 12.21 20.43 19.49 32.71 26.32 1.9 1.06 3.58-1.82 1.7-2.91Z"/><path d="M58.04 85.39c-1.91-.85-3.81-1.73-5.83-2.3s-4.15-.96-6.27-1.21c-4.23-.5-8.47-.32-12.67.4-7.66 1.31-16.79 4.72-20.26 12.26s-1.59 15.86 3.33 22.2c4.71 6.06 11.68 10.06 19.03 12 4.2 1.11 8.59 1.61 12.93 1.58s9.06-.31 13.2-1.65c2.25-.73 2.02-4.64-.59-4.36-3.42.37-6.77 1.03-10.22 1.16-3.4.13-6.85-.01-10.2-.59-6.56-1.12-12.96-3.74-17.81-8.38s-7.8-10.88-6.15-17.4c1.8-7.13 8.98-10.06 15.48-11.73 7.99-2.05 16.99-1.7 24.82.91 1.68.56 2.88-2.16 1.22-2.9Z"/><path d="M55.65 126.65c-1.63 3.08-3.67 5.92-5.97 8.54-1.04 1.19-2.11 2.38-3.24 3.49-1.21 1.19-2.6 2.17-3.84 3.32-2.2 2.04-3.96 4.66-3.42 7.77.47 2.71 2.61 4.92 4.9 6.27 2.46 1.45 5.39 2.06 8.18 1.27 2.76-.78 4.99-2.75 6.79-4.91 3.8-4.55 6.86-9.68 10.17-14.58 3.63-5.38 7.5-10.33 12.69-14.27 2.14-1.63.33-5.08-2.17-3.71-4.72 2.6-8.35 7.34-11.48 11.6-3.26 4.43-6.11 9.14-9.27 13.64-2.25 3.2-5.7 8.94-10.27 8-1.88-.38-4.02-1.6-4.89-3.38-.99-2.02 1.04-3.77 2.49-5.09 2.51-2.28 4.77-4.59 6.84-7.29 2.24-2.92 4.1-5.99 5.52-9.39.73-1.73-2.16-2.92-3.03-1.28m25.44-25.91c-5.44-5-11.07-9.96-17.6-13.49-3.12-1.69-6.57-3.18-10.08-3.82-1.76-.32-3.57-.55-5.36-.68s-4.04-.38-5.64.49c-1.28.69-.78 2.37.37 2.83 1.48.59 3.47.29 5.06.48 1.67.2 3.27.61 4.88 1.12 3.17 1 6.24 2.1 9.21 3.6 6.16 3.1 11.66 7.33 16.95 11.71 1.53 1.27 3.73-.83 2.22-2.22Zm4.83-5.98c.64-7.06.18-14.08-.6-21.11-.39-3.52-.87-7.03-1.23-10.56s-.54-7.06-.91-10.58c-.24-2.22-3.28-2.26-3.48 0-.63 6.98.74 14.22 1.61 21.14s1.81 14.04 1.46 21.11c-.1 2.05 2.97 1.99 3.16 0Zm7.71-.08c4.12-4.62 8.7-8.8 13.99-12.04 2.59-1.59 5.37-2.96 8.18-4.1 2.39-.97 7.42-1.97 7.96-5.02.26-1.49-.84-2.62-2.34-2.34-.84.16-1.43.73-2.15 1.15-.64.38-1.31.68-2.01.95-1.44.55-2.87 1.1-4.28 1.72-2.91 1.28-5.65 2.88-8.29 4.66-5.26 3.55-9.95 7.87-13.63 13.05-1.07 1.51 1.34 3.36 2.56 1.98Zm-2.7 11.71c4.65 2.2 9.19 4.6 13.75 6.98 2.25 1.17 4.48 2.39 6.71 3.59 1.12.6 2.23 1.22 3.33 1.84 1.23.69 2.39 1.48 3.84 1.55s2.5-1.74 1.71-2.99c-.73-1.15-1.88-1.73-3.04-2.39s-2.35-1.32-3.54-1.96c-2.3-1.25-4.64-2.42-7-3.56-4.71-2.28-9.59-4.23-14.47-6.12-1.75-.68-3 2.25-1.29 3.06"/><path d="M81.6 111.89c-.93 3.32-1.68 6.67-2.08 10.09-.2 1.7-.31 3.41-.44 5.12-.15 1.86-.36 3.74-.05 5.6s3.1 1.62 3.62 0 .52-3.49.62-5.2.21-3.41.28-5.12c.13-3.26.27-6.51.75-9.74.25-1.73-2.2-2.53-2.7-.74Z"/><path d="M24.52 123.88c-4.28 1.12-8.12 3.86-10.57 7.54-1 1.51-1.8 3.27-1.65 5.08.14 1.64 1.04 3.13 2.17 4.31 4.12 4.3 10.72 4.79 16.68 4.96 3.16.09 6.42.15 9.38-.96-2.31 3.1-4.44 6.33-6.38 9.67-.53.9-1.05 1.86-1.12 2.9-.17 2.49 2.18 4.36 4.35 5.58 1.65.93 3.35 1.76 5.1 2.5s3.68 1.38 5.5.87c2.47-.69 3.87-3.21 5.22-5.39 1.56-2.51 3.4-4.86 5.46-6.97.28-.29.61-.59 1.01-.6.35-.01.67.21.95.41 1.61 1.15 3.26 2.24 4.96 3.24 6 3.55 13.09 6.2 19.87 4.57-3.12-4.75-6.3-9.65-7.49-15.2-1.29-6.01-.14-12.26 1.42-18.2-4.55 5.19-9.11 10.38-13.66 15.58-3.1 3.54-6.24 7.1-10.01 9.91-2.68 1.99-6.2 3.61-9.26 2.3-3.02-1.29-4.28-4.82-5.22-7.96-.22-.74-.44-1.52-.29-2.27.13-.64.5-1.19.88-1.72 3.12-4.46 6.42-8.79 9.91-12.98-9.01 1.84-18.06-2.25-26.35-6.23"/><path d="M24.11 122.41c-3.58.81-6.8 2.52-9.45 5.07-2.66 2.56-5.07 6.35-4.28 10.19.74 3.59 4.01 6.38 7.21 7.83 3.21 1.45 6.68 1.98 10.17 2.21 4.38.3 9.13.61 13.33-.89l-2.34-3.04c-2.27 3.27-4.56 6.57-6.51 10.06-.89 1.59-1.46 3.29-1.05 5.12.36 1.59 1.43 2.97 2.66 4 1.4 1.17 3 2.04 4.63 2.86 1.77.89 3.64 1.81 5.56 2.34 3.88 1.06 6.98-.5 9.27-3.61 1.13-1.53 2.04-3.2 3.14-4.76.58-.83 1.2-1.62 1.86-2.4.38-.45.78-.89 1.18-1.33.15-.16.3-.32.46-.48.09-.09.17-.18.26-.27.14-.15.15-.14.01.03h-1.07c.88.16 1.95 1.3 2.7 1.81a64 64 0 0 0 3.25 2.07c2.13 1.26 4.33 2.39 6.62 3.33 4.51 1.86 9.6 2.48 14.36 1.27 1.35-.34 2.2-2.14 1.36-3.35-3.04-4.42-6.11-9.12-7.35-14.41-1.34-5.7-.07-11.72 1.38-17.27.52-1.98-2.12-3.76-3.59-2.09-3.36 3.83-6.73 7.65-10.1 11.48-3.13 3.56-6.17 7.25-9.58 10.55-2.46 2.37-6.59 6.48-10.42 5.43-1.62-.44-2.57-1.9-3.26-3.33-.36-.76-.64-1.55-.89-2.35-.29-.88-.78-1.83-.38-2.71.52-1.13 1.52-2.19 2.25-3.2a180 180 0 0 1 7.77-9.99c1.4-1.69.08-4.05-2.11-3.63-8.57 1.64-17.12-2.45-24.65-6.05-1.08-.52-2.39-.3-3.02.79-.57.97-.29 2.5.79 3.02 8.77 4.22 18.1 8.36 28.04 6.42l-2.11-3.63c-3.65 4.41-7.34 8.94-10.45 13.75-1.52 2.36-.84 4.75.02 7.21.73 2.11 1.69 4.24 3.33 5.81 3.9 3.75 9.42 2.34 13.4-.48 4.32-3.06 7.8-7.08 11.27-11.04 4.39-5.01 8.76-10.03 13.15-15.04-1.2-.7-2.39-1.39-3.59-2.09-1.62 6.24-2.72 12.69-1.46 19.1 1.17 5.92 4.48 10.98 7.62 16.02l1.36-3.35c-4.82.98-9.83-.28-14.27-2.19-2.39-1.03-4.66-2.38-6.84-3.78-1-.65-2.03-1.6-3.18-1.95-1.28-.38-2.41.21-3.31 1.07-1.82 1.72-3.43 3.82-4.84 5.88-1.19 1.75-2.1 3.99-3.78 5.34-1.81 1.46-4.14.43-6.01-.4-2.15-.95-4.63-1.98-6.37-3.61-.66-.61-1.35-1.41-1.22-2.38.16-1.22 1.18-2.47 1.8-3.49 1.59-2.63 3.28-5.2 5.18-7.62.58-.73.83-1.65.32-2.51-.44-.75-1.48-1.26-2.34-.95-3.86 1.37-8.21 1.01-12.23.73-3.43-.24-7.03-.78-9.98-2.68-1.36-.88-2.71-2.15-3.23-3.72-.63-1.92.48-3.84 1.56-5.36 2.12-2.99 5.32-5.32 8.81-6.44 1.87-.6 1.11-3.37-.81-2.94Zm112.32 22.9c4.59 1.51 9.78.54 13.89-1.99s7.21-6.49 9.33-10.82c1.08-2.21 1.95-4.63 1.79-7.09s-1.55-4.96-3.86-5.84c-2.28 1.83-5.29 2.42-8.17 2.94-7.58 1.34-15.49 2.53-22.89.4 3.11 1.99 6.09 4.27 8.32 7.21s3.66 6.61 3.36 10.29c-.1 1.26-.59 2.72-1.8 3.09"/><path d="M135.96 147c8.35 2.8 16.82-1.22 22.02-7.87 2.56-3.27 4.9-7.26 5.5-11.43.55-3.89-.92-8.4-4.78-10.05-.68-.29-1.57-.5-2.23 0-1.8 1.37-3.88 1.95-6.07 2.38-2.53.49-5.09.9-7.64 1.24-5.21.68-10.53.86-15.63-.56-2.53-.7-3.88 2.77-1.75 4.14 3.23 2.08 6.43 4.49 8.49 7.79 1.02 1.63 1.8 3.46 2.06 5.39.12.92.43 3.09-.58 3.64-2.1 1.14-.66 4.45 1.61 3.83 5.5-1.5 3.43-9.86 1.71-13.44-2.31-4.82-6.62-8.29-11.01-11.12-.58 1.38-1.16 2.76-1.75 4.14 5.73 1.6 11.68 1.43 17.53.66 5.3-.7 11.34-1.23 15.7-4.61l-2.15.57c2.62 1.08 2.52 4.78 1.89 6.98-.89 3.09-2.7 6.13-4.77 8.57-4.13 4.87-10.78 8.25-17.22 6.38-2.18-.63-3.05 2.66-.93 3.37M43.38 46.24c1.69 0 1.69-2.62 0-2.62s-1.69 2.62 0 2.62m8.41-3.58c1.79 0 1.79-2.78 0-2.78s-1.79 2.78 0 2.78m-.37 10.14c1.9 0 1.9-2.95 0-2.95s-1.9 2.95 0 2.95m67.8 42.92c2.1 0 2.1-3.27 0-3.27s-2.1 3.27 0 3.27m8.95-4.9c1.68 0 1.68-2.61 0-2.61s-1.68 2.61 0 2.61m2.56 9.37c2.22 0 2.23-3.45 0-3.45s-2.23 3.45 0 3.45m-28.14-38.87c1.81 0 1.81-2.81 0-2.81s-1.81 2.81 0 2.81m10.47-5.41.05.17.14.34c.09.16.21.3.36.39.09.09.19.15.31.18q.255.135.54.12l.37-.05.34-.14c.16-.09.3-.21.39-.36.12-.14.21-.3.25-.48l.05-.17q.105-.39 0-.78c-.07-.25-.19-.46-.38-.64l-.3-.23c-.23-.13-.47-.2-.74-.2-.2 0-.39.03-.56.13-.18.06-.34.16-.47.3-.18.18-.31.4-.38.64q-.105.39 0 .78Zm-.24 10.57c1.87 0 1.87-2.91 0-2.91s-1.87 2.91 0 2.91M58 110.42c1.97 0 1.97-3.06 0-3.06s-1.97 3.06 0 3.06m8.4-3.79c2.04 0 2.04-3.17 0-3.17s-2.04 3.17 0 3.17m2.01 9.05c2.16 0 2.17-3.36 0-3.36s-2.17 3.36 0 3.36m32.53 20.91c1.79 0 1.79-2.78 0-2.78s-1.79 2.78 0 2.78m9.5-3.9c1.94 0 1.94-3.02 0-3.02s-1.94 3.02 0 3.02m2.01 8.6c2.19 0 2.2-3.41 0-3.41s-2.2 3.41 0 3.41"/></svg>