<?xml version="1.0" encoding="UTF-8"?><svg xmlns="http://www.w3.org/2000/svg" viewBox="0 0 180 180"><path d="M87.92 28.69c-4.54-.31-9.02.4-13.41 1.52-3.93 1-7.66 3.19-10.14 6.44-2.74 3.59-3.67 8.44-.31 11.95 2.87 3 7.44 4.47 11.33 5.56 8.66 2.43 17.99 2.6 26.81.94 4.38-.83 8.93-2.04 12.51-4.81 1.69-1.31 2.96-2.89 3.23-5.07.24-1.99-.3-4.16-1.06-6-3.22-7.86-13.61-9.64-21.09-9.72-2.23-.02-2.15 3.21 0 3.41 5.43.49 12.24 1.02 16.21 5.3 1.78 1.93 3.52 6.24 1.32 8.41-2.65 2.62-6.61 3.68-10.13 4.48-7.43 1.69-15.35 1.88-22.84.43-3.59-.69-7.23-1.71-10.51-3.36-1.39-.7-2.87-1.56-3.74-2.89-1.05-1.61-.59-3.51.27-5.1 1.8-3.32 5.19-5.41 8.7-6.55 4.18-1.35 8.46-2.1 12.85-1.89 1.98.09 1.95-2.93 0-3.06Z"/><path d="M65.66 38.1c5.27 7.14 15.27 8.51 23.54 8.91 4.77.23 9.63 0 14.32-.92 2.15-.42 4.24-1.03 6.26-1.9s3.71-2.06 5.38-3.49c1.55-1.32-.68-3.5-2.22-2.22-2.86 2.37-6.76 3.59-10.34 4.27-4.31.82-8.78 1.02-13.16.83-7.36-.32-16.22-1.47-21.42-7.29-1.12-1.25-3.38.44-2.36 1.82Z"/><path d="M63.34 46.28c-4.16.24-8.29.99-12.27 2.23-1.81.56-3.88 1.57-4.09 3.46-.17 1.54 1.04 2.88 2.26 3.84 3.72 2.93 11.9 6.69 16.45 7.99 23.43 6.69 40.12 5.8 61.53-5.86.53-.29 5.13-3.09 5.47-3.59.63-.91.37-2.21-.31-3.08s-1.7-1.39-2.7-1.86c-4.69-2.18-7.85-2.65-13-3.17a29.6 29.6 0 0 1-16.07 8.2c-2.46.39-4.95.48-7.43.56-5.43.18-11 .33-16.15-1.42-5.21-1.77-9.56-3.39-15.05-6.72"/><path d="M63.34 44.58c-3.86.11-7.74.59-11.47 1.6-2.97.81-6.7 2.17-6.94 5.78-.23 3.35 2.95 5.57 5.46 7.15 2.57 1.62 5.32 2.98 8.1 4.2 6.04 2.65 12.45 4.27 18.93 5.41s12.93 1.65 19.42 1.11c12.1-1 24.11-5.44 34.32-11.95 2.04-1.3 4.16-2.48 3.87-5.29-.39-3.73-4.52-5.21-7.54-6.33s-6.26-1.63-9.49-1.99c-1.06-.12-1.93-.27-2.81.48-.62.53-1.18 1.12-1.8 1.65-1.32 1.11-2.77 2.06-4.27 2.89A27.7 27.7 0 0 1 98.3 52.6c-4.23.39-8.6.5-12.85.3s-7.87-1.32-11.72-2.74-7.29-3.06-10.7-5.08c-2.3-1.36-4.36 2.19-2.09 3.58q5.115 3.135 10.71 5.28c3.77 1.45 7.51 2.67 11.54 3.08 4.16.43 8.38.23 12.55.03 4.01-.2 7.96-.79 11.7-2.3 4.01-1.62 7.64-3.97 10.73-7.01l-1.49.62c4.15.41 8.15 1.07 11.96 2.84.72.33 1.74.71 2.19 1.42.06.1.11.29.18.37v.09c0 .17.06.13.2-.1-.04-.03-.03.05-.11.1-1.07.78-2.21 1.48-3.33 2.17-6.73 4.15-14.34 7.27-22.03 9.07-7.79 1.82-15.87 2-23.78.89-8.17-1.14-16.44-3.12-23.91-6.68-1.95-.93-3.87-1.93-5.69-3.07-.91-.57-3.79-2.13-3.24-3.49.28-.7 1.37-1.09 2.01-1.33 1.24-.46 2.54-.78 3.82-1.12a53 53 0 0 1 8.4-1.52c2.13-.21 2.22-3.45 0-3.39Z"/><path d="M98.29 54.02c.23-6.55-.22-13.01-1.08-19.51-.44-3.35-.96-6.68-1.5-10.02-.43-2.64-.72-5.24-1.89-7.67-1.88-3.92-5.72-7.04-9.89-8.22-4.39-1.24-10.09-.15-12.81 3.81-1.68 2.45-1.83 5.92-1.66 8.79.21 3.52 1.03 6.97 1.33 10.48.23 2.73 4.5 2.77 4.3 0-.37-5.08-2.44-10.42-1.18-15.51.89-3.6 5.66-4.67 8.85-3.91 3.52.85 6.44 3.47 7.9 6.77.95 2.15 1.11 4.66 1.49 6.95.47 2.84.92 5.68 1.32 8.53.91 6.45 1.67 12.99 1.78 19.5.03 1.95 2.96 1.95 3.03 0Zm-27.87 6.97c-5.08-1.67-9.9 2.17-11.81 6.66-1.09 2.55-1.45 5.27-1.66 8.02-.22 3.04-.35 6.09-.43 9.13-.33 12.6.06 25.2.53 37.79.12 3.22.13 6.56 1.09 9.67.92 2.95 2.55 5.75 4.88 7.81 1.93 1.71 4.5-.88 2.82-2.82-1.47-1.69-2.73-3.59-3.43-5.74-.81-2.49-.87-5.09-.95-7.68-.17-5.68-.35-11.36-.48-17.04s-.19-11.2-.12-16.8.02-10.86.59-16.22c.25-2.37.79-4.96 2.28-6.88 1.33-1.7 3.58-3.11 5.82-2.76 2.03.32 2.89-2.47.86-3.13Zm39.98 3.13c4.58-.72 7.14 4.23 7.84 7.91.46 2.41.49 4.89.59 7.33.11 2.88.19 5.76.23 8.64.19 11.2-.16 22.4-.5 33.59-.09 2.89 0 5.89-.68 8.72-.64 2.63-2 4.9-3.76 6.93s.89 4.53 2.82 2.82c4.45-3.94 5.65-9.62 5.88-15.31.25-6.24.47-12.48.6-18.72.14-6.34.19-12.68.06-19.02-.06-3.13-.18-6.25-.36-9.38-.15-2.73-.3-5.54-1.1-8.17-1.59-5.2-6.58-10.43-12.49-8.48-2.02.67-1.17 3.46.86 3.13Z"/><path d="M64.43 138.65c8.49 4.64 17.14 5.84 26.81 5.89 7.83.04 16.04-.41 22.75-4.44.49-.29 1.01-.61 1.57-.55.76.09 1.25.82 1.63 1.49 3.22 5.68 6 10.45 8.3 16.55.45 1.18.87 2.52.36 3.68-.31.71-.93 1.23-1.58 1.66-2.42 1.6-5.43 3.06-8.24 3.77-20.26 5.11-37.86 3.76-55.26-1.1-1.06-.3-2.16-.64-2.97-1.39-1.95-1.82-1.35-4.99-.59-7.55 1.21-4.08 3.92-9.1 5.12-13.17.31-1.05 1.14-2.36 2.14-1.93"/><path d="M63.58 140.1c9.42 5.89 20.68 6.82 31.52 6.55 5.41-.14 11.01-.69 16.05-2.77 1.22-.5 2.4-1.07 3.54-1.73.25-.14.49-.29.73-.44-.04.03-.47-.26-.27-.03.43.49.72 1.25 1.05 1.81 1.38 2.4 2.73 4.82 3.99 7.29s2.43 4.98 3.36 7.58c.38 1.06.78 1.96-.24 2.71s-2.3 1.42-3.48 1.99c-2.6 1.27-5.39 1.91-8.2 2.51-2.89.62-5.81 1.13-8.75 1.49-10.95 1.34-22.02.82-32.82-1.4-2.93-.6-5.85-1.31-8.73-2.13-1.05-.3-2.2-.57-2.57-1.71-.33-1.01-.1-2.2.14-3.21.61-2.65 1.73-5.16 2.8-7.65.62-1.45 1.25-2.89 1.81-4.36.23-.61.46-1.22.66-1.84.08-.25.14-.53.24-.77.35-.88.33-.13-.52-.36 2.67.73 3.81-3.41 1.14-4.14-3.54-.97-4.53 2.93-5.45 5.41-1.04 2.8-2.33 5.49-3.42 8.27-1.94 4.94-3.53 11.81 2.84 14.12 2.78 1.01 5.79 1.6 8.67 2.23s5.86 1.15 8.81 1.56c6.14.84 12.33 1.18 18.52.9 6.62-.29 13.22-1.26 19.66-2.78 3.11-.73 6.05-1.77 8.84-3.35 2.86-1.62 5.22-3.56 4.5-7.17-.29-1.44-.96-2.84-1.52-4.18-.63-1.51-1.31-3-2.03-4.47-1.38-2.8-2.92-5.51-4.45-8.23-.68-1.21-1.28-2.59-2.36-3.5-1.49-1.24-3.14-.87-4.7-.02-2.59 1.41-5.27 2.43-8.16 3.06-6.48 1.42-13.48 1.32-20.07.82-6.74-.5-13.28-2.12-19.42-4.96-1.94-.89-3.56 1.73-1.7 2.9Z"/><path d="M65.14 139.62c3.4-2.39 7.88-3.08 11.91-3.7 4.24-.65 8.57-.85 12.86-.67s8.57.74 12.78 1.62c4.16.87 8.68 1.82 12.42 3.88 2.36 1.3 4.44-2.25 2.11-3.62-3.97-2.33-8.99-3.3-13.46-4.18-4.64-.91-9.37-1.45-14.09-1.55s-9.43.2-14.08.96c-4.45.72-8.91 1.74-12.43 4.7-1.4 1.18.46 3.63 1.98 2.56m23.43-27.07c-5.91-4.32-9.51-11.24-7.03-18.52 1.16-3.39 3.73-5.53 6.39-7.74 2.49-2.06 4.98-4.77 5.55-8.06l-4.04-.55c.37 4.17 3.15 6.93 5.66 10.02 2.42 2.97 4.27 6.67 4.69 10.51.17 1.59.19 3.23-.48 4.71-.63 1.39-1.61 2.6-2.68 3.67-2.38 2.4-5.29 4.21-8.37 5.59-1.97.88-.5 3.71 1.4 3.31 3.65-.76 7.07-3.09 9.7-5.67 2.7-2.65 4.67-5.9 4.7-9.77.02-4.44-1.55-8.83-3.98-12.52-1.2-1.82-2.65-3.42-4.04-5.09-1.14-1.36-2.35-2.94-2.48-4.77-.08-1.02-.72-1.89-1.78-2.02-.94-.11-2.06.45-2.26 1.47-.66 3.5-4.13 5.39-6.63 7.54-3.08 2.64-5.34 6.01-6.19 10.03-1.72 8.17 2.61 17.12 10.2 20.69 1.94.91 3.38-1.6 1.66-2.85Z"/><path d="M87.53 114.16c-1.06-2-1.83-4.16-2.26-6.38-.12-.63-.22-1.28-.21-1.92.05-3.15 2.54-5.66 4.86-7.8.35 2.02 1.87 3.6 2.88 5.39 1.05 1.88 1.53 4.16.94 6.23s-2.39 3.85-4.54 4.07"/><path d="M88.91 113.78c-.59-1.45-1.13-2.92-1.55-4.43-.35-1.26-.75-2.68-.54-4 .39-2.5 2.59-4.41 4.36-6.02-1-.26-2-.53-3-.79.55 3.08 3.28 5.13 3.85 8.19.23 1.22.05 2.47-.58 3.49-.66 1.07-1.55 1.47-2.75 1.73-2.06.44-1.61 3.77.5 3.68 4-.17 6.72-4.18 6.66-7.93-.03-1.99-.69-3.94-1.72-5.63-.89-1.45-2.12-2.79-2.49-4.49-.3-1.37-2.07-1.67-3-.79-2.24 2.1-4.69 4.59-5.18 7.76-.28 1.78.07 3.55.56 5.27.51 1.79 1.25 3.51 2.27 5.07.39.59 1.12.88 1.79.58.59-.26 1.1-1.02.83-1.69Z"/><path d="M91.07 126.92c.08-1.45.3-2.89.38-4.34.08-1.39.1-2.78.15-4.17s.11-2.78.17-4.17c.06-1.54.17-3.07-.15-4.59-.45-2.08-3.76-2.08-4.2 0-.33 1.52-.21 3.04-.15 4.59.06 1.39.11 2.78.17 4.17.05 1.39.07 2.78.15 4.17s.3 2.89.38 4.34c.11 2 3 2 3.11 0Z"/><path d="M81.93 133.36c.32-.86.48-1.8.83-2.65.33-.78.67-.72 1.46-.79 2.32-.21 4.64-.35 6.98-.36 1.55 0 4.04-.42 5.24.56s1.57 2.78 2.16 4.15c.41.95 1.78 1.24 2.64.87.98-.43 1.48-1.45 1.23-2.5-.52-2.14-1.67-4.49-3.42-5.88-2.25-1.78-5.32-1.54-8.04-1.43-1.43.06-2.85.16-4.27.31-1.38.14-2.86.2-4.2.57-1.26.35-2.25 1.2-2.81 2.38-.59 1.26-.49 2.62-.95 3.9-.7 2 2.42 2.81 3.15.87m-11.5-51.35.14-.27.14-.34q.09-.285.03-.57c0-.13-.03-.25-.1-.36-.06-.18-.16-.33-.29-.46l-.29-.22-.34-.14q-.285-.09-.57-.03c-.19 0-.37.06-.53.17l-.27.14c-.23.13-.41.32-.54.54-.14.24-.21.49-.21.76l.05.4c.07.26.2.48.39.67.14.15.3.25.49.31.18.09.38.14.58.13.27 0 .53-.07.76-.21.23-.13.41-.32.54-.54Zm3.96-5.67c1.89 0 1.89-2.94 0-2.94s-1.89 2.94 0 2.94m1.97 7.97c1.97 0 1.97-3.06 0-3.06s-1.97 3.06 0 3.06m30.97 31.21c2.56 0 2.57-3.98 0-3.98s-2.57 3.98 0 3.98m3.73-6.37c2.56 0 2.57-3.98 0-3.98s-2.57 3.98 0 3.98m3.08 6.81c2.56 0 2.57-3.98 0-3.98s-2.57 3.98 0 3.98"/></svg>