<?xml version="1.0" encoding="UTF-8"?><svg xmlns="http://www.w3.org/2000/svg" viewBox="0 0 180 180"><path d="M83.25 32.41c-8.19.76-15.57 4.29-21.49 9.98-5.59 5.37-9.49 12.1-14.7 17.77-2.64 2.88-5.62 4.88-9.51 5.59s-7.79.25-11.65.35c-6.92.17-14.68 2.34-17.37 9.44-3.05 8.01 2.24 15.92 7.65 21.4 5.41 5.47 12.26 10.04 19.94 11.44 4.05.74 8.25.71 12.25-.36s7.17-3.71 11.16-4.44c2.11-.39 4.28-.42 6.41-.75s4.02-.85 5.96-1.52c3.92-1.35 7.62-3.23 11.43-4.82s7.76-2.91 11.86-2.95c2.89-.03 7.42.58 8.8 3.62 1.16 2.56-2.25 5.38-3.43 7.34-1.88 3.13-1.85 6.83.04 9.95 1.67 2.77 4.53 4.93 7.71 5.64 2.55.57 5.18.43 7.74 0 5.3-.9 10.82-3.45 14.1-7.84 1.49-2.01 2.4-4.62 2.17-7.14s-1.68-4.28-3.63-5.69-4.04-2.19-6.14-3.1c-1.09-.47-2.18-.95-3.23-1.49-.46-.24-.91-.49-1.35-.76-.23-.14-.45-.29-.66-.44-.39-.28-.05 0-.39-.32-.15-.14-.31-.28-.45-.43-.1-.1-.45-.57-.22-.23-.13-.19-.24-.38-.35-.58-.12-.23.02.07.03.11-.05-.12-.1-.24-.13-.37-.31-1.42.03-2.92.73-4.23.33-.61.69-1.27 1.17-1.78.12-.12.25-.23.37-.34-.36.31.24-.17.36-.25 1.04-.7 2.16-1.29 3.27-1.87 2.34-1.22 4.78-2.29 7.04-3.65 2.71-1.63 5.02-4.25 6.98-6.7 4.78-5.99 7.61-13.32 6.21-21.03-.65-3.61-2.29-7.15-4.94-9.73-2.69-2.62-6.15-4.33-9.73-5.35-4.11-1.17-8.44-1.41-12.69-1.54s-8.84-.34-13.25-1.08c-8.16-1.36-16.66-3.39-24.86-1.25-3.63.95-6.6 2.68-9.51 4.97-1.68 1.32.69 3.66 2.35 2.35 2.57-2.02 6.33-2.94 9.52-3.24 3.63-.35 7.26-.25 10.88.25 4.23.6 8.4 1.54 12.63 2.16s8.62.78 12.98.93c6.85.24 14.84.95 19.45 6.75 4.09 5.15 3.4 12.58.52 18.1-1.64 3.14-3.86 5.87-6.39 8.33-.6.58-1.21 1.15-1.84 1.7-.18.16.17-.13.17-.13-.09.07-.19.14-.29.2-.2.12-.4.25-.6.38-1.02.61-2.08 1.14-3.13 1.68-2.28 1.16-4.63 2.24-6.78 3.62-2.5 1.6-4.21 4.12-4.96 7-.74 2.84-.33 5.69 1.65 7.89 1.44 1.6 3.46 2.64 5.39 3.52 2.05.94 4.17 1.72 6.15 2.79.44.24.88.49 1.31.77.58.38.41.24.9.7.15.14.29.28.42.43.25.28-.09-.21.17.24.1.16.19.32.28.5.11.24-.04-.08-.05-.11.04.12.08.24.11.36.09.42.03.06.02-.03.01.11.02.22.02.33v.77c-.02.42 0 .2-.05.51-.05.28-.12.56-.21.83-.22.73-.79 1.76-1.27 2.35-1.5 1.83-3.42 3.05-5.57 4.05-1.99.92-4.6 1.64-6.61 1.86-2.23.24-4.08.29-5.98-.54-2.34-1.02-4.66-3.55-4.42-6.27.25-2.8 3.1-4.86 4.25-7.31 1.55-3.3.76-6.93-2.02-9.31-2.93-2.51-6.93-3.4-10.72-3.33-8.11.15-15.06 4.38-22.37 7.31-3.73 1.5-7.36 2.24-11.35 2.61-2.09.2-4.17.47-6.13 1.24-1.81.72-3.48 1.73-5.26 2.51-6.74 2.94-14.68 1.67-21-1.72-3.21-1.73-6.11-3.94-8.72-6.47s-5.1-5.31-6.7-8.6c-1.42-2.92-1.96-6.72-.38-9.7 1.38-2.59 3.98-3.98 6.72-4.72 6.95-1.86 14.35.3 21.25-1.99 7.39-2.45 11.7-9.38 16.17-15.28 4.42-5.84 9.1-11.63 15.67-15.14 3.31-1.77 6.9-2.94 10.6-3.54 1.77-.28 1.37-3.31-.43-3.15Zm65.58 54.52c-5.35.04-11.12 2.54-11.71 8.51-.58 5.87 5.94 9.45 10.91 10.26 5.74.93 11.49-.89 15.83-4.73 2.06-1.82 3.5-4.16 3.56-6.96s-1.18-5.45-3.28-7.17c-2.44-2.01-5.56-2.74-8.66-2.26-1.52.24-2.91.81-4.32 1.4-.78.33-1.49.73-2.31.93s-1.59.28-2.37.49c-1.46.41-1.52 2.64 0 3.01 1.99.49 4.4-.22 6.35-.72s3.82-1.18 5.76-.79c3.31.65 5.87 4.35 3.66 7.44s-6.6 5.08-10.35 5.27c-2.07.1-4.15-.22-6.07-1.03-1.47-.62-3.48-1.7-4.2-3.22s-.09-3.37.97-4.53c1.59-1.75 3.95-2.46 6.24-2.65 2.06-.17 2.12-3.27 0-3.25Z"/><path d="M21.55 100.03c6.72 6.12 12.83 10.22 21.59 12.66s18.32 2.35 26.78-.99c5.68-2.25 10.81-5.9 16.72-7.44 4.26-1.11 8.84-1.1 12.85-2.93 1.65-.75 3.38-1.83 5.14-1.41.67-1.79-.01-3.89-1.36-5.24s-3.25-2.03-5.15-2.26c-4.78-.59-9.45 1.37-13.92 3.16a243 243 0 0 1-18.55 6.57c-1.49.46-2.98.91-4.51 1.17-1.71.29-3.47.34-5.14.8-1.88.51-3.59 1.51-5.37 2.31a26.2 26.2 0 0 1-13.07 2.14"/><path d="M20.51 101.07c3.94 3.75 8.09 7.24 12.92 9.79 5.08 2.69 10.59 4.4 16.28 5.14 6.21.81 12.66.34 18.63-1.61s10.7-5.37 16.34-7.41c3.21-1.16 6.55-1.5 9.89-2.1 1.73-.31 3.43-.72 5.06-1.38 1.26-.52 3.02-1.85 4.45-1.6 1.13.19 2.16-.29 2.53-1.43 1.55-4.88-2.64-9-7.14-9.89-5.26-1.03-10.36.84-15.17 2.76-4.97 1.99-10 3.83-15.09 5.5-2.54.83-5.1 1.74-7.72 2.3s-5.25.54-7.75 1.56-4.95 2.42-7.66 3.14-5.65 1.01-8.53.82c-1.02-.07-1.89.92-1.89 1.89 0 1.11.87 1.78 1.89 1.89 4.7.52 9.37-.2 13.71-2.06 2.14-.92 4.12-2.1 6.44-2.53s4.79-.62 7.16-1.31c4.75-1.38 9.43-3.02 14.06-4.74 4.56-1.69 9.04-3.92 13.79-5.01 2.34-.54 4.97-.74 7.26.15 1.82.71 3.35 2.4 2.68 4.43.84-.48 1.68-.96 2.53-1.43-3.26-.6-5.72 1.42-8.7 2.3-2.83.83-5.77 1.08-8.65 1.67-5.96 1.22-11.07 4.49-16.51 7.02-10.66 4.95-23.29 4.32-33.97-.26-5.42-2.33-10.31-5.84-14.75-9.68-1.42-1.22-3.46.76-2.08 2.08Zm120.13-42.31c2.7.09 5.33 1.51 6.88 3.72s2 5.17 1.17 7.74c-.93 2.87-3.24 5.04-5.52 7.02-2.34 2.04-4.75 4.02-7.33 5.74-2.46 1.63-5.08 3.02-7.69 4.41-3.4 1.81-6.81 3.61-10.21 5.42-.37.2-.79.4-1.2.32-.32-.07-.58-.3-.79-.56-1.15-1.43-.93-3.61.06-5.16s2.57-2.6 4.14-3.55c4.75-2.86 9.88-5.18 14.13-8.75s7.61-8.77 7.22-14.31"/><path d="M140.64 60.35c2.73.24 5.24 2.06 6.1 4.69s.18 5.32-1.58 7.47c-1.96 2.4-4.56 4.4-6.98 6.3-2.68 2.12-5.58 3.89-8.58 5.52-3.08 1.67-6.19 3.29-9.28 4.93-.71.38-1.42.75-2.13 1.13-.09.05-1.28.66-1.28.68l.52.19-.18-.31c-.13-1.4.03-2.34 1.08-3.4 2.09-2.12 5.17-3.41 7.74-4.84 2.74-1.52 5.47-3.07 7.98-4.97 5.31-4.02 9.81-9.96 9.42-16.95-.14-2.54-4.1-2.56-3.97 0 .36 7.12-5.27 12.44-10.84 15.92-3.16 1.97-6.49 3.63-9.67 5.56-2.89 1.76-5.77 4.25-5.79 7.92 0 1.62.66 3.52 2.08 4.41 1.86 1.17 3.67-.1 5.35-1 3.59-1.91 7.2-3.8 10.77-5.73s6.82-4.05 9.94-6.55c2.77-2.23 5.71-4.55 7.73-7.52 2.21-3.26 2.6-7.4.83-10.95-1.74-3.48-5.44-5.6-9.28-5.69-2.07-.05-2 3 0 3.17Zm-39.15 50.64c-.67 2.77.72 5.58 2.16 8.04.77 1.31 1.58 2.62 2.65 3.7 2.45 2.46 6.09 3.45 9.56 3.3s6.81-1.32 10-2.68c2.23-.95 4.45-2.01 6.27-3.62s3.2-3.83 3.33-6.25-1.22-4.98-3.49-5.83c-.67 2.68-2.79 4.73-4.86 6.55-2.93 2.58-6.07 5.09-9.79 6.3s-8.16.87-11.05-1.77"/><path d="M100.13 110.61c-1.02 4.21 1.26 8.81 3.72 12.14 2.55 3.44 6.45 5.1 10.66 5.31 4.53.22 8.9-1.41 12.98-3.19s7.69-4.15 9.35-8.27c1.72-4.28 0-9.14-4.31-10.94-1.03-.43-2.27.47-2.54 1.44-.63 2.25-2.35 3.87-4.04 5.38-1.9 1.69-3.86 3.33-6.07 4.61-3.69 2.14-8.58 3.07-12.19.23-.85-.66-1.99-.82-2.82 0-.76.76-.77 2.06 0 2.82 4.4 4.29 11.33 3.57 16.37.91 2.74-1.45 5.17-3.48 7.49-5.53 2.29-2.03 4.4-4.31 5.25-7.33l-2.54 1.44c1.31.55 1.96 2.18 1.98 3.5.04 1.75-.98 3.41-2.18 4.62-1.47 1.48-3.35 2.46-5.23 3.31s-3.96 1.67-6.02 2.23c-3.77 1.02-7.82 1.12-11.21-1.04-1.69-1.08-2.79-2.82-3.83-4.49-1.17-1.89-2.48-4.08-2.09-6.39.29-1.75-2.28-2.54-2.71-.75Zm42.46-8.3c4.32 5.81 12.16 8.74 19.23 7.2 2.33-.51 4.62-1.51 6.24-3.26 1.61-1.76 2.43-4.36 1.64-6.61a5.52 5.52 0 0 0-2.68-3.06c-4.18 5.82-11.66 9.1-18.77 8.22"/><path d="M141.3 103.06c2.24 3.05 4.95 5.45 8.43 6.99s7.45 2.11 11.27 1.57 8.09-2.39 9.96-6.09c1.95-3.86.99-8.52-2.92-10.7-1.02-.57-2.09-.17-2.74.72-3.89 5.3-10.58 7.91-17.04 7.3-1.04-.1-1.93.96-1.93 1.93 0 1.16.89 1.79 1.93 1.93 7.92 1.05 15.84-2.76 20.5-9.14l-2.74.72c2.62 1.45 2.42 4.68.51 6.68-2 2.09-5.17 2.88-7.97 2.99-5.58.23-11.43-2.31-14.9-6.72-1.04-1.32-3.35.44-2.34 1.81ZM76.79 53.98l.18-.22c.14-.13.23-.28.29-.45.09-.17.13-.34.12-.54 0-.19-.03-.37-.12-.54a1.1 1.1 0 0 0-.29-.45l-.28-.22a1.34 1.34 0 0 0-.7-.19l-.37.05c-.24.07-.44.19-.61.36l-.22.18c-.14.13-.24.28-.29.46-.09.17-.13.35-.12.55 0 .2.03.38.12.55.06.18.16.33.29.46l.29.22c.22.13.46.19.72.19l.38-.05c.24-.07.45-.19.63-.37Zm6.04-6.9-.19.05-.35.15c-.17.09-.31.22-.41.38-.09.09-.15.2-.19.32-.09.18-.13.36-.13.57l.05.39.15.35c.09.17.22.31.38.41.14.13.31.22.5.26l.19.05q.405.105.81 0c.26-.07.48-.2.67-.39l.24-.31c.14-.24.21-.49.21-.77 0-.21-.04-.41-.13-.59-.06-.19-.17-.35-.31-.49-.19-.19-.41-.32-.67-.39q-.405-.105-.81 0Zm.81 11.69c2.01 0 2.01-3.12 0-3.12s-2.01 3.12 0 3.12m8.46-5.02c2.03 0 2.03-3.16 0-3.16s-2.03 3.16 0 3.16M43.97 88.72h-.2c-.21 0-.4.04-.58.13-.19.06-.35.17-.49.31-.15.14-.25.3-.31.49-.09.18-.14.38-.13.58l.05.4c.07.26.2.48.39.67l.31.24c.24.14.49.21.76.21h.2c.21 0 .4-.04.58-.13.19-.06.35-.17.49-.31.15-.14.25-.3.31-.49.09-.18.14-.38.13-.58l-.05-.4c-.07-.26-.2-.48-.39-.67l-.31-.24c-.24-.14-.49-.21-.76-.21m8.66-3.15c2.03 0 2.03-3.16 0-3.16s-2.03 3.16 0 3.16m.37 6.41.19-.05.32-.14c.16-.08.28-.2.38-.35.08-.08.14-.18.17-.3.08-.16.12-.33.12-.52l-.05-.36-.14-.32a1 1 0 0 0-.35-.38.97.97 0 0 0-.46-.24l-.19-.05a1.33 1.33 0 0 0-.74 0c-.24.07-.44.19-.61.36l-.22.28c-.13.22-.19.45-.19.7 0 .19.03.37.12.54.06.17.15.32.29.45.17.17.38.29.61.36.25.07.49.07.74 0Zm10.98-5.58v-.05s-.02-.02-.02-.03c-.02-.07-.04-.11-.08-.2-.06-.19-.17-.35-.31-.49h-.01s-.02-.03-.03-.04c-.13-.14-.29-.24-.47-.3a1.07 1.07 0 0 0-.56-.12l-.38.05c-.24.07-.46.19-.64.37l-.03.03h-.01v.02c-.15.14-.25.3-.31.49-.04.09-.06.13-.08.2v.02s-.01.03-.02.05c-.07.27-.07.55 0 .82.07.26.21.49.4.68l.31.24q.36.21.78.21c.21 0 .41-.04.59-.13.19-.06.36-.17.5-.32.19-.19.32-.42.4-.68.07-.27.07-.55 0-.82Zm-23.24-1.86c2 0 2-3.11 0-3.11s-2 3.11 0 3.11m77.54-15.49c2.03 0 2.03-3.16 0-3.16s-2.03 3.16 0 3.16m8.05-5.85c1.76 0 1.76-2.73 0-2.73s-1.76 2.73 0 2.73m-106 52.08c5.77 5.33 12.84 9.11 20.5 10.85 7.79 1.77 15.75 1.26 23.41-.83 4.93-1.35 9.71-3.05 14.73-4.03 1.57-.31 1.24-2.97-.38-2.82-4.24.39-8.27 1.81-12.33 3.02-3.84 1.14-7.69 1.91-11.7 2.09-7.43.34-14.92-1.17-21.79-3.98-3.9-1.59-7.57-3.73-10.91-6.28-1.15-.87-2.58 1.02-1.53 1.99Zm11.9 20c3.2 2.15 7.58 2.37 11.3 2.7 2.04.18 4.1.26 6.15.09s4.29-.44 6.06-1.55c1.43-.9.43-2.79-1.08-2.57-1.81.26-3.54.85-5.37 1.02s-3.71.14-5.56.02c-3.29-.21-7.25-.26-10.12-2.09-1.5-.96-2.85 1.4-1.39 2.37Zm32.88.35c.72-.02 1.45-.13 2.14-.35.39-.12.78-.29 1.15-.46.25-.11.43-.25.65-.42.19-.16.37-.32.48-.55.22-.45.26-.94 0-1.38-.25-.42-.7-.67-1.18-.68-.56 0-1.06.28-1.56.5l.36-.15c-.54.23-1.11.38-1.7.46l.4-.05c-.25.03-.49.05-.74.05-.39 0-.79.16-1.07.44-.26.26-.46.69-.44 1.07s.15.8.44 1.07.67.46 1.07.44Zm35.35-1.36c3.49 1.89 7.05 3.11 11.01 3.52s7.68-.02 11.37-.95c3.87-.98 7.56-2.56 11.1-4.37 1.85-.95 3.66-1.97 5.44-3.04s3.71-2.03 5.16-3.45c1.09-1.07-.02-3.27-1.57-2.69-1.79.67-3.37 1.86-5.01 2.83s-3.21 1.86-4.86 2.72c-3.33 1.74-6.81 3.2-10.44 4.21-6.6 1.83-14.66 2.3-20.87-1.06-1.49-.81-2.83 1.47-1.33 2.28m16.41 12.99c3.13.22 6.22.01 9.29-.67 1.48-.33 2.93-.78 4.35-1.32 1.5-.57 3.1-1.15 4.31-2.23 1.1-.99-.07-2.75-1.4-2.4s-2.59 1.13-3.89 1.64c-1.37.54-2.77.97-4.19 1.33-2.76.7-5.62 1.08-8.47 1.08-1.67 0-1.64 2.46 0 2.58Zm26.19-6.48c.91-.4 1.8-.86 2.66-1.37.95-.58 1.82-1.23 2.6-2.03.52-.53.57-1.37.12-1.96s-1.3-.79-1.92-.38c-.41.26-.83.51-1.24.78s-.81.56-1.22.82c-.83.52-1.69.99-2.59 1.4-.34.16-.63.6-.73.95-.1.38-.06.89.16 1.22s.54.64.95.73c.44.1.81.02 1.22-.16Zm15.3-22.79c1.1.1 2.23-.05 3.28-.39 1.14-.37 2.29-.94 3.1-1.86.52-.59.62-1.41.12-2.05-.43-.56-1.39-.87-2.02-.4-.12.09-.24.18-.36.28-.08.06-.15.12-.23.18q.315-.24.12-.09c-.14.1-.28.19-.43.29-.32.22-.64.43-.99.61-.09.05-.18.09-.27.13-.26.12.34-.13.05-.02-.17.07-.35.13-.53.19-.37.11-.75.19-1.13.25l.39-.05c-.37.05-.74.07-1.12.06-.76-.02-1.48.68-1.45 1.45.04.84.64 1.37 1.45 1.45Z"/></svg>