<?xml version="1.0" encoding="UTF-8"?><svg xmlns="http://www.w3.org/2000/svg" viewBox="0 0 180 180"><path d="M35.25 125.89c6.1-4.36 9.14-12.24 15.61-16.04 5.67-3.34 12.7-2.82 19.27-3.11 6.58-.28 14.01-2.07 17.13-7.87 4.76-8.85-3.8-20.21-.1-29.55 1.37-3.45 4.23-6.06 7.1-8.41A128.2 128.2 0 0 1 125.61 42c7.64-3.22 15.87-5.72 24.11-4.84s16.48 5.8 19.24 13.61c2.38 6.75.33 14.41-3.56 20.43-3.88 6.01-9.42 10.74-14.71 15.56-2.89 2.63-5.87 5.54-6.81 9.33-.89 3.57.18 7.36-.41 10.99-.8 4.93-4.95 9.69-8.69 12.73-2.21 1.79-4.89 3.12-7.73 3.23-1.87.07-3.73-.39-5.6-.52-4.84-.35-8.35 3.33-11.52 6.5-9.15 9.16-19.04 17.9-30.8 23.31s-25.73 7.15-37.67 2.17c-4.51-1.88-8.82-4.9-10.78-9.38-2.39-5.45-.72-12 2.72-16.86s12.58-14.98 17.45-18.4"/><path d="M36.09 127.33c5.24-3.8 8.23-9.7 13.06-13.92 5.52-4.82 13.07-4.33 19.93-4.53 6.17-.18 13.11-1.24 17.68-5.8 4.78-4.78 4.49-11.43 3.28-17.58s-3.28-12.38.43-17.78c2.01-2.92 5.09-5.17 7.87-7.32 3.02-2.34 6.16-4.53 9.38-6.57 6.52-4.15 13.43-7.77 20.62-10.61 7.05-2.79 14.98-5.07 22.62-3.71 5.94 1.05 11.84 4.25 14.89 9.62 3.46 6.09 1.95 13.58-1.34 19.4-3.69 6.52-9.56 11.45-15.03 16.42-2.61 2.37-5.33 4.91-6.82 8.17-1.74 3.81-1.12 7.65-1.19 11.7-.06 3.6-1.78 6.74-4.09 9.43-2.13 2.47-4.77 5.09-7.94 6.13-3.64 1.19-7.31-.59-11 .18-3.35.7-6.11 3.02-8.5 5.34-10.58 10.28-21.48 20.78-35.6 26-6.98 2.58-14.46 3.83-21.9 3.09-6.45-.65-14.04-3-18.26-8.25-4.27-5.31-2.49-12.74 1.17-17.85 3.26-4.54 7.15-8.74 11.12-12.67 1.67-1.65 3.38-3.41 5.31-4.77s.08-4.52-1.85-3.16c-4.76 3.38-8.8 7.78-12.65 12.15-4.13 4.68-8.48 9.71-9.53 16.07-2.9 17.42 17.87 23.86 31.55 23.14 16.19-.86 30.35-9.29 42.3-19.69 2.99-2.6 5.88-5.33 8.69-8.13 2.33-2.31 4.63-5.13 7.7-6.49 1.59-.71 3.17-.66 4.87-.44 2.11.27 4.08.51 6.19.14 3.76-.67 6.96-3.11 9.62-5.72 2.7-2.65 5.05-5.79 6.34-9.37 1.44-4.02.28-8.08.79-12.19.46-3.7 3.23-6.46 5.84-8.88 2.83-2.62 5.75-5.15 8.48-7.88 5.48-5.5 10.37-12.1 11.65-19.94 1.19-7.28-.97-14.5-6.58-19.44-5.38-4.73-12.49-6.9-19.58-6.75-8.44.18-16.51 3.2-24.12 6.64a128 128 0 0 0-20.91 11.96c-3.29 2.32-6.55 4.76-9.57 7.43-2.82 2.5-5.33 5.5-6.35 9.2-1.79 6.52.93 13.01 1.75 19.45.37 2.9.34 5.98-1.16 8.58s-3.97 4.1-6.64 5.04c-6.79 2.37-14.09 1.13-21.07 2.32-3.73.63-7.16 2.08-10.08 4.49-2.59 2.14-4.58 4.9-6.59 7.57-1.89 2.51-3.91 5.06-6.46 6.93-1.71 1.25-.06 4.14 1.68 2.87Z"/><path d="M169.89 47.34c-3.21-4.68-7.03-8.94-10.97-13.01-3.71-3.83-7.41-7.58-11.65-10.83-7.69-5.91-16.57-10.2-25.95-12.67-18.93-4.99-39.44-2.45-56.72 6.7-4.51 2.39-8.66 5.29-12.72 8.38-4.44 3.37-8.8 6.84-12.98 10.54-8.19 7.24-15.6 15.41-21.38 24.73-3.24 5.22-5.91 10.78-7.7 16.67-1.54 5.07-2.09 10.3-1.99 15.59.19 9.98 1.95 20.42 5.49 29.77 2.97 7.84 7.38 15.22 12.66 21.71 5.04 6.2 11.84 12.57 20.08 13.72 2.04.28 3.89.1 5.91-.28 2.58-.49 1.48-4.42-1.08-3.93-3.13.59-6.57-.32-9.39-1.75-3.49-1.77-6.49-4.33-9.18-7.15-5.6-5.86-10.05-12.93-13.42-20.27-3.57-7.78-5.5-17.01-6.32-25.7-.45-4.79-.63-9.74.07-14.52.83-5.61 2.92-11.17 5.53-16.18 4.84-9.3 11.47-17.53 18.98-24.8 3.77-3.65 7.75-7.08 11.85-10.36 3.98-3.19 8.03-6.37 12.33-9.12 15.45-9.88 34.51-13.89 52.62-10.78a72.2 72.2 0 0 1 25.49 9.56c8.69 5.31 15.68 12.77 22.77 19.98 1.75 1.78 3.47 3.61 4.99 5.6 1.18 1.54 3.84.12 2.68-1.57Z"/><path d="M55.24 120.16c8.26 5.39 16.5 10.81 24.79 16.16 8.12 5.24 16.18 10.62 24.43 15.66 4.5 2.75 9.14 5.24 14.03 7.22 1.34.54 2.47-.8 2.58-1.97.8-8.36-4.54-15.75-8.63-22.56l-13.8-22.98c-2.64-4.4-5.3-8.78-7.96-13.17-1.41-2.34-5.08-.21-3.67 2.15 4.47 7.45 8.95 14.89 13.44 22.33 4.39 7.28 9.07 14.46 13.15 21.92 2.08 3.8 3.76 7.9 3.4 12.31.86-.66 1.72-1.31 2.58-1.97-8.56-3.4-16.23-8.7-23.98-13.6-8.19-5.18-16.37-10.38-24.6-15.5-4.71-2.93-9.42-5.86-14.13-8.8-1.78-1.11-3.37 1.66-1.63 2.79Zm71.27 2.15c7.74 4.58 15.29 9.53 22.93 14.3.96.6 2.5.06 2.73-1.11 1.28-6.64-1.53-13.38-3.44-19.64-.93-3.06-1.79-6.14-2.8-9.18-.52-1.55-1.07-3.09-1.67-4.62s-1.15-3.31-2.14-4.63-3.33-.63-2.88 1.22c.36 1.49 1.16 2.9 1.72 4.33s1.09 2.92 1.58 4.4c.96 2.89 1.83 5.81 2.64 8.74s1.67 6.05 2.47 9.08 1.51 6.21.94 9.32l2.73-1.11c-7.68-4.7-15.54-9.08-23.29-13.67-1.66-.98-3.16 1.6-1.51 2.58Z"/><path d="M117.73 158.71c7.68 7.55 18.34 12.47 29.18 12.78 5.43.15 11.12-1.5 14.51-5.98 3.56-4.71 2.63-10.7.47-15.79-1.31-3.08-3.03-5.96-4.68-8.86-.83-1.47-1.67-2.95-2.5-4.42-.91-1.61-1.72-3.32-2.93-4.73s-3.75.09-3.17 1.85c.86 2.63 2.62 5.09 3.98 7.49s2.73 4.76 4.01 7.18c2.08 3.92 4.46 9.12 2.37 13.51-1.98 4.16-6.86 5.68-11.14 5.73-4.87.05-9.8-1.11-14.32-2.86-4.92-1.9-9.54-4.68-13.52-8.13-1.53-1.33-3.73.8-2.25 2.25Zm-5.7-140.34c-2.18.89-4.55 2.41-4.12 5.14.21 1.31 1 2.38 1.84 3.37.77.91 1.57 1.82 2.44 2.64 1.77 1.69 3.92 2.95 6.3 3.55 1.18.3 2.42.46 3.64.45 1.32-.01 2.78-.08 3.84-.94.97-.78.4-2.47-.72-2.74-.94-.23-1.91.1-2.87.13-.83.02-1.65-.03-2.46-.21-1.66-.35-3.21-1.05-4.53-2.12-.76-.61-1.45-1.32-2.12-2.03-.61-.65-1.28-1.29-1.74-2.05-.27-.44-.46-.94-.15-1.34.42-.55 1.18-.88 1.78-1.19 1.45-.74.42-3.3-1.13-2.67Zm-42.6 12.5c1.16.87 2.36 1.72 3.75 2.18 1.31.43 2.78.35 4.06-.16 1.16-.46 2.15-1.12 3.15-1.86s1.97-1.54 2.93-2.23c.62-.43.94-1.16.62-1.89-.29-.66-1.06-1.11-1.79-.88-1.12.36-2.06.93-3 1.64-.57.43-.7.56-1.29.98-.45.32-.91.63-1.39.88l-.3.15c-.26.12.35-.1-.14.05-.24.08-.48.15-.72.2-.27.06.23-.01-.05.01-.14.01-.29.02-.43.02-.25 0-.54-.04-.67-.06-1.2-.25-2.19-.97-3.18-1.67-.67-.47-1.69-.12-2.08.55-.46.78-.11 1.59.55 2.08ZM50.36 45.18c1.66 1.28 3.89 1.79 5.96 1.63 2.15-.17 4.42-.94 5.84-2.64.46-.56.59-1.31.11-1.91-.42-.53-1.27-.8-1.87-.37-.7.49-1.43.91-2.21 1.26.29-.13-.26.09-.35.12-.2.07-.41.13-.61.18s-.42.1-.63.13c-.03 0-.33.05-.14.02.21-.03-.22.02-.21.02-.4.03-.81.04-1.21.01-.09 0-.68-.08-.36-.03-.21-.04-.42-.07-.63-.12-.42-.1-.82-.23-1.22-.39-.11-.04-.22-.08-.33-.13.15.06.09.04-.02-.02-.21-.11-.42-.22-.63-.34-.69-.41-1.63-.16-2.03.53-.45.76-.11 1.54.53 2.03Zm-15.3 16.91c-.22.03.01.01.11.01.12 0 .24 0 .36.02.11 0 .2.03.04 0 .12.02.24.04.36.07.52.1 1.04.2 1.57.24.97.07 1.91-.21 2.75-.67.63-.35 1.18-.82 1.76-1.23.28-.2.56-.41.86-.58.08-.05.17-.09.25-.13.03-.02.07-.03.1-.05.1-.05.07-.03-.11.04.09-.1.41-.13.54-.15.73-.15 1.17-.96 1.08-1.65s-.74-1.41-1.48-1.31c-.91.12-1.77.4-2.54.92-.38.26-.74.56-1.11.84-.08.06-.15.12-.23.18.09-.07.18-.14.04-.03-.16.11-.31.23-.47.33-.14.09-.29.18-.44.26-.07.04-.17.11-.25.12.1-.02.24-.08.06-.03-.09.02-.18.05-.27.08-.16.04-.21.02-.02.01-.22.01-.44 0-.66 0-.17 0 .17.03-.11-.01-.12-.02-.24-.04-.37-.06-.3-.05-.61-.1-.91-.14-.59-.08-1.12-.05-1.7.05-.77.13-1.27 1.12-1.04 1.84.27.85 1.01 1.16 1.84 1.04ZM33 100.85c2.91.15 5.87-1.04 7.77-3.27 2.09-2.45 2.59-5.56 2.03-8.66-.26-1.44-2.59-1.76-3.21-.42-1.4 3.02 2.07 5.73 4.79 3.94.61-.4 1.1-.99 1.43-1.63.15-.29.45-1.52.48-1.55.35-.43 1.31-.72 1.75-1.11.55-.48.99-1.06 1.4-1.65 1.83-2.59 3.63-5.13 5.78-7.48 1.03-1.13 2.1-2.22 3.22-3.26 1.2-1.13 2.57-2.15 3.57-3.47 1.08-1.43-.93-2.79-2.2-2.2-2.07.96-3.91 3.02-5.51 4.62a62 62 0 0 0-4.91 5.58c-.72.92-1.41 1.86-2.08 2.82-.58.84-1.09 1.92-1.96 2.49s-1.72.89-2.24 1.88c-.26.49-.27 1.04-.49 1.53-.03.08-.22.32-.22.39 0 .16.55-.01.4.45h-3.39c1.27 4.16-2.29 7.92-6.4 7.77-2.08-.08-2.06 3.11 0 3.22Zm21.16-4.64c1.87-2.18 3.81-4.29 5.76-6.41.96-1.04 1.93-2.08 2.91-3.1s2.09-2.04 3.05-3.13c1.37-1.57-.72-3.68-2.29-2.29-1.05.93-2 2.03-2.96 3.05q-1.5 1.59-2.97 3.21c-1.93 2.14-3.76 4.36-5.57 6.6-.49.61-.6 1.47 0 2.07.53.53 1.55.6 2.07 0"/></svg>