<?xml version="1.0" encoding="UTF-8"?><svg xmlns="http://www.w3.org/2000/svg" viewBox="0 0 180 180"><path d="M85.83 56.7c-10.04.06-20.08-.24-30.12-.28-7.61-.03-16.55.16-21.81 6.57-2.65 3.23-3.79 7.19-4.32 11.27-.57 4.41-.53 8.94-.41 13.38.07 2.39.22 4.75 1.26 6.94.88 1.84 2.34 3.42 3.92 4.69 3.13 2.5 6.86 3.95 10.83 4.37 3.86.41 7.8-.37 11.25-2.13 3.51-1.79 6.49-4.88 10.41-5.78 4.06-.93 8.17 1.2 11.66 3.01 4.08 2.13 8.13 4.23 12.66 5.22 4.42.97 9.06 1.04 13.43-.21 2.1-.6 4.16-1.5 5.99-2.7 1.7-1.12 3.08-2.69 4.82-3.73 1.47-.88 3.2-.67 4.84-.57 1.88.11 3.82.17 5.55-.66 1.9-.91 2.99-2.68 3.49-4.68.59-2.37.95-4.81 1.43-7.2.69-3.48 1.23-7.65-.9-10.76-1.19-1.74-2.93-2.65-4.9-3.25-1.96-.6-3.22-1.35-4.58-2.91-1.29-1.49-2.47-3.03-3.97-4.31-1.63-1.4-3.44-2.54-5.41-3.4-4.22-1.86-8.78-2.55-13.38-2.6-2.4-.03-4.76.24-7.14.49-2.26.23-2.34 3.48 0 3.58 7.76.33 17.08-.13 23.29 5.42 2.84 2.54 4.38 5.99 8.13 7.44 1.37.53 3.21.67 4.17 1.91.81 1.05.87 2.56.84 3.82-.04 1.8-.42 3.56-.77 5.32-.2 1.03-.44 2.06-.65 3.09s-.3 2.21-.74 3.15c-.57 1.21-1.88 1.19-3.06 1.16-1.65-.04-3.28-.26-4.93-.07-4.08.48-6.4 3.9-9.82 5.74-3.38 1.82-7.3 2.4-11.1 2.12-4.2-.31-8.26-1.77-12-3.64-3.59-1.79-7.15-3.88-11.08-4.81s-7.79-.35-11.33 1.65c-3.17 1.79-5.93 4.41-9.5 5.43-3.19.91-6.58.78-9.72-.27-2.97-.99-6.18-3.04-7.58-5.95-.87-1.8-.69-3.98-.7-5.93-.01-2.27 0-4.55.06-6.82.1-3.53.34-7.17 1.66-10.49 2.67-6.71 9.86-7.96 16.3-8.27 8.99-.43 18.01-.47 27.01-.83 2.3-.09 4.61-.11 6.91-.14s2.2-3.42 0-3.41Z"/><path d="M47.41 69.31c-2.15-.17-4.13 1.39-5.13 3.3s-1.22 4.12-1.42 6.26c-.17 1.82-.34 3.65-.52 5.47-.18 1.86-.32 3.87.66 5.46 1.3 2.12 4.22 2.73 6.65 2.2s4.57-1.94 6.78-3.09c7.86-4.06 17.37-4.83 25.78-2.07 4.16 1.36 8.01 3.53 12.05 5.22 2.59 1.08 5.67 1.94 8.09.52 2.72-1.59 3.28-5.24 3.33-8.4.06-3.42-.14-6.85-.59-10.25-.2-1.54-.48-3.14-1.39-4.41-1.93-2.7-5.79-2.9-9.11-2.84-13.65.27-27.3.68-40.94 1.25-2.09.09-4.29.21-6.06 1.34-2.27 1.45-3.28 4.19-4.15 6.74"/><path d="M47.41 67.92c-2.75-.2-5.21 1.55-6.53 3.87-1.62 2.86-1.69 6.38-2.01 9.56-.3 3.03-1.1 6.57.6 9.33 1.41 2.3 4.21 3.33 6.82 3.21 3.1-.14 5.77-1.75 8.44-3.18s5.52-2.45 8.48-3.08c6.1-1.29 12.43-.7 18.24 1.53 3.1 1.19 6.04 2.76 9.08 4.09 2.76 1.21 5.83 2.4 8.88 1.66 6.04-1.46 6.28-8.68 6.16-13.68-.08-3.31-.18-6.91-1.07-10.12-.78-2.79-2.75-4.75-5.48-5.65-2.68-.88-5.62-.7-8.4-.64-3.66.07-7.32.16-10.99.26-8.16.22-16.31.5-24.46.82-3.41.14-7.49-.18-10.5 1.74-2.77 1.77-3.99 4.88-5 7.86-.78 2.28 2.83 3.26 3.6.99.69-2 1.44-4.38 3.29-5.62 2.21-1.47 5.58-1.1 8.11-1.2 6.32-.25 12.65-.46 18.97-.65s12.65-.36 18.98-.47c2.03-.03 4.32-.1 6.17.87 2.19 1.15 2.38 3.74 2.62 5.95.34 3.02.5 6.09.41 9.13-.05 1.9-.22 4.19-1.5 5.72-1.62 1.93-4.39 1.24-6.43.51-2.65-.95-5.16-2.3-7.72-3.45-5.08-2.28-10.28-3.8-15.89-3.85a36.06 36.06 0 0 0-15.59 3.4c-2.66 1.25-5.37 3.47-8.4 3.59-1.03.04-2.17-.14-3.02-.76-1.08-.79-1.27-2.07-1.27-3.33 0-1.59.22-3.18.35-4.76s.23-3.27.44-4.89c.34-2.53 1.52-6 4.61-6.02 1.81 0 1.77-2.65 0-2.78Z"/><path d="M46.72 103.27c8 7.2 17.89 12.23 27.96 15.9 10.12 3.68 20.79 5.85 31.53 6.52 5.37.34 10.77.3 16.14-.14 5.3-.43 10.7-1.08 15.82-2.56 9.62-2.77 23.07-10.4 21.57-22.24-.8-6.32-5.31-11.22-10.59-14.38-5.85-3.5-12.64-5.73-19.09-7.85-2.63-.87-3.76 3.28-1.14 4.14 5.36 1.77 10.8 3.63 15.84 6.19 4.34 2.21 8.62 5.36 10.22 10.17 3.48 10.44-9.61 17.42-17.74 19.8-4.77 1.4-9.74 2.02-14.69 2.39-4.96.37-9.95.4-14.92.11-9.95-.58-19.8-2.46-29.29-5.5-10.72-3.44-20.54-8.65-30.1-14.5-1.19-.73-2.58 1-1.51 1.96Z"/><path d="M125.3 95.16c1.88.69 3.99.97 5.93 1.43s3.93 1.03 5.84 1.73c2.99 1.1 5.74 2.73 8.07 4.91 1.86 1.74 3.97 4.1 4.07 6.79.14 3.5-3.78 5.06-5.94 7.07-1.53 1.42.41 3.46 2.08 2.7 2.98-1.36 6.08-3.4 7.39-6.54 1.12-2.68.58-5.61-.79-8.09-2.87-5.17-8.41-8.69-13.85-10.6-1.92-.68-3.9-1.16-5.89-1.57-2.09-.43-4.37-.94-6.51-.92-1.85.01-2.03 2.49-.42 3.08Z"/><path d="M59.39 98.5c.4 1.34 1.63 2.23 2.82 2.97 9.78 6.15 21.28 8.95 32.68 10.82 18.36 3.01 37.97 3.69 54.78-4.28.22 1.35-.6 2.65-1.49 3.7a20.4 20.4 0 0 1-7.56 5.56c-3.49 1.48-7.3 1.97-11.07 2.43-10.47 1.29-21.18 2.56-31.49.36-3.47-.74-6.85-1.87-10.33-2.58-3.33-.68-6.74-.97-10.06-1.73-8.7-1.98-16.35-7-23.79-11.93 1.45-1.02 2.9-2.05 4.35-3.07"/><path d="M57.98 98.89c.91 2.9 3.95 4.38 6.43 5.76 2.79 1.55 5.75 2.83 8.74 3.94 6.05 2.25 12.36 3.72 18.7 4.85 12.57 2.26 25.43 3.49 38.16 1.87 7.15-.91 14-2.79 20.57-5.76-.89-.51-1.79-1.03-2.68-1.54.11 1.47-1.15 2.65-2.11 3.61a18.3 18.3 0 0 1-3.51 2.75c-2.66 1.61-5.63 2.43-8.67 2.95-6.66 1.16-13.56 1.85-20.32 2.06-3.34.11-6.7.03-10.02-.34-3.52-.39-6.91-1.31-10.32-2.24-3.3-.9-6.59-1.54-9.96-2.06-3.27-.5-6.48-1.16-9.59-2.29-6.66-2.42-12.65-6.41-18.53-10.29v3.3c1.45-1.03 2.9-2.05 4.34-3.08 1.99-1.41.09-4.71-1.92-3.29l-4.35 3.06c-1.2.84-1.26 2.47 0 3.3 5.64 3.74 11.3 7.45 17.6 10.02 6.73 2.74 13.97 3.01 20.95 4.83 3.59.94 7.15 1.82 10.84 2.28 3.64.45 7.31.54 10.97.42 3.69-.13 7.37-.48 11.03-.89 3.57-.41 7.16-.76 10.7-1.39 3.73-.66 7.38-1.87 10.48-4.11 2.64-1.9 6.35-4.98 5.97-8.62-.14-1.39-1.39-2.17-2.68-1.54-10.79 5.24-23.03 6.62-34.89 6.14-11.91-.48-24.1-2.2-35.5-5.71-3.21-.99-6.37-2.15-9.4-3.59-1.51-.72-3-1.49-4.46-2.32-1.2-.68-3.14-1.52-3.71-2.89-.7-1.68-3.42-1.08-2.83.78ZM135.14 84c-.04 1.73-.01 3.59-.26 5.23-.14.9-.32 1.79-.56 2.67-.27 1-.74 1.96-.55 3.01.08.46.54.85.97.97.52.14.96-.04 1.35-.36.8-.64 1.05-2.03 1.29-2.98.25-.99.42-1.99.55-3 .25-1.96.28-3.96-.15-5.9-.34-1.5-2.59-1.12-2.62.36Zm8.39 3.9c.1.98.1 1.97.05 2.95-.05.92-.18 1.7-.45 2.69s-.65 1.72-.98 2.63c-.54 1.45.69 3.1 2.25 2.33.54-.27.7-.93.6-1.47.06.37.06.32 0-.14.01.25.03.29.04.12-.04.22-.04.25 0 .08q-.15.315 0 0c.21-.48.42-.96.6-1.46.29-.8.5-1.62.65-2.45.34-1.9.33-3.74 0-5.64-.12-.67-.9-1.09-1.53-1s-1.28.67-1.21 1.37Zm7.95 5.03c.14 1.86-.08 3.51-.71 5.26-.27.73-.65 1.5-1.1 2.23-.21.34-.52.79-.7 1.01-.33.42-.76.8-.99 1.28-.58 1.22.61 2.54 1.87 1.87.95-.51 1.65-1.68 2.2-2.58s1.02-1.9 1.37-2.92c.69-1.96.96-4.1.76-6.17-.07-.73-.57-1.35-1.35-1.35-.69 0-1.41.62-1.35 1.35Zm-103.9 40.15c2.75-3.22 5.9-6.29 9.97-7.72 3.4-1.19 7.67-1.31 10.62 1.07s4.04 6.55 5.5 9.92c1.7 3.9 4.21 7.51 5.34 11.64 1.04 3.79.08 7.28-2.65 10.08s-6.39 4.77-9.87 6.58c-3.83 1.99-8.34 3.89-12.68 2.45-2.02-.67-3.81-2.05-5.45-3.36-1.59-1.27-3.17-2.57-4.64-3.97-3.01-2.88-5.75-6.49-5.65-10.87.05-2.22 1.26-4.2 2.4-6.03.65-1.05 1.54-1.85 2.28-2.83s1.49-1.86 2.29-2.75c1.31-1.47-.7-3.49-2.17-2.17-3.56 3.21-6.99 6.82-8.33 11.56-.66 2.33-.86 4.72-.18 7.07.66 2.3 1.92 4.33 3.39 6.2s3.16 3.47 4.93 5c1.9 1.64 3.85 3.31 5.97 4.66 4.79 3.05 10.22 3.06 15.43 1.06 4.61-1.78 9.2-4.3 13.1-7.35 3.68-2.88 6.47-6.76 6.73-11.55.28-5.17-2.55-9.89-4.84-14.3-2.13-4.12-3.38-8.81-6.42-12.4-3.45-4.07-9.12-5.17-14.12-3.81-5.35 1.46-9.55 5.68-12.9 9.91-1.06 1.34.77 3.27 1.92 1.92Z"/><path d="M56.14 125.97c1.47-1.23 3.63.43 4.47 1.58 1.32 1.82 2.23 4.01 3.19 6.03 2.08 4.38 3.9 8.88 5.44 13.47.75 2.23 1.93 4.57.47 6.73-.89 1.32-1.79 2.64-2.69 3.95-1.86 2.7-3.91 5.48-6.55 7.48-2.61 1.98-5.56 2.72-8.51 1.04-2.32-1.32-4.42 2.28-2.09 3.58 8.32 4.62 15.33-3.19 19.65-9.52 1.11-1.62 2.27-3.28 3.11-5.05.55-1.15.96-2.34.91-3.64-.06-1.54-.61-3.03-1.09-4.49-1.83-5.51-4.03-10.9-6.59-16.11-1.25-2.55-2.47-5.55-4.88-7.22-2.09-1.44-4.79-1.42-6.56.47-1.07 1.15.53 2.69 1.7 1.7Zm-15.91 13.22c-2.35-1.44-4.93-2.21-7.52-3.09-2.48-.84-4.71-1.98-5.91-4.42s-1.35-5.39-1.53-8.09c-.25-3.62-.43-7.24-.56-10.87-.51-14.35-.36-28.7-.07-43.06.29-14.52.56-29.06.2-43.58-.04-1.73-.1-3.46-.16-5.19s-.35-3.45-.14-5.1c.29-2.32 3.13-3.65 5.22-3.57.81.03 1.54.19 2.17.53.57.32.94.83 1.17 1.36.76 1.78.7 3.91.69 5.81-.01 7.28-.04 14.55.06 21.84.1 7.36.32 14.72.44 22.08.04 2.65 4.21 2.64 4.11 0-.56-14.14-.83-28.26-.5-42.42.1-4.26.38-10.12-4.03-12.47-5.22-2.79-12.91.75-13.36 6.84-.12 1.6.08 3.25.14 4.85A428 428 0 0 1 21 38.46c0 7.76-.16 15.52-.33 23.28-.35 15.42-.72 30.86-.26 46.29.13 4.37.36 8.73.68 13.09.26 3.54.33 7.33 1.58 10.7s3.41 5.58 6.57 6.9c3.04 1.27 6.61 1.42 9.45 3.12 1.7 1.02 3.23-1.62 1.55-2.64Z"/><path d="M32.92 96.21c-.66 3.6-.12 7.51.03 11.15s.3 7.36.46 11.05c.07 1.68 0 3.45.4 5.09s1.54 2.83 2.87 3.84c2.73 2.07 5.73 4.19 8.84 5.63 2.28 1.06 4.17-2.02 2-3.41-2.71-1.74-5.52-3.26-8.15-5.14-1.14-.82-1.76-1.45-1.89-2.89-.15-1.69-.21-3.39-.32-5.08-.22-3.35-.43-6.71-.65-10.06-.22-3.32-.1-6.96-1.05-10.17-.35-1.16-2.29-1.34-2.53 0ZM23.8 23.9c1.36-1.61 3.09-2.58 5.06-3.07.51-.13.94-.21 1.3-.24.52-.05 1.04-.06 1.57-.03.64.03.81.05 1.38.17.54.12 1.05.34 1.6.42.75.11 1.49-.12 1.79-.88s.01-1.45-.62-1.89c-1.05-.74-2.73-.95-3.97-1.02s-2.62.1-3.87.44c-2.59.71-4.77 2.29-6.39 4.42-.41.54-.14 1.41.35 1.77s1.36.42 1.81-.11Zm1.31 6.68c-.15.06-.05.01.3-.13.1-.04.2-.09.29-.15.2-.1.39-.2.59-.3.1-.05.2-.09.3-.14-.19.08-.08.03.3-.13 0 0 .46-.19.24-.1.79-.32 1.61-.56 2.44-.71.19-.04.38-.06.57-.1.19-.03.22-.03.07-.01.11-.01.22-.03.33-.04.41-.04.82-.06 1.23-.07s.82.01 1.23.05c.11 0 .22.02.33.03-.14-.02-.12-.02.07.01l.65.12c.8.16 1.73-.23 1.92-1.09.18-.79-.24-1.74-1.09-1.92-1.99-.43-4.06-.48-6.06-.05-1.9.4-3.97 1.19-5.36 2.58-.48.48-.53 1.27-.11 1.8.46.57 1.12.63 1.76.35m-.15 7.96c.72-.44 1.28-.7 1.99-.96s1.45-.45 2.19-.6c.2-.04.4-.08.6-.11.19-.03.2-.03.04 0l.3-.03c.35-.03.71-.05 1.06-.05.41 0 .81.03 1.21.07q.285.03.03 0c.1.02.2.03.3.05l.6.12c.81.15 1.74-.22 1.94-1.1.19-.83-.25-1.71-1.1-1.94-1.84-.49-3.88-.41-5.73 0s-3.51 1.39-4.91 2.64c-1.04.92.3 2.63 1.48 1.91m.17 9.15c1.34-.44 2.63-.89 4.02-1.12.1-.02.19-.03.29-.04-.17.02-.2.03-.08.01.17-.02.33-.04.5-.05.34-.03.67-.05 1.01-.06.87-.02 1.92.22 2.69-.26s1.16-1.85.33-2.53c-.42-.34-.74-.51-1.28-.57a6 6 0 0 0-.58-.03c-.39 0-.77 0-1.16.03-.82.05-1.64.16-2.45.31-1.51.29-3.12.8-4.43 1.62-.62.39-.89 1.15-.6 1.83.27.64 1.03 1.08 1.73.85ZM23.88 57.7c1.79-.69 3.81-1.19 5.63-1.39q1.485-.165 2.97-.12c.5.01.99.04 1.48.08.6.05 1.19.17 1.78-.04 1.33-.48 1.43-2 .37-2.81-.57-.44-1.35-.46-2.04-.54-.49-.05-.99-.09-1.48-.1-1.1-.03-2.2.03-3.29.17-2.32.29-4.48.95-6.61 1.92-1.58.72-.45 3.46 1.19 2.83m49.43 95.54 3.46-1.08c.56-.17 1.11-.34 1.67-.52.64-.21 1.39-.39 1.97-.73.5-.29.81-.97.62-1.54-.17-.54-.7-1.05-1.31-1-.69.06-1.38.3-2.05.5-.56.17-1.11.35-1.67.53-1.15.37-2.31.73-3.46 1.1-.7.22-1.23.99-.99 1.74s.98 1.22 1.74.99Z"/></svg>