<?xml version="1.0" encoding="UTF-8"?><svg xmlns="http://www.w3.org/2000/svg" viewBox="0 0 180 180"><path d="M43.8 47.19C33.07 50.7 23.69 58.1 17.22 67.29c-7.03 9.96-10.35 22.29-9.46 34.44s5.85 23.42 14.07 32.39c7.67 8.38 17.68 14.47 28.28 18.4 12.68 4.69 26.4 6.25 39.85 6.54s25.61.05 37.73-4.42c11.17-4.12 21.86-10.91 30.12-19.53 7.8-8.15 12.84-18.48 14.19-29.69 1.37-11.35-1.43-22.74-6.65-32.81-5.17-9.97-12.8-19.05-22.63-24.67a45 45 0 0 0-7.78-3.49c-2.85-.97-4.04 3.49-1.24 4.49 9.88 3.52 17.92 10.82 23.69 19.44s9.9 19.04 10.24 29.71c.32 10.25-2.81 20.22-8.79 28.53-3.23 4.49-7.3 8.27-11.62 11.69s-9.24 6.54-14.29 9.03c-5 2.47-10.3 4.32-15.76 5.5-5.86 1.27-11.78 1.46-17.75 1.56-13.11.22-26.36-.35-39.11-3.66-20.72-5.37-40.83-18.98-46.39-40.72-2.84-11.11-1.71-23.24 3.28-33.58 4.53-9.37 11.93-17.26 20.88-22.55 2.26-1.34 4.64-2.53 7.04-3.6 1.75-.78.51-3.69-1.31-3.1Z"/><path d="M50.77 51.09c19.33 5.55 40.01 6.49 59.87 3.75 5.59-.77 11.12-1.88 16.59-3.29 2.97-.77 1.71-5.34-1.27-4.6-18.89 4.72-38.57 5.91-57.9 3.66-5.51-.64-10.96-1.65-16.39-2.8-2.12-.45-3.02 2.66-.9 3.27Z"/><path d="M59 48.7c-1.45-4.29-3.26-8.42-5.11-12.55-.91-2.03-1.85-4.06-2.81-6.07-.48-1-.97-2.01-1.46-3-.46-.93-.86-1.97-1.57-2.74-1.57-1.72-3.92-1.18-5.97-.98-2.3.22-4.6.45-6.91.69s-4.77.49-7.15.73l-3.21.33c-.5.05-1.02.14-1.53.14-.39 0-.12.16-.3-.22-.87-1.8-1.9-3.35-2.46-5.31-.19-.68-.56-1.76-.5-2.37-.04.36-.28.16.27.14.65-.02 1.31-.11 1.97-.16 4.59-.37 9.19-.65 13.79-.85 2.38-.11 4.77-.19 7.15-.26 2.24-.06 4.54-.24 6.78-.12 1.84.09 2.63 2.55 3.44 3.95 1.07 1.86 2.11 3.75 3.12 5.65 4.58 8.69 8.3 17.82 11.27 27.18.75 2.36 4.47 1.35 3.72-1.03-2.88-9.11-6.52-17.93-10.77-26.49-1.03-2.07-2.09-4.11-3.2-6.13-1.04-1.9-2-4.22-3.58-5.74-1.81-1.74-4.26-1.51-6.59-1.47-2.55.04-5.1.11-7.64.19-5.01.17-10.02.45-15.03.78-1.23.08-2.46.17-3.69.26-1.11.08-2.3.11-3.29.68-2.18 1.25-2.04 3.74-1.57 5.88.48 2.2 1.31 4.35 2.39 6.32 1.1 2.01 2.4 3.66 4.9 3.53 4.96-.26 9.97-1.03 14.91-1.57 1.4-.15 2.8-.31 4.19-.46.72-.08 1.45-.18 2.17-.24.16-.01.45.02.6-.04-.35-.29-.44-.32-.26-.08.09.14.17.28.25.42 1.33 2.34 2.55 4.77 3.76 7.17 2.5 4.96 4.72 10.04 7.13 15.04.75 1.55 3.34.46 2.78-1.17Z"/><path d="M49.69 31.16c1.57-.46 3.13-.98 4.65-1.57.83-.32 1.66-.67 2.48-1.02s1.85-.68 2.38-1.48c.27-.41.24-1 0-1.41-.27-.45-.7-.65-1.21-.69-.57-.05-1.08.25-1.58.48-.37.17-.74.34-1.12.5-.39.17-.45.19-.85.36-.35.14-.71.29-1.07.42-1.48.57-2.98 1.07-4.5 1.52-.75.22-1.3 1.07-1.05 1.85s1.04 1.28 1.85 1.05Zm3.96 6.47c1.4-.06 2.81-.24 4.18-.56.63-.15 1.26-.35 1.87-.57.3-.11.59-.22.88-.34.39-.16.87-.3 1.2-.56.59-.45.91-1.1.6-1.83a1.47 1.47 0 0 0-1.73-.85c-.38.09-.74.3-1.1.46-.08.04-.16.07-.25.11.15-.06.14-.06-.02 0-.13.05-.25.1-.38.15-.59.22-1.19.41-1.79.59s-1.21.32-1.83.44c-.31.06-.62.11-.93.16a10 10 0 0 1-.71.07c-.71.06-1.4.58-1.37 1.37.03.72.6 1.4 1.37 1.37Zm2.82 6.78c2.97.78 6-.04 8.86-.89.76-.23 1.32-1.08 1.06-1.87s-1.06-1.31-1.87-1.06c-1.3.4-2.6.8-3.94 1.05l-.53.09c-.31.05.13 0-.21.03s-.65.06-.98.07c-.68.02-1.36.02-2.03-.06s-1.25.58-1.33 1.17c-.09.65.31 1.31.97 1.48Zm61.8-13.86c-1.07 3.41-1.69 7-2.46 10.48-.38 1.72-.75 3.44-1.12 5.17l-.56 2.58c-.2.94-.52 1.95-.41 2.9.19 1.65 2.36 2.56 3.32.9s1.03-3.79 1.38-5.57c.35-1.73.69-3.46 1.03-5.19.7-3.59 1.56-7.21 1.95-10.85.2-1.85-2.62-2.07-3.13-.42"/><path d="M124.56 38.25c-7.56-.81-21.13-4.17-27.29-8.62-1.05-.76-2.1-1.61-2.63-2.79s-.35-2.78.72-3.5c.58-.39 1.31-.47 2.01-.53 14.22-1.19 28.76 1.58 41.54 7.94 2.41 1.2 5 2.83 5.57 5.46.11.5.13 1.04-.13 1.48-.41.69-1.32.84-2.11.91-7.73.71-15.55.28-23.16-1.26"/><path d="M124.56 36.79c-4.7-.54-9.38-1.81-13.88-3.24s-9.08-2.97-12.74-5.85c-.57-.45-2.01-1.54-1.62-2.47.33-.8 2.53-.58 3.27-.62q4.68-.255 9.36.06c6.21.41 12.35 1.6 18.27 3.48 3.38 1.07 6.68 2.37 9.88 3.91 1.28.62 2.63 1.25 3.74 2.16.75.61 2.03 1.85 1.58 2.92l.51-.88c-.37.47-1.26.38-1.91.43q-1.575.12-3.15.18-3.03.105-6.06 0c-4.13-.16-8.15-.79-12.23-1.41-1.04-.16-2.09.26-2.39 1.36-.27 1 .33 2.14 1.36 2.39 4.84 1.2 9.99 1.6 14.96 1.69 2.5.05 5.01-.03 7.51-.22 2.12-.16 4.7-.38 5.39-2.82 1.13-4.03-3.32-7.24-6.34-8.77-4.11-2.08-8.44-3.78-12.86-5.11-8.77-2.63-18.04-3.78-27.18-3.33-2.13.11-4.83-.05-6.43 1.6-1.43 1.47-1.52 3.79-.67 5.57 1.46 3.06 5.29 4.85 8.25 6.13 7.38 3.2 15.4 4.89 23.37 5.74 1.86.2 1.84-2.7 0-2.91Z"/><path d="M94.56 24.53c1.58-1.51 3.06-3.15 4.74-4.56s3.41-2.5 5.3-3.47c4.26-2.18 8.98-3.18 13.76-3.23 4.69-.05 9.86.6 14.07 2.78 3.54 1.83 6.48 4.73 8.51 8.14 2.13 3.57 4.81 9.99.64 13.01-1.49 1.08-.64 3.49 1.28 3.04 2.67-.62 4.16-3.37 4.49-5.91s-.34-5.42-1.27-7.9c-1.75-4.66-4.61-8.76-8.59-11.77-4.46-3.38-9.99-4.71-15.49-5.2-5.8-.51-11.71.32-17.07 2.61-5.06 2.17-10.39 5.97-12.52 11.21-.51 1.25 1.29 2.06 2.14 1.25Z"/><path d="M111 26.34c1.43-2.49 3.19-4.79 5.28-6.76 1.88-1.77 4.37-3.81 7.03-4.13 1.03-.12 2.19.06 3.03.69.91.69 1.18 1.92 1.3 2.99.16 1.52.16 3.07.02 4.59-.15 1.61-.87 3.28-.81 4.89s2.04 2.02 2.96.8c.86-1.16 1.05-2.94 1.24-4.33.21-1.51.33-3.04.25-4.57-.14-2.79-.77-5.66-3.23-7.31-4.96-3.32-10.93.9-14.42 4.42-2.2 2.22-3.87 4.81-5.08 7.68-.6 1.42 1.7 2.31 2.44 1.03ZM69.85 46.47c15.83-1.77 31.84-1.92 47.7-.43 1.53.14 3.56.97 3.18 2.45-.25.98-1.43 1.33-2.43 1.5-12.65 2.17-25.58 1.61-38.4 1.04-3.2-.14-6.69-.4-9.04-2.57"/><path d="M69.85 47.91c3.44.01 6.87-.36 10.3-.55s6.72-.29 10.09-.37a232 232 0 0 1 25.34.8c.67.06 1.37.08 2.04.2.14.02 1.28.45 1.27.46.09-.08-.02-.57-.09-.6-.19-.09-1.23.28-1.51.33-1.75.29-3.5.52-5.26.7-6.62.69-13.29.76-19.94.6-3.74-.09-7.48-.26-11.22-.42-2.84-.13-6.3-.03-8.58-2.03-1.95-1.71-4.83 1.14-2.86 2.86 2.52 2.21 5.66 2.85 8.92 3.07 3.76.26 7.54.35 11.3.45 7.62.22 15.28.19 22.86-.66 1.79-.2 3.57-.44 5.34-.73 1.58-.26 3.36-.59 4.3-2.05 1.78-2.75-.9-5.21-3.5-5.74-1.79-.36-3.7-.39-5.52-.52-1.97-.14-3.93-.26-5.9-.36q-5.91-.285-11.82-.27c-4.27.01-8.54.15-12.8.44s-8.85.56-13.14 1.54c-1.6.36-1.22 2.82.38 2.82ZM14.07 75.65c.34 4.24 4.26 6.29 7.9 7.46 5.11 1.65 10.36 2.97 15.61 4.08 10.74 2.28 21.65 3.73 32.61 4.43 21.73 1.39 44.05.35 65.34-4.42 5.8-1.3 11.59-2.83 17.18-4.86 4.71-1.71 9.54-4.27 11.42-9.2.84-2.2-2.5-3.39-3.67-1.55-2.14 3.37-5.39 5.31-9.06 6.67-4.71 1.74-9.57 3.15-14.45 4.34-9.98 2.43-20.18 3.88-30.42 4.67-20.54 1.58-41.33.85-61.65-2.61-5.74-.98-11.46-2.15-17.12-3.55-2.36-.58-4.85-1.06-7.1-2.01-1.75-.74-3.45-1.81-3.76-3.82-.25-1.59-2.95-1.23-2.82.38Zm18.45 20.69c-.56 17.43 5.95 35.07 17.53 48.09 1.27 1.43 3.26-.64 2.08-2.08-10.73-12.97-16.66-29.2-17.03-46.01-.04-1.66-2.52-1.66-2.58 0m30.49 4.1c1.34 7.71 3.07 15.35 5.31 22.85 2.22 7.45 4.75 14.89 8.06 21.94.69 1.47 3.25.42 2.66-1.12-2.77-7.24-5.57-14.43-7.8-21.86-2.23-7.42-4.09-14.93-5.53-22.55-.33-1.77-3-1.01-2.7.74m30.19-5.11c1.23 4.21 2.08 8.61 2.87 12.92s1.14 8.73 1.89 13.07c.28 1.6 2.77 1.18 2.78-.38.03-4.43-.8-8.95-1.6-13.29-.82-4.45-2.06-8.71-3.33-13.04-.49-1.67-3.1-.96-2.61.72m6.27 35.69c.43 4.17.79 8.34.84 12.53.02 2-.05 4.01-.26 6-.24 2.17-.79 4.23-1.27 6.35-.45 1.99 2.32 2.7 3.01.83 1.5-4.01 1.68-8.71 1.57-12.94-.11-4.39-.79-8.76-1.41-13.1-.2-1.4-2.63-1.08-2.49.34Zm18.66-22.91c1.5 6.17 2.72 12.44 3.06 18.79.16 3.08.13 6.19-.18 9.26-.32 3.18-1.11 6.22-1.92 9.3-.48 1.84 2.12 2.46 2.79.77 2.38-5.97 2.69-12.98 2.27-19.32-.44-6.6-1.79-13.1-3.46-19.5-.43-1.65-2.95-.95-2.55.7Zm25.15-15.77c1.37 3.45 2.34 7.06 2.82 10.74.49 3.7.38 7.39.07 11.1-.12 1.52 2.45 1.89 2.69.36 1.16-7.67-.12-15.77-3.09-22.89-.63-1.5-3.1-.87-2.49.69m3.01 40.18c2.33 0 2.34-3.62 0-3.62s-2.34 3.62 0 3.62M45.05 67.38v.34c0 .21.04.41.13.59.06.19.17.35.31.49.14.15.3.25.49.31.18.1.38.14.59.13l.4-.05c.26-.07.48-.2.67-.39l.24-.31c.14-.24.21-.49.21-.77v-.34c0-.21-.04-.41-.13-.59-.06-.19-.17-.35-.31-.49-.14-.15-.3-.25-.49-.31-.18-.1-.38-.14-.59-.13l-.4.05c-.26.07-.48.2-.67.39l-.24.31c-.14.24-.21.49-.21.77m13.32-3.21c1.94 0 1.94-3.02 0-3.02s-1.94 3.02 0 3.02"/><path d="M57.69 74.93c1.92 0 1.92-2.98 0-2.98s-1.92 2.98 0 2.98m15.84-5.31c2.02 0 2.02-3.14 0-3.14s-2.02 3.14 0 3.14m39.07-.7c1.99 0 1.99-3.09 0-3.09s-1.99 3.09 0 3.09m16.4-7.88.05.32.15.35c.09.17.22.31.38.41.09.09.2.15.32.19.17.09.36.13.56.13l.39-.05.35-.15c.17-.09.31-.22.41-.38.13-.14.22-.31.26-.5l.05-.32c.07-.27.07-.53 0-.8-.07-.26-.2-.48-.39-.67l-.31-.24c-.24-.14-.49-.21-.76-.21-.21 0-.4.04-.58.13-.19.06-.35.16-.49.31-.19.19-.32.41-.39.67-.07.27-.07.53 0 .8Zm-1.58 12.27c2 0 2-3.11 0-3.11s-2 3.11 0 3.11m12.8-5.55c1.79 0 1.79-2.78 0-2.78s-1.79 2.78 0 2.78m-96 80.15c-6.42-.55-12.99 1.01-18.48 4.38-1.02.63-2.07 1.4-2.39 2.55-.65 2.35 1.99 4.21 4.25 5.12 15.13 6.11 31.76 7.15 48.06 7.94 25.33 1.23 51.23 2 75.52-5.3 2.09-.63 4.22-1.35 5.86-2.79s2.68-3.78 1.99-5.85c-.51-1.53-1.82-2.62-3.07-3.63-1.69-1.36-3.42-2.76-5.49-3.42-3.12-1.01-6.57-.22-9.52 1.21s-5.58 3.44-8.44 5.05c-9.52 5.38-20.92 6.01-31.85 6.25-20.33.45-41.73-.3-59.28-10.57"/><path d="M44.22 146.32c-4.84-.56-9.85.06-14.41 1.77-3.64 1.37-10.23 4.05-8.38 9.13.73 2.02 2.59 3.43 4.47 4.32 2.28 1.08 4.74 1.88 7.15 2.64 4.86 1.53 9.84 2.61 14.87 3.41 10.27 1.63 20.67 2.13 31.04 2.61 10.67.49 21.36.85 32.04.5s21.28-1.4 31.69-3.69c2.51-.55 5.01-1.18 7.49-1.89 2.32-.66 4.75-1.31 6.81-2.61 4.13-2.6 5.94-7.81 2.57-11.79-1.47-1.73-3.55-3.25-5.45-4.46-2.08-1.31-4.48-2.05-6.96-1.97-5.25.16-9.53 3.16-13.81 5.84-8.41 5.26-18.16 6.56-27.89 6.95s-19.42.44-29.06-.41-18.82-2.64-27.45-6.45a67 67 0 0 1-6.42-3.27c-2.47-1.44-4.71 2.4-2.24 3.83 15.9 9.24 34.65 10.98 52.68 10.96 9.15-.01 18.51-.03 27.51-1.89 4.44-.91 8.8-2.38 12.78-4.57 4.05-2.23 7.71-5.51 12.36-6.45 2.08-.42 4.1-.12 5.93.95 1.69.99 3.67 2.36 4.91 3.92 2.87 3.6-3.33 6.11-5.83 6.86-9.45 2.86-19.25 4.48-29.07 5.29s-19.92.86-29.87.58-19.71-.68-29.52-1.46-19.2-2.1-28.4-5.04c-1.11-.36-9.83-2.78-8.11-4.94.55-.69 1.5-1.15 2.24-1.58 1.04-.6 2.11-1.15 3.22-1.62 2.03-.85 4.17-1.47 6.33-1.87s4.52-.51 6.79-.42c2.09.08 1.99-2.96 0-3.19Z"/></svg>