<?xml version="1.0" encoding="UTF-8"?><svg xmlns="http://www.w3.org/2000/svg" viewBox="0 0 180 180"><path d="M81.27 25.37c-10.59-.58-21.19-1.06-31.78-1.49-2.65-.11-5.3-.19-7.95-.28-2.38-.08-4.79-.26-7.14.24-4.19.89-6.67 4.46-7.41 8.48-.81 4.41-.42 9.04-.36 13.5.07 5.32.19 10.64.34 15.95.3 10.28.7 20.57 1.39 30.84 1.32 19.45 3.91 39.14 11.56 57.22.88 2.08 1.79 3.99 4.25 4.41 2.47.42 5.11.23 7.62.34 5.3.23 10.61.29 15.91.41 10.52.23 21.05.34 31.57.5s21.18.34 31.77.48c10.38.14 20.77.2 31.12-.51 2.61-.18 5.21-.41 7.81-.69 1.28-.14 2.38-.99 2.38-2.38 0-1.24-1.09-2.44-2.38-2.38-.13 0 .95.35.49.12-.37-.18.41.42.1.08-.09-.1-.2-.2-.29-.29-.11-.11-.2-.23-.3-.35.4.5.03.03-.04-.08-.25-.39-.5-.78-.73-1.18-1-1.75-1.83-3.67-2.5-5.32-1.32-3.26-2.41-6.6-3.64-9.89-2.55-6.82-5.14-13.58-7.13-20.59-2.14-7.53-3.64-15.17-4.42-22.96-.8-8.01-1.03-16.06-1.74-24.07-.69-7.81-2.25-15.53-2.58-23.38-.13-3.04.32-6.29-.75-9.22-.84-2.29-2.39-4.18-4.52-5.38-4.16-2.33-9.34-2.2-13.97-2.16-6.08.05-12.15.06-18.23.04-3.46-.01-6.92-.07-10.37-.08-2.9 0-5.83.1-8.73-.02-2.74-.11-2.73 4.14 0 4.25 5.62.22 11.21.49 16.84.54 5.7.05 11.4.06 17.11.03 4.51-.02 9.31-.47 13.48.86 1.66.53 2.99 1.39 3.77 3.03 1.01 2.12.54 5.55.65 8.11.34 8.01 1.96 15.88 2.63 23.86.66 7.86.91 15.74 1.7 23.59.79 7.89 2.2 15.65 4.33 23.3 2.02 7.27 4.65 14.3 7.33 21.34 1.4 3.68 2.59 7.43 4.11 11.06.9 2.16 1.81 4.36 3.08 6.33.95 1.48 2.36 3.28 4.34 3.19v-4.75c-20.06 2.17-40.38 1.14-60.51.85-20.38-.3-40.77-.64-61.15-.65-.96 0-2.38.26-3.3-.04-.69-.22-.85-1.14-1.1-1.77-.86-2.19-1.65-4.42-2.38-6.66-1.43-4.41-2.69-8.88-3.72-13.4-2.08-9.12-3.35-18.39-4.19-27.7-1.78-19.77-2.24-39.72-2.42-59.56-.03-3.35-.51-7.52 1.24-10.56 2.01-3.48 7.25-2.44 10.58-2.37 10.26.21 20.53.3 30.79.34 2.48.01 4.97.01 7.45 0 2.02 0 2-3.02 0-3.12Z"/><path d="M29.28 61.55c38.81 1.05 77.65 1.04 116.46-.04a109 109 0 0 1-2.27-21.7c-.01-2.67 0-5.57-1.66-7.66-1.96-2.46-5.49-2.86-8.63-3.06-31.15-1.97-62.41-3.41-93.56-1.46-1.85.12-3.89.33-5.14 1.71-1.11 1.22-1.25 3.01-1.35 4.66l-1.44 26.06"/><path d="M29.28 63.27c30.2 1.93 60.59 1.73 90.83 1.24 8.54-.14 17.09-.33 25.63-.57 1.65-.05 2.66-1.5 2.34-3.07-1.19-5.77-2.01-11.52-2.25-17.41-.2-4.94.6-10.89-3.9-14.23-1.9-1.41-4.23-1.91-6.54-2.19-2.71-.33-5.46-.41-8.18-.58-5.97-.38-11.94-.71-17.91-1.01-12.11-.6-24.22-1.01-36.34-1.06-5.97-.02-11.95.04-17.92.21-2.99.09-5.97.2-8.95.35s-5.76.17-8.58.58-5.35 2.05-6.21 5c-.42 1.43-.44 2.98-.52 4.45l-.27 4.92c-.37 6.72-.76 13.44-.98 20.16-.09 2.83 4.15 2.77 4.36 0 .43-5.57.73-11.15 1.06-16.72.17-2.87.32-5.74.48-8.61.1-1.78-.03-3.92 2.03-4.48 2.33-.63 5-.47 7.4-.59 2.82-.14 5.64-.26 8.46-.35 5.64-.18 11.28-.28 16.92-.29 11.37-.02 22.74.28 34.11.77 5.64.24 11.28.53 16.92.85 2.82.16 5.64.32 8.45.49 2.29.14 4.68.11 6.93.62 2.13.48 3.74 1.45 4.27 3.67.6 2.48.27 5.24.35 7.78.21 6.33.88 12.74 2.15 18.94l2.34-3.07c-30.27.83-60.55.94-90.83.74-8.55-.06-17.08-.07-25.63.01-2.22.02-2.18 3.28 0 3.42Zm47.78 57.56c-1.21-1.51-2.47-2.98-3.73-4.45-.63-.73-1.26-1.47-1.9-2.2-.59-.68-1.43-1.4-1.81-2.24-.45-.99.27-1.67 1.14-2.11 1.43-.72 2.98-.43 4.49-.16 1.77.32 3.56.69 5.36.47 1.94-.24 3.7-1.02 5.38-1.98 3.5-2.01 6.93-4.18 10.39-6.27 3.51-2.12 7.01-4.26 10.51-6.39 3.06-1.87 6.17-3.84 9.7-4.68 2.69-.64 5.79-.41 8.09 1.25.46.33.89.73 1.24 1.17.14.18.54.65.56.88.02.19.14.06-.23.42-1.18 1.12-2.6 2.06-3.93 3-6.36 4.49-13.21 8.21-19.58 12.68-2.08 1.46-.1 4.92 2.01 3.44 6.54-4.58 13.58-8.39 20.05-13.07 1.47-1.06 3.03-2.14 4.34-3.4 1.66-1.6 1.58-3.8.36-5.65-1.98-3-5.36-4.52-8.85-4.89-4-.42-7.92 1.05-11.39 2.9-3.94 2.1-7.71 4.58-11.52 6.89-3.99 2.43-7.98 4.88-11.96 7.32-1.72 1.06-3.62 2.44-5.68 2.69s-4.26-.54-6.35-.77c-3.59-.39-8.5 1.8-8 6.1.26 2.27 2.17 3.89 3.65 5.46 1.82 1.93 3.63 3.87 5.52 5.73 1.41 1.4 3.32-.65 2.13-2.13Z"/><path d="M117.39 95.57c1.29-.5 2.59-1.02 3.83-1.63s2.58-1.22 3.66-2.09c.61-.5.56-1.51.12-2.08-.52-.67-1.31-.73-2.05-.41-.57.25-1.11.64-1.64.97s-1.09.65-1.64.97c-1.09.64-2.17 1.31-3.28 1.92-.56.31-.76 1.03-.52 1.6.23.54.92.98 1.51.74Zm-14.26-.09c-6.89-1.98-17.68-4.51-24.56-6.5-.48-.14-.97-.28-1.47-.22-.55.07-1.04.37-1.51.66-1.03.65-2.06 1.29-3.08 1.94 5.73 3.53 11.46 7.06 17.19 10.58.23.14.47.28.74.26.22-.02.42-.15.6-.28 3.19-2.21 6.38-4.43 9.57-6.64"/><path d="M103.54 93.98c-5.26-1.69-10.58-3.17-15.9-4.64-2.53-.7-5.05-1.4-7.57-2.12-1.47-.42-2.83-.83-4.33-.26s-2.93 1.71-4.31 2.58c-1.35.85-1.38 2.8 0 3.65 5.11 3.13 10.22 6.25 15.33 9.38 1.18.72 2.47 1.83 3.94 1.66 1.32-.15 2.51-1.32 3.55-2.07 2.44-1.74 4.88-3.48 7.31-5.23 1.98-1.41.13-4.7-1.93-3.31-1.67 1.13-3.35 2.26-5.02 3.39-.8.54-1.61 1.08-2.41 1.63-.64.43-1.58 1.35-2.32 1.57h1.09c-.67-.13-1.34-.73-1.92-1.09-.77-.48-1.54-.95-2.3-1.43-1.47-.91-2.93-1.81-4.4-2.72-2.93-1.81-5.86-3.63-8.79-5.44v3.65c.64-.4 1.29-.8 1.93-1.21.46-.29 1.22-.98 1.76-1.08.83-.15 2.22.53 3.03.75 2.48.66 4.98 1.25 7.47 1.84 4.98 1.18 10 2.23 14.96 3.49 1.95.49 2.73-2.39.83-3Zm-7.75 19.12c4.26-4 9.26-7.22 14.68-9.42-.89 8.48-1.79 16.97-2.68 25.45-.06.54-.12 1.1-.39 1.57-.28.49-.74.84-1.2 1.16a49 49 0 0 1-7.04 4.14c-1.45-7.58-2.35-15.27-2.67-22.99"/><path d="M96.89 114.2c4.16-3.65 8.87-6.79 14.08-8.7l-2.32-2.32c-.9 6.18-1.46 12.4-2.09 18.61-.15 1.47-.29 2.94-.43 4.41-.1 1.05.1 2.97-.62 3.78-.81.91-2.28 1.58-3.32 2.21-1.3.78-2.65 1.46-3.99 2.17l2.8 1.14c-1.03-3.59-1.41-7.48-1.83-11.18-.43-3.76-.73-7.53-.89-11.3-.1-2.28-3.66-2.3-3.56 0 .16 3.86.46 7.71.9 11.54.44 3.82 1.27 7.62 1.64 11.44.15 1.52 1.48 2.26 2.87 1.65 2.75-1.22 5.7-2.86 7.98-4.84 1.13-.99 1.46-2.24 1.63-3.68.21-1.71.39-3.43.58-5.14.77-6.76 1.59-13.53 2.04-20.31.1-1.55-1.65-2.18-2.84-1.63-5.45 2.51-10.54 5.73-14.82 9.96-1.43 1.41.7 3.49 2.19 2.19"/><path d="M87.7 121.79c2.81-2.57 6-4.47 9.31-6.32 1.66-.92 3.33-1.81 4.99-2.73.8-.45 1.61-.9 2.39-1.38.99-.6 2.12-1.15 2.44-2.35s-.55-1.95-1.59-2.09-2.04.72-2.9 1.24-1.67.99-2.52 1.47c-1.69.96-3.41 1.88-5.1 2.85-3.34 1.93-6.68 4.19-9.22 7.11-1.31 1.5.71 3.56 2.2 2.2M43.99 17.36c.06-.9.68-1.78 1.35-2.23.22-.15.47-.29.72-.39-.24.1.42-.12.49-.14.13-.03.26-.06.4-.09-.19.02-.17.03.08 0h.82q.375.045.06 0c.14.02.27.05.4.08.27.06.53.15.79.24.54.19-.25-.18.24.11.24.14.48.27.71.43.21.15.22.16.03.02.1.09.21.18.3.28.2.2.4.41.58.63-.29-.34.21.33.26.4.15.25.28.5.39.76-.19-.45.1.36.13.45.08.28.14.56.19.84-.11-.53.03.33.03.44.01.29 0 .58 0 .87 0 .15-.02.29-.03.43q.06-.42 0 0c-.05.21-.09.43-.14.64-.07.28-.17.56-.27.84.17-.47-.16.34-.21.43-.14.26-.29.52-.45.76-.05.08-.59.78-.27.4-.38.46-.79.89-1.23 1.28-.11.1-.23.19-.34.29.21-.15.19-.14-.03.03-.24.17-.49.34-.74.5-.74.46-1.39.89-1.87 1.63-1 1.54.35 3.25 1.94 3.39s2.99-1.11 4.09-2c.99-.81 1.84-1.8 2.56-2.86 1.53-2.28 2.09-4.99 1.7-7.69-.37-2.56-1.79-5.02-3.99-6.42-2.07-1.32-4.82-1.67-7.16-.93-1.34.43-2.53 1.21-3.41 2.31-1.1 1.39-1.51 2.93-1.25 4.68.12.78 1.05 1.25 1.76 1.15.82-.12 1.33-.76 1.39-1.57Zm25.48 0c.06-.9.68-1.78 1.35-2.23.22-.15.47-.29.72-.39-.24.1.42-.12.49-.14.13-.03.26-.06.4-.09-.19.02-.17.03.08 0h.82q.375.045.06 0c.14.02.27.05.4.08.27.06.53.15.79.24.54.19-.25-.18.24.11.24.14.48.27.71.43.21.15.22.16.03.02.1.09.21.18.3.28.2.2.4.41.58.63-.29-.34.21.33.26.4.15.25.28.5.39.76-.19-.45.1.36.13.45.08.28.14.56.19.84-.11-.53.03.33.03.44.01.29 0 .58 0 .87 0 .15-.02.29-.03.43q.06-.42 0 0c-.05.21-.09.43-.14.64-.07.28-.17.56-.27.84.17-.47-.16.34-.21.43-.14.26-.29.52-.45.76-.05.08-.59.78-.27.4-.38.46-.79.89-1.23 1.28-.11.1-.23.19-.34.29.21-.15.19-.14-.03.03-.24.17-.49.34-.74.5-.74.46-1.39.89-1.87 1.63-1 1.54.35 3.25 1.94 3.39 1.51.13 2.99-1.11 4.09-2 .99-.81 1.84-1.8 2.56-2.86 1.53-2.28 2.09-4.99 1.7-7.69s-1.79-5.02-3.99-6.42c-2.07-1.32-4.82-1.67-7.16-.93-1.34.43-2.53 1.21-3.41 2.31-1.1 1.39-1.51 2.93-1.25 4.68.12.78 1.05 1.25 1.76 1.15.82-.12 1.33-.76 1.39-1.57Zm25.47 0c.06-.9.68-1.78 1.35-2.23.22-.15.47-.29.72-.39-.24.1.42-.12.49-.14.13-.03.26-.06.4-.09-.19.02-.17.03.08 0h.82q.375.045.06 0c.14.02.27.05.4.08.27.06.53.15.79.24.54.19-.25-.18.24.11.24.14.48.27.71.43.21.15.22.16.03.02.1.09.21.18.3.28.2.2.4.41.58.63-.29-.34.21.33.26.4.15.25.28.5.39.76-.19-.45.1.36.13.45.08.28.14.56.19.84-.11-.53.03.33.03.44.01.29 0 .58 0 .87 0 .15-.02.29-.03.43q.06-.42 0 0c-.05.21-.09.43-.14.64-.07.28-.17.56-.27.84.17-.47-.16.34-.21.43-.14.26-.29.52-.45.76-.05.08-.59.78-.27.4-.38.46-.79.89-1.23 1.28-.11.1-.23.19-.34.29.21-.15.19-.14-.03.03-.24.17-.49.34-.74.5-.74.46-1.39.89-1.87 1.63-1 1.54.35 3.25 1.94 3.39s2.99-1.11 4.09-2c.99-.81 1.84-1.8 2.56-2.86 1.53-2.28 2.09-4.99 1.7-7.69-.37-2.56-1.79-5.02-3.99-6.42-2.07-1.32-4.82-1.67-7.16-.93-1.34.43-2.53 1.21-3.41 2.31-1.1 1.39-1.51 2.93-1.25 4.68.12.78 1.05 1.25 1.76 1.15.82-.12 1.33-.76 1.39-1.57Zm25.48 0c.06-.9.68-1.78 1.35-2.23.22-.15.47-.29.72-.39-.24.1.42-.12.49-.14.13-.03.26-.06.4-.09-.19.02-.17.03.08 0h.82q.375.045.06 0c.14.02.27.05.4.08.27.06.53.15.79.24.54.19-.25-.18.24.11.24.14.48.27.71.43.21.15.22.16.03.02.1.09.21.18.3.28.2.2.4.41.58.63-.29-.34.21.33.26.4.15.25.28.5.39.76-.19-.45.1.36.13.45.08.28.14.56.19.84-.11-.53.03.33.03.44.01.29 0 .58 0 .87 0 .15-.02.29-.03.43q.06-.42 0 0c-.05.21-.09.43-.14.64-.07.28-.17.56-.27.84.17-.47-.16.34-.21.43-.14.26-.29.52-.45.76-.05.08-.59.78-.27.4-.38.46-.79.89-1.23 1.28-.11.1-.23.19-.34.29.21-.15.19-.14-.03.03-.24.17-.49.34-.74.5-.74.46-1.39.89-1.87 1.63-1 1.54.35 3.25 1.94 3.39s2.99-1.11 4.09-2c.99-.81 1.84-1.8 2.56-2.86 1.53-2.28 2.09-4.99 1.7-7.69-.37-2.56-1.79-5.02-3.99-6.42-2.07-1.32-4.82-1.67-7.16-.93-1.34.43-2.53 1.21-3.41 2.31-1.1 1.39-1.51 2.93-1.25 4.68.12.78 1.05 1.25 1.76 1.15.82-.12 1.33-.76 1.39-1.57Z"/><path d="M19.23 63.31c-2.54 27.91-2.9 56.38 4.41 83.65.9 3.37 1.91 6.7 3.03 10 .56 1.65 1.15 3.3 1.77 4.93.59 1.55 1.08 3.31 2.35 4.46 1.28 1.16 2.96 1.35 4.61 1.47 1.9.14 3.8.23 5.71.33 3.81.19 7.61.37 11.42.53 15.24.65 30.46.96 45.7 1.06 8.61.06 17.23.04 25.84-.04 4.31-.04 8.61-.11 12.92-.2s8.64-.1 12.92-.56c2.36-.25 2.44-3.6 0-3.73-7.42-.42-14.93 0-22.36.05s-14.91.05-22.36-.03c-14.9-.15-29.82-.58-44.71-1.12-7.45-.27-14.9-.59-22.34-.97-.83-.04-1.65-.07-2.48-.1-.41-.02-1.25.1-1.64-.15-.34-.22-.48-.81-.62-1.18a151 151 0 0 1-4.11-12.06c-3.85-13.04-6.11-26.57-7.19-40.11-1.23-15.39-1.09-30.83.17-46.22.16-1.96-2.87-1.94-3.05 0Z"/><path d="M12.03 64.2c-4.88 25.81-5.51 52.79-1.18 78.72.6 3.57 1.32 7.09 2.25 10.6.88 3.33 1.72 6.8 3.21 9.91.81 1.68 3 .38 2.77-1.17-.45-3.04-1.36-6.02-1.98-9.03s-1.15-6.03-1.69-9.05c-1.13-6.36-1.93-12.77-2.47-19.21-1.09-13.05-1.21-26.15-.47-39.23.39-6.97 1.09-13.93 2.16-20.83.26-1.69-2.28-2.45-2.61-.72Z"/><path d="M69.77 24.39c-6.07-1.13-12.39-1.17-18.54-1.28-7.8-.14-15.64-.08-23.43.33-2.93.15-5.86.38-8.66 1.32-2.81.94-5.38 2.55-6.88 5.19-1.51 2.66-1.78 5.82-1.85 8.82-.15 7.22.13 14.46.61 21.66.1 1.5.13 3.12 1.13 4.34 1.24 1.52 3.05 1.5 4.84 1.46 3.66-.07 7.32-.18 10.97-.32 8.31-.31 16.62-.66 24.93-1.13 8.29-.47 16.66-.87 24.91-1.86 1.76-.21 1.88-2.86 0-2.84-6.97.06-13.95.51-20.92.76-6.98.24-13.96.49-20.94.69-3.49.1-6.98.16-10.47.21-1.66.03-3.33.05-4.99.09-.83.02-1.66.03-2.49.05-.67.01-1.95.28-2.6.04.36.13.04.18.08-.14.03-.22-.05-.67-.06-.85-.06-.82-.1-1.63-.15-2.45-.1-1.8-.18-3.59-.24-5.39-.12-3.43-.16-6.86-.16-10.3 0-2.85-.19-5.87.53-8.65.64-2.45 2.21-4.08 4.59-4.93 1.19-.43 2.43-.69 3.67-.94.15-.03.3-.04.45-.07-.82.19-.04 0 .19-.01 1.11-.12 2.22-.18 3.33-.24 7.29-.39 14.61-.41 21.91-.45 4.08-.02 8.17-.07 12.25-.16 2.53-.06 5.09-.25 7.62-.12 1.6.08 1.99-2.53.38-2.82Z"/></svg>