<?xml version="1.0" encoding="UTF-8"?><svg xmlns="http://www.w3.org/2000/svg" viewBox="0 0 180 180"><path d="M65.22 68.28c.22 4.9.39 9.79.7 14.69.14 2.29.31 4.57.46 6.85s.34 4.34 1.04 6.43c1.28 3.81 3.83 6.56 6.09 9.78.92 1.31 1.76 2.69 2.38 4.18.74 1.78 1.07 3.7 1.82 5.47.32.75 1.41 1.08 2.14.87.86-.25 1.3-.98 1.39-1.83.38-3.45-1.39-7.31-3.2-10.14-1.97-3.08-4.79-5.69-6.04-9.18-1.45-4.06-1.32-8.67-1.75-12.92-.48-4.74-1.05-9.46-1.59-14.2-.24-2.15-3.56-2.27-3.45 0Z"/><path d="M65.69 68.58c-5.13-1.95-10.36 2.42-10.18 7.7.2 5.95 5.28 9.55 10.14 11.91.97.47 2.16.26 2.74-.72.51-.88.26-2.26-.72-2.74-3.46-1.68-7.48-3.87-8.13-8-.23-1.49.23-2.97 1.38-3.95.89-.77 2.51-1.38 3.92-1.1 2.05.41 2.78-2.37.86-3.1Zm45.63-.3c-.54 4.73-1.11 9.46-1.59 14.2-.42 4.25-.3 8.86-1.75 12.92-1.25 3.5-4.07 6.1-6.04 9.18-1.81 2.83-3.58 6.7-3.2 10.14.09.85.53 1.58 1.39 1.83.73.21 1.83-.12 2.14-.87.75-1.77 1.08-3.69 1.82-5.47.62-1.48 1.46-2.87 2.38-4.18 2.26-3.22 4.81-5.97 6.09-9.78.7-2.09.9-4.25 1.04-6.43.15-2.28.32-4.57.46-6.85.3-4.89.48-9.79.7-14.69.1-2.26-3.21-2.16-3.45 0Z"/><path d="M115.17 71.69c1.42-.28 3.03.34 3.92 1.1 1.16.98 1.61 2.48 1.38 3.95-.65 4.13-4.67 6.32-8.13 8-.97.47-1.23 1.86-.72 2.74.58.99 1.76 1.19 2.74.72 4.86-2.36 9.94-5.96 10.14-11.91.18-5.28-5.05-9.65-10.18-7.7-1.92.73-1.2 3.52.86 3.1Zm-37.3 43.04c-.3 2.6-.78 5.18-2.4 7.31-1.55 2.05-3.75 3.31-6.08 4.29-5.78 2.43-12.23 2.48-18.39 2.82-6.92.38-13.86.91-20.28 3.75-6.41 2.83-11.73 8.02-15.64 13.76-4.21 6.19-7.06 13.83-7.36 21.35-.05 1.23 1.08 2.28 2.28 2.28 1.35 0 2.13-1.05 2.28-2.28.79-6.59 2.74-12.77 6.39-18.35 3.58-5.47 8.68-10.36 14.78-12.89 12.27-5.08 26.64-.93 38.61-7.12 5.62-2.9 10.3-8.66 8.71-15.31-.42-1.74-2.72-1.15-2.9.39m21.75-1.82c-1.74 5.61 1.64 10.58 6.11 13.64 4.51 3.08 9.95 4.48 15.25 5.51 6.8 1.33 13.75 1.74 20.51 3.21 3.86.84 7.64 2.07 11 4.19 2.78 1.75 5.12 4.21 7.02 6.88 4.54 6.38 7.28 13.92 8.21 21.67.15 1.22.94 2.28 2.28 2.28 1.2 0 2.33-1.04 2.28-2.28-.29-7.09-3-14.37-6.49-20.48-3.77-6.59-8.95-11.77-16.04-14.65-12.23-4.96-26.14-2.99-38.39-7.91-2.49-1-4.89-2.25-6.62-4.36-1.69-2.06-2.09-4.65-2.22-7.3-.08-1.65-2.4-2.02-2.9-.39ZM66.35 86.29c-.91-1.1-2.41-.72-3.51-.24-.87.38-1.7.91-2.39 1.56-1.58 1.49-2.28 4.14-.9 6 .67.9 1.56 1.46 2.61 1.82.88.3 1.92.46 2.84.38 1.09-.1 2.13-.53 2.86-1.38a5.76 5.76 0 0 0 1.26-2.56c.46-2.18.12-4.75-1.9-6.04-.82-.53-2.1-.2-2.55.67-.49.92-.21 1.99.67 2.55.28.18-.31-.3-.09-.08.05.05.13.14.18.19-.19-.26-.24-.32-.16-.21.03.04.05.07.07.11.05.08.09.15.13.23.15.28-.15-.44-.05-.12.03.09.06.17.08.26.05.18.08.36.11.54l-.07-.5c.06.51.05 1.03-.01 1.54l.07-.49c-.05.31-.11.62-.21.92-.02.07-.05.14-.07.21-.11.31.16-.32.07-.16-.08.14-.14.28-.23.42-.04.07-.21.28 0 .02s.04-.05-.02 0l-.15.15c-.24.24.15-.1.15-.11 0 .06-.61.32-.22.15.33-.14 0-.01-.05 0-.11.03-.23.05-.34.07l.49-.07a5.7 5.7 0 0 1-1.24-.04l.49.07c-.41-.06-.82-.14-1.21-.27-.17-.06-.32-.2.09.05-.08-.05-.17-.08-.25-.12-.09-.05-.19-.11-.28-.17-.32-.21.21.19.08.06l-.22-.22c-.22-.22.23.37.07.08-.05-.08-.09-.17-.14-.25.25.39.09.23.05.06-.02-.06-.03-.13-.04-.19.03.3.05.38.03.24v-.3c.02-.43-.1.37-.01.03.03-.1.04-.2.07-.29s.07-.19.1-.29c-.15.49-.08.19-.01.06.05-.09.1-.18.15-.26l.11-.17c-.16.2-.2.25-.11.15.15-.18.3-.35.48-.5l.24-.21c.27-.23-.28.2 0 0 .39-.26.79-.5 1.19-.74.08-.05.17-.1.25-.14.27-.15-.35.09-.05.02.06-.02.12-.03.17-.05l-.25.03c.17 0 .11 0-.18-.03a.96.96 0 0 1-.42-.23c.59.56 1.62.63 2.2 0 .62-.67.55-1.53 0-2.2Z"/><path d="M112.73 86.75a20.5 20.5 0 0 0-.56 3.56c-.06.87 0 1.79.27 2.62.35 1.08 1.02 2.05 2.05 2.58s2.22.62 3.34.5 2.25-.39 3.18-1.05 1.63-1.57 1.99-2.68c.63-1.97 0-4.29-1.47-5.73-1.73-1.71-4.42-2.25-6.74-1.6-.94.26-1.62 1.34-1.31 2.31.33 1.02 1.28 1.53 2.31 1.31.09-.02.18-.03.28-.05.26-.05-.51.04-.11.01.15 0 .3-.03.45-.03.17 0 .34-.01.51 0 .09 0 .19 0 .28.01h.11c.21.03.15.02-.17-.02.13.06.3.05.44.09.18.04.35.11.53.16.12.04.28.16-.14-.07.06.03.13.06.2.09.18.09.36.19.52.31.2.13.1.2-.07-.07.03.04.14.11.17.14.11.1.21.2.31.31.04.04.27.3.05.05s0 0 .03.06c.09.15.16.31.25.46-.23-.38-.11-.29-.07-.16.03.08.06.16.08.25.04.15.08.3.11.45.06.3-.03-.16-.02-.19 0 .06.01.14.01.21 0 .19 0 .37-.01.56-.02.25.11-.49.01-.14-.02.07-.03.13-.05.2-.02.08-.19.58-.07.26s-.09.15-.14.23c-.03.05-.09.11-.12.17.18-.23.21-.28.09-.13l-.08.08c-.07.07-.14.13-.21.2-.17.16.3-.19.09-.08-.15.09-.29.18-.44.26-.29.16.09-.06.12-.04-.01-.01-.24.09-.27.1-.2.07-.41.12-.62.17-.08.02-.15.03-.23.04-.34.06.12-.03.12-.02-.01-.02-.54.04-.59.04h-.5c-.01 0-.23 0-.26-.02q.39.06.09 0l-.13-.03s-.43-.08-.15-.03c.25.05-.08-.06-.13-.08-.15-.06-.07-.18.11.1-.03-.04-.11-.09-.15-.13-.05-.05-.21-.29-.06-.04.16.26 0-.02-.03-.06-.03-.06-.07-.11-.1-.17-.02-.04-.05-.09-.07-.13-.06-.12-.03-.06.08.18 0-.14-.12-.35-.15-.49-.02-.07-.03-.14-.04-.2-.01-.07-.03-.14-.04-.21l.03.25c.02-.17-.04-.41-.05-.58-.01-.19-.02-.38-.02-.57q0-.72.06-1.44c.02-.24.05-.48.07-.71.05-.46-.04.21 0-.07.03-.17.05-.33.08-.5.14-.81-.21-1.74-1.1-1.94-.82-.19-1.73.24-1.94 1.1Zm-77.19 64.93c-.51 5.8-.77 11.6-.86 17.43-.04 2.6 3.97 2.59 4.03 0 .13-5.82.09-11.62-.2-17.43-.1-1.93-2.8-1.89-2.97 0m105.38-1.89c.1 1.64-.06 3.29.04 4.94s.19 3.31.32 4.96.34 3.19.72 4.75c.18.74.42 1.45.68 2.17s.03 1.08.2 1.87c.22 1 1.29 1.41 2.19 1.24l.19-.04c.68-.12 1.17-.76 1.37-1.37.52-1.55-.34-2.97-.76-4.43-.41-1.42-.63-2.88-.8-4.35-.19-1.6-.33-3.2-.49-4.8-.09-.86-.2-1.72-.32-2.58-.11-.79-.36-1.57-.44-2.36s-.61-1.46-1.46-1.46c-.76 0-1.51.67-1.46 1.46Z"/><path d="M38.48 162.98c3.7-1.93 7.83-3.13 11.87-4.1 3.99-.96 8.07-1.47 12.17-1.66 8.42-.4 16.81.72 24.93 2.9 2.43.65 3.67-2.61 1.66-3.94-.9-.6.71-1.98 1.1-2.19 1.43-.75 3.27-.93 4.86-1.01 1.7-.08 3.6.03 5.04 1.04.36.25 1.09.82 1.09 1.34 0 .33.06.08-.2.46-.07.1.41.09-.11-.12v4.18c3.09-1.21 6.33-1.34 9.6-1.42 3.46-.09 6.93-.04 10.38.13 6.91.36 13.65 1.42 20.46 2.63v-4.45c-.36.12-.73.23-1.09.35-2.26.73-1.85 4.06.56 4.14l1.14.04c2.58.09 3.16-3.94.61-4.53-7.06-1.64-14.46-2.35-21.68-2.64-3.54-.14-7.09-.14-10.63 0-3.53.14-7.18.31-10.51 1.58-2.1.8-2 3.35 0 4.18 3.68 1.53 6.7-2.9 5.51-6.14-1.32-3.6-5.42-5.04-8.95-5.12-3.24-.08-7.46.43-9.88 2.82-2.41 2.39-2.41 6.53.52 8.47.55-1.31 1.11-2.63 1.66-3.94-8.61-2.28-17.59-3.47-26.5-2.98-4.39.24-8.77.93-13.01 2.09s-8.27 3.08-12.19 5.2c-1.78.96-.2 3.65 1.59 2.71Z"/><path d="M83.25 169.41c2.17-.99 4.09-2.55 5.47-4.49 1.43-2 2.23-4.31 2.54-6.74.12-.95-.92-1.86-1.82-1.82-1.08.05-1.71.8-1.82 1.82-.05.48.05-.24 0 .03l-.06.37c-.04.24-.09.49-.15.73-.12.48-.26.96-.43 1.42-.05.14-.1.28-.16.42-.06.17-.06.13 0-.01-.1.23-.2.45-.32.68a12.3 12.3 0 0 1-1.21 1.97c-.07.1-.14.2-.22.3-.02.03-.26.35-.13.19s-.15.19-.15.18c-.08.1-.16.19-.24.29-.16.19-.33.37-.5.55-.34.35-.71.68-1.09 1-.1.09.07-.05-.12.09-.1.07-.2.15-.3.22-.22.16-.45.3-.69.45-.63.38-.87 1.22-.49 1.87.4.69 1.2.8 1.87.49Zm14.2.73c1.51-1.57 2.78-3.4 3.67-5.39.47-1.05.85-2.13 1.12-3.24.12-.49.21-.99.28-1.49.15-.99.26-1.76-.19-2.71-.65-1.38-2.74-1.21-3.44 0-.38.66-.38 1.34-.42 2.08-.01.27-.03.53-.06.8-.01.12-.03.24-.04.35-.03.31.06-.31 0 0-.18.97-.38 1.92-.67 2.87-.14.45-.3.9-.47 1.34-.03.07-.1.25-.03.08l-.15.33c-.1.22-.2.43-.31.65-.46.9-.99 1.76-1.59 2.57-.43.58-.15 1.49.38 1.88.57.42 1.4.42 1.92-.11Z"/><path d="M105.2 169.51c1.5-2.14 2.05-4.69 1.58-7.26a9.2 9.2 0 0 0-1.32-3.29c-.84-1.3-2.27-3.08-4.04-2.42-.75.28-1.29.8-1.4 1.62-.1.76.25 1.55.93 1.95.17.1.34.18.51.26.09.04.18.1.27.15-.15-.07-.21-.18-.04 0 .16.16.32.31.47.48.07.08.14.17.22.25-.12-.14-.1-.14 0 0 .26.37.48.75.68 1.14.07.13.09.19.02.02.04.1.08.21.12.31.08.24.16.48.22.72.05.21.1.43.14.65.04.28-.02-.24 0 .05 0 .11.02.23.02.34q.015.345 0 .69c0 .11-.01.23-.02.34 0 .03-.04.33-.02.21-.11.72-.41 1.66-.82 2.34s-.15 1.58.52 1.97c.72.42 1.52.12 1.97-.52Zm-65.95.46c14.63-2.49 29.43-2.85 44.18-1.31 1.01.11 1.88-.94 1.88-1.88 0-1.1-.87-1.78-1.88-1.88-14.97-1.49-30.22-.69-45 2.11-1.95.37-1.11 3.3.82 2.97Z"/><path d="M106.64 168.68c12.58-.1 25.17.42 37.75.82 2.85.09 2.77-4.15 0-4.38-1.05-.09-2.11-.12-3.16-.18-2.19-.13-2.7 3.41-.52 3.85 1.04.21 2.06.45 3.1.63l.58-4.3c-12.59-.39-25.17-.04-37.75.3-2.1.06-2.11 3.28 0 3.27Zm-51.89-27.06a150 150 0 0 0 16.62 2.48c1.84.17 3.99.64 5.65-.07 1.02-.44.89-2.04 0-2.52s-1.8-.42-2.79-.48c-.82-.05-1.64-.1-2.46-.16-1.84-.12-3.68-.27-5.51-.46-3.61-.37-7.19-.89-10.76-1.55-1.79-.33-2.57 2.38-.76 2.76Zm71.94-5.71c-3.83.82-7.66 1.62-11.53 2.28-1.88.32-3.76.61-5.66.81-.95.1-1.9.18-2.86.26-1.06.09-2.13.06-3.07.61-1.37.82-.91 2.62.41 3.14.97.39 2.09.13 3.1 0s2.08-.29 3.12-.45c1.89-.3 3.78-.63 5.66-1 3.91-.76 7.79-1.67 11.68-2.57 2.01-.46 1.16-3.52-.85-3.09Zm-60.1-66.4c-.68-1.67 1.05-3.22 2.22-4.59 1.69-1.97 2.44-4.57 3.85-6.74 3.03-4.67 9.13-6.89 14.61-5.92 1.49.26 2.95.74 4.46.88 2.68.26 5.38-.51 8.05-.15 2.19.3 4.19 1.35 6.15 2.39 1.32.7 2.68 1.43 3.63 2.59.96 1.17 1.41 2.67 1.84 4.13.62 2.1 1.23 4.21 1.85 6.31.84.52 1.7-.66 1.96-1.61 1.57-5.75 1.37-12.25-1.86-17.26s-9.93-7.96-15.47-5.74c-.77.31-1.55.71-2.38.66-.67-.04-1.27-.37-1.88-.65-4.69-2.15-10.19-1.29-15.17.05-5.01 1.35-10.32 3.48-12.88 7.99-2.07 3.66-1.88 8.25-.51 12.22.56 1.63 1.31 3.42.64 5.01"/><path d="M68.04 69.11c-.14-.9 1.33-2.01 1.85-2.59.93-1.02 1.68-2.15 2.33-3.37 1.2-2.26 2.16-4.53 4.15-6.21 1.68-1.42 3.79-2.28 5.94-2.69 2.45-.46 4.69.04 7.08.56 1.56.34 3.11.49 4.7.41s3.16-.32 4.74-.23c2.71.16 5.56 1.8 7.77 3.29 2.29 1.55 2.63 4.43 3.37 6.9.41 1.36.77 3.05 1.49 4.28.8 1.37 2.69 1.33 3.85.53 2.13-1.48 2.37-5.24 2.63-7.59.3-2.73.16-5.54-.48-8.21-1.18-4.87-4.3-9.23-8.83-11.49-2.18-1.09-4.61-1.75-7.06-1.7a13.3 13.3 0 0 0-3.26.47c-.61.17-1.18.43-1.77.65-.85.32-1.06.26-1.88-.11-5.38-2.4-11.26-1.71-16.8-.22s-10.99 3.75-13.99 8.66c-1.63 2.67-2.23 5.94-1.98 9.03.13 1.55.4 3.1.87 4.59.43 1.4 1.34 2.97.85 4.45-.88 2.65 3.21 3.71 4.14 1.14 1.13-3.1-.88-6.11-1.39-9.13-.45-2.67-.19-5.55 1.25-7.9 2.68-4.39 8.39-5.98 13.07-7.12 2.82-.69 5.81-1.17 8.71-.77 1.48.2 2.78.74 4.14 1.31 1.77.75 3.17.41 4.89-.25 4.48-1.73 9.43.21 12.43 3.76 1.93 2.29 2.96 5.38 3.25 8.33.16 1.62.14 3.28-.04 4.9-.08.71-.2 1.42-.35 2.12-.07.33-.13.67-.23.99-.02.21-.09.4-.19.58-.23.24-.16.24.22 0l1.03.28-.27-.13.95 1.23c-.56-2.54-1.24-5.08-2.06-7.55s-2.04-4.3-4.19-5.7c-2.03-1.32-4.41-2.47-6.72-3.19-2.56-.8-5.06-.56-7.69-.36-1.22.09-2.44.13-3.65-.1-1.28-.24-2.53-.59-3.82-.77-2.08-.29-4.16-.2-6.21.25-4.01.88-7.69 3.27-9.93 6.74-1.39 2.15-2.07 4.7-3.72 6.69s-3.22 3.86-1.96 6.39c.82 1.65 3 .39 2.76-1.16Zm6.29 36.98c-1.48 1.6-2.99 3.27-3.71 5.32s-.44 4.63 1.25 6.01c1.1.89 2.59 1.14 4 1.09.26 0 .53-.03.73-.18.17-.12.27-.31.36-.5.7-1.45.9-3.12.57-4.69-.39-1.84-1.45-3.45-2.5-5.01"/><path d="M73.15 104.91c-1.91 1.59-3.57 3.51-4.46 5.86-.78 2.07-.69 4.6.4 6.55 1.3 2.31 3.94 3.29 6.48 3.27.82 0 1.63-.12 2.29-.64s.98-1.22 1.28-1.98c.46-1.17.67-2.5.58-3.76-.1-1.54-.55-2.95-1.25-4.32-.31-.61-.67-1.2-1.05-1.78-.62-.94-1.17-1.64-2.38-1.75-.78-.07-1.48.6-1.7 1.29-.39 1.27.55 2.28 1.15 3.31.51.89.76 1.37 1 2.29.05.21.1.42.14.64-.04-.26.02.25.02.33q.015.33 0 .66c0 .15-.02.29-.03.44.02-.22 0 .02-.02.1-.09.43-.2.85-.36 1.26.1-.26-.13.22-.13.25-.02-.08.38-.32.37-.31.21-.14.54-.16.19-.18-.2 0-.41 0-.61-.01-.11 0-.59-.08-.26-.01-.2-.04-.4-.08-.59-.13l-.29-.09c-.04-.01-.39-.16-.22-.07.21.1-.15-.09-.2-.12-.09-.05-.17-.1-.25-.16.24.15-.07-.06-.15-.14-.12-.12-.32-.38-.11-.08-.11-.16-.22-.32-.31-.5-.08-.14-.21-.61-.1-.19-.04-.16-.11-.32-.15-.49s-.07-.34-.1-.5c.08.41 0-.06 0-.23v-.52c0-.16.09-.65.01-.24.08-.38.16-.75.29-1.11.03-.1.07-.2.11-.3.03-.08.12-.29.04-.1.11-.26.24-.5.38-.75.24-.43.5-.84.79-1.24.65-.91 1.22-1.66 1.84-2.54.47-.67.19-1.69-.43-2.15-.7-.53-1.53-.41-2.18.13Z"/><path d="M73.92 119.61c-3.19 2.25-5.19 6.12-5.16 10.03 0 .35.02.71.2 1.01.2.35.57.56.93.75 1.57.8 3.62 1.32 4.99.2.56-.46.91-1.12 1.18-1.8 1.09-2.72 1.1-5.86.02-8.59a.59.59 0 0 0-.6.19"/><path d="M73.17 118.32c-4.05 2.16-6.7 6.88-6.52 11.48.06 1.62.88 2.8 2.32 3.5 1.19.57 2.42.98 3.75 1.04s2.79-.42 3.79-1.39 1.52-2.3 1.9-3.58c.82-2.82.71-5.97-.36-8.7-.32-.82-1.02-1.54-1.97-1.5-1.01.04-1.67.47-2.26 1.27-.48.65-.28 1.8.3 2.33.63.58 1.57.75 2.33.3l-.91.12-1.43-1.43c.17.46.32.92.44 1.4.05.2.09.41.13.61.03.14.05.28.07.41-.03-.23 0-.05 0 .08.04.49.07.97.05 1.46 0 .21-.02.42-.03.63-.01.14-.03.28-.04.42.02-.23 0-.06-.01.07-.09.48-.19.96-.33 1.43-.06.2-.13.4-.2.6-.05.13-.09.26-.15.39.09-.2.04-.08-.03.04-.06.12-.13.23-.19.35 0 .01-.18.29-.06.11s-.46.42-.08.14c-.14.11-.44.24-.1.11-.17.07-.72.15-.26.11-.2.01-.4.02-.6.01-.09 0-.18-.01-.26-.02.09 0 .42.09.03 0-.42-.1-.82-.22-1.22-.37.38.15-.11-.06-.23-.12-.06-.03-.5-.32-.53-.3.12-.06.34.39.37.46.12.3 0 .23 0 .04v-.36c0-.43.04-.85.07-1.28-.03.37 0 0 .03-.17q.06-.36.15-.72c.1-.41.21-.83.33-1.24.05-.17.11-.35.17-.52.03-.09.3-.7.14-.37.42-.89.9-1.72 1.47-2.52.37-.53 1.08-1.36 1.74-1.98 1.26-1.18-.34-3.11-1.8-2.33Z"/><path d="M71.09 132.78c-3.21 1.82-5.5 5.19-6.01 8.85-.04.3-.07.6.02.89.09.26.27.48.48.66 1.6 1.44 4.33.72 5.68-.95s1.65-3.95 1.75-6.09c.04-.91.04-1.88-.43-2.66l-.46.34"/><path d="M70.61 131.03c-2.29.86-4.11 2.54-5.47 4.53-.65.95-1.15 1.99-1.56 3.07s-.77 2.38-.73 3.53c.1 3.2 3.8 4.43 6.45 3.74 2.53-.65 4.22-2.66 5.07-5.04.46-1.27.62-2.65.71-3.98.1-1.53.1-3.1-.69-4.46-.76-1.31-2.86-1.4-3.6 0-.08.16-.16.31-.25.47-.78 1.47.5 3.01 2.07 2.7.18-.03.35-.07.53-.1l-2.35-.96c.18.34.03.04 0-.04.03.1.06.22.1.32.03.08.09.43.01-.05.02.11.02.23.03.34.03.46 0 .91-.03 1.37s-.02.91-.12 1.33c.13-.53-.03.15-.05.27-.04.25-.1.49-.16.73-.09.38-.19.83-.38 1.17.25-.45-.07.11-.13.23-.12.22-.26.41-.39.62-.16.24.23-.22.04-.05-.07.06-.12.14-.19.2-.05.06-.47.5-.25.25.16-.19.07-.05 0 0s-.15.1-.23.15-.16.09-.24.14c-.21.11-.43.09 0 .02-.15.03-.31.11-.46.15-.09.03-.69.12-.32.09s-.24 0-.32 0h-.2c-.44 0 .47.13.06 0-.08-.02-.17-.05-.25-.07-.24-.05-.04-.15.16.08-.06-.07-.31-.2-.4-.22-.25-.07.31.29.12.1-.11-.11-.14-.27-.1-.06.02.12.11.32.15.44.11.27-.03-.13.03-.24-.14.29-.05.3 0 .1.02-.1.04-.2.06-.31a13.4 13.4 0 0 1 .5-1.8c.06-.18.11-.42.22-.58-.24.37-.1.22-.04.09.05-.09.09-.19.13-.28.19-.4.41-.79.64-1.16.12-.2.25-.39.39-.59.06-.09.12-.17.18-.25.23-.32-.17.19 0 0 .31-.35.59-.73.91-1.07s.67-.65 1.02-.96c.17-.15.35-.3.52-.46.06-.05.27-.23-.02 0 .2-.16.41-.32.61-.48.59-.48.69-1.57.28-2.2s-1.28-1.12-2.05-.83Z"/><path d="M67.21 144.48c-4.03 3.45-6.8 8.32-7.71 13.54-.18 1.04-.29 2.1-.21 3.15 3.51.2 7.04.06 10.53-.41.07-2.67.06-5.34-.05-8-.04-1.01-.1-2.04-.44-2.99-.48-1.35-1.52-2.51-1.7-3.93"/><path d="M66.32 142.94c-2.97 1.77-5.15 4.62-6.7 7.67s-2.79 6.97-2.58 10.56c.08 1.27.97 2.19 2.26 2.26 3.71.19 7.44 0 11.11-.56.93-.14 1.6-1.23 1.6-2.11 0-2.77.02-5.54-.13-8.31-.08-1.49-.29-2.89-.93-4.25-.47-1-1.12-1.85-1.3-2.92s-1.56-1.73-2.57-1.46c-1.18.33-1.64 1.45-1.46 2.57.19 1.21.83 2.26 1.39 3.33.51.96.6 1.95.64 3.04.1 2.67.11 5.34-.02 8l2.18-2.18c-3.51.38-7 .53-10.53.33l2.26 2.26c-.09-1.53.17-3.01.57-4.49.39-1.44.85-2.68 1.46-3.91 1.31-2.64 3.07-4.8 4.89-7.04.56-.69.73-1.6.14-2.34-.54-.68-1.52-.92-2.3-.46Zm-1.85-74.18c-1.72-5.24-3.47-10.71-2.74-16.18.69-5.18 3.67-9.96 7.88-13.06s9.56-4.52 14.77-4.16c2.84.19 5.29 1.98 7.93 3 3.42 1.32 6.81-.39 10.21-.78s6.71 1.5 9.6 3.19c1.05.61 2.12 1.24 2.93 2.15.56.63.98 1.37 1.38 2.11.95 1.8 1.79 3.69 2.21 5.68 1.17 5.54-.99 11.3-4.13 16.02.84-2.27.43-4.86-.62-7.04s-2.69-4.02-4.36-5.77c-1.11-1.17-2.26-2.32-3.64-3.16-1.79-1.1-3.87-1.63-5.94-1.97-4.31-.71-8.71-.67-13.07-.48-5.12.23-10.26.67-15.23 1.89"/><path d="M65.96 68.35c-1.93-6.29-3.92-13.57-1.05-19.88 2.52-5.55 7.52-9.36 13.44-10.66 2.91-.64 6.08-.8 8.84.43 1.41.63 2.75 1.39 4.18 1.97 1.72.7 3.54.84 5.37.61 1.69-.21 3.32-.68 5-.97s3.2-.08 4.79.53c1.43.55 2.77 1.34 4.09 2.11 1.39.81 2.63 1.52 3.46 2.94 1.85 3.14 2.98 6.64 2.51 10.31s-2.05 6.91-4.01 9.9l4.01 1.69c1.61-4.81-.8-9.4-3.86-12.99-1.52-1.78-3.16-3.54-5.07-4.91-1.81-1.3-3.97-2.05-6.14-2.49-4.98-1-10.1-.97-15.15-.74-5.15.23-10.32.7-15.33 1.94-2.72.67-1.57 4.83 1.15 4.19 4.35-1.03 8.76-1.51 13.22-1.76s8.88-.4 13.27.21c1.81.25 3.73.6 5.38 1.44 1.79.91 3.17 2.4 4.53 3.86 2.52 2.7 5.1 6.22 3.78 10.09-.83 2.45 2.7 3.68 4.01 1.69 2.05-3.1 3.77-6.59 4.43-10.27.7-3.92.24-7.65-1.34-11.3-.74-1.73-1.59-3.52-2.87-4.93-1.22-1.35-2.92-2.24-4.48-3.13-3.41-1.94-6.88-3.27-10.85-2.6-1.88.32-3.73 1.01-5.64 1.13s-3.41-.63-5.08-1.44c-1.61-.78-3.26-1.57-5.04-1.85s-3.66-.24-5.47-.02c-7.12.84-13.68 4.61-17.43 10.82-2.06 3.41-3.07 7.4-2.95 11.37.14 4.78 1.76 9.1 3.31 13.55.65 1.86 3.57 1.1 2.98-.82Zm22.08 5.6c-.08 2.2-.04 4.41.04 6.61l.11 3.24c.04 1.22-.06 2.6.47 3.72.28.59 1.07.89 1.67.8.7-.11 1.15-.55 1.4-1.2.39-1 .12-2.38.07-3.44l-.15-3.24c-.1-2.17-.23-4.33-.48-6.49-.1-.84-.65-1.57-1.57-1.57s-1.54.72-1.57 1.57Zm-4.7 18.46c1.91 1.91 4.57 2.47 7.19 2.33 1.25-.06 2.56-.21 3.77-.53 1.28-.35 3.11-1.26 3.05-2.81-.04-1.08-.99-1.79-2.04-1.55-.39.09-.73.28-.99.59-.15.13-.15.15-.01.04-.09.06-.18.12-.27.17s-.19.1-.29.14c.16-.07.14-.07-.05 0-.16.04-.32.09-.48.13-1 .24-1.83.33-2.8.41-1.03.09-1.98.08-2.8-.11-.84-.19-1.57-.41-2.18-.9s-1.49-.61-2.1 0c-.57.57-.57 1.53 0 2.1Zm.22-15.16.06-.09a1.7 1.7 0 0 0 0-1.7q-.225-.375-.6-.6a1.7 1.7 0 0 0-1.7 0q-.375.225-.6.6a1.7 1.7 0 0 0 0 1.7l.06.09c.14.24.34.43.58.58.25.15.52.22.81.22s.56-.07.81-.22c.24-.14.43-.34.58-.58m15.07 0 .06-.09a1.7 1.7 0 0 0 0-1.7q-.225-.375-.6-.6a1.7 1.7 0 0 0-1.7 0q-.375.225-.6.6a1.7 1.7 0 0 0 0 1.7l.06.09c.14.24.34.43.58.58.25.15.52.22.81.22s.56-.07.81-.22c.24-.14.43-.34.58-.58"/><path d="M77.26 69.06c.05-.08.11-.16.17-.24-.1.12-.09.11.02-.03.13-.15.26-.29.39-.43s.28-.27.43-.4c.07-.06.15-.13.23-.19-.15.11-.14.11.01 0 .33-.21.66-.42 1.01-.61.17-.09.35-.18.53-.27.19-.08.18-.08-.02 0 .09-.04.18-.07.28-.1.42-.15.86-.27 1.3-.35l.35-.06c-.19.02-.18.02.04 0 .23-.02.47-.04.7-.05q.705-.03 1.41 0c.23.01.47.04.7.06-.19-.03-.18-.03.04 0 .22.04.44.06.66.08.89.07 1.66-.74 1.77-1.56.12-.87-.42-1.75-1.29-1.98-2.23-.59-4.86-.32-6.98.57-1.89.8-3.49 2.15-4.44 3.99-.37.72-.21 1.72.56 2.13s1.64.17 2.13-.56m27.83-5.87c-1.24-1.44-2.94-2.61-4.77-3.13-.93-.27-1.91-.41-2.88-.42-1.22-.02-2.54.11-3.45 1.01-.96.96-.52 2.68.8 3.03.3.08.61.14.92.14.22 0 .44-.05.66-.08.32-.05.09 0-.09 0 .22 0 .44-.06.66-.09-.09.01-.43.05-.15.03.19-.01.39-.03.58-.04.39-.01.77 0 1.16.04.06 0 .37.04.06 0-.33-.04.05.01.12.03l.57.12c.35.09.71.18 1.05.3.1.03.2.07.3.11.05.02.32.13.07.03s.02.01.07.04c.1.05.19.09.29.14.32.17.64.35.94.56.08.05.2.11.26.19-.08-.09-.21-.17-.05-.03s.32.29.47.44c.63.62 1.77.68 2.4 0 .66-.72.62-1.68 0-2.4ZM47.78 37.4c-1.69-.56-3.39-1.12-5.08-1.68-.82-.27-1.63-.56-2.44-.84-.44-.16-.87-.31-1.31-.47-.54-.2-1.02-.44-1.62-.43-.77.01-1.58.55-1.76 1.34-.19.84.15 1.56.84 2.06.46.33 1.04.39 1.57.54.45.12.89.24 1.34.37.83.23 1.65.46 2.48.7l5.12 1.53c.81.24 1.79-.29 1.98-1.12.2-.89-.27-1.7-1.12-1.98Zm11.14-6.89a58.4 58.4 0 0 1-6.41-8.43c-.46-.74-.9-1.5-1.32-2.26s-.77-1.63-1.23-2.39c-.94-1.51-3.38-1.44-3.89.4-.44 1.59 1.34 3.12 2.82 2.23.69-.41.99-1.22.81-1.99-.1-.43-.43-.84-.81-1.05l.81 1.99c.03-.13-.02-.04-.14.29-.38.29-.76.58-1.14.88l.07-.02-1.49-.2c-.25-.12-.5-.65-.2-.08.07.13.14.27.22.4.16.3.33.6.5.9.34.59.69 1.18 1.06 1.76.75 1.19 1.55 2.35 2.41 3.47 1.74 2.29 3.69 4.32 5.88 6.18 1.43 1.22 3.36-.66 2.08-2.08Zm13.28-5.32c-.81-2.32-1.64-4.63-2.43-6.96-.4-1.16-.78-2.33-1.15-3.51s-.63-2.6-1.27-3.7l-2.09 2.72c.39.06.78.13 1.18.15 1.4.07 2.22-1.87 1.17-2.81-.29-.26-.6-.49-.92-.71-1.11-.8-2.89.26-2.78 1.6s.65 2.55 1.07 3.77.83 2.41 1.27 3.61c.88 2.42 1.81 4.81 2.84 7.17.34.77 1.44 1.01 2.14.7s1.28-1.2.99-2.02Zm26.82-10.65c7.93-2.76 18.24-4.97 24.96 1.67 2.18 2.15 5.03 7.27 1.37 9.41-1.87 1.1-4.19.87-6.25.57-.34-.05-2.23-.55-2.32-.49.02-.01.13.28.07.3-.14.04.13-.09.17-.09.3-.08.66-.46.97-.6 7.14-3.15 17.71-.84 21.91 6.01 1.8 2.94 2.14 7.02-.34 9.71-1.86 2.02-5.74 2.38-7.47-.05-.79-1.11.22.53-.52.34.26.07.98-.14 1.28-.12.98.05 1.98.31 2.88.7 2.11.91 3.87 2.54 5.07 4.48 1.27 2.07 2.01 4.48 2.27 6.89.16 1.46.52 5.15-1.78 5.32-.93.07-1.73.66-1.85 1.63-.1.83.41 1.93 1.35 2.07 3.3.46 5.84-1.83 6.39-5.05.52-3.07-.08-6.54-1.15-9.43-2.1-5.7-7.02-10.57-13.38-10.75-2.8-.08-5.96 1.93-4.63 5.09.97 2.29 3.27 3.92 5.67 4.43 5.56 1.19 10.54-2.64 11.56-8.1 1.11-5.95-2.26-11.33-7.02-14.65-4.91-3.42-11.18-4.52-17.03-3.62-2.69.42-6.12 1.16-7.75 3.57-.82 1.2-.94 2.78-.18 4.05s2.14 1.84 3.5 2.1c3.16.6 6.6.95 9.62-.39 2.78-1.23 4.61-3.84 4.57-6.92-.08-6.46-5.74-11.41-11.43-13.35-7.05-2.4-14.66-.42-21.4 2.04-2.02.74-1.17 3.97.9 3.25Z"/></svg>