<?xml version="1.0" encoding="UTF-8"?><svg xmlns="http://www.w3.org/2000/svg" viewBox="0 0 180 180"><path d="M61.79 147.22c.47-8.37.88-16.71 1.01-25.09s.05-17.45-.16-26.17-.49-16.92-1.01-25.38c-.13-2.03-.3-4.07-.41-6.1-.04-.84-.12-1.77.29-2.53.39-.71 1.1-1.23 1.76-1.68 3.77-2.59 7.63-5.07 11.44-7.6 7.75-5.15 15.5-10.29 23.24-15.44l1.45-.97c.06-.04.52-.28.54-.35.09-.37.44.66-.28-.11.68.72 1.88 1.26 2.7 1.83 1.79 1.24 3.59 2.47 5.38 3.7 3.37 2.31 6.74 4.61 10.12 6.92 3.44 2.35 6.89 4.7 10.32 7.06 1.81 1.24 3.61 2.48 5.42 3.73.59.4 1.59.82 1.97 1.42s.26 1.86.32 2.52c.72 8.12 1.04 16.27 1.27 24.41.48 17.02.89 34.03.51 51.05-.05 2.28-.1 4.56-.2 6.85-.04 1.05.93 1.95 1.95 1.95 1.17 0 1.82-.9 1.95-1.95 2.31-17.78 1.29-35.82.86-53.69-.21-8.57-.49-17.14-1.14-25.69-.16-2.11-.17-4.36-.64-6.42-.55-2.4-2.67-3.58-4.55-4.87-3.63-2.5-7.27-4.99-10.9-7.48-7.25-4.96-14.5-9.92-21.75-14.89-2.14-1.47-4.13-1.72-6.35-.25-2.01 1.33-4.01 2.68-6.01 4.02-4.08 2.72-8.15 5.45-12.22 8.17-4.01 2.68-8.01 5.36-12.02 8.03-1.94 1.3-3.92 2.56-5.82 3.91-1.78 1.26-3.45 2.76-4.08 4.93s-.19 4.36-.02 6.48.32 4.25.46 6.38c.3 4.44.55 8.88.78 13.32.93 17.87.89 35.78.7 53.67-.02 2.11-.06 4.23-.13 6.34s3.12 2.07 3.23 0Z"/><path d="M89.44 57.11c-.28 2.88-.22 5.8-.23 8.69 0 1.39.03 2.79.04 4.18.02 1.59-.29 3.57.87 4.82.64.69 1.93.72 2.56 0 1.14-1.3.8-3.2.79-4.82-.02-1.39-.02-2.79-.06-4.18-.07-2.89-.09-5.81-.43-8.69-.27-2.25-3.32-2.3-3.55 0Z"/><path d="M91.37 67.29c2.39.34 4.89.25 7.3.17 1.16-.04 2.33-.07 3.49-.13l1.74-.09c.72-.04 1.51 0 2.19-.24.88-.32 1.65-1.1 1.6-2.1-.04-.94-.64-1.87-1.6-2.1-1.2-.29-2.57-.04-3.8.03-1.21.07-2.42.17-3.62.27-2.4.18-4.96.31-7.3.92-.72.19-1.25.9-1.25 1.64 0 .68.52 1.54 1.25 1.64Z"/><path d="M104.19 55.83c.37 1.36.33 2.93.4 4.34.07 1.56.02 3.12 0 4.67-.06 3.08-.24 6.16 0 9.24.14 1.72 1.67 2.48 3.19 1.83.62-.26.96-.84 1.15-1.46.22-.7-.03-1.48-.53-1.99l-.07-.08c-.77-.8-1.94-.66-2.73 0l.55-.35c.89.68 1.79 1.36 2.68 2.04-.25-3.19-.11-6.39-.13-9.59-.01-1.56-.14-3.12-.34-4.67-.11-.84-.24-1.69-.48-2.51s-.58-1.51-.81-2.28c-.55-1.82-3.37-1.06-2.86.79ZM10.1 148.75c4.37.3 8.68.72 13.07.76 4.93.05 9.86.07 14.79.1 10.9.08 21.8.1 32.7.14 22.53.09 45.09.2 67.62-.17 5.57-.09 11.13-.21 16.7-.33 4.96-.11 9.96-.04 14.91-.36 2.15-.14 2.15-3.21 0-3.34-4.34-.28-8.72-.23-13.07-.32-4.93-.1-9.86-.23-14.79-.31-10.9-.18-21.8-.17-32.7-.22-22.54-.1-45.08-.04-67.62.1l-16.7.12c-2.59.02-5.17.06-7.76.17-2.38.1-4.77.44-7.15.6-1.96.13-1.96 2.91 0 3.05Z"/><path d="M59.48 87.13c-4.85 1.35-9.61 2.78-14.32 4.55q-3.405 1.275-6.78 2.67c-2.18.91-4.9 1.6-5.71 4.12-.34 1.07-.28 2.22-.27 3.33.01 1.33.03 2.66.04 3.99.03 2.57.05 5.15.08 7.72.05 5.07.13 10.13.2 15.2.08 5.81.16 11.63.25 17.44.05 2.93 4.58 2.94 4.56 0-.06-9.55-.16-19.1-.25-28.65-.04-4.82-.12-9.63-.18-14.45 0-.58-.02-1.16-.02-1.74 0-.33-.13-1.06.02-1.34 0-.02.21-.11.48-.24.52-.24 1.06-.46 1.58-.68 2.09-.88 4.19-1.75 6.29-2.61 4.96-2.03 9.92-4.11 14.9-6.09 1.94-.77 1.23-3.8-.88-3.21Zm81.51 3.21c4.39 1.73 8.72 3.6 13.1 5.36 2.11.85 4.2 1.72 6.3 2.59 1.01.42 2.03.83 3.03 1.27.1.05.82.34.84.36.09.12.03.85.03 1.12-.1 9.55-.23 19.1-.32 28.65-.05 5.48-.1 10.96-.14 16.44-.02 2.94 4.51 2.94 4.56 0 .17-10.21.3-20.43.44-30.64.03-2.57.05-5.15.08-7.72s.18-5.05.06-7.56c-.06-1.2-.32-2.36-1.13-3.28s-1.94-1.36-3.06-1.83c-2.24-.94-4.48-1.87-6.75-2.73-5.31-2.03-10.66-3.71-16.14-5.24-2.11-.59-2.83 2.44-.88 3.21Zm-56.88-7.29c-1.36-.22-2.73-.42-4.09-.58s-2.65-.28-3.82.46c-1.38.87-1.74 2.4-1.88 3.92-.11 1.15-.14 2.33-.02 3.48.15 1.47.63 2.97 1.97 3.78 1.22.74 2.69.62 4.05.61 1.23 0 2.64.15 3.83-.24 1.01-.33 1.88-.95 2.44-1.86.53-.86.77-1.91.69-2.92-.03-.33-.05-.66-.13-.98-.02-.08-.05-.17-.08-.24.03.21.04.23.02.07 0-.05-.01-.11-.02-.16-.06-.53-.15-1.05-.28-1.57-.19-.72-1.03-1.23-1.76-1s-1.19.98-1 1.76c.08.31.14.61.19.92-.05-.33-.02.02 0 .15.04.24.01 0 .03-.08-.02.1-.05.2-.06.3-.05.28-.11.56-.19.84-.04.14-.09.28-.14.42-.17.42.14-.25-.03.07l-.21.36c-.13.22.04-.18.12-.15 0 0-.1.12-.12.13-.04.04-.09.08-.13.12-.22.24.32-.19.12-.1-.05.03-.11.06-.16.1-.26.17.05-.05.15-.05-.12 0-.32.08-.43.12-.24.07.53-.03.14-.02-.08 0-.15.01-.23.01-.5.01-1-.04-1.5-.04-1.05 0-2.09 0-3.14-.02-.3 0 .01.06.08.01-.04.02-.28-.1-.29-.08.01-.06.35.2.08 0 .4.28.2.17.12.07.33.4.14.22.09.11-.03-.05-.18-.42-.07-.1.1.29.01.01 0-.06-.04-.13-.07-.26-.1-.39-.03-.14.04-.3-.02-.06l.02.14-.03-.26c-.02-.21-.03-.43-.04-.65-.02-.51-.02-1.03 0-1.55.02-.47.05-.93.1-1.4.03-.29-.12.5 0 .06.02-.09.04-.18.06-.26.02-.07.08-.18.08-.26q-.165.375-.06.18c.08-.13.03-.08-.13.13.18-.19.02.04-.11.04.06-.04.11-.08.18-.11.13-.07.08-.05-.16.07 0-.04.64-.17.68-.16-.03 0-.48.05-.09.02.17-.01.33-.03.49-.05l.89-.09c1.18-.11 2.35-.17 3.54-.16.72 0 1.32-.55 1.41-1.25.09-.64-.32-1.46-1.03-1.58Zm18.63 0c-1.36-.22-2.73-.42-4.09-.58s-2.65-.28-3.82.46c-1.38.87-1.74 2.4-1.88 3.92-.11 1.15-.14 2.33-.02 3.48.15 1.47.63 2.97 1.97 3.78 1.22.74 2.69.62 4.05.61 1.23 0 2.64.15 3.83-.24 1.01-.33 1.88-.95 2.44-1.86.53-.86.77-1.91.69-2.92-.03-.33-.05-.66-.13-.98-.02-.08-.05-.17-.08-.24.03.21.04.23.02.07 0-.05-.01-.11-.02-.16-.06-.53-.15-1.05-.28-1.57-.19-.72-1.03-1.23-1.76-1s-1.19.98-1 1.76c.08.31.14.61.19.92-.05-.33-.02.02 0 .15.04.24.01 0 .03-.08-.02.1-.05.2-.06.3-.05.28-.11.56-.19.84-.04.14-.09.28-.14.42-.17.42.14-.25-.03.07l-.21.36c-.13.22.04-.18.12-.15 0 0-.1.12-.12.13-.04.04-.09.08-.13.12-.22.24.32-.19.12-.1-.05.03-.11.06-.16.1-.26.17.05-.05.15-.05-.12 0-.32.08-.43.12-.24.07.53-.03.14-.02-.08 0-.15.01-.23.01-.5.01-1-.04-1.5-.04-1.05 0-2.09 0-3.14-.02-.3 0 .01.06.08.01-.04.02-.28-.1-.29-.08.01-.06.35.2.08 0 .4.28.2.17.12.07.33.4.14.22.09.11-.03-.05-.18-.42-.07-.1.1.29.01.01 0-.06-.04-.13-.07-.26-.1-.39-.03-.14.04-.3-.02-.06l.02.14-.03-.26c-.02-.21-.03-.43-.04-.65-.02-.51-.02-1.03 0-1.55.02-.47.05-.93.1-1.4.03-.29-.12.5 0 .06.02-.09.04-.18.06-.26.02-.07.08-.18.08-.26q-.165.375-.06.18c.08-.13.03-.08-.13.13.18-.19.02.04-.11.04.06-.04.11-.08.18-.11.13-.07.08-.05-.16.07 0-.04.64-.17.68-.16-.03 0-.48.05-.09.02.17-.01.33-.03.49-.05l.89-.09c1.18-.11 2.35-.17 3.54-.16.72 0 1.32-.55 1.41-1.25.09-.64-.32-1.46-1.03-1.58Zm18.64 0c-1.36-.22-2.73-.42-4.09-.58s-2.65-.28-3.82.46c-1.38.87-1.74 2.4-1.88 3.92-.11 1.15-.14 2.33-.02 3.48.15 1.47.63 2.97 1.97 3.78 1.22.74 2.69.62 4.05.61 1.23 0 2.64.15 3.83-.24 1.01-.33 1.88-.95 2.44-1.86.53-.86.77-1.91.69-2.92-.03-.33-.05-.66-.13-.98-.02-.08-.05-.17-.08-.24.03.21.04.23.02.07 0-.05-.01-.11-.02-.16-.06-.53-.15-1.05-.28-1.57-.19-.72-1.03-1.23-1.76-1s-1.19.98-1 1.76c.08.31.14.61.19.92-.05-.33-.02.02 0 .15.04.24.01 0 .03-.08-.02.1-.05.2-.06.3-.05.28-.11.56-.19.84-.04.14-.09.28-.14.42-.17.42.14-.25-.03.07l-.21.36c-.13.22.04-.18.12-.15 0 0-.1.12-.12.13-.04.04-.09.08-.13.12-.22.24.32-.19.12-.1-.05.03-.11.06-.16.1-.26.17.05-.05.15-.05-.12 0-.32.08-.43.12-.24.07.53-.03.14-.02-.08 0-.15.01-.23.01-.5.01-1-.04-1.5-.04-1.05 0-2.09 0-3.14-.02-.3 0 .01.06.08.01-.04.02-.28-.1-.29-.08.01-.06.35.2.08 0 .4.28.2.17.12.07.33.4.14.22.09.11-.03-.05-.18-.42-.07-.1.1.29.01.01 0-.06-.04-.13-.07-.26-.1-.39-.03-.14.04-.3-.02-.06l.02.14-.03-.26c-.02-.21-.03-.43-.04-.65-.02-.51-.02-1.03 0-1.55.02-.47.05-.93.1-1.4.03-.29-.12.5 0 .06.02-.09.04-.18.06-.26.02-.07.08-.18.08-.26q-.165.375-.06.18c.08-.13.03-.08-.13.13.18-.19.02.04-.11.04.06-.04.11-.08.18-.11.13-.07.08-.05-.16.07 0-.04.64-.17.68-.16-.03 0-.48.05-.09.02.17-.01.33-.03.49-.05l.89-.09c1.18-.11 2.35-.17 3.54-.16.72 0 1.32-.55 1.41-1.25.09-.64-.32-1.46-1.03-1.58ZM84.11 101c-1.36-.22-2.73-.42-4.09-.58s-2.65-.28-3.82.46c-1.38.87-1.74 2.4-1.88 3.92-.11 1.15-.14 2.33-.02 3.48.15 1.47.63 2.97 1.97 3.78 1.22.74 2.69.62 4.05.61 1.23 0 2.64.15 3.83-.24 1.01-.33 1.88-.95 2.44-1.86.53-.86.77-1.91.69-2.92-.03-.33-.05-.66-.13-.98-.02-.08-.05-.17-.08-.24.03.21.04.23.02.07 0-.05-.01-.11-.02-.16-.06-.53-.15-1.05-.28-1.57-.19-.72-1.03-1.23-1.76-1s-1.19.98-1 1.76c.08.31.14.61.19.92-.05-.33-.02.02 0 .15.04.24.01 0 .03-.08-.02.1-.05.2-.06.3-.05.28-.11.56-.19.84-.04.14-.09.28-.14.42-.17.42.14-.25-.03.07l-.21.36c-.13.22.04-.18.12-.15 0 0-.1.12-.12.13-.04.04-.09.08-.13.12-.22.24.32-.19.12-.1-.05.03-.11.06-.16.1-.26.17.05-.05.15-.05-.12 0-.32.08-.43.12-.24.07.53-.03.14-.02-.08 0-.15.01-.23.01-.5.01-1-.04-1.5-.04-1.05 0-2.09 0-3.14-.02-.3 0 .01.06.08.01-.04.02-.28-.1-.29-.08.01-.06.35.2.08 0 .4.28.2.17.12.07.33.4.14.22.09.11-.03-.05-.18-.42-.07-.1.1.29.01.01 0-.06-.04-.13-.07-.26-.1-.39-.03-.14.04-.3-.02-.06l.02.14-.03-.26c-.02-.21-.03-.43-.04-.65-.02-.51-.02-1.03 0-1.55.02-.47.05-.93.1-1.4.03-.29-.12.5 0 .06.02-.09.04-.18.06-.26.02-.07.08-.18.08-.26q-.165.375-.06.18c.08-.13.03-.08-.13.13.18-.19.02.04-.11.04.06-.04.11-.08.18-.11.13-.07.08-.05-.16.07 0-.04.64-.17.68-.16-.03 0-.48.05-.09.02.17-.01.33-.03.49-.05l.89-.09c1.18-.11 2.35-.17 3.54-.16.72 0 1.32-.55 1.41-1.25.09-.64-.32-1.46-1.03-1.58Zm18.63 0c-1.36-.22-2.73-.42-4.09-.58s-2.65-.28-3.82.46c-1.38.87-1.74 2.4-1.88 3.92-.11 1.15-.14 2.33-.02 3.48.15 1.47.63 2.97 1.97 3.78 1.22.74 2.69.62 4.05.61 1.23 0 2.64.15 3.83-.24 1.01-.33 1.88-.95 2.44-1.86.53-.86.77-1.91.69-2.92-.03-.33-.05-.66-.13-.98-.02-.08-.05-.17-.08-.24.03.21.04.23.02.07 0-.05-.01-.11-.02-.16-.06-.53-.15-1.05-.28-1.57-.19-.72-1.03-1.23-1.76-1s-1.19.98-1 1.76c.08.31.14.61.19.92-.05-.33-.02.02 0 .15.04.24.01 0 .03-.08-.02.1-.05.2-.06.3-.05.28-.11.56-.19.84-.04.14-.09.28-.14.42-.17.42.14-.25-.03.07l-.21.36c-.13.22.04-.18.12-.15 0 0-.1.12-.12.13-.04.04-.09.08-.13.12-.22.24.32-.19.12-.1-.05.03-.11.06-.16.1-.26.17.05-.05.15-.05-.12 0-.32.08-.43.12-.24.07.53-.03.14-.02-.08 0-.15.01-.23.01-.5.01-1-.04-1.5-.04-1.05 0-2.09 0-3.14-.02-.3 0 .01.06.08.01-.04.02-.28-.1-.29-.08.01-.06.35.2.08 0 .4.28.2.17.12.07.33.4.14.22.09.11-.03-.05-.18-.42-.07-.1.1.29.01.01 0-.06-.04-.13-.07-.26-.1-.39-.03-.14.04-.3-.02-.06l.02.14-.03-.26c-.02-.21-.03-.43-.04-.65-.02-.51-.02-1.03 0-1.55.02-.47.05-.93.1-1.4.03-.29-.12.5 0 .06.02-.09.04-.18.06-.26.02-.07.08-.18.08-.26q-.165.375-.06.18c.08-.13.03-.08-.13.13.18-.19.02.04-.11.04.06-.04.11-.08.18-.11.13-.07.08-.05-.16.07 0-.04.64-.17.68-.16-.03 0-.48.05-.09.02.17-.01.33-.03.49-.05l.89-.09c1.18-.11 2.35-.17 3.54-.16.72 0 1.32-.55 1.41-1.25.09-.64-.32-1.46-1.03-1.58Zm18.64 0c-1.36-.22-2.73-.42-4.09-.58s-2.65-.28-3.82.46c-1.38.87-1.74 2.4-1.88 3.92-.11 1.15-.14 2.33-.02 3.48.15 1.47.63 2.97 1.97 3.78 1.22.74 2.69.62 4.05.61 1.23 0 2.64.15 3.83-.24 1.01-.33 1.88-.95 2.44-1.86.53-.86.77-1.91.69-2.92-.03-.33-.05-.66-.13-.98-.02-.08-.05-.17-.08-.24.03.21.04.23.02.07 0-.05-.01-.11-.02-.16-.06-.53-.15-1.05-.28-1.57-.19-.72-1.03-1.23-1.76-1s-1.19.98-1 1.76c.08.31.14.61.19.92-.05-.33-.02.02 0 .15.04.24.01 0 .03-.08-.02.1-.05.2-.06.3-.05.28-.11.56-.19.84-.04.14-.09.28-.14.42-.17.42.14-.25-.03.07l-.21.36c-.13.22.04-.18.12-.15 0 0-.1.12-.12.13-.04.04-.09.08-.13.12-.22.24.32-.19.12-.1-.05.03-.11.06-.16.1-.26.17.05-.05.15-.05-.12 0-.32.08-.43.12-.24.07.53-.03.14-.02-.08 0-.15.01-.23.01-.5.01-1-.04-1.5-.04-1.05 0-2.09 0-3.14-.02-.3 0 .01.06.08.01-.04.02-.28-.1-.29-.08.01-.06.35.2.08 0 .4.28.2.17.12.07.33.4.14.22.09.11-.03-.05-.18-.42-.07-.1.1.29.01.01 0-.06-.04-.13-.07-.26-.1-.39-.03-.14.04-.3-.02-.06l.02.14-.03-.26c-.02-.21-.03-.43-.04-.65-.02-.51-.02-1.03 0-1.55.02-.47.05-.93.1-1.4.03-.29-.12.5 0 .06.02-.09.04-.18.06-.26.02-.07.08-.18.08-.26q-.165.375-.06.18c.08-.13.03-.08-.13.13.18-.19.02.04-.11.04.06-.04.11-.08.18-.11.13-.07.08-.05-.16.07 0-.04.64-.17.68-.16-.03 0-.48.05-.09.02.17-.01.33-.03.49-.05l.89-.09c1.18-.11 2.35-.17 3.54-.16.72 0 1.32-.55 1.41-1.25.09-.64-.32-1.46-1.03-1.58Zm-33.16 46.22c.34-3.95.25-7.91.15-11.87-.05-1.91-.12-3.82-.17-5.73-.02-.95-.04-1.89-.04-2.84 0-.83-.19-1.98.13-2.76l-.52.89c.87-1.08 3.15-1.26 4.44-1.37 1.91-.16 3.85-.14 5.77-.18 2.06-.04 4.12-.09 6.18-.13 1.05-.02 2.09-.07 3.14-.07.57 0 1.4-.08 1.91.22.41.24.41.22.46.8.08 1.02.03 2.07.03 3.09.01 2.14.02 4.28.01 6.43 0 4.37-.02 8.73.03 13.1.03 2.7 4.23 2.71 4.2 0-.06-5.68 0-11.37-.01-17.05 0-1.4 0-2.8-.02-4.2-.01-1.31.04-2.68-.57-3.87-1.03-2-3.28-2.65-5.38-2.74-2.52-.12-5.09.12-7.62.2-2.64.09-5.3.09-7.93.32-2.33.21-5.24.59-7.09 2.19-1.84 1.59-1.22 4.84-1.17 7.02.14 6.19.71 12.37 1.06 18.55.11 1.94 2.84 1.91 3 0Z"/><path d="M97.69 121.63c-.48 1.95-.37 4.03-.42 6.02s-.08 4.09-.08 6.14c0 4.06-.28 8.24.19 12.28.24 2.07 2.98 2.07 3.22 0 .47-4.04.19-8.22.19-12.28 0-2.05-.03-4.09-.08-6.14s.06-4.08-.42-6.02c-.32-1.29-2.29-1.29-2.61 0Zm-4.41 14.03.12.02c.19 0 .37-.03.54-.12.17-.06.33-.15.45-.29.14-.13.23-.28.29-.45q.135-.255.12-.54l-.05-.37c-.07-.24-.19-.45-.36-.62l-.28-.22c-.22-.13-.46-.19-.71-.19l-.12.02c-.19 0-.37.03-.54.12-.17.06-.32.15-.45.29-.14.13-.23.28-.29.45-.09.17-.13.34-.12.54l.05.37c.07.24.19.44.36.61l.28.22c.22.13.45.19.7.19Zm10.97 0 .12.02c.19 0 .37-.03.54-.12.17-.06.33-.15.45-.29.14-.13.23-.28.29-.45q.135-.255.12-.54l-.05-.37c-.07-.24-.19-.45-.36-.62l-.28-.22c-.22-.13-.46-.19-.71-.19l-.12.02c-.19 0-.37.03-.54.12-.17.06-.32.15-.45.29-.14.13-.23.28-.29.45-.09.17-.13.34-.12.54l.05.37c.07.24.19.44.36.61l.28.22c.22.13.45.19.7.19ZM99.38 32.72c-9.33.47-20.5.35-29.83.82-1.41.07-2.85.15-4.13.72-1.16.52-2.12 1.41-3.05 2.28-6.78 6.35-16.11 13.67-22.9 20.02-.67.63-1.36 1.28-1.76 2.11-.45.92-.51 1.97-.56 2.99-.46 9.07 1.62 17.17 1.16 26.24 6.96-.1 13.92-.4 20.86-.9l-.99-25.24c-.03-.79-.06-1.61.2-2.36.34-.96 1.11-1.69 1.86-2.38 9.46-8.61 24.87-16.91 36.33-22.59"/><path d="M99.38 31.1c-6.77.06-13.55-.14-20.32-.06-3.31.04-6.62.08-9.93.26-1.68.09-3.32.28-4.86.99s-2.83 2-4.08 3.16c-4.82 4.46-9.9 8.62-14.88 12.89-2.32 1.99-4.63 3.99-6.87 6.07-1.12 1.04-2.23 2.08-2.86 3.5-.77 1.75-.74 3.78-.76 5.67-.12 8.13 1.61 16.17 1.24 24.31-.06 1.21 1.08 2.29 2.27 2.27 6.96-.11 13.92-.4 20.86-.91 1.18-.09 2.31-.96 2.26-2.26-.22-5.36-.45-10.72-.66-16.08-.11-2.72-.21-5.44-.32-8.16-.03-.9-.28-2.09.19-2.91s1.34-1.39 2-1.98c6.64-5.82 14.35-10.43 22.04-14.7 4.28-2.38 8.68-4.54 12.99-6.86 1.03-.55 1.36-1.99.78-2.97-.64-1.1-1.9-1.27-2.97-.78-8.4 3.84-16.61 8.47-24.35 13.51-3.85 2.5-7.6 5.18-11.09 8.17-1.81 1.55-3.69 3.14-4.03 5.64s.07 5.45.18 8.07c.25 6.35.48 12.7.72 19.05l2.26-2.26c-6.95.48-13.9.79-20.86.89l2.27 2.27c.32-6.88-.84-13.67-1.15-20.52-.07-1.58-.09-3.17-.04-4.75s.05-2.84 1.27-4.04c2.1-2.05 4.34-3.97 6.56-5.88 4.75-4.1 9.59-8.07 14.26-12.26 2.05-1.84 3.9-4.26 6.8-4.56 3.12-.32 6.31-.32 9.44-.42 7.24-.24 14.45-.48 21.66-1.12 2.04-.18 2.12-3.25 0-3.23Z"/><path d="M12.47 146.78c.28-6.74.03-13.5.08-20.24.11-15.87-2.44-27.1 2.6-29.91 2.96-1.65 7.02-3.43 10.09-4.55 5.1-1.86 10.21-3.67 15.33-5.46 1.73-.61.72-1.89 2.55-2.1 2.62-.31-.14 2.35 2.45 2.84 3.42.66 6.84 1.31 10.25 1.97-6.57 2.38-13.15 4.77-19.72 7.15-.68.25-1.37.5-1.91.99-.85.77-1.12 1.98-1.33 3.1-2.7 14.66-.88 29.71.12 44.58.03.46.05.95-.2 1.34-.36.54-1.11.63-1.77.66-6.18.29-12.38.17-18.55-.36"/><path d="M14.04 146.78c.5-8.03.47-16.14.36-24.19-.08-6.07-.69-12.19-.37-18.25.05-.9.11-1.69.27-2.49.08-.43.18-.86.31-1.27.18-.58.18-.63.38-.97.09-.16.18-.31.28-.47.3-.47-.26.25.11-.15.12-.13.23-.25.36-.36.39-.37-.32.19.13-.1 1.35-.86 2.87-1.53 4.32-2.2 3.18-1.46 6.47-2.64 9.76-3.82 1.86-.67 3.71-1.33 5.57-1.99 2.01-.71 4.12-1.29 6.06-2.17.68-.31 1.25-.74 1.67-1.37.09-.14.28-.38.3-.55.04-.4-.25.11-.12.07-.58.17-.89-1.96-1.08-1.14-.05.21-.03.5-.02.72.03.79.25 1.52.78 2.12 1.24 1.41 3.63 1.42 5.35 1.75 2.28.44 4.56.87 6.84 1.31v-3.89c-6.04 2.14-12.07 4.31-18.1 6.49-2.73.99-5.1 1.8-6.04 4.83-.87 2.79-1.07 5.94-1.35 8.83-1.19 12.39.25 24.77 1.05 37.13 0 .1 0 .8.05.83.61-.45.78-.61.5-.49-.12.05-.25.07-.38.04-.73-.18-1.93.07-2.68.09-1.71.04-3.42.06-5.13.04-3.58-.04-7.16-.23-10.73-.51-2.73-.22-2.7 4.01 0 4.25 6.2.54 12.67.88 18.88.31 1.27-.12 2.55-.53 3.25-1.68.78-1.29.46-2.92.36-4.34-.22-3.08-.46-6.16-.69-9.24-.46-6.31-.82-12.63-.69-18.96.07-3.06.25-6.13.6-9.17.16-1.42.37-2.83.62-4.24.19-1.08.25-2.41 1.35-2.92 1.51-.7 3.17-1.16 4.73-1.73 1.72-.63 3.44-1.25 5.16-1.88 3.44-1.25 6.88-2.53 10.31-3.81 1.68-.63 2.13-3.48 0-3.89-2.12-.41-4.23-.81-6.35-1.22-.98-.19-1.95-.38-2.93-.56-.3-.06-.69-.19-.98-.19-.32 0-.22-.2-.17 0l.4.49c.14.07-.08.29.03 0 .39-1.05-.4-2.55-1.29-3.05-1.31-.74-3.34-.41-4.38.64-.38.38-.48.88-.8 1.28.21-.26-.11 0-.32.06-.62.21-1.24.44-1.86.65-2.02.71-4.03 1.42-6.04 2.14-3.67 1.31-7.37 2.57-10.96 4.1-1.69.72-3.37 1.49-5 2.34-1.05.54-2.14 1.07-2.97 1.93-1.35 1.38-2.01 3.29-2.32 5.16-.94 5.75-.13 11.73.11 17.51.19 4.52.15 9.04.21 13.56.06 4.86.25 9.71.18 14.57-.03 2.04 3.02 2 3.14 0Z"/></svg>