<?xml version="1.0" encoding="UTF-8"?><svg xmlns="http://www.w3.org/2000/svg" viewBox="0 0 180 180"><path d="M79.19 9.37c-8.25 1.16-16.57 3.27-24.15 6.77-7.47 3.45-14.37 8.2-20.34 13.86-11.63 11.02-19.58 25.73-23.74 41.12-4.05 14.96-4.6 31.05-.79 46.12 3.82 15.11 12.31 28.88 24.64 38.52 12 9.38 26.63 14.47 41.76 15.52 15.21 1.05 30.57-1.97 44.52-8 14.29-6.17 27.08-15.79 36.46-28.24 6.06-8.04 10.66-17.44 12.98-27.26 2.17-9.2 2.35-18.81.94-28.14-2.49-16.47-10.38-32.03-21.54-44.31-12.01-13.22-28.22-22.62-45.97-25.31-5.24-.79-10.35-.73-15.63-.6-2.55.07-2.56 4.03 0 3.97 5.06-.13 10.31.46 15.3 1.28 4.96.82 9.83 2.16 14.51 3.98 7.33 2.85 14.21 7.03 20.24 12.07 12.14 10.15 21.38 23.83 25.99 38.99 5.18 17.01 4.15 35.39-3.87 51.37-7.15 14.25-18.86 25.63-32.66 33.44-12.47 7.05-26.62 11.28-40.94 12-14.04.71-28.31-1.98-40.64-8.89-12.72-7.13-22.8-18.45-28.29-31.98-5.5-13.56-6.79-28.67-4.55-43.08 2.29-14.69 8.01-28.78 16.95-40.68 9.52-12.67 23.05-21.82 38.1-26.65 3.78-1.21 7.67-2.08 11.59-2.73.88-.15 1.35-1.22 1.14-2.01-.25-.94-1.14-1.26-2.01-1.14Z"/><path d="M88.81 122.41c7.18.21 14.44-1.38 20.43-5.48 5.91-4.06 10.25-9.82 12.67-16.56 2.3-6.41 2.68-13.67.73-20.22-1.94-6.51-6.16-11.98-11.62-15.94-10.32-7.49-24.98-8.94-36.28-2.81-10.42 5.66-17.44 16.92-18.8 28.58-.68 5.78.24 11.71 2.82 16.94 3.43 6.93 9.78 10.81 16.77 13.53 1.94.76 3.91 1.36 5.91 1.93 2.24.64 2.99-2.58.94-3.41-6.4-2.59-13.98-4.75-18.13-10.72-2.93-4.21-4.31-9.29-4.28-14.39.07-10.07 5.34-20.22 13.38-26.25 8.96-6.71 21.23-7.21 31.11-2.17 5.09 2.6 9.46 6.56 12.15 11.64 2.76 5.24 3.44 11.5 2.32 17.28s-4.06 11.56-8.43 15.89-10.63 7.7-16.84 8.83c-1.6.29-3.21.41-4.84.39-1.89-.02-1.89 2.88 0 2.94Z"/><path d="M21.55 53.71c11.2 10.7 24.62 19.06 39.16 24.41 1.01-5.02 5.27-8.66 9.42-11.65.46-.34.95-.7 1.18-1.22.29-.68.07-1.45-.16-2.15-4.67-14.33-13.53-27.27-25.21-36.8A75.55 75.55 0 0 0 22.9 54.71"/><path d="M20.49 54.78c5.4 5.72 11.79 10.6 18.42 14.81 3.3 2.09 6.71 4.01 10.22 5.73 3.57 1.75 7.27 3.49 11.06 4.71.95.31 2.26-.36 2.44-1.38.69-3.95 4.08-6.99 7.11-9.33 1.71-1.32 3.84-2.44 3.78-4.92-.05-2.19-1.3-4.63-2.1-6.64a82.6 82.6 0 0 0-13.46-22.47c-3.19-3.8-6.73-7.29-10.57-10.43-.63-.52-1.71-.89-2.46-.32-10.12 7.66-18.86 17.87-23.74 29.68-.77 1.88 2.33 3.15 3.27 1.38 2.81-5.31 5.82-10.45 9.64-15.1 3.79-4.63 8.09-8.85 12.87-12.45-.82-.11-1.64-.21-2.46-.32 6.38 5.24 11.93 11.43 16.37 18.4 2.26 3.55 4.25 7.28 5.91 11.14.79 1.83 1.49 3.7 2.13 5.59.14.42.4.92.43 1.37s.23-.13 0 .24c-.08.14-.29.24-.41.33-.81.62-1.64 1.21-2.43 1.84-3.67 2.92-6.5 6.36-7.7 10.95l2.44-1.38c-3.52-1.47-7.06-2.83-10.49-4.51-3.38-1.66-6.69-3.47-9.9-5.44-6.5-3.99-12.45-8.66-18.23-13.61-1.46-1.25-3.48.7-2.13 2.13Zm86.95 7.57c3.16-13.24 10.59-25.43 20.93-34.3.84-.72 1.83-1.46 2.93-1.35.84.08 1.55.65 2.2 1.2 8.73 7.32 17.62 14.82 23.56 24.55a153.2 153.2 0 0 1-36.99 22.61l-11.58-11.49"/><path d="M108.9 62.75c2.44-9.5 6.99-18.49 13.35-25.97 1.57-1.85 3.24-3.61 5-5.28.87-.83 1.76-1.72 2.72-2.44 1.19-.88 1.71-.32 2.73.53 3.99 3.36 7.98 6.73 11.72 10.37 4.17 4.06 7.99 8.45 11.04 13.41l.29-2.24c-11.08 9.11-23.47 16.62-36.65 22.27l2.31.3c-3.85-3.84-7.7-7.68-11.56-11.5-1.77-1.75-4.49.97-2.73 2.73 3.86 3.83 7.72 7.66 11.6 11.47.66.65 1.52.64 2.31.3a157 157 0 0 0 37.33-22.95c.61-.5.69-1.59.29-2.24-6.04-9.78-14.8-17.34-23.54-24.63-1-.84-2-1.7-3.33-1.94-1.52-.27-2.87.38-4.04 1.29-2.13 1.65-4.07 3.6-5.89 5.58a67.6 67.6 0 0 0-9.44 13.15 65.4 65.4 0 0 0-6.44 16.98c-.43 1.9 2.44 2.7 2.92.81Zm-47.16 47.62C46.96 116.48 33.81 126.5 24 139.14c5.36 8.81 13.49 15.9 22.94 20.01 1.12.49 2.35.94 3.52.62.72-.19 1.33-.65 1.92-1.11 11.63-9.18 19.58-22.9 21.75-37.55.05-.37.1-.75-.01-1.11-.16-.48-.59-.8-1-1.09l-10.38-7.47"/><path d="M61.31 108.82c-15.24 5.77-28.76 16.05-38.76 28.87-.56.72-.84 1.64-.32 2.48 3.48 5.67 7.99 10.6 13.28 14.63 2.58 1.96 5.33 3.68 8.24 5.12 1.52.75 3.15 1.62 4.83 1.9 2.08.34 3.65-.47 5.23-1.72 10.06-8.01 17.46-19.54 20.77-31.95.44-1.65.79-3.32 1.08-5 .34-1.99.76-3.83-.91-5.34-1.65-1.49-3.65-2.7-5.46-3.99s-3.73-2.68-5.59-4.02c-.84-.6-2.1-.14-2.59.68-.57.95-.15 1.99.68 2.59 2.93 2.11 5.84 4.24 8.78 6.32.4.28 1.66.85 1.83 1.31.11.29-.3 1.48-.37 1.85-.27 1.42-.6 2.82-.98 4.21a58.3 58.3 0 0 1-6.71 15.55c-2.98 4.82-6.7 9.17-10.97 12.9-.9.79-2.1 2.13-3.25 2.52s-2.89-.68-3.94-1.19a50.4 50.4 0 0 1-7.48-4.46c-5.19-3.73-9.59-8.54-12.93-13.98-.11.83-.21 1.66-.32 2.48 9.83-12.6 22.6-22.23 37.11-28.82 1.64-.75.47-3.59-1.24-2.94Zm43.41 9.09c6.85 13.59 16.5 25.76 28.17 35.52a87.1 87.1 0 0 0 25.63-27.92c-10.41-10.83-21.94-21.83-36.59-25.19-.71 8.65-7.26 16.51-15.63 18.77"/><path d="M103.43 118.27c5.84 14.29 16.26 26.74 28.01 36.61.66.55 1.71.87 2.49.32 10.75-7.51 19.78-17.31 26.34-28.67.46-.79.31-1.81-.32-2.46-10.53-10.92-22.26-22.1-37.49-25.68-1.35-.32-2.4.61-2.52 1.92-.73 7.97-6.68 14.51-14.15 16.9-2.38.76-1.41 4.35 1.03 3.75 9.38-2.28 16.24-11.24 17.1-20.65l-2.52 1.92c14.56 3.41 25.66 14.26 35.68 24.7l-.32-2.46a85.7 85.7 0 0 1-24.92 27.17c.83.11 1.66.21 2.49.32-5.79-4.85-11.02-10.28-15.79-16.13-4.74-5.82-8.77-12.22-12.68-18.61-.75-1.23-3.04-.42-2.44 1.03ZM23.07 41.72c-1.08-1.26-2.51-2.89-1.95-4.68.6-1.9 1.73-3.46 3.01-4.96 1.32-1.55 2.75-3.08 4.51-4.13.8-.48 1.61-.92 2.5-1.18 1.03-.31 2.14-.21 3.15-.53 1.33-.42 1.57-2.2.38-2.94-1.25-.78-2.9-.62-4.29-.38-1.3.22-2.61.66-3.75 1.31-2.37 1.35-4.3 3.37-5.98 5.48-1.71 2.15-3.43 4.52-3.42 7.38 0 2.9 1.72 4.87 3.86 6.6 1.39 1.11 3.15-.59 1.97-1.97ZM143.9 31.34c1.14-1.28 2.59-2.31 4.28-2.7s3.05.73 4.17 1.9c1.39 1.46 2.77 2.94 4.02 4.53.63.81 1.22 1.65 1.8 2.5.51.74 1.2 1.5 1.21 2.43.02 1.59 2.03 2.01 2.87.78.88-1.3.26-2.77-.5-3.97-.71-1.11-1.46-2.2-2.23-3.27-1.55-2.13-3.04-4.44-4.98-6.24s-4.36-2.99-7.05-2.31c-2.51.64-4.61 2.35-6.15 4.37-1.12 1.46 1.33 3.34 2.55 1.97ZM28.61 145.67c-2.8 1.36-5.48 2.97-6.64 6.03-1.13 2.98.41 5.87 2.46 7.99 1.06 1.1 2.23 2.09 3.36 3.11 1.2 1.09 2.38 2.21 3.7 3.15 2.45 1.76 5.65 2.89 8.67 2.37 1.4-.24 1.27-2.38 0-2.71-2.29-.59-4.45-1.07-6.38-2.52-2.06-1.55-3.9-3.47-5.8-5.21-1.32-1.21-3.04-2.76-2.62-4.75.49-2.32 2.92-3.7 4.78-4.85 1.67-1.04.21-3.46-1.53-2.62Z"/><path d="M137.63 154.54c1.96 1.95 4.26 3.93 6.96 4.72 2.76.8 5.7.4 7.94-1.45 1.99-1.65 3.68-4.01 5.16-6.12 1.61-2.28 2.78-4.73 3.07-7.53.21-1.93-2.75-2.18-3.28-.44-1.25 4.09-4.04 7.63-6.99 10.65-3.37 3.46-7.94-.26-10.9-2.37-1.52-1.08-3.24 1.27-1.96 2.54"/></svg>