<?xml version="1.0" encoding="UTF-8"?><svg xmlns="http://www.w3.org/2000/svg" viewBox="0 0 180 180"><path d="M115.61 62.36c-8.16.11-16.32-.12-24.48-.04s-16.32.16-24.48.27l-23.98.33c-3.65.05-7.67-.33-11.24.62s-5.82 3.64-7.66 6.62c-6.89 11.17-10.65 24.25-11.43 37.32-.78 13.05 1.38 26.5 7.24 38.25.66 1.32 1.41 2.58 2.1 3.88.79 1.51 1.56 3 2.67 4.31 2.23 2.64 5.54 3.55 8.86 3.81 8 .64 16.03.51 24.05.44 16.04-.15 32.08-.43 48.11-.65l23.82-.33c3.84-.05 8.03.22 11.72-1.05 3.11-1.07 5.8-3.03 8.04-5.41 4.52-4.8 7.81-10.85 10.27-16.91 2.43-5.99 3.87-12.34 4.5-18.77 1.27-12.95-1.16-26.78-7.31-38.29-2.74-5.13-6.53-9.58-11.27-12.95-2.88-2.04-6.2-2.62-9.66-2.86-2.91-.2-5.82-.13-8.73-.03-2.67.09-2.61 3.9 0 4.11 2.86.23 5.73.38 8.6.59.48.03.95.07 1.43.12.24.02.47.05.71.08-.5-.06.2.03.25.04.76.13 1.5.28 2.23.51.27.09.54.19.81.29-.61-.24.35.18.51.27.63.34 1.22.74 1.8 1.16 0 0 .5.38.23.17s.26.21.25.2c.35.28.7.57 1.04.86 1.17.99 2.27 2.04 3.29 3.18 4.1 4.62 6.65 10.44 8.41 16.3a66.5 66.5 0 0 1 2.81 17.88c.23 12.18-2.77 24.43-9.37 34.74-2.99 4.68-7.01 9.72-12.93 10.3-3.66.36-7.41.17-11.08.22-3.8.05-7.61.11-11.41.16l-45.64.63c-7.73.11-15.46.3-23.19.35-3.76.02-7.52.09-11.28.07-1.47 0-3.04.12-4.49-.19s-2.46-1.35-3.27-2.54c-1.69-2.49-2.77-5.32-3.81-8.12s-1.97-5.82-2.75-8.79c-1.55-5.9-2.56-11.87-2.79-17.98-.46-12.27 1.85-24.72 7.07-35.86 1.29-2.75 2.72-5.5 4.4-8.04.68-1.03 1.47-2.05 2.5-2.73 1.29-.85 2.84-1.01 4.35-1.07 7.57-.32 15.17-.32 22.75-.48s15.32-.32 22.98-.51c7.65-.19 15.34-.21 22.98-.68 3.83-.24 7.66-.38 11.49-.46 2.13-.05 2.14-3.34 0-3.31Z"/><path d="M78.71 64.26c-2.6 1.5-4.31 4.42-5.62 7.04-1.47 2.94-2.61 6.06-3.71 9.15-2.26 6.35-3.95 12.89-4.97 19.56-1.92 12.58-1.42 25.67 3.05 37.69 1.17 3.14 2.56 6.21 4.23 9.11s3.76 5.96 6.25 8.28c1.53 1.43 4.27-.44 3.02-2.33-1.59-2.39-3.33-4.66-4.74-7.18s-2.61-4.83-3.62-7.39c-2.07-5.23-3.48-10.79-4.11-16.38-1.41-12.57.73-24.97 4.25-37.02.98-3.37 2.09-6.7 3.33-9.98.57-1.52 1.2-3.01 2-4.42.81-1.42 1.84-2.66 2.75-4.01.89-1.32-.84-2.86-2.12-2.12Z"/><path d="M20.3 82.24c4.39.33 8.81.25 13.21.3s8.64.08 12.96.08c8.8 0 17.61.02 26.41.03 17.44 0 34.88.09 52.32.11 9.86.01 19.8.38 29.65-.14 2.43-.13 2.44-3.65 0-3.78-8.69-.45-17.46-.15-26.16-.14-8.8.01-17.61.11-26.41.11-17.44 0-34.88 0-52.32.03-4.9 0-9.8.01-14.7.07-4.97.05-9.99-.05-14.95.32-1.94.15-1.94 2.87 0 3.02Zm-3.43 34.28c4.7.53 9.48.48 14.2.55 4.65.06 9.3.07 13.95.08 9.39.02 18.77.03 28.16.03 18.77 0 37.54.13 56.31.15 10.62.01 21.28.3 31.89-.16 2.79-.12 2.8-4.22 0-4.34-9.37-.41-18.78-.17-28.16-.16l-28.16.03c-18.77.02-37.54.11-56.31.15-5.32 0-10.63-.01-15.95.06-5.3.07-10.67-.03-15.95.57-1.96.22-1.96 2.82 0 3.05Z"/><path d="M113.91 80.98c-.92 5.42-.61 11.09-.65 16.58-.02 2.74-.03 5.48-.05 8.22-.02 2.81-.14 5.68.31 8.46.28 1.75 3.24 1.75 3.53 0 .44-2.7.33-5.48.31-8.21-.01-2.82-.03-5.65-.05-8.47-.03-5.48.28-11.16-.65-16.58-.23-1.36-2.52-1.37-2.76 0Zm-62.48 48.78c-4.03.59-5.96 5.51-4.09 8.94 1.17 2.16 3.76 3 6.08 2.91 4.24-.17 10.39-3.3 9.06-8.45-.51-1.95-1.99-3.52-3.91-4.1-1.24-.37-2.66-.49-3.95-.46-1.56.04-2.94.41-4.11 1.49-1.27 1.18.38 3.36 1.87 2.42.41-.26.52-.29 1.03-.44.22-.06.45-.12.68-.15-.09.01-.24.01.09 0 .15 0 .3-.02.45-.02a17 17 0 0 1 2.02.12c-.27-.03.02 0 .06.01l.5.09c.22.05.43.11.64.18.04.01.29.12.06.01.1.04.19.09.29.15s.19.11.27.17c-.08-.06-.15-.16.03.05.05.06.11.13.17.18.21.2-.19-.29-.03-.05.13.2.27.39.39.6l.15.3c.12.22-.07-.16-.07-.18 0 .04.05.13.07.18.06.19.1.38.15.57.08.33-.01-.43-.01-.09 0 .1.01.21 0 .31 0 .04-.04.24-.02.27-.01-.02.1-.46.03-.25l-.03.13c-.02.09-.04.17-.07.26s-.17.43-.03.11-.1.18-.16.28c-.05.08-.1.15-.15.23-.02.04-.06.07-.08.11-.14.24.29-.32.1-.13-.28.28-.54.56-.83.82-.16.14.38-.27.05-.04-.08.06-.17.12-.25.18-.19.12-.38.24-.57.35s-.38.2-.57.29c-.29.14-.1.01.09-.04-.13.03-.26.1-.38.15-.41.15-.84.28-1.27.37-.22.05-.43.09-.65.13-.44.08.39-.04.09 0-.12.01-.24.03-.36.04-.44.04-.88.04-1.31.01-.1 0-.21-.02-.31-.03-.3-.02.57.1.14.02-.21-.04-.41-.08-.61-.13-.17-.05-.34-.11-.51-.17-.4-.13.4.2.15.07-.1-.05-.21-.1-.31-.15-.15-.08-.28-.19-.43-.27.53.31.14.12-.08-.11-.18-.19-.2-.42.05.1-.04-.08-.11-.15-.15-.22-.06-.1-.11-.2-.17-.3-.02-.04-.04-.09-.06-.13-.14-.25.15.46.1.24s-.13-.43-.18-.65c-.09-.35.04.55 0 .08 0-.14-.02-.29-.02-.43 0-.28.05-.56.05-.84 0 .07-.12.56-.01.16.03-.13.06-.26.1-.38l.09-.3c.06-.19.14-.27.01-.05.13-.23.25-.46.41-.67-.22.3.22-.2.29-.27.17-.16.35-.31.53-.45-.3.23.52-.22.23-.1.79-.3 1.33-1.05 1.09-1.92s-1.08-1.21-1.92-1.09Zm-23.79 0c-4.03.59-5.96 5.51-4.09 8.94 1.17 2.16 3.76 3 6.08 2.91 4.24-.17 10.39-3.3 9.06-8.45-.51-1.95-1.99-3.52-3.91-4.1-1.24-.37-2.66-.49-3.95-.46-1.56.04-2.94.41-4.11 1.49-1.27 1.18.38 3.36 1.87 2.42.41-.26.52-.29 1.03-.44.22-.06.45-.12.68-.15-.09.01-.24.01.09 0 .15 0 .3-.02.45-.02a17 17 0 0 1 2.02.12c-.27-.03.02 0 .06.01l.5.09c.22.05.43.11.64.18.04.01.29.12.06.01.1.04.19.09.29.15s.19.11.27.17c-.08-.06-.15-.16.03.05.05.06.11.13.17.18.21.2-.19-.29-.03-.05.13.2.27.39.39.6l.15.3c.12.22-.07-.16-.07-.18 0 .04.05.13.07.18.06.19.1.38.15.57.08.33-.01-.43-.01-.09 0 .1.01.21 0 .31 0 .04-.04.24-.02.27-.01-.02.1-.46.03-.25l-.03.13c-.02.09-.04.17-.07.26s-.17.43-.03.11-.1.18-.16.28c-.05.08-.1.15-.15.23-.02.04-.06.07-.08.11-.14.24.29-.32.1-.13-.28.28-.54.56-.83.82-.16.14.38-.27.05-.04-.08.06-.17.12-.25.18-.19.12-.38.24-.57.35s-.38.2-.57.29c-.29.14-.1.01.09-.04-.13.03-.26.1-.38.15-.41.15-.84.28-1.27.37-.22.05-.43.09-.65.13-.44.08.39-.04.09 0-.12.01-.24.03-.36.04-.44.04-.88.04-1.31.01-.1 0-.21-.02-.31-.03-.3-.02.57.1.14.02-.21-.04-.41-.08-.61-.13-.17-.05-.34-.11-.51-.17-.4-.13.4.2.15.07-.1-.05-.21-.1-.31-.15-.15-.08-.28-.19-.43-.27.53.31.14.12-.08-.11-.18-.19-.2-.42.05.1-.04-.08-.11-.15-.15-.22-.06-.1-.11-.2-.17-.3-.02-.04-.04-.09-.06-.13-.14-.25.15.46.1.24s-.13-.43-.18-.65c-.09-.35.04.55 0 .08 0-.14-.02-.29-.02-.43 0-.28.05-.56.05-.84 0 .07-.12.56-.01.16.03-.13.06-.26.1-.38l.09-.3c.06-.19.14-.27.01-.05.13-.23.25-.46.41-.67-.22.3.22-.2.29-.27.17-.16.35-.31.53-.45-.3.23.52-.22.23-.1.79-.3 1.33-1.05 1.09-1.92-.25-.9-1.08-1.21-1.92-1.09Z"/><path d="m31.25 129.98-2.22-11.23c-.11-.55-.25-1.15-.71-1.46-.38-.26-.88-.25-1.34-.22-2.31.11-4.62.22-6.93.34-.73.04-1.51.09-2.1.52-1.17.86-.96 2.64-.61 4.05 1.37 5.62 2.9 11.2 4.6 16.73.98 3.2 2.03 6.39 3.56 9.37 1.17 2.28 2.74 4.52 5.1 5.53 1.88.81 4 .72 6.04.62 8.84-.43 17.68-.87 26.52-1.3 3.6-.18 7.93-.84 9.32-4.16-.45 1.12-.44 2.56.46 3.36s2.73.29 2.7-.92c0-.44-.25-.85-.47-1.23a76.2 76.2 0 0 1-10.33-31.67c-.04-.47-.11-.99-.47-1.29-.27-.22-.65-.27-1-.3-2.59-.25-5.18-.49-7.76-.74-.64-.06-1.32-.11-1.89.18-.72.37-1.08 1.17-1.35 1.93-.91 2.58-1.34 5.33-1.28 8.06.02.67.1 1.41.6 1.84.42.36 1.01.41 1.56.45 1.96.12 3.96.25 5.77 1.01s3.42 2.3 3.71 4.24c.4 2.65-1.69 5.05-3.96 6.46-3.07 1.91-7.11 2.75-10.28 1.01-1.41-.78-2.62-2.24-2.47-3.84.12-1.31 1.09-2.36 2.01-3.3.9-.93 1.8-1.86 2.71-2.78.29-.3.59-.62.7-1.02.1-.38 0-.78-.07-1.16-.82-3.8-.79-7.77.07-11.56-6.52-.23-13.05-.11-19.55.35-.57 2.87-.3 5.9.78 8.62.24.61.53 1.22 1 1.67.89.87 2.24 1.03 3.32 1.66 2.48 1.45 2.8 5.2 1.24 7.61-1.55 2.42-4.4 3.69-7.2 4.34-1.67.38-3.45.59-5.08.08-1.64-.51-3.1-1.87-3.3-3.57-.3-2.64 4.53-8.92 8.19-10.09"/><path d="M32.75 129.56c-.36-2.13-.7-4.27-1.05-6.4-.31-1.9-.39-4.1-1.08-5.9-.79-2.07-2.7-2.21-4.63-2.15-2.04.07-4.09.12-6.13.26-1.85.12-3.56.71-4.39 2.5-.71 1.55-.44 3.28-.05 4.88.98 4.06 2.07 8.1 3.24 12.11 1.11 3.8 2.2 7.62 3.73 11.28 1.37 3.27 3.08 6.72 6.18 8.68 3.38 2.14 7.72 1.43 11.5 1.25 4.17-.2 8.35-.41 12.52-.61 4.37-.21 8.84-.18 13.18-.75 3.32-.44 6.93-1.64 8.43-4.92l-3.66-1.54c-.69 1.92-.42 4.39 1.37 5.63 1.48 1.02 3.6.82 4.86-.46 1.73-1.77.46-3.85-.53-5.58a73 73 0 0 1-3.22-6.29c-1.88-4.13-3.35-8.45-4.44-12.86-.55-2.22-1-4.46-1.34-6.71-.16-1.07-.3-2.13-.41-3.2-.12-1.13-.21-2.27-1.08-3.11s-2.2-.86-3.35-.97c-1.3-.13-2.59-.26-3.88-.4-2.18-.24-4.9-.99-6.67.74-1.52 1.49-2.04 4.05-2.4 6.06-.38 2.13-.87 4.86-.14 6.96.87 2.48 3.34 2.43 5.53 2.61 1.85.15 4.08.53 5.3 2.1 2.71 3.47-3.63 6.68-6.22 7.18-1.81.35-4.46.17-5.58-1.55-.57-.88-.03-1.62.59-2.31.88-.98 1.83-1.9 2.75-2.84.84-.87 1.69-1.72 1.8-2.99s-.37-2.63-.52-3.92c-.31-2.76-.15-5.54.44-8.25.29-1.33-.6-2.55-1.98-2.6-6.52-.22-13.04-.16-19.55.28-.87.06-1.87.61-2.04 1.55-.4 2.13-.46 4.22-.13 6.37.29 1.93.88 4.2 2.19 5.7.67.77 1.52 1.23 2.44 1.61.63.26 1.37.43 1.89.9.87.78.96 2.15.71 3.22-.75 3.17-4.92 4.53-7.75 4.89-1.4.18-3.28.1-4.16-1.2-.57-.85-.28-1.3.18-2.22 1.23-2.44 3.59-5.48 6.17-6.37 2.51-.87 1.43-4.88-1.1-4.01-5.71 1.97-14.55 12.63-6.36 17.08 3.95 2.15 9.85.63 13.33-1.88 3.45-2.49 5.32-7.16 3.05-11.1a6.35 6.35 0 0 0-2.59-2.47c-.83-.43-2.09-.59-2.71-1.33-.76-.92-1.03-2.67-1.19-3.81-.2-1.4-.15-2.86.11-4.24-.68.52-1.36 1.04-2.04 1.55 6.5-.46 13.04-.63 19.55-.41l-1.98-2.6c-.49 2.23-.76 4.51-.74 6.79.01 1.09.09 2.17.23 3.25.07.57.15 1.13.25 1.7.04.23.07.75.18.91.15.24-.04.25.12-.04-.44.82-1.6 1.65-2.24 2.32-.77.79-1.54 1.56-2.18 2.46-1.21 1.72-1.47 3.89-.46 5.77 2 3.72 6.8 4.56 10.59 3.72 3.76-.84 7.72-3.34 9.16-7.05 1.55-3.99-1.11-7.82-4.8-9.31-.99-.4-2-.64-3.05-.79s-2.4-.5-3.44-.33c.04 0-.26 0-.27-.05l.2.16c.18.21.24.23.17.04.13-.19-.02-1.01-.02-1.25.02-1.18.13-2.36.35-3.52.2-1.03.45-2.1.84-3.08.29-.75.41-.67 1.25-.62 1.13.07 2.27.18 3.4.28 1.26.1 2.63.4 3.88.34.15 0 .88.19.24-.14-.47-.24-.17-.13-.2.25-.04.47.11 1.06.17 1.54.13 1.12.29 2.25.46 3.37.33 2.11.76 4.21 1.27 6.28 1.15 4.68 2.76 9.23 4.73 13.62 1 2.22 2.1 4.38 3.31 6.49.13.23.54 1.23.75 1.31.22.09.03-.6.22-.72 0 0 .34-.21.3-.12 0 0 .02.02.02.03-.02.04.01.02.05-.09.12-.32.07-.79.2-1.16.75-2.11-2.71-3.61-3.66-1.54s-3.28 2.71-5.43 3c-3.13.42-6.37.38-9.53.54-6.95.34-13.95.96-20.91 1-1.43 0-2.85-.1-4.11-.85s-2.06-1.85-2.77-3.02c-1.64-2.7-2.68-5.73-3.63-8.72-1.04-3.26-1.99-6.55-2.9-9.86-.47-1.7-.92-3.41-1.36-5.13-.36-1.42-.97-2.97-1.01-4.45-.02-.64-.1-.68.38-.77.81-.15 1.72-.09 2.54-.13.99-.05 1.98-.11 2.97-.17l1.49-.09c.22-.02.45-.03.67-.04.29.03.25-.06-.11-.28.16 1.75.84 3.62 1.24 5.33.49 2.1.99 4.19 1.46 6.29.44 1.98 3.33 1.11 3-.83Zm-8.73-52.33c1.23-2.44 2.69-4.75 4.36-6.91.59-.77 1.23-1.53 2.07-2.02 1.09-.63 2.4-.72 3.66-.79 4.98-.25 9.97-.3 14.96-.34 8.61-.08 17.22-.15 25.82-.23-1.39 2.98-2.77 5.96-4.16 8.95-.46.99-.98 2.04-1.94 2.55-.73.39-1.59.39-2.42.39-13.41-.07-26.82-.14-40.24-.22"/><path d="M25.29 77.96c1.06-1.86 2.27-3.58 3.55-5.29s2.28-3 4.43-3.18c4.57-.38 9.23-.25 13.81-.29 9.27-.07 18.55-.25 27.82-.18-.6-1.05-1.2-2.09-1.8-3.14-1 2.07-1.99 4.15-2.96 6.24-.47 1-.92 2.02-1.4 3.01-.31.63-.56 1.32-1.27 1.53-.89.26-2.15.04-3.08.04-1.16 0-2.32-.01-3.48-.02-2.32-.01-4.64-.03-6.95-.04-9.27-.06-18.55-.11-27.82-.17-2.75-.02-2.75 4.25 0 4.27 9.94.05 19.87.1 29.81.14 2.48.01 4.97.02 7.45.04 2.17.01 4.87.43 6.78-.83 1.83-1.21 2.57-3.46 3.45-5.36 1.04-2.24 2.07-4.48 3.07-6.74.61-1.37-.08-3.18-1.8-3.14-9.93.25-19.88.2-29.81.34-2.49.03-4.99.07-7.48.19-2.24.1-4.76-.01-6.9.73-2.15.75-3.45 2.59-4.68 4.4s-2.32 3.93-3.26 5.99c-.77 1.68 1.57 3.14 2.52 1.47Zm72.52-14.25c.76-2.18.66-4.7.72-6.98.06-2.29.07-4.55-.17-6.83-.11-1.07-.87-2.12-2.07-2.07-1.22.05-1.95.91-2.07 2.07-.24 2.28-.24 4.54-.17 6.83.06 2.29-.04 4.8.72 6.98.52 1.49 2.52 1.5 3.04 0"/><path d="M96.24 51.68c3.24.39 6.84-2.01 8.92-4.29 2.53-2.76 3.94-6.36 4.05-10.1.12-3.79-1.17-7.54-4.44-9.68-3.14-2.05-7.58-2.72-11.16-1.63-3.35 1.02-7.51 4.93-6.68 8.81.32 1.48 2.41 1.62 3.13.41s1-2.6 2.25-3.45a8.07 8.07 0 0 1 4.32-1.38c2.74-.05 6.38.8 7.27 3.75s.29 6.35-1.4 8.99c-.77 1.19-1.82 2.22-2.97 3.04-1.3.93-2.83 1.43-4.18 2.27-1.59.98-.77 3.06.88 3.26Z"/><path d="M10.47 54.7c10.35-1.62 20.73-3.01 31.07-4.68 10.32-1.66 20.62-3.44 30.91-5.26 2.94-.52 5.87-1.01 8.78-1.71s5.76-1.45 8.65-2.16c1.76-.43 1.44-3.43-.44-3.24-5.31.55-10.59.99-15.86 1.89-5.15.87-10.3 1.78-15.44 2.68-10.36 1.83-20.74 3.58-31.06 5.64-5.84 1.16-11.66 2.45-17.51 3.56-2.16.41-1.22 3.6.9 3.27Zm96.75-17.76c8.22-1.25 16.47-2.27 24.69-3.57s16.53-2.73 24.77-4.19c4.67-.83 9.16-2.02 13.74-3.23 1.75-.46 1.46-3.4-.44-3.24-4.25.37-8.45.63-12.66 1.34-4.09.69-8.17 1.41-12.25 2.13-8.23 1.46-16.49 2.84-24.68 4.53-4.69.97-9.37 2.05-14.07 2.97-2.17.42-1.21 3.59.9 3.27Z"/></svg>