<?xml version="1.0" encoding="UTF-8"?><svg xmlns="http://www.w3.org/2000/svg" viewBox="0 0 180 180"><path d="M55.77 11.7c-9.54 2.64-18.28 7.57-25.3 14.58-7.37 7.36-12.6 16.71-15.15 26.8a59.4 59.4 0 0 0-1.72 17.97c.14 2.37 2.88 2.9 4.21 1.14 2.05-2.71 5.07-4.79 8.19-6.09s6.78-2.19 9.93-1.14c1.24.41 2.37 1.13 3.61 1.54 1.68.56 3.51.49 5.19-.02 3.63-1.11 6.34-3.77 9.49-5.73 6.42-3.98 14.19-.54 21.15-2.3 1.85-.47 3.55-1.33 5.04-2.52s2.51-2.63 3.96-3.73c2.88-2.18 6.91-1.4 10.23-1.1 3.37.3 7.78.73 10.32-1.97 1.05-1.12 1.79-2.49 2.62-3.78.7-1.08 1.19-1.63 2.25-2 3.05-1.05 6.44-.97 9.62-.77 1.58.1 3.16.25 4.73.46 1.43.19 3.16.79 4.59.61 3.6-.45 1.29-4.83.49-6.59-.85-1.88-1.7-3.8-2.77-5.57-3.55-5.87-8.98-10.47-14.77-14.04a66.7 66.7 0 0 0-19.16-7.97C84 7.43 75.44 7.85 66.83 9.11c-2.31.34-4.59.84-6.87 1.35-.94.21-1.47 1.29-1.24 2.18.27 1.02 1.24 1.38 2.18 1.24 7.02-1.03 14.07-1.83 21.17-1.33 5.36.38 10.53 1.47 15.58 3.29 9.23 3.31 18.94 8.84 24.39 17.26.94 1.44 1.68 2.98 2.41 4.53.43.9.85 1.81 1.25 2.73.29.68-.15-.38.1.25.07.17.14.34.2.51.05.13.08.29.14.41.23.47.02-.51.08-.75l.59-1.01-.02.02c.54-.22 1.07-.45 1.61-.67.64-.07-.26-.06-.55-.11-.46-.08-.92-.15-1.38-.22-1.09-.16-2.19-.31-3.29-.44-2.11-.25-4.24-.42-6.37-.44-3.58-.03-8.3.12-11.17 2.59-1.37 1.18-2.2 2.87-3.18 4.36-.29.44-.86 1.19-1.1 1.37-.26.19-.17.14-.72.27s-1.13.19-1.71.22c-4.48.23-9.01-1.23-13.45-.04-2.36.63-4.22 2.04-5.92 3.75-1.48 1.49-2.86 2.87-4.92 3.49-3.99 1.19-8.36.27-12.44.27-2.24 0-4.56.19-6.69.91s-4.13 2-6 3.36c-1.68 1.22-3.37 2.59-5.31 3.38-1.59.65-2.87.59-4.2-.01-2.12-.97-4.08-1.78-6.46-1.83-2.48-.05-5.01.4-7.36 1.18-4.9 1.62-9.21 4.59-12.32 8.71l4.21 1.14c-1.18-19.5 8.23-38.31 24.44-49.18 4.39-2.94 9.06-5.34 14.09-6.97 2.02-.65 1.19-3.77-.88-3.19Z"/><path d="M53.1 13.45c-6.26 5.59-10.28 13.18-12.54 21.19-1.28 4.55-2.01 9.24-2.44 13.94-.44 4.85-.9 10-.3 14.84.24 1.91 2.72 1.9 2.97 0 .59-4.58.34-9.28.72-13.89s1.07-9.14 2.29-13.58c2.08-7.59 5.74-14.85 11.43-20.38 1.39-1.36-.69-3.4-2.12-2.12Zm8.55.08c7.6 1.48 14.98 3.03 21.76 6.98 6.54 3.81 11.86 9.16 17.01 14.63 1.16 1.24 2.32 2.5 3.28 3.9.85 1.26 1.27 2.46 1.73 3.87.49 1.52 2.37 1.35 2.92 0 1.17-2.87-2.03-6.46-3.73-8.43-2.25-2.61-4.7-5.14-7.18-7.52C91.23 21 84.09 16.25 75.87 13.59c-4.46-1.44-9.17-2.42-13.86-2.72-1.5-.1-1.86 2.36-.36 2.65Zm-3.36 4.7c.33 6.66 3.8 12.52 6.21 18.57 1.31 3.3 2.63 6.59 3.96 9.88s2.67 6.95 4.33 10.24c.91 1.8 4.07.53 3.31-1.4-1.3-3.3-2.86-6.51-4.23-9.79s-2.65-6.39-4.04-9.56c-2.53-5.77-6.31-11.52-6.75-17.96-.12-1.78-2.89-1.81-2.8 0Zm60.08 49.05c-7.71 7.55-15.22 15.28-22.64 23.12-2.02 2.13-4.03 4.29-6.07 6.4-1.93 2-3.88 3.26-6.56 4.02-5.89 1.67-11.87 3.05-17.8 4.59-12.19 3.17-24.37 6.34-36.56 9.52l-4.33 1.13-2.16.56c-.86.22-1.97.36-2.74.81-1.25.73-1.57 2.76-1.97 4.06-.42 1.4-.79 2.81-1.1 4.23-.58 2.63-1.58 5.93-.1 8.42.63 1.06 1.67 1.78 2.72 2.37 1.31.74 2.62 1.49 3.94 2.22 5.33 3 10.76 5.84 16.2 8.63q4.08 2.1 8.19 4.14c2.54 1.26 5.19 2.86 8.02 3.37 3.13.57 6.18-.26 9.15-1.19s5.84-1.85 8.76-2.77l17.76-5.61c6-1.9 12-3.79 18-5.69 5.5-1.74 11.13-3.09 15.88-6.5 4.28-3.08 8.18-6.75 12.17-10.18 4.22-3.62 8.39-7.32 12.38-11.19 4.04-3.92 7.91-8.02 11.45-12.4 1.77-2.2 3.93-4.51 4.97-7.16s.68-5.51-.37-8.07c-.51-1.24-1.11-2.9-2.08-3.87-.58-.58-1.43-.7-2.18-.9-.86-.23-1.71-.46-2.56-.69q-4.305-1.185-8.58-2.49a332 332 0 0 1-25.75-9.02c-1.17-.46-2.56.51-2.86 1.63-.36 1.32.45 2.4 1.63 2.86 12.44 4.9 25.16 9.02 38.08 12.46l-1.38-1.06c1.28 2.18 2.74 4.95 1.72 7.52-.51 1.29-1.54 2.43-2.38 3.53s-1.76 2.24-2.68 3.34c-3.8 4.55-7.95 8.8-12.27 12.87s-8.8 7.94-13.32 11.77c-4.06 3.45-7.97 7.48-12.89 9.69-2.79 1.25-5.9 1.97-8.81 2.89-3.16 1-6.31 1.99-9.47 2.99-6.24 1.97-12.47 3.94-18.71 5.91-6.22 1.96-12.43 4-18.67 5.89-2.93.89-5.53 1.3-8.4 0s-5.69-2.81-8.51-4.24c-6.46-3.28-12.87-6.67-19.22-10.17-1.55-.86-3.13-1.66-4.66-2.56-1.07-.63-1.34-.82-1.18-2.09.42-3.47 1.45-6.95 2.61-10.25l-1.68 1.68c15.55-4.05 31.11-8.09 46.66-12.14 4.01-1.04 8.01-2.11 12.02-3.17 3.58-.95 7.29-1.74 10.26-4.08s5.23-5.23 7.7-7.88c2.31-2.47 4.63-4.92 6.91-7.41 5.32-5.81 10.57-11.65 15.72-17.6 1.34-1.54-.77-3.72-2.26-2.26Z"/><path d="M19.84 121.99c4.33 5.21 10.69 8.16 16.55 11.3 3.29 1.76 6.59 3.49 9.91 5.18 1.66.85 3.33 1.69 5.01 2.5 1.7.82 3.43 1.82 5.27 2.3 1.27.33 2.57-1.46 1.39-2.39-1.43-1.12-3.11-1.9-4.72-2.75s-3.3-1.72-4.96-2.58c-3.24-1.68-6.47-3.37-9.69-5.08-5.71-3.03-12.13-5.84-16.7-10.54-1.33-1.37-3.25.64-2.07 2.07Z"/><path d="M58.72 143.35c8.11-1.91 16.14-4.13 24.18-6.3 7.92-2.13 15.9-4.13 23.76-6.46 4.14-1.22 8.3-2.64 12.13-4.65 1.93-1.01.24-3.78-1.69-2.89-9.07 4.19-19 6.3-28.62 8.88-10.21 2.74-20.47 5.36-30.59 8.43-1.91.58-1.12 3.44.82 2.98Zm66.65-25.43c13.48-10.11 24.77-22.71 37.09-34.13 1.55-1.44-.76-3.74-2.32-2.32-12.35 11.22-23.24 24.01-36.39 34.35-1.18.93.4 3.01 1.62 2.1M72.09 56.66c5.89 13.59 10.83 27.93 15.76 42.24.89-.24 1.73-.73 2.46-1.46.23-.22.46-.51.49-.94.03-.33-.07-.69-.17-1.02-2.75-9.38-6.17-18.4-9.59-27.4-1.53-4.02-3.05-8.05-4.58-12.07-1.22.98-2.6 1.6-4.03 1.82"/><path d="M70.6 57.07c2.68 6.96 5.25 13.96 7.8 20.97s4.89 14.31 7.56 21.37c.36.95 1.34 1.75 2.43 1.38 1.62-.55 3.58-1.67 4.14-3.42s-.62-3.99-1.17-5.64c-1.35-4.07-2.69-8.13-4.14-12.16s-2.89-7.83-4.36-11.74c-1.55-4.1-2.98-8.24-4.5-12.34-.38-1.03-1.76-1.98-2.85-1.16s-2.2 1.37-3.57 1.61c-2.46.43-1.42 4.19 1.03 3.75 1.65-.3 3.17-1 4.5-2.02l-2.85-1.16c1.38 3.55 2.85 7.07 4.21 10.63s2.7 7.08 4.02 10.63 2.54 6.97 3.72 10.49c.59 1.77 1.15 3.54 1.67 5.34.13.47.27.94.4 1.41.09.32.43 1 .34 1.28.14-.44-.28.05-.44.15-.38.26-.76.41-1.19.53l2.43 1.38c-2.27-7.28-4.92-14.47-7.56-21.62s-5.49-14.07-8.76-20.87c-.75-1.57-3.48-.45-2.84 1.2ZM57.72 142.6c-.17 2.57-.51 5.13-1.03 7.66-.08.37-.17.77-.46 1.02-.42.37-1.07.27-1.62.12-2.02-.58-3.88-1.59-5.72-2.6-6.49-3.54-13-7.09-18.99-11.41-1.44-1.04-2.86-2.13-4.48-2.87-1.19-.55-2.46-.91-3.68-1.38-.3-.12-.62-.26-.77-.55-.11-.2-.11-.44-.12-.66-.01-2.47.37-4.94 1.12-7.29 4.73 3.3 9.67 6.29 14.79 8.94 4.97 2.57 10.11 4.82 15.24 7.06 1.64.72 3.28 1.44 4.92 2.15"/><path d="M56.28 142.2c-.77 2.66-.64 5.69-1.69 8.27l.5-.86c.44.01.52 0 .22-.07q-.3-.075-.6-.18c-.35-.11-.69-.24-1.02-.38-.75-.31-1.47-.69-2.19-1.07-1.37-.72-2.72-1.47-4.07-2.22-2.96-1.63-5.91-3.29-8.81-5.04s-5.56-3.51-8.23-5.43c-1.26-.91-2.52-1.82-3.94-2.48-.69-.32-1.4-.6-2.11-.85-.52-.19-1.58-.33-1.93-.75l.53.9c-.28-.91.02-2.33.16-3.26.17-1.22.48-2.42.84-3.6l-3.01 1.22c10.96 7.63 23.12 13.28 35.45 18.32 2.09.86 3.6-2.71 1.55-3.67-6.04-2.82-12.24-5.29-18.22-8.27-5.81-2.89-11.39-6.21-16.71-9.92-1.13-.78-2.64.05-3.01 1.22-.65 2.09-1.04 4.26-1.16 6.45-.05.93-.15 1.98.26 2.84.47.99 1.33 1.43 2.31 1.81 1.86.72 3.61 1.31 5.29 2.43 1.78 1.19 3.49 2.5 5.28 3.69 3.61 2.39 7.36 4.54 11.15 6.63 1.85 1.02 3.7 2.03 5.56 3.03 1.79.96 3.75 2.01 5.76 2.41 1.04.2 2.14.15 2.98-.56.91-.77 1.12-1.87 1.32-2.99.45-2.51.79-5.09.44-7.62-.22-1.54-2.52-1.31-2.89 0Zm30.88-37.5c4.88 2.61 9.78 5.17 14.71 7.7 2.43 1.25 4.88 2.45 7.32 3.66 2.49 1.24 4.96 2.6 7.58 3.54 1.78.64 2.68-1.97 1.23-2.93-2.27-1.5-4.79-2.62-7.21-3.85-2.43-1.23-4.86-2.48-7.31-3.68-4.91-2.4-9.83-4.77-14.78-7.09-1.76-.83-3.31 1.7-1.55 2.64Z"/><path d="M52.26 152.5c-.12 2.73-.5 5.46-.7 8.19s-.39 5.45-.54 8.18c-.06 1.05.9 1.79 1.85 1.85s1.89.13 2.84.19 1.87.06 2.58-.65c.65-.65.84-1.69 1.08-2.54s.45-1.79.61-2.69c.32-1.79.46-3.6.57-5.41.1-1.62.19-3.34.85-4.85.5-1.15-.06-2.66-1.51-2.63-1.37.03-2.74-.21-3.98-.8-.88-.42-1.96-.24-2.48.65-.46.79-.24 2.06.65 2.48 1.85.87 3.77 1.31 5.81 1.17-.5-.88-1.01-1.75-1.51-2.63-1.07 2.51-1.17 5.11-1.32 7.79a24 24 0 0 1-.5 3.76c-.13.6-.28 1.2-.44 1.79-.08.3-.17.59-.27.88-.06.19-.13.39-.2.58-.15.39-.14.39.05 0l.79-.46c.14.05.09.06-.14.02l-.32-.03c-.37-.03-.74-.07-1.1-.11-.68-.07-1.37-.14-2.05-.2l1.85 1.85c.23-2.72.42-5.45.51-8.18q.06-1.965.03-3.93c-.02-1.43-.16-2.84-.21-4.26-.06-1.8-2.72-1.8-2.8 0Zm-31.35-18.95c-.12 2.73-.5 5.46-.7 8.19s-.39 5.45-.54 8.18c-.06 1.05.9 1.79 1.85 1.85s1.89.13 2.84.19 1.87.06 2.58-.65c.65-.65.84-1.69 1.08-2.54s.45-1.79.61-2.69c.32-1.79.46-3.6.57-5.41.1-1.62.19-3.34.85-4.85.5-1.15-.06-2.66-1.51-2.63-1.37.03-2.74-.21-3.98-.8-.88-.42-1.96-.24-2.48.65-.46.79-.24 2.06.65 2.48 1.85.87 3.77 1.31 5.81 1.17l-1.51-2.63c-1.07 2.51-1.17 5.11-1.32 7.79a24 24 0 0 1-.5 3.76c-.13.6-.28 1.2-.44 1.79-.08.3-.17.59-.27.88-.06.19-.13.39-.2.58-.15.39-.14.39.05 0l.79-.46c.14.05.09.06-.14.02l-.32-.03c-.37-.03-.74-.07-1.1-.11-.68-.07-1.37-.14-2.05-.2l1.85 1.85c.23-2.72.42-5.45.51-8.18q.06-1.965.03-3.93c-.02-1.43-.16-2.84-.21-4.26-.06-1.8-2.72-1.8-2.8 0Zm107.84-5.19c-.14 2.15.32 4.2.87 6.26.59 2.21 1.17 4.42 1.79 6.62.51 1.8.85 4.16 2.25 5.54.62.61 1.47.98 2.34.95.62-.03 1.04-.33 1.61-.47.27-.07.62-.04.93-.13 2.22-.63 1.89-2.87 1.64-4.63-.32-2.25-.63-4.51-.94-6.77-.62-4.46-1.23-8.94-2.14-13.35-.45-2.19-3.82-1.27-3.36.93.75 3.59 1.27 7.23 1.81 10.86.27 1.8.54 3.6.77 5.41.12.9.22 1.81.33 2.71.05.4.37 1.6.14 1.93l.66-.66c.2-.05.2-.06 0-.04-.22 0-.43.03-.65.07-.07.01-.97.26-.97.34l.54.14c-.03-.07-.07-.14-.11-.2.02-.22-.18-.59-.24-.81-.45-1.69-.91-3.39-1.39-5.07s-.94-3.22-1.42-4.83-1.19-3.16-1.33-4.8c-.17-2-2.99-2.02-3.12 0Zm-84.87-4.27c3.03 1.75 6.02 3.55 9.11 5.2 1.52.81 3.04 1.61 4.57 2.4s3.21 1.76 4.96 1.99c1.23.16 1.62-1.51.94-2.27-1.14-1.27-2.99-2.07-4.48-2.86s-2.93-1.56-4.41-2.31c-3.07-1.57-6.21-2.99-9.33-4.47-1.54-.73-2.88 1.44-1.36 2.32M53.7 121c3.03 1.75 6.02 3.55 9.11 5.2 1.52.81 3.04 1.61 4.57 2.4s3.21 1.76 4.96 1.99c1.23.16 1.62-1.51.94-2.27-1.14-1.27-2.99-2.07-4.48-2.86-1.47-.78-2.93-1.56-4.41-2.31-3.07-1.57-6.21-2.99-9.33-4.47-1.54-.73-2.88 1.44-1.36 2.32m9.83-3.1c3.03 1.75 6.02 3.55 9.11 5.2 1.52.81 3.04 1.61 4.57 2.4s3.21 1.76 4.96 1.99c1.23.16 1.62-1.51.94-2.27-1.14-1.27-2.99-2.07-4.48-2.86s-2.93-1.56-4.41-2.31c-3.07-1.57-6.21-2.99-9.33-4.47-1.54-.73-2.88 1.44-1.36 2.32m9.82-3.09c3.03 1.75 6.02 3.55 9.11 5.2 1.52.81 3.04 1.61 4.57 2.4s3.21 1.76 4.96 1.99c1.23.16 1.62-1.51.94-2.27-1.14-1.27-2.99-2.07-4.48-2.86s-2.93-1.56-4.41-2.31c-3.07-1.57-6.21-2.99-9.33-4.47-1.54-.73-2.88 1.44-1.36 2.32m9.82-3.1c3.03 1.75 6.02 3.55 9.11 5.2 1.52.81 3.04 1.61 4.57 2.4s3.21 1.76 4.96 1.99c1.23.16 1.62-1.51.94-2.27-1.14-1.27-2.99-2.07-4.48-2.86-1.47-.78-2.93-1.56-4.41-2.31-3.07-1.57-6.21-2.99-9.33-4.47-1.54-.73-2.88 1.44-1.36 2.32"/><path d="M20.96 150.51c4.1 4.07 15.91 10.92 20.98 13.47 5.36 2.7 3.7 1.63 9.12 4.06 1.51-2.15 0-7.18-.13-9.73-.08-1.69-.14-3.47.67-4.95-3.67-.88-7-3.1-9.22-6.15-.35-.48-.7-1-1.23-1.29-.59-.32-1.31-.28-1.98-.22l-6.32.48c-1.49.11-3.19.34-4.04 1.57-.44.64-.56 1.45-.88 2.16s-.99 1.39-1.76 1.27"/><path d="M19.87 151.6c1.97 2.14 4.41 3.84 6.8 5.49 2.84 1.96 5.82 3.73 8.81 5.46 2.59 1.49 5.21 2.91 7.9 4.21 2.2 1.06 4.5 1.91 6.72 2.91.96.43 1.98.26 2.58-.68 1.35-2.11.95-4.87.62-7.21s-1.13-5.27-.04-7.45c.54-1.08.12-2.5-1.15-2.82-2.47-.63-4.73-1.84-6.57-3.62-.88-.86-1.52-1.88-2.34-2.78-1.01-1.11-2.37-1.46-3.83-1.39-1.53.08-3.06.22-4.58.34-1.4.1-2.85.13-4.22.45-1.22.28-2.35.88-3.14 1.86-.42.52-.69 1.1-.92 1.74-.11.3-.23.62-.31.93-.09.35-.39.22-.03.22-2.49-.03-2.48 3.8 0 3.86 1.33.03 2.46-.68 3.18-1.78.53-.81.58-2.27 1.45-2.77.97-.55 2.45-.45 3.51-.53 1.54-.12 3.08-.25 4.62-.36.43-.03 1.04-.17 1.4.06.44.27.82 1.07 1.15 1.47.8.97 1.7 1.83 2.69 2.61 2.05 1.61 4.39 2.76 6.92 3.4l-1.15-2.82c-1.3 2.64-1.05 5.58-.62 8.4.28 1.81 1.15 4.63.1 6.3.86-.23 1.72-.45 2.58-.68-1.43-.63-2.87-1.25-4.33-1.82-1.04-.41-1.33-.52-2.42-1.04-2.6-1.23-5.15-2.58-7.65-3.99a177 177 0 0 1-8.57-5.16c-2.39-1.54-4.84-3.09-6.98-4.98-1.49-1.31-3.54.71-2.19 2.19Zm39.35 18.21c21.79-5.39 48.01-12.86 71.98-20.71 1.41-.46 2.87-.96 3.89-2.03-4.44-3.93-3.28-11.24-6.21-16.39-3.64 1.08-6.34 4.12-9.69 5.93-2.38 1.29-5.05 1.92-7.68 2.57a531 531 0 0 0-47.48 14.04c-.69.24-1.43.52-1.83 1.13-.34.51-.36 1.16-.4 1.78-.22 4.26-1.17 8.49-2.78 12.45"/><path d="M59.59 171.15c20.41-4.69 40.6-10.51 60.59-16.72 2.81-.87 5.63-1.72 8.43-2.6s5.71-1.44 7.8-3.44c.71-.68.73-1.98 0-2.66-2.09-1.95-2.71-4.73-3.27-7.43-.61-2.96-1.14-5.92-2.61-8.61-.39-.72-1.38-1.13-2.17-.88-4.92 1.56-8.29 5.79-13.23 7.36-2.75.87-5.59 1.46-8.39 2.16-2.98.75-5.96 1.53-8.93 2.33-5.78 1.56-11.54 3.21-17.26 4.99-5.82 1.81-11.72 3.57-17.41 5.75-1.36.52-2.54 1.28-3.04 2.72s-.33 3.04-.5 4.49c-.38 3.24-1.28 6.39-2.41 9.43-.74 1.99 2.62 3.44 3.47 1.46 1.1-2.55 1.93-5.16 2.45-7.89.26-1.37.45-2.76.58-4.15.05-.52-.07-1.27.12-1.74.16-.4.27-.43.74-.61 5.42-2.08 11.07-3.72 16.61-5.44 5.57-1.72 11.15-3.38 16.77-4.94 5.55-1.54 11.16-2.84 16.72-4.37 2.82-.78 5.44-1.89 7.84-3.59 2.19-1.56 4.29-3.43 6.89-4.27l-2.17-.88c2.94 5.35 1.69 12.33 6.54 16.75v-2.66c-1.64 1.59-4.44 2.06-6.54 2.77-2.5.84-5 1.67-7.51 2.47-5.06 1.61-10.14 3.18-15.23 4.71-9.89 2.98-19.82 5.83-29.79 8.53-5.28 1.43-10.56 2.84-15.85 4.25-1.73.46-1 3.08.74 2.68Z"/></svg>