<?xml version="1.0" encoding="UTF-8"?><svg xmlns="http://www.w3.org/2000/svg" viewBox="0 0 180 180"><path d="M67.48 53.07c1.01.81 2.07 1.54 3.14 2.28 1.16.8 2.4 1.75 3.9 1.33 1.2-.34 2.16-1.45 3.12-2.2a14 14 0 0 1 .5-.38c.21-.16.42-.31.64-.47.58-.42 1.18-.81 1.67-1.33s.69-1.44.27-2.09c-.38-.59-1.23-1.09-1.95-.79-2.03.83-3.67 2.5-5.37 3.86.15-.1.13-.09-.04.03.08-.04.17-.06.26-.07.08-.02.15 0 .22.04-.11-.05-.21-.11-.32-.17-.43-.24-.85-.49-1.29-.73-.99-.55-1.98-1.09-3.01-1.56-.65-.3-1.41-.24-1.86.37-.39.52-.46 1.44.11 1.9Z"/><path d="M62.68 60.77c-.76 1.97.61 3.98 2.38 4.8s4.09 1.2 6.09.87 3.69-1.7 4.29-3.69c.71-2.35 0-4.8.22-7.18.1-1.02-.94-1.89-1.89-1.89-1.1 0-1.79.87-1.89 1.89-.37 4 .97 8.75 5.25 10.02 2.16.64 4.53.16 6.57-.63 1.96-.76 4.05-1.89 4.09-4.27.02-1.51-2.15-2.14-2.88-.78-.58 1.07-1.74 1.48-2.85 1.82-1.29.39-2.83.7-4.11.12-2.26-1.03-2.37-4.16-2.3-6.27l-3.71.5c.36 1.39.35 3.05.32 4.49-.02 1.03-.22 2.05-1.28 2.45s-6.26.38-5.64-1.5c.56-1.72-2.04-2.37-2.67-.74Zm4.52-16.39-.08-.11.24.31.15.36v-.07a1.63 1.63 0 0 0-1.11-1.09c-.28-.07-.56-.07-.83 0s-.5.21-.69.4c-.19.2-.33.43-.4.69-.07.28-.07.56 0 .83s.21.5.4.69c.2.19.43.33.69.4h.07c-.12-.04-.24-.09-.36-.14-.1-.08-.21-.16-.31-.24l.11.08c.14.15.3.25.49.31.18.09.37.14.58.13.21 0 .4-.04.58-.13.19-.06.35-.16.49-.31l.24-.31c.14-.24.21-.49.21-.76l-.05-.4c-.07-.26-.2-.48-.39-.67Zm15.59-1.48-.08-.11.24.31.15.36v-.07a1.63 1.63 0 0 0-1.11-1.09c-.28-.07-.56-.07-.83 0s-.5.21-.69.4c-.19.2-.33.43-.4.69-.07.28-.07.56 0 .83s.21.5.4.69c.2.19.43.33.69.4h.07c-.12-.04-.24-.09-.36-.14-.1-.08-.21-.16-.31-.24l.11.08c.14.15.3.25.49.31.18.09.37.14.58.13.21 0 .4-.04.58-.13.19-.06.35-.16.49-.31l.24-.31c.14-.24.21-.49.21-.76l-.05-.4c-.07-.26-.2-.48-.39-.67Zm-21.42-3.17s.19-.27.09-.15.1-.09.13-.11l.21-.18c.13-.1.16-.13.01-.01.21-.17.42-.36.65-.51-.15.1-.15.11 0 0 .08-.05.15-.1.23-.15.32-.2.65-.37 1-.52.05-.02.36-.16.11-.05s.08-.03.11-.04c.18-.06.35-.12.54-.17.36-.1.75-.12 1.1-.23-.08.02-.38.04-.13.02.11 0 .22-.02.34-.03.17 0 .34-.01.51 0 .19 0 .37.02.56.03.23.02-.4-.07-.08-.01.09.02.18.03.28.05.39.08.76.19 1.15.27.83.16 1.64-.17 1.98-.97s0-1.62-.69-2.1c-.89-.61-2.08-.79-3.14-.81-.95-.02-1.95.12-2.84.46-1.02.39-1.89.89-2.69 1.62-.36.33-.72.71-.98 1.13-.24.38-.41.79-.63 1.18-.34.6-.15 1.4.46 1.75s1.39.13 1.75-.46Zm24.5-5.62c-.66-.53-1.36-1.01-2.13-1.37-.91-.42-1.83-.63-2.82-.74-.86-.1-1.73 0-2.58.17s-1.8.46-2.52.95c-.77.52-1.18 1.59-.64 2.44.57.89 1.52 1.04 2.44.64.15-.07.3-.15.45-.22.06-.03.18-.06.23-.1-.07.06-.31.12-.08.04a8 8 0 0 1 1.44-.39c.24-.05 0 .02-.1.01.08 0 .17-.02.25-.03.35-.03.71-.04 1.06-.04.17 0 .33 0 .5.02.08 0 .16.01.25.02.05 0 .33.03.08 0s.04 0 .09.02c.08.01.16.03.25.05.16.03.33.07.49.1s.32.08.48.12c.08.02.16.05.24.07.03.01.28.1.11.03s.07.04.1.05c.08.04.15.07.22.11.17.09.33.18.49.28.61.37 1.42.18 1.84-.37.4-.52.44-1.43-.11-1.88Z"/><path d="M62.1 27.29c-5.77.61-10.61 4.84-11.46 10.68-.94 6.48 3.16 11.46 7.75 15.45v-2.56c-4.61 3.83-6.67 10.71-3.05 15.91 3.12 4.47 8.61 6.91 13.77 8.12 5.6 1.31 11.32.93 16.49-1.69 4.89-2.49 9.73-7.22 11.33-12.59 1.71-5.73-.88-11.83-6.9-13.4.27 1.01.53 2.01.8 3.02 4.54-5.61 7.07-13.26 3.48-20.02-1.51-2.85-4.02-5.14-7.07-6.21-3.81-1.34-7.99-.55-11.92-.29-2.04.13-4.55.63-6.52-.04-1.58-.54-2.65-2.1-2.71-3.75-.08-2.24-3.41-2.25-3.48 0-.11 3.34 2.02 6.35 5.19 7.41 1.82.6 3.77.43 5.64.3 1.95-.14 3.9-.31 5.85-.5 3.38-.32 7.01-.6 9.73 1.81 2.16 1.92 3.38 4.84 3.45 7.71.09 4.05-1.68 7.93-4.19 11.03-.82 1.01-.62 2.64.8 3.02 3.86 1.01 5.42 4.65 4.52 8.39-1.04 4.31-4.86 8.13-8.56 10.34-4.07 2.43-8.82 3.21-13.47 2.36-4.16-.76-8.72-2.28-11.81-5.3-1.73-1.68-2.81-3.81-2.61-6.27.22-2.71 1.77-5.09 3.82-6.79.72-.6.69-1.96 0-2.56-3.55-3.08-7.28-6.75-6.99-11.83.27-4.73 3.91-8.41 8.48-9.19 1.43-.24 1.11-2.7-.34-2.55Zm39.17 20.16c.41-2.64 1.27-5.2 2.61-7.51 1.09-1.9 2.71-4.13 4.69-4.85 1.78-.65 3.63.27 4.28 2.16.75 2.18-.18 4.57-1.56 6.02a8.43 8.43 0 0 1-6.17 2.61c-.81 0-1.52.63-1.61 1.42-.09.73.36 1.67 1.18 1.8 3.16.49 6.28-.48 8.67-2.6s3.83-5.44 3.43-8.66c-.43-3.5-3.14-6.53-6.78-6.7-3.39-.15-6.1 2.39-7.83 5.03-2.14 3.26-3.35 7.03-3.66 10.91-.13 1.56 2.52 1.95 2.76.37Z"/><path d="M51.05 50.41c-2.4-2.26-5.09-4.01-8.26-5.03-2.9-.93-6.93-1.71-9.68.04-2.83 1.8-3.34 5.6-1.87 8.44 1.55 2.97 4.96 4.57 8.11 5.18 2.02.4 4.08.5 6.13.5 2.01 0 3.94-.09 5.22-1.85.56-.76.2-1.95-.49-2.47-.8-.59-1.77-.49-2.51.15-.11.09-.44.19-.67.21-.61.06-1.24.04-1.86.04-1.33 0-2.69-.03-4.01-.22-2.13-.31-4.61-.99-6.04-2.73-.98-1.19-1.25-3.24.17-4.03.88-.49 2.01-.4 2.98-.35 1.16.06 2.3.24 3.43.52 2.63.66 5.31 1.8 7.44 3.52 1.32 1.07 3.21-.69 1.91-1.91Z"/><path d="M50.55 22.85c-1.94 1.11-3.58 2.49-4.87 4.33-1.36 1.94-2.2 4.31-2.9 6.55-1.32 4.19-2.41 9.77-.18 13.86 1.03 1.87 3.78.56 3.34-1.41-.43-1.95-.87-3.65-.75-5.67.11-1.9.56-3.77 1.11-5.59 1.08-3.59 2.32-7.54 5.62-9.71 1.45-.96.16-3.23-1.37-2.35ZM77.4 16.5c-.4-.06-.8-.16-1.18-.29-.08-.03-.18-.08-.26-.1.34.08.1.04 0 0-.18-.09-.36-.18-.53-.29s-.34-.22-.51-.34c-.28-.19.27.22.01.01l-.21-.18c-.31-.27-.59-.56-.87-.86-.06-.07-.13-.14-.19-.21l-.12-.15.14.19c-.1-.17-.24-.33-.35-.5-.21-.33-.38-.68-.56-1.03-.15-.3.13.36.02.06-.04-.1-.08-.2-.11-.31-.07-.19-.12-.39-.17-.58-.04-.18-.07-.37-.11-.55.11.53.03.22.02.09-.03-.25-.05-.49-.12-.73-.19-.69-.89-1.27-1.63-1.24-.3.01-.59.09-.85.23-.32.17-.72.64-.78 1.01-.08.52-.06.86 0 1.38.03.22.07.43.12.64.13.54.34 1.05.57 1.56.41.91 1.04 1.74 1.75 2.43 1.46 1.43 3.53 2.27 5.56 2.33.65.02 1.2-.51 1.28-1.13.08-.58-.29-1.33-.93-1.43Zm-.36-6.68c2.24 6.38 10.15 7.8 15.31 10.96 2.75 1.68 5 3.96 6.53 6.81 1.55 2.87 1.88 5.78 2.13 8.96.08.95.67 1.77 1.67 1.89.86.1 1.95-.42 2.11-1.38 1.06-6.56-2.61-13.79-7.71-17.76-2.92-2.28-6.34-3.75-9.76-5.11-2.65-1.05-6.28-2.28-7.47-5.15-.7-1.68-3.43-1.03-2.8.77ZM44.79 66.21c2.01 4.46 6.15 7.05 10.52 8.84 4.8 1.96 10.04 2.85 15.22 2.86 10.01.02 20.7-3.42 28.92-9.13 2.11-1.47 4.12-3.13 5.82-5.07 1.84-2.11 3.02-4.37 3.92-7 .6-1.75-2.22-2.98-3.03-1.28-3.63 7.72-11.65 12.45-19.34 15.32-8.75 3.26-18.7 4.56-27.82 2.11-4.58-1.23-9.83-3.42-12.13-7.87-.73-1.41-2.72-.17-2.09 1.22Z"/><path d="M55.76 73.96c.54 1.67 2.04 2.83 3.53 3.77 6.62 4.14 14.78 6.04 22.42 4.4 7.63-1.63 14.55-7.02 17.28-14.33-1.03 2.04-3.03 3.39-5.03 4.49-9.56 5.23-21.2 6.52-31.67 3.5"/><path d="M54.57 74.29c.54 3.62 5.02 5.79 7.99 7.14 3.6 1.63 7.4 2.68 11.35 3.01 7.36.61 14.73-1.75 20.28-6.64 2.95-2.6 5.16-5.85 6.55-9.53.73-1.93-2.33-3.16-3.3-1.39-1.38 2.53-4.36 3.88-6.87 5.04-2.87 1.32-5.93 2.25-9.02 2.86-6.3 1.24-12.55.75-18.74-.83-2.37-.61-3.34 2.94-1.01 3.66 6.75 2.1 14.28 2.12 21.16.68 3.48-.73 6.86-1.9 10.06-3.44 2.95-1.42 5.95-3.17 7.54-6.15l-3.3-1.39c-2.75 7.04-9.56 11.9-16.86 13.21-4.28.77-8.75.33-12.89-.93-2.04-.62-4-1.46-5.88-2.46s-3.67-2.03-4.78-3.8c-.79-1.26-2.47-.39-2.27.96Zm-.82 6.7c.46 4.93.67 9.89 1.09 14.83.43 5.03.83 10.05 1.3 15.08.91 9.75 1.66 19.54 2.94 29.25.59 4.49 1.22 9.19 2.85 13.44 1.43 3.72 4.09 6.93 8.29 7.27 1.74.14 3.56-.4 4.85-1.59 1.54-1.42 1.95-3.51 2.11-5.51.33-4.19.31-8.43.2-12.63-.23-8.64-.89-17.2-.45-25.85.12-2.41-3.63-2.41-3.75 0-.36 7.16-.05 14.27.29 21.42.17 3.51.27 7.03.22 10.55-.03 2.11-.08 4.22-.22 6.32-.09 1.38-.32 3.02-1.83 3.48-3.39 1.03-5.28-2.91-6.05-5.48-1.24-4.09-1.95-8.37-2.47-12.6-1.12-9-1.89-18.06-2.83-27.08-.53-5.11-1.14-10.22-1.72-15.32-.59-5.2-1.4-10.37-1.95-15.57-.19-1.8-3.03-1.84-2.86 0Zm38.7 30.26c-.33 9.01.87 18 .52 27.02-.14 3.48-.77 6.88-.98 10.34-.2 3.25.2 6.76 2.47 9.27 2.77 3.07 7.12 2.93 10.08.28 2.49-2.23 3.96-5.58 4.79-8.76.87-3.34 1.13-6.81 1.38-10.24s.64-6.87 1.24-10.31c.86-4.9 1.68-9.81 2.23-14.76.56-5.01 1.09-10.3.42-15.32-.31-2.32-3.7-2.49-3.75 0-.08 4.07 0 8.1-.35 12.17s-.96 8.2-1.64 12.28c-.61 3.62-1.39 7.21-1.78 10.86-.33 3.05-.44 6.12-.78 9.17-.31 2.84-.82 5.82-2.08 8.41-1.02 2.1-3.37 5.86-6.14 4-2.24-1.51-2.16-4.85-2-7.22.21-3.07.76-6.1.91-9.18.44-9.32-.36-18.75-1.42-28-.22-1.96-3.05-2.06-3.12 0Z"/><path d="M55.18 89.32c-8.81-5.14-20.25-4.45-27.63 2.93a21.7 21.7 0 0 0-6.14 12.5c-.64 5.05.87 10.11 3.46 14.42 3.14 5.26 7.76 9.37 12.33 13.36.34-1.27.67-2.55 1.01-3.82-3.19 1.26-6.05 3.19-8.22 5.89s-4.25 6.61-3.14 10.24c.98 3.21 4.73 5.34 7.83 3.51 1.51-.89 2.38-2.5 3.3-3.93 1.12-1.76 2.25-3.51 3.38-5.27 1.21-1.88-1.61-4.1-3.12-2.41-1.99 2.24-3.94 4.72-4.09 7.84-.13 2.67 1.77 5.45 4.36 6.2 3.15.91 5.14-1.52 6.68-3.86 1.8-2.74 3.22-5.68 4.44-8.71.75-1.87-1.97-3.17-3.24-1.88-2.08 2.1-4.21 4.44-4.54 7.52-.26 2.41.75 5.15 2.94 6.4 2.7 1.54 5.84.3 7.79-1.85 1.93-2.13 2.51-5.16 4.53-7.19-1.03-.79-2.06-1.59-3.08-2.38-1.87 3.05-3.37 7.62.27 10.06 2.84 1.9 6.66.56 8.79-1.72 1.75-1.87-1.06-4.7-2.82-2.82l-.46.49c.02-.02-.46.43-.25.27.13-.1-.37.18-.45.22-.73.34-1.73.7-2.51.29-1.64-.87.23-3.83.82-4.81 1.15-1.91-1.52-3.99-3.08-2.38s-2.34 3.43-3.32 5.31c-.66 1.26-2.11 3.71-3.9 3.24-1.15-.3-1.45-1.9-1.3-2.9.3-1.99 2-3.61 3.32-5-1.08-.63-2.16-1.26-3.24-1.88-.78 2.05-1.76 4.02-2.88 5.91-.53.89-1.08 1.76-1.67 2.61-.3.43-.8 1.36-1.41 1.37-1.18.02-1.84-1.75-1.72-2.68.24-1.85 1.69-3.46 2.83-4.83l-3.12-2.41c-1.4 2.33-2.67 4.94-4.36 7.08-.48.61-1 1.18-1.74.68-.79-.52-1.04-1.39-.95-2.3.22-2.06 1.73-4.18 3.08-5.66 1.51-1.65 3.37-3 5.46-3.83 1.47-.58 2.43-2.58 1.01-3.82-6.5-5.69-14.49-12.57-14.61-21.98-.11-8.01 6-14.88 13.6-16.7 4.64-1.11 9.84-.64 14.18 1.4 1.8.85 3.36-1.68 1.59-2.71Zm45.33-20.78c4.09 3.76 8.14 7.56 12.28 11.27 2.01 1.8 4.04 3.58 6.06 5.38 1.84 1.64 3.92 3.88 6.35 4.57 1.75.49 3.06-1.77 1.77-3.04-.85-.84-1.93-1.44-2.86-2.19s-1.9-1.61-2.83-2.43c-2.03-1.78-4.05-3.58-6.1-5.34-4.1-3.54-8.26-6.99-12.38-10.49-1.57-1.33-3.84.86-2.29 2.29Z"/><path d="M125.59 92.93c2.31-3.64 6.32-5.94 10.55-6.58s8.14.81 11.12 3.56c3.36 3.1 4.89 7.31 4.49 11.85-.44 5.09-3.23 9.77-6.46 13.59-4.04 4.78-8.78 9.03-13.55 13.07-1.32 1.12-.66 3.7 1.06 4.01 2.56.47 5.07 1.21 7.41 2.36 1.62.8 4.49 2.01 4.9 4.02.38 1.87-1.73 1.49-3.04 1.21-2.69-.56-5.12-1.85-7.53-3.13-1.03-.55-2.32-.35-3.03.61-.64.86-.74 2.34.18 3.09s1.89 1.33 2.96 1.87c.69.35 1.52.69 2.02 1.31 1.02 1.26-1.58 1.82-2.46 1.83-3.94.05-6.52-3.58-8.48-6.51-1.39-2.09-5.22-.84-4.28 1.81.39 1.11.93 2.08 1.57 3.05.46.69 1.01 1.4 1.23 2.22.37 1.4-1.15 1.13-2.11.86-2.97-.86-5.28-3.75-5.5-6.82h-4.68c.09 1.26.87 3.89.16 4.86-.37.5-1.34.22-2.07-.34-1-.77-2.61-.16-3.2.84-.7 1.2-.17 2.43.84 3.2 2.04 1.56 5.15 1.63 7.2.06 2.83-2.17 1.98-5.56 1.75-8.61-.09-1.26-1.01-2.34-2.34-2.34-1.2 0-2.43 1.07-2.34 2.34.38 5.42 4.39 10.65 9.94 11.56 2.9.47 6.22-.58 6.96-3.76.37-1.61-.03-3.26-.75-4.71-.62-1.26-1.68-2.31-2.15-3.64-1.43.6-2.86 1.2-4.28 1.81 3.29 4.94 8.03 10.06 14.61 8.59 3.04-.68 5.98-3.36 5.27-6.71-.34-1.61-1.46-2.94-2.77-3.89-1.18-.85-2.65-1.26-3.78-2.18l-2.85 3.69c3.42 1.81 6.92 3.56 10.82 3.94 3.6.35 6.76-1.63 6.94-5.45.17-3.53-2.53-6.09-5.34-7.75-3.23-1.91-6.83-3.22-10.51-3.9l1.06 4.01c4.82-4.08 9.63-8.38 13.69-13.24 4.05-4.84 7.17-10.43 7.7-16.82.91-11.01-8.68-21.25-19.92-19.98-5.9.67-11.15 4.16-13.99 9.4-1.06 1.96 1.79 3.62 2.98 1.74m-50.98 42.41c.55 1.83 1.83 3.27 3.2 4.56a30 30 0 0 0 4.65 3.6c1.65 1.03 3.4 1.87 5.2 2.59.85.34 1.74.6 2.63.84 1.41.37 2.67.7 3.87-.36.74-.65.74-1.77.33-2.58-.58-1.16-1.71-1.26-2.83-1.54-.8-.2-1.59-.44-2.38-.69-1.58-.5-2.97-1.05-4.43-1.81s-2.88-1.62-4.19-2.62c-1.18-.89-2.49-1.89-3.31-3.14-.9-1.37-3.25-.54-2.74 1.16Z"/><path d="M134.68 101.28c-5.18 3.72-10.1 7.77-14.76 12.13-4.29 4.02-9.05 8.41-10.96 14.13-.78 2.33 2.82 3.26 3.65 1.01 1.93-5.27 6.46-9.24 10.38-13.05 4.3-4.18 8.84-8.11 13.54-11.82 1.34-1.06-.44-3.4-1.85-2.39Zm-91.94 6.38c2.71 3.02 5.19 6.22 7.76 9.36 2.53 3.09 4.93 6.29 7.27 9.53.6.83 1.65 1.23 2.59.68.85-.49 1.24-1.73.68-2.59-2.32-3.52-4.85-6.88-7.51-10.14s-5.61-6.13-8.6-9.01c-1.44-1.38-3.5.71-2.18 2.18Zm17.93 41.2c-6.24-.64-12.67.76-18.08 3.93-1.86 1.09-3.74 2.6-4.1 4.72-2.05 11.86 32.02 12.37 38.96 12.76 13.31.75 26.7.01 39.84-2.22 9.02-1.53 25.37-2.16 30.98-10.71 1.45-2.21 2.34-5.38.54-7.31-.93-1.01-2.35-1.37-3.68-1.7-1.29-.31-2.62-.63-3.94-.47-2.5.3-4.71 2.27-7.21 1.99-1.35-.15-2.62-.96-3.98-.8-1.05.12-1.93.8-2.87 1.28-3.46 1.78-8.15.64-10.4-2.52-1.34 1.81-4.2 2.24-6.02.91-2.95 5.15-7.62 10.03-13.54 10.41-.43.03-.88.03-1.25-.17-.47-.25-.74-.75-.98-1.23-1.24-2.45-2.51-4.98-2.66-7.72-.03-.59-.02-1.21-.31-1.72-.22-.39-.59-.68-.95-.95-3.99-2.99-8.15-6.06-13.03-7.05.21 3.11.83 6.2.77 9.33s-.9 6.4-3.15 8.56-6.16 2.76-8.49.68c-2.69-2.39-2.62-7.32-5.91-8.77"/><path d="M61.13 147.2c-4.25-.66-8.51-.47-12.65.73-3.76 1.09-8.21 2.86-10.69 6.05-3.12 4.01-1.23 8.82 2.48 11.53 3.6 2.63 8.31 3.79 12.61 4.65 4.98.99 10.05 1.54 15.1 1.9 13.45.98 26.97 1.15 40.38-.43 4.07-.48 8.09-1.19 12.14-1.76 3-.42 6-.8 8.99-1.32 6.22-1.07 12.76-2.67 17.71-6.81 2.57-2.14 4.61-5.28 4.78-8.69.09-1.93-.67-3.82-2.18-5.04-1.61-1.31-3.83-1.81-5.83-2.15-2.25-.38-4.18-.06-6.26.82-.81.34-1.62.73-2.49.93s-1.61-.05-2.46-.3c-2.35-.72-4.12-.31-6.22.86-1.28.72-2.69 1.01-4.15.73-1.43-.27-2.88-1-3.77-2.18-.75-1.01-2.47-1.66-3.45-.44-.89 1.1-2.17 1.36-3.36.57-.98-.66-2.44-.19-3 .79-1.74 3-3.96 5.89-6.96 7.72-1.32.8-2.78 1.4-4.33 1.58-.27.03-.53.04-.8.04l.41.24c-.26-.43-.48-.89-.7-1.34-.43-.87-.86-1.74-1.2-2.66s-.62-1.82-.74-2.75c-.13-1.01-.05-1.99-.5-2.94-.81-1.71-2.81-2.77-4.3-3.84-3.38-2.43-7.03-4.6-11.14-5.49-1.29-.28-2.89.62-2.78 2.12.27 3.66 1.16 7.42.65 11.09-.38 2.74-1.71 5.68-4.61 6.42-2.69.68-3.99-1.15-4.95-3.35-1.06-2.43-2.02-5.03-4.58-6.26-2.53-1.23-4.76 2.56-2.22 3.79 2.4 1.16 2.74 4.79 4.15 6.86 2.1 3.08 5.91 4.25 9.43 2.99 3.73-1.34 6.06-4.71 6.86-8.5.92-4.35-.03-8.68-.35-13.03l-2.78 2.12c4.33.94 7.97 3.46 11.48 6.06.34.25.86.52 1.11.85.05.07.06.29.09.69.09 1.2.29 2.38.65 3.53.62 1.98 1.51 4.11 2.63 5.86 2.42 3.8 8.47 1.26 11.34-.68 3.33-2.25 5.91-5.44 7.92-8.9-1 .26-2 .53-3 .79 2.68 1.8 6.64 1.28 8.68-1.25l-3.45-.44c2.1 2.8 5.31 4.51 8.85 4.45 1.81-.03 3.51-.54 5.08-1.43.6-.34 1.14-.75 1.85-.7.92.06 1.85.58 2.78.72 2.03.32 3.81-.38 5.64-1.15 1.79-.76 3.17-.93 5.09-.49 1.2.28 3.14.49 3.48 1.93s-.52 3-1.27 4.11c-2.95 4.37-8.98 5.95-13.84 7.01-5.69 1.24-11.51 1.77-17.26 2.7-8.78 1.42-17.68 2.12-26.57 2.18-5.32.04-10.63-.24-15.94-.5-8.77-.44-17.54-.86-25.84-3.86-1.32-.48-3.24-1.37-4.35-2.23.21.16-.25-.21-.31-.26-.12-.11-.25-.22-.36-.34-.13-.13-.26-.27-.39-.41-.15-.16-.34-.46-.09-.1-.2-.29-.37-.59-.54-.9-.19-.35.1.37 0-.02-.05-.19-.11-.38-.16-.57-.13-.43-.03-.08-.03-.08 0-.15-.02-.3-.02-.46 0-.18 0-.37.02-.55 0-.06.05-.33 0-.03-.07.42.12-.47.16-.55.53-1.31 1.93-2.16 3.09-2.84 3.36-1.96 7.08-3.15 10.92-3.72 1.93-.29 3.91-.34 5.86-.27s2.41-3.09.46-3.39Zm88.25-60.52c7.02-7.59 10.33-18.05 8.88-28.29-.74-5.19-2.77-10.54-6.9-13.97-3.98-3.3-9.15-4.8-14.27-4.03-10.16 1.53-17.68 12.71-13.83 22.6 1.88 4.83 6.35 8.41 11.57 8.81 4.75.37 9.58-2.5 11.44-6.89 2.22-5.26-.46-12.08-6.47-12.97-2.78-.41-5.54.59-7.15 2.95-1.49 2.19-1.7 5.2-.19 7.42 1.33 1.96 4.26.27 3.18-1.86-.58-1.14-.24-2.67.64-3.57 1.02-1.03 2.65-1.08 3.93-.52 3.21 1.4 3.11 5.8 1.15 8.16a7.615 7.615 0 0 1-8.83 2.17c-3.33-1.39-5.52-4.73-5.75-8.29-.47-7.28 5.69-13.72 12.97-13.72 3.6 0 7.16 1.5 9.67 4.07 2.81 2.87 4.1 7 4.62 10.9 1.17 8.69-1.44 17.91-7.09 24.62-1.39 1.65.9 4.04 2.41 2.41ZM73.65 97.1c3.64.34 7.3.35 10.93.01 1.8-.17 3.59-.41 5.37-.74s3.87-.53 5.38-1.46c1.31-.81.79-2.9-.79-2.91-1.68-.01-3.45.72-5.09 1.06-1.74.36-3.5.64-5.26.82-3.5.36-7.03.4-10.54.13-1.99-.15-1.96 2.91 0 3.09m2.98 10.26c1.81.26 3.63.4 5.46.34.88-.03 1.77-.11 2.65-.21 1.01-.12 2.01-.22 2.95-.62.56-.24.8-1.04.65-1.59-.16-.58-.74-1.06-1.36-1.03-.88.04-1.75.32-2.62.46-.78.13-1.57.21-2.37.26-1.68.1-3.36.05-5.03-.15-.63-.07-1.21.55-1.27 1.12s.28 1.33.93 1.42Zm6.54 10.73c1.99 0 1.99-3.09 0-3.09s-1.99 3.09 0 3.09"/></svg>