<?xml version="1.0" encoding="UTF-8"?><svg xmlns="http://www.w3.org/2000/svg" viewBox="0 0 180 180"><path d="M65.22 68.28c.22 4.9.39 9.79.7 14.69.14 2.29.31 4.57.46 6.85s.34 4.34 1.04 6.43c1.28 3.81 3.83 6.56 6.09 9.78.92 1.31 1.76 2.69 2.38 4.18.74 1.78 1.07 3.7 1.82 5.47.32.75 1.41 1.08 2.14.87.86-.25 1.3-.98 1.39-1.83.38-3.45-1.39-7.31-3.2-10.14-1.97-3.08-4.79-5.69-6.04-9.18-1.45-4.06-1.32-8.67-1.75-12.92-.48-4.74-1.05-9.46-1.59-14.2-.24-2.15-3.56-2.27-3.45 0Z"/><path d="M65.69 68.58c-5.13-1.95-10.36 2.42-10.18 7.7.2 5.95 5.28 9.55 10.14 11.91.97.47 2.16.26 2.74-.72.51-.88.26-2.26-.72-2.74-3.46-1.68-7.48-3.87-8.13-8-.23-1.49.23-2.97 1.38-3.95.89-.77 2.51-1.38 3.92-1.1 2.05.41 2.78-2.37.86-3.1Zm45.63-.3c-.54 4.73-1.11 9.46-1.59 14.2-.42 4.25-.3 8.86-1.75 12.92-1.25 3.5-4.07 6.1-6.04 9.18-1.81 2.83-3.58 6.7-3.2 10.14.09.85.53 1.58 1.39 1.83.73.21 1.83-.12 2.14-.87.75-1.77 1.08-3.69 1.82-5.47.62-1.48 1.46-2.87 2.38-4.18 2.26-3.22 4.81-5.97 6.09-9.78.7-2.09.9-4.25 1.04-6.43.15-2.28.32-4.57.46-6.85.3-4.89.48-9.79.7-14.69.1-2.26-3.21-2.16-3.45 0Z"/><path d="M115.17 71.69c1.42-.28 3.03.34 3.92 1.1 1.16.98 1.61 2.48 1.38 3.95-.65 4.13-4.67 6.32-8.13 8-.97.47-1.23 1.86-.72 2.74.58.99 1.76 1.19 2.74.72 4.86-2.36 9.94-5.96 10.14-11.91.18-5.28-5.05-9.65-10.18-7.7-1.92.73-1.2 3.52.86 3.1ZM68.2 73.61c2.98-2.59 4.31-6.93 3.3-10.74-2.7.29-5.35 1.03-7.8 2.21-.71.34-1.41.72-1.92 1.32s-.78 1.45-.5 2.18c2.11-.85 4.68-.42 6.4 1.07"/><path d="M68.96 74.9c1.02-.63 1.83-1.67 2.49-2.65.62-.93 1.1-1.97 1.45-3.03.72-2.18.8-4.57.26-6.8-.17-.7-.93-1.3-1.66-1.26-2.64.14-5.22.84-7.65 1.88-1.13.48-2.28 1.01-3.16 1.89-1.04 1.05-1.66 2.69-1.11 4.13.31.81 1.22 1.61 2.17 1.23.25-.1.51-.19.77-.26.1-.03.21-.05.32-.07.04 0 .47-.07.25-.05s.26-.01.25-.01h.32c.14 0 .27 0 .41.02.07 0 .43.05.11 0 .48.08.96.19 1.42.35.13.04.25.09.38.14.24.11-.27-.18.12.07.09.06.19.11.28.17 0 0 .39.28.21.13.67.52 1.57.65 2.22 0 .58-.58.63-1.65 0-2.22-2.16-1.96-5.21-2.7-7.98-1.67L63 68.12c.12.45.02-.49-.04-.03.02-.11.05-.22.08-.32q-.12.255.03-.03c.12-.18.12-.19 0-.05.08-.09.16-.18.25-.26.16-.14.18-.16.05-.06.1-.07.2-.14.3-.2.42-.26.86-.47 1.31-.68.12-.05.24-.11.35-.16-.14.06-.1.04.1-.04.21-.08.42-.17.63-.25 1.92-.72 3.88-1.17 5.9-1.51l-2.11-1.2c.06.23.12.46.17.7l.06.31c0 .03.05.35.03.17-.03-.21.02.21.02.25 0 .11.02.21.02.32.01.24.02.48.01.72l-.03.72c0 .1-.08.64-.04.35-.08.47-.18.94-.31 1.4-.27.92-.45 1.36-.98 2.24-.12.2-.25.41-.39.6-.06.09-.12.17-.19.26q-.09.135 0 0l-.1.12c-.32.36-.66.7-.96 1.07-.46.58-.61 1.33-.12 1.96.45.57 1.28.78 1.92.38m43.65-.36c-1.72-1.41-2.72-3.55-3.15-5.73-.44-2.18-.37-4.43-.3-6.65 0-.13.01-.28.11-.37.12-.12.33-.09.5-.05 2.02.51 3.89 1.49 5.71 2.5.82.46 1.68.95 2.19 1.74s.55 1.97-.17 2.58c-.65.56-1.61.45-2.46.57-1.21.18-2.32.91-2.96 1.95"/><path d="M113.61 73.54c-1.34-1.29-2.1-2.98-2.48-4.78-.22-1.03-.28-2.09-.3-3.15-.01-.58 0-1.16.01-1.73 0-.33.02-.66.04-.99 0-.16.01-.33.02-.49.03-.42 0-.33-.12.27l-.63.63.15-.08-.89.24c-.15-.04-.16-.04 0 0l.33.09a17 17 0 0 1 1.74.61c.64.27 1.26.6 1.88.92.71.37 1.43.74 2.1 1.18.27.18.37.24.58.48.33.37-.05-.11.18.26l.08.15c-.06-.13-.07-.14-.03-.02.06.3-.09-.39.02.12v.17q.03-.24 0-.06c-.14.16.07-.1.11-.13-.25.23-.06.04.02.02-.34.12-.27.09-.64.12-.43.04-.86.08-1.29.16-1.6.3-2.98 1.38-3.83 2.73-.47.75-.16 1.8.59 2.23.8.47 1.74.15 2.23-.59.21-.32.48-.57.86-.79.31-.18.8-.32 1.06-.33 1.29-.08 2.62-.2 3.54-1.24.89-1.01 1.05-2.5.58-3.74-.51-1.32-1.61-2.2-2.8-2.89-1.12-.65-2.27-1.26-3.45-1.78-.67-.29-1.34-.58-2.04-.81s-1.53-.52-2.29-.31c-1.88.52-1.57 2.75-1.57 4.25s.09 2.94.36 4.38c.51 2.82 1.82 5.4 4.15 7.12.56.41 1.44.15 1.82-.36.41-.55.41-1.36-.11-1.86Z"/><path d="M61.04 67.34c4.14-1.85 8.31-3.31 12.75-4.23 4.38-.91 8.76-.82 13.2-1.13 2.38-.17 4.73-.22 7.09-.62 2.09-.35 4.1-.7 6.23-.56 4.12.27 7.97 1.69 11.33 4.05.87.61 2.19.16 2.69-.71.59-1.01.15-2.05-.71-2.69-3.53-2.64-8.07-4.23-12.49-4.17-4.78.06-9.33 1.93-14.14 1.43-9.37-.98-19.42.99-27.46 6.06-1.66 1.05-.22 3.35 1.51 2.58Z"/><path d="M60.99 66.57q.12.195-.06-.06c-.1-.13-.2-.25-.3-.37-.16-.17-.35-.29-.48-.48-.06-.08-.08-.27-.1-.07 0 .04.31-.34.35-.39.74-.9 1.11-1.99 1.13-3.15.06-2.45-1.38-4.7-1.71-7.1-.1-.7-.37-2.06.11-2.69s1.78-.79 2.5-1.01c1.21-.36 2.42-.76 3.64-1.09s1.75.13 2.68.84c1.62 1.24 3.81-1.57 2.2-2.85-1.29-1.02-2.64-1.96-4.37-1.83-1.68.13-3.36.79-4.97 1.25-1.41.4-2.92.76-4.05 1.75-1.2 1.05-1.65 2.67-1.59 4.22s.41 3.21.93 4.72c.43 1.25 1.36 2.71 1.2 4.09-.07.65-.53.95-.86 1.48-.41.68-.55 1.49-.37 2.27.16.71.57 1.35 1.12 1.83.25.21.53.43.81.58.2.11.42.18.64.23.41.07.5.08.27.02 1.45.68 2.69-1.33 1.28-2.19"/><path d="M81.1 52.34c-4.96.48-9.92.96-14.86 1.52l.96 3.54c2.76-1.73 4.15-4.51 5.55-7.33 1.4-2.83 3.19-5.39 6.01-6.96 2.79-1.55 6.31-1.76 9.12-.13 1.21.7 2.14 1.73 2.78 2.96.72 1.41.67 2.76.65 4.29-.03 1.99 2.67 2.16 3.3.45 1.22-3.34-.7-7.61-3.2-9.85-3.08-2.76-7.51-3.48-11.44-2.41s-6.91 3.68-9.05 6.9c-1.85 2.8-2.71 6.88-5.64 8.81-1.9 1.25-.61 3.76 1.46 3.47 4.93-.68 9.85-1.43 14.77-2.19 1.72-.26 1.34-3.24-.42-3.07Z"/><path d="M81.97 49.39c-1.18.79-1.57 2.15-1.27 3.51s1.44 2.27 2.7 2.76c.49.19 1 .3 1.52.37.64.09 1.29.18 1.93.19 1.49.02 3.88-.39 3.99-2.25.04-.66-.48-1.18-1.05-1.38-.51-.18-.98 0-1.44.2.39-.17.08-.04-.02-.01-.12.04-.24.06-.36.09-.1.03-.21.04-.31.07-.13.02-.07.02.17-.02-.05 0-.11.01-.16.02-.22.02-.43.03-.65.03q-.675 0-1.35-.06c-.1 0-.21-.02-.31-.03-.32-.03.36.06 0 0-.21-.04-.41-.07-.62-.12s-.39-.14-.59-.19c.36.09.14.06 0-.01-.09-.05-.18-.1-.26-.16-.29-.18.23.24 0 0-.04-.04-.13-.16-.18-.18q.24.315.09.12l-.05-.07c-.05-.07-.09-.14-.13-.22-.14-.26.02-.07.01.06 0-.07-.06-.17-.08-.24-.01-.05-.03-.11-.04-.16l.03.23c.02-.06 0-.18 0-.25-.02-.26-.11.35 0 .03.02-.05.09-.34.02-.09q-.075.18 0 .03c.06-.09.05-.09-.02.01-.18.19.08-.06.11-.09.52-.45.5-1.31.11-1.82-.4-.52-1.21-.74-1.78-.36Zm12-3.18c.15 0 .39.06.54.03-.25.06-.23-.04-.04 0 .09.02.18.03.26.05.18.04.35.08.53.13l.21.06c.05.01.47.17.21.07s.07.04.1.05c.07.03.13.07.19.1.16.09.32.18.47.28l.09.06c.12.09.12.08 0 0l-.08-.06.17.14c.15.13.29.27.43.42.06.07.12.14.18.2.25.27-.16-.25-.03-.04.09.14.19.28.27.42.09.16.15.35.26.49-.22-.31-.09-.21-.03-.06.05.12.09.24.12.37.05.16.09.32.12.49.02.08.01.2.05.27-.12-.28-.03-.32-.02-.14l.03.56c0 .17-.08.51-.03.67-.06-.2.06-.35.02-.14-.02.11-.04.22-.07.33-.07.35-.13.68-.08 1.03.19 1.4 1.93 2.01 2.94 1 .43-.43.6-1.04.68-1.63.07-.49.14-.98.11-1.47-.1-1.81-.87-3.63-2.22-4.85-.79-.71-1.69-1.24-2.7-1.57s-2.03-.34-3.08-.2c-.74.1-1.16.99-1.07 1.65.1.73.72 1.29 1.47 1.3Z"/><path d="M99.97 49.12c3.09-.29 5.98-.23 8.98.63 3.03.87 5.86 2.27 8.63 3.75.66.35 1.32.7 1.97 1.07.13.08.49.4.63.41.17.2.17.13 0-.2l.04-.09c-.17.12-.33.53-.47.72-.25.33-.52.64-.77.96-.45.59-.85 1.21-1.19 1.86-.65 1.24-1.17 2.59-1.42 3.97-.2 1.13-.01 2.54-.45 3.55-.58 1.34.12 2.54 1.56 2.72 2.26.28 2.67-2.25 2.76-3.88s.53-3.2 1.28-4.6c.79-1.47 2.23-2.69 2.6-4.36.45-2.04-.86-3.59-2.54-4.53-3.36-1.89-6.91-3.73-10.63-4.81-3.56-1.04-7.85-1.59-11.39-.15-.71.29-1.2.86-1.09 1.67.09.69.74 1.39 1.5 1.32Z"/><path d="M63.66 48.28c2.23-8.68 10.84-15.26 19.8-15.14 1.58.02 3.2.24 4.61.97 1.17.6 2.22 1.55 3.52 1.69.66.07 1.32-.07 1.97-.2 4.91-1.01 10.18-1.41 14.77.61s8.12 7.11 6.91 11.97a19.86 19.86 0 0 0-11.75-2.82c-.91.07-1.83.2-2.71-.02-1.52-.38-2.66-1.73-4.17-2.14-.72-.2-1.49-.17-2.18-.44-.87-.33-1.51-1.05-2.2-1.67-2.62-2.31-6.37-3.15-9.8-2.52s-6.53 2.64-8.8 5.29c-.75.87-1.43 1.83-2.36 2.5s-2.22 1-3.24.48"/><path d="M65.12 48.68c2.31-7.04 8.87-12.83 16.38-13.52 2.07-.19 4.26-.16 6.1.92.88.52 1.73 1.12 2.71 1.43 1.19.38 2.37.25 3.57.02 4.42-.85 9.32-1.43 13.56.52 3.52 1.62 6.62 5.49 5.75 9.55 1.03-.42 2.07-.84 3.1-1.26-3.27-1.87-6.92-2.98-10.7-3.1-1.62-.05-3.66.59-5.11-.25-.63-.37-1.21-.82-1.85-1.16-.91-.49-1.8-.66-2.8-.85-1.56-.29-2.64-1.89-3.97-2.71-1.46-.9-3.14-1.5-4.83-1.76-3.52-.55-7.06.2-10.13 2-1.65.96-3.17 2.21-4.44 3.63-.95 1.07-2.24 3.42-3.97 2.94-1.95-.55-3.19 2.29-1.39 3.3 1.67.93 3.59.76 5.16-.31 1.38-.94 2.29-2.33 3.43-3.52 2.22-2.3 5.22-4.02 8.47-4.13 1.51-.06 3.04.17 4.44.77 1.64.7 2.64 2.03 4.1 2.96.77.5 1.6.69 2.49.85.94.16 1.53.43 2.32.94 1.53.98 2.99 1.62 4.85 1.54 2.06-.08 4.02-.21 6.06.22 2.06.43 3.96 1.19 5.76 2.3 1.13.7 2.79.05 3.1-1.26 1.1-4.65-1.06-9.4-4.7-12.32-4.24-3.4-9.8-4.03-15.05-3.44-1.28.15-2.56.34-3.83.59-1.34.26-2.05.38-3.25-.34-2.38-1.41-4.72-2.08-7.5-2.03-4.44.08-8.85 1.62-12.41 4.26-4.12 3.06-7.26 7.35-8.31 12.42-.4 1.91 2.31 2.67 2.92.81Zm11.44 67c2.09 2.12 4.23 4.22 6.49 6.15 1.14.97 2.33 1.89 3.52 2.8 1.11.85 2.31 2.03 3.71 2.35 1.61.36 2.75-.7 3.82-1.72s2.07-2.05 3.08-3.1c2.16-2.25 4.49-4.52 6.19-7.15 1.15-1.77-1.33-3.41-2.79-2.15-1.91 1.65-3.53 3.66-5.27 5.49-.85.89-1.7 1.77-2.56 2.65-.74.75-1.59 2.02-2.55 2.44l.98-.26c-.48.03-1.07-.62-1.45-.89-.54-.39-1.09-.78-1.62-1.18-1.08-.8-2.12-1.63-3.19-2.44-2.14-1.64-4.21-3.35-6.21-5.15-1.46-1.31-3.56.75-2.17 2.17Z"/><path d="M75.24 111.18c-2.48 1.14-4.88 2.95-6.02 5.51-1.3 2.93-.46 5.99-1.03 9.02l1.43-1.43c-5.31 1.61-10.6 2.75-16.11 3.49-5.58.75-11.19 1.43-16.69 2.63-5.23 1.14-10.66 2.7-14.83 6.21-4.05 3.41-6.31 8.75-8.61 13.4-2.77 5.6-5.4 11.67-5.67 18-.05 1.23 1.09 2.28 2.28 2.28 1.36 0 2.13-1.05 2.28-2.28.63-5.1 2.31-9.83 4.53-14.44 1.15-2.39 2.37-4.75 3.63-7.09 1.1-2.04 2.27-4.08 3.93-5.72 3.47-3.43 8.64-4.73 13.25-5.78 5.15-1.17 10.4-1.77 15.61-2.6 5.85-.93 11.98-1.85 17.48-4.16.92-.39 1.4-.97 1.5-1.97.25-2.5-.49-5.28.36-7.68.77-2.14 2.9-3.53 4.45-5.07 1.25-1.25-.33-2.99-1.79-2.32Zm26.89 2.31c1.57 1.54 3.73 2.92 4.51 5.07.87 2.4.12 5.19.37 7.68.1 1 .58 1.6 1.5 1.97 9.9 3.99 20.92 4.23 31.28 6.28 4.83.96 10.12 2.08 14.2 5s5.98 7.86 8.12 12.04c2.67 5.24 4.87 10.58 5.6 16.45.15 1.22.94 2.28 2.28 2.28 1.19 0 2.34-1.04 2.28-2.28-.25-5.59-2.37-10.98-4.75-15.98-1.21-2.55-2.52-5.05-3.86-7.53-1.22-2.28-2.57-4.52-4.32-6.44-3.7-4.03-9.14-5.87-14.31-7.15-5.48-1.36-11.1-2.08-16.69-2.83-6.38-.86-12.58-1.9-18.75-3.8l1.43 1.43c-.57-3.03.28-6.1-1.03-9.02-1.15-2.56-3.59-4.37-6.08-5.51-1.44-.65-3.07 1.06-1.79 2.32ZM87.44 74.36c-.21 2.67-.21 5.36-.25 8.04-.02 1.34-.04 2.68-.05 4.02 0 1.32-.12 2.85.33 4.11.51 1.43 2.35 1.4 2.88 0 .47-1.25.38-2.79.39-4.11s0-2.68.01-4.02c0-2.68.05-5.36-.12-8.04-.13-2.07-3.04-2.05-3.2 0Z"/><path d="M81.77 95.31c2.21 2.17 5.6 2.77 8.57 2.28 1.32-.22 2.63-.71 3.79-1.38 1.24-.72 2.91-1.84 3.3-3.3.18-.67-.07-1.41-.62-1.83-.61-.46-1.26-.43-1.93-.14-.58.25-.98.78-1.45 1.19-.32.28-.61.49-1.1.78q-.345.21-.72.39c-.12.06-.24.12-.37.17.18-.07-.07.02-.12.04-.55.18-1.1.34-1.67.44-.33.06.23-.02-.12.02-.14.02-.29.03-.43.03-.29.02-.57.03-.86.03-.61 0-.92-.04-1.44-.15-1.18-.25-2.23-.66-3.33-1.12-.61-.25-1.41.17-1.72.7-.34.58-.24 1.37.24 1.85Zm.92-14.65v-.03s-.01 0-.02-.01c-.14-.34-.15-.43-.41-.7q-.21-.225-.51-.33c-.19-.1-.39-.14-.61-.14s-.42.04-.61.14c-.2.06-.36.17-.51.33l-.25.32c-.14.25-.21.51-.22.8l.06.42c.07.27.21.5.41.7.27.26.36.27.7.41h.04c.28.08.55.08.83.01.26-.07.49-.21.69-.4.19-.19.33-.42.4-.69.07-.28.07-.55 0-.83Zm-4.51-6.17c.24-.24.51-.46.76-.69.15-.12.13-.11-.05.03l.21-.15c.14-.1.29-.19.43-.27s.3-.16.45-.24c.32-.17-.32.11.04-.02.34-.12.68-.23 1.03-.31.19-.04.38-.08.58-.1-.51.05.15 0 .24-.01.34-.02.69-.03 1.03-.03 1.02.01 1.98.21 2.93-.29.53-.27.85-.9.85-1.48 0-.64-.34-1.12-.85-1.48-.83-.58-2.1-.49-3.08-.47s-1.95.12-2.87.41c-1.74.54-3.25 1.59-4.3 3.09-.47.67-.18 1.66.42 2.13.64.5 1.58.45 2.16-.13Zm19.39 7.63c2.15 0 2.16-3.34 0-3.34s-2.16 3.34 0 3.34m5.49-14.07c-1.67-.86-3.44-1.67-5.31-2.01-.94-.17-1.88-.27-2.83-.18-1.02.1-2.26.26-3.14.84-.81.53-1.17 1.5-.79 2.41s1.33 1.35 2.28 1.12c.22-.05.43-.12.63-.24-.21.09-.21.09 0 .01.16-.05.32-.11.48-.15.19-.05.38-.1.57-.14.09-.02.69-.09.23-.05.75-.07 1.51-.1 2.26-.03.09 0 .17.02.26.03q-.27-.045.06 0l.53.09c.41.08.82.18 1.22.29.8.23 1.59.51 2.36.82.72.28 1.56-.25 1.83-.9s.05-1.58-.64-1.94Zm-34.23 59.84c3.76 4.07 7.59 8.05 11.51 11.97.91.91 2.36.64 3.02-.39 2.59-4.01 5.55-7.74 8.85-11.2l-3.01-.39c1.86 4.1 4.35 7.99 7.06 11.58.62.82 1.66 1.28 2.63.69 5.03-3.04 7.37-8.62 11.53-12.55 1.8-1.7-.91-4.41-2.72-2.72-3.89 3.64-6.11 9.13-10.76 11.95l2.63.69c-2.71-3.59-5.22-7.47-7.07-11.58-.51-1.13-2.23-1.2-3.01-.39-3.53 3.67-6.7 7.68-9.46 11.97l3.02-.39c-3.92-3.91-7.92-7.74-11.99-11.49-1.5-1.39-3.63.74-2.24 2.24ZM32.3 151.54c-.35 3.35-.65 6.69-.85 10.05-.19 3.17-.67 6.54.62 9.54.36.85 1.58 1.1 2.34.77.92-.4 1.23-1.26 1.09-2.21-.45-2.9-.25-5.74-.11-8.65.16-3.16.2-6.33.21-9.49 0-2.16-3.08-2.07-3.3 0Zm109.27-3.8c.05 3.54 0 7.07.04 10.61.03 1.73.05 3.47.09 5.2l.06 2.5c0 .42.02.83.03 1.25 0 .28.01.55.02.83-.02.28-.03.31-.02.07l1.8-1.37h-.17c-1.64.13-2.68 2.55-.92 3.4.98.47 2 .4 2.76-.43s.64-1.89.61-2.92c-.05-2.15-.1-4.3-.18-6.45-.17-4.24-.49-8.46-.76-12.69-.13-2.14-3.39-2.18-3.36 0m-49.52 2.57c-.49-.32-1.16-.34-1.71-.2-.1.02-.19.05-.29.09-.22.09-.45.18-.66.29-.29.15-.55.36-.79.57-.07.06-.13.12-.19.19-.15.18-.3.36-.42.56s-.2.42-.28.63c-.08.23-.1.48-.12.72-.03.3 0 .63.11.91.08.2.15.41.27.59s.25.36.41.5.33.28.52.39c.16.09.34.15.51.22.04.01.07.03.11.04.03 0 .06.01.09.02.19.03.39.07.59.08.22 0 .46-.03.67-.09.01 0 .03 0 .04-.01.15-.05.35-.14.49-.2.03-.01.05-.03.08-.04.37-.24.54-.44.8-.8.14-.22.21-.45.22-.7.06-.25.04-.5-.03-.75a1.4 1.4 0 0 0-.34-.64c-.13-.2-.31-.37-.53-.48-.44-.23-.96-.35-1.44-.19l-.45.19c-.28.17-.51.39-.67.67 0 .01-.02.03-.03.04l.29-.38s-.05.06-.08.08l.38-.29s-.07.05-.11.07l.45-.19s-.08.03-.13.03l.5-.07h-.2l.5.07a.7.7 0 0 1-.2-.06l.45.19q-.105-.045-.21-.12l.38.29c-.07-.06-.13-.12-.19-.19l.29.38c-.04-.05-.07-.11-.1-.16l.19.44c-.02-.06-.04-.12-.05-.19l.07.49v-.26l-.06.48c.02-.11.04-.21.08-.31l-.18.43c.06-.13.13-.26.22-.37l-.27.36c.11-.14.24-.27.39-.38l-.35.27c.17-.13.35-.24.55-.32l-.4.17.57-.24-.39.17.18-.06c.13-.05.29-.11.41-.18.13-.07.25-.19.37-.29l-.31.24.03-.02c.23-.14.41-.32.55-.55.14-.24.21-.49.21-.77 0-.56-.3-1.02-.75-1.32Zm0 12.1c-.49-.32-1.16-.34-1.71-.2-.1.02-.19.05-.29.09-.22.09-.45.18-.66.29-.29.15-.55.36-.79.57-.07.06-.13.12-.19.19-.15.18-.3.36-.42.56s-.2.42-.28.63c-.08.23-.1.48-.12.72-.03.3 0 .63.11.91.08.2.15.41.27.59s.25.36.41.5.33.28.52.39c.16.09.34.15.51.22.04.01.07.03.11.04.03 0 .06.01.09.02.19.03.39.07.59.08.22 0 .46-.03.67-.09.01 0 .03 0 .04-.01.15-.05.35-.14.49-.2.03-.01.05-.03.08-.04.37-.24.54-.44.8-.8.14-.22.21-.45.22-.7.06-.25.04-.5-.03-.75a1.4 1.4 0 0 0-.34-.64c-.13-.2-.31-.37-.53-.48-.44-.23-.96-.35-1.44-.19l-.45.19c-.28.17-.51.39-.67.67 0 .01-.02.03-.03.04l.29-.38s-.05.06-.08.08l.38-.29s-.07.05-.11.07l.45-.19s-.08.03-.13.03l.5-.07h-.2l.5.07a.7.7 0 0 1-.2-.06l.45.19q-.105-.045-.21-.12l.38.29c-.07-.06-.13-.12-.19-.19l.29.38c-.04-.05-.07-.11-.1-.16l.19.44c-.02-.06-.04-.12-.05-.19l.07.49v-.26l-.06.48c.02-.11.04-.21.08-.31l-.18.43c.06-.13.13-.26.22-.37l-.27.36c.11-.14.24-.27.39-.38l-.35.27c.17-.13.35-.24.55-.32l-.4.17.57-.24-.39.17.18-.06c.13-.05.29-.11.41-.18.13-.07.25-.19.37-.29l-.31.24.03-.02c.23-.14.41-.32.55-.55.14-.24.21-.49.21-.77 0-.56-.3-1.02-.75-1.32Zm25.56-134.14c1.22-2.54 2.73-4.97 4.32-7.29.74-1.09 1.52-2.15 2.34-3.17.97-1.2 2.87-2.7 2.42-4.38-.21-.79-.89-1.16-1.64-1.25-1.03-.12-1.72.71-2.3 1.42-.51.62-.99 1.26-1.48 1.9-.86 1.15-1.68 2.32-2.45 3.53-1.56 2.43-2.81 4.99-3.99 7.62-.36.79-.23 1.73.58 2.2.7.41 1.82.21 2.2-.58m11.48 9.28a47.4 47.4 0 0 1 6.78-5.54c1.23-.82 2.5-1.58 3.79-2.31 1.43-.81 3.15-1.38 4.17-2.72.9-1.18-.34-2.73-1.59-2.77-1.6-.06-3.3 1.19-4.63 1.98s-2.63 1.69-3.88 2.63a52 52 0 0 0-7.02 6.34c-1.47 1.59.83 3.92 2.39 2.39Zm6.89 18.06c2.45-1.2 5.05-2.03 7.69-2.69q1.995-.495 4.02-.81c2.025-.315 2.82-.23 4.19-.57.93-.23 1.54-1.22 1.4-2.14-.15-1.02-.92-1.6-1.92-1.69-1.52-.15-3.11.19-4.61.46s-2.87.59-4.27 1c-2.87.83-5.63 2.05-8.29 3.38-.86.43-1.1 1.64-.64 2.43.51.88 1.56 1.06 2.43.64Zm2.67 16.91a25 25 0 0 0 4.29 0c.24-.02.47-.04.7-.07.22-.03.44-.04.65-.11.23-.07.45-.19.66-.31.54-.29.81-.95.73-1.53s-.51-1.15-1.1-1.27c-.35-.07-.7-.15-1.06-.1-.22.03-.43.05-.65.07q-.705.06-1.41.09c-.94.03-1.89 0-2.83-.06-.86-.07-1.69.81-1.65 1.65.04.96.73 1.57 1.65 1.65ZM39.05 44.3c-1.35-5.7.43-11.94 4.3-16.3 2.01-2.27 4.7-4.28 7.73-4.86s5.91.78 6.63 3.88c.32 1.38.31 2.87.29 4.28-.02 1.05-.18 2-1.45 1.48s-2.11-2.2-2.62-3.36c-.57-1.28-.92-2.7-1.01-4.1-.41-6.1 3.44-11.41 9.37-12.89 6.26-1.57 12.75 2.4 14.58 8.51.62 2.05 3.3 1.87 3.98 0 .91-2.46 3.24-4.38 5.83-4.77 2.82-.43 5.59 1.04 7.54 2.98 1.38 1.37 3.61-.37 2.67-2.06-2.15-3.89-6.76-5.61-11.04-4.93-4.18.66-7.55 3.79-8.99 7.69h3.98C78.5 12.04 70.68 6.93 62.6 8.14c-8.23 1.24-14.33 8.68-13.89 17 .21 3.94 1.83 8.87 5.4 11.05 1.76 1.07 4.11 1.24 5.87.06 1.87-1.25 2.17-3.43 2.15-5.51-.04-4.33-.97-8.82-5.32-10.77-4.11-1.84-8.71-.62-12.24 1.92-7.25 5.21-10.48 14.57-8.4 23.2.45 1.87 3.32 1.08 2.88-.79m7.02 102c5.47 3.26 11 6.43 16.59 9.5 2.76 1.51 5.54 2.98 8.33 4.43 2.82 1.46 5.65 3.07 8.62 4.21 1.64.63 2.57-1.89 1.16-2.76-2.66-1.64-5.59-2.91-8.38-4.34-2.8-1.44-5.58-2.91-8.36-4.38-5.56-2.95-11.07-5.99-16.53-9.14-1.6-.92-3.02 1.53-1.44 2.47Zm-1.65 14.13c2.3 1.95 4.86 3.58 7.54 4.95 1.35.69 2.74 1.3 4.16 1.84s3.11 1.4 4.61 1.12c1.06-.19 1.41-1.73.64-2.42-.61-.55-1.33-.72-2.09-.95-.7-.22-1.39-.46-2.08-.71-1.29-.48-2.55-1.03-3.78-1.63-2.56-1.25-4.95-2.78-7.27-4.44-1.3-.93-2.96 1.19-1.72 2.23Zm22.11-14.93c.56.27 1.11.54 1.67.82.17.11.35.17.55.18.2.04.39.04.59-.03.19-.05.36-.13.5-.26.16-.1.29-.24.38-.41.18-.34.27-.76.15-1.14-.11-.35-.34-.71-.68-.88l-1.65-.84c-.17-.11-.36-.17-.55-.18-.2-.04-.4-.04-.6.03q-.285.075-.51.27a1.1 1.1 0 0 0-.38.42c-.18.35-.27.77-.15 1.15.11.35.34.72.69.89Z"/><path d="M69.17 128.45c2.24 4.38 5.49 8.23 9.44 11.16 1.11.83 2.29 1.59 3.55 2.17 1.33.62 2.74 1.03 4.17 1.37 1.53.36 3.09.63 4.66.62 4.24-.01 8.32-2.07 11.33-5.06s5.03-6.85 6.42-10.86c-1.77 2.88-4.07 5.4-6.35 7.9-1.2 1.32-2.42 2.65-3.9 3.64-.76.51-1.83.91-2.53.32-.19-.16-.32-.38-.45-.6-1.95-3.35-4-8.37-4.66-12.18-2.11 3.89-4.01 8.83-7.03 12.07-.25.27-.53.56-.89.65-.27.07-.56.02-.84-.06a4.05 4.05 0 0 1-2.2-1.61"/><path d="M68.05 129.1c3.05 6.59 8.63 12.85 15.69 15.15 3.67 1.2 7.65 1.73 11.43.69 3.5-.97 6.68-3.06 9.12-5.72 2.86-3.13 4.78-6.93 6.18-10.91.7-1.98-2.23-3.05-3.28-1.38-1.33 2.12-2.93 4.02-4.61 5.87-.84.93-1.69 1.86-2.56 2.76-.46.48-.94.95-1.44 1.39-.41.36-1.07.64-1.42 1.03-.16.17-.35-.03-.12.13.31.21-.08-.39-.11-.45-.27-.5-.54-1-.79-1.51-.5-1.01-.96-2.05-1.37-3.1-.85-2.16-1.55-4.38-1.95-6.67-.3-1.72-2.87-1.91-3.66-.48-1.16 2.12-2.18 4.31-3.31 6.44-.54 1.02-1.1 2.03-1.73 2.99-.52.81-1.24 2.2-2.12 2.65l.97-.26c-.61.07-1.1-.17-1.47-.67-.59-.79-1.56-1.17-2.48-.65-.78.44-1.23 1.69-.65 2.48 1.05 1.42 2.73 2.78 4.6 2.67 1.93-.12 3.34-2.22 4.34-3.66 2.15-3.1 3.55-6.64 5.31-9.96l-3.66-.48c.55 2.93 1.61 5.74 2.81 8.46 1.01 2.27 2.27 6.13 5.29 5.97 3-.16 5.42-3.44 7.25-5.48 2.17-2.41 4.27-4.89 6-7.65-1.09-.46-2.19-.92-3.28-1.38-2.57 7.34-8.29 15.11-16.96 14.6-8.65-.51-15.59-6.99-19.75-14.17-.85-1.47-2.93-.18-2.24 1.31Z"/></svg>