<?xml version="1.0" encoding="UTF-8"?><svg xmlns="http://www.w3.org/2000/svg" viewBox="0 0 180 180"><path d="M62.61 74.44c-3.02 14.11-6.45 28.13-9.43 42.25a901 901 0 0 0-4 19.94q-.9 4.8-1.71 9.63c-.81 4.83-1.04 6.6-.07 9.79.97 3.18 3.35 5.65 5.84 7.74s5.05 3.77 7.9 5.11c5.89 2.77 13.04 4.45 19.37 2.16 2.69-.98 5.19-2.54 6.99-4.8 2.13-2.67 3.04-5.92 3.86-9.18 1.8-7.14 3.4-14.34 4.92-21.55 3.44-16.39 6.54-32.85 9.78-49.29.48-2.43-3.23-3.48-3.74-1.03-2.83 13.83-5.7 27.66-8.51 41.5-1.4 6.9-2.85 13.79-4.44 20.65-.78 3.38-1.58 6.76-2.47 10.11-.74 2.8-1.7 5.47-3.93 7.43-4.55 3.99-11.23 3.35-16.56 1.57-2.71-.91-5.27-2.2-7.64-3.78s-4.93-3.56-6.46-5.99c-1.61-2.55-1.38-5.6-.94-8.46.47-3.01 1.01-6.01 1.56-9.01 1.15-6.33 2.4-12.65 3.68-18.96 3.03-15 6.03-30 9-45.01.39-1.96-2.59-2.81-3.01-.83Z"/><path d="M64.85 73.4c6.37 2.66 12.23 6.46 18.63 9.06s13.72 3.95 20.18 1.51c.27-.1.55-.22.75-.43.25-.27.34-.65.42-1.01.97-4.53 1.94-9.06 2.91-13.6.45-2.13.89-4.44-.03-6.41-.85-1.82-2.66-2.95-4.44-3.89a54 54 0 0 0-7.25-3.17c-2.26-.8-4.62-1.45-7.02-1.35s-4.85 1.05-6.3 2.96c-1.84 2.43-2.04 6.24-4.76 7.62-2.86 1.45-6.61-.89-9.43.63-1.47.79-2.27 2.44-2.6 4.07s-.29 3.32-.57 4.96"/><path d="M64.08 74.72c8.3 3.93 15.94 9.51 25.01 11.61 4.39 1.02 9.04 1.27 13.42.06.88-.24 1.87-.51 2.65-.99 1.04-.64 1.39-1.71 1.63-2.83.52-2.43 1.03-4.86 1.55-7.29.5-2.37 1.08-4.74 1.5-7.12.39-2.23.52-4.5-.48-6.6-1.81-3.79-6.8-5.63-10.41-7.13-4.03-1.68-8.57-3.24-12.94-1.92-2.04.62-3.84 1.79-5.11 3.52-.96 1.32-1.46 2.87-2.11 4.35s-1.4 2.74-3.22 2.73c-2.04-.01-3.99-.65-6.04-.34-2.36.35-4.13 1.93-5.06 4.09-1.05 2.42-.87 4.95-1.09 7.51-.2 2.21 3.39 2.68 3.87.52.42-1.89.38-3.93.99-5.77.4-1.21 1.14-2.06 2.45-2.17 1.63-.13 3.25.37 4.89.34s3.3-.51 4.61-1.62c2.29-1.94 2.44-5.07 4.19-7.34 2.19-2.83 6.39-2.28 9.38-1.42 1.97.56 3.91 1.29 5.79 2.13 1.65.73 3.4 1.49 4.86 2.56s2.03 2.46 1.91 4.3c-.14 1.99-.74 3.99-1.15 5.93l-1.41 6.55-.63 2.91c-.05.24-.27.69-.2.91.12.35-.09 0 .23-.1-.49.16-.96.34-1.46.48-3.69 1.06-7.62.86-11.34.01-8.93-2.04-16.58-7.49-25.1-10.67-1.6-.6-2.73 2.05-1.17 2.78Z"/><path d="M71.07 63.08c-.11-.47-.12-.61-.14-1.11 0-.21-.01-.43 0-.64 0-.07.08-.7.04-.46q.105-.63.33-1.23c0-.03.22-.51.1-.25.1-.22.21-.44.34-.65.11-.18.22-.36.35-.53q.105-.15 0 0l.24-.27c.17-.18.35-.35.55-.51-.23.18.21-.14.23-.15.21-.13.43-.26.65-.37 0 0 .52-.22.24-.12.44-.17.89-.28 1.35-.37q.195-.03-.03 0c.12-.02.25-.03.37-.04.25-.02.5-.03.74-.02.12 0 .24 0 .36.02.19.01.53-.07.02 0 .51-.06 1.27.26 1.75.43.05.02.55.21.3.1s.23.11.27.13c.16.08.31.17.46.26.18.12.24.28.03 0 .08.1.3.2.33.33-.17-.23-.2-.26-.09-.1l.06.09c.17.34.4.64.67.91.55.56 1.67.65 2.21 0 1.41-1.7.07-3.59-1.51-4.53-1.25-.74-2.71-1.12-4.14-1.29-3.73-.45-7.47 1.6-8.94 5.06-.89 2.1-.8 4.39.1 6.46.3.68 1.27.89 1.89.62.7-.31 1.05-1.03.88-1.79Z"/><path d="M75.21 62.29c.2 0 .39-.03.57-.13.18-.06.34-.16.47-.3.14-.13.24-.29.3-.47.09-.18.13-.36.13-.57l-.05-.39c-.07-.25-.2-.46-.38-.65l-.3-.23c-.23-.13-.48-.2-.74-.2-.2 0-.39.03-.57.13-.18.06-.34.16-.47.3-.14.13-.24.29-.3.47-.09.18-.13.36-.13.57l.05.39c.07.25.2.46.38.65l.3.23c.23.13.48.2.74.2M89.3 85.42c.02 2.93-.73 5.72-1.38 8.54-.65 2.83-1.28 5.67-1.92 8.5-1.3 5.75-2.54 11.51-3.8 17.27-2.52 11.49-4.98 23-7.58 34.47-.7 3.08-1.35 6.18-2.09 9.25-.41 1.7-.97 4.11-2.89 4.66-2.37.67-1.38 4.22 1.01 3.68 4.97-1.13 5.53-7.61 6.38-11.67 1.26-6.02 2.53-12.04 3.83-18.06 2.63-12.18 5.3-24.34 7.89-36.53.71-3.33 1.4-6.67 2.1-10 .7-3.32 1.44-6.72 1.18-10.12-.14-1.72-2.73-1.77-2.72 0Z"/><path d="M52.01 135.79c5.34 4.73 10.86 9.3 17.2 12.65 3.27 1.73 6.48 3.1 10.25 2.73 1.92-.19 3.84-.54 5.75-.81 1.93-.27 4.14-.31 5.99-.93 1.78-.6 1.5-3.26-.45-3.31-1.8-.05-3.73.49-5.5.77s-3.69.64-5.55.82c-3.44.33-6.5-1.16-9.48-2.73-5.92-3.12-11.21-7.34-16.56-11.33-1.24-.92-2.81 1.12-1.66 2.15Z"/><path d="M53.23 124.83c1.88 3.04 4.93 5.08 7.79 7.12 3.22 2.3 6.42 4.63 9.66 6.91 2.89 2.03 5.91 3.69 9.52 3.84 1.86.07 3.74-.17 5.59-.32 2.09-.18 4.19-.33 6.28-.54s2.19-3.53 0-3.38c-3.65.26-7.3.83-10.96.9s-6.18-1.54-8.94-3.47c-2.98-2.09-5.95-4.2-8.93-6.3-2.8-1.97-5.58-3.89-8.03-6.3-1.01-.99-2.76.29-1.99 1.53Z"/><path d="M56 117.88c3.06 2.32 6.1 4.66 9.2 6.94 2.89 2.12 5.73 4.43 8.88 6.15 6.44 3.51 13.52 2.47 20.42 1.17 2.31-.44 1.34-4-.98-3.54-6.42 1.28-12.94 2.27-18.87-1.19-2.87-1.67-5.53-3.74-8.25-5.65-2.99-2.11-6.03-4.13-9.05-6.2-1.45-.99-2.7 1.3-1.36 2.32Zm43.94-69.94c-7.07-3.64-9.59-12.6-5.12-19.27 1.15-1.72 2.78-2.9 4.38-4.17 1.64-1.31 2.93-2.82 3.7-4.79 1.45-3.7.46-7.89-2.02-10.87-.26 1-.53 2.01-.79 3.01.69-.18 1.92.82 2.5 1.18.88.54 1.75 1.12 2.56 1.75 1.56 1.21 2.97 2.59 4.22 4.11 2.5 3.03 4.41 6.57 5.41 10.37 1.35 5.14.98 11.78-2.03 16.55-1.59 2.52-4.02 3.94-7.05 3.81-2.45-.11-2.4 3.59 0 3.78 7.87.62 12.2-6.55 13.36-13.42 1.42-8.37-.89-16.81-6.47-23.26-1.72-1.99-3.7-3.77-5.83-5.32-2.04-1.48-4.98-3.73-7.63-3.02-1.39.37-1.65 2.01-.79 3.01 2.4 2.81 1.66 7.18-.94 9.55-1.61 1.47-3.45 2.6-4.84 4.3-1.32 1.6-2.31 3.4-2.99 5.36-2.72 7.82 1.27 16.7 8.88 19.92 1.71.72 3.24-1.67 1.5-2.56Z"/><path d="M102.25 45.22c-.1 3.24-.38 6.47-.73 9.69-.16 1.52-.4 3.03-.68 4.54-.3 1.63-1.17 3.63-.38 5.18.39.77 1.62 1.13 2.34.61.93-.66 1.18-1.43 1.41-2.5.19-.86.36-1.73.51-2.6.29-1.68.5-3.37.65-5.07.31-3.43.09-6.83-.42-10.23-.23-1.59-2.67-1.13-2.72.37Zm-1.52-5.44c1.65 0 1.65-2.56 0-2.56s-1.65 2.56 0 2.56m3.29-5.92c1.63 0 1.63-2.53 0-2.53s-1.63 2.53 0 2.53m1.92 6c2.11 0 2.11-3.28 0-3.28s-2.11 3.28 0 3.28"/></svg>