<?xml version="1.0" encoding="UTF-8"?><svg xmlns="http://www.w3.org/2000/svg" viewBox="0 0 180 180"><path d="M8.68 107.95c2.77 3.86 6.44 6.29 11.09 7.33 4.56 1.02 9.38.86 13.95-.05 5.83-1.15 11.37-3.41 17.15-4.78 5.59-1.32 10.95-1.2 16.53.14 5.66 1.36 11.14 3.41 16.93 4.21 5.89.81 11.68-.06 17.42-1.46 5.67-1.38 11.32-3.24 17.18-3.57 6.04-.34 11.89 1.13 17.69 2.63 6.11 1.59 12.16 3.16 18.53 2.83 5.62-.29 11.92-1.66 16.05-5.75 1.32-1.31-.43-3.74-2.04-2.64-1.94 1.33-3.96 2.54-6.22 3.22s-4.75.98-7.22.95c-5.27-.07-10.49-1.33-15.56-2.64-5.78-1.49-11.58-3.13-17.58-3.42-5.75-.28-11.41.99-16.94 2.4-5.35 1.37-10.75 2.92-16.32 2.93-5.57.02-10.9-1.71-16.2-3.22-5.45-1.55-11.05-2.87-16.75-2.36s-11.2 2.43-16.67 4.21c-5.22 1.7-10.44 3.22-15.98 2.94-4.41-.23-9.64-1.75-12.41-5.45-1.15-1.54-3.78-.07-2.63 1.54Zm0 18.44c2.77 3.86 6.44 6.29 11.09 7.33 4.56 1.02 9.38.86 13.95-.05 5.83-1.15 11.37-3.41 17.15-4.78 5.59-1.32 10.95-1.2 16.53.14 5.66 1.36 11.14 3.41 16.93 4.21 5.89.81 11.68-.06 17.42-1.46 5.67-1.38 11.32-3.24 17.18-3.57s11.89 1.13 17.69 2.63c6.11 1.59 12.16 3.16 18.53 2.83 5.62-.29 11.92-1.66 16.05-5.75 1.32-1.31-.43-3.74-2.04-2.64-1.94 1.33-3.96 2.54-6.22 3.22-2.36.72-4.75.98-7.22.95-5.27-.07-10.49-1.33-15.56-2.64-5.78-1.49-11.58-3.13-17.58-3.42-5.75-.28-11.41.99-16.94 2.4-5.35 1.37-10.75 2.92-16.32 2.93-5.57.02-10.9-1.71-16.2-3.22-5.45-1.55-11.05-2.87-16.75-2.36-5.77.52-11.2 2.43-16.67 4.21s-10.44 3.22-15.98 2.94c-4.41-.23-9.64-1.75-12.41-5.45-1.15-1.54-3.78-.07-2.63 1.54Zm0 18.44c2.77 3.86 6.44 6.29 11.09 7.33 4.56 1.02 9.38.86 13.95-.05 5.83-1.15 11.37-3.41 17.15-4.78 5.59-1.32 10.95-1.2 16.53.14 5.66 1.36 11.14 3.41 16.93 4.21 5.89.81 11.68-.06 17.42-1.46 5.67-1.38 11.32-3.24 17.18-3.57 6.04-.34 11.89 1.13 17.69 2.63 6.11 1.59 12.16 3.16 18.53 2.83 5.62-.29 11.92-1.66 16.05-5.75 1.32-1.31-.43-3.74-2.04-2.64-1.94 1.33-3.96 2.54-6.22 3.22s-4.75.98-7.22.95c-5.27-.07-10.49-1.33-15.56-2.64-5.78-1.49-11.58-3.13-17.58-3.42-5.75-.28-11.41.99-16.94 2.4-5.35 1.37-10.75 2.92-16.32 2.93-5.57.02-10.9-1.71-16.2-3.22-5.45-1.55-11.05-2.87-16.75-2.36-5.77.52-11.2 2.43-16.67 4.21-5.22 1.7-10.44 3.22-15.98 2.94-4.41-.23-9.64-1.75-12.41-5.45-1.15-1.54-3.78-.07-2.63 1.54Z"/><path d="M120.61 105.19c-.77-17.11-1.55-34.23-2.32-51.34-.12-2.62-.24-5.26.16-7.86.95-6.15 4.97-11.75 10.49-14.62 5.53-2.87 12.42-2.93 17.99-.16 4.23 2.1 7.77 5.98 8.54 10.65.34 2.1.02 4.48-1.55 5.9s-4.59 1.16-5.35-.82c-.16-.42-.21-.87-.29-1.31-.7-3.98-3.81-7.43-7.69-8.54s-8.34.16-11.05 3.16c-3.77 4.18-3.73 10.44-3.51 16.07.64 16.29.98 32.59 1.03 48.9l-5.09-.27"/><path d="M122.13 105.19c-.33-16.13-1.1-32.24-1.82-48.35-.16-3.64-.62-7.47.09-11.08.56-2.86 1.79-5.57 3.59-7.86 3.94-5 10.3-7.53 16.62-6.67 5.77.79 11.84 4.7 12.97 10.77.31 1.66-.07 5.72-2.75 4.85-1.06-.34-.89-1.81-1.14-2.71-.42-1.51-1.15-2.94-2.1-4.19-3.79-4.99-10.55-6.4-16.08-3.47-5.83 3.1-7.31 9.86-7.41 15.94-.07 4.12.25 8.26.39 12.38a1344 1344 0 0 1 .73 40.42l1.83-1.83-5.09-.27c-2.35-.12-2.34 3.53 0 3.66l5.09.27c.99.05 1.83-.88 1.83-1.83-.05-16.7-.55-33.37-1.05-50.06-.18-5.87-.02-13.67 6.56-16.09 2.8-1.03 5.87-.72 8.33.98 1.17.81 2.14 1.9 2.84 3.13.84 1.48.82 3.13 1.5 4.63 1.19 2.61 4.64 3.19 7.04 1.99 2.94-1.47 3.66-5.14 3.23-8.1-.96-6.61-6.66-11.58-12.79-13.47-6.71-2.06-14.24-.73-19.77 3.59-5.32 4.15-8.27 10.45-8.48 17.14-.12 4.02.24 8.08.42 12.09.19 4.24.38 8.47.58 12.71.38 8.39.74 16.79 1.33 25.17.15 2.08.31 4.15.45 6.23.14 1.93 3.09 1.98 3.05 0Zm-64.7 0c-.77-17.11-1.55-34.23-2.32-51.34-.12-2.62-.24-5.26.16-7.86.95-6.15 4.97-11.75 10.49-14.62 5.53-2.87 12.42-2.93 17.99-.16 4.23 2.1 7.77 5.98 8.54 10.65.34 2.1.02 4.48-1.55 5.9s-4.59 1.16-5.35-.82c-.16-.42-.21-.87-.29-1.31-.7-3.98-3.81-7.43-7.69-8.54s-8.34.16-11.05 3.16c-3.77 4.18-3.73 10.44-3.51 16.07.64 16.29.98 32.59 1.03 48.9l-5.09-.27"/><path d="M58.95 105.19c-.33-16.13-1.1-32.24-1.82-48.35-.16-3.64-.62-7.47.09-11.08.56-2.86 1.79-5.57 3.59-7.86 3.94-5 10.3-7.53 16.62-6.67 5.77.79 11.84 4.7 12.97 10.77.31 1.66-.07 5.72-2.75 4.85-1.06-.34-.89-1.81-1.14-2.71-.42-1.51-1.15-2.94-2.1-4.19-3.79-4.99-10.55-6.4-16.08-3.47-5.83 3.1-7.31 9.86-7.41 15.94-.07 4.12.25 8.26.39 12.38a1344 1344 0 0 1 .73 40.42l1.83-1.83-5.09-.27c-2.35-.12-2.34 3.53 0 3.66l5.09.27c.99.05 1.83-.88 1.83-1.83-.05-16.7-.55-33.37-1.05-50.06-.18-5.87-.02-13.67 6.56-16.09 2.8-1.03 5.87-.72 8.33.98 1.17.81 2.14 1.9 2.84 3.13.84 1.48.82 3.13 1.5 4.63 1.19 2.61 4.64 3.19 7.04 1.99 2.94-1.47 3.66-5.14 3.23-8.1-.96-6.61-6.66-11.58-12.79-13.47-6.71-2.06-14.24-.73-19.77 3.59-5.32 4.15-8.27 10.45-8.48 17.14-.12 4.02.24 8.08.42 12.09l.58 12.71c.38 8.39.74 16.79 1.33 25.17.15 2.08.31 4.15.45 6.23.14 1.93 3.09 1.98 3.05 0Z"/><path d="M113.95 63.77c-15.02-.38-29.94-.16-44.96-.54-1.51-.04-3.18.18-4.56.59-1.38.42-2.51.57-2.16 1.55.49 1.34 3.04 1.71 5.1 1.8 16.48.73 33.03.7 49.51-.08.46-.02.96-.06 1.28-.28.3-.21.35-.52.36-.8.05-.96-.13-1.93-.53-2.86-1.27-.03-2.56.27-3.52.83"/><path d="M113.95 62.25c-8.48-.39-16.95-.5-25.44-.62-4.2-.06-8.4-.13-12.59-.22-3.99-.09-8.14-.63-12.03.46-1.44.4-3.21.84-3.63 2.51-.4 1.55.65 3.01 1.94 3.73 1.39.78 3.09.97 4.65 1.07 2.07.14 4.14.18 6.21.25 8.5.29 17 .38 25.51.27 4.7-.06 9.41-.19 14.11-.37 1.24-.05 2.47-.09 3.71-.15.96-.04 1.98-.07 2.82-.58 2-1.21 1.52-4.18.8-6-.34-.86-1.02-1.54-2.01-1.53-1.62.02-3.14.37-4.56 1.14-2.34 1.26-.27 4.75 2.07 3.55.79-.41 1.61-.51 2.49-.52l-2.01-1.53c.27.67.65 1.65.4 2.32l.53-.92q.645-.18-.03-.09c-.33.02-.66.03-.99.05l-1.98.09c-1.15.05-2.31.1-3.46.14-2.31.08-4.62.15-6.93.2-4.79.11-9.58.16-14.37.14s-9.58-.1-14.36-.24c-2.31-.07-4.62-.15-6.93-.25-.81-.04-1.63-.06-2.43-.22-.29-.06-.77-.3-1.06-.28-.08-.12-.17-.16-.27-.13.1.23.15.48.14.74l-.52.9c-.16.19.36-.13.52-.18.37-.11.73-.22 1.1-.32.92-.24 1.85-.37 2.8-.41 2.09-.07 4.19.04 6.28.06 4.36.04 8.73.03 13.09.02 8.81-.02 17.62-.09 26.43-.05 1.97 0 1.95-2.96 0-3.05Zm0 20.02c-15.02-.38-29.94-.16-44.96-.54-1.51-.04-3.18.18-4.56.59-1.38.42-2.51.57-2.16 1.55.49 1.34 3.04 1.71 5.1 1.8 16.48.73 33.03.7 49.51-.08.46-.02.96-.06 1.28-.28.3-.21.35-.52.36-.8.05-.96-.13-1.93-.53-2.86-1.27-.03-2.56.27-3.52.83"/><path d="M113.95 80.74c-8.48-.39-16.95-.5-25.44-.62-4.2-.06-8.4-.13-12.59-.22-3.99-.09-8.14-.63-12.03.46-1.44.4-3.21.84-3.63 2.51-.4 1.55.65 3.01 1.94 3.73 1.39.78 3.09.97 4.65 1.07 2.07.14 4.14.18 6.21.25 8.5.29 17 .38 25.51.27 4.7-.06 9.41-.19 14.11-.37 1.24-.05 2.47-.09 3.71-.15.96-.04 1.98-.07 2.82-.58 2-1.21 1.52-4.18.8-6-.34-.86-1.02-1.54-2.01-1.53-1.62.02-3.14.37-4.56 1.14-2.34 1.26-.27 4.75 2.07 3.55.79-.41 1.61-.51 2.49-.52l-2.01-1.53c.27.67.65 1.65.4 2.32l.53-.92q.645-.18-.03-.09c-.33.02-.66.03-.99.05l-1.98.09c-1.15.05-2.31.1-3.46.14-2.31.08-4.62.15-6.93.2-4.79.11-9.58.16-14.37.14s-9.58-.1-14.36-.24c-2.31-.07-4.62-.15-6.93-.25-.81-.04-1.63-.06-2.43-.22-.29-.06-.77-.3-1.06-.28-.08-.12-.17-.16-.27-.13.1.23.15.48.14.74l-.52.9c-.16.19.36-.13.52-.18.37-.11.73-.22 1.1-.32.92-.24 1.85-.37 2.8-.41 2.09-.07 4.19.04 6.28.06 4.36.04 8.73.03 13.09.02 8.81-.02 17.62-.09 26.43-.05 1.97 0 1.95-2.96 0-3.05Zm0 20.02c-15.02-.38-29.94-.16-44.96-.54-1.51-.04-3.18.18-4.56.59-1.38.42-2.51.57-2.16 1.55.49 1.34 3.04 1.71 5.1 1.8 16.48.73 33.03.7 49.51-.08.46-.02.96-.06 1.28-.28.3-.21.35-.52.36-.8.05-.96-.13-1.93-.53-2.86-1.27-.03-2.56.27-3.52.83"/><path d="M113.95 99.24c-8.48-.39-16.95-.5-25.44-.62-4.2-.06-8.4-.13-12.59-.22-3.99-.09-8.14-.63-12.03.46-1.44.4-3.21.84-3.63 2.51-.4 1.55.65 3.01 1.94 3.73 1.39.78 3.09.97 4.65 1.07 2.07.14 4.14.18 6.21.25 8.5.29 17 .38 25.51.27 4.7-.06 9.41-.19 14.11-.37 1.24-.05 2.47-.09 3.71-.15.96-.04 1.98-.07 2.82-.58 2-1.21 1.52-4.18.8-6-.34-.86-1.02-1.54-2.01-1.53-1.62.02-3.14.37-4.56 1.14-2.34 1.26-.27 4.75 2.07 3.55.79-.41 1.61-.51 2.49-.52l-2.01-1.53c.27.67.65 1.65.4 2.32l.53-.92q.645-.18-.03-.09c-.33.02-.66.03-.99.05l-1.98.09c-1.15.05-2.31.1-3.46.14-2.31.08-4.62.15-6.93.2-4.79.11-9.58.16-14.37.14s-9.58-.1-14.36-.24c-2.31-.07-4.62-.15-6.93-.25-.81-.04-1.63-.06-2.43-.22-.29-.06-.77-.3-1.06-.28-.08-.12-.17-.16-.27-.13.1.23.15.48.14.74l-.52.9c-.16.19.36-.13.52-.18.37-.11.73-.22 1.1-.32.92-.24 1.85-.37 2.8-.41 2.09-.07 4.19.04 6.28.06 4.36.04 8.73.03 13.09.02 8.81-.02 17.62-.09 26.43-.05 1.97 0 1.95-2.96 0-3.05Z"/></svg>