<?xml version="1.0" encoding="UTF-8"?><svg xmlns="http://www.w3.org/2000/svg" viewBox="0 0 180 180"><path d="M120.89 8.55c-16 10.06-32.81 18.82-49.5 27.67-4.56 2.41-9.12 4.82-13.66 7.25-1.42.76-1.31 2.47-.46 3.56 5.38 6.87 9.51 14.56 12.89 22.58 3.63 8.6 6.92 17.34 10.38 26.01 1.99 4.99 3.99 9.97 5.96 14.96.42 1.07 1.49 1.95 2.73 1.55 8.42-2.74 14.6-9.38 21.53-14.56 7.4-5.54 15.38-10.22 23.75-14.13 4.62-2.16 9.29-4.25 13.38-7.33 1.06-.8 1.34-1.84.81-3.08-7.1-16.44-14.56-32.75-20.39-49.7-1.58-4.59-3.05-9.21-4.51-13.84-.81-2.56-4.75-1.5-4.04 1.11 4.7 17.19 11.66 33.65 18.71 49.98 2.12 4.91 4.23 9.81 6.35 14.72l.81-3.08c-3.56 2.68-7.57 4.63-11.59 6.5-4.13 1.92-8.2 3.91-12.15 6.18-7.86 4.51-14.95 9.95-21.95 15.68-3.59 2.95-7.41 5.8-11.88 7.26.91.52 1.82 1.03 2.73 1.55-3.58-9.05-7.1-18.13-10.68-27.19-3.43-8.69-6.61-17.57-11.15-25.76-2.46-4.44-5.33-8.63-8.47-12.61l-.46 3.56c16.64-8.97 33.37-17.79 49.55-27.58 4.41-2.67 8.78-5.41 13.07-8.26 1.85-1.22.15-4.19-1.75-3Z"/><path d="M120.49 9.31c-5.47 12.25-9.31 25.19-13.5 37.91-4.38 13.3-8.97 26.52-13.24 39.86-2.45 7.65-5.07 15.28-7.24 23.01-.68 2.4 2.91 3.34 3.71 1.02 2.33-6.74 4.28-13.63 6.44-20.43 2.15-6.81 4.33-13.6 6.57-20.38 4.23-12.83 8.49-25.66 12.68-38.5 2.33-7.15 4.81-14.25 7.28-21.35.54-1.56-2.01-2.67-2.7-1.14"/><path d="M57.58 46.83c2.94.77 5.82 1.83 8.75 2.66 2.85.82 5.7 1.65 8.54 2.5 5.69 1.7 11.37 3.4 17.03 5.19 11.39 3.6 22.7 7.47 33.92 11.6 6.32 2.33 12.61 4.75 18.87 7.25.98.39 2.15-.43 2.41-1.37.31-1.11-.38-2.02-1.37-2.41-22.19-8.78-44.82-16.72-67.8-23.18-3.24-.91-6.49-1.8-9.74-2.67-3.26-.87-6.58-1.48-9.84-2.34-1.79-.47-2.55 2.3-.76 2.77Z"/><path d="M138.17 154.69c-3.15-5.9-4.63-12.93-2.62-19.46 1.53-4.99 5.31-9.77 10.38-11.48 2.03-.69 4.72-.93 6.6.3 2.24 1.46 1.75 4.46.35 6.35-1.74 2.35-4.72 3.9-7.39 4.92-3 1.14-6.16 1.75-9.37 1.74-5.96-.02-12.76-2.12-15.63-7.78-1.25-2.47-1.39-5.38-.18-7.89 1.32-2.73 3.64-4.83 5.99-6.66 2.73-2.12 5.65-4.08 7.89-6.75 2.09-2.49 3.74-5.39 4.64-8.53.89-3.11 1.21-6.65.01-9.72-1.24-3.19-3.81-5.4-6.73-7.05-3.65-2.07-7.53-2.95-11.65-3.48-3.23-.41-7.09-.71-9.57-3.1-2.23-2.14-1.96-5.5-1.99-8.34-.03-3.46-.41-6.67-2.63-9.45-.79-.99-2.48-.82-3.3 0-.98.98-.79 2.31 0 3.3 1.68 2.11 1.21 5.49 1.24 7.99.05 3.38.56 6.66 2.81 9.32 5.15 6.09 13.97 4.12 20.61 7.04 2.89 1.27 6.12 3.15 6.89 6.43.72 3.07-.36 6.65-1.75 9.39-3.33 6.53-10.42 9.44-14.69 15.18-2.07 2.78-3.19 6.17-2.76 9.64.43 3.42 2.12 6.63 4.62 9 5.21 4.91 13.05 6.37 19.96 5.49 3.67-.47 7.22-1.58 10.49-3.35 3.12-1.69 6.06-4.02 7.38-7.41 1.24-3.16.65-6.99-2.01-9.25-2.34-1.98-5.51-2.46-8.48-2.04-6.16.89-11.3 5.88-13.83 11.37-3.01 6.54-2.72 14-.2 20.66q1.005 2.64 2.4 5.1c1.395 2.46 3.37.18 2.5-1.46ZM64.92 49.25c3.29 3.3 5.91 7.27 7.63 11.61.5 1.26.92 2.54 1.35 3.82 2.11 6.4 4.22 12.79 6.33 19.19 1.13 3.43 2.27 6.87 3.11 10.39.4 1.69.75 3.44 1.64 4.94 1.14 1.94 3.13 3.38 3.8 5.53a95.6 95.6 0 0 1 6.05-22.09c.79-1.94 1.65-3.85 2.38-5.81 2.04-5.41 3.15-11.12 4.26-16.8a230.5 230.5 0 0 1-34.15-10.66"/><path d="M63.82 50.35c5.66 5.67 7.8 13.28 10.19 20.68 2.59 8.01 5.61 15.98 7.57 24.16.5 2.1 1.07 4.15 2.38 5.9 1.12 1.51 2.52 2.78 3.43 4.44.77 1.41 3.04.77 3.01-.82-.01-.94.32-1.88.53-2.79.23-.99.44-1.98.68-2.96.44-1.82.94-3.63 1.46-5.43 1.06-3.68 2.35-7.3 3.83-10.84 1.47-3.53 2.92-7.01 3.94-10.7 1.05-3.77 1.64-7.64 2.67-11.41.3-1.09-.37-2.31-1.47-2.6-5.78-1.49-11.55-3.01-17.24-4.81q-4.215-1.335-8.37-2.82c-2.83-1.02-5.62-2.27-8.54-3.03-2.27-.59-3.76 2.68-1.63 3.86 2.67 1.47 5.63 2.42 8.49 3.43q4.275 1.515 8.61 2.85c5.77 1.79 11.62 3.4 17.55 4.59l-1.55-2.04c-.91 7.69-3.52 14.96-6.41 22.08-1.41 3.47-2.58 7.04-3.55 10.66-.48 1.81-.88 3.65-1.22 5.49-.19 1-.37 1.99-.51 3s-.14 2.07-.45 3.03h3.12c-.31-1.76-1.42-3.16-2.54-4.49-1.22-1.46-1.85-2.94-2.3-4.78-1-4.11-2.2-8.13-3.54-12.14-1.38-4.13-2.76-8.26-4.15-12.38-1.34-3.99-2.52-8.09-4.27-11.92-1.81-3.98-4.48-7.32-7.52-10.43-1.41-1.44-3.63.78-2.21 2.21Zm58.09-33.84c-1.44 5.59-2.88 11.21-5.11 16.54-.71 1.7-1.51 3.38-2.22 5.08-.91 2.19-1.69 4.43-2.46 6.67-1.55 4.48-3.09 8.95-4.64 13.43 9.39 4.16 19.88 5.59 28.99 10.33 2.57 1.34 5.08 2.95 7.93 3.46-2.58-3.58-5.21-7.27-6.34-11.54-.34-1.29-.55-2.65-1.19-3.82-.54-.98-1.35-1.78-1.9-2.76-.53-.93-.79-1.99-1.19-2.98-.81-2.05-2.16-3.84-3.21-5.78-.95-1.75-1.64-3.62-2.33-5.49-1.06-2.86-2.12-5.72-3.19-8.58-1.14-3.08-2.3-6.21-2.59-9.48-.08-.89-.23-2-1.08-2.29"/><path d="M120.5 16.12c-.89 3.46-2 6.92-3.14 10.31s-2.68 6.76-4.14 10.1c-3 6.86-5.15 14.11-7.68 21.16-.27.76.17 1.94.93 2.29 6.15 2.78 12.67 4.4 19.07 6.45 3.1 1 6.17 2.1 9.1 3.55 3.01 1.49 5.86 3.41 9.21 4.07 1.63.32 3.56-1.48 2.39-3.11-2.16-3-4.45-6.09-5.68-9.62-.64-1.84-.85-3.81-1.74-5.56-.8-1.59-2.04-2.77-2.65-4.48-1.33-3.72-3.84-6.8-5.27-10.49-1.49-3.85-2.91-7.74-4.32-11.63-.8-2.19-1.58-4.45-1.92-6.77-.27-1.86-.28-3.99-2.22-4.95-2.42-1.19-4.55 2.44-2.12 3.63-.22-.11-.06-.4 0 .11.03.27.07.56.1.84.13 1.12.31 2.23.57 3.32.46 1.91 1.12 3.76 1.8 5.59 1.4 3.8 2.76 7.63 4.25 11.39.71 1.79 1.51 3.52 2.5 5.18s1.93 3.13 2.55 4.89 1.45 3.08 2.5 4.6c1.07 1.55 1.2 3.48 1.8 5.24 1.35 3.99 3.76 7.44 6.2 10.82l2.39-3.11c-3.14-.62-5.77-2.46-8.6-3.83-3-1.45-6.13-2.61-9.3-3.63-6.18-2-12.56-3.49-18.56-6.03l.93 2.29c1.18-3.56 2.41-7.11 3.62-10.67 1.2-3.52 2.33-7.08 3.8-10.5 1.42-3.3 2.76-6.58 3.8-10.02s1.76-7.12 2.68-10.68c.47-1.83-2.36-2.61-2.83-.78ZM87.18 95.81c-2.06 4.05-6.25 6.31-10.47 7.54-5.32 1.55-10.9 1.67-16.29 2.87-4.88 1.09-10.25 3.74-11.63 8.99-1.25 4.72 1.73 8.91 5.69 11.19 4.47 2.57 9.83 2.23 14.46 4.34 3.44 1.57 7.09 5.22 4.23 9.03-2.71 3.6-8.01 4.62-12.22 4.93-4.97.37-9.96-.06-14.94.27-9.77.64-20.6 5.1-24.23 14.91-.62 1.67 1.57 3.26 3.01 2.32 3.35-2.18 7.4-3.22 11.38-2.54-.29-1.11-.59-2.23-.88-3.34-4.01 3.3-6.27 8.44-5.98 13.62.12 2.14 2.6 2.61 3.79 1.03 4.09-5.41 11.09-7.51 17.48-8.63 7.29-1.28 14.82-1.29 21.92-3.58 6.69-2.15 13.24-6.7 16.45-13.12 3.19-6.37 2.04-13.63-2.42-19.08-2.21-2.7-5.2-4.77-8.34-6.25-1.57-.73-3.18-1.36-4.84-1.86-.84-.25-1.68-.47-2.53-.66-.36-.08-.73-.15-1.1-.24-.17-.04-.4-.15-.56-.15-.61.02.46-.74-.05.47l-1.32 1.32c11.34-1.87 23.38-5.72 32.23-13.3.71-.61.62-1.81 0-2.44-.72-.73-1.71-.57-2.44 0-3.59 2.8-7.73 4.85-11.88 6.68a74 74 0 0 1-13.39 4.41c-1.02.23-2.05.44-3.08.62-1.09.19-2.7.11-3.42 1.06-1.81 2.38.92 4.56 3.05 5.08 3.81.95 7.53 2.22 10.81 4.42 3.27 2.19 5.78 5.37 6.77 9.21 1.08 4.2-.28 8.43-2.95 11.75-2.87 3.56-6.81 6.26-11.1 7.79-4.74 1.69-9.76 2.29-14.73 2.85-10.23 1.16-21.39 2.85-28.07 11.58 1.26.34 2.53.69 3.79 1.03-.21-4.19 1.51-8.12 4.74-10.79 1.09-.91.56-3.12-.88-3.34-5.06-.78-10.16.09-14.52 2.86 1 .77 2.01 1.54 3.01 2.32 3.07-7.98 12.62-11.37 20.48-11.88 9.34-.6 20.45 1.53 28.34-4.83 3.74-3.01 5.2-8.15 2.39-12.31-1.29-1.92-3.18-3.46-5.26-4.45-2.41-1.14-5.05-1.41-7.64-1.88-3.83-.7-9.81-1.64-11.1-6.13-1.35-4.72 3.91-7.66 7.65-8.63 5.87-1.51 12.05-1.54 17.77-3.7 4.81-1.81 9.23-5.09 11.33-9.92.72-1.66-1.64-3.15-2.5-1.46Z"/></svg>