<?xml version="1.0" encoding="UTF-8"?><svg xmlns="http://www.w3.org/2000/svg" viewBox="0 0 180 180"><path d="M142.44 8.19c-25.51 3.47-51.07 6.62-76.59 9.99-6.42.85-12.85 1.7-19.27 2.54-3.13.41-6.26.83-9.39 1.24-3.09.41-6.29.64-9.35 1.27-5.75 1.18-5.4 7.55-4.2 11.96 1.65 6.07 3.1 12.19 4.32 18.35 1.19 6.04 2.16 12.12 2.97 18.22.41 3.12.77 6.25 1.08 9.38.25 2.54.02 5.7 1.24 8.01 1.47 2.79 4.52 2.84 7.28 2.69 3.17-.18 6.33-.38 9.49-.61 6.25-.44 12.48-1 18.71-1.63a726 726 0 0 0 83.95-13.51c1.51-.33 3.02-.67 4.52-1.02 1.42-.32 2.93-.54 4.28-1.08 3.41-1.34 2.59-5.06 2.28-7.96-.34-3.18-.77-6.34-1.27-9.5-1.95-12.36-4.68-24.58-7.62-36.73-.72-2.98-1.45-5.96-2.18-8.95-.67-2.74-4.91-1.58-4.23 1.17 2.86 11.6 5.71 23.22 7.88 34.98 1.08 5.82 1.83 11.71 2.44 17.59.15 1.44.29 2.89.41 4.34.02.26 0 .62.06.87v.39c.21-.26.42-.51.63-.77-.18-.13-2.1.52-2.31.56A730 730 0 0 1 77.7 83.74a791 791 0 0 1-35.72 3.28c-1.3.09-2.7.33-4.01.23-.85-.06-.96-.43-1.15-1.45-.23-1.2-.2-2.48-.28-3.7-.1-1.53-.22-3.05-.35-4.58-.52-5.91-1.25-11.8-2.22-17.65s-2.15-11.73-3.53-17.54c-.71-2.98-1.5-5.94-2.28-8.9-.38-1.43-.84-3.51-.34-4.7.3-.73.81-.78 1.7-.92 1.61-.26 3.23-.45 4.85-.67l8.89-1.23 18.27-2.55c24.35-3.4 48.69-6.85 73.02-10.34 2.96-.43 5.93-.82 8.89-1.22 1-.14 1.56-1.42 1.31-2.31-.3-1.08-1.29-1.45-2.31-1.31Z"/><path d="M45.34 41.1c8.76-1.28 17.64-2.29 26.32-4.1 2.7-.56 1.55-4.92-1.15-4.17-.22.06-.44.12-.66.19-2.26.71-1.73 3.82.54 4.01.23.02.46.04.69.04l-.57-4.24c-8.75 1.2-17.43 3.2-26.09 4.92-.93.18-1.44 1.28-1.21 2.13.26 1 1.21 1.35 2.13 1.21Z"/><path d="M56.08 38.23c-.51 1.27-.31 2.76-.28 4.11s.1 2.79.19 4.19c.18 2.87.4 5.74.72 8.6.61 5.46 1.34 11.12 2.85 16.41.79 2.77 4.77 1.59 4.26-1.18-.98-5.33-2.17-10.57-2.85-15.96-.34-2.7-.61-5.41-.84-8.12-.12-1.4-.25-2.79-.39-4.19s-.16-2.94-.87-4.22-2.34-.78-2.8.37Zm18.91 31.12c.95-5.88 1.55-11.83 2.47-17.71.92-5.87 1.78-11.86 3.25-17.62-.99.4-1.99.81-2.98 1.21 4.61 3.45 7.83 8.37 10.93 13.12 3.77 5.77 7.57 11.52 11.36 17.28 1.49 2.26 5.14.15 3.64-2.13-3.92-6-7.84-12.01-11.79-17.99-3.4-5.15-6.97-10.22-12.1-13.79-1-.7-2.78-.03-2.98 1.21-.96 5.98-2.25 11.9-3.13 17.9-.88 5.97-1.78 12.03-2 18.06-.07 1.87 3.02 2.36 3.33.45Z"/><path d="M80.34 56.23c3.93-.76 7.86-1.26 11.85-1.54.98-.07 1.92-.81 1.88-1.88-.04-.96-.83-1.95-1.88-1.88-4.31.31-8.55 1.02-12.73 2.13-.86.23-1.38 1.17-1.15 2.02.25.91 1.15 1.32 2.02 1.15Zm15.99-25.65c5.91 5.78 11.46 11.99 16.47 18.56 2.49 3.26 4.86 6.62 7.13 10.05 1.02 1.55 2.23 4.43 4.57 3.84 1.93-.49 2.58-3.38.64-4.34-1.85-.92-4.19 1.58-2.37 3.07l.13.11-.58-1.39v.17c.11-.34.2-.67.29-1.01l.09-.09.9-.52-.19.05h1.09l-.32-.1.9.53c-.57-.52-.94-1.35-1.37-2-.45-.69-.91-1.37-1.37-2.05-.97-1.42-1.96-2.82-2.98-4.21-2.05-2.78-4.19-5.5-6.41-8.15-4.41-5.28-9.19-10.21-14.27-14.85-1.57-1.43-3.88.84-2.34 2.34Z"/><path d="M115.13 26.83c-1.75 6.09-2.91 12.36-4.35 18.53-.7 3.01-1.43 6.02-2.18 9.02-.4 1.58-.79 3.16-1.2 4.74s-1.13 3.24-.76 4.85c.31 1.36 2.23 1.87 3.17.84 1.11-1.21 1.29-3 1.69-4.56.41-1.58.8-3.16 1.18-4.74.75-3.09 1.46-6.18 2.15-9.28 1.39-6.25 2.82-12.59 3.44-18.97.18-1.85-2.67-2.12-3.16-.43Zm10.68 8.45c2.88 7.72 4.41 15.97 6.35 23.97.63 2.58 4.62 1.49 3.98-1.1-2.04-8.2-3.96-16.35-7.29-24.15-.73-1.72-3.7-.49-3.04 1.28m-1.52-9.96-.04.26c-.1.38-.1.75 0 1.13q.15.54.54.93c.26.26.58.44.93.54.38.1.75.1 1.13 0l.26-.04c.39-.11.73-.31 1.01-.59.28-.29.48-.62.59-1.01a2.29 2.29 0 0 0-.59-2.23 2.35 2.35 0 0 0-1.01-.59 2.29 2.29 0 0 0-2.23.59c-.28.29-.48.62-.59 1.01"/><path d="m25.62 26.5-5.29 6.82c-.68.88-1.38 1.78-1.73 2.84-.46 1.38-.3 2.88-.08 4.32 1.5 10.17 5.1 19.92 7.06 30.02.85 4.37 1.39 8.8 1.61 13.25.23 4.53.61 9.94 4.55 12.19 2.13 1.21 4.74 1.1 7.18.92 33.84-2.38 67.27-8.62 100.91-13.04 3.89-.51 13.77-1.99 17.39-3.52s3.17-4.86 4.48-8.56c-9.93 3.12-22.4 6.48-32.66 8.25-7.04 1.22-14.07 2.43-21.14 3.44-23.84 3.4-47.31 6.33-71.38 7.33-.47.02-1.59-1.88-2.03-2.02-1.59-.49-1.95-2.53-2.06-4.19-.94-14.7-3.65-29.29-8.07-43.34-.94-2.99-1.95-6.23-.89-9.18"/><path d="M24.48 25.36c-1.22 1.47-2.44 2.95-3.64 4.44s-2.61 2.97-3.49 4.68c-1.68 3.26-.55 7.3.12 10.7 1.5 7.61 3.91 15.01 5.62 22.57.87 3.87 1.53 7.77 1.91 11.72.3 3.19.3 6.41.8 9.57.41 2.64 1.33 5.4 3.32 7.28 2.57 2.43 6.04 2.68 9.4 2.47 31.88-2.02 63.4-7.85 95-12.21 6.44-.89 12.92-1.62 19.28-3.03 2.51-.56 5.48-1.12 7.42-2.94 2.3-2.16 2.41-5.54 3.36-8.35.48-1.4-1.03-2.82-2.4-2.4-10.87 3.39-21.92 6.37-33.14 8.31-12.7 2.19-25.43 4.11-38.21 5.77-12.73 1.66-25.49 3.07-38.29 4-3.19.23-6.39.44-9.58.61-.43.02-4.93.26-4.94.24 0-.14.74.85.36.23-.1-.17-.28-.32-.41-.48-.28-.34-.54-.71-.87-1.01-.55-.52-1.15-.51-1.42-1.25-.47-1.26-.37-2.77-.48-4.09-.24-3-.54-6-.92-8.98-.88-7.01-2.14-13.97-3.8-20.83-.82-3.39-1.74-6.75-2.75-10.08-.94-3.1-2.44-6.49-1.38-9.74.78-2.39-2.98-3.41-3.75-1.03-1.01 3.11-.3 6.32.63 9.36.93 3.01 1.84 6.03 2.64 9.08 1.66 6.28 2.98 12.65 3.97 19.06.5 3.27.91 6.56 1.22 9.86q.21 2.25.36 4.5c.09 1.31.11 2.68.51 3.94.36 1.13 1 2.24 2.04 2.87.23.14.47.25.72.34-.61-.23-.31-.25-.06.07.3.4.63.83.99 1.19.95.95 1.85.94 3.14.89 1.73-.08 3.45-.16 5.18-.26 13.4-.75 26.75-2.07 40.07-3.69 13.31-1.62 26.62-3.41 39.84-5.66 13.36-2.27 26.43-5.38 39.36-9.44l-2.4-2.4c-.42 1.24-.69 2.51-.99 3.78-.24.99-.46 2.06-1.2 2.8-1.35 1.36-4.06 1.67-5.84 2.06-4.96 1.1-10.07 1.79-14.89 2.43-14.95 2.01-29.85 4.34-44.78 6.51-15.07 2.19-30.18 4.2-45.35 5.53-3.54.31-7.17.82-10.73.72-2.69-.08-4.76-1.22-5.78-3.77-.95-2.38-1.04-5.02-1.18-7.55-.2-3.66-.59-7.31-1.19-10.93-1.33-8.14-3.89-16-5.82-24-.48-2-.93-4-1.31-6.02-.33-1.79-.95-3.92-.52-5.73s2.04-3.32 3.1-4.74c1.24-1.66 2.46-3.34 3.67-5.01 1.06-1.47-1.36-3.36-2.53-1.95Z"/><path d="M91.69 88.42c2.09 9.38 1.17 10.28 2.53 19.8.05.36.11.74.36 1 .3.32.77.38 1.21.39 2.53.09 5.07-.71 7.11-2.2.36-.26.49-.74.35-1.15l-6.32-18.59"/><path d="M90.13 88.85c.9 4.49 1.16 8.96 1.51 13.51.09 1.17.21 2.33.35 3.5.18 1.5.1 3.55 1.22 4.72 1.02 1.06 2.65 1.04 4.01.92 1.68-.15 3.27-.59 4.79-1.31 1.9-.9 3.72-2.31 3.01-4.62-.25-.82-.57-1.63-.86-2.44a998 998 0 0 1-3.2-9.19c-.76-2.25-1.51-4.5-2.27-6.75s-4.3-1.27-3.54.98c2.05 6.02 4.09 12.05 6.08 18.09.02.07.08.41.15.45.02 0 0 .06.02.07.2.13.02-.92.23-.8-.06-.03-.7.43-.77.47-.86.48-1.76.83-2.72 1.05-.66.15-2.05.5-2.59.08l.69.69c-.39-.55-.35-1.86-.44-2.57-.12-.96-.22-1.93-.31-2.89-.15-1.47-.26-2.93-.39-4.4-.31-3.52-1.02-6.96-1.84-10.39-.49-2.04-3.53-1.17-3.12.86Z"/><path d="M76.41 166.36c.95-3.9 1.62-7.87 1.92-11.88.28-3.83.16-7.66.18-11.49.01-3.76.22-7.44 1.13-11.09s2.11-6.89 2.87-10.41c.38-1.77.61-3.57.72-5.38s.1-3.6.89-5.19c.49-.99 1.33-1.99 2.51-2.06 1.47-.09 2.82 1.2 3.64 2.28 1.94 2.55 2.82 5.93 2.75 9.09-.04 1.75-.66 3.4-.72 5.14-.06 1.77.66 3.27 1.91 4.5 1.14 1.13 2.45 1.97 3.31 3.36.72 1.17 1.19 2.49 1.38 3.85.39 2.83-.41 5.81-2.29 7.97-1.57 1.81.92 4.38 2.65 2.65 4.47-4.46 4.79-12.23 1.07-17.26-1.01-1.37-2.34-2.25-3.49-3.47-1.26-1.34-.23-3.46-.04-5.08.46-3.8-.35-7.74-2.16-11.1-1.62-3.01-4.64-6.13-8.36-5.8-3.87.35-6.08 3.99-6.6 7.51-.29 1.98-.25 3.99-.53 5.96-.29 2-.81 3.96-1.37 5.9-1.14 3.96-2.38 7.86-2.83 11.97-.51 4.75-.03 9.51-.02 14.27.01 5.01-.43 10.04-1.34 14.96-.34 1.83 2.38 2.64 2.83.78Z"/><path d="M108.89 170.43c.71-3.81 2.77-7.35 6.02-9.53 3.6-2.42 7.87-3.62 11.41-6.13 3.32-2.35 6.23-6.05 6.02-10.34-.19-4.04-3.06-7.35-7.08-7.86l1.05 3.87c3.52-2.53 6.55-6.09 5.75-10.72-.82-4.72-5.41-5.86-9.51-5.99.34 1.27.69 2.53 1.03 3.8 3.49-1.7 5.45-6.04 4.29-9.77-1.27-4.08-5.49-6.28-9.57-5.63.54 1.27 1.07 2.54 1.61 3.82 2.01-1.15 3.07-3.44 2.86-5.72-.24-2.59-1.92-4.69-4.15-5.93-4.69-2.62-10.94-2.2-15.46.57-2.37 1.45-.24 5.13 2.18 3.74 3.04-1.74 6.6-2.31 9.97-1.19 1.21.4 2.62 1.18 3.13 2.42.36.87.23 2.02-.63 2.51-2.18 1.26-.62 4.18 1.61 3.82 1.94-.31 4.1 1.13 4.55 3.03.48 1.99-.67 3.96-2.44 4.83-1.9.94-.87 3.74 1.03 3.8 2.14.06 5.15.13 5.55 2.81.39 2.68-1.91 4.84-3.88 6.25-1.76 1.26-1 3.6 1.05 3.87 1.24.16 2.23 1.39 2.64 2.48.54 1.42.23 3.03-.46 4.35-1.7 3.28-5.2 5-8.39 6.54-3.37 1.63-6.81 3.26-9.31 6.15-2.41 2.78-3.76 6.12-4 9.78-.12 1.78 2.81 2.21 3.15.43Z"/><path d="M109.8 103.7c-3.5.24-6.53 1.68-9.12 4.04-2.28 2.08-4.63 5.71-4.42 8.94.22 3.37 3.25 5.07 6.36 5 2.57-.06 5.09-.91 7.5-1.75 3.32-1.17 6.56-2.6 9.76-4.07 2.05-.95.59-4.49-1.55-3.68-3.78 1.44-7.58 3.02-11.07 5.1-3.19 1.9-7.09 4.78-6.7 8.98.49 5.24 6.29 5.4 10.33 4.85 4.13-.57 7.99-1.97 11.96-3.17 2.59-.78 1.46-4.88-1.12-4.05-5.8 1.87-14.56 5.33-15.34 12.37-.46 4.17 3.41 6.51 7.14 6.41 4.09-.11 8.33-1.14 12.29-2.06-.37-1.33-.73-2.66-1.1-3.99-5.08 1.23-11.35 2.2-14.8 6.57-1.62 2.04-2.28 5.06-.36 7.16 1.6 1.75 4.17 2.19 6.42 2.19 1.88 0 2.41-3.02.46-3.38-1.08-.2-2.95-.35-3.7-1.27-1.01-1.25.95-2.86 1.83-3.48 3.24-2.28 7.47-2.91 11.25-3.81 2.59-.61 1.49-4.58-1.1-3.99-3.02.69-6.08 1.27-9.16 1.66-1.94.25-5.97.58-4.7-2.56.92-2.26 3.17-3.71 5.22-4.83s4.43-2.18 6.75-2.96l-1.62-3.84c-1.95.87-17.29 5.8-16.57 1.28.21-1.32 1.52-2.37 2.51-3.13 1.21-.91 2.53-1.67 3.87-2.38 2.86-1.52 5.86-2.73 8.83-4.01-.68-1.16-1.35-2.32-2.03-3.47-2.72 1.4-5.6 2.57-8.48 3.61-2.25.81-4.77 1.8-7.2 1.63-.79-.05-1.66-.22-1.78-1.11-.19-1.32.89-3.01 1.56-4.05 1.88-2.88 5.02-4.88 8.24-5.97 1.44-.48 1.31-2.91-.38-2.79Z"/><path d="M95.15 110.51c1.36 3.08 1.77 6.58 1.15 9.89-.4 2.16-1.19 4.57.03 6.41.45.68 1.12 1.17 1.71 1.73 2.25 2.16 3.21 5.33 3.77 8.4.19 1.02.34 2.06.28 3.1-.13 2.31-1.32 4.47-2.98 6.08-.3.29-.63.59-.79.98-.13.32-.13.67-.13 1.01 0 2.38.13 4.77.4 7.14.05.42.11.86.35 1.2.52.74 1.6.75 2.5.62 2.89-.42 5.67-1.41 8.42-2.39.5-.18 1.03-.38 1.36-.8.58-.76.23-1.89-.34-2.66s-1.34-1.43-1.65-2.34c-.58-1.66.58-3.36 1.39-4.93.11-.2.21-.44.15-.66-.06-.21-.24-.35-.4-.48-1.23-.95-2.47-1.96-3.23-3.32-1.23-2.22-.86-5.22.87-7.07-1.84-.63-3.74-1.29-5.12-2.66-1.9-1.89-2.42-5.04-1.21-7.43.1-.2.21-.42.15-.63s-.28-.33-.47-.44q-1.305-.675-2.64-1.29"/><path d="M93.87 110.86c1.06 3.09 1.41 6.26.77 9.48-.58 2.91-1.22 5.86 1.03 8.26 1.02 1.09 2.05 1.9 2.79 3.23.69 1.25 1.1 2.62 1.41 4.01.68 2.97.82 5.71-1.18 8.21-.88 1.1-1.9 1.78-2.19 3.24-.33 1.63-.13 3.45-.01 5.1.1 1.53 0 3.64.86 4.99.8 1.27 2.34 1.68 3.76 1.58 3.24-.24 6.56-1.44 9.56-2.61 1.41-.55 2.56-1.49 2.69-3.12.12-1.53-.67-2.78-1.61-3.91-.41-.5-.85-.92-.79-1.61.07-.87.71-1.71 1.1-2.46.94-1.85.58-3.01-.97-4.26-1.11-.9-2.29-1.91-2.64-3.35-.33-1.35 0-2.82.93-3.87.98-1.12.56-2.72-.85-3.2-2.52-.87-5.3-1.99-5.53-5.03-.11-1.41.83-2.5.79-3.84-.06-1.96-2.6-2.75-4.05-3.46-.97-.48-2.17-.26-2.75.72-.5.86-.27 2.3.72 2.75s2.03.86 2.96 1.42l-.7-.7.19.26-.27-.99v.32c.08-.33.16-.66.25-.98-1.2 2.76-1.45 5.59.05 8.31s4.48 3.96 7.32 4.92l-.85-3.2c-1.75 2.01-2.5 4.61-1.96 7.24.25 1.22.84 2.33 1.6 3.3.41.52.87 1 1.37 1.44.37.32 1.23.79 1.48 1.2l-.26-.95c-.01.29-.52.89-.67 1.19-.25.51-.51 1.05-.68 1.59-.39 1.19-.43 2.46.04 3.63.41 1.01 1.18 1.67 1.78 2.54.17.25.25.84.47.44-.18.34-1.41.55-1.75.67-2.26.79-4.73 1.76-7.14 1.91-.62.04-.53.11-.52-.48 0-.62-.13-1.27-.17-1.9q-.15-2.025-.21-4.05c-.01-.37-.13-.89.01-1.2s.73-.73.96-.99c.73-.85 1.36-1.76 1.83-2.77 1.04-2.25 1.13-4.52.71-6.93-.38-2.22-.98-4.42-2.01-6.43-.47-.92-1.08-1.79-1.76-2.57-.74-.83-1.94-1.48-2.3-2.58-.35-1.05-.02-2.3.2-3.35.27-1.32.5-2.64.53-4 .06-2.86-.57-5.62-1.88-8.16-.68-1.32-2.92-.41-2.43 1.02Zm36.18-11.95c8.49-1.89 18.3 4.24 19.39 13.11.54 4.4-1.25 9.23-5.93 10.31-1.77.41-3.84.13-5.17-1.19-1.73-1.72-.52-3.85 1.54-4.55 2.32-.79 5.08-.13 7.36.55s4.53 1.77 6.5 3.19c3.6 2.6 6.25 6.62 6.59 11.11.32 4.21-1.11 9.08-4.91 11.4-1.62.99-4.21 1.5-5.41-.44-1.05-1.7.99-3.42 2.62-3.38 2.66.06 4.4 2.65 5.04 4.95.81 2.91.78 6.26.27 9.22-.99 5.76-4.37 10.39-10.13 11.99-1.9.53-1.58 3.61.48 3.51 7.14-.34 12.03-7.07 13.4-13.56 1.34-6.34 1.22-16.06-5.62-19.3-3.06-1.45-6.72-.96-8.92 1.75s-1.88 6.49.89 8.71 6.56 1.99 9.52.21c2.81-1.69 4.83-4.42 6-7.44 2.3-5.92 1-12.84-2.82-17.81-4.04-5.25-10.4-8.4-16.92-9.16-3.64-.43-7.56.51-9.65 3.76s-.76 7.11 2.23 9.24c5.31 3.79 13.05.88 15.8-4.65 2.98-6.01 1.33-13.3-2.94-18.24-3.83-4.44-9.9-7.11-15.76-6.9-1.44.05-2.88.28-4.27.66-1.91.53-1.1 3.38.81 2.95Zm-75.09 18.24c-3.47 0-6.92.03-10.38-.17-1.73-.1-3.46-.25-5.18-.44s-3.5-.56-5.29-.31c-1.62.23-1.96 2.94-.47 3.6 1.7.75 3.53.82 5.36.96s3.59.22 5.38.26c3.52.07 7.09 0 10.58-.45.92-.12 1.73-.71 1.73-1.73 0-.94-.79-1.73-1.73-1.73Zm-.44 18.01c-3.14.66-6.22 1.56-9.27 2.58-1.49.5-2.98 1.03-4.45 1.58-.74.28-1.47.56-2.2.85-.82.33-1.78.59-2.49 1.13-1.82 1.39-.79 4.11 1.56 3.7.83-.14 1.61-.61 2.38-.95.66-.29 1.32-.58 1.99-.86q2.19-.915 4.41-1.74c2.96-1.1 5.95-2.1 8.94-3.11 2.01-.68 1.21-3.62-.88-3.18Zm2.57 17.87c-1.12 1.31-2.29 2.56-3.56 3.72-.63.57-1.27 1.13-1.92 1.67-.33.27-.66.53-.99.8-.28.22.19-.15 0 0s-.37.27-.54.42-.34.29-.48.46c-.6.69-.72 1.64-.14 2.39s1.53.89 2.35.47 1.58-1.21 2.28-1.86c.64-.59 1.26-1.2 1.86-1.82 1.21-1.25 2.38-2.54 3.48-3.89.29-.35.49-.7.49-1.17 0-.41-.18-.89-.49-1.17-.62-.57-1.74-.7-2.34 0Z"/></svg>