<?xml version="1.0" encoding="UTF-8"?><svg xmlns="http://www.w3.org/2000/svg" viewBox="0 0 180 180"><path d="M109.04 23.75c-13.27-1.62-27-.55-39.87 3.08-12.96 3.66-25.23 9.84-35.6 18.48-10.09 8.4-18.04 19.29-22.34 31.73-2.29 6.62-3.65 13.78-3.45 20.8s2.04 14.33 5.28 20.79 7.79 12.03 13.24 16.56c5.7 4.74 12.18 8.1 19.16 10.53 12.73 4.42 26.47 6.02 39.88 4.75s26.07-5.11 37.69-11.48c11.63-6.38 21.81-15.24 29.63-25.96 4.01-5.5 7.3-11.48 9.9-17.77 3.12-7.54 5.27-15.58 5.31-23.79.04-8.82-2.35-18.17-7.33-25.53-4.41-6.52-11.04-11.3-18.07-14.68-3.36-1.61-6.81-2.88-10.39-3.9-2.45-.7-3.5 3.11-1.05 3.81 6.88 1.96 13.7 5.35 19.22 9.92 2.8 2.32 5.39 4.95 7.31 8.05 2.26 3.65 3.9 7.71 4.92 11.87 3.6 14.8-1.51 30.34-9.05 43.08-6.37 10.78-15.23 20.02-25.64 26.98-10.43 6.98-22.26 11.7-34.59 13.98-12.38 2.29-25.26 2-37.51-.88-13.13-3.09-25.62-8.97-33.96-19.93-4.04-5.31-6.93-11.44-8.38-17.96s-1.26-13.41.11-20.01c2.53-12.22 8.74-23.28 17.42-32.2 8.76-9.01 19.69-15.72 31.37-20.24 11.88-4.6 24.73-7.2 37.48-7.16 3.1.01 6.2.17 9.29.48.92.09 1.69-.85 1.7-1.7.01-1.01-.79-1.58-1.7-1.7Z"/><path d="M112.47 26.23c.42-1.58 1.72-2.95 2.44-4.4.66-1.31 1.18-2.69 1.91-3.95 1.58-2.74 4.36-3.12 7.3-3.01 2.61.1 6.73.3 7.81 3.25.54 1.48-.07 3.24-.69 4.6-.78 1.73-1.8 3.39-2.31 5.23-.29 1.04.36 2.18 1.4 2.47 1.14.31 2.07-.39 2.47-1.4 1.28-3.23 3.52-6.28 3.43-9.9s-2.67-6.31-5.98-7.49c-3.03-1.08-6.77-1.2-9.93-.73-3.27.49-5.79 2.42-7.26 5.36-.74 1.47-1.2 3.06-1.91 4.54-.4.82-.89 1.58-1.23 2.43-.43 1.06-.43 1.88-.28 3 .2 1.49 2.47 1.29 2.82 0ZM77.22 40.07c-10.59 2.47-20.32 7.54-28.66 14.48-8.09 6.73-15.53 15.65-18.95 25.74-3.24 9.56-2.5 20.26 1.75 29.38 4.4 9.45 12.65 16.17 22.44 19.48 9.65 3.27 20.2 3.47 30.24 2.31 11.04-1.28 21.67-4.51 31.35-10.01 9.74-5.54 18.62-13.3 24.36-23a60.6 60.6 0 0 0 6.49-15.67c1.32-5.12 2.14-10.64 1.52-15.92-1.14-9.72-7.01-17.84-15.36-22.78-10.05-5.95-22.6-7.89-34.13-7.46-2.92.11-5.8.41-8.68.88-2.02.33-1.57 3.83.49 3.61 11.28-1.23 22.74-.77 33.48 3.16 8.26 3.02 15.89 8.63 18.95 17.18 1.6 4.48 1.75 9.13 1.18 13.81-.64 5.19-2.11 10.37-4.25 15.14-4.35 9.69-11.42 17.67-20.08 23.76-8.63 6.07-18.51 10.21-28.86 12.22-9.21 1.79-19.06 2.3-28.32.64-9.23-1.65-18.17-5.79-23.81-13.53s-7.74-17.04-6.29-26.14c1.55-9.74 7.41-18.19 14.14-25.16 7.01-7.25 15.64-13.04 24.99-16.82 2.24-.9 4.53-1.66 6.86-2.3 1.94-.54 1.13-3.47-.83-3.01Z"/><path d="M75.06 77.32c7.15-4.17 14.21-8.44 21.53-12.31s14.78-7.46 22.38-10.73l-2.93-2.25c-3.15 11.59-8.15 22.47-13.15 33.35-1.19 2.59-2.24 4.98-4.65 6.68-2.44 1.73-5.01 3.29-7.55 4.87-5.04 3.13-10.17 6.1-15.38 8.92-6.04 3.26-12.2 6.31-18.45 9.14l2.97 2.28c3.71-14.26 10.51-27.31 16.02-40.9.71-1.76-2.16-2.92-3.04-1.28-3.87 7.18-7.23 14.63-10.35 22.16-2.56 6.18-4.86 12.46-6.53 18.94-.47 1.83 1.41 2.99 2.97 2.28a296 296 0 0 0 33-17.63c2.57-1.59 5.12-3.21 7.63-4.89 2.44-1.64 4.37-3.45 5.72-6.1 2.81-5.51 5.33-11.2 7.73-16.89 2.74-6.48 5.19-13.05 6.9-19.88.45-1.8-1.38-2.95-2.93-2.25-7.53 3.41-14.95 7.05-22.22 10.99-7.25 3.93-14.5 8.04-21.29 12.72-1.68 1.16-.19 3.82 1.62 2.77Z"/><path d="M73.93 76.77c8.82 3.97 17.64 7.94 26.47 11.91.14.06.29.13.44.08.16-.05.26-.21.34-.36 4.58-8.54 7.27-14.44 10.81-23.47.58-1.47 2.97-10.6 4.46-11.11-10.35 7.92-25.42 16.16-37.68 20.55"/><path d="M73.2 78.02c5.21 2.75 10.62 5.12 15.98 7.55 2.69 1.22 5.37 2.44 8.06 3.65 1.03.47 2.32 1.34 3.48 1.35 1.51 0 2.08-1.36 2.69-2.5 2.31-4.33 4.5-8.71 6.47-13.21 1.62-3.72 3.3-7.47 4.49-11.35.52-1.7 1.03-3.4 1.63-5.07.26-.71.52-1.43.84-2.11.14-.29.29-.57.46-.85.04-.07.13-.34.08-.13-.08.1-.07.1.03-.02q.375-.33-.48.24l-1.41-3.33c-11.3 8.36-24.05 15.47-37.29 20.23-2.37.85-1.34 4.66 1.05 3.8 13.71-4.95 26.98-12.17 38.45-21.16.71-.56.64-1.75.14-2.39-.59-.76-1.51-.85-2.35-.47-1.04.47-1.63 1.78-2.07 2.76-.65 1.45-1.17 2.95-1.66 4.45-1.02 3.12-2.03 6.15-3.28 9.19-1.8 4.37-3.75 8.68-5.86 12.91-.58 1.16-1.17 2.32-1.76 3.47-.28.54-.56 1.08-.85 1.62-.09.17-.45.69-.44.83 1.33-.23 1.67-.45 1.03-.67l-.67-.3c-2.55-1.14-5.09-2.27-7.64-3.41-5.96-2.66-11.9-5.42-18.01-7.72-1.54-.58-2.55 1.88-1.11 2.64"/><path d="M10.18 106.05c4.49 22.5 18.77 49.18 42.14 56.47 31.02 9.68 69.76 4.75 94.31-17.6 8.86-8.07 17.43-18.6 21.35-30.08 4.74-13.88-.22-41.33-3.26-55.68 4.24 19.29-2.79 39.51-9.87 51.39-2.38 4-4.97 7.88-7.97 11.44-7.86 9.33-18.41 16.16-29.73 20.71s-23.42 6.9-35.55 8.21c-7.51.81-10.08.67-17.44-1.07-5.67-1.34-16.08-3.37-21.32-5.92-4.42-2.15-8.83-4.31-13.25-6.46-1.45-.71-2.95-1.45-3.98-2.7-1.64-1.98-2.03-5.13-4.37-6.18"/><path d="M8.79 106.43c3.11 16.58 10.38 33.16 22.45 45.21 6.08 6.07 13.36 10.66 21.59 13.16 8.68 2.64 17.72 4.07 26.77 4.43 18.26.72 36.99-2.99 53.08-11.82 8.34-4.58 15.71-10.63 22.11-17.65 6.69-7.34 12.94-16.08 15.64-25.77 2.2-7.89 1.77-16.52 1.05-24.59-.77-8.67-2.35-17.15-4-25.68-.33-1.68-.67-3.36-1.02-5.03l-3.47.96c2.9 13.63.3 28.11-5.15 40.78-5.15 11.98-13.09 22.98-23.7 30.67-11.56 8.38-25.24 13.09-39.17 15.72q-5.49 1.035-11.04 1.68c-3.2.38-6.43.78-9.66.73-5.46-.07-10.89-1.76-16.18-2.98-3.25-.75-6.5-1.53-9.68-2.52-3.27-1.02-6.26-2.55-9.33-4.05-2.06-1.01-4.12-2.01-6.18-3.02-1.66-.81-3.62-1.51-5.05-2.72-1.13-.96-1.62-2.42-2.29-3.71-.75-1.45-1.75-2.77-3.23-3.52-2.47-1.25-4.66 2.47-2.18 3.72 1.09.55 1.53 1.66 2.04 2.71.65 1.34 1.34 2.68 2.44 3.72 1.31 1.23 2.93 2 4.52 2.78 1.84.9 3.68 1.8 5.52 2.69 3.21 1.57 6.39 3.31 9.73 4.58 2.77 1.06 5.65 1.82 8.53 2.54s5.77 1.35 8.66 2 6.04 1.43 9.12 1.82c2.88.36 5.75.27 8.63 0 3.9-.36 7.79-.86 11.66-1.47 14.75-2.32 29.38-6.77 41.95-15.02 11.71-7.69 20.7-18.59 26.71-31.21 6.04-12.67 9.45-27.21 7.73-41.26-.23-1.9-.54-3.78-.95-5.65-.49-2.26-3.95-1.3-3.47.96a254 254 0 0 1 3.81 23.09c.99 8.27 1.66 16.8.61 25.1-1.11 8.72-5.72 16.71-11.03 23.56-5.67 7.33-12.54 13.96-20.29 19.06-14.67 9.65-32.28 14.27-49.73 14.67-8.77.2-17.54-.66-26.09-2.59-4.02-.91-8.11-1.95-11.88-3.64a47 47 0 0 1-10.14-6.23c-12.9-10.42-20.58-25.78-25.27-41.4-.55-1.84-.99-3.71-1.4-5.59s-3.13-1.04-2.79.77Zm125.55-89.76c1.31 1.44 1.77 3.44 2.18 5.34.17.79.35 1.59.52 2.38.13.61.27 1.22.35 1.84.15 1.04.17 2.1.06 3.15-.01.1-.03.21-.11.28-.07.06-.18.06-.27.06-1.27-.05-2.54-.35-3.7-.87-.22-.1-.44-.21-.57-.4-.22-.31-.17-.73-.11-1.1.25-1.55.58-3.24 1.78-4.25"/><path d="M133.19 17.34c1.16 1.55 1.43 3.62 1.78 5.48.21 1.1.48 2.19.67 3.3.08.48.13.96.14 1.45v.85c0 .16-.01.32-.03.49q-.075.54.09-.12l1.04-.8c.23 0 .25 0 .07-.01q-.18 0-.36-.03c-.08 0-.17-.02-.25-.03-.43-.07-.86-.17-1.28-.3-.3-.09-.61-.19-.89-.33a2 2 0 0 1-.23-.13l.46.76c-.07-.07 0-.21.02-.3.11-.66.23-1.32.44-1.95.14-.43.48-1.06.78-1.4.54-.62.66-1.5.13-2.17-.48-.61-1.44-.9-2.14-.43-1.68 1.14-2.28 3-2.6 4.92-.21 1.25-.27 2.5.81 3.38.81.66 1.97.99 2.98 1.21s2.43.55 3.39-.01c1.15-.67 1.06-2.32 1.02-3.48-.07-2.1-.62-4.19-1.13-6.22s-1.23-4.16-2.84-5.73c-.47-.46-1.23-.52-1.74-.1-.47.37-.74 1.18-.34 1.71ZM71.04 52.4c.58 1.45 1.42 2.77 2.2 4.12.15.26.33.51.54.73.49.5 1.23.76 1.92.57.61-.17 1.08-.67 1.26-1.27.17-.57.01-1.18-.26-1.7-.17-.32-.4-.61-.6-.91l-.58-.88c-.52-.79-1.05-1.57-1.68-2.28-.47-.53-1.43-.65-2.03-.26q-.36.24-.6.6c-.21.32-.31.93-.17 1.29ZM42.3 107.76c.17.05.35.08.54.08.37 0 .56-.09.89-.24.12-.06.25-.11.37-.17.24-.11.47-.22.71-.34.48-.24.96-.46 1.45-.67l-.44.18c.28-.12.57-.22.84-.35.52-.24.95-.67 1.08-1.25.18-.78-.12-1.61-.82-2.03-.12-.07-.33-.17-.47-.2l-.49-.07-.49.07c-.15.05-.31.13-.45.19-.22.09-.43.2-.64.31-.31.16-.62.34-.93.51s-.6.34-.88.55c-.23.18-.46.35-.69.53-.13.1-.21.18-.32.32-.15.19-.14.19-.24.41s-.12.42-.14.66l.06-.42v.05c-.07.4-.08.82.15 1.17.22.34.52.59.91.7Zm92.78-40.35 1.39-.73c.23-.12.45-.25.67-.38.12-.07.23-.13.34-.21.3-.22.51-.37.7-.7.09-.15.15-.35.21-.52.08-.29.08-.59 0-.88-.05-.22-.15-.4-.3-.56-.12-.18-.27-.32-.46-.43-.26-.15-.54-.23-.84-.23-.8-.07-1.49.48-2.09.94l-1.24.94c-.19.1-.34.24-.45.41-.14.15-.24.34-.29.54-.11.38-.06.89.16 1.23s.55.64.96.74c.43.1.84.05 1.23-.16Zm-27.92 44.31c.21.22.41.44.63.65s.42.43.62.66.39.44.58.66c.1.11.19.23.3.34.14.14.3.28.47.38s.36.16.55.22c.96.3 1.95-.52 1.95-1.48 0-.19-.01-.4-.06-.58s-.14-.39-.24-.56c-.14-.25-.35-.47-.52-.69-.19-.25-.4-.47-.62-.69-.53-.52-1.1-1.01-1.74-1.39-.34-.2-.84-.28-1.22-.16l-.38.16c-.18.1-.33.24-.44.41-.21.27-.36.61-.34.96.02.43.17.8.46 1.12Z"/></svg>