<?xml version="1.0" encoding="UTF-8"?><svg xmlns="http://www.w3.org/2000/svg" viewBox="0 0 180 180"><path d="M55.96 44.03c-9.78 2.74-17.55 10.07-22.52 18.74-4.45 7.76-6.43 16.42-7.59 25.21-2.23 16.95-1.05 35.2 6.04 50.94 3.39 7.52 8.4 14.26 15.04 19.19 3.8 2.83 7.98 4.72 12.73 5.15 4.73.43 9.68-.73 13.76-3.17 4.4-2.63 7.7-6.73 9.38-11.56s1.44-10.53.57-15.72c-.87-5.18-2.43-10.2-3.57-15.31-1.35-6.05-1.53-12.22-1.05-18.39.49-6.24 1.52-12.51 2.8-18.63 1.2-5.69 2.95-11.26 3.64-17.05.64-5.38.05-11.28-3.24-15.78-3.01-4.12-7.54-6.66-12.58-7.3-2.4-.3-4.8-.09-7.09.68-2.46.83-1.48 4.51 1.08 3.9 4.12-.97 8.51-.02 11.88 2.54 3.65 2.78 5.27 7.23 5.35 11.7.09 5.26-1.4 10.4-2.66 15.45-1.4 5.64-2.42 11.37-3.2 17.12-.82 6.09-1.31 12.25-.81 18.39.44 5.35 1.74 10.47 3.05 15.65 2.21 8.68 4.76 19.46-1.92 26.91-5.58 6.21-15.26 7.77-22.48 3.52-6.43-3.79-11.36-9.58-14.87-16.11-7.49-13.93-9.01-30.79-7.82-46.33 1.25-16.26 5.94-34.37 20.74-43.6 1.95-1.22 4.03-2.23 6.19-3.02 1.95-.71 1.19-3.72-.87-3.15Z"/><path d="M33.68 104.98c-1.75 2.63 2.08 5.88 4.46 3.86.57-.49.93-1.16 1.08-1.89.16-.81-.08-1.55-.02-2.35.12-1.64 1.1-3.39 1.68-4.9 2.45-6.39 4.85-12.79 7.97-18.89 1.55-3.04 3.27-5.99 5.23-8.78a51 51 0 0 1 2.84-3.69c1.1-1.3 2.28-2.8 3.63-3.85.76-.59-.08-.21-.08-.21 0 .02.68.58.38.32.59.51 1.15 1.06 1.67 1.65 1.07 1.21 1.92 2.62 2.63 4.07 1.49 3.04 2.18 6.48 2.45 9.83.34 4.11.26 8.29-.02 12.4-.21 3.17-.68 6.51-3.02 8.87-1.96 1.98 1.01 4.93 3.05 3.05 5.14-4.74 5.05-12.47 5.08-18.91.02-7.27-.87-15.06-5.31-21.08-1.97-2.68-5.21-6.53-8.91-4.55-1.55.83-2.82 2.4-3.99 3.69s-2.3 2.7-3.37 4.12c-4.23 5.59-7.36 11.87-10.05 18.32-1.49 3.57-2.85 7.2-4.08 10.88-.62 1.86-1.45 3.79-1.78 5.72-.19 1.1.04 1.97.22 3.04 0 .04.02.37.06.41.32.4.45-.34.94-.24-.16-.04.1.4.13.33.7-1.72-1.94-2.61-2.87-1.21Z"/><path d="M37.65 103.9c-1.38.11-2.72 1.04-3.07 2.38s.55 2.94 1.91 3.13c1 .14 1.99-.44 2.64-1.22.69-.81 1.1-1.93.79-2.95s-1.54-1.74-2.49-1.28"/><path d="M37.65 102.4c-1.79-.15-3.69.86-4.49 2.49-.48.98-.6 1.96-.4 3.03.16.83.64 1.7 1.26 2.28.76.7 1.73 1.13 2.77 1.13 1.18 0 2.21-.52 3.1-1.24 1.51-1.23 2.46-3.52 1.8-5.42-.42-1.2-1.34-2.09-2.54-2.51-.59-.21-1.24-.21-1.85-.08s-1.16.56-1.41 1.15c-.16.38-.2.79-.09 1.19.08.3.26.53.45.77l-.27-.35c.28.41.66.74 1.15.85.41.1.78.02 1.19-.04l-.49.07q.21-.03.42 0l-.49-.07c.17.02.32.07.47.13l-.44-.19c.18.08.34.18.49.29l-.38-.29q.195.165.36.36l-.29-.38c.1.14.19.28.26.43l-.19-.45q.105.27.15.54l-.07-.5q.045.345 0 .69l.07-.5c-.04.29-.12.57-.23.85l.19-.45c-.14.33-.32.64-.54.92l.29-.38c-.22.28-.47.52-.75.74l.38-.29c-.24.17-.48.32-.75.44l.45-.19q-.315.12-.66.18l.5-.07q-.3.03-.6 0l.5.07c-.16-.03-.32-.07-.47-.13l.45.19c-.17-.07-.33-.17-.48-.28l.38.29c-.19-.15-.35-.31-.49-.5l.29.38c-.14-.19-.26-.4-.36-.61l.19.45a3.2 3.2 0 0 1-.19-.69l.07.49c-.03-.24-.03-.47 0-.71l-.07.49c.04-.23.1-.44.19-.65l-.18.44c.1-.21.21-.41.35-.6l-.29.37c.25-.32.56-.62.88-.87l-.35.27q.375-.285.81-.48l-.39.17c.23-.09.45-.18.68-.28.2-.09-.15.07-.17.07.01 0 .2-.06.22-.07.73-.2 1.18-.92 1.08-1.65-.1-.78-.72-1.24-1.48-1.31Zm27.89-3.44c-1.38.11-2.72 1.04-3.07 2.38s.55 2.94 1.91 3.13c1 .14 1.99-.44 2.64-1.22.69-.81 1.1-1.93.79-2.95s-1.54-1.74-2.49-1.28"/><path d="M65.54 97.45c-1.79-.15-3.69.86-4.49 2.49-.48.98-.6 1.96-.4 3.03.16.83.64 1.7 1.26 2.28.76.7 1.73 1.13 2.77 1.13 1.18 0 2.21-.52 3.1-1.24 1.51-1.23 2.46-3.52 1.8-5.42-.42-1.2-1.34-2.09-2.54-2.51-.59-.21-1.24-.21-1.85-.08s-1.16.56-1.41 1.15c-.16.38-.2.79-.09 1.19.08.3.26.53.45.77l-.27-.35c.28.41.66.74 1.15.85.41.1.78.02 1.19-.04l-.49.07q.21-.03.42 0l-.49-.07c.17.02.32.07.47.13l-.44-.19c.18.08.34.18.49.29l-.38-.29q.195.165.36.36l-.29-.38c.1.14.19.28.26.43l-.19-.45q.105.27.15.54l-.07-.5q.045.345 0 .69l.07-.5c-.04.29-.12.57-.23.85l.19-.45c-.14.33-.32.64-.54.92l.29-.38c-.22.28-.47.52-.75.74l.38-.29c-.24.17-.48.32-.75.44l.45-.19q-.315.12-.66.18l.5-.07q-.3.03-.6 0l.5.07c-.16-.03-.32-.07-.47-.13l.45.19c-.17-.07-.33-.17-.48-.28l.38.29c-.19-.15-.35-.31-.49-.5l.29.38c-.14-.19-.26-.4-.36-.61l.19.45a3.2 3.2 0 0 1-.19-.69l.07.49c-.03-.24-.03-.47 0-.71l-.07.49c.04-.23.1-.44.19-.65l-.18.44c.1-.21.21-.41.35-.6l-.29.37c.25-.32.56-.62.88-.87l-.35.27q.375-.285.81-.48l-.39.17c.23-.09.45-.18.68-.28.2-.09-.15.07-.17.07.01 0 .2-.06.22-.07.73-.2 1.18-.92 1.08-1.65-.1-.78-.72-1.24-1.48-1.31Zm-38.37 15.64c1.09 9.82 1.65 19.78 4.4 29.27s8.03 18.68 16.46 23.83 20.36 5.25 27.52-1.55c5.63-5.34 6.91-16.44 6.65-24.2-.92 6.75-4.68 15.74-10.61 19.09-5.93 3.36-13.44 3.77-19.71 1.09-3.12-1.34-5.88-3.36-8.61-5.37-1.55-1.14-3.14-2.31-4.23-3.9-.86-1.25-1.38-2.7-1.89-4.13-.9-2.55-1.81-5.09-2.71-7.64"/><path d="M25.77 113.09c.87 16.9 2.32 36.08 14.46 49.12 5.21 5.6 12.2 9.2 19.89 9.58 7.15.36 14.71-2.33 18.94-8.34 4.53-6.44 5.31-15.38 4.86-23.01-.13-2.25-3.19-2.17-3.44 0-.43 3.71-1.85 7.49-3.65 10.73s-4.37 6.16-7.97 7.72c-4.05 1.75-8.71 2.09-12.98 1.04-4.65-1.15-8.54-3.99-12.31-6.82-2.04-1.54-3.41-3.2-4.29-5.61-1.03-2.79-1.99-5.61-2.99-8.42-.82-2.31-4.52-1.31-3.69 1.02 1 2.81 1.96 5.62 2.99 8.42.9 2.44 2.06 4.57 4.04 6.31 2.05 1.8 4.37 3.4 6.65 4.9s4.51 2.66 7.01 3.46c4.82 1.54 10.29 1.39 15.06-.24 4.45-1.52 7.87-4.2 10.42-8.14 2.72-4.19 4.25-9.01 5.09-13.91l-3.37-.46c.02 6.24-.53 13.16-3.4 18.82-2.93 5.78-9.04 8.65-15.36 8.75-14.94.23-24.56-13.09-28.37-26.14-2.77-9.51-3.19-19.43-4.85-29.15-.26-1.55-2.83-1.19-2.75.37Z"/><path d="M42.39 127.74c3.58-.76 7.13-1.63 10.66-2.6 1.73-.48 3.45-1 5.16-1.54 1.7-.54 3.68-.98 5.18-1.96 1-.65.73-2.6-.67-2.46-1.81.18-3.59.97-5.32 1.52s-3.43 1.07-5.15 1.58c-3.51 1.04-7.04 1.96-10.6 2.79-1.75.41-1.01 3.05.74 2.68Zm4.94 9.78c3.49-.63 6.95-1.4 10.36-2.35 1.67-.47 3.34-.99 4.98-1.56 1.68-.58 3.47-1.13 5.03-1.99 1.42-.79.46-3.08-1.11-2.63-1.66.48-3.25 1.26-4.88 1.85-1.64.6-3.28 1.16-4.94 1.68-3.32 1.04-6.69 1.9-10.12 2.54-1.61.3-.93 2.75.68 2.46m14.95 7.46 1.97-.93c.66-.31 1.29-.65 1.93-1s.9-1.21.62-1.88c-.12-.29-.33-.57-.62-.72-.34-.18-.79-.3-1.16-.15-.79.31-1.57.62-2.35.98-.67.31-1.34.62-2.02.93-.35.16-.64.61-.74.96-.11.39-.06.9.16 1.24s.55.65.96.74c.44.1.83.03 1.24-.16Zm60.89-130.1c8.74 3.18 15.46 10.02 19.8 18.11 3.75 7.01 5.54 15.07 6.55 22.84 2.03 15.65 1.19 32.58-4.97 47.28-5.4 12.88-19.49 29.53-35 20.96-3.83-2.12-6.75-5.59-8.03-9.79-1.35-4.43-.97-9.17-.12-13.65.91-4.83 2.35-9.54 3.41-14.33 1.29-5.84 1.68-11.82 1.36-17.79-.33-6.15-1.3-12.26-2.4-18.32-.98-5.38-2.55-10.61-3.6-15.97-.9-4.59-1.4-9.76.69-14.11 1.88-3.91 5.44-6.63 9.68-7.55 2-.43 4.13-.37 6.11.1 2.55.6 3.54-3.07 1.08-3.9-4.74-1.59-10.22-.78-14.46 1.8-4.51 2.75-7.49 7.36-8.33 12.56-.91 5.64.21 11.29 1.53 16.77 1.42 5.9 2.71 11.77 3.67 17.77 1.01 6.36 1.65 12.81 1.26 19.25-.33 5.51-1.79 10.78-3.13 16.11-2.57 10.25-4.41 21.78 3.11 30.48 6.37 7.37 17.45 9.5 26.26 5.62 3.85-1.69 7.35-4.5 10.31-7.46s5.44-6.29 7.52-9.86c8.65-14.86 10.63-33.27 9.32-50.14-.64-8.24-1.89-16.83-5.02-24.53-3.74-9.23-9.99-17.72-18.85-22.58a32.8 32.8 0 0 0-6.87-2.8c-2.05-.57-2.82 2.44-.87 3.15Z"/><path d="M143.45 73.88c.04.09.26-.36.15-.33.42-.12.61.63.92.23.12-.15.14-.75.18-.96.11-.5.22-1 .21-1.51-.03-1.74-.85-3.5-1.38-5.13-1.1-3.35-2.28-6.67-3.58-9.95-2.58-6.51-5.53-12.89-9.51-18.67-1.97-2.86-4.16-5.58-6.61-8.05-1.42-1.43-3.11-2.83-5.27-2.39-1.67.34-3.04 1.68-4.17 2.89-5.1 5.43-6.76 12.94-7.03 20.18-.15 4.04-.15 8.2.44 12.2.53 3.64 1.84 7.23 4.59 9.77 2.04 1.88 5.01-1.07 3.05-3.05s-2.71-4.94-2.94-7.74c-.29-3.55-.36-7.15-.25-10.72.21-6.65 1.64-13.81 6.9-18.37-.29.25.39-.3.38-.32 0 0-.83-.38-.08.21.63.49 1.18 1.15 1.72 1.72 1.16 1.23 2.27 2.51 3.31 3.85 2.08 2.69 3.89 5.59 5.52 8.57 3.29 6.02 5.74 12.37 8.22 18.74.7 1.8 1.42 3.6 2.07 5.42.31.88.52 1.63.45 2.56s-.07 1.85.42 2.68c1.95 3.34 7.19.02 5.15-3.06-.92-1.39-3.58-.53-2.87 1.21Z"/><path d="M142.35 71.6c1.38.11 2.72 1.04 3.07 2.38s-.55 2.94-1.91 3.13c-1 .14-1.99-.44-2.64-1.22-.69-.81-1.1-1.93-.79-2.95s1.54-1.74 2.49-1.28"/><path d="M141.95 73.06c.06.02.12.04.19.06.17.04-.39-.17-.13-.06.22.1.45.19.68.28l-.39-.17q.435.195.81.48l-.35-.27c.32.25.63.55.88.87l-.29-.37c.14.19.25.38.35.6l-.18-.44c.09.21.15.43.19.65l-.07-.49c.03.24.03.47 0 .71l.07-.49c-.04.24-.1.47-.19.69l.19-.45c-.1.22-.21.42-.36.61l.29-.38c-.15.18-.31.35-.49.5l.38-.29c-.15.11-.31.2-.48.28l.45-.19c-.15.06-.31.1-.47.13l.5-.07q-.3.03-.6 0l.5.07c-.23-.03-.44-.09-.66-.18l.45.19c-.27-.11-.52-.26-.75-.44l.38.29c-.28-.22-.53-.46-.75-.74l.29.38c-.22-.29-.4-.59-.54-.92l.19.45c-.11-.28-.19-.56-.23-.85l.07.5q-.03-.345 0-.69l-.07.5q.045-.285.15-.54l-.19.45c.07-.16.16-.3.26-.43l-.29.38q.165-.195.36-.36l-.38.29c.15-.12.32-.22.49-.29l-.44.19c.16-.06.31-.1.47-.13l-.49.07q.21-.015.42 0l-.49-.07c.4.07.77.16 1.19.04.5-.14.86-.43 1.15-.85l-.27.35c.3-.38.52-.76.52-1.26 0-.85-.63-1.59-1.43-1.82-.57-.16-1.17-.15-1.74-.02-.99.22-1.83.91-2.39 1.74-.63.94-.69 2.15-.47 3.22.2.98.78 1.92 1.46 2.64 1.39 1.48 3.8 2.23 5.61 1.03 1.59-1.05 2.44-3.1 1.89-4.96-.61-2.08-2.67-3.55-4.84-3.36-.75.07-1.38.52-1.48 1.31-.1.73.35 1.45 1.08 1.65Zm-27.49-6.4c1.38.11 2.72 1.04 3.07 2.38s-.55 2.94-1.91 3.13c-1 .14-1.99-.44-2.64-1.22-.69-.81-1.1-1.93-.79-2.95.31-1.01 1.54-1.74 2.49-1.28"/><path d="M114.06 68.11c.06.02.12.04.19.06.17.04-.39-.17-.13-.06.22.1.45.19.68.28l-.39-.17q.435.195.81.48l-.35-.27c.32.25.63.55.88.87l-.29-.37c.14.19.25.38.35.6l-.18-.44c.09.21.15.43.19.65l-.07-.49c.03.24.03.47 0 .71l.07-.49c-.04.24-.1.47-.19.69l.19-.45c-.1.22-.21.42-.36.61l.29-.38c-.15.18-.31.35-.49.5l.38-.29c-.15.11-.31.2-.48.28l.45-.19c-.15.06-.31.1-.47.13l.5-.07q-.3.03-.6 0l.5.07c-.23-.03-.44-.09-.66-.18l.45.19c-.27-.11-.52-.26-.75-.44l.38.29c-.28-.22-.53-.46-.75-.74l.29.38c-.22-.29-.4-.59-.54-.92l.19.45c-.11-.28-.19-.56-.23-.85l.07.5q-.03-.345 0-.69l-.07.5q.045-.285.15-.54l-.19.45c.07-.16.16-.3.26-.43l-.29.38q.165-.195.36-.36l-.38.29c.15-.12.32-.22.49-.29l-.44.19c.16-.06.31-.1.47-.13l-.49.07q.21-.015.42 0l-.49-.07c.4.07.77.16 1.19.04.5-.14.86-.43 1.15-.85l-.27.35c.3-.38.52-.76.52-1.26 0-.85-.63-1.59-1.43-1.82-.57-.16-1.17-.15-1.74-.02-.99.22-1.83.91-2.39 1.74-.63.94-.69 2.15-.47 3.22.2.98.78 1.92 1.46 2.64 1.39 1.48 3.8 2.23 5.61 1.03 1.59-1.05 2.44-3.1 1.89-4.96-.61-2.08-2.67-3.55-4.84-3.36-.75.07-1.38.52-1.48 1.31-.1.73.35 1.45 1.08 1.65Zm38.77 12.68c-1.09 9.82-1.65 19.78-4.4 29.27s-8.03 18.68-16.46 23.83-20.36 5.25-27.52-1.55c-5.63-5.34-6.91-16.44-6.65-24.2.92 6.75 4.68 15.74 10.61 19.09s13.44 3.77 19.71 1.09c3.12-1.34 5.88-3.36 8.61-5.37 1.55-1.14 3.14-2.31 4.23-3.9.86-1.25 1.38-2.7 1.89-4.13.9-2.55 1.81-5.09 2.71-7.64"/><path d="M151.48 80.42c-2.65 15.59-2.48 33-13.36 45.68-4.44 5.18-10.44 8.94-17.35 9.52-6.1.51-13.11-1.34-16.7-6.67-1.99-2.97-2.96-6.44-3.64-9.91s-.94-7.25-.92-10.9c-1.12.15-2.25.3-3.37.46 1.44 8.44 5.21 17.66 13.55 21.28 4.72 2.05 10.01 2.57 15.04 1.52 5.28-1.1 9.75-4.34 13.96-7.54 2.49-1.89 4.27-3.94 5.43-6.87 1.19-3.02 2.2-6.13 3.28-9.2.83-2.33-2.87-3.33-3.69-1.02-.88 2.47-1.75 4.94-2.63 7.41-.78 2.2-1.63 4.06-3.42 5.63-1.76 1.54-3.75 2.89-5.69 4.18-1.96 1.3-4.02 2.48-6.28 3.2-4.26 1.36-8.82 1.37-13.08-.04-3.8-1.26-6.6-3.66-8.71-7.03-2.22-3.53-3.91-7.81-4.39-11.97-.25-2.16-3.3-2.25-3.44 0-.41 7.02.31 14.58 3.59 20.91 3.4 6.54 10.36 10.02 17.53 10.44 7.6.44 14.94-2.51 20.54-7.57 5.83-5.26 9.68-12.47 12.04-19.88 3.19-10.03 3.92-20.79 4.46-31.24.08-1.55-2.48-1.94-2.75-.37Z"/><path d="M138.35 92.76c-3.56-.83-7.1-1.75-10.6-2.79-1.72-.51-3.44-1.03-5.15-1.58-1.73-.55-3.5-1.34-5.32-1.52-1.39-.14-1.67 1.81-.67 2.46 1.5.97 3.49 1.41 5.18 1.96 1.71.55 3.43 1.07 5.16 1.54 3.52.98 7.08 1.84 10.66 2.6 1.74.37 2.49-2.28.74-2.68Zm-5.01 10c-3.42-.64-6.79-1.5-10.12-2.54-1.66-.52-3.31-1.09-4.94-1.68-1.62-.59-3.22-1.37-4.88-1.85-1.55-.45-2.55 1.83-1.11 2.63s3.23 1.36 4.85 1.93c1.7.59 3.42 1.13 5.15 1.62 3.41.96 6.88 1.72 10.36 2.35 1.6.29 2.29-2.15.68-2.46Zm-14 7.14c-.67-.31-1.34-.62-2.02-.93-.77-.36-1.55-.67-2.35-.98-.33-.13-.87-.04-1.16.15s-.49.41-.62.72c-.28.67-.04 1.52.62 1.88s1.27.69 1.93 1l1.97.93c.4.19.8.28 1.24.16.37-.1.78-.39.96-.74.2-.37.3-.83.16-1.24-.12-.38-.37-.79-.74-.96Z"/></svg>