<?xml version="1.0" encoding="UTF-8"?><svg xmlns="http://www.w3.org/2000/svg" viewBox="0 0 180 180"><path d="M82.77 115.05c-3.07 1.72-6.1 3.6-8.01 6.66-.97 1.55-1.54 3.31-2.46 4.89s-2.26 3.04-3.46 4.49c-2.57 3.12-5.22 6.18-7.92 9.19-2.69 3-5.75 5.76-8.24 8.92-2.12 2.69 1.05 5.88 3.75 3.75 3.07-2.44 5.68-5.63 8.3-8.54s5.21-5.99 7.68-9.11c1.23-1.56 2.43-3.1 3.43-4.82s1.58-3.37 2.2-5.14c1.17-3.33 3.66-5.39 6.42-7.43 1.67-1.24.23-3.93-1.67-2.86Z"/><path d="M65.81 119.85c-.33 1.37-.5 2.76-.68 4.16s-.43 2.83-.48 4.27 0 2.76-.04 4.15c-.02.69.06 1.53.1 2.1.04.59-.08 1.16-.1 1.74-.03 1.3 1.48 2.13 2.57 1.48 1.34-.8 1.9-2.62 2.07-4.09.18-1.55.08-3.22-.13-4.75-.39-2.79-1.18-5.49-.71-8.32.12-.72-.19-1.45-.94-1.66-.69-.19-1.49.23-1.66.94Zm17.56 7.8-1.79 1.08c-.2.11-.35.25-.47.43q-.225.24-.3.57c-.07.22-.08.45-.03.67.01.22.08.43.2.62.23.36.58.67 1 .77l.45.06c.3 0 .59-.08.85-.23l1.76-1.14c.36-.23.64-.57.76-.99q.105-.33.03-.66c0-.22-.08-.42-.2-.61-.23-.35-.56-.66-.99-.76s-.88-.07-1.27.17Zm-6.62 8.88c-.44 1.39-.99 2.75-1.38 4.15-.43 1.51-.79 3.04-1.09 4.58s-.58 2.97-.84 4.47-.78 3.73.02 5.18c.62 1.13 2 1.08 2.88.37.66-.52.89-1.44 1.15-2.21.23-.69.4-1.37.53-2.08.29-1.54.54-3.08.79-4.63.25-1.51.48-3.02.71-4.53.22-1.43.37-2.89.77-4.32.65-2.28-2.83-3.22-3.54-.98m-2.44-20.7v-.05s-.01-.02-.01-.03c-.01-.08-.03-.09-.08-.2-.06-.18-.16-.34-.3-.47v-.02s-.03-.02-.04-.03c-.13-.13-.27-.23-.45-.29a.96.96 0 0 0-.53-.12l-.37.05c-.23.07-.44.18-.61.36l-.03.03v.02h-.02c-.14.13-.24.29-.3.47-.05.11-.07.12-.08.2v.03s0 .04-.01.06q-.105.39 0 .78c.07.25.2.46.38.65l.3.23c.23.13.48.2.74.2.2 0 .39-.03.57-.13.18-.06.34-.16.47-.3a1.48 1.48 0 0 0 .38-1.43Zm2.35-4.38c1.56 0 1.56-2.42 0-2.42s-1.56 2.42 0 2.42m10.77 11.88c.83 2.69 2.18 5.09 4.01 7.22.78.91 1.23 1.42 1.12 2.65s-.14 2.46.07 3.75c.78 4.75 3.66 9.02 5.87 13.2.44.84.84 1.68 1.15 2.57.4 1.15.76 2.62 2.13 2.92 3.41.75 2.41-4.22 1.87-5.95-1.4-4.51-4.3-8.35-5.77-12.81-.37-1.13-.57-2.12-.57-3.24 0-1.8-.33-3.27-1.49-4.68-.93-1.13-2.14-2.01-3.09-3.13s-1.68-2.42-2.27-3.77c-.76-1.72-3.57-.5-3.03 1.28Z"/><path d="M99.18 126.2c.56 1.36.9 2.74.99 4.21.07 1.35.11 2.93-.43 4.2-.16.38-.63.98-.94 1.44-.48.7-.83 1.42-1.14 2.21s-.52 1.6-.62 2.45c-.02.14-.04.29-.05.43-.02.27-.02.29 0 .05.34-.41-.59.98-.18.32-.66 1.06.01 2.33 1.1 2.7 2.28.78 3.45-1.68 3.9-3.43.43-1.69 1.67-2.98 2.25-4.68.61-1.8.36-3.91.06-5.75-.31-1.89-.98-3.71-1.77-5.45-.79-1.75-3.88-.48-3.14 1.32Zm-12.99 16.42c2.03 0 2.03-3.16 0-3.16s-2.03 3.16 0 3.16m-1.33 6.51c1.85 0 1.85-2.88 0-2.88s-1.85 2.88 0 2.88m5.99-2.69c1.81 0 1.81-2.81 0-2.81s-1.81 2.81 0 2.81m2.36-29.24c0 .24.05.46.15.69.06.13.12.27.17.4l-.15-.36c.12.29.21.62.36.9.1.19.22.37.34.54.19.26.37.54.6.77l.45.48-.24-.31c.16.21.28.46.41.69.06.11.12.23.18.34.11.21.27.38.43.55.36.4.99.47 1.46.28s.83-.69.82-1.22c0-.23 0-.46-.08-.68-.04-.13-.1-.26-.15-.39-.14-.35-.28-.69-.44-1.03l.15.36c-.09-.24-.15-.5-.24-.74-.18-.49-.44-.93-.78-1.33-.24-.29-.52-.52-.83-.73-.29-.19-.61-.43-.96-.48q-.345-.09-.69 0a1 1 0 0 0-.44.23c-.31.24-.53.62-.51 1.02Zm9.63 1.22c2.93 2.55 5.83 5.69 7.44 9.27 1.67 3.7-.88 7.31-.92 11.07-.01 1.17.37 2.24 1.39 2.91.68.45 1.46.58 2.19.9 1.16.5 2.31 1.43 3.28 2.33 2.32 2.16 4.08 4.71 5.89 7.27.63.88 1.67 1.35 2.72.89.92-.4 1.65-1.54 1.26-2.57-1.14-3.01-3.22-5.69-5.43-7.98a22 22 0 0 0-3.71-3.11c-.61-.41-1.25-.75-1.93-1.04-.35-.15-.73-.33-1.11-.44q-.27-.075-.54-.12c-.39-.11-.41-.09-.08.08l.58 1c-.29-.79.22-2.06.43-2.85.28-1.09.61-2.17.81-3.28.43-2.42.16-4.66-.89-6.89-1.93-4.09-5.74-7.48-9.43-9.96-1.5-1.01-3.33 1.33-1.95 2.53Z"/><path d="M114.34 117.92c.2 1.11.83 2.1 1 3.21-.04-.23 0 0 0 .11v.39c0-.34 0 .01-.04.12-.02.07-.09.42-.03.13.06-.27-.02.03-.06.11-.05.09-.09.18-.14.27s-.1.18-.16.26c-.03.05-.07.1-.11.15-.09.12-.05.07.11-.15.1.12-1.69 1.79-1.85 1.95-.87.9-2.15 2.36-1.59 3.71.34.81 1.15 1.54 2.12 1.21.45-.16.85-.36 1.15-.75.14-.18.29-.36.42-.55.09-.12.05-.07-.11.14l.24-.3c.47-.61-.21.23.09-.11.09-.1.17-.2.26-.3.16-.18.33-.36.5-.53.76-.77 1.6-1.55 2.11-2.52.64-1.21.78-2.6.29-3.9-.23-.62-.53-1.22-.83-1.81s-.47-.92-.63-1.59c-.17-.74-1.02-1.18-1.74-.99-.79.22-1.12.99-.99 1.74Zm-57.7 15.11c-.47.81-.7 1.8-.59 2.73.08.63.2 1.15.48 1.73s.73.97 1.23 1.3l.38.16q.315.105.63.03c.33-.04.68-.18.91-.44.19-.2.32-.44.41-.7.11-.35.06-.92-.16-1.22-.13-.18-.23-.37-.34-.56s-.22-.39-.3-.59l.17.4c-.1-.26-.18-.52-.22-.79l.06.43q-.06-.435 0-.87l-.06.42c.04-.26.1-.5.21-.74l-.16.37s.03-.06.04-.09c.18-.39.27-.77.16-1.2-.1-.36-.38-.75-.71-.93-.74-.39-1.69-.19-2.13.56Zm52.83 13.43c.69.02 1.39.07 2.08.08.77.01 1.55-.13 2.31-.24.64-.1 1.28-.26 1.9-.44.31-.09.62-.18.93-.28.29-.09.61-.18.87-.33s.48-.36.7-.55c.56-.49.66-1.39.38-2.03-.29-.69-.95-1.12-1.7-1.14-.8-.02-1.5.27-2.26.49-.63.18-1.26.33-1.89.5s-1.26.3-1.88.48-1.23.34-1.87.44c-.76.12-1.2 1.01-1.11 1.7.1.77.74 1.32 1.52 1.34Zm-3.7-36.2c2.12 0 2.12-3.3 0-3.3s-2.12 3.3 0 3.3m20.47 30.69c2.61 1.45 5 3.17 7.49 4.81 1.22.81 2.41 1.67 3.58 2.55.52.39.88.68 1.47 1.15.83.67 1.65 1.53 2.81 1.42 1.05-.1 2.12-.86 2.05-2.05-.07-1.24-.71-1.88-1.61-2.61-.69-.56-1.39-1.1-2.09-1.63-1.24-.93-2.53-1.79-3.84-2.6-2.66-1.65-5.72-2.81-8.66-3.85-1.66-.58-2.7 1.98-1.19 2.81Zm-75.77-.64c-1.9.76-3.79 1.56-5.66 2.4-.88.4-1.75.81-2.61 1.26-.98.5-1.93.98-2.77 1.71-1.37 1.2.08 3.56 1.76 3.03 1.02-.32 1.92-.88 2.86-1.38.85-.46 1.69-.92 2.54-1.37 1.7-.91 3.42-1.76 5.17-2.56.76-.35.99-1.4.69-2.11s-1.21-1.29-1.99-.98Z"/><path d="M39.72 146.73c17.97 8.45 38.52 9 58.38 8.97 7.12-.01 14.13-.23 21.12-1.63a616 616 0 0 0 22.47-4.94c-5.47 8.63-14.49 14.65-24.21 17.8-17.49 5.66-37.06 3.35-54.14-2.63-.41-.14-.83-.29-1.24-.44-2.49-.91-4.95-1.93-7.36-3.04-5.82-2.7-11.62-6.24-14.8-11.82-.4-.7-.6-1.85.17-2.1"/><path d="M38.95 148.05c5.98 2.89 12.19 5.13 18.69 6.51s12.92 2.13 19.44 2.56 13.26.51 19.9.51c7.14 0 14.26-.22 21.31-1.46 8.03-1.41 16.01-3.2 23.96-5-.79-1.03-1.58-2.06-2.38-3.09-7.74 11.62-21.32 17.69-34.83 19.31-15.39 1.86-31.33-1.16-45.64-6.88-3.71-1.48-7.38-3.19-10.71-5.41-1.54-1.03-2.98-2.18-4.28-3.51-.6-.62-1.18-1.26-1.69-1.96-.31-.42-.61-.85-.87-1.3-.06-.1-.14-.28-.22-.36a.3.3 0 0 1-.06-.16c-.1-.46-.26-.21-.48.78 2.24-1.18.26-4.53-1.98-3.39-3.96 2.02.68 7.41 2.42 9.27 2.59 2.76 5.81 4.9 9.13 6.68 7.43 4 15.63 6.86 23.85 8.75 16.42 3.77 34.55 3.9 50.07-3.36 7.66-3.59 14.45-9.1 18.92-16.33.99-1.6-.64-3.53-2.38-3.09-6.88 1.73-13.8 3.31-20.74 4.78-6.88 1.46-13.82 1.83-20.84 1.88-12.77.09-25.71-.02-38.31-2.3-7.06-1.28-14.19-3.1-20.75-6.05-1.76-.79-3.32 1.77-1.54 2.63Zm14.26-16.47c2.12-3.48-.02-7.45-2.01-10.45-2.58-3.9-5.26-7.73-7.31-11.94-3.76-7.71-5.07-16.98-1.32-24.96 1.85-3.93 4.66-7.29 8.45-9.46l-2.97-2.28c-1.08 7.87 5.66 15.61 13.82 14.45 3.76-.54 7.1-2.94 9.08-6.15s2.29-7.27.96-10.88c-1.27-3.44-3.49-6.34-5.31-9.49-1.66-2.89-2.81-6.09-1.5-9.36 1.37-3.43 4.59-5.97 7.44-8.14 3.26-2.49 6.5-4.94 8.83-8.38 2.78-4.1 3.05-8.72.75-13.1-1-1.9-2.42-3.7-2.91-5.82-.33-1.43-.35-3.33 1.06-4.16l-2.79-2.14c-1.13 3.08.75 6.23 3.26 7.95 2.44 1.67 5.43 2.31 7.8 4.12 4.14 3.17 6.45 8.3 7.17 13.36.35 2.47.34 5.06-.06 7.52-.57 3.56-1.8 7.03-1.76 10.67.05 5.51 4.39 12.43 10.76 10.33 3.02-1 5.33-3.72 5.47-6.95.14-3.37-2.17-6.32-5.24-7.45v3.67c4.6-1.16 9.11 1.28 12.11 4.68 3.67 4.16 4.45 9.91 3.98 15.26-.26 2.95-.95 5.86-1.78 8.7-.81 2.76-1.85 5.45-2.11 8.34-.25 2.77.51 5.76 2.69 7.63 1.89 1.63 4.42 2.28 6.87 1.9 6.19-.97 8.13-8.61 4.43-13.13l-.45 3.47c2.37-1.76 3.84 5.36 4.18 6.63.9 3.4 1.48 6.89 1.37 10.41-.1 3.31-.92 6.55-2.79 9.31-1.75 2.58-4.29 4.57-6.38 6.85-2.42 2.64-4.31 5.67-4.11 9.37.13 2.52 4.07 2.54 3.94 0-.17-3.24 2.36-5.65 4.53-7.7 2.68-2.54 5.45-5 7.08-8.39 3.55-7.35 2.31-15.97-.05-23.48-.69-2.21-1.44-4.64-3.25-6.21s-4.72-2.14-6.75-.62c-1.23.92-1.41 2.27-.45 3.47.99 1.24.82 3.33-.14 4.53s-2.87 1.38-4.24.75c-4.27-1.94-.93-8.93-.05-11.95 2.93-10.06 3.6-22.41-5.13-29.87-4-3.41-9.35-5.15-14.52-3.64-1.85.54-1.77 3.1 0 3.67s3.05 2.75 2.45 4.6c-.61 1.87-2.79 2.83-4.6 2.23-1.97-.65-3.05-2.68-3.48-4.59-.63-2.75.19-5.68.79-8.36 1.09-4.84 1.41-9.61.33-14.49-1-4.48-3.15-8.88-6.51-12.07-2-1.9-4.29-3.17-6.83-4.21-2.06-.84-6.04-2.42-4.88-5.36.64-1.62-1.46-2.88-2.79-2.14-3.19 1.78-3.82 5.87-2.83 9.12 1.08 3.54 4.36 6.43 4.24 10.3-.11 3.58-2.95 6.6-5.47 8.85-2.78 2.48-5.98 4.43-8.65 7.05-2.63 2.59-4.71 5.73-5.11 9.47-.38 3.49 1.03 6.81 2.78 9.75 3.1 5.21 8.51 11.58 3.3 17.37-2.48 2.75-6.34 3.98-9.74 2.15-3.02-1.63-5.41-5.14-4.92-8.69.23-1.66-1.3-3.24-2.97-2.28-7.24 4.16-11.53 11.95-12.5 20.1-1.17 9.87 3.14 19.09 8.54 27.05 1.35 1.99 2.84 3.89 4.13 5.91 1.01 1.57 2.36 3.78 1.31 5.64-1.01 1.79 1.68 3.36 2.75 1.61Z"/><path d="M73.69 100.43c6.5-1.99 12.11-7.49 11.85-14.66-.15-3.97-1.96-7.71-1.93-11.68.03-3.53 2.13-6.49 5.32-7.91l-2.38-2.38c-1.82 3.37-.69 6.99 2.28 9.21 1.31.98 2.8 1.62 4.2 2.43 1.48.86 2.54 1.85 3.34 3.39 1.92 3.71.99 8.03.34 11.92-.59 3.59-.6 7.99 2.75 10.3 2.74 1.89 7.41.94 8.25-2.6.41-1.75-2.22-2.49-2.7-.74-.36 1.33-1.97 1.71-3.08.97-1.26-.84-1.82-2.66-1.88-4.08-.1-2.41.69-4.77 1.05-7.13s.61-4.48.26-6.8c-.56-3.81-2.87-7.24-6.43-8.82-2.5-1.11-7.38-2.51-5.37-6.3.86-1.63-.83-3.08-2.38-2.38-3.18 1.44-5.64 4.35-6.55 7.72-1.01 3.74.15 7.49 1.01 11.13s1.06 6.74-.89 9.89c-1.75 2.82-4.64 4.92-7.76 5.95-1.61.53-.94 3.06.71 2.56Zm-19.33 1.44.06-.13v-.03s.02-.01.02-.02c.06-.13.11-.27.17-.4l.06-.44v-.05c0-.22-.04-.42-.14-.61q-.09-.3-.33-.51l-.32-.25c-.25-.14-.52-.22-.8-.22h-.05c-.07 0-.19.03-.22.03-.15 0-.29.04-.42.11-.07.03-.13.06-.2.08h-.02l-.03.02-.13.06c-.26.15-.47.36-.62.62-.16.27-.23.56-.24.87l.06.46c.08.29.23.55.44.76.16.17.34.29.56.36.21.11.43.16.67.15q.465 0 .87-.24c.26-.15.47-.36.62-.62Zm3.68-4.36c2.16 0 2.17-3.36 0-3.36s-2.17 3.36 0 3.36m1.44 8.94c1.95 0 1.95-3.03 0-3.03s-1.95 3.03 0 3.03m56.66 3.26c2.15 0 2.16-3.34 0-3.34s-2.16 3.34 0 3.34m5.99-2.61c1.99 0 1.99-3.09 0-3.09s-1.99 3.09 0 3.09m.21 5.62c1.77 0 1.77-2.75 0-2.75s-1.77 2.75 0 2.75"/></svg>