<?xml version="1.0" encoding="UTF-8"?><svg xmlns="http://www.w3.org/2000/svg" viewBox="0 0 180 180"><path d="M10.81 127.47c4.78-2.08 10.25-2.72 15.42-2.73 5.27-.01 10.24 1.14 15.16 2.96 2.64.98 5.28 1.86 8.09 2.15 2.8.29 5.67-.25 8.36-1.05 2.59-.77 5.09-1.82 7.68-2.59s5.24-1.25 7.93-1.39c5.52-.3 10.68.83 15.84 2.72 5.19 1.9 10.15 3.4 15.72 2.47 5.05-.84 9.63-3.28 14.55-4.6 5.38-1.44 10.9-.81 16.27.36 11.41 2.5 24.09 7.14 35.09.61 2.13-1.26.27-4.27-1.91-3.26-4.68 2.15-9.67 2.12-14.69 1.46-5.32-.7-10.49-2.32-15.7-3.54-5.73-1.34-11.6-2.25-17.47-1.34-5.11.79-9.74 3.2-14.69 4.57-2.35.65-4.76 1.01-7.21.71-2.51-.31-4.94-1.22-7.3-2.09-5.28-1.93-10.52-3.37-16.18-3.42-5.71-.04-11 1.34-16.34 3.22-2.48.88-5.06 1.83-7.71 1.97s-5.17-.62-7.66-1.49c-5.73-1.99-11.5-3.25-17.6-3.01-6.1.23-11.7 2.1-17.17 4.68-1.79.84-.23 3.4 1.54 2.63Zm17.06 17.47c7.6-2.31 15.5.5 22.93 2.25 3.96.93 8.02 1.74 12.11 1.79 4.52.05 8.63-1.5 12.98-2.41 4.22-.89 8.62-.18 12.78.69 4.33.91 8.67 1.89 13.1 2.16 4.32.26 8.56-.46 12.68-1.74 3.93-1.22 7.74-2.79 11.72-3.87 4.67-1.27 9.24-1.36 14-.53 5.03.88 9.96 2.28 15.07 2.61 2.82.18 2.76-4.11 0-4.36-8.93-.8-17.4-4.29-26.47-2.8-8.2 1.35-15.66 5.88-24.08 6.05-8.8.17-17.35-2.84-26.17-2.55-4.44.14-8.73 1.47-13.16 1.64-3.91.15-7.75-.41-11.58-1.14-8.83-1.7-17.97-4.13-26.79-1.02-2.02.71-1.21 3.89.9 3.25Zm17.18 19.44c5.45 2.55 11.49 3.71 17.5 3.2 3.03-.26 5.98-.99 8.95-1.6 1.51-.31 3.02-.61 4.55-.74 1.71-.14 3.44-.05 5.14-.24 1.93-.21 2.35-2.7.46-3.39-5.91-2.16-12.34.72-18.21 1.52-5.76.79-11.62.07-17.1-1.81-1.77-.61-3.01 2.25-1.29 3.06m48.21-2.32-.13-.02h-.07c-.18-.04-.37-.09-.54-.08-.25 0-.48.04-.69.15-.22.07-.41.2-.58.37-.17.16-.3.35-.37.58q-.165.315-.15.69l.06.48c.08.3.24.57.46.79l.36.28q.42.24.9.24c.08 0 .16 0 .24-.03l.24-.03h.05s.04-.01.07-.01l.13-.02.42-.18c.2-.11.37-.26.49-.45.11-.11.18-.24.23-.39.11-.21.16-.43.15-.67l-.06-.47-.18-.42c-.11-.2-.26-.37-.45-.49-.17-.15-.37-.26-.6-.31Zm10.28 2.02.02-.31-.2.74c-.29.22-.58.44-.88.67.31-.12.41-.15.65-.38l.23-.3.15-.35c.06-.2.07-.39.03-.59 0-.13-.03-.26-.1-.37a.9.9 0 0 0-.19-.33.7.7 0 0 0-.26-.26.8.8 0 0 0-.33-.19c-.18-.09-.37-.13-.57-.13l-.39.05-.35.15-.3.23-.23.3-.15.35c-.06.2-.07.39-.03.59 0 .13.03.26.1.37.06.18.16.34.31.47.25.23.34.27.65.38l-.88-.67c-.07-.24-.13-.49-.2-.73l.02.31c0 .2.03.38.12.55.06.18.16.33.3.46.13.14.28.24.46.3.17.09.36.13.55.12l.38-.05c.24-.07.45-.19.63-.37l.22-.29c.13-.22.2-.47.2-.73Zm9.19.6c3.48.39 6.79-.8 10.02-1.87 1.51-.5 2.92-.77 4.52-.58 1.67.2 3.26.86 4.92 1.12 1.27.19 2.59-1.34 1.4-2.4-2.81-2.5-7.15-3.45-10.74-2.38-1.69.5-3.24 1.41-4.92 1.96-1.85.61-3.69.86-5.6 1.16-.74.12-1.2 1-1.1 1.68.12.81.72 1.24 1.5 1.33Z"/><path d="M43.03 122.63c-1.72-6.27-3.42-12.54-4.82-18.89-.33-1.49-.64-2.98-.93-4.48-.22-1.12-.9-2.74-.32-3.82.49-.92 1.75-1.31 2.65-1.75 1.38-.67 2.81-1.24 4.26-1.75 5.53-1.95 11.3-3.12 16.85-5 5.94-2 11.66-4.64 17.35-7.25 5.6-2.58 11.19-5.24 17.03-7.25 1.27-.44 2.46-.84 3.76-.34s2.53 1.29 3.77 1.92c2.64 1.35 5.31 2.62 8.01 3.84 10.81 4.91 21.96 9.04 32.77 13.98 2.83 1.29 5.6 2.7 8.39 4.09l.29.14c.34.23.39.18.14-.15-.02-.26-.07-.36-.16-.28.01.29.03.59.04.88.02.74.03 1.47.03 2.21-.02 1.7-.12 3.39-.3 5.08-.7 6.54-2.78 12.94-5.94 18.7 1.09-.29 2.18-.57 3.27-.86a45.4 45.4 0 0 0-20.1-5.09c-3.48-.06-6.99.31-10.39 1.06-3.54.79-6.95 2.06-10.4 3.15-3.32 1.05-6.74 2-10.25 1.94-3.49-.06-6.51-1.49-9.66-2.83a39.16 39.16 0 0 0-21.65-2.63c-3.89.63-7.6 2.02-11.42 2.96-3.36.83-7.08 1.41-10.33-.13-1.13-.53-2.5-.31-3.16.83-.59 1.01-.3 2.62.83 3.16 6.65 3.2 13.57.76 20.22-1.11 6.89-1.94 13.92-2.11 20.78.11 3.35 1.09 6.43 2.93 9.86 3.76 3.58.86 7.25.63 10.82-.12 6.93-1.46 13.36-4.71 20.49-5.31 7.58-.64 15.22.85 21.96 4.38 1.12.59 2.62.32 3.27-.86 3.13-5.67 5.31-11.87 6.29-18.27.49-3.21.75-6.44.68-9.68-.03-1.51-.02-3.09-1.14-4.25-.97-1-2.72-1.6-3.94-2.22-11.26-5.69-23.15-10.01-34.7-15.05-2.87-1.25-5.72-2.54-8.53-3.9-1.39-.67-2.78-1.36-4.15-2.07-1.54-.79-3.09-1.79-4.77-2.25-3.22-.89-6.45.61-9.4 1.77-3.25 1.27-6.44 2.67-9.61 4.12-6.06 2.77-12.03 5.74-18.26 8.14-5.94 2.29-12.17 3.61-18.19 5.64-1.7.57-3.37 1.22-5.01 1.94-1.58.69-3.29 1.41-4.64 2.5s-2.11 2.57-2.28 4.24c-.18 1.76.43 3.61.81 5.32 1.7 7.69 3.8 15.29 6.7 22.61.76 1.92 3.75 1.22 3.18-.88Z"/><path d="M40.88 115.77c17.76-5.52 35.51-11.03 53.27-16.55 1.02-.32 2.06-.64 3.12-.58.81.04 1.6.3 2.37.56 16.24 5.38 32.48 10.76 48.73 16.14.33.11.71.26.82.59.06.16.04.34 0 .51-.71 4.25-5.49 6.71-9.8 6.76s-8.45-1.58-12.71-2.28c-8.31-1.37-16.76.83-24.9 3-1.93.51-3.89 1.03-5.88.93-2.13-.11-4.15-.91-6.15-1.67-3-1.14-6.04-2.2-9.1-3.16-2.75-.86-5.56-1.66-8.45-1.72-3.54-.07-7 .96-10.46 1.75a73 73 0 0 1-14.15 1.77c-1.22.03-2.5.02-3.55-.58s-1.76-1.99-1.2-3.07"/><path d="M41.31 117.3c7.48-1.83 14.86-4.23 22.22-6.5s14.75-4.57 22.13-6.83c1.75-.53 3.49-1.07 5.24-1.6s3.72-1.4 5.59-1.61c1.52-.17 3.09.67 4.48 1.15 1.89.64 3.78 1.26 5.68 1.89 7.25 2.4 14.51 4.81 21.76 7.21 3.63 1.2 7.25 2.4 10.88 3.6 1.73.57 3.47 1.15 5.2 1.72.87.29 1.73.57 2.6.86l.24.08c.86.4.77.04-.28-1.09-.15.16-.21.77-.32.99-.98 2.12-3.39 3.22-5.56 3.67-3.1.64-6.37-.3-9.36-1.03-3.55-.86-7.1-1.51-10.77-1.49s-7.36.57-10.96 1.32c-3.58.75-7.08 1.81-10.64 2.64-1.57.37-3.15.56-4.74.23-1.81-.38-3.52-1.13-5.24-1.77-3.83-1.44-7.73-2.86-11.71-3.84-4.06-1-7.98-.9-12.05-.03s-7.86 1.88-11.91 2.34c-2.05.23-4.11.39-6.17.44-.7.02-1.59.13-2.25-.18-.17-.08-.27-.15-.42-.24a.56.56 0 0 1-.19-.39c0 .29.04.25.13-.12.84-2.21-2.91-3.82-3.86-1.63-.72 1.67-.6 3.35.56 4.8s2.97 1.98 4.79 2.08c3.87.21 7.94-.38 11.75-1 3.8-.62 7.51-1.84 11.32-2.32 3.93-.49 7.6.52 11.31 1.7s7.44 2.75 11.22 3.93c3.99 1.25 7.61.46 11.53-.58 7.51-1.99 15.47-4.02 23.27-2.57 6.69 1.25 13.96 4.2 20.23-.05 2.24-1.52 5.08-4.77 4.27-7.75-.52-1.91-2.87-2.29-4.47-2.82-1.97-.65-3.94-1.31-5.91-1.96-7.88-2.61-15.77-5.22-23.65-7.84-3.94-1.31-7.88-2.61-11.83-3.92-1.93-.64-3.85-1.3-5.8-1.87s-3.7-.45-5.6.14c-15.93 4.92-31.85 9.91-47.68 15.12-1.98.65-3.94 1.31-5.89 2.04s-1.18 3.55.84 3.06Z"/><path d="M95.27 70.99c-.14 6.48-.22 12.95-.22 19.43s-.17 12.97.09 19.43c.09 2.12 3.21 2.12 3.3 0 .26-6.46.09-12.96.09-19.43s-.08-12.95-.22-19.43c-.04-1.95-2.99-1.95-3.03 0Z"/><path d="M37.88 103.78c15.84-5.69 37.22-12.86 56.48-18.79 1.06-.33 2.16-.65 3.27-.53 1.2.14 2.26.79 3.32 1.36 5.95 3.19 12.82 4.08 19.2 6.27 3.69 1.26 7.21 2.96 10.82 4.41 6.98 2.81 14.28 4.72 21.57 6.59.02-2.32.03-4.64.05-6.96 0-.83-.02-1.74-.56-2.37-.54-.62-1.41-.77-2.22-.91-17.48-2.94-32.61-13.46-49.05-20.1-1.57-.63-3.21-1.24-4.9-1.12-1.48.11-2.86.77-4.2 1.42a493 493 0 0 1-51.75 21.5c-1.38.48-2.87 1.04-3.63 2.29s-.17 3.33 1.29 3.4"/><path d="M38.25 105.12c14.39-4.5 28.58-9.58 42.96-14.12 3.76-1.19 7.53-2.35 11.3-3.51 1.68-.52 3.85-1.63 5.61-1.03s3.4 1.73 5.13 2.45c3.53 1.46 7.25 2.34 10.94 3.3 3.83 1 7.51 2.29 11.15 3.85 4.22 1.82 8.47 3.55 12.83 4.99s9.2 2.77 13.84 4.01c1.29.35 2.55-.64 2.57-1.96.04-2.59.27-5.28.06-7.87-.21-2.56-1.83-3.94-4.27-4.38-4.59-.83-9.06-2.09-13.43-3.72-8.83-3.3-17.12-7.88-25.6-11.96-2.09-1-4.18-1.98-6.31-2.9-2.24-.98-4.58-2.17-7-2.58-2.72-.47-5.02.39-7.43 1.55s-4.61 2.21-6.93 3.29c-9.47 4.4-19.07 8.5-28.8 12.29-5.37 2.09-10.82 3.93-16.2 5.98-2.24.85-4.49 2.24-4.77 4.84-.26 2.42 1.28 4.4 3.68 4.68 2.27.26 2.82-3.66.54-4.02-.47-.07-.03-.07 0 .15-.02-.16-.12-.34-.05-.53.14-.36 1-.74 1.36-.91 2-.9 4.18-1.5 6.24-2.24 4.36-1.58 8.69-3.22 13-4.92A506 506 0 0 0 90.8 75.86c1.82-.87 3.89-2.26 5.99-2.06 2.09.2 4.2 1.34 6.1 2.17 1.92.84 3.83 1.72 5.72 2.62 7.68 3.65 15.18 7.67 23.02 10.95 4.35 1.82 8.82 3.4 13.41 4.5 1.12.27 2.24.5 3.37.71.55.1 1.86.13 2.07.54.17.32.04 1.04.04 1.38 0 .75-.01 1.49-.01 2.24 0 1.41 0 2.82.01 4.23l2.57-1.96c-8.22-2.02-16.42-4.11-24.22-7.45-3.74-1.6-7.47-3.18-11.39-4.3-3.74-1.08-7.54-1.95-11.22-3.24-1.84-.65-3.55-1.48-5.27-2.38s-3.49-1.35-5.5-.96c-1.99.38-3.96 1.16-5.9 1.77s-3.76 1.19-5.63 1.8C76.27 88.89 68.6 91.41 60.95 94c-7.88 2.66-15.74 5.37-23.45 8.51-1.6.65-1.01 3.21.74 2.67Z"/><path d="M54.23 89.09c.69-4.88 1.47-9.76 2.24-14.63.74-4.68 1.24-9.46 2.28-14.07.38-1.69.94-3.44 2.34-4.57s3.23-1.56 4.94-1.9c4.59-.93 9.28-1.48 13.95-1.89 9.59-.86 19.26-.95 28.86-.2 4.38.34 8.81.74 13.07 1.82 1.98.5 3.92 1.16 5.72 2.12 1.67.89 3.32 1.82 3.79 3.76.63 2.63.9 5.38 1.33 8.04.43 2.68.86 5.36 1.29 8.05s.89 5.52 1.34 8.28c.46 2.75.8 5.54 1.5 8.24.56 2.17 4.13 1.79 3.99-.54-.32-5.25-1.43-10.53-2.24-15.73s-1.62-10.41-2.43-15.62c-.38-2.44-1-4.62-2.95-6.29-1.8-1.53-3.92-2.61-6.09-3.5-4.28-1.74-8.9-2.37-13.46-2.86-10.3-1.1-20.71-1.26-31.03-.37-5.2.45-10.38 1.13-15.52 2.04-4.18.74-8.63 1.82-10.92 5.77-1.25 2.15-1.63 4.64-1.98 7.06-.43 2.96-.85 5.92-1.23 8.88-.75 5.88-1.26 11.78-1.77 17.68-.15 1.7 2.77 2.12 3.01.41Z"/><path d="M79.15 49.8c.81-6.09 1.52-12.19 2.25-18.28.36-2.96.73-5.92 1.09-8.88.16-1.3.18-2.73.58-4 .33-1.07 1.26-1.25 2.28-1.41 5.68-.89 11.64-.91 17.37-.72 1.86.06 4.28-.25 4.65 2.07.19 1.22.06 2.54.06 3.77 0 1.57-.02 3.13-.03 4.7-.04 6.84-.06 13.69-.02 20.53.02 2.53 3.9 2.54 3.94 0 .1-6.84.14-13.69.15-20.53 0-3.07.33-6.32-.17-9.36s-2.75-4.68-5.66-5.04c-3.11-.38-6.35-.26-9.48-.19-3.32.08-6.65.3-9.95.67-2.9.32-5.8.98-6.85 4.07-.45 1.32-.51 2.82-.68 4.2-.21 1.73-.42 3.45-.62 5.18-.87 7.73-1.65 15.45-2.11 23.22-.12 2.11 2.94 1.98 3.2 0"/><path d="M82.12 32.22c1.73-.76 3.69-.99 5.55-1.18 2.14-.22 4.28-.36 6.42-.47s4.19-.14 6.29-.15c1.05 0 2.1-.01 3.15 0 .48 0 .97.01 1.45.02.24 0 1.01-.1 1.19 0l-.89-1.16.06.21c.62 2.13 3.57 1.59 3.73-.5.23-3.04-3.86-2.58-5.78-2.59-2.67 0-5.33.11-7.99.3-4.97.37-10.21.63-14.77 2.8-1.84.88-.23 3.52 1.59 2.71Zm-1.77 9.29c9.11-.79 18.26-1.21 27.4-1.18 2.15 0 2.15-3.34 0-3.34-9.17-.03-18.3.49-27.4 1.65-1.79.23-1.87 3.04 0 2.88Zm13.67 29.54c-6.78.26-13.55.51-20.32.97-.75.05-2.61.48-3.13-.28-.3-.43-.18-1.38-.19-1.88-.02-.81.15-2.02-.08-2.8-.21-.74.12-.1-.28.02.41-.12.84-.19 1.26-.28.79-.17 1.58-.32 2.37-.46 1.66-.3 3.32-.56 4.99-.76 6.57-.81 13.19-1 19.8-.99 6.31.01 12.95-.29 19.07 1.5.49.15 1.31.25 1.56.75.29.58.16 1.81.21 2.46.03.48.39 2.07.15 2.49-.18.32-.59.31-.94.34-1.67.11-3.44-.26-5.11-.42-1.96-.19-3.92-.39-5.88-.58-2.21-.22-2.2 3.25 0 3.45 2.04.19 4.08.39 6.12.58 1.75.17 3.61.54 5.37.38 1.64-.15 3.16-.95 3.73-2.59s.2-3.6.08-5.29-.53-3.32-2.16-4.26-3.56-1.25-5.3-1.57c-3.9-.71-7.86-.81-11.81-.87-8.14-.13-16.31-.1-24.41.85-2 .23-4 .51-5.99.86-1.66.29-3.91.38-5.32 1.4-1.62 1.18-1.25 3.36-1.2 5.11.04 1.75-.02 3.65 1.15 5.07 1.22 1.5 3.14 1.7 4.95 1.59 2.31-.14 4.63-.35 6.94-.54 4.8-.39 9.58-.9 14.37-1.38 1.79-.18 1.87-2.93 0-2.86Z"/></svg>