<?xml version="1.0" encoding="UTF-8"?><svg xmlns="http://www.w3.org/2000/svg" viewBox="0 0 180 180"><path d="M56.16 87.19c-8.51 2.93-17.3 5.79-24.21 11.8-7.74 6.74-10.43 16.78-9.86 26.76.15 2.6.27 5.22.62 7.8.37 2.75 1.53 4.86 3.81 6.47 3.59 2.54 8.12 4.15 12.29 5.44 8.49 2.63 17.56 3.48 26.41 2.64s17.72-3.33 25.74-7.44c4.02-2.06 7.79-4.55 11.29-7.39 1.76-1.43 3.4-2.97 5.03-4.55 1.78-1.72 3.59-3.28 6.02-3.96 2.5-.7 5.13-.84 7.66-1.43 2.64-.61 5.19-1.53 7.68-2.59 4.92-2.1 9.52-4.85 14.07-7.63 4.43-2.7 8.16-5.85 8.91-11.26.76-5.44.36-11.29-.25-16.73-.63-5.62-1.9-11.01-3.79-16.33-.92-2.57-1.87-5.15-2.47-7.82-.63-2.82-.76-5.7-.68-8.58.3-10.54 3.52-21.21.32-31.61-.72-2.34-1.76-4.58-3.14-6.59-1.57-2.3-5.34-.14-3.76 2.2 5.47 8.13 3.83 18.52 2.77 27.66-.64 5.5-1.08 11.01-.17 16.51.87 5.22 3.23 10.04 4.61 15.12 1.39 5.13 2.05 10.41 2.26 15.72.1 2.6.13 5.22.02 7.82-.09 2.22-.43 4.42-1.91 6.17-1.37 1.62-3.21 2.74-5 3.83-2.15 1.31-4.3 2.6-6.49 3.83-4.48 2.52-9.15 4.76-14.18 5.92-2.4.55-4.87.71-7.25 1.31s-4.54 1.83-6.46 3.44c-1.77 1.47-3.33 3.17-5.05 4.69-1.5 1.32-3.06 2.56-4.69 3.71-6.82 4.81-14.54 8.17-22.67 10.05-7.94 1.83-16.32 2.23-24.39 1.02-4.21-.63-8.35-1.68-12.34-3.14-1.88-.69-3.72-1.47-5.52-2.33s-3.77-1.73-4.3-3.85c-.57-2.26-.46-4.93-.46-7.25 0-2.48 0-4.97.23-7.44.43-4.56 1.79-8.96 4.45-12.72 4.72-6.67 12.67-10.69 19.97-13.85 1.9-.82 3.82-1.57 5.76-2.28 1.95-.72 1.14-3.84-.87-3.15Z"/><path d="M26.05 134.42c-2.99-1.7-5.11 1.9-5.9 4.27-.83 2.51-.79 5.4-.14 7.94s1.95 4.91 3.76 6.78c2.17 2.23 5.05 3.5 7.96 4.49 12.95 4.39 27.03 5.66 40.53 3.54 12.34-1.94 24.15-6.98 34.01-14.66 2.44-1.9 4.61-4.07 6.99-6.04 2.51-2.08 5.36-3.07 8.47-3.86 6.35-1.6 12.47-3.6 18.36-6.51 3.29-1.62 6.48-3.47 9.52-5.53 2.81-1.9 5.75-4.22 5.67-7.96-.04-1.79-.69-3.41-.35-5.21.34-1.83 1.03-3.66.84-5.55-.32-3.24-2.96-6.3-6.44-5.47-2.61.62-1.51 4.64 1.11 4.02.56-.13.99.94 1.1 1.34.33 1.2-.17 2.52-.44 3.69-.31 1.32-.56 2.68-.44 4.04s.8 2.9.31 4.19c-.82 2.16-3.86 3.6-5.68 4.75a82 82 0 0 1-7.5 4.18c-5.12 2.51-10.52 4.43-16.05 5.81-2.82.7-5.68 1.42-8.22 2.9-2.47 1.44-4.5 3.49-6.62 5.38-17.06 15.26-41.18 20.27-63.33 15.85-3.35-.67-6.66-1.53-9.91-2.58-2.74-.89-5.52-1.96-7.44-4.21-1.48-1.74-2.35-4.01-2.58-6.27-.11-1.11-.09-2.25.14-3.35.13-.61.27-1.21.47-1.8.05-.15.11-.35.18-.51.08-.19.19-.37.3-.54.33-.24.2-.32-.38-.23 1.93.85 3.62-1.8 1.7-2.9Z"/><path d="M56.23 89.72c4.37.43 8.56 1.18 12.68 2.74s7.95 3.68 11.64 6.04c3.19 2.04 6.16 4.45 8.59 7.37s3.78 6.26 4.46 10.02c.31 1.7 2.9 1.23 2.93-.4.13-6.53-4.31-12.55-8.95-16.71-5.32-4.77-11.83-8.43-18.64-10.57-4.05-1.27-8.47-2.15-12.72-1.74-2.09.2-2.09 3.04 0 3.25Zm14.9-25.64c-1.02-3.72-3-6.92-5.41-9.9s-5.03-5.61-7.01-8.82c-1.82-2.96-3.36-6.65-2.39-10.16.88-3.19 3.79-5.4 6.82-6.42 4.28-1.45 8.94-1.27 13.4-1.18 4.34.09 8.78.06 13.1.61 3.59.45 7.05 1.62 9.66 4.22 2.42 2.42 3.98 5.62 5.05 8.84 3.12 9.32 3.5 19.5 2.35 29.19-.26 2.2 3.56 2.74 3.9.53 1.47-9.66 1.07-19.83-1.51-29.28-1.05-3.83-2.59-7.56-5.05-10.71-2.57-3.28-6.07-5.52-10.11-6.56-4.5-1.17-9.29-1.13-13.9-1.27-5.03-.16-10.21-.39-15.18.56-4.13.79-8.11 2.78-10.69 6.17-2.62 3.45-3.06 7.9-1.81 11.98 1.43 4.69 4.59 8.42 7.87 11.93 3.06 3.27 6.57 6.69 7.84 11.12.56 1.97 3.62 1.14 3.07-.85"/><path d="M128.49 9.39c-8.87-1.13-17.77-1.62-26.7-1.16-8.06.42-17.08.98-24.13 5.34-3.54 2.19-6.36 5.3-7.86 9.19-.89 2.29 2.86 3.85 3.97 1.67 3.16-6.2 9.63-9.07 16.16-10.38 7.97-1.59 16.25-2.03 24.37-2.15 4.74-.07 9.47.1 14.2.54 1.98.18 1.9-2.81 0-3.05ZM110.54 63.6c1.42-4.5 1.95-9.26 1.66-13.97-.3-4.8-1.11-9.55-1.53-14.33-.35-3.95-.35-8.74 4.2-10.07 4.65-1.36 9.59-1.75 14.17-3.37 1.4-.5 1.29-2.8-.37-2.73-4.09.17-8.3 1.11-12.32 1.83-3.63.65-6.97 1.78-8.67 5.33s-1.24 7.36-.79 11.08c.49 4.01 1.16 8 1.49 12.03.37 4.5.55 9.03-.79 13.39-.59 1.9 2.37 2.7 2.97.82Z"/><path d="M110.57 46.52c2.97.41 5.9.94 8.9 1s6.19-.15 9.27-.59c2.96-.42 5.89-1.05 8.74-1.93 1.43-.44 2.83-.94 4.22-1.49s3.38-1.04 3.69-2.75c.18-.96-.12-1.93-1-2.45-.56-.33-1.28-.49-1.91-.23-.81.33-1.62 1.04-1.54 2.02v.11c.16 1.8 2.97 3.12 3.87 1.04l.04-.1-1.81 1.04.15.02-1.84-1.06.07.12c.11-.88.23-1.75.34-2.63-.32.4-2.44.98-3.14 1.24-1.19.44-2.4.83-3.61 1.2-2.57.78-5.19 1.38-7.85 1.81-2.54.4-5.12.64-7.69.72s-5.42.21-8.06-.15c-.85-.12-1.69.21-1.95 1.11-.21.74.26 1.83 1.11 1.95M65.95 79.71c5.63.37 11.41 1.71 16.54 4.07 2.56 1.17 5.03 2.59 7.32 4.22 1.17.83 2.27 1.74 3.36 2.67 1.14.98 2.18 2.23 3.6 2.77 1.28.49 2.58-.98 2.2-2.2-.46-1.47-1.86-2.67-2.97-3.69-1.17-1.08-2.44-2.06-3.72-2.99-2.51-1.82-5.2-3.34-8.05-4.56-5.83-2.5-11.95-3.73-18.29-3.3-1.94.13-1.94 2.89 0 3.02Zm4.34-15.02a44.2 44.2 0 0 0-13.16-5.91c-2.41-.64-4.87-1.08-7.34-1.38-2.15-.26-4.49-.57-6.64-.13s-4.04 2.11-4.02 4.48c.03 2.43 2.11 4.17 3.93 5.46 3.57 2.53 7.99 3.49 12.27 3.87 5.24.46 11.11.5 16.1-1.3.63-.23 1.37-.73 1.47-1.47.54-3.96 2.24-7.7 4.82-10.75 1.29-1.52 2.75-2.93 4.38-4.08 1.22-.87 3.17-2.36 4.77-1.7 1.74.71-.04 2.73-.74 3.63-1.24 1.6-2.76 3.04-4.36 4.28-3.32 2.58-7.1 4.54-10.81 6.49-1.97 1.04-.93 3.9 1.08 3.99 3.51.16 6.64 1.44 9.66 3.13 1.48.83 3 1.37 4.72 1.39 1.58.02 3.14-.37 4.71-.52 1.36-.13 2.67-.17 3.7.85 1.1 1.08 1.77 2.47 3.01 3.42 2.09 1.6 5.1 1.71 7.01 3.56 1.3 1.26 3.44-.35 2.52-1.94-1.67-2.86-4.82-2.65-7.24-4.43-1.28-.95-1.93-2.54-3.13-3.58-1.29-1.12-2.9-1.61-4.59-1.67s-3.24.31-4.86.36c-1.8.06-2.97-.49-4.48-1.43-3.39-2.1-7.06-3.16-11.02-3.42l1.08 3.99c3.63-1.82 7.27-3.69 10.52-6.14 1.67-1.26 3.26-2.61 4.65-4.18 1.35-1.53 2.83-3.31 3.41-5.31 1.39-4.74-3.57-7.8-7.73-6.55-3.7 1.11-7.1 4.24-9.49 7.17-2.91 3.58-4.93 7.75-5.64 12.33l1.47-1.47c-3.73 1.25-7.72 1.19-11.61 1.06-3.4-.11-6.9-.48-10.07-1.79-1.42-.59-2.81-1.39-3.95-2.42-.28-.25-.5-.56-.76-.82-.19-.19.01.05-.14.11-.08.03.77-.08.95-.1 3.65-.3 7.67.47 11.2 1.32 4.35 1.05 8.59 2.59 12.61 4.56 1.98.97 3.59-1.74 1.73-2.97ZM104 98.17V98c.02-.24-.03-.47-.14-.68-.07-.22-.19-.41-.37-.57-.16-.17-.35-.29-.57-.37a1.33 1.33 0 0 0-.68-.15l-.47.06c-.3.08-.56.24-.78.45l-.28.36c-.16.28-.24.57-.24.89v.17c0 .24.05.47.16.68q.105.33.36.57.24.255.57.36c.21.11.44.16.68.15l.47-.06q.45-.12.78-.45l.27-.36c.16-.27.24-.57.24-.89Zm6.23-8.42.1-.07c.11-.08.21-.17.32-.25l.25-.32c.05-.13.11-.26.16-.38l.06-.42s-.06-.41-.06-.42v-.04c-.07-.26-.2-.48-.39-.67s-.41-.32-.67-.39h-.03c-.08-.02-.15-.02-.23-.03a.75.75 0 0 0-.42 0c-.14 0-.28.04-.4.11-.25.11-.14.04-.35.21-.12.07-.21.17-.28.28l-.13.16-.07.1-.16.37c-.07.21-.07.42-.03.62 0 .14.04.27.11.39.06.19.17.36.32.5l.32.24.37.16c.21.07.42.07.62.03.21 0 .4-.07.58-.19Zm4.25-13.61-.05-.03c-.26-.13-.53-.25-.83-.23-.21 0-.41.04-.6.13-.19.06-.36.17-.5.32-.15.14-.26.31-.32.5-.1.19-.14.38-.13.6l.06.41c.07.26.21.49.4.69l.31.24q.36.21.78.21c.3.02.57-.1.83-.23l.05-.03c.23-.13.4-.31.54-.54s.2-.49.2-.76-.07-.52-.2-.76c-.13-.23-.31-.4-.54-.54ZM88.7 25.31c3.49-4.43 21.85-5.74 31.74-5.22 1.84.1 3.68.25 5.46.68-5.46.3-10.86 1.59-15.87 3.77-.41.18-.83.37-1.14.69-.56.57-.7 1.42-.8 2.21l-.57 4.34c-.09.65-.32 1.46-.98 1.55-.23.03-.47-.05-.69-.14-4.1-1.7-6.64-6.57-11.04-7.11"/><path d="M89.85 26.46c1.21-1.44 3.57-2.11 5.51-2.61 3-.77 6.08-1.17 9.15-1.46 3.35-.31 6.7-.53 10.07-.58 3.55-.05 7.38-.19 10.81.8l.51-3.77c-3.93.06-7.96.87-11.71 2.01-1.85.56-3.76 1.19-5.49 2.06-1.62.81-2.33 2.24-2.59 3.97-.15.98-.28 1.97-.41 2.96-.06.49-.21 1.06-.19 1.56-.02.14-.04.27-.08.4 1.24-.21 1.53-.43.85-.66-.48-.41-1.19-.67-1.71-1.04-.6-.43-1.17-.91-1.73-1.39-2.23-1.94-4.47-4.07-7.52-4.51-1.03-.15-2.04.25-2.35 1.34-.26.91.32 2.2 1.34 2.35 2.95.46 4.9 2.86 7.06 4.69 1.18 1.01 2.47 2 3.95 2.53 1.85.65 3.53-.41 4.06-2.24.52-1.8.44-3.77.8-5.61.17-.85.44-.82 1.3-1.19.82-.35 1.65-.66 2.49-.95 3.9-1.37 7.85-2.03 11.94-2.46.95-.1 1.76-.65 1.88-1.66.1-.86-.42-1.95-1.37-2.1-5.81-.96-11.78-.9-17.65-.53-5.29.34-10.79.95-15.84 2.66-1.9.64-4.08 1.5-5.38 3.11s.94 3.91 2.3 2.3ZM34.34 142.85c-.01 1.09-.16 2.18-.22 3.28s-.04 2.27-.03 3.4.06 2.18.13 3.27c.07 1.23.06 2.47.56 3.61.51 1.16 2.3.75 2.6-.34s.09-2.28.03-3.4-.12-2.18-.19-3.27c-.08-1.09-.12-2.19-.22-3.28s-.25-2.19-.27-3.28c-.02-1.54-2.37-1.54-2.39 0Zm17.29 4.64c-.31 2-.21 3.94-.11 5.95.05.95.14 1.91.22 2.86.08 1.03.03 2.21.37 3.19.24.69.83 1.21 1.59 1.21.67 0 1.48-.51 1.59-1.21.16-1.03 0-2.05-.09-3.08-.09-.95-.16-1.91-.27-2.86s-.22-1.9-.34-2.86-.29-1.86-.19-2.83c.15-1.56-2.52-1.94-2.76-.37Zm19.19-1.94c-.25 2.18-.34 4.37-.15 6.56.1 1.13.24 2.27.42 3.39.2 1.33.25 2.87 1.75 3.37.63.21 1.63-.12 1.91-.78l.03-.06c.28-.66.33-1.48-.26-2.01l-.04-.04c-.66-.59-1.6-.61-2.26 0l-.02.02c-.39.36-.56 1-.4 1.51v.03c.15-.52.28-1.04.42-1.56l-.04.04 1.17-.49h-.06c.49.28.97.56 1.46.84l-.07-.09.24.87c-.11-1.02-.35-2.04-.49-3.06-.12-.82-.2-1.8-.28-2.68-.18-1.95-.3-3.92-.31-5.88 0-.81-.69-1.51-1.51-1.51-.89 0-1.42.69-1.51 1.51Zm18.31-5.27c-.06 2.28-.14 4.56-.15 6.85 0 1.09-.1 2.23-.01 3.32.07.87.52 1.74 1.43 1.97s1.8-.28 2.08-1.18c.25-.81-.3-1.56-1.04-1.83l-.07-.02.93.71c.12.28.15.33.07.13 0 .24.01.28 0 .11 0-.24-.02-.48-.03-.73l-.05-1.24c-.03-.9-.07-1.8-.1-2.7-.08-1.8-.21-3.6-.32-5.39-.04-.74-.6-1.38-1.38-1.38s-1.35.63-1.38 1.38Zm13.4-10.2c1.07 4.09-.09 8.39.37 12.53.08.75.47 1.44 1.26 1.65.49.13.88.04 1.32-.17.51-.25.87-.92.85-1.48-.21-4.43.41-9.02-1.16-13.26-.6-1.62-3.09-1-2.64.73m17.53-8.83c-.61-.44-1.48-.25-1.99.26-.48.48-.61 1.15-.73 1.79-.24 1.33-.29 2.7-.32 4.05-.03 1.24-.03 2.49-.02 3.74 0 .62 0 1.25.05 1.87.05.85.07 1.79.77 2.38.65.54 1.55.63 2.19 0 .9-.89.69-2.27.65-3.43-.03-1.05-.05-2.1-.05-3.15s.02-2.02 0-3.03c0-.5.02-1.01 0-1.52 0-.23-.04-.47-.06-.7-.01-.22-.04-.44-.08-.65-.03-.38-.07-.29-.11.27l-.5.5.09-.05-1.06.14.1.04c.63.24 1.38-.21 1.61-.79.27-.67 0-1.3-.56-1.71Zm10.11-2.17c-.18 2.02-.15 4.08-.16 6.12-.01 2.08-.15 4.21.22 6.26.25 1.38 2.52 1.37 2.77 0 .38-2.05.26-4.19.25-6.26 0-2.03.04-4.09-.13-6.12-.16-1.9-2.78-1.9-2.95 0m11.94-7.03c-.06 2.13-.12 4.25-.12 6.38s-.13 4.39.37 6.5c.3 1.27 2.37 1.33 2.64 0 .42-2.13.22-4.34.13-6.5-.09-2.13-.23-4.25-.37-6.38-.11-1.68-2.59-1.71-2.64 0Z"/><path d="M22.03 149.4c-1.65 1.15-3.61 1.77-5.32 2.82s-3.25 2.78-3.18 4.79c.08 2.14 1.91 3.76 3.69 4.95 9.18 6.08 20.63 7.56 31.64 7.93 33.92 1.15 68.1-6.89 97.95-23.03 7.66-4.14 15.49-9.33 18.71-17.41 1.21-3.04 1.52-6.94-.83-9.22-2.11-2.05-5.45-1.95-8.38-1.72-5.67 9.9-17.19 14.71-28.13 17.97-3.76 1.12-7.59 2.16-10.97 4.14-3.46 2.02-6.29 4.94-9.43 7.43-5.43 4.31-11.78 7.35-18.33 9.66-22.41 7.88-48.47 6.87-68.7-5.58"/><path d="M21.17 147.92c-2.5 1.55-5.5 2.2-7.58 4.4-2.03 2.14-2.69 5.18-1.13 7.8 1.45 2.45 4.21 4.04 6.64 5.36 2.61 1.42 5.39 2.56 8.23 3.45 11.58 3.65 24.34 3.61 36.35 3.08 25.19-1.12 50.09-7.15 72.95-17.79 5.42-2.52 10.84-5.19 15.93-8.33 4.64-2.87 9.03-6.29 12.19-10.78 2.82-4.01 5.39-10.16 2.57-14.83-1.49-2.47-4.1-3.58-6.86-3.88-1.25-.13-2.51-.1-3.76 0-.91.08-1.61.24-2.16 1.06-.41.61-.76 1.27-1.18 1.87-5.92 8.54-16.59 12.43-26.14 15.27-3.07.91-6.13 1.82-9.04 3.18s-5.24 3.19-7.59 5.18c-2.28 1.94-4.51 3.9-7 5.57s-5.06 3.08-7.73 4.35c-20.33 9.64-45.84 10.81-66.48 1.46q-3.9-1.77-7.56-4.02c-2.3-1.4-4.4 2.2-2.11 3.6 17.26 10.53 38.4 13 58.03 9.1 10.01-1.98 20.26-5.5 28.68-11.37 4.29-2.99 7.84-7.07 12.45-9.58 4.51-2.46 9.71-3.43 14.54-5.09 9.66-3.32 19.4-8.31 24.72-17.44l-1.79 1.03c2.25-.17 5.51-.58 7.18 1.34 1.56 1.79.96 4.66.22 6.66-1.89 5.12-6.2 9.11-10.59 12.14-5.04 3.48-10.59 6.28-16.13 8.86-5.93 2.77-12.01 5.22-18.2 7.38-24.41 8.52-50.92 12.48-76.75 10.34-6.75-.56-13.64-1.82-19.77-4.83-1.6-.78-3.23-1.65-4.66-2.72-.95-.71-2.22-1.8-2.11-3.12s1.44-2.37 2.51-3.02c1.6-.96 3.34-1.64 4.87-2.74 1.76-1.27.18-4.16-1.73-2.97Zm96.23-82.47-.12-.08s-.04-.03-.06-.04-.05-.02-.07-.03l-.26-.11c-.17-.11-.35-.16-.54-.17-.19-.04-.39-.03-.58.03-.19.04-.35.13-.49.26-.16.1-.28.24-.37.41l-.15.35c-.07.26-.07.52 0 .77l.15.35c.13.22.3.39.52.52l.25.15c.19.11.4.18.61.26.19.06.39.07.58.03.19 0 .37-.07.54-.17l.29-.23c.14-.13.24-.29.3-.47.07-.11.1-.24.1-.37.04-.19.03-.39-.03-.58l-.15-.35c-.13-.22-.3-.39-.52-.52Zm-.21-9c1.94 0 1.94-3.02 0-3.02s-1.94 3.02 0 3.02m4.98 49.17c1.04-7.06 3.78-13.68 7.86-19.53 2.01-2.88 4.37-5.54 6.96-7.91 1.28-1.17 2.63-2.28 4.04-3.28 1.4-.99 3.01-2.39 4.78-2.32 2.29.09 2.45-3.06.51-3.78-2.27-.83-4.54.85-6.32 2.09a51 51 0 0 0-4.57 3.59c-2.92 2.58-5.5 5.52-7.73 8.72-4.46 6.4-7.36 13.9-8.45 21.62-.11.81.2 1.61 1.05 1.85.71.2 1.74-.25 1.85-1.05Z"/></svg>