<?xml version="1.0" encoding="UTF-8"?><svg xmlns="http://www.w3.org/2000/svg" viewBox="0 0 180 180"><path d="M116.12 155.62c-1.12-2.63-1.33-5.85-1.37-8.67-.05-3.3.26-6.6.81-9.85 1.27-7.6 4.05-14.86 5.15-22.48.6-4.13.92-8.59-.54-12.59-1.31-3.61-3.91-6.75-6.61-9.44s-5.96-4.82-9.74-4.53-7.01 2.7-8.29 6.23c-1.34 3.73.04 7.47 2.66 10.22.98 1.02 1.89 1.98 1.7 3.5-.19 1.53-1.16 2.89-2.27 3.89-2.22 2-5.54 2.85-8.47 2.37-3.17-.51-5.75-2.51-7.25-5.31-1.34-2.5-1.99-6.43-.15-8.88.97-1.29 2.7-1.64 4.19-1.94 1.68-.34 3.39-.54 5.09-.8 3.39-.52 7.58-1.68 8.99-5.19 1.48-3.66-1.03-7.4-4.47-8.67-1.58-.59-3.28-.6-4.94-.76s-3.37-.39-5.07-.53c-3.55-.3-7.18-.2-10.49 1.27-6.4 2.86-10.19 10.5-10.54 17.21-.09 1.74.09 3.47.43 5.18 1.21-.7 2.42-1.41 3.63-2.11-1.76-1.75-1.89-4.43-2.02-6.77q-.27-4.935-.27-9.87c0-3.19.26-6.39.23-9.58-.03-2.59-.72-5.41-3.13-6.79-2.49-1.42-5.74-.94-8.16.4-2.52 1.4-4.16 3.82-4.89 6.57-.75 2.83-.92 5.93-.98 8.85s.13 5.91.52 8.85c.91 6.69 3 13.15 6.17 19.12l3.42-2.64a60.4 60.4 0 0 1-8.73-14.52c-1.96-4.64-3.46-10.67-9.32-11.57-2.63-.4-5.2.69-6.53 3.04-1.21 2.15-1.06 4.77-.63 7.11.95 5.18 2.95 10.29 5.21 15.02 2.69 5.64 6.16 10.86 10.23 15.6l1.59-3.84c.42.06-.39-.1-.48-.12-.26-.07-.52-.15-.78-.23-.43-.14-1.04-.44-1.64-.79-1.31-.77-2.44-1.76-3.5-2.85-1.39-1.44-2.6-3.02-3.7-4.69-1.29-1.97-2.19-3.89-4.45-4.89-1.88-.83-4.03-1.36-6.04-.68-2.14.72-3.41 2.56-4.15 4.6-1.35 3.73-.02 7.74 1.89 11.02 4 6.88 9.74 12.61 16.67 16.48 6.88 3.84 14.58 6.06 21.37 10.06 6.76 3.99 9.75 11.37 10.42 18.93.1 1.08.86 2.02 2.02 2.02 1.02 0 2.11-.92 2.02-2.02-.31-3.48-.62-7-1.76-10.32-1.11-3.25-2.82-6.29-5.2-8.78-2.56-2.69-5.8-4.48-9.12-6.05s-6.96-3.03-10.44-4.55-6.84-3.11-9.99-5.15-5.93-4.62-8.28-7.62c-2.06-2.62-4.35-5.43-5.27-8.69-.4-1.4-.47-2.87.13-4.23.71-1.62 1.73-1.65 3.3-1.11.93.32 1.35.67 1.85 1.51a45 45 0 0 0 2.1 3.19c1.28 1.78 2.68 3.5 4.29 5 2.48 2.31 5.35 4.02 8.74 4.46 2.12.27 2.71-2.54 1.59-3.84a65.6 65.6 0 0 1-13.43-24.76c-.5-1.73-2.87-9.01 1.16-8.57 2.02.22 3.21 2.02 4.02 3.69 1.05 2.17 1.76 4.5 2.75 6.7 2.34 5.23 5.41 10.06 9.02 14.49 1.61 1.98 4.53-.55 3.42-2.64-4.9-9.2-6.92-19.76-5.84-30.12.24-2.31.54-4.93 2.36-6.57 1.13-1.02 4.03-2.34 5.28-.82 1.18 1.43.54 4.47.48 6.12-.11 2.96-.14 5.92-.1 8.88.04 3.09.06 6.23.4 9.31.31 2.85 1.04 5.6 3.12 7.68 1.61 1.61 4.04-.06 3.63-2.11-1.19-5.97 1.27-12.76 6.22-16.38 2.59-1.9 5.94-2.05 9.03-1.91 1.65.07 3.3.24 4.94.42 1.45.15 3 .12 4.41.51 1.22.34 2.45 1.18 2.51 2.58.05 1.32-1.31 2.03-2.38 2.46-3.17 1.28-6.74 1.13-10.03 1.88-3.69.84-6.43 3.2-7.25 6.98-.74 3.4-.14 6.94 1.48 10 3.26 6.16 10.55 9.04 17.18 6.99 3.2-.99 6.21-3.07 7.85-6.04 1.86-3.37 1.62-7.06-.96-9.96-1.04-1.16-2.15-2.09-2.51-3.67-.31-1.39-.04-2.95.87-4.08 1.89-2.34 4.92-2.2 7.27-.72 2.78 1.75 5.27 4.78 6.95 7.57 1.97 3.29 2.02 7.15 1.63 10.87-.78 7.56-3.75 14.72-4.88 22.22-.48 3.18-.82 6.39-.86 9.61-.04 3.07-.02 6.57 1.06 9.48.48 1.3 1 2.56 1.74 3.73 1.11 1.74 3.47.23 2.7-1.58Z"/><path d="M89.61 128.96c.05-1.73 1.02-3.2 2.03-4.54 1.07-1.41 2.3-2.7 3.54-3.96s2.52-2.48 3.73-3.77a32 32 0 0 0 1.77-2.06c.64-.8 1.44-1.65 1.66-2.68.3-1.34-1.17-2.75-2.47-1.9-.85.57-1.36 1.42-1.99 2.2s-1.24 1.46-1.87 2.17c-1.3 1.48-2.66 2.91-3.98 4.38-2.54 2.83-5.42 6.12-5.36 10.15.03 1.89 2.88 1.89 2.94 0Zm-20.62 6.08c.91-2.54 1.82-5.09 2.98-7.53.57-1.19 1.18-2.37 1.87-3.5.73-1.2 1.64-2.26 2.4-3.44.4-.63.19-1.52-.39-1.96-.63-.47-1.4-.38-1.99.12-1.09.93-1.92 2.23-2.68 3.44-.77 1.23-1.43 2.52-2.02 3.84-1.18 2.68-2.12 5.46-3.04 8.24-.25.76.29 1.62 1.04 1.83.82.23 1.55-.28 1.83-1.04m-36.45-7.82c3.1 4.55 5.07 7.25 5.75 8.33 4.7 7.43 9.51 14.91 15.9 20.95 5.13 4.85 11.18 8.66 17.56 11.64 1.49.7 2.94 1.48 4.58 1.77.53.09 1.07.12 1.6.04.15-.02.71-.07.78-.22.07-.14-.23-.54-.23-.74 0-.33-.16-.63-.32-.92-1.53-2.88-2.54-6.01-3.83-9.01s-2.93-5.94-5.42-8.05c-2-1.69-4.45-2.75-6.84-3.81a364 364 0 0 1-15.75-7.42c-1.53-.77-3.09-1.56-4.31-2.77"/><path d="M31.37 127.91c1.56 2.69 3.28 5.27 4.98 7.87 1.99 3.04 3.79 6.2 5.81 9.23 4.7 7.07 10.18 13.45 17.14 18.38 3.35 2.37 6.93 4.41 10.64 6.15 1.88.88 3.79 1.95 5.87 2.29 1.6.26 4.54.32 4.83-1.85.07-.52-.07-.9-.24-1.39-.1-.29.02-.07-.08-.44-.3-1.02-.96-1.97-1.41-2.93-.94-2.04-1.68-4.16-2.54-6.24-1.52-3.66-3.38-7.28-6.54-9.79-3.81-3.02-8.73-4.62-13.11-6.64-2.34-1.09-4.67-2.19-6.99-3.33-2.13-1.04-4.54-1.99-6.32-3.59s-4.59 1-2.77 2.77c1.61 1.57 3.55 2.55 5.55 3.55s4.05 2 6.09 2.97c4.03 1.92 8.2 3.57 12.17 5.59 3.69 1.88 5.98 4.7 7.75 8.4.91 1.91 1.61 3.9 2.41 5.85.41 1.02.84 2.03 1.3 3.02.21.45.53.92.68 1.4.08.24.25 1.65.2.54l.97-1.69s.16-.07.21-.05c-.13-.05-.7.03-.8.03-.46-.03-.92-.17-1.36-.32-1.11-.36-2.14-.91-3.19-1.41-1.94-.94-3.85-1.95-5.72-3.04-3.76-2.19-7.34-4.71-10.56-7.64-6.64-6.03-11.54-13.55-16.5-20.95-1.95-2.9-4.14-5.66-6.32-8.4-.98-1.23-2.89.35-2.14 1.65Zm88.16-11.93c2.56 4.95 3.67 10.52 4.41 16.04.46 3.46.79 7 .1 10.42-1.02 5.07-4.16 9.41-7.21 13.58-.17.23-.44.3-.68.46-.74.51-1.26.16-1.38-.07-.62-1.22.18-3.06.16-4.43-.09-8.61-.15-17.41 2.64-25.55.85-2.47 1.97-4.99 1.67-7.59"/><path d="M118.27 116.72c1.45 3.16 2.28 6.58 2.89 9.99.63 3.53 1.19 7.18 1.25 10.77s-.66 6.67-2.24 9.74c-.76 1.47-1.63 2.89-2.54 4.27-.48.72-.98 1.44-1.48 2.14-.2.29-.39.62-.63.88-.13.19-.17.24-.11.15-.54.24-.3.37.73.38l.5.86c-.46-1.1.12-2.44.19-3.59.09-1.48-.02-3-.03-4.49 0-3.32.06-6.64.36-9.94s.83-6.35 1.74-9.41c.94-3.17 2.51-6.23 2.23-9.63-.2-2.42-4-2.44-3.8 0 .26 3.09-1.31 5.95-2.16 8.84-.86 2.95-1.37 6-1.71 9.06s-.45 6.15-.47 9.23c-.01 1.39 0 2.78 0 4.17.01 1.5-.16 2.82-.34 4.3-.12 1.04-.08 2.18.52 3.08.86 1.3 2.48 1.4 3.77.75 1.19-.6 1.82-1.6 2.59-2.64.86-1.16 1.71-2.34 2.49-3.56 1.57-2.41 2.9-5.04 3.67-7.83.84-3.05.88-6.24.58-9.37-.65-6.81-2.12-13.6-5.49-19.62-.93-1.67-3.29-.2-2.52 1.47ZM93.4 96.42c-2.38.17-4.75.33-7.12.59-1.55.17-3.21.42-4.36 1.48-1.04.95-1.46 2.39-1.81 3.75-.49 1.9-.92 3.94-.31 5.81.47 1.43 1.51 2.61 2.71 3.53 2.17 1.67 4.92 2.57 7.66 2.5s5.44-1.09 7.54-2.85c1.01-.85 1.93-1.99 1.95-3.31.02-1.07-.57-2.06-1.13-2.97-.47-.76-.93-1.52-1.4-2.29-.63-1.03-1.27-2.08-1.63-3.24s-.41-2.46.11-3.55"/><path d="M93.4 94.92c-2.42.11-4.85-.12-7.28.05-2.24.15-4.62.63-6.14 2.43-1.4 1.65-1.97 3.89-2.36 5.97-.45 2.35-.43 4.74.78 6.88 2.21 3.88 7.11 6.03 11.44 6.03s9.29-2 11.29-5.84c1.43-2.74.09-5.18-1.37-7.54-1.16-1.88-3.15-4.15-2.19-6.49.87-2.12-2.81-3.69-3.73-1.57-1.8 4.15.77 7.71 2.85 11.18.32.54.86 1.24.82 1.9-.03.55-.5 1.02-.87 1.37-1.17 1.14-2.72 1.89-4.29 2.3-3.01.77-6.52.04-8.87-2.04-1.14-1.01-1.82-2.14-1.79-3.7s.43-3.38 1.07-4.8c.71-1.6 2.36-1.79 3.93-2.04 2.24-.36 4.48-.87 6.73-1.09 1.89-.18 1.96-3.09 0-3Z"/><path d="M100.18 94.24c1.13-2.74 2.47-5.42 3.68-8.13 1.24-2.8 2.38-5.64 3.55-8.47 1.13-2.74 2.24-5.49 3.36-8.24.56-1.37 1.11-2.75 1.67-4.12s1.42-3 1.28-4.46c-.14-1.56-1.81-2.29-3.01-1.25-1.08.93-1.57 2.6-2.1 3.89-.6 1.45-1.17 2.9-1.76 4.35-1.14 2.83-2.28 5.65-3.4 8.48-1.09 2.75-2.21 5.5-3.22 8.28-1.07 2.93-2.01 5.91-3.16 8.81-.32.82.35 1.77 1.13 1.99.93.27 1.66-.33 1.99-1.13Z"/><path d="m111.33 60.78-.15-2.16c-.11-1.61-.21-3.29.45-4.76.65-1.47 2.32-2.63 3.86-2.14 1.28.41 2.04 1.85 1.97 3.19s-.82 2.57-1.74 3.55c-1.18 1.25-2.64 2.18-4.09 3.09"/><path d="M112.8 60.78c.01-1.63-.12-3.31.06-4.93-.03.27.03-.14.04-.22.04-.19.09-.39.15-.58.02-.08.22-.56.1-.3.08-.17.18-.33.28-.5.17-.28-.15.13.08-.1.12-.12.25-.23.36-.36.13-.14-.06.04-.08.05.08-.06.15-.11.23-.16.06-.04.12-.07.18-.11.04-.02.31-.17.1-.06s.05-.01.11-.03l.2-.06c.05-.01.27-.04.03-.01-.26.03.03 0 .1 0h.2c0 .03-.35-.09-.14-.01.08.03.18.05.27.08.21.05-.24-.15-.07-.02.35.28-.12-.17.11.06.06.05.36.41.21.21s.08.15.12.21c.03.05.17.31.06.09s.01.05.03.1c.03.1.16.37.12.46 0 0-.02-.37-.02-.15 0 .07 0 .14.01.2s-.04.54 0 .35c.03-.22-.01.04-.02.07-.03.13-.06.26-.1.39-.03.11-.25.54-.08.23-.08.14-.14.29-.23.43-.09.16-.2.32-.31.48-.05.07-.1.13-.14.2.15-.21.03-.03-.06.07-.27.32-.56.62-.87.91q-.255.24-.51.45c-.07.06-.54.43-.3.25-.73.55-1.5 1.05-2.27 1.55s-1.17 1.6-.64 2.43 1.58 1.15 2.43.64c1.73-1.06 3.55-2.18 4.87-3.75 1.41-1.67 2.35-3.93 1.67-6.11-.62-2-2.47-3.65-4.66-3.39s-3.98 1.92-4.63 4.05c-.73 2.36-.19 4.92.15 7.29.1.72.97 1.14 1.61 1.05.72-.1 1.27-.71 1.27-1.44Z"/><path d="M101.77 71.37c-5.24-9.15-8.61-19.62-10.2-30.02l-1.94 2.54c2.04-.18 3.7.84 5.36 1.9 1.87 1.19 3.73 2.41 5.9 3 1.25.34 2.54-.63 2.53-1.93-.02-8.09.73-16.16 2.2-24.11l-3.47.92c3.72 3.25 7.38 6.61 10.64 10.32.88 1.01 2.5.62 3.15-.41 5.29-8.36 12-15.81 19.95-21.72-1.08-.62-2.16-1.24-3.25-1.86 1.27 9.9 2.63 20.69-1.61 30.1-.79 1.76.5 3.55 2.45 3.18 6.03-1.15 12.09-1.97 18.2-2.53l-2.11-2.77c-1.11 4.38-4.76 7.55-8.03 10.42a69.5 69.5 0 0 1-11.95 8.47c-1.86 1.04-1.09 4.19 1.11 4.09 6.08-.28 12.17-.4 18.26-.34l-1.95-3.39c-2.03 2.84-5.31 4.67-8.28 6.37-3.44 1.97-7.01 3.7-10.64 5.28s-7.26 3.01-10.93 4.38c-3.61 1.35-7.47 3.25-11.41 2.94-1.24-.1-2.3 1.13-2.3 2.3 0 1.33 1.06 2.21 2.3 2.3 4.41.34 8.59-1.65 12.62-3.17s8.08-3.06 12.05-4.79 7.74-3.59 11.4-5.79c3.42-2.06 6.74-4.27 9.08-7.57 1.02-1.44-.35-3.38-1.95-3.39-6.09-.04-12.18.11-18.26.46l1.11 4.09c4.7-2.7 9.15-5.82 13.23-9.4 3.75-3.29 7.52-7.12 8.75-12.12.31-1.26-.64-2.92-2.11-2.77-6.49.64-12.94 1.57-19.35 2.73l2.45 3.18c4.7-10.18 3.59-21.49 2.18-32.28-.18-1.41-1.77-2.97-3.25-1.86-8.52 6.36-15.81 14.26-21.23 23.42l3.15-.41c-3.37-3.62-6.78-7.19-10.54-10.42-1.07-.92-3.17-.75-3.47.92-1.48 8.33-2.2 16.75-2.2 25.21l2.53-1.93c-4.36-1.2-7.42-5.59-12.33-5.06-1.39.15-2.17 1.16-1.94 2.54.91 5.38 2.3 10.69 4.21 15.81 1.92 5.15 4.42 9.97 7.2 14.7 1 1.71 3.64.17 2.66-1.55Z"/><path d="M111.21 45.09c1.54 0 1.54-2.39 0-2.39s-1.54 2.39 0 2.39m5.04-3.74c1.71 0 1.71-2.66 0-2.66s-1.71 2.66 0 2.66m2.52 5.47c1.76 0 1.76-2.73 0-2.73s-1.76 2.73 0 2.73m4.26 20.5c1.97 0 1.97-3.06 0-3.06s-1.97 3.06 0 3.06m1.75-5.72c2.08 0 2.08-3.23 0-3.23s-2.08 3.23 0 3.23m-5.23 2.76c1.4 0 1.4-2.17 0-2.17s-1.4 2.17 0 2.17"/></svg>