<?xml version="1.0" encoding="UTF-8"?><svg xmlns="http://www.w3.org/2000/svg" viewBox="0 0 180 180"><path d="M56.38 96.89c-.32-.59-.73-1.42-1.34-2.01s-1.32-1.1-2.05-1.5c-1.42-.77-2.96-1.4-4.51-1.86-1.43-.42-2.87-.68-4.34-.9-.86-.13-1.73-.29-2.6-.28-.22 0-.44.03-.67.07.09-.01-.77.13-.43.07-.52.09-.86.05-1.46.18-1.45.32-1.86 2.67-.43 3.33.25.12.76.27.86.3.46.16.7.33 1.28.53.65.23 1.36.32 2.04.44 1.37.25 2.74.59 4.07 1 .62.19 1.24.39 1.85.62.05.02.63.25.37.14-.22-.09.21.1.25.11q.435.195.87.42c.6.31 1.21.63 1.81.95.14.08.28.15.43.22l.56.24q-.225-.09 0 0c.31.13.84.25 1.05.34.74.31 1.54.33 2.14-.28.57-.57.65-1.45.28-2.14Zm-23.22-5.1c-8.82 1.92-16.79 7.14-21.5 14.94-4.61 7.63-5.54 16.9-1.72 25.03 3.45 7.36 10.66 12.87 18.59 14.51 8.73 1.8 17.34-.92 23.88-6.86 3.6-3.27 6.52-7.43 8.39-11.92 1.82-4.36 2.96-9.41 2.62-14.15-.17-2.32-3.54-2.36-3.64 0-.33 7.53-3.39 14.68-8.43 20.3-4.96 5.53-11.65 8.79-19.17 8.18-6.63-.54-12.95-4.43-16.5-10.03-3.86-6.1-4.09-13.63-.96-20.12 3.74-7.78 11.17-13.88 19.38-16.46 2.17-.68 1.28-3.89-.94-3.41Zm96.03 6.01c-5 3.57-9.07 8.09-11.38 13.84-2.05 5.11-2.52 10.87-.99 16.18 2.91 10.13 12.06 17.52 22.41 18.85 19.11 2.46 35.13-17.52 33.01-35.72-.59-5.07-2.59-9.77-6.09-13.53-4.64-4.98-11.76-6.42-18.3-6.82-2.02-.12-2.53 3.25-.48 3.58 5.18.83 10.57 1.59 14.46 5.45 2.71 2.69 4.42 5.83 5.25 9.49 1.64 7.24-.76 15.15-5.02 21.41-4.21 6.18-10.7 10.94-18.42 11.31-8.69.41-17.02-4.47-20.83-12.31-4.97-10.22.33-22.1 8.52-28.94 1.52-1.27-.5-3.94-2.14-2.77Z"/><path d="M29.31 108.29c1.48-1.66 3.37-3.01 5.4-3.79 2.28-.89 4.25-1.12 6.66-1.24.79-.04 1.47-.58 1.57-1.38.09-.71-.35-1.62-1.14-1.75-5.41-.89-11.15 1.97-14.49 6.16-.48.6-.59 1.43 0 2.01.52.52 1.5.58 2.01 0Zm6.64 4.02.25-.08.11-.04s.05-.02.07-.02l.32-.13.03-.02.44-.24c.14-.08.26-.18.34-.32.11-.12.18-.26.22-.42l.04-.33c0-.17-.03-.33-.11-.47a.6.6 0 0 0-.16-.27c-.09-.13-.2-.24-.34-.32l-.29-.12c-.22-.06-.43-.06-.65 0l-.5.08c-.08.01-.16.04-.24.07l-.24.08q-.255.06-.45.24c-.14.09-.26.22-.34.37-.1.15-.15.32-.16.49-.04.18-.03.35.02.53l.13.32c.12.2.28.36.47.47l.32.13c.23.06.47.06.7 0Zm-8 18.25c2.05 1.66 4.61 2.51 7.26 2.45s5.23-.92 7.26-2.64c1.32-1.12-.41-3.37-1.86-2.4-3.39 2.26-7.46 2.42-10.97.41-.6-.34-1.39-.19-1.8.36-.38.51-.44 1.39.11 1.84Zm7.99-6.12c2.01 0 2.01-3.12 0-3.12s-2.01 3.12 0 3.12m123.3-5.05c-.91 2.54-2.23 5-4 6.97-.9 1.01-1.91 1.93-2.95 2.66-1.21.85-2.68 1.38-3.81 2.32-.94.77-.2 2.6 1.03 2.48 1.62-.16 3.16-1.18 4.46-2.12s2.5-1.99 3.55-3.19c2.08-2.39 3.71-5.27 4.25-8.42.29-1.66-1.96-2.3-2.53-.7m-7.79 4.39c1.98 0 1.98-3.08 0-3.08s-1.98 3.08 0 3.08"/><path d="M65.52 71.05c3.7-.19 7.4-.42 11.11-.48l-1.82-1.82c-.04 7.56.66 15.3 3.7 22.29 2.44 5.6 6.57 11.01 12.62 12.89 6.56 2.05 13.74-.92 18.87-4.98 5.44-4.29 9.18-10.38 11.7-16.76 2.73-6.89 3.88-14.31 3.69-21.7-.13-5.05-.92-9.99-1.74-14.96-.25-1.51.31-2.95 1.92-3.35 1.07-.26 2.53.26 3.06 1.53.34.83.24 1.83.29 2.71.08 1.32.18 2.64.29 3.96.2 2.3.45 4.6.75 6.88q.855 6.48 2.19 12.87c1.69 8.07 3.93 16 6.05 23.96 1.12 4.2 2.33 8.41 3.18 12.67.45 2.23.73 4.5 1.19 6.73.12.59.26 1.18.41 1.77.11.42.18 1.19.46 1.52.23.28.23 0 .22-.3-.03-.45.24-.05-.02-.14-.13-.05-.72.27-.88.33-.67.23-1.57.8-2.26.84-.75.05-1.09-.89-1.3-1.47-.82-2.3-1.36-4.74-2.02-7.09-1.38-4.92-2.77-9.85-4.15-14.77-.69-2.46-1.4-4.92-2.05-7.39-.47-1.76-2.7-1.83-3.64-.48-5.77 8.33-11.56 17.12-20.69 22.08-4.07 2.21-8.67 3.51-13.33 3.17-4.1-.3-8.06-1.96-11.35-4.38-3.7-2.73-6.55-6.65-7.8-11.08-.74-2.61-4.68-1.52-4.06 1.12.06.26.07.33-.03.72-.14.54-.28.76-.61 1.27-.65 1.02-1.56 1.89-2.45 2.69-1.72 1.55-3.63 2.83-5.53 4.13-6.43 4.41-12.41 9.52-19.27 13.28-.94.51-1.89.84-2.78.05-.77-.68-.87-1.68-.35-2.54 1.84-3.05 5.5-4.66 8.33-6.6 3.44-2.36 6.72-4.91 9.93-7.57 2.64-2.18 5.45-4.23 7.3-7.18 2.08-3.32 2.49-7.43 2.61-11.26.12-3.87-.23-7.75-.14-11.62.06-2.5-3.83-2.5-3.89 0-.09 3.74.24 7.48.16 11.22-.07 3.5-.45 7.37-2.65 10.24s-5.77 5.32-8.7 7.67c-3.56 2.85-7.32 5.43-11.17 7.87-2.82 1.79-6.37 4.74-6.29 8.44.07 3.51 3.24 6.4 6.74 6.09 2.11-.19 4.02-1.56 5.78-2.63 1.85-1.13 3.65-2.35 5.42-3.61 3.61-2.55 7.09-5.27 10.7-7.81 2.46-1.73 4.97-3.39 7.16-5.45 2.29-2.16 4.67-5.16 3.79-8.51-1.35.37-2.71.75-4.06 1.12 2.83 9.16 10.86 16.46 20.36 18.15 10.88 1.93 21.22-3.8 28.55-11.45 4.51-4.71 8.22-10.15 11.77-15.59l-3.64-.48c1.5 5.06 2.88 10.16 4.31 15.24.72 2.54 1.43 5.08 2.15 7.62.66 2.36 1.17 4.84 2.1 7.11.85 2.07 2.59 3.77 4.97 3.61.97-.07 1.78-.51 2.68-.83.8-.28 1.64-.51 2.37-.94s1.39-1.11 1.6-1.96c.27-1.06-.19-2.02-.48-3.02-.7-2.41-1.03-4.9-1.45-7.36-.78-4.47-2.05-8.87-3.21-13.25-1.1-4.12-2.23-8.23-3.31-12.36-2.2-8.4-4.14-16.89-5.23-25.52-.3-2.39-.55-4.78-.73-7.18-.17-2.21.06-4.77-.82-6.83-1.56-3.64-6.23-5.03-9.53-2.8a6.55 6.55 0 0 0-2.86 4.99c-.08 1.14.24 2.28.43 3.4.22 1.28.43 2.56.6 3.84.7 5.06 1 10.21.57 15.31-1.06 12.68-7.51 28.28-20.51 32.73-3.01 1.03-6.11 1.39-9.15.29-2.61-.94-4.81-2.96-6.45-5.16-3.96-5.3-5.55-11.86-6.11-18.34-.22-2.56-.34-5.13-.64-7.69-.15-1.29-1.04-1.93-2.3-1.75-3.53.49-7.08.8-10.63 1.16-1.81.19-1.89 2.99 0 2.89Z"/><path d="M54.6 65.74c1.29 2.96 2.87 5.8 4.72 8.45.58.83 1.24 1.68 2.19 2.01.78.26 1.63.12 2.44-.03a64 64 0 0 0 21.59-8.48c1.25-.78 2.6-1.81 2.67-3.28.07-1.37-1.08-2.56-2.38-3s-2.71-.32-4.08-.22c-7.23.56-14.51.45-21.72-.32-1.25-.13-2.52-.29-3.74-.02-1.23.27-2.42 1.04-2.83 2.22-.39 1.12-.01 2.35.43 3.45.76 1.9 4.28 5.98 5.43 7.67"/><path d="M53.28 66.1c1.3 3.48 2.92 7 5.27 9.93 1.06 1.32 2.44 2.12 4.17 2.09s3.51-.54 5.16-.93c3.59-.85 7.08-2.08 10.46-3.54 3.11-1.34 6.41-2.85 9.14-4.87 1.36-1 2.52-2.27 2.71-4.02s-.69-3.41-2.12-4.46c-2.97-2.19-7.35-1.1-10.76-.98-3.95.14-7.91.09-11.86-.17-1.97-.13-3.93-.33-5.89-.53-1.93-.2-3.94-.2-5.68.8-3.6 2.06-3.18 6.33-1.13 9.37 1.58 2.35 3.55 4.43 5.42 6.55 1.26 1.42 3.37-.39 2.54-1.96-.91-1.71-2.16-3.27-3.24-4.88-.49-.73-.97-1.48-1.39-2.25.03.06-.3-.64-.18-.35.16.4-.29-.95-.25-.79-.13-.49-.32-1.08.02-1.52.62-.83 2.08-.71 2.96-.66 1.62.09 3.24.31 4.86.43 3.2.24 6.42.35 9.63.32 3.2-.02 6.37-.25 9.56-.46.99-.06 2.6-.26 3.3.67.55.74-.39 1.36-.96 1.77-4.6 3.3-10.18 5.61-15.57 7.24-1.54.47-3.1.89-4.67 1.26-1.39.32-2.62.82-3.65-.41-2.14-2.54-3.82-5.74-5.33-8.69-.7-1.36-3.04-.41-2.5 1.05Zm40.65 37.14c-2.38-.49-4.77.9-6.46 2.64-3.08 3.17-5.56 9.18-3.22 13.35 3.04 5.42 11.43 6.81 16.34 3.18 4.1-3.03 6.08-9.92 3.98-14.63-1.49-3.34-5.55-4.66-9.2-4.93"/><path d="M94.36 101.7c-3.24-.7-6.1.56-8.35 2.91-1.85 1.93-3.25 4.35-4.04 6.91-.82 2.69-.88 5.63.33 8.21 1 2.15 2.9 3.92 4.98 5.01 4.17 2.18 9.62 2.32 13.67-.25 4.21-2.67 6.54-8.1 6.33-12.99-.12-2.86-1.09-5.75-3.36-7.61-2.28-1.86-5.58-3.06-8.54-2.96-2.08.07-2.74 3.35-.51 3.79 2 .4 4.01.54 5.81 1.59 1.59.92 2.42 2.32 2.76 4.1.67 3.53-.73 7.61-3.38 10.02-4.82 4.37-15.49 1.59-14.69-5.88.24-2.21 1.26-4.4 2.56-6.17s3.63-3.8 6.02-3.51c1.79.22 2.18-2.77.43-3.15ZM27.03 86.19c5.28-3.33 12.24-2.56 18.07-1.32 2.86.61 5.74 1.44 8.37 2.71 1.34.65 2.63 1.4 3.84 2.27.95.69 2.38 1.68 2.95 2.7l-.33-1.23.08-.22 2.25-1.72h-.13c-1.96-.13-3.04 2.59-1.62 3.9l.1.09c1 .91 2.29.84 3.3 0 3.57-2.95-3.59-7.59-5.72-8.86-3.22-1.91-6.83-3.16-10.49-3.91-7.49-1.53-15.68-1.56-22.18 3-1.55 1.09-.14 3.62 1.51 2.58Zm126.79-8.6c-2.42-.47-4.91-.83-7.37-.53-2.68.33-5.19 1.08-7.61 2.29-1.2.6-2.81 1.34-3.37 2.62-.41.94-.12 2.15.79 2.69.96.57 1.94.33 2.86-.18 1.02-.57 2.12-1.25 3.12-1.68.94-.41 2.14-.77 3.21-1.06 2.57-.7 5.22-1.07 7.92-.74 1.93.23 2.37-3.04.46-3.41Zm-29.58-41.55c-3.24-.03-5.64 3.01-6.2 5.96-.76 3.92 1.89 6.76 5.61 7.64 2 .47 4.15.43 6.07-.3s3.59-2.18 4.43-4.06c.79-1.78.79-3.9-.01-5.68-1.86-4.14-8.32-4.93-12.25-2.9-2.6 1.35-3.97 3.31-3.39 6.29"/><path d="M124.24 34.57c-5.12-.2-8.82 5.36-8.07 10.11.8 5.06 6.46 7.55 11.1 7.07 5.69-.58 10.39-5.45 9.07-11.38-1.03-4.63-5.85-6.86-10.25-6.66-2.55.12-5 .92-6.99 2.53-1 .81-1.82 1.87-2.19 3.11-.41 1.39-.13 2.66.21 4.03.38 1.53 3.01 1.26 2.82-.38-.05-.42-.06-.75.05-1.14.05-.2.11-.39.17-.59 0 .02.2-.59.08-.31.33-.8.58-1.1 1.2-1.65.43-.39 1.09-.78 1.77-1.1.54-.25-.34.11.24-.09.18-.06.36-.13.55-.18.41-.12.82-.21 1.24-.28.37-.06-.46.04.18-.03.2-.02.4-.04.6-.05.4-.02.8-.02 1.21 0 .2.01.4.03.6.05.64.06-.19-.04.18.02.42.07.84.16 1.25.28.7.2.95.3 1.64.73.16.1.31.2.46.31-.28-.22.18.17.18.18.13.13.26.26.38.39.14.17.16.19.05.05l.21.3c1.99 3.13-.22 6.9-3.46 7.88-1.83.55-3.83.42-5.62-.23-1.27-.46-2.39-1.34-2.98-2.58-.25-.53.07.28-.11-.28-.06-.19-.11-.38-.15-.58-.13-.6 0 .3-.05-.32-.02-.29-.03-.57-.01-.86.03-.72.27-1.61.6-2.28.75-1.54 2.05-2.98 3.86-3.1s1.91-2.88 0-2.95Zm4.24 84.33c.11-.45.24-.88.41-1.31.02-.04.14-.33.04-.11.04-.09.08-.17.12-.26.09-.19.19-.39.29-.57.22-.4.45-.8.69-1.18.12-.18.24-.36.37-.54.07-.1.14-.2.21-.29.15-.21-.03.03.07-.1.56-.71 1.17-1.39 1.81-2.03.71-.72 1.45-1.38 2-2.24.33-.51.2-1.24-.21-1.66-.44-.44-1.12-.5-1.66-.21-.93.49-1.69 1.28-2.41 2.03s-1.38 1.54-2.01 2.37c-1.19 1.58-2.1 3.39-2.47 5.34-.14.73.2 1.57.99 1.75.73.17 1.56-.22 1.75-.99Zm6.96.71s.02-.07.04-.1l-.15.35c.06-.15.14-.28.24-.41l-.23.3c.1-.13.22-.25.35-.35l-.3.23c.14-.11.29-.21.42-.32.04-.04.08-.07.13-.11l-.3.23c.09-.07.19-.13.3-.19.17-.09.3-.21.4-.37.13-.14.21-.3.25-.48l.05-.38c0-.2-.03-.38-.12-.55a.6.6 0 0 0-.18-.31c-.1-.15-.23-.28-.4-.37l-.34-.14c-.25-.07-.5-.07-.76 0-.27.05-.52.17-.77.28-.18.08-.33.22-.48.35-.06.05-.11.1-.16.15-.13.14-.25.3-.36.46-.05.06-.09.12-.13.19s-.07.13-.1.21c-.08.18-.16.36-.22.55-.06.2-.07.39-.03.59 0 .2.07.38.17.55.09.17.22.31.38.41.14.13.31.22.5.26l.39.05c.27 0 .51-.07.74-.2l.3-.23c.18-.18.31-.4.38-.65Z"/></svg>