<?xml version="1.0" encoding="UTF-8"?><svg xmlns="http://www.w3.org/2000/svg" viewBox="0 0 180 180"><path d="M114.7 26.8c-7.11.84-14.24 1.54-21.34 2.49-6.76.91-13.49 1.94-20.21 3.09a827 827 0 0 0-20.93 3.85c-3.08.61-6.46 1.05-9.14 2.83-2.63 1.75-4.02 4.48-4.5 7.54-.49 3.19-.43 6.47-.55 9.68-.12 3.36-.23 6.72-.34 10.09-.23 6.96-.44 13.92-.61 20.88-.34 13.8-.56 27.61-.47 41.41.04 6.77-.44 14.06 1.6 20.6.48 1.53 1.13 2.97 2.21 4.17 1.09 1.22 2.54 2.08 3.95 2.88 2.97 1.68 5.95 3.34 9.09 4.7 3.24 1.4 6.55 2.45 10.06 2.86s7.35.02 10.96-.61c7.15-1.25 14.28-2.84 21.31-4.66s13.29-4 19.94-6c5-1.5 10.14-2.58 14.84-4.94 2.21-1.11 4.35-2.57 5.93-4.5 2.22-2.7 2.62-5.92 3.11-9.27 1.09-7.37 1.91-14.78 2.5-22.21 1.18-14.87 1.37-29.74.58-44.64-.39-7.48-.98-14.94-1.85-22.38-.38-3.29-.58-6.72-2.84-9.34-1.95-2.26-4.84-3.34-7.52-4.46-3.4-1.43-6.81-2.85-10.24-4.19-2.16-.85-3.75 2.85-1.6 3.78 3.33 1.45 6.67 2.83 10.04 4.19 2.3.93 5.3 1.85 6.67 4.1.65 1.07.86 2.35 1.03 3.57.27 1.9.46 3.83.67 5.74.37 3.48.69 6.97.96 10.46 1.07 14.2 1.09 28.48.31 42.7-.38 6.99-1 13.97-1.83 20.92-.42 3.51-.91 7.01-1.44 10.5-.41 2.72-.54 5.77-2.51 7.84-3.11 3.29-7.91 4.63-12.13 5.82-5.49 1.56-10.89 3.35-16.36 5-6.63 2-13.34 3.74-20.11 5.18-3.41.73-6.83 1.46-10.26 2.09s-6.78.98-10.16.53c-6.22-.83-11.91-4.1-17.26-7.18-1.06-.61-2.14-1.24-2.78-2.31-.76-1.26-1.05-2.83-1.33-4.25-.65-3.3-.66-6.7-.71-10.05-.38-26.05.49-52.12 1.37-78.15.1-3.03.04-6.12.39-9.14.3-2.57 1.3-4.6 3.75-5.65 2.89-1.24 6.29-1.59 9.35-2.22 3.27-.68 6.55-1.35 9.82-2 12.81-2.56 25.69-4.79 38.59-6.87 3.32-.54 6.65-1.04 9.99-1.46 1.88-.24 1.92-3.23 0-3Z"/><path d="M44.3 44.43c5.88.94 11.63 2.81 16.91 5.58 2.51 1.32 4.8 3.05 7.33 4.3 2.92 1.45 5.73 1.22 8.83.51 12.83-2.94 25.85-4.96 38.76-7.53 7.32-1.46 14.62-2.99 21.88-4.72 2.36-.56 1.36-4.19-1-3.63-12.71 3.02-25.56 5.42-38.34 8.13-6.35 1.35-12.69 2.7-19.02 4.11-2.85.63-6.06 1.91-8.81.39-2.53-1.4-4.78-3.23-7.37-4.56-5.88-3.01-12.2-4.81-18.77-5.43-1.61-.15-1.99 2.58-.38 2.84Z"/><path d="M71.05 53.52c.75 17.87 1.65 35.74 1.36 53.63-.14 8.75-.61 17.5-1.46 26.21-.43 4.35-.95 8.7-1.58 13.03-.55 3.75-.59 8.24-2.86 11.44-.94 1.33-2.2 2.62-3.82 2.85-1.16.17-2.32-.23-3.42-.63-2.25-.81-4.51-1.62-6.76-2.43-1.95-.7-3.93-1.42-5.6-2.65-4.1-3.02-5.51-8.46-6.18-13.51-1.06-8.06-.91-16.22-.72-24.35.56-24.16 1.5-48.3 2.82-72.43 1.16-.57 2.55-.27 3.8.06 8.49 2.26 16.7 5.54 24.42 9.73"/><path d="M69.56 53.52c.49 16.04 1.08 32.11.99 48.17-.04 7.93-.3 15.86-.89 23.77-.56 7.64-1.68 15.19-2.57 22.79-.34 2.89-.58 6.1-2.34 8.54-.81 1.11-1.78 2.07-3.23 1.81-1.79-.31-3.59-1.21-5.29-1.82-3.15-1.13-6.83-1.99-9.24-4.46-2.02-2.07-2.99-4.91-3.62-7.67-1.66-7.25-1.56-15.01-1.47-22.41.1-8 .35-15.99.6-23.98.55-17.87 1.29-35.73 2.32-53.57l-1.45 1.9c1.1-.44 2.09-.11 3.19.19 1.19.32 2.37.67 3.55 1.04 2.28.71 4.54 1.48 6.78 2.32 4.53 1.71 8.9 3.78 13.19 6.02 2.21 1.15 4.16-2.13 1.96-3.36-4.65-2.6-9.54-4.79-14.53-6.67-2.45-.92-4.94-1.76-7.45-2.5s-5.28-1.86-7.74-.86c-.86.35-1.4.95-1.45 1.9-.86 16.69-1.61 33.39-2.17 50.1-.28 8.34-.53 16.68-.71 25.02-.17 8.01-.27 16.14 1.07 24.07.53 3.16 1.45 6.39 3.24 9.09 2.01 3.05 4.86 4.82 8.22 6.1 1.9.73 3.83 1.39 5.74 2.08 1.79.64 3.65 1.52 5.57 1.62 3.54.18 6.24-2.9 7.54-5.88s1.51-6.51 1.97-9.84c.55-4.07 1.07-8.13 1.48-12.22.82-8.29 1.3-16.61 1.48-24.93.37-16.69-.14-33.5-1.34-50.15-.15-2.07-.29-4.13-.4-6.2-.1-1.91-3.04-1.93-2.98 0Zm9.12-14.25c-.26-5.08-.34-10.14-.74-15.22-.18-2.26-.51-4.57-.46-6.85.04-1.87 1.17-2.46 2.84-2.85 4.63-1.1 9.53-1.52 14.27-1.87 1.17-.09 2.34-.17 3.51-.21.72-.02 1.71-.14 2.22.47.39.47.49 1.31.58 1.87.19 1.12.28 2.26.41 3.39.33 2.81.68 5.61 1.07 8.4s.54 5.89 1.88 8.43c.55 1.05 2.22.79 2.51-.33.72-2.78.16-5.87-.11-8.68s-.59-5.71-.92-8.56c-.27-2.32-.28-5.01-1.66-7.01-1.61-2.33-4.24-2.62-6.86-2.48-5.71.29-11.43.93-17.06 1.96-2.27.42-4.56 1.2-5.97 3.13-1.56 2.14-1.29 4.75-1.03 7.24.35 3.27.7 6.55 1.11 9.82.41 3.26 1.04 6.47 1.48 9.72.22 1.65 2.99 1.26 2.9-.39Zm26.71 115.67c.87.66 1.27 1.78 2.06 2.54.53.51 1.2.84 1.89 1.1 3.42 1.28 7.43.85 10.51-1.11 3.08-1.97 5.15-5.43 5.42-9.07-1.76 1.53-4.11 2.13-6.37 2.68-4.02.99-8.05 1.97-12.07 2.96"/><path d="M104.26 156.07c.87.85 1.21 2.09 2.11 2.94 1 .94 2.38 1.49 3.68 1.83 2.64.68 5.61.6 8.17-.36 5.16-1.93 8.56-6.63 9.05-12.07.17-1.9-2.23-2.42-3.43-1.42-2.08 1.73-5.21 2.1-7.75 2.72-3.27.8-6.54 1.61-9.8 2.42-2.49.61-1.44 4.45 1.06 3.84 3.52-.86 7.05-1.71 10.57-2.57 3.13-.77 6.24-1.46 8.77-3.57l-3.43-1.42c-.34 3.75-2.98 7.17-6.56 8.36-1.87.62-3.85.77-5.77.28-.91-.23-1.83-.5-2.5-1.18-.77-.79-1.32-1.65-2.24-2.31-1.49-1.07-3.2 1.26-1.93 2.5Zm-24.97 5.69c-1.5 2.37-1.87 4.86-4.33 6.53-3.2 2.18-7.07 2.09-10.6.82-3.23-1.16-6.38-3.63-6.77-7.04 3.92 1.34 8.13 1.52 12.27 1.58 3.25.04 6.9-.14 9.12-2.51"/><path d="M77.85 160.92c-1.2 1.61-1.79 3.71-3.25 5.11-1.56 1.49-3.96 1.94-6.04 1.81-3.65-.23-8.3-2.34-8.86-6.35l-2.67 2.67c4.21 1.4 8.76 1.66 13.16 1.65 3.47 0 7.75-.51 10.11-3.38 1.51-1.83-.78-4.15-2.61-2.61-2.29 1.93-5.41 1.69-8.22 1.65-3.83-.06-7.63-.28-11.29-1.5-1.75-.58-2.88 1.17-2.67 2.67.81 5.85 7.39 9.11 12.7 9.47 3.05.21 6.09-.66 8.46-2.61 2.17-1.78 2.87-4.48 4.06-6.9.97-1.95-1.61-3.38-2.87-1.68Zm9.69-94.65c-.41 2.47-.12 4.86.16 7.33.29 2.5.58 5 .83 7.5.5 5.01 1.13 10.04 1.37 15.07.47 10.05.12 20.17-.83 30.18-.53 5.65-1.38 11.27-1.9 16.92-.14 1.49 2.21 1.76 2.58.35 2.51-9.67 3.24-19.95 3.66-29.91.21-5.03.24-10.07.11-15.1s-.13-10.07-.65-15.08c-.29-2.77-.6-5.53-1.02-8.28-.42-2.81-1.32-5.7-1.19-8.55.08-1.75-2.82-2.21-3.12-.42Zm15.29-3.89c-.41 2.47-.12 4.86.16 7.33s.58 5 .83 7.5c.5 5.01 1.13 10.04 1.37 15.07.47 10.05.12 20.17-.83 30.18-.53 5.65-1.38 11.27-1.9 16.92-.14 1.49 2.21 1.76 2.58.35 2.51-9.67 3.24-19.95 3.66-29.91.21-5.03.24-10.07.11-15.1s-.13-10.07-.65-15.08c-.29-2.77-.6-5.53-1.02-8.28-.42-2.81-1.32-5.7-1.19-8.55.08-1.75-2.82-2.21-3.12-.42Zm15.29-3.88c-.41 2.47-.12 4.86.16 7.33s.58 5 .83 7.5c.5 5.01 1.13 10.04 1.37 15.07.47 10.05.12 20.17-.83 30.18-.53 5.65-1.38 11.27-1.9 16.92-.14 1.49 2.21 1.76 2.58.35 2.51-9.67 3.24-19.95 3.66-29.91.21-5.03.24-10.07.11-15.1s-.13-10.07-.65-15.08c-.29-2.77-.6-5.53-1.02-8.28-.42-2.81-1.32-5.7-1.19-8.55.08-1.75-2.82-2.21-3.12-.42Z"/></svg>