<?xml version="1.0" encoding="UTF-8"?><svg xmlns="http://www.w3.org/2000/svg" viewBox="0 0 180 180"><path d="M124.11 8.86c-5.43 5.27-11.81 9.47-18.4 13.15-6.65 3.72-13.64 6.73-20.81 9.3-11.31 4.06-23.38 5.75-34.25 11.05C45.24 45 40.29 48.65 36.78 53.6c-4.5 6.34-5.74 14.28-4.62 21.86.57 3.86 2.07 7.41 3.72 10.92 1.54 3.27 3.4 6.68 3.95 10.3.96 6.32-6.31 10.18-8.92 15.22-1.81 3.5-2.14 7.57-.66 11.26 1.35 3.37 3.58 6.38 6.04 9.02 4.79 5.14 10.79 8.98 16.46 13.06 1.41 1.02 2.81 2.05 4.19 3.1 2.1 1.59 4.88-1.99 2.83-3.67-5.3-4.34-11.24-7.83-16.42-12.31-2.46-2.13-4.79-4.48-6.6-7.19-1.85-2.78-3.29-5.78-2.22-9.14.96-3 3.65-5.21 5.65-7.52 2.03-2.34 4.01-4.97 4.59-8.09 1.39-7.43-3.91-14.17-6.35-20.8-2.49-6.74-2.32-14.64 1.23-20.99 2.71-4.84 6.99-8.34 11.84-10.96 10.15-5.48 21.8-7.19 32.6-10.91 14.02-4.84 27.45-11.77 38.43-21.82 1.33-1.22 2.62-2.49 3.86-3.8 1.43-1.51-.79-3.74-2.29-2.29Z"/><path d="M123.7 9.57c-1.2 7.57-1.41 15.16-.56 22.78.84 7.5 2.46 14.94 4.61 22.17 3.75 12.6 10.63 24.34 12.71 37.41.96 6.02.41 12.41-2.66 17.76-3.04 5.3-8.26 9.44-14.06 11.34-6.48 2.13-14.47 2.06-19.88 6.67-4.56 3.88-4.55 10.01-5.89 15.37-.62 2.49-1.83 4.67-4.09 5.92-3.05 1.68-7.09 1.58-10.45 1.32-8.51-.66-16.44-4.31-24.69-6.23-2.92-.68-4.15 3.71-1.24 4.5 7.44 2.04 14.74 4.89 22.4 6.06 6.44.98 14.46 1.25 19.41-3.77 2.09-2.12 3.31-4.91 3.93-7.79.58-2.66.86-5.42 1.75-8.01.79-2.31 2.38-4.03 4.81-5.08 3.37-1.46 7.08-2.04 10.65-2.86 6.89-1.57 13.25-4.64 18.08-9.92 4.67-5.11 7.19-11.59 7.47-18.49.55-13.7-6.55-26.27-11.26-38.7-2.6-6.86-4.59-14.03-6.04-21.21-1.53-7.56-2.52-15.46-2.25-23.18.07-1.88.22-3.77.44-5.64s-2.89-2.23-3.18-.43Z"/><path d="M85.31 87.86c-10.63 21.03-21.61 41.87-32.04 63-2.95 5.97-5.82 11.97-8.45 18.08-.42.97-.29 2.1.7 2.68.9.53 2.16.22 2.68-.7 5.74-10.27 10.87-20.93 15.94-31.54 5.09-10.65 10.1-21.34 15.12-32.03 2.83-6.02 5.67-12.03 8.55-18.03.8-1.66-1.65-3.13-2.5-1.46M42.59 54c3.71-3.84 11.04-5.6 14.56-.47 1.59 2.32 2.34 5.76 1.01 8.36-1.3 2.55-4.16 3.32-6.8 2.55-.96-.28-2.61-.98-2.62-2.19 0-.9 1.02-3.23 2.13-3.18 1.94.1 1.93-2.9 0-3.02-2.1-.13-3.51 1.64-4.39 3.32-1.08 2.07-1.26 4.21.36 6.05 2.61 2.97 8.21 3.76 11.52 1.64 3.96-2.53 4.96-7.63 3.59-11.91-1.31-4.09-4.47-7.25-8.77-7.99-4.85-.83-9.32 1.33-12.52 4.91-1.17 1.3.7 3.21 1.93 1.93"/><path d="M58.07 66.16c2.24.91 4.28 3.02 4.42 5.54.13 2.28-1.69 4.56-4.04 4.52-1.42-.03-2.48 2.04-1.25 3.02 3.31 2.63 7.05 4.18 11.25 4.71l-1.74-2.28c-.54 2.3-2.66 3.83-4.91 4.25-3.05.57-6.17-.8-8.71-2.36-2.64-1.62-4.98-3.67-7.54-5.39-1.26-.85-2.65-1.55-4.15-1.79-.87-.14-2.76.19-3.42-.45-1.89-1.82-4.76 1.04-2.88 2.88 1.32 1.29 2.93 1.45 4.69 1.47 1.68.02 2.94.65 4.33 1.57 3.15 2.09 5.94 4.72 9.38 6.34 3.22 1.51 7.05 2.33 10.5 1.1 3.03-1.08 5.49-3.44 6.2-6.64.27-1.24-.54-2.14-1.74-2.28-3.16-.36-6.25-1.64-8.75-3.6l-1.25 3.02c4.09.03 7.43-3.69 7.44-7.71s-3.28-7.5-7-8.88c-1.9-.7-2.65 2.26-.83 3Zm80.71 9.1c-3.85-7.48-16-8.33-21.41-2.12-2.85 3.27-3.46 8.26-.65 11.75 1.34 1.67 3.42 3.28 5.4 4.09 2.14.88 4.43.76 6.36-.58 1.76-1.22 3.78-3.7 3.35-6-.38-2-2.61-3.24-4.44-3.62-.98-.2-1.79.78-1.3 1.69.33.61.8 1 1.35 1.4.27.2 1.14.55 1.23.91.07.28-.48 1.02-.62 1.23a5.1 5.1 0 0 1-1.33 1.37c-1.28.86-2.38.64-3.62-.15s-2.69-1.81-3.57-3.03c-1.49-2.08-.69-5.06 1.01-6.75 2.05-2.04 5.11-2.77 7.92-2.6 2.9.17 6.07 1.47 7.77 3.91 1.08 1.55 3.43.22 2.55-1.49Z"/><path d="M116.69 79.16c-3.03-2.04-7.31-.96-9.28 2.05-.35.53-.66 1.73-1.18 2.08-.46.3-1.47-.41-2.04-.6-2.16-.7-4.55-.61-6.69.14-1.34.48-2.03 2.69-.44 3.4 2.02.91 3.85 2.11 5.4 3.69s2.69 3.38 4.08 5.04c1.29 1.55 2.83 2.96 4.67 3.83 2.08.98 3.86.87 6.08.59 1.26-.16 1.84.18 2.84.9.77.55 1.56.99 2.45 1.32 1.84.68 3.98.79 5.88.24 3.45-1.01 6.5-4.65 6.66-8.28.07-1.5-2.22-1.78-2.59-.35-.43 1.64-.94 3.15-2.37 4.21-1.28.95-2.87 1.42-4.46 1.37-1.82-.06-3.08-.92-4.5-1.94-1.72-1.25-3.44-1.05-5.45-.9-3.76.27-6.09-2.97-8.13-5.64-2.37-3.11-5.05-5.69-8.68-7.28l-.44 3.4c2.03-.74 3.76-.55 5.74.2 1.8.68 3.56.5 4.81-1.07.84-1.06 1.16-2.52 2.3-3.31 1.05-.73 2.61-.96 3.8-.45 1.77.75 3.21-1.51 1.54-2.63Z"/><path d="M127.89 101.58c1.46 2.23 3.42 4.09 5.77 5.36 1.14.62 2.37 1.12 3.62 1.47.61.17 1.24.29 1.87.38.82.12 1.65.26 2.47.05 1.68-.44 1.56-2.79 0-3.28-.61-.19-1.28-.16-1.91-.23.28.03-.11-.02-.16-.02-.15-.02-.3-.05-.45-.08-.27-.05-.53-.11-.8-.18-.53-.13-1.05-.3-1.56-.49-.44-.17-.77-.31-1.33-.6-.48-.25-.96-.53-1.41-.84-.23-.15-.45-.31-.67-.47-.03-.02-.32-.24-.16-.12-.1-.08-.19-.15-.28-.23-.44-.37-.86-.77-1.26-1.19s-.7-.79-.96-1.15c-.51-.7-1.4-1.05-2.2-.58-.72.42-1.06 1.47-.58 2.2M34.5 113.54c3.62-1.24 7.57.23 11.26.38s7.44-.35 10.97-1.43c1.78-.55 3.44-1.34 5.17-2.02.77-.3 1.59-.78 2.37-.99.69-.19 1.4.01 2.06.27 1.54.6 2.82.89 4.4.18.78-.35 2.76-2.11 3.51-1.15 1.27 1.61 3.51-.66 2.25-2.25-1-1.27-2.77-1.41-4.22-.92-1.54.52-2.76 2.18-4.46 1.61-1.69-.56-3.37-.83-5.16-.65-1.88.19-3.63 1.26-5.39 1.91a29.9 29.9 0 0 1-11.51 1.87c-4.05-.14-8.13-1.22-12.07.25-1.8.67-1.06 3.56.81 2.92Zm49.31-.99c2.5 1.23 2.15 4.6 2.28 6.94.18 3.22 1.07 5.87 3.82 7.74.51.35.97.58 1.2 1.17.25.63.2 1.4.38 2.06.37 1.41 1.1 2.65 2.01 3.78 1.79 2.21 4.6 4.16 7.26 5.14.93.34 2.02-.31 2.37-1.16.39-.98.02-1.91-.82-2.51-2.15-1.53-4.73-2.44-6.23-4.77-.8-1.25-.75-2.61-1.24-3.96-.56-1.56-1.78-2.37-3.11-3.22-2.27-1.46-2.03-4.85-2.43-7.21-.43-2.54-1.55-5.32-4.07-6.42-1.63-.71-3.09 1.62-1.43 2.44Zm16.61-61.75c3.01-2.45 5.79-5.12 8.47-7.93l-2.79-1.16c-.22 4.76-.22 9.54-.31 14.3-.02.86.8 1.8 1.71 1.71 4.71-.45 9.45-.45 14.16 0l-1.25-3.01c-2.36 3-5.26 5.53-8.52 7.51-.81.49-1.26 1.71-.67 2.55 1.99 2.82 3.98 5.65 5.97 8.47.54-.93 1.07-1.87 1.61-2.8-3.85-.18-7.7-.28-11.55-.31-1.48-.01-2.23 1.57-1.61 2.81 1.01 2.01 1.92 4.06 2.71 6.16.43-.77.87-1.53 1.3-2.3-1.71.52-3.34-.6-4.78-1.41-1.83-1.03-3.86-2.14-6.02-2.15s-4.04 1.07-5.74 2.25c-1.48 1.03-3.04 2.43-4.94 2.4l1.99 1.99c-.31-3.6-.42-7.21-.35-10.83.02-.82-.61-1.7-1.43-1.88a27.2 27.2 0 0 1-8.66-3.55l.4 3.12c2.22-2.09 4.74-3.71 7.54-4.91 1.26-.54 1.15-2.28.4-3.12-2-2.26-3.25-4.95-3.83-7.9l-1.91 2.51c2.86-.04 5.59.46 8.27 1.45 1.47.54 2.78-1.08 2.43-2.43-.82-3.18-.8-6.43.07-9.6l-3.28.87c2.69 2.39 5.39 4.77 8.08 7.16 1.88 1.66 4.65-1.09 2.76-2.76-2.69-2.39-5.38-4.78-8.07-7.18-1.08-.96-2.87-.62-3.28.87a22.7 22.7 0 0 0-.09 11.69l2.43-2.43a25.8 25.8 0 0 0-9.32-1.6c-1.36.02-2.15 1.25-1.91 2.51.7 3.62 2.4 6.9 4.84 9.66l.4-3.12c-3.1 1.32-5.91 3.2-8.35 5.53-.95.91-.66 2.47.4 3.12 2.97 1.83 6.22 3.14 9.63 3.88-.48-.63-.96-1.26-1.43-1.88-.1 3.61 0 7.22.28 10.83.09 1.09.84 1.96 1.99 1.99 2.21.05 4.1-.97 5.86-2.21 1.52-1.07 3.17-2.59 5.14-2.53 1.91.06 3.62 1.45 5.25 2.28 1.96 1 4.05 1.65 6.22.99.9-.27 1.67-1.33 1.3-2.3-.91-2.4-1.93-4.76-3.09-7.05l-1.61 2.81c3.85.03 7.7.13 11.55.31 1.34.06 2.42-1.66 1.61-2.8-1.99-2.82-3.98-5.64-5.97-8.47l-.67 2.55c3.71-2.26 6.77-5.15 9.41-8.58.9-1.17-.36-2.55-1.52-2.65-4.72-.42-9.45-.39-14.16.1l1.71 1.71c.06-4.76.22-9.54.15-14.3-.02-1.32-1.84-2.29-2.79-1.16-2.49 2.96-5.26 5.69-8.17 8.23-1.39 1.22.61 3.15 2.01 2.01Z"/><path d="M66.13 71.78c4.16-1.23 4.6.81 8.52 2.67s7.97 4 12.3 3.78c-.75-1.85 1.02-4.1.08-5.86-.51-.96-1.64-1.37-2.65-1.78-1.82-.74-3.55-1.7-5.13-2.88-.54-.4-1.09-.87-1.26-1.51-.16-.58.02-1.19.24-1.75a12.05 12.05 0 0 1 5.56-6.23 15.3 15.3 0 0 1-3.4-9.35c2.45.19 4.88.63 7.25 1.3.84-2.84 1.68-5.68 2.51-8.51 2.2-.42 3.09 2.86 5.03 3.99 1.94 1.14 3.91 2.51 5.61 1.04s4.04-5.96 6.28-5.75a20.2 20.2 0 0 1 1.02 12.74c4.58-.52 9.27-.06 13.66 1.34-.72 4.05-3.11 7.78-6.49 10.14 2.06.72 3.57 2.92 3.28 5.08s-2.52 3.93-4.66 3.53c-1.2-.22-2.97-.71-3.23.48-.09.4.11.81.29 1.18l1.2 2.34c.15.3.32.61.61.76.34.18.75.09 1.1-.04 2.4-.91 3.43-3.68 5.18-5.57 3.54-3.82 9.53-3.61 14.71-3.12-3.34-5.16-4.79-11.29-6.19-17.28l-2.73-11.74c-1.99-8.56-3.99-17.53-1.76-26.04-3.77 3.46-7.54 6.91-11.31 10.37-7.27 6.66-22.74 12.61-32.59 13.01.52.28 7.57-1.51 8.09-1.23-11 .27-25.14 3.26-33.99 9.8 2.19 1.99 7.54 4.71 9 7.29s2.05 5.82.8 8.5c-.21.46-.49.93-.44 1.44.06.62.56 1.08.99 1.53a9.4 9.4 0 0 1 2.48 4.88"/><path d="M66.51 73.15c1.57-.36 2.56-.25 3.86.67 1.54 1.09 3.04 2.02 4.74 2.87 3.73 1.86 7.59 3.58 11.85 3.44 1.17-.04 2.23-1.19 1.83-2.4-.27-.83.06-1.63.22-2.46.19-.97.31-1.98.04-2.95-.7-2.46-3.12-3.03-5.15-4.01a22 22 0 0 1-3.12-1.84c-.21-.15-.87-.54-.93-.73-.09-.26.35-1.06.52-1.38.99-1.94 2.5-3.44 4.4-4.48 1.18-.65 1.12-2.08.39-3.01-1.79-2.27-2.76-5.11-2.83-7.99l-1.93 1.93c2.28.21 4.52.65 6.72 1.26 1.03.28 2.11-.35 2.41-1.37.84-2.84 1.67-5.68 2.51-8.52-.63.48-1.25.96-1.88 1.43 1.02-.13 2.06 2.03 2.86 2.8 1.54 1.47 4.18 2.98 6.36 2.85s3.4-1.76 4.61-3.31c.59-.76 1.18-1.53 1.85-2.22.43-.44.93-.86 1.24-.86l-1.86-1.42c1.56 3.74 1.97 7.76 1.03 11.72-.26 1.09.55 2.57 1.85 2.42 4.45-.48 8.91-.18 13.19 1.14-.41-.73-.83-1.46-1.24-2.18-.69 3.64-2.68 6.86-5.7 9.02-1.35.97-1.07 2.77.44 3.37 1.12.44 2.07 1.72 1.94 2.96s-1.3 2.18-2.49 2.06c-1.4-.13-2.78-.69-4.11.11-1.8 1.1-1.36 3.11-.56 4.68.75 1.47 1.42 3.48 3.32 3.69 1.62.18 3.21-.92 4.27-2.04 2.05-2.16 3.05-4.93 6-6.12 3.3-1.33 7.14-.97 10.6-.64 1.39.13 2.29-1.66 1.59-2.77-2.36-3.73-3.65-7.92-4.73-12.16-1.15-4.52-2.15-9.09-3.25-13.63-2.17-8.97-4.71-18.62-2.37-27.81.5-1.98-1.88-3.28-3.34-1.94-3.11 2.84-6.21 5.68-9.32 8.51-2.19 2-4.34 3.84-6.87 5.4-5.26 3.24-11.09 5.6-17.05 7.21-3.03.81-6.11 1.44-9.25 1.57-2.42.1-2.79 3.34-.56 4.13 1.34.47 3.31-.24 4.65-.51.91-.18 1.82-.36 2.73-.53.17-.03 1.1-.21.58-.1.45-.09.64.1.13-.08.19-1.39.38-2.77.56-4.16-12.05.3-25.2 2.68-35.15 9.94-1.11.81-1.67 2.54-.46 3.61 1.66 1.47 3.58 2.61 5.39 3.87 1.71 1.19 3.17 2.31 3.9 4.24.42 1.11.68 2.36.53 3.55-.16 1.32-1.07 2.41-1.09 3.75-.02 1.68 1.08 2.56 2.05 3.75.82 1.01 1.26 2.18 1.5 3.44.23 1.19 1.66 1.88 2.77 1.57 1.25-.34 1.8-1.57 1.57-2.77a11.6 11.6 0 0 0-1.59-4.03c-.43-.66-.92-1.29-1.46-1.85-.08-.09-.75-.55-.38-.14q-.03.57.18-.09l.16-.37c1.23-2.82.98-5.99-.17-8.79-1.91-4.63-6.63-6.32-10.12-9.39-.15 1.2-.31 2.4-.46 3.61 4.66-3.41 10.09-5.55 15.64-7.03 5.6-1.49 11.4-2.47 17.19-2.64 2.45-.07 2.8-3.38.56-4.16-1.35-.47-3.31.25-4.66.52-.91.18-1.81.37-2.73.54-.17.03-1.09.21-.58.11-.44.09-.65-.1-.13.08-.19 1.38-.37 2.75-.56 4.13 6.23-.3 12.41-2.09 18.17-4.41 5.85-2.36 11.55-5.31 16.23-9.6 3.64-3.35 7.28-6.7 10.92-10.06l-3.34-1.94c-2.47 9.87.17 19.78 2.36 29.43 2.08 9.16 3.51 19.03 8.66 27.09.53-.92 1.06-1.84 1.59-2.77-3.17-.29-6.39-.45-9.52.21s-5.79 2.38-7.72 5.02c-.78 1.07-1.46 2.37-2.54 3.17-.44.33-.66.15-.32.56.51.62-.11-.5-.2-.67l-.6-1.17c-.03-.06-.25-.58-.3-.59l-.77.84h.29c.41.2 1.21.21 1.67.27.9.12 1.79.05 2.64-.26 1.46-.53 2.74-1.63 3.43-3.03 1.8-3.63-.53-7.57-4.05-8.94l.44 3.37c3.76-2.71 6.38-6.69 7.27-11.26.19-.97-.27-1.88-1.24-2.18-4.58-1.44-9.35-2.05-14.13-1.55.62.81 1.23 1.62 1.85 2.42 1.1-4.58.81-9.4-1-13.77-.34-.82-.93-1.39-1.86-1.42-1.86-.05-3.35 1.25-4.5 2.56-.6.69-1.15 1.42-1.72 2.14-.38.47-.99 1.52-1.63 1.68-.86.21-2.2-.89-2.87-1.3s-1.08-.95-1.54-1.53c-1.17-1.49-2.54-3.11-4.66-2.85-.88.11-1.62.53-1.88 1.43l-2.52 8.51 2.41-1.37c-2.54-.7-5.14-1.13-7.77-1.34-1.02-.08-1.97.95-1.93 1.93.14 3.98 1.52 7.59 3.98 10.7l.39-3.01c-3.68 2.03-9.79 8.64-4.99 12.44 1.1.87 2.29 1.63 3.53 2.28 1.14.59 2.51.92 3.57 1.63.8.54.4 1.36.22 2.18-.26 1.22-.43 2.42-.03 3.63l1.83-2.4c-4.19.14-8.33-1.89-12-3.73-1.45-.73-2.77-1.73-4.29-2.31-1.62-.62-3.29-.41-4.91.11-1.74.56-1.03 3.16.76 2.74Zm-14.5 12.12c-.95.27-1.91.49-2.85.79s-1.81.59-2.71.88-1.81.58-2.71.88c-1.01.33-2.33.57-3.11 1.31-.48.45-.59 1.2-.34 1.79.27.64.83.94 1.5 1.01.58.06 1.12-.2 1.66-.39.47-.16.93-.33 1.4-.5l2.59-.93c1.8-.65 3.57-1.35 5.34-2.06.73-.29 1.23-.97 1.01-1.78-.21-.75-1.03-1.23-1.78-1.01Z"/><path d="M65.8 81.64c.82-.52 1.79-.75 2.7-1.05 1.16-.39 2.32-.79 3.48-1.18s2.21-.77 3.33-1.12c.54-.17 1.1-.33 1.66-.42.68-.11 1.26-.11 1.91-.39 1.01-.44.98-2.18 0-2.63-1.35-.62-2.96-.14-4.31.3-1.19.38-2.37.83-3.55 1.25-1.19.43-2.39.84-3.58 1.28s-2.4.84-3.34 1.76c-1.12 1.1.34 3.08 1.7 2.21Zm19.9-3.51c-3.7 2.79-7.51 5.42-11.17 8.26-3.62 2.8-7.24 5.61-10.85 8.41-6.9 5.35-13.8 10.73-21.31 15.21-2.05 1.22-.19 4.42 1.87 3.2 7.57-4.51 14.54-9.92 21.46-15.34 3.66-2.87 7.33-5.74 10.99-8.62 3.66-2.87 7.15-5.93 10.77-8.84 1.26-1.02-.44-3.26-1.75-2.27Zm8.81.24c.52 8.08-.52 16.35-1.26 24.39-.37 3.98-.7 7.96-.86 11.95-.08 2.07-.11 4.14-.07 6.21.04 1.95-.13 4.29.49 6.15s2.93 1.32 3.16-.43c.13-1-.07-2.09-.12-3.1-.06-1.03-.09-2.07-.11-3.1-.03-1.91 0-3.82.07-5.73.15-4.07.51-8.13.86-12.19.34-3.98.7-7.96.91-11.96.21-4.09.03-8.11-.23-12.19-.12-1.82-2.96-1.83-2.84 0m9.31 12.08c1.04 5.77 1.86 11.57 2.92 17.34.52 2.84 1.06 5.67 1.59 8.51.26 1.38.52 2.75.77 4.13.27 1.44.33 3.22 1.11 4.47.69 1.1 2.72 1.06 2.98-.39s-.2-2.89-.47-4.32-.56-2.91-.83-4.37c-.56-2.91-1.1-5.83-1.67-8.74-1.13-5.82-2.49-11.59-3.64-17.4-.36-1.81-3.08-1.03-2.76.76Zm14.83 9.84c1.62 3.2 3.22 6.41 4.78 9.63.77 1.58 1.51 3.18 2.22 4.79.34.78.67 1.56 1 2.35.29.69.75 1.45.85 2.2l.84-2.07-.07.05 1.38-.18-.08-.03c.43.56.86 1.13 1.29 1.69v-.07c-.1-1.49-1.81-2.26-2.94-1.22l-.05.05c-.42.39-.66 1.16-.45 1.7.27.7.65 1.12 1.37 1.36.6.2 1.36-.02 1.79-.47.82-.88.69-1.78.27-2.8-.38-.94-.77-1.87-1.19-2.8-.83-1.82-1.72-3.61-2.64-5.38-1.81-3.5-3.81-6.9-5.8-10.3-.97-1.66-3.42-.2-2.56 1.5Zm-86.78 21.68c2.26 1.48 4.56 3.04 7.17 3.83 2.85.86 5.44.51 8.22-.4 1.35-.44 2.54-.77 3.97-.73 1.44.04 2.82.16 4.26-.04 1.25-.17 2.46-.5 3.61-1.02s2.32-1.54 3.33-2.39c1.19-1-.42-3.14-1.69-2.18-1.72 1.31-4.18 2.13-6.34 2.24-1.23.07-2.43-.13-3.66-.21-1.3-.08-2.61.1-3.87.47-2.29.67-4.26 1.4-6.67.82-2.44-.59-4.66-1.74-6.81-3-1.7-.99-3.15 1.55-1.53 2.62Zm39.99.57c1.85 0 2.53 1.35 3 2.99.5 1.73 1.01 3.42 1.82 5.04.85 1.71 1.9 3.31 3.14 4.77.56.66 1.44 1.31 1.76 2.13s.17 1.7.39 2.51c.72 2.63 3.09 4.08 5.13 5.63.96.73 2 1.34 2.91 2.13s1.49 1.62 1.98 2.76c.93 2.14 4.01.54 3.58-1.51-.61-2.92-3.58-4.86-6.01-6.19-1.18-.65-2.33-1.22-3.2-2.28-1.03-1.25-.75-2.66-1.2-4.13-.62-1.98-2.58-3.21-3.76-4.83-1.2-1.65-1.99-3.46-2.5-5.43-.5-1.95-1.03-4.05-2.63-5.4-1.37-1.15-3.49-1.89-5.1-.79-1.1.75-.74 2.59.7 2.59Zm-29.05 14.83c3.13 2.24 7.32.56 10.41-.87 1.74-.81 3.47-1.63 5.36-2.02 2.08-.44 4.31-.48 6.3-1.26 1.67-.66 1.5-3.11-.43-3.21-1.94-.09-3.95.41-5.85.75s-3.66.94-5.39 1.8c-1.6.8-3.14 1.75-4.78 2.47-1.33.58-2.99.83-4.28.06-1.49-.89-2.69 1.31-1.33 2.28Zm28.43 1.49c.52.19.88 1.38 1.12 1.93.48 1.12 1.03 2.24 1.44 3.39.89 2.45 1.66 5.01 2.88 7.32.47.9 1.65 1.21 2.55.83.85-.36 1.56-1.46 1.18-2.41-1.1-2.74-2.83-5.13-4.11-7.77-.59-1.21-1.16-2.44-1.8-3.63-.56-1.06-1.35-1.97-2.53-2.32-.71-.21-1.49.25-1.68.95-.21.76.26 1.43.95 1.68Zm25.19-77.98-.04.08s-.01.03-.02.04c-.23.4-.35.84-.35 1.3 0 .23.04.46.09.69.01.04.02.08.04.12l.04.12v.02c.08.19.16.37.24.56.09.18.22.35.37.48s.35.29.47.36c.2.12.35.18.54.23.38.09.88.13 1.26 0l.11-.04s.07-.03.1-.04c.23-.04.44-.13.62-.26.39-.23.7-.54.92-.92 0-.01.01-.03.02-.04l.04-.08c.19-.3.29-.62.31-.96.08-.34.06-.69-.05-1.03-.08-.34-.23-.63-.46-.88q-.27-.42-.72-.66l-.62-.26c-.46-.12-.91-.12-1.37 0l-.62.26c-.39.23-.7.54-.92.92Z"/></svg>