<?xml version="1.0" encoding="UTF-8"?><svg xmlns="http://www.w3.org/2000/svg" viewBox="0 0 180 180"><path d="M87.45 25.38c-4.02 5.81-9.66 10.27-15.22 14.63-.63.49-1.25.98-1.88 1.48-.87.68-1.82 1.53-1.78 2.64.03.94.83 1.72 1.72 2.02s1.86.25 2.8.18l9.3-.63c.43-.03.86-.06 1.28-.01.51.05 1 .2 1.48.35 1.11.34 2.24.69 3.4.63s2.36-.63 2.85-1.67c.07-.15.12-.3.16-.46.08-.36.07-.74.07-1.11-.12-4.92.1-9.84.63-14.73.13-1.18.25-2.49-.43-3.46s-2.52-1.09-2.88.04"/><path d="M86.09 24.59c-3.24 4.58-7.91 8.26-12.31 11.67-1.15.89-2.29 1.81-3.44 2.71-1.04.82-2.18 1.58-2.96 2.67-1.73 2.44-.4 5.58 2.38 6.44 1.46.46 3 .25 4.49.12 1.63-.13 3.26-.23 4.88-.34 1.44-.1 3.16-.46 4.59-.21 1.5.26 2.84.93 4.4.96 2.77.06 5.3-1.73 5.44-4.62.16-3.17-.03-6.36.15-9.54.1-1.76.24-3.53.43-5.28.16-1.54.32-3.17-.47-4.59-1.45-2.61-5.44-2.75-6.53.21-.73 1.99 2.46 3.32 3.43 1.44.26-.51-.28.25-.31.17.02.08.13.15.13.31-.02 1.06-.07 2.08-.17 3.14-.24 2.45-.4 4.9-.49 7.36q-.06 1.845-.06 3.69c0 .61 0 1.23.02 1.84 0 .41.19 1.16-.05 1.52-.88 1.32-3.66-.05-4.7-.3-2.36-.57-5.04-.03-7.43.13-1.16.08-2.32.16-3.49.22-1.05.06-2.15.22-3.15-.1-.27-.09-.27-.31-.28-.14.02-.22.4-.49.53-.62.79-.73 1.68-1.36 2.53-2.02 1.71-1.35 3.41-2.71 5.07-4.13 3.85-3.32 7.2-6.94 10.1-11.13 1.16-1.68-1.56-3.24-2.73-1.59Z"/><path d="M74.8 44.29c-.31 4.59-.42 9.24-.16 13.83.12 2.09 3.13 2.09 3.25 0 .26-4.59.14-9.24-.16-13.83-.13-1.88-2.8-1.88-2.92 0Z"/><path d="M92.57 58.83q-7.875-.6-15.78-.78c-.59-.01-1.2-.02-1.72.25-.59.3-.95.9-1.35 1.43a8.4 8.4 0 0 1-3 2.46c-.48.23-1.02.46-1.26.93-.2.4-.14.87-.27 1.3-.18.58-.68.99-1.15 1.38a23.6 23.6 0 0 0-4.45 5c-.23.36-.47.77-.36 1.18.12.46.61.71 1.05.87 4.83 1.74 10.3-.54 15.29.64 1.12.27 2.22.7 3.36.67 2.03-.06 3.96-1.59 5.93-1.1.8.2 1.59.73 2.39.51 1.12-.31 1.33-1.78 1.33-2.94-.01-3.8-.03-7.6-.04-11.4"/><path d="M92.57 57.32c-3.43-.45-6.89-.7-10.35-.9-1.56-.09-3.12-.18-4.69-.22-1.47-.04-2.89-.04-4.07.96-.92.78-1.46 1.91-2.43 2.66-1.07.83-2.49 1.1-3.2 2.37-.29.52-.2 1.11-.41 1.61-.17.38-.71.68-1.02.96a24.5 24.5 0 0 0-3.16 3.36c-.88 1.12-1.99 2.37-1.89 3.89s1.35 2.32 2.64 2.77c2.8.97 5.85.69 8.75.47 1.43-.11 2.87-.22 4.31-.15s2.72.54 4.11.82 2.78.19 4.17-.25c1.41-.44 2.39-.92 3.84-.45s2.98.49 4.13-.69c.98-1.01 1.18-2.53 1.2-3.87.06-3.8-.03-7.6-.05-11.4-.01-2.44-3.8-2.45-3.8 0 0 3.88.23 7.82.03 11.69 0 .07-.09.64-.09.7.06.9-.45-.21.16.1-.69-.35-1.48-.58-2.25-.65-1.62-.14-3.05.55-4.56.98-1.63.46-3.09-.3-4.69-.57-1.73-.29-3.47-.29-5.21-.18-1.65.11-3.3.3-4.96.32-.81.01-1.64 0-2.44-.13-.42-.07-.83-.16-1.23-.28-.21-.06-.41-.12-.61-.19-.13-.08-.1-.08.08 0l.26.96c0-.43.8-1.24 1.04-1.55.43-.55.9-1.08 1.38-1.58.92-.96 2.18-1.76 2.93-2.86.43-.64.48-1.19.67-1.9.09-.34-.25.13.09-.06.25-.15.53-.26.78-.4 1.17-.64 2.2-1.54 3.03-2.58.22-.28.53-.91.84-1.08.46-.25 1.4-.04 1.89-.03 1.56.03 3.13.05 4.69.09 3.37.08 6.73.24 10.1.31 2.01.04 1.87-2.79 0-3.03Z"/><path d="M70.35 72.63c-.59 1.02-.53 2.36-.57 3.51-.04 1.01-.03 2.02-.05 3.03-.03 2.1-.25 4.44.34 6.48.43 1.47 2.56 1.47 2.98 0 .59-2.03.38-4.38.34-6.48-.02-1.01-.01-2.02-.05-3.03-.04-1.15.02-2.49-.57-3.51-.53-.91-1.9-.91-2.43 0Z"/><path d="M90.37 86.16c-6.21-.15-12.42-.29-18.62-.44-2.36-.06-5.26.22-6.19 2.39-.29.67-.34 1.47-.83 2.02-.41.46-1.04.65-1.62.84-2.61.89-4.97 2.51-6.73 4.63-1.95 2.34-3.47 5.46-6.41 6.24 7.52 3.06 16.04.94 24.14 1.53 2.17.16 4.36.51 6.5.17 1.23-.2 2.43-.62 3.68-.66 1.43-.05 2.83.4 4.25.55s3.03-.07 3.96-1.17c.84-.99.89-2.4.86-3.69-.08-4.15-.53-8.29-1.35-12.35"/><path d="M90.37 84.7c-4.89-.44-9.79-.66-14.7-.83-3.46-.12-8.27-.91-10.94 1.93-.68.72-1.03 1.55-1.34 2.48-.27.8-.76.72-1.56 1.04-1.93.76-3.67 1.81-5.23 3.18-1.46 1.27-2.56 2.84-3.7 4.38-.92 1.24-1.95 2.56-3.48 3.02-2.04.61-1.79 3.19 0 3.9 7.84 3.1 16.31 1.08 24.46 1.64 2.18.15 4.35.48 6.54.21 1.1-.14 2.16-.47 3.26-.63.96-.14 1.88 0 2.82.16 1.93.33 3.89.57 5.72-.29s2.76-2.55 2.99-4.48c.27-2.31-.02-4.78-.24-7.09-.25-2.55-.62-5.09-1.12-7.6-.48-2.41-4.15-1.39-3.68 1.01s.86 5.01 1.06 7.54c.1 1.27.18 2.55.2 3.82.01.81.2 2.21-.4 2.87-1.13 1.25-4.12.07-5.46-.09-2.41-.28-4.65.74-7.04.72-2.37-.02-4.71-.39-7.08-.41-2.39-.02-4.78.12-7.17.22-4.68.19-9.35.22-13.77-1.51v3.9c3.67-1.11 5.19-4.39 7.55-7.07 1.28-1.46 2.84-2.63 4.61-3.43 1.92-.86 3.65-1.2 4.43-3.42.23-.66.28-1.19.89-1.58.51-.33 1.19-.44 1.78-.51 2.02-.25 4.14-.04 6.16-.01 4.82.06 9.64.06 14.46-.14 1.9-.08 1.86-2.76 0-2.92Z"/><path d="M60.62 102.94c-.13 3.32-.27 6.63-.34 9.96-.07 3.3-.26 6.68.09 9.96.25 2.29 3.32 2.29 3.56 0 .35-3.28.16-6.65.09-9.96-.07-3.32-.21-6.64-.34-9.96-.08-1.97-2.99-1.97-3.06 0"/><path d="M89.54 120.1c-8.89 0-17.78-.02-26.67-.03-.66 0-1.35 0-1.92.33-.52.29-.89.82-1.42 1.09-.68.34-1.49.22-2.25.3-2.85.33-4.36 3.45-6.58 5.26-3.46 2.83-8.73 2.45-12.23 5.21-.39.31-.78.72-.76 1.21.02.41.31.74.61 1.02 2.32 2.12 5.7 2.46 8.84 2.68 5.97.44 12.14.85 17.78-1.16.96-.34 1.97-.76 2.96-.55.87.18 1.57.79 2.34 1.23 3.92 2.22 8.85-.4 13.3.26 1.87.28 3.63 1.14 5.52 1.3s4.11-.71 4.52-2.56c.1-.45.08-.91.06-1.36-.16-4.28-.33-8.56-.49-12.84-.01-.36-.03-.73-.22-1.03-.2-.34-.57-.53-.93-.68a8.55 8.55 0 0 0-3.6-.68"/><path d="M89.54 118.84c-5.6-.31-11.18-.56-16.79-.69-2.8-.07-5.6-.09-8.39-.1-1.27 0-2.62-.12-3.83.34-.94.35-1.48 1.26-2.47 1.32-2.22.14-3.92.9-5.51 2.47-1.35 1.33-2.42 2.97-4.09 3.93-3.66 2.09-8.62 1.78-11.73 4.95-2.13 2.17-.63 4.57 1.47 5.95 1.96 1.29 4.3 1.76 6.59 2.03 5.01.6 10.26.89 15.28.23 1.32-.17 2.62-.41 3.9-.76 1-.28 2.48-1.17 3.52-1.01.88.13 1.83 1.1 2.67 1.45 1.08.45 2.22.67 3.4.73 2.29.12 4.54-.45 6.8-.66 1.1-.1 2.21-.14 3.29.07 1.22.24 2.38.71 3.59.98 2.4.53 5.17.36 7.02-1.47 2.13-2.1 1.47-5.27 1.36-7.96-.13-3.1-.14-6.22-.38-9.31-.27-3.41-3.87-4.28-6.79-4.26-2.63.02-2.64 4.1 0 4.09.92 0 2.43.02 3.07.77l-.53-.91c.4.98.21 2.39.24 3.45.05 1.32.09 2.63.14 3.95s.09 2.63.14 3.95c.03.82.42 2.47-.07 3.15-.95 1.31-3.38.47-4.56.12-2.32-.68-4.5-1.01-6.92-.75-2.12.23-4.25.75-6.4.62-2.15-.12-3.54-1.9-5.64-2.12-2.36-.25-4.75 1.14-7.05 1.58-2.45.47-4.97.53-7.46.48-2.67-.06-5.36-.22-8.02-.5-1.13-.12-2.25-.32-3.33-.68-.51-.17-.98-.38-1.44-.65-.18-.1-.36-.21-.53-.34l-.29-.26c-.27-.25-.29-.29-.07-.1v1.1c.13-.84 2.84-1.58 3.63-1.83 1.5-.46 3.04-.81 4.51-1.34 1.57-.56 3.02-1.28 4.31-2.35 1.14-.94 2.02-2.14 3.05-3.2.93-.97 1.69-1.45 3.03-1.53.94-.05 1.83-.2 2.62-.73.72-.47.93-.93 1.81-.95 4.18-.09 8.36-.05 12.54-.14 4.78-.11 9.54-.34 14.32-.6 1.63-.09 1.63-2.44 0-2.53Zm2.73-93.46c4.02 5.81 9.66 10.27 15.22 14.63.63.49 1.25.98 1.88 1.48.87.68 1.82 1.53 1.78 2.64-.03.94-.83 1.72-1.72 2.02s-1.86.25-2.8.18l-9.3-.63c-.43-.03-.86-.06-1.28-.01-.51.05-1 .2-1.48.35-1.11.34-2.24.69-3.4.63s-2.36-.63-2.85-1.67c-.07-.15-.12-.3-.16-.46-.08-.36-.07-.74-.07-1.11.12-4.92-.1-9.84-.63-14.73-.13-1.18-.25-2.49.43-3.46s2.52-1.09 2.88.04"/><path d="M90.9 26.18c2.53 3.66 5.39 6.95 8.71 9.92 1.68 1.5 3.4 2.94 5.17 4.33.84.67 1.69 1.33 2.54 2 .46.36 1.65 1.01 1.8 1.61.01.06.08-.02-.13.12-.36.22-.72.24-1.14.26-1.25.05-2.53-.1-3.77-.18-2.45-.16-4.93-.46-7.38-.49-1.15-.01-2.18.31-3.26.63-.85.25-1.94.62-2.82.24-.68-.29-.6-.74-.59-1.41.02-1.31.03-2.61.01-3.92-.04-2.77-.18-5.53-.43-8.28-.11-1.28-.41-2.64-.32-3.92.02-.25.08-.46.15-.68 0-.02-.23-.05-.29-.17.96 1.86 4.17.57 3.43-1.44-.91-2.47-4.05-2.95-5.88-1.1-2.07 2.09-1.06 5.67-.86 8.23.26 3.22.37 6.44.35 9.67 0 1.38-.22 2.86.36 4.16s1.61 2.07 2.86 2.53c1.35.5 2.82.38 4.2.05.68-.16 1.34-.4 2.02-.58.73-.2 1.42-.12 2.17-.07 3.21.21 6.43.57 9.65.69 2.8.1 6.13-1.51 5.67-4.82-.37-2.68-3.39-4.3-5.33-5.83-4.99-3.93-10.45-7.89-14.16-13.13-1.16-1.64-3.89-.09-2.73 1.59Z"/><path d="M101.99 44.29c-.31 4.59-.42 9.24-.16 13.83.12 2.09 3.13 2.09 3.25 0 .26-4.59.14-9.24-.16-13.83-.13-1.88-2.8-1.88-2.92 0Z"/><path d="M87.14 58.83q7.875-.6 15.78-.78c.59-.01 1.2-.02 1.72.25.59.3.95.9 1.35 1.43a8.4 8.4 0 0 0 3 2.46c.48.23 1.02.46 1.26.93.2.4.14.87.27 1.3.18.58.68.99 1.15 1.38 1.71 1.44 3.21 3.13 4.45 5 .23.36.47.77.36 1.18-.12.46-.61.71-1.05.87-4.83 1.74-10.3-.54-15.29.64-1.12.27-2.22.7-3.36.67-2.03-.06-3.96-1.59-5.93-1.1-.8.2-1.59.73-2.39.51-1.12-.31-1.33-1.78-1.33-2.94.01-3.8.03-7.6.04-11.4"/><path d="M87.14 60.35c3.29-.07 6.57-.22 9.86-.3 1.64-.04 3.29-.06 4.93-.1.48-.01 1.43-.22 1.89.03.28.15.67.86.84 1.08a10.3 10.3 0 0 0 3.03 2.58c.2.11.42.25.64.32.52.16.17-.06.23.14.19.62.22 1.18.57 1.75.69 1.13 1.97 1.92 2.88 2.86.49.5.95 1.02 1.39 1.57.27.34 1.18 1.27 1.17 1.71l.26-.96c.18-.07.2-.07.08 0l-.4.14c-.4.14-.82.23-1.23.3-.8.14-1.62.17-2.44.17-1.73 0-3.45-.21-5.17-.32-1.75-.11-3.48-.11-5.21.18-1.61.27-3.06 1.03-4.69.57-1.51-.43-2.95-1.12-4.56-.98-.78.07-1.55.3-2.25.65.36-.18.21.73.16-.1-.01-.23-.07-.47-.09-.7-.23-3.87.02-7.82.03-11.69 0-2.44-3.79-2.45-3.8 0-.02 3.47-.03 6.94-.05 10.41-.01 2.36.25 5.36 3.12 5.83 1.38.23 2.5-.76 3.83-.53 1.45.24 2.73.98 4.22 1.11 1.32.12 2.57-.28 3.83-.61 1.52-.39 3.03-.44 4.59-.37 2.97.13 5.9.59 8.86.15 1.17-.17 2.49-.44 3.47-1.15 1.45-1.06 1.49-2.78.61-4.23-.73-1.2-1.67-2.32-2.62-3.35-.47-.51-.97-1.01-1.49-1.47-.39-.35-1.12-.74-1.34-1.22s-.12-1.09-.41-1.63c-.31-.56-.81-.99-1.35-1.32-1.18-.72-2.21-1.24-3.1-2.35-.97-1.2-1.82-2.12-3.44-2.3-1.8-.19-3.7.05-5.5.14-3.79.2-7.58.46-11.34.96-1.87.25-2.01 3.07 0 3.03Z"/><path d="M106.94 72.63c-.59 1.02-.53 2.36-.57 3.51-.04 1.01-.03 2.02-.05 3.03-.03 2.1-.25 4.44.34 6.48.43 1.47 2.56 1.47 2.98 0 .59-2.03.38-4.38.34-6.48-.02-1.01-.01-2.02-.05-3.03-.04-1.15.02-2.49-.57-3.51-.53-.91-1.9-.91-2.43 0Z"/><path d="M89.35 86.16c6.21-.15 12.42-.29 18.62-.44 2.36-.06 5.26.22 6.19 2.39.29.67.34 1.47.83 2.02.41.46 1.04.65 1.62.84 2.61.89 4.97 2.51 6.73 4.63 1.95 2.34 3.47 5.46 6.41 6.24-7.52 3.06-16.04.94-24.14 1.53-2.17.16-4.36.51-6.5.17-1.23-.2-2.43-.62-3.68-.66-1.43-.05-2.83.4-4.25.55s-3.03-.07-3.96-1.17c-.84-.99-.89-2.4-.86-3.69.08-4.15.53-8.29 1.35-12.35"/><path d="M89.35 87.62c4.74.2 9.47.21 14.21.15 2.1-.03 4.31-.25 6.41.01.59.07 1.27.19 1.78.51.61.38.66.93.89 1.58.78 2.23 2.5 2.55 4.43 3.42 1.71.77 3.22 1.9 4.47 3.29 2.44 2.7 3.94 6.08 7.68 7.22v-3.9c-4.42 1.73-9.1 1.7-13.77 1.51-2.39-.1-4.78-.24-7.17-.22s-4.72.4-7.08.41-4.63-1-7.04-.72c-1.35.15-4.34 1.34-5.46.09-.6-.67-.42-2.06-.4-2.87.02-1.28.1-2.55.2-3.82.2-2.54.57-5.05 1.06-7.54.47-2.4-3.2-3.42-3.68-1.01-.86 4.35-1.42 8.81-1.44 13.25-.01 1.92.37 3.89 1.91 5.18 1.41 1.18 3.27 1.5 5.05 1.31 1.02-.11 2.02-.36 3.04-.46s1.98.1 2.98.32c2.2.49 4.34.48 6.57.28 4.21-.38 8.36-.17 12.58-.05 4.63.13 9.37-.03 13.73-1.76 1.79-.71 2.04-3.29 0-3.9-1.53-.46-2.56-1.78-3.48-3.02-1.14-1.54-2.24-3.11-3.7-4.38-1.56-1.36-3.3-2.42-5.23-3.18-.76-.3-1.3-.25-1.56-1.04-.31-.93-.66-1.75-1.34-2.48-2.67-2.84-7.48-2.05-10.94-1.93-4.91.17-9.81.39-14.7.83-1.85.17-1.91 2.84 0 2.92"/><path d="M116.03 102.94c-.13 3.32-.27 6.63-.34 9.96-.07 3.3-.26 6.68.09 9.96.25 2.29 3.32 2.29 3.56 0 .35-3.28.16-6.65.09-9.96-.07-3.32-.21-6.64-.34-9.96-.08-1.97-2.99-1.97-3.06 0"/><path d="M90.18 120.1c8.89 0 17.78-.02 26.67-.03.66 0 1.35 0 1.92.33.52.29.89.82 1.42 1.09.68.34 1.49.22 2.25.3 2.85.33 4.36 3.45 6.58 5.26 3.46 2.83 8.73 2.45 12.23 5.21.39.31.78.72.76 1.21-.02.41-.31.74-.61 1.02-2.32 2.12-5.7 2.46-8.84 2.68-5.97.44-12.14.85-17.78-1.16-.96-.34-1.97-.76-2.96-.55-.87.18-1.57.79-2.34 1.23-3.92 2.22-8.85-.4-13.3.26-1.87.28-3.63 1.14-5.52 1.3s-4.11-.71-4.52-2.56c-.1-.45-.08-.91-.06-1.36.16-4.28.33-8.56.49-12.84.01-.36.03-.73.22-1.03.2-.34.57-.53.93-.68 1.13-.48 2.37-.72 3.6-.68"/><path d="M90.18 121.37c8.39.45 16.78.73 25.18.74.66 0 1.76-.21 2.37.06.76.33 1.23 1.08 2.08 1.36 1.36.45 2.66.05 3.85 1 1.1.87 1.93 2.07 2.9 3.07q1.695 1.755 3.93 2.73c1.67.73 3.41 1.17 5.15 1.67.84.24 1.69.49 2.5.84.47.21 1.79.76 1.86 1.2v-1.1c.05-.23.17-.07-.07.1-.17.13-.32.27-.5.39-.37.26-.79.49-1.21.66-.96.4-2.02.62-3.04.77-2.3.34-4.68.42-7.01.53-2.46.12-4.93.13-7.38-.12a23 23 0 0 1-3.49-.64c-1.23-.32-2.41-.88-3.65-1.13-1.15-.24-2.27-.16-3.34.32-.97.44-1.78 1.17-2.81 1.47-1.91.56-4.03.1-5.95-.17-2.29-.32-4.52-.53-6.79 0-1.77.4-4 1.64-5.82.84-.89-.39-.8-.95-.77-1.85.05-1.48.11-2.96.16-4.44s.1-2.96.16-4.44c.04-1.25-.21-3.03.27-4.19l-.53.91c.64-.75 2.15-.77 3.07-.77 2.63 0 2.64-4.07 0-4.09-2.3-.02-5.94.54-6.65 3.18-.33 1.24-.22 2.7-.27 3.97-.06 1.4-.11 2.8-.17 4.2s-.11 2.8-.17 4.2c-.05 1.29-.24 2.7.16 3.95.65 2.02 2.59 3.33 4.62 3.67 2.48.42 4.69-.56 7.06-1.1 2.22-.51 4.54.01 6.75.31 2.24.3 4.56.45 6.7-.4.95-.38 1.84-1.26 2.8-1.51s2.47.64 3.42.91c5.07 1.46 10.43 1.27 15.64.91 2.34-.16 4.76-.27 7.04-.9 2-.56 4.52-1.68 5.52-3.63 2.45-4.79-6.67-6.69-9.53-7.55-1.94-.58-3.55-1.35-4.95-2.84-1.32-1.41-2.53-3.02-4.28-3.94-.52-.27-1.1-.5-1.68-.62-.64-.13-1.4 0-2.02-.18-.39-.11-.65-.44-.98-.69-.6-.46-1.25-.73-2-.85-1.44-.24-2.97-.11-4.42-.09-1.56.02-3.13.04-4.69.05-6.35.07-12.67.38-19.01.73-1.63.09-1.63 2.44 0 2.53Zm-27.06-5.98c9.04.34 18.11.26 27.15.27 4.48 0 8.97.03 13.45.07 2.24.02 4.48.03 6.73.07s4.73.41 6.9-.11c1.53-.36 1.53-2.72 0-3.09-2.17-.52-4.68-.15-6.9-.11-2.16.04-4.32.05-6.48.07-4.57.03-9.13.06-13.7.07-9.05.01-18.11-.07-27.15.27-1.6.06-1.6 2.42 0 2.48Zm9.68-33.85c5.89.16 11.78.19 17.68.24 2.9.02 5.81.03 8.71.03 2.89 0 6.01.37 8.86-.11 1.42-.24 1.43-2.64 0-2.88-2.78-.47-5.8-.12-8.61-.12-2.99 0-5.98.01-8.96.03-5.89.05-11.79.08-17.68.24-1.65.04-1.65 2.52 0 2.56Zm3.74-27.72c4.33.12 8.67.14 13 .18 4.31.04 8.71.32 13-.09a1.456 1.456 0 0 0 0-2.91c-4.29-.41-8.69-.13-13-.09-4.33.04-8.67.06-13 .18-1.76.05-1.76 2.69 0 2.73m-65.79 95.32c4.59-3.28 7.84 2.49 8.07 6.51l.56-1.35c-.42.38-.73.46-1.27.3l-.51 3.76c9.65-.06 19.31-.08 28.97-.18 1.38-.02 2.47-1.63 1.65-2.87-2.26-3.42.92-7.51 4.65-7.42 1.6.04 3.2.92 3.75 2.48.34.98.27 3.12-.71 3.78-1.73 1.15-1.04 3.75 1.05 3.86 9.72.51 19.3.09 28.98-.8 1.12-.1 2.09-.88 2.09-2.09 0-1.05-.96-2.19-2.09-2.09-4.82.45-9.64.87-14.48 1.03-4.84.15-9.67 0-14.5-.19l1.05 3.86c2.61-1.79 3.19-4.98 2.37-7.89-.9-3.19-3.55-5.29-6.82-5.64s-6.3 1.07-8.14 3.59c-1.95 2.66-2.31 6.65-.49 9.47.55-.96 1.1-1.92 1.65-2.87-9.65 0-19.31.1-28.97.17-2.16.02-2.6 3.16-.51 3.76s5.62-.34 5.51-3.05c-.1-2.33-.91-4.77-2.26-6.66-2.66-3.72-7.82-5.07-11.42-1.81-1.25 1.13.42 3.37 1.83 2.37Z"/><path d="M89.96 144.86c-1.68-.36-3.41-.65-5.02.16-1.52.76-2.48 2.43-2.79 4.06-.28 1.48-.21 3.07.33 4.5.57 1.52 1.57 3.13 3.21 3.63.77.24 1.76-.15 2.14-.87.4-.76.31-1.66-.3-2.29-.14-.14-.26-.26-.41-.38-.58-.45.31.29-.13-.12-.16-.15-.29-.34-.45-.48.33.29.16.2.04.03-.06-.1-.12-.19-.18-.29-.07-.12-.13-.24-.19-.36-.21-.38.06.21 0 .03-.08-.25-.18-.49-.25-.74-.05-.19-.04-.57-.15-.72.04.31.05.36.02.15 0-.06-.01-.12-.02-.18 0-.12-.01-.25-.02-.37 0-.27.02-.53.03-.79.02-.42-.09.44 0 .02.03-.12.05-.24.07-.35s.06-.23.1-.35c.02-.07.23-.49.07-.22-.17.29.12-.23.15-.28.07-.12.15-.25.22-.37.04-.06.08-.12.12-.17.08-.11.05-.08-.07.09.02-.1.22-.23.3-.3-.28.26.01 0 .1-.05l.24-.12c-.17.07-.2.09-.09.05.15-.03.31-.08.45-.12.33-.09-.26 0 .12-.02.28-.02.55-.03.83-.02.14 0 .28.03.42.04.18.02.18.02.02 0 .09.01.18.03.27.04.76.11 1.62-.19 1.81-1.03.17-.74-.22-1.63-1.03-1.81Zm81.11 1.91c-3.59-3.26-8.76-1.91-11.42 1.81-1.35 1.89-2.03 4.17-2.25 6.46-.26 2.82 3.24 3.89 5.49 3.25 2.07-.59 1.67-3.74-.51-3.76-9.65-.08-19.31-.18-28.97-.17.55.96 1.1 1.92 1.65 2.87 1.77-2.75 1.49-6.68-.38-9.31-1.84-2.6-5.07-4.08-8.25-3.74-3.2.35-5.84 2.37-6.77 5.49-.88 2.94-.34 6.23 2.32 8.05l1.05-3.86c-4.83.19-9.66.35-14.5.19-4.84-.15-9.66-.58-14.48-1.03-1.12-.1-2.09 1.03-2.09 2.09 0 1.21.96 1.98 2.09 2.09 9.68.9 19.26 1.31 28.98.8 2.09-.11 2.77-2.71 1.05-3.86-.95-.63-1.03-2.66-.75-3.62.47-1.65 2.15-2.6 3.79-2.64 3.73-.08 6.9 4 4.65 7.42-.82 1.24.27 2.86 1.65 2.87 9.65.11 19.31.13 28.97.18l-.51-3.76c-.53.15-.86.07-1.27-.3l.56 1.35c.23-4.02 3.48-9.79 8.07-6.51 1.39.99 3.09-1.22 1.83-2.37Z"/><path d="M90.82 147.69c.09-.01.18-.03.27-.04-.14.02-.16.02-.05 0 .16-.01.32-.04.48-.05.28-.01.55 0 .83.02.43.03-.29-.08.12.02.13.03.26.07.39.1.18.06.17.06-.02-.02l.18.09c.05.02.41.27.23.13s.23.19.24.25l-.11-.15c.06.07.11.15.16.23.12.18.43.54.42.76-.11-.26-.12-.3-.05-.12.02.06.04.11.06.17.04.11.07.23.1.34.04.14.06.27.09.41.08.37-.03-.43 0-.02.02.24.03.49.03.73 0 .12 0 .25-.01.37 0 .06-.05.59-.02.23s-.03.16-.05.23c-.02.12-.05.24-.08.36-.06.23-.14.46-.22.69-.13.38.18-.36 0-.03-.06.12-.12.24-.19.36s-.13.23-.21.34c-.1.16-.33.29.04-.03-.16.14-.29.33-.45.48-.24.22-.11.1.07-.03-.25.19-.41.32-.61.53-.56.58-.75 1.58-.3 2.29s1.31 1.12 2.14.87c1.64-.51 2.64-2.11 3.21-3.63.54-1.42.61-3.01.33-4.5-.3-1.63-1.27-3.29-2.79-4.06-1.6-.81-3.33-.52-5.02-.16-.75.16-1.26 1.08-1.03 1.81.27.83.99 1.14 1.81 1.03ZM51 136.14c.02-.27-.07.24-.08.3-.04.19-.06.38-.09.57-.07.45-.11.89-.13 1.35-.04.74-.09 1.48-.1 2.22-.02.74-.03 1.48-.04 2.22-.01.86.13 1.7.26 2.55.12.77 1.05 1.4 1.8 1.37.76-.03 1.67-.55 1.8-1.37s.28-1.69.26-2.55c-.01-.74-.03-1.48-.04-2.22s-.07-1.48-.1-2.22c-.02-.45-.06-.9-.13-1.35-.03-.16-.05-.33-.08-.49-.01-.06-.12-.66-.1-.38-.07-.84-.69-1.65-1.61-1.61s-1.53.71-1.61 1.61Zm76.07-.13c.15-.37-.2.5-.22.6-.07.27-.1.52-.13.8-.05.39-.1.77-.11 1.16-.03.72-.05 1.43-.08 2.15s-.02 1.43-.02 2.15c0 .38-.03.78 0 1.16.05.63.18 1.19.43 1.77.53 1.22 2.69 1.22 3.22 0 .25-.58.39-1.14.43-1.77.03-.38 0-.78 0-1.16 0-.72 0-1.43-.02-2.15s-.05-1.43-.08-2.15c-.01-.39-.06-.77-.11-1.16-.04-.29-.06-.53-.13-.8-.03-.1-.37-.97-.22-.6-.25-.61-.75-1.16-1.48-1.12s-1.21.47-1.48 1.12m-68.65 14.86c4.05.51 8.3.33 12.38.35 4.1.03 8.29.27 12.38-.06 2.25-.18 2.25-3.32 0-3.5-4.09-.32-8.28-.08-12.38-.06-4.08.03-8.33-.16-12.38.35-1.86.24-1.87 2.67 0 2.91Z"/><path d="M96.87 150.42c4.1.41 8.35.15 12.47.18 4.16.02 8.31.09 12.47.18v-3.83c-.48.02-.89.07-1.35.2-1.69.48-1.7 2.96 0 3.44.46.13.87.18 1.35.2 2.46.08 2.47-3.88 0-3.83-4.16.09-8.31.15-12.47.18-4.12.02-8.37-.24-12.47.18a1.56 1.56 0 0 0 0 3.12ZM25.81 80.81c.03-1.14.23-2.23.63-3.31.31-.83.79-2.07 1.44-2.68.35-.32 1.77.07 2.41.25 1.17.33 2.24 1.01 3.47.46 1.03-.47 1.47-1.48 2.16-2.3.61-.73 1.33-1.4 2.2-1.8 1.49-.69 2.93-.28 3.97.94.53.62 1.57.6 2.16.13.67-.54.79-1.37.42-2.13-1.12-2.34-4.12-3.09-6.49-2.62-1.3.26-2.49.96-3.5 1.8-.48.4-.92.85-1.32 1.33-.07.08-1.29 1.49-1.2 1.63.62-.11.76-.21.43-.3-.15-.06-.3-.12-.44-.17-.31-.11-.62-.22-.94-.31-.78-.22-1.59-.35-2.4-.42-1.54-.12-2.78.33-3.7 1.6-1.61 2.23-2.26 5.19-2.22 7.91.03 1.87 2.85 1.87 2.91 0Z"/><path d="M30.51 76.92c1.83.58 3.82.8 5.72.48.3-.05.68-.36.82-.63s.2-.56.16-.87c-.09-.64-.66-1.23-1.34-1.19-.83.05-1.65.09-2.48.03-.16-.01-.45 0-.6-.06.19.03.24.03.13.02-.05 0-.09-.01-.14-.02a14 14 0 0 1-1.55-.36c-.67-.2-1.49.24-1.65.94s.22 1.43.94 1.65Zm105.22 9.51c.71-1.31 1.99-2.84 3.66-2.43.61.15.96.48 1.21 1.03.48 1.09 1.26 1.83 2.52 1.83 1.08 0 1.93-.62 2.67-1.33.57-.55 1.08-.73 1.86-.42 1.57.62 2.56 2.67 3.14 4.13s2.52 1.54 3.09 0c.5-1.35-.47-2.71-1.18-3.81s-1.55-2.16-2.66-2.92c-1.04-.71-2.37-1.08-3.63-.96-.69.07-1.35.26-1.94.64-.3.19-1.38.94-1.5 1.34q-.165.06.03 0c.25-.09.46.02.65.32.04-.07-.21-.51-.29-.65-.33-.58-.78-1.05-1.31-1.44-.9-.66-2.07-1-3.18-.96-2.55.09-4.57 1.95-5.66 4.14-.83 1.66 1.62 3.13 2.51 1.47Z"/><path d="M139.27 87.12c.32.2.63.42.96.61.3.18.62.34.93.5.73.39 1.46.84 2.23 1.15.33.13.87.03 1.16-.15s.48-.41.61-.72c.29-.7.03-1.47-.61-1.87-.32-.2-.69-.34-1.03-.5l-.96-.46c-.75-.36-1.51-.67-2.28-.97-.29-.11-.76-.03-1.01.13s-.42.36-.54.63c-.26.61-.02 1.28.54 1.64Zm-15.32-24c.89-.48 1.85-.24 2.67.35.29.21.61.57.76.91.07.16.15.6.26.86.2.49.54.85 1.04 1.03.96.34 1.59-.19 2.38-.61.11-.06.34-.14.63-.21.11-.02.34-.04.66-.02.12 0 .34.04.65.14.04.01.41.17.21.08.14.06.27.14.39.22.23.14-.03-.06.19.13.09.08.18.17.27.26.14.15.24.3.42.62.78 1.33 3.07.46 2.56-1.08s-2.01-2.75-3.64-3.12a5.6 5.6 0 0 0-2.48-.02c-.41.09-.81.25-1.18.45-.13.07-.26.15-.38.24-.14.1-.27.21-.41.31.08-.16.24-.19.5-.09l.62.36c.14.3.18.34.1.11-.02-.1-.05-.19-.09-.29-.07-.2-.16-.41-.25-.6-.18-.37-.42-.71-.69-1.02-.51-.59-1.15-1.02-1.86-1.32-1.46-.61-3.17-.58-4.53.25-1.31.8-.15 2.77 1.2 2.05ZM36.3 97.59c-1.52-1.1-3.71-.93-5.08.34-1.41 1.31-1.63 3.47-.75 5.14l2.02-2.02c-1.76-1.16-4.08-1.22-5.91-.19-1.74.98-2.86 2.85-2.88 4.84 0 .81.69 1.49 1.49 1.49.89 0 1.39-.69 1.49-1.49-.04.27.05-.15.06-.2.04-.15.09-.29.14-.44 0-.02.2-.44.07-.2.07-.14.14-.27.22-.4.23-.38.53-.68.96-.92.04-.02.43-.2.22-.12.15-.06.31-.11.47-.14.05-.01.49-.07.24-.05.16-.01.33-.02.49-.01.52.01.99.13 1.43.39 1.28.72 2.77-.73 2.02-2.02-.31-.53-.23-1.16.22-1.62.05-.05.18-.13.06-.05 0 0 .39-.21.18-.12.09-.04.19-.06.28-.09 0 0 .37-.07.25-.05.39-.05.63 0 .96.21.61.37 1.44.13 1.8-.47.39-.66.11-1.38-.47-1.8ZM9.58 164.08c3.04 2 6.1 3.96 9.16 5.92.44.28 1.2.33 1.63 0 3.5-2.68 8.74-6.42 12.95-3.07 1.84 1.47 3.4 3.22 5.87 3.53 1.91.24 3.71-.52 5.31-1.49 1.61-.97 3.21-2.45 5.11-2.81 1.85-.35 3.46.91 4.89 1.9 1.71 1.19 3.5 2.31 5.64 2.44s4.1-.88 5.82-2.05c2.01-1.37 4.01-3.13 6.61-2.9 2.89.26 5.53 2.28 7.78 3.96.49.37 1.25.28 1.75 0l6.33-3.51c1.45-.8 3.76-2.8 5.45-1.79s2.99 2.35 4.68 3.29c1.74.97 3.64 1.67 5.64 1.77 1.84.09 3.64-.47 5.17-1.49 1.37-.92 2.6-2.28 4.19-2.84 2.65-.93 5.47 1.47 7.62 2.69 2.97 1.68 6.04 2.53 9.28 1.08 2.44-1.09 5.11-4.2 8.02-3.12 2.54.95 4.29 3.35 6.7 4.56 3.01 1.52 5.86.74 8.25-1.5.88-.82 1.95-2.41 3.23-2.61 1.23-.18 2.32 1.33 3.12 2.05 1.24 1.12 3.45 2.85 5.13 1.67.99-.7 1.85-1.79 2.72-2.64.95-.94 1.91-1.88 2.86-2.83 1.75-1.73-.96-4.45-2.71-2.71s-3.58 3.56-5.36 5.34l1.85-.49c-1.23-.26-2.03-1.26-2.93-2.07-1.17-1.06-2.46-1.96-4.08-2.09-3.11-.24-4.81 2.35-6.92 4.12s-3.85.34-5.62-1.04c-2.18-1.71-4.45-3.65-7.38-3.71-3.48-.07-5.67 2.66-8.65 3.89-2.69 1.11-5.27-.77-7.51-2.09-2.49-1.46-5.28-2.83-8.23-2.06-3.22.84-5.23 4.53-8.74 4.34-2-.11-3.86-1.16-5.49-2.26s-3.2-2.86-5.36-3.05-4.19 1.2-6.02 2.22l-6.99 3.87h1.75c-4.28-3.19-9.46-5.96-14.64-3.02-1.84 1.04-3.39 2.65-5.36 3.45-2.13.87-3.92-.39-5.64-1.55s-3.56-2.4-5.76-2.55c-2.13-.15-4.09.89-5.82 2.02-1.45.95-3.22 2.55-5.09 2.36-2.07-.21-3.65-2.49-5.29-3.58-5.42-3.61-11.74.42-16.09 3.81l1.96-.25c-3.09-1.91-6.19-3.81-9.31-5.66-1.64-.97-3.05 1.5-1.48 2.54Z"/></svg>