<?xml version="1.0" encoding="UTF-8"?><svg xmlns="http://www.w3.org/2000/svg" viewBox="0 0 180 180"><path d="M92.25 25.38c-8.28 3.7-16.48 7.58-24.59 11.66a474 474 0 0 0-12.04 6.31c-3.48 1.88-7.12 3.73-9.94 6.58-3.13 3.16-4.97 7.64-3.88 12.07.17.68.75 1.23 1.41 1.41 8.28 2.3 14.97 11.92 13.28 20.57-.26 1.35.58 2.55 1.99 2.62 5.05.23 10.11-.23 14.86-2.05 5.45-2.08 10.39-5.29 15.32-8.36 3.58-2.23 7.19-4.41 10.77-6.64 3.86-2.41 7.49-5.16 11.15-7.86 3.41-2.51 7.58-4.63 8.65-9.06.95-3.96.47-8.58-.39-12.51-1.84-8.42-8.88-17.18-18.38-16.2-2.52.26-2.63 4.12 0 4.02 7.31-.29 12.43 5.66 14.14 12.27.48 1.87.75 3.77.86 5.69.1 1.78.2 3.68-.18 5.44-.4 1.81-1.42 2.92-2.89 3.98q-2.52 1.8-5.01 3.63c-3.35 2.47-6.69 4.96-10.23 7.15s-6.73 4.13-10.09 6.22c-4.47 2.78-9.21 5.92-13.92 7.89-4.81 2.02-9.48 2.47-14.64 2.26l1.99 2.62c2.08-10.84-5.63-22.67-16.2-25.57l1.41 1.41c-.83-3.33 1.02-6.53 3.4-8.74 2.7-2.51 6.16-4.15 9.36-5.89 7.46-4.06 14.99-8 22.59-11.79 4.27-2.13 8.56-4.21 12.88-6.24 1.95-.92.25-3.73-1.68-2.87Z"/><path d="M55.86 47.25c7.23.67 14.36 4.46 18.56 10.45 2.13 3.04 3.57 6.55 4.1 10.23s.33 7.51-1.93 10.53c-1.23 1.64 1.46 3.67 2.82 2.18 2.96-3.24 3.23-8.24 2.73-12.38-.52-4.35-2.08-8.55-4.61-12.14-4.99-7.07-13.09-11.22-21.67-11.78-1.88-.12-1.84 2.74 0 2.91m16.39-8.27c1.74-.27 3.9 1.42 5.29 2.33s2.64 1.86 3.84 2.93c2.42 2.14 4.53 4.61 6.22 7.37 1.66 2.69 2.95 5.57 3.74 8.63.82 3.15.84 6.16.83 9.38-.01 1.94 3.19 2.51 3.5.47 1.1-7.16-1.54-15.14-5.56-21-2.1-3.07-4.65-5.81-7.59-8.09s-7.13-5.43-11-4.64c-1.75.35-.98 2.9.73 2.64Zm12.71-6.69c3.13-.28 5.91 1.76 8.18 3.67 2.43 2.04 4.8 4.27 6.69 6.83 3.85 5.22 5.11 11.61 5.4 17.98.11 2.39 3.84 2.41 3.73 0-.34-7.46-1.99-14.7-6.72-20.65-2.2-2.77-4.87-5.25-7.69-7.38-2.99-2.25-6.17-3.71-9.96-3.15-1.52.23-1.18 2.84.37 2.7"/><path d="M44.6 63.67c-6.88 4.14-13.84 8.34-19.53 14.01-10.54 10.49-9.23 25.27-6.24 38.57 2.94 13.07 7.68 26.52 15.78 37.35 5.68 7.59 14.19 13.6 23.5 15.7 14.56 3.29 28.09-5.49 39-14.08 18.94-14.91 40.48-30.43 53.56-51.08 9.72-15.34 12.31-47.49 12.62-65.05.16-9.47-1.19-18.3-9.65-23.91-8.87-5.88-18.99-6.97-28.55-2.14-6.09 3.07-11.21 7.73-16.24 12.34 3.45 2.67 7.08 5.61 8.35 9.78 1.11 3.64.27 7.82 2.17 11.12 3.34-3.12 17.57-15.27 21.44-10.05 3.79 5.11 1.87 12.83 1.2 18.64-1.75 15.25-4.91 31.16-14.33 43.89-9.37 12.66-22.09 22.34-34.58 31.71-8.03 6.02-16.78 12.42-27.16 13.12-10.01.68-14.82-10.34-17.27-18.38-2.19-7.2-8.94-27.9-2.14-34.15 4.31-3.96 13.42-7.99 13.18-11.22-.72-10.02-11.31-20.19-13.76-16.47"/><path d="M43.75 62.2c-6.51 3.77-13.04 7.6-18.66 12.65-4.97 4.46-8.38 10.1-9.74 16.67-1.31 6.35-.89 12.84.16 19.19 1.13 6.83 2.89 13.61 5.13 20.16 4.56 13.33 11.56 26.76 23.59 34.75 5.71 3.79 12.46 6.35 19.35 6.56 7.12.22 14.06-2.11 20.29-5.41 6.25-3.31 11.79-7.67 17.34-12.01 5.47-4.28 10.97-8.52 16.37-12.9 10.89-8.84 21.39-18.28 29.95-29.45 3.61-4.71 6.73-9.59 8.95-15.11 2.12-5.29 3.57-10.85 4.72-16.42 2.38-11.58 3.48-23.47 4-35.27.24-5.5.5-11.07-.46-16.52-1.07-6.06-4.08-11.38-9.05-15.05-5.7-4.21-13.04-6.6-20.14-6.08-7.56.55-14.08 4.18-19.95 8.77-2.87 2.24-5.56 4.69-8.24 7.14-.78.71-.88 2.33 0 3.02 2.89 2.25 6.28 4.74 7.61 8.3.71 1.88.73 3.89.91 5.87.2 2.22.58 4.33 1.65 6.31.68 1.26 2.4 1.35 3.37.43 2.05-1.91 4.24-3.73 6.48-5.38 2.73-2.01 5.79-4.16 8.92-5.07.34-.1.68-.18 1.03-.25.08-.02.42-.05.02-.01.15-.02.31-.03.47-.03.17 0 .9.08.4-.02.16.03.32.07.48.11.43.13-.36-.14.09.04.07.03.21.11.27.17-.4-.38.02.04.06.1.19.29.4.58.58.9.59 1.05.92 2.21 1.13 3.39.84 4.81-.46 9.99-1.05 14.77-1.33 10.9-3.47 22.02-8.31 31.96-5.02 10.3-13.14 18.71-21.71 26.15-4.37 3.79-8.93 7.36-13.55 10.85-4.46 3.37-8.9 6.84-13.65 9.8s-9.54 5.25-14.93 5.99c-4.13.57-7.53-.53-10.37-3.61-4.86-5.28-6.66-13.02-8.54-19.75-1.11-3.97-2.11-8.01-2.65-12.11-.47-3.51-.75-7.31.35-10.64.44-1.35 1.09-2.2 2.3-3.21 1.7-1.42 3.62-2.59 5.46-3.81 2.77-1.82 7.71-4.42 7.66-8.31-.06-4.52-2.44-9.23-5.11-12.76-2.01-2.66-4.87-5.91-8.35-6.51-1.74-.3-3.21.3-4.23 1.73-.66.93-.16 2.35.76 2.89 1.06.62 2.22.17 2.89-.76-.21.29-.04.15-.42.29.45-.17 0-.07-.02-.03.01-.02.31.01.3 0-.26-.21-.2-.06.08.04.11.04.23.07.34.11.56.19-.21-.11.13.05q.345.165.66.36c1.47.87 2.71 2.16 3.84 3.51 1.45 1.74 2.67 3.76 3.55 5.84.4.95.72 1.94.96 2.93.13.52.24 1.04.31 1.57.03.24.05.49.07.73.03.45.15-.36 0 .1-.17.53.22-.35-.09.17-.07.12-.14.24-.22.34.18-.24-.13.14-.18.19-.14.15-.29.3-.44.45-.73.7-1.54 1.31-2.37 1.89-1.9 1.34-3.89 2.55-5.8 3.89-1.72 1.2-3.5 2.44-4.72 4.17-.97 1.37-1.56 3.04-1.89 4.68-.81 4.12-.39 8.36.26 12.47.66 4.12 1.68 8.18 2.84 12.18 2.12 7.36 4.26 15.58 9.92 21.09 3.35 3.26 7.62 4.69 12.26 4.17 5.69-.64 11-2.79 15.91-5.68 4.93-2.89 9.47-6.42 14.02-9.86 4.79-3.62 9.55-7.28 14.11-11.18 8.88-7.57 17.49-16.21 22.94-26.65 5.39-10.32 7.86-21.8 9.38-33.26.35-2.62.65-5.24 1.01-7.86.35-2.56.68-5.15.58-7.74-.16-3.77-1.43-9.53-5.81-10.43-3.34-.69-6.9 1.18-9.69 2.81-3.24 1.9-6.24 4.21-9.12 6.61-.91.76-1.81 1.55-2.68 2.36 1.12.14 2.25.29 3.37.43-1-1.84-1.05-3.96-1.22-5.99-.19-2.21-.5-4.33-1.42-6.37-1.7-3.78-5.03-6.48-8.22-8.96v3.02c5.19-4.75 10.52-9.69 17.02-12.59 6.1-2.73 12.91-2.79 19.14-.46 5.49 2.06 10.51 5.75 12.76 11.31 2.02 5 2.02 10.52 1.89 15.82-.26 10.71-1.12 21.43-2.88 32-.93 5.59-2.09 11.16-3.71 16.6-1.38 4.6-3.08 9.16-5.62 13.26-6.93 11.15-16.42 20.57-26.28 29.13-5.15 4.47-10.47 8.72-15.83 12.93s-10.16 8.13-15.41 11.94c-5.36 3.89-11.13 7.47-17.49 9.46-6.32 1.98-12.75 2-19.02-.17-5.88-2.03-11.19-5.67-15.47-10.17-4.58-4.81-8-10.74-10.79-16.72-2.9-6.21-5.03-12.77-6.72-19.41-1.51-5.94-2.79-12-3.01-18.14-.21-5.75.52-11.62 3.31-16.75 3.21-5.89 8.78-10.2 14.2-13.96 2.94-2.04 5.98-3.94 9.01-5.83 1.85-1.15.19-4.03-1.71-2.93Z"/></svg>