<?xml version="1.0" encoding="UTF-8"?><svg xmlns="http://www.w3.org/2000/svg" data-name="ARTWORK" viewBox="0 0 1000 1000"><path d="M833.903 170.082c-21.107-19.196-44.858-35.67-70.587-48.033-13.819-6.64-25.651-11.82-39.869-16.133a290 290 0 0 0-39.175-8.947c-55.714-8.749-112.914-2.581-166.067 16.056-53.596 18.793-103.142 49.679-142.637 90.614-46.293 47.983-77.101 109.7-88.916 175.255-6.531 36.236-7.854 73.265-3.879 109.868 2.028 18.674 5.166 37.226 9.603 55.48 4.226 17.387 10.079 34.067 15.835 50.975.1.292.318 1.448.557 1.688.904.906-.565-4.527-.37-2.652.36 3.465 1.276 6.453 2.343 9.761l5.919-14.545c-44.509 27.099-89.375 53.614-134.117 80.324-23.615 14.097-47.219 28.209-70.76 42.428-21.173 12.789-42.95 25.01-63.41 38.92-13.488 9.17-28.365 20.63-34.428 36.331-5.777 14.959 1.193 30.431 7.139 44.138 5.466 12.6 13.913 24.39 25.68 31.792 13.284 8.356 28.746 8.012 43.263 3.373 26.918-8.6 48.69-27.84 71.228-44.125 20.935-15.127 42.096-29.939 63.28-44.713 43.56-30.378 87.493-60.264 130.455-91.489 4.223-3.069 8.419-6.174 12.628-9.262l-15.148-19.633c-10.465 8.65-2.724 24.092 2.998 32.908 7.553 11.638 16.721 22.329 25.947 32.662 18.666 20.908 38.742 39.524 62.936 54.06 65.748 39.501 146.548 46.279 220.423 29.833 75.257-16.753 142.661-58.267 192.199-117.214 51.558-61.351 84.239-137.417 92.745-217.126 8.889-83.302-11.329-170.084-63.13-236.752-6.799-8.75-14.09-17.035-21.792-24.998-10.823-11.191-27.887 5.895-17.074 17.074 29.083 30.07 50.959 67.433 63.693 106.972 5.707 17.719 9.849 35.928 12.435 54.362.344 2.451-.347-2.949.16 1.221.158 1.298.32 2.595.469 3.894q.372 3.246.68 6.498.678 7.153 1.056 14.329c.48 9.13.596 18.278.362 27.417a360 360 0 0 1-1.889 28.684 364 364 0 0 1-1.075 9.094c.323-2.442-.262 1.811-.266 1.835q-1.036 7.125-2.343 14.206a385 385 0 0 1-14.283 54.51c-11.569 33.874-28.341 66.731-49.926 97.247-10.215 14.442-21.442 28.02-34.7 41.774a366 366 0 0 1-19.768 19.041 358 358 0 0 1-10.405 8.936 314 314 0 0 1-7.252 5.814c1.884-1.456-1.916 1.431-2.262 1.689-13.897 10.351-28.667 19.522-44.048 27.497-16.729 8.675-29.612 14.073-47.712 20.015a343.6 343.6 0 0 1-52.527 12.787c-7.707 1.241-14.331 2.055-23.97 2.794a317 317 0 0 1-27.481.92 303 303 0 0 1-26.083-1.38 297 297 0 0 1-9.856-1.122c.552.073 2.371.355-.231-.043-4.484-.686-8.958-1.401-13.412-2.265-17.347-3.364-34.374-8.395-50.7-15.166 2.469 1.024-1.273-.556-1.433-.627q-1.13-.496-2.255-1.002a242 242 0 0 1-18.235-9.154 236 236 0 0 1-22.656-14.332 303 303 0 0 1-5.069-3.731c-3.239-2.424 1.018.819-.868-.669-.829-.654-1.664-1.302-2.489-1.962-3.653-2.92-7.236-5.946-10.686-9.104-2.356-2.157-4.612-4.424-6.862-6.69-8.435-8.493-16.618-17.257-24.429-26.329a328 328 0 0 1-6.276-7.501 294 294 0 0 1-3.08-3.878c2.079 2.656-1.022-1.392-1.644-2.248-2.966-4.084-5.5-8.288-7.883-12.722-.659-1.226.947 3.271.096.052-.389-1.473-.443-3.683-.126.789-.181-2.553-.006-.156-.364 1.242.424-1.656-1.681 3.306-.81 1.878-1.866 3.059-2.14 2.483-1.166 1.662 4.707-3.964 4.559-11.916.977-16.413-3.519-4.418-11.067-7.002-16.126-3.22-39.352 29.424-80.271 56.832-120.762 84.648-21.431 14.722-42.86 29.449-64.157 44.365-19.534 13.681-38.474 28.341-58.271 41.626-6.389 4.287-12.991 8.305-19.948 11.608-1.417.673-2.532 1.164-3.132 1.404a82 82 0 0 1-5.004 1.813 83 83 0 0 1-7.342 2.032c.104-.023-4.013.798-2.507.561 1.401-.221-.601.057-.74.064-.812.04-1.617.092-2.43.093-.804 0-4.192-.351-2.913-.121 1.325.238-1.981-.524-2.686-.736a39 39 0 0 1-2.127-.727c1.16.426 1.216.631.087-.027-1.139-.664-2.289-1.282-3.412-1.977-.315-.195-2.262-1.58-.976-.621 1.184.883-.32-.274-.455-.399-2.325-2.157-4.573-4.334-6.528-6.845 1.31 1.682-.438-.72-.814-1.281a70 70 0 0 1-2.633-4.258c-1.32-2.311-3.324-6.429-3.823-7.619.549 1.309-.42-1.08-.415-1.068-.375-.945-.761-1.885-1.136-2.829-.62-1.559-1.237-3.12-1.818-4.695-1.121-3.039-2.054-6.091-2.729-9.259.536 2.516.011-.757-.027-1.701-.017-.421.199-2.835-.023-1.102-.206 1.608.091-.298.162-.528.238-.776.424-1.54.699-2.309-.1.279-.781 1.643-.047.252.661-1.255 2.005-3.385 2.527-4.056 3.393-4.363 10.349-10.593 14.103-13.402 10.257-7.674 21.462-14.058 32.402-20.694 9.87-5.986 19.751-11.952 29.639-17.909 22.286-13.425 44.584-26.83 66.859-40.272a43331 43331 0 0 0 131.791-79.839q6.628-4.032 13.249-8.077c4.69-2.867 7.69-9.087 5.919-14.545-.531-1.635-.997-3.298-1.543-4.927-.467-1.394-.554-4.038.077 1.719-.219-2.003-.442-3.723-1.079-5.585-2.784-8.132-5.873-16.137-8.465-24.339a415 415 0 0 1-12.595-50.681c-3.128-17.165-4.913-33.171-5.663-51.27-.716-17.299-.265-34.65 1.423-51.883 1.619-16.525 4.673-33.615 9.112-50.722 4.217-16.25 9.975-33.351 16.412-47.969 6.809-15.464 14.785-30.437 23.931-44.647a310 310 0 0 1 14.378-20.465c-1.399 1.838 1.055-1.346 1.528-1.942a323 323 0 0 1 6.484-7.911 332 332 0 0 1 28.322-29.521 343 343 0 0 1 19.02-16.291c.581-.462 3.745-2.936 1.966-1.562a334 334 0 0 1 8.223-6.137c22.046-15.959 45.899-29.256 70.894-39.997 1.808-.777-1.603.662.216-.091q1.054-.437 2.108-.87 2.374-.972 4.762-1.909a364 364 0 0 1 9.597-3.613 360 360 0 0 1 19.454-6.395 353 353 0 0 1 39.139-9.266 349 349 0 0 1 9.477-1.541c.744-.11 4.696-.656 2.431-.357a333 333 0 0 1 25.799-2.381c13.258-.704 26.525-.774 39.779.092 6.5.425 12.989 1.049 19.448 1.895-1.802-.236.08.013.375.056.922.135 1.845.266 2.767.406a297 297 0 0 1 14.864 2.639c12.992 2.655 25.719 6.335 38.302 10.484 13.128 4.329 23.549 8.798 35.597 15.22 11.886 6.336 23.498 13.484 34.148 21.749 5.338 4.142 10.487 8.527 15.5 13.056 8.171 7.381 20.323-4.679 12.13-12.13Z"/><path d="M468.034 210.381c-19.205 14.486-36.54 31.145-51.49 50.008a380 380 0 0 0-6.597 8.566q-.638.855-1.27 1.713c-.83 1.129-.743.98.156-.127-1.386 1.707-2.626 3.523-3.88 5.327a299 299 0 0 0-9.646 14.793 310 310 0 0 0-16.526 30.895 316 316 0 0 0-3.496 7.798l-.846 1.962c-.452 1.053-.866 2.124-1.34 3.167-.494 1.086.567-1.325.507-1.199-.977 2.046-1.786 4.187-2.659 6.278-1.14 2.731-2.3 5.47-3.314 8.251-.134.366-.606 1.386.115-.206 1.045-2.309-.491 1.09-.904 2.205-.248.67-.478 1.347-.718 2.02a335 335 0 0 0-11.067 37.938c-5.417 23.688-8.11 48.169-8.33 72.46s2.184 48.498 7.1 72.196c4.856 23.406 12.505 46.143 22.619 67.799 10.151 21.736 23.197 41.966 38.602 60.349 15.788 18.84 34.387 35.26 54.783 48.962 26.256 17.639 55.906 29.869 87.231 34.684 33.87 5.206 68.381 3.078 101.514-5.648 32.132-8.463 62.428-23.102 89.73-41.948 27.768-19.167 52.961-42.119 74.49-68.101 20.968-25.305 38.683-53.056 51.376-83.41 10.514-25.143 16.858-51.632 19.895-78.683 3.075-27.389 2.025-54.978-2.238-82.18-4.299-27.43-12.513-54.017-23.896-79.322-11.5-25.563-26.73-49.338-44.891-70.68-18.966-22.288-41.702-42.048-66.838-57.091-29.244-17.502-62.123-27.744-95.999-30.868-34.092-3.144-68.806 1.599-101.365 11.918-17.289 5.479-33.518 13.019-49.707 21.102-5.16 2.577-7.02 10.285-3.947 15.052 3.403 5.278 9.533 6.703 15.052 3.947 3.996-1.996 8.137-3.746 12.243-5.505-2.057.881.513-.209 1.224-.5a309 309 0 0 1 9.17-3.598c8.204-3.072 16.468-5.995 24.866-8.494a280 280 0 0 1 24.414-6.098 264 264 0 0 1 12.175-2.164c1.012-.155 2.025-.3 3.038-.448 2.236-.329-2.424.302.707-.092 2.015-.253 4.033-.491 6.052-.705 15.996-1.7 32.166-1.851 48.176-.247q2.724.273 5.44.612c3.11.389-1.647-.257.568.074 1.108.166 2.217.325 3.324.5q5.802.92 11.546 2.152a212 212 0 0 1 22.64 6.189 210 210 0 0 1 11.065 4.046c.915.364 1.823.744 2.737 1.112 1.538.619-2.032-.884-.512-.218.387.17.777.334 1.165.503a212 212 0 0 1 26.871 14.077c6.385 3.946 12.552 8.237 18.54 12.762.393.297.782.598 1.176.894 1.042.781-.991-.771-.942-.732.672.536 1.356 1.057 2.031 1.589a273 273 0 0 1 12.07 10.121 274.5 274.5 0 0 1 28.146 29.029c2.144 2.564 4.186 5.205 6.288 7.802-.132-.163-1.732-2.264-.539-.693l.649.853a289 289 0 0 1 4.447 6.028 278 278 0 0 1 11.205 16.88 291 291 0 0 1 18.304 35.081q.494 1.13.981 2.264c.824 1.907-1.067-2.569.041.098A298 298 0 0 1 861 356.325a302 302 0 0 1 8.609 40.729c.374 2.67-.273-2.161-.004-.041a300 300 0 0 1 2.462 34.382 293 293 0 0 1-2.323 41.157c-.059.457-.127.914-.179 1.371-.017.152.402-2.784.192-1.456-.269 1.706-.492 3.42-.761 5.126a281 281 0 0 1-5.981 28.334 270 270 0 0 1-5.612 18.441 267 267 0 0 1-5.071 13.534c-.302.744-.617 1.483-.917 2.228-.489 1.213.59-1.381.536-1.266-.243.519-.451 1.056-.679 1.582-5.829 13.472-12.826 26.435-20.621 38.868a336 336 0 0 1-13.652 20.102 356 356 0 0 1-3.335 4.475l-.78 1.026c-1.294 1.707.059-.14.295-.373-.789.782-1.435 1.841-2.124 2.712a356 356 0 0 1-7.654 9.346 365 365 0 0 1-33.693 34.779 357 357 0 0 1-18.746 15.812c-.338.266-2.458 1.916-1.154.906 1.364-1.057-1.141.867-1.506 1.143a334 334 0 0 1-5.137 3.812 335 335 0 0 1-9.728 6.821c-13.175 8.892-26.99 16.875-41.439 23.513q-2.529 1.162-5.082 2.27l-1.179.509c-1.991.86.187-.135.493-.206-1.055.247-2.165.894-3.17 1.298a261 261 0 0 1-11.221 4.214c-7.536 2.635-15.191 4.926-22.938 6.855s-15.543 3.484-23.417 4.663c-.381.057-3.673.512-1.78.265 1.709-.222.233-.031-.095.01-.563.07-1.125.143-1.689.211q-2.955.359-5.917.644-6.13.59-12.282.861c-7.9.347-15.818.296-23.712-.18a219 219 0 0 1-11.798-1.032c-.948-.109-2.028-.088-2.939-.358-.006-.002 2.467.348 1.087.146-.558-.082-1.117-.158-1.675-.24a214 214 0 0 1-5.847-.944 205 205 0 0 1-23.499-5.571 199 199 0 0 1-16.505-5.769c-.925-.37-1.878-.707-2.777-1.135.031.015 2.119.919.882.367-.654-.292-1.315-.57-1.969-.861-12.53-5.567-24.418-12.523-35.698-20.302a252 252 0 0 1-7.2-5.154c-1.178-.875-2.334-1.778-3.51-2.655-.148-.11 2.175 1.707 1.18.908-.326-.261-.658-.515-.986-.773a249 249 0 0 1-15.109-12.922 251.4 251.4 0 0 1-26.12-28.227q-.657-.833-1.311-1.667c-1.045-1.329 1.809 2.37.019.017a257 257 0 0 1-5.014-6.821 264 264 0 0 1-9.329-14.078 272 272 0 0 1-16.008-29.988 278 278 0 0 1-2.442-5.503l-.356-.83c-.787-1.821.93 2.241.379.902a360 360 0 0 1-3.142-7.83 293 293 0 0 1-5.6-15.938 305 305 0 0 1-8.543-33.104 317 317 0 0 1-2.879-16.768c-.101-.703-.191-1.407-.297-2.109-.196-1.3.249 1.884.22 1.644-.048-.403-.106-.805-.158-1.208q-.273-2.115-.517-4.232a331 331 0 0 1-.868-8.491c-2.044-22.965-1.665-46.141 1.035-69.035.156-1.32.324-2.639.49-3.957.319-2.532-.343 2.435-.055.401.115-.81.227-1.621.345-2.43q.618-4.251 1.344-8.485c.968-5.646 2.02-11.282 3.219-16.884a334 334 0 0 1 8.985-33.435c1.765-5.423 3.585-10.83 5.568-16.179.991-2.672 2.05-5.314 3.14-7.947.907-2.192-.772 1.789-.025.058l.847-1.966a309 309 0 0 1 17.613-34.486 305 305 0 0 1 18.96-28.27c.427-.565.861-1.126 1.288-1.692.659-.874-.686.879-.642.829.265-.301.501-.645.749-.962q1.315-1.68 2.655-3.34a280 280 0 0 1 5.659-6.79 274 274 0 0 1 11.534-12.593 269 269 0 0 1 24.722-22.382c3.545-2.831 3.228-8.743.714-11.997s-8.141-5.102-11.786-2.353ZM160.805 701.716q.262.331.52.665l-1.486-1.923c2.211 2.869 4.597 5.583 6.812 8.448l-1.595-2.065c5.122 6.694 9.627 13.667 12.933 21.446l-1.098-2.601c2.479 5.915 4.211 12.115 5.997 18.266 1.836 6.324 3.614 12.684 4.499 19.222l-.4-2.978c.303 2.361.496 4.734.504 7.116s-.419 4.744-.406 7.112c.031 5.537 4.199 10.168 9.62 10.896 5.578.75 10.445-2.639 12.173-7.947.708-2.176.838-4.678.975-6.977a47 47 0 0 0 .027-4.983c-.177-3.854-.722-7.715-1.417-11.507-1.132-6.176-2.955-12.202-4.742-18.213-3.472-11.674-8.259-22.928-15.58-32.732-4.563-6.111-9.581-11.717-15.982-15.96-1.877-1.244-5.091-1.633-7.22-.945-1.975.639-3.592 1.708-4.867 3.358-1.221 1.58-2.104 3.625-2.012 5.677l.335 2.491a9.36 9.36 0 0 0 2.41 4.135ZM41.276 790.512q.244-.332.495-.657l-1.211 1.567c1.317-1.697 2.724-3.426 4.416-4.762l-1.592 1.23c2.278-1.759 4.731-3.24 7.381-4.369l-2.075.876a31.4 31.4 0 0 1 7.341-2.001l-2.463.331a23 23 0 0 1 5.839 0l-2.531-.34c1.915.283 3.791.793 5.581 1.532l-2.318-.978a20.6 20.6 0 0 1 4.048 2.344l-1.982-1.531c1.551 1.203 2.876 2.605 4.076 4.155l-1.548-2.004c3.053 4.068 5.29 8.762 7.511 13.318 2.325 4.768 4.615 9.538 6.684 14.424l-1.032-2.447c1.709 4.059 3.307 8.163 4.783 12.312s2.839 8.307 3.454 12.662l-.368-2.739c.3 2.359.36 4.705.089 7.069l.369-2.743a20.3 20.3 0 0 1-1.288 4.887l1.041-2.467a19.2 19.2 0 0 1-2.443 4.215l1.617-2.093a15.3 15.3 0 0 1-2.238 2.269l2.094-1.618c-.8.615-1.623 1.166-2.543 1.586l2.453-1.035c-1.497.618-3.026 1.135-4.525 1.775l2.394-1.01q-.296.12-.601.213c-3.978 1.317-7.42 5.044-7.221 9.484.194 4.325 2.913 8.32 7.221 9.484 4.23 1.144 8.084.251 11.852-1.709 3.074-1.599 5.322-4.196 7.353-6.911 3.43-4.584 4.951-10.343 5.24-15.989s-1.005-11.463-2.759-16.813c-1.564-4.772-3.383-9.471-5.309-14.108-4.001-9.636-8.315-19.265-13.928-28.09-3.152-4.956-7.021-9.603-12.227-12.5-4.778-2.659-10.443-4.074-15.917-3.591-6.039.532-11.548 2.442-16.382 6.142-4.721 3.614-8.715 8.002-12.196 12.818-1.11 1.536-1.263 4.21-.78 5.963.494 1.795 1.882 3.74 3.556 4.625 1.796.949 3.971 1.424 5.963.78 2.035-.659 3.355-1.851 4.625-3.556Z"/><path d="M479.663 661.873c25.209-10.918 50.353-22.02 75.179-33.787a3452 3452 0 0 0 73.981-36.152c24.618-12.396 49.036-25.169 73.291-38.259a3454 3454 0 0 0 71.966-39.955c23.833-13.606 47.494-27.49 70.871-41.866 3.467-2.132 6.564-4.665 9.484-7.489 2.884-2.79 3.693-7.966 1.472-11.411-2.181-3.383-6.585-5.683-10.634-4.327-3.855 1.291-7.554 2.78-11.06 4.857q-4.425 2.623-8.858 5.234c-5.91 3.481-11.85 6.913-17.752 10.408a3446 3446 0 0 1-107.342 61.001c-24.094 13.127-48.559 26.06-73.006 38.769a3450 3450 0 0 1-73.457 37.082c-24.613 12.059-49.242 24.098-74.018 35.818a3935 3935 0 0 1-9.294 4.38c-4.317 2.027-5.756 8.567-3.261 12.437 1.251 1.941 3.115 3.649 5.432 4.177 2.541.579 4.635.11 7.004-.916Z"/><path d="M487.157 640.305c-7.605-27.38-8.303-32.729-17.057-65.658-1.49-5.604-2.943-11.956.107-16.887 1.893-3.061 5.19-4.937 8.431-6.503a98.8 98.8 0 0 1 29.535-8.917c1.029-.141 2.121-.258 3.071.163 1.162.515 1.848 1.71 2.426 2.842 5.937 11.626 8.858 24.516 11.724 37.252 4.857 21.584 2.429 13.131 7.286 34.715"/><path d="M495.697 637.951c-1.289-4.965-2.444-9.908-3.397-14.949-.75-3.969-1.677-7.894-2.562-11.836-1.9-8.462-3.76-16.933-5.71-25.384-.758-3.286-1.589-6.553-2.419-9.821-.897-3.53-1.918-7.051-2.428-10.663l.389 2.895c-.24-1.878-.318-3.748-.078-5.63l-.391 2.908c.161-1.041.416-2.037.794-3.02l-1.106 2.62c.42-.987.943-1.885 1.595-2.737l-1.72 2.226a15.4 15.4 0 0 1 2.254-2.212l-2.232 1.724c2.902-2.229 6.34-3.713 9.685-5.142l-2.645 1.116c7.984-3.365 16.375-5.702 24.958-6.894l-2.964.398c.805-.108 1.591-.204 2.404-.161l-2.967-.399c.405.056.733.136 1.116.279l-2.667-1.126q.312.141.587.347l-2.261-1.747c.273.225.499.447.732.714l-1.747-2.262c1.586 2.077 2.553 4.772 3.562 7.163l-1.131-2.679c4.716 11.327 7.147 23.39 9.857 35.307 1.315 5.782 2.457 11.586 3.627 17.396a127 127 0 0 0 3.596 13.753c1.627 5.068 6.319 8.331 11.661 7.613 2.23-.3 4.535-1.216 6.103-2.923 1.759-1.917 3.474-4.803 3.113-7.515-1.36-10.207-3.257-20.384-5.386-30.464-1.768-8.374-3.598-16.755-5.973-24.981-1.219-4.223-2.602-8.404-4.266-12.474-2.367-5.79-4.675-12.656-10.213-16.19-2.231-1.423-4.74-1.986-7.344-2.133-1.863-.106-3.758.344-5.593.617a99 99 0 0 0-19.184 4.828c-4.79 1.73-9.594 3.692-14.086 6.106a32.5 32.5 0 0 0-6.685 4.784c-2.67 2.483-4.373 5.506-5.689 8.85-2.047 5.204-1.488 11.118-.415 16.464.843 4.196 2.154 8.312 3.276 12.439 1.779 6.541 3.682 13.048 5.502 19.578 1.414 5.073 2.811 10.15 4.245 15.217 1.645 5.813 3.822 11.441 5.512 17.236q.798 2.737 1.608 5.471c1.313 4.439 6.283 7.678 10.895 6.186 4.622-1.496 7.434-6.089 6.186-10.895Zm77.924-40.772c-7.605-27.38-15.589-62.766-24.343-95.695-1.49-5.604-2.943-11.956.107-16.887 1.893-3.061 5.19-4.937 8.431-6.503a98.8 98.8 0 0 1 29.535-8.917c1.029-.141 2.121-.258 3.071.163 1.162.515 1.848 1.71 2.426 2.842 5.937 11.626 8.858 24.516 11.724 37.252l14.572 64.751"/><path d="M582.161 594.824c-1.607-6.096-3.053-12.188-4.284-18.371-1.327-6.669-2.885-13.282-4.388-19.913-3.138-13.855-6.152-27.739-9.557-41.531q-1.467-5.95-2.978-11.89c-.927-3.642-2-7.274-2.535-11.001l.391 2.911c-.244-1.878-.326-3.747-.09-5.63l-.393 2.922a14.5 14.5 0 0 1 .788-3.022l-1.11 2.631a12.5 12.5 0 0 1 1.589-2.741l-1.726 2.234a16 16 0 0 1 2.558-2.467l-2.237 1.728c2.949-2.193 6.412-3.67 9.78-5.092l-2.646 1.117a100.4 100.4 0 0 1 24.984-6.798l-2.959.398c.656-.084 1.293-.139 1.953-.106l-2.96-.398c.405.055.734.134 1.117.276l-2.661-1.123q.313.141.588.345l-2.255-1.742c.274.224.5.446.733.712l-1.742-2.255c1.588 2.075 2.559 4.769 3.571 7.158l-1.126-2.669c4.765 11.406 7.254 23.565 9.91 35.588 2.889 13.075 5.876 26.126 8.868 39.178 1.674 7.301 3.404 14.559 5.549 21.738.776 2.597 2.527 4.972 4.884 6.352 2.278 1.333 5.636 1.898 8.19 1.071 2.572-.832 5.053-2.426 6.352-4.884l1.071-2.539a10.7 10.7 0 0 0 0-5.651c-1.51-9.808-3.733-19.46-5.873-29.146-2.117-9.584-4.239-19.166-6.431-28.733-2.066-9.014-3.98-18.09-6.662-26.946-1.536-5.071-3.42-9.985-5.524-14.846-.841-1.943-1.71-3.909-2.756-5.752-.806-1.419-1.804-2.798-2.994-3.916-2.71-2.545-5.825-3.676-9.466-4.04-1.766-.176-3.552.218-5.294.462q-1.805.252-3.599.569a99 99 0 0 0-19.249 5.471c-4.652 1.849-9.729 3.734-13.864 6.642-5.181 3.645-9.543 8.675-10.522 15.158-.433 2.872-.669 5.473-.308 8.338.367 2.92.846 5.74 1.595 8.581 1.162 4.405 2.383 8.796 3.548 13.2 2.394 9.053 4.786 18.105 7.214 27.149 2.341 8.721 4.666 17.446 7.034 26.16 2.201 8.099 4.91 16.035 7.197 24.107q.81 2.86 1.642 5.715c1.295 4.444 6.296 7.674 10.895 6.186 4.608-1.491 7.452-6.094 6.186-10.895Zm77.924-40.772c-7.605-27.38-30.504-116.136-39.257-149.065-1.49-5.604-2.943-11.956.107-16.887 1.893-3.061 5.19-4.937 8.431-6.503a98.8 98.8 0 0 1 29.535-8.917c1.029-.141 2.121-.258 3.071.163 1.162.515 1.848 1.71 2.426 2.842 5.937 11.626 8.858 24.516 11.724 37.252 4.857 21.584 24.629 96.537 29.486 118.121"/><path d="M668.626 551.698c-2.055-7.674-4.002-15.358-5.739-23.111-2.425-10.822-5.101-21.574-7.759-32.341a37238 37238 0 0 1-8.801-35.744c-2.744-11.163-5.612-22.294-8.466-33.429-2.205-8.6-4.456-17.188-6.648-25.791-.478-1.875-.904-3.76-1.182-5.676l.393 2.928c-.248-1.877-.334-3.747-.102-5.63l-.394 2.935c.176-1.172.471-2.294.927-3.388l-1.114 2.64c.392-.856.856-1.635 1.423-2.387l-1.729 2.237a15.5 15.5 0 0 1 2.551-2.474l-2.239 1.73c2.947-2.195 6.41-3.674 9.776-5.098l-2.646 1.117a100.3 100.3 0 0 1 24.98-6.813l-2.955.397c.656-.085 1.293-.14 1.953-.107l-2.956-.397c.405.055.734.134 1.117.275l-2.657-1.121q.313.14.588.345l-2.251-1.739c.274.224.501.445.734.711l-1.74-2.252c1.593 2.071 2.57 4.762 3.587 7.148l-1.123-2.66c5.004 11.898 7.389 24.588 10.33 37.092 1.976 8.403 4.066 16.78 6.157 25.156a4110 4110 0 0 0 8.038 31.716c2.668 10.337 5.337 20.675 7.969 31.021a871 871 0 0 0 6.177 22.995c.179.632.39 1.264.534 1.903 1.223 5.43 7.791 9.133 13.074 7.423 5.692-1.842 8.734-7.257 7.423-13.074l-.063-.281.38 2.825c-.162-2.095-.552-4.432-1.042-6.512l.386 2.875c-.667-5.253-1.914-10.388-3.083-15.547-1.233-5.44-2.64-10.842-3.993-16.253-3.089-12.353-6.161-24.711-9.34-37.041-2.9-11.249-5.801-22.498-8.619-33.768-2.87-11.477-5.142-23.152-8.558-34.478-1.572-5.213-3.508-10.268-5.683-15.259-.85-1.95-1.696-3.995-2.833-5.798-2.893-4.588-7.425-7.463-12.941-7.564-2.939-.053-6.106.716-9.016 1.258a98.7 98.7 0 0 0-20.043 5.984c-5.518 2.299-10.723 4.581-15.377 8.396-5.144 4.217-7.644 10.701-7.901 17.213-.27 6.845 2.134 13.678 3.897 20.227 2.858 10.616 5.69 21.239 8.522 31.862 3.438 12.897 7.007 25.756 10.566 38.62 3.46 12.506 6.925 25.01 10.414 37.508 1.498 5.367 3.246 10.677 4.891 16.001 1.322 4.279 2.489 8.6 3.706 12.91q.705 2.5 1.422 4.996c1.28 4.449 6.307 7.671 10.895 6.186 4.593-1.486 7.47-6.099 6.186-10.895Zm77.924-40.772c-7.605-27.38-44.078-170.586-52.832-203.516-1.49-5.604-2.943-11.956.107-16.887 1.893-3.061 5.19-4.937 8.431-6.503a98.8 98.8 0 0 1 29.535-8.917c1.029-.141 2.121-.258 3.071.163 1.162.515 1.848 1.71 2.426 2.842 5.937 11.626 8.858 24.516 11.724 37.252 4.857 21.584 38.204 150.988 43.061 172.572"/><path d="M755.09 508.571a765 765 0 0 1-7.135-28.546c-3.467-15.128-7.193-30.184-10.906-45.254-4.225-17.146-8.438-34.296-12.651-51.445-3.839-15.625-7.871-31.205-11.837-46.799-2.67-10.498-5.331-20.999-8.068-31.479-.642-2.459-1.252-4.917-1.597-7.438l.395 2.937c-.212-1.742-.276-3.476-.068-5.222l-.395 2.939c.172-1.174.466-2.294.921-3.39l-1.115 2.642c.392-.856.856-1.635 1.422-2.387l-1.73 2.239a15.5 15.5 0 0 1 2.55-2.475l-2.24 1.73c2.947-2.196 6.408-3.677 9.774-5.101l-2.647 1.117a100.3 100.3 0 0 1 24.978-6.822l-2.953.397c.656-.085 1.293-.14 1.953-.108l-2.954-.397a5 5 0 0 1 1.117.275l-2.655-1.12q.313.14.589.344l-2.249-1.738c.274.224.501.445.734.711l-1.738-2.25c1.593 2.07 2.571 4.761 3.589 7.147l-1.121-2.657c5.748 13.656 8.249 28.374 11.721 42.714 2.773 11.449 5.624 22.879 8.476 34.309 3.664 14.687 7.296 29.383 11.041 44.049 3.689 14.448 7.379 28.896 11.046 43.35 2.723 10.733 5.328 21.512 8.34 32.169.512 1.812 1.067 3.347 1.827 5.138l-1.09-2.583c.595 2.484 1.285 5.01 2.384 7.315l-1.071-2.539.094.416c1.223 5.43 7.791 9.133 13.074 7.423 5.692-1.842 8.734-7.257 7.423-13.074l-.094-.416.38 2.825c-.004-2.404-.763-5.322-1.333-7.701l.386 2.875c-.221-3.244-1.089-6.541-1.813-9.709q-.964-4.216-1.941-8.429c-1.602-6.918-3.36-13.8-5.076-20.69-4.18-16.779-8.34-33.564-12.617-50.318-4.145-16.237-8.292-32.473-12.4-48.72-2.634-10.421-5.322-20.835-7.758-31.304-3.037-13.055-6.105-25.94-11.773-38.162-.64-1.379-1.27-2.8-2.087-4.085-2.165-3.406-5.165-5.865-9.115-6.945-3.234-.885-6.366-.233-9.595.259a98 98 0 0 0-5.378.973c-7.663 1.608-14.975 4.222-22.132 7.37-2.947 1.296-5.908 2.661-8.507 4.583-2.751 2.033-4.618 3.825-6.632 6.609-1.394 1.928-2.377 4.248-2.986 6.538-1.855 6.968-.272 14.055 1.552 20.836 1.274 4.737 2.529 9.478 3.782 14.22 3.83 14.495 7.625 28.999 11.421 43.503 4.64 17.726 9.414 35.415 14.182 53.107a34402 34402 0 0 0 7.14 26.463c2.161 7.998 4.218 16.037 6.543 23.989 3.453 11.81 6.846 23.624 10.131 35.481q.695 2.514 1.409 5.022c1.27 4.452 6.314 7.668 10.895 6.186s7.48-6.102 6.186-10.895ZM412.914 755.334a641.7 641.7 0 0 0-164.266 5.646c-8.257 1.357-16.581 2.905-24.22 6.323-7.539 3.373-14.161 8.456-20.747 13.44a1531 1531 0 0 1-88.314 62.054c-19.127 12.457-27.149 18.852-49.893 16.919 131.322 27.665 263.852 36.773 397.723 35.734 81.484-.632 163.078-3.409 244.096-12.579 80.391-9.1 166.443-17.349 237.81-58.686 8.671-5.022 17.26-10.717 23.141-18.831 21.035-29.021-11.55-50.948-36.12-58.903a456.2 456.2 0 0 0-92.421-19.632c-4.902-.519-9.925-.951-14.707.247-5.568 1.395-10.343 4.875-15.011 8.215a613 613 0 0 1-82.037 49.491c-20.377 10.211-41.517 19.346-63.854 23.881-21.401 4.345-43.412 4.376-65.25 4.386-34.238.015-68.809-.016-102.215-7.518s-66.023-23.215-87.742-49.682"/><path d="M412.914 745.684c-26-3.424-52.559-5.707-78.81-5.229-26.793.488-53.64 3.108-80.13 7.07-13.298 1.989-26.555 4.091-38.649 10.312-10.505 5.403-19.659 13.457-29.096 20.473a1532 1532 0 0 1-64.053 45.125c-10.074 6.718-20.089 13.994-30.779 19.715-.97.519-1.969.979-2.942 1.49q-1.968.885.022.042a45 45 0 0 1-8.231 2.457c-.335.066-3.939.457-1.243.225a76 76 0 0 1-3.688.248c-3.286.121-6.566-.045-9.841-.302-13.878-1.087-16.957 21.488-3.297 24.364 108.712 22.888 219.699 33.533 330.685 35.9s222.316-1.642 332.721-14.075c49.517-5.576 99.424-11.464 147.4-25.462 23.794-6.943 47.135-15.948 69.056-27.557 20.95-11.094 45.418-26.524 46.1-53.115.543-21.165-17.31-37.462-34.646-46.451-10.334-5.358-21.445-8.804-32.586-12.031a456 456 0 0 0-39.29-9.516 482 482 0 0 0-41.914-6.308c-6.61-.699-13.449-.909-19.877 1.123-7.349 2.324-13.366 6.712-19.579 11.08a627 627 0 0 1-67.391 41.27c-22.971 12.15-45.269 22.834-70.848 28.294-24.957 5.327-52.573 4.336-78.85 4.204-27.439-.138-54.866-.921-81.111-6.621-22.952-4.985-41.567-12.023-60.731-25.396a163 163 0 0 1-3.5-2.523c-3.71-2.738.952.802-1.144-.894a134 134 0 0 1-5.998-5.137c-4.262-3.887-8.212-8.076-11.897-12.511-4.831-5.812-14.782-4.995-19.777 0-5.752 5.752-4.843 13.95 0 19.777 31.97 38.467 82.125 54.051 130.216 58.95 26.54 2.703 53.337 2.479 79.983 2.324 26.912-.157 53.782-2.008 79.513-10.451 25.472-8.358 49.734-20.78 73.025-33.935a588 588 0 0 0 33.047-20.127 612 612 0 0 0 15.329-10.378c5.247-3.669 10.342-7.96 16.065-10.87 3.216-1.635 7.986-1.216 13.526-.662a340 340 0 0 1 18.541 2.348 457 457 0 0 1 38.827 7.674c11.939 2.902 24.044 5.995 35.572 10.277q1.577.588 3.137 1.226c-2.928-1.198.616.31.998.488a94 94 0 0 1 5.228 2.633 92 92 0 0 1 6.068 3.607c.981.636 1.924 1.322 2.889 1.982 3.023 2.066-1.759-1.683.94.739 1.677 1.505 3.36 2.966 4.894 4.623a40 40 0 0 1 2.132 2.476c-1.732-2.209-.245-.275.101.341.427.759.921 1.477 1.335 2.246.351.651 1.328 3.62.366.585.309.976.652 1.924.894 2.921q.241.991.4 1.999-.314-2.451-.208-.939c-.207.627-.01 1.955 0 2.621.047 3.183.872-2.308-.145.835-.357 1.103-.61 2.238-.98 3.342.853-2.542-.599 1.213-.732 1.463-2.561 4.802-5.594 8.101-10.199 11.798-7.656 6.146-19.236 12.049-28.892 16.795-10.505 5.163-20.088 9.167-31.109 13.142-44.443 16.031-92.175 23.691-138.039 29.273-52.624 6.405-105.326 11.556-158.279 14.258-54.494 2.781-109.123 3.848-163.685 3.586-107.56-.517-215.291-8.09-321.201-27.363a1527 1527 0 0 1-39.784-7.796l-3.297 24.364c9.956.77 20.223.181 29.602-3.498 9.113-3.574 17.12-8.929 25.277-14.252 21.818-14.24 43.336-28.917 64.441-44.195 10.557-7.642 20.858-15.635 31.41-23.279 4.352-3.153 8.892-6.308 13.839-8.459 5.34-2.322 11.265-3.481 16.979-4.523 25.247-4.606 50.948-7.178 76.569-8.416 29.806-1.44 59.506-2.14 89.322-.513 5.209.284 9.649-4.638 9.649-9.649 0-5.78-4.458-8.966-9.649-9.649Z"/></svg>