<?xml version="1.0" encoding="UTF-8"?><svg xmlns="http://www.w3.org/2000/svg" data-name="ARTWORK" viewBox="0 0 1000 1000"><path d="M429.787 145.424c-18.028 6.41-34.685 16.004-52.18 23.647-13.545 5.917-27.552 11.44-40.054 19.435-10.78 6.894-20.143 16.173-24.569 28.411-1.713 4.736-2.285 9.928-2.656 14.916-.318 4.283-.35 8.585-.531 12.875-.384 9.108-.47 18.22-.435 27.336.072 18.705.678 37.406 1.522 56.091.738 16.327.472 34.028 8.722 48.71 4.502 8.012 12.071 14.496 21.102 16.715 11.149 2.739 22.161-.572 32.528-4.568 18.507-7.132 36.144-16.169 53.437-25.832 16.1-8.997 33.694-17.872 44.617-33.299 1.745-2.465 2.966-5.346 3.926-8.189s1.441-6.078 1.623-9.029c.338-5.487.233-11.01.503-16.506q.13-2.665.336-5.326c.225-2.9-.096-5.887-.542-8.745l.397 2.954c.144-1.656-.009-3.377-.007-5.04.008-5.196-3.969-9.549-9.03-10.229-5.165-.694-9.902 2.454-11.427 7.46-.894 2.934-1.826 5.882-2.518 8.869-.779 3.369-.877 7.111-1.124 10.572-.288 4.033-.465 8.073-.694 12.11l.432-3.214c-.328 1.597-.443 3.248-.66 4.869l.436-3.245c-.435 3.176-.882 6.403-2.132 9.378l1.247-2.954a21.6 21.6 0 0 1-2.706 4.565l1.934-2.503c-3.09 3.964-6.814 7.394-10.775 10.469l2.503-1.934c-8.006 6.151-16.983 10.949-25.759 15.888-9.529 5.364-19.132 10.607-28.945 15.437a327 327 0 0 1-17.012 7.802l2.954-1.247c-7.734 3.256-15.808 6.82-24.177 7.988l3.288-.442c-2.391.302-4.776.363-7.17.063l3.288.442a22 22 0 0 1-5.133-1.381l2.954 1.247a21 21 0 0 1-4.526-2.624l2.503 1.934a23.5 23.5 0 0 1-4.041-4.08l1.934 2.503c-1.59-2.091-2.852-4.386-3.889-6.796l1.247 2.954c-2.041-4.856-3.17-10.034-3.877-15.238l.441 3.284c-.952-7.203-1.112-14.511-1.465-21.76-.414-8.502-.778-17.006-1.068-25.512-.581-17.016-.893-34.049-.615-51.075.074-4.507.149-9.017.184-13.525.034-4.411.048-8.829.613-13.211l-.426 3.171c.411-2.988 1.092-5.912 2.241-8.707l-1.192 2.825c1.265-2.945 3.052-5.671 5.007-8.204l-1.832 2.372c2.578-3.306 5.6-6.205 8.904-8.778l-2.343 1.81c7.987-6.17 17.181-10.714 26.207-15.134 6.534-3.199 13.116-6.313 19.617-9.577 6.672-3.35 13.21-6.958 19.786-10.49 7.388-3.968 14.866-7.787 22.594-11.053l-2.369 1a157 157 0 0 1 4.091-1.65c2.466-.953 4.51-2.171 5.891-4.53 1.236-2.113 1.76-5.227.994-7.595-.772-2.385-2.25-4.686-4.53-5.891-2.248-1.188-5.11-1.877-7.595-.994Z"/><path d="M478.577 165.885a921 921 0 0 1-27.859 48.912c-9.798 16.038-19.729 31.966-30.089 47.649a904 904 0 0 1-8.88 13.19c-2.954 4.306-5.851 8.692-9 12.859l1.854-2.399a4 4 0 0 1-.486.546l2.402-1.856a5 5 0 0 1-.898.549l2.867-1.21q-.327.135-.679.167l3.214-.432a2.3 2.3 0 0 1-.765.028l3.216.432a3 3 0 0 1-.733-.2l2.893 1.221a7 7 0 0 1-1.029-.61l2.454 1.896c-2.424-1.952-4.489-4.514-6.605-6.789a389 389 0 0 1-6.544-7.214 396 396 0 0 1-12.545-14.913c-1.894-2.366-6.056-3.704-8.942-3.704-3.102 0-6.807 1.378-8.942 3.704-2.212 2.41-3.855 5.574-3.704 8.942l.452 3.362a12.64 12.64 0 0 0 3.252 5.58 390 390 0 0 0 19.313 21.231c2.214 2.261 4.372 4.668 6.79 6.697 3.167 2.657 6.444 4.33 10.675 4.562 3.993.22 8.372-1.855 10.879-4.94 2.44-3.002 4.587-6.234 6.778-9.419a914 914 0 0 0 10.441-15.512c13.761-20.905 26.405-42.511 37.824-64.781a914 914 0 0 0 18.456-38.163c1.065-2.338 1.645-4.595.937-7.165-.594-2.157-2.262-4.494-4.273-5.557-4.303-2.273-10.291-1.254-12.723 3.336Z"/><path d="M431.207 142.153c-9.709-2.151-19.214-5.045-28.871-7.384-9.573-2.319-19.174-4.562-28.919-6.039-5.523-.837-11.027-1.506-16.619-1.438-5.469.066-10.941.732-16.327 1.651-9.831 1.679-19.037 5.193-28.113 9.249-7.732 3.455-15.168 7.534-22.595 11.593-6.655 3.637-13.252 7.436-19.366 11.942-3.774 2.782-7.483 5.691-10.86 8.951-3.298 3.184-6.216 6.755-8.861 10.495-2.801 3.959-4.77 8.272-6.589 12.755-1.593 3.926-2.748 8.02-3.562 12.175-1.872 9.555-2.38 19.292-2.208 29.007.153 8.687.771 17.357.964 26.042.257 11.61-.286 23.232-.334 34.842-.057 13.681.489 27.29 2.415 40.846.811 5.712 1.946 11.409 3.757 16.895 1.813 5.49 4.121 11.08 7.602 15.744 1.861 2.494 3.75 4.969 6.175 6.944 1.548 1.261 3.136 2.546 4.851 3.59 1.738 1.058 3.633 1.797 5.51 2.571a230 230 0 0 0 22.577 7.98c9.142 2.695 18.409 4.525 27.857 5.742 9.728 1.253 19.959 1.728 29.661.054 2.225-.384 4.358-.881 6.5-1.594 2.834-.944 5.764-1.853 8.441-3.185l-2.399 1.012c3.286-.762 6.53-1.767 9.712-2.884 2.157-.757 4.665-1.476 6.636-2.602 1.945-1.112 3.71-3.014 5.335-4.575 2.317-2.227 2.87-5.853 1.654-8.736-1.189-2.817-4.131-5.04-7.308-4.916-1.967.077-3.923.03-5.876.293-2.018.271-3.94 1.078-5.892 1.662-3.166.947-6.372 1.69-9.599 2.391l2.67-.359c-1.724-.051-3.459.203-5.187.193-1.719-.01-3.437-.068-5.154-.006-3.401.122-6.795.365-10.197.457-6.633.178-13.267-.241-19.841-1.119l3.164.425c-15.928-2.178-31.619-6.97-46.425-13.185l2.843 1.2a22 22 0 0 1-4.621-2.713l2.409 1.861c-1.734-1.349-3.256-2.925-4.602-4.659l1.861 2.409c-2.026-2.65-3.61-5.592-4.915-8.655l1.2 2.843c-3.016-7.174-4.57-14.897-5.606-22.581l.425 3.164c-1.864-14.04-1.964-28.275-1.774-42.415.085-6.348.252-12.695.337-19.044.105-7.916-.179-15.808-.523-23.716-.48-11.017-.882-22.109.588-33.072l-.427 3.18c.842-6.074 2.285-12.044 4.644-17.714l-1.207 2.861a50.2 50.2 0 0 1 6.34-10.907l-1.874 2.426c3.434-4.43 7.509-8.272 11.936-11.694l-2.434 1.88c10.212-7.827 21.927-13.762 33.384-19.531a202 202 0 0 1 11.848-5.52l-2.947 1.244c9.75-4.109 20.039-7.433 30.549-8.854l-3.239.435c10.724-1.393 21.519-.313 32.186 1.109l-3.026-.407c7.992 1.079 15.924 2.534 23.897 3.732 8.633 1.297 17.276 2.572 25.96 3.471 2.081.215 5.028-1.149 6.411-2.655 1.375-1.498 2.222-3.182 2.494-5.206.57-4.241-2.07-8.967-6.494-9.948Z"/><path d="m262.592 205.477 52.601 10.922c.796.165 1.681.392 2.098 1.089.554.926-.025 2.087-.537 3.037-4.87 9.027-3.811 19.942-2.988 30.166a426.6 426.6 0 0 1 .134 66.734c-1.38 18.045-3.552 37.659 6.194 52.908a175 175 0 0 1-34.182-5.879c-4.094-1.132-8.328-2.52-11.289-5.565-4.322-4.444-4.885-11.22-5.205-17.411l-6.23-120.648"/><path d="M260.182 214.22c4.449 1.339 8.883 2.602 13.396 3.706a658 658 0 0 0 13.309 3.089l13.342 2.969 6.792 1.512c2.097.467 4.331.774 6.361 1.481l-2.551-1.077q.325.123.604.33l-2.164-1.672.253.222-1.672-2.164q.252.274.354.634l-1.079-2.557.06.376-.383-2.847-.019.386.383-2.849q-.061.404-.216.782l1.082-2.563c-1.274 2.916-2.833 5.67-3.812 8.73s-1.451 6.289-1.793 9.477c-.514 4.789-.213 9.644.174 14.431.882 10.908 1.54 21.793 1.65 32.741.112 11.141-.177 22.278-1.11 33.381-.809 9.618-1.947 19.21-1.761 28.881.23 11.949 2.446 24.2 8.905 34.451l9.811-17.098q-5.295-.392-10.559-1.089l3.024.406a178 178 0 0 1-15.427-2.774c-4.661-1.055-9.471-2.112-13.889-3.975l2.727 1.151c-1.457-.641-2.832-1.397-4.106-2.354l2.312 1.786a15.2 15.2 0 0 1-2.458-2.448l1.787 2.313a17 17 0 0 1-2.023-3.523l1.153 2.731c-.911-2.241-1.418-4.596-1.741-6.988l.408 3.036c-.45-3.564-.56-7.167-.757-10.752l-.686-12.464-1.373-24.927c-.92-16.698-1.748-33.401-2.586-50.104l-1.413-28.168c-.15-2.986-1.158-5.838-3.309-7.989-1.96-1.96-5.175-3.435-7.989-3.309-2.922.131-5.952 1.091-7.989 3.309-1.967 2.142-3.468 4.991-3.309 7.989 1.385 26.089 2.827 52.176 4.084 78.271l1.874 38.886c.13 2.7.214 5.409.483 8.101.337 3.374.701 6.919 1.849 10.143 1.427 4.008 3.285 7.491 6.233 10.599 3.049 3.216 6.751 5.069 10.76 6.727 6.104 2.525 12.867 3.831 19.333 5.063a203 203 0 0 0 23.588 3.074c3.912.278 7.9-2.361 9.811-5.628 1.996-3.411 2.153-8.073 0-11.47a43.4 43.4 0 0 1-3.208-6.092l1.145 2.712c-1.823-4.349-2.933-8.924-3.565-13.59l.405 3.013c-.908-7.017-.782-14.111-.365-21.159.451-7.641 1.007-15.269 1.252-22.922.27-8.41.512-16.811.417-25.227-.096-8.499-.491-16.981-1.047-25.462-.554-8.449-1.562-16.922-.472-25.37l-.389 2.898c.39-2.787 1.062-5.5 2.137-8.104l-1.087 2.575c.364-.844.786-1.654 1.182-2.482 1.142-2.393 1.871-4.479 1.913-7.17.091-5.796-4.503-10.876-10.023-12.069-4.272-.924-8.594-1.659-12.885-2.487-8.641-1.666-17.27-3.4-25.944-4.887-5.578-.957-11.161-1.702-16.78-2.366-2.06-.243-5.048 1.17-6.411 2.655-1.375 1.498-2.222 3.182-2.494 5.206-.603 4.485 2.133 8.635 6.494 9.948Zm277.858-78.104q21.145-10.074 42.412-19.891c21.267-9.817 28.235-13.299 42.365-19.921 28.243-13.236 56.499-26.452 84.822-39.515a6499 6499 0 0 1 23.718-10.88c4.029-1.838 8.072-3.637 12.031-5.624l5.703-2.859c2.088-1.045 3.923-2.289 5.769-3.715 2.08-1.605 4.017-3.309 4.637-6.03.514-2.256.395-4.427-.509-6.569-.818-1.938-2.215-3.814-4.128-4.825-2.506-1.324-4.986-1.554-7.774-1.017-1.925.371-3.818.76-5.641 1.497s-3.628 1.479-5.441 2.219a349 349 0 0 0-13.099 5.665 6342 6342 0 0 0-63.87 29.605c-14.102 6.631-28.114 13.442-42.109 20.297-13.986 6.85-28.04 13.604-41.882 20.741a15864 15864 0 0 0-46.717 24.2c-4.475 2.326-6.173 8.949-3.453 13.168 1.325 2.055 3.298 3.864 5.752 4.423 2.645.602 4.969.195 7.416-.97Zm0 62.927q21.145-10.075 42.412-19.891c21.267-9.816 28.235-13.299 42.365-19.921 28.243-13.236 56.499-26.452 84.822-39.515a6499 6499 0 0 1 23.718-10.88c4.029-1.838 8.072-3.637 12.031-5.624l5.703-2.859c2.088-1.045 3.923-2.289 5.769-3.715 2.08-1.605 4.017-3.309 4.637-6.03.514-2.256.395-4.427-.509-6.569-.818-1.938-2.215-3.814-4.128-4.825-2.506-1.324-4.986-1.554-7.774-1.017-1.925.371-3.818.76-5.641 1.497s-3.628 1.479-5.441 2.219a349 349 0 0 0-13.099 5.665 6342 6342 0 0 0-63.87 29.605c-14.102 6.631-28.114 13.442-42.109 20.297-13.986 6.85-28.04 13.604-41.882 20.741a15864 15864 0 0 0-46.717 24.2c-4.475 2.326-6.173 8.949-3.453 13.168 1.325 2.055 3.298 3.864 5.752 4.423 2.645.602 4.969.195 7.416-.97Zm0 62.927q15.759-7.396 31.618-14.575c15.859-7.179 21.022-9.789 31.536-14.678 21.009-9.771 42.008-19.566 63.048-29.271q8.726-4.025 17.467-8.014c2.982-1.361 6.028-2.629 8.938-4.138l4.358-2.258c2.194-1.135 4.015-2.293 5.933-3.942l-2.155 1.665a39 39 0 0 0 3.556-2.871c2.975-2.719 3.586-7.468 2.086-11.021-.7-1.659-1.682-2.935-3.107-4.036-1.616-1.249-4.002-2.4-6.113-2.166-2.168.24-4.443.373-6.526 1.071-1.386.465-2.739 1.075-4.1 1.61a210 210 0 0 0-10.424 4.42 4792 4792 0 0 0-47.83 22.173c-10.547 4.96-21.012 10.082-31.464 15.24-10.515 5.189-21.112 10.265-31.494 15.717-11.688 6.138-23.364 12.297-35.042 18.454-4.46 2.352-6.184 8.931-3.453 13.168 1.325 2.055 3.298 3.864 5.752 4.423 2.652.604 4.959.183 7.416-.97ZM429.787 440.199c-18.028 6.41-34.685 16.004-52.18 23.647-13.545 5.917-27.552 11.44-40.054 19.435-10.78 6.894-20.143 16.173-24.569 28.411-1.713 4.736-2.285 9.928-2.656 14.916-.318 4.283-.35 8.585-.531 12.875-.384 9.108-.47 18.22-.435 27.336.072 18.705.678 37.406 1.522 56.091.738 16.327.472 34.028 8.722 48.71 4.502 8.012 12.071 14.496 21.102 16.715 11.149 2.739 22.161-.572 32.528-4.568 18.507-7.132 36.144-16.169 53.437-25.832 16.1-8.997 33.694-17.872 44.617-33.299 1.745-2.465 2.966-5.346 3.926-8.189s1.441-6.078 1.623-9.029c.338-5.487.233-11.01.503-16.506q.13-2.665.336-5.326c.225-2.9-.096-5.887-.542-8.745l.397 2.954c.144-1.656-.009-3.377-.007-5.04.008-5.196-3.969-9.549-9.03-10.229-5.165-.694-9.902 2.454-11.427 7.46-.894 2.934-1.826 5.882-2.518 8.869-.779 3.369-.877 7.111-1.124 10.572-.288 4.033-.465 8.073-.694 12.11l.432-3.214c-.328 1.597-.443 3.248-.66 4.869l.436-3.245c-.435 3.176-.882 6.403-2.132 9.378l1.247-2.954a21.6 21.6 0 0 1-2.706 4.565l1.934-2.503c-3.09 3.964-6.814 7.394-10.775 10.469l2.503-1.934c-8.006 6.151-16.983 10.949-25.759 15.888-9.529 5.364-19.132 10.607-28.945 15.437a327 327 0 0 1-17.012 7.802l2.954-1.247c-7.734 3.256-15.808 6.82-24.177 7.988l3.288-.442c-2.391.302-4.776.363-7.17.063l3.288.442a22 22 0 0 1-5.133-1.381l2.954 1.247a21 21 0 0 1-4.526-2.624l2.503 1.934a23.5 23.5 0 0 1-4.041-4.08l1.934 2.503c-1.59-2.091-2.852-4.386-3.889-6.796l1.247 2.954c-2.041-4.856-3.17-10.034-3.877-15.238l.441 3.284c-.952-7.203-1.112-14.511-1.465-21.76-.414-8.502-.778-17.006-1.068-25.512-.581-17.016-.893-34.049-.615-51.075.074-4.507.149-9.017.184-13.525.034-4.411.048-8.829.613-13.211l-.426 3.171c.411-2.988 1.092-5.912 2.241-8.707l-1.192 2.825c1.265-2.945 3.052-5.671 5.007-8.204l-1.832 2.372c2.578-3.306 5.6-6.205 8.904-8.778l-2.343 1.81c7.987-6.17 17.181-10.714 26.207-15.134 6.534-3.199 13.116-6.313 19.617-9.577 6.672-3.35 13.21-6.958 19.786-10.49 7.388-3.968 14.866-7.787 22.594-11.053l-2.369 1a157 157 0 0 1 4.091-1.65c2.466-.953 4.51-2.171 5.891-4.53 1.236-2.113 1.76-5.227.994-7.595-.772-2.385-2.25-4.686-4.53-5.891-2.248-1.188-5.11-1.877-7.595-.994Z"/><path d="M478.577 460.66a921 921 0 0 1-27.859 48.912c-9.798 16.038-19.729 31.966-30.089 47.649a904 904 0 0 1-8.88 13.19c-2.954 4.306-5.851 8.692-9 12.859l1.854-2.399a4 4 0 0 1-.486.546l2.402-1.856a5 5 0 0 1-.898.549l2.867-1.21q-.327.135-.679.167l3.214-.432a2.3 2.3 0 0 1-.765.028l3.216.432a3 3 0 0 1-.733-.2l2.893 1.221a7 7 0 0 1-1.029-.61l2.454 1.896c-2.424-1.952-4.489-4.514-6.605-6.789a389 389 0 0 1-6.544-7.214 396 396 0 0 1-12.545-14.913c-1.894-2.366-6.056-3.704-8.942-3.704-3.102 0-6.807 1.378-8.942 3.704-2.212 2.41-3.855 5.574-3.704 8.942l.452 3.362a12.64 12.64 0 0 0 3.252 5.58 390 390 0 0 0 19.313 21.231c2.214 2.261 4.372 4.668 6.79 6.697 3.167 2.657 6.444 4.33 10.675 4.562 3.993.22 8.372-1.855 10.879-4.94 2.44-3.002 4.587-6.234 6.778-9.419a914 914 0 0 0 10.441-15.512c13.761-20.905 26.405-42.511 37.824-64.781a914 914 0 0 0 18.456-38.163c1.065-2.338 1.645-4.595.937-7.165-.594-2.157-2.262-4.494-4.273-5.557-4.303-2.273-10.291-1.254-12.723 3.336Z"/><path d="M431.207 436.928c-9.709-2.151-19.214-5.045-28.871-7.384-9.573-2.319-19.174-4.562-28.919-6.039-5.523-.837-11.027-1.506-16.619-1.438-5.469.066-10.941.732-16.327 1.651-9.831 1.679-19.037 5.193-28.113 9.249-7.732 3.455-15.168 7.534-22.595 11.593-6.655 3.637-13.252 7.436-19.366 11.942-3.774 2.782-7.483 5.691-10.86 8.951-3.298 3.184-6.216 6.755-8.861 10.495-2.801 3.959-4.77 8.272-6.589 12.755-1.593 3.926-2.748 8.02-3.562 12.175-1.872 9.555-2.38 19.292-2.208 29.007.153 8.687.771 17.357.964 26.042.257 11.61-.286 23.232-.334 34.842-.057 13.681.489 27.29 2.415 40.846.811 5.712 1.946 11.409 3.757 16.895s4.121 11.08 7.602 15.744c1.861 2.494 3.75 4.969 6.175 6.944 1.548 1.261 3.136 2.546 4.851 3.59 1.738 1.058 3.633 1.797 5.51 2.571a230 230 0 0 0 22.577 7.98c9.142 2.695 18.409 4.525 27.857 5.742 9.728 1.253 19.959 1.728 29.661.054 2.225-.384 4.358-.881 6.5-1.594 2.834-.944 5.764-1.853 8.441-3.185l-2.399 1.012c3.286-.762 6.53-1.767 9.712-2.884 2.157-.757 4.665-1.476 6.636-2.602 1.945-1.112 3.71-3.014 5.335-4.575 2.317-2.227 2.87-5.853 1.654-8.736-1.189-2.817-4.131-5.04-7.308-4.916-1.967.077-3.923.03-5.876.293-2.018.271-3.94 1.078-5.892 1.662-3.166.947-6.372 1.69-9.599 2.391l2.67-.359c-1.724-.051-3.459.203-5.187.193-1.719-.01-3.437-.068-5.154-.006-3.401.122-6.795.365-10.197.457-6.633.178-13.267-.241-19.841-1.119l3.164.425c-15.928-2.178-31.619-6.97-46.425-13.185l2.843 1.2a22 22 0 0 1-4.621-2.713l2.409 1.861c-1.734-1.349-3.256-2.925-4.602-4.659l1.861 2.409c-2.026-2.65-3.61-5.592-4.915-8.655l1.2 2.843c-3.016-7.174-4.57-14.897-5.606-22.581l.425 3.164c-1.864-14.04-1.964-28.275-1.774-42.415.085-6.348.252-12.695.337-19.044.105-7.916-.179-15.808-.523-23.716-.48-11.017-.882-22.109.588-33.072l-.427 3.18c.842-6.074 2.285-12.044 4.644-17.714l-1.207 2.861a50.2 50.2 0 0 1 6.34-10.907l-1.874 2.426c3.434-4.43 7.509-8.272 11.936-11.694l-2.434 1.88c10.212-7.827 21.927-13.762 33.384-19.531a202 202 0 0 1 11.848-5.52l-2.947 1.244c9.75-4.109 20.039-7.433 30.549-8.854l-3.239.435c10.724-1.393 21.519-.313 32.186 1.109l-3.026-.407c7.992 1.079 15.924 2.534 23.897 3.732 8.633 1.297 17.276 2.572 25.96 3.471 2.081.215 5.028-1.149 6.411-2.655 1.375-1.498 2.222-3.182 2.494-5.206.57-4.241-2.07-8.967-6.494-9.948Z"/><path d="m262.592 500.252 52.601 10.922c.796.165 1.681.392 2.098 1.089.554.926-.025 2.087-.537 3.037-4.87 9.027-3.811 19.942-2.988 30.166a426.6 426.6 0 0 1 .134 66.734c-1.38 18.045-3.552 37.659 6.194 52.908a175 175 0 0 1-34.182-5.879c-4.094-1.132-8.328-2.52-11.289-5.565-4.322-4.444-4.885-11.22-5.205-17.411l-6.23-120.648"/><path d="M260.182 508.994c4.449 1.339 8.883 2.602 13.396 3.706a658 658 0 0 0 13.309 3.089l13.342 2.969 6.792 1.512c2.097.467 4.331.774 6.361 1.481l-2.551-1.077q.325.123.604.33l-2.164-1.672.253.222-1.672-2.164q.252.274.354.634l-1.079-2.557.06.376-.383-2.847-.019.386.383-2.849q-.061.404-.216.782l1.082-2.563c-1.274 2.916-2.833 5.67-3.812 8.73s-1.451 6.289-1.793 9.477c-.514 4.789-.213 9.644.174 14.431.882 10.908 1.54 21.793 1.65 32.741.112 11.141-.177 22.278-1.11 33.381-.809 9.618-1.947 19.21-1.761 28.881.23 11.949 2.446 24.2 8.905 34.451l9.811-17.098q-5.295-.391-10.559-1.089l3.024.406a178 178 0 0 1-15.427-2.774c-4.661-1.055-9.471-2.112-13.889-3.975l2.727 1.151c-1.457-.641-2.832-1.397-4.106-2.354l2.312 1.786a15.2 15.2 0 0 1-2.458-2.448l1.787 2.313a17 17 0 0 1-2.023-3.523l1.153 2.731c-.911-2.241-1.418-4.596-1.741-6.988l.408 3.036c-.45-3.564-.56-7.167-.757-10.752l-.686-12.464-1.373-24.927c-.92-16.698-1.748-33.401-2.586-50.104l-1.413-28.168c-.15-2.986-1.158-5.838-3.309-7.989-1.96-1.96-5.175-3.435-7.989-3.309-2.922.131-5.952 1.091-7.989 3.309-1.967 2.142-3.468 4.991-3.309 7.989 1.385 26.089 2.827 52.176 4.084 78.271l1.874 38.886c.13 2.7.214 5.409.483 8.101.337 3.374.701 6.919 1.849 10.143 1.427 4.008 3.285 7.491 6.233 10.599 3.049 3.216 6.751 5.069 10.76 6.727 6.104 2.525 12.867 3.831 19.333 5.063a203 203 0 0 0 23.588 3.074c3.912.278 7.9-2.361 9.811-5.628 1.996-3.411 2.153-8.073 0-11.47a43.4 43.4 0 0 1-3.208-6.092l1.145 2.712c-1.823-4.349-2.933-8.924-3.565-13.59l.405 3.013c-.908-7.017-.782-14.111-.365-21.159.451-7.641 1.007-15.269 1.252-22.922.27-8.41.512-16.811.417-25.227-.096-8.499-.491-16.981-1.047-25.462-.554-8.449-1.562-16.922-.472-25.37l-.389 2.898c.39-2.787 1.062-5.5 2.137-8.104l-1.087 2.575c.364-.844.786-1.654 1.182-2.482 1.142-2.393 1.871-4.479 1.913-7.17.091-5.796-4.503-10.876-10.023-12.069-4.272-.924-8.594-1.659-12.885-2.487-8.641-1.666-17.27-3.4-25.944-4.887-5.578-.957-11.161-1.702-16.78-2.366-2.06-.243-5.048 1.17-6.411 2.655-1.375 1.498-2.222 3.182-2.494 5.206-.603 4.485 2.133 8.635 6.494 9.948ZM538.04 430.89a3848 3848 0 0 1 42.412-19.891c14.169-6.539 28.235-13.299 42.365-19.921 28.243-13.236 56.499-26.452 84.822-39.515a6499 6499 0 0 1 23.718-10.88c4.029-1.838 8.072-3.637 12.031-5.624l5.703-2.859c2.088-1.045 3.923-2.289 5.769-3.715 2.08-1.605 4.017-3.309 4.637-6.03.514-2.256.395-4.427-.509-6.569-.818-1.938-2.215-3.814-4.128-4.825-2.506-1.324-4.986-1.554-7.774-1.017-1.925.371-3.818.76-5.641 1.497s-3.628 1.479-5.441 2.219a349 349 0 0 0-13.099 5.665 6342 6342 0 0 0-63.87 29.605c-14.107 6.634-28.114 13.442-42.109 20.297-13.986 6.85-28.04 13.604-41.882 20.741a15864 15864 0 0 0-46.717 24.2c-4.475 2.326-6.173 8.949-3.453 13.168 1.325 2.055 3.298 3.864 5.752 4.423 2.645.602 4.969.195 7.416-.97Zm0 62.927q21.145-10.074 42.412-19.891c21.267-9.817 28.235-13.299 42.365-19.921 28.243-13.236 56.499-26.452 84.822-39.515a6499 6499 0 0 1 23.718-10.88c4.029-1.838 8.072-3.637 12.031-5.624l5.703-2.859c2.088-1.045 3.923-2.289 5.769-3.715 2.08-1.605 4.017-3.309 4.637-6.03.514-2.256.395-4.427-.509-6.569-.818-1.938-2.215-3.814-4.128-4.825-2.506-1.324-4.986-1.554-7.774-1.017-1.925.371-3.818.76-5.641 1.497s-3.628 1.479-5.441 2.219a349 349 0 0 0-13.099 5.665 6342 6342 0 0 0-63.87 29.605c-14.102 6.631-28.114 13.442-42.109 20.297-13.986 6.85-28.04 13.604-41.882 20.741a15864 15864 0 0 0-46.717 24.2c-4.475 2.326-6.173 8.949-3.453 13.168 1.325 2.055 3.298 3.864 5.752 4.423 2.645.602 4.969.195 7.416-.97Zm0 62.927q15.759-7.396 31.618-14.575c15.859-7.179 21.022-9.789 31.536-14.678 21.009-9.771 42.008-19.566 63.048-29.271q8.726-4.025 17.467-8.014c2.982-1.361 6.028-2.629 8.938-4.138l4.358-2.258c2.194-1.135 4.015-2.293 5.933-3.942l-2.155 1.665a39 39 0 0 0 3.556-2.871c2.975-2.719 3.586-7.468 2.086-11.021-.7-1.659-1.682-2.935-3.107-4.036-1.616-1.249-4.002-2.4-6.113-2.166-2.168.24-4.443.373-6.526 1.071-1.386.465-2.739 1.075-4.1 1.61a210 210 0 0 0-10.424 4.42 4792 4792 0 0 0-47.83 22.173c-10.547 4.96-21.012 10.082-31.464 15.24-10.515 5.189-21.112 10.265-31.494 15.717-11.688 6.138-23.364 12.297-35.042 18.454-4.46 2.352-6.184 8.931-3.453 13.168 1.325 2.055 3.298 3.864 5.752 4.423 2.652.604 4.959.183 7.416-.97Zm-108.253 178.23c-18.028 6.41-34.685 16.004-52.18 23.647-13.545 5.917-27.552 11.44-40.054 19.435-10.78 6.894-20.143 16.173-24.569 28.411-1.713 4.736-2.285 9.928-2.656 14.916-.318 4.283-.35 8.585-.531 12.875-.384 9.108-.47 18.22-.435 27.336.072 18.705.678 37.406 1.522 56.091.738 16.327.472 34.028 8.722 48.71 4.502 8.012 12.071 14.496 21.102 16.715 11.149 2.739 22.161-.572 32.528-4.568 18.507-7.132 36.144-16.169 53.437-25.832 16.1-8.997 33.694-17.872 44.617-33.299 1.745-2.465 2.966-5.346 3.926-8.189s1.441-6.078 1.623-9.029c.338-5.487.233-11.01.503-16.506q.13-2.665.336-5.326c.225-2.9-.096-5.887-.542-8.745l.397 2.954c.144-1.656-.009-3.377-.007-5.04.008-5.196-3.969-9.549-9.03-10.229-5.165-.694-9.902 2.454-11.427 7.46-.894 2.934-1.826 5.882-2.518 8.869-.779 3.369-.877 7.111-1.124 10.572-.288 4.033-.465 8.073-.694 12.11l.432-3.214c-.328 1.597-.443 3.248-.66 4.869l.436-3.245c-.435 3.176-.882 6.403-2.132 9.378l1.247-2.954a21.6 21.6 0 0 1-2.706 4.565l1.934-2.503c-3.09 3.964-6.814 7.394-10.775 10.469l2.503-1.934c-8.006 6.151-16.983 10.949-25.759 15.888-9.529 5.364-19.132 10.607-28.945 15.437a327 327 0 0 1-17.012 7.802l2.954-1.247c-7.734 3.256-15.808 6.82-24.177 7.988l3.288-.442c-2.391.302-4.776.363-7.17.063l3.288.442a22 22 0 0 1-5.133-1.381l2.954 1.247a21 21 0 0 1-4.526-2.624l2.503 1.934a23.5 23.5 0 0 1-4.041-4.08l1.934 2.503c-1.59-2.091-2.852-4.386-3.889-6.796l1.247 2.954c-2.041-4.856-3.17-10.034-3.877-15.238l.441 3.284c-.952-7.203-1.112-14.511-1.465-21.76-.414-8.502-.778-17.006-1.068-25.512-.581-17.016-.893-34.049-.615-51.075.074-4.507.149-9.017.184-13.525.034-4.411.048-8.829.613-13.211l-.426 3.171c.411-2.988 1.092-5.912 2.241-8.707l-1.192 2.825c1.265-2.945 3.052-5.671 5.007-8.204l-1.832 2.372c2.578-3.306 5.6-6.205 8.904-8.778l-2.343 1.81c7.987-6.17 17.181-10.714 26.207-15.134 6.534-3.199 13.116-6.313 19.617-9.577 6.672-3.35 13.21-6.958 19.786-10.49 7.388-3.968 14.866-7.787 22.594-11.053l-2.369 1a157 157 0 0 1 4.091-1.65c2.466-.953 4.51-2.171 5.891-4.53 1.236-2.113 1.76-5.227.994-7.595-.772-2.385-2.25-4.686-4.53-5.891-2.248-1.188-5.11-1.877-7.595-.994Z"/><path d="M478.577 755.435a921 921 0 0 1-27.859 48.912c-9.798 16.038-19.729 31.966-30.089 47.649a904 904 0 0 1-8.88 13.19c-2.954 4.306-5.851 8.692-9 12.859l1.854-2.399a4 4 0 0 1-.486.546l2.402-1.856a5 5 0 0 1-.898.549l2.867-1.21q-.327.134-.679.167l3.214-.432a2.3 2.3 0 0 1-.765.028l3.216.432a3 3 0 0 1-.733-.2l2.893 1.221a7 7 0 0 1-1.029-.61l2.454 1.896c-2.424-1.952-4.489-4.514-6.605-6.789a389 389 0 0 1-6.544-7.214 396 396 0 0 1-12.545-14.913c-1.894-2.366-6.056-3.704-8.942-3.704-3.102 0-6.807 1.378-8.942 3.704-2.212 2.41-3.855 5.574-3.704 8.942l.452 3.362a12.64 12.64 0 0 0 3.252 5.58 390 390 0 0 0 19.313 21.231c2.214 2.261 4.372 4.668 6.79 6.697 3.167 2.657 6.444 4.33 10.675 4.562 3.993.22 8.372-1.855 10.879-4.94 2.44-3.002 4.587-6.234 6.778-9.419a914 914 0 0 0 10.441-15.512c13.761-20.905 26.405-42.511 37.824-64.781a914 914 0 0 0 18.456-38.163c1.065-2.338 1.645-4.595.937-7.165-.594-2.157-2.262-4.494-4.273-5.557-4.303-2.273-10.291-1.254-12.723 3.336Z"/><path d="M431.207 731.703c-9.709-2.151-19.214-5.045-28.871-7.384-9.573-2.319-19.174-4.562-28.919-6.039-5.523-.837-11.027-1.506-16.619-1.438-5.469.066-10.941.732-16.327 1.651-9.831 1.679-19.037 5.193-28.113 9.249-7.732 3.455-15.168 7.534-22.595 11.593-6.655 3.637-13.252 7.436-19.366 11.942-3.774 2.782-7.483 5.691-10.86 8.951-3.298 3.184-6.216 6.755-8.861 10.495-2.801 3.959-4.77 8.272-6.589 12.755-1.593 3.926-2.748 8.02-3.562 12.175-1.872 9.555-2.38 19.292-2.208 29.007.153 8.687.771 17.357.964 26.042.257 11.61-.286 23.232-.334 34.842-.057 13.681.489 27.29 2.415 40.846.811 5.712 1.946 11.409 3.757 16.895 1.813 5.49 4.121 11.08 7.602 15.744 1.861 2.494 3.75 4.969 6.175 6.944 1.548 1.261 3.136 2.546 4.851 3.59 1.738 1.058 3.633 1.797 5.51 2.571a230 230 0 0 0 22.577 7.98c9.142 2.695 18.409 4.525 27.857 5.742 9.728 1.253 19.959 1.728 29.661.054 2.225-.384 4.358-.881 6.5-1.594 2.834-.944 5.764-1.853 8.441-3.185l-2.399 1.012c3.286-.762 6.53-1.767 9.712-2.884 2.157-.757 4.665-1.476 6.636-2.602 1.945-1.112 3.71-3.014 5.335-4.575 2.317-2.227 2.87-5.853 1.654-8.736-1.189-2.817-4.131-5.04-7.308-4.916-1.967.077-3.923.03-5.876.293-2.018.271-3.94 1.078-5.892 1.662-3.166.947-6.372 1.69-9.599 2.391l2.67-.359c-1.724-.051-3.459.203-5.187.193-1.719-.01-3.437-.068-5.154-.006-3.401.122-6.795.365-10.197.457-6.633.178-13.267-.241-19.841-1.119l3.164.425c-15.928-2.178-31.619-6.97-46.425-13.185l2.843 1.2a22 22 0 0 1-4.621-2.713l2.409 1.861c-1.734-1.349-3.256-2.925-4.602-4.659l1.861 2.409c-2.026-2.65-3.61-5.592-4.915-8.655l1.2 2.843c-3.016-7.174-4.57-14.897-5.606-22.581l.425 3.164c-1.864-14.04-1.964-28.275-1.774-42.415.085-6.348.252-12.695.337-19.044.105-7.916-.179-15.808-.523-23.716-.48-11.017-.882-22.109.588-33.072l-.427 3.18c.842-6.074 2.285-12.044 4.644-17.714l-1.207 2.861a50.2 50.2 0 0 1 6.34-10.907l-1.874 2.426c3.434-4.43 7.509-8.272 11.936-11.694l-2.434 1.88c10.212-7.827 21.927-13.762 33.384-19.531a202 202 0 0 1 11.848-5.52l-2.947 1.244c9.75-4.109 20.039-7.433 30.549-8.854l-3.239.435c10.724-1.393 21.519-.313 32.186 1.109l-3.026-.407c7.992 1.079 15.924 2.534 23.897 3.732 8.633 1.297 17.276 2.572 25.96 3.471 2.081.215 5.028-1.149 6.411-2.655 1.375-1.498 2.222-3.182 2.494-5.206.57-4.241-2.07-8.967-6.494-9.948Z"/><path d="m262.592 795.027 52.601 10.922c.796.165 1.681.392 2.098 1.089.554.926-.025 2.087-.537 3.037-4.87 9.027-3.811 19.942-2.988 30.166a426.6 426.6 0 0 1 .134 66.734c-1.38 18.045-3.552 37.659 6.194 52.908a175 175 0 0 1-34.182-5.879c-4.094-1.132-8.328-2.52-11.289-5.565-4.322-4.444-4.885-11.22-5.205-17.411l-6.23-120.648"/><path d="M260.182 803.769c4.449 1.339 8.883 2.602 13.396 3.706a658 658 0 0 0 13.309 3.089l13.342 2.969 6.792 1.512c2.097.467 4.331.774 6.361 1.481l-2.551-1.077q.325.123.604.33l-2.164-1.672.253.222-1.672-2.164q.252.274.354.634l-1.079-2.557.06.376-.383-2.847-.019.386.383-2.849q-.061.404-.216.782l1.082-2.563c-1.274 2.916-2.833 5.67-3.812 8.73s-1.451 6.289-1.793 9.477c-.514 4.789-.213 9.644.174 14.431.882 10.908 1.54 21.793 1.65 32.741.112 11.141-.177 22.278-1.11 33.381-.809 9.618-1.947 19.21-1.761 28.881.23 11.949 2.446 24.2 8.905 34.451l9.811-17.098q-5.295-.392-10.559-1.089l3.024.406a178 178 0 0 1-15.427-2.774c-4.661-1.055-9.471-2.112-13.889-3.975l2.727 1.151c-1.457-.641-2.832-1.397-4.106-2.354l2.312 1.786a15.2 15.2 0 0 1-2.458-2.448l1.787 2.313a17 17 0 0 1-2.023-3.523l1.153 2.731c-.911-2.241-1.418-4.596-1.741-6.988l.408 3.036c-.45-3.564-.56-7.167-.757-10.752l-.686-12.464-1.373-24.927c-.92-16.698-1.748-33.401-2.586-50.104l-1.413-28.168c-.15-2.986-1.158-5.838-3.309-7.989-1.96-1.96-5.175-3.435-7.989-3.309-2.922.131-5.952 1.091-7.989 3.309-1.967 2.142-3.468 4.991-3.309 7.989 1.385 26.089 2.827 52.176 4.084 78.271l1.874 38.886c.13 2.7.214 5.409.483 8.101.337 3.374.701 6.919 1.849 10.143 1.427 4.008 3.285 7.491 6.233 10.599 3.049 3.216 6.751 5.069 10.76 6.727 6.104 2.525 12.867 3.831 19.333 5.063a203 203 0 0 0 23.588 3.074c3.912.278 7.9-2.361 9.811-5.628 1.996-3.411 2.153-8.073 0-11.47a43.4 43.4 0 0 1-3.208-6.092l1.145 2.712c-1.823-4.349-2.933-8.924-3.565-13.59l.405 3.013c-.908-7.017-.782-14.111-.365-21.159.451-7.641 1.007-15.269 1.252-22.922.27-8.41.512-16.811.417-25.227-.096-8.499-.491-16.981-1.047-25.462-.554-8.449-1.562-16.922-.472-25.37l-.389 2.898c.39-2.787 1.062-5.5 2.137-8.104l-1.087 2.575c.364-.844.786-1.654 1.182-2.482 1.142-2.393 1.871-4.479 1.913-7.17.091-5.796-4.503-10.876-10.023-12.069-4.272-.924-8.594-1.659-12.885-2.487-8.641-1.666-17.27-3.4-25.944-4.887-5.578-.957-11.161-1.702-16.78-2.366-2.06-.243-5.048 1.17-6.411 2.655-1.375 1.498-2.222 3.182-2.494 5.206-.603 4.485 2.133 8.635 6.494 9.948Zm277.858-78.104a3848 3848 0 0 1 42.412-19.891c14.169-6.539 28.235-13.299 42.365-19.921 28.243-13.236 56.499-26.452 84.822-39.515a6499 6499 0 0 1 23.718-10.88c4.029-1.838 8.072-3.637 12.031-5.624l5.703-2.859c2.088-1.045 3.923-2.289 5.769-3.715 2.08-1.605 4.017-3.309 4.637-6.03.514-2.256.395-4.427-.509-6.569-.818-1.938-2.215-3.814-4.128-4.825-2.506-1.324-4.986-1.554-7.774-1.017-1.925.371-3.818.76-5.641 1.497s-3.628 1.479-5.441 2.219a349 349 0 0 0-13.099 5.665 6342 6342 0 0 0-63.87 29.605c-14.102 6.631-28.114 13.442-42.109 20.297-13.986 6.85-28.04 13.604-41.882 20.741a15864 15864 0 0 0-46.717 24.2c-4.475 2.326-6.173 8.949-3.453 13.168 1.325 2.055 3.298 3.864 5.752 4.423 2.645.602 4.969.195 7.416-.97Zm0 62.927a3848 3848 0 0 1 42.412-19.891c14.169-6.539 28.235-13.299 42.365-19.921 28.243-13.236 56.499-26.452 84.822-39.515a6499 6499 0 0 1 23.718-10.88c4.029-1.838 8.072-3.637 12.031-5.624l5.703-2.859c2.088-1.045 3.923-2.289 5.769-3.715 2.08-1.605 4.017-3.309 4.637-6.03.514-2.256.395-4.427-.509-6.569-.818-1.938-2.215-3.814-4.128-4.825-2.506-1.324-4.986-1.554-7.774-1.017-1.925.371-3.818.76-5.641 1.497s-3.628 1.479-5.441 2.219a349 349 0 0 0-13.099 5.665 6342 6342 0 0 0-63.87 29.605c-14.107 6.634-28.114 13.442-42.109 20.297-13.986 6.85-28.04 13.604-41.882 20.741a15864 15864 0 0 0-46.717 24.2c-4.475 2.326-6.173 8.949-3.453 13.168 1.325 2.055 3.298 3.864 5.752 4.423 2.645.602 4.969.195 7.416-.97Zm0 62.927q15.759-7.396 31.618-14.575c10.563-4.78 21.022-9.789 31.536-14.678 21.009-9.771 42.008-19.566 63.048-29.271q8.726-4.025 17.467-8.014c2.982-1.361 6.028-2.629 8.938-4.138l4.358-2.258c2.194-1.135 4.015-2.293 5.933-3.942l-2.155 1.665a39 39 0 0 0 3.556-2.871c2.975-2.719 3.586-7.468 2.086-11.021-.7-1.659-1.682-2.935-3.107-4.036-1.616-1.249-4.002-2.4-6.113-2.166-2.168.24-4.443.373-6.526 1.071-1.386.465-2.739 1.075-4.1 1.61a210 210 0 0 0-10.424 4.42 4792 4792 0 0 0-47.83 22.173c-10.547 4.96-21.012 10.082-31.464 15.24-10.515 5.189-21.112 10.265-31.494 15.717-11.688 6.138-23.364 12.297-35.042 18.454-4.46 2.352-6.184 8.931-3.453 13.168 1.325 2.055 3.298 3.864 5.752 4.423 2.652.604 4.959.183 7.416-.97Z"/></svg>