<?xml version="1.0" encoding="UTF-8"?><svg xmlns="http://www.w3.org/2000/svg" data-name="ARTWORK" viewBox="0 0 1000 1000"><path d="M207.21 534.013a185 185 0 0 0-18.769-2.08c-.122-.007-.603-.093-.668-.049l.926.127q2.653.363-1.601-.213c-.398-.027-.799-.025-1.198-.051-.938-.059-1.876-.149-2.813-.22a575 575 0 0 0-5.727-.4 698 698 0 0 0-12.362-.687 859 859 0 0 0-14.97-.57l3.027.407c-7.328-1.012-15.074-.452-22.471-.285-6.479.146-12.97.56-19.437.978-11.735.759-23.507 1.797-35.107 3.776-29.191 4.982-57.568 27.798-62.548 58.014-.66 4.002-1.166 8.057-1.179 12.118s.496 8.054 1.089 12.06c1.047 7.076 3.438 13.703 6.262 20.245 5.603 12.978 14.299 24.593 23.877 34.904 9.937 10.698 21.382 20.041 33.358 28.359 10.067 6.993 20.748 13.227 31.989 18.14 26.508 11.586 55.932 16.251 84.744 16.506 30.476.27 61.555-4.584 90.148-15.265 29.184-10.902 55.878-27.479 76.554-51.003 12.623-14.362 23.53-30.833 28.225-49.594 1.943-7.763 2.931-16.025 2.323-24.027-.673-8.863-2.765-16.932-6.411-25.011-6.153-13.633-18.106-25.089-31.757-31.092-8.49-3.734-17.193-5.942-26.354-7.327-9.899-1.496-19.842-2.35-29.847-2.627-18.599-.515-37.199.457-55.798.474-20.4.019-40.804-.271-61.205-.353q-7.252-.03-14.503-.051c-2.538-.008-5.074-.105-7.597.193-3.265.386-6.734.527-9.915 1.303l3.009-.404h-.691c-5.92-.001-11.592 5.207-11.318 11.318s4.973 11.317 11.318 11.318h.691l-3.009-.404c3.478.851 7.372 1.066 10.951 1.433 2.838.291 5.78.084 8.633.082q8.633-.005 17.266 0 17.265.01 34.531.059c10.929.031 21.856.134 32.784-.09 10.431-.213 20.867-.624 31.301-.58 11.775.05 23.565.498 35.249 2.03l-3.297-.443c9.075 1.222 18.322 2.893 26.805 6.45l-2.999-1.265c4.423 1.896 8.586 4.289 12.411 7.211l-2.556-1.975a53.8 53.8 0 0 1 9.385 9.344l-1.986-2.571a53.5 53.5 0 0 1 6.808 11.654l-1.287-3.049c1.887 4.535 3.142 9.28 3.797 14.147l-.458-3.41c.669 5.285.621 10.607-.052 15.889l.461-3.429c-.895 6.627-2.767 13.056-5.324 19.228l1.309-3.102c-3.755 8.896-8.908 17.089-14.776 24.735l2.046-2.648c-8.46 10.932-18.225 20.854-29.164 29.31l2.651-2.048c-12.277 9.431-25.841 17.05-40.086 23.079l3.134-1.322c-18.805 7.904-38.692 13.039-58.891 15.766l3.494-.469c-17.123 2.277-34.475 2.842-51.705 1.577a241 241 0 0 1-14.218-1.472l3.501.47c-16.057-2.173-32.26-5.737-47.233-12.05l3.129 1.32c-15.107-6.415-29.274-15.142-42.262-25.141l2.63 2.032c-11.396-8.813-21.993-18.793-30.821-30.207l2.014 2.606c-5.305-6.909-9.934-14.345-13.337-22.379l1.288 3.053c-2.329-5.581-4.032-11.395-4.862-17.391l.454 3.38c-.656-4.987-.691-10.014-.041-15.003l-.452 3.365c.638-4.629 1.829-9.17 3.608-13.493l-1.271 3.011c1.796-4.227 4.157-8.15 6.947-11.794l-1.963 2.541c3.532-4.527 7.648-8.527 12.187-12.038l-2.528 1.953a75 75 0 0 1 15.861-9.282l-2.968 1.252c8.023-3.372 16.611-4.768 25.189-5.925l-3.258.438c15.462-2.065 31.038-2.944 46.596-3.929 5.58-.353 11.443-.191 16.938-1.213l-3.027.407c15.424-1.146 30.94-2.153 46.411-1.814 2.816.062 5.633.166 8.44.402 4.335.364 8.075-3.617 8.611-7.602.528-3.926-1.97-8.912-6.28-9.619Z"/><path d="M79.857 604.265c7.619 3.045 15.355 5.855 23.097 8.571 7.807 2.739 15.683 5.232 23.743 7.105 16.85 3.917 33.954 6.354 51.218 7.443 16.344 1.031 32.804.945 49.124-.462 9.072-.782 18.12-1.923 27.112-3.352 4.044-.643 8.081-1.303 12.053-2.304s7.835-2.362 11.737-3.577c7.89-2.458 15.9-4.502 23.766-7.057 8.357-2.714 16.821-5.492 24.715-9.374 1.831-.901 3.612-1.834 5.359-2.89 3.453-2.088 4.865-6.376 3.302-10.079s-5.581-5.67-9.522-4.673c-7.3 1.846-14.285 4.608-21.421 6.976-7.078 2.348-14.259 4.396-21.488 6.222-2.053.518-4.113 1.096-6.203 1.436-2.178.354-4.36.681-6.537 1.035l2.651-.356c-4.413.45-8.812 1.017-13.207 1.61l2.894-.389c-6.771.904-13.485 2.167-20.256 3.084l2.933-.394c-25.662 3.441-51.721 4.132-77.515 1.839-7.275-.647-14.535-1.538-21.773-2.504l2.854.384c-8.512-1.147-16.912-2.801-25.361-4.306-8.4-1.497-16.902-3.131-25.104-5.507-4.631-1.342-9.221-2.837-13.78-4.404-4.089-1.406-9.209 1.606-10.157 5.767-.481 2.114-.377 4.486.832 6.362 1.237 1.918 2.827 2.952 4.935 3.795Z"/><path d="M96.119 594.926a3638 3638 0 0 0 26.019-60.657 2933 2933 0 0 0 23.999-59.142c7.792-19.815 15.271-39.738 22.53-59.755q10.947-30.19 21.344-60.573c10.397-30.383 13.455-40.483 19.833-60.84q1.202-3.837 2.396-7.676c1.715-5.515-2.028-12.286-7.711-13.581-6.072-1.383-11.65 1.833-13.581 7.711-6.662 20.282-13.577 40.477-20.442 60.69q-10.28 30.271-21.109 60.352c-10.829 30.081-14.619 39.97-22.016 59.922-7.381 19.909-14.937 39.755-22.61 59.553a3471 3471 0 0 1-26.543 66.454c-.862 2.096-.203 5.697.987 7.542 1.172 1.818 2.679 3.16 4.68 4.005 1.945.821 4.308 1.162 6.373.493 2.264-.733 4.847-2.22 5.849-4.498Z"/><path d="M324.958 587.384q-12.091-29.396-23.646-59.006c-11.555-29.61-15.289-39.61-22.714-59.497-7.44-19.929-14.832-39.881-22.082-59.88q-10.895-30.05-21.242-60.294c-10.347-30.244-13.81-40.391-20.515-60.652q-1.264-3.82-2.519-7.642c-.894-2.722-2.559-5.126-5.074-6.598-2.366-1.385-5.854-1.971-8.507-1.113-5.54 1.793-9.547 7.675-7.711 13.581 6.363 20.465 12.838 40.901 19.732 61.194q10.284 30.271 21.114 60.35c10.83 30.079 14.584 40.002 22.331 59.835s15.744 39.748 23.954 59.487a3629 3629 0 0 0 28.99 67.777c.884 2.009 3.774 4.025 5.849 4.498 2.189.498 4.295.384 6.373-.493 1.88-.793 3.7-2.149 4.68-4.005 1.144-2.165 1.964-5.166.987-7.542"/><path d="M210.222 531.154c.284-29.327.382-58.648.399-87.976l.049-87.976.014-24.493c.005-8.318.167-16.71-.6-24.993-.213-2.297-.804-4.32-2.486-6.002-1.472-1.472-3.888-2.581-6.002-2.486-2.195.098-4.472.819-6.002 2.486-1.601 1.745-2.268 3.646-2.486 6.002-.675 7.293-.606 14.67-.602 21.994l.012 21.994.024 43.988.049 87.976c.009 16.496.218 32.991.377 49.486.044 4.512 3.937 8.838 8.628 8.628s8.581-3.79 8.628-8.628ZM95.566 595.827a5.7 5.7 0 0 1-1.718-4.246c6.556-5.322 15.597-6.043 24.03-6.482 61.395-3.2 122.942-3.48 184.364-.838 3.766.162 8.43.996 9.492 4.614.848 2.887-1.419 5.932-4.196 7.09s-5.903.946-8.91.849c-15.253-.493-30.373 2.471-45.497 4.52-45.189 6.121-91.475 4.057-135.94-6.063"/><path d="M102.776 591.613a5.5 5.5 0 0 1-.339-.692l.863 2.046a7.3 7.3 0 0 1-.368-1.472l.321 2.39a8 8 0 0 1-.007-1.13l-.333 2.475c.469-1.173.388-2.424.478-3.648l-4.727 8.241c1.531-1.039 3.186-1.876 4.878-2.617l-2.362.997c2.839-1.19 5.825-1.877 8.866-2.304l-2.704.363c5.718-.755 11.503-.621 17.255-.859q9.834-.406 19.671-.714 19.552-.61 39.114-.826c26.093-.288 52.163-.458 78.255.142a1931 1931 0 0 1 32.883 1.035c3.317.133 6.688.113 9.986.512l-2.952-.397c1.299.177 2.566.453 3.785.946l-2.653-1.12a9 9 0 0 1 1.585.89l-2.248-1.737c.389.305.728.63 1.043 1.011l-1.737-2.249c.235.323.429.649.6 1.01l-1.12-2.654c.167.419.279.827.353 1.273l-.397-2.954c.031.357.033.683.01 1.04l.397-2.955a7 7 0 0 1-.331 1.349l1.121-2.655a8 8 0 0 1-.876 1.555l1.738-2.25a9 9 0 0 1-1.565 1.544l2.25-1.739a9.2 9.2 0 0 1-1.585.903l2.657-1.121c-.94.367-1.88.602-2.877.754l2.957-.397c-4.065.502-8.265-.034-12.356.061-4.455.104-8.902.452-13.331.934-9.642 1.048-19.213 2.646-28.823 3.938l2.978-.4c-26.334 3.506-53.006 4.316-79.502 2.344a386 386 0 0 1-22.437-2.337l2.993.402a386 386 0 0 1-33.998-6.138c-2.932-.667-6.048-.407-8.686 1.136-2.338 1.368-4.568 4.049-5.18 6.736-.657 2.885-.515 6.124 1.136 8.686 1.551 2.405 3.863 4.529 6.736 5.18a402.5 402.5 0 0 0 63.266 9.098 383 383 0 0 0 61.367-1.017c12.419-1.208 24.713-3.283 37.071-4.956l-2.969.399c4.664-.625 9.342-1.165 14.039-1.477 4.617-.307 9.2-.269 13.822-.176 2.815.057 5.786-.145 8.495-.904 3.326-.932 6.758-2.795 9.035-5.445 2.777-3.231 4.673-7.051 4.706-11.397.032-4.123-1.659-8.214-4.529-11.162-4.091-4.202-9.827-5.514-15.458-5.899-4.652-.318-9.335-.39-13.996-.554a1941 1941 0 0 0-28.65-.798 2069 2069 0 0 0-57.57-.387c-19.196.141-38.379.742-57.556 1.609-9.534.431-19.088.802-28.596 1.631-9.459.825-19.352 2.103-27.09 8.081-1.892 1.462-3.483 2.82-4.453 5.119-.604 1.432-.913 2.909-.758 4.461.17 1.692.338 3.31 1.298 4.8.486.753 1.127 1.47 1.684 2.173l-1.456-1.884c1.226 2.302 3.212 4.272 5.457 5.583 3.084 1.801 7.63 1.405 10.118-1.306 2.583-2.814 3.119-6.729 1.306-10.118Zm84.818-354.445c-12.513 1.807-15.979 16.612-16.473 27.173-.661 14.119 2.289 26.292 16.733 31.609 29.877 10.999 59.691-12.603 42.916-51.765-5.993-13.991-26.877-16.934-41.347-10.048-8.813 4.193-15.436 12.714-17.325 22.289"/><path d="M187.594 228.68c-6.027.439-11.309 2.624-15.761 6.743-3.976 3.678-6.417 8.444-8.282 13.443-1.664 4.462-2.369 9.118-2.967 13.82-.519 4.075-.376 8.365.133 12.432.712 5.69 1.951 11.009 4.826 16.058 2.768 4.864 6.917 8.887 11.693 11.769 4.333 2.615 9.403 4.399 14.369 5.381 4.586.907 9.348 1.437 14.023 1.045 4.443-.372 8.91-1.1 13.065-2.766 2.354-.944 4.711-1.92 6.903-3.205s4.234-2.871 6.198-4.486c6.66-5.479 11.415-13.773 13.258-22.156 2.296-10.445 1.18-21.477-2.38-31.512-2.005-5.652-4.384-10.932-8.791-15.143-4.034-3.855-8.847-6.47-14.106-8.247-4.638-1.567-9.757-2.22-14.641-2.168-5.043.054-10.274.813-15.058 2.447-6.018 2.056-11.333 5.123-16.021 9.439-4.821 4.439-8.179 9.944-10.661 15.94-.753 1.82-.993 3.712-1.164 5.686-.168 1.937.23 3.877.609 5.779.295 1.483 1.415 3.183 2.469 4.237 1.502 1.502 3.433 2.361 5.513 2.641 3.968.533 7.35-1.333 9.567-4.584q.501-.733 1.035-1.442l-1.614 2.089c1.05-1.357 1.895-2.515 2.691-3.96.813-1.477 1.357-3.073 2.005-4.625l-1.104 2.615a33.6 33.6 0 0 1 4.101-7.014l-1.712 2.216a33.6 33.6 0 0 1 5.719-5.771l-2.216 1.712a32.2 32.2 0 0 1 7.11-4.153l-2.615 1.104a39.4 39.4 0 0 1 9.686-2.62l-2.899.39a40 40 0 0 1 10.351-.022l-2.888-.388c2.791.389 5.518 1.083 8.126 2.156l-2.587-1.092c2.02.857 3.924 1.928 5.669 3.262l-2.186-1.689a21.7 21.7 0 0 1 3.704 3.692l-1.685-2.182c1.141 1.504 2.001 3.122 2.735 4.857l-1.084-2.569c1.986 4.774 3.477 9.739 4.188 14.867l-.382-2.842c.471 3.589.537 7.192.079 10.786l.382-2.841c-.408 3.007-1.168 5.937-2.33 8.742l1.081-2.56a31.7 31.7 0 0 1-3.965 6.841l1.68-2.175a31.2 31.2 0 0 1-5.421 5.44l2.18-1.684a32.6 32.6 0 0 1-7.108 4.145l2.58-1.089a35.7 35.7 0 0 1-8.983 2.411l2.88-.387c-3.362.427-6.749.4-10.11-.028l2.889.388a43.7 43.7 0 0 1-11.002-2.961l2.605 1.099c-2.081-.898-4.048-1.999-5.854-3.372l2.212 1.709a24.2 24.2 0 0 1-4.256-4.308l1.71 2.214a24.3 24.3 0 0 1-2.921-5.09l1.096 2.598c-1.097-2.653-1.763-5.437-2.156-8.276l.385 2.867c-.747-5.721-.625-11.749.111-17.47l-.37 2.75c.446-3.305 1.194-6.57 2.476-9.656l-.993 2.352c.461-1.048.888-2.109 1.33-3.164l-.986 2.337c.729-1.686 1.618-3.282 2.74-4.74l-1.46 1.89a17 17 0 0 1 2.792-2.8l-1.825 1.41a15.8 15.8 0 0 1 3.256-1.907l-2.082.878c.869-.358 1.756-.64 2.67-.858 4.113-.978 6.62-5.301 6.081-9.314-.525-3.908-4.112-7.668-8.337-7.36Zm616.428 181.615a185 185 0 0 0-18.769-2.08c-.122-.007-.603-.093-.668-.049l.926.127q2.653.363-1.601-.213c-.398-.027-.799-.025-1.198-.051-.938-.059-1.876-.149-2.813-.22a575 575 0 0 0-5.727-.4 698 698 0 0 0-12.362-.687 859 859 0 0 0-14.97-.57l3.027.407c-7.328-1.012-15.074-.452-22.471-.285-6.479.146-12.97.56-19.437.978-11.735.759-23.507 1.797-35.107 3.776-29.191 4.982-57.568 27.798-62.548 58.014-.66 4.002-1.166 8.057-1.179 12.118s.496 8.054 1.089 12.06c1.047 7.076 3.438 13.703 6.262 20.245 5.603 12.978 14.299 24.593 23.877 34.904 9.937 10.698 21.382 20.041 33.358 28.359 10.067 6.993 20.748 13.227 31.989 18.14 26.508 11.586 55.932 16.251 84.744 16.506 30.476.27 61.555-4.584 90.148-15.265 29.184-10.902 55.878-27.479 76.554-51.003 12.623-14.362 23.53-30.833 28.225-49.594 1.943-7.763 2.931-16.025 2.323-24.027-.673-8.863-2.765-16.932-6.411-25.011-6.153-13.633-18.106-25.089-31.757-31.092-8.49-3.734-17.193-5.942-26.354-7.327-9.899-1.496-19.842-2.35-29.847-2.627-18.599-.515-37.199.457-55.798.474-20.4.019-40.804-.271-61.205-.353q-7.251-.03-14.503-.051c-2.538-.008-5.074-.105-7.597.193-3.265.386-6.734.527-9.915 1.303l3.009-.404h-.691c-5.92-.001-11.592 5.207-11.318 11.318s4.973 11.317 11.318 11.318h.691l-3.009-.404c3.478.851 7.372 1.066 10.951 1.433 2.838.291 5.78.084 8.633.082q8.633-.005 17.266 0 17.265.01 34.531.059c10.929.031 21.856.134 32.784-.09 10.431-.213 20.867-.624 31.301-.58 11.775.05 23.565.498 35.249 2.03l-3.297-.443c9.075 1.222 18.322 2.893 26.805 6.45l-2.999-1.265c4.423 1.896 8.586 4.289 12.411 7.211l-2.556-1.975a53.8 53.8 0 0 1 9.385 9.344l-1.986-2.571a53.5 53.5 0 0 1 6.808 11.654l-1.287-3.049c1.887 4.535 3.142 9.28 3.797 14.147l-.458-3.41c.669 5.285.621 10.607-.052 15.889l.461-3.429c-.895 6.627-2.767 13.056-5.324 19.228l1.309-3.102c-3.755 8.896-8.908 17.089-14.776 24.735l2.046-2.648c-8.46 10.932-18.225 20.854-29.164 29.31l2.651-2.048c-12.277 9.431-25.841 17.05-40.086 23.079l3.134-1.322c-18.805 7.904-38.692 13.039-58.891 15.766l3.494-.469c-17.123 2.277-34.475 2.842-51.705 1.577a241 241 0 0 1-14.218-1.472l3.501.47c-16.057-2.173-32.26-5.737-47.233-12.05l3.129 1.32c-15.107-6.415-29.274-15.142-42.262-25.141l2.63 2.032c-11.396-8.813-21.993-18.793-30.821-30.207l2.014 2.606c-5.305-6.909-9.934-14.345-13.337-22.379l1.288 3.053c-2.329-5.581-4.032-11.395-4.862-17.391l.454 3.38c-.656-4.987-.691-10.014-.041-15.003l-.452 3.365c.638-4.629 1.829-9.17 3.608-13.493l-1.271 3.011c1.796-4.227 4.157-8.15 6.947-11.794l-1.963 2.541c3.532-4.527 7.648-8.527 12.187-12.038l-2.528 1.953a75 75 0 0 1 15.861-9.282l-2.968 1.252c8.023-3.372 16.611-4.768 25.189-5.925l-3.258.438c15.462-2.065 31.038-2.944 46.596-3.929 5.58-.353 11.443-.191 16.938-1.213l-3.027.407c15.424-1.146 30.94-2.153 46.411-1.814 2.816.062 5.633.166 8.44.402 4.335.364 8.075-3.617 8.611-7.602.528-3.926-1.97-8.912-6.28-9.619Z"/><path d="M676.669 480.548c7.619 3.045 15.355 5.855 23.097 8.571 7.807 2.739 15.683 5.232 23.743 7.105 16.85 3.917 33.954 6.354 51.218 7.443 16.344 1.031 32.804.945 49.124-.462 9.072-.782 18.12-1.923 27.112-3.352 4.044-.643 8.081-1.303 12.053-2.304s7.835-2.362 11.737-3.577c7.89-2.458 15.9-4.502 23.766-7.057 8.357-2.714 16.821-5.492 24.715-9.374 1.831-.901 3.612-1.834 5.359-2.89 3.453-2.088 4.865-6.376 3.302-10.079s-5.581-5.67-9.522-4.673c-7.3 1.846-14.285 4.608-21.421 6.976-7.078 2.348-14.259 4.396-21.488 6.222-2.053.518-4.113 1.096-6.203 1.436-2.178.354-4.36.681-6.537 1.035l2.651-.356c-4.413.45-8.812 1.017-13.207 1.61l2.894-.389c-6.771.904-13.485 2.167-20.256 3.084l2.933-.394c-25.662 3.441-51.721 4.132-77.515 1.839-7.275-.647-14.535-1.538-21.773-2.504l2.854.384c-8.512-1.147-16.912-2.801-25.361-4.306-8.4-1.497-16.902-3.131-25.104-5.507-4.631-1.342-9.221-2.837-13.78-4.404-4.089-1.406-9.209 1.606-10.157 5.767-.481 2.114-.377 4.486.832 6.362 1.237 1.918 2.827 2.952 4.935 3.795Z"/><path d="M692.931 471.209a3638 3638 0 0 0 26.019-60.657 2933 2933 0 0 0 23.999-59.142c7.792-19.815 15.271-39.738 22.53-59.755a3534 3534 0 0 0 21.344-60.573c6.906-20.185 13.455-40.483 19.833-60.84q1.202-3.837 2.396-7.676c1.715-5.515-2.028-12.286-7.711-13.581-6.072-1.383-11.65 1.833-13.581 7.711-6.662 20.282-13.577 40.477-20.442 60.69a3526 3526 0 0 1-21.109 60.352c-7.207 20.022-14.619 39.97-22.016 59.922s-14.937 39.755-22.61 59.553a3471 3471 0 0 1-26.543 66.454c-.862 2.096-.203 5.697.987 7.542 1.172 1.818 2.679 3.16 4.68 4.005 1.945.821 4.308 1.162 6.373.493 2.264-.733 4.847-2.22 5.849-4.498Z"/><path d="M921.77 463.667q-12.091-29.396-23.646-59.006c-11.555-29.61-15.289-39.61-22.714-59.497s-14.832-39.881-22.082-59.88a3519 3519 0 0 1-21.242-60.294c-6.909-20.193-13.81-40.391-20.515-60.652q-1.264-3.82-2.519-7.642c-.894-2.722-2.559-5.126-5.074-6.598-2.366-1.385-5.854-1.971-8.507-1.113-5.54 1.793-9.547 7.675-7.711 13.581 6.363 20.465 12.838 40.901 19.732 61.194a3532 3532 0 0 0 21.114 60.35c7.213 20.032 14.584 40.002 22.331 59.835 7.778 19.913 15.744 39.748 23.954 59.487a3629 3629 0 0 0 28.99 67.777c.884 2.009 3.774 4.025 5.849 4.498 2.189.498 4.295.384 6.373-.493 1.88-.793 3.7-2.149 4.68-4.005 1.144-2.165 1.964-5.166.987-7.542"/><path d="M807.034 407.437c.284-29.327.382-58.648.399-87.976l.049-87.976.014-24.493c.005-8.318.167-16.71-.6-24.993-.213-2.297-.804-4.32-2.486-6.002-1.472-1.472-3.888-2.581-6.002-2.486-2.195.098-4.472.819-6.002 2.486-1.601 1.745-2.268 3.646-2.486 6.002-.675 7.293-.606 14.67-.602 21.994l.012 21.994.024 43.988.049 87.976c.009 16.496.218 32.991.377 49.486.044 4.512 3.937 8.838 8.628 8.628s8.581-3.79 8.628-8.628ZM692.378 472.11a5.7 5.7 0 0 1-1.718-4.246c6.556-5.322 15.597-6.043 24.03-6.482 61.395-3.2 122.942-3.48 184.364-.838 3.766.162 8.43.996 9.492 4.614.848 2.887-1.419 5.932-4.196 7.09s-5.903.946-8.91.849c-15.253-.493-30.373 2.471-45.497 4.52-45.189 6.121-91.475 4.057-135.94-6.063"/><path d="M699.588 467.896a5.5 5.5 0 0 1-.339-.692l.863 2.046a7.3 7.3 0 0 1-.368-1.472l.321 2.39a8 8 0 0 1-.007-1.13l-.333 2.475c.469-1.173.388-2.424.478-3.648l-4.727 8.241c1.531-1.039 3.186-1.876 4.878-2.617l-2.362.997c2.839-1.19 5.825-1.877 8.866-2.304l-2.704.363c5.718-.755 11.503-.621 17.255-.859q9.834-.407 19.671-.714 19.552-.61 39.114-.826c26.093-.288 52.163-.458 78.255.142a1931 1931 0 0 1 32.883 1.035c3.317.133 6.688.113 9.986.512l-2.952-.397c1.299.177 2.566.453 3.785.946l-2.653-1.12a9 9 0 0 1 1.585.89l-2.248-1.737c.389.305.728.63 1.043 1.011l-1.737-2.249c.235.323.429.649.6 1.01l-1.12-2.654c.167.419.279.827.353 1.273l-.397-2.954c.031.357.033.683.01 1.04l.397-2.955a7 7 0 0 1-.331 1.349l1.121-2.655a8 8 0 0 1-.876 1.555l1.738-2.25a9 9 0 0 1-1.565 1.544l2.25-1.739a9.2 9.2 0 0 1-1.585.903l2.657-1.121c-.94.367-1.88.602-2.877.754l2.957-.397c-4.065.502-8.265-.034-12.356.061-4.455.104-8.902.452-13.331.934-9.642 1.048-19.213 2.646-28.823 3.938l2.978-.4c-26.334 3.506-53.006 4.316-79.502 2.344a386 386 0 0 1-22.437-2.337l2.993.402a386 386 0 0 1-33.998-6.138c-2.932-.667-6.048-.407-8.686 1.136-2.338 1.368-4.568 4.049-5.18 6.736-.657 2.885-.515 6.124 1.136 8.686 1.551 2.405 3.863 4.529 6.736 5.18a402.5 402.5 0 0 0 63.266 9.098 383 383 0 0 0 61.367-1.017c12.419-1.208 24.713-3.283 37.071-4.956l-2.969.399c4.664-.625 9.342-1.165 14.039-1.477 4.617-.307 9.2-.269 13.822-.176 2.815.057 5.786-.145 8.495-.904 3.326-.932 6.758-2.795 9.035-5.445 2.777-3.231 4.673-7.051 4.706-11.397.032-4.123-1.659-8.214-4.529-11.162-4.091-4.202-9.827-5.514-15.458-5.899-4.652-.318-9.335-.39-13.996-.554a1941 1941 0 0 0-28.65-.798 2069 2069 0 0 0-57.57-.387c-19.196.141-38.379.742-57.556 1.609-9.534.431-19.088.802-28.596 1.631-9.459.825-19.352 2.103-27.09 8.081-1.892 1.462-3.483 2.82-4.453 5.119-.604 1.432-.913 2.909-.758 4.461.17 1.692.338 3.31 1.298 4.8.486.753 1.127 1.47 1.684 2.173l-1.456-1.884c1.226 2.302 3.212 4.272 5.457 5.583 3.084 1.801 7.63 1.405 10.118-1.306 2.583-2.814 3.119-6.729 1.306-10.118Zm84.818-354.445c-12.513 1.807-15.979 16.612-16.473 27.173-.661 14.119 2.289 26.292 16.733 31.609 29.877 10.999 59.691-12.603 42.916-51.765-5.993-13.991-26.877-16.934-41.347-10.048-8.813 4.193-15.436 12.714-17.325 22.289"/><path d="M784.406 104.962c-6.027.439-11.309 2.624-15.761 6.743-3.976 3.678-6.417 8.444-8.282 13.443-1.664 4.462-2.369 9.118-2.967 13.82-.519 4.075-.376 8.365.133 12.432.712 5.69 1.951 11.009 4.826 16.058 2.768 4.864 6.917 8.887 11.693 11.769 4.333 2.615 9.403 4.399 14.369 5.381 4.586.907 9.348 1.437 14.023 1.045 4.443-.372 8.91-1.1 13.065-2.766 2.354-.944 4.711-1.92 6.903-3.205s4.234-2.871 6.198-4.486c6.66-5.479 11.415-13.773 13.258-22.156 2.296-10.445 1.18-21.477-2.38-31.512-2.005-5.652-4.384-10.932-8.791-15.143-4.034-3.855-8.847-6.47-14.106-8.247-4.638-1.567-9.757-2.22-14.641-2.168-5.043.054-10.274.813-15.058 2.447-6.018 2.056-11.333 5.123-16.021 9.439-4.821 4.439-8.179 9.944-10.661 15.94-.753 1.82-.993 3.712-1.164 5.686-.168 1.937.23 3.877.609 5.779.295 1.483 1.415 3.183 2.469 4.237 1.502 1.502 3.433 2.361 5.513 2.641 3.968.533 7.35-1.333 9.567-4.584q.501-.733 1.035-1.442l-1.614 2.089c1.05-1.357 1.895-2.515 2.691-3.96.813-1.477 1.357-3.073 2.005-4.625l-1.104 2.615a33.6 33.6 0 0 1 4.101-7.014l-1.712 2.216a33.6 33.6 0 0 1 5.719-5.771l-2.216 1.712a32.2 32.2 0 0 1 7.11-4.153l-2.615 1.104a39.4 39.4 0 0 1 9.686-2.62l-2.899.39a40 40 0 0 1 10.351-.022l-2.888-.388c2.791.389 5.518 1.083 8.126 2.156l-2.587-1.092c2.02.857 3.924 1.928 5.669 3.262l-2.186-1.689a21.7 21.7 0 0 1 3.704 3.692l-1.685-2.182c1.141 1.504 2.001 3.122 2.735 4.857l-1.084-2.569c1.986 4.774 3.477 9.739 4.188 14.867l-.382-2.842c.471 3.589.537 7.192.079 10.786l.382-2.841c-.408 3.007-1.168 5.937-2.33 8.742l1.081-2.56a31.7 31.7 0 0 1-3.965 6.841l1.68-2.175a31.2 31.2 0 0 1-5.421 5.44l2.18-1.684a32.6 32.6 0 0 1-7.108 4.145l2.58-1.089a35.7 35.7 0 0 1-8.983 2.411l2.88-.387c-3.362.427-6.749.4-10.11-.028l2.889.388a43.7 43.7 0 0 1-11.002-2.961l2.605 1.099c-2.081-.898-4.048-1.999-5.854-3.372l2.212 1.709a24.2 24.2 0 0 1-4.256-4.308l1.71 2.214a24.3 24.3 0 0 1-2.921-5.09l1.096 2.598c-1.097-2.653-1.763-5.437-2.156-8.276l.385 2.867c-.747-5.721-.625-11.749.111-17.47l-.37 2.75c.446-3.305 1.194-6.57 2.476-9.656l-.993 2.352c.461-1.048.888-2.109 1.33-3.164l-.986 2.337c.729-1.686 1.618-3.282 2.74-4.74l-1.46 1.89a17 17 0 0 1 2.792-2.8l-1.825 1.41a15.8 15.8 0 0 1 3.256-1.907l-2.082.878c.869-.358 1.756-.64 2.67-.858 4.113-.978 6.62-5.301 6.081-9.314-.525-3.908-4.112-7.668-8.337-7.36Z"/><path d="M202.132 283.36c39.782-6.681 79.471-13.758 119.081-21.395q59.66-11.504 119.128-23.96c59.468-12.456 78.834-16.813 118.157-25.65s78.586-17.944 117.794-27.272 78.735-19.038 117.995-28.99c4.814-1.22 9.609-2.475 14.386-3.831 6.206-1.761 10.681-8.802 8.618-15.178-2.121-6.555-8.442-10.207-15.178-8.618-19.698 4.647-39.221 10.115-58.827 15.142a8245 8245 0 0 1-58.314 14.724c-39.298 9.771-78.672 19.22-118.129 28.329s-78.591 17.841-117.981 26.331c-39.388 8.489-78.838 16.694-118.335 24.658s-79.386 15.829-119.1 23.625q-7.298 1.432-14.597 2.852c-5.131.998-8.536 7.416-6.966 12.268 1.804 5.574 6.74 7.894 12.268 6.966Z"/><path d="M487.719 226.7c10.714 92.901 9.826 186.773 5.432 280.186-2.588 55.025-6.468 110.475-21.479 163.477s-42.033 103.935-84.311 139.25c-8.383 7.002-17.443 13.489-23.813 22.363s-9.617 20.972-4.915 30.831c5.852 12.27 20.962 16.426 34.301 19.045 85.487 16.784 175.583 16.133 258.504-10.585 7.764-2.502 16.284-6.096 19.284-13.682 1.47-3.717 1.345-7.869.83-11.833-2.812-21.636-9.636-26.289-25.247-41.532-15.61-15.243-33.632-18.32-48.992-33.821-61.434-62.002-70.283-154.155-80.255-236.349-12.809-105.576-18.931-211.923-2.905-317.599-9.913-1.168-5.031.234-13.652 5.264"/><path d="M478.302 226.7c3.173 31.381 4.301 62.972 5.275 94.487.97 31.373.949 62.783.345 94.162-.604 31.37-1.831 62.738-3.343 94.077-1.462 30.296-3.379 60.593-7.328 90.679-.315 2.397.426-2.949-.152 1.085-.12.838-.235 1.677-.356 2.515a569 569 0 0 1-2.681 16.925 496 496 0 0 1-4.421 22.4c-3.04 13.69-6.699 27.249-11.162 40.546a346 346 0 0 1-6.724 18.332c-.604 1.512-1.23 3.015-1.845 4.522-.728 1.785.773-1.762-.002.003-.364.828-.715 1.661-1.078 2.489a318 318 0 0 1-4.054 8.879c-5.572 11.716-11.88 23.087-18.984 33.945-3.535 5.403-7.261 10.688-11.208 15.799 1.597-2.067-.968 1.196-1.355 1.678a231 231 0 0 1-9.433 11.011c-8.865 9.717-18.65 18.245-28.812 26.56-11.216 9.177-21.708 19.891-25.624 34.286-4.359 16.022 1.008 31.69 14.219 41.567 9.997 7.475 22.821 10.095 34.835 12.345 15.072 2.823 30.251 5.079 45.482 6.85 29.247 3.4 58.763 4.648 88.186 3.392 30.189-1.289 60.377-5.241 89.823-12.053 13.69-3.167 27.684-6.603 40.824-11.642 6.577-2.522 13.246-5.67 17.935-11.122 5.829-6.777 7.968-15.238 6.959-24.067-1.263-11.047-3.888-22.101-10.662-31.157-6.817-9.114-15.607-17.632-24.548-24.627-10.801-8.451-23.389-13.739-34.645-21.452-.607-.416-1.202-.849-1.805-1.27-.24-.168-1.734-1.314-.328-.211a66 66 0 0 1-3.518-2.977c-2.685-2.43-5.18-5.078-7.634-7.738a197 197 0 0 1-8.417-9.747c-.536-.663-1.063-1.333-1.596-1.999-1.34-1.676.404.575-.375-.483-7.109-9.658-13.646-19.638-19.291-30.23a234 234 0 0 1-7.903-16.31c.04.092-1.273-2.94-.625-1.43.54 1.26-.287-.691-.406-.977a298 298 0 0 1-4.913-12.737c-8.307-23.109-13.869-47.117-18.123-71.274-2.107-11.964-3.923-23.976-5.567-36.012-.075-.547-.379-2.798-.084-.6l-.27-2.024q-.268-2.022-.532-4.045-.623-4.788-1.226-9.577c-.735-5.832-1.452-11.666-2.172-17.5-3.754-30.436-7.237-60.892-9.609-91.472-4.819-62.125-6.294-124.928-.621-187.04.662-7.253 1.531-13.4 2.857-20.574 1.379-7.458 2.318-15.005 3.649-23.371 1.28-8.045-3.112-13.6-11.105-14.578-4.447-.544-8.865-.716-12.895 1.651-1.547.909-2.721 2.108-4.008 3.289-.177.162-1.292 1.103-1.28 1.127q2.11-1.604.425-.421a82 82 0 0 1-1.771 1.082c-5.215 3.143-7.616 10.595-4.177 15.93 3.379 5.242 10.348 7.541 15.93 4.177 2.811-1.694 6.106-3.745 8.148-6.38.965-1.245-2.682 1.821-1.312 1.032l-2.135.938q-3.654.377-1.772.263c1.589.2 3.246.176 4.847.346l-11.105-14.578c-1.192 8.359-2.645 16.815-3.074 25.25a506 506 0 0 1-1.662 22.858 899 899 0 0 0-3.238 46.411c-1.354 30.566-1.542 61.006-.284 91.585 2.377 57.74 8.649 115.275 15.865 172.587 6.162 48.935 14.501 97.842 35.182 143.004 10.303 22.499 23.948 43.363 41.077 61.28 9.467 9.903 20.804 16.545 32.633 23.177 2.655 1.489 5.292 3.012 7.861 4.647a90 90 0 0 1 4.102 2.764 60 60 0 0 1 1.803 1.328c-1.55-1.202.958.843 1.188 1.04 4.393 3.779 8.488 8.006 12.572 12.118 1.554 1.565 3.087 3.153 4.54 4.813.595.68 1.135 1.67 1.847 2.211-1.599-1.214-1.21-1.647-.586-.728.389.573.797 1.129 1.175 1.709 1.09 1.676 1.936 3.442 2.843 5.215.693 1.356-.726-2.319-.359-.815.147.601.446 1.201.643 1.789a52 52 0 0 1 1.023 3.493c.656 2.55 1.108 5.136 1.508 7.737-.383-2.49-.05-.421-.012.083.06.803.145 1.602.173 2.407a34 34 0 0 1-.05 3.005q-.092 1.32.002-.25l-.31 1.149c2.207-2.504-2.155 2.62-.574.959 1.429-1.502-3.768 2.817-.606.642a35 35 0 0 1-3.209 1.984c-.566.305-1.143.573-1.715.864-2.812 1.436 2.306-.786-.668.292-13.039 4.723-26.645 8.178-40.16 11.237a456 456 0 0 1-21.712 4.359 469 469 0 0 1-15.195 2.411c-.303.043-2.832.397-1.397.2 1.121-.154-2.176.282-2.619.338-28.756 3.63-57.824 4.756-86.78 3.613a577 577 0 0 1-43.136-3.343 603 603 0 0 1-7.977-.971c-.564-.072-3.231-.425-.931-.115a620 620 0 0 1-32.289-5.265c-5.767-1.097-11.554-2.198-17.155-3.989-1.209-.387-2.392-.838-3.59-1.256-2.899-1.01 1.697.881-.008.004-.549-.283-1.121-.525-1.673-.805a39 39 0 0 1-3.57-2.045c-.236-.153-1.36-1.045-1.484-1.022l1.146.88a28 28 0 0 1-1.336-1.175c-.718-.675-1.575-2.147-2.414-2.601 1.384.749 1.078 1.569.416.375a65 65 0 0 0-.91-1.574c-1.059-1.782-.105-.197.047.261-.275-.824-.54-1.639-.744-2.484-.103-.426-.411-2.592-.225-.862.196 1.818-.002-1.547.003-1.936.008-.695.096-1.391.101-2.084.014-1.853-.531 2.027-.021.234.437-1.538.705-3.104 1.217-4.627.227-.676.477-1.349.744-2.01-.2.494-1.061 2.132.053.08.853-1.571 1.699-3.125 2.704-4.608.408-.601.832-1.201 1.274-1.779-1.362 1.777-.149.237.137-.08 1.131-1.254 2.239-2.516 3.429-3.718 2.384-2.409 4.924-4.657 7.516-6.839 4.977-4.189 10.116-8.176 14.978-12.502 9.505-8.457 18.239-17.766 26.181-27.702 33.935-42.455 53.971-93.87 64.502-146.844 5.959-29.975 9.248-60.46 11.38-90.926s3.477-60.866 4.243-91.312c1.56-62.036 1.453-124.485-5.064-186.257-1.569-14.871-3.378-29.725-5.281-44.556-.647-5.043-3.864-9.417-9.417-9.417-4.695 0-9.931 4.326-9.417 9.417Z"/></svg>