<?xml version="1.0" encoding="UTF-8"?><svg xmlns="http://www.w3.org/2000/svg" data-name="ARTWORK" viewBox="0 0 1000 1000"><path d="M491.836 162.452c-7.112-9.729-17.589-14.057-29.446-14.568-.706-.03-2.365.393-.885.085 2.105-.438-1.527-.227-1.911-.234-.381-.007-.766.061-1.147.075-1.38.05-2.772.25-4.141.421-3.667.457-7.301 1.031-10.902 1.863-6.534 1.51-12.917 3.641-19.167 6.059-32.502 12.572-62.371 31.273-91.249 50.542-26.764 17.858-52.641 36.965-79.076 55.294-20.372 14.125-40.306 28.758-59.513 44.442-16.9 13.8-33.165 28.326-49.71 42.542-8.538 7.336-17.165 14.567-25.949 21.606-4.957 3.973-8.416 6.681-12.664 9.912a762 762 0 0 1-16.175 11.969c-20.747 14.934-42.783 28.399-58.251 49.227-16.324 21.979-18.419 49.859-17.583 76.307.897 28.396 2.689 56.791 4.802 85.12 4.336 58.13 10.838 116.089 19.33 173.758a2388 2388 0 0 0 14.076 84.933c4.378 23.75 8.206 48.029 18.834 69.963 11.142 22.993 31.12 38.36 56.124 43.568 13.043 2.716 26.406 3.333 39.673 4.021 14.23.737 28.46 1.481 42.691 2.217 53.634 2.775 107.304 5.081 160.994 6.43 51.243 1.287 102.537 1.612 153.776-.032a2162 2162 0 0 0 161.737-11.246c45.047-4.842 105.895-6.715 130.435-52.349 12.673-23.568 12.24-51.327 13.215-77.35a5275 5275 0 0 0 2.553-87.68c1.221-58.732 1.609-117.495 1.042-176.237q-.424-43.862-1.576-87.71c-.697-26.524-.192-53.586-4.033-79.892-3.24-22.191-13.106-45.442-34.423-55.731-24.084-11.624-52.144-6.359-77.65-3.718a2668 2668 0 0 0-168.695 22.948 2582 2582 0 0 0-164.282 33.207 2577 2577 0 0 0-162.495 44.022 1872 1872 0 0 0-38.485 12.235c-13.055 4.309-25.77 9.524-38.765 13.974-6.214 2.128-10.315 8.353-8.498 14.966 1.662 6.049 8.722 10.636 14.966 8.498 12.942-4.432 26.251-7.913 39.286-12.082a4045 4045 0 0 1 39.245-12.343 2578 2578 0 0 1 78.266-22.807c52.656-14.444 105.771-27.215 159.237-38.29s107.274-20.494 161.336-28.096c25.743-3.62 52.939-6.975 79.789-9.861 13.229-1.422 26.477-2.917 39.747-3.911 5.893-.441 11.817-.691 17.724-.376 1.297.069 2.589.178 3.883.292 2.332.205-.564-.192 1.724.23 2.92.538 5.804 1.2 8.618 2.158.789.268 1.602.548 2.372.875-.266-.113-1.43-.655-.136-.002 1.141.576 2.27 1.155 3.369 1.81 1.19.709 2.325 1.484 3.451 2.287-1.884-1.344.602.591 1.186 1.134q1.372 1.275 2.63 2.663c.595.657 2.036 2.459.72.715 1.499 1.986 2.83 4.105 4.019 6.289a59 59 0 0 1 1.693 3.374q.345.738.668 1.485c-.081-.189-.684-1.874-.246-.5.787 2.468 1.73 4.871 2.426 7.373a101 101 0 0 1 1.7 7.15q.337 1.681.626 3.372c.111.649.741 4.914.398 2.314 1.504 11.389 1.688 22.917 2.081 34.382q.737 21.52 1.298 43.046a5269 5269 0 0 1 1.677 171.449c-.371 57.154-1.953 114.308-4.357 171.411-.535 12.709-.797 25.487-2.183 38.139-.068.625-.592 4.575-.262 2.345a182 182 0 0 1-.608 3.883 118 118 0 0 1-1.867 8.916 95 95 0 0 1-2.372 8.032c-.218.629-1.655 4.352-.716 2.129a60 60 0 0 1-1.914 4.042c-1.28 2.488-2.749 4.834-4.299 7.159-.095.143-1.347 1.902-.39.596.993-1.354-.474.572-.729.876a61 61 0 0 1-2.672 2.975c-1.708 1.778-3.595 3.321-5.398 4.989-1.128 1.043.422-.292.573-.405q-.676.506-1.363.999a72 72 0 0 1-3.75 2.513 81 81 0 0 1-6.433 3.624 94 94 0 0 1-5.202 2.427c1.143-.493 1.446-.586.105-.084-4.962 1.859-9.979 3.477-15.116 4.784-5.212 1.326-10.488 2.412-15.785 3.336-2.552.445-5.11.851-7.673 1.229-1.177.174-2.355.335-3.533.503-1.652.236.639-.088.798-.107-.78.097-1.558.202-2.337.3-13.561 1.712-27.155 3.197-40.75 4.605a2143 2143 0 0 1-80.508 6.808c-50.599 3.315-101.319 4.781-152.024 4.875-50.573.093-101.136-1.225-151.672-3.081-26.691-.98-53.376-2.124-80.065-3.147-13.642-.523-27.283-1.055-40.925-1.584-6.693-.259-13.39-.471-20.079-.805a268 268 0 0 1-8.729-.562 180 180 0 0 1-4.688-.444q-1-.11-2.001-.232c-2.242-.274 1.719.276-.509-.078-5.916-.939-11.678-2.272-17.335-4.254 0 0-2.014-.76-.891-.313s-.855-.382-.861-.384a66 66 0 0 1-4.099-2.082 57 57 0 0 1-3.398-2.046c-.676-.44-1.331-.907-1.997-1.36-1.659-1.128 1.398 1.179-.144-.078a60.5 60.5 0 0 1-7.761-7.557c-.37-.43-.716-.887-1.093-1.31-.965-1.081.957 1.418-.403-.539-2.974-4.275-5.601-8.715-7.82-13.431-.23-.489-1.455-3.221-1.017-2.202.557 1.295-.201-.502-.251-.63-.288-.734-.579-1.467-.858-2.205-.984-2.6-1.882-5.233-2.712-7.885-1.555-4.966-2.869-10.005-4.044-15.073-2.84-12.251-5.017-24.667-7.289-37.033-10.131-55.155-18.133-109.389-24.256-164.562-6.166-55.561-10.562-111.391-12.63-167.26-.234-6.322-.377-12.65-.212-18.976a163 163 0 0 1 .475-9.095c.133-1.62.29-3.239.487-4.853.186-1.525.045-.326 0-.02q.204-1.37.444-2.733c2.17-12.321 5.564-21.056 13.08-30.985-1.114 1.472.789-.932 1.128-1.334a97 97 0 0 1 2.922-3.303 116 116 0 0 1 6.271-6.268 149 149 0 0 1 6.239-5.469c2.764-2.295 3.524-2.883 5.483-4.355 9.874-7.419 20.183-14.245 30.149-21.54 36.4-26.643 69.346-57.169 103.678-86.315 28.563-24.249 58.856-45.251 89.559-67.483 28.178-20.403 56.652-40.399 86.405-58.456 13.645-8.281 27.636-16.13 42.264-22.551.383-.168 3.022-1.294 1.694-.738-1.279.536.948-.385 1.301-.528a173 173 0 0 1 5.016-1.944 137 137 0 0 1 9.276-3.078c2.863-.831 5.759-1.555 8.688-2.116 1.144-.219 5.016-.555 1.851-.366 1.964-.118 4.326-.167 6.181-.67-1.155.312-2.038.131-.446.084.637-.019 1.272-.054 1.909-.061 1.139-.012 2.269.041 3.406.102.493.026 1.017.165 1.508.145-1.015.042-2.127-.386-.593-.05 1.019.223 2.032.423 3.033.722.514.154 1.027.387 1.548.515 1.435.354-1.804-.97-.523-.234.854.491 1.749.909 2.601 1.411.444.261.845.683 1.308.893-.862-.391-1.438-1.26-.411-.269.786.758 1.565 1.496 2.282 2.322 6.511 7.502 19.909-2.57 13.93-10.748Z"/><path d="M420.42 403.098c-1.356-59.355 20.891-116.284 36.722-173.506s24.854-120.796-1.299-174.097a56179 56179 0 0 1 275.161-30.496c31.817 87.209 32.462 185.432 1.794 273.051-7.777 22.218-17.656 44.873-15.3 68.295a127.9 127.9 0 0 1-41.55 1.248c9.626-34.716-8.424-74.03-39.234-92.702s-71.508-17.521-103.335-.64-54.873 47.947-66.019 82.205c-3.295 10.126-5.782 20.859-12.272 29.301s-18.58 13.834-28.008 8.883"/><path d="M429.197 403.098a232 232 0 0 1 .591-17.947q.332-4.556.822-9.097.244-2.27.526-4.537c.084-.68.264-1.407.268-2.091 0 .031-.258 1.854-.102.766.066-.461.128-.923.194-1.385 1.704-11.94 4.209-23.719 6.984-35.449 5.582-23.591 12.903-46.756 19.931-69.945 6.784-22.383 13.435-44.827 18.04-67.778 4.579-22.823 7.502-46.215 6.864-69.527-.621-22.691-4.544-45.528-13.358-66.521-1.385-3.298-2.803-6.572-4.363-9.791l-9.751 16.993a56620 56620 0 0 1 214.793-23.354q30.183-3.223 60.368-6.413l-11.592-8.826a420.6 420.6 0 0 1 20.412 84.315l-.439-3.27c3.774 28.278 4.647 56.928 2.54 85.381a417 417 0 0 1-2.527 24.312l.439-3.266c-2.634 19.515-6.642 38.839-12.08 57.767-2.71 9.434-5.82 18.733-9.151 27.965-3.429 9.505-6.957 18.997-9.546 28.774-3.099 11.7-4.983 24.064-3.825 36.171l9.004-11.826q-3.597.695-7.225 1.202l3.26-.438a130.4 130.4 0 0 1-34.325.051l11.821 15.518c6.388-23.391 2.122-48.572-9.528-69.606-5.56-10.037-12.979-19.38-21.675-26.882-10.003-8.629-21.307-15.01-33.776-19.367-24.142-8.437-51.765-7.816-75.912.257-23.557 7.876-44.501 22.705-60.375 41.754-7.886 9.463-14.819 19.677-20.394 30.668-3.026 5.965-5.691 12.135-8.06 18.388-2.149 5.67-3.825 11.484-5.681 17.252-.949 2.948-1.976 5.867-3.172 8.725l1.236-2.928c-1.592 3.705-3.514 7.226-5.959 10.44l1.922-2.488a31 31 0 0 1-5.034 5.042l2.493-1.926a30.3 30.3 0 0 1-6.632 3.895l2.948-1.244a25.7 25.7 0 0 1-5.67 1.574l3.286-.442a20.8 20.8 0 0 1-5.209.036l3.291.442a18.7 18.7 0 0 1-4.036-1.075l2.961 1.249a29 29 0 0 1-1.455-.68c-5.785-2.917-13.704-1.721-16.964 4.448-2.978 5.636-1.735 13.846 4.448 16.964 6.923 3.49 14.246 4.302 21.813 2.608 6.52-1.46 12.47-5.106 17.416-9.497 9.728-8.637 13.88-21.82 17.591-33.847 1.823-5.907 3.821-11.734 6.214-17.437l-1.236 2.928c5.16-12.175 11.794-23.682 19.865-34.161l-1.917 2.481c6.995-9.007 15.009-17.172 24.009-24.186l-2.481 1.917c8.076-6.235 16.858-11.494 26.255-15.484l-2.928 1.236a115.3 115.3 0 0 1 28.718-7.833l-3.259.438c9.641-1.279 19.392-1.342 29.038-.083l-3.259-.438c8.576 1.17 16.958 3.377 24.953 6.702l-2.928-1.236c6.93 2.935 13.474 6.663 19.449 11.244l-2.481-1.917c5.882 4.571 11.135 9.864 15.711 15.74l-1.917-2.481a92.6 92.6 0 0 1 11.783 20.12l-1.236-2.928c2.929 6.981 4.978 14.281 6.017 21.782l-.438-3.259c.889 6.753.941 13.567.06 20.323l.438-3.259a75 75 0 0 1-1.944 9.515c-1.038 3.801-.175 7.62 2.194 10.687a9.25 9.25 0 0 0 3.44 3.157 12.2 12.2 0 0 0 6.187 1.674c14.952 1.965 30.019 1.172 44.81-1.681 4.831-.932 9.48-6.827 9.004-11.826-.593-6.219-.365-12.439.462-18.626l-.438 3.261c3.087-21.899 12.813-42.23 19.315-63.211 6.365-20.537 11.051-41.591 14.057-62.88 3.132-22.182 4.76-44.506 4.432-66.915-.324-22.151-2.481-44.264-6.185-66.102a385 385 0 0 0-18.809-70.07c-.942-2.527-2.131-4.563-4.308-6.245-1.925-1.487-4.769-2.86-7.284-2.581a56684 56684 0 0 0-214.818 24.259 58316 58316 0 0 0-60.343 6.965c-4.089.474-7.563 1.854-9.751 5.593-2.153 3.68-1.816 7.702 0 11.4a161 161 0 0 1 3.774 8.265l-1.136-2.691c5.619 13.45 9.243 27.61 11.203 42.042l-.397-2.957c2.858 21.591 2.054 43.469-.808 65.014l.39-2.904c-4.045 29.998-12.196 59.111-20.791 88.068-9.036 30.443-18.346 60.923-23.111 92.393-2.74 18.1-4.264 36.359-3.573 54.672.173 4.582 3.913 8.994 8.777 8.777 4.736-.212 8.8-3.857 8.777-8.777Zm442.968 172.621c-6.738-13.239-24.862-14.424-39.703-13.81-3.287 4.788-3.585 11.455-.74 16.518l.832 4.229c-42.867 2.126-92.952 4.904-134.936 13.824-5.013 1.063-10.243 2.287-14.114 5.644-13.659 11.847-7.34 42.653-6.786 58.129.881 24.617 2.076 50.982 4.346 76.175 2.042 22.646 14.914 30.512 37.051 32.537a364.1 364.1 0 0 0 104.713-5.612c7.3-1.468 14.717-3.224 21.007-7.212 15.939-10.099 20.288-31.061 22.696-49.777a1047 1047 0 0 0 8.342-112.216c.13-6.275.138-12.835-2.707-18.428Zm-64.289 106.078c-3.656 17.074-17 31.728-33.663 36.963-16.659 5.235-35.986.843-48.752-11.076-4.646-4.338-8.466-9.623-10.763-15.55-4.874-12.608-2.319-27.382 4.983-38.76s18.891-19.56 31.447-24.569l-11.237 5.271c4.755-6.629 13.96-7.983 22.118-8.124 8.514-.145 17.191.44 25.168 3.428 7.975 2.985 15.244 8.631 18.692 16.42 2.08 4.709 2.683 9.925 3.015 15.061.459 6.994.459 14.082-1.008 20.937Z"/><path d="M882.429 569.719c-5.003-9.643-15.036-15.596-25.376-17.915-5.034-1.129-10.256-1.682-15.411-1.853-2.17-.072-4.341-.07-6.511-.018-1.908.046-4.005.01-5.83.513-3.932 1.083-6.765 4.23-8.421 7.821-1.899 4.118-3.105 8.364-2.986 12.958.121 4.693 1.321 9.085 3.562 13.202l-1.198-2.84.832 4.229 11.463-15.048c-23.377 1.16-46.756 2.421-70.066 4.571a774 774 0 0 0-37.909 4.424c-11.137 1.583-22.36 3.317-33.301 5.965-6.497 1.572-12.995 4.392-17.613 9.38-3.793 4.097-6.315 8.869-8.043 14.156-1.526 4.668-2.133 9.682-2.5 14.556-.328 4.355-.272 8.733-.057 13.092.378 7.641 1.422 15.237 1.748 22.879.527 12.376.948 24.754 1.606 37.124.676 12.708 1.511 25.408 2.631 38.085.463 5.245 1.052 10.591 2.756 15.603.894 2.629 1.975 5.241 3.288 7.69 1.243 2.318 2.845 4.378 4.486 6.429 2.643 3.302 6.102 6.06 9.711 8.232 3.824 2.302 8.128 3.995 12.422 5.196 4.945 1.382 10.101 2.061 15.196 2.585 6.188.637 12.411 1.021 18.624 1.287 26.279 1.129 52.595-.705 78.533-5.018 6.145-1.022 12.316-2.103 18.363-3.608 6.246-1.554 12.617-3.811 18.007-7.38 5.487-3.633 9.737-7.999 13.597-13.283 3.28-4.49 5.556-9.593 7.56-14.755 3.816-9.83 5.344-20.329 6.712-30.726 1.678-12.752 3.071-25.545 4.252-38.352a1048 1048 0 0 0 2.867-39.072c.704-12.896 1.348-25.846 1.38-38.764.009-3.729-.318-7.378-.901-11.066-.573-3.624-1.843-6.989-3.472-10.28-1.269-2.564-4.422-4.724-7.105-5.463-2.846-.784-6.635-.43-9.16 1.198-2.538 1.636-4.773 4.073-5.463 7.105-.738 3.242-.281 6.172 1.198 9.16.194.392.378.784.555 1.184l-1.198-2.84c.898 2.15 1.448 4.386 1.781 6.688l-.425-3.16c.484 3.667.438 7.362.361 11.052q-.129 6.198-.333 12.394-.406 12.393-1.106 24.772a1048 1048 0 0 1-3.969 49.431c-.936 8.981-1.959 17.957-3.159 26.906l.425-3.16c-1.304 9.631-3.081 19.321-6.839 28.332l1.198-2.84c-1.689 3.986-3.773 7.786-6.418 11.222l1.859-2.406c-1.931 2.464-4.121 4.686-6.591 6.611l2.406-1.859c-2.476 1.889-5.166 3.413-8.022 4.649l2.84-1.198c-5.822 2.451-12.038 3.714-18.215 4.908a367 367 0 0 1-20.335 3.333l3.16-.425c-22.592 3.032-45.456 3.97-68.219 2.746-5.871-.316-11.773-.67-17.604-1.436l3.16.425c-4.957-.67-9.886-1.731-14.513-3.671l2.84 1.198c-2.485-1.063-4.841-2.377-6.991-4.02l2.406 1.859a27 27 0 0 1-4.799-4.806l1.859 2.406c-1.447-1.908-2.623-3.983-3.57-6.18l1.198 2.84c-1.476-3.506-2.342-7.213-2.848-10.976l.425 3.16c-1.143-8.913-1.566-17.974-2.145-26.938a1456 1456 0 0 1-1.52-28.016c-.388-8.553-.54-17.128-1.046-25.674-.335-5.648-.992-11.273-1.398-16.917-.508-7.069-.755-14.223.18-21.269l-.425 3.16c.474-3.429 1.243-6.818 2.576-10.021l-1.198 2.84c.79-1.845 1.76-3.591 2.976-5.19l-1.859 2.406a19.6 19.6 0 0 1 3.172-3.223l-2.406 1.859c1.39-1.061 2.897-1.896 4.5-2.587l-2.84 1.198c3.284-1.354 6.764-2.082 10.229-2.805a396 396 0 0 1 10.692-2.076c7.434-1.341 14.901-2.487 22.387-3.498l-3.16.425c26.239-3.524 52.672-5.405 79.096-6.871 7.174-.398 14.349-.762 21.525-1.118 3.829-.19 6.986-1.644 9.335-4.685 2.419-3.131 2.882-6.529 2.128-10.363l-.534-2.716c-.404-2.052-1.328-3.825-2.18-5.739l1.198 2.84a17 17 0 0 1-1.119-4.083l.425 3.16a18 18 0 0 1-.01-4.242l-.425 3.16a17.4 17.4 0 0 1 1.085-4.095l-1.198 2.84c.41-.953.893-1.849 1.469-2.712l-10.265 5.888c5.589-.226 11.202-.194 16.756.533l-3.16-.425c3.843.524 7.638 1.387 11.226 2.881l-2.84-1.198c2.118.907 4.119 2.027 5.947 3.431l-2.406-1.859a22.3 22.3 0 0 1 3.717 3.713l-1.859-2.406a22 22 0 0 1 2.056 3.252c1.333 2.57 4.368 4.71 7.105 5.463 2.846.784 6.635.43 9.16-1.198 5.635-3.633 7.333-10.35 4.265-16.265Z"/><path d="M796.412 678.637a49 49 0 0 1-2.747 8.637l1.198-2.84a52 52 0 0 1-6.408 10.939l1.859-2.406a53 53 0 0 1-9.474 9.494l2.406-1.859a50.6 50.6 0 0 1-10.941 6.392l2.84-1.198a48.2 48.2 0 0 1-11.909 3.237l3.16-.425a51.7 51.7 0 0 1-13.32.001l3.16.425a53 53 0 0 1-13.24-3.579l2.84 1.198a50.7 50.7 0 0 1-11.179-6.51l2.406 1.859a48 48 0 0 1-8.23-8.234l1.859 2.406c-2.106-2.749-3.884-5.71-5.261-8.89l1.198 2.84a38.4 38.4 0 0 1-2.593-9.414l.425 3.16c-.505-3.784-.476-7.592.022-11.376l-.425 3.16a48.4 48.4 0 0 1 3.263-11.856l-1.198 2.84c1.703-3.996 3.919-7.712 6.572-11.149l-1.859 2.406c3.104-3.961 6.713-7.467 10.688-10.548l-2.406 1.859c5.076-3.887 10.656-7.038 16.537-9.534l-2.84 1.198q.734-.307 1.473-.604l-9.16-21.728-11.237 5.271 16.265 16.265.21-.285-1.859 2.406a16.6 16.6 0 0 1 2.915-2.927l-2.406 1.859c1.294-.972 2.687-1.749 4.172-2.39l-2.84 1.198c2.55-1.054 5.231-1.667 7.959-2.045l-3.16.425c6.755-.879 13.81-.694 20.554.175l-3.16-.425c4.421.601 8.767 1.632 12.897 3.339l-2.84-1.198a38.8 38.8 0 0 1 8.286 4.767l-2.406-1.859c2.111 1.635 4.019 3.486 5.674 5.584l-1.859-2.406a27.8 27.8 0 0 1 3.491 5.924l-1.198-2.84c1.213 2.952 1.901 6.047 2.329 9.202l-.425-3.16c.93 7.291 1.149 14.846.223 22.146l.425-3.16a60 60 0 0 1-.724 4.233c-.656 3.138-.457 6.332 1.198 9.16 1.443 2.466 4.27 4.818 7.105 5.463 3.043.693 6.459.543 9.16-1.198 2.511-1.619 4.832-4.082 5.463-7.105 1.96-9.379 2.146-19.131 1.038-28.634-.341-2.925-.695-5.887-1.396-8.754-.688-2.81-1.797-5.494-3.005-8.117-1.801-3.909-4.606-7.532-7.663-10.531-6.507-6.382-15.016-10.709-23.855-12.771-8.519-1.987-17.68-2.57-26.408-1.911-4.593.347-9.384.922-13.699 2.637-2.452.974-4.913 1.963-7.061 3.516-1.426 1.031-2.958 2.148-4.225 3.417-1.285 1.287-2.367 2.809-3.438 4.265l-1.198 2.84q-.743 2.37-.212 4.74c.335 2.494 1.36 5.073 3.27 6.826a14.1 14.1 0 0 0 5.246 3.057c3.119 1.009 6.338.126 9.16-1.198l11.237-5.271c2.448-1.148 4.874-4.52 5.463-7.105.605-2.658.466-5.216-.599-7.74-.964-2.284-2.61-4.494-4.864-5.685-2.643-1.397-6.255-2.366-9.16-1.198-7.413 2.978-14.484 6.466-20.849 11.336-3.496 2.675-6.88 5.417-9.885 8.644-2.975 3.194-5.71 6.703-8.037 10.398-2.404 3.816-4.257 8.017-5.77 12.254-1.545 4.329-2.287 8.778-2.822 13.334-.544 4.629-.166 9.127.506 13.724.662 4.528 2.179 8.652 4.04 12.823s4.527 7.823 7.385 11.378a47 47 0 0 0 7.566 7.464c3.366 2.653 6.776 5.125 10.614 7.051 3.8 1.908 7.81 3.555 11.908 4.711 15.571 4.392 32.622 2.564 46.728-5.415 13.611-7.699 23.973-20.684 28.765-35.526a49 49 0 0 0 1.222-4.56c.68-3.115.443-6.356-1.198-9.16-1.443-2.466-4.27-4.818-7.105-5.463-3.043-.693-6.459-.543-9.16 1.198-2.524 1.628-4.803 4.078-5.463 7.105Zm7.71-651.175a311 311 0 0 1 11.46 32.63c3.218 11.128 5.649 22.401 7.869 33.762a335 335 0 0 1 3.216 19.561l-.364-2.712a343 343 0 0 1 2.056 70.357 338 338 0 0 1-2.049 19.714l.381-2.838c-2.988 22.124-8.142 43.973-15.536 65.043a318 318 0 0 1-6.919 17.941l1.094-2.592c-9.119 21.581-20.794 41.984-29.202 63.882-2.309 6.014-4.279 12.065-5.642 18.365-1.179 5.447 1.621 11.808 7.46 13.138 5.755 1.311 11.415-1.731 13.138-7.46 2.637-8.77 5.674-17.429 9.22-25.873l-1.102 2.611c8.845-20.929 19.905-40.82 28.267-61.969a318.2 318.2 0 0 0 17.302-60.988c3.84-21.495 5.78-43.348 5.532-65.186-.248-21.863-2.784-43.795-7.232-65.196-4.39-21.123-11.75-41.769-20.483-61.46a321 321 0 0 0-3.273-7.134c-1.766-3.732-6.87-4.882-10.38-3.401-3.428 1.447-6.402 5.971-4.813 9.806ZM910.921 91.71l.455 1.041c.629 1.436-.469-1.163-.077-.185.28.698.568 1.392.843 2.091a129 129 0 0 1 1.666 4.488 126 126 0 0 1 2.905 9.414 158 158 0 0 1 3.812 19.091l-.331-2.46c2.068 15.601 1.772 31.417-.32 46.999l.362-2.694c-3.359 24.495-11.17 48.356-20.738 71.083l1.109-2.629c-9.674 22.887-21.186 45.012-33.133 66.783-11.989 21.847-24.633 43.365-37.972 64.415-3.796 5.99-7.653 11.941-11.471 17.917a1051 1051 0 0 1-5.602 8.675c-2.003 3.069-3.608 6.295-5.407 9.484-2.515 4.46-1.399 10.065 2.631 13.179 3.725 2.878 10.136 3.112 13.414-.799 2.41-2.875 4.987-5.582 7.161-8.649a927 927 0 0 0 5.067-7.229c3.416-4.915 6.773-9.863 10.026-14.887a1082 1082 0 0 0 18.84-30.171c12.229-20.323 23.615-41.142 34.339-62.296 10.919-21.54 21.262-43.492 29.208-66.324 7.712-22.158 12.564-45.413 13.269-68.908.703-23.417-3.014-46.845-12.198-68.443a134 134 0 0 0-3.426-7.425c-1.956-3.921-7.816-5.333-11.436-2.999-1.785 1.151-3.356 2.864-3.841 4.995-.531 2.33-.113 4.271.843 6.441ZM838.12 512.207c.252-.989.569-1.948.952-2.894l-.933 2.211c.842-1.975 1.955-3.789 3.262-5.489l-1.498 1.938c2.42-3.066 5.361-5.638 8.438-8.024l-2.057 1.59c2.884-2.217 5.889-4.27 8.789-6.466l9.936-7.523c7.336-5.555 14.697-11.076 21.939-16.752l39.376-30.867c13.186-10.336 26.317-20.74 39.447-31.147l9.796-7.764c1.341-1.063 2.726-2.104 3.873-3.383 2.246-2.503 4.241-5.439 5.016-8.77 1.344-5.773-.15-11.046-2.045-16.44a763 763 0 0 0-4.098-11.379c-5.908-16.005-12.316-31.853-19.274-47.431-.809-1.812-2.002-3.497-3.032-5.192-2.906-4.782-8.831-6.75-13.975-4.579-4.947 2.087-8.156 7.842-6.48 13.202.5 1.598.97 3.206 1.485 4.799.769 2.382 2.006 4.736 3.016 7.042a785 785 0 0 1 4.012 9.334l-1.193-2.827a770 770 0 0 1 10.089 25.144 755 755 0 0 1 6.978 19.084c.711 2.028 1.484 4.047 1.819 6.179l-.422-3.141c.105.889.118 1.743-.002 2.632l.422-3.141a9 9 0 0 1-.467 1.589l1.191-2.822a10 10 0 0 1-.975 1.652l1.847-2.391c-1.763 2.257-4.223 3.922-6.448 5.688l-7.44 5.906-15.272 12.123c-10.047 7.975-20.054 16-30.058 24.029l-30.2 24.238c-10.067 8.079-19.928 16.356-29.845 24.593-4.734 3.932-9.57 7.877-13.709 12.452-4.604 5.089-8.768 11.228-9.813 18.157-.379 2.512-.418 4.732.918 7.013 1.105 1.888 3.27 3.689 5.439 4.183 4.736 1.079 9.936-1.422 11.196-6.357Zm-588.281-58.606q-.267-1.6-.485-3.208l.336 2.499c-1.101-8.402-1.045-16.893.065-25.291l-.355 2.641c1.364-10.024 4.2-19.802 8.112-29.123l-1.065 2.523a121.7 121.7 0 0 1 15.557-26.626l-1.717 2.223c7.201-9.309 15.609-17.645 24.91-24.848l-2.254 1.741c11.079-8.529 23.317-15.437 36.188-20.872l-2.674 1.129c16.759-7.032 34.452-11.459 52.441-13.906l-2.997.403c19.67-2.637 39.575-2.957 59.376-1.958 5.589.282 11.178.881 16.772.904 5.559.023 10.22-4.259 10.946-9.663.319-2.376.016-5.031-1.323-7.106-1.474-2.286-3.856-4.67-6.66-5.122-6.304-1.016-12.643-1.379-19.015-1.693a411 411 0 0 0-16.574-.492c-10.953-.096-21.917.29-32.823 1.336-21.147 2.028-42.137 6.173-61.939 14.001-18.903 7.473-36.455 17.519-51.772 30.962-7.653 6.717-14.389 14.262-20.329 22.531s-10.541 17.13-14.431 26.471a108.5 108.5 0 0 0-7.298 26.682c-.759 5.415-1.294 10.818-1.326 16.29-.031 5.3.453 10.533 1.171 15.779.31 2.266.694 4.518 1.161 6.756.461 2.209 2.389 4.466 4.289 5.578 2.001 1.171 4.949 1.667 7.192.941 2.258-.731 4.437-2.13 5.578-4.289 1.24-2.347 1.377-4.585.941-7.192Z"/><path d="M437.537 310.476c-7.566-.703-15.356-.044-22.747 1.695-6.743 1.587-13.278 4.221-19.758 6.626-12.193 4.526-24.415 9.442-35.705 15.951a114.3 114.3 0 0 0-16.822 11.842c-5.079 4.307-9.401 9.233-13.414 14.531-7.534 9.946-12.748 21.626-16.452 33.489-1.997 6.395-3.517 12.932-4.699 19.524-.726 4.05-1.3 8.122-1.84 12.201a267 267 0 0 0-.611 4.978c-.089.791-.211 1.589-.258 2.385-.14 2.377 1.04 4.471 1.969 6.554 1.258 2.821 4.901 4.485 7.819 4.485 3.4 0 5.94-1.809 7.819-4.485.276-.393.59-.777.838-1.188 1.007-1.666 1.313-3.459 1.523-5.366.102-.927.192-1.855.295-2.782q.313-2.792.685-5.576l-.356 2.651c1.83-13.491 4.815-26.904 10.109-39.486l-1 2.369c3.13-7.364 7.053-14.368 11.949-20.707l-1.546 2.001c4.159-5.33 8.969-10.063 14.304-14.213l-1.995 1.542c9.641-7.43 20.599-12.861 31.767-17.587l-2.343.989a769 769 0 0 1 21.137-8.542c7.648-2.96 15.617-5.8 23.771-6.928l-2.329.313c2.639-.342 5.235-.449 7.891-.268 4.444.303 8.694-4.125 8.498-8.498-.098-2.198-.82-4.477-2.489-6.009-1.747-1.603-3.65-2.27-6.009-2.489Z"/><path d="m250.19 425.485 1.452.194-1.915-.257a546 546 0 0 1 27.201 4.367c4.466.835 8.905 1.872 13.331 2.896 4.99 1.155 9.994 2.563 15.13 2.778 3.041.127 6.304-2.329 6.985-5.318a8.6 8.6 0 0 0 0-3.852c-.35-1.537-1.842-3.674-3.329-4.329-1.622-.715-3.216-1.496-4.942-1.918q-1.658-.405-3.318-.8c-2.216-.527-4.47-.906-6.71-1.318-4.728-.87-9.474-1.622-14.209-2.451-9.851-1.725-19.75-3.165-29.675-4.385-1.7-.209-3.936.955-5.09 2.108-1.248 1.248-2.188 3.297-2.108 5.09.083 1.861.695 3.792 2.108 5.09 1.507 1.383 3.081 1.842 5.09 2.108Zm25.309-46.337c7.301 1.695 14.551 3.605 21.735 5.74s14.218 4.851 21.57 6.314c3.345.666 6.628-.68 7.998-3.925 1.242-2.944.244-6.925-2.774-8.466-7.169-3.661-14.976-5.726-22.724-7.779a371 371 0 0 0-22.152-5.138c-3.515-.704-7.59 1.005-8.454 4.8-.799 3.509 1.054 7.585 4.8 8.454Zm45.532-37.993 11.316 3.463c3.772 1.154 7.517 2.404 11.383 3.217 3.604.757 7.8-1.056 8.683-4.93.899-3.946-1.195-7.371-4.93-8.683s-7.573-2.181-11.402-3.15l-11.47-2.903c-3.409-.863-7.464 1.107-8.283 4.703-.83 3.643 1.096 7.179 4.703 8.283m20.361 307.82q17.833 17.305 35.944 34.32c18.111 17.015 24.238 22.585 36.493 33.729a3058 3058 0 0 0 74.411 65.492c13.015 11.086 26.134 22.233 40.038 32.191q2.518 1.804 5.041 3.602c1.488 1.062 4.274 1.332 5.976.782 1.635-.529 2.973-1.413 4.028-2.779 2.264-2.93 2.252-7.554-.606-10.182-6.058-5.572-12.129-11.078-18.449-16.354s-12.597-10.629-18.945-15.885a3065 3065 0 0 1-112.365-97.735 3059 3059 0 0 1-40.796-37.952c-2.894-2.741-7.936-3.087-10.77 0-2.756 3.002-3.054 7.806 0 10.77Zm-111.428 6.135q17.97 20.208 36.182 40.199c18.212 19.991 24.373 26.562 36.708 39.707s24.708 26.247 37.249 39.189a4477 4477 0 0 0 56.867 57.637c6.343 6.313 12.574 12.863 19.447 18.606q2.615 2.185 5.233 4.366c1.822 1.518 3.722 2.557 6.173 2.557 2.141 0 4.699-.951 6.173-2.557 3.372-3.673 3.222-8.672 0-12.346-2.989-3.408-5.945-6.841-9.091-10.106s-6.415-6.391-9.642-9.556a4492 4492 0 0 1-57.291-57.215c-12.633-12.848-25.259-25.703-37.786-38.654a5733 5733 0 0 1-37.219-38.857 4462 4462 0 0 1-41.577-44.397c-2.875-3.112-8.555-3.129-11.427 0-3.104 3.381-3.005 8.047 0 11.427Zm-8.609 138.575a725 725 0 0 0 55.963 51.167c5.971 4.91 11.951 9.789 18.321 14.175 1.584 1.09 4.423 1.398 6.226.815 1.703-.551 3.098-1.473 4.197-2.896 2.278-2.948 2.459-8.014-.632-10.609-3.651-3.066-7.383-5.996-11.156-8.909l1.679 1.297a719 719 0 0 1-50.35-42.792 733 733 0 0 1-13.545-12.953c-2.83-2.776-7.921-3.032-10.704 0s-2.97 7.69 0 10.704Z"/></svg>