<?xml version="1.0" encoding="UTF-8"?><svg xmlns="http://www.w3.org/2000/svg" data-name="ARTWORK" viewBox="0 0 1000 1000"><path d="M229.765 68.889c-2.201.252-4.403.5-6.605.752-2.454.281-4.941.174-7.41.189-.268.002-.599-.049-.859.006l1.64.249a5.35 5.35 0 0 0-2.679-.27c-.581.007-1.17.06-1.752.079q-2.06.067-4.119.148-4.184.163-8.365.399c-12.464.708-25.193 2.36-37.291 5.586-23.432 6.247-48.11 16.447-61.475 37.922-6.616 10.63-9.52 23.986-8.005 36.407.941 7.711 3.194 15.11 7.625 21.589 4.546 6.647 10.059 11.807 16.543 16.525 11.124 8.094 24.488 13.22 37.528 17.303 12.628 3.954 25.618 6.988 38.568 9.678 40.359 8.384 81.987 11.733 123.144 9.129 27.442-1.736 55.107-5.981 81.754-12.886 12.814-3.321 25.298-7.528 37.452-12.778 11.445-4.944 22.289-11.235 31.661-19.519 8.911-7.877 16.24-18.439 18.913-30.156 3.064-13.433 1.14-28.28-7.204-39.526-4.653-6.27-9.945-11.219-16.353-15.704-5.05-3.534-10.555-6.388-16.206-8.828-12.316-5.318-25.046-9.146-38.103-12.17-15.056-3.488-30.225-6.506-45.544-8.576-21.572-2.914-43.256-4.453-65.021-4.76-10.209-.144-20.395.053-30.6.305-6.208.153-12.172 5.355-11.88 11.88.282 6.305 5.224 12.044 11.88 11.88 29.618-.731 59.474.175 88.859 4.1l-3.229-.434c13.393 1.812 26.609 4.41 39.791 7.363 8.929 2 17.833 4.146 26.575 6.861 5.293 1.643 10.52 3.495 15.629 5.646l-2.997-1.265c7.115 3.024 14.019 6.639 20.158 11.37l-2.561-1.979c3.32 2.592 6.37 5.502 8.96 8.83l-1.988-2.573c1.946 2.548 3.581 5.293 4.83 8.247l-1.286-3.048a35.6 35.6 0 0 1 2.356 8.711l-.456-3.392c.43 3.421.392 6.877-.059 10.294l.456-3.392a40.3 40.3 0 0 1-2.672 9.785l1.286-3.048c-1.501 3.544-3.478 6.839-5.811 9.897l1.995-2.582c-3.296 4.258-7.207 7.971-11.447 11.277l2.582-1.994c-8.177 6.316-17.418 11.119-26.911 15.128l3.046-1.285c-20.609 8.645-42.606 13.776-64.563 17.62-6.268 1.097-12.554 2.1-18.86 2.949l3.387-.455c-29.985 3.984-60.393 4.56-90.539 2.191a466 466 0 0 1-25.37-2.703l3.384.455c-23.505-3.183-47.142-7.897-69.826-14.946-5.345-1.661-10.626-3.527-15.788-5.691l3.038 1.282c-7.272-3.077-14.331-6.753-20.614-11.569l2.574 1.988c-3.482-2.705-6.688-5.747-9.392-9.238l1.984 2.569c-1.88-2.475-3.472-5.13-4.711-7.982l1.276 3.025a35.6 35.6 0 0 1-2.427-8.756l.451 3.359c-.562-4.253-.529-8.601.014-12.854l-.45 3.348a45.2 45.2 0 0 1 3.128-11.521l-1.266 2.999c1.527-3.541 3.502-6.846 5.851-9.902l-1.958 2.534c2.997-3.844 6.521-7.216 10.369-10.2l-2.525 1.951c6.742-5.173 14.358-9.2 22.161-12.518l-2.921 1.233c10.754-4.536 22.088-7.86 33.412-10.636 5.578-1.368 11.131-2.718 16.7-4.123q3.925-.988 7.866-1.908a578 578 0 0 1 5.632-1.285c.813-.181 3.545-.62.075-.16l2.332-.313q3.495-1.508 1.374-.557c-1.57.713-.147.19.277.088l1.969-.468 1.929-.454c.863-.202 3.029-.366.128-.174 2.519-.167 5.048-.574 7.557-.862 4.062-.465 8.047-3.274 7.843-7.843-.172-3.849-3.477-8.343-7.843-7.843Z"/><path d="M91.534 147.641c.566 10.525 1.127 21.041 1.91 31.552.724 9.712 1.165 19.497 2.432 29.157.659 5.025 1.437 10.029 3.034 14.855 1.579 4.77 3.165 9.429 6.17 13.523 5.462 7.441 12.537 13.25 20.858 17.268 14.958 7.223 31.688 10.605 47.836 14.06 17.128 3.664 34.392 6.468 51.785 8.539 34.234 4.076 68.914 5.084 103.275 2.027 35.549-3.163 70.921-10.276 104.156-23.484 8.936-3.551 17.758-7.417 26.357-11.722 4.654-2.33 8.908-4.771 12.998-8.019 3.916-3.111 7.249-6.96 9.919-11.191 5.99-9.49 6.544-21.076 7.23-31.956a401 401 0 0 0 .763-30.892 379 379 0 0 0-.53-15.267c-.321-5.904-4.978-11.607-11.323-11.323-5.933.266-11.576 4.984-11.323 11.323.744 18.659.297 37.507-2.135 56.039l.424-3.159c-.542 3.92-1.33 7.777-2.827 11.454l1.214-2.877a33 33 0 0 1-4.051 6.906l1.888-2.444a37.5 37.5 0 0 1-6.341 6.295l2.446-1.89c-4.086 3.098-8.792 5.263-13.388 7.488a304 304 0 0 1-14.29 6.458l2.896-1.222c-22.507 9.445-46.092 16.273-70.07 20.777a401 401 0 0 1-20.402 3.276l3.193-.429c-33.944 4.527-68.371 4.892-102.478 2.079a567 567 0 0 1-28.401-3.079l3.116.419c-22.939-3.087-46.08-6.878-68.432-12.985a121 121 0 0 1-8.21-2.533 87 87 0 0 1-3.725-1.403c-2.152-.87 1.971.901.285.117-.68-.316-1.366-.62-2.041-.948-2.495-1.212-4.914-2.589-7.19-4.176-.708-.493-2.626-2.215-.001.063-.414-.359-.852-.691-1.268-1.049a38 38 0 0 1-3.158-3.05q-.655-.712-1.271-1.457c-1.559-1.886 1.151 1.67.154.19-.925-1.373-1.773-2.774-2.623-4.193-.709-1.184-1.272-2.637-2.084-3.738 1.076 1.459.648 1.654.343.741-.098-.293-.206-.583-.305-.875a55 55 0 0 1-.828-2.662c-.855-3.01-1.471-6.084-1.962-9.172-.115-.725-.215-1.453-.325-2.179-.17-1.131.154 1.178.147 1.101-.039-.418-.107-.837-.157-1.254a274 274 0 0 1-.526-4.692c-.87-8.28-1.705-16.563-2.557-24.844l-.309-3.005c-.051-.5-.092-1.003-.151-1.502l-.34-2.529q.235 1.728.099.651c-.248-2.13-.526-4.257-.789-6.386l-1.578-12.771c-.298-2.411-.781-4.414-2.569-6.202-1.521-1.521-4.017-2.667-6.202-2.569-4.541.203-9.035 3.864-8.771 8.771Z"/><path d="M111.016 301.264a492 492 0 0 0 10.209 4.407q.945.398 1.891.791c-2.893-1.199-.677-.262.018.047q2.1.931 4.21 1.838c6.303 2.707 12.642 5.393 19.097 7.721 11.736 4.233 23.627 7.93 35.732 10.951 25.484 6.358 51.519 10.195 77.727 11.882 25.44 1.638 50.976 1.086 76.283-2.048a350 350 0 0 0 74.271-17.576c12.044-4.283 24.008-9.182 35.272-15.244a216 216 0 0 0 15.102-8.923c5.403-3.501 11.251-7.066 15.795-11.641 2.027-2.041 4.259-3.777 6.219-5.908 3.134-3.408 3.594-8.408.722-12.126s-7.781-4.534-11.913-2.379c-8.876 4.629-17.258 10.109-26.111 14.811a349 349 0 0 1-27.585 13.107l2.846-1.201c-20.501 8.633-41.832 14.62-63.748 18.358-6.301 1.075-12.636 1.985-18.97 2.84l3.408-.458c-30.049 4.015-60.623 4.601-90.837 2.26a463 463 0 0 1-25.44-2.689l3.355.451a581 581 0 0 1-87.575-18.733 261 261 0 0 1-22.683-7.843c-2.048-.818-5.492-.208-7.295.954-1.758 1.134-3.057 2.591-3.873 4.527-1.665 3.947-.435 9.894 3.873 11.822Z"/><path d="M111.016 359.718a492 492 0 0 0 10.209 4.407q.945.398 1.891.791c-2.893-1.199-.677-.262.018.047q2.1.931 4.21 1.838c6.303 2.707 12.642 5.393 19.097 7.721 11.736 4.233 23.627 7.93 35.732 10.951 25.484 6.358 51.519 10.195 77.727 11.882 25.44 1.638 50.976 1.086 76.283-2.048a350 350 0 0 0 74.271-17.576c12.044-4.283 24.008-9.182 35.272-15.244a216 216 0 0 0 15.102-8.923c5.403-3.501 11.251-7.066 15.795-11.641 2.027-2.041 4.259-3.777 6.219-5.908 3.134-3.408 3.594-8.408.722-12.126s-7.781-4.534-11.913-2.379c-8.876 4.629-17.258 10.109-26.111 14.811a349 349 0 0 1-27.585 13.107l2.846-1.201c-20.501 8.633-41.832 14.62-63.748 18.358-6.301 1.075-12.636 1.985-18.97 2.84l3.408-.458c-30.049 4.015-60.623 4.601-90.837 2.26a463 463 0 0 1-25.44-2.689l3.355.451a581 581 0 0 1-87.575-18.733 261 261 0 0 1-22.683-7.843c-2.048-.818-5.492-.208-7.295.954-1.758 1.134-3.057 2.591-3.873 4.527-1.665 3.947-.435 9.894 3.873 11.822Z"/><path d="M111.016 418.171a492 492 0 0 0 10.209 4.407q.945.398 1.891.791c-2.893-1.199-.677-.262.018.047q2.1.931 4.21 1.838c6.303 2.707 12.642 5.393 19.097 7.721 11.736 4.233 23.627 7.93 35.732 10.951 25.484 6.358 51.519 10.195 77.727 11.882 25.44 1.638 50.976 1.086 76.283-2.048a350 350 0 0 0 74.271-17.576c12.044-4.283 24.008-9.182 35.272-15.244a216 216 0 0 0 15.102-8.923c5.403-3.501 11.251-7.066 15.795-11.641 2.027-2.041 4.259-3.777 6.219-5.908 3.134-3.408 3.594-8.408.722-12.126s-7.781-4.534-11.913-2.379c-8.876 4.629-17.258 10.109-26.111 14.811a349 349 0 0 1-27.585 13.107l2.846-1.201c-20.501 8.633-41.832 14.62-63.748 18.358-6.301 1.075-12.636 1.985-18.97 2.84l3.408-.458c-30.049 4.015-60.623 4.601-90.837 2.26a463 463 0 0 1-25.44-2.689l3.355.451a581 581 0 0 1-87.575-18.733 261 261 0 0 1-22.683-7.843c-2.048-.818-5.492-.208-7.295.954-1.758 1.134-3.057 2.591-3.873 4.527-1.665 3.947-.435 9.894 3.873 11.822Z"/><path d="M111.016 476.624a492 492 0 0 0 10.209 4.407q.945.398 1.891.791c-2.893-1.199-.677-.262.018.047q2.1.931 4.21 1.838c6.303 2.707 12.642 5.393 19.097 7.721 11.736 4.233 23.627 7.93 35.732 10.951 25.484 6.358 51.519 10.195 77.727 11.882 25.44 1.638 50.976 1.086 76.283-2.048a350 350 0 0 0 74.271-17.576c12.044-4.283 24.008-9.182 35.272-15.244a216 216 0 0 0 15.102-8.923c5.403-3.501 11.251-7.066 15.795-11.641 2.027-2.041 4.259-3.777 6.219-5.908 3.134-3.408 3.594-8.408.722-12.126s-7.781-4.534-11.913-2.379c-8.876 4.629-17.258 10.109-26.111 14.811a349 349 0 0 1-27.585 13.107l2.846-1.201c-20.501 8.633-41.832 14.62-63.748 18.358-6.301 1.075-12.636 1.985-18.97 2.84l3.408-.458c-30.049 4.015-60.623 4.601-90.837 2.26a463 463 0 0 1-25.44-2.689l3.355.451a581 581 0 0 1-87.575-18.733 261 261 0 0 1-22.683-7.843c-2.048-.818-5.492-.208-7.295.954-1.758 1.134-3.057 2.591-3.873 4.527-1.665 3.947-.435 9.894 3.873 11.822Z"/><path d="M111.016 535.077a492 492 0 0 0 10.209 4.407q.945.398 1.891.791c-2.893-1.199-.677-.262.018.047q2.1.931 4.21 1.838c6.303 2.707 12.642 5.393 19.097 7.721 11.736 4.233 23.627 7.93 35.732 10.951 25.484 6.358 51.519 10.195 77.727 11.882 25.44 1.638 50.976 1.086 76.283-2.048a350 350 0 0 0 74.271-17.576c12.044-4.283 24.008-9.182 35.272-15.244a216 216 0 0 0 15.102-8.923c5.403-3.501 11.251-7.066 15.795-11.641 2.027-2.041 4.259-3.777 6.219-5.908 3.134-3.408 3.594-8.408.722-12.126s-7.781-4.534-11.913-2.379c-8.876 4.629-17.258 10.109-26.111 14.811a349 349 0 0 1-27.585 13.107l2.846-1.201c-20.501 8.633-41.832 14.62-63.748 18.358-6.301 1.075-12.636 1.985-18.97 2.84l3.408-.458c-30.049 4.015-60.623 4.601-90.837 2.26a463 463 0 0 1-25.44-2.689l3.355.451a581 581 0 0 1-87.575-18.733 261 261 0 0 1-22.683-7.843c-2.048-.818-5.492-.208-7.295.954-1.758 1.134-3.057 2.591-3.873 4.527-1.665 3.947-.435 9.894 3.873 11.822Zm522.36-219.084-6.605.752c-2.454.281-4.941.174-7.41.189-.268.002-.599-.049-.859.006l1.64.249a5.35 5.35 0 0 0-2.679-.27c-.581.007-1.17.06-1.752.079q-2.06.067-4.119.148-4.184.163-8.365.399c-12.464.708-25.193 2.36-37.291 5.586-23.432 6.247-48.11 16.447-61.475 37.922-6.616 10.63-9.52 23.986-8.005 36.407.941 7.711 3.194 15.11 7.625 21.589 4.546 6.647 10.059 11.807 16.543 16.525 11.124 8.094 24.488 13.22 37.528 17.303 12.628 3.954 25.618 6.988 38.568 9.678 40.359 8.384 81.987 11.733 123.144 9.129 27.442-1.736 55.107-5.981 81.754-12.886 12.814-3.321 25.298-7.528 37.452-12.778 11.445-4.944 22.289-11.235 31.661-19.519 8.911-7.877 16.24-18.439 18.913-30.156 3.064-13.433 1.14-28.28-7.204-39.526-4.653-6.27-9.945-11.219-16.353-15.704-5.05-3.534-10.555-6.388-16.206-8.828-12.316-5.318-25.046-9.146-38.103-12.17-15.056-3.488-30.225-6.506-45.544-8.576-21.572-2.914-43.256-4.453-65.021-4.76-10.209-.144-20.395.053-30.6.305-6.208.153-12.172 5.355-11.88 11.88.282 6.305 5.224 12.044 11.88 11.88 29.618-.731 59.474.175 88.859 4.1l-3.229-.434c13.393 1.812 26.609 4.41 39.791 7.363 8.929 2 17.833 4.146 26.575 6.861 5.293 1.643 10.52 3.495 15.629 5.646l-2.997-1.265c7.115 3.024 14.019 6.639 20.158 11.37l-2.561-1.979c3.32 2.592 6.37 5.502 8.96 8.83l-1.988-2.573c1.946 2.548 3.581 5.293 4.83 8.247l-1.286-3.048a35.6 35.6 0 0 1 2.356 8.711l-.456-3.392c.43 3.421.392 6.877-.059 10.294l.456-3.392a40.3 40.3 0 0 1-2.672 9.785l1.286-3.048c-1.501 3.544-3.478 6.839-5.811 9.897l1.995-2.582c-3.296 4.258-7.207 7.971-11.447 11.277l2.582-1.994c-8.177 6.316-17.418 11.119-26.911 15.128l3.046-1.285c-20.609 8.645-42.606 13.776-64.563 17.62-6.268 1.097-12.554 2.1-18.86 2.949l3.387-.455c-29.985 3.984-60.393 4.56-90.539 2.191a466 466 0 0 1-25.37-2.703l3.384.455c-23.505-3.183-47.142-7.897-69.826-14.946-5.345-1.661-10.626-3.527-15.788-5.691l3.038 1.282c-7.272-3.077-14.331-6.753-20.614-11.569l2.574 1.988c-3.482-2.705-6.688-5.747-9.392-9.238l1.984 2.569c-1.88-2.475-3.472-5.13-4.711-7.982l1.276 3.025a35.6 35.6 0 0 1-2.427-8.756l.451 3.359c-.562-4.253-.529-8.601.014-12.854l-.45 3.348a45.2 45.2 0 0 1 3.128-11.521l-1.266 2.999c1.527-3.541 3.502-6.846 5.851-9.902l-1.958 2.534c2.997-3.844 6.521-7.216 10.369-10.2l-2.525 1.951c6.742-5.173 14.358-9.2 22.161-12.518l-2.921 1.233c10.754-4.536 22.088-7.86 33.412-10.636 5.578-1.368 11.131-2.718 16.7-4.123q3.925-.989 7.866-1.908a578 578 0 0 1 5.632-1.285c.813-.181 3.545-.62.075-.16l2.332-.313q3.495-1.508 1.374-.557c-1.57.713-.147.19.277.088l1.969-.468 1.929-.454c.863-.202 3.029-.366.128-.174 2.519-.167 5.048-.574 7.557-.862 4.062-.465 8.047-3.274 7.843-7.843-.172-3.849-3.477-8.343-7.843-7.843Z"/><path d="M495.145 394.745c.566 10.525 1.127 21.041 1.91 31.552.724 9.712 1.165 19.497 2.432 29.157.659 5.025 1.437 10.029 3.034 14.855 1.579 4.77 3.165 9.429 6.17 13.523 5.462 7.441 12.537 13.25 20.858 17.268 14.958 7.223 31.688 10.605 47.836 14.06 17.128 3.664 34.392 6.468 51.785 8.539 34.234 4.076 68.914 5.084 103.275 2.027 35.549-3.163 70.921-10.276 104.156-23.484 8.936-3.551 17.758-7.417 26.357-11.722 4.654-2.33 8.908-4.771 12.998-8.019 3.916-3.111 7.249-6.96 9.919-11.191 5.99-9.49 6.544-21.076 7.23-31.956a401 401 0 0 0 .763-30.892 379 379 0 0 0-.53-15.267c-.321-5.904-4.978-11.607-11.323-11.323-5.933.266-11.576 4.984-11.323 11.323.744 18.659.297 37.507-2.135 56.039l.424-3.159c-.542 3.92-1.33 7.777-2.827 11.454l1.214-2.877a33 33 0 0 1-4.051 6.906l1.888-2.444a37.5 37.5 0 0 1-6.341 6.295l2.446-1.89c-4.086 3.098-8.792 5.263-13.388 7.488a304 304 0 0 1-14.29 6.458l2.896-1.222c-22.507 9.445-46.092 16.273-70.07 20.777a401 401 0 0 1-20.402 3.276l3.193-.429c-33.944 4.527-68.371 4.892-102.478 2.079a567 567 0 0 1-28.401-3.079l3.116.419c-22.939-3.087-46.08-6.878-68.432-12.985a121 121 0 0 1-8.21-2.533 87 87 0 0 1-3.725-1.403c-2.152-.87 1.971.901.285.117-.68-.316-1.366-.62-2.041-.948-2.495-1.212-4.914-2.589-7.19-4.176-.708-.493-2.626-2.215-.001.063-.414-.359-.852-.691-1.268-1.049a38 38 0 0 1-3.158-3.05q-.655-.712-1.271-1.457c-1.559-1.886 1.151 1.67.154.19-.925-1.373-1.773-2.774-2.623-4.193-.709-1.184-1.272-2.637-2.084-3.738 1.076 1.459.648 1.654.343.741-.098-.293-.206-.583-.305-.875a55 55 0 0 1-.828-2.662c-.855-3.01-1.471-6.084-1.962-9.172-.115-.725-.215-1.453-.325-2.179-.17-1.131.154 1.178.147 1.101-.039-.418-.107-.837-.157-1.254a274 274 0 0 1-.526-4.692c-.87-8.28-1.705-16.563-2.557-24.844l-.309-3.005c-.051-.5-.092-1.003-.151-1.502l-.34-2.529q.236 1.728.099.651c-.248-2.13-.526-4.257-.789-6.386l-1.578-12.771c-.298-2.411-.781-4.414-2.569-6.202-1.521-1.521-4.017-2.667-6.202-2.569-4.541.203-9.035 3.864-8.771 8.771Z"/><path d="M514.627 548.368a492 492 0 0 0 10.209 4.407q.945.398 1.891.791c-2.893-1.199-.677-.262.018.047q2.1.931 4.21 1.838c6.303 2.707 12.642 5.393 19.097 7.721 11.736 4.233 23.627 7.93 35.732 10.951 25.484 6.358 51.519 10.195 77.727 11.882 25.44 1.638 50.976 1.086 76.283-2.048a350 350 0 0 0 74.271-17.576c12.044-4.283 24.008-9.182 35.272-15.244a216 216 0 0 0 15.102-8.923c5.403-3.501 11.251-7.066 15.795-11.641 2.027-2.041 4.259-3.777 6.219-5.908 3.134-3.408 3.594-8.408.722-12.126s-7.781-4.534-11.913-2.379c-8.876 4.629-17.258 10.109-26.111 14.811a349 349 0 0 1-27.585 13.107l2.846-1.201c-20.501 8.633-41.832 14.62-63.748 18.358-6.301 1.075-12.636 1.985-18.97 2.84l3.408-.458c-30.049 4.015-60.623 4.601-90.837 2.26a463 463 0 0 1-25.44-2.689l3.355.451a581 581 0 0 1-87.575-18.733 261 261 0 0 1-22.683-7.843c-2.048-.818-5.492-.208-7.295.954-1.758 1.134-3.057 2.591-3.873 4.527-1.665 3.947-.435 9.894 3.873 11.822Z"/><path d="M514.627 606.821a492 492 0 0 0 10.209 4.407q.945.398 1.891.791c-2.893-1.199-.677-.262.018.047q2.1.931 4.21 1.838c6.303 2.707 12.642 5.393 19.097 7.721 11.736 4.233 23.627 7.93 35.732 10.951 25.484 6.358 51.519 10.195 77.727 11.882 25.44 1.638 50.976 1.086 76.283-2.048a350 350 0 0 0 74.271-17.576c12.044-4.283 24.008-9.182 35.272-15.244a216 216 0 0 0 15.102-8.923c5.403-3.501 11.251-7.066 15.795-11.641 2.027-2.041 4.259-3.777 6.219-5.908 3.134-3.408 3.594-8.408.722-12.126s-7.781-4.534-11.913-2.379c-8.876 4.629-17.258 10.109-26.111 14.811a349 349 0 0 1-27.585 13.107l2.846-1.201c-20.501 8.633-41.832 14.62-63.748 18.358-6.301 1.075-12.636 1.985-18.97 2.84l3.408-.458c-30.049 4.015-60.623 4.601-90.837 2.26a463 463 0 0 1-25.44-2.689l3.355.451a581 581 0 0 1-87.575-18.733 261 261 0 0 1-22.683-7.843c-2.048-.818-5.492-.208-7.295.954-1.758 1.134-3.057 2.591-3.873 4.527-1.665 3.947-.435 9.894 3.873 11.822Z"/><path d="M514.627 665.275a492 492 0 0 0 10.209 4.407q.945.398 1.891.791c-2.893-1.199-.677-.262.018.047q2.1.931 4.21 1.838c6.303 2.707 12.642 5.393 19.097 7.721 11.736 4.233 23.627 7.93 35.732 10.951 25.484 6.358 51.519 10.195 77.727 11.882 25.44 1.638 50.976 1.086 76.283-2.048a350 350 0 0 0 74.271-17.576c12.044-4.283 24.008-9.182 35.272-15.244a216 216 0 0 0 15.102-8.923c5.403-3.501 11.251-7.066 15.795-11.641 2.027-2.041 4.259-3.777 6.219-5.908 3.134-3.408 3.594-8.408.722-12.126s-7.781-4.534-11.913-2.379c-8.876 4.629-17.258 10.109-26.111 14.811a349 349 0 0 1-27.585 13.107l2.846-1.201c-20.501 8.633-41.832 14.62-63.748 18.358-6.301 1.075-12.636 1.985-18.97 2.84l3.408-.458c-30.049 4.015-60.623 4.601-90.837 2.26a463 463 0 0 1-25.44-2.689l3.355.451a581 581 0 0 1-87.575-18.733 261 261 0 0 1-22.683-7.843c-2.048-.818-5.492-.208-7.295.954-1.758 1.134-3.057 2.591-3.873 4.527-1.665 3.947-.435 9.894 3.873 11.822Z"/><path d="M514.627 723.728a492 492 0 0 0 10.209 4.407q.945.398 1.891.791c-2.893-1.199-.677-.262.018.047q2.1.931 4.21 1.838c6.303 2.707 12.642 5.393 19.097 7.721 11.736 4.233 23.627 7.93 35.732 10.951 25.484 6.358 51.519 10.195 77.727 11.882 25.44 1.638 50.976 1.086 76.283-2.048s50.231-9.026 74.271-17.576c12.044-4.283 24.008-9.182 35.272-15.244a216 216 0 0 0 15.102-8.923c5.403-3.501 11.251-7.066 15.795-11.641 2.027-2.041 4.259-3.777 6.219-5.908 3.134-3.408 3.594-8.408.722-12.126s-7.781-4.534-11.913-2.379c-8.876 4.629-17.258 10.109-26.111 14.811a349 349 0 0 1-27.585 13.107l2.846-1.201c-20.501 8.633-41.832 14.62-63.748 18.358-6.301 1.075-12.636 1.985-18.97 2.84l3.408-.458c-30.049 4.015-60.623 4.601-90.837 2.26a463 463 0 0 1-25.44-2.689l3.355.451a581 581 0 0 1-87.575-18.733 261 261 0 0 1-22.683-7.843c-2.048-.818-5.492-.208-7.295.954-1.758 1.134-3.057 2.591-3.873 4.527-1.665 3.947-.435 9.894 3.873 11.822Z"/><path d="M514.627 782.181a492 492 0 0 0 10.209 4.407q.945.398 1.891.791c-2.893-1.199-.677-.262.018.047q2.1.931 4.21 1.838c6.303 2.707 12.642 5.393 19.097 7.721 11.736 4.233 23.627 7.93 35.732 10.951 25.484 6.358 51.519 10.195 77.727 11.882 25.44 1.638 50.976 1.086 76.283-2.048s50.231-9.026 74.271-17.576c12.044-4.283 24.008-9.182 35.272-15.244a216 216 0 0 0 15.102-8.923c5.403-3.501 11.251-7.066 15.795-11.641 2.027-2.041 4.259-3.777 6.219-5.908 3.134-3.408 3.594-8.408.722-12.126s-7.781-4.534-11.913-2.379c-8.876 4.629-17.258 10.109-26.111 14.811a349 349 0 0 1-27.585 13.107l2.846-1.201c-20.501 8.633-41.832 14.62-63.748 18.358-6.301 1.075-12.636 1.985-18.97 2.84l3.408-.458c-30.049 4.015-60.623 4.601-90.837 2.26a463 463 0 0 1-25.44-2.689l3.355.451a581 581 0 0 1-87.575-18.733 261 261 0 0 1-22.683-7.843c-2.048-.818-5.492-.208-7.295.954-1.758 1.134-3.057 2.591-3.873 4.527-1.665 3.947-.435 9.894 3.873 11.822ZM111.016 593.53a492 492 0 0 0 10.209 4.407q.945.398 1.891.791c-2.893-1.199-.677-.262.018.047q2.1.931 4.21 1.838c6.303 2.707 12.642 5.393 19.097 7.721 11.736 4.233 23.627 7.93 35.732 10.951 25.484 6.358 51.519 10.195 77.727 11.882 25.44 1.638 50.976 1.086 76.283-2.048s50.231-9.026 74.271-17.576c12.044-4.283 24.008-9.182 35.272-15.244a216 216 0 0 0 15.102-8.923c5.403-3.501 11.251-7.066 15.795-11.641 2.027-2.041 4.259-3.777 6.219-5.908 3.134-3.408 3.594-8.408.722-12.126s-7.781-4.534-11.913-2.379c-8.876 4.629-17.258 10.109-26.111 14.811a349 349 0 0 1-27.585 13.107l2.846-1.201c-20.501 8.633-41.832 14.62-63.748 18.358-6.301 1.075-12.636 1.985-18.97 2.84l3.408-.458c-30.049 4.015-60.623 4.601-90.837 2.26a463 463 0 0 1-25.44-2.689l3.355.451a581 581 0 0 1-87.575-18.733 261 261 0 0 1-22.683-7.843c-2.048-.818-5.492-.208-7.295.954-1.758 1.134-3.057 2.591-3.873 4.527-1.665 3.947-.435 9.894 3.873 11.822Z"/><path d="M111.016 651.983a492 492 0 0 0 10.209 4.407q.945.398 1.891.791c-2.893-1.199-.677-.262.018.047q2.1.931 4.21 1.838c6.303 2.707 12.642 5.393 19.097 7.721 11.736 4.233 23.627 7.93 35.732 10.951 25.484 6.358 51.519 10.195 77.727 11.882 25.44 1.638 50.976 1.086 76.283-2.048s50.231-9.026 74.271-17.576c12.044-4.283 24.008-9.182 35.272-15.244a216 216 0 0 0 15.102-8.923c5.403-3.501 11.251-7.066 15.795-11.641 2.027-2.041 4.259-3.777 6.219-5.908 3.134-3.408 3.594-8.408.722-12.126s-7.781-4.534-11.913-2.379c-8.876 4.629-17.258 10.109-26.111 14.811a349 349 0 0 1-27.585 13.107l2.846-1.201c-20.501 8.633-41.832 14.62-63.748 18.358-6.301 1.075-12.636 1.985-18.97 2.84l3.408-.458c-30.049 4.015-60.623 4.601-90.837 2.26a463 463 0 0 1-25.44-2.689l3.355.451a581 581 0 0 1-87.575-18.733 261 261 0 0 1-22.683-7.843c-2.048-.818-5.492-.208-7.295.954-1.758 1.134-3.057 2.591-3.873 4.527-1.665 3.947-.435 9.894 3.873 11.822Z"/><path d="M111.016 710.436a492 492 0 0 0 10.209 4.407q.945.398 1.891.791c-2.893-1.199-.677-.262.018.047q2.1.931 4.21 1.838c6.303 2.707 12.642 5.393 19.097 7.721 11.736 4.233 23.627 7.93 35.732 10.951 25.484 6.358 51.519 10.195 77.727 11.882 25.44 1.638 50.976 1.086 76.283-2.048a350 350 0 0 0 74.271-17.576c12.044-4.283 24.008-9.182 35.272-15.244a216 216 0 0 0 15.102-8.923c5.403-3.501 11.251-7.066 15.795-11.641 2.027-2.041 4.259-3.777 6.219-5.908 3.134-3.408 3.594-8.408.722-12.126s-7.781-4.534-11.913-2.379c-8.876 4.629-17.258 10.109-26.111 14.811a349 349 0 0 1-27.585 13.107l2.846-1.201c-20.501 8.633-41.832 14.62-63.748 18.358-6.301 1.075-12.636 1.985-18.97 2.84l3.408-.458c-30.049 4.015-60.623 4.601-90.837 2.26a463 463 0 0 1-25.44-2.689l3.355.451a581 581 0 0 1-87.575-18.733 261 261 0 0 1-22.683-7.843c-2.048-.818-5.492-.208-7.295.954-1.758 1.134-3.057 2.591-3.873 4.527-1.665 3.947-.435 9.894 3.873 11.822Z"/><path d="M111.016 768.89a492 492 0 0 0 10.209 4.407q.945.398 1.891.791c-2.893-1.199-.677-.262.018.047q2.1.931 4.21 1.838c6.303 2.707 12.642 5.393 19.097 7.721 11.736 4.233 23.627 7.93 35.732 10.951 25.484 6.358 51.519 10.195 77.727 11.882 25.44 1.638 50.976 1.086 76.283-2.048s50.231-9.026 74.271-17.576c12.044-4.283 24.008-9.182 35.272-15.244a216 216 0 0 0 15.102-8.923c5.403-3.501 11.251-7.066 15.795-11.641 2.027-2.041 4.259-3.777 6.219-5.908 3.134-3.408 3.594-8.408.722-12.126s-7.781-4.534-11.913-2.379c-8.876 4.629-17.258 10.109-26.111 14.811a349 349 0 0 1-27.585 13.107l2.846-1.201c-20.501 8.633-41.832 14.62-63.748 18.358-6.301 1.075-12.636 1.985-18.97 2.84l3.408-.458c-30.049 4.015-60.623 4.601-90.837 2.26a463 463 0 0 1-25.44-2.689l3.355.451a581 581 0 0 1-87.575-18.733 261 261 0 0 1-22.683-7.843c-2.048-.818-5.492-.208-7.295.954-1.758 1.134-3.057 2.591-3.873 4.527-1.665 3.947-.435 9.894 3.873 11.822Z"/><path d="M111.016 827.343a492 492 0 0 0 10.209 4.407q.945.398 1.891.791c-2.893-1.199-.677-.262.018.047q2.1.931 4.21 1.838c6.303 2.707 12.642 5.393 19.097 7.721 11.736 4.233 23.627 7.93 35.732 10.951 25.484 6.358 51.519 10.195 77.727 11.882 25.44 1.638 50.976 1.086 76.283-2.048s50.231-9.026 74.271-17.576c12.044-4.283 24.008-9.182 35.272-15.244a216 216 0 0 0 15.102-8.923c5.403-3.501 11.251-7.066 15.795-11.641 2.027-2.041 4.259-3.777 6.219-5.908 3.134-3.408 3.594-8.408.722-12.126s-7.781-4.534-11.913-2.379c-8.876 4.629-17.258 10.109-26.111 14.811a349 349 0 0 1-27.585 13.107l2.846-1.201c-20.501 8.633-41.832 14.62-63.748 18.358-6.301 1.075-12.636 1.985-18.97 2.84l3.408-.458c-30.049 4.015-60.623 4.601-90.837 2.26a463 463 0 0 1-25.44-2.689l3.355.451a581 581 0 0 1-87.575-18.733 261 261 0 0 1-22.683-7.843c-2.048-.818-5.492-.208-7.295.954-1.758 1.134-3.057 2.591-3.873 4.527-1.665 3.947-.435 9.894 3.873 11.822Z"/><path d="M117.723 816.408c-17.896-1.03-89.065.331-92.641 28.854-.772 6.159 4.022 11.515 8.728 15.564 52.692 45.334 141.547 53.486 208.046 60.549 138.768 14.739 275.471 3.651 413.797-9.291 77.72-7.272 155.313-20.092 229.873-43.631 23.681-7.476 130.517-52.781 72.369-84.132-22.597-12.183-63.797-15.518-88.306-7.33-19.324 6.456-37.111 16.788-56.034 24.34-35.686 14.242-74.527 18.281-112.851 21.042-53.644 3.865-112.093 4.158-155.374-27.77-8.672-6.398-26.022-16.635-36.622-14.686-5.693 1.047-12.781 7.786-17.336 11.358-88.269 69.22-184.14 72.927-290.662 56.846-28.715-4.335-57.915-9.985-83.023-24.576"/><path d="M117.723 806.43c-20.633-1.899-42.36-.714-62.579 3.788-11.327 2.522-22.952 6.765-31.75 14.553-4.184 3.704-7.529 8.611-9.237 13.951-3.132 9.789.311 19.15 6.832 26.626 5.443 6.241 12.752 11.303 19.516 15.995 6.352 4.406 13.019 8.35 19.886 11.898 15.198 7.851 31.331 13.991 47.71 18.877 32.362 9.653 65.893 14.536 99.363 18.448 38.427 4.491 76.928 8.094 115.594 9.674 43.462 1.776 86.99 1.459 130.45-.22 43.511-1.681 86.955-4.722 130.343-8.357 42.945-3.598 85.961-7.154 128.693-12.812 42.273-5.597 84.311-12.992 125.701-23.311 26.797-6.681 53.306-14.015 78.568-25.25 19.74-8.779 40.019-19.26 55.775-34.304 6.898-6.586 13.397-15.014 15.144-24.614 2.103-11.555-2.312-22.662-11.127-30.346-11.248-9.805-25.762-15.253-40.197-18.324-16.432-3.496-33.68-4.767-50.392-2.767-18.937 2.266-35.812 9.801-52.95 17.869-17.979 8.464-35.464 15.8-54.974 20.547s-38.592 7.214-58.484 8.984c-18.588 1.654-37.253 2.979-55.918 3.237-8.86.123-17.728-.013-26.574-.545a275 275 0 0 1-12.77-1.057c-1.243-.133-2.485-.28-3.727-.426-.176-.021-2.633-.351-.848-.103-2.46-.341-4.913-.739-7.359-1.169-16.997-2.984-32.586-7.761-46.6-15.529-14.658-8.124-27.042-19.595-43.668-23.969-9.18-2.415-18.239-1.823-26.399 3.318-7.325 4.615-13.49 10.61-20.182 15.505-28.987 21.204-59.294 36.149-93.31 45.382a306 306 0 0 1-24.407 5.548c-8.889 1.647-14.623 2.459-22.736 3.309-17.391 1.822-34.903 2.36-52.38 1.954-17.604-.409-35.178-1.77-52.671-3.758-17.88-2.033-35.929-4.514-54.346-8.385-18.063-3.796-35.569-9.062-51.536-18.206-6.024-3.45-14.063-1.415-17.588 4.612-3.494 5.973-1.431 14.127 4.612 17.588 33.761 19.336 73.192 24.666 111.187 29.48 33.767 4.278 67.954 6.412 101.953 3.952 33.436-2.419 66.651-9.025 97.813-21.561 16.629-6.689 32.688-14.602 47.922-24.06a314 314 0 0 0 22.87-15.66c3.616-2.715 7.202-5.472 10.694-8.343.606-.499 3.828-3.049 2.734-2.241 1.776-1.312 3.71-2.768 5.776-3.593-1.023.409-1.031 1.243.124.224-.266.234-3.221.298-.517.241 2.377-.05.322-.106-.254-.184.775.105 1.557.28 2.32.457 1.633.378 3.241.878 4.818 1.441.821.293 1.653.6 2.457.942-2.151-.913 1.679.855 1.698.864 6.468 3.188 12.283 7.234 18.161 11.365 14.312 10.057 30.828 17.15 47.666 21.736 33.916 9.238 69.799 8.961 104.603 6.718 39.496-2.545 80.026-6.044 117.499-19.611 18.097-6.552 35.415-16.281 52.909-23.273 7.46-2.982 14.892-5.333 22.821-6.637 2.164-.356-2.016.22.201-.035.861-.099 1.723-.195 2.586-.278q2.64-.254 5.289-.397a143 143 0 0 1 12.296-.129c3.938.124 7.87.4 11.787.824 2.795.303 5.462.7 9.982 1.629 3.439.707 6.852 1.546 10.217 2.545q2.414.714 4.789 1.55c.769.271 1.527.576 2.297.843 3.633 1.26-2.212-1.14 1.167.466 2.585 1.229 5.128 2.509 7.561 4.024 1.036.645 2.01 1.472 3.071 2.063-3.106-1.728.16.159 1.101 1.056.712.679 1.327 1.466 2.039 2.139 1.213 1.145-1.525-2.619-.091-.006.313.57 1.907 3.607.742 1.14-1.148-2.432-.038.663.216 1.167.812 1.611-.573-1.615-.202-1.891-.048.035.094.954.084 1.118-.039.63-.326 3.829.1 1.024.43-2.829-.111.174-.268.752-.102.377-.261.747-.343 1.127-.552 2.541 1.138-1.947.461-.945-.942 1.393-1.638 3.056-2.538 4.498-.093.149-.937 1.424-.985 1.4-.097-.048 2.297-2.703.796-1.034-.737.819-1.419 1.686-2.165 2.499a70 70 0 0 1-4.733 4.662 90 90 0 0 1-2.489 2.16c-.714.599-4.449 3.436-1.3 1.102-4.124 3.056-8.341 5.952-12.712 8.645-8.914 5.491-18.236 10.317-27.728 14.725a333 333 0 0 1-6.596 2.975c-.988.433-1.984.847-2.969 1.284-1.579.701 2.596-1.068 1.02-.429-.7.284-1.394.58-2.093.867a252 252 0 0 1-10.318 3.991c-33.935 12.193-69.947 20.167-105.269 27.125-81.056 15.966-163.992 22.144-246.287 28.034-84.061 6.016-168.515 8.784-252.664 2.813-18.662-1.324-37.265-3.205-55.867-5.182a1904 1904 0 0 1-23.228-2.587q-5.463-.647-10.92-1.347-1.72-.221-3.441-.448c.598.079 1.999.277-.711-.096a937 937 0 0 1-6.243-.879c-31.75-4.597-63.643-10.779-93.58-22.61-12.152-4.802-26.878-12.432-38.816-20.982a151 151 0 0 1-2.106-1.536c-.295-.219-2.443-1.879-1.135-.852a112 112 0 0 1-4.011-3.293c-1.458-1.258-3.015-2.564-4.225-4.073.367.458.528.433-.705-1.028l-.681-1.24a.84.84 0 0 1 .293.822c.211.133-.787 2.241-.139.455.139-.382.242-.938.323-1.319.562-2.661-.745.86-.014-.245.485-.732.969-1.556 1.384-2.33.871-1.625-.386.565-.613.783.508-.486.95-1.07 1.45-1.569.696-.694 1.51-1.272 2.199-1.965-2.195 2.21-.182.191.734-.401 2.124-1.375 4.379-2.42 6.626-3.566 1.873-.955-.004-.006-.367.137.563-.222 1.122-.456 1.69-.664 1.164-.426 2.326-.852 3.502-1.242 2.758-.915 5.553-1.657 8.366-2.377 5.679-1.455 11.417-2.582 17.218-3.445q.991-.146 1.984-.286c1.754-.248-1.739.212.016.003 1.308-.156 2.615-.318 3.925-.462q4.255-.465 8.523-.791c7.907-.606 15.849-1.145 23.787-1 5.392.098 9.977-4.656 9.977-9.977 0-5.808-4.589-9.482-9.977-9.977Z"/></svg>