<?xml version="1.0" encoding="UTF-8"?><svg xmlns="http://www.w3.org/2000/svg" data-name="ARTWORK" viewBox="0 0 1000 1000"><path d="M177.719 390.462c14.025 6.099 28.786 10.688 43.238 15.689a2028 2028 0 0 0 41.96 13.982c28.187 9.071 56.445 17.952 84.858 26.291a4452 4452 0 0 0 85.054 24.047c28.56 7.769 57.296 14.95 86.044 21.988 28.639 7.01 57.329 13.822 86.342 19.108 4.466.814 8.824 1.469 13.37 1.468 4.92-.002 10.099-3.596 11.227-8.548 1.071-4.702-.59-10.948-5.351-13.149-2.312-1.069-4.674-2.345-7.092-3.103-1.751-.549-3.555-.959-5.329-1.428q-5.335-1.408-10.667-2.83c-7.114-1.897-14.282-3.563-21.44-5.29-14.319-3.455-28.644-6.875-42.968-10.309q-42.978-10.304-85.743-21.46c-42.765-11.156-57.013-14.892-85.415-22.737s-56.767-15.777-85.049-24.016-56.538-16.494-84.74-24.956c-3.54-1.062-7.049-2.062-10.651-2.89-4.855-1.116-9.749 1.098-11.711 5.748-1.732 4.103-.475 10.423 4.062 12.396Z"/><path d="M610.363 485.456q.366.77.7 1.556l-.995-2.359c1.397 3.396 2.43 7.026 2.92 10.666l-.378-2.815a38.6 38.6 0 0 1-.04 9.777l.393-2.921a44.7 44.7 0 0 1-3.027 11.073l1.137-2.693a37 37 0 0 1-4.564 7.857l1.775-2.298c-2.298 2.958-5.564 5.192-7.479 8.425-2.289 3.865-1.828 8.872.87 12.364 2.636 3.412 7.432 5.321 11.702 3.99 5.797-1.808 9.977-7.04 13.326-11.842 2.509-3.599 4.341-7.73 5.74-11.871s2.009-8.585 2.139-12.929c.129-4.299-.402-8.727-1.437-12.894-1.152-4.638-3.122-9.078-6.038-12.872-1.609-2.095-3.136-3.723-5.794-4.455-2.321-.639-5.411-.351-7.47.977-2.07 1.335-3.892 3.322-4.455 5.794-.607 2.665-.195 5.005.977 7.47Zm-268.219-65.972c-3.834-16.478-7.116-33.047-9.741-49.759-.749-4.769-1.499-9.535-2.144-14.32l.406 3.018a482 482 0 0 1-2.481-22.502 475 475 0 0 1-.825-11.052c-.178-2.82-.395-5.575-.794-8.382-.272-1.911-.726-3.665-1.278-5.512-1.29-4.317-5.545-8.009-10.243-7.799a12.6 12.6 0 0 0-5.361 1.45c-2.128 1.124-4.417 3.954-4.882 6.348-.491 2.528-.972 5.056-1.039 7.639-.05 1.939.105 3.842.259 5.774q.422 5.292.96 10.573c.821 8.054 1.851 16.089 3.028 24.098 2.081 14.156 4.982 28.121 8.561 41.973 2.055 7.952 4.419 15.779 7.057 23.557.805 2.374 2.205 4.446 4.413 5.738 2.058 1.204 5.091 1.715 7.399.968 5.114-1.655 7.927-6.565 6.706-11.812Zm-73.641-69.141.464-6.531-.315 2.343c.735-4.539.57-9.301.712-13.899.119-3.852.189-7.701.249-11.555l.18-11.555c.064-4.128.172-8.226-.78-12.289-1.288-5.496-5.008-10.018-9.802-12.871-3.535-2.104-7.804-3.377-11.707-4.682q-11.065-3.701-22.13-7.405c-29.827-9.98-59.649-19.975-89.484-29.929-16.842-5.619-33.672-11.271-50.531-16.838-3.967-1.31-8.675.175-11.554 3.054-2.989 2.989-4.188 7.473-3.054 11.554 4.881 17.564 10.088 35.038 15.627 52.406s11.352 34.476 17.512 51.546c3.484 9.655 7.092 19.264 10.75 28.855l5.462-13.422C93.822 378.3 67.53 397.458 41.313 416.72l-22.419 16.471c-1.674 1.23-3.27 2.512-4.339 4.339-1.376 2.352-1.794 5.045-1.435 7.712a12.14 12.14 0 0 0 8.664 10.055l94.418 27.184 47.209 13.592c8.607 2.478 17.274 5.47 26.251 6.209 9.47.78 17.693-3.616 25.533-8.295l23.343-13.93c3.895-2.324 7.718-4.747 11.539-7.191 3.94-2.519 7.813-5.303 11.884-7.598 4.251-2.397 6.044-8.57 3.345-12.757-2.771-4.299-8.208-5.909-12.757-3.345-2.33 1.313-4.841 2.386-7.242 3.57l-7.242 3.57c-4.827 2.379-9.582 4.87-14.334 7.397l-14.234 7.569c-4.489 2.387-8.926 4.996-13.603 7.001l2.768-1.168c-2.067.858-4.173 1.52-6.393 1.841l3.125-.42c-2.078.249-4.135.175-6.209-.071l3.161.425c-5.368-.723-10.524-2.611-15.708-4.106l-16.059-4.631-32.118-9.262-64.235-18.524-36.011-10.385 2.889 22.107a29418 29418 0 0 0 78.617-57.888l22.378-16.54 2.405-1.858a8.9 8.9 0 0 0 2.458-3.825c.952-2.257 1.521-5.366.599-7.739-6.6-16.991-12.792-34.147-18.695-51.392a1450 1450 0 0 1-25.214-81.409l-14.608 14.608c22.311 7.367 44.658 14.633 66.998 21.912l67.019 21.836 18.563 6.048 9.402 3.063c2.859.931 5.818 1.64 8.6 2.794l-2.648-1.118c1.105.511 2.239.981 3.372 1.427l-2.641-1.114c.831.393 1.608.835 2.351 1.377l-2.217-1.713a10.3 10.3 0 0 1 1.665 1.64l-1.699-2.199c.475.648.824 1.319 1.177 2.037l-1.087-2.575c.504 1.246.803 2.53 1.002 3.857l-.38-2.826c.426 3.2.489 6.459.677 9.68l.632 10.802c.206 3.521.445 7.033.705 10.551.307 4.156.271 8.565 1.116 12.643l-.315-2.343.745 6.531c.256 2.247.746 4.147 2.405 5.806 1.424 1.424 3.76 2.496 5.806 2.405 4.709-.211 7.884-3.611 8.21-8.21Zm6.271 166.291c6.12-4.651 12.188-9.364 18.27-14.064l-1.971 1.523c6.376-4.924 12.715-9.894 19.088-14.82l-2.042 1.578a1049 1049 0 0 1 40.974-30.129c1.902-1.328 3.81-2.647 5.698-3.994 3.121-2.227 7.103-4.455 8.666-8.124a10.4 10.4 0 0 0 1.425-5.268 10.4 10.4 0 0 0-1.425-5.268c-1.747-2.986-5.427-5.447-9.012-5.169-1.214.094-2.572.144-3.688.451-1.21.333-2.369.929-3.449 1.569-.69.409-1.34.87-1.985 1.345-1.42 1.048-2.845 2.09-4.245 3.165a1810 1810 0 0 0-10.199 7.884c-5.547 4.321-11.034 8.718-16.573 13.049-11.024 8.619-22.041 17.299-32.669 26.405-6.012 5.151-11.961 10.353-17.768 15.734-3.292 3.05-3.334 8.412-.704 11.816 1.149 1.487 2.79 2.796 4.675 3.225 2.195.5 5.054.522 6.934-.907Z"/><path d="m160.493 270.197 38.132 107.347c.879 2.474 1.754 5.236.72 7.649-.592 1.383-1.737 2.44-2.85 3.453l-76.334 69.503c-2.224 2.025-4.586 4.125-7.517 4.801-2.707.625-5.525-.054-8.219-.73l-59.191-14.855a793 793 0 0 0 83.719-61.071c2.089-1.744 4.224-3.566 5.462-5.99 1.284-2.514 1.477-5.436 1.447-8.259-.127-11.735-3.669-23.134-7.24-34.314a3190 3190 0 0 0-24.778-74.422 506 506 0 0 1 56.146 9.726"/><path d="M151.95 272.552a7026 7026 0 0 1 14.457 44.089c4.721 14.564 9.93 28.974 14.971 43.43 1.425 4.086 2.868 8.163 4.179 12.288l1.964 6.179c.605 1.904 1.276 3.797 1.552 5.784l-.394-2.931c.071.72.073 1.429-.006 2.148l.397-2.951a8.6 8.6 0 0 1-.33 1.232l1.125-2.666a7.7 7.7 0 0 1-.817 1.431l1.757-2.274c-.998 1.235-2.283 2.237-3.462 3.294l-4.086 3.663-8.173 7.327a3259 3259 0 0 0-16.112 14.535l-32.301 29.345-8.86 8.049c-2.876 2.612-5.664 5.403-8.738 7.783l2.364-1.827c-.989.737-2.015 1.38-3.146 1.876l2.792-1.178c-.802.316-1.598.53-2.452.66l3.107-.418c-1.082.113-2.128.082-3.208-.043l3.108.418c-4.061-.574-8.069-1.857-12.041-2.859l-12.508-3.154-24.535-6.186-14.192-3.578 2.81 21.504a611 611 0 0 0 49.004-34.49l-2.263 1.748c5.266-3.947 10.34-8.176 15.411-12.369 4.473-3.699 8.975-7.355 13.466-11.031a783 783 0 0 0 6.533-5.406c2.053-1.718 4.222-3.378 6.113-5.276 2.857-2.867 5.05-6.441 6.073-10.376.854-3.284 1.031-6.793.988-10.178-.084-6.596-1.37-13.315-2.946-19.709-1.412-5.73-3.211-11.356-5-16.977a3194 3194 0 0 0-24.218-73.043l-10.49 13.771q4.356.513 8.704 1.096l-2.895-.389c15.94 2.156 31.735 5.16 47.403 8.786 2.862.663 5.934.393 8.507-1.113 2.29-1.34 4.474-3.966 5.074-6.598.644-2.826.504-5.998-1.113-8.507-1.523-2.362-3.781-4.422-6.598-5.074-19.463-4.505-39.24-7.684-59.081-9.959-3.298-.378-6.645 1.83-8.543 4.287-1.996 2.584-3.071 6.256-1.947 9.483 9.092 26.114 17.986 52.321 26.262 78.707 2.256 7.191 4.304 14.469 5.318 21.952l-.383-2.851c.535 4.14 1.053 8.537.505 12.699l.375-2.793a14.6 14.6 0 0 1-.877 3.24l1.05-2.488a13.2 13.2 0 0 1-1.455 2.449l1.618-2.094c-2.799 3.561-6.781 6.26-10.281 9.089-3.791 3.064-7.62 6.078-11.455 9.087l2.103-1.625c-8.583 6.038-17.065 12.224-25.65 18.261s-17.325 11.928-26.161 17.63c-5.017 3.237-9.99 6.54-15.029 9.743-4.03 2.562-6.259 6.943-5.617 11.723.603 4.488 3.891 8.648 8.427 9.781 19.886 4.967 39.753 10.019 59.66 14.901 3.148.772 6.496 1.496 9.745 1.214 3.944-.342 7.767-1.387 11.054-3.682 4.639-3.238 8.685-7.32 12.854-11.124l22.839-20.841a9282 9282 0 0 0 45.545-41.816c2.867-2.652 5.151-5.649 6.391-9.402.417-1.263.517-2.69.638-3.999a9 9 0 0 0 .019-1.703c-.179-2.008-.453-4.025-1.103-5.939-1.639-4.827-3.799-9.478-5.537-14.271-3.522-9.712-7.029-19.429-10.543-29.143-7.01-19.377-14.572-38.542-21.88-57.808l-2.751-7.254c-.839-2.213-1.964-4.062-4.072-5.295-1.899-1.111-4.698-1.582-6.827-.893-4.376 1.416-7.749 6.188-6.188 10.899Zm333.977 88.788c20.871-69.738 51.419-139.074 99.091-194.836 21.969-25.697 46.992-49.344 76.709-65.457 14.467-7.845 29.021-13.575 45.666-17.062 8.15-1.707 13.902-2.397 22.716-2.47 3.856-.032 7.712.126 11.552.475.994.09 1.985.201 2.977.308.383.041 2.388.361.295.035 1.941.302 3.877.629 5.802 1.018a116 116 0 0 1 21.015 6.386c-2.052-.842.253.123.753.348a120 120 0 0 1 6.684 3.253 129 129 0 0 1 9.87 5.759c2.89 1.86 5.703 3.838 8.444 5.911-1.738-1.315.247.204.665.54q1.12.9 2.222 1.821a157 157 0 0 1 4.344 3.778c5.454 4.91 10.546 10.22 15.271 15.835 4.177 4.964 7.492 9.466 11.864 16.323a191 191 0 0 1 10.825 19.404q1.144 2.362 2.223 4.755c.399.885.788 1.774 1.179 2.662.152.346.902 2.194.111.255a206 206 0 0 1 4.092 10.82c2.455 7.124 4.379 14.384 6.151 21.703 16.132 66.643 21.837 133.809 19.738 203.124-2.143 70.739-12.428 139.015-32.52 207.33-17.658 60.039-42.303 115.287-75.235 168.997-7.605 12.404-15.685 24.527-24.419 36.167q-.69.921-1.386 1.836c.12-.158-2.177 2.829-1.13 1.48s-1.273 1.615-1.151 1.46q-.711.9-1.428 1.797a331 331 0 0 1-7.303 8.817 289 289 0 0 1-14.628 15.85c-5.007 5.022-10.217 9.844-15.649 14.403a213 213 0 0 1-6.03 4.88c.393-.305 1.804-1.341-.113.071-2.951 2.172-5.909 4.326-8.958 6.36-5.743 3.831-11.703 7.341-17.867 10.452a153 153 0 0 1-8.859 4.131c2.289-.977-1.291.498-2.062.795a145 145 0 0 1-6.148 2.218 141.5 141.5 0 0 1-19.705 5.08c-1.651.3-3.307.563-4.967.813 2.535-.38.038-.01-.601.065a140 140 0 0 1-13.729.922c-7.156.135-14.274-.28-21.388-1.027-.672-.071-3.121-.426-.461-.041q-1.068-.153-2.133-.318a149 149 0 0 1-4.739-.822 144 144 0 0 1-10.236-2.335 139 139 0 0 1-17.871-6.081c2.823 1.182-1.792-.837-2.522-1.18a144 144 0 0 1-12.291-6.517 147 147 0 0 1-7.909-5.049 152 152 0 0 1-3.627-2.559c-.531-.387-1.054-.786-1.587-1.171-2.325-1.681 1.447 1.192-.604-.453-4.892-3.923-9.595-8.047-14.044-12.468a184 184 0 0 1-12.721-14.049c-.501-.613-3.593-4.542-1.798-2.207a196 196 0 0 1-2.428-3.227 216 216 0 0 1-5.824-8.306c-7.245-10.861-13.536-22.347-19.011-34.195q-.984-2.129-1.932-4.274c-.291-.658-2.096-4.864-1.017-2.297a302 302 0 0 1-3.883-9.717 332 332 0 0 1-6.508-18.818c-3.935-12.571-7.158-25.364-9.719-38.284a386 386 0 0 1-3.842-23.014c.453 3.319-.234-1.95-.314-2.614q-.557-4.635-1-9.283c-1.826-19.163-2.56-38.44-2.427-57.687.272-39.517 4.671-77.892 11.462-116.445 1.724-9.787 3.49-19.47 4.699-29.338 1.129-9.217 2.426-18.806 4.901-27.763 3.009-10.893-13.902-15.541-16.908-4.661-2.749 9.95-6.611 19.701-9.959 29.452-3.23 9.407-5.384 19.031-7.254 28.798-3.959 20.678-6.793 41.634-8.82 62.586-3.817 39.456-4.369 79.498-.205 118.953 5.737 54.354 21.405 110.19 53.072 155.383 15.681 22.379 35.271 42.199 59.18 55.748 25.252 14.31 54.444 21.067 83.411 20.154 30.309-.955 59.596-11.078 84.744-27.876 25.64-17.126 46.724-39.621 65.271-64.063 17.816-23.478 32.928-48.908 46.746-74.903 15.533-29.222 29.367-59.241 40.865-90.289 25.259-68.207 40.02-140.203 46.342-212.584 6.338-72.561 3.679-146.045-9.11-217.788-5.761-32.319-12.698-64.686-28.273-93.88-14.811-27.763-36.576-52.774-64.013-68.595-29.585-17.06-63.786-21.311-96.955-13.859-18.336 4.12-33.919 10.901-50.168 20.48-15.808 9.319-30.62 20.403-44.318 32.6-56.808 50.583-94.316 118.498-118.584 189.827a886 886 0 0 0-16.229 53.155c-2.73 10.051 12.59 14.234 15.566 4.291Z"/><path d="M614.576 512.991a2549 2549 0 0 0-173.36 32.247c4.378-10.667 8.812-21.561 9.617-33.063.666-9.51-.722-20.433 5.927-27.265 6.756-6.942 18.033-5.694 27.552-3.897 39.415 7.438 78.783 15.523 118.69 19.562"/><path d="M614.576 503.76c-8.954.7-17.872 2.083-26.772 3.277a2822 2822 0 0 0-29.121 4.053l2.88-.387c-8.774 1.153-17.5 2.803-26.217 4.319a2555 2555 0 0 0-70.723 13.325c-8.854 1.798-17.706 3.612-26.524 5.58l14.429 14.429c3.388-8.285 6.803-16.649 8.547-25.464.97-4.9 1.492-9.874 1.633-14.863.104-3.687.124-7.382.587-11.047l-.417 3.102c.326-2.406.855-4.764 1.792-7.01l-1.176 2.786a18.4 18.4 0 0 1 2.137-3.686l-1.823 2.359a17 17 0 0 1 2.787-2.811l-2.358 1.822a17.7 17.7 0 0 1 3.579-2.106l-2.782 1.174c1.848-.776 3.777-1.253 5.76-1.528l-3.094.416c3.826-.481 7.68-.232 11.489.276l-3.088-.415c7.626 1.055 15.19 2.731 22.752 4.159a4376 4376 0 0 0 24.637 4.603c16.267 2.977 32.569 5.781 48.947 8.081 10.166 1.428 20.351 2.717 30.566 3.735 2.728.272 6.171-1.464 8.036-3.329 1.971-1.971 3.455-5.205 3.329-8.036-.132-2.939-1.097-5.988-3.329-8.036l-2.3-1.777a11.3 11.3 0 0 0-5.736-1.552 671 671 0 0 1-19.992-2.386l3.032.407c-23.85-3.213-47.521-7.583-71.149-12.117-11.989-2.301-23.97-5.03-36.078-6.619-5.471-.718-10.893-.669-16.318.504-6.407 1.386-12.104 5.075-16.086 10.229-4.57 5.916-6.111 12.868-6.716 20.185-.454 5.488-.209 11.002-.938 16.471l.418-3.108c-1.444 10.233-5.36 19.85-9.269 29.344a11.8 11.8 0 0 0 0 6.236 11.7 11.7 0 0 0 3.017 5.176c3.074 3.074 7.264 3.932 11.412 3.017 22.443-4.953 44.868-9.952 67.399-14.496 22.354-4.508 44.791-8.578 67.178-12.91q9.528-1.844 19.071-3.614c9.543-1.77 12.741-2.22 19.048-3.636 4.481-1.007 7.193-5.809 6.612-10.128-.569-4.232-4.475-8.363-9.066-8.004Zm-32.228 420.503c8.967 3.134 17.977 6.583 27.192 8.869 8.882 2.203 17.82 4.166 26.856 5.62 19.034 3.063 38.248 4.915 57.541 4.522 37.49-.763 75.769-9.703 107.129-30.981 17.041-11.562 31.264-25.94 44.326-41.764 14.207-17.212 27.057-35.519 38.559-54.64 22.571-37.522 40.301-77.815 55.498-118.82 32.705-88.246 47.524-181.877 47.805-275.857.134-44.859-2.807-89.805-8.925-134.248-5.185-37.668-13.687-74.863-29.182-109.715-15.883-35.726-41.354-65.464-74.763-85.98-14.328-8.799-30.167-15.303-46.442-19.476-16.111-4.131-32.62-6.487-48.998-9.269-9.445-1.604-18.908-3.061-28.322-4.85-6.558-1.246-14.128 1.827-15.749 8.942-1.486 6.524 1.961 14.146 8.942 15.749 32.435 7.447 66.623 9.575 97.851 21.66.656.254 1.306.523 1.962.775 3.324 1.277-2.495-1.151.779.319 1.646.739 3.293 1.473 4.92 2.255a153 153 0 0 1 11.907 6.393 169 169 0 0 1 10.123 6.532c1.743 1.213 3.448 2.473 5.162 3.726 3.434 2.512-1.819-1.492 1.586 1.208q1.875 1.484 3.72 3.005c6.993 5.772 13.626 11.923 19.581 18.772a157 157 0 0 1 4.577 5.528c-.332-.42-1.248-1.682.233.307.72.966 1.439 1.932 2.143 2.909a180 180 0 0 1 7.375 11.105c18.888 30.797 28.443 65.629 35.048 102.201a562 562 0 0 1 2.076 12.29 597 597 0 0 1 1.454 9.729q.17 1.206.337 2.413.276 2.021.107.772c-.232-1.727.284 2.187.254 1.959a724 724 0 0 1 1.158 9.458 926 926 0 0 1 1.541 14.304c2.281 22.748 3.817 45.573 4.545 68.424 2.89 90.752-6.877 181.291-34.5 267.954-12.916 40.52-28.354 79.055-47.817 116.642-9.821 18.966-20.697 37.4-32.866 54.959-11.448 16.519-23.596 32.547-38.681 46.494a173 173 0 0 1-9.688 8.297c-3.204 2.553 1.872-1.31-1.421 1.075-.672.487-1.336.984-2.009 1.468a160 160 0 0 1-6.633 4.52 176 176 0 0 1-22.874 12.501c-1.094.495-2.192.984-3.299 1.451 2.552-1.078-1.11.425-1.333.513a175 175 0 0 1-5.605 2.101 183 183 0 0 1-12.553 3.954c-8.485 2.346-17.153 4.099-25.855 5.416-.298.045-4.258.583-1.34.208q-1.203.155-2.407.298-3.621.429-7.253.745c-4.461.389-8.933.655-13.408.806-9.041.307-18.077.1-27.108-.37a319 319 0 0 1-12.383-.902 354 354 0 0 1-9.905-1.048c-.419-.05-5.006-.634-2.982-.363-8.317-1.113-16.88-2.351-26.627-4.153-8.645-1.598-17.155-2.539-26.477-4.426-11.61-2.35-16.069 13.804-4.883 17.713Z"/><path d="M814.498 98.027c35.406 30.076 57.041 73.81 68.405 118.855 11.364 45.044 13.307 91.854 15.195 138.271 3.526 86.712 6.803 175.451-19.081 258.286-10.681 34.181-26.136 66.644-41.538 98.973-38.063 79.892-80.552 164.667-157.656 208.102 45.949.185 89.501-23.382 122.441-55.419s56.743-72.119 79.344-112.126c40.565-71.806 79.752-151.18 68.905-232.936-2.752-20.744 7.136-23.297 10.609-43.933 2.148-12.761-8.05-42.963-4.583-55.43 8.452-30.399 3.545-62.713-1.415-93.872-7.422-46.621-15.033-93.886-34.493-136.897s-52.553-81.993-96.98-97.954"/><path d="M808.954 103.57c42.085 38.028 62.49 93.653 71.051 148.464 4.914 31.461 6.295 63.426 7.562 95.203 1.273 31.914 2.566 63.843 2.548 95.788-.035 63.253-5.779 126.508-28.023 186.182-10.843 29.088-24.691 56.955-38.111 84.912-11.472 23.899-23.219 47.69-36.297 70.76-12.673 22.357-27.306 45.156-42.773 64.016-8.104 9.882-16.761 19.321-26.046 28.106-9.735 9.21-18.235 16.172-28.816 23.352a233 233 0 0 1-16.163 10.007c-10.209 5.775-5.627 21.912 5.935 21.913 33.688.001 66.462-11.533 94.509-29.82 29.769-19.409 53.821-45.601 74.416-74.332 20.609-28.751 38.025-59.875 54.915-90.912 17.506-32.169 33.685-65.358 45.1-100.228 11.185-34.168 17.566-70.614 14.617-106.619-.342-4.173-.95-8.312-1.346-12.477-.181-1.906-.275-3.82-.216-5.735.023-.75.09-1.493.134-2.242-.117 2.021.005-.022.202-.919a34 34 0 0 1 1.014-3.621c.194-.576.422-1.137.623-1.709.967-2.754-.795 1.516.044-.108 1.698-3.286 3.135-6.801 4.54-10.216 2.708-6.581 4.695-13.745 4.829-20.902.122-6.539-1.115-13.174-2.176-19.597-.516-3.122-1.072-6.237-1.602-9.357a358 358 0 0 1-.81-4.941c-.112-.719-.216-1.439-.325-2.158-.534-3.503.202 2.367-.132-1.064-.264-2.709-.55-5.405-.538-8.132.004-1.066-.173-2.658.194-3.695-.072.202-.77 2.761-.057.978.446-1.115.67-2.504.958-3.656 4.636-18.557 4.962-37.928 3.261-56.887s-5.006-37.971-8.081-56.84c-2.946-18.078-6.117-36.133-10.219-53.989-14.624-63.66-44.766-129.8-104.548-162.682-7.14-3.927-14.641-7.216-22.293-10.007-6.073-2.215-13.108 2.486-14.722 8.359-1.831 6.665 2.264 12.499 8.359 14.722 1.778.649 3.549 1.314 5.3 2.033 1.932.793-1.29-.58.615.269a139 139 0 0 1 12.853 6.5 145 145 0 0 1 8.504 5.269q2.081 1.39 4.116 2.849c.848.608 1.686 1.23 2.525 1.851q.966.735.072.032l.986.775a172 172 0 0 1 16.749 15.242 185 185 0 0 1 6.827 7.483 196 196 0 0 1 3.269 3.886c.671.819 1.332 1.647 1.993 2.475.629.788-.16-.248.863 1.105 19.339 25.587 31.785 54.807 40.383 85.512 9.61 34.319 15.111 69.824 20.333 105.032 2.557 17.238 4.325 35.038 3.001 52.607-.586 7.775-2.581 15.028-4.072 22.834-1.158 6.061-.748 12.078.034 18.151.913 7.093 2.197 14.116 3.378 21.167.268 1.599.507 3.203.768 4.803.08.487.316 2.35.009-.056q.127.988.238 1.979c.293 2.658.342 5.271.404 7.936.079 3.403.599-2.101-.113 1.19-.422 1.952-.832 3.889-1.392 5.809-.433 1.485-.939 2.937-1.466 4.391-.2.552-1.13 2.763-.194.585-.323.752-.664 1.496-1.004 2.24-2.545 5.581-5.354 11.147-6.355 17.254-1.393 8.504-.024 16.449.708 24.933.737 8.545.949 17.131.68 25.703-.533 16.956-2.873 32.495-6.818 49.062-8.011 33.643-21.558 65.541-37.099 96.317-15.611 30.915-32.604 61.439-51.141 90.701-17.804 28.104-37.921 54.733-63.524 76.308-23.008 19.388-50.875 34.151-81.154 39.397-3.716.644-4.693.778-8.823 1.134-4.026.347-8.061.5-12.101.508l5.935 21.913c47.471-26.99 83.006-69.652 111.125-115.719 14.169-23.214 26.64-47.417 38.551-71.852 13.689-28.083 27.186-56.321 39.035-85.238 12.452-30.387 21.844-61.69 27.378-94.08 5.502-32.203 8.11-64.777 8.781-97.423.666-32.426-.405-64.855-1.729-97.251-1.354-33.143-2.384-66.402-6.485-99.347-7.361-59.129-24.634-119.477-67.061-163.344-4.8-4.963-9.95-9.58-15.311-13.93-3.285-2.665-7.874-3.212-11.087 0-2.883 2.883-3.153 8.237 0 11.087Z"/><path d="M552.975 430.383c12.764-49.793 30.48-96.567 55.052-141.357 9.014-16.431 18.6-32.698 28.964-48.32a324 324 0 0 1 7.779-11.231c.636-.876 1.288-1.741 1.924-2.618 1.15-1.586-.02-.02-.222.251.71-.951 1.461-1.898 2.184-2.848l.986-1.294c-1.51 1.974-.339.441.05-.046.76-.952 1.516-1.907 2.287-2.851 5.717-7.003 11.89-13.671 18.733-19.592q1.173-1.015 2.373-1.999c.398-.326.801-.644 1.2-.969 1.525-1.243-.232.121-.422.314 1.517-1.546 3.752-2.752 5.562-3.937 3.517-2.301 7.191-4.273 11-6.043 1.938-.901-.651.302-.658.27-.005-.023 1.178-.467 1.348-.532a63 63 0 0 1 2.723-.97 60 60 0 0 1 6.258-1.706c.943-.202 1.892-.357 2.84-.535 1.979-.371-.643.168-.835.095.225.086 1.131-.128 1.445-.158a55.3 55.3 0 0 1 9.611-.086c.505.039 1.008.097 1.512.138 2.207.179-.7-.13-.724-.112.899-.661 5.739 1.11 6.825 1.397a61 61 0 0 1 5.725 1.817c.462.172.919.357 1.38.533 2.005.766-.697-.22-.691-.293-.01.121 2.978 1.417 3.281 1.573a62 62 0 0 1 7.374 4.489c.486.344.953.728 1.449 1.056 1.171.775-1.911-1.58-.343-.253 3.13 2.649 6.098 5.413 8.816 8.491a83 83 0 0 1 1.89 2.22c.31.377.612.76.92 1.139 1.351 1.665-.496-.553-.462-.6-.146.206 3.475 4.932 3.817 5.459 2.33 3.587 4.433 7.319 6.343 11.145a134 134 0 0 1 2.613 5.553c.034.077.655 1.213.618 1.414.146-.796-.871-2.099-.288-.662.486 1.197.981 2.39 1.449 3.595a177 177 0 0 1 4.315 12.517c2.542 8.339 4.532 16.842 6.108 25.414.751 4.086 1.391 8.189 1.974 12.302.285 2.008-.123-.84-.137-1.019.036.462.121.933.179 1.394q.174 1.377.334 2.756c.255 2.185.482 4.373.695 6.562 5.226 53.878 3.953 108.256-2.972 161.92-.314 2.434-.12.916-.048.39q-.16 1.182-.326 2.363-.33 2.362-.674 4.723a767 767 0 0 1-5.103 30.594 782 782 0 0 1-8.517 39.674 833 833 0 0 1-20.638 71.301c-3.78 11.16-7.833 22.229-12.219 33.165a644 644 0 0 1-3.154 7.703c-.893 2.145-.17.402.011-.022q-.407.957-.817 1.913a528 528 0 0 1-2.075 4.769 500 500 0 0 1-7.408 16.04c-10.217 21.123-22.01 41.519-35.755 60.55a339 339 0 0 1-6.178 8.285c1.416-1.833.288-.378 0-.014-1.071 1.351-2.139 2.703-3.224 4.042-3.695 4.56-7.517 9.017-11.461 13.363s-7.998 8.599-12.218 12.675a151 151 0 0 1-6.069 5.566c-1.039.899-2.101 1.768-3.158 2.646-1.763 1.464-.327.283.042.001a98 98 0 0 1-2.474 1.83 84 84 0 0 1-6.845 4.435 72 72 0 0 1-3.563 1.935q-.901.457-1.818.887c-.424.198-3.421 1.249-.796.371-2.574.861-5.072 1.805-7.722 2.43a60 60 0 0 1-3.391.695c-.091.016-1.417.116-1.576.257q2.721-.347 1.299-.179-.576.069-1.154.123a54 54 0 0 1-5.987.24 51 51 0 0 1-2.89-.129c-.474-.035-.946-.091-1.42-.125-2.59-.183 2.983.543.454.07-1.81-.339-3.606-.685-5.381-1.183a49 49 0 0 1-2.593-.807c-1.13-.386-4.136-2.104-.856-.235-3.348-1.908-6.767-3.412-9.932-5.673-.339-.242-.738-.627-1.098-.803.147.072 2.375 1.916.851.655-.706-.584-1.417-1.159-2.108-1.76a74 74 0 0 1-4.538-4.305 85 85 0 0 1-3.8-4.19c-.618-.728-1.213-1.474-1.82-2.21-1.279-1.553.475.589.579.767-.347-.596-.894-1.184-1.302-1.741-2.464-3.366-4.732-6.874-6.845-10.47a164 164 0 0 1-5.991-11.213 198 198 0 0 1-2.542-5.424q-.613-1.36-1.208-2.729c-.19-.436-.361-.942-.589-1.367 1.626 3.027.408.967.085.185-3.058-7.418-5.752-14.982-8.227-22.613-3.582-11.044-6.666-22.237-9.106-33.59a327 327 0 0 1-4.216-23.926c.072.513.287 2.271-.02-.187q-.145-1.148-.284-2.295a331 331 0 0 1-2.211-49.607 354 354 0 0 1 1.148-19.62 326 326 0 0 1 1.484-13.8c.311-2.448.1-.722.027-.209.163-1.147.326-2.293.498-3.439 1.892-12.613 4.5-25.135 7.864-37.439 1.656-6.057-2.057-13.336-8.391-14.779s-13.005 1.904-14.779 8.391c-14.779 54.058-16.388 110.933-4.211 165.673 4.484 20.155 10.877 39.903 18.947 58.904 7 16.482 16.007 32.768 28.876 45.433 13.466 13.252 31.613 21.58 50.766 20.013 12.646-1.035 24.605-5.144 35.257-12.065 10.679-6.939 19.968-15.781 28.65-25.036 34.47-36.748 59.226-80.955 78.193-127.356 19.503-47.711 33.432-98.015 42.697-148.68 10.168-55.602 14.649-112.322 12.146-168.816-1.812-40.902-5.352-84.566-25.29-121.248-8.731-16.064-21.56-31.061-38.33-39.018-18.496-8.777-39.245-9.767-58.185-1.774-17.745 7.489-32.296 20.878-44.39 35.626s-22.22 30.852-31.742 47.321c-25.357 43.857-46.982 89.561-60.9 138.404-3.516 12.338-6.212 24.848-8.502 37.469-.8 4.408 1.204 8.951 5.799 10.214 4.278 1.175 9.096-1.438 10.214-5.799Z"/><path d="M626.631 441.175c4.291-15.483 9.713-30.694 15.945-45.501l-.945 2.24c3.601-8.515 7.598-16.818 11.725-25.086 3.753-7.52 7.536-15.354 12.686-22.039l-1.597 2.067c1.715-2.179 3.607-4.183 5.801-5.887l-2.08 1.607a23.4 23.4 0 0 1 4.669-2.739l-2.464 1.04a20.3 20.3 0 0 1 4.757-1.317l-2.752.37a21.3 21.3 0 0 1 5.234.011l-2.763-.371c2.056.308 4.021.885 5.935 1.691l-2.5-1.055a29.6 29.6 0 0 1 5.838 3.448l-2.134-1.649a32.3 32.3 0 0 1 5.521 5.476l-1.663-2.152c1.802 2.351 3.214 4.921 4.379 7.64l-1.082-2.565c1.964 4.748 3.009 9.726 3.706 14.8l-.389-2.898c.845 6.441 1.043 12.951 1.222 19.438a518 518 0 0 1-1.837 60.271 516 516 0 0 1-2.548 22.763l.394-2.931c-4.469 32.995-12.166 65.556-23.257 96.959a474 474 0 0 1-10.074 25.999l1.127-2.67a453 453 0 0 1-9.538 21.098c-2.766 5.717-5.79 11.335-9.642 16.403l1.748-2.263c-2.181 2.822-4.607 5.426-7.405 7.646l2.263-1.748c-2.077 1.604-4.303 2.949-6.718 3.98l2.67-1.127a27 27 0 0 1-6.569 1.771l2.972-.399c-2.323.275-4.63.25-6.95-.043l2.972.399c-2.803-.4-5.503-1.173-8.115-2.262l2.67 1.127a38.3 38.3 0 0 1-8.173-4.837l2.263 1.748c-2.704-2.138-5.079-4.575-7.195-7.295l1.741 2.254c-2.905-3.819-5.209-8.011-7.088-12.42l1.116 2.644c-3.82-9.145-5.954-18.981-7.304-28.771l.39 2.905c-1.757-13.107-1.739-26.366-.009-39.475l-.386 2.876c1.726-12.721 5.034-25.205 9.957-37.066.994-2.394.159-6.167-1.085-8.293-1.306-2.232-3.866-4.361-6.432-4.946-2.755-.627-5.847-.492-8.293 1.085l-2.178 1.683a10.76 10.76 0 0 0-2.768 4.749c-8.579 20.669-12.49 43.342-11.749 65.695.38 11.462 1.927 23.045 4.81 34.152 2.944 11.343 7.735 22.162 15.461 31.066s18.856 14.383 30.549 15.47c11.394 1.059 22.533-4.228 30.427-12.186 6.992-7.049 11.832-15.873 16.082-24.747 5.075-10.596 9.74-21.397 14.031-32.334 7.979-20.335 14.502-41.237 19.593-62.479 5.305-22.136 9.021-44.646 11.386-67.283a516 516 0 0 0 2.633-65.819c-.265-11.209-.385-22.848-3.394-33.722-3.153-11.393-9.84-21.884-20.337-27.77-10.333-5.794-23.719-6.474-33.558.818-4.923 3.648-8.751 8-12.085 13.15-2.747 4.243-5.039 8.788-7.319 13.292-10.292 20.332-18.216 42.023-23.427 64.204a335 335 0 0 0-3.363 16.114c-.707 3.853 1.055 8.289 5.249 9.244 3.977.906 8.12-1.194 9.244-5.249Z"/></svg>