<?xml version="1.0" encoding="UTF-8"?><svg xmlns="http://www.w3.org/2000/svg" data-name="ARTWORK" viewBox="0 0 1000 1000"><path d="M560.858 36.626c-45.374 11.415-90.84 22.379-135.669 35.82-44.798 13.432-89.1 28.362-132.987 44.522-44.188 16.27-87.839 33.94-131.02 52.717-20.384 8.864-41.069 17.491-60.816 27.719-18.531 9.599-36.005 22.281-46.948 40.43-22.389 37.131-14.057 83.707-8.966 124.261A4836 4836 0 0 0 65.03 508.149c14.934 95.336 33.816 189.843 54.995 283.975 4.56 20.267 8.388 41.036 15.074 60.744 5.747 16.94 12.499 33.375 24.228 47.129 12.549 14.714 30.338 22.728 49.583 23.418 11.905.427 23.752-2.021 35.297-4.648 12.132-2.761 24.245-5.612 36.352-8.481 93.173-22.083 185.575-47.436 277.21-75.201a5360 5360 0 0 0 205.277-66.739c17.881-6.216 36.123-12.811 52.074-23.194 17.1-11.131 30.863-26.565 36.905-46.345 6.617-21.66 3.13-44.999-2.109-66.542-5.555-22.842-12.053-45.468-17.861-68.249a3989 3989 0 0 1-17.24-70.273c-22.004-93.341-40.651-187.487-55.986-282.153-3.794-23.421-7.213-46.894-10.786-70.348-3.143-20.639-7.257-41.011-15.669-60.222-7.69-17.562-19.435-32.95-35.101-44.084-14.223-10.109-31.271-15.072-48.476-16.751-19.026-1.857-37.395 1.529-55.804 5.993-5.969 1.447-9.532 8.197-7.941 13.986 1.673 6.087 7.999 9.393 13.986 7.941 9.766-2.368 17.491-3.179 27.248-3.923 4.247-.324 8.509-.476 12.768-.408q3.072.047 6.139.248 1.206.08 2.409.184c.486.042 4.148.439 3.13.307-1.704-.22 2.08.329 1.88.295a99 99 0 0 1 7.878 1.644c3.967 1.005 7.893 2.259 11.671 3.837-2.083-.87.141.084.644.332.819.405 1.65.786 2.464 1.201a79 79 0 0 1 9.376 5.632c.6.42 1.191.852 1.782 1.286-1.949-1.431 1.543 1.278 1.875 1.562a82.5 82.5 0 0 1 8.029 7.915q.765.865 1.507 1.747c-.176-.209 2.216 2.751 1.251 1.511-1.049-1.347 1.688 2.329 1.329 1.825a99 99 0 0 1 2.42 3.56c5.436 8.379 9.042 16.386 12.037 25.482 6.237 18.941 8.987 38.8 11.825 58.469a3929 3929 0 0 0 49.993 276.4 3999 3999 0 0 0 32.128 135.856c5.66 22.194 12.195 44.235 17.254 66.572 2.333 10.301 3.914 19.009 4.144 29.319.213 9.552-.858 18.797-4.444 26.879-1.636 3.687-3.766 7.141-6.079 10.434-1.333 1.898 1.929-2.201-.575.77-.658.781-1.314 1.562-1.995 2.322a76 76 0 0 1-4.726 4.813c-1.507 1.405-3.084 2.721-4.666 4.039-3.081 2.568 2.026-1.339-1.27.977-.682.48-1.353.975-2.038 1.451-3.815 2.651-7.809 5.043-11.902 7.239a174 174 0 0 1-11.582 5.643c-2.495 1.109-5.691 2.418-10.043 4.076-9.682 3.689-19.514 6.989-29.308 10.367a5357 5357 0 0 1-132.341 43.731 5549 5549 0 0 1-269.442 77.746c-22.473 5.872-44.931 11.799-67.444 17.517-11.504 2.922-23.014 5.828-34.543 8.65-10.264 2.513-20.68 5.034-31.315 4.719-4.218-.125-8.151-.914-12.143-2.298-.063-.022-3.479-1.4-1.473-.516a52 52 0 0 1-7.683-4.273c-.072-.049-2.97-2.148-1.234-.81a42 42 0 0 1-1.685-1.391 61 61 0 0 1-3.997-3.758c-1.294-1.328-2.486-2.729-3.702-4.126-2.327-2.675.607.874-.655-.803a76 76 0 0 1-2.293-3.237c-2.154-3.199-4.094-6.54-5.863-9.966a121 121 0 0 1-2.33-4.773q-.626-1.35-1.22-2.712c.667 1.537-.589-1.434-.705-1.725-3.132-7.856-5.526-15.94-7.571-24.141-10.884-43.651-19.301-88.101-27.66-132.292-8.811-46.581-17.296-93.232-25.015-140.007-7.623-46.196-14.922-92.429-21.359-138.807a4460 4460 0 0 1-8.859-67.703c-2.515-20.398-5.454-40.938-4.933-61.543.112-4.441.435-8.855.894-13.273.464-4.466-.508 2.553.261-1.851.158-.904.3-1.81.467-2.713a103 103 0 0 1 1.802-8.002 91 91 0 0 1 1.999-6.488 85 85 0 0 1 1.184-3.173c.932-2.355-1.398 2.771.489-1.09 2.212-4.524 4.645-8.907 7.652-12.96-.361.487-1.333 1.554.439-.536a103 103 0 0 1 2.277-2.622c1.552-1.711 3.178-3.349 4.868-4.922s3.441-3.083 5.247-4.523c2.029-1.617-2.517 1.738 1.116-.828 1.142-.806 2.273-1.622 3.431-2.405 8.184-5.539 16.99-10.101 25.888-14.368 39.838-19.103 80.364-36.403 121.066-52.89C329.45 128.682 415.32 98.945 502.09 71.934c21.041-6.55 42.142-12.695 63.476-18.218 11.042-2.859 6.369-19.883-4.713-17.094Z"/><path d="M319.029 121.506c.189 2.51.389 5.02.566 7.531.086 1.222.192 2.071.369 3.465-.262-2.064-.072-.545-.019-.117l.522 4.184c.709 5.688 1.372 11.38 2.218 17.049l4.512 30.242c3.004 20.138 6.359 40.223 9.61 60.322l5.553 34.328c.41 2.537 3.028 5.646 5.241 6.815 2.626 1.388 5.879 2.132 8.787 1.15 5.745-1.94 11.596-3.567 17.537-4.787a130 130 0 0 1 6.664-1.187c.359-.054.832-.061 1.164-.169-.22.072-2.885.367-1.293.177 3.088-.368 6.183-.644 9.292-.753a85 85 0 0 1 8.836.135c1.395.097 2.777.276 4.168.406-4.006-.374-1.261-.165-.32-.005q1.076.183 2.146.403c2.794.577 5.55 1.352 8.217 2.366.229.087.841.24.98.385.032.034-2.883-1.292-1.292-.54.551.26 1.108.508 1.654.779a42 42 0 0 1 5.363 3.177c.213.149.421.306.635.454 1.438.993-1.13-.861-1.081-.847 1.062.29 2.561 2.211 3.322 2.978s2.301 1.959 2.675 2.996c.004.011-1.817-2.49-.799-1.026.157.226.323.447.482.672a36 36 0 0 1 2.683 4.438c.245.479 1.251 2.747.48.902-.834-1.992.296.858.43 1.251q.454 1.33.81 2.688c.371 1.417.585 2.852.876 4.283-.738-3.631-.139-.973-.061.057q.106 1.413.123 2.831a47 47 0 0 1-.181 4.747c-.091 1.035-.741 3.681.029.103-.179.832-.28 1.685-.451 2.52a53 53 0 0 1-1.985 7.121c-.344.972-1.763 3.703-.13.55-1.542 2.975-2.877 5.956-4.752 8.758-.416.621-.853 1.225-1.285 1.835-1.062 1.5.509-.66.617-.777-.302.33-.57.714-.857 1.061a65 65 0 0 1-3.632 4.036 69 69 0 0 1-4.448 4.161c-.772.662-1.567 1.293-2.355 1.935-.969.79 1.077-.822.997-.772-.563.357-1.098.816-1.642 1.205-3.239 2.315-6.647 4.389-10.162 6.256a107 107 0 0 1-5.23 2.595c-.938.434-1.884.845-2.829 1.264-1.371.607 2.255-.92.862-.365-.533.213-1.063.434-1.597.645-3.834 1.519-7.739 2.844-11.685 4.04a11.78 11.78 0 0 0-6.022 4.155c-1.416 1.832-2.794 4.628-2.489 7.024 3.954 31.081 7.882 62.166 11.821 93.25.486 3.836 1.462 6.765 4.619 9.204 2.82 2.178 6.701 3.258 10.217 2.098 37.589-12.396 74.83-25.907 111.543-40.701a2089 2089 0 0 0 33.328-13.794l-17.432-7.092c7.829 21.727 26.005 40.78 49.24 45.497 23.005 4.67 47.693-5.31 60.102-25.522 3.254-5.3 5.454-11.299 6.33-17.449 1.133-7.961.555-15.985 1.575-23.94l-.427 3.181c.331-2.266.816-4.487 1.594-6.645.341-.946 1.137-2.016-.452.96.181-.338.321-.715.487-1.059a32 32 0 0 1 1.526-2.791c.453-.74.944-1.448 1.438-2.159 1.067-1.538-.852 1.081-.851 1.079.203-.453.785-.955 1.112-1.328a43 43 0 0 1 3.921-3.916c.665-.588 1.389-1.116 2.045-1.712-3.071 2.794-.449.368.392-.232a73 73 0 0 1 5.103-3.312c3.364-2 6.861-3.769 10.41-5.415 1.67-.775 3.353-1.521 5.043-2.251q.696-.3 1.394-.597c1.554-.667-3.498 1.471-.788.332l3.906-1.644 14.844-6.246 30.079-12.656a14356 14356 0 0 0 36.195-15.288c2.688-1.14 5.045-4.849 5.78-7.516.829-3.01.455-7.019-1.268-9.691-1.731-2.685-4.309-5.049-7.516-5.78-3.528-.804-6.397-.129-9.691 1.268-23.673 10.039-47.309 20.163-70.954 30.268-18.802 8.035-40.344 15.745-51.335 34.34-3.723 6.299-5.369 13.12-6.095 20.331-.67 6.657-.109 13.37-.981 20.015l.426-3.168c-.335 2.239-.82 4.44-1.551 6.586-.186.546-.414 1.079-.597 1.625 1.153-3.44.695-1.599.286-.728s-.849 1.719-1.323 2.552q-.854 1.5-1.836 2.922c-.273.395-.561.779-.841 1.169-.822 1.144 1.875-2.268.61-.814-1.466 1.685-2.961 3.305-4.635 4.789-.867.768-3.843 2.592-.542.541-.907.564-1.747 1.256-2.647 1.835a46 46 0 0 1-5.661 3.107c-1.847.851.417-.354.939-.371-.405.014-1.261.496-1.647.637q-1.52.556-3.076 1.004a47 47 0 0 1-6.609 1.384l3.148-.423a44.3 44.3 0 0 1-11.195-.024l3.149.423a49 49 0 0 1-7.151-1.551 49 49 0 0 1-3.454-1.178c-.922-.353-2.433-1.376.58.269-.53-.289-1.115-.502-1.659-.764a53 53 0 0 1-6.101-3.461c-1.027-.674-2.016-1.391-3.006-2.117s2.442 1.957.47.332q-.713-.587-1.406-1.196a60 60 0 0 1-5.04-4.989c-.827-.922-1.589-1.896-2.393-2.837 2.577 3.014-.092-.177-.715-1.088a61 61 0 0 1-3.804-6.372c-.52-1.008-.989-2.036-1.471-3.062-.532-1.131 1.19 2.961.239.56a66 66 0 0 1-.757-2.019c-1.288-3.582-3.318-6.191-6.871-7.69-3.783-1.596-6.911-.943-10.561.598 3.087-1.304-.639.268-1.346.564a2059 2059 0 0 1-10.28 4.279 2144 2144 0 0 1-40.969 16.395 1888 1888 0 0 1-86.53 31.146l14.836 11.302c-4.027-31.083-8.064-62.165-12.075-93.25l-8.511 11.179c16.206-4.945 31.808-12.18 44.58-23.49 12.992-11.505 21.054-27.16 22.76-44.405 1.558-15.744-4.386-32.507-16.567-42.857-11.344-9.639-25.551-13.687-40.252-14.207-15.42-.545-31.186 2.647-45.726 7.625l14.028 7.965c-6.638-39.993-13.239-79.982-20.369-119.89-2.008-11.238-4.262-22.409-7.087-33.467-1.122-4.394-5.621-7.101-9.98-6.515-4.18.562-8.227 4.408-7.887 8.933Z"/><path d="M399.478 456.334c-2.477.249-5.087.177-7.432.985-2.008.693-4.037 1.33-6.056 1.987-3.863 1.256-7.679 2.662-11.519 3.989-7.698 2.66-15.342 5.459-23.022 8.17a1216 1216 0 0 1-72.681 23.121l14.811 14.811c1.312-8.636 1.92-17.233.913-25.937-.549-4.745-1.252-9.472-2.518-14.083-1.247-4.539-3.01-8.96-5.032-13.205-7.219-15.153-20.936-27.127-36.956-32.143-8.34-2.611-17.22-2.869-25.746-1.098-8.142 1.692-15.368 5.805-21.83 10.889-11.712 9.215-19.888 23.521-22.977 38.01-4.479 21.012-.647 42.262 5.051 62.632l5.485-13.479c-25.335 11.126-50.69 22.206-75.971 33.453l-21.425 9.531c-2.626 1.168-4.901 4.675-5.63 7.322-.808 2.933-.443 6.838 1.235 9.441 1.687 2.616 4.198 4.919 7.322 5.63l3.257.438a12.2 12.2 0 0 0 6.184-1.673 17431 17431 0 0 0 75.709-33.901l21.368-9.628 2.416-1.866a8.95 8.95 0 0 0 2.468-3.841c1.025-2.428 1.353-5.182.602-7.772-2.427-8.367-4.43-16.879-5.623-25.514l.427 3.176c-1.119-8.373-1.409-16.838-.313-25.23l-.428 3.182c.774-5.6 2.149-11.051 4.341-16.268l-1.208 2.863a59.6 59.6 0 0 1 7.481-12.806l-1.876 2.428c2.658-3.406 5.679-6.488 9.089-9.145l-2.431 1.878c2.925-2.237 6.079-4.118 9.466-5.567l-2.871 1.212a39.3 39.3 0 0 1 9.402-2.606l-3.197.43a39 39 0 0 1 9.951-.034l-3.2-.43c3.764.508 7.409 1.527 10.916 2.981l-2.878-1.214c3.818 1.628 7.383 3.734 10.683 6.249l-2.44-1.885a52.6 52.6 0 0 1 9.154 9.11l-1.887-2.442c2.874 3.736 5.191 7.835 7.045 12.165l-1.218-2.886c2.332 5.575 3.833 11.427 4.654 17.409l-.432-3.216c1.05 8.05.85 16.198-.181 24.24-.465 3.628 2.055 7.377 4.745 9.455 2.937 2.269 6.84 3.287 10.496 2.155a1225 1225 0 0 0 46.475-15.406c16.167-5.722 32.359-11.577 48.112-18.365 4.166-1.795 8.364-3.548 12.48-5.456 2.097-.972 4.166-2.012 6.245-3.022.347-.168.692-.341 1.04-.506 1.29-.613 2.267-1.496 3.34-2.419.818-.704 1.684-1.359 2.522-2.039 2.558-2.073 2.9-6.347 1.727-9.125-1.183-2.803-4.374-5.462-7.634-5.135"/><path d="M385.132 461.192c2.606 10.611 5.13 21.221 7.951 31.776s5.638 21.096 8.423 31.653a1718 1718 0 0 1 15.337 62.927c2.674 11.945 5.579 23.939 7.602 36.014l10.884-14.288c-17.345-.299-34.546 4.418-49.911 12.324-7.626 3.924-14.763 8.881-21.243 14.492-6.507 5.633-12.505 12.275-16.812 19.756-4.462 7.752-7.385 17.071-6.627 26.095.697 8.293 3.393 16.334 8.385 23.054 5.093 6.857 11.333 12.603 18.82 16.804 7.773 4.362 15.991 6.709 24.79 7.72 10.761 1.237 21.931-.286 32.409-2.785 9.945-2.371 19.56-5.917 29.121-9.494l-15.099-8.573c2.002 8.609 3.952 17.205 6.164 25.769s4.491 17.078 6.851 25.587c4.718 17.015 9.719 33.955 15.075 50.78q4.577 14.373 9.44 28.651c1.071 3.146 2.917 5.886 5.844 7.599 2.726 1.595 6.743 2.271 9.798 1.282 6.237-2.018 11.177-8.9 8.881-15.642-11.382-33.43-21.658-67.247-30.712-101.382-2.576-9.713-5.223-19.427-7.668-29.17-1.491-5.94-9.007-10.973-15.099-8.573-13.201 5.201-26.584 10.361-40.711 12.354l3.164-.425c-6.266.833-12.588.902-18.859.072l3.16.425c-4.127-.595-8.126-1.719-11.982-3.302l2.841 1.199a52.7 52.7 0 0 1-11.306-6.519l2.408 1.86c-3.107-2.405-5.907-5.138-8.32-8.241l1.861 2.409c-1.886-2.492-3.475-5.157-4.712-8.029l1.2 2.844a33.2 33.2 0 0 1-2.182-7.894l.425 3.166a31.8 31.8 0 0 1 .012-8.087l-.425 3.167c.439-2.995 1.262-5.863 2.409-8.663l-1.201 2.846c1.685-3.939 3.931-7.56 6.537-10.954l-1.864 2.413c4.423-5.643 9.707-10.557 15.357-14.952l-2.408 1.861a101.3 101.3 0 0 1 22.244-12.937l-2.808 1.185a101.2 101.2 0 0 1 24.817-6.801l-3.087.415c2.042-.273 4.091-.482 6.126-.812l-3.075.413q3.972-.52 7.973-.73c7.457-.39 12.66-6.886 10.884-14.288-2.543-10.606-4.535-21.362-6.927-32.006s-4.888-21.28-7.484-31.884c-5.133-20.964-10.508-41.897-16.754-62.559-1.775-5.87-3.468-11.785-5.532-17.56s-4.174-11.573-6.305-17.344c-1.694-4.587-6.429-8.199-11.532-6.547-4.944 1.6-7.801 6.426-6.547 11.532Z"/><path d="M420.886 538.296c18.616-24.074 35.799-49.2 51.227-75.437a694 694 0 0 0 9.241-16.206 62 62 0 0 0 3.505-7.445c.708-1.808.189-4.808-.837-6.401-.995-1.543-2.274-2.682-3.972-3.399-1.651-.697-3.656-.986-5.409-.419-2.161.699-3.651 1.968-4.965 3.818-2.16 3.041-3.807 6.417-5.627 9.672s-3.668 6.499-5.54 9.727a701 701 0 0 1-50.889 75.855c-1.19 1.547-1.429 4.723-.851 6.508s1.539 3.238 3.027 4.387c1.425 1.101 3.268 1.896 5.118 1.813 2.07-.093 4.64-.751 5.972-2.474Zm18.497 81.163c17.978-21.009 35.885-42.064 53.409-63.453 17.239-21.04 34.524-42.068 51.277-63.499 4.981-6.372 9.907-12.789 14.692-19.31 4.421-6.024 8.83-12.088 12.729-18.465 2.447-4.002 1.005-10.026-3.213-12.254-2.079-1.098-4.597-1.649-6.902-.903-2.327.753-3.942 2.119-5.353 4.116-4.363 6.174-8.566 12.457-13 18.582-4.432 6.122-8.986 12.154-13.604 18.137l1.4-1.812c-12.924 16.728-26.196 33.192-39.439 49.667-13.426 16.702-26.939 33.333-40.339 50.055a5225 5225 0 0 1-22.683 28.113c-1.346 1.656-2.284 3.298-2.284 5.513 0 1.912.849 4.196 2.284 5.513 2.913 2.674 8.194 3.309 11.026 0m17.916 92.246 64.131-73.481c21.379-24.496 42.766-48.985 64.032-73.58l63.812-73.8c19.993-23.122 40.131-46.135 59.449-69.829 19.409-23.805 38.046-48.317 54.602-74.208a733 733 0 0 0 5.905-9.363c2.735-4.425 1.099-11.125-3.563-13.588-4.821-2.547-10.714-1.187-13.588 3.563-7.806 12.902-16.215 25.428-25.001 37.68a780 780 0 0 1-13.324 18.012c-1.113 1.462-2.266 2.897-3.354 4.377.157-.214 1.342-1.731.276-.359l-.845 1.089q-.952 1.224-1.908 2.446-3.505 4.479-7.059 8.919c-18.788 23.476-38.511 46.181-58.154 68.94l-63.75 73.862c-21.093 24.438-42.103 48.944-63.083 73.479l-63.432 74.18-7.747 9.06c-3.026 3.539-3.735 9.173 0 12.601 3.358 3.083 9.328 3.75 12.601 0m37.051 114.301q7.23-9.537 14.533-19.02l1.55-2.011c.171-.221 1.116-1.449.401-.52-1.202 1.559 2.091-2.708.886-1.147l.399-.516.886-1.145 1.995-2.575q3.549-4.577 7.113-9.143a4529 4529 0 0 1 29.165-36.945c19.656-24.65 39.366-49.259 59.076-73.866 19.642-24.522 39.295-49.034 58.829-73.642 19.981-25.171 39.815-50.462 59.214-76.086a3178 3178 0 0 0 13.929-18.537c4.757-6.381 9.194-12.99 13.892-19.417 9.265-12.676 18.458-25.408 27.466-38.269q3.326-4.75 6.627-9.517c2.842-4.103.891-10.742-3.413-13.016-4.87-2.573-9.962-.952-13.016 3.413-9.004 12.868-18.107 25.671-27.365 38.357a2563 2563 0 0 1-10.302 14.017c-.574.775-1.127 1.574-1.726 2.33 1.31-1.653.443-.597.158-.248-.456.558-.902 1.126-1.353 1.688-5.214 6.501-10.154 13.204-15.172 19.855-9.53 12.632-19.155 25.192-28.82 37.721q-.774 1.005-1.55 2.008c1.556-2.008-.253.326-.654.845a4511 4511 0 0 1-11.119 14.313 5643 5643 0 0 1-14.531 18.551c-19.425 24.699-39.063 49.229-58.694 73.765s-39.449 49.245-58.781 74.179c-19.581 25.256-38.987 50.649-57.983 76.349a3152 3152 0 0 0-6.868 9.329c-2.738 3.733-.749 9.997 3.163 12.064 2.046 1.081 4.525 1.623 6.794.889 2.328-.753 3.803-2.118 5.27-4.052Zm116.508-17.259c3.921-3.531 7.492-7.437 11.142-11.247s7.291-7.633 10.92-11.465a2681 2681 0 0 0 21.316-22.774c14.228-15.378 28.319-30.887 42.162-46.613q20.845-23.68 41.131-47.84c20.286-24.16 26.654-32.355 39.693-48.76a2816 2816 0 0 0 44.552-57.578c1.48-1.965 1.645-5.578 1.025-7.831-.649-2.357-2.472-4.912-4.671-6.074-2.359-1.246-5.216-1.871-7.831-1.025l-2.428 1.025a10.2 10.2 0 0 0-3.646 3.646 2724 2724 0 0 1-16.654 21.783l1.594-2.063a2717 2717 0 0 1-35.589 45.066c-12.024 14.897-24.23 29.644-36.513 44.327a2701 2701 0 0 1-37.48 43.842c-12.598 14.422-25.283 28.766-38.164 42.937a2698 2698 0 0 1-39.084 42.092 109 109 0 0 0-4.732 5.293c-1.629 1.958-2.746 3.994-2.746 6.629 0 2.299 1.021 5.046 2.746 6.629 3.903 3.583 9.359 3.51 13.257 0Zm143.713-41.406a1711 1711 0 0 0 37.395-43.008c6.117-7.278 11.992-14.769 17.91-22.209 5.915-7.437 11.881-14.829 17.731-22.318a1841 1841 0 0 0 20.603-26.872c1.277-1.698 1.42-4.812.884-6.759-.56-2.035-2.133-4.239-4.031-5.242-2.036-1.075-4.502-1.615-6.759-.884l-2.095.884a8.8 8.8 0 0 0-3.147 3.147q-5.203 6.876-10.474 13.701l1.376-1.781c-10.196 13.195-20.518 26.309-31.227 39.092s-21.483 25.521-32.406 38.121a1716 1716 0 0 1-18.689 21.199c-1.62 1.807-2.678 3.987-2.678 6.465 0 2.242.996 4.921 2.678 6.465 3.49 3.204 9.514 3.798 12.929 0Z"/><path d="M623.148 37.037c26.561-5.942 54.066-2.828 79.999 4.592a221 221 0 0 1 37.32 14.47c10.702 5.301 22.977 11.818 31.556 18.911 16.474 13.621 27.193 32.318 34.418 51.897 8.049 21.813 12.693 44.733 16.734 67.573 10.406 58.824 22.157 117.217 35.802 175.389 15.028 64.071 31.45 127.807 46.483 191.878 6.342 27.029 12.645 54.06 19.054 81.073 5.867 24.73 11.075 48.988 11.608 74.156.493 23.261-3.141 45.244-16.286 64.582-2.502 3.68-4.993 6.708-8.352 10.073a82 82 0 0 1-4.055 3.788c-.765.669-1.545 1.318-2.328 1.967-.339.281-.689.549-1.03.827-1.275 1.037 1.569-1.15.223-.177-7.036 5.088-14.447 9.467-22.262 13.256a208 208 0 0 1-6.206 2.88q-1.482.659-2.972 1.296c1.761-.754-1.653.675-2.327.947a338 338 0 0 1-14.688 5.502c-10.741 3.76-21.63 7.091-32.56 10.254-26.664 7.716-53.602 14.453-80.391 21.713-63.297 17.156-126.071 36.179-189.419 53.179a5973 5973 0 0 1-96.839 25.129c-15.673 3.926-31.391 7.668-47.061 11.602-15.092 3.789-30.021 8.2-45.156 11.822-27.974 6.696-57.904 11.236-85.842 1.945-23.705-7.883-46.298-24.398-66.036-40.669-9.815-8.09-19.321-16.545-28.713-25.12-4.811-4.392-12.308-4.755-17.064 0-4.456 4.456-4.831 12.654 0 17.064 20.836 19.022 42.304 37.73 66.159 52.917 11.901 7.577 24.526 14.156 37.87 18.808 14.526 5.064 30.29 6.885 45.622 6.606 32.405-.591 63.756-9.924 94.912-17.868 32.853-8.376 65.802-16.351 98.608-24.917 65.824-17.188 131.379-35.422 196.545-54.956 29.963-8.981 60.141-17.161 90.3-25.449 23.978-6.59 48.082-13.115 71.398-21.824 18.699-6.985 36.956-15.275 52.57-27.893 17.7-14.304 29.382-35.504 34.458-57.499 11.886-51.506-5.469-104.952-17.279-154.825-15.423-65.129-31.254-130.134-47.162-195.147-15.507-63.37-30.901-126.949-42.127-191.244-7.957-45.574-14.097-96.306-42.359-134.621-15.571-21.11-37.392-34.472-61.032-45.118-26.833-12.083-55.557-20.206-85.185-19.831-13.898.176-27.658 2.378-40.801 6.92-8.887 3.071-5.377 16.216 3.898 14.141Z"/><path d="M297.538 967.772c-24.216-6.832-51.987-30.423-71.273-46.584 86.263-25.027 176.829-40.92 262.348-68.382l65.193-20.934c85.133-27.337 170.267-54.675 255.239-82.508 12.131-3.974 24.803-8.297 33.507-17.635s11.659-25.357 2.878-34.622l76.893 60.285c2.002 1.57 4.155 3.39 4.515 5.908.284 1.982-.629 3.922-1.562 5.694-10.281 19.517-26.266 35.985-45.467 46.844-17.976 10.166-38.274 15.328-58.298 20.382l-84.567 21.346c-149.478 37.73-299.003 75.471-449.845 107.314"/><path d="M299.944 959.045c-12.024-3.783-23.991-11.646-34.844-19.703-4.981-3.698-10.43-8.16-15.765-12.612-5.194-4.334-10.304-8.768-15.416-13.197l-4.776 18.091c44.078-11.984 88.373-22.823 132.803-33.424 44.657-10.655 89.194-21.787 132.93-35.815 45.457-14.58 90.918-29.149 136.368-43.752 45.446-14.601 90.878-29.243 136.273-44.003q16.94-5.508 33.872-11.038c10.553-3.447 21.279-6.617 31.33-11.398 18.568-8.832 33.197-27.682 28.197-49.164-1.221-5.248-4.009-9.863-7.578-13.831l-15.812 15.812c20.677 16.223 41.305 32.509 61.952 48.77 5.057 3.983 10.184 7.893 15.176 11.957.073.06 2.519 2.286 2.491 2.303-.884.522-2.187-6.154-1.459-5.425-.075-.075.961-1.278.014.075-1.588 2.268-2.716 4.979-4.186 7.345a116 116 0 0 1-4.042 6.065 91 91 0 0 1-2.331 3.159c.15-.192.885-1.121.06-.113-.592.723-1.178 1.451-1.781 2.164a118 118 0 0 1-10.899 11.286 116 116 0 0 1-5.992 5.072c1.318-1.042-.851.627-1.24.911a115 115 0 0 1-3.674 2.571c-4.755 3.192-9.752 6.007-14.917 8.478-2.369 1.134-4.536 2.089-5.885 2.623a206 206 0 0 1-8.87 3.295c-5.589 1.922-11.258 3.603-16.957 5.166-24.627 6.753-49.526 12.605-74.287 18.844-50.703 12.776-101.399 25.58-152.14 38.201-50.77 12.628-101.587 25.068-152.504 37.089-50.912 12.02-101.925 23.625-153.079 34.571-6.339 1.356-12.689 2.661-19.031 4.001-6.09 1.286-10.19 8.766-8.298 14.614 2.081 6.43 8.09 9.676 14.614 8.298 52.537-11.097 104.914-22.982 157.183-35.276 52.277-12.296 104.444-25.056 156.557-38.033 52.317-13.027 104.58-26.268 156.849-39.483 25.545-6.459 51.176-12.652 76.637-19.437 24.127-6.429 47.163-15.205 66.64-31.203 8.864-7.281 16.502-15.886 23.111-25.246 3.125-4.426 6.095-9.095 8.441-13.987 3.805-7.935 3.192-16.536-3.444-22.766-4.613-4.33-10.082-7.976-15.068-11.867l-15.96-12.456-31.919-24.911a10526 10526 0 0 1-15.947-12.469c-4.594-3.599-11.391-4.816-15.812 0-4.274 4.656-4.187 11.163 0 15.812 1.919 2.131-.719-1.813.541.705.205.409 1.416 3.108.494.622.322.867.506 1.763.799 2.634.882 2.624.114-2.098.139.696.009.945.07 1.876.028 2.823-.023.531-.606 3.402-.036.824-.21.948-.395 1.89-.66 2.826-.136.479-1.621 4.143-.567 1.901a36 36 0 0 1-2.922 5.059c1.372-1.999-.436.458-.685.729a38 38 0 0 1-2.393 2.359c-.015.013-2.821 2.308-1.187 1.068-.885.671-1.818 1.289-2.753 1.887-2.204 1.409-4.512 2.65-6.872 3.775.004-.002-3.368 1.527-1.472.71-1.043.449-2.109.853-3.17 1.258a181 181 0 0 1-6.432 2.293c-5.398 1.829-10.828 3.568-16.245 5.341a26234 26234 0 0 1-33.202 10.843c-43.837 14.284-87.708 28.46-131.593 42.595-44.332 14.279-88.675 28.523-133.014 42.778-42.148 13.55-84.812 24.896-127.841 35.283-48.436 11.692-97.436 22.082-145.093 36.73-7.097 2.181-11.431 12.696-4.776 18.091 11.855 9.612 23.736 19.221 36.394 27.771 12.32 8.322 25.659 16.034 40.127 19.886 11.302 3.009 15.895-13.965 4.811-17.452Z"/></svg>