<?xml version="1.0" encoding="UTF-8"?><svg xmlns="http://www.w3.org/2000/svg" data-name="ARTWORK" viewBox="0 0 1000 1000"><path d="M361.932 143.451c-75.15 38.664-153.666 72.332-234.257 97.91-22.65 7.189-45.71 13.343-68.66 19.512-5.103 1.372-8.822 5.902-9.513 11.041-.649 4.833 1.586 11.02 6.34 13.232 60.241 28.041 120.838 55.276 181.672 82.003 55.426 24.351 110.996 48.376 166.437 72.694 60.336 26.466 120.569 53.168 180.882 79.686 16.005 7.037 32.571 16.28 50.634 14.048 15.906-1.965 31.477-8.849 46.317-14.647 29.035-11.344 57.277-24.659 84.464-39.912 53.857-30.215 103.59-67.875 147.384-111.409a682 682 0 0 0 15.986-16.451c6.899-7.335 3.482-18.21-5.653-21.413-66.552-23.331-132.852-47.407-198.506-73.168-60.657-23.8-117.721-47.771-176.564-73.21a13584 13584 0 0 1-55.268-24.056c-19.997-8.752-40.21-17.135-60.164-25.909-6.263-2.754-13.612-1.834-17.345 4.548-3.149 5.383-1.752 14.575 4.548 17.345 18.078 7.949 35.988 16.31 54.093 24.222a14920 14920 0 0 0 49.106 21.367c31.245 13.522 62.552 26.901 93.969 40.019 59.831 24.983 120.133 48.805 180.936 71.32 39.292 14.55 78.773 28.569 118.383 42.229l-5.653-21.413c-41.179 44.233-86.84 81.444-138.044 112.851-25.677 15.749-52.394 29.694-79.916 41.927a627 627 0 0 1-40.961 16.496c-6.634 2.407-14.233 5.485-20.89 6.055-7.004.6-13.391-1.471-19.821-4.479-30.886-14.445-61.519-29.395-92.518-43.608a6298 6298 0 0 0-85.982-38.669c-54.762-24.125-109.674-47.908-164.474-71.947-58.779-25.784-117.411-51.915-175.811-78.546a9477 9477 0 0 1-23.834-10.909l-3.172 24.273c41.277-11.321 81.959-25.357 121.975-40.539 40.476-15.356 80.372-32.436 119.076-51.852 21.704-10.888 42.95-22.816 63.946-35.005 10.136-5.884 1.185-20.95-9.141-15.638Z"/><path d="M542.51 263.46a590 590 0 0 0-15.489-2.259l2.597.349a49 49 0 0 0-3.418-.458l2.605.35c-5.528-.775-11.06-1.516-16.617-2.043-4.697-.445-9.489-.918-14.211-.858-10.204.129-20.495 1.099-30.454 3.383-20.037 4.596-39.651 15.605-50.28 33.749-5.753 9.821-8.214 21.199-5.841 32.414.839 3.965 2.572 7.834 4.377 11.438a49.3 49.3 0 0 0 4.338 7.076c3.907 5.328 8.247 10.096 13.453 14.174 5.539 4.338 11.309 8.14 17.654 11.201 12.621 6.09 26.097 10.101 39.948 12.146 14.03 2.071 28.19 2.818 42.309 1.189 13.64-1.573 26.902-4.583 39.249-10.764 6.043-3.025 11.767-7.055 16.413-11.969 6.43-6.801 11.143-14.898 14.182-23.728 1.529-4.442 2.369-8.927 2.93-13.588.565-4.693.241-9.211-.42-13.879-1.297-9.151-5.711-17.698-11.954-24.458-3.681-3.985-8.164-7.374-12.542-10.534a89 89 0 0 0-12.292-7.44c-9.21-4.61-19.065-8.06-29.258-9.641-3.185-.494-6.377-.971-9.601-1.057-1.098-.029-2.189-.052-3.282.07-2.026.226-4.176.267-6.115.871l2.827-.38h-.411c-2.731.008-5.586 1.182-7.52 3.116-1.844 1.844-3.233 4.871-3.115 7.52.258 5.75 4.673 10.649 10.634 10.634h.411l-2.827-.381c2.213.701 5.134.981 7.346 1.196l-3.012-.405c1.959.274 3.922.499 5.882.762l-3.054-.41c2.513.348 5.031.645 7.545.98l-3.072-.413a91.5 91.5 0 0 1 22.922 6.289l-2.745-1.158a90.8 90.8 0 0 1 19.829 11.554l-2.313-1.787c3.574 2.772 7.051 5.735 9.834 9.322l-1.781-2.305a35.7 35.7 0 0 1 4.425 7.602l-1.146-2.715a38 38 0 0 1 2.555 9.512l-.405-3.014c.473 3.721.431 7.471-.048 11.189l.404-3.006a48.7 48.7 0 0 1-3.323 12.234l1.141-2.705a53.8 53.8 0 0 1-6.901 11.817l1.792-2.319a49.6 49.6 0 0 1-8.562 8.585l2.342-1.809c-4.007 3.083-8.486 5.497-13.133 7.464l2.779-1.173c-8.309 3.488-17.158 5.563-26.069 6.774l3.123-.42c-10.554 1.413-21.285 1.652-31.899.851a160 160 0 0 1-9.224-.969l3.132.421c-11.703-1.592-23.276-4.465-34.178-9.048l2.81 1.186c-7.013-2.969-13.737-6.657-19.78-11.31l2.378 1.837c-4.131-3.204-7.907-6.848-11.11-10.986l1.836 2.376c-2.558-3.336-4.711-6.956-6.356-10.827l1.183 2.803c-1.056-2.519-1.868-5.093-2.253-7.804l.419 3.119a29.7 29.7 0 0 1 .017-7.558l-.419 3.118c.423-3.038 1.268-5.975 2.437-8.807l-1.182 2.8c1.535-3.622 3.561-6.988 5.944-10.114l-1.832 2.371a55.2 55.2 0 0 1 9.759-9.76l-2.37 1.831c5.233-4.011 11.109-7.175 17.168-9.747l-2.78 1.173c8.222-3.444 16.907-5.566 25.727-6.768l-3.002.403c7.285-.97 14.669-1.337 22.011-1.547s14.725-.103 22.051.391c4.135.279 8.266.628 12.393 1.013 2.157.201 5.162-1.167 6.6-2.734 1.415-1.542 2.287-3.276 2.567-5.359.267-1.99.013-4.213-1.108-5.952-1.234-1.914-3.23-3.912-5.578-4.29Zm-187.815-.694c4.093 1.345 8.514 1.906 12.814 1.592 2.498-.183 5.088-.457 7.513-1.128 3.828-1.059 8.345-2.701 10.178-6.534a10.13 10.13 0 0 0 1.39-5.137 7.66 7.66 0 0 0-.877-3.921c-1.243-2.946-3.52-4.951-6.596-5.893-3.641-1.115-6.405.244-9.7 1.156-1.654.457-3.307.861-5.007 1.107l2.757-.371a37.3 37.3 0 0 1-9.547.021l2.601.349-.342-.048a7.4 7.4 0 0 0-3.889-.174 7.27 7.27 0 0 0-3.626 1.157c-2.023 1.184-3.952 3.503-4.482 5.828-1.222 5.364 1.619 10.29 6.811 11.996Zm304.097 121.721c4.093 1.345 8.514 1.906 12.814 1.592 2.498-.183 5.088-.457 7.513-1.128 3.828-1.059 8.345-2.701 10.178-6.534a10.13 10.13 0 0 0 1.39-5.137 7.66 7.66 0 0 0-.877-3.921c-1.243-2.946-3.52-4.951-6.596-5.893-3.641-1.115-6.405.244-9.7 1.156-1.654.457-3.307.861-5.007 1.107l2.757-.371a37.3 37.3 0 0 1-9.547.021l2.601.349-.342-.048a7.4 7.4 0 0 0-3.889-.174 7.27 7.27 0 0 0-3.626 1.157c-2.023 1.184-3.952 3.503-4.482 5.828-1.222 5.364 1.619 10.29 6.811 11.996Z"/><path d="M58.374 356.984c26.666 14.383 53.884 27.41 81.752 39.311 28.23 12.055 56.339 23.772 84.303 36.906 62.602 29.403 125.281 58.643 187.95 87.901 30.545 14.26 61.122 28.454 91.893 42.222 31.042 13.889 62.21 28.086 94.055 40.053 16.771 6.302 33.345 7.978 50.778 3.311 14.186-3.798 28.099-9.205 41.759-14.557 27.767-10.878 54.84-23.499 80.92-37.967 51.076-28.336 98.91-63.443 140.162-104.859 5.137-5.158 9.882-10.399 14.366-16.137 3.348-4.284 4.178-10.073 0-14.251-4.138-4.138-10.06-3.499-14.251 0-11.056 9.23-21.284 19.374-32.136 28.85s-21.776 18.799-33.105 27.679c-21.405 16.778-45.335 33.057-69.266 47.272a659 659 0 0 1-76.192 38.796c-5.379 2.313-12.09 5.038-18.361 7.475a643 643 0 0 1-20.231 7.474c-13.276 4.653-28.221 10.994-41.884 8.003-15.874-3.475-30.898-10.722-45.819-16.992-14.683-6.169-29.288-12.525-43.852-18.97-30.57-13.528-60.926-27.531-91.224-41.657-61.528-28.688-122.931-57.644-184.471-86.307-28.459-13.255-56.988-26.164-85.977-38.226-14.282-5.943-28.57-12.065-43.074-17.445-13.903-5.157-27.878-10.084-41.677-15.522-6.632-2.613-13.415-4.83-20.047-7.471-8.747-3.483-14.506 10.72-6.369 15.108Z"/><path d="M58.374 436.872c26.666 14.383 53.884 27.41 81.752 39.311 28.23 12.055 56.339 23.772 84.303 36.906 62.602 29.403 125.281 58.643 187.95 87.901 30.545 14.26 61.122 28.454 91.893 42.222 31.042 13.889 62.21 28.086 94.055 40.053 16.771 6.302 33.345 7.978 50.778 3.311 14.186-3.798 28.099-9.205 41.759-14.557 27.767-10.878 54.84-23.499 80.92-37.967 51.076-28.336 98.91-63.443 140.162-104.859 5.137-5.158 9.882-10.399 14.366-16.137 3.348-4.284 4.178-10.073 0-14.251-4.138-4.138-10.06-3.499-14.251 0-11.056 9.23-21.284 19.374-32.136 28.85s-21.776 18.799-33.105 27.679c-21.405 16.778-45.335 33.057-69.266 47.272a659 659 0 0 1-76.192 38.796c-5.379 2.313-12.09 5.038-18.361 7.475a643 643 0 0 1-20.231 7.474c-13.276 4.653-28.221 10.994-41.884 8.003-15.874-3.475-30.898-10.722-45.819-16.992-14.683-6.169-29.288-12.525-43.852-18.97-30.57-13.528-60.926-27.531-91.224-41.657-61.528-28.688-122.931-57.644-184.471-86.307-28.459-13.255-56.988-26.164-85.977-38.226-14.282-5.943-28.57-12.065-43.074-17.445-13.903-5.157-27.878-10.084-41.677-15.522-6.632-2.613-13.415-4.83-20.047-7.471-8.747-3.483-14.506 10.72-6.369 15.108Z"/><path d="M58.374 516.76c26.666 14.383 53.884 27.41 81.752 39.311 28.23 12.055 56.339 23.772 84.303 36.906 62.602 29.403 125.281 58.643 187.95 87.901 30.545 14.26 61.122 28.454 91.893 42.222 31.042 13.889 62.21 28.086 94.055 40.053 16.771 6.302 33.345 7.978 50.778 3.311 14.186-3.798 28.099-9.205 41.759-14.557 27.767-10.878 54.84-23.499 80.92-37.967 51.076-28.336 98.91-63.443 140.162-104.859 5.137-5.158 9.882-10.399 14.366-16.137 3.348-4.284 4.178-10.073 0-14.251-4.138-4.138-10.06-3.499-14.251 0-11.056 9.23-21.284 19.374-32.136 28.85s-21.776 18.799-33.105 27.679c-21.405 16.778-45.335 33.057-69.266 47.272a659 659 0 0 1-76.192 38.796c-5.379 2.313-12.09 5.038-18.361 7.475a643 643 0 0 1-20.231 7.474c-13.276 4.653-28.221 10.994-41.884 8.003-15.874-3.475-30.898-10.722-45.819-16.992-14.683-6.169-29.288-12.525-43.852-18.97-30.57-13.528-60.926-27.531-91.224-41.657-61.528-28.688-122.931-57.644-184.471-86.307-28.459-13.255-56.988-26.164-85.977-38.226-14.282-5.943-28.57-12.065-43.074-17.445-13.903-5.157-27.878-10.084-41.677-15.522-6.632-2.613-13.415-4.83-20.047-7.471-8.747-3.483-14.506 10.72-6.369 15.108Z"/><path d="M58.374 596.648c26.666 14.383 53.884 27.41 81.752 39.311 28.23 12.055 56.339 23.772 84.303 36.906 62.602 29.403 125.281 58.643 187.95 87.901 30.545 14.26 61.122 28.454 91.893 42.222 31.042 13.889 62.21 28.086 94.055 40.053 16.771 6.302 33.345 7.978 50.778 3.311 14.186-3.798 28.099-9.205 41.759-14.557 27.767-10.878 54.84-23.499 80.92-37.967 51.076-28.336 98.91-63.443 140.162-104.859 5.137-5.158 9.882-10.399 14.366-16.137 3.348-4.284 4.178-10.073 0-14.251-4.138-4.138-10.06-3.499-14.251 0-11.056 9.23-21.284 19.374-32.136 28.85s-21.776 18.799-33.105 27.679c-21.405 16.778-45.335 33.057-69.266 47.272a659 659 0 0 1-76.192 38.796c-5.379 2.313-12.09 5.038-18.361 7.475a643 643 0 0 1-20.231 7.474c-13.276 4.653-28.221 10.994-41.884 8.003-15.874-3.475-30.898-10.722-45.819-16.992-14.683-6.169-29.288-12.525-43.852-18.97-30.57-13.528-60.926-27.531-91.224-41.657-61.528-28.688-122.931-57.644-184.471-86.307-28.459-13.255-56.988-26.164-85.977-38.226-14.282-5.943-28.57-12.065-43.074-17.445-13.903-5.157-27.878-10.084-41.677-15.522-6.632-2.613-13.415-4.83-20.047-7.471-8.747-3.483-14.506 10.72-6.369 15.108Z"/><path d="M99.258 612.038c-18.806 5.57-38.12 11.398-53.503 23.574-113.026 89.465 270.036 181.022 321.371 192.077 107.355 23.118 218.117 33.647 327.782 24.902 74.751-5.96 246.282-15.341 275.879-102.578 11.364-33.493.595-78.746-42.761-72.888-17.287 2.336-30.563 15.833-43.186 27.873-16.737 15.963-34.741 30.62-53.981 43.456-27.121 18.094-56.517 32.462-85.812 46.772-43.303 21.154-88.893 42.816-137.048 40.887-35.126-1.407-68.393-15.331-100.654-29.297C368.837 746.851 232.4 682.23 95.995 617.623"/><path d="M96.826 603.216c-21.754 5.891-43.143 12.732-60.722 27.408-6.648 5.551-12.899 12.344-16.713 20.192-7.423 15.273-5.345 31.918 3.94 45.931 10.771 16.256 27.074 28.27 43.403 38.469 21.028 13.133 43.65 23.573 66.464 33.177 48.332 20.348 98.527 36.112 149.03 50.081 42.087 11.641 84.476 21.852 127.459 29.625 52.799 9.548 106.219 15.942 159.83 18.359 47.072 2.122 93.899.469 140.842-3.184 61.847-4.813 126.066-10.385 184.348-33.098 28.299-11.029 55.725-26.349 74.132-51.16 18.31-24.679 25.147-61.832 9.65-89.585-8.797-15.755-25.236-24.699-43.149-24.654-24.046.06-41.344 15.168-57.797 30.864-18.075 17.244-37.451 32.936-58.505 46.411-21.588 13.817-44.448 25.482-67.427 36.777-43.235 21.253-89.113 45.85-138.581 45.536-25.089-.159-49.354-7.519-72.568-16.503-24.153-9.348-47.75-20.246-71.427-30.725-99.333-43.961-197.718-90.043-295.931-136.439a74094 74094 0 0 1-70.966-33.583c-5.935-2.811-13.129-1.649-16.646 4.365-3.097 5.295-1.6 13.821 4.365 16.646 95.984 45.462 191.97 90.928 288.759 134.659 48.411 21.873 96.844 43.994 146.017 64.111 23.097 9.449 46.662 17.213 71.54 20.136 24.877 2.923 50.212-.627 74.131-7.681 23.709-6.992 46.369-17.27 68.597-27.973 22.929-11.04 45.907-22.133 68.12-34.568 21.911-12.266 42.657-26.253 62.098-42.157 9.438-7.721 18.43-15.922 27.243-24.343 7.472-7.14 14.711-14.248 24.072-18.74 2.752-1.32 7.761-2.681 10.106-2.911a49 49 0 0 1 6.524-.189c.931.034 1.856.108 2.785.18-2.598-.204 1.013.193 1.571.315 1.805.393 3.539.948 5.279 1.56-2.537-.892 1.584.847 2.316 1.279.775.457 4.183 3.221 2.125 1.346 1.36 1.238 2.586 2.595 3.917 3.852 2.126 2.009-1.206-1.96.421.487.429.644.876 1.273 1.289 1.928.925 1.466 1.676 3.003 2.493 4.527 1.02 1.905.13.206-.041-.217q.546 1.346 1.016 2.718a57 57 0 0 1 1.616 5.685c.377 1.636.676 3.286.93 4.945-.424-2.773.184 2.606.23 3.474.21 4.036-.025 8.001-.323 12.022-.249 3.367.27-1.535-.041.504a81 81 0 0 1-1.55 7.752 81 81 0 0 1-3.63 10.951c1.137-2.771-.54 1.07-.961 1.923a83 83 0 0 1-2.024 3.843 85 85 0 0 1-5.139 8.059c-.51.71-1.032 1.409-1.559 2.105 1.857-2.452.034-.074-.321.341-.958 1.117-1.897 2.246-2.884 3.338a106 106 0 0 1-6.937 6.978 116 116 0 0 1-3.409 3.009c-.66.56-4.913 3.936-2.621 2.189a145 145 0 0 1-8.462 5.981c-6.02 3.942-12.312 7.459-18.763 10.642a222 222 0 0 1-9.232 4.289c-.305.133-3.464 1.471-.96.426a267 267 0 0 1-8.261 3.284c-14.73 5.58-29.906 9.944-45.229 13.563-15.644 3.695-31.468 6.602-47.359 9.004a829 829 0 0 1-11.321 1.625c2.548-.35-2.459.322-3.243.422a900 900 0 0 1-6.343.792c-7.516.912-15.043 1.732-22.577 2.482-32.521 3.236-65.254 5.936-97.911 7.075-51.967 1.812-104.046-.495-155.72-6.202-58.221-6.43-115.811-17.277-172.569-31.648-47.015-11.904-93.61-25.527-139.384-41.575-12.381-4.341-24.688-8.897-36.878-13.748a757 757 0 0 1-13.068-5.341c2.582 1.079-2.129-.91-2.92-1.25a583 583 0 0 1-16.681-7.484c-10.409-4.874-20.674-10.079-30.63-15.826a263 263 0 0 1-13.502-8.314 209 209 0 0 1-5.619-3.84q-1.481-1.05-2.941-2.128c-.435-.322-.867-.649-1.302-.971-2.415-1.788 1.117.929-.342-.254a147 147 0 0 1-17.759-17.016c-.625-.706 1.412 2.016-.184-.272-.517-.741-1.044-1.472-1.541-2.226a51 51 0 0 1-2.75-4.677c-.34-.659-.607-1.411-.99-2.042-.496-.817.887 2.601.037.044-.546-1.642-1.103-3.25-1.474-4.945-.056-.256-.268-2.038-.384-2.067.623.155.249 3.067.185 1.313-.013-.346-.077-.692-.092-1.039-.067-1.541-.025-3.04.02-4.58.089-3.045-.59 2.123.012-.179.18-.689.278-1.403.452-2.095.398-1.586 1.019-3.072 1.531-4.617-1.121 3.38-.321.805.123-.079.431-.86.896-1.703 1.386-2.531q.638-1.073 1.334-2.111c.46-.686 2.775-3.591.559-.903 2.757-3.344 5.674-6.463 8.935-9.327 14.536-12.77 33.84-18.544 51.897-24.366 11.145-3.593 6.582-20.742-4.864-17.643Z"/></svg>