<?xml version="1.0" encoding="UTF-8"?><svg xmlns="http://www.w3.org/2000/svg" data-name="ARTWORK" viewBox="0 0 1000 1000"><path d="M382.262 480.181c-2.28-17.008-3.367-34.123-3.898-51.269-.56-18.075-.048-36.159.341-54.231.382-17.771.681-35.542 1.119-53.311.412-16.711.579-33.424.385-50.141-.197-16.985-.642-34.036-2.962-50.882-1.361-9.884-3.886-19.208-7.931-28.342-3.944-8.906-10.105-16.992-17.329-23.498-14.421-12.988-32.893-21.857-51.93-25.488-19.017-3.626-39.029-2.958-57.418 3.416-16.839 5.836-32.253 15.791-44.159 29.105-11.675 13.056-20.587 28.968-24.307 46.171-.851 3.935-1.336 7.964-2.858 11.72l1.281-3.036a18 18 0 0 1-1.955 3.46l1.986-2.571a16.2 16.2 0 0 1-2.787 2.776l2.569-1.985c-1.473 1.087-3.06 1.931-4.744 2.642l3.03-1.279c-7.38 2.97-15.668 4.273-23.511 5.335l3.358-.451a154 154 0 0 1-40.394-.038l3.336.448a152.6 152.6 0 0 1-27.415-6.357c-2.626-.872-5.67-.41-8.133.63-2.4 1.013-4.722 2.743-5.973 5.111a14.8 14.8 0 0 0-1.705 6.305c-.148 3.311 1.552 6.445 3.659 8.833 14.387 16.305 31.192 31.047 50.076 41.929a163 163 0 0 0 18.374 9.074l-2.837-1.197c20.099 9.238 42.012 14.651 64.23 13.843 20.919-.761 42.065-6.347 60.039-17.23 9.915-6.004 19.038-13.64 26.292-22.701 1.627-2.032 2.782-3.898 3.138-6.552.327-2.433.016-5.151-1.354-7.276a13.6 13.6 0 0 0-4.094-4.094c-2.636-1.7-5.852-1.684-8.793-1.15q-3.136.568-6.293 1.002l3.033-.408c-12.471 1.667-25.108 1.626-37.578-.031l3.027.407a145 145 0 0 1-36.772-10.055l2.715 1.146c-8.962-3.807-17.556-8.458-25.536-14.048-2.281-1.598-6.093-1.85-8.686-1.136-2.615.72-5.448 2.742-6.736 5.18-1.382 2.616-2.075 5.785-1.136 8.686.946 2.923 2.663 4.973 5.18 6.736 25.406 17.797 56.538 27.249 87.53 27.161 9.157-.026 18.313-.999 27.318-2.634l-11.102-19.072c-4.393 5.486-9.42 10.405-14.962 14.726l2.309-1.784c-6.79 5.239-14.248 9.519-22.136 12.874l2.726-1.15c-9.025 3.792-18.483 6.316-28.176 7.654l3.054-.41a121 121 0 0 1-31.705.059l3.099.416c-11.825-1.593-23.36-4.948-34.344-9.577l2.83 1.194c-13.538-5.76-26.035-13.83-37.654-22.804l2.511 1.94c-10.882-8.451-20.851-18.017-29.922-28.383l-12.154 20.878c18.966 6.387 39.437 9.189 59.425 8.173 10.287-.523 20.616-1.964 30.635-4.364 4.98-1.193 10.162-2.696 14.525-5.444 2.265-1.426 4.518-3.134 6.267-5.188 2.787-3.274 4.42-6.352 5.917-10.384 1.559-4.199 1.993-8.742 3.079-13.072a86 86 0 0 1 4.193-12.479l-1.287 3.05a91.6 91.6 0 0 1 11.644-19.846l-2.006 2.596a96.2 96.2 0 0 1 16.985-16.975l-2.618 2.022c6.249-4.802 13.056-8.812 20.312-11.894l-3.114 1.314c7.556-3.162 15.49-5.277 23.6-6.403l-3.494.469c9.066-1.208 18.253-1.165 27.319.023l-3.515-.472a104.5 104.5 0 0 1 26.406 7.201l-3.161-1.334c7.446 3.177 14.522 7.2 20.947 12.134l-2.68-2.071c4.573 3.56 8.75 7.577 12.328 12.142l-2.072-2.681c3.173 4.121 5.748 8.608 7.791 13.389l-1.336-3.166c3.229 7.726 5.025 15.917 6.149 24.191l-.474-3.526c2.049 15.504 2.471 31.263 2.772 46.884.312 16.169.205 32.343.321 48.513.125 17.379.207 34.759.518 52.136.318 17.751 1.439 35.528 2.74 53.232 1.428 19.416 3.264 38.796 6.313 58.034.33 2.082 2.494 4.643 4.306 5.6 1.893 1 3.844 1.398 5.975 1.112 1.966-.264 3.998-1.072 5.38-2.577 1.55-1.689 3.065-4.236 2.744-6.626Z"/><path d="m258.519 225.046-.598-1.011a8.6 8.6 0 0 0-3.062-3.062 8.5 8.5 0 0 0-4.308-1.165 8.5 8.5 0 0 0-4.308 1.165 8.6 8.6 0 0 0-3.062 3.062l-.764 1.011a9.3 9.3 0 0 0-1.273 4.706 9.3 9.3 0 0 0 1.273 4.706 9.4 9.4 0 0 0 3.345 3.345 9.3 9.3 0 0 0 4.706 1.273 9.3 9.3 0 0 0 4.706-1.273 9.4 9.4 0 0 0 3.345-3.345 9.3 9.3 0 0 0 1.273-4.706 9.3 9.3 0 0 0-1.273-4.706m-86.803 78.625c-31.724 68.47-64.975 138.38-76.161 213.738-8.484 57.15-7.359 117.809 12.577 172.6 19.44 53.424 56.126 97.341 103.775 128.081a304 304 0 0 0 19.014 11.297 320 320 0 0 0 9.564 5.023c1.816.915 3.651 1.791 5.475 2.69-.757-.373 1.507.789 1.563.778-1.302.27-2.545-2.371-.724-.468 1.013 1.059 1.926 2.172 2.897 3.267-2.369-2.673.632.918 1.171 1.687a144 144 0 0 1 5.151 7.921c.499.822.971 1.659 1.467 2.482-1.043-1.73-.211-.35.016.286 1.242 3.485-.025-2.279.285 1.471.487 5.883 1.111 11.474 3.676 16.862 7.757 16.295 26.979 19.378 42.922 21.571 20.488 2.819 41.024 5.271 61.623 7.123 79.77 7.172 160.722 5.584 239.366-10.564 17.887-3.673 37.868-6.752 52.055-19.215 3.592-3.156 6.684-7.082 8.732-11.408 2.288-4.833 3.019-9.314 4.116-14.431.386-1.8.857-3.581 1.418-5.334.31-.967.654-1.92 1.017-2.869.806-2.108-1.445 2.579.356-.735.767-1.411 1.471-2.847 2.317-4.216a43 43 0 0 1 2.01-2.983c-1.349 1.819.549-.566.98-1.035 1.093-1.189 2.283-2.262 3.462-3.361 2.674-2.492-1.94 1.023 1.208-.91.768-.472 1.523-.985 2.282-1.47 4.143-2.649 8.282-5.305 12.39-8.009 7.794-5.129 15.499-10.395 23.055-15.869 15.654-11.34 30.83-23.467 44.649-37.004 25.146-24.632 45.986-54.249 57.538-87.674 5.544-16.042 7.112-32.597 10.454-49.122.741-3.662 1.603-7.306 2.719-10.873a73 73 0 0 1 1.829-5.186c.842-2.114-1.433 2.608.366-.733.572-1.062 1.08-2.154 1.678-3.204q.597-1.048 1.244-2.066c-.103.162 2.108-3.111 1.054-1.642-1.046 1.458 1.406-1.641 1.288-1.51a44 44 0 0 1 3.446-3.429c.219-.195 3.315-2.515 1.074-.929a68 68 0 0 1 5.027-3.249c14.271-8.317 30.21-12.315 43.365-22.683 12.889-10.158 21.245-24.815 26.514-40.139 5.142-14.957 7.049-31.165 7.545-46.91.64-20.316-.904-40.637-4.135-60.694-5.557-34.504-16.683-70.569-38.497-98.398-11.792-15.043-27.744-26.441-47.024-28.783-18.043-2.191-36.414 4.437-51.373 14.188-29.546 19.261-54.045 47.103-71.037 77.875-8.436 15.277-14.658 31.635-22.715 47.102-2.019 3.876-4.129 7.705-6.428 11.423a127 127 0 0 1-3.377 5.186c-.65.945-1.319 1.875-1.993 2.802q-.858 1.145.091-.067a75 75 0 0 1-1.3 1.616c-2.489 3.036-5.18 5.914-8.107 8.533-.642.574-4.032 3.273-1.961 1.715a72 72 0 0 1-10.368 6.49c-.901.461-1.837.858-2.736 1.32-2.045 1.053 2.965-1.023-.614.243-3.391 1.199-6.774 2.175-10.307 2.859-2.625.508-.359.042.171-.002-1.164.096-2.321.202-3.49.238-1.552.048-3.093-.075-4.641-.093-3.611-.043 1.756.477-.378 0-.947-.211-1.908-.353-2.853-.585a41 41 0 0 1-2.26-.621c-.391-.12-4.037-1.492-1.168-.273-6.59-2.801-15.023-2.195-18.786 4.926-3.109 5.885-2.132 15.787 4.926 18.786 17.579 7.47 35.448 6.329 52.74-1.462 15.762-7.101 28.161-19.434 37.884-33.491 10.025-14.494 16.645-30.911 24.122-46.774 7.002-14.854 15.251-29.032 25.242-42.088-1.513 1.977.242-.29.623-.768a212 212 0 0 1 5.9-7.081 214 214 0 0 1 8.487-9.198 223 223 0 0 1 18.513-16.932c.685-.558 1.379-1.105 2.065-1.661 3.299-2.67-1.205.889.818-.643a175 175 0 0 1 4.856-3.571c3.707-2.609 7.578-4.991 11.617-7.052.736-.376 4.953-2.331 2.719-1.382 2.008-.853 4.092-1.577 6.177-2.214a63 63 0 0 1 5-1.312c1.043-.227 2.094-.392 3.142-.592q1.529-.243-.541.078.945-.1 1.894-.154a49 49 0 0 1 5.677-.05c.841.042 1.679.112 2.516.194-2.765-.272.004.041.711.186 1.905.39 3.739.94 5.589 1.521 2.479.779.987.312.391.061 1.246.524 2.456 1.159 3.638 1.813 2.008 1.11 3.896 2.38 5.755 3.721-.445-.321-1.909-1.582.117.103.626.521 1.252 1.04 1.866 1.575 3.078 2.682 5.941 5.607 8.601 8.702.535.623 1.048 1.263 1.58 1.888 2.538 2.976-.836-1.262.53.654 1.081 1.517 2.189 3.009 3.229 4.555a126 126 0 0 1 6.415 10.692 162 162 0 0 1 4.95 10.077c.344.763 2.045 4.809 1.086 2.459a239 239 0 0 1 2.466 6.276c13.12 34.95 18.294 69.739 17.096 106.669a197 197 0 0 1-.627 10.663c-.155 1.79-.349 3.575-.546 5.361-.292 2.645-.055.533.019.002a147 147 0 0 1-.542 3.558c-1.22 7.415-2.997 14.761-5.568 21.828-.266.732-.557 1.453-.824 2.184-1.271 3.483.754-1.469-.218.554-.749 1.561-1.448 3.14-2.248 4.676a76.5 76.5 0 0 1-6.019 9.675c1.562-2.145-.888 1.032-1.49 1.71a61 61 0 0 1-3.975 4.08 56 56 0 0 1-3.481 3.005c2.023-1.599-.079-.002-.603.359a65 65 0 0 1-3.066 1.98c-13.041 7.921-28.312 11.513-40.634 20.712-14.731 10.998-22.293 26.888-25.903 44.596-3.186 15.629-4.663 31.367-9.682 46.602a172 172 0 0 1-4.114 11.135c.813-1.993-.264.613-.472 1.085q-.665 1.51-1.358 3.009a185 185 0 0 1-2.883 5.946c-3.799 7.494-8.099 14.731-12.8 21.693-2.238 3.314-4.582 6.549-6.974 9.752-.159.213-1.529 1.975-.361.482a248 248 0 0 1-6.332 7.752 270 270 0 0 1-16.838 18.013c-13.232 12.948-26.883 23.952-41.125 34.189-7.38 5.304-14.896 10.416-22.492 15.406-7.494 4.923-15.697 9.337-21.987 15.829-6.387 6.591-10.897 14.578-13.876 23.217-1.213 3.517-1.926 7.102-2.536 10.762-.146.877-.285 1.746-.496 2.61.073-.3-1.249 3.729-.622 2.217s-1.293 2.263-1.137 1.99l-.734 1.102q1.028-1.407-.46.317c-.598.518-3.902 3.169-2.169 1.99-1.764 1.2-3.599 2.148-5.457 3.183-.294.164-2.278 1.065-.36.241-.786.337-1.6.632-2.404.924-2.437.887-4.924 1.635-7.425 2.316-8.81 2.397-17.804 4.21-26.758 5.975-19.197 3.786-36.779 6.422-55.482 8.409-38.612 4.103-77.522 5.056-116.314 3.65a1065 1065 0 0 1-58.29-3.73 1182 1182 0 0 1-28.668-2.974 1163 1163 0 0 1-27.253-3.471c-3.854-.54-7.726-1.025-11.543-1.795a65 65 0 0 1-4.876-1.166 48 48 0 0 1-2.643-.821c-.785-.271-3.54-1.772-.762-.258a85 85 0 0 1-3.639-2.082c2.949 1.803.401.032.008-.118-.856-.326-1.723-2.676-.131.074-.333-.575-.678-1.203-1.03-1.757 1.425 2.239.566.946.179.098-1.438-3.147-.074 1.066-.26-.859-.126-1.304-.221-2.612-.354-3.915-.558-5.485-1.412-10.236-4.086-15.126-1.197-2.189-2.569-4.302-3.926-6.394-3.571-5.504-7.379-11.404-12.442-15.64-5.976-4.999-14.079-7.768-20.896-11.512a302 302 0 0 1-18.949-11.313c-5.798-3.761-11.382-7.792-16.938-11.896-1.778-1.313 2.5 1.991-.281-.214-.571-.452-1.144-.9-1.714-1.354a254 254 0 0 1-11.522-9.751c-9.824-8.83-18.941-18.448-27.172-28.78-.425-.533-.84-1.075-1.267-1.605 1.861 2.307.64.839.252.324-1.02-1.357-2.041-2.712-3.039-4.085a231 231 0 0 1-15.201-23.867 249 249 0 0 1-8.639-17.09c-.63-1.378-1.236-2.766-1.851-4.15-.32-.719-1.236-2.945-.034-.044q-.39-.936-.774-1.873a249 249 0 0 1-3.646-9.48c-4.324-11.957-7.743-24.235-10.34-36.681-1.367-6.551-2.484-13.145-3.435-19.768-.357-2.486-.019-.155.038.297q-.17-1.33-.334-2.662a341 341 0 0 1-1.526-15.637c-1.023-13.758-1.229-27.572-.763-41.359a444 444 0 0 1 1.3-21.999c.71-8.505 1.591-16.453 2.753-23.99 2.798-18.156 6.905-36.092 11.921-53.758 10.025-35.307 23.439-69.608 37.239-103.58 6.716-16.532 13.029-33.202 19.168-49.96 3.636-9.923-12.718-16.952-17.211-7.256Z"/><path d="M359.083 492.765c-1.526.094-3.099.181-4.622.011l2.441.328c-2.227-.382-4.335-.975-6.592-1.221l2.615.351c-3.971-.585-7.81-1.723-11.505-3.282l2.447 1.033c-6.035-2.597-11.675-6.228-16.879-10.216l2.154 1.664c-8.278-6.396-15.56-13.957-22.573-21.688-1.583-1.745-3.964-2.679-6.227-2.983-2.312-.311-4.895-.015-6.915 1.287a13 13 0 0 0-3.891 3.891 8.1 8.1 0 0 0-1.287 4.032 8.2 8.2 0 0 0 .194 4.324l.052.378-.387-2.884a53.6 53.6 0 0 1-.012 13.659l.391-2.907a57 57 0 0 1-3.879 14.291l1.112-2.635a57 57 0 0 1-7.264 12.464l1.738-2.25c-2.687 3.443-5.762 6.55-9.215 9.227l2.263-1.748c-2.323 1.767-4.793 3.303-7.474 4.467l2.681-1.131c-1.905.793-3.858 1.37-5.901 1.674l2.991-.402a20.6 20.6 0 0 1-5.275.008l2.998.403a21.7 21.7 0 0 1-5.11-1.419l2.7 1.139c-1.988-.856-3.826-1.967-5.538-3.289l2.294 1.772a31 31 0 0 1-5.148-5.214l1.778 2.301a33.4 33.4 0 0 1-4.101-6.984l1.15 2.725c-1.538-3.663-2.456-7.535-3-11.463l.41 3.048c-.903-6.918-.644-13.905-.317-20.854l-.414-3.077a8.7 8.7 0 0 0-2.072-3.937c-1.478-1.913-3.589-3.596-6.013-4.148a13.8 13.8 0 0 0-6.155 0c-2.501.57-5.818 2.938-6.918 5.32-6.025 13.044-12.175 26.288-20.972 37.741l1.831-2.37c-3.164 4.078-6.627 8.034-10.709 11.22l2.355-1.82c-1.84 1.401-3.793 2.615-5.927 3.516l2.773-1.17a19 19 0 0 1-4.188 1.156l3.08-.414a16 16 0 0 1-4.097-.003l3.075.413a15.5 15.5 0 0 1-3.371-.921l2.76 1.165a17 17 0 0 1-3.533-2.042l2.334 1.803c-1.372-1.064-2.571-2.295-3.644-3.658l1.8 2.329c-1.445-1.891-2.6-3.959-3.529-6.148l1.157 2.742a33.4 33.4 0 0 1-2.164-7.932l.409 3.041c-.724-5.423-.299-10.963.023-16.401.391-6.625.391-13.006-.753-19.578l-1.163-2.755a8.7 8.7 0 0 0-2.971-3.236c-1.945-1.503-4.462-2.59-6.989-2.477-5.165.231-9.622 3.432-11.122 8.468-1.213 4.069-2.679 8.054-4.324 11.968l1.179-2.793c-2.863 6.741-6.49 13.14-10.966 18.944l1.83-2.369c-3.654 4.695-7.838 8.947-12.542 12.594l2.371-1.832a64.3 64.3 0 0 1-14.146 8.249l2.8-1.182c-5.156 2.145-10.557 3.589-16.086 4.361l3.119-.419a74 74 0 0 1-7.02.598c-3.08.118-6.09 1.228-8.298 3.437-2.035 2.035-3.568 5.375-3.437 8.298.136 3.035 1.133 6.183 3.437 8.298 2.245 2.061 5.164 3.557 8.298 3.437 14.04-.536 28.068-4.51 39.779-12.409 11.466-7.734 20.807-18.285 27.354-30.459a103.5 103.5 0 0 0 8.9-22.592h-22.245q.287 1.387.486 2.789l-.41-3.054c.681 5.187.407 10.411.069 15.613-.385 5.925-.468 11.648.36 17.539.648 4.615 2.25 9.054 4.397 13.184 2.485 4.78 6.11 8.671 10.449 11.8 2.111 1.523 4.616 2.601 7.077 3.391.819.263 1.653.433 2.502.559 1.938.288 3.897.626 5.863.502a31.6 31.6 0 0 0 16.996-6.258c8.839-6.617 15.762-15.414 21.572-24.746 5.604-8.999 9.876-18.768 14.166-28.438l-21.572-5.843c-.169 5.301-.346 10.616.021 15.913.42 6.059 1.262 12.287 3.45 17.989 2.21 5.759 5.126 10.829 9.365 15.365 4.097 4.385 9.145 7.531 14.74 9.607 5.691 2.112 12.31 2.118 18.13.553 6.362-1.711 11.815-5.278 16.827-9.43 8.197-6.79 13.977-15.86 17.982-25.617 2.233-5.44 3.388-11.033 4.133-16.847.763-5.959.375-11.747-.516-17.674l-18.126 10.551c5.934 6.373 12.043 12.62 18.765 18.172 3.91 3.23 7.965 6.34 12.266 9.035 4.164 2.609 8.733 4.649 13.355 6.294a49 49 0 0 0 6.496 1.833c3.748.776 7.741 1.534 11.529.753l-2.585.347c1.957-.146 3.903-.418 5.843-.708l-2.441.328c2.344-.257 4.66-.441 7.002-.786 1.98-.292 4.446-2.402 5.35-4.114.955-1.808 1.336-3.672 1.062-5.709-.559-4.157-4.331-8.038-8.793-7.763ZM221.248 165.433c-21.864-26.115-34.099-60.114-33.89-94.173.046-7.389.807-15.205 5.158-21.176 5.022-6.891 14.237-9.983 22.695-8.905s16.125 5.85 22.041 11.99c10.259 10.647 15.75 25.728 14.737 40.479 1.795-17.329 3.859-35.43 13.536-49.917s29.552-23.769 45.044-15.799c12.171 6.262 17.863 21.223 16.931 34.878s-7.245 26.31-13.889 38.277a129.5 129.5 0 0 1 23.76-27.269c6.673-5.778 14.946-11.137 23.676-9.837 10.216 1.521 17.174 12.148 17.705 22.464s-3.908 20.214-8.951 29.228a198.4 198.4 0 0 1-30.785 41.306c-1.165 1.199-2.426 2.432-4.042 2.86-2.11.559-4.293-.372-6.301-1.23-32.492-13.876-71.145-12.455-102.531 3.769"/><path d="M229.139 160.821a145 145 0 0 1-14.219-22.717l1.038 2.46c-2.078-4.956-4.716-9.665-6.823-14.621l1.064 2.522a149.2 149.2 0 0 1-10.386-38l.402 2.99c-1.318-9.988-2.279-20.426-.983-30.466l-.407 3.026c.394-2.846 1.041-5.634 2.128-8.299l-1.15 2.724a23.6 23.6 0 0 1 2.788-4.888l-1.785 2.311a21.6 21.6 0 0 1 3.833-3.823l-2.313 1.787a24.5 24.5 0 0 1 5.008-2.896l-2.734 1.154a27.3 27.3 0 0 1 6.701-1.819l-3.047.409a28 28 0 0 1 6.956-.019l-3.051-.41c2.815.386 5.531 1.154 8.153 2.243l-2.747-1.159c3.123 1.341 6.022 3.094 8.718 5.16l-2.332-1.801c3.312 2.588 6.245 5.593 8.815 8.916l-1.806-2.337a55 55 0 0 1 6.854 11.819l-1.167-2.766a55.7 55.7 0 0 1 3.795 13.96l-.415-3.087c.445 3.47.559 6.961.326 10.452-.191 2.856 1.434 6.253 3.407 8.226 2.018 2.018 5.328 3.537 8.226 3.407 3.009-.135 6.129-1.123 8.226-3.407l1.819-2.355a11.6 11.6 0 0 0 1.588-5.872c.417-3.94.847-7.879 1.368-11.807l-.417 3.1c1.29-9.596 3.142-19.206 6.9-28.173l-1.177 2.79c1.843-4.325 4.101-8.498 6.964-12.238l-1.825 2.362a45.6 45.6 0 0 1 7.847-7.851l-2.361 1.824c3.03-2.338 6.321-4.292 9.847-5.784l-2.785 1.175c2.909-1.201 5.928-2.066 9.045-2.513l-3.098.416c2.711-.36 5.435-.393 8.148-.038l-3.097-.416c2.268.325 4.466.914 6.588 1.78l-2.782-1.174a27.7 27.7 0 0 1 6.03 3.511l-2.356-1.82a30.4 30.4 0 0 1 5.123 5.136l-1.82-2.355c1.863 2.418 3.369 5.063 4.566 7.869l-1.173-2.779c1.424 3.425 2.363 7.008 2.862 10.681l-.415-3.09c.514 4.035.444 8.064-.084 12.095l.415-3.089c-.881 6.33-2.81 12.423-5.278 18.304l1.17-2.773c-2.399 5.647-5.256 11.08-8.23 16.442-1.48 2.669-1.987 5.967-1.169 8.936.741 2.69 2.821 5.605 5.329 6.931 5.787 3.057 12.321 1.273 15.866-4.16a134 134 0 0 1 6.148-8.656l-1.813 2.347c6.084-7.833 13.043-15.231 20.905-21.307l-2.347 1.813c2.72-2.072 5.592-3.935 8.736-5.3l-2.774 1.171c2.041-.852 4.139-1.478 6.332-1.789l-3.1.417a20.4 20.4 0 0 1 4.921-.01l-3.111-.418c1.504.218 2.946.606 4.353 1.18l-2.804-1.183a19.8 19.8 0 0 1 4.075 2.373l-2.383-1.841a23.3 23.3 0 0 1 4.097 4.122l-1.848-2.392a27.4 27.4 0 0 1 3.323 5.759l-1.197-2.835a28.4 28.4 0 0 1 1.873 6.791l-.426-3.17c.377 2.88.285 5.784-.097 8.659l.429-3.193c-.623 4.299-1.931 8.431-3.611 12.429l1.224-2.9c-2.679 6.257-6.099 12.209-9.683 17.985a201 201 0 0 1-11.546 16.645l1.915-2.478a202 202 0 0 1-8.072 9.791c-2.679 3.046-5.381 6.351-8.508 8.95l2.485-1.92a8.8 8.8 0 0 1-1.622 1.007l2.934-1.238c-.386.15-.74.255-1.145.342l3.265-.439a7.5 7.5 0 0 1-1.702.025l3.266.439c-1.32-.202-2.545-.667-3.77-1.183l2.936 1.239c-7.326-3.132-14.71-5.878-22.473-7.718s-15.697-2.962-23.627-3.467a124 124 0 0 0-21.201.466c-7.935.857-15.813 2.179-23.498 4.354-8.515 2.41-16.728 5.834-24.59 9.879-2.676 1.377-4.91 4.561-5.692 7.402-.816 2.965-.448 6.912 1.249 9.544 1.705 2.645 4.244 4.972 7.402 5.692 3.35.763 6.469.334 9.544-1.249 2.368-1.219 4.794-2.328 7.244-3.371l-2.971 1.254c10.211-4.307 20.92-7.285 31.903-8.78l-3.302.444a125.3 125.3 0 0 1 33.113.009l-3.284-.441c10.424 1.432 20.613 4.19 30.311 8.276l-2.936-1.239c2.298.975 4.622 2.17 7.113 2.583 3.048.505 5.186.678 8.234-.03 1.66-.385 3.289-1.069 4.754-1.932 3.545-2.088 6.349-5.396 9.093-8.401 5.112-5.597 9.862-11.505 14.396-17.577 8.587-11.499 16.572-24.059 21.462-37.614 1.114-3.087 1.967-6.259 2.443-9.509.37-2.523.742-5.062.792-7.617.05-2.572-.283-5.043-.649-7.593-1.015-7.079-4.421-13.499-8.973-18.926-2.221-2.647-5.089-4.959-8.088-6.648-4.088-2.302-8.201-3.351-12.83-3.78-1.909-.177-3.758.028-5.652.283-2.027.272-3.992.581-5.934 1.238-3.87 1.311-7.633 3.121-11.029 5.4-6.84 4.589-13.017 10.326-18.606 16.356-5.674 6.122-10.838 12.787-15.398 19.777l20.027 11.706c7.778-14.027 14.846-28.891 15.556-45.192.166-3.804-.286-7.534-.84-11.295a42 42 0 0 0-2.1-8.32c-2.53-6.893-6.215-13.493-11.723-18.469-5.4-4.878-12.085-8.556-19.342-9.634-3.674-.546-7.211-.877-10.905-.432-3.718.448-7.32 1.036-10.843 2.322-7.216 2.634-13.563 6.45-19.265 11.613-5.171 4.682-9.391 10.586-12.476 16.827-3.741 7.568-6.339 15.603-7.941 23.881-1.623 8.388-2.528 16.913-3.39 25.407h23.268c1.076-17.237-5.486-34.554-16.976-47.31-6.041-6.707-13.752-11.893-22.296-14.808-4.106-1.401-8.646-2.117-12.98-2.023-4.136.089-8.489.74-12.348 2.299-4.718 1.906-8.936 4.204-12.577 7.86-3.79 3.806-6.329 8.458-8.053 13.505-1.473 4.314-2.001 9.012-2.266 13.54-.22 3.75-.16 7.523.006 11.274a149 149 0 0 0 9.757 46.787 176 176 0 0 0 10.697 22.831c1.838 3.284 4.072 6.421 6.267 9.476 2.6 3.619 5.336 7.154 8.206 10.564a145 145 0 0 0 3.727 4.251c3.066 3.368 8.566 3.367 11.999.714 1.51-1.167 2.839-2.833 3.275-4.747.507-2.225.534-5.138-.921-7.042Zm157.35 379.736c-.23-4.852-.451-9.689-.594-14.543-.147-4.976-.492-9.957-.605-14.944-.22-9.767.03-19.681 1.309-29.373l-.394 2.933c1.19-8.68 3.397-17.151 6.792-25.235l-1.156 2.74c4.764-11.16 11.653-21.185 19.037-30.754l-1.853 2.398c1.485-1.919 2.974-3.835 4.456-5.756l-1.857 2.403c9.228-11.928 19.008-23.496 27.04-36.293 7.831-12.477 14.111-25.949 19.027-39.826 4.944-13.956 7.919-28.454 9.74-43.124 1.709-13.765 2.115-27.777 1.035-41.608-1.282-16.427-4.36-32.736-9.642-48.354l-11.413 14.982a1638 1638 0 0 1 84.696-4.412 1506 1506 0 0 1 108.865 1.094c7.786.36 15.729.41 23.471 1.336l-3.242-.436c1.035.151 2.022.371 3.006.731l-2.914-1.23a9.5 9.5 0 0 1 1.758 1.026l-2.477-1.914a9.4 9.4 0 0 1 1.264 1.307l-1.919-2.484c.447.629.81 1.278 1.133 1.978l-1.242-2.943c1.385 3.329 1.879 7.072 2.533 10.598a240 240 0 0 1 1.867 11.713l-.456-3.393c2.592 19.546 3.406 39.164 1.912 58.839a299 299 0 0 1-1.769 16.826l.461-3.431c-3.318 24.605-9.573 48.755-18.021 72.087a412 412 0 0 1-7.696 19.633l1.303-3.087c-6.636 15.701-14.6 30.724-21.952 46.086-4.112 8.591-7.996 17.338-11.193 26.314-3.148 8.838-5.248 17.816-6.429 27.12-1.3 10.243-.344 20.318 2.071 30.339 1.542 6.397 9.148 10.824 15.464 8.78 6.653-2.153 10.432-8.61 8.78-15.464-.44-1.827-.736-3.697-.998-5.557l.453 3.373c-.966-7.292-.792-14.738.184-22.02l-.462 3.44c1.607-11.447 5.306-22.449 9.76-33.078l-1.304 3.09c6.081-14.408 13.586-28.137 20.279-42.257 6.977-14.72 13.24-29.821 18.558-45.22 10.301-29.827 16.931-61.052 18.689-92.591.844-15.142.449-30.361-1.362-45.421-1.033-8.588-2.597-17.12-4.609-25.532-.961-4.017-1.915-8.387-4.222-11.876-1.897-2.869-4.096-5.213-7.114-6.93-3.236-1.841-6.469-2.401-10.093-2.81-8.379-.945-16.946-1.017-25.368-1.382a1504 1504 0 0 0-76.584-1.373c-34.195.256-68.371 1.661-102.458 4.396q-6.313.507-12.622 1.066c-3.847.341-6.892 1.554-9.294 4.664-2.169 2.808-3.346 6.81-2.118 10.318 4.138 11.826 7.037 24.046 8.727 36.459l-.416-3.094c2.206 16.539 2.277 33.254.057 49.793l.413-3.074c-2.398 17.514-7.137 34.679-14.007 50.967l1.193-2.827c-6.809 16.021-15.885 30.635-26.504 44.393l1.855-2.401c-10.421 13.469-21.641 26.486-29.881 41.473-4.377 7.961-7.988 16.491-10.135 25.331-2.272 9.354-3.279 19.095-3.353 28.712-.084 10.839 1.691 21.67 3.292 32.358l-.338-2.516c.25 2.218.719 4.335 1.182 6.51q.243 1.14.491 2.28l.249 1.139q.216 1.142.067-.007-.213-2.021.252 1.73.213.544.311 1.12c.189.751.34 1.514.511 2.269q.512 2.262 1.032 4.523c.877 3.826 4.949 6.146 8.652 5.649s7.024-3.808 6.838-7.745Z"/><path d="M365.391 556.097q8.185 1.095 16.374 2.173l-2.448-.329q1.75.25 3.506.472l-2.458-.33c18.302 2.59 36.628 5.341 55.033 7.091 17.543 1.669 35.087 2.949 52.702 3.518 35.819 1.155 71.596-.396 107.039-5.888 19.437-3.012 38.668-7.348 57.443-13.224 3.006-.941 5.709-2.877 7.319-5.628 1.536-2.625 2.187-6.493 1.235-9.436-.959-2.963-2.795-5.822-5.628-7.319-2.86-1.511-6.263-2.225-9.436-1.235-16.855 5.262-34.078 9.287-51.488 12.22a451 451 0 0 1-14.811 2.236l3.262-.438c-28.013 3.737-56.328 4.888-84.571 4.705-28.492-.184-56.953-1.913-85.407-3.209a2101 2101 0 0 1-47.665-2.728c-4.537-.31-8.874 4.211-8.674 8.674.1 2.243.837 4.57 2.541 6.134 1.817 1.668 3.713 2.218 6.134 2.541ZM264.254 830.418c6.693 1.095 13.285 2.532 19.949 3.768 6.527 1.211 13.155 2.053 19.727 2.985 13.9 1.97 27.899 3.432 41.88 4.685 26.965 2.416 54.011 3.941 81.079 4.488 26.9.543 53.822.121 80.687-1.357 27.564-1.516 55.039-4.204 82.387-7.959 26.631-3.656 53.107-8.451 79.31-14.453 3.349-.767 6.496-1.963 9.661-3.278 4.04-1.678 6.837-4.879 6.213-9.517-.534-3.972-4.206-7.865-8.519-7.521-7.266.58-14.18 2.13-21.276 3.688a890 890 0 0 1-19.938 4.137 917 917 0 0 1-49.394 8.263l-3.763.518c1.219-.167-1.077.142-1.439.189q-1.551.204-3.104.402a963 963 0 0 1-19.818 2.326 994 994 0 0 1-40.16 3.467c-26.713 1.766-53.493 2.476-80.262 2.219s-53.6-1.486-80.323-3.599c-26.688-2.11-53.249-5.561-79.928-7.688l-1.164-.093c-.204-.016-1.818-.117-.875-.046.851.063-.423-.049-.489-.058q-.584-.078-1.167-.16-2.529-.347-5.056-.703c-2.206-.31-4.106-.374-6.112.8-1.645.963-3.215 2.849-3.645 4.74-.87 3.82 1.161 9.041 5.54 9.757Z"/><path d="M431.054 549.673c-15.682-35.688-10.086-79.811 14.007-110.455 10.875-13.831 25.578-25.141 42.615-29.535s36.445-1.136 49.572 10.579c15.826 14.124 20.039 37.479 17.991 58.592s-9.292 41.386-12.484 62.356a203 203 0 0 0 54.433-3.781c1.022-26.747 2.216-54.262 13.181-78.68 4.431-9.867 10.357-18.975 15.638-28.414 33.978-60.737 40.188-133.853 30.935-202.83a1855 1855 0 0 1-183.282 8.846c-.035 28.904-.112 58.154-7.185 86.179-2.178 8.628-5.005 17.078-7.956 25.473-6.668 18.972-14.069 37.894-25.243 54.613-12.009 17.969-28.141 33.034-38.997 51.722-9.951 17.131-15.121 37.007-14.778 56.816.114 6.618.936 13.529 4.633 19.02 7.607 11.298 23.595 12.205 37.213 11.95"/><path d="M439.15 547.441a106 106 0 0 1-3.191-10.408l.324 2.413c-.269-3.194-1.326-6.283-1.977-9.42a111 111 0 0 1-1.293-7.602l.344 2.557c-1.396-10.637-1.436-21.543-.03-32.18l-.365 2.716a117.8 117.8 0 0 1 8.092-29.627l-1.048 2.484c3.505-8.236 7.989-16.01 13.44-23.113l-1.629 2.108c4.935-6.366 10.583-12.143 16.943-17.092l-2.112 1.631c5.278-4.056 10.989-7.49 17.12-10.096l-2.495 1.053c5.15-2.144 10.509-3.673 16.038-4.438l-2.78.374a61 61 0 0 1 15.958.018l-2.783-.374c4.765.679 9.406 1.924 13.844 3.791l-2.503-1.056c3.638 1.573 7.063 3.537 10.227 5.927l-2.123-1.64a48.2 48.2 0 0 1 8.508 8.487l-1.643-2.126c2.791 3.641 5.058 7.616 6.872 11.826l-1.061-2.514c2.506 5.946 4.072 12.213 4.933 18.599l-.377-2.806c1.15 8.918.879 17.878-.299 26.778l.378-2.816c-2.654 19.429-8.993 38.112-12.006 57.475-.546 3.508-.32 6.422 1.911 9.31 2.135 2.763 4.933 3.982 8.386 4.209 19.174 1.26 38.473-.243 57.293-4.085 2.242-.458 4.244-2.115 5.589-3.856 1.496-1.936 2.206-4.038 2.31-6.519.534-12.657 1.189-25.333 2.83-37.902l-.394 2.932c.255-1.745.472-3.495.705-5.243l-.394 2.935c1.695-12.44 4.505-24.736 9.372-36.34l-1.111 2.633c3.369-7.913 7.715-15.33 12.052-22.739 4.04-6.903 7.922-13.878 11.389-21.088a280.4 280.4 0 0 0 17.34-45.966c8.679-31.046 12.261-63.585 11.99-95.777-.151-17.87-1.627-35.647-3.862-53.368-.362-2.872-.939-5.649-3.199-7.723-2.024-1.858-4.874-3.457-7.723-3.199-11.875 1.075-23.783 1.711-35.679 2.514a1854 1854 0 0 1-35.733 2.067c-23.857 1.149-47.701 1.534-71.576 1.987a1873 1873 0 0 1-40.293.328c-6.972-.018-12.853 5.912-12.872 12.872-.057 21.323-.103 42.72-2.946 63.892l.46-3.424c-1.733 12.665-4.639 25.028-8.591 37.182-3.809 11.712-7.987 23.353-12.775 34.702l1.296-3.072c-6.148 14.486-13.698 28.073-23.326 40.541l2.008-2.599c-8.111 10.453-16.907 20.346-24.816 30.962-8.007 10.747-14.328 22.387-18.768 35.055-4.386 12.515-6.609 26.024-6.656 39.278-.024 6.805.382 14.085 2.892 20.475 1.752 4.46 3.749 7.952 6.826 11.634 2.085 2.495 4.813 4.562 7.516 6.319 10.906 7.088 24.86 7.575 37.438 7.351 3.247-.058 6.545-1.357 8.856-3.668 2.172-2.172 3.808-5.736 3.668-8.856-.299-6.686-5.506-12.649-12.524-12.524-5.028.089-10.083-.059-15.073-.71l3.359.451c-3.833-.528-7.608-1.382-11.193-2.859l3.038 1.282c-2.095-.896-4.067-1.992-5.892-3.359l2.584 1.997a24 24 0 0 1-4.213-4.208l2.002 2.591a24 24 0 0 1-2.786-4.817l1.291 3.059c-1.093-2.658-1.743-5.426-2.137-8.267l.457 3.405c-.984-7.771-.523-15.795.514-23.535l-.458 3.407a112.5 112.5 0 0 1 7.687-28.024l-1.293 3.063c4.388-10.309 10.414-19.647 17.238-28.499l-2.007 2.597c8.851-11.426 18.573-22.153 27.01-33.904 8.791-12.243 15.29-25.743 21.051-39.621 5.52-13.296 10.452-26.986 14.482-40.808 4.426-15.181 6.809-30.889 8.115-46.629 1.375-16.582 1.41-33.231 1.407-49.858l-12.872 12.872c21.328-.008 42.648-.31 63.95-1.369 21.096-1.049 42.18-2.272 63.239-3.925q8.935-.701 17.863-1.488c6.736-.594 13.549-1.009 20.234-2.033l-3.022.406c7.004-.839 14.003-1.648 21.018-2.386l-10.532-8.019q.194 1.374.38 2.749l-.389-2.898c3.408 26.258 4.431 52.913 2.609 79.336a349 349 0 0 1-2.275 22.415l.391-2.911c-2.669 19.633-7.074 39.041-13.582 57.766a267 267 0 0 1-6.023 15.7l1.108-2.625c-3.444 8.152-7.293 16.129-11.583 23.871-4.548 8.208-9.622 16.123-13.86 24.502-9.124 18.042-13.307 37.574-15.126 57.596-.952 10.483-1.271 21.004-1.632 31.52l7.899-10.375a210 210 0 0 1-14.708 2.508l2.854-.384a206 206 0 0 1-39.719 1.352l10.298 13.518c3.728-24.422 12.734-48.047 13.22-72.951.414-21.195-5.615-44.671-22.356-58.909-17.856-15.187-43.539-18.674-65.355-10.596-21.432 7.936-38.855 24.277-50.308 43.862-10.874 18.595-16.372 40.21-16.087 61.728.043 3.227.216 6.407.695 9.603l-.356-2.652c.704 6.958 1.823 13.882 3.676 20.632q.591 2.154 1.274 4.281c.252.785.469 1.592.747 2.368l.926 2.194-.492-1.284c.079.376.315.797.462 1.159 1.433 3.538 2.965 7.031 4.707 10.428 1.906 3.718 6.844 4.972 10.485 3.435 3.582-1.512 6.3-5.957 4.861-9.905Z"/><path d="M273.115 637.102c17.699 41.092 50.897 75.022 89.848 96.532 44.356 24.495 97.124 33.117 147.288 29.145 48.472-3.838 96.726-19.012 136.553-47.367 18.821-13.399 35.542-29.243 49.67-47.529 14.042-18.175 25.039-38.011 32.604-59.729 8.024-23.038 11.346-47.365 11.69-71.701.381-26.951-1.65-54.047-5.134-80.76a725 725 0 0 0-3.196-22.056c-.894-5.526-8.054-9.092-13.124-7.452-5.999 1.941-8.397 7.2-7.452 13.124.51 3.197 1 6.397 1.462 9.602.252 1.748.509 3.495.734 5.247-.048-.376-.296-2.263-.032-.216q.228 1.75.449 3.502a621 621 0 0 1 4.569 59.388c.38 13.21.346 26.457-.859 39.627a217 217 0 0 1-.746 6.925c-.258 2.074.03.063.028-.288.01 2.835-.979 5.997-1.538 8.784a185 185 0 0 1-3.852 15.633 183 183 0 0 1-6.502 18.496c-.178.432-.362.862-.538 1.295 1.282-3.161.341-.822.057-.172a199 199 0 0 1-3.516 7.616c-4.601 9.442-9.851 18.631-15.69 27.362a214 214 0 0 1-6.496 9.183c-.421.564-.848 1.122-1.272 1.684-1.455 1.931 1.535-1.941.142-.184-3.355 4.229-6.81 8.369-10.445 12.361a220 220 0 0 1-25.663 24.022c-.55.438-1.104.87-1.656 1.306-2.015 1.588 2.249-1.693.196-.157-2.29 1.713-4.586 3.413-6.928 5.055a233 233 0 0 1-14.503 9.382 249 249 0 0 1-15.474 8.478 249 249 0 0 1-13.916 6.472q-1.783.76.742-.311c-1.109.012-2.863 1.178-3.912 1.596a260 260 0 0 1-12.62 4.655 269 269 0 0 1-16.192 4.936c-11.165 3.024-22.506 5.292-33.951 6.949-2.741.397 2.859-.358.111-.011-.765.096-1.53.196-2.295.289a290 290 0 0 1-13.04 1.289c-5.652.43-11.317.693-16.985.79a285 285 0 0 1-36.098-1.644 274 274 0 0 1-4.788-.57q-.996-.129-1.991-.26l-.398-.051.751.101c-1.245.29-3.499-.506-4.773-.706q-2.382-.374-4.757-.792a258 258 0 0 1-17.666-3.745c-11.667-2.908-23.604-6.407-34.558-11.428.281.129 2.327 1.007.479.194-.734-.323-1.471-.64-2.203-.965a222 222 0 0 1-3.649-1.662c-2.882-1.343-5.755-2.706-8.593-4.14a210 210 0 0 1-27.191-16.434q-1.724-1.23-3.422-2.495c-.601-.448-3.647-2.609-1.298-.964-2.303-1.613-4.458-3.54-6.602-5.355-8.081-6.839-15.633-14.306-22.514-22.354-1.676-1.96-3.293-3.965-4.904-5.979-.267-.334-1.098-1.357.151.204-.44-.55-.858-1.122-1.28-1.687q-1.264-1.697-2.485-3.423a179 179 0 0 1-8.758-13.623 176 176 0 0 1-7.167-13.733c-1.919-4.1-8.135-5.461-11.805-3.095-4.32 2.785-5.013 7.353-3.095 11.805Z"/><path d="M365.257 636.835c10.988 12.624 22.53 24.865 34.727 36.33 12.656 11.896 26.215 22.789 40.703 32.381a255.3 255.3 0 0 0 46.914 24.501c16.892 6.694 34.554 10.949 52.595 13.029 17.779 2.05 36.199 1.742 53.695-2.233 1.374-.312 2.669-.613 3.973-1.164 1.908-.805 3.372-2.134 5.01-3.414 2.404-1.878 3.038-5.861 2.279-8.62-.791-2.871-3.217-5.516-6.188-6.188-.635-.144-1.266-.31-1.903-.442-2.034-.423-3.601-.397-5.691-.067-.364.058-.727.121-1.091.181a165 165 0 0 1-4.592.687l2.706-.364c-2.8.372-5.604.688-8.404 1.066l2.75-.37c-15.442 2.043-31.057 1.797-46.483-.254l2.749.369c-14.707-1.99-29.139-5.692-43.112-10.669a225 225 0 0 1-11.757-4.571l2.393 1.01c-16.36-6.921-31.863-15.752-46.433-25.896a311 311 0 0 1-12.019-8.815l1.888 1.458c-1.859-1.446-3.745-2.858-5.609-4.298l1.866 1.442a358 358 0 0 1-39.441-35.478 507 507 0 0 1-10.177-10.961c-2.82-3.126-8.52-3.082-11.349 0-3.108 3.386-2.95 7.96 0 11.349Zm107.321-17.1c10.249 8.52 20.396 17.176 30.847 25.449 10.959 8.675 22.468 16.671 34.367 24.004 11.921 7.346 24.518 13.516 37.445 18.877 12.266 5.087 24.962 9.11 37.987 11.728 8.033 1.614 16.199 2.751 24.372 3.335 3.629.259 7.267.397 10.906.404 4.513.008 9.212.087 13.492-1.478 2.029-.742 3.667-1.717 5.012-3.458 1.257-1.627 2.166-3.733 2.072-5.846a11.45 11.45 0 0 0-1.317-4.87c-1.034-1.958-3.581-3.981-5.766-4.434-2.05-.425-4.11-.776-6.208-.823-1.438-.032-2.887.093-4.326.126q-4.209.099-8.416-.034a167 167 0 0 1-16.758-1.4l2.739.368c-18.281-2.484-36.108-7.823-53.087-14.977l2.4 1.013c-13.627-5.772-26.756-12.779-39.48-20.32-6.438-3.815-12.742-7.84-18.986-11.963-6.111-4.035-12.29-7.955-18.344-12.079-6.936-4.725-13.734-9.611-20.463-14.625-1.309-.975-3.893-1.193-5.397-.706-1.477.478-2.685 1.277-3.638 2.51-1.967 2.546-2.142 6.961.548 9.197Zm122.103-10.181a168.2 168.2 0 0 0 33.922 25.604c5.845 3.341 11.934 6.261 18.013 9.147 6.706 3.185 13.742 5.634 20.884 7.645a158 158 0 0 0 11.236 2.725c1.886.385 3.779.756 5.683 1.038 1.708.253 3.421.476 5.133.697 2.443.315 4.728-.463 6.828-1.644 5.154-2.9 6.372-10.756 1.915-14.862-1.488-1.371-3.216-2.7-5.247-3.162-1.395-.318-2.89-.381-4.316-.571l2.676.36c-1.847-.251-3.692-.515-5.54-.759l2.672.359a160 160 0 0 1-20.472-4.128 161 161 0 0 1-9.874-3.021c-3.302-1.127-6.721-1.98-9.95-3.318l2.104.888c-12.831-5.417-24.944-12.447-35.974-20.954l1.648 1.273a161 161 0 0 1-10.123-8.535c-3.06-2.803-8.233-3.251-11.218 0-2.878 3.136-3.172 8.12 0 11.218M261.474 851.242c-29.165 1.053-59.543 2.425-85.142 16.44-11.575 6.337-22.542 16.513-23.765 29.655-5.029 54.096 122.423 63.118 155.759 68.074 74.265 11.04 149.942 11.991 224.687 5.69 66.858-5.637 135.994-10.313 199.044-35.103 29.617-11.645 81.474-55.872 33.559-82.034-22.414-12.238-51.707-7.778-76.144-10.523-3.425-.385-6.972-.759-10.254.294-5.478 1.756-8.933 6.971-12.529 11.46-21.289 26.579-57.743 34.744-91.455 39.561a1051 1051 0 0 1-243.747 6.233c-34.046-3.1-71.886-10.125-91.71-37.978"/><path d="M261.474 841.594c-13.592-.046-27.197.041-40.732 1.456-14.905 1.559-28.994 4.698-42.791 10.607-12.352 5.29-24.015 13.484-31.269 25.006-5.858 9.305-7.344 20.326-5.209 30.967 2.901 14.459 14.194 25.563 26.147 33.231 13.415 8.606 29.037 14.005 44.319 18.222 29.214 8.063 59.374 11.515 89.356 15.342 1.311.167 5.969.831.659.075 1.014.144 2.028.28 3.041.428 8.023 1.172 16.056 2.28 24.104 3.272a874 874 0 0 0 45.307 4.378c30.287 2.141 60.675 2.769 91.027 2.073 29.687-.68 59.239-2.957 88.816-5.456 29.19-2.466 58.372-5.212 87.331-9.707 28.177-4.374 56.158-10.563 83.06-20.122 10.055-3.573 19.895-7.496 28.984-13.136 8.546-5.304 16.719-11.585 23.782-18.759 14.225-14.448 25.184-34.766 15.851-54.816-4.794-10.298-15.056-18.069-25.142-22.716-12.907-5.947-26.729-8.031-40.829-8.803-12.603-.69-25.25-.365-37.816-1.705-8.756-.934-16.541.629-23.416 6.36-4.35 3.626-7.357 8.548-11.17 12.691a78 78 0 0 1-6.152 5.978c-.872.759-1.758 1.725-2.762 2.298 2.313-1.32.583-.447-.049.019a89 89 0 0 1-2.192 1.563c-4.711 3.252-9.729 6.043-14.92 8.45-.672.312-4.546 2.143-1.709.799-1.372.65-2.856 1.154-4.276 1.687a154 154 0 0 1-8.327 2.844c-5.664 1.76-11.418 3.218-17.213 4.472s-11.648 2.302-17.511 3.227c-2.791.44-5.586.851-8.384 1.245q-2.683.379-5.367.741c2.202-.297-.388.05-.927.12q-1.79.235-3.581.464a1085 1085 0 0 1-45.481 4.82 1052 1052 0 0 1-90.781 3.789 1049 1049 0 0 1-91.37-4.118 511 511 0 0 1-8.652-.831 358 358 0 0 1-6.31-.725c-1.526-.19-2.366-.239-.342-.032-5.736-.586-11.5-1.755-17.131-2.968s-11.164-2.675-16.603-4.501c-2.452-.824-5.239-1.547-7.51-2.799 2.56 1.411.843.352.108.023a96 96 0 0 1-5.908-2.878 86 86 0 0 1-6.728-3.966c-1.206-.789-2.367-1.632-3.546-2.461-.884-.621-.761-1.215.441.36-.281-.369-.957-.768-1.339-1.086a76 76 0 0 1-6.031-5.577 66 66 0 0 1-2.645-2.901c-.543-.633-3.294-4.341-1.376-1.686-3.726-5.16-10.785-8.184-16.692-4.377-5.116 3.298-8.372 11.158-4.377 16.692 7.279 10.081 16.008 18.336 26.799 24.614 10.102 5.877 21.339 9.997 32.643 12.868 25.191 6.399 51.77 7.761 77.615 9.243 59.282 3.398 118.887 1.82 177.887-4.912 25.802-2.944 52.349-5.692 77.213-13.579 11.378-3.609 22.677-8.341 32.673-14.926 5.216-3.436 10.23-7.334 14.714-11.689 4.086-3.968 7.286-8.58 11.045-12.823.549-.62 1.743-2.458 2.557-2.58l-1.042.768q.535-.396 1.111-.728c.634-.381 2.52-1.2-.043-.094.502-.216 2.33-.457-.182-.175.679-.076 1.375-.088 2.059-.089 1.734-.003 3.459.206 5.181.384 6.169.638 12.355.893 18.552 1.039 6.083.144 12.169.208 18.248.496 3.035.144 6.069.341 9.093.633q1.251.121 2.501.265c.672.077 2.951.428.306.023 1.64.251 3.276.511 4.904.83a80 80 0 0 1 8.584 2.157c1.244.391 2.464.842 3.691 1.279 2.091.745.275.086-.131-.093q1.343.589 2.657 1.241a59 59 0 0 1 7.253 4.279c.135.093 2.423 1.764.843.572-1.336-1.007.065.061.381.342 1.045.929 2.08 1.847 3.042 2.864.629.665 1.159 1.559 1.855 2.135-1.953-1.616-1.079-1.529-.469-.498.275.465.589.907.862 1.375.41.705.694 1.562 1.154 2.227-1.48-2.137-.788-2.12-.502-1.14.167.572.388 1.129.549 1.704.132.473.22.957.349 1.43.444 1.63-.66.641-.088-1.132-.193.599.148 1.662.163 2.319.019.879-.048 1.746-.084 2.623-.082 1.977-.64-.37.171-1.098-.238.214-.275 1.463-.341 1.757-.384 1.711-.987 3.32-1.549 4.973-.503 1.477 1.346-2.847.323-.787-.191.384-.364.777-.555 1.161a49 49 0 0 1-1.559 2.887c-1.033 1.77-2.2 3.437-3.373 5.115-1.111 1.59.426-.574.58-.72-.414.391-.746.939-1.11 1.382a79 79 0 0 1-2.588 2.992c-2.985 3.287-6.221 6.344-9.615 9.204-.953.803-1.926 1.58-2.896 2.361-1.206.971-.186-.432.628-.482-.194.012-1.123.843-1.189.892a125 125 0 0 1-6.018 4.189 114 114 0 0 1-10.75 6.239c-.9.456-4.708 1.591-5.099 2.395.308-.632 2.633-1.054 1.198-.515-.707.266-1.407.555-2.112.827a340 340 0 0 1-5.806 2.186c-12.858 4.706-25.993 8.633-39.278 11.937-13.487 3.353-27.127 6.066-40.838 8.323a667 667 0 0 1-15.071 2.304q-1.119.159-2.238.314c-.169.023-3.818.514-1.327.185a972 972 0 0 1-20.766 2.511c-27.896 3.073-55.92 5.441-83.915 7.419-58.963 4.166-118.307 3.696-177.093-2.723a839 839 0 0 1-16.06-1.906l-2.376-.308c-3.908-.508 2.336.328-1.568-.209-4.229-.582-8.449-1.227-12.678-1.805-6.058-.827-12.127-1.566-18.195-2.322q-4.88-.606-9.756-1.244l-2.184-.289c-2.154-.284 2.788.38 1.238.166l-1.406-.192a895 895 0 0 1-5.177-.726c-7.585-1.09-15.155-2.292-22.694-3.669-15.702-2.867-31.368-6.412-46.459-11.668a183 183 0 0 1-5.226-1.907q-1.278-.489-2.547-.999c-.466-.187-.929-.381-1.395-.568-1.948-.781 2.693 1.197.659.277-3.157-1.428-6.3-2.856-9.354-4.499-3.008-1.618-5.941-3.381-8.739-5.342-.562-.394-1.106-.815-1.669-1.206-1.432-.995 1.243.975 1.212.948-.311-.275-.657-.52-.979-.783a56 56 0 0 1-3.48-3.08 47 47 0 0 1-2.918-3.078c-.382-.443-2.036-2.531-.515-.569 1.538 1.984-.193-.318-.519-.803a35 35 0 0 1-2.033-3.432c-.299-.579-.53-1.214-.851-1.779 2.009 3.535.68 1.666.253.419s-.771-2.517-1.029-3.807c-.058-.288-.097-.584-.161-.87-.42-1.874.262 3.071.207 1.637-.029-.751-.147-1.502-.18-2.255-.06-1.385.206-2.838.094-4.204-.084-1.025-.711 2.874-.012.236.154-.581.255-1.174.412-1.756s.361-1.139.525-1.716c.782-2.75-1.156 2.089.16-.451.623-1.204 1.258-2.384 1.997-3.524.391-.603.781-1.364 1.293-1.867-.253.249-1.64 1.922-.16.272 1.994-2.222 4.117-4.171 6.351-6.145 1.401-1.237-2.311 1.566.188-.133.518-.352 1.021-.727 1.539-1.079a67 67 0 0 1 3.555-2.251c2.793-1.651 5.702-3.138 8.638-4.515.638-.299 1.283-.582 1.923-.878 3.058-1.412-1.34.464.574-.245 1.487-.551 2.953-1.155 4.448-1.686a127 127 0 0 1 9.595-2.973c6.336-1.7 12.73-3.136 19.202-4.212q2.372-.394 4.751-.736c.465-.067 2.76-.371.847-.123q1.072-.138 2.143-.269c3.219-.393 6.444-.731 9.672-1.034 6.433-.604 12.874-1.111 19.318-1.6 5.021-.381 9.894-4.165 9.648-9.648-.235-5.242-4.239-9.63-9.648-9.648Z"/></svg>