<?xml version="1.0" encoding="UTF-8"?><svg xmlns="http://www.w3.org/2000/svg" data-name="ARTWORK" viewBox="0 0 1000 1000"><path d="M291.683 808.129c5.454-41.838.63-84.384-7.292-125.587-7.926-41.228-19.405-81.64-29.649-122.323-21.929-87.084-43.403-175.366-47.028-264.871-.352-8.701-.489-17.396-.144-26.1a271 271 0 0 1 1.586-20.406c.073-.63.723-5.506.226-1.98 2.196-15.563 5.701-30.912 10.698-45.819a246 246 0 0 1 3.634-10.102c.64-1.663 1.315-3.311 1.974-4.966 1.342-3.372-1.204 2.705.252-.61.427-.973.848-1.949 1.276-2.922a239 239 0 0 1 10.394-20.803 238 238 0 0 1 11.681-18.703c2.186-3.163 4.475-6.244 6.779-9.32-2.153 2.874 1.151-1.433 1.699-2.113a237 237 0 0 1 4.013-4.835 241.3 241.3 0 0 1 32.39-31.455c.568-.457 5.08-3.915 2.167-1.727 1.415-1.063 2.826-2.131 4.257-3.174a248 248 0 0 1 10.085-6.976 253 253 0 0 1 19.918-11.796 258 258 0 0 1 15.184-7.455 256 256 0 0 1 4.532-1.995q-2.252.942-.821.345c7.406-3.035 14.898-5.818 22.531-8.231 16.716-5.285 33.899-8.827 51.239-11.327.224-.032 4.71-.638 1.682-.243a424 424 0 0 1 9.579-1.137 410 410 0 0 1 16.556-1.43 400 400 0 0 1 29.232-.862c10.245.075 20.488.551 30.694 1.452 4.638.409 9.263.926 13.884 1.494 4.436.545-1.587-.262 1.054.141 1.149.176 2.301.329 3.45.502q4.133.624 8.25 1.347c19.551 3.434 38.818 8.59 57.365 15.682 2.144.82 4.271 1.678 6.399 2.539 4.185 1.691-2.464-1.126 1.659.703 1.047.465 2.098.92 3.143 1.39a263 263 0 0 1 14.208 6.899c7.628 3.996 14.991 8.475 22.005 13.473q1.468 1.047 2.916 2.124c-.03-.022 3.089 2.368 1.414 1.059s1.393 1.123 1.367 1.102q1.39 1.122 2.757 2.271a179 179 0 0 1 9.657 8.73c5.893 5.732 11.37 11.867 16.452 18.327-2.095-2.663.308.434.6.827a190 190 0 0 1 5.389 7.654 190 190 0 0 1 6.789 10.96 198 198 0 0 1 9.553 18.939c.463 1.052 1.358 3.272.415.943 6.419 15.855 11.313 32.436 13.895 49.366.099.651.554 4.42.109.653.132 1.119.272 2.237.394 3.357q.305 2.82.537 5.647c.345 4.199.578 8.407.737 12.617.315 8.391.331 16.79.304 25.186-.113 34.591-.724 70.084 13.627 102.322 7.138 16.036 18.364 29.75 31.968 40.747 3.315 2.68 6.709 5.261 10.101 7.842 1.289.981 2.639 1.92 3.882 2.958-2.915-2.436-.425-.32.157.143q1.088.864 2.159 1.751c2.41 1.999 4.746 4.094 6.885 6.385q.747.798 1.46 1.627c1.992 2.325-.251.567-.029-.109-.162.492 2.491 3.846 2.824 4.462.285.528.534 1.076.818 1.603 1.5 2.777-.939-3.032.019.046.486 1.561 1.02 3.083 1.397 4.68.191.807.235 1.764.519 2.539.705 1.925-.236-3.45.018.042.176 2.41.338 4.801.314 7.22-.021 2.168-.214 4.314-.341 6.475-.23 3.916.655-2.776-.11.862-.184.876-.329 1.758-.528 2.63-.405 1.771-.977 3.464-1.516 5.195-.584 1.877-.468-.492.395-.845-.438.179-1.273 2.548-1.556 3.035-.273.471-.588.921-.855 1.394l-.446.668q-1.284 1.79.789-.943c-.139.828-2.012 2.306-2.552 2.846-.887.887-1.874 1.654-2.779 2.516-2.006 1.911 2.798-1.882.478-.364-.623.408-1.219.871-1.835 1.291-4.666 3.177-9.672 5.822-14.322 9.025-14.185 9.77-23.651 23.236-27.753 40.087-4.792 19.688-2.074 39.965 1.637 59.577 1.736 9.175 3.727 18.299 5.404 27.485.432 2.367.855 4.736 1.232 7.112q.253 1.606.487 3.214c-.494-3.36.097.865.145 1.289.519 4.586.843 9.199.836 13.815-.006 4.051-.368 8.06-.776 12.087.377-3.724-.311 1.814-.509 2.868a89 89 0 0 1-1.39 6.213 78 78 0 0 1-2.408 7.584c-1.219 3.228.056.103.013.077.405.243-4.171 7.897-4.71 8.726-.396.609-.827 1.196-1.223 1.804-.705 1.082-1.995 1.732.443-.481-1.017.922-1.821 2.231-2.756 3.257-2.104 2.309-4.405 4.365-6.789 6.378-2.35 1.985 2.744-1.915.198-.173-.708.484-1.398.994-2.11 1.472a76 76 0 0 1-3.666 2.308 90 90 0 0 1-8.695 4.493c-.299.135-3.101 1.3-.806.373 2.314-.934-.567.215-.858.33a131 131 0 0 1-4.42 1.649 170 170 0 0 1-10.746 3.372c-7.264 2.035-14.624 3.765-21.989 5.391-14.635 3.231-28.623 9.445-39.605 19.844-9.488 8.984-15.807 20.992-19.321 33.476-6.842 24.306-4.402 50.288-2.347 75.078.234 2.827.464 5.654.678 8.483.183 2.43.525 4.824.86 7.241q.103.76.214 1.517c.422 2.848-.428-3.501-.085-.638.292 2.437.603 4.87.839 7.314.112 1.159.195 2.32.298 3.48.145 1.628.299 3.065.55 4.759-.582-3.916-.292-1.827-.32-.755-.175 6.603 5.929 12.917 12.617 12.617 6.986-.313 12.43-5.542 12.617-12.617.025-.954.232-3.399-.228.755.183-1.651.433-3.144.552-4.759.085-1.158.135-2.32.183-3.48.113-2.688.162-5.379.18-8.069.039-5.869-.556-11.657-1.093-17.497-1.151-12.52-2.291-25.069-2.275-37.654.007-6.097.478-12.095 1.035-18.158.18-1.959-.574 3.661-.098.792.134-.81.254-1.622.395-2.431q.35-2.003.782-3.991a82 82 0 0 1 2.314-8.471c.457-1.366 1.024-2.692 1.492-4.051.602-1.75-1.577 3.208-.311.772.357-.687.655-1.409 1.002-2.103 1.274-2.547 2.761-4.945 4.35-7.304.923-1.37.639-2.352-.282.29.106-.304.735-.923.99-1.206.968-1.073 1.909-2.16 2.933-3.183 1.043-1.042 2.148-2.002 3.249-2.98.332-.295.851-.799 1.264-1.03-3.575 2.007-.231.242.586-.307 2.433-1.635 5.035-2.912 7.663-4.199 2.877-1.408-2.96 1.053.104-.041.898-.321 1.784-.672 2.686-.982a83 83 0 0 1 5.73-1.716c7.401-1.961 15.056-2.913 22.5-4.727 14.074-3.429 28.416-8.123 40.787-15.804 12.348-7.666 22.94-18.533 29.056-31.823 7.381-16.038 10.313-34.062 9.142-51.658-1.343-20.187-6.819-39.689-10.414-59.514-.392-2.162-.76-4.328-1.095-6.499-.054-.348-.614-4.648-.22-1.419a184 184 0 0 1-.37-3.223c-.508-4.858-.785-9.746-.68-14.632.045-2.082.156-4.163.35-6.236.044-.47.711-4.473.118-1.212.148-.813.273-1.629.431-2.441a62 62 0 0 1 1.841-7.21c.256-.793.55-1.572.814-2.362q.89-2.257.007-.176.435-.991.911-1.965a49 49 0 0 1 2.468-4.457c.425-.679.894-1.328 1.328-2.001 1.551-2.401-.296.136-.234.244-.47-.819 6.381-6.326 6.994-6.91 1.36-1.296-2.914 1.996-.573.45.666-.44 1.302-.934 1.962-1.385a99 99 0 0 1 3.304-2.15c2.391-1.499 4.835-2.912 7.239-4.389 12.874-7.914 22.873-18.357 26.547-33.438 4.209-17.278 3.047-37.933-7.685-52.72-4.275-5.891-9.232-10.78-14.935-15.269-3.468-2.73-6.998-5.379-10.522-8.036-.585-.441-4.946-3.85-2.037-1.537-1.669-1.328-3.34-2.651-4.969-4.028-3.267-2.76-6.41-5.668-9.334-8.791-1.361-1.454-2.624-2.985-3.937-4.481-2.478-2.823.978 1.426-.363-.412-.796-1.09-1.599-2.172-2.362-3.286a94 94 0 0 1-6.09-10.229 97 97 0 0 1-2.627-5.57c1.153 2.647.328.781.119.209-.511-1.397-1.059-2.778-1.547-4.184-2.703-7.791-4.53-15.864-5.765-24.011q-.17-1.126-.326-2.254c.503 3.575-.007-.258-.072-.832q-.323-2.855-.569-5.718a273 273 0 0 1-.801-13.327c-1.299-34.877 2.225-69.798-5.036-104.253-7.456-35.379-23.394-68.74-46.972-96.202-25.122-29.26-58.649-48.53-94.598-61.478-38.865-13.999-80.784-19.86-121.999-19.578-38.278.262-77.683 5.153-114.114 17.243-31.675 10.511-61.002 26.379-86.965 47.335-50.952 41.127-82.687 101.085-91.19 165.668-5.277 40.081-.722 80.934 4.769 120.75 6.272 45.486 16.151 90.384 27.043 134.96 10.3 42.154 21.627 83.985 33.035 125.846 11.242 41.254 21.899 83.137 25.361 125.88 1.609 19.862 1.561 39.832-.797 59.632-.611 5.133 4.83 9.556 9.556 9.556 5.719 0 8.885-4.414 9.556-9.556Z"/><path d="M534.4 241.014a341 341 0 0 0-7.471-.975l2.68.36c-21.342-3.029-43.175-1.671-64.311 2.244a184 184 0 0 0-28.571 7.707c-10.166 3.642-20.186 7.947-29.709 13.049-8.951 4.795-17.538 11.249-22.897 20.036-3.12 5.115-4.872 11.152-4.964 17.142-.095 6.164 1.78 12.418 4.819 17.742 6.026 10.555 16.592 17.36 28.038 20.755 5.548 1.645 11.36 2.401 17.098 2.998 5.453.568 10.937.827 16.417.927 21.42.39 42.877-1.867 64.266.039q3.525.315 7.033.782l-3.411-.458c9.69 1.319 19.259 3.594 28.287 7.401l-3.066-1.294c5.62 2.402 11.046 5.357 15.919 9.061l-2.598-2.007c2.522 1.949 4.851 4.118 6.817 6.633l-2.007-2.598c1.271 1.674 2.344 3.456 3.175 5.388l-1.294-3.067a22.2 22.2 0 0 1 1.411 5.13l-.459-3.413a24.3 24.3 0 0 1-.018 6.346l.459-3.414c-.351 2.395-1.017 4.705-1.945 6.939l1.295-3.068a33.5 33.5 0 0 1-4.083 6.989l2.008-2.599c-1.876 2.421-4.053 4.53-6.463 6.415l2.6-2.008c-3.756 2.879-7.919 5.114-12.269 6.954l3.069-1.295c-7.074 2.947-14.529 4.969-21.968 6.761a243 243 0 0 1-24.079 4.511l3.435-.462a245 245 0 0 1-50.761 1.519 246 246 0 0 1-14.392-1.506l3.473.467a244 244 0 0 1-13.811-2.275q-3.436-.669-6.85-1.44c-2.083-.47-4.329-.799-6.314-1.592l3.135 1.323c-.345-.157-.665-.341-.996-.524-1.223-.675-2.533-1.166-3.827-1.711l3.118 1.316a8.4 8.4 0 0 1-1.319-.752l2.565 1.982a5.4 5.4 0 0 1-.782-.742l1.94 2.511a3.2 3.2 0 0 1-.35-.602l1.233 2.923a1.5 1.5 0 0 1-.096-.411l.433 3.224-.002-.21-.431 3.21c.102-.683.212-1.277.311-2.015.228-1.7.097-3.216-.24-4.907l-3.03 11.463.191-.172-2.385 1.842.231-.16c2.558-1.772 4.566-3.959 5.415-7.041.777-2.82.426-6.576-1.188-9.079-1.622-2.516-4.037-4.73-7.041-5.415-2.955-.673-6.493-.604-9.079 1.188-.95.658-1.948 1.402-2.807 2.174l8.331-3.451c-5.732-.14-10.692 4.18-12.168 9.551-1.081 3.934-.241 7.799 1.548 11.345 2.522 4.997 7.276 7.811 12.54 9.073a239 239 0 0 0 18.311 3.636c13.455 2.13 27.029 3.399 40.656 3.441 13.471.041 26.866-1.142 40.183-3.132 12.234-1.828 24.43-4.515 36.204-8.33 6.195-2.008 12.407-4.439 18.024-7.76 3.253-1.923 6.322-4.232 9.17-6.705 2.763-2.399 5.015-5.235 7.166-8.188 2.127-2.919 3.543-6.107 4.912-9.438 1.386-3.373 1.952-6.736 2.401-10.353.875-7.053-.902-14.469-4.464-20.584-3.715-6.379-9.238-11.235-15.221-15.409-5.427-3.785-11.35-6.568-17.442-9.101-11.585-4.817-23.99-7.035-36.422-8.284-25.626-2.576-51.372 1.096-77.029-.65-3.005-.204-6.005-.48-8.99-.879l3.407.458c-5.229-.724-10.398-1.871-15.281-3.911l3.061 1.292c-2.778-1.194-5.423-2.653-7.832-4.486l2.593 2.003a31.5 31.5 0 0 1-5.432-5.418l2.003 2.593a28 28 0 0 1-3.462-5.887l1.291 3.06a23.4 23.4 0 0 1-1.574-5.761l.458 3.405a21 21 0 0 1 .031-5.225l-.457 3.405c.265-1.77.741-3.469 1.419-5.125l-1.291 3.059c.888-2.072 2.055-3.98 3.432-5.763l-2.002 2.592c2.064-2.607 4.5-4.862 7.126-6.894l-2.591 2.002c4.066-3.099 8.498-5.653 13.014-8.032a205 205 0 0 1 15.766-7.456l-2.997 1.265c14.018-5.889 28.758-10.423 43.671-13.393 4.25-.846 8.526-1.555 12.821-2.138l-3.016.405c13.856-1.85 27.963-2.444 41.921-1.66 2.339.131 5.407-1.173 6.986-2.894 1.498-1.632 2.421-3.468 2.717-5.673.283-2.106.014-4.46-1.172-6.3-1.289-1.999-3.432-4.195-5.905-4.541Z"/><path d="M433.565 220.042c.461 2.764.887 5.527 1.26 8.304l-.291-2.168c.974 7.261 1.859 14.529 2.997 21.766 1.021 6.498 1.955 13.009 2.966 19.509 2.044 13.137 4.23 26.247 6.15 39.404a2039 2039 0 0 1 3.144 22.432l-.361-2.684c4.079 30.383 7.701 60.832 10.567 91.354.399 4.248.755 8.499 1.239 12.738.326 2.851.549 5.74 1.025 8.57.375 2.231.878 4.442 1.292 6.666.391 2.105 2.444 4.616 4.306 5.6 1.893 1 3.844 1.398 5.975 1.112 4.624-.621 8.031-4.5 8.125-9.203.075-3.781.133-7.497-.102-11.275s-.556-7.514-.912-11.269a2008 2008 0 0 0-7.36-66.013c-3.869-30.16-8.667-60.216-14.044-90.143-1.475-8.212-3.269-16.377-5-24.538s-4.076-16.179-5.945-24.305c-.915-3.976-5.7-6.701-9.586-5.443-1.886.61-3.705 1.779-4.657 3.581-1.035 1.96-1.149 3.827-.786 6.005Zm41.228-13.939c.461 2.764.887 5.527 1.26 8.304l-.291-2.168c.974 7.261 1.859 14.529 2.997 21.766 1.021 6.498 1.955 13.009 2.966 19.509 2.044 13.137 4.23 26.247 6.15 39.404a2039 2039 0 0 1 3.144 22.432l-.361-2.684c4.079 30.383 7.701 60.832 10.567 91.354.399 4.248.755 8.499 1.239 12.738.326 2.851.549 5.74 1.025 8.57.375 2.231.878 4.442 1.292 6.666.391 2.105 2.444 4.616 4.306 5.6 1.893 1 3.844 1.398 5.975 1.112 4.624-.621 8.031-4.5 8.125-9.203.075-3.781.133-7.497-.102-11.275s-.556-7.514-.912-11.269a2008 2008 0 0 0-7.36-66.013c-3.869-30.16-8.667-60.216-14.044-90.143-1.475-8.212-3.269-16.377-5-24.538s-4.076-16.179-5.945-24.305c-.915-3.976-5.7-6.701-9.586-5.443-1.886.61-3.705 1.779-4.657 3.581-1.035 1.96-1.149 3.827-.786 6.005Zm160.673 644.453-385.331 4.854c-3.732.047-7.762.194-10.7 2.495-3.606 2.826-4.361 7.892-4.845 12.447l-9.905 93.172a5557 5557 0 0 0 443.483 10.801 1687 1687 0 0 0 1.96-125.599l-38.481-4.959"/><path d="M635.466 840.537c-33.671-.067-67.335-.288-101.005-.582-33.674-.294-67.33-.262-101.005-.096s-67.635.7-101.45 1.079l-50.28.564-25.362.284c-9.648.108-20.636-.241-27.693 7.626-6.796 7.575-7.25 17.036-8.286 26.655l-2.698 25.051c-1.798 16.695-3.506 33.401-5.253 50.102-.429 4.103-.853 8.207-1.323 12.306-.355 3.092 1.745 7.55 3.976 9.598 2.762 2.536 5.845 3.703 9.598 3.976 57.558 4.181 115.167 7.073 172.843 9.021 57.657 1.947 115.332 2.986 173.022 2.93 32.537-.032 65.088-.227 97.618-.964 7.69-.174 13.415-6.173 13.76-13.76a1693 1693 0 0 0 1.634-97.73 1715 1715 0 0 0-.572-27.869c-.092-3.209-1.335-6.862-3.767-9.094-2.679-2.46-5.51-3.331-9.094-3.767-12.83-1.561-25.662-3.109-38.481-4.762-2.978-.384-6.938 1.692-8.954 3.709-2.196 2.196-3.85 5.8-3.709 8.954.147 3.275 1.223 6.672 3.709 8.954 2.647 2.43 5.423 3.254 8.954 3.709l11.369 1.465-3.366-.452c9.016 1.252 18.039 2.457 27.059 3.685l-9.442-12.402c.464 32.59 0 65.192-1.417 97.755q-.608 13.928-1.442 27.843l13.76-13.76c-57.695.482-115.357.391-173.049-.471s-115.342-2.622-172.965-5.279c-32.494-1.498-64.991-3.049-97.47-4.865l13.574 13.574c1.565-15.981 3.414-31.939 5.138-47.904 1.699-15.737 3.05-31.537 5.011-47.243l-.485 3.612c.304-2.206.736-4.354 1.582-6.422l-1.369 3.243c.222-.478.536-.938.731-1.419.413-1.021-2.363 2.377-.79.977 1.423-1.268-1.203.874-1.23.847-.052-.052 1.754-.921 1.822-.95l-3.241 1.368a18 18 0 0 1 3.359-.855l-3.605.484c6.008-.759 12.254-.4 18.302-.485l18.688-.261 38.266-.535 76.532-1.071c25.51-.357 51.022-.863 76.532-1.379 25.37-.514 50.727-1.483 76.087-2.343 28.624-.971 57.247-1.835 85.876-2.614 5.235-.142 10.266-4.507 10.02-10.02-.244-5.438-4.402-10.008-10.02-10.02ZM390.213 163.184c-9.647 2.878-19.234 6.602-28.197 11.184-8.805 4.501-16.803 10.103-24.271 16.582-14.186 12.306-25.913 27.708-34.741 44.247-8.99 16.844-15.448 35.158-19.051 53.903-3.758 19.549-5.032 39.578-2.7 59.376 1.255 10.653 3.119 21.195 6.032 31.525 2.882 10.218 6.717 20.163 11.197 29.784 8.528 18.313 20.382 35.272 34.677 49.552 14.705 14.69 32.177 26.542 51.176 34.935 10.486 4.633 21.227 8.568 32.323 11.471 11.146 2.916 22.528 4.814 33.977 6.051 22.089 2.388 44.457 1.24 66.278-2.871 20.809-3.92 41.275-11.083 59.793-21.39 13.501-7.515 26.06-17.136 36.775-28.273 10.328-10.735 19.258-23.026 26.242-36.185 6.945-13.086 12.259-27.175 15.75-41.57 3.545-14.615 5.42-29.761 5.65-44.797.232-15.174-1.364-30.365-4.237-45.256s-7.546-29.156-13.489-43.063c-5.524-12.929-12.487-25.256-20.861-36.557-8.937-12.061-19.011-23.15-30.77-32.522-6.264-4.993-12.745-9.727-19.609-13.865-7.035-4.241-14.401-7.735-21.968-10.909-9.713-4.074-19.828-7.099-30.138-9.237-13.17-2.73-26.683-4.332-40.137-4.483-13.034-.147-25.995 1.315-38.775 3.847-3.268.647-6.654 3.58-8.289 6.374-1.74 2.973-2.477 7.354-1.398 10.687 1.086 3.356 3.166 6.594 6.374 8.289 3.436 1.815 6.864 2.156 10.687 1.398a184 184 0 0 1 10.709-1.782l-3.693.496c17.386-2.33 34.986-2.62 52.391-.336l-3.527-.474c14.26 2.1 28.261 5.557 41.568 11.154l-3.073-1.297c11.405 4.829 22.224 11.042 32.04 18.602l-2.543-1.965c10.785 8.345 20.408 18.102 28.742 28.889l-1.958-2.535c7.355 9.558 13.693 19.877 18.971 30.719a191 191 0 0 1 4.246 9.364l-1.258-2.98a198 198 0 0 1 11.709 38.458 188 188 0 0 1 1.845 11.229l-.445-3.313c1.796 13.524 2.245 27.223 1.244 40.831a194 194 0 0 1-1.205 11.571l.453-3.368c-1.642 12.063-4.433 23.969-8.478 35.456a170 170 0 0 1-3.718 9.609l1.296-3.071c-5.278 12.438-12.033 24.228-20.297 34.926l2.021-2.615a146 146 0 0 1-25.999 25.977l2.622-2.026c-10.716 8.249-22.524 14.863-34.962 20.143l3.103-1.31c-16.284 6.859-33.47 11.365-50.969 13.738l3.465-.466a218 218 0 0 1-57.543-.018l3.472.467c-17.698-2.405-35.08-6.991-51.546-13.936l3.126 1.319c-12.946-5.502-25.226-12.43-36.379-21.02l2.653 2.049c-10.56-8.185-20.017-17.701-28.207-28.254l2.052 2.656c-8.982-11.642-16.394-24.408-22.129-37.945l1.318 3.124c-6.167-14.667-10.342-30.112-12.49-45.875l.465 3.46c-2.283-17.087-2.242-34.487.038-51.571l-.453 3.371c2.218-16.33 6.466-32.375 12.863-47.571l-1.229 2.912c5.318-12.546 12.087-24.458 20.401-35.265l-1.842 2.384c7.033-9.085 15.115-17.316 24.194-24.366l-2.314 1.788c1.81-1.395 3.621-2.79 5.422-4.191l-2.293 1.772a126 126 0 0 1 25.552-15.311l-2.405 1.015a137 137 0 0 1 10.002-3.526c5.003-1.54 8.699-7.068 6.998-12.325-1.643-5.077-6.946-8.603-12.325-6.998Z"/><path d="M280.595 306.662a187 187 0 0 0-.582 3.868c-.118.848-.194 1.728-.345 2.556-.176.967-.33.045.058-.61l-.141 1.048q-.262 1.85-.052.493c-.108-1.242.003.032-.052.423-.466 3.312-.892 6.629-1.221 9.957-.059.596-.133 1.194-.169 1.791-.09 1.482.13-.685.152-.814-.235 1.369-.276 1.83-.323 2.87a196 196 0 0 0-.147 4.403c-.064 2.795-.104 5.599-.038 8.394.295 12.329 1.897 24.724 3.993 36.862 4.206 24.353 11.936 47.853 22.341 70.253 9.621 20.711 21.965 40.636 37.844 57.156 14.299 14.878 31.725 26.936 50.466 35.519 20.047 9.181 41.136 14.771 63.034 17.192 20.951 2.316 42.446 1.371 63.131-2.659 20.5-3.994 40.452-11.553 58.241-22.539 9.169-5.662 17.856-12.278 25.717-19.649 8.038-7.537 14.953-16.352 20.863-25.635 12.376-19.44 20.584-41.637 26.21-63.9 5.611-22.204 8.598-45.287 9.51-68.156.197-4.939.105-9.848.109-14.785.004-5.557-4.889-10.879-10.623-10.623s-10.618 4.667-10.623 10.623c-.011 14.01-1.315 28.187-3.167 42.061l.395-2.937c-2.628 19.466-6.828 38.825-13.113 57.45a229 229 0 0 1-5.834 15.448l1.139-2.698c-5.405 12.783-12.063 25.079-20.554 36.088l1.77-2.291c-6.477 8.331-14.052 15.614-22.379 22.079l2.294-1.773c-10.687 8.244-22.445 14.992-34.863 20.266l2.714-1.145c-15.476 6.522-31.744 10.898-48.378 13.171l2.92-.392c-16.681 2.238-33.515 2.133-50.193-.09l2.859.384c-16.548-2.246-32.788-6.563-48.186-13.043l2.565 1.083c-7.243-3.07-14.287-6.602-21.044-10.633a161 161 0 0 1-9.762-6.309 179 179 0 0 1-4.879-3.553c-1.541-1.157 1.236.972.699.547-.364-.288-.731-.571-1.095-.86q-1.182-.936-2.346-1.896a146.6 146.6 0 0 1-16.848-16.308 162 162 0 0 1-3.942-4.669 175 175 0 0 1-1.872-2.343l-.464-.594c-.695-.882 1.034 1.364.906 1.173-.328-.486-.718-.94-1.07-1.409a206 206 0 0 1-7.549-10.729c-4.891-7.446-9.315-15.197-13.326-23.15a266 266 0 0 1-5.976-12.679c-.446-1.015-.882-2.034-1.321-3.052-.449-1.041.612 1.378.522 1.24-.141-.216-.222-.531-.322-.77a284 284 0 0 1-3.301-8.295c-6.661-17.535-11.874-35.801-15.275-54.25a265 265 0 0 1-1.644-9.975q-.116-.806-.228-1.611c-.224-1.586.298 2.295.021.144-.582-4.526-.964-9.059-1.359-13.603-.747-8.592-1.425-17.328-1.266-25.957.038-2.05.126-4.1.25-6.149.226-3.75-3.051-6.955-6.556-7.426-3.378-.454-7.697 1.697-8.296 5.416Z"/></svg>