<?xml version="1.0" encoding="UTF-8"?><svg xmlns="http://www.w3.org/2000/svg" data-name="ARTWORK" viewBox="0 0 1000 1000"><path d="M128.584 924.006c-.073-20.133.839-40.255.29-60.388-.537-19.678-1.183-39.36-2.093-59.024-1.857-40.136-3.913-80.265-5.058-120.43-.328-11.519-.084-23.038-.227-34.558a1987 1987 0 0 1-.127-35.629l-6.16 10.739a421 421 0 0 1 11.22-4.948l-2.988 1.261c12.673-5.341 25.614-9.961 38.495-14.765 6.507-2.427 12.986-4.932 19.394-7.611 7.957-3.327 15.737-7.032 23.665-10.417l-3.072 1.296c5.19-2.181 10.501-4 16.097-4.774l-3.435.462c4.349-.523 8.688-.366 13.023.214l-3.447-.463c7.629 1.111 15.013 3.383 22.406 5.503 7.605 2.18 15.203 4.382 22.815 6.536l46.06 13.029 25.933 7.335-9.638-12.659c-1.536 39.151-1.3 78.332-.5 117.497.814 39.827 2.136 79.643 2.752 119.475.171 11.061.289 22.123.327 33.186q.03 8.396-.006 16.792c-.022 4.908.736 9.854.162 14.747l.449-3.345c-.229 1.536-.597 2.973-1.191 4.41l1.267-3.003a18.2 18.2 0 0 1-2.054 3.338l1.964-2.543c-1.393 1.693-2.993 3.138-4.708 4.497l2.54-1.962c-9.862 7.607-20.29 14.556-30.44 21.775l-29.337 20.866c-5.833 4.149-11.6 8.588-18.235 11.396l3.031-1.279c-2.296.922-4.628 1.604-7.077 1.97l3.377-.454a26.3 26.3 0 0 1-6.29-.002l3.381.454c-3.625-.527-7.043-1.689-10.411-3.101l3.043 1.284c-6.531-2.81-12.905-5.973-19.441-8.78a703 703 0 0 0-22.441-9.186c-13.036-5.074-26.198-9.818-39.266-14.808-7.575-2.893-15.115-5.875-22.586-9.028l3.094 1.306a483 483 0 0 1-16.631-7.425c-3.226-1.513-6.456-2.288-10.008-1.309-3.013.83-6.278 3.159-7.762 5.969-3.042 5.757-1.907 14.69 4.66 17.77 25.502 11.962 52.167 21.02 78.46 31.021 7.228 2.749 14.421 5.592 21.549 8.593l-3.054-1.289c7.929 3.353 15.661 7.151 23.61 10.45 8.324 3.454 17.246 4.72 26.093 2.527 7.604-1.885 14.395-6.176 20.696-10.671 5.924-4.225 11.826-8.48 17.739-12.72l31.833-22.829c6.554-4.701 13.616-9.09 19.644-14.461 7.203-6.418 10.146-15.315 9.873-24.779-.447-15.518-.177-31.052-.284-46.581-.11-15.984-.36-31.966-.65-47.948-.579-31.931-1.405-63.857-1.815-95.79-.404-31.467-.482-62.955.487-94.412q.18-5.808.408-11.614c.226-5.757-4.243-11.132-9.638-12.659l-68.896-19.488c-11.433-3.234-22.867-6.49-34.338-9.585-12.807-3.455-25.911-5.466-38.982-2.157-6.76 1.711-13.197 4.687-19.49 7.633-5.675 2.656-11.367 5.257-17.139 7.697l3.048-1.286c-23.2 9.759-47.115 17.598-69.902 28.369-3.843 1.817-6.184 6.663-6.16 10.739q.097 15.855.449 31.706c.23 10.4.857 20.764 1.369 31.152.989 20.088 1.618 40.194 2.651 60.282 2.045 39.804 4.557 79.582 6.588 119.386.569 11.143 1.418 22.268 1.96 33.412.024.498.018 1.01.056 1.508q.647 4.42.158 1.508l.082 1.132q.149 2.076.295 4.152.291 4.16.566 8.32c.385 5.823.543 11.636.661 17.471.091 4.509 3.903 8.84 8.628 8.628 4.661-.209 8.645-3.791 8.628-8.628Z"/><path d="M107.197 626.208c8.103 3.059 16.16 6.232 24.258 9.306 7.719 2.93 15.404 5.946 23.102 8.929 15.362 5.953 30.814 11.687 46.628 16.337 8.337 2.452 16.765 4.616 25.271 6.397 5.041 1.056 10.249 1.964 15.414 1.891 4.992-.071 10.002-1.052 14.693-2.74 7.76-2.793 15.283-6.522 22.734-10.054 7.007-3.321 13.926-6.842 20.871-10.29 13.836-6.869 27.592-13.838 41.721-20.095q2.376-1.053 4.757-2.094c1.997-.874 3.734-3.571 4.285-5.572.615-2.232.337-5.204-.94-7.184-1.284-1.991-3.195-3.743-5.572-4.285-2.556-.582-4.823-.2-7.184.94-10.825 5.223-21.607 10.513-32.528 15.532-11.449 5.262-22.868 10.588-34.335 15.811-6.111 2.783-12.096 5.849-18.283 8.466l2.31-.975c-3.642 1.519-7.375 2.787-11.291 3.364l2.559-.344c-3.657.484-7.318.319-10.965-.164l2.548.342c-8.835-1.238-17.601-3.552-26.196-5.905-8.148-2.231-16.212-4.76-24.209-7.482-15.839-5.392-31.435-11.46-47.131-17.247-4.55-1.678-9.095-3.409-13.695-4.944-4.72-1.575-9.527-2.934-14.307-4.311-4.265-1.228-9.432 1.495-10.442 5.929-.495 2.173-.388 4.612.856 6.541 1.26 1.954 2.901 3.081 5.073 3.901Z"/><path d="M225.786 663.6c-2.284 40.305-1.995 80.73-.795 121.068s4.048 80.609 7.427 120.818a2131 2131 0 0 0 3.079 33.464c.567 5.673 1.25 11.338 1.771 17.014.257 2.795-.456 5.69-.538 8.501-.11 3.727.756 7.455 1.602 11.072 1.357 5.802 7.49 9.33 13.131 8.573 5.737-.771 10.494-5.763 10.377-11.754-.071-3.623-.15-7.323-1.128-10.834-.723-2.594-2.01-5.141-2.52-7.773l.379 2.823c-4.834-38.057-8.562-76.209-11.071-114.49a2307 2307 0 0 1-4.671-114.271c-.339-21.403-.667-42.806-.994-64.21-.064-4.195-3.645-8.221-8.025-8.025-4.551.204-7.77 3.527-8.025 8.025Zm174.693 93.688c-.112-23.378.754-46.75.291-70.128-.552-27.866-1.201-55.729-2.056-83.586-.909-29.605-1.843-59.209-2.71-88.815-.43-14.66-.843-29.321-1.227-43.983-.365-13.939-.198-27.889-.471-41.831-.488-24.857-.852-49.719-.868-74.581q-.003-4.078.011-8.158l-6.251 10.897c3.738-1.724 7.488-3.548 11.331-5.025-.029.011-2.258.941-.94.398l1.24-.516a435 435 0 0 1 7.66-3.09c6.494-2.553 13.043-4.963 19.591-7.374 14.683-5.407 29.252-11.075 43.465-17.636 1.81-.836 3.619-1.675 5.443-2.479.381-.168.931-.309 1.267-.553-.035.026-2.325.938-.97.414 1-.386 1.989-.797 2.996-1.167a66 66 0 0 1 5.22-1.693 47 47 0 0 1 3.998-.931c.387-.073 2.485-.391.529-.125-1.886.257-.22.033.142.015.643-.032 1.281-.097 1.924-.124q1.443-.059 2.885-.028c1.442.031 1.923.07 2.881.144.478.037.96.109 1.439.132 1.851.091-2.424-.409-.592-.102 4.006.672 7.944 1.543 11.866 2.6 16.514 4.448 32.923 9.338 49.381 13.993l55.315 15.647-9.638-12.659c-1.371 34.903-1.295 69.871-1.026 104.793.326 42.307 1.068 84.609 1.811 126.91.694 39.499 1.443 79 1.775 118.504.07 8.271.118 16.543.128 24.814.005 3.731.011 7.463-.013 11.194-.015 2.287-.031 4.566.084 6.852.079 1.581.189 3.162.222 4.746.012.568.02 1.138.01 1.706q-.011.843-.069 1.685-.197 2.099.142-.864c-.145.254-.315 1.233-.377 1.602-.426 2.516 1.489-2.059-.019.063l-.423.696q-1.149 1.655.51-.6c.026.028-1.194 1.283-1.102 1.189-.576.583-1.204 1.1-1.805 1.655-1.71 1.581.584-.361.616-.43-.217.472-1.563 1.15-1.991 1.457-.888.638-1.782 1.269-2.673 1.903l-15.645 11.134-28.537 20.309c-5.324 3.789-10.629 7.604-15.973 11.364-2.481 1.746-4.994 3.453-7.633 4.955-.76.433-3.36 2.343-4.204 2.139-.009-.002 3.034-1.05.682-.338-1.077.326-2.126.702-3.226.956.122-.028-1.644.305-1.649.328l1.716-.239q-.847.08-1.698.096c-.735.014-1.468-.073-2.2-.067-1.835.013 3.154.738.353.049-1.43-.352-2.854-.661-4.257-1.117-.847-.275-1.67-.605-2.51-.898-2.658-.93 2.116.998-.244-.088-6.443-2.966-12.866-5.964-19.393-8.743-26.303-11.2-53.464-20.176-79.863-31.129-.596-.247-1.207-.483-1.796-.749 3.081 1.392.044.016-.5-.216a497 497 0 0 1-4.503-1.955 471 471 0 0 1-9.947-4.536c-3.227-1.513-6.455-2.288-10.008-1.309-3.013.83-6.278 3.159-7.762 5.969-3.041 5.756-1.908 14.692 4.66 17.77 26.627 12.482 54.505 21.806 81.908 32.367a701 701 0 0 1 8.953 3.517q2.473.991 4.937 2.007l2.248.932q1.98.83-.36-.155.903.383 1.803.769c7.18 3.081 14.184 6.577 21.421 9.523 7.688 3.13 15.608 4.254 23.822 2.789 6.919-1.234 13.468-4.791 19.239-8.694 10.523-7.117 20.711-14.778 31.036-22.178l29.881-21.416c6.383-4.574 13.099-8.869 17.392-15.635 4.371-6.889 4.253-14.937 3.866-22.749-.402-8.121-.02-16.328-.019-24.46.008-38.759-.563-77.518-1.088-116.272-.588-43.382-1.213-86.765-1.482-130.151-.229-36.943-.422-73.92.663-110.853q.16-5.45.373-10.9c.226-5.757-4.243-11.133-9.638-12.659-33.495-9.474-66.96-19.062-100.498-28.382-8.855-2.461-18.007-4.699-27.252-4.745-10.101-.051-19.319 3.008-28.464 6.953-3.738 1.613-7.398 3.398-11.098 5.093a395 395 0 0 1-7.724 3.438l-1.666.716c-1.525.656-.124.02.605-.252-6.817 2.551-13.513 5.456-20.325 8.033-16.641 6.295-33.252 12.601-49.369 20.17-3.908 1.835-6.266 6.767-6.251 10.897.088 24.201.63 48.398 1.302 72.589.786 28.293 2.231 56.566 3.241 84.855 1.058 29.632 2.194 59.261 3.316 88.89 1.07 28.234 2.268 56.462 3.374 84.695.501 12.794 1.178 25.571 1.827 38.359.573 11.301 1.548 22.591 1.797 33.909q.086 3.892.159 7.783c.085 4.51 3.908 8.839 8.628 8.628 4.656-.209 8.651-3.791 8.628-8.628Z"/><path d="M379.092 358.437c8.103 3.059 16.16 6.232 24.258 9.306 7.719 2.93 15.404 5.946 23.102 8.929 15.362 5.953 30.814 11.687 46.628 16.337 8.337 2.452 16.765 4.616 25.271 6.397 5.041 1.056 10.249 1.964 15.414 1.891 4.992-.071 10.002-1.052 14.693-2.74 7.76-2.793 15.283-6.522 22.734-10.054 7.007-3.321 13.926-6.842 20.871-10.29 13.836-6.869 27.592-13.838 41.721-20.095q2.376-1.053 4.757-2.094c1.997-.874 3.734-3.571 4.285-5.572.615-2.232.337-5.204-.94-7.184-1.284-1.991-3.195-3.743-5.572-4.285-2.556-.582-4.823-.2-7.184.94-10.825 5.223-21.607 10.513-32.528 15.532-11.449 5.262-22.868 10.588-34.335 15.811-6.111 2.783-12.096 5.849-18.283 8.466l2.31-.975c-3.642 1.519-7.375 2.787-11.291 3.364l2.559-.344c-3.657.484-7.318.319-10.965-.164l2.548.342c-8.835-1.238-17.601-3.552-26.196-5.905-8.148-2.231-16.212-4.76-24.209-7.482-15.839-5.392-31.435-11.46-47.131-17.247-4.55-1.678-9.095-3.409-13.695-4.944-4.72-1.575-9.527-2.934-14.307-4.311-4.265-1.228-9.432 1.495-10.442 5.929-.495 2.173-.388 4.612.856 6.541 1.26 1.954 2.901 3.081 5.073 3.901Z"/><path d="M497.681 395.83c-1.128 23.578-1.434 47.17-1.597 70.772-.194 28.103.266 56.218.821 84.316.592 29.971 1.595 59.936 2.856 89.886 1.2 28.5 2.68 56.994 4.468 85.463.806 12.831 1.709 25.657 2.762 38.471.473 5.764.977 11.525 1.52 17.282.27 2.861.132 5.554-.011 8.42-.187 3.739-.162 7.228.388 10.954.369 2.494.829 4.956 1.339 7.425 1.202 5.825 7.611 9.314 13.131 8.573 5.626-.756 10.648-5.778 10.377-11.754-.118-2.591-.248-5.173-.486-7.757-.338-3.676-1.263-7.166-2.229-10.71-.333-1.22-.646-2.456-1.03-3.661-.673-2.115.205 2.935-.078.359l-.252-2.313q-.472-4.376-.917-8.756c-1.26-12.42-2.365-24.855-3.37-37.298-2.271-28.101-3.94-56.237-5.292-84.396-1.429-29.746-2.452-59.503-3.394-89.268-.904-28.56-1.357-57.123-1.961-85.689-.513-24.239-.674-48.48-.93-72.723q-.04-3.798-.065-7.597c-.027-4.197-3.672-8.22-8.025-8.025-4.52.202-7.81 3.526-8.025 8.025Zm174.693 194.74c-.157-27.127.693-54.248.284-81.374-.556-36.844-1.2-73.685-2.018-110.524-.899-40.46-1.806-80.92-2.66-121.381-.802-37.975-1.036-75.963-1.606-113.945-.441-29.402-.887-58.808-.912-88.214q-.004-4.046.008-8.091l-6.314 11.007a471 471 0 0 1 10.73-4.776c3.423-1.476-2.354.957 1.037-.433l2.01-.827a463 463 0 0 1 5.906-2.364c6.565-2.578 13.185-5.014 19.801-7.458 14.471-5.346 28.822-10.968 42.836-17.435 1.695-.782 3.396-1.551 5.093-2.328 3.382-1.549-2.444.903 1.017-.446.695-.271 1.385-.551 2.083-.814a69 69 0 0 1 5.285-1.762 51 51 0 0 1 3.231-.815c.669-.145 3.936-.92.918-.261 1.836-.401 4.052-.292 5.92-.246q1.183.03 2.364.112c.378.026 4.254.511 1.238.058 4.344.652 8.611 1.71 12.844 2.867 16.122 4.405 32.173 9.086 48.255 13.635l55.441 15.682-9.638-12.659c-1.417 36.073-1.255 72.237-1.114 108.33.196 50.186.773 100.37 1.398 150.552.616 49.528 1.315 99.054 1.873 148.582.226 20.003.443 40.006.493 60.01.02 7.814.025 15.627-.003 23.441-.012 3.45-.047 6.899-.06 10.349-.014 3.77.451 7.535.321 11.304l-.017.511q-.183 2.202.119-.349c.033.162-.828 4.115.075.789-.081.299-1.854 3.598-.214.799-.648 1.105-1.925 1.951-2.827 2.831-2.357 2.297 2.066-1.384-.628.52-.88.622-1.751 1.257-2.629 1.883l-5.709 4.065-11.292 8.041-19.097 13.598-20.728 14.759c-3.498 2.491-6.965 5.051-10.647 7.267-1.697 1.022-3.547 2.242-5.435 2.874 3.028-1.014-.239-.009-.721.139-.626.192-4.907 1.55-1.503.571-.964.277-2.108.046-3.091.124-3.17.252 1.532.474-.292.071-1.923-.424-3.798-.863-5.663-1.513-.395-.138-3.737-1.457-.957-.291-.996-.418-1.977-.877-2.958-1.33-2.501-1.156-4.988-2.343-7.497-3.481-9.347-4.241-18.837-8.177-28.39-11.929-17.773-6.98-35.806-13.276-53.545-20.344a625 625 0 0 1-6.588-2.667q-1.653-.68-3.301-1.372c2.556 1.075-1.093-.473-1.311-.567a468 468 0 0 1-13.287-5.988c-6.141-2.876-14.292-1.925-17.77 4.66-3.04 5.754-1.909 14.694 4.66 17.77 18.568 8.697 37.748 15.971 56.971 23.064 9.129 3.369 18.265 6.722 27.333 10.254a736 736 0 0 1 13.187 5.301c3.646 1.502-2.288-1.002 1.346.568 1.106.478 2.213.951 3.317 1.434q3.9 1.703 7.765 3.484c9.129 4.211 18.684 9.098 29.065 8.412s19.266-5.348 27.577-11.212c14.036-9.904 27.937-20.006 41.903-30.01 7.076-5.069 14.188-10.091 21.228-15.208 4.556-3.311 8.724-6.597 11.964-11.253 3.42-4.915 4.717-10.865 4.826-16.781.1-5.46-.36-10.949-.346-16.422q.014-5.545.005-11.09c-.027-18.431-.172-36.862-.296-55.292-.328-48.76-.862-97.519-1.323-146.278-.49-51.771-.939-103.544-1.065-155.317-.095-39.356-.322-78.751.81-118.095q.136-4.782.323-9.563c.226-5.757-4.243-11.132-9.638-12.659-33.603-9.505-67.186-19.085-100.811-28.514-8.903-2.496-18.192-4.737-27.494-4.673-9.674.066-18.537 2.924-27.317 6.689-3.491 1.497-6.915 3.133-10.362 4.727a394 394 0 0 1-11.027 4.895c1.795-.75-1.471.605-1.457.6q-1.474.608-2.955 1.205-2.413.974-4.837 1.925a817 817 0 0 1-10.372 3.978c-16.596 6.258-33.152 12.55-49.225 20.082-3.95 1.851-6.327 6.838-6.314 11.007.087 27.948.622 55.897 1.247 83.837.399 17.849.84 35.697 1.302 53.545.503 19.423 1.512 38.825 2.032 58.247 1.084 40.486 2.228 80.97 3.371 121.454 1.062 37.61 2.242 75.215 3.416 112.822a2847 2847 0 0 0 1.874 47.457c.019.388-.004.78.024 1.168l.348 2.59-.238-1.428c-.023.003.143 2.694.152 2.874a8587 8587 0 0 1 .794 15.287c.305 5.985.553 11.958.674 17.949q.078 3.864.147 7.728c.083 4.661 3.906 8.628 8.628 8.628 4.658 0 8.655-3.948 8.628-8.628Z"/><path d="M650.987 79.27c8.103 3.059 16.16 6.232 24.258 9.306 7.719 2.93 15.404 5.946 23.102 8.929 15.362 5.953 30.814 11.687 46.628 16.337 8.337 2.452 16.765 4.616 25.271 6.397 5.041 1.056 10.249 1.964 15.414 1.891 4.992-.071 10.002-1.052 14.693-2.74 7.76-2.793 15.283-6.522 22.734-10.054 7.007-3.321 13.926-6.842 20.871-10.29 13.836-6.869 27.592-13.838 41.721-20.095q2.376-1.053 4.757-2.094c1.997-.874 3.734-3.571 4.285-5.572.615-2.232.337-5.204-.94-7.184-1.284-1.991-3.195-3.743-5.572-4.285-2.556-.582-4.823-.2-7.184.94-10.825 5.223-21.607 10.513-32.528 15.532-11.449 5.262-22.868 10.588-34.335 15.811-6.111 2.783-12.096 5.849-18.283 8.466l2.31-.975c-3.642 1.519-7.375 2.787-11.291 3.364l2.559-.344c-3.657.484-7.318.319-10.965-.164l2.548.342c-8.835-1.238-17.601-3.552-26.196-5.905-8.148-2.231-16.212-4.76-24.209-7.482-15.839-5.392-31.435-11.46-47.131-17.247-4.55-1.678-9.095-3.409-13.695-4.944-4.72-1.575-9.527-2.934-14.307-4.311-4.265-1.228-9.432 1.495-10.442 5.929-.495 2.173-.388 4.612.856 6.541 1.26 1.954 2.901 3.081 5.073 3.901Z"/><path d="M769.576 116.663c-1.144 27.23-1.366 54.476-1.513 81.727-.202 37.17.221 74.342.756 111.508.585 40.716 1.568 81.428 2.824 122.129 1.162 37.678 2.559 75.359 4.398 113.011.777 15.906 1.659 31.808 2.752 47.696.471 6.846 1.549 13.873 1.505 20.729-.005.713-.062 1.431-.092 2.143-.017.395-.107.879-.053 1.27l.314-2.169-.404 3.009c-.095 1.62-.058 3.293-.087 4.923-.07 3.869.272 7.566.8 11.416.092.669.182 1.339.279 2.008-.77-5.305-.072-.205.315 1.954.253 1.413.996 6.261.327.904.412 3.293 1.063 6.02 3.505 8.462 2.076 2.076 5.481 3.639 8.462 3.505 5.818-.261 12.8-5.314 11.968-11.968-.336-2.685-.328-5.453-.554-8.155-.188-2.245-.418-4.468-.853-6.682q-.224-1.14-.443-2.28c-.049-.256-.091-.517-.148-.771q-.326-1.769.23 2.007a9.9 9.9 0 0 0-.551-3.56c-.142-.654-.296-1.307-.443-1.96-.134-.597-.625-3.421-.308-.899.432 3.429-.449-2.454-.694-3.525-.17-.74-.229-1.805-.564-2.477.851 1.705.285 2.67.15 1.104l-.082-.877a1196 1196 0 0 1-.687-7.663c-1.317-15.192-2.399-30.404-3.372-45.622-2.37-37.078-4.012-74.19-5.332-111.319-1.446-40.698-2.467-81.406-3.423-122.118-.886-37.723-1.39-75.45-2.016-113.177-.478-28.813-.731-57.63-.89-86.445a1707 1707 0 0 1-.025-7.839c-.003-4.198-3.689-8.219-8.025-8.025-4.499.202-7.836 3.526-8.025 8.025Z"/><path d="M784.568 125.753a703 703 0 0 0 93.366-41.541c-5.47 41.353-4.88 83.239-4.281 124.948l4.882 339.803c.121 8.438.065 17.492-4.732 24.435-3.281 4.748-8.375 7.869-13.317 10.85l-51.615 31.133.298-55.728c.505-94.348-8.877-115.741-15.505-209.857-3.273-46.468 1.6-165.876-5.132-211.97"/><path d="M787.022 134.655a647 647 0 0 0 49.785-18.773c15.889-6.753 31.331-14.323 46.816-21.936l-16.961-9.733c.257-1.963-.09.429-.19 1.122q-.261 1.8-.507 3.601c-.398 2.909-.789 5.82-1.152 8.734-.579 4.662-1.114 9.325-1.468 14.009-.695 9.18-1.159 18.376-1.458 27.577-.599 18.427-.536 36.867-.309 55.3.459 37.256 1.06 74.511 1.596 111.767l1.617 112.56c.539 37.52.772 74.698 1.71 112.029.22 8.761.96 17.693.424 26.447-.054.882-.157 1.76-.22 2.641-.098 1.379.064-.877.127-.89-.03.006-.264 1.493-.31 1.713a33 33 0 0 1-.62 2.515q-.181.618-.392 1.227c-.114.333-.539 2.106-.204.61.332-1.482-.112.102-.359.544-.21.378-.445.739-.659 1.114-1.051 1.842 1.173-1.116-.272.405-.592.624-1.171 1.251-1.811 1.828-.379.342-.872.828-1.322 1.108.7-.436 1.44-1.04.276-.283-15.159 9.864-31.045 18.753-46.549 28.071q-5.893 3.538-11.78 7.087l18.008 10.334c.217-40.563 1.188-81.203-1.369-121.715-1.851-29.328-5.767-58.452-8.871-87.66-3.196-30.068-5.71-60.135-6.051-90.377-.34-30.092.166-60.186-.113-90.278-.25-26.946-.32-54.144-3.211-80.967a197 197 0 0 0-.419-3.6c-.12-.957-.25-1.912-.379-2.868-.726-5.406.614 4.566-.113-.842-.108-.802-.215-1.603-.33-2.404-.395-2.734-3.192-5.771-5.457-7.097-2.545-1.49-6.297-2.121-9.15-1.197-6.75 2.185-9.25 7.996-8.294 14.608.078.54.231 1.122.237 1.666.002.203-.46-3.566-.252-1.866q.055.44.112.878.228 1.827.424 3.658c.286 2.652.529 5.309.744 7.969.5 6.169.82 12.347 1.062 18.531.561 14.342.741 28.697.814 43.049.156 30.538-.051 61.077.202 91.614.1 12.081.252 24.172.845 36.24.844 17.185 2.484 34.363 4.181 51.482 2.938 29.641 7.05 59.168 9.341 88.872 2.965 38.442 2.408 76.96 2.202 115.481l-.09 16.823c-.048 8.991 10.231 15.025 18.008 10.334 16.149-9.741 32.269-19.528 48.402-29.295 8.005-4.846 16.257-10.047 21.185-18.277 4.848-8.096 5.575-17.771 5.617-26.986.173-37.717-.757-75.449-1.299-113.162l-1.64-114.153-1.64-114.153c-.535-37.239-.585-74.349 2.334-111.503.366-4.66.729-9.34 1.336-13.976.497-3.792-2.497-7.927-5.583-9.733-3.492-2.043-7.885-2.021-11.378 0-14.568 8.427-29.795 15.89-45.048 22.986-7.558 3.516-15.183 6.894-22.826 10.22-7.026 3.057-14.084 5.966-22.256 9.167-4.481 1.755-8.094 6.267-6.447 11.355 1.476 4.561 6.447 8.072 11.355 6.447ZM598.415 364.714a344.4 344.4 0 0 1-81.281 45.78 492 492 0 0 1 4.429 74.22c-.518 32.232-4.204 64.395-3.508 96.623 1.192 55.199 15.2 109.429 17.857 164.577.518 10.757.614 21.621 3.004 32.122.44 1.934 1.263 4.171 3.188 4.65 1.65.411 3.254-.705 4.589-1.758l56.849-44.793c2.053-1.618 4.256-3.481 4.663-6.063.365-2.317-.827-4.556-1.831-6.676-6.215-13.122-6.266-28.205-6.198-42.724l.476-101.661c.072-15.29.143-30.588-.554-45.862-2.338-51.21-13.125-103.954 2.593-152.748.263-.817.775-1.802 1.63-1.726s.26 1.846-.236 1.145"/><path d="M593.732 356.704c-12.974 8.343-26.054 16.624-39.635 23.969a346 346 0 0 1-25.58 12.502c-.916.402-1.836.795-2.753 1.193q-1.732.738.706-.293a333 333 0 0 1-12.495 4.962c-2.497.933-4.508 2.105-6.171 4.258-1.465 1.897-2.835 4.72-2.551 7.198 2.152 18.768 3.779 37.543 4.099 56.442.317 18.748-.608 37.472-1.676 56.184-1.075 18.834-2.209 37.69-1.886 56.565.313 18.313 2.066 36.569 4.37 54.729 2.716 21.41 6.127 42.722 9.009 64.11l-.436-3.247c1.896 14.146 3.543 28.331 4.504 42.574.481 7.127.667 14.267 1.087 21.397.214 3.628.516 7.248.984 10.852.524 4.037.901 8.346 2.124 12.253 1.769 5.652 5.68 10.766 11.736 12.141 3.502.795 6.792.386 10.048-.988 2.712-1.145 4.767-2.899 7.084-4.722l17.326-13.634 34.652-27.268c3.49-2.746 6.811-5.197 9.321-8.955 3.996-5.982 3.158-12.861.473-19.079a66 66 0 0 0-1.043-2.272c-.157-.328-.31-.658-.469-.986-.717-1.474.117.434.343.881-.808-1.6-1.312-3.462-1.825-5.175-1.088-3.633-1.809-7.355-2.327-11.11l.43 3.203c-1.162-8.971-1.089-18.024-1.099-27.052-.01-10 .025-19.999.067-29.998l.252-59.997c.084-19.88.306-39.775-.822-59.632-1.067-18.777-3.074-37.483-4.362-56.244-1.43-20.833-1.968-41.827.809-62.576l-.418 3.112c.681-4.939 1.535-9.851 2.622-14.717a160 160 0 0 1 1.754-7.099 154 154 0 0 1 1.512-5.198c1.552-5.003-.504 4.109-6.069 4.958h-6.216l.256.1-6.986-5.372-1.002-2.312v-6.215l2.705-4.466 5.158-3.006-.179.028 11.373 3.006-.188-.155c-2.452-2.028-4.972-3.424-8.266-3.424-2.867 0-6.292 1.273-8.266 3.424-3.951 4.304-5.032 12.37 0 16.531 3.436 2.842 7.225 4.396 11.74 3.134 4.109-1.149 7.276-4.502 8.423-8.573 2.496-8.86-5.713-17.703-14.769-15.245-5.701 1.548-8.585 5.972-10.265 11.371a155 155 0 0 0-2.485 8.927c-3.003 12.17-4.648 24.725-5.401 37.228-1.454 24.14.702 48.31 2.728 72.351 1.007 11.945 2.001 23.895 2.542 35.872.589 13.054.618 26.125.564 39.19-.105 25.834-.264 51.668-.398 77.502-.072 13.98-.517 27.996-.229 41.973.147 7.111.752 14.241 2.096 21.231.598 3.113 1.401 6.187 2.471 9.172.807 2.254 1.751 4.462 2.729 6.647.252.564.517 1.487.911 1.961q-1.092-2.73-.421-.926.224.663.35 1.351l-.435-3.241a8.6 8.6 0 0 1 .033 2.063l.436-3.244q-.462 1.828.677-1.241-.708 1.164.32-.241c1.468-1.822-.304.232-.662.563-1.007.93-2.122 1.75-3.196 2.598l-8.163 6.44-16.653 13.139-16.327 12.881-8.49 6.698-3.918 3.091-1.306 1.03 1.303-.998q-.525.398-1.091.732 2.958-1.033 1.154-.553l3.243-.436-.609.039 3.243.436c-2.234-.31 3.387 2.276 3.424 2.309q1.846 2.667 1.105 1.428-.447-.803.256.711c.81 1.951.276.616.139.14-.151-.524-.265-1.059-.381-1.591-.515-2.364-.902-4.752-1.228-7.149l.436 3.244c-1.067-8.293-1.218-16.652-1.635-24.992-.424-8.47-1.113-16.925-1.98-25.36-1.792-17.44-4.303-34.8-6.832-52.145-1.381-9.47-2.768-18.94-4.048-28.425l.437 3.249c-1.986-14.802-3.704-29.648-4.654-44.556-.964-15.139-.952-30.288-.361-45.441 1.186-30.449 3.96-60.777 2.891-91.278-.631-18.002-2.166-36.013-4.941-53.814l-8.298 14.614q1.764-.741 3.526-1.487 1.755-.743-.76.323c1.628-.694 3.256-1.381 4.879-2.086a341 341 0 0 0 16.25-7.58 344 344 0 0 0 20.709-11.231c14.19-8.336 27.748-17.704 40.079-28.613 3.46-3.061 3.387-8.736.725-12.181-2.707-3.503-8.053-4.907-11.968-2.389ZM326.304 636.675a459 459 0 0 1-78.398 39.908l.997 93.205c.518 48.469 1.057 97.176 9.155 144.967a462 462 0 0 0 8.774 40.612 761 761 0 0 0 53.741-48.236c3.632-3.586 7.354-7.411 8.855-12.29 1.156-3.756.878-7.781.616-11.702a884 884 0 0 1 1.964-142.361c2.967-31.329 7.583-63.2 1.138-94.002"/><path d="M321.598 628.624c-20.016 11.819-41.173 21.932-62.574 30.985l2.746-1.159a471 471 0 0 1-16.995 6.778c-2.474.931-4.466 2.083-6.117 4.22-1.593 2.062-2.516 4.475-2.528 7.135-.172 36.888.524 73.802 1.005 110.687.474 36.385 1.462 72.86 6.186 108.982 2.747 21.006 6.582 41.8 11.969 62.296 1.057 4.021 4.372 7.261 8.359 8.359q3.182.855 6.363 0a11.96 11.96 0 0 0 5.281-3.078 756 756 0 0 0 48.927-43.607c3.876-3.767 7.771-7.468 11.081-11.753 4.47-5.785 6.759-12.358 6.851-19.712.069-5.531-.606-11.113-.912-16.634a885 885 0 0 1-.621-84.789c.915-22.526 3.03-44.925 5.073-67.368.993-10.914 1.88-21.859 2.128-32.819.268-11.836-.423-23.583-2.173-35.294a148 148 0 0 0-1.455-8.122c-1.216-5.879-8.471-9.822-14.094-8.002-6.221 2.013-9.305 7.796-8.002 14.094a149 149 0 0 1 1.739 10.24l-.41-3.048c3.959 30.181-1.116 60.311-3.763 90.359a884 884 0 0 0-1.736 131.99c.258 4.19.757 8.429.237 12.616l.425-3.16a19.6 19.6 0 0 1-1.159 4.341l1.199-2.84c-.77 1.778-1.772 3.392-2.937 4.937l1.86-2.407c-3.001 3.838-6.679 7.149-10.171 10.529q-5.67 5.49-11.453 10.86a760 760 0 0 1-23.802 21.194 809 809 0 0 1-13.754 11.47l20.003 5.281c-4.951-18.837-8.691-37.96-11.296-57.261l.428 3.182c-3.806-28.459-5.292-57.163-5.986-85.849-.698-28.837-.809-57.691-1.118-86.535-.175-16.379-.292-32.763-.718-49.139l-8.645 11.354c11.406-4.697 22.668-9.722 33.699-15.247 10.306-5.161 20.239-11.033 29.95-17.233 5.489-3.504 10.947-7.059 16.325-10.732 2.025-1.383 3.617-3.149 4.285-5.572.615-2.232.337-5.204-.94-7.184-2.727-4.229-8.262-5.999-12.757-3.345Z"/></svg>