<?xml version="1.0" encoding="UTF-8"?><svg xmlns="http://www.w3.org/2000/svg" data-name="ARTWORK" viewBox="0 0 1000 1000"><path d="M430.285 612.726c4.184-23.806 10.328-47.261 17.145-70.44 7.057-23.996 15.275-47.647 24.503-70.893a863 863 0 0 1 5.916-14.516l.737-1.758q-.798 1.888-.037.092a964 964 0 0 1 7.645-17.478c5.27-11.702 10.617-23.369 16.261-34.897a913 913 0 0 1 37.702-69.253c13.478-22.401 27.941-44.196 43.271-65.372a869 869 0 0 1 14.638-19.632c.025-.032 1.991-2.575.83-1.079s.811-1.041.836-1.073q3.154-4.05 6.357-8.062a828 828 0 0 1 25.364-30.273c17.018-19.348 34.958-37.891 53.843-55.423a699 699 0 0 1 29.399-25.817 665 665 0 0 1 14.756-11.888l1.49-1.162c2.535-1.979-2.089 1.591.465-.36 1.124-.859 2.246-1.72 3.373-2.574a624 624 0 0 1 7.922-5.907c23.059-16.914 47.335-32.153 72.326-46.041a684 684 0 0 1 36.448-18.858c.822-.394 1.67-.755 2.481-1.171q1.243-.558-.595.228a38 38 0 0 1 1.982-.734c.662-.221 1.344-.38 2.006-.598l1.006-.234q-2.516.235-.347.072c.624.118 2.428.341-.415-.224 2.926.582-1.231-.844.14-.043 1.246.728-1.59-2.305-.264-.223 1.242 1.952-.097-.756-.391-.68.114-.029 1.327 2.142 1.28 2.183.076-.065-.934-2.945-.072.147.156.559.244 1.139.408 1.696.835 2.843-.026-2.949.061-.005.042 1.416.098 2.828.112 4.246q.052 5.31.01 10.621a595 595 0 0 1-1.645 39.87 591 591 0 0 1-2.931 29.286c-.091.724-.76 6.084-.294 2.359-.241 1.927-.531 3.851-.811 5.773a595 595 0 0 1-15.912 74.938c-6.866 24.488-15.279 48.538-25.082 72.004-.241.576-.478 1.155-.725 1.728 1.363-3.171.081-.205-.165.371a663 663 0 0 1-13.626 29.777 693 693 0 0 1-17.283 33.131c-12.259 22.045-25.688 43.435-40.098 64.136a823 823 0 0 1-22.072 30.207c-.569.743-1.132 1.491-1.711 2.226.234-.297 1.704-2.193.29-.379q-1.437 1.847-2.88 3.689a887 887 0 0 1-18.003 22.175c-32.402 38.629-67.999 74.529-105.753 107.924-18.573 16.428-37.677 32.2-57.104 47.603-2.487 1.971 2.343-1.545-.705.52-.623.422-1.23.868-1.854 1.29-1.562 1.055-3.165 2.048-4.775 3.028-3.175 1.931-6.344 3.872-9.52 5.801a110 110 0 0 1-9.487 5.143c2.285-1.099.167-.073-.462.159a39 39 0 0 1-4.558 1.395q-1.028.246-2.069.427 2.11-.24.699-.108c-1.684.024-3.339.082-5.026.016-3.504-.136 2.205.655-1.199-.213-.738-.188-1.504-.304-2.245-.479-1.87-.442-3.71-1.002-5.529-1.621-.91-.31-1.813-.641-2.712-.981-.466-.176-4.183-1.64-1.804-.643-6.663-2.793-13.124-6.264-19.356-9.905a197 197 0 0 1-17.261-11.336c-.73-.536-1.446-1.093-2.179-1.625-1.693-1.228 2.123 1.709-.6-.46a243 243 0 0 1-4.226-3.424 195 195 0 0 1-8.157-7.194c-4.543-4.239-12.353-4.838-16.794 0-4.228 4.605-4.851 12.267 0 16.794 11.597 10.821 24.337 20.514 38.041 28.52 6.278 3.667 12.765 6.836 19.351 9.9 8.617 4.009 17.274 7.671 26.952 7.764 16.411.159 31.436-9.954 44.711-18.539 6.344-4.102 12.192-9.087 18.116-13.772q7.28-5.757 14.473-11.623c39.959-32.588 77.779-67.885 112.613-105.915 35.267-38.503 67.585-79.927 95.371-124.16 27.798-44.252 50.936-91.512 68.106-140.893 17.689-50.872 28.538-104.044 32.318-157.771a597 597 0 0 0 1.467-40.951c.012-7.712.184-15.307-2.868-22.539-3.879-9.193-11.795-15.587-21.927-16.297-9.132-.64-17.575 4.023-25.502 7.915a686 686 0 0 0-21.169 10.854c-14.795 7.912-29.303 16.363-43.525 25.263-45.45 28.441-87.169 62.596-124.787 100.764-38.146 38.704-72.329 81.457-102.307 126.765a911 911 0 0 0-41.262 68.78 913 913 0 0 0-18.419 35.869 905 905 0 0 0-12.429 26.676c-.652 1.462-1.31 2.923-1.948 4.392l-1.188 2.815q.76-1.781.257-.597c-.7 1.671-1.412 3.338-2.114 5.009-19.771 47.039-36.096 96.034-46.138 146.113-2.324 11.587-4.45 23.233-6.43 34.884-.809 4.761 1.261 9.641 6.253 11.013 4.321 1.187 10.171-1.465 11.013-6.253Z"/><path d="M436.718 524.412c-26.799-.624-53.62-1.183-80.422-.409-44.379 1.281-74.125 8.949-90.24 54.034-5.783 16.18-9.939 32.923-15.229 49.241a675.4 675.4 0 0 0-26.718 116.897 3504 3504 0 0 1 89.289-127.006c2.015-2.735 4.094-5.525 6.932-7.391 3.666-2.41 8.192-3.022 12.552-3.508 26.27-2.93 52.8-3.526 79.175-1.777a228.8 228.8 0 0 1 21.08-76.942"/><path d="m436.718 514.763-5.993-.77 2.733.367c-2.472-.62-5.179-.585-7.727-.736q-2.747-.162-5.494-.321c-3.663-.211-7.33-.385-10.99-.638-7.128-.493-14.339-.495-21.482-.672-13.232-.328-26.475-.507-39.704.056-19.004.809-38.431 3.217-55.36 12.493-7.705 4.222-14.815 9.992-20.432 16.756-3.411 4.107-6.563 8.435-9.228 13.064-2.943 5.111-5.312 10.525-7.496 15.996-5.004 12.535-8.48 25.679-12.292 38.607-3.967 13.452-8.463 26.728-12.141 40.266-7.308 26.903-12.96 54.246-16.819 81.856-.587 4.197-1.198 8.398-1.67 12.609l.413-3.071-.065.476a8.75 8.75 0 0 0-.206 4.606 8.6 8.6 0 0 0 1.371 4.294c1.383 2.145 3.162 3.729 5.523 4.726 5.387 2.273 11.301.173 14.423-4.726 9.383-14.72 19.269-29.127 29.122-43.536 9.802-14.333 19.322-28.857 29.194-43.142q4.172-6.036 8.367-12.054c2.837-4.068 5.558-8.272 8.573-12.21l-1.518 1.965q4.435-5.657 8.894-11.297c2.759-3.49 5.399-7.119 8.585-10.234l-2.17 1.676a18.7 18.7 0 0 1 3.259-1.868l-2.699 1.139a19 19 0 0 1 1.945-.674l-3.088.415c1.533-.005 3.061-.299 4.499-.797a22 22 0 0 1 1.822-.539c1.243-.314 2.507-.529 3.776-.71l-3.154.424c5.19-.695 10.431-.99 15.646-1.429a448 448 0 0 1 48.716-1.45c6.071.15 12.137.46 18.204.739 2.843.131 6.509-1.396 8.435-3.494 2.229-2.428 3.253-5.136 3.494-8.435a233 233 0 0 1 1.412-13.72l-.416 3.099c1.302-9.658 2.872-19.387 5.447-28.792a224 224 0 0 1 9.522-27.624l-1.051 2.49c1.017-2.407 2.051-4.812 3.169-7.174 1.212-2.56 1.819-5.151 1.043-7.971-.661-2.399-2.516-5-4.754-6.182-2.401-1.268-5.309-1.904-7.971-1.043-2.436.788-5.044 2.35-6.182 4.754-2.489 5.259-4.908 10.545-7.062 15.953l1.057-2.504c-3.721 8.585-6.831 17.451-9.422 26.439-2.389 8.287-4.697 16.495-6.196 25.003-1.009 5.726-1.802 11.495-2.454 17.272l11.929-11.929c-12.094-1.035-24.293-1.212-36.426-1.036-11.974.174-23.983.731-35.89 2.031-4.192.458-8.388.943-12.558 1.569-4.396.66-9.753 1.934-12.849 5.226l2.351-1.816c-1.613 1.07-3.2 2.242-4.603 3.58-1.372 1.308-2.477 2.89-3.62 4.386l1.676-2.17c-3.746 3.862-6.612 8.76-9.628 13.2-2.832 4.168-5.537 8.453-8.5 12.527l1.516-1.962c-4.09 5.218-7.996 10.587-11.952 15.907-3.56 4.787-7.178 9.541-10.638 14.401l1.603-2.075c-4.412 5.543-8.523 11.348-12.728 17.049-3.834 5.199-7.696 10.38-11.415 15.662a3500 3500 0 0 0-21.972 31.572c-4.076 5.925-8.146 11.849-12.288 17.728l21.111 8.9c1.592-11.634 3.778-23.215 6.092-34.724s4.916-23.004 7.822-34.402c5.804-22.765 13.316-44.999 19.897-67.537 3.499-11.983 6.822-24.156 11.661-35.684l-1.269 3.008c2.916-6.885 6.495-13.494 11.053-19.437l-1.968 2.547c3.289-4.251 7.055-8.1 11.297-11.405l-2.546 1.967c4.37-3.374 9.169-6.117 14.244-8.281l-3.004 1.268c8.619-3.637 17.869-5.655 27.111-6.914l-3.304.444c10.262-1.378 20.615-1.82 30.956-2.13 14.488-.435 28.966-.837 43.461-.94 3.996-.028 7.992-.14 11.989-.21q2.997-.052 5.994-.1c2.92-.046 5.85.053 8.726-.53l-2.733.367 5.993-.494c2.596-.213 4.929-.933 6.822-2.826 1.673-1.673 2.934-4.419 2.826-6.822-.112-2.495-.931-5.083-2.826-6.822l-1.953-1.509a9.6 9.6 0 0 0-4.87-1.317Zm65.789 145.682a2567 2567 0 0 1 34.129 72.839c1.849 4.113 3.73 8.578 2.809 12.993-.649 3.109-2.614 5.756-4.535 8.285a1528 1528 0 0 1-74.103 90.198c-6.316 7.115-12.984 14.76-14.348 24.176a1328 1328 0 0 0 88.568-51.778c21.371-13.628 57.757-37.323 69.349-60.322 20.636-40.959-12.877-101.078-17.99-143.31-3.178-26.248 2.041-7.135-21.876 9.484-19.031 13.224-34.261 31.316-54.139 43.419"/><path d="M493.651 662.887c2.384 5.997 4.663 12.036 7.261 17.94q3.505 7.965 6.956 15.952l-1.1-2.607c1.774 4.538 4.011 8.918 6.053 13.341a2570 2570 0 0 1 5.139 11.199c3.384 7.42 6.851 14.821 10.058 22.32l-1.116-2.646c.909 2.174 1.682 4.378 2.012 6.719l-.395-2.94c.119 1.076.135 2.121.026 3.199l.395-2.938a13.6 13.6 0 0 1-.941 3.364l1.113-2.638c-.906 1.997-2.179 3.741-3.512 5.471l1.734-2.244c-12.046 15.548-24.35 30.919-36.837 46.114s-25.28 30.112-38.315 44.83c-3.728 4.209-7.424 8.532-10.488 13.257-2.975 4.586-5.407 9.894-6.242 15.324-.313 2.037-.559 4.039 0 6.07.662 2.403 2.143 4.425 4.092 5.931 3.702 2.86 8.565 3.089 12.681.893a1332 1332 0 0 0 72.707-41.782c19.667-12.144 39.26-24.543 57.328-39.004 8.258-6.609 16.266-13.741 22.929-21.99 3.464-4.289 6.805-8.732 9.267-13.686 2.488-5.007 4.514-10.307 5.777-15.76 5.119-22.109.877-45.243-4.726-66.827-5.286-20.364-12.603-40.283-16.493-60.993a135 135 0 0 1-1.1-6.776l.419 3.121c-.432-3.257-.755-6.527-1.1-9.794-.261-2.47-.365-5.039-1.046-7.429-1.207-4.234-4.348-7.297-8.525-8.637-4.016-1.288-8.999.182-11.848 3.252-1.514 1.632-2.556 3.444-3.659 5.332-1.354 2.318-2.829 4.557-4.467 6.684l1.843-2.385c-3.108 3.997-6.736 7.534-10.739 10.63l2.388-1.845c-3.698 2.825-7.528 5.46-11.21 8.314a235 235 0 0 0-9.009 7.381c-5.901 5.06-11.623 10.322-17.48 15.432-3.308 2.886-6.674 5.707-10.142 8.399l2.365-1.827c-3.598 2.777-7.302 5.438-11.182 7.811-2.519 1.541-4.539 4.062-5.329 6.931-.764 2.776-.419 6.472 1.169 8.936 1.596 2.476 3.974 4.656 6.931 5.329 3.011.686 6.239.481 8.936-1.169 14.608-8.935 27.085-20.65 39.947-31.836 3.482-3.029 7.019-5.995 10.666-8.824l-2.39 1.846c6.244-4.819 12.944-9.041 18.356-14.847a72.3 72.3 0 0 0 9.476-12.72c.612-1.046 1.151-2.173 1.878-3.146l-1.84 2.382c.089-.114.18-.224.294-.314l-2.382 1.84a1 1 0 0 1 .096-.058l-2.811 1.186a.4.4 0 0 1 .089-.024l-3.128.42h.028l-3.128-.421a.2.2 0 0 1 .054.011l-2.811-1.186a.3.3 0 0 1 .052.027l-2.382-1.84a1 1 0 0 1 .074.071l-1.84-2.382c.047.063.081.13.113.201l-1.186-2.811c.242.599.305 1.281.391 1.915l-.42-3.127c.865 6.523 1.374 13.078 2.495 19.57 1.198 6.935 2.905 13.776 4.767 20.559 4.102 14.946 8.988 29.668 12.877 44.674 2.184 8.429 4.063 16.95 5.231 25.584l-.412-3.07c1.189 8.955 1.607 18.046.419 27.024l.411-3.057c-.767 5.6-2.165 11.089-4.352 16.308l1.159-2.746c-2.009 4.716-4.686 9.039-7.809 13.096l1.796-2.325c-7.783 10.026-17.557 18.426-27.551 26.169l2.322-1.794c-12.495 9.652-25.741 18.268-39.067 26.714a1328 1328 0 0 1-85.009 49.563l16.772 12.894c.357-2.332 1.019-4.574 1.926-6.75l-1.151 2.727c1.559-3.604 3.713-6.877 6.105-9.979l-1.784 2.309c3.617-4.636 7.65-8.943 11.529-13.358q6.422-7.31 12.75-14.702a1533 1533 0 0 0 24.778-29.693c5.067-6.23 10.157-12.457 15.029-18.842l-1.783 2.308c5.912-7.645 11.78-15.324 17.561-23.069 2.95-3.951 5.763-7.705 7.333-12.462 1.792-5.429.982-11.628-1.058-16.865-3.535-9.072-7.926-17.868-12.025-26.696-3.772-8.123-7.474-16.296-11.568-24.261q-3.497-6.804-7.035-13.587c-3.538-6.783-5.069-8.854-7.638-13.243-2.317-3.959-7.303-5.516-11.469-3.758-1.764.745-3.472 2.017-4.392 3.758-1.081 2.047-1.821 4.826-.926 7.077Zm-48.354-159.002c2.21 1.684 4.425 3.361 6.632 5.048l-1.718-1.328c16.649 13.288 33.367 26.597 50.944 38.648 8.428 5.778 17.006 11.383 25.841 16.522 8.893 5.173 18.189 9.768 27.59 13.937 11.228 4.979 22.696 9.388 34.494 12.826 2.714.791 6.045.312 8.471-1.108 2.28-1.334 4.455-3.949 5.052-6.57 1.337-5.868-1.763-11.818-7.678-13.523-9.496-2.737-18.804-6.077-27.912-9.908l2.616 1.104c-16.191-6.84-31.758-15.225-46.883-24.154-15.245-9-30.054-18.768-44.632-28.805-8.186-5.636-16.322-11.334-24.295-17.268-1.645-1.224-4.622-1.37-6.505-.851-1.958.539-4.08 2.053-5.045 3.88-1.035 1.959-1.554 4.333-.851 6.505.722 2.231 2.03 3.637 3.88 5.045Zm240.595-288.419c-4.23.766-8.261 2.035-12.211 3.726l2.239-.945c-7.997 3.01-14.969 7.197-21.511 12.685l2.124-1.641c-5.631 4.334-10.216 9.877-14.218 15.726-3.619 5.288-6.305 11.126-8.506 17.133-4.407 12.027-5.636 25.053-3.849 37.698 1.698 12.015 7.749 23.461 16.489 31.856s19.952 14.094 31.738 16.56c12.441 2.603 25.466 2.286 37.727-1.136 11.824-3.3 22.737-9.453 31.761-17.759 17.394-16.011 26.184-40.735 23.199-64.139-1.44-11.288-4.751-22.651-11.691-31.865-3.851-5.114-8.077-9.575-13.564-12.989-4.722-2.937-10.224-5.097-15.731-5.951-3.448-.535-6.837-.635-10.313-.436-2.561.147-4.973.976-6.822 2.826-1.673 1.673-2.934 4.419-2.826 6.822.244 5.445 4.24 9.376 9.648 9.648 1.249.063 2.484.215 3.729.322l-2.614-.351c3.436 1.014 6.912 1.528 10.247 2.916l-2.486-1.049a36.2 36.2 0 0 1 7.875 4.612l-2.156-1.666q1.418 1.11 2.848 2.204l-2.159-1.668a41 41 0 0 1 6.976 7.03l-1.674-2.166c2.558 3.325 4.626 6.98 6.271 10.836l-1.083-2.567c2.116 5.034 3.494 10.338 4.227 15.746l-.386-2.871a65.5 65.5 0 0 1-.029 17.023l.391-2.907a67.5 67.5 0 0 1-4.607 16.955l1.118-2.649c-2.215 5.207-5.098 10.05-8.538 14.539l1.756-2.272a65.5 65.5 0 0 1-11.493 11.529l2.277-1.759a66.6 66.6 0 0 1-14.677 8.585l2.694-1.137a68.3 68.3 0 0 1-17.12 4.663l3.005-.404c-6.021.797-12.119.825-18.14.02l3.012.405c-5.366-.746-10.615-2.146-15.611-4.246l2.712 1.145c-4.332-1.85-8.439-4.206-12.172-7.084l2.294 1.773a48.4 48.4 0 0 1-8.481-8.482l1.765 2.285a45.8 45.8 0 0 1-5.795-9.973l1.134 2.687c-1.563-3.774-2.607-7.72-3.17-11.765l.4 2.978c-.734-5.567-.631-11.231.094-16.793l-.398 2.961a73 73 0 0 1 5.066-18.487l-1.115 2.643c2.549-5.973 5.782-11.7 9.746-16.849l-1.677 2.17c3.659-4.704 7.903-9.076 12.621-12.724l-2.016 1.558c3.613-2.76 7.511-5.113 11.695-6.9l-2.206.931a57 57 0 0 1 6.9-2.388c4.49-1.236 7.702-6.379 6.22-10.956-.697-2.155-2.033-4.234-4.093-5.323-2.225-1.175-4.389-1.346-6.863-.898Zm-243.266 408.98-62.119 115.226c-9.56 17.732-19.181 35.611-25.052 54.881A1217 1217 0 0 0 466.066 647.38l-21.667-15.193"/><path d="M435.176 620.091c-7.456 10.419-13.489 21.826-19.894 32.907-6.371 11.022-12.422 22.241-18.618 33.363s-12.159 22.393-18.217 33.598c-5.854 10.828-11.822 21.604-17.415 32.57-6.402 12.552-11.989 25.624-15.92 39.172-1.273 4.385.802 9.933 4.93 12.114a12.74 12.74 0 0 0 5.414 1.465c2.461.11 5.959-1.232 7.585-3.142 7.822-9.187 15.504-18.493 23.1-27.868 8.022-9.901 15.684-20.046 23.157-30.367 14.041-19.391 28.537-38.452 42.326-58.029 3.857-5.476 7.632-11.006 11.566-16.427 4.029-5.552 7.861-11.268 12.007-16.731l1.066-2.526a8 8 0 0 0 .189-4.216c-.286-2.13-1.187-4.644-2.908-6.071-7.486-6.204-15.582-11.737-23.477-17.409-2.236-1.607-6.1-1.834-8.65-1.132-2.604.717-5.426 2.73-6.709 5.159-1.376 2.605-2.066 5.761-1.132 8.65s2.641 4.986 5.159 6.709c7.248 4.959 14.422 10.184 21.996 14.629l-3.793-14.466c-3.127 5.888-6.711 11.567-10.155 17.274-3.413 5.657-7.061 11.153-10.737 16.642-7.394 11.042-14.926 21.99-22.833 32.672a1221 1221 0 0 1-13.493 17.881l1.407-1.821c-6.768 8.282-13.774 16.355-20.675 24.524-6.819 8.073-13.522 16.232-20.492 24.177a1225 1225 0 0 1-12.089 13.574l17.928 10.437c1.57-4.867 3.387-9.648 5.373-14.36l-1.106 2.622c8.693-20.487 19.872-39.913 30.397-59.49 5.56-10.343 11.18-20.655 16.609-31.067 5.391-10.34 10.935-20.616 16.162-31.04 6.171-12.306 12.757-24.469 17.713-37.33.727-1.888.203-4.985-.87-6.648-1.033-1.602-2.362-2.786-4.126-3.53-1.714-.723-3.797-1.024-5.618-.435-2.248.728-3.784 2.047-5.156 3.965ZM197.565 801.507c-9.839-5.533-20.594-9.394-31.824-10.67-10.305-1.17-21.279 1.493-29.889 7.326-8.521 5.773-15.594 14.666-17.792 24.887-1.182 5.496-1.316 11.183.25 16.627 1.547 5.378 4.416 10.149 8.14 14.29 7.769 8.64 20.905 13.482 32.192 9.492l-8.411-19.95c-9.532 4.491-17.851 11.619-23.651 20.419-6.228 9.448-8.506 21.073-6.483 32.169 1.97 10.801 9.152 20.431 18.583 25.908 4.618 2.682 9.823 4.555 15.017 5.763s10.576 2.01 15.898 2.272c3.452.17 6.799-.123 10.218-.609 2.501-.356 4.935-.847 7.289-1.789 3.871-1.549 7.027-3.356 10.198-6.108 2.358-2.046 4.333-4.54 6.138-7.067l-1.7 2.2c2.489-2.78 3.899-6.268 5.1-9.766 1-2.912 1.608-5.826 1.921-8.899.441-4.331.709-8.718.896-13.07l-19.708 5.338c4.17 5.933 8.946 10.774 14.881 14.946 5.025 3.532 10.882 6.123 16.822 7.656 13.199 3.408 27.001 1.551 39.103-4.572 5.576-2.821 10.833-6.794 15.029-11.428 4.814-5.317 8.696-11.58 10.579-18.55.915-3.388 1.442-7.1 1.185-10.618-.32-4.383-1.314-8.07-3.143-12.034-2.484-5.38-6.796-9.589-11.582-12.946-4.766-3.344-10.499-5.507-16.085-7.031-5.976-1.63-12.165-2.461-18.311-3.132l2.822 20.853c13.381-3.03 24.678-14.83 27.47-28.219.684-3.279 1.129-6.761.821-10.119-.419-4.565-1.435-8.324-3.259-12.494-2.774-6.342-7.642-11.424-13.209-15.406-6.665-4.768-15.587-7.419-23.708-5.641l2.627-.353-.354.011c-2.58.076-5.142 1.049-6.986 2.894-1.714 1.714-3.004 4.525-2.894 6.986.234 5.222 4.346 10.044 9.88 9.88l.354-.011-2.627-.353c1.337.252 2.693.365 4.04.542l-2.674-.359c2.857.419 5.767 1.151 8.44 2.247l-2.492-1.051a29.3 29.3 0 0 1 6.38 3.732l-2.122-1.639a30 30 0 0 1 4.998 4.976l-1.647-2.132a28 28 0 0 1 3.572 6.042l-1.067-2.529a25.5 25.5 0 0 1 1.691 6.088l-.38-2.827a25 25 0 0 1-.02 6.616l.382-2.839a28 28 0 0 1-1.873 6.697l1.082-2.564a31.7 31.7 0 0 1-3.89 6.626l1.679-2.173a29.4 29.4 0 0 1-4.913 4.956l2.163-1.671a27 27 0 0 1-5.67 3.377l2.543-1.073a26 26 0 0 1-3.98 1.311c-5.141 1.238-8.28 6.617-7.604 11.648.299 2.228 1.214 4.53 2.92 6.096 2.185 2.005 4.558 2.828 7.507 3.109 1.748.167 3.492.361 5.233.592l-2.813-.378c6.084.823 12.164 2.08 17.847 4.459l-2.497-1.054c2.608 1.115 5.098 2.468 7.364 4.181l-2.104-1.626c1.595 1.235 3.037 2.628 4.283 4.216l-1.619-2.096a20.5 20.5 0 0 1 2.58 4.467l-1.044-2.475a21.4 21.4 0 0 1 1.322 4.814l-.371-2.76c.261 1.972.248 3.93.002 5.903l.372-2.767c-.338 2.395-1.002 4.7-1.921 6.935l1.053-2.495c-1.175 2.756-2.699 5.321-4.51 7.706l1.639-2.122c-2.261 2.91-4.894 5.489-7.807 7.742l2.132-1.647a47 47 0 0 1-10.164 5.872l2.529-1.067a46.7 46.7 0 0 1-11.323 3.087l2.829-.38c-3.75.494-7.521.515-11.275.043l2.842.382a45.8 45.8 0 0 1-11.475-3.119l2.567 1.083c-3.784-1.611-7.367-3.645-10.643-6.134l2.162 1.67a45.3 45.3 0 0 1-8.151-8.124l1.654 2.14a55 55 0 0 1-.903-1.248c-1.359-1.933-2.839-3.391-5.057-4.327-2.101-.887-4.655-1.255-6.886-.533-4.581 1.482-7.558 5.37-7.765 10.198-.127 2.955-.302 5.906-.636 8.846l.378-2.812c-1.028 4.115-1.696 8.343-3.345 12.274l1.104-2.615c-.794 1.829-1.845 3.55-2.437 5.463l1.096-2.597a24 24 0 0 1-2.077 3.606l1.641-2.124a21.4 21.4 0 0 1-3.35 3.252l2.099-1.622a22.3 22.3 0 0 1-4.655 2.661l2.447-1.032a26 26 0 0 1-6.331 1.694l2.689-.361c-4.226.518-8.48.292-12.691-.253l2.692.362c-5.531-.745-11.042-1.908-16.218-4.038l2.423 1.023c-2.781-1.176-5.412-2.631-7.809-4.474l2.055 1.587a27.8 27.8 0 0 1-4.604-4.588l1.588 2.056c-1.177-1.731-2.209-3.502-3.026-5.432l1.044 2.474a31 31 0 0 1-1.987-7.453l.378 2.816c-.413-3.222-.487-6.418-.061-9.644l-.381 2.837a34 34 0 0 1 2.265-8.255l-1.081 2.561c1.305-3.048 3.001-5.883 5.023-8.509l-1.686 2.182c2.374-3.024 5.126-5.698 8.165-8.049l-2.195 1.696a53.7 53.7 0 0 1 10.229-6.105c2.245-1.026 4.481-4.174 5.016-6.523.556-2.441.428-4.79-.55-7.107-1.998-4.734-7.699-8.083-12.877-6.32-1.06.361-2.136.622-3.244.785l2.907-.391a18.6 18.6 0 0 1-4.549.012l2.912.391a20.8 20.8 0 0 1-5.037-1.362l2.621 1.106a24.3 24.3 0 0 1-5.184-3.022l2.224 1.718a26.6 26.6 0 0 1-4.57-4.555l1.721 2.228a25.7 25.7 0 0 1-3.266-5.581l1.112 2.634a22.8 22.8 0 0 1-1.502-5.551l.395 2.936c-.221-1.846-.187-3.684.034-5.528l-.395 2.941a27 27 0 0 1 1.814-6.704l-1.117 2.648a31 31 0 0 1 3.886-6.629l-1.737 2.248c1.992-2.555 4.323-4.715 6.866-6.709l-2.249 1.738a37.5 37.5 0 0 1 8.034-4.725l-2.604 1.099c3.052-1.278 6.239-2.101 9.51-2.58l-2.838.381c1.804-.232 3.588-.534 5.387-.784l-2.79.375c4.62-.595 9.269-.509 13.881.107l-2.512-.338c5.563.784 10.904 2.496 16.075 4.666l-2.055-.867q1.22.52 2.427 1.07c2.134.972 4.195 1.502 6.541.856 1.969-.542 4.103-2.065 5.073-3.901 2.12-4.012 1.089-9.29-3.045-11.614Zm129.866 150.327a21 21 0 0 1-2.661-.913l2.106.889a21.3 21.3 0 0 1-4.2-2.469l1.834 1.417a23.3 23.3 0 0 1-3.967-3.942l1.461 1.89a24.5 24.5 0 0 1-3.037-5.15l.972 2.303a27 27 0 0 1-1.789-6.435l.353 2.623a22.2 22.2 0 0 1-.009-5.715l-.355 2.642a24.6 24.6 0 0 1 1.637-5.943l-1.009 2.391a27 27 0 0 1 3.314-5.66l-1.578 2.042a28 28 0 0 1 4.93-4.906l-2.059 1.591a28.3 28.3 0 0 1 5.677-3.335l-2.435 1.028a28 28 0 0 1 6.802-1.871l-2.705.363a31 31 0 0 1 7.878-.012l-2.699-.363a32.8 32.8 0 0 1 8.026 2.169l-2.42-1.021a32.6 32.6 0 0 1 5.567 3.036c2.084 1.417 5.433 1.67 7.794 1.02 2.346-.646 4.889-2.46 6.045-4.649 1.24-2.348 1.862-5.191 1.02-7.794-.852-2.634-2.398-4.441-4.649-6.045a20 20 0 0 1-.6-.436l2.047 1.581c-1.167-.913-2.192-1.975-3.118-3.13l1.592 2.06a22.2 22.2 0 0 1-2.801-4.767l1.035 2.454a23.8 23.8 0 0 1-1.57-5.727l.37 2.757a23.4 23.4 0 0 1-.014-5.939l-.374 2.783a25.5 25.5 0 0 1 1.741-6.246l-1.066 2.526a30.6 30.6 0 0 1 3.685-6.266l-1.662 2.151a30.8 30.8 0 0 1 5.151-5.178l-2.153 1.663a30 30 0 0 1 6.655-3.879l-2.544 1.073a32 32 0 0 1 7.721-2.07l-2.834.381c3.022-.387 6.046-.327 9.065.059l-2.825-.38a30.2 30.2 0 0 1 7.308 1.958l-2.495-1.053c2.224.946 4.325 2.125 6.249 3.591l-2.063-1.594a25.8 25.8 0 0 1 4.318 4.319l-1.556-2.015c1.256 1.635 2.309 3.364 3.119 5.261l-.986-2.337a29.4 29.4 0 0 1 1.953 7.225l-.348-2.593c.297 2.366.308 4.738.009 7.104l.348-2.587a25.6 25.6 0 0 1-1.649 6.165l.979-2.319c-.569 1.335-1.218 2.699-2.098 3.859l1.519-1.966-.214.261c-1.611 1.962-2.974 4.218-2.854 6.89.099 2.2.739 4.153 2.092 5.904 2.891 3.742 8.394 5.063 12.57 2.51 2.56-1.565 5.234-3.034 7.994-4.215l-2.415 1.019a41.7 41.7 0 0 1 10.208-2.813l-2.731.367c3.226-.423 6.47-.451 9.698-.03l-2.771-.372a33 33 0 0 1 7.839 2.105l-2.52-1.063c2.195.929 4.241 2.1 6.144 3.535l-2.157-1.667a30.6 30.6 0 0 1 5.399 5.389l-1.685-2.181a32.5 32.5 0 0 1 4.008 6.87l-1.096-2.596a28.4 28.4 0 0 1 1.917 6.913l-.389-2.897a25 25 0 0 1 .02 6.435l.39-2.905a24 24 0 0 1-1.645 5.898l1.104-2.617c-.978 2.236-2.242 4.3-3.728 6.233l1.718-2.223c-2.096 2.658-4.544 4.988-7.215 7.063l2.232-1.725a51.6 51.6 0 0 1-11.184 6.522l2.624-1.107a54 54 0 0 1-13.223 3.598l2.902-.39a55.2 55.2 0 0 1-14.46.033l2.882.387a52 52 0 0 1-12.859-3.455l2.573 1.086a49 49 0 0 1-6.601-3.394c-4.826-2.963-11.972-1.174-14.694 3.853a38 38 0 0 1-3.106 4.822l1.676-2.169a37.2 37.2 0 0 1-6.652 6.653l2.161-1.67q-.983.742-2.007 1.426c-2.318 1.547-4.147 3.632-4.903 6.376-.703 2.554-.386 5.955 1.076 8.221 1.469 2.278 3.656 4.283 6.376 4.903s5.816.502 8.221-1.076c6.465-4.239 11.955-9.853 15.705-16.646l-14.694 3.853c10.353 6.471 23.056 9.608 35.232 8.987 6.008-.306 12.117-1.302 17.808-3.293 3.335-1.167 6.633-2.563 9.749-4.232 3.038-1.628 5.759-3.614 8.47-5.736 5.096-3.989 9.815-9.17 12.513-15.101.874-1.922 1.746-3.882 2.332-5.918s.829-4.158 1.079-6.257c.395-3.31-.001-6.556-.544-9.837-1.078-6.514-4.366-12.304-8.409-17.405-4.15-5.236-9.733-8.885-15.849-11.403-7.329-3.017-15.287-3.27-23.031-2.15-7.555 1.092-15.237 4.183-21.194 8.971l2.019-1.56c-1.392 1.074-2.792 2.126-4.117 3.281l15.304 11.808c1.369-2.393 2.55-4.652 3.55-7.262.988-2.579 1.376-5.228 1.724-7.959.585-4.592.101-9.428-1.154-13.874-2.74-9.711-9.332-18.861-18.623-23.198-5.312-2.48-10.803-3.997-16.708-4.08-5.013-.07-10.268.756-14.937 2.62-5.519 2.203-10.512 5.164-14.677 9.483s-7.332 9.518-9.083 15.281c-1.861 6.122-1.892 13.134.104 19.229.954 2.916 2.229 5.885 4.04 8.386 2.46 3.396 4.96 5.833 8.358 8.283l10.211-17.468c-9.536-6.557-22.587-8.791-33.691-5.36-11.329 3.5-20.349 12.574-23.77 23.942a31.4 31.4 0 0 0-1.32 9.463c.072 4.035.933 7.687 2.496 11.362l-.988-2.341c1.973 5.058 4.707 9.795 8.861 13.4 3.968 3.443 8.711 6.214 13.957 7.083 2.368.392 4.538.381 6.684-.874 1.799-1.053 3.515-3.116 3.986-5.184 1.04-4.566-1.371-9.404-6.058-10.67Zm430.376-411.542a1467 1467 0 0 1-25.427 33.929l1.452-1.88c-17.644 22.832-36.057 45.009-54.91 66.848-2.589 2.999-5.271 5.934-7.786 8.994-3.035 3.694-5.817 7.627-8.734 11.416-1.32 1.715-1.585 5.24-.945 7.22s1.708 3.592 3.358 4.867c3.671 2.836 8.953 2.572 12.303-.733 3.546-3.498 7.207-6.919 10.454-10.698s6.494-7.602 9.689-11.448a1443 1443 0 0 0 18.788-23.095 1505 1505 0 0 0 37.444-49.006 1448 1448 0 0 0 19.613-27.472c1.253-1.799 1.456-4.784.893-6.827-.566-2.055-2.155-4.282-4.072-5.295-2.056-1.086-4.547-1.631-6.827-.893-2.317.75-3.868 2.109-5.295 4.072Zm39.543 75.354a4045 4045 0 0 1-71.04 85.017c-12.015 13.985-23.979 28.014-36.08 41.925a4068 4068 0 0 1-36.751 41.672c-6.174 6.905-12.381 13.78-18.527 20.709s-12.46 13.739-18.394 20.856a5448 5448 0 0 1-4.35 5.208c-1.744 2.084-2.935 4.277-2.935 7.085 0 2.457 1.092 5.393 2.935 7.085 4.003 3.674 10.206 3.957 14.17 0 13.104-13.08 25.478-26.884 37.744-40.75s24.354-27.719 36.388-41.703 24.06-27.986 35.796-42.219a4062 4062 0 0 0 73.772-92.159c1.532-1.971 2.636-3.753 2.636-6.363 0-2.207-.98-4.844-2.636-6.363-1.715-1.574-3.967-2.743-6.363-2.636-2.241.1-4.885.817-6.363 2.636Zm-17.726 135.977c-15.139 17.065-30.384 34.043-45.395 51.221l-6.249 7.151c-2.636 3.016-4.942 6.191-7.045 9.599-2.374 3.847-1.131 8.995 2.33 11.669 1.526 1.179 3.499 2.031 5.481 1.942 2.514-.113 4.472-1.031 6.396-2.649 2.194-1.844 4.276-3.663 6.142-5.847l5.524-6.465a2305 2305 0 0 0 10.993-12.985l22.076-26.231 12.408-14.743c1.561-1.854 2.622-3.829 2.622-6.33 0-2.196-.975-4.819-2.622-6.33-3.398-3.119-9.342-3.741-12.661 0ZM433.926 561.586c13.229 11.344 27.296 21.754 42.07 30.998 14.201 8.886 29.296 16.476 44.716 23.001a323 323 0 0 0 15.093 5.972 337 337 0 0 0 6.786 2.394c2.914.993 5.867 2.264 8.998 1.947 1.617-.163 3.206-.418 4.636-1.254 1.727-1.011 2.989-2.57 3.758-4.392 1.344-3.184.864-7.635-1.899-10.033q-.365-.32-.736-.633c-1.467-1.234-2.668-1.993-4.428-2.617-.684-.243-1.386-.443-2.075-.667a330 330 0 0 1-12.56-4.365 404 404 0 0 1-16.411-6.48l2.279.962c-21.534-9.093-42.22-20.412-61.527-33.589a335 335 0 0 1-15.837-11.508l1.649 1.274a380 380 0 0 1-3.098-2.424c-1.747-1.382-3.385-2.364-5.707-2.364-1.98 0-4.344.879-5.707 2.364-2.771 3.019-3.423 8.48 0 11.415Zm209.778-285.828c7.372-.385 14.796-.613 22.147-1.3 7.381-.69 14.753-1.493 22.122-2.3 15.346-1.681 30.658-3.616 45.954-5.706q12.497-1.708 24.971-3.571c1.991-.297 4.188-2.311 5.156-3.965 1.082-1.849 1.541-4.575.87-6.648-.676-2.088-1.969-4.102-3.965-5.156l-2.061-.87a8.7 8.7 0 0 0-4.587 0 2047 2047 0 0 1-32.798 4.683l2.286-.307a2994 2994 0 0 1-31.159 4.003c-10.962 1.355-21.975 2.402-32.908 3.969q-8.758 1.255-17.526 2.433l1.991-.267-.492.066c-2.064.277-3.744.651-5.281 2.187-1.295 1.295-2.271 3.421-2.187 5.281.173 3.872 3.29 7.687 7.468 7.468Zm13.348 35.926c25.172-2.734 50.393-4.632 75.686-5.81q10.656-.495 21.318-.835c4.119-.132 8.081-3.533 7.886-7.886-.184-4.115-3.472-8.082-7.886-7.886-25.302 1.127-50.539 3.053-75.766 5.27q-10.626.935-21.238 2.024c-2.057.211-3.834.702-5.346 2.215-1.311 1.311-2.299 3.463-2.215 5.346.088 1.955.73 3.984 2.215 5.346 1.385 1.272 3.392 2.427 5.346 2.215ZM299.434 464.915c15.904-23.397 31.475-47.039 46.818-70.807 15.255-23.63 29.833-47.69 44.406-71.744q6.19-10.22 12.361-20.452a416 416 0 0 0 5.92-10.095c.956-1.69 2.017-3.357 2.865-5.103.927-1.907 1.693-3.914 2.535-5.86.989-2.286 1.754-4.668.94-7.184-.636-1.965-1.699-3.575-3.341-4.843-1.573-1.215-3.607-2.093-5.649-2.002-2.294.103-5.109.833-6.593 2.731-2.612 3.34-5.232 6.627-7.477 10.229-1.893 3.037-3.783 6.07-5.593 9.157q-5.302 9.045-10.617 18.082a7154 7154 0 0 1-21.609 36.509c-14.481 24.279-28.905 48.603-43.691 72.698-8.327 13.568-16.963 26.947-25.693 40.259-2.4 3.66-.851 9.392 2.995 11.424 4.229 2.235 8.797.87 11.424-2.995Zm76.375 12.546c15.485-22.05 30.583-44.343 45.158-67.005 4.104-6.382 8.541-12.663 11.881-19.481 1.092-2.228 1.598-4.582.921-7.042-.584-2.12-2.223-4.417-4.2-5.461-2.121-1.121-4.69-1.682-7.042-.921l-2.183.921a9.2 9.2 0 0 0-3.278 3.278c-4.098 5.319-7.411 11.197-10.962 16.893a2543 2543 0 0 1-10.843 17.24c-7.184 11.322-14.351 22.656-21.607 33.933a2551 2551 0 0 1-12.426 19.123c-2.428 3.701-.86 9.496 3.029 11.551 1.959 1.035 4.333 1.554 6.505.851 2.19-.709 3.722-1.995 5.045-3.88Zm-186.506 28.882c13.931-19.588 27.985-39.122 41.496-59.004s26.936-39.772 40.045-59.898c7.358-11.296 14.824-22.524 21.682-34.132 2.483-4.202 1.092-10.412-3.345-12.757-2.164-1.143-4.785-1.716-7.184-.94-2.421.784-4.106 2.205-5.572 4.285-6.924 9.823-13.395 19.938-19.984 29.988s-13.195 20.057-19.722 30.131c-13.046 20.137-26.148 40.236-39.142 60.407a7664 7664 0 0 1-21.973 33.912c-2.27 3.483-.816 8.918 2.846 10.853 1.841.973 4.071 1.46 6.112.8 2.064-.668 3.485-1.879 4.74-3.645Zm525.315-395.309c50.971 20.847 96.214 55.508 129.609 99.295 5.308-11.559 6.684-24.475 7.99-37.127l10.859-105.213c1.198-11.605 2.389-23.399.271-34.871a544 544 0 0 0-123.828 71.788"/><path d="M710.661 117.803c9.112 4.249 18.015 8.94 26.668 14.06s17.324 10.331 25.633 16.08a327 327 0 0 1 13.885 10.161l-2.104-1.626c8.822 6.833 17.258 14.166 25.465 21.722s16.038 15.58 23.398 23.99a310 310 0 0 1 11.945 14.523l-1.698-2.198q.5.648.996 1.297a10.9 10.9 0 0 0 3.896 3.896 10.8 10.8 0 0 0 5.482 1.483c3.519 0 7.844-1.999 9.378-5.379 2.618-5.77 4.669-11.662 5.995-17.858 1.314-6.141 2.097-12.4 2.79-18.637 1.31-11.786 2.423-23.597 3.625-35.395 2.434-23.903 4.659-47.825 7.228-71.714.707-6.575 1.491-13.152 1.824-19.759.379-7.498-.213-14.796-1.231-22.223-.328-2.395-2.941-5.414-5-6.502-2.467-1.303-5.66-2.094-8.383-1.097-9.519 3.486-18.755 7.675-27.908 12.026a544.6 544.6 0 0 0-73.127 41.998 542 542 0 0 0-25.565 18.562 8.5 8.5 0 0 0-3.15 2.891 8.45 8.45 0 0 0-2.009 3.818c-.74 2.687-.406 6.265 1.132 8.65 1.545 2.397 3.846 4.507 6.709 5.159 2.725.621 6.324.663 8.65-1.132 14.775-11.398 30.118-22.051 45.981-31.879s32.225-18.841 49.011-26.988c9.468-4.596 19.125-8.773 28.661-13.219l-15.982-6.502c.248 1.101.487 2.204.643 3.323l-.384-2.86c1.249 9.511.541 19.105-.376 28.612-.94 9.739-1.878 19.481-2.934 29.208-2.109 19.435-4.217 38.87-6.25 58.314-1.112 10.638-2.039 21.317-3.456 31.92l.387-2.88c-1.12 8.239-2.77 16.439-5.998 24.135l1.095-2.594a79 79 0 0 1-.733 1.66h18.756c-7.097-9.305-14.558-18.3-22.588-26.818-7.362-7.809-15.081-15.447-23.36-22.289-17.306-14.299-35.929-26.935-55.814-37.372-5.32-2.792-10.864-5.204-16.395-7.546-6.184-2.619-12.418-5.099-18.747-7.348-1.758-.625-4.489-.21-6.041.79-1.456.939-2.531 2.146-3.208 3.749-1.396 3.309-.337 8.137 3.208 9.789Z"/></svg>