<?xml version="1.0" encoding="UTF-8"?><svg xmlns="http://www.w3.org/2000/svg" data-name="ARTWORK" viewBox="0 0 1000 1000"><path d="M25 824.073c87.706-109.156 194.867-262.574 293.936-361.532 13.355-13.34 28.427-27.362 47.235-28.967 37.489-3.199 67.063 43.998 103.973 36.696 13.744-2.719 24.75-12.672 34.999-22.224l231.73-215.983c-38.615-6.265-84.771-13.486-126.002-20.083-11.782-1.885-13.556-18.046-2.497-22.524 14.3-5.79 31.905-8.383 44.683-10.514a2223 2223 0 0 1 292.949-29.092c3.96-.13 8.186-.181 11.545 1.922 5.573 3.49 6.38 11.144 6.558 17.717a1590.7 1590.7 0 0 1-15.731 270.116c-1.714 11.878-18.238 13.547-22.36 2.276l-34.444-94.192c2.129 3.416-68.088 73.866-73.398 79.68-44.451 48.673-93.946 95.249-146.185 136.645-46.073 36.51-103.386 84.439-166.708 72.448-37.564-7.113-78.116-45.459-100.407-61.646-26.152-18.99-63.454 10.354-91.22 26.894-95.479 56.876-201.234 144.66-279.247 223.813"/><path d="M31.199 830.272c41.16-47.991 79.242-98.529 118.204-148.304C190.238 629.8 231.07 577.62 274.811 527.829c19.921-22.677 40.183-45.768 62.589-66.049 10.041-9.088 21.345-16.681 34.507-16.068.634.029 3.976.399 2.877.229-1.397-.216.458.108.602.144.73.181 1.479.301 2.212.474 2.975.702 5.851 1.687 8.708 2.766 2.257.852.766.326.289.113q1.07.477 2.129.977c1.247.59 2.48 1.209 3.703 1.845 2.843 1.478 5.625 3.068 8.376 4.708 22.048 13.144 44.196 30.153 71.45 25.298 16.515-2.942 29.652-14.53 41.526-25.584 13.949-12.984 27.875-25.992 41.812-38.988 56.435-52.623 112.794-105.345 169.525-157.65l20.675-19.063c6.53-6.021 3.809-19.512-5.566-21.084-34.677-5.815-69.42-11.221-104.145-16.741-7.793-1.239-16.36-1.694-23.91-3.993 3.067.934.57 0 .359-.03-.122-.018 2.799 1.398.445.14.248.133 1.704 2.31.423.316.003.005 1.11 2.207.426.936-.874-1.624.17-.608-.205-.536.05-.01.161 1.455.129-.123.05 2.456-.314 1.708-.043.684.774-2.93-.607 1.753-.004.086.536-1.484-.326 1.789-.209.354.058-.708.194 0-.603.449 1.874-1.055.769-.401.317-.253.987-.324 1.957-.733 2.94-1.075 4.027-1.404 8.14-2.558 12.281-3.571 7.71-1.884 15.535-3.237 23.362-4.53 74.198-12.261 148.836-21.148 223.895-25.989a2219 2219 0 0 1 56.435-2.919c4.628-.18 9.258-.386 13.888-.498 1.275-.031 3.823-.111 4.288-.052 1.513.194 1.099.437-.407-1.028.262.255 1.124 2.175.288.169.317.76.439 1.599.693 2.376.019.06.432 2.104.213.801-.242-1.444.1 1.159.123 1.476.319 4.432.3 8.902.392 13.343.784 38.029.2 76.087-1.746 114.075a1592 1592 0 0 1-10.032 114.577c-1.078 8.687-2.189 17.376-3.476 26.035-.099.666-.443 2.059-.46 2.888-.028 1.388-1.126.893.254-.234-.141.116-1.124 1.699-.042.265 1.301-1.724-1.479.878.38-.354l.585-.442q-1.506.821-.045.193c.755.154.884-.198-.127.008-2.309.47.528.108.772.003a9 9 0 0 1-1.332.006q-1.075-.061.373.072l.817.091q-1.633-.517-.166.074c1.583.786.17.046-.098-.127 2.2 1.416 1.037.775.418.282 1.456 1.162.831 1.241.242.248.241.407.664 1.697.216.621-.61-1.466-1.095-2.998-1.644-4.487-10.682-28.937-21.443-57.841-32.021-86.816l-.84-2.301-22.84 9.629c-1.662-3.809-.37-12.339-1.295-9.038-.285 1.019 2.012-3.281.986-2.376-.27.238-.409.748-.632 1.04-.317.416-.632.867-.92 1.305-1.414 2.152 2.102-2.541.304-.401-2.687 3.199-5.388 6.373-8.184 9.48-7.692 8.55-15.62 16.894-23.591 25.184-12.613 13.118-25.713 25.796-38.162 39.068-29.823 31.793-60.419 62.697-92.971 91.721-30.313 27.028-61.997 53.435-94.438 76.422-15.513 10.992-31.83 21.28-49.371 28.737-15.673 6.663-33.484 10.873-50.913 10.271-16.953-.586-31.431-6.189-46.351-14.878-7.907-4.605-15.498-9.736-22.896-15.116s-11.953-8.981-19.063-14.638c-13.091-10.415-25.402-22.564-42.707-24.643-17.968-2.159-35.886 6.164-51.148 14.723-16.08 9.018-31.674 19.162-47.329 28.9-17.156 10.671-33.979 21.874-50.526 33.465-69.362 48.589-134.917 103.32-195.478 162.508-6.993 6.835-13.877 13.779-20.745 20.739-11.585 11.741 6.509 29.859 18.106 18.106 59.217-60.014 123.536-115.607 191.697-165.23 32.363-23.561 66.124-44.538 99.979-65.822 7.924-4.982 15.899-9.919 24.252-14.156 4.355-2.21 6.427-3.178 10.23-4.54 4.018-1.439 8.205-2.685 12.446-3.252-2.423.324 1.811-.044 2.628-.056 1.191-.018 2.366.062 3.555.106.578.021 2.41.46.066-.015 1.922.39 3.809.853 5.647 1.556-.606-.232-1.85-1.057.2.161 1.068.635 2.144 1.19 3.181 1.881 1.413.941 2.763 1.987 4.117 3.009q.81.614 1.617 1.232c-2.054-1.567-.504-.391-.087-.063q4.584 3.608 9.146 7.244c29.362 23.4 60.628 48.836 99.115 53.656 39.575 4.956 77.946-11.604 110.46-32.727 16.585-10.775 32.224-22.936 47.72-35.202 16.657-13.184 33.192-26.499 49.289-40.366 34.112-29.387 66.706-60.602 97.377-93.568 14.052-15.104 28.379-29.905 42.652-44.802 8.315-8.678 16.631-17.359 24.771-26.202 6.084-6.609 12.62-13.286 17.634-20.776 3.252-4.858 3.579-9.854 1.212-15.261-2.46-5.621-10.492-7.361-15.605-5.113-5.292 2.326-9.411 8.803-7.235 14.742 10.663 29.114 21.199 58.272 31.713 87.44 2.118 5.875 3.931 12.103 8.395 16.691 12.429 12.774 35.03 7.145 40.406-9.631 1.284-4.007 1.494-8.462 2.067-12.621.789-5.725 1.557-11.453 2.295-17.185a1591 1591 0 0 0 9.232-93.233 1591 1591 0 0 0 3.744-125.157c-.094-9.888-.069-19.826-.582-29.702-.492-9.458-2.71-19.04-10.522-25.158-8.527-6.678-19.377-5.415-29.523-5.04q-15.738.58-31.468 1.385c-83.173 4.248-166.111 13.205-248.301 26.634-17.448 2.851-35.491 5.074-51.996 11.721-8.047 3.241-14.338 9.202-16.155 17.959-1.686 8.129.682 17.054 6.757 22.871 6.908 6.615 16.294 7.001 25.242 8.426q14.531 2.313 29.064 4.616c19.049 3.02 38.098 6.034 57.142 9.079 8.823 1.411 17.659 2.738 26.486 4.12l-5.566-21.084c-56.158 52.912-112.672 105.447-169.058 158.117-13.926 13.008-27.875 25.992-41.818 38.982-7.041 6.559-14.073 13.128-21.123 19.678-5.466 5.078-10.647 9.909-16.928 13.706-3.093 1.869-5.244 2.982-8.517 3.954a45 45 0 0 1-4.754 1.11c2.292-.418-2.221.106-2.936.115-1.298.017-2.579-.09-3.873-.127-2.343-.067-.584-.031-.032.052a47 47 0 0 1-2.172-.386c-2.917-.586-5.777-1.439-8.568-2.467a66 66 0 0 1-2.116-.82c.215.087 1.583.691.289.109q-2.116-.952-4.188-1.996c-2.825-1.423-5.584-2.971-8.31-4.573-5.414-3.182-10.68-6.607-16.016-9.916-10.62-6.586-21.963-13.103-34.274-15.862-15.59-3.494-31.129-.681-44.853 7.459-13.458 7.982-24.53 19.555-35.398 30.644-10.608 10.824-20.965 21.893-31.137 33.127-44.437 49.082-85.351 101.247-125.692 153.704-39.327 51.139-77.959 102.924-116.304 154.795a2787 2787 0 0 1-12.743 17.101c-5.945 7.914 7.307 18.159 13.769 10.624Z"/><path d="m30.401 838.362 5.004 3.777c.399.301.875.605 1.251.944-1.88-1.697.707.555 1.565 1.178.948.689 1.908 1.363 2.861 2.045 3.602 2.577 7.2 5.159 10.806 7.73 3.581 2.554 7.476 4.979 11.857 5.839 5.798 1.138 11.163.049 16.453-2.399 3.984-1.843 7.476-4.695 10.834-7.475a555 555 0 0 0 8.736-7.396q9.004-7.774 18.018-15.535c23.906-20.579 47.902-41.057 72.263-61.097 12.175-10.016 24.441-19.922 36.829-29.673q4.675-3.68 9.375-7.33l2.212-1.715c1.431-1.109-.248.193-.45.347q.556-.426 1.108-.855 2.493-1.921 4.994-3.834a1551 1551 0 0 1 18.99-14.297c25.212-18.674 51.036-36.542 77.649-53.167s54.046-31.819 82.29-45.377a545 545 0 0 1 10.756-5.036c6.18-2.803 6.888-12.507 2.166-16.809-11.997-10.933-25.514-21.026-41.42-25.327-8.039-2.174-16.376-2.667-24.569-1.214-6.818 1.209-13.398 4.13-19.599 7.101-11.833 5.669-22.884 12.933-34.062 19.767-14.356 8.778-28.434 18.005-42.327 27.497-27.886 19.053-55.023 39.167-82.376 58.971-26.57 19.237-52.863 38.868-78.075 59.869-24.531 20.433-48.045 42.151-69.576 65.746a581 581 0 0 0-8.038 9.003c-3.833 4.38-4.632 11.492 0 15.744 4.201 3.856 11.648 4.68 15.744 0 17.915-20.47 37.364-39.557 57.734-57.573 10.29-9.101 20.816-17.933 31.512-26.552 5.261-4.24 10.563-8.428 15.9-12.573.645-.501 1.386-.955 1.968-1.525-.162.159-2.094 1.614-.579.448l.845-.651a1354 1354 0 0 1 12.457-9.472c22.449-16.876 45.246-33.306 67.944-49.845 23.164-16.878 46.496-33.549 70.549-49.146 10.537-6.833 21.25-13.387 31.952-19.955 4.889-3.001 9.824-5.935 14.899-8.611a129 129 0 0 1 7.744-3.784c.755-.336 3.001-1.152-.222.077.529-.202 1.049-.427 1.577-.631a67 67 0 0 1 3.882-1.368c2.335-.741 4.712-1.326 7.136-1.683l-2.901.39c3.757-.497 7.568-.357 11.317.144l-2.904-.39a55.4 55.4 0 0 1 11.452 2.982c.497.187.999.435 1.505.588-.409-.124-2.169-.961-.822-.344.889.407 1.779.808 2.656 1.238a85 85 0 0 1 5.487 2.969 112 112 0 0 1 9.975 6.581c.446.33.885.669 1.332.999 1.093.805-2.144-1.696-.342-.264.781.621 1.562 1.241 2.334 1.873a185 185 0 0 1 4.776 4.057l2.166-16.809c-28.107 13.408-55.492 28.134-82.072 44.368s-52.235 33.446-77.35 51.653c-25.739 18.659-50.846 38.191-75.542 58.207-24.33 19.719-48.256 39.929-72.042 60.298-11.783 10.09-23.607 20.14-35.255 30.386-1.38 1.214-2.754 2.436-4.143 3.64a84 84 0 0 1-2.018 1.7c-1.624 1.32.305-.072.257-.184.031.073-1.264.903-1.354.964-.725.493-1.465.961-2.229 1.39-.375.211-.774.387-1.143.605-1.154.681 1.966-.685.703-.266-.796.265-1.601.472-2.399.723-1.273.4 2.214-.104.875-.091-.518.005-1.048.012-1.566.033-1.682.067.517-.045.78.143-.211-.15-.979-.226-1.286-.317.09.027-1.254-.38-1.249-.432.016-.168 1.993.974.598.194a81 81 0 0 1-5.238-3.223l-10.719-7.107c-3.573-2.369-7.213-4.619-10.844-6.894-4.119-2.58-10.402-1.008-12.693 3.328-1.138 2.153-1.708 4.761-.935 7.149.792 2.447 2.226 4.007 4.263 5.544Zm412.057-230.023c5.707 7.411 11.771 14.698 18.949 20.724 7.297 6.127 15.059 11.734 23.253 16.602 16.055 9.537 33.609 16.316 51.952 19.913 40.854 8.012 83.92.756 120.572-18.712 18.63-9.896 35.837-22.443 52.452-35.373 15.982-12.438 31.24-25.782 46.037-39.601 30.584-28.563 59.461-58.945 88.736-88.831l46.704-47.677c3.787-3.866 7.571-7.734 11.36-11.597 4.743-4.835 9.33-9.826 9.33-17.069 0-5.662-1.777-11.693-2.884-17.232l-3.364-16.833c-1.062-5.316-2.248-10.622-3.051-15.984-.83-5.541-8.41-9.507-13.473-7.65-8.292 3.041-15.461 7.959-21.783 14.114-6.019 5.86-11.849 11.924-17.757 17.895l-36.586 36.97c-23.881 24.132-47.479 48.596-71.862 72.223-23.175 22.456-47.329 43.918-72.528 64.082a904 904 0 0 1-10.567 8.329c-1.639 1.276.075-.09.354-.271-.811.528-1.563 1.204-2.33 1.791a829 829 0 0 1-24.224 17.892c-12.836 9.124-25.863 18.367-39.601 26.094a168 168 0 0 1-14.654 7.328c-.476.21-.956.412-1.431.623-1.189.528.991-.414.979-.41-.977.341-1.929.794-2.892 1.175a173 173 0 0 1-21.536 6.926 174 174 0 0 1-16.452 3.292c-.805.121-3.757.367-.386.071-1.034.091-2.068.258-3.1.373a170 170 0 0 1-22.205 1.01c-3.773-.076-7.54-.289-11.3-.611-6.085-.522-11.908 5.728-11.643 11.643.303 6.754 5.125 11.084 11.643 11.643 31.701 2.718 63.723-3.504 92.542-16.79 14.115-6.507 27.023-15.254 39.819-24.005 13.917-9.518 27.483-19.522 40.82-29.834 25.691-19.865 50.315-41.093 73.938-63.374 24.479-23.088 47.836-47.371 71.552-71.235l36.981-37.214 18.491-18.607c5.499-5.534 10.838-11.41 16.811-16.441.383-.323.777-.632 1.161-.953.966-.807-.832.649-.817.636.875-.759 2.158-1.582 2.919-2.202-.028.022-1.843 1.245-.786.658 1.644-.913 3.164-1.974 4.867-2.801l-16.09-6.546c2.664 10.479 4.449 21.235 6.597 31.832a898 898 0 0 0 1.655 7.956c.25 1.177.506 2.354.75 3.532.009.043.378 1.333.297 1.486q-.261-2.376-.149-.582l.248-1.334c-.536 1.924.304-.652.408-.62l-.323.595q-.754 1.124.05.057l.414-.519q-.33.405-.681.79c-.384.431-.782.848-1.18 1.266-1.865 1.96-3.774 3.88-5.664 5.815l-45.375 46.455c-28.73 29.413-57.101 59.248-86.703 87.791-14.19 13.683-28.744 27.003-43.926 39.582a564 564 0 0 1-11.486 9.271c-.859.674-1.707 1.369-2.586 2.018 1.891-1.397-.645.492-1.159.885a490 490 0 0 1-6.562 4.922c-7.906 5.827-15.978 11.449-24.287 16.688-8.457 5.333-17.207 10.217-26.353 14.271-.607.269-1.212.574-1.835.801.315-.115 2.012-.826.245-.105a176 176 0 0 1-10.118 3.817 176 176 0 0 1-27.932 7.062c-1.185.198-2.373.376-3.561.557-.599.092-1.801.525.358-.038-.484.126-1.083.14-1.589.202q-3.776.462-7.568.758c-9.575.748-19.213.697-28.778-.186q-1.793-.165-3.583-.37-.795-.093-1.59-.19c-.956-.113-1.184.32.357.054-.992.171-2.593-.385-3.563-.537a173 173 0 0 1-3.781-.625 162 162 0 0 1-12.843-2.841 164 164 0 0 1-18.382-6.037c-.897-.354-1.844-.668-2.707-1.097 2.126 1.059.599.252.034.007q-.837-.366-1.673-.737c-.714-.314-4.514-1.842-2.538-1.081 1.513.583-.722-.303-.838-.353q-1.344-.588-2.676-1.2a135 135 0 0 1-5.919-2.892c-3.886-2.019-7.677-4.235-11.376-6.578s-7.257-4.865-10.779-7.462c-1.892-1.395.908.731-.234-.171-.383-.302-.768-.601-1.149-.906a99 99 0 0 0-3.8-2.901c-.445-.322-2.479-1.892-1.176-.875a157 157 0 0 1-2.868-2.29 158 158 0 0 1-9.826-8.755c-2.571-2.485-6.558-2.739-9.38-.558-2.526 1.951-4.017 6.388-1.84 9.215Zm150.421-403.096c.012 2.604.354 5.192.795 7.755l-.263-1.961c.092 2.507.399 4.952.738 7.44l-.3-2.232c.224 1.75.494 3.215 1.025 4.848a91 91 0 0 0 1.038 2.998 184 184 0 0 0 2.295 5.974c1.714 4.244 3.501 8.461 5.251 12.691 1.731 4.185 3.282 8.438 5.124 12.578 1.701 3.823 4.237 7.358 6.984 10.49 3.377 3.851 7.615 6.476 12.365 8.269s10.123 1.869 15.152 2.07l27.959 1.121c4.619.185 9.241.442 13.862.546 2.919.065 6.044-.132 8.828-1.018 3.128-.996 5.636-2.483 8.187-4.454 3.781-2.921 7.221-6.287 10.751-9.503 3.432-3.127 6.857-6.262 10.285-9.394 1.639-1.497 3.338-2.949 4.912-4.515 1.798-1.789 3.572-3.901 4.627-6.228 1.726-3.81 2.742-8.028 1.286-12.146-.666-1.885-1.516-3.691-2.951-5.126-.891-.891-2.046-1.609-3.116-2.284a20 20 0 0 0-2.868-1.505c-8.238-3.507-16.612-6.313-25.367-8.219-16.814-3.661-34.023-5.076-51.077-7.155a521 521 0 0 1-6.096-.778l3.014.405c-11.402-1.536-22.745-3.596-33.735-7.058-5.672-1.787-12.651 2.103-13.98 7.938-1.405 6.17 1.858 12.091 7.938 13.98 17.563 5.457 36.01 7.442 54.206 9.576 4.939.579 9.878 1.163 14.807 1.822l-3.031-.407c8.331 1.122 16.643 2.463 24.821 4.427 4.056.974 8.097 2.058 12.069 3.332s7.825 2.933 11.831 4.108l-6.501-4.999q.207.294.363.618l-1.092-2.587c.129.331.217.631.285.979l-.385-2.866c.05.461.044.89-.012 1.351l.383-2.849a9 9 0 0 1-.309 1.016l1.08-2.56c-.354.83-.806 1.57-1.338 2.297l1.677-2.17c-1.731 2.232-3.991 4.026-6.074 5.916l-7.002 6.351c-4.473 4.058-8.797 8.419-13.531 12.172l2.178-1.683c-1.107.848-2.257 1.59-3.532 2.16l2.571-1.085c-.984.399-1.971.657-3.02.826l2.861-.384c-4.278.554-8.768-.008-13.063-.18l-13.48-.54-13.48-.54c-4.305-.173-8.664-.169-12.943-.702l2.861.384c-1.938-.269-3.824-.696-5.641-1.432l2.571 1.085a22 22 0 0 1-4.603-2.692l2.166 1.673c-1.8-1.409-3.357-3.058-4.759-4.859l1.65 2.135c-3.96-5.199-6.987-11.085-9.91-16.902-1.766-3.514-3.503-7.043-5.298-10.542-1.733-3.38-3.536-6.715-5.024-10.215l.858 2.033c-1.008-2.451-2.36-4.703-3.431-7.125l.752 1.781c-.506-1.22-.663-2.631-.85-3.933l.259 1.93a38 38 0 0 1-.221-2.249c-.253-3.745-3.125-7.372-7.19-7.19-3.881.174-7.208 3.159-7.19 7.19Z"/><path d="M887.991 381.587a547 547 0 0 1 3.194 19.171q.357 2.405.697 4.812.168 1.204.333 2.409c.154 1.105-.108-.802-.109-.818.046.456.12.91.18 1.364q.645 4.948 1.201 9.909c1.22 10.899 2.028 21.836 3.168 32.741 1.759 16.825 5.106 33.57 12.478 48.913 3.66 7.618 8.851 14.674 15.978 19.364 3.112 2.048 6.806 3.422 10.459 4.142 3.184.628 6.506 1.074 9.752.709 6.978-.784 13.132-3.426 18.179-8.421 4.701-4.653 7.625-10.434 10.066-16.484 4.789-11.872 6.182-25.203 7.024-37.87.769-11.571.695-23.182.331-34.768-.5-15.879-.509-31.721-.14-47.609.612-26.373 1.843-52.725 2.752-79.088.912-26.438 1.646-52.918 1.363-79.373-.125-11.69-.767-23.372-.843-35.06-.058-8.934-.27-18.833-5.034-26.702-3.292-5.439-8.148-8.921-14.104-10.947-5.473-1.861-12.31 2.134-13.581 7.711-1.395 6.123 1.851 11.588 7.711 13.581q.626.213 1.241.459l-2.637-1.113a16 16 0 0 1 3.188 1.826l-2.234-1.726c.943.74 1.886 1.486 2.852 2.196l-2.23-1.723a16 16 0 0 1 2.413 2.432l-1.7-2.201c.938 1.233 1.691 2.56 2.317 3.976l-1.077-2.552c.998 2.369 1.666 4.877 2.037 7.419l-.371-2.76c.481 3.686.583 7.399.686 11.111.143 5.131.547 10.25.76 15.379.526 12.692.755 25.395.782 38.097.054 25.649-.886 51.27-1.783 76.899-.889 25.387-1.84 50.777-2.109 76.18-.134 12.691-.048 25.364-.021 38.053.024 11.585-.306 23.196-1.565 34.719a194 194 0 0 1-.553 4.561l.371-2.76c-1.189 8.825-2.929 17.745-6.399 25.986l1.074-2.546c-.747 1.749-1.574 3.464-2.528 5.111q-.641 1.111-1.362 2.173c-.234.344-.478.68-.721 1.017-1.108 1.539 2.06-2.519.704-.928a29 29 0 0 1-1.594 1.75c-.54.537-1.342 1.011-1.799 1.606-.101.131 2.69-1.971 1.558-1.21-.155.104-.303.219-.457.325q-.46.315-.938.604a18 18 0 0 1-2.175 1.11l2.59-1.093c-1.4.583-2.852.978-4.353 1.196l2.893-.389c-1.804.237-3.612.21-5.415-.019l2.906.39c-2.293-.317-4.574-.909-6.709-1.806l2.626 1.108c-1.59-.685-3.056-1.574-4.431-2.624l2.226 1.72c-1.918-1.508-3.585-3.274-5.087-5.193l1.721 2.227c-2.967-3.869-5.217-8.217-7.111-12.696l1.111 2.632c-5.353-12.843-8.176-26.917-10.024-40.666l.384 2.861c-1.582-11.918-2.97-23.804-5.208-35.626a549 549 0 0 0-8.53-37.692c-1.13-4.294-6.114-7.33-10.442-5.929-4.688 1.517-6.792 5.752-5.929 10.442Z"/></svg>