<?xml version="1.0" encoding="UTF-8"?><svg xmlns="http://www.w3.org/2000/svg" data-name="ARTWORK" viewBox="0 0 1000 1000"><path d="M113.235 406.93c-6.131 1.271-12.256 3.003-18 5.509l2.283-.963c-8.687 3.384-17.021 7.469-24.762 12.684s-14.93 11.33-21.295 18.197c-3.921 4.23-7.513 8.761-10.916 13.414l1.889-2.445c-8.035 10.226-13.891 22.359-18.119 34.609a113.4 113.4 0 0 0-4.391 16.843c-1.263 6.996-2.158 14.155-2.282 21.272-.457 26.256 6.858 52.773 20.168 75.366 13.431 22.799 33.311 41.594 56.525 54.228 23.312 12.688 49.711 19.647 76.267 19.824 26.41.176 52.895-6.411 76.155-18.91s43.187-31.675 55.945-54.978c13.135-23.992 19.565-51.621 18.653-78.948-.872-26.111-8.239-52.145-21.655-74.6-13.297-22.256-32.567-41.218-56.048-52.5-11.74-5.641-24.172-9.787-37.078-11.67-13.85-2.021-27.624-1.857-41.395.808-2.806.543-5.559 1.45-8.259 2.377-3.577 1.228-7.216 2.483-10.627 4.131l2.527-1.066-.406.15c-2.635.971-4.862 2.367-6.321 4.861-1.327 2.267-1.889 5.608-1.066 8.15.828 2.559 2.414 5.028 4.861 6.321 2.395 1.265 5.506 2.041 8.15 1.066 4.818-1.776 10.089-2.672 15.158-3.358l-3.054.41c3.014-.395 6.004-.917 9.016-1.322l-3.084.414c10.154-1.322 20.352-1.092 30.489.253l-3.156-.424a120 120 0 0 1 30.402 8.345l-2.823-1.191c9.181 3.909 17.85 8.934 25.762 15.019l-2.381-1.839c8.336 6.463 15.768 14.01 22.216 22.352l-1.831-2.37c7.053 9.187 12.834 19.268 17.354 29.928l-1.181-2.798a146.5 146.5 0 0 1 10.074 36.844l-.42-3.125a145.8 145.8 0 0 1 .026 38.563l.422-3.139c-1.682 12.386-4.929 24.525-9.765 36.055l1.199-2.842c-4.268 10.08-9.759 19.589-16.437 28.267l1.884-2.439c-6.462 8.333-13.979 15.771-22.316 22.223l2.475-1.912c-9.344 7.181-19.611 13.072-30.463 17.655l2.969-1.253c-11.861 4.967-24.338 8.345-37.076 10.093l3.362-.452c-13.048 1.752-26.266 1.737-39.317.013l3.421.46c-13.646-1.844-26.992-5.383-39.688-10.729l3.079 1.299c-11.419-4.848-22.212-11.086-32.042-18.66l2.607 2.014c-8.868-6.878-16.879-14.801-23.755-23.675l2.013 2.605c-7.004-9.102-12.786-19.086-17.251-29.665l1.297 3.073c-4.538-10.848-7.665-22.245-9.239-33.901l.459 3.417c-1.488-11.308-1.519-22.843-.016-34.151l-.453 3.375a115.8 115.8 0 0 1 8.015-29.3l-1.245 2.95c4.289-10.083 9.986-19.605 16.661-28.289l-1.841 2.382c6.609-8.539 14.361-16.242 22.886-22.867l-2.147 1.659c7.697-5.938 16.113-10.895 25.066-14.686l-2.19.924a109 109 0 0 1 8.669-3.207c4.312-1.389 7.544-6.08 6.059-10.671-1.524-4.709-5.903-7.047-10.671-6.059Z"/><path d="M116.099 537.197a18 18 0 0 1-1.622-2.946l.763 1.808a19.6 19.6 0 0 1-1.243-4.621l.28 2.086c-.274-2.134-.247-4.281.026-6.413l-.294 2.187c.522-3.705 1.65-7.337 3.082-10.787l-.893 2.117a59.8 59.8 0 0 1 7.354-12.775l-1.518 1.964c1.304-1.645 2.499-3.363 3.775-5.029l-1.537 1.99c3.876-5.005 8.421-9.457 13.42-13.336l-2.078 1.605a68.6 68.6 0 0 1 14.779-8.666l-2.501 1.055c5.578-2.343 11.427-3.915 17.42-4.735l-2.84.382a71.3 71.3 0 0 1 18.488.002l-2.899-.389a68.8 68.8 0 0 1 17.062 4.614l-2.655-1.12c5.021 2.126 9.827 4.791 14.163 8.107l-2.262-1.748a55.2 55.2 0 0 1 9.63 9.625l-1.747-2.261a59.4 59.4 0 0 1 7.621 13.036l-1.126-2.668a60 60 0 0 1 4.098 14.924l-.399-2.968c.648 4.887.68 9.821.042 14.711l.399-2.967a53.8 53.8 0 0 1-3.736 13.565l1.125-2.665a58.2 58.2 0 0 1-7.45 12.635l1.744-2.258a60.4 60.4 0 0 1-10.392 10.39l2.257-1.744a58.2 58.2 0 0 1-12.636 7.448l2.663-1.124a53.8 53.8 0 0 1-13.565 3.734l2.962-.398c-4.89.637-9.824.604-14.711-.044l2.961.398a60 60 0 0 1-14.923-4.1l2.66 1.123a62.5 62.5 0 0 1-13.658-8.005l2.235 1.727c-3.682-2.882-6.932-6.253-10.007-9.766-1.65-1.884-5.039-3.222-7.512-3.111-2.399.107-4.527.806-6.437 2.281-4.055 3.133-5.555 9.176-2.736 13.704 7.248 11.641 19.115 19.657 31.765 24.414 12.021 4.52 25.534 5.283 38.03 2.419 24.127-5.531 44.723-26.154 50.11-50.333 2.778-12.469 2.004-25.893-2.525-37.867-2.264-5.987-5.059-11.744-8.894-16.887-2.188-2.935-4.455-5.806-7.052-8.39-2.512-2.499-5.29-4.694-8.138-6.797-6.023-4.448-12.988-7.646-20.106-9.906-6.918-2.196-14.301-3.32-21.548-3.529-14.34-.414-28.952 3.218-41.374 10.402-5.521 3.193-10.851 7.143-15.36 11.66a72 72 0 0 0-5.558 6.241c-2.219 2.812-4.55 5.711-6.291 8.86-1.35 2.442-2.502 4.993-3.612 7.551-1.421 3.274-2.774 6.586-3.723 10.031-1.813 6.58-2.352 14.068-.391 20.689 1.1 3.71 2.937 6.893 5.452 9.811 2.396 2.78 6.975 2.67 9.685.577 2.732-2.111 3.976-6.458 1.9-9.515Zm554.242 206.714-68.635-85.162c-2.428-3.012-4.979-6.362-4.95-10.231.044-5.71 5.496-9.677 10.363-12.664l37.212-22.839c6.626-4.067 14.879-8.225 21.747-4.582 3.885 2.061 6.188 6.144 8.28 10.012l49.791 92.062 90.986-79.897c3.139-2.757 6.768-5.688 10.934-5.378 3.517.261 6.405 2.789 8.883 5.299 12.834 12.998 22.444 29.156 27.738 46.639 1.781 5.88 3.063 12.297.996 18.083-2.387 6.682-8.667 11.063-14.652 14.875a558 558 0 0 1-92.438 47.407c1.768 11.771 11.061 20.727 19.394 29.227a324.6 324.6 0 0 1 54.25 73.845c1.889 3.527 3.753 7.663 2.272 11.38-1.148 2.88-3.998 4.65-6.671 6.22l-45.413 26.674c-5.694 3.345-12.413 6.799-18.591 4.466-4.062-1.534-6.831-5.246-9.311-8.809a429.7 429.7 0 0 1-50.38-96.576c-37.475 16.619-59.736 62.3-100.262 68.483-3.519.537-7.238.721-10.523-.65-3.934-1.641-6.648-5.236-9.169-8.673l-32.809-44.744a621.5 621.5 0 0 1 122.76-65.062"/><path d="M678.633 739.064c-5.994-7.811-11.833-15.779-18.003-23.449l1.603 2.075c-13.752-17.955-27.371-36.021-41.411-53.75-3.791-4.787-7.61-9.553-11.371-14.364l1.853 2.398c-1.251-1.623-2.419-3.284-3.281-5.15l1.2 2.843a13 13 0 0 1-.85-2.833l.426 3.171a11 11 0 0 1-.043-2.375l-.427 3.176c.123-.866.34-1.675.661-2.489l-1.207 2.859c.417-.936.929-1.779 1.543-2.599l-1.876 2.428c1.051-1.318 2.266-2.447 3.585-3.492l-2.437 1.883c3.528-2.708 7.467-4.888 11.249-7.213l13.019-8.003 12.753-7.839c4.021-2.471 7.985-5.082 12.329-6.963l-2.872 1.212c2.094-.869 4.23-1.543 6.481-1.851l-3.195.429a16.3 16.3 0 0 1 3.938.032l-3.194-.429c.986.169 1.925.43 2.858.79l-2.866-1.209a14 14 0 0 1 2.949 1.743l-2.42-1.87a19 19 0 0 1 2.693 2.762l-1.862-2.41c1.919 2.493 3.381 5.286 4.906 8.027 1.777 3.194 3.564 6.382 5.319 9.588l10.528 19.24 21.207 38.755c4.01 7.329 7.958 14.696 12.037 21.986 1.717 3.068 4.804 4.903 8.201 5.36 3.668.493 6.677-.67 9.43-3.088 24.359-21.39 48.776-42.715 73.165-64.072 6.727-5.891 13.278-12.119 20.286-17.672l-2.306 1.782c1.347-1.034 2.741-1.954 4.299-2.638l-2.724 1.149a12.7 12.7 0 0 1 2.335-.677l-3.032.407a10.3 10.3 0 0 1 2.457-.031l-3.033-.408c.825.139 1.592.363 2.367.676l-2.726-1.15c1.079.497 2.046 1.111 2.992 1.827l-2.311-1.785c4.575 3.656 8.444 8.465 12.01 13.079l-1.789-2.315a115.8 115.8 0 0 1 14.567 24.961l-1.157-2.742c2.564 6.09 4.936 12.512 5.888 19.076l-.411-3.058c.284 2.218.357 4.419.098 6.643l.411-3.061a19.7 19.7 0 0 1-1.246 4.651l1.161-2.752a21 21 0 0 1-2.393 4.089l1.802-2.333c-1.686 2.176-3.698 4.026-5.865 5.713l2.335-1.804c-4.727 3.603-9.926 6.626-14.996 9.713a558 558 0 0 1-51.159 27.604c-6.605 3.132-13.292 6.089-20.025 8.933l2.805-1.184a581 581 0 0 1-12.44 5.07c-2.829 1.115-5.568 2.599-7.064 5.432l-1.192 2.824a11.9 11.9 0 0 0 0 6.285c1.674 10.887 8.769 20.174 16.036 28.047 6.842 7.411 13.96 14.511 20.503 22.203a392 392 0 0 1 11.247 13.832l-1.894-2.452a328 328 0 0 1 16.238 22.98 324 324 0 0 1 7.285 11.873c2.374 4.062 4.899 8.159 6.806 12.465l-1.202-2.848c.569 1.368 1.014 2.742 1.241 4.21l-.426-3.171c.094.893.093 1.741-.025 2.63l.426-3.172a11 11 0 0 1-.43 1.54l1.203-2.851a9.7 9.7 0 0 1-1.154 1.964l1.867-2.417a14 14 0 0 1-1.979 1.927l2.418-1.868c-4.07 3.11-8.872 5.442-13.293 8.012l-14.094 8.192-14.094 8.192c-4.566 2.654-9.07 5.575-13.919 7.693l2.914-1.23c-1.99.832-4.015 1.478-6.157 1.772l3.251-.437c-1.214.127-2.386.13-3.598-.018l3.256.437a13.8 13.8 0 0 1-2.973-.836l2.929 1.236a15 15 0 0 1-2.842-1.71l2.484 1.919c-1.517-1.223-2.798-2.655-3.991-4.19l1.924 2.49c-3.498-4.616-6.626-9.556-9.759-14.424a431 431 0 0 1-26.193-46.903 437 437 0 0 1-8.34-18.514l1.273 3.016a439 439 0 0 1-7.744-19.679c-1.402-3.832-3.536-6.619-7.352-8.229q-2.27-1.193-4.892-1.094a12.63 12.63 0 0 0-6.409 1.734c-20.973 9.283-37.302 26.433-53.905 41.738-4.512 4.159-9.124 8.214-13.98 11.97l2.653-2.05c-6.274 4.823-12.964 9.11-20.262 12.214l3.128-1.32c-5.156 2.157-10.539 3.687-16.081 4.438l3.478-.467c-2.068.246-4.112.34-6.184.083l3.473.467a15.8 15.8 0 0 1-3.225-.86l3.118 1.316a15.4 15.4 0 0 1-2.938-1.699l2.639 2.039c-1.832-1.423-3.346-3.14-4.77-4.961l2.035 2.634c-5.824-7.571-11.376-15.367-17.051-23.051-5.804-7.859-11.609-15.717-17.396-23.588l-4.606 17.565a623 623 0 0 1 84.174-48.463 625 625 0 0 1 25.188-11.307l-3.03 1.278a608 608 0 0 1 13.315-5.443c3.173-1.252 5.784-2.77 7.569-5.82 1.589-2.715 2.262-6.715 1.277-9.758-.992-3.064-2.891-6.021-5.82-7.569-2.827-1.494-6.648-2.504-9.758-1.277-34.763 13.711-68.379 30.137-100.266 49.644a626 626 0 0 0-25.607 16.544c-2.662 1.812-5.154 4.4-5.9 7.672-.722 3.169-.71 7.153 1.294 9.893 9.075 12.408 18.112 24.844 27.16 37.273 5.055 6.943 9.641 14.502 16.779 19.504 7.873 5.517 17.944 4.666 26.822 2.747 22.289-4.818 40.076-20.455 56.211-35.633 8.68-8.165 17.08-16.622 26.526-23.925l-2.603 2.011c6.024-4.627 12.423-8.78 19.361-11.907l-18.654-7.589c8.054 21.549 17.642 42.551 28.878 62.629a429 429 0 0 0 17.298 28.291c3.368 5.059 6.73 10.248 10.681 14.877 4.846 5.678 12.109 9.397 19.661 9.209 7.202-.179 13.821-3.223 19.919-6.82 5.208-3.071 10.399-6.172 15.598-9.258 10.307-6.118 20.719-12.087 30.944-18.341 6.969-4.263 12.821-11.112 12.038-19.845-.41-4.581-1.792-8.409-3.865-12.518-1.21-2.399-2.532-4.749-3.843-7.094a324 324 0 0 0-17.152-27.37c-6.646-9.517-13.745-18.762-21.365-27.521-6.84-7.863-14.337-15.053-21.403-22.696a86 86 0 0 1-4.73-5.538l1.864 2.412c-2.192-2.862-4.124-5.89-5.577-9.196l1.196 2.834a31 31 0 0 1-2.048-7.001l-8.256 14.541c22.319-9.091 44.168-19.355 65.251-31.04a552 552 0 0 0 29.872-17.795c4.735-3.029 9.668-6.289 13.343-10.593 5.066-5.933 8.049-12.852 8.054-20.758.004-6.356-1.725-12.679-3.788-18.641a136 136 0 0 0-6.999-16.563c-5.085-10.105-11.733-19.496-19.357-27.843-4.365-4.78-9.448-9.941-16.024-11.335-5.125-1.087-9.837-.242-14.52 1.988-2.997 1.428-5.627 3.712-8.111 5.871-9.438 8.203-18.772 16.528-28.157 24.792l-56.028 49.335q-3.53 3.111-7.064 6.218l17.632 2.272c-12.284-23.517-25.015-46.812-37.523-70.211-3.152-5.898-6.307-11.793-9.417-17.713-2.928-5.572-5.737-11.845-10.74-15.9-3.833-3.107-7.852-5.039-12.751-5.698-4.014-.539-8.117-.137-11.994 1.075-6.594 2.062-12.375 5.754-18.211 9.33l-18.88 11.57c-6.611 4.051-13.468 7.833-19.583 12.617l2.438-1.884c-2.022 1.56-4.148 3.054-5.853 4.978-2.492 2.812-4.154 5.438-5.427 8.949-2.161 5.962-.898 12.601 2.139 18.002 2.452 4.361 6.106 8.161 9.272 12.022l9.16 11.169c11.93 14.547 24.243 28.789 36.409 43.141 6.894 8.132 13.778 16.274 20.665 24.413 1.448 1.711 4.593 2.911 6.79 2.813 2.168-.097 4.092-.728 5.818-2.062 1.587-1.226 2.983-2.977 3.441-4.988.532-2.335.563-5.404-.968-7.399ZM90.524 983.991c19.85-4.829 39.413-10.951 58.422-18.438a463 463 0 0 0 15.338-6.353c1.942-.847.561-.263.154-.086 1.171-.509 2.324-.986 3.481-1.505a430 430 0 0 0 10.324-4.824 431 431 0 0 0 27.141-14.332c18.098-10.398 35.303-22.171 51.769-34.987 14.038-10.926 27.828-22.202 40.538-34.669 13.481-13.223 26.074-27.94 35.414-44.418 8.926-15.749 16.193-34.741 14.466-53.148-1.789-19.066-10.626-38.647-28.172-48.109-20.381-10.99-46.029-5.303-65.327 5.539-8.147 4.577-15.902 10.594-21.726 17.943-7.016 8.853-11.144 18.586-12.335 29.849-2.014 19.045 9.556 38.199 23.563 50.15 7.765 6.625 16.022 11.759 25.588 15.37 8.762 3.308 18.081 5.225 27.389 6.101 17.954 1.69 36.781-1.545 53.474-8.222 17.996-7.198 34.706-17.726 48.175-31.764 14.037-14.631 25.242-31.803 33.387-50.336 8.229-18.724 14.217-38.148 18.243-58.193 4.458-22.195 6.991-44.769 9.32-67.27 1.159-11.2 2.245-22.408 3.461-33.602.608-5.593 1.248-11.182 1.947-16.765q.236-1.89.482-3.779c.094-.719.18-1.44.284-2.158-.063.435-.44 3.188-.069.544.403-2.873.813-5.745 1.252-8.613 3.153-20.604 7.419-41.161 14.281-60.876 1.478-4.247 3.102-8.432 4.783-12.602.939-2.328-1.174 2.715.094-.219.461-1.066.934-2.126 1.407-3.187.947-2.123 1.889-4.248 2.88-6.351 3.755-7.972 7.994-15.722 12.765-23.132a176 176 0 0 1 7.607-10.902c2.001-2.645-1.555 1.947.516-.65q.932-1.17 1.886-2.322a158 158 0 0 1 4.459-5.155 149 149 0 0 1 9.224-9.349 139 139 0 0 1 4.74-4.198q1.127-.952 2.276-1.88c.437-.353.882-.697 1.318-1.051 1.301-1.055-2.571 1.903-.263.211 6.819-4.999 13.624-10.359 21.376-13.873 5.544-2.513 7.312-10.978 4.161-15.867-3.691-5.725-9.937-6.849-15.867-4.161.316-.143 2.343-.987.4-.212-.734.293-1.463.616-2.189.922-1.26.532-2.519 1.064-3.765 1.625a151 151 0 0 0-6.152 2.962c-3.773 1.906-7.474 3.982-10.937 6.41-7.476 5.242-14.579 11.086-21.033 17.547-12.516 12.53-23.094 27.2-31.621 42.698-19.646 35.707-27.412 75.987-32.521 115.997-2.737 21.436-4.577 42.972-6.969 64.447a960 960 0 0 1-1.866 15.683l-.28 2.16c-.044.344-.3 2.196-.033.267.283-2.047-.043.303-.112.805l-.225 1.617a596 596 0 0 1-1.276 8.615c-1.482 9.498-3.234 18.952-5.417 28.315-2.124 9.107-4.594 18.147-7.557 27.018a236 236 0 0 1-4.894 13.333c-.245.608-1.539 3.734-.733 1.811.866-2.067-.569 1.288-.79 1.786a202 202 0 0 1-3.184 6.83c-4.047 8.27-8.559 16.356-13.736 23.975a156 156 0 0 1-3.791 5.336c-.372.501-.751.996-1.125 1.495-.889 1.19.627-.83.655-.85-.88.633-1.662 2.081-2.365 2.931-2.878 3.476-5.933 6.784-9.096 10a121 121 0 0 1-9.618 8.747c-.367.3-2.918 2.304-1.464 1.191 1.341-1.027-1.065.789-1.536 1.133a128 128 0 0 1-5.755 3.969 125 125 0 0 1-10.914 6.339 122 122 0 0 1-5.457 2.641c-.524.238-1.055.462-1.578.702-1.181.543.665-.26.716-.295-.972.657-2.542 1.025-3.631 1.436a114 114 0 0 1-11.903 3.76q-2.896.74-5.827 1.318a95 95 0 0 1-3.345.601c-.419.067-.839.126-1.258.191-1.294.198 1.853-.167-.196-.003-4.237.34-8.437.637-12.694.53a91 91 0 0 1-5.896-.34c-.98-.089-1.956-.206-2.934-.316-1.162-.131.409.046.529.067-.696-.123-1.397-.218-2.093-.339-4.217-.733-8.298-1.863-12.313-3.345a74 74 0 0 1-2.808-1.093c1.762.735-.591-.302-1.145-.568a68 68 0 0 1-5.649-3.06c-1.854-1.121-3.591-2.387-5.378-3.606-.931-.635.173.148.299.248a73 73 0 0 1-1.343-1.087c-.883-.733-1.775-1.473-2.606-2.265-1.448-1.379-2.818-2.877-4.127-4.388-.227-.261-2.065-2.491-1.359-1.602.815 1.027-.285-.394-.467-.646a58 58 0 0 1-4.228-6.771c-.255-.482-.472-1.029-.758-1.486.039.063.709 1.826.269.684a61 61 0 0 1-1.117-3.076 46 46 0 0 1-1.507-5.932c-.073-.402-.129-.807-.202-1.209-.291-1.613.178 2.313.116.69-.041-1.077-.161-2.145-.176-3.226q-.022-1.426.06-2.85c.023-.396.228-1.325.129-1.638.101.321-.619 4.187-.057 0 .708-5.272-.407 1.703.082-.393.094-.403.148-.819.233-1.224q.341-1.626.819-3.216c.29-.966.913-2.093 1.065-3.08.004-.029-1.131 2.456-.512 1.215.238-.477.448-.968.687-1.445a44 44 0 0 1 3.057-5.166c.273-.397.75-.892.931-1.313.036-.084-1.774 2.234-.884 1.09a50 50 0 0 1 1.79-2.175 54 54 0 0 1 4.574-4.626c.715-.642 1.474-1.234 2.191-1.871 1.101-.978-1.205.9-1.146.861.455-.301.886-.664 1.33-.983a68 68 0 0 1 5.237-3.41 75 75 0 0 1 5.563-2.97c.887-.427 1.796-.807 2.683-1.234 1.398-.673-1.549.627-1.442.582.647-.267 1.292-.535 1.943-.791a85.4 85.4 0 0 1 12.845-3.907c1.195-.264 2.396-.479 3.598-.706.382-.072 2.17-.285.166-.053-2.125.246.159 0 .686-.048a51 51 0 0 1 7.765-.129c.037.002 1.897.004 2.054.159.057.056-2.966-.546-1.28-.168 1.178.264 2.362.454 3.528.775.94.259 2.156.913 3.12 1.026.118.014-2.978-1.415-1.718-.729.536.292 1.112.52 1.655.803 1.486.775 2.833 1.985 4.323 2.695-.137-.065-2.806-2.36-1.176-.891.27.243.554.471.825.712a37 37 0 0 1 2.352 2.277c.583.616 1.095 1.32 1.694 1.916 1.014 1.009-1.153-1.557-1.082-1.439.245.409.598.807.869 1.193a45 45 0 0 1 2.911 4.759c.412.776.775 1.572 1.171 2.355 1.035 2.045-1.152-3.124-.101-.238.698 1.919 1.345 3.842 1.854 5.822.449 1.744.747 3.503 1.085 5.269.291 1.523-.245-2.029-.235-1.824.024.506.117 1.026.165 1.534q.144 1.535.204 3.074a56 56 0 0 1-.079 5.749c-.057.888-.144 1.769-.222 2.655-.043.487-.22 1.932.053-.345.306-2.551-.022-.097-.124.47a92 92 0 0 1-3.08 12.132 102 102 0 0 1-1.983 5.537c-.227.582-1.419 3.507-.595 1.502.761-1.852.183-.442.011-.067-.295.646-.583 1.295-.883 1.938a130 130 0 0 1-6.04 11.402 158 158 0 0 1-6.915 10.636c-1.277 1.807-2.606 3.574-3.93 5.346-.87 1.165.696-.898.698-.9-.394.424-.741.945-1.105 1.402q-1.113 1.4-2.25 2.781c-11.196 13.606-23.965 25.854-37.245 37.402-6.198 5.389-12.518 10.643-18.909 15.801-1.795 1.448-3.607 2.873-5.419 4.3-.382.301-1.8 1.381.081-.058l-1.181.904a427 427 0 0 1-15.213 11.093 430 430 0 0 1-50.494 30.228c-8.656 4.408-17.434 8.592-26.341 12.468q-1.584.689-3.173 1.366c1.639-.698-1.211.504-1.651.686a429 429 0 0 1-20.829 7.985c-9.025 3.193-18.183 5.995-27.415 8.525-4.703 1.289-8.062 6.682-6.512 11.47 1.594 4.926 6.389 7.749 11.47 6.512Z"/><path d="M554.67 400.197a546 546 0 0 1-92.985-12.2 2551 2551 0 0 1 167.36-66.468c2.407 33.25-9.217 65.733-20.664 97.043l-29.133 79.68a481.3 481.3 0 0 0-29.553-98.385"/><path d="M554.67 390.919c-1.95-.104-3.921-.149-5.861-.366l2.486.334c-4.56-.768-9.118-1.792-13.71-2.313l2.817.378q-4.669-.686-9.324-1.451c-3.978-.655-7.998-1.067-11.995-1.602l3.07.412c-19.185-2.585-38.221-6.263-57.101-10.524l3.025 23.142a2648 2648 0 0 1 19.318-8.245l-3.054 1.289c5.816-2.453 11.62-4.934 17.436-7.388l-3.058 1.29q25.75-10.863 51.728-21.162c25.978-10.299 34.866-13.599 52.408-20.109a2566 2566 0 0 1 29.584-10.772l-16.151-12.303c.662 9.359.229 18.743-1.004 28.038l.456-3.391c-2.663 19.641-8.748 38.601-15.385 57.21-6.934 19.441-13.937 38.857-20.864 58.301-3.961 11.116-7.958 22.217-11.735 33.397h22.989c-1.411-6.618-2.67-13.264-4.194-19.859a482 482 0 0 0-21.126-68.022c-1.668-4.234-3.127-8.877-5.892-12.543l1.127 2.671-.183-.435a8.4 8.4 0 0 0-2.001-3.802 8.44 8.44 0 0 0-3.137-2.879c-2.396-1.402-5.928-1.996-8.615-1.127-2.705.875-5.315 2.552-6.681 5.138-1.3 2.46-2.262 5.919-1.127 8.615.613 1.457.887 3.206 1.309 4.741.454 1.651 1.231 3.246 1.862 4.839a481 481 0 0 1 21.022 66.82c1.734 7.339 3.439 14.735 4.645 22.182l1.202 2.848a9 9 0 0 0 3.07 3.344c2.011 1.553 4.612 2.676 7.223 2.559a14.14 14.14 0 0 0 6.016-1.627c2.856-1.509 4.355-4.271 5.478-7.124 9.119-23.156 17.626-46.563 26.364-69.866 8.325-22.202 16.884-44.623 21.468-67.958 2.714-13.814 4.217-27.992 3.23-42.067-.29-4.131-1.717-7.461-5.028-10.019-3.013-2.328-7.356-3.627-11.123-2.284a2549 2549 0 0 0-131.492 51.019 1981 1981 0 0 0-38.867 16.82l-2.562 1.98-1.98 2.562c-1.441 2.462-1.878 5.281-1.503 8.073.306 2.277 1.086 4.169 2.492 5.989 1.599 2.07 3.94 3.975 6.577 4.537 12.896 2.751 25.863 4.796 38.943 6.459 12.161 1.547 24.403 2.915 36.667 3.066 3.424.042 6.821-.068 10.242-.232 1.702-.082 3.423-.262 5.126-.243 1.789.02 3.584.153 5.373.219 4.855.178 9.497-4.394 9.278-9.278-.235-5.247-4.078-9.002-9.278-9.278Zm259.226 4.722c-21.021-22.596-43.441-43.764-66.434-64.332-25.895-23.164-52.46-45.528-79.984-66.735-12.84-9.894-25.888-19.548-39.386-28.53l4.254 16.224q1.004-1.329 2.019-2.649l-1.856 2.402c.897-1.147 1.784-2.302 2.674-3.455l-1.857 2.403c14.726-18.995 31.814-35.896 50.785-50.635l-2.393 1.849c3.467-2.671 7.069-5.163 11.092-6.924l-2.808 1.185c1.962-.808 3.952-1.403 6.055-1.699l-3.116.419a19 19 0 0 1 4.352.02l-3.11-.418c1.441.232 2.785.618 4.135 1.17l-2.789-1.177c2.062.923 3.92 2.136 5.707 3.511l-2.356-1.82c5.376 4.258 10.339 9.097 15.44 13.675l16.533 14.838a33863 33863 0 0 1 32.771 29.439c6.156 5.539 12.261 11.133 18.373 16.72 2.999 2.741 6.938 3.997 10.945 2.893s6.501-4.081 7.857-7.857a2099 2099 0 0 1 31.035-81.168 2034 2034 0 0 1 9.342-22.555l-1.141 2.704c1.033-2.444 2.059-4.89 3.091-7.335l-1.139 2.7c14.535-34.42 30.121-68.359 46.886-101.751a1865 1865 0 0 1 14.416-28.115l-17.545 2.261a1670 1670 0 0 1 61.612 50.192c2.564 2.191 5.193 4.332 7.594 6.704.489.483.969.976 1.432 1.485.263.289.514.587.773.879 1.102 1.24-.771-.839-.705-.948-.065.109 2.061 3.494 2.238 3.909l-1.152-2.73c.403 1.054.688 2.104.859 3.221l-.408-3.04a15 15 0 0 1-.002 3.13l.409-3.042c-.298 2.013-.93 3.905-1.714 5.777l1.155-2.738c-4.312 9.846-9.169 19.489-13.875 29.152a4806 4806 0 0 1-14.545 29.633c-9.92 20.019-20.107 39.904-30.498 59.682-21.076 40.115-43.007 79.775-65.506 119.109-6.058 10.59-12.163 21.153-18.246 31.729a4896 4896 0 0 1-8.981 15.55c-3.065 5.285-5.843 10.747-8.945 16.006-3.06 5.187-1.35 12.846 4.127 15.74 5.533 2.923 12.473 1.411 15.74-4.127 3.607-6.115 7.533-12.046 11.142-18.167a5000 5000 0 0 0 10.981-18.712c7.449-12.758 14.726-25.619 21.987-38.485a4205 4205 0 0 0 43.578-79.155c14.232-26.534 28.134-53.248 41.569-80.194 6.477-12.991 12.825-26.038 18.958-39.194a1969 1969 0 0 0 9.084-19.764c3.84-8.479 8.351-17.031 5.707-26.611-2.177-7.89-8.111-13.623-14.143-18.744a1696 1696 0 0 0-60.348-48.896l-1.713-1.325-1.165-.9a2272 2272 0 0 0-3.462-2.671c-2.045-1.574-6.248-1.89-8.608-1.126-2.691.871-5.334 2.547-6.676 5.134-15.659 30.172-30.452 60.789-44.61 91.692a1825 1825 0 0 0-40.389 95.241c-6.976 17.833-13.563 35.811-19.893 53.884l18.803-4.964c-23.781-21.398-47.299-43.088-70.882-64.704-5.725-5.247-11.447-11.553-18.351-15.248-4.344-2.325-9.224-3.764-14.186-3.645-5.207.125-9.746 1.62-14.434 3.729-6.993 3.145-13.043 8.422-18.942 13.214a279 279 0 0 0-16.009 14.056c-12.185 11.554-23.217 24.215-33.235 37.684-1.65 2.218-2.02 6.588-1.195 9.137.98 3.027 2.77 5.33 5.45 7.087 16.125 10.57 31.632 22.077 46.886 33.858l-2.36-1.823c20.038 15.491 39.701 31.496 59.036 47.854 18.751 15.864 37.076 32.21 55.266 48.709 8.64 7.837 17.173 15.795 25.496 23.968 3.554 3.489 9.953 3.808 13.449 0 3.589-3.909 3.623-9.554 0-13.449Z"/><path d="M669.475 196.955c-.836 11.839-.653 23.775-.833 35.641-.179 11.799-.211 23.592-.216 35.392-.001 3.285.013 6.56.161 9.842.216 4.795.961 9.539 4.659 12.974 2.684 2.493 7.101 3.425 10.344 1.335 3.143-2.026 5.033-5.911 3.923-9.639-.115-.387-.203-.76-.274-1.157l.316 2.355c-.204-1.613-.551-3.157-.778-4.753l.324 2.412c-.279-2.536-.002-5.094.059-7.635.066-2.739.008-5.485.009-8.225l.007-16.699c.004-10.965-.278-21.935-.435-32.899-.091-6.325-.124-12.631-.565-18.942-.156-2.232-.826-4.285-2.446-5.904-1.448-1.448-3.824-2.539-5.904-2.446-4.788.214-8.02 3.672-8.35 8.35Zm55.959 19.624c-.246 3.654-.666 7.299-.894 10.953-.227 3.634-.154 7.312-.223 10.953-.139 7.303-.264 14.601-.273 21.906l-.056 43.812c-.005 4.149.04 8.298.073 12.447l.047 5.974c.027 3.419-.141 6.798 1.815 9.808 3.563 5.484 11.278 5.583 14.821 0 1.764-2.78 1.768-5.695 1.758-8.812l-.018-5.476c-.012-3.651-.011-7.302-.035-10.953-.047-7.302-.177-14.604-.267-21.906-.18-14.606-.292-29.211-.731-43.812l-.375-12.447c-.125-4.147-.75-8.307-1.075-12.447-.153-1.956-.709-3.726-2.133-5.15-1.263-1.263-3.336-2.214-5.15-2.133-4.165.187-7.009 3.203-7.283 7.283Zm56.614 48.172c.918 16.228 1.75 32.477 3.133 48.674 1.383 16.201 2.745 32.404 4.151 48.603.381 4.389.782 8.777 1.274 13.156.337 3 .728 5.992 1.138 8.982.153 1.119.232 2.295.49 3.395.585 2.485 1.921 4.393 3.576 6.268 2.139 2.424 5.96 3.206 8.982 2.374a9.23 9.23 0 0 0 4.074-2.374 9.23 9.23 0 0 0 2.374-4.074c1.253-3.112.594-6.287.095-9.478a251 251 0 0 1-.772-5.326l.358 2.663c-1.943-14.552-3.127-29.218-4.577-43.826a2861 2861 0 0 0-4.729-44.204c-.953-8.288-2.084-16.558-3.143-24.834-.29-2.262-.725-4.126-2.405-5.806-1.424-1.424-3.761-2.497-5.806-2.405-4.241.19-8.471 3.618-8.211 8.211Zm29.881-66.538c5.454 14.083 10.038 28.504 14.826 42.824 4.752 14.214 9.496 28.43 14.279 42.635l4.097 12.167 2.049 6.084a41 41 0 0 0 1.819 4.486c.213.449.427.856.688 1.278.998 1.616 2.311 2.521 3.777 3.633 2.044 1.551 5.188 1.348 7.39.419 2.372-1.001 4.09-2.874 4.808-5.381 1.36-4.751-.675-9.343-2.164-13.791l-3.369-10.067c-2.179-6.511-4.354-13.023-6.542-19.531-4.413-13.129-9.118-26.15-14.034-39.099-2.968-7.819-6.338-15.51-9.657-23.185l.809 1.918c-1.446-3.492-2.891-6.984-4.362-10.466-.682-1.615-3.067-3.249-4.713-3.624-1.763-.402-3.46-.309-5.135.397-3.313 1.398-5.99 5.627-4.566 9.303m37.083-69.79a657 657 0 0 1 4.328 9.977l-.808-1.916c2.455 6.078 4.716 12.238 7.118 18.338 2.353 5.978 4.519 12.022 6.806 18.024 4.639 12.178 8.862 24.514 12.864 36.914a619 619 0 0 1 4.859 15.762c.909 3.095 2.127 5.768 4.492 8.045 4.574 4.404 12.69 2.58 14.344-3.787.816-3.142.643-6.043-.242-9.139a622 622 0 0 0-4.745-15.793 475 475 0 0 0-7.072-20.741c-5.195-14.184-11.05-28.07-17.476-41.738-1.728-3.674-3.704-7.245-5.626-10.821s-3.724-7.247-5.622-10.851c-1.869-3.548-7.104-4.918-10.472-2.746-1.634 1.054-3.073 2.623-3.518 4.574-.485 2.131-.108 3.915.772 5.898Zm44.73-80.941a7093 7093 0 0 1 9.74 22.922l-.862-2.042c5.848 13.858 11.892 27.628 17.745 41.484l-.936-2.218a1086 1086 0 0 1 8.488 20.676c3.001 7.542 5.719 15.206 8.901 22.673.834 1.958 3.71 3.936 5.711 4.392 2.137.487 4.193.375 6.222-.482 4.17-1.76 7.041-6.726 5.533-11.273-2.291-6.909-5.282-13.636-8.088-20.349a1194 1194 0 0 0-9.406-21.902c-5.893-13.342-12.027-26.542-18.548-39.588A6620 6620 0 0 0 907.12 39.66c-1.829-3.626-7.233-4.95-10.599-2.779-1.654 1.066-3.11 2.654-3.56 4.63-.495 2.171-.083 3.943.781 5.969Z"/></svg>