<?xml version="1.0" encoding="UTF-8"?><svg xmlns="http://www.w3.org/2000/svg" data-name="ARTWORK" viewBox="0 0 1000 1000"><path d="M194.153 278.756c34.914-12.617 70.182-24.226 105.189-36.577l105.055-37.064c69.542-24.535 138.936-49.481 208.414-74.198 31.453-11.189 63.524-21.695 96.697-26.323-1.859.259.282-.035.552-.067 1.064-.128 2.127-.259 3.192-.378q2.866-.323 5.739-.578c4.228-.374 8.467-.634 12.709-.764 7.972-.244 15.963-.029 23.902.751q1.247.122 2.492.263c.11.012 4.184.562 1.663.196q2.476.359 4.941.794c4.114.729 8.199 1.623 12.238 2.693 3.661.969 7.285 2.081 10.858 3.338 2.004.705 3.989 1.46 5.961 2.25 2.354.944 1.079.455.569.233q1.688.734 3.352 1.519c3.433 1.618 6.791 3.401 10.018 5.402a95 95 0 0 1 4.477 2.982c1.999 1.4.747.539.319.202a59 59 0 0 1 2.728 2.302 58 58 0 0 1 4.233 4.177c.537.589 1.042 1.2 1.571 1.796 2.347 2.646-.641-1.153.476.605 2.022 3.179 4.034 6.226 5.634 9.658.262.562 1.152 2.854.28.59.268.697.538 1.391.791 2.094a77 77 0 0 1 1.55 4.814c1.048 3.648 1.84 7.365 2.439 11.112.101.629.429 3.166.118.645a136 136 0 0 1 .759 8.086c.243 3.687.357 7.381.389 11.076.283 32.867-3.119 65.613-.807 98.488 1.193 16.967 3.568 34.017 8.24 50.398 2.432 8.528 5.6 16.762 9.158 24.88.425.97.86 1.937 1.287 2.907.199.453 1.216 2.974.459 1.057.619 1.569 1.216 3.148 1.704 4.763.294.973.422 2.083.787 3.025.696 1.799.061-2.519.159.909.023.809-.036 1.691.024 2.502.204 2.771.653-1.766-.071.648-.239.797-.403 1.611-.665 2.404-.271.821-1.336 2.561-.017.167-.728 1.322-1.42 2.637-2.276 3.888-.422.616-1.927 2.238-.159.257-.461.516-.899 1.046-1.368 1.556a53 53 0 0 1-3.772 3.682c-.666.592-1.384 1.134-2.041 1.734-1.545 1.411 2.393-1.709-.392.32a129 129 0 0 1-3.976 2.799c-3.244 2.181-6.595 4.196-9.931 6.232a2640 2640 0 0 1-44.903 26.787c-60.413 35.25-122.118 68.318-184.645 99.659a3129 3129 0 0 1-143.197 67.3 3104 3104 0 0 1-35.368 15.281l-2.533 1.075c.356-.151-3.802 1.609-2.178.923s-2.536 1.068-2.18.918q-1.902.8-3.806 1.598c-7.949 3.331-15.919 6.631-24.093 9.376a158 158 0 0 1-11.714 3.459c-2.17.546-4.352 1.046-6.549 1.472-.873.169-1.749.317-2.625.474-4.208.755 2.582-.182-1.658.241-3.932.392-7.874.577-11.824.382-1.091-.054-2.183-.205-3.273-.245-2.386-.088 2.995.656-.999-.138-2.105-.418-4.197-.845-6.262-1.434-1.759-.502-3.463-1.123-5.179-1.752-.62-.227-2.156-1.134.183.078-.64-.332-1.316-.611-1.963-.932-3.27-1.622-6.259-3.603-9.297-5.608-2.907-1.918 1.29 1.128-.364-.231-.706-.58-1.42-1.149-2.116-1.742a84 84 0 0 1-3.269-2.947 94 94 0 0 1-7.552-8.105c.034.04-2.256-2.801-1.059-1.281s-1.02-1.386-.989-1.344a116 116 0 0 1-2.866-4.13 124 124 0 0 1-5.449-9.055 97 97 0 0 1-3.052-6.145c-1.19-2.602 1.133 2.921-.106-.284-.468-1.211-.946-2.418-1.4-3.635-1.737-4.659-3.228-9.42-4.545-14.214-3.123-11.37-5.109-23.12-6.889-34.764-.198-1.297-.389-2.595-.588-3.891-.49-3.196.218 1.883-.016-.142-.095-.822-.207-1.643-.308-2.465a635 635 0 0 1-1.138-9.924 726 726 0 0 1-1.762-18.859c-1.697-21.067-2.754-42.267-2.397-63.408.481-28.493-2.32-57.835-21.923-80.132-9.754-11.094-23.345-19.056-36.364-25.752-7.277-3.743-15.075-6.147-22.895-8.397s-15.311-4.403-23.432-5.454c-7.443-.963-14.755-.935-22.183.179-7.686 1.152-14.689 4.307-21.525 7.856-5.181 2.689-6.72 9.933-3.879 14.792 3.074 5.256 9.591 6.578 14.792 3.879-1.364.708.7-.348 1.059-.487a52 52 0 0 1 7.485-2.293c.635-.145 5.16-.919 2.964-.628a78 78 0 0 1 6.639-.598 72 72 0 0 1 10.119.269c.755.072 1.511.151 2.264.247-2.165-.277.308.075.837.165q3.131.535 6.22 1.276c3.415.817 6.769 1.834 10.102 2.936 3.526 1.167-1.054-.526.929.375q1.328.603 2.644 1.234 2.634 1.267 5.216 2.635c6.752 3.577 13.548 7.172 20.102 11.104a213 213 0 0 1 8.208 5.181c.615.408 1.23.817 1.837 1.237-.066-.045 3.035 2.154 1.437.989-1.562-1.138 1.309 1.07 1.286 1.051a69 69 0 0 1 2.462 2.167c2.323 2.146 4.419 4.473 6.454 6.889-2.173-2.58.987 1.435 1.487 2.192a65 65 0 0 1 2.569 4.251 72 72 0 0 1 2.242 4.384c.257.55.619 1.199.807 1.791-1.055-3.321-.11-.161.123.465a84 84 0 0 1 2.866 9.462c.709 2.934 1.245 5.898 1.725 8.877.396 2.457.029-.085-.051-.483.201.99.247 2.054.352 3.059q.265 2.575.447 5.158c.793 11.186.349 22.405.622 33.607.268 11.019.879 22.032 1.686 33.025.926 12.611 2.137 25.202 3.695 37.751a857 857 0 0 0 1.548 11.728q.303 2.212.622 4.42c-.581-4 .603 4.393.743 5.37a432 432 0 0 0 3.03 18.377c1.968 10.445 4.215 20.975 7.565 31.075 3.9 11.758 10.064 22.705 17.571 32.523 10.205 13.347 22.673 24.209 38.328 30.631 17.029 6.986 36.111 6.221 53.707 1.866 17.659-4.37 34.41-12.208 51.1-19.284a3125 3125 0 0 0 145.297-66.035c63.773-30.971 126.259-64.327 187.653-99.774a3127 3127 0 0 0 46.242-27.231c14.371-8.63 29.467-16.723 43.043-26.579 13.079-9.495 25.678-23.031 24.19-40.503-.404-4.746-1.36-9.241-3.054-13.682-.847-2.22-1.793-4.403-2.736-6.584-.506-1.17-1.026-2.333-1.541-3.498-.16-.361-1.571-3.585-.754-1.661-3.187-7.51-5.685-15.34-7.711-23.238a199 199 0 0 1-2.659-11.917 221 221 0 0 1-1.422-8.249q-.195-1.275-.377-2.552.198 1.561.022.187c-1.065-8.377-1.741-16.796-2.116-25.231-.75-16.841-.378-33.71.152-50.551.979-31.124 4.959-66.163-11.237-94.377-17.197-29.958-54.865-41.895-87.162-45.71-33.871-4.001-68.526 2.247-101.103 11.337-33.842 9.443-66.725 22.234-99.687 34.31l-106.068 38.857c-70.507 25.83-140.964 51.85-211.168 78.489-17.274 6.555-34.545 13.089-51.92 19.368-4.546 1.643-7.608 6.092-6.255 11.016 1.206 4.39 6.445 7.906 11.016 6.255Z"/><path d="M622.078 138.842c-.906-2.559-1.435-5.225-1.807-7.909l.328 2.44c-1.927-14.416.345-29.02.351-43.483.002-4.303-.374-8.473-.975-12.736l.409 3.043c-.51-3.904-.004-7.944.432-11.831l-.428 3.189c.964-6.09 1.541-12.375 1.857-18.534.28-5.477.229-11.347-1.342-16.636-2.076-6.989-7.294-13.584-14.824-14.988-4.311-.803-8.272-.495-12.514.658q-3.503.953-7.001 1.924c-11.348 3.149-22.666 6.405-33.968 9.712-13.459 3.937-26.9 7.938-40.305 12.054a3490 3490 0 0 0-41.71 13.08c-12.77 4.097-25.515 8.275-38.205 12.617-10.459 3.579-20.915 7.216-31.199 11.275-4.726 1.865-9.644 3.759-13.822 6.719-4.986 3.531-9.304 7.751-12.222 13.192-4.6 8.578-6.066 18.134-7.186 27.669-1.692 14.394-1.462 29.039-.727 43.488.808 15.89 2.442 31.769 4.965 47.48.247 1.541.459 3.102.796 4.626.315 1.425.788 2.825 1.072 4.253.6 3.018 3.304 6.143 5.885 7.653 2.745 1.606 6.791 2.287 9.868 1.291 3.099-1.003 6.088-2.923 7.653-5.885 1.676-3.171 1.993-6.339 1.291-9.868l-.055-.278.457 3.404c-.519-6.96-2.076-13.878-3.01-20.796l.467 3.477c-2.881-21.493-4.419-43.388-3.577-65.075.206-5.301.582-10.6 1.28-15.86l-.466 3.47c.756-5.593 1.755-11.258 3.935-16.493l-1.315 3.116c.944-2.193 2.1-4.259 3.557-6.153l-2.039 2.64a25.6 25.6 0 0 1 4.356-4.27l-2.639 2.039c2.832-2.132 5.992-3.71 9.246-5.088l-3.114 1.314c11.086-4.632 22.541-8.479 33.902-12.371 13.433-4.602 26.927-9.023 40.449-13.358a3563 3563 0 0 1 44.144-13.822c13.89-4.256 27.783-8.501 41.712-12.629 11.272-3.34 22.559-6.632 33.885-9.785 1.148-.32 2.288-.648 3.471-.809l-3.394.456a10.6 10.6 0 0 1 2.604-.015l-3.393-.456c.637.095 1.26.25 1.857.494l-3.043-1.284c.511.223.983.5 1.426.839l-2.572-1.987c.48.384.9.819 1.277 1.304l-1.982-2.566c.532.711.949 1.485 1.295 2.302l-1.274-3.018c.693 1.695 1.071 3.492 1.322 5.301l-.448-3.334c1.453 11.014-1.133 22.138-.042 33.171.383 3.871 1.332 7.585 1.857 11.425l-.4-2.976c.976 7.34 1.147 14.773 1.475 22.162.376 8.48.876 16.976 2.161 25.375.542 3.54 1.306 7.083 2.689 10.399.94 2.254 1.919 4.067 4.115 5.352 1.92 1.123 4.748 1.599 6.9.903 4.347-1.407 7.928-6.288 6.255-11.016Zm47.115 381.436a298 298 0 0 0 12.486 13.011c4.223 4.144 8.809 7.931 13.408 11.652 9.919 8.024 20.232 15.566 30.985 22.434 20.823 13.301 43.228 23.991 66.532 32.186a312 312 0 0 0 38.754 10.873c4.107.871 9.185.258 12.087-3.195 18.397-21.894 36.82-43.762 55.087-65.766l54.439-65.574c10.278-12.38 20.553-24.761 30.877-37.103 1.38-1.65 2.638-3.413 3.219-5.523.751-2.726.455-5.577-.631-8.149-.868-2.057-2.087-3.641-3.854-5.006-2.064-1.594-4.895-2.886-7.583-2.687-13.788 1.017-27.646.581-41.35-1.24l3.352.45a205.3 205.3 0 0 1-51.835-14.112l3.042 1.284a204 204 0 0 1-28.466-14.786c-5.695-3.547-14.353-1.403-17.521 4.594-3.319 6.282-1.484 13.736 4.594 17.521 29.917 18.632 64.611 29.246 99.719 31.519 9.48.614 18.995.541 28.465-.199l-8.85-21.365c-18.255 22.017-36.631 43.935-54.969 65.884-18.21 21.795-36.531 43.503-54.592 65.422-10.237 12.423-20.464 24.854-30.712 37.268l12.087-3.195c-20.349-4.132-40.247-10.31-59.385-18.362l2.902 1.225c-20.102-8.495-39.435-18.898-57.47-31.194a319 319 0 0 1-14.98-10.871l2.297 1.774c-4.918-3.802-9.536-8.053-14.562-11.702l2.254 1.742a333 333 0 0 1-15.522-13.114c-1.998-1.793-4.413-2.963-7.152-2.963-2.481 0-5.444 1.102-7.152 2.963-3.863 4.208-3.793 10.103 0 14.305Z"/><path d="M666.026 516.891c14.16 65.575 42.119 128.136 81.527 182.428 1.389 1.913 2.907 3.908 5.106 4.776 2.744 1.083 5.83.148 8.614-.827 74.096-25.956 135.534-78.203 195.101-129.348-22.445-7.581-42.051-23.28-54.357-43.524l-61.503 71.808c-2.374 2.772-5.022 5.71-8.602 6.422-3.017.6-6.082-.517-8.948-1.632a762.2 762.2 0 0 1-142.374-73.489"/><path d="M657.21 516.891q.603 4.73 1.271 9.452l-.337-2.508c.263 3.359.988 6.752 1.551 10.077l-.358-2.664c.257 4.367 1.731 8.825 2.811 13.057q1.32 5.17 2.752 10.311a484 484 0 0 0 6.338 20.899c4.787 14.594 10.482 28.846 16.722 42.879 11.771 26.47 25.885 51.904 42.224 75.829a480 480 0 0 0 6.116 8.745c2.865 4.001 5.706 8.426 10.241 10.727 5.718 2.9 11.833 2.544 17.744.5a297 297 0 0 0 10.348-3.812 389 389 0 0 0 40.813-18.592c25.426-13.406 49.355-29.484 72.289-46.769 23.645-17.82 46.524-36.618 69.171-55.681q4.041-3.402 8.079-6.809c3.24-2.733 4.21-7.936 3.132-11.85-1.187-4.311-4.417-7.075-8.507-8.507a109 109 0 0 1-6.338-2.442l2.922 1.233a104 104 0 0 1-22.575-13.247l2.513 1.941c-7.148-5.55-13.626-11.964-19.171-19.119l1.947 2.521a104 104 0 0 1-6.154-8.944c-2.063-3.364-5.209-5.417-9.086-5.938-3.647-.49-7.931.473-10.448 3.421l-51.606 60.441q-3.58 4.19-7.157 8.382c-2.165 2.538-4.212 5.269-6.807 7.393l2.478-1.914a13.6 13.6 0 0 1-2.674 1.637l2.92-1.232c-.738.296-1.462.497-2.244.632l3.246-.436c-.902.098-1.767.09-2.669-.004l3.242.436c-4.551-.669-8.98-2.894-13.233-4.573a591 591 0 0 1-12.876-5.25l2.881 1.216a762 762 0 0 1-122.071-65.201c-2.525-1.66-6.41-1.996-9.26-1.211-2.788.768-5.808 2.923-7.182 5.523-3.177 6.013-1.307 12.749 4.311 16.442a768 768 0 0 0 48.258 29.262 763 763 0 0 0 50.532 25.723c10.414 4.823 20.943 9.391 31.546 13.781l-2.882-1.216a682 682 0 0 0 14.271 5.901c4.709 1.891 9.383 3.868 14.596 3.645 6.469-.277 12.082-3.417 16.496-8.03 2.904-3.035 5.552-6.345 8.288-9.531l35.15-40.911 20.032-23.315-19.534-2.517c10.708 17.584 26.221 32.296 44.554 41.725a121 121 0 0 0 17.304 7.266l-5.374-20.357c-17.272 15.092-34.569 30.164-52.327 44.685a707 707 0 0 1-15.21 12.088l2.326-1.797c-26.171 20.209-53.575 39.004-83.022 54.146a370 370 0 0 1-25.297 11.838l2.712-1.144c-3.767 1.583-7.559 3.105-11.38 4.552s-7.815 3.278-11.882 3.894l3.011-.405c-.865.093-1.69.105-2.553.004l3.01.404a10 10 0 0 1-1.482-.394l2.704 1.141a9 9 0 0 1-1.88-1.105l2.291 1.77c-.921-.767-1.696-1.646-2.432-2.589l1.769 2.29c-8.896-11.741-16.907-24.262-24.496-36.877a487 487 0 0 1-21.149-39.095 493 493 0 0 1-10.257-22.681l1.114 2.639c-7.532-17.88-14.286-36.125-19.88-54.706a483 483 0 0 1-2.278-7.806c-.952-3.366-1.706-6.781-3.163-9.97l1.01 2.394a821 821 0 0 1-4.494-14.036c-1.305-4.214-5.277-6.906-9.673-6.315-1.85.249-3.762 1.008-5.062 2.425-1.465 1.596-2.87 3.977-2.582 6.234Zm-241.238-38.063c-3.618.598-7.069 1.471-10.42 2.987-3.264 1.477-6.129 3.572-8.875 5.861-5.526 4.607-9.068 10.825-11.645 17.435-1.233 3.162-1.715 6.365-2.104 9.733a30.4 30.4 0 0 0-.038 6.799c.691 6.302 2.283 12.278 5.621 17.749 3.118 5.112 7.364 9.543 12.417 12.769 5.25 3.351 11.251 4.951 17.392 5.494 6.646.587 13.034-1.193 19.044-3.85 5.628-2.488 10.989-6.047 15.092-10.667 2.512-2.828 4.826-5.951 6.545-9.332 1.687-3.318 3.317-7.012 4.025-10.705.715-3.725.957-7.641.775-11.433-.107-2.217-.415-4.447-.795-6.629-.522-2.993-1.815-5.443-3.913-7.679l1.494 1.934c-2.371-3.411-6.041-6.489-10.52-6.055-2.517.244-4.716.872-6.562 2.718-1.61 1.61-2.822 4.25-2.718 6.562.107 2.4.896 4.889 2.718 6.562 1.905 1.749 3.987 2.485 6.562 2.718l.299.027-2.474-.332.275.07-2.23-.941q.264.091.49.255l-1.9-1.468c.237.195.41.38.598.622l-1.48-1.916c.173.271.309.531.441.824l-.963-2.283.05.317-.345-2.566c.158 1.887.432 3.753.694 5.63l-.36-2.677c.303 2.375.389 4.804.128 7.188l.367-2.729c-.543 3.634-1.601 7.326-3.009 10.719l1.086-2.574a35.8 35.8 0 0 1-4.529 7.766l1.699-2.2a33.3 33.3 0 0 1-5.845 5.824l2.217-1.713c-2.3 1.735-4.815 3.157-7.444 4.33l2.638-1.113c-2.471.934-4.975 1.652-7.595 2.017l3.024-.406c-2.681.343-5.339.431-8.024.072l3.066.412a26.8 26.8 0 0 1-6.452-1.78l2.782 1.174c-2.275-.976-4.384-2.266-6.346-3.773l2.374 1.834a28.5 28.5 0 0 1-4.812-4.82l1.828 2.366a29.4 29.4 0 0 1-3.766-6.461l1.174 2.783a30 30 0 0 1-1.997-7.422l.415 3.086a31.2 31.2 0 0 1 0-7.731l-.413 3.075c.449-3.331 1.269-6.59 2.564-9.694l-1.133 2.684c1.32-3.075 3.02-6.047 5.052-8.706l-1.662 2.151a31.2 31.2 0 0 1 5.379-5.39l-2.021 1.561c1.899-1.439 3.928-2.791 6.063-3.854l-2.164.913c.961-.333 1.951-.569 2.948-.766 2.12-.418 4.319-2.325 5.38-4.137 1.129-1.929 1.607-4.773.907-6.936-.705-2.178-2.055-4.28-4.137-5.38-2.265-1.197-4.419-1.323-6.936-.907Zm328.95-153.976c-3.618.598-7.069 1.471-10.42 2.987-3.264 1.477-6.129 3.572-8.875 5.861-5.526 4.607-9.068 10.825-11.645 17.435-1.233 3.162-1.715 6.365-2.104 9.733a30.4 30.4 0 0 0-.038 6.799c.691 6.302 2.283 12.278 5.621 17.749 3.118 5.112 7.364 9.543 12.417 12.769 5.25 3.351 11.251 4.951 17.392 5.494 6.646.587 13.034-1.193 19.044-3.85 5.628-2.488 10.989-6.047 15.092-10.667 2.512-2.828 4.826-5.951 6.545-9.332 1.687-3.318 3.317-7.012 4.025-10.705.715-3.725.957-7.641.775-11.433-.107-2.217-.415-4.447-.795-6.629-.522-2.993-1.815-5.443-3.913-7.679l1.494 1.934c-2.371-3.411-6.041-6.489-10.52-6.055-2.517.244-4.716.872-6.562 2.718-1.61 1.61-2.822 4.25-2.718 6.562.107 2.4.896 4.889 2.718 6.562 1.905 1.749 3.987 2.485 6.562 2.718l.299.027-2.474-.332.275.07-2.23-.941q.264.091.49.255l-1.9-1.468c.237.195.41.38.598.622l-1.48-1.916c.173.271.309.531.441.824l-.963-2.283.05.317-.345-2.566c.158 1.887.432 3.753.694 5.63l-.36-2.677c.303 2.375.389 4.804.128 7.188l.367-2.729c-.543 3.634-1.601 7.326-3.009 10.719l1.086-2.574a35.8 35.8 0 0 1-4.529 7.766l1.699-2.2a33.3 33.3 0 0 1-5.845 5.824l2.217-1.713c-2.3 1.735-4.815 3.157-7.444 4.33l2.638-1.113c-2.471.934-4.975 1.652-7.595 2.017l3.024-.406c-2.681.343-5.339.431-8.024.072l3.066.412a26.8 26.8 0 0 1-6.452-1.78l2.782 1.174c-2.275-.976-4.384-2.266-6.346-3.773l2.374 1.834a28.5 28.5 0 0 1-4.812-4.82l1.828 2.366a29.4 29.4 0 0 1-3.766-6.461l1.174 2.783a30 30 0 0 1-1.997-7.422l.415 3.086a31.2 31.2 0 0 1 0-7.731l-.413 3.075c.449-3.331 1.269-6.59 2.564-9.694l-1.133 2.684c1.32-3.075 3.02-6.047 5.052-8.706l-1.662 2.151a31.2 31.2 0 0 1 5.379-5.39l-2.021 1.561c1.899-1.439 3.928-2.791 6.063-3.854l-2.164.913c.961-.333 1.951-.569 2.948-.766 2.12-.418 4.319-2.325 5.38-4.137 1.129-1.929 1.607-4.773.907-6.936-.705-2.178-2.055-4.28-4.137-5.38-2.265-1.197-4.419-1.323-6.936-.907Z"/><path d="M156.22 282.722c-7.432 5.331-13.494 11.425-18.776 18.896-4.985 7.052-8.704 14.843-11.865 22.856-6.346 16.085-9.063 33.294-10.942 50.401-4.635 42.217-4.087 84.893-2.56 127.274 1.544 42.858 3.99 85.716 3.64 128.618-.174 21.262-1.084 42.529-3.209 63.69a568 568 0 0 1-1.789 15.556c-.022.169-.298 2.232-.088.678.205-1.514-.056.393-.082.579l-.477 3.446c-.482 3.484-.961 6.968-1.409 10.456-1.252 9.735-2.203 19.608-1.339 29.42 1.703 19.336 9.685 36.908 24.405 49.797 13.13 11.497 28.808 18.955 44.992 25.123 17.734 6.758 36.024 12.437 54.259 17.662 20.963 6.006 42.291 10.712 64.035 12.728 20.885 1.936 41.849.5 62.342-3.954 19.695-4.281 38.609-11.453 56.936-19.747 37.202-16.836 71.947-38.98 107.073-59.663q56.725-33.404 113.456-66.799c56.731-33.395 75.642-44.525 113.463-66.787 9.278-5.461 18.515-10.948 27.625-16.685 5.931-3.735 8.825-12.121 4.811-18.347s-11.759-8.419-18.347-4.811c-18.867 10.333-37.287 21.476-55.835 32.37l-55.65 32.686q-55.65 32.686-111.304 65.364c-35.573 20.886-70.803 42.574-107.056 62.266-8.426 4.577-16.948 8.981-25.614 13.088-4.14 1.962-8.32 3.826-12.516 5.664-3.518 1.541 2.695-1.083-.859.364-1.056.43-2.108.867-3.166 1.292q-3.695 1.486-7.427 2.872c-8.841 3.283-17.849 6.132-27.007 8.39a209 209 0 0 1-13.25 2.821c-2.199.393-4.47.916-6.699 1.077 3.657-.264-.131.011-.758.085q-2.255.267-4.517.478c-10.044.938-20.141 1.04-30.207.396-4.861-.311-9.817-.629-14.627-1.42 3.353.551-.691-.106-1.144-.174q-1.823-.27-3.641-.565-4.25-.69-8.479-1.504c-20.278-3.899-40.092-9.817-59.792-15.932-8.036-2.495-16.089-4.962-24.04-7.719a255 255 0 0 1-10.513-3.886c-.869-.345-1.733-.701-2.599-1.051-3.021-1.221 2.763 1.247-.205-.095-1.977-.894-3.958-1.773-5.91-2.724-3.297-1.607-6.541-3.334-9.675-5.24a95 95 0 0 1-4.545-2.944c-.737-.508-1.455-1.044-2.189-1.555q-1.73-1.296.582.481a86 86 0 0 1-1.384-1.109c-2.715-2.228-5.282-4.641-7.632-7.252-.584-.649-1.133-1.327-1.711-1.982-2.019-2.291 1.688 2.462-.056-.051-1.171-1.687-2.33-3.364-3.357-5.146-.893-1.548-1.669-3.144-2.442-4.754-1.345-2.803.89 2.929-.207-.61-.337-1.089-.748-2.152-1.073-3.246a61 61 0 0 1-1.564-6.612c-.097-.538-.993-4.106-.179-.943-.361-1.404-.302-3.092-.385-4.535-.555-9.659.488-19.33 1.726-28.898q.226-1.733.458-3.467c-.636 4.788.822-6.122.464-3.453.32-2.387.636-4.775.932-7.166a538 538 0 0 0 1.747-16.181c.964-10.375 1.64-20.776 2.083-31.186 1.781-41.801-.244-83.597-2.42-125.341-2.178-41.781-4.596-83.643-3.498-125.496.274-10.43.672-20.861 1.365-31.273.27-4.053.585-8.103.992-12.145q.293-2.916.65-5.824c.038-.305.483-3.53.123-1.002.185-1.299.374-2.598.58-3.895 1.27-8.025 2.963-16.035 5.359-23.803a119 119 0 0 1 1.826-5.459q.486-1.344 1.008-2.676c.044-.113 1.252-2.991.448-1.138 1.629-3.751 3.488-7.405 5.609-10.903q1.454-2.402 3.074-4.694c-.002.002 1.813-2.462.773-1.105.573-.748 1.208-1.44 1.8-2.17 1.41-1.738 1.736-2.269 3.664-4.337a75 75 0 0 1 4.064-4.011c3.099-2.852 3.203-8.027.667-11.21-2.441-3.065-7.504-4.716-11.013-2.199Z"/><path d="M254.805 360.649c36.587-15.063 73.258-29.907 109.931-44.76 37.691-15.265 75.29-30.752 112.892-46.234C515.651 254 553.64 238.26 591.401 221.982c37.432-16.137 75.758-30.156 113.307-46.009 36.285-15.32 72.959-29.663 109.623-44.048q6.8-2.668 13.599-5.332c4.267-1.672 7.237-5.692 5.931-10.445-1.095-3.986-6.189-7.715-10.445-5.931-36.515 15.31-72.86 31.109-109.676 45.684-37.817 14.971-75.23 31.007-112.784 46.626-18.808 7.822-37.875 15.067-56.798 22.611s-37.847 15.236-56.728 22.967c-37.7 15.436-75.437 30.784-113.089 46.336-36.711 15.163-73.398 30.379-110.279 45.125q-6.786 2.714-13.574 5.424c-4.07 1.625-6.926 5.424-5.671 9.988 1.053 3.833 5.908 7.351 9.988 5.671m14.972 173.523c-.13 8.561.02 17.049.478 25.599s1.026 17.045 1.708 25.556c1.348 16.818 3.205 33.581 5.297 50.321 4.309 34.489 10.332 68.671 18.531 102.453 2.25 9.273 4.419 18.564 6.784 27.809s4.996 18.496 6.314 27.972l-.448-3.331c.825 6.21 1.059 12.48.267 18.706l.451-3.356a48.4 48.4 0 0 1-3.238 11.928l1.279-3.031c-1.605 3.782-3.637 7.408-6.135 10.674l1.969-2.548c-2.142 2.737-4.61 5.031-7.326 7.185l2.502-1.933c-1.677 1.293-3.459 2.475-5.404 3.325l2.866-1.209a29.5 29.5 0 0 1-5.328 1.666c-2.814.595-5.68 3.034-7.099 5.459-1.49 2.546-2.121 6.298-1.197 9.153.93 2.874 2.711 5.647 5.459 7.099 2.986 1.578 5.835 1.753 9.153 1.197 7.924-1.327 15.472-5.454 21.239-10.97 6.006-5.746 10.087-12.846 12.976-20.563 6.286-16.786 3.157-35.634-1.342-52.438-2.213-8.265-5.007-16.384-7.435-24.588-2.483-8.387-4.716-16.832-6.828-25.319a1163 1163 0 0 1-11.274-49.969c-3.859-19.053-7.236-38.204-9.825-57.472l.35 2.604a979 979 0 0 1-6.428-63.815c-.41-6.067-1.056-12.106-1.611-18.161-.207-2.259-.793-4.252-2.446-5.906-1.449-1.449-3.825-2.539-5.906-2.446-4.582.205-8.281 3.669-8.352 8.352Z"/><path d="M123.219 794.602c-32.475 19.295-66.037 39.598-87.073 70.973-6.201 9.249-11.304 19.81-11.142 30.944.33 22.772 21.753 39.28 42.479 48.717 43.837 19.959 93.624 24.612 141.447 18.869s93.954-21.474 138.078-40.788c150.202-65.748 278.294-172.214 404.124-277.335L425.967 827.754c-31.091 17.38-63.589 35.185-99.155 37.122-25.503 1.389-50.643-5.539-75.244-12.403-42.908-11.972-87.212-24.657-121.502-53.094"/><path d="M118.395 786.348c-27.929 14.68-55.691 30.832-77.494 54.057-11.341 12.08-22.527 26.766-26.547 43.138-4.196 17.089.785 33.403 11.66 46.811 9.157 11.289 22.088 19.616 35.199 25.609 15.954 7.294 32.614 12.878 49.769 16.547 33.951 7.261 68.959 7.855 103.305 3.273 69.869-9.321 136.121-37.799 198.099-70.351 59.339-31.166 115.347-68.264 169.157-108.135 54.584-40.444 106.898-83.789 159.097-127.233 6.29-5.235 12.556-10.499 18.865-15.711 4.536-3.748 4.229-11.27.926-15.545-3.629-4.697-10.05-5.931-15.273-3.049-82.494 45.521-164.651 91.653-246.915 137.587l-62.014 34.627c-18.668 10.424-37.19 21.297-56.671 30.159-8.285 3.769-18.068 7.521-28.35 10.294a144 144 0 0 1-13.685 3.006c-.031.005-4.167.633-1.775.307a98 98 0 0 1-3.813.428q-4.635.447-9.291.539c-11.508.225-20.76-.926-31.194-2.97-11.435-2.241-22.683-5.337-33.895-8.482-21.46-6.02-42.975-12.061-63.772-20.141a348 348 0 0 1-3.427-1.353c-.393-.158-4.742-1.948-2.663-1.072a248 248 0 0 1-7.824-3.467 234 234 0 0 1-14.148-7.11 199 199 0 0 1-14.565-8.785 190 190 0 0 1-6.998-4.855 139 139 0 0 1-2.932-2.189c1.736 1.339-1.91-1.56-2.235-1.827-5.09-4.189-12.933-5.355-17.848 0-4.256 4.636-5.444 13.369 0 17.848 33.03 27.18 73.463 41.027 114.096 52.509 21.959 6.205 43.949 12.599 66.657 15.382 22.643 2.776 45.299-.004 66.841-7.418 21.015-7.233 40.694-17.742 60.047-28.541 20.534-11.458 41.04-22.966 61.56-34.45l125.222-70.082c47.221-26.428 94.453-52.833 141.541-79.498L742.76 637.61c-25.04 21.153-50.311 42.042-75.757 62.704-25.045 20.337-50.187 40.268-74.906 59.026-51.678 39.214-105.188 76.201-161.642 108.242-27.985 15.883-56.686 30.523-86.116 43.546-14.748 6.527-29.638 12.582-45.816 18.334-16.115 5.73-32.492 10.748-49.122 14.759-16.342 3.941-32.331 6.802-47.595 8.29-16.235 1.583-32.598 1.951-48.88.913q-5.855-.372-11.688-.991a230 230 0 0 1-6.465-.766c.566.076 1.994.292-.571-.092-1.286-.193-2.572-.385-3.857-.592-8.12-1.309-16.179-3.006-24.129-5.116s-15.777-4.629-23.447-7.581a211 211 0 0 1-4.827-1.924c1.686.697-.838-.361-1.22-.528q-1.49-.65-2.971-1.325a123 123 0 0 1-9.062-4.593 104 104 0 0 1-8.297-5.172c-.744-.515-1.475-1.046-2.208-1.576-1.921-1.387-.437-.335-.057-.028a91 91 0 0 1-4.471-3.833 66 66 0 0 1-3.381-3.339 62 62 0 0 1-1.406-1.546c.019.022-2.188-2.57-1.01-1.142 1.162 1.408-.87-1.218-.87-1.218a48 48 0 0 1-1.126-1.698c-.903-1.428-1.649-2.926-2.456-4.406-1.508-2.765.432 1.545-.146-.279-.252-.796-.573-1.571-.819-2.37-.396-1.29-.652-2.605-.974-3.912-.758-3.077-.02 1.662-.056-.279-.016-.865-.13-1.731-.146-2.599q-.02-1.233.038-2.465c.021-.451.5-3.701.119-1.613 1.48-8.106 3.845-12.517 8.504-19.714a124 124 0 0 1 3.04-4.467c.573-.806 1.163-1.599 1.745-2.399.165-.226 1.388-1.802.271-.378a159 159 0 0 1 7.626-9.034c5.051-5.538 10.496-10.71 16.193-15.578a213 213 0 0 1 8.303-6.76c-.41.316-1.363 1.03.504-.373.638-.48 1.275-.962 1.917-1.437 2.41-1.779 3.752-2.841 5.281-3.975 6.129-4.546 12.412-8.88 18.767-13.103 6.17-4.1 12.3-8.255 18.465-12.369 10.204-6.81 1.314-22.269-9.649-16.507Zm704.241-346.616a1128 1128 0 0 1-34.243 27.562l1.807-1.396a1137 1137 0 0 1-13.805 10.497c-2.03 1.519-4.184 2.947-5.97 4.748-3.169 3.196-3.424 8.298-.704 11.819 2.748 3.557 7.655 4.532 11.612 2.318 2.402-1.343 4.541-3.27 6.707-4.976a1101 1101 0 0 0 15.224-12.207 1108 1108 0 0 0 31.249-26.489c3.309-2.911 3.196-8.943 0-11.877-1.601-1.469-3.702-2.56-5.939-2.46-2.336.105-4.148.96-5.939 2.46Zm39.139 14.816c-1.639 1.842-3.356 3.569-5.081 5.327s-3.299 3.661-4.968 5.463c-3.35 3.619-6.801 7.135-10.288 10.621-6.992 6.99-14.034 13.869-21.523 20.334-4.185 3.613-8.387 7.217-12.663 10.722-2.531 2.075-3.65 6.668-2.566 9.708.928 2.6 2.27 4.468 4.585 5.963 1.859 1.2 4.234 1.47 6.362 1.184 2.36-.317 3.847-1.28 5.729-2.744 13.946-10.847 26.933-23.233 38.32-36.75 3.633-4.312 7.128-8.732 10.569-13.198l-1.395 1.806c2.097-2.71 3.937-5.611 5.891-8.428 1.118-1.612 1.427-4.527.833-6.364-.563-1.741-1.505-3.166-2.96-4.29-3.082-2.381-8.097-2.441-10.844.646Z"/></svg>