<?xml version="1.0" encoding="UTF-8"?><svg xmlns="http://www.w3.org/2000/svg" data-name="ARTWORK" viewBox="0 0 1000 1000"><path d="M230.913 293.26c-25.265 6.223-50.049 16.158-71.97 30.25-20.845 13.4-39.288 30.274-54.589 49.752-16.362 20.829-28.998 43.553-39.111 68-9.81 23.714-16.783 48.553-21.522 73.756-5.088 27.052-7.571 54.699-7.999 82.21-.415 26.687 1.178 53.408 4.655 79.869 3.506 26.675 8.594 53.092 15.936 78.988 6.788 23.941 15.428 47.408 26.146 69.875 5.122 10.737 10.507 21.924 17.563 31.541 12.763 17.394 30.958 30.441 52.741 32.995 18.508 2.17 36.811-5.682 49.334-19.178 12.018-12.952 19.235-29.466 24.667-46.07 2.479-7.577 4.436-15.287 6.295-23.035 1.418-5.913-1.861-12.897-8.134-14.326-5.984-1.363-12.806 1.797-14.326 8.134-1.855 7.736-4.044 15.419-6.626 22.944a186 186 0 0 1-2.452 6.727c-.258.666-.203 1.882-.137.421.05-1.111.283-.648-.01.039q-.463 1.088-.943 2.167c-1.581 3.556-3.307 7.051-5.219 10.441-1.865 3.308-3.938 6.456-6.156 9.535-1.212 1.683.415-.615.584-.744-.314.239-.696.868-.924 1.144a70 70 0 0 1-1.663 1.944 63 63 0 0 1-4.031 4.148 50 50 0 0 1-1.871 1.672c-.442.374-2.615 2.124-.934.797 1.763-1.392-.58.381-1.006.672q-1.317.9-2.692 1.712a52 52 0 0 1-4.747 2.463c-.325.149-.66.288-.981.447-1.457.719 2.672-.916 1.103-.486-1.047.287-2.063.755-3.105 1.074-1.713.524-3.447.871-5.19 1.269-.872.199-2.291.058.936-.077-.42.018-.848.096-1.268.136q-1.895.178-3.799.193c-1.975.015-3.908-.265-5.871-.338 3.889.145.414.004-.647-.219a59 59 0 0 1-3.273-.8c-2.056-.557-4.028-1.285-6.029-2.005-1.356-.488 1.181.507 1.168.499-.431-.287-1.075-.485-1.558-.715a62 62 0 0 1-3.441-1.776 66 66 0 0 1-5.158-3.19c-.796-.544-1.617-1.341-2.48-1.776 2.204 1.111 1.346 1.07.57.423-.562-.468-1.127-.93-1.68-1.407a73 73 0 0 1-4.785-4.52c-1.508-1.558-2.901-4.015-4.631-5.264.015.011 1.515 2.041.684.888-.34-.472-.694-.935-1.032-1.408a67 67 0 0 1-1.716-2.515c-.94-1.451-1.814-2.945-2.686-4.438a312 312 0 0 1-7.759-14.134 351 351 0 0 1-7.278-14.971 375 375 0 0 1-3.397-7.649c-.26-.603-.514-1.208-.775-1.811-.597-1.383 1.213 2.901.636 1.508l-.328-.783a463 463 0 0 1-1.726-4.203c-4.449-11.008-8.417-22.209-11.959-33.541-7.456-23.854-13.046-48.287-16.977-72.963a550 550 0 0 1-1.461-9.728q-.155-1.103-.307-2.206c-.371-2.678.353 2.702.072.534a558 558 0 0 1-2.679-24.502 549 549 0 0 1-2.003-38.931c-.206-13.106.066-26.22.849-39.304q.583-9.766 1.554-19.501.476-4.767 1.049-9.524c.191-1.582.394-3.162.596-4.742.275-2.15-.437 3.156-.067.497q.195-1.417.398-2.834c3.593-25.004 9.082-49.777 17.244-73.701a332 332 0 0 1 6.455-17.339c.527-1.302 1.075-2.596 1.608-3.896-1.537 3.748-.387.925-.031.102q.477-1.102.961-2.202a302 302 0 0 1 3.744-8.157 296 296 0 0 1 17.433-31.47 246 246 0 0 1 11.27-16.226c.49-.647 2.303-2.88.006-.025.909-1.13 1.789-2.283 2.7-3.411a231 231 0 0 1 5.77-6.873c7.664-8.773 16.001-16.997 24.944-24.465a211 211 0 0 1 3.367-2.753q.795-.633 1.593-1.262c1.753-1.389-1.726 1.306.476-.366a207 207 0 0 1 22.363-14.813 210 210 0 0 1 20.227-10.177c.75-.328 1.503-.649 2.255-.972-1.863.8-.18.081.695-.276 2.995-1.22 6.02-2.328 9.087-3.353a234 234 0 0 1 18.142-5.232c4.527-1.115 7.676-6.467 6.222-10.959-1.52-4.696-6.108-7.417-10.959-6.222Z"/><path d="M169.945 783.694c8.845 4.04 17.789 7.86 26.795 11.526l-2.372-1.001c8.822 3.8 17.703 7.722 26.798 10.831a620 620 0 0 0 24.983 7.955c16.927 4.998 34.102 9.021 51.436 12.335 35.692 6.826 71.874 10.535 108.213 10.902 19.735.199 39.664-.215 59.289-2.416q2.808.106 5.238-1.171a10.2 10.2 0 0 0 4.375-2.811c2.358-2.358 4.134-6.227 3.982-9.613-.157-3.516-1.312-7.163-3.982-9.613-2.559-2.349-6.024-4.215-9.613-3.982-18.784 1.223-37.513 2.395-56.348 2.374a621 621 0 0 1-56.6-2.651c-10.552-.978-21.085-2.048-31.589-3.456l3.497.47c-19.66-2.653-39.065-6.429-58.435-10.671a622 622 0 0 1-28.584-6.973c-9.541-2.568-19.094-5.123-28.602-7.811-10.688-3.022-21.194-6.673-31.616-10.505-1.978-.727-5.12-.226-6.865.898-1.654 1.067-2.876 2.439-3.645 4.26-1.577 3.737-.396 9.279 3.645 11.125Z"/><path d="M457.153 786.049c.904 14.994 3.09 29.941 5.153 44.816l-.39-2.903c.805 6.845 2.226 13.652 3.481 20.427a1204 1204 0 0 0 3.371 17.468c2.211 11.023 4.338 22.158 8.045 32.797 3.919 11.25 9.472 21.726 17.656 30.469 7.426 7.933 17.379 14.361 28.112 16.594 10.601 2.205 21.698 1.228 31.712-2.92 5.093-2.11 9.91-4.515 14.353-7.804s8.606-6.785 12.199-10.971c7.713-8.984 13.09-19.444 16.805-30.655 3.549-10.709 5.257-21.954 6.414-33.144 2.411-23.317 2.195-47.01-.024-70.331q-.421-4.408-.943-8.805a8.94 8.94 0 0 0-1.023-4.576 8.9 8.9 0 0 0-2.456-3.823c-2.06-2.06-5.44-3.612-8.399-3.479-3.072.138-6.258 1.147-8.399 3.479-1.985 2.162-3.841 5.344-3.479 8.399a378.4 378.4 0 0 1 1.867 68.508c-.362 5.68-.86 11.351-1.609 16.995l.423-3.151c-1.419 10.505-3.736 20.926-7.855 30.724l1.193-2.826c-2.42 5.677-5.417 11.127-9.173 16.033l1.848-2.392a61.2 61.2 0 0 1-10.639 10.674l2.389-1.846c-3.873 2.992-8.078 5.508-12.58 7.432l2.818-1.189c-3.855 1.615-7.872 2.771-12.014 3.357l3.133-.421c-3.623.481-7.27.512-10.895.035l3.131.421a39.5 39.5 0 0 1-9.732-2.692l2.812 1.187c-3.395-1.46-6.557-3.354-9.495-5.592l2.38 1.839c-3.768-2.918-7.088-6.341-10.001-10.108l1.837 2.378c-3.885-5.09-6.87-10.708-9.377-16.586l1.181 2.798c-5.65-13.431-8.476-27.945-11.562-42.124q-2.466-11.331-4.714-22.707c-2.248-11.376-3.198-15.096-4.781-22.65-1.782-8.503-3.404-17.028-5.364-25.491-.996-4.298-5.554-6.908-9.724-6.348-4.119.554-7.951 4.286-7.684 8.704Z"/><path d="M590.819 821.685a589 589 0 0 0 13.703 1.734l-2.943-.395c6.844.925 13.876.781 20.778.775a255 255 0 0 0 18.048-.667c13.041-.936 26.037-2.464 38.962-4.43 11.921-1.813 23.751-4.183 35.473-7.008 2.948-.711 5.997-1.307 8.884-2.237 3.234-1.042 5.966-3.043 7.676-6.043 1.498-2.628 2.24-6.39 1.264-9.406-.669-2.067-1.704-3.785-3.173-5.386-3.122-3.401-8.386-4.314-12.661-3.264-5.855 1.438-11.678 2.968-17.566 4.277a484 484 0 0 1-40.315 7.191l3.276-.44a458 458 0 0 1-26.629 2.783c-8.992.672-17.966 1.487-26.977 1.898-5.078.232-10.12.861-15.186 1.297-2.535.218-5.154.918-6.955 2.881-1.492 1.625-2.41 3.452-2.705 5.648-.282 2.097-.014 4.44 1.167 6.272 1.281 1.987 3.419 4.184 5.879 4.52"/><path d="M712.647 778.439c-.27 7.491-1.217 15.032-.73 22.523.54 8.313 1.493 16.597 2.797 24.824 1.994 12.57 5.147 24.866 8.362 37.166 1.344 5.143 2.824 10.259 4.629 15.261 2.055 5.695 4.403 11.404 7.531 16.605 1.773 2.948 3.864 5.736 6.117 8.33 2.147 2.473 4.633 4.454 7.259 6.41 2.753 2.051 5.881 3.369 9.055 4.639 2.585 1.034 5.3 1.726 8.048 2.158 3.819.601 7.642 1.05 11.51.99 3.823-.059 7.644-.549 11.41-1.18 6.302-1.055 12.624-3.239 18.163-6.43 11.412-6.575 18.62-17.943 22.438-30.287 1.891-6.115 2.821-12.484 3.533-18.829.6-5.346.839-10.727.91-16.104.2-15.151-.009-30.318-.023-45.47l-.043-46.389c-.014-15.465-.364-30.927-.632-46.389-.079-4.574-.762-9.166-1.485-13.687l.365 2.714a253 253 0 0 0-.945-6.544l-.968-2.294a7.26 7.26 0 0 0-2.474-2.695c-1.62-1.252-3.716-2.156-5.82-2.062a11.4 11.4 0 0 0-4.848 1.311c-1.852.978-4.082 3.609-4.414 5.74a257 257 0 0 0-.948 6.544l.365-2.714c-.218 1.356-.384 2.722-.571 4.083-.311 2.269-.784 4.579-.871 6.861-.111 2.906-.108 5.821-.162 8.729l-.319 17.458c-.211 11.557-.246 23.109-.266 34.667l-.126 69.334c-.018 9.919.077 19.849-1.234 29.703l.432-3.211c-.847 6.209-2.221 12.369-4.635 18.169l1.215-2.879c-1.434 3.383-3.219 6.595-5.465 9.509l1.882-2.436a34.5 34.5 0 0 1-5.883 5.897l2.433-1.88c-2.391 1.832-5.001 3.298-7.767 4.484l2.868-1.21c-4.136 1.733-8.493 2.847-12.93 3.466l3.187-.428c-4.579.607-9.212.678-13.797.087l3.181.427c-3.294-.452-6.522-1.246-9.597-2.524l2.855 1.205a28 28 0 0 1-6.049-3.514l2.416 1.867c-2.169-1.7-4.069-3.686-5.768-5.851l1.865 2.414c-3.378-4.373-5.949-9.27-8.1-14.344l1.189 2.817c-3.107-7.4-5.341-15.125-7.531-22.835-2.708-9.533-5.437-19.027-7.413-28.749a293 293 0 0 1-3.223-19.119l.385 2.868a289 289 0 0 1-1.102-9.553c-.388-3.906-1.198-7.791-1.727-11.686l.347 2.585c-.471-3.519-.849-7.004-.973-10.553-.164-4.676-4.001-9.177-8.955-8.955-4.997.224-8.774 3.934-8.955 8.955ZM526.484 320.361c.049-.971.09-1.946.201-2.913l-.309 2.301c.87-6.09 2.302-12.125 3.917-18.058a141.5 141.5 0 0 1 6.053-17.608l-1.044 2.475c6.206-14.65 14.887-28.245 24.592-40.814l-1.733 2.243c7.485-9.656 15.583-19.264 25.258-26.804l-2.282 1.763c4.059-3.127 8.423-5.846 13.143-7.859l-2.712 1.145a46.2 46.2 0 0 1 11.55-3.121l-3.034.408c3.42-.431 6.86-.459 10.279-.002l-3.038-.408c2.718.395 5.359 1.092 7.9 2.138l-2.732-1.153a30 30 0 0 1 6.308 3.654l-2.316-1.79c2.166 1.677 4.078 3.615 5.769 5.769l-1.791-2.318c2.422 3.149 4.31 6.642 5.859 10.293l-1.156-2.74c2.65 6.355 4.286 13.066 5.745 19.777.962 4.421 1.769 8.902 2.961 13.267 1.224 4.483 2.472 8.927 3.933 13.339 1.642 4.96 3.059 9.975 4.789 14.906 1.472 4.197 5.177 6.959 9.724 6.348 4.027-.541 8.079-4.303 7.684-8.704-.236-2.635-.459-5.257-.849-7.876l.34 2.529c-.309-2.499-.701-4.986-1.082-7.475l.351 2.614c-.641-5.787-1.238-11.559-2.169-17.309-.812-5.014-1.817-9.95-2.898-14.912-1.628-7.472-3.271-15-6.199-22.093-1.74-4.213-3.554-8.363-6.194-12.102-1.509-2.138-3.123-4.256-4.924-6.161-1.823-1.928-3.907-3.531-6.023-5.127-3.786-2.855-8.359-4.888-12.925-6.105-4.675-1.246-9.729-1.777-14.565-1.464-9.953.644-19.489 3.88-27.865 9.293-7.801 5.042-14.633 11.436-20.799 18.345-11.829 13.254-22.574 27.77-30.52 43.698-8.15 16.338-14.149 33.973-14.324 52.385-.02 2.076-.008 4.149-.038 6.225-.067 4.492 3.996 8.789 8.584 8.584 4.844-.217 8.342-3.772 8.584-8.584Zm191.401-38.714a9 9 0 0 1-.01-1.716l-.331 2.463c.143-1.02.43-1.96.817-2.913l-.948 2.246c1.481-3.38 3.561-6.554 5.408-9.744 1.911-3.3 3.802-6.613 5.747-9.892 3.854-6.498 8.022-12.766 12.629-18.755l-1.7 2.201c5.37-6.927 11.497-13.239 18.428-18.617l-2.289 1.768c7.76-5.974 16.257-11.014 25.276-14.835l-2.784 1.175a110.6 110.6 0 0 1 27.892-7.597l-3.132.421c6.05-.795 12.299-1.276 18.375-.512l-3.129-.42c2.493.343 4.92.93 7.245 1.902l-2.811-1.186a22 22 0 0 1 4.334 2.522l-2.381-1.84a21.7 21.7 0 0 1 3.72 3.695l-1.839-2.38c1.337 1.744 2.402 3.647 3.258 5.669l-1.185-2.809c1.262 3.079 2.015 6.315 2.463 9.606l-.42-3.125c1.379 10.69-.223 21.666-1.632 32.268l.418-3.111c-.843 6.253-1.901 12.475-3.192 18.652s-2.501 12.36-4.12 18.47c-.726 2.739-.342 5.911 1.095 8.366 1.318 2.252 3.9 4.4 6.489 4.99 5.979 1.362 11.447-1.805 13.356-7.583 1.55-4.694 3.04-9.424 4.384-14.181s2.27-9.642 3.18-14.481c1.921-10.215 3.394-20.622 3.914-31.011.183-3.657.161-7.333-.22-10.977-.465-4.456-1.082-8.987-2.67-13.203-1.877-4.982-4.239-9.365-7.914-13.279-3.898-4.151-9.087-7.053-14.506-8.683-5.001-1.504-10.456-1.884-15.662-1.757-5.052.123-10.062.721-15.058 1.451-8.137 1.189-16.083 3.393-23.701 6.485-8.406 3.411-16.657 7.401-24.031 12.735-7.331 5.303-14.236 11.213-20.196 18.038-6.538 7.485-12.066 15.731-16.889 24.404-2.253 4.052-4.435 8.165-6.414 12.358-2.258 4.784-4.647 9.579-6.549 14.517-1.327 3.446-1.45 7.048-.761 10.647.396 2.068 2.386 4.521 4.222 5.49 1.856.98 3.769 1.371 5.858 1.09 4.141-.556 8.421-4.468 7.966-9.023Z"/><path d="M772.916 294.902c6.6.434 13.188.931 19.755 1.727.824.1 1.651.193 2.472.312-2.517-.364.218.041.612.099 1.618.239 3.232.504 4.844.782 3.218.554 6.435 1.098 9.625 1.808 3.162.704 6.316 1.51 9.397 2.514 1.279.417 2.558.842 3.827 1.292a83 83 0 0 1 3.768 1.438q-2.127-.91-.437-.176c2.687 1.249 5.333 2.543 7.884 4.055a71 71 0 0 1 6.852 4.618q-2.089-1.623-.661-.488c4.306 3.651 8.356 7.5 11.935 11.881.468.572 1.893 2.606-.09-.165.272.381.567.749.845 1.126a92 92 0 0 1 2.436 3.463 102 102 0 0 1 4.78 7.908 118 118 0 0 1 3.545 7.065q.454.985.892 1.978c.374.849.788 2.946-.057-.172.371 1.371 1.102 2.718 1.609 4.053 2.079 5.475 3.829 11.073 5.331 16.732s2.748 11.352 3.811 17.094a275 275 0 0 1 1.706 10.318c.091.624.177 1.249.267 1.873.464 3.203-.322-2.699.065.51.264 2.188.536 4.375.774 6.566 1.637 15.042 2.423 30.164 3.407 45.259.492 7.544.46 15.656 2.786 22.9 2.369 7.378 6.7 13.178 12.908 17.719 9.068 6.633 21.136 7.279 31.918 8.055 2.344.169 4.69.338 7.026.605.376.043.751.097 1.128.137-4.315-.451-2.117-.289-1.133-.124 1.228.206 2.45.455 3.653.777 1.226.328 2.433.728 3.622 1.172 1.133.423 2.33 1.543-.489-.239.353.223.845.387 1.211.565a40.5 40.5 0 0 1 5.081 2.938c.976.664 2.703 2.636.012-.071 1.631 1.641 3.435 3.027 4.966 4.788.408.47.778.982 1.195 1.442-2.535-2.79-1.062-1.376-.487-.546a40 40 0 0 1 2.286 3.74c.501.929.945 1.88 1.398 2.832 1.058 2.22-1.125-3.007-.301-.684.214.604.447 1.2.653 1.807.913 2.699 1.516 5.45 2.024 8.248.167.921.032 2.229-.178-1.425.038.669.152 1.341.21 2.01.118 1.362.179 2.726.209 4.092.057 2.618.08 5.237.103 7.856.048 5.442.037 10.885-.089 16.325-.13 5.607-.38 11.212-.814 16.804q-.329 4.232-.769 8.454a208 208 0 0 1-.395 3.516c-.085.702-.185 1.403-.266 2.105.536-4.641.137-1.073-.017-.055-.84 5.557-1.936 11.079-3.371 16.514a127 127 0 0 1-2.171 7.339 116 116 0 0 1-2.107 5.859c-.373.954-1.875 4.023.041-.007-2.323 4.887-4.613 9.69-7.582 14.236a84 84 0 0 1-2.142 3.127c-.402.559-.849 1.097-1.231 1.669 2.253-3.366 1.005-1.296.381-.527a80 80 0 0 1-5.639 6.24c-2.154 2.143-4.443 4.115-6.784 6.048-2.154 1.779 2.578-1.874.318-.249-.61.439-1.21.889-1.824 1.322a91 91 0 0 1-3.722 2.49 99 99 0 0 1-7.714 4.414 113 113 0 0 1-5.321 2.567c-.901.407-4.275 1.607-.188.117-5.599 2.042-11.094 4.176-16.823 5.858-5.758 1.691-11.584 3.137-17.425 4.51-11.538 2.711-23.161 5.101-34.56 8.369-11.033 3.163-22.033 6.424-33.115 9.416-22.819 6.162-45.873 11.557-69.188 15.481a526 526 0 0 1-16.81 2.552l3.656-.491c-30.663 4.105-61.905 5.377-92.642 1.309l3.681.495c-11.898-1.608-23.686-4.006-35.217-7.363a216 216 0 0 1-17.289-5.828 207 207 0 0 1-4.012-1.593c-.333-.136-.665-.277-.999-.412-1.317-.533 1.793.674 1.637.694-.538.071-1.81-.78-2.321-1.004a204 204 0 0 1-8.549-3.996 206 206 0 0 1-32.03-19.729c-.61-.457-1.266-.891-1.838-1.394-.122-.107 2.431 1.903 1.264.974-.303-.241-.609-.477-.913-.717a211 211 0 0 1-3.933-3.185c-2.605-2.16-5.194-4.359-7.659-6.68a73 73 0 0 1-6.264-6.685c-.228-.277-.447-.563-.679-.837-.891-1.054 1.185 1.395 1.053 1.378-.303-.04-1.072-1.445-1.266-1.716a74 74 0 0 1-2.547-3.808 78 78 0 0 1-4.778-8.897c-.253-.553-1.397-3.212-.416-.901s-.121-.364-.337-.934a92 92 0 0 1-1.607-4.589c-2.077-6.466-3.442-13.13-4.369-19.852l.491 3.653c-2.076-15.631-2.493-31.932-1.835-47.682.283-6.774-6.157-13.249-12.945-12.945-7.256.325-12.642 5.688-12.945 12.945-.357 8.542-1.104 17.033-1.153 25.595-.055 9.576.823 19.083 2.289 28.544 2.853 18.413 10.003 35.757 22.03 50.075 6.479 7.713 14.647 13.973 22.603 20.072 7.181 5.504 14.698 10.559 22.532 15.088 15.704 9.08 32.697 16.202 50.119 21.235 33.893 9.79 69.866 11.851 104.908 9.063 36.088-2.872 71.669-10.205 106.623-19.432 16.802-4.435 33.355-9.815 50.181-14.132 17.409-4.467 35.199-7.602 52.216-13.499 18.243-6.322 35.78-15.739 48.735-30.36 12.309-13.89 20.264-30.923 24.608-48.887 4.141-17.127 5.424-34.854 5.446-52.429.022-17.606.593-36.043-7.856-52.039-4.332-8.202-10.965-15.198-18.807-20.121s-16.458-7.045-25.555-7.956c-3.453-.346-6.92-.514-10.38-.779-1.587-.122-3.923.073-5.396-.522-.028-.011 3.504.53 1.552.205-.389-.065-.78-.12-1.169-.187a49 49 0 0 1-2.868-.572c-.776-.181-4.544-.751-4.894-1.502-.05-.108 3.141 1.482 1.446.593-.327-.171-.665-.322-.992-.495-.817-.432-1.575-.943-2.356-1.436-1.603-1.01 1.327.914 1.202.941-.168.036-.892-.789-1.042-.933-.472-.453-1.521-1.282-1.736-1.898-.017-.05 1.863 2.794.901 1.084-.199-.353-.442-.687-.646-1.038-.241-.416-.449-.844-.68-1.264-1.283-2.339.747 2.55.049-.018-.283-1.043-.597-2.066-.817-3.127-.138-.665-.235-1.335-.357-2.003-.306-1.674.263 2.571.127.871-.22-2.751-.472-5.498-.67-8.252-.408-5.665-.778-11.332-1.168-16.998-.768-11.169-1.645-22.333-3.019-33.446-2.406-19.465-5.91-38.972-13.005-57.336-3.393-8.782-7.343-17.392-12.503-25.287-5.105-7.811-11.232-15.541-18.66-21.279-3.801-2.937 1.759 1.36-.492-.399a224 224 0 0 0-2.903-2.24 71 71 0 0 0-8.24-5.405c-4.82-2.701-9.976-4.902-15.193-6.706-9.647-3.336-20.105-5.03-30.272-5.632-9.585-.568-19.204-.362-28.796-.149-4.607.102-9.032 3.982-8.816 8.816.226 5.036 3.876 8.491 8.816 8.816Zm-198.005 34.83a632 632 0 0 1 44.963-12.411c7.657-1.816 15.358-3.458 23.042-5.151a537 537 0 0 1 22.691-4.49 673 673 0 0 1 26.119-4.054l-3.269.439a543 543 0 0 1 18.508-2.167 541 541 0 0 1 9.162-.831c4.057-.333 8.16-.454 12.147-1.32 2.742-.596 5.904-3.073 7.21-5.544 1.287-2.437 1.8-4.949 1.432-7.692-.34-2.531-1.38-5.148-3.318-6.927-2.467-2.265-5.187-3.256-8.53-3.533-2.43-.202-4.867.101-7.294.293a536 536 0 0 0-21.36 2.118c-10.457 1.25-20.897 2.706-31.256 4.605a535 535 0 0 0-27.907 5.89c-9.341 2.233-18.516 5.003-27.642 7.991-10.925 3.577-21.699 7.514-32.286 11.996l2.32-.979a694 694 0 0 0-11.811 4.976c-1.884.814-3.781 3.556-4.222 5.49-.468 2.054-.36 4.031.463 5.982 1.709 4.049 6.444 6.711 10.838 5.319"/><path d="M836.426 545.453c-2.493 4.006-4.451 8.302-6.127 12.708-1.352 3.555-2.424 7.269-3.018 11.029-.729 4.608-1.141 9.261-.95 13.927.115 2.818.385 5.671.97 8.428.554 2.612 1.858 5.214 2.917 7.624l1.596 2.066a7.66 7.66 0 0 0 3.285 2.111c2.028.856 4.492 1.212 6.646.515a12.1 12.1 0 0 0 4.504-2.625c1.765-1.621 3.142-4.812 2.99-7.218a68 68 0 0 1-.124-3.737c-.016-2.115-.359-4.228-.641-6.317l.398 2.959c-.75-5.935-.519-11.839.271-17.756l-.387 2.882a61 61 0 0 1 4.122-15.094l-1.024 2.427a64 64 0 0 1 1.801-3.858c1.216-2.393 1.735-5.04 1.006-7.687-.637-2.314-2.426-4.822-4.584-5.962-4.892-2.585-10.702-1.157-13.649 3.579Zm57.687-8.81c-2.493 4.006-4.451 8.302-6.127 12.708-1.352 3.555-2.424 7.269-3.018 11.029-.729 4.608-1.141 9.261-.95 13.927.115 2.818.385 5.671.97 8.428.554 2.612 1.858 5.214 2.917 7.624l1.596 2.066a7.66 7.66 0 0 0 3.285 2.111c2.028.856 4.492 1.212 6.646.515a12.1 12.1 0 0 0 4.504-2.625c1.765-1.621 3.142-4.812 2.99-7.218a68 68 0 0 1-.124-3.737c-.016-2.115-.359-4.228-.641-6.317l.398 2.959c-.75-5.935-.519-11.839.271-17.756l-.387 2.882a61 61 0 0 1 4.122-15.094l-1.024 2.427a64 64 0 0 1 1.801-3.858c1.216-2.393 1.735-5.04 1.006-7.687-.637-2.314-2.426-4.822-4.584-5.962-4.892-2.585-10.702-1.157-13.649 3.579ZM242.306 342.887c14.8 1.59 29.622 3.052 44.456 4.291 14.823 1.237 29.673 2.031 44.536 2.595 14.693.557 29.366.657 44.068.453 14.844-.207 29.72-.52 44.537-1.469a1292 1292 0 0 0 37.056-2.912c5.192-.484 10.485-.859 15.492-2.382 5.685-1.729 9.301-7.133 8.508-13.033-.335-2.492-1.359-5.068-3.267-6.82l-2.404-1.857a11.83 11.83 0 0 0-5.995-1.622c-3.794-.436-7.549-.181-11.347.08q-5.43.372-10.862.698-11.114.667-22.237 1.141c-14.676.626-29.35 1.299-44.036 1.648-29.53.702-59.078.621-88.61.128-16.651-.278-33.278-.899-49.896-2.003-2.586-.172-5.66 1.297-7.448 3.085-1.827 1.827-3.202 4.824-3.085 7.448.122 2.724 1.017 5.549 3.085 7.448l2.132 1.647a10.5 10.5 0 0 0 5.316 1.438Z"/><path d="M272.86 330.957q-.076-.54-.148-1.081l.343 2.556c-1.277-9.64-1.767-19.369-1.642-29.09.126-9.753.671-19.554 1.96-29.225l-.415 3.089c2.352-17.274 7.083-34.125 13.838-50.187l-1.194 2.829c5.197-12.296 11.214-24.38 14.78-37.29 2.936-10.629 4.345-21.85 4.239-32.873-.212-22.043-6.28-44.147-17.385-63.192-6.211-10.652-14.22-20.056-22.889-28.772l-5.406 20.476 1.163-.217-3.275.44c7.007-.901 13.899-2.949 20.771-4.587a4014 4014 0 0 1 18.072-4.263c12.054-2.814 24.124-5.562 36.194-8.309a4000 4000 0 0 1 92.768-19.957c6.739-1.367 13.562-3.044 20.403-3.976l-3.39.456c1.764-.212 3.508-.287 5.277-.085l-3.391-.456c1.038.157 2.023.403 3.007.771l-3.048-1.286c1.2.512 2.286 1.165 3.333 1.942l-2.586-1.998c4.189 3.284 7.574 7.803 10.821 11.985l-2.011-2.603c8.346 10.814 15.088 22.726 20.4 35.3l-1.313-3.112c5.629 13.43 9.432 27.571 11.371 42.001l-.462-3.44c1.936 14.701 1.982 29.683.021 44.384l.454-3.377c-1.741 12.776-4.969 25.361-9.971 37.257l1.255-2.974c-6.512 15.352-16.101 29.137-22.821 44.384-3.765 8.542-6.822 17.228-8.413 26.446-1.582 9.166-2.307 18.449-1.62 27.736.763 10.318 2.698 20.586 6.285 30.304 1.165 3.156 2.834 5.822 5.821 7.57 2.715 1.589 6.717 2.262 9.761 1.277 3.065-.992 6.022-2.891 7.57-5.821 1.515-2.868 2.445-6.595 1.277-9.761a100.5 100.5 0 0 1-5.273-21.112l.452 3.362a103 103 0 0 1 .019-27.049l-.451 3.354c1.196-8.662 3.519-17.073 6.886-25.14l-1.266 3c5.953-14.079 14.496-26.843 20.936-40.682 5.675-12.194 10.14-24.982 12.781-38.181 5.346-26.718 4.43-54.38-2.724-80.688-3.514-12.922-8.568-25.559-15.026-37.291a151 151 0 0 0-10.109-15.941c-4.272-5.883-8.806-11.879-13.997-17.004-3.695-3.649-8.372-6.949-13.543-8.041-5.716-1.208-11.113-.563-16.79.551-8.174 1.604-16.333 3.288-24.49 4.97a3980 3980 0 0 0-48.709 10.363 3469 3469 0 0 0-96.961 22.736c-4 .998-8.035 1.912-11.969 3.138-4.119 1.284-7.393 4.331-8.556 8.556-1.057 3.838-.162 9.293 3.151 11.919 5.122 4.061 9.477 8.827 13.484 13.981l-1.863-2.412c5.948 7.716 10.847 16.179 14.654 25.145l-1.2-2.843a118.7 118.7 0 0 1 8.16 29.817l-.425-3.16c1.327 9.947 1.382 20.025.064 29.975l.424-3.156c-1.544 11.307-5.108 21.977-9.521 32.466l1.195-2.832c-5.84 13.814-12.135 27.367-16.18 41.854-3.96 14.181-6.109 29.043-6.798 43.737a136.6 136.6 0 0 0 1.292 26.169l-.385-2.863c1.046 8.46 2.448 16.837 4.503 25.113 1.206 4.854 6.932 8.238 11.758 6.676 2.313-.748 4.544-2.182 5.712-4.393l.964-2.283a9.63 9.63 0 0 0 0-5.082Z"/><path d="M312.426 327.706c-13.469-19.205-15.355-46.184-3.809-66.603 11.546-20.42 36.317-32.788 59.431-28.789s42.562 24.662 44.219 48.061c.999 14.117-3.864 27.915-8.656 41.231l48.887 1.236c-7.222-21.352-14.258-45.66-3.625-65.534 4.139-7.737 10.664-14.027 14.567-21.886 2.878-5.796 4.216-12.218 5.411-18.578 10.204-54.307 10.465-115.242-23.014-159.204-1.562-2.051-3.252-4.106-5.524-5.324-4.901-2.63-10.894-.701-16.119 1.206a732.4 732.4 0 0 1-141.412 36.104c19.652 35.566 32.998 79.48 15.708 116.253-4.824 10.261-11.808 19.379-16.788 29.565-8.644 17.682-10.872 37.709-12.972 57.279-.905 8.429-1.696 17.471 2.381 24.903 4.077 7.433 15.1 11.561 21.263 5.74"/><path d="M319.918 323.327a64 64 0 0 1-4.527-8.694l.924 2.19c-2.462-5.866-4.116-12.146-4.981-18.446l.353 2.627a66.8 66.8 0 0 1-.002-17.404l-.366 2.726c.777-5.606 2.153-11.119 4.317-16.354l-1.045 2.477a57 57 0 0 1 7.213-12.455l-1.626 2.104a60 60 0 0 1 10.469-10.482l-2.11 1.63a64.7 64.7 0 0 1 14.176-8.294l-2.481 1.047c4.812-2.01 9.842-3.406 15.011-4.108l-2.73.367c4.637-.596 9.31-.622 13.948-.024l-2.703-.363c4.393.602 8.713 1.751 12.8 3.476l-2.405-1.015c1.513.652 3.04 1.255 4.56 1.886l-2.382-1.005c3.629 1.538 7.018 3.385 10.146 5.786l-1.934-1.494a58.3 58.3 0 0 1 10.19 10.182l-1.492-1.931a55.5 55.5 0 0 1 7.064 12.031l-.961-2.276c1.7 4.066 2.881 8.31 3.473 12.679l-.34-2.53c.573 4.509.429 8.997-.167 13.497l.345-2.571c-1.472 10.487-5.229 20.44-8.997 30.278-1.148 2.997-.001 6.605 1.847 8.998 2.071 2.681 4.763 3.828 8.105 4.068 16.256 1.164 32.597 1.318 48.887 1.804 6.813.203 12.705-7.16 10.5-13.784-3.497-10.51-6.778-21.179-8.257-32.188l.393 2.924c-.766-5.932-.962-11.924-.179-17.866l-.393 2.925c.568-4.043 1.589-7.981 3.142-11.759l-1.109 2.629c3.211-7.582 8.762-13.595 13.271-20.377 5.172-7.779 7.739-16.647 9.466-25.73 3.014-15.854 5.204-31.928 6.129-48.044.929-16.172.337-32.275-1.851-48.324a171.7 171.7 0 0 0-12.567-45.142c-2.952-6.83-6.46-13.421-10.532-19.65a148 148 0 0 0-7.945-11.002c-1.728-2.178-3.832-4.016-6.185-5.509-3.198-2.028-6.682-2.778-10.364-3.197-2.881-.328-5.76.157-8.603.616l3.116-.419c-5.64.505-10.869 2.79-16.178 4.617a733 733 0 0 1-101.568 26.968c-11.109 2.111-22.224 4.15-33.402 5.867-3.802.584-6.894 4.096-8.291 7.408-1.6 3.792-1.363 7.763.645 11.387 4.026 7.267 7.709 14.72 10.956 22.368l-1.285-3.045c5.598 13.269 9.888 27.136 11.824 41.434l-.453-3.372c1.227 9.324 1.418 18.765.176 28.099l.452-3.363c-1.014 7.345-2.915 14.522-5.772 21.367l1.273-3.016c-4.214 9.937-10.574 18.686-15.758 28.103-5.625 10.218-9.515 21.316-11.94 32.707-2.444 11.482-3.701 23.202-4.94 34.864-.534 5.026-1.063 10.109-.584 15.161.318 3.352.729 6.798 1.826 10.003 1.02 2.979 2.262 6.043 4.178 8.575 2.535 3.351 5.07 5.968 8.718 8.202 2.56 1.568 5.517 2.835 8.467 3.417 4.076.803 7.859.95 11.926-.076 3.872-.977 7.068-3.091 9.976-5.745 4.602-4.2 4.58-12.594 0-16.798-4.92-4.516-11.889-4.48-16.798 0q-.251.237-.517.456l2.404-1.857c-.667.418-1.299.831-2.017 1.16l2.864-1.209c-.911.382-1.841.633-2.818.776l3.216-.432c-1.107.129-2.197.11-3.302-.03l3.248.436a17.6 17.6 0 0 1-3.967-1.084l2.944 1.242a19 19 0 0 1-3.971-2.303l2.515 1.943a20 20 0 0 1-3.279-3.227l1.952 2.527c-.972-1.268-1.714-2.643-2.344-4.109l1.259 2.983c-.862-2.122-1.412-4.312-1.743-6.577l.446 3.322c-.684-5.18-.244-10.402.308-15.572.589-5.514 1.2-11.027 1.937-16.523l-.448 3.332c1.709-12.595 4.185-25.162 9.123-36.93l-1.268 3.004c4.426-10.391 11.129-19.486 16.494-29.372 5.407-9.962 9.213-20.762 10.792-31.995.831-5.916 1.401-11.803 1.333-17.782-.07-6.186-.764-12.303-1.634-18.422-1.474-10.365-4.21-20.53-7.738-30.378-4.342-12.121-9.74-23.895-15.933-35.18l-7.647 18.795a650 650 0 0 0 59.806-11.835 733 733 0 0 0 74.932-22.827c5.033-1.833 10.13-4.191 15.451-5.027l-3.078.414c1.356-.178 2.691-.218 4.049-.048l-3.024-.406a11.4 11.4 0 0 1 2.169.557l-2.693-1.137c.992.449 1.865.937 2.731 1.6l-2.266-1.751c1.755 1.442 3.165 3.209 4.556 4.992l-1.727-2.235c6.166 8.309 11.264 17.341 15.312 26.86l-1.113-2.637c5.646 13.392 9.173 27.564 11.108 41.95l-.394-2.932c2.378 17.99 2.326 36.233.737 54.288a340 340 0 0 1-1.732 15.469l.394-2.929a389 389 0 0 1-2.733 17.217c-1.15 6.333-2.335 12.716-4.812 18.689l1.11-2.63c-2.571 6.003-6.646 11.05-10.478 16.273-4.244 5.785-7.651 12.033-9.663 18.961-3.955 13.614-2.496 28.366.816 41.945 1.731 7.096 3.987 14.046 6.356 20.951l10.5-13.784c-16.285-.337-32.602-1.011-48.887-.668l9.953 13.065c4.77-14.165 9.289-28.835 8.218-43.975-.427-6.03-1.628-11.971-3.911-17.574-2.583-6.338-5.872-11.863-10.124-17.224-4.228-5.33-9.458-9.825-15.116-13.581l1.934 1.495c-3.731-3.389-8.416-5.774-13.013-7.714l2.405 1.015c-7.605-3.344-15.536-5.244-23.877-5.436-7.509-.173-15.263 1.047-22.367 3.492-15.097 5.195-28.196 15.209-36.725 28.771-2.522 4.011-4.481 8.379-6.127 12.814-1.691 4.556-2.89 9.379-3.343 14.222l.369-2.743c-.824 6.021-1.261 11.944-.664 18.011.644 6.537 1.681 13.486 4.481 19.491l-.972-2.303c1.398 3.749 2.992 7.456 4.926 10.963 1.916 3.473 4.21 6.633 6.631 9.767 1.207 1.563 4.241 2.626 6.135 2.541 1.959-.088 3.698-.658 5.257-1.863 3.31-2.557 4.541-7.497 2.235-11.193Zm410.94 163.727.093-.855a8.94 8.94 0 0 0-1.023-4.576 8.9 8.9 0 0 0-2.456-3.823 8.9 8.9 0 0 0-3.823-2.456 8.94 8.94 0 0 0-4.576-1.023l-3.158.424a11.87 11.87 0 0 0-5.241 3.055l-1.857 2.404a11.83 11.83 0 0 0-1.622 5.995l.093.855a8.9 8.9 0 0 0 1.015 4.541 8.84 8.84 0 0 0 2.437 3.793 8.83 8.83 0 0 0 3.793 2.437q2.106 1.107 4.541 1.015l3.133-.421a11.77 11.77 0 0 0 5.2-3.031l1.843-2.385a11.74 11.74 0 0 0 1.609-5.948Zm102.583-19.656.093-.855a8.94 8.94 0 0 0-1.023-4.576 8.9 8.9 0 0 0-2.456-3.823 8.9 8.9 0 0 0-3.823-2.456 8.94 8.94 0 0 0-4.576-1.023l-3.158.424a11.87 11.87 0 0 0-5.241 3.055l-1.857 2.404a11.83 11.83 0 0 0-1.622 5.995l.093.855a8.9 8.9 0 0 0 1.015 4.541 8.84 8.84 0 0 0 2.437 3.793 8.83 8.83 0 0 0 3.793 2.437q2.106 1.107 4.541 1.015l3.133-.421a11.77 11.77 0 0 0 5.2-3.031l1.843-2.385a11.74 11.74 0 0 0 1.609-5.948ZM84.518 815.596c-16.21-.33-33.223 3.241-45.484 13.849s-18.228 29.412-10.724 43.784c6.585 12.612 20.991 18.72 34.436 23.374 76.39 26.438 157.256 36.817 237.498 46.6 165.83 20.217 336.181 38.297 498.178-2.513 38.667-9.741 80.152-25.77 98.491-61.178 3.736-7.214 6.364-15.118 6.669-23.236.652-17.371-9.625-33.866-23.584-44.225s-31.177-15.373-48.307-18.325c5.38 28.877 10.667 59.292 1.162 87.086s-39.385 50.955-67.448 42.276c-14.165-4.38-25.024-15.697-34.178-27.361-16.5-21.027-13.417-58.29-22.633-83.378-1.197-3.258-25.266 5.961-21.888 5.164 21.888-5.164-5.012-1.084-7.591-.917l-54.735 3.553c-3.015.196-6.192.445-8.685 2.151-4.362 2.984-4.962 9.058-5.28 14.333-1.461 24.226-6.049 48.982-19.137 69.42s-36.078 35.812-60.309 34.434c-23.196-1.319-43.515-17.596-55.461-37.523s-16.843-43.201-20.751-66.104a662.3 662.3 0 0 1-187.391-22.069c-10.024-2.671-21.685-5.301-29.986.921-6.555 4.914-8.575 13.642-11.482 21.301-10.905 28.726-41.451 48.73-72.141 47.245s-59.161-24.344-67.243-53.988"/><path d="M84.518 806.642c-9.116-1.012-18.981-1.298-27.873 1.151-9.059 2.495-17.409 6.702-24.713 12.596-14.223 11.479-21.448 30.637-18.025 48.581 3.624 18.999 20.983 29.974 37.526 36.735 18.416 7.526 37.873 13.128 57.097 18.168 79.912 20.949 162.869 29.444 244.742 38.983 82.376 9.598 165.214 17.08 248.233 15.631 41.519-.725 82.944-3.841 124.045-9.804 20.225-2.934 40.343-6.627 60.271-11.162 16.757-3.814 33.48-8.05 49.572-14.144 31.935-12.094 62.682-31.522 76.355-64.228 7.841-18.757 6.548-39.337-4.217-56.714-10.644-17.183-27.51-28.274-46.204-35.101-8.437-3.081-17.204-5.101-26.037-6.663-10.581-1.871-18.625 6.004-16.655 16.655 4.766 25.769 9.711 52.542 1.894 77.604a82 82 0 0 1-1.606 4.651c-.881 2.326.475-.81-.649 1.421-1.251 2.481-2.546 4.916-4.038 7.262a72 72 0 0 1-2.155 3.195c-.373.523-.747 1.048-1.14 1.556 1.326-1.715-.045-.002-.289.272-1.853 2.08-3.698 4.134-5.734 6.041a68 68 0 0 1-2.861 2.537c-.486.407-.973.817-1.475 1.205.21-.163 1.476-1.087.216-.22-2.411 1.658-4.848 3.231-7.447 4.581-.508.264-3.355 1.614-2.286 1.15s-1.835.663-2.377.844a50 50 0 0 1-3.491 1.025q-1.17.297-2.355.535c-.281.056-2.79.454-1.169.243 1.421-.185-1.836.108-2.39.129a43 43 0 0 1-3.616-.018c-.603-.029-1.209-.106-1.812-.122.221.006 2.161.411.579.09-1.417-.287-2.829-.543-4.225-.929-.852-.236-1.681-.516-2.522-.783.006.002-2.119-.782-.952-.314.509.204-2.081-1.019-2.727-1.366a54 54 0 0 1-3.548-2.09c-.58-.372-1.142-.767-1.719-1.142-.457-.297-1.714-1.213-.585-.353-4.801-3.658-9.023-8.184-12.933-12.759-.911-1.066-1.795-2.152-2.686-3.235-.039-.047-1.453-1.851-.595-.72.878 1.158-.541-.77-.718-1.036-1.398-2.102-2.668-4.266-3.772-6.538-.377-.776-1.365-3.264-.547-1.124a103 103 0 0 1-1.256-3.411c-.94-2.744-1.733-5.538-2.43-8.352-1.347-5.435-2.329-10.954-3.208-16.481-1.715-10.776-2.938-21.669-5.519-32.287-1.59-6.54-3.257-14.644-9.61-18.193-5.141-2.872-10.996-2.123-16.48-.882-3.645.825-7.225 1.989-10.742 3.244-3.727 1.33-8.029 2.482-10.842 5.428-5.731 6.004-5.21 17.133 2.737 21.24 5.796 2.995 12.742 1.428 18.651-.699 4.269-1.537 7.619-3.879 9.447-8.21 2.922-6.924-.357-14.864-7.279-17.785-6.314-2.665-13.932-.373-20.487.242-15.862 1.486-31.907 1.927-47.81 2.96-9.519.618-19.077.484-26.696 7.098-6.883 5.975-8.306 15.217-8.886 23.805-1.001 14.816-2.604 27.552-7.694 42.595-2.384 7.045-4.723 12.143-9.14 19.158-.842 1.338-1.757 2.623-2.632 3.939-.201.302-1.561 2.112-.221.378-.408.528-.836 1.041-1.261 1.554a82 82 0 0 1-7.346 7.762 101 101 0 0 1-3.518 3.078c-2.085 1.756-.812.655-.33.294a70 70 0 0 1-2.162 1.551 72 72 0 0 1-9.109 5.364c-.59.29-1.187.564-1.783.841-2.03.945 1.779-.653-.315.128-1.43.533-2.862 1.049-4.323 1.493a60 60 0 0 1-5.048 1.298c-.638.134-1.28.241-1.919.367-1.552.304 1.772-.05-.851.116-3.086.196-6.096.237-9.184.068-2.722-.149-.855-.047-.23.044a50 50 0 0 1-2.561-.45c-1.694-.339-3.374-.757-5.03-1.247s-3.283-1.067-4.896-1.686c2.129.816-1.453-.702-2.053-1.004a70 70 0 0 1-8.959-5.39 70 70 0 0 1-1.599-1.157c1.753 1.312-.543-.476-.851-.735a83 83 0 0 1-8.108-7.831 88 88 0 0 1-1.755-1.998c-.19-.222-2.297-2.806-1.444-1.72-1.102-1.403-4.13-5.956-5.704-8.678-1.958-3.386-4.222-7.884-5.489-10.793-6.628-15.212-10.127-33.754-13.014-50.754-.974-5.735-7.653-10.182-13.206-10.055-32.394.745-64.819-.824-96.981-4.79-14.222-1.754-30.744-4.487-45.922-7.504-15.526-3.086-30.73-7.313-46.153-10.8-16.888-3.818-34.16-2.175-44.61 13.235-3.958 5.836-5.866 12.876-8.307 19.421a88 88 0 0 1-.684 1.785c.215-.541 1.06-2.244-.11.163-.55 1.132-1.097 2.263-1.693 3.372-1.589 2.959-3.415 5.759-5.373 8.484 1.302-1.813-.473.574-.958 1.146a76 76 0 0 1-3.381 3.726c-2.049 2.112-4.23 4.078-6.491 5.96-2.054 1.71-.649.5-.191.164a79 79 0 0 1-5.214 3.542c-2.859 1.778-5.832 3.339-8.883 4.758-2.343 1.09 1.075-.328-1.357.542-1.384.495-2.761.994-4.164 1.431-3.009.938-6.06 1.628-9.151 2.228-2.669.519-.649.131-.068.061q-.936.113-1.875.198a69 69 0 0 1-4.393.272c-3.146.09-6.247-.128-9.378-.393-2.156-.183 2.069.466-.035-.027-1.001-.234-2.039-.364-3.045-.58q-2.424-.521-4.806-1.211c-2.382-.69-3.159-.974-4.711-1.54-.583-.213-1.159-.44-1.738-.662-1.445-.554 1.57.791-.719-.325-2.986-1.456-5.911-2.974-8.723-4.75-1.404-.886-2.758-1.838-4.118-2.789-.366-.256-2.022-1.592-.201-.124a77.3 77.3 0 0 1-12.264-12.296c1.451 1.838.135.152-.109-.212-.575-.859-1.184-1.694-1.75-2.56a72 72 0 0 1-5.62-10.331c1.02 2.318-.076-.305-.249-.776a74 74 0 0 1-1.708-5.326c-1.934-6.839-9.703-11.767-16.723-9.495-6.971 2.256-11.568 9.392-9.495 16.723 7.743 27.383 28.678 48.726 54.968 58.925 25.73 9.982 56.121 5.206 78.441-10.707 11.468-8.176 21.452-18.611 27.947-31.21 3.232-6.268 5.21-12.963 7.847-19.466.838-2.067-.864 1.671.17-.274.301-.567.571-1.15.887-1.71.409-.726.851-1.476 1.34-2.156-.393.548-1.568 1.639.243-.105.102-.098 1.667-1.311.577-.566-1.451.992 1.957-1.031.317-.197-1.23.625.577-.187.761-.234.077-.02 3.529-.579 2-.474-1.692.116 1.104.049 1.473.049.679.001 1.353.039 2.031.059 2.685.076 1.113.029.429-.053.917.111 1.85.303 2.753.478 3.546.688 7.028 1.657 10.518 2.576a660 660 0 0 0 24.42 5.931 641 641 0 0 0 49.44 9.006c38.043 5.392 76.37 7.817 114.79 6.804l-13.206-10.055c5.097 29.403 12.46 58.691 31.527 82.391 17.712 22.016 45.039 34.885 73.322 30.3 27.152-4.402 50.138-25.274 62.098-49.316 6.633-13.333 10.85-27.642 13.13-42.331a274 274 0 0 0 2.659-24.156q.124-1.933.291-3.862c.181-2.067-.713 1.862.085-.021.226-.533.307-1.223.476-1.783-.309 1.028-1.267 1.477.113.113-.92.909-.836.904-2.114 1.897-3.945 3.064-.375-.192-.227.487l1.27-.258q-1.98.294-.451.151c4.347.3 9.121-.596 13.478-.878l12.829-.833a2813 2813 0 0 0 27.368-1.924c2.49-.186 4.903-.526 7.387-.864 1.427-.194 6.858-.7 1.848-.26 1.629-.143 3.249-.433 4.876-.603.679-.071 1.37-.101 2.047-.188 3.158-.404 2.206 2.329-5.22-1.803l-6.74-11.75.007.06 3.986-9.622a9.05 9.05 0 0 1 3.874-2.526q2.236-.894.919-.419c-.585.08-1.313.405-1.875.566-1.902.544-9.345 1.735-2.1.968l6.826 1.846-.033-.016 2.737 21.24c.19-.207-3.753 2.798-2.189 1.807.983-.623-3.754 1.439-1.506.641 1.438-.51 2.858-1.063 4.304-1.554a104 104 0 0 1 9.735-2.797c.335-.078.681-.118 1.014-.202 2.051-.522-1.728.214-1.768.217.488-.034.992-.101 1.481-.053-3.857-.376-3.142-.667-6.949-4.262-6.457-6.097-4.335-5.204-3.738-2.785.375 1.519.945 3.009 1.357 4.523 1.419 5.21 2.421 10.527 3.3 15.852 3.905 23.659 5.708 47.823 21.102 67.353 7.942 10.076 17.343 19.81 28.852 25.788 12.253 6.365 25.592 8.191 39.11 5.478 25.185-5.055 45.211-26.057 54.538-49.153 12.509-30.978 6.086-66.168.162-97.832l-16.655 16.655c8.593 1.502 17.119 3.438 25.349 6.361 4.32 1.534 5.511 2.044 9.702 4.258a81 81 0 0 1 5.137 2.953 78 78 0 0 1 2.486 1.621c.149.101 3.616 2.694 1.816 1.252a62.7 62.7 0 0 1 8.22 7.952c.179.207 1.925 2.356 1.071 1.252s.784 1.122.939 1.348a56 56 0 0 1 4.656 8.112c1.028 2.195-.844-2.843.422 1.078.543 1.682 1.106 3.341 1.522 5.061.206.851.755 5.292.596 2.935.154 2.286.203 4.542.059 6.831-.094 1.49-.166 1.73-.688 3.929-.471 1.983-1.103 3.903-1.732 5.839-.463 1.422-.884 2.35-1.968 4.5a80 80 0 0 1-3.136 5.632 82 82 0 0 1-2.734 4.186 73 73 0 0 1-1.823 2.517c.35-.458 1.481-1.738-.204.204-2.438 2.809-4.892 5.56-7.591 8.126a99 99 0 0 1-3.679 3.322c-.363.312-4.093 3.344-2.121 1.817-2.976 2.305-6.11 4.421-9.302 6.416-6.527 4.079-13.395 7.51-20.417 10.644-.333.149-2.366.993-.372.167q-1.2.496-2.407.977-2.417.964-4.856 1.869a256 256 0 0 1-11.082 3.822c-7.23 2.314-14.549 4.332-21.911 6.178-18.779 4.707-37.752 8.636-56.841 11.861-36.771 6.213-74.487 9.66-112.473 11.106-77.871 2.964-155.783-2.602-233.208-10.595-38.448-3.969-76.838-8.531-115.199-13.265-37.494-4.627-74.905-9.754-112.399-17.125-18.987-3.733-37.852-8.049-56.54-13.073-9.34-2.511-18.645-5.136-27.88-8.016a568 568 0 0 1-13.415-4.353 208 208 0 0 1-4.926-1.727q-1.237-.453-2.466-.928c.056.022-3.539-1.496-1.898-.763-6.87-3.071-12.54-6.25-16.098-10.986.737.981-.732-1.166-.851-1.36a31 31 0 0 1-1.243-2.223c-.95-1.873.537 2.429-.414-1.058-.215-.789-.453-1.555-.648-2.352-.193-.791-.385-1.568-.504-2.377.098.668.046 1.847.063-.412.006-.817-.044-1.629-.02-2.446.002-.078.365-3.818.049-1.708 1.984-13.266 11.804-22.525 25.476-26.714 7.2-2.206 14.135-4.219 21.909-4.874 11.619-.979 11.4-16.644 0-17.91Zm463.715-117.968c75.057 47.03 165.593 68.884 253.84 61.272 2.336-.201 4.849-.498 6.582-2.077 1.96-1.786 2.354-4.674 2.628-7.312l3.83-36.985a504 504 0 0 1-137.982 22.52"/><path d="M544.088 695.766c8.682 5.765 17.604 11.126 26.646 16.304 8.979 5.142 18.159 9.762 27.616 13.96 19.625 8.713 39.821 16.088 60.528 21.785 20.829 5.731 42.057 9.734 63.498 12.329a405 405 0 0 0 62.147 2.687 339 339 0 0 0 15.475-.868c3.294-.261 6.802-.318 9.914-1.495 2.821-1.067 5.083-2.223 7.271-4.352 2.209-2.15 3.343-4.527 4.457-7.316 1.233-3.086 1.338-6.556 1.682-9.828l.945-8.982 1.863-17.7c.306-2.907.623-5.812.939-8.718.395-3.635-1.998-7.293-4.712-9.389-2.927-2.262-6.782-3.249-10.423-2.14-21.159 6.444-42.714 11.413-64.508 15.166a512 512 0 0 1-18.651 2.854l3.248-.436a508 508 0 0 1-27.642 2.929 501 501 0 0 1-20.622 1.186c-2.102.077-4.18.21-6.228.763q-1.673.452-3.348.895c-4.527 1.195-8.356 5.9-8.141 10.693a13.16 13.16 0 0 0 1.514 5.597c1.198 2.267 4.108 4.554 6.627 5.096 3.084.663 6.145 1.39 9.321 1.282q3.441-.116 6.879-.281 6.878-.328 13.744-.845a504 504 0 0 0 27.391-2.816c19.146-2.499 38.097-5.9 56.837-10.571a506 506 0 0 0 29.937-8.454l-15.135-11.529c-.642 6.518-1.306 13.033-1.97 19.549-.646 6.339-1.127 12.721-1.963 19.037l.424-3.155c-.177 1.199-.429 2.363-.887 3.489l1.196-2.834a9.3 9.3 0 0 1-.761 1.35l1.855-2.401a7.6 7.6 0 0 1-1.093 1.141l2.4-1.854a8.4 8.4 0 0 1-1.392.828l2.832-1.195c-1.037.426-2.1.659-3.207.819l3.15-.423c-6.125.764-12.362 1.031-18.524 1.354q-9.362.49-18.737.548c-12.338.075-24.671-.427-36.967-1.437a419 419 0 0 1-21.139-2.284l2.938.395a421.4 421.4 0 0 1-84.024-20.245 417 417 0 0 1-22.846-8.836l2.346.99c-5.596-2.361-11.054-5.129-16.706-7.341l2.297.969c-13.752-6-27.072-12.841-40-20.453-3.705-2.181-9.169-.966-11.236 2.946-2.179 4.124-.882 8.694 2.946 11.236Z"/></svg>