<?xml version="1.0" encoding="UTF-8"?><svg xmlns="http://www.w3.org/2000/svg" data-name="ARTWORK" viewBox="0 0 1000 1000"><path d="M76.247 436.803c26.017-29.151 50.715-59.543 72.812-91.79 21.713-31.687 40.77-65.371 57.407-99.976 8.52-17.721 16.374-35.77 23.612-54.051 1.762-4.449 3.471-8.919 5.173-13.39.926-2.433 2.459-6.368 4.223-7.65-1.358.987.538-.365.715-.455-1.559.792 1.062-.389 1.511-.511.237-.065 3.133-.716 1.815-.474-1.597.293 3.076-.276 2.621-.243 4.979-.371 9.989-.486 14.981-.496 37.978-.081 75.592 8.833 109.427 26.33 14.531 7.515 28.379 16.293 41.696 25.782a491 491 0 0 1 9.531 6.97c4.223 3.165 5.053 3.81 8.837 6.793 6.408 5.052 12.724 10.221 18.986 15.452 26.324 21.989 51.795 44.972 79.059 65.818 26.694 20.411 55.342 38.119 87.008 49.715 33.802 12.379 70.156 16.547 105.917 18.291 35.954 1.753 71.994.9 107.928 3.155 8.552.537 17.093 1.253 25.605 2.24 1.206.14 2.411.292 3.617.436.266.032 2.678.345.684.078 1.916.257 3.829.541 5.74.836a313 313 0 0 1 13.498 2.378c8.425 1.68 16.777 3.736 24.991 6.256a219 219 0 0 1 11.498 3.872 209 209 0 0 1 5.337 2.05c-.432-.173 3.902 1.626 2.331.951-1.058-.454 2.012.898 2.305 1.03 7.946 3.585 15.613 7.727 22.999 12.354l-4.919-18.761c-47.389 93.852-95.768 187.407-151.607 276.578a1898 1898 0 0 1-46.891 71.249l11.894-6.822c-27.887 1.263-55.832.939-83.671-1.153-27.36-2.056-51.519-5.449-78.662-10.974-26.421-5.378-52.516-12.337-78.134-20.742-25.788-8.46-50.222-18.037-73.866-28.785-48.291-21.953-94.111-48.628-138.061-78.267-42.083-28.38-83.227-58.146-126.09-85.363-41.884-26.595-86.03-52.23-133.666-67.017a273 273 0 0 0-15.604-4.321c-7.315-1.805-15.984 2.34-17.746 10.076-1.698 7.454 2.238 15.812 10.076 17.746 7.94 1.959 15.763 4.342 23.497 6.998a335 335 0 0 1 11.693 4.26 370 370 0 0 1 9.947 3.998q-2.054-.868.3.135c16.471 7.177 32.528 15.204 48.258 23.882 33.794 18.645 66.138 39.817 98.053 61.483 29.872 20.279 59.291 41.232 89.44 61.101 33.203 21.881 67.652 41.892 103.392 59.346 73.355 35.824 151.593 60.246 232.649 70.428 19.904 2.5 39.906 4.182 59.953 4.949 10.451.4 20.91.559 31.368.482a697 697 0 0 0 15.436-.284c6.96-.205 15.864.851 21.18-4.464 3.636-3.636 6.35-8.864 9.243-13.109q4.386-6.437 8.717-12.911a1859 1859 0 0 0 16.168-24.594 1970 1970 0 0 0 31.456-50.363c43.065-71.271 81.807-145.043 119.538-219.242a10996 10996 0 0 0 15.423-30.459c3.415-6.769 1.682-14.628-4.919-18.761-62.972-39.422-139.587-36.837-211.06-38.341-36.509-.768-70.515-2.279-104.924-11.117-8.462-2.174-16.818-4.769-24.996-7.847a235 235 0 0 1-5.791-2.267c-.474-.193-3.179-1.336-1.19-.484a258 258 0 0 1-13.7-6.379c-14.949-7.493-29.17-16.367-42.821-26.008-13.989-9.879-24.719-18.489-38.376-29.885-12.928-10.788-25.623-21.85-38.442-32.766-26.264-22.366-53.197-44.444-83.074-61.866-34.155-19.917-71.751-32.333-111.137-36.095-10.374-.991-20.83-1.235-31.242-.849-10.206.378-21.589.599-30.246 6.721-9.377 6.632-13.071 16.853-16.745 27.261-3.219 9.121-6.681 18.161-10.271 27.142C169.491 273.257 129.6 341.19 81.619 401.2c-6.05 7.567-12.434 14.86-18.884 22.087-8.167 9.151 5.304 22.713 13.514 13.514Z"/><path d="M510.751 384.428c-21.658-8.408-45.908-9.958-68.584-5.207-5.19 1.088-10.305 2.708-15.237 4.65-5.82 2.292-11.527 4.874-16.911 8.068-5.353 3.177-10.388 7.048-15.052 11.158a90 90 0 0 0-10.566 11.059c-3.785 4.696-7.337 9.559-10.343 14.793s-5.486 10.792-7.655 16.433c-3.974 10.338-6.104 21.466-6.566 32.522-.924 22.107 6.371 44.347 19.755 61.905 3.641 4.776 7.427 9.349 11.732 13.543 4.332 4.221 9.031 7.994 13.85 11.641 8.175 6.187 17.098 11.369 26.436 15.589 21.384 9.664 44.502 15.247 68.034 15.483 12.084.121 24.394-1.258 36.084-4.35 11.378-3.01 22.574-7.791 32.319-14.426 5.163-3.515 10.118-7.453 14.567-11.845 4.409-4.353 8.32-9.218 11.915-14.256 6.669-9.344 11.652-20.085 14.88-31.086 6.262-21.338 5.627-44.999-2.93-65.616-2.282-5.499-4.743-10.834-7.874-15.905-3.094-5.01-6.662-9.757-10.46-14.252-6.875-8.135-15.162-15.185-24.097-20.963-4.662-3.014-9.928-5.68-15.155-7.54l2.815 1.188c-3.534-1.629-7.9-3.229-11.846-3.299l2.923.393c-4.925-1.851-10.336-2.996-15.564-3.486l2.762.371-.35-.072c-2.748-.568-5.53-.402-8.007 1.047-2.155 1.261-4.211 3.733-4.775 6.21-.606 2.66-.475 5.646 1.047 8.007 1.413 2.192 3.569 4.229 6.21 4.775 4.391.908 8.65 2.779 12.831 4.35l-4.851-2.827c3.96 3.391 9.014 5.403 13.46 8.082a117 117 0 0 1 11.029 7.538l-2.495-1.928c6.487 5.045 12.295 10.906 17.327 17.402l-1.976-2.558a99.3 99.3 0 0 1 12.702 21.799l-1.304-3.091c2.982 7.12 5.069 14.582 6.127 22.23l-.468-3.484c1.05 7.841 1.03 15.773-.008 23.614l.472-3.513a94.5 94.5 0 0 1-6.505 23.766l1.343-3.181a94 94 0 0 1-12.009 20.62l2.098-2.716c-4.501 5.802-9.681 11.038-15.481 15.545l2.735-2.113c-6.261 4.819-13.156 8.728-20.427 11.805l3.247-1.37c-8.791 3.679-18.059 6.049-27.496 7.318l3.616-.486c-12.003 1.574-24.174 1.383-36.165-.197l3.618.486c-13.747-1.849-27.23-5.489-40.013-10.879l3.254 1.373c-10.919-4.635-21.301-10.526-30.709-17.764l2.759 2.132c-7.565-5.856-14.448-12.584-20.318-20.145l2.125 2.75c-4.76-6.178-8.768-12.899-11.813-20.083l1.355 3.211c-2.786-6.652-4.71-13.61-5.677-20.759l.475 3.537c-.983-7.522-.931-15.132.059-22.65l-.47 3.499c1.126-8.285 3.371-16.375 6.618-24.078l-1.311 3.107a96.3 96.3 0 0 1 12.265-20.996l-2.01 2.601c4.706-6.065 10.131-11.521 16.206-16.217l-2.572 1.987c6.897-5.284 14.432-9.717 22.433-13.106l-2.927 1.235c8.969-3.758 18.482-6.33 28.115-7.654l-3.033.408a111.3 111.3 0 0 1 28.873-.097l-2.764-.371c1.305.195 2.61.39 3.922.539l-2.756-.37a108 108 0 0 1 17.86 4.31c4.929 1.647 11.065-1.899 12.211-6.933.579-2.541.454-5.394-1.001-7.649-1.48-2.295-3.395-3.577-5.933-4.562ZM289.288 340.62c-.505-.066-1.011-.113-1.517-.168l2.244.302-.345-.098 2.046.864c-1.977-.889-3.629-1.599-5.826-1.697-.797-.036-1.61.022-2.403.101-2.218.22-4.688.421-6.811 1.217-4.429 1.66-8.537 4.078-11.958 7.377-2.875 2.773-5.354 6.186-7.2 9.729-1.714 3.29-3.186 6.859-3.734 10.551-.654 4.409-.703 8.381.361 12.773a28.7 28.7 0 0 0 3.913 8.96c3.785 5.692 9.054 10.381 15.178 13.44 6.731 3.362 13.835 5.121 21.349 5.505 3.853.197 7.641-.251 11.449-.817 2.827-.42 5.607-1.109 8.251-2.202 2.109-.872 4.229-1.724 6.192-2.898 1.919-1.148 3.714-2.553 5.415-3.992a21.3 21.3 0 0 0 2.896-2.991c1.417-1.776 2.841-3.552 3.865-5.59 3.69-7.346 5.063-16.101 3.165-24.157-1.513-6.42-5.555-12.288-10.37-16.694-4.492-4.11-9.673-7.526-14.997-10.458-1.862-1.026-3.759-1.91-5.845-2.369-4.263-.937-9.311.577-11.472 4.669-2.124 4.019-1.684 9.004 1.588 12.311 2.394 2.419 5.281 3.917 8.143 5.674 2.183 1.34 4.315 2.763 6.349 4.322l-2.169-1.676c2.505 1.943 4.838 4.095 6.781 6.609l-1.683-2.179c1.122 1.485 2.08 3.067 2.828 4.773l-1.088-2.578a20 20 0 0 1 1.36 4.822l-.386-2.876c.242 1.802.234 3.604.019 5.408l.387-2.883c-.319 2.371-1.165 4.55-2.076 6.751l1.121-2.656a21 21 0 0 1-2.636 4.504l1.755-2.271a21.8 21.8 0 0 1-3.545 3.527l2.291-1.77c-1.777 1.366-3.719 2.454-5.781 3.326l2.736-1.155c-3.066 1.256-6.282 2.071-9.562 2.516l3.065-.412a44 44 0 0 1-11.288-.01l3.075.413a44.2 44.2 0 0 1-10.947-3.017l2.764 1.166c-2.624-1.122-5.108-2.519-7.379-4.252l2.321 1.793c-1.729-1.348-3.297-2.868-4.648-4.598l1.781 2.305a21.8 21.8 0 0 1-2.629-4.438l1.142 2.706a19.6 19.6 0 0 1-1.368-4.982l.402 2.995c-.22-1.821-.185-3.65.054-5.467l-.399 2.97c.317-2.163.937-4.242 1.781-6.256l-1.109 2.628c1.04-2.394 2.338-4.684 3.926-6.757l-1.689 2.186a30.2 30.2 0 0 1 5.11-5.095l-2.123 1.64c2.166-1.635 4.62-3.111 7.11-4.192l-2.294.968c1.872-.775 3.781-1.338 5.493-2.457l-2.046.864q.333-.177.708-.211l-2.229.3q.567-.077 1.138-.131c2.239-.216 4.197-.777 5.838-2.418 1.432-1.432 2.51-3.782 2.418-5.838-.096-2.135-.797-4.35-2.418-5.838l-1.671-1.291a8.2 8.2 0 0 0-4.167-1.127Zm421.859 166.646c-.505-.066-1.011-.113-1.517-.168l2.244.302-.345-.098 2.046.864c-1.977-.889-3.629-1.599-5.826-1.697-.797-.036-1.61.022-2.403.101-2.218.22-4.688.421-6.811 1.217-4.429 1.66-8.537 4.078-11.958 7.377-2.875 2.773-5.354 6.186-7.2 9.729-1.714 3.29-3.186 6.859-3.734 10.551-.654 4.409-.703 8.381.361 12.773a28.7 28.7 0 0 0 3.913 8.96c3.785 5.692 9.054 10.381 15.178 13.44 6.731 3.362 13.835 5.121 21.349 5.505 3.853.197 7.641-.251 11.449-.817 2.827-.42 5.607-1.109 8.251-2.202 2.109-.872 4.229-1.724 6.192-2.898 1.919-1.148 3.714-2.553 5.415-3.992a21.3 21.3 0 0 0 2.896-2.991c1.417-1.776 2.841-3.552 3.865-5.59 3.69-7.346 5.063-16.101 3.165-24.157-1.513-6.42-5.555-12.288-10.37-16.694-4.492-4.11-9.673-7.526-14.997-10.458-1.862-1.026-3.759-1.91-5.845-2.369-4.263-.937-9.311.577-11.472 4.669-2.124 4.019-1.684 9.004 1.588 12.311 2.394 2.419 5.281 3.917 8.143 5.674 2.183 1.34 4.315 2.763 6.349 4.322l-2.169-1.676c2.505 1.943 4.838 4.095 6.781 6.609l-1.683-2.179c1.122 1.485 2.08 3.067 2.828 4.773l-1.088-2.578a20 20 0 0 1 1.36 4.822l-.386-2.876c.242 1.802.234 3.604.019 5.408l.387-2.883c-.319 2.371-1.165 4.55-2.076 6.751l1.121-2.656a21 21 0 0 1-2.636 4.504l1.755-2.271a21.8 21.8 0 0 1-3.545 3.527l2.291-1.77c-1.777 1.366-3.719 2.454-5.781 3.326l2.736-1.155c-3.066 1.256-6.282 2.071-9.562 2.516l3.065-.412a44 44 0 0 1-11.288-.01l3.075.413a44.2 44.2 0 0 1-10.947-3.017l2.764 1.166c-2.624-1.122-5.108-2.519-7.379-4.252l2.321 1.793c-1.729-1.348-3.297-2.868-4.648-4.598l1.781 2.305a21.8 21.8 0 0 1-2.629-4.438l1.142 2.706a19.6 19.6 0 0 1-1.368-4.982l.402 2.995c-.22-1.821-.185-3.65.054-5.467l-.399 2.97c.317-2.163.937-4.242 1.781-6.256l-1.109 2.628c1.04-2.394 2.338-4.684 3.926-6.757l-1.689 2.186a30.2 30.2 0 0 1 5.11-5.095l-2.123 1.64c2.166-1.635 4.62-3.111 7.11-4.192l-2.294.968c1.872-.775 3.781-1.338 5.493-2.457l-2.046.864q.333-.178.708-.211l-2.229.3q.567-.077 1.138-.131c2.239-.216 4.197-.777 5.838-2.418 1.432-1.432 2.51-3.782 2.418-5.838-.096-2.135-.797-4.35-2.418-5.838l-1.671-1.291a8.2 8.2 0 0 0-4.167-1.127Z"/><path d="M901.192 522.402a269.7 269.7 0 0 1 64.921 16.904c2.779 1.109 5.696 2.387 7.387 4.855 2.971 4.337.962 10.204-1.14 15.024-43.167 98.989-98.458 175.576-150.593 286.526-37.082-36.562-90.375-52.564-142.358-55.655s-103.851 5.371-155.611 11.094c-51.76 5.724-104.974 8.613-155.166-5.264-38.128-10.542-73.014-30.362-110.333-43.483-60.609-21.31-127.514-24.342-189.802-8.602 44.222-52.989 97.317-127.941 141.54-180.93 3.991-4.782-.054 11.985 6.175 11.979 4.216-.004 7.997 2.435 11.491 4.796 82.181 55.533 162.97 118.594 259.218 142.552 16.888 4.204 34.498 5.239 51.218 10.072 52.97 15.31 113.675 19.428 170.513 29.143 19.507 3.334 40.317 6.53 58.48-1.331 17.158-7.426 28.831-23.405 39.331-38.874a1391 1391 0 0 0 109.969-193.814"/><path d="M898.528 532.064c13.741 2.513 27.37 5.959 40.583 10.509 6.079 2.094 12.195 4.396 17.966 7.252.744.368 1.453.818 2.199 1.177-.469-.225 4.74 2.176 2.809 1.192-1.24-.632.676.388.723.424.6.457.938 1.084.683.425.051.131-2.465-4.228-2.101-4.077l.083-.41-.346 1.425c-.078.353-.594 2.229-.137.888-2.059 6.04-5.252 11.915-7.924 17.707a978 978 0 0 1-8.235 17.387c-5.519 11.364-11.25 22.624-17.135 33.802-23.855 45.307-50.27 89.195-74.731 134.168-15.155 27.863-29.695 56.071-43.094 84.824l21.638-2.788c-33.724-32.958-79.129-50.6-125.27-57.075-54.41-7.635-108.868-.61-163.026 5.728-52.166 6.105-107.22 11.506-157.562.512-51.013-11.141-94.004-39.385-144.708-53.376-57.292-15.809-118.681-16.463-176.298-1.927l14.095 24.213c19.542-23.554 38.153-47.872 56.672-72.232 18.506-24.342 38.129-50.536 55.832-73.256a1820 1820 0 0 1 15.017-19.031c2.504-3.127 5.025-6.242 7.54-9.361q1.735-2.152 3.481-4.296c.575-.706 1.146-1.416 1.728-2.116 1.425-1.713 2.439-1.544-.985.29l-7.014 1.897-3.257-.446-6.13-3.573c.34.368-3.697-6.944-3.056-4.881.065.209-.278-3.668-.324-2.323-.026.757.122 1.599.19 2.351.24 2.658.428 5.384 1.129 7.965.866 3.19 2.544 6.421 4.91 8.767 3.445 3.416 7.214 4.026 11.74 4.824-.855-.151-1.759-.757.424.193-.293-.127-1.49-.69-.072.036 1.475.756 2.853 1.692 4.238 2.599 3.045 1.992 6.043 4.054 9.046 6.107a4268 4268 0 0 1 18.038 12.411c24.089 16.649 48.099 33.425 72.7 49.315 49.288 31.835 101.765 60.433 158.86 75.383 15.15 3.967 30.729 5.482 45.999 8.837 14.857 3.264 29.374 7.806 44.309 10.838 30.692 6.232 61.828 9.95 92.836 14.199 15.476 2.12 30.902 4.484 46.313 7.031 16.586 2.741 33.144 4.786 49.829 1.637 31.057-5.861 49.108-32.937 65.422-57.383a1392 1392 0 0 0 94.052-164.089c3.448-7.093 6.827-14.22 10.161-21.367 3.154-6.761 1.9-14.901-4.959-18.913-5.986-3.501-15.742-1.837-18.913 4.959a1391 1391 0 0 1-85.949 157.029c-10.402 16.402-20.787 33.066-32.504 48.572 1.076-1.424-2.066 2.579-2.323 2.888a114 114 0 0 1-3.801 4.362c-2.696 2.931-6.826 6.911-9.063 8.595-1.802 1.356-6.304 4.133-9.463 5.574.589-.269 1.955-.674-.942.358a58 58 0 0 1-10.7 2.747c1.702-.263-.864.089-.992.1-1.056.089-2.11.175-3.168.232-2.396.13-4.797.148-7.196.091a123 123 0 0 1-7.255-.399 153 153 0 0 1-3.233-.308c-.354-.037-4.391-.512-2.742-.299-9.521-1.235-18.968-3.117-28.456-4.581-39.002-6.017-78.324-10.025-117.073-17.632-19.044-3.738-37.57-9.821-56.676-13.115s-37.705-6.727-56.216-12.657a407 407 0 0 1-25.444-9.116c-7.934-3.137-14.465-5.98-22.91-9.93-16.628-7.777-32.823-16.451-48.684-25.686-31.816-18.525-62.242-39.313-92.542-60.189-7.741-5.334-15.476-10.677-23.227-15.996-7.545-5.178-14.977-10.98-22.912-15.54-3.322-1.909-10.781-5.749-14.814-4.441 2.805-.91 7.589 2.278 9.266 5.106s1.206 2.486.655 1.168c-.201-.481-.442-2.369-.04.067.43 2.605.062-.12.021-.701-.646-9.053-4.041-18.693-15.103-18.566-9.784.112-15.944 10.908-21.447 17.663a1627 1627 0 0 0-15.921 19.894c-11.703 14.835-23.225 29.812-34.713 44.814-22.336 29.168-42.414 55.857-65.143 84.097a1274 1274 0 0 1-15.534 18.941c-4.021 4.803-5.941 11.855-2.265 17.555 3.554 5.513 9.906 8.256 16.36 6.658 25.073-6.208 47.457-9.135 73.565-9.37 26.073-.235 48.953 2.208 73.741 7.925a325 325 0 0 1 36.339 10.629c12.024 4.296 22.296 8.646 33.21 13.408 23.767 10.368 47.445 21.365 72.4 28.625 105.464 30.68 212.633-11.472 319.25-4.884 13.625.842 22.335 1.898 35.259 4.468 12.355 2.457 24.55 5.78 36.385 10.105 21.026 7.682 43.066 20.701 59.528 36.777 5.891 5.753 17.735 5.42 21.638-2.788 24.636-51.815 52.882-101.681 81.09-151.603 13.079-23.146 26.07-46.348 38.353-69.93 6.199-11.901 12.216-23.896 17.987-36.01a946 946 0 0 0 8.771-18.939c2.934-6.527 6.712-13.269 8.082-20.328 2.079-10.712-1.516-21.245-11.444-26.663-7.409-4.043-16.407-5.846-24.531-7.964-16.701-4.354-33.572-7.379-50.778-8.846-11.153-.951-13.787 17.647-2.664 19.681"/></svg>