<?xml version="1.0" encoding="UTF-8"?><svg xmlns="http://www.w3.org/2000/svg" data-name="ARTWORK" viewBox="0 0 1000 1000"><path d="M85.394 507.58c-6.238-34.499-.785-68.675 19.453-96.831 4.054-5.64 10.371-12.715 16.363-18.413 6.982-6.639 12.945-11.343 20.728-16.605 17.969-12.148 37.981-22.129 57.662-29.735 81.935-31.662 171.474-35.784 253.131-68.499 39.026-15.635 76.308-36.354 106.972-65.456 15.876-15.067 29.462-32.416 40.64-51.219 11.99-20.169 21.655-41.616 33.641-61.786 2.677-4.505 5.461-8.949 8.43-13.269a190 190 0 0 1 4.22-5.899c.268-.36 1.973-2.574.782-1.049a155 155 0 0 1 3.337-4.114 153 153 0 0 1 9.838-10.699 135 135 0 0 1 4.788-4.499q1.464-1.309 2.967-2.571c.344-.289 4.061-3.214 2.469-2.018a103 103 0 0 1 11.896-7.74 93 93 0 0 1 5.711-2.916c.085-.04 3.944-1.646 1.595-.721a88 88 0 0 1 4.822-1.748c4.43-1.452 8.958-2.454 13.561-3.177-2.73.428-.21.035.488-.041q1.393-.151 2.789-.262a93 93 0 0 1 7.664-.291 91 91 0 0 1 8.503.428c.582.057 4.081.563.688.04 4.073.628 8.097 1.467 12.058 2.612a93 93 0 0 1 7.716 2.6c.516.199 3.666 1.558.649.226a113 113 0 0 1 10.474 5.261 120 120 0 0 1 9.127 5.793q1.278.893 2.533 1.814c.388.285 3.161 2.425.686.482a154 154 0 0 1 4.881 3.991c6.255 5.337 12.078 11.168 17.552 17.3 2.67 2.99 5.256 6.054 7.77 9.177.689.856 1.367 1.721 2.052 2.581 2.284 2.872-1.55-2.099.649.843 1.321 1.767 2.648 3.529 3.943 5.315 4.953 6.83 9.632 13.856 14.116 21.001 8.488 13.525 16.259 27.481 23.891 41.502 20.769 38.155 35.606 76.931 45.841 119.77 10.359 43.357 14.907 83.943 18.085 128.371 2.097 29.313 2.533 58.375-.458 87.655q-.547 5.355-1.226 10.697-.125.98-.254 1.957c.463-3.582.022-.2-.069.446q-.488 3.447-1.034 6.887a374 374 0 0 1-4.195 22.158c-3.258 14.712-7.455 29.248-12.998 43.269-.358.905-.73 1.804-1.09 2.708-1.23 3.09 1.151-2.591-.182.447-.645 1.47-1.286 2.94-1.954 4.399a192 192 0 0 1-5.052 10.231c-3.332 6.261-7.034 12.33-11.174 18.09-.529.736-1.075 1.458-1.608 2.192-1.843 2.538 1.818-2.218-.154.208-.941 1.158-1.873 2.323-2.84 3.459a116 116 0 0 1-7.237 7.77 106 106 0 0 1-7.173 6.41c-.562.458-3.005 2.243-.088.104-.584.428-1.16.868-1.747 1.293a96 96 0 0 1-4.671 3.177 92 92 0 0 1-8.342 4.731c-1.311.656-2.645 1.257-3.977 1.87-2.808 1.294 2.778-1.032-.132.042-1.115.412-2.219.852-3.341 1.245a91 91 0 0 1-9.586 2.784c-5.53 1.279-8.496 1.574-14.96 1.481-5.867-.084-8.324-.364-13.483-1.419-5.678-1.162-11.252-2.798-16.692-4.79-4.984-1.824-7.855-3.128-13.019-5.735-5.052-2.55-9.978-5.348-14.789-8.327-18.811-11.646-35.788-25.968-54.109-38.335-19.427-13.113-40.551-23.315-63.642-27.964-24.119-4.856-48.667-4.927-73.145-3.976-22.449.873-44.864 2.655-67.144 5.564-41.879 5.469-82.929 14.774-123.63 25.943-22.701 6.23-45.23 13.045-67.865 19.503-11.968 3.415-24.011 6.606-36.206 9.112-12.274 2.521-22.109 3.983-34.639 4.495-20.263.829-37.649-1.844-56.703-9.239-.894-.347-1.778-.723-2.674-1.065-2.133-.814 2.925 1.32-.496-.207-2.144-.957-4.284-1.918-6.398-2.943a169 169 0 0 1-12.536-6.735 155 155 0 0 1-10.907-7.099c-.637-.455-1.263-.923-1.898-1.38-3.144-2.259 2.043 1.712-.952-.712-1.94-1.57-3.857-3.16-5.717-4.825-3.061-2.739-6.026-5.574-8.778-8.625a86 86 0 0 1-3.843-4.553c1.983 2.531-.163-.306-.452-.715a73 73 0 0 1-1.473-2.174 70 70 0 0 1-2.912-4.876 60 60 0 0 1-1.381-2.714c-.052-.109-1.305-3.137-.56-1.197s-.383-1.134-.42-1.238q-.492-1.404-.901-2.835c-.409-1.431-.505-1.906-.727-2.867-.146-.633-.662-3.889-.231-.467-.834-6.62-5.291-13.139-12.803-12.803-6.219.279-13.699 5.686-12.803 12.803.171 1.361.917 7.012.375 2.923.24 1.808.451 3.581.812 5.36a51 51 0 0 0 1.525 5.74 78 78 0 0 0 5.809 13.316c4.355 7.877 10.28 15.094 16.66 21.412 13.645 13.513 30.804 23.865 48.386 31.377 19.754 8.44 40.037 13.274 61.619 13.679 26.198.492 52.34-4.867 77.525-11.633 44.636-11.99 88.562-26.329 133.687-36.513 43.912-9.91 83.503-15.134 128.651-16.979 24.035-.982 48.229-1.265 70.545 3.838 11.581 2.648 20.76 5.893 30.505 10.865 10.321 5.266 20.049 11.611 29.506 18.285 37.185 26.242 76.574 60.593 125.428 56.792 68.925-5.363 103.028-74.933 116.319-134.538 15.385-68.996 10.451-139.79.928-209.249-6.028-43.965-15.897-87.43-32.001-128.855-14.197-36.519-32.713-71.728-53.806-104.751-18.667-29.225-41.428-58.524-72.306-75.601-34.22-18.926-76.608-18.702-109.347 3.532-18.238 12.385-32.892 29.161-44.828 47.573-13.012 20.071-22.882 41.938-34.541 62.779-11.157 19.941-22.12 35.307-38.262 51.178a240 240 0 0 1-10.732 9.921 254 254 0 0 1-6.104 5.145c-1.032.842-2.076 1.669-3.115 2.503q-1.828 1.426-.539.436-1.059.812-2.125 1.613c-8.21 6.17-16.767 11.873-25.575 17.153-18.038 10.813-37.201 19.873-55.242 26.864-20.617 7.989-41.787 14.412-63.211 19.845-43.97 11.151-88.817 18.54-132.555 30.658-75.466 20.909-167.65 63.181-178.169 150.877-2.223 18.535-.219 37.467 3.994 55.581 2.215 9.524 16.19 5.395 14.492-3.995Z"/><path d="M713.671 108.609a463.8 463.8 0 0 0-21.898 96.347c-3.798 32.293-4.097 64.905-1.387 97.3 2.783 33.257 8.537 66.319 17.478 98.478 8.896 31.995 21.418 63.223 36.649 92.718a475 475 0 0 0 24.606 42.212c9.176 14.016 18.995 27.913 29.938 40.611 2.659 3.086 5.369 6.078 8.25 8.959 4.017 4.017 10.491 4.312 14.922.889 4.084-3.155 6.302-10.09 2.927-14.661-1.581-2.141-3.136-4.296-4.777-6.393-.592-.757-1.192-1.508-1.785-2.264l-.888-1.136c-1.609-2.049 1.677 2.194.102.136a510 510 0 0 0-4.962-6.392 430 430 0 0 1-1.775-2.26c-.295-.378-.585-.759-.882-1.134.627.791 1.467 1.906.348.444a446 446 0 0 1-14.101-19.482 456 456 0 0 1-25.022-41.104 476 476 0 0 1-10.736-21.184 535 535 0 0 1-7.457-16.395q-.575-1.323-1.14-2.648c-.189-.442-.373-.886-.564-1.327.383.883 1.032 2.455.274.64a500 500 0 0 1-16.427-45.447c-4.718-15.321-8.917-30.781-12.305-46.453a518 518 0 0 1-6.854-38.795c-.411-2.987.339 2.6-.052-.393a522 522 0 0 1-.761-6.106c-3.799-32.063-4.457-64.401-2.473-96.619a494 494 0 0 1 3.039-32.188l.184-1.423c.322-2.527-.351 2.517 0-.014.544-3.924 1.11-7.845 1.678-11.765 2.3-15.88 5.389-31.634 9.344-47.185q1.457-5.721 3.056-11.403c1.213-4.319-1.491-9.531-5.994-10.556-4.768-1.086-8.997 1.442-10.556 5.994Z"/><path d="M703.433 196.146c-5.129 12.813.199 27.739 8.933 38.425s20.493 18.384 30.899 27.45c41.97 36.563 60.351 98.056 45.331 151.653-6.843 24.42-20.048 47.682-19.889 73.042-4.19-26.249-22.518-47.856-31.964-72.703-5.682-14.944-8.082-30.899-10.446-46.711l-16.085-107.591"/><path d="M697.145 192.47c-1.86 4.228-2.954 8.294-3.367 12.909-.346 3.868.084 7.784.793 11.589 1.368 7.343 4.664 14.559 8.921 20.672 8.951 12.854 21.807 21.702 33.085 32.293 5.371 5.043 10.313 10.525 14.831 16.343l-1.73-2.239c8.473 10.98 15.634 22.857 21.054 35.634l-1.178-2.792c5.539 13.162 9.296 27.11 11.235 41.255l-.43-3.197c1.766 13.158 1.844 26.508.096 39.672l.431-3.205c-1.602 11.789-4.875 23.105-8.895 34.28-4.358 12.113-9.405 24.082-12.231 36.678-1.771 7.892-3.096 16.241-2.555 24.353l22.597-3.058c-1.686-10.342-6.127-20.368-10.833-29.645-4.48-8.831-9.382-17.437-14.012-26.189-2.633-4.978-5.142-10.023-7.34-15.21l1.081 2.562c-7.528-17.953-10.046-37.344-12.897-56.452l-9.096-60.954c-1.725-11.559-3.225-23.15-4.782-34.732l.399 2.969c-.403-3.095-.887-6.173-1.374-9.255-.407-2.579-2.963-5.393-5.116-6.653-2.386-1.396-5.903-1.988-8.578-1.122-2.694.872-5.293 2.541-6.653 5.116l-1.122 2.659a11.2 11.2 0 0 0 0 5.919c2.046 14.5 4.694 28.912 6.863 43.395l6.514 43.491c2.105 14.052 3.913 28.193 6.642 42.141 1.324 6.765 2.932 13.484 5.086 20.035 2.207 6.715 5.013 13.247 8.116 19.593 6.082 12.441 13.558 24.165 18.988 36.924l-1.101-2.61c3.295 7.813 5.665 15.764 7.03 24.133.417 2.561 3.052 5.695 5.287 6.875 2.323 1.228 4.719 1.717 7.335 1.365 5.847-.786 9.621-5.516 9.975-11.298.167-2.73.324-5.44.678-8.155l-.421 3.134c2.568-18.81 10.261-36.166 16.368-53.986 5.654-16.498 8.861-33.731 8.982-51.201.115-16.648-2.324-33.599-7.418-49.457-5.108-15.904-12.496-31.235-22.205-44.847-5.075-7.115-10.749-13.783-17.029-19.863-6.678-6.466-14.09-12.048-21.519-17.613a502 502 0 0 1-5.36-4.059l1.967 1.52c-4.205-3.253-8.325-6.634-12.083-10.403a83 83 0 0 1-5.201-5.711q-.845-1.07.531.699a56 56 0 0 1-1.642-2.28q-1.055-1.55-1.997-3.17c-.942-1.62-1.209-2.174-1.75-3.295-.266-.552-.479-1.15-.773-1.686 1.243 2.266.207.473-.032-.167a39.4 39.4 0 0 1-1.94-7.056 34 34 0 0 1-.143-.89q.26 2.022.11.747c-.05-.601-.113-1.199-.144-1.801a31 31 0 0 1 .018-3.586c.044-.675.548-2.469-.039-.224.15-.575.19-1.197.312-1.781.248-1.19.582-2.354.976-3.503 1.176-3.433-1.072-7.265-4.217-8.592-3.02-1.275-7.633-.343-9.094 2.98ZM297.979 299.009c-.634-10.449-1.623-20.813-.263-31.259l-.378 2.81c.657-4.853 1.795-9.628 3.681-14.157l-1.113 2.638c1.322-3.102 2.985-6.024 5.031-8.706l-1.777 2.3c2.124-2.728 4.475-5.191 7.206-7.319l-2.322 1.794c3.348-2.556 7.043-4.563 10.909-6.22l-2.761 1.165c5.804-2.447 11.886-4.109 17.98-5.656 7.431-1.887 14.852-3.814 22.278-5.722l44.841-11.521c8.355-2.147 16.706-4.54 25.269-5.708l-3.142.422c4.978-.648 9.969-.802 14.955-.145l-3.16-.425c4.624.648 9.105 1.937 13.409 3.74l-2.862-1.208c6.152 2.623 11.809 6.217 17.094 10.295l-2.453-1.895c4.246 3.301 8.251 6.897 12.106 10.645 1.885 1.833 3.771 3.666 5.63 5.527q1.419 1.422 2.824 2.858c1.639 1.674 3.497 2.798 5.552 3.828 2.306 1.157 4.569 1.68 7.158 1.332 2.355-.317 4.79-1.284 6.446-3.087a13.4 13.4 0 0 0 2.887-4.953c.972-3.004.078-5.925-1.132-8.65-.851-1.917-1.502-3.256-3.024-4.943-.715-.793-1.469-1.554-2.207-2.326a312 312 0 0 0-4.508-4.626c-3.093-3.103-6.36-6.054-9.718-8.867-7.122-5.965-14.739-11.594-23.309-15.303-4.646-2.01-9.298-3.818-14.285-4.771-5.64-1.078-11.352-1.547-17.081-1.122-11.329.841-22.251 3.939-33.194 6.783l-61.67 16.026c-9.42 2.448-18.766 5.012-27.567 9.265-8.893 4.296-16.885 11.079-21.694 19.791-9.133 16.547-7.817 35.919-5.233 53.951.285 1.991.618 3.963 1.01 5.936.424 2.136 2.445 4.65 4.349 5.655s3.882 1.412 6.034 1.123c4.397-.591 8.491-4.577 8.205-9.294Zm-96.671 341.532c.679 10.976 1.977 21.89 3.068 32.837 1.092 10.956 2.055 21.923 3.072 32.885 2.013 21.7 3.847 43.413 5.37 65.153 3.057 43.642 5.614 87.285 6.841 131.023.309 11.025.57 22.05.752 33.078.143 8.649.424 17.759 3.313 25.996 1.816 5.178 4.245 9.7 7.916 13.797 3.843 4.288 9.139 7.23 14.595 8.903 5.277 1.618 10.986 1.92 16.473 2.192 5.209.258 10.421.504 15.636.603 20.559.389 42.119-1.909 59.873-13.152 8.461-5.358 16.028-12.423 21.148-21.095 5.74-9.723 7.699-20.856 7.972-32.013.261-10.682-.224-21.41-.405-32.092l-.557-32.911-1.113-65.822c-.087-5.116-.367-10.281.231-15.376l-.444 3.303c.324-2.376.86-4.676 1.773-6.899l-1.252 2.967a24.6 24.6 0 0 1 3.004-5.128l-1.942 2.513c1.475-1.873 3.181-3.512 5.051-4.987l-2.512 1.941c6.629-5.099 14.603-8.006 22.073-11.603 9.248-4.454 18.044-10.498 23.32-19.546 7.07-12.126 6.975-26.806 7.83-40.399l2.605-41.408c.977-15.522 1.384-31.207 3.386-46.631l-.462 3.439c.848-4.292.893-8.776 1.164-13.138.424-6.818-6.298-13.336-13.035-13.035-7.424.333-12.581 5.731-13.035 13.035-.24 3.862-.514 7.699-.493 11.564s-.145 7.698-.382 11.564l-1.418 23.129-2.836 46.258c-.493 8.041-.708 16.161-1.736 24.156l.443-3.296c-.561 4.095-1.441 8.116-3.031 11.944l1.249-2.959c-.943 2.154-2.087 4.172-3.503 6.051l1.937-2.507c-1.626 2.085-3.51 3.908-5.584 5.544l2.508-1.938c-8.109 6.245-18.049 9.277-26.955 14.123-4.857 2.643-9.731 5.956-13.354 10.169-2.156 2.508-4.188 5.184-5.568 8.203-2.29 5.01-3.36 9.739-3.826 15.244-.675 7.981-.034 16.173.092 24.173l.39 24.683.791 50.115.437 27.675c.141 8.908.636 17.922-.52 26.783l.447-3.326c-.58 4.089-1.556 8.073-3.148 11.89l1.262-2.991c-1.533 3.539-3.525 6.81-5.879 9.862l1.956-2.532c-2.636 3.337-5.665 6.294-9.004 8.922l2.515-1.943c-4.458 3.44-9.343 6.228-14.523 8.428l2.942-1.241c-6.78 2.814-13.926 4.494-21.187 5.489l3.235-.435c-7.743 1.011-15.551 1.253-23.353 1.168-7.47-.081-15.141 0-22.556-.978l3.156.424c-2.527-.373-4.977-.949-7.348-1.91l2.833 1.196a22 22 0 0 1-4.477-2.612l2.399 1.853a22 22 0 0 1-3.478-3.485l1.852 2.397c-1.309-1.716-2.356-3.569-3.22-5.544l1.193 2.827c-1.478-3.54-2.321-7.268-2.857-11.058l.422 3.14c-.865-6.504-.826-13.077-.971-19.624q-.272-12.266-.656-24.529a2532 2532 0 0 0-2.015-48.665c-1.648-32.56-3.811-65.099-6.891-97.556-1.799-18.96-3.513-37.99-6.074-56.864l.38 2.83a2933 2933 0 0 0-6.708-50.618q-.26-1.836-.523-3.672l-.316-2.203c-.043-.3-.368-2.408-.139-.922.316 2.056-.301-1.889-.467-2.728l-.428-2.173-.862-4.344c-.882-4.43-5.806-7.073-9.976-6.512-4.221.567-8.164 4.398-7.883 8.929Z"/><path d="M235.827 814.551c29.612-17.672 63.596-26.445 94.891-40.931 31.294-14.486 61.692-37.153 71.86-70.104 4.264-13.82 4.656-28.493 5.015-42.951l1.248-50.382c-49.925 29.259-110.675 31.201-166.33 47.047-1.363.388-2.776.813-3.819 1.772-2.142 1.969-1.97 5.342-1.594 8.228 5.416 41.586 18.602 83.647 9.752 124.639"/><path d="M240.439 822.442c5.818-3.462 11.914-6.286 18.145-8.922l-2.332.984c17.647-7.432 36.054-12.823 53.911-19.699 17.237-6.638 34.485-13.774 50.118-23.722 7.625-4.852 14.945-10.297 21.702-16.3 6.684-5.938 12.574-12.585 17.862-19.791 5.264-7.173 9.307-15.021 12.481-23.324 3.759-9.834 5.361-20.351 6.252-30.797.873-10.229.927-20.523 1.184-30.78l.8-31.925c.067-2.658.067-5.327.215-7.981.23-4.133-2.437-8.274-5.912-10.307-3.856-2.257-8.176-1.96-12.049 0a194 194 0 0 1-4.623 2.262l2.926-1.235c-6.336 2.642-12.361 6.004-18.696 8.683l2.98-1.258c-13.781 5.796-28.128 10.107-42.646 13.62-14.72 3.561-29.581 6.462-44.457 9.281-14.849 2.814-29.713 5.592-44.421 9.082a411 411 0 0 0-11.042 2.775c-1.745.466-3.517.908-5.221 1.512-4.723 1.673-8.497 4.101-11.263 8.402-.928 1.442-1.601 3.16-2.095 4.791-.548 1.813-.729 3.822-.819 5.716-.129 2.744.472 5.535.854 8.23a444 444 0 0 0 1.96 12.462c2.826 16.576 6.467 33.01 9.013 49.633q.467 3.046.879 6.102l-.446-3.322c2.051 15.368 2.686 31.021.644 46.426l.432-3.212q-.599 4.396-1.18 8.794l.425-3.167c-.269 1.984-.604 3.961-.806 5.953l.419-3.12-.099.464c-.66 3.086-.444 6.263 1.183 9.043 1.425 2.434 4.216 4.756 7.014 5.393 3.004.684 6.376.536 9.043-1.183 2.486-1.603 4.755-4.028 5.393-7.014.41-1.918 1.02-3.797 1.41-5.725.569-2.817.887-5.714 1.258-8.558.506-3.876.85-7.772 1.042-11.676.385-7.822.176-15.664-.413-23.47-1.277-16.914-3.781-33.734-6.615-50.452-1.507-8.891-2.999-17.786-4.208-26.724l.478 3.556c-.402-3-1.056-6.133-.713-9.167l-.481 3.577a8.7 8.7 0 0 1 .553-2.055l-1.358 3.218c.207-.427.439-.807.727-1.184l-2.108 2.729a7 7 0 0 1 .789-.763l-2.731 2.11a8.3 8.3 0 0 1 1.325-.764l-3.226 1.362c2.542-1.044 5.352-1.604 8.001-2.326q4.25-1.155 8.523-2.221a579 579 0 0 1 16.994-3.95c11.256-2.453 22.564-4.654 33.856-6.934 22.45-4.532 44.886-9.421 66.421-17.354 12.805-4.717 25.794-10.118 37.175-17.728l-17.962-10.307c.032 5.149-.237 10.316-.364 15.464l-.379 15.464c-.248 10.106-.383 20.222-.809 30.322-.232 5.504-.616 11.003-1.34 16.466l.425-3.164c-1.096 8.036-3.014 15.903-6.171 23.386l1.199-2.841c-3.027 7.085-7.017 13.697-11.721 19.793l1.859-2.406c-6.271 8.065-13.699 15.14-21.763 21.39l2.404-1.858c-10.787 8.314-22.644 15.219-34.952 21.017a336 336 0 0 1-12.438 5.525l2.798-1.181c-6.327 2.664-12.776 5.039-19.081 7.749l2.777-1.172c-9.572 3.942-19.234 7.692-28.681 11.926-8.635 3.87-17.188 7.943-25.477 12.513-4.709 2.596-9.354 5.334-13.975 8.084-4.108 2.445-5.967 8.332-3.278 12.503 2.665 4.133 8.107 5.894 12.503 3.278Zm161.505-545.214c-27.443 99.598-12.612 217.474 37.534 307.797 31.318-4.572 71.591-4.643 102.907-9.215-3.584.502-18.345-32.025-20.277-35.586-50.002-92.155-59.482-204.671-12.859-300.168a747.5 747.5 0 0 1-96.013 45.115"/><path d="M393.311 274.848c-2.966 9.78-5.609 19.697-8.037 29.624-2.616 10.695-4.141 21.68-5.555 32.592-2.687 20.735-3.441 41.644-2.73 62.534.745 21.876 3.343 43.698 7.357 65.211 3.837 20.566 9.135 40.866 15.926 60.656 6.943 20.233 15.376 40.035 25.374 58.95a386 386 0 0 0 3.577 6.604c1.243 2.244 3.364 3.882 5.679 4.859 2.662 1.123 4.871 1.013 7.732.599a350 350 0 0 1 3.215-.45l-3.157.424c26.218-3.49 52.721-4.06 79.043-6.445 7.953-.721 15.883-1.635 23.777-2.853 2.609-.403 5.833-3.141 7.03-5.406 1.255-2.376 1.755-4.825 1.396-7.501-.719-5.349-5.711-10.719-11.553-10.2a1 1 0 0 1-.219-.005l3.127.42a1.6 1.6 0 0 1-.243-.076l2.809 1.185a3 3 0 0 1-.457-.275l2.379 1.838c-.663-.514-1.2-1.175-1.712-1.833l1.834 2.374c-2.258-2.958-4.082-6.26-5.874-9.512a313 313 0 0 1-6.366-12.205c-3.722-7.518-7.639-14.912-11.427-22.395a367 367 0 0 1-10.576-22.828l1.133 2.684c-9.457-22.472-16.682-45.875-21.37-69.805a347 347 0 0 1-3.349-20.297l.384 2.856c-2.889-21.663-3.443-43.699-1.833-65.491a319 319 0 0 1 1.942-18.685l-.389 2.892c2.755-20.352 7.501-40.421 14.306-59.802a311 311 0 0 1 6.335-16.451l-1.113 2.637c2.374-5.15 4.836-10.381 7.718-15.269 2.558-4.338 1.971-10.777-1.842-14.278-3.931-3.609-9.542-4.466-14.278-1.842-6.081 3.369-12.355 6.387-18.517 9.602a747 747 0 0 1-18.029 9.097 754 754 0 0 1-37.364 16.972l2.927-1.235a809 809 0 0 1-22.351 9c-3.075 1.188-5.625 2.708-7.346 5.649-1.542 2.635-2.195 6.518-1.239 9.472.963 2.974 2.806 5.844 5.649 7.346 2.757 1.456 6.436 2.412 9.472 1.239 26.701-10.315 52.863-22.106 78.245-35.336 6.936-3.615 13.638-7.615 20.447-11.459l-17.308-13.306-.215.547 1.183-2.803a490 490 0 0 0-4.149 9.872l1.15-2.726c-1.7 3.759-3.008 7.675-4.558 11.496-1.216 2.998-2.418 6.001-3.553 9.031a295 295 0 0 0-6.262 18.57 302 302 0 0 0-8.766 37.889c-4.328 26.282-5.615 52.958-3.568 79.521s6.755 53.062 14.464 78.636c3.85 12.77 8.462 25.274 13.646 37.56 2.695 6.387 5.531 12.711 8.567 18.944 2.213 4.544 4.665 8.965 6.893 13.498 2.929 5.957 5.686 11.997 8.659 17.934 1.73 3.454 3.501 6.895 5.448 10.233 1.716 2.942 3.628 6.053 6.082 8.422 2.426 2.342 5.991 4.272 9.475 4.027l-3.127-23.106-.533.072 3.128-.42c-26.923 3.596-54.11 4.234-81.144 6.623a440 440 0 0 0-24.389 2.833l13.411 5.457c-6.608-11.924-12.548-24.204-17.852-36.761l1.197 2.837c-11.336-26.943-19.743-55.089-25.291-83.783a446 446 0 0 1-4.056-24.731l.424 3.157c-4.235-31.535-5.181-63.311-3.09-95.052a399 399 0 0 1 2.63-26.43l-.377 2.802c.699-5.188 1.404-10.37 2.1-15.558l-.359 2.672c1.309-9.645 3.189-19.126 5.519-28.575 1.119-4.539-1.452-9.919-6.253-11.013-4.833-1.101-9.558 1.454-11.013 6.253Z"/></svg>