<?xml version="1.0" encoding="utf-8"?>
<!-- Generator: Adobe Illustrator 18.1.1, SVG Export Plug-In . SVG Version: 6.00 Build 0)  -->
<!DOCTYPE svg PUBLIC "-//W3C//DTD SVG 1.1//EN" "http://www.w3.org/Graphics/SVG/1.1/DTD/svg11.dtd">
<svg version="1.1" id="Layer_1" xmlns="http://www.w3.org/2000/svg" xmlns:xlink="http://www.w3.org/1999/xlink" x="0px" y="0px"
	 width="305px" height="70px" viewBox="0 0 305 70" enable-background="new 0 0 305 70" xml:space="preserve">
<g>
	<g>
		<path fill="#003D52" d="M33.9,50.1c0-0.2,0-0.3,0-0.5c-0.1-0.2-0.2-1.2-0.2-1.2l-0.8,0.1c0,0-0.1,0.8-0.2,1.6c0,0.2,0,0.2,0,0.3
			c0,0.1,0,0.2,0,0.4c0,0.2,0,1.3,0,1.8c0,0.5-0.1,1.8-0.1,2.3h1.6c-0.1-0.9-0.3-3.9-0.3-4.6C34,50.1,33.9,50.2,33.9,50.1z
			 M36.9,54.9c0.1-1.5,0.5-6.7,0.7-8c0.2-1.4,0.2-1.7,0.2-2.1c0.1-0.4,0-0.5,0-1c0-0.5,0-2.7,0.1-4.3c0.1-1.6,0.2-3.8,0.2-4.1
			c0-0.2-0.1-0.6-0.1-1.1c0-0.4,0-0.6,0-0.6l-0.3-0.4l0.2-0.3c0,0-1.5-1.7-1.8-2.8c0,0-0.3-0.1-0.5-0.3c0.1,0.4,0.2,0.7,0.3,0.8
			c0.1,0.2,0.2,0.3,0.3,0.5c0.1,0.1,0.2,0.8,0.3,1.1c0.1,0.3,0.2,0.7,0,0.9c-0.2,0.2-0.4,0.7-1.7,1.1c0,0-0.1,0.9,0.1,1.4
			c0,0,0.4,0.3,0.4,0.4l-0.1,0.1c0,0,0.8,3.3,0.8,3.7c0,0-0.2,0.3-0.8,0.4c0,0,0.2,7.7,0.2,7.8c0,0.1,0.1,1.5,0.1,2.4
			c0.1,0.9,0,2,0.1,2.3c0.1,0.3,0,0.8,0,0.9c0,0.1,0.1,0.7,0.4,1L36.9,54.9L36.9,54.9L36.9,54.9z M20.5,53.1c0.1-0.6,0-3.4,0.2-4.7
			c0.1-1.3,1.1-3.4,1.3-3.9c0.2-0.5,0.2-1.2,0.2-1.2l-0.5-0.3c-0.1-3.6-0.8-6.4-0.3-9.3c0.5-2.9,0.1-4.4,0.1-4.4s-0.1-0.1-0.6-0.1
			c-0.6,0-1,0.1-1.2,0.1c-0.2,0-0.5-0.1-0.8-0.5c-0.3-0.5,0.7-2.8,0.7-2.8l-1.2-1.9l2.2-1.4c0,0,0.3-0.9,0.4-1.2
			c0.1-0.3,0.5-0.3,0.5-0.3c0.8,0,1.8-0.4,1.8-0.4c0.6-1.2,0.5-1.7,0.5-1.7s-0.2,0.1-0.3-0.1c-0.1-0.2-0.3-0.2-0.3-0.2l-0.2,0
			c0.2-0.3-0.1-0.6-0.2-1c-0.1-0.3-0.1-1-0.1-1.1c0-0.1-0.1-0.1-0.1-0.1c0.1-0.1,0.2-0.5,0.3-0.7c0.1-0.2,0.2-0.4,0.2-0.4
			c0-0.1,0-0.2,0.3-0.4H10v40h9.9l0.3-0.4C20.1,54.2,20.3,53.7,20.5,53.1z M53.3,54.7L53.2,54c-0.1-1.1-0.1-3,0-5.4
			c0-1.3-0.8-7.9-0.9-7.9c-0.1,0.1-0.9,5.3-0.9,6.1c0,0.8-0.3,1.1-0.3,1.1s-0.2,2.9-0.2,3.2c0,0.3-0.1,2.3,0,2.9l0,0.8
			c0,0-0.7,0.1-0.7,0.1c0,0,0,0,0,0.1h3.2c0-0.1,0-0.3,0-0.3L53.3,54.7z M22.9,54.8C22.9,54.8,22.9,54.8,22.9,54.8
			C22.9,54.7,22.9,54.7,22.9,54.8L22.9,54.8c0.1-0.3,0.3-0.8,0.5-1.3c0.3-1.6,0.1-3.2-0.2-4.7c-0.3-1.4,0-4,0-4
			c-0.3,2-1.9,5.6-2.2,6.4c-0.3,0.8-0.4,2.5-0.4,2.9c0,0.4,0,0.5-0.1,0.8l0,0c0,0,0,0,0,0h2.3C22.9,54.9,22.9,54.9,22.9,54.8
			C22.9,54.8,22.9,54.8,22.9,54.8z M31.2,51.5c0,0-0.1-0.2-0.1-0.5c0-0.3,0.1-2.5,0.1-2.5s-0.3,0.1-0.4,0c-0.1-0.1-0.1-2.3-0.2-3.3
			c-0.1-1-0.4-3.3-0.3-4.8c0,0-0.4,0-0.5-0.1c-0.1-0.1,0.2-4.1,0.1-4.8l-1,0.2l-0.1-0.4c0,0-0.6,0.2-0.7-0.2c-0.1-0.5,0-1,0.2-1.6
			c0-0.3,0-0.4,0.1-0.5c0.1-0.1,0.1-0.3,0.2-1c0.1-0.7,0.2-2,0.4-2.4c0.2-0.5,0.5-0.8,1.2-1.3c0,0,0.2-0.3,0.3-0.6
			c0.2-0.2,0.5-0.6,0.5-0.6s0.2-0.7-0.1-1c-0.2,0-0.4-0.1-0.5-0.1c-0.1,0-0.3,0-0.3,0s-0.1-0.1-0.2-0.2c-0.1-0.2-0.3-1.3-0.3-1.8
			c0-0.5,0.1-0.7,0.4-1.1c0.3-0.4,0.1-0.6,0.2-0.7c0.1-0.1,0.1-0.5,0.3-0.4c0.2,0,0.2,0.1,0.3,0.1c0,0,0-0.5,0.3-0.4
			c0.3,0.1,0.3-0.1,0.5,0.1c0.2,0.2,0.3,0.2,0.4,0.3c0.1,0.2,0.2,0.1,0.3,0.3c0.1,0.2,0.2,0.3,0.2,0.4c0,0.2-0.1,0.3-0.1,0.3
			s0.2,0.2,0.2,0.4c0,0.2-0.1,0.4,0,0.6c0,0.2,0.2,0.4,0.2,0.4s-0.1,0.1,0,0.5c0.1,0.4,0.2,0.9,0,1c-0.1,0.1-0.5,0.2-0.5,0.3
			c0,0.1,0.1,0.7,0.2,0.9c0,0,0.2,0,0.3,0.1c0.1,0.1,0.4,0.3,0.4,0.3s0.5,0,0.7,0c0,0,0.5,0,0.8,0.5c0.1,0.2,0.3,0.7,0.5,1.2
			l0.4-0.4c0,0-0.1-0.4-0.1-0.5c0-0.2,0.6-3.3,0.8-4.4c0.2-1,0.4-3.1,1-3.4c0.6-0.3,1.1-0.4,1.9-0.7c0.8-0.2,0.9-0.3,0.9-0.3
			s0.3-0.5,0.5-0.6c0.2-0.1,0.3-0.1,0.3-0.1s0.2-1.2,0.2-1.4c0-0.2-0.1-0.1-0.2-0.2c-0.1-0.1,0-0.4-0.2-0.6
			c-0.2-0.2-0.4-0.8-0.3-1.8h-15c0,0,0.1,0.1,0.1,0.1c0.2,0.2,0.1,0.4,0.1,0.6c0,0.2,0.2,0.3,0.3,0.7c0.1,0.4-0.1,0.5-0.2,0.7
			c-0.1,0.2,0.1,0.4,0,0.8c-0.1,0.4-0.4,0.5-0.6,0.6c-0.2,0.2-0.2,0.3-0.4,0.4c-0.2,0.1-0.3,0-0.3,0c-0.2,0.6-0.3,1.8-0.2,2.4
			c0.1,0.6,1.2,1,1.5,1.1c0.3,0.1,0.8,0.2,1.1,0.8c1.1,2.2,1.7,6.4,1.5,6.5c-0.2,0.1-0.5,0-1-0.1c-0.5-0.1-0.8-0.3-1-0.3
			c-0.2,0-0.3,0.2-0.3,0.5c-0.1,1.7,0.3,2.6,0.5,4c0.2,1.4,0.2,2.4,0,5.1c-0.2,2.7-0.1,3.8-0.1,3.8l-1.3,0c0,0-0.5,1.1-0.6,1.6
			c-0.1,0.6-0.2,4.3-0.6,6.8c-0.5,2.5-0.1,3.1,0.1,3.5c0,0.1,0.1,0.2,0.2,0.4h6.6c0-0.3,0.1-1.1,0.1-1.4
			C30.9,53.3,31.1,51.8,31.2,51.5z M42.2,46.9c0.2-1.5,0.4-1.5,0.4-1.8c0-0.3-0.2-0.4-0.1-0.7c0.1-0.3,0.1-0.5,0-0.9
			c0-0.4-0.2-3.4-0.4-4.6c-0.2-1.2,0-1.9-0.2-2c-0.1-0.1-1.3,6.7-1.5,7.4c-0.2,0.3,0,0.2-0.1,0.5c-0.1,0.3-0.3,0.3-0.2,0.6
			c0.1,0.3,0,0.2,0,0.9c-0.1,0.7-0.3,1.3-0.2,2.6c0,1.3-0.2,4.7-0.1,5.6c0,0.1,0,0.3,0,0.5h2.5C42.2,53.7,42,48.2,42.2,46.9z
			 M69.7,54.4c0,0-0.1,0-0.2,0.1c-0.1,0.1-0.2,0.2-0.4,0.5h0.5l0-0.1C69.7,54.7,69.7,54.6,69.7,54.4z M73.5,52.7
			c-0.1-0.7-1.6-4.8-1.7-5.8c-0.1-1,0-1.6-0.1-2.1c-0.1-0.4-0.8-2.1-1-3c0,0-0.4,0.1-0.7,0.1c-0.2,0-0.7-0.1-0.9-0.1
			c0,0-0.2,1.6-0.1,2.3c0.1,0.6,0.5,2.2,0.4,3.5c0,1.4,0,3.5,0.2,4.1c0.1,0.2,0.3,0.7,0.4,0.9c0.2,0.3,0.4,0.7,0.2,1.4
			c-0.1,0.3-0.1,0.6-0.1,0.8h3.3c0-0.2-0.1-0.6-0.1-0.8C73.2,53.9,73.6,53.4,73.5,52.7z M70.6,16.9c0.3,1.6,0.6,1.7,1.2,2.4
			c0,0,0.1,0.6-0.1,1c0,0,0.3,0.3,0.9,0.4c0,0,0.4,0.2,0.3,1.4c-0.1,1.2-0.1,2.8-0.2,3.4c-0.1,0.5-0.1,0.9-0.2,1.1
			c-0.1,0.3-0.3,0.7-0.6,0.9c-0.3,0.2-1,0.4-1,0.4s-0.2,1,0.2,2.5c0.5,1.5,0.9,3.3,0.9,5.2c-0.2,0.1-0.3,0.2-0.3,0.2
			s0.9,5.5,1.2,8.6c0.7,2.2,0.8,6.2,1.2,8c0.5,1.7,0.7,2,1,2.5l0,0c0,0,0,0,0,0H84V15H69.9C70.1,15.4,70.4,16,70.6,16.9z M73.7,54.6
			l0,0.4H74C73.9,54.5,73.7,54.6,73.7,54.6z M68.8,52.9c0.4-1.2-0.9-5.1-1-6.4c-0.1-1.3-0.1-1.9-0.1-1.9s-0.5-2.4-0.5-2.6
			c0,0-0.4,0-0.5,0.2c-0.2,0.1-0.4,0.1-0.5-0.1c-0.1-0.2,0.2-1.6,0.1-3.3c-0.1-1.6-0.1-3-0.1-3s-0.6-0.1-0.7-0.3
			c0-0.1,0.2-1.8,0.3-2.4c0.2-0.6,0.5-1.7,0.5-1.7s-0.1,0-0.1-0.3c0-0.2,0.5-1.2,0.6-1.3c0.1-0.1,0.2-0.1,0.2-0.4
			c0-0.2,0.1-0.9,0.1-0.9s-0.9,0.6-1.3,0.5c-0.3-0.1-0.8-0.8-0.6-1.3c0.1-0.5,0.1-0.5,0.2-0.7c0.1-0.3,0.1-0.3,0.2-0.6
			c0-0.3,0.3-2,0.3-2.8c0-0.8,0.1-1.2,0.2-1.5c0.2-0.3,1.2-0.7,1.4-1.2c0,0-0.2-0.3-0.2-0.7c0-0.4,0.1-0.5,0-0.8
			C67.2,19.2,67,18,67,17.6c0-0.3-0.3-1.7,0-2.6H44.1c0,0.4,0,0.9-0.1,1.1c-0.1,0.2,0,0.3-0.2,0.5c-0.1,0.2-0.2,0.5-0.4,0.6
			c0,0-0.1,0.4-0.2,0.6c-0.1,0.2-0.3,0.3-0.3,0.3s-0.1,0.9,0,1.1c0.2,0.1,0.3-0.1,0.6,0.3c0.2,0.3,0.3,0.5,0.3,0.5s1.8,0.7,2,0.9
			c0.2,0.2,0.6,0.5,0.8,1.3c0.2,0.8,0.2,3,0.1,3.3c0.1,0.3-0.1,0.3,0,0.4c0.1,0.1,0.1,0.1,0.1,0.2c0.1,0.2,0.1,2,0.1,2.2
			c0.1,0.2,0.2,0.7,0.2,0.7s-0.2,0.2-0.2,0.5c0.1,0.3,0.1,0.6,0.1,0.6l-0.2,0.2c0,0,0.1,1.2-1,3.4c0,0-0.5,5.9-0.8,8
			c-0.3,2.1-0.2,2.9-0.3,3.1c-0.1,0.2,0.1,2.8,0,4.1c-0.1,1.3-0.2,3,0.1,4.4c0.2,0.8,0.3,1.4,0.3,1.7h3.5c0.1-0.1,0.1-0.2,0.1-0.2
			h-0.3l0-0.8c0-0.8,0.3-2.7,0.5-5.6c0.3-3.3,0.5-9.2,0.5-9.4c0-0.3-1-0.6-1-0.6s0.9-4.3,1.1-4.3c0,0-0.1-0.1-0.1-0.3
			c0-0.2,0-0.3,0.1-0.5c0.1-0.2,0.3-1,0.3-1s0.3-0.9,0.2-1.8c0,0-0.4,0-0.4-0.3c-0.1-0.3-0.4-1.4-0.4-2c-0.2-0.6-0.7-1.8-0.6-2.5
			c0.1-0.7,0.1-0.9,0.8-1.5c0.7-0.6,1-0.6,1-0.6s0.3-0.8,0.5-1c0.2-0.2,0.5-0.3,0.5-0.3s-0.2-0.3-0.1-0.5c0-0.2,0-0.2,0-0.2
			l-0.2-0.3l0-0.1c0,0,0-0.5-0.2-0.9c0-0.5,0-1.1,0.5-1.6c0.5-0.4,0.8-0.7,1-0.5l0,0c0,0,0.6,0,0.7,0.4c0.1-0.2,0.7,0.3,0.7,0.7
			c0,0.5,0,0.8,0,0.8l0.2,0c0,0,0.1,0.3,0.1,0.5c0,0.2-0.2,0.4-0.2,0.4c0,0,0,0.8,0,1c0,0.2,0,0.4,0,0.6c0,0.1-0.4,0.3-0.5,0.3
			c-0.1,0-0.1,0.3,0.1,0.5c0,0,0.8,0.1,1.1,0.4c0.3,0.3,0.5,0.3,0.7,1.6c0.2,1.4,0.6,2.6,0.7,2.8c0.1,0.2,0.2,0.4,0.2,0.5
			c0,0.1,0-0.1,0.1,0.1c0.1,0.2,0.1,0.1,0.2,0.2c0.1,0.1,0.9,0,1.6,0c0.7,0,0.9,0.1,0.9,0.1l0,0.1l0.1,0l0,0.1c0,0,0.1,0,0.3-0.1
			c0.2-0.1,0-0.4,0.2-0.5c0.2-0.2,0.5-0.3,0.6-0.3c0.1,0,0.4-0.2,0.5-0.2c0.1,0.1,0,0.2-0.3,0.3c-0.1,0-0.2,0.2-0.2,0.2
			s0.1,0.1,0.2,0.1c0.1,0,0.9,0,0.9,0s0.2-0.1,0.3-0.1c0.1-0.1,0.3-0.3,0.4-0.3c0.1,0-0.1,0.3-0.3,0.5c-0.2,0.1-0.4,0.2-0.5,0.2
			c0,0-0.1,0.1-0.1,0.2c0,0.1,0,0.1-0.1,0.2l-0.1,0.1c0,0.1,0,0.1-0.1,0.2c-0.1,0.1-0.6,0.2-1,0.2c-0.3-0.1-0.6,0.1-0.6,0.1l0,0.6
			l-0.1,0c0,0-0.1,0.6-0.2,0.7c0,0-1.2-0.2-2.6-0.3c-0.6,0-1,0.1-1.1-0.1c-0.1-0.1-0.2,1.9-0.2,2.3c-0.1,0.4,0.2,0.3,0.2,0.5
			c0,0.2,0,0.3,0,0.6c0,0.3-0.1,0.6,0,0.8c0,0.2-0.1,2.5,0,3c0.1,0.5,0.1,0.6,0.1,0.6s-0.3,0.1-0.3,0.2c0,0.1,0,2.2,0,3
			c0.1,0.9,0,3.8-0.1,4.1c0.1,0.3,0.1,0.2,0.1,0.6c0,0.4,0.1,3.9,0.1,4.3c0.2,0.4,0.4,2.6,0.7,3.3c0.1,0.1,0.2,0.2,0.3,0.3h11.9
			c0.1-0.1,0.1-0.3,0.2-0.5C68.5,54,68.5,53.8,68.8,52.9z M19.9,55h0.6c0,0,0,0,0,0L19.9,55L19.9,55z M22.9,55h1.4c0,0,0,0,0,0
			L22.9,55C22.9,55,22.9,55,22.9,55z M25.6,15C25.6,15,25.6,15,25.6,15l-2.2,0c0,0,0,0,0,0H25.6z M30.8,55h1.9c0,0,0,0,0,0L30.8,55
			C30.8,55,30.8,55,30.8,55z M34.3,55h1.8c0,0,0,0,0,0L34.3,55C34.3,55,34.3,55,34.3,55z M36.8,55h3c0,0,0,0,0,0L36.8,55L36.8,55z
			 M42.3,55h2.8c0,0,0,0,0,0L42.3,55C42.3,55,42.3,55,42.3,55z M44.1,15C44.1,15,44.1,15,44.1,15l-3.4,0c0,0,0,0,0,0H44.1z M48.6,55
			h1.6c0,0,0,0,0,0L48.6,55C48.6,55,48.6,55,48.6,55z M53.4,55h2.9c0,0,0,0,0,0L53.4,55C53.4,55,53.4,55,53.4,55z M69.7,55h0.4
			c0,0,0,0,0,0L69.7,55L69.7,55z M73.3,55h0.4l0,0L73.3,55C73.3,55,73.3,55,73.3,55z M69.9,15C69.9,15,69.9,15,69.9,15l-3,0
			c0,0,0,0,0,0H69.9z M68.1,55h1.1c0,0,0,0,0,0L68.1,55C68.1,55,68.1,55,68.1,55z M74,55h1.2c0,0,0,0,0,0L74,55C74,55,74,55,74,55z
			 M113.9,33.8c-0.1,0-0.2,0-0.2-0.1C113.7,33.8,113.8,33.8,113.9,33.8c1.2-0.3,3.4-1.4,3.4-4.5c0-1.6-0.6-2.9-1.6-3.8
			c-1.5-1.4-3.5-1.4-5-1.4h-8.4V45h6c3.2,0,4,0,4.9-0.1c3.7-0.6,4.7-3.5,4.7-5.8C118,36.3,116.4,34.4,113.9,33.8z M104.2,25.9h6
			c1.4,0,2.8,0,3.9,0.8c0.7,0.5,1.2,1.4,1.2,2.6c0,1.2-0.5,2.2-1.2,2.7c-1.1,0.9-2.7,0.9-4.2,0.9h-5.7V25.9z M111.9,43.2
			c-0.5,0-1.1,0-2.5,0h-5.1v-8.5h5.6c1.1,0,2.1,0,3,0.3c0.4,0.1,3.2,0.9,3.2,4.2C116.1,41.7,114.5,43.1,111.9,43.2z M124.5,24.1h-2
			V45h13.2v-1.8h-11.2V24.1z M152,37.1c0,0.8,0,2-0.2,2.7c-0.4,1.8-1.2,2.8-2.8,3.5c-0.9,0.4-1.9,0.4-2.6,0.4c-2.5,0-4.1-1-4.7-2
			c-1-1.3-1-2.9-1-5.2V24.2h-1.9v9.7c0,4.6,0,5.7,0.5,7.2c1,3,3.8,4.5,7.2,4.5c2.1,0,4.3-0.6,5.8-2.2c1.7-1.9,1.7-3.9,1.7-9.7v-9.5
			H152V37.1z M161,35.2h10.3v-1.8H161V26h11.3v-1.8H159V45h14v-1.8H161V35.2z M185.6,25.3c4.3,0,5.4,3.7,5.6,4.6l1.8-1
			c-0.7-1.7-2.3-5.3-7.5-5.3c-5.9,0-9.1,4.7-9.1,11.1c0,6.1,3,10.8,8.6,10.8c1.3,0,2.4-0.3,3.4-0.8c1.9-1,2.5-2.6,2.8-3.3V45h1.7
			V34.1h-9.1v1.8h7.5c0.1,3.3-1.2,7.9-6,7.9c-4.4,0-6.7-3.8-6.7-9.2C178.4,28.8,181.4,25.3,185.6,25.3z M205,24.2L196.7,45h2.2
			l2.3-6.3h9.1l2.3,6.3h2.1l-8.1-20.9H205z M201.8,37.1l4-10.6l3.9,10.6H201.8z M232,34.1c0.6-0.6,1.5-1.8,1.5-4
			c0-1-0.2-4.3-3.6-5.5c-1.3-0.4-2.2-0.4-5.7-0.5h-5.7V45h1.9v-9.3h4.8l6.4,9.3h2.4l-6.6-9.3C228.6,35.7,230.5,35.6,232,34.1z
			 M220.5,34.1v-8.2h4.8c2.6,0,2.8,0,3.4,0.1c2,0.4,3,2,3,4c0,1.7-0.8,3.4-2.9,3.8c-0.9,0.2-2.1,0.2-3.4,0.2H220.5z M249,24.8
			c-1.5-0.6-3.3-0.6-5.5-0.6h-5.4V45h5.3c3.4,0,5.3,0,7.1-1.5c2.2-1.8,3.6-5.1,3.6-9C254.1,29.7,251.9,26,249,24.8z M248.5,42.6
			c-1.4,0.7-3.7,0.6-5.4,0.6h-3V26h3.5c2.5,0,3.6,0,4.7,0.5c2.5,1.1,3.9,4.6,3.9,8.1C252.2,38.8,250.4,41.7,248.5,42.6z M260.8,35.2
			h10.3v-1.8h-10.3V26h11.3v-1.8h-13.3V45h14v-1.8h-12.1V35.2z M291.1,24.2l0.2,17.9l-12.1-17.9h-1.9V45h1.9V27l11.9,18l1.9,0V24.2
			H291.1z"/>
	</g>
</g>
</svg>
