<?xml version="1.0" encoding="UTF-8" standalone="no"?>
<svg width="249px" height="58px" viewBox="0 0 249 58" version="1.1" xmlns="http://www.w3.org/2000/svg" xmlns:xlink="http://www.w3.org/1999/xlink">
    <!-- Generator: Sketch 41.2 (35397) - http://www.bohemiancoding.com/sketch -->
    <title>danlon_logo</title>
    <desc>Created with Sketch.</desc>
    <defs>
        <polygon id="path-1" points="42.8651316 42.690625 42.8651316 0.58496537 0.102631579 0.58496537 0.102631579 42.690625 42.8651316 42.690625"></polygon>
    </defs>
    <g id="Frontpage" stroke="none" stroke-width="1" fill="none" fill-rule="evenodd">
        <g id="Danløn-frontpage" transform="translate(-184.000000, -55.000000)">
            <g id="danlon_logo" transform="translate(184.000000, 55.000000)">
                <path d="M187.418421,44.3259868 C182.928289,48.8144737 175.622368,48.8144737 171.135526,44.3259868 C168.959539,42.1516447 167.763816,39.2601974 167.763816,36.1845395 C167.763816,33.1088816 168.959539,30.2174342 171.135526,28.0430921 L171.135526,28.0447368 C175.624013,23.55625 182.926645,23.55625 187.413487,28.0398026 L187.421711,28.0480263 C189.594408,30.2223684 190.790132,33.1105263 190.790132,36.1845395 C190.790132,39.2601974 189.592763,42.1516447 187.418421,44.3259868 M201.374013,18.7421053 L200.632237,18.0003289 C197.829605,15.1976974 193.286842,15.1976974 190.484211,18.0003289 C182.245724,12.9246711 171.290132,13.9328947 164.156908,21.0644737 L164.156908,21.0661184 C160.117434,25.1039474 157.895395,30.4740132 157.895395,36.1845395 C157.895395,41.8967105 160.117434,47.2667763 164.156908,51.3046053 C168.326316,55.4723684 173.801645,57.55625 179.276974,57.55625 C184.752303,57.55625 190.227632,55.4723684 194.395395,51.3046053 C198.434868,47.2667763 200.658553,41.8967105 200.658553,36.1845395 C200.658553,32.1582237 199.531908,28.3144737 197.464474,24.9740132 L201.374013,21.0644737 C202.015461,20.4230263 202.015461,19.3819079 201.374013,18.7421053" id="Fill-1" fill="#E9514E"></path>
                <g id="Group-5" transform="translate(141.447368, 0.060362)" fill="#303F49">
                    <path d="M14.9893092,50.1065789 L12.8363487,47.9536184 C10.984375,46.1032895 9.94654605,42.7710526 9.94654605,40.1526316 L9.94654605,1.68881579 C9.94654605,0.678947368 9.03700658,-0.140131579 8.04358553,0.0539473684 C3.50411184,0.938815789 0.078125,4.93881579 0.078125,9.73980263 L0.078125,40.3927632 C0.078125,45.4717105 2.09457237,51.1657895 5.68667763,54.7578947 L8.01233553,57.0835526 C8.65378289,57.7266447 9.69490132,57.7266447 10.3379934,57.0835526 L14.9893092,52.4322368 C15.6324013,51.7891447 15.6324013,50.7480263 14.9893092,50.1065789" id="Fill-3"></path>
                </g>
                <path d="M67.8457237,47.6980263 C61.4986842,47.6980263 56.3325658,42.5335526 56.3325658,36.1848684 C56.3325658,29.8361842 61.4986842,24.6717105 67.8457237,24.6717105 C74.1927632,24.6717105 79.3588816,29.8361842 79.3588816,36.1848684 C79.3588816,42.5335526 74.1927632,47.6980263 67.8457237,47.6980263 M82.0973684,56.6947368 L87.5266447,56.6947368 C88.4345395,56.6947368 89.1713816,55.9578947 89.1713816,55.05 L89.1713816,35.0631579 C88.5628289,23.4233553 78.6319079,14.2111842 66.7059211,14.8328947 C55.8375,15.4003289 46.9246711,24.4233553 46.4822368,35.2950658 C45.9855263,47.4891447 55.7601974,57.5664474 67.8457237,57.5664474 C72.0858553,57.5664474 76.0315789,56.3098684 79.3588816,54.1733553 C79.3424342,55.6963816 80.5726974,56.6947368 82.0973684,56.6947368" id="Fill-6" fill="#303F49"></path>
                <path d="M184.210855,36.1848684 C184.210855,38.9101974 182.001974,41.1190789 179.276645,41.1190789 C176.551316,41.1190789 174.342434,38.9101974 174.342434,36.1848684 C174.342434,33.4595395 176.551316,31.2506579 179.276645,31.2506579 C182.001974,31.2506579 184.210855,33.4595395 184.210855,36.1848684" id="Fill-8" fill="#E9514E"></path>
                <path d="M114.054112,14.8299342 C109.728454,15.04375 105.784375,16.5832237 102.542599,19.0338816 C101.134704,16.5207237 98.4800987,14.8036184 95.3962171,14.8036184 C94.4883224,14.8036184 93.7498355,15.5404605 93.7498355,16.45 L93.7498355,36.8052632 L93.7498355,37.5026316 L93.7498355,55.2674342 C93.7498355,56.1736842 94.4866776,56.9088816 95.3912829,56.9088816 L101.976809,56.9088816 C102.883059,56.9088816 103.618257,56.1736842 103.618257,55.2674342 L103.618257,37.5026316 L103.618257,36.1851974 C103.618257,29.3365132 109.62977,23.8677632 116.649507,24.7690789 C122.450493,25.5157895 126.644572,30.7361842 126.644572,36.5865132 L126.644572,55.2674342 C126.644572,56.1736842 127.381414,56.9088816 128.28602,56.9088816 L134.871546,56.9088816 C135.777796,56.9088816 136.512993,56.1736842 136.512993,55.2674342 L136.512993,36.1851974 C136.512993,24.0371711 126.330428,14.2230263 114.054112,14.8299342" id="Fill-10" fill="#303F49"></path>
                <g id="Group-14" transform="translate(205.592105, 14.218257)">
                    <mask id="mask-2" fill="white">
                        <use xlink:href="#path-1"></use>
                    </mask>
                    <g id="Clip-13"></g>
                    <path d="M20.4069079,0.611677632 C16.08125,0.825493421 12.1371711,2.36496711 8.89539474,4.815625 C7.48914474,2.30246711 4.83289474,0.585361842 1.74901316,0.585361842 C0.841118421,0.585361842 0.102631579,1.32220395 0.102631579,2.23174342 L0.102631579,22.5870066 L0.102631579,23.284375 L0.102631579,41.0491776 C0.102631579,41.9554276 0.839473684,42.690625 1.74407895,42.690625 L8.32960526,42.690625 C9.23585526,42.690625 9.97105263,41.9554276 9.97105263,41.0491776 L9.97105263,23.284375 L9.97105263,21.9669408 C9.97105263,15.1182566 15.9825658,9.64950658 23.0023026,10.5508224 C28.8032895,11.2975329 32.9973684,16.5179276 32.9973684,22.3682566 L32.9973684,40.8847039 C32.9973684,41.7909539 33.7342105,42.5261513 34.6388158,42.5261513 L41.2243421,42.5261513 C42.1305921,42.5261513 42.8657895,41.7909539 42.8657895,40.8847039 L42.8657895,21.9669408 C42.8657895,9.81891447 32.6832237,0.00476973684 20.4069079,0.611677632" id="Fill-12" fill="#303F49" mask="url(#mask-2)"></path>
                </g>
                <path d="M32.8934211,54.1741776 L32.8934211,54.1741776 L32.9789474,54.1741776 L32.8934211,54.1741776 Z M26.9674342,46.3649671 C16.4789474,51.4455592 6.12368421,41.0952303 11.1993421,30.6050987 C12.1631579,28.6083882 13.7996711,26.9702303 15.7963816,26.0047697 C26.2848684,20.9241776 36.6384868,31.2745066 31.5644737,41.7646382 C30.5990132,43.7613487 28.9641447,45.3995066 26.9674342,46.3649671 L26.9674342,46.3649671 Z M32.8950658,9.86990132 L32.8950658,18.1955592 C27.0661184,14.4521382 19.3391447,13.4126645 11.4559211,17.0919408 C7.3375,19.0146382 3.99210526,22.3912829 2.13355263,26.5393092 C-4.90263158,42.253125 6.48552632,57.5672697 21.3819079,57.5672697 C25.5924342,57.5672697 29.5118421,56.3254934 32.8243421,54.2152961 L32.8950658,54.2547697 C32.8786184,55.7794408 34.1105263,56.7761513 35.6335526,56.7761513 L42.7634868,56.7761513 L42.7634868,54.2777961 L42.7634868,54.1741776 L42.7634868,1.64621711 C42.7634868,0.736677632 42.0282895,-0.000164473688 41.11875,-0.000164473688 C36.5759868,-0.000164473688 32.8950658,5.32713816 32.8950658,9.86990132 L32.8950658,9.86990132 Z" id="Fill-15" fill="#303F49"></path>
            </g>
        </g>
    </g>
</svg>