<?xml version="1.0" encoding="UTF-8"?><svg xmlns="http://www.w3.org/2000/svg" data-name="ARTWORK" viewBox="0 0 1000 1000"><path d="M784.007 26.849c-94.472 25.953-189.446 50.017-284.014 75.619-96.57 26.145-193.143 52.282-289.708 78.447-23.325 6.32-46.65 12.638-69.946 19.062-21.953 6.053-44.262 11.403-65.922 18.444-22.199 7.216-43.088 18.847-52.07 41.599-4.509 11.42-5.506 23.894-5.668 36.072-.177 13.385-.01 26.781.002 40.167.096 109.498-.252 218.998-.405 328.496-.077 55.146-.006 110.292-.18 165.439-.042 13.163-.939 26.646 1.183 39.692s9.265 23.305 20.114 30.593c9.952 6.686 21.939 10.948 32.938 15.568 11.644 4.891 23.519 9.358 35.89 12.035 26.62 5.76 52.825 1.836 78.469-6.411s51.035-18.13 76.464-27.314l153.903-55.584 311.344-112.445 77.836-28.111c24.406-8.815 49.198-16.944 73.234-26.734 21.988-8.955 42.254-20.574 56.064-40.464 13.022-18.756 17.696-41.767 20.28-64.037 2.926-25.227 3.725-50.778 5.272-76.117l5.049-82.67c3.366-55.111 6.685-110.225 10.009-165.339 1.662-27.556 3.34-55.111 4.967-82.67l2.441-41.335c.767-12.996 2.415-26.299 1.776-39.322-.98-19.991-11.177-36.789-28.522-46.755-15.97-9.177-34.566-12.278-52.572-14.585-18.415-2.359-36.977-3.343-55.413-5.531-6.629-.787-12.341 6.235-12.341 12.341 0 7.324 5.692 11.552 12.341 12.341 18.425 2.187 36.995 2.863 55.413 5.139 2.473.306 6.249.848 10.477 1.609 4.525.815 9.025 1.783 13.46 3.001 3.803 1.045 7.57 2.261 11.221 3.759-2.012-.826-.279-.114.101.072.955.467 1.922.904 2.868 1.391a60 60 0 0 1 5.373 3.116c.566.371 1.112.771 1.677 1.143 2.708 1.783-1.638-1.593.74.574 1.226 1.117 2.461 2.187 3.604 3.394.68.718 1.319 1.467 1.959 2.22-.307-.361-1.276-1.915-.077-.061 1.099 1.698 2.187 3.373 3.091 5.187.18.362 1.317 3.439.459.953.295.854.613 1.698.875 2.564.728 2.414 1.186 4.799 1.35 7.306.425 6.491-.16 13.001-.589 19.477-1.739 26.304-3.497 52.606-5.212 78.912-6.98 107.09-13.873 214.186-20.738 321.284-1.496 23.33-2.231 49.421-5.084 71.157-2.655 20.23-8.066 40.347-21.304 54.5-13.951 14.914-33.698 22.278-52.792 29.216-24.632 8.949-49.282 17.848-73.925 26.766L477.325 789.471l-152.106 55.046-76.053 27.523c-24.203 8.759-48.276 18.224-72.823 25.981-23.301 7.363-46.188 10.695-70.121 4.308-11.475-3.062-22.551-7.457-33.411-12.227-9.056-3.978-20.695-7.922-26.806-14.699-2.202-2.442-3.645-6.384-4.392-10.621-.788-4.472-.619-10.572-.618-15.776l.004-41.386c.004-26.337.146-52.673.239-79.01.376-107.006.41-214.014.613-321.02.051-26.906.117-53.811.229-80.716.053-12.646-.285-25.368.41-38 .298-5.411.698-9.258 2.158-14.626.604-2.219 1.188-4.024 1.972-5.688.558-1.184 1.205-2.327 1.88-3.448.264-.438 2.584-3.804 1.542-2.461 5.499-7.088 12.302-11.095 21.418-15.101-2.088.917 2.141-.847 2.017-.799 1.095-.422 2.196-.826 3.301-1.22a180 180 0 0 1 6.692-2.228c5.289-1.654 10.638-3.1 15.98-4.57q33.007-9.08 66.016-18.154c93.448-25.687 186.697-52.126 280.043-78.183s186.307-52.564 279.284-79.48c21.344-6.179 42.829-11.898 64.247-17.816 11.726-3.24 6.751-21.49-5.032-18.253Z"/><path d="M601.786 760.522c-6.282 23.52-12.62 47.688-10.071 71.899s15.984 48.844 38.697 57.607c2.62 1.011 5.42 1.856 7.455 3.792 2.143 2.038 3.138 5.058 3.284 8.012.668 13.576-13.725 22.342-26.091 27.984l-72.792 33.21c-12.234 5.581-25.055 11.283-38.488 10.668-21.72-.995-39.389-18.321-50.196-37.188-21.321-37.222-23.662-84.694-6.106-123.833"/><path d="M593.152 758.142c-7.668 22.527-14.23 46.412-12.856 70.431 1.159 20.268 8.207 40.1 21.888 55.33 3.721 4.142 8.067 7.759 12.682 10.865 4.952 3.332 10.426 5.307 15.898 7.597l-2.732-1.153c1.105.481 2.158 1.026 3.14 1.728l-2.317-1.79a10.6 10.6 0 0 1 1.926 1.92l-1.792-2.319c.526.739.944 1.506 1.297 2.341l-1.156-2.739c.421 1.095.694 2.213.852 3.375l-.41-3.051c.164 1.496.14 2.987-.054 4.479l.411-3.055a19 19 0 0 1-1.291 4.609l1.16-2.749c-.739 1.679-1.684 3.234-2.789 4.696l1.806-2.337c-1.813 2.339-3.967 4.36-6.295 6.18l2.35-1.816c-4.347 3.345-9.196 5.976-14.162 8.278-6.538 3.032-13.17 5.862-19.728 8.851l-41.15 18.76c-7.458 3.4-14.875 6.921-22.426 10.111l2.842-1.199c-6.763 2.837-13.726 5.281-21.015 6.313l3.164-.425c-4.104.546-8.231.615-12.341.083l3.165.425c-4.023-.555-7.927-1.653-11.676-3.212l2.845 1.201c-4.57-1.94-8.815-4.518-12.75-7.538l2.411 1.863c-5.442-4.226-10.217-9.226-14.425-14.671l1.864 2.412c-5.963-7.781-10.691-16.424-14.502-25.442l1.206 2.857c-4.713-11.249-7.883-23.091-9.514-35.175l.43 3.201a142.7 142.7 0 0 1-.017-37.282l-.433 3.224a148 148 0 0 1 3.878-19.095 132 132 0 0 1 2.871-9.205c.543-1.541 1.229-3.057 1.692-4.622.715-2.417 1.162-4.846 1.485-7.347l-1.539 5.69.168-.375a8.4 8.4 0 0 0 1.338-4.192 8.55 8.55 0 0 0-.201-4.496c-.72-2.615-2.742-5.449-5.181-6.738-2.616-1.382-5.786-2.075-8.687-1.136-2.618.847-5.566 2.558-6.738 5.181l-.168.375 1.763-2.282c-5.093 5.965-7.542 13.911-9.758 21.327a128 128 0 0 0-3.972 18.025c-1.936 13.193-2.513 26.414-.996 39.685s4.344 26.169 9.264 38.557c2.605 6.561 5.518 12.997 9.003 19.14 3.288 5.796 7.126 11.204 11.321 16.38 3.607 4.449 7.633 8.578 12.112 12.153 2.938 2.346 5.931 4.633 9.156 6.575 3.113 1.874 6.389 3.334 9.744 4.718 13.366 5.513 28.288 4.793 41.862.381 7.423-2.413 14.557-5.69 21.649-8.928l20.343-9.288c13.56-6.191 27.145-12.33 40.663-18.613 11.418-5.308 23.512-10.176 32.572-19.26 4.541-4.554 8.593-10.628 9.694-17.078.759-4.448.953-8.706-.254-13.129-1.49-5.459-4.899-9.984-9.666-12.998-3.149-1.991-6.879-2.949-10.295-4.386l2.728 1.151a52.4 52.4 0 0 1-11.301-6.662l2.303 1.779c-3.935-3.071-7.426-6.645-10.49-10.582l1.772 2.294c-3.842-4.993-6.958-10.488-9.413-16.285l1.136 2.693c-2.916-6.973-4.876-14.337-5.891-21.825l.398 2.962c-1.609-12.269-.768-24.708.847-36.931l-.377 2.805c1.667-12.386 4.524-24.576 6.93-36.83.469-2.387.358-4.745-.903-6.9-1.087-1.857-3.217-3.629-5.351-4.115-4.967-1.131-9.397 1.502-11.015 6.254ZM142.461 912.567c2.39-98.285 3.097-196.586 3.43-294.896.167-49.306.141-98.621.67-147.925.261-24.274.592-48.547 1.02-72.818.326-18.453-.144-37.092.943-55.518.458-7.768 1.01-13.868 3.801-21.727-.061.171 1.126-2.761.56-1.492-.555 1.245.763-1.467.694-1.336.299-.563 2.618-4.001 1.341-2.414.536-.666 1.131-1.264 1.721-1.88.151-.158 2.255-1.801.729-.687 1.68-1.227 3.523-2.249 5.372-3.195 7.732-3.954 16.949-6.427 25.715-8.884 10.268-2.878 20.54-5.729 30.785-8.687 47.364-13.678 94.658-27.598 141.907-41.665 94.57-28.155 188.963-56.899 283.404-85.482 94.134-28.49 188.267-57.041 282.819-84.119 11.644-3.335 23.273-6.692 34.868-10.193 12.654-3.82 7.367-23.386-5.476-19.863-48.336 13.259-96.294 28.072-144.331 42.378-47.547 14.161-95.048 28.477-142.53 42.854-95.522 28.922-190.969 58.092-286.576 86.735-47.503 14.231-95.045 28.332-142.653 42.206-22.028 6.419-44.255 12.289-66.192 18.999-8.981 2.747-18.555 5.78-26.424 11.046-7.238 4.845-11.669 11.369-14.724 19.434-5.754 15.188-5.256 32.692-5.232 48.687.035 22.343-.705 44.699-1.012 67.041-.683 49.693-1.246 99.391-1.484 149.088-.473 98.962-.177 197.936-1.363 296.892q-.225 18.71-.526 37.42c-.195 12.074 18.45 12.056 18.743 0Z"/><path d="M38.214 268.137c25.295 14.165 51.339 26.769 78.08 37.959 3.664 1.533 7.333 3.056 11.033 4.499a791 791 0 0 0 5.775 2.227c2.511.958 4.833 2.005 7.603 1.903 3.257-.12 6.098-1.932 7.377-4.962 1.217-2.883.699-6.604-1.669-8.818-.734-.686-1.463-1.408-2.341-1.912-.898-.515-1.93-.861-2.894-1.235-.814-.315-1.634-.616-2.45-.925a791 791 0 0 1-5.113-1.961c-3.328-1.289-6.658-2.573-9.982-3.873a819 819 0 0 1-20.047-8.153l1.962.828c-15.819-6.686-31.483-13.74-46.929-21.249a836 836 0 0 1-13.24-6.585c-3.307-1.681-7.85-.978-9.712 2.547-1.77 3.35-.914 7.774 2.547 9.712Zm324.644 574.951c-1.762 7.302-2.867 14.806-3.325 22.302s-.022 14.912 1.011 22.369c1.932 13.944 6.651 27.604 14.066 39.592 8.071 13.047 18.987 24.079 31.877 32.384 7.56 4.871 15.85 8.536 24.237 11.724 8.55 3.249 17.36 5.759 26.224 7.988 9.154 2.303 18.362 4.366 27.724 5.624 4.868.654 9.772 1.201 14.693 1.111 3.073-.056 6.17-.53 9.201-.976 2.186-.321 4.199-.83 6.258-1.631 2.697-1.049 5.393-2.039 8.061-3.172 2.006-.851 4.032-3.803 4.499-5.85.499-2.189.384-4.296-.493-6.374-1.856-4.399-6.822-7.031-11.548-5.668a53 53 0 0 1-4.399 1.066l2.675-.359c-2.195.245-4.415.279-6.617.452-2.09.164-4.186.21-6.281.167-4.425-.092-8.792-.307-13.184-.893l2.991.402c-8-1.098-15.852-3.002-23.708-4.829-7.928-1.844-15.825-3.854-23.571-6.361a163 163 0 0 1-13.041-4.824l2.664 1.124c-7.98-3.393-15.548-7.554-22.432-12.847l2.228 1.721a91.2 91.2 0 0 1-16.164-16.15l1.701 2.202c-5.259-6.828-9.444-14.354-12.813-22.276l1.074 2.546c-3.811-9.046-6.1-18.487-7.427-28.194l.356 2.647a113.5 113.5 0 0 1 .011-29.978l-.312 2.324q.19-1.39.407-2.776c.373-2.37.388-4.499-.87-6.649-1.047-1.79-3.1-3.497-5.157-3.966-4.439-1.011-9.483 1.333-10.615 6.027ZM235.113 351.121c38.957-12.21 78.135-23.681 117.213-35.489 40.741-12.31 81.507-24.54 122.151-37.168 45.08-14.006 90.012-28.476 135.151-42.296 46.489-14.234 92.971-28.488 139.421-42.85 47.732-14.759 95.423-29.653 143.033-44.802 6.231-1.982 12.453-3.982 18.716-5.858l-12.364-9.418a3601 3601 0 0 0-1.155 12.735c-.021.239-.048.479-.064.719-.058.871.362.937.049-.118l.114-.848-.361 2.689c-.033.337-.042.676-.07 1.014-.058.696-.097 1.393-.146 2.089l-.6 8.525a56008 56008 0 0 0-2.993 42.971c-2.251 32.465-4.251 64.942-6.354 97.415-1.811 27.962-3.797 55.912-5.615 83.873-2.323 35.738-3.662 71.519-5.621 107.275-.778 14.202-1.767 28.391-3.13 42.549a940 940 0 0 1-2.605 23.796c-1.179 9.657-3.011 19.659-9.633 26.284-6.042 6.045-15.605 10.809-24.294 14.824-2.02.933-4.056 1.829-6.096 2.716-1.952.848-.503.22-.097.049q-.922.39-1.847.768c-.757.308-1.51.595-2.266.914-3.416 1.442.921-.365-1.501.629a571 571 0 0 1-14.765 5.834c-18.926 7.155-38.171 13.421-57.429 19.608-46.173 14.833-92.089 30.414-137.829 46.529-41.136 14.494-82.169 29.279-123.393 43.521-42.518 14.689-85.621 27.772-127.885 43.167-43.248 15.753-86.154 32.442-129.847 46.953-11.035 3.665-22.118 7.188-33.263 10.505l13.925 10.608c-.054-59.828-.328-119.63.247-179.458q.862-89.728 2.618-179.442c.661-33.769 1.142-67.555 1.982-101.318.138-5.54-4.811-10.253-10.253-10.253-5.671 0-10.115 4.695-10.253 10.253-1.488 59.806-2.936 119.602-3.815 179.424a18072 18072 0 0 0-1.746 179.451c-.16 33.781-.789 67.559-.782 101.342.002 7.029 7.044 12.651 13.925 10.608 45.955-13.644 90.865-30.572 135.778-47.257 17.702-6.576 35.392-13.235 53.31-19.208 23.909-7.97 47.93-15.598 71.809-23.664 42.37-14.312 84.505-29.297 126.66-44.225 44.291-15.684 88.674-31.096 133.298-45.808 21.117-6.962 42.349-13.588 63.385-20.792 20.477-7.012 41.105-14.323 60.355-24.303 9.449-4.899 19.415-10.686 26.384-18.874 8.944-10.509 11.626-23.128 13.239-36.466a927 927 0 0 0 4.411-45.777c2.25-31.749 3.05-63.588 4.639-95.373 1.643-32.852 4.032-65.644 6.392-98.448 2.239-31.119 4.635-62.228 6.697-93.359 1.854-27.987 4.082-55.984 5.481-83.994q.264-5.328.544-10.654c.323-6.091-6.538-11.419-12.364-9.418-47.604 16.346-96.022 30.577-144.114 45.408-46.614 14.376-93.289 28.55-139.813 43.216s-92.494 29.481-138.729 44.264c-39.724 12.701-79.599 24.929-119.457 37.203-39.913 12.29-79.766 24.798-119.482 37.715a3773 3773 0 0 0-13.091 4.284c-9.583 3.155-5.553 18.265 4.193 15.211ZM37.064 274.117l76.775 34.7c3.427 1.549 7.15 3.391 8.605 6.86.74 1.766.781 3.734.811 5.649 1.521 98.992 1.574 198 1.626 297.003l.039 73.052.029 55.365.078 146.768c0 1.881-.016 3.841-.863 5.52-2.752 5.453-10.873 3.785-16.458 1.315l-55.04-24.341c-2.588-1.144-5.273-2.361-7.077-4.54-2.053-2.479-2.654-5.817-3.161-8.996-17.223-108.116-7.4-218.419-2.246-327.776a3808 3808 0 0 0 3.662-244.563"/><path d="M33.2 280.727c4.836 2.731 9.597 5.589 14.591 8.003l14.468 6.993c10.027 4.846 20.159 9.473 30.265 14.153 4.867 2.254 9.739 4.498 14.6 6.767 1.903.889 3.767 1.791 5.59 2.833.134.077 1.274.928.403.223-1.173-.95 1.108 1.091.028-.039-.749-.784.126.074.186.353-.048-.226-.767-1.332-.425-1.567-.169.116.07 2.554.069 2.88-.003 1.456-.022 2.912-.039 4.367-.034 2.912.01 5.823.033 8.735q.065 8.11.119 16.222c.292 44.508.611 89.016.728 133.525.117 44.302.1 88.604.083 132.907-.017 44.051-.024 88.101-.059 132.152l-.105 132.464-.006 8.085c0 1.244.008 2.488-.003 3.731-.004.455-.07.969-.022 1.42.134 1.261.535-1.77-.086.233.429-1.384 1.188-2.619 2.488-3.364-.069.04 2.325-.88 1.134-.469-.121.042-.988.168-1.029.25.168-.337 2.544-.315.786-.242-.81.033-.905.385-.059.078.812-.295.825.189-.082-.03-.531-.128-1.067-.231-1.595-.371-.902-.24-1.807-.711-2.717-.878-1.212-.221.824.379.894.401-.569-.181-1.136-.508-1.681-.751l-7.846-3.506-15.131-6.762c-9.901-4.425-19.805-8.84-29.702-13.274-.908-.407-1.821-.807-2.712-1.251-.55-.274-1.096-.703-1.669-.901-1.154-.397.366.096.431.476-.031-.183-1.384-1.176-.379-.186.875.861-.069.004-.183-.372.704 2.33-.202-.921-.383-1.763-1.062-4.926-1.595-10.011-2.291-15q-.17-1.212-.334-2.425c.036.266.189 1.466.013.079-.154-1.213-.316-2.426-.469-3.639q-.535-4.245-1.021-8.497a758 758 0 0 1-1.693-16.409c-.992-10.746-1.753-21.511-2.357-32.285-1.22-21.782-1.665-43.602-1.589-65.417.153-43.588 2.37-87.133 4.661-130.65 2.314-43.947 4.418-87.893 5.555-131.889 1.151-44.498 1.619-89.026 1.35-133.537-.065-10.816-.151-21.634-.334-32.448-.105-6.184-5.366-12.12-11.83-11.83-6.32.283-11.943 5.201-11.83 11.83.777 45.763 1.032 91.522.14 137.286-.889 45.589-2.685 91.145-5.097 136.677-2.382 44.963-5.069 89.926-5.874 134.954-.798 44.629.261 89.353 5.452 133.719 1.354 11.57 2.641 23.281 4.878 34.721 1.285 6.57 4.72 12.111 10.275 15.9 4.041 2.756 9.011 4.373 13.469 6.324l30.957 13.546c5.253 2.299 10.492 4.632 15.76 6.896 4.77 2.05 9.372 3.635 14.637 3.813 5.948.201 11.96-2.098 15.641-6.863 3.982-5.153 4.082-11.081 4.071-17.323l-.063-34.204-.127-68.409c-.084-45.343-.154-90.686-.22-136.029-.066-45.672-.113-91.344-.263-137.015-.149-45.545-.199-91.106-.941-136.647q-.28-17.158-.61-34.316c-.112-5.822-.151-11.652-.392-17.469-.233-5.625-.049-11.745-3.351-16.611-3.119-4.597-7.653-7.201-12.618-9.373-5.114-2.237-10.218-4.496-15.324-6.748-10.771-4.75-21.523-9.535-32.37-14.108l-15.357-6.473c-5.089-2.145-10.36-3.826-15.585-5.645-8.266-2.878-13.361 9.778-5.899 13.991Zm511.041 81.113c-20.855 2.224-40.515 10.907-55.836 25.323-4.384 4.125-8.176 8.759-11.755 13.59l1.708-2.21c-4.096 5.243-7.491 11.018-10.266 17.064s-5.207 12.288-6.555 18.839c-1.32 6.414-2.096 13.094-1.635 19.647.259 3.679.756 7.389 1.613 10.98s2.23 6.996 3.725 10.374c2.441 5.513 6.132 10.615 10.312 14.937 3.807 3.936 8.346 7.371 13.155 9.993 10.045 5.476 21.322 7.983 32.691 8.48 10.572.463 21.394-.951 31.611-3.648 10.465-2.762 20.765-7.072 29.786-13.078 10.839-7.217 19.964-16.265 27.41-26.933a84 84 0 0 0 8.119-14.46c2.595-5.942 4.83-11.961 6.139-18.325 1.377-6.695 2.142-13.635 1.882-20.476-.281-7.381-1.446-14.991-4.163-21.894-2.915-7.407-6.786-14.153-12.462-19.825-5.361-5.358-11.772-9.286-18.888-11.828-3.506-1.252-7.218-1.797-10.914-2.128-2.949-.264-6.605 1.551-8.628 3.574-2.116 2.116-3.71 5.588-3.574 8.628.141 3.156 1.178 6.429 3.574 8.628l2.469 1.908a12.14 12.14 0 0 0 6.158 1.666q.751.066 1.498.157l-3.242-.436a33 33 0 0 1 8.281 2.287l-2.905-1.226c2.774 1.202 5.361 2.748 7.765 4.579l-2.457-1.898a41.2 41.2 0 0 1 7.221 7.227l-1.895-2.453c2.229 2.917 4.036 6.1 5.484 9.472l-1.22-2.89c1.831 4.37 3.016 8.953 3.678 13.64l-.431-3.208c.824 6.156.762 12.393-.049 18.546l.43-3.198c-.922 6.732-2.754 13.292-5.376 19.557l1.209-2.864c-2.837 6.696-6.54 12.98-10.963 18.75l1.868-2.418a90 90 0 0 1-16.091 16.109l2.404-1.857a85.4 85.4 0 0 1-18.611 10.88l2.818-1.189c-8.247 3.473-16.959 5.819-25.825 7.014l3.108-.418c-7.378.97-14.852 1.121-22.237.141l3.092.415c-5.28-.725-10.465-2.03-15.389-4.083l2.772 1.17c-3.784-1.604-7.358-3.637-10.624-6.136l2.345 1.812a44.8 44.8 0 0 1-7.983-8l1.81 2.342a44.6 44.6 0 0 1-5.502-9.403l1.165 2.761c-1.595-3.797-2.642-7.774-3.198-11.853l.412 3.068c-.642-4.996-.547-10.035.108-15.024l-.412 3.063c1.012-7.382 3.155-14.651 6.032-21.516l-1.136 2.691a102.4 102.4 0 0 1 12.902-22.186l-1.644 2.128a84.4 84.4 0 0 1 14.954-14.965l-1.94 1.499a86.4 86.4 0 0 1 18.94-11.085l-2.06.869a79 79 0 0 1 17.336-5.021c1.781-.303 3.944-2.106 4.769-3.667.852-1.612 1.191-3.273.947-5.088-.481-3.578-3.885-7.341-7.837-6.919Z"/><path d="M505.898 485.563q.054-.609.133-1.215l-.297 2.209a24 24 0 0 1 1.506-5.432l-.841 1.992c1.121-2.653 2.633-5.085 4.382-7.367l-1.311 1.696c3.065-3.918 6.718-7.356 10.635-10.411l-1.711 1.322c4.759-3.672 9.966-6.767 15.496-9.128l-2.046.864a79.3 79.3 0 0 1 20.177-5.483l-2.36.317a78 78 0 0 1 20.189-.004l-2.453-.33a76.7 76.7 0 0 1 19.421 5.289l-2.274-.96c1.052.449 2.094.919 3.123 1.419 1.117.542 2.235 1.144 3.416 1.526 1.214.393 2.551.449 3.829.541 1.462.105 3.341-.511 4.59-1.241 1.71-1.001 2.959-2.545 3.721-4.348.653-1.547.844-3.049.621-4.712-.286-2.126-1.147-3.545-2.501-5.221-1.714-2.122-4.092-3.099-6.519-4.129-2.366-1.004-4.73-1.985-7.169-2.798-3.597-1.198-7.296-2.053-11.042-2.627-8.269-1.268-16.491-1.565-24.798-.479-4.447.581-8.835 1.334-13.158 2.548-4.264 1.198-8.379 2.801-12.427 4.591-7.501 3.316-14.397 7.769-20.579 13.16-3.89 3.392-7.366 7.232-10.314 11.474a34.2 34.2 0 0 0-6.046 16.938c-.16 2.022 1.041 4.481 2.432 5.872 1.44 1.44 3.804 2.525 5.872 2.432 2.148-.096 4.375-.802 5.872-2.432 1.564-1.704 2.227-3.568 2.432-5.872Zm50.974-80.346-.489-.677a14.14 14.14 0 0 0-5.043-5.043 14 14 0 0 0-7.095-1.919l-3.737.502a14.05 14.05 0 0 0-6.203 3.615 10.53 10.53 0 0 0-2.907 4.524q-1.32 2.513-1.211 5.416a14 14 0 0 0 1.919 7.095 14.14 14.14 0 0 0 5.043 5.043l.677.489 3.325 1.403q2.776.87 5.551.249a6.94 6.94 0 0 0 3.513-.95q2.589-.842 4.48-2.878l2.177-2.817 1.403-3.325q.87-2.775.249-5.551-.126-2.78-1.652-5.176M395.141 614.283c-1.094 2.484-1.681 4.33-1.863 7.074-.129 1.951.193 4.044.813 5.895 1.347 4.021 3.702 7.389 7.05 9.976 6.833 5.279 15.493 5.431 23.647 4.042 12.6-2.147 23.58-9.733 32.767-18.256 4.876-4.524 9.353-9.454 13.764-14.425l-16.728-4.416c.692 2.049 1.229 4.141 1.799 6.227s1.332 4.116 2.039 6.16c1.214 3.507 3.607 6.278 7.294 7.294q2.776.745 5.552 0a10.4 10.4 0 0 0 4.608-2.686l.361-.279-2.114 1.633c7.336-5.607 15.485-9.978 23.976-13.564l-2.5 1.055c10.427-4.366 21.279-7.569 32.123-10.711 11.835-3.429 23.645-6.928 35.378-10.696 12.029-3.862 24.016-7.881 35.84-12.333q8.879-3.343 17.696-6.846c8.817-3.503 11.84-4.356 17.735-6.587 13.941-5.277 27.751-10.879 41.469-16.707 2.321-.986 4.355-4.185 4.989-6.488.716-2.599.393-6.059-1.094-8.365-1.494-2.318-3.72-4.359-6.488-4.989-2.994-.682-5.591-.203-8.365 1.094a1058 1058 0 0 1-36.412 16.199l2.422-1.022a1052 1052 0 0 1-17.079 7.036c-5.527 2.219-11.238 4.055-16.87 5.988-11.456 3.932-22.928 7.832-34.465 11.52a1065 1065 0 0 1-34.597 10.406c-10.437 2.951-20.898 5.851-31.072 9.636-6.37 2.37-12.679 5.017-18.712 8.156s-11.605 6.919-16.992 11.095l17.454 4.608c-1.488-4.278-3.2-8.437-4.964-12.607l1.014 2.402c-.27-.641-.493-1.297-.726-1.951-1.196-3.36-3.434-6.011-6.99-6.99-3.24-.892-7.462-.075-9.738 2.574-6.428 7.483-13.03 14.921-20.845 20.999l1.977-1.527c-4.022 3.092-8.283 5.846-12.951 7.86l2.268-.957c-3.426 1.442-6.994 2.473-10.679 2.984l2.462-.331c-2.181.272-4.354.335-6.54.068l2.426.326c-1.569-.228-3.092-.595-4.561-1.196l2.141.903a13.7 13.7 0 0 1-2.782-1.625l1.787 1.381a13.4 13.4 0 0 1-1.876-1.874l1.364 1.765a12.8 12.8 0 0 1-1.55-2.584l.867 2.054c-.33-.811-.56-1.622-.697-2.488l.304 2.26a10 10 0 0 1-.02-2.184l-.301 2.238c.092-.618.237-1.2.446-1.788.665-1.873.224-4.782-.842-6.435-1-1.551-2.286-2.696-3.993-3.417-3.465-1.462-8.75-.392-10.428 3.417Z"/></svg>