<?xml version="1.0" encoding="UTF-8"?><svg xmlns="http://www.w3.org/2000/svg" data-name="ARTWORK" viewBox="0 0 1000 1000"><path d="M550.781 315.911c-32.65-2.707-65.668-2.553-98.328-.184-34.642 2.512-69.238 6.768-103.252 13.888-27.902 5.841-55.884 13.435-81.826 25.406-13.49 6.225-26.453 14.126-37.22 24.451-11.954 11.463-18.517 25.394-23.871 40.841-22.796 65.767-13.404 137.545 13.571 200.483 13.607 31.749 31.931 61.114 53.571 87.992 10.282 12.771 21.389 24.882 33.262 36.19 13.602 12.954 28.399 24.178 43.394 35.443q.934.7 1.861 1.41c-2.238-1.722.797.659 1.018.838 1.5 1.218 2.976 2.467 4.412 3.76a77 77 0 0 1 4.911 4.808 59 59 0 0 1 2.963 3.427q-1.338-1.737-.02.063c1.005 1.598 2.049 3.128 2.928 4.806.189.361 1.6 3.746.57 1.021.322.851.626 1.706.903 2.572 1.665 5.217 2.383 10.667 3.577 15.996 4.14 18.468 16.468 32.41 32.78 41.473s34.965 13.892 52.955 18.554c20.288 5.257 40.838 9.513 61.565 12.63 21.631 3.252 43.412 5.469 65.278 6.222 21.219.731 42.364-.177 63.534-1.622 21.664-1.478 43.353-3.622 64.7-7.688 18.837-3.588 38.351-8.406 55.567-17.081 7.918-3.99 15.569-9.368 21.153-16.316 6.144-7.647 9.516-16.672 11.271-26.255 1.502-8.2 2.169-16.601 4.78-24.562.339-1.034.729-2.044 1.117-3.06-1.137 2.974.07-.072.316-.581a59 59 0 0 1 2.302-4.298 63 63 0 0 1 2.615-4.064c.316-.452 2.304-3.033.314-.525q1.049-1.324 2.153-2.603c2.227-2.575 4.626-4.997 7.138-7.293a112 112 0 0 1 3.707-3.236c.761-.636 1.537-1.252 2.304-1.88q1.663-1.306-.204.144a171 171 0 0 1 1.599-1.203c5.967-4.436 12.212-8.48 18.459-12.507 13.027-8.396 26.048-16.894 37.047-27.914 28.085-28.136 51.956-60.977 68.557-97.164 17.142-37.366 27.02-77.203 31.055-118.055 1.918-19.415 2.266-38.865 1.731-58.356-.482-17.593-.235-35.948-5.938-52.821-12.636-37.386-50.93-51.382-84.896-63.644-9.132-3.296-18.711-5.345-28.212-7.252-12.853-2.58-25.803-4.675-38.769-6.592-28.156-4.163-56.422-7.528-84.773-10.031a255 255 0 0 0-15.212-.891 684 684 0 0 0-6.717-.161c-.905-.017-1.822-.065-2.727-.044l-.519-.007q-5.53.795-1.012.066c-.247.13-1.161-.071-1.451-.088-5.873-.348-11.487 5.412-11.226 11.226.286 6.38 4.935 10.854 11.226 11.226.477.028.978.021 1.451.088-4.478-.639-.391.017 1.272.226.995.125 1.992.24 2.987.364q1.468.184 2.935.373c.969.125 5.537.826 1.27.162 6.147.957 12.33 1.596 18.515 2.232 12.731 1.308 25.437 2.82 38.145 4.333q10.15 1.207 20.284 2.539l2.918.387c-3.363-.445-.04-.005.543.075q2.422.33 4.845.668 5.282.737 10.558 1.518c12.701 1.882 25.386 3.937 37.98 6.446 9.366 1.866 18.833 3.846 27.862 7.009a551 551 0 0 1 21.812 8.168c1.1.438 2.196.887 3.292 1.335.351.144 2.215.955.269.112 1.813.785 3.619 1.586 5.41 2.422 4.273 1.995 8.472 4.159 12.523 6.577a107 107 0 0 1 4.937 3.128q1.207.815 2.388 1.665c.451.325 2.463 1.868.696.477 3.339 2.628 6.491 5.535 9.312 8.714.161.181 2.51 3.163.932 1.034a55 55 0 0 1 4.703 7.653c.335.662.646 1.334.966 2.003 1.558 3.255-.746-2.319.434 1.091.73 2.108 1.453 4.205 2.038 6.361.983 3.628 1.675 7.319 2.239 11.033-.446-2.939.08.807.12 1.169q.153 1.421.28 2.846c.204 2.287.359 4.577.482 6.869.442 8.271.539 16.564.75 24.843.488 19.167-.223 38.373-2.304 57.435a415 415 0 0 1-.865 7.293c-.318 2.504.434-2.974-.169 1.275a376 376 0 0 1-3.042 18.418 357 357 0 0 1-6.475 27.885c-10.152 36.867-25.89 69.709-48.989 101.157-4.866 6.624-10.242 13.291-16.57 20.5-6.048 6.892-12.314 13.682-18.977 19.987-2.461 2.329-5.092 4.419-7.689 6.588-1.527 1.276 2.425-1.767-.164.11-.8.58-1.588 1.177-2.39 1.756a222 222 0 0 1-4.902 3.434c-5.866 4-11.882 7.774-17.833 11.645-12.704 8.266-25.795 17.116-35.45 28.969-5.397 6.625-9.57 13.469-12.734 21.411-3.093 7.764-4.05 16.057-5.399 24.243-.61 3.701-1.299 7.397-2.347 11.002-.31 1.066-.676 2.108-1.028 3.161-.767 2.289-.182.488.04.013-.948 2.026-2.028 3.97-3.323 5.795 1.551-2.186-.644.647-.895.915a43 43 0 0 1-2.354 2.317c-.545.499-1.11.971-1.668 1.455-2.709 2.345 2.059-1.279-.954.701-3.508 2.305-7.082 4.41-10.89 6.189-.265.124-3.771 1.648-1.17.563-.712.297-1.432.581-2.151.863a139 139 0 0 1-5.424 1.984c-4.238 1.458-8.536 2.733-12.848 3.951a306 306 0 0 1-28.598 6.601c-19.365 3.514-39.152 5.21-60.049 6.536-20.7 1.313-41.358 1.989-62.093 1.118-40.981-1.721-78.961-7.95-119.156-18.591-9.091-2.407-18.202-4.894-27.099-7.956a169 169 0 0 1-5.139-1.858c-.852-.325-1.693-.685-2.548-1-2.028-.745 2.773 1.271-.429-.173-3.62-1.632-7.184-3.357-10.605-5.382a74 74 0 0 1-4.9-3.16c-.574-.404-2.468-1.883-.307-.157a61 61 0 0 1-2.387-1.997 52 52 0 0 1-3.681-3.586c-.579-.625-1.104-1.302-1.685-1.922q-.892-1.089.455.627a43 43 0 0 1-1.177-1.672 42 42 0 0 1-2.594-4.447c-.267-.532-1.361-3.648-.376-.731-.291-.863-.612-1.71-.883-2.579-1.56-5.01-2.275-10.228-3.383-15.344-4.35-20.087-18.133-33.176-33.961-45.013-13.082-9.783-25.344-19.421-37.887-31.487-11.552-11.113-22.367-22.99-32.396-35.494a403 403 0 0 1-3.502-4.434c1.833 2.352-.473-.628-.694-.918a379 379 0 0 1-9.33-12.844 388 388 0 0 1-13.025-20.014c-8.665-14.274-16.262-29.119-22.939-44.419-.204-.468-.971-2.333 0 .012-.433-1.047-.869-2.093-1.295-3.144a331 331 0 0 1-6.35-16.943 311 311 0 0 1-7.119-23.709 291 291 0 0 1-5.031-23.515 281 281 0 0 1-.966-6.055c-.109-.735-.21-1.47-.318-2.205.473 3.244-.054-.454-.113-.934a268 268 0 0 1-1.22-12.165c-1.221-15.85-.99-31.815.854-47.608q.193-1.656.411-3.308c-.377 2.849-.031.323.075-.391q.45-3.03.981-6.048a227 227 0 0 1 2.458-12.047 223 223 0 0 1 11.048-34.538c-1.246 3.013.699-1.387 1.004-1.981a59 59 0 0 1 2.639-4.61c.794-1.255 1.657-2.454 2.507-3.669 1.766-2.525-1.859 2.135.168-.201.492-.566.961-1.152 1.455-1.717a81 81 0 0 1 7.424-7.436c1.166-1.031 2.372-2.009 3.57-3.001 2.372-1.964-1.65 1.076-.011.005.659-.43 1.275-.946 1.915-1.404a131 131 0 0 1 8.875-5.806c6.22-3.732 12.719-6.987 19.355-9.909.084-.037 3.086-1.354 1.212-.537s1.14-.469 1.226-.505q2.302-.942 4.622-1.837a288 288 0 0 1 10.643-3.862c6.385-2.181 12.837-4.159 19.327-6.002 28.306-8.04 57.157-13.611 86.287-17.687q1.164-.163 2.328-.323l1.167-.159q-3.074.421 2.341-.311 2.928-.426 5.858-.839c3.773-.528-1.401.179.874-.12q1.484-.197 2.967-.39 3.572-.463 7.148-.901a986 986 0 0 1 26.341-2.865c3.971-.378 7.944-.746 11.921-1.06 1.828-.144 3.615-.416 5.443-.584-1.802.166.211.04.478.026 2.353-.128 4.708-.431 7.056-.632a811 811 0 0 1 25.219-1.774c14.47-.783 28.933-1.194 43.423-.726 4.912.159 9.092-4.293 9.092-9.092 0-5.257-4.178-8.685-9.092-9.092Z"/><ellipse cx="595.865" cy="437.832" rx="281.774" ry="42.494"/><path d="M863.387 437.832c-.034 2.673 1.035-4.714.25-1.95-.421 1.483-1.451 1.449 1.079-2.41-.183.28-.273.624-.46.906-.159.239-.327.488-.469.738-1.005 1.763 2.905-3.353 1.474-1.907-.589.595-1.13 1.217-1.761 1.774-2.688 2.374 3.165-2.172.867-.637-.883.59-1.753 1.185-2.668 1.726-1.94 1.147-3.965 2.147-6.021 3.066-1.207.539-3.914 1.522 1.311-.536-.616.243-1.226.501-1.843.743q-1.963.768-3.952 1.466a167 167 0 0 1-8.939 2.848c-7.284 2.114-14.676 3.847-22.1 5.387-8.958 1.859-17.975 3.425-27.017 4.814a689 689 0 0 1-10.388 1.516c-.764.106-1.529.205-2.292.314 4.666-.67 1.66-.223.697-.096a901 901 0 0 1-16.053 1.964c-24.591 2.791-49.282 4.689-73.993 6.026-57.035 3.087-114.278 3.328-171.344.921-25.708-1.084-51.401-2.742-77.011-5.247a1004 1004 0 0 1-32.953-3.767c-2.827-.371 3.033.414 1.09.146l-1.909-.262a698 698 0 0 1-11.11-1.627 597 597 0 0 1-13.869-2.308c-14.789-2.649-29.692-5.729-43.876-10.775a116 116 0 0 1-3.917-1.469c-.696-.276-2.992-1.239-.121-.026 2.915 1.232.348.142-.371-.183-2.033-.919-4.033-1.921-5.946-3.07-.823-.495-1.609-1.037-2.406-1.57-2.131-1.425 2.753 2.284 1.627 1.276-.306-.274-.635-.524-.94-.799-.563-.509-1.042-1.087-1.581-1.614-1.358-1.327 2.34 3.527 1.474 1.907-.162-.304-.374-.613-.562-.902-1.569-2.417 1.425 4.177.712 1.668-.798-2.811.214 4.68.252 1.782.029-2.24-1.156 4.895-.252 2.118.691-2.123-.986 2.343-1.079 2.41.196-.141.361-.768.508-.989.178-.268.376-.542.537-.819.788-1.358-3.062 3.566-1.519 1.989.56-.573 1.088-1.161 1.691-1.693.311-.275.653-.52.96-.798-3.929 3.559-2.804 2.088-1.603 1.277a49 49 0 0 1 2.445-1.568c1.94-1.147 3.964-2.147 6.021-3.066 1.205-.538 3.901-1.515-1.311.536.616-.243 1.226-.501 1.843-.743 1.376-.54 2.764-1.05 4.159-1.539 6.401-2.242 12.955-4.04 19.544-5.636 8.067-1.954 16.21-3.587 24.381-5.04a596 596 0 0 1 13.924-2.3 703 703 0 0 1 11.15-1.621l1.531-.209c-4.73.659-1.375.185-.307.045 23.304-3.059 46.729-5.179 70.177-6.758 56.573-3.81 113.395-4.553 170.063-2.851 26.676.801 53.341 2.189 79.94 4.389 11.61.96 23.207 2.077 34.781 3.401a988 988 0 0 1 16.004 1.972c2.945.386-3.632-.497-.707-.094l1.526.21q1.885.261 3.769.532 3.853.554 7.701 1.151c16.311 2.533 32.657 5.528 48.514 10.173a163 163 0 0 1 8.871 2.854q1.972.7 3.917 1.469c.308.122.615.25.923.371 1.069.42 2.582 1.185-2.148-.914.627.278 1.259.544 1.883.828 2.066.94 4.099 1.967 6.038 3.151.734.448 1.435.936 2.148 1.414 2.156 1.444-2.311-1.927-1.627-1.276.354.337.757.627 1.116.96.524.485.977 1.024 1.473 1.535 1.298 1.337-2.526-3.708-1.542-1.988.158.276.343.552.516.82.167.259.25.567.413.824-2.629-4.162-1.45-3.856-1.079-2.41.721 2.812-.282-4.435-.25-1.95.096 7.451 6.486 14.599 14.251 14.251 7.639-.342 14.353-6.264 14.251-14.251-.154-11.978-9.891-20.196-19.864-25.009-12.951-6.25-26.992-9.96-40.992-12.992-20.393-4.416-41.118-7.314-61.829-9.755-24.963-2.943-50.036-4.929-75.13-6.337-58.695-3.294-117.624-3.547-176.354-.997-48.314 2.097-96.987 5.746-144.589 14.597-14.628 2.72-29.434 5.858-43.363 11.2-9.977 3.826-22.172 8.936-27.293 19.102-3.344 6.639-3.455 14.039.12 20.631 2.638 4.865 6.978 8.496 11.536 11.475 10.427 6.816 23.386 10.411 35.344 13.455 17.811 4.535 36.021 7.501 54.219 9.974 24.774 3.366 49.648 5.807 74.588 7.536 58.215 4.035 116.706 4.805 175.025 2.982 50.696-1.585 101.577-4.98 151.699-13.022 16.339-2.622 32.747-5.708 48.563-10.652 10.765-3.365 23.259-7.576 31.261-16.007 4.229-4.456 6.979-9.948 7.059-16.18.096-7.457-6.623-14.593-14.251-14.251-7.803.35-14.149 6.26-14.251 14.251Zm-294.821-99.334a103 103 0 0 1-1.248-7.143l.327 2.437c-1.282-9.554-1.047-19.126.221-28.666l-.377 2.803c1.467-10.716 4.627-20.96 8.801-30.915l-1.174 2.782a116.4 116.4 0 0 1 14.952-25.626l-1.887 2.442c5.634-7.255 12.127-13.803 19.397-19.422l-2.521 1.948c7.576-5.806 15.805-10.513 24.586-14.239l-2.995 1.264c9.993-4.205 20.248-7.912 29.909-12.862 8.96-4.591 17.298-10.934 23.711-18.728 6.594-8.013 11.638-16.958 14.696-26.909 3.169-10.312 3.97-21.017 3.345-31.747-.686-11.784-2.062-23.503-.51-35.283l-.323 2.405c1.094-7.98 3.25-15.762 6.355-23.193l-.912 2.161c1.814-4.281 3.803-8.481 6.139-12.504a95 95 0 0 1 5.728-8.713c.321-.434.659-.856.975-1.294-1.623 2.252-.291.39.094-.088 2.912-3.606 6.086-7.022 9.535-10.12a88 88 0 0 1 4.613-3.868q-1.578 1.212-.558.435c2.279-1.705 4.494-3.481 6.743-5.224 1.403-1.087 2.359-3.807 2.283-5.511-.079-1.76-.591-3.321-1.673-4.722-2.455-3.178-6.535-3.775-10.054-2.007-4.119 2.069-7.714 4.791-11.291 7.692a96 96 0 0 0-8.873 8.159c-5.94 6.21-11.18 13.239-15.385 20.735-8.791 15.673-12.751 33.681-12.2 51.584.36 11.696 1.822 23.389.27 35.065l.337-2.51c-.698 4.913-1.939 9.647-3.843 14.231l.989-2.344a67.5 67.5 0 0 1-8.542 14.66l1.647-2.132a66.8 66.8 0 0 1-11.622 11.699l2.27-1.754c-5.536 4.264-11.749 7.451-18.159 10.185l2.863-1.208c-6.664 2.81-13.575 4.923-20.306 7.549-7.027 2.742-14.042 5.653-20.585 9.431-10.636 6.14-20.281 14.406-28.213 23.771-8.013 9.462-14.757 19.879-19.649 31.286-2.648 6.175-4.915 12.366-6.47 18.91-1.513 6.366-2.496 12.891-3.039 19.41-1.123 13.478.557 27.487 4.622 40.375 1.385 4.391 6.196 7.66 10.842 6.156 4.77-1.544 7.18-6.002 6.156-10.842Zm146.042-5.037c-.053-2.127.14-4.236.155-6.356s.175-4.239.447-6.344l-.351 2.614c.794-5.816 2.441-11.627 4.694-17.042l-1.064 2.522c2.607-6.164 6.145-11.917 10.216-17.22l-1.699 2.199c4.244-5.471 9.167-10.334 14.638-14.573l-2.208 1.706c8.24-6.326 17.408-11.268 26.955-15.315l-2.62 1.106c5.608-2.361 11.349-4.419 17.065-6.499 2.836-1.032 5.699-1.984 8.549-2.976 3.533-1.23 6.952-2.987 10.39-4.47 1.922-.829 3.857-3.628 4.306-5.6.477-2.095.367-4.112-.472-6.101-.76-1.8-2.057-3.542-3.834-4.481l-2.238-.945a9.44 9.44 0 0 0-4.982 0c-2.425.343-4.848.696-7.269 1.068-2.396.368-4.757 1.141-7.09 1.79-4.635 1.29-9.203 2.695-13.698 4.412-9.705 3.706-19.27 7.98-28.06 13.552-8.338 5.286-16.198 11.598-22.566 19.174-3.345 3.98-6.528 8.181-9.073 12.725a83 83 0 0 0-6.25 14.149c-3.508 10.466-4.381 22.658-.616 33.165 1.438 4.013 4.937 6.669 9.315 6.081 4.053-.545 7.467-4.09 7.361-8.338Zm-511.297 84.128c-9.103-5.533-18.573-10.53-28.221-15.05-10.318-4.834-21.197-8.949-32.335-11.43-10.602-2.362-21.835-3.24-32.641-1.903-5.264.651-10.461 1.474-15.575 2.901-5.072 1.415-9.939 3.359-14.76 5.466-8.837 3.861-16.754 9.154-24.284 15.138-7.601 6.042-13.986 13.229-19.857 20.925a105 105 0 0 0-13.06 22.381c-3.711 8.685-6.684 17.519-8.341 26.835-1.637 9.202-2.491 18.554-2.204 27.902s1.538 18.793 3.556 27.946c1.824 8.272 4.395 16.376 7.609 24.212 3.634 8.86 7.746 17.455 12.746 25.631 9.422 15.406 21.277 29.615 35.091 41.27 15.152 12.785 32.218 23.57 50.275 31.75 17.734 8.033 36.244 13.905 55.456 17.122 19.785 3.312 39.81 4.412 59.843 3.523 4.829-.214 9.651-.538 14.467-.948 3.501-.298 6.629-1.248 9.185-3.804 2.253-2.253 3.949-5.949 3.804-9.185-.15-3.359-1.254-6.843-3.804-9.185-2.415-2.217-5.788-4.094-9.185-3.804-16.572 1.41-33.257 1.736-49.847.434a251 251 0 0 1-13.515-1.431l3.455.464c-14.649-1.98-29.106-5.325-43.06-10.221a209 209 0 0 1-11.746-4.53l3.106 1.311c-16.952-7.163-32.962-16.574-47.548-27.794l2.633 2.034c-10.576-8.18-20.03-17.739-28.208-28.311l2.035 2.634c-8.404-10.918-15.423-22.869-20.794-35.56l1.312 3.11c-4.963-11.808-8.474-24.208-10.193-36.908l.465 3.462c-1.442-10.884-1.546-21.918-.103-32.808l-.465 3.463c1.317-9.695 3.859-19.183 7.637-28.211l-1.314 3.113c3.532-8.35 8.159-16.191 13.699-23.365l-2.038 2.638c5.572-7.16 12.018-13.561 19.182-19.124l-2.635 2.036c6.6-5.084 13.786-9.361 21.455-12.623l-3.082 1.301c7.046-2.962 14.428-5.035 22.005-6.062l-3.4.457c7.707-1.008 15.496-.881 23.197.119l-3.371-.453c16.162 2.177 31.434 7.459 46.409 13.771l-2.713-1.145c7.265 3.074 14.424 6.376 21.703 9.415 2.204.92 6.032.208 7.971-1.043 1.921-1.239 3.34-2.832 4.233-4.947 2.005-4.75.207-10.22-4.233-12.918Z"/><path d="M199.881 482.783c-3-1.741-5.957-3.485-8.869-5.369-2.825-1.827-5.898-3.271-8.924-4.738-6.874-3.332-13.936-6.372-21.17-8.837-7.094-2.417-14.506-3.773-21.934-4.648-6.659-.785-13.192-.688-19.8.507-5.285.956-10.586 2.962-15.155 5.782-5.082 3.136-9.121 7.098-12.714 11.804-6.414 8.402-9.329 19.366-9.383 29.832-.061 11.827 3.65 23.31 8.379 34.014 4.185 9.474 9.923 18.148 16.706 25.963 13.491 15.541 31.381 26.287 50.231 34.053 18.48 7.613 38.111 11.705 57.908 13.993 2.261.261 4.514.302 6.773.496 2.619.225 5.845-1.368 7.643-3.166 1.875-1.875 3.286-4.951 3.166-7.643-.125-2.795-1.043-5.695-3.166-7.643-2.214-2.033-4.646-2.908-7.643-3.166l-.306-.026 2.873.386c-5.188-1.093-10.616-1.287-15.874-1.99l2.912.391c-13.772-1.86-27.444-4.804-40.61-9.287a168 168 0 0 1-11.111-4.224l2.547 1.075c-10.317-4.373-20.176-9.845-29.057-16.7l2.116 1.635c-6.714-5.212-12.805-11.186-18.007-17.913l1.611 2.085c-4.626-6.025-8.483-12.567-11.455-19.559l1.031 2.442c-2.754-6.542-4.988-13.475-5.97-20.52l.367 2.732c-.587-4.411-.641-8.868-.053-13.281l-.368 2.74c.505-3.605 1.434-7.126 2.839-10.487l-1.042 2.468a37.4 37.4 0 0 1 4.654-8.018l-1.619 2.096a35 35 0 0 1 6.081-6.11l-2.1 1.623a36.8 36.8 0 0 1 7.919-4.622l-2.478 1.046c3.251-1.366 6.658-2.258 10.148-2.743l-2.744.369c5.643-.74 11.385-.4 17.01.336l-2.721-.366c13.068 1.776 25.849 6.017 37.966 11.119l-2.251-.95c1.987.841 3.954 1.722 5.926 2.597 2.503 1.111 5.122 1.965 7.685 2.929l-2.043-.862c1.921.845 3.806 1.783 5.696 2.697 2.036.985 4.153 1.455 6.399.837 1.926-.53 4.014-2.02 4.963-3.816 2.097-3.97 1.035-9.032-2.979-11.361Zm633.005-239.078c21.271-4.266 40.931-14.281 57.506-28.174 8.324-6.977 15.563-15.051 21.87-23.884 7.189-10.068 12.527-21.186 17.232-32.586 5.023-12.172 9.277-24.646 14.393-36.78l-1.172 2.777c5.001-11.805 10.891-23.411 18.742-33.596l-1.8 2.33c1.078-1.386 2.146-2.779 3.218-4.17l-1.792 2.32c4.53-5.829 9.727-11.353 15.552-15.902l-2.083 1.61c1.497-1.155 3.041-2.24 4.421-3.537a65 65 0 0 1 2.521-2.242l1.436-1.859a6.83 6.83 0 0 0 1.09-3.415c.263-1.958.013-4.146-1.09-5.857-2.193-3.402-6.346-5.385-10.373-4.221-2.385.689-4.853 1.444-7.05 2.602-1.526.805-3.006 1.712-4.452 2.65-3.603 2.336-7.13 4.94-10.271 7.869-5.79 5.4-10.703 11.674-15.041 18.283-8.765 13.354-14.576 28.32-20.096 43.233-3.216 8.687-6.337 17.413-9.925 25.956l1.152-2.729c-.905 2.143-1.819 4.282-2.721 6.426l1.148-2.719c-4.643 10.959-10.308 21.322-17.573 30.769l1.66-2.149c-6.392 8.256-13.817 15.642-22.06 22.047l1.977-1.528c-8.554 6.602-17.943 12.138-27.894 16.355l2.091-.882a121 121 0 0 1-14.98 5.17c-4.143 1.129-7.098 5.888-5.735 10.101 1.45 4.48 5.58 6.641 10.101 5.735Zm-85.771-48.481c16.759-5.06 29.48-17.616 38.394-32.295s13.903-31.141 19.14-47.321c3.063-9.464 5.666-19.015 9.536-28.204l-1.122 2.658c.642-1.496 1.261-3.001 1.892-4.501l-1.122 2.659c3.048-7.179 6.773-14.06 11.544-20.248l-1.736 2.247c4.02-5.154 8.743-9.751 13.908-13.751l-2.211 1.708c7.597-5.825 16.076-10.333 24.874-14.053l-2.505 1.057a259 259 0 0 1 11.435-4.464c4.511-1.649 9.194-2.995 13.43-5.28 4.374-2.359 5.938-8.055 4.081-12.455-.809-1.916-2.19-3.77-4.081-4.769l-2.383-1.005a10.05 10.05 0 0 0-5.303 0c-2.834.452-5.479 1.441-8.19 2.369a349 349 0 0 0-7.705 2.73 247 247 0 0 0-17.585 7.279c-10.484 4.815-20.71 11.135-28.751 19.491-16.415 17.058-23.911 40.462-29.037 63.058-2.581 11.381-5.315 22.642-9.843 33.436l.947-2.243c-3.236 7.653-7.191 15.029-12.276 21.622l1.38-1.786c-3.212 4.124-6.847 7.894-10.985 11.097l1.715-1.325c-3.316 2.532-6.9 4.662-10.734 6.309l1.957-.826q-1.474.62-2.982 1.151c-2.014.709-3.747 1.844-4.852 3.731-1.018 1.74-1.45 4.305-.818 6.256 1.327 4.102 5.632 6.985 9.986 5.67ZM379.508 816.871c-38.145 3.646-75.73 8.943-113.209 16.763-37.348 7.793-76.453 11.254-110.816 29.142-10.785 5.614-21.101 12.791-27.995 22.809-47.439 68.941 101.831 80.398 135.419 83.684 83.215 8.14 164.557 2.191 247.406-5.345 78.213-7.114 158.284-26.473 228.187-62.818 13.502-7.02 26.892-14.911 37.021-26.269s16.671-26.774 14.245-41.797c-7.311 21.617-29.127 34.687-50.346 43.083-58.552 23.167-123.523 24.759-186.181 18.506-42.1-4.201-84.106-11.868-123.691-26.804-19.424-7.329-44.356-19.236-49.847-41.357"/><path d="M379.508 807.408c-11.308.485-22.689.839-33.936 2.082a1152 1152 0 0 0-35.512 4.5c-21.948 3.119-43.594 7.566-65.407 11.442-20.416 3.628-40.98 6.859-60.901 12.746-20.169 5.961-40.966 14.578-56.664 28.958-17.286 15.834-28.948 43.37-14.996 64.96 11.494 17.786 32.888 26.78 52.285 32.932 21.412 6.79 43.729 10.387 65.961 13.234a913 913 0 0 0 71.207 6.28c45.918 2.246 91.927.729 137.767-2.401 44.667-3.05 89.554-6.41 133.701-14.081 41.375-7.189 82.198-18.048 121.286-33.47 19.964-7.877 39.76-16.651 58.475-27.193 19.222-10.827 36.469-25.013 45.132-45.804 4.26-10.223 5.198-20.892 3.573-31.78-.747-5.002-6.877-9.134-11.713-8.918-5.611.251-9.884 3.655-11.713 8.918-.266.766-.565 1.52-.836 2.284-.642 1.809 1.287-2.551-.12.193-.656 1.278-1.292 2.554-2.023 3.794a53 53 0 0 1-2.322 3.599c-.041.058-1.954 2.486-.766 1.062 1.064-1.276-.961 1.09-1.188 1.346a67.5 67.5 0 0 1-6.539 6.408c-.68.584-3.372 2.693-1.349 1.168a95 95 0 0 1-4.832 3.412c-5.272 3.478-10.871 6.447-16.614 9.065-.719.328-5.285 2.249-2.549 1.139a283 283 0 0 1-3.851 1.54 269 269 0 0 1-11.284 4.1c-14.743 4.993-29.899 8.73-45.231 11.394a376 376 0 0 1-10.658 1.679c-2.487.359-.835.119-.303.048q-1.785.236-3.572.451-2.98.361-5.967.675a424 424 0 0 1-22.801 1.789c-31.073 1.579-62.259-.152-93.148-3.665a842 842 0 0 1-11.744-1.439c-2.347-.3 2.861.409-1.1-.15l-2.468-.347a574 574 0 0 1-6.779-1.007c-8-1.236-15.975-2.638-23.912-4.235-15.439-3.108-30.736-6.954-45.745-11.734-7.79-2.481-15.531-5.174-23.111-8.243-.525-.213-1.103-.402-1.604-.657 2.712 1.384.282.115-.38-.175a153 153 0 0 1-4.481-2.051 119 119 0 0 1-8.458-4.443c-2.894-1.681-5.637-3.544-8.361-5.483 2.189 1.558.459.367-.082-.061a65 65 0 0 1-2.072-1.709 57 57 0 0 1-3.556-3.328c-1.021-1.045-1.962-2.152-2.917-3.257 2.944 3.406-2.869-4.078-.315-.395-.496-.715-1.009-1.416-1.48-2.15-.786-1.225-1.42-2.518-2.14-3.777-1.372-2.4.466 1.477-.116-.144-.355-.988-.757-1.935-1.023-2.952-1.448-5.541-7.892-9.451-13.467-7.647-5.706 1.846-9.198 7.529-7.647 13.467 1.691 6.469 4.07 12.698 8.114 18.091 4.59 6.119 9.899 11.075 16.122 15.523 10.345 7.394 22.306 12.377 34.149 16.819 31.477 11.806 64.499 19.033 97.752 23.605 65.545 9.012 134.299 11.276 198.148-8.742 31.33-9.823 66.304-25.025 78.05-58.405h-23.426c-.312-2.148-.03.216.011 1.07.053 1.073.062 2.151.031 3.225s-.128 2.143-.217 3.214c.21-2.543-.26 1.256-.443 2.069-.478 2.121-1.141 4.17-1.839 6.226-.738 2.174.548-.967-.429 1.117a67 67 0 0 1-1.712 3.424 61 61 0 0 1-3.435 5.608c-.381.555-2.42 3.108-1.033 1.475-.829.976-1.64 1.963-2.502 2.912a81 81 0 0 1-10.438 9.622c1.54-1.189-.668.458-1.161.812a121 121 0 0 1-3.284 2.271 147 147 0 0 1-6.288 3.967c-4.096 2.449-8.294 4.722-12.529 6.922a500 500 0 0 1-27.726 13.328c-2.171.963-4.355 1.892-6.531 2.843-1.308.571-.013.01.215-.086q-.821.346-1.644.687-1.92.8-3.847 1.584a543 543 0 0 1-14.412 5.625 570 570 0 0 1-28.77 9.88c-19.399 6.095-39.107 11.19-59.002 15.386a692 692 0 0 1-29.933 5.624 718 718 0 0 1-18.836 2.861c-.67.093-3.499.463-1.416.194-2.746.354-5.491.709-8.24 1.04-21.292 2.568-42.705 4.242-64.079 5.959-44.064 3.541-88.257 6.05-132.48 5.544-30.267-.346-60.437-2.384-90.529-5.575a702 702 0 0 1-16.04-1.883c-.646-.084-1.291-.172-1.936-.255-1.344-.173 2.259.308 1.917.257-.375-.055-.752-.102-1.127-.154a601 601 0 0 1-7.205-1.042c-10.49-1.591-20.938-3.499-31.269-5.922-10.123-2.375-20.171-5.226-29.861-9.019-1.077-.421-2.137-.892-3.217-1.303 1.029.391 2.711 1.176.888.36-.6-.269-1.201-.533-1.799-.807a108 108 0 0 1-6.374-3.168 84 84 0 0 1-5.829-3.447 69 69 0 0 1-2.484-1.688c-.4-.285-.791-.582-1.19-.868-1.895-1.36 2.108 1.755.812.623-1.52-1.329-3.061-2.601-4.471-4.053a55 55 0 0 1-1.803-1.977c-2.156-2.449 1.534 2.322-.051-.038a46 46 0 0 1-2.783-4.712c-1.307-2.546 1.006 3.031.149.308-.27-.858-.559-1.702-.775-2.577-.177-.716-.696-4.01-.319-1.214.371 2.758.006-.526-.014-1.317q-.032-1.321.056-2.639c.03-.45.093-.899.12-1.349.089-1.506-.691 3.678-.108 1.031.448-2.032.931-4.021 1.636-5.983.178-.498.406-.987.565-1.49.226-.713-1.379 3.014-.399.969.584-1.22 1.163-2.436 1.81-3.625 1.336-2.455 2.843-4.807 4.454-7.089 1.356-1.92-.888.913.681-.83.833-.925 1.646-1.865 2.514-2.759 1.617-1.666 3.344-3.196 5.102-4.709 1.79-1.541-1.066.704.847-.689.87-.633 1.744-1.261 2.633-1.867a99 99 0 0 1 5.931-3.729c4.255-2.479 8.667-4.69 13.156-6.711q.805-.36 1.612-.717c.09-.04 1.873-.797.665-.291s.581-.232.672-.268q.816-.327 1.634-.651 3.815-1.499 7.685-2.851a229 229 0 0 1 13.956-4.367c9.606-2.687 19.355-4.828 29.138-6.762 20.256-4.006 40.544-7.79 60.779-11.908 21.355-4.346 42.898-8.097 64.516-10.879-.282.036-1.045.142.248-.025 1.189-.153 2.392-.268 3.574-.471 1.255-.216 2.501-.506 3.759-.72 2.521-.428 5.043-.853 7.568-1.258 4.851-.778 10.999-1.749 16.444-2.563 4.588-.686 7.404-6.227 6.779-10.383-.669-4.45-4.51-8.411-9.295-8.206Z"/><path d="M368.37 788.306c7.58 2.651 15.139 5.362 22.728 7.988 7.705 2.666 15.605 4.817 23.462 6.99 15.592 4.312 31.327 8.041 47.169 11.313 31.843 6.576 63.917 12.13 96.321 15.004 29.066 2.578 58.316 3.453 87.468 1.957 29.44-1.51 58.953-5.573 87.567-12.707s56.303-17.51 82.152-31.485c1.56-.844 3.223-1.624 4.706-2.597 1.981-1.3 3.512-3.114 5.109-4.835 6.037-6.505.074-16.765-8.576-14.732-2.323.546-4.639.92-6.789 2.022-1.592.816-3.133 1.745-4.708 2.595q-4.72 2.548-9.527 4.931c-4.807 2.383-6.42 3.116-9.669 4.593a316 316 0 0 1-4.535 2.019q-1.225.533-2.454 1.058c-.214.092-1.41.615-.191.082 1.395-.61-.616.253-.898.369-13.053 5.387-26.446 9.935-40.051 13.713-13.788 3.828-27.791 6.867-41.905 9.213a446 446 0 0 1-10.651 1.637c-.881.125-1.803.183-2.672.37.043-.009 1.987-.259.8-.11l-1.147.149q-2.87.369-5.743.703a495 495 0 0 1-21.16 1.992c-28.873 2.102-57.86 1.963-86.737.005-15.204-1.031-30.357-2.646-45.505-4.283a822 822 0 0 1-17.86-2.127q-1.273-.166-2.547-.335c-1.482-.196 1.373.192-.113-.016l-1.706-.235a517 517 0 0 1-23.766-3.857c-31.409-5.848-62.31-13.86-93.191-21.977-3.874-1.018-7.704-2.193-11.535-3.363-3.621-1.105-8.051 1.316-8.902 5.054-.92 4.041 1.224 7.562 5.054 8.902Z"/></svg>