<?xml version="1.0" encoding="UTF-8"?><svg xmlns="http://www.w3.org/2000/svg" data-name="ARTWORK" viewBox="0 0 1000 1000"><path d="M545.569 439.265c-9.984-.864-19.979-1.6-29.975-2.297-.417-.029-3.179.041-3.323-.221l1.537.203-3.174-.427c-.538-.026-1.082.037-1.621.029-2.364-.035-4.731-.189-7.095-.256a397 397 0 0 0-7.143-.137c-1.413-.014-.959-.559-.08.173l1.017.183a10.1 10.1 0 0 0-3.841-.446c-.595.016-1.19.071-1.784.103-14.108.752-28.434 2.029-42.206 5.299-16.936 4.021-35.332 11.263-46.499 25.304-4.843 6.09-8.45 12.615-10.554 20.169-1.686 6.052-2.373 12.459-2.583 18.726-.321 9.579.783 19.165-.231 28.721.387-3.648.545-3.841.224-1.866-.475 2.922-.909 5.855-1.202 8.802-.405 4.061-.416 8.126-.201 12.198.477 9.053 2.133 18.162 5.251 26.686 6.658 18.203 18.13 33.574 33.8 44.989a73.7 73.7 0 0 0 10.451 6.334l3.244-24.825c-20.068 7.85-40.223 16.294-58.618 27.627-13.435 8.278-25.58 18.157-35.108 30.783-16.163 21.416-18.528 48.844-19.068 74.768-.334 16.043-.063 32.097-.595 48.136-.569 17.137-1.694 34.246-1.826 51.398-.149 19.398.561 39.228 4.931 58.201 1.903 8.262 4.739 16.625 9.098 23.929 5.405 9.057 13.378 15.2 21.913 21.179 40.284 28.221 91.226 34.631 139.03 37.944 26.083 1.808 52.235 3.235 78.383 3.415 29.093.2 58.196-1.015 87.171-3.641 30.004-2.72 59.91-6.885 89.505-12.525 19.574-3.73 39.103-8.749 56.84-18.089 15.719-8.277 29.576-20.762 37.922-36.588a95 95 0 0 0 9.434-27.36c2.11-11.688 2.199-23.331 2.618-35.151.903-25.499 2.974-50.963 2.711-76.494-.142-13.779-1.14-27.463-3.106-41.104-1.705-11.822-4.289-23.78-8.779-34.883-8.441-20.875-24.515-36.279-42.774-48.869-18.851-12.998-39.774-22.715-60.552-32.172-10.58-4.816-21.216-9.506-31.789-14.338v22.637c13.138-8.451 24.042-20.007 31.072-34.016 6.587-13.125 10.283-27.283 12.498-41.739 1.817-11.86 3.219-23.87 3.987-35.849.285-4.454.359-8.939-.111-13.383-1.353-12.801-5.882-24.48-15.133-33.72-11.716-11.702-28.117-17.98-43.876-21.958-27.161-6.856-55.778-8.439-83.677-8.933-4.547-.08-9.094-.117-13.642-.12-6.9-.004-13.509 6.07-13.19 13.19s5.795 13.186 13.19 13.19c16.228.01 32.468.425 48.648 1.712q5.006.395 10 .917a349 349 0 0 1 6.947.796c.62.078 3.835.502 1.249.155-2.46-.33-.033 0 .532.081q1.119.159 2.236.328 2.17.327 4.337.69 3.946.66 7.866 1.454c8.784 1.787 17.439 4.144 25.768 7.476 2.063.825-3.153-1.376-1.447-.614.365.163.733.319 1.098.482q1.241.555 2.464 1.149a74 74 0 0 1 4.527 2.394 62 62 0 0 1 3.88 2.422c.577.391 1.141.798 1.707 1.204 2.329 1.67-3.001-2.422-.584-.447a43.7 43.7 0 0 1 5.612 5.459c.487.571 1.953 2.455.146.115-1.823-2.36-.308-.384.125.241a37 37 0 0 1 1.812 2.886c.564.999 1.046 2.03 1.544 3.062.783 1.623-1.541-3.94-.629-1.474.194.523.394 1.043.574 1.571a42.5 42.5 0 0 1 1.603 6.291c.089.502.161 1.007.243 1.51.291 1.787-.497-4.056-.328-2.444.033.312.074.624.108.936q.167 1.584.249 3.176c.113 2.171.116 4.348.049 6.521-.24 7.701-1.144 15.409-1.993 23.058a403 403 0 0 1-.587 5.012c-.058.469-.486 3.721-.16 1.311.312-2.306-.142.98-.243 1.667a216 216 0 0 1-1.7 10.044c-1.278 6.554-2.915 13.052-5.146 19.35a121 121 0 0 1-1.637 4.313c-.832 2.092 1.226-2.786.077-.215a90 90 0 0 1-1.034 2.232c-1.416 2.945-3 5.81-4.765 8.561a74 74 0 0 1-2.582 3.762c-1.684 2.297 1.49-1.798.116-.133-.528.64-1.051 1.283-1.593 1.911a71 71 0 0 1-8.895 8.638c-2.421 1.973 1.799-1.283-.044.047a103 103 0 0 1-4.503 3.094c-3.933 2.533-6.492 6.543-6.492 11.319 0 4.255 2.414 9.458 6.492 11.319 21.171 9.661 42.631 18.737 63.266 29.529 9.729 5.088 19.286 10.557 28.327 16.798 2.011 1.388 3.977 2.831 5.941 4.284.666.493 1.868 1.56-.968-.76.553.452 1.127.881 1.684 1.327a141 141 0 0 1 3.27 2.698c3.636 3.097 7.108 6.394 10.317 9.934 1.475 1.626 2.832 3.336 4.235 5.021-2.906-3.49-.412-.494.226.411a74 74 0 0 1 2.13 3.185 69 69 0 0 1 3.13 5.485c.476.933.912 1.883 1.36 2.829 1.027 2.168-1.077-2.77-.481-1.179.256.685.543 1.357.797 2.043 2.011 5.447 3.604 11.06 4.918 16.713a176 176 0 0 1 1.728 8.361 196 196 0 0 1 1.237 7.669q.307 2.217-.131-.995c-.129 2.795.699 5.893.956 8.694.296 3.227.53 6.46.712 9.696.352 6.255.524 12.52.56 18.785.072 12.632-.4 25.26-1.003 37.875-.586 12.273-1.31 24.54-1.751 36.819-.203 5.66-.192 11.334-.492 16.99q-.187 3.587-.582 7.155c-.076.69-.178 1.378-.248 2.068.417-4.11.349-2.492.202-1.567-.21 1.321-.416 2.642-.663 3.957-.812 4.33-1.909 8.609-3.345 12.775a80 80 0 0 1-1.025 2.804c-.213.549-.446 1.091-.657 1.64 1.534-4.006.995-2.299.56-1.361-.842 1.817-1.698 3.617-2.661 5.374a70 70 0 0 1-4.592 7.275c-.267.37-.542.735-.812 1.103-1.341 1.824 2.133-2.661.777-1.016-2.487 3.017-5.133 5.863-8.048 8.474a76 76 0 0 1-2.069 1.787c-.497.414-3.21 2.548-.99.83 2.235-1.73-.752.527-1.3.915a87 87 0 0 1-2.538 1.73c-3.353 2.201-6.852 4.175-10.444 5.957-1.862.924-3.752 1.78-5.653 2.62-.85.375-2.326.885 1.571-.659-.565.224-1.124.464-1.688.69q-1.713.686-3.442 1.329c-4.18 1.554-8.427 2.923-12.713 4.154-10.06 2.888-20.314 4.952-30.599 6.852-13.957 2.578-27.999 4.985-42.087 6.732 3.253-.403 1.297-.173.59-.082-1.006.13-2.012.264-3.019.393q-2.517.323-5.035.632-5.54.68-11.089 1.289a897 897 0 0 1-63.75 4.704 900 900 0 0 1-85.215-.809c-22.677-1.289-45.409-2.307-67.971-5.028-1.493-.18-2.984-.373-4.475-.564-1.929-.246 3.604.506.748.099l-2.03-.287a352 352 0 0 1-8.899-1.396 292 292 0 0 1-16.791-3.349c-11.135-2.576-22.117-5.886-32.703-10.212-.495-.202-.987-.414-1.483-.614 3.715 1.499 1.018.421.248.081a171 171 0 0 1-3.651-1.661 162 162 0 0 1-7.888-3.966 149 149 0 0 1-14.446-8.844 143 143 0 0 1-3.309-2.368q-.655-.486-1.309-.977c-2.357-1.758 2.398 1.921.101.074-1.643-1.321-3.301-2.619-4.775-4.13-.514-.527-.993-1.082-1.483-1.63-1.875-2.098 2.05 2.947.413.556-.976-1.425-1.915-2.857-2.75-4.371-.801-1.452-1.477-2.953-2.183-4.45-.811-1.72.83 1.906.743 1.762-.253-.42-.398-.994-.573-1.452a75 75 0 0 1-1.073-3.008c-1.255-3.763-2.234-7.614-3.035-11.498a138 138 0 0 1-1.083-5.927c-.164-1.017-.312-2.035-.462-3.054-.354-2.403.384 3.114.184 1.381-.085-.732-.184-1.462-.27-2.194a231 231 0 0 1-1.156-13.581c-1.048-18.306-.394-36.669.488-54.968.753-15.615 1.337-31.192 1.494-46.827.143-14.266.089-28.573 1.305-42.799q.195-2.296.448-4.587c.079-.712.167-1.424.252-2.135.338-2.832-.583 4.099-.12.898a117 117 0 0 1 1.574-8.685 92 92 0 0 1 2.154-8.012 80 80 0 0 1 1.272-3.668c.226-.603.464-1.202.7-1.801.986-2.504-1.683 3.826-.318.771 2.267-5.075 5.181-9.669 8.413-14.173-3.365 4.689-.244.355.727-.778a84 84 0 0 1 3.16-3.478 96 96 0 0 1 6.925-6.509 142 142 0 0 1 3.734-3.052c1.66-1.323-2.66 2.015-1.379 1.067.337-.25.669-.507 1.006-.758q1.236-.92 2.493-1.814a162 162 0 0 1 9.624-6.314c7.677-4.674 15.672-8.813 23.795-12.651a414 414 0 0 1 13.66-6.139c.728-.312 1.462-.612 2.187-.932-3.367 1.484-1.778.748-1.022.435 1.263-.523 2.525-1.049 3.79-1.566a647 647 0 0 1 8.71-3.484c5.175-2.03 8.951-5.5 9.729-11.292.679-5.053-1.657-11.125-6.484-13.533a73.5 73.5 0 0 1-10.158-6.107c-.376-.27-.785-.64-1.193-.876 2.778 1.615 1.775 1.409.992.764-.762-.628-1.529-1.246-2.276-1.891q-2.242-1.936-4.326-4.041c-2.084-2.105-2.728-2.859-4.011-4.362-.64-.749-1.222-1.562-1.883-2.292-.113-.124 1.841 2.452.988 1.278-.363-.5-.74-.991-1.101-1.493-2.314-3.219-4.374-6.607-6.233-10.107-.93-1.75-1.775-3.54-2.589-5.346-.398-.882-.505-2.094.489 1.172-.14-.461-.378-.937-.55-1.381q-.538-1.386-1.025-2.789a80.5 80.5 0 0 1-3.059-11.453c-.183-.97-.333-1.945-.495-2.918-.373-2.244.148 1.298.178 1.343-.141-.211-.131-1.149-.164-1.472-.199-1.965-.324-3.934-.33-5.909s.049-3.948.194-5.918c.073-.987.175-1.969.279-2.953.106-1.002.646-2.083-.188 1.349.145-.595.19-1.228.296-1.832 1.843-10.555 1.331-20.823 1.544-31.462.05-2.483.163-4.965.394-7.437.054-.583.12-1.165.183-1.747.33-3.038-.647 4.273-.195 1.438a67 67 0 0 1 .676-3.697c.541-2.486 1.287-4.896 2.18-7.276.976-2.602-1.742 3.821-.548 1.302.296-.625.587-1.252.905-1.867a46 46 0 0 1 1.997-3.454c.343-.54.694-1.074 1.063-1.597.174-.247.358-.488.531-.736 1.263-1.815-2.627 3.267-1.207 1.556.929-1.12 1.874-2.217 2.896-3.254a46 46 0 0 1 3.409-3.123c.27-.224.548-.44.818-.664 1.621-1.343-3.317 2.461-1.583 1.226.732-.521 1.452-1.056 2.198-1.558 3.112-2.095 6.425-3.881 9.838-5.433.469-.213.944-.414 1.414-.627 1.632-.738-3.893 1.571-1.646.698 1.085-.422 2.163-.86 3.257-1.261a112 112 0 0 1 6.689-2.21c5.154-1.532 10.416-2.752 15.687-3.805 3.011-.601 6.036-1.13 9.07-1.599 1.329-.206 7.134-.935 1.938-.308 1.714-.207 3.425-.435 5.141-.628 3.657-.413 7.319-.719 10.984-1.033 1.187-.102 3.136-.008 4.2-.512-.078.037-3.514.392-1.304.111.984-.125 1.972-.228 2.957-.336q3.048-.334 6.102-.624c2.116-.201 4.232-.407 6.355-.507 1.359-.064 2.557-.348 3.987-.44.018-.001-2.506.22-1.125.119 1.251-.091 2.501-.215 3.751-.316 4.671-.376 9.342-.675 14.02-.857 5.032-.196 10.079-.197 15.114-.221 5.083-.024 9.955-4.453 9.719-9.719-.253-5.642-4.278-9.248-9.719-9.719Z"/><path d="M512.647 626.192c14.363 2.344 28.81 4.136 43.288 5.603 13.993 1.418 28.02 2.166 42.059 2.934 13.928.762 27.86 1.488 41.811 1.261 14.922-.242 29.896-2.211 44.647-4.343a593 593 0 0 0 23.252-3.832c3.802-.705 7.547-1.385 11.232-2.566 4.525-1.451 9.47-2.649 13.473-5.241 2.061-1.335 3.585-3.037 4.545-5.312.931-2.207 1.318-4.888.56-7.232a13.2 13.2 0 0 0-2.857-4.901 8.33 8.33 0 0 0-3.575-2.297 8.4 8.4 0 0 0-4.279-.957c-1.143-.15-2.141-.268-3.287-.144q-1.646.178-3.291.346-3.06.313-6.123.593c-5.327.487-10.546 1.654-15.806 2.596a599 599 0 0 1-25.664 4.016l3.529-.474c-12.437 1.664-24.936 2.835-37.367 4.51l3.41-.458c-6.328.847-12.678 1.516-19.003 2.371l3.162-.425c-14.531 1.951-29.093 3.19-43.759 3.35-14.57.158-29.151-.171-43.685-1.22a593 593 0 0 1-24.362-2.268c-1.635-.186-3.989.921-5.072 2.101s-1.758 2.518-1.973 4.119c-.431 3.21 1.611 7.295 5.138 7.871Zm-37.539-110.064c13.513 4.774 27.745 7.615 41.851 9.968 5.676.947 11.37 1.757 17.073 2.522l-2.348-.316c11.068 1.492 22.132 2.897 33.271 3.755s22.251 1.176 33.423 1.06c23.138-.24 46.395-1.909 69.174-6.091a277 277 0 0 0 17.463-3.769c6.323-1.586 12.721-3.226 18.586-6.125 1.93-.954 3.824-3.512 4.296-5.587.476-2.091.366-4.102-.471-6.087-.758-1.796-2.053-3.534-3.825-4.471-2.345-1.239-4.597-1.39-7.204-.942-5.961 1.024-11.772 3.007-17.673 4.356a283 283 0 0 1-18.677 3.59 468 468 0 0 1-10.938 1.581l2.694-.362c-18.827 2.513-37.834 3.588-56.822 3.66-9.339.035-18.694-.109-28.031-.323-8.862-.203-17.724-.553-26.57-1.136-9.04-.595-18.056-1.533-27.034-2.739l2.221.298c-10.038-1.356-20.066-3.032-29.897-5.495-2.205-.552-4.4-1.15-6.576-1.808-3.754-1.135-8.339 1.356-9.223 5.237-.956 4.197 1.272 7.822 5.237 9.223Zm359.713 184.071c-73.319 14.214-170.378 23.87-257.819 21.687-6.098-.152-11.25 4.617-11.415 10.715-1.231 45.427 3.466 90.764 1.194 136.208-.198 3.958-.189 8.46 2.696 11.175 2.366 2.227 5.912 2.494 9.158 2.629 75.962 3.146 211.256-7.836 263.69-29.71 13.117-5.472-5.813 12.97 0 0 2.583-5.763 2.499-12.318 2.369-18.632l-2.696-130.617"/><path d="M834.821 691.313c-3.642.369-7.412.49-11.004 1.154l2.571-.346c-2.428.289-4.881.515-7.32.698-3.281.246-6.553.871-9.812 1.355q-7.668 1.137-15.352 2.169l2.888-.388c-7.796 1.046-15.598 2.037-23.393 3.085l2.973-.4a1331 1331 0 0 1-72.491 7.682c-25.001 1.964-50.039 3.386-75.113 3.959-12.424.284-24.852.371-37.278.232q-4.631-.052-9.262-.146c-3.731-.076-7.273-.254-10.971.54-7.852 1.684-14.39 8.336-16.517 15.972-1.008 3.618-.871 7.536-.938 11.262q-.09 5.122-.097 10.246a897 897 0 0 0 .223 20.486c.289 13.565.828 27.122 1.255 40.683s.734 27.127.575 40.694c-.078 6.675-.435 13.34-.558 20.013-.154 8.397 2.815 17.327 10.938 21.159 5.806 2.739 12.194 2.78 18.488 3.074 4.093.191 8.193.384 12.29.442a863 863 0 0 0 26.486-.054 1097 1097 0 0 0 58.274-2.541c20.011-1.398 39.993-3.27 59.901-5.741 19.146-2.376 38.263-5.172 57.175-9.012 14.29-2.902 28.625-6.281 42.301-11.406 2.493-.934 5.073-2.41 7.727-2.775l-3.176.427c.237-.025.469-.036.706-.013l-3.176-.427c.116.018.223.043.333.083l-2.854-1.204c.067.031.122.063.182.106l-2.418-1.868a.6.6 0 0 1 .091.089l-1.868-2.418c.039.053.067.1.094.16l-1.204-2.854c.022.064.035.121.045.188l-.427-3.176c.007.099.002.192-.011.29l.427-3.176a2.6 2.6 0 0 1-.153.503l1.204-2.854c-.202.457-.48.87-.784 1.265l1.868-2.418c-.59.748-1.268 1.42-2.016 2.01l2.418-1.868c-.438.337-.896.646-1.402.871l2.854-1.204c-.196.08-.389.145-.599.178l3.176-.427a1.5 1.5 0 0 1-.29.004l3.176.427a1 1 0 0 1-.187-.049l2.854 1.204a.6.6 0 0 1-.108-.06l2.418 1.868a1 1 0 0 1-.136-.131l1.868 2.418a1 1 0 0 1-.101-.185l1.204 2.854a2 2 0 0 1-.063-.241l.427 3.176a3 3 0 0 1 .019-.799l-.427 3.176c.155-.945.504-1.846.871-2.726l-1.204 2.853c1.177-2.737 2.393-5.397 3.017-8.317.654-3.058 1.026-6.219 1.181-9.344.235-4.724-.029-9.473-.172-14.196l-.907-30.014c-.605-20.01-1.18-40.021-1.842-60.028-.374-11.301-.672-22.6-.905-33.905-.058-2.8-1.163-5.63-3.158-7.625-1.87-1.87-4.939-3.279-7.625-3.158-5.743.257-10.908 4.741-10.784 10.784.382 18.527.502 37.053.707 55.582l.617 55.86.172 15.563c.054 4.872.303 9.771-.288 14.621l.427-3.175c-.334 2.468-.9 4.857-1.843 7.166l1.204-2.853c-1.467 3.373-2.972 6.412-2.971 10.178.001 5.767 3.7 11.015 9.352 12.537 5.732 1.544 11.633-1.301 15.448-5.517 1.947-2.152 3.587-4.417 4.408-7.236 1.617-5.558-.552-11.629-5.591-14.634-3.493-2.083-7.563-2.195-11.405-1.181-1.694.447-3.299 1.239-4.928 1.875-16.576 6.471-34.223 10.282-51.665 13.554-12.162 2.282-24.395 4.175-36.657 5.828l3.182-.428c-24.026 3.227-48.177 5.535-72.363 7.162-23.173 1.559-46.393 2.577-69.62 2.706-5.798.032-11.596-.019-17.393-.037a620 620 0 0 1-8.182-.077c-3.006-.048-6.066.019-9.05-.374l3.06.411c-1.122-.174-2.196-.437-3.247-.873l2.736 1.155a10 10 0 0 1-1.435-.817l2.314 1.787a8.5 8.5 0 0 1-1.437-1.448l1.79 2.317a10 10 0 0 1-.968-1.717l1.156 2.739c-.399-1.018-.637-2.054-.785-3.135l.41 3.055c-.454-4.081.128-8.279.279-12.367.174-4.707.28-9.416.333-14.126.105-9.413-.004-18.827-.211-28.238-.417-18.915-1.247-37.819-1.583-56.736-.093-5.26-.146-10.52-.137-15.78q.006-3.877.06-7.754c.054-3.877-.069-5.233.223-7.798l-.416 3.099a12.2 12.2 0 0 1 .789-2.867l-1.175 2.784c.403-.895.894-1.713 1.492-2.491l-1.822 2.358a13 13 0 0 1 1.788-1.787l-2.357 1.821a12.7 12.7 0 0 1 2.488-1.498l-2.782 1.174c.924-.386 1.86-.654 2.848-.816l-3.095.416c1.942-.252 3.938-.068 5.89-.029q3.247.065 6.496.107 6.539.087 13.079.089c8.809.005 17.618-.101 26.424-.305a1250 1250 0 0 0 53.5-2.414c17.529-1.16 35.027-2.727 52.491-4.629a1406 1406 0 0 0 52.939-6.808c7.909-1.167 15.787-2.687 23.645-4.156 3.78-.707 7.685-1.231 11.41-2.186 3.645-.934 7.275-1.992 10.891-3.018a1006 1006 0 0 0 5.325-1.527 8.91 8.91 0 0 0 6.365-9.75c-.538-4.001-4.322-8.151-8.727-7.705ZM435.52 194.769c5.468 23.11 11.604 46.089 18.675 68.762 7.033 22.551 15.286 44.761 24.259 66.608 9.318 22.687 19.582 44.913 30.867 66.69 10.89 21.014 22.595 41.603 35.213 61.628a886 886 0 0 0 19.681 29.879c7.147 10.387 14.438 20.633 22.456 30.37 1.849 2.246 3.874 4.348 5.851 6.481 3.453 3.723 9.516 3.773 13.369.796 3.888-3.004 5.323-8.794 2.622-13.135-8.194-13.171-17.495-25.545-26.243-38.346a886 886 0 0 1-24.958-38.639c-16.02-26.274-30.871-53.22-44.215-80.954-7.502-15.592-14.766-31.289-21.501-47.229l1.045 2.475a956 956 0 0 1-33.684-92.98c-2.702-8.875-5.133-17.829-7.461-26.809-1.087-4.195-5.978-7.149-10.191-5.786-4.399 1.424-6.856 5.669-5.786 10.191Z"/><path d="M541.34 424.349a594 594 0 0 1-50.902-11.94c-16.891-4.758-33.664-9.862-50.164-15.85a598 598 0 0 1-27.485-10.756l2.829 1.194c-1.55-.654-3.011-1.318-4.623-1.737-5.654-1.468-11.502 1.406-13.759 6.753-2.227 5.278-.286 11.624 4.772 14.564 2.627 1.527 5.598 2.513 8.433 3.612a588 588 0 0 0 18.797 6.923 592 592 0 0 0 25.342 8.215c17.058 5.11 34.319 9.26 51.816 12.559a599 599 0 0 0 29.874 4.849c2.659.363 4.927.455 7.346-.961 1.978-1.157 3.864-3.425 4.381-5.698.556-2.441.436-5.18-.961-7.346-1.283-1.989-3.283-3.926-5.698-4.381Zm-93.915-137.276c-21.322-9.533-43.438-16.753-66.405-21.076-7.134-1.343-14.315-2.389-21.518-3.285l3.056.411c-1.758-.262-3.52-.47-5.284-.679l11.551 11.551c-1.368-17.739-2.063-35.439-.674-53.203a263 263 0 0 1 1.517-14.311l-.422 3.141c2.313-17.098 6.348-33.952 12.138-50.207a255 255 0 0 1 5.261-13.517l-1.194 2.83c7.907-18.667 18.004-36.334 29.589-52.955 3.43-4.92 6.988-9.749 10.651-14.498l-1.853 2.398c10.61-13.726 22.095-26.756 34.116-39.259a658 658 0 0 1 10.873-11.036l-18.608-2.398c16.52 23.617 33.585 46.853 50.626 70.095 18.02 24.575 36.116 49.097 53.889 73.852a2206 2206 0 0 1 13.019 18.31c5.113 7.277 10.386 14.566 13.912 22.78l-1.194-2.83c1.506 3.599 2.623 7.317 3.162 11.186l-.423-3.15a37.2 37.2 0 0 1-.039 9.559l.423-3.15c-.579 4.078-1.792 8.014-3.39 11.805l1.193-2.827c-3.365 7.857-8.286 14.935-13.489 21.671l1.833-2.373c-6.207 8.006-12.885 15.634-19.13 23.61-6.363 8.126-12.725 16.468-16.996 25.928-1.306 2.892-2.871 6.064-3.61 9.197-.462 1.958-.615 4.098-.767 6.123-.142 1.888-.315 4.051.339 5.833v-5.143q-.053.327-.101.656c-.401 2.671-.445 5.027.975 7.453 1.174 2.006 3.475 3.92 5.781 4.445 2.476.564 5.256.442 7.453-.975 1.97-1.27 4.081-3.353 4.445-5.781q.048-.329.101-.656l-2.488 4.268c1.236-1.525 1.987-2.638 2.701-4.552.097-.259.185-.521.281-.781q.321-.862.677-1.711l-1.036 2.455c1.326-3.12 2.645-6.235 3.957-9.361l-1.102 2.612c3.058-7.167 7.463-13.659 12.204-19.809l-1.766 2.286c12.077-15.594 26.78-29.394 36.694-46.594 5.035-8.735 8.541-18.38 8.842-28.536.414-13.95-6.132-26.803-13.741-38.054-12.101-17.893-25.001-35.279-37.727-52.728-14.024-19.226-28.14-38.385-42.194-57.589-13.039-17.816-26.052-35.653-38.782-53.691q-2.041-2.893-4.071-5.794c-2.195-3.139-4.802-5.139-8.656-5.656-3.704-.498-7.259.586-9.953 3.259-13.863 13.755-27.177 28.087-39.452 43.285-11.872 14.699-22.941 30.072-32.413 46.436-9.095 15.712-16.74 32.335-22.63 49.511-6.018 17.549-9.808 35.647-11.966 54.059-2.2 18.773-2.292 37.756-.739 56.583.207 2.506.531 5.003.851 7.497.39 3.041.989 5.97 3.383 8.168 2.344 2.152 4.977 3.168 8.168 3.383a296 296 0 0 1 19.426 1.974l-2.947-.396c22.701 3.091 45.158 8.659 66.646 16.614 2.02.748 5.244.229 7.025-.919 1.693-1.092 2.944-2.496 3.73-4.36 1.604-3.8.419-9.53-3.73-11.385Zm154.812-15.601c-7.765 20.688-14.922 41.556-21.573 62.628-6.61 20.941-12.243 42.209-17.63 63.495a1624 1624 0 0 0-4.431 17.938c-1.676 6.954-3.433 13.94-3.987 21.091l.426-3.174c-.971 5.153-2.065 10.278-2.221 15.534-.164 5.505 4.335 10.157 9.591 10.864 2.358.317 4.993.016 7.053-1.313l2.239-1.73a11.05 11.05 0 0 0 2.845-4.881c.246-.603.5-1.202.717-1.817l-1.148 2.72c.947-2.212 1.729-4.143 2.297-6.432q.526-2.121 1.059-4.242c.71-2.829 1.651-5.583 2.399-8.408 1.494-5.639 2.62-11.379 3.912-17.068a1614 1614 0 0 1 8.184-34.308c2.832-11.327 5.955-22.576 8.837-33.888a1623 1623 0 0 1 9.076-34.07c3.516-12.641 6.992-25.295 10.652-37.896 1.384-4.764-1.679-10.544-6.627-11.671-2.429-.553-5.155-.433-7.311.956-2.182 1.407-3.449 3.242-4.36 5.67Zm-233.853 66.681c5.629.574 11.246 1.25 16.854 2.002l-2.224-.299c18.967 2.564 37.627 6.418 56.208 10.966 5.831 1.427 11.679 3.417 17.665 3.953l2.35-.316a6.66 6.66 0 0 0 3.006-1.582c1.461-1.129 2.746-2.741 3.168-4.592a10.5 10.5 0 0 0 0-4.7c-.443-1.944-2.24-4.403-4.062-5.283-1.881-.908-3.75-1.682-5.762-2.221a484 484 0 0 0-4.448-1.17c-2.89-.746-5.784-1.489-8.697-2.141a489 489 0 0 0-17.324-3.548c-12.179-2.265-24.448-4.065-36.757-5.456a467 467 0 0 0-19.977-1.811c-4.236-.296-8.286 3.936-8.099 8.099.094 2.095.782 4.267 2.372 5.727 1.672 1.535 3.475 2.143 5.727 2.372m-35.148 520.042a527 527 0 0 0-150.739 29.206c-8.923 3.135-18.043 6.686-24.771 13.333s-10.473 17.198-6.576 25.811c9.612 21.247 89.135 32.772 108.214 35.023 64.285 7.583 55.898 3.955 120.451 8.951 47.624 3.686 120.725 6.371 168.495 2.804-36.332.767-144.512-6.838-177.487-22.111s-59.368-51.329-51.17-86.732"/><path d="M333.236 849.865c-6.984-.289-14.022-.696-21.001-.363s-13.963.806-20.929 1.419c-14.562 1.281-29.123 3.657-43.485 6.368-13.682 2.583-27.196 5.833-40.586 9.653-13.755 3.924-27.629 8.098-40.759 13.814-12.925 5.627-24.738 15.786-28.037 30.055-2.53 10.944.147 22.507 8.641 30.099 5.453 4.873 11.789 8.342 18.474 11.195 8.309 3.545 16.814 6.421 25.526 8.804 15.774 4.314 31.891 7.4 48.044 9.904 17.133 2.656 34.395 4.542 51.654 6.153 14.126 1.318 28.264 1.99 42.433 2.608 20.433.892 40.803 2.556 61.209 3.883 23.06 1.5 46.157 2.494 69.26 3.001 23.32.512 46.681.583 69.986-.51 4.885-.229 9.767-.518 14.644-.884 3.147-.236 6.014-1.15 8.303-3.439 2.037-2.037 3.57-5.378 3.439-8.303-.28-6.249-5.163-11.883-11.742-11.742-12.311.264-24.648-.243-36.941-.869a1019 1019 0 0 1-49.17-3.694 851 851 0 0 1-28.744-3.335l3.097.416c-17.135-2.311-34.47-4.934-51.073-9.885-2.963-.884-5.904-1.859-8.773-3.014-.958-.386-2.682-1.23 1.471.63-.291-.13-.586-.254-.877-.384a82 82 0 0 1-3.267-1.559 96 96 0 0 1-7.518-4.212 99 99 0 0 1-7.406-5.074c-1.946-1.466 1.727 1.399.217.163-.542-.444-1.091-.879-1.63-1.327a99.5 99.5 0 0 1-9.764-9.306 93 93 0 0 1-4.075-4.759l-.557-.698c-1.375-1.716 1.32 1.769.544.703-3.813-5.238-7.222-10.68-9.853-16.616-1.034-2.334.962 2.401.041.09a72 72 0 0 1-2.327-6.793 68 68 0 0 1-1.992-9.477l.409 3.047c-.685-5.317-.71-10.662-.021-15.98l-.407 3.032a63 63 0 0 1 .936-5.174c1.311-5.796-1.767-12.596-7.952-14.005-5.786-1.318-12.599 1.739-14.005 7.952-2.873 12.697-2.473 25.898 1.339 38.368 3.86 12.63 10.616 24.013 19.12 34.049 13.524 15.961 31.801 27.546 51.863 33.28 17.753 5.074 36.201 7.689 54.468 10.105 20.023 2.648 40.154 4.536 60.303 5.918 16.117 1.105 32.296 1.993 48.456 1.938q2.043-.007 4.086-.046V961.58c-21.208 1.549-42.513 1.766-63.769 1.574-22.868-.206-45.733-.983-68.569-2.195-21.389-1.136-42.722-3.02-64.1-4.313-13.925-.842-27.873-1.241-41.796-2.122-17.66-1.118-35.295-3.035-52.847-5.247a466 466 0 0 1-3.303-.43l3.199.43c-21.469-2.891-42.996-6.774-63.799-12.881-6.12-1.797-12.182-3.821-18.069-6.283l2.894 1.221c-4.592-1.94-9.14-4.131-13.227-7.008-.417-.294-.821-.606-1.234-.904 3.793 2.74 1.949 1.529 1.085.792a26 26 0 0 1-2.09-1.985c-.323-.346-.62-.711-.931-1.066-.912-1.039 2.278 3.236 1.018 1.273a17.5 17.5 0 0 1-1.371-2.562l1.224 2.901a20 20 0 0 1-1.178-4.471l.434 3.229a22.6 22.6 0 0 1 .017-5.189l-.434 3.231c.307-2.159.88-4.221 1.69-6.244l-1.226 2.905c.911-2.138 2.06-4.08 3.388-5.982.726-1.041-2.091 2.526-.406.599q.488-.56 1.005-1.093c.902-.928 1.873-1.777 2.853-2.621 1.652-1.424-2.327 1.614-.392.299.451-.307.89-.63 1.344-.933q1.5-1.002 3.072-1.891c2.302-1.305 4.695-2.433 7.125-3.476l-2.891 1.22c9.532-4.013 19.495-7.145 29.366-10.2a526 526 0 0 1 30.42-8.425c10.462-2.56 20.923-5.042 31.501-7.089a526 526 0 0 1 19.22-3.351c.674-.105 4.982-.7 1.538-.266 3.442-.434 6.861-1.085 10.293-1.612 2.95-.453 5.911-.962 8.879-1.286-2.517.275-1.051.14-.498.068q1.497-.195 2.994-.386c1.497-.188 2.995-.373 4.494-.544 3.474-.396 7.275-.837 10.689-1.685-.941.234-3.291.634 1.483-.158.85-.141 1.691-.316 2.548-.439q.916-.131 1.833-.259.733-.102 1.467-.202-1.523.203-.014.002c2.3-.305 4.179-.728 5.891-2.44 1.445-1.445 2.533-3.815 2.44-5.891-.209-4.668-3.66-8.137-8.331-8.331Zm43.719-688.835a1823 1823 0 0 1 64.519 34.33c16.784-29.724 40.01-55.788 67.61-75.873 2.663-1.938 5.606-4.206 5.997-7.476.416-3.47-2.221-6.485-4.713-8.935-19.279-18.957-41.602-35.551-55.594-58.687-13.744 34.81-44.289 60.572-59.986 94.546-2.861 6.193-5.274 12.73-9.615 17.993"/><path d="M373.054 167.703c8.326 4.519 16.56 9.199 24.765 13.933s16.512 9.308 24.767 13.969q7.046 3.979 14.057 8.019c4.504 2.595 10.435 1.04 13.095-3.434 1.357-2.283 2.905-4.46 4.308-6.718a239 239 0 0 1 13.891-19.994l-1.578 2.042c9.712-12.545 20.509-24.302 32.497-34.711a244 244 0 0 1 10.556-8.651l-2.105 1.627c2.618-2.02 5.306-3.938 7.964-5.904 1.694-1.253 3.505-2.525 4.976-4.062 2.257-2.359 3.757-4.862 4.789-7.95 1.704-5.102.435-11.008-2.653-15.309-2.401-3.344-5.275-6.165-8.208-9.026-9.563-9.331-19.665-18.1-29.118-27.543-5.229-5.222-10.229-10.677-14.768-16.513l1.751 2.267c-2.729-3.532-5.277-7.194-7.595-11.009-2.348-3.866-6.692-5.947-11.16-5.347-2.015.271-3.688.961-5.298 2.205-2.067 1.597-3.045 3.378-4.014 5.818q-.52 1.312-1.07 2.613l1.129-2.675c-6.55 15.376-16.272 29.063-26.24 42.376-9.938 13.273-20.269 26.371-28.299 40.931-2.319 4.205-4.354 8.532-6.302 12.919-2.016 4.542-4.111 9.076-7.157 13.036l1.751-2.267q-.262.336-.533.664c-1.934 2.377-3.28 4.739-3.28 7.92 0 2.747 1.22 6.028 3.28 7.92 2.134 1.959 4.937 3.414 7.92 3.28 2.79-.125 6.079-1.018 7.92-3.28 3.449-4.24 6.128-8.661 8.389-13.622 1.844-4.044 3.592-8.121 5.642-12.068 3.97-7.643 8.638-14.899 13.587-21.94 9.942-14.144 21.042-27.461 30.442-41.988 5.716-8.834 10.537-18.08 14.42-27.864l-20.471 2.675c12.066 19.862 29.587 35.374 46.72 50.725a542 542 0 0 1 6.871 6.249c2.294 2.127 4.731 4.211 6.685 6.665l-1.693-2.191c.631.833 1.175 1.694 1.598 2.652l-1.087-2.577c.274.711.507 1.387.623 2.144l-.381-2.837c.047.507.048.992.001 1.499l.378-2.815a6.5 6.5 0 0 1-.367 1.37l1.063-2.519a9.7 9.7 0 0 1-1.08 1.834l1.646-2.131c-.932 1.174-2.045 2.151-3.22 3.074l2.123-1.64c-7.542 5.81-15.013 11.59-22.076 17.984a243 243 0 0 0-18.606 18.767c-3.828 4.311-7.475 8.766-10.999 13.328l1.584-2.05c-4.257 5.492-8.38 11.07-12.214 16.868a237 237 0 0 0-4.94 7.795c-1.645 2.711-3.025 5.505-4.524 8.292l13.095-3.434q-12.523-6.763-25.149-13.331c-12.626-6.568-17.017-8.453-25.619-12.495q-7.344-3.45-14.68-6.913c-1.915-.904-3.846-1.36-5.956-.779-1.793.494-3.736 1.88-4.619 3.552-1.906 3.607-1.022 8.515 2.773 10.575Z"/></svg>