<?xml version="1.0" encoding="UTF-8"?><svg xmlns="http://www.w3.org/2000/svg" data-name="ARTWORK" viewBox="0 0 1000 1000"><path d="M736.949 78.355c-75.9 13.408-150.973 30.377-225.946 48.216-74.561 17.74-149.001 36.096-223.108 55.654a10712 10712 0 0 0-193.484 53.003c-8.888 2.524-18.082 4.616-26.736 7.871-9.423 3.544-17.294 9.286-22.181 18.278-4.086 7.519-6.225 15.987-8.506 24.175a828 828 0 0 0-13.259 54.74 798 798 0 0 0-9.589 56.769c-1.251 9.457-2.366 18.935-3.273 28.432-.851 8.9-1.12 18.266 2.091 26.768 6.85 18.136 25.126 26.494 41.037 35.321a1045 1045 0 0 0 47.623 24.842 1088 1088 0 0 0 99.875 42.81 1047 1047 0 0 0 102.469 32.143c18.612 4.803 38.228 10.659 57.461 5.958 8.793-2.149 17.025-6.539 24.87-10.944 8.598-4.827 17.171-9.699 25.756-14.548 67.906-38.359 135.914-76.535 203.905-114.743l203.975-114.623 51.197-28.77c15.518-8.721 31.411-16.998 46.46-26.519 14.006-8.862 27.238-19.637 35.719-34.125 9.548-16.312 11.63-35.068 14.002-53.436l3.653-28.303c1.205-9.336 2.54-18.625-3.158-26.903-6.067-8.812-16.845-11.332-26.445-14.492a2012 2012 0 0 0-136.024-39.516c-17.797-4.497-35.689-8.56-53.592-12.607-7.021-1.587-14.437 2.144-16.408 9.316-1.844 6.711 2.259 14.813 9.316 16.408 35.774 8.088 71.326 17.414 106.587 27.493a2009 2009 0 0 1 77.623 23.894c4.285 1.414 8.569 2.832 12.841 4.285.946.322 1.905.621 2.834.989 1.491.592.224.053-.075-.029 3.1.848.651.845.602.107-.018-.266-.609-1.893-.691-2.002-.484-.64.063.197.061.939a36 36 0 0 1-.134 2.875c-.177 2.174-.532 4.341-.82 6.502l-1.825 13.695c-1.171 8.786-2.27 17.672-3.448 25.175-1.268 8.074-2.95 16.051-5.734 23.749-.722 1.997-2.371 5.257-4.128 8.106-2.491 4.04-2.645 4.143-5.598 7.316-5.298 5.692-9.54 8.987-14.765 12.545-6.252 4.258-12.81 8.042-19.396 11.754-16.332 9.205-32.697 18.354-49.046 27.53l-196.72 110.412c-65.844 36.956-131.615 74.045-197.541 110.854l-49.65 27.722c-8.067 4.504-16.122 9.032-24.202 13.512-7.474 4.144-12.09 6.994-20.219 8.397.613-.106 2.29-.118-1.165.127a54 54 0 0 1-3.411.131c-1.998.014-3.994-.097-5.984-.271-.713-.062-1.94-.208-3.76-.533a150 150 0 0 1-6.791-1.403c-8.612-1.955-17.168-4.193-25.701-6.461a1047 1047 0 0 1-49.916-14.603c-65.513-20.948-126.806-47.489-187.089-81.047-7.024-3.91-14.158-7.734-20.858-12.186-2.396-1.592-1.062-.745-.531-.318-.748-.602-1.477-1.254-2.168-1.916s-1.365-1.353-1.984-2.075c.208.243 1.054 1.531.15.124-.139-.217-1.587-2.758-1.008-1.543.51 1.072-.411-1.219-.397-1.171-.288-.999-.557-2.025-.738-3.052.346 1.963-.035-.917-.064-1.603-.356-8.44 1.01-17.032 1.962-25.399 1.138-10 2.167-17.715 3.597-27.49 2.273-15.538 5.56-34.155 9.042-50.731 3.665-17.447 7.645-34.959 12.733-52.053a99 99 0 0 1 1.534-4.687c.118-.336 1.105-2.371.211-.548a42 42 0 0 1 .951-1.845c.443-.802.904-1.592 1.431-2.342 1.269-1.805-1.2 1.137.41-.382 1.649-1.557 1.047-1.076 3.153-2.19 2.164-1.144-1.373.464.924-.439.718-.282 1.457-.52 2.19-.76 2.047-.671 4.128-1.245 6.198-1.842q7.042-2.029 14.088-4.045a10732 10732 0 0 1 160.627-44.66c71.342-19.24 142.806-38.03 214.477-56.01 71.951-18.05 144.175-34.98 216.156-52.892 17.459-4.345 34.799-9.175 52.199-13.759 11.219-2.956 6.355-19.076-4.72-17.12Z"/><path d="M63.777 278.849c47.966 20.385 96.432 39.555 144.749 59.085 28.825 11.651 57.327 23.958 86.94 33.537 31.661 10.241 64.725 19.217 98.208 14.531 32.832-4.595 64.084-19.018 94.669-31.146 30.694-12.171 61.222-24.758 91.648-37.584 59.444-25.06 118.504-51.016 177.86-76.283 59.87-25.485 120.087-50.207 181.245-72.453a2807 2807 0 0 1 23.697-8.497c4.991-1.765 8.324-6.696 6.849-12.063-1.321-4.807-7.058-8.658-12.063-6.849-61.369 22.185-121.972 46.459-182.109 71.779-58.853 24.779-117.318 50.465-176.06 75.505-29.87 12.732-59.82 25.276-89.917 37.464-30.452 12.331-61.019 25.689-92.486 35.232-15.198 4.609-30.713 7.702-46.657 7.207-15.927-.495-31.597-4.159-46.853-8.552-31.771-9.149-62.468-21.782-93.065-34.207-47.945-19.47-96.947-36.063-145.245-54.593a1732 1732 0 0 1-15.537-6.042c-7.959-3.143-13.818 10.555-5.873 13.931Z"/><path d="M369.791 383.893c-2.374 12.987-4.727 25.978-7.082 38.968s-4.279 25.936-6.377 38.905c-4.297 26.571-8.935 53.113-12.488 79.796-.954 7.164-1.819 14.344-2.391 21.55a375 375 0 0 0-.705 10.801 333 333 0 0 0-.237 5.654c-.03.898-.09 1.807-.078 2.706.022 1.716.398 3.435.732 5.117l1.007 2.387a7.56 7.56 0 0 0 2.574 2.804c1.685 1.302 3.866 2.243 6.054 2.145 4.265-.191 8.638-2.942 9.635-7.336 1.281-5.644.945-11.637 1.255-17.406.272-5.074.663-10.141 1.069-15.205.806-10.048 1.93-20.068 3.177-30.07 2.519-20.205 5.31-40.377 7.991-60.561l4.566-34.378-.302 2.25c1.098-7.979 1.872-16.012 2.781-24.014q1.264-11.129 2.511-22.259c.178-1.591-.893-3.875-2.042-4.93s-2.447-1.708-4.003-1.917c-3.168-.426-7.024 1.574-7.649 4.994Z"/><path d="M71.702 495.715c-1.776 18.741-3.443 37.417-4.356 56.227-.42 8.646-1.843 18.178 1.224 26.497 3.02 8.19 9.795 14.215 17.429 18.137 15.988 8.214 33.117 14.752 49.845 21.275 16.88 6.582 33.917 12.761 51.059 18.625 34.08 11.658 68.571 22.073 103.19 32.002 17.19 4.93 34.414 9.74 51.644 14.524 8.944 2.483 17.959 5.623 27.24 6.52 9.581.926 18.144-2.794 26.337-7.316 63.246-34.909 122.382-76.743 181.669-117.853l186.452-129.286 93.226-64.643c15.423-10.694 30.847-21.385 46.268-32.082 13.444-9.326 27.865-19.996 31.302-37.076 1.752-8.709.783-17.923-4.17-25.464-3.441-5.239-10.281-7.453-15.897-4.168-5.208 3.046-7.628 10.629-4.168 15.897 1.398 2.129 2.057 3.834 1.886 5.679-.077.83-.015 1.649-.119 2.484.087-.691.392-1.37-.208.627-.242.808-.447 1.626-.691 2.434-.085.282-.721 1.804-.243.747-2.543 5.623-7.827 10.406-12.584 13.909-14.191 10.45-28.979 20.159-43.468 30.191l-89.12 61.706-178.93 123.891c-57.24 39.633-114.06 80.153-173.941 115.761a1122 1122 0 0 1-22.913 13.271c-3.338 1.88-6.66 3.82-10.078 5.553-2.885 1.462-5.393 2.292-8.395 2.193-6.998-.232-15.829-3.782-23.158-5.811a9594 9594 0 0 1-24.682-6.864c-33.154-9.275-66.24-18.814-99.04-29.281-32.746-10.449-65.213-21.826-97.066-34.761-7.713-3.132-15.453-6.196-23.114-9.456-3.214-1.367-6.477-2.696-9.608-4.247-1.495-.741-3.124-1.543-4.42-2.605.02.017-.766-.973-1.03-1.619-1.046-2.564-.71-5.687-.609-8.771.151-4.642.349-9.284.525-13.925.333-8.82.487-17.634.621-26.46s-.173-17.641-.247-26.46c-.04-4.771-4.03-8.83-8.83-8.83-5.151 0-8.379 4.062-8.83 8.83Z"/><path d="M293.152 652.053c-21.644 11.217-43.185 22.553-64.512 34.362l-31.956 17.694-15.978 8.847c-4.692 2.598-9.635 4.929-14.048 7.994-5.865 4.073-10.173 9.116-12.65 15.86-2.067 5.629-2.288 11.841-2.775 17.775-.985 11.995-2.024 23.987-2.949 35.987-.275 3.568-1.044 7.551-.079 11.055.785 2.851 2.579 4.946 4.466 7.09a107 107 0 0 0 3.518 3.795c2.886 2.978 5.912 5.821 9.011 8.576 19.147 17.019 40.738 31.437 62.977 44.066 31.476 17.876 65.033 32.31 99.452 43.47a555 555 0 0 0 60.934 15.981c8.289 1.679 15.724 3.026 23.958.349 6.702-2.179 12.888-5.678 18.565-9.804 24.288-17.652 42.574-41.943 64.479-62.235C565.639 788 634.829 722.177 703.718 656.011c68.905-66.181 137.053-133.152 204.294-201.023q12.348-12.464 24.656-24.969c4.525-4.597 4.928-12.894 0-17.418-4.885-4.484-12.589-4.906-17.418 0-55.968 56.86-112.575 113.088-169.741 168.742-57.175 55.662-115.071 110.561-173.471 164.936a13853 13853 0 0 1-87.577 80.836c-9.637 8.82-19.171 17.512-28.059 27.083-8.496 9.149-16.947 18.36-26.037 26.93a211 211 0 0 1-6.331 5.745 159 159 0 0 1-3.522 2.975c-.579.475-1.195.92-1.756 1.415q-1.171.924.95-.723-.694.53-1.396 1.049a87 87 0 0 1-6.202 4.212 61 61 0 0 1-3.368 1.93 53 53 0 0 1-2.643 1.305q-1.922.85 1.242-.518c.134.235-5.351 1.429-5.63 1.632 1.684-1.23 3.327-.187 1.164-.198-.388-.002-.773.033-1.162.029-.451-.005-.977-.123-1.421-.075q-1.647-.162 2.162.283a558 558 0 0 1-29.255-6.374 551 551 0 0 1-48.427-14.295 540 540 0 0 1-32.576-12.458c2.532 1.063.172.067-.461-.204a543 543 0 0 1-8.18-3.593c-23.643-10.626-46.569-22.982-68.151-37.358a372 372 0 0 1-12.673-8.816 385 385 0 0 1-5.872-4.371c-2.83-2.142 2.173 1.732-.609-.47-.882-.698-1.767-1.393-2.644-2.097-5.964-4.787-11.768-9.804-17.168-15.226a111 111 0 0 1-5.86-6.323l3.92 9.464c1.024-13.739 1.897-27.489 2.813-41.235.202-3.033.379-6.069.655-9.097-.196 2.143.35-1.547.53-2.211.162-.6.317-1.237.548-1.815-.517 1.295-.086.355.342-.312-1.188 1.852.825-.741 1.41-1.282 1.05-.972-.101.052-.299.196.632-.46 1.297-.889 1.953-1.31 2.693-1.728 5.485-3.315 8.245-4.93 24.068-14.084 48.435-27.721 72.305-42.135 13.461-8.128 26.784-16.498 40.146-24.789 10.866-6.742 1.313-22.954-9.993-17.096Z"/><path d="M893.278 327.046c-7.489 8.304-12.998 18.046-16.002 28.84-3.028 10.881-3.404 22.561-.572 33.526 2.588 10.022 8.186 19.733 15.752 26.828 8.508 7.978 19.676 12.683 31.393 12.707 24.047.049 43.66-17.682 53.763-38.258 5.334-10.864 8.599-22.714 9.272-34.813.651-11.692-1.71-23.504-6.656-34.097-4.448-9.526-11.95-17.636-20.712-23.363-4.273-2.793-9.116-4.983-14.012-6.404-6.291-1.825-12.997-2.269-19.405-.8-4.102.94-7.709 3.038-10.705 5.98-4.242 4.164-4.488 11.017-.93 15.622 3.725 4.821 10.005 5.809 15.348 3.064.362-.186.724-.359 1.095-.525l-2.886 1.218c1.826-.755 3.657-1.498 5.478-2.27l-2.937 1.24a19.3 19.3 0 0 1 4.181-1.116l-3.249.437c2.258-.303 4.518-.261 6.775.019l-3.219-.433c3.253.446 6.412 1.342 9.445 2.593l-2.854-1.204c3.339 1.412 6.436 3.271 9.308 5.48l-2.396-1.851a47.6 47.6 0 0 1 8.299 8.351l-1.838-2.379a48.2 48.2 0 0 1 6.046 10.389l-1.176-2.788a45.6 45.6 0 0 1 3.08 11.331l-.419-3.12c.708 5.438.626 10.923-.071 16.358l.434-3.229a82.3 82.3 0 0 1-5.688 20.902l1.262-2.991c-2.791 6.563-6.186 12.875-10.535 18.544l1.968-2.547c-2.943 3.787-6.274 7.24-10.055 10.198l2.545-1.967c-3.098 2.384-6.448 4.375-10.044 5.911l3.003-1.267c-3.2 1.33-6.523 2.274-9.954 2.77l3.34-.449c-3.125.416-6.262.446-9.39.04l3.339.449a33 33 0 0 1-7.868-2.13l2.999 1.266c-2.885-1.218-5.564-2.82-8.042-4.732l2.54 1.962a356 356 0 0 0-3.367-2.612l2.537 1.96c-2.702-2.165-5.103-4.65-7.22-7.388l1.93 2.498c-2.609-3.431-4.674-7.171-6.368-11.129l1.217 2.884a50 50 0 0 1-3.406-12.456l.415 3.087a59.7 59.7 0 0 1 .014-15.595l-.391 2.911a64.5 64.5 0 0 1 4.467-16.188l-1.027 2.434c.524-1.175.998-2.37 1.494-3.556l-1.02 2.416a65.4 65.4 0 0 1 6.2-11.35c1.245-1.819 1.602-5.057.932-7.127-.631-1.95-1.686-3.546-3.314-4.804-3.468-2.679-9.044-2.714-12.144.723Z"/><path d="M934.017 345.953c-3.317 2.926-5.819 6.857-7.107 11.082a20 20 0 0 0-.567 2.348c-.176.984-.391 2.012-.423 3.004s.183 1.982.362 2.959c.296 1.609.669 3.264 1.173 4.82 1.026 3.167 3.945 5.21 7.292 4.761 3.151-.423 5.876-3.205 5.763-6.527-.034-.982.005-1.957.11-2.934l-.252 1.876c.125-.55.289-1.09.472-1.622.401-1.17.542-2.159.714-3.465l-.279 2.076c.322-2.214 1.016-4.352 1.879-6.411l-.775 1.837a22 22 0 0 1 2.694-4.604l-1.141 1.476q.166-.214.338-.421c1.252-1.538 2.124-3.069 2.124-5.127 0-1.778-.79-3.902-2.124-5.127-1.382-1.268-3.196-2.21-5.127-2.124-1.99.089-3.626.799-5.127 2.124ZM182.53 749.186c12.719 8.128 25.47 16.209 38.363 24.058s26.045 15.302 39.393 22.389c13.296 7.06 26.791 13.752 40.525 19.919 14.238 6.393 28.709 12.231 43.482 17.274a435 435 0 0 0 21.331 6.685c7.243 2.064 14.546 4.113 21.973 5.388 2.414.415 4.829.758 7.27.977 1.84.166 4.391-.989 5.62-2.328 1.205-1.313 1.947-2.789 2.186-4.563.543-4.045-1.907-7.416-5.693-8.72-5.303-1.826-10.767-3.093-16.188-4.514s-10.792-2.951-16.14-4.59c-10.692-3.275-21.253-6.971-31.677-11.017a658 658 0 0 1-17.433-7.043l2.087.881c-17.257-7.286-34.143-15.423-50.729-24.124-16.701-8.762-33.183-17.995-49.528-27.402a1631 1631 0 0 1-27.336-16.112c-3.336-2.008-8.315-.852-10.174 2.668-1.946 3.682-.837 7.934 2.668 10.174"/><path d="M400.256 843.32a34898 34898 0 0 1 89.972-80.694c30.713-27.46 61.737-54.567 92.473-82.002 32.045-28.604 64.152-57.139 96.193-85.748l101.994-91.07c16.441-14.68 32.876-29.368 49.595-43.732a1523 1523 0 0 1 25.259-21.261q6.191-5.093 12.453-10.098a1091 1091 0 0 1 9.621-7.599 846 846 0 0 1 2.565-1.994c4.235-3.257 8.481-6.501 12.761-9.7 3.941-2.945 6.361-8.293 3.385-12.908-2.514-3.899-8.68-6.544-12.908-3.385-35.659 26.649-69.048 56.126-102.219 85.768-34.057 30.434-68.053 60.935-102.078 91.405a74223 74223 0 0 0-97.606 87.577c-30.663 27.558-60.994 55.472-91.541 83.157-30.167 27.341-60.322 54.695-90.411 82.123q-5.144 4.69-10.287 9.382c-3.042 2.776-2.817 7.962 0 10.779 3.043 3.043 7.711 2.762 10.779 0"/><path d="M312.414 665.575c53.114 21.55 111.697 24.705 169.009 25.579 15.378.234 30.881.314 45.976-2.632 53.943-10.527 92.397-56.373 131.361-95.134 71.27-70.898 157.567-125.759 225.876-199.515-7.628-6.573-10.579-18.05-7.068-27.487-138.37 89.548-276.864 179.182-408.837 277.915-19.896 14.885-40.09 30.217-63.61 38.233"/><path d="M308.309 672.598c21.962 9.368 45.218 16.987 68.769 21.113 24.073 4.217 48.402 6.418 72.807 7.393 24.685.986 49.91 2.393 74.439-1.145 20.559-2.965 40.16-11.369 57.565-22.548 35.044-22.509 62.177-54.638 91.904-83.299 32.949-31.767 68.717-60.396 104.221-89.214 35.456-28.779 70.823-57.864 102.865-90.477 4.016-4.087 7.966-8.238 11.899-12.406 4.115-4.361 4.718-11.996 0-16.285a34 34 0 0 1-2.288-2.314c-1.24-1.366.417.19.315.41.052-.112-.791-1.209-.884-1.364-.28-.465-.522-.951-.794-1.42-.774-1.337.118-.119.151.552-.051-1.04-.87-2.461-1.125-3.487-.131-.526-.205-1.072-.344-1.595-.396-1.489.109 2.218.088.68-.015-1.088-.123-2.16-.08-3.252.016-.392.271-2.206-.036-.467-.314 1.777.038-.097.111-.446.251-1.201.608-2.361 1.024-3.514 1.584-4.387-.769-9.706-4.218-12.371-3.604-2.784-9.08-3.456-13.071-.92-31.66 20.112-63.047 40.673-94.485 61.13-31.288 20.36-62.504 40.831-93.558 61.546-31.202 20.813-62.259 41.845-93.091 63.203-30.675 21.249-61.128 42.82-91.274 64.812-14.822 10.813-29.513 21.8-44.244 32.738-13.733 10.197-27.808 20.179-43.371 27.418-.908.423-1.833.812-2.739 1.238-1.247.587.431-.169.571-.227q-.695.288-1.393.569a131 131 0 0 1-6.123 2.276c-5.938 2.052-10.498 8.345-8.407 14.807 1.903 5.881 8.435 10.61 14.807 8.407 33.905-11.719 61.595-35.998 90.071-56.961 30.349-22.342 61.025-44.24 91.937-65.796 30.765-21.453 61.766-42.567 92.922-63.447 31.164-20.886 62.475-41.553 93.857-62.109 31.538-20.658 63.159-41.191 94.788-61.709 3.876-2.515 7.754-5.026 11.611-7.569l-17.289-13.291c-4.56 13.324-.312 29.457 10.274 38.758V385.73c-30.434 33.364-65.08 62.733-99.892 91.376s-70.46 56.805-103.725 87.49c-15.586 14.377-30.33 29.562-45.198 44.667-6.975 7.086-14.014 14.114-21.278 20.906a380 380 0 0 1-11.334 10.205 302 302 0 0 1-5.45 4.593 280 280 0 0 1-4.142 3.34c-.253.199-2.626 2.017-.587.47-7.661 5.813-15.601 11.239-24.026 15.892-4.292 2.371-8.693 4.506-13.182 6.478 2.204-.968-.738.289-1.406.552q-1.611.633-3.239 1.224a127 127 0 0 1-7.009 2.319 122 122 0 0 1-15.285 3.521c-.722.118-1.446.219-2.168.335-1.826.293 1.455-.137-.385.049-1.455.147-2.905.331-4.361.465-3.097.286-6.202.484-9.31.615-12.058.51-24.157.173-36.218-.093-23.47-.518-47.005-1.571-70.351-4.112a457 457 0 0 1-8.321-.981c-.235-.03-2.378-.306-1.228-.155s-.995-.137-1.23-.17a407 407 0 0 1-4.668-.678c-6.865-1.039-10.523-1.533-17.603-2.751-11.49-1.976-22.901-4.466-34.04-7.926a277 277 0 0 1-16.282-5.63c-3.736-1.422-8.211 1.269-9.595 4.709-1.354 3.365-.444 8.548 3.328 10.156Zm85.449 163.958c-1.299 9.255-1.969 18.533-1.633 27.881.178 4.949.856 9.901 1.587 14.793a146.5 146.5 0 0 0 4.423 19.961c1.029 3.471 1.919 7.408 4.499 10.056 2.363 2.425 6.137 3.028 9.189 1.739a8.03 8.03 0 0 0 3.365-2.591c1.22-1.579 1.599-3.101 1.806-5.097.301-2.9-1.351-6.192-2.164-8.951a146 146 0 0 1-1.92-7.188 149 149 0 0 1-2.732-14.622l.31 2.31c-1.597-11.984-2.156-24.123-1.121-36.179.159-1.845-.984-4.386-2.328-5.62-1.313-1.205-2.789-1.947-4.563-2.186-1.694-.228-3.587-.011-5.068.943-1.609 1.037-3.373 2.76-3.652 4.75Z"/></svg>