<?xml version="1.0" encoding="UTF-8"?><svg xmlns="http://www.w3.org/2000/svg" data-name="ARTWORK" viewBox="0 0 1000 1000"><path d="M933.307 425.026c-16.546-6.955-33.194-13.67-49.844-20.372l-7.641-3.072-1.958-.786-.393-.158q2.68 1.167-1.579-.651c-1.603-.651-3.217-1.276-4.822-1.922q-8.607-3.467-17.218-6.926a24513 24513 0 0 0-38.047-15.235c-58.748-23.469-117.499-46.939-176.373-70.088-55.257-21.726-110.483-43.534-165.716-65.321-19.88-7.842-39.748-15.715-59.533-23.794-29.143-11.901-62.622-30.515-94.541-18.446-12.109 4.578-22.397 12.914-33 20.166-9.846 6.734-19.688 13.473-29.536 20.204-19.37 13.242-38.678 26.572-58.095 39.745-34.888 23.669-70.029 46.979-105.863 69.197-16.805 10.419-34.777 19.668-50.725 31.374-8.305 6.096-16.257 13.213-20.613 22.764-4.622 10.134-5.072 21.788-5.439 32.783-.381 11.401.527 22.549 1.627 33.872 1.119 11.512-1.23 23.279 2.143 34.581 7.181 24.061 34.107 30.262 54.726 38.397 91.142 35.96 180.656 75.608 269.891 116.023 89.551 40.558 179.091 81.219 270.401 117.707a3010 3010 0 0 0 34.808 13.67c11.839 4.561 23.684 9.584 35.96 12.863 12.71 3.395 25.988 4.523 38.865 1.356 11.136-2.739 21.452-8.507 30.826-14.97 39.967-27.559 74.914-61.952 108.886-96.406 33.983-34.464 67.89-69.274 97.441-107.699 6.996-9.097 13.072-18.663 16.64-29.655 3.416-10.525 4.13-21.853 5.337-32.787.365-3.307.738-6.613 1.142-9.915q.341-2.794.711-5.586c-.377 2.836.437-3.037.555-3.839 1.489-10.121 3.301-20.189 5.327-30.215 1.403-6.943-1.999-14.178-9.169-16.148-6.477-1.78-14.737 2.186-16.148 9.169-3.719 18.408-6.512 36.949-8.584 55.612-.304 2.742-.598 5.485-.91 8.226q-.223 1.95-.46 3.898c-.502 4.155.383-2.255-.164 1.214-.681 4.318-1.471 8.606-2.781 12.784a60 60 0 0 1-1.029 3.004c-.15.402-.744 1.388-.705 1.801-.012-.13 1.459-3.146.547-1.328-1.159 2.31-2.251 4.623-3.562 6.857a101 101 0 0 1-3.89 6.083 144 144 0 0 1-2.602 3.656c-.569.775-1.15 1.54-1.727 2.31-1.639 2.188 1.492-1.843-.452.573-14.741 18.315-30 36.151-45.951 53.426-32.017 34.675-65.27 68.789-100.261 100.478-16.735 15.156-34.099 29.975-52.828 42.638-8.539 5.774-16.902 10.882-27.075 12.183-10.426 1.334-21.954-2.125-32.161-5.725-45.767-16.142-90.692-35.291-135.322-54.313-43.854-18.691-87.399-38.098-130.854-57.698-87.372-39.41-174.465-79.473-263.05-116.117-22.333-9.238-44.755-18.235-67.341-26.837-10.21-3.888-22.518-7.704-30.851-11.985-4.009-2.06-5.976-3.167-8.296-6.098 1.247 1.576-1.286-2.34-1.168-2.089.15.321.918 2.757-.44-1.213-.906-2.649-.962-4.03-1.051-7.25-.148-5.304.294-10.604.19-15.908-.101-5.188-.951-10.327-1.32-15.5a203.4 203.4 0 0 1 .373-33.66c.345-3.629.483-7.12 2.213-11.158-.859 2.005.306-.421.593-.865.566-.874 1.075-1.781 1.662-2.645-1.159 1.705.371-.469.719-.867a49 49 0 0 1 3.124-3.245c5.327-5.064 12.91-9.402 20.609-13.851 73.633-42.545 143.907-90.921 214.016-138.957 10.077-6.904 20.154-13.81 30.235-20.707 4.003-2.739 9.299-6.411 12.562-7.468 5.827-1.888 7.597-2.28 13.898-2.198 5.026.065 6.399.266 11.339 1.331 5.588 1.205 11.063 2.898 16.443 4.817 7.752 2.765 15.31 6.026 22.901 9.197 16.647 6.954 33.411 13.631 50.179 20.287 51.316 20.369 102.878 40.087 154.468 59.747 58.857 22.43 117.838 44.527 176.784 66.723 45.742 17.223 91.511 34.388 137.022 52.214 6.868 2.69 13.729 5.397 20.57 8.155 5.044 2.033 11.059-2.215 12.382-7.03 1.596-5.81-1.997-10.267-7.03-12.382Z"/><path d="M31.188 419.893c33.941 14.877 67.602 30.392 101.468 45.442 32.668 14.517 65.323 29.061 97.993 43.573 64.409 28.609 128.959 56.898 193.87 84.354 66.089 27.954 132.704 54.71 199.817 80.108a4933 4933 0 0 0 52.376 19.484c8.735 3.193 18.221 8.048 27.745 6.973 8.695-.981 15.557-6.301 22.465-11.23 27.89-19.899 54.155-41.954 79.457-65.028 48.885-44.582 94.683-92.787 147.541-132.835a678 678 0 0 1 20.716-15.076c4.838-3.386 7.085-9.579 3.927-14.978-2.79-4.771-10.123-7.354-14.978-3.927-54.714 38.621-101.994 85.704-150.355 131.719-23.968 22.806-48.421 45.14-74.378 65.681a616 616 0 0 1-19.472 14.777c-3.174 2.314-6.354 4.63-9.592 6.854-2.469 1.695-5.294 3.984-8.392 3.933-3.792-.063-8.06-2.394-11.568-3.682a4758 4758 0 0 1-39.067-14.538c-66.629-25.119-132.668-51.744-198.346-79.245-63.638-26.646-126.969-53.988-190.273-81.416-65.815-28.516-131.397-57.632-197.759-84.858-8.3-3.405-16.551-6.928-24.814-10.424-4.126-1.746-8.893-1.239-11.36 2.979-2.06 3.522-1.15 9.551 2.979 11.36"/><path d="M140.414 408.624a26 26 0 0 1-1.69-.61l2.062.87c-1.437-.612-2.892-1.128-4.337-1.71l2.124.896a8.7 8.7 0 0 1-1.69-.953l1.818 1.405a6 6 0 0 1-1.022-1.011l1.416 1.832a5.6 5.6 0 0 1-.571-.976l.918 2.175a5.7 5.7 0 0 1-.349-1.242l.328 2.437c-.087-.937-.238-1.88-.372-2.811l.328 2.442a8 8 0 0 1 .031-1.746l-.329 2.45c.161-1.131.504-2.211.936-3.266l-.935 2.216c1.444-3.413 3.706-6.516 5.939-9.448l-1.475 1.909a13 13 0 0 1 2.351-2.375l-1.916 1.48c7.996-6.031 17.209-10.868 26.398-14.782l-2.322.98c4.436-1.871 9.058-3.587 13.85-4.249l-2.597.349c2.512-.32 5.007-.156 7.51.179l-2.606-.35c9.592 1.327 19.118 4.306 28.03 8.04l-2.399-1.013c4.247 1.795 8.577 3.742 12.25 6.573l-2.036-1.573c1.885 1.482 3.429 3.345 4.892 5.233l-1.572-2.035c1.6 2.101 3.022 4.327 4.083 6.751l-1.013-2.401c.602 1.436 1.057 2.905 1.28 4.449l-.359-2.671c.125 1.04.136 2.065.001 3.105l.359-2.671c-.132.824-.35 1.607-.666 2.379l1.013-2.4a11.2 11.2 0 0 1-1.344 2.242l1.571-2.033c-.951 1.163-2.09 2.058-3.272 2.975l2.032-1.57c-7.275 5.617-14.894 11.112-23.399 14.722l2.395-1.011c-3.362 1.403-6.848 2.459-10.462 2.96l2.664-.358c-2.914.38-5.854.355-8.768-.016l2.675.359c-2.981-.403-5.896-1.157-8.73-2.158-4.596-1.623-9.133-3.438-13.692-5.161l-28.759-10.871c-2.374-.898-5.86-.193-7.971 1.043-2.146 1.256-4.192 3.716-4.754 6.182-.603 2.648-.473 5.62 1.043 7.971 1.528 2.369 3.532 3.784 6.182 4.754l37.916 13.884c4.227 1.548 8.388 3.049 12.863 3.689 2.624.375 5.232.72 7.886.678 2.727-.043 5.471-.417 8.151-.884 4.729-.824 9.232-2.646 13.561-4.67 4.649-2.173 9.024-4.906 13.238-7.822a189 189 0 0 0 7.326-5.357c3.322-2.543 6.629-4.893 8.651-8.691 1.707-3.206 2.75-6.986 2.455-10.642-.321-3.979-1.33-7.181-2.997-10.787-1.011-2.187-2.342-4.204-3.793-6.121-1.669-2.206-3.381-4.567-5.451-6.432-3.015-2.717-6.483-4.869-10.112-6.654-8.318-4.093-17.292-7.072-26.313-9.171-4.434-1.032-8.948-1.809-13.483-2.226-4.003-.368-7.985.066-11.894 1.02-5.148 1.257-10.105 3.384-14.912 5.571-4.464 2.031-8.791 4.345-13.001 6.859a130 130 0 0 0-10.204 6.763c-1.731 1.268-3.488 2.501-4.833 4.184-1.595 1.994-3.061 4.079-4.46 6.214-1.965 2.998-3.76 6.422-4.553 9.927-.627 2.773-.855 5.735-.063 8.508.973 3.407 3.101 6.063 5.999 8.037 1.207.822 2.651 1.38 4.012 1.846.444.152.9.267 1.359.362q.305.062.612.115c2.091.369 2.88.245 4.976-.039l-2.315.311c1.446-.091 2.883-.309 4.313-.531l1.961-.828a6.2 6.2 0 0 0 2.304-2.115c1.07-1.385 1.843-3.176 1.763-4.975-.167-3.736-2.456-6.762-6.028-7.917Zm118.17 45.641a26 26 0 0 1-1.69-.61l2.062.87c-1.437-.612-2.892-1.128-4.337-1.71l2.124.896a8.7 8.7 0 0 1-1.69-.953l1.818 1.405a6 6 0 0 1-1.022-1.011l1.416 1.832a5.6 5.6 0 0 1-.571-.976l.918 2.175a5.7 5.7 0 0 1-.349-1.242l.328 2.437c-.087-.937-.238-1.88-.372-2.811l.328 2.442a8 8 0 0 1 .031-1.746l-.329 2.45c.161-1.131.504-2.211.936-3.266l-.935 2.216c1.444-3.413 3.706-6.516 5.939-9.448l-1.475 1.909a13 13 0 0 1 2.351-2.375l-1.916 1.48c7.996-6.031 17.209-10.868 26.398-14.782l-2.322.98c4.436-1.871 9.058-3.587 13.85-4.249l-2.597.349c2.512-.32 5.007-.156 7.51.179l-2.606-.35c9.592 1.327 19.118 4.306 28.03 8.04l-2.399-1.013c4.247 1.795 8.577 3.742 12.25 6.573l-2.036-1.573c1.885 1.482 3.429 3.345 4.892 5.233l-1.572-2.035c1.6 2.101 3.022 4.327 4.083 6.751l-1.013-2.401c.602 1.436 1.057 2.905 1.28 4.449l-.359-2.671c.125 1.04.136 2.065.001 3.105l.359-2.671c-.132.824-.35 1.607-.666 2.379l1.013-2.4a11.2 11.2 0 0 1-1.344 2.242l1.571-2.033c-.951 1.163-2.09 2.058-3.272 2.975l2.032-1.57c-7.275 5.617-14.894 11.112-23.399 14.722l2.395-1.011c-3.362 1.403-6.848 2.459-10.462 2.96l2.664-.358c-2.914.38-5.854.355-8.768-.016l2.675.359c-2.981-.403-5.896-1.157-8.73-2.158-4.596-1.623-9.133-3.438-13.692-5.161l-28.759-10.871c-2.374-.898-5.86-.193-7.971 1.043-2.146 1.256-4.192 3.716-4.754 6.182-.603 2.648-.473 5.62 1.043 7.971 1.528 2.369 3.532 3.784 6.182 4.754l37.916 13.884c4.227 1.548 8.388 3.049 12.863 3.689 2.624.375 5.232.72 7.886.678 2.727-.043 5.471-.417 8.151-.884 4.729-.824 9.232-2.646 13.561-4.67 4.649-2.173 9.024-4.906 13.238-7.822a189 189 0 0 0 7.326-5.357c3.322-2.543 6.629-4.893 8.651-8.691 1.707-3.206 2.75-6.986 2.455-10.642-.321-3.979-1.33-7.181-2.997-10.787-1.011-2.187-2.342-4.204-3.793-6.121-1.669-2.206-3.381-4.567-5.451-6.432-3.015-2.717-6.483-4.869-10.112-6.654-8.318-4.093-17.292-7.072-26.313-9.171-4.434-1.032-8.948-1.809-13.483-2.226-4.003-.368-7.985.066-11.894 1.02-5.148 1.257-10.105 3.384-14.912 5.571-4.464 2.031-8.791 4.345-13.001 6.859a130 130 0 0 0-10.204 6.763c-1.731 1.268-3.488 2.501-4.833 4.184-1.595 1.994-3.061 4.079-4.46 6.214-1.965 2.998-3.76 6.422-4.553 9.927-.627 2.773-.855 5.735-.063 8.508.973 3.407 3.101 6.063 5.999 8.037 1.207.822 2.651 1.38 4.012 1.846.444.152.9.267 1.359.362q.305.062.612.115c2.091.369 2.88.245 4.976-.039l-2.315.311c1.446-.091 2.883-.309 4.313-.531l1.961-.828a6.2 6.2 0 0 0 2.304-2.115c1.07-1.385 1.843-3.176 1.763-4.975-.167-3.736-2.456-6.762-6.028-7.917Zm118.171 45.641a26 26 0 0 1-1.69-.61l2.062.87c-1.437-.612-2.892-1.128-4.337-1.71l2.124.896a8.7 8.7 0 0 1-1.69-.953l1.818 1.405a6 6 0 0 1-1.022-1.011l1.416 1.832a5.6 5.6 0 0 1-.571-.976l.918 2.175a5.7 5.7 0 0 1-.349-1.242l.328 2.437c-.087-.937-.238-1.88-.372-2.811l.328 2.442a8 8 0 0 1 .031-1.746l-.329 2.45c.161-1.131.504-2.211.936-3.266l-.935 2.216c1.444-3.413 3.706-6.516 5.939-9.448l-1.475 1.909a13 13 0 0 1 2.351-2.375l-1.916 1.48c7.996-6.031 17.209-10.868 26.398-14.782l-2.322.98c4.436-1.871 9.058-3.587 13.85-4.249l-2.597.349c2.512-.32 5.007-.156 7.51.179l-2.606-.35c9.592 1.327 19.118 4.306 28.03 8.04l-2.399-1.013c4.247 1.795 8.577 3.742 12.25 6.573l-2.036-1.573c1.885 1.482 3.429 3.345 4.892 5.233l-1.572-2.035c1.6 2.101 3.022 4.327 4.083 6.751l-1.013-2.401c.602 1.436 1.057 2.905 1.28 4.449l-.359-2.671c.125 1.04.136 2.065.001 3.105l.359-2.671c-.132.824-.35 1.607-.666 2.379l1.013-2.4a11.2 11.2 0 0 1-1.344 2.242l1.571-2.033c-.951 1.163-2.09 2.058-3.272 2.975l2.032-1.57c-7.275 5.617-14.894 11.112-23.399 14.722l2.395-1.011c-3.362 1.403-6.848 2.459-10.462 2.96l2.664-.358c-2.914.38-5.854.355-8.768-.016l2.675.359c-2.981-.403-5.896-1.157-8.73-2.158-4.596-1.623-9.133-3.438-13.692-5.161l-28.759-10.871c-2.374-.898-5.86-.193-7.971 1.043-2.146 1.256-4.192 3.716-4.754 6.182-.603 2.648-.473 5.62 1.043 7.971 1.528 2.369 3.532 3.784 6.182 4.754l37.916 13.884c4.227 1.548 8.388 3.049 12.863 3.689 2.624.375 5.232.72 7.886.678 2.727-.043 5.471-.417 8.151-.884 4.729-.824 9.232-2.646 13.561-4.67 4.649-2.173 9.024-4.906 13.238-7.822a189 189 0 0 0 7.326-5.357c3.322-2.543 6.629-4.893 8.651-8.691 1.707-3.206 2.75-6.986 2.455-10.642-.321-3.979-1.33-7.181-2.997-10.787-1.011-2.187-2.342-4.204-3.793-6.121-1.669-2.206-3.381-4.567-5.451-6.432-3.015-2.717-6.483-4.869-10.112-6.654-8.318-4.093-17.292-7.072-26.313-9.171-4.434-1.032-8.948-1.809-13.483-2.226-4.003-.368-7.985.066-11.894 1.02-5.148 1.257-10.105 3.384-14.912 5.571-4.464 2.031-8.791 4.345-13.001 6.859a130 130 0 0 0-10.204 6.763c-1.731 1.268-3.488 2.501-4.833 4.184-1.595 1.994-3.061 4.079-4.46 6.214-1.965 2.998-3.76 6.422-4.553 9.927-.627 2.773-.855 5.735-.063 8.508.973 3.407 3.101 6.063 5.999 8.037 1.207.822 2.651 1.38 4.012 1.846.444.152.9.267 1.359.362q.305.062.612.115c2.091.369 2.88.245 4.976-.039l-2.315.311c1.446-.091 2.883-.309 4.313-.531l1.961-.828a6.2 6.2 0 0 0 2.304-2.115c1.07-1.385 1.843-3.176 1.763-4.975-.167-3.736-2.456-6.762-6.028-7.917Zm118.17 45.641a26 26 0 0 1-1.69-.61l2.062.87c-1.437-.612-2.892-1.128-4.337-1.71l2.124.896a8.7 8.7 0 0 1-1.69-.953l1.818 1.405a6 6 0 0 1-1.022-1.011l1.416 1.832a5.6 5.6 0 0 1-.571-.976l.918 2.175a5.7 5.7 0 0 1-.349-1.242l.328 2.437c-.087-.937-.238-1.88-.372-2.811l.328 2.442a8 8 0 0 1 .031-1.746l-.329 2.45c.161-1.131.504-2.211.936-3.266l-.935 2.216c1.444-3.413 3.706-6.516 5.939-9.448l-1.475 1.909a13 13 0 0 1 2.351-2.375l-1.916 1.48c7.996-6.031 17.209-10.868 26.398-14.782l-2.322.98c4.436-1.871 9.058-3.587 13.85-4.249l-2.597.349c2.512-.32 5.007-.156 7.51.179l-2.606-.35c9.592 1.327 19.118 4.306 28.03 8.04l-2.399-1.013c4.247 1.795 8.577 3.742 12.25 6.573l-2.036-1.573c1.885 1.482 3.429 3.345 4.892 5.233l-1.572-2.035c1.6 2.101 3.022 4.327 4.083 6.751l-1.013-2.401c.602 1.436 1.057 2.905 1.28 4.449l-.359-2.671c.125 1.04.136 2.065.001 3.105l.359-2.671c-.132.824-.35 1.607-.666 2.379l1.013-2.4a11.2 11.2 0 0 1-1.344 2.242l1.571-2.033c-.951 1.163-2.09 2.058-3.272 2.975l2.032-1.57c-7.275 5.617-14.894 11.112-23.399 14.722l2.395-1.011c-3.362 1.403-6.848 2.459-10.462 2.96l2.664-.358c-2.914.38-5.854.355-8.768-.016l2.675.359c-2.981-.403-5.896-1.157-8.73-2.158-4.596-1.623-9.133-3.438-13.692-5.161l-28.759-10.871c-2.374-.898-5.86-.193-7.971 1.043-2.146 1.256-4.192 3.716-4.754 6.182-.603 2.648-.473 5.62 1.043 7.971 1.528 2.369 3.532 3.784 6.182 4.754l37.916 13.884c4.227 1.548 8.388 3.049 12.863 3.689 2.624.375 5.232.72 7.886.678 2.727-.043 5.471-.417 8.151-.884 4.729-.824 9.232-2.646 13.561-4.67 4.649-2.173 9.024-4.906 13.238-7.822a189 189 0 0 0 7.326-5.357c3.322-2.543 6.629-4.893 8.651-8.691 1.707-3.206 2.75-6.986 2.455-10.642-.321-3.979-1.33-7.181-2.997-10.787-1.011-2.187-2.342-4.204-3.793-6.121-1.669-2.206-3.381-4.567-5.451-6.432-3.015-2.717-6.483-4.869-10.112-6.654-8.318-4.093-17.292-7.072-26.313-9.171-4.434-1.032-8.948-1.809-13.483-2.226-4.003-.368-7.985.066-11.894 1.02-5.148 1.257-10.105 3.384-14.912 5.571-4.464 2.031-8.791 4.345-13.001 6.859a130 130 0 0 0-10.204 6.763c-1.731 1.268-3.488 2.501-4.833 4.184-1.595 1.994-3.061 4.079-4.46 6.214-1.965 2.998-3.76 6.422-4.553 9.927-.627 2.773-.855 5.735-.063 8.508.973 3.407 3.101 6.063 5.999 8.037 1.207.822 2.651 1.38 4.012 1.846.444.152.9.267 1.359.362q.305.062.612.115c2.091.369 2.88.245 4.976-.039l-2.315.311c1.446-.091 2.883-.309 4.313-.531l1.961-.828a6.2 6.2 0 0 0 2.304-2.115c1.07-1.385 1.843-3.176 1.763-4.975-.167-3.736-2.456-6.762-6.028-7.917Zm118.171 45.642a26 26 0 0 1-1.69-.61l2.062.87c-1.437-.612-2.892-1.128-4.337-1.71l2.124.896a8.7 8.7 0 0 1-1.69-.953l1.818 1.405a6 6 0 0 1-1.022-1.011l1.416 1.832a5.6 5.6 0 0 1-.571-.976l.918 2.175a5.7 5.7 0 0 1-.349-1.242l.328 2.437c-.087-.937-.238-1.88-.372-2.811l.328 2.442a8 8 0 0 1 .031-1.746l-.329 2.45c.161-1.131.504-2.211.936-3.266l-.935 2.216c1.444-3.413 3.706-6.516 5.939-9.448l-1.475 1.909a13 13 0 0 1 2.351-2.375l-1.916 1.48c7.996-6.031 17.209-10.868 26.398-14.782l-2.322.98c4.436-1.871 9.058-3.587 13.85-4.249l-2.597.349c2.512-.32 5.007-.156 7.51.179l-2.606-.35c9.592 1.327 19.118 4.306 28.03 8.04l-2.399-1.013c4.247 1.795 8.577 3.742 12.25 6.573l-2.036-1.573c1.885 1.482 3.429 3.345 4.892 5.233l-1.572-2.035c1.6 2.101 3.022 4.327 4.083 6.751l-1.013-2.401c.602 1.436 1.057 2.905 1.28 4.449l-.359-2.671c.125 1.04.136 2.065.001 3.105l.359-2.671c-.132.824-.35 1.607-.666 2.379l1.013-2.4a11.2 11.2 0 0 1-1.344 2.242l1.571-2.033c-.951 1.163-2.09 2.058-3.272 2.975l2.032-1.57c-7.275 5.617-14.894 11.112-23.399 14.722l2.395-1.011c-3.362 1.403-6.848 2.459-10.462 2.96l2.664-.358c-2.914.38-5.854.355-8.768-.016l2.675.359c-2.981-.403-5.896-1.157-8.73-2.158-4.596-1.623-9.133-3.438-13.692-5.161l-28.759-10.871c-2.374-.898-5.86-.193-7.971 1.043-2.146 1.256-4.192 3.716-4.754 6.182-.603 2.648-.473 5.62 1.043 7.971 1.528 2.369 3.532 3.784 6.182 4.754l37.916 13.884c4.227 1.548 8.388 3.049 12.863 3.689 2.624.375 5.232.72 7.886.678 2.727-.043 5.471-.417 8.151-.884 4.729-.824 9.232-2.646 13.561-4.67 4.649-2.173 9.024-4.906 13.238-7.822a189 189 0 0 0 7.326-5.357c3.322-2.543 6.629-4.893 8.651-8.691 1.707-3.206 2.75-6.986 2.455-10.642-.321-3.979-1.33-7.181-2.997-10.787-1.011-2.187-2.342-4.204-3.793-6.121-1.669-2.206-3.381-4.567-5.451-6.432-3.015-2.717-6.483-4.869-10.112-6.654-8.318-4.093-17.292-7.072-26.313-9.171-4.434-1.032-8.948-1.809-13.483-2.226-4.003-.368-7.985.066-11.894 1.02-5.148 1.257-10.105 3.384-14.912 5.571-4.464 2.031-8.791 4.345-13.001 6.859a130 130 0 0 0-10.204 6.763c-1.731 1.268-3.488 2.501-4.833 4.184-1.595 1.994-3.061 4.079-4.46 6.214-1.965 2.998-3.76 6.422-4.553 9.927-.627 2.773-.855 5.735-.063 8.508.973 3.407 3.101 6.063 5.999 8.037 1.207.822 2.651 1.38 4.012 1.846.444.152.9.267 1.359.362q.305.062.612.115c2.091.369 2.88.245 4.976-.039l-2.315.311c1.446-.091 2.883-.309 4.313-.531l1.961-.828a6.2 6.2 0 0 0 2.304-2.115c1.07-1.385 1.843-3.176 1.763-4.975-.167-3.736-2.456-6.762-6.028-7.917ZM219.278 347.247a26 26 0 0 1-1.69-.61l2.062.87c-1.437-.612-2.892-1.128-4.337-1.71l2.124.896a8.7 8.7 0 0 1-1.69-.953l1.818 1.405a6 6 0 0 1-1.022-1.011l1.416 1.832a5.6 5.6 0 0 1-.571-.976l.918 2.175a5.7 5.7 0 0 1-.349-1.242l.328 2.437c-.087-.937-.238-1.88-.372-2.811l.328 2.442a8 8 0 0 1 .031-1.746l-.329 2.45c.161-1.131.504-2.211.936-3.266l-.935 2.216c1.444-3.413 3.706-6.516 5.939-9.448l-1.475 1.909a13 13 0 0 1 2.351-2.375l-1.916 1.48c7.996-6.031 17.209-10.868 26.398-14.782l-2.322.98c4.436-1.871 9.058-3.587 13.85-4.249l-2.597.349c2.512-.32 5.007-.156 7.51.179l-2.606-.35c9.592 1.327 19.118 4.306 28.03 8.04l-2.399-1.013c4.247 1.795 8.577 3.742 12.25 6.573l-2.036-1.573c1.885 1.482 3.429 3.345 4.892 5.233l-1.572-2.035c1.6 2.101 3.022 4.327 4.083 6.751l-1.013-2.401c.602 1.436 1.057 2.905 1.28 4.449l-.359-2.671c.125 1.04.136 2.065.001 3.105l.359-2.671c-.132.824-.35 1.607-.666 2.379l1.013-2.4a11.2 11.2 0 0 1-1.344 2.242l1.571-2.033c-.951 1.163-2.09 2.058-3.272 2.975l2.032-1.57c-7.275 5.617-14.894 11.112-23.399 14.722l2.395-1.011c-3.362 1.403-6.848 2.459-10.462 2.96l2.664-.358c-2.914.38-5.854.355-8.768-.016l2.675.359c-2.981-.403-5.896-1.157-8.73-2.158-4.596-1.623-9.133-3.438-13.692-5.161l-28.759-10.871c-2.374-.898-5.86-.193-7.971 1.043-2.146 1.256-4.192 3.716-4.754 6.182-.603 2.648-.473 5.62 1.043 7.971 1.528 2.369 3.532 3.784 6.182 4.754l37.916 13.884c4.227 1.548 8.388 3.049 12.863 3.689 2.624.375 5.232.72 7.886.678 2.727-.043 5.471-.417 8.151-.884 4.729-.824 9.232-2.646 13.561-4.67 4.649-2.173 9.024-4.906 13.238-7.822a189 189 0 0 0 7.326-5.357c3.322-2.543 6.629-4.893 8.651-8.691 1.707-3.206 2.75-6.986 2.455-10.642-.321-3.979-1.33-7.181-2.997-10.787-1.011-2.187-2.342-4.204-3.793-6.121-1.669-2.206-3.381-4.567-5.451-6.432-3.015-2.717-6.483-4.869-10.112-6.654-8.318-4.093-17.292-7.072-26.313-9.171-4.434-1.032-8.948-1.809-13.483-2.226-4.003-.368-7.985.066-11.894 1.02-5.148 1.257-10.105 3.384-14.912 5.571-4.464 2.031-8.791 4.345-13.001 6.859a130 130 0 0 0-10.204 6.763c-1.731 1.268-3.488 2.501-4.833 4.184-1.595 1.994-3.061 4.079-4.46 6.214-1.965 2.998-3.76 6.422-4.553 9.927-.627 2.773-.855 5.735-.063 8.508.973 3.407 3.101 6.063 5.999 8.037 1.207.822 2.651 1.38 4.012 1.846.444.152.9.267 1.359.362q.305.062.612.115c2.091.369 2.88.245 4.976-.039l-2.315.311c1.446-.091 2.883-.309 4.313-.531l1.961-.828a6.2 6.2 0 0 0 2.304-2.115c1.07-1.385 1.843-3.176 1.763-4.975-.167-3.736-2.456-6.762-6.028-7.917Zm118.17 45.641a26 26 0 0 1-1.69-.61l2.062.87c-1.437-.612-2.892-1.128-4.337-1.71l2.124.896a8.7 8.7 0 0 1-1.69-.953l1.818 1.405a6 6 0 0 1-1.022-1.011l1.416 1.832a5.6 5.6 0 0 1-.571-.976l.918 2.175a5.7 5.7 0 0 1-.349-1.242l.328 2.437c-.087-.937-.238-1.88-.372-2.811l.328 2.442a8 8 0 0 1 .031-1.746l-.329 2.45c.161-1.131.504-2.211.936-3.266l-.935 2.216c1.444-3.413 3.706-6.516 5.939-9.448l-1.475 1.909a13 13 0 0 1 2.351-2.375l-1.916 1.48c7.996-6.031 17.209-10.868 26.398-14.782l-2.322.98c4.436-1.871 9.058-3.587 13.85-4.249l-2.597.349c2.512-.32 5.007-.156 7.51.179l-2.606-.35c9.592 1.327 19.118 4.306 28.03 8.04l-2.399-1.013c4.247 1.795 8.577 3.742 12.25 6.573l-2.036-1.573c1.885 1.482 3.429 3.345 4.892 5.233l-1.572-2.035c1.6 2.101 3.022 4.327 4.083 6.751l-1.013-2.401c.602 1.436 1.057 2.905 1.28 4.449l-.359-2.671c.125 1.04.136 2.065.001 3.105l.359-2.671c-.132.824-.35 1.607-.666 2.379l1.013-2.4a11.2 11.2 0 0 1-1.344 2.242l1.571-2.033c-.951 1.163-2.09 2.058-3.272 2.975l2.032-1.57c-7.275 5.617-14.894 11.112-23.399 14.722l2.395-1.011c-3.362 1.403-6.848 2.459-10.462 2.96l2.664-.358c-2.914.38-5.854.355-8.768-.016l2.675.359c-2.981-.403-5.896-1.157-8.73-2.158-4.596-1.623-9.133-3.438-13.692-5.161l-28.759-10.871c-2.374-.898-5.86-.193-7.971 1.043-2.146 1.256-4.192 3.716-4.754 6.182-.603 2.648-.473 5.62 1.043 7.971 1.528 2.369 3.532 3.784 6.182 4.754l37.916 13.884c4.227 1.548 8.388 3.049 12.863 3.689 2.624.375 5.232.72 7.886.678 2.727-.043 5.471-.417 8.151-.884 4.729-.824 9.232-2.646 13.561-4.67 4.649-2.173 9.024-4.906 13.238-7.822a189 189 0 0 0 7.326-5.357c3.322-2.543 6.629-4.893 8.651-8.691 1.707-3.206 2.75-6.986 2.455-10.642-.321-3.979-1.33-7.181-2.997-10.787-1.011-2.187-2.342-4.204-3.793-6.121-1.669-2.206-3.381-4.567-5.451-6.432-3.015-2.717-6.483-4.869-10.112-6.654-8.318-4.093-17.292-7.072-26.313-9.171-4.434-1.032-8.948-1.809-13.483-2.226-4.003-.368-7.985.066-11.894 1.02-5.148 1.257-10.105 3.384-14.912 5.571-4.464 2.031-8.791 4.345-13.001 6.859a130 130 0 0 0-10.204 6.763c-1.731 1.268-3.488 2.501-4.833 4.184-1.595 1.994-3.061 4.079-4.46 6.214-1.965 2.998-3.76 6.422-4.553 9.927-.627 2.773-.855 5.735-.063 8.508.973 3.407 3.101 6.063 5.999 8.037 1.207.822 2.651 1.38 4.012 1.846.444.152.9.267 1.359.362q.305.062.612.115c2.091.369 2.88.245 4.976-.039l-2.315.311c1.446-.091 2.883-.309 4.313-.531l1.961-.828a6.2 6.2 0 0 0 2.304-2.115c1.07-1.385 1.843-3.176 1.763-4.975-.167-3.736-2.456-6.762-6.028-7.917Zm118.171 45.641a26 26 0 0 1-1.69-.61l2.062.87c-1.437-.612-2.892-1.128-4.337-1.71l2.124.896a8.7 8.7 0 0 1-1.69-.953l1.818 1.405a6 6 0 0 1-1.022-1.011l1.416 1.832a5.6 5.6 0 0 1-.571-.976l.918 2.175a5.7 5.7 0 0 1-.349-1.242l.328 2.437c-.087-.937-.238-1.88-.372-2.811l.328 2.442a8 8 0 0 1 .031-1.746l-.329 2.45c.161-1.131.504-2.211.936-3.266l-.935 2.216c1.444-3.413 3.706-6.516 5.939-9.448l-1.475 1.909a13 13 0 0 1 2.351-2.375l-1.916 1.48c7.996-6.031 17.209-10.868 26.398-14.782l-2.322.98c4.436-1.871 9.058-3.587 13.85-4.249l-2.597.349c2.512-.32 5.007-.156 7.51.179l-2.606-.35c9.592 1.327 19.118 4.306 28.03 8.04l-2.399-1.013c4.247 1.795 8.577 3.742 12.25 6.573l-2.036-1.573c1.885 1.482 3.429 3.345 4.892 5.233l-1.572-2.035c1.6 2.101 3.022 4.327 4.083 6.751l-1.013-2.401c.602 1.436 1.057 2.905 1.28 4.449l-.359-2.671c.125 1.04.136 2.065.001 3.105l.359-2.671c-.132.824-.35 1.607-.666 2.379l1.013-2.4a11.2 11.2 0 0 1-1.344 2.242l1.571-2.033c-.951 1.163-2.09 2.058-3.272 2.975l2.032-1.57c-7.275 5.617-14.894 11.112-23.399 14.722l2.395-1.011c-3.362 1.403-6.848 2.459-10.462 2.96l2.664-.358c-2.914.38-5.854.355-8.768-.016l2.675.359c-2.981-.403-5.896-1.157-8.73-2.158-4.596-1.623-9.133-3.438-13.692-5.161l-28.759-10.871c-2.374-.898-5.86-.193-7.971 1.043-2.146 1.256-4.192 3.716-4.754 6.182-.603 2.648-.473 5.62 1.043 7.971 1.528 2.369 3.532 3.784 6.182 4.754l37.916 13.884c4.227 1.548 8.388 3.049 12.863 3.689 2.624.375 5.232.72 7.886.678 2.727-.043 5.471-.417 8.151-.884 4.729-.824 9.232-2.646 13.561-4.67 4.649-2.173 9.024-4.906 13.238-7.822a189 189 0 0 0 7.326-5.357c3.322-2.543 6.629-4.893 8.651-8.691 1.707-3.206 2.75-6.986 2.455-10.642-.321-3.979-1.33-7.181-2.997-10.787-1.011-2.187-2.342-4.204-3.793-6.121-1.669-2.206-3.381-4.567-5.451-6.432-3.015-2.717-6.483-4.869-10.112-6.654-8.318-4.093-17.292-7.072-26.313-9.171-4.434-1.032-8.948-1.809-13.483-2.226-4.003-.368-7.985.066-11.894 1.02-5.148 1.257-10.105 3.384-14.912 5.571-4.464 2.031-8.791 4.345-13.001 6.859a130 130 0 0 0-10.204 6.763c-1.731 1.268-3.488 2.501-4.833 4.184-1.595 1.994-3.061 4.079-4.46 6.214-1.965 2.998-3.76 6.422-4.553 9.927-.627 2.773-.855 5.735-.063 8.508.973 3.407 3.101 6.063 5.999 8.037 1.207.822 2.651 1.38 4.012 1.846.444.152.9.267 1.359.362q.305.062.612.115c2.091.369 2.88.245 4.976-.039l-2.315.311c1.446-.091 2.883-.309 4.313-.531l1.961-.828a6.2 6.2 0 0 0 2.304-2.115c1.07-1.385 1.843-3.176 1.763-4.975-.167-3.736-2.456-6.762-6.028-7.917Zm118.17 45.642a26 26 0 0 1-1.69-.61l2.062.87c-1.437-.612-2.892-1.128-4.337-1.71l2.124.896a8.7 8.7 0 0 1-1.69-.953l1.818 1.405a6 6 0 0 1-1.022-1.011l1.416 1.832a5.6 5.6 0 0 1-.571-.976l.918 2.175a5.7 5.7 0 0 1-.349-1.242l.328 2.437c-.087-.937-.238-1.88-.372-2.811l.328 2.442a8 8 0 0 1 .031-1.746l-.329 2.45c.161-1.131.504-2.211.936-3.266l-.935 2.216c1.444-3.413 3.706-6.516 5.939-9.448l-1.475 1.909a13 13 0 0 1 2.351-2.375l-1.916 1.48c7.996-6.031 17.209-10.868 26.398-14.782l-2.322.98c4.436-1.871 9.058-3.587 13.85-4.249l-2.597.349c2.512-.32 5.007-.156 7.51.179l-2.606-.35c9.592 1.327 19.118 4.306 28.03 8.04l-2.399-1.013c4.247 1.795 8.577 3.742 12.25 6.573l-2.036-1.573c1.885 1.482 3.429 3.345 4.892 5.233l-1.572-2.035c1.6 2.101 3.022 4.327 4.083 6.751l-1.013-2.401c.602 1.436 1.057 2.905 1.28 4.449l-.359-2.671c.125 1.04.136 2.065.001 3.105l.359-2.671c-.132.824-.35 1.607-.666 2.379l1.013-2.4a11.2 11.2 0 0 1-1.344 2.242l1.571-2.033c-.951 1.163-2.09 2.058-3.272 2.975l2.032-1.57c-7.275 5.617-14.894 11.112-23.399 14.722l2.395-1.011c-3.362 1.403-6.848 2.459-10.462 2.96l2.664-.358c-2.914.38-5.854.355-8.768-.016l2.675.359c-2.981-.403-5.896-1.157-8.73-2.158-4.596-1.623-9.133-3.438-13.692-5.161l-28.759-10.871c-2.374-.898-5.86-.193-7.971 1.043-2.146 1.256-4.192 3.716-4.754 6.182-.603 2.648-.473 5.62 1.043 7.971 1.528 2.369 3.532 3.784 6.182 4.754l37.916 13.884c4.227 1.548 8.388 3.049 12.863 3.689 2.624.375 5.232.72 7.886.678 2.727-.043 5.471-.417 8.151-.884 4.729-.824 9.232-2.646 13.561-4.67 4.649-2.173 9.024-4.906 13.238-7.822a189 189 0 0 0 7.326-5.357c3.322-2.543 6.629-4.893 8.651-8.691 1.707-3.206 2.75-6.986 2.455-10.642-.321-3.979-1.33-7.181-2.997-10.787-1.011-2.187-2.342-4.204-3.793-6.121-1.669-2.206-3.381-4.567-5.451-6.432-3.015-2.717-6.483-4.869-10.112-6.654-8.318-4.093-17.292-7.072-26.313-9.171-4.434-1.032-8.948-1.809-13.483-2.226-4.003-.368-7.985.066-11.894 1.02-5.148 1.257-10.105 3.384-14.912 5.571-4.464 2.031-8.791 4.345-13.001 6.859a130 130 0 0 0-10.204 6.763c-1.731 1.268-3.488 2.501-4.833 4.184-1.595 1.994-3.061 4.079-4.46 6.214-1.965 2.998-3.76 6.422-4.553 9.927-.627 2.773-.855 5.735-.063 8.508.973 3.407 3.101 6.063 5.999 8.037 1.207.822 2.651 1.38 4.012 1.846.444.152.9.267 1.359.362q.305.062.612.115c2.091.369 2.88.245 4.976-.039l-2.315.311c1.446-.091 2.883-.309 4.313-.531l1.961-.828a6.2 6.2 0 0 0 2.304-2.115c1.07-1.385 1.843-3.176 1.763-4.975-.167-3.736-2.456-6.762-6.028-7.917Zm118.171 45.641a26 26 0 0 1-1.69-.61l2.062.87c-1.437-.612-2.892-1.128-4.337-1.71l2.124.896a8.7 8.7 0 0 1-1.69-.953l1.818 1.405a6 6 0 0 1-1.022-1.011l1.416 1.832a5.6 5.6 0 0 1-.571-.976l.918 2.175a5.7 5.7 0 0 1-.349-1.242l.328 2.437c-.087-.937-.238-1.88-.372-2.811l.328 2.442a8 8 0 0 1 .031-1.746l-.329 2.45c.161-1.131.504-2.211.936-3.266l-.935 2.216c1.444-3.413 3.706-6.516 5.939-9.448l-1.475 1.909a13 13 0 0 1 2.351-2.375l-1.916 1.48c7.996-6.031 17.209-10.868 26.398-14.782l-2.322.98c4.436-1.871 9.058-3.587 13.85-4.249l-2.597.349c2.512-.32 5.007-.156 7.51.179l-2.606-.35c9.592 1.327 19.118 4.306 28.03 8.04l-2.399-1.013c4.247 1.795 8.577 3.742 12.25 6.573l-2.036-1.573c1.885 1.482 3.429 3.345 4.892 5.233l-1.572-2.035c1.6 2.101 3.022 4.327 4.083 6.751l-1.013-2.401c.602 1.436 1.057 2.905 1.28 4.449l-.359-2.671c.125 1.04.136 2.065.001 3.105l.359-2.671c-.132.824-.35 1.607-.666 2.379l1.013-2.4a11.2 11.2 0 0 1-1.344 2.242l1.571-2.033c-.951 1.163-2.09 2.058-3.272 2.975l2.032-1.57c-7.275 5.617-14.894 11.112-23.399 14.722l2.395-1.011c-3.362 1.403-6.848 2.459-10.462 2.96l2.664-.358c-2.914.38-5.854.355-8.768-.016l2.675.359c-2.981-.403-5.896-1.157-8.73-2.158-4.596-1.623-9.133-3.438-13.692-5.161l-28.759-10.871c-2.374-.898-5.86-.193-7.971 1.043-2.146 1.256-4.192 3.716-4.754 6.182-.603 2.648-.473 5.62 1.043 7.971 1.528 2.369 3.532 3.784 6.182 4.754l37.916 13.884c4.227 1.548 8.388 3.049 12.863 3.689 2.624.375 5.232.72 7.886.678 2.727-.043 5.471-.417 8.151-.884 4.729-.824 9.232-2.646 13.561-4.67 4.649-2.173 9.024-4.906 13.238-7.822a189 189 0 0 0 7.326-5.357c3.322-2.543 6.629-4.893 8.651-8.691 1.707-3.206 2.75-6.986 2.455-10.642-.321-3.979-1.33-7.181-2.997-10.787-1.011-2.187-2.342-4.204-3.793-6.121-1.669-2.206-3.381-4.567-5.451-6.432-3.015-2.717-6.483-4.869-10.112-6.654-8.318-4.093-17.292-7.072-26.313-9.171-4.434-1.032-8.948-1.809-13.483-2.226-4.003-.368-7.985.066-11.894 1.02-5.148 1.257-10.105 3.384-14.912 5.571-4.464 2.031-8.791 4.345-13.001 6.859a130 130 0 0 0-10.204 6.763c-1.731 1.268-3.488 2.501-4.833 4.184-1.595 1.994-3.061 4.079-4.46 6.214-1.965 2.998-3.76 6.422-4.553 9.927-.627 2.773-.855 5.735-.063 8.508.973 3.407 3.101 6.063 5.999 8.037 1.207.822 2.651 1.38 4.012 1.846.444.152.9.267 1.359.362q.305.062.612.115c2.091.369 2.88.245 4.976-.039l-2.315.311c1.446-.091 2.883-.309 4.313-.531l1.961-.828a6.2 6.2 0 0 0 2.304-2.115c1.07-1.385 1.843-3.176 1.763-4.975-.167-3.736-2.456-6.762-6.028-7.917ZM298.141 285.87a26 26 0 0 1-1.69-.61l2.062.87c-1.437-.612-2.892-1.128-4.337-1.71l2.124.896a8.7 8.7 0 0 1-1.69-.953l1.818 1.405a6 6 0 0 1-1.022-1.011l1.416 1.832a5.6 5.6 0 0 1-.571-.976l.918 2.175a5.7 5.7 0 0 1-.349-1.242l.328 2.437c-.087-.937-.238-1.88-.372-2.811l.328 2.442a8 8 0 0 1 .031-1.746l-.329 2.45c.161-1.131.504-2.211.936-3.266l-.935 2.216c1.444-3.413 3.706-6.516 5.939-9.448l-1.475 1.909a13 13 0 0 1 2.351-2.375l-1.916 1.48c7.996-6.031 17.209-10.868 26.398-14.782l-2.322.98c4.436-1.871 9.058-3.587 13.85-4.249l-2.597.349c2.512-.32 5.007-.156 7.51.179l-2.606-.35c9.592 1.327 19.118 4.306 28.03 8.04l-2.399-1.013c4.247 1.795 8.577 3.742 12.25 6.573l-2.036-1.573c1.885 1.482 3.429 3.345 4.892 5.233l-1.572-2.035c1.6 2.101 3.022 4.327 4.083 6.751l-1.013-2.401c.602 1.436 1.057 2.905 1.28 4.449l-.359-2.671c.125 1.04.136 2.065.001 3.105l.359-2.671c-.132.824-.35 1.607-.666 2.379l1.013-2.4a11.2 11.2 0 0 1-1.344 2.242l1.571-2.033c-.951 1.163-2.09 2.058-3.272 2.975l2.032-1.57c-7.275 5.617-14.894 11.112-23.399 14.722l2.395-1.011c-3.362 1.403-6.848 2.459-10.462 2.96l2.664-.358c-2.914.38-5.854.355-8.768-.016l2.675.359c-2.981-.403-5.896-1.157-8.73-2.158-4.596-1.623-9.133-3.438-13.692-5.161l-28.759-10.871c-2.374-.898-5.86-.193-7.971 1.043-2.146 1.256-4.192 3.716-4.754 6.182-.603 2.648-.473 5.62 1.043 7.971 1.528 2.369 3.532 3.784 6.182 4.754l37.916 13.884c4.227 1.548 8.388 3.049 12.863 3.689 2.624.375 5.232.72 7.886.678 2.727-.043 5.471-.417 8.151-.884 4.729-.824 9.232-2.646 13.561-4.67 4.649-2.173 9.024-4.906 13.238-7.822a189 189 0 0 0 7.326-5.357c3.322-2.543 6.629-4.893 8.651-8.691 1.707-3.206 2.75-6.986 2.455-10.642-.321-3.979-1.33-7.181-2.997-10.787-1.011-2.187-2.342-4.204-3.793-6.121-1.669-2.206-3.381-4.567-5.451-6.432-3.015-2.717-6.483-4.869-10.112-6.654-8.318-4.093-17.292-7.072-26.313-9.171-4.434-1.032-8.948-1.809-13.483-2.226-4.003-.368-7.985.066-11.894 1.02-5.148 1.257-10.105 3.384-14.912 5.571-4.464 2.031-8.791 4.345-13.001 6.859a130 130 0 0 0-10.204 6.763c-1.731 1.268-3.488 2.501-4.833 4.184-1.595 1.994-3.061 4.079-4.46 6.214-1.965 2.998-3.76 6.422-4.553 9.927-.627 2.773-.855 5.735-.063 8.508.973 3.407 3.101 6.063 5.999 8.037 1.207.822 2.651 1.38 4.012 1.846.444.152.9.267 1.359.362q.305.062.612.115c2.091.369 2.88.245 4.976-.039l-2.315.311c1.446-.091 2.883-.309 4.313-.531l1.961-.828a6.2 6.2 0 0 0 2.304-2.115c1.07-1.385 1.843-3.176 1.763-4.975-.167-3.736-2.456-6.762-6.028-7.917Zm118.171 45.641a26 26 0 0 1-1.69-.61l2.062.87c-1.437-.612-2.892-1.128-4.337-1.71l2.124.896a8.7 8.7 0 0 1-1.69-.953l1.818 1.405a6 6 0 0 1-1.022-1.011l1.416 1.832a5.6 5.6 0 0 1-.571-.976l.918 2.175a5.7 5.7 0 0 1-.349-1.242l.328 2.437c-.087-.937-.238-1.88-.372-2.811l.328 2.442a8 8 0 0 1 .031-1.746l-.329 2.45c.161-1.131.504-2.211.936-3.266l-.935 2.216c1.444-3.413 3.706-6.516 5.939-9.448l-1.475 1.909a13 13 0 0 1 2.351-2.375l-1.916 1.48c7.996-6.031 17.209-10.868 26.398-14.782l-2.322.98c4.436-1.871 9.058-3.587 13.85-4.249l-2.597.349c2.512-.32 5.007-.156 7.51.179l-2.606-.35c9.592 1.327 19.118 4.306 28.03 8.04l-2.399-1.013c4.247 1.795 8.577 3.742 12.25 6.573l-2.036-1.573c1.885 1.482 3.429 3.345 4.892 5.233l-1.572-2.035c1.6 2.101 3.022 4.327 4.083 6.751l-1.013-2.401c.602 1.436 1.057 2.905 1.28 4.449l-.359-2.671c.125 1.04.136 2.065.001 3.105l.359-2.671c-.132.824-.35 1.607-.666 2.379l1.013-2.4a11.2 11.2 0 0 1-1.344 2.242l1.571-2.033c-.951 1.163-2.09 2.058-3.272 2.975l2.032-1.57c-7.275 5.617-14.894 11.112-23.399 14.722l2.395-1.011c-3.362 1.403-6.848 2.459-10.462 2.96l2.664-.358c-2.914.38-5.854.355-8.768-.016l2.675.359c-2.981-.403-5.896-1.157-8.73-2.158-4.596-1.623-9.133-3.438-13.692-5.161l-28.759-10.871c-2.374-.898-5.86-.193-7.971 1.043-2.146 1.256-4.192 3.716-4.754 6.182-.603 2.648-.473 5.62 1.043 7.971 1.528 2.369 3.532 3.784 6.182 4.754l37.916 13.884c4.227 1.548 8.388 3.049 12.863 3.689 2.624.375 5.232.72 7.886.678 2.727-.043 5.471-.417 8.151-.884 4.729-.824 9.232-2.646 13.561-4.67 4.649-2.173 9.024-4.906 13.238-7.822a189 189 0 0 0 7.326-5.357c3.322-2.543 6.629-4.893 8.651-8.691 1.707-3.206 2.75-6.986 2.455-10.642-.321-3.979-1.33-7.181-2.997-10.787-1.011-2.187-2.342-4.204-3.793-6.121-1.669-2.206-3.381-4.567-5.451-6.432-3.015-2.717-6.483-4.869-10.112-6.654-8.318-4.093-17.292-7.072-26.313-9.171-4.434-1.032-8.948-1.809-13.483-2.226-4.003-.368-7.985.066-11.894 1.02-5.148 1.257-10.105 3.384-14.912 5.571-4.464 2.031-8.791 4.345-13.001 6.859a130 130 0 0 0-10.204 6.763c-1.731 1.268-3.488 2.501-4.833 4.184-1.595 1.994-3.061 4.079-4.46 6.214-1.965 2.998-3.76 6.422-4.553 9.927-.627 2.773-.855 5.735-.063 8.508.973 3.407 3.101 6.063 5.999 8.037 1.207.822 2.651 1.38 4.012 1.846.444.152.9.267 1.359.362q.305.062.612.115c2.091.369 2.88.245 4.976-.039l-2.315.311c1.446-.091 2.883-.309 4.313-.531l1.961-.828a6.2 6.2 0 0 0 2.304-2.115c1.07-1.385 1.843-3.176 1.763-4.975-.167-3.736-2.456-6.762-6.028-7.917Zm118.17 45.641a26 26 0 0 1-1.69-.61l2.062.87c-1.437-.612-2.892-1.128-4.337-1.71l2.124.896a8.7 8.7 0 0 1-1.69-.953l1.818 1.405a6 6 0 0 1-1.022-1.011l1.416 1.832a5.6 5.6 0 0 1-.571-.976l.918 2.175a5.7 5.7 0 0 1-.349-1.242l.328 2.437c-.087-.937-.238-1.88-.372-2.811l.328 2.442a8 8 0 0 1 .031-1.746l-.329 2.45c.161-1.131.504-2.211.936-3.266l-.935 2.216c1.444-3.413 3.706-6.516 5.939-9.448l-1.475 1.909a13 13 0 0 1 2.351-2.375l-1.916 1.48c7.996-6.031 17.209-10.868 26.398-14.782l-2.322.98c4.436-1.871 9.058-3.587 13.85-4.249l-2.597.349c2.512-.32 5.007-.156 7.51.179l-2.606-.35c9.592 1.327 19.118 4.306 28.03 8.04l-2.399-1.013c4.247 1.795 8.577 3.742 12.25 6.573l-2.036-1.573c1.885 1.482 3.429 3.345 4.892 5.233l-1.572-2.035c1.6 2.101 3.022 4.327 4.083 6.751l-1.013-2.401c.602 1.436 1.057 2.905 1.28 4.449l-.359-2.671c.125 1.04.136 2.065.001 3.105l.359-2.671c-.132.824-.35 1.607-.666 2.379l1.013-2.4a11.2 11.2 0 0 1-1.344 2.242l1.571-2.033c-.951 1.163-2.09 2.058-3.272 2.975l2.032-1.57c-7.275 5.617-14.894 11.112-23.399 14.722l2.395-1.011c-3.362 1.403-6.848 2.459-10.462 2.96l2.664-.358c-2.914.38-5.854.355-8.768-.016l2.675.359c-2.981-.403-5.896-1.157-8.73-2.158-4.596-1.623-9.133-3.438-13.692-5.161l-28.759-10.871c-2.374-.898-5.86-.193-7.971 1.043-2.146 1.256-4.192 3.716-4.754 6.182-.603 2.648-.473 5.62 1.043 7.971 1.528 2.369 3.532 3.784 6.182 4.754l37.916 13.884c4.227 1.548 8.388 3.049 12.863 3.689 2.624.375 5.232.72 7.886.678 2.727-.043 5.471-.417 8.151-.884 4.729-.824 9.232-2.646 13.561-4.67 4.649-2.173 9.024-4.906 13.238-7.822a189 189 0 0 0 7.326-5.357c3.322-2.543 6.629-4.893 8.651-8.691 1.707-3.206 2.75-6.986 2.455-10.642-.321-3.979-1.33-7.181-2.997-10.787-1.011-2.187-2.342-4.204-3.793-6.121-1.669-2.206-3.381-4.567-5.451-6.432-3.015-2.717-6.483-4.869-10.112-6.654-8.318-4.093-17.292-7.072-26.313-9.171-4.434-1.032-8.948-1.809-13.483-2.226-4.003-.368-7.985.066-11.894 1.02-5.148 1.257-10.105 3.384-14.912 5.571-4.464 2.031-8.791 4.345-13.001 6.859a130 130 0 0 0-10.204 6.763c-1.731 1.268-3.488 2.501-4.833 4.184-1.595 1.994-3.061 4.079-4.46 6.214-1.965 2.998-3.76 6.422-4.553 9.927-.627 2.773-.855 5.735-.063 8.508.973 3.407 3.101 6.063 5.999 8.037 1.207.822 2.651 1.38 4.012 1.846.444.152.9.267 1.359.362q.305.062.612.115c2.091.369 2.88.245 4.976-.039l-2.315.311c1.446-.091 2.883-.309 4.313-.531l1.961-.828a6.2 6.2 0 0 0 2.304-2.115c1.07-1.385 1.843-3.176 1.763-4.975-.167-3.736-2.456-6.762-6.028-7.917Zm118.171 45.642a26 26 0 0 1-1.69-.61l2.062.87c-1.437-.612-2.892-1.128-4.337-1.71l2.124.896a8.7 8.7 0 0 1-1.69-.953l1.818 1.405a6 6 0 0 1-1.022-1.011l1.416 1.832a5.6 5.6 0 0 1-.571-.976l.918 2.175a5.7 5.7 0 0 1-.349-1.242l.328 2.437c-.087-.937-.238-1.88-.372-2.811l.328 2.442a8 8 0 0 1 .031-1.746l-.329 2.45c.161-1.131.504-2.211.936-3.266l-.935 2.216c1.444-3.413 3.706-6.516 5.939-9.448l-1.475 1.909a13 13 0 0 1 2.351-2.375l-1.916 1.48c7.996-6.031 17.209-10.868 26.398-14.782l-2.322.98c4.436-1.871 9.058-3.587 13.85-4.249l-2.597.349c2.512-.32 5.007-.156 7.51.179l-2.606-.35c9.592 1.327 19.118 4.306 28.03 8.04l-2.399-1.013c4.247 1.795 8.577 3.742 12.25 6.573l-2.036-1.573c1.885 1.482 3.429 3.345 4.892 5.233l-1.572-2.035c1.6 2.101 3.022 4.327 4.083 6.751l-1.013-2.401c.602 1.436 1.057 2.905 1.28 4.449l-.359-2.671c.125 1.04.136 2.065.001 3.105l.359-2.671c-.132.824-.35 1.607-.666 2.379l1.013-2.4a11.2 11.2 0 0 1-1.344 2.242l1.571-2.033c-.951 1.163-2.09 2.058-3.272 2.975l2.032-1.57c-7.275 5.617-14.894 11.112-23.399 14.722l2.395-1.011c-3.362 1.403-6.848 2.459-10.462 2.96l2.664-.358c-2.914.38-5.854.355-8.768-.016l2.675.359c-2.981-.403-5.896-1.157-8.73-2.158-4.596-1.623-9.133-3.438-13.692-5.161l-28.759-10.871c-2.374-.898-5.86-.193-7.971 1.043-2.146 1.256-4.192 3.716-4.754 6.182-.603 2.648-.473 5.62 1.043 7.971 1.528 2.369 3.532 3.784 6.182 4.754l37.916 13.884c4.227 1.548 8.388 3.049 12.863 3.689 2.624.375 5.232.72 7.886.678 2.727-.043 5.471-.417 8.151-.884 4.729-.824 9.232-2.646 13.561-4.67 4.649-2.173 9.024-4.906 13.238-7.822a189 189 0 0 0 7.326-5.357c3.322-2.543 6.629-4.893 8.651-8.691 1.707-3.206 2.75-6.986 2.455-10.642-.321-3.979-1.33-7.181-2.997-10.787-1.011-2.187-2.342-4.204-3.793-6.121-1.669-2.206-3.381-4.567-5.451-6.432-3.015-2.717-6.483-4.869-10.112-6.654-8.318-4.093-17.292-7.072-26.313-9.171-4.434-1.032-8.948-1.809-13.483-2.226-4.003-.368-7.985.066-11.894 1.02-5.148 1.257-10.105 3.384-14.912 5.571-4.464 2.031-8.791 4.345-13.001 6.859a130 130 0 0 0-10.204 6.763c-1.731 1.268-3.488 2.501-4.833 4.184-1.595 1.994-3.061 4.079-4.46 6.214-1.965 2.998-3.76 6.422-4.553 9.927-.627 2.773-.855 5.735-.063 8.508.973 3.407 3.101 6.063 5.999 8.037 1.207.822 2.651 1.38 4.012 1.846.444.152.9.267 1.359.362q.305.062.612.115c2.091.369 2.88.245 4.976-.039l-2.315.311c1.446-.091 2.883-.309 4.313-.531l1.961-.828a6.2 6.2 0 0 0 2.304-2.115c1.07-1.385 1.843-3.176 1.763-4.975-.167-3.736-2.456-6.762-6.028-7.917Zm118.171 45.641a26 26 0 0 1-1.69-.61l2.062.87c-1.437-.612-2.892-1.128-4.337-1.71l2.124.896a8.7 8.7 0 0 1-1.69-.953l1.818 1.405a6 6 0 0 1-1.022-1.011l1.416 1.832a5.6 5.6 0 0 1-.571-.976l.918 2.175a5.7 5.7 0 0 1-.349-1.242l.328 2.437c-.087-.937-.238-1.88-.372-2.811l.328 2.442a8 8 0 0 1 .031-1.746l-.329 2.45c.161-1.131.504-2.211.936-3.266l-.935 2.216c1.444-3.413 3.706-6.516 5.939-9.448l-1.475 1.909a13 13 0 0 1 2.351-2.375l-1.916 1.48c7.996-6.031 17.209-10.868 26.398-14.782l-2.322.98c4.436-1.871 9.058-3.587 13.85-4.249l-2.597.349c2.512-.32 5.007-.156 7.51.179l-2.606-.35c9.592 1.327 19.118 4.306 28.03 8.04l-2.399-1.013c4.247 1.795 8.577 3.742 12.25 6.573l-2.036-1.573c1.885 1.482 3.429 3.345 4.892 5.233l-1.572-2.035c1.6 2.101 3.022 4.327 4.083 6.751l-1.013-2.401c.602 1.436 1.057 2.905 1.28 4.449l-.359-2.671c.125 1.04.136 2.065.001 3.105l.359-2.671c-.132.824-.35 1.607-.666 2.379l1.013-2.4a11.2 11.2 0 0 1-1.344 2.242l1.571-2.033c-.951 1.163-2.09 2.058-3.272 2.975l2.032-1.57c-7.275 5.617-14.894 11.112-23.399 14.722l2.395-1.011c-3.362 1.403-6.848 2.459-10.462 2.96l2.664-.358c-2.914.38-5.854.355-8.768-.016l2.675.359c-2.981-.403-5.896-1.157-8.73-2.158-4.596-1.623-9.133-3.438-13.692-5.161l-28.759-10.871c-2.374-.898-5.86-.193-7.971 1.043-2.146 1.256-4.192 3.716-4.754 6.182-.603 2.648-.473 5.62 1.043 7.971 1.528 2.369 3.532 3.784 6.182 4.754l37.916 13.884c4.227 1.548 8.388 3.049 12.863 3.689 2.624.375 5.232.72 7.886.678 2.727-.043 5.471-.417 8.151-.884 4.729-.824 9.232-2.646 13.561-4.67 4.649-2.173 9.024-4.906 13.238-7.822a189 189 0 0 0 7.326-5.357c3.322-2.543 6.629-4.893 8.651-8.691 1.707-3.206 2.75-6.986 2.455-10.642-.321-3.979-1.33-7.181-2.997-10.787-1.011-2.187-2.342-4.204-3.793-6.121-1.669-2.206-3.381-4.567-5.451-6.432-3.015-2.717-6.483-4.869-10.112-6.654-8.318-4.093-17.292-7.072-26.313-9.171-4.434-1.032-8.948-1.809-13.483-2.226-4.003-.368-7.985.066-11.894 1.02-5.148 1.257-10.105 3.384-14.912 5.571-4.464 2.031-8.791 4.345-13.001 6.859a130 130 0 0 0-10.204 6.763c-1.731 1.268-3.488 2.501-4.833 4.184-1.595 1.994-3.061 4.079-4.46 6.214-1.965 2.998-3.76 6.422-4.553 9.927-.627 2.773-.855 5.735-.063 8.508.973 3.407 3.101 6.063 5.999 8.037 1.207.822 2.651 1.38 4.012 1.846.444.152.9.267 1.359.362q.305.062.612.115c2.091.369 2.88.245 4.976-.039l-2.315.311c1.446-.091 2.883-.309 4.313-.531l1.961-.828a6.2 6.2 0 0 0 2.304-2.115c1.07-1.385 1.843-3.176 1.763-4.975-.167-3.736-2.456-6.762-6.028-7.917Zm-65.078 230.986-.511 78.764c-.007 1.023-.01 2.067.309 3.04.989 3.018 4.839 4.271 7.915 3.482s5.532-3.039 7.849-5.21l74.535-69.838c45.093-42.251 90.224-84.54 132.447-129.659 4.388-4.689 8.838-9.554 11.211-15.521 3.204-8.056 2.244-17.06 2.454-25.727.413-17.037 5.667-33.931 14.989-48.198-21.141 21.923-45.372 40.581-69.214 59.531a2916 2916 0 0 0-168.28 144.53"/><path d="M697.536 699.421c-.065 2.736-.032 5.499-.232 8.229l.3-2.23-.881 5.351a74 74 0 0 0-.867 7.753c-.224 3.813-.321 7.659-.674 11.462-.342 3.687-.249 7.464-.352 11.168l-.31 11.168c-.212 7.638-.234 15.284-.328 22.924-.02 1.659-.109 3.331.031 4.986.342 4.031 1.633 7.437 4.358 10.461 3.312 3.675 8.669 5.577 13.551 5.428 9.375-.286 15.982-7.416 22.345-13.413l16.446-15.499a15541 15541 0 0 1 32.941-30.949c21.583-20.223 43.32-40.282 64.875-60.536 10.639-9.997 21.227-20.048 31.725-30.192s21.095-20.178 31.529-30.385c5.218-5.104 10.295-10.337 15.342-15.609 4.858-5.075 9.864-10.077 14.421-15.427 5.489-6.442 10.151-13.578 11.716-22.046 1.438-7.785 1.1-15.461 1.304-23.315.084-3.239.35-6.467.769-9.679l-.458 3.411a95 95 0 0 1 6.596-24.088l-1.297 3.074a94.4 94.4 0 0 1 7.695-14.41c1.699-2.609 2.255-6.981 1.3-9.934-.88-2.718-2.35-4.943-4.62-6.697-4.967-3.837-12.429-3.636-16.928 1.008-13.833 14.278-29.066 27.136-44.557 39.564-15.762 12.645-31.647 25.133-47.329 37.877a2914 2914 0 0 0-140.038 121.393q-2.805 2.595-5.605 5.193c-4.977 4.614-5.018 13.697 0 18.303 5.327 4.89 12.993 4.922 18.303 0a2805 2805 0 0 1 45.722-41.427 2920 2920 0 0 1 94.024-79.908c15.812-12.872 31.844-25.463 47.774-38.186 15.508-12.386 30.726-25.264 44.772-39.303 1.741-1.74 3.46-3.501 5.167-5.273l-20.249-15.624c-10.876 16.803-16.601 36.851-16.703 56.833-.027 5.329.203 10.669-.475 15.971l.457-3.401c-.391 2.785-1.043 5.492-2.105 8.1l1.288-3.053c-1.201 2.8-2.81 5.354-4.647 7.778l1.996-2.584c-2.786 3.601-5.959 6.882-9.071 10.198a1501 1501 0 0 1-9.973 10.525c-6.749 7.055-13.439 14.163-20.171 21.234-13.468 14.147-27.325 27.88-41.338 41.485-14.008 13.601-28.137 27.077-42.296 40.521-14.456 13.725-29.025 27.33-43.571 40.96-14.706 13.779-29.64 27.331-44.22 41.242-1.608 1.534-3.169 3.118-4.91 4.503l2.283-1.764c-1.014.771-2.063 1.437-3.226 1.961l2.684-1.133c-.684.273-1.364.49-2.088.623l2.98-.4a9.3 9.3 0 0 1-2.32.016l2.973.4a9.2 9.2 0 0 1-1.85-.504l2.666 1.125a8.3 8.3 0 0 1-1.299-.734l2.255 1.743a6.7 6.7 0 0 1-1.042-1.022l1.74 2.252a7 7 0 0 1-.559-.952l1.12 2.655a7.5 7.5 0 0 1-.371-1.342l.396 2.95c-.347-2.982-.101-6.101-.099-9.1l.006-8.817c.004-6.174-.074-12.342-.166-18.516-.09-6.081-.171-12.149-.449-18.222l-.418-9.111c-.169-3.694-.958-7.375-1.513-11.047l.3 2.23c-.164-2.732-.095-5.493-.125-8.229-.047-4.293-3.743-8.411-8.21-8.21-4.536.203-8.1 3.607-8.21 8.21Z"/></svg>