<?xml version="1.0" encoding="UTF-8"?><svg xmlns="http://www.w3.org/2000/svg" data-name="ARTWORK" viewBox="0 0 1000 1000"><path d="M832.303 221.688c-59.758 25.438-119.31 51.33-178.025 79.103-58.314 27.583-115.826 56.806-172.3 87.99-56.503 31.201-111.964 64.346-165.764 100.02-55.484 36.791-108.524 76.904-159.402 119.834-21.764 18.364-43.926 36.591-64.432 56.37-19.371 18.685-37.34 39.854-48.48 64.571-3.028 6.719-5.702 13.58-7.803 20.646-2.153 7.241 3.804 15.066 11.356 14.908 43.466-.91 86.332-9.957 127.919-22.157 40.149-11.778 79.723-25.854 118.854-40.638 76.356-28.848 151.061-62.18 223.437-99.923 71.986-37.54 141.724-79.469 208.288-125.965 66.612-46.529 131.442-96.812 191.456-151.639 12.772-11.668 24.887-24.363 34.166-39.044 9.583-15.161 16.986-33.512 14.084-51.67-2.864-17.921-16.23-33.404-33.546-38.718-15.672-4.81-33.798-2.627-49.24 2-6.97 2.089-13.805 4.852-20.222 8.283-5.673 3.033-7.436 10.901-4.275 16.304 3.357 5.74 10.609 7.32 16.304 4.275 1.331-.712 2.681-1.361 4.046-2.006.506-.239 2.661-1.121.607-.29q1.04-.42 2.088-.819a107 107 0 0 1 10.191-3.263c8.056-2.162 12.586-2.979 20.349-3.103a70 70 0 0 1 4.903.088c1.001.054 1.998.143 2.996.237 2.01.189-1.627-.315.328.048 1.695.315 3.376.654 5.034 1.132.717.207 1.416.467 2.131.677 2.968.873-1.473-.999 1.179.488 3.6 2.019 3.804 1.979 6.686 4.947 1.467 1.512 1.956 2.135 2.695 3.256.48.728.936 1.477 1.364 2.235-.044-.079 1.651 3.223 1.05 1.844.687 1.574 1.18 3.259 1.596 4.922.208.833.396 1.679.546 2.525-.312-1.764.083.888.11 1.318.117 1.927.125 3.902-.094 5.822.067-.588.401-1.697-.151.701a95 95 0 0 1-.972 3.937c-2.153 7.809-4.495 12.965-8.62 19.944-7.989 13.518-18.7 24.632-30.668 35.683-27.495 25.391-56.451 49.496-85.766 72.741-31.259 24.786-63.121 48.892-95.722 71.889-63.858 45.046-130.693 85.846-199.658 122.582-68.611 36.547-139.355 69.116-211.763 97.405-37.15 14.514-74.733 28.05-112.661 40.391-38.464 12.515-77.929 23.664-118.258 28.016a358 358 0 0 1-30.79 1.991l11.356 14.908c7.534-24.582 22.37-45.617 40.111-64.248 18.504-19.433 39.414-36.453 59.745-53.904 49.274-42.292 100.454-82.186 154.289-118.523 53.064-35.817 107.723-69.246 163.496-100.668 55.694-31.378 112.532-60.67 169.86-88.936 57.608-28.404 115.765-55.812 174.302-82.246a7904 7904 0 0 1 21.416-9.63c4.75-2.128 5.882-9.037 3.457-13.184-2.899-4.956-8.375-5.504-13.184-3.457Z"/><path d="m209.108 604.363.079-.238-.876 2.075.113-.199-1.362 1.763.144-.162-1.768 1.366a.95.95 0 0 1 .376-.216l-2.102.887.218-.069-2.345.315c.262-.028.486-.022.748.005l-2.379-.32c.375.07.72.176 1.074.317l-2.184-.922c2.896 1.341 5.608 3.259 8.228 5.069a202 202 0 0 1 8.147 5.915l-2.063-1.594c8.416 6.506 16.02 14.16 22.53 22.57l-1.679-2.173a122.2 122.2 0 0 1 15.71 26.939l-1.115-2.642c4.074 9.728 6.999 19.905 8.409 30.365l-.397-2.958q.17 1.291.313 2.587.059.555.115 1.111c.253 2.464.472 4.095 1.723 6.279 2.188 3.821 6.658 5.812 10.931 5.238 4.475-.601 7.665-3.651 9.121-7.859 1.16-3.352-.021-8.068-.502-11.419a110 110 0 0 0-1.076-6.229 114 114 0 0 0-3.188-12.224c-2.799-8.735-6.628-17.237-11.255-25.157s-10.14-15.345-16.262-22.14c-6.166-6.843-13.18-12.801-20.719-18.085-3.825-2.681-7.819-4.986-12.026-7.014-3.225-1.554-6.561-3.408-10.189-3.602-2.134-.114-4.626.376-6.465 1.506-1.48.909-2.749 2.061-3.65 3.567-1.041 1.739-1.197 3.064-1.382 5.047-.187 2 1.083 4.788 2.536 6.122 1.43 1.313 3.039 2.122 4.971 2.381 4.368.587 8.131-2.064 9.5-6.202ZM75.222 724.199a9.4 9.4 0 0 1 2.128.594l-2.259-.953c.796.363 1.517.804 2.22 1.322l-1.926-1.488c2.377 1.855 4.21 4.286 6.044 6.653l-1.532-1.983c2.574 3.344 5.077 6.859 6.761 10.747l-1.025-2.429c.716 1.725 1.242 3.491 1.522 5.339l-.367-2.729c.121.934.178 1.859.171 2.801l10.313-10.313c-12.129.186-24.411 2.343-35.967 6.005l11.691 4.757-.16-.352 1.044 2.473a12.6 12.6 0 0 1-.809-2.931l.37 2.751a14.6 14.6 0 0 1 .004-3.431l-.37 2.75a17.7 17.7 0 0 1 1.12-4.129l-1.043 2.47a20 20 0 0 1 2.357-4.081l-1.616 2.092c1.964-2.535 4.342-4.708 6.869-6.668l-2.051 1.584c1.453-1.112 2.945-2.168 4.442-3.218 2.162-1.517 3.856-3.332 4.578-5.953.657-2.385.36-5.56-1.004-7.676-2.874-4.458-8.875-6.486-13.629-3.574-3.149 1.929-6.15 3.955-9.063 6.231-2.843 2.221-5.198 4.851-7.18 7.884-1.841 2.816-3.236 6.2-3.732 9.538-.31 2.091-.603 4.082-.38 6.181.353 3.312.998 5.465 2.376 8.509l1.619 2.095a7.75 7.75 0 0 0 3.332 2.14c2.07.873 4.54 1.214 6.74.522a125 125 0 0 1 20.416-4.585l-2.757.37c4.248-.569 8.525-.917 12.805-1.13 2.605-.13 5.466-1.031 7.292-3.021s3.095-4.525 3.021-7.292c-.239-8.907-4.481-16.477-10.107-23.12-1.982-2.341-4.074-4.656-6.287-6.782-1.574-1.512-3.317-2.966-5.223-4.035-2.712-1.522-5.197-2.079-8.248-2.409-2.151-.233-5.221 1.199-6.649 2.754s-2.304 3.3-2.586 5.399c-.269 2.004-.013 4.245 1.116 5.996 1.239 1.922 3.256 3.954 5.62 4.321Z"/><path d="M27.203 770.509c1.023-.42 2.058-.93 3.11-1.27.904-.292 1.861-.433 2.777-.693 2.652-.752 5.137-1.93 7.663-3.023a847 847 0 0 0 11.324-5.027q11.398-5.129 22.915-9.988l-2.409 1.016q4.686-1.975 9.389-3.906c3.799-1.559 7.616-3.066 11.063-5.302 4.012-2.602 5.798-7.43 3.904-11.916-1.912-4.53-6.536-6.504-11.258-5.525-4.885 1.013-9.439 3.209-13.999 5.196a1044 1044 0 0 0-35.228 16.137c-2.179 1.047-4.31 2.199-6.453 3.319-2.775 1.451-5.156 3.236-7.606 5.203l1.743-1.346c-1.014.775-2.216 1.345-3.322 1.982-3.583 2.066-4.968 6.608-3.39 10.347.672 1.592 1.819 3.132 3.39 3.962 1.834.969 4.371 1.661 6.385.835ZM400.96 390.614c-.018-.429-.002-.862-.022-1.29-.082-1.753-.118.308-.106.344-.125-.368.825-2.217.644-2.388.104.099-.977 1.852-.126.348.206-.365.389-.737.605-1.098.439-.734.939-1.43 1.406-2.146 1.018-1.557-.178.271-.196.233-.026-.054.748-.875.868-1.008a36 36 0 0 1 1.883-1.937c.659-.632 1.34-1.24 2.034-1.833.348-.297.705-.583 1.056-.877 1.312-1.097-.835.592.049-.053 6.676-4.875 13.521-9.529 20.357-14.176 14.108-9.591 28.3-19.067 42.691-28.23 28.801-18.338 58.201-35.726 88.276-51.895a1304 1304 0 0 1 103.338-49.847q2.738-1.174 5.481-2.337c1.806-.767-.1.05-.395.165.491-.192.976-.411 1.463-.616q1.828-.768 3.66-1.532 11.722-4.884 23.535-9.539c15.965-6.292 32.089-13.072 48.736-17.35 2.123-.546 4.26-1.048 6.414-1.457 1.077-.204 2.158-.375 3.239-.554.691-.114 1.968-.59-.568.061.645-.165 1.374-.166 2.033-.234 3.897-.404 7.82-.538 11.734-.33 1.634.087 3.285.39 4.915.429-3.576-.086-.914-.125.162.055q1.457.245 2.901.547a76 76 0 0 1 12.579 3.789c2.637 1.048-2.398-1.076.185.078a79 79 0 0 1 5.017 2.459c3.096 1.655 6.079 3.526 8.95 5.545.623.438 1.663.944 2.128 1.551.098.128-2.17-1.719-1.163-.899.34.277.686.546 1.026.823a78 78 0 0 1 4.198 3.686c2.557 2.414 4.882 5.018 7.115 7.73 1.248 1.516-.633-.843-.71-.925.284.304.543.727.781 1.056.515.709 1.006 1.434 1.504 2.155.999 1.448 1.985 2.896 2.909 4.394 3.335 5.406 11.017 7.973 16.623 4.359 5.671-3.656 7.61-10.643 4.359-16.623-15.536-28.57-50.186-46.087-82.355-42.906-18.946 1.874-36.562 8.817-54.151 15.679a1383 1383 0 0 0-50.673 20.96c-32.249 14.078-63.945 29.442-94.977 46.031s-61.489 34.352-91.019 53.496c-14.659 9.504-29.21 19.221-43.389 29.43a1317 1317 0 0 0-21.462 15.785c-6.938 5.212-14.619 10.752-18.106 19.016-1.949 4.619-2.369 9.117-1.531 14.054.68 4.006 5.322 6.361 8.989 5.868 3.865-.519 7.271-3.954 7.104-8.046ZM223.207 722.325c-33.144 24.709-83.224 54.742-108.396 87.535 22.988 2.859 66.428-3.898 88.731-10.158 174.812-49.068 347.002-112.672 501.284-209.764 81.332-51.184 165.964-105.954 227.508-182.064 11.058-13.675 55.817-62.389 38.882-80.949-10.007-10.967-27.005-14.889-40.805-9.415-10.376 4.116-18.261 12.628-25.932 20.737-89.575 94.691-199.222 168.623-314.722 229.036S352.513 675.146 231.06 722.465"/><path d="M218.509 714.287c-19.32 13.587-39.339 26.085-58.382 40.08-19.107 14.043-38.35 28.968-53.01 47.799-6.071 7.798-2.099 17.406 7.695 18.577 12.005 1.436 24.286.593 36.272-.62 14.065-1.424 28.107-3.547 41.934-6.498s27.476-7.161 41.097-11.086c16.172-4.66 32.294-9.503 48.374-14.47 63.595-19.644 126.509-41.593 188.113-66.825 61.953-25.375 122.637-53.899 181.035-86.675 28.541-16.019 56.332-33.245 83.926-50.832 26.549-16.921 52.87-34.226 78.382-52.683 25.743-18.625 50.703-38.363 73.966-60.029 20.435-19.033 38.79-39.683 56.753-61.012 13.067-15.516 27-31.644 35.427-50.278 4.164-9.208 7.561-19.531 4.936-29.687-3.27-12.649-16.786-21.133-28.646-24.385-16.077-4.408-31.861-.038-44.762 10.031-12.301 9.602-22.463 22.112-33.538 33.069-22.775 22.533-46.676 43.935-71.502 64.183-49.071 40.021-102.069 75.538-156.827 107.518-58.447 34.134-119.181 64.207-180.929 91.87-63.531 28.462-128.126 54.434-192.918 79.866a20566 20566 0 0 1-48.015 18.775c-5.993 2.335-10.154 7.997-8.323 14.659 1.572 5.72 8.629 10.672 14.659 8.323 64.511-25.134 129.03-50.251 192.775-77.288 62.93-26.692 125.07-55.397 185.293-87.777 55.26-29.712 108.934-62.541 159.615-99.569 50.983-37.248 98.847-78.477 142.113-124.498 4.779-5.083 9.741-10.486 15.357-14.035 2.847-1.799 4.816-2.812 7.536-3.593 3.401-.976 4.035-1.064 7.984-.955 4.965.137 10.477 1.787 15.234 5.28-.657-.482 1.676 1.488 2.03 1.835.477.467.942 1.282 1.504 1.572.986.508-.762-1.762-.563-.703.084.449.764 1.482 1.051 1.912-1.754-2.631-.568-.217-.073.673.603 1.085.105-2.243-.123-.985-.075.413.075.907.07 1.335-.011.806-.076 1.617-.077 2.422-.003 1.854.067-.452.13-.757-.1.489-.156.989-.269 1.476-.265 1.149-.53 2.289-.865 3.42a53 53 0 0 1-.899 2.741c-.245.684-1.467 3.585-.5 1.404a97 97 0 0 1-3.233 6.61c-2.485 4.626-5.292 9.076-8.251 13.413a231 231 0 0 1-4.348 6.143q-1.026 1.402-2.07 2.793c-.394.524-.792 1.044-1.186 1.568-1.874 2.495.729-.924-.364.48-13.689 17.586-28.129 34.967-43.566 51.02-21.35 22.203-44.633 42.425-68.834 61.45-23.871 18.766-48.875 36.089-74.204 52.817-25.957 17.143-52.207 33.939-78.857 49.987-55.883 33.653-114.172 63.221-173.895 89.424-59.347 26.038-120.189 48.627-181.742 68.864-31.004 10.193-62.213 19.73-93.539 28.882-25.686 7.504-51.981 14.432-77.652 17.027-11.569 1.17-23.406 1.972-34.996.632l9.397 16.375c-.628.813 1.374-1.66 1.663-2.006a146 146 0 0 1 2.791-3.252 168 168 0 0 1 5.119-5.528 239 239 0 0 1 12.284-11.809c8.619-7.731 17.697-14.935 26.976-21.854 18.871-14.073 38.226-27.453 56.75-41.996 8.245-6.473-2.639-20.7-11.282-14.622Z"/><path d="M755.679 276.204q4.427 1.42 8.714 3.219l-2.022-.853c7.365 3.12 14.249 7.25 20.653 12.033l-1.88-1.453c1.546 1.198 3.119 2.357 4.667 3.553l-1.898-1.466a108.8 108.8 0 0 1 19.084 19.082l-1.563-2.023c.904 1.194 1.835 2.366 2.752 3.55l-1.566-2.027a104.6 104.6 0 0 1 13.367 22.915l-1.028-2.437a108.7 108.7 0 0 1 7.441 27.433l-.371-2.764c1.278 9.72 1.382 19.542.094 29.267l.371-2.762a108 108 0 0 1-.963 5.878c-.336 1.736-.67 3.489-.732 5.26-.086 2.481.762 4.522 1.904 6.654 2.183 4.079 8.498 5.988 12.419 3.256.98-.683 2.018-1.351 2.858-2.19 1.56-1.56 2.313-3.394 3.051-5.402.438-1.19.615-2.484.838-3.73.589-3.285 1.04-6.602 1.4-9.919.55-5.076.731-10.191.549-15.294-.391-10.952-2.329-21.982-5.819-32.375-6.572-19.573-18.136-37.22-34.057-50.443-4.479-3.72-9.165-7.241-14.17-10.225-5.089-3.035-10.413-5.535-15.877-7.813l2.048.864c-5.206-2.2-10.407-4.249-15.858-5.768-4.172-1.163-9.201 1.433-10.193 5.787-1.032 4.532 1.366 8.775 5.787 10.193"/></svg>