<?xml version="1.0" encoding="UTF-8"?><svg xmlns="http://www.w3.org/2000/svg" data-name="ARTWORK" viewBox="0 0 1000 1000"><path d="M965.862 450.219c-1.964 55.485-2.196 110.989-2.413 166.511-.052 13.392.491 26.942-.321 40.312-.261 4.299-1.029 8.862-3.713 12.359-3.11 4.053-7.87 6.743-12.072 9.474-18.502 12.025-37.511 23.281-56.597 34.349-40.489 23.479-81.674 45.798-121.522 70.369-9.196 5.67-18.068 11.999-27.433 17.375-4.454 2.557-8.741 4.257-13.979 3.512-5.591-.796-11.218-3-16.706-4.419a5191 5191 0 0 1-68.191-18.119c-88.116-24.052-175.554-50.495-262.592-78.176-94-29.895-187.664-60.842-281.413-91.511-12.932-4.23-25.969-8.137-38.975-12.132-4.801-1.474-10.888-2.831-14.741-4.857-3.89-2.046-5.288-4.15-5.686-7.521-.633-5.357-.207-10.939-.226-16.33q-.035-9.428-.074-18.854c-.05-12.404-.158-24.809-.29-37.212-.549-51.63-1.764-103.253-1.59-154.889.043-12.832.174-25.663.412-38.492l-15.571 11.861c66.16 19.918 132.696 38.542 199.433 56.427 65.259 17.49 130.759 34.082 196.194 50.895 63.989 16.442 127.957 32.987 191.663 50.499 30.888 8.49 61.713 17.21 92.437 26.276 8.344 2.462 16.555 4.928 25.23 5.922 9.138 1.047 17.941-.782 26.355-4.296 13.123-5.481 25.85-12.046 38.712-18.112 53.205-25.091 106.569-49.845 159.692-75.109 6.119-2.91 12.228-5.842 18.346-8.756 5.88-2.801 7.417-11.218 4.327-16.501-3.518-6.015-10.599-7.138-16.501-4.327-52.179 24.856-104.769 48.846-157.102 73.374a10548 10548 0 0 0-38.209 17.989c-12.049 5.706-23.915 13.438-37.737 10.502-15.691-3.333-31.11-8.88-46.523-13.322a5305 5305 0 0 0-45.458-12.874c-62.586-17.435-125.45-33.852-188.355-50.088-64.964-16.768-129.98-33.34-194.844-50.494-65.776-17.395-131.479-35.118-196.721-54.435a5095 5095 0 0 1-24.4-7.293c-7.806-2.354-15.422 4.06-15.571 11.861-1.021 53.729-.118 107.469.71 161.194.395 25.611.962 51.218 1.157 76.832.089 11.692-1.507 24.64 1.42 36.066 3.741 14.604 16.614 21.17 29.724 25.703 97.471 33.707 195.758 65.337 294.05 96.569 89.591 28.468 179.533 55.854 270.193 80.73a5239 5239 0 0 0 69.055 18.447c12.212 3.173 24.419 6.369 36.627 9.554 14.31 3.734 26.875 2.007 39.54-5.657 19.314-11.689 38.089-24.211 57.569-35.662 20.951-12.316 42.091-24.304 63.169-36.4 20.707-11.884 41.435-23.779 61.7-36.407 9.266-5.774 18.684-11.498 27.53-17.907 5.441-3.942 10.42-8.152 14.147-13.821 4.109-6.249 5.772-13.576 6.487-20.921 1.275-13.101.326-26.625.28-39.775-.051-14.507-.131-29.013-.229-43.52-.191-28.371.069-56.79-.766-85.148a7507 7507 0 0 0-1.365-41.628c-.411-11.756-17.86-11.774-18.276 0Z"/><path d="M721.227 511.547c-.189 9.787-.571 19.552-1.01 29.331s-.694 19.544-.874 29.331a5736 5736 0 0 0-.797 58.662c-.315 38.908-.514 77.817-.721 116.725-.059 10.974-.07 21.948-.096 32.923-.013 5.391-.073 10.775.135 16.162.107 2.776.046 5.622.373 8.38l.994 8.38c.344 2.901.952 5.333 3.098 7.478 1.834 1.834 4.844 3.216 7.478 3.098 2.735-.123 5.572-1.021 7.478-3.098l1.654-2.14a10.5 10.5 0 0 0 1.444-5.338c.593-5.002 1.103-9.931 1.298-14.965.185-4.794.225-9.569.213-14.366l-.07-29.331c-.047-19.554-.205-39.108-.309-58.662-.208-38.91-.397-77.822-1.111-116.725-.202-10.979-.353-21.952-.845-32.923s-.958-21.937-1.171-32.923c-.087-4.485-3.885-8.792-8.582-8.582-4.724.212-8.489 3.77-8.582 8.582Zm167.951 137.766a203 203 0 0 1-26.199 13.352l2.302-.971a242 242 0 0 1-26.386 9.315c-2.452.708-4.721 2.414-6.016 4.626-1.263 2.158-1.798 5.337-1.015 7.756 1.654 5.11 6.974 8.63 12.382 7.03 19.182-5.672 37.341-14.592 53.781-25.968 1.904-1.317 3.398-2.947 4.029-5.239.578-2.099.317-4.893-.884-6.756-2.541-3.942-7.797-5.685-11.995-3.145Z"/><path d="M736.863 497.056c.023-8.106.614-16.189.615-24.296 0-8.313.085-16.628.047-24.941-.078-16.881.003-33.763.376-50.641.107-4.842.277-9.682.46-14.522q.14-3.717.302-7.433c.101-2.323.07-4.704.328-7.014l-.424 3.153a.4.4 0 0 1 .028-.095l-1.196 2.834c.033-.074.074-.138.122-.204l-1.856 2.402a3 3 0 0 1 .418-.396l-2.404 1.857c1.143-.864 2.535-1.424 3.845-1.979l-2.857 1.206c1.36-.531 2.689-1.135 4.034-1.704l-2.859 1.206c7.221-3.03 14.729-5.417 22.195-7.763 13.235-4.16 26.444-8.421 39.523-13.051 29.797-10.547 59.314-21.849 89.244-32.022 16.843-5.725 33.79-11.152 50.912-15.982l-14.694-11.194c.631 14.856 1.227 29.714 1.69 44.577.48 15.406.836 30.819.91 46.233a923 923 0 0 1-.185 24.567c-.065 2.956 1.349 6.191 3.424 8.266 2.027 2.027 5.354 3.554 8.266 3.424 6.448-.289 11.546-5.135 11.689-11.689.325-14.863.223-29.733-.064-44.595-.298-15.414-.841-30.824-1.46-46.228-.329-8.185-.686-16.37-1.053-24.554-.167-3.734-1.615-6.829-4.575-9.116-2.881-2.226-6.544-3.095-10.12-2.078-24.982 7.11-49.574 15.496-74.035 24.209-24.394 8.689-48.824 17.274-73.339 25.617a1308 1308 0 0 1-32.098 10.447c-5.988 1.867-11.96 3.809-17.842 5.991-3.641 1.351-7.344 2.716-10.764 4.566-1.597.864-3.087 1.975-4.415 3.201-1.521 1.405-2.787 3.661-3.337 5.643-.604 2.173-.468 4.547-.488 6.783-.121 13.194-.047 26.392.133 39.585.175 12.878.521 25.752.911 38.625.383 12.642 1.038 25.309 2.256 37.896.297 3.069.532 6.129.708 9.207.134 2.339.892 4.543 2.581 6.232 1.529 1.529 4.037 2.68 6.232 2.581 4.786-.214 8.799-3.872 8.813-8.813Z"/><path d="M803.356 253.484c-24.658 7.769-49.348 15.403-74.093 22.893s-49.3 14.991-73.894 22.675c-13.88 4.337-27.715 8.877-41.662 12.991-2.444.721-4.475 2.151-6.024 4.156-1.412 1.827-2.804 4.636-2.49 7.027.989 7.538 2.011 15.069 3.023 22.605l-.426-3.168c2.411 18.017 4.197 36.105 5.523 54.233a842 842 0 0 1 2.214 54.735c.08 10.232-.37 20.482-.136 30.707.071 3.088 1.276 6.195 3.478 8.397 2.06 2.06 5.439 3.611 8.397 3.478 3.071-.138 6.256-1.146 8.397-3.478 2.227-2.426 3.212-5.108 3.478-8.397.842-10.42.611-20.996.53-31.444a843 843 0 0 0-.808-30.944 794 794 0 0 0-5.258-62.424c-1.553-12.511-3.244-25.002-5.632-37.383l-8.1 14.266c12.207-4.416 24.557-8.469 36.833-12.69 12.199-4.194 24.444-8.278 36.601-12.592 24.333-8.634 48.682-17.222 73.024-25.833 13.73-4.857 27.557-9.451 41.342-14.154 2.008-.685 3.757-1.861 4.851-3.731 1.018-1.74 1.45-4.304.818-6.255-1.314-4.06-5.648-7.036-9.986-5.67"/><path d="M653.572 235.261c-24.269 5.13-48.651 9.712-72.91 14.886-24.081 5.136-48.178 10.201-72.221 15.508l-40.927 9.033c-3.854.851-6.838 3.931-8.314 7.429q-1.205 2.294-1.105 4.943a12.77 12.77 0 0 0 1.752 6.476l.539 1.269-1.295-3.068c9.587 22.74 17.075 46.229 21.819 70.464a348 348 0 0 1 3.359 20.379l-.459-3.413c2.288 17.141 3.31 34.447 2.993 51.739-.044 2.371-.149 4.741-.195 7.112-.044 2.221-.062 4.376.462 6.57.438 1.83 1.641 3.868 2.466 5.65 1.588 3.432 5.933 5.468 9.533 5.468 3.967 0 7.471-2.135 9.533-5.468 1.124-1.817 2.245-3.538 2.842-5.65.607-2.149.661-4.75.776-7.029.135-2.673.18-5.355.222-8.03.082-5.278.04-10.559-.124-15.835a343 343 0 0 0-2.475-31.795c-2.761-22.128-7.254-43.945-14.023-65.206a340 340 0 0 0-13.815-36.107l-7.668 18.847c24.072-5.796 48.155-11.544 72.186-17.512 23.865-5.927 47.723-11.855 71.512-18.082 13.501-3.533 27.007-7.028 40.545-10.416 4.78-1.196 8.117-6.823 6.577-11.583-1.649-5.096-6.412-7.67-11.583-6.577Z"/><path d="M356.617 405.887c-3.015-27.739-5.172-55.627-6.301-83.508-1.133-27.976-.646-56.05 1.26-83.982a730 730 0 0 1 4.746-46.965l-.43 3.199a728 728 0 0 1 5.252-33.257A712 712 0 0 1 364.321 145c1.037-5.032 1.7-10.51 3.694-15.272l-1.219 2.888c.429-.932.924-1.785 1.548-2.601l-1.891 2.447c.439-.514.9-.974 1.414-1.412l-2.448 1.891c.931-.719 1.91-1.276 2.983-1.757l-2.89 1.219c2.876-1.188 5.966-1.749 8.991-2.427q5.354-1.2 10.712-2.383A3334 3334 0 0 1 582.451 90.25l-15.109-15.109a473.6 473.6 0 0 0-20.651 69.87 498.6 498.6 0 0 0-10.137 74.87c-.803 13.685-.913 27.346-.528 41.043.09 3.195 1.304 6.377 3.587 8.659 2.124 2.124 5.609 3.723 8.659 3.587 6.481-.29 12.439-5.386 12.246-12.246-.722-25.708.743-51.543 4.164-77.025l-.44 3.275c3.815-28.142 10.105-55.939 18.856-82.959a483 483 0 0 1 7.931-22.543c1.514-3.989-.284-9.075-3.159-11.95a12.3 12.3 0 0 0-5.42-3.159 12.37 12.37 0 0 0-6.53 0 3329 3329 0 0 0-188.322 35.718c-7.729 1.698-15.463 3.387-23.171 5.177-4.916 1.141-9.319 3.024-13.274 6.187-3.787 3.029-6.101 7.731-7.374 12.323-2.009 7.245-3.233 14.803-4.637 22.185a720 720 0 0 0-4.029 23.259c-4.929 31.519-8.062 63.377-8.853 95.278-.775 31.216.454 62.69 4.472 93.662a936 936 0 0 0 1.838 13.452l-.378-2.814c1.681 12.52 4.161 24.946 6.93 37.267.972 4.324 5.604 6.94 9.772 6.38 3.987-.536 8.202-4.337 7.722-8.747Z"/><path d="M248.64 370.92c.264-16.422 1.304-32.811.858-49.24-.222-8.188-.63-16.373-1.318-24.536-.658-7.813-1.698-15.587-2.416-23.394-.783-8.513-1.172-17.157-.04-25.657l-.429 3.193c.527-3.763 1.365-7.461 2.585-11.062l-11.664 8.88c27.238-2.876 54.289-7.07 81.108-12.628a869 869 0 0 0 21.995-4.86c2.938-.689 5.845-3.083 7.346-5.649 1.542-2.635 2.195-6.518 1.239-9.472-2.118-6.545-8.406-10.15-15.121-8.586-22.599 5.265-45.374 9.434-68.287 13.06a853 853 0 0 1-19.364 2.831l3.24-.435q-6.072.816-12.156 1.548l-3.216.432a9.1 9.1 0 0 0-4.113 2.165c-2.135 1.649-3.495 3.678-4.335 6.283-6.451 20.007-1.952 40.793.779 60.993l-.407-3.025c1.372 10.258 2.285 20.571 2.901 30.901.611 10.252 1.191 20.512 1.674 30.772.274 5.83.415 11.649.493 17.485.066 4.875 4.242 9.551 9.324 9.324 5.119-.229 9.24-4.096 9.324-9.324Z"/><path d="M158.688 354.867c.409-4.085.758-8.174 1.131-12.262l-.32 2.382c.363-2.592.712-5.185 1.058-7.78l-.341 2.534c.82-4.928.784-10.062.973-15.051q.242-6.38.371-12.764c.176-8.664-.039-17.349-.314-26.009a724 724 0 0 0-3.463-51.373c-1.089-10.547-2.425-21.067-3.929-31.562l-8.161 14.374c10.038-1.768 20.047-3.674 30.065-5.559 9.918-1.866 19.739-4.086 29.562-6.401 9.903-2.333 19.933-4.07 29.934-5.928 9.924-1.843 19.856-3.646 29.775-5.516 5.52-1.041 11.014-2.209 16.517-3.335 5.647-1.156 11.392-2.077 16.921-3.709 4.27-1.26 6.97-5.377 6.38-9.772-.563-4.193-4.299-7.915-8.747-7.722-6.441.279-12.864 1.446-19.25 2.31-5.764.781-11.532 1.532-17.278 2.437-11.463 1.804-22.9 3.76-34.336 5.726-6.523 1.122-13.044 2.471-19.598 3.388l2.854-.383a2019 2019 0 0 0-28.56 3.993c-4.336.639-8.642 1.588-12.946 2.413s-8.619 1.656-12.927 2.491c-4.878.946-9.722 1.99-14.579 3.031-2.654.569-5.722 2.983-6.984 5.37l-1.178 2.791a11.76 11.76 0 0 0 0 6.213 733 733 0 0 1 3.675 24.23l-.406-3.025c4.309 32.163 6.252 64.555 6.764 96.99.073 4.599.099 9.156.441 13.742.339 4.553.202 9.17.197 13.734-.005 4.368 3.844 8.551 8.35 8.35 2.159-.097 4.399-.806 5.904-2.446 1.581-1.722 2.213-3.584 2.446-5.904ZM46.47 319.279c3.154 0 6.176-2.774 6.03-6.03s-2.65-6.03-6.03-6.03c-3.154 0-6.176 2.774-6.03 6.03s2.65 6.03 6.03 6.03"/><path d="M37.687 312.512c-1.672 1.92-3.255 4.129-5.158 5.819l15.534 9.043c1.356-4.848 1.721-9.833 1.83-14.845.093-4.284-.135-8.523-.62-12.78-1.074-9.42-2.829-18.758-5.855-27.76-1.827-5.436-4.069-10.762-6.528-15.94l-7.097 17.445c14.172-2.133 28.298-4.542 42.433-6.904 14.044-2.347 28.113-4.579 42.135-7.053l23.844-4.206c2.762-.487 5.705-3.105 7.069-5.436 1.484-2.535 2.112-6.272 1.192-9.115-.926-2.862-2.7-5.624-5.436-7.069l-2.826-1.192a11.9 11.9 0 0 0-6.289 0c-28.225 4.455-56.401 9.19-84.584 13.9a1492 1492 0 0 0-23.854 4.172c-3.549.653-6.367 3.728-7.696 6.876-1.518 3.596-1.179 7.12.599 10.569a126 126 0 0 1 4.006 8.545l-1.182-2.8c4.362 10.397 7.413 21.273 8.917 32.452l-.391-2.91c.321 2.453.555 4.912.917 7.361l-.387-2.877c.362 2.915.631 5.839.789 8.772.195 3.637.597 7.177 1.088 10.794l.937 2.22 1.453 1.881c1.454 1.454 3.323 2.286 5.337 2.556 1.7.228 3.235.033 4.816-.634 1.716-.724 3.627-2.052 4.444-3.803 1.08-2.314 2.746-4.469 4.111-6.627 2.304-3.642 1.05-8.602-2.222-11.13-3.192-2.466-8.496-2.579-11.329.675Zm-7.468 287.434c85.227 74.566 188.483 124.843 290.386 174.234 70.226 34.038 140.478 68.088 212.077 99.135 47.968 20.8 97.257 40.436 149.189 46.495s107.466-2.809 149.094-34.442c32.771-24.902 54.287-61.453 74.967-97.04l61.961-106.623c-57.337 56.339-125.687 101.428-200.046 131.965-14.904 6.121-30.29 11.719-46.354 12.967-20.609 1.601-41.021-4.03-60.898-9.703a6365 6365 0 0 1-557.057-187.217"/><path d="M23.692 606.473c54.6 49.614 117.076 88.765 181.962 123.405 67.761 36.175 137.561 68.85 206.965 101.727 36.649 17.361 73.479 34.348 110.663 50.537 35.625 15.511 71.665 30.613 109.354 40.399 67.025 17.404 145.333 17.146 203.129-25.967 28.591-21.327 49.34-50.398 67.551-80.685 20.355-33.853 39.662-68.368 59.415-102.575l14.95-25.889c6.438-11.149-8.577-22.828-17.803-13.737-39.33 38.755-84.582 71.69-132.869 98.386-23.904 13.216-48.753 25.383-74.434 34.763-13.804 5.042-27.755 8.546-42.541 7.914-14.889-.637-29.392-4.755-43.642-8.833-60.644-17.352-120.952-35.888-180.992-55.223-59.774-19.249-119.382-38.991-178.649-59.753a6363 6363 0 0 1-199.759-73.751c-6.541-2.539-14.253 2.797-15.977 9.072-2.018 7.345 2.507 13.429 9.072 15.977a6391 6391 0 0 0 180.017 66.799c60.325 21.355 120.936 42.024 181.962 61.295 60.741 19.181 121.782 37.397 183.037 54.865 31.16 8.886 62.386 18.228 94.872 10.597 14.795-3.476 28.89-9.541 42.806-15.53a620 620 0 0 0 38.518-18.172c50.692-26.075 97.7-59.185 139.497-97.943 5.108-4.736 10.126-9.57 15.114-14.431l-17.803-13.737-61.309 104.84c-16.595 28.377-33.265 57.397-56.715 80.781-47.604 47.468-118.253 55.269-181.637 42.411-36.327-7.369-71.247-20.421-105.31-34.807-36.233-15.303-72.027-31.675-107.647-48.349-69.001-32.299-137.736-65.363-205.701-99.791-63.648-32.241-126.397-67.706-182.949-111.436-6.808-5.265-13.494-10.687-20.09-16.214-3.819-3.2-9.311-3.743-13.055 0-3.402 3.402-3.704 9.689 0 13.055Zm26.067-293.711a292 292 0 0 1-9.024-35.498c-.328-1.743-.589-3.727.493-5.134.95-1.237 2.626-1.605 4.159-1.89l89.513-16.633c1.25-.232 2.698-.414 3.651.426.658.58.886 1.495 1.079 2.351 6.609 29.209 13.252 59.319 8.293 88.853a4928 4928 0 0 1-89.601-23.427"/><path d="M58.526 310.345c-3.446-11.876-6.082-23.978-7.832-36.222l.371 2.765c-.099-.776-.172-1.535-.092-2.316l-.376 2.797q.09-.361.227-.707l-1.077 2.552c.152-.341.311-.627.521-.936l-1.707 2.209q.22-.289.497-.524l-2.241 1.732a20 20 0 0 0 2.804-2.168l-2.263 1.748a6 6 0 0 1 1.215-.709l-2.675 1.129c2.614-.98 5.621-1.178 8.36-1.655l9.076-1.583c6.131-1.07 12.255-2.162 18.375-3.291l36.698-6.77c6.747-1.245 13.489-2.685 20.27-3.726l-3.081.414a8 8 0 0 1 1.412-.06l-3.082-.414a4.2 4.2 0 0 1 .976.242l-2.769-1.169q.31.14.565.364l-2.346-1.813.257.268-1.813-2.347q.231.291.383.632l-1.169-2.77c.658 1.645.856 3.517 1.211 5.247a1513 1513 0 0 1 1.065 5.231c.752 3.736 1.441 7.484 2.201 11.218 1.502 7.373 2.834 14.782 3.839 22.24l-.428-3.182c1.998 15.049 2.562 30.433.536 45.514l.416-3.096q-.066.48-.135.959l14.298-8.118c-5.869-1.335-11.679-2.994-17.501-4.521s-11.653-3.069-17.475-4.619c-11.646-3.101-23.312-6.123-34.958-9.221-6.541-1.74-13.068-3.539-19.624-5.219-2.994-.767-6.394-.384-9.079 1.188-2.444 1.43-4.775 4.233-5.415 7.041-.687 3.016-.538 6.402 1.188 9.079 1.675 2.598 4.02 4.548 7.041 5.415 23.161 6.642 46.556 12.559 69.935 18.377 6.563 1.633 13.19 3.099 19.709 4.897 2.781.767 6.488.42 8.956-1.172 2.426-1.564 4.785-4.003 5.342-6.946 1.382-7.307 2.338-14.767 2.465-22.209.112-6.567-.221-13.137-.866-19.671-1.4-14.175-3.914-28.245-7.218-42.094-.768-3.219-1.554-6.434-2.345-9.647-.539-2.19-1.124-4.307-2.348-6.257-2.674-4.261-7.071-6.361-11.984-6.62-2.151-.114-4.366.481-6.484.877l-5.379 1.007-10.024 1.876-40.096 7.504c-7.494 1.403-14.974 2.875-22.454 4.351-3.623.715-7.295 1.311-10.889 2.162-3.004.711-5.714 2.249-7.957 4.349-1.621 1.518-2.865 4.086-3.301 6.27-.529 2.651-.355 4.446.054 7.143l-.376-2.797c.659 7.206 2.89 14.371 4.893 21.303a351 351 0 0 0 6.166 19.305c.796 2.256 2.063 4.196 4.178 5.434 1.949 1.14 4.821 1.624 7.006.917 4.635-1.5 7.77-6.291 6.35-11.184Z"/></svg>