<?xml version="1.0" encoding="UTF-8"?><svg xmlns="http://www.w3.org/2000/svg" data-name="ARTWORK" viewBox="0 0 1000 1000"><path d="M351.817 233.699c.982-8.508 1.067-17.107 1.507-25.653l-.346 2.575c.647-4.077.433-8.254.459-12.378.022-3.494.057-6.988.144-10.48.159-6.415.52-12.814 1.364-19.178l-.387 2.883c.482-3.478 1.167-6.951 2.506-10.211l-1.115 2.643a20.7 20.7 0 0 1 2.317-4.031l-1.735 2.245a19.7 19.7 0 0 1 3.289-3.262l-2.252 1.74c1.956-1.465 4.09-2.589 6.328-3.559l-2.669 1.126c7.757-3.261 15.944-5.656 23.897-8.391a5443 5443 0 0 0 25.41-8.788c8.733-3.052 17.708-5.749 26.193-9.444a25.55 25.55 0 0 0 11.671-10.25c2.109-3.504 3.363-7.568 4.208-11.55 1.54-7.256 3.262-14.278 6.126-21.149l-1.167 2.766c3.34-7.901 7.701-15.314 12.925-22.116l-1.817 2.352a104.2 104.2 0 0 1 18.473-18.483l-2.36 1.824c6.795-5.222 14.213-9.584 22.102-12.935l-2.789 1.177c7.27-3.044 14.878-5.188 22.689-6.27l-3.093.416c6.288-.827 12.634-.948 18.93-.134l-3.084-.414c4.75.658 9.382 1.847 13.819 3.678l-2.765-1.167c3.513 1.496 6.817 3.352 9.854 5.669l-2.339-1.807a44.4 44.4 0 0 1 7.626 7.622l-1.804-2.335a42.3 42.3 0 0 1 5.398 9.238l-1.161-2.752a37.4 37.4 0 0 1 2.41 8.777l-.411-3.058c.344 2.705.365 5.41.037 8.117l.411-3.059c-.11.802-.246 1.595-.409 2.388-.842 4.1-.088 8.149 2.96 11.197 2.65 2.65 7.508 4.444 11.197 2.96 19.801-7.967 39.959-14.957 60.469-20.868a755 755 0 0 1 8.351-2.353c2.816-.776 5.686-1.785 8.583-2.184l-3.069.412a14.6 14.6 0 0 1 3.104.011l-3.069-.412c1.148.167 2.237.461 3.314.893l-2.758-1.164a14.6 14.6 0 0 1 2.919 1.714l-2.337-1.806c.889.717 1.668 1.51 2.369 2.412l-1.806-2.337a14.6 14.6 0 0 1 1.502 2.586l-1.164-2.759c.45 1.1.748 2.214.915 3.39l-.413-3.074c.239 2.262-.048 4.572-.173 6.835l-.422 7.673-.829 15.088-1.657 30.14 8.654-11.367a3086 3086 0 0 1-61.885 24.58c-20.76 7.994-41.541 15.925-62.411 23.63a4787 4787 0 0 1-63.111 22.779 6552 6552 0 0 1-63.023 21.889 10498 10498 0 0 1-63.491 21.462l-8.083 2.705c-2.967.992-5.57 2.771-7.18 5.521-1.507 2.575-2.145 6.371-1.211 9.258 1.916 5.921 8.397 10.524 14.779 8.391 21.236-7.098 42.463-14.223 63.658-21.439a6876 6876 0 0 0 63.043-21.784 4957 4957 0 0 0 63.155-22.647 3859 3859 0 0 0 62.472-23.495c20.725-8.008 41.321-16.369 61.839-24.894q3.86-1.605 7.717-3.22c2.461-1.031 4.436-2.041 6.123-4.225 1.645-2.129 2.402-4.416 2.531-7.143l1.652-34.83.842-17.749c.171-3.609.291-6.854-.31-10.453-.453-2.715-1.587-5.514-3.085-7.808-3.515-5.386-9.109-9.814-15.566-10.954-3.947-.697-7.567-.697-11.488.28-2.753.686-5.484 1.482-8.217 2.243-10.513 2.928-20.962 6.087-31.313 9.545-12.152 4.061-24.158 8.54-36.039 13.332l14.156 14.156c1.772-8.662 1.19-17.647-2.202-25.855S581.794 32.697 574.84 27.1c-7.392-5.949-15.982-10.145-25.314-12.056-9.687-1.984-19.179-1.915-28.923-.581-30.668 4.199-58.035 23.798-74.712 49.455-4.688 7.212-8.405 15.066-11.282 23.166a91 91 0 0 0-3.197 11.202c-.873 4.024-1.42 8.134-3 11.966l1.163-2.755c-.586 1.331-1.284 2.571-2.168 3.727l1.802-2.333a15 15 0 0 1-2.148 2.136l2.332-1.801c-1.329.997-2.765 1.763-4.284 2.426l2.75-1.161c-4.816 2.004-9.844 3.566-14.761 5.302l-15.465 5.461c-10.107 3.569-20.183 7.229-30.272 10.849-5.275 1.892-10.622 3.669-15.697 6.067-5.219 2.466-9.561 6.193-12.86 10.92-3.467 4.968-4.609 10.964-5.29 16.843-.466 4.022-.634 8.087-.677 12.134-.053 4.965.104 9.93.315 14.889.111 2.602.24 5.203.371 7.803.165 3.268.123 6.649.774 9.858l-.346-2.575c.79 8.534 1.164 17.085.706 25.653-.24 4.49 4.119 8.781 8.582 8.582 2.219-.099 4.521-.828 6.068-2.513 1.637-1.783 2.238-3.678 2.513-6.068Z"/><path d="m517.64 86.991-.265.23 7.555-1.997c-1.51-.373-2.955-.569-4.496-.362-2.154.289-3.688 1.223-5.333 2.554-.449.363-.898.736-1.31 1.141-1.296 1.276-2.414 2.919-3.349 4.499-1.545 2.61-2.735 5.563-3.379 8.535-.636 2.934-1.038 6.069-.832 9.082.132 1.922.31 3.915.853 5.766.495 1.689 1.192 3.107 2.249 4.475.838 1.084 1.719 2.04 2.927 2.747.795.465 1.807.801 2.68 1.11l2.429.326a6.9 6.9 0 0 0 3.521-.787c1.884-.795 3.234-2.007 4.37-3.739 2.488-3.792 1.35-7.637.789-11.702l.359 2.672a24 24 0 0 1 .017-5.921l-.357 2.655c.327-2.323.999-4.54 1.889-6.707l-.994 2.356c.487-1.135 1.094-2.177 1.68-3.259.276-.508.509-1.038.79-1.545 1.504-2.72 1.863-5.458.919-8.474l-1.997 7.555.24-.255c2.774-2.956 3.15-8.064 0-10.955-3.276-3.007-7.675-2.838-10.955 0M385.992 211.84c-34.047 13.907-70.573 22.435-103.341 39.433-3.569 1.852-5.485 5.911-5.606 9.773-2.043 65.569-4.005 131.196-1.43 196.78 2.449 62.378 8.848 124.862 23.485 185.644 13.697 56.881 34.133 112.513 61.101 164.467 6.61 12.734 13.692 25.22 21.569 37.214.928 1.412 1.899 2.801 2.794 4.234.307.491 1.347 3.069 1.802 3.249-.961-.381-.899-2.587-.557-1.145.434 1.829-.196-2.073-.199-1.963-.063 1.825 1.707-5.639 1.499-5.166 3.078-7.007 13.423-7 17.9-2.461 3.913 3.967 3.711 10.17.611 13.593.982-1.085.022.925-1.103.811.132.013 1.349-.782 1.327-.77.959-.525 1.949-.999 2.918-1.507 16.648-8.728 33.43-17.202 50.237-25.619 42.77-21.419 85.735-42.445 128.554-63.765 45.388-22.6 90.681-45.419 135.422-69.28 19.973-10.652 39.839-21.513 59.45-32.819 4.645-2.678 9.699-5.072 14.015-8.254 7.501-5.531 12-13.912 8.944-23.341-2.283-7.046-7.609-13.271-11.459-19.526a420 420 0 0 1-10.946-18.857 407 407 0 0 1-17.907-37.129c.732 1.739-.073-.183-.183-.451-.313-.762-.629-1.523-.94-2.286a436 436 0 0 1-5.78-14.969 456 456 0 0 1-6.558-19.313c-8.365-26.544-14.47-53.823-18.997-81.272a552 552 0 0 1-1.805-11.959l-.281-2.037c.405 2.922-.069-.554-.115-.908a667 667 0 0 1-2.011-17.435c-1.276-12.452-2.236-24.936-2.961-37.432-1.524-26.263-2.024-52.584-1.826-78.888.396-52.54 3.4-105.14 9.321-157.351a1176 1176 0 0 1 2.545-20.812c.048-.365.332-2.511.125-.955s.078-.573.128-.939q.571-4.176 1.175-8.346c.7-4.837-.1-9.167-4.207-12.34-4.054-3.132-8.534-2.832-13.039-.918-5.812 2.47-14.648 5.835-21.725 8.419-7.975 2.912-15.995 5.696-24.008 8.498-14.824 5.184-29.657 10.422-43.94 16.983-5.737 2.635-7.157 10.927-4.194 15.993 3.445 5.891 10.235 6.839 15.993 4.194q2.475-1.136 4.976-2.217c.686-.296 1.457-.605.317-.134q1.327-.548 2.659-1.086a400 400 0 0 1 10.017-3.867c7.59-2.825 15.24-5.484 22.888-8.147 16.448-5.728 32.819-11.578 48.867-18.362l-17.246-13.258c-7.548 51.49-11.757 103.479-13.605 155.475-1.898 53.389-1.527 107.156 4.185 160.32 5.927 55.163 17.998 110.11 39.968 161.196a411 411 0 0 0 18.827 38.189 421 421 0 0 0 11.193 18.838c1.851 2.94 3.772 5.832 5.655 8.751.4.621.726 1.346 1.181 1.92.862 1.086-.083-.453-.15-1.016-.149-1.255.249-2.427.849-3.512.787-1.424 1.431-.897.03-.165-1.485.776 1.919-.925.294-.231-.581.248-1.118.709-1.666 1.034-1.134.673-2.304 1.283-3.455 1.927-2.457 1.376-4.878 2.818-7.317 4.224a1575 1575 0 0 1-13.844 7.881 2075 2075 0 0 1-30.456 16.784c-45.196 24.447-91.058 47.653-137.032 70.594-44.317 22.113-88.811 43.869-133.141 65.956-17.839 8.888-35.657 17.825-53.35 27-9.607 4.982-22.12 10.853-18.851 24.099 1.804 7.311 9.886 11.986 17.102 9.989 8.028-2.221 11.4-10.99 9.021-18.489-2.101-6.621-6.849-12.164-10.624-17.875-4.078-6.17-8.17-12.329-12.076-18.612a530 530 0 0 1-21.747-38.53c-13.174-25.767-23.23-53.418-31.559-81.311-8.438-28.261-15.007-57.069-20.158-86.104-5.562-31.346-9.138-60.233-11.763-92.187-5.473-66.613-5.114-133.535-3.463-200.3.401-16.214.867-32.427 1.372-48.639l-5.606 9.773c2.992-1.787 6.166-3.29 9.326-4.753 1.857-.86 3.727-1.691 5.605-2.504.495-.214 3.051-1.299.777-.342q1.339-.563 2.682-1.115c9.028-3.72 18.155-7.21 27.294-10.65 9.33-3.513 18.583-7.295 27.795-11.108 8.54-3.535 16.374-7.094 25.371-12.059 3.887-2.145 5.428-7.265 3.682-11.238-1.627-3.702-6.409-6.929-10.616-5.21Z"/><path d="M279.731 258.666c-6.58 21.544-10.84 43.87-14.225 66.127-3.658 24.048-6.336 48.242-8.239 72.49-3.715 47.346-4.29 94.917-3.35 142.384.911 45.982 3.491 91.896 9.665 137.495 6.113 45.148 15.645 89.959 30.471 133.087 14.688 42.724 34.346 84.685 61.262 121.147 3.313 4.487 6.27 9.262 9.667 13.679 3.87 5.031 9.194 6.9 15.17 3.978 51.082-24.979 101.49-51.319 151.682-78.036 50.001-26.616 99.51-54.066 148.869-81.85a7321 7321 0 0 0 83.219-47.568c5.077-2.946 7.545-10.499 4.093-15.611-9.606-14.223-19.153-28.485-28.984-42.554-3.356-4.803-9.978-7.496-15.359-4.027-4.902 3.16-7.463 10.101-4.027 15.359 9.384 14.361 19.055 28.53 28.667 42.739l4.093-15.611c-49.157 28.574-98.629 56.581-148.578 83.75-49.753 27.062-99.529 54.043-149.764 80.205-28.331 14.755-56.743 29.357-85.103 44.055l13.436 1.734c-3.707-4.798-6.19-7.527-9.201-11.983-3.117-4.612-6.205-9.248-9.204-13.939a432 432 0 0 1-16.829-28.735c-5.238-9.78-10.091-19.759-14.655-29.87a488 488 0 0 1-3.14-7.107q-.44-1.02-.877-2.04c-.105-.243-.831-1.97-.17-.395a521 521 0 0 1-7.765-19.644c-15.681-42.135-26.03-86.121-32.829-130.517a861 861 0 0 1-1.719-11.77l-.233-1.684c-.495-3.588.148 1.144-.126-.924q-1.114-8.43-2.095-16.874a1020 1020 0 0 1-3.353-33.836c-1.849-22.366-2.973-44.779-3.666-67.209-1.435-46.453-1.2-92.918 1.085-139.34 1.157-23.509 2.96-46.993 5.679-70.375 1.344-11.556 2.647-20.973 4.486-32.816 1.721-11.088 3.701-22.137 6.003-33.119 1.119-5.337 2.108-10.694 3.208-16.036.974-4.731-1.375-9.673-6.253-11.013-4.784-1.315-9.595 1.612-11.013 6.253Z"/><path d="M449.391 283.151c-2.788 5.91-5.947 11.622-8.786 17.507a1370 1370 0 0 1-8.782 17.837c-5.657 11.305-11.032 22.789-16.993 33.937-3.101 5.8-6.497 11.45-10.512 16.669l1.625-2.103a81 81 0 0 1-4.229 5.014l16.387 2.112c-2.335-3.341-4.879-6.578-7.712-9.514-2.811-2.913-5.927-5.43-9.149-7.874a61 61 0 0 0-8.236-5.266c-2.104-1.117-4.278-2.091-6.542-2.841-.75-.248-1.508-.507-2.274-.702-3.182-.808-6.075-.044-8.923 1.383-1.916.96-3.792 3.473-4.263 5.544l-.331 2.466a9.2 9.2 0 0 0 1.267 4.682c2.041 4.519 7.119 6.141 11.203 8.318a62 62 0 0 1 8.541 5.517l-2.138-1.652a61.8 61.8 0 0 1 10.982 10.979l-1.634-2.115q.606.794 1.19 1.605c1.982 2.747 4.196 4.521 7.623 4.981 3.117.419 6.579-.427 8.765-2.87 9.074-10.139 15.338-22.048 21.163-34.237a1353 1353 0 0 0 17.761-38.693c1.84-4.184 3.784-8.361 5.358-12.652a510 510 0 0 1 4.325-11.421c.734-1.864.194-4.971-.865-6.613-1.027-1.594-2.349-2.771-4.104-3.511-3.635-1.534-8.889-.362-10.716 3.511Zm14.504 166.551a911 911 0 0 1-2.014 5.037l.883-2.092c-1.053 2.461-2.212 4.878-3.318 7.316-1.417 3.124-2.624 6.353-3.921 9.53a1418 1418 0 0 1-6.337 15.244l.991-2.349c-4.401 10.42-8.76 20.857-13.149 31.282l1.03-2.441c-4.259 10.091-8.887 20.126-15.588 28.862l1.63-2.11q-.537.691-1.088 1.374h14.756c-4.549-5.698-10.152-10.522-16.233-14.525a61 61 0 0 0-8.478-4.662c-2.194-.987-4.375-1.976-6.706-2.579a30 30 0 0 0-3.528-.7c-2.714-.365-5.249.281-7.601 1.66-4.466 2.617-5.663 8.242-3.328 12.693.574 1.095.963 1.786 1.993 2.84 1.58 1.616 3.17 2.199 5.199 3.043l-2.473-1.043c2.569 1.089 5.106 2.242 7.683 3.314l-2.545-1.074a62.4 62.4 0 0 1 13.566 7.901l-2.132-1.647a61.6 61.6 0 0 1 9.829 9.536c1.535 1.866 5.026 3.161 7.378 3.056 2.572-.115 5.709-.935 7.378-3.056 4.463-5.674 8.308-11.609 11.523-18.076 3.136-6.308 5.803-12.847 8.432-19.378a1344 1344 0 0 0 15.219-39.571c1.348-3.68 2.788-7.35 3.901-11.108a514 514 0 0 1 3.601-11.713c1.377-4.275-1.608-9.557-5.994-10.556-2.197-.5-4.663-.392-6.613.865-1.991 1.283-3.076 2.937-3.944 5.129Zm37.427 156.854c-2.788 5.91-5.947 11.622-8.786 17.507a1370 1370 0 0 1-8.782 17.837c-5.657 11.305-11.032 22.789-16.993 33.937-3.101 5.8-6.497 11.45-10.512 16.669l1.625-2.103a81 81 0 0 1-4.229 5.014l16.387 2.112c-2.335-3.341-4.879-6.578-7.712-9.514-2.811-2.913-5.927-5.43-9.149-7.874a61 61 0 0 0-8.236-5.266c-2.104-1.117-4.278-2.091-6.542-2.841-.75-.248-1.508-.507-2.274-.702-3.182-.808-6.075-.044-8.923 1.383-1.916.96-3.792 3.473-4.263 5.544l-.331 2.466a9.2 9.2 0 0 0 1.267 4.682c2.041 4.519 7.119 6.141 11.203 8.318a62 62 0 0 1 8.541 5.517l-2.138-1.652a61.8 61.8 0 0 1 10.982 10.979l-1.634-2.115q.606.794 1.19 1.605c1.982 2.747 4.196 4.521 7.623 4.981 3.117.419 6.579-.427 8.765-2.87 9.074-10.139 15.338-22.048 21.163-34.237a1353 1353 0 0 0 17.761-38.693c1.84-4.184 3.784-8.361 5.358-12.652a510 510 0 0 1 4.325-11.421c.734-1.864.194-4.971-.865-6.613-1.027-1.594-2.349-2.771-4.104-3.511-3.635-1.534-8.889-.362-10.716 3.511Z"/><path d="M445.722 630.692a1018 1018 0 0 0-29.801 6.07 547 547 0 0 0-14.677 3.416c-2.833.704-5.617 1.397-8.218 2.795-3.591 1.931-6.595 5.714-7.388 9.741-1.157 5.879.518 12.02 1.664 17.804a275 275 0 0 0 3.093 13.756 261 261 0 0 0 8.409 27.14 302 302 0 0 0 12.095 28.147c2.068 4.201 4.351 8.203 7.539 11.685 4.314 4.712 10.43 7.428 16.803 7.551 6.176.119 11.966-2.289 17.442-4.855 4.416-2.069 8.787-4.239 13.154-6.411 8.845-4.399 17.618-8.94 26.33-13.597s17.354-9.449 25.92-14.371c.934-.537 1.894-1.046 2.793-1.642 2.241-1.488 3.665-2.817 5.213-4.976 3.024-4.218 2.455-9.648.248-14.044-2.243-4.468-4.825-8.877-7.386-13.169l-3.765-6.311c-1.286-2.156-3.504-3.893-5.933-4.562-2.376-.654-5.54-.359-7.649 1.001-4.649 2.997-6.197 8.684-3.561 13.582 1.82 3.382 3.621 6.771 5.534 10.101 1.875 3.265 4.007 6.49 5.621 9.891l-1.011-2.397c.169.429.278.801.352 1.256l-.358-2.665q.038.39-.032.776l.358-2.664q-.06.33-.199.636l1.01-2.394c-.159.312-.325.57-.539.847l1.567-2.029a8 8 0 0 1-1.03.957l2.029-1.568c-1.965 1.426-4.216 2.515-6.329 3.706a960 960 0 0 1-20.926 11.459 934 934 0 0 1-28.345 14.444c-5.267 2.575-10.525 5.256-15.923 7.547l2.451-1.034c-2.379.985-4.811 1.804-7.369 2.164l2.731-.367c-1.31.152-2.603.171-3.913.016l2.733.367a13.5 13.5 0 0 1-3.238-.907l2.458 1.037a14.3 14.3 0 0 1-2.776-1.683l2.083 1.61c-1.145-.926-2.141-1.983-3.051-3.14l1.611 2.085c-2.284-2.999-3.906-6.422-5.531-9.805a279 279 0 0 1-5.418-12.009l1.043 2.472c-6.579-15.604-11.813-31.82-15.533-48.342-1.034-4.591-2.053-9.225-2.735-13.883l.365 2.717c-.137-1.078-.196-2.133-.053-3.213l-.365 2.713c.101-.519.227-.997.427-1.487l-1.026 2.432c.18-.357.367-.663.605-.984l-1.588 2.056c.249-.286.496-.529.785-.775l-2.051 1.585c.61-.456 1.253-.8 1.953-1.1l-2.411 1.017c3.757-1.473 7.8-2.316 11.663-3.47a815 815 0 0 1 12.094-3.493 1014 1014 0 0 1 24.538-6.587c4.374-1.116 7.442-6.237 6.026-10.613-.676-2.088-1.969-4.102-3.965-5.156-2.148-1.135-4.259-1.32-6.648-.87Zm-44.916-154.009c-9.401.629-19.022 2.33-27.883 5.59-4.911 1.807-10.175 3.716-13.937 7.524-4.582 4.639-5.795 10.729-5.96 17.011-.246 9.347 1.016 18.868 2.754 28.032 1.591 8.388 3.911 16.663 6.995 24.627 3.39 8.755 7.402 17.267 12.302 25.282 1.391 2.275 2.881 4.623 4.791 6.494 3.234 3.169 7.088 4.679 11.535 5.108 2.919.281 5.925-.412 8.768-1.043q3.474-.772 6.943-1.569c9.329-2.142 18.636-4.388 27.886-6.848 8.886-2.363 17.798-4.602 26.264-8.24 7.732-3.323 15.463-8.995 19.061-16.831 2.031-4.424 3.352-8.985 3.339-13.906-.012-4.516-1.137-9.342-3.575-13.186-1.201-1.894-2.661-3.776-4.431-5.185-2.199-1.75-4.289-2.989-7.216-2.989-2.503 0-5.493 1.112-7.216 2.989-1.785 1.945-3.111 4.498-2.989 7.216.113 2.525.919 5.568 2.989 7.216.83.661 1.564 1.398 2.218 2.233l-1.596-2.065c.68.914 1.229 1.886 1.672 2.935l-1.029-2.438c.462 1.167.773 2.364.959 3.604l-.365-2.713c.224 1.712.202 3.42-.024 5.131l.365-2.713a21.8 21.8 0 0 1-1.407 5.075l1.031-2.444a21.6 21.6 0 0 1-2.631 4.553l1.605-2.077c-1.298 1.655-2.838 3.09-4.496 4.379l2.086-1.611c-2.599 1.966-5.462 3.495-8.459 4.762l2.477-1.045c-7.158 2.964-14.846 4.646-22.334 6.547-8.485 2.153-16.983 4.262-25.507 6.257-4.743 1.11-9.533 2.462-14.355 3.172l2.812-.378c-1.033.125-2.028.162-3.063.034l2.812.378a8.7 8.7 0 0 1-1.666-.471l2.526 1.066a8.6 8.6 0 0 1-1.312-.768l2.14 1.654c-.716-.562-1.318-1.194-1.886-1.903l1.654 2.14c-2.447-3.216-4.384-6.928-6.278-10.488a145 145 0 0 1-5.414-11.368l1.066 2.526c-5.041-11.963-8.537-24.52-10.288-37.386l.373 2.777a145 145 0 0 1-1.033-10.78c-.2-3.49-.647-7.091-.255-10.578l-.36 2.681c.137-.97.352-1.888.699-2.805l-1.005 2.383c.315-.731.692-1.397 1.16-2.042l-1.546 2a15 15 0 0 1 2.423-2.413l-1.966 1.519c3.161-2.413 6.913-4.106 10.554-5.653l-2.172.916c5.655-2.364 11.466-4.098 17.542-4.938l-2.242.301q2.04-.27 4.09-.446c2.264-.195 4.283-.806 5.937-2.459 1.456-1.456 2.553-3.845 2.459-5.937-.192-4.298-3.703-8.71-8.396-8.396Zm-7.554-167.763a299 299 0 0 0-24.399 5.174 189 189 0 0 0-12.045 3.538c-4.456 1.465-9.226 2.846-13.369 5.066-3.624 1.941-6.082 5.19-7.429 9.013-.854 2.423-.922 5.19-1.031 7.753-.163 3.825.083 7.651.575 11.444 1.11 8.555 3.108 16.827 5.409 25.131 2.352 8.489 4.83 16.997 6.037 25.742l-.385-2.868c.629 4.743.482 9.701 1.807 14.326 1.858 6.484 6.62 12.347 13.49 13.778 5.241 1.092 10.83.416 16.11-.095 4.905-.475 9.811-1.133 14.652-2.064 16.593-3.193 31.953-10.96 47.222-17.899 2.782-1.264 5.153-2.81 7.554-4.715 2.879-2.284 4.754-5.306 6.103-8.669 1.313-3.272 1.318-6.945.638-10.359a14.4 14.4 0 0 0-1.871-4.681c-1.47-2.348-2.874-3.507-5.045-5.138-1.923-1.444-5.444-1.608-7.649-1.001-2.303.634-4.798 2.414-5.933 4.562-1.217 2.304-1.827 5.095-1.001 7.649l1.001 2.371a10 10 0 0 0 3.561 3.561l.255.192-2.009-1.552c.322.273.606.559.876.882l-1.552-2.009c.311.418.562.847.779 1.32l-1.001-2.371c.236.589.394 1.179.494 1.805l-.355-2.639c.09.758.088 1.492.005 2.251l.355-2.639a10.4 10.4 0 0 1-.693 2.517l1.001-2.371c-.338.737-.746 1.39-1.239 2.033l1.552-2.009a15 15 0 0 1-2.463 2.372l2.009-1.552c-2.72 2.012-5.884 3.268-8.962 4.617l2.371-1.001c-12.184 5.042-24.351 9.875-37.228 12.848a121 121 0 0 1-10.875 1.973l2.853-.383a145 145 0 0 1-8.78.894c-3.098.222-6.363.615-9.457.233l2.86.384a9.3 9.3 0 0 1-2.041-.571l2.571 1.085a8 8 0 0 1-1.353-.82l2.179 1.683a8.3 8.3 0 0 1-1.285-1.327l1.684 2.179a11 11 0 0 1-1.094-1.919l1.086 2.573c-.607-1.457-.95-2.978-1.176-4.536l.385 2.865c-.209-1.577-.269-3.162-.396-4.746-.223-2.768-.604-5.526-1.017-8.271-.57-3.785-1.373-7.535-2.3-11.247-1.902-7.61-4.317-15.082-6.239-22.688-1.08-4.274-2.002-8.587-2.599-12.957l.381 2.836c-.615-4.68-.899-9.468-.392-14.174l-.379 2.822c.094-.68.233-1.317.473-1.96l-1.069 2.534c.173-.369.353-.682.59-1.013l-1.658 2.146c.247-.289.493-.533.781-.781l-2.145 1.657c.715-.539 1.479-.929 2.298-1.285l-2.529 1.067c14.695-6.106 29.707-11.624 45.059-15.839 4.374-1.201 7.5-6.215 6.058-10.67-.679-2.099-1.98-4.124-3.986-5.184-2.179-1.151-4.263-1.284-6.684-.874Zm122.956 20.016c9.567-10.008 16.674-21.817 21.409-34.799.743-2.036.176-4.947-.884-6.758s-3.151-3.554-5.241-4.03c-2.245-.511-4.765-.401-6.758.884-2.039 1.314-3.133 3.004-4.03 5.241-2.337 5.824-3.587 11.85-4.101 18.102a58 58 0 0 0-.097 8.202c.206 3.497.455 7.104 1.825 10.35 2.463 5.836 8.339 8.519 14.411 7.374 3.438-.648 6.681-2.901 9.115-5.331 1.998-1.995 3.758-4.277 5.606-6.41l5.819-6.717c2.155-2.488 4.323-4.965 6.465-7.463 1.939-2.261 3.703-4.781 6.059-6.637l-1.906 1.473a10 10 0 0 1 1.878-1.105l-2.245.947c.45-.17.889-.294 1.362-.379l-2.494.335c.449-.05.879-.066 1.329-.017l-2.49-.335c.247.049.464.112.699.202l-2.236-.944c.225.107.423.221.631.36l-1.893-1.462c.332.258.61.539.87.869l-1.46-1.89c.242.345.437.697.601 1.084l-.94-2.228c.111.306.195.607.255.928l-.333-2.477c.038.306.049.597.027.904l.332-2.474c-.033.218-.077.41-.145.619l.937-2.222a3 3 0 0 1-.298.535l1.453-1.881a2 2 0 0 1-.289.295l1.88-1.452c-.19.138-.36.233-.576.327l2.217-.936-.232.074c-3.76 1.201-6.999 4.789-6.813 8.948a11 11 0 0 0 1.267 4.683c1.175 2.224 3.325 3.389 5.546 4.264 6.141 2.421 12.871.6 18.561-2.083 4.15-1.957 7.949-4.696 11.834-7.118a181 181 0 0 1 25.174-13.055l-2.121.895a183 183 0 0 1 20.686-7.274c4.314-1.231 7.43-6.117 5.994-10.556-1.453-4.49-5.895-7.187-10.556-5.994a180 180 0 0 0-24.367 8.115c-8.497 3.526-16.854 7.451-24.743 12.204-4.115 2.479-7.975 5.428-12.408 7.342l2.208-.932c-1.538.634-3.103 1.117-4.754 1.341l2.455-.33c-.936.098-1.835.096-2.771-.013l2.459.33a11.5 11.5 0 0 1-2.717-.768v17.896c3.843-1.139 6.858-4.012 7.976-7.889.953-3.305.278-6.77-1.238-9.776-2.914-5.776-10.223-8.422-16.205-6.051-2.968 1.176-5.468 2.813-7.714 5.114-1.47 1.506-2.829 3.144-4.191 4.748-3.038 3.58-6.049 7.184-9.073 10.776l-5.093 6.049c-1.549 1.84-3.006 3.81-4.885 5.331l1.882-1.454c-.705.537-1.425.993-2.236 1.352l2.217-.936c-.43.164-.85.286-1.304.365l2.465-.331a5.3 5.3 0 0 1-.951.011l2.463.331a4.3 4.3 0 0 1-.903-.257l2.212.933a3 3 0 0 1-.565-.339l1.873 1.447a4.7 4.7 0 0 1-.74-.764l1.446 1.871a6.3 6.3 0 0 1-.497-.951l.931 2.207c-.347-.989-.491-2.011-.634-3.046l.329 2.45a59.8 59.8 0 0 1 .021-15.459l-.325 2.421c.567-4.079 1.391-8.091 2.681-12.006l-16.914-4.663a89 89 0 0 1-2.807 7.615l.868-2.058a89.5 89.5 0 0 1-11.417 19.529l1.28-1.657a94 94 0 0 1-3.833 4.617c-1.426 1.61-2.364 3.507-2.364 5.707 0 1.98.879 4.344 2.364 5.707 3.162 2.903 8.298 3.26 11.415 0Zm5.191 168.724c25.058-8.038 47.325-22.077 70.567-34.063 6.292-3.245 12.668-6.331 19.187-9.094l-2.268.957c5.225-2.203 10.538-4.197 15.959-5.867 5.448-1.679 10.988-2.895 16.565-4.052 2.249-.467 4.551-2.436 5.683-4.37 1.193-2.038 1.698-5.042.959-7.327-.745-2.301-2.171-4.521-4.37-5.683l-2.272-.959a9.6 9.6 0 0 0-5.056 0c-7.882 1.066-15.648 3.463-23.1 6.19-8.084 2.958-15.977 6.475-23.685 10.301-14.454 7.175-28.315 15.461-42.586 22.982-7.977 4.204-16.092 8.23-24.4 11.743l2.146-.906a178 178 0 0 1-8.016 3.151c-2.194.801-4.055 1.978-5.267 4.05-1.106 1.889-1.574 4.673-.888 6.791 1.42 4.389 6.141 7.664 10.842 6.156m38.666 144.47c14.401-6.604 26.987-16.263 39.438-25.925 3.407-2.644 6.8-5.307 10.213-7.944l-1.815 1.403c12.67-9.779 25.767-19.252 40.59-25.513l-2.193.926q.37-.156.741-.308a9.2 9.2 0 0 0 4.053-2.362l1.436-1.859c1.577-2.447 1.556-5.585.463-8.174-.969-2.296-2.559-3.886-4.855-4.855a6.9 6.9 0 0 0-3.539-.791 9.14 9.14 0 0 0-4.636 1.254c-17.277 7.32-32.142 19.029-46.733 30.599-4.009 3.179-8.007 6.37-12.055 9.499l1.797-1.389c-9.946 7.677-20.293 14.999-31.476 20.781-3.951 2.043-5.441 7.899-3.045 11.614 1.169 1.813 2.909 3.408 5.073 3.901 2.349.535 4.36.144 6.541-.856Z"/><path d="M340.282 222.558c-29.319 15.679-51.67 16.937-80.989 32.616-5.91 3.16-30.424 12.498-34.817 17.56-6.909 7.959-9.659 18.964-9.937 29.5-5.786 219.116-19.4 444.669 8.34 662.742.479 3.763 1.452 8.194 4.971 9.61 2.834 1.14 5.993-.277 8.706-1.68 22.36-11.554 95.386-37.153 116.69-50.555 1.467-.923-12.455 1.172-11.553-.308 2.087-3.426.104-7.792-1.839-11.302-45.451-82.113-71.98-174.625-76.952-268.346-1.377-25.967-1.126-51.991-.678-77.99 1.739-100.994 6.468-202.305 24.485-301.694"/><path d="M335.74 214.787c-14.754 7.444-30.447 11.966-46.146 16.915-8.179 2.579-16.22 5.465-24.11 8.829-5.761 2.456-11.266 5.423-17.017 7.893-9.427 4.047-19.899 7.451-28.268 13.516-14.743 10.684-16.811 30.85-17.358 47.534-2.458 74.905-5.18 149.821-6.929 224.746-1.768 75.745-2.449 151.547-.063 227.287 1.18 37.468 3.112 74.916 6.045 112.289a1887 1887 0 0 0 5.293 56.534q1.493 13.731 3.197 27.437c1.168 9.397 1.423 20.498 10.434 26.128 8.49 5.305 16.908 1.206 24.893-2.674 3.844-1.868 7.751-3.604 11.67-5.305q1.806-.784 3.617-1.556c.959-.409 3.389-1.431 1.083-.463 2.699-1.133 5.404-2.25 8.106-3.376l2.707-1.142q-1.959.837-.168.1c.575-.223 1.146-.463 1.718-.694q2.183-.88 4.366-1.757 4.483-1.8 8.968-3.595c21.723-8.7 43.991-16.891 64.755-27.754 5.37-2.81 12.531-6.225 12.052-13.479-.247-3.743-1.907-7.986-5.569-9.71-3.41-1.605-6.42-1.682-10.032-1.421-1.289.093-2.579.2-3.87.248-.549.02-1.116-.018-1.661.031a10 10 0 0 1-.682-.025 9.2 9.2 0 0 1 4.609 1.274l4.031 4.031-.057-.117 1.133 8.657c-1.209 4.092.564-1.125.837-2.295.409-1.755.508-3.505.417-5.28-.191-3.689-1.46-7.034-3.052-10.327-2.317-4.792-5.098-9.387-7.58-14.098a617 617 0 0 1-13.807-27.895c-8.54-18.404-15.954-36.854-22.656-56.318-13.416-38.962-23.505-80.651-28.577-120.74-5.642-44.598-5.802-89.238-4.914-134.109.903-45.617 2.488-91.233 5.7-136.75 1.794-25.425 4.1-50.817 7.082-76.131 2.984-25.336 7.155-50.41 11.688-75.507 1.049-5.806-1.578-12.482-7.905-13.923-5.533-1.26-12.798 1.675-13.923 7.905-8.783 48.629-14.105 98.133-17.808 147.386-3.642 48.435-5.356 96.993-6.288 145.55-.924 48.136-1.108 96.083 5.451 143.875 6.076 44.274 16.905 87.828 32.185 129.821 8.656 23.789 18.701 47.113 30.091 69.721a613 613 0 0 0 8.786 16.791c.831 1.531 3.752 5.912 3.244 6.565.458-.588 1.325-7.152-.596-.353a11.38 11.38 0 0 0 1.091 8.798c2.878 5.003 8.18 6.147 13.466 5.928 1.504-.062 3.004-.196 4.506-.297.551-.037 1.11-.049 1.659-.104 2.675-.268 2.324 1.479-3.917-1.471l-5.569-9.71.004.065 3.294-7.951c3.352-2.898 1.042-.967-.043-.341q-.99.57-1.995 1.117a155 155 0 0 1-5.766 2.973c-4.323 2.129-8.714 4.119-13.124 6.058a631 631 0 0 1-6.865 2.966c-.028.012-2.775 1.173-1.176.499a1109 1109 0 0 1-5.571 2.316 1805 1805 0 0 1-16.722 6.79c-20.204 8.106-40.919 15.467-60.583 24.841q-1.083.52-2.157 1.058c-.38.19-.942.373-1.26.634-.964.791-.472-.146.21.207 2.4 1.242 2.666.088 4.755 3.027-1.124-1.582-.229-.313-.05.223-.262-.785-.422-1.58-.614-2.381a22 22 0 0 1-.254-1.453q.2 1.387.013-.036c-1.147-8.886-2.146-17.794-3.118-26.701-1.948-17.842-3.621-35.713-5.092-53.601-2.972-36.133-4.987-72.342-6.273-108.574-2.575-72.542-2.236-145.155-.727-217.716 1.51-72.592 4.029-145.157 6.081-217.734q.38-13.419.731-26.839c.108-4.15.041-8.32.302-12.465.2-3.182.561-5.584 1.8-9.669 1.028-3.39 1.728-4.842 3.985-8.28.765-1.166.782-.28 1.204-1.396l.174-.156q1.25-1.028-.978.75c.005-.227 1.418-.952 1.569-1.047 4.234-2.689 8.847-4.819 13.385-6.931 4.728-2.201 9.522-4.26 14.243-6.477 5.941-2.79 11.615-6.087 17.617-8.769 13.553-6.055 28.516-10.237 42.505-15.912 7.952-3.226 15.721-6.804 23.228-10.968 4.248-2.356 5.642-8.185 3.228-12.312-2.581-4.413-7.958-5.425-12.312-3.228Zm334.783-107.799c21.949-11.42 84.943-31.925 88.98-23.609 7.788 16.039-14.285 200.92-15.548 217.961-9.898 133.559-6.913 104.044-4.129 220.548-13.102-53.674-16.363-107.927-16.879-163.174-.141-15.127.67-30.245 1.482-45.351 4.062-75.628 8.134-151.363 18.541-226.381"/><path d="M674.784 114.278c.764-.346 3.905-1.623.825-.389.944-.378 1.879-.775 2.825-1.148 1.612-.637 3.234-1.219 4.828-1.904-.03.013-2.251.848-.943.422.275-.09.549-.202.82-.301q.839-.306 1.679-.606c4.947-1.767 9.898-3.528 14.868-5.233 10.72-3.678 21.603-6.999 32.601-9.744 4.671-1.166 9.377-2.223 14.13-2.996.515-.084 1.032-.159 1.548-.24 2.038-.32-2.548.303-1.071.139.974-.108 1.946-.23 2.923-.309 1.534-.124 3.082-.197 4.62-.109.318.018.638.063.955.076.775.032-3.432-.672-1.696-.214 1.414.373 2.391 1.239-.853-.555 1.742.963-1.424-1.243-1.12-.957-1.006-.946-1.95-2.25-2.122-3.642.03.239.18.494.239.73.267 1.086.509 2.836-.117-1.666.169 1.219.267 2.467.541 3.672-.749-3.293-.349-2.829-.201-1.323.477 4.873.322 9.824.144 14.708-.263 7.224-.502 14.45-.917 21.669-1.08 18.783-2.761 37.525-4.443 56.262-1.781 19.842-3.755 39.667-5.811 59.482-1.591 15.332-3.248 30.658-4.873 45.986-1.707 16.105-2.791 32.247-3.953 48.402-1.538 21.382-3.122 42.779-3.946 64.203-.534 13.889-.537 27.774-.18 41.668.512 19.944 1.304 39.881 1.863 59.825.203 7.237.389 14.471.748 21.703l21.868-2.96a530 530 0 0 1-10.13-51.278 598 598 0 0 1-.714-4.984c-.067-.485-.468-3.32-.072-.49-.155-1.11-.293-2.222-.436-3.334a543 543 0 0 1-2.207-20.042c-2.507-27.756-3.582-55.709-3.602-83.577-.011-14.545.791-29.073 1.561-43.593.75-14.147 1.502-28.294 2.298-42.438 1.608-28.592 3.654-57.14 6.059-85.675 1.335-15.84 2.74-31.671 4.409-47.48.85-8.046 1.756-16.087 2.726-24.12q.728-6.026 1.505-12.044c.259-2.006.51-4.014.791-6.018-.389 2.779.019-.134.081-.589q.234-1.719.472-3.436c.413-2.985.509-5.541-1.08-8.257-1.301-2.223-3.849-4.343-6.404-4.924-5.044-1.149-12.359 1.546-13.181 7.484-4.054 29.294-7.26 58.689-9.807 88.151-2.49 28.796-4.073 57.665-5.783 86.516-1.697 28.616-3.757 57.293-4.448 85.954-.681 28.231.441 56.687 2.592 84.837 2.444 32.001 6.479 64.002 13.901 95.257 1.281 5.394 6.953 8.681 12.215 7.974 5.421-.728 9.643-5.352 9.653-10.934.041-23.622-1.186-47.265-1.931-70.874-.449-14.241-.766-28.482-.43-42.729.447-18.928 1.736-37.834 3.04-56.718 1.368-19.816 2.475-39.685 4.526-59.444 1.463-14.105 3.01-28.202 4.492-42.305 2.058-19.584 4.048-39.176 5.873-58.783 1.816-19.508 3.418-39.039 4.555-58.599.791-13.619 1.749-27.421.446-41.039-.515-5.383-.968-11.88-5.041-15.956-6.572-6.576-17.871-4.324-25.931-2.808-10.386 1.952-20.621 5.001-30.622 8.38-11.045 3.732-22.056 7.778-32.56 12.848-3.768 1.819-7.503 3.719-11.115 5.837-3.81 2.235-5.502 7.714-3.029 11.551 2.687 4.168 7.234 4.985 11.551 3.029Z"/></svg>