<?xml version="1.0" encoding="UTF-8"?><svg xmlns="http://www.w3.org/2000/svg" data-name="ARTWORK" viewBox="0 0 1000 1000"><path d="M505.091 227.965c-19.352-25.727-42.793-48.093-69.283-66.373-26.53-18.308-55.869-32.143-86.363-42.46-30.713-10.391-62.695-16.508-94.951-19.52-29.868-2.789-60.104-2.568-89.874 1.234-28.825 3.681-56.676 10.332-83.432 21.795a219 219 0 0 0-8.359 3.794c-4.225 2.022-7.175 7.575-6.974 12.158 1.725 39.267 3.477 78.533 5.046 117.806 1.578 39.522 2.972 79.051 3.969 118.592 1.004 39.8 1.578 79.608 1.588 119.421.011 39.511-.535 79.021-1.947 118.509-1.404 39.262-3.684 78.494-7.024 117.639q-.625 7.311-1.298 14.616c-.94 10.214 12.446 17.383 20.685 11.87a351 351 0 0 1 37.104-21.675 359 359 0 0 1 19.44-9.084c.716-.309 3.545-1.772.159-.079.546-.273 1.163-.486 1.723-.717a369 369 0 0 1 15.663-6.056 377 377 0 0 1 40.234-12.009 382 382 0 0 1 21.032-4.405 386 386 0 0 1 15.232-2.435c1.201-.168 2.606-.986-.389.049 1.09-.376 2.565-.33 3.711-.469a395.7 395.7 0 0 1 95.204-.011c.928.113 1.856.234 2.784.348 3.148.387-2.444-.346-.388-.057a388 388 0 0 1 27.166 4.706 381 381 0 0 1 40.565 10.883 368 368 0 0 1 25.373 9.384c.802.331 3.625 1.327.178.063 2.032.745 4.012 1.724 5.989 2.605a361 361 0 0 1 10.154 4.718c14.532 7.032 28.806 14.991 42.237 23.962 5.877 3.925 15.18 1.337 18.441-4.835 3.584-6.783 1.437-14.251-4.835-18.441-49.949-33.362-107.256-53.198-166.735-60.554-58.267-7.206-118.66-1.431-174.414 17.038-31.539 10.447-61.857 24.879-89.504 43.331l20.685 11.87c3.643-39.09 6.188-78.273 7.925-117.492 1.747-39.452 2.627-78.941 2.868-118.43.243-39.806-.256-79.616-1.147-119.412-.886-39.561-2.194-79.111-3.715-118.652-1.512-39.317-3.234-78.626-4.955-117.935l-.642-14.664-6.974 12.158a251 251 0 0 1 8.36-3.792c2.021-.877-3.585 1.479-.787.336q1.012-.416 2.025-.826a237 237 0 0 1 4.402-1.72 259 259 0 0 1 18.083-6.089c12.899-3.833 26.062-6.811 39.333-9.019 3.397-.565 6.802-1.057 10.21-1.546 1.526-.219-2.189.288-1.913.257.477-.054.953-.125 1.429-.185q1.254-.16 2.509-.312 2.702-.326 5.409-.614a392 392 0 0 1 21.673-1.689c14.908-.751 29.859-.663 44.761.185a432 432 0 0 1 28.216 2.535c.905.111 1.809.228 2.713.342 3.032.384-2.712-.389.318.041a497 497 0 0 1 11.253 1.709c15.304 2.532 30.482 5.914 45.453 9.971s29.698 8.972 44.06 14.815q1.271.52 2.541 1.046c2.577 1.063-1.665-.726.337.141 1.805.782 3.61 1.561 5.406 2.365.837.374 1.675.747 2.507 1.133.473.22.941.459 1.418.673-.011-.005 4.41 2.245 2.165.922-1.658-.977.962.48 1.419.693q1.6.747 3.192 1.51a326 326 0 0 1 20.429 10.684 303 303 0 0 1 19.136 11.848 288 288 0 0 1 9.483 6.658 357 357 0 0 1 4.321 3.232c1.479 1.118-1.386-1.143.646.501q.45.366.901.729.797.68 1.641 1.302 1.78 1.387.619.469c-1.095-.858 1.065.864 1.378 1.119q1.049.855 2.09 1.721a261 261 0 0 1 12.985 11.54c5.502 5.229 10.599 10.878 15.466 16.7q1.737 2.078 3.427 4.194c.564.706 1.121 1.418 1.68 2.128-1.274-1.62.528.696.867 1.144 3.004 3.968 8.373 6.448 13.062 3.425 3.934-2.536 6.636-8.793 3.425-13.062Z"/><path d="M68.426 282.606C41.571 290.014 51.855 286.31 25 293.718c10.793 224.659 25.186 361.165 13.987 544.61 223.942-131.512 312.046-100.468 464.166-85.214-118.856-100.847-310.582-84.274-433.091 12.102a3908 3908 0 0 0 .996-475.396"/><path d="M65.528 272.091c-4.797 1.214-9.597 2.419-14.421 3.521-.706.161-1.428.289-2.127.477-1.79.483 1.332-.083 1.556-.125-1.188.221-2.395.297-3.58.538-1.09.221-2.174.479-3.263.705-7.321 1.523-14.567 3.35-21.804 5.225-4.83 1.251-8.757 6.232-8.592 11.285 1.342 40.96 3.033 81.876 5.284 122.795 1.983 36.056 4.027 72.11 5.835 108.176 1.673 33.362 3.327 66.722 4.371 100.112 1.021 32.671 1.528 65.361 1.325 98.048-.212 34.015-1.207 68.02-3.058 101.985q-.368 6.748-.777 13.494c-.591 9.778 11.19 15.634 19.124 10.974 20.321-11.935 40.929-23.389 61.929-34.089a896 896 0 0 1 28.195-13.769 787 787 0 0 1 13.525-6.154 722 722 0 0 1 9.715-4.226c.512-.218 1.028-.428 1.537-.653-1.162.515-2.039.857-.345.148 30.601-12.817 62.184-23.476 94.653-30.428a427 427 0 0 1 21.189-3.984c3.438-.556 6.885-1.044 10.332-1.539-4.854.696.805-.096 2.06-.25q2.682-.328 5.368-.623c13.219-1.451 26.507-2.253 39.803-2.473 25.812-.428 51.59 1.368 77.256 3.971 27.226 2.76 54.364 6.312 81.577 9.197q5.477.58 10.957 1.127c4.836.482 9.63-3.526 11.369-7.648 1.801-4.267 1.203-10.401-2.572-13.59-24.558-20.743-52.044-36.944-81.88-48.845-28.871-11.517-59.393-18.221-90.287-21.244-31.572-3.09-63.349-1.704-94.687 3.01a392.2 392.2 0 0 0-89.844 24.737c-29.363 11.994-57.355 27.051-82.928 45.87-3.761 2.768-7.461 5.617-11.137 8.496l21.428 8.876c3.959-61.793 5.426-123.786 6.379-185.691.954-61.943.435-123.909-1.556-185.827-1.114-34.648-2.835-69.273-4.866-103.878-.352-6.001-5.043-11.802-11.513-11.513-5.935.266-11.89 5.074-11.513 11.513 3.63 61.833 5.666 123.786 6.36 185.72.694 61.953-.014 123.915-2.6 185.819-1.447 34.643-3.658 69.251-5.795 103.857-.305 4.937 3.406 9.652 7.716 11.471 5.021 2.119 9.611.63 13.712-2.595.45-.354 2.763-2.15 1.251-.987-1.603 1.233.955-.727 1.269-.966a355 355 0 0 1 13.969-10.074 363 363 0 0 1 18.939-12.126 379 379 0 0 1 40.432-20.949 459 459 0 0 1 5.187-2.26c2.145-.922-2.149.89.009-.004q1.493-.621 2.991-1.233a393 393 0 0 1 32.383-11.564 393 393 0 0 1 44.346-10.906 388 388 0 0 1 16.721-2.717l1.197-.166c1.674-.235-2.555.33-.878.12.933-.117 1.865-.24 2.797-.355a380 380 0 0 1 22.818-2.113 358 358 0 0 1 45.134.019c7.399.474 14.772 1.206 22.128 2.129 2.2.276-2.65-.372.261.035q1.371.192 2.741.394a332 332 0 0 1 16.727 2.914c14.508 2.915 28.822 6.82 42.772 11.762a298 298 0 0 1 10.269 3.851c1.56.618 3.434 1.765 5.077 2.067.053.01-2.41-1.03-1.153-.486l1.08.462q1.438.62 2.869 1.255a283 283 0 0 1 20.033 9.844 276 276 0 0 1 18.914 11.233 270 270 0 0 1 15.85 11.12l.948.721c1.231.925-2.089-1.637-.315-.246a299 299 0 0 1 8.651 7.045l8.797-21.238c-27.917-2.825-55.74-6.473-83.633-9.513-25.784-2.81-51.668-5.005-77.621-5.077a446.6 446.6 0 0 0-83.924 7.707c-31.861 6.005-62.931 15.684-93.051 27.608-40.147 15.894-78.776 35.354-116.291 56.678a1384 1384 0 0 0-16.06 9.277l19.124 10.974a2256 2256 0 0 0 3.981-103.332c.503-32.736.256-65.478-.545-98.208-.813-33.194-2.18-66.373-3.794-99.537-1.735-35.636-3.951-71.251-6.042-106.867-2.354-40.08-4.931-80.133-7.536-120.198q-.535-8.234-1.057-16.469l-8.592 11.285c14.352-4.19 28.885-7.612 43.214-11.882 5.461-1.627 9.456-7.728 7.616-13.413-1.851-5.719-7.486-9.116-13.413-7.616Zm164.5 6.655c7.969-1.563 15.383-5.749 21.306-11.239 2.964-2.748 5.572-6.018 7.693-9.451 2.155-3.488 3.615-7.333 4.893-11.212 2.002-6.077-3.313-12.196-9.335-12.254-4.358-.042-8.488 1.54-11.676 4.502-2.526 2.347-4.289 5.626-5.225 8.915-1.79 6.288-.82 13.568 2.494 19.19 3.981 6.755 11.56 10.716 19.143 11.849 4.122.616 8.154.849 12.314.679 3.298-.135 6.589-.417 9.888-.542 8.169-.309 16.373.141 24.475 1.216l-2.72-.365c16.884 2.289 33.23 7.4 48.903 13.994l-2.426-1.024c1.766.746 3.535 1.484 5.301 2.228l-2.419-1.021c15.692 6.634 30.486 14.977 45.662 22.663 4.792 2.427 9.477 5.043 14.48 7.01l2.065.278a5.86 5.86 0 0 0 2.993-.669c1.492-.63 2.937-1.706 3.715-3.179 1.55-2.934 1.421-7.074-1.215-9.414-4.498-3.993-9.692-7.265-14.654-10.655-4.444-3.037-9.06-5.879-13.736-8.546-9.539-5.44-19.282-10.546-29.292-15.067-20.874-9.426-43.072-16.032-65.99-17.669-5.975-.427-11.975-.403-17.951.003-5.558.378-11.153.959-16.71.257l2.683.36c-2.184-.303-4.313-.814-6.36-1.641l2.403 1.014c-1.474-.628-2.889-1.393-4.163-2.37l2.031 1.569a12 12 0 0 1-1.813-1.818l1.567 2.028a14 14 0 0 1-1.713-2.897l1.009 2.39a16.3 16.3 0 0 1-1.109-4.041l.357 2.654a16.3 16.3 0 0 1-.005-4.117l-.356 2.648c.154-1.056.413-2.079.809-3.071l-1.003 2.376c.334-.786.741-1.518 1.254-2.201l-1.553 2.01c.42-.528.884-.997 1.415-1.414l-2.008 1.552c.549-.403 1.098-.769 1.719-1.052l-2.346.99a8.4 8.4 0 0 1 2.084-.561l-2.577.346.257-.028-9.335-12.254c-.337 1.653-.925 3.256-1.57 4.811l.968-2.293a36.5 36.5 0 0 1-4.551 7.791l1.487-1.925a38 38 0 0 1-6.638 6.655l1.906-1.473a37 37 0 0 1-7.776 4.584l2.229-.941a35 35 0 0 1-6.204 1.966c-4.744 1.027-7.953 6.82-6.472 11.398.726 2.242 2.115 4.405 4.258 5.538 2.298 1.214 4.583 1.436 7.14.934Zm2.791 114.89c18.871-2.387 38.056-2.734 57.02-1.301 5.36.405 10.706.972 16.033 1.686l-2.669-.359a278.5 278.5 0 0 1 55.476 13.409 279 279 0 0 1 15.035 5.822l-2.411-1.017a275 275 0 0 1 20.447 9.631c6.628 3.466 13.078 7.188 19.595 10.851 4.172 2.345 8.263 5.441 12.916 6.68l-2.035-.859c.638.289 1.281.565 1.922.847 1.971.868 4.067 1.519 6.239.816 1.707-.552 3.104-1.476 4.206-2.901 2.51-3.249 2.132-7.636-.633-10.63-.467-.506-.933-1.014-1.411-1.509l1.332 1.724c-.798-1.144-1.614-2.414-2.587-3.384-1.019-1.016-2.363-1.834-3.527-2.716a264 264 0 0 0-4.051-3.012 133 133 0 0 0-8.349-5.622c-5.699-3.528-11.519-6.837-17.515-9.834a293 293 0 0 0-39.164-16.152c-26.137-8.615-53.676-13.374-81.182-14.165-15.808-.454-31.602.865-47.224 3.241-2.115.322-4.737 2.553-5.706 4.387-1.019 1.928-1.425 3.916-1.133 6.088.269 2.003 1.092 4.074 2.626 5.482 1.729 1.587 4.306 3.106 6.751 2.796Z"/><path d="M243.533 506.948c17.986-1.331 36.078-.76 53.954 1.617l-2.441-.328c18.888 2.543 37.489 6.773 55.481 13.092a267 267 0 0 1 15.049 5.808l-2.236-.944a264 264 0 0 1 17.578 8.191 256 256 0 0 1 8.453 4.53c1.391.779 2.751 1.645 4.179 2.354 2.055 1.02 4.218 1.815 6.339 2.687l2.326.313a6.6 6.6 0 0 0 3.372-.754c1.681-.709 3.308-1.921 4.185-3.581a10.4 10.4 0 0 0 1.195-4.417c.089-1.998-1.003-4.873-2.563-6.188-2.607-2.198-5.241-4.225-8.212-5.901a259 259 0 0 0-21.8-10.974c-10.497-4.68-21.235-8.806-32.223-12.181a265 265 0 0 0-66.05-11.415 260 260 0 0 0-36.587.965c-2.323.225-4.352.805-6.056 2.508-1.485 1.485-2.604 3.922-2.508 6.056.195 4.357 3.78 8.918 8.564 8.564Zm267.863-269.346c.302-.399 1.748-2.274 1.139-1.498-.677.863.918-1.159 1.167-1.472a247 247 0 0 1 11.307-13.209c5.14-5.593 10.664-10.792 16.396-15.774a265 265 0 0 1 7.106-5.963c.049-.04 1.984-1.586.777-.631-1.647 1.303 2.261-1.784 2.856-2.262.402-.323.814-.635 1.221-.953-.048.038-1.51 1.143-.576.448 1.649-1.228 3.278-2.48 4.938-3.694a292 292 0 0 1 18.944-12.727 314 314 0 0 1 19.64-11.156 333 333 0 0 1 10.507-5.249c.415-.198 4.917-2.426 4.977-2.329l-.72.295q-1.802.744.723-.313c.85-.359 1.668-.735 2.505-1.114.954-.432 1.905-.872 2.862-1.3 1.676-.75 3.36-1.48 5.044-2.21 2.808-1.216-1.684.689.337-.145.968-.4 1.934-.802 2.904-1.196a365 365 0 0 1 10.995-4.267 383 383 0 0 1 22.053-7.394c14.727-4.45 29.741-8.108 44.843-11.037 7.59-1.472 15.219-2.719 22.874-3.797 3.288-.463-2.442.309-.07.009 1.034-.131 2.067-.265 3.101-.392a436 436 0 0 1 17.032-1.752 426 426 0 0 1 45.092-1.365c7.324.169 14.644.539 21.947 1.112a386 386 0 0 1 15.628 1.546q1.256.15 2.51.31c.477.06.953.126 1.43.184 1.621.196-3.876-.54-1.2-.162 13.443 1.9 26.742 4.495 39.881 7.923a278 278 0 0 1 18.652 5.554q4.399 1.483 8.739 3.128a240 240 0 0 1 6.139 2.427c3.187 1.313-2.79-1.218-.215-.094a255 255 0 0 1 8.076 3.67l-6.974-12.158c-1.716 39.267-3.459 78.533-5.019 117.806-1.569 39.522-2.953 79.052-3.941 118.592-.994 39.798-1.617 79.61-1.56 119.421.056 39.511.78 79.027 2.315 118.509 1.526 39.26 3.837 78.495 7.224 117.639q.634 7.311 1.315 14.616l20.685-11.87c-49.87-33.283-107.54-53.008-166.858-60.358-58.266-7.219-118.661-1.465-174.411 17.024-31.647 10.495-61.672 25.009-89.385 43.519-5.854 3.91-8.943 12.069-4.835 18.441 3.762 5.835 12.17 9.024 18.441 4.835 11.884-7.937 24.457-15.06 37.216-21.483a359 359 0 0 1 19.448-9.069c.737-.317 3.472-1.814.171-.08.533-.28 1.174-.489 1.723-.716a363 363 0 0 1 15.667-6.043 377 377 0 0 1 40.243-11.977 386 386 0 0 1 36.268-6.825c1.241-.173 2.53-1.006-.389.049 1.072-.388 2.577-.33 3.712-.468a395.7 395.7 0 0 1 95.204.011c.928.113 1.856.234 2.784.348 3.148.388-2.444-.346-.388-.056a385 385 0 0 1 27.165 4.712 381 381 0 0 1 40.556 10.916 369 369 0 0 1 25.367 9.405c.823.34 3.638 1.231.167.061 2.037.687 4.024 1.733 5.986 2.61a351.6 351.6 0 0 1 52.273 28.884c8.24 5.513 21.625-1.656 20.685-11.87-3.597-39.088-6.14-78.272-7.755-117.492-1.625-39.455-2.381-78.943-2.5-118.43-.119-39.808.318-79.614 1.218-119.412.895-39.561 2.213-79.111 3.742-118.652 1.521-39.317 3.252-78.626 4.983-117.935l.645-14.664c.201-4.583-2.749-10.136-6.974-12.158-24.744-11.844-51.15-19.462-78.215-23.691a416.3 416.3 0 0 0-91.878-4.056c-32.147 2.135-64.396 7.393-95.235 16.813-30.798 9.408-60.707 22.35-87.916 39.644-26.67 16.951-50.738 37.939-70.824 62.359-2.814 3.421-5.532 6.923-8.194 10.463-3.014 4.007-.773 10.844 3.425 13.062 5.03 2.658 9.831.843 13.062-3.425Z"/><path d="M931.574 282.606c26.855 7.408 16.571 3.704 43.426 11.112-10.793 224.659-25.186 361.165-13.987 544.61-223.942-131.512-312.046-100.468-464.166-85.214 118.856-100.847 310.582-84.274 433.091 12.102a3908 3908 0 0 1-.996-475.396"/><path d="M928.675 293.12c14.33 4.27 28.862 7.692 43.214 11.882l-8.592-11.285c-2.596 40.935-5.385 81.848-7.78 122.795-2.109 36.056-4.278 72.109-6.212 108.176a3976 3976 0 0 0-4.12 100.112c-.927 32.673-1.34 65.362-1.016 98.048a2250 2250 0 0 0 4.134 115.479l19.124-10.974c-38.713-22.692-78.49-43.52-119.894-60.877-30.751-12.891-62.489-23.613-95.123-30.596a442.3 442.3 0 0 0-84.917-9.731c-25.908-.442-51.782 1.372-77.54 4.009-27.418 2.807-54.746 6.428-82.149 9.372q-5.477.588-10.957 1.143l8.797 21.238a298 298 0 0 1 8.651-7.045c1.697-1.332-1.964 1.495.316-.235a268 268 0 0 1 7.025-5.154 273 273 0 0 1 18.498-12.018 280 280 0 0 1 19.658-10.629 285 285 0 0 1 12.444-5.736c.429-.185 2.857-1.222 1.042-.451-1.909.811.967-.395 1.414-.578a304 304 0 0 1 2.906-1.17c13.739-5.446 27.887-9.852 42.267-13.257a326 326 0 0 1 27.109-5.212 362 362 0 0 1 2.741-.398l1.176-.163c1.579-.223-2.812.361-.523.074 3.673-.462 7.349-.886 11.034-1.241 14.953-1.437 30-1.914 45.014-1.435 7.622.243 15.236.722 22.829 1.429q5.61.522 11.203 1.211c.8.098 1.599.202 2.398.303 2.21.279-2.608-.364.32.043q2.995.416 5.982.879a392.3 392.3 0 0 1 90.485 25.441c2.684 1.117-1.628-.705.382.159a386 386 0 0 1 15.452 7.004 379 379 0 0 1 20.407 10.57c13.214 7.364 25.985 15.529 38.178 24.483a358 358 0 0 1 4.49 3.352c.637.484 1.265.981 1.907 1.458-.213-.158-2.321-1.815-.644-.492q.628.494 1.258.987c4.1 3.225 8.601 4.752 13.712 2.595 4.343-1.833 8.022-6.515 7.716-11.471-3.82-61.864-7.223-123.705-8.177-185.691s-.435-123.909 1.556-185.827c1.114-34.642 2.554-69.276 4.585-103.878.354-6.023-5.548-11.78-11.513-11.513-6.54.293-11.134 5.061-11.513 11.513-3.631 61.856-5.946 123.76-6.64 185.72-.694 61.942.155 123.905 2.07 185.819 1.072 34.641 2.31 69.268 4.527 103.857l21.428-8.876c-25.076-19.633-52.258-36.162-81.419-49.007-29.155-12.842-59.582-22.489-90.946-28.18-31.205-5.663-63.079-7.901-94.747-5.858-31.109 2.007-62.123 7.822-91.514 18.304-30.058 10.72-57.964 25.871-83.161 45.441a281 281 0 0 0-8.976 7.277c-3.763 3.179-4.354 9.369-2.572 13.59 1.763 4.177 6.514 8.132 11.369 7.648 27.724-2.766 55.357-6.341 83.057-9.33 25.694-2.773 51.486-4.947 77.347-5.027 13.065-.04 26.133.45 39.152 1.559a412 412 0 0 1 15.106 1.563q1.2.146 2.397.299l1.202.155c2.121.273-.677-.086-1.24-.169 7.069 1.04 14.122 2.108 21.145 3.433 31.702 5.981 62.62 15.599 92.596 27.453a715 715 0 0 1 12.816 5.224c.779.326 2.024.459-.726-.307.501.14 1.072.455 1.537.653a699 699 0 0 1 10.107 4.4 825 825 0 0 1 27.448 12.818c20.265 9.906 40.158 20.566 59.757 31.729 5.372 3.06 10.721 6.16 16.052 9.291 7.934 4.66 19.715-1.196 19.124-10.974a2124 2124 0 0 1-3.726-103.332c-.381-32.737-.032-65.481.865-98.208.909-33.196 2.372-66.374 4.083-99.537q2.757-53.439 5.71-106.867c2.213-40.06 4.118-80.1 5.496-120.198q.283-8.234.553-16.469c.165-5.045-3.745-10.029-8.592-11.285-7.238-1.875-14.484-3.702-21.804-5.225-1.027-.214-2.049-.45-3.076-.662a30 30 0 0 0-2.261-.379c-4.795-.644 2.337.573.269-.029-.682-.199-1.4-.31-2.093-.468-4.909-1.117-9.792-2.343-14.673-3.578-5.521-1.397-12.087 1.792-13.413 7.616-1.336 5.864 1.763 11.669 7.616 13.413Zm-158.956 81.763c-13.943-2.12-28.084-3.482-42.2-3.339s-28.285 1.465-42.278 3.657c-27.239 4.267-53.7 12.692-78.577 24.553a226 226 0 0 0-19.888 10.726c-3.233 1.959-6.405 3.981-9.471 6.194a258 258 0 0 0-4.4 3.245c-1.269.956-2.728 1.897-3.872 2.968-1.125 1.054-2.027 2.369-2.914 3.64l1.332-1.724c-.479.495-.944 1.003-1.411 1.509-2.753 2.982-3.148 7.376-.633 10.63 1.034 1.338 2.51 2.515 4.206 2.901 2.257.514 4.137.11 6.239-.816.641-.282 1.284-.558 1.922-.847l-2.035.859c4.233-1.127 7.867-3.809 11.641-5.959 3.274-1.865 6.511-3.791 9.794-5.64a333 333 0 0 1 19.874-10.332 275 275 0 0 1 11.648-5.231l-2.411 1.017a278 278 0 0 1 54.602-16.611 281 281 0 0 1 15.908-2.62l-2.669.359c18.854-2.528 38.041-3.161 57.025-1.925 5.357.349 10.702.865 16.028 1.539 2.157.273 5.327-1.245 6.751-2.796 1.448-1.577 2.339-3.351 2.626-5.482.273-2.035.013-4.309-1.133-6.088-1.255-1.947-3.308-4.023-5.706-4.387Z"/><path d="M756.467 489.82a261.8 261.8 0 0 0-66.993 2.132c-22.17 3.589-43.64 10.098-64.27 18.928a261 261 0 0 0-24.445 12.012c-1.328.742-2.698 1.449-3.95 2.314-1.824 1.26-3.52 2.694-5.213 4.121-1.433 1.208-2.169 3.252-2.407 5.025-.251 1.866-.012 3.95 1.039 5.58a10.5 10.5 0 0 0 3.14 3.14c1.65 1.064 4.869 1.653 6.743.882 2.054-.845 4.144-1.619 6.141-2.593 1.434-.7 2.795-1.56 4.187-2.341q4.277-2.4 8.643-4.636a264 264 0 0 1 17.578-8.191l-2.236.944a266.8 266.8 0 0 1 54.612-16.364 322 322 0 0 1 15.919-2.535l-2.441.328c17.876-2.377 35.968-2.948 53.954-1.617 2.092.155 4.613-1.066 6.056-2.508 1.485-1.485 2.604-3.922 2.508-6.056-.099-2.215-.827-4.512-2.508-6.056-1.764-1.619-3.677-2.278-6.056-2.508ZM509.079 745.129c1.218-16.557.97-33.179 1.089-49.771.119-16.59.097-33.181.109-49.771l.073-99.543c.049-66.024.073-132.047.017-198.07-.031-37.218.795-74.549-.915-111.732-.227-4.933-4.186-9.689-9.453-9.453-5.316.238-9.21 4.154-9.453 9.453-1.524 33.137-.877 66.375-.904 99.543-.028 33.181-.099 66.362-.074 99.543l.146 198.07c.014 18.621-.059 37.245.074 55.866s-.234 37.294 1.133 55.866c.348 4.726 3.927 9.31 9.079 9.079 5.218-.234 8.705-3.994 9.079-9.079Z"/><path d="M438.652 747.828c15.278 17.353 36.683 30.322 59.781 31.325s47.311-11.849 55.79-33.358l-100.28 2.358"/><path d="M430.166 752.788c3.453 4.489 7.051 8.832 11.017 12.88 4.051 4.134 8.605 7.734 13.33 11.071 8.716 6.157 18.532 10.801 28.963 13.157 5.633 1.272 11.49 2.068 17.27 2.142 5.365.069 10.787-.589 16.041-1.628 5.334-1.054 10.375-3.041 15.336-5.226a59.8 59.8 0 0 0 11.366-6.557c4.68-3.448 9.075-7.142 12.708-11.701 2.135-2.679 4.208-5.401 5.918-8.374s3.064-6.187 4.312-9.393c1.424-3.661-.008-8.111-2.265-11.033-2.356-3.05-5.967-5.114-9.939-4.988-6.48.207-12.974.144-19.457.185-6.569.042-13.139.26-19.707.407l-39.164.873c-7.299.163-14.676.034-21.952.633-3.476.286-6.598 1.248-9.133 3.783-2.24 2.24-3.927 5.916-3.783 9.133.323 7.202 5.674 12.661 12.916 12.916 6.468.228 12.988-.178 19.457-.338l19.707-.488c13.054-.323 26.111-.588 39.164-.969 7.319-.213 14.631-.713 21.952-.824l-12.204-16.02q-.133.33-.272.657l1.276-3.025a48 48 0 0 1-6.02 10.285l1.996-2.583a54.2 54.2 0 0 1-9.66 9.634l2.598-2.007c-4.051 3.101-8.481 5.645-13.174 7.64l3.084-1.301c-5.388 2.254-11.089 3.78-16.875 4.571l3.43-.461c-5.554.726-11.136.665-16.687-.066l3.389.455c-7.708-1.059-15.175-3.45-22.334-6.453l2.934 1.238c-8.445-3.589-16.278-8.534-23.546-14.112l2.156 1.666c-3.067-2.373-5.953-4.97-8.713-7.692-3.5-3.451-9.051-3.745-12.904-.768-1.624 1.255-3.053 3.047-3.522 5.105-.544 2.388-.578 5.533.991 7.573Zm157.468-438.316c5.113-3.82 10.772-6.772 16.639-9.253l-1.966.83c13.058-5.465 26.869-8.814 39.787-14.662 12.628-5.716 24.483-14.634 30.759-27.302 1.784-3.602 3.314-7.436 4.06-11.401.438-2.328.767-4.716.844-7.089.083-2.544-.269-5.016-.623-7.534l.341 2.538a95 95 0 0 0-.557-4.092c-.552-3.425-3.779-5.615-6.725-6.725-8.131-3.063-17.042.088-23.248 5.595-5.753 5.104-9.315 13.384-8.467 21.084.491 4.457 1.637 8.613 4.086 12.443 1.882 2.942 4.178 5.656 6.924 7.817 3.6 2.833 7.205 4.937 11.589 6.401 3.729 1.246 7.899 1.753 11.824 1.573 9.156-.419 18.2-3.709 25.675-8.985l-7.897 1.033c9.079 1.531 18.352 2.547 27.54 3.149 8.521.558 16.993.599 25.509-.048 5.464-.415 10.939-.966 16.358-1.792l-2.289.308c.969-.103 1.936-.223 2.902-.344 2.356-.295 4.308-.76 6.056-2.508 1.485-1.485 2.604-3.922 2.508-6.056-.192-4.295-3.786-8.996-8.564-8.564-8.787.794-17.645.708-26.451.331-8.854-.378-17.636-.844-26.431-2.009l2.627.353c-4.249-.572-8.46-1.348-12.654-2.234-3.279-.693-6.469-1.163-9.559.682-.79.471-1.549.992-2.344 1.456a47 47 0 0 1-5.149 2.589l2.476-1.045c-3.137 1.313-6.393 2.256-9.767 2.712l2.792-.375a32 32 0 0 1-7.937-.008l2.813.378a25 25 0 0 1-6.076-1.653l2.53 1.068a25.4 25.4 0 0 1-5.234-3.064l2.146 1.658a24 24 0 0 1-4.245-4.251l1.659 2.148a21.3 21.3 0 0 1-2.46-4.201l1.071 2.537c-.673-1.616-1.17-3.258-1.41-4.994l.376 2.801a15.8 15.8 0 0 1-.005-3.778l-.373 2.779c.2-1.354.567-2.648 1.092-3.912l-1.045 2.477a18.3 18.3 0 0 1 2.264-3.804l-1.606 2.079a18.7 18.7 0 0 1 3.142-3.096l-2.06 1.592a19 19 0 0 1 3.75-2.149l-2.403 1.014a14.3 14.3 0 0 1 3.455-.947l-2.624.353a13 13 0 0 1 2.942-.008l-2.583-.347c.56.079 1.106.188 1.652.331l-6.725-6.725c.238.883.423 1.753.549 2.659l-.34-2.534a30.3 30.3 0 0 1-.035 7.668l.337-2.507c-.438 3.086-1.302 6.067-2.511 8.938l.938-2.223c-1.419 3.276-3.248 6.333-5.414 9.169l1.433-1.855c-2.576 3.312-5.565 6.202-8.88 8.769l1.822-1.407c-5.759 4.394-12.214 7.701-18.867 10.514l2.082-.879c-8.252 3.461-16.781 6.191-25.091 9.502-4.704 1.874-9.385 3.862-13.863 6.234s-8.565 5.169-12.515 8.3c-1.429 1.133-2.409 3.866-2.33 5.626.08 1.796.603 3.391 1.708 4.821 2.199 2.846 7.078 4.429 10.263 2.049Z"/><path d="M108.396 785.763c3.34 23.493 8.183 46.783 14.808 69.572 1.881 6.469 3.965 12.883 6.152 19.255 1.136 3.31 3.097 5.73 6.344 7.101 3.432 1.448 6.445.951 9.752-.552 19.539-8.88 39.13-17.662 58.903-26.012l-2.677 1.13a1628 1628 0 0 1 108.776-41.374 1617 1617 0 0 1 111.47-33.456 1656 1656 0 0 1 63.919-15.338c5.818-1.276 9.765-8.359 7.943-13.989-1.98-6.118-7.756-9.31-13.989-7.943-23.076 5.061-46.036 10.64-68.865 16.719s-45.525 12.658-68.066 19.728-45.149 14.695-67.469 22.78a1623 1623 0 0 0-66.091 25.585c-22.507 9.283-44.947 18.858-66.905 29.382q-4.01 1.922-8.008 3.865l16.097 6.549c-8.271-22.226-14.996-45.035-19.911-68.239-1.396-6.589-2.539-13.236-3.589-19.888-.353-2.233-2.566-4.67-4.43-5.761-2.066-1.209-5.112-1.722-7.429-.972-2.333.755-4.583 2.2-5.761 4.43-1.295 2.451-1.358 4.71-.972 7.429ZM539.697 766.2c24.274 8.201 48.572 16.35 72.743 24.849a1961 1961 0 0 1 111.822 43.202l-2.565-1.083c35.558 15.009 70.567 31.382 105.087 48.637a1699 1699 0 0 1 25.943 13.235c5.415 2.824 11.107 5.932 17.433 5.376 7.419-.652 13.481-5.016 16.89-11.609 2.397-4.635 4.087-9.757 5.759-14.694a250 250 0 0 0 4.203-13.681 254 254 0 0 0 6-27.642c1.809-11.351 3.04-22.8 3.444-34.29s.641-23.328-2.395-34.457c-1.451-5.318-6.756-8.632-12.118-7.911-5.708.767-9.103 5.295-9.576 10.847-.812 9.514.081 19.049-.125 28.595s-.966 19.064-2.233 28.523l.433-3.223a257 257 0 0 1-5.747 29.357c-2.427 9.419-5.239 18.927-8.949 27.93l1.211-2.871c-.605 1.405-1.293 2.747-2.19 3.989l1.872-2.423a12 12 0 0 1-1.673 1.75l2.418-1.868a9.6 9.6 0 0 1-1.644.998l2.85-1.203a9 9 0 0 1-2.174.558l3.166-.425c-.595.035-1.147.028-1.742-.018l3.161.425c-1.417-.195-2.726-.599-4.053-1.127l2.831 1.195c-5.088-2.165-9.989-4.869-14.951-7.31a1966 1966 0 0 0-46.056-21.958c-21.316-9.824-42.814-19.239-64.455-28.323-20.859-8.755-41.784-17.334-62.894-25.47s-42.359-15.906-63.737-23.306-42.881-14.444-64.669-20.514q-4.145-1.154-8.295-2.291c-4.765-1.306-10.494 1.621-11.629 6.603-1.192 5.234 1.582 9.933 6.603 11.629Z"/></svg>