<?xml version="1.0" encoding="UTF-8"?><svg xmlns="http://www.w3.org/2000/svg" data-name="ARTWORK" viewBox="0 0 1000 1000"><path d="M329.889 291.988c-17.163 2.418-33.612 8.467-49.31 15.646-15.502 7.089-30.345 15.736-43.991 25.961-27.065 20.278-49.421 47.734-63.49 78.553-13.82 30.276-19.597 62.745-12.465 95.549 6.343 29.177 21.324 56.201 38.634 80.242 35.38 49.137 81.138 89.053 125.834 129.382 52.326 47.214 104.429 95.451 165.31 131.641 15.684 9.323 31.871 17.803 48.522 25.268 17.526 7.856 35.249 14.509 54.19 18.009 38.339 7.085 77.508 4.175 115.466-3.829 18.626-3.927 36.885-9.269 55.063-14.88 18.914-5.838 37.702-12.109 56.212-19.13 32.372-12.28 64.531-26.654 94.537-44.022 26.225-15.179 52.987-35.238 65.547-63.755 15.183-34.471 6.436-73.785-1.87-108.969-13.993-59.27-44.665-113.394-82.083-160.927-39.738-50.48-88.528-93.88-141.955-129.418-51.638-34.349-108.994-61.934-169.267-77.153-6.559-1.656-13.192-3.048-19.836-4.316a395 395 0 0 0-15.451-2.631c-1.166-.174-9.328-1.345-5.302-.753-6.656-.978-14.211 1.649-15.89 9.022-1.396 6.128 1.873 14.839 9.022 15.89 27.967 4.11 55.716 11.829 82.308 21.311a510 510 0 0 1 20.426 7.785c1.792.727 3.578 1.467 5.364 2.21-2.467-1.027 1.359.581 2.172.932a548 548 0 0 1 10.689 4.746 578 578 0 0 1 41.218 20.886 613 613 0 0 1 39.078 23.748 626 626 0 0 1 28.32 19.82 631 631 0 0 1 6.316 4.746c.372.283 3.471 2.665 2.509 1.92-1.467-1.137 1.676 1.311 1.531 1.197q.957.75 1.912 1.503a616 616 0 0 1 13.685 11.113 622 622 0 0 1 17.878 15.527c11.359 10.254 22.334 20.932 32.874 32.026s20.657 22.624 30.253 34.559a530 530 0 0 1 3.313 4.163c.609.773 1.21 1.551 1.819 2.323 1.422 1.802-1.851-2.441.439.57a596 596 0 0 1 7.033 9.405c4.35 5.96 8.57 12.016 12.644 18.168 8.008 12.091 15.467 24.549 22.256 37.365a401 401 0 0 1 9.727 19.625 381 381 0 0 1 4.078 9.144c.279.648 1.247 2.986.172.39q.425 1.02.846 2.043 1.152 2.805 2.258 5.63c5.085 12.993 9.414 26.287 12.834 39.815 1.785 7.063 3.241 14.196 4.698 21.333a637 637 0 0 1 2.355 12.011c.417 2.266.816 4.535 1.188 6.809q.224 1.37.435 2.743c.037.243.605 4.204.306 1.971 1.188 8.877 1.771 17.898 1.27 26.849a99 99 0 0 1-.521 6.083c.269-2.276-.108.587-.202 1.136a82 82 0 0 1-.634 3.302 73.5 73.5 0 0 1-3.884 12.588c1.071-2.6-.47.908-.908 1.795a84 84 0 0 1-2.566 4.799c-1.827 3.165-3.923 6.108-6.01 9.1 1.666-2.389-1.165 1.428-1.681 2.041a112 112 0 0 1-3.291 3.736 128 128 0 0 1-7.941 7.879c-2.52 2.297-5.146 4.459-7.781 6.62-2.838 2.327 1.328-.957-.472.381-.769.571-1.529 1.153-2.3 1.721a204 204 0 0 1-4.694 3.35c-6.197 4.292-12.618 8.254-19.161 11.995-12.446 7.117-25.334 13.411-38.236 19.65-33.358 16.132-68.34 28.758-104.649 39.97-17.723 5.473-35.52 10.71-53.666 14.607-18.417 3.955-32.875 6.107-51.405 7.014-8.951.438-17.925.454-26.874-.034a230 230 0 0 1-16.852-1.537c1.918.258-.414-.07-.666-.11-2.555-.408-5.106-.811-7.649-1.288-9.054-1.698-17.994-4.006-26.717-6.968-4.066-1.381-8.069-2.923-12.038-4.559-2.518-1.038-1.283-.534-.729-.299-1.076-.455-2.148-.92-3.22-1.385a452 452 0 0 1-7.013-3.119c-31.634-14.403-61.44-32.487-89.58-52.842-14.03-10.149-24.706-18.541-38.426-29.869-13.151-10.858-26.055-22.017-38.845-33.297-22.452-19.803-44.748-39.799-67.037-59.786s-43.943-40.339-64.071-62.339a516 516 0 0 1-15.029-17.145c-5.317-6.354-8.855-10.825-12.742-16.059-8.79-11.836-16.898-24.217-23.77-37.27a215 215 0 0 1-4.677-9.422c-.616-1.323-1.199-2.661-1.805-3.989l-.435-.999q1.277 3.062-.85-2.001c.838 2.071-.028-.14-.358-.976-2.461-6.256-4.572-12.653-6.228-19.169a138 138 0 0 1-2.003-9.143c-.31-1.692-.578-3.391-.831-5.092.065.439.307 2.681.051.281-.109-1.022-.227-2.041-.322-3.064a115.5 115.5 0 0 1 .241-23.684c.065-.573.438-3.168.095-.865q.402-2.709.907-5.4a147 147 0 0 1 2.806-12.025 165 165 0 0 1 3.61-11.381 174 174 0 0 1 2.962-7.717q.489-1.185-.009.007.378-.883.77-1.762c6.703-15.102 14.952-29.376 24.921-42.568 1.45-1.919.801-1.034.475-.618a200 200 0 0 1 5.562-6.765 190 190 0 0 1 8.272-9.024 173 173 0 0 1 16.773-15.015c1.754-1.379 5.579-4.167 8.389-6.12a267 267 0 0 1 10.966-7.216 251 251 0 0 1 22.851-12.684c13.472-6.572 27.779-11.826 42.684-14.392 5.197-.895 8.113-7.28 6.815-12.003-1.544-5.619-6.764-7.553-12.003-6.815Z"/><path d="m324.578 312.418.876.369-2.091-.882c15.14 6.391 30.858 11.275 46.137 17.334a630 630 0 0 1 12.462 5.098l-2.573-1.086c15.233 6.432 30.339 13.271 45.141 20.643 15.423 7.681 31.677 15.851 49.438 14.522 8.907-.666 17.432-2.92 25.673-6.295a235 235 0 0 0 13.169-5.864c3.993-1.93 8.64-3.707 11.683-7.056 2.927-3.221 4.625-7.258 4.643-11.64.014-3.606-1.125-6.705-2.575-9.929s-3.626-6.103-5.445-9.109c-3.647-6.025-7.043-12.197-10.522-18.32-7.407-13.037-15.377-26.097-26.027-36.781-11.449-11.485-25.51-19.637-40.412-25.748-6.762-2.773-13.749-4.991-20.854-6.699-7.207-1.733-14.666-3.147-22.067-3.638-6.244-.414-12.506.206-18.656 1.292-6.208 1.096-12.044 3.148-17.828 5.611-5.02 2.137-9.799 4.812-14.19 8.055-5.042 3.723-9.766 7.766-13.724 12.646-2.251 2.775-4.424 5.634-6.275 8.694-1.882 3.111-3.338 6.388-4.735 9.741-2.539 6.094-3.806 12.491-4.413 19.053-.134 1.45-.292 2.959-.215 4.415.121 2.312.351 4.837.917 7.049l-.383-2.853.021.355c.168 2.851 1.083 5.529 3.144 7.59 1.862 1.862 4.916 3.264 7.59 3.144 2.776-.124 5.655-1.036 7.59-3.144 1.862-2.028 3.311-4.749 3.144-7.59l-.021-.355-.383 2.853c.659-4.58.656-9.203 1.264-13.784l-.4 2.978a55.2 55.2 0 0 1 3.701-13.608l-1.13 2.677a57 57 0 0 1 7.34-12.541l-1.753 2.27c3.218-4.136 6.959-7.822 11.094-11.038l-2.271 1.755c4.734-3.645 9.926-6.642 15.427-8.971l-2.682 1.132a71.4 71.4 0 0 1 18.013-4.907l-2.987.401c5.582-.726 11.231-.772 16.815-.032l-2.989-.402c12.711 1.75 25.229 5.073 37.062 10.046l-2.69-1.135c8.978 3.806 17.533 8.586 25.281 14.523l-2.282-1.763c6.418 4.96 12.067 10.701 17.041 17.102l-1.765-2.284c9.923 12.86 17.127 27.48 25.364 41.411a237 237 0 0 0 3.492 5.733c1.23 1.951 2.524 3.846 3.43 5.977l-1.14-2.703c.349.883.618 1.761.778 2.697l-.404-3.008c.079.636.098 1.246.041 1.884l.404-3.008a7 7 0 0 1-.372 1.433l1.141-2.703a6.8 6.8 0 0 1-.789 1.316l1.77-2.29c-.341.389-.7.726-1.104 1.048l2.291-1.77c-2.523 1.829-5.622 3.023-8.42 4.373-3.034 1.464-6.093 2.876-9.197 4.186l2.706-1.142c-6.69 2.799-13.607 5.092-20.814 6.073l3.014-.405c-4.464.572-8.942.617-13.408.04l3.008.404c-6.478-.893-12.683-2.962-18.691-5.494l2.691 1.136c-7.405-3.152-14.535-6.911-21.795-10.374-8.312-3.964-16.699-7.811-25.224-11.296a618 618 0 0 0-47.113-17.06c-4.41-1.397-8.829-2.838-13.294-4.049-4.629-1.256-9.362-2.193-14.09-2.975-2.36-.39-4.521-.38-6.66.871-1.793 1.049-3.502 3.105-3.972 5.165-.504 2.212-.395 4.696.871 6.66l1.351 1.749a8.64 8.64 0 0 0 3.814 2.223Zm-129.995 71.453c-4.028 17.941 4.56 35.642 14.458 50.096 13.397 19.565 30.552 36.365 48.042 52.243 18.644 16.925 38.321 32.67 58.093 48.246 22.537 17.754 44.983 35.631 67.746 53.095 26.359 20.222 53.146 39.923 80.927 58.159 27.709 18.189 56.562 36.192 87.347 48.718 15.682 6.381 32.462 9.928 49.443 8.722 9.112-.647 17.993-2.209 26.496-5.595 8.077-3.216 16.568-5.462 24.875-8.035 16.266-5.037 33.053-8.396 49.464-12.926 16.204-4.473 32.415-8.946 48.462-13.959 32.254-10.076 64.304-20.883 95.792-33.162 16.372-6.384 32.72-12.935 48.735-20.175 13.661-6.176 27.872-12.232 38.849-22.76 5.795-5.558 9.804-12.05 12.764-19.449 2.444-6.109-2.663-14.043-8.762-15.433-7.307-1.664-12.746 2.246-15.433 8.762.928-2.25.195-.484-.057-.062-.452.759-.836 1.557-1.297 2.313-.365.599-.814 1.16-1.152 1.771-.941 1.699 1.897-2.036-.273.384a65 65 0 0 1-6.913 6.658c1.936-1.607-1.171.791-1.825 1.243a100 100 0 0 1-4.144 2.724c-2.977 1.843-6.048 3.528-9.157 5.136-14.124 7.307-28.63 13.99-43.149 20.473-28.916 12.91-59.932 24.474-90.523 35.09-31.161 10.813-62.48 21.164-93.635 31.995-7.611 2.646-15.248 5.32-22.996 7.536-7.865 2.25-15.751 4.766-23.944 5.41-8.329.655-16.605 2.067-24.97 2.258-7.906.181-14.991-.637-22.589-2.599-14.771-3.815-28.07-10.623-41.461-17.909-14.08-7.662-27.94-15.693-41.532-24.194-27.588-17.256-54.131-36.127-80.122-55.69-23.09-17.379-45.685-35.342-68.554-53.127-18.857-14.666-37.73-29.322-56.002-44.718-18.163-15.303-36.123-31.062-51.843-48.922-3.439-3.907-6.855-7.844-10.038-11.965 1.179 1.526-.581-.796-.963-1.315a143 143 0 0 1-2.099-2.929 118 118 0 0 1-3.992-6.102c-2.129-3.497-3.997-7.136-5.741-10.836-.905-1.918.378 1.225-.472-1.164-.281-.79-.579-1.574-.84-2.372-.591-1.811-1.034-3.642-1.428-5.503-.08-.375-.126-.757-.196-1.134-.225-1.213.107 2.131.04.23-.026-.746-.127-1.49-.151-2.238a31.4 31.4 0 0 1 .233-4.89c.474-3.842-3.368-7.344-6.849-7.758-3.712-.442-7.792 1.761-8.667 5.658Z"/><path d="M568.283 695.406c2.642 7.477 4.792 15.104 7.17 22.665s4.546 15.224 6.657 22.883a475 475 0 0 1 10.422 46.808c1.501 8.846 2.817 17.737 4.013 26.628l-.391-2.913a504 504 0 0 1 2.928 27.658 498 498 0 0 1 1.178 20.773c.073 2.057.309 4.187.046 6.233l.397-2.958a13.2 13.2 0 0 1-.792 2.856l1.123-2.66a10.2 10.2 0 0 1-1.233 2.15l1.742-2.255a6.2 6.2 0 0 1-.96.946l2.256-1.743a4.6 4.6 0 0 1-.628.363l2.663-1.124c-.224.085-.423.14-.659.181l2.965-.398a4 4 0 0 1-.682.033l2.95.396a3.6 3.6 0 0 1-.718-.182l2.633 1.111a3.4 3.4 0 0 1-.5-.26c-4.762-2.737-10.825-1.474-14.146 2.824-3.143 4.068-3.266 10.783.857 14.398 2.69 2.359 5.682 3.975 9.381 3.989 3.671.014 6.906-1.586 9.593-3.983 1.339-1.194 2.477-2.734 3.309-4.327.931-1.783 1.803-3.762 2.195-5.755.745-3.787.531-7.421.36-11.237q-.22-4.906-.536-9.808c-.888-13.742-2.394-27.427-4.333-41.059-1.843-12.957-4.474-25.768-7.566-38.483-3.056-12.567-6.444-25.069-10.443-37.371-2.268-6.976-4.803-13.877-7.431-20.724-2.826-7.363-6.24-14.512-9.469-21.705-.724-1.614-3.015-3.227-4.693-3.609-1.756-.4-3.446-.308-5.113.396-3.376 1.425-5.857 5.556-4.547 9.264Zm-78.969-340.414c11.555 7.77 23.051 15.621 34.601 23.398a1488 1488 0 0 1 34.3 23.824 1193 1193 0 0 1 33.331 24.695l.901.693c.138.106 1.627 1.27.469.361-1.01-.793-.012-.008.242.188l1.121.87a1090 1090 0 0 1 12.476 9.841 1020 1020 0 0 1 15.822 12.931c21.204 17.687 41.821 36.107 61.207 55.779 18.97 19.25 36.862 39.536 54.008 60.42a1225 1225 0 0 1 12.685 15.719 1455 1455 0 0 1 10.773 13.748c.384.496 1.274 1.674-.283-.368q.507.66 1.017 1.319c8.274 10.739 16.412 21.583 24.469 32.486a283 283 0 0 0 7.263 9.448c1.343 1.666 4.498 2.815 6.571 2.722 2.098-.094 3.96-.705 5.631-1.995 3.458-2.672 4.987-8.12 2.394-11.988-7.649-11.406-16.287-22.235-24.639-33.133-8.583-11.2-17.275-22.316-26.164-33.275-17.127-21.115-34.981-41.654-53.889-61.198-19.162-19.807-39.472-38.45-60.685-56.039-21.923-18.178-44.617-35.435-67.863-51.884-22.681-16.049-45.841-31.553-69.842-45.56a1761 1761 0 0 0-8.832-5.118c-3.182-1.832-7.822-.848-9.6 2.517-1.87 3.54-.741 7.409 2.517 9.6Z"/><path d="M596.253 701.277c20.177 48.949 31.173 101.664 32.249 154.597.066 3.25.129 6.641 1.642 9.518 3.545 6.742 12.783 7.424 20.391 7.043 98.414-4.926 195.08-40.448 273.268-100.417 8.031-6.159 16.059-12.787 21.02-21.609 3.104-5.52 4.876-11.681 6.324-17.846 11.092-47.231 3.969-98.5-19.579-140.917-32.981 25.956-72.558 41.859-111.536 57.422-43.126 17.219-90.348 26.119-135.094 38.532-26.477 7.345-49.44 21.332-76.644 25.201"/><path d="M588.054 703.538c1.278 3.273 2.625 6.552 3.709 9.895s1.707 6.844 2.828 10.164c2.22 6.577 4.22 13.234 6.086 19.919a508 508 0 0 1 9.628 40.906 438 438 0 0 1 3.836 23.525l-.381-2.836a433 433 0 0 1 3.032 30.931c.325 5.283.576 10.572.727 15.863.184 6.43.095 12.823 3.081 18.717 5.021 9.91 16.641 12.74 26.84 12.855 9.26.104 18.64-.795 27.855-1.622 38.565-3.463 76.814-11.971 113.414-24.553 36.631-12.593 71.954-29.264 104.764-49.868a476 476 0 0 0 23.64-15.842c8.302-5.935 16.717-11.953 24.317-18.776 4.017-3.607 7.521-7.606 10.719-11.957 3.412-4.642 5.785-9.961 7.676-15.381 3.171-9.086 4.868-18.801 6.166-28.313 1.408-10.317 2.242-20.657 2.151-31.076s-1.084-20.764-2.619-31.061c-2.943-19.745-8.937-38.819-17.301-56.927a213 213 0 0 0-6.265-12.525c-1.794-3.296-5.18-5.258-8.788-5.743q-2.399-.537-4.797.215a12 12 0 0 0-5.308 3.093l-.496.384 2.435-1.882c-18.95 14.58-40.056 25.939-61.725 35.912-6.184 2.846-12.424 5.568-18.694 8.219l2.97-1.253c-15.133 6.384-30.368 12.716-45.871 18.152-16.102 5.647-32.527 10.323-49.028 14.645-16.448 4.308-32.986 8.259-49.463 12.456-8.13 2.071-16.287 4.111-24.333 6.491-7.695 2.276-15.21 5.109-22.669 8.058-16.707 6.603-33.349 13.691-51.256 16.292-2.911.423-6.141 3.395-7.553 5.808-1.585 2.709-2.257 6.702-1.274 9.739.99 3.058 2.885 6.009 5.808 7.553l3.019 1.274q3.36.903 6.72 0c21.971-3.191 41.899-13.236 62.568-20.721 10.814-3.916 21.962-6.759 33.089-9.631 11.318-2.921 22.67-5.712 34.005-8.568 22.752-5.733 45.483-11.724 67.617-19.563 10.754-3.809 21.316-8.15 31.877-12.461 11.079-4.522 22.121-9.155 33.006-14.13 20.189-9.228 39.736-19.908 57.623-33.107 2.923-2.157 5.792-4.393 8.635-6.655l-18.892-2.434a187 187 0 0 1 9.127 18.557l-1.203-2.851c6.853 16.291 11.5 33.437 13.89 50.946l-.425-3.164c2.365 17.717 2.406 35.689.032 53.408l.424-3.154c-1.442 10.507-3.313 21.426-7.404 31.262l1.194-2.829a47 47 0 0 1-5.819 9.964l1.85-2.395c-4.665 5.979-10.491 10.849-16.457 15.474l2.392-1.848c-26.043 20.104-54.147 37.533-83.697 51.992a500 500 0 0 1-25.353 11.534l2.781-1.174c-31.362 13.195-64.053 23.201-97.451 29.714a493 493 0 0 1-28.375 4.671l3.04-.409c-2.813.376-5.633.708-8.442 1.116l3.035-.408a488 488 0 0 1-22.3 2.459c-6.63.575-13.527 1.531-20.167.678l2.902.39c-1.869-.27-3.686-.69-5.447-1.378l2.606 1.1a16 16 0 0 1-3.101-1.716l2.207 1.705a12.7 12.7 0 0 1-2.19-2.146l1.705 2.207a12.8 12.8 0 0 1-1.483-2.633l1.099 2.604c-.419-1.151-.686-2.305-.865-3.516l.389 2.896c-.635-5.32-.418-10.791-.674-16.143a382 382 0 0 0-1.112-15.848 468 468 0 0 0-4.394-34.35c-3.492-21.151-8.602-41.911-15.498-62.21-2.092-6.158-4.075-12.569-6.945-18.408-.673-1.369-1.289-2.769-1.944-4.146a410 410 0 0 0-1.418-2.951q1.016 2.313-.498-1.222c.855 2.07-.005-.021-.151-.373q-.509-1.225-1.024-2.447c-.8-1.9-1.604-3.798-2.422-5.69-.754-1.744-3.291-3.5-5.082-3.908-1.901-.433-3.731-.333-5.537.429-3.564 1.504-6.469 6.072-4.923 10.031ZM336.729 291.192c-1.932-13.255 8.44-26.088 21.11-30.433 12.671-4.346 26.756-1.788 39.225 3.107 35.263 13.843 62.204 47.036 68.498 84.392a326 326 0 0 0 31.498-11.745c2.226-.964 4.629-2.132 5.613-4.35.664-1.495.552-3.207.387-4.834-3.02-29.739-20.426-57.684-45.785-73.509s-58.111-19.178-86.151-8.82"/><path d="M344.674 291.192a24 24 0 0 1 .06-5.682l-.289 2.154c.239-1.661.658-3.19 1.308-4.738l-.846 2.004c1.183-2.716 2.83-5.226 4.631-7.571l-1.419 1.836a34.6 34.6 0 0 1 5.932-5.884l-1.9 1.468a35 35 0 0 1 7.564-4.408l-2.322.98c1.115-.459 2.229-.919 3.34-1.39l-2.331.984c3.011-1.207 6.168-1.97 9.378-2.411l-2.628.353c4.416-.56 8.856-.46 13.265.116l-2.674-.359c6.765.936 13.312 2.952 19.603 5.581l-2.466-1.041c8.913 3.763 17.325 8.631 24.993 14.531l-2.116-1.635a115.6 115.6 0 0 1 20.471 20.467l-1.644-2.128c5.992 7.762 10.99 16.251 14.822 25.278l-1.066-2.527c3.229 7.678 5.591 15.693 6.973 23.909.399 2.371 2.81 5.256 4.885 6.353 2.48 1.311 5.439 1.935 8.191 1.072a329 329 0 0 0 25.091-8.992 472 472 0 0 0 8.32-3.479c2.417-1.034 4.318-2.214 6.402-3.868 4.992-3.961 6.117-10.384 5.423-16.357-.914-7.861-2.423-15.571-5.003-23.064-2.531-7.351-5.765-14.537-9.738-21.225-8.064-13.573-18.934-25.181-31.808-34.281-6.78-4.792-14.14-8.459-21.825-11.561-7.027-2.836-14.319-4.94-21.798-6.176-16.569-2.739-33.808-2.376-49.944 2.613-1.827.565-3.626 1.201-5.421 1.859-2.847 1.044-5.256 2.562-6.831 5.253-1.434 2.45-2.041 6.061-1.152 8.808.895 2.766 2.609 5.434 5.253 6.831 2.591 1.369 5.948 2.202 8.808 1.152 6.884-2.526 14.16-4.193 21.421-5.177l-3.039.408a102.5 102.5 0 0 1 26.926.042l-2.971-.399c8.514 1.172 16.885 3.369 24.812 6.703l-2.618-1.105a96 96 0 0 1 20.894 12.19l-2.207-1.705c6.638 5.143 12.581 11.118 17.733 17.747l-1.696-2.195a103 103 0 0 1 13.249 22.653l-1.088-2.577a99 99 0 0 1 6.825 24.922l-.383-2.853c.255 1.951.586 3.963.366 5.931l.383-2.85a7.6 7.6 0 0 1-.429 1.557l1.08-2.56a7 7 0 0 1-.746 1.213l1.675-2.168a9 9 0 0 1-1.295 1.224l2.167-1.675c-2.127 1.529-4.7 2.425-7.096 3.437l2.554-1.078a331 331 0 0 1-27.945 10.299l13.077 7.425c-2.25-13.046-7.015-25.739-13.498-37.266-6.442-11.454-14.842-22.046-24.581-30.872-10.48-9.499-22.289-17.013-35.367-22.36-7.647-3.126-15.52-5.097-23.729-6.018-3.749-.421-7.544-.49-11.297-.087-4.41.474-8.804 1.189-12.952 2.81-4.373 1.709-7.97 3.876-11.654 6.758-3.01 2.355-5.426 5.139-7.719 8.186-4.345 5.773-6.481 13.317-6.561 20.512-.023 2.081.273 4.163.613 6.209.293 1.77 2.104 3.931 3.651 4.749 1.605.848 3.259 1.186 5.066.943 3.555-.478 7.32-3.87 6.889-7.804ZM46.897 111.172c-8.136 9.075-15.084 19.266-20.269 30.305-5.611 11.946-9.7 24.693-10.647 37.92-.474 6.617.122 13.611 2.286 19.906 2.239 6.513 5.776 12.193 10.241 17.407 4.029 4.704 8.93 8.639 13.989 12.178 4.453 3.114 9.231 5.79 14.163 8.066 6.238 2.878 12.681 5.284 19.322 7.05 6.837 1.818 13.794 2.924 20.804 3.825l-3.007-.404c15.659 2.529 31.797 2.328 47.586 1.48 8.721-.468 17.423-1.103 26.125-1.825 8.623-.716 17.262-1.31 25.916-1.471 9.751-.181 19.501.06 29.177 1.351l-3.767-.506c8.013 1.097 16.097 2.716 23.586 5.849l-3.406-1.437c3.915 1.666 7.654 3.722 11.037 6.311l-2.895-2.237c2.226 1.735 4.258 3.684 5.989 5.917l-2.242-2.901a25.5 25.5 0 0 1 3.117 5.333l-1.447-3.43a22.2 22.2 0 0 1 1.466 5.377l-.513-3.818q.353 2.832.005 5.664l.513-3.819a23.7 23.7 0 0 1-1.592 5.821l1.448-3.432c-1.021 2.387-2.38 4.587-3.95 6.651l2.247-2.909c-4.824 6.23-11.205 11.046-17.391 15.833-7.008 5.422-13.627 11.086-19.188 18.034-2.307 2.882-4.734 5.807-6.6 9.011s-3.496 6.492-4.865 9.948l1.391-3.297c-2.285 4.148-3.768 8.742-5.321 13.198-1.467 4.209-2.208 8.615-2.593 13.05-.811 9.339 2.408 19.433 9.557 25.709 2.612 2.294 5.638 3.811 9.2 3.811 3.191 0 7.003-1.417 9.2-3.811 2.276-2.479 3.966-5.735 3.811-9.2-.149-3.319-1.227-6.931-3.811-9.2a15.5 15.5 0 0 1-1.836-1.954l2.043 2.644a17.4 17.4 0 0 1-2.134-3.62l1.323 3.135c-.675-1.622-1.101-3.305-1.339-5.044l.471 3.502c-.306-2.513-.242-5.04.084-7.547l-.471 3.508c.431-3.072 1.234-6.064 2.31-8.971l-1.33 3.152c2.746-5.234 5.654-10.209 9.268-14.909l-2.241 2.9c1.945-2.504 3.792-5.075 5.729-7.583l-2.252 2.915a91.3 91.3 0 0 1 14.539-14.787c4.713-3.819 9.635-7.379 14.231-11.342 2.246-1.937 4.418-3.969 6.398-6.179 2.556-2.854 5.026-5.942 6.924-9.285 1.238-2.181 2.192-4.553 3.096-6.88.48-1.234.856-2.508 1.113-3.806.489-2.467.865-5.014.92-7.535.058-2.625-.369-5.286-.797-7.857a21 21 0 0 0-1.072-3.958c-.89-2.353-1.852-4.758-3.147-6.93a41.5 41.5 0 0 0-7.275-9.026c-6.161-5.731-13.213-9.481-20.968-12.553-6.539-2.59-13.536-4.016-20.475-5.025-9.046-1.316-18.083-2.077-27.227-2.071-17.144.01-34.356 2.206-51.309 4.546q-2.939.405-5.877.802l3.493-.469c-15.884 2.128-31.878 3.772-47.926 3.114-4.383-.18-8.757-.567-13.106-1.145l2.922.393c-9.5-1.291-18.86-3.579-27.711-7.302l2.411 1.017a79.7 79.7 0 0 1-17.233-10.041l1.956 1.511c-3.608-2.799-6.931-5.938-9.756-9.534l1.47 1.902a38.3 38.3 0 0 1-4.868-8.22l.936 2.219c-1.316-3.145-2.161-6.428-2.625-9.803l.329 2.448c-.607-4.784-.45-9.598.166-14.372l-.325 2.418c1.313-9.69 4.23-19.263 8.005-28.267l-.88 2.085a119.4 119.4 0 0 1 15.409-26.398l-1.277 1.652q1.31-1.684 2.674-3.323c1.405-1.688 2.368-3.446 2.368-5.717 0-1.983-.881-4.352-2.368-5.717-3.083-2.83-8.419-3.363-11.434 0Z"/></svg>