<?xml version="1.0" encoding="UTF-8"?><svg xmlns="http://www.w3.org/2000/svg" data-name="ARTWORK" viewBox="0 0 1000 1000"><path d="M692.31 267.232c-85.169-21.522-170.737-41.613-256.711-59.664-85.383-17.927-171.19-33.772-257.428-46.999-17.173-2.634-34.304-4.824-51.203-8.886-8.046-1.934-16.083-3.636-24.296-4.693-6.603-.85-13.715-1.237-20.068 1.117-11.347 4.203-17.316 13.433-18.609 25.127-.859 7.77.773 15.525 1.241 23.271 1.301 21.521 1.379 43.189 1.981 64.74a16856 16856 0 0 1 5.309 264.995c.543 44.565.804 89.135 1.495 133.698s-.041 89.134.821 133.699c.208 10.757.166 21.661-.319 32.411-.249 5.511 4.093 10.701 9.25 12.149 42.984 12.075 86.463 22.065 129.924 32.27 43.46 10.205 86.999 20.072 130.545 29.903a21024 21024 0 0 0 260.08 56.981c48.926 10.396 97.87 20.71 146.826 30.961 7.05 1.476 15.256-2.062 16.983-9.642 1.591-6.987-2.101-15.313-9.642-16.983-1.521-.337-3.053-.653-4.56-1.048-.392-.103-.814-.276-1.214-.327a9 9 0 0 1-.423-.134 12.6 12.6 0 0 1 5.548 3.272l3.55 6.09-.016-.055-1.391 10.635.028-.051-4.952 4.952c.321-.212-4.38 1.656-2.776 1.222 1.162-.314-4.484.479-2.403.327 1.01-.074 2.021-.212 3.026-.334 3.535-.431 7.195-.807 10.603-1.919 10.104-3.299 17.168-10.388 17.986-21.335s.373-22.213.404-33.217c.033-11.3-.031-22.6-.173-33.899-.61-48.427-2.736-96.854-5.506-145.202-2.883-50.317-5.972-100.613-9.323-150.901-3.32-49.807-6.709-99.611-9.57-149.447-2.681-46.705-4.733-93.425-5.947-140.191-.144-5.545-.297-11.091-.373-16.638-.096-6.945-6.042-13.609-13.284-13.284-7.115.319-13.387 5.839-13.284 13.284.659 47.783 2.651 95.501 5.299 143.214 2.86 51.548 6.355 103.059 9.805 154.57 3.479 51.952 7.008 103.91 9.726 155.909 2.6 49.737 4.386 99.53 4.951 149.333.133 11.713.181 23.428.124 35.142a1854 1854 0 0 1-.299 25.506c-.027 1.43-.047 2.861-.086 4.291-.109 3.979.472-1.493.077-.148.703-2.391.669-1.889 2.239-3.765-.398.476-2.255 2.068-.184.379 2.008-1.636.073-.307-.506.094-1.28.886 3.494-1.074.589-.303-1.237.328-2.446.681-3.706.922-.551.106-1.114.166-1.663.282-.484.102 3.953-.453 1.131-.165-3.111.318-6.194.471-9.092 1.694-10.376 4.379-11.355 19.096-1.559 24.81 2.96 1.727 6.57 2.327 9.862 3.059l7.34-26.625c-87.35-18.381-174.551-37.453-261.666-56.916-86.612-19.35-173.157-38.967-259.705-58.601-48.82-11.075-97.488-22.799-146.647-32.272l9.25 12.149c-.591-22.13.653-44.321 1.109-66.443.446-21.605.486-43.215.565-64.824.161-43.758.493-87.51.307-131.268-.372-87.366-1.745-174.732-3.855-262.072a15452 15452 0 0 0-2.648-96.98c-.256-8.427-1.495-16.774-1.745-25.185-.045-1.509.236-3.117.095-4.601-.183-1.919-.984 3.521-.038.681.132-.396 1.095-3.202.082-.744-1.128 2.735.455-.444.455-.494-.003 1.204-2.04 2.377-.611 1.069l-1.565 1.223q2.048-1.127-.886.16c.071-.251 1.697-.507 1.882-.557 3.583-.972-3.504.019.571-.01 1.471-.011 2.932-.009 4.402.081 1.449.089 2.888.312 4.335.408 2.206.146-3.809-.637-.378-.035 1.042.183 2.089.338 3.13.523 6.937 1.232 13.785 2.902 20.654 4.461 7.35 1.668 14.727 2.648 22.192 3.676 85.164 11.727 170.125 25.231 254.676 40.779 84.895 15.611 169.454 33.197 253.275 53.843a5317 5317 0 0 1 31.006 7.739c13.103 3.311 18.693-16.931 5.581-20.245Z"/><path d="M93.995 316.089c42.001 8.795 84.07 17.329 126.164 25.674s83.898 16.613 125.831 25c42.171 8.435 84.31 17.03 126.413 25.794a15550 15550 0 0 1 125.631 26.694c42.071 9.12 84.095 18.454 126.118 27.79q7.843 1.743 15.685 3.493c6.459 1.442 14.026-1.955 15.598-8.856 1.466-6.439-1.936-14.039-8.856-15.598-42.004-9.464-84.071-18.634-126.18-27.62a15612 15612 0 0 0-125.757-26.294 14793 14793 0 0 0-126.551-25.354c-42.005-8.221-84.034-16.286-126.156-23.885-42.346-7.639-84.786-15.044-127.325-21.531q-7.948-1.212-15.898-2.416c-4.731-.717-9.538 1.192-10.913 6.196-1.21 4.404 1.485 9.927 6.196 10.913m206.974 150.836a7306 7306 0 0 1 79.051 16.365c13.165 2.804 26.434 5.176 39.65 7.732 13.131 2.54 26.293 4.928 39.441 7.374 14.903 2.773 29.81 5.531 44.71 8.322l-5.728-21.695c-14.393 14.547-28.185 29.637-41.455 45.215-13.892 16.308-27.213 33.107-40.011 50.287-12.168 16.334-23.858 33.046-34.862 50.187s-21.537 34.791-31.432 52.695c-9.899 17.91-19.321 36.101-27.684 54.781a418 418 0 0 0-4.144 9.521l1.302-3.085c-1.136 2.517-2.33 5.234-3.068 7.922l1.26-2.985-.215.473c-1.43 3.142-2.211 6.173-1.26 9.628.798 2.898 3.039 6.039 5.742 7.467 2.9 1.532 6.413 2.3 9.628 1.26 2.914-.943 6.144-2.836 7.467-5.742.709-1.557 1.723-3.001 2.524-4.519.887-1.681 1.674-3.423 2.515-5.127q2.3-4.656 4.65-9.287c3.217-6.335 6.359-12.707 9.609-19.025a928 928 0 0 1 20.11-37.009c14.005-24.437 29.128-48.249 45.189-71.386a939 939 0 0 1 28.114-38.376l-2.096 2.713c16.241-21.011 33.473-41.142 51.275-60.837q7.502-8.298 15.2-16.413c3.209-3.384 4.594-8.07 3.338-12.629-1.104-4.009-4.739-8.35-9.066-9.066-31.927-5.285-63.825-10.756-95.783-15.852-9.833-1.568-19.665-3.376-29.544-4.618l3.054.41c-14.884-2.091-29.76-4.266-44.656-6.267l2.661.358-40.695-6.17c-2.486-.377-4.686-.412-6.943.908-1.869 1.094-3.652 3.237-4.141 5.385-1.022 4.485 1.352 10.089 6.294 11.085Z"/><path d="M331.93 617.348c7.516 2.326 15.049 4.593 22.59 6.836s15.058 4.569 22.663 6.547c15.213 3.957 30.463 7.803 45.824 11.145a1847 1847 0 0 0 19.229 4.074c1.122.231 2.243.481 3.369.692.973.181 2.8.456 4.064.534 1.476.091 2.954-.318 4.411-.554l2.663-1.124 2.256-1.743c1.743-1.743 2.741-3.986 3.066-6.401.596-4.438-1.469-8.751-5.322-11.107-4.048-2.476-9.055-2.867-13.635-3.757q-5.794-1.126-11.58-2.29-11.578-2.328-23.157-4.648c-15.287-3.063-30.551-6.251-45.825-9.38a1600 1600 0 0 1-25.997-5.573c-4.425-.983-9.607 1.336-10.685 6.067s1.418 9.246 6.067 10.685ZM230.887 172.492 223.413 25c.303 5.977 147.353 29.718 162.711 32.813 83.658 16.857 170.055 33.742 254.353 52.574 83.691 18.696 148.531 27.085 232.896 42.706 4.656.862 9.676 1.924 12.802 5.48 2.536 2.885 3.844 6.808 4.002 10.646 10.065 244.916 0 466.653 31.246 693.127-52.143-6.244-93.172-19.239-145.316-25.483-7.973-181.169-29.164-362.205-19.238-550.447-155.221-28.288-351.073-93.473-531.363-113.797"/><path d="M240.27 172.492c-1.639-49.163-2.843-98.358-5.168-147.492l-22.96 3.107c1.184 8.615 13.65 11.051 20.435 12.805 11.086 2.867 22.336 5.132 33.561 7.375 28.164 5.627 56.462 10.559 84.756 15.478 29.05 5.05 57.899 10.887 86.808 16.715 54.596 11.006 109.189 22.044 163.627 33.814 51.539 11.144 102.983 22.005 154.969 30.908 25.037 4.288 50.099 8.425 75.123 12.784 13.294 2.316 26.625 4.535 39.861 7.162 1.18.234 2.362.475 3.523.793.6.164 3.348.756 1.503.42.178.032 1.552 1.095.689.313-.927-.84.478.524.5.577-.297-.737.132.819.123.783.165.622.35 1.249.445 1.888-.127-.857-.144-1.794-.095.953.03 1.656.134 3.315.199 4.97q.212 5.373.413 10.748c2.055 55.042 3.187 110.114 4.069 165.186.851 53.098 1.565 106.2 2.753 159.293 1.172 52.359 2.852 104.713 5.808 157.005 2.945 52.102 7.167 104.143 13.345 155.966 1.531 12.841 3.252 25.781 4.898 38.302l11.97-11.97c-48.859-6.226-96.363-20.355-145.316-26.282l12.77 12.77c-3.161-71.059-8.315-142.005-12.825-212.985-4.525-71.209-8.384-142.499-9.095-213.863-.41-41.215.256-82.436 2.407-123.599.264-5.044-4.036-11.11-9.173-12.048-66.534-12.16-132.167-29.216-197.737-45.665-71.097-17.836-142.236-35.711-214.193-49.793-40.662-7.958-81.578-14.628-122.754-19.297-6.784-.769-13.296 6.531-13.006 13.006.345 7.704 5.737 12.182 13.006 13.006 18.056 2.047 33 4.086 51.04 6.897a1712 1712 0 0 1 53.609 9.248c36.064 6.799 71.929 14.616 107.67 22.939 69.673 16.225 138.849 34.488 208.452 51.005 35.565 8.44 71.311 16.179 107.27 22.751l-9.173-12.048c-3.795 72.622-3.205 145.399-.207 218.039 2.926 70.887 7.946 141.661 12.471 212.457 2.554 39.965 4.94 79.942 6.699 119.951.331 7.533 5.634 11.902 12.77 12.77 47.913 5.826 96.567 19.064 145.316 24.683 3.627.418 7.314-2.014 9.4-4.717 2.519-3.264 2.711-6.481 2.143-10.435-7.29-50.743-11.894-102.876-15.359-154.37-3.507-52.131-5.569-104.349-6.943-156.576-1.396-53.051-2.089-106.116-2.845-159.179-.778-54.615-1.699-109.23-3.366-163.825-.427-13.976-.903-27.95-1.439-41.922-.539-14.07 0-30.42-14.318-38.126-5.752-3.096-12.228-3.943-18.554-5.1a3503 3503 0 0 0-19.832-3.565 5398 5398 0 0 0-38.721-6.684c-50.221-8.508-100.482-16.776-150.313-27.396-54.474-11.61-108.853-23.55-163.46-34.542-40.011-8.054-79.977-16.809-120.195-23.769-25.84-4.472-51.699-8.832-77.499-13.531-13.775-2.509-27.55-5.024-41.268-7.834-9.153-1.875-18.491-3.622-27.395-6.506-.593-.192-1.176-.419-1.77-.605-2.351-.738 2.752 1.422 1.108.483-.3-.172-.627-.298-.906-.506 1.873 1.396 4.375 3.397 4.792 6.284-.818-5.67-7.715-9.141-12.825-8.373-5.45.82-10.454 5.578-10.135 11.48 2.658 49.195 6.437 98.338 9.78 147.492.344 5.056 4.066 9.383 9.383 9.383 4.953 0 9.552-4.295 9.383-9.383Zm-4.115 103.074 1.665-.15c1.648-.148 3.314-.263 4.911-.713l2.974-1.255a9.4 9.4 0 0 0 3.493-3.206 6.2 6.2 0 0 0 1.601-2.746q1.169-2.225 1.072-4.796l-.445-3.309-1.255-2.974a9.4 9.4 0 0 0-3.206-3.493 9.4 9.4 0 0 0-4.233-2.228l-.416-.117-.178-.05a10 10 0 0 0-1.74-.239 20 20 0 0 0-1.744-.231l-.833-.075-1.665-.15q-2.657-.1-4.957 1.108a9.66 9.66 0 0 0-4.141 2.66 9.64 9.64 0 0 0-2.66 4.141q-1.209 2.3-1.108 4.957l.46 3.42a12.84 12.84 0 0 0 3.309 5.677l2.604 2.012a12.8 12.8 0 0 0 6.494 1.757Z"/><path d="m580.791 340.9 1.665-.15c1.648-.148 3.314-.263 4.911-.713l2.974-1.255a9.4 9.4 0 0 0 3.493-3.206 6.2 6.2 0 0 0 1.601-2.746q1.169-2.225 1.072-4.796l-.445-3.309-1.255-2.974a9.4 9.4 0 0 0-3.206-3.493 9.4 9.4 0 0 0-4.233-2.228l-.416-.117-.178-.05a10 10 0 0 0-1.74-.239 20 20 0 0 0-1.744-.231l-.833-.075-1.665-.15q-2.657-.1-4.957 1.108a9.66 9.66 0 0 0-4.141 2.66 9.64 9.64 0 0 0-2.66 4.141q-1.209 2.3-1.108 4.957l.46 3.42a12.84 12.84 0 0 0 3.309 5.677l2.604 2.012a12.8 12.8 0 0 0 6.494 1.757Z"/></svg>