<?xml version="1.0" encoding="UTF-8"?><svg xmlns="http://www.w3.org/2000/svg" data-name="ARTWORK" viewBox="0 0 1000 1000"><path d="M441.075 203.521c-67.882 48.831-135.472 98.048-202.845 147.58-33.585 24.691-67.167 49.385-100.754 74.072-16.918 12.436-33.732 25.015-50.592 37.53-15.28 11.342-31.184 22.643-43.728 37.102-23.837 27.477-34.136 64.168-29.104 100.107 2.433 17.378 8.592 34.706 19.691 48.46 12.418 15.387 31.683 21.001 49.753 26.839 78.456 25.347 157.45 48.922 237.353 69.292 37.157 9.473 79.188 22.804 116.626 7.481 18.022-7.376 32.845-19.618 47.854-31.747a9968 9968 0 0 0 373.202-317.06c13.879-12.391 28.82-24.343 40.615-38.824 13.137-16.129 19.978-33.903 22.366-54.492 1.072-9.241 1.145-18.562 1.076-27.853s.146-19.085-3.199-27.873c-6.99-18.365-24.378-26.832-41.191-34.434-17.109-7.735-34.611-14.588-52.457-20.427-34.069-11.147-69.153-18.658-104.167-26.135-16.978-3.626-33.892-7.54-51.052-10.225-17.901-2.801-35.925-4.852-53.972-6.442-16.31-1.437-32.656-2.5-49.017-3.134-9.121-.353-18.297-.727-27.41-.01-21.472 1.69-40.473 10.087-58.673 21.277-14.182 8.72-27.055 18.887-40.679 28.394-4.767 3.327-6.973 9.436-3.867 14.746 2.76 4.719 9.949 7.214 14.746 3.867 13.521-9.435 27.807-17.78 42.255-25.699 5.063-2.775 10.261-5.208 15.428-7.769 2.058-1.02-.278.032-.596.182.754-.357 3.023-1.461 4.269-1.817 1.678-.481-2.321.879-.704.303.521-.186 1.029-.417 1.544-.62 2.203-.867 4.43-1.673 6.683-2.402a106 106 0 0 1 12.096-3.143 89 89 0 0 1 2.669-.484c.442-.073.889-.131 1.33-.21 2.067-.372-1.414.209-1.503.192 1.698.327 4.245-.464 6.008-.586 8.99-.62 18.033-.233 27.026.128 15.909.637 31.803 1.682 47.663 3.079a914 914 0 0 1 25.643 2.611c8.769 1.022 13.402 1.626 22.051 2.958 16.655 2.564 33.073 6.3 49.554 9.776 17.063 3.599 34.132 7.186 51.108 11.186 33.082 7.795 66.795 17.672 97.336 31.087 7.632 3.352 15.426 6.713 22.537 11.095a65 65 0 0 1 2.782 1.811c.211.145 2.373 1.77 1.335.941-.046-.037 2.331 2.126 3.054 2.875.342.355 2.155 2.42.875.793.52.661.994 1.42 1.428 2.132.443.728.882 1.495 1.238 2.267-.697-1.514.304 1.069.444 1.563.672 2.368.782 3.07.892 4.553.148 1.99.219 3.982.255 5.978.082 4.603.078 9.214.033 13.817-.04 4.14-.145 8.281-.386 12.415-.267 4.576-.577 8.29-1.172 11.823-2.935 17.414-10.284 29.864-22.174 42.079-12.88 13.233-27.246 25.132-41.031 37.4a9967 9967 0 0 1-361.093 306.308c-6.909 5.584-13.742 11.266-20.113 15.903-3.434 2.499-6.947 4.895-10.584 7.09a109 109 0 0 1-5.19 2.947 93 93 0 0 1-2.655 1.356c-.295.145-3.687 1.712-2.267 1.102-8.004 3.434-16.135 5.009-23.797 5.443-4.459.253-8.93.217-13.388-.036-4.346-.247-9.015-.742-12.334-1.257-18.783-2.917-37.217-8.107-55.607-12.821-19.476-4.993-38.887-10.222-58.315-15.4a4035 4035 0 0 1-114.424-32.299 3155 3155 0 0 1-57.628-17.772c-15.398-4.916-32.736-8.622-42.397-20.96-4.424-5.65-7.529-12.752-9.711-19.434a104 104 0 0 1-2.85-10.622 134 134 0 0 1-1.006-5.406c-.739-4.349.086 1.06-.211-1.486q-.199-1.709-.341-3.422c-1.36-16.46.623-29.941 6.559-45.357 5.276-13.703 14.743-26.138 26.301-37.028 13.207-12.444 27.361-22.125 42.073-33.025 32.58-24.139 65.056-48.414 97.526-72.702 64.737-48.423 129.547-96.75 193.815-145.795 15.791-12.05 31.58-24.101 47.362-36.162 4.359-3.331 6.667-8.762 3.65-13.92-2.574-4.4-9.436-6.876-13.92-3.65"/><path d="M35.089 520.131c-8.764 12.845-10.77 28.738-2.384 42.348 6.95 11.28 18.438 18.866 30.458 23.839 35.86 14.837 73.073 26.967 110.467 37.298 35.654 9.85 71.684 18.246 107.779 26.307 18.107 4.044 36.238 7.982 54.352 11.997 18.323 4.061 37.382 9.724 56.331 7.941 36.108-3.399 65.032-27.745 92.836-48.784 31.003-23.46 61.698-47.329 92.197-71.44a4999 4999 0 0 0 177.832-147.388c28.963-25.156 57.627-50.656 86.036-76.437a4981 4981 0 0 0 42.984-39.468c12.22-11.352 27.243-25.351 21.417-43.887-2.446-7.782-8.366-14.507-16.545-16.313-5.263-1.162-10.806 1.587-12.287 6.976-1.375 5.004 1.685 11.118 6.976 12.287 1.485.328 1.199.244.592-.059 1.428.713 1.008.492.518.146.811.573.893.651 1.611 2.108.594 1.205.819 3.813.477 5.104-1.806 6.83-8.088 11.847-13.032 16.495a4882 4882 0 0 1-40.365 37.51 4716 4716 0 0 1-80.806 72.533A4996 4996 0 0 1 584.97 519.902a4405 4405 0 0 1-86.201 67.468c-14.225 10.849-28.458 21.695-42.836 32.341-12.913 9.562-26.375 19.215-41.302 25.407-15.144 6.283-30.518 7.554-46.593 4.598-17.64-3.244-35.117-7.686-52.63-11.555-34.008-7.513-68.039-14.94-101.83-23.394-35.136-8.79-70.081-18.515-104.421-30.05-8.951-3.006-17.844-6.168-26.724-9.378-6.934-2.506-13.881-4.677-19.779-7.761-8.84-4.622-18.445-12.05-19.726-22.606-.735-6.054 1.702-12.331 4.595-17.573 4.528-8.201-7.252-14.866-12.435-7.269Z"/><path d="M393.423 664.402c.321 20.136.715 40.271 1.119 60.406l.341 16.974c.087 4.322 3.741 8.472 8.269 8.269 4.406-.197 8.362-3.636 8.269-8.269-.404-20.135-.747-40.273-1.235-60.406l-.411-16.974c-.103-4.272-3.687-8.378-8.176-8.176-4.372.196-8.249 3.594-8.176 8.176M679.805 227.63a284.6 284.6 0 0 0-82.127-7.7c-4.371.228-9.581 1.123-11.315 5.142-1.358 3.147.257 6.943 2.878 9.151s6.032 3.192 9.332 4.12c33.163 9.319 66.518 18.676 100.773 22.306 7.986.846 18.194.078 21.02-7.438 1.732-4.606-.468-9.961-4.093-13.289s-8.413-5.041-13.098-6.545a273 273 0 0 0-56.051-11.678"/><path d="M682.102 219.297c-11.681-3.295-23.588-5.96-35.572-7.885-12.811-2.058-25.78-3.012-38.751-3.126-6.005-.053-12.484-.114-18.334 1.378-3.601.919-7.193 2.74-9.815 5.413-1.648 1.68-2.772 3.485-3.668 5.609-.976 2.312-1.649 4.819-1.448 7.368.219 2.768.636 4.577 1.665 7.015 1.008 2.389 2.2 4.158 3.958 6.164 2.829 3.225 6.785 5.052 10.682 6.58 2.585 1.014 5.315 1.669 7.984 2.418q4.42 1.241 8.842 2.474c23.486 6.535 47.124 12.747 71.223 16.589 6.798 1.084 13.63 2.029 20.479 2.735 4.989.514 10.122.297 15.012-.875 6.149-1.473 12.047-5.221 15.195-10.821 4.047-7.199 3.506-16.356-.987-23.246-2.39-3.664-5.243-6.361-8.853-8.81-2.894-1.963-6.247-3.285-9.501-4.505-5.487-2.058-11.194-3.635-16.851-5.148-12.365-3.308-25.002-5.492-37.692-7.093-3.758-.474-7.415.086-11.09.938s-6.373 4.37-6.855 7.956c-.235 1.751-.034 3.331.653 4.959.741 1.756 2.115 3.753 3.916 4.576 1.81.827 3.667 1.842 5.556 2.416 2.126.646 4.179.988 6.398 1.285l-2.965-.398a275 275 0 0 1 28.159 5.285 311 311 0 0 1 13.852 3.701c4.315 1.261 8.688 2.512 12.836 4.261l-2.719-1.147c2.064.896 4.03 1.951 5.831 3.306l-2.304-1.78c1.153.905 2.181 1.898 3.086 3.051l-1.78-2.304a16.4 16.4 0 0 1 1.921 3.305l-1.147-2.719a14 14 0 0 1 .887 3.259l-.407-3.026c.096.87.105 1.714.015 2.584l.407-3.026a10.7 10.7 0 0 1-.643 2.458l1.147-2.719a11 11 0 0 1-1.34 2.309l1.78-2.304a11.4 11.4 0 0 1-1.843 1.81l2.304-1.78a14 14 0 0 1-2.801 1.607l2.719-1.147c-1.754.728-3.59 1.158-5.468 1.417l3.026-.407c-6.174.781-12.444-.273-18.559-1.093l3.026.407c-26.022-3.53-51.505-10.047-76.778-17.044q-5.356-1.485-10.707-2.988c-3.239-.909-6.567-1.683-9.675-2.992l2.719 1.147c-1.255-.556-2.43-1.212-3.524-2.044l2.304 1.78a11.7 11.7 0 0 1-1.846-1.875l1.78 2.304a11.6 11.6 0 0 1-1.134-1.922l1.147 2.719a9.8 9.8 0 0 1-.624-2.095l.407 3.026a8.4 8.4 0 0 1-.047-1.783l-.407 3.026a7.4 7.4 0 0 1 .454-1.735l-1.147 2.719c.226-.488.486-.933.805-1.365l-1.78 2.304c.396-.487.83-.906 1.325-1.292l-2.304 1.78a10.7 10.7 0 0 1 1.93-1.094l-2.719 1.147c1.467-.603 2.999-.938 4.567-1.154l-3.026.407c4.065-.506 8.218-.47 12.308-.648q6.854-.298 13.715-.265c9.031.044 18.095.479 27.099 1.17 5.087.39 10.161.922 15.22 1.583l-2.462-.331c5.572.833 11.119 1.774 16.639 2.904 2.289.468 4.595.337 6.658-.871 1.792-1.049 3.502-3.104 3.971-5.164 1.046-4.591-1.379-9.316-6.035-10.629Zm210.69 127.357 45.998 17.591c16.816 6.431 36.684 17.146 36.201 35.144-.246 9.178-6.098 17.14-11.818 24.322-53.526 67.209-117.445 125.286-181.059 183.039l-82.413 74.82c-54.241 49.244-109.08 98.923-172.932 134.84-15.39 8.657-31.853 16.644-49.493 17.433-20.877.934-40.711-8.264-59.621-17.161-112.703-53.031-244.192-115.001-359.796-161.368 98.434 34.33 180.962 57.426 247.235 75.398 34.976 9.485 70.202 24.776 105.871 18.372 30.936-5.554 57.307-24.99 82.437-43.867 137.604-103.37 275.482-206.968 401.872-323.783 6.672-6.167 12.948-18.101 5.12-22.713"/><path d="M888.501 353.995c9.973 4.343 19.943 8.689 29.951 12.949 8.936 3.804 17.11 6.818 25.392 11.13 6.679 3.477 12.394 6.719 16.904 12.247-.73-.894 1.235 1.897 1.576 2.487 1.007 1.744.577.971.337.422.38.868.615 1.796.865 2.706.066.242.454 2.542.313 1.363-.171-1.43-.034 2.381-.012 2.089a15.7 15.7 0 0 1-1.02 4.518c-3.062 8.049-10.278 15.138-15.651 21.669a895 895 0 0 1-19.777 23.204c-13.255 15.038-26.98 29.657-41.024 43.959-58.198 59.264-121.124 113.893-182.615 169.671-58.172 52.767-116.342 107.457-185.628 145.56-16.088 8.847-33.485 16.416-52.267 13.809-18.486-2.565-35.654-12.007-52.306-19.85-35.177-16.57-70.369-33.105-105.648-49.456-72.768-33.726-145.753-67.955-220.76-96.479-8.922-3.393-17.54-7.547-26.393-11.12l-5.757 20.881c61.416 21.637 123.562 41.013 186.207 58.763 27.139 7.69 54.511 14.644 81.491 22.873 33.416 10.191 67.93 19.87 102.618 9.647 31.796-9.37 58.07-30.586 84.113-50.189a35970 35970 0 0 0 84.952-64.137c57.083-43.234 114.147-86.594 169.57-131.949 27.436-22.452 54.571-45.275 81.292-68.574a2820 2820 0 0 0 39.758-35.319c6.377-5.776 12.946-11.431 19.078-17.466 5.093-5.013 9.75-11.786 11.185-18.903 1.828-9.064-1.246-16.844-8.871-22.009-5.299-3.59-13.131-1.012-16.208 4.25-3.417 5.841-1.062 12.61 4.25 16.208-1.165-.789-1.708-1.775-2.116-3.057-.149-.468-.493-2.356-.012-1.156.119.296-.345 1.311-.435 1.61.489-1.632.014.057-.186.431-.29.543-.585 1.079-.901 1.607-1.209 2.025-1.387 2.172-2.21 3.025-5.56 5.77-11.792 11-17.718 16.39a2792 2792 0 0 1-38.375 34.249c-25.787 22.598-51.966 44.747-78.435 66.54-52.679 43.373-106.101 85.83-160.317 127.265-27.267 20.839-54.689 41.473-82.139 62.07-25.068 18.81-49.909 40.125-78.776 52.938-13.764 6.109-28.463 9.143-43.512 8.614-16.226-.57-32.066-4.855-47.556-9.427-26.907-7.943-53.908-15.425-80.925-22.985-58.884-16.478-117.368-34.343-175.344-53.782a3166 3166 0 0 1-24.721-8.407c-5.528-1.905-11.84 2.178-13.319 7.562-1.694 6.167 2.11 11.142 7.562 13.319 9.001 3.593 18.14 6.776 27.019 10.665s17.834 7.801 26.754 11.698a9079 9079 0 0 1 56.254 24.816 8885 8885 0 0 1 114.271 51.839c36.822 17.012 73.539 34.25 110.25 51.498 18.481 8.683 36.91 18.588 56.468 24.639 20.231 6.26 40.958 5.825 60.702-1.941 19.135-7.526 36.933-18.498 54.134-29.654 17.438-11.31 34.204-23.591 50.591-36.367 32.199-25.104 62.528-52.48 92.734-79.916C767.54 635.46 832.353 579.05 892.905 518.469c14.772-14.78 29.232-29.877 43.211-45.41s28.326-31.486 40.568-48.561c5.837-8.141 10.186-17.881 9.336-28.103-.75-9.021-4.922-17.042-11.239-23.454-12.986-13.179-31.695-18.341-48.687-24.121-10.328-3.513-20.684-6.936-31.041-10.363-8.989-2.974-15.458 11.66-6.551 15.539Z"/></svg>