<?xml version="1.0" encoding="UTF-8"?><svg xmlns="http://www.w3.org/2000/svg" data-name="ARTWORK" viewBox="0 0 1000 1000"><path d="M427.829 530.111c-16.006.046-31.975 1.114-47.918 2.464a594 594 0 0 0-54.145 7.128c-15.597 2.781-31.176 6.87-46.041 12.357-7.868 2.904-15.73 6.044-23.115 10.042-3.463 1.875-6.805 3.967-9.936 6.359-3.718 2.84-7.27 5.718-10.181 9.409-3.634 4.608-6.356 9.123-8.255 14.743-1.576 4.662-2.281 9.941-1.697 14.842.701 5.88 2.242 11.64 5.812 16.495 1.845 2.509 3.745 4.883 6.134 6.888 2.474 2.077 5.084 4.033 7.866 5.683 7.81 4.631 16.561 8.024 24.987 11.33 7.438 2.918 15.001 5.513 22.641 7.847 16.142 4.932 32.624 8.718 49.223 11.75 18.252 3.334 36.68 5.733 55.144 7.538 17.24 1.686 34.534 2.809 51.841 3.52a1156 1156 0 0 0 25.112.75c7.939.153 15.901-.132 23.831-.519 4.63-.226 9.255-.474 13.836-1.238l-2.999.403c1.762-.05 3.527-.302 5.288-.318 2.837-.025 5.768-1.21 7.781-3.223 1.908-1.908 3.346-5.04 3.223-7.781-.265-5.918-4.836-11.059-11.003-11.003-1.758.016-3.527-.21-5.288-.24l2.999.403c-9.036-1.402-18.3-1.398-27.419-1.838-8.793-.424-17.597-.508-26.395-.804-18.38-.619-36.748-1.681-55.063-3.354a743 743 0 0 1-31.327-3.514l3.43.461c-14.634-1.975-29.218-4.346-43.665-7.413-13.847-2.939-27.577-6.491-41.022-10.929-7.209-2.379-14.331-5.021-21.327-7.97l3.003 1.267c-6.491-2.748-13.207-5.527-18.826-9.858l2.53 1.955c-1.778-1.409-3.405-2.96-4.807-4.747l1.951 2.526a23.3 23.3 0 0 1-2.715-4.604l1.256 2.977a23.3 23.3 0 0 1-1.592-5.748l.444 3.307a26 26 0 0 1-.007-6.379l-.444 3.302a29.8 29.8 0 0 1 2.065-7.503l-1.249 2.961c1.111-2.556 2.538-4.92 4.24-7.125l-1.934 2.503c2.586-3.281 5.655-6.152 8.955-8.703l-2.475 1.912c7.355-5.613 15.743-9.697 24.23-13.291l-2.818 1.189c11.8-4.974 23.952-8.934 36.331-12.197 13.916-3.669 28.009-6.737 42.176-9.259a582 582 0 0 1 24.329-3.795l-2.53.34c15.082-2.021 30.327-3.194 45.536-3.656 4.608-.14 9.039-3.957 8.821-8.821-.214-4.768-3.876-8.835-8.821-8.821Z"/><path d="M227.387 613.673c1.965 7.647 3.173 15.476 4.593 23.237 1.128 6.166 2.021 12.372 3.099 18.546 1.279 7.328 2.998 14.567 5.002 21.731 2.556 9.136 5.318 18.27 9.677 26.738 2.256 4.384 5.158 8.274 8.2 12.139a81 81 0 0 0 7.15 7.929c5.767 5.611 12.31 10.553 19.162 14.763 13.016 7.997 27.677 13.635 42.39 17.619 12.334 3.34 25.002 5.408 37.643 7.181 2.641.37 5.284.722 7.927 1.076l-3.603-.484c19.806 2.738 39.826 4.497 59.795 5.424 9.814.456 19.675.504 29.498.521 9.283.016 18.563.386 27.849.345 9.046-.04 18.063-.4 27.1-.704 2.868-.097 5.694-1.156 7.748-3.209 1.9-1.9 3.331-5.018 3.209-7.748-.258-5.771-4.821-11.164-10.957-10.957-8.571.289-17.208-.046-25.775-.337-9.926-.338-19.904-.634-29.8-1.48-10.561-.903-21.096-2.054-31.648-3.046-10.455-.982-20.92-1.868-31.367-2.926a987 987 0 0 1-31.616-3.708l3.583.482c-15.415-2.077-30.791-4.866-45.644-9.566a157 157 0 0 1-13.579-4.983l3.054 1.289c-8.701-3.699-17.027-8.275-24.54-14.037l2.497 1.929c-5.527-4.278-10.543-9.161-14.848-14.672l1.878 2.431c-3.531-4.571-6.236-9.597-8.478-14.909l1.183 2.804c-4.482-10.762-8.214-21.827-11.326-33.057-2.409-8.692-4.391-17.5-6.917-26.161-1.831-6.275-4.586-12.309-7.008-18.37-.787-1.968-1.708-3.579-3.606-4.689-1.682-.984-4.161-1.401-6.046-.791-4.103 1.328-6.575 5.391-5.48 9.652Z"/><path d="M283.811 732.036c.829 2.845 1.438 5.767 2.483 8.538a262 262 0 0 1 2.937 8.21c1.896 5.587 3.735 11.195 5.402 16.855 3.31 11.236 6.424 22.529 9.215 33.906 5.642 23.001 10.64 46.175 17.177 68.949 3.334 11.617 6.872 23.325 12.467 34.087 5.913 11.376 15.503 20.355 26.895 26.141 11.276 5.728 23.824 8.967 36.034 12.059a367 367 0 0 0 36.504 7.278c25.483 3.758 51.29 5.688 77.04 4.318 4.015-.214 7.96-.673 11.925-1.358 2.926-.505 6.468-3.449 7.825-6.017 1.397-2.644 1.954-5.371 1.554-8.348-.369-2.747-1.497-5.587-3.601-7.518-2.648-2.431-5.647-3.616-9.258-3.835-5.007-.304-10.01-.066-15.026-.061-4.943.005-9.891-.021-14.834-.107a407 407 0 0 1-29.914-1.623 409 409 0 0 1-16.891-1.903l3.678.494c-20.606-2.778-41.06-7.042-60.992-12.977-5.042-1.501-10.108-3.133-14.961-5.172l3.162 1.334c-3.834-1.638-7.566-3.58-10.879-6.128l2.576 1.99a43.4 43.4 0 0 1-7.516-7.591l1.954 2.529c-3.092-4.06-5.485-8.513-7.478-13.2l1.237 2.932c-4.111-9.784-7.062-20.103-9.957-30.299-3.009-10.596-5.723-21.272-8.399-31.956-2.639-10.535-5.301-21.057-8.222-31.519-2.949-10.564-6.025-21.114-9.902-31.379-2.436-6.45-5.009-12.871-7.909-19.128a261 261 0 0 0-3.895-8.048c-1.423-2.815-3.328-5.329-5.157-7.895-1.233-1.73-2.82-3.345-4.994-3.841-1.869-.426-3.667-.328-5.441.421-3.748 1.582-6.013 5.827-4.839 9.859Zm277.74-184.283c15.209.462 30.454 1.635 45.536 3.656l-2.53-.34c14.42 1.943 28.776 4.394 43.001 7.461 13.578 2.928 27.121 6.224 40.341 10.51a244 244 0 0 1 19.495 7.28l-2.818-1.189c8.487 3.593 16.875 7.677 24.23 13.291l-2.475-1.912c3.3 2.551 6.369 5.423 8.955 8.703l-1.934-2.503c1.702 2.205 3.129 4.569 4.24 7.125l-1.249-2.961a29.8 29.8 0 0 1 2.065 7.503l-.444-3.302a25.8 25.8 0 0 1-.007 6.379l.444-3.307a23.3 23.3 0 0 1-1.592 5.748l1.256-2.977a23.3 23.3 0 0 1-2.715 4.604l1.951-2.526c-1.402 1.787-3.029 3.338-4.807 4.747l2.53-1.955c-5.619 4.33-12.335 7.109-18.826 9.858l3.003-1.267c-12.59 5.307-25.585 9.611-38.761 13.207-13.962 3.811-28.133 6.834-42.39 9.306-8.26 1.432-16.555 2.677-24.863 3.798l3.43-.461c-18.507 2.485-37.109 4.213-55.743 5.394-9.074.575-18.157 1.02-27.243 1.354-8.842.325-17.708.314-26.542.763-10.191.517-20.578.432-30.676 1.999l2.999-.403c-1.761.03-3.529.255-5.288.24-5.757-.051-11.268 5.098-11.003 11.003.269 6.006 4.834 10.948 11.003 11.003 1.76.016 3.526.267 5.288.318l-2.999-.403c8.546 1.425 17.36 1.442 26.001 1.668 8.148.213 16.279.02 24.425-.224 17.149-.513 34.29-1.406 51.39-2.808 18.524-1.519 37.03-3.606 55.386-6.539 16.869-2.695 33.641-6.095 50.137-10.551 16.413-4.434 32.459-10.016 47.993-16.936 3.97-1.769 7.96-3.575 11.683-5.828 5.508-3.333 10.113-7.445 13.847-12.672 3.479-4.87 5.006-10.688 5.611-16.548a26.3 26.3 0 0 0-.083-5.985c-.367-2.952-.754-5.841-1.729-8.658-1.957-5.659-4.712-10.2-8.416-14.837-2.926-3.663-6.534-6.544-10.259-9.355-6.199-4.677-13.185-8.176-20.31-11.203-14.988-6.368-30.428-11.172-46.306-14.774-17.656-4.006-35.652-6.542-53.645-8.462-16.512-1.762-33.133-3.031-49.734-3.504a422 422 0 0 0-10.854-.172c-4.615-.013-9.034 4.067-8.821 8.821.219 4.899 3.875 8.671 8.821 8.821Z"/><path d="M746.86 609.501c-2.206 5.519-4.58 10.998-6.483 16.633-1.467 4.343-2.514 8.867-3.637 13.309-2.374 9.388-4.768 18.767-7.825 27.962-2.207 6.638-4.616 13.226-7.306 19.684l1.183-2.804c-2.242 5.312-4.947 10.338-8.478 14.909l1.878-2.431c-4.305 5.511-9.321 10.394-14.848 14.672l2.497-1.929c-7.513 5.762-15.839 10.337-24.54 14.037l3.054-1.289c-15.259 6.434-31.573 10.257-47.883 12.884a442 442 0 0 1-11.341 1.665l3.583-.482c-19.596 2.627-39.262 4.335-58.933 6.248-10.572 1.028-21.136 2.144-31.716 3.085-10.095.898-20.231 1.314-30.357 1.703-9.702.372-19.49.788-29.2.461-5.734-.193-11.216 5.178-10.957 10.957.273 6.102 4.813 10.75 10.957 10.957 7.969.269 15.922.615 23.899.684 9.174.079 18.347-.035 27.518-.256 9.797-.237 19.6-.207 29.398-.459 9.815-.252 19.61-1.002 29.386-1.87 11.364-1.01 22.738-2.121 34.041-3.683l-3.603.484c13.561-1.813 27.121-3.767 40.438-6.963 14.831-3.56 29.532-8.842 42.903-16.222 14.196-7.836 26.856-18.582 35.938-32.086 5.221-7.764 8.36-16.856 11.009-25.764 2.29-7.701 4.325-15.453 5.972-23.317 1.293-6.173 2.122-12.449 3.166-18.667 1.195-7.117 2.453-14.25 3.885-21.323.45-2.222.966-4.42 1.53-6.615 1.02-3.97-1.3-8.7-5.48-9.652-2.009-.457-4.263-.358-6.046.791-1.823 1.175-2.806 2.687-3.606 4.689Z"/><path d="M690.294 725.596c-1.591 2.232-3.401 4.455-4.649 6.897a256 256 0 0 0-3.55 7.226c-2.656 5.622-5.042 11.369-7.306 17.16-3.999 10.233-7.245 20.693-10.254 31.255-5.996 21.039-10.786 42.388-16.625 63.468-3.188 11.508-6.424 23.192-11.056 34.218l1.237-2.932c-1.993 4.687-4.386 9.14-7.478 13.2l1.954-2.529a43.4 43.4 0 0 1-7.516 7.591l2.576-1.99c-3.313 2.548-7.045 4.49-10.879 6.128l3.162-1.334c-8.952 3.761-18.476 6.33-27.859 8.76-10.111 2.619-20.332 4.794-30.611 6.644a401 401 0 0 1-17.483 2.744l3.678-.494c-19.849 2.652-39.747 3.558-59.757 3.631-5.639.021-11.28-.278-16.908.063-3.327.202-6.916 1.283-9.258 3.835-1.985 2.163-3.208 4.595-3.601 7.518-.375 2.791-.018 5.91 1.554 8.348 1.744 2.705 4.52 5.446 7.825 6.017 4.122.712 8.222 1.166 12.395 1.383q4.583.239 9.17.374c6.201.183 12.411.064 18.61-.148a405 405 0 0 0 36.692-2.924c13.324-1.675 26.579-3.793 39.676-6.777 11.715-2.669 23.506-5.684 34.813-9.778 6.028-2.183 12.057-5.012 17.332-8.691 3.035-2.117 6.051-4.415 8.729-6.981 2.599-2.491 4.83-5.366 6.933-8.276 3.72-5.149 6.278-11.011 8.683-16.855 2.098-5.097 3.77-10.362 5.389-15.627 6.958-22.633 12.166-45.789 17.61-68.82 2.698-11.416 5.548-22.803 8.887-34.05 3.361-11.324 6.643-22.637 10.835-33.694.993-2.62 1.54-5.426 2.325-8.12 1.168-4.01-1.094-8.278-4.839-9.859-1.661-.701-3.678-.992-5.441-.421-2.176.704-3.669 1.981-4.994 3.841Zm-397.128-86.304c-2.892-4.8 2.553-10.27 7.453-12.988 31.068-17.232 67.245-22.412 102.615-25.748a1224 1224 0 0 1 153.004-4.813c39.29 1.224 79.119 4.466 116.009 18.045a216 216 0 0 1 18.685 7.894c3.354 1.607 7.197 4.21 6.797 7.908-.418 3.853-5.027 5.493-8.821 6.286l-70.243 14.684c-11.144 2.33-22.299 4.661-33.577 6.217-24.399 3.366-49.136 3.075-73.764 2.777l-89.693-1.085c-21.615-.262-43.551-.569-64.29-6.669-12.418-3.653-24.569-9.4-37.513-9.322-6.29.038-13.205 1.313-18.385-2.255"/><path d="m300.462 635.027.402 1.008q-.346-1.377.035.732c-.135-1.732-.367 1.601-.066.501.286-1.047-1.17 1.79-.14.327l.288-.482q.787-1.14-.318.36c-.034-.356 1.882-2.052 2.192-2.134-.958.251-1.099.756-.298.255.689-.431 1.354-.884 2.067-1.278 2.044-1.13 4.182-2.119 6.302-3.097 1.081-.499 2.172-.974 3.259-1.459 2.217-.99-1.844.735.394-.17.656-.265 1.31-.537 1.969-.798 9.51-3.76 19.104-7.031 29.042-9.48 4.866-1.199 9.769-2.266 14.704-3.141q3.54-.627 7.095-1.172 1.957-.301 3.918-.58l1.784-.25c2.283-.32-1.93.243.172-.021 10.231-1.281 20.488-2.254 30.768-3.044 22.782-1.749 45.573-3.201 68.415-3.884s45.72-.628 68.558-.187c24.384.47 48.825 1.442 73.021 4.663l-3.115-.419c14.851 2.007 29.6 4.879 43.98 9.13 7.288 2.155 14.474 4.651 21.507 7.533q.722.295 1.442.597l-1.368-.577c.917.147 2.011.868 2.862 1.246 1.901.844 3.801 1.7 5.669 2.616a29 29 0 0 1 1.526.791q.512.287 1.007.603 1.486 1.014-.954-.817.444.358.85.757 1.216 1.317-.782-1.124.907 1.548-.479-1.409.168.493.229 1.012l-.42-3.123q.062.538.002 1.077l.42-3.123c-.017.11-.172.974-.201.956-.001 0 1.106-2.549.691-1.747-.6 1.162 1.925-2.182.955-1.284-.679.628 1.418-1.095 1.443-1.062-.033-.044-1.635 1.122-1.782 1.001-.217-.178 2.704-.852 1.576-.69-.404.058-.883.298-1.271.41-3.365.973-6.888 1.514-10.314 2.23-7.761 1.622-15.525 3.234-23.288 4.85-15.616 3.251-31.222 6.556-46.851 9.742-8.692 1.772-17.41 3.416-26.202 4.608l3.144-.422c-26.599 3.519-53.49 2.861-80.25 2.515-27.205-.352-54.408-.718-81.612-1.129-14.529-.219-29.088-.447-43.513-2.36l3.234.435c-6.278-.86-12.513-2.026-18.634-3.681-6.086-1.645-11.991-3.853-17.972-5.828-6.655-2.198-13.296-3.765-20.275-4.528-5.777-.631-11.559.403-17.321-.225l3.261.438c-1.484-.206-2.882-.536-4.28-1.079l2.929 1.236a16 16 0 0 1-2.238-1.213c-5.388-3.5-13.777-1.267-16.77 4.397-3.226 6.106-1.353 13.035 4.397 16.77 9.52 6.184 20.595 3.063 31.102 4.389l-3.268-.439c12.964 1.812 24.934 7.617 37.63 10.567 13.794 3.204 28.048 4.406 42.175 4.863 28.034.907 56.139.666 84.186.982 28.027.316 56.237 1.424 84.199-1.017 28.778-2.512 57.025-9.58 85.238-15.502l20.91-4.389q5.129-1.076 10.259-2.148c2.817-.589 5.696-1.04 8.385-2.1 4.441-1.75 8.378-4.097 10.981-8.279 2.504-4.023 3.148-9.363 1.578-13.834-2.888-8.225-10.375-11.851-17.799-15.132-13.002-5.745-26.374-10.422-40.175-13.839-13.523-3.349-27.285-5.558-41.108-7.23-26.833-3.247-53.972-3.953-80.976-4.166-28.195-.222-56.436.944-84.564 2.861-27.265 1.858-54.677 4.302-81.565 9.333-12.401 2.321-24.735 5.209-36.679 9.302-6.48 2.221-12.888 4.748-19.035 7.774-5.673 2.793-11.677 5.725-16.337 10.079-5.699 5.324-8.704 13.492-4.526 20.678 2.223 3.822 7.731 5.501 11.561 3.031 4.047-2.609 5.157-7.327 3.031-11.561Z"/><path d="M470.51 247.896c-3.354 21.251-6.053 42.652-7.926 64.086-1.823 20.864-3.07 41.902-2.905 62.852.335 42.708 4.365 85.18 11.915 127.215 4.152 23.114 9.737 45.983 12.915 69.266l-.512-3.814c1.291 9.616 2.312 19.295 2.57 28.998.127 4.773-.203 9.532-.155 14.296.049 4.872.233 9.744.265 14.618.04 5.91 4.475 10.85 10.265 11.628 6.055.814 11.007-2.851 12.99-8.48 2.205-6.261 3.848-12.919 4.334-19.551.419-5.708.523-11.44.392-17.161-.289-12.579-1.86-25.059-3.87-37.469-3.681-22.72-9.246-45.068-13.459-67.686a786 786 0 0 1-6.205-38.715l.49 3.649c-.613-4.574-1.167-9.156-1.789-13.728l.487 3.624c-3.275-24.818-5.066-49.695-6.352-74.683a784 784 0 0 1-.283-74.804c.618-14.011 1.741-27.976 3.248-41.919.445-4.117-3.524-7.708-7.246-8.208s-8.52 1.875-9.169 5.986"/><path d="M481.013 241.253a106 106 0 0 1-10.276-3.731l2.337.986c-1.395-.595-2.763-1.248-4.185-1.789l2.362.997a124 124 0 0 1-9.826-5.088l2.147 1.659c-2.345-1.919-4.893-3.178-7.494-4.684a145 145 0 0 1-5.954-3.643 167 167 0 0 1-11.319-8.011l2.275 1.757c-15.002-11.606-28.446-25.249-40.056-40.236l1.853 2.398c-10.307-13.364-19.688-27.683-26.307-43.254l1.231 2.916c-2.737-6.506-4.916-13.277-5.862-20.29l.436 3.242c-.495-3.871-.594-7.769-.111-11.646l-.435 3.24c.406-3.022 1.166-5.961 2.337-8.779l-1.228 2.91a32.7 32.7 0 0 1 4.161-7.076l-1.904 2.465c1.61-2.04 3.425-3.921 5.464-5.536l-2.464 1.903a25 25 0 0 1 5.176-3.046l-2.907 1.227c2.231-.931 4.549-1.531 6.943-1.855l-3.234.435c3.054-.368 6.116-.329 9.166.052l-3.21-.431c4.427.602 8.707 1.871 12.821 3.599l-2.842-1.199c4.889 2.1 9.421 4.823 13.643 8.055l-2.365-1.828c1.19.921 2.369 1.855 3.574 2.756l-2.359-1.822c1.291 1.06 2.623 2.07 3.948 3.087l-2.349-1.815c3.161 2.454 6.183 5.081 9.033 7.891s5.267 5.952 8.007 8.835l-1.626-2.105c2.076 2.897 4.526 5.501 6.71 8.316l-1.495-1.935c.833 1.085 1.629 2.194 2.439 3.296q2.32 3.025 1.031 1.323-.696-1.007-.151-.067c.245.626.603 1.229.89 1.837.508 1.077.946 2.191 1.466 3.261-1.275-2.623-.189-.43.056.185q.374.946.731 1.897l16.761-7.066c-2.921-4.163-5.365-8.624-7.361-13.301l.966 2.289c-2.718-6.475-4.52-13.277-5.462-20.233l.363 2.702c-1.023-7.872-1.106-15.836-.052-23.71l-.375 2.791c.991-7.113 2.869-14.064 5.652-20.687l-1.081 2.561c2.521-5.906 5.741-11.471 9.662-16.558l-1.707 2.209c3.067-3.928 6.507-7.482 10.448-10.54l-2.24 1.731c3.294-2.51 6.836-4.646 10.637-6.298l-2.675 1.129c3.11-1.311 6.341-2.297 9.683-2.793l-2.989.402c2.504-.335 5.01-.381 7.519-.075l-2.992-.402a25.8 25.8 0 0 1 6.42 1.751l-2.691-1.136a26.3 26.3 0 0 1 5.24 3.076l-2.281-1.763a28 28 0 0 1 4.909 4.954l-1.764-2.283c1.766 2.348 3.175 4.907 4.329 7.605l-1.139-2.698c2.144 5.154 3.334 10.625 4.076 16.142l-.404-3.009c1.411 10.872 1.47 21.997 1.423 32.943a409 409 0 0 1-1.818 36.668h22.828q.156-4.32.719-8.607l-.408 3.037c1.086-7.938 3.225-15.679 6.31-23.072l-1.155 2.737a95 95 0 0 1 12.039-20.693l-1.799 2.328c4.705-6.081 10.127-11.557 16.202-16.274l-2.338 1.806c4.32-3.316 8.913-6.187 13.925-8.338l-2.767 1.168c3.658-1.529 7.451-2.66 11.384-3.198l-3.086.415c2.68-.329 5.359-.368 8.039-.024l-3.091-.415a25.8 25.8 0 0 1 6.291 1.732l-2.78-1.173a24 24 0 0 1 4.826 2.831l-2.359-1.822a25.4 25.4 0 0 1 4.332 4.316l-1.824-2.361c1.619 2.113 2.911 4.415 3.957 6.86l-1.178-2.792c1.512 3.66 2.438 7.501 2.967 11.42l-.419-3.116c.778 6.16.571 12.412-.245 18.556l.42-3.129a85.5 85.5 0 0 1-5.842 21.243l1.193-2.826a86.6 86.6 0 0 1-11.129 19.025l1.859-2.406c-3.935 5.036-8.404 9.627-13.424 13.587l16.924 16.924q.812-.655 1.635-1.295l-2.426 1.875c6.206-4.768 12.994-8.688 20.203-11.73l-2.922 1.233a93.2 93.2 0 0 1 23.047-6.267l-3.317.446c6.916-.912 13.975-1.139 20.902-.224l-3.375-.454c4.845.674 9.593 1.891 14.11 3.782l-3.069-1.295c3.077 1.321 5.995 2.945 8.671 4.962l-2.621-2.025c2.137 1.652 4.07 3.533 5.729 5.666l-2.036-2.635a27.4 27.4 0 0 1 3.265 5.583l-1.316-3.118a26.3 26.3 0 0 1 1.751 6.33l-.468-3.479a27.8 27.8 0 0 1-.018 7.076l.469-3.49c-.385 2.68-1.119 5.264-2.142 7.769l1.328-3.146c-1.324 3.124-3.057 6.023-5.124 8.711l2.068-2.677a43.8 43.8 0 0 1-7.584 7.513l2.688-2.076c-3.384 2.568-7.129 4.587-11.031 6.25l3.178-1.341c-8.436 3.51-17.446 5.185-26.459 6.41l3.549-.477c-2.664.357-5.333.679-8.002.994q-2.76-.104-5.15 1.151a10 10 0 0 0-4.302 2.764c-2.318 2.318-4.064 6.122-3.915 9.451.155 3.457 1.29 7.042 3.915 9.451 2.548 2.339 5.891 4.074 9.451 3.915 9.636-.429 19.35-.854 28.945.398l-3.568-.479c5.383.749 10.699 1.991 15.733 4.07l-3.236-1.366a49.3 49.3 0 0 1 10.681 6.179l-2.761-2.133c2.745 2.138 5.226 4.559 7.366 7.305l-2.146-2.777c1.71 2.251 3.149 4.664 4.268 7.262l-1.39-3.294a30.7 30.7 0 0 1 2.026 7.344l-.495-3.681a30.6 30.6 0 0 1-.012 7.82l.497-3.697c-.417 2.901-1.216 5.699-2.339 8.405l1.409-3.338c-1.366 3.177-3.138 6.127-5.242 8.869l2.198-2.844c-2.456 3.129-5.301 5.919-8.442 8.357l2.856-2.206c-3.35 2.544-7.002 4.567-10.866 6.219l3.367-1.421c-6.155 2.564-12.641 4.087-19.237 4.976l3.74-.503c-10.575 1.368-21.318 1.256-31.953.832-11.302-.451-22.516-1.505-33.744-2.822l3.641.489c-2.971-.438-5.955-.779-8.932-1.175l3.606.484c-15.509-2.095-31.004-5.187-45.945-9.904-6.255-1.975-13.955 2.323-15.42 8.755-1.556 6.831 2.058 13.306 8.755 15.42 20.424 6.449 40.998 11.666 62.254 14.499 20.573 2.741 41.676 3.846 62.286.951 9.945-1.397 19.926-4.441 28.574-9.636 8.666-5.206 16.345-12.863 21.067-21.85 5.251-9.993 7.184-21.078 4.746-32.169-1.035-4.712-3.092-9.437-5.741-13.465s-5.797-7.836-9.49-10.939c-7.905-6.642-17.067-11.366-27.172-13.645-10.597-2.39-21.531-2.735-32.343-2.352-2.514.089-5.026.209-7.538.329v26.733c16.804-2.05 34.264-4.168 48.931-13.377 14.012-8.798 25.01-24.747 24.589-41.776-.1-4.062-.737-8.322-2.23-12.124-1.856-4.725-4.031-8.45-7.247-12.378-4.213-5.146-10.104-9.122-16.183-11.742-3.673-1.583-7.331-3.009-11.229-3.926s-7.915-1.463-11.901-1.808c-7.847-.68-15.799.146-23.538 1.442-18.048 3.021-34.864 11.431-48.8 23.161-2.227 1.874-3.505 5.658-3.505 8.462 0 2.935 1.304 6.441 3.505 8.462 2.281 2.094 5.275 3.648 8.462 3.505 3.343-.15 5.886-1.386 8.462-3.505 13.871-11.414 24.006-26.989 29.62-43.997 2.829-8.57 4.34-17.72 4.568-26.736.21-8.308-.758-17.037-3.951-24.761-2.103-5.089-4.605-9.587-8.419-13.645-3.837-4.083-8.591-6.831-13.78-8.797-8.845-3.35-19.477-2.298-28.216.845-17.531 6.307-31.793 19.496-42.266 34.635-11.055 15.981-17.286 35.32-17.925 54.716-.197 5.973 5.391 11.684 11.414 11.414 2.952-.132 6.013-1.102 8.071-3.343 2.152-2.345 3.053-4.903 3.343-8.071a409 409 0 0 0 1.703-33.891c.087-10.49-.034-21.081-1.024-31.532-.921-9.728-2.705-19.118-7.02-27.954-4.528-9.27-12.637-16.493-22.485-19.629-10.433-3.323-21.617-1-31.216 3.656-9.292 4.507-16.743 11.71-22.947 19.823-10.88 14.227-16.45 32.288-17.165 50.067-.71 17.65 4.076 35.946 13.9 50.693.54.81 1.106 1.601 1.667 2.397.626.888 1.262 1.772 1.958 2.607-1.707-2.048-.981-1.285-.607-.805.573.735 1.138 1.477 1.711 2.212 1.286 1.65 4.474 2.776 6.484 2.686 2.071-.093 3.908-.695 5.556-1.969 1.515-1.171 2.849-2.843 3.286-4.763.584-2.562.113-4.678-.924-7.066a101 101 0 0 0-4.016-8.222c-.201-.366-1.122-2.13-.44-.748.614 1.243.198.414.103.131-.301-.903-.749-1.785-1.121-2.661q-.4-.946-.814-1.885c-2.02-4.549-4.38-8.758-7.321-12.774-6.7-9.147-14.321-17.368-23.786-23.712-8.882-5.952-19.12-9.663-29.755-10.651-11.134-1.035-22.279 3.059-30.17 10.938-6.369 6.36-10.996 14.848-12.334 23.788-.678 4.531-1.057 8.945-.629 13.512.446 4.759 1.222 9.5 2.496 14.11 4.49 16.255 13.271 31.217 22.948 44.893 10.799 15.262 22.946 29.591 36.908 42.059 2.504 2.236 5.049 4.399 7.725 6.429l-2.325-1.796c9.092 7.351 18.627 14.154 28.961 19.657 9.825 5.233 20.699 8.983 31.646 11.064 2.463.468 4.859.375 7.084-.927 1.907-1.116 3.725-3.302 4.225-5.494 1.132-4.968-1.495-9.808-6.421-11.308Zm10.425 296.732q-4.965-.37-9.902-1.016l2.558.344c-2.151-.515-4.473-.542-6.678-.781a181 181 0 0 1-4.525-.551l2.678.36c-17.373-2.367-34.548-7.141-50.712-13.929l2.801 1.182c-14.069-5.947-27.355-13.656-39.463-22.972l2.509 1.939a172.6 172.6 0 0 1-30.701-30.661l2.039 2.639c-1.161-1.526-2.349-3.03-3.525-4.545l2.04 2.641c-9.447-12.228-17.271-25.655-23.299-39.882l1.321 3.131c-6.1-14.485-10.308-29.729-12.411-45.308l.47 3.501c-.583-4.395-.97-8.803-1.255-13.227l-13.179 13.179c11.674-.94 23.417-.602 35.025.941l-3.436-.462a171.7 171.7 0 0 1 43.601 11.925l-3.01-1.27a163.8 163.8 0 0 1 36.204 21.178l-2.526-1.952c10.813 8.397 20.502 18.145 28.891 28.962l-1.95-2.524a171.3 171.3 0 0 1 22.106 37.885l-1.256-2.976c5.737 13.647 9.708 28 11.712 42.67l-.445-3.309c.354 2.642.65 5.29.877 7.946s.57 5.325.666 7.983c.116 3.213 1.288 6.365 3.59 8.667 2.126 2.126 5.614 3.727 8.667 3.59 3.17-.142 6.458-1.183 8.667-3.59 2.155-2.348 3.708-5.391 3.59-8.667-.079-2.197-.013-4.392-.181-6.588s-.379-4.381-.635-6.565c-.618-5.272-1.371-10.535-2.392-15.744a168.4 168.4 0 0 0-7.023-25.199c-6.259-17.184-14.796-33.517-25.921-48.057-5.883-7.688-12.128-15.017-19.153-21.692-7.1-6.748-14.843-12.886-22.941-18.392-15.369-10.451-32.596-18.509-50.384-23.862-17.968-5.407-37.054-8.051-55.818-7.561a165 165 0 0 0-6.526.305c-3.359.222-6.949 1.279-9.319 3.86-2.298 2.504-4.035 5.817-3.86 9.319.895 17.87 4.522 35.804 10.591 52.63s14.253 32.973 24.778 47.497c5.541 7.646 11.572 14.891 18.243 21.578 6.732 6.748 14.057 12.835 21.714 18.505 14.595 10.808 30.879 19.158 47.937 25.341 17.052 6.182 35.151 9.377 53.275 9.814 2.884.07 5.668.112 8.53-.344l-2.558.344q4.962-.295 9.902-.865c2.377-.275 4.382-.786 6.139-2.543 1.506-1.506 2.64-3.976 2.543-6.139-.224-4.993-3.819-8.32-8.682-8.682ZM346.756 902.042c0 16.482 45.014 36.949 69.946 45.889 52.874 18.961 104.29 23.635 160.399 26.402 52.783 2.603 107.909-1.608 155.257-27.088 16.35-8.798 32.922-23.023 32.687-41.588-.236-18.637-17.329-32.482-34.134-40.542a166.2 166.2 0 0 0-61.57-15.988c4.201 24.013-7.4 48.915-25.49 65.255-18.09 16.341-41.821 25.155-65.675 30.182-17.936 3.78-36.451 5.623-54.631 3.279"/><path d="M338.585 902.042c-.243 6.941 3.844 13.14 8.273 18.101 5.045 5.651 11.465 10.217 17.75 14.382 14.065 9.32 29.611 16.324 45.241 22.575 41.09 16.435 85.734 23.238 129.581 27.07s88.29 5.597 131.857-2.602c21.665-4.077 42.834-10.919 62.553-20.826 18.12-9.103 37.388-23.144 42.512-43.951 2.752-11.176.976-22.793-4.598-32.818-5.265-9.47-13.595-16.925-22.466-22.931-8.905-6.03-18.998-10.339-29.045-14.058a166.6 166.6 0 0 0-32.399-8.403c-6.137-.947-12.306-1.686-18.503-2.077-3.913-.247-7.618 2.005-9.912 4.974-2.614 3.384-2.957 6.881-2.259 11.003q.165.972.307 1.949l-.451-3.355c.723 5.405.701 10.834.011 16.241l.451-3.354c-.868 6.29-2.611 12.38-5.075 18.228l1.271-3.013a82.4 82.4 0 0 1-8.802 15.534c-.387.537-.82 1.052-1.185 1.604 2.056-3.116.914-1.177.334-.457a84.5 84.5 0 0 1-9.089 9.614 96 96 0 0 1-3.456 2.977c-.629.517-1.299.998-1.912 1.533 2.805-2.447 1.01-.787.321-.278a108 108 0 0 1-7.533 5.074c-5.378 3.309-11.029 6.142-16.833 8.624l3.007-1.269c-16.255 6.858-33.761 11.098-51.218 13.448l3.299-.443c-12.303 1.603-24.733 2.008-37.071.542-2.881-.342-6.644 1.605-8.601 3.563-2.11 2.11-3.699 5.571-3.563 8.601.141 3.146 1.174 6.409 3.563 8.601 2.546 2.337 5.208 3.114 8.601 3.563 16.018 2.118 32.097.966 47.999-1.552 13.555-2.146 26.973-5.451 39.77-10.449 26.298-10.27 50.791-27.457 63.069-53.689 3.337-7.128 6.047-14.556 7.249-22.358 1.374-8.921 1.381-17.276-.122-26.187L669.34 861.75q6.086.387 12.13 1.196l-3.356-.451a169 169 0 0 1 42.491 11.673l-3.019-1.274c4.244 1.812 8.442 3.748 12.47 6.004a91 91 0 0 1 5.145 3.105 82 82 0 0 1 3.912 2.708c.413.304 2.001 1.521.231.16-1.831-1.408-.094-.051.2.191q.486.399.964.808 1.19 1.015 2.328 2.087a55 55 0 0 1 4.245 4.464c.339.4 1.532 1.928.158.135-1.422-1.855-.133-.16.102.166a38.8 38.8 0 0 1 4.359 7.739l-1.276-3.023a34 34 0 0 1 2.152 7.96l-.452-3.364c.321 2.63.327 5.245.017 7.876l.452-3.365c-.408 2.966-1.203 5.804-2.352 8.567l1.276-3.024a40.8 40.8 0 0 1-4.282 7.551c-1.194 1.675.371-.332.7-.85-.644 1.014-1.583 1.943-2.387 2.833a63 63 0 0 1-5.154 5.063c-.877.771-1.783 1.504-2.682 2.249-1.889 1.563 2.52-1.871.542-.418-.515.379-1.028.76-1.549 1.132-8.6 6.148-18.292 10.785-27.997 14.899l3.024-1.276c-20.017 8.403-41.179 13.613-62.658 16.548l3.34-.449c-19.638 2.635-39.477 3.426-59.276 3.051-20.319-.384-40.698-1.535-60.957-3.132-11.573-.913-23.125-2.087-34.632-3.625l3.139.422c-27.778-3.753-54.921-9.992-81.463-19.008a325 325 0 0 1-12.912-4.673 327 327 0 0 1-6.937-2.779c-.352-.146-2.617-1.095-.832-.344s-.502-.218-.85-.369q-1.863-.804-3.714-1.632c-9.318-4.172-18.675-8.572-27.258-14.134a87 87 0 0 1-3.049-2.064c-.513-.363-1.017-.737-1.524-1.109-1.576-1.158 1.556 1.276.032.02-.398-.328-.806-.646-1.194-.987-.215-.189-.415-.4-.632-.585l-1.814-1.401 1.154.865c-.02-.421-1.803-1.715-2.171-2.102a31 31 0 0 1-1.016-1.12c-.119-.139-.232-.285-.355-.42-.955-1.047 1.017 1.462.573.755-.448-.713-.966-1.373-1.377-2.113-.195-.352-.332-.793-.565-1.119-.048-.067.672 1.932.551 1.296-.043-.228-.177-.481-.246-.702-.101-.321-.158-.656-.258-.976-.424-1.361.203 2.392.089.654-.279-4.257-3.559-8.378-8.171-8.171-4.555.204-8.011 3.59-8.171 8.171Zm159.16-365.529c-1.4-40.882 13.658-82.096 41.082-112.448 35.498-39.287 88.44-58.552 140.776-66.587 10.949-1.681 21.976-2.937 33.046-3.341 15.029-.55 30.114.474 44.931 3.05-5.683 58.611-41.027 113.577-91.994 143.071-15.177 8.783-31.52 15.376-48.064 21.187a578 578 0 0 1-63.945 18.401c60.75-44.519 155.143-125.343 204.003-182.658-13.161 3.211-22.881 7.562-34.786 13.769-79.399 41.4-148.947 96.408-211.502 160.635a1556 1556 0 0 0-12.281 12.757"/><path d="M506.705 536.513q.129-5.586.644-11.15l-.342 2.547c.699-3.167.726-6.593 1.151-9.822l-.355 2.643c.407-3.023.97-6.015 1.347-9.039l-.367 2.728c1.896-14.021 5.783-27.78 11.266-40.813l-1.088 2.578c5.569-13.141 12.805-25.639 21.509-36.953l-1.739 2.25c8.545-11.043 18.554-20.861 29.592-29.401l-2.276 1.758c14.028-10.801 29.576-19.462 45.863-26.353l-2.725 1.15c19.425-8.18 39.831-13.839 60.536-17.676a383 383 0 0 1 18.572-2.957l-3.127.42c21.081-2.813 42.274-3.397 63.391-.586l-3.197-.43q4.52.613 9.011 1.405l-8.854-11.629a186 186 0 0 1-.69 5.861l.432-3.212c-.511 3.754-1.066 7.529-1.936 11.219-.887 3.761-1.972 7.46-3 11.18a188 188 0 0 1-7.479 21.73l1.295-3.068c-.884 1.969-1.67 3.982-2.508 5.971l1.297-3.073a193.8 193.8 0 0 1-24.934 42.654l2.023-2.618c-9.786 12.646-21.115 24.06-33.76 33.852l2.633-2.034c-14.015 10.805-29.559 19.242-45.829 26.135l3.105-1.31c-21.49 9.062-43.889 16.19-66.418 22.168-6.499 1.724-13.013 3.389-19.56 4.925L560 550.837c6.071-4.52 12.192-9.023 18.083-13.775l-2.546 1.967c13.449-10.248 26.695-20.766 39.785-31.467 6.599-5.394 12.973-11.076 19.368-16.71 6.679-5.884 13.482-11.634 20.173-17.508 13.334-11.706 26.433-23.662 39.441-35.728 12.457-11.556 24.723-23.322 36.679-35.397 10.691-10.798 21.155-21.836 31.116-33.314a471 471 0 0 0 3.325-3.874c1.628-1.917 2.711-3.834 3.052-6.372.318-2.366.016-5.01-1.317-7.076-2.722-4.222-7.589-6.327-12.533-5.1-10.72 2.66-20.977 6.777-30.917 11.561-9.423 4.536-18.682 9.487-27.8 14.606a755 755 0 0 0-53.39 32.992c-17.977 12.158-35.425 25.082-52.423 38.572-16.386 13.003-32.357 26.579-47.938 40.535-15.921 14.261-31.169 29.197-46.044 44.542-1.995 2.058-3.993 4.115-5.969 6.191-2.251 2.364-3.672 5.569-3.672 8.864 0 3.075 1.366 6.747 3.672 8.864 2.389 2.193 5.525 3.821 8.864 3.672 3.278-.147 6.544-1.236 8.864-3.672 13.796-14.485 27.806-28.726 42.172-42.647 13.849-13.42 28.077-26.427 42.875-38.795a856 856 0 0 1 25.275-20.323l-2.343 1.81c15.567-12.026 31.558-23.501 47.972-34.343 16.417-10.845 33.271-20.983 50.439-30.591 9.554-5.347 19.178-10.812 29.265-15.102l-2.64 1.114c6.388-2.644 12.92-4.812 19.64-6.447l-10.798-18.549c-13.958 16.288-28.971 31.665-44.325 46.632-17.558 17.115-35.678 33.621-54.184 49.704-10.505 9.13-21.179 18.053-31.829 27.012l2.405-1.858c-4.272 3.071-8.298 6.541-12.428 9.8-3.393 2.678-6.833 5.301-10.19 8.024a1733 1733 0 0 1-19.515 15.626 1461 1461 0 0 1-10.699 8.348l2.543-1.964a939 939 0 0 1-24.36 18.188c-2.635 1.902-5.093 4.278-5.852 7.61-.649 2.847-.499 5.588.642 8.291 1.032 2.446 2.796 4.814 5.21 6.089 3.122 1.649 6.337 2.045 9.812 1.284 20.124-4.409 39.968-10.001 59.473-16.63 19.473-6.618 38.99-14.095 56.753-24.57 14.559-8.586 28.087-19.241 39.926-31.299 11.893-12.113 22.366-25.842 30.906-40.513s15.28-30.549 19.739-46.954c.787-2.896 1.45-5.657 1.773-8.668l-.447 3.33c2.062-9.752 3.618-19.712 4.555-29.633l-.431-3.206a9.1 9.1 0 0 0-2.159-4.101c-1.472-1.905-3.799-3.906-6.264-4.322-14.062-2.374-28.297-3.672-42.562-3.466-14.132.204-28.208 1.911-42.152 4.135-21.683 3.458-43.122 8.785-63.645 16.64-10.902 4.172-21.612 8.941-31.845 14.568-10.16 5.587-19.71 12.074-28.809 19.253-8.596 6.782-16.569 14.37-23.656 22.721-7.712 9.087-14.72 18.937-20.285 29.492s-10.114 21.715-13.437 33.162c-3.349 11.535-5.634 23.592-6.105 35.598q-.075 1.923-.104 3.848c-.032 2.198.039 4.19.344 6.401l-.342-2.547q.105 5.585.597 11.15c.214 2.42.856 4.567 2.624 6.336 1.554 1.554 4.104 2.724 6.336 2.624 4.947-.222 8.846-3.936 8.961-8.961Zm-95.256-342.811a174 174 0 0 1-2.454-2.625 74 74 0 0 1-1.267-1.427 48 48 0 0 1-.549-.646c-.19-.226-.998-1.249-.198-.214 1.356 1.756-1.881-2.43-.515-.668.757.976.134.151-.019-.069a32 32 0 0 1-1.027-1.571 26 26 0 0 1-1.712-3.337l.801 1.898c-.559-1.385-.968-2.787-1.186-4.265l.29 2.162a17.2 17.2 0 0 1-.022-4.166l-.297 2.209c.175-1.251.487-2.449.968-3.617l-.854 2.023a12.7 12.7 0 0 1 1.326-2.311l-1.342 1.736a11 11 0 0 1 1.871-1.896l-1.759 1.359a12.7 12.7 0 0 1 2.603-1.497l-2.091.882a14 14 0 0 1 2.993-.767l-2.336.314c1.593-.187 3.172-.14 4.762.057l-2.35-.316c3.529.497 6.967 1.599 10.244 2.98l-2.116-.893c4.707 2.028 9.049 4.748 13.104 7.87l-1.789-1.383c3.805 2.96 7.344 6.238 10.721 9.674s6.762 6.926 9.893 10.595c1.972 2.311 5.665 3.016 8.48 2.241 3.05-.84 5.111-3.158 6.087-6.087a108 108 0 0 1 2.929-7.812l-.894 2.118c2.452-5.741 5.287-11.271 9.112-16.229l-1.39 1.799c2.352-3 4.998-5.741 8.004-8.092l-1.796 1.388a41.3 41.3 0 0 1 8.923-5.231l-2.116.893c2.806-1.164 5.715-1.996 8.722-2.435l-2.351.316a31 31 0 0 1 8.19-.031l-2.348-.316c2.227.326 4.375.896 6.45 1.771l-2.108-.889c1.88.825 3.621 1.893 5.25 3.14l-1.798-1.389a27.8 27.8 0 0 1 4.584 4.563l-1.402-1.815a25.7 25.7 0 0 1 3.256 5.492l-.912-2.161a22.6 22.6 0 0 1 1.503 5.392l-.326-2.424c.227 1.762.23 3.512-.003 5.274l.328-2.442c-.288 1.898-.821 3.718-1.545 5.494l.933-2.212c-1.339 3.157-3.21 6.028-5.215 8.798-2.044 2.824-4.075 5.697-6.201 8.457l1.493-1.932c-.984 1.262-1.974 2.521-2.911 3.82l-.983 2.33a7.4 7.4 0 0 0-.174 3.89c.275 2.047 1.116 4.162 2.683 5.601a11.6 11.6 0 0 0 4.304 2.509c2.207.714 5.572.317 7.516-.983 6.44-4.306 13.043-8.382 20.19-11.428l-2.477 1.046a86.7 86.7 0 0 1 21.975-6.005l-2.786.374c4.812-.625 9.687-.918 14.515-.293l-2.805-.377c2.497.356 4.924.965 7.261 1.921l-2.529-1.067a23 23 0 0 1 4.861 2.829l-2.148-1.66a21.4 21.4 0 0 1 3.652 3.657l-1.663-2.153a18.3 18.3 0 0 1 2.19 3.773l-1.074-2.546c.453 1.133.776 2.287.966 3.493l-.381-2.837c.168 1.284.172 2.552.027 3.838l.382-2.841a18 18 0 0 1-1.24 4.478l1.079-2.557a22.4 22.4 0 0 1-2.604 4.412l1.677-2.171a26 26 0 0 1-4.535 4.517l2.176-1.681c-2.977 2.261-6.294 3.956-9.722 5.422l2.579-1.088a103 103 0 0 1-6.03 2.345c-2.57.897-5.159 2.48-6.483 4.985-1.158 2.191-1.619 4.45-1.287 6.917.727 5.414 5.205 9.212 10.654 9.406 3.005.107 6.001.337 8.982.729l-2.954-.397c5.502.756 10.913 1.891 16.06 4.023l-2.694-1.137c3.169 1.347 6.183 3.02 8.921 5.113l-2.295-1.773a35.6 35.6 0 0 1 6.241 6.273l-1.784-2.309a33 33 0 0 1 4.04 6.924l-1.158-2.743a28.4 28.4 0 0 1 1.899 6.884l-.413-3.07a25.8 25.8 0 0 1-.008 6.399c-.335 2.742 1.538 6.346 3.4 8.207 2.013 2.013 5.316 3.529 8.207 3.4 3.002-.134 6.115-1.121 8.207-3.4l1.815-2.349a11.56 11.56 0 0 0 1.585-5.858c.374-3.064-.014-6.059-.469-9.098a28 28 0 0 0-1.57-5.994c-2.22-5.713-5.18-10.661-9.377-15.174-7.266-7.814-17.537-12.723-27.903-14.806-6.172-1.24-12.448-1.686-18.733-1.54l2.884 21.307c4.834-2.012 9.813-3.762 14.354-6.404 5.106-2.971 9.348-6.843 12.723-11.677 3.123-4.474 5.02-10.335 4.862-15.807-.078-2.699-.508-5.511-1.528-8.028-1.394-3.441-2.928-6.004-5.303-8.884-3.47-4.209-8.312-6.931-13.32-8.868-2.532-.979-5.15-1.456-7.829-1.816-2.696-.362-5.359-.597-8.083-.537-9.471.208-19.162 2.124-28.062 5.357-10.581 3.843-20.763 9.165-28.935 17.022l15.32 11.821c1.973-4.092 4.9-7.612 7.43-11.364 2.819-4.178 5.355-8.822 6.493-13.767 2.492-10.821-1.351-22.085-9.427-29.621-3.984-3.718-8.731-6.519-13.934-8.155-5.538-1.742-11.302-1.716-16.978-.904-10.177 1.457-19.845 7.213-26.795 14.668-8.248 8.848-13.431 19.844-16.804 31.357l14.567-3.846c-4.694-5.108-9.117-10.388-14.209-15.123-5.446-5.063-11.443-9.812-18.093-13.196-7.781-3.959-16.433-6.739-25.213-5.135-9.464 1.729-15.501 11.035-14.967 20.322.279 4.855 1.835 9.496 4.624 13.495 2.688 3.854 5.93 7.165 9.333 10.377 2.827 2.669 7.738 3.015 10.505 0s2.86-7.492 0-10.505Z"/></svg>