<?xml version="1.0" encoding="UTF-8"?><svg xmlns="http://www.w3.org/2000/svg" data-name="ARTWORK" viewBox="0 0 1000 1000"><path d="M325.883 521.219c14.404-85.04 21.358-171.174 30.552-256.871 4.29-39.992 8.365-79.896 15.517-119.419.802-4.43 1.755-8.845 3.131-13.136 1.12-3.492 3.06-7.63 4.855-9.76 5.522-6.553 14.999-6.508 24.021-6.363 25.929.417 51.857.945 77.784 1.469 103.079 2.083 206.149 4.545 309.219 7.033q38.887.939 77.773 1.929c20.398.519 40.004-.392 58.672 5.796 6.841 2.268 13.125 5.805 18.321 11.79 2.035 2.344 5.505 7.2 8.859 10.346 2.76 2.589 5.898 4.821 8.365 7.71-.238-.279-1.591-2.05-.335-.254 1.612 2.305-.491-1.578.045.131.226.721.214 2.698.161.522a33 33 0 0 1-.067 3.289c-.442 5.885-1.585 11.781-2.42 17.623a4400 4400 0 0 1-5.563 37.751c-14.471 95.381-32.089 190.239-49.884 285.044-4.278 22.793-8.324 45.641-12.785 68.399-4.059 20.709-9.894 41.18-23.383 57.554-12.759 15.489-28.703 27.41-45.284 38.407-19.657 13.037-39.477 25.757-58.84 39.239-39.024 27.173-77.553 54.906-118.457 79.239-17.335 10.312-35.347 20.805-55.647 22.948-22.323 2.357-44.653-1.046-66.547-5.21-22.727-4.322-45.297-8.445-68.216-11.637-25.321-3.527-50.586-7.443-75.802-11.657-50.602-8.456-100.976-18.155-151.234-28.448-49.58-10.154-99.101-20.595-148.646-30.92-6.091-1.269-12.203-2.464-18.28-3.802-2.103-.463-4.185-.988-6.224-1.684.117.04-3.538-1.44-1.779-.648 1.294.582-2.164-1.175-2.524-1.384-.635-.369-1.238-.805-1.875-1.166-2.93-1.664 1.659 1.742-.748-.527a87 87 0 0 1-3.346-3.319c-.562-.59-1.709-2.508-.192-.18-.476-.73-.975-1.44-1.428-2.186-.522-.861-2.801-5.845-1.726-3.043-1.366-3.562-2.196-7.175-2.98-10.896-.779-3.697.143 1.669-.122-.649a88 88 0 0 1-.299-3.072 102 102 0 0 1-.3-7.694c-.007-1.96 0-3.927.164-5.881.183-2.189-.907 2.779.161-.71.232-.758.38-1.545.614-2.304.128-.413 1.683-3.732.408-1.244.359-.701.71-1.401 1.102-2.084a41 41 0 0 1 1.922-2.993c-1.272 1.829.576-.661.981-1.111A52 52 0 0 1 48 662.854a53 53 0 0 1 1.941-1.624c-1.9 1.506 1.492-1.036 1.514-1.051 3.82-2.639 7.86-4.949 11.998-7.049a125 125 0 0 1 5.418-2.61c-.065.029 3.933-1.706 1.815-.813a159 159 0 0 1 2.419-.989c4.846-1.952 9.739-3.788 14.601-5.698 20.522-8.061 40.903-16.478 61.158-25.187 40.947-17.605 81.397-36.501 120.706-57.532 18.198-9.737 35.524-20.458 53-31.391 12.934-8.092 1.021-28.658-11.992-20.516-18.464 11.551-38.081 21.783-57.326 31.967-20.664 10.934-41.644 21.268-62.82 31.17-40.093 18.749-80.504 35.546-121.71 51.636-18.53 7.235-37.762 15.988-49.405 32.896-5.895 8.561-7.68 18.551-7.529 28.761.133 9.023 1.113 18.497 4.257 27.009 3.11 8.42 7.716 16.294 14.702 22.087 8.119 6.733 17.427 10.154 27.653 12.273 25.952 5.377 51.893 10.811 77.841 16.207 103.112 21.444 206.636 41.874 311.019 56.144 23.802 3.254 47.11 7.392 70.965 11.826 23.411 4.351 47.601 8.227 71.459 5.841 11.555-1.156 22.519-3.5 33.252-7.952 11.182-4.638 21.795-10.359 32.218-16.495 21.106-12.423 41.707-25.643 61.928-39.457 20.088-13.724 39.85-27.917 59.805-41.832 19.77-13.785 40.067-26.725 60.041-40.197 17.851-12.04 35.581-25.266 49.174-42.141 15.193-18.861 23.511-40.619 28.565-64.139 10.097-46.989 18.12-94.53 26.905-141.78 9.109-48.989 17.859-98.048 25.967-147.213a4980 4980 0 0 0 11.947-75.971 4378 4378 0 0 0 5.609-38.811c1.537-10.993 4.302-22.644-2.502-32.495-2.318-3.355-5.198-5.912-8.249-8.56-3.8-3.299-6.734-6.766-9.798-10.615-6.01-7.548-14.06-13.205-22.884-17.001-19.41-8.35-40.738-8.855-61.547-9.372-106.856-2.657-213.72-4.888-320.591-6.835-52.925-.964-105.893-2.519-158.826-2.722-12.498-.048-24.676 1.997-34.324 10.497-7.653 6.743-11.98 16.796-14.519 26.465-2.444 9.309-3.608 18.987-5.02 28.493a1636 1636 0 0 0-4.514 32.779c-11.356 88.761-17.128 178.107-27.354 266.986-2.239 19.457-4.727 38.884-7.702 58.243-.791 5.146 1.304 10.38 6.742 11.874 4.634 1.273 10.998-1.573 11.874-6.742Z"/><path d="M40.187 678.882c2.049 1.149 4.129 2.687 6.364 3.398 2.255.717 4.771.971 7.094 1.445q6.6 1.345 13.202 2.687 12.996 2.64 25.995 5.263c17.617 3.553 35.261 6.966 52.908 10.365 35.605 6.857 71.238 13.57 106.91 20.072 35.834 6.532 71.706 12.851 107.636 18.833 35.798 5.96 71.643 11.636 107.544 16.943 35.926 5.311 71.924 10.661 108.078 14.144 4.43.427 8.901.186 13.344.052 8.067-.243 9.945-11.975 1.925-14.22-4.269-1.195-8.532-2.511-12.919-3.187-4.255-.656-8.51-1.307-12.763-1.97-4.93-.769-9.863-1.47-14.809-2.128-4.453-.592-7.05-.942-11.953-1.611a4839 4839 0 0 1-53.362-7.587 6200 6200 0 0 1-106.917-16.738c-35.935-5.954-71.827-12.172-107.681-18.591-35.732-6.398-71.425-13.015-107.089-19.784-35.077-6.658-70.144-13.368-105.212-20.072-2.202-.421-4.4-.883-6.609-1.266-1.759-.305-3.992-.275-5.13-.083.717-.121-.905.147-.825.135-.672.096-1.353.16-2.027.24-3.261.386-6.144 2.011-7.07 5.383-.848 3.086.547 6.698 3.37 8.28Z"/><path d="M597.469 771.976c18.04-10.562 35.93-21.369 53.626-32.499 16.837-10.591 33.582-21.331 50.282-32.137 17.27-11.174 34.549-22.311 52.028-33.157 17.673-10.967 35.392-21.865 52.805-33.243 17.466-11.413 34.608-23.332 50.935-36.335.898-.715 1.84-1.403 2.686-2.178 1.239-1.136 2.304-2.969 3.32-4.374l.889-2.106a6.7 6.7 0 0 0 .157-3.516c-.249-1.85-1.008-3.762-2.425-5.063a10.5 10.5 0 0 0-3.891-2.268c-2.315-.749-4.699-.092-6.794.889q-.865.406-1.734.807c-1.22.564-2.203 1.344-3.264 2.193-1.013.811-2.014 1.638-3.027 2.45a454 454 0 0 1-6.197 4.872l1.939-1.498c-15.293 11.797-31.257 22.697-47.429 33.246-16.425 10.714-33.091 21.051-49.702 31.471-16.522 10.365-32.863 20.994-49.177 31.682-15.801 10.352-31.516 20.832-47.373 31.099-16.333 10.575-32.746 21.031-49.292 31.269a2407 2407 0 0 1-6.701 4.131c-3.68 2.261-5.418 7.495-2.963 11.302 2.423 3.758 7.311 5.3 11.302 2.963"/><path d="M863.951 592.296c6.562-29.892 10.97-60.209 14.629-90.579 3.624-30.085 6.796-60.228 10.297-90.329.857-7.37 1.757-14.736 2.72-22.093q.203-1.545.408-3.089c-.22 1.658.056-.409.134-.984q.391-2.865.797-5.729.78-5.506 1.62-11.004c2.31-15.093 4.962-30.137 7.662-45.165 2.708-15.076 5.519-30.134 8.328-45.192 2.784-14.925 5.196-29.911 7.87-44.856 5.489-30.678 10.667-61.444 14.741-92.346q.736-5.59 1.415-11.186c.62-5.104-4.946-10.009-9.792-9.792-5.755.258-9.228 4.316-9.792 9.792q-1.177 11.414-2.585 22.802c-.46 3.72-.94 7.438-1.43 11.154-.012.092-.208 1.566-.069.527l-.071.529-.366 2.68q-.399 2.902-.81 5.805c-2.147 15.17-4.675 30.276-7.323 45.366-5.241 29.869-11.344 59.584-16.769 89.423-5.522 30.369-10.625 60.778-14.39 91.421-3.655 29.748-6.084 59.64-9.306 89.438a2032 2032 0 0 1-2.56 22.549q-.66 5.52-1.362 11.034a1158 1158 0 0 1-.687 5.29c-.057.428-.346 2.576-.152 1.144l-.422 3.086c-2.072 14.98-4.462 29.918-7.348 44.763a674 674 0 0 1-2.215 10.902c-.942 4.453 1.309 9.643 6.094 10.732 4.409 1.004 9.686-1.326 10.732-6.094Z"/><path d="M325.475 530.723c68.766 10.532 137.667 19.862 206.678 28.642 68.625 8.73 137.258 17.391 205.838 26.468 19.042 2.52 38.087 5.014 57.126 7.56l3.115.417 2.076.278q1.833.246.487.065 3.632.488 7.265.979 7.265.98 14.528 1.972 14.526 1.982 29.046 4.004c5.121.713 10.919-1.241 12.216-6.936 1.064-4.671-1.432-11.46-6.936-12.216-69.355-9.533-138.811-18.236-208.307-26.669-68.627-8.328-137.239-16.778-205.859-25.161-38.429-4.695-76.877-9.234-115.299-13.987-3.611-.447-6.903 3.167-7.292 6.438-.393 3.303 1.624 7.581 5.319 8.147Zm106.777-365.804c32.235 2.522 64.479 2.137 96.775 2.685 8.171.139 16.342.287 24.511.489q2.84.07 5.678.15c1.106.031 2.212.056 3.317.097.391.014.782.036 1.172.049 1.509.05-.289.188-.557-.089.27.28 1.559.359 1.966.484.32.098.632.23.951.326 1.023.305-.79-.286-.823-.349.174.332 1.4.746 1.748.96.007.004 1.082.609 1.107.745-.033-.179-1.552-1.367-.463-.296.481.473.978.924 1.435 1.423.229.251.438.521.668.77.738.801-.542-.638-.541-.696-.007.383.905 1.377 1.115 1.739.478.826.861 1.694 1.304 2.538 2.03 3.867 5.395 7.194 9.144 9.404 7.115 4.194 15.573 4.837 23.643 4.806 16.203-.06 32.408-.428 48.61-.668 4.033-.06 8.07-.073 12.102-.182 4.38-.119 9.098-.724 12.825-3.23 3.755-2.525 5.865-5.924 7.675-9.936.28-.621.612-1.212.904-1.825.759-1.593-1.339 1.153-.1.029.204-.185.513-.434.673-.655.587-.814-.703.73-.897.669.168.053 1.68-.946 1.902-1.084.896-.563-.942.505-1.026.441.039.03 1.304-.417 1.234-.397a24 24 0 0 1 1.926-.462c.328-.065.662-.107.99-.175 1.14-.235-1.124.145-1.101.147.745.071 1.621-.147 2.375-.188 3.013-.162 6.038-.069 9.054-.04q9.822.094 19.643.228c13.9.185 27.8.404 41.699.633 27.723.455 55.446.96 83.171 1.244 3.159.032 6.319.032 9.477.109l-2.72-20.094c-5.34.729-7.779 6.811-9.007 11.277-1.102 4.006-1.895 8.112-2.532 12.214-1.946 12.545-3.537 25.164-4.831 37.791-.997 9.73-2.249 19.423-3.53 29.122-.045.343-.146.733-.143 1.079 0-.149.448-3.243.222-1.656-.066.461-.127.923-.197 1.384-.675 4.431-1.456 8.848-2.185 13.27-1.807 10.97-3.611 21.94-5.402 32.913-6.779 41.516-13.461 83.061-19.528 124.688-2.632 18.058-4.983 36.144-6.832 54.301-1.325 13.016-2.497 26.086-2.791 39.172a206 206 0 0 0-.036 7.211c.005.372-.046 2.96-.062 2.956-.537-.128.593-2.488.062-.773a58 58 0 0 0-.515 1.79c-.426 1.56 1.159-2.559.04-.347-.379.75-1.386 1.399.583-.692-1.188 1.262.754-.536.958-.591-.352.095-1.182.602-1.494.866 1.479-1.252 2.163-.86.768-.458-1.11.319-1.816-.114.913-.016-.831-.03-1.692.136-2.531.14-2.224.012-4.442-.235-6.649-.486-5.33-.607-10.675-1.068-16.015-1.577-21.057-2.011-42.074-4.644-63.059-7.297-4.699-.594-9.397-1.205-14.094-1.812-.69-.089-2.241-.292.883.119-1.262-.166-2.52-.341-3.782-.503q-1.796-.228-3.593-.454-3.37-.427-6.737-.859a5678 5678 0 0 1-25.619-3.354c-16.382-2.179-32.757-4.407-49.144-6.542-16.5-2.15-33.013-4.197-49.55-6.035-19.052-2.118-38.17-3.634-57.255-5.414-22.214-2.072-44.397-4.567-66.53-7.375q-3.923-.498-7.844-1.014l-1.736-.23c-.077-.01-2.927-.394-1.155-.154s-1.069-.146-1.148-.157l-2.584-.355q-8.086-1.116-16.156-2.337c-2.502-.379-5.005-.755-7.502-1.163-1.049-.172-2.084-.352-3.104-.66-1.892-.571.116-.459.377.266-.098-.273-1.566-.798-1.809-.942-.339-.202-.796-.617-1.141-.739 1.597.569 1.355 1.198.61.431-.382-.393-.786-.82-1.193-1.186-1.025-.921 1.287 2.277.26.344-.139-.262-.5-1.007-.671-1.155 1.047.904.601 1.931.312.727-.04-.169-.768-2.217-.294-.764.429 1.316-.053-1.205-.056-1.682-.034-5.717 1.148-11.546 1.847-17.211q1.072-8.694 2.121-17.39a7548 7548 0 0 1 4.259-34.49 6733 6733 0 0 0 8.428-70.37 7510 7510 0 0 0 14.696-140.018c1.083-11.335 2.162-22.671 3.169-34.013.497-5.601-5.286-10.963-10.72-10.72-6.233.279-10.188 4.72-10.72 10.72-4.189 47.21-8.617 94.392-13.677 141.518a6894 6894 0 0 1-7.937 70.535 6648 6648 0 0 1-5.832 48.01l-.288 2.3-.173 1.379.057-.446c-.816 5.795-1.59 11.597-2.397 17.393q-1.239 8.895-2.503 17.787c-.996 7.003-2.467 13.936-1.268 21 1.108 6.528 5.211 11.848 10.465 15.654 4.428 3.208 9.446 4.367 14.732 5.188 22.535 3.502 45.171 6.356 67.829 8.927 39.462 4.478 78.998 8.291 118.417 13.147 8.162 1.005 16.32 2.052 24.474 3.124a5433 5433 0 0 1 11.324 1.504l1.597.215 2.558.345 6.41.868c17.752 2.409 35.5 4.843 53.263 7.169 19.202 2.515 38.439 4.746 57.693 6.824 10.915 1.178 21.841 2.244 32.763 3.362 5.586.572 11.186 1.094 16.76 1.766 5.042.608 9.712 1.018 14.771.195 6.107-.993 11.533-5.035 14.491-10.429 2.737-4.992 3.191-10.451 3.151-16.017-.039-5.466.167-10.933.468-16.39.815-14.798 2.323-29.559 3.996-44.282 2.101-18.492 4.299-36.975 6.674-55.434q.975-7.578 1.982-15.151c.179-1.351.355-2.703.54-4.054.269-1.962-.009-.008-.035.331.053-.683.189-1.369.285-2.048q.554-3.916 1.114-7.833a6331 6331 0 0 1 4.738-32.476c3.279-22.102 6.651-44.19 10.043-66.275 1.799-11.712 3.592-23.393 4.98-35.158q.442-3.75.888-7.501.247-2.083.499-4.166.067-.566.138-1.133c.142-1.109.424.141-.127 1.188.308-.586.257-1.667.357-2.317q.724-4.685 1.468-9.365c.117-.735.238-1.469.349-2.205.137-.912.32-2.125.424-3.159-.318 3.154-.215 1.703-.095.942.259-1.637.489-3.278.737-4.917.903-5.946 1.841-11.887 2.88-17.811.574-3.275 1.226-6.527 1.658-9.825.026-.202-.513 3.121-.211 1.705.048-.227.08-.46.12-.689q.145-.824.298-1.646c.183-.981.374-1.961.583-2.937.284-1.324.617-2.627.994-3.927.073-.252.186-.491.261-.742.329-1.102-1.438 3.012-.779 1.87.577-1 .571-.302-1.307 1.607-.399.406-3.235 2.261-4.188 2.42 5.003-.834 7.941-6.657 7.328-11.224-.666-4.956-4.921-8.898-10.047-8.87-27.265.147-54.577-.839-81.836-1.373-14.219-.278-28.438-.556-42.657-.801q-9.918-.17-19.837-.308c-6.216-.086-12.504-.424-18.714-.104-7.509.387-15.827 2.144-21.066 8.031-2.485 2.793-3.575 5.678-5.278 8.873-.154.29-.359.569-.5.863-.581 1.212 1.34-1.539.403-.57-.762.789.72-.577.734-.586.062-.037 1.987-.584.9-.359-.395.082-2.668.579-1.056.326 1.495-.235.258-.051-.057-.044-.485.01-.971.042-1.457.054-16.198.404-32.415.411-48.617.615-4.032.051-8.063.138-12.095.201-1.729.027-3.459.038-5.187-.026a51 51 0 0 1-2.386-.14c-.395-.033-.788-.083-1.183-.116-1.47-.124 1.853.407.435.034-1.519-.399-3.009-.725-4.505-1.224-1.157-.386.698.278.697.278-.219.032-1.297-.706-1.378-.748-.198-.103-1.325-.807-.18-.047 1.13.75-.15-.186-.385-.418-.055-.055-.803-.81-.783-.83l.342.445q.916 1.192-.467-.602l-.809-1.047.743.845c.013-.01-.499-.892-.541-.966-1.114-1.959-2.465-3.763-3.907-5.496-4.968-5.968-12.189-9.406-19.829-10.167-3.799-.379-7.728-.073-11.542-.032q-6.136.069-12.273.169c-32.231.521-64.532.877-96.738-.778q-6.141-.316-12.275-.743c-4.538-.315-8.878 4.216-8.678 8.678.224 5.005 3.818 8.298 8.678 8.678ZM305.948 664.321c12.452-7.189 29.044-19.191 41.495-26.381 2.877-1.661 5.827-3.35 9.096-3.942 2.852-.517 5.781-.168 8.657.189A2034 2034 0 0 1 500 655.503a250 250 0 0 1-40.659 33.717c-3.426 2.277-7.012 4.511-11.045 5.318-3.855.771-7.837.182-11.72-.428-45.254-7.113-94.167-12.147-138.907-21.988l3.918.031"/><path d="M310.258 671.694c7.457-4.174 14.626-8.849 21.821-13.454 3.7-2.368 7.365-5.059 11.278-7.06a181 181 0 0 1 11.264-5.268l-2.503 1.056c2.494-1.047 5.132-2.065 7.818-2.454l-2.921.392c2.259-.255 4.493-.07 6.739.222l-2.955-.397c7.841 1.067 15.685 2.108 23.527 3.161l-2.989-.402a2041 2041 0 0 1 115.645 18.954l-5.008-18.968a253 253 0 0 1-25.988 23.146l2.303-1.779a254 254 0 0 1-10.768 7.874c-3.584 2.477-7.199 5.076-11.221 6.8l2.724-1.149c-1.521.619-3.065 1.074-4.689 1.33l3.032-.407c-2.667.35-5.326.17-7.983-.177l3.034.408c-9.196-1.267-18.36-2.804-27.551-4.119-9.249-1.324-18.504-2.602-27.757-3.898-18.573-2.6-37.137-5.345-55.606-8.613a794 794 0 0 1-15.37-2.869 337 337 0 0 1-7.694-1.625c-2.522-.558-5.069-1.331-7.625-1.7l-3.149 23.27 3.918-.353c3.098-.279 5.839-1.091 8.105-3.357 1.988-1.988 3.485-5.25 3.357-8.105-.133-2.964-1.107-6.039-3.357-8.105l-2.32-1.792a11.4 11.4 0 0 0-5.785-1.565l-3.918-.416c-2.714-.288-6.574 1.506-8.377 3.47s-2.903 4.158-3.258 6.802c-.786 5.848 2.784 11.301 8.486 12.998 3.414 1.016 7.118 1.461 10.619 2.113 3.579.667 7.153 1.359 10.734 2.011a929 929 0 0 0 21.291 3.607c14.356 2.272 28.754 4.245 43.151 6.234s28.824 3.941 43.212 6.081c3.496.52 6.988 1.06 10.481 1.598 4.418.681 8.889 1.46 13.361.913 2.572-.314 4.909-.649 7.313-1.58 2.434-.942 4.805-1.996 7.05-3.326 2.955-1.75 5.779-3.741 8.587-5.715 13.496-9.487 26.189-20.141 37.707-31.955 2.835-2.908 4.005-7.098 2.919-11.042-.986-3.58-4.132-7.199-7.926-7.926a2038 2038 0 0 0-99.528-16.542c-11.923-1.679-23.864-3.448-35.838-4.716-3.119-.33-6.299-.816-9.439-.521-4.512.423-8.677 1.463-12.541 3.94-4.802 3.079-9.274 6.763-13.725 10.316l1.846-1.426c-5.359 3.892-11.005 7.458-16.488 11.176-5.151 3.492-10.323 6.965-15.664 10.162-3.832 2.294-5.58 7.779-3.063 11.683 2.544 3.947 7.51 5.399 11.683 3.063Z"/><path d="M894.262 638.462a242.3 242.3 0 0 1 65.724 20.725c3.29 1.583 6.653 3.327 8.912 6.195 6.292 7.99 1.128 19.687-4.881 27.892-17.982 24.554-42.436 43.519-67.137 61.297-50.014 35.997-102.413 68.531-154.765 101.034-26.525 16.468-53.928 33.277-84.719 38.445-20.735 3.48-41.997 1.472-62.78-1.706-53.448-8.174-105.399-23.967-157.005-40.103-87.318-27.303-174.278-55.735-261.235-84.165-32.818-10.73-99.669-30.166-132.487-40.896 151.481 54.424 347.16 81.542 507.108 99.569 17.425 1.964 35.134 3.921 52.409.912 20.207-3.52 38.59-13.613 56.385-23.814a2053 2053 0 0 0 241.953-162.556"/><path d="M891.523 648.396c17.535 3.286 34.807 8.362 51.237 15.341a197 197 0 0 1 12.079 5.613c1.4.711 2.97 1.375 4.198 2.361-.695-.559.9.889.817.793-.39-.449.476 1.802.242.637-.35-1.745-.113 2.887.076 1.669-.201 1.299-.713 2.966-1.117 3.98-1.32 3.311-3.813 6.866-6.106 9.857-20.923 27.292-50.187 47.369-78.121 66.787-31.626 21.985-64.119 42.647-96.714 63.154a7255 7255 0 0 1-47.817 29.841c-14.701 9.091-29.655 18.212-45.651 24.873-16.762 6.98-34.164 10.531-52.32 10.361-18.976-.178-37.829-3.268-56.43-6.793-37.963-7.195-75.184-17.762-112.108-29.039-75.789-23.145-151.13-47.776-226.491-72.267-30.741-9.991-61.412-20.138-92.409-29.312-27.466-8.129-54.876-16.382-82.133-25.184-5.258-1.698-10.539-3.325-15.791-5.044-5.937-1.942-12.63 2.26-14.229 8.079-1.764 6.418 2.178 12.109 8.079 14.229 53.755 19.313 109.058 34.081 164.794 46.429 58.411 12.94 117.396 23.2 176.565 31.986 57.272 8.504 114.755 15.787 172.312 22.076 16.8 1.836 33.497 2.998 50.278.315 15.51-2.48 30.207-8.817 44.051-16.044 28.185-14.712 55.353-31.78 82.288-48.641 54.468-34.097 107.469-70.459 158.61-109.378a2178 2178 0 0 0 20.234-15.582c4.946-3.856 4.047-12.361 0-16.407-4.882-4.882-11.449-3.866-16.407 0A2056 2056 0 0 1 739.427 742.27c-26.552 17.031-53.575 33.336-80.926 49.049-12.864 7.391-25.825 15.118-39.825 20.182-14.695 5.316-29.391 6.668-44.927 5.739-28.251-1.69-56.551-6.001-84.635-9.448s-56.096-7.119-84.083-11.133c-58.404-8.377-116.643-18.115-174.38-30.302-55.641-11.744-110.948-25.675-164.878-43.803a1042 1042 0 0 1-18.812-6.529l-6.15 22.308c26.769 8.713 53.953 16.117 80.818 24.532 29.845 9.348 59.538 19.134 89.255 28.879 78.343 25.689 156.753 51.191 235.462 75.739 37.995 11.85 76.219 23.224 115.242 31.21 39.527 8.09 81.226 15.034 120.406 1.707 36.372-12.372 68.735-35.533 101.077-55.719 33.676-21.018 67.044-42.569 99.598-65.295 30.103-21.015 61.663-42.519 84.777-71.469 11.108-13.913 24.597-35.789 8.7-51.708-6.493-6.502-16.386-9.703-24.704-13.071a227 227 0 0 0-27.159-9.054c-8.984-2.374-18.093-4.198-27.284-5.558-5.497-.813-11.073 1.37-12.673 7.196-1.38 5.022 1.699 11.643 7.196 12.673Z"/></svg>