<?xml version="1.0" encoding="UTF-8"?><svg xmlns="http://www.w3.org/2000/svg" data-name="ARTWORK" viewBox="0 0 1000 1000"><path d="M597.402 18.645c-37.28-1.347-74.434-4.897-111.775-4.447-32.643.393-65.319 2.826-97.404 9.042-34.395 6.664-70.584 16.655-97.936 39.531-26.824 22.435-36.942 56.97-44.156 89.826-8.579 39.068-20.151 77.162-33.317 114.915-12.842 36.822-25.562 73.903-40.342 110-1.958 4.783-2.435 5.913-4.352 10.321a576 576 0 0 1-5.668 12.629c-3.876 8.363-7.965 16.628-12.316 24.754-8.575 16.016-18.18 31.5-29.105 46.025.057-.076-2.563 3.341-1.204 1.592q-.808 1.037-1.628 2.067a286 286 0 0 1-4.155 5.107c-3.216 3.861-6.727 7.532-8.863 12.134-4.574 9.855-5.106 21.213-.341 31.118 4.058 8.436 12.313 13.732 19.913 18.674 6.3 4.096 12.796 7.888 19.429 11.417 6.882 3.661 13.909 7.046 21.038 10.197q2.598 1.147 5.213 2.255c.171.073 5.44 2.314 2.099.895 1.776.755 3.552 1.495 5.34 2.217a437 437 0 0 0 11.319 4.391c15.359 5.704 31.039 10.58 46.876 14.772 32.871 8.7 66.559 14.318 100.255 18.653 32.969 4.242 66.155 6.748 99.35 8.345 36.706 1.766 73.498 2.134 110.214.451 72.977-3.345 145.974-14.797 215.241-38.439 36.098-12.321 71.224-27.758 104.608-46.216 8.35-4.617 17.582-8.99 24.756-15.36 7.35-6.525 9.958-15.768 8.529-25.24-2.151-14.264-14.615-25.135-23.791-35.285-2.512-2.779-4.876-5.69-7.211-8.618-.076-.095-2.763-3.528-1.1-1.373a285 285 0 0 1-6.184-8.375c-5.16-7.263-9.976-14.767-14.487-22.45-9.143-15.572-17.013-31.847-24.462-48.283-8.603-18.982-15.216-34.631-22.843-53.706-7.504-18.767-14.606-37.687-21.512-56.68-13.989-38.469-26.857-77.334-39.44-116.281-9.809-30.361-18.663-62.962-40.358-87.348-10.096-11.349-23.014-19.076-37.836-22.35-6.313-1.395-13.702 1.9-15.24 8.653-1.428 6.268 1.885 13.745 8.653 15.24 1.649.364 3.25.848 4.85 1.388a69 69 0 0 1 2.79 1.031c-.405-.156-2.372-1.127-.32-.102 3.191 1.594 6.224 3.332 9.133 5.405.525.374 1.04.754 1.559 1.136-2.375-1.746-.534-.418.029.085 1.087.971 2.197 1.91 3.25 2.92 2.622 2.516 4.991 5.244 7.271 8.069-2.028-2.512 1.08 1.561 1.546 2.239a110 110 0 0 1 2.8 4.287c1.834 2.955 3.522 5.993 5.125 9.078a173 173 0 0 1 4.59 9.571c.015.035 1.428 3.246.608 1.365s.555 1.349.569 1.385a251 251 0 0 1 2.345 5.978c5.884 15.561 10.505 31.599 15.55 47.442 6.064 19.041 12.21 38.057 18.537 57.013 12.485 37.407 25.715 74.562 40.414 111.162 14.111 35.136 28.673 70.725 47.672 103.56a317.6 317.6 0 0 0 31.233 44.623c4.045 4.839 8.55 9.262 12.678 14.027.874 1.008 2.198 2.136 2.786 3.343-1.46-2.995-.455-.579.12.238q.534.755 1.04 1.529c.814 1.248 1.485 2.553 2.223 3.842 1.471 2.569-.829-2.998-.09-.224.203.762.423 1.532.64 2.291.618 2.16-.159-1.189-.182-1.4.368 3.303-.365-.956.332-.693.059.023-.389 1.574-.352 1.462-.891 2.699 1.473-3.044.089-.44-.987 1.859.407-1.079.616-.719.118.205-1.534 1.439-1.694 1.678-.891 1.331 2.558-1.496-.213.103-1.142.659-2.261 1.37-3.397 2.039a631 631 0 0 1-24.588 13.761 629 629 0 0 1-49.176 23.441c2.574-1.092-1.454.602-1.595.661q-1.225.508-2.452 1.011a636 636 0 0 1-19.069 7.452 641 641 0 0 1-25.39 8.852 671 671 0 0 1-50.706 14.3c-16.997 4.088-34.148 7.53-51.395 10.382a766 766 0 0 1-19.202 2.925q-1.283.18-2.567.354c2.967-.408-1.527.198-2.101.272a834 834 0 0 1-26.433 2.98c-70.416 6.821-141.549 5.176-211.964-.796a1027 1027 0 0 1-44.392-4.725c-.724-.093-6.643-.894-3.112-.405-1.903-.263-3.807-.524-5.709-.795a913 913 0 0 1-11.519-1.714 846 846 0 0 1-24.499-4.17c-31.606-5.867-63.102-13.459-93.447-24.142-7.232-2.546-14.373-5.32-21.473-8.211-3.503-1.427 2.481 1.096-.981-.413-.689-.3-1.381-.596-2.07-.897a326 326 0 0 1-5.118-2.288 305 305 0 0 1-10.964-5.275c-6.391-3.237-12.665-6.71-18.766-10.466a219 219 0 0 1-6.253-3.995c-.242-.163-3.235-2.41-1.115-.694-.59-.478-1.17-.975-1.725-1.493-.288-.269-2.591-3.01-.982-.769-.439-.611-.779-1.264-1.171-1.905 1.345 2.202.025-.341-.234-1.038-1.059-2.85-.251 2.135-.173-.931.018-.727.003-1.487-.002-2.21-.022-3.236-.847 2.09.143-.997.222-.692.399-1.441.593-2.137.848-3.058-.845.958.208-.501.515-.713.932-1.589 1.401-2.34-1.267 2.032-.215.321.187-.13 1.167-1.311 2.274-2.685 3.39-4.04a343 343 0 0 0 17.051-22.502c10.243-14.755 19.242-30.347 27.313-46.385 16.542-32.872 29.013-67.454 41.479-102.012 13.269-36.785 26.734-73.538 37.728-111.084 5.446-18.597 10.044-37.364 14.202-56.286 1.679-7.639 3.445-15.263 5.549-22.798a221 221 0 0 1 3.437-11.218 185 185 0 0 1 1.958-5.506c.271-.727.543-1.457.823-2.181.16-.414 1.581-3.902 1.112-2.802-.702 1.647.825-1.835.757-1.685q.599-1.32 1.229-2.627a119 119 0 0 1 2.359-4.647c2.006-3.74 4.219-7.373 6.669-10.84.447-.633.905-1.256 1.363-1.882 2.22-3.038-1.563 1.7.923-1.146 1.292-1.479 2.544-2.985 3.893-4.415 2.819-2.989 5.863-5.723 9.031-8.334.886-.73 1.66-1.297 3.608-2.658a114 114 0 0 1 5.313-3.493 136 136 0 0 1 11.694-6.44c3.837-1.881 6.725-3.132 9.336-4.169a232 232 0 0 1 13.233-4.767c15.034-4.936 30.422-8.911 45.935-12.02a430 430 0 0 1 22.736-3.915c.744-.108 1.489-.211 2.233-.318 3.681-.533-2.287.28 1.413-.193 1.876-.24 3.753-.477 5.631-.7q5.667-.67 11.348-1.213c33.132-3.18 66.412-3.055 99.654-3.448 18.515-.219 36.958-.116 55.462.553 11.11.401 11.093-16.861 0-17.261Z"/><path d="M301.398 62.645c-7.755 4.465-16.683 11.381-18.645 20.66-1.326 6.271.413 12.007 4.405 16.913 3.027 3.719 7.447 6.607 11.485 9.128 15.985 9.982 34.551 15.155 52.765 19.301 39.478 8.985 79.726 14.311 120.178 15.986 40.746 1.687 81.5-.496 121.877-6.149 17.7-2.478 35.273-5.738 52.722-9.598 12.606-2.789 25.39-6.252 36.713-12.631 5.636-3.175 11.086-7.257 15.136-12.339 5.408-6.784 8.46-14.197 9.384-22.837.869-8.13-1.213-16.86-5.75-23.681-4.844-7.282-11.647-12.927-19.219-17.214-4.005-2.267-8.219-4.069-12.461-5.839-2.606-1.088-6.732-.17-9.046 1.183-2.435 1.425-4.758 4.217-5.395 7.016-.684 3.005-.536 6.378 1.183 9.046 1.767 2.741 4.026 4.16 7.016 5.395 1.825.754-2.156-.942-.849-.359.367.164.737.322 1.104.486q1.23.55 2.443 1.136a77 77 0 0 1 4.931 2.604 60 60 0 0 1 4.322 2.738c.38.265.751.543 1.13.81 1.27.895-.928-.679-1.058-.828.563.644 1.427 1.168 2.067 1.744a36.5 36.5 0 0 1 3.314 3.381c.223.26.426.544.659.795-2.33-2.51-1.258-1.705-.747-.933.421.636.859 1.259 1.249 1.915.433.728.797 1.481 1.188 2.231.744 1.428-.649-1.38-.569-1.396.05-.01.416 1.117.442 1.192.535 1.56.894 3.16 1.13 4.79l-.416-3.099c.323 2.617.274 5.221-.074 7.832l.416-3.095c-.249 1.667-.608 3.309-1.128 4.913-.137.423-.298.836-.44 1.256-.519 1.53.73-1.641.678-1.556-.519.852-.859 1.845-1.354 2.72a29 29 0 0 1-1.13 1.834c-.239.358-.494.704-.74 1.058-.906 1.306 1.113-1.395 1.032-1.323-1.276 1.119-2.286 2.639-3.548 3.81q-.807.75-1.655 1.453c-.699.581-2.222 1.603.955-.705-.363.264-.717.539-1.081.801a53 53 0 0 1-4.207 2.72 66 66 0 0 1-4.53 2.404q-1.064.514-2.144.996c-.434.194-.873.377-1.308.571 3.688-1.639 1.64-.692.774-.347-14.361 5.726-30.015 8.547-45.126 11.506a651 651 0 0 1-38.213 6.296l3.029-.407c-43.469 5.804-87.488 7.251-131.249 4.398a678 678 0 0 1-40.439-3.858q-2.111-.267-4.223-.544c-.623-.081-2.15-.192.635.087-1.258-.126-2.518-.345-3.77-.513-.996-.134-2.008-.239-3.001-.4 3.147.51.476.062-.142-.023q-1.92-.265-3.84-.541a685 685 0 0 1-40.491-7.066c-9.874-2.03-19.755-4.203-29.355-7.308a138 138 0 0 1-7.57-2.684c-.649-.252-1.292-.517-1.939-.773-2.051-.813 1.673.76-.181-.079-1.268-.573-2.538-1.138-3.79-1.745a93 93 0 0 1-7.323-3.945c-1.188-.713-2.379-1.423-3.545-2.171a65 65 0 0 1-1.683-1.11l-.519-.359q-1.236-.901.408.345c-.241.02-.982-.857-1.175-1.046-1.626-1.589.485 1.299-.308-.249-.131-.255-1.239-1.775-.322-.466q.459 1.144.096.063-.326-1.474.045.875c.071-.236.036-1.049-.021-1.31q.066-1.086-.175 1.118.098-.525.243-1.04c.003-.012.375-.938.342-1.029q-.853 1.94-.223.622.264-.511.561-1.005c.202-.336.435-.653.635-.988q.83-1.152-.303.338.389-.483.798-.949a30 30 0 0 1 2.692-2.683c.321-.283.652-.554.975-.834 1.314-1.139-1.277.9.528-.417a56 56 0 0 1 3.354-2.254c3.784-2.367 5.614-7.725 3.063-11.681-2.519-3.908-7.538-5.448-11.681-3.063Zm-43.626 523.042c-.511 2.272-1.053 4.474-1.189 6.812-.097 1.66-.213 3.319-.32 4.978a253 253 0 0 0-.471 9.957l-.496 19.914c-.327 13.11-.64 26.22-.958 39.329-.181 7.468-.328 14.937-.564 22.403h22.664c.009-5.585-3.893-10.53-9.276-11.922-3.1-.802-6.068-.409-9.164.198-3.779.742-7.413 2.215-10.963 3.668-4.821 1.974-9.598 4.057-14.292 6.314-2.645 1.272-5.209 2.488-7.534 4.284-6.303 4.87-11.719 10.778-15.73 17.7-2.069 3.571-3.74 7.438-5.044 11.349-1.325 3.976-1.966 8.082-2.425 12.242a43.2 43.2 0 0 0 .037 9.804c.511 4.319 1.192 8.542 2.646 12.65 1.262 3.566 2.784 7.11 4.665 10.402 1.634 2.86 3.62 5.46 5.667 8.036 6.892 8.672 16.854 14.676 27.281 18.104 5.307 1.745 10.894 2.621 16.447 3.101 4.73.409 9.504.287 14.213-.312 5.762-.733 11.395-1.725 16.906-3.595 5.343-1.813 10.618-4.105 15.478-6.985 9.615-5.697 18.08-13.681 23.761-23.353a54.74 54.74 0 0 0 7.467-31.141c-.791-12.862-5.399-26.892-18.208-32.297-3.367-1.421-6.93-2.154-10.616-2.032-3.108.103-6.175 1.254-8.4 3.479-2.06 2.06-3.612 5.441-3.479 8.4.138 3.072 1.147 6.258 3.479 8.4 2.28 2.093 5.221 3.584 8.4 3.479.871-.029 1.735.002 2.601.103l-3.158-.424a14 14 0 0 1 3.438.906l-2.838-1.197a13.6 13.6 0 0 1 2.908 1.701l-2.404-1.857c1.013.8 1.902 1.721 2.694 2.74l-1.857-2.404c1.062 1.405 1.907 2.941 2.603 4.556l-1.198-2.838c1.206 2.873 1.925 5.913 2.347 8.995l-.425-3.16a50.6 50.6 0 0 1-.013 13.178l.425-3.163c-.474 3.449-1.415 6.723-2.768 9.93l1.2-2.844a49 49 0 0 1-6.172 10.505l1.863-2.411c-2.866 3.698-6.215 6.979-9.915 9.838l2.413-1.864c-4.329 3.315-9.082 6.025-14.1 8.152l2.851-1.203a71 71 0 0 1-17.931 4.871l3.176-.427c-5.836.768-11.751.816-17.59.044l3.179.427c-4.928-.672-9.759-1.929-14.349-3.852l2.859 1.207c-3.816-1.621-7.429-3.664-10.726-6.184l2.415 1.866a45 45 0 0 1-8.007-7.976l1.859 2.406c-2.422-3.152-4.403-6.597-5.96-10.253l1.194 2.829a45.8 45.8 0 0 1-3.1-11.302l.421 3.136a44.5 44.5 0 0 1 .011-11.601l-.42 3.125a46 46 0 0 1 3.152-11.414l-1.18 2.797a49 49 0 0 1 6.057-10.359l-1.823 2.36a52 52 0 0 1 9.276-9.274l-2.35 1.816c1.724-1.292 3.925-2.155 5.844-3.098a217 217 0 0 1 11.096-5.083l-2.756 1.163c2.433-1.027 4.887-2.013 7.389-2.862 1.855-.629 3.724-1.299 5.674-1.563l-3.029.407c.474-.058.951-.092 1.427-.034l-3.021-.406c.162.025.318.06.472.117l-2.712-1.145c.106.045.202.097.294.167l-2.297-1.774c.048.042.089.083.131.131l-1.774-2.296c.037.051.067.1.095.156l-1.143-2.709c.034.081.055.16.07.247l-.405-3.013q.01.07.01.141c.117 2.976 1.184 5.877 3.319 8.013 1.965 1.965 5.19 3.445 8.013 3.319 2.931-.131 5.97-1.094 8.013-3.319 2.024-2.205 3.348-4.953 3.319-8.013-.246-26.383-.126-52.773-.197-79.157-.01-3.657-.04-7.299-.194-10.952l-.23-5.476c-.112-2.664-.607-5.203-1.131-7.808-.367-1.826-1.727-3.462-3.143-4.555-1.479-1.143-3.393-1.969-5.314-1.883-3.737.167-7.59 2.582-8.457 6.438Zm197.083 32.48c8.547 101.899-56.885 205.697-158.203 250.961-19.876 8.88-41.05 15.746-59.102 27.382-7.854 5.062-15.621 12.112-15.564 20.834.087 13.348 17.216 20.381 31.496 23.758 77.395 18.305 179.081 36.994 258.984 33.465 3.861-.171 11.114-12.66 14.379-14.533 7.028-4.03-17.955-11.972-17.935-19.497.247-92.939-.656-217.517-.673-325.438-13.084-.642-18.215.642-31.3 0"/><path d="M445.621 618.167a208 208 0 0 1-1.421 40.818l.365-2.714c-2.314 17.082-6.484 34.026-12.227 50.277a255 255 0 0 1-5.45 14.054l1.172-2.778c-.86 2.028-1.747 4.042-2.6 6.072l1.179-2.793c-6.832 16.161-15.409 31.599-25.348 46.052a277 277 0 0 1-8.923 12.23l1.862-2.411a280 280 0 0 1-37.835 40.004 281 281 0 0 1-12.184 9.98l2.443-1.887c-14.633 11.284-30.365 21.12-46.956 29.26-5.168 2.536-10.423 4.883-15.724 7.125l2.907-1.227c-15.072 6.352-30.523 11.976-45.017 19.61-14.477 7.625-31.932 18.874-32.164 37.237-.099 7.871 3.523 15.414 9.132 20.822 5.532 5.333 12.297 8.658 19.37 11.424 5.819 2.276 11.885 3.668 17.954 5.09q10.036 2.352 20.098 4.588c28.569 6.344 57.326 11.907 86.229 16.499 30.343 4.82 60.893 8.672 91.564 10.615 14.186.899 28.404 1.381 42.62 1.253a463 463 0 0 0 9.934-.194c4.546-.138 9.111-.013 13.24-2.241 4.754-2.566 7.998-7.244 11.275-11.365 1.223-1.538 2.447-3.173 3.979-4.422l-2.507 1.937c2.283-1.725 4.342-3.008 5.875-5.55 1.69-2.802 2.214-5.799 1.784-9.001-.542-4.032-2.667-7.581-5.819-10.153-4.622-3.771-9.892-6.536-14.61-10.158l2.503 1.934c-1.248-.976-2.447-2.017-3.426-3.27l1.933 2.502a8.3 8.3 0 0 1-.873-1.443l1.246 2.953a5 5 0 0 1-.349-1.236l.442 3.286c-.38-4.332-.015-8.85-.013-13.201q.002-7.143-.004-14.286-.013-14.855-.049-29.71c-.051-20.9-.13-41.799-.221-62.698-.095-21.993-.203-43.987-.309-65.98-.107-22.259-.217-44.518-.278-66.777-.06-21.795-.104-43.591-.116-65.387-.001-2.604-.006-5.207.022-7.811.074-6.812-5.611-11.713-12.089-12.089-10.43-.605-20.864.144-31.3-.346-6.507-.305-12.727 5.938-12.436 12.436.313 6.999 5.464 12.108 12.436 12.436 10.438.49 20.857-.721 31.3-.346l-12.089-12.089c.279 24.828.079 49.671.147 74.501.07 25.419.119 50.839.177 76.258.057 24.919.114 49.838.149 74.757.033 23.333.046 46.665.01 69.998q-.013 8.153-.035 16.305-.011 4.111-.025 8.222c-.011 3.086-.236 6.267.474 9.299 2.09 8.921 11.128 13.901 18.223 18.497 1.265.819 2.521 1.652 3.722 2.564l-2.507-1.937c.803.624 1.589 1.279 2.223 2.079l-1.937-2.507c.173.235.324.473.45.735l-1.249-2.96c.075.185.13.363.163.56l-.443-3.294c.012.14.011.263-.003.403l.443-3.294a2 2 0 0 1-.118.388l1.249-2.96c-.071.136-.146.25-.24.372l1.937-2.507a4 4 0 0 1-.369.355l2.507-1.937c-1.682 1.263-3.466 2.399-4.907 3.951-1.149 1.238-2.187 2.58-3.233 3.904-2.18 2.762-4.308 5.802-7.112 7.976l2.507-1.937a7 7 0 0 1-1.339.79l2.96-1.249a4 4 0 0 1-.609.168l3.294-.443c-7.171.678-14.556.467-21.752.449a574 574 0 0 1-22.981-.534c-15.951-.679-31.875-1.951-47.75-3.636a991 991 0 0 1-27.493-3.32l3.294.443c-21.212-2.862-42.338-6.34-63.375-10.279-20.147-3.773-40.213-7.976-60.208-12.487-9.908-2.235-20.101-4.072-29.51-8.009l2.945 1.243c-3.557-1.522-6.983-3.333-10.052-5.704l2.491 1.925c-1.605-1.279-3.064-2.688-4.322-4.314l1.924 2.49a18.6 18.6 0 0 1-2.087-3.567l1.24 2.937a16.3 16.3 0 0 1-1.075-3.996l.439 3.267a17 17 0 0 1 .024-3.826l-.439 3.266c.215-1.386.586-2.7 1.108-4.001l-1.238 2.933c.793-1.821 1.822-3.474 3.032-5.046l-1.919 2.484c2.036-2.538 4.426-4.721 6.992-6.711l-2.481 1.917c10.56-8.011 23.064-13.508 35.2-18.646l-2.915 1.23c16.562-6.989 33.335-13.427 49.173-21.994 14.228-7.697 27.6-16.714 40.358-26.643 24.277-18.894 45.263-41.842 62.231-67.494 9.606-14.522 17.549-29.915 24.3-45.95l-1.179 2.793a244 244 0 0 0 8.886-24.658c2.478-8.242 4.886-16.757 5.95-25.31l-.391 2.911c3.22-17.665 4.615-35.573 4.006-53.52a218 218 0 0 0-.997-14.636c-.255-2.51-.86-4.685-2.705-6.529-1.602-1.602-4.229-2.808-6.529-2.705-4.739.212-9.564 4.071-9.234 9.234Z"/><path d="M548.318 618.167c-8.547 101.899 56.885 205.697 158.203 250.961 19.876 8.88 41.05 15.746 59.102 27.382 7.854 5.062 15.621 12.112 15.564 20.834-.087 13.348-17.216 20.381-31.496 23.758-77.395 18.305-179.081 36.994-258.984 33.465-3.861-.171-11.114-12.66-14.379-14.533-7.028-4.03 17.955-11.972 17.935-19.497-.247-92.939.656-217.517.673-325.438 13.084-.642 18.215.642 31.3 0"/><path d="M539.084 618.167a232.7 232.7 0 0 0 .497 51.327c.682 5.631 1.495 11.248 2.512 16.828l-.391-2.911c1.064 8.553 3.473 17.067 5.95 25.31a244 244 0 0 0 8.886 24.658l-1.179-2.793c6.008 14.27 12.926 28.048 21.197 41.149 8.347 13.223 17.848 25.783 28.208 37.493 20.576 23.258 45.277 43.175 72.255 58.541 17.412 9.917 35.983 17.125 54.402 24.897l-2.915-1.23c12.136 5.138 24.64 10.635 35.2 18.646l-2.481-1.917c2.567 1.99 4.956 4.173 6.992 6.711l-1.919-2.484c1.21 1.572 2.239 3.225 3.032 5.046l-1.238-2.933a18 18 0 0 1 1.108 4.001l-.439-3.266c.153 1.282.163 2.542.024 3.826l.439-3.267a16.2 16.2 0 0 1-1.075 3.996l1.24-2.937a18.6 18.6 0 0 1-2.087 3.567l1.924-2.49c-1.257 1.626-2.716 3.034-4.322 4.314l2.491-1.925c-3.069 2.371-6.495 4.182-10.052 5.704l2.945-1.243c-8.293 3.47-17.163 5.201-25.894 7.19a1864 1864 0 0 1-29.093 6.382c-20.638 4.356-41.361 8.32-62.169 11.78a1190 1190 0 0 1-35.936 5.424l3.294-.443c-31.589 4.244-63.431 7.22-95.323 7.474q-6.33.052-12.66-.056c-3.975-.069-8.034-.003-11.994-.378l3.294.443a4 4 0 0 1-.609-.168l2.96 1.249a7 7 0 0 1-1.339-.79l2.507 1.937c-2.804-2.175-4.932-5.214-7.112-7.976-1.046-1.325-2.084-2.666-3.233-3.904-1.441-1.553-3.225-2.689-4.907-3.951l2.507 1.937a4 4 0 0 1-.369-.355l1.937 2.507a2.5 2.5 0 0 1-.24-.372l1.249 2.96a2 2 0 0 1-.118-.388l.443 3.294a2 2 0 0 1-.003-.403l-.443 3.294c.034-.197.088-.375.163-.56l-1.249 2.96c.126-.263.277-.501.45-.735l-1.937 2.507c.634-.801 1.42-1.456 2.223-2.079l-2.507 1.937c2.55-1.938 5.329-3.558 7.997-5.325 3.356-2.222 6.935-4.565 9.502-7.703 2.005-2.45 3.722-4.872 4.445-8.034.715-3.125.484-6.393.473-9.571q-.027-8.019-.044-16.038a21269 21269 0 0 1-.017-69.178c.029-24.781.083-49.562.139-74.343.058-25.416.096-50.833.172-76.249.074-24.966.131-49.931.146-74.897.002-3.022-.006-6.044.028-9.066l-12.089 12.089c10.443-.375 20.862.836 31.3.346 6.488-.305 12.746-5.502 12.436-12.436-.29-6.476-5.476-12.762-12.436-12.436-10.436.49-20.869-.259-31.3.346-6.47.375-12.164 5.234-12.089 12.089.236 21.683-.017 43.382-.072 65.066a29990 29990 0 0 1-.258 66.396c-.105 22.068-.214 44.135-.313 66.203-.095 21.166-.18 42.332-.238 63.498-.054 19.535-.085 39.071-.068 58.606.002 2.006.158 4.081-.017 6.079l.442-3.286a5 5 0 0 1-.349 1.236l1.246-2.953c-.24.517-.534.985-.873 1.443l1.933-2.502c-.979 1.252-2.179 2.293-3.426 3.27l2.503-1.934c-4.718 3.622-9.992 6.381-14.61 10.158-2.654 2.171-4.747 5.16-5.598 8.506-.93 3.659-.292 7.321 1.515 10.587 1.437 2.595 3.649 3.894 5.922 5.611l-2.507-1.937c3.438 2.803 5.797 6.959 8.714 10.266 1.887 2.14 4.128 4.237 6.649 5.575 4.186 2.222 8.819 2.059 13.412 2.196 13.897.415 27.81.184 41.695-.479 30.652-1.464 61.182-5.025 91.519-9.565 29.19-4.368 58.214-9.817 87.071-16.004 13.146-2.819 26.445-5.477 39.412-9.045 6.538-1.798 13.12-4.222 18.996-7.628 5.95-3.449 11.952-8.457 14.917-14.816 4.102-8.8 3.876-18.496-1.118-26.961-4.378-7.42-11.429-12.926-18.614-17.439-13.643-8.57-28.765-14.504-43.632-20.56a977 977 0 0 1-10.807-4.457l2.907 1.227c-17.481-7.395-34.215-16.338-49.883-27.069a281 281 0 0 1-12.798-9.316l2.443 1.887a281 281 0 0 1-40.217-38.02 279 279 0 0 1-9.801-11.964l1.862 2.411c-10.777-13.969-20.226-28.954-28.058-44.766a248 248 0 0 1-6.213-13.516l1.179 2.793c-.853-2.031-1.741-4.045-2.6-6.072l1.172 2.778c-6.745-16.002-11.786-32.685-15.219-49.704a230 230 0 0 1-2.458-14.628l.365 2.714a208 208 0 0 1-1.421-40.818c.309-4.83-4.468-9.447-9.234-9.234-5.421.243-8.71 4.069-9.234 9.234ZM246.143 195.402c10.321 23.017 31.266 40.64 54.942 48.766 13.07 4.486 27.945 5.545 40.874.089 5.929-2.502 11.349-6.304 15.364-11.378 4.046-5.111 7.018-10.77 8.733-17.094 3.458-12.748 2.177-26.912-2.566-39.165l-14.363 11.042c9.343 3.999 18.723 7.951 28.355 11.214 9.527 3.227 19.203 5.578 29.182 6.865 9.65 1.244 19.428.963 28.955-1.1 4.95-1.072 9.918-2.973 14.416-5.273 4.791-2.449 8.844-5.975 11.887-10.407s4.32-9.67 4.99-14.889c.557-4.34.193-8.606.138-12.955l-.307 2.287c.58-3.641 1.202-7.244 1.431-10.925.09-1.457.312-2.917.354-4.372.022-.749.056-1.499.074-2.248.037-1.516-.318-3.031-.521-4.533l.36 2.683a43 43 0 0 1-.19-1.825c-.181-2.188-.695-4.05-2.062-5.82-1.226-1.587-2.978-2.984-4.989-3.442a11.4 11.4 0 0 0-5.107 0c-2.108.48-4.79 2.434-5.74 4.414-.681 1.418-1.284 2.876-1.874 4.332s-.657 3.013-.829 4.563c-.192 1.734-.139 3.368.034 5.101.236 2.379.415 4.91 1.058 7.191.459 1.63.941 3.255 1.412 4.881l-.307-2.287c.46 4.249.494 8.714-.039 12.955l.306-2.274c-.283 2.079-.75 4.111-1.499 6.073l.861-2.04a21.8 21.8 0 0 1-2.446 4.216l1.358-1.757a20 20 0 0 1-3.577 3.589l1.787-1.381c-1.865 1.413-3.906 2.522-6.05 3.45l2.158-.911c-5.335 2.24-11.11 3.547-16.832 4.317l2.499-.336c-6.999.895-14.059.715-21.045-.203l2.527.34c-15.42-2.097-30.15-7.556-44.419-13.574l2.325.981a684 684 0 0 1-8.761-3.787c-1.593-.7-3.156-1.335-4.935-1.335-2.176 0-4.223.785-5.924 2.099-1.381 1.067-2.333 2.304-3.011 3.911-.79 1.873-1.235 4.393-.493 6.366 1.581 4.205 2.664 8.573 3.284 13.022l-.353-2.627c.685 5.137.72 10.346.048 15.487l.356-2.647c-.518 3.753-1.455 7.426-2.922 10.923l.999-2.366c-1.16 2.7-2.62 5.241-4.416 7.569l1.543-1.997a31.5 31.5 0 0 1-5.344 5.328l1.989-1.537a32.3 32.3 0 0 1-6.934 4.028l2.339-.987c-3.033 1.254-6.201 2.057-9.451 2.496l2.591-.348c-4.394.551-8.814.428-13.2-.134l2.572.346c-6.391-.863-12.582-2.72-18.518-5.217l2.265.956a87.7 87.7 0 0 1-19.005-11.122l1.874 1.448a89 89 0 0 1-15.855-15.83l1.413 1.829c-3.328-4.334-6.381-8.869-8.94-13.701-2.105-3.974-7.961-5.519-11.745-3.08-1.833 1.182-3.446 2.941-3.945 5.13-.543 2.385-.129 4.396.865 6.615Zm-44.875 205.256c3.037-1.414 6.079-2.818 9.164-4.123l-1.977.834c5.841-2.449 11.857-4.506 18.153-5.373l-2.324.312c3.372-.432 6.742-.509 10.116-.067l-2.391-.321a34.8 34.8 0 0 1 8.521 2.318l-2.201-.929c.931.441 1.895.821 2.846 1.215l-2.206-.931a29 29 0 0 1 5.989 3.478l-1.88-1.452a24.4 24.4 0 0 1 4.334 4.32l-1.46-1.89a22 22 0 0 1 2.583 4.447l-.946-2.241a23.4 23.4 0 0 1 1.58 5.827l-.337-2.507c.259 2.152.215 4.301-.071 6.448l.339-2.521c-.5 3.458-1.589 6.774-2.928 9.992l.965-2.286c-5.125 12.13-13.484 23.069-16.122 36.183-.45 2.237-.402 4.296.498 6.429.8 1.897 2.168 3.732 4.04 4.721 3.988 2.107 8.644 1.554 11.965-1.544a196 196 0 0 1 13.837-11.761l-2.026 1.565c13.492-10.383 28.352-18.995 44.035-25.616l-2.459 1.038a194 194 0 0 1 15.028-5.598c5.375-1.749 10.855-3.446 16.467-4.222l-2.754.37c2.766-.351 5.531-.434 8.301-.075l-2.759-.371c1.916.285 3.77.771 5.561 1.507l-2.482-1.047q2.55 1.088 4.755 2.772l-2.105-1.626a24 24 0 0 1 4.03 4.039l-1.628-2.107c1.483 1.925 2.679 4.031 3.637 6.262l-1.051-2.491c1.248 2.981 2.05 6.114 2.494 9.312l-.373-2.776c.504 3.831.486 7.7-.013 11.531l.373-2.779c-.497 3.621-1.419 7.163-2.816 10.542l1.055-2.499c-1.909 4.517-4.665 8.66-7.653 12.529l1.638-2.12c-9.757 12.507-22.724 21.977-33.012 34.002-1.548 1.809-2.57 3.638-2.892 6.039-.301 2.242-.015 4.747 1.248 6.706a12.55 12.55 0 0 0 3.773 3.773c2.057 1.326 5.771 1.92 8.104 1.06l25.04-9.227c7.865-2.898 15.741-5.81 23.833-8.022 4.605-1.259 9.273-2.275 14.003-2.926l-2.811.378c6.051-.8 12.219-1.033 18.282-.226l-2.802-.377a52 52 0 0 1 12.694 3.472l-2.508-1.059c3.82 1.615 7.427 3.668 10.722 6.19l-2.118-1.636c2.647 2.06 5.046 4.397 7.115 7.039l-1.631-2.111a34.3 34.3 0 0 1 4.319 7.311l-1.049-2.486a31.6 31.6 0 0 1 2.137 7.783l-.371-2.76a35 35 0 0 1-.003 8.737l.37-2.753c-.546 4.035-1.723 7.921-3.302 11.668l1.04-2.465c-3.091 7.182-7.521 13.675-12.28 19.845l1.606-2.079a326 326 0 0 1-39.23 42.244 321 321 0 0 1-12.342 10.564c-1.898 1.545-2.976 4.846-2.976 7.186 0 2.492 1.107 5.47 2.976 7.186 1.937 1.778 4.479 3.098 7.186 2.976l2.701-.363a10.16 10.16 0 0 0 4.484-2.613c13.769-11.208 26.658-23.489 38.46-36.755 6.308-7.091 12.412-14.435 17.99-22.117 5.38-7.41 10.086-15.607 12.557-24.48s2.568-18.762-.933-27.335c-.944-2.311-1.914-4.59-3.208-6.728-1.284-2.122-2.823-4.091-4.382-6.013-2.627-3.237-5.792-5.841-9.109-8.339-6.157-4.636-13.63-7.917-21.123-9.652-9.925-2.298-19.937-1.933-29.928-.352-9.257 1.465-18.227 4.327-27.033 7.471-9.095 3.247-18.126 6.676-27.181 10.031l-6.783 2.513 10.232 17.578c5.283-6.197 11.266-11.729 17.164-17.326 6.44-6.113 12.54-12.396 17.91-19.485 4.612-6.087 8.362-12.985 10.163-20.449 1.855-7.691 1.966-15.456.573-23.218-1.299-7.24-4.628-14.067-9.485-19.576-5.808-6.587-14.272-9.981-22.915-10.444-5.383-.289-10.917.779-16.103 2.152-4.228 1.119-8.407 2.45-12.535 3.893a213 213 0 0 0-25.376 10.76c-15.827 7.956-30.54 18.297-43.684 30.156a193 193 0 0 0-4.629 4.32l16.502 9.606c.675-3.661 1.868-7.181 3.302-10.61l-.986 2.337c3.003-7.088 6.971-13.708 10.113-20.729 1.76-3.933 3.475-7.96 4.404-12.185 1.075-4.888 1.214-9.466.468-14.385-1.376-9.081-7.53-16.957-15.319-21.559-8.008-4.732-17.574-6.106-26.693-4.881-11.55 1.552-21.981 6.795-32.181 12.169-3.721 1.96-5.158 7.45-2.88 10.983 1.105 1.714 2.751 3.223 4.797 3.689 2.215.505 4.132.147 6.186-.809Zm370.891-124.203c-6.676-2.983-13.334-4.743-20.62-5.449-6.54-.633-13.194-.028-19.617 1.283-12.686 2.59-24.761 9.309-33.862 18.499-10.776 10.883-19.023 26.972-15.764 42.585 1.904 9.125 8.908 15.774 16.718 20.209 7.456 4.234 15.484 7.652 23.544 10.544 17.556 6.299 36.451 9.353 55.093 9.11l-2.759-20.386c-18.6 3.597-36.833 11.88-50.566 25.116-13.594 13.102-21.769 31.323-21.198 50.332s9.829 37.535 26.943 46.884c16.908 9.237 38.449 9.3 56.098 2.051 10.206-4.192 19.202-9.957 27.634-17.068 7.252-6.116 13.727-13.101 19.793-20.379a353 353 0 0 0 4.481-5.51l-15.159-15.159c-3.089 3.941-6.241 7.791-8.728 12.15-2.399 4.207-4.369 8.633-6.153 13.132-3.407 8.593-5.252 17.71-5.982 26.912-.331 4.169-.414 8.423.033 12.587.608 5.67 1.747 11.477 5.112 16.241 5.835 8.263 14.604 12.878 24.21 15.474 16.652 4.5 35.098 3.731 51.287-2.246 8.97-3.312 16.979-7.787 24.487-13.681 6.669-5.235 12.276-11.618 17.052-18.609 10.509-15.383 15.957-34.879 14.602-53.482l-22.221 3.007c3.396 10.115 7.474 20.49 13.851 29.137 3.832 5.195 7.932 9.609 13.308 13.25 5.178 3.506 11.13 5.242 17.291 5.854 7.802.774 15.483-1.75 22.431-5.047 5.814-2.759 11.045-6.446 16.1-10.395 9.215-7.199 17.011-16.4 22.942-26.463 7.146-12.125 11.307-25.504 12.783-39.455.29-2.739-1.488-6.235-3.357-8.104-1.988-1.988-5.249-3.485-8.104-3.357-2.964.133-6.038 1.106-8.104 3.357-2.176 2.37-3.02 4.916-3.357 8.104q-.13 1.236-.29 2.469l.409-3.046c-.99 7.234-2.941 14.28-5.75 21.017l1.153-2.732a88.5 88.5 0 0 1-11.227 19.276l1.785-2.31a86.7 86.7 0 0 1-15.391 15.435l2.306-1.782c-4.713 3.609-9.795 6.807-15.246 9.179l2.718-1.147c-2.86 1.202-5.794 2.117-8.867 2.572l3.022-.406c-2.2.278-4.386.301-6.588.039l3.021.406a25.8 25.8 0 0 1-6.323-1.702l2.713 1.145c-2.249-.965-4.325-2.219-6.266-3.707l2.297 1.775c-2.673-2.105-4.994-4.576-7.074-7.263l1.773 2.295c-3.945-5.188-6.948-11.006-9.487-16.991l1.141 2.704a150 150 0 0 1-3.798-10.12c-1.814-5.375-6.661-8.876-12.412-8.103-5.202.699-10.227 5.481-9.809 11.11a74 74 0 0 1-.458 15.254l.404-3.004a77.8 77.8 0 0 1-5.241 19.124l1.138-2.696a78 78 0 0 1-9.983 17.134l1.762-2.281c-3.781 4.846-8.117 9.201-12.981 12.961l2.278-1.76c-4.985 3.795-10.419 6.913-16.188 9.352l2.685-1.133a78.8 78.8 0 0 1-19.567 5.284l2.982-.401a77 77 0 0 1-19.736.029l2.972.399c-5.407-.736-10.799-1.979-15.842-4.094l2.663 1.124c-2.284-.992-4.448-2.171-6.449-3.658l2.253 1.741c-1.417-1.099-2.687-2.318-3.806-3.721l1.739 2.251a19.6 19.6 0 0 1-2.354-4.058l1.12 2.655c-.776-1.946-1.26-3.946-1.573-6.015l.397 2.951c-.815-6.081-.526-12.344.265-18.412l-.395 2.941a85.2 85.2 0 0 1 5.841-21.357l-1.111 2.633c2.742-6.421 6.243-12.666 10.382-18.295l-1.676 2.169.343-.437c1.83-2.334 3.139-4.482 3.139-7.579 0-2.629-1.168-5.769-3.139-7.579-2.043-1.875-4.725-3.267-7.579-3.139-2.642.118-5.865.96-7.579 3.139-8.319 10.576-17.32 20.762-27.969 29.059l2.154-1.664c-5.823 4.488-12.104 8.366-18.885 11.232l2.535-1.07a65.8 65.8 0 0 1-16.137 4.373l2.816-.378c-5.202.678-10.446.732-15.651.059l2.811.378c-4.304-.597-8.498-1.686-12.514-3.352l2.522 1.064a43.8 43.8 0 0 1-9.499-5.528l2.134 1.649a41 41 0 0 1-7.129-7.181l1.647 2.132a43.7 43.7 0 0 1-5.337-9.274l1.06 2.513c-1.614-3.905-2.684-7.982-3.271-12.164l.375 2.793c-.64-4.866-.618-9.771.014-14.637l-.375 2.788a57.4 57.4 0 0 1 3.849-14.209l-1.055 2.501c1.945-4.571 4.508-8.792 7.542-12.721l-1.634 2.115c3.609-4.599 7.797-8.671 12.419-12.246l-2.111 1.631c5.773-4.406 12.106-7.979 18.778-10.833l-2.486 1.049c6.727-2.835 13.73-4.926 20.891-6.329 2.341-.459 5.102-2.687 6.202-4.77 1.108-2.096 1.549-4.257 1.232-6.618-.67-4.99-4.996-9.08-10.193-8.999a151 151 0 0 1-21.996-1.27l2.752.37a151.2 151.2 0 0 1-38.419-10.472l2.461 1.038c-6.117-2.603-12.499-5.395-17.835-9.419l2.079 1.607c-1.484-1.161-2.831-2.433-4.012-3.904l1.606 2.078a19 19 0 0 1-2.133-3.562l1.035 2.452a20 20 0 0 1-1.371-5.023l.366 2.726c-.248-2.13-.219-4.238.035-6.367l-.365 2.716c.448-3.247 1.368-6.37 2.618-9.396l-1.023 2.424a51 51 0 0 1 5.111-9.211c.558-.795 2.587-3.131.241-.396.565-.658 1.094-1.346 1.665-1.999a55 55 0 0 1 3.609-3.749 57 57 0 0 1 1.933-1.746c.405-.349 1.48-1.587 2.013-1.657-.452.059-2.173 1.641-.63.501a61 61 0 0 1 3.231-2.226 62 62 0 0 1 9.265-4.872l-2.352.993c1.592-.664 3.2-1.273 4.778-1.976l-2.343.989a62.2 62.2 0 0 1 13.887-3.65l-2.507.337c4.38-.585 8.81-.709 13.209-.264.735.074 2.622.42-.471-.092.572.095 1.147.169 1.718.268q1.606.278 3.192.658a51 51 0 0 1 6.439 2.015c1.908.736 5.041.205 6.722-.879 1.62-1.044 2.817-2.388 3.569-4.171 1.534-3.635.401-9.119-3.569-10.893Zm-3.69-45.823a48 48 0 0 1 4.348-2.126l-2.18.92c3.954-1.655 8.091-2.748 12.334-3.338l-2.48.333c4.819-.632 9.684-.564 14.501.052l-2.561-.344c5.671.764 11.195 2.298 16.468 4.517l-2.391-1.009c5.823 2.493 11.27 5.824 16.286 9.682l-2.093-1.617c6.62 5.143 12.42 11.228 17.556 17.839l-1.671-2.163c3.516 4.557 7.063 9.395 9.61 14.571 1.128 2.292 4.176 4.543 6.637 5.103 2.483.566 4.873.435 7.231-.56 2.133-.9 4.198-2.438 5.31-4.544l1.119-2.653a11.2 11.2 0 0 0 0-5.904c-.66-4.438-1.761-8.801-2.366-13.258l.404 3.005a141 141 0 0 1-1.145-13.631c-.152-4.401-.232-8.881.333-13.258l-.413 3.071c.258-1.772.675-3.485 1.356-5.144l-1.164 2.759c.674-1.524 1.541-2.914 2.552-4.236l-1.806 2.337c3.075-3.886 7.008-7.12 10.668-10.436 3.799-3.441 7.666-6.808 11.717-9.95l-2.334 1.804c5.733-4.417 11.849-8.37 18.526-11.208l-2.753 1.162c4.447-1.852 9.09-3.159 13.864-3.825l-3.062.411c4.051-.531 8.132-.587 12.185-.047l-3.061-.411c3.197.46 6.305 1.287 9.285 2.537l-2.749-1.16a44 44 0 0 1 3.645 1.774c2.653 1.455 5.883 1.967 8.831 1.155 2.659-.732 5.54-2.788 6.85-5.267 2.925-5.536 1.389-12.397-4.112-15.681-9.126-5.448-20.406-7.289-30.876-5.937-5.437.702-10.675 1.742-15.79 3.76-5.151 2.032-10.091 4.423-14.762 7.4-8.776 5.594-16.669 12.515-24.326 19.527-4.059 3.718-8.089 7.392-11.081 12.081-3.586 5.619-4.572 12.345-4.604 18.887a137 137 0 0 0 1.08 17.712c.464 3.705.976 7.406 1.659 11.078.55 2.958 1.054 6.042 2.03 8.892l20.297-8.557c-2.228-2.996-4.211-6.165-6.447-9.16-2.656-3.558-5.38-7.073-8.317-10.405-5.368-6.089-11.424-11.467-18.026-16.19-13.131-9.393-29.668-14.822-45.886-13.913-9.614.539-19.048 2.987-27.363 7.936-4.067 2.421-5.909 8.25-3.246 12.38 2.708 4.2 7.944 5.698 12.38 3.246Z"/></svg>