<?xml version="1.0" encoding="UTF-8"?><svg xmlns="http://www.w3.org/2000/svg" data-name="ARTWORK" viewBox="0 0 1000 1000"><path d="M498.137 25.612c-3.09.748-6.143 1.626-9.15 2.66-1.246.428-2.493.869-3.725 1.336l-2.316.977q1.64-.716.111-.101c-.987.36-1.953.785-2.922 1.19-6.438 2.69-12.661 5.755-18.63 9.378-10.783 6.546-20.938 14.936-29.672 24.047a96 96 0 0 0-5.45 6.17c-.945 1.173-1.858 2.374-2.778 3.567l-.456.593q2.355-3.05-.915 1.183a70 70 0 0 0-2.46 3.712c-3.484 5.626-6.312 11.95-7.862 18.393-3.372 14.021-1.411 28.385 1.275 42.33 1.191 6.183 2.534 12.338 3.562 18.552.133.805.25 1.613.381 2.418.466 2.872-.324-2.961-.004-.076.178 1.61.36 3.216.478 4.832.235 3.214.296 6.444.104 9.662-.048.807-.137 1.609-.192 2.415-.196 2.875.549-2.937.032-.098-.242 1.326-.468 2.651-.769 3.967-.719 3.147-1.685 6.234-2.812 9.257-.283.759-.589 1.509-.879 2.266-1.031 2.688 1.19-2.623.003.003-.672 1.487-1.338 2.974-2.043 4.445-1.418 2.957-2.923 5.871-4.447 8.775-6.508 12.402-12.59 24.903-17.515 38.036a250 250 0 0 0-10.956 38.244 235 235 0 0 0-4.59 42.017 287 287 0 0 0 .31 19.273c.141 2.895.369 5.785.632 8.672.145 1.586.29 3.174.473 4.756l.399 2.967q-.337-2.468-.158-.585c.048.795.132 1.592.203 2.384 2.327 26.005 8.142 52.954 22.075 75.402 12.064 19.438 30.047 33.376 51.439 41.195 21.585 7.89 44.706 8.05 67.37 6.986 48.565-2.28 96.712-12.115 142.155-29.417 45.334-17.261 87.795-41.134 126.841-69.852 19.856-14.604 38.684-30.467 54.032-49.886 15.694-19.857 27.987-42.234 31.138-67.661 1.447-11.676.414-23.835-3.061-35.083-3.569-11.553-9.617-22.431-16.083-32.597-13.188-20.737-29.729-39.501-48.41-55.447-19.416-16.573-40.902-30.377-64.487-40.195-11.374-4.734-23.134-8.064-35.164-10.664-12.745-2.755-25.654-4.957-38.135-8.802a130 130 0 0 1-8.715-3.012c-.736-.285-1.686-.522-2.355-.942 2.69 1.686.593.243-.178-.104a102 102 0 0 1-4.645-2.233c-2.937-1.505-5.812-3.147-8.547-4.997-.924-.625-3.757-3.191-.883-.533-1.062-.982-2.236-1.84-3.286-2.843a39 39 0 0 1-2.321-2.415c-.288-.328-.553-.68-.847-1.001-1.008-1.102 2.015 2.758.85 1.105s-2.229-3.351-3.137-5.162c-.327-.653-.617-1.321-.93-1.98-.847-1.786 1.288 3.207.576 1.372-.154-.398-.318-.792-.473-1.189-.619-1.585-1.192-3.188-1.799-4.778-3.558-9.32-8.309-17.63-16.014-24.195-10.689-9.108-23.697-15.844-37.362-19.144-13.928-3.363-27.826-2.729-41.751.209-6.111 1.289-10.225 8.797-8.326 14.665 2.088 6.453 8.118 9.708 14.665 8.326a54 54 0 0 1 2.465-.45l.821-.133q2.008-.297-.737.08c.883-.544 3.007-.332 4.07-.412a79 79 0 0 1 9.692-.141c1.604.076 3.195.237 4.793.375 2.857.247-2.95-.475-.128-.029.524.083 1.049.162 1.573.247a81 81 0 0 1 9.343 2.052c2.848.812 5.548 1.961 8.344 2.904-3.277-1.104-.719-.29.004.043q1.112.511 2.207 1.056a86 86 0 0 1 4.352 2.326c2.611 1.491 5.112 3.136 7.562 4.876 2.198 1.561-2.2-1.842-.205-.171.524.439 1.056.866 1.571 1.315.954.83 1.879 1.693 2.764 2.596q1.209 1.23 2.313 2.555c1.984 2.387-1.727-2.438-.016.008a39 39 0 0 1 2.929 4.943c.4.8.731 1.634 1.13 2.433-2.073-4.143-.676-1.611-.258-.547.624 1.587 1.202 3.191 1.814 4.782 3.401 8.841 7.852 16.84 15.27 22.982 21.161 17.521 48.565 21.968 74.649 27.258 11.844 2.402 23.483 5.437 34.732 9.892 1.131.448 2.248.995 3.399 1.386-3.257-1.104-.863-.358-.139-.041q1.019.446 2.031.903a199 199 0 0 1 8.071 3.865 217 217 0 0 1 15.172 8.475 220 220 0 0 1 14.632 9.796q1.556 1.132 3.095 2.29c.579.436 1.346.87 1.841 1.399-2.047-2.187-.604-.465.063.06a248 248 0 0 1 7.174 5.866 250 250 0 0 1 25.274 24.718 245 245 0 0 1 7.818 9.273c.47.588.934 1.181 1.402 1.77q1.151 1.476-.447-.588.456.594.91 1.191a219 219 0 0 1 9.754 13.936 195 195 0 0 1 8.356 14.276c1.234 2.335 2.44 4.691 3.532 7.096.208.458.389.94.614 1.388-1.469-2.923-.308-.701-.041-.009a76 76 0 0 1 1.585 4.523 74 74 0 0 1 1.976 7.665c.25 1.242.303 2.628.667 3.834-.923-3.054-.176-1.369-.062-.311q.131 1.217.221 2.438c.395 5.294-.268 10.346-.43 15.604.107-3.449.166-1.247.02-.34q-.165 1.033-.356 2.062a92 92 0 0 1-.783 3.768 97 97 0 0 1-2.154 7.819c-.801 2.499-1.735 4.942-2.678 7.39-.932 2.419 1.113-2.492.058-.116-.294.663-.583 1.328-.883 1.988a125 125 0 0 1-1.883 3.949c-2.537 5.096-5.414 10.019-8.537 14.777a168 168 0 0 1-4.738 6.833c-.878 1.204-1.717 2.57-2.74 3.655 2.158-2.29.374-.498-.067.057q-.714.899-1.44 1.789c-7.426 9.117-15.649 17.578-24.387 25.44a264 264 0 0 1-13.165 11.083l-.577.454q-1.459 1.137.61-.464c-.023.267-1.578 1.209-1.811 1.386a626 626 0 0 1-10.539 7.86 589 589 0 0 1-29.079 19.927c-19.487 12.501-39.754 23.802-60.73 33.609a488 488 0 0 1-12.989 5.842c-.566.244-2.167 1.279-2.755 1.18l1.368-.576q-.69.29-1.382.578l-1.384.575a465 465 0 0 1-12.533 4.971 457 457 0 0 1-32.693 11.036 446 446 0 0 1-50.892 11.859 442 442 0 0 1-12.129 1.912l-2.288.322q-1.902.26.751-.098-.765.102-1.531.201a453 453 0 0 1-35.376 3.171c-11.439.577-22.994 1.011-34.426.105a142 142 0 0 1-5.693-.565c-.342-.041-2.59-.329-.472-.051s-.119-.027-.462-.076q-.986-.141-1.971-.292c-1.305-.201-2.607-.43-3.905-.676-4.89-.927-9.727-2.151-14.452-3.717-2.212-.733-4.359-1.762-6.582-2.437 3.074.933 1.106.472.325.126q-.87-.386-1.733-.788a92 92 0 0 1-3.408-1.679c-4.343-2.251-8.277-4.967-12.29-7.738 2.929 2.022-.59-.5-1.268-1.073a82 82 0 0 1-7.898-7.626 84 84 0 0 1-2.585-2.99l-.42-.514q-1.065-1.333.449.602c-.075-.269-.679-.903-.806-1.075a88 88 0 0 1-4.556-6.837 107 107 0 0 1-4.016-7.336 124 124 0 0 1-2.047-4.295c-.273-.602-.53-1.211-.803-1.812q-.473-1.095.305.739-.305-.732-.601-1.469a135 135 0 0 1-5.663-17.378c-1.501-5.945-2.665-11.974-3.558-18.039-.085-.578-.575-3.299-.051-.266-.136-.784-.204-1.59-.299-2.38a221 221 0 0 1-.441-3.972 265 265 0 0 1-.784-9.54c-.394-6.021-.079-12.13.012-18.161.093-6.21.328-12.42.803-18.613.238-3.099.537-6.193.849-9.285a277 277 0 0 1 .757-6.736q.106-.841.217-1.681-.396 2.93-.105.838a357 357 0 0 1 3.425-19.149 250.5 250.5 0 0 1 12.349-41.359q.469-1.183.949-2.361c.278-.682 1.17-3.44.029-.111 1.087-3.17 2.742-6.274 4.176-9.296 2.722-5.733 5.731-11.319 8.619-16.969 6.481-12.678 11.92-25.587 13.072-39.918 1.067-13.271-2.027-26.615-4.782-39.51-.628-2.941-1.248-5.885-1.799-8.842a166 166 0 0 1-.702-4.018c-.044-.273-.168-2.298-.367-2.411q.373 2.858.118.831-.097-.804-.182-1.61c-.307-2.94-.482-5.895-.462-8.851q.012-2.013.152-4.022c.057-.806.146-1.608.219-2.413q.246-2.037-.116.858.117-.74.259-1.475a47.7 47.7 0 0 1 2.227-7.815c.172-.457.38-.908.539-1.368-1.128 3.251-.366.91-.016.174a60 60 0 0 1 2.236-4.24 80 80 0 0 1 4.676-7.137c.291-.398.62-.787.89-1.196-1.802 2.725-.465.61.007.029a103 103 0 0 1 3.171-3.716c3.74-4.186 7.783-8.1 11.964-11.842a165 165 0 0 1 6.91-5.856c.513-.41 1.018-.84 1.55-1.225-3.545 2.565 3.124-2.424 1.896-1.431.4-.323 2.44-2.098.247-.274.611-.509 1.273-.967 1.913-1.44 4.69-3.468 9.597-6.648 14.724-9.433a88 88 0 0 1 4.22-2.174c.713-.34 1.448-.641 2.163-.977 2.304-1.082-1.204.443.271-.112 2.864-1.077 5.703-2.154 8.633-3.046 4.637-1.412 8.051-6.555 6.48-11.412-1.588-4.906-6.355-7.704-11.412-6.48Z"/><path d="M444.326 454.347c-.244-.272-.478-.556-.725-.826-1.005-1.1.34.352.386.535-.134-.535-.888-1.253-1.188-1.729a26 26 0 0 1-1.145-2.016c-.154-.303-.284-.621-.446-.918-.534-.978.745 2.035.235.556-.439-1.274-.855-2.536-1.141-3.855-.144-.66-.208-1.342-.361-1.997.711 3.042.092.41.048-.54-.066-1.4-.02-2.789.061-4.186.042-.715.079-1.428.146-2.141.032-.342.113-.733.116-1.081-.02 2.752-.18 1.279-.036.413.533-3.213 1.375-6.369 2.404-9.457a84 84 0 0 1 1.66-4.523c.15-.376.327-.752.461-1.134-.062.177-.973 2.222-.282.68.423-.944.84-1.889 1.28-2.825 1.477-3.143 3.113-6.202 4.794-9.239 3.418-6.176 7.232-12.127 11.247-17.93a280 280 0 0 1 5.858-8.175c.611-.819 1.231-1.63 1.849-2.444.828-1.09-1.189 1.513-.338.441l.841-1.069a234 234 0 0 1 3.641-4.487c4.926-5.918 10.139-11.595 15.591-17.033s11.171-10.662 17.066-15.647a313 313 0 0 1 9.016-7.335c.358-.281.732-.551 1.08-.842-.19.159-1.858 1.422-.445.346q1.09-.832 2.182-1.659a346 346 0 0 1 4.687-3.47c25.504-18.549 53.387-33.483 82.069-46.479a620 620 0 0 1 11.899-5.243c.68-.291 3.589-1.584.934-.402.931-.414 1.882-.789 2.823-1.179q3.004-1.245 6.023-2.457a582 582 0 0 1 24.387-9.14c16.253-5.692 32.797-10.576 49.584-14.428a401 401 0 0 1 25.447-4.991q3.008-.488 6.023-.926c.897-.131 2.212-.033 3.016-.426-1.518.742-2.004.263-.79.107q1.13-.147 2.263-.289 6.411-.798 12.847-1.361c16.925-1.478 33.977-1.727 50.928-.528 4.242.3 8.478.679 12.695 1.237l-3.125-.42c4.895.677 9.762 1.608 14.477 3.112 1.172.374 2.322.801 3.477 1.225 2.464.905-2.476-1.167-.099-.049.41.193.824.379 1.232.578a44.5 44.5 0 0 1 5.663 3.289c.213.146 1.237.716 1.273.905-.064-.333-2.386-1.917-.678-.507a39 39 0 0 1 2.314 2.067 36 36 0 0 1 2.124 2.235c.121.138 1.023 1.099.984 1.177.043-.085-1.913-2.605-.579-.687 1.162 1.67 2.135 3.427 3.023 5.253.616 1.268-.967-2.726-.388-.847.15.486.33.961.475 1.449.391 1.318.661 2.653.874 4.01l-.416-3.099c.431 3.278.431 6.604.149 9.896a59 59 0 0 1-.152 1.521q-.228 1.871.1-.707c.208.274-.323 1.985-.376 2.278a77 77 0 0 1-1.028 4.773c-1.563 6.356-3.474 12.783-5.83 18.89-1.677 4.346 1.505 9.4 5.425 11.054 4.44 1.874 9.075.089 11.701-3.834 6.237-9.321 10.554-19.879 12.488-30.954 1.192-6.824 1.427-13.601-.385-20.363-1.559-5.815-4.531-10.801-8.302-15.414-14.446-17.675-38.898-20.529-60.161-21.699-43.111-2.373-86.583 4.551-127.801 16.987-40.223 12.136-79.256 29.458-115.733 50.272-33.684 19.22-65.903 42.218-91.355 71.74-11.958 13.87-23.29 29.231-31.453 45.687-7.991 16.109-14.394 35.127-6.487 52.495 1.746 3.835 4.39 7.326 7.419 10.24 3.325 3.199 9.202 3.554 12.464 0 3.379-3.68 3.287-8.787 0-12.464Zm-4.384-274.198c7.503-6.742 15.284-13.154 23.262-19.326l-1.558 1.203c8.329-6.429 16.883-12.529 25.818-18.088 8.878-5.523 17.975-10.995 27.423-15.494a397 397 0 0 1 16.143-7.245l-2.014.85c12.842-5.41 25.981-10.18 39.304-14.264s26.878-7.795 40.54-10.711q5.747-1.227 11.528-2.273c5.781-1.046 7.723-1.282 11.491-2.297 4.984-1.343 8.083-6.34 7.41-11.35-.651-4.844-4.997-9.23-10.159-8.969-7.857.397-15.761 2.279-23.422 3.997a380 380 0 0 0-20.726 5.266c-14.397 4.092-28.371 9.49-42.088 15.461-6.515 2.836-12.927 5.929-19.256 9.158s-12.51 6.815-18.779 10.209c-12.582 6.811-24.629 14.434-36.533 22.357a381 381 0 0 0-39.601 30.299c-3.136 2.739-3.011 8.453 0 11.218 3.306 3.034 7.916 2.967 11.218 0Z"/><path d="M511.253 334.97c1.308 1.95 2.75 3.816 4.255 5.616l-1.255-1.624c2.591 3.376 5.235 6.563 8.477 9.337 3.328 2.848 6.913 5.441 10.727 7.6 3.895 2.206 8.163 3.883 12.391 5.336 3.637 1.25 7.334 2.254 11.128 2.881 18.179 3.006 36.851 2.085 54.838-1.788 17.754-3.823 35.156-10.9 50.272-21.005 15.198-10.159 28.172-23.172 38.096-38.541 4.887-7.568 8.808-15.698 11.994-24.119s5.032-17.069 6.186-25.958q.39-3.006.604-6.028c.19-2.656-1.346-5.842-3.179-7.675-1.883-1.883-4.971-3.3-7.675-3.179-2.807.126-5.719 1.048-7.675 3.179-2.034 2.216-2.942 4.67-3.179 7.675a107 107 0 0 1-.57 5.447l.388-2.891c-1.286 9.565-3.93 18.904-7.674 27.794l1.103-2.613c-3.907 9.186-9.003 17.818-15.093 25.724l1.706-2.208a121 121 0 0 1-21.57 21.551l2.201-1.701c-8.885 6.827-18.647 12.424-28.96 16.795l2.59-1.093c-12.092 5.081-24.822 8.411-37.811 10.178l2.864-.385c-11.575 1.542-23.396 1.911-34.99.358l2.807.377c-2.782-.383-5.534-.912-8.321-1.263l2.792.375a86 86 0 0 1-19.654-5.561l2.266.956c-4.247-1.796-8.277-4.046-11.935-6.861l1.709 1.321c-2.261-1.767-4.296-3.667-6.056-5.938l1.251 1.619a52 52 0 0 1-1.27-1.742c-1.208-1.732-2.674-3.09-4.768-3.667-1.91-.526-4.453-.288-6.148.804-3.448 2.223-5.349 7.209-2.862 10.916ZM314.43 471.683c.28-.993.374-2.05.686-3.025l-.821 1.946c.555-1.284 1.123-2.563 1.56-3.892l-.897 2.125c1.642-2.223 1.542-5.579 1.249-8.265-.243-2.223-.546-4.454-1.174-6.605-1.073-3.673-2.981-7.248-5.216-10.353-4.873-6.772-10.849-12.287-17.863-16.816-3.788-2.446-7.82-4.295-11.996-5.984l2.798 1.181c-17.27-7.604-38.838-5.365-53.98 6.009-3.592 2.698-7 5.498-9.946 8.9-2.871 3.316-5.549 6.886-7.714 10.71s-3.923 7.923-5.299 12.08c-1.396 4.217-2.084 8.536-2.603 12.941-1.954 16.573 4.669 34.232 17.429 45.077 8.146 6.923 18.136 12.261 28.799 13.857 3.273.49 6.568.945 9.885.919s6.652-.483 9.923-1.011c5.552-.895 10.828-2.882 15.895-5.281 9.98-4.725 18.419-12.471 24.643-21.52 3.079-4.476 5.414-9.499 7.171-14.629 1.793-5.234 2.881-11.041 2.758-16.571-.071-3.191-.425-6.301-1.605-9.282-.824-2.08-1.738-3.751-3.557-5.156-1.674-1.294-3.84-2.229-6.015-2.131a11.8 11.8 0 0 0-5.01 1.355c-1.94 1.025-4.187 3.718-4.562 5.932-.366 2.167-.851 4.259-.951 6.478a49 49 0 0 1-.362 4.113l.394-2.934a534 534 0 0 0-.646 4.881l.397-2.953a47 47 0 0 1-3.215 11.749l1.141-2.704a50.7 50.7 0 0 1-6.422 10.982l1.805-2.336a55 55 0 0 1-9.647 9.709l2.37-1.831a53.2 53.2 0 0 1-11.519 6.782l2.831-1.195a49.6 49.6 0 0 1-12.586 3.467l3.188-.428a48 48 0 0 1-12.28.012l3.207.431a46.2 46.2 0 0 1-11.731-3.221l2.884 1.217c-3.913-1.683-7.625-3.817-10.998-6.422l2.445 1.889a42.7 42.7 0 0 1-7.407-7.382l1.89 2.447a40 40 0 0 1-5.072-8.651l1.219 2.889a41.5 41.5 0 0 1-2.853-10.522l.432 3.218c-.52-4.005-.481-8.053.056-12.054l-.433 3.22a51 51 0 0 1 3.497-12.665l-1.222 2.895a52.3 52.3 0 0 1 6.69-11.457l-1.897 2.455a49.8 49.8 0 0 1 8.74-8.768l-2.457 1.898a46 46 0 0 1 9.958-5.854l-2.902 1.224c3.844-1.621 7.893-2.67 12.023-3.239l-3.216.432c4.196-.554 8.434-.513 12.627.05l-3.156-.424c4.373.612 8.616 1.842 12.687 3.546l-2.748-1.16a59.5 59.5 0 0 1 12.631 7.309l-2.207-1.705a58 58 0 0 0 2.753 2.122l-2.201-1.7c3.031 2.355 5.821 5.003 8.186 8.033l-1.614-2.089c1.904 2.484 3.602 5.255 4.829 8.138l-.969-2.295a23.5 23.5 0 0 1 1.328 4.367l-.325-2.418c.243 2.763.953 4.863 2.844 6.9l-2.288-3.926c.298.718.626 1.466.759 2.235l-.288-2.146c0 .829-.074 1.654-.183 2.475l.282-2.102-.047.316c-.324 2.18-.364 4.096.795 6.076.957 1.636 2.833 3.196 4.713 3.624 4.188.954 8.503-1.258 9.7-5.508Z"/><path d="M232.093 523.559c-.555 1.939-1.257 3.889-1.543 5.886-.4 2.795-.723 5.593-1.035 8.398-.473 4.251-.94 8.49-1.248 12.757-.62 8.589-1.288 17.172-1.69 25.774-.795 17.007-1.706 34.014-2.363 51.027l-3.938 102.054c-.368 9.545-.676 19.09-.957 28.638-.138 4.688-.295 9.368-.258 14.058.043 5.52-.227 11.111 1.156 16.488.96 3.734 4.88 6.885 8.812 6.709 4.192-.188 7.477-2.742 8.812-6.709.588-1.747.958-3.111 1.162-5.033.111-1.041.207-2.083.31-3.124.223-2.254.403-4.511.586-6.769.345-4.252.587-8.494.773-12.757.376-8.591.769-17.18 1.066-25.774l1.767-51.027c1.178-34.017 2.288-68.029 3.188-102.054.253-9.55.335-19.085.345-28.638.005-4.694-.073-9.367-.252-14.058-.092-2.429-.141-4.865-.311-7.29-.204-2.911-.818-5.709-1.41-8.557-.575-2.761-3.689-5.063-6.486-4.938-2.989.134-5.644 1.997-6.486 4.938Zm52.404-10.114c-.739 17.582-1.513 35.163-1.367 52.766s.376 35.171.691 52.755 1.076 35.166 1.794 52.739q1.077 26.365 2.405 52.719c.994 19.724 2.168 39.436 3.452 59.144.188 2.881 1.078 5.555 3.166 7.642 1.875 1.875 4.95 3.286 7.642 3.166 2.795-.125 5.694-1.043 7.642-3.166 1.873-2.041 3.338-4.783 3.166-7.642-2.116-35.12-4.029-70.258-5.615-105.406-.793-17.574-1.288-35.167-2.147-52.737s-1.636-35.165-2.327-52.753c-.388-9.876-.96-19.741-1.47-29.612s-1.409-19.743-2.095-29.615c-.27-3.889-3.241-7.658-7.468-7.468-4.187.188-7.292 3.281-7.468 7.468Z"/><path d="M219.856 797.336c6.145 2.536 12.39 4.787 18.875 6.273a160 160 0 0 0 21.85 3.459c14.11 1.23 28.112.505 42.079-1.793 4.034-.664 8.306-1.163 11.833-3.408 3.555-2.263 6.305-5.613 6.877-9.873.807-6.006-2.541-11.111-8.34-12.922-3.459-1.08-7.457.119-9.974 2.636-2.68 2.68-3.448 6.355-2.636 9.974l.057.253-.371-2.764c.022.304-.014.608-.019.913l.384-2.858a3.2 3.2 0 0 1-.216.695l1.09-2.582c-.13.257-.267.468-.442.697l1.69-2.187a7 7 0 0 1-.918.855l2.187-1.689c-.466.33-.945.605-1.462.844l2.58-1.089c-2.002.82-4.338 1.044-6.458 1.422a171 171 0 0 1-7.084 1.103l2.865-.385c-16.986 2.244-34.189 2.153-51.167-.123l2.601.35c-3.444-.471-6.865-1.073-10.31-1.534l2.505.337a172 172 0 0 1-13.708-2.44c-4.184-.922-9.08 1.257-10.1 5.734-.479 2.102-.375 4.461.828 6.327 1.236 1.917 2.815 2.91 4.907 3.773Z"/><path d="M217.42 762.073c-19.674 6.897-39.335 14.88-57.561 25.079-9.089 5.086-17.345 11.383-23.63 19.745-5.973 7.947-7.545 18.571-7.552 28.261-.007 9.625 1.021 19.255 1.233 28.882.201 9.119-.334 18.287.26 27.391.588 9.007 2.266 17.509 5.938 25.763 3.642 8.186 9.591 14.754 16.681 20.103 7.11 5.364 15.265 9.654 23.175 13.704 8.893 4.554 18.07 8.572 27.378 12.197 17.019 6.628 34.666 11.575 52.555 15.216 37.04 7.539 74.933 9.815 112.664 9.419 39.641-.415 79.351-3.008 118.429-9.915 19.07-3.371 37.951-7.857 56.369-13.864 19.492-6.358 38.843-14.226 56.738-24.282 15.534-8.729 26.175-23.535 30.767-40.621 2.207-8.21 3.164-16.845 3.451-25.328.333-9.844.626-19.715.806-29.563.197-10.806-.03-22.168-2.68-32.7-2.176-8.648-7.582-16.557-14.35-22.278-14-11.837-31.826-17.546-48.953-23.255-37.149-12.384-75.292-21.133-114.171-25.84-38.291-4.637-76.94-4.831-115.337-1.362-10.854.981-21.671 2.27-32.469 3.737-3.17.431-6.732 3.739-8.261 6.353-1.734 2.963-2.468 7.33-1.393 10.652 1.082 3.345 3.155 6.572 6.353 8.261 3.525 1.862 6.744 1.924 10.652 1.393l2.727-.373-3.673.494c37.531-5.026 75.484-6.93 113.31-4.821a523 523 0 0 1 36.845 3.365q.832.108 1.665.214c2.9.368-2.328-.324-.612-.085 4.582.637 9.158 1.309 13.723 2.054 18.151 2.961 36.142 6.881 53.902 11.653 17.515 4.706 35.164 10.013 51.987 16.826.32.13.639.264.959.393 1.482.598-2.598-1.126-1.134-.478.847.375 1.696.743 2.537 1.131a96 96 0 0 1 5.273 2.616 74 74 0 0 1 4.725 2.754q.995.633 1.967 1.302.55.38 1.092.772c2.006 1.454-.521-.653-.726-.59.588-.182 3.38 2.948 3.888 3.458a38 38 0 0 1 1.742 1.869c.226.26.693.683.815.971-.229-.541-1.833-2.573-.658-.812.874 1.311 1.709 2.624 2.404 4.041.181.37.332.779.529 1.142-1.634-3.002-.853-2.16-.58-1.266.283.927.597 1.829.825 2.774.258 1.066.455 2.147.645 3.227q.16.909.301 1.821c.074.477.247 2.478.095.598-.16-1.983.139 1.473.187 1.979q.216 2.296.341 4.599c.27 4.928.239 9.871.112 14.802-.244 9.5-.503 19.022-.875 28.517a126 126 0 0 1-.302 5.135q-.108 1.356-.25 2.709c-.047.449-.104.897-.149 1.346-.261 2.579.506-3.267.104-.717-.55 3.491-1.21 6.951-2.17 10.356a66 66 0 0 1-1.601 4.938c-.207.561-1.207 3.001-.303.871.937-2.21-.414.864-.675 1.4a53 53 0 0 1-2.463 4.494q-.673 1.095-1.401 2.156c-.243.355-.497.702-.744 1.054-1.216 1.725 1.606-1.967.624-.786-2.298 2.764-4.779 5.222-7.532 7.532-1.213 1.017 2.247-1.645.939-.732-.385.269-.761.553-1.147.821a54 54 0 0 1-2.403 1.577c-1.967 1.218-4.02 2.291-6.068 3.365a293 293 0 0 1-12.96 6.393q-3.28 1.52-6.596 2.962c-.829.361-4.156 2.011-1.085.476-1.192.596-2.502 1.035-3.739 1.533-17.064 6.872-34.703 12.248-52.591 16.508a461 461 0 0 1-27.93 5.721 520 520 0 0 1-17.142 2.682c-.948.133-4.674.554-.868.124-2.302.26-4.598.593-6.898.869-18.665 2.239-37.428 3.601-56.209 4.359-35.972 1.452-72.26 1.56-108.067-2.573a450 450 0 0 1-6.122-.75c-3.19-.414 2.427.342-.762-.103a398 398 0 0 1-17.053-2.747 354 354 0 0 1-26.007-5.769 307 307 0 0 1-24.954-7.682 276 276 0 0 1-12.542-4.809c-.406-.167-2.088-.828-.45-.18s-.041-.019-.446-.193a255 255 0 0 1-9.281-4.205c-7.867-3.754-15.551-7.909-22.962-12.498a64 64 0 0 1-2.57-1.657c-.399-.275-.787-.565-1.185-.842-1.16-.808.199-.517.681.528-.279-.605-1.568-1.328-2.083-1.804a39 39 0 0 1-2.122-2.12c-.517-.557-1.004-1.136-1.499-1.712-1.217-1.416.573.699.638.844-.147-.329-.522-.717-.738-1.03a36 36 0 0 1-2.7-4.564c-.183-.371-.338-.756-.523-1.125-.649-1.288.925 2.424.444 1.064-.276-.78-.59-1.544-.854-2.33a50 50 0 0 1-1.413-5.135 57 57 0 0 1-.492-2.498c-.096-.551-.465-3.102-.18-.992.308 2.282-.084-.925-.125-1.36a84 84 0 0 1-.227-2.971c-.516-8.719.153-17.47.002-26.199-.165-9.526-1.017-19.018-1.242-28.537a78 78 0 0 1 .065-5.916q.067-1.302.195-2.599c.047-.481.183-2.178.009-.265-.185 2.042.05-.149.139-.612.184-.961.401-1.916.662-2.859.142-.513 1.06-2.341.903-2.763.072.193-1.309 2.654-.344.844.227-.425.427-.861.659-1.284s.479-.837.736-1.244l.398-.606q.859-1.193-.043.007l-.462.601q.372-.46.759-.908.513-.598 1.045-1.179a48 48 0 0 1 1.917-1.977 65 65 0 0 1 2.307-2.144q.591-.522 1.196-1.028c.136-.114 2.176-1.704.654-.56-1.376 1.035.041-.019.387-.272q.642-.47 1.295-.926a86 86 0 0 1 2.651-1.78 114 114 0 0 1 5.842-3.513c8.329-4.702 17.001-8.853 25.668-12.888 8.795-4.095 17.57-8.237 26.477-12.089 2.169-.938 4.353-4.093 4.86-6.321.539-2.365.414-4.641-.533-6.886-1.922-4.555-7.478-7.876-12.477-6.124Z"/><path d="M157.311 817.231c-.264 10.032 6.722 19.177 15.442 24.452 34.689 20.977 84.903 28.173 124.369 31.526 101.707 8.643 200.81 1.369 295.993-38.395 9.528-3.981 20.725-13.205 15.569-22.006-1.66-2.833-4.692-4.581-7.609-6.165-80.262-43.592-175.635-59.881-266.219-45.468-5.186.825-10.585 1.844-14.721 5.019-8.51 6.533-8.508 19.354-15.18 27.688-8.029 10.031-23.18 10.853-36.05 8.979a138.3 138.3 0 0 1-42.428-13.414c-4.291-2.171-8.686-4.628-13.514-4.727-4.454-.091-8.665 1.848-12.619 3.859a224 224 0 0 0-39.871 25.936"/><path d="M149.797 817.231c-1.744 15.273 9.564 27.317 21.737 34.567 11.589 6.903 24.296 12.398 37.16 16.424 26.064 8.158 53.338 12.166 80.445 14.906 29.786 3.011 59.829 4.323 89.763 3.995 30.901-.339 61.736-2.726 92.296-7.339 29.988-4.526 59.621-11.435 88.426-20.941a511 511 0 0 0 21.792-7.743c7.323-2.791 15.084-5.37 21.927-9.212 6.181-3.47 12.44-8.618 15.509-15.16 4.174-8.897 2.605-19.292-5.289-25.681-6-4.856-13.177-8.305-19.991-11.866-6.376-3.333-12.908-6.368-19.492-9.267-13.942-6.138-28.149-11.656-42.644-16.347-28.386-9.187-57.668-15.04-87.322-18.201-28.74-3.064-57.826-3.243-86.586-.329-8.1.821-16.183 1.874-24.23 3.107-8.664 1.328-16.713 3.532-23.449 9.488-5.636 4.983-8.528 12.229-11.072 19.094-.472 1.273-.933 2.551-1.419 3.819-.186.487-1.258 3.094-.263.741 1.002-2.37-.245.477-.486.965-.594 1.201-1.283 2.33-1.992 3.465-1.122 1.796 2.021-2.314.577-.71-.556.617-1.107 1.228-1.714 1.797-.203.19-.832.615-.919.814-.046.105 2.497-1.811 1.476-1.132-.508.338-.999.699-1.519 1.02q-.911.563-1.866 1.047c-.274.139-.556.262-.83.401-1.405.713 2.951-1.139 1.461-.61-2.714.964-5.431 1.662-8.285 2.072l3.525-.474c-5.438.701-10.913.51-16.342-.178l3.529.474c-8.084-1.089-16.073-2.933-23.833-5.444a139 139 0 0 1-8.56-3.086c-.384-.153-.765-.314-1.15-.465-1.551-.607 2.712 1.198.512.22-3.688-1.64-7.277-3.454-10.913-5.2-5.169-2.482-10.25-4.451-16.04-4.723-5.853-.274-11.231 1.607-16.464 3.973-7.4 3.345-14.55 7.571-21.352 11.991-8.5 5.523-16.487 11.711-24.353 18.093-2.357 1.912-3.695 6.022-3.695 8.922 0 3.095 1.375 6.791 3.695 8.922 2.404 2.207 5.561 3.846 8.922 3.695 3.536-.158 6.186-1.476 8.922-3.695l-1.266.962 2.558-1.976c-2.679 1.907-.881.681-.287.23q1.305-.99 2.624-1.961a224 224 0 0 1 6.014-4.272c3.952-2.71 7.998-5.268 12.101-7.741a236 236 0 0 1 12.173-6.877c1.986-1.042 4.328-2.676 6.505-3.245-.493.129-2.642 1.008-.958.41.494-.175.983-.363 1.482-.523 1.245-.4 2.504-.675 3.796-.864l-3.509.472a19 19 0 0 1 3.846-.002l-3.515-.472c1.375.204 2.703.52 4.018.975 1.287.445 1.657 1.295-.692-.352.585.41 1.434.665 2.078.983 2.625 1.297 5.196 2.692 7.858 3.915 6.048 2.78 12.245 5.295 18.583 7.337 11.246 3.622 23.367 6.233 35.209 6.48 12.085.252 23.92-2.679 33.276-10.567 3.984-3.358 7.007-7.963 9.083-12.709a153 153 0 0 0 3.482-8.705c.358-.978.715-1.956 1.087-2.928.184-.481.397-.957.566-1.443-1.414 4.073-.702 1.624-.232.628a31 31 0 0 1 1.715-3.182c.26-.416.595-.812.826-1.241-1.734 3.216-1.344 1.639-.362.604.347-.366.723-.697 1.08-1.052 1.527-1.52-2.857 1.864-.201.241.527-.322 1.079-.587 1.618-.887 2.189-1.217-3.061 1.08-.053.092 5.939-1.952 12.435-2.519 18.605-3.354l-3.507.471a424.5 424.5 0 0 1 87.726-2.554c8.255.618 16.49 1.483 24.696 2.571l-3.443-.463c21.086 2.836 41.974 7.213 62.441 13.024a419 419 0 0 1 30.288 9.854 413 413 0 0 1 15.003 5.852l1.451.602c2.484 1.03-2.034-.872-.401-.171 1.084.465 2.17.927 3.252 1.398a401 401 0 0 1 7.895 3.535c4.762 2.193 9.522 4.395 14.231 6.704a354 354 0 0 1 7.023 3.531c1.062.55 2.125 1.102 3.141 1.733.372.231.806.618 1.19.785q-2.088-1.68-.708-.482l.494.492c1.809 1.588-1.424-1.995-.23-.14.711 1.104-.409.34-.411-1.154 0 .301.472 2.446.164.098-.284-2.158-.134-.356-.111.103.092 1.851.038-1.531.189-1.381s-.444 1.393-.472 1.59c.3-2.154.973-1.978.378-1.099-.228.337-1.745 2.397-.47.888 1.246-1.475-.825.862-1.232 1.268-.785.783-1.702 1.432-2.484 2.21 1.875-1.866 1.024-.788.312-.289q-.699.49-1.419.95a42 42 0 0 1-3.508 2.009c-.389.198-.784.383-1.175.577-1.996.987 1.831-.733.242-.084-1.182.483-2.36.975-3.542 1.456a512 512 0 0 1-24.499 9.234 516 516 0 0 1-32.256 10.043c-21.33 5.886-43.027 10.408-64.91 13.676a612 612 0 0 1-6.099.877c-.759.105-2.496.002.013.003-2.789-.002-5.787.751-8.56 1.08a619 619 0 0 1-16.759 1.761 659 659 0 0 1-32.876 2.164c-42.889 1.765-86.216-.042-128.83-5.225q-1.603-.195-3.205-.4c-.698-.089-1.463-.114-2.146-.279 2.46.593 1.311.179.639.085a519 519 0 0 1-7.951-1.158 398 398 0 0 1-14.548-2.518c-9.663-1.865-19.259-4.114-28.692-6.927-4.729-1.41-9.452-2.863-14.108-4.5a184 184 0 0 1-6.31-2.346c-1.033-.406-2.163-1.065-3.249-1.315 2.07.477.738.311.059.016q-1.119-.486-2.229-.989c-4.138-1.875-8.255-3.894-12.156-6.227-.977-.585-1.913-1.224-2.864-1.848-.372-.244-1.448-.824.196.18-.56-.342-1.086-.895-1.573-1.332a35 35 0 0 1-2.195-2.151c-.386-.414-.75-.844-1.126-1.267-1.459-1.641.928 1.468-.279-.367-1.216-1.849-2.043-3.942-3.252-5.764.795 1.199.255.707.079.155-.2-.627-.425-1.24-.597-1.876-.114-.421-.196-.847-.302-1.27-.517-2.063.107 1.581-.095-.581-.365-3.903-3.195-7.708-7.515-7.515-4.454.199-7.035 3.315-7.515 7.515ZM436.13 437.394c17.443-35.383 42.16-67.307 72.239-93.3 20.094 11.599 41.845 21.673 65.1 23.412 14.083 1.053 28.21-.995 42.093-3.536 25.351-4.64 51.447-11.477 70.759-28.222 22.381-19.406 32.169-49.032 38.591-77.629.749-3.333 1.684-7.005 4.57-8.916 1.783-1.181 4.012-1.464 6.15-1.706a824 824 0 0 1 76.857-5.073c5.072-.097 10.266-.129 15.053 1.517 10.151 3.49 16.425 14.164 17.127 24.682s-3.24 20.829-8.305 30.127c-11.587 21.27-29.104 38.855-47.546 54.818-82.122 71.084-189.219 115.65-298.786 117.472-10.514.175-21.212-.06-31.234-3.178s-19.415-9.504-23.879-18.831"/><path d="M443.94 441.959c6.937-13.566 15.461-26.342 24.434-38.641a295 295 0 0 1 3.32-4.463l.843-1.107c1.096-1.442-.202.275-.362.466.74-.884 1.424-1.821 2.142-2.724a297 297 0 0 1 7.296-8.816c4.991-5.8 10.09-11.496 15.451-16.959 6.102-6.218 12.449-12.208 19.161-17.764l-13.466 1.738c17.313 10.496 36.124 19.571 56.132 23.436a122.8 122.8 0 0 0 33.708 1.787c10.997-.926 21.937-2.785 32.755-4.94 18.628-3.71 37.397-9.036 53.862-18.759 16.641-9.827 29.818-24.319 38.858-41.337 4.929-9.28 9.254-19.151 12.427-29.173 1.515-4.784 2.861-9.621 4.09-14.486 1.152-4.563 1.789-9.482 3.598-13.839l-1.233 2.922c.284-.612 1.844-2.965.493-1.162-1.546 2.064 1.028-.534-.999 1.022-1.741 1.335-.123.221.328 0l-2.923 1.234c1.218-.484 2.448-.748 3.743-.937l-3.254.437c14.629-1.848 29.393-2.952 44.108-3.828q10.93-.65 21.875-1.011c10.945-.361 14.806-.86 22.063.036l-3.279-.441c2.146.314 4.251.786 6.259 1.618l-2.951-1.245c.894.399 1.766.833 2.607 1.338q.625.376 1.224.793c.862.597 1.504 1.634-.901-.72 1.409 1.379 2.796 2.649 4.013 4.218l-1.97-2.55a31.8 31.8 0 0 1 3.297 5.568l-1.284-3.042c.579 1.38 1.149 2.764 1.753 4.133l-1.286-3.047a33.8 33.8 0 0 1 2.124 7.996l-.46-3.426c.383 3.215.29 6.424-.124 9.631l.466-3.466c-.752 5.128-2.241 10.041-4.252 14.811l1.322-3.132c-4.137 9.549-9.866 18.385-16.197 26.616l2.061-2.667c-15.612 20.121-35.384 36.926-55.439 52.458l2.702-2.088c-26.426 20.408-54.75 38.259-84.711 53.016a492 492 0 0 1-25.827 11.799l3.184-1.343c-29.425 12.391-60.057 21.907-91.389 28.081a451 451 0 0 1-26.991 4.466l3.534-.475a437 437 0 0 1-34.079 3.206c-12.106.655-24.478 1.278-36.529-.328l3.53.474c-5.19-.743-10.277-1.964-15.123-3.988l3.171 1.338c-3.422-1.481-6.642-3.311-9.616-5.564l2.686 2.075c-2.41-1.885-4.569-3.996-6.451-6.411l2.075 2.685a32.5 32.5 0 0 1-3.163-5.144c-3.071-6.242-12.427-8.45-18.151-4.759-6.394 4.122-8.044 11.475-4.759 18.151 6.645 13.507 20.89 22.331 35.129 25.861 14.991 3.717 30.88 3.02 46.177 2.237 27.585-1.413 55.128-5.382 82.013-11.704 27.028-6.356 53.285-15.285 78.838-26.108a492 492 0 0 0 70.836-37.066c23.288-14.711 45.434-31.361 65.991-49.699 10.318-9.204 20.21-18.958 28.85-29.775 9.754-12.212 18.656-25.465 23.566-40.439 2.79-8.509 3.441-17.362 1.987-26.172-1.232-7.465-4.875-14.262-9.666-20.028-4.867-5.856-12.179-10.191-19.649-11.657-8.299-1.629-16.786-1.079-25.181-.806a824 824 0 0 0-59.465 4.09c-4.433.467-9.048.716-13.401 1.669-5.411 1.185-9.953 4.673-12.869 9.322-2.024 3.227-2.948 7.017-3.779 10.683-2.809 12.382-6.18 24.763-10.785 36.609q-.41 1.06-.838 2.111c-.157.385-.294.841-.493 1.199-.08.145 1.092-2.502.558-1.328a119 119 0 0 1-6.711 12.872 103 103 0 0 1-5.147 7.744l-.572.773c-1.117 1.524.597-.749.671-.853-.434.607-.93 1.176-1.403 1.753a90 90 0 0 1-3.155 3.644 85 85 0 0 1-6.953 6.784 84 84 0 0 1-1.797 1.515c-.653.535-2.828 2.06.014.033-1.36.971-2.684 1.984-4.07 2.921-5.461 3.694-11.302 6.744-17.335 9.386-1.93.845 2.275-.921.315-.14-.837.334-1.672.671-2.513.994a147 147 0 0 1-4.775 1.739 175 175 0 0 1-9.425 2.946c-6.471 1.831-13.032 3.329-19.625 4.646-7.08 1.415-14.197 2.691-21.351 3.668l3.1-.417c-10.918 1.449-21.911 1.991-32.864.592l3.078.414c-10.436-1.409-20.579-4.349-30.342-8.263-.563-.226-1.123-.458-1.685-.686-2.411-.979 2.443 1.078.061.022-1.112-.493-2.226-.978-3.332-1.483a213 213 0 0 1-7.239-3.475c-4.778-2.404-9.554-4.787-14.249-7.352-4.53-2.475-9.708-1.668-13.466 1.738-23.401 21.209-44.86 45.359-60.216 73.128-4.245 7.677-8.194 15.55-11.975 23.464-2.037 4.262-1.318 9.965 3.245 12.376 4.132 2.183 10.076 1.253 12.376-3.245Zm-180.782-7.449c11.233-16.991 21.968-34.309 32.928-51.479s22.179-34.189 33.533-51.109 22.737-33.645 34.248-50.369c11.76-17.087 23.701-34.062 35.235-51.301 11.394-17.029 22.579-34.2 34.732-50.702a915 915 0 0 1 4.57-6.151c1.497-1.998 1.669-5.645 1.038-7.935-.658-2.389-2.505-4.977-4.732-6.154-2.39-1.263-5.285-1.896-7.935-1.038l-2.46 1.038a10.35 10.35 0 0 0-3.694 3.694c-6.063 8.217-11.893 16.598-17.911 24.847-6.074 8.327-12.022 16.735-17.899 25.202-11.832 17.047-23.334 34.32-34.918 51.536-11.329 16.837-22.689 33.653-33.911 50.562-11.264 16.973-22.404 34.03-33.306 51.238-5.471 8.636-10.891 17.3-16.116 26.087-5.176 8.704-10.469 17.381-15.134 26.371a1440 1440 0 0 0-3.488 6.766c-1.08 2.106-1.53 4.461-.888 6.791.563 2.044 2.144 4.26 4.05 5.267 4.419 2.335 9.339.952 12.058-3.162ZM380.94 297.958c-8.201 18.596-20.018 35.417-31.607 52.015a3313 3313 0 0 0-37.463 54.86l-10.268 15.352-5.273 7.884c-2.151 3.216-4.837 6.403-5.445 10.314-.289 1.861-.511 3.693 0 5.549.605 2.197 1.959 4.045 3.74 5.421 3.248 2.509 7.989 3 11.592.816 1.18-.715 2.394-1.474 3.392-2.429 1.019-.975 1.832-2.281 2.614-3.456l2.489-3.739 4.564-6.855 9.266-13.918c6.176-9.276 12.274-18.6 18.353-27.94 11.677-17.941 23.728-35.717 34.493-54.23 6.103-10.496 11.382-21.492 15.491-32.925.701-1.949.23-5-.879-6.72-1.044-1.62-2.387-2.816-4.17-3.568-1.733-.731-3.838-1.035-5.678-.44-2.019.653-4.317 1.978-5.212 4.008Z"/></svg>