<?xml version="1.0" encoding="UTF-8"?><svg xmlns="http://www.w3.org/2000/svg" data-name="ARTWORK" viewBox="0 0 1000 1000"><path d="M267.902 75.967c-16.596-27.54-55.601-34.075-83.94-23.033-7.992 3.114-15.25 7.24-21.55 13.137-6.673 6.246-10.996 14.177-14.53 22.494-8.783 20.674-10.966 43.288-10.808 65.57.128 18.04 1.562 36.05 2.298 54.071.611 14.963 1.035 29.936 1.388 44.906.801 33.924.967 67.863.833 101.796-.301 76.333-2.148 152.653-4.373 228.951-2.042 70.07-4.586 140.123-7.082 210.177-1.291 36.226-5.05 73.551 1.365 109.433 3.695 20.665 12.047 41.305 27.312 56.144 13.495 13.118 32.955 22.856 52.183 21.495 9.369-.663 18.454-3.498 26.215-8.864 5.474-3.785 7.972-10.82 4.427-16.882-3.277-5.602-11.232-8.012-16.882-4.427-1.637 1.039-3.309 1.988-5.064 2.812 2.412-1.132-.901.286-1.209.386-.704.23-1.418.439-2.134.628-1.075.283-2.158.486-3.245.708 2.444-.5.705-.057.092-.02-2.215.134-4.41.247-6.629.128-.449-.024-4.112-.451-1.035.002a46 46 0 0 1-2.217-.387 53 53 0 0 1-5.514-1.411c-1.104-.346-2.182-.752-3.272-1.139-.446-.158-2.233-1.009-.134-.04a68 68 0 0 1-6.282-3.279c-1.725-1.026-3.362-2.157-5.014-3.294-3.158-2.175 1.069.922-.704-.537a91 91 0 0 1-2.323-1.961 71 71 0 0 1-6.479-6.489c-.326-.371-2.913-3.602-1.424-1.628-5.828-7.726-8.971-14.978-11.621-23.655-1.459-4.776-2.603-9.642-3.499-14.554-.88-4.826-1.289-8.143-1.743-13.815-.86-10.741-.898-21.531-.659-32.298.331-14.882 1-29.762 1.55-44.638 2.433-65.86 4.962-131.716 7.086-197.587 2.375-73.64 4.271-147.302 4.984-220.978.61-63.066.816-126.28-2.767-189.269-1.099-19.319-2.862-38.657-2.218-58.025.595-17.902 3.043-37.109 12.887-52.306.327-.505 2.202-2.974.186-.451q.574-.722 1.177-1.418a42 42 0 0 1 3.221-3.316c.684-.632 1.428-1.199 2.11-1.831-1.872 1.736-.857.621-.287.234 1.577-1.07 3.143-2.132 4.803-3.072a69 69 0 0 1 4.284-2.218c.47-.224 3.472-1.365.652-.314.617-.23 1.227-.475 1.847-.698a69 69 0 0 1 10.595-2.875c.66-.125 1.324-.225 1.985-.346 3.286-.604-2.512.15.835-.103 1.688-.127 3.365-.294 5.059-.355 3.706-.134 7.382.061 11.067.436.662.067 1.314.14 1.978.2 3.248.294-2.313-.5.905.124 1.614.313 3.228.594 4.827.987 1.566.385 3.117.83 4.645 1.343.603.202 1.195.437 1.798.637 1.797.597-.796-.513 1.423.624 1.395.715 2.777 1.417 4.114 2.241.657.405 1.294.836 1.938 1.262 2.427 1.603-.79-.709.568.377a38 38 0 0 1 3.399 3.08 46 46 0 0 1 1.553 1.674c1.947 2.187-.956-1.427.787.962 2.992 4.103 8.179 6.13 12.884 3.378 4.356-2.548 6.013-8.511 3.378-12.884"/><path d="M269.433 83.383c.175-1.049.367-2.084.653-3.109.021-.075 1.186-3.123.39-1.374.406-.892.908-1.733 1.42-2.566 1.544-2.511-1.201 1.155.754-1.04 2.654-2.979 4.732-4.368 9.256-6.476 1.88-.876.867-.373.447-.204a53 53 0 0 1 2.998-1.082 72 72 0 0 1 6.221-1.742c5.332-1.249 7.033-1.436 11.904-1.867 26.571-2.35 53.186-4.279 79.784-6.286a6987 6987 0 0 1 159.747-10.216c107.11-5.619 214.368-9.009 321.621-9.972q20.007-.18 40.015-.244c6.39-.021 12.788-.114 19.177-.022 2.113.031 4.228.1 6.332.307-2.323-.228 1.643.312 1.73.332.507.115 4.592 1.562 2.905.762.005.002 3.325 2.056 1.667.793.053.04 2.756 2.929 1.371 1.145.725.934 1.311 2.049 1.827 3.109-.994-2.042.495 1.562.526 1.666.36 1.21.648 2.44.894 3.677 0 .005.555 4.112.318 1.852.271 2.577.41 5.163.513 7.751.528 13.25.867 26.508 1.248 39.763 1.555 54.117 3.46 108.221 5.334 162.328 3.279 94.707 7.61 189.4 7.597 284.178-.011 79.773-2.072 159.64.278 239.395.222 7.529.373 15.059.66 22.586l9.239-12.135a715 715 0 0 1-28.171 4.66c-2.3.335-4.602.654-6.904.974-.585.081-2.552.334.236-.03l-1.611.213q-2.159.277-4.319.545c-1.341.167-2.68.345-4.019.525.143-.019 2.3-.294.758-.102-1.277.158-2.551.333-3.828.496q-3.863.492-7.73.954c-21.249 2.542-42.572 4.442-63.917 5.973-47.007 3.371-94.127 5-141.23 6.296-50.514 1.389-101.038 2.553-151.543 4.275-50.978 1.738-101.953 4.103-152.795 8.291-49.354 4.066-99.316 8.928-147.758 19.537-5.567 1.219-11.1 2.667-16.681 3.804-6.484 1.321-10.22 8.998-8.553 15.064 1.853 6.743 8.562 9.878 15.064 8.553 11.467-2.336 23.2-3.796 34.76-5.624q8.999-1.423 18.019-2.704a1199 1199 0 0 1 8.149-1.13c1.405-.188 2.81-.373 4.214-.565 1.742-.238 3.482-.487 5.223-.729l2.618-.36c.085-.012 2.243-.304.84-.115s.76-.101.844-.112l1.973-.26q4.947-.648 9.897-1.262 8.972-1.11 17.957-2.116a1744 1744 0 0 1 37.075-3.738c50.686-4.584 101.532-7.195 152.383-9.073 50.694-1.873 101.411-2.974 152.119-4.377 47.621-1.318 95.26-2.997 142.796-6.196 42.611-2.868 85.274-6.853 127.285-14.716a677 677 0 0 0 13.538-2.679c5.104-1.063 9.547-6.914 9.239-12.135-2.124-35.937-1.93-72.017-1.862-108.004.082-43.397.548-86.792.708-130.188.15-40.752.155-81.524-1.07-122.263-1.627-54.097-3.67-108.185-5.512-162.275-1.861-54.669-3.56-109.345-5.742-164.002-.557-13.945-1.158-27.89-1.659-41.837-.439-12.223.071-25.026-2.691-37.02-2.97-12.897-11.817-23.168-24.79-26.621-12.166-3.238-25.818-1.773-38.26-1.702-109.505.622-218.986 3.779-328.327 9.833A6993 6993 0 0 0 409.87 33.693c-27.728 2.186-55.439 4.55-83.13 7.164-20.202 1.907-43.997 1.619-61.279 13.934-7.869 5.607-13.867 13.534-15.35 23.267-.814 5.343 1.349 10.773 6.998 12.325 4.8 1.319 11.429-1.631 12.325-6.998Z"/><path d="M257.173 66.542c-10.438 26.601-11.768 55.264-11.659 83.524.112 28.968.348 57.894.041 86.866-.585 55.171-1.436 110.336-2.293 165.504-.776 49.962-1.754 99.921-2.982 149.874a15337 15337 0 0 1-4.218 143.866c-1.671 49.168-3.571 98.328-5.635 147.481-.269 6.415-.431 12.834-.631 19.252-.172 5.513 4.813 10.205 10.205 10.205 5.775 0 9.904-4.68 10.205-10.205 2.685-49.289 4.256-98.658 5.989-147.989 1.684-47.924 3.154-95.855 4.392-143.792 1.272-49.289 2.3-98.584 3.121-147.883.9-54.028 1.374-108.063 1.742-162.097.199-29.181.796-58.405.183-87.583-.576-27.433-2.248-55.235 2.739-82.386a148 148 0 0 1 5.172-20.124c1.449-4.349-1.676-9.274-5.929-10.442-4.814-1.323-8.761 1.644-10.442 5.929m489.747 84.993c-34.763 1.771-69.573 2.501-104.358 3.7-35.91 1.238-71.811 2.69-107.651 5.295-17.214 1.251-34.412 2.766-51.559 4.736q-6.02.69-12.032 1.462c-4.762.612-9.834.741-14.43 2.152-3.408 1.046-6.466 2.657-9.087 5.087-2.825 2.62-4.649 5.968-5.977 9.529-1.893 5.079-1.384 10.929-1.365 16.265.094 25.471.671 50.936 2.394 76.352 1.163 17.153 2.552 34.273 2.997 51.466q.102 3.972.162 7.944c.097 6.283 5.356 12.034 11.861 11.861 30.857-.822 61.716-1.619 92.566-2.666s61.806-2.347 92.677-4.172c30.82-1.822 61.612-4.169 92.326-7.323 4.142-.425 8.679-.428 12.636-1.754 4.167-1.396 7.993-3.588 11.085-6.751 3.131-3.202 5.204-6.914 6.689-11.103 1.337-3.774 1.365-7.937 1.551-11.898.685-14.571.384-29.062-.078-43.633-.956-30.16-3.854-60.34-8.18-90.197a650 650 0 0 0-1.582-10.382c-.413-2.561-2.931-5.344-5.074-6.598-2.366-1.385-5.854-1.971-8.507-1.113-2.671.864-5.249 2.52-6.598 5.074-1.47 2.783-1.612 5.416-1.113 8.507a786 786 0 0 1 3.023 20.326l-.393-2.925c4.41 32.954 6.515 66.199 5.553 99.445-.13 4.484-.245 8.97-.392 13.454s-.12 9.041-.655 13.481l.423-3.145a18.2 18.2 0 0 1-1.096 4.096l1.193-2.826a17.8 17.8 0 0 1-2.031 3.566l1.85-2.395a17.2 17.2 0 0 1-2.81 2.873l2.395-1.85a16.2 16.2 0 0 1-3.434 2.017l2.827-1.193a15.7 15.7 0 0 1-3.495.949l3.146-.423c-18.297 2.217-36.736 3.62-55.109 5.042-18.485 1.43-36.989 2.623-55.501 3.639-37.049 2.033-74.133 3.356-111.221 4.448-20.889.615-41.781 1.156-62.672 1.708l11.861 11.861c-.238-15.566-1.1-31.085-2.234-46.608-1.256-17.182-2.272-34.363-2.751-51.587-.2-7.198-.334-14.398-.421-21.599a1827 1827 0 0 1-.13-19.127c-.005-2.352-.206-4.768.014-7.11l-.421 3.136c.159-1.164.445-2.252.872-3.345l-1.184 2.805a14.5 14.5 0 0 1 1.709-2.947l-1.828 2.366a10.7 10.7 0 0 1 1.631-1.622l-2.359 1.822a12.4 12.4 0 0 1 2.343-1.314l-2.774 1.171c4.54-1.779 9.845-2.044 14.643-2.691l-3.04.408c17.217-2.312 34.497-4.128 51.8-5.645 18.023-1.58 36.074-2.835 54.133-3.924 18.302-1.103 36.613-2.092 54.922-3.064 18.059-.958 36.122-1.835 54.169-3.004 17.3-1.121 34.596-2.323 51.873-3.768q3.108-.26 6.215-.531c2.403-.209 4.542-.853 6.298-2.609 1.545-1.545 2.708-4.079 2.609-6.298-.207-4.622-3.923-9.16-8.906-8.906ZM231.565 972.213c50.664 6.574 101.577 8.464 152.612 9.43 51.499.975 103.008 1.497 154.511 2.195s102.811 1.4 154.22 1.879l154.962 1.443 77.852.725c12.003.112 24.886.937 36.295-3.486 11.757-4.558 21.594-13.763 24.559-26.405 1.635-6.973.447-13.261-2.508-19.659-2.395-5.184-9.546-6.741-14.366-4.707-5.701 2.406-7.485 7.787-6.661 13.571-.285-2-.222.368-.214 1.132-.022-2.125-.02-.226-.243.853a33 33 0 0 1-.802 3.081c-.084.273-.84 1.73-.165.462.721-1.353-.442.65-.573.875-.282.481-2.005 2.764-1.153 1.806.897-1.008-1.512 1.474-1.901 1.883-1.629 1.712 1.281-.614-.687.636-1.139.724-2.292 1.402-3.521 1.966-1.392.639-.112.003.132-.08-.607.205-1.212.407-1.826.591a41 41 0 0 1-3.725.918c-.629.126-1.26.237-1.893.342.289-.048 1.783-.137.256-.057-1.508.079-3.011.252-4.522.317-5.733.245-11.488.065-17.224.017l-75.627-.64-150.513-1.274c-50.171-.425-100.341-.66-150.513-.872-50.084-.212-100.167-.45-150.251-.606-49.442-.155-98.977-.806-148.312-4.343a998 998 0 0 1-18.198-1.475c-5.247-.472-9.741 4.815-9.741 9.741 0 5.827 4.499 9.061 9.741 9.741Zm21.115-58.973c45.167-.69 90.334-1.38 135.502-1.958 47.185-.603 94.375-1.01 141.558-1.779 48.203-.786 96.406-1.538 144.608-2.359 47.576-.81 95.152-1.624 142.729-2.389a114106 114106 0 0 0 152.526-2.544c5.664-.099 10.483-4.747 10.483-10.483 0-5.581-4.798-10.614-10.483-10.483-45.167 1.039-90.334 2.039-135.502 3.02a68173 68173 0 0 1-141.558 2.912c-48.203.947-96.406 1.935-144.608 2.917-47.58.969-95.154 2.24-142.729 3.43-45.317 1.133-90.635 2.211-135.953 3.343q-8.286.206-16.573.416c-10.246.258-10.297 16.114 0 15.957"/><path d="M247.882 858.876c-.389-.318-.784-.629-1.171-.949l2.138 3.668c-.328-1.135-.732-2.291-1.283-3.335-.592-1.12-1.584-2.027-2.5-2.891a55 55 0 0 0-3.03-2.652c-2.648-2.149-5.247-4.042-8.286-5.569-5.402-2.716-10.998-4.722-16.971-5.67-5.889-.935-11.887-1.529-17.832-.773-3.409.434-6.782.911-10.103 1.806-3.351.903-6.535 2.204-9.717 3.581-10.719 4.64-19.506 12.792-25.963 22.422-6.389 9.528-9.959 20.664-11.223 31.996-.707 6.338-.371 12.658 1.044 18.88 1.346 5.919 3.668 11.976 7.341 16.842 1.468 1.944 3.113 3.755 5.628 4.327 2.106.48 4.132.369 6.131-.475 4.258-1.797 6.726-6.549 5.452-11.109-1.107-3.965-2.084-7.982-2.641-12.064l.389 2.898c-.405-3.123-.464-6.27-.541-9.415-.078-3.19.118-6.378.542-9.539l-.418 3.108c.79-5.641 2.201-11.153 4.389-16.417l-1.183 2.803c1.96-4.644 4.469-9.029 7.546-13.025l-1.835 2.375c2.558-3.279 5.472-6.249 8.749-8.812l-2.375 1.835a50.8 50.8 0 0 1 11.153-6.507l-2.803 1.183a53.8 53.8 0 0 1 13.378-3.617l-3.12.419c5.36-.7 10.697-.837 16.067-.143l-3.031-.407c5.806.788 11.65 2.306 17.06 4.564l-2.522-1.064c2.295.976 4.642 1.786 6.939 2.753l-2.357-.995c1.036.444 2.062.912 3.071 1.414 1.032.514 2.088 1.132 3.196 1.437 1.161.32 2.438.329 3.644.359l-4.196-1.135.302.223-1.68-1.298q.443.352.882.71c1.758 1.435 3.517 2.432 5.871 2.432 2.037 0 4.469-.905 5.871-2.432 1.453-1.582 2.531-3.66 2.432-5.871-.093-2.071-.756-4.503-2.432-5.871Z"/><path d="M145.808 184.996c-19.847-.946-40.031-1.862-59.31 2.946s-37.874 16.255-46.522 34.143c-7.386 15.278-6.721 33.042-6.091 50 6.831 183.994 2.582 390.227-8.199 574.032-1.427 24.328-2.039 51.091 13.101 70.187 7.182 9.058 17.22 15.354 27.286 21.036 33.606 18.972 93.939 22.261 131.51 31.08-56.266-8.85-59.574-66.562-61.684-96.212-1.531-21.512 2.241-43.01 3.278-64.551 1.354-28.114-1.955-56.211-4.045-84.279-13.353-179.298 22.967-359.369 11.758-538.814"/><path d="M145.808 175.348c-18.73-1.856-37.131-2.949-55.811.155-15.792 2.624-30.352 9.02-42.813 19.07-12.735 10.27-21.1 25.157-23.76 41.253-2.825 17.096-1.412 34.426-.843 51.644 2.306 69.867 3.044 139.785 2.611 209.687-.439 70.918-2.086 141.828-4.808 212.695a6800 6800 0 0 1-4.791 104.022c-.87 16.17-2.262 32.378-2.479 48.573-.217 16.165 1.43 32.432 7.981 47.352 12.41 28.267 44.702 43.326 72.879 51.107 27.004 7.457 54.961 10.522 82.484 15.4 6.013 1.066 12.008 2.229 17.957 3.611l6.338-22.991c-4.918-.806-9.775-1.909-14.471-3.596-.885-.318-3.299-1.344-1.158-.385a80 80 0 0 1-2.928-1.366 60 60 0 0 1-6.179-3.547c-.844-.555-1.659-1.147-2.487-1.725-1.696-1.185 1.518 1.342-.66-.55-1.58-1.373-3.126-2.768-4.58-4.276-1.337-1.386-2.527-2.88-3.796-4.323 1.453 1.652.284.374-.419-.611a69 69 0 0 1-1.826-2.696c-2.121-3.292-3.967-6.757-5.574-10.328-.221-.491-.432-.986-.649-1.479.017.039.782 2.025.363.829-.311-.889-.708-1.75-1.035-2.633-.743-2.01-1.383-4.064-1.983-6.12a132 132 0 0 1-2.716-11.18 169 169 0 0 1-1.383-7.986c-.184-1.232-.427-3.303-.117-.734-.79-6.541-1.367-13.09-1.831-19.661-.982-13.897-.123-27.679 1.134-41.53 1.347-14.845 2.528-29.617 2.29-44.537-.24-15.1-1.44-30.162-2.684-45.206-4.933-59.641-5.382-119.222-2.844-178.997 2.529-59.539 7.346-118.946 10.938-178.424 3.6-59.614 6.007-119.41 3.526-179.121-.307-7.397-.694-14.79-1.15-22.179-.387-6.277-5.074-11.643-11.643-11.643-6.003 0-12.032 5.335-11.643 11.643 3.744 60.672 2.196 121.499-1.078 182.154-3.281 60.779-8.233 121.458-11.113 182.259-2.861 60.402-3.577 120.969 1.283 181.29 2.454 30.46 5.178 60.678 2.589 91.232-1.299 15.331-3.135 30.686-2.539 46.099.283 7.3.913 14.633 1.71 21.894 1.863 16.975 5.233 33.662 12.73 49.127 8.43 17.388 22.78 30.324 40.722 37.31 4.799 1.868 9.786 3.154 14.863 3.986 6.13 1.004 13.131-1.592 14.664-8.326 1.387-6.088-1.829-13.155-8.326-14.664-25.851-6.006-52.378-8.614-78.387-13.837-12.909-2.593-25.811-5.677-38.144-10.346-.649-.246-4.764-1.923-2.429-.923a110 110 0 0 1-3.667-1.65c-2.857-1.35-5.624-2.858-8.361-4.438-7.008-4.045-12.855-7.714-18.115-12.915-8.961-8.86-13.102-21.922-14.189-33.982-1.358-15.06.003-30.234.856-45.283a6724 6724 0 0 0 4.905-99.761c2.884-69.007 4.745-138.058 5.491-207.122.735-67.96.428-135.943-1.369-203.885a4555 4555 0 0 0-1.568-49.304c-.31-8.314-.677-16.646-.172-24.96.375-6.17 1.741-14.289 4.279-19.852 1.38-3.024 3.124-5.866 5.054-8.567-1.122 1.569 1.524-1.804 1.783-2.092a60 60 0 0 1 4.066-4.107 55 55 0 0 1 3.532-3.015c-1.377 1.067.192-.114.408-.259.81-.544 1.6-1.114 2.417-1.647a77.5 77.5 0 0 1 9.24-5.155c2.349-1.111 4.085-1.844 7.575-3.032 3.728-1.269 7.542-2.279 11.395-3.087 7.977-1.672 16.066-2.303 24.318-2.63 8.706-.345 17.424-.398 26.138-.433 5.214-.021 9.648-4.42 9.648-9.648 0-5.646-4.441-9.132-9.648-9.648Zm295.12 356.464c25.372 18.115 58.927 20.299 88.509 13.311 31.529-7.448 59.192-25.891 84.612-45.258 3.688-2.81 7.355-5.649 11.012-8.5 3.071-2.393 6.266-4.696 9.176-7.284 3.619-3.219 6.637-7.202 8.125-11.854 1.91-5.972.118-12.273-3.858-16.919-5.574-6.514-15.659-9.207-23.951-8.735-8.177.465-16.29 3.236-22.848 8.183-4.182 3.154-7.471 6.55-10.538 10.816-2.531 3.522-4.313 7.398-5.957 11.395-3.092 7.521-4.45 15.8-4.818 23.893-.415 9.133 1.633 19.395 8.933 25.61 6.71 5.713 15.123 7.843 23.835 7.541 8.198-.284 16.237-2.291 24.215-4.017l26.662-5.77c17.888-3.871 35.782-7.718 53.664-11.621l12.983-2.834-12.349-16.063c-4.929 7.385-4.106 16.536-.679 24.279 3.39 7.658 10.225 12.542 17.768 15.576 6.83 2.747 14.473 3.143 21.758 3.266 7.876.133 15.757-.077 23.615-.625 9.465-.66 18.871-2.18 28.145-4.155 4.805-1.023 7.693-6.26 7.077-10.841-.598-4.45-4.805-9.061-9.704-8.567-9.949 1.004-19.972 1.62-29.963 2.01-9.444.369-19.143.606-28.539-.588l2.956.397c-3.421-.47-6.773-1.157-9.986-2.451l2.642 1.115c-1.869-.798-3.64-1.76-5.267-2.983l2.228 1.722a20 20 0 0 1-3.36-3.412l1.715 2.22a20.8 20.8 0 0 1-2.393-4.16l1.102 2.611c-.528-1.32-.919-2.665-1.118-4.074l.389 2.899a15.5 15.5 0 0 1 .005-3.649l-.39 2.902a13.5 13.5 0 0 1 .848-3.047l-1.102 2.61c.325-.71.698-1.371 1.135-2.017 2.44-3.602 1.652-8.899-.855-12.144-2.778-3.595-7.101-4.847-11.494-3.919-29.319 6.193-58.623 12.461-87.931 18.707-7.293 1.554-14.595 3.437-21.99 4.441l2.95-.396c-3.75.48-7.53.668-11.288.171l2.935.394c-1.832-.274-3.606-.711-5.33-1.394l2.631 1.11a17.8 17.8 0 0 1-3.857-2.221l2.224 1.719a16.8 16.8 0 0 1-2.576-2.593l1.716 2.221a17.4 17.4 0 0 1-1.934-3.284l1.104 2.616c-.723-1.74-1.177-3.528-1.461-5.388l.39 2.904c-.594-4.511-.288-9.115.286-13.612l-.388 2.886c.691-5.075 1.916-10.041 3.865-14.784l-1.087 2.575c.951-2.241 2.041-4.416 3.33-6.483q.444-.713.918-1.406c.215-.315 1.719-2.326.481-.728s.329-.382.571-.67q.53-.63 1.089-1.236a32 32 0 0 1 2.221-2.177c.295-.263 2.138-1.736.53-.504s.29-.192.612-.414a35 35 0 0 1 5.926-3.254l-2.481 1.047a32.7 32.7 0 0 1 7.928-2.194l-2.718.365a28.4 28.4 0 0 1 7.093-.017l-2.681-.36c1.176.172 2.339.404 3.481.737.644.188 1.289.513 1.938.659q-2.368-1.034-.952-.386.356.17.699.36c.507.275 1.029.762 1.557.964q-1.94-1.56-.796-.564.283.26.538.547.758.842-.745-1 .287.419.516.871-.913-2.367-.437-.89.132.497.193 1.008l-.348-2.592a9.2 9.2 0 0 1-.053 1.99l.348-2.588c-.062.321-.165.652-.217.975-.281 1.75.915-1.703.339-.658-.344.624-.708 1.22-1.07 1.833-.647 1.095 1.659-1.862.35-.434-.253.276-.49.565-.744.84a31 31 0 0 1-2.017 1.977c-2.51 2.264-5.255 4.289-7.902 6.388a1160 1160 0 0 1-8.75 6.881c-.531.413-2.658 2.031-.504.394-.658.5-1.309 1.008-1.965 1.51a577 577 0 0 1-4.691 3.554c-11.508 8.624-23.399 16.794-36.032 23.693a196 196 0 0 1-9.55 4.888 178 178 0 0 1-5.861 2.666l-.282.122q-1.397.597.539-.224c-.509.495-1.896.78-2.562 1.045-6.275 2.499-12.709 4.578-19.283 6.132a129 129 0 0 1-9.356 1.853c-.831.133-1.664.252-2.497.373-1.219.178 2.01-.25.786-.109-.465.054-.928.114-1.393.167q-2.507.287-5.022.47c-6.475.471-12.992.415-19.452-.246-.915-.094-1.826-.228-2.741-.318.141.014 2.338.345.79.1-.544-.086-1.089-.164-1.633-.253a96 96 0 0 1-5.126-.983 89 89 0 0 1-10.257-2.899q-1.289-.45-2.561-.94c-.678-.262-3.415-1.546-.868-.325-1.644-.788-3.319-1.499-4.942-2.334a79 79 0 0 1-9.402-5.708c-3.861-2.718-10.173-.821-12.312 3.228-2.452 4.641-.874 9.384 3.228 12.312Zm16.877 93.272c45.659-1.37 91.341-2.418 136.987-4.157l68.838-2.622c22.267-.848 44.558-1.468 66.805-2.748 25.186-1.449 50.538-4.235 74.984-10.657l-12.384-12.384c-.539 1.62 1.22-2.504-.01-.261-.85 1.549 1.674-1.98.194-.375q-.843.758 1.05-.8a8 8 0 0 1-.824.475q2.393-.928.974-.473-.458.122-.929.177c-2.108.324-4.716 2.541-5.683 4.37-1.015 1.921-1.419 3.901-1.128 6.063.623 4.639 4.571 8.226 9.339 8.245 7.652.031 14.041-4.916 16.432-12.07 2.497-7.473-5.298-14.235-12.384-12.384-11.471 2.997-23.133 5.161-34.878 6.757l2.682-.36c-19.415 2.602-38.999 3.699-58.555 4.597-20.275.932-40.554 1.785-60.831 2.673a15152 15152 0 0 0-121.843 5.845l-68.838 3.574c-4.306.224-8.464 3.638-8.257 8.257.195 4.363 3.632 8.396 8.257 8.257Z"/></svg>