<?xml version="1.0" encoding="UTF-8"?><svg xmlns="http://www.w3.org/2000/svg" data-name="ARTWORK" viewBox="0 0 1000 1000"><path d="M49.02 522.82a1384 1384 0 0 0 164.506-112.085c45.564-36.095 88.455-75.265 128.951-116.955 18.497-19.043 36.675-38.418 54.406-58.177 8.304-9.254 16.398-18.692 24.429-28.183q5.963-7.05 11.867-14.148c2.099-2.522 4.179-5.065 6.429-7.455a65 65 0 0 1 3.879-3.766c.02-.018 1.728-1.329.73-.616-1.041.745 1.693-.993 1.931-1.153 1.877-1.265 1.109-.591.363-.306a16.6 16.6 0 0 1 2.535-.756c-.436.088-2.528 0 1.105-.093 1.05-.027 2.094.026 3.143.082 2.585.138 7.197 1.237 10.935 1.974a6039 6039 0 0 0 81.506 15.483 6055 6055 0 0 0 107.283 18.626c72.827 11.971 145.871 22.448 219.06 31.947a6327 6327 0 0 0 27.44 3.498l-11.679-20.353c-34.889 58.369-74.521 112.125-117.826 163.434-43.978 52.106-91.29 101.269-139.894 149.052-24.366 23.955-49.083 47.549-73.943 70.989a12531 12531 0 0 1-37.038 34.756c-6.004 5.615-11.883 11.42-18.09 16.812-.688.598-1.385 1.215-2.107 1.776 1.369-1.064-.437.286-.609.396-1.5.964-3.01 2.003-4.662 2.695 2.353-.985-3.553.69-1.234.365-1.001.14-2.086.078-3.1.055-3.479-.079.763.364-2.674-.316-18.134-3.588-36.111-8.431-54.059-12.847a4041 4041 0 0 1-163.723-43.95c-71.897-20.927-143.228-43.788-213.863-68.646a4661 4661 0 0 1-26.356-9.378c-6.794-2.436-15.381 2.744-16.947 9.622-1.763 7.741 2.349 14.339 9.622 16.947 71.806 25.748 144.383 49.381 217.547 70.967 73.17 21.588 146.981 41.031 221.264 58.401 9.509 2.223 19.378 5.337 29.187 5.688 9.683.346 18.387-3.637 25.889-9.415 13.453-10.361 25.46-22.991 37.877-34.562 25.366-23.638 50.644-47.372 75.623-71.419 49.87-48.01 98.543-97.358 144.095-149.513s88.1-107.18 124.829-165.963a1083 1083 0 0 0 13.549-22.293c2.459-4.156 2.433-9.495 0-13.654-2.63-4.494-6.778-6.107-11.679-6.699-72.575-8.769-144.728-19.076-217.181-30.692-72.798-11.672-145.197-25.229-217.622-38.976-10.282-1.952-20.025-2.545-29.723 2.005-7.1 3.331-12.839 9.1-17.819 15.034-7.919 9.435-15.696 18.987-23.667 28.379-16.85 19.854-33.697 39.758-51.376 58.885-38.946 42.135-80.356 82.058-123.803 119.534-49.035 42.296-101.155 80.912-155.827 115.616a1435 1435 0 0 1-22.471 13.965c-9.776 5.955-.962 21.159 8.99 15.381Z"/><path d="M474.702 278.44c-5.408 5.14-9.334 11.984-11.43 19.123-.681 2.321-.334 5.525.992 7.581 1.302 2.02 3.403 4.119 5.88 4.521 18.292 2.968 37.627 1.445 55.568-2.884l-10.323-17.733c-2.006 2.174-4.077 4.29-6.119 6.43-2.697 2.825-3.848 6.775-2.799 10.588.949 3.447 3.96 6.884 7.6 7.6 10.099 1.988 20.309 3.481 30.461 5.17 10.087 1.678 20.188 3.266 30.286 4.875 19.911 3.173 39.865 6.15 59.739 9.544 4.942.844 9.848 1.845 14.771 2.777s9.713 1.974 14.381 3.901l-1.957-.826q.402.168.801.343c1.976.858 4.043 1.518 6.219.814 1.701-.551 3.094-1.471 4.193-2.892 2.262-2.928 2.475-8.029-.631-10.598-7.987-6.606-17.377-11.319-27.572-13.377-9.594-1.937-19.304-3.36-28.956-4.98-20.563-3.451-41.111-7.02-61.697-10.331-12.369-1.989-24.725-4.169-37.146-5.795l7.695 18.577c1.907-2.274 3.789-4.573 5.734-6.815 1.572-1.81 2.594-3.681 2.918-6.092.304-2.262.015-4.789-1.259-6.765-2.559-3.969-7.301-6.156-11.982-4.876a142 142 0 0 1-18.184 3.717l2.746-.369c-5.284.704-10.602 1.125-15.932 1.233s-10.617-.275-15.942-.561l9.487 12.454a32 32 0 0 1 1.652-5.901l-.959 2.272a32.4 32.4 0 0 1 3.971-6.674l-1.467 1.899a34 34 0 0 1 2.444-2.764c3.429-3.476 3.728-9.763 0-13.186-3.8-3.488-9.406-3.592-13.186 0Zm-71.06 87.197c29.626 7.284 59.336 14.294 89.273 20.187 29.968 5.9 60.048 11.131 90.218 15.884a2918 2918 0 0 0 25.323 3.876c5.093.757 10.207 1.379 15.315 2.026 4.297.544 8.601 1.203 12.925 1.462 2.432.146 5.642-1.23 7.282-3.016 1.561-1.701 2.523-3.614 2.832-5.913.647-4.818-2.351-10.185-7.376-11.299-3.834-.85-7.737-1.373-11.613-2-3.721-.602-7.437-1.234-11.159-1.827-7.459-1.189-14.941-2.243-22.404-3.404a2964 2964 0 0 1-45.215-7.396c-30.129-5.168-60.203-10.644-90.288-16.055a2984 2984 0 0 1-50.427-9.521c-2.347-.464-4.673-.351-6.791.888-1.828 1.07-3.572 3.166-4.05 5.267-1.037 4.551 1.366 9.664 6.156 10.842Zm-34.233 66.729c5.204.356 10.393.89 15.564 1.577l-2.472-.332c18.984 2.554 37.605 7.167 56.038 12.293 18.625 5.179 37.155 10.697 55.956 15.223a444 444 0 0 0 15.751 3.508q3.95.801 7.918 1.511c2.394.428 5.025.562 7.312 1.416l-2.523-1.065c.385.168.729.355 1.067.605l-2.139-1.653q.223.18.399.406l-1.653-2.139q.171.222.273.483l-1.066-2.526.081.273-.378-2.811q.057.241.032.486l.378-2.811-.077.32 1.063-2.518a.8.8 0 0 1-.15.26l1.636-2.118-.111.107 2.11-1.63a1.3 1.3 0 0 1-.279.172l2.471-1.043a2.7 2.7 0 0 1-.5.149l2.714-.365a3 3 0 0 1-.512.018l2.68.36a1.6 1.6 0 0 1-.42-.111l2.382 1.005-.102-.065 2.012 1.554-.079-.08 1.55 2.006-.05-.093.996 2.361-.018-.105v5.24a.54.54 0 0 1 .071-.258l-.987 2.338.097-.148c2.263-3.467 1.529-9.002-1.523-11.805-3.275-3.006-7.86-3.653-11.805-1.523s-6.247 7.294-4.895 11.631c.888 2.849 2.683 5.177 5.295 6.64 2.734 1.532 6.056 1.991 9.085 1.135 4.759-1.345 8.163-5.847 8.125-10.814-.048-6.346-5.117-11.525-11.191-12.667-3.044-.572-6.122-.983-9.171-1.537-12.11-2.199-24.094-5.041-36.01-8.113-23.908-6.164-47.649-13.044-71.928-17.659-14.19-2.697-28.575-4.666-43.015-5.272-4.758-.2-9.305 4.324-9.092 9.092.233 5.204 3.998 8.744 9.092 9.092Z"/><path d="M46.103 636.838c71.026 24.84 141.486 51.202 213.07 74.431 72.905 23.657 146.548 45.34 221.735 60.515 9.299 1.877 19.221 4.918 28.766 4.049 10.775-.981 19.11-6.464 27.388-12.979 14.098-11.095 27.948-22.525 41.784-33.945 27.476-22.677 54.581-45.798 81.35-69.306 52.731-46.308 103.76-94.586 152.252-145.328 49.397-51.689 96.008-105.963 139.471-162.735 5.398-7.05 10.74-14.142 16.037-21.268 4.545-6.114.012-17.304-7.529-18.507-17.291-2.758-34.651-5.122-51.979-7.635-10.513-1.525-21.009-3.175-31.508-4.793-4.132-.637-8.261-1.277-12.401-1.858q-2.329-.326-4.656-.66c-.619-.089-1.237-.182-1.856-.269q-6.462-.865-.801-.113l-.709-.112c-6.871-1.088-13.873 1.764-15.863 9.007-1.685 6.132 2.088 14.767 9.007 15.863 2.664.422 5.325.857 7.99 1.273 2.804.437 5.609.834 8.42 1.226-4.296-.598-.332-.045.561.077l3.443.469c10.547 1.435 21.105 2.805 31.643 4.304 17.34 2.466 34.708 4.799 52.011 7.519l-7.529-18.507c-41.371 55.926-86.071 109.348-133.379 160.342s-96.906 99.243-148.427 145.649c-25.997 23.416-52.483 46.271-79.346 68.688a3730 3730 0 0 1-40.931 33.634 4061 4061 0 0 1-20.748 16.709c-5.332 4.265-10.71 9.083-17.791 8.813-8.401-.32-17.294-3.164-25.546-4.891a1468 1468 0 0 1-27.279-5.988c-18.316-4.2-36.549-8.76-54.741-13.466-36.753-9.508-73.222-20.09-109.498-31.273-71.222-21.955-141.958-45.53-212.942-68.243a6894 6894 0 0 0-24.734-7.865c-11.018-3.48-15.459 13.426-4.735 17.176Z"/><path d="M111.701 658.182 69.482 693.12c138.924 65.221 286.451 112.088 437.545 139.002 9.117 1.624 18.506 3.174 27.573 1.292 8.615-1.788 16.284-6.54 23.661-11.335 85.796-55.767 159.244-128.215 232.038-200.131L975 439.476c-28.684-9.692-60.832-19.255-88.271-6.456-11.755 5.483-21.365 14.613-30.514 23.806-39.601 39.792-74.806 83.698-112.716 125.105a1285 1285 0 0 1-205.595 181.238c-4.979 3.521-10.103 7.066-15.966 8.744-6.191 1.773-12.771 1.343-19.196.897-34.004-2.356-68.115-4.726-101.552-11.345-98.858-19.569-187.564-75.314-286.18-96.07"/><path d="M104.845 651.327c-14.485 11.223-28.951 22.461-43.317 33.84-5.507 4.362-3.72 14.695 2.276 17.665 63.545 31.481 130.012 57.679 197.331 79.893 66.676 22.001 134.772 40.326 203.677 53.892 17.904 3.525 36.098 7.713 54.286 9.395 9.413.87 18.749-.287 27.485-3.929 7.799-3.252 14.772-7.791 21.781-12.46 29.03-19.335 56.839-40.442 83.637-62.759 52.748-43.928 101.565-92.298 150.37-140.491l161.011-158.991c6.644-6.561 13.512-12.823 20.444-19.078 7.604-6.861 2.627-17.708-5.509-20.865-30.664-11.899-66.227-20.35-97.538-6.135-14.928 6.777-26.856 18.874-38.204 30.389-12.261 12.442-24.092 25.292-35.73 38.317-22.906 25.636-45.065 51.931-68.149 77.409a1288 1288 0 0 1-69.779 71.283 1286 1286 0 0 1-74.867 65.468 1181 1181 0 0 1-37.574 29.17 1287 1287 0 0 1-20.591 15.019c-5.706 4.075-12.61 9.488-18.259 10.941-6.141 1.58-15.443.192-22.801-.323-8.799-.615-17.597-1.253-26.387-1.987-17.324-1.447-34.503-3.227-51.586-6.101-31.912-5.369-62.958-14.646-93.352-25.631-60.696-21.938-119.127-50.411-181.672-67.044a474 474 0 0 0-23.304-5.564c-6.978-1.482-14.292 2.062-16.262 9.234-1.808 6.578 2.218 14.772 9.234 16.262 63.386 13.467 122.341 40.993 182.476 64.244 29.78 11.515 60.037 22.041 91.191 29.198 34.843 8.004 70.554 11.18 106.144 13.711 8.564.609 17.35 1.803 25.923.856 9.222-1.018 17.27-4.534 24.878-9.753 13.486-9.25 26.609-19.089 39.612-29.001 26.841-20.462 52.957-41.853 78.165-64.298a1285 1285 0 0 0 71.665-68.959c23.512-24.448 45.787-50.006 68.067-75.569 22.622-25.955 45.286-52.059 69.865-76.2 11.151-10.952 21.52-18.685 36.808-21.686 2.02-.396 5.319-.631 8.633-.701 4.136-.086 8.246.174 12.362.55 2.235.204 5.784.815 8.993 1.454 4.187.835 8.314 1.884 12.448 2.947 7.717 1.985 15.301 4.379 22.955 6.578l-5.509-20.865c-25.277 27.341-52.466 52.968-78.947 79.142l-78.864 77.95c-48.871 48.305-97.263 97.286-149.125 142.423-25.005 21.763-50.798 42.629-77.808 61.862-13.172 9.38-26.669 19.797-41.259 26.881-14.349 6.968-31.656 1.256-46.485-1.607-68.185-13.161-135.628-29.894-201.872-50.757-65.804-20.725-130.253-45.312-193.471-72.907-7.742-3.379-15.462-6.808-23.184-10.229l2.276 17.665c13.79-11.921 27.461-23.968 41.121-36.036 3.926-3.468 3.541-10.169 0-13.711-4.089-4.089-9.557-3.218-13.711 0Z"/></svg>