<?xml version="1.0" encoding="UTF-8"?><svg xmlns="http://www.w3.org/2000/svg" data-name="ARTWORK" viewBox="0 0 1000 1000"><path d="M606.383 360.423c1.034 3.37 2.373 6.638 3.843 9.84l-.932-2.208c1.347 3.26 2.863 6.452 4.668 9.486 1.781 2.993 3.998 5.755 6.268 8.402 4.184 4.878 9.091 9.048 14.314 12.775 9.677 6.906 21.455 11.739 33.191 13.678 8.228 1.36 16.122 1.542 24.364.233l-11.618-19.958c-7.787 7.142-13.178 17.009-15.536 27.278-2.402 10.462-2.296 21.805 1.077 32.053 1.651 5.016 3.914 10 7.036 14.285 1.818 2.494 3.726 4.966 5.911 7.156s4.627 4.066 7.095 5.91c8.61 6.432 19.183 9.612 29.759 10.667 11.528 1.15 23.797-1.618 33.7-7.63l-18.451-10.588c-2.005 29.97 12.489 60.932 36.076 79.325 3.663 2.857 7.385 5.579 11.418 7.894 4.164 2.39 8.56 4.322 13.011 6.109l3.157.424a8.93 8.93 0 0 0 4.575-1.023c2.252-.951 4.537-2.611 5.679-4.859q24.656-48.546 49.254-97.121c24.598-48.575 32.851-64.731 49.423-97.022l27.836-54.239c2.279-4.44 2.163-9.507-.953-13.54-1.33-1.722-2.872-2.909-4.877-3.754-2.736-1.155-4.997-1.034-7.938-.614-9.453 1.35-18.916 2.629-28.374 3.939l3.303-.444c-19.392 2.597-38.735 5.618-58.095 8.449l-55.406 8.102a55246 55246 0 0 0-110.786 16.299c-20.714 3.072-41.425 6.171-62.143 9.217-2.866.421-6.038 3.336-7.43 5.713-1.559 2.665-2.22 6.592-1.253 9.579.973 3.008 2.838 5.91 5.713 7.43l2.97 1.253q3.304.888 6.61 0c40.627-5.974 81.278-11.789 121.901-17.795l121.225-17.923c22.761-3.365 45.498-6.866 68.247-10.308l-13.768-17.909c-16.306 32.439-32.494 64.939-48.919 97.317-16.42 32.368-32.949 64.682-49.423 97.023-9.226 18.112-18.42 36.24-27.625 54.363l13.411-5.457q-.631-.253-1.259-.514l2.837 1.197c-5.973-2.527-11.554-5.871-16.702-9.809l2.428 1.876c-5.858-4.534-11.027-9.82-15.565-15.668l1.901 2.46a88.7 88.7 0 0 1-11.362-19.51l1.23 2.915a85 85 0 0 1-5.778-21.296l.437 3.255a78 78 0 0 1-.463-15.332c.291-4.226-2.541-8.521-6.073-10.588-3.743-2.19-8.641-2.259-12.378 0a43 43 0 0 1-5.249 2.698l2.931-1.237c-3.631 1.52-7.426 2.526-11.325 3.055l3.264-.439c-4.2.531-8.426.501-12.622-.054l3.268.439a50 50 0 0 1-12.197-3.322l2.94 1.24a46.8 46.8 0 0 1-10.159-5.894l2.493 1.926a42.5 42.5 0 0 1-7.426-7.422l1.928 2.495a42.5 42.5 0 0 1-5.143-8.823l1.244 2.947a47.5 47.5 0 0 1-3.283-11.875l.439 3.268a50 50 0 0 1-.031-12.806l-.437 3.254a49 49 0 0 1 3.322-12.344l-1.229 2.911c1.565-3.657 3.594-7.088 6.002-10.254l-1.887 2.443a44 44 0 0 1 3.382-3.864c3.584-3.636 4.732-10.027 1.867-14.47-3.001-4.654-8.094-6.624-13.485-5.488-1.826.385-3.651.75-5.501 1.011l3.108-.418c-5.555.742-11.162.722-16.717-.005l2.898.389c-5.318-.732-10.396-2.195-15.347-4.261l2.499 1.055a72.3 72.3 0 0 1-15.667-9.112l2.058 1.59c-4.556-3.528-8.664-7.577-12.206-12.124l1.546 2.002c-1.122-1.46-2.28-2.886-3.413-4.334l1.52 1.967c-1.579-2.049-3.071-4.174-4.343-6.427a51 51 0 0 1-1.667-3.253c-.261-.552-.463-1.253-.8-1.763.227.344.888 2.153.325.757a73 73 0 0 1-.397-1.012c-.863-2.239-1.974-4.098-4.114-5.35-1.919-1.123-4.747-1.599-6.899-.903-4.507 1.459-7.724 6.218-6.253 11.013Z"/><path d="M803.064 334.366c17.336 26.007 39.679 48.663 65.442 66.359l40.296-86.276a495.2 495.2 0 0 1-97.847 17.123"/><path d="M795.775 338.627c3.25 5.223 6.517 10.45 9.989 15.53 3.858 5.645 8.284 10.984 12.727 16.181 7.919 9.262 16.939 17.688 26.31 25.46 5.932 4.92 12.066 9.61 18.407 13.991 2.053 1.419 5.749 1.815 8.088 1.058 2.467-.798 5.128-2.384 6.273-4.824 10.518-22.412 21.094-44.798 31.534-67.246l8.832-18.989c.787-1.693 1.444-3.438 1.444-5.339 0-2.355-.849-4.569-2.271-6.41-2.558-3.311-7.003-4.952-11.119-3.791-2.252.635-4.548 1.064-6.827 1.589s-4.53 1.139-6.799 1.687a497 497 0 0 1-13.428 3.052c-9.066 1.928-18.185 3.516-27.325 5.043a504 504 0 0 1-15.754 2.372l2.965-.398a503 503 0 0 1-27.868 2.938c-2.963.229-5.65 1.077-7.806 3.234-1.915 1.915-3.357 5.056-3.234 7.806.128 2.855 1.066 5.817 3.234 7.806 2.073 1.903 4.898 3.435 7.806 3.234 26.708-1.85 53.219-5.772 79.246-12.055q5.399-1.304 10.767-2.727c5.368-1.423 7.076-2.185 10.647-3.18l-11.946-15.54c-10.515 22.419-20.96 44.871-31.398 67.326l-8.827 18.991 14.362-3.766a274 274 0 0 1-12.401-9.018l2.11 1.63c-14.853-11.492-28.477-24.738-40.678-39.009-3.44-4.024-6.972-7.956-10.291-12.084l1.351 1.749c-.609-.817-1.24-1.618-1.864-2.423l1.346 1.742a261 261 0 0 1-3.023-4.143c-1.31-1.831-2.804-3.263-5.045-3.88-2.021-.557-4.712-.305-6.505.851-3.756 2.422-5.525 7.539-3.029 11.551Zm-13.615 214.29c-3.647 6.088-7.529 12.014-11.505 17.887-1.985 2.932-4.062 5.808-6.16 8.66a329 329 0 0 1-2.851 3.818c-.189.249-1.88 2.461-.975 1.285.884-1.149-.091.117-.312.399q-.561.717-1.124 1.433a408 408 0 0 1-27.669 31.587c-9.815 10.098-20.222 19.619-31.116 28.542a379 379 0 0 1-6.041 4.848c-.47.369-2.797 2.19-1.47 1.153 1.338-1.046-.777.592-1.191.907a397 397 0 0 1-6.514 4.851 405 405 0 0 1-17.366 11.976 424 424 0 0 1-37.313 21.687 422 422 0 0 1-19.189 9.291c-3.302 1.496-6.63 2.927-9.957 4.366-1.465.634 2.307-.956.831-.352-.346.142-.691.289-1.037.432q-1.21.503-2.424.998a461 461 0 0 1-5.215 2.093c-26.905 10.602-54.825 18.629-83.24 23.992-7.006 1.322-14.036 2.531-21.09 3.568-1.731.254-3.466.479-5.196.733.147-.022 3.46-.45 1.267-.174l-1.114.143q-1.485.19-2.971.369a453 453 0 0 1-10.781 1.174 441 441 0 0 1-42.781 2.059 419 419 0 0 1-42.453-2.171 444 444 0 0 1-10.595-1.23c-3.219-.408 2.631.373.308.044-.847-.12-1.695-.237-2.542-.359a385 385 0 0 1-26.263-4.719c-13.612-2.938-27.035-6.66-40.234-11.095a345 345 0 0 1-21.981-8.225c-.333-.138-.665-.28-.999-.416-1.574-.637 2.832 1.213 1.274.539-1.654-.715-3.311-1.424-4.958-2.156a331 331 0 0 1-9.153-4.238c-12.552-6.048-24.717-12.903-36.364-20.551a305 305 0 0 1-16.841-11.891c-.385-.292-.767-.59-1.154-.879-1.172-.875 1.484 1.155 1.328 1.029-.659-.532-1.337-1.042-2.002-1.566a299 299 0 0 1-12.315-10.261 297.5 297.5 0 0 1-36.73-38.68c-.546-.69-1.067-1.41-1.635-2.082.108.128 2.08 2.721.745.963l-.691-.905a308 308 0 0 1-15.939-23.099c-8.894-14.235-16.604-29.204-23.39-44.55a359 359 0 0 1-1.389-3.179q-.292-.684-.586-1.366c-.764-1.754.938 2.268.209.498-.946-2.294-1.894-4.588-2.808-6.895a403 403 0 0 1-13.608-40.528 413 413 0 0 1-6.769-28.108 421 421 0 0 1-4.266-24.59q-.106-.741-.209-1.484c-.179-1.281.393-2.359.004.049.306-1.892-.573-4.532-.794-6.45a423 423 0 0 1-.793-7.457 395 395 0 0 1-1.159-14.452 428 428 0 0 1-.777-28.973c.072-9.488.465-18.974 1.184-28.435a411 411 0 0 1 2.181-21.333c.438-3.402-.217 1.433.132-.989.19-1.316.375-2.632.572-3.946 2.851-19.02 7.06-37.831 12.694-56.221a376 376 0 0 1 11.87-33.138c.178-.432.323-.977.57-1.373-1.341 2.151-.469 1.098-.151.359a359 359 0 0 1 7.623-16.672c8.353-17.102 18.081-33.534 29.134-49.031a329 329 0 0 1 6.216-8.43l.91-1.19c-1.032 1.348-.773.999.111-.127a334 334 0 0 1 9.067-11.04 343 343 0 0 1 18.197-19.608 346 346 0 0 1 19.868-18.31 349 349 0 0 1 10.406-8.528c.393-.31 3.122-2.406 1.602-1.256l1.622-1.226a357 357 0 0 1 5.58-4.124 361 361 0 0 1 45.082-27.816 370 370 0 0 1 24.082-11.443c1.345-.581 2.285-.893.25-.119 1.142-.435 2.264-.944 3.395-1.407a375 375 0 0 1 18.471-6.983 379 379 0 0 1 63.996-16.197 379 379 0 0 1 6.35-.976c1.058-.154 2.126-.272 3.181-.448-.324.054-3.139.406-.77.108l1.821-.231a368 368 0 0 1 26.505-2.338 375 375 0 0 1 52.74.991q6.637.595 13.249 1.429c.606.077 1.216.178 1.824.235.027.003-2.81-.39-1.277-.171 1.061.152 2.124.297 3.184.452q3.41.501 6.812 1.065a361 361 0 0 1 25.699 5.228c17.384 4.201 34.444 9.71 50.981 16.524.43.177.858.358 1.288.534 1.728.706-2.404-1.033-.691-.293.996.43 1.994.855 2.987 1.289a343 343 0 0 1 41.885 21.875c8.09 4.968 15.96 10.274 23.552 15.976l1.213.916c1.425 1.072-.069.649-.415-.329.231.652 2.289 1.801 2.786 2.199a271 271 0 0 1 16.481 14.316 275 275 0 0 1 27.131 29.595c.069.087.901 1.218.943 1.199-.18.079-1.834-2.404-.008-.003a273 273 0 0 1 8.602 11.963 267 267 0 0 1 14.905 24.727 259 259 0 0 1 6.499 13.119c.972 2.11 2.085 4.256 2.861 6.447-.935-2.641-.16-.37.337.854q.757 1.864 1.483 3.739a241 241 0 0 1 8.856 27.669 229 229 0 0 1 3.121 14.138q.598 3.186 1.102 6.389c.181 1.149.348 2.3.517 3.451.126.858.031 2.528-.094-.735.025.655.168 1.327.246 1.979a212 212 0 0 1 1.499 27.87 204 204 0 0 1-.621 13.497 200 200 0 0 1-.679 6.998c-.076.667-.167 1.332-.24 1.999-.175 1.605.164-1.156.167-1.179-.124 1.335-.383 2.671-.592 3.995-1.12 7.113 1.815 15.219 9.655 17.004 6.621 1.508 15.801-2.016 17.004-9.655 6.419-40.761 1.813-82.325-13.08-120.824s-38.418-73.872-68.405-102.568c-28.941-27.696-63.568-48.201-100.465-63.402-34.15-14.069-70.359-22.454-107.101-25.883s-74.117-1.23-110.415 5.739c-36.129 6.937-71.264 19.197-103.984 36.004-32.9 16.899-63.416 38.879-89.767 64.845-27.833 27.426-51.093 59.599-68.4 94.629-17.587 35.597-29.621 73.844-35.818 113.05-6.247 39.521-7.216 79.69-2.403 119.428 4.919 40.613 15.212 79.95 31.219 117.608 13.061 30.727 30.205 59.274 51.657 84.882 19.038 22.726 41.537 42.48 66.185 58.928 24.369 16.263 51.098 28.972 78.797 38.449 27.948 9.563 57.127 15.274 86.483 18.251 28.926 2.933 58.149 2.76 87.065-.206 30.199-3.097 59.979-8.984 88.996-17.924a473.4 473.4 0 0 0 83.442-34.752 425.2 425.2 0 0 0 73.83-50.025c11.039-9.311 21.555-19.243 31.437-29.774a364 364 0 0 0 14.057-15.907c.546-.655 1.102-1.304 1.639-1.967 3.415-4.213 1.593-2.134.874-1.185.295-.389.602-.771.901-1.157 1.53-1.97 3.054-3.944 4.556-5.935a336 336 0 0 0 6.229-8.539 324 324 0 0 0 21.783-35.521c2.339-4.429 1.126-10.088-3.328-12.693-4.38-2.562-10.111-.982-12.693 3.328Z"/><path d="M597.471 344.489c-12.66 12.837-25.977 24.912-39.83 36.443a432 432 0 0 1-12.275 9.826l2.193-1.694c-20.119 15.514-41.553 29.457-64.261 40.887a305 305 0 0 1-18.26 8.462l2.694-1.137c-13.35 5.626-27.257 10.072-41.644 12.049l3.043-.409c-8.385 1.126-16.893 1.39-25.297.3l3.067.412c-5.915-.795-11.712-2.27-17.223-4.572l2.772 1.17a59 59 0 0 1-12.825-7.458l2.359 1.823c-4.306-3.341-8.108-7.268-11.446-11.571l1.832 2.371c-3.917-5.104-7.027-10.685-9.527-16.605l1.187 2.813c-2.775-6.661-4.591-13.667-5.556-20.815l.416 3.095c-1.121-8.566-1.029-17.242.092-25.803l-.41 3.053a108.6 108.6 0 0 1 7.549-27.678l-1.143 2.709a98 98 0 0 1 12.45-21.335l-1.757 2.275c5.107-6.599 11.028-12.433 17.589-17.579l-2.253 1.741c6.505-4.95 13.623-9.055 21.143-12.256l-2.669 1.126a100.4 100.4 0 0 1 25.569-6.971l-2.983.401c8.319-1.092 16.805-1.215 25.132-.124l-2.994-.402c6.356.858 12.582 2.484 18.5 4.966l-2.704-1.141a67 67 0 0 1 14.63 8.527l-2.303-1.779c4.728 3.659 8.936 7.93 12.598 12.652l-1.789-2.316c4.418 5.74 7.991 12.075 10.813 18.74l-1.161-2.751c3.784 9.012 6.166 18.549 7.477 28.224l-.414-3.081c1.525 11.451 1.471 23.087-.051 34.535l.412-3.068c-1.177 8.705-3.195 17.304-6.181 25.569-.968 2.678-.235 6.481 1.16 8.864s4.133 4.662 6.875 5.287c2.945.671 6.25.526 8.864-1.16 2.629-1.695 4.222-3.927 5.287-6.875 3.389-9.382 5.394-19.032 6.702-28.903 1.203-9.073 1.507-18.259.817-27.388-1.456-19.268-6.657-38.798-17.531-54.983-2.873-4.276-6.081-8.396-9.634-12.132-3.502-3.683-7.428-6.903-11.532-9.892-7.83-5.703-17.069-9.778-26.465-12.067-23.755-5.786-49.314-1.971-71.223 8.429-10.709 5.084-20.653 12.194-29.12 20.477-8.605 8.417-15.937 18.451-21.173 29.297-11.119 23.028-15.237 49.713-9.496 74.799 2.979 13.019 9.073 24.894 17.561 35.156s19.749 17.668 32.308 21.872c11.391 3.813 23.92 4.679 35.834 3.6 12.7-1.151 25.139-3.993 37.16-8.219 25.503-8.965 49.568-22.406 71.94-37.459 23.628-15.897 45.785-33.987 65.747-54.307 4.534-4.615 8.823-9.44 13.003-14.377 1.685-1.99 2.826-4.134 2.826-6.822 0-2.366-1.051-5.193-2.826-6.822-3.83-3.515-9.858-3.84-13.645 0Zm-305.648 382.38c-1.613 2.699-3.255 5.392-5.078 7.954a197 197 0 0 1-2.534 3.478c-.497.667-1.004 1.326-1.503 1.99-.707.939.577-.745.574-.741-.302.349-.572.732-.858 1.094-.429.544-.856 1.09-1.296 1.625-.219.266-.447.525-.667.791-.403.487-1.398 2.237-1.951 2.478-.094.041 1.492-1.767.644-.877-.235.247-.446.524-.668.783q-.891 1.038-1.793 2.067c-1.942 2.213-3.792 4.493-5.686 6.747-7.179 8.545-14.967 16.504-22.444 24.776-14.345 15.869-28.953 31.945-36.561 52.274-3.69 9.858-5.371 21.071-4.167 31.551 1.702 14.806 7.54 28.247 16.632 40.014 17.398 22.519 43.361 35.865 67.953 49.057 25.278 13.56 51.776 26.55 79.932 32.822 13.925 3.102 28.434 4.794 42.699 3.754 15.214-1.109 29.527-4.847 43.385-11.16 23.51-10.709 43.148-28.973 60.202-48.029 19.128-21.373 36.679-44.274 53.609-67.406 16.9-23.093 33.165-46.726 48.572-70.843s30.265-48.675 45.044-73.238a3058 3058 0 0 0 10.865-18.175c3.23-5.454 1.414-13.523-4.343-16.565-6.004-3.172-12.909-1.357-16.565 4.343-22.963 35.801-45.716 71.728-69.351 107.095-11.76 17.598-23.83 34.992-36.349 52.06a1147 1147 0 0 1-14.178 18.921c-.757.988-1.519 1.972-2.275 2.96 2.137-2.792 1.075-1.39.598-.776q-.89 1.146-1.782 2.291a962 962 0 0 1-20.048 24.865c-13.436 16.098-27.548 31.829-44.173 44.722l2.773-2.142c-8.891 6.834-18.442 12.756-28.761 17.185l3.284-1.386a108 108 0 0 1-26.844 7.416l3.666-.493c-10.788 1.447-21.67 1.281-32.455-.113l3.678.494c-18.237-2.459-35.853-8.233-52.766-15.352l3.298 1.392c-17.353-7.356-34.026-16.165-50.559-25.186-7.888-4.304-15.765-8.653-23.308-13.547a171 171 0 0 1-5.485-3.706 149 149 0 0 1-2.523-1.82c-.417-.308-.828-.623-1.246-.93-1.093-.804 2.668 2.107.296.225-3.492-2.771-6.847-5.727-9.966-8.915a88 88 0 0 1-5.522-6.203c-1.415-1.752-.06.28.558.75-.848-.645-1.524-2.063-2.122-2.93a74 74 0 0 1-6.979-12.547l1.363 3.23c-2.033-4.825-3.486-9.827-4.226-15.014l.482 3.586c-.646-5.004-.586-10.036.056-15.037l-.481 3.577c.784-5.713 2.36-11.245 4.573-16.566l-1.353 3.206c2.724-6.423 6.241-12.503 10.173-18.258a157 157 0 0 1 3.083-4.346q.758-1.032 1.53-2.054c.288-.381.581-.759.868-1.14.606-.806-2.276 2.917-.449.59a334 334 0 0 1 7.131-8.739c5.251-6.245 10.576-12.422 15.76-18.725 5.976-7.265 12.163-14.583 17.376-22.423 5.716-8.596 10.623-17.874 15.16-27.137 2.196-4.482 1.362-10.543-3.428-13.074-4.617-2.44-10.334-1.157-13.074 3.428Z"/><path d="M665.521 407.219c-3.144 5.642-6.657 11.071-10.444 16.301a218 218 0 0 1-2.999 4.028c-1.019 1.34 1.42-1.821.553-.713l-.731.935q-.844 1.073-1.702 2.134a202 202 0 0 1-6.78 7.939c-9.997 11.139-21.032 21.332-32.672 30.729l-1.065.856c-.203.163-.412.32-.611.488-.803.676 1.583-1.222 1.319-1.017-1.422 1.102-2.825 2.218-4.233 3.337q-1.156.92-2.32 1.828c-.361.282-.711.595-1.091.849-.099.066 2.324-1.784 1.159-.896l-.628.482a356 356 0 0 1-9.631 7.116 373 373 0 0 1-20.51 13.619 385.4 385.4 0 0 1-49.996 26.047l-1.346.576c-2 .858 2.645-1.105.638-.268q-1.445.605-2.895 1.199a421 421 0 0 1-11.648 4.584 340 340 0 0 1-23.767 7.946 305 305 0 0 1-23.926 5.996 277 277 0 0 1-11.841 2.188c-1.964.318-3.931.61-5.9.888-.253.036-.542.045-.785.108-.365.094 2.95-.385 1.853-.25-.458.056-.915.119-1.373.177q-1.566.198-3.135.375c-15.28 1.732-30.761 2.053-46.064.409q-1.293-.14-2.585-.297c-.43-.053-.858-.11-1.288-.162-1.485-.179 1.917.271 1.714.232-.3-.058-.613-.085-.916-.128a168 168 0 0 1-5.462-.866c-3.6-.632-7.18-1.381-10.728-2.257-7.073-1.746-13.979-4.029-20.721-6.784-1.435-.586 2.716 1.167 1.025.431q-.576-.249-1.151-.501a133 133 0 0 1-7.44-3.561 128 128 0 0 1-9.358-5.354c-3.068-1.932-6.032-4.01-8.936-6.181-1.736-1.298 1.66 1.309.668.521l-1.005-.793a126 126 0 0 1-6.446-5.504 129 129 0 0 1-7.973-7.955 133 133 0 0 1-6.489-7.622l-.362-.461c-1.046-1.304 1.408 1.856.783 1.016-4.923-6.623-9.405-13.481-13.27-20.781a170 170 0 0 1-5.654-11.769c-.195-.449-.951-2.23-.185-.412.792 1.879.002-.002-.174-.429a186 186 0 0 1-1.352-3.379 197 197 0 0 1-2.406-6.53c-3.493-10.02-6.761-20.316-8.591-30.782a185 185 0 0 1-.933-5.883c-.053-.373-.096-.75-.156-1.121.115.707.296 2.255.092.639q-.528-4.2-.87-8.419c-.453-5.595-.688-11.217-.592-16.83.097-5.685.443-11.366 1.032-17.021q.204-1.943.428-3.884.111-.969.231-1.938l.141-1.106c.149-1.209-.387 2.747-.098.731.395-2.757.829-5.508 1.329-8.248a205 205 0 0 1 8.643-32.201 210 210 0 0 1 2.963-7.796q.417-1.031.843-2.059c.657-1.595-.983 2.293-.04.099q.823-1.916 1.684-3.815a209.6 209.6 0 0 1 23.535-39.63c.244-.324 1.667-2.172.562-.749-1.054 1.359.437-.554.753-.954a204.3 204.3 0 0 1 23.02-24.646 200 200 0 0 1 9.376-7.99q.877-.699 1.759-1.392c.259-.204 1.087-.842-.141.105-1.373 1.06-.002.005.309-.231a197 197 0 0 1 13.864-9.624 193 193 0 0 1 22.429-12.188q1.95-.897 3.919-1.751l.79-.34c1.535-.663-.734.315-.852.358.657-.24 1.297-.538 1.947-.799 8.913-3.592 18.166-6.329 27.585-8.227q3.498-.705 7.024-1.258c1.025-.161 5.234-.691 1.277-.212 1.181-.143 2.359-.299 3.541-.429 4.808-.531 9.639-.856 14.475-.98 4.759-.122 9.522-.05 14.275.212q3.565.197 7.12.534 1.66.156 3.314.35c.631.074 1.26.155 1.89.232.392.048 1.354.18-.428-.06-1.955-.264-.413-.055.042.009a183 183 0 0 1 27.774 6.167 181 181 0 0 1 13.605 4.753c1.023.404 2.037.829 3.058 1.24 1.155.465-2.363-1.014-1.222-.517q.324.14.648.277.971.418 1.937.848a175 175 0 0 1 6.371 2.987c8.421 4.156 16.508 8.995 24.114 14.504q1.31.95 2.602 1.925c.403.305 1.988 1.524.375.28-1.71-1.32.342.276.721.58a191 191 0 0 1 5.316 4.401c3.468 2.995 6.801 6.148 9.976 9.452s6.169 6.731 8.996 10.314c.093.118.482.705.562.718.09.014-1.544-2.023-.988-1.278.318.426.644.847.962 1.273a132 132 0 0 1 5.94 8.642 129 129 0 0 1 8.173 15.094q.336.733.662 1.47c.199.45 1.223 2.849.372.837-.802-1.898-.027-.046.164.428q.303.752.596 1.508.673 1.733 1.294 3.484a125.5 125.5 0 0 1 5.381 20.563q.31 1.786.569 3.582c.035.24.066.481.102.722.194 1.284-.333-2.689-.19-1.397.072.648.16 1.294.232 1.942 1.104 9.879 1.062 19.862.035 29.745-.265 2.553 1.382 5.801 3.125 7.544 1.85 1.85 4.886 3.244 7.544 3.125 6.275-.281 10.049-4.703 10.669-10.669 2.161-20.777-.026-42.274-7.165-61.957-6.935-19.123-17.852-36.438-31.937-51.111a148 148 0 0 0-10.145-9.607 151 151 0 0 0-3.887-3.24c-.839-.674-1.688-1.318-2.547-1.978.292.224 2.286 1.766.913.699-2.428-1.887-4.866-3.757-7.372-5.538-7.78-5.532-16.051-10.366-24.658-14.492-18.936-9.077-38.903-14.835-59.698-17.567-20.063-2.636-40.401-1.995-60.255 1.964-21.591 4.305-42.282 13.248-60.862 24.973-19.891 12.552-37.726 28.49-52.339 46.921-15.039 18.969-26.885 39.954-35.185 62.712-8.054 22.083-12.439 45.665-12.519 69.182a219 219 0 0 0 2.888 36.259c1.774 10.813 4.013 21.515 7.542 31.903 5.861 17.255 13.837 33.997 24.787 48.624 10.136 13.539 22.148 25.219 36.335 34.493 12.917 8.444 27.471 14.611 42.38 18.527 15.51 4.074 31.723 5.849 47.742 5.835 16.857-.015 33.747-2.034 50.265-5.326s32.603-7.996 48.331-13.81c16.795-6.208 33.158-13.669 48.913-22.173 14.759-7.966 29.014-16.882 42.591-26.731 13.466-9.767 26.27-20.371 38.056-32.119 5.274-5.257 10.343-10.723 15.142-16.419a225 225 0 0 0 3.344-4.063l.872-1.081c.108-.135.22-.267.328-.402l1.494-1.934-1.071 1.385c.217-.043.59-.749.746-.948.747-.955 1.486-1.915 2.226-2.875a201 201 0 0 0 6.067-8.279c3.611-5.215 6.95-10.618 9.931-16.219 2.267-4.261 1.215-10.238-3.312-12.63-4.349-2.298-10.119-1.193-12.63 3.312Z"/><path d="M691.032 342.802c1.317-28.559-1.021-57.22-8.953-84.761-6.777-23.532-17.356-46.235-31.772-66.069-13.979-19.233-30.874-35.856-50.241-49.642-18.812-13.39-39.58-23.757-61.128-31.96-21.929-8.349-45.062-14.609-68.322-17.823-28.264-3.904-56.716-2.843-84.587 3.405-26.518 5.946-52.12 16.713-75.389 30.688-23.837 14.317-45.668 32.208-64.697 52.463-19.276 20.519-36.058 43.59-49.543 68.305s-24.107 51.258-30.725 78.629c-6.499 26.879-9.43 54.726-8.402 82.367 1.014 27.255 5.631 54.537 14.024 80.497 8.334 25.778 20.223 50.56 35.698 72.82 16.109 23.171 35.617 43.395 58.205 60.297 23.23 17.382 49.699 30.576 77.53 38.77 27.111 7.982 55.731 11.147 83.944 10.071 28.768-1.097 57.411-6.336 84.955-14.619 28.52-8.576 56.133-20.361 82.439-34.287 25.854-13.686 50.535-29.577 73.895-47.176 23.087-17.393 45.033-36.271 65.376-56.816a529 529 0 0 0 26.37-28.649c3.652-4.277 4.513-11.077 0-15.219-4.018-3.688-11.315-4.571-15.219 0-17.427 20.406-36.451 39.431-56.662 57.078a590 590 0 0 1-24.348 20.132c-.565.443-1.134.881-1.699 1.325-1.369 1.074 2.013-1.539-.211.164a718 718 0 0 1-4.816 3.663 574 574 0 0 1-35.75 24.851c-12.047 7.707-24.391 14.953-37.018 21.668a495 495 0 0 1-19.502 9.831 472 472 0 0 1-15.849 7.194c-.443.191-3.938 1.67-1.425.617-25.99 10.9-53.036 19.429-80.794 24.439a326 326 0 0 1-9.923 1.634c-.827.123-1.655.238-2.482.359-2.827.416 2.378-.292-.455.064-1.654.208-3.308.416-4.965.604a295 295 0 0 1-20.677 1.621c-13.44.574-26.925.192-40.3-1.266-1.635-.178-3.266-.38-4.898-.582-2.8-.347 2.384.361-.406-.059-.813-.122-1.628-.236-2.441-.36a243 243 0 0 1-10.544-1.847 237 237 0 0 1-20.092-4.892 233 233 0 0 1-19.017-6.42c-1.576-.609-3.139-1.249-4.706-1.877-2.659-1.066 2.068.911-.564-.232-.78-.339-1.561-.674-2.339-1.018a235 235 0 0 1-10.07-4.737 240.4 240.4 0 0 1-39.105-24.508c2.156 1.655-.027-.033-.388-.319a241 241 0 0 1-9.91-8.279 243 243 0 0 1-14.453-13.845 248 248 0 0 1-15.674-17.958c-.491-.62-.994-1.236-1.467-1.871 1.651 2.217.039.039-.253-.347a253 253 0 0 1-6.037-8.327 261 261 0 0 1-19.619-33.318 269 269 0 0 1-4.043-8.57c-.649-1.441-1.276-2.891-1.909-4.339-1.086-2.485.874 2.147-.155-.362-.4-.975-.804-1.949-1.197-2.926a277 277 0 0 1-6.474-17.845 284 284 0 0 1-9.557-38.465 289 289 0 0 1-1.497-9.427c-.077-.545-.564-3.225-.05-.328-.115-.651-.17-1.319-.251-1.975a291 291 0 0 1-2.006-25.033 292 292 0 0 1 1.186-39.165c.312-3.183.582-6.407 1.096-9.565-.468 2.875-.017.157.058-.367q.17-1.193.351-2.384.421-2.781.896-5.554a277 277 0 0 1 4.1-19.698c3.213-12.989 7.357-25.748 12.262-38.195a316 316 0 0 1 1.855-4.602c.173-.419 1.266-3.008.2-.502q.486-1.142.977-2.279a325 325 0 0 1 13.47-27.447 331 331 0 0 1 21.842-34.476 334 334 0 0 1 5.659-7.579c-1.655 2.155.052-.056.333-.413a316 316 0 0 1 5.154-6.387 318 318 0 0 1 13.549-15.327c9.106-9.652 18.826-18.728 29.115-27.11q1.878-1.53 3.781-3.029c.376-.296 2.535-2.01.358-.292.632-.499 1.28-.981 1.922-1.467a286 286 0 0 1 8.452-6.155 276 276 0 0 1 16.113-10.476 265 265 0 0 1 17.438-9.622 257 257 0 0 1 12.936-6.065c.478-.208 2.975-1.312.326-.153.967-.423 1.951-.812 2.929-1.208a240.4 240.4 0 0 1 36.947-11.607c6.415-1.458 12.965-2.824 19.511-3.545-3.027.333-.285.047.28-.022q1.187-.145 2.375-.277a220.5 220.5 0 0 1 34.562-1.112 221 221 0 0 1 14.711 1.183c.822.094 1.642.199 2.463.295q1.84.238-.393-.06.824.113 1.646.232c11.596 1.677 23.098 4.225 34.423 7.211 10.682 2.817 21.233 6.144 31.572 10.038q3.778 1.423 7.516 2.948c.622.254 1.242.513 1.863.768 2.227.914-2.28-.985-.07-.031 1.437.621 2.874 1.241 4.303 1.88a270 270 0 0 1 14.451 6.974c9.824 5.11 19.327 10.849 28.365 17.249a268 268 0 0 1 6.405 4.707c2.105 1.587-2.946-2.279.504.386l1.07.827q1.341 1.009-.56-.444c.746 1.092 2.593 2.048 3.63 2.893 4.289 3.494 8.443 7.154 12.444 10.975s7.884 7.842 11.573 12a199 199 0 0 1 7.334 8.76c.376.476 1.937 2.057.079.088.608.644 1.108 1.455 1.637 2.166a199 199 0 0 1 18.183 29.428 204 204 0 0 1 3.385 7.082c.599 1.312 1.168 2.637 1.741 3.961-1-2.31-.015-.026.151.379q.555 1.353 1.092 2.712a217 217 0 0 1 6.085 17.637c3.713 12.462 6.196 25.202 8.093 38.053q.183 1.236.353 2.474c-.283-2.034.093.745.119.949q.318 2.54.591 5.085.554 5.187.921 10.391c.511 7.215.749 14.445.774 21.677.015 4.336 3.678 8.025 8.025 8.025 4.513 0 7.825-3.678 8.025-8.025ZM538.136 740.699a555 555 0 0 1-20.461 28.31l1.599-2.069c-4 5.174-7.891 10.429-11.888 15.606l1.651-2.136c-15.465 20.002-31.974 39.236-49.722 57.249a576 576 0 0 1-7.592 7.563c-2.569 2.512-5.179 4.911-7.467 7.685-1.743 2.114-3.213 4.563-3.084 7.446.106 2.378.799 4.487 2.261 6.38 1.344 1.74 3.265 3.271 5.47 3.774 2.596.591 5.871.584 8.114-1.061 2.618-1.921 5.066-3.912 7.393-6.169q2.644-2.564 5.256-5.162a576 576 0 0 0 29.818-32.013 515 515 0 0 0 19.863-24.505c5.892-7.739 11.696-15.574 16.95-23.763a614 614 0 0 0 17.061-28.236c2.278-4.01 1.081-9.817-3.162-12.059-4.455-2.354-9.296-.925-12.059 3.162ZM404.41 755.206c-4.059 3.336-7.742 7.146-11.613 10.701s-7.71 7.168-11.58 10.739c-7.68 7.086-15.578 13.944-23.539 20.712a537 537 0 0 1-6.767 5.659c-2.36 1.942-4.388 4.057-6.306 6.427-1.749 2.161-3.243 4.578-3.111 7.511.107 2.398.806 4.527 2.281 6.436 1.356 1.755 3.294 3.3 5.518 3.807 2.899.66 5.512.247 8.185-1.071 1.164-.574 2.382-1.09 3.454-1.824 1.772-1.212 3.513-2.443 5.188-3.791 2.108-1.696 4.164-3.463 6.225-5.216 4.065-3.458 8.092-6.959 11.993-10.602 7.675-7.166 15.327-14.459 22.339-22.282 4.476-4.994 9.086-9.977 12.959-15.459 1.322-1.871 1.669-5.333.977-7.47-.661-2.044-1.767-3.717-3.474-5.036-1.635-1.263-3.751-2.177-5.874-2.082-2.709.121-4.767 1.124-6.855 2.84Z"/><path d="M254.745 797.854a464 464 0 0 1 31.648 8.414c10.454 3.179 20.71 7.102 30.93 10.954a480 480 0 0 1 17.143 6.844l-2.658-1.122c15.314 6.469 30.353 13.686 44.874 21.786s28.464 17.046 42.183 26.405a480 480 0 0 1 22.71 16.494l-2.631-2.033c15.65 12.099 30.653 25.088 44.749 38.969a452 452 0 0 1 5.785 5.8c1.689 1.723 3.479 3.243 5.535 4.534 1.169.734 2.32 1.492 3.469 2.256l2.803 1.183q2.34.733 4.68.21c2.463-.331 5.008-1.342 6.739-3.228 3.537-3.853 4.548-9.582 1.835-14.222-1.68-2.873-3.216-5.794-5.558-8.208a464 464 0 0 0-15.028-14.798c-6.856-6.45-13.886-12.743-21.162-18.719-15.159-12.449-30.997-24.379-47.673-34.738-16.012-9.947-32.625-18.919-49.659-26.988-17.713-8.391-35.926-15.802-54.503-22.054-8.858-2.981-17.885-5.426-26.948-7.699-9.149-2.294-18.284-4.56-27.533-6.426q-3.418-.689-6.846-1.328c-2.467-.46-4.847-.379-7.077.926-1.905 1.115-3.722 3.299-4.221 5.489-1.065 4.676 1.405 10.153 6.415 11.298Zm50.032-55.94a796 796 0 0 0 216.212 54.663c19.901 2.135 40.455 3.457 59.553-2.536 44.078-13.833 51.769-55.529 97.349-115.391-97.32 75.313-181.757 74.105-271.268 84.684"/><path d="M300.305 749.565c30.419 13.342 61.836 24.167 93.821 33.104 31.301 8.746 63.211 15.392 95.36 20.128 16.723 2.463 33.609 4.833 50.504 5.695 15.791.806 32.203-.196 47.166-5.668 10.651-3.895 20.153-9.55 28.614-17.112 7.995-7.146 14.593-15.811 20.654-24.611 6.75-9.799 12.68-20.162 18.851-30.328 7.662-12.622 15.673-24.975 24.385-36.902a464 464 0 0 1 7.406-9.856c1.391-1.802 1.545-4.666 1.261-6.776-.3-2.23-1.216-4.535-2.923-6.102a12.6 12.6 0 0 0-4.69-2.733c-2.259-.731-6.229-.42-8.189 1.071-5.387 4.099-11.052 7.822-16.645 11.633a381 381 0 0 1-15.987 10.325c-10.348 6.319-20.857 12.319-31.749 17.659a342 342 0 0 1-17.542 7.987l2.715-1.146c-26.736 11.228-54.783 18.755-83.322 23.707-7.725 1.34-15.48 2.505-23.25 3.553l3.021-.406c-21.53 2.89-43.167 4.862-64.766 7.14-6.13.647-12.257 1.32-18.379 2.042-3.116.367-5.732 1.024-8.036 3.329-1.971 1.971-3.455 5.205-3.329 8.036.132 2.939 1.097 5.988 3.329 8.036 2.07 1.9 5.112 3.673 8.036 3.329 35.674-4.207 71.559-6.744 107.007-12.729 37.468-6.325 73.88-17.243 107.95-34.222 10.483-5.224 20.771-10.934 30.614-17.288a383 383 0 0 0 15.495-10.556c3.295-2.363 6.55-4.765 9.691-7.33 1.218-.995 2.535-2.523 3.935-3.23l-.99.766 2.741-2.118q1.173-.91 2.341-1.826l-16.691-12.879c-15.471 20.669-28.716 42.793-42.52 64.574a477 477 0 0 1-8.302 12.674 199 199 0 0 1-4.022 5.717c-.665.909-1.567 1.816-2.1 2.805-.034.062 1.811-2.317.865-1.121l-.399.508a144 144 0 0 1-1.204 1.504c-2.748 3.378-5.674 6.616-8.834 9.613a79 79 0 0 1-4.708 4.132c-.209.169-.421.334-.63.503-1.152.931 1.266-.96 1.175-.903-.45.282-.864.653-1.294.967a71.3 71.3 0 0 1-12.24 7.195c-.506.234-1.319.441-1.759.785-.044.034 2.717-1.115 1.305-.552l-.809.327c-6.704 2.665-13.736 4.352-20.875 5.33l2.767-.372c-17.214 2.242-34.633.442-51.783-1.519a791 791 0 0 1-12.835-1.575c-.57-.075-1.173-.103-1.732-.229.232.052 2.469.336.639.085q-1.56-.213-3.118-.43a793 793 0 0 1-32.452-5.228 820 820 0 0 1-101.369-25.262c-18.624-5.924-37.073-12.514-55.345-19.444-4.12-1.563-8.88 1.406-10.452 5.13-1.549 3.671-.419 9.29 3.625 11.064Zm-63.987 103.423a551 551 0 0 1 17.314 6.751c.423.173 2.426 1.016.576.227l1.596.673-.814-.34c.118.189.952.418 1.165.512q.971.428 1.939.86a532 532 0 0 1 7.341 3.338c9.897 4.59 19.713 9.41 29.441 14.347 19.496 9.894 38.573 20.803 56.742 32.974a554 554 0 0 1 30.143 21.697l-1.869-1.444c13.492 10.429 26.692 21.225 39.3 32.712q5.358 4.883 10.585 9.907c3.572 3.432 9.878 3.818 13.383 0 3.401-3.705 3.825-9.732 0-13.383a545 545 0 0 0-34.62-30.358c-12.408-9.984-25.339-19.293-38.641-28.047-12.757-8.395-25.831-16.34-39.196-23.729-13.874-7.67-28.143-14.94-42.785-21.039-14.045-5.85-28.399-11.052-42.811-15.922a553 553 0 0 0-5.457-1.812c-3.116-1.017-6.976 1.182-7.703 4.374-.808 3.548 1.079 6.482 4.374 7.703Zm211.82-552.42c-24.729.248-49.056 12.566-63.893 32.35s-19.849 46.588-13.161 70.397c4.041 14.388 12.527 27.965 25.284 35.75 11.006 6.717 24.281 8.682 37.174 8.851 16.151.212 32.592-2.262 47.073-9.419s26.861-19.344 32.176-34.597c4.357-12.503 3.806-26.184 1.891-39.285-2.401-16.427-7.124-33.059-17.59-45.946s-27.666-21.287-43.863-17.64"/><path d="M448.138 291.198c-8.145-.261-16.511.551-24.482 2.201-3.588.743-7.104 1.996-10.499 3.361-4.28 1.721-8.496 3.588-12.52 5.851-7.159 4.025-13.865 9.202-19.661 15.016-6.023 6.042-11.25 13.005-15.086 20.631-3.898 7.749-6.94 16.018-8.581 24.547s-2.401 17.226-1.682 25.866 2.312 17.173 5.493 25.22c1.717 4.343 3.592 8.635 5.965 12.663s5.223 7.843 8.281 11.388c5.522 6.404 12.549 11.643 20.319 14.983 4.692 2.017 9.391 3.822 14.382 4.951 4.944 1.118 10.019 1.782 15.067 2.203 8.455.705 17.043.531 25.465-.485 9.451-1.14 18.75-2.919 27.618-6.471 4.603-1.844 9.146-3.84 13.418-6.368 3.944-2.333 7.622-5.081 11.171-7.973 6.349-5.173 11.866-11.615 16.083-18.631 2.344-3.899 4.208-8.12 5.748-12.393 1.793-4.976 2.641-10.108 3.315-15.336 1.254-9.729.344-19.414-.972-29.082-1.102-8.099-2.7-16.159-5.252-23.934-2.762-8.413-6.44-16.767-11.586-24.012-5.522-7.774-12.128-14.384-20.309-19.376-8.003-4.883-17.035-7.726-26.374-8.364-4.597-.314-9.053.452-13.523 1.432-2.943.646-5.911 3.144-7.402 5.692-1.554 2.655-2.212 6.567-1.249 9.544.97 2.997 2.827 5.888 5.692 7.402 3.036 1.604 6.164 1.99 9.544 1.249l.377-.083-3.292.442c1.356-.144 2.713-.343 4.062-.54l-3.308.444c3.885-.521 7.851-.621 11.742-.129l-3.347-.45c3.804.518 7.492 1.555 11.039 3.019l-2.998-1.265c4.069 1.719 7.871 3.966 11.378 6.65l-2.532-1.956a55 55 0 0 1 9.682 9.7l-1.949-2.522c3.674 4.789 6.611 10.045 8.966 15.596l-1.254-2.971c4.113 9.831 6.401 20.302 7.836 30.831l-.445-3.312c1.149 8.615 1.651 17.351.522 25.996l.446-3.317c-.693 5.044-1.952 9.975-3.93 14.671l1.259-2.983c-1.904 4.428-4.383 8.561-7.326 12.374l1.954-2.529c-3.379 4.321-7.302 8.164-11.633 11.526l2.531-1.956c-4.946 3.796-10.347 6.894-16.076 9.346l2.991-1.262c-7.724 3.254-15.871 5.306-24.164 6.445l3.333-.448c-10.482 1.396-21.27 1.555-31.764.19l3.339.449c-5.962-.805-11.825-2.2-17.394-4.502l3.003 1.267c-3.624-1.702-7.058-3.625-10.245-6.062l2.594 2.004c-3.862-3.001-7.325-6.383-10.333-10.244l2.008 2.599c-3.394-4.414-6.156-9.258-8.346-14.374l1.294 3.066c-2.62-6.213-4.361-12.745-5.28-19.423l.458 3.41a83.4 83.4 0 0 1-.005-21.687l-.458 3.408a84.6 84.6 0 0 1 5.77-21.331l-1.291 3.06c2.953-6.976 6.871-13.624 11.498-19.622l-1.96 2.537a81.5 81.5 0 0 1 14.24-14.199l-2.416 1.867c5.85-4.509 12.198-8.303 18.993-11.207l-2.659 1.122c2.545-1.074 5.145-1.992 7.682-3.086l-2.605 1.099c4.196-1.668 8.528-3.047 12.951-3.971l-2.602.35c1.89-.243 3.762-.566 5.649-.827l-2.565.345a83 83 0 0 1 6.201-.591c2.487-.142 4.83-.948 6.626-2.744 1.625-1.625 2.849-4.292 2.744-6.626-.233-5.211-4.116-9.202-9.37-9.37Z"/></svg>