<?xml version="1.0" encoding="UTF-8"?><svg xmlns="http://www.w3.org/2000/svg" data-name="ARTWORK" viewBox="0 0 1000 1000"><path d="M506.576 255.458c-42.278 13.297-84.674 26.216-126.975 39.439-20.87 6.524-41.638 13.397-62.382 20.309a4388 4388 0 0 0-32.749 11.053c-2.756.942-5.542 1.83-8.274 2.839-3.145 1.162-6.242 2.661-7.904 5.805-.932 1.764-1.467 3.706-2.031 5.608a940 940 0 0 0-4.232 14.723c-11.11 39.88-19.768 80.247-25.831 121.203-6.37 43.023-10.404 86.373-11.523 129.857-1.093 42.469.471 84.962 5.159 127.193 2.356 21.222 5.403 42.382 9.312 63.375a744 744 0 0 0 6.291 30.304q1.65 7.189 3.451 14.342c1.306 5.186 2.488 10.546 5.131 15.257 3.458 6.165 9.264 9.95 16.179 10.879 7.16.962 13.566-2.135 19.959-4.873 9.905-4.242 19.046-7.703 29.821-12.059 20.503-8.29 41.096-16.356 61.74-24.288 39.108-15.028 78.379-29.63 117.487-44.659 39.347-15.121 78.513-30.726 117.157-47.573 39.646-17.284 78.681-35.972 116.775-56.46a1441 1441 0 0 0 29.236-16.171c5.937-3.373 8.074-11.567 4.57-17.428a227 227 0 0 1-9.945-18.533c-1.49-3.112-2.865-6.271-4.267-9.422-.697-1.566.954 2.333.311.741-.157-.388-.322-.773-.481-1.16a265 265 0 0 1-2.935-7.45c-5.296-14.036-9.465-28.485-12.753-43.118-1.734-7.715-3.153-15.495-4.365-23.309a427 427 0 0 1-.817-5.503c-.059-.415-.518-4.003-.275-1.961.23 1.929-.175-1.399-.247-1.971-.505-4.044-.943-8.096-1.381-12.147-1.777-16.458-2.711-33.003-2.951-49.554-.246-16.999.241-34.006 1.367-50.969a689 689 0 0 1 2.214-25.901 737 737 0 0 1 2.221-18.882l.196-1.487c.199-1.517-.137.895-.128.957-.149-1.005.339-2.454.482-3.466 4.728-33.43 11.745-66.567 21.211-98.979 4.427-15.158 9.407-30.156 15.028-44.914a523 523 0 0 1 4.202-10.682c.655-1.613 1.333-3.218 1.991-4.83.537-1.315-.432 1.017-.432 1.018.153-.401.337-.795.506-1.19.452-1.052.902-2.105 1.359-3.154a440 440 0 0 1 8.979-19.372 405 405 0 0 1 4.778-9.355c2.39-4.536 2.198-9.829-.982-13.945-2.916-3.775-8.447-6.112-13.198-4.5-49.783 16.895-103.059 24.675-150.077 49.157-13.016 6.778-25.074 15.011-36.215 24.561-4.826 4.137-4.567 12.933 0 17.125 5.139 4.718 11.977 4.413 17.125 0 1.153-.988 2.329-1.95 3.516-2.897.28-.223 1.977-1.538.762-.609-1.441 1.102 1.208-.894 1.19-.88a160 160 0 0 1 7.488-5.208c5.134-3.361 10.451-6.437 15.89-9.275 5.378-2.806 10.881-5.344 16.449-7.749 1.918-.829-2.742 1.126.398-.157.649-.265 1.295-.54 1.943-.807a307 307 0 0 1 3.914-1.578 341 341 0 0 1 9.434-3.562c24.096-8.707 48.971-15.004 73.674-21.7 13.821-3.746 27.608-7.638 41.184-12.205l-14.18-18.445c-14.648 27.628-26.203 56.936-35.651 86.718-10.233 32.256-17.939 65.318-23.363 98.715-5.727 35.255-9.135 70.927-9.417 106.655-.134 16.995.436 34.001 1.857 50.939q.515 6.151 1.185 12.287c.103.938.203 1.876.318 2.812-.019-.156.735 5.565.361 2.68a764 764 0 0 0 1.246 9.169 424 424 0 0 0 4.067 23.643c6.119 30.297 15.354 60.124 30.05 87.432a225 225 0 0 0 5.167 9.073l4.57-17.428c-31.17 17.767-63.006 34.343-95.392 49.781a1705 1705 0 0 1-45.633 20.912 1960 1960 0 0 1-23.78 10.297l-2.16.917c-.198.084-3.764 1.591-1.308.555q-2.697 1.137-5.398 2.267a2318 2318 0 0 1-11.873 4.929c-62.067 25.573-125.155 48.552-187.682 72.954a4098 4098 0 0 0-48.765 19.365c-17.441 7.066-33.467 14.385-50 20.917-.442.175-5.411 2.085-5.565 1.712-.278-.67 2.681.491 2.695.497-2.051-.921.006.36.514.701 1.157.779-.332-.676-.621-1.158 1.24 2.063.191.466-.068-.324-.65-1.986-1.113-4.031-1.61-6.059a708 708 0 0 1-5.396-23.825c-3.341-16.018-6.145-32.147-8.464-48.344q-.456-3.179-.886-6.362c.07.519.307 2.35-.016-.152q-.226-1.74-.448-3.48a862 862 0 0 1-1.524-12.812 882 882 0 0 1-2.392-24.663c-1.413-17.026-2.28-34.081-2.834-51.155-1.106-34.123-.369-68.264 1.826-102.33a1077 1077 0 0 1 7.208-72.996c-.368 2.766.1-.721.18-1.302a1075 1075 0 0 1 3.895-25.942c5.309-32.626 11.841-65.21 20.183-97.201a962 962 0 0 1 6.307-22.997l-8.488 8.488c59.007-21.02 118.506-40.651 177.855-60.677a11012 11012 0 0 0 51.934-17.653c5.023-1.723 8.339-6.751 6.87-12.099-1.372-4.993-7.012-8.47-12.099-6.87Z"/><path d="M525.55 338.724c9.972-10.344 19.738-20.888 29.479-31.45 12.641-13.705 25.137-27.537 37.599-41.404 13.488-15.009 26.955-30.037 40.439-45.05 12.684-14.122 25.172-28.416 37.777-42.608 9.937-11.188 19.899-22.357 30.044-33.357q1.496-1.619 2.997-3.235c2.204-2.377 3.615-5.438 3.615-8.726 0-3.027-1.344-6.642-3.615-8.726-2.352-2.159-5.44-3.762-8.726-3.615-3.201.143-6.486 1.198-8.726 3.615-9.777 10.546-19.302 21.329-28.822 32.106-12.354 13.985-24.742 27.954-36.849 42.154-13.115 15.383-26.208 30.784-39.318 46.171-12.327 14.468-24.674 28.919-36.988 43.397-9.708 11.414-19.441 22.81-29.36 34.04a920 920 0 0 1-2.93 3.302c-1.675 1.879-2.772 4.121-2.772 6.692 0 2.321 1.031 5.094 2.772 6.692 3.721 3.416 9.714 3.808 13.385 0Z"/><path d="M699.803 133.898c-23.174-2.35-38.414-48.479-37.21-67.122 5.755-89.07 176.759-18.512 122.485 51.992-5.994 7.786-15.286 12.313-24.615 15.403-19.737 6.536-42.059 7.445-60.767-2.677"/><path d="M702.221 125.129a20.2 20.2 0 0 1-4.083-1.225l2.251.95a23 23 0 0 1-2.629-1.337l1.953 1.509c-1.461-1.153-3.011-2.11-4.485-3.236l2 1.546c-3.001-2.331-5.659-5.226-7.984-8.221l1.639 2.121c-3.958-5.152-7.01-10.947-9.534-16.917l1.114 2.641c-3.889-9.276-6.624-19.21-7.976-29.182l.42 3.126c-.629-4.751-.7-9.416-.063-14.168l-.424 3.154c.608-4.414 1.695-8.757 3.427-12.868l-1.206 2.858a41 41 0 0 1 5.19-8.915l-1.879 2.432a37.3 37.3 0 0 1 6.647-6.631l-2.43 1.878c2.752-2.109 5.773-3.825 8.964-5.178l-2.867 1.21c4.252-1.784 8.746-2.909 13.31-3.529l-3.188.428c6.623-.88 13.348-.71 19.962.168l-3.185-.428c7.065.954 14.013 2.711 20.723 5.114a113 113 0 0 1 5.754 2.243l-2.858-1.206c6.517 2.759 12.785 6.119 18.641 10.096a99 99 0 0 1 4.808 3.481l-2.418-1.868c5.358 4.145 10.289 8.858 14.449 14.214l-1.866-2.416c3.028 3.921 5.624 8.172 7.553 12.74l-1.202-2.849c1.523 3.644 2.611 7.467 3.148 11.382l-.425-3.163a40.7 40.7 0 0 1 .011 10.68l.423-3.148c-.515 3.783-1.558 7.466-3.03 10.986l1.188-2.816c-1.879 4.441-4.404 8.578-7.348 12.391l1.832-2.371c-1.832 2.311-3.942 4.348-6.267 6.159l2.362-1.825c-3.658 2.792-7.713 4.962-11.94 6.758l2.772-1.17c-7.599 3.179-15.632 5.314-23.79 6.433l3.074-.413c-7.117.942-14.319 1.055-21.441.102l3.079.414c-5.572-.78-11.016-2.212-16.215-4.369l2.77 1.169c-1.764-.746-3.475-1.704-5.337-2.16a63 63 0 0 1-3.043-.831c-4.405-1.316-10.022.831-12.208 4.968a12.8 12.8 0 0 0-1.476 5.456c-.11 2.45 1.235 6.039 3.166 7.644 1.688 1.403 3.37 2.959 5.249 4.084 1.321.791 2.916 1.282 4.321 1.871.783.328 1.568.647 2.362.947a63.5 63.5 0 0 0 8.47 2.525c6.584 1.48 13.439 2.209 20.19 2.096 12.524-.211 25.397-2.801 36.997-7.558 3.437-1.41 6.858-2.858 10.081-4.715 3.175-1.828 6.156-4.043 8.933-6.425 3.799-3.257 6.874-7.378 9.593-11.562 3.498-5.382 6.273-11.497 7.776-17.745 1.384-5.757 1.957-11.855 1.216-17.746-.431-3.43-.916-6.802-1.936-10.109-1.002-3.246-2.342-6.414-3.81-9.471-2.621-5.46-6.234-10.392-10.118-15.014-3.498-4.163-7.468-7.921-11.723-11.302-5.206-4.137-10.6-7.946-16.423-11.167s-11.965-5.924-18.207-8.221c-11.304-4.158-23.555-6.6-35.617-6.613-11.68-.012-23.849 2.412-33.925 8.542-11.042 6.717-18.773 17.356-22.299 29.745-1.065 3.741-1.599 7.58-2.065 11.436-.355 2.939-.5 5.877-.309 8.833.54 8.332 2.285 16.575 5.013 24.454 3.009 8.691 6.799 17.314 11.866 25.017 4.81 7.312 10.791 14.594 18.83 18.477 4.261 2.058 8.522 3.332 13.286 3.477 4.525.138 8.351-3.567 8.931-7.885.556-4.141-2.054-9.149-6.514-9.977ZM499.662 309.79c-3.399 10.608-.016 22.252 7.051 30.535 3.546 4.156 8.363 6.926 13.377 8.899a26 26 0 0 0 5.613 1.501c1.784.272 3.613.545 5.426.581 3.434.068 6.478-.852 9.026-3.268 2.306-2.187 3.168-5.357 2.756-8.418-.435-3.234-2.118-5.501-4.784-7.321-3.169-2.162-6.931-1.286-10.478-1.723l2.711.364a25.4 25.4 0 0 1-6.346-1.748l2.404 1.014a25.4 25.4 0 0 1-5.023-2.922l2.012 1.555a24.8 24.8 0 0 1-4.414-4.391l1.529 1.979a25 25 0 0 1-2.957-5.115l.967 2.292a25.7 25.7 0 0 1-1.668-6.083l.336 2.499a29.2 29.2 0 0 1-.006-7.465l-.321 2.389.059-.394c.368-2.476.413-4.651-.903-6.9-1.087-1.857-3.217-3.629-5.351-4.115-4.896-1.115-9.484 1.476-11.015 6.254Zm-235.553 70.39c-27.441 117.643-61.202 277.47-59.77 398.263.312 26.305 1.319 52.662 5.068 78.7a377 377 0 0 0 37.514 117.856A5873 5873 0 0 0 702.973 747.49a183.2 183.2 0 0 1-19.339-53.757c-55.212 55.484-139.008 67.334-212.017 95.555-66.557 25.728-127.276 66.866-196.589 83.82-3.806.931-7.847 1.781-11.587.611-5.911-1.849-9.178-8.024-11.649-13.703-23.479-53.957-31.031-114.731-21.472-172.793"/><path d="M255.698 377.861c-8.618 35.861-16.922 71.8-24.577 107.88-8.242 38.842-15.889 77.856-21.991 117.096-6.047 38.883-10.993 77.995-13.622 117.269-2.659 39.725-3.228 80.115.722 119.763 4.373 43.894 15.675 86.48 34.09 126.585a386 386 0 0 0 6.896 14.219c2.967 5.822 10.1 6.382 15.379 4.032a5891 5891 0 0 0 180.606-84.08 5975 5975 0 0 0 177.17-89.834c32.999-17.429 65.817-35.198 98.505-53.205 5.658-3.117 7.147-10.551 4.195-15.998a190 190 0 0 1-6.258-12.601q-.667-1.48-1.305-2.974c.932 2.181-.504-1.27-.674-1.697a182 182 0 0 1-2.472-6.584c-3.127-8.852-5.547-17.927-7.31-27.146-1.716-8.973-13.861-11.118-19.786-5.224a194 194 0 0 1-10.792 9.953 203 203 0 0 1-5.261 4.348c-.473.377-.952.748-1.425 1.126-1.05.837.549-.408.609-.468-.921.936-2.206 1.667-3.266 2.443-7.668 5.619-15.721 10.702-24.027 15.322-8.366 4.654-16.983 8.846-25.749 12.69-1.121.492-2.248.97-3.37 1.458-1.576.686 1.877-.777.287-.12l-1.274.531a431 431 0 0 1-7.27 2.935 532 532 0 0 1-13.441 5.073c-36.942 13.392-75.119 23.149-111.773 37.366-41.849 16.232-81.131 38.056-121.87 56.743a695 695 0 0 1-15.316 6.815l-1.924.823c-.376.161-2.067.86-.105.046-1.127.468-2.252.939-3.38 1.403a492 492 0 0 1-8.245 3.306c-10.052 3.925-20.244 7.503-30.588 10.583-5.355 1.594-10.753 3.116-16.2 4.364-.703.161-1.407.304-2.112.454-.71.151-1.947-.086-.092.015-.681-.037-1.445.019-2.12.02.237 0 1.801.393.501.006-1.799-.535 1.698 1.126.364.245-.405-.268-1.974-.805-.535-.185 1.105.476.335.315-.089-.116-.082-.084-1.686-1.829-1.696-1.827.231-.058 1.52 2.322.331.298-.218-.371-.459-.73-.678-1.101a42 42 0 0 1-1.631-3.06c-.437-.9-.847-1.812-1.249-2.729q-.428-.98-.846-1.965c.659 1.544.045.1-.27-.664a303 303 0 0 1-6.067-16.001 308 308 0 0 1-9.287-32.372 310 310 0 0 1-4.531-24.178c-.073-.495-.628-4.684-.316-2.191-.199-1.593-.403-3.184-.586-4.779-2.563-22.317-2.717-44.914-.391-67.259q.417-3.99.935-7.967c-.316 2.436.247-1.679.327-2.212q.316-2.116.661-4.229c.971-5.965-1.545-12.775-8.101-14.268-5.582-1.271-13.225 1.697-14.268 8.101-7.688 47.225-5.26 95.722 8.011 141.764a305 305 0 0 0 11.499 32.788c4.707 11.303 10.233 24.226 23.759 26.736 7.063 1.311 14.003-.562 20.809-2.353a332 332 0 0 0 16.563-4.833c10.779-3.445 21.39-7.401 31.857-11.698 42.781-17.561 83.081-40.414 125.486-58.793a773 773 0 0 1 3.861-1.658c.373-.159 2.069-.858.115-.049l1.938-.807a504 504 0 0 1 7.782-3.152 514 514 0 0 1 14.766-5.568c9.518-3.431 19.122-6.618 28.757-9.704 19.366-6.203 38.866-11.99 58.143-18.47 38.881-13.069 77.351-29.259 108.788-56.229 3.715-3.187 7.285-6.539 10.737-10.008l-19.786-5.224c3.882 19.758 10.977 38.863 20.658 56.511l4.195-15.998c-57.996 32.333-116.616 63.558-175.714 93.829-58.929 30.185-118.399 59.319-178.331 87.46a5897 5897 0 0 1-101.778 46.611l15.379 4.032a388 388 0 0 1-6.912-14.209 387 387 0 0 1-3.121-6.961 339 339 0 0 1-1.511-3.502c.09.212.563 1.369.075.168-.342-.841-.696-1.678-1.039-2.519a378 378 0 0 1-10.702-29.733 378 378 0 0 1-13.703-61.177q-.148-1.15-.292-2.302a449 449 0 0 1-1.382-12.686 516 516 0 0 1-1.266-16.195 971 971 0 0 1-1.549-33.642c-.511-18.056-.217-36.112.655-54.153.905-18.717 2.401-37.402 4.307-56.043.969-9.475 2.046-18.939 3.214-28.391.601-4.866 1.234-9.727 1.876-14.588.228-1.724-.197 1.435.039-.29l.206-1.516q.241-1.77.487-3.539.527-3.798 1.07-7.595c5.599-39.101 12.281-78.041 19.789-116.819 7.028-36.298 14.741-72.46 22.818-108.539q1.41-6.3 2.835-12.598c1.038-4.591-1.402-9.441-6.092-10.729-4.438-1.219-9.624 1.493-10.729 6.092Z"/><path d="M383.621 469.727c-6.668 2.834-9.909 10.151-10.501 16.936-.55 6.303 2.082 13.445 6.863 17.655 6.533 5.752 15.349 7.312 23.694 5.274 3.487-.852 6.996-2.383 9.954-4.423 3.716-2.563 6.556-5.5 9.261-9.075 4.849-6.409 7.576-14.283 9.741-21.945l-9.382 7.143c.353-.014.692 0 1.042.045l-2.587-.348c.319.061.616.145.919.263l-2.326-.981c.36.164.683.359.998.597l-1.971-1.523c.379.316.707.663 1.014 1.049l-1.524-1.972c.781 1.048 1.336 2.224 1.848 3.421l-.983-2.33c1.299 3.099 2.273 6.485 4.24 9.242 2.896 4.058 7.027 7.198 12.005 8.203 4.295.867 8.941.858 13.102-.663 4.508-1.648 8.486-4.267 11.753-7.806 3.213-3.48 5.803-7.493 8.253-11.526l-18.074-2.362c.985 2.489 1.748 4.033 3.507 6.058 1.002 1.153 2.289 2.133 3.614 2.878 2.873 1.616 6.085 2.306 9.359 2.396 5.108.14 9.838-1.47 14.529-3.233 11.294-4.244 22.581-8.499 33.83-12.863l67.298-26.103c12.573-4.877 25.133-9.785 37.742-14.567 2.283-.866 4.19-2.026 5.462-4.2 1.146-1.959 1.632-4.846.921-7.043-.716-2.212-2.086-4.345-4.2-5.462-2.058-1.087-4.775-1.782-7.043-.921-19.668 7.459-39.426 14.686-59.15 21.998-19.72 7.31-39.511 14.457-59.167 21.937-5.444 2.072-10.881 4.164-16.322 6.246-4.469 1.71-8.956 3.861-13.729 4.557l2.638-.354c-1.43.187-2.858.245-4.292.065l2.634.354a10 10 0 0 1-2.161-.56l2.366.998a7.6 7.6 0 0 1-1.384-.768l2.003 1.548a6.5 6.5 0 0 1-1.122-1.106l1.547 2.002a7 7 0 0 1-.696-1.204l.997 2.362-.11-.274c-.642-1.593-1.303-3.124-2.543-4.363-1.547-1.547-3.536-2.432-5.678-2.72-3.909-.525-7.798 1.292-9.853 4.721-1.521 2.539-3.066 5.064-4.86 7.422l1.542-1.996c-1.469 1.89-3.09 3.629-4.985 5.1l1.991-1.539c-1.167.871-2.388 1.622-3.73 2.191l2.347-.991c-1.233.49-2.497.823-3.81 1.008l2.609-.351a15.5 15.5 0 0 1-3.899-.013l2.606.35a13 13 0 0 1-3.038-.847l2.339.987a11 11 0 0 1-2.13-1.258l1.981 1.53a10.3 10.3 0 0 1-1.546-1.543l1.529 1.979c-.899-1.196-1.529-2.546-2.113-3.916l.984 2.333c-1.201-2.861-2.138-5.954-3.903-8.532-2.891-4.222-7.285-7.3-12.622-7.064-4.302.191-8.208 2.89-9.382 7.143-1.02 3.694-2.163 7.351-3.654 10.885l.977-2.316c-1.34 3.111-2.948 6.084-4.989 8.794l1.511-1.956c-1.432 1.853-3.031 3.551-4.877 4.996l1.952-1.508a25 25 0 0 1-5.06 2.974l2.299-.97c-1.8.76-3.659 1.301-5.591 1.596l2.554-.343c-1.774.238-3.536.285-5.314.058l2.536.341a16.8 16.8 0 0 1-3.729-.997l2.264.956c-1.116-.473-2.171-1.049-3.134-1.786l1.907 1.473a12.7 12.7 0 0 1-1.95-1.962l1.467 1.898a14.4 14.4 0 0 1-1.701-2.87l.94 2.228c-.384-.914-.755-1.836-1.163-2.74l.938 2.224a16 16 0 0 1-1.044-3.769l.326 2.426a15.2 15.2 0 0 1-.021-3.849l-.32 2.379c.155-1.065.423-2.09.835-3.085l-.887 2.102c.32-.723.72-1.387 1.198-2.017l-1.365 1.767a10 10 0 0 1 1.678-1.653l-1.755 1.356a10.4 10.4 0 0 1 1.636-.977c1.858-.893 3.436-3.234 3.966-5.157.569-2.066.312-4.816-.87-6.65-1.188-1.843-2.957-3.465-5.157-3.966l-2.294-.308a8.6 8.6 0 0 0-4.355 1.178Zm1.88 119.377a3729 3729 0 0 0 24.864-6.633c8.358-2.263 16.639-4.789 24.925-7.301 16.42-4.979 32.735-10.283 49.011-15.713a2808 2808 0 0 0 48.902-16.818c16.249-5.756 32.457-11.634 48.567-17.767a2801 2801 0 0 0 54.033-21.214c2.469-.999 4.481-2.132 5.878-4.52 1.234-2.108 1.756-5.215.992-7.579-.77-2.38-2.245-4.676-4.52-5.878-2.189-1.157-5.172-1.954-7.579-.992q-24.009 9.6-48.19 18.759c-24.181 9.159-32.126 12.087-48.256 17.948s-32.47 11.629-48.784 17.218c-16.315 5.59-32.705 10.948-49.07 16.388a2386 2386 0 0 1-24.476 8.011c-8.255 2.645-16.413 5.622-24.639 8.357q-2.999.997-6 1.987c-4.049 1.336-7.108 5.702-5.703 10.045 1.375 4.249 5.618 6.869 10.045 5.703Zm18.993 96.852c12.214-3.185 24.14-8.162 35.005-14.584s21.131-14.446 29.808-23.667a130 130 0 0 0 6.741-7.755c2.618-3.265 4.98-6.695 7.512-10.017l-1.6 2.071.244-.308-17.525-7.259c.411 11.796 7.853 22.403 17.716 28.501 10.141 6.271 22.309 7.262 33.766 4.686 11.651-2.62 22.004-9.032 31.315-16.272 8.1-6.299 14.961-13.742 21.11-21.934 6.924-9.225 12.176-19.549 16.093-30.382.864-2.39.279-6.146-1.08-8.254-1.492-2.314-3.663-4.242-6.402-4.923-9.771-2.428-19.688 2.731-24.47 11.393-1.078 1.953-2.025 4.136-2.529 6.325s-.879 4.601-.673 6.868c.414 4.553 1.619 9.059 4.258 12.866 5.086 7.338 12.687 12.179 21.557 13.37 9.397 1.263 18.638-1.608 26.833-6.1 7.525-4.124 14.061-9.788 21.41-14.195 2.227-1.335 4.02-3.614 4.712-6.128.676-2.454.371-5.723-1.034-7.901-3.027-4.695-9.051-6.54-14.028-3.678-8.645 4.971-16.275 11.658-25.495 15.618l2.515-1.061c-3.007 1.257-6.113 2.204-9.346 2.66l2.822-.379a28 28 0 0 1-6.971.012l2.837.381a21.3 21.3 0 0 1-5.1-1.392l2.55 1.076a22 22 0 0 1-4.544-2.634l2.162 1.67a20.6 20.6 0 0 1-3.48-3.427l1.671 2.162a18.2 18.2 0 0 1-2.288-3.885l1.077 2.553a16.8 16.8 0 0 1-1.033-3.724l.382 2.842a13.7 13.7 0 0 1-.012-3.52l-.382 2.843c.177-1.171.485-2.291.92-3.392l-1.078 2.555a16.2 16.2 0 0 1 2.117-3.623l-1.673 2.166a15.4 15.4 0 0 1 2.425-2.409l-2.166 1.674a13.2 13.2 0 0 1 2.559-1.516l-2.558 1.079c.805-.33 1.619-.566 2.479-.706l-2.847.383a10 10 0 0 1 2.588.006l-2.847-.383c.333.057.655.125.983.207l-7.481-13.177a112 112 0 0 1-2.048 5.227l1.08-2.56a108 108 0 0 1-13.854 23.674l1.679-2.174c-5.407 6.96-11.646 13.235-18.621 18.625l2.178-1.683c-5.507 4.221-11.423 7.932-17.827 10.635l2.575-1.087c-4.05 1.675-8.249 2.914-12.597 3.502l2.868-.385c-3.164.394-6.335.43-9.501.043l2.87.386a31 31 0 0 1-7.719-2.1l2.581 1.089c-2.604-1.112-5.021-2.557-7.28-4.262l2.182 1.686a30.3 30.3 0 0 1-5.242-5.154l1.667 2.157a26.8 26.8 0 0 1-3.38-5.688l1.063 2.52c-.814-1.948-1.419-4.02-1.849-6.085-.332-1.591-1.505-3.394-2.64-4.53-1.606-1.606-3.671-2.525-5.895-2.823-3.935-.529-8.257 1.292-10.229 4.901-1.756 3.214-4.131 6.201-6.361 9.096l1.576-2.04c-6.995 9.025-15.106 17.2-24.128 24.201l1.921-1.484c-8.647 6.668-18.093 12.25-28.145 16.52l2.11-.89c-4.283 1.803-8.702 3.299-13.171 4.567-4.364 1.238-7.51 6.19-6.06 10.672 1.464 4.524 5.966 7.287 10.672 6.06Z"/></svg>