<?xml version="1.0" encoding="UTF-8"?><svg xmlns="http://www.w3.org/2000/svg" data-name="ARTWORK" viewBox="0 0 1000 1000"><path d="M161.436 891.076c15.617-72.91 34.025-145.19 53.914-217.044 9.976-36.043 20.252-72.004 31.095-107.796a3294 3294 0 0 1 16.331-52.401c5.028-15.653 10.85-31.149 15.262-46.988 3.249-11.663 5.949-23.471 9.129-35.152 1.663-6.11 3.449-12.19 5.5-18.182.929-2.712 1.91-5.407 2.962-8.074.283-.719 1.882-4.413.734-1.836.716-1.606 1.43-3.21 2.193-4.794 2.541-5.27 5.45-10.375 8.86-15.133.039-.054 2.05-2.714.81-1.127-1.054 1.349.296-.352.563-.667a97 97 0 0 1 2.657-3.042c2.064-2.237 4.282-4.283 6.593-6.259.563-.482 2.473-1.788.172-.161.558-.395 1.105-.802 1.669-1.19a63 63 0 0 1 3.487-2.231c2.267-1.351 4.626-2.429 6.969-3.624 1.398-.713.474.479-.853.336.268.029 1.228-.501 1.561-.632a107 107 0 0 1 3.241-1.217 133 133 0 0 1 7.838-2.512c11.745-3.387 23.823-5.456 35.91-7.169-2.895.41 1.389-.177 2.142-.271q2.264-.283 4.531-.545 5.145-.594 10.3-1.094a773 773 0 0 1 20.112-1.676c23.538-1.672 47.121-2.707 70.667-4.27 13.688-.908 27.362-1.68 41.075-2.106 2.968-.092 5.935-.204 8.901-.283a515 515 0 0 0 4.307-.134c.916-.032 1.835-.085 2.752-.076.279.003 3.143.2 1.706.029-1.378-.164.76.163 1.076.244.663.171 1.32.361 1.98.546.569.16 2.475 1.122.608.178.595.301 1.183.6 1.76.937.569.333 1.12.694 1.666 1.062-.404-.272-1.36-1.367.081.1.448.456.916.959 1.383 1.386 1.597 1.46-.537-1.163.706.823.695 1.111 1.352 2.211 1.951 3.377-.995-1.937.428 1.332.591 1.935.172.638.295 1.274.439 1.917-.452-2.019-.028-.568-.013-.009.017.667.069 1.326.065 1.993-.002.321-.342 3.465.048 1.071-.224 1.379-.621 2.698-1.021 4.033-.617 2.06-.324.777-.103.322-.384.789-.81 1.557-1.229 2.327-2.059 3.782-4.331 7.454-6.725 11.032-8.289 12.386-16.842 20.68-23.801 33.924-3.287 6.256-5.778 12.934-7.066 19.886-1.552 8.381 5.086 16.363 14.006 14.006 97.083-25.65 196.946-36.919 297.041-42.003 25.072-1.273 50.161-2.19 75.255-2.906 12.634-.36 25.27-.672 37.907-.923q4.755-.094 9.51-.184c1.583-.03 3.177-.109 4.76-.088.468.006 3.688.548 1.21-.026 1.005.233 2.005.476 2.965.862-2.409-.969.462.459.791.649 2.563 1.474-.842-.922.345.323.488.512 2.249 3.096 1.006 1 .5.844 1.012 1.653 1.427 2.546-1.142-2.455-.03.487.11.902.864 2.572.308-1.923.093.805-.041.521-.504 3.551.082.906-.225 1.016-.461 2.03-.845 3.001.994-2.512-1.009 1.545-.965 1.467-1.487 2.628-2.998 5.243-4.483 7.872a1196 1196 0 0 0-17.7 32.479 1317 1317 0 0 0-32.213 65.754c-20.251 44.422-38.163 89.925-53.468 136.285-7.522 22.787-14.247 45.791-20.688 68.902-1.168 4.192-2.968 10.201-4.257 12.596-.974 1.81-1.893 3.613-3.084 5.297 1.11-1.569-1.275 1.448-1.241 1.412a28 28 0 0 1-1.767 1.696q1.118-.723-.673.484c-4.166 2.684-7.456 3.514-12.901 4.561-5.992 1.152-9.096 1.382-15.497 2.239a5409 5409 0 0 0-306.822 50.115 5509 5509 0 0 0-337.681 76.226c-6.215 1.609-9.983 8.5-8.301 14.62 1.728 6.287 8.385 9.915 14.62 8.301a5522 5522 0 0 1 309.365-70.687c103.244-20.481 207.081-37.949 311.305-52.644 12.625-1.78 25.398-3.076 37.944-5.344 11.278-2.038 22.008-6.688 29.264-15.853 7.417-9.368 10.541-20.816 13.658-32.145a1296 1296 0 0 1 10.54-36.244c14.314-46.654 31.193-92.622 50.684-137.313a1317 1317 0 0 1 32.143-68.295 1378 1378 0 0 1 16.807-32.101 1456 1456 0 0 1 8.692-15.899c3.175-5.713 7.066-11.376 9.212-17.582 3.688-10.667.588-22.54-6.913-30.742-8.232-9-19.298-9.664-30.697-9.392-26.278.627-52.555 1.305-78.822 2.299-102.95 3.896-206.14 12.661-306.761 35.671a1117 1117 0 0 0-37.011 9.14l14.006 14.006c.641-3.473 1.585-6.798 2.742-10.132.098-.283.825-2.025.11-.369.29-.672.604-1.338.923-1.997a71 71 0 0 1 2.576-4.821c3.426-5.869 7.579-11.278 11.647-16.708 9.296-12.408 21.022-26.54 22.098-42.612.948-14.153-7.417-28.513-19.974-35.021-12.177-6.311-27.213-4.535-40.534-4.601-25.78-.128-51.552 1.348-77.304 2.429-27.412 1.151-55.004 3.206-82.066 7.843-24.263 4.157-49.296 10.997-66.36 29.936-17.967 19.94-25.894 46.412-32.319 71.901-3.01 11.941-5.706 23.988-9.309 35.77-5.533 18.089-11.238 36.12-16.596 54.263-10.816 36.629-20.939 73.461-30.876 110.338-20.036 74.353-38.739 149.089-54.612 224.449a3063 3063 0 0 0-5.854 28.477c-1.006 5.01 1.438 10.228 6.615 11.651 4.719 1.297 10.574-1.591 11.651-6.615Z"/><path d="M285.637 397.087c-84.131 9.247-158.372 11.822-240.476 24.464-12.41 1.911-21.169 13.087-20.067 25.595 13.134 149.134 62.778 307.707 127.21 441.412 4.573-63.536 22.567-157.823 39.702-230.989 14.361-61.319 48.77-134.34 63.131-195.659 4.322-18.455-9.057-27.983 8.754-34.467"/><path d="M285.637 387.709c-26.047 1.958-52.081 4.118-78.126 6.123-24.882 1.915-49.786 3.652-74.635 5.964-26.218 2.439-52.386 5.359-78.461 9.037-5.543.782-11.61 1.044-16.899 2.975-5.728 2.092-11.125 5.308-15.091 10.021-3.842 4.565-6.916 9.922-8.025 15.853-1.149 6.143-.536 11.872.046 18.029 4.626 48.874 12.943 97.391 24 145.209 11.097 47.99 24.987 95.331 41.242 141.824a1463 1463 0 0 0 55.424 136.133 881 881 0 0 0 7.379 15.415c2.113 4.304 8.329 6.678 12.83 5.221 4.995-1.617 8.003-5.757 8.341-10.955.921-14.188 2.335-28.34 4.026-42.456q.69-5.759 1.439-11.51.177-1.364.358-2.727l.208-1.565c.167-1.256-.121.907-.124.926.338-2.104.577-4.229.873-6.339a1004 1004 0 0 1 3.728-24.274c5.507-33.33 11.959-66.505 19.063-99.53 3.325-15.456 6.647-30.941 10.493-46.277 3.963-15.807 8.866-31.366 14.09-46.797 11.023-32.56 23.59-64.578 34.387-97.217 5.009-15.142 9.793-30.455 13.313-46.022 1.713-7.577 1.325-14.654.104-22.246-.187-1.159-.342-2.331-.561-3.484-.181-.956.365 1.881.236 1.778-.055-.044-.084-.705-.094-.841-.04-.538-.092-1.074-.102-1.614-.002-.109-.047-1.504.045-1.527.222-.057-.878 3.439-.11 1.244.698-1.996-.659.903-.526 1.05-.026-.028.384-.688.356-.647.744-1.076-.994 1.27-1.013 1.242-.084-.125 1.119-1.084 1.176-1.193.023-.044-2.093 1.432-1.264.971.289-.161.555-.379.837-.554.552-.344 1.137-.621 1.704-.937 1.004-.558.608.305-.847.315.285-.002 1.095-.424 1.294-.498 5.261-1.97 9.426-7.37 7.523-13.25-1.665-5.146-7.6-9.639-13.25-7.523-7.436 2.785-14.598 7.076-16.76 15.299-1.539 5.85-.166 12.09.895 17.904-.005-.028-.342-3.002-.181-1.285.026.271.06.542.087.813q.098.977.155 1.958c.089 1.607.085 3.22-.034 4.825-.018.244-.188 1-.119 1.285-.048-.199.469-2.735.103-.873-.16.815-.318 1.627-.506 2.437-.465 2.005-.96 4.003-1.464 5.999-1.989 7.876-4.216 15.69-6.589 23.458-10.123 33.136-22.727 65.447-34.233 98.111-5.633 15.992-11.05 32.073-15.691 48.384-4.39 15.429-7.821 31.115-11.28 46.774-7.358 33.311-14.041 66.779-19.836 100.398-5.489 31.846-10.62 63.845-13.745 96.021q-.485 4.993-.886 9.993l21.171-5.734c-5.009-10.607-9.992-21.226-14.813-31.92a1436 1436 0 0 1-12.893-29.484c-.459-1.082-.974-2.269-.209-.493-9.425-21.904-17.978-44.228-26.129-66.634-16.528-45.433-30.799-91.702-42.465-138.623-5.801-23.332-10.95-46.827-15.368-70.46a1120 1120 0 0 1-6.073-35.616q-1.331-8.65-2.52-17.32c-.079-.576-.165-1.152-.236-1.729.385 3.148.024.171-.051-.397q-.283-2.159-.561-4.318a993 993 0 0 1-3.077-26.258c-.567-5.474-1.408-11.028-1.227-16.534.04-1.227.661-.602-.16 1.034.216-.431.218-1.145.334-1.627.195-.809.905-2.022.869-2.83l-.652 1.51a24 24 0 0 1 1.183-2.321c.327-.564.699-1.093 1.046-1.643 1.103-1.75-1.733 1.848-.183.256.758-.778 1.515-1.54 2.296-2.297.816-.792.918-.044-.772.552.53-.187 1.143-.8 1.631-1.1q.562-.345 1.142-.66c.392-.213 2.251-.815.44-.293-1.926.555.207-.058.518-.163a25 25 0 0 1 1.958-.571c5.846-1.447 12.072-1.95 18.031-2.801q4.662-.665 9.329-1.298c3.022-.411-1.624.212.259-.034l2.321-.307q2.778-.364 5.557-.718a1661 1661 0 0 1 36.685-4.23c49.644-5.197 99.432-8.877 149.022-14.597 6.947-.801 13.865-1.77 20.786-2.768 4.597-.663 7.27-6.182 6.718-10.29-.579-4.31-4.544-8.483-9.211-8.132Zm22.403 336.64c23.984-7.567 49.488-10.249 72.287-21.396 9.58-4.684 18.711-10.98 25.995-18.808 3.782-4.064 7.227-8.596 9.88-13.483 3.022-5.569 5.528-11.789 6.041-18.155a16.6 16.6 0 0 0-4.349-12.582c-2.912-3.151-7.425-4.725-11.643-4.742-8.051-.033-14.612 5.344-18.254 12.192-3.168 5.956-5.358 12.666-7.248 19.129a138 138 0 0 0-4.018 18.255c-.954 6.363-1.879 12.893-1.604 19.348.269 6.326 1.492 12.893 4.847 18.366 3.618 5.903 9.489 10.463 16.27 12.088 6.314 1.513 12.958.935 19.161-.816 5.627-1.589 11.019-4.116 16.129-6.932a239 239 0 0 0 15.598-9.387 256 256 0 0 0 30.059-23.051 273 273 0 0 0 6.53-6.018l-15.345-8.932c-3.996 12.22 6.174 24.481 17.737 27.159 6.359 1.473 12.577.863 18.95-.066 5.366-.782 10.718-1.672 16.076-2.514 6.128-.962 12.225-2.279 18.277-3.636 3.967-.89 6.367-5.143 5.853-8.965-.502-3.735-3.963-7.418-8.025-7.085-6.565.539-13.163 1.15-19.681 2.112-5.852.864-11.699 1.778-17.56 2.579l2.418-.325c-3.883.516-7.791.87-11.695.371l2.426.326c-1.741-.255-3.434-.67-5.071-1.322l2.183.921a16.4 16.4 0 0 1-3.387-1.964l1.851 1.43a17 17 0 0 1-2.798-2.763l1.432 1.853a15 15 0 0 1-1.799-2.999l.924 2.189a12.5 12.5 0 0 1-.833-2.937l.328 2.438a10.7 10.7 0 0 1 .013-2.688l-.328 2.44a11 11 0 0 1 .418-1.672c1.226-3.691-.781-8.551-4.219-10.368-3.695-1.952-8.056-1.459-11.125 1.436a234 234 0 0 1-17.231 14.701l1.883-1.455a241 241 0 0 1-20.042 13.921c-6.566 4.08-13.327 8.137-20.457 11.157l2.294-.968c-3.764 1.568-7.663 2.81-11.709 3.386l2.574-.346c-2.386.312-4.779.376-7.168.057l2.586.347a20.4 20.4 0 0 1-4.666-1.269l2.329.983a18 18 0 0 1-3.65-2.105l1.973 1.524a18 18 0 0 1-3.071-3.04l1.524 1.972a20.3 20.3 0 0 1-2.48-4.283l.982 2.327c-.931-2.258-1.497-4.618-1.836-7.033l.348 2.588c-.804-6.193-.17-12.486.649-18.644l-.347 2.585a140 140 0 0 1 9.602-35.176l-.976 2.313c.827-1.927 1.773-3.784 3.054-5.453l-1.498 1.939a14.6 14.6 0 0 1 2.167-2.185l-1.929 1.49a10.3 10.3 0 0 1 2.022-1.202l-2.268.957a10.6 10.6 0 0 1 2.549-.685l-2.512.338a9.7 9.7 0 0 1 2.268.022l-2.503-.336a8.2 8.2 0 0 1 1.814.521l-2.241-.946c.379.181.73.387 1.074.627l-1.896-1.465c.425.332.788.69 1.125 1.11l-1.463-1.893c.299.421.543.845.758 1.314l-.941-2.231a9 9 0 0 1 .493 1.816l-.333-2.478c.127 1.046.1 2.072-.02 3.117l.332-2.47c-.448 3.208-1.555 6.347-2.806 9.322l.927-2.197c-1.827 4.256-4.217 8.223-7.042 11.89l1.417-1.834c-3.656 4.686-7.953 8.809-12.651 12.441l1.799-1.39c-6.482 4.963-13.639 8.97-21.152 12.146l2.066-.872c-15.724 6.583-32.492 9.836-48.913 14.14-4.659 1.221-9.292 2.537-13.872 4.029-4.08 1.329-7.15 5.75-5.74 10.109 1.33 4.109 5.719 7.125 10.109 5.74Zm102.855-381.801a482.5 482.5 0 0 1 26.586-83.724c-.583 1.385-.303.731.123-.261.386-.899 1.863-4.38 1.073-2.527-.561 1.317.183-.426.318-.739a487 487 0 0 1 11.165-24.176c8.871-17.905 18.858-35.259 29.817-51.967a482 482 0 0 1 19.488-27.557c.44-.578 2.528-3.365.913-1.2 1.59-2.133 3.286-4.197 4.953-6.271 2.998-3.732 6.019-7.458 9.186-11.048 1.555-1.763 3.163-3.481 4.884-5.083.525-.489 2.25-1.503 2.483-2.154-.097.271-2.166 1.479-.387.344.568-.363 1.118-.751 1.696-1.099.334-.202 3.396-1.915 1.84-1.07-1.441.782.056.002.501-.146q.808-.268 1.635-.475c.372-.093 2.374-.569.8-.241-1.789.372 1.167-.066 1.296-.071a35 35 0 0 1 4.302.109c.38.031 2.431.251.853.059s.473.089.851.153c1.277.219 2.546.472 3.814.737 2.805.587 5.601 1.217 8.399 1.832a7602 7602 0 0 1 85.418 19.285c45.167 10.471 90.265 21.227 135.25 32.452a7597 7597 0 0 1 134.641 34.909c5.637 1.517 11.289 2.991 16.906 4.582l-2.931-22.425c-30.182 14.144-57.769 34.709-81.746 57.732-23.954 23.002-44.528 49.752-61.254 78.427a333 333 0 0 0-12.8 24.169 327 327 0 0 0-5.642 12.466c-2.102 4.915-3.784 9.92-5.709 14.892-1.907 4.926 2.098 11.268 7.037 12.393 5.772 1.315 10.351-1.762 12.393-7.037-.734 1.896.115-.179.433-.892q.57-1.28 1.152-2.555a427 427 0 0 0 2.608-5.869 327 327 0 0 1 5.043-10.957 332 332 0 0 1 11.273-21.327 337 337 0 0 1 12.561-20.135c2.248-3.336 4.52-6.669 6.945-9.879.567-.751 1.13-1.505 1.699-2.253.211-.277.736-1.169.98-1.281-.03.014-1.251 1.605-.483.626 1.322-1.684 2.644-3.368 3.99-5.033a363 363 0 0 1 32.439-35.128 343 343 0 0 1 24.697-21.283c.352-.275 1.772-1.378.356-.281-1.575 1.221.531-.402.679-.514 3.092-2.352 6.233-4.634 9.39-6.897 14.75-10.569 30.332-19.69 46.343-28.198 9.34-4.963 7.078-19.85-2.931-22.425-45.904-11.809-91.649-24.191-137.647-35.65a7609 7609 0 0 0-137.285-32.852c-23.1-5.301-46.242-10.428-69.398-15.476a5779 5779 0 0 0-34.722-7.485c-12.551-2.656-25.452-3.802-36.686 3.67-8.658 5.758-15.02 14.077-21.412 22.124-6.777 8.531-13.329 17.242-19.563 26.178a473.5 473.5 0 0 0-31.712 52.39c-19.093 36.701-33.49 75.782-42.61 116.139a490 490 0 0 0-3.096 14.789c-.967 4.991 1.404 10.762 6.81 11.993 4.928 1.123 10.822-1.482 11.993-6.81Z"/><path d="M571.533 234.976a1456 1456 0 0 1 60.91 13.828 1747 1747 0 0 1 60.103 16.174 1459 1459 0 0 1 33.76 10.169c4.241 1.333 9.457-1.57 10.451-5.934 1.051-4.614-1.389-9.037-5.934-10.451-19.89-6.189-39.911-11.955-60.048-17.285s-40.325-9.912-60.62-14.208a1459 1459 0 0 0-34.599-6.887c-2.033-.379-3.994-.312-5.831.763-1.57.919-3.067 2.719-3.478 4.523-.86 3.777 1.138 8.46 5.286 9.309Zm-36.315 71.822a4714 4714 0 0 1 60.798 14.622c20.305 5.024 40.587 10.148 60.81 15.491 5.348 1.413 10.698 2.83 15.987 4.455 5.42 1.665 10.931 2.916 16.481 4.048 3.477.709 6.904-.719 8.325-4.086 1.434-3.397.028-6.766-2.887-8.812-8.702-6.108-18.993-8.661-29.175-11.15s-20.406-4.925-30.613-7.367a4978 4978 0 0 0-61.256-14.249 4653 4653 0 0 0-34.421-7.637c-3.882-.846-8.419 1.16-9.366 5.318-.886 3.892 1.169 8.398 5.318 9.366Zm36.408 74.532a358 358 0 0 0 49.524 12.422q3.541.623 7.095 1.173c1.743.27 3.49.496 5.246.661 1.771.167 3.657.436 5.355-.272 1.226-.511 2.399-.997 3.36-1.958 1.191-1.191 1.872-2.722 2.094-4.372.187-1.393.027-2.65-.52-3.946-.693-1.642-1.69-2.563-3.115-3.641s-3.113-1.284-4.799-1.582a124 124 0 0 0-5.227-.792l2.157.29a359.5 359.5 0 0 1-57.171-12.488c-3.763-1.15-8.367 1.369-9.252 5.253-.942 4.135 1.248 7.939 5.253 9.252M424.049 224.878c-9.441-1.097-18.877-2.21-28.383-2.442s-19.085-.386-28.629-.46c-18.9-.145-37.846.3-56.721 1.231a1724 1724 0 0 0-32.05 1.883c-3.359.229-6.937 1.272-9.309 3.856l-2.058 2.664a13.1 13.1 0 0 0-1.797 6.644c-3.665 29.39-6.647 58.861-9.262 88.363-1.299 14.657-2.668 29.333-3.509 44.025s-1.556 29.375-2.146 44.073c-.331 8.257-.708 16.513-.731 24.777a2844 2844 0 0 0-.009 12.393c.006 4.839-.023 9.741 1.047 14.491l-.348-2.592c.065 1.325.276 2.65.431 3.967.282 2.395.801 4.743 2.679 6.467 1.511 1.387 3.21 2.241 5.252 2.516 4.232.569 9.111-2.079 10.035-6.551.36-1.744.718-3.48 1.124-5.21.629-2.675.947-5.404 1.284-8.129.467-3.787.75-7.605 1.129-11.402.741-7.432 1.41-14.856 1.99-22.303a3692 3692 0 0 1 3.806-45.071c2.69-29.834 5.015-59.692 8.085-89.493 1.728-16.783 3.58-33.555 5.474-50.319l-13.164 13.164c18.956-1.511 37.938-2.627 56.919-3.759s37.826-2.039 56.747-2.739c5.331-.197 10.619-.429 15.934-.878 5.398-.456 10.789-1.017 16.183-1.522 2.388-.224 4.488-.834 6.238-2.584 1.53-1.53 2.682-4.04 2.584-6.238-.102-2.281-.852-4.647-2.584-6.238l-1.785-1.379a8.8 8.8 0 0 0-4.452-1.204Zm374.944 89.355c11.17 2.311 22.328 4.664 33.555 6.682s22.489 4.038 33.749 5.977l9.305 1.603 4.897.843c1.416.244 2.939.355 4.292.858l-2.653-1.12q.315.132.577.351l-2.251-1.739.237.244-1.74-2.252.195.304-1.122-2.66q.157.318.189.671l-.398-2.964q.033.364-.028.726l.399-2.967a8 8 0 0 1-.467 1.469l1.128-2.674a13534 13534 0 0 0-22.768 49.789c-2.482 5.46-5.288 10.9-7.284 16.556-.895 2.535-.305 6.456 1.137 8.693 1.351 2.095 3.088 3.643 5.395 4.616 5.048 2.13 11.322.314 14.088-4.616 2.654-4.73 4.633-9.929 6.863-14.873l6.741-14.944c4.493-9.961 9.132-19.87 13.442-29.911 1.625-3.785 3.678-7.449 3.662-11.684-.013-3.539-1.512-6.751-3.942-9.249-1.478-1.519-3.505-2.538-5.495-3.186-1.345-.438-3.004-.521-4.313-.694-5.416-.718-10.832-1.428-16.248-2.142a4549 4549 0 0 0-32.497-4.14c-12.125-1.509-24.275-2.699-36.436-3.891-1.914-.188-4.602 1.045-5.876 2.434-1.26 1.373-2.036 2.917-2.286 4.772-.517 3.846 1.889 8.278 5.953 9.118"/></svg>