<?xml version="1.0" encoding="UTF-8"?><svg xmlns="http://www.w3.org/2000/svg" data-name="ARTWORK" viewBox="0 0 1000 1000"><path d="M208.95 99.022c-35.3-1.447-70.586-3.155-105.876-4.825-15.79-.747-32.222-2.676-47.827.767-15.252 3.365-28.747 13.224-35.435 27.503-6.201 13.24-7.872 27.722-8.251 42.204-.443 16.922-.296 33.873-.337 50.799-.086 35.073-.02 70.146.235 105.217.505 69.274 1.965 138.547 4.359 207.781s5.742 138.63 10.278 207.849c1.141 17.405 2.671 34.781 4.19 52.157a1439 1439 0 0 0 2.546 26.538c.902 8.501 1.286 16.581 5.132 24.371 3.134 6.349 8.59 11.885 14.683 15.436 6.802 3.964 14.038 5.001 21.769 5.309 16.959.675 33.897 1.788 50.839 2.792 34.047 2.017 68.163 3.785 102.272 2.399 8.235-.335 17.246-.364 25.132-2.955 8.132-2.671 14.753-7.858 19.299-15.113 7.115-11.356 7.24-24.659 6.889-37.568-1.093-40.266-2.858-80.518-4.656-120.757-2.18-48.803-4.547-97.598-6.738-146.401-2.57-57.246-4.917-114.502-6.818-171.774-2.149-64.756-3.65-129.524-4.861-194.304-.321-17.138-.678-34.28-.816-51.42-.047-5.919-5.172-11.594-11.318-11.318-6.092.273-11.369 4.974-11.318 11.318.523 65.355 1.331 130.671 3.124 196.007 1.594 58.07 3.787 116.125 6.241 174.164 2.117 50.081 4.476 100.151 6.789 150.223 1.941 42.023 3.923 84.049 5.234 126.098.285 9.153.545 18.307.768 27.462q.167 6.857.306 13.713c.042 2.085.114 4.172.109 6.257a55 55 0 0 1-.162 4.212 49 49 0 0 1-.208 2.12c.337-2.745-.129.393-.256.99a42 42 0 0 1-1.079 4.099c.012-.038-1.186 3.164-.487 1.488.585-1.403-.306.578-.472.897a28 28 0 0 1-1.006 1.783c-.187.304-1.381 2.104-.493.854 1.024-1.441-.982 1.051-1.007 1.077-.225.229-2.322 2.017-1.053 1.048 1.245-.951-4.016 1.821-1.926 1.087-1.55.544-3.151.886-4.76 1.199-.334.065-2.377.265-.44.065a94 94 0 0 1-2.482.217c-2.213.17-4.431.289-6.647.412a721 721 0 0 1-49.543 1.02c-33.096-.448-66.16-2.502-99.219-4.007-4.023-.183-8.046-.341-12.069-.526-.226-.01-2.827-.1-1.231 0 1.699.105-1.443-.292-1.476-.3-.652-.153-1.285-.369-1.934-.532-2.026-.508.577.504-.479-.103-1.284-.738-2.581-1.396-3.835-2.191-.472-.299-1.486-1.382.012.011-.479-.445-.967-.866-1.431-1.329-.609-.608-2.527-3.299-1.325-1.416-.884-1.384-1.773-2.769-2.411-4.29.911 2.171-.268-1.262-.437-1.981a25 25 0 0 1-.392-2.001c.368 2.466.066-.027.055-.46-.116-4.67-.498-9.357-.727-14.024-.422-8.599-.994-17.19-1.497-25.785-3.962-67.711-8.032-135.408-10.511-203.195-2.467-67.44-3.911-134.915-4.576-202.395-.672-68.176-.449-136.338-.272-204.514.017-6.62.06-13.243.653-19.841q.097-1.092.216-2.183c.051-.471.36-2.814.089-.886-.317 2.248.221-1.283.242-1.402a85 85 0 0 1 .393-2.126c.62-3.122 1.432-6.211 2.508-9.209.235-.654.491-1.298.743-1.945-.169.433-1.254 2.605-.119.43.634-1.215 1.245-2.431 1.963-3.601.558-.91 2.756-3.66.822-1.415 1.131-1.313 2.273-2.59 3.56-3.756a28 28 0 0 1 1.606-1.372c-2.102 1.636-.002.132.569-.225 1.31-.82 2.676-1.461 4.036-2.184 1.76-.936-1.985.577-.059.048.919-.252 1.816-.637 2.731-.911 1.671-.5 3.369-.905 5.08-1.242.776-.153 5.794-1 2.831-.565 1.574-.231 3.174-.351 4.76-.473 3.581-.275 7.173-.372 10.763-.414 8.091-.095 16.184-.066 24.276-.093 17.275-.057 34.551-.134 51.827-.206 16.782-.07 33.564.003 50.346.054 5.39.016 9.973-4.595 9.973-9.973 0-5.586-4.57-9.752-9.973-9.973Z"/><path d="M55.178 769.598c26.319-.278 52.63-.009 78.944.474 13.197.242 26.403.514 39.588 1.148 13.108.631 26.214 1.356 39.318 2.077q10.946.603 21.885 1.311c7.451.482 14.937.851 22.369 1.57l-2.297-.309 1.867.573c5.686 1.747 11.509-3.009 11.509-8.767 0-2.331-1.014-4.78-2.663-6.429a9.1 9.1 0 0 0-4.012-2.338 9.16 9.16 0 0 0-4.834 0l-1.867.3 2.297-.309c-6.63-.264-13.257-.783-19.883-1.136q-9.82-.523-19.645-.961a1420 1420 0 0 0-39.314-1.208c-26.316-.444-52.613-.952-78.934-.657q-22.168.25-44.327.929c-3.586.11-7.035 3.079-6.865 6.865.165 3.687 3.017 6.906 6.865 6.865Zm91.1-233.041c-11.144-4.035-23.756-1.851-34.002 3.617-10.204 5.445-18.955 14.328-24.647 24.361-2.751 4.849-4.899 10.35-5.853 15.864-.549 3.172-.992 6.439-.902 9.671.093 3.325.564 6.692 1.224 9.946 1.989 9.807 7.532 19.386 15.371 25.67 2.309 1.851 4.653 3.65 7.216 5.135 2.604 1.508 5.38 2.671 8.173 3.781 3.928 1.561 8.056 2.6 12.235 3.213 5.273.773 10.505 1.265 15.837 1.029a91 91 0 0 0 16.101-2.169c12.266-2.79 23.697-8.539 33.517-16.329 9.032-7.165 15.685-17.105 18.484-28.322 4.67-18.717.751-45.007-20.661-51.233-2.716-.79-5.655-1.126-8.478-1.154-2.801-.028-5.8 1.246-7.774 3.22-1.907 1.907-3.343 5.035-3.22 7.774.269 6.006 4.83 10.931 10.994 10.994a24 24 0 0 1 2.774.183l-2.923-.393c1.594.221 3.142.619 4.632 1.229l-2.626-1.108a17.4 17.4 0 0 1 3.652 2.107l-2.224-1.718a18.8 18.8 0 0 1 3.262 3.251l-1.717-2.223c1.215 1.578 2.188 3.308 2.976 5.134l-1.107-2.622c1.182 2.81 1.91 5.774 2.325 8.789l-.392-2.916c.559 4.256.504 8.571-.065 12.823l.391-2.913c-.449 3.227-1.19 6.414-2.339 9.467l1.104-2.615c-1.338 3.053-3.078 5.873-5.115 8.511l1.766-2.285a305 305 0 0 0-2.475 3.191l1.77-2.291c-2.677 3.445-5.801 6.486-9.233 9.173l2.299-1.777c-4.7 3.63-9.886 6.555-15.342 8.886l2.728-1.151c-6.132 2.584-12.526 4.382-19.12 5.283l3.053-.41c-6.184.82-12.456.886-18.643.069l3.069.412c-4.845-.662-9.605-1.87-14.115-3.772l2.769 1.168c-3.408-1.461-6.652-3.25-9.596-5.511l2.331 1.801a36 36 0 0 1-6.257-6.228l1.789 2.316a35.2 35.2 0 0 1-4.467-7.66l1.146 2.715c-1.331-3.196-2.195-6.543-2.673-9.969l.403 2.998c-.423-3.203-.464-6.377-.034-9.582l-.4 2.976c.525-3.679 1.578-7.244 3.022-10.665l-1.119 2.652c1.934-4.499 4.309-8.726 7.292-12.618l-1.669 2.16c2.877-3.707 6.185-7.063 9.899-9.934l-2.065 1.595c3.261-2.486 6.828-4.599 10.606-6.198l-2.314.976c2.8-1.159 5.709-1.994 8.713-2.408l-2.441.328a30.5 30.5 0 0 1 7.734-.022l-2.328-.313q1.573.217 3.117.592c4.355 1.055 9.505-1.379 10.556-5.994.5-2.197.392-4.663-.865-6.613-1.265-1.962-2.93-3.148-5.129-3.944m98.058-255.004c6.197 23.059 11.417 46.36 17.516 69.443 6.148 23.268 12.219 46.566 18.669 69.753 12.796 46.001 25.954 91.895 40.156 137.484s29.23 91.204 45.68 136.165c16.592 45.352 34.532 90.147 54.332 134.198 4.436 9.868 8.566 20.91 18.41 26.684 11.497 6.744 25.556 1.403 37.465-1.462 18.78-4.517 37.282-9.985 55.261-17.078 5.562-2.194 11.077-4.51 16.562-6.887 5.091-2.206 10.899-4.141 14.749-8.351 11.109-12.146.199-26.11-6.235-37.324-11.599-20.217-21.668-41.276-30.812-62.705-.178-.418-1.498-3.546-.82-1.93q-.85-2.03-1.694-4.063a960 960 0 0 1-3.331-8.151 1188 1188 0 0 1-6.464-16.391c-4.17-10.797-8.198-21.647-12.167-32.519a6845 6845 0 0 1-24.513-68.22c-16.483-46.678-32.414-93.55-47.853-140.584-15.378-46.847-30.186-93.881-44.591-141.036a8187 8187 0 0 1-10.722-35.383c-1.719-5.717-3.277-11.511-5.175-17.171-2.006-5.983-4.98-11.852-10.556-15.252-6.82-4.159-14.261-2.803-21.577-1.127a3388 3388 0 0 0-18.035 4.194c-12.209 2.868-24.429 5.693-36.62 8.64-11.995 2.9-23.993 5.787-35.984 8.7-6.087 1.479-10.307 8.701-8.359 14.722 2.047 6.325 8.2 9.943 14.722 8.359a9688 9688 0 0 0 71.292-17.607 3461 3461 0 0 0 17.94-4.539c1.322-.34 2.642-.689 3.968-1.016.667-.165 1.359-.274 2.017-.464 1.487-.43-.509.151-.485.044l1.014-.025-1.029-.172c-.166-.162-1.801-1.426-.296-.151-.038-.032-1.59-1.453-.751-.545.882.956-1.042-1.903-.015-.087.27.476.533.975.813 1.446.923 1.554-.236-.355-.127-.353.191.004.895 2.662.937 2.797.908 2.935 1.776 5.882 2.665 8.823a8288 8288 0 0 0 5.285 17.408c13.976 45.856 28.351 91.591 43.176 137.179 14.827 45.591 30.016 91.062 45.75 136.349 15.391 44.3 30.963 88.593 47.728 132.394 8.204 21.434 16.927 42.702 26.754 63.448 4.871 10.286 10.027 20.438 15.531 30.4a451 451 0 0 0 8.279 14.364c.731 1.215 1.494 2.414 2.18 3.655.333.603.679 1.216.958 1.845-.119-.269-.403-1.406-.188-.271.311 1.64.349-1.681.091-.081-.307 1.896.935-2.603.798-2.369 1.048-1.806.915-.802.265-.329 2.106-1.532.412-.361-.097-.072-2.118 1.206-4.43 2.107-6.657 3.087a524 524 0 0 1-5.36 2.325c-.706.302-2.143.901-.66.282a422 422 0 0 1-13.463 5.366 368 368 0 0 1-26.29 8.783c-9.323 2.737-18.729 5.214-28.139 7.635q-3.924 1.01-7.852 2c-1.258.317-2.513.644-3.781.917-.239.051-2.487.502-1.298.302 1.103-.185-1.598.087-1.85.111-.362.035-2.021-.241-.393.084-.486-.097-.981-.325-1.466-.396-1.362-.2 1.295.918.25.07-.286-.232-.734-.466-1.06-.642 1.594.86.744.637.237.079-.37-.408-.77-.822-1.154-1.221-.442-.458-.855-1.513.098.137-.288-.498-.649-.962-.952-1.452-2.633-4.253-4.413-9.019-6.359-13.606l-.887-2.095c-.491-1.161-.101-.239-.002-.005a1937 1937 0 0 1-5.239-12.558 2086 2086 0 0 1-12.935-32.065c-8.523-21.637-16.992-43.289-25.046-65.107-16.051-43.484-31.042-87.362-45.159-131.51-14.193-44.385-27.612-89.029-40.639-133.769s-25.404-89.332-38.883-133.76c-3.301-10.882-6.522-21.767-9.545-32.729-1.296-4.7-6.676-8.063-11.469-6.512-4.832 1.564-7.868 6.422-6.512 11.469Z"/><path d="M265.906 854.738c4.306-3.103 8.924-5.719 13.25-8.802q6.487-4.623 12.914-9.327c9.201-6.736 18.422-13.5 27.31-20.646 16.634-13.375 32.849-27.202 48.613-41.593a1261 1261 0 0 0 26.386-24.795c2.116-2.046 3.397-5.278 3.397-8.2 0-2.844-1.263-6.242-3.397-8.2-2.21-2.029-5.112-3.535-8.2-3.397-3.106.139-5.931 1.202-8.2 3.397a1259 1259 0 0 1-46.196 42.498c-15.724 13.756-31.454 27.503-47.424 40.975a1248 1248 0 0 1-13.33 11.088c-2.294 1.881-4.628 3.716-6.903 5.619-2.26 1.891-4.276 4.1-6.608 5.902l1.782-1.377q-1.12.86-2.244 1.718c-1.895 1.449-3.369 2.842-4.029 5.239-.578 2.099-.317 4.893.884 6.756 1.207 1.872 3.004 3.52 5.239 4.029 2.174.495 4.87.475 6.756-.884m223.025-541.81c-10.681 3.531-21.257 7.368-31.739 11.45a619 619 0 0 0-15.954 6.485 726 726 0 0 0-8.124 3.475q-1.725.753-3.445 1.516c.098-.044-2.7 1.242-1.338.614 1.73-.797-2.261.991-2.959 1.305-5.074 2.286-10.166 4.553-15.16 7.01-4.913 2.418-9.919 5.992-12.316 11.077-3.5 7.426-2.14 15.074 1.944 21.98 2.853 4.824 6.086 9.511 9.266 14.124 26.461 38.388 52.897 76.795 79.689 114.953a19830 19830 0 0 0 161.516 226.636c13.572 18.765 27.267 37.442 40.996 56.092 6.893 9.363 13.493 19.124 20.936 28.059 3.832 4.599 8.783 8.364 14.553 10.141 6.733 2.073 13.806.375 20.381-1.428 19.132-5.248 37.323-13.352 54.64-22.963 8.6-4.773 17.032-9.839 25.482-14.87 6.143-3.657 11.529-7.297 14.271-14.223 2.793-7.059.303-14.605-2.925-21.016-8.553-16.985-19.346-32.989-30.424-48.405-12.27-17.075-25.264-33.63-38.476-49.983-25.99-32.17-52.147-64.188-77.813-96.621a5960 5960 0 0 1-21.052-26.754 4760 4760 0 0 1-16.27-20.919c-1.304-1.685-.222-.287.034.044q-1.447-1.873-2.891-3.748c-13.679-17.751-27.221-35.608-40.576-53.604-26.774-36.079-52.802-72.721-77.634-110.167a2099 2099 0 0 1-17.778-27.28c-3.231-5.041-10.327-7.559-15.676-4.11-5.04 3.25-7.57 10.279-4.11 15.676 23.551 36.736 48.364 72.656 73.984 107.977 26.049 35.913 52.947 71.202 80.267 106.155a6381 6381 0 0 0 78.785 98.784 2539 2539 0 0 1 26.704 33.389q2.252 2.867 4.49 5.745c.79 1.015 1.626 2.013 2.374 3.06-.206-.289-1.49-1.934-.22-.284l1.313 1.707c12.03 15.658 23.632 31.619 34.566 48.063 5.105 7.677 10.013 15.49 14.595 23.492a316 316 0 0 1 3.177 5.682q.723 1.323 1.429 2.655c.248.468.498.934.737 1.406q.293.569.562 1.148.555 1.197-.342-.86c.765.74.358 2.434.933 3.237-.221-.309-.163-2.8-.255-.728.014-.324.538-2.809-.032-.798.125-.442.774-2.352 1.472-2.593.125-.043-1.067 1.074-1.076 1.066-.13-.126 2.108-1.437.553-.46-.655.412-1.303.827-1.966 1.226-15.987 9.63-32.017 19.419-49.04 27.136q-1.609.729-3.23 1.434c-2.719 1.181 1.932-.784-.823.353a205 205 0 0 1-20.654 7.26 183 183 0 0 1-6.857 1.889c-.602.151-1.223.272-1.823.437-2.164.595.009.152.372.049-.742.211-1.561-.007-2.307.107-1.387.212 1.947.619.123.027.034.011-1.307-.486-1.393-.448 1.081-.477 2.127 1.172.866.251-.474-.346-1.671-1.64-.614-.305 1.034 1.307.185.121-.226-.253a29 29 0 0 1-2.113-2.155c-.424-.476-.822-.971-1.235-1.456-1.401-1.641 1.074 1.486.23.297-12.91-18.181-26.087-36.178-39.1-54.286-26.352-36.67-52.823-73.253-79.075-109.996a19830 19830 0 0 1-78.381-110.499 44813 44813 0 0 1-97.445-138.94l-4.792-6.86c-.752-1.076-1.496-2.157-2.254-3.229a70 70 0 0 0-2.447-3.25c1.739 2.189-.28-.44-.485-.719-1.534-2.084-3.098-4.149-4.6-6.255-.672-.943-1.354-1.89-1.935-2.893-.16-.276-.75-1.122-.804-1.516q.885 2.183.313.383l.167 1.405c-.149-2.017-.105.254-.18.673.312-1.745-.243.52-.39.816.828-1.663-.271.591-.605.596.191-.003 1.001-1.053 1.204-1.239 1.942-1.784-1.658 1.044.598-.421 1.028-.668 2.096-1.268 3.168-1.861a459 459 0 0 1 14.492-7.688A572 572 0 0 1 469.4 340.08c.197-.085 1.981-.831 1.016-.429-1.523.633 3.244-1.366 1.733-.728-1.172.495 1.673-.694 1.464-.608a529 529 0 0 1 5.23-2.122 606 606 0 0 1 14.921-5.737c4.448-1.645 7.952-6.234 6.35-11.184-1.454-4.494-6.349-7.948-11.184-6.35Z"/><path d="M556.217 825.203c.893-.664 1.756-1.387 2.709-1.962 1.071-.647 2.207-1.134 3.289-1.744 1.483-.835 2.89-2.239 4.232-3.327q1.464-1.185 2.903-2.399c3.498-2.947 6.837-6.063 10.082-9.285 6.526-6.481 12.691-13.363 18.615-20.398 6.554-7.784 12.52-16.032 18.316-24.39 2.648-3.819 5.526-7.495 8.075-11.378s5.073-7.782 7.591-11.685c2.817-4.366 5.628-8.737 8.458-13.096 1.431-2.203 2.8-4.447 4.202-6.669 1.884-2.987 4.107-5.892 4.751-9.443.384-2.119.582-4.3 0-6.412-.699-2.539-2.264-4.675-4.322-6.265-1.733-1.339-3.535-2.083-5.705-2.374-2.546-.342-5.479-.034-7.69 1.431-2.373 1.572-4.087 3.071-5.719 5.429-.472.681-.923 1.378-1.383 2.067a1027 1027 0 0 0-2.75 4.149 371 371 0 0 0-5.154 8.038c-3.37 5.409-6.718 10.83-10.095 16.234-1.686 2.697-3.481 5.347-5.065 8.105s-3.147 5.524-4.868 8.206c-3.504 5.46-7.091 10.868-10.81 16.184-4.089 5.844-8.021 11.8-12.38 17.451l1.689-2.186c-3.966 5.051-8.102 9.968-12.456 14.689a314 314 0 0 1-6.593 6.911 193 193 0 0 1-3.394 3.379c-.598.581-1.216 1.144-1.808 1.732-1.079 1.074-1.8 2.334-2.683 3.536l1.424-1.843a33.5 33.5 0 0 1-3.858 3.833c-1.528 1.3-2.602 4.1-2.513 6.068.087 1.938.651 3.657 1.843 5.2 1.096 1.418 2.661 2.666 4.458 3.075 2.107.48 4.798.485 6.613-.865ZM417.64 357.763c17.584-6.066 35.253-11.853 52.81-18 17.211-6.026 34.426-12.043 51.63-18.089 33.555-11.792 66.9-24.393 100.962-34.673 8.588-2.592 17.224-5.023 25.919-7.231 8.487-2.156 17.13-4.554 25.815-5.754-2.437.337.858-.038 1.122-.055a40 40 0 0 1 1.999-.088c.999-.017 1.984.045 2.981.077 2.886.091-1.727-.693 1.026.185.919.293 1.863.522 2.785.816-2.357-.753.251.147.697.385.799.427 1.575.895 2.333 1.391q.763.498 1.495 1.038-1.491-1.182-.048-.016c6.027 5.275 11.568 11.109 17.006 16.985a447 447 0 0 1 15.499 17.691 540 540 0 0 1 7.418 9.118 600 600 0 0 1 3.638 4.617c.177.227 2.17 2.804.639.816a710 710 0 0 1 2.38 3.108c9.698 12.74 19.03 25.758 28.236 38.857 19.277 27.43 38.521 54.745 59.069 81.248 21.808 28.129 43.872 56.057 65.751 84.131a7306 7306 0 0 1 12.038 15.492l2.001 2.585 1.333 1.724q-1.01-1.308.215.278c5.324 6.9 10.632 13.813 15.901 20.756 10.966 14.452 21.824 28.986 32.512 43.644 2.32 3.181 4.658 6.351 6.934 9.564 1.098 1.551 2.017 3.196 3.063 4.773 1.513 2.281-.306-1.999.322.623q.287.869.462 1.766-.268-2.369-.184-.344c.505-3.075-.096-.093-.207.454-.536 2.644 1.167-1.762-.239.578-.935 1.557-1.808 3.142-2.786 4.676a328 328 0 0 1-14.545 20.978l-1.243 1.641q-1.153 1.503.311-.393-.503.648-1.008 1.294a323 323 0 0 1-13.03 15.596c-8.745 9.822-18.087 19.104-27.9 27.856a391 391 0 0 1-15.474 13.083 417 417 0 0 1-3.841 3.047c-.644.505-1.284 1.02-1.939 1.511 2.474-1.854.195-.156-.258.19a463 463 0 0 1-7.949 5.93c-23.393 17.071-48.249 32.045-73.491 46.198-6.634 3.72-12.804 8.323-19.478 11.941-4.848 2.628-6.791 9.733-3.778 14.407 3.172 4.92 9.221 6.589 14.407 3.778-.443.24-2.259.872.489-.287a74 74 0 0 0 2.149-.948c.878-.404 1.749-.821 2.623-1.233 1.88-.885 3.752-1.785 5.622-2.69 3.542-1.713 7.056-3.471 10.487-5.398a1088 1088 0 0 0 20.27-11.657c12.532-7.398 24.896-15.088 36.953-23.239 23.391-15.812 45.784-33.361 65.657-53.462 9.758-9.869 18.816-20.359 27.299-31.339 4.45-5.76 8.742-11.637 12.818-17.669 4.973-7.358 10.437-14.818 11.213-23.941.841-9.893-5.719-17.98-11.192-25.444a2504 2504 0 0 0-16.216-21.856c-11.005-14.671-22.163-29.226-33.366-43.746-22.675-29.387-45.668-58.524-68.533-87.763a7835 7835 0 0 1-17.069-21.9 4764 4764 0 0 1-7.212-9.313 881 881 0 0 1-7.541-9.897c-9.894-13.2-19.389-26.692-28.84-40.211-19.179-27.43-38.282-54.963-60.052-80.435a438 438 0 0 0-16.406-18.182c-6.026-6.3-12.12-12.663-19.141-17.869-7.51-5.569-16.763-8.019-26.062-7.137s-18.471 3.275-27.49 5.609c-34.964 9.046-69.077 21.563-102.78 34.454-17.592 6.729-35.213 13.382-52.812 20.091-17.593 6.707-35.333 13.123-52.785 20.188-8.485 3.435-16.971 6.853-25.51 10.153-3.9 1.507-6.599 5.206-5.411 9.529 1.056 3.844 5.556 6.781 9.529 5.411Z"/><path d="M55.178 847.168c56.5 18.136 112.78 35.654 171.832 41.487 36.408 3.596 73.015 4.807 109.599 5.097 160.459 1.27 328.314-21.213 466.015-103.598-16.291 9.39-34.14 22.997-52.412 27.438s-38.807 3.199-54.166-7.65c-7.675-5.422-1.827-14.973-7.373-22.56-15.485-21.185-40.39-42.039-50.763-66.144-11.8 42.064-40.038 79.023-76.743 102.716s-81.469 34.196-125.024 30.792c-2.562-.2-5.229-.482-7.4-1.858-4.844-3.069-5.144-9.821-6.037-15.486-4.689-29.744-38.912-52.418-33.202-81.983-27.214 38.817-63.342 71.344-104.793 94.347-11.96 6.637-24.528 12.55-37.97 15.085-12.526 2.362-25.4 1.72-38.13 1.069l-51.925-2.657"/><path d="M52.934 855.308c49.627 19.54 101.82 34.779 154.72 42.296 53.623 7.62 108.253 8.667 162.336 7.933 48.688-.66 97.433-3.615 145.711-10.081 48.501-6.495 96.583-16.096 143.423-30.367 46.669-14.219 90.712-32.745 133.626-56.349 5.233-2.878 10.294-6.044 15.343-9.233 4.942-3.122 6.912-9.649 3.887-14.822-2.833-4.843-9.92-7.128-14.822-3.887-6.43 4.252-13.204 8.115-19.804 12.105-6.229 3.766-13.308 7.869-19.553 10.521-2.503 1.062-6.243 2.372-9.334 3.207a80 80 0 0 1-5.3 1.226q-1.184.235-2.375.436c-.437.074-2.688.39-1.271.212-3.601.453-7.251.611-10.878.544-1.609-.029-3.208-.148-4.812-.263-1.129-.08-2.077-.227-4.208-.664-3.291-.675-6.563-1.592-9.681-2.85-1.982-.799 2.091 1.151-1.19-.556-.703-.366-1.414-.706-2.112-1.084s-1.386-.774-2.064-1.183c-.315-.19-3.025-1.55-1.639-.925-1.698-.765.44-.523-.173-.01.64-.536-.435 3.024.043.12.247-1.5-.22-.624-.104.208-.087-.621-.106-1.263-.144-1.889-.224-3.749-.247-7.594-1.266-11.239-2.053-7.346-7.935-13.39-12.734-19.099-4.703-5.596-9.612-11.013-14.319-16.607-3.046-3.619-4.677-5.6-7.922-9.504-2.894-3.482-4.29-5.221-6.458-8.198-4.569-6.271-8.646-12.904-11.786-20.01-1.863-4.215-7.578-6.176-11.726-5.619-4.596.618-8.504 3.897-9.784 8.43a175 175 0 0 1-5.731 17.009q-.427 1.076-.868 2.146c-.746 1.808.615-1.393-.174.396a211 211 0 0 1-1.662 3.697 176 176 0 0 1-4.117 8.298 181 181 0 0 1-9.175 15.427 185 185 0 0 1-4.977 7.127c-.457.623-.922 1.241-1.384 1.861-.146.196-1.339 1.732-.3.403a185.6 185.6 0 0 1-28.336 28.989c-1.196.981-2.4 1.954-3.624 2.9 1.24-.959-1.448 1.068-1.819 1.341a184 184 0 0 1-7.613 5.307 187 187 0 0 1-16.996 9.971c-11.578 6-22.321 10.163-35.413 13.792a206 206 0 0 1-23.86 5.114c-.847.13-1.695.258-2.544.374 1.469-.2-.637.075-.763.09-3.407.395-6.817.745-10.239.989-6.629.474-13.273.608-19.916.414a201 201 0 0 1-9.627-.506c-.792-.061-1.597-.101-2.384-.2.596.075 1.894.498-.191-.117l-.524-.158q-.99-.292-.117-.043.723.131 1.239.697l-.646-.707.71.785-.457-.859c.207-.089.78 2.706.095-.065-.293-1.185-.597-2.353-.83-3.554-.515-2.664-.931-5.342-1.54-7.987-1.295-5.626-3.565-11.057-6.1-16.226-5.286-10.777-12.613-20.36-18.655-30.697-1.415-2.421-2.761-4.885-3.97-7.415-.278-.582-.519-1.188-.815-1.76-.79-1.527.849 2.45-.137-.36-.418-1.19-.868-2.365-1.238-3.572a45 45 0 0 1-1.047-4.073c-.126-.607-.202-1.227-.337-1.83-.356-1.589.11 2.71.029-.171-.035-1.253-.122-2.498-.078-3.753.022-.638.09-1.266.128-1.902-.122 2.065-.043.317.167-.766 1.112-5.75-1.144-11.368-6.738-13.728-5.663-2.39-11.08.002-14.532 4.761-8.386 11.563-19.126 24.719-30.978 36.792a323 323 0 0 1-17.693 16.687 344 344 0 0 1-9.033 7.666 381 381 0 0 1-4.867 3.898c-1.033.816-1.701 1.321-3.553 2.705-13.445 10.046-27.712 19.188-42.684 26.794-15.122 7.683-30.28 11.877-47.858 11.731-22.047-.182-44.099-2.609-66.104-3.735-5.849-.299-11.44 5.356-11.179 11.179.283 6.313 4.913 10.859 11.179 11.179 20.114 1.029 40.297 1.863 60.428 2.566 10.474.366 20.801.43 31.189-1.19 9.543-1.489 18.661-4.658 27.474-8.548 15.827-6.987 30.824-16.333 44.91-26.328 14.388-10.21 28.03-21.473 40.578-33.88 14.156-13.995 27.057-29.333 38.288-45.77l-21.27-8.967c-2.152 13.095.507 25.039 6.451 36.795 5.149 10.183 12.176 19.265 18.091 28.992a118 118 0 0 1 4.028 7.119c.619 1.196 1.19 2.413 1.77 3.628.172.361.833 1.978.064.085q.47 1.155.891 2.327a56 56 0 0 1 1.216 3.776c.179.635.327 1.278.5 1.915.088.323.609 2.348.275.943s.086.666.126 1.019c.078.691.15 1.382.231 2.072.261 2.219.502 4.462.932 6.657 1.655 8.467 7.294 15.455 15.815 17.682 6.991 1.826 15.052 1.552 22.236 1.567 57.495.122 114.48-22.157 153.911-64.526 20.611-22.146 36.104-48.896 44.44-78.011l-21.51 2.811c6.227 14.233 16.628 26.901 27.196 38.144 5.313 5.653 10.627 11.286 15.705 17.153a267 267 0 0 1 6.789 8.151c1.397 1.749.688.884.388.491.568.745 1.15 1.486 1.66 2.272.326.503 1.05 2.498.48.68.165.527.651 3.387.365.999.933 7.81.424 15.703 6.74 21.596 6.109 5.7 14.724 9.369 22.688 11.546 15.433 4.217 32.94 3.564 48.151-1.298 9.121-2.915 17.725-7.508 25.91-12.417 8.107-4.863 15.83-10.721 24.27-14.987l-10.936-18.709c-20.761 11.686-41.653 23.217-63.467 32.843-20.315 8.965-42.827 17.133-64.814 24.259-45.494 14.745-92.367 25.034-139.665 31.956-6.672.976-10.054 1.439-16.077 2.205s-11.99 1.493-17.993 2.169a1147 1147 0 0 1-35.451 3.423c-24.061 1.952-48.178 3.178-72.309 3.793-52.141 1.329-104.702.689-156.68-3.848-26.01-2.27-51.609-6.831-77.321-12.918s-50.947-14.003-76.495-20.749c-6.468-1.708-12.972-3.28-19.463-4.907-4.42-1.108-9.158 1.43-10.385 5.896-1.317 4.792 1.637 8.708 5.896 10.385ZM303.285 316.46c-3.837 3.288-3.943 9.504-1.361 13.546 2.714 4.25 7.931 5.782 12.734 5.365a84 84 0 0 0 10.427-1.558c3.517-.762 6.746-2.083 9.86-3.888 3.386-1.963 4.703-6.245 3.208-9.789-.636-1.506-1.721-2.963-3.208-3.749-1.955-1.033-3.866-1.19-6.041-.79-1.365.251-2.764.385-4.109.728-1.277.326-2.549.669-3.825.999a69 69 0 0 1-7.948 1.556l2.224-.299c-1.199.157-2.386.279-3.594.153l2.208.297a7.3 7.3 0 0 1-1.338-.335l1.979.835a5.7 5.7 0 0 1-.857-.457l1.673 1.293a6.5 6.5 0 0 1-1.004-.971l1.274 1.65a5 5 0 0 1-.425-.718l.811 1.921a4.5 4.5 0 0 1-.231-.777l.284 2.11a3.4 3.4 0 0 1 0-.779l-.28 2.083a2 2 0 0 1 .145-.494l-.783 1.856a2 2 0 0 1 .273-.455c1.042-1.504 1.331-4.219.776-5.933-.525-1.623-1.403-2.952-2.759-4-3.171-2.45-7.16-1.927-10.111.602Z"/><path d="M471.408 781.547c4.853 0 9.502-4.267 9.277-9.277s-4.076-9.277-9.277-9.277c-4.853 0-9.502 4.267-9.277 9.277s4.076 9.277 9.277 9.277m7.707-391.594 1.276-.179 2.116-.893a6.7 6.7 0 0 0 2.486-2.282 4.4 4.4 0 0 0 1.139-1.955 6.67 6.67 0 0 0 .763-3.414l-.316-2.355-.893-2.116a6.7 6.7 0 0 0-2.282-2.486 6.7 6.7 0 0 0-3.013-1.586l-1.276-.179a9.1 9.1 0 0 0-4.809 0 9.04 9.04 0 0 0-3.991 2.326l-1.414 1.831a9 9 0 0 0-1.235 4.565 6.8 6.8 0 0 0 .779 3.485 6.8 6.8 0 0 0 1.87 2.911 9.04 9.04 0 0 0 3.991 2.326 9.1 9.1 0 0 0 4.809 0Zm239.481 334.514c4.816-2.451 9.577-5.132 14.503-7.353l-2.205.931q.421-.182.87-.272l-2.454.33q.445-.089.892-.016l-2.453-.33q.332.058.632.211l-2.204-.93q.3.153.554.373l-1.867-1.442q.26.225.475.493l-1.442-1.866c.376.504.65 1.028.895 1.606l-.929-2.202c.227.621.385 1.236.487 1.888l-.329-2.449c.1.919.076 1.803-.046 2.719l.329-2.447c-.228 1.362-.646 2.652-1.175 3.925l.927-2.196c-.938 2.147-2.143 4.137-3.362 6.133-1.435 2.349-2.598 4.894-3.503 7.491-.843 2.421-1.377 5.235-1.182 7.789.317 4.155 1.653 7.525 4.369 10.686 2.222 2.586 5.714 4.258 8.937 5.165a27.4 27.4 0 0 0 8.145 1.009c5.643-.175 11.053-1.899 15.977-4.608s9.119-6.546 12.561-10.986c1.365-1.761 2.35-3.344 2.35-5.674 0-1.968-.874-4.319-2.35-5.674-3.269-3.001-8.098-3.094-11.349 0a51 51 0 0 1-3.663 3.167l1.698-1.312c-3.173 2.443-6.607 4.725-10.288 6.322l2.107-.889c-2.169.908-4.408 1.566-6.739 1.894l2.369-.318c-1.79.22-3.567.234-5.358.014l2.388.321c-1.57-.225-3.094-.611-4.562-1.217l2.16.912a12 12 0 0 1-2.079-1.186l1.837 1.419a8.8 8.8 0 0 1-1.389-1.364l1.423 1.842a8.5 8.5 0 0 1-.884-1.495l.92 2.179a9.3 9.3 0 0 1-.547-1.954l.327 2.43a11.4 11.4 0 0 1 .004-2.791l-.327 2.432c.218-1.494.655-2.918 1.22-4.316l-.923 2.188c1.426-3.363 3.682-6.258 5.238-9.553 2.402-5.085 4.118-11.067 1.981-16.581-1.574-4.062-4.191-7.589-8.581-8.869-2.221-.648-4.825-.573-6.996.194-1.584.56-3.092 1.347-4.591 2.099l-12.163 6.107c-2.002 1.005-3.684 3.438-4.263 5.544-.612 2.221-.335 5.178.935 7.149 2.852 4.424 8.058 5.688 12.693 3.328M322.968 258.47q2.858-.395 5.716-.784l-2.23.3c4.16-.325 8.345-1.577 12.422-2.454 3.565-.766 7.118-1.547 10.662-2.407a2270 2270 0 0 1 21.257-5.051c14.185-3.3 28.347-6.701 42.555-9.904 28.422-6.407 56.979-12.158 85.576-17.72a2280 2280 0 0 1 23.761-4.491c7.985-1.466 15.988-3.135 24.031-4.245l-3.082.414c1.369-.168 2.722-.242 4.096-.099l-3.086-.415c.884.13 1.714.344 2.54.689l-2.774-1.171c.697.33 1.33.721 1.942 1.19l-2.352-1.817c.798.66 1.489 1.398 2.131 2.209l-1.819-2.354c1.811 2.402 3.106 5.156 4.469 7.824a434 434 0 0 1 4.658 9.399 437 437 0 0 1 8.625 19.127l-1.184-2.806c5.364 12.73 10.117 25.725 14.382 38.864.938 2.89 2.729 5.455 5.393 7.014 2.516 1.472 6.223 2.096 9.043 1.183 2.84-.919 5.579-2.679 7.014-5.393 1.451-2.746 2.124-5.995 1.183-9.043-6.411-20.76-14.657-40.986-24.165-60.516-2.246-4.613-4.525-9.229-6.996-13.727-3.205-5.833-8.085-11.252-14.812-12.858s-13.63.285-20.288 1.501q-7.926 1.447-15.841 2.95c-21.365 4.056-42.649 8.452-63.85 13.294a2296 2296 0 0 0-63.37 15.424 1236 1236 0 0 0-31.589 8.635 2318 2318 0 0 0-15.477 4.5c-5.236 1.543-10.398 3.395-15.572 5.136-3.01 1.013-5.912 2.432-8.829 3.698-1.56.677-3.131 2.942-3.496 4.546-.387 1.701-.298 3.338.383 4.953.617 1.461 1.67 2.876 3.113 3.638 1.938 1.024 3.714 1.064 5.862.767Z"/><path d="M246.483 127.677c12.354 3.603 25.05 6.007 37.612 8.777 12.507 2.757 25.028 5.439 37.546 8.142a10353 10353 0 0 1 75.081 16.486 6812 6812 0 0 1 31.687 7.169c3.001.687 6.094 1.235 8.946 2.43l-2.818-1.189c.93.416 1.8.901 2.62 1.507l-2.391-1.847c.6.478 1.131.996 1.621 1.587l-1.849-2.393c.533.698.959 1.427 1.323 2.227l-1.194-2.83c.538 1.291.858 2.624 1.062 4.005l-.425-3.159c.418 3.228.262 6.509.238 9.754l-.087 11.6c-.058 7.65.029 15.303.059 22.953.012 3.1 1.337 6.332 3.532 8.528 2.092 2.092 5.524 3.667 8.528 3.532 6.538-.293 12.056-5.299 12.061-12.061.005-8.062.057-16.126-.031-24.187l-.134-12.341c-.045-4.163-.131-8.368-1.115-12.441-1.365-5.649-4.796-10.336-9.58-13.548-3.475-2.333-7.664-3.372-11.698-4.249a6606 6606 0 0 0-23.287-5.019 5294 5294 0 0 0-94.831-19.384 1939 1939 0 0 0-26.846-5.049c-9.666-1.741-19.343-3.751-29.079-5.046l2.655.357c-5.586-.859-11.153-1.697-16.777-2.262-2.102-.211-5.063 1.153-6.462 2.677-1.386 1.509-2.239 3.207-2.513 5.247a9.15 9.15 0 0 0 6.546 10.026Z"/></svg>