<?xml version="1.0" encoding="UTF-8"?><svg xmlns="http://www.w3.org/2000/svg" viewBox="0 0 180 180"><path d="M66.8 111.9c-4.98.08-9.96-.01-14.94-.24-4.47-.21-8.96-.39-13.42-.85-6.72-.7-13.95-2.04-19.43-6.27-5.21-4.01-7.48-10.44-6.46-16.88 1.1-6.94 5.2-12.7 11.05-16.46 7.58-4.88 16.85-6.41 25.65-4.58 2.31.48 3.88-2.14 2.28-3.92-4.01-4.44-5.67-10.67-4.01-16.47 1.61-5.62 6.14-9.9 11.45-12.1 5.25-2.18 11.12-2.62 16.74-2.14 5.92.5 11.49 2.43 16.39 5.81 5.6 3.86 9.86 9.38 12.62 15.56.81 1.81 3.92 1.34 4.28-.56 1.13-5.88 7.81-8.3 13.18-8.12 7.04.24 13.57 4.05 16.6 10.47 1.47 3.1 2.49 7 1.88 10.44-.29 1.63.66 2.83 2.28 3 5.58.59 11.55 1.26 16.42 4.27s7.82 8.76 8.15 14.52-1.74 11.77-5.78 16.18c-4.24 4.62-9.88 7.31-16.04 8.26-4.06.63-8.24.54-12.33.42-1.48-.05-2.95-.12-4.43-.13-.91-.01-1.69.07-2.41.72-1.03.93-.81 2.47 0 3.43.17.2 1.98 1.11.54.39l.58-4.43c.99-.29.5-.09-.06-.1l-3.04-.09c-1.24-.04-2.3 1.08-2.3 2.3 0 1.34 1.06 2.18 2.3 2.3 1.35.13 3.01.58 4.38.27 2.06-.46 2.32-3.41.58-4.43-1.45-.84.41.32.44.36v3.43c-.36.2-.71.41-1.07.62-.33.09-.87.04-.33.07.41.03.82.01 1.23.02 1.82.05 3.63.13 5.45.17 4.09.09 8.18-.03 12.22-.71 6.79-1.15 13.21-4.44 17.85-9.57s7.35-11.89 7.11-18.88-3.24-13.82-8.88-18.1c-5.85-4.44-13.5-5.3-20.58-6.02l2.28 3c1.38-8.06-2.42-17.15-8.92-22.02-6.77-5.06-16.44-6.42-24.12-2.68-3.78 1.84-6.9 5.19-7.71 9.4 1.43-.19 2.86-.37 4.28-.56a41.8 41.8 0 0 0-12.7-16.07c-5.51-4.22-11.95-6.67-18.83-7.47C64.1 25.94 48.5 30 43.44 43.59c-2.88 7.74-.68 16.41 4.76 22.43l2.28-3.92c-8.89-1.85-18.15-.83-26.26 3.34-7.32 3.75-13.05 9.86-15.44 17.81-2.23 7.45-1.12 15.6 3.93 21.65 5.1 6.1 13.14 8.66 20.75 9.74 10.98 1.55 22.29.92 33.32.24 1.89-.12 1.93-3 0-2.97Z"/><path d="M69.43 100.25c-1.2 4.12-2.6 8.18-3.86 12.28s-2.59 8.58-3.88 12.87-2.48 8.42-3.68 12.64c-1.06 3.77-3.24 8.66.63 11.53 1.35 1 3.03 1.47 4.68 1.73 2.18.34 4.38.59 6.58.81 4.58.44 9.17.64 13.76.65 9.28.02 18.55-.57 27.8-1.23 2.3-.16 4.6-.33 6.91-.49 2.01-.14 4.05-.31 5.87-1.24 4-2.03 4.08-6.62 3.08-10.43-.54-2.07-1.23-4.09-1.65-6.2-.45-2.21-.71-4.44-.92-6.69-.43-4.47-.26-8.98-.28-13.46-.01-3.81.04-7.58-1.18-11.23-1.11-3.3-2.95-6.47-6.51-7.46-2.86-.79-6.17-.6-9.13-.78s-5.75-.35-8.63-.48c-5.98-.27-12.04-.46-18 .23-4.12.48-9.85 1.25-12.29 5.12-.26.41-.45.87-.61 1.33-.06.16-.11.32-.14.49-.05.21-.2 1.31-.09.59-.18 1.17.3 2.36 1.53 2.7 1.04.29 2.52-.35 2.7-1.53.03-.17.09-.33.13-.5.09-.41-.05.08 0 0 .09-.14.18-.29.25-.44.17-.31-.3.3.04-.06.23-.25.46-.48.7-.72.28-.26-.33.18.12-.09.17-.1.34-.22.51-.32.18-.11.37-.2.56-.3.11-.06.7-.32.23-.12.44-.19.9-.34 1.36-.49 1-.31 2.02-.54 3.04-.73 4.75-.86 10.28-.84 15.38-.71 5.38.13 10.75.51 16.12.81 2.34.13 5.39-.22 6.84 1.72 1.58 2.11 2.31 5.17 2.42 7.75.37 8.42-.27 16.89 1.18 25.24.35 2 .84 3.96 1.43 5.91.46 1.51 1.02 3.13.92 4.74-.23 3.39-5.38 2.83-7.74 3-8.52.61-17.04 1.28-25.58 1.53-8.43.25-17.02.25-25.4-.89-1.16-.16-2.77-.34-3.68-1.17-1.09-1-.03-3.15.29-4.32 1.04-3.81 2.13-7.61 3.23-11.41 1.16-4.01 2.31-8.03 3.47-12.04s2.31-7.74 3.18-11.66c.42-1.88.84-3.75 1.31-5.61s-2.45-2.76-3.01-.83Z"/><path d="M61.2 149.03c4.06-3.14 8.73-5.42 13.15-7.99 4.57-2.65 8.77-5.85 12.92-9.1s8.5-6.57 12.2-10.34c1.74-1.78 3.71-3.96 3.87-6.57s-1.39-5.11-2.47-7.26a49.7 49.7 0 0 0-4.29-7.05c-.87-1.19-1.78-2.36-2.75-3.48s-1.89-2.03-2.48-3.34c-.45-1.01-1.91-1.24-2.79-.73-1.04.61-1.18 1.78-.73 2.79.96 2.17 2.9 3.83 4.35 5.68s2.75 3.85 3.91 5.9 2.23 4.04 2.92 6.18-1.49 4.04-2.91 5.42c-3.6 3.5-7.61 6.66-11.55 9.76-3.93 3.09-7.93 6.12-12.21 8.72-4.65 2.83-9.41 5.44-13.58 8.98-.71.6-.61 1.81 0 2.43.72.73 1.7.56 2.43 0Z"/><path d="M93.17 126.66c2.63 1.62 5.14 3.47 7.72 5.16 2.59 1.69 5.18 3.38 7.79 5.04 5.21 3.31 10.46 6.57 15.99 9.33 2.26 1.13 4.26-2.27 1.99-3.4-5.53-2.76-10.86-5.89-16.1-9.16-2.56-1.6-5.1-3.21-7.68-4.78-2.72-1.65-5.53-3.09-8.3-4.64-1.59-.89-2.98 1.49-1.43 2.44Zm6.66-18.04c2.99-1.52 5.94-3.11 8.85-4.79 1.4-.81 2.8-1.64 4.2-2.46 1.48-.87 3.2-1.69 4.47-2.85.62-.57.64-1.6.13-2.24-.57-.71-1.4-.79-2.2-.44-1.44.64-2.76 1.79-4.08 2.65-1.41.92-2.84 1.79-4.28 2.64a187 187 0 0 1-8.66 4.78c-1.8.93-.21 3.62 1.59 2.71Z"/><path d="M70.46 101.26c-.98 3.79-1.97 7.59-2.95 11.38-3.2.05-6.44.1-9.56-.62-2.2-.51-4.45-1.52-5.58-3.47-1.69-2.93-.06-6.88 2.69-8.86 2.74-1.98 6.25-2.5 9.61-2.93 20.24-2.59 40.82-4.24 61.01-1.26 3.02.45 6.12 1.03 8.68 2.71s4.44 4.71 3.9 7.72c-.45 2.51-2.51 4.51-4.85 5.52s-4.95 1.19-7.5 1.24c-.59.01-1.27-.02-1.65-.47-.29-.34-.33-.82-.36-1.27a39 39 0 0 0-2.01-9.84c-.37-1.07-.79-2.14-1.53-2.99-1.66-1.91-16.39-6.6-50.74-.79"/><path d="M69.02 100.86c-1.19 3.74-2.25 7.5-3.27 11.29l1.76-1.34c-3.61.02-7.9.19-11.22-1.47-1.23-.62-2.31-1.56-2.49-3-.16-1.29.4-2.63 1.16-3.64 1.96-2.61 5.63-3.24 8.65-3.68 4.07-.59 8.17-1.03 12.26-1.45 16.51-1.72 33.39-2.48 49.86.08 3.25.51 7.03 1.2 9.21 3.93 1.91 2.4 1.51 5.36-1.01 7.13-1.42 1-3.17 1.45-4.87 1.65-.9.1-1.81.14-2.71.16-.12 0-.53-.06-.63 0h-.18l.51.51c.15-.12-.1-1.25-.12-1.47-.39-3.8-1.11-7.93-2.86-11.36-1.1-2.15-2.88-3.02-5.06-3.75-2.79-.93-5.75-1.35-8.65-1.68-11.33-1.27-22.94-.12-34.17 1.5-2.06.3-4.08.68-6.1 1.15s-1.7 4.08.52 3.84c7.82-.84 15.55-2.09 23.42-2.43 5.26-.22 10.56-.19 15.79.37.49.05.98.11 1.48.17-.39-.05.05 0 .2.03.25.04.51.07.76.11.8.13 1.6.27 2.4.44 1.21.26 2.42.56 3.59.97.22.08.43.17.65.24.4.14-.51-.26.1.05.28.14.54.33.82.46.32.15-.21-.37-.14-.11.07.32.52.75.68 1.07.87 1.81 1.34 3.94 1.75 5.9.21 1 .39 2.02.5 3.04.11.97.08 2.01.4 2.93.8 2.32 3.2 2.37 5.26 2.27 3.96-.19 8.17-1.05 10.92-4.16 2.63-2.97 2.98-7.06.95-10.47-2.06-3.46-5.78-5.27-9.58-6.13-4.27-.97-8.74-1.36-13.1-1.71-4.55-.37-9.11-.54-13.67-.54-9.15 0-18.3.64-27.4 1.6-4.44.47-8.89.93-13.3 1.62-3.65.57-7.58 1.72-10.05 4.67-2.27 2.72-3.35 6.72-1.45 9.94 2.07 3.51 6.45 4.49 10.21 4.84 2.24.21 4.47.09 6.72.03.79-.02 1.56-.55 1.76-1.34.94-3.81 1.86-7.62 2.63-11.47.38-1.87-2.29-2.64-2.88-.79Zm-2.7-22.95c-.42-1.68.63-3.32 2.05-4.15 1.65-.97 3.69-1.1 5.55-1.01.76.04 1.58-.58 1.75-1.33 1.25-5.55 5.56-9.72 11.07-11.03 5.74-1.37 11.43 1.39 15.03 5.84 2.11 2.61 3.38 5.77 3.85 9.08.21 1.49 2.56 2.07 3.48.92 2.36-2.94 6.2-4.71 9.99-3.95 3.91.78 6.41 3.6 8 7.09.92 2.02 3.95.55 3.47-1.46-1.15-4.81-5.79-8.71-10.55-9.63-5.1-.98-10.59.92-13.85 5 1.16.31 2.32.61 3.48.92-1-7.03-5.76-13.67-12.27-16.6-6.74-3.03-14.43-1.73-19.94 3.17-2.97 2.64-4.95 6.2-5.3 10.18l1.81-1.81c-2.9.16-5.84.54-8.14 2.49-2.01 1.71-3.08 4.5-2.25 7.06.57 1.76 3.25 1.05 2.79-.77Zm-27.33 9.48.12-.41.06-.2.03-.11c.05-.16.05-.33.07-.49l-.05-.4q-.075-.3-.27-.51a.9.9 0 0 0-.27-.27q-.21-.195-.51-.27l-.4-.05-.4.05q-.3.075-.51.27-.24.165-.39.42c-.11.17-.17.36-.24.55l-.07.19-.15.4c-.06.2-.07.41-.03.61 0 .2.07.4.18.57.1.18.23.32.4.43.15.14.32.23.52.28l.41.05q.42 0 .78-.21l.31-.24c.19-.19.32-.42.4-.68Zm4.1-5.09c1.86 0 1.86-2.89 0-2.89s-1.86 2.89 0 2.89m2.67 7.1c2.09 0 2.09-3.25 0-3.25s-2.09 3.25 0 3.25m99.21-4.69-.06-.25-.15-.35c-.09-.17-.22-.31-.38-.41a.8.8 0 0 0-.32-.19c-.18-.09-.36-.13-.57-.13l-.39.05-.35.15c-.17.09-.31.22-.41.38-.13.14-.22.31-.26.5l-.06.25q-.105.405 0 .81c.07.26.2.48.39.68l.31.24c.24.14.5.21.77.21.21 0 .41-.04.59-.13.19-.06.35-.17.49-.32.19-.19.32-.42.39-.68q.105-.405 0-.81Zm8.64-.96c2.01 0 2.01-3.12 0-3.12s-2.01 3.12 0 3.12m-1.33 6.26c1.85 0 1.85-2.88 0-2.88s-1.85 2.88 0 2.88"/></svg>