<?xml version="1.0" encoding="UTF-8"?><svg xmlns="http://www.w3.org/2000/svg" viewBox="0 0 180 180"><path d="M17.73 46.92c-1.3 13.35-2.49 26.71-3.54 40.08-.51 6.49-1 12.98-1.53 19.47-.29 3.5-.58 6.99-.89 10.49-.26 2.97-.75 6.01-.18 8.97 1.39 7.21 9.68 6.99 15.42 7.63 7.14.79 14.28 1.49 21.44 2.08 14.14 1.17 28.32 1.87 42.5 2.18 7.09.15 14.19.21 21.28.15 3.63-.03 7.26-.09 10.89-.17 3.34-.08 6.78.03 10.1-.4 3.11-.4 5.34-2.15 5.81-5.36.53-3.58.87-7.2 1.26-10.79a638 638 0 0 0 3.8-63.75c.05-5.64.49-12.54-4.62-16.28-2.39-1.75-5.41-2.17-8.26-2.6-3.61-.55-7.23-.98-10.87-1.31-14.13-1.27-28.38-1.45-42.56-1.96-7.23-.26-14.46-.52-21.68-.79-7.2-.26-14.43-.65-21.64-.65-3.47 0-6.94.3-10.39.7-1.1.13-2.05.85-2.05 2.05 0 1.08.94 2.09 2.05 2.05 6.91-.25 13.9.29 20.81.54s13.63.46 20.44.68c13.76.44 27.52.8 41.27 1.32 6.88.26 13.76.64 20.6 1.48 2.74.34 5.9.5 8.46 1.62 2.25.99 3.17 3.06 3.57 5.37.48 2.78.25 5.73.22 8.53-.04 3.37-.1 6.74-.19 10.11-.18 6.82-.47 13.64-.87 20.45-.8 13.62-1.94 27.25-3.71 40.77-.11.82-.04 2.24-.73 2.78-.78.6-2.5.4-3.4.43-3.38.08-6.76.17-10.14.22-6.85.11-13.69.12-20.54.05-13.7-.13-27.37-.69-41.04-1.51-6.75-.41-13.49-.9-20.23-1.49-3.45-.3-6.9-.63-10.34-.98-3.06-.31-6.35-.35-9.32-1.17-2.5-.68-3.1-2.62-3.1-5.02 0-3.1.45-6.23.7-9.32.52-6.47 1-12.95 1.45-19.42.88-12.5 1.47-25.02 2.38-37.52.24-3.24.48-6.48.74-9.71.17-2.17-3.15-2.13-3.36 0Z"/><path d="M18.86 49.76c7.76 5.42 15.07 11.4 22.15 17.69 7.11 6.32 14.04 12.84 21.5 18.76 1.9 1.51 3.82 2.98 5.78 4.4 2.02 1.47 4.23 2.74 6.71 1.42 1.03-.55 1.94-1.41 2.87-2.11 1.12-.86 2.25-1.71 3.37-2.57 2.18-1.66 4.36-3.32 6.55-4.98 8.73-6.64 17.45-13.29 26.18-19.93 4.83-3.67 9.65-7.35 14.48-11.02 2.45-1.86 4.89-3.73 7.34-5.59 1.12-.85 2.21-1.64 2.27-3.18s-.98-2.79-2.54-2.73c-2.85.11-2.88 4.51 0 4.45h.18c-.53-.22-1.05-.44-1.58-.66l.11.1-.57-.98c-.35-1.77.73-1.23-.14-.88-.24.1-.61.47-.79.6-.46.35-.93.7-1.39 1.06-1.06.8-2.12 1.61-3.17 2.41-1.98 1.51-3.97 3.02-5.95 4.53-4.03 3.07-8.07 6.14-12.1 9.21-8.07 6.14-16.14 12.27-24.2 18.41-4.03 3.07-8.06 6.15-12.1 9.21-.83.63-.84.91-1.69.41-.97-.57-1.86-1.31-2.76-1.97-1.69-1.26-3.36-2.55-5-3.88-6.84-5.53-13.31-11.49-19.91-17.3-7.45-6.56-15.08-13.09-23.77-17.95-2.04-1.14-3.67 1.79-1.81 3.09Z"/><path d="M14.72 121.43c14.46-12.94 28.83-26 43.17-39.08 1.79-1.63-.88-4.29-2.65-2.65-14.23 13.18-28.44 26.39-42.54 39.71-1.35 1.27.66 3.24 2.02 2.02M86.48 80.2c12.83 12.12 25.96 23.93 38.77 36.07 3.33 3.15 6.58 6.43 9.38 10.06.63.82 1.63 1.23 2.6.68.8-.46 1.31-1.79.68-2.6-5.14-6.66-11.45-12.21-17.62-17.88-6.66-6.12-13.34-12.22-20.02-18.32-3.8-3.47-7.65-6.89-11.48-10.33-1.56-1.4-3.85.86-2.31 2.31Z"/><path d="M15.41 129.34c-2.75.83-5.89 2.96-5.26 5.76.5 2.24 3.09 3.22 5.33 3.76 15.18 3.69 30.91 4.5 46.54 4.71 24.76.32 49.54-.84 74.17-3.49 7.47-.8 14.97-1.75 22.17-3.92 3.85-1.16 7.76-2.79 10.3-5.91.66-.81 1.22-1.75 1.29-2.79.15-2.25-1.95-3.94-3.89-5.09a61.5 61.5 0 0 0-25.71-8.34c-.43 5.01-.87 10.02-1.3 15.03-.19 2.24-.43 4.6-1.76 6.42-2.26 3.09-6.67 3.41-10.5 3.42-28.57.07-57.15-1.31-85.58-4.13-9.48-.94-19.03-2.06-28.06-5.11"/><path d="M14.93 127.6c-2.68.78-5.56 2.38-6.56 5.16-1.06 2.94.91 5.75 3.51 6.99 2.97 1.42 6.43 1.93 9.64 2.56 3.82.76 7.66 1.35 11.53 1.81 15.17 1.82 30.54 1.89 45.8 1.68 15.6-.21 31.19-1.01 46.73-2.4 7.71-.69 15.46-1.39 23.1-2.69 6.53-1.11 14.04-2.49 19.36-6.72 2.8-2.23 5.26-5.71 3.54-9.34-1.54-3.26-5.58-5.07-8.62-6.59-7.1-3.53-14.74-5.65-22.62-6.41-1.35-.13-2.26 1.19-2.36 2.36-.43 4.85-.83 9.7-1.24 14.55-.15 1.79-.21 3.86-1.25 5.4-.84 1.25-2.24 1.85-3.65 2.19-1.65.41-3.36.45-5.06.47-2.48.03-4.96 0-7.43-.02-4.95-.03-9.91-.11-14.86-.23-19.81-.49-39.61-1.66-59.34-3.52-10.58-1-21.26-2.02-31.4-5.41-2.79-.93-3.99 3.47-1.21 4.4 9.41 3.15 19.33 4.28 29.16 5.24 10.27 1.01 20.56 1.84 30.87 2.47s20.78 1.08 31.18 1.33c5.2.13 10.4.2 15.61.23 4.39.03 9.03.42 13.37-.46 2.13-.43 4.29-1.39 5.78-3.01 1.74-1.91 2.39-4.3 2.7-6.8.7-5.58 1.04-11.23 1.51-16.83l-2.36 2.36c6.14.57 12.23 2.13 17.9 4.56 2.66 1.14 5.56 2.42 7.88 4.18.68.51 1.69 1.35 1.56 2.32-.15 1.08-1.47 2.19-2.26 2.83-2.01 1.64-4.49 2.65-6.94 3.43-3.14 1-6.36 1.74-9.6 2.34-6.8 1.25-13.71 1.89-20.59 2.54a621 621 0 0 1-42.26 2.57c-13.95.37-27.97.44-41.91-.42-7.68-.47-15.35-1.31-22.91-2.75-1.84-.35-3.7-.72-5.52-1.18-1.08-.27-2.48-.61-3.25-1.49-1.69-1.92 2.09-3.77 3.44-4.24 2.18-.74 1.29-4.14-.96-3.48Zm26.8-63.33a728 728 0 0 0 32.06 35.7c.27.28.56.57.95.62.49.07.93-.28 1.3-.61 2.39-2.09 4.78-4.19 7.16-6.28 17.32-15.19 34.71-30.45 49.78-47.87-6.7 6.97-14.86 12.33-22.47 18.29-11.86 9.3-22.74 20.31-36.53 26.38-.49.22-1 .43-1.54.39-.59-.04-1.12-.39-1.61-.73-1.82-1.24-3.63-2.49-5.45-3.73"/><path d="M40.78 65.22C46.25 72.13 52 78.79 57.89 85.35c2.88 3.22 5.8 6.41 8.74 9.57 1.53 1.64 3.06 3.27 4.59 4.91 1.33 1.43 2.73 3.37 4.93 2.31.86-.41 1.57-1.15 2.29-1.77l2.7-2.34c1.61-1.4 3.2-2.81 4.81-4.22 3.22-2.83 6.44-5.66 9.64-8.5 6.34-5.64 12.63-11.35 18.74-17.24 6.95-6.69 13.66-13.63 19.98-20.92 1.55-1.79-.95-4.37-2.63-2.63-7.62 7.87-17.1 13.71-25.57 20.6-8.03 6.53-15.7 13.6-24.52 19.08a70 70 0 0 1-7.83 4.23c-.4.18-.87.51-1.29.4-.61-.17-1.26-.83-1.78-1.18l-4.29-2.91c-2.12-1.43-4.07 1.98-2 3.41 1.23.85 2.46 1.7 3.68 2.55s2.38 1.87 3.83 2.14 2.63-.38 3.86-.94c1.29-.59 2.55-1.22 3.8-1.89 4.89-2.64 9.43-5.86 13.81-9.26 4.34-3.37 8.51-6.96 12.74-10.48s8.75-6.99 13.23-10.36c5.26-3.96 10.36-8.01 14.95-12.74l-2.63-2.63c-10.72 12.35-22.58 23.64-34.74 34.55-6.11 5.48-12.31 10.86-18.47 16.29-.72.63-1.43 1.26-2.14 1.89-.4.36-.9.7-1.25 1.11-.1.12-.59.33-.18.32.38 0-.19-.34-.34-.49-1.48-1.45-2.9-2.98-4.33-4.49a757 757 0 0 1-8.67-9.3c-6.37-6.95-12.6-14.04-18.87-21.08-1.17-1.32-2.95.58-1.9 1.9Zm-1.19 40.94c-1.48-.54-2.49 1.04-2.24 2.36s1.48 2.54 2.66 3.15c2.77 1.46 6.13.25 7.64-2.4.99-1.73-1.3-3.48-2.74-2.11-1.57 1.5-.93 3.94.65 5.16 2.04 1.57 4.55.51 6.47-.71l-2.73-1.11c1.03 3 5.15 2.25 7.64 2.31 3.33.07 6.76.34 10.07-.17 1.54-.24 1.49-2.77 0-3.06-2.56-.49-5.24-.45-7.84-.49l-3.96-.06-1.98-.03c-.26 0-.53 0-.79-.02-.34-.16-.19.01.45.54-.38-1.08-1.66-1.8-2.73-1.11-.67.43-1.41 1-2.23 1.03-.13 0-.18-.11-.29-.13-.15-.02-.02.04.02-.02l-3.01-1.76c-.44.81-1.17 1.42-2.13 1.43-.4 0-.79-.11-1.14-.29-.24-.12-.41-.34-.63-.47-.08-.07-.15-.15-.2-.23-.23-.38-.44-.13-.62.74 1.2-.52.65-2.17-.33-2.53Zm-1.85 14.3c9.11.92 18.23 1.52 27.38 1.75 2.1.05 2.1-3.23 0-3.27-9.13-.15-18.27-.51-27.38-1.11-1.7-.11-1.65 2.46 0 2.62Z"/></svg>