<?xml version="1.0" encoding="UTF-8"?><svg xmlns="http://www.w3.org/2000/svg" viewBox="0 0 180 180"><path d="M132.15 42.28c-4.95-13.95-16.42-24.97-30.24-30.11-11.5-4.28-26.05-4.11-35.42 4.73-2.41 2.27-4.44 5.11-5.74 8.17-.31.72-.55 1.46-.78 2.21-.17.58-.38 1.29-.58 1.45-.83.67-3.44.24-4.66.22-4.35-.06-9.03.98-12.97 2.79-3.39 1.56-6.32 4.13-8.37 7.24-.99 1.5-1.91 3.3-2.24 5.08-.32 1.74-.04 3.58-.45 5.29-.28 1.19-1.48 1.38-2.6 1.59-1.54.28-3.15.36-4.69.79-7.1 1.99-13.07 8.04-15 15.15-1.33 4.89-.67 9.94 2.74 13.82 3.11 3.54 7.86 5.45 12.3 6.64 11.45 3.07 23.96 2.59 35.66 1.96 9.53-.51 19.02-1.46 28.53-2.2 9.37-.73 18.75-1.17 28.1-2.1 9.26-.91 18.5-2.17 27.61-4.07 7.52-1.57 15.5-3.3 21.59-8.28 6.36-5.2 7.94-13.5 7.2-21.32-.74-7.86-3.03-15.66-7.03-22.5-3.7-6.34-9-11.57-15.08-15.64-5.78-3.87-12.81-6.4-19.78-4.67-3.97.99-7.2 3.22-9.82 6.3-.6.7-.73 1.65-.14 2.41.51.66 1.63 1.02 2.37.47 2.88-2.14 6.18-4.11 9.74-4.79 2.93-.56 5.96-.03 8.73.97 5.67 2.03 10.9 6.25 14.93 10.65 4.87 5.31 8.06 11.98 9.85 18.91 1.69 6.56 2.93 14.74-.37 21-3.18 6.04-10.01 8.55-16.23 10.18-8.24 2.16-16.71 3.58-25.16 4.64-8.78 1.11-17.62 1.81-26.45 2.36s-17.85 1.37-26.77 2.09c-12.94 1.05-26.62 2.12-39.35.4-2.03-.27-4.56-.74-6.74-1.32-1.09-.29-2.16-.61-3.22-1-1.14-.41-1.57-.59-2.72-1.18-.9-.46-1.77-.99-2.59-1.59-.02-.01-.3-.23-.11-.08.21.17-.14-.11-.18-.15-.16-.14-.33-.28-.48-.42-.39-.35-.75-.73-1.1-1.13-.1-.11-.39-.49-.15-.17-.15-.19-.28-.39-.41-.59-.26-.41-.49-.83-.71-1.26-.24-.47 0 .07-.12-.3-.07-.2-.14-.4-.2-.6-.15-.49-.26-.98-.33-1.48.06.45-.01-.26-.02-.39-.01-.23-.02-.47-.02-.7 0-.28 0-.57.02-.85 0-.12.08-.92.04-.64.17-1.33.53-2.67 1.02-3.91 1.15-2.9 3.27-5.53 5.77-7.39 2.56-1.91 5.34-2.84 8.47-3.25 3.32-.43 6.74-1.6 7.51-5.29.36-1.7.14-3.43.41-5.13.25-1.53 1.11-2.99 1.97-4.25 1.81-2.66 4.65-4.64 7.66-5.7 1.95-.69 3.99-1.14 6.03-1.43 2.01-.28 3.95-.16 5.97-.18 1.85-.01 3.89-.26 5.29-1.59 1.12-1.06 1.56-2.5 1.99-3.93 1.63-5.39 6.15-9.74 11.21-11.98s10.84-2.59 16.25-1.89c12.97 1.7 24.84 9.23 32.44 19.79 1.98 2.76 3.66 5.72 4.9 8.89.65 1.66 3.34.99 2.73-.75Z"/><path d="M26.59 68.67c-1.2-.32-2.38.24-2.96 1.34-.63 1.19-.4 2.56.49 3.56.75.84 1.85 1.27 2.89 1.6 1.38.45 2.82.73 4.28.83 4.88.34 9.53-2.16 11.51-6.7 3.18-7.28-2.47-14.19-9.03-16.86-1.81-.74-3.81-1.17-5.77-1.16-2.26 0-4.15.65-6 1.91-2.1 1.43-.3 4.33 1.96 3.35-.11.05.49-.13.63-.16l.92-.21c.27-.06.54-.12.82-.18q.255-.06.51-.09c.17-.03.14-.02-.09.01l.31-.03c.59-.03 1.18-.06 1.78-.03.18 0 .89.07.75.06-.33-.04.35.06.33.06.17.03.35.07.52.1 2.42.53 4.52 1.66 6.21 3.28.45.43.88.89 1.27 1.38-.23-.3.23.33.27.39.19.28.36.57.53.86.14.26.27.53.41.8.04.09.2.48.06.13.05.12.09.24.14.37.17.5.37 1.35.41 1.62-.03-.24.02.16.02.22.01.16.03.33.03.49 0 .26 0 .53-.04.79.03-.25-.08.45-.11.58-.08.34-.18.67-.3 1-.42 1.11-1.34 2.47-2.48 3.23-1.76 1.16-3.84 1.48-5.91 1.29-1.13-.1-2.26-.38-3.34-.74-.27-.09-.65-.37-.91-.42 0 0-.09-.04-.04-.04.35.01-.77.41-.45.41 1.71-.03 2.11-2.55.41-3.01Zm23.38-16.63c3.93 1.62 8 4.16 10.37 7.79 1.66 2.54 2.6 5.53 2.77 8.56.31 5.49-1.44 11.71-6.04 14.8-2.9 1.95-6.19 2.17-9.69 2.16-2.04 0-2.33 2.86-.47 3.47 7.34 2.41 15-2.03 18.23-8.69 3.21-6.61 2.85-14.71-.97-21.01-3.04-5.01-8.13-7.74-13.48-9.65-1.64-.58-2.25 1.93-.71 2.56Zm-5.08-17.38c7.62-3.1 16.02.27 22.42 4.61 6.21 4.21 10.84 9.99 14.49 16.47.79 1.4 3.08.46 2.61-1.1-2.37-8.03-8.19-14.95-15.15-19.49-7.37-4.8-17.29-7.39-25.45-3.05-1.37.73-.41 3.16 1.08 2.56m44.9 51.82c1.87 0 1.87-2.91 0-2.91s-1.87 2.91 0 2.91"/><path d="M92.86 32.35c4.81 3.55 9.12 7.79 12.82 12.47s7.19 10.02 8.5 15.83c1.07 4.74 1.24 10.14-1.51 14.37-2.47 3.79-6.94 5.49-11.2 6.32-2.53.49-5.09.66-7.66.78-1.34.06-2.68.14-4.02.16s-2.62-.03-3.92.3c-1.86.47-1.74 3.12 0 3.65 2.32.7 5.18.54 7.6.51 2.75-.03 5.5-.28 8.22-.73 4.98-.83 10.37-2.7 13.7-6.69 4.07-4.87 4.7-11.18 3.57-17.23-1.21-6.46-4.98-12.01-8.93-17.12-4.47-5.79-9.8-10.78-15.76-15.02-1.47-1.04-2.82 1.35-1.4 2.4Z"/><path d="M141.68 32.17c5.57 7.67 9.79 17.31 7.39 26.91-1.08 4.31-3.42 8.22-7.08 10.81-4.21 2.98-9.31 4.66-14.33 5.62-2.85.55-5.7.62-8.59.8-2.62.16-5.69.57-7.51 2.65-1.66 1.9.43 4.96 2.77 3.6 2.04-1.19 3.93-1.4 6.26-1.49 2.96-.1 5.9-.41 8.81-1 5.42-1.09 11.05-3.06 15.52-6.39 8.53-6.35 10.89-17.55 7.88-27.43-1.81-5.93-5.03-11.02-8.94-15.77-.99-1.21-3.11.4-2.18 1.69"/><path d="M64.12 65.58c1.65 7.67 6.47 13.72 13.82 16.63 3.82 1.51 7.97 2.38 12.01 3 4.35.67 8.65.67 12.98-.16 2.24-.43 4.45-1.07 6.61-1.8 2.28-.78 4.81-1.57 6.69-3.09 1.57-1.27-.2-3.31-1.77-3.04-2.35.4-4.63 1.66-6.92 2.33s-4.64 1.17-7.01 1.43c-5.06.55-9.81-.11-14.75-1.15-4.28-.9-8.78-2.03-12.18-4.95-3.13-2.69-5.39-6.47-7.14-10.18-.65-1.37-2.63-.36-2.34.99Z"/><path d="M60.48 84.01c2.09-.85 3.78-2.53 4.91-4.48s1.72-4.18 1.99-6.42c1.95 4.94 6.48 8.78 11.67 9.89-5.84.36-11.69.79-17.52 1.29"/><path d="M60.88 85.48c4.85-2.02 7.55-6.83 8.3-11.87h-3.6c1.07 2.81 2.74 5.31 5.03 7.27 1.1.94 2.29 1.79 3.58 2.45 1.4.72 2.85 1.12 4.32 1.63l.54-4c-2.98-.01-5.98.28-8.95.48l-4.38.3c-1.58.11-3.21.15-4.77.47-2.45.5-1.78 4.16.57 4.24 1.45.05 2.94-.19 4.38-.32 1.46-.13 2.92-.25 4.38-.37 2.91-.24 5.86-.35 8.76-.72 2.58-.33 2.65-3.8 0-4.07-1.01-.11-2.2-.7-3.11-1.18-.98-.52-1.93-1.13-2.77-1.86a15.8 15.8 0 0 1-4.18-5.76c-.32-.75-1.38-1.06-2.11-.86-.85.23-1.28.97-1.37 1.8-.43 3.96-1.95 7.89-5.8 9.59-1.55.69-.42 3.43 1.17 2.77Zm76.46-8.45c5.33-1.73 10-5.43 12.89-10.23.41 1.75 1.69 3.21 3.22 4.16s3.3 1.45 5.06 1.81c-.5.66-1.32.99-2.1 1.27a61.2 61.2 0 0 1-16.81 3.5"/><path d="M137.79 78.65c5.76-1.89 10.84-5.76 14.06-10.91l-3.41-.45c1.13 4.44 5.46 6.44 9.58 7.31l-.84-3.18c-.81.92-2.43 1.16-3.55 1.5-1.53.46-3.08.88-4.64 1.24-3.08.71-6.21 1.16-9.37 1.37-1.08.07-2.01.87-2.01 2.01 0 1.03.92 2.08 2.01 2.01 3.64-.25 7.27-.78 10.81-1.64 1.69-.41 3.35-.9 5-1.47s3.32-1.03 4.44-2.32c.88-1 .66-2.87-.84-3.18-2.75-.58-6.15-1.56-6.99-4.63-.43-1.57-2.59-1.81-3.41-.45-2.7 4.48-6.76 7.88-11.72 9.56-2.03.69-1.17 3.92.89 3.24Zm-54.05 6.8c-4.82 6.92-12.69 23.02-17.52 29.94 7.89.38 15.81.14 23.66-.74a590 590 0 0 1-19.49 23.48c7.33.11 14.67-.32 21.94-1.29a345 345 0 0 0-16.44 32.85 358.6 358.6 0 0 0 44.63-43.19c-6.51-.36-13.02-.72-19.53-1.09 4.9-7.3 10.35-14.22 16.29-20.7-5.92-.86-10.33-.51-15.5-.93 3.86-6.47 7.98-14.93 11.84-21.4-9.83 1.98-19.86 3.01-29.89 3.07"/><path d="M82.35 84.64c-3.49 4.6-6.23 9.77-9.12 14.76-2.89 4.98-5.64 10.13-8.94 14.86-1.03 1.48.37 3.29 1.93 3.36 7.9.39 15.8.15 23.66-.71l-1.6-3.87c-6.29 7.99-12.8 15.81-19.49 23.47-1.27 1.46-.45 3.85 1.61 3.88 7.34.09 14.66-.34 21.94-1.3-.65-1.13-1.3-2.27-1.95-3.4-6.08 10.7-11.19 21.77-16.13 33.03-.88 2 1.27 3.71 3 2.31 12.53-10.15 24.39-21.12 35.44-32.87 3.16-3.36 6.22-6.79 9.28-10.24 1.19-1.35.35-3.35-1.43-3.46-6.51-.42-13.02-.85-19.53-1.22l1.86 3.25c4.82-7.14 10.15-13.9 15.97-20.25.98-1.07.77-3.39-.96-3.64-5.35-.75-10.71-.6-16.08-1.01.63 1.1 1.26 2.19 1.89 3.29 4.17-7.01 7.7-14.37 11.89-21.37 1.07-1.79-.69-3.66-2.54-3.3-9.67 1.88-19.44 2.88-29.29 2.95-2.94.02-2.95 4.6 0 4.58 10.23-.09 20.46-1.14 30.49-3.19l-2.54-3.3c-4.13 7.03-7.63 14.41-11.79 21.43-.9 1.51.28 3.17 1.89 3.29 4.97.38 9.97.15 14.92.84-.32-1.21-.64-2.42-.96-3.64a181 181 0 0 0-16.61 21.15c-.97 1.44.34 3.16 1.86 3.25 6.51.36 13.02.65 19.53.96l-1.43-3.46c-10.46 12.24-21.94 23.68-34.01 34.34-3.45 3.05-6.97 6.03-10.53 8.94l3 2.31c4.86-11.2 10.72-22.06 16.75-32.67.76-1.34-.17-3.64-1.95-3.4-7.27.95-14.6 1.38-21.94 1.28.54 1.29 1.07 2.58 1.61 3.88 6.7-7.65 13.19-15.49 19.49-23.48.58-.73.87-1.56.47-2.47-.33-.75-1.18-1.49-2.07-1.39-7.86.87-15.77 1.12-23.66.77.64 1.12 1.29 2.24 1.93 3.36 6.57-9.53 10.8-20.47 16.98-30.25 1.13-1.8-1.56-3.23-2.78-1.62Z"/></svg>