<?xml version="1.0" encoding="UTF-8"?><svg xmlns="http://www.w3.org/2000/svg" viewBox="0 0 180 180"><path d="M90.41 76.4c-17.61-5.11-36.14-7.82-54.47-8.07-1.32-.02-2.3 1.1-2.36 2.36-.58 12.13-.72 24.29-.72 36.44 0 .89.7 2.03 1.66 2.18 14.89 2.26 29.83 4.11 44.74 6.22 3.9.55 7.79 1.12 11.68 1.73 1.17.18 2.36-.3 2.7-1.53.29-1.04-.36-2.52-1.53-2.7-14.87-2.34-29.82-4.18-44.72-6.29-3.89-.55-7.78-1.16-11.66-1.79.55.73 1.11 1.45 1.66 2.18.12-12.15.52-24.29.92-36.44l-2.36 2.36c17.95-.02 36.2 1.98 53.54 6.71 2.17.59 3.08-2.74.93-3.36Z"/><path d="M34.23 85.31c-5.04.41-10.05 1.11-15.07 1.71-1.14.14-2.35.92-2.25 2.25.94 12.67 3.45 25.48 6.98 37.68.37 1.28 1.61 1.86 2.86 1.63 17.25-3.26 34.6-6 51.9-8.96 4.49-.77 8.99-1.54 13.48-2.34.68-.12 1.44-.86 1.55-1.55.55-3.57-3.8-3.01-6.04-2.92-1.27.05-2.53.13-3.79.28-.62.07-1.21.15-1.8.36-.13.05-.27.09-.4.14-.25.1-.45.22-.68.35-.72.42.67-.32.5-.27-2.27.69-1.3 4.27.98 3.57.03 0 .05-.02.08-.02h-.98c1.49.54 3.55.15 5.08.07 1.01-.05 2.02-.1 3.04-.1.35 0 .7.01 1.05 0 .13 0 .26.02.38.02-.38 0-.32.04-.71-.21l-.8-.8v.02c-.06-.57-.14-1.14-.21-1.71v.02c.51-.52 1.03-1.03 1.55-1.55-17.29 3.05-34.62 5.92-51.93 8.85-4.5.76-9 1.5-13.5 2.24.95.54 1.91 1.08 2.86 1.63-1.58-6.01-3.04-12.04-4.2-18.15-1.15-6.07-1.95-12.17-2.76-18.29-.55.72-1.1 1.45-1.65 2.17 4.98-.88 9.99-1.67 14.93-2.74 1.88-.41 1.5-3.55-.46-3.39Z"/><path d="M45.36 70.66c-.4-7.39-.32-15.07 2.07-22.15 1.07-3.19 2.75-6.22 5.12-8.63 2.66-2.7 6.04-4.44 9.68-5.42 8.83-2.37 18.81 1.25 22.82 9.74 1.89 4 2.35 8.6 2.57 12.96.28 5.49.35 11 .51 16.5.41 13.83.71 27.66 1.19 41.48.1 2.83 4.48 2.84 4.41 0-.32-13.16-.83-26.32-1.23-39.48-.18-5.92-.29-11.84-.56-17.76-.23-4.95-.73-10-2.66-14.61-4.04-9.66-14.43-14.9-24.67-13.59-8.56 1.1-16.16 6.18-19.78 14.1-3.82 8.37-3.72 17.9-2.66 26.86.23 1.97 3.29 2.08 3.17 0ZM19.24 92.11c.49.57 1.22.98 1.84 1.41s1.21.84 1.81 1.27c1.24.88 2.47 1.78 3.7 2.67 2.38 1.74 4.73 3.53 7.04 5.36.68.54 1.62.67 2.29 0 .56-.56.69-1.74 0-2.29a230 230 0 0 0-7.47-5.71c-1.23-.9-2.47-1.77-3.73-2.63s-2.6-2.04-4.07-2.53-2.29 1.41-1.41 2.43Zm13.47 34.15c3.11-1.76 5.34-4.54 7.66-7.18q1.875-2.145 3.9-4.17c2.025-2.025 2.87-2.65 4.25-4.01.59-.59.59-1.6 0-2.19-.65-.65-1.53-.52-2.19 0-1.48 1.17-2.83 2.57-4.16 3.91a86 86 0 0 0-3.79 4.07c-2.2 2.51-4.26 5.27-7.21 6.95-1.7.97-.17 3.6 1.54 2.63Z"/><path d="M36.91 72.82c7.91 6.72 16.34 12.87 24.54 19.22 1.04.81 2.09 1.62 3.13 2.42.82.64 1.59 1.27 2.69 1.27s2.17-.48 3.16-.78c1.26-.39 2.53-.79 3.79-1.18 5.05-1.57 10.11-3.14 15.16-4.72 2.12-.66 1.21-4.01-.92-3.33-4.73 1.51-9.45 3.02-14.18 4.53-1.1.35-2.21.7-3.31 1.06l-1.89.6c-.42.14-1.39.69-1.82.61-.28-.05-.55-.36-.77-.53-.53-.4-1.05-.8-1.57-1.21l-2.95-2.26C54.2 82.56 46.54 76.35 38.5 70.74c-1.22-.85-2.74 1.1-1.6 2.07Z"/><path d="M36.71 106.58c3.49-3.23 7.24-6.14 11.25-8.69 4.04-2.57 8.28-4.51 12.57-6.58 1.53-.74.46-3.34-1.17-2.77-4.6 1.61-9.06 4.16-13.13 6.81a83.4 83.4 0 0 0-11.63 9.14c-1.4 1.31.7 3.4 2.1 2.1Zm39.73-14.36c5.23 3.95 10.06 8.45 14.33 13.42.53.61 1.57.54 2.11 0 .6-.6.53-1.5 0-2.11-4.49-5.11-9.54-9.68-15.12-13.56-.58-.4-1.45-.11-1.79.47-.39.67-.1 1.36.47 1.79ZM44.35 66.69c-.34-4.97-.66-10.07.83-14.81 2.7-8.56 11.1-14.44 19.9-16.18 6.32-1.25 13.72-.27 17.73 4.77 3.23 4.06 3.48 9.67 3.58 14.86.12 6.29.24 12.59.37 18.88a308 308 0 0 0-40.17-6.59"/><path d="M45.94 66.69c-.33-6.3-.49-12.88 3.04-18.39 2.8-4.37 7.23-7.6 12.07-9.38 4.84-1.77 10.34-2.42 15.27-.61 5.33 1.97 7.34 7.06 7.77 12.36.3 3.69.26 7.41.33 11.11.08 4.14.16 8.28.26 12.42l2.64-2.01c-13.43-3.05-27.01-5.33-40.72-6.68-1.13-.11-2.09 1.04-2.09 2.09 0 1.22.96 1.98 2.09 2.09 13.32 1.3 26.59 3.42 39.61 6.51 1.29.31 2.66-.61 2.64-2.01-.06-4.14-.14-8.28-.22-12.42-.07-3.63-.02-7.28-.31-10.91-.49-6.37-2.69-12.68-8.79-15.67-10.76-5.28-25.32-.12-32.4 8.96-2.16 2.77-3.66 6.01-4.3 9.47-.81 4.32-.43 8.71-.07 13.06.17 2.01 3.28 2.06 3.17 0Z"/><path d="M65.09 33.15c3.72.36 7.51.31 11.25.46 3.56.14 7.11.31 10.67.52 7.3.44 14.6.99 21.9 1.45 2.67.17 2.66-3.99 0-4.16-7.3-.47-14.59-1.03-21.9-1.41-3.48-.18-6.96-.32-10.44-.37-3.8-.05-7.7-.16-11.47.28-2.05.24-2.09 3.02 0 3.22Zm57.96 36.12c-3.33-19.34-3.09-39.34.79-58.58-.64.49-1.28.97-1.92 1.46 9.58-.45 19.16.2 28.56 2.08-.49-.65-.98-1.29-1.47-1.94-.33 3.26-1.14 6.59-2.42 9.61.54-.31 1.09-.62 1.63-.94-6.18.03-12.36-.15-18.54-.24-.77-.01-1.65.59-1.81 1.38-1.72 8.73-2.53 17.64-2.31 26.54.11 4.41.47 8.82 1.06 13.19.28 2.1.87 4.27.85 6.39-.01 1.13-.6 3.16-2.12 2.64-2.25-.77-3.11 2.67-.97 3.51 1.88.74 4-.06 5.3-1.51 1.46-1.63 1.72-3.87 1.49-5.97-.25-2.34-.74-4.66-1.02-7-.3-2.46-.52-4.94-.66-7.42-.57-9.83.1-19.71 2-29.38-.6.46-1.21.92-1.81 1.38 6.18.08 12.36.08 18.54.27.61.02 1.37-.36 1.63-.94 1.7-3.7 2.75-7.47 3.17-11.52.08-.81-.68-1.78-1.47-1.94-9.75-1.94-19.71-2.72-29.63-2.18-.82.04-1.75.58-1.92 1.46-3.87 19.99-3.95 40.5-.11 60.5.4 2.07 3.5 1.18 3.15-.87Z"/><path d="M127.65 34.94c7.62 1.5 16.76-.25 23.04 5.35 3.19 2.85 4.61 6.96 5.4 11.05.93 4.83 1.27 9.8 1.74 14.69.53 5.58.94 11.17.97 16.77.01 2.79-.06 5.59-.27 8.37-.17 2.28-.24 4.78-1.07 6.93-.78 2.01-2.42 2.82-4.41 3.32-2.57.65-5.2 1.1-7.79 1.62-5.47 1.08-10.95 2.13-16.44 3.14-12.42 2.29-24.87 4.42-37.31 6.56-1.23.21-1.92 1.73-1.62 2.84.36 1.32 1.61 1.8 2.84 1.62 11.67-1.77 23.3-3.88 34.87-6.19 5.87-1.17 11.72-2.39 17.57-3.65 2.8-.6 5.61-1.18 8.4-1.83 2.37-.55 4.7-1.46 6.26-3.41 1.5-1.87 2.05-4.17 2.36-6.5.38-2.86.56-5.75.65-8.64.18-5.93-.14-11.85-.65-17.76-.48-5.56-.95-11.17-1.81-16.68-.71-4.55-1.99-9.13-4.88-12.81-3.31-4.2-8.45-6.28-13.62-7.02-4.58-.66-9.22-.29-13.83-.72-1.66-.16-2.04 2.61-.4 2.93Z"/><path d="M92.11 113.62c-3.74 9.96-7.84 19.88-13.4 28.98-6.04 9.89-13.58 20.74-25.73 23.07-5.92 1.14-13.08.84-18.82-1.58-3.99-1.68-6.93-5.03-8.14-9.19-2.29-7.93.56-17.35 4.98-24.04.84-1.27 1.78-2.53 3.08-3.32 1.16-.71 2.53-.98 3.86-1.25 8.93-1.77 17.86-3.55 26.9-4.6 8.3-.96 16.94-1.39 24.34-5.27"/><path d="M90.79 112.85c-4.89 11.47-9.99 22.78-16.89 33.21-5.52 8.35-12.64 16.3-23.09 17.71-5.33.72-11.65.43-16.52-2.07-4.68-2.4-6.74-7.17-6.86-12.25-.13-5.54 1.67-11.07 4.45-15.83.68-1.16 1.39-2.37 2.33-3.35.99-1.04 2.15-1.4 3.53-1.7 3.28-.72 6.59-1.32 9.89-1.95 7.4-1.4 14.8-2.49 22.28-3.31 7.01-.77 14.03-1.75 20.37-5.03 2.46-1.27.29-4.97-2.17-3.71-5.82 3-12.43 3.8-18.86 4.49-7.16.76-14.26 1.78-21.34 3.09-3.58.66-7.16 1.36-10.73 2.08-1.44.29-2.91.66-4.18 1.42-1.53.92-2.64 2.31-3.64 3.76-3.47 5.05-5.71 11.11-6.24 17.22-.51 5.85.85 12.11 5.23 16.28 4.4 4.18 10.98 5.51 16.86 5.65 5.94.15 11.91-1.02 17.06-4.06 4.83-2.85 8.72-6.97 12.1-11.4 8.87-11.64 14.7-25.25 19.22-39.08.53-1.61-2.1-2.78-2.78-1.17Zm39.23-43.72c1.96-12.34 6.59-22.17 9.19-34.39-2.11.23-6.35-.15-8.46.08-.37.04-.77.09-1.04.35-.25.24-.33.62-.39.96a75.5 75.5 0 0 0-.31 23.44"/><path d="M131.41 69.52c2.1-11.7 7.02-22.69 9.58-34.28.24-1.07-.52-2.44-1.78-2.33-2.44.21-4.91-.11-7.35-.05-1.4.04-2.91.13-3.8 1.36-.91 1.26-.88 3.28-1.08 4.78-.45 3.49-.66 7.02-.62 10.54s.23 7.09 1.1 10.48c.45 1.74 3.21 1.4 3.16-.43-.08-3.03-.41-6.05-.47-9.09s.06-6.09.37-9.11c.14-1.42.33-2.84.57-4.25.03-.22.07-.43.12-.65.08-.25.03-.24-.14.03 0 .39-.27.11.21.18.44.06.95-.04 1.39-.04 2.18-.01 4.37.15 6.54-.06l-1.78-2.33c-2.45 11.65-7.1 22.67-8.81 34.5-.26 1.8 2.46 2.62 2.79.77Zm-17.97 42.06c.41 16.4.81 32.8 1.22 49.2.06 2.55.19 5.29 1.73 7.32s5.07 2.71 6.55.63c.74-1.04.76-2.42.75-3.7-.14-18.48-.27-36.95-.41-55.43-3.45.33-6.85 1.14-10.07 2.41"/><path d="M111.95 111.58c.07 8.95.11 17.89.3 26.84.09 4.47.22 8.95.33 13.42.11 4.11-.09 8.37.48 12.45.47 3.37 2.25 6.67 5.84 7.4 3.68.75 6.31-1.68 6.59-5.28.16-2.1 0-4.25-.02-6.35l-.06-6.74-.09-13.23c-.07-10.13-.49-20.35-.02-30.46.05-1.02-.97-2.11-2.02-2.02-3.66.32-7.2 1.09-10.63 2.41-1.05.41-1.78 1.41-1.46 2.58.28 1.01 1.52 1.87 2.58 1.46 3.05-1.19 6.26-2.04 9.52-2.41l-2.02-2.02c.5 8.21.32 16.49.38 24.72.07 8.24.15 16.48.19 24.72l.03 5.49c0 1.1.29 3.12-1.05 3.56-.91.3-2.07-.19-2.72-.83-1.13-1.11-1.39-2.94-1.5-4.45-.28-3.81-.22-7.66-.31-11.48-.1-4.14-.19-8.28-.31-12.42-.26-9.12-.66-18.22-1.05-27.33-.08-1.91-3-1.93-2.98 0Z"/></svg>