<?xml version="1.0" encoding="UTF-8"?><svg xmlns="http://www.w3.org/2000/svg" viewBox="0 0 180 180"><path d="M97.59 87.26c10.67.69 21.35 1.19 32.04 1.61 1.61.06 2.36-1.72 1.72-3-2.74-5.51-5.45-11.04-8.21-16.55l-2.34 3.04c13.45 5.17 27.21 10.51 38.74 19.36 3.22 2.47 6.21 5.25 8.92 8.28l.93-3.54c-16.06 6.47-32.2 12.73-48.42 18.79l2.41 3.14c2.58-4.85 4.56-10 5.86-15.33.34-1.39-.65-2.65-2.06-2.71-10.29-.43-20.57-.95-30.86-1.33l2.11 1.61c-.73-4.58-1.01-9.22-.89-13.85.07-2.74-4.16-2.73-4.25 0-.17 5.03.16 10.04.91 15.02.15.97 1.23 1.57 2.11 1.61 10.28.47 20.57.81 30.86 1.23-.69-.9-1.38-1.81-2.06-2.71a61 61 0 0 1-5.42 14.31c-.8 1.5.56 3.83 2.41 3.14a2027 2027 0 0 0 48.41-18.82c1.49-.6 2.08-2.26.93-3.54-10.11-11.28-23.79-18.24-37.6-23.94-3.96-1.63-7.96-3.17-11.96-4.7-1.83-.7-3.07 1.58-2.34 3.04 2.76 5.5 5.56 10.98 8.34 16.47l1.72-3c-10.68-.35-21.36-.63-32.04-.71-2.01-.02-1.97 2.97 0 3.09Zm-86.04 46.87c2.95-24.97 2.73-50.08 2.05-75.16-.33-12.47-.74-24.94-.85-37.42 0-.87-.34-2.6.36-3.29.51-.5 1.54-.41 2.18-.35 2.6.26 5.23 1.35 7.74 2.06 5.83 1.65 11.67 3.26 17.52 4.86 5.84 1.6 11.68 3.2 17.51 4.84 2.74.77 5.68 1.36 8.31 2.46.87.37 1.74.85 2.24 1.67.63 1.02.67 2.33.73 3.49.35 6.2.07 12.42-.21 18.62-.27 6.15-.46 12.29-.4 18.45.12 12.47.8 24.94.88 37.41s-.32 25.2-.44 37.8q-.045 4.725-.03 9.45c0 1.04.16 2.27-.2 3.27-.32.89-1.15.98-2.01.98-2.73 0-5.54-1.02-8.03-2.07-2.57-1.09-5.08-2.33-7.62-3.49-10.36-4.72-20.8-9.26-31.06-14.19-2.5-1.2-5-2.42-7.5-3.63-2.49-1.21-4.67 2.4-2.19 3.75 10.6 5.79 21.84 10.34 32.86 15.26 5.48 2.45 10.87 5.28 16.52 7.33 2.71.98 5.83 1.84 8.72 1.34 2.83-.49 4.51-2.7 4.86-5.44.38-3.05.1-6.26.12-9.33.02-3.23.05-6.47.1-9.7.09-6.63.22-13.27.29-19.9.15-13.24-.33-26.44-.69-39.67-.18-6.51-.3-13.02-.12-19.53.18-6.46.61-12.91.65-19.37.02-3.15.08-6.38-.36-9.51-.4-2.82-1.81-5.15-4.39-6.48s-5.66-1.94-8.47-2.74c-3.09-.87-6.19-1.73-9.3-2.56-6.12-1.65-12.25-3.27-18.37-4.91-3.1-.84-6.2-1.68-9.29-2.55-2.69-.76-5.4-1.77-8.19-2.05-2.37-.24-4.93.49-6.11 2.73-.69 1.31-.69 2.79-.68 4.23.01 1.65.04 3.3.06 4.95.1 6.61.27 13.22.46 19.82.75 26.2 1.86 52.51.08 78.69-.22 3.29-.5 6.57-.82 9.85-.2 1.99 2.86 1.94 3.09 0Z"/><path d="M13.11 15.39c30.22-2.06 58.6 0 81.49.44 2.73.05 5.8.19 7.62 2.23 1.65 1.84 1.66 4.57 1.56 7.04-.77 19.23.66 42.93-.29 59.82-2.85-.46-6.31-.7-8.07 1.59-.7.92-.98 2.09-1.19 3.22a46.8 46.8 0 0 0-.74 11.15c.04.82.15 1.71.74 2.27.57.53 1.41.59 2.19.63 2.2.1 5.49-1 7.68-.89 1.24 10.73.14 22.79.5 33.59.03 1.04 0 2.23-.78 2.92-.54.47-1.29.57-2 .65-4.52.48-22.31.52-26.84.27-.25-22.03-.49-44.07-.74-66.1-.05-4.25-.1-8.51.28-12.75.65-7.35-.01-5.45-.13-12.83-.05-3.06 2.04-15.47.04-17.78-1.74-2.01-4.34-3.01-6.85-3.87-8.1-2.78-16.41-4.91-24.85-6.39-5.23-.91-10.68-1.64-15.19-4.44"/><path d="M13.11 16.98c21.74-.93 43.49-.32 65.22.44 4.72.17 9.45.33 14.17.44 2.05.05 4.22-.09 6.21.47s2.83 2.12 2.95 4.13c.13 2.3-.09 4.64-.14 6.94-.06 2.47-.09 4.95-.1 7.42-.02 5.18.03 10.37.1 15.55.14 10.84.42 21.72-.18 32.55l2.72-2.07c-3.19-.5-6.81-.82-9.46 1.42-1.35 1.14-2.02 2.82-2.37 4.51-.43 2.06-.69 4.17-.84 6.26-.14 2.05-.21 4.15-.03 6.19.18 1.96.96 3.71 2.95 4.39 3.22 1.1 6.55-.68 9.8-.57l-2.16-2.16c.56 5.65.61 11.33.53 17-.08 5.65-.06 11.29-.07 16.94 0 .26.08.7-.07.92.09-.14-.35.05-.57.08-.5.07-1.02.09-1.53.12-1.45.09-2.89.13-4.34.17-3.68.1-7.36.13-11.05.13-3.28 0-6.58.02-9.86-.15l2.22 2.22-.42-38.27-.21-19.38c-.07-6.24-.32-12.52.02-18.75.13-2.43.46-4.85.45-7.29 0-1.33-.16-2.65-.25-3.97-.23-3.38 0-6.59.32-9.95.34-3.55.82-7.33.11-10.87-.91-4.55-6.6-6.21-10.4-7.46-6.47-2.13-13.08-3.87-19.76-5.2-6.16-1.23-12.91-1.6-18.4-4.93-2.43-1.48-4.65 2.34-2.22 3.8 4.78 2.9 10.3 3.71 15.72 4.65 5.93 1.04 11.81 2.39 17.59 4.1 2.75.81 5.49 1.68 8.19 2.65 1.08.39 2.13.84 3.11 1.44.46.28.89.58 1.27.96-.04-.04.85.9.45.45-.27-.3.05.34-.02 0-.06-.32.11.42.14.54.03.13.05.25.07.38.12.64-.02-.27.02.14.08.78.1 1.57.1 2.36 0 1.85-.14 3.69-.3 5.53-.29 3.32-.68 6.55-.54 9.89s.39 6.35.12 9.63c-.51 6.13-.35 12.27-.28 18.42l.21 18.89.48 42.24c.01 1.25 1.01 2.15 2.22 2.22 6.94.37 13.96.2 20.91.02 1.51-.04 3.02-.09 4.53-.18 1.94-.12 4.07-.22 5.38-1.88 1.67-2.13.96-5.55.95-8.06-.02-3.09.04-6.17.1-9.26.12-6.76.27-13.56-.57-20.28-.15-1.17-.87-2.15-2.16-2.16-2.44-.02-4.77.86-7.19.91-.38 0-.93.08-1.28-.11.36.2.05.07.04-.28 0-.28-.03-.56-.05-.84-.07-1.62-.06-3.25.04-4.87q.135-2.265.51-4.5c.18-1.04.28-2.41.98-3.26 1.25-1.52 4.08-1.04 5.75-.78 1.42.22 2.64-.56 2.72-2.07.54-9.89.33-19.8.19-29.7-.08-5.34-.15-10.68-.16-16.02 0-5.08.23-10.15.26-15.23.01-2.31-.28-4.77-1.68-6.68-1.46-2-3.73-2.94-6.12-3.28-2.3-.32-4.65-.27-6.98-.32-2.37-.06-4.73-.13-7.1-.21-10.52-.34-21.03-.79-31.56-.92-13.16-.17-26.28.05-39.39 1.25-2 .18-2.07 3.26 0 3.17Z"/><path d="M56.49 93.11c-3.3-1.33-6.82-2.59-10.37-3.01-3.31-.39-7.08 1.14-7.9 4.67-.81 3.45 2.06 5.71 4.96 6.7 1.6.55 3.28.92 4.91 1.36 1.77.48 3.54 1.04 5.34 1.41 1.99.41 4.07.4 5.7-.96 1.41-1.18 2.22-3.3 1.17-4.97-.84-1.34-3.12-.86-3.07.83.09 2.88-5.14.71-6.52.34-1.76-.48-3.53-.94-5.29-1.43-.98-.27-2.11-.59-2.87-1.2-.65-.54-.76-1.24-.13-2 .8-.98 2.2-1.07 3.36-1.03 1.64.06 3.28.48 4.86.86 1.69.41 3.35.9 4.99 1.46.81.28 1.73-.32 1.94-1.1.25-.9-.31-1.62-1.1-1.94Z"/></svg>