<?xml version="1.0" encoding="UTF-8"?><svg xmlns="http://www.w3.org/2000/svg" viewBox="0 0 180 180"><path d="M20.28 152.83c9.31 2.28 18.7 3.87 28.31 4.07 4.44.09 8.95.03 13.36-.54 3.88-.5 7.92-1.67 10.66-4.64 2.99-3.24 4.02-7.85 4.83-12.06.91-4.75 1.35-9.6 1.54-14.43.39-9.73.11-19.51-.7-29.22-.41-4.88-.96-9.74-1.64-14.58-.52-3.72-1.03-7.63-3.01-10.91-.96-1.59-2.3-3.01-3.93-3.93-2.04-1.14-4.34-1.44-6.63-1.7-4.79-.54-9.59-.93-14.4-1.18s-9.63-.36-14.44-.32c-3.99.03-8.14.05-11.97 1.29s-7.06 3.75-8.87 7.41-2.46 7.94-3.11 12.02a190.4 190.4 0 0 0-.39 57.25c.35 2.39.79 4.76 1.25 7.13.19.97 1.33 1.5 2.23 1.27 1.04-.27 1.41-1.27 1.27-2.23-2.74-17.7-3.3-35.67-1.27-53.48.5-4.38 1.15-8.76 2-13.09.64-3.3 1.46-6.93 3.91-9.4 2.34-2.35 5.79-3.12 8.99-3.4 4.09-.35 8.24-.24 12.33-.16 4.57.09 9.14.31 13.7.65 2.28.17 4.56.38 6.83.62 1.89.2 3.97.27 5.75 1.03 2.93 1.26 3.95 4.64 4.55 7.49.86 4.04 1.26 8.21 1.7 12.32.97 9.08 1.43 18.2 1.4 27.33s-.26 17.72-2.75 26.16c-1.02 3.45-2.84 6.14-6.36 7.32-3.52 1.19-7.36 1.32-11.04 1.5-8.84.41-17.86 0-26.6-1.43-2.22-.36-4.42-.8-6.61-1.32-2.04-.49-2.91 2.65-.87 3.15Z"/><path d="M17.49 70.31c1.37-1.7 4.19-1.53 5.9-.17s2.56 3.52 3.19 5.61c2.68 8.92 2.79 18.38 2.78 27.69 0 9.74-.11 19.49-.32 29.23-.14 6.55-.75 13.99-5.88 18.06 11.64 1.75 23.44 2.44 35.21 2.05 3.82-.13 8.06-.56 10.63-3.39 2.05-2.26 2.52-5.49 2.83-8.52 1.89-18.38 5.04-40.87 2.08-59.1-.86-5.32-2.75-10.41-7.47-12.99-2.16-1.18-8.02 1.55-10.47 1.32-9.86-.9-19.76-1.34-29.66-1.32"/><path d="M18.47 71.3c1.69-1.74 4.06-.04 5.03 1.58 1.4 2.33 1.9 5.31 2.43 7.94 1.2 5.87 1.44 11.89 1.49 17.87.05 6.37 0 12.74-.08 19.11-.07 5.91-.03 11.86-.36 17.76-.27 5-1.12 10.44-5.22 13.79-1.07.87-.54 3.04.86 3.25 6.64 1 13.32 1.69 20.03 2.01 3.35.16 6.7.24 10.05.23 3-.01 6.04.02 9.02-.34 2.52-.3 5.1-.88 7.18-2.42 2.3-1.69 3.64-4.16 4.28-6.91s.79-5.61 1.11-8.4.64-5.66.93-8.49c1.27-12 2.4-24.1 1.8-36.17-.26-5.33-.6-11.06-2.41-16.13-.86-2.4-2.07-4.68-3.86-6.52-1.55-1.6-3.51-3.08-5.82-3.09-2.41-.02-4.78.88-7.11 1.4-1.14.25-1.83.22-3.11.1-1.89-.17-3.78-.32-5.68-.46-7.57-.54-15.16-.8-22.75-.78-2.74 0-2.75 4.27 0 4.27 6.35 0 12.71.17 19.05.52 3.13.17 6.26.4 9.38.66 2.13.18 3.98-.19 6.04-.72.93-.24 1.85-.48 2.8-.66.33-.06.66-.11 1-.13.47-.03.8 0 .95.06-.17-.07-.35-.22.19.13.21.13.42.25.62.39.45.3.85.65 1.24 1.03.8.78 1.45 1.67 2 2.65 2.31 4.13 2.71 9.27 3.09 13.9.91 11.2.11 22.49-.96 33.65-.53 5.49-1.15 10.97-1.7 16.45-.25 2.44-.32 5.07-1.31 7.36-.92 2.13-2.69 3.34-4.88 3.95-2.71.75-5.59.7-8.38.75-3.6.07-7.19.03-10.79-.1-7.01-.26-14.02-.9-20.96-1.93l.86 3.25c4.23-3.47 5.64-8.93 6.16-14.15.64-6.5.44-13.13.51-19.65.07-7.01.17-14.02.03-21.03-.14-6.75-.56-13.65-2.36-20.18-.84-3.04-1.89-6.5-4.62-8.38-2.3-1.59-5.85-1.66-7.73.62-1.12 1.36.7 3.29 1.98 1.98Z"/><path d="M72.64 74.32c16.15-3.85 24.58-19.42 29.69-33.87 1.35-3.83 2.33-7.92 4.51-11.39 1.69-2.69 4.54-5.18 7.92-4.85 3.38.32 5.98 3.1 7.32 6.03 1.61 3.52 1.87 7.64 1.82 11.46-.1 8.93-2.93 17.66-7.97 25.02-1.14 1.67.74 3.74 2.52 3.28 10.24-2.66 21.25-4.11 31.83-3.42 4.19.27 8.94 1.16 12.11 4.16 2.45 2.32 4.09 6.05 3.08 9.41-.58 1.94-2.18 3.2-3.8 4.28-2.08 1.39-4.3 2.68-5.88 4.67-.72.92-.97 2.1-.18 3.08.68.85 2.05 1.28 3.03.6 1.93-1.33 4.3-1.09 6.24.18 2.18 1.43 2.97 4 2.73 6.51-.64 6.48-7.03 9.85-12.68 11.22.6 1.43 1.21 2.86 1.81 4.29 1.81-.85 4.15-.33 5.65.91 1.81 1.5 2.05 3.88 1.38 6.02-1.82 5.84-8.65 7.44-13.94 8.36l1.25 4.54c2.22-.84 4.57.63 5.21 2.85.84 2.94-.84 5.94-2.91 7.91-2.43 2.31-5.66 3.84-8.71 5.15-3.27 1.4-6.7 2.45-10.16 3.24-14.62 3.33-29.86 1.45-44.14-2.55-8.52-2.39-16.82-5.49-25.06-8.69-1.25-.48-2.72.53-3.05 1.73-.38 1.4.48 2.56 1.73 3.05 16 6.21 32.59 11.84 49.87 12.76 8.18.43 16.51-.24 24.44-2.38 3.9-1.05 7.7-2.49 11.32-4.27 3.51-1.73 6.87-3.9 9.19-7.13 2.45-3.41 3.33-8.33 1.18-12.1-1.94-3.41-6.36-5.53-10.15-4.09-2.84 1.07-1.74 5.06 1.25 4.54 7.63-1.33 16.41-4.76 17.61-13.51.52-3.77-.94-7.42-4.1-9.59s-6.92-2.34-10.23-.78c-2.48 1.17-.69 4.9 1.81 4.29 8.07-1.95 16.3-7.66 16.16-16.85-.06-3.98-2-7.71-5.5-9.7-3.22-1.83-7.43-2.1-10.56.07.95 1.23 1.89 2.46 2.84 3.68 2.94-3.72 8.12-4.87 10.25-9.41 2-4.26 1.04-9.42-1.63-13.17-6.53-9.18-19.94-8.44-29.89-7.66-6.97.54-13.82 1.76-20.58 3.52.84 1.09 1.68 2.19 2.52 3.28 4.87-7.13 7.73-15.5 8.41-24.09.63-8.05-.25-18.08-7.53-23.03-3.35-2.28-7.5-2.67-11.18-1.01-3.77 1.7-6.35 5.23-7.96 8.93-1.8 4.12-2.93 8.5-4.5 12.71s-3.31 8.11-5.54 11.87c-4.46 7.51-11.18 14.28-19.7 16.92-1.95.6-1.15 3.53.84 3.06Z"/></svg>