<?xml version="1.0" encoding="UTF-8"?><svg xmlns="http://www.w3.org/2000/svg" viewBox="0 0 180 180"><path d="M95.69 43.48c-7.33-13.84-23.05-22.7-38.18-25.01-16.73-2.55-35.93 2.99-44.64 18.45C4.69 51.44 6.7 69.7 14.1 84.06c8.64 16.76 23.55 29.67 37.59 41.82 7.67 6.63 15.64 12.98 24.24 18.37 8.15 5.1 17.97 9.47 27.32 4.75 4.33-2.19 8.02-5.72 11.68-8.86 3.95-3.4 7.84-6.88 11.65-10.44 7.39-6.9 14.59-14.05 21.31-21.6 6.48-7.29 12.5-15.15 16.81-23.95 2.22-4.52 4.02-9.25 5.35-14.11s2.39-10.32 2.34-15.55c-.18-17.95-14.57-32.7-31.58-36.41-18.55-4.05-37.21 3.36-50.77 15.98-3.28 3.05-6.7 6.39-8.66 10.47-1.91 3.97-2.64 8.65-1.22 12.91 1.19 3.55 3.69 6.94 7.29 8.3 3.96 1.49 7.74-.76 9.96-4.01 2.2-3.22 2.52-7.35 1.59-11.05-.46-1.84-3.31-1.06-2.85.79.82 3.28-.12 7.62-2.88 9.76-2.65 2.06-5.48 1.03-7.41-1.42-2.22-2.83-2.65-6.27-1.73-9.68 1.1-4.08 3.51-7.09 6.43-10.04 11.76-11.87 27.79-19.9 44.82-18.07 7.99.86 15.76 4.12 21.64 9.64 5.41 5.07 9.32 11.85 10.35 19.24.63 4.49.07 9.08-.86 13.49s-2.34 9.08-4.13 13.4c-3.41 8.24-8.46 15.74-14.13 22.58-5.96 7.19-12.55 13.89-19.24 20.4s-14.08 13.17-21.49 19.34c-3.16 2.63-6.54 5.35-10.72 6.02s-8.52-.76-12.24-2.57c-8.2-3.98-15.71-9.75-22.75-15.48-7.1-5.78-13.96-11.89-20.62-18.17-6.18-5.82-12.17-11.96-17.11-18.87-4.69-6.56-8.53-13.79-10.37-21.67-1.62-6.94-1.8-14.33-.08-21.27 1.73-6.94 5.41-13.29 11.1-17.71 6.31-4.9 14.41-7.18 22.29-7.63 14.24-.8 29.29 4.79 39.67 14.58 2.45 2.31 4.53 4.87 6.16 7.82 1.03 1.85 3.82.21 2.83-1.66Z"/><path d="M58.2 131.24c-9.03-1.5-18.4-.86-27.14 1.85-5.03 1.56-10.61 4.86-10.74 10.12-.12 5.08 4.95 8.65 9.68 10.49 7.69 2.99 15.99 4.03 24.2 4.86 31.41 3.16 63.51 3.46 94.11-4.31 3.26-.83 6.54-1.76 9.47-3.43 4.19-2.39 7.72-7.18 6.32-11.79-1.46-4.8-7.16-6.68-12.1-7.51-7.35-1.23-14.83-1.7-22.27-1.41-1.31.05-2.64.13-3.86.61-1.42.56-2.57 1.62-3.7 2.63-5.19 4.64-10.74 8.88-16.59 12.65-3 1.94-6.22 3.8-9.78 4.09-4.11.33-8.06-1.46-11.79-3.22-9.31-4.38-18.62-8.75-27.93-13.13"/><path d="M58.61 129.73a57.7 57.7 0 0 0-17.1-.89c-5.25.51-10.68 1.51-15.45 3.83-3.99 1.94-7.52 5.26-7.99 9.88-.49 4.76 2.87 8.66 6.64 11.06 4.43 2.83 9.89 4.22 14.99 5.24 5.72 1.15 11.55 1.74 17.36 2.29 11.71 1.11 23.46 1.79 35.23 1.79s23.38-.71 34.97-2.31c5.8-.8 11.57-1.84 17.27-3.14 5.16-1.18 10.86-2.35 15.32-5.36 3.89-2.62 7.26-7.09 6.69-12.02-.55-4.79-4.36-7.75-8.6-9.36-4.87-1.85-10.43-2.24-15.58-2.64-2.99-.23-5.99-.34-8.98-.32-2.83.02-5.99-.16-8.64 1-2.48 1.09-4.4 3.24-6.43 4.97-2.15 1.84-4.35 3.6-6.62 5.29s-4.65 3.34-7.05 4.89c-2.17 1.41-4.42 2.82-6.93 3.53-5.5 1.55-10.92-1.72-15.74-3.97-5.56-2.6-11.13-5.19-16.69-7.79-2.71-1.26-5.41-2.53-8.12-3.79-1.04-.49-2.29-.29-2.91.76-.54.92-.28 2.41.76 2.91 5.25 2.48 10.5 4.97 15.74 7.45 5.19 2.45 10.32 5.1 15.61 7.32 2.44 1.03 4.95 1.83 7.62 2s5.24-.5 7.66-1.56c4.69-2.06 8.99-5.34 13.06-8.41 2.19-1.65 4.34-3.36 6.43-5.14 1.74-1.48 3.55-3.71 5.75-4.49 1.06-.38 2.23-.36 3.34-.4a109 109 0 0 1 12.86.32c4.62.39 9.64.76 13.98 2.51 3.32 1.34 6.02 4.05 4.84 7.86-1.34 4.32-5.95 6.66-9.94 7.91-5.08 1.6-10.39 2.67-15.61 3.65-10.77 2.03-21.7 3.13-32.65 3.56-11.04.43-22.09.16-33.11-.54-5.47-.35-10.93-.81-16.39-1.36-5.38-.54-10.76-1.18-16.02-2.44-4.3-1.03-9.09-2.29-12.56-5.19-2.69-2.25-4.15-5.69-1.7-8.72 2.52-3.11 6.69-4.48 10.4-5.48 5.24-1.42 10.58-2.15 16.01-2.13 2.63 0 5.26.19 7.86.51 1.74.21 2.13-2.72.42-3.07Z"/></svg>