<?xml version="1.0" encoding="UTF-8"?><svg xmlns="http://www.w3.org/2000/svg" viewBox="0 0 180 180"><path d="M53.1 9.86c-6.54 2-12.52 5.56-17.56 10.16-4.56 4.16-9.4 9.16-11.09 15.27-1.93 6.96 1.83 12.86 6.05 18.04 5.11 6.28 10.29 12.5 15.43 18.75 10.25 12.46 20.52 24.9 30.78 37.35l15.24 18.48c4.99 6.06 9.82 12.33 15.1 18.14 2.69 2.96 5.66 5.63 9.07 7.74 3.37 2.09 7.04 3.66 10.73 5.1 8.22 3.22 16.61 6.03 25.07 8.54 1.29.38 2.67-.68 2.65-2.02-.1-6.21.55-12.35 1.25-18.51.61-5.38 1.07-10.78.4-16.17-1.37-10.98-7.01-20.46-12.91-29.57-13.15-20.31-28.58-39.29-44.9-57.12-10.32-11.28-21.19-22.03-32.53-32.28-1.97-1.78-4.91 1.13-2.93 2.93 19.87 17.99 38.17 37.57 54.88 58.51 6.82 8.55 13.37 17.29 19.45 26.38 5.7 8.52 11.81 17.49 14.12 27.63 1.35 5.91 1.08 11.93.44 17.92-.72 6.76-1.56 13.48-1.45 20.29l2.65-2.02c-7.3-2.17-14.53-4.58-21.66-7.25-6.37-2.39-12.83-4.96-17.92-9.62s-9.55-10.73-14.06-16.21c-4.97-6.03-9.95-12.06-14.92-18.09-9.84-11.93-19.67-23.87-29.53-35.8-4.98-6.03-9.96-12.05-14.94-18.08-2.37-2.86-4.77-5.71-7.1-8.6-1.92-2.39-3.83-5.01-4.63-8.01-1.74-6.57 3.51-12.59 7.75-16.94 5.1-5.23 11.01-9.48 17.87-12.07 1.76-.67 1.08-3.45-.79-2.88Z"/><path d="M134.62 159.57c1.83-8.28 11.37-14.28 19.07-15.23-.02 6.52-1.56 14.36-1.58 20.88-2.88-1.81-6.11-2.96-9.32-4.09l-6.36-2.25"/><path d="M136.12 159.99c2.16-7.35 10.26-12.7 17.57-13.59l-2.05-2.05c-.1 6.99-1.53 13.89-1.52 20.88 1-.57 2-1.15 3-1.72-2.45-1.52-5.13-2.61-7.84-3.59s-5.53-2.05-8.32-2.96c-1.03-.33-2.18.39-2.46 1.4-.31 1.13.38 2.07 1.4 2.46 5.1 1.94 10.53 3.24 15.21 6.13 1.31.81 2.97-.25 3-1.72.11-6.99 1.64-13.88 1.64-20.88 0-1.47-1.3-2.15-2.59-1.98-8.66 1.19-18.46 7.69-20.02 16.79-.33 1.94 2.42 2.78 3 .83Zm-20.03-8.78c2.31-7.7 6.06-14.65 12.27-19.9 3.13-2.64 6.79-4.72 10.66-6.06 4.02-1.39 7.96-1.78 12.16-2.06 2.67-.17 2.68-4 0-4.16-3.52-.2-7.27.54-10.64 1.54s-6.75 2.49-9.79 4.35c-5.87 3.59-10.83 8.8-14 14.91-1.79 3.45-3.09 7.11-3.59 10.98-.22 1.71 2.45 1.94 2.92.39ZM77.36 26.66c-15.62 4.74-31.25 15.2-37.55 34.12-4.26-3.97-9.67-9.61-12.5-14.71-2.08-3.75-1.99-6.98-1.44-11.23.6-4.59 3.69-8.44 7-11.66 4.44-4.31 9.51-7.97 15-10.83 5.98-3.12 14.43-3.67 19.36 1.68 3.35 3.64 6.36 8.55 10.36 11.47"/><path d="M76.9 24.98C63.39 28.7 51.05 36.54 43.3 48.39c-2.39 3.65-4.25 7.66-5.57 11.81l3.61-.95c-4.65-4.2-9.54-8.99-12.48-14.59-1.47-2.81-1.43-5.88-1.06-8.96.36-3.05 1.76-5.73 3.71-8.08 4.31-5.19 9.98-9.41 15.85-12.67 4.46-2.48 10.02-4.07 14.96-1.94 2.94 1.27 4.81 3.98 6.74 6.41 2.27 2.86 4.56 5.61 7.54 7.77.87.63 2.2.15 2.7-.71.6-1.02.14-2.05-.71-2.7-2.64-2.03-4.68-4.85-6.73-7.44s-4.03-5.19-7-6.68c-5.51-2.76-12.17-1.97-17.57.68-6.6 3.24-12.95 7.98-17.85 13.46-2.34 2.62-4.42 5.64-5.26 9.1-.8 3.26-1 7.05-.18 10.32.97 3.86 3.56 7.24 6.03 10.28s5.37 5.99 8.26 8.8c1.23 1.19 3.07.56 3.61-.95 2.33-6.51 5.84-12.52 10.6-17.54 4.45-4.69 9.77-8.46 15.53-11.37 3.17-1.6 6.43-2.97 9.8-4.11 2.11-.71 1.26-3.96-.93-3.36ZM50.57 71.14c1.03-7.03 4.4-13.04 9.06-18.33 4.59-5.21 9.91-9.75 16.25-12.67 3.58-1.65 7.47-2.7 11.38-3.12 1.05-.11 1.96-.82 1.96-1.96 0-.97-.9-2.08-1.96-1.96-7.69.88-14.91 3.78-21.08 8.46-5.92 4.49-11.46 10.33-14.99 16.91-2.02 3.77-3.43 7.97-3.57 12.27-.06 1.65 2.7 2.1 2.95.4"/><path d="M52.4 58.89c1.6 2.71 3.76 5.05 5.81 7.41s4.21 4.82 6.35 7.21c4.38 4.88 8.78 9.75 13.1 14.69 9.1 10.41 17.41 21.46 26.04 32.26 2.45 3.06 4.92 6.1 7.45 9.1 2.39 2.83 4.4 6.05 7.1 8.62 1.75 1.66 4.39-.96 2.65-2.65-2.4-2.33-4.1-5.23-6.22-7.8-2.24-2.71-4.5-5.41-6.71-8.15-4.42-5.49-8.71-11.08-13.11-16.59-8.28-10.36-16.99-20.28-25.89-30.1l-7.38-8.13c-2.3-2.54-4.47-5.26-7.09-7.47-1.1-.93-2.9.24-2.09 1.61Zm9.83-10.88c1.6 2.71 3.76 5.05 5.81 7.41s4.21 4.82 6.35 7.21c4.38 4.88 8.78 9.75 13.1 14.69 9.1 10.41 17.41 21.46 26.04 32.26 2.45 3.06 4.92 6.1 7.45 9.1 2.39 2.83 4.4 6.05 7.1 8.62 1.75 1.66 4.39-.96 2.65-2.65-2.4-2.33-4.1-5.23-6.22-7.8-2.24-2.71-4.5-5.41-6.71-8.15-4.42-5.49-8.71-11.08-13.11-16.59-8.28-10.36-16.99-20.28-25.89-30.1l-7.38-8.13c-2.3-2.54-4.47-5.26-7.09-7.47-1.1-.93-2.9.24-2.09 1.61Zm12.36-8.33c.29 1.65 1.57 2.72 2.69 3.86 1.27 1.29 2.52 2.59 3.77 3.91 2.38 2.51 4.71 5.07 7 7.67 4.57 5.19 8.99 10.52 13.31 15.93 4.33 5.41 8.55 10.91 12.76 16.41 4.29 5.61 8.69 11.14 13.03 16.71 4.87 6.25 9.69 12.58 14.8 18.65 1.5 1.79 4.06-.79 2.56-2.56-4.52-5.37-9.15-10.62-13.5-16.15-4.24-5.39-8.29-10.94-12.45-16.39-8.31-10.87-16.62-21.77-25.62-32.08a297 297 0 0 0-7.72-8.53c-1.34-1.42-2.7-2.83-4.08-4.22-.64-.64-1.28-1.28-1.93-1.91s-1.45-1.23-1.72-2.08c-.59-1.86-3.23-1.09-2.89.8ZM38.33 156.96c8.6 4 18.71 7.01 28.07 3.85 3.77-1.27 7.33-3.42 9.98-6.41 1.31-1.48 2.39-3.12 3.17-4.93.85-1.98 1.7-4.35.84-6.46-1.76-4.29-7.07-2.79-10.2-1.23-4.13 2.07-8.14 5.07-11.01 8.72s-4.66 8.22-2.49 12.5c1.97 3.89 6.64 5.65 10.65 6.48 9.41 1.95 20.4-.4 27.34-7.34-1.05-.44-2.11-.87-3.16-1.31-.28 2.46-.54 5.2 1.38 7.12 2.27 2.27 5.9 1.23 8.71 1.04 6.87-.47 13.43.57 20.05 2.38 1.79.49 2.46-2.13.76-2.74-5.49-1.99-11.49-2.81-17.31-2.99-1.39-.04-2.79-.04-4.19.02s-2.79.33-4.18.26c-2.38-.12-2.04-2.91-1.58-4.6.39-1.43-1.36-3.09-2.72-2.09-5.65 4.16-12.08 6.7-19.18 6.48-3.3-.1-6.92-.73-9.86-2.32-1.26-.68-2.43-1.6-2.93-2.99s-.18-3.03.41-4.39c1.46-3.34 4.45-6.05 7.34-8.15 1.62-1.18 3.36-2.3 5.18-3.15.81-.38 2.4-1.06 3.29-.59 1.13.6.09 2.97-.26 3.84-.56 1.39-1.39 2.73-2.36 3.88-2.09 2.47-4.85 4.37-7.87 5.53-8.68 3.34-18.24.67-26.36-3-1.74-.79-3.27 1.77-1.51 2.59"/></svg>