<?xml version="1.0" encoding="UTF-8"?><svg xmlns="http://www.w3.org/2000/svg" viewBox="0 0 180 180"><path d="M140.38 56.22c.45-6.8-.97-13.85-3.73-20.05-2.75-6.19-7.52-11.78-14.5-12.92-10.58-1.73-21.36-.66-31.9.82-10.24 1.43-20.45 3.12-30.51 5.5-10.15 2.4-20.14 5.48-29.75 9.55-4.38 1.85-8.91 3.76-12.72 6.65-3.87 2.94-6.45 6.87-7.83 11.52s-1.66 9.65-1.72 14.47c-.06 5.37.35 10.74 1.06 16.06 1.43 10.72 3.99 21.25 6.69 31.71 1.19 4.61 2.84 9.25 6.6 12.39 3.42 2.86 7.68 4.32 12.07 4.77 5.4.56 10.85-.61 16.08-1.85 5.37-1.28 10.74-2.58 16.11-3.88l7.95-1.92c-.91-.52-1.82-1.03-2.73-1.55 1.3 9.23 0 18.69-3.45 27.32-.61 1.53 1.24 3.32 2.75 2.75 7.04-2.67 11.83-8.65 15.81-14.78 4.32-6.65 7.65-13.9 10.11-21.43l-1.47 1.47c4.27-1.5 8.88-2.21 13.31-3.1 5.88-1.17 11.76-2.28 17.62-3.55 5.21-1.12 10.46-2.43 15.12-5.12 4.99-2.89 8.56-8.15 8.56-14.01 0-3.02-.73-6.03-1.48-8.94-1.12-4.38-2.35-8.72-3.37-13.12-.48-2.07-3.6-2-4.12 0-.51 1.98 1.31 3.29 2.74 4.25 1.59 1.07 3.31 1.97 5.03 2.84 4.68 2.37 9.83 4.75 15 2.48 7.49-3.29 8.87-12.33 8.41-19.6-.52-8.14-2.78-16.26-6-23.74-1.77-4.1-4.07-8.34-8.56-9.83-3.41-1.14-6.77.31-9.15 2.8-2.92 3.05-4.73 7.05-6.35 10.89-.83 1.96-1.61 3.95-2.42 5.92-.08.19-.15.38-.23.56.19-.45-.06.13-.08.17a28 28 0 0 1-.92 1.93c-.06.12-.14.23-.2.35-.13.24-.55.49-.05.21l1.13-.31h-.05c.75.74 1.49 1.49 2.24 2.24v-.05c-.11.38-.21.75-.31 1.13.11-.25-.2.14.05-.05.96-.73 1.47-1.93.8-3.07-.55-.95-2.1-1.54-3.07-.8-.86.65-2.11 1.58-1.96 2.84s.91 2.18 2.24 2.24c2.92.13 4.46-5.53 5.29-7.61 1.29-3.21 2.4-6.08 4.09-9.16.79-1.43 1.65-2.81 2.52-3.81.45-.52.94-1.01 1.48-1.45-.33.27.37-.25.49-.32.13-.08.27-.15.41-.23.11-.06.71-.29.22-.11.28-.1.57-.18.86-.25.41-.09.02 0-.06 0q.27-.03.54-.03c.12 0 .25 0 .37.01.6.03-.44-.12.16.03l.39.09c.07.02.83.28.45.13 2.21.91 3.45 2.88 4.51 4.92.27.52.53 1.05.77 1.58.14.3.27.59.4.89.22.51.17.39.31.72.62 1.5 1.18 3.02 1.7 4.55 1.23 3.62 2.22 7.33 2.89 11.1.64 3.57.98 7.33.65 11.04-.13 1.42-.43 3.02-.98 4.6-.37 1.06-1.2 2.57-1.92 3.37-1.06 1.19-2.24 1.97-3.63 2.42-2.89.94-6-.54-8.59-1.74-1.46-.68-2.9-1.41-4.31-2.19-.88-.48-1.75-.98-2.58-1.55-.12-.08-.24-.16-.35-.25-.31-.22.11.12-.29-.24-.05-.05-.16-.19-.21-.21-.16-.18-.12-.13.11.15.21.39.25.81.14 1.26h-4.12c1.15 4.84 2.55 9.62 3.69 14.46.39 1.67.76 3.39.89 4.88.06.67.08 1.35.06 2.03-.03.98-.02.91-.23 1.84-.34 1.49-.71 2.27-1.58 3.6a13.4 13.4 0 0 1-4.29 4.15c-3 1.82-6.42 2.99-9.81 3.84-7.09 1.78-14.32 3.03-21.48 4.5-3.37.69-6.74 1.38-10.08 2.2-1.13.28-2.27.56-3.38.93-1.18.39-1.75.9-2.16 2.09-.48 1.39-.91 2.8-1.44 4.18-2.31 6.02-5.39 11.76-9.03 17.08-3.17 4.62-7.06 9.29-12.44 11.35l2.75 2.75c3.76-9.44 4.83-19.66 3.43-29.69-.17-1.22-1.69-1.8-2.73-1.55l-15.42 3.69c-4.99 1.2-9.99 2.58-15.06 3.4-8.13 1.33-17.88-.04-21.27-8.66-1.74-4.43-2.62-9.3-3.73-13.92-1.21-5.02-2.34-10.07-3.26-15.15-1.76-9.79-2.73-19.9-1.64-29.83.44-4.05 1.48-8.28 3.95-11.6s6.51-5.45 10.28-7.23c8.75-4.13 17.95-7.27 27.29-9.78 9.42-2.53 19.01-4.41 28.64-5.93 9.86-1.56 19.79-3.12 29.8-2.88 2.43.06 4.86.21 7.26.52 1.53.2 3.22.45 4.57 1.05 2.58 1.15 4.69 3.23 6.29 5.51 3.62 5.18 5.55 11.61 6.13 17.86.14 1.46.17 2.94.11 4.41-.08 2.16 3.2 2.13 3.34 0Z"/><path d="M47.38 79.71c-1.65 1.64-3.09 4.26-1.97 6.59.74 1.55 2.57 2.42 4.29 2.29s3.29-1.11 4.41-2.42c1.18-1.37 1.95-3.27 1.44-5.01-.74-2.52-3.81-3.75-6.21-3.08-2.36.66-4.3 3.52-4.29 5.97"/><path d="M46.36 78.69c-1.23 1.1-2.31 2.48-2.82 4.06-.54 1.67-.39 3.65.67 5.09 2.19 2.98 6.38 3.32 9.34 1.26s5.01-5.95 3.3-9.48c-1.33-2.75-4.88-4.04-7.75-3.39-1.79.41-3.23 1.67-4.28 3.12-.52.72-.91 1.54-1.17 2.39-.15.48-.22.97-.28 1.47-.07.61.08 1.09.32 1.64.45 1.05 2.26 1.02 2.73 0 .16-.34.3-.66.37-1.03.04-.24.1-.47.17-.7.04-.14.09-.28.14-.42.11-.32.02-.05 0 .01.15-.32.31-.64.5-.94.05-.09.11-.17.16-.26.03-.05.34-.45.08-.12.16-.2.33-.39.5-.57.11-.11.21-.21.33-.31 0 0 .39-.29.16-.14l.17-.11c.16-.1.33-.19.5-.28.29-.16.01 0-.05.02.13-.04.26-.09.4-.13.13-.03.26-.06.38-.09.37-.08-.09 0-.1.01.11-.1.65-.03.8-.03.09 0 .18 0 .27.01.09 0 .18.01.27.02-.27-.04-.29-.04-.09 0 .22.05.44.1.66.17.09.03.5.21.07.01.12.06.24.11.36.18.2.11.38.23.57.35-.34-.22-.09-.08 0 0 .11.11.23.21.33.32.07.07.31.42.06.04.05.07.1.14.15.22.07.11.13.23.2.35.22.37-.09-.35.03.07.03.1.05.2.09.29.15.44.03-.28.04.18v.5c0 .49.09-.29-.02.18-.07.33-.16.66-.29.97.03-.08.14-.27-.03.04-.08.15-.16.31-.25.45s-.19.29-.28.44c-.03.04-.2.28-.02.04-.22.29-.48.55-.74.8-.1.1-.21.19-.31.28-.39.35.28-.17-.16.12-.23.15-.46.31-.71.44-.15.08-.29.15-.45.22.31-.14.05-.02-.02 0-.16.05-.31.11-.47.15-.08.02-.75.14-.32.09-.25.03-.5.04-.76.02-.1 0-.55-.1-.1 0l-.29-.06c-.14-.03-.28-.09-.43-.12-.45-.12.3.18-.11-.04-.09-.05-.17-.09-.26-.14s-.57-.42-.23-.13l-.27-.24c-.08-.07-.37-.48-.14-.13-.08-.12-.15-.25-.23-.37-.21-.36.06.28-.07-.16-.05-.16-.1-.31-.13-.47-.02-.1-.05-.21-.06-.32.03.19.03.21.02.08.01-.13-.01-.27 0-.4 0-.11.01-.21.02-.32-.03.2-.03.2 0-.01.08-.32.16-.63.27-.94.04-.13.08-.26.13-.39.04-.11.04-.1 0 .01.05-.1.09-.2.14-.3.32-.64.67-1.13 1.05-1.57 1.22-1.4-.65-3.29-2.04-2.04Zm29.49-4.01c-1.65 1.64-3.09 4.26-1.97 6.59.74 1.55 2.57 2.42 4.29 2.29s3.29-1.11 4.41-2.42c1.18-1.37 1.95-3.27 1.44-5.01-.74-2.52-3.81-3.75-6.21-3.08-2.36.66-4.3 3.52-4.29 5.97"/><path d="M74.83 73.66c-1.23 1.1-2.31 2.48-2.82 4.06-.54 1.67-.39 3.65.67 5.09 2.19 2.98 6.38 3.32 9.34 1.26 2.98-2.08 5.01-5.95 3.3-9.48-1.33-2.75-4.88-4.04-7.75-3.39-1.79.41-3.23 1.67-4.28 3.12-.52.72-.91 1.54-1.17 2.39-.15.48-.22.97-.28 1.47-.07.61.08 1.09.32 1.64.45 1.05 2.26 1.02 2.73 0 .16-.34.3-.66.37-1.03.04-.24.1-.47.17-.7.04-.14.09-.28.14-.42.11-.32.02-.05 0 .01.15-.32.31-.64.5-.94.05-.09.11-.17.16-.26.03-.05.34-.45.08-.12.16-.2.33-.39.5-.57.11-.11.21-.21.33-.31 0 0 .39-.29.16-.14l.17-.11c.16-.1.33-.19.5-.28.29-.16.01 0-.05.02.13-.04.26-.09.4-.13.13-.03.26-.06.38-.09.37-.08-.09 0-.1.01.11-.1.65-.03.8-.03.09 0 .18 0 .27.01.09 0 .18.01.27.02-.27-.04-.29-.04-.09 0 .22.05.44.1.66.17.09.03.5.21.07.01.12.06.24.11.36.18.2.11.38.23.57.35-.34-.22-.09-.08 0 0 .11.11.23.21.33.32.07.07.31.42.06.04.05.07.1.14.15.22.07.11.13.23.2.35.22.37-.09-.35.03.07.03.1.05.2.09.29.15.44.03-.28.04.18v.5c0 .49.09-.29-.02.18-.07.33-.16.66-.29.97.03-.08.14-.27-.03.04-.08.15-.16.31-.25.45s-.19.29-.28.44c-.03.04-.2.28-.02.04-.22.29-.48.55-.74.8-.1.1-.21.19-.31.28-.39.35.28-.17-.16.12-.23.15-.46.31-.71.44-.15.08-.29.15-.45.22.31-.14.05-.02-.02 0-.16.05-.31.11-.47.15-.08.02-.75.14-.32.09-.25.03-.5.04-.76.02-.1 0-.55-.1-.1 0l-.29-.06c-.14-.03-.28-.09-.43-.12-.45-.12.3.18-.11-.04-.09-.05-.17-.09-.26-.14s-.57-.42-.23-.13l-.27-.24c-.08-.07-.37-.48-.14-.13-.08-.12-.15-.25-.23-.37-.21-.36.06.28-.07-.16-.05-.16-.1-.31-.13-.47-.02-.1-.05-.21-.06-.32.03.19.03.21.02.08.01-.13-.01-.27 0-.4 0-.11.01-.21.02-.32-.03.2-.03.2 0-.01.08-.32.16-.63.27-.94.04-.13.08-.26.13-.39.04-.11.04-.1 0 .01.05-.1.09-.2.14-.3.32-.64.67-1.13 1.05-1.57 1.22-1.4-.65-3.29-2.04-2.04Zm29.5-4c-1.65 1.64-3.09 4.26-1.97 6.59.74 1.55 2.57 2.42 4.29 2.29s3.29-1.11 4.41-2.42c1.18-1.37 1.95-3.27 1.44-5.01-.74-2.52-3.81-3.75-6.21-3.08-2.36.66-4.3 3.52-4.29 5.97"/><path d="M103.3 68.63c-1.23 1.1-2.31 2.48-2.82 4.06-.54 1.67-.39 3.65.67 5.09 2.19 2.98 6.38 3.32 9.34 1.26s5.01-5.95 3.3-9.48c-1.33-2.75-4.88-4.04-7.75-3.39-1.79.41-3.23 1.67-4.28 3.12-.52.72-.91 1.54-1.17 2.39-.15.48-.22.97-.28 1.47-.07.61.08 1.09.32 1.64.45 1.05 2.26 1.02 2.73 0 .16-.34.3-.66.37-1.03.04-.24.1-.47.17-.7.04-.14.09-.28.14-.42.11-.32.02-.05 0 .01.15-.32.31-.64.5-.94.05-.09.11-.17.16-.26.03-.05.34-.45.08-.12.16-.2.33-.39.5-.57.11-.11.21-.21.33-.31 0 0 .39-.29.16-.14l.17-.11c.16-.1.33-.19.5-.28.29-.16.01 0-.05.02.13-.04.26-.09.4-.13.13-.03.26-.06.38-.09.37-.08-.09 0-.1.01.11-.1.65-.03.8-.03.09 0 .18 0 .27.01.09 0 .18.01.27.02-.27-.04-.29-.04-.09 0 .22.05.44.1.66.17.09.03.5.21.07.01.12.06.24.11.36.18.2.11.38.23.57.35-.34-.22-.09-.08 0 0 .11.11.23.21.33.32.07.07.31.42.06.04.05.07.1.14.15.22.07.11.13.23.2.35.22.37-.09-.35.03.07.03.1.05.2.09.29.15.44.03-.28.04.18v.5c0 .49.09-.29-.02.18-.07.33-.16.66-.29.97.03-.08.14-.27-.03.04-.08.15-.16.31-.25.45s-.19.29-.28.44c-.03.04-.2.28-.02.04-.22.29-.48.55-.74.8-.1.1-.21.19-.31.28-.39.35.28-.17-.16.12-.23.15-.46.31-.71.44-.15.08-.29.15-.45.22.31-.14.05-.02-.02 0-.16.05-.31.11-.47.15-.08.02-.75.14-.32.09-.25.03-.5.04-.76.02-.1 0-.55-.1-.1 0l-.29-.06c-.14-.03-.28-.09-.43-.12-.45-.12.3.18-.11-.04-.09-.05-.17-.09-.26-.14s-.57-.42-.23-.13l-.27-.24c-.08-.07-.37-.48-.14-.13-.08-.12-.15-.25-.23-.37-.21-.36.06.28-.07-.16-.05-.16-.1-.31-.13-.47-.02-.1-.05-.21-.06-.32.03.19.03.21.02.08.01-.13-.01-.27 0-.4 0-.11.01-.21.02-.32-.03.2-.03.2 0-.01.08-.32.16-.63.27-.94.04-.13.08-.26.13-.39.04-.11.04-.1 0 .01.05-.1.09-.2.14-.3.32-.64.67-1.13 1.05-1.57 1.22-1.4-.65-3.29-2.04-2.04Zm-72.03 67.16c-.66 4.99-2.89 10.42-.34 14.76 1.38 2.34 3.95 3.8 6.6 4.38s5.44.58 8.11.1c10.23-1.85 22.58-3.06 25.67-4.53 1.6-5.27 1.97-12.28 1.86-17.79-.02-.86-.11-1.82-.76-2.37-.95-.8-2.38-.23-3.5.32-10.97 5.39-23.61 5.93-35.82 6.37"/><path d="M29.63 135.34c-.68 4.31-2.32 8.65-1.48 13.06.78 4.09 4.11 6.95 7.98 8.11 4.46 1.33 8.87.49 13.34-.23 4.18-.68 8.38-1.25 12.56-1.88 2.95-.45 6.02-.79 8.87-1.71.53-.17 1.11-.35 1.56-.69.85-.64 1-2.06 1.22-3.04.49-2.11.8-4.26 1.02-6.41s.34-4.19.38-6.29c.04-1.91.34-4.32-.49-6.09-.99-2.09-3.3-2.51-5.32-1.77s-4.05 1.82-6.17 2.54c-4.68 1.61-9.59 2.54-14.5 3.07-5.16.55-10.36.5-15.52.95-2.61.23-2.71 4.1 0 4.14 3.91.07 7.87-.26 11.76-.6 4-.34 8-.84 11.93-1.68 3.82-.81 7.54-1.97 11.12-3.54.83-.36 1.63-.81 2.46-1.16.24-.1.55-.25.81-.25.2 0 0-.07-.05-.13.14.15.11.59.12.78.12 1.71.04 3.46-.02 5.17-.15 4.15-.56 8.31-1.74 12.3l.87-1.13c-.26.12.22-.06-.2.07-.21.07-.42.14-.64.2-.52.15-1.05.28-1.58.4-1.39.31-2.8.55-4.2.79-3.59.59-7.2 1.09-10.8 1.63-3.95.6-8.02 1.7-12.03 1.54-3.42-.14-7.4-1.29-8.8-4.76-.77-1.92-.6-4.1-.29-6.1.36-2.28.86-4.54 1.15-6.83.23-1.88-3.03-2.34-3.33-.45Zm50.8 13.24c20.42-4.85 44.74-8.37 64.99-13.85 3.07-.83 6.38-1.84 8.21-4.44.99-1.41 1.41-3.13 1.82-4.81 3-12.48 6.41-30.27 9.41-42.75-3.18.92-6.36 2.45-9.67 2.27s-7.99-3.91-10.1-6.46c1 3.19 2.34 10.58 3.34 13.78 1.14 3.66 2.29 7.54 1.41 11.27-1.47 6.2-7.36 8.07-13.32 10.32-11.56 4.37-13.97 3.32-33.97 8.62-.86.23-4.21-.66-5.04-.32-2.58 1.03-.86 4.99-1.79 7.61-1.99 5.62-9.61 14.35-13.95 18.43"/><path d="M80.87 150.16c8.49-1.72 16.96-3.48 25.47-5.12 8.66-1.66 17.32-3.29 25.93-5.18 4.17-.91 8.32-1.89 12.44-2.97 3.47-.91 7.37-1.85 9.84-4.65 2.6-2.94 3.09-7.39 3.94-11.08.9-3.9 1.72-7.82 2.55-11.74 1.85-8.73 3.61-17.48 5.67-26.17.33-1.38-.91-2.79-2.36-2.36-3.27.98-7.27 3.08-10.69 1.76-2.76-1.07-5.29-3.24-7.17-5.49-1.28-1.52-3.83.11-3.28 1.91 1.12 3.66 1.75 7.47 2.64 11.19 1.05 4.37 3.31 8.98 1.91 13.52-1.15 3.72-4.83 5.55-8.2 6.89-3.16 1.26-6.36 2.44-9.63 3.39-5.42 1.58-11.02 2.47-16.52 3.7-2.18.49-4.36 1-6.53 1.54-1.16.29-2.32.58-3.48.88-.39.1-.78.2-1.17.31-.73.19.29.03-.1.03-.33 0-.65-.04-.98-.08-1.73-.21-3.59-.77-5.17.25-1.78 1.15-2.1 3.24-2.09 5.2 0 .93.12 1.91-.07 2.82-.17.84-.57 1.61-.97 2.36-1.05 2.02-2.34 3.91-3.7 5.73-2.63 3.54-5.59 7.02-8.8 10.06-1.86 1.76.95 4.56 2.81 2.81 2.97-2.81 5.75-5.77 8.28-8.99s5.32-6.66 6.4-10.55c.5-1.8.02-3.65.24-5.41.03-.21.24-.57.22-.67.07.27-.44-.03-.2.17.13.11.95.07 1.16.09.49.06.99.14 1.48.21 2.22.29 4.25-.49 6.39-1.04 2.23-.57 4.47-1.11 6.71-1.62 5.71-1.31 11.53-2.23 17.14-3.94 3.31-1.01 6.57-2.23 9.77-3.52 3.8-1.53 7.74-3.48 9.79-7.23 2.95-5.39.88-11.07-.58-16.54-1.11-4.17-1.74-8.47-3-12.6-1.09.64-2.18 1.27-3.28 1.91 2.33 2.77 5.49 5.24 8.91 6.5 4.32 1.59 8.65-.64 12.75-1.84l-2.36-2.36c-1.81 7.43-3.39 14.92-4.98 22.4-.84 3.94-1.68 7.89-2.55 11.82-.79 3.59-1.41 7.32-2.54 10.82-1.18 3.64-4.67 4.72-8.03 5.64-3.95 1.08-7.93 2.04-11.93 2.95-8.36 1.9-16.77 3.53-25.18 5.17-9.3 1.81-18.67 3.48-27.82 5.97-2.05.56-1.18 3.58.87 3.16Z"/></svg>