<?xml version="1.0" encoding="UTF-8"?><svg xmlns="http://www.w3.org/2000/svg" viewBox="0 0 180 180"><path d="M76.03 62.35c-7.1-.54-14.19-1.2-21.28-1.83-5.81-.51-11.76-1.14-17.48.41-5.5 1.49-10.17 4.99-12.64 10.19-2.6 5.45-3.72 11.7-4.9 17.59-1.26 6.3-2.24 12.66-2.99 19.03-.69 5.85-1.41 11.82-1.27 17.71.13 5.47 1.24 11.06 4.87 15.33 3.97 4.67 10.38 6.2 16.09 7.53 15.03 3.51 30.51 4.49 45.87 5.46l-2.01-1.15c5.64 9.09 13.17 16.82 22.15 22.65 1.33.87 3.61-.25 3.4-1.95-.8-6.78-1.54-13.57-2.28-20.35l-2.27 2.27c6.15.8 12.32 1.4 18.52 1.76 5.51.32 11.88 1.43 16.18-2.85 3.7-3.69 6.01-9.01 7.52-13.93 1.54-5.01 2.28-10.24 2.79-15.44.6-6.01.95-12.04 1.23-18.07s.65-12.16.4-18.2c-.22-5.22-1.77-10.11-5.68-13.74-3.4-3.16-7.78-5.09-12.21-6.33-6.25-1.75-12.83-2.31-19.28-2.88-7.01-.61-14.01-1.17-21.03-1.62-1.08-.07-2 .97-2 2 0 1.18.92 1.88 2 2 5.86.65 11.73 1.22 17.61 1.73 5.61.49 11.23.92 16.77 1.95 8.14 1.53 17.64 4.85 19.11 14.16.4 2.55.28 5.18.23 7.74-.05 2.9-.14 5.8-.25 8.7-.22 5.8-.56 11.59-1.01 17.38-.75 9.64-1.78 19.86-7.09 28.22-1.3 2.04-2.85 4.24-5.37 4.74-1.32.26-2.71.15-4.05.1-1.63-.06-3.26-.13-4.89-.22-6.51-.36-13.02-.94-19.49-1.74-1.12-.14-2.39 1.15-2.27 2.27.78 6.78 1.57 13.56 2.28 20.35l3.4-1.95c-5.48-3.66-10.43-8.12-14.69-13.15-2.13-2.52-3.84-5.25-5.72-7.94-1.18-1.68-4-1.28-5.85-1.39-1.92-.12-3.84-.25-5.76-.38-7.62-.53-15.24-1.19-22.8-2.34-3.79-.58-7.57-1.27-11.31-2.11-3.27-.74-6.69-1.47-9.78-2.83-2.72-1.2-4.99-2.98-6.45-5.6-1.33-2.4-1.92-5.19-2.13-7.91-.52-6.46.35-13.12 1.1-19.53.8-6.92 1.91-13.81 3.35-20.62.71-3.33 1.47-6.67 2.43-9.94.89-3.03 2.07-6.05 4.33-8.34 4.62-4.67 11.69-5.05 17.86-4.72 8.91.48 17.82.79 26.72 1.29 2.27.13 2.24-3.35 0-3.52Z"/><path d="M90.73 66.12c3.96-6.6 6.99-13.77 9.85-20.91.41-1.03-.45-2.27-1.44-2.54-1.17-.32-2.13.4-2.54 1.44-2.75 7-5.91 13.83-8.65 20.83-.65 1.64 1.92 2.61 2.78 1.17Z"/><path d="M99.34 43.93c-3.73-3.02-6.86-7.09-7.7-11.82S92.7 22 96.91 19.69c4.46-2.44 10.08-.97 14.5 1.54 4.07 2.3 7.96 6.03 8.03 10.71.06 4.2-3.15 7.92-6.99 9.63s-8.19 1.76-12.39 1.51"/><path d="M100.53 42.73c-3.42-3.15-6.76-7.31-7.02-12.16-.22-4.2 1.86-8.66 6.19-9.79 7.41-1.94 22.51 6.91 16.11 15.55-3.56 4.82-10.33 5.01-15.75 4.75-2.56-.12-2.53 3.8 0 3.97 6.45.43 13.64-.04 18.24-5.21 1.98-2.22 3.32-5.08 3.21-8.1-.11-3.08-1.56-5.84-3.61-8.09-4.04-4.42-10.91-7.8-16.98-7.23s-10.63 5.43-11.41 11.56c-.9 7.11 3.47 13.39 8.96 17.41 1.56 1.14 3.46-1.37 2.05-2.66Zm70.84 72.12c1.03-5.99-1.05-13.34-6.07-17.1-2.54-1.9-5.81-1.96-8.54-.39-2.78 1.6-4.36 4.48-5.23 7.48-1.95 6.72-2.19 14.26-1.47 21.18.33 3.2.88 6.62 3.27 8.99 2.27 2.24 5.58 2.93 8.41 1.32 2.94-1.68 5.24-4.97 6.73-7.94 1.63-3.24 2.47-6.67 2.24-10.3-.1-1.52-2.59-2.1-2.85-.39-.73 4.7-2.41 9.41-5.66 12.96-1.33 1.46-3.16 3.33-5.22 2.04-1.92-1.21-2.42-3.7-2.7-5.79-.74-5.56-.6-11.35.31-16.88.41-2.48.85-5.15 2.25-7.29 1.01-1.54 2.97-2.96 4.9-2.44 2.32.63 4.02 3.55 5.02 5.54 1.26 2.5 1.85 5.37 1.44 8.15-.13.88.22 1.75 1.15 2.02.79.23 1.87-.27 2.02-1.15Z"/><path d="M131.49 70.32c6.01 2.19 11.71 5.15 17.19 8.44 2.47 1.48 5.14 2.67 7.42 4.45 1.84 1.43 3.64 3.36 4.39 5.62.84 2.56.73 5.44.97 8.1-3.37 0-6.33 2.53-7.85 5.54s-1.88 6.45-2.21 9.81c-.65 6.49-1.28 13.19.62 19.43.48 1.57 1.15 3.14 2.38 4.22s3.14 1.53 4.54.67c-.32 2.9-.87 5.77-1.65 8.58-.9 3.26-2.22 6.59-4.81 8.77-2.93 2.46-7.03 3.03-10.85 2.77s-10.6-1.1-14.42-1.32c8.13.34 14.48-7.5 16.63-13.9 2.16-6.4 2.18-13.28 2.65-20.02.96-13.93 3.84-28.35-.73-41.54"/><path d="M130.72 71.64c3.32 1.49 6.59 3.07 9.81 4.78 3.13 1.66 6.09 3.58 9.19 5.28 2.78 1.53 5.79 3.07 7.7 5.7 1.97 2.72 1.78 6.34 2.05 9.54l1.98-1.98c-3.44.1-6.35 1.98-8.38 4.68-2.26 3.01-2.96 6.8-3.39 10.45-.9 7.68-1.98 16.46 1.07 23.81 1.5 3.61 5.26 6.48 9.17 4.41-.98-.56-1.96-1.13-2.95-1.69-.45 3.8-1.28 7.87-2.78 11.4-1.42 3.33-3.78 5.58-7.36 6.38-3.18.71-6.53.21-9.74-.11s-6.59-.72-9.9-.92v4.09c10.5.28 17.62-10.22 19.57-19.41 1.31-6.19 1.3-12.57 1.81-18.85.52-6.32 1.31-12.63 1.55-18.98.26-7.02-.18-14.1-2.45-20.8-.82-2.44-4.71-1.39-3.87 1.07 3.84 11.25 2.34 23.2 1.25 34.78-.56 5.9-.66 11.85-1.36 17.73-.58 4.86-1.81 9.56-4.67 13.59-2.76 3.89-6.92 6.9-11.84 6.77-2.65-.07-2.61 3.93 0 4.09 3.62.22 7.22.66 10.82 1.01 3.82.37 7.72.72 11.42-.55 8.78-3.01 10.55-13.22 11.45-21.3.17-1.56-1.77-2.32-2.95-1.69-1.27.68-2.56-.54-3.16-1.56-.94-1.59-1.34-3.52-1.66-5.31-.71-3.95-.48-8.06-.14-12.04.33-3.78.48-7.82 1.82-11.41 1.05-2.82 3.43-5.6 6.65-5.69 1.01-.03 2.07-.89 1.98-1.98-.3-3.74 0-7.6-2.01-10.94s-5.11-5.33-8.31-7.09c-6.88-3.79-13.62-7.84-21.22-10.04-1.61-.47-2.78 2.06-1.17 2.78ZM18.97 88.36c-3.04 1.55-5.45 3.25-7.46 6.06-1.95 2.74-3.12 5.96-3.44 9.3-.66 6.84 2.74 13.53 8.2 17.53.86.63 2.2.14 2.7-.71.59-1.01.15-2.07-.71-2.7-4.31-3.21-6.71-8.79-6.19-14.12.25-2.57 1.23-5.07 2.64-7.22 1.4-2.12 3.49-4.39 5.77-5.56 1.72-.88.2-3.47-1.51-2.59Zm62.14 28.71c-4.77-1.17-9.49-2.96-14.01-4.89-4.09-1.74-8.73-4.62-13.33-3.14-4.45 1.43-6.01 6.08-5.52 10.38.27 2.31 1.01 4.47 2.49 6.29 1.4 1.71 3.36 2.84 5.34 3.75 4.43 2.03 9.12 3.6 13.82 4.88s9.54 2.21 14.42 2.27c8.17.1 19.71-1.7 22.43-10.83.69-2.3 1.04-5.02-.03-7.25-1.11-2.3-3.66-3.41-6.06-3.79-2.72-.43-5.41-.07-8.1.38-2.87.48-5.61.87-8.23 2.17-1.43.71-.54 2.54.73 2.69 4.11.5 8.05-.99 12.13-1.22 1.65-.09 3.92-.11 5.29.99 1.19.96.81 2.82.51 4.12-1.71 7.44-11.42 8.55-17.76 8.34-7.99-.26-15.88-2.53-23.31-5.33-3-1.13-7.17-2.39-8.51-5.63-.92-2.23-1.25-6.7 1.6-7.72 1.77-.63 3.68-.05 5.37.58 2.08.77 4.11 1.67 6.21 2.41 4.48 1.57 9.03 2.63 13.65 3.7 2.05.48 2.93-2.66.87-3.16Zm-29.44-20.8c-1.65-.32-2.85-1.86-3.28-3.49-.51-1.91-.09-4.13 1.35-5.49 1.05-.99 2.55-1.44 3.99-1.34s2.82.73 3.94 1.64c.28.23.55.48.77.77.34.47.52 1.05.61 1.62.31 1.93-.39 4.01-1.85 5.32-1.46 1.3-3.65 1.75-5.48 1.07s-3.21-2.5-3.3-4.45"/><path d="M52.05 94.89c-.33-.08.06.12-.21-.08.2.15-.04-.04-.09-.08-.2-.18-.39-.38-.58-.57-.07-.07-.14-.15-.21-.22-.32-.34.14.28-.1-.13-.16-.27-.32-.53-.45-.81.03.07.12.33.01.01-.05-.15-.1-.29-.14-.44-.04-.13-.17-.9-.11-.41-.03-.26-.05-.52-.04-.78 0-.13 0-.26.02-.39.04-.53-.08.22.02-.17.06-.25.11-.51.19-.75l.05-.15q.12-.315-.03.06c0-.07.11-.23.14-.28.09-.17.22-.55.4-.66l-.14.17c.07-.08.13-.16.2-.23.11-.12.23-.22.34-.33-.33.33.01 0 .11-.07s.19-.12.29-.17c.08-.05.58-.25.1-.07.13-.05.26-.09.39-.13s.27-.08.4-.11l.16-.03q.36-.06-.06 0c.24-.1.66-.04.92-.03.12 0 .51.06.06-.01.18.03.35.06.53.11.29.07.57.17.86.27-.36-.13-.08-.04 0 0 .16.08.32.16.48.25q.195.105.39.24c.07.05.59.43.24.15.23.19.48.39.66.63-.24-.32-.04.02.02.1.18.25-.14-.43.04.07.1.27.18.54.25.83.13.51 0-.4.02.13 0 .16.02.32.02.49 0 .07-.06.59.01.15l-.06.32c-.06.27-.14.52-.22.78-.14.48.17-.28-.07.16-.06.12-.12.24-.19.36s-.15.23-.21.35c-.12.17-.12.18 0 .02-.05.06-.1.13-.16.19-.2.22-.41.44-.64.62.06-.05.25-.17-.03 0-.14.09-.28.17-.42.25-.05.03-.31.15-.02.02-.15.06-.31.11-.46.16l-.31.09c-.09.02-.74.09-.32.07-.33.02-.65 0-.97 0 .33 0 .11.02 0 0-.21-.05-.42-.09-.63-.16-.1-.03-.21-.07-.31-.11.42.16-.17-.11-.25-.15-.09-.05-.17-.11-.26-.16-.09-.06-.17-.11-.25-.17.18.14.18.14.02 0-.22-.22-.45-.42-.64-.67.05.06.19.29.02 0-.09-.15-.19-.31-.28-.46-.06-.11-.13-.22-.19-.33-.05-.09-.09-.18-.14-.27.07.17.08.19.03.07-.1-.32-.2-.63-.3-.95-.2-.66-.84-1.22-1.56-1.19-.66.03-1.44.47-1.56 1.19-.32 1.84.38 3.58 1.63 4.93s2.9 2 4.66 2.09c3.53.17 6.78-2.37 7.62-5.76.43-1.74.51-3.89-.55-5.43-1.09-1.59-3.02-2.74-4.86-3.22-3.69-.95-7.8.91-8.86 4.73-.51 1.85-.31 3.89.53 5.61.39.79.96 1.55 1.64 2.11.46.38.88.64 1.46.84.16.05.33.09.5.12.12.02.66.11.42.06-.15-.03.26.06.25.06.76.15 1.54-.22 1.76-1 .2-.73-.24-1.58-1-1.76Zm27.72 3.48c-1.65-.32-2.85-1.86-3.28-3.49-.51-1.91-.09-4.13 1.35-5.49 1.05-.99 2.55-1.44 3.99-1.34s2.82.73 3.94 1.64c.28.23.55.48.77.77.34.47.52 1.05.61 1.62.31 1.93-.39 4.01-1.85 5.32-1.46 1.3-3.65 1.75-5.48 1.07s-3.21-2.5-3.3-4.45"/><path d="M80.15 96.99c-.33-.08.06.12-.21-.08.2.15-.04-.04-.09-.08-.2-.18-.39-.38-.58-.57-.07-.07-.14-.15-.21-.22-.32-.34.14.28-.1-.13-.16-.27-.32-.53-.45-.81.03.07.12.33.01.01-.05-.15-.1-.29-.14-.44-.04-.13-.17-.9-.11-.41-.03-.26-.05-.52-.04-.78 0-.13 0-.26.02-.39.04-.53-.08.22.02-.17.06-.25.11-.51.19-.75l.05-.15q.12-.315-.03.06c0-.07.11-.23.14-.28.09-.17.22-.55.4-.66l-.14.17c.07-.08.13-.16.2-.23.11-.12.23-.22.34-.33-.33.33.01 0 .11-.07s.19-.12.29-.17c.08-.05.58-.25.1-.07.13-.05.26-.09.39-.13s.27-.08.4-.11l.16-.03q.36-.06-.06 0c.24-.1.66-.04.92-.03.12 0 .51.06.06-.01.18.03.35.06.53.11.29.07.57.17.86.27-.36-.13-.08-.04 0 0 .16.08.32.16.48.25q.195.105.39.24c.07.05.59.43.24.15.23.19.48.39.66.63-.24-.32-.04.02.02.1.18.25-.14-.43.04.07.1.27.18.54.25.83.13.51 0-.4.02.13 0 .16.02.32.02.49 0 .07-.06.59.01.15l-.06.32c-.06.27-.14.52-.22.78-.14.48.17-.28-.07.16-.06.12-.12.24-.19.36s-.15.23-.21.35c-.12.17-.12.18 0 .02-.05.06-.1.13-.16.19-.2.22-.41.44-.64.62.06-.05.25-.17-.03 0-.14.09-.28.17-.42.25-.05.03-.31.15-.02.02-.15.06-.31.11-.46.16l-.31.09c-.09.02-.74.09-.32.07-.33.02-.65 0-.97 0 .33 0 .11.02 0 0-.21-.05-.42-.09-.63-.16-.1-.03-.21-.07-.31-.11.42.16-.17-.11-.25-.15-.09-.05-.17-.11-.26-.16-.09-.06-.17-.11-.25-.17.18.14.18.14.02 0-.22-.22-.45-.42-.64-.67.05.06.19.29.02 0-.09-.15-.19-.31-.28-.46-.06-.11-.13-.22-.19-.33-.05-.09-.09-.18-.14-.27.07.17.08.19.03.07-.1-.32-.2-.63-.3-.95-.2-.66-.84-1.22-1.56-1.19-.66.03-1.44.47-1.56 1.19-.32 1.84.38 3.58 1.63 4.93 1.21 1.3 2.9 2 4.66 2.09 3.53.17 6.78-2.37 7.62-5.76.43-1.74.51-3.89-.55-5.43s-3.02-2.74-4.86-3.22c-3.69-.95-7.8.91-8.86 4.73-.51 1.85-.31 3.89.53 5.61.39.79.96 1.55 1.64 2.11.46.38.88.64 1.46.84.16.05.33.09.5.12.12.02.66.11.42.06-.15-.03.26.06.25.06.76.15 1.54-.22 1.76-1 .2-.73-.24-1.58-1-1.76Zm27.73 3.49c-1.65-.32-2.85-1.86-3.28-3.49-.51-1.91-.09-4.13 1.35-5.49 1.05-.99 2.55-1.44 3.99-1.34s2.82.73 3.94 1.64c.28.23.55.48.77.77.34.47.52 1.05.61 1.62.31 1.93-.39 4.01-1.85 5.32s-3.65 1.75-5.48 1.07-3.21-2.5-3.3-4.45"/><path d="M108.26 99.1c-.33-.08.06.12-.21-.08.2.15-.04-.04-.09-.08-.2-.18-.39-.38-.58-.57-.07-.07-.14-.15-.21-.22-.32-.34.14.28-.1-.13-.16-.27-.32-.53-.45-.81.03.07.12.33.01.01-.05-.15-.1-.29-.14-.44-.04-.13-.17-.9-.11-.41-.03-.26-.05-.52-.04-.78 0-.13 0-.26.02-.39.04-.53-.08.22.02-.17.06-.25.11-.51.19-.75l.05-.15q.12-.315-.03.06c0-.07.11-.23.14-.28.09-.17.22-.55.4-.66l-.14.17c.07-.08.13-.16.2-.23.11-.12.23-.22.34-.33-.33.33.01 0 .11-.07s.19-.12.29-.17c.08-.05.58-.25.1-.07.13-.05.26-.09.39-.13s.27-.08.4-.11l.16-.03q.36-.06-.06 0c.24-.1.66-.04.92-.03.12 0 .51.06.06-.01.18.03.35.06.53.11.29.07.57.17.86.27-.36-.13-.08-.04 0 0 .16.08.32.16.48.25q.195.105.39.24c.07.05.59.43.24.15.23.19.48.39.66.63-.24-.32-.04.02.02.1.18.25-.14-.43.04.07.1.27.18.54.25.83.13.51 0-.4.02.13 0 .16.02.32.02.49 0 .07-.06.59.01.15l-.06.32c-.06.27-.14.52-.22.78-.14.48.17-.28-.07.16-.06.12-.12.24-.19.36s-.15.23-.21.35c-.12.17-.12.18 0 .02-.05.06-.1.13-.16.19-.2.22-.41.44-.64.62.06-.05.25-.17-.03 0-.14.09-.28.17-.42.25-.05.03-.31.15-.02.02-.15.06-.31.11-.46.16l-.31.09c-.09.02-.74.09-.32.07-.33.02-.65 0-.97 0 .33 0 .11.02 0 0-.21-.05-.42-.09-.63-.16-.1-.03-.21-.07-.31-.11.42.16-.17-.11-.25-.15-.09-.05-.17-.11-.26-.16-.09-.06-.17-.11-.25-.17.18.14.18.14.02 0-.22-.22-.45-.42-.64-.67.05.06.19.29.02 0-.09-.15-.19-.31-.28-.46-.06-.11-.13-.22-.19-.33-.05-.09-.09-.18-.14-.27.07.17.08.19.03.07-.1-.32-.2-.63-.3-.95-.2-.66-.84-1.22-1.56-1.19-.66.03-1.44.47-1.56 1.19-.32 1.84.38 3.58 1.63 4.93s2.9 2 4.66 2.09c3.53.17 6.78-2.37 7.62-5.76.43-1.74.51-3.89-.55-5.43s-3.02-2.74-4.86-3.22c-3.69-.95-7.8.91-8.86 4.73-.51 1.85-.31 3.89.53 5.61.39.79.96 1.55 1.64 2.11.46.38.88.64 1.46.84.16.05.33.09.5.12.12.02.66.11.42.06-.15-.03.26.06.25.06.76.15 1.54-.22 1.76-1 .2-.73-.24-1.58-1-1.76Z"/></svg>