<?xml version="1.0" encoding="UTF-8"?><svg xmlns="http://www.w3.org/2000/svg" viewBox="0 0 180 180"><path d="M71.86 121.56a25.74 25.74 0 0 0-10.62-13.59c-2.44-1.55-5.2-2.6-8.08-2.86-3.13-.28-6.08.85-8.69 2.5-3.01 1.9-5.73 4.34-8.3 6.79s-5.18 5.27-7.51 8.14c-2.27 2.81-4.79 5.77-5.18 9.51-.36 3.5 1.4 7.11 3.11 10.06 13.04 22.43 44.18 17.72 63.37 6.97 20.54-11.52 34.9-31.93 44.74-52.83 5.35-11.37 9.28-23.26 10.14-35.88.42-6.12.11-12.54-1.92-18.38-2.04-5.86-5.77-11.11-10.61-14.99-4.86-3.9-10.64-6.55-16.85-7.32-1.84-.23-3.69-.18-5.43.53-1.71.69-3.13 1.87-4.43 3.16-2.61 2.56-4.98 5.36-7.2 8.26-2.1 2.76-4.03 5.67-5.74 8.69-1.84 3.26-3.82 6.87-3.36 10.74.4 3.4 2.52 6.17 5 8.4 2.56 2.3 5.41 4.46 8.39 6.19 3 1.74 6.26 2.9 9.74 3.05l-2.22-2.92a96.5 96.5 0 0 1-10.74 23.67c-4.64 7.41-10.28 14-16.59 20.04-3.56 3.41-7.35 6.54-11.45 9.28-2.19 1.46-.13 5.02 2.07 3.55 7.63-5.1 14.64-10.96 20.63-17.93 5.97-6.94 11.04-14.65 14.96-22.93 2.21-4.67 4.08-9.5 5.56-14.46.45-1.49-.77-2.85-2.22-2.92-3.1-.14-5.91-1.44-8.49-3.08-2.55-1.61-5.06-3.48-7.21-5.6-2.01-1.98-3.4-4.3-2.64-7.2.8-3.03 2.7-5.89 4.35-8.53 1.74-2.78 3.65-5.45 5.75-7.97 1.02-1.22 2.08-2.41 3.17-3.57s2.12-2.35 3.42-3.18c2.47-1.58 5.82-.62 8.44.15 2.56.75 4.96 1.87 7.22 3.28 4.57 2.85 8.32 6.93 10.76 11.73 2.47 4.85 3.22 10.36 3.24 15.74.04 11.36-2.91 22.77-7.41 33.14-8.4 19.35-20.27 38.45-37.51 51.1-8.51 6.25-18.24 10.72-28.67 12.55s-21.13 1.37-29.6-5.1c-4.02-3.07-7.49-7.62-8.94-12.5-.42-1.42-.51-2.79.05-4.18.6-1.49 1.69-2.83 2.66-4.09 2.08-2.68 4.35-5.23 6.74-7.64 2.25-2.26 4.61-4.48 7.16-6.4 2.11-1.59 4.6-3.23 7.33-3.25 5.13-.03 9.22 3.71 12.61 7.07 1.71 1.69 3.09 3.6 3.98 5.85.72 1.83 3.66 1.11 3.01-.83Z"/><path d="M50.58 156.45c36.48 5.33 74.13 2.45 109.37-8.34 2.39-.73 4.83-1.53 6.81-3.05 1.98-1.53 3.46-3.94 3.2-6.43-.47-4.54-5.81-6.61-10.28-7.53a182.3 182.3 0 0 0-40.02-3.75c-.7.01-1.41.03-2.06.27-1.23.45-2.04 1.59-2.81 2.65-9.73 13.37-24.75 22.76-41.03 25.65"/><path d="M50.21 157.77c16.54 3.3 33.8 3.7 50.6 2.78a251.6 251.6 0 0 0 50.42-7.93c3.96-1.04 7.98-2.07 11.82-3.48 3.58-1.31 6.91-3.41 8.35-7.1 1.2-3.07.29-6.48-2.08-8.71-2.22-2.09-5.25-3.23-8.17-3.93-8.39-2.01-17.13-3.06-25.73-3.68-4.36-.31-8.72-.47-13.09-.47-2.01 0-4.27-.27-6.12.67-1.65.84-2.65 2.46-3.74 3.89-8.48 11.16-20.63 19.23-34.13 22.92-1.69.46-3.41.85-5.13 1.17-1.11.21-1.74 1.54-1.46 2.57.32 1.17 1.45 1.65 2.57 1.46 13.39-2.33 25.92-9 35.53-18.59 2.43-2.43 4.66-5.05 6.68-7.84.38-.53.76-1.11 1.26-1.54.57-.49 1.16-.51 1.88-.54 2.1-.09 4.21-.06 6.31-.03 8.39.13 16.78.82 25.07 2.13 3.61.57 7.33 1.07 10.83 2.16 2.18.68 4.99 1.82 5.9 4.12 1.23 3.12-1.81 5.75-4.3 6.96-3.41 1.66-7.37 2.49-11.01 3.49-15.5 4.26-31.41 7.01-47.43 8.22-16.12 1.22-32.33.81-48.41-.85-2.01-.21-4.03-.35-6.04-.54-1.53-.14-1.87 2.38-.36 2.69ZM25.08 132.5c1.03 2.77 4.84 2.01 7.05 1.46 2.66-.65 5.23-1.63 7.68-2.87s4.62-2.69 6.71-4.37 4.32-3.71 5.55-6.17c.72-1.44-.94-2.62-2.15-1.66-1.81 1.45-3.37 3.22-5.14 4.72-1.76 1.49-3.69 2.79-5.71 3.9s-4.03 1.98-6.16 2.68c-1.09.36-2.21.71-3.35.93-.52.1-1.09.19-1.62.12-.57-.07-1.05-.33-1.64-.37-.78-.05-1.51.86-1.23 1.61Zm69.41-78.1c7.69-4.43 14.66-10.22 19.81-17.48.87-1.23-1.04-2.65-2.06-1.59-5.9 6.11-12.11 11.9-19.17 16.65-1.49 1-.17 3.34 1.42 2.43Zm-21.32 6.31c-3.16.23-6.16.76-9.05 2.08s-5.37 3.19-7.4 5.53-3.7 5.17-4.63 8.21c-.46 1.5-.69 3.08-.81 4.65s-.19 3.42.39 4.95c.46 1.23 2.47 1.52 2.8 0 .29-1.34.25-2.72.49-4.07.23-1.31.59-2.6 1.03-3.86.86-2.46 2.05-4.86 3.74-6.86 3.25-3.84 8.34-6.98 13.43-7.43 2.03-.18 2.07-3.35 0-3.2ZM36.29 89.76c-3.05-8.47-2.56-18.29 1.44-26.38 3.97-8.02 11.34-13.6 19.87-16.09 2.34-.68 4.73-1.12 7.16-1.26 2.56-.14 5.1.12 7.66.15 2.2.03 2.43-3 .5-3.68-4.62-1.63-10.19-1-14.86.11-4.83 1.15-9.54 3.32-13.43 6.41-7.87 6.24-12.78 15.33-13.71 25.33-.52 5.67.48 11.31 2.7 16.53.64 1.51 3.23.43 2.67-1.13Z"/><path d="M17.24 94.16c-6.65-11.87-6.4-26.11-1.71-38.6 4.73-12.62 14.37-24.15 26.95-29.35 3.53-1.46 7.43-2.45 11.13-2.8 2.04-.19 4.11-.24 6.16-.15 2.2.11 4.36.55 6.55.66 2.49.13 2.69-3.38.56-4.13-2.01-.71-4.24-.88-6.36-1.02-1.91-.13-3.84-.14-5.75 0-3.83.29-7.63 1.05-11.25 2.33-7.02 2.48-13.35 6.61-18.6 11.88C14.49 43.44 7.98 58.23 7.95 73.05c-.02 8 1.98 16.08 6.45 22.77 1.17 1.75 3.89.21 2.85-1.66Z"/></svg>