<?xml version="1.0" encoding="UTF-8"?><svg xmlns="http://www.w3.org/2000/svg" viewBox="0 0 180 180"><path d="M81.71 87.84c-6.5.33-13.07-1.84-19.24-3.6-7.02-2-14.21-4.12-21.52-4.66s-14.6 1.16-19.36 6.86c-4.1 4.91-5.38 11.83-1.34 17.2 3.55 4.72 9.48 6.62 14.9 8.29 2.9.89 5.84 1.72 8.61 2.99 3.21 1.47 6.25 3.31 9.18 5.26 5.98 3.98 11.61 8.52 17.95 11.96 6.89 3.74 14.47 5.87 21.98 7.99 12.46 3.52 27.06 7.95 33.65 20.23.71 1.33 1.34 2.71 1.86 4.13.9 2.47 4.6 1.52 3.98-1.1-3.06-12.82-16.38-20.41-27.91-24.38-7.27-2.51-14.81-4.16-22.07-6.69-6.89-2.4-13.01-5.97-18.98-10.12-5.65-3.93-11.21-8.09-17.5-10.94-5.39-2.44-11.32-3.44-16.65-5.97-2.17-1.03-4.39-2.37-5.75-4.42-1.47-2.22-1.88-4.79-1.11-7.35 1.82-6.07 8.07-9.32 14.02-9.72 7.17-.47 14.47 1.56 21.35 3.37 6.47 1.71 13.03 3.47 19.74 3.84 1.4.08 2.8.07 4.2-.06 1.97-.19 2.04-3.23 0-3.12Z"/><path d="M30.45 83.8C48.58 63.97 63.84 41.75 80.4 20.64c.84-1.07 1.78-2.25 3.03-2.84s2.67-.39 3.93.13c2.59 1.07 5.03 3.33 6.3 5.82 2.21 4.37-1.77 8.58-4.21 11.97-5.47 7.6-11.39 14.86-17.29 22.13-6.55 8.06-13.24 16.01-19.94 23.94-1.75 2.07 1.19 5.08 3.01 3.01C61.6 77.53 67.69 70 73.74 62.46c6.36-7.92 12.63-15.93 18.59-24.15 2.81-3.88 6.6-8.21 5.75-13.33-.49-2.96-2.4-5.59-4.6-7.55-2.35-2.09-5.44-3.98-8.71-3.83-3.43.16-5.7 2.56-7.67 5.11-2.08 2.7-4.14 5.41-6.2 8.12-4.24 5.59-8.46 11.19-12.7 16.78-9.75 12.85-19.72 25.51-29.98 37.96-1.27 1.54.84 3.75 2.23 2.23M18.43 98.56c-3.37 4.53-7.6 8.44-8.64 14.25-.88 4.95.05 10.36-1.72 15.11-.53 1.42 1.09 2.93 2.47 2.47 5.78-1.93 11.55-4.06 17.08-6.63 4.98-2.31 7.53-7.37 11.02-11.32 1.56-1.76-1.03-4.36-2.59-2.59-3.21 3.66-5.79 8.5-10.41 10.54-5.27 2.33-10.7 4.33-16.18 6.12l2.47 2.47c1.78-4.68.96-9.88 1.66-14.74.79-5.44 4.66-9.64 7.62-14.06 1.18-1.76-1.58-3.27-2.79-1.63Z"/><path d="M32.02 77.34c-.86.96-3.39.7-4.54.62-1.99-.13-3.63-1.6-4.67-3.28-2.52-4.08-1.82-8.92 1.05-12.59 3.34-4.27 7.42-8.11 11.32-11.86s7.66-7.55 12.18-10.3c5.32-3.23 11.27-3.34 17.32-3.26 2.5.03 2.51-3.86 0-3.89-6.34-.07-12.68.13-18.35 3.28-5.4 3-9.97 7.67-14.37 11.94-2.36 2.29-4.66 4.64-6.91 7.04-2.09 2.24-4.38 4.5-5.87 7.21-2.71 4.93-2.18 11.22 1.36 15.61 1.82 2.26 4.29 3.66 7.22 3.65 2.28 0 5.02-.55 6.41-2.52.9-1.27-1.12-2.82-2.16-1.67Zm36.5-10.18c5.51 5.71 8.38 13.34 8.47 21.22 0 .66.37 1.43.99 1.73.75.36 1.26.32 2.02 0 .64-.27.97-1.09.99-1.73.36-8.82-3.68-17.64-10.32-23.38-1.47-1.27-3.53.73-2.15 2.15Zm24.33-17.27c-.37-.55-.73-1.09-1.05-1.66-.3-.54-.54-1.11-.83-1.65s-.63-1.06-.95-1.58c-.4-.66-.8-1.35-1.3-1.93-.29-.34-.91-.58-1.34-.56s-.81.14-1.15.41c-.77.59-.93 1.6-.49 2.45.27.53.7 1.03 1.06 1.52.41.56.82 1.12 1.25 1.67.22.28.46.55.69.82l.32.36s.33.37.19.21.15.2.18.24l.3.39c.19.27.37.55.55.82.43.64 1.33.99 2.03.53.64-.41 1-1.34.53-2.03Zm.75-14.36c.89.17 1.73.13 2.61.43.76.26 1.47.66 2.17 1.06 1.36.78 2.69 1.65 3.87 2.67 1.14.98 2.28 2.15 3.16 3.3.49.64.95 1.3 1.37 1.99.55.89.93 1.71 1.8 2.34 1.14.82 2.67-.29 2.68-1.54.01-1.12-.63-2.08-1.2-3-.52-.83-1.09-1.61-1.71-2.37-1.14-1.41-2.44-2.69-3.87-3.81s-3.01-2.16-4.73-2.91c-1.85-.8-4.59-1.94-6.5-.75-.96.6-.91 2.34.34 2.58Z"/><path d="M103.92 37.75c4.05-3.12 10.02-3.57 14.78-1.9 2.35.83 4.28 2.52 5.92 4.35.85.95 1.63 1.96 2.38 2.99s1.42 2.35 2.29 3.33c.89 1 2.51.41 2.87-.76.53-1.74-.88-3.19-1.84-4.51-.91-1.24-1.84-2.47-2.86-3.62-2.08-2.35-4.57-4.28-7.56-5.33-5.59-1.95-13.52-1.41-17.84 3.02-1.17 1.2.44 3.52 1.87 2.42Z"/><path d="M128.96 40.45c5.98-1.8 12.52.04 17.13 4.15 4.74 4.21 7.48 10.14 9.01 16.2 1.85 7.34 2.11 15 2.69 22.51.59 7.67 1.14 15.35 1.85 23.02.7 7.59 2.44 15.72 9.21 20.23 2.46 1.64 4.7-2.29 2.3-3.94-5.64-3.88-6.55-11.4-7.08-17.67-.69-8.04-1.35-16.07-2.06-24.11-1.21-13.65-1.97-29.83-13.38-39.34-5.56-4.63-13.58-6.98-20.5-4.1-1.81.75-1.17 3.65.84 3.04ZM10.71 129.31c20.56 11 42.14 20.1 64.36 27.14 5.47 1.73 10.97 3.34 16.57 4.58a129.3 129.3 0 0 0 36.8 2.75c-1.74-4.25-5.38-7.38-8.92-10.31-4.32-3.58-8.75-7.16-13.86-9.48-2.79-1.26-5.74-2.13-8.7-2.95-7.98-2.22-16.11-4.15-23.56-7.75-2.37-1.14-4.65-2.45-6.93-3.76-8.49-4.86-16.98-9.73-25.47-14.59-.73-.42-1.64-.83-2.35-.39-.4.25-.6.7-.8 1.12-3.93 8.34-13.18 13.85-22.39 13.33"/><path d="M9.9 130.69c14.01 8.07 28.64 14.89 43.74 20.69 15.12 5.8 30.76 11.31 46.85 13.62 9.26 1.33 18.62 1.72 27.96 1.1 1.88-.13 2.69-1.83 1.99-3.47-1.66-3.88-4.71-6.91-7.87-9.6-3.42-2.91-6.92-5.81-10.7-8.24-7.93-5.1-17.38-6.59-26.25-9.3-4.36-1.33-8.64-2.89-12.69-5-4.35-2.26-8.57-4.81-12.83-7.25-4.39-2.51-8.78-5.03-13.17-7.54-1.01-.58-2.01-1.15-3.02-1.73s-2.11-1.35-3.28-1.69-2.35-.19-3.34.49c-.92.64-1.3 1.64-1.8 2.59-3.83 7.38-11.79 11.72-20.01 11.55-2.74-.06-2.68 4.02 0 4.22 7.47.56 15.11-2.8 20.18-8.24a25.5 25.5 0 0 0 3.32-4.42c.25-.42.48-.86.7-1.29.09-.17.52-.78.49-.96l-.77.48.14.06c.03.06.83.47.75.42.58.33 1.15.66 1.73.99 4.24 2.43 8.49 4.86 12.73 7.3 8.22 4.71 16.28 9.85 25.26 13.02 4.27 1.51 8.65 2.69 13.02 3.87 4.28 1.16 8.69 2.21 12.68 4.2 4.4 2.2 8.25 5.28 12.02 8.41 3.44 2.85 6.93 5.79 8.72 9.99l1.99-3.47c-8.08.54-16.2.34-24.24-.62-8.05-.97-15.96-2.84-23.72-5.15-15.13-4.5-29.98-10.07-44.44-16.4-8.25-3.61-16.45-7.38-24.53-11.37-1.82-.9-3.41 1.72-1.61 2.75Zm49.19-49.82c3.11-3.59 7-8.88 9.83-12.7 1.8.86 2.1 4.16 3.15 5.86 1.79 2.89 4.18 6.93 4.11 10.33 0 .42.4 1.53.15 1.87-.43.59.58.55-.15.52-4.59-.2-14.8-2.69-19.19-4.05"/><path d="M60.13 81.9c3.55-4 6.72-8.3 10.1-12.43-.74.1-1.49.19-2.23.29.17.1.31.26.4.4.2.31.33.61.43.91.28.76.49 1.55.78 2.3.74 1.94 1.99 3.64 2.92 5.49s1.5 3.56 1.64 5.56c0-.05.17 1.44.23 1.43-.05 0 .16-.63.19-.66-.17.14-.26.56-.32.77-.33 1.32.53 2.28 1.65 2.75l.54-3.99c-1.39.08-2.45-.2-3.69-.41-1.83-.3-3.64-.67-5.45-1.07-3.29-.73-6.57-1.54-9.79-2.52-2.52-.78-3.6 3.18-1.09 3.95 3.31 1.01 6.68 1.83 10.06 2.57 1.8.39 3.6.75 5.42 1.04 1.45.23 3.06.59 4.53.51 1-.06 1.87-.73 1.99-1.76s-.49-1.83-1.45-2.23c.26.07.49.2.69.37l.52.9-.03-.09v1.08c-.09.54.14-.32.17-.41.07-.25.09-.54.09-.8 0-.46-.11-.94-.2-1.39-.05-.23-.03-.43-.03-.09 0-.28 0-.56-.03-.84-.05-.56-.13-1.13-.25-1.69-.46-2.2-1.5-4.31-2.6-6.26-.9-1.58-1.78-2.91-2.37-4.5-.62-1.68-1.38-3.67-3.11-4.5-.94-.45-1.93-.23-2.52.66-2.89 4.33-5.94 8.6-9.28 12.59-1.2 1.43.81 3.5 2.08 2.08Zm12.36-54.8c-.14 3.66 2.77 6.71 5.29 9.04 1.26 1.17 2.7 2.17 4.2 3.01.8.44 1.62.83 2.47 1.18 1.04.43 2.06.87 3.14.29.82-.44.96-1.46.59-2.23-.28-.59-.82-.9-1.4-1.12l-.48-.18c.01 0-.52-.21-.31-.12q-1.035-.435-2.04-.96c-1.3-.69-2.51-1.52-3.68-2.41-.95-.72-2.09-1.87-2.95-2.91-.45-.54-.87-1.06-1.27-1.66-.38-.57-.89-1.21-.87-1.92.06-1.72-2.61-1.72-2.67 0Zm5.25-5.63c.57 1.53 1.55 2.78 2.69 3.93 1.04 1.06 2.12 2.08 3.26 3.03 2.33 1.96 4.95 3.63 7.98 4.23.72.14 1.46-.2 1.66-.94.18-.66-.22-1.53-.94-1.66-2.58-.49-4.84-1.83-6.84-3.48-1.03-.85-2.02-1.76-2.98-2.69s-1.91-1.86-2.38-3.09c-.24-.64-.85-1.08-1.56-.88-.62.17-1.12.91-.88 1.56Z"/></svg>