<?xml version="1.0" encoding="UTF-8"?><svg xmlns="http://www.w3.org/2000/svg" viewBox="0 0 180 180"><path d="M126.34 17.68c-4.2.27-8.38.87-12.55 1.38-7.08.87-14.16 1.76-21.23 2.68-8.24 1.07-16.47 2.17-24.71 3.29-3.97.54-7.84 1.07-11.84 1.62-1.83.25-3.65.5-5.48.76l-2.36.33c-.46.06-.91.13-1.37.19.24-.03.65-.09-.45.06-.29.04-.59.09-.88.13-5.03.73-10.07 1.44-15.08 2.28-.71.12-1.51.9-1.62 1.62-3.51 22.82 1.11 45.52 7.08 67.52 3 11.04 5.96 22.11 10.03 32.82 1.01 2.67 1.94 5.46 3.17 8.04.82 1.72 2.37 2.91 4.16 3.47 3.45 1.06 7.16-.11 10.59-.62 4.96-.74 10.99-1.42 16.34-2.32 5.71-.96 11.41-2.06 17.07-3.26 11.54-2.44 22.98-5.28 34.38-8.29 5.72-1.51 11.42-3.05 17.13-4.61 2.69-.73 5.4-1.4 8.06-2.21 2.03-.62 4.16-1.58 5.4-3.39 1.43-2.1.98-4.62-.42-6.61s-2.94-3.94-4.29-6.01c-2.8-4.3-5.19-8.86-7.21-13.58-8.71-20.37-10.19-42.84-10.8-64.72-.08-2.93-.15-5.87-.23-8.8-.07-2.66-4.18-2.67-4.14 0 .34 21.68.91 43.84 7.35 64.72 2.93 9.51 7.06 18.73 12.75 26.92.69 1 1.41 1.97 2.15 2.94.42.55 1.37 1.5 1.32 2.25-.09 1.26-2.57 1.85-3.52 2.12-5.45 1.55-10.93 3-16.4 4.48-21.77 5.88-43.69 11.45-66.02 14.8-4.44.67-8.89 1.19-13.31 1.97-1.42.25-3.11.49-4.43.25-1.63-.3-2.08-1.16-2.71-2.77-4.03-10.29-6.94-21.01-9.92-31.63-5.88-20.94-11.38-42.34-9.96-64.28.17-2.66.45-5.32.84-7.96l-1.62 1.62c11.31-1.97 22.69-3.56 34.04-5.27 15.42-2.32 30.84-4.61 46.29-6.71 4.58-.62 9.58-1.36 14.39-1.69 2.24-.16 2.27-3.66 0-3.52Z"/><path d="M137.5 40.38c-27.57 4.27-55.14 8.55-82.7 12.88-3.85.6-7.71 1.21-11.56 1.81-1.97.31-3.94.62-5.9.93-1.66.26-3.92.83-5.34.81l1.05.28-.17-.12 1.01 1.77v-.12c-.32.58-.66 1.17-.99 1.75l-.22.11c-.83-.63-1.65-1.26-2.48-1.89v.1c-.03 2.52 3.9 2.53 3.92 0v-.1c0-.64-.37-1.41-.97-1.69-1.05-.5-2.53-.39-3.06.82-.28.63-.46 1.45 0 2.07 1.22 1.65 2.68 1.26 4.46.97 1.8-.29 3.6-.58 5.41-.87l10.81-1.74c7.05-1.13 14.09-2.26 21.14-3.4 14.22-2.28 28.44-4.53 42.64-6.91 7.96-1.34 15.89-2.85 23.8-4.45 1.99-.4 1.11-3.3-.83-3Zm-79.96-1.72c5.36-3.63 8.99-10.87 6.55-17.25-1.11-2.91-3.37-5.39-6.53-6-3.09-.6-6.18.48-8.2 2.92a12.45 12.45 0 0 0-2.35 4.52c-.44 1.56-.79 3.63-.21 5.19.31.85 1.01 1.49 1.95 1.49.82 0 1.81-.62 1.95-1.49.21-1.27.12-2.18.33-3.22.24-1.17.48-1.85 1.04-2.8.95-1.6 2.23-2.48 4.01-2.43 1.88.04 3.16 1.31 4.07 3.08s1.02 3.94.56 5.82c-.76 3.1-2.56 5.77-4.93 7.88-1.22 1.09.39 3.21 1.76 2.28Z"/><path d="M53.07 36.57c.23 1.22 1.13 2.19 2.1 2.89.45.32.97.55 1.49.72.33.11.67.15 1.02.19.51.06 1 0 1.46-.25.55-.3.89-.94.89-1.56 0-.58-.33-1.31-.89-1.56-.15-.07-.32-.16-.48-.2s-.37-.06-.54-.06h-.23c-.15 0-.29-.02-.44-.04l.48.06a4 4 0 0 1-.95-.27l.42.18c-.3-.13-.59-.3-.85-.5l.35.27q-.375-.285-.66-.66l.26.34c-.19-.24-.37-.51-.52-.78-.4-.69-1.27-.96-1.99-.65-.31.13-.6.35-.76.65-.21.4-.24.79-.16 1.23m61.78-5.31c5.36-3.63 8.99-10.87 6.55-17.25-1.11-2.91-3.37-5.39-6.53-6-3.09-.6-6.18.48-8.2 2.92a12.45 12.45 0 0 0-2.35 4.52c-.44 1.56-.79 3.63-.21 5.19.31.85 1.01 1.49 1.95 1.49.82 0 1.81-.62 1.95-1.49.21-1.27.12-2.18.33-3.22.24-1.17.48-1.85 1.04-2.8.95-1.6 2.23-2.48 4.01-2.43 1.88.04 3.16 1.31 4.07 3.08.87 1.7 1.02 3.94.56 5.82-.76 3.1-2.56 5.77-4.93 7.88-1.22 1.09.39 3.21 1.76 2.28Z"/><path d="M110.38 29.17c.23 1.22 1.13 2.19 2.1 2.89.45.32.97.55 1.49.72.33.11.67.15 1.02.19.51.06 1 0 1.46-.25.55-.3.89-.94.89-1.56 0-.58-.33-1.31-.89-1.56-.15-.07-.32-.16-.48-.2s-.37-.06-.54-.06h-.23c-.15 0-.29-.02-.44-.04l.48.06a4 4 0 0 1-.95-.27l.42.18c-.3-.13-.59-.3-.85-.5l.35.27q-.375-.285-.66-.66l.26.34c-.19-.24-.37-.51-.52-.78-.4-.69-1.27-.96-1.99-.65-.31.13-.6.35-.76.65-.21.4-.24.79-.16 1.23m-81.83 2.86c-1.11 7.82-2.69 15.59-3.54 23.45-.87 8.02-.7 16.09-.35 24.14.69 15.77 2.08 31.46 5.21 46.95 1.52 7.53 3.5 14.98 5.83 22.3.9 2.83 1.97 5.79 4.52 7.56 3.06 2.12 7.04 1.38 10.46.91 15.55-2.11 31.02-4.93 46.36-8.24 8.46-1.83 16.83-3.92 25.24-5.93 6.62-1.59 13.95-2.46 19.11-7.36.55-.52.74-1.35.55-2.07-.56-2.16-1.09-4.33-1.62-6.49-.65-2.66-4.79-1.53-4.11 1.13.55 2.16 1.11 4.32 1.63 6.49.18-.69.37-1.38.55-2.07-4.28 3.93-10.34 4.77-15.8 6.01-7.16 1.63-14.23 3.6-21.39 5.21-14.71 3.31-29.58 5.93-44.47 8.24-3.6.56-7.21 1.23-10.83 1.68-1.4.17-2.83.11-3.93-.88-.98-.88-1.53-2.18-1.96-3.39-2.44-6.89-4.11-14.17-5.61-21.31-3.11-14.76-4.81-29.71-5.49-44.78-.38-8.55-.88-17.13-.2-25.67.67-8.52 2.43-16.91 2.95-25.44.11-1.75-2.85-2.19-3.1-.42Z"/><path d="M30.07 32.45c-4.25 13.41-7.4 28.04-8.66 42.05-2.67 29.58-5.16 60.44 5.76 88.06 1.13 2.86 2.67 5.93 5.55 7 1.63.61 3.43.46 5.16.29 27.53-2.71 54.4-9.87 81.13-17 2.37-.63 5.26-1.93 5.18-4.38-.07-1.93-2.12-3.46-1.93-5.38-6.12 1.78-12.24 3.55-18.36 5.33-5.47 1.59-10.95 3.18-16.56 4.19-6.23 1.13-12.56 1.55-18.87 1.96-7.98.52-15.95 1.04-23.93 1.57-.89.06-1.8.11-2.64-.18-1.08-.38-1.87-1.27-2.59-2.16-6.64-8.17-10.64-18.45-11.27-28.96-.23-3.82-.02-7.67-.55-11.45-.61-4.38-2.17-8.58-2.76-12.96-.51-3.84-.26-7.74-.13-11.61.3-9.19 2.5-39.46 4.74-50.25"/><path d="M28.62 32.05c-2.7 7.98-4.94 16.13-6.52 24.41-1.55 8.14-2.43 16.34-3.15 24.59-1.42 16.22-2.56 32.54-1.11 48.8.72 8.05 2.04 16.08 4.26 23.86 1.07 3.73 2.3 7.45 3.85 11 1.34 3.06 3.46 6.05 6.86 6.94 1.98.52 4.02.28 6.03.08 2.17-.22 4.34-.47 6.5-.69 4.36-.45 8.7-1.15 13.02-1.88 8.53-1.44 17-3.22 25.42-5.18 8.52-1.98 16.99-4.16 25.44-6.39l6.34-1.68c1.8-.48 3.66-.86 5.41-1.52 3.06-1.14 6.15-3.62 5.04-7.29-.39-1.3-1.76-2.64-1.71-4s-1.36-2.36-2.61-1.99c-15.26 4.43-30.49 9.78-46.44 10.85-8.08.54-16.16 1.04-24.25 1.56l-5.98.39c-.79.05-1.81.26-2.55-.07-.66-.3-1.18-1.05-1.62-1.59-2.1-2.56-3.88-5.42-5.39-8.36-3.09-6.03-4.99-12.75-5.34-19.52-.21-4.01-.05-8.02-.67-12.01-.58-3.75-1.81-7.36-2.47-11.09-.97-5.49-.38-11.28-.08-16.83.25-4.6.57-9.19.92-13.78.46-5.96.98-11.92 1.62-17.87.5-4.62.96-9.11 1.9-13.67.54-2.61-3.47-3.73-4.01-1.1-1.96 9.53-2.63 19.39-3.43 29.07-.41 5.02-.78 10.04-1.08 15.06-.31 5.1-.7 10.28-.46 15.38.2 4.11 1.26 8.03 2.21 12.01s1.14 7.72 1.22 11.72c.14 7.39 1.36 14.6 4.27 21.42 1.4 3.29 3.13 6.44 5.18 9.38 2.11 3.02 4.32 6.37 8.4 6.33 4.11-.04 8.26-.53 12.36-.8l12.7-.84c8.21-.54 16.43-1.3 24.44-3.23 8-1.93 15.87-4.44 23.78-6.73 1.96-.57 3.92-1.14 5.89-1.71l-2.61-1.99c-.06 1.73.83 3.02 1.58 4.49.51 1 .37 1.52-.57 2.15-1.29.87-2.91 1.16-4.38 1.56-1.95.52-3.91 1.04-5.87 1.56-8.06 2.14-16.13 4.23-24.24 6.18-16.05 3.84-32.38 7.25-48.83 8.84-1.63.16-3.44.4-4.95-.39-1.27-.67-2.11-1.91-2.77-3.14-1.68-3.09-2.72-6.62-3.74-9.97-2.23-7.33-3.66-14.9-4.45-22.52-1.59-15.44-.84-31.07.4-46.51.62-7.78 1.24-15.57 2.5-23.28s3-15.72 5.05-23.45c.51-1.94 1.05-3.86 1.62-5.78.55-1.88-2.29-2.63-2.91-.8Z"/><path d="M63.18 89.77c-.44-1.13-.68-2.3-.99-3.47s-1.92-1.64-2.8-.74c.39-.16.79-.32 1.18-.48.73.05.18 0-.05-.09-.3-.11-.62-.2-.92-.3-.87-.27-1.74-.53-2.6-.81-.79-.26-1.57-.52-2.35-.81a9 9 0 0 1-.55-.22c-.51-.21.19.11-.06-.02-.33-.18-.63-.38-.92-.62-3.19-2.56-4.88-6.51-3.58-10.51 1.47-4.5 5.94-6.68 10.24-7.69 5.54-1.3 11.73-.5 15.78 3.81 1.88 2 3.53 5.25 2.69 8.05-.45 1.49-1.6 2.64-2.71 3.68-1.36 1.27-2.83 2.38-4.4 3.39-.52.33-.93.91-.89 1.56.09 1.65 1.06 2.99 1.39 4.59 0 0 .19.89.16.88.05 0 .37-.44.14-.48-.32-.06-1.03.34-1.34.43-2.06.64-4.62 1.71-6.77 1.51-2.34-.22-2.33 3.44 0 3.66 1.35.12 2.82-.29 4.12-.62 1.52-.38 3.02-.84 4.51-1.34 1.59-.54 2.97-1.39 2.93-3.27-.02-.84-.26-1.76-.47-2.57-.24-.93-1.02-1.83-1.05-2.79l-.89 1.56c3.02-1.87 6.47-4.26 8.23-7.43 1.85-3.33 1.18-7.36-.64-10.55-3.58-6.29-11.05-9.05-18.01-8.36-6.2.62-13.03 3.16-15.9 9.12-2.44 5.07-1.32 10.89 2.61 14.88.9.91 1.94 1.87 3.12 2.4 1.1.49 2.27.84 3.42 1.19 1.46.45 5.16 2.17 6.24.3h-2.89c.52.95 1.13 1.88 1.54 2.88.62 1.53 3.13.88 2.52-.69Z"/><path d="M63.12 93.25c-.62-1.89-1.25-3.78-1.87-5.68-.08-.25-.17-.52-.12-.79.12-.57.77-.81 1.34-.94 2.33-.55 4.71-.88 7.09-.99.21 0 .43-.01.6.1.16.1.24.27.32.44.66 1.38 1.17 2.82 1.53 4.3a18.2 18.2 0 0 1-6.59 2.23"/><path d="M64.39 92.9c-.07-.43-.08-.85-.18-1.28s-.21-.83-.32-1.24c-.23-.82-.46-1.64-.71-2.46-.06-.2-.13-.41-.19-.61-.04-.13-.08-.26-.12-.4v.07c.22-.02-.28.64-.35.7.18-.09.17-.09-.02 0l.14-.04c.82-.14 1.64-.36 2.46-.5.87-.15 1.35-.21 2.23-.3.42-.04.84-.08 1.26-.1.21-.01.42-.03.63-.04.46-.02.74.14-.03-.31-.47-.39-.62-.45-.44-.17.06.14.08.17.04.08-.04-.11-.03-.06.06.14.04.09.07.18.11.28.14.37.29.74.43 1.11.29.78.5 1.58.75 2.37l.89-2.18c-.49.32-1.02.57-1.55.82 0 0-.44.2-.31.14s-.32.13-.32.12c-.27.11-.55.2-.82.3-.55.18-1.12.34-1.69.47-.78.18-1.51.28-2.11.88-.73.74-.6 2.07.33 2.59 1.32.74 3.19.08 4.55-.35s2.58-1.04 3.85-1.64c.82-.39 1.02-1.38.89-2.18-.18-1.04-.54-2.07-.93-3.04-.47-1.15-.98-2.58-2.28-2.99-1-.32-2.18-.08-3.2.02-1.14.12-2.28.28-3.41.49-1.02.19-2.11.36-3.05.81-1.23.59-1.85 1.84-1.55 3.17.23 1.02.7 2.02 1.07 3 .22.6.45 1.19.7 1.78.22.53.5.98.76 1.49.3.58 1.08.79 1.65.54.65-.28.87-.89.76-1.56Z"/><path d="M66.08 83.13c-.48-2.32-1.22-4.58-2.3-6.69-1-1.96-2.46-4.24-4.98-4.1-2.57.15-4.33 2.5-3.88 5.01.37 2.05 2.37 3.28 4.25 3.74 2.24.55 4.68.48 6.9-.11 2.07-.55 4.25-1.57 5.6-3.28 1.39-1.76 1.75-4.47.15-6.23-1.45-1.61-4.09-1.71-5.88-.63-2.21 1.34-3.06 4.15-2.8 6.6.29 2.81 1.37 5.54 2.2 8.22.65 2.12 3.99 1.21 3.33-.92-.54-1.76-1.11-3.51-1.62-5.28-.42-1.45-.78-3.03-.26-4.44.17-.45.43-.89.83-1.2.3-.23.73-.35 1.19-.3-.04 0 .4.12.31.08.14.06.26.14.38.3.27.37.29.91.12 1.38-.44 1.21-1.79 1.92-2.91 2.38-1.51.62-3.14.89-4.77.84-1.18-.04-2.6-.21-3.56-.96-.63-.49-.79-1.55.1-1.74.56-.12 1 .22 1.39.71.49.63.87 1.38 1.24 2.09.9 1.71 1.66 3.44 2.22 5.29s3.13 1.03 2.76-.76Zm23.13-20.27c2.1 1.21 4.16 2.47 6.18 3.8 1 .65 1.98 1.32 2.97 1.99 1.06.73 2.09 1.61 3.3 2.07.7.27 1.58-.18 1.94-.79.4-.69.23-1.5-.27-2.08-.81-.94-2.12-1.61-3.16-2.28-1-.64-2.01-1.28-3.02-1.9q-3.09-1.89-6.27-3.66c-.78-.43-1.8-.19-2.26.59s-.18 1.81.59 2.26"/><path d="M94.06 69.31c0-.24-.01-.47.02-.71-.02.19 0 .05.02-.05.04-.14.07-.28.11-.42.04-.11.07-.22.12-.34.1-.28-.1.2.03-.07.1-.22.22-.43.34-.64.26-.45.54-.88.84-1.3.14-.2.29-.4.44-.59.04-.05.17-.23.06-.08.1-.12.19-.25.29-.37 1.31-1.64 2.79-3.12 4.29-4.59.66-.65.7-1.86 0-2.51-.77-.71-1.73-.62-2.51 0-1.82 1.46-3.37 3.22-4.79 5.07s-2.92 4.08-2.71 6.59c.07.9.74 1.77 1.73 1.73.91-.04 1.76-.76 1.73-1.73Zm15.31-11.28c2.05 1.2 4.07 2.44 6.08 3.7.97.61 1.94 1.24 2.89 1.87 1.02.68 2.01 1.42 3.11 1.94.81.38 1.75.29 2.32-.46.52-.69.52-1.74-.14-2.36-1.79-1.68-4.12-2.88-6.23-4.1s-4.23-2.32-6.4-3.37c-.78-.38-1.74-.21-2.2.58s-.18 1.76.58 2.2Z"/><path d="M112.17 65.88c.63-.93 1.28-1.84 1.94-2.75.34-.47.68-.93 1.03-1.4.16-.22.33-.43.49-.65.08-.11.17-.22.25-.32l.12-.16c-.06.08-.05.07.02-.03.69-.88 1.39-1.76 2.1-2.63.82-1 1.9-1.98 2.35-3.21.24-.66-.12-1.47-.64-1.87-.57-.44-1.35-.49-1.98-.14-1.03.58-1.78 1.82-2.5 2.73-.77.98-1.53 1.96-2.28 2.96-1.38 1.85-2.72 3.73-4.01 5.65-.53.78-.18 2.02.64 2.46.91.48 1.89.19 2.46-.64ZM94.91 82.33c.57.19 1.11.49 1.69.69.5.17 1 .35 1.49.53 1.1.4 2.19.83 3.28 1.26.93.37 1.74.69 2.66 1.15.38.19.77.41 1.1.68-.32-.26.17.21.22.27.15.16.32.29.48.44.51.48 1.25.65 1.9.36.57-.25 1.16-.91 1.07-1.59-.11-.83-.32-1.48-.91-2.11a5.6 5.6 0 0 0-1.4-1.07c-1.07-.59-2.26-.99-3.41-1.41a56 56 0 0 0-5.39-1.68c-.67-.17-1.34-.23-2.01-.37-1.86-.4-2.59 2.23-.79 2.85Z"/><path d="M97.86 88.74c.26-.32.57-.57.86-.87.27-.28.54-.56.82-.83.57-.56 1.15-1.11 1.75-1.64s1.19-1.01 1.79-1.5 1.23-1.06 1.85-1.59.61-1.6.13-2.22c-.52-.67-1.43-.85-2.18-.43-.83.46-1.59.95-2.34 1.53-.63.49-1.22 1.02-1.8 1.57s-1.14 1.12-1.66 1.72c-.27.31-.54.62-.79.94-.18.22-.36.45-.51.7-.11.17-.12.16.02.02-.09.08-.16.19-.24.28-.28.34-.48.69-.48 1.15 0 .4.18.88.48 1.15.6.55 1.73.7 2.31 0Zm17.05-9.68c1.96.66 3.55 1.34 5.41 2.31a41 41 0 0 1 2.58 1.48c.89.56 1.72 1.25 2.64 1.76.79.45 1.79.25 2.34-.47s.53-1.77-.14-2.38c-.83-.77-1.87-1.36-2.83-1.95s-1.89-1.09-2.86-1.58c-2-1-4.08-1.84-6.2-2.51-.86-.27-1.92.32-2.12 1.21-.22.96.29 1.81 1.21 2.12Z"/><path d="M119.11 83.63c1.83-1.51 3.66-3.03 5.5-4.54.79-.65 1.64-1.45 1.28-2.6-.28-.91-1.28-1.48-2.21-1.22-.51.15-.93.5-1.34.83-.92.75-1.8 1.55-2.7 2.32-1.03.88-2.05 1.77-3.08 2.65-.72.62-.68 1.93 0 2.55.34.32.8.55 1.28.53s.89-.21 1.28-.53Zm-57.89 24.89c1.06 1.15 2.33 2.15 3.72 2.89 1.5.8 3.8 1.98 5.35.78.8-.62.92-1.61 1.2-2.51.11-.35.24-.7.36-1.04.14-.37-.05.08.1-.25.09-.2.18-.39.27-.58a16.3 16.3 0 0 1 1.48-2.43c.24-.32-.07.07.16-.21.12-.14.24-.28.35-.43.13-.17.27-.34.4-.52-.09.13-.07.1.06-.07.59-.72.76-1.82 0-2.52s-1.78-.67-2.52 0c-2.11 1.93-3.54 4.79-4.25 7.53-.04.15-.07.3-.11.45-.19.74-.06-.27.67-.38.22-.03.69.05.22-.07l-.51-.15c-.31-.1-.62-.21-.92-.34.26.11-.21-.1-.23-.11-.13-.06-.27-.13-.4-.2-1.27-.66-2.01-1.24-2.98-2.25-.64-.67-1.78-.64-2.42 0-.68.68-.63 1.74 0 2.42Zm21.83-2.81q2.1 1.605 4.32 3.06c.91.6 1.87 1.37 3.04 1.09 1.31-.31 1.7-1.48 1.82-2.66.08-.84.06-1.68.1-2.53.01-.25.03-.5.06-.74-.04.32.04-.19.05-.25.07-.35.18-.68.3-1.01-.14.4.01-.02.06-.11.09-.18.19-.36.29-.53.08-.13.17-.25.25-.38.12-.17.12-.16-.02.01.06-.08.13-.15.19-.23.23-.26.49-.5.76-.73-.41.35.45-.35.36-.28.15-.13.28-.28.42-.41 1.23-1.18-.03-3.48-1.7-2.92-1.54.51-2.75 1.8-3.54 3.2s-1.11 3.02-1.15 4.66c-.02.78-.01 1.56-.08 2.34q.06-.33 0-.06l1.55-.88c.21.08.2.07-.01-.03-.08-.04-.17-.09-.25-.14-.36-.2-.72-.39-1.07-.6-1.42-.81-2.81-1.66-4.17-2.56-.68-.45-1.74-.16-2.12.55-.43.82-.13 1.59.55 2.12Zm18.12-3.76c1.06 1.09 2.08 2.27 3.24 3.25.93.78 2.08 1.03 3.21.5.85-.4 1.39-1.17 1.7-2.04.23-.65.29-1.36.43-2.03.15-.73.33-1.45.54-2.17.42-1.43 1.01-2.79 1.43-4.22.24-.81-.22-1.67-.98-1.99-.79-.34-1.64-.02-2.11.69-.75 1.14-1.21 2.43-1.62 3.72-.38 1.2-.69 2.43-.91 3.67-.05.27-.09.55-.14.82-.03.16-.08.31-.12.47.08-.16.08-.18.02-.07-.07.13-.05.1.09-.08-.22.25.18-.1 0 .01-.14.09.26-.1.36-.1.52.19.67.22.46.1-.11-.07-.08-.05.08.07-.11-.11-.23-.22-.34-.33-.95-.92-1.91-1.83-2.87-2.75-.66-.63-1.83-.71-2.47 0s-.68 1.77 0 2.47Zm17.54-4.5c.95.58 1.9 1.16 2.84 1.75 1.13.69 2.23 1.37 3.61 1.02 1.07-.27 1.89-1.08 2.55-1.91.41-.51.8-1.02 1.19-1.54.45-.61 1.07-1.27.96-2.09-.07-.58-.22-1.02-.7-1.39-.44-.34-1-.47-1.55-.32s-.96.48-1.29.97c-.12.18-.23.37-.35.56-.27.42-.54.83-.82 1.23-.14.2-.29.4-.43.6-.16.24.02-.06.05-.05-.01 0-.15.18-.17.2-.13.15-.27.28-.41.41-.15.15.25-.13.05-.05-.03.02-.07.04-.11.06-.12.06-.07.05.14-.05-.01 0-.22.05-.23.06.05-.04.36-.05.09-.04h.18c-.16-.04-.18-.05-.06 0 .19.08-.08-.05-.12-.07-.41-.22-.8-.45-1.2-.68-.87-.49-1.74-.98-2.61-1.48-.74-.42-1.81-.2-2.22.58s-.19 1.75.58 2.22ZM66.2 123.47c2 .57 3.95 1.28 5.87 2.09.95.4 1.9.83 2.84 1.26 1.06.49 2.12 1.11 3.26 1.37 1.43.33 2.78-1.54 1.53-2.62-.9-.78-1.96-1.26-3.03-1.74s-2.18-.94-3.29-1.35c-2.08-.77-4.2-1.43-6.34-2.04-1.95-.56-2.78 2.47-.83 3.03Z"/><path d="M71.01 128.06c1.22-1.02 2.41-2.1 3.51-3.24 1.18-1.22 2.32-2.51 3.16-3.98.42-.73.23-1.66-.43-2.18-.62-.48-1.67-.51-2.22.13-.32.38-.65.75-.95 1.16l-.33.45c-.01.02-.26.34-.09.12s-.06.07-.09.12c-.18.23-.36.47-.54.7-.13.18-.11.16 0 0-.06.09-.13.16-.19.24-.25.31-.5.61-.75.91-1.02 1.2-2.11 2.33-3.31 3.36-.62.54-.59 1.67 0 2.22.67.62 1.55.57 2.22 0Zm17.13-9.16c1.48.55 2.96 1.12 4.42 1.72.37.15.73.3 1.1.45.16.07.31.13.47.2.19.08.21.09.06.02.1.04.21.09.31.13.79.34 1.61.81 2.44 1.02s1.68-.2 2.01-.99.02-1.66-.7-2.13-1.64-.74-2.42-1.07-1.51-.63-2.27-.93c-1.49-.6-3-1.17-4.51-1.73-.84-.31-1.91.34-2.1 1.19-.22.97.3 1.77 1.19 2.1Z"/><path d="M91.29 122.42c1.94-1.99 3.97-3.93 5.77-6.06.3-.36.5-.74.5-1.22 0-.42-.19-.93-.5-1.22-.71-.65-1.72-.65-2.43 0-2.05 1.89-3.89 4-5.79 6.03-.62.66-.71 1.81 0 2.45s1.78.69 2.45 0Zm13.59-8.8c1.58 1.22 3.37 2.22 5.14 3.13 1.02.53 2.2 1.31 3.39.95 1.24-.38 1.58-1.56 1.59-2.72 0-.1.06-.64-.01-.21.02-.15.06-.29.09-.44.05-.19.12-.38.19-.56-.15.38.05-.07.07-.12.34-.65.77-1.24 1.21-1.82.95-1.24 2.06-2.5 2.39-4.08.18-.85-.18-1.73-1.01-2.06-.76-.31-1.79-.08-2.19.72-.59 1.17-1.28 2.23-2.06 3.28s-1.6 2.23-1.98 3.55c-.18.63-.32 1.43-.22 2.08.11.71 1.11-1.38 1.46-1.02-.1-.1-.46-.21-.58-.27-.39-.19-.77-.38-1.16-.57-1.6-.82-3.1-1.78-4.64-2.7-.77-.46-1.82-.17-2.27.59-.5.85-.12 1.72.59 2.27m21.43-5.06c1.37.65 2.73 1.3 4.1 1.94 1.45.69 2.88 1.44 4.42 1.9.77.23 1.6-.22 1.91-.94.32-.77.01-1.56-.66-2.02-1.23-.83-2.61-1.41-3.95-2.04s-2.69-1.27-4.03-1.9c-.83-.39-1.94-.26-2.42.63-.42.79-.26 1.99.63 2.42Z"/><path d="M130.5 110.11c.54-.7 1.07-1.4 1.61-2.11.13-.21.21-.44.22-.69.05-.25.04-.49-.03-.74l-.19-.44a1.5 1.5 0 0 0-.47-.52c-.12-.11-.25-.19-.41-.24-.22-.12-.46-.17-.71-.16l-.49.07c-.31.09-.58.25-.81.47-.57.68-1.14 1.35-1.7 2.03-.24.24-.4.52-.49.84l-.07.51c0 .34.09.66.26.96.12.22.28.4.49.53.18.17.4.28.65.34.25.08.51.09.76.03.25-.01.49-.09.71-.23.29-.17.51-.4.68-.68ZM30.05 51.74c27.56-4.28 55.11-8.52 82.78-12.03 7.76-.98 15.54-1.81 23.33-2.57 2.45-.24 2.03-3.71-.45-3.36-13.9 1.97-27.85 3.45-41.77 5.25-13.75 1.78-27.48 3.73-41.18 5.89-7.84 1.24-15.68 2.53-23.48 4.02-1.86.35-1.04 3.08.77 2.8"/></svg>