<?xml version="1.0" encoding="UTF-8"?><svg xmlns="http://www.w3.org/2000/svg" viewBox="0 0 180 180"><path d="M137.87 98.39c-5 1.81-9.93 3.76-14.87 5.73-2.43.97-4.86 1.96-7.26 2.99-2.08.89-4.18 1.94-5.72 3.65-3.16 3.51-3.68 8.79-4.16 13.29-.27 2.46-.5 5.03-.29 7.51.19 2.3 1.02 4.53 3.11 5.74 4.72 2.72 10.32-1.85 8.69-7.02-.6-1.9-3.85-2.27-4.23 0-.83 4.92-1.63 9.84-2.43 14.76-.68 4.2-1.9 9.43 1.82 12.63 1.5 1.29 3.56 2.04 5.52 1.44s3.25-2.1 4.17-3.83c2.19-4.13 3.37-8.72 3.89-13.34H122c.06 1.87-.81 3.53-1.32 5.28-.44 1.51-.6 3.12-.27 4.67.72 3.36 4.04 5.05 7.25 4.17 5.85-1.61 8.59-8.92 8.61-14.45l-3.97.54c.16.63-.5 2.29-.82 3.18-.45 1.25-.94 2.49-.97 3.84-.06 2.75 1.9 4.63 4.55 4.86 2.2.19 4.6-.62 6.32-1.97 3.13-2.45 3.59-6.52 4.18-10.17l-4.05-.55c-.35 2.63-1.06 5.23-2.06 7.69-.41 1 .45 2.27 1.42 2.51 6.59 1.61 11.88-3.04 13.93-9 2.26-6.59 2.39-13.8 4.02-20.56.66-2.74 1.93-4.43 3.96-6.55 1.83-1.92-.96-4.7-2.91-2.91-2.35 2.17-4.15 4.51-4.99 7.62-1.07 3.92-1.55 7.97-2.12 11.98-.79 5.55-2.36 17.64-10.8 15.48.47.84.95 1.67 1.42 2.51 1.19-2.82 1.87-5.74 2.25-8.77.28-2.28-3.69-2.84-4.05-.55-.41 2.65-.46 6.23-2.7 8.12.2-.17-.29.2-.29.2-.16.1-.33.2-.5.29-.31.17-.55.27-.95.39-.68.21-1.37.33-1.94.24-.01 0-.65-.21-.49-.16-.02 0-.12-.11-.1-.05-.18-.55.02-1.3.27-2.06.71-2.11 1.87-4.41 1.29-6.69-.56-2.22-3.97-1.74-3.97.54 0 2.09-.58 4.24-1.4 6.15-.74 1.73-1.78 3.46-3.59 4.23-.64.27-1.56.5-2.18.08-.73-.5-.73-1.54-.65-2.33.25-2.7 1.82-5 1.71-7.8-.11-2.69-3.84-2.59-4.11 0-.37 3.57-1.39 7.11-2.98 10.33-.41.83-1.05 2.5-2.12 2.7-.89.16-1.77-.78-2.1-1.52-.61-1.34-.43-2.98-.23-4.39.27-1.93.62-3.86.92-5.78.63-3.94 1.26-7.89 1.87-11.83h-4.23c.29.89.04 2.01-1 2.26-1.24.3-1.96-.75-2.13-1.84-.29-1.81-.05-3.82.07-5.64.13-1.99.35-3.98.7-5.94.59-3.38 1.38-6.44 4.54-8.25 3.34-1.91 7.14-3.18 10.66-4.72 4.41-1.93 8.8-3.9 13.14-5.97 1.64-.78.48-3.58-1.25-2.96Z"/><path d="M109.6 134.54c-3.78 3-7.19 6.45-10.46 10-1.63 1.77-3.23 3.59-4.75 5.46-1.61 1.98-1.99 3.87-.8 6.2 1.84 3.6 5.73 7.79 10.1 5.2 1.88-1.11 3.27-3.12 4.66-4.74 1.63-1.89 3.36-3.77 4.77-5.83 1.33-1.96-1.77-4.41-3.31-2.56-2.45 2.95-4.65 6.15-7.38 8.86-.92.91-1.86 1.04-2.9.2-.63-.5-1.06-1.23-1.47-1.91-.26-.42-1.08-1.4-1-1.95.07-.5.89-1.15 1.21-1.52.63-.75 1.27-1.49 1.91-2.23 1.24-1.42 2.49-2.83 3.76-4.22 2.65-2.89 5.39-5.69 8.03-8.59 1.48-1.63-.71-3.68-2.36-2.36Zm25.93-38.36c1.47 7.87 8.4 12.41 14.86 16.08 3.44 1.96 7.25 3.99 11.33 4.01 3.27.01 5.18-3.04 7.14-5.26.82-.93 1.66-1.87 2.36-2.9 1.27-1.85 1.32-3.88.21-5.83-1.81-3.16-4.71-5.79-7.55-8.02-2.89-2.27-5.96-4.3-8.95-6.45-3.23-2.32-6.93-3.82-10.81-2.17-2.07.88-3.8 2.35-5.57 3.7-1.63 1.23-3.52 2.36-4.01 4.49-.83 3.64 1.95 7.59 4.57 9.81 1.54 1.3 4.29-.39 2.99-2.31-.72-1.07-1.4-2.17-2.03-3.29-.49-.87-1.1-1.92-1.12-2.92 0-.32.01-.33.15-.47.51-.53 1.16-.93 1.74-1.37 1.37-1.03 2.71-2.16 4.19-3.02 2.74-1.58 5.08-.32 7.43 1.37 2.38 1.71 4.83 3.34 7.19 5.09 2.34 1.74 4.57 3.66 6.44 5.9.47.57 1.66 1.72 1.66 2.46s-1.26 1.76-1.78 2.36c-.72.83-1.46 1.65-2.2 2.48-.46.51-1.2 1.64-1.66 1.82-.51.2-1.41-.06-1.94-.16-.88-.17-1.74-.43-2.57-.74-1.52-.55-2.96-1.3-4.38-2.05-5.76-3.06-12.67-6.68-14.59-13.45-.57-2.01-3.46-1.15-3.09.85Z"/><path d="M10 162.46c23.47.44 46.96.33 70.44.26h9.99c3.3 0 6.71.25 9.99-.12 2.22-.25 2.22-3.2 0-3.45-2.96-.33-6.02-.13-8.99-.12-2.91 0-5.83.02-8.74.02-5.83-.02-11.66-.03-17.48-.04-11.74-.02-23.48.04-35.22.11-6.66.04-13.32.06-19.98.19-2.03.04-2.03 3.12 0 3.16Zm0-8.69c22.01.44 44.05.33 66.06.26h9.22c3.13 0 6.36.25 9.47-.12 2.22-.27 2.22-3.19 0-3.45-2.79-.33-5.67-.13-8.48-.12-2.66 0-5.32.02-7.98.02-5.48-.02-10.97-.03-16.45-.04-11.05-.02-22.1.04-33.16.11-6.23.04-12.47.06-18.7.19-2.03.04-2.03 3.12 0 3.16Z"/><path d="M11.11 152.41c.06 2.48.22 4.96.48 7.43 28.54 1.25 57.12.12 85.67-1a7.96 7.96 0 0 1-3.89-3.35c-.35-.59-.66-1.28-1.3-1.55-.31-.13-.66-.14-1.01-.15l-42.28-.69c-2.88-.05-5.77-.09-8.65-.14-8.04-.13-16.43.94-24.48.81-1.26-.02-3.23.32-4.49.3"/><path d="M9.49 152.41c-.05 2.49.11 4.96.32 7.43.08 1.01.75 1.71 1.79 1.79 11.08.77 22.26.7 33.37.61 11.13-.09 22.25-.4 33.38-.79 6.3-.22 12.62-.5 18.92-.59 1.86-.03 2.92-2.89 1.02-3.76-.98-.45-1.89-1.01-2.58-1.85-.8-.97-1.18-2.2-2.29-2.92s-2.56-.6-3.83-.63c-1.58-.03-3.15-.06-4.73-.1-6.13-.12-12.27-.22-18.4-.32-6.21-.1-12.41-.18-18.62-.31-5.93-.12-11.83-.23-17.75.06-3.38.17-6.75.41-10.13.5-1.54.04-3.08 0-4.62.03-1.39.03-2.77.29-4.16.3-2.85.02-2.86 4.45 0 4.44 1.15 0 2.29-.17 3.43-.25 1.38-.1 2.77-.02 4.15-.04 2.97-.05 5.94-.22 8.91-.38 5.86-.33 11.66-.5 17.53-.43 12.06.14 24.12.42 36.18.57l5.22.06 2.49.03c.67 0 1.69-.19 2.33.03-.57-.2.19.69.38.97.37.56.79 1.1 1.26 1.58 1.05 1.08 2.29 1.8 3.68 2.36l.54-3.96c-11.1.73-22.25 1.01-33.37 1.31s-22.25.46-33.38.34c-6.31-.07-12.61-.31-18.92-.42l1.79 1.79c-.29-2.47-.45-4.95-.64-7.43-.15-2.06-3.21-2.12-3.25 0ZM59.17 78.8c-5.7.47-11.49 1.46-16.93 3.28-4.71 1.57-9.43 3.62-12.79 7.42-6.72 7.61-7.08 21.21 1.85 27.32 2.07 1.42 4.52 2.28 6.96 2.8 3.24.7 6.49 1.19 9.76.37l-3.02-2.3c.23 4 .78 8.13 2.24 11.89.73 1.88 2.12 2.98 4.14 3.21 1.85.21 3.74.22 5.6.13 3.76-.18 7.52-.84 11.1-2.01 1.78-.58 3.52-1.29 5.22-2.09 1.58-.75 3.73-1.58 4.35-3.39.69-2.02-.72-4.38-1.41-6.25l-2.52-6.84c-.55.96-1.09 1.93-1.64 2.89 4.1-1.28 8.13-2.9 11.45-5.69 3.14-2.64 5.07-6.34 5.6-10.38 1.09-8.28-3.65-16.21-11.24-19.52-4.3-1.88-9.24-2.58-13.79-1.18-2.09.64-1.82 4.11.54 3.96 6.31-.41 13.29.76 17.26 6.23 3.63 4.99 3.68 12.36-.86 16.79-2.78 2.71-6.57 4.13-10.21 5.27-1.13.35-2.1 1.66-1.64 2.89.73 1.98 1.46 3.95 2.19 5.93.39 1.06.79 2.13 1.18 3.19.15.4.28 1.01.51 1.37.16.69.31.47.47-.66l-.27.16c-.46.07-1.11.6-1.54.82-.39.2-.78.38-1.18.57-.74.34-1.49.65-2.26.93-1.84.68-3.73 1.22-5.65 1.63-1.79.38-3.6.61-5.43.71-.94.05-1.89.07-2.83.05-.87-.02-1.96-.3-2.8-.15-.1 0-.2-.02-.3-.05.41.57.52.62.32.13.02-.38-.22-.89-.29-1.25-.22-1.01-.43-2.03-.64-3.04-.42-2.05-.7-4.13-.87-6.22-.13-1.53-1.42-2.73-3.02-2.3-2.23.6-4.55.13-6.76-.34-1.77-.38-3.51-.85-5.09-1.74-3.28-1.83-5.09-5.16-5.46-8.86-.41-4.07.72-8.42 3.45-11.53s6.35-4.9 10.12-6.34c5.24-2 10.59-3.52 16.17-4.21.97-.12 1.78-.74 1.79-1.79 0-.91-.83-1.87-1.79-1.79Z"/><path d="M47.07 97.78c-1.81-.06-3.67.03-5.36.71-1.68.68-3.17 2.05-3.59 3.82-.4 1.68.27 3.58 1.65 4.63 1.56 1.18 3.69 1.23 5.64 1.07 1.76-.14 3.55-.41 5.1-1.26s2.81-2.39 2.9-4.15c.12-2.15-1.55-4.1-3.55-4.88-2-.79-4.25-.62-6.36-.19-2.08.42-4.32 1.24-5.33 3.11"/><path d="M47.54 96.1c-4.41-.74-9.76.49-11.38 5.2-.76 2.2-.17 4.63 1.29 6.39s3.77 2.45 5.99 2.53c4.16.15 9.4-.92 11.39-5.04 2.11-4.37-1.27-8.97-5.68-9.87-2.46-.5-5.12-.23-7.51.48-2.28.67-4.31 2.08-5.12 4.39-.56 1.59 1.78 2.99 2.89 1.68.81-.96 1.77-1.42 2.84-1.79 1.39-.48 2.8-.75 4.22-.79.78-.02 1.38.02 2.09.21.64.17 1.11.37 1.6.76.39.31.61.61.92 1.09.34.51-.02-.13.11.2.05.14.09.27.13.42.02.09.06.53.04.2 0 .06 0 .65.03.34-.11 1.11-.88 1.88-1.91 2.44-1.26.69-2.75.84-4.16.94-.74.05-1.49.06-2.23 0-.4-.03.23.05-.16-.01q-.3-.045-.6-.12c-.16-.04-.31-.09-.46-.13-.46-.15.05.09-.36-.16-.95-.58-1.21-1.27-1.28-2.25-.04-.63-.06.15 0-.2.02-.1.16-.6.12-.49 0 .02.37-.67.38-.69.37-.5.83-.84 1.46-1.21 1.48-.87 3.24-.91 4.9-1.09.86-.09 1.6-.59 1.71-1.51.09-.78-.38-1.77-1.25-1.91Zm21.22-2.7c-1.8.26-3.61.67-5.15 1.63-1.54.97-2.76 2.57-2.87 4.39-.11 1.73.89 3.48 2.43 4.27 1.74.89 3.84.56 5.74.07 1.71-.44 3.43-1.02 4.8-2.13s2.35-2.84 2.14-4.59c-.26-2.14-2.24-3.77-4.35-4.19s-4.3.13-6.3.92c-1.98.78-4.04 1.98-4.7 4"/><path d="M68.76 91.66c-4.22.04-9.2 2.14-10.07 6.73-.43 2.26.31 4.63 2.02 6.2 1.68 1.54 3.96 2 6.17 1.73 4.33-.52 9.53-2.45 10.83-7.08 1.28-4.59-2.76-8.26-7.05-8.61-2.59-.21-5.26.64-7.57 1.75-1.89.9-3.88 2.57-4.27 4.94-.14.85.15 1.69 1 2.04.79.32 1.72.05 2.16-.71.63-1.08 1.45-1.6 2.57-2.22.3-.16.6-.31.9-.46.2-.1.21-.1.57-.24.88-.34 1.78-.63 2.71-.8a7.3 7.3 0 0 1 1.93-.09c.29.03.61.11.9.2.14.04.28.09.41.14-.3-.13.29.17.28.16.13.07.25.15.37.23.55.35-.11-.11.18.13.13.12.26.25.39.37.03.03.26.3.08.07.17.22.32.47.43.72-.13-.3.02.12.04.19.03.1.05.21.07.31-.02-.14-.03-.14-.02.02.03 1.02-.62 2.06-1.57 2.74-1.23.88-2.66 1.27-4.13 1.62-1.29.31-2.69.61-3.88.04-.13-.06-.33-.21-.42-.3-.11-.1-.21-.21-.32-.32.06.06.19.31-.07-.09-.08-.13-.15-.26-.23-.39-.33-.57.03.16-.09-.2-.05-.14-.09-.29-.12-.43a4 4 0 0 1-.07-.33c.03.17.04.18.03.02 0-.19 0-.38.02-.56-.05.37.09-.25.1-.3 0-.04.14-.39.02-.11.09-.21.2-.41.32-.6.24-.39.17-.29.5-.64.11-.11.22-.22.33-.32-.01.01.47-.42.27-.26 1.35-1.09 3.11-1.42 4.74-1.89 1.87-.54 1.53-3.44-.46-3.42Zm-11.58 21.11c.59-.49 1.08-1.17 1.47-1.82.42-.69.74-1.41 1.05-2.16l-.18.43c.11-.19.19-.4.27-.61-.9.36-1.79.73-2.69 1.09 1.22.73 2.4 1.5 3.56 2.32.37.27 1.01.31 1.44.19s.9-.45 1.12-.86c.5-.95.19-1.97-.67-2.55a56 56 0 0 0-3.6-2.26c-1.02-.59-2.37-.05-2.69 1.09-.06.22-.07.45-.1.67l.06-.48c-.13.43-.28.85-.46 1.27l.18-.42q-.255.585-.54 1.14c-.09.17-.18.35-.27.52-.05.08-.1.17-.14.25-.08.15-.15.3-.2.46.1-.23.11-.26.04-.11-.16.37-.28.75-.15 1.16.1.32.27.58.54.78.63.48 1.38.36 1.97-.12Zm-8 10.66c7.67-.91 15.38-2.04 22.89-3.86 2.07-.5 1.69-4-.51-3.8-.35.03-.7.08-1.06.13-1.92.28-1.51 2.98 0 3.5.18.07.36.12.54.17v-3.73c-7.45 1.37-14.85 3.03-22.28 4.52-1.7.34-1.35 3.28.42 3.07"/><path d="M51.93 116.82c.15 1.6.36 3.18.64 4.76.13.75.27 1.5.42 2.24.18.9.26 2.21 1.21 2.63.6.26 1.37.31 1.86-.24.55-.62.59-1.23.42-2-.08-.37-.16-.74-.25-1.11-.17-.74-.33-1.48-.49-2.22q-.465-2.22-.96-4.44c-.16-.71-.92-1.13-1.59-1.04s-1.33.71-1.26 1.43Zm6.19-1.22c.15 1.6.36 3.18.64 4.76.13.75.27 1.5.42 2.24.18.9.26 2.21 1.21 2.63.6.26 1.37.31 1.86-.24.55-.62.59-1.23.42-2-.08-.37-.16-.74-.25-1.11-.17-.74-.33-1.48-.49-2.22q-.465-2.22-.96-4.44c-.16-.71-.92-1.13-1.59-1.04s-1.33.71-1.26 1.43Zm6.2-1.22c.15 1.6.36 3.18.64 4.76.13.75.27 1.5.42 2.24.18.9.26 2.21 1.21 2.63.6.26 1.37.31 1.86-.24.55-.62.59-1.23.42-2-.08-.37-.16-.74-.25-1.11-.17-.74-.33-1.48-.49-2.22q-.465-2.22-.96-4.44c-.16-.71-.92-1.13-1.59-1.04s-1.33.71-1.26 1.43Zm-26.45 10.29a67 67 0 0 0-3.92 4.01c-.61.67-1.19 1.37-1.76 2.08-.27.33-.53.67-.79 1-.2.26-.41.52-.61.79-.06.09-.13.17-.19.26q-.18.255-.03 0c.9.12 1.81.23 2.71.35-1.84-1.7-4.5-2.19-6.9-1.73s-4.97 2.11-5.39 4.61c-.25 1.45.43 2.96 1.73 3.7 1.07.6 2.29.66 3.48.65 2.48-.03 5.03-.27 7.17-1.64-1.19-.68-2.38-1.36-3.57-2.05-.23 2.13.32 4.43 1.51 6.21 1.33 2 3.78 3.93 6.23 2.4 1.29-.81 1.82-2.32 1.45-3.79-.28-1.09-.95-2.14-1.53-3.1-1.14-1.9-2.51-3.69-4.03-5.3-.88-.93-2.45-.88-3.34 0-.93.93-.86 2.4 0 3.34s1.6 1.82 2.29 2.82c.4.58.79 1.18 1.14 1.79.25.42.54 1.34.87 1.58-.14-.49.09-.95.66-1.37.33-.2.66-.22 1-.06l.04.06c-.14-.12-.26-.24-.39-.38-.28-.3-.57-.75-.8-1.23-.41-.87-.51-1.83-.38-2.98.21-1.8-2.16-2.93-3.57-2.05-1.13.71-2.26.87-3.63.92-.64.02-1.29-.02-1.93.01-.29-.02-.3-.02-.03.02-.15-.02-.29-.06-.43-.1q.21.06.36.21c.41.43.51.9.28 1.39-.04-.13.28-.35.46-.48-.26.19.46-.25.54-.29.5-.27-.22 0 .34-.13.08-.02.97-.22.57-.16 1.36-.19 2.02.08 3.06.62 1.13.59 3.07.18 3.29-1.34.09-.65.92-1.5 1.33-2.06.5-.69 1.02-1.36 1.54-2.03 1.13-1.43 2.33-2.8 3.59-4.11 1.56-1.62-.83-4.01-2.46-2.46Zm41.1-7.32c2.24.78 4.39 1.75 6.49 2.85 1.04.54 2.06 1.12 3.05 1.73.94.58 2.13 1.16 2.88 1.97l1.01-3.84c-1.79.53-2.94 1.97-3.58 3.65-.56 1.47-1.02 3.65-.19 5.09a2.89 2.89 0 0 0 3.11 1.38c1.06-.24 1.81-.99 2.37-1.88 1.04-1.64 1.51-3.65 1.54-5.58l-2.34 2.34c2.12.16 4.28-.03 6.33-.58.89-.24 1.74-.51 2.38-1.21.86-.95.97-2.34.28-3.42-1.17-1.83-3.6-1.73-5.5-1.55-2.2.21-4.47.62-6.4 1.74-2.24 1.3-.74 4.76 1.75 4.14 1.32-.33 2.6-.79 3.94-1.03.56-.1 1.12-.15 1.69-.18.32-.02.65-.02.97-.03.91 0-.4.15-.6-.91v-1.25l-.06.21.6-1.04c.21-.25.67-.24.07-.1-.25.06-.49.14-.74.2-.52.13-1.05.24-1.57.3-1.04.12-2.09.11-3.13.03-1.27-.09-2.33 1.15-2.34 2.34 0 .67-.09 1.26-.29 1.91-.08.25-.16.48-.27.71-.07.15-.15.31-.24.45q-.48.675.33-.12h1.24l-.25-.07 1.03.6.37.85.02-.24c.13-.26.02-.18.05-.35.08-.42.17-.84.32-1.24.21-.6.31-.68.9-.97.81-.4 1.22-1.45 1.1-2.29-.15-.97-.76-1.56-1.65-1.91-.46-.18-.94-.61-1.38-.86a42 42 0 0 0-1.62-.9 49 49 0 0 0-3.5-1.7c-2.35-1.04-4.78-1.88-7.25-2.6-2.17-.64-3.03 2.63-.93 3.36ZM28.96 82.51c-1.43-1.18-2.87-2.34-4.39-3.4-.74-.52-1.49-1.01-2.26-1.48-.85-.52-1.73-1.24-2.74-1.35-1.18-.13-1.99.45-2.94 1.04-.67.41-1.14.61-1.88.8-1.41.37-2.72.3-4.13-.17l1.4 3.43c-.22.32.52-.42.2-.2.14-.09.28-.17.43-.25.25-.13.3-.15.14-.06.69-.26 1.42-.36 2.14-.46 1.65-.24 3.87-.41 4.76-2.06.53-.99.24-1.88.05-2.88.05.27-.03-.54-.03-.65 0-.17 0-.34.02-.51-.04.19-.03.15.02-.14.27-1.29.7-2.03 1.67-2.86l-2.25.59c-.46-.11-.12-1.18-.4-.41s-.63 1.49-.85 2.29c-.39 1.45-.63 3.07-.46 4.57.14 1.22.94 2.27 2.27 2.27 1.25 0 2.24-1.04 2.27-2.27.02-.93.02-1.84.22-2.75.22-.98.61-1.84.96-2.78.87-2.32-.67-5.46-3.39-5.46-2.1 0-3.63 2.91-4.23 4.59-.32.9-.48 1.91-.49 2.86 0 .44.05.88.11 1.32.04.27.08.54.14.81l.06.25c.07.27.07.27-.02-.01l.32-1.17c.86-.57 1.01-.74.44-.52a11 11 0 0 1-1.49.31c-.86.13-1.74.2-2.58.43-1.68.46-3.07 1.35-4.05 2.79-.9 1.31.07 2.99 1.4 3.43 3.18 1.06 6.89.64 9.69-1.23.16-.1.31-.22.46-.33.08-.06.15-.11.24-.16q.27-.165-.06 0c-.11.08-.22.09-.34.04q-.3-.09 0 .03c.16.12.4.19.57.28.76.37 1.51.77 2.25 1.19 1.47.83 2.92 1.74 4.24 2.8.75.61 1.8.74 2.54 0 .64-.64.75-1.92 0-2.54Zm54.21-7.13c.64-1.3 1.33-2.58 2.06-3.83.35-.61.72-1.2 1.11-1.79.2-.31.41-.63.63-.94.11-.15.21-.31.32-.46.21-.29.22-.31.01-.04 1.31-.77 1.55-3.1 0-3.8a5 5 0 0 1-.8-.44c.23.16-.34-.34-.41-.41-.18-.2-.2-.23-.07-.09q-.135-.195-.24-.39c-.12-.24-.14-.27-.07-.08-.06-.14-.1-.29-.15-.43-.22-.79-.04-1.68.5-2.3h-3.18c.11.1.22.21.32.32-.15-.17-.02-.03.05.08.07.13.15.25.22.38-.16-.3.04.11.07.19.09.29.17.58.22.88 0 .04.07.46.05.28s.02.25.02.29c.14 1.7-.34 3.96 1.62 4.8 1.53.65 3.66-.37 5.17-.76.73-.19 1.47-.38 2.22-.48.17-.02.65-.06.95-.07.17 0 .4.03.57 0 .16.01.19 0 .08-.01-.22-.05-.42-.16-.59-.31l-.58-.99.05.14v-1.2l-.04.15.58-.99c.42-.42.09-.11-.12 0a11 11 0 0 1-1.58.66c-.85.29-1.73.53-2.62.69-.67.12-1.39.17-2.23.18-1.04.01-2.13-.23-3.13.13-1.72.63-2.06 2.8-.5 3.84 1.08.72 2.51.65 3.77.6 1.1-.04 2.21-.19 3.3-.39 1.07-.2 2.11-.5 3.13-.88s2.35-.82 3.13-1.6c1.26-1.26.79-3.26-.69-4.09-1.06-.6-2.46-.46-3.62-.31-2.32.29-4.47 1.19-6.76 1.56h1.19l-.2-.04.98.57-.13-.13.57.98c.07.22 0 .22.01-.03v-.47c0-.32 0-.63-.02-.95-.03-.79-.11-1.57-.25-2.35-.26-1.44-.93-2.82-2-3.85-.83-.8-2.37-.93-3.18 0-1.58 1.81-2.29 4.2-1.7 6.57.58 2.3 2.29 3.9 4.42 4.78-.51-.9-1.03-1.81-1.54-2.71-.11.53-.69 1.17-1 1.68-.41.68-.8 1.38-1.18 2.08-.76 1.43-1.4 2.9-1.98 4.4-.72 1.88 2.37 3.19 3.27 1.38Zm57.62 24.99c2.39-1.46 4.79-2.93 7.18-4.39 1.06-.65 2.13-1.28 3.14-2.01s2.36-1.63 2.92-2.76c.29-.59.25-1.29-.23-1.77-.43-.43-1.24-.6-1.77-.23s-.92.86-1.4 1.28c-.39.35-.81.67-1.24.97-1.03.72-2.11 1.36-3.17 2.03-2.31 1.44-4.62 2.87-6.93 4.31-1.63 1.01-.14 3.58 1.51 2.58Zm6.83 6.95c2.22-1.65 4.44-3.3 6.63-4.97s4.54-3.37 6.72-5.15c1.44-1.17-.48-3.69-2-2.59-2.24 1.62-4.39 3.38-6.58 5.07s-4.43 3.48-6.64 5.23c-1.36 1.07.46 3.46 1.87 2.42Zm8.15 3.74c2.07-1.32 4.07-2.73 5.99-4.27.91-.73 1.8-1.47 2.68-2.23.95-.83 2.07-1.66 2.79-2.7.93-1.31-.88-2.99-2.17-2.17-.53.34-.97.81-1.44 1.24-.44.4-.88.81-1.33 1.2-.86.78-1.74 1.53-2.63 2.27-1.74 1.44-3.5 2.86-5.31 4.21-.61.45-.92 1.22-.5 1.92.37.64 1.28.91 1.92.5ZM38.67 49.13c-2.16-2.76-4.2-5.65-6.05-8.63-.95-1.52-1.84-3.08-2.67-4.66q-.63-1.185-1.2-2.4c-.41-.86-.73-1.77-1.43-2.45-1.15-1.13-3.46-.36-3.35 1.39.12 1.88 1.43 3.78 2.33 5.41s1.9 3.3 2.94 4.89c2.07 3.16 4.43 6.12 7.05 8.84.63.65 1.74.63 2.38 0 .71-.71.56-1.66 0-2.38Zm22-7.21c-1.11-7.59-1.02-15.18-.56-22.8.07-1.08-.97-2.01-2.01-2.01-1.18 0-1.9.92-2.01 2.01-.8 7.88-.07 15.94 1.33 23.7.16.9 1.25 1.39 2.07 1.17.97-.25 1.3-1.17 1.17-2.07Zm22.23.85c1.65-3.61 3.78-7.09 5.84-10.47 1.03-1.68 2.1-3.34 3.21-4.97s2.76-3.28 3.29-5.19c.4-1.4-1.24-2.73-2.51-1.93-1.72 1.08-2.82 3.2-3.92 4.86-1.12 1.69-2.2 3.42-3.22 5.17-1 1.7-1.93 3.44-2.81 5.2-.94 1.89-1.7 3.84-2.57 5.75-.35.77-.21 1.67.56 2.13.66.4 1.78.2 2.13-.56Zm21.05 2.28c4.85-1.54 10.19-1.25 14.87.78s9.44 6.13 10.25 11.35c.37 2.4-.24 4.91-2.02 6.61-1.67 1.6-4.03 2.28-6.25 2.71-1.14.22-2.3.37-3.46.45-.35.02-.7.06-1.05.03-.14-.01-.56-.15-.67-.12 1.07-.3-.36-.07-.16-.07-.12.35-.12.43 0 .25.12-.12.25-.21.4-.28 2.13-1.36 5.23-1.76 7.69-1.66 5.62.21 11.02 4.39 11.54 10.22.2 2.24 3.45 2.3 3.53 0 .27-7.24-5.71-13.21-12.63-14.3-3.86-.61-7.74-.04-11.31 1.52-1.66.73-3.25 1.91-3.5 3.84-.28 2.08 1.19 3.93 3.1 4.61 1.68.59 3.55.29 5.27.07s3.4-.51 5.04-1.05c3.26-1.09 6.27-3.1 7.73-6.31 3.3-7.25-1.29-14.8-7.24-18.95-6.32-4.41-14.79-5.51-22.03-2.87-1.97.72-1.18 3.85.88 3.19Z"/></svg>