<?xml version="1.0" encoding="UTF-8"?><svg xmlns="http://www.w3.org/2000/svg" viewBox="0 0 180 180"><path d="M57.02 55.55c-10.38-4.01-22.15-2.84-31.68 2.86C15.65 64.2 9.47 74.35 8.02 85.46s2.52 23.22 11.2 31.07c7.73 7 17.78 10.59 27.87 12.55s21.23 2.75 31.84 3.31c14 .74 28.08-.16 41.91-2.48 10.55-1.77 21.59-3.97 31.2-8.87 9.37-4.78 16.54-12.97 18.84-23.38 1.27-5.75 1.17-11.91-1.39-17.31-2.07-4.36-5.84-7.99-10.25-9.9-8.6-3.73-18.58-2.05-27.22.69-1.96.62-3.9 1.32-5.81 2.08l3.01 3.01c2.17-6.41 1.25-13.44-1.69-19.45-2.9-5.94-7.99-10.65-13.77-13.75-12.18-6.56-28.25-7.47-40.47-.53-6.36 3.61-11.24 9.12-13.95 15.9-.48 1.2.53 2.63 1.68 2.95 1.37.38 2.47-.47 2.95-1.68 4.41-11.01 16.35-16.89 27.69-17.06s24.08 4.28 30.3 14.21c3.38 5.39 4.61 12.01 2.55 18.11-.56 1.66 1.29 3.68 3.01 3.01 7.6-3 15.98-5.55 24.21-4.55 3.59.44 7.3 1.88 10.01 4.49 3.53 3.4 5.11 7.98 5.09 12.83-.03 9.64-5.22 18.56-13.2 23.8-7.76 5.1-17.05 7.29-26.02 9.19-23.42 4.97-47.47 4.94-71.18 2.13-9.3-1.1-18.86-3.06-27.09-7.72-4.1-2.31-7.82-5.31-10.75-9.01-3.31-4.18-5.37-9.46-6.02-14.74-1.2-9.85 2.08-20.3 9.1-27.39s17.37-10.28 27.34-9.59c2.44.17 4.81.67 7.14 1.42 2.1.68 2.88-2.49.9-3.25Z"/><path d="M24.03 119.21c-3.53-.55-8.16.75-11.15 2.6-3.27 2.03-2.85 5.43-.59 8.08 3.55 4.18 9.57 5.34 14.71 6.17 7.04 1.14 14.29 1.59 21.39 2.16 28.16 2.26 54.13 2.24 82.28-.64 11.02-1.13 26.74-1.22 36.04-7.85 3.34-2.38 4.77-5.15 1.24-8.14-2.35-1.99-6.14-3.7-9.28-3.6-2.99.1-5.5 2.12-8.03 3.71-8.02 5.05-17.77 6.3-27.18 7.42-12.59 1.51-25.22 3.02-37.89 2.72-21.7-.51-41.53-1.62-63.81-12.08"/><path d="M24.49 117.51c-2.66-.43-5.35-.18-7.94.55-2.4.68-5.09 1.73-6.7 3.72-3.45 4.29.1 9.5 3.83 12.11 4.23 2.95 9.67 3.77 14.66 4.51 6.32.93 12.7 1.39 19.06 1.91 25.43 2.06 50.91 2.34 76.34.14 5.33-.46 10.65-.97 15.98-1.43 5.03-.43 10.09-.96 15.02-2.06 4.56-1.02 9.24-2.56 13.07-5.31 2.1-1.51 4.3-3.56 4.38-6.35.08-2.82-2.02-4.91-4.17-6.41s-4.71-2.59-7.3-2.96c-2.94-.43-5.58.34-8.11 1.83s-4.7 3.04-7.29 4.21-5.12 1.91-7.77 2.54c-5.61 1.34-11.35 1.97-17.07 2.65-6.46.77-12.93 1.5-19.42 1.95-11.95.83-24.06.47-35.99-.55s-22.8-3.19-33.61-7.2c-2.91-1.08-5.76-2.29-8.58-3.6-1.13-.53-2.5-.32-3.17.83-.59 1-.31 2.64.83 3.17 10.4 4.85 21.35 8.22 32.68 10 10.62 1.67 21.35 2.14 32.08 2.39 12.27.29 24.48-1.09 36.64-2.54 10.91-1.31 21.78-2.7 31.16-8.87 1.96-1.29 3.98-2.7 6.44-2.51 2.26.18 4.56 1.26 6.37 2.6.65.48 1.72 1.27 1.82 2.16.08.73-.57 1.39-1.05 1.86-1.5 1.49-3.51 2.53-5.42 3.4-8.21 3.73-17.78 4.02-26.62 4.76-11.55.96-23.05 2.06-34.65 2.42-11.83.37-23.66.22-35.48-.35-6.21-.3-12.41-.74-18.61-1.2s-11.99-.85-17.92-1.77c-4.31-.67-9.16-1.37-12.7-4.13-1.28-1-2.99-2.74-2.78-4.54.22-1.89 2.96-2.85 4.47-3.41 2.25-.84 4.61-1.31 7.01-1.05 1.95.21 2.42-3.13.47-3.45Z"/></svg>