<?xml version="1.0" encoding="UTF-8"?><svg xmlns="http://www.w3.org/2000/svg" viewBox="0 0 180 180"><path d="M70.02 70c4.22-1.72 8.24-3.77 12.09-6.2 3.46-2.19 6.96-4.56 9.38-7.93 1.1-1.53 1.86-3.29 2.11-5.16.3-2.28-.28-4.46-1.01-6.61-1.59-4.68-3.23-9.34-4.86-14.01s-2.87-9.08-4.86-13.35c-1.69-3.64-4.46-6.47-8.28-7.83-7.13-2.53-15.31.35-22.09 2.69-7.33 2.52-14.93 5.83-19.87 12.06-2.7 3.39-4.41 7.35-5.79 11.43s-2.56 8.4-3.09 12.8c-1.05 8.76.1 17.68 2.02 26.24s4.55 16.86 7.34 25.1c5.55 16.44 14.7 31.53 26.31 44.41 5.53 6.13 11.73 11.58 18.68 16.07 7.35 4.75 15.4 8.84 23.94 10.91 4.42 1.07 8.91 1.46 13.44 1.53 4.77.07 9.56-.23 14.25-1.14 8.53-1.65 16.89-5.48 23.93-10.56 3.38-2.43 6.48-5.47 7.69-9.56 1.1-3.7.53-7.72-.61-11.34s-2.95-7.26-4.62-10.81c-1.58-3.36-3.07-6.76-5.17-9.84s-4.72-5.93-8.13-7.55c-4.15-1.98-8.7-2.08-13.14-1.14-8.69 1.83-16.2 7.62-25.24 8.04-3.73.17-7-.73-10.07-2.86-2.86-1.97-5.27-4.69-7.34-7.46-4.99-6.69-8.78-14.08-11.59-21.92-1.49-4.16-2.78-8.38-4.01-12.62-.72-2.49-4.61-1.43-3.89 1.07 2.4 8.28 4.99 16.55 8.91 24.26 3.23 6.33 7.38 12.86 12.63 17.71 2.53 2.33 5.44 4.31 8.75 5.33 3.88 1.19 8.12.87 12.04.04 8.26-1.75 15.49-7.38 24.05-7.89 3.77-.22 7.38.82 10.2 3.38 2.58 2.34 4.37 5.36 5.92 8.44s3.07 6.43 4.52 9.66 2.8 6.58 3.04 10.08-1.02 6.66-3.65 9.2c-2.89 2.79-6.6 4.87-10.13 6.73-7.57 3.99-15.76 6.1-24.31 6.38-4.36.14-8.82.08-13.12-.68-4.07-.72-8.05-1.95-11.86-3.53-7.36-3.05-14.47-7.3-20.71-12.27-12.54-9.98-22.61-23.44-29.94-37.62-3.72-7.21-6.5-14.69-9.01-22.39s-5.03-16.22-6.41-24.58-1.63-16.6.44-24.62c1.94-7.5 4.68-15.21 11.09-20.01 5.82-4.36 13.19-6.8 20.13-8.73 6.23-1.73 14.47-2.91 18.39 3.57 2.21 3.66 3.29 8.1 4.7 12.11 1.56 4.44 3.09 8.88 4.67 13.3.74 2.09 1.82 4.32 2.01 6.55.14 1.68-.4 3.23-1.3 4.63-2.04 3.2-5.54 5.41-8.67 7.42-3.56 2.28-7.31 4.3-11.15 6.1-1.64.77-.46 3.65 1.25 2.96Z"/><path d="M82.96 34.75c-1.75-3.63-2.37-7.69-3.57-11.53-1.2-3.85-3.21-7.73-6.73-9.68-4.21-2.34-9.25-1.33-13.94.28-2.95-.05-11.07 2.85-15.41 5.92-.84.32-1.67.65-2.51.97l2.48-.96c-1.5 1.06-2.54 2.15-2.76 3.14-.86 3.87.14 7.9 1.36 11.67 2.38 7.4 5.6 14.56 9.99 20.97 1.6 2.33 3.45 4.63 6 5.84 3.13 1.48 6.8 1.08 10.19.38a64.7 64.7 0 0 0 19.13-7.27c.74-.43 1.49-.88 1.99-1.58.46-.64.65-1.44.74-2.23.62-5.87-4.39-10.62-6.95-15.93ZM63.54 47.17c-1.46 1.61-4.07 2-6.09 1.51-2.03-.49-3.59-2.49-3.57-4.58 0-1.01.39-1.99 1.01-2.78l-.55.36c1.47-2.16 4.38-3.09 6.95-2.59.7.14 1.4.37 1.96.81 1.99 1.57 1.92 5.47.29 7.26Zm2.25-14.7c-1.46 1.61-4.07 2-6.09 1.51-2.03-.49-3.59-2.49-3.57-4.58 0-1.01.39-1.99 1.01-2.78l-.55.36c1.47-2.16 4.38-3.09 6.95-2.59.7.14 1.4.37 1.96.81 1.99 1.57 1.92 5.47.29 7.26Zm11.86 9.55c-1.46 1.61-4.07 2-6.09 1.51-2.03-.49-3.59-2.49-3.57-4.58 0-1.01.39-1.99 1.01-2.78l-.55.36c1.47-2.16 4.38-3.09 6.95-2.59.7.14 1.4.37 1.96.81 1.99 1.57 1.92 5.47.29 7.26Z"/><path d="M84.68 33.74c-3.44-7.35-2.98-17.47-11.01-21.93-4-2.22-8.71-1.87-12.97-.7-.77.21-1.58.58-2.33.72-.69.12-1.39.15-2.08.28-1.51.29-3 .76-4.45 1.27-2.03.72-4.03 1.56-5.95 2.53-.87.44-1.72.9-2.54 1.42-1 .62-1.97 1.04-3.08 1.46-1.01.39-1.7 1.34-1.4 2.46.26.96 1.45 1.79 2.46 1.4l2.48-.96-1.54-3.66c-1.33.97-2.71 2.05-3.4 3.59s-.74 3.62-.64 5.33c.23 3.9 1.49 7.68 2.81 11.33 2.51 7 5.77 13.97 10.3 19.91 2.15 2.82 4.85 5.21 8.44 5.9s7.57-.05 11.21-.95 7.18-2.14 10.63-3.62c1.78-.77 3.52-1.62 5.22-2.54 1.48-.81 3.1-1.62 4.07-3.06 2.08-3.09.89-7.52-.58-10.59-1.6-3.36-4-6.25-5.64-9.59-1.14-2.31-4.59-.29-3.45 2.02 1.25 2.55 2.93 4.84 4.38 7.27 1.31 2.2 2.55 4.64 2.34 7.29-.1 1.28-.7 1.83-1.76 2.45a61.7 61.7 0 0 1-13.45 5.76c-3.04.9-6.24 1.77-9.42 1.85s-5.56-.94-7.65-3.21-3.65-4.96-5.13-7.58a75 75 0 0 1-4.27-8.81c-1.36-3.34-2.62-6.78-3.46-10.29-.42-1.76-.67-3.54-.57-5.35.03-.64.06-1.43.34-2 .35-.68 1.13-1.22 1.73-1.66.8-.59 1.25-1.53.82-2.5-.37-.84-1.42-1.52-2.36-1.16l-2.48.96 1.06 3.86c.97-.38 2.07-.68 2.99-1.18.7-.38 1.35-.89 2.05-1.29 1.41-.8 2.87-1.5 4.37-2.12s3.09-1.18 4.68-1.63c.64-.18 1.28-.34 1.93-.47s.62-.1 1.2-.15c1.99-.16 3.96-1.14 5.96-1.47 1.89-.31 3.88-.3 5.71.29 3.4 1.09 5.48 4.31 6.68 7.49 1.69 4.48 2.29 9.26 4.33 13.63.46.98 1.86 1.23 2.74.72 1-.59 1.18-1.75.72-2.74Z"/><path d="M62.12 45.76c-.11.12-.22.23-.34.33-.38.33.26-.14-.08.06-.24.14-.46.28-.71.4-.41.21.41-.13-.03 0-.13.04-.26.09-.39.13l-.47.12c-.07.01-.54.12-.21.05s-.22.02-.29.02c-.14 0-.28.01-.42.01-.28 0-.55-.02-.82-.04-.42-.03.45.08-.07-.02q-.195-.03-.39-.09c-.07-.02-.43-.08-.45-.14l.23.1-.24-.12c-.12-.06-.24-.13-.35-.21-.08-.05-.15-.1-.22-.15l.19.15c-.16 0-.53-.52-.63-.62-.09-.11-.06-.07.1.14l-.16-.22c-.07-.11-.14-.23-.21-.35s-.11-.26-.18-.37c.26.41.06.13.01-.03-.04-.13-.07-.26-.1-.39-.02-.09-.04-.18-.05-.27.04.29.05.35.03.2v-.5c-.01-.42-.1.34 0-.1.04-.15.07-.31.12-.46.04-.12.09-.54.03-.11.05-.31.4-.71.58-.95.51-.67.28-1.88-.31-2.42-.63-.58-1.66-.81-2.42-.31l-.55.36 2.74 2.74c.13-.18.1-.15-.07.07l.18-.21c.12-.14.25-.27.38-.39.07-.06.13-.12.2-.18q.255-.21-.09.06c.08-.12.33-.23.45-.31.15-.1.31-.18.48-.27.08-.04.16-.08.25-.12.2-.09.17-.08-.1.04.06-.09.42-.15.52-.18.18-.05.35-.1.53-.14.13-.03.42-.14.54-.1-.3.04-.34.05-.12.02.09 0 .18-.01.28-.02.32-.02.65-.01.97.01.09 0 .18.02.28.03-.3-.04-.34-.05-.12-.01.21.05.41.08.62.14.1.03.73.29.3.08.15.07.48.18.57.33-.21-.17-.25-.2-.11-.07.05.05.11.1.16.15.37.38-.14-.26.04.02.08.13.16.25.23.38.04.07.07.13.1.2.09.19.06.14-.07-.16 0 .23.18.55.23.79.02.08.03.16.04.23.03.22.03.16-.02-.17-.03.14.03.34.03.48 0 .32-.07.66-.04.97.05-.33.05-.39.02-.17-.01.08-.03.16-.05.24-.03.15-.07.31-.12.46-.04.14-.13.3-.15.44.13-.3.15-.35.06-.16-.03.07-.07.13-.1.2-.07.13-.15.25-.23.38-.18.3.33-.38-.02.02-.69.78-.83 2.07 0 2.83.76.69 2.09.84 2.83 0 2-2.26 2.3-5.69 1.03-8.38-1.51-3.19-5.79-3.79-8.85-2.83-1.86.58-3.4 1.7-4.52 3.3-.49.69-.3 1.86.31 2.42s1.66.81 2.42.31l.55-.36-2.74-2.74c-2.37 3.14-1.22 7.73 2.14 9.65 2.93 1.67 7.33 1.1 9.65-1.37.72-.76.81-2.08 0-2.83s-2.06-.81-2.83 0Zm2.25-14.7c-.11.12-.22.23-.34.33-.38.33.26-.14-.08.06-.24.14-.46.28-.71.4-.41.21.41-.13-.03 0-.13.04-.26.09-.39.13l-.47.12c-.07.01-.54.12-.21.05s-.22.02-.29.02c-.14 0-.28.01-.42.01-.28 0-.55-.02-.82-.04-.42-.03.45.08-.07-.02q-.195-.03-.39-.09c-.07-.02-.43-.08-.45-.14l.23.1-.24-.12c-.12-.06-.24-.13-.35-.21-.08-.05-.15-.1-.22-.15l.19.15c-.16 0-.53-.52-.63-.62-.09-.11-.06-.07.1.14l-.16-.22c-.07-.11-.14-.23-.21-.35s-.11-.26-.18-.37c.26.41.06.13.01-.03-.04-.13-.07-.26-.1-.39-.02-.09-.04-.18-.05-.27.04.29.05.35.03.2v-.5c-.01-.42-.1.34 0-.1.04-.15.07-.31.12-.46.04-.12.09-.54.03-.11.05-.31.4-.71.58-.95.51-.67.28-1.88-.31-2.42-.63-.58-1.66-.81-2.42-.31l-.55.36L58.31 28c.13-.18.1-.15-.07.07l.18-.21c.12-.14.25-.27.38-.39.07-.06.13-.12.2-.18q.255-.21-.09.06c.08-.12.33-.23.45-.31.15-.1.31-.18.48-.27.08-.04.16-.08.25-.12.2-.09.17-.08-.1.04.06-.09.42-.15.52-.18.18-.05.35-.1.53-.14.13-.03.42-.14.54-.1-.3.04-.34.05-.12.02.09 0 .18-.02.28-.02.32-.02.65-.01.97.01.09 0 .18.02.28.03-.3-.04-.34-.05-.12-.01.21.05.41.08.62.14.1.03.73.29.3.08.15.07.48.18.57.33-.21-.17-.25-.2-.11-.07.05.05.11.1.16.15.37.38-.14-.26.04.02.08.13.16.25.23.38.04.07.07.13.1.2.09.19.06.14-.07-.16 0 .23.18.55.23.79.02.08.03.16.04.23.03.22.03.16-.02-.17-.03.14.03.34.03.48 0 .32-.07.66-.04.97.05-.33.05-.39.02-.17-.01.08-.03.16-.05.24-.03.15-.07.31-.12.46-.04.14-.13.3-.15.44.13-.3.15-.35.06-.16-.03.07-.07.13-.1.2-.07.13-.15.25-.23.38-.18.3.33-.38-.02.02-.69.78-.83 2.07 0 2.83.76.69 2.09.84 2.83 0 2-2.26 2.3-5.69 1.03-8.38-1.51-3.19-5.79-3.79-8.85-2.83-1.86.58-3.4 1.7-4.52 3.3-.49.69-.3 1.86.31 2.42s1.66.81 2.42.31l.55-.36-2.74-2.74c-2.37 3.14-1.22 7.73 2.14 9.65 2.93 1.67 7.33 1.1 9.65-1.38.72-.76.81-2.08 0-2.83s-2.06-.81-2.83 0Z"/><path d="M76.23 40.61c-.11.12-.22.23-.34.33-.38.33.26-.14-.08.06-.24.14-.46.28-.71.4-.41.21.41-.13-.03 0-.13.04-.26.09-.39.13l-.47.12c-.07.01-.54.12-.21.05s-.22.02-.29.02c-.14 0-.28.01-.42.01-.28 0-.55-.02-.82-.04-.42-.03.45.08-.07-.02q-.195-.03-.39-.09c-.07-.02-.43-.08-.45-.14l.23.1-.24-.12c-.12-.06-.24-.13-.35-.21-.08-.05-.15-.1-.22-.15l.19.15c-.16 0-.53-.52-.63-.62-.09-.11-.06-.07.1.14l-.16-.22c-.07-.11-.14-.23-.21-.35s-.11-.26-.18-.37c.26.41.06.13.01-.03-.04-.13-.07-.26-.1-.39-.02-.09-.04-.18-.05-.27.04.29.05.35.03.2v-.5c-.01-.42-.1.34 0-.1.04-.15.07-.31.12-.46.04-.12.09-.54.03-.11.05-.31.4-.71.58-.95.51-.67.28-1.88-.31-2.42-.63-.58-1.66-.81-2.42-.31l-.55.36 2.74 2.74c.13-.18.1-.15-.07.07l.18-.21c.12-.14.25-.27.38-.39.07-.06.13-.12.2-.18q.255-.21-.09.06c.08-.12.33-.23.45-.31.15-.1.31-.18.48-.27.08-.04.16-.08.25-.12.2-.09.17-.08-.1.04.06-.09.42-.15.52-.18.18-.05.35-.1.53-.14.13-.03.42-.14.54-.1-.3.04-.34.05-.12.02.09 0 .18-.01.28-.02.32-.02.65-.01.97.01.09 0 .18.02.28.03-.3-.04-.34-.05-.12-.01.21.05.41.08.62.14.1.03.73.29.3.08.15.07.48.18.57.33-.21-.17-.25-.2-.11-.07.05.05.11.1.16.15.37.38-.14-.26.04.02.08.13.16.25.23.38.04.07.07.13.1.2.09.19.06.14-.07-.16 0 .23.18.55.23.79.02.08.03.16.04.23.03.22.03.16-.02-.17-.03.14.03.34.03.48 0 .32-.07.66-.04.97.05-.33.05-.39.02-.17-.01.08-.03.16-.05.24-.03.15-.07.31-.12.46-.04.14-.13.3-.15.44.13-.3.15-.35.06-.16-.03.07-.07.13-.1.2-.07.13-.15.25-.23.38-.18.3.33-.38-.02.02-.69.78-.83 2.07 0 2.83.76.69 2.09.84 2.83 0 2-2.26 2.3-5.69 1.03-8.38-1.51-3.19-5.79-3.79-8.85-2.83-1.86.58-3.4 1.7-4.52 3.3-.49.69-.3 1.86.31 2.42s1.66.81 2.42.31l.55-.36-2.74-2.74c-2.37 3.14-1.22 7.73 2.14 9.65 2.93 1.67 7.33 1.1 9.65-1.37.72-.76.81-2.08 0-2.83s-2.06-.81-2.83 0Zm55.95 73.16c.62-.08 1.24-.14 1.87-.2 1.08-.29 2.16-.57 3.25-.81z"/><path d="M132.18 115.77q.69-.09 1.38-.15c.34-.03.69-.05 1.03-.12.22-.05.45-.12.67-.18.86-.23 1.72-.44 2.59-.63 1.02-.23 1.72-1.47 1.4-2.46-.16-.48-.46-.95-.92-1.2-.5-.26-.99-.31-1.54-.2-1.49.3-2.99.59-4.48.89l-.65.13c-.47.09-.96.52-1.2.92-.25.43-.36 1.06-.2 1.54s.46.95.92 1.2c.5.26.99.31 1.54.2 1.49-.3 2.99-.59 4.48-.89l.65-.13-1.06-3.86c-1.09.24-2.17.52-3.25.81l.53-.07c-.63.06-1.25.13-1.87.2-.55.07-1.01.18-1.41.59-.35.35-.61.92-.59 1.41s.19 1.05.59 1.41c.36.33.9.65 1.41.59Z"/><path d="M157.9 143.48c-.59-2.38-2.1-4.4-3.48-6.42a72 72 0 0 1-7.41-13.93c-1.24-3.12-2.45-6.57-5.3-8.35-2.24-1.4-4.98-1.44-7.66-1.2a72 72 0 0 0-16.41 6.7c-2.8 1.57-5.78 3.77-6.11 6.97-.21 2.08.78 4.07 1.75 5.92 2.19 4.22 4.38 8.44 6.58 12.66 2.44 4.7 4.93 9.47 8.63 13.26 2.14 2.19 4.86 4.09 7.93 4.22 2.63.12 5.12-1.06 7.48-2.22 3.66-1.79 7.4-3.63 10.26-6.53s4.72-7.13 3.74-11.09Zm-31.85-13.86-.48.45c1.07-2.39 3.77-3.8 6.39-3.76.71.01 1.44.12 2.07.46 2.23 1.2 2.85 5.05 1.55 7.1-1.16 1.84-3.66 2.68-5.74 2.55s-3.97-1.83-4.31-3.89c-.17-1 .04-2.03.51-2.92Zm9.88 19.12c-1.16 1.84-3.66 2.68-5.74 2.55s-3.97-1.83-4.31-3.89c-.17-1 .04-2.03.51-2.92l-.48.45c1.07-2.39 3.77-3.8 6.39-3.76.71.01 1.44.12 2.07.46 2.23 1.2 2.85 5.05 1.55 7.1Zm13-7.53c-1.16 1.84-3.66 2.68-5.74 2.55s-3.97-1.83-4.31-3.89c-.17-1 .04-2.03.51-2.92l-.48.45c1.07-2.39 3.77-3.8 6.39-3.76.71.01 1.44.12 2.07.46 2.23 1.2 2.85 5.05 1.55 7.1Z"/><path d="M159.83 142.95c-.7-2.58-2.2-4.72-3.68-6.9s-2.93-4.56-4.19-6.96-2.32-4.74-3.29-7.19c-.85-2.14-1.69-4.31-3.08-6.16-3.25-4.3-8.89-5.06-13.81-3.59-5.25 1.57-10.37 3.71-15.14 6.41-4.08 2.31-7.92 5.85-6.94 10.99.52 2.73 2.18 5.26 3.45 7.7l4.08 7.86c2.43 4.67 4.79 9.4 8.14 13.49 3.14 3.84 7.53 7.29 12.78 6.63 2.95-.37 5.65-1.83 8.28-3.14s5.03-2.64 7.27-4.42c4.4-3.51 7.41-8.99 6.14-14.71-.56-2.51-4.42-1.45-3.86 1.06.91 4.07-1.62 7.91-4.62 10.42-1.64 1.37-3.54 2.44-5.44 3.43-2 1.04-4.05 2.17-6.19 2.9-2 .68-3.96.78-5.9-.14s-3.42-2.35-4.8-3.88c-2.94-3.29-5.02-7.26-7.05-11.15-2.36-4.54-4.74-9.07-7.08-13.62-.88-1.72-1.93-3.76-1.06-5.69.74-1.65 2.38-2.8 3.87-3.72 3.9-2.39 8.19-4.25 12.51-5.72 2.26-.77 4.38-1.47 6.78-1.36 1.98.09 3.77.73 5.08 2.26s2.09 3.66 2.85 5.57c.97 2.45 2.04 4.86 3.24 7.2s2.54 4.62 4 6.81 3.1 4.18 3.79 6.7 4.53 1.43 3.86-1.06Z"/><path d="m124.64 128.21-.48.45 3.14 2.42c.1-.22.21-.43.34-.64.06-.09.15-.3.24-.36-.31.21-.12.15 0 .01.16-.18.32-.35.5-.51.07-.07.18-.2.27-.24-.22.16-.24.18-.06.05l.12-.08c.2-.14.41-.26.62-.38.13-.07.26-.13.39-.2.42-.22-.29.1 0 0 .49-.16.97-.3 1.48-.4s-.45.03.05 0c.1 0 .19-.01.29-.02.3-.01.59.02.88.02.31 0-.43-.12.09.01.14.04.29.09.43.11.28.04-.33-.21.1.04.1.06.19.12.29.18.35.21-.33-.32-.05-.03.05.05.11.1.16.16.06.07.15.21.23.26-.27-.15-.21-.3-.07-.08.1.17.21.34.3.52.04.08.07.2.13.27-.12-.29-.14-.34-.07-.14l.04.12q.105.33.18.66c.02.1.04.2.06.31.08.42 0-.38-.01-.1 0 .21.03.42.03.62s-.08.49-.03.67l.04-.29c-.01.08-.03.16-.04.24l-.06.29c-.03.11-.26.67-.1.36.17-.32-.12.22-.17.31-.04.07-.11.23-.19.28.17-.22.19-.24.05-.07l-.09.1-.3.3c-.03.02-.39.29-.13.11s-.12.08-.15.09c-.1.07-.2.13-.31.19s-.21.12-.32.17c-.03.02-.46.18-.16.08s-.14.05-.17.05c-.16.05-.32.1-.49.15-.23.06-.47.1-.71.15-.3.06.51-.03.03 0-.12 0-.24.02-.35.03q-.345.015-.69 0h-.07c-.23-.02-.19-.02.11.02-.09.04-.39-.08-.48-.11-.07-.02-.3-.05-.34-.11.26.12.29.13.09.04l-.13-.06c-.13-.06-.25-.14-.37-.21-.1-.07-.49-.23-.06-.02-.23-.12-.43-.41-.62-.59-.33-.33.21.36-.04-.04a7 7 0 0 1-.23-.36c-.06-.1-.11-.21-.16-.31-.06-.14-.04-.08.06.15l-.09-.27c-.03-.09-.05-.18-.07-.27s-.04-.18-.06-.28c.03.24.04.24.02 0v-.35c.02-.24.01-.24-.02 0 .02-.12.04-.23.07-.35.03-.11.06-.23.1-.34l.12-.33c-.08.21-.08.2.02 0 .47-.93.28-2.21-.72-2.74-.91-.48-2.23-.28-2.74.72-.82 1.62-1.14 3.54-.49 5.28.56 1.5 1.57 2.76 2.94 3.59 2.5 1.53 6.07 1.14 8.44-.48 1.26-.86 2.21-2 2.7-3.46.42-1.27.4-2.65.17-3.95s-.82-2.48-1.67-3.45c-1.11-1.28-2.8-1.8-4.45-1.83-3.25-.05-6.71 1.74-8.12 4.75-.43.91-.32 1.93.52 2.58s1.89.53 2.63-.16l.48-.45c.76-.72.78-2.11 0-2.83-.82-.75-2.01-.77-2.83 0Zm9.57 19.52c-.05.08-.1.16-.16.23l.14-.18c-.02.1-.21.24-.28.31-.1.1-.21.19-.31.29-.35.31.35-.22-.05.03-.24.15-.49.31-.75.43-.06.03-.13.06-.2.09-.14.06-.09.04.14-.06-.08.08-.31.11-.41.15-.28.09-.56.16-.84.22l-.14.03c-.22.04-.19.03.11 0-.08.05-.26.03-.35.03-.28.02-.56.02-.83 0-.07 0-.14 0-.21-.01.27.04.33.05.18.02-.14-.03-.28-.06-.41-.1-.06-.02-.3-.05-.34-.11.26.12.29.13.09.04l-.13-.06c-.13-.06-.25-.14-.37-.21-.08-.05-.16-.1-.24-.16l.18.14s-.28-.24-.32-.28c-.1-.1-.2-.2-.3-.31-.32-.34.22.35-.04-.04a7 7 0 0 1-.23-.36c-.03-.05-.15-.35-.19-.38l.09.22-.09-.27c-.04-.14-.07-.27-.11-.41-.09-.35-.03.33 0-.14 0-.18 0-.35.01-.53-.02.29-.02.11.02-.08.04-.17.09-.34.14-.51.03-.08.06-.17.09-.25-.08.21-.08.2.02 0 .45-.9.3-1.95-.52-2.58s-1.89-.53-2.63.16l-.48.45 3.14 2.42c.13-.27.32-.82.58-1-.17.21-.19.24-.05.07.06-.07.13-.14.19-.21.1-.11.2-.21.3-.31.08-.07.53-.53.15-.15.13-.13.32-.23.48-.33.26-.16.6-.42.9-.48-.52.1.08-.02.2-.06.19-.06.37-.12.56-.16l.57-.12c.45-.09-.37.01.05 0s.84-.03 1.26 0c-.47-.04.26.08.35.09.22.08.23.07.02-.01.07.03.14.07.21.11.11.06.22.17.33.21-.25-.2-.3-.23-.14-.1.06.05.11.1.16.16.05.05.11.11.16.17.13.16.1.12-.1-.13.03.11.17.25.23.34.07.12.14.24.2.37.04.07.07.15.1.22-.12-.29-.14-.34-.07-.14.09.3.19.59.25.9l.03.18c.03.22.03.16-.02-.16-.04.12.03.37.04.5v.49c0 .08-.08.59 0 .22s-.03.14-.04.21q-.045.225-.12.45c-.17.52.15-.25 0 .05-.07.13-.13.26-.21.39-.54.89-.23 2.24.72 2.74s2.15.24 2.74-.72c1.43-2.34 1.22-5.78-.34-8.02-1.1-1.58-2.66-2.38-4.57-2.53-1.66-.14-3.36.28-4.84 1.02-1.57.78-2.97 2.12-3.72 3.71-.43.91-.32 1.93.52 2.58s1.89.53 2.63-.16l.48-.45-3.14-2.42c-1 1.98-1.11 4.14-.12 6.14.79 1.59 2.28 2.77 3.94 3.36 1.53.54 3.38.39 4.91-.1 1.75-.56 3.25-1.59 4.26-3.13.57-.88.2-2.25-.72-2.74-1-.53-2.12-.22-2.74.72"/><path d="M147.21 140.2c-.05.08-.1.16-.16.23l.14-.18c-.02.1-.21.24-.28.31-.1.1-.21.19-.31.29-.35.31.35-.22-.05.03-.24.15-.49.31-.75.43-.06.03-.13.06-.2.09-.14.06-.09.04.14-.06-.09.08-.31.11-.41.15-.28.09-.56.16-.84.22l-.14.03c-.22.04-.19.03.11 0-.08.05-.26.03-.35.03-.28.02-.56.02-.83 0-.07 0-.14 0-.21-.01.27.04.33.05.18.02-.14-.03-.28-.06-.41-.1-.06-.02-.3-.05-.34-.11.26.12.29.13.09.04l-.13-.06c-.13-.06-.25-.14-.37-.21-.08-.05-.16-.1-.24-.16l.18.14s-.28-.24-.32-.28c-.1-.1-.2-.2-.3-.31-.32-.34.22.35-.04-.04a7 7 0 0 1-.23-.36c-.03-.05-.15-.35-.19-.38l.09.22-.09-.27c-.04-.14-.07-.27-.11-.41-.09-.35-.03.33 0-.14 0-.18 0-.35.01-.53-.02.29-.02.11.02-.08.04-.17.09-.34.14-.51.03-.08.06-.17.09-.25-.08.21-.08.2.02 0 .45-.9.3-1.95-.52-2.58s-1.89-.53-2.63.16l-.48.45 3.14 2.42c.13-.27.32-.82.58-1-.17.21-.19.24-.05.07.06-.07.13-.14.19-.21.1-.11.2-.21.3-.31.08-.07.53-.53.15-.15.13-.13.32-.23.48-.33.26-.16.6-.42.9-.48-.52.1.08-.02.2-.06.19-.06.37-.12.56-.16l.57-.12c.45-.09-.37.01.05 0s.84-.03 1.26 0c-.47-.04.26.08.35.09.22.08.23.07.02-.01.07.03.14.07.21.11.11.06.22.17.33.21-.25-.2-.3-.23-.14-.1.06.05.11.1.16.16.05.05.11.11.16.17.13.16.1.12-.1-.13.03.11.17.25.23.34.07.12.14.24.2.37.04.07.07.15.1.22-.12-.29-.14-.34-.07-.14.09.3.19.59.25.9l.03.18c.03.22.03.16-.02-.16-.04.12.03.37.04.5v.49c0 .08-.08.59 0 .22s-.03.14-.04.21q-.045.225-.12.45c-.17.52.15-.25 0 .05-.07.13-.13.26-.21.39-.54.89-.23 2.24.72 2.74s2.15.24 2.74-.72c1.43-2.34 1.22-5.78-.34-8.02-1.1-1.58-2.66-2.38-4.57-2.53-1.66-.14-3.36.28-4.84 1.02-1.57.78-2.97 2.12-3.72 3.71-.43.91-.32 1.93.52 2.58s1.89.53 2.63-.16l.48-.45-3.14-2.42c-1 1.98-1.11 4.14-.12 6.14.79 1.59 2.28 2.77 3.94 3.36 1.53.54 3.38.39 4.91-.1 1.75-.56 3.25-1.59 4.26-3.13.57-.88.2-2.25-.72-2.74-1-.53-2.12-.22-2.74.72m-91.8-81.03c-2.08 3.79-3.59 7.87-4.29 12.15-.65 4-.37 7.98.57 11.91 1.9 7.93 6.05 15.14 9.3 22.55 3.03 6.89 6.7 13.6 11.74 19.24 2.53 2.83 5.43 5.35 8.64 7.36 3.58 2.24 7.62 3.38 11.71 4.28 9.63 2.12 19.79 1.29 29.07-1.99 2.38-.84 1.34-4.66-1.05-3.8-7.73 2.78-15.83 3.61-23.99 2.85-3.96-.37-8.04-1.16-11.65-2.89-3.22-1.55-6.1-3.81-8.63-6.33-5.02-5-8.67-11.2-11.67-17.58-1.55-3.29-2.98-6.64-4.52-9.94-1.64-3.53-3.27-7.07-4.5-10.77-1.33-3.98-2.22-8.13-1.9-12.34.35-4.51 1.82-9.12 3.73-13.2.8-1.7-1.63-3.2-2.56-1.5"/></svg>