<?xml version="1.0" encoding="UTF-8"?><svg xmlns="http://www.w3.org/2000/svg" viewBox="0 0 180 180"><path d="M139.88 47.23c-4.4-3.67-9.12-6.41-14.57-8.2s-11.09-2.7-16.77-2.76c-10.76-.11-21.66 2.87-30.39 9.28-14.78 10.86-22.56 29.59-20.47 47.76 2.34 20.34 16.75 39.46 37.13 44.34 10.82 2.59 22.72 1.68 33-2.62 9.41-3.94 17.32-10.72 23.13-19.06 2.91-4.17 5.22-8.78 6.9-13.58 1.61-4.6 2.33-9.66 2.62-14.51.31-5.01-.1-10.08-1.39-14.94-1.54-5.82-4.61-11.26-8.35-15.96-1.91-2.39-3.95-4.69-5.87-7.08-1.33-1.64-3.74.72-2.34 2.34 3.83 4.46 7.57 9.36 10.16 14.67 2.16 4.41 3.31 9.34 3.67 14.23.68 9.23-1.85 18.35-6.2 26.46-4.31 8.04-10.58 15.05-18.43 19.76-8.45 5.07-18.53 7.15-28.32 6.47-5.07-.35-10.19-1.53-14.81-3.66s-8.55-5.1-12.09-8.7c-6.29-6.38-10.76-14.32-12.82-23.03-3.74-15.83.95-33.38 12.7-44.85 6.71-6.55 15.52-10.65 24.89-11.93 10.28-1.4 20.6.57 30.06 4.64 2.31.99 4.56 2.05 6.72 3.34 1.47.88 3.25-1.28 1.87-2.43Z"/><path d="M93.63 39.84c-9.82 3.04-19.8 6.16-28.32 11.91-15.89 10.74-26.26 31.28-21.92 50.5 2.57 11.37 9.13 21.98 18.42 29.21 10.01 7.79 21.96 10.39 34.45 9.67 12.21-.7 24.43-4.22 35.18-10.04-21.2 9.65-43.17 5.04-57.3-6.49-2.56-2.09-4.96-4.43-6.77-7.19-1.4-2.14-2.44-4.5-3.38-6.88-4.4-11.12-6.9-23.31-4.87-35.1s9.12-23.09 19.96-28.16"/><path d="M93.19 38.25c-6.92 2.06-13.9 4.05-20.5 7.01-6.08 2.73-11.63 6.39-16.37 11.08C47.56 65 41.65 76.58 40.4 88.88c-1.3 12.72 3.37 25.54 11.17 35.5 4.1 5.23 9.22 9.73 15.05 12.94 5.96 3.27 12.53 5.13 19.28 5.85 15.96 1.7 32.52-2.94 46.53-10.39.92-.49 1.22-1.78.7-2.66-.58-.99-1.69-1.13-2.66-.7-17.16 7.63-37.78 6.19-53.09-4.91-3.88-2.81-7.36-6.2-9.59-10.48-2.37-4.55-4-9.62-5.27-14.57-2.46-9.6-3.05-19.9.03-29.43 2.9-8.95 8.95-16.91 17.55-21 2.36-1.12.3-4.63-2.05-3.51-8.36 3.98-14.55 11.43-18.1 19.86-4.13 9.84-4.34 20.75-2.3 31.11 1.08 5.5 2.8 10.88 4.96 16.05 2.14 5.13 5.16 9.37 9.42 12.97 7.29 6.15 16.2 10.29 25.59 11.96 11.93 2.13 23.84.31 34.81-4.7-.65-1.12-1.31-2.24-1.96-3.36-12.04 6.54-25.94 9.89-39.64 9.57-6.17-.14-12.36-1.25-18.06-3.65-5.67-2.39-10.72-6.05-14.93-10.51-7.97-8.45-13.28-20.13-13.2-31.85.07-11.29 4.86-22.34 12.23-30.79 9.71-11.13 23.51-16.32 37.21-20.74 2.02-.65 1.18-3.81-.88-3.19Z"/><path d="M107.25 91.9c-3.12-2.92-6.43-5.64-9.56-8.54-.78-.72-1.58-1.49-2.66-1.74-1.34-.3-2.63.21-3.74.93-1.91 1.25-3.8 2.81-5.26 4.57-1.88 2.28-1.23 4.61.53 6.73 1.49 1.8 3.17 3.45 4.9 5.01 3.59 3.24 7.5 6.22 11.47 8.98 2.21 1.54 4.63 1.68 6.83.04 1.94-1.44 3.69-3.21 5.43-4.89 3.47-3.35 6.76-6.9 9.84-10.62 3.1-3.75 6.01-7.66 8.68-11.73 1.42-2.16 3.27-4.45 1.26-6.87-1.64-1.98-3.55-3.8-5.31-5.67-1.05-1.12-2.26-2.4-3.97-1.93-1.35.37-2.22 1.86-3.07 2.87-1.97 2.35-3.93 4.7-5.89 7.06-3.98 4.77-7.97 9.54-11.93 14.32-.77.93-.91 2.24 0 3.15.79.79 2.37.93 3.15 0 3.3-3.94 6.58-7.89 9.86-11.84 1.59-1.91 3.17-3.82 4.76-5.74.85-1.02 1.69-2.04 2.54-3.06.42-.51.85-1.02 1.27-1.53.27-.33.65-1 1.01-1.21l-1.11.3h.37c-.37-.09-.74-.19-1.11-.29.64.37 1.17 1.15 1.68 1.68l1.8 1.89c.55.57 1.09 1.15 1.64 1.72.16.17.44.55.65.69.37.51.44.46.2-.15-.16.25-.31.5-.47.74a136 136 0 0 1-5.21 7.6c-3.72 5.03-7.84 9.76-12.27 14.17-1.04 1.03-2.09 2.05-3.16 3.05s-2.21 2.43-3.48 3.03c-1.08.51-2.38-.91-3.21-1.51a217 217 0 0 1-3.89-2.89c-2.42-1.84-4.77-3.78-6.95-5.89-1.1-1.06-2.19-2.16-3.16-3.34-.22-.27-.66-.75-.63-.93.08-.51 1.2-1.31 1.57-1.66.61-.59 1.25-1.16 1.92-1.68.35-.27 1.43-1.14 1.64-1.12-.27-.02.34.27.41.32.32.24.62.53.94.78.59.49 1.19.97 1.79 1.44 2.54 2.01 5.18 3.88 7.65 5.97 1.54 1.31 3.77-.83 2.25-2.25Z"/></svg>