<?xml version="1.0" encoding="UTF-8"?><svg xmlns="http://www.w3.org/2000/svg" viewBox="0 0 180 180"><path d="M35.42 48.34c-1.3 14.96-1.89 29.95-1.64 44.97.12 7.41.46 14.83.91 22.23.35 5.68.5 12.52 5.16 16.57 2.55 2.22 5.82 3.09 9.07 3.7 3.52.66 7.08 1.12 10.65 1.45 7.2.66 14.44.72 21.67.71 13.55-.02 27.09.27 40.64.21 11.95-.06 24.03-.26 35.87-2.04 2.92-.44 5.92-1.22 8.35-2.96 2.63-1.88 4.18-4.5 5.05-7.58 1.8-6.41.93-12.96 1.05-19.5.14-7.45-.3-14.88-.62-22.32-.14-3.31-.32-6.62-.24-9.93.08-3.18.3-6.36.36-9.54.11-5.96-.22-12.86-3.72-17.95-2.1-3.05-5.1-3.83-8.64-3.96s-7.29-.2-10.94-.26c-15-.22-30.01.02-45.01.25-14.95.22-29.9.2-44.85.73-3.63.13-7.26.3-10.89.52-2.58.15-2.61 4.18 0 4.05 14.35-.73 28.74-.69 43.1-.7 14.41 0 28.81-.34 43.22-.34 7.21 0 14.42.08 21.63.27 1.65.04 3.32.05 4.96.16 1.3.09 2.49.41 3.32 1.47 1.68 2.11 2.38 5.12 2.82 7.72.96 5.78.2 11.77.07 17.58-.16 6.9.49 13.82.7 20.71.2 6.67.03 13.34.14 20 .05 3.04-.15 6.02-.9 8.98-.67 2.62-1.76 4.79-4.21 6.13-2.16 1.18-4.68 1.54-7.09 1.87-2.61.35-5.24.6-7.87.8-5.81.44-11.64.64-17.46.74-12.59.21-25.18-.11-37.77-.14-13.88-.03-27.93.74-41.67-1.69-2.73-.48-5.92-.95-7.97-3-1.69-1.7-2.33-4.12-2.73-6.42-.52-3.03-.57-6.17-.76-9.24-.22-3.62-.4-7.24-.55-10.86-.58-14.33-.71-28.67-.54-43 .04-3.46.12-6.91.22-10.37.06-1.91-2.78-1.86-2.94 0Z"/><path d="M45.31 47.43c3.06 4.49 6.71 8.6 10.28 12.68 3.55 4.05 7.16 8.05 10.85 11.97a487 487 0 0 0 22.89 22.8c3.5 3.27 7.18 7.27 11.94 8.6 2.41.67 4.85.44 7.11-.62 2.25-1.06 4.13-2.86 5.99-4.47 8.52-7.36 16.86-14.91 25.27-22.4 9.29-8.27 18.54-16.6 27.27-25.48 1.91-1.95-1.09-4.95-2.99-2.99-15.01 15.42-31.48 29.43-47.57 43.69-1.98 1.75-3.96 3.5-5.96 5.22-1.59 1.37-3.35 2.99-5.51 3.32-4.34.65-8.27-3.68-11.13-6.31a527 527 0 0 1-22.41-21.95c-4-4.16-7.94-8.39-11.81-12.67-3.97-4.39-7.73-9-11.94-13.16-1.13-1.12-3.22.36-2.27 1.75Zm14.7 68.04c4.25-.48 8.58-2.53 10.59-6.51.96-1.9 1.39-4.03 1.1-6.14s-1.35-4.53-3.56-5.18c-2.51-.74-4.18 1.5-5.28 3.38-1.21 2.09-2.16 4.35-2.46 6.76-.52 4.23 1.54 8.82 5.86 10.07 2.41.7 5.06.17 7.01-1.4 1.77-1.42 3.53-4.3 1.78-6.36-.58-.69-1.62-.51-2.22 0-1.51 1.26-.48 3.32 1.05 3.93 1.64.65 3.51.91 5.26.89 1.98-.02 1.9-2.83 0-3.02-.77-.08-1.55-.17-2.31-.32a16 16 0 0 1-1.66-.42c-.27-.1-.23.02.1.36l-.21.79h-2.22l.15.18-.4-.69c-.04-.09.13-.19.02-.08-.08.08-.14.27-.2.37-.13.24-.27.47-.44.68-.4.5-.92.89-1.48 1.2-1.07.59-2.36.62-3.49.18-2.37-.92-3.15-3.71-2.87-6.04.18-1.46.75-2.89 1.42-4.19.35-.67.72-1.34 1.12-1.99.13-.22.27-.4.43-.6.24-.29.31-.1.09-.19.87.35 1.1 2.12 1.13 2.91.05 1.3-.26 2.58-.89 3.72-1.57 2.85-4.71 4.25-7.81 4.68-1.7.24-1.32 3.22.41 3.02ZM35.45 94.8c-5.97.36-13.83.87-19.88 2.99-2.3.8-4.76 2.11-5.41 4.45-.74 2.69 1.24 5.3 3.13 7.35 3.52 3.82 7.17 7.51 10.95 11.06 2.84 2.67 9.04 8.5 12.61 10.04 11.48 4.97 14.03 4.46 24.05 4.97-25.45-2.88-25.47-12.39-26.58-19.04s-.25-13.47-.68-20.2"/><path d="M35.45 93.23c-6.9-.01-14.41.27-20.94 2.68-3.03 1.12-6.08 3.05-6.62 6.5-.62 3.95 2.28 7.13 4.75 9.81 4.68 5.06 9.58 9.94 14.78 14.47 2.18 1.9 4.44 3.83 6.93 5.3 2.76 1.63 6.04 2.72 9.09 3.7 2.68.85 5.42 1.4 8.21 1.67 3.07.29 6.17.18 9.25.26 2.56.07 2.48-3.7 0-3.93-4.74-.43-9.5-1.34-13.96-3.03-2.67-1.02-5.12-2.39-6.98-4.34-.79-.83-1.09-1.21-1.72-2.35-.11-.2-.22-.41-.32-.62-.05-.09-.36-.82-.17-.36-.18-.45-.35-.91-.49-1.37-.51-1.68-.75-3.42-1.02-5.15-1.05-6.66-.12-13.37-.73-20.05-.21-2.35-3.8-2.44-3.73 0 .24 8.57-.71 17.51 1.67 25.88 1.53 5.38 5.57 9.08 10.61 11.28 5.17 2.26 10.76 3.19 16.32 3.96l.52-3.86c-4.64-.34-9.2-.44-13.58-1.59-5-1.32-10-3.27-14.05-6.53-4.46-3.58-8.6-7.62-12.65-11.65-2.44-2.43-5.22-4.88-7.21-7.69-.68-.96-1.45-2.18-1.14-3.41.29-1.15 1.43-1.85 2.41-2.36 2.99-1.56 6.6-2.17 9.89-2.73 3.6-.61 7.25-.92 10.87-1.37 1.94-.24 2.07-3.12 0-3.12Z"/></svg>