<?xml version="1.0" encoding="UTF-8"?><svg xmlns="http://www.w3.org/2000/svg" viewBox="0 0 180 180"><path d="M94.57 8.37C82.09 10.41 71.33 19.76 67.69 31.9c-3.66 12.2 1.12 26.31 11.04 34.19 6 4.77 13.35 6.73 20.9 7.33s14.57-.72 20.83-4.63c5.46-3.41 10.03-8.44 12.62-14.35 2.84-6.47 3.42-13.74 1.82-20.62-1.56-6.68-5.21-12.89-10.45-17.34-2.59-2.2-5.48-4.03-8.6-5.39-3.24-1.41-6.41-2.14-9.91-2.49-1.67-.16-3.35-.14-5.02-.01-1.91.15-1.97 2.99 0 3.02 12.21.18 24.35 7.5 28.56 19.24 2.03 5.65 2.41 11.86.81 17.67-1.54 5.58-4.84 10.44-9.29 14.11-4.48 3.69-10.11 5.83-15.89 6.15-6.86.37-14.51-.74-20.49-4.28-9.28-5.48-14.78-16.91-13.33-27.59 1.68-12.36 12.09-22.79 24.22-25.18 2.23-.44 1.26-3.73-.93-3.37Zm3.06 77.93c-12.27.16-24.23 3.66-34.42 10.58s-18.1 16.96-22.59 28.59c-4.45 11.52-5.57 24.8-2.53 36.83.76 3.01 2.35 5.6 5.18 7.05 2.57 1.32 5.47 1.69 8.32 1.91 6.68.51 13.38.74 20.08.87 27.42.55 54.86-.9 82.22-2.5 3.32-.19 6.82-.16 9.88-1.64 2.32-1.12 4.16-3.13 5.28-5.43 2.37-4.84 2.49-10.59 2.27-15.88-.44-10.28-3.27-20.43-8.5-29.31-10.38-17.62-29.04-28.67-49.21-30.82-2.67-.29-5.37-.36-8.06-.32-2.44.04-2.45 3.78 0 3.8 19.07.12 37.96 7.94 49.62 23.41 5.59 7.41 9.29 16.1 10.9 25.24.84 4.81 1.11 9.79.72 14.66-.33 4.11-1.45 9.54-5.95 10.95-2.85.89-6.1.7-9.05.86l-9.44.51c-6.36.34-12.73.67-19.09.95-13.32.59-26.66 1.01-39.99 1.02-6.48 0-12.97-.09-19.45-.33-3.12-.12-6.25-.27-9.37-.46-2.62-.16-5.3-.22-7.82-1.05-2.46-.81-3.55-2.47-4.15-4.92-.68-2.8-1.1-5.66-1.3-8.53-.41-5.76.02-11.56 1.3-17.19 2.59-11.42 8.46-21.72 17.01-29.72 8.3-7.76 18.77-12.84 29.87-15.07 2.74-.55 5.48-.86 8.28-.94 2.02-.05 2.03-3.17 0-3.14Z"/><path d="M50.37 111.02a89.7 89.7 0 0 0-27.1 4.92c-3.12 1.08-6.27 2.4-8.58 4.76-3.23 3.3-4.32 8.29-3.67 12.86.66 4.57 2.88 8.78 5.53 12.56 6.32 9 18.37 18.22 28.62 22.22-4.76-6.03-7.78-13.95-7.9-21.63-.13-8.48.47-17.47 5.3-24.44 2.2-3.17 3.59-8.72 7.17-10.17"/><path d="M50.37 109.42c-7.84-.05-15.67.86-23.23 2.95-6.59 1.82-13.95 4.23-16.98 10.95-5.99 13.28 5.3 27.29 14.99 35.31a72 72 0 0 0 9.67 6.77c3.19 1.86 6.48 3.23 9.9 4.58.69.27 1.58-.18 1.93-.79.42-.71.21-1.47-.27-2.07-2.52-3.23-4.47-6.94-5.73-10.84s-1.7-7.92-1.68-12.06c.02-3.98.25-7.98 1.15-11.86.45-1.96 1.05-3.9 1.91-5.72.78-1.65 1.84-3.09 2.74-4.67 1.59-2.78 2.66-7.01 5.84-8.4 2.01-.88.27-3.83-1.73-2.95-3.25 1.43-4.75 5.09-6.24 8.06-.84 1.67-1.93 3.17-2.83 4.8-1.08 1.95-1.92 4.06-2.53 6.2-1.22 4.24-1.62 8.7-1.71 13.1-.09 4.48.16 8.88 1.41 13.21 1.42 4.94 3.83 9.51 6.98 13.55l1.66-2.86c-2.67-1.05-5.26-2.7-7.67-4.22-2.59-1.63-5.06-3.45-7.45-5.36-4.64-3.72-9.1-7.92-12.45-12.87-3.33-4.92-6.04-10.93-4.43-16.96 1.68-6.3 7.71-8.43 13.34-10.19 7.59-2.38 15.44-3.98 23.39-4.47 2.03-.12 2.07-3.18 0-3.19Z"/></svg>