<?xml version="1.0" encoding="UTF-8"?><svg xmlns="http://www.w3.org/2000/svg" viewBox="0 0 180 180"><path d="M107.59 120.17c-6.93 1.87-14.25 2.21-21.35 1.26-3.03-.41-6.5-.85-8.73-3.14-1.6-1.64-2.17-3.85-2.38-6.07-.27-2.9-.12-5.91-.84-8.75-.38-1.5-1.13-2.84-2.1-4.04s-2.28-1.74-3.71-2.37c-4.92-2.19-9.56-5.06-13.64-8.58-8.24-7.12-14.27-16.73-15.93-27.59-1.73-11.31 2.01-23.35 9.52-31.93 7.54-8.62 18.58-13.22 29.62-15.39 10.96-2.15 22.54-1.9 33.17 1.68 10.54 3.55 20.48 10.27 26.72 19.59 3.04 4.54 5.24 9.67 5.91 15.12.67 5.42-.08 10.9-1.8 16.06-3.45 10.34-10.84 19.54-19.51 26.03-2.18 1.63-4.48 3.05-6.83 4.42-2.46 1.43-5 3.1-6.44 5.63-2.75 4.84.34 10.47-.8 15.23-.18.76-.41 1.33-.77 1.71-.11.12-.34.3-.38.31-.46.21-.84.19-1.31.17-2.72-.12-2.72 4.11 0 4.23 5.43.24 7.15-4.9 7.01-9.45-.09-2.84-1.19-5.9-.49-8.71.69-2.79 3.57-4.29 5.88-5.61 10.37-5.92 19.33-14.47 24.91-25.11 5.57-10.62 7.42-23.2 2.83-34.53-4.64-11.45-14.16-20.51-25.12-25.97S98.11 7.05 86.07 8.05c-11.97.99-24.38 4.48-34.09 11.78-10.15 7.63-16.56 19.47-17.6 32.11S37.9 75.78 45.52 85c3.74 4.52 8.25 8.41 13.18 11.56 2.44 1.57 5.01 2.95 7.67 4.12 1.18.52 2.21.77 2.96 1.86.97 1.4 1.18 2.97 1.32 4.63.24 2.83.2 5.74.92 8.51.75 2.88 2.5 5.39 5 7.02 2.93 1.91 6.71 2.3 10.11 2.66 3.66.39 7.34.39 11.01.03 3.66-.36 7.28-1.04 10.83-2 2.08-.56 1.2-3.8-.89-3.24Z"/><path d="M70.67 100.41c11.28-2.7 23.24-2.56 34.45.41.84.22 1.68.46 2.45.87.27.14.54.32.7.58.13.23.16.5.18.77.36 3.85.73 7.7 1.09 11.55.1 1.02.19 2.08-.18 3.03-.37.97-1.18 1.71-2.04 2.31-3.3 2.31-7.48 2.91-11.49 3.2-5.39.39-10.95.33-16.02-1.56-1.18-.44-2.38-1.02-3.07-2.07-.45-.69-.64-1.51-.82-2.32-.95-4.34-1.73-8.72-2.35-13.11-.09-.64-.19-1.31-.54-1.86s-1.06-.92-1.67-.69"/><path d="M71.15 102.12c2.99-.68 6.2-.92 9.26-1.14s6.1-.31 9.16-.18 6 .44 8.96.96c1.54.27 3.08.61 4.6.97.96.23 2.86.41 3.48 1.19l-.61-1.04c.35.97.3 2.22.4 3.27.11 1.2.23 2.41.34 3.61s.24 2.41.36 3.61c.1.97.42 2.24.17 3.2-.43 1.61-3.02 2.56-4.43 3.03-1.93.64-3.94.96-5.96 1.12-4.37.36-8.9.47-13.2-.51-1.44-.32-4.13-.72-4.98-2.11-.51-.84-.59-2.07-.79-3.02-.27-1.29-.53-2.58-.77-3.87-.5-2.65-.89-5.32-1.31-7.98-.45-2.84-2.67-4.78-5.52-3.57-2.02.86-.9 4 1.08 3.97-.18 0-.24-.04-.27-.11.15.35.17.79.22 1.15.15.98.28 1.95.43 2.93.33 2.11.7 4.22 1.1 6.32.35 1.8.58 3.74 1.23 5.46.7 1.83 2.05 3.14 3.83 3.94 6.82 3.07 15.05 2.74 22.28 1.6 3.43-.54 7.1-1.67 9.68-4.11 3.05-2.89 1.91-7.34 1.56-11.05l-.54-5.77c-.09-.97-.09-2.05-.59-2.92-.55-.95-1.52-1.46-2.5-1.86-3.56-1.46-7.66-1.99-11.45-2.46a70.4 70.4 0 0 0-13.14-.41c-2.22.14-4.45.4-6.65.79s-4.24 1.03-6.38 1.55c-2.23.54-1.29 3.95.95 3.44"/><path d="M87.89 106.28c1.68-8.36.73-17.16-.6-25.51-1.38-8.65-3.24-17.88-7.97-25.38-2.23-3.55-5.29-6.65-9.25-8.19-3.45-1.34-8.11-1.23-10.96 1.39-2.36 2.17-2.63 5.57-1.96 8.52.78 3.44 2.87 6.41 5.21 8.96 10.81 11.8 29.58 14.61 44.14 8.88 6.95-2.73 14.49-8.26 15.98-16.08.86-4.5-1.06-8.74-5.15-10.89-3.8-2-8.53-2.19-12.56-.76-9.62 3.39-12.06 13.88-12.18 23.01-.07 5.25.35 10.53.65 15.77.3 5.2.45 10.41 1.23 15.57.37 2.47.92 4.9 1.7 7.28.87 2.64 5.07 1.51 4.19-1.15-2.85-8.67-2.51-18.15-3.1-27.16-.3-4.58-.57-9.25-.21-13.83.3-3.89 1.16-7.86 3.4-11.12 2.07-3.02 5.55-4.84 9.2-5 3.04-.13 6.85.77 8.36 3.71 1.61 3.12-.46 7.01-2.41 9.47s-4.58 4.47-7.4 5.96c-11.79 6.23-27.64 5.23-38.45-2.53-2.72-1.95-5.23-4.46-6.99-7.32-1.17-1.89-2.08-4.47-1.7-6.4.19-.98.52-1.59 1.3-2.11 1.18-.78 2.79-.9 4.16-.76 3.29.34 6.1 2.71 8.05 5.23 4.75 6.16 6.52 14.24 8.09 21.69 1.58 7.49 2.86 15.15 2.59 22.83-.06 1.7-.2 3.39-.49 5.06-.35 2.03 2.72 2.93 3.13.86M68.72 26.63l-.04-.1v-.03s-.01 0-.01-.01q-.075-.3-.27-.51a.44.44 0 0 0-.12-.15c-.07-.07-.22-.17-.33-.25a1.43 1.43 0 0 0-1.46 0c-.11.08-.24.17-.33.25-.22.22-.29.39-.39.68v.03s-.04.07-.05.1c-.07.28-.07.55 0 .83.07.26.21.49.4.69l.31.24q.36.21.78.21c.21 0 .41-.04.6-.13.19-.06.36-.17.5-.32.19-.19.33-.42.4-.69.07-.28.07-.55 0-.83Zm7.84-2.89c1.9 0 1.9-2.95 0-2.95s-1.9 2.95 0 2.95m-1.3 7.11c2.1 0 2.1-3.27 0-3.27s-2.1 3.27 0 3.27m11.28-2.61c2.09 0 2.09-3.25 0-3.25s-2.09 3.25 0 3.25m-31.8 93.86c-5.52 3.94-12.05 6.3-18.53 8.13-6.64 1.87-13.4 3.15-20.19 4.35-1.2.21-2 1.76-1.63 2.87 1.08 3.25 3.39 5.67 5.65 8.16l7.64 8.42c1.22 1.34 2.44 2.68 3.65 4.03 1.1 1.21 2.18 2.77 3.63 3.59 1.64.92 3.47.46 5.2.14 1.72-.32 3.43-.7 5.12-1.11 6.41-1.58 12.65-3.84 18.63-6.62 3.04-1.41 6.01-2.98 8.88-4.7 1.38-.82 2.73-1.68 4.06-2.57 1.44-.96 2.97-2.03 3.5-3.78.58-1.92-.52-3.43-1.93-4.59-1.65-1.36-3.31-2.71-4.97-4.06-3.33-2.72-6.66-5.38-10.19-7.83-1.69-1.17-3.63 1.43-2.18 2.82 2.38 2.28 4.83 4.42 7.38 6.52 1.27 1.05 2.55 2.09 3.82 3.13.57.47 1.15.94 1.72 1.41s1.34 1.37 2.01 1.65l.27.26-.06-.65c.05.01-.63.71-.67.74-.45.37-.97.67-1.46.98-1.28.84-2.58 1.65-3.89 2.43a98 98 0 0 1-7.72 4.1c-5.1 2.42-10.43 4.31-15.89 5.73-2.81.73-5.67 1.4-8.55 1.82-.69.1-.68.24-1.16-.23-.56-.55-1.07-1.17-1.59-1.75-1.11-1.22-2.21-2.44-3.32-3.66-2.43-2.69-4.87-5.37-7.3-8.06-2.05-2.26-4.76-4.59-5.79-7.54l-1.63 2.87c6.87-1.34 13.84-2.63 20.5-4.84 6.69-2.22 12.86-5.28 18.6-9.38 1.66-1.19.07-3.97-1.62-2.77Z"/><path d="M50.58 134.39c-2.95-1.95-6.11.66-8.06 2.79-2.12 2.3-2.57 5.47-1.25 8.31 1.21 2.61 3.94 4.11 6.73 4.3 2.71.18 5.44-1.14 7.13-3.24 1.9-2.34 3.34-6.84.26-8.9-1.31-.87-3.13.89-2.2 2.2.12.18.25.36.36.54.05.09.11.19.15.29-.04-.11-.04-.19 0 .06.02.11.05.21.07.32-.02-.1 0-.25-.01.05-.01.23 0 .46-.03.69.04-.28-.01.02-.02.06-.03.11-.05.22-.08.34-.06.22-.13.44-.23.65.09-.2-.17.33-.21.39-.13.23-.27.46-.42.68-.02.03-.24.32-.13.18.09-.12-.09.11-.09.1-.16.18-.31.36-.48.53s-.34.33-.53.48c.19-.15-.04.03-.07.05-.12.08-.24.17-.37.25-.2.13-.41.24-.62.35-.03.02-.36.16-.19.09s-.17.06-.21.07c-.2.07-.4.13-.6.17-.12.03-.23.05-.35.07-.5.1.27.01-.24.02-1.03.02-1.51.02-2.5-.41.25.11-.33-.19-.38-.21-.18-.1-.35-.21-.52-.34-.24-.17.15.14-.06-.06-.09-.08-.18-.16-.26-.24s-.17-.17-.25-.26c-.05-.06-.25-.32-.12-.13-.14-.19-.26-.4-.37-.61-.06-.1-.11-.21-.16-.32.03.08.07.24-.02-.08-.06-.2-.13-.4-.17-.6-.03-.12-.05-.23-.07-.35-.03-.18 0 .15-.01-.15 0-.24-.02-.47 0-.71 0-.12.01-.24.03-.35-.01.1-.06.25.02-.06.06-.23.12-.45.19-.68.01-.04.13-.3.03-.07q.09-.195.21-.39c.56-.95 1.56-1.81 2.44-2.54.26-.21.88-.61 1.21-.72s.6-.14.9.03c.72.41 1.68.17 2.11-.55s.14-1.65-.55-2.11ZM35.9 146.32c.09-.1.19-.2.28-.29.15-.14.26-.31.32-.5.1-.18.14-.38.13-.6 0-.21-.04-.41-.13-.6-.06-.19-.17-.36-.32-.5l-.31-.24q-.36-.21-.78-.21l-.41.06c-.26.07-.49.21-.68.4l-.29.28c-.15.14-.26.31-.32.5-.1.19-.14.38-.13.6 0 .21.04.41.13.6.06.19.17.36.32.5l.31.24q.36.21.78.21l.41-.06c.26-.07.49-.21.69-.4Zm25.24-8.17c2.08 0 2.08-3.23 0-3.23s-2.08 3.23 0 3.23m48.36-6.83c-2.76 1.3-5.56 2.52-8.4 3.65-2.84 1.12-5.73 2.01-8.62 3-1.33.46-1.95 1.86-1.27 3.13 4.57 8.56 10.77 16.28 18.09 22.65 1.85 1.61 3.77 3.13 5.75 4.57s4.1 3.29 6.48 3.74c2.55.48 5.2-.97 7.45-2a49 49 0 0 0 6.22-3.4 52.8 52.8 0 0 0 12.19-10.8c.84-1.02.89-2.69-.44-3.39-11.12-5.93-20.95-14.2-28.8-24.06-1.38-1.74-4.46.6-3.1 2.4 7.98 10.54 18.05 19.16 29.72 25.39l-.44-3.39c-2.76 3.35-5.92 6.38-9.47 8.88a52 52 0 0 1-5.71 3.48c-1.84.96-3.86 2.03-5.89 2.55-1.05.27-1.77-.25-2.63-.8a70 70 0 0 1-2.89-1.97 74 74 0 0 1-5.06-3.98 81 81 0 0 1-9.36-9.52c-3.21-3.86-6.01-8.07-8.44-12.47l-1.27 3.13c6-2.16 11.9-4.96 17.56-7.88 1.92-.99.24-3.77-1.68-2.87Z"/><path d="M120 145.01c-2.29-.58-5-.38-6.96 1.06-1.93 1.42-3.37 3.85-2.51 6.29.81 2.31 3.03 3.77 5.39 4.11 2.24.33 4.94.11 6.89-1.15 2.24-1.45 3.39-4.48 2.32-6.99-.62-1.45-3.19-.74-3.01.82.03.25.07.51.1.76-.03-.26 0 .13 0 .21 0 .09-.03.54-.01.44.01-.08-.08.32-.11.42-.07.27.05-.03-.09.21-.08.14-.16.29-.26.42.14-.22-.14.16-.2.22-.07.07-.43.37-.21.21-.16.11-.32.21-.49.3.01 0-.27.13-.14.07s-.16.06-.14.05c-.43.15-.87.25-1.32.33l-.13.02c.19-.03-.11.01-.12.01-.18.02-.36.04-.53.05-.42.03-.84.04-1.26.01-.18 0-.36-.02-.53-.04.31.04-.11-.03-.21-.05-.17-.04-.34-.08-.51-.13-.08-.02-.17-.05-.25-.08-.03-.01-.36-.14-.18-.06.2.09-.13-.07-.17-.09-.08-.04-.15-.08-.23-.12-.15-.09-.3-.18-.44-.28.23.17-.1-.1-.17-.17s-.12-.13-.19-.2c-.2-.21.12.19-.04-.05-.05-.08-.29-.54-.18-.27-.07-.17-.11-.34-.14-.52.06.31.02-.05.02-.18 0-.04.05-.28 0-.08-.05.21.04-.12.05-.16.02-.08.05-.16.08-.24-.01.03-.12.24-.02.06q.135-.27.3-.51c.18-.26-.08.06.14-.17.14-.15.29-.29.44-.42s0-.01-.03.01c.09-.07.19-.14.28-.2q.3-.21.63-.39c.09-.05.18-.09.26-.13.28-.14-.17.06.12-.06.21-.09.44-.16.66-.22.95-.29 1.69-.36 2.69-.22.72.1 1.39-.64 1.47-1.29.09-.72-.34-1.45-1.07-1.64Zm6.56 15.66c2.56 0 2.57-3.98 0-3.98s-2.57 3.98 0 3.98m-16.21-17.39c2.16 0 2.17-3.36 0-3.36s-2.17 3.36 0 3.36m48.02-33.21c-4.42.86-9.04.5-13.35-.79-4.35-1.3-8.24-3.73-12.07-6.11-.95-.59-2.65-.3-3.12.82-1.01 2.38-1.17 4.93-1.5 7.48-.32 2.54-.65 5.07-.97 7.61s-.7 5.07-.97 7.61c-.29 2.8 1.42 4.16 3.91 4.86 8.82 2.49 19.26.41 26.04-5.88 3.42-3.16 6.33-7.36 8.35-11.54.87-1.81-1.47-3.1-2.64-1.55-2.19 2.89-3.92 6.07-6.39 8.76-2.57 2.8-5.53 4.78-9.22 5.77-3.77 1.02-7.83 1.34-11.7.78-.94-.14-1.88-.34-2.8-.59-.19-.05-1.17-.48-1.3-.39-.1.06.24.52.25.52.03-.01.05-.67.06-.73.24-2.21.58-4.42.86-6.63l.96-7.36c.3-2.28.35-4.8 1.23-6.95-1.12.45-2.23.91-3.35 1.36 4.32 2.6 8.73 5.19 13.67 6.4s10.04 1.06 14.97-.09c2.19-.51 1.25-3.77-.92-3.34Z"/><path d="m143.04 118.95-.02-.06v-.03h-.01c-.15-.42-.13-.37-.34-.64-.08-.14-.2-.25-.34-.34a.7.7 0 0 0-.19-.15c-.07-.04-.15-.07-.23-.1-.22-.12-.47-.17-.72-.16l-.5.07-.45.19s-.38.29-.38.3c-.18.17-.31.37-.39.61-.04.07-.07.15-.1.23v.03s-.03.04-.03.07q-.135.51 0 1.02c.09.33.26.61.49.85l.39.3c.3.17.62.26.97.26.26 0 .51-.05.74-.17.24-.08.44-.21.62-.4.24-.24.4-.52.49-.85q.135-.51 0-1.02ZM51.42 106.9c-4.08-3.87-8.52-7.45-14-9.07-2.9-.86-5.92-1.19-8.92-1.46-3.27-.3-6.55-.56-9.83-.85-1.54-.13-2.35 1.5-2.12 2.78.75 4.17 1.63 8.32 2.64 12.43 1 4.09 1.96 8.3 3.48 12.23.44 1.13 1.92 2.17 3.12 1.27 3.36-2.52 7.14-4.76 10.95-6.53 3.77-1.76 7.63-3.01 11.81-3.25 1.47-.08 2.02-2.51.37-2.75-4.52-.65-9.09.22-13.27 2.02-4.28 1.84-8 4.51-12 6.84 1.04.42 2.08.85 3.12 1.27-.94-4.13-2.28-8.17-3.28-12.28s-1.9-8.26-2.7-12.42l-2.12 2.78c2.97.19 5.94.38 8.91.58 2.8.19 5.61.38 8.34 1.04 5.06 1.23 9.35 4.27 13.24 7.61 1.54 1.32 3.76-.83 2.25-2.25Z"/><path d="M36.73 106.11s-.03-.07-.05-.1l.17.4-.02-.06v-.03s-.02 0-.02-.01l-.09-.21a1 1 0 0 0-.09-.21c-.15-.26-.36-.47-.62-.62-.27-.16-.56-.24-.88-.24l-.46.06c-.29.08-.55.23-.77.45-.17.16-.29.34-.36.56-.11.21-.16.43-.15.67 0 .31.08.6.24.88.15.26.36.47.62.62.14.06.28.12.41.18h.01s.02.01.03.02l.06.02-.4-.17s.07.03.1.05l.39.17c.22.07.44.08.65.03.15 0 .29-.04.41-.11.2-.07.38-.18.53-.34l.26-.33.17-.39c.07-.22.08-.44.03-.65 0-.22-.07-.42-.19-.61Z"/></svg>