<?xml version="1.0" encoding="UTF-8"?><svg xmlns="http://www.w3.org/2000/svg" viewBox="0 0 180 180"><path d="M22.64 11.65c-2.7 7.63-2.11 16.08-2.06 24.04.06 8.54.03 17.08.01 25.63-.03 17.25-.3 34.5-.79 51.75-.28 9.7-.64 19.4-1.07 29.09-.03.77.45 1.55 1.1 1.92 13.44 7.61 27.04 14.94 40.6 22.34 3.31 1.81 6.62 4.04 10.57 3.35 3.4-.59 6.57-2.99 9.51-4.66 6.58-3.73 13.19-7.39 19.85-10.98 1.74-.94 3.47-1.87 5.22-2.8 1.48-.78 2.95-1.63 4.6-1.98 3.12-.67 6.04 1.85 8.49 3.42 6.21 3.97 12.56 7.72 18.99 11.32 3.35 1.88 6.73 3.72 10.14 5.51 2.78 1.46 6.36 3.91 9.6 2.37 3.46-1.65 2.86-6.01 2.87-9.2.01-3.82.03-7.63.04-11.45.06-15.43.14-30.86.19-46.29.05-15.28-.31-30.57-.11-45.86.05-3.86.14-7.71.3-11.56.16-3.8.6-7.61.68-11.41.06-3.1-1.42-6.03-3.9-7.86-1.26-.93-2.75-1.62-4.12-2.37-1.58-.86-3.17-1.7-4.76-2.53-6.11-3.17-12.34-6.12-18.65-8.87-3.25-1.42-6.52-2.79-9.81-4.12s-6.81-3.09-10.47-2.86c-3.71.24-7.07 2.39-10.27 4.1s-6.53 3.55-9.75 5.41c-6.31 3.63-12.5 7.44-18.58 11.44-1.42.93-2.8 2-4.27 2.84-1.19.67-2.57-.27-3.72-.75-2.8-1.18-5.57-2.45-8.3-3.78-5.61-2.73-11.11-5.71-16.33-9.13-2.25-1.48-4.63-2.95-6.69-4.68-.94-.79-2.3-.92-3.23 0-.81.81-.95 2.43 0 3.23 2.2 1.85 4.39 3.67 6.79 5.27 2.57 1.71 5.21 3.3 7.9 4.81 5.21 2.93 10.58 5.58 16.06 7.96 3.06 1.33 6.33 3.25 9.61 1.53 1.48-.78 2.85-1.87 4.25-2.79 1.58-1.05 3.17-2.08 4.77-3.1 6-3.83 12.1-7.49 18.31-10.96 3.16-1.77 6.33-3.52 9.56-5.16 1.35-.68 2.79-1.35 4.33-1.38 1.73-.04 3.4.6 4.99 1.21 6.36 2.45 12.66 5.11 18.86 7.94 6.04 2.76 11.98 5.71 17.82 8.87 2.33 1.26 4.84 2.37 4.94 5.39.06 1.69-.23 3.45-.34 5.14-.13 1.96-.23 3.93-.32 5.89-.66 14.93-.32 29.87-.26 44.81.06 14.9-.1 29.81-.21 44.71-.05 7.63-.12 15.26-.18 22.9-.01 1.83-.03 3.65-.04 5.48 0 .6.23 2.55-.2 2.8-.61.35-2.7-1.05-3.2-1.31q-2.565-1.335-5.1-2.7c-6.49-3.49-12.89-7.15-19.19-10.98-2.98-1.81-5.93-3.69-8.9-5.53-3.05-1.89-6.27-3.15-9.89-2.34-3.42.76-6.61 2.92-9.66 4.57-3.26 1.75-6.5 3.52-9.74 5.31s-6.47 3.59-9.69 5.41c-1.57.89-3.15 1.78-4.71 2.68-1.46.84-2.93 1.82-4.56 2.29-1.39.4-2.66 0-3.92-.63-1.73-.86-3.4-1.84-5.1-2.76-3.21-1.75-6.42-3.5-9.62-5.25-6.71-3.66-13.43-7.29-20.15-10.94-3.21-1.74-6.44-3.46-9.67-5.16l1.1 1.92c.71-17.07 1.2-34.15 1.46-51.23.25-17.09.24-34.17-.08-51.25-.09-4.63-.28-9.25-.36-13.88s.01-8.99 1.36-13.33c.58-1.88-2.28-2.63-2.92-.81Z"/><path d="M69.8 34.94c-1.49 5.62-3.06-4.23-3.07 1.59-.05 29.67 1.42 96.02 2.23 125.67.35 12.91-.3-10.96.04 1.94.01.45.07.98.46 1.21.37.22.84.04 1.23-.14 8.96-4.12 17.92-8.23 26.88-12.35 2.06-.95 4.15-1.91 5.87-3.39 1.37-1.18 2.5-2.68 4.08-3.56 1.19-.66 2.69-1.04 3.32-2.24.35-.66.36 2.56.35 1.81-.17-42.97-.34-89.93-.51-132.9-12.77 7.38-25.53 14.75-38.3 22.13"/><path d="M68.24 34.51c-.02.06-.36 1.01-.4.98-.09-.08.54-.37.54-.37.62-.18.71.04 1.15.25-.17-.08-.13-.34 0 .03-.03-.1-.13-.2-.17-.29-.11-.22-.25-.44-.37-.66-.27-.49-.55-.99-1.05-1.28-1-.6-2.2-.12-2.65.9-.67 1.5-.34 3.65-.35 5.26-.02 2.03-.02 4.07-.02 6.1 0 9.99.14 19.97.29 29.96.34 22.24.8 44.48 1.32 66.71.19 8.01.62 16.07.56 24.09h3.94c-.07-1.99-.03-4-.17-5.98-.07-.98-.7-1.82-1.71-1.94-.88-.1-2.02.43-2.17 1.42-.17 1.14-.03 2.35 0 3.5.05 1.94.44 4.3 2.91 4.27 1.03-.01 1.99-.59 2.9-1.01 1.19-.55 2.39-1.1 3.58-1.65 4.48-2.06 8.96-4.12 13.44-6.17l6.72-3.09c2.08-.96 4.23-1.84 6.17-3.06s3.27-2.95 5.03-4.31c.8-.62 1.75-.93 2.62-1.42.96-.54 1.59-1.22 2.21-2.11l-1.18.91.05-.02-1.52-.2.04.03-.71-.71c-.21-.4-.18-.09-.13-.37-.03.19.04.45.05.65l.03.71c.1 2.53 3.95 2.56 3.95 0 .01-17.09-.15-34.18-.21-51.27l-.18-52.68c-.03-9.69-.14-19.38-.02-29.07.02-1.6-1.77-2.54-3.12-1.79-12.88 7.16-25.57 14.7-38.33 22.07-2.39 1.38-.23 5.08 2.16 3.7C86.2 29.22 99.07 22 111.71 14.41c-1.04-.6-2.08-1.19-3.12-1.79.36 17.36.23 34.74.3 52.11l.21 52.66c.04 9.41.11 18.83.09 28.24h3.95c-.03-.7-.02-1.44-.18-2.13-.31-1.39-1.73-2.37-3.1-1.57-.52.3-.73.89-1.21 1.22-.61.43-1.36.66-2.01 1.01-1.46.79-2.6 2.01-3.78 3.15-2.67 2.59-6.36 3.89-9.68 5.41-3.73 1.72-7.47 3.43-11.2 5.15l-6.27 2.88c-1.05.48-2.09.96-3.14 1.44-.52.24-1.05.48-1.57.72-.22.1-.45.2-.67.31-.15.07-.61.17-.38.25l.87.51c.21.2.05.19.11-.08.03-.14 0-.35-.01-.5 0-.29-.02-.58-.02-.87l-.03-1.35c0-.32.08-1.61-.09-.46-1.29-.18-2.59-.35-3.88-.53.13 1.99.1 3.99.18 5.98.1 2.53 3.94 2.55 3.94 0 .01-6.81-.41-13.65-.59-20.47-.28-10.59-.51-21.19-.73-31.79-.46-21.74-.82-43.47-1.1-65.21-.03-2.4-.06-4.8-.08-7.19-.02-2.05.17-4.25-.02-6.29.06.62-.08-.03.01.02-1.36-.74-2.48 1.3-2.76.51.07.19.23.4.34.57s.76 1.12.43.7c.22.28.41.55.68.79.73.64 1.75.82 2.61.3.94-.57 1.29-1.74 1.54-2.74.51-2.02-2.51-2.85-3.12-.86Z"/></svg>