<?xml version="1.0" encoding="UTF-8"?><svg xmlns="http://www.w3.org/2000/svg" viewBox="0 0 180 180"><path d="M150.79 33.4c-9.78-8.23-21.78-13.74-34.43-15.67-12.47-1.89-25.27-.87-37.33 2.79-12.05 3.66-23.35 9.85-32.73 18.27-9.26 8.31-16.34 18.81-20.29 30.62-4.44 13.26-4.35 28.07-.09 41.36 4.85 15.1 14.92 28.09 27.87 37.14 13.21 9.23 29.18 13.91 45.27 13.59 16.52-.33 33.06-5.76 46.21-15.83 6.63-5.08 12.36-11.21 16.77-18.32 4.64-7.47 7.66-16 9.07-24.66 2.84-17.37-.17-35.72-8.14-51.41-1.92-3.77-4.15-7.32-6.56-10.79-1.34-1.93-4.52-.09-3.17 1.85 9.51 13.68 14.53 30.68 14.39 47.29-.14 16.49-6.02 32.55-17.34 44.65-10.66 11.4-25.25 18.68-40.55 21.38-15.02 2.66-30.75.5-44.4-6.35-13.28-6.66-24.4-17.36-31.15-30.63-6.24-12.28-8.31-26.81-5.79-40.17 2.19-11.57 7.54-22.11 15.36-30.83 7.81-8.7 17.71-15.51 28.43-19.97 11.07-4.61 22.92-6.89 34.85-6.52 11.86.37 23.65 3.47 34.02 9.43 2.6 1.5 5.12 3.16 7.49 5 1.57 1.21 3.81-.9 2.23-2.23Z"/><path d="M107.33 159.13c-18.41 2.63-37.16 2.38-55.6.19-11.5-1.36-34.72-5.07-40.87-16.11-2.44-4.37 1.28-10.06 5.2-13.17s8.88-4.56 13.69-5.93c10.07 17.07 27.71 29.48 47.17 33.18"/><path d="M107.33 157.8c-10.64.86-21.27 1.5-31.95 1.21-9.17-.26-18.62-.97-27.54-2.26-6.71-.98-13.42-2.3-19.84-4.5-5.4-1.84-11.82-4.6-14.91-9.48-2.34-3.72.9-7.98 3.66-10.47 3.74-3.37 8.84-4.74 13.56-6.09-.81-.33-1.62-.66-2.44-.99 8.17 13.73 20.92 24.41 35.71 30.37 4.12 1.66 8.41 2.93 12.8 3.62 1.05.16 2.11-.27 2.41-1.37.27-.99-.33-2.17-1.37-2.41-7.34-1.7-14.39-4.18-20.94-7.94a69.9 69.9 0 0 1-17.39-14.12c-2.84-3.19-5.33-6.65-7.5-10.32-.48-.82-1.52-1.25-2.44-.99-4.68 1.33-9.56 2.73-13.55 5.63-3.58 2.6-6.91 6.48-7.58 11-1.11 7.49 7.02 12.69 12.88 15.36 6.83 3.11 14.22 4.85 21.59 6.08 8.84 1.48 17.81 2.31 26.76 2.71 12.77.56 25.85.14 38.41-2.4 1.46-.3 1.15-2.75-.36-2.62Z"/><path d="M106.89 18.92c-6.7-1.26-12.57 2.45-17.29 6.84-3.78 3.52-7.14 7.49-10.08 11.74-5.81 8.42-9.82 18.1-12.14 28.04-4.8 20.59-3.09 42.82 4.31 62.59 1.84 4.92 4.03 9.72 6.61 14.3 1.22 2.16 2.53 4.28 3.93 6.33 1.56 2.28 3.23 4.64 5.29 6.5 4.35 3.92 10.29 5.76 16.07 4.89 5.08-.76 9.51-3.91 12.91-7.63 7.28-7.98 11.23-18.63 14.23-28.83 3.76-12.77 5.42-25.92 4.58-39.23-.9-14.29-4.11-28.7-9.33-42.04-2.31-5.89-5.24-11.71-9.76-16.24-4.2-4.2-10.19-7.21-16.24-6.72-2.91.23-5.64 1.11-8.02 2.85-1.83 1.33-.22 4.32 1.81 3.1 4.6-2.75 10.24-2.12 14.81.38 5.15 2.8 8.59 7.8 11.13 12.95 2.81 5.69 4.72 11.87 6.43 17.97 1.82 6.52 3.26 13.18 4.1 19.9 1.68 13.33 1.19 26.83-2.08 39.88-2.37 9.45-5.52 18.99-10.74 27.29-2.33 3.72-5.21 7.31-8.96 9.67-4.13 2.61-9.09 3.11-13.61 1.16-4.65-2.01-7.36-6.09-10.01-10.19a93.6 93.6 0 0 1-6.85-12.65C70.04 114 67.21 93.48 70.05 74.21c1.4-9.51 4.14-18.91 8.56-27.46 2.16-4.18 4.68-8.21 7.62-11.89 3.25-4.07 7.01-8.24 11.5-10.95 2.52-1.52 5.38-2.7 8.37-2.19 1.82.31 2.62-2.46.77-2.8Z"/><path d="M28.1 93.07c16.98-2.75 34-5 51.19-5.95 17.6-.97 35.29-.85 52.85.78 9.42.88 18.79 2.14 28.14 3.52 1.83.27 2.67-2.34.79-2.85-16.77-4.52-34.42-5.75-51.72-6.12-17.88-.38-35.78.56-53.53 2.67-9.6 1.14-19.17 2.61-28.6 4.76-2.1.48-1.18 3.51.88 3.18Zm33.56-60.88c2.61 4.83 7.35 7.67 12.28 9.7 5.89 2.43 12.19 4.14 18.44 5.38 12.29 2.44 25.32 2.36 37.04-2.47 6.05-2.49 11.58-6.14 15.98-11.02 1.57-1.74-1-4.33-2.59-2.59-7.2 7.96-17.61 12.46-28.17 13.67-12.37 1.42-24.93-1.12-36.64-5-5.28-1.75-10.87-4.18-13.87-9.14-.95-1.58-3.35-.18-2.47 1.44ZM60.6 139.98c10.12-5.46 21.89-7.58 33.28-7.95 10.61-.34 21.9.3 31.98 3.86 2.55.9 5 2.05 7.28 3.5 2.44 1.54 4.25 3.57 6.39 5.44 1.57 1.37 4.18-.37 3.01-2.32-1.38-2.28-3.66-4.07-5.8-5.61-2.12-1.53-4.44-2.76-6.84-3.78-5.06-2.16-10.41-3.32-15.85-4.04-11.87-1.57-24.23-1.48-35.96 1.02-6.68 1.42-13.1 3.89-19.09 7.16-1.78.97-.2 3.69 1.59 2.73Z"/></svg>