<?xml version="1.0" encoding="UTF-8"?><svg xmlns="http://www.w3.org/2000/svg" viewBox="0 0 180 180"><path d="M131.2 72.59c.52-4.38 1.95-8.65 2.61-13.02s1.13-9.56-1.4-13.46c-2.77-4.27-8.86-6.07-13.53-7.18-5.61-1.33-11.37-1.81-17.09-2.46-4.27-.48-8.52-1.03-12.81-1.35-5.13-.39-10.28-.68-15.42-.95-9.7-.5-19.42-.95-29.13-1.25-6.3-.2-13.16.23-18.56 3.86-5.21 3.5-8 9.25-10.09 14.98-4.95 13.53-7.58 27.87-8.02 42.26-.11 3.43-.16 6.91.11 10.33.23 2.94.75 5.95 2.26 8.53 2.84 4.87 8.87 6.16 13.96 7.44 10.7 2.68 21.77 3.98 32.72 5.12 10.68 1.11 21.4 1.88 32.09 2.85 7.05.64 14.12 1.43 21.2.88 3.33-.26 7.37-.46 10.18-2.49 2.72-1.96 4.14-5.14 5.32-8.17 1.28-3.31 2-6.78 2.32-10.31-1.09.63-2.19 1.25-3.28 1.88 5.42 3.13 10.85 6.28 16.58 8.82 4.67 2.07 9.86 3.86 15.02 2.73 4.71-1.03 7.65-4.95 9.5-9.14 1.87-4.24 2.95-8.73 4.02-13.22 1.64-6.85 2.72-13.94 2.26-21.01-.23-3.52-.8-7.19-2.55-10.31-1.85-3.3-4.92-4.94-8.58-5.53-5.35-.86-10.87 0-16.02 1.54-5.05 1.51-10.07 3.7-14.41 6.72-.98.68-1.43 1.94-.79 3.02.57.97 2.04 1.48 3.02.79 3.43-2.4 7.23-4.26 11.18-5.65s8.41-2.49 12.77-2.51c1.9 0 3.77.18 5.58.75.83.26.91.28 1.67.75.39.24.74.57 1.2 1.13.6.72 1.26 2.12 1.62 3.23.46 1.42.76 2.94.92 4.37.7 6.38 0 12.93-1.42 19.12-.84 3.68-1.72 7.39-2.88 10.99-1.08 3.37-2.57 7.76-5.73 9.77-4.1 2.6-9.75.65-13.79-1.11-5.89-2.57-11.45-5.8-17-9.02-1.53-.89-3.14.28-3.28 1.88-.29 3.28-1.09 6.53-2.34 9.57-1.07 2.61-2.35 5.29-5.26 6.1-3.27.9-6.87.97-10.24.98-3.59.01-7.18-.23-10.76-.53-10.21-.88-20.42-1.74-30.63-2.68-10.72-1-21.46-2.13-32.04-4.17-4.47-.86-8.94-1.88-13.25-3.36-2.47-.85-4.44-2.05-5.49-4.54-1-2.36-1.17-5.03-1.22-7.56-.3-13.55 1.54-27.16 5.28-40.18 1.65-5.75 3.4-11.9 6.83-16.89 3.22-4.69 8.41-6.66 13.92-7.07 5.31-.4 10.66.17 15.96.36 4.26.16 8.51.33 12.77.49 9.44.36 18.91.69 28.31 1.62 4.54.45 9.07.98 13.6 1.47 5.16.57 10.58 1.29 15.36 3.44 1.77.8 3.8 1.8 4.75 3.39.89 1.5 1.22 3.28 1.3 5.06.21 4.46-.75 8.88-1.56 13.24-.35 1.88-.7 3.77-.85 5.68-.16 2.09 2.98 2.01 3.22 0Z"/><path d="M56.56 56c-9.84 2.38-6.02 16.98-3.91 23.47 2.65 8.16 6.27 16.06 11.42 22.93 1.93 2.58 4.17 5.08 7.12 6.39 2.94 1.31 6.3 1.3 9.5.98 2.36-.23 4.78-.65 6.81-1.87.87-.52 1.69-1.23 2.06-2.18.6-1.52-.09-3.22-.77-4.71-1.56-3.43-1.6-3.4-3.15-6.83-.52-1.14-1.08-2.33-2.09-3.06-1.38-.99-3.25-.9-4.92-.57-1.67.32-3.37.83-5.04.51-1.97-.37-3.55-1.84-4.77-3.42-1.41-1.82-4.49-9.68-5.22-11.87-.69-2.09-.82-4.39.74-6.12 1.7-1.9 4.88-1.87 6.17-4.14 1.33-2.33.22-3.88-.41-6.29-.75-2.84-1.69-5.8-3.48-8.17-3.35-4.44-8.15-1.9-10.98 1.61-5.21 6.46-6.35 13.37-4.44 21.33"/><path d="M56.15 54.51c-11.26 2.7-7.72 17.84-5.2 25.66 2.55 7.94 6.06 15.69 10.98 22.46 2.23 3.07 4.78 6.17 8.31 7.78 3.82 1.74 8.13 1.6 12.2 1.03 3.6-.5 8.65-2.06 9.15-6.32.25-2.16-.79-4.15-1.67-6.05-.56-1.2-1.13-2.39-1.68-3.59-.74-1.6-1.35-3.33-2.45-4.72-1.23-1.55-3.05-2.26-5-2.3-2.13-.04-4.18.95-6.3.82-1.72-.11-3.11-1.39-4.11-2.7-1.38-1.8-2.21-4.18-3.08-6.26s-2.32-4.81-2.37-7.2c-.07-3.52 4.33-3.54 6.3-5.58 2.99-3.09 1.17-7.16.12-10.66s-2.67-7.71-6.11-9.37c-3.08-1.49-6.38-.23-8.88 1.78-2.83 2.28-4.9 5.68-6.25 9.02-1.34 3.3-1.84 6.92-1.61 10.47.13 1.93.44 3.82.96 5.68.63 2.25 3.9 1.29 3.47-.96-.6-3.13-1.01-6.35-.51-9.52.51-3.23 1.83-6.21 3.68-8.88 1.37-1.97 3.52-4.54 6.16-4.59 3.11-.06 4.6 4.36 5.36 6.74.52 1.63 1.01 3.28 1.47 4.93.36 1.29.13 2.48-1.05 3.25-1.11.72-2.43 1.04-3.55 1.75-1.42.89-2.48 2.2-2.95 3.82-.75 2.57.18 5.09 1.08 7.47s1.89 4.87 2.98 7.24 2.31 4.22 4.35 5.72c1.39 1.02 3.03 1.6 4.76 1.59 1.87 0 3.63-.72 5.47-.83 1.85-.11 2.74.63 3.52 2.24.63 1.28 1.19 2.59 1.8 3.87.57 1.21 1.14 2.42 1.67 3.64.71 1.62 1.21 3.12-.48 4.23-2.85 1.88-7.14 2.04-10.44 1.86-3.61-.19-6.44-1.81-8.84-4.45-4.87-5.36-8.36-12.27-11-18.96-1.84-4.67-3.49-9.54-4.25-14.52-.55-3.55-.89-8.78 2.2-11.35.76-.63 1.65-1 2.58-1.26 1.92-.53 1.11-3.45-.82-2.98Zm102.19 18.54c-4.89 5.39-7.65 11.93-8.57 19.12-.42 3.29-.4 6.62-.15 9.92.13 1.6.31 3.19.54 4.78s.31 3.49 1.36 4.76c.83 1.01 2.35.33 2.7-.71.46-1.36-.15-3.16-.35-4.55s-.37-2.85-.48-4.28c-.25-3.06-.26-6.12 0-9.18.57-6.45 2.94-12.72 7.01-17.78 1.16-1.44-.78-3.5-2.08-2.08Z"/><path d="M155.02 79.08c.09.53.04-.05.03.26l.71-1.24c.65.18 1.31.35 1.96.52.31.63.05.2.08.11-.13.33.13.07 0-.05 0-.14 0-.14-.01 0-.07.79-.77 1.05-2.11.78.03.11.2.24.23.36.26.85.52 1.66.63 2.55.3 2.45.14 4.99-.11 7.44-.22 2.17-.69 4.26-1.38 6.33-.79 2.36-1.72 4.85-3.24 6.85l3.27.89a153 153 0 0 1 .77-11.51c.38-3.58.64-7.38 1.96-10.75.71-1.82-2.29-3.07-3.16-1.33s-1.15 3.49-1.42 5.33c-.3 2-.56 4.01-.79 6.03-.45 4.07-.74 8.15-.88 12.24-.06 1.92 2.31 2.15 3.27.89 2.02-2.64 3.23-6.18 4.13-9.35.81-2.86 1.01-5.92 1.03-8.88.02-2.79.06-6.43-1.81-8.72-.77-.95-2.29-1.58-3.08-.23-.4.69-.27 1.82.13 2.5.51.85 1.54.87 2.25.29.62-.5.41-1.37.25-2.02-.44-1.79-2.99-1-2.71.75ZM23.4 120.61c-4.11.24-5.52 6.32-3.06 9.62 2.47 3.3 6.87 4.37 10.91 5.14 28.09 5.4 56.69 7.65 85.26 9.09 5.38.27 10.83.51 16.12-.54 12.1-2.41 22.47-12.06 25.74-23.96-11.13 5.47-26.16.77-32.18-10.08-1.35 5.37-2.85 11.01-6.75 14.93-6.67 6.72-17.55 5.98-26.94 4.76-22.32-2.88-44.64-5.77-66.96-8.65"/><path d="M23.4 119.04c-4.35.07-6.59 4.48-6.11 8.4.62 5.07 5.33 7.79 9.83 9.06 5.7 1.62 11.74 2.4 17.58 3.34 6.48 1.04 12.98 1.93 19.5 2.71 12.83 1.53 25.71 2.55 38.6 3.34 6.46.4 12.95.88 19.43.98 5.74.09 11.5-.46 16.86-2.66 10.28-4.23 18.21-13.01 21.24-23.71.51-1.81-1.44-3.02-2.97-2.29-10.26 4.92-23.82.47-29.38-9.37-.86-1.53-3.34-1.23-3.77.49-1.48 5.89-3.15 12.47-8.61 15.93-5.05 3.2-11.32 3.29-17.09 2.87-3.32-.24-6.63-.78-9.93-1.21-3.94-.52-7.88-1.03-11.82-1.55-8.04-1.06-16.08-2.11-24.13-3.15-9.03-1.17-18.05-2.33-27.08-3.5-1.19-.15-2.21 1.13-2.21 2.21 0 1.32 1.02 2.06 2.21 2.21 16.66 2.15 33.31 4.3 49.97 6.42 7.64.97 15.29 2.16 22.98 2.73 6.17.45 12.94.2 18.44-2.96 6.95-3.99 9.4-11.58 11.24-18.9l-3.77.49c6.73 11.9 22.75 16.72 34.98 10.79-.99-.76-1.98-1.52-2.97-2.29-2.33 8.35-8.42 15.46-16.04 19.47-9.6 5.05-20.79 3.57-31.21 2.99-23.8-1.33-47.58-3.39-71.09-7.36-2.94-.5-5.9-.95-8.81-1.63-2.33-.54-4.82-1.28-6.59-2.98-1.26-1.2-1.83-2.74-1.58-4.48.22-1.61 1.04-3.04 2.73-3.32s1.32-3.11-.42-3.08Z"/></svg>