<?xml version="1.0" encoding="UTF-8"?><svg xmlns="http://www.w3.org/2000/svg" viewBox="0 0 180 180"><path d="M59.2 117.49c-1.79 1.84-1 5.13.94 6.8 1.94 1.68 4.62 2.16 7.15 2.55 15.54 2.39 31.88 3.64 46.6-1.88 1.89-.71 3.81-1.57 5.13-3.09s1.91-3.87.87-5.6c1.76.35 3.02 1.99 3.47 3.72s-1.13 8.14-1.35 9.92c-.61 4.96-.13 5.85-4.03 8.99-.64.52-1.35.96-1.9 1.57-1.05 1.17-1.36 2.8-1.64 4.35-.6 3.31-1.19 6.62-1.79 9.93-.77 4.3-.61 10.1-4.3 12.44-1.88 1.2-4.16 1.54-6.37 1.86-9.16 1.33-20.02 1.61-28.73-1.53-.94-.34-1.9-.75-2.61-1.46-.91-.91-1.32-2.2-1.69-3.44-1.63-5.42-3.33-12.82-5.14-18.18-1.25-3.69-3.94-2.72-5.79-5.95-1.24-2.16-1.63-8.08-2.08-10.47-.36-1.96-.9-3.89-.89-5.9.01-2.57 2.09-6.11 5.09-5.45"/><path d="M58.05 116.35c-1.68 1.66-2.01 4.05-1.23 6.23.87 2.45 2.84 4.06 5.2 5.02 2.48 1.01 5.25 1.27 7.88 1.66 2.89.43 5.79.82 8.7 1.1 11.37 1.1 23.21.92 34.13-2.8 2.75-.94 5.76-2 7.73-4.25s2.61-5.38 1.17-8.05l-2.27 2.96c1 .25 1.64 1 1.98 1.97.05.16.1.32.13.48-.09-.46-.02-.05-.02.08 0 .43-.03.85-.07 1.28-.19 1.87-.61 3.72-.97 5.56-.34 1.74-.48 3.49-.71 5.25-.19 1.44-.51 2.29-1.56 3.34-.83.83-1.76 1.5-2.66 2.24-1.16.95-1.9 2.16-2.38 3.57-.93 2.75-1.18 5.85-1.69 8.7-.46 2.55-.87 5.09-1.21 7.67-.26 1.98-.53 4.21-1.65 5.92-1.29 1.98-3.89 2.39-6.05 2.73-2.67.42-5.37.7-8.08.85-5.62.32-11.37.16-16.86-1.18-2.06-.5-5.16-.95-6.14-3.1-1.08-2.38-1.57-5.17-2.25-7.68-.74-2.74-1.47-5.49-2.26-8.23-.66-2.28-1.18-4.88-2.84-6.67-1.38-1.48-3.63-1.92-4.47-3.91-.73-1.74-.95-4.29-1.21-6.33-.34-2.63-1.11-5.28-1.25-7.92-.07-1.29.57-4.52 2.48-4.22 1.06.17 2.14-.27 2.45-1.39.27-.97-.33-2.25-1.39-2.45-2.74-.52-5.1.8-6.49 3.17-1.55 2.64-1.25 5.51-.68 8.39.48 2.42.79 4.79 1.15 7.24.32 2.17.63 4.6 1.9 6.45.7 1.03 1.58 1.84 2.63 2.51.76.48 1.69.84 2.24 1.58.7.94.92 2.35 1.26 3.45q.69 2.295 1.32 4.62c.82 3.05 1.59 6.12 2.44 9.16.8 2.85 1.54 5.87 4.37 7.37 2.64 1.4 5.84 2.05 8.76 2.53 3.18.52 6.39.76 9.61.77 3.17 0 6.34-.2 9.49-.57 3.06-.35 6.33-.58 9.18-1.81 5.32-2.29 5.77-7.92 6.46-12.97.43-3.16 1.1-6.3 1.66-9.44.25-1.39.4-2.86.87-4.21.53-1.54 1.9-2.23 3.09-3.22 1.71-1.43 3.08-3.1 3.51-5.33.24-1.26.33-2.54.47-3.81 0 .08.15-1.13.07-.64-.05.32.07-.39.08-.45.09-.49.18-.97.28-1.46.46-2.37 1.1-4.85 1.08-7.28-.02-2.94-2.15-5.79-5.01-6.51-1.74-.44-3.1 1.41-2.27 2.96s-.43 3.26-1.66 4.14c-1.73 1.24-3.92 1.88-5.93 2.5-4.48 1.4-9.11 2.25-13.79 2.62-9.51.75-19.09-.2-28.5-1.58-2.25-.33-4.93-.58-6.79-2.02-1.41-1.09-2.02-3.17-.89-4.65s-1.27-3.21-2.54-1.96Z"/><path d="M75.49 112.68c-3.77-.5-7.42-.52-11.14.32-1.74.39-3.45.92-5.09 1.6s-3.32 1.61-4.14 3.24c-.46.91-.32 2.01.53 2.64.78.58 1.99.6 2.69-.16 1.93-2.1 4.91-2.85 7.61-3.46 3.11-.71 6.35-1.14 9.54-.96.87.05 1.61-.77 1.61-1.61 0-.97-.74-1.49-1.61-1.61m26.68 2.7c3.92.33 7.85.62 11.72 1.32 1.4.25 3.07.49 4.22 1.38.44.34.77.8.94 1.27.2.53.06 1.24.24 2.01.37 1.52 2.25 1.84 3.32.88 1.91-1.72.86-4.91-.49-6.6s-3.41-2.6-5.46-3.07c-4.69-1.06-9.72-1.4-14.48-.77-2.26.3-2.36 3.4 0 3.59Z"/><path d="M40.4 81.62c14.74 1.27 28.13 12.17 33.02 25.99 1.71 4.84 2.28 9.89 3.58 14.82.58 2.19 3.97 1.75 3.96-.54-.03-4.77-1.19-9.7-2.66-14.23-1.36-4.2-3.24-8.25-5.81-11.85-4.75-6.64-11.4-11.61-19-14.52-4.17-1.6-8.62-2.37-13.08-2.56-1.88-.08-1.83 2.73 0 2.89Zm98.53 6.45c-9.53-1.25-19.75-.86-28.04 4.56-3.67 2.4-6.8 5.64-8.77 9.59-2.15 4.3-3.1 9.08-3.62 13.83-.31 2.82-.5 5.67-.59 8.51-.05 1.55-.07 3.11-.06 4.66s-.1 3.24.47 4.69c.68 1.75 3.15 1.95 3.77 0 .72-2.28.28-5.03.32-7.39.04-2.54.15-5.07.31-7.6.29-4.31.75-8.65 2.26-12.73 2.88-7.76 10.1-12.31 17.9-14.09 5.25-1.2 10.71-1.12 16.04-.61.92.09 1.69-.85 1.7-1.7.01-1.02-.79-1.58-1.7-1.7Z"/><path d="M67.65 94.26c-7.66 3.93-17 3.44-25.04 1.03-3.77-1.13-7.59-2.65-10.67-5.16-3.01-2.46-5.36-5.57-7.27-8.94-2.23-3.94-3.87-8.16-5.39-12.42l-1.53 2.7c8.95-1.98 18.31-3.3 27.5-2.95 8.05.31 15.82 2.63 21.17 8.94 2.61 3.07 3.73 6.96 3.76 10.94.02 1.99 3.18 2.56 3.58.48 1.6-8.32-4.34-16.56-11.3-20.51-8.48-4.81-18.77-4.72-28.19-3.89-5.94.53-11.85 1.45-17.68 2.75-1.1.24-1.92 1.62-1.53 2.7 2.91 8.14 6.37 16.7 12.99 22.57 3.46 3.07 7.57 5.03 11.93 6.47s9.33 2.38 14.09 2.38c5.33 0 10.74-1.34 15.17-4.38 1.67-1.15.23-3.66-1.59-2.73Zm54.64-11.46c3.93-5.66 11.86-5.95 17.91-4.35 7.73 2.05 14.46 6.69 22.03 9.19l-1.31-3.22c-3.1 6.55-8.22 11.86-14.77 15.03-6.73 3.25-14.53 3.56-21.61 1.3-4.3-1.37-7.73-3.81-11.31-6.46-2.16-1.6-4.44 1.76-2.76 3.58 2.92 3.18 7.16 5.36 11.15 6.86 4.04 1.52 8.43 2.26 12.74 2.18 8.41-.16 16.5-3.6 22.63-9.33 3.45-3.23 6.11-7.12 7.94-11.47.47-1.12-.52-2.38-1.53-2.7-8.31-2.59-15.58-8.04-24.27-9.49-7.33-1.23-15.36.68-19.56 7.28-1.1 1.73 1.58 3.24 2.73 1.59Zm-34.4-8.74c-.95 8.4-1.35 16.8-1.16 25.25s.65 16.84 1.2 25.24c.15 2.27.3 4.54.44 6.82.16 2.44.19 4.96.79 7.34s3.61 1.54 3.85-.52.02-4.07-.11-6.09-.27-4.22-.4-6.33c-.26-4.11-.55-8.22-.81-12.33-.54-8.33-.91-16.68-1.02-25.03-.06-4.79-.09-9.56.17-14.35.1-1.93-2.75-1.85-2.95 0"/><path d="M99.18 71.31c-4.77.7-9.66.73-14.47.48-1.21-.06-2.41-.14-3.62-.25-.68-.06-2.12.03-2.71-.43-.42-.33-.3-1.31-.32-1.77-.04-1.21-.07-2.42-.11-3.63l-.12-3.63c-.04-1.21.04-2.42-.48-3.48-.88-1.79-2.95-2.38-4.55-3.36a28.3 28.3 0 0 1-7.94-7.28c-4.16-5.68-6.49-13.19-4.22-20.09 1.97-5.98 7.39-10.06 13-12.42 6.97-2.94 14.79-3.8 22.28-2.93 6 .69 12.36 2.7 16.7 7.1 10.76 10.92 2.58 30.03-9.6 36.09-.8.4-1.71.65-2.4 1.24-.99.85-1.3 1.97-1.25 3.24.05 1.08.15 2.15.21 3.23.16 2.76.3 5.53.49 8.29 0 .03.03.62.05.62-.26-.04.61-1.22.62-1.23.22-.22.15-.12.06-.05-.26.19.14-.05.19-.06-.19.07-.38.13-.58.18-.23.06-.47.1-.71.14.43-.07-.2.02-.34.04-.59.06-1.18.09-1.78.12-2.49.11-5.01-.06-7.49.17-.57.05-1.15.13-1.71.24-.16.03-.32.06-.47.1-.22.07-.34.13-.6.24 0 0 .49-.2.21-.1-2.46.85-1.4 4.77 1.08 3.92.08-.03.23-.06-.08-.01-.53.09.36-.05.38-.05-.34.03-.32.02-.02.02h4.14c2.19 0 4.4.03 6.57-.2 1.82-.2 4.26-.53 4.88-2.6.24-.79.05-1.7 0-2.5-.07-1.16-.14-2.32-.2-3.48-.08-1.44-.16-2.88-.25-4.31-.06-.93-.42-2.43-.1-3.31l-.57.99c.38-.46 1.23-.64 1.79-.91.68-.33 1.34-.7 1.98-1.1 1.38-.87 2.69-1.87 3.91-2.96 2.48-2.2 4.62-4.84 6.36-7.66 3.75-6.05 5.51-13.08 4.19-20.15-1.11-5.95-4.65-11.03-9.66-14.37-4.82-3.22-10.62-4.7-16.32-5.32-6.78-.74-13.82-.06-20.3 2.09-5.48 1.82-10.9 4.73-14.67 9.21-8.83 10.49-5.19 25.47 3.82 34.59 2.28 2.31 4.94 4.32 7.81 5.83.32.17.65.31.96.49.1.05.3.12.37.21.14.19-.14-.33-.03.18.22.94.04 2.14.06 3.1.03 2.05.02 4.11.11 6.16.08 1.83.55 3.66 2.15 4.74 1.56 1.05 3.64 1.05 5.45 1.19 4.19.32 8.39.21 12.56-.36 2.06-.28 4.13-.58 6.18-.96.9-.17 1.39-1.24 1.17-2.07-.25-.96-1.17-1.3-2.07-1.17Z"/><path d="M75.19 59.92c7.72-1.26 15.56-1.77 23.37-1.53.64.02 1.37.09 1.74.62.2.29.25.66.28 1.02.36 3.68.73 7.36 1.09 11.04-7.11.71-14.26.93-21.39.66-.43-.02-.89-.05-1.19-.36-.25-.25-.31-.63-.35-.98a34.4 34.4 0 0 1 .05-9.01"/><path d="M75.19 61.57c5.98-.66 11.97-1.24 18-1.29 1.47-.01 2.93 0 4.4.04.31 0 .67.07.98.03.02 0 .89.15.24-.14-.21-.28-.27-.26-.19.05l.06.72c.03.32.05.64.08.96.26 3.04.57 6.08.86 9.12l2.06-2.06c-3.72.36-7.44.59-11.17.68-1.78.05-3.57.06-5.35.04-.97 0-1.95-.03-2.92-.05-.55-.02-1.65.16-2.07-.14l.76.76c-.29-.45-.21-1.29-.24-1.8-.06-.79-.09-1.58-.09-2.38 0-1.59.11-3.17.31-4.74.15-1.14-1.08-2.12-2.12-2.12-1.27 0-1.97.98-2.12 2.12-.39 2.99-.43 6.02-.05 9.01.19 1.48.77 2.78 2.31 3.26 1.32.41 2.91.25 4.28.27 6.17.1 12.34-.17 18.47-.79 1.02-.1 2.18-.86 2.06-2.06-.36-3.52-.69-7.04-1.1-10.56-.18-1.56-.47-2.98-2.04-3.69-1.4-.64-3.22-.43-4.71-.44-7.07-.03-14.2.46-21.12 1.94-1.79.38-1.43 3.46.44 3.25Z"/><path d="M86.89 62.61c.51-5.61 1-11.22.89-16.86a70 70 0 0 0-.64-8.17c-.35-2.53-.82-5.11-2.45-7.17-1.46-1.86-3.71-3-6.1-2.61-2.05.33-3.8 1.76-4.83 3.54-2.49 4.3-.04 9.32 3.43 12.22 3.74 3.13 8.62 4.81 13.5 4.55 4.75-.26 10.29-1.3 13.87-4.65 3.24-3.02 6.36-8.6 4.05-12.97-2.05-3.87-7.2-4.73-10.86-2.81-5.07 2.66-6.08 8.6-6.29 13.78-.26 6.49-.66 13.01-.67 19.5 0 2.44 3.58 2.38 3.75 0 .33-4.61.38-9.25.54-13.86.08-2.19.13-4.38.24-6.57.11-1.98.31-4.05 1.15-5.87 1.19-2.57 3.87-4.97 6.86-3.86 3.82 1.42 1.96 5.76.33 8.23-2.28 3.44-5.78 4.47-9.65 5.2s-7.71.65-11.29-1.17c-2.92-1.48-6.6-4.49-6.36-8.16.09-1.32.92-2.68 2.16-3.22 1.43-.62 2.8.43 3.52 1.62 1.16 1.93 1.35 4.49 1.59 6.68.27 2.47.41 4.96.47 7.44.11 5.06-.1 10.13-.3 15.18-.08 1.99 2.89 1.93 3.06 0Z"/></svg>