<?xml version="1.0" encoding="UTF-8"?><svg xmlns="http://www.w3.org/2000/svg" viewBox="0 0 180 180"><path d="M86.89 8.57c-11.21-.96-22.73.44-33.3 4.36-10.71 3.98-20.43 10.58-27.05 20-3.84 5.46-6.4 11.81-7.96 18.27-1.74 7.22-1.85 14.42-1.46 21.79.31 5.93 1.14 12.12 5.3 16.68 2.24 2.46 5.38 4.42 8.8 4.3 3.55-.12 6.3-2.4 7.57-5.64 1.11-2.84.94-6.1.97-9.1s0-5.82.02-8.73c.04-5.13.18-10.33 1.57-15.29 3.2-11.43 13.81-18.12 24.41-21.95 6.08-2.2 12.63-3.65 19.12-3.12 5.36.43 9.99 2.75 13.46 6.84 3.59 4.23 5.79 9.51 8.26 14.41 2.3 4.57 5.64 10.16 11.1 11.23 2.86.56 6.06-.16 8.37-1.95 2.02-1.56 2.91-3.93 3.18-6.4.52-4.82-1.13-9.8-2.66-14.3-3.81-11.22-11.19-20.97-21.74-26.63a38.6 38.6 0 0 0-8.72-3.4c-2.41-.62-3.3 2.85-1.01 3.68 5.39 1.94 10.58 4.59 14.91 8.38 4.12 3.6 7.42 7.98 9.88 12.86 2.1 4.18 3.67 8.83 4.63 13.4.43 2.04.76 4.41.34 6.36s-1.47 3.02-3.64 3.6c-4.87 1.31-8.07-3.86-10.03-7.48-2.56-4.74-4.56-9.79-7.69-14.21-3.08-4.34-7.04-7.79-12.15-9.49-5.77-1.92-12.15-1.51-18.03-.33-6.28 1.26-12.41 3.56-18.03 6.62-5.13 2.79-9.87 6.35-13.37 11.06-6.26 8.4-6.44 19.15-6.39 29.19.02 2.86.03 5.73 0 8.59-.02 2.39-.21 5.41-2.38 6.94-2.47 1.75-5.6-.29-7.37-2.09s-2.89-4.26-3.5-6.78c-.65-2.66-.81-5.41-.94-8.14-.15-3.32-.33-6.63-.13-9.94.43-7.08 2.2-14.2 5.22-20.62 9.29-19.73 31.97-29 52.71-29.78 2.56-.1 5.13-.06 7.69.09 2.12.13 2.08-3.1 0-3.28ZM37.95 100.7c-5.89 1.58-12.43 3.41-17.31 7.24s-6.17 9.98-6.18 15.94 1.05 12.53 3.12 18.41c1.95 5.54 4.73 11.18 8.81 15.47 1.94 2.04 4.26 3.68 6.91 4.66 3.1 1.15 6.42 1.01 9.66.89 3.4-.13 6.81-.28 10.2-.59 2.97-.27 5.95-1.22 8.15-3.32 4.67-4.45 4.92-11.46 4.27-17.45-.69-6.39-2.26-12.75-4.25-18.85-2.13-6.53-5.06-12.81-9.43-18.15-2.06-2.52-4.68-4.77-7.97-5.4-3.66-.71-7.61.6-10.87 2.19-1.82.89-.49 3.49 1.31 3.11 2.77-.58 5.52-1.56 8.38-1.03 2.45.45 4.21 2.13 5.75 3.97 3.34 3.99 5.73 8.8 7.51 13.66 1.89 5.14 3.3 10.52 4.32 15.9.54 2.84.91 5.71.96 8.6.04 2.57-.16 5.31-1.35 7.64-.99 1.92-2.65 3.82-4.84 4.3-2.74.6-5.65.75-8.44.9-5.21.29-11.05.86-15.34-2.71-3.78-3.16-6.26-7.85-8.15-12.31-2.08-4.91-3.44-10.17-3.9-15.48s-.72-12.01 3.31-16.14c2.01-2.06 4.7-3.34 7.24-4.6 2.92-1.45 5.92-2.66 9.03-3.63 2.05-.64 1.2-3.79-.89-3.22Zm93.47-33.66c-5.46 1.11-11.91 2.7-14.41 8.32-1.29 2.9-1.14 6.19-.93 9.29.2 2.9.58 5.8 1.13 8.66 1.14 5.95 3.1 11.74 5.73 17.2 1.3 2.71 2.8 5.33 4.46 7.83 1.49 2.24 3.06 4.57 5.11 6.33 2.21 1.91 4.89 3.14 7.86 2.7 3.02-.44 5.94-2.24 8.61-3.65 5.19-2.74 10.18-6.19 13.39-11.22 3.5-5.48 3.56-11.91 2.27-18.09s-3.66-11.6-6.73-16.89c-2.94-5.06-6.12-10.91-12.21-12.47-5.3-1.36-11.14-.15-15.95 2.26-1.8.9-.54 4.02 1.39 3.3 3.72-1.4 7.89-2.82 11.93-2.05 4.49.85 6.81 4.42 9.1 8.03 2.79 4.39 5.33 9.05 6.89 14.03 1.6 5.09 2.86 10.92 1.16 16.13-1.5 4.6-5.25 8.16-9.2 10.73-2.25 1.47-4.63 2.7-7.04 3.88-2.08 1.02-4.33 2.38-6.66 1.32-1.95-.89-3.42-2.74-4.65-4.44a66 66 0 0 1-4.24-6.71 66 66 0 0 1-5.86-14.35c-1.54-5.54-2.63-11.58-2.36-17.35.3-6.37 6.89-8.38 12.07-9.66 2.03-.5 1.17-3.53-.86-3.12Z"/><path d="M30.08 93.27c.02 1.2.28 2.42.51 3.6s.49 2.3.73 3.45.48 2.23.74 3.34 1.27 1.99 2.46 1.66c.97-.27 1.5-1.17 1.55-2.12.08-1.52-1.97-2.31-2.99-1.24l.94-.34.95.26-.08-.05.87 1.13c-.41-1.73-.85-3.45-1.3-5.17s-.85-3.61-1.64-5.26c-.64-1.35-2.77-.65-2.75.75Zm91.94-31.87c-.03.79.27 1.65.49 2.4.2.65.39 1.3.62 1.94s.47 1.28.72 1.91c.31.77.6 1.58.98 2.32.42.81 1.48 1.09 2.28.75s1.38-1.3 1.06-2.16c-.28-.74-.63-1.45-.95-2.17-.08-.18-.16-.36-.23-.54.16.39 0-.02-.04-.11-.14-.34-.28-.68-.41-1.02-.25-.64-.52-1.27-.77-1.9-.14-.36-.27-.73-.43-1.09s-.3-.78-.53-1.09c-.39-.52-1.02-.91-1.7-.69s-1.08.77-1.11 1.45Zm-69.1 98.11c2.92 5.52 8.91 8.92 15.06 10.01s12.47.16 18.56-1.2c4.61-1.03 9.11-2.5 13.68-3.71 3.08-.82 6.41-1.26 9.62-1.78 1.65-.27 3.3-.55 4.93-.93 1.21-.28 3.32-.46 4-1.7.1-.18.13-.39.16-.6.29-2.19.68-4.43-.35-6.51-.96-1.94-2.82-3.5-5.06-3.49-2.04.01-3.98.73-5.99 1.01-1.84.26-3.58.28-5.09 1.55-1.13.96-1.81 2.43-1.79 3.9s.76 2.85-1.13 3.41c-7.95 2.35-17.07 5.29-27.4 5.51-3.55.08-9.29-1.94-12.02-4.21-2.68-2.22-4.13-5.67-4.58-9.12"/><path d="M51.37 159.94c1.76 4.77 5.87 8.06 10.45 10.01 5.38 2.3 11.37 2.7 17.14 2.05 6.07-.68 11.96-2.21 17.82-3.88 3.01-.86 6-1.64 9.08-2.22 2.87-.54 5.77-.98 8.63-1.6 2.16-.46 4.91-.74 6.17-2.84.69-1.15.7-2.77.81-4.07.12-1.5.03-3.07-.52-4.49-.93-2.43-2.88-4.5-5.4-5.27-2.85-.87-5.79.41-8.61.8-2.83.39-5.43.86-7.07 3.48-1.07 1.71-1.47 4.18-.89 6.06-.13-.43.56-.29-.12-.16-.31.06-.62.2-.92.29l-1.68.54c-1.29.39-2.59.74-3.89 1.1-2.67.73-5.35 1.4-8.06 1.94-5.6 1.12-11.74 2.28-17.3.5-2.3-.73-4.71-1.77-6.42-3.52-1.96-2.02-2.86-4.77-3.25-7.5-.14-1.01-1.44-1.58-2.34-1.33-1.09.31-1.47 1.31-1.33 2.34.67 4.71 3.05 9.05 7.24 11.47 3.81 2.2 8.23 3.41 12.62 3.2 5.47-.25 10.86-1.27 16.15-2.67 2.45-.65 4.87-1.41 7.3-2.12 1.95-.57 4.84-.78 5.51-3.1.51-1.75-.59-3.69 1.19-5.01.77-.57 1.74-.79 2.66-.92 1.45-.21 2.86-.41 4.29-.73 2.2-.49 4.25-.84 5.62 1.31.62.97.74 2.01.69 3.14-.03.61-.09 1.21-.17 1.82-.03.22-.03.54-.11.75.22-.56.18-.14-.13-.14-.72 0-1.67.38-2.39.54a61 61 0 0 1-4.04.75c-2.85.42-5.73.72-8.54 1.32-5.61 1.2-11.01 3.21-16.61 4.46-6.04 1.34-12.51 2.27-18.6.67-4.89-1.28-9.02-4.17-12.05-8.2-1-1.33-3.65-.63-2.96 1.25Z"/><path d="M58.66 125.6c-1.81-7.26-3.58-16.22-10.35-20.57-1.98-1.27-4.29-2.15-6.65-2.09s-4.75 1.15-6.03 3.14l-1.98-3.06c-1.5 9.48-1.43 19.24.69 28.63 1.81 7.99 8.26 22.42 15.49 27.21 2.1 1.39 1.77 0 4.29 0 1.24 0 2.51-.19 3.58-.81 2.27-1.31 3.08-4.16 3.44-6.76 1.2-8.63-.39-17.33-2.47-25.7Zm-6.58 15.77c-.57.65-1.66.64-2.41.21s-1.25-1.18-1.68-1.92c-3.38-5.77-4.79-12.61-3.97-19.2l.2-.1c.2-.9 1.53-1.18 2.35-.7s1.23 1.39 1.57 2.25a66.8 66.8 0 0 1 4.31 17.35c.08.73.12 1.55-.37 2.11"/><path d="M60.59 125.07c-1.59-6.4-3.02-13.19-7.38-18.37-4.66-5.54-14.45-8.67-19.3-1.63h3.45l-1.98-3.06c-.84-1.29-3.37-1.34-3.66.48-1.32 8.53-1.48 17.15-.09 25.68 1.02 6.24 3.14 12.18 5.95 17.83 2.63 5.29 5.98 10.89 10.9 14.35 1.12.79 2.4 1.36 3.78.98.45-.13.86-.38 1.34-.45.89-.14 1.8-.06 2.69-.23 3.65-.68 5.71-3.8 6.47-7.22 2.08-9.28.05-19.32-2.19-28.37-.62-2.5-4.48-1.44-3.86 1.06 1.84 7.44 3.29 15.07 2.66 22.77-.2 2.42-.41 6.5-3.07 7.62-1.36.57-2.89.2-4.29.65-.3.1-.6.28-.91.34.06-.01.28-.05.34 0-.33-.25-.73-.43-1.06-.67-4.14-3.03-6.93-8.02-9.19-12.51-2.4-4.78-4.29-9.82-5.32-15.08-1.66-8.44-1.61-17.2-.3-25.68l-3.66.48 1.98 3.06c.85 1.32 2.59 1.26 3.45 0 1.74-2.53 5.25-2.5 7.82-1.46 2.51 1.02 4.62 2.9 6.11 5.14 3.05 4.57 4.14 10.12 5.44 15.36.62 2.5 4.48 1.44 3.86-1.06Z"/><path d="M50.66 139.95c.32-.3.12.06 0-.1-.14-.21-.46-.42-.62-.65-.48-.69-.87-1.46-1.24-2.21-.86-1.7-1.52-3.49-2.02-5.32-.99-3.66-1.22-7.44-.77-11.21l-.99 1.73c.38-.19.7-.45.92-.82.77-1.32-.36.35-.4.03-.01-.12.45.55.34.38.21.31.34.69.48 1.04.77 1.96 1.44 3.96 2.02 5.99s1.06 4.08 1.44 6.14c.19 1.02.36 2.05.49 3.09.07.51.14 1.02.17 1.53.03.59.09.46-.13.78-.62.88-.16 2.22.72 2.74 1 .59 2.11.17 2.74-.72.79-1.12.73-2.43.58-3.72-.17-1.46-.38-2.91-.64-4.36a66 66 0 0 0-2.04-8.3c-.41-1.3-.86-2.58-1.34-3.85-.46-1.2-.89-2.46-1.79-3.41-1.9-2.02-5.32-1.62-6.28 1.09l.92-1.2c-1.37.7-1.28 2.36-1.36 3.7-.08 1.25-.08 2.51 0 3.76.17 2.74.67 5.47 1.51 8.09.8 2.46 1.84 5.04 3.33 7.18 1.57 2.26 4.51 3.54 6.8 1.43 1.9-1.75-.94-4.57-2.83-2.83Zm80.05-67.25c-.51-.54-1.07-1.1-1.8-1.27-.77-.18-1.57.11-2.31.41-2.04.8-4.08 1.61-6.12 2.41l3.49-.74c.08.85-1.1 1.07-1.9 1.35-2 .71-2.51 3.28-2.53 5.41-.05 5.08.84 10.16 2.63 14.92.7 1.86 1.53 3.66 2.35 5.47 1.18 2.57 2.36 5.13 3.54 7.7 1.02 2.22 2.04 4.45 3.28 6.56a37 37 0 0 0 5.62 7.32c.54.54 1.12 1.09 1.84 1.32.83.27 1.74.11 2.6-.06 2.22-.43 4.7-1.05 5.83-3 .64-1.11.71-2.46.72-3.74.14-16.16-6.17-32.28-17.24-44.05Zm6.45 35.51c-.21.33-.5.62-.87.73-.38.12-.81.04-1.17-.13-1.05-.47-1.67-1.54-2.23-2.54-2.16-3.89-4.35-8.03-4.49-12.43-.12-1.15-.1-2.45.82-3.11.8-.57 1.98-.33 2.74.3s1.2 1.56 1.59 2.47c1.54 3.56 2.79 7.25 3.73 11.02.3 1.22.55 2.6-.11 3.67Z"/><path d="M132.13 71.28c-1.61-1.68-3.43-2.3-5.68-1.52-2.19.76-4.34 1.71-6.5 2.56-2.36.93-1.5 4.4 1.06 3.86 1.16-.25 2.33-.49 3.49-.74l-2.53-1.93-.02.26.27-1.01c.05-.12.34-.1.18-.11-.11 0-.34.11-.44.15-.4.15-.81.27-1.19.46-.84.43-1.53 1.14-2.02 1.93-.9 1.44-1.16 3.25-1.2 4.92-.12 4.5.61 9.13 1.95 13.43s3.55 8.66 5.49 12.88 3.67 8.36 6.3 12.1c1.28 1.81 2.69 3.57 4.26 5.13 1.74 1.73 3.53 2.27 5.95 1.86 3.81-.65 7.64-2.23 8.29-6.5s0-8.56-.61-12.6c-.6-3.99-1.59-7.93-2.93-11.74-3.05-8.68-7.84-16.66-14.12-23.38-1.76-1.89-4.58.95-2.83 2.83 9.83 10.53 15.83 24.55 16.57 38.94.09 1.76.31 3.78-.05 5.52-.32 1.54-1.6 2.14-3 2.54-.77.22-1.59.42-2.38.53-.98.13-1.38-.15-2.06-.83a33.4 33.4 0 0 1-3.64-4.32c-2.34-3.33-3.98-7.05-5.68-10.74-1.75-3.81-3.69-7.59-5.12-11.54a39.5 39.5 0 0 1-2.4-13.49c0-1.14-.07-3.07.95-3.85.54-.41 1.4-.47 2-.83.96-.57 1.41-1.46 1.49-2.55.1-1.37-1.35-2.18-2.53-1.93s-2.33.49-3.49.74l1.06 3.86c1.6-.63 3.21-1.26 4.81-1.89.68-.27 1.36-.58 2.07-.79s.9.1 1.4.63c1.79 1.86 4.61-.97 2.83-2.83Z"/><path d="M135.44 107.2c.1-.14.45-.2.45-.23 0 0-.56-.52-.57-.54-.34-.44-.59-.97-.86-1.45-.8-1.44-1.58-2.89-2.26-4.38-.65-1.42-1.17-2.9-1.5-4.42-.17-.78-.24-1.54-.3-2.33-.03-.44.04-1.22-.02-1.42-.16-.56.41.22-.16 0-.12-.04.2-.05.28.03.41.45.73.79 1.01 1.38.7 1.45 1.26 2.99 1.8 4.5.58 1.61 1.09 3.25 1.55 4.9.29 1.03 1.13 2.92.57 3.95-1.23 2.26 2.22 4.28 3.45 2.02.94-1.72.73-3.55.27-5.38s-.99-3.64-1.59-5.42-1.33-3.65-2.09-5.44c-.69-1.62-1.53-3.29-3.21-4.08-1.8-.86-4.06-.51-5.19 1.25-.89 1.39-.78 3.09-.62 4.67.37 3.74 1.86 7.18 3.6 10.46.82 1.55 1.61 3.39 2.97 4.55 1.91 1.63 4.38 1.5 5.85-.6.62-.89.16-2.22-.72-2.74-1-.58-2.12-.17-2.74.72Zm-110.21-.66c-2.65 8.23-3.32 17.06-1.65 25.56 1.45 7.39 4.59 14.93 8.87 21.13 1.19 1.72 2.46 3.4 3.87 4.95s3 3.44 4.88 4.29c1.59.72 2.91-1.01 1.83-2.37s-2.66-2.39-3.88-3.64-2.29-2.5-3.29-3.86c-2.1-2.86-3.8-6.03-5.24-9.26-3.16-7.07-4.98-14.53-4.79-22.3.11-4.65.87-9.27 2.13-13.74.5-1.76-2.17-2.48-2.73-.75ZM135.6 67.57c1.1 1.91 2.83 3.51 4.18 5.24s2.52 3.39 3.66 5.16c2.36 3.67 4.47 7.53 6.17 11.55 1.8 4.25 3.22 8.71 3.95 13.28.34 2.15.5 4.33.57 6.5.07 2.41-.12 4.84-.01 7.25s3.37 2.28 3.59 0c.36-3.71.2-7.65-.18-11.35s-1.2-7.65-2.42-11.35c-2.23-6.78-5.42-13.25-9.6-19.04-1.2-1.66-2.46-3.28-3.79-4.83s-2.61-3.17-4.31-4.23c-1.15-.71-2.47.69-1.82 1.82ZM27.31 89.11c2.01-1.96 3.8-4.18 4.17-7.05.4-3.14-.13-6.53-.33-9.68-.41-6.56-.69-13.38 1.02-19.79 2.73-10.25 9.97-18.87 19.07-24.13 4.99-2.89 10.48-4.7 16.09-5.92 6.32-1.38 12.94-1.9 19.37-.99 5.83.82 11.51 2.78 16.04 6.64 3.85 3.29 7.1 7.59 9.2 12.2 2.89 6.34 5.22 19.03 14.86 17.72.94-.13 1.43-1.32 1.22-2.14-.27-1.01-1.22-1.35-2.14-1.22-3.33.47-5.5-3.3-6.78-5.88-1.66-3.33-2.62-6.95-4.19-10.32-2.18-4.69-5.56-9.16-9.46-12.54-4.5-3.9-9.84-6.25-15.67-7.39-12.12-2.36-25.61-.19-36.73 5.06-9.7 4.58-17.83 12.46-22.09 22.36-2.86 6.66-3.47 13.71-3 20.89.25 3.77.54 7.53.74 11.3.09 1.64.32 3.33-.21 4.92s-1.64 3.06-2.77 4.36c-.95 1.08.54 2.61 1.59 1.59Z"/></svg>