<?xml version="1.0" encoding="UTF-8"?><svg xmlns="http://www.w3.org/2000/svg" viewBox="0 0 180 180"><path d="M80.16 114.43c-6.24-8.18-11.89-16.83-17.17-25.66-4.87-8.16-8.88-16.83-10.9-26.16-.99-4.55-1.54-9.32-1.25-13.98.25-4.08 1.51-8.1 3.37-11.73 3.84-7.5 10.17-13.84 17.88-17.31 14.83-6.69 34-1.82 44.93 9.87 10.17 10.88 13.16 27.79 6.89 41.37-4.06 8.78-8.98 17.29-14.28 25.38a202 202 0 0 1-17.69 23.17 216 216 0 0 1-4.8 5.24l2.69-.35c.67.51 0-.01-.16-.16-.24-.21-.48-.43-.71-.65-.57-.53-1.12-1.07-1.67-1.61-1.52-1.49-2.99-3.03-4.47-4.56s-2.89-3-4.26-4.56c-.53-.61-1.06-1.22-1.58-1.84-.04-.05-.4-.51-.09-.11-.09-.11-.17-.23-.25-.34-.12-.18-.25-.35-.35-.55-1.17-2.32-4.65-.28-3.48 2.03.65 1.28 1.63 2.42 2.54 3.51 1.4 1.7 2.87 3.35 4.36 4.97 2.46 2.67 4.99 5.49 7.89 7.69.75.57 2.07.31 2.69-.35 7.04-7.45 13.54-15.41 19.43-23.8s11-17.24 15.74-26.35c2.08-3.99 4-8.02 5.03-12.43.93-3.97 1.29-8.09 1.04-12.16-.51-8.03-3.21-15.95-7.94-22.48C113.24 16.24 93.71 9.14 76.58 13.4c-8.9 2.21-16.54 7.74-22.08 14.97-2.79 3.64-5 7.72-6.4 12.09-1.45 4.51-1.76 9.17-1.43 13.88 1.46 20.85 13.74 39.03 25.84 55.32q2.4 3.225 4.86 6.39c.54.7 1.39 1.06 2.22.58.69-.39 1.11-1.53.58-2.22Z"/><path d="M84.75 38.72c-7.96 2.03-13.95 9.54-15.06 17.54-.51 3.66.07 7.46 2.21 10.54 2.04 2.93 4.95 4.95 8.24 6.26 6.4 2.54 14.2 2.03 19.82-2.09 5.44-3.99 9.09-10.69 8.89-17.52-.1-3.69-1.33-7.45-3.54-10.41-2.7-3.6-7.55-6.81-12.23-5.88-1.79.36-1 2.96.74 2.7 3.61-.55 6.66 2.29 8.57 5.05 1.53 2.22 2.34 4.73 2.42 7.42.16 5.4-1.99 10.67-6.06 14.26-4.1 3.62-9.76 4.51-14.96 3.18-5.17-1.32-9.89-4.99-10.01-10.7-.16-7.18 4.9-15.04 11.76-17.43 1.83-.63 1.11-3.41-.81-2.92ZM60.65 94.1c-9.36.74-18.71 1.57-28.06 2.47-6.32.61-17.05.25-21.35 6.98-2.85 4.46-.06 10.23 1.23 14.72 3.35 11.72 6.23 23.69 10.52 35.11 1.5 3.99 3.32 8.22 6.97 10.43 3.4 2.05 7.64 1.9 11.6 1.65 39.01-2.44 77.87-7.23 116.3-14.35 4.78-.88 10.4-2.53 11.82-7.17.71-2.3.13-4.79-.48-7.12-3.93-14.87-9.6-29.28-16.87-42.84-.88-1.64-1.8-3.29-3.15-4.58-3.07-2.93-6.94-3.83-11.14-3.21s-14.76 2.83-18.99 3.27c-1.44.15 2.73-.06 1.48.67-1.18.69-1.95 1.89-2.67 3.04-7.44 11.84-19.27 24.86-27.23 36.36-.89 1.28 2.06 1.37.51 1.26-1.06-.08-1.91-.86-2.66-1.61a225.5 225.5 0 0 1-28.47-34.62"/><path d="M60.65 92.38c-6.89.54-13.79.98-20.68 1.5-4.99.38-10.01.61-14.98 1.11-4.59.46-9.32 1.37-13 4.35-1.9 1.54-3.45 3.69-3.98 6.11-.63 2.87-.09 5.82.73 8.6 1.72 5.88 3.45 11.75 5.08 17.67 1.78 6.43 3.62 12.84 5.83 19.13 1.82 5.15 3.67 10.88 8.23 14.27 4.99 3.71 11.81 2.72 17.6 2.35 27.08-1.71 54.09-4.73 80.91-8.77q10.23-1.545 20.43-3.3c3.32-.57 6.63-1.16 9.94-1.77 2.48-.45 4.96-.9 7.32-1.81 2.28-.88 4.49-2.08 6.05-4.02 1.89-2.36 2.4-5.22 1.99-8.17-.43-3.12-1.45-6.19-2.34-9.2-.92-3.1-1.92-6.17-2.99-9.22a207 207 0 0 0-7.15-17.65c-1.35-2.93-2.77-5.84-4.27-8.7-1.41-2.71-2.8-5.61-5.19-7.62-2.17-1.82-4.7-2.98-7.52-3.35-2.38-.32-4.7 0-7.05.4-4.47.77-8.92 1.69-13.39 2.43-.75.12-1.85.3-2.39.37-.49.06-1.62.09-2.24.45-1.8 1.05-1.23 3.5.54 4.16.34.13.88.11 1.26.13.11 0 .21.01.32.02.26.03.22.02-.13-.03.09.01.18.03.27.05-.36-.19-.45-.22-.28-.11l-.82-.82.03.05-.31-1.15v.06c.1-.38.21-.76.31-1.15.05-.08.94-.74.43-.5-.25.11-.47.33-.68.5-.32.26-.62.52-.89.82-.67.75-1.23 1.59-1.76 2.44-.98 1.55-1.99 3.07-3.04 4.58-2.28 3.27-4.69 6.46-7.14 9.6-4.95 6.35-10.07 12.56-14.82 19.06-1.06 1.45-3.11 3.41-2.62 5.38.19.79.75 1.48 1.46 1.88.3.17 1.8.88.72.26l1.15-4.23c-1.13-.06-2.36-1.82-3.12-2.59-1.38-1.4-2.74-2.82-4.08-4.25-2.74-2.93-5.39-5.93-7.97-9-5.17-6.17-9.99-12.62-14.47-19.31-1.61-2.41-5.54-.15-3.91 2.29 4.85 7.26 10.11 14.25 15.76 20.92 2.78 3.29 5.66 6.5 8.63 9.62 1.46 1.53 2.92 3.06 4.44 4.54 1.39 1.35 2.75 2.21 4.73 2.31 2.28.11 3.04-3.14 1.15-4.23-.2-.12-.44-.2-.67-.26-.41-.11.08.11 0 .03-.16-.18.17.16.16.15 1.72 2.15-.24 2.36.57 1.57.36-.35.63-.9.92-1.31 1.25-1.75 2.54-3.48 3.84-5.19 2.68-3.51 5.44-6.96 8.19-10.42 2.76-3.49 5.52-7 8.16-10.58 1.3-1.75 2.56-3.52 3.79-5.33 1.05-1.54 1.93-3.33 3.15-4.73.57-.65 1.42-.97 1.85-1.74.64-1.14.22-2.58-.88-3.24-.59-.36-1.29-.43-1.96-.5-.21-.02-.42-.03-.63-.04-.42-.02-.64-.23.1.04l.54 4.16c-.99.57-1.31.28-.74.25.17 0 .35-.04.52-.06.48-.06.95-.12 1.43-.19.98-.14 1.96-.3 2.94-.46 2.11-.36 4.21-.75 6.31-1.14s4.05-.76 6.08-1.12c1.88-.33 3.79-.65 5.7-.37 2.39.34 4.62 1.55 6.16 3.41 1.78 2.15 2.94 4.96 4.19 7.43 2.69 5.32 5.14 10.75 7.32 16.29s4.14 11.26 5.82 17.02c.78 2.67 1.84 5.51 2.05 8.3.16 2.14-.53 3.92-2.27 5.2-1.7 1.26-3.81 1.89-5.84 2.37-2.76.66-5.59 1.09-8.38 1.59-6.22 1.11-12.46 2.16-18.7 3.15-25.26 4.01-50.68 7-76.19 8.98-6.12.48-12.34 1.22-18.48 1.22-2.46 0-4.95-.3-7.04-1.69-1.92-1.27-3.16-3.36-4.14-5.38-2.5-5.16-4.1-10.89-5.73-16.37-1.75-5.86-3.32-11.77-4.94-17.67-.76-2.77-1.57-5.51-2.45-8.24-.7-2.2-1.49-4.61-1.17-6.96.54-4.08 4.96-6.04 8.47-6.93 3.78-.95 7.68-1.03 11.54-1.42 6.32-.63 12.63-1.38 18.96-2.02 3.12-.32 6.23-.6 9.36-.86 2.19-.18 2.21-3.61 0-3.44Z"/></svg>