<?xml version="1.0" encoding="UTF-8"?><svg xmlns="http://www.w3.org/2000/svg" viewBox="0 0 180 180"><path d="M21.55 115.13c-.89-12.06-2.34-24.06-3.61-36.08-.62-5.84-1.2-11.69-1.62-17.55-.1-1.36-.31-2.83-.08-4.18s1.05-2.44 1.96-3.41c2.07-2.22 4.38-4.25 6.65-6.26s4.72-4.05 7.17-5.96c1.2-.93 2.43-1.82 3.64-2.74 1.52-1.15 1.12-3.16 1.13-4.87.02-3.25.03-6.49.05-9.74 0-1.62 0-3.25.03-4.87 0-.24 0-.49.02-.73.02-.19.29-.55.06-.35.06-.06 1.11-.15 1.45-.2 13.1-1.75 26.2-3.52 39.32-5.13 1.92-.24 3.73-.66 5.42-.75 1.06-.05 1.31.06 2.18.23-.1-.02-.14-.05-.02.09-.18-.2-.04-.12-.01.07-.02-.21-.02-.16 0 .14v.73c-.01 1.72-.17 3.48-.05 5.19.1 1.35.42 2.67.72 3.98.27 1.15.63 2.37.53 3.57-.04.52-.06.13-.11.63-.05.55-.31.18.03.08.36-.1.68-.44 1.11-.44.75 0 1.53.58 1.68 1.33v1.21l-.2.46-.81.81-.95.27-.36-.04c.05-.07.35.24.01-.01.29.22.68.36.99.55.71.44 1.39.91 2.1 1.36 1.36.86 2.74 1.69 4.12 2.5 3.29 1.93 6.61 3.8 9.93 5.68 3.11 1.75 6.22 3.5 9.29 5.33 1.33.79 2.79 1.56 4 2.52 1.7 1.36 1.32 3.49 1.28 5.44-.42 20.42.74 40.87 3.41 61.12.68 5.14 1.44 10.28 2.31 15.39.42 2.5.87 4.99 1.34 7.48.31 1.64.91 3.93-.2 5.4-1.17 1.55-3.48 2.31-5.16 3.14-2.3 1.14-4.6 2.28-6.91 3.41-4.68 2.31-9.37 4.6-14.06 6.89s-9.24 4.49-13.87 6.71c-2.37 1.14-4.73 2.31-7.12 3.42-.95.44-1.86.76-2.92.7-1.19-.06-2.38-.42-3.54-.67-10.12-2.16-20.23-4.31-30.35-6.47-2.59-.55-5.18-1.1-7.77-1.66l-3.64-.78-1.7-.36c-.26-.06-.93-.11-1.13-.33-.33-.37-.3-1.5-.38-1.98-.15-.98-.29-1.96-.43-2.94-.28-2.02-.53-4.05-.8-6.08-1.13-8.66-1.94-17.37-3.12-26.02-.26-1.92-.53-3.84-.81-5.75-.15-1.02-1.45-1.59-2.35-1.34-1.1.31-1.49 1.32-1.34 2.35 1.83 12.42 2.38 25 3.89 37.45.35 2.83.2 6.74 3.01 8.37 1.38.8 3.12.96 4.64 1.28l5.83 1.23c7.61 1.61 15.22 3.21 22.83 4.82 3.72.79 7.45 1.57 11.17 2.36 1.76.37 3.52.82 5.3 1.02 1.97.22 3.71-.28 5.49-1.08 6.99-3.15 13.84-6.64 20.73-9.99 6.93-3.37 13.84-6.76 20.75-10.18 2.83-1.4 6.23-2.66 7.89-5.55 1.74-3.03.84-6.61.24-9.82-2.77-14.9-4.69-29.95-5.75-45.07a403 403 0 0 1-.97-33.79c.04-3.4.73-7.46-1.56-10.32-1.62-2.02-4.28-3.31-6.49-4.61-2.26-1.33-4.55-2.63-6.84-3.92-4.76-2.69-9.56-5.32-14.23-8.16-1.85-1.12-3.84-2.9-5.95-3.44-2.88-.74-4.67 3-1.96 4.5 2.72 1.51 4.57-1.5 4.84-3.8.31-2.71-.83-5.23-1.17-7.87-.2-1.56-.01-3.22 0-4.78.02-1.42.08-2.86-.69-4.11-1.2-1.95-3.57-2.45-5.71-2.39-1.04.03-2.09.19-3.12.35-.45.07-.9.15-1.35.23-.19.03-.39.07-.58.1-.27.04-.23.04.1 0l-.48.06c-3.87.47-7.73.97-11.59 1.47-7.53.97-15.05 1.98-22.57 2.98l-5.41.72c-1.81.24-3.59.34-4.87 1.78-1.1 1.24-1.17 2.91-1.18 4.49l-.03 5.84-.06 11.2 1.12-1.95c-4.93 3.6-9.67 7.46-14.14 11.61-2.05 1.91-4.28 3.82-5.87 6.15-1.81 2.66-1.74 5.62-1.45 8.69 1.09 11.48 2.73 22.9 4.21 34.34.83 6.42 1.61 12.84 2.19 19.29.18 2.04 3.37 2.08 3.22 0Z"/><path d="M37.29 39.17c9.68-1.6 19.34-3.25 29-5 4.77-.87 9.55-1.74 14.32-2.59 2.41-.43 4.82-.81 7.23-1.18 1.77-.27 2.41-1.13 2.54-2.85.1-1.32.28-2.68.17-4-.07-.84-.18-1.75-.62-2.49-.15-.25-.36-.52-.58-.72.25.24-.38-.32-.53-.41-.27-.16-1.99-.58-.65-.25-2.88-.71-4.11 3.73-1.23 4.44h.04c-.54-.53-1.07-1.06-1.61-1.6.11.34.02-.61-.03-.23s.11.82.19 1.21c.13.61.27 1.24.43 1.84.15.54.38 1.23.42 1.52s0 .56.03.84-.1.14 0 .08c.05-.03 0-.22.14-.42l.7-.7s-1.09.13-1.34.18l-1.33.27c-1.05.21-2.09.42-3.14.61l-6.39 1.17c-4.33.8-8.66 1.61-12.98 2.42-8.54 1.6-17.05 3.33-25.6 4.91-1.94.36-1.1 3.25.81 2.94ZM66.2 65.65c8.77-3.42 18-5.36 27.19-7.27 4.61-.96 9.21-1.92 13.77-3.09 2.2-.56 4.38-1.17 6.55-1.85s4.87-1.31 6.81-2.58c1.78-1.17.63-3.74-1.41-3.36-1.17.22-2.3.79-3.42 1.19s-2.28.8-3.43 1.18c-2.16.7-4.34 1.34-6.53 1.93-4.47 1.21-8.98 2.22-13.5 3.24-9.09 2.04-18.2 4.1-26.85 7.65-1.79.73-1.04 3.68.81 2.95Z"/><path d="M41.8 16.27c-.09 3.47.23 6.97.27 10.45.02 1.74.02 3.49 0 5.23-.02 1.63-.38 3.66.12 5.23.48 1.51 2.37 1.35 2.91 0 .34-.87.28-1.89.31-2.81.03-.8.04-1.61.05-2.41q.03-2.715 0-5.43c-.05-3.54-.05-7.16-.59-10.66-.27-1.78-3.01-1.27-3.05.41ZM51 14.7c.06 3.18.22 6.3 0 9.48-.11 1.59-.25 3.18-.36 4.77s-.33 3.21-.18 4.77c.21 2.25 3.24 2.22 3.48 0 .18-1.57.13-3.19.24-4.77s.26-3.3.36-4.96c.19-3.16.38-6.64-.59-9.7-.5-1.58-2.99-1.35-2.96.4Zm9.3-.54c.69 3.06.49 6.22.08 9.3-.21 1.55-.47 3.1-.71 4.65-.12.75-.22 1.5-.33 2.26-.12.87-.38 1.83-.29 2.71.19 1.86 2.44 2.1 3.15.43.33-.8.36-1.75.5-2.6.14-.88.26-1.75.39-2.63.24-1.66.47-3.32.64-4.99.34-3.31.31-6.68-.58-9.91-.51-1.84-3.27-1.06-2.85.79Zm9.46.13.16.08-.5-.5q-.09-.39-.03.18c0 .17 0 .33.02.5l.09 1.16c.04.66.09 1.33.12 1.99.08 1.44.09 2.89.04 4.34s-.14 2.89-.31 4.33-.5 2.85-.67 4.28c-.22 1.91 3.11 2.38 3.38.46.03-.25.07-.5.1-.75.11-.79-.12-1.56-.92-1.88-.7-.28-1.62-.07-1.99.65-.11.22-.22.44-.34.65 1.05.44 2.1.88 3.14 1.33.52-1.72.69-3.62.87-5.4.17-1.66.25-3.33.23-5s-.14-3.42-.39-5.1c-.21-1.44-.38-3.85-2.34-3.81-1.28.03-1.88 1.85-.67 2.49Zm8.61-1.71c.63 2.71 1.2 5.32.88 8.12-.16 1.35-.39 2.7-.58 4.05s-.59 2.9-.5 4.26c.12 1.83 2.58 2.18 3.18.43.24-.69.26-1.48.36-2.21.11-.78.22-1.57.31-2.35.18-1.44.38-2.89.49-4.34.25-3.03-.46-5.86-1.41-8.71-.57-1.72-3.14-1.03-2.73.75m-4.54 142.26c-2.08-12.98-5.25-34.9-6.27-48-1.07-13.71-2.05-27.43-2.58-41.17-.03-.7.05-1.43-.23-2.07-.27-.62-.8-1.08-1.32-1.52-8.41-7.17-18.8-18.95-28.09-24.93l1.22 2-14.79 9.96c-1.49 1.01-3.02 2.04-4.09 3.48-2.29 3.08-2.09 7.28-1.79 11.1.48 6.12.97 12.23 1.45 18.35.35 4.45.7 8.91 1.06 13.36.77 9.74 1.54 19.48 2.6 29.19a495 495 0 0 0 4.5 31.62c16.19 5.77 34.91 3.54 49.9 11.94-1.84-7.25-.38-5.94-1.56-13.32Zm-34.96-20.77c-.59-.09-1.22-.19-1.65-.61-.48-.47-.57-1.2-.63-1.87l-4.44-51.51c-.06-.69-.07-1.5.47-1.93.43-.34 1.03-.3 1.58-.25 9.86 1 22.17 1.8 32.03 2.8l4.15 57.91c-10.51-1.52-21.01-3.03-31.52-4.55Z"/><path d="M75.75 154.3c-2.43-15.19-4.74-30.47-6.06-45.8-.87-10.04-1.54-20.11-2.11-30.18a703 703 0 0 1-.57-11.66c-.05-1.24.06-2.46-.34-3.6-.68-1.93-2.81-3.23-4.27-4.55a204 204 0 0 1-4.55-4.28c-6.84-6.57-13.51-13.62-21.5-18.81-1.69-1.1-3.76 1.06-2.74 2.74.41.67.82 1.33 1.22 2 .24-.91.48-1.82.72-2.74-3.63 2.44-7.26 4.89-10.89 7.33-3.17 2.13-7.11 4.12-9.15 7.48-1.89 3.11-1.94 6.94-1.7 10.46.29 4.22.66 8.43.99 12.65 1.38 17.48 2.52 35 4.54 52.42 1.12 9.7 2.53 19.36 4.22 28.98.12.7.78 1.18 1.4 1.4 16.01 5.63 34.3 3.36 49.42 11.74 1.54.85 3.37-.55 2.94-2.26-.53-2.12-.94-4.11-.96-6.27-.02-2.38-.24-4.7-.6-7.05-.17-1.07-1.5-1.66-2.46-1.4-1.14.31-1.56 1.39-1.4 2.46.33 2.13.43 4.23.46 6.38.04 2.36.53 4.67 1.1 6.95.98-.75 1.96-1.51 2.94-2.26-15.51-8.59-33.98-6.38-50.38-12.14l1.4 1.4c-2.9-16.53-4.81-33.17-6.2-49.88-.69-8.33-1.33-16.67-1.99-25-.33-4.21-.67-8.43-1-12.64-.28-3.55-.97-7.4-.33-10.94.34-1.9 1.14-3.44 2.6-4.72 1.56-1.37 3.43-2.44 5.15-3.6 3.97-2.67 7.94-5.35 11.91-8.02.88-.59 1.31-1.77.72-2.74l-1.22-2-2.74 2.74c6.9 4.48 12.75 10.5 18.63 16.2 2.88 2.78 5.76 5.57 8.79 8.19.86.74 1.2 1.03 1.23 2.19.03 1.31.1 2.62.16 3.94.11 2.57.24 5.13.38 7.69.97 17.66 2.3 35.27 4.65 52.8 1.14 8.51 2.38 17 3.74 25.47.17 1.07 1.5 1.66 2.46 1.4 1.14-.31 1.57-1.39 1.4-2.46Z"/><path d="M39.4 132.14c-.21-.03-.63-.04-.8-.16l-.09-.03c.22.21.25.14.1-.21.05-.52-.09-1.11-.14-1.63-.14-1.65-.28-3.3-.43-4.95-.26-2.97-.51-5.94-.77-8.91-.53-6.11-1.05-12.22-1.58-18.32l-.81-9.41-.36-4.21c-.06-.74-.13-1.49-.19-2.23-.06-.66.07-1.76-.19-2.33v-.36c-.2.17-.4.33-.6.5.02.03.76.04.87.05l1.81.18q1.98.195 3.96.36c2.69.24 5.38.46 8.06.68 6.01.49 12.01.96 18.01 1.56l-2-2c.47 6.51.93 13.02 1.4 19.53.75 10.39 1.49 20.78 2.24 31.17.17 2.4.34 4.81.52 7.21l2.53-1.93c-10.51-1.52-21.01-3.03-31.52-4.55-1.07-.15-2.15.26-2.46 1.4-.26.94.32 2.31 1.4 2.46 10.51 1.52 21.01 3.03 31.52 4.55 1.18.17 2.63-.49 2.53-1.93-.47-6.51-.93-13.02-1.4-19.53-.75-10.39-1.49-20.78-2.24-31.17-.17-2.4-.34-4.81-.52-7.21-.08-1.16-.85-1.88-2-2-5.92-.59-11.86-1.06-17.79-1.54-2.97-.24-5.95-.49-8.92-.75-1.38-.12-2.75-.25-4.13-.38-1.45-.14-3.02-.38-4.19.72-1.09 1.02-1.12 2.46-1.01 3.84.14 1.73.3 3.47.45 5.2l.87 10.15c.58 6.77 1.17 13.54 1.75 20.31.33 3.8.65 7.59.98 11.39.15 1.79.1 3.77.57 5.51.46 1.7 1.85 2.6 3.52 2.87 1.07.17 2.15-.27 2.46-1.4.26-.95-.32-2.29-1.4-2.46Zm42.16 19.23c3.1 1.51 6.54 2.64 9.59.37 2.87-2.13 3.5-5.46 4.25-8.73.44-1.89-2.36-3.3-3.29-1.39-.79 1.63-1.47 3.51-.99 5.34.41 1.57 1.56 2.92 3.17 3.3 1.74.4 3.46-.52 4.57-1.81s1.51-2.95 2.76-4.03l-3.19-1.32c-.16 1.45.97 2.74 2.33 3.09 1.63.42 3.36-.57 4.83-1.15 3.26-1.27 6.78-2.33 9.83-4.06 1.64-.93.51-3.37-1.25-2.97-2.25.51-4.4 1.48-6.55 2.3-1.08.42-2.16.83-3.25 1.25-.46.18-.93.36-1.39.54-.3.12-.59.23-.89.34-.64.04-.61.26.08.66.21-1.77-2.1-2.24-3.19-1.32-.8.67-1.37 1.54-1.88 2.44-.4.71-.76 1.64-1.46 2.11-1.67 1.14-.39-2.88-.25-3.32l-3.54-.48c-.21 2.16-.7 4.7-2.33 6.26-1.89 1.81-4.3.77-6.34-.21-1.87-.89-3.51 1.88-1.63 2.79Z"/><path d="M108.73 103.76c-.43-4.62-.78-6.1-.81-10.74-.03-6.61-1.55-12.71-2.08-22.7a334 334 0 0 0-39.6 11.22l5.71 57.91c13.11-4.47 26.25-8.97 38.68-15.07-.64-6.87-1.27-13.75-1.91-20.62Zm-5.09-.77c-1.99 4.29-6.17 7.41-10.78 8.44.23 2.4.11 4.82-.35 7.18-.12.62-.3 1.29-.81 1.67-.42.31-.98.35-1.51.35-2.78.04-5.56-.36-8.21-1.2-1.01-.32-2.04-.73-2.76-1.5-1.63-1.76-1.06-4.55-.38-6.85l.63-.84c-3.88-1.49-6.96-4.91-8.04-8.92s-.13-8.52 2.48-11.75c3.21-3.98 8.51-5.79 13.62-6.01 5.58-.23 11.61 1.49 14.93 5.97 2.82 3.8 3.18 9.17 1.19 13.46Z"/><path d="M110.73 103.76c-.25-2.71-.63-5.41-.75-8.13-.11-2.66-.1-5.3-.36-7.95-.57-5.8-1.46-11.54-1.78-17.36-.07-1.34-1.21-2.22-2.53-1.93a338 338 0 0 0-39.6 11.22c-.77.27-1.56 1.03-1.47 1.93.64 6.52 1.29 13.04 1.93 19.55 1.03 10.39 2.05 20.79 3.08 31.18.24 2.39.47 4.78.71 7.18.12 1.2 1.19 2.39 2.53 1.93 13.26-4.53 26.55-9.1 39.16-15.28.58-.28 1.05-1.08.99-1.73-.64-6.87-1.27-13.75-1.91-20.62-.1-1.08-.85-2-2-2-1 0-2.1.92-2 2 .64 6.87 1.27 13.75 1.91 20.62.33-.58.66-1.15.99-1.73-12.3 6.02-25.27 10.46-38.2 14.87l2.53 1.93c-.64-6.52-1.29-13.04-1.93-19.55C71 109.5 69.98 99.1 68.95 88.71c-.24-2.39-.47-4.78-.71-7.18l-1.47 1.93a336 336 0 0 1 39.6-11.22l-2.53-1.93c.32 5.82 1.21 11.56 1.78 17.36.25 2.59.25 5.16.36 7.75.11 2.79.49 5.55.75 8.33.1 1.08.85 2 2 2 1 0 2.1-.92 2-2Z"/><path d="M101.92 101.98c-1.88 3.9-5.39 6.53-9.59 7.52-.79.19-1.54 1.09-1.47 1.93.11 1.28.15 2.56.07 3.85-.06 1.02-.03 2.5-.5 3.43-.1.18-.05.15.16-.09-.29.02-.57.02-.86.02-.62 0-1.24-.03-1.85-.07-1.21-.09-2.4-.29-3.58-.57-1.74-.42-4.01-.79-4.13-2.93-.08-1.51.26-2.79 1.03-3.82.86-1.14-.14-2.51-1.2-2.94-3.58-1.43-6.3-4.86-6.9-8.66-.63-4.03 1.06-8.22 4.27-10.72 5.92-4.62 16.82-4.89 22.37.53 3.28 3.2 4.03 8.38 2.18 12.53-.44.99-.29 2.15.72 2.74.85.5 2.29.27 2.74-.72 2.22-4.96 2.09-10.98-1.19-15.48-3.05-4.19-7.96-6.26-12.99-6.83-5.15-.59-10.88.4-15.23 3.34-4.48 3.03-7.23 8.14-6.96 13.6.3 6.13 4.31 11.28 9.93 13.54l-1.2-2.94c-1.42 1.89-1.84 4.75-1.44 7.07.61 3.5 3.84 4.81 6.93 5.56 1.67.4 3.39.65 5.11.74s3.74.24 5-1.11c1.06-1.15 1.22-2.82 1.41-4.29.25-1.92.28-3.83.11-5.76-.49.64-.98 1.29-1.47 1.93 5.11-1.2 9.68-4.6 11.98-9.36 1.11-2.31-2.34-4.34-3.45-2.02Z"/><path d="M77.83 111.36c2.67-.16 5.41-.24 8.07.13 1.28.17 2.6.49 3.78 1 .54.24 1.06.53 1.57.84.63.39 1.24.99 1.9 1.28.79.34 1.65.35 2.29-.3.58-.58.74-1.58.3-2.29-.89-1.42-2.73-2.32-4.25-2.94-1.47-.61-2.98-.94-4.55-1.13-3.05-.38-6.08.04-9.11.38-.81.09-1.52.63-1.52 1.52 0 .78.69 1.57 1.52 1.52Z"/><path d="M84.42 109.64c1.61-2.1 1.7-5.01 1.92-7.54.14-1.53.29-3.06.39-4.6.08-1.36-.06-2.77-.89-3.91-1.8-2.48-5.27-1.7-6.99.47s-1.35 5.27.77 7.05 4.92 2.45 7.6 2.68 5.65-.06 8.01-1.32c2.13-1.13 3.53-3.53 2.85-5.95-.77-2.71-3.76-3.36-6.19-2.65-6.08 1.78-7.58 8.82-7.88 14.31-.05.96.86 1.78 1.78 1.78 1.04 0 1.68-.82 1.78-1.78.35-3.44.43-7.24 3.11-9.79.92-.88 2.42-1.75 3.75-1.43 1.1.26.74 1.72.12 2.35-1.2 1.21-3.23 1.49-4.85 1.58-2.03.12-4.05-.15-5.97-.82-1.23-.43-3.07-1.51-2.82-3.09.13-.82 1.77-2.52 2.41-1.34.45.83.16 2.09.09 2.99-.09 1.21-.17 2.43-.25 3.64-.13 2.01.07 4.25-1.17 5.96-.45.61-.1 1.57.5 1.92.72.42 1.46.1 1.92-.5ZM42.17 90.3c.12 2.13.77 4.63 3.23 5.04 1.18.19 2.12-.31 2.97-1.08s1.73-1.65 2.59-2.48l-2.75-1.14c-.04.73-.09 1.47-.11 2.2-.03.82.79 1.79 1.67 1.67 1.04-.14 1.95-.38 2.86-.92l-2.3-.6c1.01 1.41 2.47 2.21 4.18 2.48 1.85.28 3.71.02 5.56.23.72.08 1.38-.63 1.46-1.29.09-.76-.35-1.38-1.06-1.63-1.51-.53-3.09-.41-4.66-.5-.85-.05-2.03-.23-2.57-.99s-1.46-1.09-2.3-.6c-.52.29-1.02.44-1.61.54.71.54 1.41 1.08 2.12 1.61 0-.73 0-1.47-.02-2.2-.02-1.39-1.75-2.13-2.75-1.14-.5.5-1.01 1-1.51 1.5-.19.19-.98 1.23-1.28 1.24-.65.04-.69-1.52-.72-1.95-.06-.81-.65-1.51-1.51-1.51-.78 0-1.55.69-1.51 1.51Zm.75 12.26c2.67.34 5.33.72 7.98 1.13 1.35.21 2.7.43 4.04.66s2.81.62 4.18.6c.79-.01 1.47-.6 1.57-1.38.1-.85-.39-1.44-1.14-1.75-1.23-.51-2.69-.64-3.99-.86-1.4-.23-2.8-.45-4.2-.65-2.8-.4-5.61-.7-8.43-.94-.86-.07-1.59.78-1.59 1.59 0 .95.74 1.49 1.59 1.59Zm-.18 9.88c2.64.75 5.35 1.22 8.07 1.59 1.36.19 2.73.35 4.09.48.71.07 1.42.13 2.13.17s1.47.2 2.17 0c1.43-.42 1.43-2.11.38-2.91s-2.86-.57-4.07-.67c-1.37-.1-2.73-.24-4.1-.4-2.63-.32-5.24-.8-7.86-1.21-.82-.13-1.65.21-1.88 1.07-.22.81.27 1.66 1.07 1.88m4.86 11.45c.91.08 1.82.16 2.73.26l1.34.14c.46.05.93.14 1.39.11.85-.06 1.55-.6 1.67-1.47.11-.79-.39-1.68-1.21-1.86-.57-.13-1.15-.13-1.74-.15l-1.39-.06q-1.395-.06-2.79-.15c-.83-.05-1.62.77-1.59 1.59.04.92.7 1.51 1.59 1.59m3.42-71.96c17.65-4.18 35.35-8.11 53.01-12.27 2.26-.53 1.3-4.02-.96-3.48-17.64 4.2-35.22 8.62-52.86 12.8-1.92.45-1.11 3.41.81 2.95m95.89-31.19c-1.38 4.06-4.86 7.37-8.65 9.24-4.52 2.23-10.36 1.58-15.18.92-1.22-.17-2.45.3-2.81 1.6-.31 1.13.38 2.56 1.6 2.81 4.83 1 9.14 3.88 11.72 8.12 2.84 4.68 3.17 10.42 1.28 15.51-.91 2.43 2.9 3.95 4.14 1.74 2.44-4.34 5.36-8.79 9.68-11.46 5.16-3.18 11.13-2.27 16.79-1.24 2.42.44 4.06-2.75 1.74-4.13-5.21-3.08-10.89-6.39-14.08-11.74-2.54-4.26-3.28-10.36.18-14.33 1.78-2.04-1.07-4.99-3.01-3.01-4.86 4.98-4.62 12.82-1.6 18.69 3.37 6.56 10.09 10.65 16.23 14.28.58-1.38 1.16-2.75 1.74-4.13-6.74-1.22-13.75-2.13-19.95 1.51-5.16 3.03-8.75 8.14-11.63 13.26l4.14 1.74c2.31-6.16 1.69-13.36-1.71-19.01-3.13-5.2-8.49-8.99-14.43-10.23-.41 1.47-.81 2.94-1.22 4.41 6.12.85 12.89 1.36 18.57-1.61 4.4-2.3 8.86-7.02 9.62-12.1.3-2.04-2.46-2.9-3.15-.87Zm-.95 71.45c2.87-2.15 5.7-4.34 8.51-6.55 1.35-1.06 2.69-2.14 4.02-3.22.7-.57 1.41-1.15 2.11-1.73.81-.67 1.58-1.26 1.89-2.31.42-1.4-.9-2.33-2.14-2.14-.99.15-1.71.93-2.43 1.56-.64.56-1.29 1.13-1.94 1.69a286 286 0 0 1-12.15 9.97c-1.55 1.21.53 3.94 2.12 2.75Z"/><path d="M145.68 77.84c1.81 2.66 3.76 5.22 5.71 7.77.95 1.24 1.9 2.48 2.85 3.73l1.47 1.92c.67.88 1.28 1.95 2.55 1.85.81-.07 1.37-.49 1.64-1.25.41-1.16-.38-1.99-1.05-2.84l-1.48-1.91-2.97-3.81c-1.97-2.54-3.95-5.07-6.06-7.5-1.25-1.44-3.75.46-2.66 2.05Zm-.96 29.73c.14-.05.28-.09.42-.14.19-.06.39-.16.58-.25l.21-.09c.19-.1.34-.24.46-.42.14-.16.24-.34.29-.56l.06-.43c0-.22-.04-.43-.14-.63a.8.8 0 0 0-.21-.36c-.12-.18-.27-.32-.46-.42l-.39-.16q-.435-.12-.87 0l-.21.04c-.07.01-.15.03-.22.05-.14.04-.28.09-.42.13q-.33.075-.57.3c-.18.12-.33.28-.43.47-.12.19-.19.4-.2.62-.05.22-.04.45.03.67l.17.4q.225.375.6.6l.4.17c.3.08.6.08.89 0Zm9.77-3.77c1.91 0 1.91-2.97 0-2.97s-1.91 2.97 0 2.97m-2.76 9.32c2.16 0 2.17-3.36 0-3.36s-2.17 3.36 0 3.36m-.58-48.78c2.08 0 2.08-3.23 0-3.23s-2.08 3.23 0 3.23m7.11-5.99c2.09 0 2.09-3.25 0-3.25s-2.09 3.25 0 3.25m0 9.82c2.07 0 2.07-3.22 0-3.22s-2.07 3.22 0 3.22m-52.72-48.68c-.73 1.04.47 2.44 1.02 3.33s1 1.71 1.47 2.58.9 1.7 1.31 2.57c.21.45.42.9.61 1.35.05.11.09.21.14.32-.1-.23.01.03.05.13.14.33.25.68.44.99.48.76 1.4 1.09 2.24.74s1.24-1.24 1.04-2.12c-.13-.58-.47-1.17-.73-1.72q-.33-.705-.69-1.41c-.49-.96-1.01-1.91-1.58-2.82s-1.15-1.76-1.77-2.6c-.35-.47-.72-.97-1.12-1.4-.71-.74-1.82-.82-2.44.06Z"/><path d="M104.3 29.11c2.38-1.3 4.81-2.51 7.28-3.61 1.17-.52 2.33-1.04 3.51-1.52 1.32-.54 2.73-.95 4-1.59 1.8-.91.53-3.66-1.34-3.18-1.36.35-2.7 1.05-3.99 1.61s-2.52 1.11-3.75 1.73a96 96 0 0 0-7.22 3.99c-1.64 1-.18 3.5 1.51 2.58Z"/></svg>