<?xml version="1.0" encoding="UTF-8"?><svg xmlns="http://www.w3.org/2000/svg" viewBox="0 0 180 180"><path d="M123.22 44.26a733 733 0 0 0-49.36-2.5c-4.01-.07-8.02-.13-12.03-.15-3.38-.02-6.91.08-10.12 1.25-6.8 2.47-11.31 9.27-14.75 15.28-3.69 6.46-6.4 13.35-9.46 20.11-2.64 5.82-5.56 11.51-8.3 17.28-1.35 2.82-2.65 5.67-3.86 8.55-1.24 2.98-2.4 6.01-2.77 9.23-.4 3.45.61 6.98 3.31 9.29s6.43 3.41 9.91 4.12c3.9.8 7.91 1.14 11.86 1.59 4.1.47 8.2.91 12.31 1.36 1.97.22 3.94.43 5.91.65 1.55.17 3.22.27 4.27 1.57.97 1.2 1.75 2.55 2.7 3.77q1.545 1.995 3.33 3.78c4.51 4.51 10.2 8.03 16.47 9.45 6.11 1.38 12.54.65 18.17-2.1 2.67-1.31 5.17-3.15 7.14-5.38.98-1.11 1.85-2.32 2.6-3.59.67-1.14 1.31-2.66 2.79-2.86 1.65-.22 3.46.09 5.11.18 2.07.12 4.13.26 6.2.38 3.97.24 7.94.43 11.91.39 7.31-.07 15.45-.7 22.06-4.09 3.03-1.56 5.59-3.99 6.98-7.13 1.49-3.37 1.89-7.04 2.24-10.68.77-8.14.72-16.33.32-24.49-.2-4.09-.48-8.18-.79-12.26-.29-3.86-.5-7.76-1.09-11.59-.54-3.48-1.63-6.93-3.72-9.81-1.96-2.68-4.52-4.84-7.42-6.44-5.44-3.01-11.52-3.73-17.62-4.17-2.67-.19-5.36-.22-8.03-.43-2.39-.19-2.37 3.53 0 3.72 5.48.43 11.11.9 16.48 2.06 5.42 1.17 10.95 4.14 13.75 9.11 1.57 2.77 2.15 6 2.48 9.14.39 3.77.63 7.57.91 11.35.57 7.83.99 15.68.83 23.54-.08 3.84-.29 7.67-.69 11.49-.32 3.09-.75 6.33-2.45 9-1.59 2.5-4.42 3.95-7.16 4.86-3.37 1.11-6.93 1.71-10.45 2.04-7.43.69-14.91.23-22.35-.19-1.9-.11-3.81-.23-5.71-.3-1.68-.07-3.38.02-4.87.9-2.54 1.5-3.48 4.68-5.39 6.79-3.61 4.01-8.91 6.33-14.26 6.71-5.87.42-11.5-1.48-16.34-4.73-2.52-1.69-4.77-3.76-6.76-6.04a35 35 0 0 1-2.49-3.21c-1.03-1.5-2-3.03-3.64-3.94-1.42-.79-3.03-1.01-4.62-1.2-1.94-.23-3.88-.43-5.82-.64-3.94-.43-7.87-.88-11.82-1.29s-7.52-.7-11.23-1.42c-3.02-.58-6.77-1.26-9.11-3.43-2.28-2.11-1.92-5.29-1.16-8.02.71-2.58 1.77-5.07 2.85-7.51 2.51-5.68 5.33-11.22 8.04-16.81 2.73-5.63 5.09-11.42 7.72-17.1 2.94-6.36 6.15-13.07 10.99-18.23 2.26-2.41 4.7-4.2 7.97-4.93 3.18-.71 6.53-.55 9.76-.56 15.64-.06 31.29 0 46.91.78 3.79.19 7.56.48 11.34.8 2.12.18 2.11-3.13 0-3.31Z"/><path d="M12.36 113.9c-.38 7.45-.52 14.9-.21 22.35.15 3.63.41 7.25.88 10.85s1.35 7.01 3.86 9.66c4.65 4.91 12.61 5.45 18.88 6.4 8.24 1.24 16.51 2.31 24.79 3.24 16.66 1.88 33.39 3.14 50.11 4.28 8.33.57 16.68 1.3 25.02 1.57 4.16.13 8.32 0 12.43-.7 3.6-.62 7.15-1.88 9.89-4.38 5.15-4.69 5.93-12.26 6.94-18.73.65-4.15 1.28-8.3 1.79-12.47.24-2.02.45-4.04.62-6.07s.16-4.21.25-6.33c.08-2.03.09-4.07.05-6.1-.05-2.09-3.06-2.05-3.22 0-.61 7.93-1.79 15.83-2.98 23.7-.56 3.69-1.12 7.38-1.77 11.05-.53 3.01-1.17 6.14-2.7 8.83-3.47 6.1-11.35 6.56-17.64 6.62-7.99.08-16.03-.77-24-1.31-15.91-1.07-31.81-2.25-47.68-3.83-7.84-.78-15.68-1.64-23.5-2.66-3.96-.52-7.91-1.08-11.86-1.66-2.97-.43-6.07-.82-8.86-1.98-3.21-1.33-5.15-3.71-5.97-7.08-.88-3.62-1.06-7.46-1.31-11.16-.55-8.02-.58-16.08-.87-24.11-.07-1.89-2.84-1.89-2.94 0Z"/><path d="M44.91 124.81c4.24-14.36 8.54-28.86 15.95-41.87.87-1.52 1.79-3.04 3.08-4.23 2.76-2.54 6.74-3.19 10.49-3.43 3.69-.24 7.4-.19 11.1-.09 16.51.41 33 1.69 49.38 3.82 3.93.51 8.29 1.32 10.63 4.51 1.82 2.48 1.95 5.78 1.94 8.86-.03 12.37-1.01 24.74-2.93 36.97-.09.56-.2 1.17-.59 1.58-.53.55-1.39.58-2.15.54-5.26-.22-10.42-1.45-15.65-2.03s-10.74-.45-15.45 1.88c-6.31 3.12-10.39 9.77-16.85 12.57-3.79 1.64-8.21 1.78-12.1.37-3.83-1.39-7-4.15-9.75-7.15-2.06-2.25-3.96-4.68-6.41-6.49-5.56-4.11-12.98-4.37-19.89-4.46"/><path d="M46.38 125.22c2.95-9.17 5.86-18.39 9.5-27.32 1.8-4.43 3.83-8.77 6.15-12.95 1.03-1.87 2.07-3.92 3.81-5.24 1.62-1.22 3.63-1.78 5.6-2.11 4.68-.79 9.61-.52 14.33-.4 5.2.13 10.4.35 15.59.66 10.39.61 20.76 1.56 31.08 2.85 3.48.44 8.04.61 10.74 3.18 3.13 2.99 2.32 8.51 2.25 12.41-.19 10.24-1.01 20.47-2.52 30.59-.12.77-.05 2.1-.48 2.76.25-.39-.23-.17-.63-.18-.72-.02-1.43-.08-2.15-.14-2.45-.21-4.86-.62-7.29-1.01-4.74-.77-9.54-1.5-14.35-1.05-4.5.42-8.58 1.89-12.18 4.64-3.16 2.42-5.84 5.41-9.04 7.78-3.38 2.5-7.35 3.9-11.59 3.27-4.27-.64-7.77-3.31-10.71-6.33-3.15-3.25-5.8-6.95-9.86-9.17-3.85-2.11-8.23-2.9-12.57-3.24-2.12-.17-4.25-.21-6.38-.25-2.81-.04-2.81 4.32 0 4.36 4.43.06 8.94.13 13.23 1.41 2.1.63 4.11 1.57 5.83 2.93 1.87 1.49 3.41 3.37 5 5.14 3.07 3.43 6.53 6.56 10.86 8.29 4.48 1.79 9.64 1.63 14.06-.27 7.97-3.42 12.36-12.06 21.09-14.1 4.79-1.12 9.81-.47 14.6.28 2.62.41 5.23.84 7.87 1.15 2.1.24 5.13.92 6.89-.62 1.81-1.58 1.7-4.81 2-7.01.36-2.6.69-5.2.97-7.8.58-5.42.98-10.86 1.2-16.31.11-2.68.17-5.37.19-8.06.01-2.32.02-4.68-.51-6.95-1.03-4.44-4.41-7.2-8.66-8.41-2.08-.59-4.24-.84-6.39-1.12a469 469 0 0 0-24.64-2.51c-10.75-.81-21.66-1.58-32.44-1.21-4.39.15-9.31.43-13.01 3.09-2.05 1.47-3.45 3.51-4.69 5.68-1.25 2.19-2.4 4.42-3.49 6.69-4.37 9.13-7.47 18.76-10.21 28.48-.68 2.43-1.34 4.87-1.99 7.3-.51 1.9 2.34 2.67 2.94.81Z"/><path d="M154.21 52.03c-.77 3.03-1.77 6.03-2.58 9.06s-1.65 6.23-2.44 9.36-1.52 6.1-2.26 9.15c-.76 3.12-1.67 6.25-2.24 9.41-.41 2.31 2.84 3.28 3.56.98.93-2.99 1.54-6.1 2.28-9.14s1.52-6.27 2.26-9.4c.72-3.06 1.41-6.13 2.08-9.2s1.2-6.36 1.93-9.5c.39-1.68-2.16-2.4-2.59-.71ZM52.96 47.02c.14 6.23.95 12.41 1.86 18.57.91 6.17 2.07 12.3 3.37 18.4.52 2.44 4.26 1.41 3.74-1.03-1.29-6.01-2.41-12.07-3.41-18.14s-1.76-12.14-2.84-18.17c-.28-1.55-2.75-1.17-2.72.37m16.77-16.66c-.72-1.46-1.7-2.82-2.53-4.22s-1.66-2.84-2.44-4.29c-.77-1.45-1.51-2.93-2.2-4.42-.34-.75-.68-1.5-1-2.26-.35-.83-.6-1.69-1.31-2.29-1.33-1.12-3.17-.36-3.32 1.38-.09 1 .43 1.89.83 2.78a85 85 0 0 0 3.5 6.86c.81 1.43 1.65 2.85 2.56 4.22.98 1.47 1.97 3.06 3.21 4.34 1.42 1.46 3.56-.39 2.71-2.09Zm25.66-2.94c0-2.83.2-5.68.64-8.48s1.27-5.61 2.01-8.42c.27-1.02-.34-2.12-1.36-2.4-1.08-.3-2.04.37-2.4 1.36-1.03 2.85-1.5 5.97-1.88 8.97s-.47 5.97-.31 8.97c.11 2.11 3.31 2.15 3.31 0Zm25.36 5.17c2.21-3.07 4.53-6.06 6.77-9.11 1.08-1.48 2.16-2.95 3.25-4.43 1.14-1.56 2.44-3.08 3.43-4.74 1.1-1.85-1.6-4.08-3.06-2.36-1.27 1.51-2.32 3.25-3.45 4.88s-2.15 3.1-3.22 4.65c-2.18 3.15-4.28 6.36-6.49 9.49-.5.71-.13 1.78.57 2.19.81.47 1.68.13 2.19-.57Zm24.51 5.71c1.08-.31 2.09-1 3.03-1.59s1.84-1.19 2.74-1.81 1.74-1.23 2.59-1.88c.49-.38.98-.75 1.46-1.14.71-.56 1.14-1.14 1.23-2.08s-.82-1.56-1.63-1.63-1.49.44-2.1.95c-.4.33-.8.66-1.21.98-.21.17-.43.34-.64.51l-.29.23c-.02.02-.29.22-.17.14.14-.11-.22.17-.25.19-.1.07-.19.15-.29.22-.22.17-.44.33-.66.49-.84.62-1.68 1.22-2.54 1.8-.92.63-2 1.21-2.78 2.02-1.07 1.1 0 3.05 1.52 2.61Z"/></svg>