<?xml version="1.0" encoding="UTF-8"?><svg xmlns="http://www.w3.org/2000/svg" viewBox="0 0 180 180"><path d="M55.84 32.07c-3.48 2.67-6.73 5.54-9.69 8.77-1.5 1.64-2.98 3.31-4.39 5.03-1.54 1.87-2.71 3.88-2.32 6.39.37 2.33 1.93 4.26 3.78 5.65 1.88 1.41 4.15 2.08 6.22 3.13 3.05 1.55 4.97 4.5 4.53 8.01-.46 3.62-3.69 5.39-7.05 5.71-3.99.37-7.88-1.08-11.83-.65-1.95.21-3.86.88-5.14 2.44-1.72 2.09-1.57 4.81-1.61 7.37q-.06 4.035-.06 8.07c0 4.035-.28 5.54.19 8.16.58 3.26 3.64 3.7 6.39 4.04 3.08.37 6.18.54 9.28.49 1.5-.02 2.99-.18 4.48-.21.07 0 .77.08.51 0-.33-.1-.19-.19-.04.13.29.65.64 1.28.95 1.93 1.36 2.81 2.72 5.63 4.08 8.44l.37-2.84c-2.35 2.49-4.69 4.98-7.04 7.47-2.16 2.29-4.81 4.54-6.43 7.26-1.72 2.89-1.26 6.14.42 8.93 1.53 2.54 3.62 4.97 5.66 7.12 3.91 4.11 9.85 7.46 15.64 5.42 2.38-.84 4.34-2.43 6.13-4.17 1.6-1.56 3.09-3.34 5.01-4.51 2.35-1.44 5-1.32 7.26.25 2.69 1.86 5.28 4.09 8.67 2.37-1.15-.89-2.31-1.77-3.46-2.66-.97 6.78-.38 13.63 2 20.08.36.99 1.17 1.73 2.27 1.73h17.37c1.91 0 3.78.19 5.46-.59 3.19-1.48 3.34-5.37 3.8-8.41.57-3.85 1.03-7.72 1.36-11.59l-1.17 2.04c1.55-.93 3.1-1.85 4.65-2.78.5-.3 1.8-.77 2.06-1.23l.22-.11q-.51-.165-.18 0c.34.21.64.6.92.88 2.33 2.34 4.3 5.03 6.75 7.25 4.51 4.11 10.58 6.28 16.29 3.23 2.46-1.31 4.48-3.36 6.31-5.43 1.84-2.09 4.12-4.26 5.36-6.77 1.48-2.98 1.12-6.21-.56-9.03-1.6-2.68-4.04-4.5-6.35-6.51-2.37-2.06-4.18-4.25-4.03-7.55.16-3.48 2.08-6.79 3.77-9.74l-2.04 1.17c4.52.38 9.06.4 13.57.03 2.04-.17 4.37-.18 6.01-1.57 1.59-1.35 1.86-3.34 1.96-5.31.22-4.64.28-9.29.23-13.94-.02-2.14.23-4.6-.34-6.68-.63-2.31-2.64-3.13-4.82-3.37-5.18-.58-10.37-.99-15.56-1.49l2.02 1.16a49.3 49.3 0 0 0-7.57-10.61l-.47 3.67c3.96-2.19 7.66-4.88 10.95-8 3.11-2.94 7.19-7.2 4.89-11.81-1.01-2.02-3.13-3.47-4.82-4.88-1.86-1.54-3.76-3.03-5.69-4.47s-3.91-2.89-5.96-4.17-4.44-1.97-6.75-.89-4.2 3.59-6 5.42c-2.07 2.11-4.14 4.23-6.21 6.34h3.26c-3.46-2.94-7.52-4.65-12.04-5.07l2.3 2.3c.52-4.5.81-9.01.83-13.54.02-3.62.43-8.53-3.3-10.59-1.59-.88-3.44-.98-5.22-.88-2.25.13-4.49.32-6.73.48l-13.72.99c-1.31.09-2.21.98-2.3 2.3-.47 6.71-.65 13.43-.52 20.15.56-.74 1.13-1.48 1.69-2.22-2.55.38-4.99 1.47-7.29 2.59s-4.49 2.38-6.56 3.84l3.14.82c-3.85-7.38-10.29-12.93-18.01-15.93-1.14-.44-2.49.49-2.79 1.58-.35 1.28.44 2.34 1.58 2.79 6.57 2.56 12.01 7.66 15.25 13.88.54 1.03 2.16 1.52 3.14.82 3.71-2.62 8.2-5.29 12.76-5.96.97-.14 1.71-1.3 1.69-2.22-.13-6.72.04-13.44.52-20.15l-2.3 2.3c4.08-.29 8.17-.59 12.25-.88l5.88-.42c1.49-.11 3.33-.51 4.79-.07 1.2.36 1.32 1.53 1.38 2.65.1 1.85.07 3.72.04 5.58-.07 4.04-.35 8.07-.82 12.09-.15 1.32 1.18 2.2 2.3 2.3 3.21.31 6.33 1.64 8.78 3.73.94.8 2.33.95 3.26 0 3.05-3.11 6.09-6.23 9.14-9.33 1.12-1.14 1.91-2.07 3.5-1.25 1.77.91 3.41 2.23 5.02 3.39 3.21 2.32 6.37 4.77 9.28 7.45 1.14 1.05 1.58 1.95.78 3.4-.88 1.58-2.29 2.87-3.58 4.11-3.06 2.91-6.47 5.37-10.17 7.4-1.36.75-1.47 2.6-.47 3.67 1.43 1.54 2.77 3.17 3.96 4.9.59.86 1.15 1.73 1.68 2.63.57.96 1.03 2.4 2.03 2.98s2.54.45 3.66.56l3.97.39c2.4.23 4.8.47 7.19.7.41.04 2.11.03 2.27.2s.03 2.16.04 2.59c.05 2.41.06 4.81.05 7.22-.02 2.41-.07 4.81-.16 7.22-.04 1.07.01 2.19-.15 3.25-.12.78-.38.82-1.14.94-5.08.78-10.5.58-15.6.16-.81-.07-1.66.5-2.04 1.17-2.19 3.82-4.38 8.03-4.42 12.54-.05 4.42 2.35 7.84 5.58 10.61 2.38 2.04 6.75 4.86 6.36 8.52-.2 1.84-1.87 3.33-3 4.66-1.23 1.44-2.43 2.9-3.77 4.23-2.44 2.43-5.41 4.33-8.97 3.32-3.95-1.12-6.7-4.54-9.3-7.49-1.38-1.57-2.87-3.6-4.76-4.59-2.4-1.25-4.56.28-6.59 1.49-1.06.63-2.11 1.26-3.17 1.89-1.28.76-2.46 1.29-2.65 2.92-.27 2.39-.45 4.78-.75 7.16s-.58 4.95-1.13 7.35c-.15.65-.21 1.15-.87 1.33-1.08.29-2.54.04-3.65.04H90.59l2.27 1.73c-2.07-5.6-2.85-11.64-2-17.57.29-2.02-1.5-3.66-3.46-2.66-.46.23-1.39-.54-1.75-.78-1.06-.72-2.02-1.6-3.16-2.2a11.12 11.12 0 0 0-7.82-1c-4.43 1.08-7.14 4.91-10.39 7.76-1.5 1.32-3.23 2.26-5.27 2.25-2.3-.02-4.53-1.07-6.31-2.47-2.05-1.6-3.72-3.67-5.33-5.69-1.29-1.61-3.58-4.08-2.62-6.32.48-1.13 1.47-2.03 2.29-2.9 1.17-1.25 2.35-2.49 3.52-3.74l7.21-7.66c.76-.81.83-1.87.37-2.84-1.18-2.44-2.36-4.88-3.55-7.33-.99-2.04-1.82-4.62-4.25-5.3-1.16-.32-2.35-.14-3.53-.07-1.38.08-2.77.12-4.16.11-2.61-.01-5.22-.17-7.81-.5-.52-.06-1.03-.17-1.54-.24-.14-.02-.3-.07-.44-.13.3.13.11.69.13-.05.02-1.14-.02-2.29-.03-3.44q-.03-4.035 0-8.07c.01-1.22.03-2.44.05-3.67s-.17-2.65.22-3.81 1.74-1.35 2.96-1.37c1.83-.03 3.62.37 5.43.58 2.11.25 4.21.32 6.32.04 4-.54 7.94-2.57 9.66-6.4 1.58-3.53 1.27-7.7-.62-11.05-.95-1.69-2.33-3.09-3.98-4.12-1.95-1.22-4.21-1.81-6.23-2.89-1.49-.79-3.68-2.5-2.98-4.46.38-1.06 1.3-1.96 1.98-2.82.73-.93 1.48-1.85 2.23-2.77 3.01-3.66 6.3-6.98 9.95-10.01 1.52-1.26-.54-3.98-2.13-2.76Z"/><path d="M109.38 69.65c-9.2-1.59-18.6 1.71-24.05 9.46-4.89 6.95-5.03 16.1-.59 23.3 4.2 6.82 11.91 11.24 20.01 10.29s15.13-6.1 18.11-13.63c1.99-5.03 1.91-10.95.76-16.17-1.05-4.74-4.07-9.44-8.96-10.82-1.81-.51-3.15 2.35-1.32 3.14 3.38 1.45 5.6 4.25 6.56 7.77.59 2.15.51 4.27.42 6.48s-.31 4.3-.9 6.38c-1.73 6.07-7.18 10.65-13.24 12.06s-12.61-1.18-16.51-6.23c-4.03-5.23-4.86-12.12-1.88-18.05 3.95-7.86 12.63-11.75 21.18-10.93 1.73.17 2.14-2.75.41-3.05M95.13 20.23l-16.2.87c-3.4.18-7.25.59-9.31 3.3-.87 1.14-1.29 2.56-1.7 3.94l-.96 3.25c-.11.37-.22.75-.13 1.12.1.4.41.71.7 1 3.33 3.24 6.65 6.48 9.98 9.71.41.4.84.81 1.39.94.65.16 1.31-.1 1.93-.34 1.94-.78 3.88-1.57 5.81-2.35.47-.19.94-.38 1.31-.73.87-.81.86-2.17.84-3.36-.1-5.01.58-10.04 2.01-14.84"/><path d="M95.13 18.69c-6.1.21-12.26.02-18.35.55-2.43.21-4.98.71-6.99 2.17-2.33 1.7-3.23 4.18-4.02 6.84-.4 1.35-1.06 2.85-1.03 4.28.03 1.55 1.19 2.53 2.22 3.53 2.32 2.25 4.64 4.51 6.95 6.76 2.13 2.07 4.03 4.5 7.28 3.28 1.42-.53 2.81-1.14 4.21-1.7 1.32-.54 2.97-.95 4.01-1.98 1.1-1.08 1.41-2.6 1.44-4.08.04-1.66-.02-3.3.08-4.95.22-3.42.86-6.78 1.82-10.07.73-2.52-3.18-3.59-3.92-1.08a51.8 51.8 0 0 0-2.1 15.15c0 .6.18 1.64-.24 2.14-.25.3-.95.42-1.3.56l-2.01.81c-1.11.45-2.31 1.13-3.48 1.38-.41.09-.25.09-.49-.04-.61-.33-1.17-1.14-1.67-1.63l-5.7-5.55c-.89-.87-1.78-1.73-2.67-2.6-.09-.09-.78-.55-.36-.15l.04.25c.05-.2.11-.4.17-.6.2-.7.41-1.39.62-2.09.56-1.91.98-4.08 2.78-5.22 1.53-.97 3.47-1.23 5.25-1.4 5.8-.56 11.64-.99 17.45-1.41 1.96-.14 2.01-3.16 0-3.09Zm43.37 16.34L123.13 35c-.59 0-1.24.02-1.65.43-.23.23-.36.55-.46.86a11 11 0 0 0-.51 3.7c.01.39.05.78.2 1.14.36.88 1.28 1.37 2.13 1.78 1.56.76 3.25 1.54 4.96 1.25 2.49-.42 4.01-2.87 5.74-4.71 1.08-1.15 2.34-2.13 3.73-2.88"/><path d="M138.5 33.37c-3.62-.31-7.27-.25-10.9-.31-1.68-.03-3.43-.18-5.1-.03-2.06.18-3.11 1.49-3.59 3.4-.4 1.61-.68 3.64-.12 5.25.54 1.57 1.93 2.43 3.35 3.12 1.61.77 3.37 1.54 5.2 1.43 1.6-.1 2.96-.72 4.2-1.71 1.15-.91 2.03-2.08 3-3.17 1.1-1.24 2.32-2.22 3.75-3.06 2.2-1.28.25-4.59-1.99-3.4-1.44.77-2.79 1.8-3.93 2.97-.97.99-1.8 2.12-2.79 3.1-.8.79-1.64 1.4-2.82 1.3-.79-.07-1.59-.43-2.3-.76-.51-.24-1.36-.51-1.74-.94-.34-.39-.21-1.03-.18-1.57.02-.3.41-2.13.41-2.13-.11.01-.2.07-.28.18-.12-.01-.04-.02.22-.02.37.11.94 0 1.33 0 .95 0 1.91-.02 2.86-.03 3.8-.05 7.64.04 11.43-.27 2.14-.18 2.14-3.14 0-3.33Zm1.45 117.09c.2-.02.23-.33.09-.46s-.36-.15-.55-.16c-2.2-.07-4.4-.12-6.59-.37-4.69-.53-9.31-1.93-14.02-1.72-.42-1.24-.85-2.5-.89-3.81s.36-2.7 1.34-3.56c1.2-1.05 2.95-1.1 4.54-1.1.33 0 .68 0 .98.14.36.16.62.47.87.78 1.9 2.35 3.81 4.7 5.71 7.05-.31 0-.62 0-.93.01"/><path d="M140.29 151.68c.77-.21 1.27-.88 1.21-1.69-.1-1.22-1.15-1.63-2.21-1.76-2.23-.27-4.49-.32-6.72-.66-4.55-.69-9.06-1.92-13.69-1.79l1.88 1.43c-.47-1.42-1.23-3.24-.59-4.72.51-1.19 1.89-1.24 3.02-1.27.31 0 .72-.05 1.03 0-.33-.18-.35-.15-.06.1.11.13.22.26.32.4.59.72 1.18 1.45 1.77 2.18 1.27 1.57 2.54 3.13 3.81 4.7.46-1.12.92-2.23 1.39-3.35l-.93.09c-2.4.23-2.44 3.59 0 3.77.31.02.62.04.93.07 1.87.13 2.35-2.15 1.39-3.35-1.67-2.07-3.35-4.14-5.03-6.21-.73-.9-1.4-1.84-2.57-2.17-1.07-.3-2.33-.19-3.42-.06-2.37.28-4.39 1.45-5.29 3.74s-.29 4.81.49 7.1c.27.79.99 1.46 1.88 1.43 3.53-.14 6.96.58 10.43 1.14 1.74.28 3.48.49 5.24.58.82.04 1.65.07 2.47.06.41 0 .82-.01 1.24-.02.28 0 .55-.01.82-.03.69.07.61-.17-.26-.72l.13-1.02-.09.13c-.67.93.43 2.13 1.43 1.86ZM91 159.84c-4.7-1.11-9.28-2.7-13.66-4.73-1.29-.6-2.63-1.29-3.37-2.51-.44-.72-.63-1.56-.77-2.39-.61-3.72-.2-7.6 1.17-11.12.2-.51.48-1.06 1-1.21.41-.12.83.06 1.22.22 2.55 1.1 5.1 2.21 7.65 3.31.38.17.79.35 1.01.7.22.34.22.78.22 1.18-.01 2.11-.03 4.22-.04 6.34-.01 2.14.05 4.5 1.51 6.07"/><path d="M91.4 158.41c-2.65-.77-5.28-1.61-7.86-2.61-1.27-.49-2.53-1.02-3.77-1.57-1.13-.51-2.37-.99-3.38-1.74-1.77-1.32-1.6-4.37-1.53-6.35.04-1.26.21-2.5.51-3.73.15-.61.48-2.62.99-2.84l-.98.27c.76-.09 1.93.7 2.65 1.01 1.07.46 2.15.93 3.22 1.39.13.06 2.61 1.07 2.58 1.15-.26-.51-.36-.54-.3-.08v.84c0 .56 0 1.13-.01 1.69-.03 3.7-.69 8.27 2.14 11.16 1.41 1.43 4.15-.52 2.87-2.22-1.13-1.5-1.14-3.34-1.13-5.14 0-2.2.17-4.45.04-6.65-.16-2.74-2.45-3.37-4.61-4.31-1.07-.46-2.15-.93-3.22-1.39-.99-.43-2.03-1.03-3.08-1.28-2.6-.62-3.73 1.61-4.4 3.67a23.1 23.1 0 0 0-1.09 6.45c-.06 2.06.06 4.39.82 6.33s2.31 3.16 4.13 4.03c4.64 2.2 9.59 3.83 14.64 4.79 1.87.35 2.66-2.34.79-2.88Zm-29.99-10.78-19.2-.09c-1.17 0-2.36-.01-3.47-.36-1.43-.45-2.63-1.41-3.78-2.37-1.8-1.5-3.57-3.02-5.32-4.58-3.25-2.9-6.63-6.35-6.86-10.7-.27-5.18 4.03-9.4 8.32-12.3.93-.63 1.91-1.27 2.46-2.25 1.54-2.75-1.15-6.1-.74-9.23.04-.29.11-.59.32-.79.27-.25.68-.27 1.05-.28 3.11-.02 6.23-.05 9.34-.07 1.65-.01 3.37-.01 4.88.66 2.73 1.22 4.07 4.26 5.17 7.04.19.49.39 1.03.21 1.52-.12.34-.4.6-.67.84a62.5 62.5 0 0 0-8.61 9.56c-1.12 1.53-2.19 3.16-2.64 5-.73 2.97.25 6.16 1.96 8.71s4.07 4.56 6.41 6.54"/><path d="M61.41 146.17c-5.74-.41-11.48-.58-17.23-.65-2.57-.03-4.75.12-6.89-1.48s-4.05-3.39-6-5.13c-2.98-2.65-6.82-6.09-6.4-10.5.4-4.25 4.34-7.33 7.59-9.57 2.17-1.5 3.84-3.39 3.67-6.19-.08-1.3-.45-2.54-.79-3.79-.18-.65-.79-2.26-.38-2.82l-.76.76c.12-.07.95 0 1.21 0 .57 0 1.15 0 1.72-.01 1.15 0 2.29-.02 3.44-.03 2.03-.01 4.31-.31 6.29.23 1.53.41 2.51 1.59 3.27 2.92.41.72.76 1.46 1.08 2.22.14.33.22.87.44 1.13-.13-.15.56-.44.08-.21-.28.13-.55.51-.79.73a63 63 0 0 0-8.27 9.4c-2.54 3.53-3.91 7.43-2.59 11.74 1.44 4.7 5.07 7.94 8.73 10.97 1.93 1.59 4.71-1.1 2.78-2.78-3.43-2.99-7.83-6.63-7.92-11.6-.05-2.47 1.35-4.47 2.76-6.38 1.53-2.05 3.21-4 4.98-5.84.82-.86 1.66-1.69 2.53-2.5 1.01-.94 1.97-1.83 2.02-3.32.03-1.12-.55-2.22-.98-3.22s-.88-2.01-1.47-2.94c-1.19-1.89-2.81-3.46-4.95-4.22-2.44-.86-5.23-.58-7.76-.56l-3.93.03c-1.31.01-2.99-.22-4.26.3-2.53 1.02-2.09 4.28-1.56 6.4.38 1.51 1.56 3.77.32 5.13-.63.7-1.54 1.15-2.3 1.7-.98.72-1.95 1.47-2.85 2.29-3.23 2.93-5.92 7.01-5.53 11.55.41 4.71 3.66 8.37 7.02 11.41 2.18 1.97 4.4 3.93 6.71 5.74 2.4 1.88 4.75 2.52 7.77 2.53 6.41 0 12.8-.09 19.2-.49 1.88-.12 1.88-2.79 0-2.92Z"/><path d="m37.65 75.44-19.38.63c-2.21.07-4.68.26-6.14 1.92-1.02 1.16-1.29 2.79-1.47 4.32-.44 3.6-.66 7.24-.66 10.87 0 2.26.09 4.55.79 6.69s2.1 4.15 4.13 5.14c2.05 1 4.46.85 6.74.68l10.4-.78c-2.01-.54-3.52-2.29-4.26-4.24s-.8-4.08-.73-6.16c.18-5.28 1.16-10.54 2.91-15.53"/><path d="M37.65 73.87c-5.63-.02-11.26-.01-16.89.06-4.65.06-9.98.04-11.71 5.31-.77 2.34-.81 5.06-.99 7.5-.19 2.74-.31 5.5-.2 8.24.19 4.7 1.68 9.98 6.36 12.06 2.6 1.15 5.42.95 8.18.74 3.22-.24 6.44-.53 9.65-.8 2.27-.19 2.9-3.38.55-4.08-4-1.2-3.63-6.79-3.42-10.02.29-4.56 1.26-9.04 2.75-13.36.85-2.48-3.07-3.54-3.92-1.08-1.81 5.23-2.85 10.75-3 16.29-.14 4.93 1.22 10.5 6.48 12.18.18-1.36.37-2.72.55-4.08-2.39.16-4.79.32-7.18.47-2.2.15-4.46.46-6.67.32-4.14-.27-5.7-4.07-5.96-7.74-.32-4.52-.05-9.3.62-13.77.25-1.69.67-3.07 2.45-3.57 1.89-.53 3.99-.44 5.94-.54 5.47-.28 10.93-.64 16.4-1.01 1.99-.14 2.03-3.12 0-3.12Z"/><path d="M42.89 58.05c-1.73.33-2.89 1.93-3.78 3.46a41.6 41.6 0 0 0-4.47 11.27c-.08.34-.15.73.06 1.01.17.23.48.3.76.36 4.18.89 8.52 1.79 12.69.82 1.23-.29 2.46-.75 3.4-1.59 1.24-1.11 1.88-2.73 2.4-4.31.39-1.19.76-2.43.64-3.68-.21-2.15-1.85-3.95-3.77-4.94s-4.1-1.32-6.24-1.63"/><path d="M42.89 56.61c-2.18.24-3.58 1.52-4.79 3.27-1.3 1.88-2.3 3.96-3.19 6.06-.88 2.08-1.7 4.25-2.13 6.47-.23 1.15-.05 2.34.98 3.06s2.44.79 3.61 1.02c4.5.88 9.91 1.61 14.11-.74 1.96-1.1 3.08-2.95 3.87-4.99.81-2.1 1.51-4.48.88-6.72-1.36-4.79-7.1-6.95-11.65-6.94-1.96 0-2.31 2.81-.46 3.38 2.62.8 5.49.75 7.52 2.88 1.87 1.96.88 4.8-.19 6.95-.52 1.06-1.2 1.88-2.29 2.37-1.33.6-2.91.77-4.35.81-1.59.04-3.18-.1-4.75-.36s-3.25-.4-4.65-.99l.84.49-.02-.03.26.96c-.07-.6.22-1.26.38-1.84.19-.69.39-1.38.61-2.06.44-1.38.95-2.75 1.55-4.07s1.18-2.53 1.88-3.73c.55-.94 1.3-2.04 2.37-2.43.68-.25 1.13-.83 1.03-1.58-.09-.64-.7-1.33-1.41-1.25Z"/><path d="M50.67 60.62c-4.09-1.26-8.17-2.51-12.26-3.77-2.59-.8-5.28-1.65-7.23-3.54-2.92-2.83-3.45-7.51-2.17-11.36s4.1-7.02 7.16-9.7c3.3-2.9 7.19-5.48 11.58-5.83 5.7-.46 10.94 2.88 15.69 6.08-3.88-.84-8.01.26-11.36 2.39s-6.01 5.2-8.24 8.48c-2.32 3.4-4.28 7.8-2.48 11.5"/><path d="M51.06 59.17c-4.86-1.97-9.94-3.31-14.83-5.18-1.87-.71-3.65-1.76-4.68-3.53-.94-1.61-1.21-3.49-1.09-5.33.28-4.25 3.29-7.83 6.27-10.6 3.12-2.9 7.02-5.86 11.45-6.07 5.3-.25 10.02 2.99 14.22 5.82.53-1.26 1.06-2.51 1.59-3.77-7.03-1.38-13.66 2.09-18.29 7.21-4.28 4.73-9 11.62-6.06 18.16.44.99 1.87 1.22 2.74.72 1.02-.59 1.16-1.75.72-2.74-1.04-2.32-.05-5.05 1.07-7.15 1.25-2.33 2.87-4.51 4.67-6.44 3.57-3.82 8.65-6.85 14.06-5.78 2.3.46 3.57-2.44 1.59-3.77-4.53-3.04-9.42-6.13-15.03-6.39s-10.4 2.71-14.43 6.18c-3.82 3.29-7.52 7.53-8.45 12.63-.9 4.93.56 10.05 4.83 12.96 2.49 1.69 5.53 2.41 8.38 3.22 3.48.99 6.95 1.99 10.49 2.75 1.93.41 2.56-2.18.8-2.89Zm43.06 14.08c1.9.14 4.26 2.84 5.16 4.51 2.49 4.63 4.06 10.2 2.47 15.44-1.48 4.87-5.22 9.36-9.38 12.2-1.09.74.84-1.03 1.43.15.25.5.79.78 1.3 1 7.88 3.47 17.96.95 23.28-5.81 5.32-6.77 5.7-16.74.47-23.58-.96-1.26-3.28-2.62-4.64-3.43-1.9-1.12-3.27-1.7-5.47-1.94-3.31-.36-6.59.69-9.91.9"/><path d="M93.73 74.66c2.31.64 3.81 3.58 4.72 5.58 1.32 2.9 2.15 6.12 1.99 9.32-.15 3.06-1.48 5.9-3.21 8.38-.84 1.2-1.82 2.3-2.87 3.32-.58.56-1.18 1.1-1.81 1.59-.28.22-.57.44-.86.64-.17.12-.89.47-.17.21l2.42 2.42v-.02c-.16.29-.33.58-.5.87-.54.49-.16.06 0 .05-.48.03-1.52-.98-1.25-.33s1.04 1.13 1.6 1.43c1.16.62 2.5 1.05 3.78 1.36 2.45.59 5.01.76 7.52.47 5.17-.6 10.2-2.87 13.76-6.73s5.76-9.5 5.69-14.97c-.07-5.19-1.98-11.04-6.27-14.23-2.33-1.73-5.09-3.44-7.97-3.97-3.86-.71-7.64.26-11.47.73-1.03.13-1.92.79-1.92 1.92 0 1.02.88 1.95 1.92 1.92 3.17-.09 6.26-1.12 9.44-.89 2.5.18 4.58 1.43 6.64 2.74 2.06 1.32 3.35 2.97 4.34 5.22.94 2.17 1.37 4.55 1.36 6.91-.03 4.79-1.99 9.54-5.53 12.81-3.33 3.08-7.92 4.74-12.44 4.72-1.24 0-2.46-.12-3.66-.39-1.06-.24-2.61-.5-3.48-1.2-.39-.31-.59-.8-1.14-1.08-.58-.3-1.25-.35-1.88-.22-.91.19-2.1.83-2.31 1.82-.28 1.34.91 2.96 2.42 2.42s2.83-1.87 3.98-2.91c1.42-1.3 2.69-2.77 3.82-4.34 2.29-3.19 3.82-6.95 3.95-10.9s-1.17-8.14-3.04-11.75c-1.34-2.58-3.95-5.81-7.15-5.8-1.64 0-1.99 2.43-.39 2.87Z"/></svg>