<?xml version="1.0" encoding="UTF-8"?><svg xmlns="http://www.w3.org/2000/svg" viewBox="0 0 180 180"><path d="M48.17 79.26c2.04-5.35 5.2-10.39 8.64-14.96s7.32-8.54 11.68-12.06c4.37-3.52 9.4-6.86 14.7-8.8 2.88-1.05 6.02-1.7 9.02-.75 2.39.76 4.25 2.61 5.47 4.74 3.1 5.4 1.78 11.8-.39 17.27-2.21 5.58-5.37 10.88-8.93 15.7-3.52 4.77-7.68 9.09-12.23 12.88-4.54 3.78-9.83 6.6-14.21 10.59-4.69 4.27-6.99 9.72-7.41 16-.21 3.14 0 6.29.11 9.43.11 2.85.39 5.96-.34 8.75-.31 1.18-.82 2.06-1.89 2.68-1.32.77-2.66 1.44-3.7 2.6-1.9 2.1-2.74 4.81-3.24 7.55-.57 3.1-1.02 6.18-1.81 9.23-.4 1.53-.82 3.05-1.3 4.56-.33 1.06-.78 2.33-1.85 2.87-.33.17-.64.22-.93.23-.19.01-.38 0-.58-.01-.58-.03.29.08-.04-.01-.18-.05-1.02-.39-.54-.14-.13-.07-.26-.13-.38-.21-.1-.07-.59-.45-.18-.11-.23-.2-.43-.41-.64-.63-.41-.44.24.37-.11-.13-.11-.16-.22-.32-.32-.48-.18-.29-.33-.58-.48-.88-.23-.44-.12-.2-.35-.84-1.25-3.45-1.46-6.76-1.58-10.41-.1-2.91.05-5.83.04-8.74l-.12-21.78c-.02-3.63-.04-7.26-.05-10.89-.01-3.32-.2-6.72.28-10.01.83-5.74 4.45-10 9.59-12.49 3.76-1.82 8.14-2.44 12.07-2.72 5.05-.35 9.96-.12 14.75 1.67 2.73 1.02 5.37 2.45 7.8 4.06 1.44.95 3.05-1.19 1.83-2.37-8.17-7.93-20.44-9.24-31.19-7.21-5.58 1.06-10.96 3.59-14.71 7.98-2.01 2.35-3.47 5.09-4.18 8.11-.85 3.6-.78 7.33-.75 11 .1 12.98.41 25.98.27 38.96-.04 3.89.05 7.8.65 11.65.55 3.54 1.63 7.53 4.66 9.75 1.52 1.12 3.42 1.5 5.27 1.21 3.3-.51 5.12-3.29 6.05-6.26 1.09-3.48 1.88-7.03 2.44-10.63.41-2.66.68-5.68 2.21-7.99.74-1.12 1.75-1.67 2.9-2.28 1.52-.81 2.84-1.91 3.65-3.46 1.45-2.78 1.47-6.1 1.44-9.17-.06-6.42-1.43-13.74 1.55-19.74 2.68-5.39 8.16-8.49 12.91-11.82 5.4-3.77 10.34-8.16 14.64-13.15 4.22-4.88 7.88-10.26 10.79-16.03 3.14-6.23 5.79-13.2 4.65-20.29-.96-5.97-5.1-11.77-11.23-13.16-6.75-1.52-13.53 1.95-19.12 5.39-10.32 6.36-19.42 15.77-24.66 26.76-1.27 2.66-2.4 5.42-3.45 8.18-.67 1.77 2.17 2.53 2.83.78Z"/><path d="M57.85 112.25c2.91 2.97 5.66 6.1 8.61 9.04 2.94 2.94 5.91 5.85 8.97 8.67 2.66 2.46 5.35 4.88 7.93 7.44 2.12 2.1 4.27 4.18 6.75 5.87 5.28 3.6 11.53 4.73 17.76 3.69 6.16-1.02 12.09-3.79 17.35-7.07s9.51-6.92 13.27-11.51c4.69-5.73 8.75-12.21 10.67-19.42 1.61-6.03 1.85-13.28-.96-19.02-1.07-2.19-2.72-4.06-4.4-5.8-2.29-2.39-4.58-4.76-6.87-7.15-11.3-11.82-23.35-22.89-35.75-33.54-1.57-1.35-3.14-2.65-4.83-3.85-1.87-1.33-3.95 1.55-2.4 3.12 2.76 2.78 5.86 5.23 8.81 7.81 2.96 2.59 5.89 5.2 8.79 7.85 5.81 5.3 11.5 10.72 17.02 16.31 2.74 2.78 5.43 5.6 8.1 8.45 1.76 1.88 3.64 3.66 5.34 5.59 1.29 1.47 2.38 3.16 2.95 5.03.84 2.76.97 5.78.77 8.64-.48 6.92-3.78 13.4-7.71 18.98-3.22 4.57-7 8.72-11.53 12.02-8.46 6.16-20.72 12.45-31.08 7.51-2.78-1.32-5.07-3.25-7.26-5.37-2.65-2.57-5.3-5.09-8.05-7.55-3.34-2.99-6.64-6.02-9.93-9.07s-6.7-5.97-9.95-9.05c-1.57-1.49-3.89.83-2.38 2.38Z"/><path d="M62.4 56.2c-.75-5.57-1.96-11.07-2.66-16.66-.61-4.8-1.09-9.91-.02-14.69.79-3.55 2.42-6.85 5.19-9.26 2.78-2.41 6.55-3.44 10.18-3.42 3.22.02 6.09 1.08 8.24 3.34 2.06 2.17 3.25 5.2 4.05 8.15.88 3.24 1.31 6.53 1.63 9.85.55 5.82 1.09 11.64 1.72 17.45 1.48 13.57 3.3 27.1 5.49 40.58.18 1.13 1.58 1.75 2.59 1.47 1.2-.33 1.65-1.47 1.47-2.59-2.01-12.79-3.76-25.61-5.19-38.48-.68-6.14-1.26-12.28-1.84-18.43-.35-3.69-.81-7.4-1.79-10.98-.95-3.5-2.42-6.88-4.8-9.65-2.49-2.88-5.96-4.5-9.71-4.92-4.29-.48-8.96.47-12.64 2.75-3.63 2.25-6.18 5.68-7.74 9.62-2.07 5.23-1.95 10.98-1.35 16.48.72 6.67 2.14 13.36 3.8 19.85.47 1.83 3.66 1.51 3.39-.46Z"/><path d="M98.81 91.71c-1.39.48-2.36 2.04-2.06 3.49s1.92 2.5 3.34 2.09 2.2-2.31 1.4-3.55-2.97-1.23-3.68.06"/><path d="M98.81 90.09c-.55-.06-1.23.21-1.69.49-.41.25-.8.59-1.1.97-.71.89-1.13 1.86-1.22 3-.08 1.14.41 2.2 1.1 3.06.58.73 1.47 1.27 2.36 1.52 1.07.3 2.23.18 3.2-.35.95-.52 1.58-1.4 1.98-2.38.73-1.8.02-4.12-1.78-5.01-1-.49-2.12-.65-3.21-.36-.61.17-1.11.47-1.59.86-.24.2-.44.45-.6.71-.19.32-.28.69-.29 1.06-.01.41.13.68.28 1.04.22.51 1 .95 1.54.89.62-.08 1.07-.19 1.53-.65.11-.11.22-.22.34-.32l-.39.3c.14-.1.28-.18.43-.25l-.46.2c.2-.08.4-.13.61-.16l-.52.07c.22-.02.43-.02.64 0l-.51-.07c.21.03.42.09.62.17l-.46-.19c.16.07.3.15.44.25l-.39-.3c.13.11.25.22.36.36l-.3-.39c.09.13.17.26.23.41l-.19-.46c.07.17.11.34.14.52l-.07-.51c.02.2.03.4 0 .61l.07-.51c-.03.25-.1.49-.2.72l.19-.46c-.09.21-.21.41-.35.59l.3-.39c-.13.16-.27.31-.43.44l.39-.3c-.16.12-.34.23-.53.31l.46-.19c-.18.07-.36.12-.56.15l.51-.07q-.33.03-.66 0l.51.07c-.22-.04-.43-.1-.64-.18l.46.19c-.25-.11-.49-.25-.7-.41l.39.3a3.3 3.3 0 0 1-.52-.53l.3.39c-.13-.18-.24-.37-.33-.58l.19.45c-.09-.21-.14-.43-.17-.65l.07.5a3.2 3.2 0 0 1 0-.76l-.07.5c.04-.28.11-.55.22-.81l-.19.44c.11-.26.26-.5.43-.73l-.28.37c.23-.29.49-.52.77-.75l-.36.27c.28-.21.58-.38.82-.63.45-.48.59-1.16.34-1.78-.11-.27-.27-.47-.5-.65-.31-.24-.6-.3-.98-.35Zm-40.05-6.88c9.68-11.18 22.73-19.41 36.99-23.34.99-.27 2.13-.5 2.98.08 1.24.85.98 2.73.5 4.15-3.33 9.77-10.6 17.6-17.67 25.12-.32.35-.69.71-1.16.76-.44.04-.85-.2-1.22-.44-2.69-1.74-5.3-3.65-8.22-4.97s-6.24-2.04-9.35-1.26"/><path d="M59.81 84.26c8.99-9.3 19.46-16.86 31.77-21.12 1.41-.49 2.83-.94 4.27-1.33.32-.09 1.45-.56 1.76-.32.25.19.07.9.03 1.13-.54 3.03-2.43 6.15-4.01 8.73-3.41 5.6-7.87 10.47-12.35 15.22-.29.31-.57.61-.86.91-.14.15-.27.29-.41.43-.28.23-.13.25.46.05.01-.02-2.36-1.56-2.57-1.7-1.65-1.1-3.31-2.19-5.09-3.08-3.63-1.83-7.71-2.86-11.74-1.86-2.57.63-1.48 4.5 1.09 3.95 3.84-.83 7.55.71 10.8 2.64 1.71 1.02 3.33 2.16 5.01 3.22s3.4 1.06 4.88-.38c2.63-2.58 5.08-5.44 7.45-8.26 2.39-2.85 4.66-5.82 6.59-9 1.79-2.94 3.63-6.31 4.41-9.69.37-1.61.38-3.48-.78-4.78-1.27-1.43-3.15-1.49-4.89-1.08-6.86 1.62-13.62 4.79-19.63 8.42-6.87 4.15-13.31 9.46-18.28 15.79-1.15 1.47.74 3.53 2.11 2.11Zm33.98 43.31c1.36 0 1.36-2.11 0-2.11s-1.36 2.11 0 2.11m9.88-6.31c1.95 0 1.95-3.03 0-3.03s-1.95 3.03 0 3.03m1.13 11.7c1.76 0 1.76-2.73 0-2.73s-1.76 2.73 0 2.73m7.33-7.94c1.71 0 1.71-2.66 0-2.66s-1.71 2.66 0 2.66m-72.54 3.7c2.89-.28 5.14-2.18 6.36-4.77 1.49-3.18 1.36-6.64 1.31-10.07-.03-2.51-.08-6.13 2.22-7.75 1.96-1.38 5.28-2.52 5.27-5.44 0-1.07-1.37-1.66-2.13-.88-.37.38-.65.78-1.11 1.06-.51.31-1.07.5-1.61.75-1.03.47-2.1 1.08-2.91 1.88-1.95 1.91-3.08 4.63-3.36 7.31-.33 3.12.42 6.24.16 9.36-.19 2.35-1.53 5.39-4.2 5.72-1.78.22-1.84 3.02 0 2.84Z"/><path d="M85.75 88.52c-6.68 7.19-10.92 16.26-15.04 25.16-.91 1.96-1.82 3.95-2.1 6.09a40 40 0 0 0-6.61-8.06c-.34-.32-.7-.67-.74-1.13-.02-.29.1-.57.22-.83 1.42-2.93 4.14-4.96 6.77-6.88l9.63-7.02"/><path d="M84.69 87.46c-4.16 4.37-7.59 9.44-10.46 14.73-1.42 2.61-2.73 5.28-3.98 7.97-1.36 2.92-2.98 5.89-3.46 9.11l3.46-.45a44 44 0 0 0-4.92-6.43c-.44-.48-.9-.95-1.37-1.4-.23-.23-.59-.45-.76-.72-.16-.25-.06.21.17-.08.75-.97 1.32-1.93 2.22-2.8 4.07-3.92 9.4-6.42 13.4-10.42 1.29-1.29-.34-3.25-1.89-2.45-3.04 1.56-5.8 3.9-8.56 5.9-2.36 1.71-4.87 3.37-6.77 5.61-.87 1.03-1.9 2.3-2.24 3.64-.43 1.67.52 2.75 1.63 3.83 2.24 2.17 4.18 4.59 5.84 7.24.78 1.24 3.2 1.26 3.46-.45.45-2.99 1.94-5.68 3.2-8.38 1.23-2.63 2.45-5.25 3.77-7.84 2.62-5.16 5.53-10.14 9.4-14.48 1.28-1.43-.78-3.53-2.12-2.12Z"/></svg>