<?xml version="1.0" encoding="UTF-8"?><svg xmlns="http://www.w3.org/2000/svg" viewBox="0 0 180 180"><path d="M95.43 66.66c-1.33-.96-3.58-.69-4.26-2.18-.23-.51-.19-1.09-.15-1.65.24-3.22.33-6.75-1.62-9.32-.37-.49-.83-.99-.86-1.6-.03-.73.55-1.33 1.09-1.82l2.83-2.59c1.07-.97 2.21-2.11 2.26-3.55.04-1.02-.48-1.96-.99-2.84-1.18-2.06-2.36-4.13-3.54-6.19-.54-.95-2.45-3.73-3.49-4.07-2.07-.67-3.77 1.71-5.8 2.47-3.57 1.34-6.63-2.13-9.69-3.34-6.55-2.59-13.62 1.31-18.44-5.47-1.17-1.65-3.32-3.7-5.44-3.87-.97-.08-1.94.11-2.89.33-3.14.72-6.41 1.67-9.35 2.99-2.44 1.09-4.74 3.3-4.59 5.96.16 2.81 2.89 5.87 1.06 8-.41.48-1 .78-1.54 1.11-3.1 1.86-5.4 5-6.22 8.52-.13.54-.26 1.16-.73 1.46-.39.26-.9.21-1.37.17-2.59-.22-5.21-.06-7.76.47-.75.16-1.53.37-2.06.91-.54.55-.73 1.35-.88 2.11-.55 2.78-.89 5.61-1 8.44-.03.82-.04 1.66.27 2.41.61 1.45 2.24 2.15 3.71 2.71 2.59.98 5.18 1.97 7.76 2.96-.73 4.62.58 9.48 3.4 13.2 1.11 1.46 1.07 3.46-.13 4.84-1.12 1.29-1.76 2.96-1.19 4.33.98 2.36 6.59 7.14 8.88 8.26 2.8 1.37 4.67-.95 7.21-2.76.59-.42 1.09-.97 1.75-1.27.71-.32 1.52-.31 2.3-.29 4.27.09 6.92.75 11.18.84.46 0 .94.02 1.37.18.78.29 1.29 1.01 1.89 1.6 1.78 1.74 4.46 2.31 6.94 2.06s6.44-1.78 8.75-2.72c1.26-.52 2.56-1.06 3.51-2.03.96-.97 1.49-2.5.91-3.73-.45-.97-1.55-1.78-1.34-2.84.11-.57.59-.98 1.03-1.37 2.25-1.98 4.22-4.55 4.51-7.53 2.85.53 5.99 1.01 8.5-.45 2.35-1.36 3.52-4.07 4.54-6.59.85-2.11 1.5-4.96-.34-6.28Zm-28.58 4.32c-3.61 4.52-9.78 6.72-15.5 5.86-1.89-.28-3.74-.88-5.37-1.88-3.96-2.44-6.19-7.21-6.05-11.86.22-7.85 7.07-13.25 14.27-14.8-.16.06-.33.12-.49.18 5.56-1.38 11.73 1.26 14.58 6.22 2.88 5.02 2.16 11.75-1.44 16.27Z"/><path d="M96.44 64.93c-.98-.63-2.16-.93-3.28-1.22a.57.57 0 0 1-.28-.18c.29.38.12-.54.13-.69.04-.79.11-1.57.12-2.35.05-3.06-.51-5.88-2.32-8.38l-.14-.19c-.22-.46-.27-.42-.16.13.29-.29.58-.57.88-.85l1.77-1.62c1.16-1.06 2.39-2.12 3.06-3.58 1.5-3.28-1.08-6.46-2.65-9.19-1.3-2.28-2.54-4.68-4.4-6.57-2.06-2.08-4.58-1.64-6.83-.1-.97.66-1.94 1.54-3.18 1.51s-2.48-.83-3.54-1.48c-2.31-1.41-4.51-2.55-7.23-2.94-4.67-.66-10.35.72-13.7-3.46-1.88-2.34-3.97-4.78-7.18-5.09-1.65-.16-3.3.3-4.89.69-1.74.43-3.47.93-5.17 1.53-2.93 1.04-5.84 2.25-7.69 4.89-1.82 2.6-1.26 5.34-.22 8.1.27.73.99 2.04.49 2.79-.25.38-.97.61-1.34.85-.67.43-1.3.91-1.9 1.43-2.23 1.92-3.9 4.55-4.73 7.37-.09.29-.15.59-.23.89-.04.17-.08.33-.14.5.51-.39.51-.56 0-.49-.59-.34-2.06-.1-2.75-.09-1.96.03-4.02.22-5.92.72-1.91.5-3.22 1.65-3.78 3.58-.52 1.76-.69 3.68-.91 5.49-.42 3.52-1.1 7.54 2.18 9.88 1.4 1 3.18 1.51 4.76 2.11 1.98.75 3.96 1.51 5.94 2.26-.47-.82-.93-1.64-1.4-2.46-.6 4.13 0 8.2 1.87 11.95.43.86.93 1.68 1.48 2.47.42.6.89 1.18.75 1.97-.15.84-.9 1.43-1.33 2.14-.53.88-.87 1.87-.96 2.89-.26 2.99 2.47 5.45 4.48 7.29 1.95 1.78 4.46 4.24 7.15 4.77 1.92.38 3.69-.34 5.23-1.47.77-.56 1.5-1.17 2.26-1.74.62-.46 1.27-1.22 2.04-1.39.92-.21 2.11 0 3.04.06s1.95.15 2.93.26c2.05.22 4.09.44 6.15.5.9.03 1.07.15 1.71.81s1.42 1.33 2.26 1.79c1.68.91 3.62 1.32 5.52 1.3 3.43-.05 6.81-1.46 9.94-2.74 2.05-.84 4.19-1.72 5.46-3.65 1.31-1.98 1.15-4.26-.19-6.15-.1-.13-.19-.28-.29-.41-.25-.31-.05-.41-.21-.14-.3.51.24-.02.24-.02.26-.14.49-.43.7-.63.79-.73 1.5-1.53 2.15-2.39 1.4-1.85 2.23-3.86 2.51-6.16l-2.53 1.93c2.58.47 5.28.91 7.87.24 2.46-.64 4.35-2.34 5.66-4.46 1.96-3.19 4.82-9.44 1.11-12.43-.84-.68-2.01-.82-2.83 0-.7.7-.84 2.15 0 2.83 1.03.83.53 2.29.17 3.39-.47 1.45-1.11 2.9-1.91 4.2-.82 1.33-1.91 2.32-3.46 2.68-1.81.42-3.76.04-5.55-.29-1.4-.25-2.36.57-2.53 1.93-.19 1.53-1.02 2.98-1.99 4.15-1.05 1.26-2.83 2.29-3.37 3.89-.28.84-.24 1.71.1 2.52.29.69 1 1.28 1.22 1.97.45 1.46-1.61 2.38-2.65 2.84-2.7 1.19-5.71 2.46-8.65 2.85-1.48.19-3.15.03-4.48-.69-1.45-.78-2.23-2.35-3.85-2.89-1.68-.56-3.72-.31-5.48-.47s-3.53-.4-5.3-.52-3.92-.38-5.62.46c-1.52.75-2.82 2.13-4.18 3.13-1.05.77-1.94 1.35-3.18.68-.95-.52-1.82-1.2-2.65-1.88-1.07-.88-2.11-1.81-3.08-2.8-.6-.62-1.73-1.59-1.95-2.49-.12-.48.18-1.1.43-1.52.53-.88 1.22-1.57 1.57-2.56.69-1.97.17-3.93-.99-5.58-2.31-3.27-3.53-7.32-2.95-11.33.17-1.15-.28-2.03-1.4-2.46l-4.8-1.83c-1.4-.53-2.91-.97-4.23-1.69-1.21-.66-1.3-1.31-1.26-2.64a48.5 48.5 0 0 1 .84-7.44c.09-.47.12-1.32.45-1.69.31-.35 1.22-.41 1.63-.49.88-.17 1.76-.28 2.65-.34 2.84-.2 6.77 1.07 7.98-2.41.39-1.13.59-2.25 1.15-3.32.62-1.19 1.4-2.24 2.37-3.16 1.98-1.89 4.97-2.67 5.11-5.86.06-1.25-.35-2.44-.78-3.59-.39-1.03-1.04-2.28-.9-3.42.31-2.57 3.54-3.75 5.59-4.5 1.41-.51 2.84-.95 4.29-1.35s3.39-1.17 4.95-.91c2.56.44 3.84 3.47 5.57 5.04 3.97 3.61 9.01 2.92 13.94 3.35 2.46.21 4.38 1.1 6.44 2.38 2.26 1.39 4.72 2.64 7.44 2.05 1.24-.27 2.31-.97 3.33-1.68.46-.32.95-.74 1.48-.94.17-.06.34-.11.52-.11.24 0 .01.03-.1-.04.74.47 1.35 1.48 1.83 2.19.72 1.06 1.33 2.2 1.97 3.31.88 1.54 1.94 3.08 2.66 4.69.66 1.47-.35 2.24-1.39 3.2-1.29 1.2-2.93 2.33-3.91 3.82-1.1 1.67-.43 3.27.61 4.73 1.85 2.58 1.26 5.67 1.24 8.63-.01 1.65.64 3.07 2.11 3.89 1.05.58 2.32.6 3.32 1.24 2.17 1.39 4.18-2.07 2.02-3.45Z"/><path d="M65.43 69.56c-4.38 5.35-13.41 7.65-19.23 3.14-5.44-4.22-5.5-12.51-.94-17.34 2.53-2.68 5.9-4.33 9.47-5.13l-1.06-3.86c-.16.06-.33.12-.49.18-2.39.88-1.48 4.45 1.06 3.86 4.58-1.07 9.66.97 12.14 4.99 2.64 4.28 2.11 10.22-.95 14.16-.66.85-.83 2 0 2.83.69.69 2.16.86 2.83 0 4.15-5.35 5.23-13.07 1.57-19.01-3.44-5.59-10.31-8.31-16.66-6.83.35 1.29.71 2.57 1.06 3.86.16-.06.33-.12.49-.18 2.39-.88 1.48-4.43-1.06-3.86-7.92 1.77-15.26 7.81-15.73 16.36-.23 4.28 1.38 8.72 4.36 11.81 3.3 3.42 8.34 4.82 13 4.42 4.97-.43 9.77-2.67 12.96-6.57 1.62-1.98-1.2-4.82-2.83-2.83Zm-24.39 35.81c-1.49 10.8-1.29 21.58.56 32.32.89 5.17 2.11 10.33 3.82 15.29.76 2.21 1.76 4.43 3.6 5.95 1.86 1.53 4.09 2.24 6.45 2.54 2.42.31 4.88.24 7.31.21 2.79-.03 5.59-.11 8.38-.23 5.66-.24 11.32-.65 16.97-1.16 11.28-1.03 22.51-2.56 33.73-4.11 10.58-1.46 21.26-2.76 31.58-5.58a98 98 0 0 0 7.53-2.36c2.25-.81 4.65-1.6 6.63-2.98 2.03-1.42 3.53-3.33 4.11-5.77.63-2.6.44-5.38.46-8.03.05-11.32.09-22.63.14-33.95.03-5.5.2-11.03.04-16.53-.14-4.78-1.02-9.63-4.33-13.29-2.8-3.1-6.94-4.71-10.95-5.48-4.75-.92-9.67-1.07-14.49-1.09-10.29-.03-20.49 1.33-30.64 2.9-2.67.41-5.3.86-7.93 1.45-2.44.55-1.96 4.67.6 4.43 5.08-.46 10.1-1.41 15.14-2.13 4.66-.67 9.34-1.22 14.04-1.53 4.97-.33 9.96-.38 14.94-.13 3.88.2 7.91.51 11.54 2 3.54 1.45 5.86 4.15 6.74 7.88 1.06 4.51.58 9.44.57 14.03-.04 10.73-.09 21.47-.13 32.2-.01 2.75-.02 5.49-.04 8.24 0 2.33.22 4.84-.19 7.15-.76 4.33-5.97 5.41-9.55 6.56-9.61 3.11-19.61 4.75-29.59 6.17-20.92 2.98-41.95 6.03-63.1 6.62-2.5.07-5.01.17-7.51.05-1.78-.08-3.75-.31-5.23-1.39-1.61-1.18-2.22-3.26-2.8-5.07-.77-2.38-1.46-4.78-2.06-7.2-2.46-9.83-3.39-19.93-3.21-30.05.04-2.49.18-4.98.4-7.47.17-2-3.27-2.5-3.54-.48Z"/><path d="M42.55 105.94c8.86 4.24 17.96 7.92 27.16 11.33q6.915 2.565 13.89 4.92c4.5 1.51 9.11 3.37 13.82 4.11 2.32.37 4.64.43 6.94-.13 2.15-.52 4.16-1.56 6.07-2.64 4.06-2.3 7.85-5.06 11.54-7.9 7.72-5.94 15.38-11.95 23.04-17.96 8.35-6.55 16.46-13.42 23.85-21.05 2-2.07-1.15-5.23-3.16-3.16-12.89 13.3-27.89 24.5-42.42 35.92-3.6 2.83-7.2 5.66-11.03 8.18-3.44 2.27-7.29 4.92-11.57 4.92-4.58 0-9.18-1.99-13.47-3.4-4.51-1.48-9.01-3.02-13.48-4.61-10.08-3.58-20.03-7.48-30.02-11.29-1.59-.61-2.7 2.02-1.16 2.76m21.52 37.69c3.73-.41 7.73-.93 10.81-3.26 1.5-1.14 3.16-2.87 3.09-4.89s-1.7-3.69-3.6-4.21c-3.93-1.07-7.51 2.1-7.62 6.01-.11 4.05 3.12 7.56 7.04 8.18 4.5.71 8.9-2.36 9.73-6.88.31-1.69-1.64-3.07-2.99-1.74-1.46 1.43-1.5 3.92.02 5.34 1.91 1.8 5.3.65 7.57.34 5.65-.78 11.33-1.51 16.93-2.64 1.52-.31 1.2-2.84-.37-2.73-4.14.29-8.29.79-12.4 1.33-2.03.27-4.05.54-6.08.8-.94.12-1.87.24-2.81.34-.32.03-.63.04-.33-.25-1-.58-1.99-1.16-2.99-1.74-.57 2.85-3.23 4.89-6.15 4.06-2.41-.69-4.81-3.83-2.94-6.25.64-.83 2-1.26 2.96-.75 1.66.87-.23 2.58-1.14 3.25-2.48 1.82-5.78 2.27-8.74 2.65-1.92.24-1.97 3.28 0 3.06Z"/></svg>