<?xml version="1.0" encoding="UTF-8"?><svg xmlns="http://www.w3.org/2000/svg" viewBox="0 0 180 180"><path d="M38.41 52.56c-4.12 12.72-8.87 25.24-13.39 37.83-2.26 6.29-4.46 12.61-6.52 18.96-.95 2.92-1.99 5.85-2.68 8.84-.67 2.92-.93 6.02.35 8.81 1.25 2.72 3.84 4.2 6.45 5.38 3.25 1.46 6.5 2.9 9.75 4.36 6.61 2.95 13.22 5.9 19.82 8.86l39.42 17.61c6.22 2.78 12.47 5.64 19.08 7.35 3.13.81 6.35 1.34 9.58 1.49s6.29-.4 8.58-2.85c2.2-2.35 3.58-5.39 4.75-8.35 1.22-3.08 2.26-6.24 3.36-9.36 2.4-6.81 4.8-13.62 7.15-20.45 4.62-13.42 9.01-26.91 13.02-40.53 1.6-5.43 3.05-11.93.43-17.28-2.51-5.11-8.23-7.09-13.28-8.72-26.29-8.5-53.14-14.99-79.65-22.72-3.26-.95-6.51-1.91-9.76-2.89-2.79-.84-3.98 3.52-1.2 4.35 25.58 7.66 51.54 13.96 77.25 21.17 3.04.85 6.08 1.72 9.11 2.62 2.68.79 5.41 1.52 8 2.59 2.26.93 4.58 2.24 5.97 4.32 1.55 2.31 1.79 5.09 1.49 7.79-.32 2.87-1.36 5.73-2.19 8.48q-1.5 4.95-3.06 9.87c-2.03 6.41-4.2 12.79-6.34 19.16-4.35 12.92-8.79 25.83-13.47 38.63-1 2.72-2.12 5.56-3.97 7.84-.78.96-1.68 1.73-2.91 2.02-1.49.35-3.15.15-4.66.02-6.36-.58-12.53-2.79-18.39-5.24-12.55-5.25-24.89-11.04-37.31-16.57-12.62-5.62-25.23-11.24-37.85-16.86-2.29-1.02-5.05-2.05-5.76-4.72-.67-2.54.22-5.33.95-7.76 1.79-5.93 3.77-11.8 5.8-17.65 4.23-12.24 8.63-24.42 12.53-36.76.92-2.91 1.8-5.84 2.64-8.77.58-2-2.47-2.82-3.1-.86Z"/><path d="M39.54 54.51c14.82 5.05 29.92 9.31 44.93 13.75 15.02 4.44 30.05 8.85 45.05 13.34 8.48 2.54 17.03 4.95 25.38 7.9 2.44.86 3.5-3.02 1.07-3.87-7.42-2.6-15.01-4.75-22.55-7-7.42-2.22-14.85-4.41-22.3-6.57-15.04-4.36-30.1-8.67-45.12-13.1-8.54-2.52-17.05-5.1-25.63-7.49-1.97-.55-2.75 2.39-.84 3.04Zm11.41-3.27c.12.02.24.03.35.05.27.04.44.08.74-.04h.04s.04-.02.05-.03l.43-.18c.21-.11.38-.27.5-.46.11-.11.19-.24.23-.39q.165-.315.15-.69l-.06-.48-.18-.43c-.11-.21-.27-.38-.46-.5a1.4 1.4 0 0 0-.61-.32l-.05-.02h-.03s0-.01-.01-.02c-.3-.11-.46-.07-.74-.04-.12.02-.24.03-.35.05l-.43.18c-.21.11-.38.27-.51.47-.11.11-.19.25-.23.4-.11.22-.17.45-.16.7l.06.48.18.43c.11.21.27.38.47.51.18.16.38.27.62.32Zm7.79 1.92c.12.02.24.03.35.05.27.04.44.08.74-.04h.04s.04-.02.05-.03l.43-.18c.21-.11.38-.27.5-.46.11-.11.19-.24.23-.39q.165-.315.15-.69l-.06-.48-.18-.43c-.11-.21-.27-.38-.46-.5a1.4 1.4 0 0 0-.61-.32l-.05-.02h-.03s0-.01-.01-.02c-.3-.11-.46-.07-.74-.04-.12.02-.24.03-.35.05l-.43.18c-.21.11-.38.27-.51.47-.11.11-.19.25-.23.4-.11.22-.17.45-.16.7l.06.48.18.43c.11.21.27.38.47.51.18.16.38.27.62.32Zm7.78 1.91c.12.02.24.03.35.05.27.04.44.08.74-.04h.04s.04-.02.05-.03l.43-.18c.21-.11.38-.27.5-.46.11-.11.19-.24.23-.39q.165-.315.15-.69l-.06-.48-.18-.43c-.11-.21-.27-.38-.46-.5a1.4 1.4 0 0 0-.61-.32l-.05-.02h-.03s0-.01-.01-.02c-.3-.11-.46-.07-.74-.04-.12.02-.24.03-.35.05l-.43.18c-.21.11-.38.27-.51.47-.11.11-.19.25-.23.4-.11.22-.17.45-.16.7l.06.48.18.43c.11.21.27.38.47.51.18.16.38.27.62.32ZM55.48 40c-5.59-3.44-13.3-5.61-19.78-3.89-6.63 1.76-10.93 7-15.49 11.72l3.3 3.3c2.43-2.62 3.35-6.16 3.83-9.61.5-3.61.82-7.29 0-10.88-1.63-7.09-7.19-12.23-11.72-17.58-.76 1.31-1.52 2.62-2.28 3.92 6.1 1.32 12.31 3.34 18.62 2.73 6.82-.66 12.73-4.21 18.46-7.69l-2.37-4.06c-2.16 1.46-3.09 4.1-3.75 6.51-.77 2.79-1.26 5.73-1.15 8.62.29 7.47 4.3 13.41 8.89 18.99 1.64 2 5.2-.7 3.62-2.79-3.53-4.69-7.33-9.41-7.77-15.51-.17-2.38.12-4.7.68-7.01.25-1.06.54-2.14.95-3.16.14-.35.32-.7.51-1.03-.01.02.41-.63.22-.36.07-.1.56-.46.18-.2 2.48-1.68.24-5.65-2.37-4.06-5.06 3.07-10.46 6.61-16.52 7.09-5.77.46-11.37-1.38-16.95-2.59-2.37-.51-3.8 2.13-2.28 3.92 3.83 4.52 8.72 8.89 10.34 14.81.8 2.94.55 6.01.19 9-.31 2.57-.81 5.66-2.62 7.64-2.02 2.21 1.22 5.49 3.3 3.3 3.9-4.09 7.56-8.92 13.21-10.6 5.79-1.72 11.96.86 17.46 2.55 1.86.57 2.91-2.1 1.3-3.08ZM73.3 73.78c-6.77-1.89-14.06-3.87-23.75-7.03-.35-.11-.73-.12-1.09-.03-.89.22-1.31 1.22-1.59 2.1-.48 1.47-.95 2.94-1.43 4.41-2.2 5.24-3.91 10.69-5.6 16.12l-8.74 28.07c-.4 1.27.18 2.65 1.38 3.24 6.95 3.42 14.17 6.27 21.58 8.51.62.19 1.28.37 1.91.2 1.04-.28 1.58-1.41 1.98-2.42 6.43-16.13 12.1-33.49 16.99-50.24.37-1.27-.37-2.59-1.65-2.95Zm-7.87 29.36c-7.73 2.56-16.74.82-22.97-4.44-1.19-1.01-2.35-2.26-2.49-3.81l-.45-1.24c4.11-4.11 10.17-6.18 15.94-5.44 2.72.35 5.45 1.35 7.33 3.34 2.81 2.98 3.17 7.53 2.64 11.6Z"/><path d="M73.83 71.85c-6.21-1.74-12.43-3.47-18.59-5.39-3.1-.96-7.76-3.52-9.76.46-.84 1.66-1.23 3.58-1.83 5.33-.63 1.86-1.45 3.67-2.12 5.52-2.66 7.35-4.83 14.9-7.15 22.36-1.18 3.8-2.36 7.6-3.55 11.4-.6 1.94-1.47 3.96-1.79 5.97-.67 4.31 4.04 5.71 7.14 7.1 3.62 1.62 7.3 3.1 11.04 4.43 1.94.69 3.89 1.34 5.85 1.93 1.73.53 3.53.77 5-.53 1.23-1.1 1.73-2.74 2.32-4.24.75-1.89 1.48-3.78 2.19-5.68 2.83-7.49 5.46-15.05 7.94-22.66 1.25-3.85 2.47-7.7 3.65-11.57.57-1.88 1.14-3.76 1.7-5.65.51-1.72 1.47-3.72 1.04-5.53-.38-1.62-1.56-2.71-3.09-3.25-2.43-.86-3.48 3-1.06 3.86.76.27-.33 2.47-.48 2.96-.51 1.73-1.03 3.46-1.55 5.19-1.06 3.49-2.14 6.96-3.26 10.43a538 538 0 0 1-7.1 20.73 438 438 0 0 1-3.84 10.11c-.27.68-.5 1.4-.88 2.02-.28.46-.27.31-.87.15-1.73-.48-3.45-1.07-5.15-1.66-3.42-1.18-6.8-2.48-10.12-3.92-1.67-.73-3.32-1.48-4.96-2.27-.76-.37-1.71-.54-1.52-1.53.35-1.76 1.1-3.53 1.63-5.24l3.21-10.32c1.77-5.67 3.5-11.36 5.31-17.02 1.26-3.93 2.75-7.73 4.18-11.6.37-1.01.67-2.06 1-3.09.16-.51.29-1.67.71-2.01.23-.19-.18.06-.06.02.29-.1 1.3.42 1.62.52.96.31 1.93.62 2.89.92 6.37 2 12.81 3.79 19.24 5.59 2.48.69 3.54-3.16 1.06-3.86Z"/><path d="M64.9 101.22c-4.7 1.51-9.69 1.41-14.35-.19-2.23-.77-4.37-1.91-6.22-3.37-.86-.67-1.89-1.49-2.27-2.55-.23-.64-.36-1.34-.6-1.99l-.51 1.95c4.05-3.96 10.15-5.95 15.73-4.61 2.64.63 4.95 2.06 6.07 4.61s1.02 5.41.69 8.08c-.13 1.07 1.01 2 2 2 1.19 0 1.87-.92 2-2 .42-3.43.24-7.03-1.28-10.19-1.56-3.24-4.62-5.35-8.04-6.26-7.05-1.89-14.84.49-20 5.54-.48.47-.75 1.29-.51 1.95.28.78.44 1.59.73 2.35.54 1.43 1.57 2.61 2.72 3.59 2.3 1.95 4.89 3.43 7.7 4.5 5.46 2.07 11.65 2.24 17.21.45 2.44-.78 1.4-4.65-1.06-3.86Z"/><path d="M53.5 98.79c.36.01.7-.06 1.01-.23.32-.11.61-.29.84-.54q.39-.36.54-.84c.16-.31.24-.65.23-1.01l-.09-.7c-.12-.44-.35-.83-.67-1.16l-.53-.41a2.57 2.57 0 0 0-1.32-.36c-.36-.01-.7.06-1.01.23-.32.11-.61.29-.84.54q-.39.36-.54.84c-.16.31-.24.65-.23 1.01l.09.7c.12.44.35.83.67 1.16l.53.41q.615.36 1.32.36m38.28-18.23c-1.07.47-1.7 1.34-2.11 2.41s.62 2.24 1.67 2.19c.81-.04 1.59-.23 2.39-.32.23-.03.48 0 .71-.03l.11.08c.18.33.25.11.2-.65-1.31 1.45.01 3.36 1.79 3.08 1.77-.27 3.06.92 4.71 1.22s3.41-.1 4.98-.74l-2.26-2.26c-.78 2.85 1.56 4.8 4.14 5.22 2.82.45 5.33 1.1 7.94 2.28 1.42.64 2.59-1.25 1.24-2.12-1.69-1.09-3.54-1.84-5.43-2.52-.71-.25-4.71-.96-4.35-1.89.53-1.34-1.02-2.61-2.26-2.26-.8.23-1.62.54-2.46.62s-1.42-.23-2.16-.57c-1.66-.76-3.3-.92-5.08-.55l1.79 3.08c1.2-1.47 1.02-3.3-.39-4.59-1.71-1.56-3.62-.72-5.63-.56l1.67 2.19c.07-.3.08-.47.34-.65 1.63-1.18.26-3.46-1.56-2.67Zm-4.25 12.97c10.57 3.28 20.92 7.34 31.56 10.36 1.57.44 2.72-2.03 1.14-2.71-10.28-4.45-21.18-7.41-31.9-10.55-1.87-.55-2.65 2.33-.8 2.91Zm-2.81 8.16c10.57 3.28 20.92 7.34 31.56 10.36 1.57.44 2.72-2.03 1.14-2.71-10.28-4.45-21.18-7.41-31.9-10.55-1.87-.55-2.65 2.33-.8 2.91ZM68.78 19.26a99 99 0 0 1 4.61 11.35c.46 1.37.8 2.83 1.59 4.05s2.83.79 2.82-.76-.57-2.95-1.06-4.37a111 111 0 0 0-1.46-3.98c-1.07-2.73-2.24-5.41-3.52-8.04-.41-.84-1.6-1.06-2.36-.62-.86.5-1.02 1.52-.62 2.36Z"/><path d="M63.81 28.92a245 245 0 0 0 14.9-4.03c1.62-.49 3.44-.96 5.02-1.74 1.75-.87.45-3.28-1.25-2.97-1.71.31-3.38 1.01-5.04 1.53-1.56.49-3.12.96-4.69 1.41-3.25.95-6.53 1.82-9.82 2.63-2.06.51-1.19 3.67.88 3.18Zm21.95 6.37c2.16 0 2.17-3.36 0-3.36s-2.17 3.36 0 3.36m9.68-9.17c2.11 0 2.11-3.28 0-3.28s-2.11 3.28 0 3.28m2.77 9.84c1.96 0 1.96-3.05 0-3.05s-1.96 3.05 0 3.05M19.37 64.29c1.4 0 1.4-2.17 0-2.17s-1.4 2.17 0 2.17m10.24-7.64c2.24 0 2.25-3.48 0-3.48s-2.25 3.48 0 3.48M24.9 69.04c2.16 0 2.17-3.36 0-3.36s-2.17 3.36 0 3.36m71.6 78.82c.05-2.19.13-4.36.25-6.54.04-.83-.62-1.62-1.39-1.83-4.51-1.26-9.44-4.38-9.5-9.63s5.29-8.24 9.78-9.27c4.84-1.11 10.34-.94 14.74 1.57 3.84 2.19 6.71 6.54 6.23 11.09-.46 4.42-5.1 8.16-9.51 6.83-1.22-.37-2.41.64-2.43 1.85l-.15 7.46 1.93-1.93c-3.67.24-7.19-.1-10.77-.92-2.47-.57-3.53 3.2-1.05 3.81 3.84.94 7.88 1.24 11.82.97 1.06-.07 1.91-.83 1.93-1.93.04-2.49.08-4.97.13-7.46-.81.62-1.62 1.24-2.43 1.85 5.68 1.71 11.75-1.98 13.9-7.28 2.3-5.67-.37-12.34-4.86-16.12-5.13-4.31-12.08-5.22-18.53-4.24-6.41.97-13.47 4.59-14.7 11.6-1.37 7.86 5.37 13.87 12.44 15.41-.46-.61-.93-1.22-1.39-1.83.15 2.18.25 4.36.33 6.54.07 2.07 3.17 2.08 3.22 0Z"/><path d="M95.5 141.02c3.45-.75 7.12-.52 10.45.65.08 2.11-.09 4.24-.5 6.31-2.99.12-6 0-8.97-.38-.07 0-.15-.02-.2-.07-.07-.06-.07-.16-.07-.25v-4.78"/><path d="M95.5 142.53c1.73-.13 3.44-.27 5.18-.15l.66.06s.57.07.28.03c.44.06.87.14 1.3.24.86.19 1.71.44 2.54.74l-1.36-1.78c.02 1.03-.04 2.05-.11 3.07-.08 1.15-.17 1.62-.35 2.74.6-.46 1.2-.92 1.8-1.37-1.49.13-3.01.07-4.49 0-.75-.04-1.5-.09-2.24-.15-.34-.03-.68-.06-1.02-.1-.2-.02-.41-.05-.61-.07l-.2-.02c-.39-.06-.27-.01.35.14l.68.68-.06-.12.26.96c-.11-1.64.06-3.29-.1-4.92-.09-.93-.76-1.84-1.8-1.8s-1.7.79-1.8 1.8c-.13 1.31-.08 2.64-.1 3.95-.01 1.01 0 2.14 1 2.72.67.38 1.52.37 2.27.45 2.63.26 5.23.2 7.86.23.79 0 1.63-.58 1.8-1.37.5-2.23.66-4.53.55-6.81-.04-.85-.55-1.52-1.36-1.78-3.52-1.15-7.79-1.59-11.34-.33-.7.25-1.2.88-1.08 1.65.1.69.72 1.36 1.48 1.31Z"/><path d="M100.88 140.17c.85-2.52 1-5.29.28-7.86-.68-2.4-2.07-4.99-4.55-5.87s-5.42.77-5.72 3.52c-.26 2.41 1.56 4.22 3.5 5.32 4.49 2.53 10.34 2.12 14.81-.22 2.05-1.07 3.93-3.2 3.79-5.66-.19-3.17-4.09-3.77-6.48-2.83-5.23 2.03-7.89 8.3-6.96 13.59.16.93 1.3 1.45 2.14 1.22.98-.27 1.38-1.21 1.22-2.14-.5-2.89.46-6.03 2.62-8.03 1.02-.95 2.36-1.67 3.77-1.38.55.11-.05.09.1-.14-.1.16-.1.53-.2.73-.31.65-.91 1.2-1.46 1.64-2.56 2.07-6.44 2.5-9.57 1.83-1.42-.3-3.44-.77-4-2.3-.39-1.06 0-2.17 1.25-1.8 1.5.44 2.27 2.34 2.67 3.7.58 1.96.65 3.97.12 5.95-.48 1.75 2.12 2.44 2.7.74Zm-71.09-6.02c-2.54 3.37-4.46 7.2-5.64 11.26-.35 1.21-.59 2.64.22 3.6.52.62 1.35.87 2.14 1.09 24.89 6.91 53.87 11.82 79.24 16.72-18.39-6.64-39.63-15.11-57.26-23.57-2.08-1-4.16-2-6.24-2.99l-11.76-5.64"/><path d="M28.72 133.08c-2.23 2.58-4.04 5.25-5.37 8.39-1.19 2.8-2.9 6.81-.28 9.33 1.1 1.06 2.69 1.39 4.1 1.8 1.54.45 3.09.88 4.64 1.3 3.3.91 6.63 1.72 9.96 2.52 13.56 3.24 27.25 6.02 41.01 8.28 7.51 1.23 15 2.51 22.48 3.88 2.3.42 3.17-2.69.96-3.5-19.55-7.13-38.88-14.93-57.63-23.96-5.7-2.75-11.39-5.49-17.09-8.24-2.33-1.12-4.37 2.36-2.03 3.48 9.82 4.69 19.6 9.5 29.55 13.91 9.77 4.33 19.7 8.33 29.67 12.17 5.5 2.12 11.02 4.15 16.57 6.13l.96-3.5c-12.54-2.56-25.05-5.26-37.6-7.75-12.64-2.51-25.23-5.25-37.73-8.38-.85-.21-1.69-.43-2.54-.65-.6-.16-1.52-.25-2.06-.56-.4-.23-.36-.38-.27-1.02.13-.82.43-1.63.68-2.42 1.06-3.25 2.55-6.5 4.39-9.39.91-1.43-1.24-3.15-2.38-1.84Zm121.44-19.42c2.85.36 5.62 1.31 8.09 2.79 1.83 1.1 3.67 2.89 3.37 5.01-.13.92-.66 1.73-1.18 2.5-4.02 5.97-8.28 11.73-12.86 17.25-4.74 5.71-9.82 11.15-14.55 16.87.76-1.49 1.51-2.98 2.27-4.47.88-1.73 1.76-3.46 2.4-5.29.45-1.28.78-2.61 1.19-3.9.52-1.65 1.16-3.26 1.8-4.87 2.21-5.52 4.41-11.05 6.62-16.57.42-1.06.85-2.13 1.3-3.18.72-1.7 1.5-3.37 2.33-5.01"/><path d="M149.75 115.18c2.19.66 4.37 1.22 6.38 2.34 1.19.66 3.73 2.04 3.32 3.75-.23.97-1.15 1.93-1.71 2.73-.72 1.02-1.44 2.04-2.17 3.06-1.44 2.04-2.91 4.05-4.42 6.04-3.04 4.01-6.13 8-9.39 11.83-3.35 3.94-6.76 7.83-10.01 11.85l2.88 2.22c1.66-3.35 3.55-6.68 4.81-10.21.62-1.73 1.05-3.51 1.66-5.24.67-1.89 1.46-3.73 2.21-5.59 3.02-7.43 5.86-14.95 9.57-22.06 1.33-2.54-2.59-4.79-3.83-2.24-1.75 3.6-3.06 7.38-4.5 11.1-1.46 3.77-2.92 7.54-4.4 11.31s-2.7 7.21-3.86 10.91-3.1 6.86-4.82 10.17c-.91 1.75 1.46 3.88 2.88 2.22 5.86-6.89 12.28-13.32 17.95-20.38 2.75-3.43 5.37-6.99 7.86-10.61 1.19-1.74 2.71-3.56 3.38-5.58.66-1.97.09-3.98-1.18-5.56-1.35-1.68-3.29-2.74-5.24-3.57-2.19-.93-4.54-1.64-6.93-1.58-1.78.04-2.14 2.58-.42 3.1Z"/></svg>