<?xml version="1.0" encoding="UTF-8"?><svg xmlns="http://www.w3.org/2000/svg" viewBox="0 0 180 180"><path d="M72.57 167.01c-5.76 3.09-12.83.09-17.07-4.23-5.01-5.1-7.71-12.16-10.48-18.63-6.39-14.89-11.73-30.18-17.13-45.44-1.39-3.94-2.79-7.88-4.18-11.82-1.27-3.59-2.91-7.27-3.4-11.07-.81-6.18 3.63-12.75 9.78-14.12 3.44-.77 7.04-.19 10.49-1.02 3.02-.73 5.83-2.23 8.35-4.02 5.27-3.76 9.85-8.58 14.59-12.98C74.37 33.58 84.56 22.41 97 14.2c1.43-.94 3.08-2.04 4.85-2.06 1.54-.01 2.84.95 3.93 1.94 2.11 1.91 4.01 4.09 5.81 6.29 3.86 4.71 7.19 9.85 10.24 15.11 6.54 11.25 11.87 23.2 16.45 35.36 1.06 2.82 2.08 5.66 3.05 8.51s2.19 5.96 2.72 9.04c1.27 7.21-5.73 11.83-10.7 15.61-11.69 8.89-24.13 16.69-36.29 24.92-6.06 4.11-12.03 8.36-17.76 12.91a215 215 0 0 0-8.99 7.54c-1.97 1.75-4.11 3.53-5.25 5.96-1.45 3.1-.72 6.26 1.81 8.55 2.13 1.93 5.31-1.23 3.17-3.17-.93-.84-1.57-1.71-1.15-2.95.34-1 1.04-1.85 1.76-2.6 2.39-2.48 5.14-4.67 7.78-6.87 5.85-4.88 11.98-9.41 18.24-13.76 12.35-8.58 25.14-16.51 37.14-25.59 5.37-4.06 12.87-8.74 14.27-15.89.75-3.81-.29-7.59-1.46-11.2a276 276 0 0 0-2.87-8.39c-4.56-12.67-9.89-25.15-16.42-36.94-3.13-5.65-6.54-11.15-10.46-16.29-1.82-2.38-3.72-4.7-5.78-6.88-2.41-2.54-5.13-5.27-8.84-5.47-3.9-.22-7.35 2.49-10.33 4.64-3.14 2.27-6.17 4.69-9.1 7.21-5.84 5.01-11.33 10.41-16.87 15.75-5.05 4.85-10.14 9.73-15.36 14.39-2.42 2.16-5 4.17-7.94 5.58s-6.2 1.48-9.53 1.64c-3.84.19-7.23 1.14-10.28 3.53a18.6 18.6 0 0 0-5.97 8.18c-1.3 3.49-1.08 7.21-.13 10.75 1.08 4.06 2.7 8 4.1 11.95 5.6 15.79 11 31.68 17.35 47.2 2.95 7.22 5.85 14.79 10.13 21.36 3.82 5.86 9.34 10.78 16.53 11.61 3.2.37 6.55-.28 9.35-1.87 1.8-1.03.2-3.76-1.62-2.78Z"/><path d="M36.83 59.97c6.94 24.16 15.5 47.88 25.14 71.09 2.7 6.5 5.43 13 8.4 19.39.4.86 1.63 1.06 2.39.63.9-.51 1-1.53.63-2.39-4.91-11.5-9.86-22.98-14.42-34.63-4.5-11.49-8.71-23.09-12.7-34.77-2.28-6.67-4.48-13.38-6.64-20.09-.57-1.77-3.32-1.04-2.8.77M28.3 83.6c-5.03-1.72-11-.93-14.25 3.63-1.35 1.89-2.05 4.4-1.79 6.72.31 2.73 1.78 4.98 4.1 6.43 1.24.78 2.67 1.29 4.08 1.68 1.52.43 3.08.82 4.66.98 1 .1 1.9-.85 2.01-1.77.13-1.07-.49-1.88-1.47-2.25-1.85-.7-4.23-.96-5.86-1.65-.93-.39-1.61-.8-2.22-1.43-.4-.41-.33-.33-.6-.8-.05-.09-.25-.51-.21-.4.08.19-.04-.13-.04-.14-.04-.13-.08-.26-.12-.4-.15-.56-.21-1.42-.11-2.08.1-.7.39-1.53.75-2.17.43-.77.77-1.21 1.55-1.82.56-.43 1.5-.94 2.19-1.19 2.1-.74 4.35-.9 6.54-.46 1.89.38 2.63-2.27.8-2.89Zm9.23 24.25c-5.03-1.72-11-.93-14.25 3.63-1.35 1.89-2.05 4.4-1.79 6.72.31 2.73 1.78 4.98 4.1 6.43 1.24.78 2.67 1.29 4.08 1.68 1.52.43 3.08.82 4.66.98 1 .1 1.9-.85 2.01-1.77.13-1.07-.49-1.88-1.47-2.25-1.85-.7-4.23-.96-5.86-1.65-.93-.39-1.61-.8-2.22-1.43-.4-.41-.33-.33-.6-.8-.05-.09-.25-.51-.21-.4.08.19-.04-.13-.04-.14-.04-.13-.08-.26-.12-.4-.15-.56-.21-1.42-.11-2.08.1-.7.39-1.53.75-2.17.43-.77.77-1.21 1.55-1.82.56-.43 1.5-.94 2.19-1.19 2.1-.74 4.35-.9 6.54-.46 1.89.38 2.63-2.27.8-2.89Zm10.74 26.2c-5.03-1.72-11-.93-14.25 3.63-1.35 1.89-2.05 4.4-1.79 6.72.31 2.73 1.78 4.98 4.1 6.43 1.24.78 2.67 1.29 4.08 1.68 1.52.43 3.08.82 4.66.98 1 .1 1.9-.85 2.01-1.77.13-1.07-.49-1.88-1.47-2.25-1.85-.7-4.23-.96-5.86-1.65-.93-.39-1.61-.8-2.22-1.43-.4-.41-.33-.33-.6-.8-.05-.09-.25-.51-.21-.4.08.19-.04-.13-.04-.14-.04-.13-.08-.26-.12-.4-.15-.56-.21-1.42-.11-2.08.1-.7.39-1.53.75-2.17.43-.77.77-1.21 1.55-1.82.56-.43 1.5-.94 2.19-1.19 2.1-.74 4.35-.9 6.54-.46 1.89.38 2.63-2.27.8-2.89Z"/><path d="M38.23 107.76v.04c.01-.12.03-.24.04-.36-.03.23-.1.46-.15.68s-.13.46-.22.68l.15-.36c-.13.3-.3.58-.5.84l.24-.31c-.18.23-.38.45-.56.69l.24-.32s-.04.05-.06.07c-.15.14-.26.31-.32.5-.1.19-.14.38-.13.6 0 .38.17.84.46 1.1s.69.47 1.1.46.78-.17 1.1-.46c.28-.25.51-.59.7-.92s.34-.69.46-1.06.16-.73.21-1.11-.03-.77-.11-1.14c-.06-.31-.35-.66-.62-.81s-.55-.2-.86-.16c-.28.04-.58.15-.78.37l-.21.27c-.12.21-.18.44-.18.68Zm-9.8-25.48c-.13.53-.3 1.05-.52 1.55l.15-.35c-.13.3-.27.6-.43.89-.26.48-.57.98-.56 1.54.01.52.27 1 .73 1.27s1.02.25 1.48 0 .76-.74.96-1.22c.16-.38.32-.76.45-1.15.19-.58.33-1.18.42-1.79a.94.94 0 0 0 .02-.55c0-.19-.06-.36-.17-.52-.17-.29-.5-.56-.83-.64-.36-.08-.76-.06-1.07.14s-.55.48-.64.83Zm18.78 51.26c0 .4-.03.81-.08 1.22l.06-.43a6.4 6.4 0 0 1-.46 1.66l.17-.4c-.17.39-.35.76-.48 1.17-.11.35-.06.75.08 1.08s.36.63.68.79c.26.14.54.21.84.23.36.02.94-.19 1.17-.49.13-.16.26-.32.38-.49s.19-.38.27-.57a6.5 6.5 0 0 0 .39-1.45c.14-.93.18-1.8 0-2.72-.07-.35-.39-.75-.7-.92s-.63-.23-.98-.18c-.76.1-1.31.74-1.33 1.5Zm36.66-54.87c-1.38.23-2.81-.26-3.93-1.09-6.19-4.53-5.85-14.3 1.04-18.04 4.73-2.57 10.8-1.05 11.9 4.67.67 3.48-.25 7.68-1.33 11.05 8.6-4.72 19.09-1.74 25.89 4.76.78.75 1.32 1.82 1 2.91-.2.68-.64 1.26-1.11 1.8-3.15 3.56-7.76 5.88-11.67 8.48-7.47 4.96-14.37 10.79-21.9 15.63-.46.29-1.05.39-1.58.25-.61-.16-1.02-.72-1.35-1.27-3.37-5.53-4-13.55-.79-19.18.86-1.51 1.94-2.89 2.86-4.36 1.06-1.68 1.93-3.48 2.58-5.35"/><path d="M83.87 77.07c-2.86.17-5.21-2.96-5.96-5.45-.71-2.34-.51-4.93.7-7.07 2.17-3.84 9.32-6.51 11.77-1.43 1.65 3.43.24 8.18-.82 11.58-.56 1.78 1.5 3.14 3.02 2.32 5.26-2.83 11.66-2.38 16.92.21 1.24.61 2.44 1.31 3.58 2.1.57.39 1.11.81 1.64 1.26.42.36 1.36.94 1.51 1.51.22.85-1.66 2.22-2.24 2.74-1.31 1.16-2.76 2.14-4.23 3.08-2.92 1.87-5.88 3.64-8.67 5.7-2.99 2.2-5.99 4.39-8.99 6.59-1.49 1.1-3 2.18-4.51 3.26-.76.54-1.5 1.09-2.27 1.61s-1.65.94-2.31 1.53c-.59.53-.37.08-.02.38-.24-.21-.43-.68-.58-.96-.33-.59-.64-1.2-.89-1.83-.57-1.41-.97-2.93-1.18-4.43-.42-3.07-.16-6.59 1.29-9.37.92-1.77 2.18-3.31 3.19-5.02 1.11-1.86 1.99-3.87 2.7-5.91.9-2.57-3.13-3.63-4.05-1.12-1.45 3.94-4.47 6.91-6.11 10.73-1.45 3.39-1.93 7.04-1.48 10.7.23 1.91.64 3.8 1.32 5.6.63 1.66 1.4 3.69 2.74 4.92 1.95 1.79 4.19 1 6.13-.29 1.8-1.2 3.58-2.43 5.33-3.7 3.57-2.6 7.06-5.3 10.63-7.89 3.3-2.39 6.78-4.49 10.2-6.7 1.73-1.12 3.43-2.32 4.97-3.69s3.1-2.9 3.5-4.89c.79-3.92-3.75-6.79-6.6-8.53-7.17-4.37-16.09-5.13-23.58-1.15l3.02 2.32c1.41-4.41 2.61-9.77.66-14.2-1.52-3.45-5.13-5.43-8.85-5.3-8.01.28-13.39 8.38-11.27 15.93 1.25 4.45 5.24 8.86 10.23 7.97 1.76-.31 1.36-3.24-.42-3.13Zm-10.95 93.1c1.82-.41 3.47-1.25 5.17-2s3.43-1.52 5.14-2.28c3.29-1.45 6.59-2.87 9.9-4.27 6.82-2.87 13.69-5.64 20.55-8.41 13.61-5.48 27.25-10.89 40.71-16.72 1.86-.8 3.71-1.62 5.56-2.44s3.51-1.58 4.64-3.23c2.04-2.96.95-7.34-.87-10.13-1.26-1.94-4.61-.76-3.87 1.63.61 1.98 2.53 5.24.15 6.71-1.25.77-2.7 1.28-4.04 1.87-1.71.76-3.42 1.51-5.14 2.25-6.38 2.76-12.8 5.42-19.23 8.05-13.09 5.36-26.21 10.66-39.15 16.38a581 581 0 0 0-10.49 4.75c-3.48 1.62-7.41 3.07-10.41 5.49-1.17.94.12 2.61 1.36 2.34Zm10.05-14.5c23.17-13.29 46.38-26.47 70.08-38.79 2.85-1.48 5.63-3.41 6.17-6.81.54-3.39-.59-6.71-2.03-9.73-.82-1.71-3.66-.51-3.07 1.29.73 2.24 2.05 5.23 1.08 7.58-.98 2.35-3.48 3.4-5.59 4.5-5.67 2.97-11.3 6-16.89 9.11-11.11 6.19-22.09 12.6-33.01 19.11-6.12 3.65-12.23 7.34-18.33 11.02-1.74 1.05-.17 3.74 1.59 2.73Z"/><path d="M70.96 169.04c29.7-6.66 59.64-12.26 89.74-16.79 2.22-.33 5.03-1.31 4.99-3.56-.01-.86-.49-1.63-.96-2.35-2.65-4.15-5.3-8.3-7.96-12.45a583 583 0 0 1-70.7 29.59"/><path d="M71.4 170.61c15.78-3.34 31.6-6.49 47.47-9.39 7.77-1.42 15.55-2.77 23.35-4.04 4.06-.66 8.12-1.31 12.19-1.93 1.79-.28 3.58-.54 5.37-.81 1.64-.24 3.22-.48 4.74-1.19 1.43-.68 2.72-1.84 3.14-3.42.54-2.02-.57-3.77-1.6-5.41-2.44-3.89-4.89-7.78-7.32-11.68-.69-1.11-1.97-1.35-3.11-.82-8.99 4.21-17.91 8.55-27.02 12.52-8.98 3.92-18.08 7.58-27.24 11.05-5.28 1.99-10.63 3.79-15.89 5.81-1.14.44-1.92 1.52-1.58 2.78.32 1.16 1.61 1.93 2.78 1.58 9.54-2.89 18.9-6.65 28.15-10.37s18.56-7.73 27.68-11.94c5.18-2.39 10.37-4.82 15.42-7.49l-3.11-.82c2.07 3.16 4.13 6.33 6.19 9.49.54.83 1.08 1.65 1.61 2.48.28.44.94 1.13.96 1.69.02.73-1.23 1.06-1.86 1.24-1.45.42-2.99.56-4.49.79-1.95.3-3.9.61-5.85.92a1208 1208 0 0 0-55.81 10.24 972 972 0 0 0-25.04 5.57c-2.05.49-1.18 3.58.87 3.15"/></svg>