<?xml version="1.0" encoding="UTF-8"?><svg xmlns="http://www.w3.org/2000/svg" viewBox="0 0 180 180"><path d="M113.13 14.34c-12.38-4.62-25.7-6.92-38.92-6.44-13.33.49-26.44 3.57-38.92 8.18-3.3 1.22-6.56 2.55-9.78 3.97-2.6 1.14-5.13 2.44-7.27 4.33-4.48 3.98-5.53 10.23-4.3 15.87.56 2.56 1.63 5.04 2.64 7.45 1.09 2.59 2.22 5.19 3.62 7.63 1.32 2.31 2.96 4.57 4.85 6.45 2.14 2.13 5.44 4.01 8.54 3.97 1.55-.02 3.01-.79 4.43-1.33 1.6-.6 3.2-1.17 4.82-1.72 3.02-1.02 6.09-1.92 9.18-2.68 6.19-1.52 12.5-2.43 18.87-2.47 12.91-.08 25.76 3.4 37.18 9.35 5.71 2.98 11.12 6.5 16.29 10.33 2.7 2 5.29 4.19 7.77 6.46 1.88 1.73 3.53 3.87 5.84 5.07 5.21 2.69 9.8-1.04 13.19-4.77 3.32-3.65 6.98-7.01 10.02-10.91 3.28-4.22 6.06-9.26 5.27-14.79-.78-5.44-4.17-10.42-7.72-14.45-3.59-4.06-7.8-7.58-11.99-10.99-4.91-4-10.13-7.48-15.84-10.24-2.8-1.35-5.66-2.58-8.57-3.68-1.93-.73-3.32 2.51-1.41 3.36 10.49 4.66 19.88 11.36 28.42 18.97 3.74 3.33 7.38 6.93 9.9 11.31 1.12 1.94 2.16 4.16 2.5 6.39.32 2.1-.24 4.31-1.15 6.19-2.12 4.43-5.66 8-9.08 11.44-1.54 1.54-2.96 3.18-4.45 4.76-1.3 1.38-2.9 3.11-4.81 3.52-1.76.37-3.43-1.3-4.73-2.6-1.98-1.99-4.06-3.84-6.21-5.64-4.76-3.96-9.89-7.54-15.19-10.73-10.76-6.47-22.72-10.82-35.19-12.36s-24.24.18-35.79 3.69c-2.95.9-5.87 1.9-8.76 2.99-1.26.48-2.47 1.22-3.83.83-1.26-.35-2.53-.97-3.54-1.8-3.82-3.19-6.17-8.23-7.95-12.76-1.73-4.42-3.77-9.23-2.42-14.03 1.47-5.23 6.86-7.28 11.41-9.19 22.89-9.61 48.49-14.52 72.96-8.34 3.11.79 6.18 1.73 9.2 2.81 2.14.76 3.03-2.61.93-3.39Z"/><path d="M76.69 72.56c-8.05-1.37-16.29-.89-24.2 1.07-3.74.93-7.56 1.94-11.13 3.42-2.92 1.21-5.8 3.01-6.87 6.16-1.32 3.89 1.15 7.85 2.72 11.27 1.79 3.88 3.57 7.77 5.38 11.63 1.58 3.37 4.33 5.43 8.12 5.54s7.64-1.85 11.35-2.8c7.25-1.86 15.24-1.96 22.17 1.17 3.21 1.45 6.03 3.47 8.4 6.07s4.62 5.82 7.93 7.56c3.32 1.75 7.24 1.98 10.36-.32 3.27-2.41 6.19-5.42 9.16-8.19 2.64-2.47 5.66-5 6.58-8.66s-.22-7.4-1.95-10.59c-3.26-5.99-8.72-10.62-14.48-14.1-5.91-3.58-12.49-6.46-19.08-8.51-1.87-.58-3.77-.95-5.73-1.02-.95-.03-1.74.83-1.75 1.75-.01 1.05.82 1.63 1.75 1.75 3.41.44 6.64 1.94 9.74 3.35 2.84 1.28 5.68 2.58 8.45 4.01 5.28 2.72 10.35 6.01 14.28 10.52 1.98 2.27 3.84 4.96 4.63 7.9.35 1.32.46 2.72.09 4.04-.44 1.61-1.55 2.88-2.7 4.04-2.54 2.56-5.27 4.96-7.95 7.37-1.26 1.12-2.49 2.45-3.96 3.31-1.25.73-2.63.7-3.99.3-3.15-.95-5.25-3.77-7.29-6.16-2.09-2.44-4.41-4.6-7.16-6.31-5.87-3.63-12.93-5.09-19.78-4.69-3.6.21-7.17.87-10.63 1.89-2.99.89-6.31 2.65-9.52 1.84-1.23-.31-2.06-.94-2.68-2.04-.98-1.73-1.71-3.63-2.54-5.44-1.59-3.45-3.18-6.9-4.76-10.35-.65-1.42-1.57-3.28-.96-4.86.46-1.18 1.59-1.97 2.64-2.56 3.04-1.71 6.69-2.53 10.02-3.44 8.1-2.22 16.49-3.85 24.89-2.76 1.77.23 2.2-2.84.43-3.15Zm-7.62 50.73c-4.69-.18-9.56.42-13.74 2.69-3.56 1.94-6.44 4.98-8.52 8.44-5.09 8.47-4.17 19.81 2.85 26.98 7.7 7.85 20.99 10.25 31.11 6.23 9.39-3.73 16.33-13.36 15.69-23.66-.32-5.02-2.27-10.16-5.73-13.85-1.53-1.64-3.41-3-5.44-3.96-2.38-1.14-5.02-2.11-7.68-1.97-2.12.11-2.44 2.91-.49 3.62 1.81.66 3.73.93 5.51 1.68 1.53.64 2.99 1.53 4.22 2.64 2.68 2.43 4.23 5.7 5.06 9.18 1.94 8.22-2.69 17-9.88 21.05-8.22 4.63-18.9 3.41-26.55-1.79-6.83-4.64-9.69-14.19-6.17-21.76 1.57-3.38 3.92-6.62 7.07-8.69 3.79-2.49 8.21-3.33 12.69-3.36 2.23-.02 2.22-3.37 0-3.45Z"/><path d="M66.87 125.9c-4.2 4.13-6.85 10.11-8.12 15.79-1.28 5.73-1.31 11.81.26 17.49.73 2.63 2.06 5.31 4.74 6.36 2.88 1.13 5.92-.2 8.15-2.07 2.42-2.03 3.97-5.02 5.16-7.89 1.27-3.09 2.2-6.32 2.94-9.58a78 78 0 0 0 1.71-11.68c.13-1.88.21-3.78.13-5.66-.07-1.69-.91-3.54-2.98-3-2.26.59-1.29 3.92.96 3.47l.21-.04-1.39-.18c-.76-.46-.3-.67-.42 0-.05.3 0 .64 0 .94 0 .71-.02 1.42-.05 2.12-.05 1.49-.12 2.99-.25 4.48-.25 2.9-.71 5.78-1.33 8.62-1.11 5.04-2.49 10.91-6.04 14.85-1.28 1.42-3.67 3.23-5.63 2-1.68-1.06-2.14-3.47-2.52-5.26-.99-4.62-.94-9.53.05-14.14 1.19-5.5 3.73-10.12 6.83-14.74.98-1.47-1.19-3.05-2.4-1.86Z"/><path d="M46.27 142.77c8.04.33 16.07.95 24 2.35a147 147 0 0 1 17.44 4.18c.9.28 1.8.56 2.7.86.45.15.9.3 1.34.45.3.1.6.2.89.31.5.25.58.23.23-.06l-.43-1.64-.04.12c-.63 1.9 2.03 2.77 3.06 1.29l.07-.11c.36-.51.25-1.18 0-1.71-.42-.87-1.57-1.11-2.41-1.39a133 133 0 0 0-9.04-2.71c-4.11-1.09-8.27-1.99-12.46-2.69-8.37-1.4-16.86-2.15-25.35-1.76-1.62.07-1.62 2.45 0 2.52Zm49.86-27.57c1.46 1.22 3.12 2.39 5.01 2.47 2.74.12 4.99-2.03 6.88-4.01 2.25-2.37 4.5-4.74 6.76-7.1 1.79-1.88 3.62-3.82 4.68-6.19 1.07-2.37 1.24-5.31-.21-7.46 1.98 2.62 3.77 5.56 4.05 8.83.31 3.61-1.3 7.17-3.62 9.96-2.32 2.78-5.31 4.91-8.27 7-1.26.89-2.56 1.8-4.05 2.2s-3.25.19-4.32-.92"/><path d="M95.26 116.06c2.73 2.34 5.65 3.99 9.22 2.37 3.35-1.52 5.86-5 8.33-7.6 4.47-4.71 12.23-11.53 7.76-18.71l-2.66 1.55c1.76 2.53 3.64 5.29 3.78 8.47.13 2.99-1.21 5.9-3.07 8.19-1.97 2.42-4.49 4.32-7.02 6.11-1.72 1.22-5.17 4.31-7.3 2.27-1.66-1.59-4.22.99-2.52 2.52 3.14 2.82 7.12 1.32 10.15-.8 3.18-2.23 6.45-4.53 8.94-7.55 2.39-2.9 4.13-6.49 4.1-10.32-.04-4.06-2.17-7.68-4.64-10.75-1.1-1.37-3.34.4-2.42 1.87 3.4 5.42-3.64 11.18-6.93 14.63-2.05 2.16-4.02 4.64-6.38 6.46-1.07.82-2.28 1.5-3.67 1.41-1.48-.1-2.81-.94-3.95-1.84-1.2-.95-2.93.69-1.72 1.72m35.63-38.2c5.56 4.99 6.81 3.34 8.62 2.43s3.1-2.57 4.33-4.18c4.4-6.59 9.76-12.7 14.66-18.92 1.04-1.32 2.1-2.76 2.05-4.52s-1.28-3.31-.45-5.07c0 0 1.35 2.58 1.44 2.94.26 1.07.33 2.22.45 3.32.22 2.05.12 4.67 1.25 6.49.68 1.1.76 1.17.67 2.46-.06.86-.55-.22-.96.54-3.16 5.85-5.13 10.58-10.41 14.62-3.43 2.63-6.87 5.26-10.3 7.89-.47.36-.98.73-1.57.72-.49-.01-.92-.29-1.29-.61a5.65 5.65 0 0 1-1.56-2.15"/><path d="M130 78.76c1.77 1.88 4.2 4.21 7.01 4.13 1.92-.06 4.1-1.51 5.45-2.73 1.47-1.32 2.59-2.98 3.71-4.59 1.26-1.81 2.58-3.58 3.94-5.32 2.76-3.51 5.64-6.92 8.45-10.39 1.33-1.65 2.88-3.3 3.5-5.38.32-1.08.3-2.18.08-3.28s-.7-2.01-.25-3.11c-1.13.15-2.26.29-3.38.44.36.75.75 1.49 1.12 2.23.04.07.23.65.09.18.09.29.14.6.18.9.13.83.18 1.69.25 2.53.13 1.6.15 3.24.56 4.8.2.74.5 1.46.87 2.13.16.28.32.57.49.84-.04-.07-.33.51.05.01l1.67-.96c.69-.05-.24-.08-.37-.08-.4-.01-.77.07-1.13.26-.64.34-.97.91-1.3 1.52-.71 1.32-1.39 2.65-2.11 3.97-1.3 2.41-2.69 4.79-4.55 6.82-2.31 2.53-5.22 4.46-7.92 6.53-1.45 1.11-2.91 2.22-4.36 3.34-.32.25-.8.52-1.08.82-.34.11-.41.19-.22.22.11.04.11.04 0-.02-.55-.15-1.05-1.3-1.26-1.75-.44-.95-1.83-1.2-2.67-.7-.98.58-1.15 1.71-.7 2.67.67 1.45 1.91 3.03 3.5 3.53 1.94.61 3.34-.59 4.78-1.7 3.22-2.47 6.48-4.9 9.67-7.41 2.45-1.92 4.46-4.28 6.14-6.9.79-1.23 1.5-2.51 2.19-3.8l1.08-2.04c.22-.41.43-.83.65-1.24.09-.18.19-.36.29-.54.31-.51.25-.49-.19.05l-.98.26c-.53-.02.35.09.53.08.71-.02 1.34-.4 1.71-1.01.46-.77.47-1.99.27-2.85s-.8-1.53-1.15-2.34c-.4-.93-.49-2.01-.57-3.01-.16-1.94-.12-4.16-.77-6.01-.39-1.11-1.04-2.13-1.57-3.18-.78-1.55-2.87-.92-3.38.44-.67 1.78-.02 3.3.37 5.05s-.85 3.1-1.84 4.36c-2.42 3.08-4.91 6.11-7.33 9.19-2.47 3.13-4.75 6.36-7.07 9.59-.97 1.35-2.1 2.7-3.56 3.52-.27.15-.55.3-.82.45-.14.08-.8.39-.52.28-.64.24-.93.25-1.75-.07-1.52-.6-2.96-1.75-4.26-2.71-1.19-.88-2.48.98-1.53 1.99Zm-72.61 86.71c6.88 3.23 20.24 4.78 27.83 4.48 10.93-.43 22.08-1.13 32.25-5.18 4.42-1.76 8.85-4.39 10.91-8.68.49-1.02.84-2.16.65-3.28-.33-1.94-2.14-3.24-3.89-4.14-8.4-4.34-18.27-4.46-27.73-4.43.8 3.66-.38 7.53-2.39 10.7-2.01 3.16-4.8 5.74-7.56 8.28-2.24 2.06-4.71 4.22-7.74 4.46"/><path d="M56.76 166.54c1.35.63 2.63 1.37 4.03 1.87 1.59.57 3.21 1 4.85 1.38 3.48.8 7.03 1.32 10.58 1.68 7.52.77 15.19.33 22.69-.49 8.23-.89 17.09-2.47 24.27-6.83 3.28-1.99 6.31-4.79 7.59-8.5 1.49-4.34-1.75-7.44-5.33-9.21-8.65-4.26-18.58-4.46-28.03-4.42-1.53 0-2.42 1.41-2.14 2.81.93 4.68-1.82 9.14-4.86 12.44-1.64 1.78-3.44 3.44-5.24 5.05-1.52 1.36-3.33 2.93-5.45 3.15-1.17.13-2.19.92-2.19 2.19 0 1.09 1.01 2.31 2.19 2.19 3.06-.32 5.49-1.8 7.8-3.76 2.2-1.87 4.36-3.88 6.3-6.02 4.08-4.51 6.96-10.22 5.74-16.43-.71.94-1.43 1.88-2.14 2.81 7.5-.02 15.16-.06 22.36 2.29 1.7.55 3.39 1.22 4.95 2.11 1.16.66 2.49 1.57 2.25 3.07-.51 3.13-3.71 5.65-6.26 7.12-6.5 3.75-14.42 5.23-21.79 6.04-6.85.75-13.83 1.23-20.72.84-3.61-.21-7.2-.62-10.75-1.26-1.69-.3-3.35-.68-5.02-1.08-1.47-.35-3.04-.58-4.41-1.21s-2.71 1.47-1.25 2.15Z"/></svg>