<?xml version="1.0" encoding="UTF-8"?><svg xmlns="http://www.w3.org/2000/svg" viewBox="0 0 180 180"><path d="M143.89 31.52c-2.94-2.35-6.01-4.56-9.31-6.36s-6.86-3.26-10.46-4.44c-7.28-2.39-14.93-3.64-22.59-3.76-14.74-.23-29.65 3.81-41.63 12.56-9.88 7.22-17.61 17.08-22.41 28.33-4.85 11.39-6.83 23.99-5.48 36.32 1.41 12.94 6.24 25.38 14.12 35.77 4.4 5.8 9.55 11.08 15.46 15.35 6.17 4.46 13.33 7.57 20.72 9.36 14.67 3.55 30.89 2.37 44.84-3.45 12.78-5.32 23.54-14.48 31.46-25.78 3.93-5.61 7.07-11.78 9.39-18.23 2.3-6.39 3.44-13.35 3.87-20.11s-.12-13.58-1.82-20.15c-2.08-8.02-6.25-15.54-11.4-22.01-2.59-3.26-5.32-6.43-7.96-9.67-1.34-1.64-3.73.72-2.34 2.34 2.73 3.2 5.23 6.47 7.68 9.89 2.38 3.31 4.66 6.71 6.47 10.37 3.07 6.2 4.71 13.09 5.22 19.97.95 12.79-2.43 25.51-8.42 36.78-6 11.3-14.84 21.15-25.85 27.75-11.84 7.09-26.01 10-39.72 8.98-7.05-.52-14.15-2.18-20.58-5.15S61.17 139 56.22 133.96c-8.72-8.87-14.94-19.93-17.8-32.02-2.64-11.17-2.32-22.99.82-34.03 3.1-10.89 8.93-20.96 17.1-28.86 9.36-9.06 21.54-14.69 34.51-16.48 14.26-1.97 28.81.65 41.88 6.53 3.2 1.44 6.32 3 9.29 4.87 1.45.92 3.27-1.32 1.87-2.43Z"/><path d="M80.61 20.93c-13.52 4.19-27.27 8.48-39 16.4-21.88 14.79-36.16 43.09-30.18 69.55 3.54 15.66 12.57 30.26 25.36 40.22 13.78 10.73 30.24 14.3 47.43 13.31 16.82-.97 33.64-5.81 48.45-13.83-29.19 13.28-59.44 6.93-78.91-8.94-3.53-2.88-6.83-6.1-9.32-9.9-1.93-2.95-3.36-6.19-4.66-9.47-6.06-15.32-9.51-32.1-6.71-48.33s12.56-31.79 27.48-38.78"/><path d="M80.17 19.34c-9.41 2.83-18.9 5.6-27.87 9.66-8.24 3.73-15.79 8.67-22.26 15.02C18.1 55.73 9.98 71.45 8.19 88.13c-1.86 17.35 4.39 34.83 14.99 48.45 5.55 7.13 12.48 13.28 20.38 17.68 8.06 4.48 16.97 7.05 26.11 8.06 9.56 1.06 19.18.28 28.61-1.47 9.91-1.84 19.58-5.01 28.72-9.26 2.25-1.05 4.48-2.16 6.67-3.33s.27-4.35-1.96-3.36c-23.9 10.67-52.62 8.74-73.96-6.79-5.39-3.92-10.26-8.63-13.36-14.59-3.29-6.31-5.56-13.33-7.33-20.2-3.46-13.42-4.29-27.85.07-41.17 4.06-12.43 12.51-23.58 24.47-29.24 2.36-1.12.3-4.62-2.05-3.51-11.42 5.41-19.83 15.59-24.65 27.11-5.56 13.29-5.84 28.09-3.1 42.08 1.47 7.51 3.8 14.86 6.72 21.92 1.49 3.59 3.17 7.07 5.53 10.17 2.18 2.87 4.71 5.41 7.46 7.73 9.91 8.33 22.02 13.91 34.76 16.19 14.01 2.5 28.78 1.2 42.05-4.01 1.81-.71 3.59-1.52 5.36-2.33l-1.96-3.36c-16.7 9.07-36.01 13.85-55.02 13.39-8.56-.21-17.12-1.75-25.04-5.06s-15.12-8.51-21.04-14.82c-11.11-11.83-18.47-28.16-18.3-44.53.16-15.72 6.85-31.06 17.12-42.81 5.47-6.25 11.9-11.34 19.1-15.46 8.11-4.63 16.93-8 25.78-10.9 2.25-.74 4.5-1.46 6.75-2.17 2.02-.64 1.17-3.81-.88-3.19Z"/><path d="M87.17 64.94c-1.61 9.91-2.41 19.87-2.18 29.91.09 3.88-.03 8.17 1.85 11.7.87 1.63 2.24 2.91 3.98 3.57 2.21.83 4.56.31 6.66-.6 2.11-.92 4.09-2.17 6.08-3.31 1.93-1.11 3.86-2.22 5.77-3.37 3.87-2.33 7.66-4.79 11.26-7.53 1.86-1.41 3.67-2.88 5.41-4.44 1.57-1.41 3.5-2.93 3.95-5.09.48-2.31-.9-4.23-2.55-5.67-1.64-1.43-3.38-2.78-5.14-4.06-3.98-2.87-8.21-5.43-12.65-7.5-2.21-1.03-4.49-1.98-6.82-2.7-2.37-.74-4.72-1.61-7.16-2.09-1.89-.37-2.54 2.15-.79 2.85 1.79.71 3.64 1.28 5.41 2.04 1.74.75 3.45 1.62 5.15 2.47 3.44 1.72 6.81 3.56 10.03 5.65 3.19 2.07 6.39 4.33 9.18 6.92.24.22.52.45.7.73.09.13.23.6.25.37-.05.67-1.19 1.46-1.61 1.86a73 73 0 0 1-4.52 3.92c-6.21 4.98-13.15 8.98-20.05 12.91-2.21 1.26-6.33 4.37-8.39 1.39-1.78-2.57-1.49-6.55-1.6-9.5-.38-9.98-.07-20.04 1.02-29.97.2-1.82-2.93-2.26-3.22-.44Z"/></svg>