<?xml version="1.0" encoding="UTF-8"?><svg xmlns="http://www.w3.org/2000/svg" viewBox="0 0 180 180"><path d="M69.07 81.16C58.36 74.62 48.3 66.9 39.3 58.14c-8.21-7.99-18.33-18.1-17.79-30.51.34-7.79 6.55-14.65 14.05-16.79C47.63 7.39 57.68 15.25 66 22.92c5.31 4.91 10.54 9.91 15.67 15.01 4.82 4.79 10 9.93 14.95 14.79"/><path d="M69.99 79.58C59.85 73.23 50.4 65.87 41.82 57.52c-6.91-6.73-14.9-14.15-17.4-23.83-1.18-4.58-.8-9.24 1.78-13.27 2.49-3.88 6.52-6.61 10.98-7.65 10.48-2.46 19.68 4.88 26.9 11.5 10.6 9.72 20.67 19.98 30.95 30.03 2.06 2.01 5.22-1.14 3.16-3.16-9.7-9.53-19.23-19.24-29.18-28.52-8.09-7.53-17.89-16.03-29.78-14.79-10.97 1.15-20.51 10.27-20.01 21.7.49 11.13 8.25 20.05 15.79 27.51 9.97 9.87 21.1 18.48 33.13 25.7 2.03 1.21 3.84-1.91 1.85-3.16"/><path d="M64.94 81.53c-.54 1.65-1.93 4.23.44 5.1 1.71.62 3.22-.74 4.59-1.57 3.37-2.04 6.98-3.68 10.23-5.92 3.19-2.21 6.04-4.88 8.67-7.72s5.22-5.66 7.32-8.82c2.4-3.61 3.92-7.73 4.13-12.08.06-1.25-1.25-2.12-2.39-1.82s-2.08.87-2.8 1.75l2.98 2.3c.29-.44.56-.94.7-1.44.04-.15.08-.28.18-.4-.27.33-.31.19-.09.18 1.33-.05 2.47.32 3.6 1.02s2.14 1.7 3.02 2.73c.71.84 1.76 1.95 1.72 3.13-.04 1.32-.91 2.69-1.54 3.79s-1.23 2.14-1.85 3.2c-1.22 2.05-2.48 4.07-3.82 6.04-5.97 8.74-13.78 15.76-23.44 20.19-1.31.6-2.48 1.27-3.79.35-1.19-.84-2.11-2.08-3.25-3-1.03-.83-2.2-1.61-2.62-2.92s-.34-2.55.45-3.68c1.49-2.14-2.02-4.17-3.49-2.04-1.95 2.82-1.52 6.97.67 9.53.99 1.16 2.32 1.94 3.43 2.98 1.28 1.21 2.39 2.51 4.07 3.17 1.86.73 3.59.27 5.35-.5 1.62-.72 3.21-1.49 4.77-2.34 3.03-1.65 5.89-3.59 8.58-5.75 4.8-3.86 8.84-8.54 12.34-13.6 1.65-2.38 3.17-4.84 4.63-7.33 1.63-2.79 4.16-6.3 3.21-9.71-.51-1.83-1.91-3.46-3.17-4.83s-2.8-2.63-4.52-3.41-3.89-1.27-5.73-.61c-1.69.6-1.83 2.02-2.67 3.34-1.13 1.78 1.63 4.01 2.98 2.3.34-.43.59-.66 1.12-.8l-2.39-1.82c-.34 7.92-6.23 14.19-11.42 19.63-2.74 2.87-5.7 5.45-9.1 7.51-1.75 1.06-3.56 2-5.32 3.02-.88.51-1.76 1.04-2.62 1.59-.37.24-.73.49-1.09.74-.2.15-.41.29-.63.43-.4.12-.27.2.39.23l.42 1.59c.2-.98.38-1.96.57-2.94.35-1.83-2.22-2.57-2.8-.77Z"/><path d="M88.95 52.2c-4.53 3.92-8.88 8.04-13.05 12.33-2.93 3.02-5.83 6.21-7.46 10.09-.49 1.17-.77 2.74.23 3.52 1 .79 2.45.16 3.54-.49 2.6-1.56 5.18-3.18 7.49-5.15 1.41-1.21 2.72-2.54 4.02-3.87 2.17-2.22 4.35-4.44 6.52-6.66 1.3-1.33 2.63-2.69 3.48-4.35s1.19-3.69.43-5.39"/><path d="M87.79 51.05c-4.36 3.63-8.59 7.42-12.6 11.45-3.45 3.46-7.46 7.4-8.91 12.21-.68 2.25-.05 5.02 2.5 5.69s4.99-1.31 6.95-2.57c4.82-3.08 8.66-7.05 12.64-11.12 3.73-3.81 10.08-8.87 7.67-14.98-.39-.98-1.31-1.67-2.41-1.37-.94.26-1.76 1.42-1.37 2.41 1.6 4.05-3.19 7.59-5.65 10.1-3.22 3.28-6.33 6.89-10.06 9.61-1.8 1.31-3.71 2.62-5.69 3.65-.27.14-.69.41-1 .4.18 0 .12.28.15 0 .08-.86.49-1.65.89-2.41 1.96-3.73 4.93-6.76 7.85-9.76 3.68-3.78 7.45-7.47 11.36-11.02 1.58-1.43-.72-3.63-2.31-2.31Zm-3.74 40.38c3.94 3.06 7.29 6.88 10.79 10.43 3.69 3.74 7.63 7.22 11.61 10.65 3.81 3.28 7.67 6.62 12.46 8.37 2.31.85 4.58.5 6.9-.11 2.21-.58 3.96-.9 6 .34 1.92 1.17 3.62 2.67 5.9 3.1 2.39.45 4.65-.33 6.33-2.1 3.07-3.24 3.09-8.2-.46-11.09-1.3-1.05-3.01-1.81-4.06-3.14-1.15-1.45-.19-3.64-.32-5.32-.35-4.51-3.29-7.9-6.49-10.82-4.48-4.08-9.06-8.06-13.67-11.99-2.32-1.98-4.65-3.95-6.99-5.89s-4.63-4.07-7.22-5.66c-1.9-1.16-3.84 1.46-2.34 3.03 1.77 1.85 3.88 3.36 5.86 4.98s3.84 3.16 5.75 4.76c3.87 3.25 7.71 6.54 11.51 9.88 3.05 2.68 6.83 5.36 8.75 9.03.96 1.84.84 3.62.66 5.62s.35 3.74 1.67 5.24c1.74 1.98 6.37 3.32 5.59 6.62-.35 1.49-1.78 3.12-3.43 2.93-2.01-.24-3.62-1.89-5.32-2.84-1.98-1.11-4.03-1.47-6.28-1.13-1.89.28-3.84 1.22-5.78 1.01-2.09-.22-4.25-1.68-5.95-2.82-1.91-1.28-3.66-2.78-5.42-4.27-4.19-3.55-8.34-7.19-12.29-11.01-3.78-3.66-7.47-7.29-11.74-10.38-1.5-1.09-3.48 1.44-2 2.59Zm56.65 40.63c-3.71 6.27-7.3 12.72-8.36 20.04-.99 6.84.54 13.97 6.72 17.88 5.57 3.52 13.29 2.5 17.53-2.61 4.18-5.04 4.58-12 2.82-18.09-2.27-7.8-7.37-14.39-10.62-21.76-.79-1.79-3.78-.52-3.17 1.34 1.97 5.99 5.74 11.18 8.35 16.88 2.28 4.97 3.8 10.98 1.37 16.18-2.24 4.79-7.6 7.41-12.66 5.2-5.39-2.35-6.87-8.23-6.38-13.62.64-7 3.92-13.71 7.15-19.84.95-1.81-1.7-3.38-2.75-1.61Z"/><path d="M87.8 94.02c2.28 2.48 5.24 4.2 8.59 4.67 1.75.25 3.45.09 5.16-.36s3.33-1.11 5.09-1.33c3.25-.4 6.8.19 9.64 1.85 3.12 1.83 5.61 4.32 9.44 4.53 2.2.12 4.1-.67 6.16-1.28 1.45-.44 2.79-.46 3.87.67.91.96 3.03.3 2.84-1.18-.5-3.96-4.9-4.43-8-3.34-1.77.62-3.38 1.37-5.29 1.34-1.94-.03-3.41-.69-4.96-1.82-2.91-2.12-5.58-4.1-9.23-4.73-1.85-.32-3.64-.31-5.5-.03s-3.55 1.04-5.31 1.69c-3.84 1.42-7.65.08-10.6-2.59-1.29-1.17-3.09.62-1.91 1.91Z"/></svg>