<?xml version="1.0" encoding="UTF-8"?><svg xmlns="http://www.w3.org/2000/svg" viewBox="0 0 180 180"><path d="M75.7 168.48c-.07-6.83-.21-13.82-2.38-20.36-1.06-3.19-2.56-6.26-4.82-8.77-2.51-2.78-5.69-4.48-9.1-5.9s-6.78-2.62-9.03-5.54c-2.06-2.67-2.58-6.05-2.75-9.33-.19-3.81-.07-7.62-.6-11.41-.3-2.14-1.07-3.96-2.77-5.36-1.64-1.35-3.48-2.22-5.45-2.96-2.92-1.11-7.53-2.76-5.94-6.74.6-1.5 1.65-2.62 2.83-3.67 1.36-1.22 2.6-2.45 3.65-3.95 2.46-3.5 4.11-7.65 4.92-11.84.68-3.5.83-7.1 1.41-10.62 1.85-11.2 5.71-22.48 12.89-31.42 6.66-8.3 15.71-13.98 26.02-16.58 5.88-1.48 11.94-1.96 17.99-1.78 6.23.19 12.62.88 18.5 3.06 4.5 1.67 8.42 4.29 11.55 7.9 2.82 3.24 4.87 7.43 6.14 11.62 2.95 9.76 2.68 20.25 1.81 30.47-.92 10.8-2.69 21.11-3.94 31.92-2.21 19.12-3.77 38.52-1.92 57.74.45 4.69 1.1 9.36 1.93 13.99.34 1.91 3.67 1.49 3.42-.46-2.49-19.45-2.07-39.24-.27-58.73.45-4.92.99-9.83 1.58-14.74.32-2.67.63-5.03.96-7.47.73-5.31 1.49-10.62 2.09-15.94 1.2-10.72 1.89-21.7-.07-32.37-1.81-9.85-6.51-19.09-15.09-24.65-4.89-3.17-10.6-4.91-16.33-5.71-6.68-.94-13.46-1.28-20.19-.59-11.52 1.19-22.52 5.34-31.27 13.05-8.67 7.63-14.32 18.11-17.56 29.08a90 90 0 0 0-2.17 9.16c-.63 3.46-.92 6.95-1.42 10.42-.61 4.25-2.11 8.35-4.53 11.91-.99 1.45-2.28 2.54-3.57 3.71-1.37 1.25-2.51 2.72-3.27 4.42-1.95 4.34-.28 8.47 3.65 10.92 1.67 1.04 3.56 1.64 5.39 2.35 1.5.58 3.72 1.51 4.34 3.13.64 1.67.58 3.73.66 5.49.08 1.91.08 3.83.15 5.74.13 3.7.56 7.45 2.31 10.77 1.83 3.49 4.95 5.9 8.5 7.46 3.36 1.48 7.06 2.48 9.93 4.87 5.25 4.37 7.16 11.12 8.13 17.62.5 3.35.68 6.72.73 10.1.03 1.93 3.02 1.93 3 0Z"/><path d="M120.64 61.92c-14.66.42-29.45.84-43.87-1.82-3.09-.57-6.27-1.33-8.75-3.26s-4.07-5.35-2.99-8.3c.84-2.3 3.13-3.85 5.53-4.34s4.89-.06 7.24.64c-1.52-3.08-1.59-6.84-.2-9.97 1.4-3.14 4.24-5.59 7.54-6.53 3.73-1.05 7.87-.15 11.07 2.04s5.48 5.57 6.72 9.24c-.99-3 1.43-6.4 4.51-7.09s6.35.89 8.37 3.31 2.99 5.55 3.56 8.66c4.43-1.19 9.65.14 12.35 3.84 2.71 3.7 2.07 9.66-1.79 12.15-2.21 1.42-4.97 1.59-7.59 1.71-13.28.61-26.69 1.21-39.78-1.08"/><path d="M120.64 60.22c-10.24.2-20.5.31-30.71-.62-4.87-.44-9.8-1.04-14.57-2.14-3.4-.79-7.85-2.44-8.33-6.48-.22-1.89 1.07-3.41 2.73-4.14 2.35-1.04 5.07-.48 7.43.19 2.04.58 3.39-1.63 2.57-3.35-2.69-5.66 1.05-12.57 7.25-13.43 6.47-.9 11.74 4.26 13.73 9.96.96 2.74 5.22 1.64 4.4-1.21-.39-1.34.24-2.68 1.32-3.54 1.37-1.08 3.25-1.01 4.79-.33 3.88 1.71 5.21 6.14 5.93 9.95.23 1.23 1.69 1.88 2.81 1.59 3.36-.85 7.43-.11 9.7 2.71 1.83 2.27 1.97 5.97.07 8.24-1.25 1.5-3.25 1.98-5.1 2.18-2.53.27-5.1.29-7.65.4-5.35.23-10.71.39-16.07.31-5.96-.1-11.91-.5-17.79-1.5-1.15-.2-2.32.3-2.65 1.51-.29 1.04.35 2.45 1.51 2.65 12.38 2.16 24.93 1.89 37.44 1.34 5.19-.23 11.22-.03 14.47-4.86 2.48-3.69 2.29-9.06-.32-12.63-3.35-4.58-9.47-6.11-14.82-4.75.94.53 1.87 1.06 2.81 1.59-1.1-5.84-4.14-12.24-10.55-13.57-2.93-.61-5.95.1-8.11 2.23-2.02 1.99-2.97 4.92-2.17 7.67 1.47-.4 2.93-.81 4.4-1.21-2.86-8.21-10.48-14.83-19.62-13.09-3.95.75-7.54 3.46-9.47 6.98-2.24 4.1-2.16 8.91-.22 13.09.86-1.12 1.72-2.23 2.57-3.35-5.13-1.5-11.39-1.47-14.71 3.44-3.01 4.45-.52 10.18 3.47 13.02 4.34 3.09 10.43 3.6 15.56 4.19 5.83.68 11.71.88 17.58.88 6.78 0 13.56-.29 20.33-.55 2.17-.08 2.19-3.43 0-3.39Z"/><path d="M83.3 70.05c-1.51 4-2.66 8.15-3.93 12.23-.27.88.32 2.05 1.27 2.23 3.88.72 7.79 1.14 11.73 1.27l-1.66-2.9c-2.93 4.37-4.96 9.26-6.04 14.4-.2.95.27 2.23 1.37 2.41 3.35.56 6.71.8 10.1.65-.56-.98-1.13-1.97-1.69-2.95a51.4 51.4 0 0 0-6.04 21.39c-.1 1.72 2.23 2.59 3.37 1.4 4.32-4.49 8.49-9.13 12.48-13.91 3.71-4.45 7.89-9.02 9.68-14.63.3-.93-.35-2.25-1.37-2.41-4.06-.66-8.19-1.03-12.27-1.5l1.76 3.07a71.7 71.7 0 0 0 6.08-14.16c.42-1.35-.7-2.47-1.96-2.57-3.21-.27-6.42-.55-9.62-.82l1.97 2.59c1.52-6.83 4.11-13.16 7.96-19.01 1.4-2.12-2.01-4.1-3.4-1.99-3.97 6.03-6.94 12.86-8.49 19.91-.3 1.38.61 2.47 1.97 2.59 3.21.27 6.42.53 9.62.8-.65-.86-1.31-1.71-1.96-2.57-1.42 4.6-3.32 8.99-5.68 13.18-.83 1.46.26 2.89 1.76 3.07 3.9.45 7.83 1.01 11.75 1.27-.63-.83-1.26-1.66-1.89-2.48-.56 2.56-2.07 4.77-3.66 6.81-1.81 2.33-3.7 4.6-5.59 6.85-3.81 4.53-7.79 8.9-11.93 13.13l3.37 1.4c.43-6.77 2.32-13.41 5.48-19.41.66-1.25-.14-3.02-1.69-2.95-3.04.14-6.07 0-9.06-.51l1.37 2.41c1.03-4.82 2.92-9.36 5.59-13.5.81-1.26-.26-2.88-1.66-2.9-3.61-.06-7.2-.35-10.77-.91l1.27 2.23c1.16-4.11 2.45-8.21 3.37-12.39.43-1.94-2.25-2.63-2.94-.81Zm-19.98 98.43c-.07-3.14-.15-6.29-.22-9.43 5.65-1.59 11.52-2.25 17.35-2.91 11.04-1.24 22.08-2.48 33.18-2.9 10.68-.4 21.47-.01 31.87 2.47.5.12 1.04.26 1.38.65.3.34.41.8.5 1.25.75 3.56 1.51 7.11 2.26 10.67.07.35.14.73-.01 1.05-.26.55-1 .62-1.61.61-13.89-.12-27.77-1.53-41.66-1.3-4.36.07-8.72.31-13.08.45-9.94.33-19.89.22-29.82-.35-.17-.23-.08-.6.17-.73"/><path d="M64.79 168.48c.09-3.14.18-6.29.22-9.43-.47.61-.94 1.23-1.4 1.84 5.97-1.42 11.99-2.2 18.08-2.87s12.52-1.38 18.8-1.9c12.24-1.02 24.74-1.64 36.94.2 1.65.25 3.3.53 4.94.89.78.17 1.77.58 2.56.6.16 0 .55.29.27-.06.12.15.13.73.18.94.36 1.78.7 3.57 1.08 5.35.17.81.36 1.61.54 2.42.09.4.17.81.26 1.21.05.24.11.48.16.73.08.62.13.65.16.06l.79-.79c-.45.33-2.14.05-2.8.04-1.49-.03-2.98-.07-4.46-.12-2.81-.09-5.62-.22-8.43-.36-5.62-.27-11.24-.57-16.86-.72-11.08-.28-22.12.65-33.19.58-6.39-.04-12.75-.21-19.13-.52.7.54 1.41 1.07 2.11 1.61l-.09-.26v1.16l.06-.27-.56.96.19-.2c1.98-2-1.07-5.05-3.08-3.08-.79.77-1.08 1.78-.74 2.85.31.97 1.11 1.54 2.11 1.61 12.7.82 25.35.37 38.05.04s25.36.49 38.07.97c2.97.11 6.1.46 9.06.18 1.36-.13 2.67-.82 3.11-2.2.48-1.47-.18-3.21-.48-4.66-.32-1.54-.63-3.08-.97-4.61-.33-1.5-.53-3.12-1.1-4.55-1.14-2.86-5.22-2.96-7.83-3.42-12.18-2.15-24.65-1.9-36.93-.98-7.11.53-14.2 1.31-21.28 2.11s-13.96 1.3-20.58 3.39c-.76.24-1.45.99-1.4 1.84.19 3.15.42 6.29.66 9.43.14 1.87 2.88 1.91 2.94 0Z"/></svg>