<?xml version="1.0" encoding="UTF-8"?><svg xmlns="http://www.w3.org/2000/svg" viewBox="0 0 180 180"><path d="M133.2 24.79c-20.84 11.65-41.04 24.36-60.87 37.64C62.47 69.03 52.72 75.79 43 82.6c-2.25 1.58-4.61 3.07-6.72 4.84s-3.75 4.09-3.43 6.83c.7 5.88 7.8 5.78 12.23 5.86 14.45.27 28.9-.41 43.25-2.09l-2.31-2.31q.765 12.54 1.56 25.08c.25 3.91.28 7.92.9 11.8.55 3.42 2.46 6.41 5.83 7.58 3.07 1.07 6.72.32 9.38-1.46 3.01-2.02 5.06-5.01 6.99-8.01 4.22-6.58 8.31-13.23 12.3-19.95 8.15-13.74 15.81-27.76 22.86-42.09 6.99-14.23 13.39-28.78 18.93-43.64 1.24-3.32 3-6.89 3.23-10.47s-2.27-6.51-5.87-6.58-6.49 2.08-9.23 3.88c-3.22 2.12-6.4 4.3-9.56 6.51a282 282 0 0 1-5.06 3.45c-2.18 1.45-.19 4.96 2.07 3.55 3.13-1.95 6.2-3.97 9.25-6.05 2.88-1.96 5.73-4.09 8.78-5.77 1.29-.71 4.79-2.4 5.22.11.21 1.25-.35 2.64-.75 3.79-.65 1.86-1.33 3.71-2.02 5.56-5.07 13.62-10.88 26.95-17.22 40.03-6.43 13.26-13.39 26.27-20.77 39.03-3.63 6.28-7.37 12.5-11.21 18.67-1.86 2.98-3.71 5.98-5.65 8.91-1.55 2.34-3.42 5-6.17 6.02-2.5.93-5.4.45-6.4-2.27-.6-1.65-.62-3.46-.73-5.19-.13-2.13-.26-4.26-.4-6.39-.54-8.69-1.1-17.38-1.66-26.06-.07-1.13-1.01-2.47-2.31-2.31-12.13 1.42-24.35 2.18-36.57 2.15-3.05 0-6.11-.06-9.16-.16-1.4-.04-3.97.04-4.89-1.17s1.39-3.05 2.28-3.73c2.1-1.6 4.33-3.05 6.48-4.57 18.62-13.11 37.4-26.03 56.56-38.34 10.53-6.77 21.12-13.44 31.98-19.67 2.02-1.16.21-4.27-1.83-3.13Z"/><path d="M162.82 11.01c-20.1 21.69-40.28 43.31-59.89 65.45-5.48 6.19-10.9 12.43-16.2 18.77-.68.82-.8 1.98 0 2.78.7.7 2.1.82 2.78 0 18.81-22.74 38.9-44.41 58.8-66.19 5.63-6.16 11.11-12.43 16.66-18.67 1.3-1.46-.81-3.6-2.15-2.15ZM74.7 98.53l-3.49 22.79c-.44 2.86-.88 5.75-.71 8.63 1.31-.02 2.43-.91 3.42-1.77 3.84-3.32 7.55-6.79 11.13-10.39.71-.72 1.44-1.47 1.87-2.38.56-1.19.57-2.56.57-3.88-.02-3.78-.12-7.56-.31-11.33-.03-.56-.09-1.18-.53-1.53-.32-.25-.75-.29-1.16-.31-3.21-.14-6.44.02-9.62.48"/><path d="M73.12 98.09c-1.02 5.29-2.08 10.55-2.92 15.87-.82 5.23-2.14 10.67-1.84 15.98.06 1.07.93 2.25 2.13 2.13 2.49-.24 4.16-1.79 5.96-3.38s3.54-3.18 5.26-4.82c1.79-1.7 3.61-3.4 5.29-5.21 1.57-1.68 2.35-3.52 2.48-5.82s-.02-4.84-.1-7.24c-.04-1.31-.1-2.63-.15-3.94-.04-1.15.04-2.43-.49-3.5-1.05-2.13-3.63-1.99-5.68-2.03-2.56-.06-5.29 0-7.8.57-2.4.55-1.91 4.46.59 4.33 2.01-.11 3.99-.44 6-.53 1.04-.04 2.09-.08 3.13-.07h.48c.54.07.43-.06-.32-.39-.09.07.05 1.01.06 1.13.1 1.97.15 3.94.19 5.91s.17 4.01 0 5.98c-.15 1.77-1.28 2.76-2.48 3.95-1.35 1.35-2.72 2.67-4.11 3.97s-2.8 2.58-4.22 3.84c-1.05.93-2.61 2.88-4.11 2.98l2.13 2.13c-.19-5.2.99-10.46 1.76-15.59s1.33-10.55 1.93-15.83c.21-1.82-2.86-2.24-3.21-.43Zm-59.75 70.69c9.76 4.79 21.86 3.61 30.54-2.94 3.97-3 7.36-6.91 9.4-11.48 2.2-4.93 2.78-11.15-1.48-15.2-1.74-1.65-4.1-2.77-6.53-2.64-2.61.13-4.81 1.61-6.34 3.67-2.83 3.84-2.88 9.25-1.12 13.54s5.27 8.09 9.62 9.99c4.64 2.04 9.95 2.07 14.74.49 5.6-1.84 10.33-5.63 13.56-10.53 1.6-2.42 2.82-5.1 3.75-7.84s1.8-5.95 1.66-8.96c-.09-1.99-2.91-2.44-3.5-.47-.63 2.09-.95 4.26-1.58 6.36s-1.4 4.04-2.42 5.93c-1.97 3.66-4.7 6.96-8.25 9.17-6.72 4.18-15.64 4.34-21.07-2-2.19-2.56-3.53-6.13-3.01-9.51.45-2.91 2.86-6.55 6.19-4.74 3.8 2.07 3.45 6.75 2.11 10.25-1.43 3.76-4.08 7.1-7.09 9.71-7.76 6.72-18.53 7.94-27.97 4.32-1.66-.64-2.82 2.1-1.22 2.88Z"/></svg>