<?xml version="1.0" encoding="UTF-8"?><svg xmlns="http://www.w3.org/2000/svg" viewBox="0 0 180 180"><path d="M117.61 47.8c-.4-3.38-.8-6.76-1.34-10.11-.62-3.79-1.6-7.88-4.62-10.26-3.2-2.52-7.67-2.37-11.74-2.09l-1.18.35c-12.61.43-30.94 2.43-43.33 4.84-3.57.7-7.3 1.55-10.04 3.95-3.36 2.93-4.6 7.62-4.89 12.07-.4 6.25.78 12.59 3.39 18.28 1 2.18 2.28 4.35 4.31 5.63 1.52.96 3.33 1.34 5.11 1.55 7.37.9 14.8-.63 22.22-1.11.47-.03.96-.05 1.4.13.49.21.84.66 1.16 1.09 1.96 2.63 3.91 5.26 5.87 7.88 2.08-3.84 3.99-7.78 5.73-11.79 6.85-.82 13.62-2.4 20.13-4.69 2.02-.71 4.08-1.53 5.57-3.07 3.09-3.18 2.78-8.24 2.26-12.65Zm-58.79 6.49c-1.48-.99-2.34-2.93-1.87-4.65.33-1.23 1.24-2.19 2.2-3.04-.08.05-.15.1-.23.15-.66.45-1.31.92-1.94 1.41l2.52-1.88c-.12.1-.24.21-.36.32 1.3-.87 2.82-1.63 4.31-1.23.58.15 1.1.48 1.55.88 4.75 4.31-1.02 11.51-6.19 8.04Zm17.37-2.06c-1.48-.99-2.34-2.93-1.87-4.65.33-1.23 1.24-2.19 2.2-3.04-.08.05-.15.1-.23.15-.66.45-1.31.92-1.94 1.41l2.52-1.88c-.12.1-.24.21-.36.32 1.3-.86 2.82-1.63 4.32-1.23.58.15 1.1.48 1.55.88 4.75 4.31-1.02 11.51-6.19 8.04m17.36-2.05c-1.48-.99-2.34-2.93-1.87-4.65.33-1.23 1.24-2.19 2.2-3.04-.08.05-.15.1-.23.15-.66.45-1.31.92-1.94 1.41l2.52-1.88c-.12.1-.24.21-.36.32 1.3-.87 2.82-1.63 4.31-1.23.58.15 1.1.48 1.55.88 4.75 4.31-1.02 11.51-6.19 8.04Z"/><path d="M119.61 47.8c-.4-3.39-.8-6.79-1.34-10.16-.43-2.68-.99-5.35-2.21-7.8-2.67-5.35-8.19-6.8-13.76-6.62-1.1.03-2.23.03-3.3.31-.13.03-.96.22-.62.18-.69.09-1.42.06-2.11.09-2.67.13-5.33.3-8 .51-5.65.44-11.28 1.02-16.9 1.73-5.36.68-10.7 1.46-16.01 2.47-5.54 1.06-11.08 2.71-14.13 7.86-2.86 4.82-3.2 10.99-2.65 16.44.32 3.15.96 6.25 2 9.24.98 2.81 2.17 5.69 4.1 7.99 2.2 2.63 5.29 3.59 8.58 3.99 3.69.44 7.4.29 11.09-.04 3.7-.33 7.41-.92 11.12-1.07.17 0 .73.08.62.01.3.2.58.74.79 1.01.59.79 1.17 1.58 1.76 2.37 1.17 1.58 2.35 3.15 3.52 4.73.84 1.13 2.68 1.44 3.45 0q3.12-5.775 5.73-11.79l-1.73.99c7.77-.95 15.8-2.57 23.03-5.69 3.14-1.36 5.51-3.62 6.58-6.92 1.01-3.15.73-6.58.36-9.81-.12-1.07-.83-2-2-2-.98 0-2.13.92-2 2 .4 3.4 1.02 7.89-1.28 10.81-1.16 1.47-2.99 2.23-4.7 2.85-2.19.79-4.42 1.49-6.67 2.1q-3.405.945-6.87 1.62c-1.23.24-2.47.46-3.71.65-1.05.16-2.24.17-3.26.45-1.31.36-1.65 1.97-2.14 3.06q-.675 1.5-1.38 2.97c-1.08 2.25-2.21 4.48-3.4 6.67h3.45c-1.96-2.63-3.89-5.27-5.87-7.88-.86-1.13-1.74-2.02-3.22-2.19s-3 .11-4.45.25c-6.22.6-12.58 1.68-18.83.83-2.54-.34-4.68-1.19-6.16-3.37-1.5-2.21-2.47-4.82-3.22-7.37-1.54-5.2-2.13-11.06-.92-16.4.53-2.31 1.43-4.6 3.1-6.33 1.79-1.85 4.21-2.76 6.66-3.39 4.74-1.22 9.66-1.88 14.5-2.57 10.2-1.45 20.5-2.48 30.79-2.87.48-.02.94-.04 1.4-.15.17-.04.34-.1.51-.15.08-.02.57-.13.34-.1 1.35-.22 2.85-.15 4.21-.1 2.62.11 5.31.77 7.03 2.91 1.65 2.06 2.23 4.83 2.67 7.36.6 3.42.99 6.87 1.4 10.32.13 1.07.83 2 2 2 .98 0 2.13-.92 2-2Z"/><path d="M59.83 52.56c-.17-.12-.14-.1.09.08-.07-.05-.13-.11-.2-.17-.13-.12-.24-.25-.37-.37-.14-.16-.11-.13.07.1-.05-.07-.1-.14-.15-.22-.07-.11-.14-.22-.2-.34-.04-.08-.08-.15-.12-.23.11.28.13.32.05.12-.05-.17-.11-.33-.15-.5-.02-.08-.04-.17-.05-.25.04.32.05.37.02.15 0-.15-.01-.3 0-.45.02-.51-.11.35 0-.05.05-.18.09-.35.14-.52.08-.21.06-.18-.04.09.04-.08.08-.17.13-.25.08-.14.16-.28.25-.42.29-.43-.2.2.07-.1.13-.14.25-.29.38-.42.26-.28.54-.54.83-.79.74-.66.73-1.88.16-2.63s-1.74-1.06-2.58-.52c-.89.58-1.73 1.23-2.57 1.88-.36.28-.61.98-.59 1.41s.15.85.43 1.21c.55.72 1.78 1.11 2.58.52.84-.63 1.68-1.25 2.52-1.88-.81-1.05-1.62-2.09-2.42-3.14-.12.1-.24.21-.36.32-.75.66-.73 1.88-.16 2.63s1.74 1.07 2.58.52c.4-.26.8-.51 1.22-.72.06-.03.23-.14.28-.14-.03 0-.43.16-.05.02.24-.08.48-.15.73-.21.3-.08-.03.08-.09 0 0 0 .26-.02.3-.02 0 0 .28-.02.3 0l-.23-.04c.08.01.15.03.22.05.1.02.19.06.29.08.26.06-.38-.24 0 0 .08.05.17.1.26.15.06.04.37.3.16.11-.22-.2.09.09.12.12.06.06.12.11.17.17.11.11.21.23.31.34.22.24-.09-.11-.1-.14.03.08.11.15.16.22.09.13.17.27.25.41.04.07.28.58.12.22s.04.14.07.23c.04.12.07.25.09.38.1.51-.03-.47 0 .04.02.27.01.53 0 .8-.03.44.1-.52 0-.02-.03.15-.07.3-.11.45-.04.12-.08.23-.12.35-.09.29.09-.21.1-.22-.03.05-.05.11-.08.17-.13.27-.28.52-.44.76-.04.05-.07.1-.11.15-.14.21.35-.41.11-.15-.08.09-.16.19-.25.28s-.18.18-.27.26c-.05.04-.09.08-.14.12-.27.23-.02 0 .11-.08-.23.12-.44.3-.67.42-.18.09-.6.21.01.01-.15.05-.29.11-.44.15s-.3.08-.46.11c-.49.09.48-.03-.03 0q-.24.015-.48 0c-.06 0-.13 0-.19-.01-.19-.02-.42-.14.14.02-.31-.09-.63-.16-.95-.26-.25-.08.48.23.13.05-.08-.04-.17-.08-.25-.12-.19-.1-.37-.21-.55-.33-.88-.58-2.25-.2-2.74.72-.53 1-.22 2.12.72 2.74A7.05 7.05 0 0 0 63.15 57c1.72-.37 3.15-1.46 4.2-2.84 2.18-2.86 1.73-6.97-.94-9.36-1.14-1.02-2.6-1.69-4.16-1.56-1.51.13-2.88.77-4.13 1.59.81 1.05 1.62 2.09 2.42 3.14.12-.11.24-.21.36-.32.75-.65.72-1.89.16-2.63s-1.78-1.11-2.58-.52c-.84.63-1.68 1.25-2.52 1.88.81 1.05 1.62 2.09 2.42 3.14-.36.28.21-.16.28-.21.16-.12.32-.24.48-.35.33-.24.66-.47 1-.69-.81-1.05-1.62-2.09-2.42-3.14-1.58 1.41-2.91 3.21-2.92 5.42 0 2.21 1.21 4.18 2.99 5.42.86.6 2.26.19 2.74-.72.54-1.02.2-2.1-.72-2.74Zm17.37-2.05c-.17-.12-.14-.1.09.08-.07-.05-.13-.11-.2-.17-.13-.12-.24-.25-.37-.37-.14-.16-.11-.13.07.1-.05-.07-.1-.14-.15-.22-.07-.11-.14-.22-.2-.34-.04-.08-.08-.15-.12-.23.11.28.13.32.05.12-.05-.17-.11-.33-.15-.5-.02-.08-.04-.17-.05-.25.04.32.05.37.02.15 0-.15-.01-.3 0-.45.02-.51-.11.35 0-.05.05-.18.09-.35.14-.52.08-.21.06-.18-.04.09.04-.08.08-.17.13-.25.08-.14.16-.28.25-.42.29-.43-.2.2.07-.1.13-.14.25-.29.38-.42.26-.28.54-.54.83-.79.74-.66.73-1.88.16-2.63-.58-.75-1.74-1.07-2.58-.52-.89.58-1.73 1.23-2.57 1.88-.36.28-.61.98-.59 1.41s.15.85.43 1.21c.55.72 1.78 1.11 2.58.52.84-.63 1.68-1.25 2.52-1.88-.81-1.05-1.62-2.09-2.42-3.14-.12.1-.24.21-.36.32-.75.66-.73 1.88-.16 2.63.58.75 1.74 1.07 2.58.52.4-.26.8-.51 1.22-.72.06-.03.23-.14.28-.14-.03 0-.43.16-.05.02.24-.08.48-.15.73-.21.3-.08-.03.08-.09 0 0 0 .26-.02.3-.02 0 0 .28-.02.3 0l-.23-.04c.08.01.15.03.22.05.1.02.19.06.29.08.26.06-.38-.24 0 0 .08.05.17.1.26.15.06.04.37.3.16.11-.22-.2.09.09.12.12.06.06.12.11.17.17.11.11.21.23.31.34.22.24-.09-.11-.1-.14.03.08.11.15.16.22.09.13.17.27.25.41.04.07.28.58.12.22s.04.14.07.23c.04.12.07.25.09.38.1.51-.03-.47 0 .04.02.27.01.53 0 .8-.03.44.1-.52 0-.02-.03.15-.07.3-.11.45-.04.12-.08.23-.12.35-.09.29.09-.21.1-.22-.03.05-.05.11-.08.17-.13.27-.28.52-.44.76-.04.05-.07.1-.11.15-.14.21.35-.41.11-.15-.08.09-.16.19-.25.28s-.18.18-.27.26c-.05.04-.09.08-.14.12-.27.23-.02 0 .11-.08-.23.12-.44.3-.67.42-.18.09-.6.21.01.01-.15.05-.29.11-.44.15s-.3.08-.46.11c-.49.09.48-.03-.03 0q-.24.015-.48 0c-.06 0-.13 0-.19-.01-.19-.02-.42-.14.14.02-.31-.09-.63-.16-.95-.26-.25-.08.48.23.13.05-.08-.04-.17-.08-.25-.12-.19-.1-.37-.21-.55-.33-.88-.58-2.25-.2-2.74.72-.53 1-.22 2.12.72 2.74a7.05 7.05 0 0 0 5.36 1.02c1.72-.37 3.15-1.46 4.2-2.84 2.18-2.86 1.72-6.97-.94-9.36-1.14-1.02-2.6-1.69-4.16-1.56s-2.88.77-4.13 1.59l2.42 3.14c.12-.11.24-.21.36-.32.75-.65.72-1.89.16-2.63s-1.78-1.11-2.58-.52c-.84.63-1.68 1.25-2.52 1.88.81 1.05 1.62 2.09 2.42 3.14-.36.28.21-.16.28-.21.16-.12.32-.24.48-.35.33-.24.66-.47 1-.69-.81-1.05-1.62-2.09-2.42-3.14-1.58 1.41-2.91 3.21-2.92 5.42s1.21 4.18 2.99 5.42c.86.6 2.26.19 2.74-.72.54-1.02.2-2.1-.72-2.74Zm17.36-2.06c-.17-.12-.14-.1.09.08-.07-.05-.13-.11-.2-.17-.13-.12-.24-.25-.37-.37-.14-.16-.11-.13.07.1-.05-.07-.1-.14-.15-.22-.07-.11-.14-.22-.2-.34-.04-.08-.08-.15-.12-.23.11.28.13.32.05.12-.05-.17-.11-.33-.15-.5-.02-.08-.04-.17-.05-.25.04.32.05.37.02.15 0-.15-.01-.3 0-.45.02-.51-.11.35 0-.05.05-.18.09-.35.14-.52.08-.21.06-.18-.04.09.04-.08.08-.17.13-.25.08-.14.16-.28.25-.42.29-.43-.2.2.07-.1.13-.14.25-.29.38-.42.26-.28.54-.54.83-.79.74-.66.73-1.88.16-2.63-.58-.75-1.74-1.06-2.58-.52-.89.58-1.73 1.23-2.57 1.88-.36.28-.61.98-.59 1.41s.15.85.43 1.21c.55.72 1.78 1.11 2.58.52.84-.63 1.68-1.25 2.52-1.88-.81-1.05-1.62-2.09-2.42-3.14-.12.1-.24.21-.36.32-.75.66-.73 1.88-.16 2.63s1.74 1.07 2.58.52c.4-.26.8-.51 1.22-.72.06-.03.23-.14.28-.14-.03 0-.43.16-.05.02.24-.08.48-.15.73-.21.3-.08-.03.08-.09 0 0 0 .26-.02.3-.02 0 0 .28-.02.3 0l-.23-.04c.08.01.15.03.22.05.1.02.19.06.29.08.26.06-.38-.24 0 0 .08.05.17.1.26.15.06.04.37.3.16.11-.22-.2.09.09.12.12.06.06.12.11.17.17.11.11.21.23.31.34.22.24-.09-.11-.1-.14.03.08.11.15.16.22.09.13.17.27.25.41.04.07.28.58.12.22s.04.14.07.23c.04.12.07.25.09.38.1.51-.03-.47 0 .04.02.27.01.53 0 .8-.03.44.1-.52 0-.02-.03.15-.07.3-.11.45-.04.12-.08.23-.12.35-.09.29.09-.21.1-.22-.03.05-.05.11-.08.17-.13.27-.28.52-.44.76-.04.05-.07.1-.11.15-.14.21.35-.41.11-.15-.08.09-.16.19-.25.28s-.18.18-.27.26c-.05.04-.09.08-.14.12-.27.23-.02 0 .11-.08-.23.12-.44.3-.67.42-.18.09-.6.21.01.01-.15.05-.29.11-.44.15s-.3.08-.46.11c-.49.09.48-.03-.03 0q-.24.015-.48 0c-.06 0-.13 0-.19-.01-.19-.02-.42-.14.14.02-.31-.09-.63-.16-.95-.26-.25-.08.48.23.13.05-.08-.04-.17-.08-.25-.12-.19-.1-.37-.21-.55-.33-.88-.58-2.25-.2-2.74.72-.53 1-.22 2.12.72 2.74a7.05 7.05 0 0 0 5.36 1.02c1.72-.37 3.15-1.46 4.2-2.84 2.18-2.86 1.72-6.97-.94-9.36-1.14-1.02-2.6-1.69-4.16-1.56-1.51.13-2.88.77-4.13 1.59.81 1.05 1.62 2.09 2.42 3.14.12-.11.24-.21.36-.32.75-.65.72-1.89.16-2.63s-1.78-1.11-2.58-.52c-.84.63-1.68 1.25-2.52 1.88.81 1.05 1.62 2.09 2.42 3.14-.36.28.21-.16.28-.21.16-.12.32-.24.48-.35.33-.24.66-.47 1-.69-.81-1.05-1.62-2.09-2.42-3.14-1.58 1.41-2.91 3.21-2.92 5.42s1.21 4.18 2.99 5.42c.86.6 2.26.19 2.74-.72.54-1.02.2-2.1-.72-2.74Z"/><path d="M84.73 9.73c-11.31.18-22.53 1.41-33.6 3.74-5.27 1.11-10.83 2.17-15.78 4.35-4.48 1.97-7.6 5.74-9.45 10.2-2 4.84-2.25 10.16-2.03 15.33.22 5.32.59 10.67 1.24 15.96.65 5.3 1.63 10.61 3.6 15.6 1.77 4.49 4.59 8.56 9.08 10.65 5.26 2.45 11.44 2.81 17.16 2.99 6.44.21 12.77-.46 19.14-1.38-.84-.48-1.68-.95-2.52-1.43 1.03 2.55 1.48 5.4 2.05 8.08 1 4.64 1.88 9.3 2.74 13.96 1.9 10.24 3.64 20.51 5.68 30.72.65 3.26 1.45 6.47 2.29 9.69.5 1.92 3.47 1.1 2.97-.82-.03-.1-.07-.28 0 .19-.03-.15-.04-.3-.06-.45l-.06-.3c-.04-.25-.09-.5-.13-.76-.11-.62-.2-1.24-.3-1.87-.26-1.71-.5-3.42-.78-5.12-.78-4.7-1.53-9.39-2.32-14.09-1.71-10.26-3.55-20.53-5.67-30.72-.66-3.18-1.21-6.59-2.47-9.61-.44-1.06-1.32-1.69-2.52-1.43-5.11 1.12-10.4 1.48-15.63 1.47-4.86 0-9.94-.2-14.67-1.43-2.02-.53-4.01-1.32-5.62-2.69s-2.78-3.23-3.65-5.2c-1.95-4.39-3.03-9.16-3.72-13.9-.71-4.91-.96-9.88-1.24-14.82-.27-4.83-.55-9.8.75-14.51 1.05-3.82 3.18-7.51 6.67-9.56 2.03-1.19 4.31-1.81 6.55-2.44 2.48-.69 4.98-1.33 7.48-1.93 11.4-2.71 23.1-4.45 34.79-5.2 2.09-.13 2.13-3.32 0-3.28Zm6.76 2.58c7.7-.49 16.09-1.48 23.23 2.16 3.05 1.56 5.67 3.77 7.32 6.81 1.88 3.47 2.67 7.54 3.54 11.36.93 4.07 1.7 8.18 2.31 12.31.58 3.89 1.16 7.84 1.46 11.76.27 3.49 0 7-2.21 9.88-1.86 2.43-4.66 4.02-7.4 5.25-7.62 3.43-15.96 4.43-23.8 7.21-2.68.95-1.47 5.28 1.18 4.26 3.81-1.46 7.74-2.44 11.68-3.45s7.77-2.24 11.51-3.84c3.22-1.38 6.42-3.06 8.87-5.62 2.74-2.86 4.12-6.5 4.29-10.44.18-4.14-.66-8.36-1.19-12.45-.59-4.56-1.34-9.1-2.3-13.6s-1.81-8.67-3.53-12.7c-1.55-3.64-4.05-6.68-7.37-8.84-8.3-5.38-18.69-4.52-28-3.16-1.74.26-1.34 3.2.42 3.08Z"/><path d="M94.21 80.52c-.57 2.21-.04 4.67.42 6.86.52 2.48 1.17 4.93 1.77 7.39.58 2.4 1.16 4.8 1.76 7.2.6 2.42.99 5.08 2.05 7.34.75 1.62 3.41.81 3.33-.9-.11-2.41-1-4.9-1.57-7.23s-1.11-4.48-1.67-6.71-1.1-4.48-1.68-6.71c-.28-1.06-.58-2.1-.82-3.17-.26-1.22-.31-2.41-.46-3.64-.2-1.66-2.64-2.31-3.13-.42Z"/><path d="M103.27 109.44c1.64-.41 3.3-.81 4.97-1.04.69-.09 1.42-.2 2.12-.14.25.02 0-.19.08.03.14.34.2.77.27 1.13.37 1.7.71 3.41 1.01 5.13.16.94.31 1.87.44 2.81.09.62.42 1.64.2 2.21l.53-.91c-.51.51-1.56.74-2.23.93-.84.24-1.7.41-2.58.46-1.74.09-3.71-.18-4.33 1.95-.47 1.62.17 3.7.42 5.32.28 1.81.34 4.07 1.21 5.69.67 1.24 2.72.98 3.04-.4.37-1.6-.07-3.47-.23-5.09-.08-.82-.17-1.63-.27-2.45-.07-.55-.41-1.62-.25-2.16l-.52.88.2-.24-.88.51c.66-.23 1.58-.04 2.28-.09.85-.07 1.71-.19 2.54-.37 1.48-.33 3.46-.86 4.51-2.02 1.15-1.27.64-3.11.43-4.62-.24-1.73-.51-3.44-.84-5.16-.52-2.74-.82-6.78-4.17-7.43-1.51-.3-3.17.04-4.65.36-1.62.35-3.13.89-4.61 1.64-1.73.87-.5 3.5 1.29 3.06Z"/><path d="M107.61 134.46c1.66-.48 3.39-.77 5.11-.9.84-.06 1.68-.07 2.52-.04.59.02 1.63-.12 2.14.21l-.77-.77c.19.25.19 1.01.23 1.45.08.82.17 1.63.25 2.45.16 1.53.36 3.06.48 4.59.02.12.02.25.02.37-.03.34.08.28.34-.21 0 .08-.37.17-.41.17-.73.13-1.44.4-2.17.53-1.42.25-2.87.27-4.31.17-1.52-.1-2.34 1.47-2.1 2.76.49 2.62 1.23 5.16 2.22 7.64.45 1.14 1.38 1.73 2.63 1.49s2.45-.47 3.68-.7c.57-.11 1.14-.22 1.72-.33l.98-.19c.63-.06.65-.11.08-.17l-.77-.77c.3.4.25 1.33.32 1.84.11.85.22 1.7.34 2.54.23 1.64.47 3.28.68 4.92.09.72.58 2.3-.11 2.77-.53.36-1.54.42-2.14.57-.77.19-1.55.37-2.32.54-6.17 1.36-12.5 2.12-18.81 2.34q-2.385.075-4.77.06c-1.2-.01-2.15.27-2.53-1.02-.15-.51-.25-1.04-.35-1.56-.39-1.99-.7-4-1.01-6.01-2.18-14.01-3.86-28.08-6.18-42.06-.96-5.8-1.93-11.57-3.29-17.29-.55-2.31-4.1-1.33-3.56.98.1.42.17.86.25 1.28.02.1.11.56.02.04.04.24.07.48.1.72.04.31-.06-.49 0 0 .03.21.05.41.08.62.19 1.44.47 2.87.69 4.3.55 3.49 1.04 7 1.51 10.5.55 4.07 1.03 8.26 1.67 12.46.63 4.16 1.25 8.32 1.88 12.48 1.03 6.81 1.94 13.63 3.1 20.42.32 1.91.52 4.17 1.49 5.89 1.8 3.21 5.85 2.66 8.99 2.6q5.25-.105 10.47-.72c3.99-.47 7.92-1.19 11.83-2.1 1.79-.42 3.97-.7 5.5-1.78 1.44-1.01 1.93-2.69 1.82-4.39-.13-2.05-.48-4.11-.71-6.15-.22-1.96-.24-4.14-.78-6.02-.65-2.24-2.73-2.33-4.62-1.98-2.13.4-4.25.82-6.37 1.23.88.5 1.75.99 2.63 1.49-.99-2.48-1.69-5.03-2.13-7.66l-2.1 2.76c1.69.12 3.36.02 5.03-.25 1.4-.22 3-.51 4.2-1.31 1.39-.93 1.79-2.43 1.65-4.03-.16-1.8-.41-3.59-.61-5.39-.17-1.45-.07-3.28-.73-4.6-.8-1.6-2.34-1.83-3.97-1.94-3.45-.25-6.78.4-9.95 1.72-2.02.84-1.31 4.05.93 3.39Z"/><path d="M83.4 86.91c.55 5.38 1.82 10.74 2.81 16.05 1.01 5.39 2.02 10.78 3.02 16.17 2.02 10.87 3.82 21.78 5.73 32.66 1.08 6.13 2.01 12.3 3.21 18.41.21 1.08 1.5 1.69 2.5 1.42 1.15-.32 1.59-1.41 1.42-2.5-.86-5.41-1.98-10.78-2.99-16.16s-1.99-10.77-3.09-16.14c-2.21-10.73-4.24-21.49-6.38-32.24-1.19-5.98-2.09-12.16-3.82-18.01-.38-1.27-2.56-1.1-2.41.33Z"/></svg>