<?xml version="1.0" encoding="UTF-8"?><svg xmlns="http://www.w3.org/2000/svg" viewBox="0 0 180 180"><path d="M160.92 109.03c-16.61-15.12-37.29-25.93-59.94-27.59-20.52-1.51-41.21 5.4-56.78 18.85-8.55 7.38-15.16 16.78-19.04 27.39-.4 1.08.3 2.09 1.1 2.7 15.85 12.14 34.94 20.1 54.85 22.04 18.53 1.81 37.73-2.25 53.79-11.7 8.93-5.26 16.82-12.16 22.99-20.5 1.48-2-1.91-4.64-3.47-2.68-10.99 13.8-26.2 23.3-43.19 27.82a88 88 0 0 1-12.86 2.42c-4.6.5-9.25.39-13.87.11-9.49-.57-18.85-2.7-27.76-5.99-10.08-3.73-19.54-9.11-28.07-15.65l1.1 2.7c6.4-17.5 21.65-30.99 38.76-37.68 9.09-3.56 18.75-5.31 28.52-5.11 10.62.21 21.12 2.69 30.95 6.65a105.8 105.8 0 0 1 30.38 18.76c1.72 1.52 4.26-.98 2.54-2.54"/><path d="M90.06 95.51c-4.8-.12-9.67 1.11-13.6 3.92-3.7 2.64-6.53 6.37-7.99 10.68-1.37 4.05-1.43 8.64.04 12.67 1.73 4.76 5.25 8.59 9.63 11.09 9.12 5.2 22.07 5.13 29.88-2.49s9.15-20.86 1.22-28.42c-4.18-3.98-9.61-6.85-15.33-7.7-7.07-1.05-14.18 1.1-19.52 5.87-1.51 1.36.52 4.09 2.21 2.86 2.37-1.74 4.81-3.31 7.63-4.18 2.42-.75 4.89-1.05 7.42-.89 4.48.29 8.77 2.14 12.38 4.76 3.49 2.54 6.1 5.84 6.47 10.27.36 4.43-.96 8.97-3.53 12.59-9.99 14.04-38.88 5.33-35.3-13.05 1.7-8.72 9.65-14.93 18.41-15.17 1.81-.05 1.81-2.77 0-2.81Z"/><path d="M90.59 108.29c-7.13-.04-11.13 8.02-6.47 12.91 3.2 3.36 9.6 4.09 13.17.74 2.57-2.41 3.6-7.4 1.02-10.17-2.79-2.99-8.5-5.44-13.62-1.22"/><path d="M90.59 106.88c-2.15-.13-4.4.33-6.19 1.56s-3.08 2.92-3.77 4.93c-1.5 4.33.61 8.93 4.51 11.13 4.21 2.38 10.13 2.27 13.69-1.27s4.16-9.79.41-13.31c-4.24-3.99-11.45-5.14-15.84-.65-1.42 1.45.41 3.98 2.21 2.86.99-.62 1.84-1.23 2.88-1.53.2-.06.41-.12.62-.17.08-.02.77-.15.5-.11.5-.07 1.01-.07 1.5-.05.09 0 .7.06.36.02.22.03.45.08.67.12.47.1.92.25 1.38.41.05.02.35.14.06.02.09.04.17.08.26.12.2.09.39.19.58.29.43.23.83.5 1.24.77.3.2-.11-.11.16.12.18.15.35.29.52.45.14.13.28.27.42.41.06.06.11.12.17.18.24.23 0-.05.11.11.13.17.24.36.34.55.06.11.11.22.16.33-.02-.03-.1-.26-.02-.05.07.2.14.41.19.62.03.13.13.75.09.39.05.44.05.88.02 1.32 0 .13-.02.25-.03.38 0-.04.05-.28 0-.05-.05.28-.11.56-.19.84-.05.19-.11.37-.17.55-.04.12-.09.24-.13.36.03-.08.15-.3-.03.05-.21.42-.44.83-.7 1.22-.05.08-.1.15-.16.22.2-.27.01-.02-.03.02-.14.15-.28.31-.43.45s-.32.3-.49.43c.26-.2-.28.17-.37.23-.19.11-.38.22-.57.32-.04.02-.4.19-.19.1.19-.08-.09.04-.11.04-.47.17-.95.31-1.44.41-.09.02-.19.03-.28.05-.32.06.29-.03-.03 0-.22.02-.44.04-.66.05-.48.02-.95 0-1.43-.04-.1 0-.19-.02-.29-.03.36.04.03 0-.04-.01-.22-.05-.44-.08-.65-.14-.46-.11-.91-.26-1.36-.42-.06-.02-.35-.15-.04-.02-.09-.04-.17-.08-.26-.12-.19-.1-.39-.2-.58-.3s-.37-.22-.55-.34l-.3-.21c-.27-.19.32.3-.1-.08-.31-.28-.62-.56-.9-.88l-.17-.2c-.2-.23.17.25 0 0-.12-.18-.25-.36-.36-.56-.1-.16-.18-.33-.27-.5-.04-.08-.14-.35 0 .04-.03-.07-.06-.15-.08-.22-.12-.37-.22-.74-.3-1.12-.08-.35 0 .32-.02-.15 0-.18-.02-.35-.02-.53s0-.35.02-.53c0-.1.02-.2.03-.3.02-.27-.1.47 0 0 .1-.4.18-.79.32-1.18.03-.1.07-.19.11-.29-.06.15-.11.25-.01.05.09-.19.17-.37.27-.56.11-.21.23-.41.35-.6.04-.07.08-.13.13-.19.03-.04.28-.39.13-.19-.14.18.03-.03.05-.05.09-.1.17-.2.26-.3q.21-.24.45-.45c.17-.16.36-.32.54-.47-.26.22.21-.15.29-.2.37-.24.76-.45 1.14-.66.72-.39 1.52-.6 2.43-.66 1.8-.12 1.82-2.71 0-2.81ZM64.84 87.97c-7.7-2.27-14.39-7.23-18.76-13.99-4.92-7.61-6.52-16.9-5.51-25.82.89-7.86 4.11-15.08 9.55-20.83 5.25-5.55 12.01-9.58 19.21-12.04 15-5.13 32.98-3.46 44.6 7.74 8.11 7.81 13.5 19.19 14.66 30.25.59 5.66.22 11-1.79 16.29-1.82 4.81-5.35 9.16-9.87 12-1.32.83-2.7 1.54-4.12 2.16-1.12.49-1.38 2.13-.81 3.1.68 1.16 1.97 1.31 3.1.81 5.89-2.59 10.94-6.9 14.1-12.54 2.98-5.32 4.23-11.46 4.18-17.52-.09-12.74-5.34-25.72-13.78-35.21C107.93 9.26 89.24 5.51 72.63 9.8c-15.89 4.1-31.09 15.26-35.17 31.84-2.39 9.7-1.83 20.14 2.25 29.3 3.52 7.92 10.05 14.84 18.09 18.25 2 .85 4.04 1.5 6.18 1.88 2.01.36 2.87-2.51.86-3.1"/><path d="M79.11 83.42c.83-5.11.42-10.3-1.26-15.21-1.5-4.41-4.08-9.69-8.24-12.16s-10.45-.67-10.25 4.77 6.12 8.06 10.39 9.77c9.44 3.79 20.78 3.83 30.01-.63 4.34-2.1 8.84-6.11 8.34-11.4-.45-4.75-4.82-7.55-9.34-6.2-5.56 1.66-7.44 7.21-7.73 12.49-.33 5.95-.21 12.42 2.43 17.87 1.04 2.14 4.23.27 3.2-1.87-1.86-3.85-1.97-8.23-1.98-12.43 0-3.58-.17-8.24 2.59-10.97 1.79-1.76 5.56-2.77 6.83.12 1.59 3.63-2.06 6.91-4.85 8.52-6.99 4.04-16.07 4.61-23.79 2.69-1.95-.48-3.87-1.14-5.69-1.97-1.7-.78-3.57-1.65-4.98-2.91-1.07-.95-2.26-2.85-1.11-4.2.81-.95 2.36-.91 3.41-.46 1.88.8 3.21 2.67 4.29 4.31 1.24 1.89 2.28 3.91 3.05 6.04 1.55 4.3 2.07 8.88 1.66 13.43-.15 1.7 2.73 2.11 3.01.41Zm-11.91 7.4c.79 7.29 1.39 14.6 1.79 21.92 1.63-5.23 3.67-10.84 8.3-13.76 3.41-2.15 7.63-2.44 11.66-2.68 5.38-.31 11.2-.51 15.65 2.52 3.93 2.67 5.96 7.3 7.8 11.68-.52-7.59-1.36-15.17-2.51-22.69-6.97-1.26-14-2.52-21.08-2.42s-14.31 1.65-20.19 5.6"/><path d="M65.62 90.82c.59 7.3 1.13 14.61 1.53 21.92.11 2.06 2.99 2.52 3.62.49 1.02-3.26 2.13-6.54 4.09-9.37 2.05-2.96 5.04-4.51 8.52-5.17 3.65-.68 7.6-.8 11.3-.69 3.46.1 7.12.74 9.81 3.07 2.98 2.58 4.6 6.37 6.09 9.93.37.88 1.06 1.48 2.06 1.35.87-.12 1.7-.91 1.63-1.85-.53-7.78-1.3-15.51-2.45-23.23-.09-.63-.79-1.29-1.4-1.4-7.64-1.4-15.29-2.96-23.1-2.65-6.78.27-14.26 1.76-19.81 5.87-2.22 1.64-.28 5.26 2.22 3.79 2.79-1.64 5.6-3 8.72-3.87s6.15-1.27 9.3-1.4c7.24-.28 14.51.87 21.61 2.13l-1.4-1.4c1.13 7.34 2.03 14.75 2.56 22.16 1.23-.17 2.46-.33 3.7-.5-1.57-3.73-3.19-7.53-5.99-10.52-2.99-3.19-7.04-4.62-11.3-5.05s-8.65-.11-12.82.45-8.16 2.04-11.01 5.3c-2.99 3.42-4.54 7.79-5.88 12.06 1.21.16 2.41.33 3.62.49-.41-7.48-1.1-14.92-2.1-22.34-.24-1.76-3.26-1.36-3.12.42Zm-41.28 16.09c-1.37-.47-2.74-.96-4.09-1.46l-1.96-.73-.53-.2c-.06-.02-.59-.21-.26-.09-.57-.22-1.03-.38-1.65-.44-.71-.07-1.49.57-1.64 1.25-.17.75.12 1.51.78 1.92.71.44 1.59.61 2.38.85.67.2 1.33.41 2 .61 1.38.42 2.76.87 4.13 1.33.78.26 1.76-.3 1.94-1.1.2-.88-.27-1.65-1.1-1.94m11.88-14.44c-1.74-1.32-3.46-2.67-5.17-4.03-.87-.68-1.73-1.37-2.6-2.05-.95-.75-1.87-1.61-2.95-2.16-1.71-.87-3.42 1.23-2.06 2.67.83.89 1.9 1.54 2.89 2.25.93.66 1.86 1.33 2.78 1.99 1.86 1.33 3.71 2.66 5.54 4.03.68.51 1.75.11 2.14-.56.47-.8.11-1.63-.56-2.14Zm104.77-8.46c1.03-1.42 1.93-2.92 2.88-4.4.47-.74.94-1.48 1.4-2.22.53-.84.95-1.66 1.31-2.58.26-.68-.17-1.62-.79-1.95-.66-.35-1.57-.31-2.09.27-1.24 1.38-2.11 3.02-3.05 4.6s-1.83 2.99-2.63 4.54c-.41.8-.23 1.9.62 2.35s1.79.16 2.35-.62Zm18.06 9.9c.27-.1.51-.2.74-.37s.45-.34.67-.52c.26-.2.52-.41.77-.63.51-.44 1.02-.89 1.51-1.35s.96-.9 1.43-1.36c.66-.65 1.41-1.27 1.65-2.2.31-1.2-.83-2.56-2.11-2.11-.27.09-.54.19-.77.35s-.43.35-.62.56c-.22.24-.44.49-.67.73-.46.49-.93.98-1.4 1.46s-.93.93-1.41 1.38c-.24.23-.48.45-.71.68-.32.31-.67.61-.89 1.01-.31.57-.28 1.27.13 1.79.37.48 1.09.79 1.69.58Zm-126.1 52.02c-.72 1.31-1.5 2.57-2.38 3.78-.14.2.21-.27.06-.08-.06.08-.13.16-.19.24-.11.14-.23.28-.35.42-.24.28-.47.56-.72.84-.5.56-1 1.13-1.51 1.69-.58.64-.67 1.56-.13 2.26.47.61 1.53.96 2.22.44s1.39-1.08 1.99-1.74 1.17-1.4 1.69-2.14c.97-1.38 1.76-2.85 2.33-4.44.28-.77-.25-1.65-.95-1.94s-1.66-.05-2.06.67m17.28 7.34c-.55 1.88-1.16 3.74-1.84 5.58-.33.89-.67 1.77-1.03 2.64-.2.48-.25.59-.45 1.06-.33.76-.7 1.45-.43 2.3.34 1.09 1.48 1.49 2.47 1 .77-.37 1.02-1.16 1.32-1.89.18-.44.35-.88.52-1.32.35-.91.68-1.83 1-2.76.64-1.88 1.21-3.79 1.71-5.72.22-.85-.28-1.87-1.18-2.08s-1.81.27-2.08 1.18Zm19.35 4.92c-.24 1.84-.5 3.62-.86 5.5-.18.93-.39 1.86-.6 2.78-.24 1.04-.59 2.08-.63 3.15-.07 1.72 2.45 2.4 3.26.88.52-.97.72-2.09.95-3.16.21-.96.38-1.94.53-2.91.32-2.07.56-4.14.62-6.24.02-.88-.77-1.63-1.63-1.63-.98 0-1.52.75-1.63 1.63Zm20.38 1.04c.07 1.83.28 3.65.33 5.48.02.92.03 1.83.02 2.75-.01 1.01-.08 1.98.06 2.98.09.68.94 1.25 1.6 1.22.71-.03 1.43-.49 1.6-1.22.22-.97.19-1.98.19-2.98s-.01-1.9-.05-2.86c-.08-1.93-.17-3.91-.53-5.81-.15-.8-1.05-1.27-1.79-1.17-.77.1-1.45.79-1.42 1.6Zm21.55-1.05c.03.87.19 1.75.32 2.61.11.75.23 1.49.36 2.23s.28 1.48.44 2.22c.17.81.28 1.8.79 2.48.41.54.92.88 1.63.78.57-.08 1.28-.54 1.36-1.18s.05-1.13-.08-1.72c-.09-.38-.19-.76-.28-1.14-.17-.73-.34-1.47-.48-2.21-.3-1.5-.45-3.04-.77-4.53-.17-.81-1.06-1.3-1.83-1.2-.79.11-1.48.81-1.45 1.64Zm20.05-4.82c.06.07.12.15.17.22-.1-.12-.07-.09 0 .01l.33.45c.22.3.43.61.63.92.42.64.82 1.3 1.18 1.98s.67 1.33.97 2.01c.1.23-.09-.23 0 0 .03.09.07.17.11.26.07.17.14.35.2.52.17.46.35.9.59 1.33.38.67 1.23.92 1.91.63.76-.32 1-1.04.89-1.81-.12-.86-.54-1.7-.89-2.49-.32-.72-.67-1.43-1.06-2.13-.81-1.46-1.78-2.83-2.83-4.13-.52-.64-1.69-.58-2.22 0-.63.69-.55 1.53 0 2.22Zm17.8-10.37a34.4 34.4 0 0 0 3.44 4.52c.2.22.41.44.63.64.19.18.4.39.62.52s.47.21.72.29c.52.17 1.13-.02 1.51-.4s.59-1 .4-1.51c-.16-.43-.31-.77-.63-1.12-.13-.14-.25-.28-.38-.42-.29-.31-.6-.61-.89-.92-.57-.61-1.11-1.25-1.62-1.91l.26.34c-.43-.55-.83-1.12-1.22-1.69-.48-.72-1.48-1.09-2.26-.59-.73.47-1.08 1.48-.59 2.26Z"/></svg>