<?xml version="1.0" encoding="UTF-8"?><svg xmlns="http://www.w3.org/2000/svg" viewBox="0 0 180 180"><path d="M166.86 114.22c-8.09-1.48-15.12-4.8-22.13-8.97-6.52-3.88-13.81-7.43-21.58-7.07-9.86.46-19.44 5.25-25.72 12.87l-.4 1.19c-16.74-11.65-25.06-5.52-34.66-.38-11.17 5.98-19.98 16.99-32.95 19.24 20.48 13.87 48.62 25.35 73.33 24.14 23.67-1.16 46.16-15.77 61.82-33.64 1.98-2.26 4.13-4.67 5.43-7.4-.94.12-2.07.2-3.13.01Zm-54.38 22.6c-23.07 4.67-41.6-.33-64.71-4.78l3.27-.31c5.65-.31 11.09-2.07 16.25-4.3 5.17-2.24 12.04-6.82 17.86-6.7 6.41.12 11.26 4.2 17.63 2.32 2.38-.7 8.22-4.85 10.55-5.71 6.75-2.49 10.54 1 17.72 1.4 6.89.38 13.84.6 20.67-.44-9.85 7.22-27.26 16.1-39.23 18.53Z"/><path d="M167.39 112.29c-5.49-1.03-10.72-2.94-15.7-5.47s-9.7-5.72-14.93-7.9c-5.09-2.12-10.47-3.19-15.98-2.54-5.14.6-10.1 2.2-14.59 4.76a38.3 38.3 0 0 0-6.93 5.07c-1.06.98-2.08 2.02-3 3.13-.62.75-.87 1.48-1.17 2.38l2.94-1.2c-4.77-3.29-10.06-6.07-15.89-6.77-4.06-.49-8.09.29-11.85 1.85-3.85 1.6-7.62 3.67-11.19 5.84-4.82 2.92-9.15 6.55-13.71 9.84-5.02 3.62-10.35 6.79-16.52 7.91-1.83.33-1.77 2.78-.48 3.66 17.69 11.95 38.24 20.97 59.52 23.75 10.29 1.34 20.68.88 30.69-1.99s19.42-7.76 27.86-13.83c4.8-3.45 9.34-7.27 13.55-11.41 2.07-2.03 4.05-4.14 5.96-6.31 2.13-2.43 4.3-4.89 5.74-7.81.59-1.21-.09-3.2-1.73-3.01-.85.1-1.74.21-2.59.08-1.07-.16-2.15.26-2.46 1.4-.26.94.32 2.3 1.4 2.46 1.24.18 2.41.2 3.66.06-.58-1-1.15-2.01-1.73-3.01-1.23 2.5-3.01 4.59-4.83 6.67-1.65 1.88-3.34 3.71-5.1 5.49-3.57 3.61-7.38 7.01-11.41 10.1-7.95 6.08-16.8 11.14-26.31 14.31-9.56 3.19-19.44 4.13-29.45 3.17-10.26-.98-20.35-3.76-29.95-7.44-10.83-4.16-21.18-9.64-30.8-16.13l-.48 3.66c11.03-1.99 19.16-10.01 28.06-16.13 3.62-2.49 7.55-4.64 11.49-6.58 3.25-1.6 6.7-2.78 10.36-2.74 5.94.07 11.4 3.1 16.16 6.39 1.12.78 2.55-.06 2.94-1.2l.4-1.19-.51.88c5.83-6.98 14.4-11.59 23.52-12.23 10.53-.74 18.79 5.77 27.7 10.24 5.16 2.59 10.59 4.61 16.27 5.68 2.52.47 3.59-3.38 1.06-3.86Z"/><path d="M111.95 134.89c-8.23 1.64-16.61 2.11-24.98 1.58s-16.12-1.92-24.09-3.48c-4.86-.95-9.71-1.95-14.58-2.89-.18 1.31-.35 2.62-.53 3.93 2.33-.22 4.67-.36 6.99-.7 4.22-.63 8.3-1.98 12.22-3.62 3.42-1.43 6.64-3.26 10-4.79 3.25-1.48 6.67-2.61 10.27-2.01s6.96 2.15 10.61 2.54c3.29.35 6.16-.56 8.98-2.16 1.33-.75 2.62-1.56 3.94-2.34.56-.33 1.13-.67 1.7-.99.27-.15.54-.29.81-.43s.51-.25.49-.24c3.22-1.3 6.34-.79 9.58.05 4.47 1.16 8.86 1.51 13.47 1.65 5.16.15 10.31-.02 15.42-.77-.51-1.22-1.03-2.44-1.54-3.66-5.82 4.25-12.16 7.83-18.64 10.98s-13.12 5.91-20.12 7.35c-2.52.52-1.45 4.38 1.06 3.86 7.2-1.48 14.12-4.4 20.71-7.58 6.61-3.19 13.07-6.82 19-11.15 1.88-1.37.72-3.99-1.54-3.66-4.43.65-8.93.75-13.39.65-4.1-.09-8.15-.2-12.14-1.22-3.28-.83-6.47-1.67-9.88-1.16-3.04.46-5.55 1.98-8.13 3.53-2.43 1.46-4.67 3.15-7.47 3.33-3.57.24-6.9-1.31-10.3-2.13-3.64-.87-7.14-.79-10.69.39-3.59 1.19-6.92 3.03-10.29 4.71-4.03 2-8.31 3.61-12.72 4.55-2.76.59-5.58.74-8.39 1.01-.99.09-1.84.69-1.96 1.73-.11.92.44 2 1.43 2.19 16.72 3.23 33.53 7.38 50.69 6.64 5.07-.22 10.11-.86 15.09-1.85 2.52-.5 1.45-4.36-1.06-3.86ZM44.45 45.7c-7.63 1.23-15.02 3.21-22.14 6.25-3.2 1.36-6.57 2.75-9.35 4.87s-4.48 5.02-4.93 8.53c-.48 3.74.26 7.55 1.27 11.15s2.03 7.05 3.58 10.33c1.36 2.89 3.49 5.45 6.42 6.82 3.1 1.44 6.53 1.62 9.88 1.15s6.86-1.71 10.18-2.88c3.23-1.14 6.42-2.36 9.62-3.58l-2.42-.98c3.09 4.38 5.08 9.66 9.42 13.04 1.31 1.02 2.82.62 3.46-.91 2.21-5.32 1.65-11.56.07-16.98l-1.44 2.53c5.42-.95 10.86-2.17 15.99-4.19 2.28-.9 5.15-1.85 6.85-3.71 1.96-2.15 1.47-5.01 1.01-7.62-1.01-5.73-3.17-11.16-5.51-16.46-1.04-2.35-2-4.84-3.32-7.06-1.42-2.38-3.5-3.86-6.27-4.16-2.7-.29-5.62.43-8.26.94s-5.38 1.23-8.11 1.62c-2.02.29-1.57 3.79.49 3.59 4.25-.41 8.41-1.55 12.66-1.89 1.88-.15 4.03-.38 5.33 1.26s2.09 4 2.98 5.94c2.06 4.53 3.99 9.14 5.21 13.98.3 1.19.56 2.39.77 3.6.15.88.51 2.14.16 3-.31.79-1.35 1.18-2.05 1.53-1.06.53-2.15 1.02-3.26 1.45-5.08 1.98-10.43 3.12-15.76 4.21-1.06.22-1.76 1.53-1.44 2.53 1.47 4.52 2.11 9.82.11 14.3l3.25-.42c-3.96-3.21-5.77-8.2-8.65-12.28-.51-.72-1.49-1.33-2.42-.98-5.18 1.97-10.36 4.02-15.68 5.57s-11.49 1.78-14.66-3.39c-1.56-2.53-2.36-5.49-3.25-8.3-1.05-3.32-2.06-6.76-2.09-10.26-.03-2.91.79-5.54 3.09-7.43s5.25-3.09 7.92-4.29c7.08-3.19 14.55-5.72 22.14-7.33 2.03-.43 1.14-3.39-.85-3.07Z"/><path d="M33.27 68.79a1.7 1.7 0 0 0-.32 0c-.17.02-.35.04-.52.07-.18.04-.35.13-.51.2-.09.04-.17.08-.25.14-.19.13-.39.28-.56.45-.34.35-.54.72-.71 1.18s-.13.95-.05 1.43c.02.1.04.2.08.3.08.22.17.46.3.66.27.41.6.75 1.02 1 .2.12.42.2.63.28.24.08.5.11.75.12s.49-.03.72-.07c.11-.02.21-.05.31-.09.48-.19.93-.42 1.27-.82.16-.18.32-.38.44-.6s.23-.48.28-.73c.08-.3.08-.61 0-.91a1.26 1.26 0 0 0-.31-.58c-.12-.19-.28-.33-.48-.44-.27-.16-.56-.23-.87-.23-.15 0-.31 0-.46-.01h-.2c-.18 0-.36.01-.53.06-.14.04-.35.12-.47.2a1.7 1.7 0 0 0-.84 1.46 1.7 1.7 0 0 0 .84 1.46l.04.03.41.17c.15.04.37.07.53.07h.69c-.55-.72-1.1-1.45-1.66-2.17-.02.09-.04.19-.08.27l.17-.41c-.04.1-.1.19-.16.28l.27-.35c-.07.09-.16.18-.25.25l.34-.27c-.1.07-.2.13-.31.18l.41-.17c-.11.05-.22.08-.34.09l.45-.06c-.11.01-.21.01-.32 0l.45.06c-.1-.02-.19-.04-.28-.08l.4.17c-.1-.04-.19-.1-.28-.16l.34.26c-.11-.08-.2-.18-.29-.28l.26.34c-.07-.1-.14-.2-.19-.31l.17.4c-.04-.1-.07-.21-.09-.31l.06.44q-.015-.165 0-.33l-.06.43c.02-.11.05-.21.09-.31l-.16.39c.05-.11.11-.21.18-.31l-.25.32c.08-.09.16-.18.26-.25l-.32.25c.12-.08.24-.15.37-.21l-.37.16c.1-.04.2-.07.31-.08l-.41.05h.07c.41-.03.78-.15 1.08-.45.26-.26.46-.7.45-1.08s-.15-.8-.45-1.08l-.31-.24c-.24-.14-.49-.21-.77-.21Zm13.07-3.94a1.7 1.7 0 0 0-.32 0c-.17.02-.35.04-.52.07-.18.04-.35.13-.51.2-.09.04-.17.08-.25.14-.19.13-.39.28-.56.45-.34.35-.54.72-.71 1.18s-.13.95-.05 1.43c.02.1.04.2.08.3.08.22.17.46.3.66.27.41.6.75 1.02 1 .2.12.42.2.63.28.24.08.5.11.75.12s.49-.03.72-.07c.11-.02.21-.05.31-.09.48-.19.93-.42 1.27-.82.16-.18.32-.38.44-.6s.23-.48.28-.73c.08-.3.08-.61 0-.91a1.26 1.26 0 0 0-.31-.58c-.12-.19-.28-.33-.48-.44-.27-.16-.56-.23-.87-.23-.15 0-.31 0-.46-.01h-.2c-.18 0-.36.01-.53.06-.14.04-.35.12-.47.2a1.7 1.7 0 0 0-.84 1.46 1.7 1.7 0 0 0 .84 1.46l.04.03.41.17c.15.04.37.07.53.07h.69l-1.66-2.17c-.02.09-.04.19-.08.27l.17-.41c-.04.1-.1.19-.16.28l.27-.35c-.07.09-.16.18-.25.25l.34-.27c-.1.07-.2.13-.31.18l.41-.17c-.11.05-.22.08-.34.09l.45-.06c-.11.01-.21.01-.32 0l.45.06c-.1-.02-.19-.04-.28-.08l.4.17c-.1-.04-.19-.1-.28-.16l.34.26c-.11-.08-.2-.18-.29-.28l.26.34c-.07-.1-.14-.2-.19-.31l.17.4c-.04-.1-.07-.21-.09-.31l.06.44q-.015-.165 0-.33l-.06.43c.02-.11.05-.21.09-.31l-.16.39c.05-.11.11-.21.18-.31l-.25.32c.08-.09.16-.18.26-.25l-.32.25c.12-.08.24-.15.37-.21l-.37.16c.1-.04.2-.07.31-.08l-.41.05h.07c.41-.03.78-.15 1.08-.45.26-.26.46-.7.45-1.08s-.15-.8-.45-1.08l-.31-.24c-.24-.14-.49-.21-.77-.21Zm13.06-3.94a1.7 1.7 0 0 0-.32 0c-.17.02-.35.04-.52.07-.18.04-.35.13-.51.2-.09.04-.17.08-.25.14-.19.13-.39.28-.56.45-.34.35-.54.72-.71 1.18s-.13.95-.05 1.43c.02.1.04.2.08.3.08.22.17.46.3.66.27.41.6.75 1.02 1 .2.12.42.2.63.28.24.08.5.11.75.12s.49-.03.72-.07c.11-.02.21-.05.31-.09.48-.19.93-.42 1.27-.82.16-.18.32-.38.44-.6s.23-.48.28-.73c.08-.3.08-.61 0-.91a1.26 1.26 0 0 0-.31-.58c-.12-.19-.28-.33-.48-.44-.27-.16-.56-.23-.87-.23-.15 0-.31 0-.46-.01h-.2c-.18 0-.36.01-.53.06-.14.04-.35.12-.47.2a1.7 1.7 0 0 0-.84 1.46 1.7 1.7 0 0 0 .84 1.46l.04.03.41.17c.15.04.37.07.53.07h.69c-.55-.72-1.1-1.45-1.66-2.17-.02.09-.04.19-.08.27l.17-.41c-.04.1-.1.19-.16.28l.27-.35c-.07.09-.16.18-.25.25l.34-.27c-.1.07-.2.13-.31.18l.41-.17c-.11.05-.22.08-.34.09l.45-.06c-.11.01-.21.01-.32 0l.45.06c-.1-.02-.19-.04-.28-.08l.4.17c-.1-.04-.19-.1-.28-.16l.34.26c-.11-.08-.2-.18-.29-.28l.26.34c-.07-.1-.14-.2-.19-.31l.17.4c-.04-.1-.07-.21-.09-.31l.06.44q-.015-.165 0-.33l-.06.43c.02-.11.05-.21.09-.31l-.16.39c.05-.11.11-.21.18-.31l-.25.32c.08-.09.16-.18.26-.25l-.32.25c.12-.08.24-.15.37-.21l-.37.16c.1-.04.2-.07.31-.08l-.41.05h.07c.41-.03.78-.15 1.08-.45.26-.26.46-.7.45-1.08s-.15-.8-.45-1.08l-.31-.24c-.24-.14-.49-.21-.77-.21Zm96-27.24c-4.64-4.55-10.31-5.67-16.44-6.92.47.05.93.09 1.4.14-6.09-1.06-12.25-1.71-18.43-1.95-5.82-.22-11.86-.7-17.59.57-6.3 1.38-12.07 5.42-15.15 11.09s-4.33 15.15-1.14 20.77c2.8 4.93 7.85 8.27 13.21 10.13 5.36 1.87 11.59.94 17.23 1.48.33 6.87-1.29 13.1-5.48 18.56 7.54-2.95 13.74-9.18 16.64-16.75 7.32.79 15.27 1.44 21.52-2.46 11.41-7.11 13.98-25.11 4.24-34.67Zm-36.79 25.74-1.11.29c-4.12-4.97-8.37-9.82-12.75-14.56a33.5 33.5 0 0 1 8.05-4.75c.39-.16.81-.32 1.22-.22.34.08.61.33.85.57 1.89 1.82 3.53 3.91 4.86 6.17.16.28.35.58.66.66s.63-.1.91-.27c5.67-3.57 11.34-7.14 17.01-10.7.33-.21.72-.43 1.1-.32.28.08.48.32.65.55 1.93 2.5 3.56 5.23 4.83 8.11a195 195 0 0 1-26.29 14.47Z"/><path d="M156.82 32.25c-4.8-4.61-10.99-6.15-17.32-7.43l-.53 3.93c.47.05.93.09 1.4.14 2.22.22 2.75-3.55.53-3.93-8.79-1.51-17.71-2.19-26.62-2.29-7.92-.09-15.63 1.32-21.76 6.66-5.36 4.67-7.98 11.6-8.3 18.61-.15 3.31.3 6.72 1.74 9.73 1.56 3.26 4.28 5.93 7.2 7.98 3.38 2.37 7.41 4.11 11.51 4.69 4.58.65 9.22.23 13.82.64l-2-2c.27 6.41-1.32 12.39-5.21 17.55-1.02 1.35.69 3.56 2.26 2.94 8.3-3.31 14.78-9.82 18.04-18.14l-1.93 1.47c5.16.55 10.39.99 15.52-.02a21.38 21.38 0 0 0 11.59-6.49c5.45-5.93 7.66-14.41 6.21-22.29-.81-4.42-2.96-8.55-6.15-11.73-1.82-1.82-4.65 1.01-2.83 2.83 10.18 10.15 5.31 30.13-8.91 33.61-5.02 1.23-10.36.64-15.43.1-.93-.1-1.63.7-1.93 1.47-2.69 6.88-8.37 12.61-15.24 15.35.75.98 1.51 1.96 2.26 2.94 4.27-5.65 6.05-12.54 5.76-19.57-.05-1.15-.88-1.9-2-2-3.63-.32-7.28-.1-10.91-.33s-6.7-1.17-9.75-2.82c-2.73-1.48-5.31-3.44-7.11-6-1.7-2.41-2.42-5.11-2.51-8.04-.17-5.94 1.67-12.16 5.9-16.45 4.97-5.04 11.67-6.58 18.54-6.66 9.06-.1 18.26.61 27.19 2.15l.53-3.93c-.47-.05-.93-.09-1.4-.14-2.23-.22-2.73 3.48-.53 3.93 5.6 1.14 11.29 2.31 15.56 6.4 1.86 1.78 4.69-1.04 2.83-2.83Z"/><path d="m118.08 57.48-1.11.29 1.95.51c-4.12-4.96-8.37-9.82-12.75-14.56v2.83c1.33-1.04 2.75-1.97 4.23-2.78q1.08-.6 2.19-1.11c.27-.13.82-.51 1.14-.49-.57-.04.17.42.35.6 1.16 1.19 2.2 2.47 3.11 3.85.9 1.36 1.6 3.02 3.51 2.95 1.58-.06 3.23-1.57 4.51-2.38 1.66-1.04 3.32-2.09 4.98-3.13 1.52-.96 3.04-1.91 4.56-2.87.83-.52 1.66-1.04 2.49-1.57.41-.26.83-.52 1.24-.78.22-.14.7-.58.92-.57l-1.01-.27c.44.22.86 1.07 1.14 1.47.47.68.92 1.37 1.35 2.08.86 1.42 1.61 2.89 2.29 4.39l.72-2.74a198 198 0 0 1-26.29 14.47c-.98.45-1.22 1.87-.72 2.74.59 1.01 1.75 1.17 2.74.72 9.12-4.15 17.9-8.99 26.29-14.47.98-.64 1.18-1.71.72-2.74a40 40 0 0 0-4.16-7.21c-.79-1.09-1.57-2.35-3.06-2.44s-2.78 1.01-3.98 1.77l-7.68 4.83c-1.24.78-2.49 1.57-3.73 2.35-.69.44-1.38.87-2.07 1.31-.28.17-.55.35-.83.52-.06.04-.95.52-.73.52l1.01.27c-.24-.13-1.06-1.7-1.37-2.14-.52-.73-1.08-1.44-1.65-2.13-1.14-1.36-2.62-3.38-4.56-3.41-1.81-.03-3.89 1.3-5.43 2.15-1.78.99-3.44 2.15-5.04 3.41-.87.69-.66 2.11 0 2.83 4.38 4.74 8.63 9.59 12.75 14.56.45.54 1.3.68 1.95.51l1.11-.29c2.49-.66 1.43-4.52-1.06-3.86Z"/></svg>