<?xml version="1.0" encoding="UTF-8"?><svg xmlns="http://www.w3.org/2000/svg" viewBox="0 0 180 180"><path d="M23.41 131.4c-3.45-20.3-6.73-40.62-10.3-60.89l-2.53 2.53c22.47 4.85 43.47 14.28 65.03 21.99 2.67.95 5.34 1.88 8.03 2.77s5.35 1.92 8.08 2.52c1.5.33 2.96.19 4.22-.75.94-.7 1.63-1.69 2.35-2.6 1.41-1.78 2.79-3.59 4.15-5.42 5.91-7.93 11.47-16.11 17.08-24.25 6.05-8.79 12.06-17.66 18.75-25.99h-3.18c1.06 1.1 1.45 2.62 1.92 4.03.52 1.55 1.02 3.1 1.51 4.66a347 347 0 0 1 2.83 9.36c1.88 6.53 3.6 13.1 5.11 19.72 1.53 6.69 2.85 13.43 3.85 20.22.45 3.07.83 6.14 1.12 9.23.25 2.7.55 5.76-.58 8.32-1.18 2.65-4.05 3.49-6.57 4.38-3.52 1.24-7.05 2.43-10.59 3.59-7.24 2.36-14.53 4.58-21.84 6.69-14.49 4.18-29.11 7.85-43.71 11.6-8.1 2.08-16.21 4.22-24.47 5.57-3.57.58-7.52 1.22-11.01-.07-2.48-.92-4.98-3.36-4.75-6.2.23-2.78-4.1-2.76-4.33 0-.28 3.33 1.14 6.37 3.69 8.5 2.86 2.4 6.55 3.24 10.22 3.21s7.56-.79 11.25-1.5c3.95-.76 7.87-1.67 11.77-2.64 15.55-3.86 31.04-8.03 46.47-12.36 7.64-2.15 15.26-4.39 22.83-6.79 3.86-1.22 7.71-2.49 11.54-3.79 3.25-1.11 6.99-1.99 9.87-3.93 6.07-4.09 5.08-11.89 4.35-18.2-.81-7.03-2-14.01-3.44-20.94-1.65-7.97-3.63-15.88-5.84-23.72-1.09-3.83-2.23-7.65-3.44-11.45-.58-1.81-1.16-3.62-1.77-5.42-.65-1.93-1.38-3.77-2.83-5.26-.78-.8-2.43-.94-3.18 0-11.99 14.94-22.12 31.3-33.32 46.83-2.51 3.48-5.03 6.99-7.77 10.3-.26.31-.49.73-.88.8-.42.08-1.04-.26-1.45-.38-1.48-.44-2.96-.91-4.43-1.38-2.63-.84-5.25-1.73-7.86-2.64-10.57-3.69-20.98-7.83-31.49-11.69-11.84-4.35-23.85-8.3-36.21-10.9-1.61-.34-2.81.95-2.53 2.53 3.68 20.22 7.65 40.38 11.45 60.58.35 1.86 3.13 1.06 2.82-.78Z"/><path d="M43.96 79.51c-9.01-14-9.98-31.32-10.8-47.46-.48.63-.96 1.26-1.43 1.88 20.93-3.53 41.85-7.12 62.77-10.7 5.88-1 11.76-2.1 17.65-3.01l-2.6-2.6c-1.73 8.13-1.91 16.63-.88 24.87.52 4.13 1.29 8.22 2.4 12.23 1.1 3.99 2.35 8.24 4.52 11.79 1.17 1.91 4.35.69 3.68-1.55-1.14-3.86-2.78-7.54-3.85-11.43-1.02-3.69-1.8-7.46-2.25-11.25-.94-7.85-.68-15.71.45-23.52.24-1.64-.9-2.92-2.6-2.6-10.41 2-20.91 3.65-31.35 5.46s-20.9 3.64-31.35 5.45c-5.88 1.02-11.75 2.06-17.63 3.09-.79.14-1.48 1.09-1.43 1.88.98 16.87 2.23 34.65 11.85 49.14 1.17 1.76 4.02.13 2.86-1.67Z"/><path d="M54.09 47.6c.87 3.59 4.44 6.31 8.17 5.91s6.72-3.74 6.89-7.54c.07-1.52-1.81-2.07-2.83-1.17-1.89 1.67-.54 4.71 1.72 5.14 1.37.26 2.7-.33 3.77-1.15.47-.36.9-.79 1.39-1.12.1-.07.2-.13.31-.19.45-.2.2-.37-.74-.52-.03.14.29.54.36.65 1.43 2.18 4.22 1.71 6.33 1 3.02-1.01 6.15-1.88 9.05-3.2 1.75-.8.47-3.38-1.26-2.98-2.19.5-4.31 1.35-6.43 2.07-1.01.35-2.02.73-3.05 1.03-.38.11-1.35.47-1.76.21-.09-.06-.2-.38-.28-.51-.25-.4-.58-.79-1.01-1-.9-.46-1.93-.25-2.79.21-.78.42-1.39 1.05-2.08 1.58-.27.21-.82.38-1 .6-.09.11-.05.42-.18.55L65.84 46c-.07 2.15-1.79 4.15-3.97 4.37s-4.27-1.48-4.8-3.57c-.49-1.93-3.45-1.11-2.98.82Zm10.99 17.35c8.98-2.35 17.99-4.57 27.04-6.66 2.11-.49 1.22-3.76-.9-3.25-9.03 2.16-18.02 4.46-26.97 6.89-1.95.53-1.12 3.54.83 3.03Zm11.38 11.39 5.61-1.92 2.7-.92 1.45-.5c.53-.18 1.13-.33 1.59-.66.55-.41.89-1.02.7-1.72-.17-.63-.8-1.13-1.47-1.12-1.06.03-2.14.56-3.13.9l-2.7.93c-1.87.65-3.74 1.29-5.6 1.94-.81.28-1.35 1.09-1.11 1.95.22.79 1.14 1.39 1.95 1.11Zm-31.2 74.91c6.03-15.36 12.63-30.51 19.85-45.34 2.06-4.22 4.22-8.39 6.35-12.58 1.06-2.08-2.06-3.92-3.14-1.84a470 470 0 0 0-20.73 45.61 583 583 0 0 0-5.05 13.39c-.63 1.73 2.07 2.42 2.73.75Zm60.87-67.19c3.97 2.48 7.82 5.18 11.75 7.73 3.86 2.51 7.71 5.04 11.54 7.6s7.64 5.15 11.44 7.76c1.86 1.28 3.73 2.56 5.59 3.85 1.69 1.17 3.5 2.16 4.69 3.85 1 1.41 2.86.8 3.07-.83.28-2.16-1.99-3.49-3.51-4.54a796 796 0 0 0-5.99-4.12c-4.07-2.77-8.18-5.5-12.3-8.2s-8.12-5.29-12.21-7.89c-4.16-2.65-8.43-5.09-12.61-7.7-1.58-.99-3.04 1.51-1.46 2.5ZM10.19 71.65c-1.09-4.27 2.83-7.18 4.56-9.61 5.09-7.14 10.26-14.23 15.68-21.13-.9 6.37.34 12.82 1.59 19.13l1.59 8.08c.22 1.12.45 2.27.97 3.29 1.03 2.03 3.1 3.37 4.18 5.37a79 79 0 0 0-16.43-6.06c-3.11-.77-6.36-1.35-9.49-.72"/><path d="M11.47 71.3c-.44-2.31 1.13-4.28 2.58-5.88 1.9-2.09 3.49-4.39 5.16-6.67 4.09-5.58 8.21-11.13 12.48-16.57-1-.58-1.99-1.16-2.99-1.74-.94 6.95.3 13.75 1.65 20.57.63 3.19 1 6.6 1.99 9.7.93 2.91 3.38 4.46 4.84 7l2.49-2.49c-4.28-2.13-8.72-3.93-13.29-5.31-4.45-1.34-9.4-2.75-14.05-1.68-.98.23-1.54 1.34-1.29 2.28.28 1.07 1.29 1.43 2.28 1.29 4.24-.58 8.48.61 12.52 1.83s8.14 2.82 12 4.74c1.58.79 3.44-.84 2.49-2.49-1.26-2.19-3.68-3.69-4.47-6.13-.98-3.02-1.33-6.35-1.94-9.47-1.26-6.38-2.56-12.84-1.7-19.36.2-1.48-2.13-2.44-3.05-1.26-4.64 5.94-9.12 12-13.47 18.16-.92 1.3-1.78 2.67-2.78 3.91-.77.95-1.58 1.86-2.3 2.85-1.64 2.25-2.41 4.69-1.7 7.44.43 1.67 2.88.95 2.56-.71Zm101.11-42.4c7.35 2.75 14.7 5.51 22.05 8.26.28.11 1.76 1.56 1.98 1.77.64.65-.97.39-1.46 1.16-4.08 6.49-10.24 11.53-13.96 18.23-.5.9-1.05 1.92-2.02 2.26a81 81 0 0 1-4.14-19.14c-.3-3.31-.41-6.65-1.08-9.91"/><path d="M112.19 30.31c2.29.88 4.52 1.96 6.81 2.87s4.43 1.71 6.64 2.56 4.43 1.7 6.65 2.54c.47.18 1.03.32 1.47.56-.33-.18.2.19.25.23.26.24.52.48.77.73l.3.3c.23.25.17.12-.17-.38.06-.49.13-.98.19-1.46.17-.27 1.25-.7.46-.55-.19.04-.4.14-.57.22-.46.2-.85.45-1.19.83-.84.93-1.45 2.13-2.2 3.13-1.5 1.99-3.16 3.85-4.79 5.73-1.62 1.86-3.21 3.74-4.68 5.72-.74 1-1.45 2.04-2.1 3.11-.51.85-.9 2.04-1.86 2.46l2.85 1.16c-1.59-4.65-2.78-9.42-3.51-14.27s-.7-9.91-1.65-14.79c-.49-2.51-4.34-1.45-3.84 1.06.97 4.86.94 9.87 1.7 14.77.75 4.85 1.96 9.62 3.57 14.26.44 1.28 1.66 1.68 2.85 1.16 1.7-.75 2.44-2.54 3.34-4.04 1-1.64 2.13-3.2 3.34-4.69 2.52-3.11 5.26-6.04 7.69-9.22.55-.72 1.08-1.45 1.59-2.2.55-.81.32-.58 1.2-.99 1.7-.79 1.57-2.57.4-3.76-1.07-1.09-2.06-1.81-3.49-2.34-2.15-.79-4.29-1.58-6.44-2.37-2.38-.87-4.75-1.74-7.14-2.61-2.53-.92-5.14-1.62-7.66-2.54-1.78-.65-2.51 2.15-.78 2.82Zm-74.13-.48A125.8 125.8 0 0 1 58.4 12.1c1.39-.97 2.9-1.95 4.6-2.01 1.28-.05 2.51.44 3.7.92 7.58 3.05 15.19 6.1 22.39 9.98a780 780 0 0 1-30.43 4.92c-2.61.37-5.23.73-7.82 1.23q-4.545.885-8.94 2.34"/><path d="M39.11 30.89c3.39-3.41 6.9-6.7 10.58-9.8 1.83-1.55 3.71-3.04 5.63-4.47s3.76-2.96 5.83-4.03c2.23-1.16 4.2-.05 6.33.81 2.33.94 4.67 1.89 6.99 2.86 4.62 1.95 9.19 4.04 13.61 6.41.16-1.19.31-2.39.47-3.58-7.95 1.43-15.91 2.75-23.9 3.94s-15.76 1.93-23.31 4.44c-2.52.84-1.45 4.84 1.1 4.01 7.6-2.47 15.4-3.42 23.26-4.61s15.94-2.55 23.88-4c1.66-.3 1.89-2.82.47-3.58-7.47-3.98-15.36-7.27-23.26-10.3-1.79-.69-3.66-1.07-5.55-.53s-3.51 1.79-5.09 2.93c-3.29 2.38-6.46 4.93-9.5 7.62a103.5 103.5 0 0 0-9.66 9.76c-1.25 1.44.74 3.49 2.11 2.11Zm-9.39 119.99c3.27 2.11 10.07 3.38 13.96 3.58a339.6 339.6 0 0 0 104.99-11.3c5.2-1.4 10.44-2.96 15-5.84 3.65-2.31 7.06-6.25 6.19-10.48-.99-4.81-6.72-6.89-11.62-7.22-.89-.06-1.79-.09-2.66.07-3.22.61-5.3 3.62-7.77 5.76-3.16 2.74-7.21 4.18-11.17 5.53-28.37 9.62-57.53 17.09-87.22 21.06"/><path d="M28.95 152.2c2.94 2.09 6.75 3.06 10.26 3.64 4.32.72 8.74.77 13.11.91 10.06.31 20.16.04 30.21-.61 20.12-1.31 40.15-4.39 59.73-9.22 4.65-1.15 9.34-2.29 13.86-3.86 4.31-1.5 8.78-3.46 12.09-6.69 2.88-2.81 4.91-6.99 3.51-11.03-1.27-3.67-4.64-5.96-8.22-7.07s-8.27-1.68-11.68.53c-1.72 1.11-3.1 2.62-4.56 4.04-1.48 1.43-3.11 2.55-4.95 3.48-4.12 2.06-8.71 3.3-13.08 4.72a556 556 0 0 1-14.39 4.46c-19.24 5.67-38.85 10.26-58.68 13.34-2.44.38-4.88.73-7.33 1.07s-1.91 4.72.59 4.39c19.02-2.52 37.78-6.39 56.29-11.42 9.31-2.53 18.54-5.33 27.69-8.37 4.16-1.38 8.49-2.64 12.33-4.8 1.81-1.02 3.44-2.29 4.92-3.74 1.24-1.22 2.42-2.59 3.95-3.46 2.59-1.48 6.95-.37 9.49.86 2.75 1.33 4.6 3.87 3.32 6.98-1.52 3.69-5.46 5.88-8.9 7.44-4.11 1.86-8.56 2.97-12.92 4.11a336 336 0 0 1-56.84 9.78c-9.56.81-19.16 1.21-28.75 1.21-4.8 0-9.6-.08-14.39-.26-3.6-.13-7.13-.55-10.62-1.45-1.53-.39-3.09-.85-4.48-1.61-1.76-.96-3.13 1.52-1.55 2.64Z"/></svg>