<?xml version="1.0" encoding="UTF-8"?><svg xmlns="http://www.w3.org/2000/svg" viewBox="0 0 180 180"><path d="M45.89 60.44c9.09 10.1 21.94 15.04 35.31 16.04 7.58.57 15.21 0 22.72-1.08 5.83-.83 11.64-2.1 17.1-4.36 5.99-2.47 12.51-6.35 15.74-12.22 1.04-1.89-1.55-4.09-3.08-2.38-1.83 2.05-3.56 4.08-5.75 5.77-2.12 1.63-4.47 2.97-6.89 4.1-5.05 2.34-10.59 3.64-16.06 4.54-13.13 2.15-27.19 2.61-39.9-1.86-6.33-2.23-12.45-5.74-17.01-10.72-1.34-1.47-3.5.71-2.18 2.18Z"/><path d="M48.59 58.91c-2.01-4.97-3.82-9.99-5.4-15.12-.37-1.21-.74-2.43-1.12-3.64-.12-.37-1.03-3.94-1.25-3.95.23.01-.97.59-.03.33.23-.06.48-.22.7-.32.59-.27 1.19-.53 1.79-.77 1.32-.54 2.67-1.04 4.02-1.49 5.03-1.69 10.26-2.81 15.55-3.25 2.7-.23 5.42-.29 8.13-.19.55.02 1.19.15 1.74.09-.28.03-.31-.94-.2-.05.03.26.13.55.19.81.35 1.52.68 3.04 1.04 4.55 1.52 6.46 3 12.92 4.47 19.39.62 2.75 4.86 1.59 4.23-1.17-1.48-6.55-2.99-13.09-4.52-19.63-.37-1.59-.73-3.19-1.17-4.77-.39-1.41-1.09-2.66-2.55-3.15-1.34-.45-2.95-.35-4.35-.37-1.66-.03-3.31 0-4.97.09-6.05.33-12.08 1.42-17.84 3.31-1.43.47-2.85.99-4.25 1.55-1.44.58-3.04 1.12-4.37 1.95-3.02 1.88-1.21 5.34-.37 7.94 2.08 6.45 4.03 13.28 7.51 19.16.92 1.56 3.77.52 3.04-1.28Z"/><path d="M75.54 71.62c-.35-3.82-.62-7.63-.4-11.46.02-.33.11-.75.07-1.08.16-.45.09-.43-.23.04l.32-.1c.75.07 1.93-.43 2.67-.6 1.95-.43 3.9-.87 5.87-1.23 7.59-1.39 15.31-2.01 23.03-1.92l-2.13-1.62c.99 3.2 1.92 6.41 2.82 9.64.44 1.57.85 3.15 1.28 4.73.44 1.63.71 3.45 1.66 4.88 1.1 1.65 3.39.92 3.57-.97.16-1.64-.46-3.3-.86-4.86-.42-1.66-.88-3.31-1.35-4.96-.91-3.22-1.87-6.43-2.86-9.62-.29-.94-1.14-1.61-2.13-1.62-8.83-.08-17.65.78-26.3 2.56-2.08.43-4.18.88-6.21 1.52-1.96.62-3.01 1.88-3.17 3.94-.33 4.31.2 8.99 1.28 13.17.43 1.67 3.25 1.38 3.08-.42Z"/><path d="M101.2 51.56c1.14-5.22 2.15-10.47 3.18-15.72l.76-3.87c.11-.54.14-1.23.36-1.73.07-.17.06-.22-.06-.13.12-.09.57-.08.67-.08 2.61-.16 5.24-.16 7.86-.16 5.32 0 10.64.25 15.95.73 1.3.12 2.62.2 3.91.4.06 0 .5.12.56.1.41-.13-.1.1-.08-.22-.04.65.08 1.38.09 2.04.05 2.61.02 5.22-.08 7.83-.11 2.94-.3 5.87-.59 8.79-.15 1.53-.33 3.06-.53 4.59s-.65 3.11-.45 4.63c.11.82.5 1.54 1.35 1.77.75.21 1.71-.12 2.07-.84.68-1.35.82-2.76 1.03-4.24.23-1.64.44-3.28.62-4.93.33-3 .56-6.02.67-9.03q.165-4.53.03-9.06c-.04-1.3-.03-2.65-.79-3.77-.8-1.19-2.14-1.54-3.49-1.7-6.06-.73-12.21-1.01-18.31-1.04-2.95-.01-5.9.04-8.84.18-1.21.06-2.52.04-3.59.69-1.26.76-1.64 2.1-1.89 3.45-1.24 6.81-2.52 13.62-3.62 20.45-.33 2.06 2.73 3 3.19.88Z"/><path d="M67.51 28.37c-.45-4.56-.65-9.29-.42-13.87-.01-.2 0-.4.04-.6-.14.15-.13.2.05.13.36-.13.77-.14 1.15-.2 1.26-.2 2.52-.39 3.79-.55 2.25-.29 4.51-.52 6.78-.71 9.38-.76 18.83-.58 28.18.48l-2.06-1.57c.79 5 1.56 10.01 2.37 15.01.19 1.16 1.63 1.81 2.68 1.52 1.24-.34 1.71-1.51 1.52-2.68-.8-5-1.63-9.99-2.44-14.99-.16-.99-1.19-1.47-2.06-1.57-8.07-.89-16.2-1.12-24.3-.65-4.15.24-8.29.68-12.41 1.26-1.71.24-3.83.28-5.37 1.15-1.74.99-1.93 2.86-1.88 4.67.12 4.56.69 9.06 1.38 13.56.26 1.7 3.19 1.32 3.02-.41ZM40.28 45.33c-2.52 1.01-3.77 3.26-4.34 5.82-.72 3.2-.8 6.65-.98 9.92s-.33 6.7.8 9.86c1.02 2.85 2.75 5.33 4.78 7.55 4.23 4.61 9.57 8.9 15.26 11.54 6.14 2.85 12.9 4.56 19.56 5.63 13.53 2.17 27.45 1.34 40.6-2.53 5.22-1.54 10.38-3.51 15.03-6.37 4.69-2.88 8.71-6.62 11.99-11.03 1.13-1.52 2.16-3.15 2.72-4.98.51-1.7.55-3.51.53-5.27-.05-3.45.19-6.91.07-10.36-.12-3.39-.6-6.77-2.07-9.86-1.29-2.7-3.58-5.25-6.81-5.13-2.64.1-2.67 4.11 0 4.12 1.91 0 2.98 2.34 3.56 3.85.95 2.5 1.16 5.2 1.21 7.85.05 2.78-.11 5.56-.1 8.33 0 1.36.12 2.74-.1 4.09-.24 1.44-.89 2.66-1.7 3.85-5.54 8.15-14.02 13.12-23.24 16.08-11.42 3.67-23.46 4.95-35.4 3.85-6-.55-11.95-1.76-17.7-3.54-2.93-.91-5.81-1.98-8.49-3.48-2.57-1.44-4.92-3.22-7.19-5.1-4.74-3.91-9.34-8.26-9.55-14.8-.11-3.44.16-6.93.36-10.36.13-2.25-.04-5.69 2.37-6.81 1.52-.7.43-3.37-1.16-2.74Z"/><path d="M42.67 79.65c3.38 19.35 8.34 38.39 11.58 57.77.65 3.9.24 8 1.6 11.77 1.34 3.7 4.16 6.65 7.34 8.88 5.84 4.09 13.22 5.36 20.14 6.28 10.6 1.41 22.07 1.79 32.36-1.55 4.9-1.59 9.61-4.17 12.83-8.29 4.06-5.19 4.41-11.63 5.14-17.95.93-8 1.58-16.05 2.78-24.02 1.4-9.32 2.91-18.59 3.95-27.96.25-2.28.49-4.57.72-6.85.1-1.04-.96-1.94-1.94-1.94-1.13 0-1.84.89-1.94 1.94-.89 9.13-1.97 18.25-3.47 27.3-1.31 7.88-2.5 15.74-3.39 23.68-.44 3.92-.87 7.85-1.38 11.77-.35 2.71-.69 5.66-1.77 8.08-1.92 4.3-5.46 7.13-9.75 9.06-4.49 2.01-9.76 2.89-14.72 3.24-5.22.37-10.49.21-15.7-.3-2.59-.25-4.5-.5-7-.91-3.57-.58-7.14-1.24-10.53-2.53s-6.34-3.19-8.42-5.98c-2.3-3.09-2.33-6.81-2.6-10.5-.33-4.5-1.32-8.97-2.18-13.39-.89-4.57-1.85-9.13-2.84-13.68-2.03-9.26-4.14-18.51-6.29-27.74-.54-2.33-1.07-4.66-1.6-6.99-.44-1.94-3.27-1.09-2.94.81Z"/><path d="M66.85 107.01c2.46 4.87 2.43 10.59 2.91 15.9.27 2.98.57 5.97 1.01 8.93s.85 6.13 1.81 9.03c.49 1.49 2.93 1.33 2.85-.39-.14-3.13-.75-6.25-1.16-9.36-.41-3.14-.82-6.27-1.13-9.42-.55-5.56-.98-11.19-3.81-16.15-.93-1.63-3.33-.19-2.5 1.46Zm18.32-.13c.24 6.24 1.19 12.46 1.81 18.68.31 3.1.6 6.2.89 9.31.3 3.12.27 6.54 1.18 9.55.47 1.56 2.54 1.13 2.7-.37.32-3.07-.35-6.37-.64-9.43-.3-3.18-.6-6.36-.91-9.54-.61-6.18-1.03-12.5-2.59-18.52-.35-1.34-2.49-1.09-2.44.33Zm17.19-.26c.26 6.12.36 12.26.39 18.38.02 2.98 0 5.97-.07 8.95-.03 1.57-.08 3.15-.13 4.72s-.29 3.19-.12 4.72 2.65 2.26 3.04.41c.31-1.5.26-3.1.31-4.63s.1-2.98.13-4.47q.105-4.725.09-9.45c-.03-6.23-.35-12.42-.83-18.63-.14-1.78-2.89-1.83-2.81 0m17.17-1.62c-.38 5.18-.88 10.36-1.42 15.53s-1.37 10.3-1.86 15.46c-.16 1.72 2.69 2.11 3.02.41 1-5.12 1.46-10.43 1.95-15.62s.79-10.5.98-15.77c.06-1.73-2.55-1.7-2.67 0Z"/><path d="M54.08 143.08c-2.93-.2-5.56 1.71-7.68 3.73-1.97 1.87-3.86 4.17-3.92 6.89-.05 2.44 1.41 4.67 3.16 6.37 5.13 5.01 12.6 6.67 19.69 7.76 10.99 1.69 22.14 2.55 33.25 2.02 4.65-.23 9.28-.7 13.91-1.17 9.15-.94 18.61-2.02 26.58-6.62 3.64-2.1 7.16-5.49 7.08-9.69-.06-3.11-2.15-5.89-4.77-7.56s-5.71-2.41-8.75-3.04c.24 6.6-1.71 13.87-7.2 17.55-2.12 1.43-4.61 2.2-7.08 2.86-17.62 4.65-36.67 3.72-53.75-2.63-2.83-1.05-5.69-2.31-7.74-4.52-2.59-2.8-3.54-6.73-3.99-10.52"/><path d="M54.08 141.39c-4.89-.4-9.75 3.77-12.18 7.7-3.04 4.92-.62 10.1 3.46 13.49 3.87 3.22 8.62 5.03 13.48 6.14 5.55 1.28 11.29 1.96 16.96 2.53 6.02.61 12.07.92 18.12.84 5.97-.08 11.91-.63 17.85-1.24 5.38-.56 10.79-1.11 16.07-2.33 4.99-1.15 10.19-2.93 14.34-6.01 4.47-3.31 7.63-8.53 5.16-14.08-2.49-5.59-8.63-7.57-14.14-8.73-1.3-.27-2.72.59-2.68 2.04.16 5.21-.94 11.02-4.92 14.72-2.16 2.01-5.02 2.89-7.81 3.63-3.35.88-6.75 1.57-10.18 2.04-13.48 1.84-27.41.4-40.28-3.99-3.14-1.07-6.59-2.2-8.9-4.7-2.21-2.37-2.97-5.84-3.36-8.96-.15-1.17-.9-2.19-2.19-2.19-1.07 0-2.33 1.01-2.19 2.19.42 3.38 1.07 6.81 2.87 9.76s4.78 5.05 8.01 6.43c6.93 2.97 14.38 4.78 21.84 5.77s15.2 1.07 22.75.17c3.78-.45 7.53-1.1 11.23-2.01 3.47-.85 7.03-1.85 9.92-4.05 5.71-4.36 7.66-11.92 7.44-18.81l-2.68 2.04c4.06.84 8.87 1.9 11.14 5.78 2.08 3.56-.21 7.08-3.11 9.3-3.55 2.72-8.04 4.26-12.33 5.34-4.52 1.13-9.15 1.7-13.77 2.18-10.45 1.1-20.84 1.84-31.35 1.22-5.28-.31-10.56-.87-15.79-1.65-4.35-.64-8.75-1.4-12.86-3.02-2.15-.85-4.27-2.01-6.02-3.53-1.66-1.43-3.5-3.38-3.45-5.73.04-2.21 1.77-4.06 3.26-5.51 1.73-1.68 3.77-3.39 6.3-3.42 2.2-.02 2.14-3.2 0-3.38ZM40.01 36.17c6.57 3.48 12.53 7.95 18.33 12.58 1.3 1.04 2.68 2.03 3.85 3.22s1.5 2.39.97 4.03c-1.22 3.79-3.3 7.25-4.86 10.89-.86 2 1.83 3.75 3.01 1.76 1.13-1.92 2.02-4.04 2.92-6.08s1.89-3.98 2.45-6.06c1.11-4.1-1.49-6.74-4.45-9.1-6.5-5.19-13.12-10.29-20.65-13.91-1.77-.85-3.34 1.73-1.56 2.67Zm63.45 17.6c-1.76 3.1-3.62 6.14-5.41 9.22-.86 1.49-1.7 2.99-2.55 4.49-.9 1.59-1.95 3.16-2.69 4.83-.89 2.03 1.65 3.53 2.97 1.73 1.08-1.47 1.91-3.18 2.81-4.76.85-1.5 1.71-2.99 2.53-4.5 1.69-3.14 3.27-6.34 4.92-9.51.88-1.7-1.62-3.19-2.58-1.51ZM65.11 13.94c2.98 3 6.11 5.83 9.22 8.7 2.87 2.65 5.94 5.17 8.62 8.02 2.39 2.55 4.49 6.03 3.37 9.63-.6 1.94-1.71 3.76-2.61 5.58-.95 1.92-1.91 3.85-2.86 5.77-.99 2 2.01 3.77 3.01 1.76s2.05-4.14 3.08-6.22c.96-1.94 2.1-3.89 2.74-5.97 1.25-4.06-.36-8.2-2.89-11.4-2.6-3.29-6.02-5.99-9.14-8.76-3.47-3.09-6.9-6.22-10.49-9.15-1.41-1.15-3.38.7-2.04 2.04Zm68.2 15.4c-5.55 4.94-10.86 10.6-15 16.79-2.11 3.16-2.01 6.62-.56 10.03.71 1.67 1.63 3.22 2.54 4.79 1.05 1.82 2.01 3.74 3.2 5.46 1.36 1.97 4.22.29 3.2-1.87-1.49-3.13-3.6-5.96-5.13-9.08-.66-1.34-1.25-2.86-1.17-4.38.08-1.56.97-2.82 1.87-4.04 4.01-5.48 8.58-10.58 13.32-15.43 1.45-1.49-.73-3.63-2.26-2.26Zm-19.76 8.08c-.2.34-.81.47-1.09.15-.07-.52-.13-1.03-.2-1.55-.59.83-1.16 1.72-1.43 2.72-.14.51-.2 1.05-.15 1.58.06.56.27 1.05.38 1.59-.02-.12-.01.21.05 0-.06.21-.25.41-.36.6-.27.46-.43.95-.5 1.48-.15 1.11.14 2.21.91 3.04 1.02 1.1 2.74-.3 2.04-1.57-.13-.24-.25-.44-.3-.83.03.23.01-.27.02-.33-.02.23.07-.25.09-.31-.07.18.16-.26.2-.32.11-.18.21-.35.3-.54.24-.53.3-1.05.22-1.62-.06-.43-.19-.84-.33-1.25-.07-.21-.07-.62 0-.83.24-.77.63-1.42 1.09-2.13.3-.47.19-1.17-.2-1.55-.82-.8-2.34-.69-2.86.4-.29.6-.16 1.34.45 1.7.58.34 1.36.14 1.7-.45ZM93.29 16.71c.04 1.14.79 1.74 1.69 2.29.08.05.17.11.25.16.13.07.19.14.04 0 .34.32-.04-.02.04-.05-.02.01-.03.65-.04.72-.04.31-.08.61-.1.92-.11 1.31-.03 2.6.19 3.89.21 1.21.59 2.41 1.44 3.32 1.11 1.19 2.98-.33 2.21-1.7-.44-.78-.69-1.53-.83-2.49-.17-1.18-.17-2.41-.04-3.6s.03-2.36-.98-3.15c-.32-.25-.65-.42-1.02-.59-.15-.07-.3-.15-.44-.24.08.05.14.14.04.02.06.07.18.36.15.14-.1-.64-.86-1.03-1.45-.95-.62.09-1.17.63-1.14 1.3ZM63.35 35.02c-.45 1.43-.36 2.97.68 4.11.09.1.18.18.27.27l.17.17c.03.03.18.2.04.03s0 0 .02.05a.3.3 0 0 1 .04.08q.075.15-.06-.15c0 .05.04.13.05.18.06.22-.04-.09-.01-.13-.03.04 0 .36 0 .43 0 .19.06-.31.02-.11-.02.08-.03.16-.05.24-.06.29-.15.57-.21.86-.16.73.16 1.46.86 1.76.62.26 1.57.07 1.86-.61.64-1.49.9-3.36-.35-4.63-.19-.19-.42-.35-.62-.54-.16-.16-.04-.08 0 .04-.02-.05-.07-.11-.1-.15-.02-.03-.14-.29-.05-.08.08.2 0 0 0-.05-.04-.13-.07-.27-.1-.41-.02-.08-.03-.15-.05-.23 0-.04-.04-.25-.01-.06.04.22 0-.09 0-.11 0-.06 0-.13-.01-.19-.01-.14-.04-.29-.05-.43.04.34 0 0 0-.05-.07-.59-.39-1.07-1.02-1.16-.59-.08-1.11.28-1.29.85Zm18.59 29.46.09 1 .05.5c.02.2.03.39.08.58.02.09.05.17.07.25.1.33.34.69.65.85l.34.14q.285.09.57.03c.13 0 .25-.03.36-.1.18-.06.33-.16.46-.29l.22-.29c.13-.22.19-.46.19-.72.02-.17.03-.33.02-.5l-.04-.48-.09-.98c0-.2-.03-.4-.13-.57-.06-.18-.16-.34-.31-.48a1.1 1.1 0 0 0-.48-.31c-.18-.09-.37-.14-.57-.13-.38.02-.78.14-1.05.43-.25.27-.47.66-.43 1.05Zm-45.45 8.16c-2.08.3-4.1 1.06-5.87 2.2-.93.6-1.82 1.35-2.27 2.36-.9 2.03.23 4.37 1.53 6.18 1.67 2.33 3.67 4.42 5.91 6.2 1.68 1.33 3.54 2.51 5.6 3.08 2.07.57 4.38.49 6.25-.56 1.62-.92 5.91-3.38 7.74-3.66-3.07-2.18-3.68-1.81-6.68-4.07s-11.45-6.53-11.95-10.26"/><path d="M36.49 71.17c-3.43.16-7.65 1.48-9.59 4.54-2.14 3.36.04 7.21 2.15 9.95 4.25 5.5 11.92 12.05 19.29 8.42 2.48-1.22 4.81-3.23 7.56-3.8 1.73-.36 1.7-2.62.46-3.48-1.7-1.17-3.59-1.96-5.32-3.07-1.61-1.03-3.14-2.18-4.76-3.22-1.68-1.08-3.39-2.15-4.93-3.42-1.15-.95-2.51-2.13-2.74-3.48-.41-2.41-4.09-1.39-3.68 1.01.33 1.87 1.78 3.44 3.15 4.65 1.7 1.5 3.6 2.76 5.5 3.98 1.66 1.07 3.31 2.13 4.92 3.28 1.89 1.34 4.03 2.23 5.93 3.57.15-1.16.3-2.32.46-3.48-2.68.43-5.39 2.08-7.72 3.4-3.21 1.81-6.47.58-9.28-1.44-1.54-1.11-2.95-2.41-4.23-3.8s-2.53-2.8-3.24-4.47c-.69-1.62-.21-2.79 1.18-3.78 1.59-1.13 3.41-1.93 5.29-2.45 1.56-.43 1.3-2.96-.39-2.89Zm101.95-36.5c3.32 2.17 6.63 4.35 9.95 6.52 1.41.92 2.92 1.97 3.41 3.59.46 1.51-.1 3.13-.82 4.53-1.06 2.06-2.54 3.99-4.58 5.11-.85-3.18-2.04-6.27-3.55-9.2-.59-1.15-1.31-2.35-2.5-2.83-.8-.33-1.88-.39-2.23-1.18-.13-.28-.13-.6-.12-.9 0-.94.01-1.88.02-2.82 0-.39.36-.95.62-.65"/><path d="M137.67 35.99c2.01 1.38 3.95 2.85 5.95 4.25 1.79 1.25 3.8 2.41 5.38 3.92 1.43 1.36.85 2.95 0 4.51s-2 3.07-3.6 4.02c.97.4 1.95.79 2.92 1.19-1.05-3.59-2.33-7.37-4.3-10.57-.94-1.53-2.14-2.5-3.85-3.03-.2-.06-.4-.2-.42-.09.17.52.24.56.19.1v-.71c0-.47.03-.95 0-1.41-.03-.55-.1-.24.02-.47l-.67.67.12-.08-1.4.18.15.03c1.78.33 2.84-1.56 1.71-2.94-.88-1.07-2.61-.75-3.31.34-.6.94-.5 2.07-.51 3.14s-.12 2.33.49 3.32c.58.93 1.58 1.34 2.58 1.65 1.68.52 2.33 2.68 3 4.14.99 2.18 1.76 4.45 2.35 6.77.32 1.27 1.82 1.79 2.92 1.19 2.17-1.19 3.87-3.1 5.06-5.25 1.37-2.46 2.26-5.48.67-8.06-1.41-2.28-3.99-3.49-6.2-4.83-2.56-1.57-5.17-3.05-7.72-4.64-1.69-1.05-3.15 1.54-1.55 2.64Z"/></svg>