<?xml version="1.0" encoding="UTF-8"?><svg xmlns="http://www.w3.org/2000/svg" data-name="ARTWORK" viewBox="0 0 1000 1000"><path d="M520.395 284.064c-14.435 3.535-28.517 8.924-41.491 16.198-11.967 6.71-22.969 15.261-32.491 25.14-5.549 5.756-10.578 12.022-15.206 18.536l1.838-2.379c-5.375 6.82-9.686 14.599-13.437 22.414-3.813 7.944-7.111 16.176-9.76 24.581-5.128 16.271-7.86 33.305-8.685 50.329-.852 17.574.564 35.18 3.516 52.51a242 242 0 0 0 13.456 48.187c6.449 16.331 14.307 32.066 24.163 46.619 5.639 8.326 11.808 16.378 18.622 23.778 7.664 8.322 16.324 15.688 25.493 22.297 16.763 12.083 36.504 21.074 57.002 24.261 10.493 1.632 20.967 2.19 31.521.814 5.724-.746 11.362-1.721 16.905-3.361s10.994-3.883 16.212-6.401c21.011-10.139 38.122-27.65 50.669-47.065 12.084-18.698 20.018-40.142 24.442-61.901 1.217-5.984 2.161-12.019 2.922-18.077l-.371 2.762c2.772-20.296 3.179-40.779 1.49-61.19a321 321 0 0 0-2.095-18.666l.356 2.651c-1.184-9.199-2.924-18.34-4.98-27.383-.665-2.926-1.496-5.765-2.422-8.617a383 383 0 0 0-.563-1.719c-.104-.314-.202-.632-.314-.943-.268-.742-.61-1.505-.928-2.227-.01-.023.749 2.293.593 1.276-.206-1.345-.694-2.706-1.045-4.021-3.287-12.312-7.26-24.454-11.981-36.291-5.363-13.447-11.574-26.587-19.219-38.9-7.429-11.965-16.385-22.929-27.772-31.31-10.366-7.629-23.467-11.934-36.39-10.939-2.262.174-4.518.49-6.755.86-2.199.363-4.576 2.505-5.655 4.349-1.187 2.028-1.69 5.018-.954 7.292.741 2.29 2.16 4.499 4.349 5.655 2.381 1.258 4.646 1.391 7.292.954q.82-.135 1.642-.248l-2.516.338a46 46 0 0 1 12.005-.006l-2.516-.338c4.044.566 7.97 1.681 11.731 3.268l-2.26-.954a61.5 61.5 0 0 1 12.187 6.967q.387.287.773.577c1.015.755-1.221-.955-1.106-.858.497.42 1.023.809 1.526 1.223q1.4 1.154 2.744 2.37a90 90 0 0 1 5.519 5.458 108 108 0 0 1 5.002 5.79q.553.69 1.099 1.385c.936 1.188-1.422-1.897-.53-.67l1.393 1.803q-1.53-2.002-.735-.951a171 171 0 0 1 2.336 3.21c3.196 4.527 6.158 9.225 8.812 14.09 2.708 4.963 5.2 10.041 7.52 15.196a252 252 0 0 1 1.52 3.447c.3.694 1.416 3.374.16.354.287.692.578 1.382.863 2.075a291 291 0 0 1 2.998 7.596 327 327 0 0 1 9.514 29.293 335 335 0 0 1 1.436 5.418c.072.283.137.568.216.849.595 2.123-.451-3.718.045-.023.35 2.603.813 5.191 1.184 7.792 1.041 7.282 2.58 14.485 3.564 21.784l-.351-2.611c2.785 20.877 4.137 41.905 2.825 62.953a255 255 0 0 1-1.755 17.931l.371-2.76c-2.363 17.377-6.636 34.513-13.428 50.705l1.077-2.552c-5.103 12.074-11.602 23.523-19.604 33.917l1.706-2.208c-6.489 8.37-13.875 15.947-22.222 22.474l2.244-1.734c-6.678 4.817-13.581 9.063-21.179 12.288l2.731-1.152a95.6 95.6 0 0 1-23.775 6.511l3.11-.418c-8.722 1.169-17.545 1.102-26.263-.06l3.166.425c-10.001-1.373-19.742-4.164-29.047-8.059l2.903 1.225c-11.292-4.773-21.87-11.057-31.575-18.54l2.495 1.928c-10.859-8.424-20.556-18.281-28.97-29.141l1.943 2.515c-8.972-11.624-16.676-24.201-23.113-37.395a236 236 0 0 1-5.25-11.551l1.251 2.966a242.4 242.4 0 0 1-14.527-47.678 242 242 0 0 1-2.302-13.994l.443 3.296c-2.012-15.089-2.601-30.375-1.525-45.564q.451-6.356 1.294-12.672l-.442 3.293c.242-1.795.515-3.586.725-5.385l-.442 3.29c1.657-12.004 4.399-23.862 8.406-35.304a166 166 0 0 1 3.634-9.434l-1.21 2.867c5.218-12.342 12.015-24.052 20.195-34.668l-1.798 2.327c6.877-8.879 14.805-16.953 23.642-23.891l-2.178 1.683c1.586-1.192 3.111-2.451 4.678-3.666l-2.154 1.664a144 144 0 0 1 16.383-10.943 150 150 0 0 1 11.069-5.744c.348-.163.701-.317 1.046-.485 1.232-.596-1.255.51-1.19.482.868-.366 1.752-.704 2.609-1.095.763-.348 1.523-.703 2.294-1.037 1.524-.66-1.336.553-.77.323.488-.199.974-.404 1.462-.602a172 172 0 0 1 11.55-4.207c4.331-1.409 7.588-6.103 6.091-10.727s-5.977-7.254-10.727-6.091Z"/><path d="M421.284 405.927c-.342-16.19.462-32.372 2.081-48.481a484 484 0 0 1 1.026-9.314c.059-.494.116-.989.18-1.482.249-1.935-.383 2.893.176-1.212.103-.754.184-1.503.277-2.257-.175 1.42.02-.242.046-.443.129-.993.279-1.985.422-2.976q.506-3.493 1.059-6.981c1.394-8.796 2.904-17.583 4.624-26.323 3.552-18.051 7.936-35.969 13.207-53.596a497 497 0 0 1 8.708-26.451 455 455 0 0 1 4.779-12.653q1.233-3.123 2.514-6.226c.183-.444 1.174-2.811.828-1.993-.462 1.091.201-.465.241-.559.271-.625.538-1.252.81-1.877 6.893-15.865 14.782-31.33 24.007-45.972a264 264 0 0 1 7.018-10.576 238 238 0 0 1 4.868-6.712c.365-.486.738-.967 1.102-1.453-.552.736-.974 1.235-.16.213 4.756-5.976 9.728-11.758 15.121-17.172a165 165 0 0 1 8.33-7.82 148 148 0 0 1 3.806-3.216c.744-.607 1.504-1.194 2.25-1.799-1.835 1.488-.474.369.503-.355 5.55-4.105 11.423-7.781 17.599-10.871 1.514-.757 3.059-1.439 4.588-2.162 2.039-.965-2.135.813-.034.008.964-.37 1.918-.763 2.886-1.122a97 97 0 0 1 9.574-3.007 95 95 0 0 1 4.899-1.125c1.317-.266 3.662-1.153 4.972-.867.087.019-2.719.322-1.324.176.656-.069 1.31-.16 1.965-.238q2.762-.33 5.525-.645 5.132-.587 10.269-1.122a1123 1123 0 0 1 84.055-5.616c23.261-.672 46.986-1.547 70.169.964.913.099 1.825.209 2.737.315.454.053.907.119 1.361.17-.016-.002-2.544-.372-1.096-.147 2.079.322 4.161.616 6.235.973q5.67.976 11.273 2.288a185 185 0 0 1 21.771 6.524q2.367.873 4.709 1.81c.456.183 3.459 1.448 1.584.638-1.762-.762 1.061.469 1.551.686a181 181 0 0 1 9.7 4.659 184 184 0 0 1 18.652 11.103c2.931 1.986 5.76 4.101 8.615 6.193.614.45-1.955-1.55.017.019.746.593 1.492 1.184 2.232 1.785a201 201 0 0 1 4.079 3.402 214 214 0 0 1 15.773 14.986 240 240 0 0 1 14.176 16.325c.301.379 2.3 2.94 1.076 1.359-1.164-1.504.515.684.795 1.054a270 270 0 0 1 3.261 4.413q3.362 4.651 6.534 9.435c8.422 12.696 15.853 26.035 22.476 39.75a404 404 0 0 1 4.88 10.492 450 450 0 0 1 2.343 5.328c.356.824.704 1.652 1.062 2.476.573 1.32-.402-.954-.411-.976.228.555.463 1.108.693 1.663a479 479 0 0 1 8.63 22.437c10.859 30.44 18.894 61.851 25.092 93.552 3.064 15.67 5.67 31.428 7.893 47.239q.188 1.333.371 2.668c.084.61.502 3.766.255 1.859-.254-1.955.121.928.184 1.409a1043 1043 0 0 1 1.845 14.932q1.299 11.18 2.37 22.385c3.034 31.702 4.94 63.579 5.3 95.427.259 22.92-.379 45.86-2.301 68.704a577 577 0 0 1-1.675 16.964c-.321 2.82-.669 5.637-1.029 8.452-.192 1.499-.017.165.021-.117q-.131.973-.269 1.945a529 529 0 0 1-.751 5.179c-1.681 11.183-3.736 22.312-6.223 33.344-2.522 11.191-5.488 22.284-8.955 33.22a364 364 0 0 1-5.454 15.931 345 345 0 0 1-5.199 13.26c.515-1.237-.031.076-.245.572-9.055 20.991-20.24 41.045-33.712 59.528-3.418 4.689-4.847 6.55-8.581 11.021a206 206 0 0 1-8.534 9.61c-5.51 5.82-11.385 11.298-17.643 16.308-.463.37-.933.731-1.394 1.104.029-.023 1.907-1.425.782-.607-.711.517-1.405 1.059-2.114 1.579a152.3 152.3 0 0 1-24.25 14.56 160 160 0 0 1-5.017 2.308c-1.339.588-2.034.817-.147.077-1.059.416-2.106.86-3.166 1.274-14.531 5.678-29.778 9.295-45.161 11.748-1.877.299-3.758.576-5.639.848-3.038.439 1.321-.153-.983.137-1.129.142-2.258.286-3.388.422-4.301.518-8.61.965-12.924 1.359-9.354.854-18.731 1.456-28.111 1.932-21.18 1.073-42.386 1.545-63.583 2.145-9.724.275-19.525.999-29.251.601a109 109 0 0 1-7.302-.542c-.548-.059-3.519-.387-1.371-.151 2.246.247-.832-.143-1.347-.229q-1.12-.186-2.236-.394a108 108 0 0 1-5.161-1.096 111 111 0 0 1-13.961-4.311c-.701-.267-1.396-.548-2.094-.822-2.609-1.022 1.743.811-.134-.051-6.108-2.807-12.025-5.875-17.694-9.5a146 146 0 0 1-8.281-5.714c-.372-.276-2.477-1.852-.922-.676 1.532 1.159-.767-.608-1.212-.964a166 166 0 0 1-3.968-3.281c-5.457-4.653-10.621-9.647-15.519-14.884-5.004-5.351-9.692-10.97-14.211-16.734 1.525 1.945.323.42-.417-.558a290 290 0 0 1-5.159-7.036 315 315 0 0 1-6.491-9.508c-8.808-13.411-16.655-27.442-23.797-41.804a528 528 0 0 1-10.386-22.196 603 603 0 0 1-2.455-5.653c-.175-.41-1.28-3.019-.685-1.603.64 1.521-.152-.367-.305-.735l-.729-1.756a641 641 0 0 1-4.61-11.466c-6-15.344-11.448-30.907-16.444-46.606-9.068-28.494-16.751-57.407-23.188-86.605-2.501-11.344-4.93-22.749-6.811-34.213-.946-5.765-8.096-8.978-13.295-7.549-6.122 1.683-8.497 7.514-7.549 13.295.268 1.634.148.915-.014-.447.178 1.486.401 2.952.629 4.428s.469 2.954.71 4.43q.731 4.476 1.512 8.943a875 875 0 0 0 3.53 18.943c2.854 14.446 6.129 28.814 9.709 43.097 8.001 31.924 17.799 63.424 29.883 94.047 12.458 31.573 27.031 62.599 46.051 90.799 17.199 25.5 38.211 49.325 64.756 65.378 12.237 7.4 25.837 13.108 39.857 16.035 18.022 3.763 36.043 2.447 54.305 1.936 40.194-1.124 80.816-1.38 120.561-8.157 32.606-5.56 63.134-17.541 88.99-38.431 14.843-11.992 27.231-26.565 38.419-41.952 13.699-18.842 25.039-39.314 34.15-60.742 18.797-44.207 28.427-91.276 32.548-139.013 3.543-41.048 2.843-82.332.351-123.419-1.9-31.317-5.012-62.543-9.436-93.605-4.625-32.472-10.855-64.757-19.456-96.421-8.735-32.157-19.98-63.792-34.869-93.64-13.875-27.813-31.376-54.262-53.311-76.401s-48.509-39.436-78.049-49.737c-39.307-13.707-81.739-12.116-122.738-10.63a1005 1005 0 0 0-84.808 6.676c-9.516 1.155-19.061 2.14-28.274 4.898-7.299 2.185-14.43 5.183-21.169 8.731-28.657 15.087-50.448 41.232-67.075 68.464-19.169 31.395-32.728 66.33-42.743 101.633-10.247 36.12-16.546 73.303-18.71 110.785-.922 15.976-1.071 32.014-.174 47.994.591 10.533 16.74 10.702 16.514 0Z"/><path d="M346.357 466.416c-6.1-1.585-12.437-2.493-18.734-2.733l2.949.396c-5.607-1.058-11.829.021-17.39.91l3.142-.422c-5.245.324-10.638 2.127-15.506 4.041-4.843 1.904-9.67 4.011-14.113 6.741-8.245 5.066-15.872 11.426-22.295 18.668-12.934 14.583-22.376 32.558-26.042 51.773-1.002 5.253-1.713 10.617-1.952 15.963-.23 5.149.272 10.2 1.018 15.292 1.259 8.587 4.378 16.988 8.671 24.515 4.196 7.356 9.755 14.15 16.065 19.796 6.447 5.769 13.709 10.912 21.503 14.704 15.922 7.746 33.607 11.992 51.358 11.632 18.932-.384 37.729-6.186 53.403-16.863 8.066-5.495 15.508-11.976 21.67-19.561 3.319-4.085 6.4-8.319 9.11-12.83s4.868-9.246 6.83-14.104c7.343-18.176 7.988-39.491 1.704-58.07-6.923-20.468-21.377-37.925-39.935-48.945-20.287-12.047-45.036-15.95-68.089-11.238a92 92 0 0 0-7.57 1.884c-2.036.599-3.931 1.398-5.888 2.233-1.266.54-2.584 1.051-3.777 1.74l2.593-1.094c-2.658 1.042-5.117 2.312-7.571 3.749-2.313 1.354-4.683 2.829-6.685 4.61l1.934-1.494-.373.197c-4.425 2.342-6.143 8.863-3.428 13.074 2.901 4.5 8.341 5.933 13.074 3.428l.373-.197-2.283.963c2.465-.594 4.872-1.669 7.308-2.401a113 113 0 0 1 7.515-1.988c2.469-.559 4.888-1.316 7.362-1.866a95 95 0 0 1 7.897-1.4l-3.063.412c8.671-1.132 17.318-1.438 26.006-.283l-2.977-.4c6.786.936 13.464 2.629 19.79 5.274l-2.613-1.103a82.3 82.3 0 0 1 18.208 10.676l-2.203-1.702a83.3 83.3 0 0 1 14.641 14.669l-1.694-2.192c4.06 5.292 7.456 11.054 10.053 17.2l-1.087-2.575c2.5 6 4.195 12.293 5.063 18.734l-.383-2.853c.801 6.168.769 12.378-.034 18.545l.385-2.869c-.92 6.815-2.77 13.458-5.434 19.796l1.1-2.608c-2.786 6.547-6.404 12.672-10.748 18.305l1.735-2.245a91.5 91.5 0 0 1-16.139 16.099l2.3-1.777a91.8 91.8 0 0 1-20.13 11.783l2.781-1.174c-7.017 2.948-14.382 4.993-21.925 6.022l3.166-.425c-8.216 1.092-16.549.993-24.759-.105l3.239.435a101.6 101.6 0 0 1-25.464-6.943l2.981 1.258c-7.449-3.148-14.572-7.144-20.99-12.073l2.547 1.968c-5.08-3.93-9.691-8.437-13.621-13.522l1.97 2.55c-3.339-4.359-6.139-9.097-8.28-14.155l1.271 3.013a61.5 61.5 0 0 1-4.18-15.38l.451 3.356c-.827-6.284-.635-12.603.19-18.877l-.452 3.36c1.148-8.48 3.468-16.76 6.788-24.644l-1.276 3.025c3.415-8.031 7.754-15.614 13.075-22.537l-1.962 2.539c4.806-6.207 10.335-11.827 16.542-16.64l-2.516 1.944c5.787-4.451 12.134-8.269 18.854-11.135l-2.893 1.221c6.679-2.813 13.852-4.842 21.031-5.849l-2.974.4c1.922-.194 3.801-.556 5.711-.818l-2.903.39a76 76 0 0 1 14.448-.514c2.247.134 5.209-1.135 6.724-2.785 1.442-1.571 2.33-3.338 2.615-5.46.614-4.573-2.201-9.235-6.811-10.434Z"/><path d="M261.474 606.213c-5.908 6.261-11.873 12.639-17.122 19.465l1.661-2.15c-7.144 8.806-14.387 17.521-21.418 26.418l-20.92 26.473c-4.49 5.682-9.018 11.335-13.44 17.069l1.908-2.469-43.846 56.697c-15.143 19.581-30.329 39.129-45.397 58.767-13.25 17.27-26.956 34.621-36.079 54.531-3.094 6.752-5.537 13.379-5.919 20.874-.329 6.456 1.539 13.059 4.705 18.651 5.345 9.438 14.376 16.054 23.107 22.108 18.197 12.618 40.944 25.408 63.823 18.854 11.478-3.288 20.556-11.176 28.459-19.805s15.167-17.728 22.133-27.078c13.084-17.56 24.628-36.179 35.93-54.916 11.805-19.572 23.65-39.169 34.322-59.389 9.656-18.297 17.777-37.264 26.11-56.181 7.796-17.696 15.97-35.344 26.549-51.58a183 183 0 0 1 8.2-11.592l-1.733 2.243c4.363-5.645 9.083-10.996 14.202-15.969 4.167-4.048 4.368-11.668 0-15.679-4.479-4.111-11.232-4.319-15.679 0-13.204 12.826-23.882 28.17-32.745 44.246-8.608 15.612-15.67 32.008-22.784 48.336-7.726 17.732-15.81 35.231-25.066 52.227-9.962 18.293-20.84 36.042-31.848 53.719-10.602 17.024-21.369 33.991-33.331 50.101a400 400 0 0 1-4.534 5.986l1.808-2.341c-4.417 5.704-8.994 11.283-13.781 16.681-4.503 5.078-9.108 10.148-14.464 14.348l2.375-1.835c-2.788 2.142-5.752 3.994-8.981 5.395l2.818-1.189a35.6 35.6 0 0 1-8.558 2.356l3.15-.423c-3.404.443-6.811.4-10.214-.033l3.166.425c-4.914-.685-9.646-2.145-14.221-4.043l2.867 1.21c-11.191-4.736-21.516-11.761-31.112-19.154l2.477 1.914c-3.781-2.94-7.388-6.116-10.358-9.892l1.928 2.496c-1.494-1.952-2.775-4.023-3.764-6.276l1.248 2.957a24 24 0 0 1-1.604-5.728l.444 3.301c-.26-2.058-.232-4.093.017-6.15l-.445 3.312c.517-3.635 1.661-7.102 3.073-10.48l-1.259 2.983c7.613-17.789 19.386-33.563 31.088-48.827 12.81-16.71 25.633-33.409 38.421-50.136l38.738-50.669c12.968-16.962 25.795-34.024 38.585-51.121 12.684-16.956 25.619-33.828 37.175-51.582 1.422-2.185 2.749-4.446 4.123-6.664 2.344-3.784 1.109-8.86-2.294-11.489-3.397-2.625-8.631-2.55-11.694.696Z"/><path d="M227.31 679.899c12.825 3.513 25.815 6.259 39.163 6.443 11.887.164 24.041-1.534 35.048-6.15 3.329-1.396 6.588-2.883 9.695-4.731a59 59 0 0 0 3.868-2.509c1.065-.752 2.3-1.567 3.235-2.436 1.005-.934 1.784-2.134 2.616-3.215l.809-1.917a6.1 6.1 0 0 0 .143-3.2c-.226-1.684-.918-3.424-2.207-4.608a9.6 9.6 0 0 0-3.541-2.064c-2.101-.68-4.283-.088-6.184.809-2.524 1.191-4.696 2.989-7.106 4.41s-4.918 2.662-7.49 3.761l2.03-.857c-6.608 2.775-13.629 4.581-20.723 5.56l2.239-.301c-12.226 1.627-24.638.602-36.812-1.024l2.059.277c-4.358-.593-8.695-1.316-13.02-2.115-1.934-.357-3.792-.298-5.54.725-1.491.873-2.914 2.583-3.304 4.297-.865 3.796 1.14 7.781 5.022 8.844Zm-41.892 53.37c4.258 1.701 8.557 3.451 12.914 4.883 4.331 1.423 8.864 2.425 13.31 3.413 9.537 2.121 19.283 3.401 29.024 4.119 2.363.174 4.736.345 7.105.404 1.643.041 3.304-.238 4.916-.492 2.411-.379 4.758-1.11 7.05-1.932 6.407-2.298 12.568-5.283 18.557-8.502a217 217 0 0 0 8.507-4.822 173 173 0 0 0 3.393-2.077c.504-.317 1.015-.627 1.506-.963 1.584-1.084 2.808-2.426 3.772-4.067 1.718-2.923 1.385-6.683-.656-9.325a8 8 0 0 0-3.358-2.586c-1.885-.796-3.44-.711-5.467-.423l-.677.094 2.315-.311c-2.003.267-3.564.482-5.292 1.587q-.638.408-1.282.808-1.365.85-2.747 1.672a214 214 0 0 1-6.878 3.929c-5.088 2.786-10.286 5.383-15.631 7.639l2.122-.896c-3.345 1.399-6.824 2.747-10.432 3.271l2.34-.314c-3.527.471-7.288-.031-10.819-.266-4.65-.31-9.288-.779-13.908-1.391l2.291.308c-6.434-.866-12.855-1.87-19.211-3.2s-12.725-2.553-18.991-4.247c-3.58-.968-7.877 1.208-8.73 4.957-.414 1.817-.324 3.856.715 5.469 1.063 1.649 2.43 2.538 4.241 3.262Zm-29.315 43.052c.566.129 1.103.3 1.639.522l-1.766-.745c.325.15 1.136.714.118-.091-1.085-.859-.19-.128.002.058.409.397.776.83 1.128 1.278l-1.239-1.603q1.027 1.38 2.082 2.74l-1.269-1.642c1.541 2.076 2.496 4.409 3.665 6.692 1.446 2.823 2.885 5.642 4.132 8.561l-.885-2.098c1.499 3.573 2.699 7.254 3.236 11.101l-.318-2.368c.301 2.404.33 4.811.015 7.216l.321-2.388a28.6 28.6 0 0 1-1.821 6.694l.906-2.148c-1.059 2.498-2.443 4.814-4.091 6.967l1.404-1.818c-1.931 2.466-4.16 4.654-6.628 6.58l1.815-1.403c-2.923 2.236-6.102 4.023-9.49 5.453l2.139-.903c-4.803 1.977-9.898 3.042-15.031 3.735l2.448-.329c-3.988.518-8.002.785-12.02.918-3.745.124-7.515.237-11.242-.227l2.556.343c-1.98-.273-3.915-.705-5.777-1.442l2.312.976c-1.093-.462-2.148-1.023-3.176-1.614-4.17-2.396-9.479-1.291-12.387 2.473-1.251 1.62-2.156 3.715-2.062 5.818.106 2.368.861 5.251 2.812 6.79 1.33 1.049 2.594 2.147 4.136 2.859 1.585.732 3.216 1.447 4.901 1.928 2.679.764 5.523 1.079 8.3 1.214 4.385.214 8.834-.169 13.199-.561 10.63-.954 20.909-2.999 30.563-7.694 7.97-3.876 15.185-10.401 19.486-18.186 5.155-9.33 5.729-20.02 2.266-30.055a83.6 83.6 0 0 0-7.338-15.699 40 40 0 0 0-4.86-6.459c-2.253-2.421-4.94-3.789-7.991-4.927l1.772.748c-1.366-.577-2.61-1.175-4.069-1.397-2.021-.308-3.813-.335-5.648.739-1.52.89-2.97 2.633-3.368 4.38-.85 3.73 1.121 8.104 5.119 9.016ZM71.281 897.756c4.859 2.166 9.818 4.053 14.958 5.438 5.151 1.388 10.395 2.251 15.685 2.898 10.202 1.249 20.407.474 30.534-1.088 19.654-3.031 38.329-10.926 55.653-20.489a301 301 0 0 0 14.125-8.336c5.114-3.199 10.412-6.358 14.494-10.852 2.346-2.583 3.273-6.729 1.269-9.837a9.7 9.7 0 0 0-2.912-2.912c-1.592-1.026-4.451-1.479-6.255-.818a53.6 53.6 0 0 0-7.652 3.478c-1.962 1.086-3.814 2.381-5.713 3.574a328 328 0 0 1-11.749 7.066c-7.849 4.489-15.918 8.597-24.25 12.117l2.214-.934c-12.321 5.17-25.256 9.064-38.516 10.859l2.438-.328c-10.609 1.397-21.586 1.596-32.204.181l2.247.302c-6.272-.866-12.436-2.334-18.396-4.476-1.731-.622-4.442-.204-5.969.781-1.439.928-2.501 2.121-3.17 3.704-1.361 3.226-.358 8.101 3.17 9.674Z"/><path d="M188.601 739.241a36 36 0 0 1 5.952 1.885l-1.882-.794c3.341 1.427 6.467 3.31 9.354 5.512l-1.562-1.207c2.88 2.236 5.582 4.76 7.894 7.583.846 1.033-1.073-1.439-.223-.296.27.363.543.725.809 1.092q.737 1.017 1.435 2.06c1.075 1.607 2.112 3.242 3.172 4.859 4.136 6.309 8.291 12.647 11.253 19.613l-.823-1.95c2.056 4.925 3.35 10.027 4.07 15.309l-.298-2.221c.505 3.831.82 7.682 1.136 11.532.158 1.926.318 3.852.508 5.775.245 2.483.37 5.102 1.059 7.495a8.37 8.37 0 0 0 9.161 5.981c4.052-.544 7.253-4.016 7.24-8.2-.004-1.406-.241-2.775-.43-4.17l.303 2.255c-1.067-8.093-1.485-16.253-2.786-24.319-1.144-7.093-3.785-13.811-7.268-20.08-3.117-5.611-6.905-10.81-10.611-16.039-3.833-5.407-7.783-10.833-12.642-15.38-5.825-5.452-12.793-9.721-20.604-11.592-4.028-.965-8.784 1.267-9.757 5.54-.915 4.016 1.208 8.796 5.54 9.757m223.595-396.324A2145 2145 0 0 1 277.84 220.769l17.193 128.647-188.418-15.803a733.3 733.3 0 0 0 118.059 120.375A4404 4404 0 0 0 25 497.928a1454 1454 0 0 0 194.599 102.234c-9.429 33.058-22.865 81.577-32.294 114.635 19.674-19.489 42.425-55.379 60.15-76.655 3.826-4.593 7.763-9.585 8.427-15.526.586-5.242-1.48-10.369-3.343-15.304-8.245-21.841-13.261-45.371-10.56-68.56 2.702-23.189 13.84-46.024 32.902-59.502 16.713-11.816 38.103-15.598 58.515-14.099 20.413 1.499 40.131 7.887 59.358 14.904-2.865-15.494-5.685-31.783-.707-46.733 2.165-6.502 5.719-12.435 8.653-18.628 10.393-21.94 12.823-46.678 15.101-70.847"/><path d="M418.625 336.488c-8.609-8.043-16.988-16.391-25.863-24.14s-17.7-15.67-26.45-23.613c-17.507-15.891-34.73-32.097-51.83-48.425a2163 2163 0 0 1-28.48-27.704c-3.315-3.283-8.353-4.183-12.61-2.387-3.773 1.592-7.688 6.093-7.096 10.549 4.427 33.296 8.807 66.597 13.207 99.897l3.798 28.751 11.731-11.731c-24.552-2.097-49.052-4.793-73.601-6.934l-73.601-6.418-41.216-3.594c-4.407-.384-8.978 2.723-11.117 6.376-2.097 3.583-2.714 9.482 0 12.996 27.501 35.606 58.196 68.673 91.737 98.665 9.29 8.306 18.831 16.309 28.58 24.071l5.528-20.94c-26.209 5.352-52.498 10.274-78.675 15.798a4408 4408 0 0 0-77.4 17.061c-14.623 3.362-29.231 6.785-43.839 10.212-5.161 1.211-8.942 6.12-9.62 11.165-.729 5.426 1.805 10.439 6.412 13.381 48.436 30.936 99.337 58.53 151.466 82.718a1463 1463 0 0 0 29.644 13.356c.807.353 6.863 3.102 4.132 1.776l-.722-.296q1.989.874 3.997 1.699c1.14.471 2.284.934 3.426 1.398q3 1.219 6.005 2.426l-9.009-15.867c-7.799 30.388-17.05 60.426-25.234 90.719-2.169 8.028-4.383 16.033-6.3 24.125-1.197 5.051.742 11.129 5.566 13.677 4.629 2.446 10.953 2.165 14.677-1.894 1.805-1.967 3.592-3.966 5.265-6.047l.919-1.189q1.868-2.416-.062.077c.396-.123 1.124-1.273 1.402-1.593a243 243 0 0 0 3.288-3.872c4.23-5.084 8.281-10.318 12.28-15.584 7.407-9.753 14.547-19.707 21.802-29.573a944 944 0 0 1 5.009-6.758 609 609 0 0 1 2.674-3.546q.549-.722 1.1-1.442c1.759-2.297-1.237 1.573.159-.208 3.887-4.963 8.141-9.697 11.749-14.867 5.216-7.475 6.909-15.901 5.263-24.834-1.269-6.886-4.594-13.479-6.713-20.139-2.148-6.753-3.94-13.623-5.248-20.588q-.425-2.265-.782-4.542c-.079-.505-.59-3.595-.109-.581-.144-.906-.228-1.828-.327-2.74-.399-3.651-.649-7.32-.732-10.992-.075-3.365-.01-6.733.209-10.092.12-1.838.326-3.664.499-5.497.14-1.49.529-.042-.12.799.402-.521.356-2.342.472-3.016a96 96 0 0 1 4.557-16.976c.266-.717.554-1.426.824-2.141.95-2.519-1.097 2.386.017-.063.527-1.158 1.047-2.317 1.607-3.46a85 85 0 0 1 4.449-7.965 80 80 0 0 1 2.536-3.774c.303-.425.888-1.587 1.346-1.828l-.879 1.14q.35-.446.71-.884a73 73 0 0 1 6.137-6.661 70 70 0 0 1 3.085-2.787c.314-.267 1.353-1.413 1.755-1.443l-1.138.875q.605-.46 1.221-.905a70 70 0 0 1 8.257-5.131 74 74 0 0 1 3.643-1.802c.648-.299 2.8-1.679.222-.134.658-.394 1.553-.624 2.272-.892a83 83 0 0 1 9.354-2.865 90 90 0 0 1 4.803-1.039 95 95 0 0 1 4.049-.674q-2.592.336-.64.092c3.553-.374 7.099-.658 10.673-.72s7.123.048 10.673.318c1.855.141 3.7.352 5.55.542 3.136.322-2.539-.414.574.069 1.222.19 2.445.371 3.664.579 15.925 2.723 31.306 7.844 46.462 13.322 3.837 1.387 8.602-.235 11.373-3.006 3.141-3.141 3.781-7.169 3.006-11.373a454 454 0 0 1-1.198-6.752 262 262 0 0 1-.517-3.174c-.094-.606-.183-1.212-.276-1.818-.225-1.466-.211-.428.039.386-.632-2.053-.554-4.692-.716-6.831a90 90 0 0 1-.273-7.262c.011-2.257.154-4.498.351-6.745.026-.291.234-1.816.008-.215-.24 1.7.053-.235.126-.651q.309-1.77.737-3.517c.54-2.195 1.273-4.303 2.051-6.423.61-1.661-.307.039-.157.357-.063-.132.484-1.07.553-1.219.562-1.217 1.153-2.42 1.755-3.617 4.331-8.617 8.509-17.209 11.45-26.426 2.741-8.589 4.553-17.452 5.916-26.355 1.669-10.901 2.765-21.866 3.8-32.841.585-6.203-5.88-12.144-11.875-11.875-6.934.311-11.248 5.23-11.875 11.875a958 958 0 0 1-1.374 13.744q-.36 3.33-.77 6.654-.11.886-.224 1.772c-.038.299-.243 1.825-.022.189.235-1.733-.031.202-.091.628q-.156 1.104-.321 2.206c-1.334 8.917-3.133 17.771-5.745 26.406a128 128 0 0 1-2.075 6.285q-.524 1.454-1.085 2.894c-.214.549-.442 1.092-.654 1.642-.531 1.378.935-2.043-.01.015-1.927 4.199-4.068 8.284-6.087 12.438-4.748 9.771-7.55 19.609-7.879 30.52-.344 11.391 1.831 22.77 3.893 33.923l14.379-14.379c-28.181-10.345-57.477-18.458-87.713-14.259-13.281 1.845-26.57 6.315-37.75 13.828-11.137 7.484-20.327 17.529-26.967 29.185-14.341 25.178-16.175 54.704-10.734 82.694 1.353 6.958 3.181 13.819 5.365 20.561 1.134 3.502 2.381 6.963 3.678 10.407.521 1.384 1.048 2.767 1.514 4.171.278.839.541 1.685.765 2.541q.226.848.402 1.708.344 1.954-.03-.48c.125.182.208 2.472.045 2.604l.228-1.385a17 17 0 0 1-.335 1.575c.01-.038-.352 1.489-.474 1.531l.563-1.261q-.33.738-.707 1.452c-.767 1.459-1.704 2.788-2.623 4.151-1.577 2.34 1.589-1.879-.213.29-.593.714-1.176 1.435-1.768 2.15-3.937 4.756-7.707 9.652-11.428 14.578-8.391 11.108-16.4 22.5-24.799 33.601a889 889 0 0 1-2.902 3.809c-1.68 2.197 1.567-2.003-.127.166q-.963 1.237-1.93 2.469a367 367 0 0 1-6.242 7.729c-4.041 4.857-8.264 9.38-12.939 13.633l20.243 11.784c9.949-29.738 17.645-60.293 26.103-90.479 2.244-8.008 4.46-16.014 6.951-23.946 1.568-4.994-.946-12.253-5.928-14.567-26.092-12.118-52.198-24.142-77.877-37.126a1456 1456 0 0 1-75.047-40.753c-13.907-8.09-27.689-16.406-41.407-24.813l-3.208 24.546c51.52-13.1 103.431-24.45 155.371-35.733 14.657-3.184 29.323-6.308 44.064-9.075 8.852-1.662 12.582-15.138 5.528-20.94-33.896-27.878-65.555-58.415-94.173-91.703-8.119-9.443-15.965-19.112-23.642-28.917l-9.104 21.978c49.059 3.951 98.106 8.25 147.202 11.714 13.738.969 27.491 1.815 41.216 2.945 3.608.297 7.112-1.905 9.212-4.623 2.483-3.213 2.625-6.34 2.1-10.227l-13.432-99.369-1.844-13.639c-.176-1.299-.361-2.597-.527-3.897.087.686.375 2.793-.056-.413l-.131-.975q.145 1.085.01.073l-.982-7.31-19.706 8.162c33.79 33.38 68.811 65.399 104.974 96.191 1.319 1.123 2.616 2.286 3.963 3.376.051.041 3.621 2.814 1.512 1.156.746.587 1.488 1.18 2.232 1.77a2123 2123 0 0 0 7.833 6.171c5.725 4.489 11.577 8.823 17.415 13.173 3.625 2.701 9.225.898 11.728-2.342 2.67-3.455 2.617-8.828-.711-11.938Zm-136.908 418.25a1208 1208 0 0 1 90.606-53.532 398 398 0 0 0 14.392 74.506c3.942 13.386 8.618 26.706 9.867 40.604a834 834 0 0 1 75.784-86.447c-10.073-15.218-20.244-30.629-26.35-47.827-3.76-10.592-5.909-21.675-8.044-32.71l-11.77-60.824c-7.793 13.468-15.672 27.055-26.183 38.529-10.511 11.473-24.017 20.82-39.332 23.572-4.44.798-9.132 1.087-13.021 3.373-3.727 2.191-6.23 5.941-8.453 9.649-12.451 20.77-20.299 44.338-35.215 63.415"/><path d="M286.236 762.469c5.966-3.435 12.032-6.705 17.981-10.165 5.885-3.423 11.71-6.947 17.61-10.346a1152 1152 0 0 1 35.992-19.865c6.803-3.603 13.631-7.161 20.518-10.599l-17.926-10.287c1.106 16.084 3.563 32.17 6.919 47.933a398 398 0 0 0 5.331 21.966c1.974 7.23 4.242 14.37 6.368 21.556 2.384 8.058 4.707 16.107 5.836 24.455l-.425-3.163q.153 1.18.281 2.364l.424 3.153a8.94 8.94 0 0 0 2.123 4.034c1.514 1.96 3.678 3.685 6.162 4.251 2.086.475 4.221.475 6.307 0 3.136-.714 5.278-2.999 7.089-5.451 1.571-2.128 3.18-4.229 4.737-6.367l-1.835 2.375a833 833 0 0 1 70.97-80.112c1.847-1.834 2.898-4.219 3.24-6.765.334-2.489.032-5.35-1.398-7.512-8.781-13.278-17.501-26.845-23.729-41.545l1.205 2.856c-5.007-11.937-7.716-24.546-10.183-37.205-2.606-13.371-5.197-26.745-7.795-40.117l-4.383-22.559-1.197-2.837-1.857-2.404c-1.857-1.857-4.246-2.921-6.819-3.266-4.638-.623-9.441 1.528-11.833 5.67-5.909 10.229-12.016 20.423-19.221 29.804l1.893-2.45c-5.533 7.157-11.767 13.738-18.935 19.28l2.477-1.914c-4.838 3.702-10.06 6.866-15.672 9.251l2.918-1.231c-3.229 1.348-6.558 2.44-9.977 3.192-3.494.769-7.093 1.032-10.549 1.976-5.176 1.414-10.04 4.169-13.687 8.136-3.038 3.304-5.451 7.114-7.691 10.982-7.457 12.88-13.338 26.593-20.243 39.764-3.908 7.455-8.234 14.647-13.29 21.383l1.864-2.413-.266.341a8.94 8.94 0 0 0-2.465 3.837 9 9 0 0 0-1.027 4.593c0 2.924 1.299 6.417 3.492 8.43 2.272 2.086 5.255 3.634 8.43 3.492 2.929-.131 6.539-1.063 8.43-3.492 3.727-4.787 7.283-9.631 10.46-14.803 2.672-4.35 5.142-8.824 7.474-13.365 4.687-9.126 8.961-18.46 13.748-27.536 2.649-5.023 5.321-10.226 8.77-14.755l-1.903 2.464c1.083-1.383 2.267-2.652 3.639-3.753l-2.465 1.904a16.8 16.8 0 0 1 3.541-2.066l-2.911 1.228c3.299-1.331 6.83-1.703 10.311-2.281a57 57 0 0 0 9.421-2.404c6.985-2.439 13.669-5.763 19.703-10.048 6.218-4.416 11.945-9.38 17.012-15.081 5.342-6.01 10.152-12.534 14.547-19.263 4.509-6.904 8.546-14.085 12.679-21.215l-21.707-2.837 11.678 60.591c1.842 9.56 3.683 19.148 6.573 28.458 3.043 9.801 7.306 19.261 12.242 28.249 5.099 9.285 11.107 18.03 16.951 26.852l1.842-14.277a836 836 0 0 0-60.155 66.615c-5.294 6.538-10.489 13.159-15.686 19.775l20.25 8.388c-.61-7.854-2.011-15.635-3.929-23.269-1.684-6.705-3.82-13.281-5.778-19.909a398 398 0 0 1-9.772-40.911c-1.418-7.721-2.731-15.457-3.779-23.238l.432 3.214c-.503-3.767-.882-7.555-1.446-11.313l.428 3.188q-.186-1.435-.364-2.872a11.86 11.86 0 0 0-1.627-6.013 12 12 0 0 0-4.274-4.274c-3.71-2.171-8.312-2.114-12.026 0-23.821 13.561-47.294 27.685-70.247 42.675-6.452 4.214-12.644 8.866-18.865 13.413-1.94 1.418-3.453 2.95-4.114 5.35-.59 2.143-.324 4.997.903 6.899 2.641 4.097 7.905 5.713 12.249 3.212Zm242.445-652.81c23.725-18.269 55.649-23.408 83.842-13.092 15.105 5.527 28.3 15.803 40.263 26.312 11.724 10.299 22.648 21.559 32.719 33.476 40.116 47.469 65.156 106.339 81.227 165.877 17.543 64.993 26.418 132.791 25.37 200.115-1.074 69.057-12.619 137.588-38.038 202.135-11.802 29.97-26.515 62.318-46.339 87.536-19.588 24.918-45.662 43.887-77.1 48.149 2.2-.298-1.886.173-1.847.17a91 91 0 0 1-8.164.384c-4.013.016-7.994-.057-11.992-.429-5.644-.526-10.723 4.795-11.344 10.015-.613 5.153 2.528 11.771 8.273 12.673 36.59 5.743 71.345-10.057 98.307-34.01 26.374-23.43 43.802-55.309 58.191-87.036 15.113-33.323 27.25-67.644 35.457-103.326 8.195-35.63 12.975-72.126 14.584-108.643 3.153-71.55-4.801-144.067-21.67-213.62-15.422-63.588-39.739-126.656-79.751-178.998-10.086-13.194-20.941-25.761-33.004-37.191-12.612-11.95-26.295-23.488-41.434-32.11-29.969-17.067-65.965-18.251-97.083-3.368-7.166 3.427-13.694 7.824-19.856 12.815-6.76 5.475 2.406 17.542 9.388 12.167Z"/><path d="M687.761 145.193c22.92.039 45.862-.034 68.775-.644 22.833-.608 45.664-1.678 68.471-2.897q9.58-.512 19.157-1.083c6.448-.385 12.987-.528 19.398-1.32 2.296-.284 4.202-.744 5.904-2.446 1.448-1.448 2.539-3.824 2.446-5.904-.2-4.457-3.671-8.433-8.35-8.35-5.717.102-11.455.75-17.16 1.149s-11.443.786-17.166 1.155a3077 3077 0 0 1-34.349 2.023c-22.823 1.217-45.663 2.257-68.499 3.212q-19.31.807-38.628 1.373c-3.586.105-7.035 3.082-6.865 6.865.167 3.725 3.016 6.859 6.865 6.865Zm83.86 140.115c5.309-.21 10.603-.397 15.897-.839l15.897-1.326c10.442-.871 20.87-1.84 31.298-2.862 21.053-2.065 42.111-4.092 63.16-6.196 6.224-.622 12.449-1.325 18.621-2.349a118 118 0 0 0 8.295-1.665c1.297-.312 2.582-.645 3.847-1.067s2.582-.839 3.755-1.464c1.185-.632 2.193-1.584 3.12-2.545 2.101-2.178 2.982-5.268 2.171-8.214-.718-2.608-3.083-5.43-5.896-5.896-2.259-.375-4.196-.671-6.482-.155-.915.207-1.83.44-2.741.665-1.749.432-3.488.89-5.25 1.268-3.606.774-7.247 1.363-10.901 1.858l2.479-.333c-8.714 1.161-17.488 1.887-26.236 2.745l-27.075 2.655c-17.977 1.763-35.952 3.495-53.902 5.518l-15.152 1.708c-5.719.645-11.39 1.566-17.074 2.458-1.813.285-4.046 2.176-4.879 3.752-.871 1.649-1.218 3.349-.969 5.206.518 3.855 3.939 7.24 8.018 7.079Zm32.361 152.34c5.545.795 11.133 1.73 16.721 2.16q7.438.573 14.887.962c9.912.518 19.873.46 29.795.283 19.935-.354 39.872-1.63 59.66-4.092a705 705 0 0 0 18.534-2.547q4.225-.64 8.44-1.34c3.411-.566 6.904-1.051 9.792-3.092 2.927-2.068 4.66-4.991 4.163-8.689-.455-3.384-2.886-6.332-6.247-7.25-1.633-.446-3.27-.748-4.965-.587a81 81 0 0 0-5.202.65c-2.01.324-4.018.656-6.03.969a617 617 0 0 1-12.331 1.787l2.565-.345c-16.457 2.205-33.012 3.842-49.588 4.817-16.682.981-33.348 1.035-50.052.985-4.638-.014-9.273-.113-13.91-.202-4.707-.09-9.427.073-14.137.04-3.932-.028-7.232 3.022-7.745 6.838-.226 1.681-.011 3.56.936 5.028 1.031 1.6 2.737 3.341 4.713 3.624Zm3.706 162.53q7.974.41 15.95.773c7.976.363 10.639.765 15.954 1.176 10.719.827 21.423 1.416 32.165 1.829 21.259.818 42.527.915 63.801.806 5.674-.029 11.282-.31 16.89-1.251 6.075-1.019 12.431-3.297 16.946-7.592 3.455-3.287 3.57-8.893.747-12.547-3.017-3.905-8.005-4.616-12.327-2.461-1.671.833-3.283 1.78-4.997 2.527l2.335-.985c-3.105 1.303-6.37 2.069-9.698 2.538l2.59-.348c-8.296 1.105-16.81.769-25.16.82q-13.967.084-27.934.018c-18.618-.088-37.244.112-55.857.455-5.149.095-10.306.265-15.455.134q-7.976-.204-15.95-.457c-3.811-.12-7.455 3.436-7.283 7.283.184 4.113 3.201 7.073 7.283 7.283Zm-51.429 159.945c21.162 3.496 42.594 4.809 63.938 6.748 20.733 1.884 41.479 3.616 62.201 5.622a4136 4136 0 0 1 35.15 3.553c2.451.258 5.576-1.33 7.249-3.003 1.778-1.778 3.117-4.695 3.003-7.249-.119-2.651-.99-5.401-3.003-7.249-2.118-1.944-4.398-2.708-7.249-3.003q-30.93-3.195-61.904-5.925c-30.974-2.73-41.468-3.361-62.235-4.68-11.659-.74-23.314-1.152-34.992-.76-4.058.136-7.428 2.985-7.973 7.039-.489 3.638 1.824 8.248 5.815 8.907m-216.02-432.409c3.396 5.092 6.54 10.344 9.33 15.792a205 205 0 0 1 4.14 8.574q.887 1.95 1.735 3.916c.17.395.328.797.508 1.187-.846-1.835-.346-.821-.153-.358q.537 1.288 1.057 2.582c4.854 12.072 9.04 24.334 12.253 36.949a305 305 0 0 1 4.311 19.648 321 321 0 0 1 2.431 15.087c.236 1.687-.241-1.836-.089-.668l.15 1.149q.178 1.381.344 2.763a344 344 0 0 1 2.448 41.386 346 346 0 0 1-3.023 45.483l.352-2.616c-2.417 17.908-6.186 35.717-11.997 52.844a207 207 0 0 1-5.2 13.76l1.029-2.438c-3.516 8.258-7.973 16.091-13.431 23.222l1.61-2.085c-4.474 5.785-9.582 11.043-15.365 15.529l2.1-1.623c-2.378 1.821-4.845 3.541-7.406 5.096a76 76 0 0 1-3.715 2.1c-1.983 1.057-3.562 2.697-5.264 4.14-2.817 2.388-3.265 7.016-1.928 10.185.647 1.533 1.555 2.712 2.871 3.73 1.475 1.139 3.721 2.246 5.649 2.002 1.456-.184 2.912-.372 4.362-.592 1.383-.21 2.563-.682 3.85-1.262 1.441-.65 2.835-1.416 4.206-2.201a67 67 0 0 0 7.287-4.843c5.268-4.018 10.146-8.369 14.463-13.409 8.757-10.223 15.212-21.668 20.177-34.137 8.171-20.52 12.941-42.167 15.637-64.043 2.796-22.684 3.046-45.658 1.117-68.425-1.985-23.428-6.099-46.769-13.004-69.261-3.341-10.883-7.254-21.716-12.119-32.017-4.504-9.537-9.712-18.727-15.501-27.542a179 179 0 0 0-4.169-6.068c-1.946-2.714-5.666-4.29-8.758-2.297-2.773 1.788-4.283 5.779-2.297 8.758Z"/></svg>