<?xml version="1.0" encoding="UTF-8"?><svg xmlns="http://www.w3.org/2000/svg" data-name="ARTWORK" viewBox="0 0 1000 1000"><path d="M39.043 979.636c14.819-22.281 27.024-46.257 38.9-70.194 11.054-22.281 21.586-44.819 32.74-67.051 30.871-61.532 59.859-123.889 86.524-187.358 12.933-30.785 25.487-61.728 38.072-92.656 6.369-15.651 12.746-31.299 19.185-46.921 3.219-7.81 6.453-15.613 9.71-23.407q2.197-5.26 4.41-10.515l.492-1.168q-.96 2.283.986-2.334c-.213.503-.707 1.671.257-.609q1.358-3.209 2.72-6.414c13.143-30.901 26.746-61.612 41.207-91.921 7.109-14.899 14.467-29.657 22.186-44.249 3.7-6.995 7.225-14.171 11.727-20.693-1.363 1.975.017-.01.438-.491a35 35 0 0 1 1.785-1.907q.656-.648 1.345-1.262l.689-.598q1.631-1.33-.467.346c.331-.81 2.629-1.719 3.364-2.128.641-.356 1.303-.664 1.95-1.008 2.258-1.202-2.501.768.138-.049 1.403-.434 2.772-.92 4.203-1.268q.86-.21 1.729-.382c.296-.059 3.114-.761.906-.195-2.158.554.579-.048.944-.081a52 52 0 0 1 1.811-.131 58 58 0 0 1 5.529-.032c1.409.057 2.816.164 4.219.31 1.453.152 2.031 1.005-.185-.049.431.205 1.376.218 1.895.308a92 92 0 0 1 9.942 2.343c2.984.874 5.927 1.884 8.827 3.005.76.294 1.512.608 2.27.906 1.904.751-2.945-1.326-.035 0 1.455.663 2.91 1.322 4.347 2.025 6.994 3.418 13.788 7.285 20.455 11.298 13.835 8.326 26.93 17.704 39.789 27.451.362.274 2.032 1.565.138.099q1.197.927 2.389 1.862a661 661 0 0 1 4.279 3.381 724 724 0 0 1 9.881 8.025 1058 1058 0 0 1 18.035 15.275c24.808 21.449 49.189 43.526 71.301 67.787a464 464 0 0 1 16.122 18.632 431 431 0 0 1 6.997 8.779c-1.535-1.98-.259-.334.037.059.711.944 1.43 1.882 2.139 2.827a435 435 0 0 1 29.227 44.384 435 435 0 0 1 23.145 46.525c-1.071-2.514-.035-.07.226.561q.565 1.365 1.12 2.733c1.48 3.65 2.919 7.318 4.292 11.009 1.443 3.881 2.783 7.797 3.531 11.879-.111-.604-.103-2.591-.052.011.019.996-.054 2.031-.002 3.022.106 2.029.825-2.846-.161.572-.263.911-.504 1.822-.794 2.726a52 52 0 0 1-.605 1.774l-.325.874q-.827 2.077.315-.683c.077.979-1.367 2.875-1.821 3.721-1.384 2.583-3.039 6.07-5.217 8.083 2.121-1.96 1.009-1.27.417-.597-.508.577-.99 1.177-1.499 1.755a79 79 0 0 1-2.839 3.057c-2.405 2.458-4.963 4.764-7.618 6.947-.487.401-.981.793-1.472 1.189-1.89 1.525.287-.148.512-.39-1.02 1.092-2.613 1.937-3.843 2.805a175 175 0 0 1-8.353 5.515c-5.164 3.217-10.461 6.213-15.786 9.152-60.324 33.294-120.227 67.297-179.846 101.837-59.923 34.716-119.609 69.848-179.74 104.204-57.957 33.115-116.678 65.16-177.811 92.083a1130 1130 0 0 1-13.343 5.777c-.241.103-4.095 1.724-1.375.583a1039 1039 0 0 1-28.184 11.368c-6.678 2.579-12.032 9.345-9.59 16.89 2.104 6.501 9.717 12.36 16.89 9.59 64.455-24.893 126.272-55.877 186.632-89.388 61.081-33.912 121.183-69.599 181.544-104.766 61.283-35.704 122.646-71.282 184.61-105.797 13.733-7.65 27.622-15.045 41.254-22.875 11.639-6.686 23.09-14.156 32.816-23.472 9.994-9.571 18.719-22.176 21.628-35.909 2.132-10.066-.269-19.911-3.809-29.334-3.115-8.291-6.502-16.483-10.058-24.594a435.7 435.7 0 0 0-47.027-81.793c-19.955-27.348-42.893-52.135-67.553-75.283-24.616-23.106-50.249-45.358-77.078-65.864-12.794-9.778-26.116-18.928-39.977-27.129-12.944-7.658-26.46-14.849-40.923-19.186-13.682-4.103-29.054-5.955-42.978-1.912-7.299 2.119-13.869 5.795-19.549 10.824-5.953 5.271-10.076 12.297-13.673 19.291-15.651 30.424-30.388 61.37-44.441 92.561-28.191 62.573-53.472 126.394-79.292 189.966-25.913 63.801-52.374 125.384-81.789 188.524-12.429 26.678-25.497 53.051-37.695 79.835-11.577 25.42-23.156 50.835-35.924 75.684-5.716 11.124-11.666 22.13-18.299 32.74-2.63 4.207-.895 10.115 3.295 12.566 4.5 2.632 9.812.847 12.566-3.295Z"/><path d="M343.118 292.718c-1.047 1.194-2.016 2.444-2.982 3.704-.367.48-.753.953-1.086 1.458-.509.771.603-.737.574-.707-.232.237-.434.519-.642.777-.689.854-1.357 1.728-2.021 2.601-.23.302-.603 1.083-.929 1.254.291-.152 1.943-2.484.112-.114-.478.619-.647.85-.971 1.407-.346.593-.646 1.218-.948 1.834-2.259 4.614-4.057 9.405-4.979 14.462-.956 5.247-1.517 10.616-1.382 15.953.137 5.43.96 10.833 1.771 16.195 2.776 18.347 7.978 36.208 14.969 53.384 7.256 17.826 16.068 34.904 26.495 51.084 10.355 16.069 22.166 31.262 34.831 45.571 11.827 13.363 24.614 25.805 37.622 38.006 13.533 12.693 27.42 25.02 41.829 36.712 15.553 12.62 31.644 24.679 48.632 35.313 16.049 10.046 32.946 18.814 50.742 25.343 13.995 5.134 29.148 9.033 44.171 8.451 8.407-.326 16.263-2.043 23.902-5.535s13.899-9.379 18.621-16.243c2.661-3.869 4.27-8.177 5.909-12.546.953-2.54.209-6.248-1.113-8.507-1.34-2.29-3.966-4.474-6.598-5.074-2.826-.644-5.998-.504-8.507 1.113-2.539 1.637-4.013 3.772-5.074 6.598l-.17.454 1.113-2.637c-1.708 3.476-3.414 6.887-5.763 9.988l1.775-2.297a36.4 36.4 0 0 1-6.405 6.434l2.319-1.792a37.5 37.5 0 0 1-8.123 4.684l2.763-1.166c-3.926 1.619-8.078 2.634-12.281 3.199l3.095-.416c-6.246.796-12.562.581-18.793-.248l3.095.416c-12.658-1.736-24.96-5.925-36.694-10.866l2.781 1.174c-21.054-8.925-40.695-20.977-59.301-34.199a513 513 0 0 1-16.194-12.015l2.345 1.812c-15.746-12.173-30.856-25.153-45.526-38.598-13.734-12.587-27.302-25.431-39.897-39.169a395 395 0 0 1-21.174-25.089l1.781 2.306c-12.888-16.696-24.431-34.482-33.884-53.35a281 281 0 0 1-7.497-16.241l1.121 2.656c-4.17-9.895-7.764-20.029-10.672-30.367-2.932-10.42-5.469-21.053-6.984-31.779l.376 2.798c-.824-6.153-.938-12.393-.163-18.557l-.362 2.694c.569-4.228 1.418-8.488 2.791-12.532.166-.488.356-.969.521-1.457q.388-1.014-.464 1.045a8.7 8.7 0 0 0 1.006-2.485c.308-.967.624-1.922.996-2.868.704-1.789-.549.901-.043.211.302-.412.538-.888.815-1.318a44 44 0 0 1 1.938-2.744c1.178-1.549 1.424-4.685.846-6.47-.573-1.77-1.53-3.219-3.009-4.361-3.116-2.407-8.255-2.5-11.024.656Z"/><path d="M256.008 493.338a451.7 451.7 0 0 0 133.764-9.57c-17.811-16.877-30.051-38.655-42.018-60.076l-6.764-12.107c-2.258-4.043-4.537-8.134-5.778-12.595-1.2-4.312-1.391-8.83-1.687-13.296a269 269 0 0 0-4.535-34.437 1916 1916 0 0 0-62.929 132.57"/><path d="M253.801 501.345c3.308.489 6.621.939 9.936 1.374l-2.351-.316c4.697.883 9.673.895 14.442 1.137q6.168.312 12.344.455c8.31.192 16.622.069 24.927-.269 17.332-.705 34.601-2.457 51.751-5.047a461 461 0 0 0 27.638-5.06c7.558-1.618 9.813-11.933 4.507-17.072-4.89-4.737-9.379-9.859-13.548-15.238l1.627 2.105c-11.961-15.514-21.366-32.73-30.876-49.796-2.883-5.175-6.045-10.288-8.378-15.743l1.064 2.522c-1.234-2.969-2.031-6.013-2.47-9.197l.378 2.81c-.449-3.489-.582-7.006-.84-10.512a269 269 0 0 0-1.032-10.965c-.927-8.075-2.127-16.121-3.691-24.097l-1.07-2.536-1.66-2.149c-1.661-1.661-3.796-2.611-6.096-2.92-4.014-.539-8.614 1.316-10.579 5.069-8.84 16.877-17.639 33.766-25.963 50.905a1917 1917 0 0 0-37.251 81.499 8.15 8.15 0 0 0-1.299 4.07 8.3 8.3 0 0 0 .196 4.365c.699 2.539 2.663 5.291 5.031 6.542 2.541 1.342 5.618 2.015 8.436 1.104 2.516-.814 5.451-2.483 6.542-5.031a1925 1925 0 0 1 23.276-52.211c8.053-17.362 16.412-34.577 24.866-51.747 4.745-9.637 9.54-19.252 14.502-28.779l-19.406-2.536a277 277 0 0 1 2.811 16.897l-.379-2.817a274 274 0 0 1 1.51 14.117c.427 5.323.662 10.634 1.542 15.913 1.587 9.519 7.243 17.999 11.882 26.282 8.292 14.805 16.392 29.901 26.487 43.585 6.028 8.171 12.513 15.997 19.944 22.935l4.507-17.072a451 451 0 0 1-42.339 7.75l2.62-.352c-23.525 3.139-47.298 4.409-71.026 4.038q-5.08-.08-10.158-.274c-5.078-.194-6.764-.022-10.145-.046-4.14-.03-7.615 3.183-8.155 7.2-.238 1.77-.012 3.748.985 5.294 1.089 1.689 2.88 3.508 4.962 3.816Zm-40.696 94.12c92.674 4.299 186.536 7.066 277.225-12.496 2.267-.489 4.603-.994 6.886-.585 4.192.751 7.195 4.325 9.965 7.561 25.938 30.301 63.957 49.961 103.677 53.611l-66.52 38.229c-16.759 9.631-29.195 12.9-48.491 15.478a1357 1357 0 0 1-61.341 6.778c-84.417 7.388-171.837 9.828-254.975-9.105 15.093-31.864 14.757-71.338 33.541-92.968"/><path d="M213.105 604.835c29.209 1.635 58.361 3.621 87.619 4.15 29.037.525 58.103.298 87.095-1.503 29.72-1.846 59.394-5.207 88.682-10.621a598 598 0 0 0 15.921-3.168c.778-.166 1.559-.32 2.335-.492.298-.066 1.641-.269.079-.05-1.682.235.195.101.466.034 1.003-.248-.714-.102-.997-.247.209.107.686.188.921.221 1.33.185-2.027-1.117-.879-.419.26.158.548.311.819.45 1.632.841-1.554-1.473-.19-.203.554.515 1.106 1.024 1.629 1.571 2.081 2.175 3.936 4.566 5.951 6.803 8.462 9.397 18.138 17.659 28.516 24.87 20.261 14.079 44.109 23.791 68.516 27.509 3.743.57 7.501 1.06 11.269 1.431l-5.863-21.647c-7.995 4.549-16.17 8.775-24.233 13.205-7.935 4.359-15.748 8.925-23.584 13.462-7.636 4.421-15.197 9.026-22.961 13.219a128 128 0 0 1-5.052 2.589 113 113 0 0 1-3.38 1.566c-1.868.828.193.118.788-.316-1.257.916-3.375 1.337-4.834 1.853a101 101 0 0 1-4.854 1.579c-7.926 2.358-16.099 3.715-24.282 4.817l3.243-.436c-34.988 4.663-70.17 7.979-105.405 10.076-34.498 2.053-69.106 2.829-103.642 1.255-19.418-.885-38.799-2.529-58.069-5.094l3.3.443c-16.517-2.222-32.925-5.159-49.168-8.893l7.491 18.412c6.234-13.17 10.191-27.023 13.624-41.135 3.057-12.566 5.902-25.173 10.628-37.243.478-1.221-.786 1.776-.667 1.569.24-.42.402-.927.602-1.371q.486-1.083 1.003-2.152a70 70 0 0 1 2.315-4.386 59 59 0 0 1 2.434-3.877c.313-.457 2.174-2.943.697-1.038-1.457 1.878.414-.475.809-.935 2.162-2.52 3.614-5.309 3.614-8.725 0-3.026-1.344-6.641-3.614-8.725-4.616-4.238-12.961-5.231-17.45 0-18.077 21.067-21.041 49.884-28.559 75.602a201 201 0 0 1-3.636 11.229 148 148 0 0 1-1.955 5.187c-.167.417-.322.876-.522 1.282.377-.769 1.13-2.629.317-.768a127 127 0 0 1-1.284 2.835c-1.751 3.755-2.278 7.255-.632 11.155 1.445 3.425 4.356 6.414 8.122 7.257 29.48 6.598 59.555 10.677 89.675 12.85 29.418 2.122 58.95 2.364 88.422 1.411 29.486-.953 58.95-3.028 88.32-5.776a1355 1355 0 0 0 46.006-5.098c13.348-1.71 26.849-3.264 39.604-7.777 13.762-4.869 26.15-12.466 38.769-19.665 13.355-7.618 26.728-15.203 39.757-23.374a339 339 0 0 1 9.969-6.006c4.278-2.483 6.907-8.273 5.339-13.119-1.681-5.194-5.877-8.05-11.202-8.528a158 158 0 0 1-4.444-.457c-.468-.055-2.862-.366-.846-.095s-.674-.104-1.183-.182q-4.418-.675-8.79-1.609a155 155 0 0 1-17.546-4.84 157 157 0 0 1-8.372-3.112c-.407-.165-2.592-1.075-.86-.344 1.718.725-.684-.303-1.163-.515a158.6 158.6 0 0 1-30.794-18.012c-.364-.273-.722-.572-1.096-.828-.056-.038 1.873 1.472.913.707-.628-.5-1.263-.989-1.891-1.49a153 153 0 0 1-13.279-11.949c-4.663-4.716-8.609-10.097-13.988-14.044-3.464-2.542-7.928-3.907-12.216-3.871-4.151.036-8.318 1.231-12.364 2.074-14.247 2.965-28.602 5.38-43.018 7.361-2.164.297 1.772-.23-.395.051q-1.441.188-2.884.373-2.68.34-5.36.661a729 729 0 0 1-10.735 1.2 786 786 0 0 1-21.94 1.975c-28.945 2.206-58.002 2.992-87.026 2.925-14.621-.034-29.232-.501-43.849-.622s-29.207-.299-43.8-.81q-5.414-.19-10.826-.389c-4.904-.18-9.591 4.438-9.37 9.37.238 5.311 4.119 9.076 9.37 9.37Zm-81.679 194.219c70.177 11.908 148.591 12.212 219.394 4.888-49.506 31.816-109.148 59.741-162.031 85.558-3.348 1.635-6.726 3.28-10.338 4.194-3.898.986-7.96 1.091-11.98 1.09a238.7 238.7 0 0 1-74.506-11.98 800 800 0 0 0 34.792-71.29"/><path d="M129.244 806.971c1.757.297 3.527.545 5.279.871 1.729.322 3.432 1.02 5.11 1.545l-2.139-.903c3.59 1.732 7.877 2.045 11.794 2.697q4.879.81 9.769 1.548c7.466 1.127 14.968 1.995 22.478 2.775 13.687 1.423 27.41 2.495 41.16 3.063 27.635 1.143 55.326.925 82.946-.502q11.401-.59 22.784-1.458c7.468-.57 14.918-1.354 22.395-1.766l-5.501-20.311c-2.667 1.337-5.163 3.185-7.711 4.743s-5.083 3.083-7.639 4.6a789 789 0 0 1-15.844 9.149 1448 1448 0 0 1-32.486 17.757c-21.929 11.607-44.175 22.602-66.468 33.489-6.105 2.982-12.231 5.923-18.35 8.876-6.099 2.943-12.135 6.152-18.373 8.789l2.697-1.138c-2.773 1.147-5.589 2.02-8.563 2.453l3.036-.408c-6.644.874-13.551.374-20.216-.037-6.797-.42-13.582-1.019-20.333-1.924l3.139.422c-14.646-1.994-29.041-5.356-43.089-9.945l7.095 17.439a803 803 0 0 0 27.595-55.234 885 885 0 0 0 7.08-16.125 8.73 8.73 0 0 0 1.393-4.363 8.9 8.9 0 0 0-.21-4.68c-.75-2.722-2.854-5.672-5.393-7.014-2.724-1.439-6.023-2.16-9.043-1.183-2.698.873-5.844 2.662-7.014 5.393-8.103 18.916-16.993 37.503-26.556 55.723a813 813 0 0 1-8.354 15.499c-1.86 3.365-2.084 7.045-.598 10.566 1.473 3.491 4.106 5.688 7.693 6.874 19.058 6.298 38.984 10.023 58.983 11.576 4.741.368 9.497.513 14.251.534 5.66.025 11.258-.144 16.85-1.127 5.272-.927 10.183-3.364 14.954-5.702 4.014-1.967 8.025-3.938 12.04-5.902 16.389-8.018 32.825-15.941 49.174-24.039 16.551-8.199 33.018-16.574 49.275-25.342 15.956-8.605 31.61-17.773 46.881-27.545 2.508-1.605 4.985-3.186 7.311-5.054l1.704-2.206a8.1 8.1 0 0 0 1.293-4.052c.312-2.323.015-4.92-1.293-6.95a13 13 0 0 0-3.91-3.91c-2.586-1.667-5.525-1.534-8.399-1.099q-2.284.346-4.569.681l2.838-.381c-12.981 1.496-26.075 2.352-39.118 3.11a921 921 0 0 1-39.978 1.457c-26.772.391-53.6-.4-80.305-2.342-14.634-1.064-29.282-2.416-43.852-4.156l2.417.325q-1.437-.217-2.88-.394-1.424.174-2.843.388l2.38-.32c-1.682.002-3.402.092-5.078-.048l2.183.293a680 680 0 0 1-5.509-.908c-2.235-.378-4.302-.357-6.327.828-1.703.997-3.327 2.949-3.773 4.907-.479 2.102-.375 4.461.828 6.327 1.091 1.693 2.836 3.423 4.907 3.773Zm357.151-558.885c-1.342-4.351-2.403-8.776-3.039-13.287l.389 2.895c-.702-5.238-.919-10.568-.239-15.818l-.406 3.021a42 42 0 0 1 2.725-10.123l-1.169 2.769c1.25-2.961 2.84-5.744 4.806-8.289l-1.845 2.388a32 32 0 0 1 5.383-5.374l-2.422 1.871c2.473-1.878 5.221-3.289 8.068-4.508l-2.896 1.222c6.181-2.594 12.702-4.36 18.645-7.523 6.356-3.383 11.753-8.71 15.426-14.886 7.413-12.46 7.506-28.231.202-40.752-1.876-3.216-4.265-6.355-7.162-8.725-1.841-1.506-3.712-3.046-5.865-4.084-2.099-1.011-4.265-1.934-6.492-2.629-2.587-.807-6.289-.354-8.578 1.122-2.068 1.333-3.595 3.047-4.555 5.324-.934 2.212-1.321 4.9-.561 7.249l1.122 2.659a11.2 11.2 0 0 0 3.994 3.994q.453.326.898.665l-2.289-1.769c2.658 2.086 5.1 4.667 7.176 7.329l-1.941-2.512c1.802 2.374 3.399 4.839 4.573 7.587l-1.254-2.971a28.8 28.8 0 0 1 1.928 7.122l-.443-3.296a28 28 0 0 1-.013 6.781l.442-3.286a30 30 0 0 1-1.972 7.315l1.242-2.943a30.5 30.5 0 0 1-3.806 6.557l1.92-2.485a29 29 0 0 1-4.795 4.845l2.477-1.914c-2.471 1.908-5.225 3.336-8.088 4.558l2.912-1.229c-5.666 2.376-11.633 4.105-17.089 6.97-6.027 3.165-10.802 7.93-14.721 13.415-3.268 4.574-5.578 10.076-6.905 15.522-1.487 6.105-1.949 12.553-1.292 18.802.798 7.588 2.827 14.835 5.739 21.872 1.067 2.578 2.204 4.659 4.711 6.127 2.197 1.286 5.436 1.831 7.899 1.033 5.154-1.668 8.852-7.122 7.16-12.611m-119.121-71.821 1.736 1.726c.139.138.273.294.428.414.8.621 1.574 1.277 2.432 1.817.795.5 1.413.855 2.534 1.114l.058.008 2.567.345.117-.001.446-.005a6.85 6.85 0 0 0 3.503-.783 6.8 6.8 0 0 0 2.926-1.88l1.422-1.84a9.05 9.05 0 0 0 1.241-4.589l.002-.42v-.117a4.8 4.8 0 0 0-.172-1.307 60 60 0 0 0-.181-1.341l-.978-2.317-.034-.054-.086-.135c-.331-.52-.667-.944-1.064-1.458-.343-.444-.587-.827-.954-1.191l-.235-.233-1.736-1.726a7.4 7.4 0 0 0-3.18-2.043 7.44 7.44 0 0 0-3.807-.851 7.44 7.44 0 0 0-3.807.851 7.4 7.4 0 0 0-3.18 2.043l-1.545 2a9.84 9.84 0 0 0-1.349 4.987l.353 2.627a9.86 9.86 0 0 0 2.541 4.36Zm44.35-64.637-1.513.537-2.194.926a6.95 6.95 0 0 0-2.577 2.366 4.6 4.6 0 0 0-1.181 2.026 6.9 6.9 0 0 0-.791 3.539l.328 2.442.926 2.194a6.95 6.95 0 0 0 2.366 2.577 6.9 6.9 0 0 0 3.123 1.644l1.513.537a9.8 9.8 0 0 0 5.179 0 9.73 9.73 0 0 0 4.298-2.505l1.523-1.972a9.7 9.7 0 0 0 1.33-4.917 7.33 7.33 0 0 0-.839-3.753 7.3 7.3 0 0 0-2.014-3.135 9.73 9.73 0 0 0-4.298-2.505 9.8 9.8 0 0 0-5.179 0Zm12.554 65.17c4.853 0 9.502-4.267 9.277-9.277s-4.076-9.277-9.277-9.277c-4.853 0-9.502 4.267-9.277 9.277s4.076 9.277 9.277 9.277m106.337-156.2c-1.455 3.069-2.703 6.177-3.43 9.5a86 86 0 0 0-1.622 10.57c-.631 6.958.962 14.223 4.134 20.415 5.909 11.535 18.402 16.363 30.268 19.175 5.453 1.292 10.985 2.416 16.177 4.58l-3.003-1.267c3.015 1.291 5.815 2.988 8.417 4.981l-2.575-1.99a41.5 41.5 0 0 1 7.146 7.161l-2-2.588a44.3 44.3 0 0 1 5.64 9.651l-1.296-3.071a43.4 43.4 0 0 1 2.952 10.762l-.462-3.436c.34 2.618.54 5.274.443 7.915-.096 2.603-.039 5.224-.23 7.821l.416 3.095a8.76 8.76 0 0 0 2.084 3.959c1.486 1.924 3.61 3.617 6.048 4.172 4.914 1.119 10.652-.686 13.149-5.351 1.111-2.076 2.163-4.305 2.902-6.524.764-2.295.993-4.786 1.214-7.173.372-4.015-.076-7.873-.712-11.853a42 42 0 0 0-2.237-8.335c-1.38-3.621-2.938-7.221-4.991-10.519-4.161-6.684-9.535-12.214-16.015-16.656-5.652-3.875-12.445-6.06-19.094-7.488-6.686-1.436-13.588-2.283-19.95-4.913l2.869 1.211c-2.168-.922-4.22-2.051-6.092-3.486l2.404 1.857a25.3 25.3 0 0 1-4.21-4.199l1.825 2.362a23.2 23.2 0 0 1-2.803-4.827l1.15 2.725c-1.012-2.444-1.633-4.998-1.987-7.616l.394 2.934c-.399-3.187-.629-6.381-.592-9.594s.18-6.359-.08-9.558c-.161-1.986-.632-3.678-1.872-5.284-1.113-1.441-2.704-2.709-4.53-3.125a10.4 10.4 0 0 0-4.637 0c-1.904.434-4.36 2.211-5.212 4.008ZM740.913 544.17a52.6 52.6 0 0 1 5.782-5.186l-2.234 1.726c3.645-2.777 7.625-5.052 11.839-6.845l-2.831 1.195c1.383-.572 2.756-1.167 4.133-1.754l-2.845 1.201a59.4 59.4 0 0 1 14.956-4.054l-3.306.444c5.371-.697 10.805-.788 16.179-.083l-3.394-.456a53.6 53.6 0 0 1 13.22 3.558l-3.102-1.309c6.651 2.808 12.452 7.186 18.896 10.391 3.964 1.971 8.204 3.902 12.59 4.717 5.592 1.039 11.237 1.22 16.742-.494 5.188-1.615 9.729-4.545 14.692-6.649l-3.179 1.341c1.657-.673 3.357-1.156 5.13-1.402l-3.539.476c1.795-.207 3.694-.3 5.493-.107l-3.402-.457c1.045.152 2.077.435 3.064.808l3.194.429 3.194-.429c2.529-.696 4.657-2.255 6.241-4.305 1.334-1.727 2.075-3.522 2.365-5.683.339-2.526.04-5.472-1.426-7.661-1.732-2.587-3.465-4.302-6.016-6.078-1.631-1.136-3.63-1.915-5.484-2.51-1.438-.462-3.1-.555-4.595-.674a14 14 0 0 0-1.683-.039 34 34 0 0 0-6.361.904c-5.625 1.341-10.471 4.676-15.725 6.927l3.176-1.34c-1.687.695-3.402 1.222-5.207 1.502l3.533-.475a21.5 21.5 0 0 1-5.733-.019l3.531.474c-2.575-.388-5.041-1.171-7.441-2.168l3.171 1.338c-6.428-2.737-12.226-6.726-18.531-9.713-3.606-1.708-7.345-3.251-11.197-4.32-3.876-1.075-7.875-1.639-11.867-2.075-6.953-.758-14.056-.139-20.87 1.367a58.6 58.6 0 0 0-8.785 2.681c-3.638 1.431-7.274 2.961-10.609 5.017-3.557 2.192-6.942 4.764-10.048 7.554-3.145 2.825-5.778 6.048-8.32 9.417-1.48 1.961-1.797 5.892-1.066 8.15.722 2.23 1.928 4.055 3.79 5.494 4.06 3.137 10.215 2.999 13.887-.827Zm32.012 58.788c2.64 0 5.414-1.149 7.282-3.016 1.786-1.786 3.131-4.716 3.016-7.282-.25-5.579-4.525-10.298-10.298-10.298-2.64 0-5.414 1.149-7.282 3.016-1.786 1.786-3.131 4.716-3.016 7.282.25 5.579 4.525 10.298 10.298 10.298m81.374 17.896c5.192 0 10.167-4.566 9.927-9.927S859.864 601 854.299 601c-5.192 0-10.167 4.566-9.927 9.927s4.362 9.927 9.927 9.927M688.268 461.457c-.62-8.169-.32-16.281.734-24.407l-.39 2.902c.683-5.013 1.867-9.944 3.805-14.625l-1.154 2.736a49.7 49.7 0 0 1 6.194-10.705l-1.846 2.39c1.9-2.452 4.053-4.672 6.488-6.597l-2.421 1.87a32.5 32.5 0 0 1 6.988-4.139l-2.889 1.219c4.678-1.945 9.669-2.688 14.658-3.362l-3.268.439c5.217-.695 10.499-1.189 15.636-2.37a43.7 43.7 0 0 0 12.4-4.98c4.599-2.74 8.248-6.236 11.355-10.552 1.475-2.048 2.508-4.501 3.318-6.863 1.144-3.335.746-7.223-.153-10.549-1.248-4.617-6.001-8.53-10.914-8.309-2.009.09-3.934.606-5.713 1.545-2.614 1.381-4.265 4.083-5.201 6.764q-.166.477-.356.946l1.172-2.776c-.975 2.251-1.954 4.498-2.901 6.763l1.239-2.936a17.6 17.6 0 0 1-2.017 3.411l1.922-2.488c-1.128 1.449-2.433 2.716-3.873 3.852l2.488-1.922c-2.08 1.594-4.357 2.869-6.769 3.888l2.936-1.239c-4.28 1.753-8.835 2.477-13.395 3.09l3.268-.439c-6.78.899-13.768 1.441-20.214 3.902-6.505 2.483-12.346 6.017-17.169 11.108-2.306 2.435-4.386 5.151-6.214 7.96-1.86 2.858-3.185 5.952-4.484 9.096-2.459 5.952-3.567 12.258-4.176 18.649-.746 7.834.335 15.471 1.4 23.224l-.348-2.588c.317 2.884.705 5.759 1.094 8.634.285 2.102 2.586 4.757 4.391 5.711 1.93 1.02 3.92 1.426 6.093 1.134 4.389-.59 8.646-4.631 8.286-9.385Zm-198.96 22.418a74.4 74.4 0 0 1 5.002-18.004l-.994 2.354a77 77 0 0 1 9.797-16.826l-1.575 2.039a78 78 0 0 1 6.846-7.735c2.439-2.41 4.927-4.819 7.528-7.054 1.741-1.495 2.968-4.665 2.867-6.921-.099-2.21-.742-4.171-2.102-5.93-2.835-3.669-8.524-5.215-12.626-2.521-3.879 2.547-7.528 5.378-10.74 8.733-3.243 3.386-6.172 7.116-8.839 10.968-4.874 7.039-8.597 14.995-11.102 23.174-1.519 4.959-2.384 10.016-3.013 15.158-.267 2.186 1.252 5.378 2.826 6.822 1.594 1.463 3.386 2.364 5.54 2.654 2.057.276 4.355.014 6.152-1.145 1.959-1.263 4.084-3.348 4.434-5.766Zm62.625 40.646c4.683-.473 9.315-1.19 13.961-1.93 1.998-.318 3.996-.609 5.974-1.037s3.863-1.127 5.776-1.756c4.174-1.372 6.875-5.189 6.28-9.619-.555-4.127-4.232-7.793-8.611-7.602-2.702.118-5.328.273-8.012.665-2.001.292-3.972.706-5.952 1.115-3.953.816-7.883 1.626-11.784 2.669-4.293 1.147-6.958 5.466-6.38 9.772.251 1.869 1.019 3.8 2.45 5.114 1.639 1.505 3.986 2.842 6.298 2.609M445.767 421.06c4.926 0 9.644-4.331 9.417-9.417s-4.137-9.417-9.417-9.417c-4.926 0-9.644 4.331-9.417 9.417s4.137 9.417 9.417 9.417m75.762-45.042c6.199-2.749 11.729-6.538 17.015-10.754 5.372-4.284 10.081-9.356 14.109-14.915 7.746-10.689 13.09-23.071 16.718-35.717a148 148 0 0 0 2.534-10.204c.565-2.67.892-5.375 1.147-8.091.078-.838.112-1.677.082-2.519-.076-2.158-.589-4.417-1.754-6.254-.204-.322-.409-.631-.595-.965-3.288-5.897-11.639-6.717-16.319-2.103-.208.205-.413.407-.634.599l2.24-1.73c-1.778 1.335-3.441 2.384-4.522 4.43-.568 1.076-1.017 2.293-1.398 3.453-.266.809-.478 1.62-.687 2.445a88 88 0 0 0-1.032 4.645c-.63 3.2-1.359 6.38-2.197 9.532-1.688 6.349-3.856 12.56-6.397 18.617l1.19-2.82c-3.488 8.239-8.014 16.144-13.485 23.232l1.686-2.182c-3.331 4.273-7.081 8.205-11.368 11.528l1.985-1.533a65 65 0 0 1-7.775 5.125c-4.279 2.398-6.07 8.62-3.362 12.82 1.29 2.001 3.211 3.762 5.6 4.306l2.491.335a9.33 9.33 0 0 0 4.729-1.279Zm104.955-6.208 2.379-5.152c.685-1.483 1.481-2.953 1.832-4.554l.609-2.777.293-2.183a6.2 6.2 0 0 0-.707-3.163 4.1 4.1 0 0 0-1.056-1.812 6.2 6.2 0 0 0-2.304-2.115l-1.961-.828-2.183-.293a6.2 6.2 0 0 0-3.163.707 6.15 6.15 0 0 0-2.642 1.698l-1.646 2.066c-.716.899-1.54 1.744-2.074 2.763-.23.439-.439.892-.658 1.337l-2.5 5.081a6.8 6.8 0 0 0-1.084 3.398 6.9 6.9 0 0 0 .163 3.644 6.9 6.9 0 0 0 1.636 3.108 6.9 6.9 0 0 0 2.564 2.354c2.121 1.121 4.69 1.682 7.042.921l2.183-.921a9.2 9.2 0 0 0 3.278-3.278Zm16.906-70.807c2.629 0 5.39-1.144 7.249-3.003 1.778-1.778 3.117-4.695 3.003-7.249-.249-5.554-4.504-10.251-10.251-10.251-2.629 0-5.39 1.144-7.249 3.003-1.778 1.778-3.117 4.695-3.003 7.249.249 5.554 4.504 10.251 10.251 10.251m49.821 44.654c5.265 0 10.309-4.63 10.066-10.066s-4.423-10.066-10.066-10.066c-5.265 0-10.309 4.63-10.066 10.066s4.423 10.066 10.066 10.066m26.137-48.631.887-1.741.207-.406.118-.232c.865-1.709 1.305-2.871 1.296-4.822-.006-1.203-.225-2.077-.509-3.119a6.5 6.5 0 0 0-1.553-2.95 6.56 6.56 0 0 0-2.434-2.234l-2.072-.874a8.74 8.74 0 0 0-4.612 0c-.923.354-2.009.701-2.796 1.157-1.475.856-2.763 2.137-3.54 3.662l-.207.406-.887 1.741a6.94 6.94 0 0 0-1.106 3.467 7.05 7.05 0 0 0 .167 3.718 7 7 0 0 0 1.669 3.171 7.04 7.04 0 0 0 2.616 2.401l2.227.94a9.4 9.4 0 0 0 4.957 0l2.227-.94a9.4 9.4 0 0 0 3.345-3.345m-39.183-85.636a18.5 18.5 0 0 1-1.085-4.204l.354 2.636c-.201-1.724-.151-3.41.049-5.131l-.36 2.678a24.5 24.5 0 0 1 1.57-5.374l-1.044 2.475a26.3 26.3 0 0 1 3.275-5.518l-1.672 2.164c1.685-2.126 3.632-3.99 5.767-5.658l-2.248 1.737c4.328-3.309 9.307-5.895 14.304-8.033l-2.782 1.174c6.449-2.717 13.224-4.539 20.156-5.487l-3.186.428c7.495-.985 15.071-1.063 22.568-.062l-3.224-.433c6.653.925 13.156 2.667 19.36 5.246l-2.915-1.23c4.081 1.724 7.999 3.812 11.526 6.507l-2.48-1.916c2.124 1.657 4.059 3.514 5.726 5.634l-1.92-2.486c1.28 1.675 2.382 3.472 3.208 5.415l-1.24-2.939a22 22 0 0 1 1.382 5.175l-.44-3.276a23.4 23.4 0 0 1 .012 5.682l.44-3.274a19.5 19.5 0 0 1-1.249 4.752l1.236-2.929a16.6 16.6 0 0 1-2.105 3.608l1.91-2.472a15.3 15.3 0 0 1-2.281 2.287l2.465-1.904a15.2 15.2 0 0 1-3.141 1.866l2.9-1.224a15 15 0 0 1-3.707 1.009l3.216-.432a17.2 17.2 0 0 1-4.162-.023l3.203.43c-1.882-.267-3.689-.802-5.439-1.541l2.863 1.208c-2.147-.942-4.137-2.157-5.992-3.588l2.41 1.862a32 32 0 0 1-5.278-5.272l1.849 2.393c-1.778-2.305-3.136-4.839-4.283-7.51l1.189 2.817a45.6 45.6 0 0 1-3.106-11.416l.422 3.14a45.2 45.2 0 0 1 .034-11.654l-.423 3.145c.627-4.425 1.877-8.707 3.587-12.832l-1.195 2.832c3.169-7.502 7.723-14.306 12.675-20.738l-1.857 2.403c3.445-4.453 7.067-8.774 10.751-13.03 3.508-4.052 7.187-7.989 11.437-11.277l-2.403 1.857c2.421-1.841 5.001-3.434 7.807-4.619l-2.837 1.197c2.555-1.04 5.132-1.966 7.67-3.055l-2.743 1.158a31 31 0 0 1 1.785-.67c5.264-1.789 8.7-6.519 7.941-12.164-.313-2.326-1.268-4.731-3.049-6.366-2.277-2.09-4.763-2.967-7.839-3.247-6.951-.632-13.907 2.371-19.487 6.345-5.015 3.571-9.438 7.689-13.523 12.278a297 297 0 0 0-10.624 12.657c-4.04 5.083-8.017 10.263-11.358 15.841-6.587 10.995-11.117 23.907-10.278 36.879.505 7.802 2.433 14.98 5.786 22.023 2.488 5.225 6.129 10.19 10.648 13.838 2.563 2.069 5.174 4.098 8.185 5.473 1.752.8 3.544 1.6 5.387 2.186 2.081.662 4.242.905 6.407 1.162 3.056.363 6.294.028 9.253-.775 4.065-1.104 7.394-3.183 10.592-5.844 2.359-1.963 4.383-4.654 5.711-7.422 1.958-4.08 2.846-7.546 3.323-12.028.675-6.334-1.169-13.14-4.296-18.625-6.722-11.792-19.433-18.606-31.909-22.694-6.229-2.041-12.669-3.148-19.177-3.849-5.606-.604-11.346-.674-16.951-.016-6.573.772-13.035 1.913-19.318 4.028-6.058 2.039-12.056 4.643-17.531 7.961-11.891 7.206-21.626 19.872-21.075 34.333.164 4.306 1.203 7.982 2.983 11.862.924 2.013 3.74 4.018 5.849 4.498 2.189.498 4.295.384 6.373-.493 1.88-.793 3.7-2.149 4.68-4.005 1.158-2.192 1.925-5.129.987-7.542Zm149.289 114.547.818-.437.409-.218.234-.125c.464-.248.629-.444 1.199-.884.49-.378.898-.675 1.325-1.068l.325-.299.672-.618 1.501-1.943a7.13 7.13 0 0 0 1.139-3.57 4.83 4.83 0 0 0 0-2.553 7.15 7.15 0 0 0-1.139-3.57l-1.501-1.943-1.943-1.501a7.13 7.13 0 0 0-3.57-1.139 7.3 7.3 0 0 0-3.829.171l-.897.171-.449.085-.256.049c-.533.101-.648.229-1.4.546-.685.289-1.351.577-2.019.892l-.871.411a7.7 7.7 0 0 0-2.85 2.616 7.65 7.65 0 0 0-1.818 3.455 7.7 7.7 0 0 0-.181 4.051 7.55 7.55 0 0 0 1.206 3.777l1.588 2.056a10.16 10.16 0 0 0 4.483 2.613l2.701.363a10.1 10.1 0 0 0 5.127-1.387Zm-13.458 97.638c2.97 3.805 7.255 6.18 11.675 7.887 3.728 1.439 7.959 1.963 11.937 1.913 9.403-.119 17.893-3.703 26.1-7.98a217 217 0 0 0 5.994-3.257c2.027-1.139 3.904-2.532 5.942-3.664 4.469-2.482 6.122-8.234 4.194-12.802-.831-1.969-2.251-3.875-4.194-4.902-2.53-1.337-5.083-1.613-7.899-1.033-4.844.997-9.414 2.747-13.797 5.034-3.63 1.894-7.264 3.821-11.027 5.44l2.696-1.138c-2.898 1.218-5.861 2.134-8.978 2.577l2.928-.393c-2.463.321-4.936.365-7.401.041l2.871.386c-1.702-.249-3.349-.667-4.946-1.307l2.545 1.074a17.6 17.6 0 0 1-3.78-2.165l2.13 1.646a17 17 0 0 1-2.228-2.116c-1.695-1.932-4.88-3.057-7.38-3.057-2.56 0-5.618 1.137-7.38 3.057-1.826 1.989-3.181 4.6-3.057 7.38l.373 2.775a10.44 10.44 0 0 0 2.684 4.606Zm111.832-49.34-2.019-4.883a7.87 7.87 0 0 0-1.868-3.549 7.9 7.9 0 0 0-2.928-2.688 7.76 7.76 0 0 0-3.88-1.239 7.9 7.9 0 0 0-4.162.186l-2.493 1.052a10.5 10.5 0 0 0-3.744 3.744l-1.052 2.493a10.5 10.5 0 0 0 0 5.549l1.303 5.081a8.14 8.14 0 0 0 1.935 3.676 8.2 8.2 0 0 0 3.032 2.784 8.05 8.05 0 0 0 4.018 1.283 8.2 8.2 0 0 0 4.31-.193l2.582-1.09a10.86 10.86 0 0 0 3.877-3.877l1.09-2.582a10.9 10.9 0 0 0 0-5.746Zm-58.582-95.786c2.807 0 5.756-1.221 7.741-3.206 1.899-1.899 3.329-5.014 3.206-7.741-.266-5.931-4.81-10.947-10.947-10.947-2.807 0-5.756 1.221-7.741 3.206-1.899 1.899-3.329 5.014-3.206 7.741.266 5.931 4.81 10.947 10.947 10.947m44.838-35.802c5.241 0 10.262-4.609 10.02-10.02s-4.402-10.02-10.02-10.02c-5.241 0-10.262 4.609-10.02 10.02s4.402 10.02 10.02 10.02m54.804 82.766c2.926 0 6-1.273 8.069-3.342 1.979-1.979 3.47-5.226 3.342-8.069-.132-2.951-1.102-6.012-3.342-8.069s-4.977-3.342-8.069-3.342c-2.926 0-6 1.273-8.069 3.342-1.979 1.979-3.47 5.226-3.342 8.069.132 2.951 1.102 6.012 3.342 8.069s4.977 3.342 8.069 3.342"/></svg>