<?xml version="1.0" encoding="UTF-8"?><svg xmlns="http://www.w3.org/2000/svg" data-name="ARTWORK" viewBox="0 0 1000 1000"><path d="M545.371 855.515c-69.926 17.65-142.144 22.959-213.995 17.115-35.458-2.884-70.444-8.76-105.165-17.338-7.308-1.806-14.583-3.75-21.772-5.989a249 249 0 0 1-9.886-3.298 212 212 0 0 1-7.3-2.758c-.02-.008-3.757-1.572-1.69-.681-6.663-2.871-13.158-6.162-19.328-9.985a116 116 0 0 1-8.343-5.68c1.639 1.225-.056-.043-.323-.262-.645-.53-1.294-1.056-1.93-1.597a97 97 0 0 1-4.635-4.2c-2.41-2.332-4.625-4.822-6.801-7.37-1.666-1.951-.622-.774-.277-.313a79 79 0 0 1-1.489-2.054 85 85 0 0 1-3.558-5.531c-4.061-6.874-5.594-10.751-7.664-18.939a92 92 0 0 1-1.151-5.196c-.149-.775-.823-5.271-.554-3.082a102 102 0 0 1-.733-12.056c-.013-3.605.157-7.213.497-10.802q.129-1.35.286-2.698c-.24 2.06.025-.204.076-.526.357-2.239.752-4.47 1.221-6.689 3.379-15.991 8.502-27.331 17.325-41.245 4.48-7.065 8.256-12.128 13.046-17.838 5.193-6.191 10.724-12.093 16.468-17.774 11.344-11.22 23.513-21.605 35.961-31.573a591 591 0 0 1 4.304-3.414q1.08-.847 2.162-1.691c.153-.12 1.959-1.509.582-.451a602 602 0 0 1 9.856-7.41 626 626 0 0 1 18.97-13.428c25.551-17.387 52.379-32.878 80.094-46.546 28.111-13.864 53.438-24.323 83.251-34.706 29.509-10.277 59.595-18.869 90.018-25.983 30.644-7.165 61.64-12.868 92.809-17.202 3.623-.504 4.267-.591 8.904-1.184a1182 1182 0 0 1 35.973-4.035 1269 1269 0 0 1 47.166-3.674c31.728-1.884 63.558-2.734 95.342-2.326 16.905.217 33.83.945 50.623 2.983 3.158.383 6.17.824 10.554 1.573q6.28 1.073 12.494 2.48c8.256 1.868 16.418 4.174 24.39 7.024 7.519 2.688 12.761 4.926 20.28 9.017 6.321 3.44 12.405 7.355 18.121 11.73-1.867-1.429 1.528 1.261 2.177 1.802a140 140 0 0 1 4.328 3.765c2.671 2.42 5.264 4.934 7.75 7.545s4.847 5.296 7.103 8.088c.225.279 1.836 2.364.859 1.071s.59.819.8 1.109a121 121 0 0 1 3.22 4.639 116 116 0 0 1 5.428 9.103 109 109 0 0 1 3.282 6.667c.45 1 1.008 2.516.292.654 2.519 6.549 4.4 13.159 5.66 20.062.489 2.68.099.521.032-.036a88 88 0 0 1 .598 7.383 87 87 0 0 1-.31 11.385 93 93 0 0 1-.282 2.635c.302-2.478.017-.23-.068.233-.316 1.719-.62 3.435-1.001 5.142a99 99 0 0 1-3.241 11.255 103 103 0 0 1-1.851 4.864c.867-2.11-.878 1.888-1.249 2.664a126 126 0 0 1-5.599 10.409 147 147 0 0 1-5.787 8.905 166 166 0 0 1-3.552 4.867c-1.369 1.807 1.102-1.374-.319.401-.703.878-1.406 1.756-2.121 2.625-9.818 11.915-21.007 22.645-32.703 32.695-24.637 21.17-49.504 39.434-77.422 57.519s-56.746 34.182-86.648 48.435c-29.549 14.085-58.803 25.356-90.381 36.254-15.177 5.238-30.383 10.685-45.942 14.693-5.971 1.538-9.587 8.169-7.973 14.042 1.661 6.044 8.052 9.516 14.042 7.973 16.516-4.254 33.113-8.007 49.426-13.04 16.508-5.093 32.725-11.163 48.745-17.62 32.466-13.086 64-28.2 94.559-45.266 29.749-16.613 58.396-35.232 85.688-55.631 27.125-20.275 53.741-41.59 74.443-68.634 20.293-26.51 31.245-58.757 25.566-92.132-5.173-30.405-24.705-58.057-48.699-76.774-56.396-43.991-132.716-42.762-200.74-41.053-65.797 1.653-131.589 7.919-196.325 19.927-64.19 11.907-127.065 30.023-187.193 55.533-59.577 25.276-115.579 58.44-165.571 99.605-26.061 21.459-51.303 45.456-67.902 75.224-16.459 29.516-23.764 65.66-13.869 98.602 9.556 31.815 34.718 54.043 64.481 66.96 31.481 13.663 65.991 20.5 99.777 25.594 75.428 11.373 151.59 9.739 226.609-3.967 17.772-3.247 35.397-7.246 52.845-11.929 12.015-3.225 6.943-21.691-5.139-18.642Z"/><path d="M207.492 631.064c40.951 13.096 83.799 20.415 126.683 23.292 42.156 2.828 84.512 1.461 126.413-3.938 42.739-5.508 84.901-15.055 125.818-28.59 40.955-13.548 80.757-30.924 118.417-51.969 37.503-20.957 72.988-45.625 105.365-73.879a629 629 0 0 0 11.586-10.374c4.732-4.341 4.729-12.974 0-17.315-5.126-4.706-12.191-4.55-17.315 0a621 621 0 0 1-24.15 20.379 620 620 0 0 1-5.918 4.679l-1.488 1.158c-1.406 1.098 1.728-1.321.311-.241-.802.611-1.598 1.229-2.396 1.845q-1.012.779-2.02 1.564l1.062-.82c-4.019 3.455-8.526 6.483-12.804 9.609a635 635 0 0 1-51.891 34.134 655 655 0 0 1-55.803 29.388 662 662 0 0 1-14.161 6.408c-2.301 1.009-4.612 1.995-6.92 2.987-1.65.709 2.061-.86.403-.169l-1.739.727a671 671 0 0 1-32.966 12.727 676.5 676.5 0 0 1-121.808 30.961 857 857 0 0 1-15.375 2.297c-.621.086-1.244.182-1.866.256 2.968-.353 1.161-.155.516-.071q-1.87.244-3.742.481-3.976.5-7.959.953a669 669 0 0 1-31.452 2.825c-20.836 1.376-41.727 1.87-62.602 1.325s-41.665-1.921-62.364-4.34a625 625 0 0 1-7.46-.918l-1.863-.243c.414.054 2.154.296.052.007a628 628 0 0 1-19.582-2.994c-10.403-1.76-20.767-3.69-31.148-5.558a488 488 0 0 1-15.308-3.003c-4.494-.957-9.206 1.33-10.475 5.947s1.551 9.069 5.947 10.475Z"/><path d="M124.443 796.632c-17.403-57.518-34.225-115.268-49.498-173.39-7.695-29.283-15.046-58.656-22.145-88.089a5562 5562 0 0 1-10.408-43.948c-1.629-7.002-3.279-14.001-4.851-21.016-1.058-4.723-1.188-8.006.584-12.922 1.232-3.416-.975 1.527.783-1.631a42 42 0 0 1 1.234-2.089c.558-.882 1.746-2.35 3.639-4.027 2.126-1.883 6.753-3.921 9.616-4.113 13.973-.938 27.76-1.455 41.579-4.056 26.138-4.92 51.106-16.407 69.729-35.721 36.622-37.981 44.733-93.216 45.443-143.756.207-14.735-.677-29.574-.057-44.291.135-3.205.965-5.99 2.838-9.056 1.698-2.778 3.395-4.559 7.158-6.651.284-.158 3.418-1.588.978-.604a29 29 0 0 1 3.004-1.012c1.023-.288 2.055-.505 3.098-.706-2.716.525.619-.004 1.065-.02 4.379-.157 6.659.42 9.902 2.23 5.565 3.107 10.455 7.634 15.543 11.448 6.289 4.715 12.663 9.322 19.225 13.65 23.455 15.47 50.426 27.316 78.859 28.372 13.034.484 26.061-1.481 37.908-7.016 10.226-4.777 19.287-12.314 27.205-20.262 15.913-15.973 28.7-35.213 39.649-54.837a194 194 0 0 0 8.869-18.086c1.535-3.582 3.026-7.182 4.41-10.825a311 311 0 0 0 1.787-4.862q.474-1.385.987-2.754-.63 1.52.255-.374c.539-1.008 1.145-1.955 1.734-2.932 1.633-2.71-1.35 1.091.865-1.095.768-.758 1.541-1.528 2.302-2.293 2.2-2.214-1.677.817.982-.769.912-.544 1.785-1.13 2.726-1.628.346-.183 3.434-1.341 1.019-.521.998-.339 1.985-.671 3.008-.928a31 31 0 0 1 2.051-.442q-2.137.228-.033.018c1.054-.041 2.093-.114 3.149-.092.405.008 3.834.366 1.034-.054 2.107.316 4.185.885 6.175 1.642-2.414-.919.807.475 1.081.627a31 31 0 0 1 2.82 1.772c-1.949-1.374.95.883 1.092 1.018 1.271 1.208 2.383 2.54 3.526 3.866 9.149 10.619 18.817 20.715 29.489 29.823 19.111 16.311 37.946 34.101 59.783 46.751 10.133 5.869 21.267 10.718 32.887 12.582 13.554 2.174 27.432.639 40.554-3.282 13.763-4.112 26.465-10.847 37.667-19.801 3.816-3.05 5.634-4.218 10.629-5.625 3.194-.9-1.654-.195 1.646-.241a143 143 0 0 1 3.649 0c3.315.037-1.58-.654 1.618.231 1.569.434 3.164.761 4.67 1.404-2.01-.858 1.567.938 1.56.935-.074-.044 3.223 2.231 1.656.997 1.997 1.572 3.347 3.199 4.259 4.311 4.215 5.142 8.152 10.365 12.815 15.13 8.542 8.73 18.313 16.439 28.736 22.8 20.911 12.762 45.086 20.371 69.591 21.345 11.772.468 23.671-.855 35.116-3.612l-15.214-8.638c11.185 81.853 33.404 161.94 63.663 238.772 8.654 21.973 18.055 43.604 27.574 65.212 2.576 5.847 11.119 7.207 16.185 4.244 6.029-3.527 6.83-10.315 4.244-16.185-16.146-36.653-30.053-74.525-42.656-112.528-12.934-39.003-24.031-78.692-32.839-118.833-4.884-22.26-9.201-44.679-12.319-67.257-.934-6.766-9.419-10.043-15.214-8.638-21.6 5.236-43.661 3.14-65.373-5.016-9.22-3.463-20.132-9.461-29.119-15.906-8.15-5.845-17.042-14.235-24.033-22.817-3.592-4.41-7.761-9.494-13.35-13.158-4.753-3.115-10.349-5.273-15.956-6.165-13.453-2.14-25.62 1.755-36.112 10.226-9.807 7.918-21.135 13.527-33.35 16.631-5.872 1.492-11.519 2.414-17.594 2.457-5.849.042-9.012-.5-14.945-2.239-21.898-6.42-41.122-23.807-58.713-38.972-9.899-8.534-20.013-16.773-29.227-26.068-8.657-8.733-16.293-20.312-27.308-26.237-20.081-10.802-46.094-4.014-57.777 15.752-3.354 5.675-5.069 12.258-7.487 18.354-2.594 6.539-5.676 12.886-9.069 19.047-5.203 9.448-10.864 18.668-17.029 27.52-6.312 9.062-13.141 17.6-21.418 25.493-4.092 3.902-7.36 6.657-11.419 9.353a70 70 0 0 1-6.967 4.098c-1.073.547-2.162 1.092-3.276 1.55 1.558-.641-1.619.514-2.138.679-23.643 7.539-50.525-1.314-71.578-12.313-13.091-6.839-25.253-15.266-37.089-24.064-5.247-3.9-10.3-8.584-16.097-11.651-5.435-2.875-11.06-4.448-17.16-5.022-23.274-2.19-43.406 16.24-45.939 38.78-.778 6.92-.22 14.091-.173 21.045.053 7.803.096 15.606.018 23.409-.149 14.825-.612 29.745-2.547 44.46-2.819 21.435-9.375 45.056-20.53 64.272-11.654 20.075-28.647 35.733-51.08 43.934-11.963 4.373-24.601 7.018-37.235 8.354-13.381 1.414-27.468 0-39.679 6.59-10.402 5.613-18.483 16.308-20.996 27.863-3.024 13.904 1.943 27.665 5.197 41.094 7.174 29.611 14.572 59.169 22.264 88.65C57.203 643.214 72.89 702.412 92.333 760.15a2341 2341 0 0 0 14.359 41.381c3.937 11.007 21.23 6.593 17.754-4.895Z"/><path d="M379.995 649.153c-40.262 3.325-75.194 27.919-107.754 51.832-13.898 10.207-27.78 20.455-41.03 31.489a443 443 0 0 0-82.993 91.582c-14.92-12.457-20.583-33.448-18.809-52.803s9.97-37.495 18.792-54.814c11.41-22.399 24.182-44.315 40.745-63.225 5.176-5.909 11.4-11.856 19.22-12.6 4.621-.44 9.184 1.023 13.627 2.367 39.666 11.997 81.807 15.745 122.967 10.936"/><path d="M379.995 639.856c-9.967.4-20.119 1.842-29.723 4.574-9.677 2.753-19.063 6.555-28.154 10.844-17.171 8.099-32.882 18.761-48.307 29.752-17.692 12.606-35.34 25.352-52.054 39.243a442 442 0 0 0-42.059 39.903c-13.854 14.986-26.725 30.899-38.257 47.74a283 283 0 0 0-3.919 5.893l19.454-2.507a49 49 0 0 1-7.818-7.936l1.897 2.455c-2.655-3.436-4.91-7.177-6.604-11.177l1.197 2.837c-2.23-5.357-3.684-10.986-4.468-16.731l.424 3.154c-.884-6.741-.808-13.524.067-20.261l-.423 3.152c1.484-10.991 4.91-21.576 9.192-31.774l-1.193 2.828c4.282-10.134 9.309-19.959 14.495-29.656 5.15-9.63 10.625-19.096 16.64-28.214a250 250 0 0 1 10.729-15.052l-1.844 2.387c4.753-6.135 9.691-12.574 15.831-17.396l-2.385 1.843a26.6 26.6 0 0 1 5.431-3.234l-2.838 1.198a20.7 20.7 0 0 1 4.866-1.403l-3.184.428c1.78-.238 3.542-.208 5.322.011l-3.211-.431c4.325.614 8.44 2.191 12.592 3.482s8.298 2.507 12.502 3.556a303 303 0 0 0 25.687 5.239c18.346 2.923 36.839 4.339 55.417 3.942 4.895-.105 9.768-.318 14.638-.828 5.834-.611 11.751-1.188 17.513-2.291l-3.157.424.47-.054a8.93 8.93 0 0 0 4.575-1.023 8.9 8.9 0 0 0 3.822-2.455c2.06-2.06 3.611-5.439 3.478-8.397-.138-3.071-1.146-6.257-3.478-8.397-2.165-1.988-5.339-3.833-8.397-3.478-4.97.577-10.063.664-15.062.805-5.037.142-10.073.355-15.111.421a305 305 0 0 1-30.223-1.111 363 363 0 0 1-16.91-1.838l3.373.453a307 307 0 0 1-29.513-5.472c-4.83-1.145-9.654-2.318-14.441-3.635-5.562-1.53-11.255-3.3-17.092-3.158-11.662.283-21.175 7.382-28.641 15.771-6.833 7.677-13.088 15.925-18.882 24.409-10.752 15.743-19.942 32.607-28.241 49.755-8.916 18.421-16.531 38.098-16.777 58.847-.22 18.523 5.716 37.486 18.113 51.451a47 47 0 0 0 4.107 4.076c3.037 2.669 6.36 3.95 10.405 3.407a9.2 9.2 0 0 0 4.605-1.47 12.44 12.44 0 0 0 4.444-4.444c4.281-6.025 8.627-12.002 13.144-17.853l-1.984 2.568c1.927-2.49 3.832-4.996 5.755-7.489l-1.984 2.568a446 446 0 0 1 29.379-34.298 443 443 0 0 1 32.538-30.977c6.897-5.927 13.989-11.622 21.181-17.186l-2.497 1.93 5.935-4.59-2.492 1.925c11.772-9.09 23.676-18.041 35.75-26.727 11.232-8.08 22.775-15.786 34.774-22.686 6.636-3.816 13.469-7.29 20.519-10.277l-2.572 1.085c11.287-4.747 23.109-8.412 35.263-10.071l-2.482.333.853-.112c2.563-.33 4.671-.819 6.575-2.723 1.613-1.613 2.827-4.258 2.723-6.575-.218-4.871-4.092-9.507-9.298-9.298Zm293.442-66.191c67.711-19.259 141.551-16.292 207.498 8.338 28.589 10.677 56.919 26.418 73.156 52.258 14.864-43.987 6.121-97.569-28.795-128.174-7.457-6.537-15.857-11.9-24.326-17.06-18.142-11.055-38.2-21.641-59.38-19.98-3.496.274-7.026.905-10.147 2.504-3.849 1.972-6.817 5.271-9.767 8.433-27.697 29.679-61.826 53.324-99.344 68.827"/><path d="M675.64 581.655q1.517-.216 3.036-.421l-2.312.311c3.395-.452 6.728-.955 10.081-1.657a338 338 0 0 1 8.215-1.61l-2.57.345c7.556-1.002 15.031-2.62 22.595-3.641l-2.7.363c23.948-3.194 48.342-3.858 72.438-2.114 6.827.494 13.638 1.2 20.423 2.102l-3.133-.421c23.256 3.126 46.11 8.73 68.256 16.473a293 293 0 0 1 17.156 6.582l-3.02-1.274c13.576 5.755 26.704 12.724 38.425 21.722l-2.594-2.004c7.546 5.835 14.496 12.421 20.346 19.972l-1.994-2.581a97 97 0 0 1 4.822 6.879c2.776 4.354 7.499 6.767 12.672 6.072 5.138-.69 8.954-4.226 10.573-9.11 3.27-9.861 5.229-19.985 6.417-30.297 1.073-9.31 1.18-18.733.297-28.064-1.918-20.26-7.659-40.231-18.486-57.595-5.284-8.474-11.709-16.468-19.062-23.24-9.147-8.424-19.682-15.238-30.274-21.682-10.553-6.42-21.418-12.367-33.053-16.605-12.355-4.5-26.456-6.286-39.39-3.317-7.418 1.703-13.56 6.176-18.723 11.6-3.703 3.891-7.363 7.818-11.174 11.604-7.648 7.598-15.772 14.673-24.112 21.498a293 293 0 0 1-6.308 5.016l2.58-1.994c-4.859 3.746-9.903 7.238-14.753 10.995l2.479-1.915c-2.053 1.585-4.234 3.08-6.189 4.777l2.394-1.85c-6.716 4.224-13.511 8.288-20.522 12.008a282 282 0 0 1-10.611 5.349c-3.549 1.696-7.226 3.246-10.623 5.237l2.617-1.104-.44.182c-2.755 1.141-4.978 2.354-6.547 5.034-1.374 2.348-1.956 5.809-1.104 8.441.858 2.651 2.5 5.208 5.034 6.547 2.419 1.278 5.787 2.204 8.441 1.104 1.953-.809 4.041-1.349 6.022-2.101 2.766-1.05 5.482-2.308 8.179-3.53a284 284 0 0 0 11.582-5.571c7.713-3.927 15.045-8.511 22.665-12.581 7.506-4.009 14.546-9.058 21.39-14.097 7.733-5.693 15.135-11.824 22.217-18.308 3.507-3.21 6.964-6.491 10.274-9.905 3.352-3.459 6.456-7.274 10.269-10.244l-2.72 2.102c1.396-1.047 2.86-1.921 4.465-2.609l-3.211 1.355c2.03-.809 4.129-1.3 6.288-1.611l-3.573.48c5.067-.661 10.2-.532 15.258.14l-3.573-.48c8.355 1.173 16.43 3.619 24.191 6.893l-3.103-1.309c1.49.645 2.983 1.285 4.482 1.911l-3.096-1.307c7.222 3.226 14.111 7.057 20.886 11.128 6.882 4.135 13.699 8.401 20.071 13.299l-2.544-1.966c6.424 4.982 12.238 10.634 17.233 17.053l-1.952-2.527c5.562 7.208 10.106 15.133 13.657 23.512l-1.264-2.994c4.137 9.86 6.873 20.248 8.324 30.836l-.45-3.348c1.58 11.804 1.561 23.779.01 35.585l.452-3.366c-1.145 8.522-3.076 16.926-5.849 25.067l23.245-3.038c-10.504-16.775-25.436-29.988-42.316-40.121-16.73-10.042-35.228-17.276-53.804-23.095-20.185-6.323-41.103-10.246-62.097-12.643-20.175-2.304-40.645-2.91-60.898-1.337-20.967 1.628-42.033 4.881-62.297 10.57-3.022.849-6.128 1.601-8.96 2.977l2.176-.918a477 477 0 0 0-7.621 3.236c-1.7.741-3.409 3.201-3.808 4.951-.422 1.853-.325 3.636.418 5.395.672 1.592 1.819 3.132 3.39 3.962 2.106 1.113 4.048 1.168 6.384.835ZM448.11 303.732c-48.668-19.018-76.265 4.195-86.399 16.386s-15.346 27.929-16.876 43.709c-4.601 47.461 32.083 87.559 81.156 79.144 50.269-8.621 80.037-73.318 50.044-116.311-10.494-15.042-27.351-25.486-45.492-28.186"/><path d="M452.454 296.3a160 160 0 0 0-10.243-4.364l2.199.928c-8.825-3.771-18.086-6.318-27.656-7.184-7.531-.681-15.041-.127-22.474 1.222l3.124-.42c-7.917.928-15.669 3.941-22.695 7.631-5.298 2.783-10.218 6.334-14.72 10.266-12.015 10.494-20.093 25.101-24.299 40.37-4.756 17.266-5.158 36.009.124 53.21 4.607 15.002 13.219 29.091 25.413 39.108 3.319 2.726 6.77 5.327 10.459 7.536 3.772 2.258 7.762 4.031 11.832 5.683 7.474 3.036 15.437 4.594 23.463 5.223 8.454.663 17.165-.191 25.417-2.081 7.43-1.701 14.707-4.664 21.319-8.44 13.06-7.459 24.044-18.613 31.796-31.459 7.856-13.019 12.316-27.807 13.306-42.953.988-15.111-2.461-30.581-9.867-43.794-9.411-16.79-25.226-29.433-43.352-35.661-3.98-1.367-8.06-2.314-12.217-2.946a8.1 8.1 0 0 0-4.258-.191 7.94 7.94 0 0 0-3.97 1.267c-2.215 1.296-4.328 3.836-4.907 6.382-.623 2.734-.488 5.802 1.076 8.229 1.404 2.178 3.701 4.5 6.382 4.907 5.36.814 10.602 2.368 15.597 4.46l-2.579-1.088c5.597 2.381 10.867 5.42 15.695 9.121l-2.194-1.695a69 69 0 0 1 12.292 12.279l-1.7-2.2a67.2 67.2 0 0 1 8.451 14.511l-1.098-2.603a68.5 68.5 0 0 1 4.671 17.149l-.39-2.904c.835 6.243.827 12.549.088 18.8l.391-2.912c-1.015 7.271-2.898 14.335-5.738 21.111l1.124-2.662c-2.868 6.774-6.607 13.114-11.087 18.945l1.771-2.293c-4.114 5.314-8.852 10.115-14.159 14.241l2.309-1.784c-4.926 3.799-10.297 6.978-16.027 9.405l2.743-1.158a69 69 0 0 1-17.45 4.718l3.073-.413c-6.463.84-12.999.889-19.463.028l3.109.418c-5.707-.788-11.285-2.27-16.6-4.498l2.828 1.193a67 67 0 0 1-14.618-8.548l2.44 1.885a69 69 0 0 1-12.11-12.12l1.919 2.484a75.5 75.5 0 0 1-9.741-16.609l1.249 2.959c-2.625-6.255-4.387-12.828-5.301-19.547l.445 3.312c-1.013-7.692-.838-15.434.175-23.117l-.446 3.321c1.063-7.811 3.023-15.482 6.085-22.755l-1.247 2.955c2.311-5.408 5.216-10.529 8.785-15.208l-1.92 2.485c3.565-4.61 7.739-8.666 12.347-12.228l-2.462 1.902a66.2 66.2 0 0 1 14.431-8.433l-2.848 1.202c5.982-2.512 12.386-4.223 18.811-5.102l-3.022.406c8.147-1.077 16.576-.832 24.709.246l-2.635-.354c5.923.811 11.712 2.17 17.415 3.955 4.1 1.283 8.552-1.186 10.154-4.984 1.535-3.638.368-8.927-3.522-10.748ZM276.499 453.734q3.089.117 5.762-1.288 2.781-.905 4.813-3.092 2.187-2.032 3.092-4.813 1.404-2.673 1.288-5.762l-.534-3.976a14.95 14.95 0 0 0-3.846-6.6l-3.027-2.339a14.9 14.9 0 0 0-7.549-2.042q-3.089-.117-5.762 1.288-2.781.905-4.813 3.092-2.187 2.032-3.092 4.813-1.404 2.673-1.288 5.762l.534 3.976a14.95 14.95 0 0 0 3.846 6.6l3.027 2.339a14.9 14.9 0 0 0 7.549 2.042m-90.871 43.142-.071.657-.035.32-.018.168-.007.067q-.078.677.173 1.349.055.68.183 1.347l.997 2.362a7.5 7.5 0 0 0 2.547 2.774 4.94 4.94 0 0 0 2.181 1.271 7.45 7.45 0 0 0 3.809.852l2.628-.353 2.362-.997a7.5 7.5 0 0 0 2.774-2.547 7.45 7.45 0 0 0 1.77-3.362q.127-.668.183-1.347.25-.664.175-1.332l-.009-.084-.018-.168-.035-.32-.071-.657a7.35 7.35 0 0 0-.84-3.76 7.3 7.3 0 0 0-2.018-3.14 7.3 7.3 0 0 0-3.14-2.018 7.35 7.35 0 0 0-3.76-.84l-2.594.349a9.75 9.75 0 0 0-4.306 2.51l-1.526 1.975a9.7 9.7 0 0 0-1.332 4.925ZM568.27 361.351l.148.217a14.4 14.4 0 0 0 5.135 5.135 14.25 14.25 0 0 0 7.225 1.954 14.25 14.25 0 0 0 7.225-1.954 14.4 14.4 0 0 0 5.135-5.135l.148-.217a14.4 14.4 0 0 0 1.978-7.311 14.4 14.4 0 0 0-1.978-7.311 14.56 14.56 0 0 0-5.197-5.197 14.4 14.4 0 0 0-7.311-1.978 14.4 14.4 0 0 0-7.311 1.978 14.56 14.56 0 0 0-5.197 5.197 14.4 14.4 0 0 0-1.978 7.311 14.4 14.4 0 0 0 1.978 7.311m116.004 4.039c2.608 0 5.348-1.135 7.193-2.979 1.764-1.764 3.093-4.659 2.979-7.193-.247-5.511-4.47-10.172-10.172-10.172-2.608 0-5.348 1.135-7.193 2.979-1.764 1.764-3.093 4.659-2.979 7.193.247 5.511 4.47 10.172 10.172 10.172"/></svg>