<?xml version="1.0" encoding="UTF-8"?><svg xmlns="http://www.w3.org/2000/svg" data-name="ARTWORK" viewBox="0 0 1000 1000"><path d="M242.2 794.261c-2.068-49.069.938-98.232 7.861-146.835 6.819-47.872 16.882-95.207 27.049-142.457 5.991-27.842 11.975-55.686 17.461-83.633 1.566-7.976-3.475-15.779-12.096-15.878-40.351-.462-80.708-.892-121.062-.959l11.451 19.954c40.573-59.631 83.866-114.316 132.904-167.815a1511 1511 0 0 1 156.976-148.412c31.017-25.378 62.105-48.719 95.745-71.928l-15.857-2.046c23.337 21.637 44.738 45.213 64.993 69.736 19.78 23.947 37.615 48.23 55.876 74.813 36.328 52.883 69.269 107.972 103.726 162.066 19.352 30.381 39.379 60.363 60.613 89.465l11.307-19.704c-51.921 1.416-103.849 2.668-155.781 3.627-5.339.099-11.761 3.999-12.748 9.706-9.478 54.797-16.3 109.926-20.007 165.427-3.661 54.802-4.488 109.786-2.308 164.668a1588 1588 0 0 0 6.43 92.763l13.115-13.115c-109.474 4.052-218.99 7.149-328.482 10.691-31.128 1.007-62.25 2.161-93.375 3.238-7.194.249-14.118 6.159-13.777 13.777.325 7.251 6.062 14.044 13.777 13.777 109.5-3.787 218.99-7.847 328.482-11.879 31.124-1.146 62.246-2.372 93.375-3.373 6.584-.212 13.795-5.856 13.115-13.115-5.072-54.145-7.316-108.516-6.92-162.895s3.627-109.275 9.676-163.588c3.403-30.554 7.303-59.382 12.395-89.347l-12.748 9.706c51.919-1.542 103.85-2.793 155.781-3.879 9.134-.191 17.368-11.285 11.307-19.704-37.767-52.455-71.393-107.74-105.714-162.466-34.416-54.877-69.674-109.336-110.257-159.915-22.519-28.065-46.972-54.503-73.346-78.986-4.006-3.718-11.009-5.386-15.857-2.046-60.653 41.789-118.349 87.931-172.355 138.017a1511.4 1511.4 0 0 0-148.391 158.954c-26.187 32.45-51.093 65.934-74.571 100.394-5.795 8.505 1.935 19.932 11.451 19.954 40.353.093 80.71-.175 121.062-.476l-12.096-15.878c-17.216 97.374-41.448 194.084-46.745 293.159-1.539 28.798-1.461 57.654.382 86.435.314 4.901 3.954 9.092 9.092 9.092 4.765 0 9.3-4.162 9.092-9.092Z"/><path d="M239.478 865.575a797.7 797.7 0 0 1 134.724 90.71c8.63 7.19 17.545 14.793 28.458 17.457 6.14 1.499 12.547 1.328 18.864 1.13 102.074-3.192 225.661-7.141 327.055-19.334 5.383-.647 11.407-1.674 14.538-6.1 2.752-3.89 2.313-9.112 1.783-13.847-9.333-83.407-20.622-166.667-25.797-250.478-2.668-43.216-3.726-86.558-2.074-129.836 1.445-37.874 1.57-79.905 19.908-114.171l-56.572 2.443c1.014 140.313-46.841 282.459-13.555 418.77a5505 5505 0 0 1-384.923 18.166"/><path d="M234.561 873.986c30.199 17.869 59.935 36.491 88.364 57.099a797 797 0 0 1 15.643 11.634q1.355 1.037 2.708 2.075c1.052.804-.312-.241-.432-.335l1.538 1.194a796 796 0 0 1 20.476 16.489c6.89 5.739 13.645 11.827 21.327 16.508 8.541 5.205 17.871 7.835 27.842 8.242 8.303.34 16.702-.093 25.01-.215 8.163-.119 16.332-.483 24.492-.731a9696 9696 0 0 0 50.581-1.657c34.733-1.239 69.452-2.742 104.145-4.829 34.087-2.051 68.148-4.538 102.1-8.24a1653 1653 0 0 0 24.098-2.801c8.304-1.029 17.767-1.302 24.751-6.52 4.719-3.526 8.323-8.301 9.352-14.234.844-4.865.542-9.323-.044-14.177-1.142-9.462-2.323-18.92-3.476-28.381-4.609-37.83-9.781-75.629-13.701-113.538-3.916-37.873-7.278-75.812-9.334-113.836-2.062-38.136-2.821-76.362-1.525-114.539.565-16.644 1.066-33.333 2.402-49.936.331-4.115.724-8.226 1.203-12.327.106-.91.221-1.82.332-2.73.314-2.574-.048.453-.068.451l.19-1.359q.45-3.165.983-6.316c1.365-8.044 3.169-16.021 5.607-23.81 1.169-3.732 2.544-7.369 3.95-11.015.495-1.284-.332.757-.352.814.196-.554.486-1.115.723-1.646q.55-1.233 1.133-2.45a127 127 0 0 1 2.886-5.611c4.267-7.843-.989-18.655-10.528-18.346-18.863.611-37.716 1.299-56.572 2.119-6.725.293-12.563 5.497-12.516 12.516.372 55.275-6.668 110.209-13.398 164.967-6.68 54.35-13.229 109.034-11.596 163.899.932 31.332 4.613 62.713 12.013 93.196l11.943-15.678c-50.084 4.12-100.242 6.623-150.416 9.324a5509 5509 0 0 1-149.581 6.014c-28.304.753-56.614 1.275-84.926 1.622-7.106.087-13.923 6.189-13.591 13.591.326 7.289 5.974 13.685 13.591 13.591 50.255-.615 100.502-1.991 150.719-4.028 49.885-2.023 99.717-4.715 149.496-8.544 28.242-2.172 56.477-4.478 84.707-6.8 8.112-.667 13.961-7.365 11.943-15.678-3.186-13.125-5.869-26.477-7.517-39.89.401 3.267-.001-.063-.071-.613a417 417 0 0 1-.812-6.845 452 452 0 0 1-1.06-10.773 490 490 0 0 1-1.291-19.635c-1.249-27.186-.346-54.43 1.675-81.557 4.08-54.777 12.65-109.084 18.165-163.714 3.101-30.718 5.226-61.562 5.038-92.451l-12.516 12.516c18.865-.808 37.717-1.749 56.572-2.767l-10.528-18.346c-15.791 30.579-19.097 64.957-20.4 98.831-1.4 36.388-1.798 72.738-.412 109.135 1.436 37.698 4.366 75.324 8.075 112.861 3.71 37.542 7.824 75.053 12.02 112.544 2.097 18.74 4.216 37.477 6.191 56.23.476 4.52 1.063 9.047 1.386 13.581.107 1.501-.382 3.724.007 5.117-.532-1.908.499-1.854-.003-.721-.133.3-.639 1.611.06.115.725-1.552.083-.175-.098.053.417-.527 1.601-1.47.477-.616-1.647 1.252 2.18-1.249-.107.085-.25.146-.76.304-.953.511.034-.037 2.382-.828 1.185-.512-1.713.453-3.383.883-5.118 1.249-1.328.28 1.401-.163 1.34-.162-.474.005-1.019.123-1.481.177q-1.31.148-2.62.292-3.073.34-6.15.667c-32.937 3.505-65.994 6.11-99.041 8.325-34.404 2.305-68.848 4.036-103.294 5.564-33.323 1.478-66.666 2.405-99.99 3.802-8.137.341-16.311 1.125-24.46.941a63 63 0 0 1-3.487-.164c-.496-.038-.991-.102-1.486-.136-1.459-.101.647.119.709.105-.737.175-2.194-.407-2.929-.585a38 38 0 0 1-3.384-.991c-.413-.142-.82-.319-1.236-.451-1.296-.411.782.361.819.37-.944-.23-1.902-.884-2.766-1.333a60 60 0 0 1-5.317-3.145c-1.214-.799-4.008-2.094-4.724-3.349.191.334 2.724 2.109-.217-.163-2.914-2.252-.604-.285-.215-.171-.784-.231-1.802-1.443-2.443-1.965-3.283-2.673-6.534-5.386-9.826-8.048a892 892 0 0 0-22.316-17.445 742 742 0 0 0-87.196-56.893c-1.703-.948-3.415-1.879-5.119-2.825-.557-.309-1.121-.677-1.698-.956.314.152-3.685-1.763-2.154-.94.983.528-.413-.266-.499-.312-.429-.231-.873-.438-1.309-.656a836 836 0 0 0-11.836-5.802c-4.585-2.204-10.735-1.412-13.328 3.495-2.478 4.69-1.191 10.555 3.495 13.328Zm-78.915-450.707 58.501 51.359c10.912 9.58 33.525 29.937 47.557 33.672 3.772-1.53-5.175-16.06-4.468-20.069s.206-8.117.178-12.188c-.076-10.739 3.134-21.198 6.312-31.456l5.616-18.126a354.5 354.5 0 0 1-78.548 5.084"/><path d="M150.004 428.921c5.133 5.075 10.185 10.25 15.498 15.136s10.575 9.859 15.973 14.661c9.675 8.607 19.352 17.212 29.023 25.823 7.84 6.981 15.815 13.791 24.213 20.098 3.998 3.003 8.117 5.897 12.444 8.408 1.778 1.032 3.599 1.995 5.484 2.817 4.589 2.002 9.633 4.398 14.504 1.297 3.855-2.455 6.217-6.758 5.866-11.381a29 29 0 0 0-1.669-7.745c-1.34-3.688-3.358-7.401-3.951-11.311l.375 2.793a5 5 0 0 1-.037-1.156l-.375 2.794c.37-2.443.739-4.869.775-7.341.026-1.804-.066-3.606-.127-5.409a65 65 0 0 1 .533-10.822l-.377 2.805c.969-6.902 2.89-13.608 4.942-20.255 2.148-6.955 4.244-13.928 6.717-20.774 1.155-3.197.031-6.912-1.944-9.468-1.872-2.423-5.26-4.705-8.529-4.28-4.699.611-9.384 1.302-14.079 1.938l2.955-.397c-17.402 2.332-34.935 3.319-52.488 3.164a360 360 0 0 1-14.936-.448c-2.901-.146-6.25 1.408-8.266 3.424-2.027 2.027-3.554 5.354-3.424 8.266.293 6.551 5.136 11.417 11.689 11.689 21.464.894 42.816-.419 64.087-3.338 5.813-.798 11.623-1.672 17.349-2.962l-13.361-13.361c-4.307 16.585-11.361 32.757-11.957 50.105-.156 4.543.499 9.096-.044 13.626l.375-2.794c-.221 1.572-.65 3.164-.523 4.756.12 1.496.326 3.039.726 4.497.45 1.64 1.083 3.231 1.707 4.81 1.247 3.155 2.861 6.409 3.383 9.788l-.372-2.768c.063.475.095.946.038 1.422l.371-2.763a2.7 2.7 0 0 1-.168.605l1.047-2.48a2 2 0 0 1-.174.291l1.623-2.1a2 2 0 0 1-.233.232l2.099-1.622c-.097.068-.188.12-.295.171l7.988-1.045c-1.591-.406-3.133-.962-4.646-1.597l2.458 1.037c-8.01-3.424-15.18-8.668-22.038-13.963l2.027 1.566c-17.265-13.369-33.131-28.48-49.859-42.496-6.329-5.302-12.543-10.801-19.081-15.842l1.824 1.409-13.857-10.791c-1.745-1.359-3.33-2.337-5.642-2.337-1.957 0-4.294.869-5.642 2.337-2.91 3.17-3.171 8.148 0 11.283ZM710.14 533.483c46.712 2.005 85.577 3.44 132.045-1.725 1.663-33.888.572-64.053 2.169-104.452a466.7 466.7 0 0 1-124.468 15.232c-3.522-.046-7.388-.017-10.078 2.257-2.631 2.224-3.338 5.928-3.882 9.329l-9.604 60.076"/><path d="M710.14 541.786c8.834 1.025 17.674 2.086 26.551 2.687 8.459.572 16.973.747 25.447.978 16.795.459 33.56.336 50.336-.626a572 572 0 0 0 29.711-2.488c2.76-.303 5.5-.941 7.481-3.099 1.953-2.127 2.954-4.571 3.099-7.481 1.312-26.424 1.003-52.89 1.518-79.334.163-8.375.402-16.748.738-25.118.283-7.045-7.033-11.975-13.502-10.285a79 79 0 0 1-6.634 1.416l2.906-.39c-4.808.552-9.531 1.842-14.273 2.811a729 729 0 0 1-11.643 2.269 472 472 0 0 1-23.656 3.807l3.046-.409a471 471 0 0 1-62.19 4.194c-5.315.005-10.655-.38-15.934.329-1.451.195-2.835.37-4.208.874-3.034 1.113-4.96 2.23-7.433 4.295-2.962 2.473-4.704 6.065-5.981 9.615-.706 1.962-1.009 4.036-1.332 6.086l-1.243 7.883-2.487 15.766c-.945 5.994-1.952 11.981-2.832 17.985-1.006 6.864-1.787 13.768-2.669 20.649-.329 2.565 1.486 6.344 3.329 8.036 1.877 1.723 3.989 2.785 6.525 3.126 5.201.699 11.4-2.572 12.469-8.141 1.691-8.802 3.373-17.59 4.806-26.438l4.265-26.33c.689-4.256.977-8.892 2.554-12.937l-1.208 2.864c.38-.9.837-1.728 1.432-2.504l-1.872 2.423a9.5 9.5 0 0 1 1.311-1.29l-2.421 1.87a9.8 9.8 0 0 1 1.993-1.122l-2.854 1.204c.978-.368 1.971-.597 3.004-.747l-3.171.426c3.879-.474 7.88-.171 11.781-.201q6.411-.049 12.818-.275a460 460 0 0 0 25.835-1.643c17.954-1.648 35.85-4.24 53.518-7.837 4.659-.948 9.29-2.02 13.907-3.153 2.341-.574 4.721-1.092 7.031-1.781 2.401-.716 4.751-1.523 7.18-2.162l-13.502-10.285c-1.061 27.547-.77 55.109-1.349 82.665a812 812 0 0 1-.733 21.787l10.579-10.579c-17.215 1.921-34.508 3.043-51.824 3.435-16.799.38-33.584.43-50.385.079-9.944-.208-19.898.187-29.836.488-4.337.131-8.508 3.725-8.303 8.303.096 2.147.802 4.375 2.432 5.871 1.725 1.584 3.559 2.164 5.871 2.432Zm-350.49-77.018a3050 3050 0 0 1 179.571-83.851c7.454-3.19 15.154-6.21 22.25-10.214 3.729-2.104 5.133-6.872 3.511-10.716s-5.985-6.177-10.124-4.969c-7.571 2.211-14.852 5.521-22.086 8.65a3045 3045 0 0 0-138.105 63.882 3062 3062 0 0 0-43.867 22.077c-4.088 2.098-5.614 8.166-3.145 11.995 2.699 4.186 7.611 5.368 11.995 3.145Zm-3.166 118.44a1108 1108 0 0 1 57.91-32.93c19.634-10.394 39.592-20.196 59.756-29.517a1115 1115 0 0 1 34.171-15.102l-2.323.98a1107 1107 0 0 1 57.543-22.406c2.75-.983 5.51-1.939 8.246-2.961q1.947-.727 3.895-1.447c2.062-.762 3.988-1.469 5.577-3.068.485-.489.928-1.032 1.389-1.543 2.09-2.318 3.069-5.306 2.219-8.395-.738-2.681-3.148-5.529-6.026-6.026-1.533-.265-3.151-.671-4.69-.643-1.85.034-3.52.603-5.24 1.169-1.896.624-3.795 1.24-5.674 1.917a1108 1108 0 0 0-34.283 12.999 1163 1163 0 0 0-46.898 19.874c-14.849 6.681-29.578 13.647-44.073 21.068a1106 1106 0 0 0-89.976 51.532c-3.702 2.356-5.534 7.576-3.012 11.487 2.428 3.766 7.474 5.456 11.487 3.012Zm52.742 100.511a309 309 0 0 1 11.949-9.732l-1.759 1.359a305.4 305.4 0 0 1 52.047-32.386 309 309 0 0 1 15.776-7.189l-2.15.907c12.474-5.251 25.321-9.746 38.33-13.48 4.475-1.285 7.713-6.344 6.22-10.956s-6.129-7.496-10.956-6.22c-17.739 4.688-34.887 11.245-51.433 19.162a305 305 0 0 0-45.294 26.694 326 326 0 0 0-24.934 19.639c-3.415 2.974-3.272 9.198 0 12.202 1.644 1.509 3.803 2.63 6.101 2.527 2.386-.107 4.285-.971 6.101-2.527Zm82.568 40.199 11.427-6.69a7.6 7.6 0 0 0 2.824-2.593 7.6 7.6 0 0 0 1.802-3.423 7.64 7.64 0 0 0 .18-4.014 7.5 7.5 0 0 0-1.195-3.743c-1.386-2.149-3.449-4.041-6.016-4.626-2.674-.609-5.327-.34-7.756 1.015l-11.568 6.45a7.7 7.7 0 0 0-2.863 2.628 7.7 7.7 0 0 0-1.827 3.47 7.73 7.73 0 0 0-.182 4.069 7.6 7.6 0 0 0 1.211 3.794c1.405 2.179 3.497 4.097 6.099 4.69 2.679.61 5.446.386 7.864-1.029Z"/></svg>