<?xml version="1.0" encoding="UTF-8"?><svg xmlns="http://www.w3.org/2000/svg" data-name="ARTWORK" viewBox="0 0 1000 1000"><path d="M207.672 562.718c44.091 14.34 88.986 25.778 133.792 37.637 22.47 5.947 44.928 11.942 67.301 18.245a2134 2134 0 0 1 32.345 9.399c6.161 1.841 12.457 3.46 18.921 3.703 6.576.247 13.222-1.324 19.267-3.817 11.971-4.938 23.262-11.611 34.72-17.618 11.242-5.894 22.465-11.825 33.717-17.701a6063 6063 0 0 1 68.345-35.142 6136 6136 0 0 1 137.371-67.385 6069 6069 0 0 1 138.378-63.651 2393 2393 0 0 1 17.759-7.794l-18.886-10.837c1.504 44.574 4.425 89.062 8.551 133.469a2517 2517 0 0 0 6.989 65.814c1.416 11.845 3.048 23.66 4.569 35.491-.325-2.53.121 1.078.144 1.295.118 1.1.222 2.203.281 3.308.097 1.814.122 3.649-.086 5.456.352-3.067-.258.28-.387.799.626-2.515-.048.051-.511.781 1.384-2.182-.525.341-.954.717 1.919-1.684-1.082.588-1.587.887-15.826 9.375-32.346 17.739-48.49 26.557a74583 74583 0 0 1-50.454 27.531c-35.274 19.233-70.559 38.447-105.843 57.664a163257 163257 0 0 0-104.016 56.685c-16.53 9.018-33.055 18.046-49.581 27.072q-12.157 6.64-24.31 13.287c-3.994 2.185-8.002 4.311-12.084 6.327-3.585 1.771 2.156-.684-1.579.699-1.175.435-2.346.869-3.544 1.241s-2.399.699-3.618.971q-1.221.274-2.457.471 1.854-.276-.59-.035c-9.905-.008-18.044-1.777-28.762-3.966a544 544 0 0 1-29.03-6.752c-17.362-4.548-34.466-10.014-51.345-16.107-16.887-6.095-33.554-12.776-50.201-19.494-18.868-7.614-37.677-16.1-57.002-22.481-1.081-.357-2.163-.747-3.254-1.072-.565-.168-2.151-1.028-.041.061-.98-.506-2.009-.962-2.887-1.643 2.578 1.999-1.028-2.109.827.685a23 23 0 0 1-1.611-2.879c1.273 2.668-.112-.651-.244-1.094-.646-2.179-1.086-4.413-1.505-6.645-1.881-10.025-3.667-20.067-5.561-30.09a3286 3286 0 0 0-12.046-60.702c-8.569-41.086-18.116-81.975-29.067-122.495-2.564-9.486-5.266-18.93-7.946-28.383-1.7-5.996-8.506-10.319-14.665-8.326-6.109 1.977-10.148 8.237-8.326 14.665 11.58 40.85 20.918 82.347 29.776 123.857a3003 3003 0 0 1 12.75 63.188 3555 3555 0 0 1 5.851 31.407c1.767 9.725 2.91 19.768 5.414 29.33 1.425 5.444 3.799 10.49 7.431 14.793 4.214 4.992 9.96 7.621 16.03 9.657 9.876 3.312 19.542 7.25 29.228 11.084 18.134 7.177 36.175 14.588 54.344 21.675 35.02 13.658 70.638 25.316 107.546 32.699 11.113 2.223 22.9 5.225 34.294 4.567 12.23-.705 23.049-5.722 33.642-11.512 16.421-8.975 32.81-18.01 49.226-26.995 35.285-19.313 70.588-38.594 105.895-57.868 70.325-38.392 140.672-76.746 210.929-115.261 8.437-4.625 17.858-8.722 25.336-14.827 8.856-7.229 11.108-18.618 10.008-29.494-2.282-22.554-5.576-45.021-7.963-67.57-4.745-44.822-8.088-89.746-10.69-134.74a2570 2570 0 0 1-1.724-33.76c-.454-10.171-10.158-14.75-18.886-10.837-46.117 20.673-92.146 41.516-137.842 63.107s-90.696 43.561-135.627 66.187c-45.133 22.728-90.055 45.909-134.495 69.965-5.292 2.864-10.528 5.882-15.948 8.498-3.771 1.82-8.548 3.378-12.975 3.279a38 38 0 0 1-2.563-.15c.277.025 1.368.209-.043-.007-1.278-.196-2.546-.479-3.805-.771-3.077-.714-6.11-1.607-9.15-2.459a1765 1765 0 0 0-15.494-4.262c-21.963-5.937-44.023-11.506-66.105-16.983-45.015-11.165-90.045-22.281-135.064-33.416a1761 1761 0 0 1-15.523-3.914c-10.869-2.794-15.194 13.287-4.612 16.729Z"/><path d="M452.624 625.029c1.654 13.334 4.649 26.532 7.211 39.722 2.455 12.64 4.773 25.308 6.811 38.023a859 859 0 0 1 3.15 21.421l-.348-2.591c2.82 21.037 4.933 42.161 7.357 63.245 2.508 21.82 5.141 43.641 8.724 65.314.976 5.906 2.026 11.8 3.167 17.676s2.149 11.823 3.898 17.528c.756 2.466 2.378 4.7 4.626 6.016 2.158 1.263 5.337 1.798 7.756 1.015 2.436-.788 4.786-2.298 6.016-4.626l1.015-2.405a10.15 10.15 0 0 0 0-5.352c-.645-4.113-1.643-8.162-2.483-12.24s-1.631-8.152-2.383-12.24a737 737 0 0 1-4.105-24.852 1044 1044 0 0 1-1.99-14.084l.364 2.712c-3.394-25.272-5.972-50.643-9.361-75.916-3.512-26.198-7.896-52.2-13.319-78.072q-2.24-10.681-4.684-21.318c-2.444-10.637-3.141-14.206-5.296-21.159-1.217-3.925-4.913-6.431-9.008-5.881-1.723.231-3.503.939-4.714 2.258-1.367 1.489-2.666 3.7-2.405 5.806Zm243.927-45.342c-11.556 1.188-23.363 6.492-29.232 16.517-5.87 10.025-3.486 25.023 6.806 30.41 6.428 3.364 14.324 2.559 20.992 5.416-3.847 21.622-10.655 49.459-14.502 71.08 20.619-5.862 43.445-20.587 61.914-31.471a204.4 204.4 0 0 0-38.975-39.743c9.214-7.658 11.359-20.842 11.626-32.82.063-2.843.041-5.773-1.041-8.402-1.991-4.839-7.271-7.677-12.472-8.249s-10.407.721-15.48 2.003"/><path d="M696.551 571.198c-7.898.371-15.494 2.19-22.626 5.603-3.538 1.693-6.768 4.118-9.575 6.848-2.702 2.628-5.206 5.787-6.885 9.179-3.606 7.287-4.462 15.157-2.919 23.109 1.494 7.703 6.132 14.319 12.482 18.787 3.715 2.615 8.36 3.985 12.788 4.798 4.059.745 8.188 1.21 12.044 2.765l-2.581-1.089.384.165-4.967-12.206c-3.455 18.729-8.025 37.246-11.822 55.907a601 601 0 0 0-2.901 15.112c-.706 3.983-.142 7.759 2.839 10.74 2.758 2.758 6.967 3.926 10.74 2.839 9.395-2.706 18.437-6.754 27.139-11.176 8.382-4.259 16.511-8.999 24.585-13.81 4.269-2.544 8.523-5.112 12.804-7.636 2.281-1.345 4.453-3.941 5.052-6.57.615-2.699.621-6.147-1.108-8.471-11.714-15.737-25.173-29.937-40.694-41.968v15.547c9.584-8.088 13.094-20.733 14.342-32.713.253-2.434.389-4.878.445-7.324.084-3.647.005-7.533-1.144-11.02-2.628-7.978-9.05-13.542-16.995-15.949-8.006-2.426-16.823-.981-24.613 1.522-2.614.84-4.941 2.477-6.348 4.882-1.332 2.277-1.897 5.633-1.071 8.185.832 2.57 2.425 5.05 4.882 6.348 2.647 1.399 5.241 1.619 8.185 1.071 2.972-.553 5.934-1.236 8.93-1.643l-2.886.388c2.324-.287 4.645-.372 6.975-.092l-2.886-.388a19.4 19.4 0 0 1 4.623 1.237l-2.596-1.095a17.4 17.4 0 0 1 3.492 1.988l-2.203-1.702a14.2 14.2 0 0 1 2.54 2.525l-1.704-2.206c.571.784 1.04 1.605 1.42 2.498l-1.1-2.606c.431 1.124.697 2.265.861 3.456l-.39-2.904c.528 4.694.049 9.667-.565 14.336l.392-2.921c-.593 4.323-1.544 8.588-3.218 12.63l1.108-2.626c-1.044 2.45-2.339 4.762-3.96 6.877l1.719-2.225a27 27 0 0 1-3.787 3.924c-1.96 1.654-3.332 5.262-3.22 7.774.121 2.697.979 6.037 3.22 7.774a206 206 0 0 1 36.566 36.565l-1.719-2.225a239 239 0 0 1 2.409 3.178l3.944-15.041c-12.439 7.335-24.692 15.018-37.598 21.523a188 188 0 0 1-11.198 5.214l2.633-1.111c-4.29 1.805-8.659 3.416-13.136 4.694l13.579 13.579c3.37-18.756 7.82-37.301 11.485-56a676 676 0 0 0 2.795-15.141c.484-2.805.534-5.811-1.09-8.328l-1.69-2.187a10.8 10.8 0 0 0-4.769-2.78c-6.39-2.584-13.549-2.042-19.91-4.712l2.542 1.073a18.5 18.5 0 0 1-3.755-2.208l2.146 1.658a18.7 18.7 0 0 1-3.018-3.026l1.653 2.139a21 21 0 0 1-2.628-4.505l1.061 2.514a24.4 24.4 0 0 1-1.622-6.054l.374 2.785a26.4 26.4 0 0 1 .023-6.687l-.372 2.77a26.6 26.6 0 0 1 1.759-6.44l-1.039 2.463c.839-1.936 1.934-3.73 3.204-5.412l-1.587 2.054c1.666-2.148 3.598-4.039 5.747-5.701l-2.013 1.555c1.068-.808 2.124-1.631 3.181-2.453l-1.998 1.543c2.692-2.051 5.626-3.719 8.732-5.056l-2.183.921c.978-.336 1.941-.767 2.88-1.201l-2.172.917a50 50 0 0 1 9.816-2.674c1.892-.316 4.199-2.246 5.073-3.901.906-1.715 1.267-3.482 1.007-5.413-.536-3.986-4.099-7.56-8.337-7.36ZM232.66 555.972q.061-1.943.31-3.869l-.316 2.354c.447-3.227 1.37-6.363 2.619-9.368l-.948 2.247c1.417-3.328 3.25-6.438 5.427-9.325l-1.569 2.03c1.073-1.296 2.022-2.672 3.039-4.007l-1.576 2.04a48.5 48.5 0 0 1 8.425-8.47l-2.061 1.592a47 47 0 0 1 10.261-6.047l-2.457 1.037a45.3 45.3 0 0 1 11.398-3.115l-2.735.367c2.78-.349 5.61-.45 8.397-.118l2.717-.365a7.7 7.7 0 0 0 3.475-1.829c1.671-1.291 3.207-3.18 3.662-5.308 1.725-8.06 3.687-16.063 6.858-23.694l-1.06 2.513c1.601-3.791 3.558-7.413 6.054-10.693l-1.638 2.12c1.845-2.378 3.944-4.517 6.323-6.363l-2.114 1.633a34.3 34.3 0 0 1 7.294-4.22l-2.488 1.05c3.641-1.503 7.535-2.417 11.431-2.957l-2.716.365c4.954-.623 10.126-.16 15.051.496l-2.734-.367c6.418.882 12.727 2.369 18.994 3.989 3.605.932 7.455-.021 10.105-2.671 2.79-2.79 3.361-6.37 2.671-10.105a35 35 0 0 1-.181-1.069l.371 2.763a32.6 32.6 0 0 1-.014-8.256l-.378 2.811c.433-3.22 1.322-6.357 2.564-9.358l-1.082 2.563a35.5 35.5 0 0 1 4.535-7.767l-1.683 2.179a33.6 33.6 0 0 1 5.572-5.6l-2.185 1.688a31.6 31.6 0 0 1 6.682-3.944l-2.587 1.092a34 34 0 0 1 8.342-2.306l-2.889.388a36.3 36.3 0 0 1 9.428-.011l-2.898-.389a35 35 0 0 1 8.721 2.373l-2.604-1.099a32.4 32.4 0 0 1 6.525 3.765c2.12 1.583 5.971 1.768 8.4 1.099 2.529-.696 5.269-2.651 6.515-5.01 1.337-2.53 2.007-5.595 1.099-8.4l-1.099-2.604a10.96 10.96 0 0 0-3.911-3.911c-4.961-3.703-11.166-6.242-17.288-7.157-7.131-1.066-14.354-.985-21.28 1.298-6.565 2.164-12.632 5.749-17.427 10.766-4.729 4.949-8.143 10.844-10.334 17.31-2.435 7.185-2.384 14.942-.943 22.307l12.776-12.776c-7.653-1.892-15.342-3.466-23.188-4.322-3.496-.381-7.02-.561-10.536-.41-4.163.178-8.443.52-12.485 1.546-7.834 1.988-15.256 6.2-20.838 12.065-5.548 5.829-9.195 12.777-12.062 20.222-2.665 6.922-4.038 14.354-5.376 21.623l9.854-7.502c-11.151-1.007-22.425 2.011-31.736 8.222-4.516 3.013-8.762 6.577-12.229 10.769-2.047 2.475-4.004 5.003-5.511 7.841a59.4 59.4 0 0 0-3.631 8.386c-1.956 5.648-2.82 11.902-2.454 17.869.141 2.307.872 4.465 2.541 6.134 1.504 1.504 3.973 2.637 6.134 2.541 4.822-.216 8.522-3.811 8.674-8.674Zm92.102-15.143c8.074-2.989 15.981-6.504 23.535-10.638a159 159 0 0 0 10.151-6.056c3.939-2.554 7.611-5.441 11.182-8.485 1.676-1.429 2.855-4.496 2.758-6.658-.095-2.126-.714-4.013-2.022-5.706-2.66-3.443-8.295-5.14-12.147-2.425-5.94 4.185-11.947 8.367-18.196 12.08s-12.778 7.001-19.488 9.836l2.215-.935q-1.443.605-2.895 1.185c-2.315.925-4.21 2.01-5.517 4.242-1.158 1.979-1.648 4.895-.931 7.113.723 2.234 2.107 4.389 4.242 5.517 2.089 1.103 4.808 1.784 7.113.931Zm56.259 18.738a59.9 59.9 0 0 0 17.257-7.217c2.904-1.799 5.655-3.885 8.249-6.103 2.714-2.32 4.934-4.868 7.033-7.768 1.252-1.73 1.558-5.025.917-7.006-.62-1.917-1.657-3.486-3.258-4.723-3.406-2.631-8.895-2.672-11.938.711s-6.078 6.656-9.657 9.452l1.807-1.396a53.6 53.6 0 0 1-11.658 6.832l2.043-.862a55 55 0 0 1-5.259 1.888c-4.2 1.269-7.284 5.939-5.864 10.328 1.436 4.439 5.752 6.974 10.328 5.864m45.716-47.802c6.99 2.441 13.992 4.852 20.967 7.334l10.235 3.642c5.162 1.837 10.785 2.969 15.683-.361 3.87-2.631 5.696-7.186 3.815-11.643-.756-1.791-2.047-3.525-3.815-4.459l-2.227-.94a9.4 9.4 0 0 0-4.957 0l-.419.064 2.504-.336c-1.217.089-2.526.015-3.737-.146l2.59.348c-2.906-.487-5.736-1.566-8.546-2.431-3.061-.941-6.125-1.873-9.181-2.833l-18.101-5.684c-4.515-1.418-10.069 1.671-11.127 6.318-1.15 5.049 1.529 9.455 6.318 11.127Zm-6.396-83.169c4.804-1.412 9.684-2.693 14.651-3.373l-2.711.364c6.464-.841 12.936-1.003 19.408-.147l-2.863-.385c3.504.488 7.149 1.105 10.456 2.404l-2.638-1.113c.853.365 1.639.797 2.378 1.36l-2.246-1.736c.377.322.714.658 1.033 1.037l-1.738-2.25c.4.526.719 1.073.985 1.679l-1.123-2.661c.279.717.459 1.437.581 2.197l-.399-2.969c.286 2.166.092 4.344.005 6.516-.123 3.051.062 6.236.945 9.168 1.031 3.422 3.29 5.961 6.558 7.34 3.095 1.306 7.181 1.466 10.08-.571a46.7 46.7 0 0 1 8.699-4.804l-2.735 1.154c4.156-1.714 8.477-2.779 12.924-3.4l-3.082.414a51.3 51.3 0 0 1 13.381-.011l-3.07-.412a48.6 48.6 0 0 1 12.148 3.311l-2.748-1.16c3.539 1.522 6.761 3.539 9.958 5.671a36 36 0 0 0 5.335 2.96c3.735 1.67 8.263 2.991 12.272 1.423 2.186-.855 4.307-2.015 5.461-4.2 1.066-2.018 1.838-4.828.921-7.042-.433-1.046-.766-2.231-1.32-3.178-.665-1.136-1.538-2.009-2.425-2.929-1.351-1.401-2.895-2.527-4.438-3.713l2.259 1.745c-4.425-3.456-8.95-6.921-13.985-9.468-4.623-2.338-9.566-4.229-14.658-5.241-10.221-2.031-20.991-1.823-30.92 1.546-5.453 1.85-10.77 4.342-15.411 7.775l16.638 6.769a13.6 13.6 0 0 1-.54-2.377l.404 3.003c-.226-1.919-.146-3.842-.107-5.768.055-2.718-.117-5.482-.739-8.135-1.726-7.355-7.935-12.269-15.079-13.856-10.719-2.382-22.125-2.543-32.846-.074-5.819 1.34-11.551 3.403-16.7 6.438-3.933 2.318-5.493 7.256-3.739 11.411 1.726 4.091 6.376 6.586 10.78 5.291ZM520.559 496.1l20.046-6.615 9.905-3.269 4.953-1.634c2.373-.783 4.833-1.457 6.934-2.846 3.455-2.284 5.791-6.702 4.434-10.896a11.5 11.5 0 0 0-2.481-4.258c-1.536-1.673-4.544-2.964-6.822-2.826-1.613.097-3.236.224-4.771.743l-2.589.874-4.708 1.589-10.122 3.417-20.008 6.755c-2.431.821-4.556 2.261-5.877 4.519-1.234 2.108-1.756 5.214-.991 7.578 1.574 4.863 6.866 8.595 12.097 6.868Zm-46.039 72.753c1.999.401 3.996.857 6.011 1.168a7.14 7.14 0 0 0 3.755.168 7 7 0 0 0 3.501-1.117 7.1 7.1 0 0 0 2.642-2.425 7.1 7.1 0 0 0 1.685-3.202l.336-2.503a9.37 9.37 0 0 0-1.286-4.753l-1.472-1.906a9.4 9.4 0 0 0-4.155-2.422c-1.966-.526-3.974-.911-5.962-1.347a7.2 7.2 0 0 0-3.792-.17 7.1 7.1 0 0 0-3.536 1.128 7.2 7.2 0 0 0-2.668 2.449 7.15 7.15 0 0 0-1.702 3.234l-.34 2.528a9.47 9.47 0 0 0 1.298 4.8l1.487 1.925a9.5 9.5 0 0 0 4.196 2.446Zm70.099-29.272.515-.137.252-.067c.929-.248 1.729-.654 2.655-1.087a10.15 10.15 0 0 0 3.626-3.626 10.07 10.07 0 0 0 1.38-5.102 10.07 10.07 0 0 0-1.38-5.102 10.15 10.15 0 0 0-3.626-3.626c-.932-.436-1.725-.839-2.655-1.087l-.252-.067-.515-.137a10.46 10.46 0 0 0-5.524 0 10.4 10.4 0 0 0-4.585 2.672l-1.625 2.103a10.35 10.35 0 0 0-1.419 5.244 7.8 7.8 0 0 0 .895 4.003 7.8 7.8 0 0 0 2.148 3.344 10.37 10.37 0 0 0 4.585 2.672 10.46 10.46 0 0 0 5.524 0Zm17.633-108.895a76.5 76.5 0 0 1 13.169.626l-2.579-.347c6.329.889 12.73 2.306 18.651 4.752l-2.485-1.049c2.434 1.032 4.792 2.254 6.913 3.841l-2.133-1.648a20 20 0 0 1 3.42 3.349l-1.657-2.145c.697.92 1.306 1.885 1.778 2.94l-1.072-2.541c.436 1.047.725 2.12.891 3.241l-.381-2.838a14.3 14.3 0 0 1-.013 3.673l.383-2.849a13.3 13.3 0 0 1-.786 2.893l1.084-2.568c-.349.81-.775 1.563-1.303 2.27l1.686-2.182a9.5 9.5 0 0 1-1.627 1.612l2.188-1.69a9 9 0 0 1-1.782 1.001l2.588-1.092-.281.107c-2.585.981-5.12 2.414-6.476 4.98-1.156 2.189-1.617 4.445-1.286 6.909.678 5.048 5.239 9.706 10.642 9.395 5.146-.296 10.313-.56 15.44.124l-2.928-.393c2.629.383 5.189 1.012 7.645 2.033l-2.653-1.12c1.948.843 3.8 1.879 5.497 3.157l-2.251-1.739a20.7 20.7 0 0 1 3.41 3.334l-1.737-2.249a17.5 17.5 0 0 1 2.233 3.771l-1.119-2.652a17 17 0 0 1 1.067 4.012l-.396-2.948a19 19 0 0 1-.026 4.513l.396-2.945a23 23 0 0 1-1.534 5.537l1.115-2.643a26.8 26.8 0 0 1-3.359 5.698l1.728-2.236c-1.602 2.026-3.474 3.788-5.506 5.378l2.232-1.725c-4.911 3.759-10.544 6.346-16.15 8.88l-2.223 1.717a8.23 8.23 0 0 0-2.271 3.535c-.921 2.182-1.304 4.834-.554 7.152 1.473 4.55 5.621 8.164 10.591 8.064 5.62-.113 11.256-.188 16.84.557l-2.909-.391c3.483.494 6.889 1.32 10.146 2.663l-2.608-1.1a28 28 0 0 1 5.952 3.457l-2.206-1.704a27.3 27.3 0 0 1 4.551 4.507l-1.702-2.203a23.3 23.3 0 0 1 3 5.077l-1.096-2.596a19.4 19.4 0 0 1 1.238 4.518l-.388-2.886c.176 1.438.355 2.874.559 4.309l-.386-2.873c.145 1.214.165 2.417.053 3.635-.223 2.425 1.308 5.795 3.071 7.413 1.732 1.59 3.679 2.569 6.019 2.883 5.099.685 10.103-2.442 11.502-7.509 1.361-4.929 1.267-10.323-.641-15.099-1.941-4.858-4.544-9.203-8.363-12.855-4.002-3.827-8.464-6.344-13.568-8.358-4.662-1.84-9.678-2.563-14.637-3.06-4.794-.481-9.62-.423-14.431-.35l5.544 20.467c5.554-2.478 11.142-5.005 16.03-8.676 3.001-2.254 5.844-4.548 8.17-7.509 2.887-3.677 4.995-7.244 6.555-11.697 2.628-7.501 1.939-16.262-2.1-23.133s-10.777-11.44-18.19-13.907c-7.901-2.629-16.489-2.163-24.654-1.505l2.881 21.284c1.63-.662 3.219-1.211 4.625-2.247 2.274-1.676 3.605-3.028 5.289-5.293.528-.71.953-1.446 1.313-2.255.698-1.567 1.442-3.157 1.772-4.853 1.191-6.111.525-12.813-3.143-18.034-2.307-3.284-4.72-5.597-7.959-7.951-2.477-1.8-5.285-2.982-8.116-4.113-5.511-2.201-11.54-3.295-17.414-3.938-7.069-.774-14.156-.231-21.16.846-1.985.305-4.44 2.391-5.35 4.114-.955 1.808-1.336 3.672-1.062 5.709.568 4.228 4.32 7.938 8.793 7.763Z"/><path d="M522.467 416.815a171 171 0 0 1-12.231-23.541l.986 2.336c-3.057-7.256-5.631-14.709-7.678-22.313s-3.907-15.329-4.973-23.167l.376 2.796c-.345-2.688-.512-5.38-.152-8.075l-.377 2.805a17.7 17.7 0 0 1 1.145-4.101l-1.065 2.524a19.2 19.2 0 0 1 2.337-3.878l-1.655 2.142c1.531-1.92 3.335-3.564 5.264-5.074l-2.148 1.66c6.029-4.641 12.736-8.552 19.379-12.237a223 223 0 0 1 21.168-10.306l-2.579 1.088c14.199-5.985 28.998-10.54 44.121-13.504a224 224 0 0 1 12.908-2.134l-2.915.392a221 221 0 0 1 16.922-1.614c5.384-.301 10.793-.39 16.152.305l-2.937-.395c3.49.48 6.907 1.304 10.161 2.667l-2.646-1.116a30.2 30.2 0 0 1 6.237 3.627l-2.245-1.735c2.268 1.768 4.246 3.832 6.02 6.091l-1.738-2.249c4.368 5.67 7.397 12.231 10.549 18.617 3.618 7.328 7.174 14.689 10.354 22.219l-1.124-2.664c4.777 11.375 8.668 23.172 10.317 35.436l-.399-2.969c1.037 7.973 1.099 16.004.033 23.977l.398-2.964c-.801 5.737-2.254 11.349-4.473 16.705l1.107-2.624c-2.963 7.011-7.22 13.322-11.846 19.333l1.683-2.179c-2.866 3.705-5.907 7.269-8.783 10.965-3.63 4.665-7.24 9.707-8.373 15.655-.769 4.036-.741 7.501.054 11.537.608 3.088 1.956 6 3.191 8.871 2.067 4.804 4.273 9.549 6.493 14.284l3.796 8.097a88 88 0 0 0 4.332 8.07c2.452 4.072 7.518 5.729 11.875 3.891 4.238-1.789 6.88-6.645 5.506-11.218-.837-2.787-1.744-5.463-2.866-8.149l-3.346-8.017c-2.491-5.967-5.116-11.873-7.631-17.829l1.065 2.524c-.973-2.342-1.815-4.723-2.167-7.245l.378 2.816a16.5 16.5 0 0 1-.001-3.823l-.379 2.82c.231-1.598.684-3.116 1.309-4.602l-1.071 2.538c1.116-2.519 2.645-4.796 4.316-6.977l-1.666 2.156c4.895-6.305 10.275-12.186 14.975-18.654 4.745-6.53 8.5-13.604 11.135-21.25 5.187-15.054 4.937-31.388 2.068-46.875s-9.114-30.208-15.815-44.383c-3.108-6.575-6.265-13.158-9.674-19.583-3.29-6.202-7.3-12.471-12.695-17.052-1.815-1.541-3.732-3.045-5.769-4.293-2.084-1.277-4.338-2.212-6.596-3.134-3.145-1.284-6.41-2.081-9.769-2.562-7.541-1.08-14.959-1.035-22.542-.465-14.949 1.123-29.853 3.599-44.318 7.545s-28.469 9.362-41.885 15.957a219 219 0 0 0-18.315 10.113 196 196 0 0 0-9.011 5.87c-3.167 2.201-6.377 4.525-9.028 7.346-3.206 3.412-5.684 7.304-7.059 11.801-1.283 4.196-1.333 8.724-.791 13.041.998 7.943 2.58 15.903 4.846 23.587 4.224 14.327 10.53 28.269 18.185 41.081a174 174 0 0 0 5.727 8.942c1.363 1.995 3.101 3.563 5.489 4.221 2.199.605 5.126.332 7.077-.926 4.087-2.635 6.01-8.202 3.295-12.566Z"/><path d="M667.583 321.32c.447-.747.924-1.469 1.433-2.174l-1.321 1.71c1.064-1.345 2.37-2.488 3.711-3.549l-1.872 1.446c1.611-1.243 3.202-2.508 4.811-3.753l-1.946 1.503a33.7 33.7 0 0 1 7.088-4.089l-2.394 1.01c3.285-1.361 6.709-2.124 10.226-2.598l-2.78.374c3.547-.434 7.105-.377 10.645.093l-2.808-.377c4.145.592 8.166 1.733 12.034 3.331l-2.553-1.077c3.468 1.468 6.769 3.271 9.771 5.553l-2.186-1.689c2.134 1.662 4.082 3.505 5.753 5.638l-1.692-2.19a29.7 29.7 0 0 1 3.631 6.22l-1.092-2.588c1.123 2.678 1.861 5.474 2.263 8.348l-.388-2.884c.424 3.288.4 6.595-.024 9.881l.388-2.889a40.7 40.7 0 0 1-2.699 9.969l1.097-2.601c-1.429 3.37-3.321 6.49-5.552 9.388l1.705-2.207c-2.691 3.437-5.819 6.475-9.258 9.159l2.212-1.709c-4.928 3.795-10.404 6.85-16.122 9.281l2.6-1.097a92 92 0 0 1-4.341 1.692c-2.699.974-4.999 2.446-6.487 4.988-1.362 2.327-1.938 5.756-1.094 8.364.85 2.626 2.478 5.16 4.988 6.487 2.489 1.315 5.61 2.047 8.364 1.094 11.524-3.987 22.521-9.921 31.055-18.777 4.025-4.177 7.706-9.029 10.139-14.321 2.868-6.237 4.558-12.514 4.987-19.391.768-12.315-3.834-25.352-13.228-33.571-5.577-4.88-12.065-8.253-19.072-10.603-6.379-2.139-13.439-3.224-20.164-2.745-3.925.28-7.85.847-11.54 2.249-3.384 1.285-6.705 2.776-9.68 4.856-3.536 2.472-6.687 5.131-9.112 8.723-1.906 2.822-3.292 6.028-4.587 9.161-.73 1.765-.169 4.809.832 6.362.989 1.533 2.26 2.666 3.948 3.378a8.275 8.275 0 0 0 10.311-3.378Zm-180.759 41.231c-3.347.615-6.064 3.043-8.659 5.064l2.088-1.613c-7.698 5.922-16.551 10.616-22.807 18.226-3.751 4.563-6.741 9.336-8.522 15.016-.872 2.78-1.313 5.785-1.376 8.691-.085 3.919.797 7.454 2.403 10.988l1.749 2.264 2.264 1.749c2.175 1.273 4.666 1.659 7.133 1.327 4.298-.577 8.181-3.701 9.3-8.013l.093-.358c1.189-4.586-.743-10.221-5.095-12.52s-9.852-1.857-13.435 1.734l-.26.26 18.697 4.936c-.168-1.027-.395-2.043-.541-3.075l.404 3.006a19.7 19.7 0 0 1 .005-4.596l-.402 2.994c.28-2.08.849-4.076 1.64-6.018l-1.129 2.676c1.107-2.608 2.568-5.021 4.287-7.269l-1.739 2.251c3.374-4.314 7.687-7.624 11.848-11.127 2.093-1.761 4.203-3.503 6.239-5.331 1.011-.908 2.073-1.812 2.945-2.853 1.768-2.113 3.656-4.367 4.112-7.168a9.2 9.2 0 0 0 0-4.859 9.13 9.13 0 0 0-2.35-4.032c-2.457-2.457-5.603-2.954-8.891-2.35Zm39.431-1.459c12.969-.518 25.858-2.336 38.425-5.591 12.414-3.216 24.491-7.734 36.055-13.268a174 174 0 0 0 9.041-4.65c3.523-1.947 7.451-3.867 10.382-6.649 2.621-2.487 3.316-7.203 1.327-10.287a10.1 10.1 0 0 0-3.045-3.045c-1.65-1.064-4.669-1.559-6.541-.856-3.008 1.131-5.603 2.858-8.376 4.447a205 205 0 0 1-6.787 3.709 190 190 0 0 1-13.98 6.603l2.056-.868c-16.306 6.87-33.526 11.343-51.048 13.737l2.177-.293q-4.83.649-9.687 1.053c-2.148.179-4.074.77-5.642 2.337-1.384 1.384-2.426 3.654-2.337 5.642.187 4.18 3.512 8.157 7.979 7.979ZM215.143 565.377l87.669 27.367c44.84 13.997 90.199 28.094 137.072 31.154 5.288.345 11.288.898 14.52 5.097 1.817 2.361 2.357 5.434 2.835 8.375a2155 2155 0 0 1 25.241 238.595 1553 1553 0 0 0-198.447-78.575c-2.296-.731-4.758-1.573-6.144-3.543-1.568-2.228-1.297-5.203-1.22-7.926.438-15.463-7.373-29.759-12.554-44.335-11.527-32.428-10.319-68.21-20.995-100.928-6.696-20.52-18.119-40.265-17.774-61.847"/><path d="M212.763 574.01c15.09 5.454 30.378 10.364 45.604 15.432s30.407 9.818 45.627 14.672c29.11 9.283 58.315 18.409 88.331 24.322 9.11 1.795 18.271 3.24 27.476 4.443 4.315.563 8.64 1.046 12.974 1.437 3.863.348 7.758.476 11.605.975l-2.92-.392c1.921.273 3.798.68 5.601 1.411l-2.626-1.108c.926.409 1.769.884 2.581 1.489l-2.228-1.722c.678.55 1.269 1.146 1.81 1.833l-1.726-2.234a13 13 0 0 1 1.22 2.129l-1.116-2.644c1.21 2.952 1.507 6.19 1.975 9.32q.817 5.472 1.607 10.949l-.404-3.005c2.047 15.404 4.565 30.748 6.639 46.151l-.405-3.016a2163 2163 0 0 1 8.325 70.72 2151 2151 0 0 1 8.311 110.795l17.239-9.893c-26.265-12.583-52.66-24.735-79.577-35.872a1553 1553 0 0 0-113.261-41.789c-3.58-1.165-7.292-2.133-10.776-3.565l2.879 1.215c-.833-.371-1.603-.793-2.334-1.34l2.44 1.885a9 9 0 0 1-.949-.926l1.885 2.44a7.7 7.7 0 0 1-.94-1.601l1.215 2.88c-.216-.6-.364-1.191-.473-1.819l.431 3.206c-.396-3.146.042-6.358-.196-9.523-.318-4.229-.967-8.483-1.978-12.605-1.632-6.648-4.19-13.02-6.739-19.357s-5.015-12.683-6.927-19.247c-1.926-6.61-3.424-13.338-4.688-20.103-2.578-13.789-4.19-27.733-6.507-41.564-2.273-13.568-5.454-26.834-10.336-39.713-5.369-14.164-11.918-28.123-14.03-43.261l.424 3.157a69 69 0 0 1-.605-9.758c.071-6.213-5.513-12.16-11.875-11.875-6.494.291-11.799 5.217-11.875 11.875-.162 14.197 4.022 27.847 9.09 40.946 4.884 12.624 9.951 25.024 13.028 38.248 6.197 26.629 6.995 54.327 14.953 80.575 4.359 14.378 12.049 27.875 14.096 42.901l-.43-3.202c.33 2.618.478 5.244.396 7.882-.098 3.133-.084 6.421.91 9.426 1.52 4.597 4.653 8.671 9.023 10.902 2.915 1.488 6.02 2.429 9.12 3.419a1553 1553 0 0 1 95.84 34.127c11.87 4.67 23.681 9.489 35.434 14.448l-2.85-1.203c5.321 2.248 10.608 4.582 15.945 6.792l-2.845-1.201c17.302 7.346 34.546 14.9 51.519 22.983 3.786 1.803 7.799 2.204 11.565 0 3.349-1.96 5.875-5.919 5.674-9.893a2161 2161 0 0 0-9.081-116.902c-4.167-39.642-9.096-79.319-15.829-118.613-.923-5.388-1.503-10.957-4.269-15.8-3.18-5.568-9.033-9.253-15.225-10.558-5.302-1.117-10.786-1.198-16.167-1.658a336 336 0 0 1-15.917-1.757l2.909.391c-26.625-3.605-52.726-10.219-78.524-17.605-26.435-7.568-52.599-16.051-78.994-23.751-15.084-4.4-30.129-8.957-45.318-12.969-4.523-1.194-9.931 1.505-11.013 6.253-1.148 5.04 1.53 9.306 6.253 11.013Zm541.306-247.586a960 960 0 0 1 28.119 8.495q7.001 2.235 13.957 4.611c6.956 2.376 9.381 2.99 13.875 4.884l-2.589-1.093c.548.329 1.099.646 1.621 1.015l-2.291-17.776c-8.184 6.875-15.933 14.15-22.955 22.219-7.563 8.691-14.559 17.937-20.823 27.607-12.06 18.618-21.487 39.096-27.697 60.394-1.676 5.747-3.232 11.572-4.225 17.479-.635 3.776-1.155 7.57-1.644 11.368a211 211 0 0 0-.513 4.341c-.272 2.53-.067 4.603.335 7.192l-.381-2.836c.004.795.101 1.59.172 2.381.236 2.634.946 5.341 2.989 7.216 1.686 1.547 3.582 2.501 5.86 2.807 5.167.694 9.56-2.439 11.197-7.31.252-.749.537-1.494.739-2.258l-1.076 2.549c.654-1.5 1.481-3.156 1.853-4.799.234-1.033.388-2.089.593-3.129q.56-2.834 1.195-5.651c.863-3.827 1.862-7.623 2.796-11.433a222 222 0 0 1 6.894-22.747 268 268 0 0 1 4.884-12.468l-1.214 2.876a227 227 0 0 1 21.674-39.78 228 228 0 0 1 7.631-10.504l-1.853 2.398c8.839-11.431 18.74-22.331 29.575-31.906l1.77-2.291 1.141-2.704c.679-2.465.411-5.043-.57-7.37-1.747-4.14-5.791-6.912-10.344-6.958-.624-.006-1.241-.071-1.863-.123l2.882.387c-4.753-1.078-9.439-2.631-14.147-3.899s-9.459-2.517-14.198-3.738a958 958 0 0 0-28.561-6.892c-2.357-.531-4.85-.329-6.97.912-1.876 1.098-3.666 3.249-4.157 5.406-1.098 4.819 1.448 9.736 6.318 11.127Z"/><path d="M837.034 434.146c2.211-3.669 4.57-7.253 6.888-10.853s4.818-7.124 7.445-10.529l-1.482 1.919c1.297-1.671 2.636-3.306 3.918-4.988l-1.509 1.954c8.183-10.369 17.73-19.809 28.166-27.905l-2.102 1.624a150 150 0 0 1 17.318-11.562 145 145 0 0 1 9.151-4.796c1.425-.683 2.893-1.294 4.264-2.084 2.783-1.604 4.993-3.667 6.833-6.276 2.376-3.369 2.723-7.517 2.044-11.457-.439-2.543-1.8-4.866-3.307-6.924a523 523 0 0 0-7.478-9.943 507 507 0 0 0-16.89-20.797 527 527 0 0 0-33.686-35.738c-3.417-3.302-6.81-6.533-10.645-9.358-2.101-1.548-4.433-2.58-6.874-3.502a13 13 0 0 0-2.484-.646c-1.809-.292-3.654-.606-5.49-.436-3.851.355-6.788 1.308-10.296 2.882-1.765.792-3.459 1.739-5.141 2.692a124 124 0 0 0-9.231 5.786c-6.697 4.618-13.085 9.776-18.893 15.475-5.758 5.65-10.853 11.97-15.456 18.587a127 127 0 0 0-3.063 4.623c-3.041 4.806-1.164 12.179 3.894 14.851 2.519 1.331 5.571 1.998 8.364 1.094s4.834-2.549 6.487-4.988a130 130 0 0 1 4.582-6.341l-1.716 2.222c6.953-8.976 15.051-17.143 24.034-24.089l-2.263 1.748a127 127 0 0 1 9.606-6.708c3.364-2.121 6.837-4.241 10.491-5.825l-2.67 1.127c1.236-.508 2.488-.908 3.807-1.131l-2.971.399c.998-.13 1.957-.145 2.956-.029l-2.969-.399c1.055.162 2.052.452 3.04.855l-2.667-1.125c1.496.661 2.856 1.527 4.159 2.511l-2.257-1.744c4.674 3.631 8.841 8.046 13.052 12.194a528 528 0 0 1 36.736 40.126c4.399 5.333 8.735 10.72 12.962 16.19l-1.698-2.197c1.391 1.804 3.064 3.599 3.967 5.712l-1.088-2.578c.136.391.231.749.301 1.158l-.385-2.866c.028.365.03.684-.003 1.048l.385-2.864c-.071.418-.18.797-.341 1.189l1.085-2.571a7 7 0 0 1-.651 1.063l1.681-2.176a9.7 9.7 0 0 1-1.411 1.378l2.172-1.678c-2.432 1.843-5.388 2.965-8.075 4.38a146 146 0 0 0-8.629 4.926c-6.178 3.81-12.041 8.106-17.68 12.673-5.078 4.113-10.021 8.53-14.432 13.359-4.86 5.32-9.356 10.976-13.531 16.848-2.136 3.004-4.057 6.187-5.897 9.379-2.124 3.685-4.443 7.547-5.861 11.565l.873-2.069c-1.34 3.171-2.626 6.348-3.765 9.597-.619 1.765-.214 4.483.79 6.041.939 1.456 2.146 2.531 3.749 3.208 3.589 1.515 7.758.164 9.789-3.208Z"/><path d="M887.736 416.455q1.017-.448 2.039-.881l-1.822.769c3.502-1.464 7.042-2.811 10.728-3.731 3.614-.902 7.233-1.801 10.856-2.664 7.367-1.754 14.889-3.001 22.392-4.01l-2.618.352c15.141-2.007 30.418-2.548 45.669-3.031 5.847-.185 10.371-4.693 10.562-10.562.203-6.238-.197-12.507-.995-18.694-.883-6.848-2.035-13.632-3.734-20.328-3.067-12.091-7.431-23.814-12.263-35.3a685 685 0 0 0-8.413-19.163c-1.225-2.68-2.342-5.467-3.749-8.057a19.6 19.6 0 0 0-3.737-4.828c-1.049-.989-2.324-1.96-3.63-2.602-2.436-1.198-4.489-1.529-7.227-1.783-5.505-.51-11.111-.596-16.636-.661-5.49-.065-10.965.096-16.425.698-13.825 1.523-27.717 4.963-39.167 13.236-2.545 1.838-4.532 3.884-5.393 7.014-.774 2.809-.424 6.55 1.183 9.043 1.616 2.506 4.021 4.712 7.014 5.393 2.911.663 6.516.634 9.043-1.183 3.465-2.492 7.196-4.549 11.127-6.209l-2.807 1.184c6.175-2.561 12.691-4.102 19.303-5.008l-3.129.42c6.032-.802 12.137-1.122 18.219-1.225 3.024-.051 6.049-.038 9.073.013 3.059.051 6.175-.005 9.222.286l-3.048-.41c1.42.193 2.828.506 4.265.557l-3.022-.406c.418.065.783.152 1.183.287l-2.665-1.125c.354.158.631.306.938.542l-2.225-1.719q.26.259.483.549l-1.719-2.224c1.351 1.834 2.173 4.088 3.132 6.142q1.665 3.562 3.304 7.136a533 533 0 0 1 6.284 14.221l-1.1-2.606c7.017 16.64 12.972 33.903 15.435 51.86l-.382-2.841c.789 5.908 1.142 11.831 1.134 17.79l10.562-10.562c-25.088 1.576-50.836 3.033-74.696 11.581-3.741 1.34-7.212 3.212-10.774 4.942-3.162 1.536-6.303 3.076-9.359 4.819-3.416 1.949-4.879 6.895-2.696 10.281 1.034 1.605 2.575 3.017 4.491 3.453 2.094.477 3.84.103 5.79-.758ZM214.432 539.602c-9.579-16.403-19.977-32.302-30.211-48.305s-20.316-32.12-30.579-48.112c-20.352-31.714-41.148-63.292-60.475-95.644-2.119-3.547-4.151-7.148-5.989-10.849q-.654-1.315-1.274-2.646c-.054-.117-1.546-3.647-.644-1.397a76 76 0 0 1-2.3-6.515 60 60 0 0 1-1.37-5.506c-.062-.313-.504-3.947-.244-1.239a55 55 0 0 1-.207-2.798c-.092-2.076.003-4.125.168-6.194-.171 2.149-.036.266.062-.188.247-1.139.479-2.274.793-3.397.271-.971.661-3.287 1.359-4.037l-.565 1.334a41 41 0 0 1 1.482-2.997c.801-1.469 1.731-2.837 2.64-4.238 1.159-1.787-.243.183-.394.437.546-.921 1.448-1.772 2.163-2.566 1.903-2.114 3.978-4.07 6.165-5.886.535-.444 2.381-2.438.288-.266.572-.593 1.463-1.075 2.138-1.546a87 87 0 0 1 4.476-2.918 110 110 0 0 1 7.945-4.384 137 137 0 0 1 4.983-2.368c.561-.253 1.125-.498 1.687-.749q1.863-.803-.34.132.853-.356 1.708-.702c6.433-2.602 13.007-4.803 19.609-6.928l54.944-17.686 218.528-70.342 109.888-35.372c17.408-5.604 34.74-11.768 52.37-16.638 3.625-1.001 7.279-1.901 10.969-2.627a111 111 0 0 1 2.627-.487c.41-.071 3.93-.582.955-.198a81 81 0 0 1 6.258-.568c3.404-.17 6.816-.091 10.203.302-3.103-.36.202.096.714.201q1.466.3 2.909.696.96.266 1.908.574a40 40 0 0 1 1.88.667q-2.054-.912-.152-.05c1.515.786 3.008 1.546 4.443 2.477.299.194 2.978 2.281.976.612.551.46 1.097.923 1.629 1.405 1.599 1.447 3.089 3.012 4.5 4.642.473.546.927 1.107 1.39 1.662q1.308 1.645.093.099.653.871 1.289 1.754c4.948 6.865 9.513 14.034 14.034 21.184a668 668 0 0 1 26.034 44.947 670 670 0 0 1 23.402 49.002c.05.116 1.567 3.693.611 1.423 1.022 2.426 2.02 4.863 3.049 7.286.461 1.085.929 2.166 1.386 3.252-.755-1.795.022.06.145.359.978 2.369 1.959 4.736 2.918 7.113a1336 1336 0 0 1 9.307 23.681c3.394 8.895 6.302 15.569 9.429 24.321 1.795 5.023 6.735 8.39 12.154 6.901 5.272-1.449 8.185-6.956 6.901-12.154-4.356-17.635-9.235-34.879-15.62-51.907-6.448-17.196-13.879-34.033-21.888-50.558a669 669 0 0 0-25.047-46.847c-9.098-15.502-18.483-31.254-29.581-45.424-5.419-6.919-12.058-13.085-20.147-16.731-8.158-3.677-16.812-5.427-25.775-5.383-17.336.086-33.992 5.791-50.293 11.046l-113.62 36.63-225.368 72.656-56.81 18.315c-16.008 5.161-32.178 9.915-47.572 16.759-12.6 5.602-25.168 13.21-33.88 24.102-11.282 14.105-15.028 31.383-10.808 49.028 4.329 18.1 15.604 34.015 25.456 49.473a8482 8482 0 0 0 31.876 49.635c21.247 32.835 42.722 65.585 65.044 97.703 5.459 7.854 10.937 15.611 16.681 23.228 3.117 4.134 8.289 6.28 13.137 3.445 4.491-2.627 6.069-8.643 3.445-13.137Z"/><path d="M78.632 283.431c-20.778 26.54-39.847 55.309-48.735 87.822s-6.369 69.51 13.276 96.9c9.319 12.993 21.963 23.244 35.196 32.22 36.825 24.98 79.518 41.247 123.628 47.106L100.204 413.117c-20.106-26.539-41.317-57.084-36.406-90.014"/><path d="M72.137 276.937c-1.912 2.241-3.829 4.474-5.62 6.813l1.48-1.915c-2 2.237-4.095 4.355-5.89 6.762l1.574-2.037c-6.216 7.964-12.545 15.896-18.095 24.35-5.083 7.742-9.804 15.729-13.977 23.999-2.756 5.461-5.218 11.052-7.538 16.711l1.181-2.799c-4.223 9.746-7.334 20.082-9.303 30.518-1.925 10.204-2.998 20.641-2.76 31.031.466 20.395 5.451 41.019 16.189 58.506 11.37 18.516 28.517 32.287 46.469 44.063 17.864 11.718 37.027 21.28 56.944 28.981a288.5 288.5 0 0 0 58.963 15.888c3.41.539 6.801.855 10.241 1.068l3.029-.407 2.722-1.149c2.142-1.254 3.708-3.189 4.662-5.449 1.753-4.153.922-9.216-2.356-12.447l-.372-.366 1.77 2.291c-18.35-24.22-36.883-48.302-55.232-72.522l-27.357-36.11c-8.822-11.644-17.802-23.187-26.39-35.006-8.648-11.901-16.799-24.318-22.581-37.895l1.118 2.648c-3.122-7.41-5.48-15.128-6.587-23.104l.396 2.947c-.809-6.086-.862-12.226-.061-18.316l-.396 2.947q.06-.443.126-.885a8.4 8.4 0 0 0 .198-4.421 8.25 8.25 0 0 0-1.316-4.122c-1.346-2.3-3.983-4.493-6.626-5.095-2.838-.646-6.024-.507-8.543 1.118-2.252 1.452-4.69 3.847-5.095 6.626-.686 4.708-1.2 9.386-1.096 14.148s.701 9.496 1.538 14.16c1.523 8.478 4.514 16.532 7.997 24.383 6.572 14.816 15.907 28.241 25.563 41.184 10.984 14.724 22.172 29.299 33.265 43.941 11.292 14.905 22.607 29.792 33.851 44.733l33.721 44.809c1.394 1.852 3.094 3.689 4.212 5.716l12.867-16.738c-9.825-2.032-19.73-3.558-29.491-5.929a289 289 0 0 1-28.635-8.545 293 293 0 0 1-15.767-6.129l2.826 1.193c-16.718-7.081-32.775-15.701-47.869-25.794-4.223-2.824-8.37-5.76-12.398-8.857l2.404 1.858c-8.349-6.455-16.146-13.65-22.619-22.013l1.861 2.409c-4.755-6.205-8.665-12.981-11.718-20.175l1.201 2.847c-3.648-8.702-6.047-17.86-7.323-27.203l.424 3.157c-1.503-11.309-1.381-22.776.115-34.078l-.422 3.139c1.995-14.721 6.49-28.925 12.247-42.586l-1.166 2.763c7.594-17.902 17.772-34.718 28.705-50.761 3.101-4.55 5.95-9.234 9.161-13.72 1.259-1.759 1.577-5.066.926-7.077-.627-1.936-1.674-3.521-3.291-4.771-3.372-2.605-9.08-2.773-12.06.718Z"/><path d="M105.964 404.559c31.411-12.296 62.894-24.422 94.227-36.916l94.064-37.506q47.034-18.756 94.05-37.557l47.019-18.801c15.083-6.031 30.086-12.437 45.516-17.542 7.514-2.486 15.097-4.277 22.795-6.048 1.224-.282-.904.095-.904.095.406-.138 1.158-.125 1.548-.153a25 25 0 0 1 2.312-.066c.044 0 1.391-.037 1.524.089.107.101-2.194-.536-.958-.085.452.165.992.309 1.465.397 1.278.236-1.523-.883-.593-.262.531.355 1.297.915 1.896 1.162-.255-.105-1.873-1.673-.683-.459.223.227.462.439.685.667.398.405 1.008 1.516 1.492 1.685-.049-.017-1.252-1.779-.686-.849.283.465.624.905.917 1.364 4.068 6.362 7.158 13.461 10.598 20.175 3.789 7.394 7.406 14.912 11.485 22.15 2.01 3.567 4.053 7.071 6.271 10.513 2.618 4.063 7.523 5.858 12.048 3.948 4.043-1.706 7.343-6.89 5.586-11.382-6.369-16.291-14.915-31.679-22.845-47.247-3.668-7.202-7.374-14.139-14.128-18.939-7.972-5.666-18.042-4.475-27.002-2.5-15.812 3.485-30.911 9.529-45.893 15.546q-23.887 9.595-47.773 19.194c-32.019 12.865-64.039 25.726-96.046 38.622l-95.614 38.525c-31.89 12.849-63.664 25.988-95.473 39.037l-11.93 4.894c-2.378.976-4.305 2.041-5.655 4.349-1.187 2.028-1.69 5.018-.954 7.292 1.444 4.462 6.705 8.541 11.64 6.609Z"/><path d="M514.311 246.979c9.07-5.348 17.441-11.917 25.124-19.102 7.271-6.8 13.792-14.397 20.093-22.091 12.883-15.732 24.778-32.283 38.759-47.091 4.419-4.681 9.005-9.204 13.746-13.559s9.73-8.416 14.642-12.583c1.719-1.458 2.925-4.613 2.826-6.822-.098-2.179-.732-4.112-2.072-5.846-1.232-1.594-2.991-2.997-5.012-3.458-2.36-.538-5.408-.553-7.435.973-16.97 12.779-31.833 28.384-45.168 44.855-11.747 14.51-22.658 29.722-35.247 43.536-6.969 7.646-14.344 14.955-22.529 21.302l1.834-1.417a123 123 0 0 1-8.504 6.004c-1.925 1.239-3.454 3.053-4.072 5.295-.584 2.121-.32 4.945.893 6.827 2.592 4.021 7.849 5.698 12.122 3.178Z"/></svg>