<?xml version="1.0" encoding="UTF-8"?><svg xmlns="http://www.w3.org/2000/svg" data-name="ARTWORK" viewBox="0 0 1000 1000"><path d="M401.832 635.438c-29.356 32.044-59.523 63.347-90.876 93.445-29.212 28.043-59.516 54.852-90.323 81.122-16.396 13.982-32.98 27.742-49.676 41.365a4583 4583 0 0 1-26.517 21.464c-8.991 7.226-15.586 12.705-24.962 19.111-4.548 3.107-9.227 6.028-14.087 8.623a122 122 0 0 1-6.768 3.332c-1.249.571-.278.145-.017.035-.575.244-1.159.469-1.741.695a88 88 0 0 1-4.107 1.485 80 80 0 0 1-7.817 2.175 74 74 0 0 1-3.694.728c-.62.106-1.243.215-1.867.296 1.088-.143 1.027-.094-.021-.052-1.986.079-3.951.224-5.942.178a55 55 0 0 1-2.989-.151c-.665-.051-1.328-.142-1.992-.189 1.036.073 1.566.258.217.016-4.175-.749-8.044-2.003-12.051-3.339-1.295-.432.429.175.577.248-.445-.219-.907-.405-1.35-.628-1.031-.519-2.064-1.027-3.072-1.591-1.86-1.041-3.559-2.279-5.342-3.434-1.129-.731.408.301.523.405-.357-.322-.746-.608-1.102-.93-.71-.642-1.424-1.275-2.105-1.948-.677-.668-1.311-1.371-1.959-2.066-.322-.345-.598-.734-.924-1.075.653.684.925 1.321.164.199a48 48 0 0 1-3.111-5.226 26 26 0 0 1-.594-1.275c.089.202.571 1.94.347.693-.19-1.057-.707-2.121-.972-3.172-.236-.935-.392-1.881-.586-2.824.477 2.316.05.091.001-.998a37 37 0 0 1 .039-3.905c.034-.551.089-1.099.134-1.65-.099 1.205-.186 1.064.056-.047a61 61 0 0 1 1.751-6.328c.706-2.118-.499.824.471-1.204a66 66 0 0 1 1.781-3.488 68 68 0 0 1 3.95-6.267c.301-.426 2.005-2.68.899-1.274a92 92 0 0 1 2.622-3.166c3.357-3.896 6.987-7.55 10.739-11.064 15.264-14.297 31.58-27.583 47.497-41.143 34.528-29.413 69.265-58.585 103.391-88.466 33.801-29.596 67.112-59.838 98.599-91.905 14.932-15.208 29.581-30.785 43.178-47.207 13.905-16.793 26.964-34.632 36.15-54.497 9.994-21.611 15.198-44.571 14.277-68.454-.925-23.984-5.962-48.703-13.014-71.624-6.194-20.129-15.525-39.143-24.925-57.927-4.455-8.902-8.935-17.795-13.064-26.855a407 407 0 0 1-2.83-6.377c-.553-1.272-.022-.031.073.194q-.45-1.07-.888-2.143a244 244 0 0 1-1.505-3.767 204 204 0 0 1-4.803-13.652 161 161 0 0 1-3.823-14.623q-.726-3.45-1.28-6.93c-.092-.58-.467-3.429-.235-1.505a140 140 0 0 1-.5-4.755c-.45-5.201-.604-10.44-.548-15.659.03-2.789.136-5.578.36-8.358a79 79 0 0 1 .383-3.825c-.037.282-.216 1.432.018.028.139-.836.282-1.671.444-2.503 1.055-5.401 2.312-9.423 4.318-13.171 1.042-1.948 2.245-3.78 3.492-5.599.251-.365.53-.711.78-1.076-.047.069-1.422 1.663-.529.7.681-.735 1.287-1.545 1.963-2.288a52 52 0 0 1 3.583-3.573c.719-.65 1.493-1.238 2.211-1.886.977-.882-.765.59-.796.611.455-.302.885-.646 1.334-.958 2.833-1.968 5.849-3.419 8.895-5.001 1.178-.612-.958.395-.977.402.386-.141.761-.31 1.147-.451.904-.331 1.804-.668 2.718-.971a68 68 0 0 1 5.201-1.49 75 75 0 0 1 4.957-1.033c.447-.078 3.161-.542 1.363-.241-1.712.287 1.578-.164 2.264-.227 7.572-.69 15.213-.447 22.763.393.914.102 1.826.217 2.739.331-2.13-.267-.734-.092.475.096q2.984.465 5.948 1.039c3.969.767 7.911 1.674 11.822 2.697 7.544 1.974 14.974 4.378 22.271 7.126q2.686 1.012 5.347 2.086c.805.325 1.603.666 2.409.987 1.262.503-.849-.36-.882-.375.519.226 1.041.446 1.56.671a239 239 0 0 1 9.629 4.434c7.858 3.834 15.453 8.188 22.882 12.794 19.557 12.127 35.77 24.713 52.826 39.665 31.153 27.308 60.112 57.393 86.31 89.479a777 777 0 0 1 11.662 14.638c1.359 1.744-.392-.522.956 1.237a820 820 0 0 1 22.961 31.417c11.8 16.977 22.966 34.397 33.412 52.24a668 668 0 0 1 28.833 54.966 578 578 0 0 1 6.322 14.004c.934 2.149 1.858 4.303 2.784 6.456-.838-1.947.25.596.522 1.249q.78 1.877 1.546 3.758a501 501 0 0 1 10.212 27.269c5.987 17.569 10.945 35.521 14.305 53.784a306 306 0 0 1 1.536 9.121q.153 1.006.299 2.013c.048.328.379 2.578.121.797-.251-1.733.165 1.305.224 1.786q.183 1.49.349 2.983.357 3.204.635 6.418c.723 8.413 1.039 16.873.763 25.314-.003.084-.171 2.175-.024.814.146-1.349-.13.702-.151.799-.263 1.25-.544 2.492-.9 3.72s-.772 2.445-1.23 3.641c.665-1.736-.806 1.621-1.098 2.175-1.206 2.292-2.653 4.382-4.068 6.541-.846 1.292.023-.026.207-.241-.464.544-.918 1.093-1.399 1.622a43 43 0 0 1-2.621 2.633c-.358.33-2.649 2.254-1.515 1.363s-1.277.865-1.687 1.133c-1.927 1.259-3.943 2.322-6.002 3.345-.205.102-1.839.833-.401.208 1.546-.672-.557.2-.933.339a60 60 0 0 1-3.055 1.038 67 67 0 0 1-6.841 1.726c-1.075.212-2.158.369-3.235.563 2.316-.417.157-.031-.911.069-2.557.24-5.127.357-7.696.362a89 89 0 0 1-9.809-.523c-.444-.047-.889-.118-1.334-.154-1.796-.145 2.567.425.79.108-7.873-1.407-15.535-3.142-23.121-5.72-3.754-1.276-7.45-2.697-11.121-4.193-2.333-.951 1.866.832-.446-.196-.889-.396-1.782-.782-2.67-1.182a252 252 0 0 1-6.23-2.91c-7.721-3.731-15.266-7.82-22.706-12.081-15.531-8.894-30.614-18.538-45.927-27.796-29.761-17.993-61.438-35.55-96.635-39.073-8.254-.826-16.428-.524-24.632.661a90 90 0 0 0-10.781 2.214 90 90 0 0 0-5.845 1.807 76 76 0 0 0-2.699.984c-1.17.457-2.31.983-3.476 1.449.378-.151 2.495-1.045.326-.178-6.107 2.439-11.073 8.536-8.812 15.521 1.914 5.913 8.958 11.433 15.521 8.812 3.82-1.526 7.802-2.714 11.806-3.656 1.953-.46 3.921-.824 5.896-1.176.311-.055 1.059-.301 1.36-.214.037.011-2.704.295-1.188.159 1.204-.109 2.404-.271 3.608-.385a95.5 95.5 0 0 1 17.117-.093c1.052.087 2.099.208 3.15.308 2.266.215-2.492-.416.583.072 8.108 1.286 16.043 3.328 23.804 6.002q2.707.934 5.382 1.955 1.575.601 3.138 1.229c1.076.432 3.347 1.405.92.355a280 280 0 0 1 11.645 5.338c32.502 15.884 61.855 37.35 93.716 54.393 31.552 16.877 71.02 32.534 106.803 19.6 22.968-8.302 40.24-28.949 41.276-53.922.748-18.031-1.62-36.433-4.882-54.123-7.268-39.423-21.689-77.464-38.946-113.525-18.278-38.196-40.212-74.729-64.566-109.349-23.507-33.415-49.318-65.396-77.856-94.657-32.765-33.594-68.001-65.824-108.581-89.789-28.626-16.905-60.797-29.438-94.069-32.587-16.639-1.575-33.517.146-48.879 6.947-16.99 7.521-29.868 22.872-35.146 40.587-6.399 21.477-4.214 46.616 1.159 68.075 5.103 20.38 14.165 39.592 23.471 58.336 4.633 9.331 9.375 18.609 13.817 28.033a424 424 0 0 1 2.981 6.459q.855 1.894 1.687 3.798c.223.511 1.57 3.683.892 2.054 1.989 4.778 3.852 9.61 5.534 14.505 3.776 10.988 6.424 22.329 8.878 33.674 2.658 12.292 4.506 22.898 5.18 35.015s.089 23.095-2.451 34.214a133 133 0 0 1-4.502 15.322c-2.017 5.62-2.872 7.562-5.518 12.963-4.836 9.873-10.627 19.261-16.953 28.244-6.232 8.849-11.671 15.585-19.154 24.296-29.155 33.941-61.56 65.112-94.544 95.285-34.641 31.69-70.339 62.2-106.129 92.578-17.297 14.682-34.625 29.329-51.866 44.076a3601 3601 0 0 0-24.362 21.003c-7.875 6.858-15.737 13.8-22.425 21.856-7.073 8.519-13.338 18.03-16.038 28.915-2.779 11.203-1.684 22.603 3.162 33.04 8.036 17.309 27.177 28.634 45.561 31.405 22.926 3.456 44.923-4.742 63.999-17.102 19.739-12.79 37.641-28.69 55.803-43.58 33.215-27.23 65.96-55.004 97.605-84.052 30.952-28.412 60.866-57.93 89.756-88.434 15.455-16.318 30.625-32.903 45.587-49.674 3.601-4.036 3.98-10.19 0-14.17-3.705-3.705-10.501-4.005-14.17 0Z"/><path d="M401.207 226.574c-.465 2.532-.822 5.079-1.147 7.633a91 91 0 0 0-.287 2.45l-.051.492q.478-3.381-.119.985c-.047.656-.058 1.319-.082 1.976-.139 3.836-.074 7.678.166 11.509.557 8.888 1.92 17.756 3.99 26.415 4.229 17.694 11.087 34.743 18.974 51.101 14.945 30.993 34.303 59.771 55.085 87.117 8.791 11.568 17.84 22.856 27.709 33.527 10.6 11.461 21.689 22.466 33.02 33.201a1091 1091 0 0 0 77.692 66.932c13.156 10.302 26.475 20.399 40.055 30.137 10.938 7.843 22.174 15.642 33.914 22.252 2.428 1.367 4.917 2.661 7.294 4.114 3.939 2.407 9.865.99 12.059-3.162 2.268-4.293 1.043-9.49-3.162-12.059-5.058-3.09-9.831-6.791-14.67-10.213a700 700 0 0 1-16.506-12.069c-5.863-4.41-11.81-8.706-17.646-13.153q-2.191-1.67-4.373-3.35c-.57-.439-2.124-1.649.487.377l-1.203-.931q-1.31-1.016-2.618-2.036-4.809-3.75-9.578-7.551c-26.422-21.05-52.276-42.936-77.086-65.868-21.673-20.033-42.966-40.908-61.469-63.956a838 838 0 0 1-8.384-10.617l-.895-1.155c2.134 2.747.925 1.197.46.593a771 771 0 0 1-3.645-4.778 666 666 0 0 1-14.633-20.084c-10.069-14.393-19.545-29.224-28-44.627-4.225-7.696-8.191-15.536-11.802-23.539a277 277 0 0 1-1.379-3.106c-.314-.718-1.795-4.388-.561-1.274-.827-2.088-1.713-4.152-2.529-6.245a229 229 0 0 1-4.3-11.982 190 190 0 0 1-6.229-24.314 146 146 0 0 1-.93-5.607c-.045-.312-.283-2.052-.043-.271s.01.041-.028-.272a128 128 0 0 1-.384-3.547 117 117 0 0 1-.531-11.509c.017-3.754.019-7.493.31-11.241.331-4.27-3.539-7.944-7.481-8.474-3.922-.527-8.69 1.948-9.467 6.18Zm1.357 428.436c11.285 10.278 22.016 21.287 31.374 33.367l-1.721-2.228c6.749 8.763 12.659 18.187 16.976 28.392l-1.159-2.746c3.061 7.33 5.175 14.944 6.256 22.815l-.423-3.146a79 79 0 0 1-.028 20.773l.428-3.185c-1.113 7.971-3.399 15.698-6.515 23.109l1.225-2.903c-5.102 11.988-12.228 22.975-20.135 33.289l1.943-2.515c-.854 1.1-1.708 2.202-2.554 3.308l1.944-2.516c-12.409 16.056-26.512 30.836-40.563 45.447-14.606 15.189-29.38 30.234-44.351 45.065-7.325 7.256-14.844 14.344-23.009 20.656l2.592-2.003c-7.264 5.578-15.033 10.501-23.484 14.08l3.064-1.293c-5.895 2.456-12.035 4.21-18.363 5.097l3.413-.459c-6.718.893-13.485.802-20.2-.073l3.414.459c-8.263-1.126-16.292-3.456-23.975-6.679l3.052 1.288c-9.488-4.033-18.3-9.387-26.454-15.679l2.569 1.985c-14.396-11.191-26.565-24.866-38.063-38.938a865 865 0 0 1-4.918-6.081c-.775-.966-1.495-1.883-2.451-2.674-1.633-1.351-3.322-3.074-5.185-4.027l2.309 1.784-.323-.408c-1.694-2.137-5.478-3.342-8.069-3.342-2.799 0-6.142 1.243-8.069 3.342-1.996 2.175-3.478 5.03-3.342 8.069l.408 3.034a11.4 11.4 0 0 0 2.935 5.035l.323.408-2.935-5.035c.923 3.746 3.37 7.346 5.706 10.31a802 802 0 0 0 4.387 5.507 519 519 0 0 0 8.785 10.679c5.884 6.937 12.018 13.675 18.613 19.945 7.228 6.872 15.046 13.261 23.392 18.729 8.15 5.339 16.983 9.617 26.144 12.923 18.153 6.551 38.591 7.876 57.106 1.982 17.907-5.7 33.2-16.839 46.986-29.331 6.422-5.819 12.527-11.975 18.629-18.125 7.047-7.103 14.09-14.21 21.087-21.362 14.049-14.362 27.845-28.98 41.091-44.089 12.118-13.821 23.862-28.388 32.472-44.704 8.73-16.544 14.457-35.128 13.352-54.003-1.054-17.994-7.593-35.13-17.366-50.171-9.595-14.768-21.664-27.655-34.896-39.201a341 341 0 0 0-9.451-7.932c-2.102-1.704-4.176-2.894-6.986-2.894-2.423 0-5.318 1.076-6.986 2.894-3.481 3.793-4.081 10.256 0 13.973ZM136.643 760.017c6.302.361 11.079-5.307 10.972-11.303-.071-3.967-1.868-7.321-4.343-10.292-2.739-3.287-5.849-6.328-8.969-9.252-3.673-3.441-7.62-6.668-11.83-9.43a47.5 47.5 0 0 0-5.512-3.132c-2.649-1.269-5.394-2.168-8.102-3.256l2.703 1.141c-1.782-.755-3.568-1.702-5.486-2.062-1.975-.371-3.98-.63-5.978-.834a31 31 0 0 0-6.736.032c-6.144.725-12.178 2.245-17.283 5.934l14.152 18.341 16.03-16.765 7.929-8.293 3.964-4.146c.689-.72 1.402-1.425 2.044-2.187 1.142-1.355 2.006-2.58 2.689-4.198.717-1.698.957-3.382 1.04-5.229.118-2.633-1.29-6.022-3.234-7.806-2.033-1.866-4.941-3.522-7.806-3.234-1.252.126-2.572.208-3.796.487-1.975.45-4.13 1.94-5.577 3.297-.727.682-1.394 1.429-2.078 2.154l-3.765 3.993-8.043 8.531-15.914 16.881c-4.013 4.256-4.511 10.676-.913 15.333 1.491 1.93 3.621 3.628 6.066 4.185 2.88.656 6.51.648 8.999-1.177a23.7 23.7 0 0 1 4.612-2.64l-2.785 1.175a26.7 26.7 0 0 1 6.571-1.76l-3.093.416c2.694-.337 5.394-.307 8.087.026l-3.085-.415c2.562.346 5.108.751 7.678 1.048l-3.008-.404c1.887.296 3.782 1.055 5.54 1.78l-2.659-1.122c4.443 1.887 8.52 4.467 12.344 7.397l-2.18-1.684c2.493 1.931 4.88 3.992 7.207 6.12a251 251 0 0 1 3.458 3.231c1 .949 2.164 1.769 3.034 2.843L128 751.687c.301.408.556.824.773 1.282l-1.012-2.397c.14.345.246.679.311 1.046l-.356-2.646q.033.242.015.485l.354-2.636a7 7 0 0 1-.184.838l.979-2.321a1.2 1.2 0 0 1-.217.362l1.489-1.927-.169.169c-2.685 2.693-3.408 6.824-1.947 10.286 1.505 3.567 4.782 5.57 8.606 5.789Zm76.467-65.971c6.302.361 11.079-5.307 10.972-11.303-.071-3.967-1.868-7.321-4.343-10.292-2.739-3.287-5.849-6.328-8.969-9.252-3.673-3.441-7.62-6.668-11.83-9.43a47.5 47.5 0 0 0-5.512-3.132c-2.649-1.269-5.394-2.168-8.102-3.256l2.703 1.141c-1.782-.755-3.568-1.702-5.486-2.062-1.975-.371-3.98-.63-5.978-.834a31 31 0 0 0-6.736.032c-6.144.725-12.178 2.245-17.283 5.934l14.152 18.341 16.03-16.765 7.929-8.293 3.964-4.146c.689-.72 1.402-1.425 2.044-2.187 1.142-1.355 2.006-2.58 2.689-4.198.717-1.698.957-3.382 1.04-5.229.118-2.633-1.29-6.022-3.234-7.806-2.033-1.866-4.941-3.522-7.806-3.234-1.252.126-2.572.208-3.796.487-1.975.45-4.13 1.94-5.577 3.297-.727.682-1.394 1.429-2.078 2.154l-3.765 3.993-8.043 8.531-15.914 16.881c-4.013 4.256-4.511 10.676-.913 15.333 1.491 1.93 3.621 3.628 6.066 4.185 2.88.656 6.51.648 8.999-1.177a23.7 23.7 0 0 1 4.612-2.64l-2.785 1.175a26.7 26.7 0 0 1 6.571-1.76l-3.093.416c2.694-.337 5.394-.307 8.087.026l-3.085-.415c2.562.346 5.108.751 7.678 1.048l-3.008-.404c1.887.296 3.782 1.055 5.54 1.78l-2.659-1.122c4.443 1.887 8.52 4.467 12.344 7.397l-2.18-1.684c2.493 1.931 4.88 3.992 7.207 6.12a251 251 0 0 1 3.458 3.231c1 .949 2.164 1.769 3.034 2.843l-1.587-2.054c.301.408.556.824.773 1.282l-1.012-2.397c.14.345.246.679.311 1.046l-.356-2.646q.033.242.015.485l.354-2.636a7 7 0 0 1-.184.838l.979-2.321a1.2 1.2 0 0 1-.217.362l1.489-1.927-.169.169c-2.685 2.693-3.408 6.824-1.947 10.286 1.505 3.567 4.782 5.57 8.606 5.789Zm76.467-65.972c6.302.361 11.079-5.307 10.972-11.303-.071-3.967-1.868-7.321-4.343-10.292-2.739-3.287-5.849-6.328-8.969-9.252-3.673-3.441-7.62-6.668-11.83-9.43a47.5 47.5 0 0 0-5.512-3.132c-2.649-1.269-5.394-2.168-8.102-3.256l2.703 1.141c-1.782-.755-3.568-1.702-5.486-2.062-1.975-.371-3.98-.63-5.978-.834a31 31 0 0 0-6.736.032c-6.144.725-12.178 2.245-17.283 5.934l14.152 18.341 16.03-16.765 7.929-8.293 3.964-4.146c.689-.72 1.402-1.425 2.044-2.187 1.142-1.355 2.006-2.58 2.689-4.198.717-1.698.957-3.382 1.04-5.229.118-2.633-1.29-6.022-3.234-7.806-2.033-1.866-4.941-3.522-7.806-3.234-1.252.126-2.572.208-3.796.487-1.975.45-4.13 1.94-5.577 3.297-.727.682-1.394 1.429-2.078 2.154l-3.765 3.993-8.043 8.531-15.914 16.881c-4.013 4.256-4.511 10.676-.913 15.333 1.491 1.93 3.621 3.628 6.066 4.185 2.88.656 6.51.648 8.999-1.177a23.7 23.7 0 0 1 4.612-2.64l-2.785 1.175a26.7 26.7 0 0 1 6.571-1.76l-3.093.416c2.694-.337 5.394-.307 8.087.026l-3.085-.415c2.562.346 5.108.751 7.678 1.048l-3.008-.404c1.887.296 3.782 1.055 5.54 1.78l-2.659-1.122c4.443 1.887 8.52 4.467 12.344 7.397l-2.18-1.684c2.493 1.931 4.88 3.992 7.207 6.12a251 251 0 0 1 3.458 3.231c1 .949 2.164 1.769 3.034 2.843l-1.587-2.054c.301.408.556.824.773 1.282l-1.012-2.397c.14.345.246.679.311 1.046l-.356-2.646q.033.242.015.485l.354-2.636a7 7 0 0 1-.184.838l.979-2.321a1.2 1.2 0 0 1-.217.362l1.489-1.927-.169.169c-2.685 2.693-3.408 6.824-1.947 10.286 1.505 3.567 4.782 5.57 8.606 5.789Z"/><path d="M414.415 272.38c108.011 59.299 212.537 187.408 256.718 302.433-44.077-25.092-97.665-92.766-131.919-130.17l-33.541-36.624c-31.792-34.715-64.862-71.867-74.161-118.013"/><path d="M410.435 279.189c13.41 8.009 26.351 16.866 38.978 26.054 3.761 2.736 7.48 5.53 11.162 8.371l-1.908-1.474c17.055 13.187 33.323 27.457 48.914 42.342 16.123 15.393 31.426 31.642 45.916 48.579 8.232 9.622 16.261 19.409 24.004 29.43l-1.615-2.09c12.965 16.805 25.188 34.183 36.55 52.112 11.015 17.382 21.232 35.279 30.435 53.687a519 519 0 0 1 13.865 30.048l-1.034-2.451a474 474 0 0 1 5.545 13.742l15.061-11.578c-6.52-3.721-12.677-8.054-18.617-12.636l2.088 1.613c-12.739-9.864-24.507-20.948-35.828-32.393-12.161-12.295-23.877-25.008-35.381-37.917-10.61-11.906-21.04-23.971-31.618-35.906-12.476-14.077-25.303-27.845-38.007-41.716-12.822-14.001-25.738-27.946-37.626-42.76a390 390 0 0 1-4.225-5.363l1.639 2.122c-11.669-15.124-22.164-31.263-29.633-48.898l1.057 2.504c-3.707-8.827-6.671-17.989-8.581-27.376-.501-2.464-2.683-5.001-4.796-6.237-2.237-1.309-5.534-1.864-8.042-1.052-5.682 1.839-8.458 7.097-7.29 12.839 5.32 26.146 18.127 50.13 33.73 71.545 16.319 22.398 35.308 42.617 53.993 63.02 16.626 18.154 33.141 36.37 49.37 54.878 15.88 18.11 31.849 36.171 48.777 53.316 16.095 16.301 33.328 32.234 52.722 44.56a148 148 0 0 0 5.917 3.565c3.604 2.061 8.126 1.718 11.387-.802 1.448-1.119 2.446-2.416 3.157-4.101.824-1.952 1.306-4.621.517-6.676-9.332-24.291-20.555-47.834-33.256-70.54-13.143-23.496-27.823-46.129-43.727-67.847-16.66-22.751-34.566-44.577-53.866-65.14-18.441-19.648-38.004-38.32-59.055-55.159-10.631-8.503-21.532-16.68-32.775-24.357a343 343 0 0 0-32.001-19.356 390 390 0 0 0-7.943-4.119c-3.679-1.855-8.716-1.094-10.789 2.829-2.013 3.81-.955 8.529 2.829 10.789Zm179.647-64.526c6.547-16.016 11.022-32.824 13.839-49.888a316 316 0 0 0 2.318-17.035l-.411 3.058a100 100 0 0 0 1.032-6.348l-.423 3.152q.096-.693.19-1.387l-19.968 5.272c3.008 3.385 6.361 6.508 9.573 9.7s6.453 6.394 9.749 9.52a1143 1143 0 0 0 25.066 23.07c2.952 2.633 5.778 4.692 9.5 6.056.431.158.844.277 1.297.359 1.297.235 2.747.533 4.076.487 2.885-.1 5.653-.763 8.172-2.215 3.084-1.778 5.534-4.542 7.347-7.568 2.164-3.612 3.864-7.583 5.57-11.425a391 391 0 0 0 6.142-14.691c3.623-9.143 6.985-18.389 10.796-27.457l-1.272 3.014q.901-2.128 1.796-4.258l-1.272 3.014a334 334 0 0 1 32.074-58.756c1.78-2.6 3.642-5.139 5.448-7.72.855-1.221 1.637-2.5 2.411-3.773 1.294-2.128 2.108-4.442 2.865-6.801.564-1.757.486-4.13 0-5.894-.643-2.334-2.081-4.297-3.973-5.759-3.388-2.618-8.561-3.263-12.313-.867-2.406 1.536-4.621 3.197-6.516 5.342-1.945 2.201-3.71 4.549-5.426 6.93a333 333 0 0 0-19.871 31.074c-8.515 15.097-15.741 30.853-21.98 47.019-3.468 8.986-6.731 18.052-10.47 26.931l1.261-2.989a220 220 0 0 1-3.727 8.359c-1.172 2.476-2.279 5.113-3.891 7.342l1.949-2.523a8.7 8.7 0 0 1-1.476 1.517l2.522-1.949a7 7 0 0 1-.882.524l2.976-1.256a6 6 0 0 1-.992.311l3.311-.445a6 6 0 0 1-1.16.048l3.311.445a7 7 0 0 1-1.488-.378l2.974 1.255c-.878-.385-1.649-.886-2.411-1.466l2.518 1.946c-3.142-2.507-6.073-5.323-9.061-8.011a1150 1150 0 0 1-9.184-8.352c-6.092-5.601-12.138-11.255-18.173-16.917-3.426-3.214-6.729-6.607-10.274-9.686-1.538-1.336-3.281-2.524-5.272-3.072-2.602-.717-5.323-.434-7.779.602-4.355 1.838-7.316 6.118-7.344 10.918-.01 1.72.121 3.455.039 5.171-.086 1.8-.274 3.602-.44 5.396-.325 3.514-.726 7.02-1.194 10.517l.399-2.972c-2.224 16.372-6.117 32.47-11.116 48.21-1.58 4.974 1.854 11.104 6.966 12.268 2.553.581 5.419.456 7.685-1.005l2.018-1.559a9.96 9.96 0 0 0 2.565-4.401Zm-86.501-82.048q3.63-26.649 7.257-53.299c.449-3.3.888-6.602 1.331-9.904l.497-3.707c.275-2.047-.148-4.025-.54-6.037-.291-1.494-1.433-3.218-2.493-4.278-1.516-1.516-3.466-2.384-5.567-2.666-1.773-.238-3.374-.034-5.024.662-1.811.764-3.749 2.136-4.636 3.967-.234.484-.475.965-.703 1.451-.748 1.596-1.176 2.832-1.406 4.539-.205 1.528-.397 3.058-.59 4.588l-.842 6.673c-.561 4.448-1.107 8.897-1.659 13.346l-3.314 26.692-1.903 15.323c-.28 2.257 1.297 5.561 2.921 7.052 1.647 1.512 3.5 2.444 5.726 2.743 2.126.286 4.502.014 6.359-1.184 2.014-1.298 4.244-3.467 4.583-5.96Zm188.413 156.902c14.458-12.578 28.97-25.069 43.932-37.048q6.413-5.133 12.902-10.168l-2.364 1.826c3.804-2.919 7.556-5.906 11.35-8.838l-2.378 1.837c14.476-11.177 29.236-21.986 44.267-32.404s30.403-20.347 45.867-30.132q6.546-4.142 13.151-8.188c2.138-1.309 4.239-2.678 6.354-4.025 3.011-1.918 5.3-4.365 7.849-6.785 3.265-3.101 4.132-8.973 1.654-12.816s-7.353-6.297-11.944-4.86c-1.672.523-3.433.867-5.051 1.531a67 67 0 0 0-7.68 3.743c-3.174 1.793-6.282 3.695-9.393 5.594-6.224 3.797-12.404 7.659-18.51 11.644a1065 1065 0 0 0-36.512 24.922c-24.672 17.603-48.661 36.181-71.625 55.963-12.524 10.789-24.899 21.796-36.759 33.314-1.92 1.864-3.084 4.786-3.084 7.446 0 2.583 1.147 5.668 3.084 7.446 2.007 1.842 4.641 3.21 7.446 3.084 2.901-.13 5.248-1.172 7.446-3.084Zm55.591 100.678a465 465 0 0 1 29.038-42.193l-1.705 2.206c3.147-4.065 6.329-8.114 9.649-12.039s6.6-7.912 10.248-11.517l-19.37-5.114c1.172 4.991 2.938 9.863 4.638 14.697 1.706 4.85 3.516 9.656 5.503 14.397 4.269 10.183 8.852 20.211 13.991 29.987 2.708 5.151 5.456 10.342 8.553 15.272 2.313 3.683 6.142 6.057 10.559 6.057 3.954 0 8.842-2.25 10.559-6.057 6.712-14.882 13.943-29.53 21.006-44.248l21.185-44.144 11.89-24.774-21.79-2.848c7.765 22.896 18.366 44.684 32.619 64.256 4.342 5.962 8.91 11.776 13.734 17.356 2.471 2.859 6.598 3.806 10.162 3.327a9 9 0 0 0 4.498-1.436 12.16 12.16 0 0 0 4.34-4.34l22.773-29.604c7.589-9.865 15.287-19.656 22.743-29.621l6.107-8.161a90 90 0 0 0 2.983-4.264c.995-1.506 1.712-3.209 2.514-4.825 1.2-2.42 1.92-5.36 1.052-8.042-.712-2.2-1.902-4.001-3.74-5.421-1.76-1.36-4.038-2.343-6.324-2.241-2.879.129-5.196 1.165-7.38 3.057-1.118.968-2.308 1.892-3.371 2.919-1.172 1.133-2.233 2.461-3.276 3.713-1.961 2.354-3.835 4.788-5.75 7.18-3.889 4.858-7.698 9.778-11.522 14.687l-22.954 29.464-12.854 16.5h17.109a239 239 0 0 1-7.103-8.726l1.896 2.454c-9.731-12.598-18.204-26.224-25.253-40.498a232 232 0 0 1-5.664-12.385l1.211 2.869c-2.013-4.786-3.901-9.635-5.556-14.557-1.535-4.567-5.038-7.885-9.911-8.54-2.181-.293-4.149-.042-6.178.814-2.224.938-4.616 2.627-5.701 4.878l-42.504 88.209c-3.975 8.249-7.936 16.496-12.106 24.648h21.118c-3.912-6.97-7.929-13.849-11.542-20.985a348 348 0 0 1-10.07-21.726l1.226 2.905c-1.063-2.525-2.092-5.063-3.168-7.583l1.224 2.901a351 351 0 0 1-4.461-11.136c-1.725-4.534-3.17-9.203-5.14-13.635l1.183 2.803q-.354-.857-.705-1.715c-.763-1.867-1.523-3.657-2.98-5.114-1.812-1.812-4.144-2.85-6.654-3.187-2.12-.285-4.033-.041-6.005.791-2.477 1.045-3.942 2.565-5.542 4.742-.45.613-.897 1.228-1.35 1.838l1.784-2.309a638 638 0 0 0-10.346 13.119l1.734-2.245c-.775.984-1.536 1.979-2.3 2.971l1.732-2.242c-10.935 14.013-21.205 28.502-30.549 43.628a468 468 0 0 0-7.439 12.478c-1.333 2.316-1.745 5.316-1.033 7.899.655 2.378 2.493 4.955 4.711 6.127 4.991 2.637 11.042 1.215 14.026-3.678Zm57.426 87.72c3.078-.089 6.117-.758 9.145-1.285q3.402-.592 6.807-1.167 6.932-1.17 13.876-2.269a2411 2411 0 0 1 27.552-4.182q7.805-1.141 15.623-2.194l-3.059.411c18.466-2.48 36.975-4.4 55.504-6.318q3.921-.406 7.845-.789c3.607-.352 7.027-1.06 10.539-1.881 2.525-.59 5.384-2.777 6.598-5.074 1.178-2.23 1.647-4.529 1.31-7.04-.75-5.582-5.295-9.275-10.843-9.573-2.278-.122-4.592-.375-6.868-.172q-3.556.316-7.11.651c-4.579.432-9.15.952-13.719 1.48-10.093 1.165-20.169 2.458-30.236 3.826-18.366 2.495-36.697 5.304-54.916 8.716a1372 1372 0 0 0-22.929 4.499c-2.633.54-5.371.921-7.892 1.858-2.486.923-4.94 2.341-6.237 4.796-1.114 2.108-1.557 4.281-1.239 6.655.668 4.968 5.031 9.201 10.251 9.05ZM212.107 842.517l34.013 27.525c4.132 3.344 8.311 6.718 13.094 9.036 11.892 5.764 26.322 4.253 38.364-1.188 12.043-5.441 22.107-14.412 31.559-23.647 22.695-22.176 43.02-46.63 63.3-71.034 8.083-9.726 16.368-19.825 19.902-31.968 3.687-12.668 1.744-26.539-3.56-38.62s-13.775-22.534-23.177-31.792l18.258-19.836c.637-.692 1.345-1.423 2.272-1.577.965-.16 1.903.35 2.731.868 10.039 6.284 17.026 16.366 23.224 26.459 7.73 12.587 14.821 26.039 16.627 40.699 3.142 25.514-10.058 50.026-24.321 71.413a540 540 0 0 1-89.529 103.091c-10.683 9.537-22.104 18.85-35.715 23.301-27.713 9.062-57.851-3.925-81.69-20.713-12.264-8.636-23.979-18.591-31.777-31.403-1.026-1.687-2.015-3.647-1.505-5.555.446-1.668 1.917-2.824 3.301-3.856l21.427-15.97"/><path d="M205.941 848.683c9.07 8.242 18.455 16.206 27.998 23.901 5.025 4.052 9.96 8.328 15.34 11.906 4.94 3.285 10.623 5.768 16.463 6.885 6.738 1.289 13.147 1.197 19.902.212 5.969-.871 11.599-2.875 17.079-5.35 10.484-4.736 19.641-12.159 28.027-19.928 17.063-15.807 32.564-33.331 47.642-51.009 7.579-8.886 15.061-17.855 22.51-26.85 3.858-4.659 7.678-9.382 11.108-14.368 3.476-5.052 6.273-10.396 8.503-16.111 4.516-11.574 4.552-24.611 1.76-36.598-2.612-11.213-8.07-21.811-14.933-31.002-1.974-2.644-4.102-5.157-6.122-7.762l1.592 2.06c-2.015-2.631-4.053-5.237-6.197-7.764l1.657 2.145c-1.487-2.132-3.27-3.96-5.083-5.806v15.172l9.824-10.344c1.577-1.66 3.146-3.327 4.73-4.98 1.614-1.685 3.1-3.554 4.829-5.12l-2.244 1.734a4.6 4.6 0 0 1 1.018-.614l-2.649 1.118.385-.099-2.948.396a2.4 2.4 0 0 1 .818.012l-2.948-.396q.41.078.794.247l-2.649-1.118c1.684.803 3.222 1.979 4.701 3.106l-2.245-1.734c4.271 3.316 7.944 7.279 11.247 11.546l-1.735-2.246c3.808 4.969 7.14 10.285 10.34 15.66 3.39 5.695 6.541 11.537 9.13 17.643l-1.12-2.655c2.601 6.216 4.566 12.673 5.466 19.362l-.397-2.957c.736 5.808.651 11.657-.127 17.456l.398-2.959c-1.099 7.821-3.428 15.369-6.475 22.641l1.128-2.672c-7.297 17.225-18.191 32.805-29.142 47.872a549 549 0 0 1-9.555 12.747l1.79-2.317c-18.623 24.072-39.141 46.628-61.502 67.281-6.15 5.681-12.376 11.321-19.001 16.448l2.356-1.821c-6.028 4.634-12.437 8.781-19.456 11.753l2.79-1.177a60.6 60.6 0 0 1-15.033 4.075l3.121-.419c-5.942.772-11.934.687-17.872-.083l3.146.423c-8.15-1.104-16.057-3.455-23.652-6.579l2.857 1.206c-1.37-.584-2.744-1.159-4.118-1.735l2.859 1.206c-12.832-5.43-24.726-12.923-35.738-21.42l2.422 1.871c-7.276-5.646-14.108-11.892-19.788-19.168l1.871 2.422c-2.153-2.789-4.43-5.758-5.879-8.987l1.206 2.859a9.3 9.3 0 0 1-.508-1.739l.428 3.182a6.5 6.5 0 0 1-.004-1.325l-.428 3.182a4 4 0 0 1 .212-.817l-1.206 2.859c.211-.492.464-.915.786-1.343l-1.871 2.422c.528-.618 1.118-1.144 1.754-1.65l-2.422 1.871c7.277-5.584 14.713-10.975 22.068-16.457 2.591-1.931 4.609-3.916 5.5-7.152.789-2.865.433-6.679-1.206-9.222-1.647-2.555-4.101-4.805-7.152-5.5-2.937-.669-6.694-.678-9.222 1.206l-12.184 9.081-6.092 4.541c-2.478 1.847-5.271 3.571-7.436 5.766-3.756 3.809-5.53 8.83-4.818 14.129.479 3.567 2.024 6.743 3.958 9.747 2.786 4.328 5.988 8.439 9.411 12.28 6.283 7.05 13.636 13.015 21.193 18.638 7.031 5.232 14.389 10.044 22.127 14.169 8.437 4.497 17.37 8.33 26.603 10.853 9.017 2.463 18.626 3.83 27.98 3.274 10.52-.626 20.411-3.335 29.838-8.024 8.661-4.308 16.421-10.34 23.766-16.575 13.862-11.766 26.91-24.595 39.345-37.849 13.088-13.951 25.384-28.611 36.972-43.828 11.07-14.538 21.888-29.585 30.778-45.575 9.394-16.896 16.815-36.092 15.937-55.742-.892-19.955-10.124-37.992-20.667-54.52-4.947-7.755-10.505-15.529-17.591-21.482-2.22-1.865-4.533-3.661-6.97-5.237-4.584-2.963-10.333-3.758-15.225-.962-2.637 1.508-4.621 3.95-6.634 6.165-1.778 1.957-3.52 3.95-5.28 5.924l-9.861 11.054c-1.814 2.034-3.269 4.758-3.142 7.586.126 2.809 1.06 5.594 3.142 7.586 1.891 1.81 3.659 3.533 5.753 5.135l-2.145-1.657c3.351 3.14 6.432 6.402 9.248 10.034l-1.585-2.051c4.536 5.902 8.462 12.256 11.366 19.121l-1.013-2.402c2.179 5.252 3.72 10.731 4.493 16.367l-.357-2.656c.603 4.671.663 9.374.075 14.05l.355-2.642c-.583 4.301-1.749 8.449-3.425 12.451l1-2.37c-2.768 6.455-6.69 12.292-10.958 17.841l1.549-2.005c-4.971 6.425-10.271 12.604-15.472 18.843-5.377 6.451-10.779 12.882-16.252 19.252-10.991 12.794-22.274 25.35-34.183 37.3-6.311 6.333-12.743 12.592-19.82 18.074l1.991-1.538c-5.463 4.196-11.288 7.918-17.647 10.608l2.334-.985c-4.484 1.856-9.159 3.159-13.971 3.807l2.584-.347c-3.874.486-7.769.533-11.645.043l2.573.346c-3.249-.447-6.417-1.263-9.449-2.519l2.305.973c-3.867-1.684-7.342-4.015-10.675-6.579l1.957 1.512c-4.509-3.499-8.785-7.311-13.378-10.699l1.957 1.512c-9.621-7.515-19.161-15.122-29.073-22.248-1.666-1.198-4.814-1.496-6.72-.879-1.838.595-3.343 1.589-4.53 3.125-2.534 3.28-2.549 8.515.682 11.45Z"/></svg>