<?xml version="1.0" encoding="UTF-8"?><svg xmlns="http://www.w3.org/2000/svg" data-name="ARTWORK" viewBox="0 0 1000 1000"><path d="M296.28 127.746c-37.559 6.862-73.806 20.914-106.04 41.398-31.976 20.32-59.797 47.355-82.949 77.22-24.626 31.767-43.91 66.713-58.979 103.939-14.632 36.147-24.814 74.099-30.49 112.674-5.699 38.729-7.379 77.985-3.589 116.987 3.67 37.753 11.736 75.262 26.473 110.305 14.32 34.051 34.23 65.313 59.75 92.102 23.899 25.088 52.387 45.969 83.125 61.897 31.288 16.214 64.977 27.792 99.481 34.841 35.445 7.242 71.822 10.171 107.969 8.922 36.504-1.262 73.026-6.568 108.362-15.82 34.75-9.098 68.633-22.147 100.342-39.049 30.983-16.514 60.066-37.077 85.414-61.408 29.925-28.724 55.107-62.61 75.128-98.89 20.628-37.381 36.21-77.781 45.927-119.356 9.655-41.315 13.876-84.217 10.994-126.591-2.889-42.469-12.639-84.084-30.085-122.952-17.421-38.811-43.21-73.773-74.98-102.047-38.112-33.918-82.585-60.062-130.329-77.907-47.363-17.703-98.484-26.426-149.06-24.242-24.514 1.059-49.042 4.621-72.822 10.676-6.28 1.599-10.682 8.956-8.65 15.235 2.1 6.488 8.506 10.364 15.235 8.65a331 331 0 0 1 18.198-4.103c2.71-.529 5.426-1.025 8.151-1.469q2.299-.376 4.602-.722c.853-.128 1.707-.246 2.561-.374 2.448-.365-1.284.153.28-.044 12.147-1.526 24.339-2.5 36.581-2.772a366 366 0 0 1 36.223 1.014c6.211.48 12.398 1.154 18.581 1.908.603.073 2.523.297-.315-.049.686.084 1.372.189 2.057.287a376 376 0 0 1 13.333 2.138c24.255 4.333 48.141 10.832 71.214 19.48a400 400 0 0 1 12.117 4.769c.642.265 1.282.534 1.924.799q1.272.533-.622-.262.72.306 1.437.616a401 401 0 0 1 16.575 7.588c11.063 5.373 21.859 11.312 32.361 17.711a391 391 0 0 1 30.033 20.26c1.242.925 2.476 1.861 3.71 2.797.407.309 1.872 1.457-.083-.07q.814.633 1.626 1.27 3.648 2.865 7.225 5.818a368 368 0 0 1 13.884 12.051 292 292 0 0 1 21.849 22.204 289 289 0 0 1 10.1 12.077c.535.677 2.882 3.364.718.902.757.861 1.409 1.849 2.095 2.766q2.46 3.29 4.826 6.649c11.566 16.422 21.402 34.042 29.415 52.459.491 1.128 1.697 3.381.413.933.582 1.11.985 2.375 1.454 3.534q1.432 3.543 2.777 7.119a316 316 0 0 1 4.904 14.026c3.098 9.573 5.705 19.312 7.897 29.132a347 347 0 0 1 4.139 21.804 350 350 0 0 1 .822 5.502c.159 1.127 1.001 2.932.016.059.692 2.019.592 4.682.832 6.806q.457 4.052.824 8.113.678 7.5 1.058 15.022c1.029 20.356.454 40.795-1.565 61.074a425 425 0 0 1-1.221 10.846c-.091.722-.194 1.444-.278 2.167-.189 1.641.387-2.756.047-.343a481 481 0 0 1-2.433 15.566 447 447 0 0 1-6.326 30.048 458 458 0 0 1-21.667 65.885c-.22.531-.424 1.099-.676 1.619 1.393-2.883.416-.98.092-.229-.52 1.208-1.039 2.416-1.566 3.621a453 453 0 0 1-6.569 14.325 447 447 0 0 1-14.131 27.057 433 433 0 0 1-16.099 26.204 418 418 0 0 1-15.191 21.369l-1.039 1.361c-1.548 2.035 1.634-2.075-.08.101-12.055 15.301-25.033 29.845-39.235 43.193a345 345 0 0 1-18.904 16.5 364 364 0 0 1-4.721 3.764c-2.624 2.056 1.489-1.126-.201.163-.944.72-1.887 1.441-2.835 2.155a372 372 0 0 1-10.404 7.547c-13.896 9.717-28.445 18.494-43.47 26.35a427 427 0 0 1-28.692 13.662c-.898.388-1.806.757-2.7 1.155 3.865-1.72-.085.029-.988.401a446 446 0 0 1-12.329 4.869c-32.685 12.355-66.786 20.95-101.383 25.811l-1.479.205c-2.161.303 1.05-.143 1.209-.161-1.112.124-2.221.291-3.332.43a483 483 0 0 1-19.667 2.06 476 476 0 0 1-26.41 1.482c-17.415.492-34.859.02-52.218-1.466a442 442 0 0 1-19.033-2.044c-3.564-.462 2.457.352-.575-.077-1.09-.154-2.179-.307-3.268-.467a420 420 0 0 1-25.539-4.557c-16.627-3.504-33.041-8.044-49.069-13.69a364 364 0 0 1-17.395-6.631c-.441-.181-3.961-1.644-1.754-.725 1.929.803.38.16-.101-.049-.654-.284-1.31-.564-1.964-.849a341 341 0 0 1-22.74-10.931c-14.585-7.696-28.597-16.486-41.802-26.367-.848-.634-1.69-1.276-2.533-1.916-2.285-1.735 2.349 1.844-.459-.362a296 296 0 0 1-14.35-12.027c-6.262-5.599-12.282-11.468-18.03-17.594s-11.172-12.446-16.331-19.025c-2.067-2.637 1.092 1.455-.193-.245-.654-.866-1.312-1.729-1.961-2.599a283 283 0 0 1-11.01-15.872 287 287 0 0 1-13.24-22.796 294 294 0 0 1-8.694-18.172c-.409-.936-.766-1.915-1.22-2.829.095.191 1.224 2.947.401.944-.295-.717-.593-1.432-.885-2.15-6.811-16.721-12.119-34.049-16.193-51.633a392 392 0 0 1-5.231-26.861 409 409 0 0 1-.931-6.153c-.088-.617-.631-4.497-.305-2.152.29 2.088.041.299-.025-.226q-.124-.969-.246-1.939a427 427 0 0 1-1.509-14.043c-1.692-18.632-2.179-37.371-1.561-56.068.315-9.545.917-19.08 1.798-28.59a491 491 0 0 1 1.918-17.335c.086-.67.205-1.342.263-2.015-.021.238-.444 3.209-.13.987.341-2.417.684-4.834 1.053-7.247 2.898-18.954 6.89-37.741 11.955-56.235s11.187-36.643 18.401-54.379q.612-1.505 1.234-3.003c.116-.279 1.248-2.712.297-.723-.836 1.747-.046.108.148-.345a452 452 0 0 1 9.041-19.888 438 438 0 0 1 13.067-24.939c9.198-16.252 19.348-31.995 30.623-46.886.378-.499 2.418-3.549 1.425-1.873-1.002 1.69.916-1.163 1.213-1.54a358 358 0 0 1 13.601-16.246 343 343 0 0 1 19.183-19.922 321 321 0 0 1 20.338-17.894 300 300 0 0 1 2.414-1.927l1.214-.954c2.048-1.624-1.61 1.218-.247.185 1.848-1.4 3.693-2.804 5.563-4.174 1.766-1.294 3.572-2.528 5.346-3.808l2.366-1.828-1.132.887c.01-.111 1.068-.757 1.262-.893a285 285 0 0 1 3.174-2.204c15.128-10.36 31.226-19.307 48.065-26.567q.716-.309 1.434-.613c-.299.128-2.055.85-.3.132.969-.396 1.937-.796 2.909-1.187q3.287-1.32 6.608-2.555a277 277 0 0 1 12.34-4.261c8.785-2.805 17.767-5.006 26.803-6.839 5.036-1.021 7.935-6.99 6.642-11.698-1.461-5.316-6.628-7.568-11.698-6.642Z"/><path d="M459.587 108.417c-37.602 4.61-74.043 14.319-108.735 29.581-33.24 14.623-64.224 34.298-91.97 57.705-27.527 23.222-51.531 50.85-72.033 80.394-20.826 30.009-37.624 62.627-50.645 96.736s-21.691 69.847-26.298 106.158c-4.529 35.692-4.662 71.959-.062 107.652 5.038 39.09 15.082 77.274 31.36 113.232 17.197 37.988 41.842 73.052 72.72 101.169 32.969 30.021 72.337 51.255 115.255 63.188 50.963 14.171 105.877 16.622 158.06 8.3 12.481-1.991 24.751-4.663 36.895-8.166 4.838-1.395 7.858-6.572 6.512-11.469-1.458-5.304-6.477-7.301-11.469-6.512-48.821 7.716-99.87 12.248-148.428 4.208-12.676-2.099-25.238-4.904-37.587-8.457a317 317 0 0 1-18.109-5.798 270 270 0 0 1-10.611-4.005q-1.023-.414-2.045-.833c-.605-.246-1.475-.62-.368-.148-18.764-8.005-36.56-18.258-52.967-30.376a345 345 0 0 1-3-2.248c-1.619-1.222.481.407-1.105-.856a338 338 0 0 1-6.231-5.05 275 275 0 0 1-11.211-9.896 283 283 0 0 1-20.748-21.522 292 292 0 0 1-9.852-11.987c1.06 1.361-.536-.71-.845-1.119a298 298 0 0 1-6.928-9.556 310 310 0 0 1-15.988-25.574 325 325 0 0 1-15.095-30.668c-.516-1.198-.016-.024.073.186q-.422-1.006-.837-2.015a337 337 0 0 1-2.829-7.105 344 344 0 0 1-5.293-14.753 395 395 0 0 1-13.366-51.421 404 404 0 0 1-3.406-20.952c.055.404.304 2.372.033.201-.156-1.246-.315-2.492-.464-3.739a413 413 0 0 1-2.284-26.231 426 426 0 0 1 .367-52.509c.609-8.891 1.638-17.715 2.64-26.566.151-1.33-.08.569-.095.684a376 376 0 0 1 .655-4.636q.51-3.474 1.074-6.939a444 444 0 0 1 2.297-12.901 448 448 0 0 1 13.066-51.164 450 450 0 0 1 8.667-24.665 497 497 0 0 1 4.862-12.123c.184-.442.862-1.993-.053.125.185-.428.364-.858.55-1.286.433-.998.861-1.998 1.297-2.994a449 449 0 0 1 27.192-52.415 435 435 0 0 1 14.106-21.811 430 430 0 0 1 11.408-15.753c.459-.604 2.127-2.769.778-1.03q1.134-1.463 2.281-2.916c10.687-13.539 22.206-26.424 34.505-38.518 6.255-6.151 12.738-12.04 19.345-17.808 3.242-2.83 6.501-5.635 9.825-8.369a399 399 0 0 1 4.656-3.772c.841-.67 1.687-1.334 2.532-2q.544-.428 1.09-.851c-1.705 1.331.022-.017.37-.281 13.904-10.561 28.448-20.24 43.665-28.809a364 364 0 0 1 23.173-11.979 402 402 0 0 1 11.951-5.38c.233-.101 1.701-.72.285-.125q.651-.274 1.304-.543 1.525-.63 3.053-1.25a359.7 359.7 0 0 1 57.882-17.875 309 309 0 0 1 12.904-2.518c3.861-.673 9.533-1.561 12.269-1.928 4.642-.624 8.674-3.54 8.674-8.674 0-4.245-3.993-9.248-8.674-8.674Z"/><path d="M126.141 263.446c18.709 2.532 37.346 6.277 55.62 11.019 5.689 1.476 11.563 3.736 17.491 3.626 3.36-.063 6.87-2.406 7.649-5.823.816-3.583-.601-6.933-3.645-8.958-4.395-2.923-9.9-3.989-14.965-5.252a413 413 0 0 0-13.904-3.213c-9.969-2.123-20.006-3.683-30.119-4.939a416 416 0 0 0-16.067-1.675c-1.8-.153-4.274.958-5.478 2.269-1.175 1.28-1.898 2.719-2.131 4.448-.222 1.651-.011 3.497.919 4.94 1.008 1.563 2.693 3.298 4.63 3.56ZM72.199 366.322c20.68 7.327 42.362 11.689 64.239 13.264 6.562.472 13.215.507 19.687-.856 3.446-.726 6.321-4.599 6.164-8.096s-2.467-7.36-6.164-8.096c-6.153-1.225-12.496-1.498-18.744-1.879a238 238 0 0 1-16.905-1.648l2.509.337a237 237 0 0 1-45.852-10.918c-2.187-.758-5.201-.204-7.149.935-1.924 1.126-3.76 3.333-4.263 5.544-1.184 5.197 1.576 9.675 6.48 11.412Zm-23.34 110.037a328 328 0 0 0 29.727 8.178 325 325 0 0 0 22.682 4.258 66 66 0 0 0 5.751.605c1.861.114 3.701-.327 5.525-.668 1.695-.317 3.234-1.623 4.241-2.926 1.064-1.377 1.833-3.158 1.753-4.947a9.7 9.7 0 0 0-1.115-4.121c-1.051-1.988-2.917-2.939-4.879-3.752-.719-.298-1.465-.707-2.213-.925-.672-.196-1.437-.242-2.125-.359-2.141-.365-4.292-.61-6.45-.838q-4.539-.481-9.064-1.087l2.325.312a331 331 0 0 1-42.089-8.492c-3.861-1.044-8.494 1.303-9.415 5.346-.957 4.202 1.268 8.086 5.346 9.415ZM33.188 600.205c3.247-.343 6.496-.258 9.73.173l-2.237-.301c6.931.984 13.507 3.463 19.928 6.164l-2.045-.863c7.023 2.968 13.941 6.255 21.177 8.687 3.28 1.102 6.63 2.013 10.048 2.573 4.43.725 8.903 1.015 13.35 1.594l-2.36-.317c1.737.238 3.466.533 5.162.981.842.223 1.673.49 2.511.725 2.077.582 4.048.637 6.168.099 5.36-1.362 7.361-7.527 4.935-12.129-2.937-5.571-10.383-6.342-15.979-7.061-3.66-.47-7.351-.647-11.009-1.138l2.343.315c-16.3-2.322-30.253-12.151-46.311-15.307-5.068-.996-10.266-1.509-15.411-.894-2.291.274-4.209.75-5.904 2.446-1.448 1.448-2.539 3.824-2.446 5.904.097 2.159.806 4.399 2.446 5.904 1.532 1.407 3.742 2.674 5.904 2.446ZM65.237 714.8c5.357-.41 10.722-.189 16.046.504l-2.448-.329c23.218 3.127 44.241 14.512 67.062 19.276 3.852.804 7.748 1.386 11.656 1.833s7.708.066 11.564-.57l2.039-.86a6.45 6.45 0 0 0 2.395-2.198c1.112-1.44 1.916-3.302 1.833-5.172a10.1 10.1 0 0 0-1.165-4.308c-.876-1.658-3.201-3.613-5.101-3.922-2.912-.474-5.823-.862-8.748-1.244l2.452.329c-2.423-.328-4.849-.627-7.273-.946l2.477.333c-24.299-3.307-46.231-15.564-70.33-19.71-7.421-1.277-14.937-1.984-22.46-1.386-2.468.196-4.696.892-6.494 2.69-1.593 1.593-2.793 4.207-2.69 6.494.106 2.375.887 4.839 2.69 6.494 1.717 1.576 4.083 2.875 6.494 2.69Zm91.792 106.495 34.247 4.139c5.639.681 11.277 1.368 16.916 2.044 5.285.634 10.594 1.222 15.924 1.231 6.979.013 14.196-.836 20.457-4.098 3.563-1.856 4.787-6.56 3.302-10.079-1.617-3.832-5.528-5.501-9.522-4.673-2.207.457-4.394.995-6.628 1.316l2.26-.304q-2.022.268-4.041.551l2.269-.305c-9.293 1.226-18.652-.133-27.879-1.282l-30.058-3.743-17.247-2.148c-2.046-.255-4.746 1.153-6.134 2.541-1.504 1.504-2.637 3.973-2.541 6.134.1 2.243.837 4.57 2.541 6.134l1.756 1.356a8.63 8.63 0 0 0 4.378 1.184Zm251.378-398.21 15.942 237.199c.193 2.878.362 5.898-.858 8.512-1.474 3.16-4.669 5.096-7.712 6.798a339.8 339.8 0 0 1-71.306 29.797l218.374-66.393c21.167-6.436 42.744-13.068 60.801-25.85a546 546 0 0 0-79.036 21.667 3287 3287 0 0 0-16.229-285.14c-.331-3.287-.995-7.091-3.902-8.661-2.155-1.164-4.792-.642-7.179-.091l-101.521 23.436c-2.856.659-5.802 1.359-8.16 3.1-2.536 1.873-4.111 4.742-5.607 7.518l-52.702 97.796c10.473-24.499 29.995-45.007 53.948-56.674"/><path d="M399.779 423.085c.537 7.988 1.047 15.926.935 23.937-.11 7.828.574 15.745.908 23.575.676 15.846 1.519 31.676 2.398 47.512 1.753 31.568 4.033 63.113 6.104 94.662l1.738 26.476c.286 4.352.573 8.703.835 13.057.257 4.266.874 8.686.405 12.95l.404-3.004a13.8 13.8 0 0 1-.763 2.95l1.149-2.722c-.32.692-.68 1.318-1.121 1.939l1.793-2.32a14.6 14.6 0 0 1-1.878 1.945l2.338-1.806a82 82 0 0 0-3.217 2.476l2.347-1.813c-2.587 1.943-5.53 3.403-8.372 4.93a341 341 0 0 1-9.271 4.799 345 345 0 0 1-19.276 8.865l2.799-1.181c-12.628 5.322-25.551 9.835-38.704 13.676l6.287 22.806 114.011-34.837c37.408-11.43 74.881-22.668 112.227-34.3 19.308-6.014 38.909-12.89 55.566-24.634 4.698-3.312 7.015-8.745 4.679-14.281-2.307-5.467-7.817-7.738-13.491-6.622a549.5 549.5 0 0 0-79.006 21.772l14.338 10.922c-.536-36.011-1.575-72.011-3.247-107.988a3288 3288 0 0 0-12.819-174.989c-.505-5.045-.868-10.135-3.597-14.573-3.485-5.667-9.927-8.773-16.532-8.109-5.198.522-10.314 1.967-15.4 3.113l-52.611 11.855-26.661 6.008c-9.212 2.076-20.125 3.127-27.131 10.13-3.242 3.241-5.344 7.334-7.483 11.321l-6.524 12.157-12.704 23.674L345.48 455.4c-2.06 3.839-4.113 7.682-6.18 11.517l21.196 8.936q.219-.518.435-1.036l-1.168 2.767c1.981-4.667 4.262-9.2 6.855-13.557a113 113 0 0 1 6.222-9.357c.194-.262 1.008-1.041 1.012-1.347 0-.085-1.558 1.989-.88 1.139.293-.367.581-.738.875-1.105a114.5 114.5 0 0 1 10.07-10.998c1.827-1.751 3.702-3.454 5.661-5.055q.654-.534 1.314-1.058c.292-.232.584-.473.885-.694.136-.1-1.985 1.504-1.058.825 1.06-.776 2.108-1.566 3.182-2.322a109.5 109.5 0 0 1 14.745-8.745c5.023-2.463 6.792-9.999 3.828-14.597-3.318-5.147-9.224-6.462-14.597-3.828-20.188 9.898-37.56 25.538-49.93 44.275-3.301 5-6.231 10.273-8.647 15.758-1.301 2.954-2.062 5.692-1.169 8.936.741 2.69 2.821 5.605 5.329 6.931 5.398 2.852 12.793 1.542 15.866-4.16 14.581-27.057 29.258-54.064 43.886-81.096l6.22-11.494c1.849-3.416 3.522-7.051 5.886-10.151l-1.845 2.389a15.5 15.5 0 0 1 2.499-2.466l-2.39 1.846a16 16 0 0 1 2.531-1.427l-2.822 1.191c3.051-1.252 6.343-1.802 9.54-2.555 3.545-.835 7.088-1.68 10.633-2.518l21.622-5.111 43.244-10.222 12.406-2.932c3.981-.941 7.973-2.092 12.01-2.755l-3 .403a14 14 0 0 1 2.447-.105l-2.997-.403a8.8 8.8 0 0 1 1.741.406l-2.693-1.136c.505.236.908.465 1.355.792l-2.281-1.763c.368.323.672.639.983 1.018l-1.763-2.281c.375.535.677 1.077.946 1.673l-1.136-2.693c.501 1.274.786 2.58.987 3.931l-.403-2.997c1.199 9.113 1.838 18.336 2.685 27.488a3279 3279 0 0 1 6.673 83.843 3288 3288 0 0 1 5.564 112.247c.682 21.016 1.178 42.041 1.433 63.067.084 6.906 7.237 13.439 14.338 10.922a551 551 0 0 1 79.065-21.561l-8.812-20.902c-7.651 5.368-15.939 9.686-24.528 13.344l2.74-1.156c-14.702 6.2-30.098 10.556-45.346 15.173a212919 212919 0 0 1-50.787 15.369l-101.576 30.728-57.05 17.258c-5.914 1.789-10.26 8.363-8.259 14.546 1.953 6.034 8.181 10.099 14.546 8.259 20.997-6.068 41.469-14.314 60.958-24.191 4.567-2.315 9.1-4.713 13.545-7.256 5.913-3.382 11.401-8.305 12.929-15.263 1.285-5.855.317-11.881-.12-17.779-.431-5.801-.82-11.606-1.219-17.409-3.11-45.223-6.064-90.457-9.629-135.646-.993-12.584-2.179-25.149-3.332-37.72l-.865-9.43c-.067-.725-.14-1.45-.2-2.176a59 59 0 0 1-.106-1.451q-.504-4.31-.258-1.451c-.348-1.376-.383-2.941-.567-4.352-.849-6.518-1.275-13.028-1.716-19.585-.302-4.494-3.752-8.846-8.628-8.628-4.415.198-8.952 3.805-8.628 8.628Zm-95.336 452.333c183.149 23.592 384.352 14.664 562.262-34.816 35.93-9.993 73.173-22.492 98.46-49.903 3.9-4.227 7.552-8.935 9.053-14.486 4.965-18.362-14.639-33.617-32.245-40.818-56.45-23.086-119.26-24.056-180.215-22.053-6.497.214-13.112.479-19.234 2.662-7.19 2.564-13.196 7.587-18.965 12.585-65.936 57.115-128.272 126.795-213.281 146.37"/><path d="M301.952 884.453c42.358 6.241 86.112 10.565 129.455 12.86 43.776 2.317 87.692 2.355 131.492.646 43.683-1.704 87.274-5.337 130.617-11.049 43.622-5.749 86.979-13.37 129.823-23.418 20.097-4.714 40.135-9.837 59.909-15.773 19.016-5.708 37.968-12.524 55.337-22.249a154 154 0 0 0 24.601-17.128c7.556-6.432 15.751-14.132 19.841-23.325 4.593-10.324 4.26-21.002-.8-31.094-4.318-8.613-11.99-15.355-19.817-20.707-8.42-5.757-18.034-9.498-27.576-12.946-10.071-3.639-20.365-6.643-30.789-9.091-21.745-5.108-44.058-7.907-66.333-9.324-21.62-1.375-43.313-1.415-64.965-.965-11.356.236-23.785-.434-34.56 3.67-10.752 4.095-19.236 11.638-27.814 19.078-28.774 24.959-56.062 51.604-85.56 75.733-3.711 3.035-7.474 6.002-11.235 8.974-1.112.878.284-.215.424-.323q-.84.648-1.684 1.292a468 468 0 0 1-8.481 6.335c-7.499 5.47-15.168 10.71-23.04 15.63a312 312 0 0 1-24.008 13.593 261 261 0 0 1-15.987 7.455c1.998-.845-.055.009-.887.345q-3.376 1.365-6.793 2.626c-8.528 3.146-17.246 5.791-26.1 7.853-6.244 1.454-10.533 8.945-8.553 15.064 2.11 6.521 8.374 10.111 15.064 8.553 36.149-8.419 69.38-25.683 99.455-47.136 30.824-21.986 58.788-47.577 86.762-73a5369 5369 0 0 1 20.649-18.692q5.138-4.625 10.329-9.189c1.825-1.604 3.649-3.21 5.517-4.764q.663-.552 1.334-1.096c.072-.058 1.576-1.198.563-.449s.52-.356.592-.406c.629-.432 1.25-.874 1.889-1.292a46 46 0 0 1 3.428-2.036c.501-.268 1.022-.502 1.519-.775-.198.109-1.664.588-.317.116 2.499-.876 4.985-1.502 7.588-1.985-1.983.368 1.602-.144 2.2-.19a124 124 0 0 1 3.665-.223c2.643-.127 5.288-.213 7.932-.305 10.613-.371 21.23-.636 31.85-.697 21.212-.122 42.469.645 63.557 3.013q2.118.238 4.232.499.906.112 1.811.227c.02.003 2 .263.845.108s.824.117.844.119l1.806.26q2.105.308 4.206.639c5.194.82 10.37 1.758 15.52 2.822 10.282 2.124 20.463 4.763 30.452 8.001a254 254 0 0 1 14.868 5.329c.756.298 1.506.61 2.263.905-.125-.049-1.802-.812-.592-.247.872.408 1.755.79 2.622 1.208a81 81 0 0 1 5.637 2.99 73 73 0 0 1 5.416 3.475c.402.284.795.585 1.2.865-.137-.095-1.39-1.145-.393-.306.867.729 1.747 1.438 2.588 2.199a47.5 47.5 0 0 1 4.289 4.395q.448.527.882 1.067c-.097-.121-1.064-1.585-.438-.503.52.899 1.159 1.73 1.673 2.638.209.37 1.447 3.187.941 1.765-.512-1.438.301 1.064.412 1.464.115.415.713 3.036.394 1.4-.297-1.522.031 1.32.02 1.908s-.08 1.166-.105 1.753c.008-.179.464-2.039.065-.819-.299.916-.572 1.95-.793 2.887-.284 1.21.013.01.142-.253-.236.482-.478.958-.734 1.43-.689 1.265-1.477 2.46-2.306 3.638-.744 1.059-.006.025.138-.154-.34.423-.692.837-1.044 1.25a81 81 0 0 1-2.161 2.419 112 112 0 0 1-5.272 5.322 112 112 0 0 1-4.77 4.246c-.813.684-1.64 1.351-2.464 2.021-1.005.817.039-.009.211-.143a99 99 0 0 1-2.124 1.59c-7.457 5.467-15.475 10.136-23.776 14.196a200 200 0 0 1-5.846 2.741c-.984.443-1.973.874-2.962 1.306-1.206.527.033-.006.236-.092-.831.35-1.666.69-2.502 1.029a283 283 0 0 1-13.214 4.953c-18.528 6.446-37.569 11.472-56.577 16.279-40.731 10.301-82.007 18.421-123.558 24.621a1370 1370 0 0 1-15.756 2.257c-3.086.424-2.373.327-5.463.732q-4.258.558-8.519 1.089a1421 1421 0 0 1-31.75 3.596 1540 1540 0 0 1-63.869 5.17c-42.61 2.556-85.328 3.298-128.001 2.287-42.11-.997-84.084-3.43-126.039-7.177a1513 1513 0 0 1-30.287-3.016c-4.568-.5-8.706 3.947-9.203 8.125-.494 4.148 2.047 9.594 6.712 10.281"/></svg>