<?xml version="1.0" encoding="UTF-8"?><svg xmlns="http://www.w3.org/2000/svg" data-name="ARTWORK" viewBox="0 0 1000 1000"><path d="M282.861 912.558c-22.401-50.121-51.5-97.436-80.412-143.992-32.755-52.746-67.335-104.345-101.488-156.188-14.698-22.31-29.28-44.702-43.356-67.411-6.142-9.908-12.666-19.827-17.945-30.229-.831-1.637-1.196-2.477-1.585-4.273-.21-.97-.245-1.57-.123-2.189.506-2.571 2.574-5.623 4.355-7.791 6.52-7.938 13.697-15.404 20.56-23.045a10148 10148 0 0 1 63.852-70.419c5.699-6.226 12.071-14.123 18.485-18.596 6.969-4.86 13.464-5.176 22.247-4.922 10.524.304 21.047.814 31.567 1.226l63.931 2.504 62.991 2.467c8.845.346 19.623-.03 27.516 1.282 7.97 1.325 11.35 6.412 16.084 12.985 22.109 30.7 40.934 63.654 63.821 93.807 6.281 8.275 12.741 16.401 19.507 24.286 9.178 10.697 28.214-3.653 19.748-15.237 1.381 1.889 2.145 6.472 1.148 8.107.326-.536.48-1.599.664-2.212.886-2.952-1.45 2.973.093-.198.611-1.256 1.212-2.516 1.852-3.758 3.471-6.741 7.365-13.269 11.285-19.755 10.849-17.956 22.289-35.556 33.781-53.105 9.788-14.948 19.718-29.799 29.585-44.695 14.702-22.195 28.358-45.102 42.729-67.517 21.652-33.772 43.531-67.455 63.505-102.26 17.917-31.22 35.254-62.949 51.679-94.977 3.364-6.559 6.798-13.082 10.769-19.299q1.423-2.233 2.941-4.403.755-1.072 1.532-2.13c1.291-1.766-1.031 1.248.333-.441 2.264-2.804 4.686-5.482 7.338-7.926.607-.559 3.752-3.115 2.131-1.911a47 47 0 0 1 4.102-2.72c.822-.486 4.639-2.129 2.225-1.309a28 28 0 0 1 4.635-1.166c-2.281.364 2.049-.036 2.941-.045a67 67 0 0 1 5.483.189c4.1.298 5.299.513 9.958 1.328 37.968 6.64 76.713 9.389 115.195 11.257q7.491.363 14.985.635c2.498.09 5.002.127 7.499.247.673.032 1.342.068 2.013.121 1.371.108-1.138-.371 1.106.208 1.698.439 3.375.852 5.026 1.457-1.848-.678.115.045.439.214.765.399 1.532.789 2.277 1.225.416.244 4.17 3.009 2.601 1.665a41.5 41.5 0 0 1 4.12 4.087c1.42 1.608-.887-1.363.328.414.491.718.965 1.444 1.41 2.192.447.753.848 1.527 1.258 2.3 1.019 1.923-.519-1.554.26.501 1.698 4.482 2.677 9.299 3.84 13.944a543 543 0 0 1 5.979 26.773c6.038 30.604 8.815 61.701 14.386 92.375 2.727 15.016 5.979 30.28 11.099 44.685 1.41 3.967 3.204 7.764 4.376 11.817.59 2.039.17 4.65-1.012 7.439-3.315 7.823-8.57 15.16-12.963 22.414-18.01 29.739-37.072 58.83-56.629 87.571-40.79 59.944-83.718 118.392-125.573 177.588-41.898 59.256-82.953 119.265-119.323 182.115-17.269 29.843-33.458 60.338-47.864 91.672a864 864 0 0 0-10.345 23.4c-1.051 2.477-2.087 4.961-3.134 7.44-.657 1.556-.151.358-.014.043-.366.843-.732 1.687-1.12 2.52-.773 1.662-1.589 3.312-2.527 4.889-.454.763-.93 1.564-1.461 2.283 1.231-1.667-1.284 1.253-1.367 1.331 1.492-1.415-1.681.833-1.497.761-1.455.564-1.949.424-3.753.445-4.975.057-9.974-.589-14.926-.997a4322 4322 0 0 0-28.981-2.297c-63.512-4.802-126.989-6.877-190.678-6.312-18.454.164-36.898.577-55.349.953-7.52.154-13.922 6.289-13.922 13.922 0 7.427 6.371 14.076 13.922 13.922 67.602-1.381 135.161-2.006 202.703 1.696 17.865.979 35.717 2.17 53.561 3.475 9.829.719 19.662 1.707 29.503 2.229 10.715.568 21.555-1.879 29.188-9.889 6.508-6.83 9.686-15.503 13.286-24.026 2.598-6.151 6.592-15.167 9.894-22.355 7.347-15.996 15.165-31.775 23.347-47.36 34.299-65.328 74.767-127.239 116.706-187.865 42.734-61.775 87.29-122.264 130.234-183.891 20.793-29.839 41.212-59.951 60.71-90.656 9.342-14.711 18.523-29.539 27.3-44.595 5.382-9.232 9.784-19.171 8.337-30.093-1.152-8.699-5.444-16.791-7.907-25.19-8.78-29.946-12.221-60.892-16.673-91.675-2.499-17.275-5.446-34.483-9.301-51.51-2.093-9.244-3.859-19.031-7.454-27.824-3.661-8.956-9.311-16.304-17.054-22.104-15.604-11.686-35.234-9.79-53.671-10.718-20.896-1.052-41.764-2.622-62.593-4.594q-7.464-.706-14.922-1.48-3.73-.386-7.459-.788c-1.243-.134-2.485-.279-3.729-.406-5.925-.602 2.281.471-1.71-.184-7.611-1.249-15.157-2.85-22.801-3.896-8.796-1.204-17.559-1.917-26.315.104-8.083 1.866-15.284 6.903-21.455 12.247-11.534 9.986-19.62 23.795-26.564 37.189-7.677 14.804-15.04 29.754-22.797 44.524-19.053 36.278-39.234 71.78-60.959 106.528-21.772 34.823-44.363 69.129-65.823 104.148-7.531 12.29-15.632 24.228-23.648 36.206-12.175 18.193-24.27 36.445-36.067 54.886-9.059 14.162-18.76 28.427-25.942 43.673-2.712 5.759-6.389 13.849-2.027 19.873l19.748-15.237c-25.458-29.929-45.279-63.747-67.078-96.293-10.739-16.033-21.887-37.576-42.475-41.726-10.549-2.127-21.626-1.83-32.335-2.249l-31.965-1.252c-43.381-1.699-86.787-4-130.187-5.078-10.837-.269-21.565 1.074-31.169 6.425-8.232 4.586-14.928 11.561-21.242 18.427-14.864 16.165-29.63 32.422-44.365 48.705-14.647 16.185-29.388 32.306-43.79 48.709-6.895 7.854-12.944 16.321-13.824 27.056-.826 10.082 4.108 19.22 9.018 27.636 12.648 21.679 26.239 42.797 39.978 63.796 34.524 52.767 70.463 104.579 105.34 157.111 32.611 49.12 65.764 98.366 92.483 151.028a534 534 0 0 1 7.555 15.495c2.154 4.609 8.785 5.78 12.889 3.38 4.783-2.798 5.464-8.226 3.38-12.889Z"/><path d="m31.033 513.168 253.863 5.519c28.08 40.304 54.487 77.103 78.383 114.26 62.532 97.234 137.774 185.734 201.196 282.39a924 924 0 0 0-240.552-10.31c-8.409.742-17.538 1.435-24.637-3.133-3.796-2.443-15.802 10.621-18.462 6.974-28.624-39.242-36.242-81.357-57.173-125.189-7.048-14.759-45.183-61.541-53.37-75.7-21.117-36.52-28.774-51.177-50.937-87.072-20.93-33.898-40.495-67.269-71.111-92.761"/><path d="M31.033 522.309c32.884 2.059 65.849 2.825 98.784 3.768 32.926.944 65.853 1.717 98.784 2.485 18.745.437 37.573.407 56.296 1.403l-9.739-5.586c17.486 26.854 36.334 52.818 54.374 79.303 17.542 25.753 34.109 52.145 51.848 77.767 35.956 51.933 74.58 101.936 111.935 152.854 20.939 28.541 41.621 57.336 60.937 87.009l13.37-17.391c-59.267-10.608-119.581-15.81-179.795-14.814a923 923 0 0 0-44.189 1.791c-7.456.481-14.896 1.136-22.345 1.705-2.947.225-5.909.389-8.865.258-.73-.032-1.456-.118-2.185-.154-1.851-.091 3.145.732.367.027-.832-.211-1.672-.36-2.497-.606l-.814-.257q-1.941-.718.654.323c.15-.084-6.378-2.918-5.531-2.667a15.4 15.4 0 0 0-4.504-.627c-3.587.037-6.877 1.364-9.99 3.03-3.232 1.73-6.375 3.847-9.472 5.804-1.403.886 2.067-.854 1.915-.796-1.282.488-1.939-.096 2.071-.138l-.288.01q3.036-.158 5.339 1.827l2.484 1.448q2.125 2.776.664.781c-1.988-2.934-4.039-5.815-5.943-8.807-3.685-5.79-7.063-11.774-10.181-17.887-2.908-5.701-5.59-11.516-8.114-17.396-.07-.163-1.22-2.935-.429-1.002l-.413-1.008a452 452 0 0 1-1.712-4.207 630 630 0 0 1-3.646-9.312c-4.736-12.355-9.205-24.81-14.152-37.083-4.241-10.523-8.312-21.627-14.246-31.351-4.022-6.59-8.609-12.846-13.17-19.068-10.546-14.388-21.632-28.385-31.973-42.922-5.087-7.152-9.352-14.752-13.742-22.347-5.646-9.768-11.221-19.576-16.862-29.345-12.124-20.997-24.794-41.667-37.639-62.229-14.096-22.564-29.016-44.987-47.722-64.045a197 197 0 0 0-14.127-13.044c-4.722-3.952-12.103-4.974-16.669 0-4.005 4.362-5.049 12.443 0 16.669 10.011 8.379 19.1 17.77 27.392 27.846a268 268 0 0 1 3.113 3.857c.465.587.952 1.165 1.392 1.772-1.738-2.396.055.077.355.473a331 331 0 0 1 5.881 7.997 438 438 0 0 1 10.69 15.747c13.941 21.466 27.203 43.449 40.102 65.555 5.369 9.202 10.629 18.466 15.892 27.729 5.515 9.705 10.688 19.714 16.676 29.135 8.949 14.079 19.539 27.18 29.427 40.599 5.202 7.06 10.391 14.14 15.277 21.424 4.527 6.748 8.014 13.631 11.261 21.097.383.88.794 1.758 1.142 2.653-.144-.371-1.02-2.45-.141-.332.669 1.61 1.334 3.222 1.987 4.838a578 578 0 0 1 3.951 10.065c2.313 6.045 4.548 12.118 6.798 18.187 4.81 12.977 9.707 25.918 15.304 38.582 5.395 12.207 11.592 24.071 19.003 35.183 2.012 3.017 4.058 6.615 6.611 9.164 3.707 3.702 9.259 4.992 14.273 3.637 4.319-1.168 7.896-3.693 11.588-6.079a50 50 0 0 1 2.233-1.383c.412-.236.878-.431 1.272-.692 1.318-.873-1.707.878-1.84.742a30 30 0 0 0 1.093-.342l-2.714.355q1.169 0-1.096-.191l-1.404-.185q-4.113-1.943-1.795-.607c1.217.715 2.525 1.237 3.822 1.785 6.978 2.945 14.584 3.447 22.078 2.94 14.628-.988 29.206-2.378 43.858-3.067a944 944 0 0 1 89.471.033 924 924 0 0 1 66.339 5.577c3.786.456 7.575.909 11.352 1.44-.454-.064-2.422-.332-.088-.01q1.548.212 3.094.428a920 920 0 0 1 27.778 4.324c4.828.824 9.31-.186 12.444-4.243 2.759-3.572 3.541-9.2.926-13.149-26.211-39.569-54.028-77.977-82.328-116.071-28.293-38.085-56.883-75.964-84.094-114.837-13.525-19.322-26.475-38.996-39.352-58.752-12.703-19.489-25.889-38.659-39.188-57.745-6.883-9.879-13.924-19.649-20.905-29.459l-5.122-7.201c-.908-1.278-1.787-2.585-2.72-3.844-.016-.022-2.978-3.912-1.292-1.669-.529-.703-1.052-1.41-1.578-2.115-2.876-3.857-5.395-8.296-10.224-9.859-2.056-.665-4.575-.363-6.716-.389-1.77-.021-3.541-.07-5.311-.106l-75.415-1.521c-50.274-1.014-100.547-1.783-150.831-2.033-6.197-.031-12.391.145-18.588.263-4.778.091-9.366 4.139-9.142 9.142.233 5.209 4.019 8.821 9.142 9.142Z"/><path d="M287.644 524.024c10.188-18.174 21.595-35.668 32.832-53.206a1291 1291 0 0 1 34.735-51.416 1113 1113 0 0 1 15.5-21.272c1.755-2.35 3.863-4.632 5.052-7.32.963-2.177 1.679-4.502.903-6.901-.611-1.888-1.632-3.434-3.21-4.652-1.511-1.167-3.465-2.011-5.427-1.923-2.502.112-4.404 1.038-6.333 2.623-2.493 2.05-4.311 5.041-6.249 7.629a1113 1113 0 0 0-31.6 44.422c-11.643 17.249-22.713 34.972-32.889 53.124-5.748 10.253-11.29 20.62-16.938 30.928-1.983 3.619-1.007 8.766 2.83 10.794 3.725 1.968 8.638 1.015 10.794-2.83M912.09 84.666a998 998 0 0 1-10.067 13.286c-3.607 4.669-6.624 9.914-9.869 14.845-6.301 9.574-12.484 19.222-18.677 28.866-12.378 19.276-24.391 38.787-36.519 58.221-23.921 38.33-47.362 76.962-71.861 114.929-21.633 33.525-43.811 66.694-66.176 99.734-22.686 33.515-45.552 66.909-68.222 100.435-24.174 35.751-48.119 71.658-71.557 107.896q-4.634 7.166-9.243 14.348l17.752-2.288c-18.281-19.59-34.926-40.79-51.364-61.924l-1.925-2.479c-.464-.599-2.489-3.18-.647-.834-1.315-1.675-2.6-3.374-3.895-5.064a2018 2018 0 0 1-23.657-31.499c-10.254-13.937-20.332-28.007-30.152-42.254s-19.059-28.875-28.08-43.668c-3.209-5.262-10.707-7.723-16.127-4.229-5.284 3.407-7.663 10.494-4.229 16.127 7.99 13.101 16.815 25.722 25.474 38.384 9.783 14.307 19.84 28.425 30.078 42.409 20.044 27.38 40.7 54.354 62.245 80.573 8.51 10.355 17.14 20.645 26.293 30.441 5.16 5.523 13.961 3.627 17.752-2.288 23.547-36.743 47.626-73.142 71.99-109.348 22.807-33.892 45.854-67.62 68.77-101.439 22.356-32.992 44.574-66.08 66.287-99.499 24.145-37.164 47.496-74.848 70.57-112.685l35.771-58.658c5.961-9.774 11.725-19.67 17.559-29.52 2.917-4.926 5.787-9.877 8.649-14.836s5.994-9.805 8.545-14.897c2.57-5.13 5.023-10.321 7.596-15.452 1.831-3.65.969-8.195-2.714-10.349-3.858-2.256-7.901-.573-10.349 2.714Z"/><path d="M468.499 493.67c63.121-.874 143.203-14.959 204.764-28.936-21.013 22.628-48.181 59.507-60.027 88.025s-25.864 41.156-54.446 72.731c-7.077-8.171-14.235-16.273-21.392-24.374l-56.254-63.674c-7.055-7.986-14.599-18.535-10.44-28.346 3.042-7.175 11.135-10.526 18.463-13.179"/><path d="M468.499 502.58q2.54.208 5.08.392l-2.499-.336c3.85.567 7.762.444 11.651.437 3.11-.006 6.237.036 9.343-.105a777 777 0 0 0 19.171-1.085c13.407-.942 26.76-2.303 40.092-3.998a1244 1244 0 0 0 82.96-13.4c14.033-2.758 28.013-5.773 42.009-8.713l-11.136-19.131c-10.208 10.658-19.421 22.296-28.231 34.121-8.818 11.836-17.11 24.118-24.344 36.992-4.111 7.315-7.666 14.83-10.918 22.561l1.179-2.795c-4.777 11.289-10.884 21.818-18.361 31.532l1.838-2.378c-8.074 10.45-17.193 20.061-26.122 29.773-3.268 3.554-6.53 7.114-9.774 10.69h16.709c-21.127-24.433-42.651-48.529-64.014-72.756l-8.926-10.122c-2.841-3.222-5.756-6.392-8.4-9.781l1.866 2.415c-2.329-3.021-4.443-6.21-5.975-9.715l1.204 2.853c-.825-1.961-1.439-3.977-1.727-6.089l.427 3.176a17.6 17.6 0 0 1 .008-4.217l-.427 3.177a16.4 16.4 0 0 1 1.052-3.802l-1.205 2.856a16.6 16.6 0 0 1 1.953-3.327l-1.87 2.42c1.015-1.291 2.183-2.414 3.474-3.427l-2.421 1.871c2.823-2.147 6.023-3.64 9.274-5.014l-2.853 1.204a85 85 0 0 1 3.741-1.484c2.956-1.073 5.468-2.672 7.1-5.459 1.49-2.546 2.121-6.299 1.198-9.154-.93-2.875-2.712-5.648-5.459-7.1-2.698-1.426-6.174-2.279-9.154-1.198-5.174 1.878-10.535 3.701-15.066 6.909-5.948 4.212-11.021 9.861-12.611 17.204-1.697 7.836-.019 15.278 3.526 22.337 2.759 5.494 6.808 10.376 10.853 14.963 16.638 18.866 33.345 37.672 50.018 56.507 9.262 10.464 18.547 20.909 27.707 31.463 1.821 2.098 5.616 3.583 8.355 3.461 3.041-.136 6.249-1.131 8.355-3.461 9.324-10.317 18.923-20.402 27.98-30.958 7.537-8.784 14.696-18.003 20.41-28.094 3.623-6.398 6.523-13.093 9.373-19.86l-1.179 2.794c7.321-17.26 17.557-33.309 28.388-48.55 3.257-4.584 6.609-9.1 10.044-13.552l-1.813 2.346c6.681-8.643 13.709-17.015 21.008-25.142 1.72-1.915 2.802-3.999 3.148-6.572.328-2.44.016-5.167-1.358-7.298-2.815-4.366-7.819-6.505-12.926-5.26-15.408 3.757-30.944 6.965-46.509 10.002-16.523 3.224-33.09 6.249-49.712 8.925a1126 1126 0 0 1-28.615 4.239l2.897-.389c-10.065 1.351-20.15 2.6-30.243 3.724-9.664 1.077-19.352 1.809-29.031 2.711q-3.94.367-7.883.681c-3.32.263-6.78.268-10.045.919l2.499-.336q-2.538.306-5.08.587c-2.434.269-4.505.815-6.3 2.61-1.545 1.545-2.709 4.081-2.61 6.3.103 2.304.86 4.694 2.61 6.3 1.822 1.672 3.832 2.407 6.3 2.61Z"/></svg>