<?xml version="1.0" encoding="UTF-8"?><svg xmlns="http://www.w3.org/2000/svg" data-name="ARTWORK" viewBox="0 0 1000 1000"><path d="M512.031 874.34c-25.918-9.642-48.661-19.646-73.816-31.649-26.138-12.472-51.872-25.758-77.541-39.16-52.743-27.538-104.628-56.692-156.824-85.244-24.536-13.422-49.108-26.783-73.877-39.77a3061 3061 0 0 0-17.061-8.86c-1.472-.76-2.944-1.523-4.378-2.353a48 48 0 0 1-2.124-1.3c-.586-.381-2.338-1.766-.296-.074a26 26 0 0 1-1.806-1.624c-.607-.607-1.537-2.239-.239-.073-.335-.559-.68-1.102-1.008-1.666 1.281 2.202-.1-.88-.333-1.568-.57-1.687-.092 2.697-.021-.435.021-.907-.041-1.817-.016-2.726.047-1.65.196-3.293.373-4.934.486-4.494 1.09-8.978 1.64-13.465l3.077-25.105 12.617-102.93 6.231-50.837 1.462-11.925c.237-1.935.485-3.868.714-5.804.408-3.445-.409 2.607.107-.837.154-1.026.3-2.054.467-3.078.553-3.396 1.231-6.778 2.182-10.086.47-1.634 1.03-3.23 1.617-4.824-.158.43-1.062 2.2-.045.143.447-.904.885-1.809 1.381-2.689s1.054-1.718 1.59-2.576c1.177-1.885.222-.355-.097.032a37 37 0 0 1 3.459-3.663c.616-.569 1.266-1.092 1.901-1.638 1.457-1.253-2.363 1.466.338-.193 1.734-1.064 3.398-2.193 5.188-3.172 2.852-1.56 5.81-2.891 8.785-4.194 1.872-.82-2.68 1.089.382-.151q.944-.384 1.887-.77 3.42-1.39 6.843-2.771a3083 3083 0 0 1 140.514-52.769 2998 2998 0 0 1 95.829-31.537 3089 3089 0 0 1 48.293-14.573c15.628-4.577 31.265-9.414 47.101-13.224 3.91-.941 7.841-1.724 11.806-2.393 3.751-.633-1.358.069.895-.13.988-.087 1.973-.217 2.962-.3 2.36-.198 4.73-.302 7.098-.286 1.971.014 3.924.159 5.889.296.415.029 2.372.365.261.006.975.165 1.947.335 2.915.539q2.485.525 4.911 1.277 1.565.485 3.101 1.056c.276.103 3.438 1.544 1.112.42 14.25 6.884 26.621 16.854 39.313 26.192l82.684 60.833 21.437 15.771c3.026 2.226 6.06 4.442 9.075 6.684q1.75 1.301 3.483 2.625c-2.399-1.835.212.181.58.475q1.148.916 2.279 1.852c2.501 2.072 4.937 4.23 7.241 6.519a78 78 0 0 1 3.311 3.486q.634.712 1.248 1.441.61.726 1.199 1.47-1.305-1.702-.51-.621c1.626 2.505 3.153 4.927 4.528 7.587 1.405 2.718-.698-2.465.174.472.176.594.406 1.175.588 1.767q.412 1.347.718 2.723c.118.532.465 3.288.237.911q.28 2.918.165 5.849c-.03.782-.105 1.56-.15 2.341-.216 3.746.531-2.317-.161 1.387a137 137 0 0 1-2.703 11.583c-1.999 7.183-4.124 14.333-6.205 21.493a7823 7823 0 0 1-12.057 41.096c-17.367 58.569-35.495 116.923-55.14 174.771-9.965 29.345-20.322 58.56-31.224 87.571a2249 2249 0 0 1-16.446 42.492 2594 2594 0 0 1-8.187 20.278 1815 1815 0 0 1-6.203 14.983l-.832 1.982c-1.147 2.729.648-1.517-.41.969a2306 2306 0 0 1-8.421 19.529c-1.685 3.862-3.213 7.782-4.764 11.699a1422 1422 0 0 1-2.689 6.742c-.105.262-1.451 3.401-.38 1.067-2.516 5.479-1.74 12.694 4.144 15.803 5.082 2.685 13.111 1.718 15.803-4.144 3.042-6.625 6.816-12.911 9.787-19.58a1510 1510 0 0 0 8.929-20.481c6.274-14.661 12.388-29.389 18.269-44.212 11.439-28.829 22.236-57.911 32.579-87.15 21.035-59.464 40.21-119.575 58.437-179.954 8.631-28.592 17.043-57.251 25.319-85.948 4.676-16.215 10.607-33.517 5.426-50.374-4.374-14.228-14.671-25.428-26.061-34.553-13.269-10.631-27.295-20.372-40.998-30.433l-42.899-31.498-42.389-31.123c-13.291-9.759-26.207-19.974-41.707-26.026-16.874-6.588-35.462-4.754-52.695-.694-16.44 3.873-32.655 8.957-48.855 13.72a3078 3078 0 0 0-98.063 30.618c-65.024 21.499-129.39 45.013-192.845 70.785-14.886 6.046-29.829 12.914-38.097 27.56-8.227 14.574-8.883 32.117-10.887 48.339L89.584 561.612l-6.512 52.72-3.256 26.36c-1.085 8.787-2.838 17.586-1.069 26.364 3.376 16.75 20.089 23.101 33.594 30.088a3219 3219 0 0 1 36.963 19.457c53.005 28.297 105.52 57.485 158.794 85.281 53.011 27.658 106.737 53.907 162.191 76.347 12.188 4.932 24.349 9.893 36.685 14.449 4.675 1.726 10.624-1.927 11.698-6.642 1.228-5.393-1.641-9.837-6.642-11.698Z"/><path d="M571.798 904.857c26.311-9.727 54.517-12.886 82.399-15.97l238.062-26.333c6.908-.764 14.334-1.757 19.412-6.503 3.555-3.323 5.423-8.023 7.177-12.562a6496 6496 0 0 0 55.147-147.967c.682-1.9 1.37-3.964.784-5.896-.746-2.459-3.265-3.859-5.564-5.006a4319 4319 0 0 0-260.331-119.244c.473 16.063-11.46 54.837-13.814 70.733-3.74 25.254-3.992-4.627-14.574 18.606-22.415 49.211-42.876 129.307-65.291 178.518-7.569 16.618-15.226 33.385-26.202 47.978"/><path d="M574.548 914.832c15.652-5.292 31.97-8.438 48.315-10.663l-3.031.407c3.754-.504 7.516-.93 11.269-1.44l-3.071.413c25.152-3.319 50.469-5.573 75.696-8.25 25.573-2.713 51.13-5.579 76.691-8.406l76.691-8.483c12.557-1.389 25.145-2.612 37.68-4.182 6.793-.851 13.322-1.901 19.402-5.295 5.985-3.341 10.477-8.867 13.232-15.07 5.357-12.061 9.7-24.644 14.397-36.974a6461 6461 0 0 0 13.523-35.814 4866 4866 0 0 0 26.256-71.907c2.43-6.819 6.5-14.615 4.647-22.012-1.986-7.928-8.616-11.449-15.301-14.802a4314 4314 0 0 0-33.731-16.735 4014 4014 0 0 0-67.927-32.519c-45.479-21.267-91.32-41.77-137.532-61.392a5165 5165 0 0 0-19.58-8.265c-3.51-1.474-7.992.054-10.789 2.215-3.002 2.32-4.968 5.823-4.878 9.719.074 3.201-.262 6.397-.684 9.566l.442-3.292c-2.706 19.739-9.076 38.732-12.657 58.293-.755 4.121-.913 8.62-2.52 12.53l1.249-2.959a4.4 4.4 0 0 1-.437.794l1.937-2.507c-.089.11-.18.206-.292.294l2.507-1.937a1 1 0 0 1-.147.086l2.959-1.249c-.077.03-.143.048-.224.061l3.292-.442a1 1 0 0 1-.152 0l3.292.442a1.4 1.4 0 0 1-.311-.082l2.959 1.249c-.599-.265-1.064-.754-1.61-1.106-2.298-1.478-5.469-2.449-8.211-2.321-7.945.371-13.216 6.114-16.683 12.754-3.514 6.73-6.277 13.94-9.118 20.968-2.667 6.598-5.19 13.253-7.632 19.936-10.705 29.298-19.947 59.104-30.094 88.594-5.328 15.486-10.863 30.92-17.223 46.016l1.249-2.959c-3.963 9.369-8.208 18.652-12.632 27.811-4.907 10.157-10.326 20.197-17.095 29.251-1.738 2.325-1.94 6.558-1.206 9.222.764 2.776 2.911 5.784 5.5 7.152 2.777 1.467 6.142 2.203 9.222 1.206 3.15-1.019 5.183-2.866 7.152-5.5 10.538-14.095 18.374-29.81 25.654-45.773 6.144-13.472 11.607-27.231 16.667-41.144 10.558-29.029 19.722-58.54 29.777-87.743 5.297-15.383 10.8-30.715 17.119-45.713l-1.249 2.959c2.264-5.353 4.317-11.264 7.857-15.93l-1.937 2.507c.5-.631 1.033-1.222 1.667-1.722l-2.507 1.937c.306-.223.618-.413.967-.563l-2.959 1.249c.194-.071.385-.126.588-.165l-3.292.442a3 3 0 0 1 .676-.014l-3.292-.442c.255.037.493.104.733.199l-2.959-1.249c.814.359 1.461.984 2.21 1.452 5.162 3.222 12.141 2.064 16.296-2.221 5.072-5.231 5.087-13.377 6.387-20.086 2.925-15.096 7.242-29.893 10.31-44.962 1.651-8.11 3.421-16.582 3.212-24.894l-15.667 11.935a4421 4421 0 0 1 15.915 6.68l-2.952-1.246c33.379 14.092 66.604 28.55 99.634 43.441s65.857 30.228 98.523 45.902a4311 4311 0 0 1 40.936 19.908c2.209 1.089 4.45 2.13 6.625 3.286.333.177.664.358.987.551.89.533 1.919 1.8-.567-.542.738.696.605 1.069-.757-1.181 1.017 1.681-.863-3.04-.325-.714l-.419-3.12a9.4 9.4 0 0 1-.023 1.98l.42-3.123c-.455 2.414-1.462 4.712-2.299 7.013q-1.433 3.936-2.871 7.869-2.808 7.68-5.635 15.354c-3.677 9.981-7.386 19.95-11.072 29.927a6484 6484 0 0 1-22.691 60.485c-4.272 11.217-8.381 22.529-12.947 33.63l1.206-2.859c-.563 1.333-1.152 2.653-1.838 3.928a27 27 0 0 1-1.175 1.992l-.368.546q-1.091 1.506.671-.86c-.484.408-.898.995-1.364 1.432q-.459.429-.948.822l1.426-1.127c-.514.895-2.943 1.685-3.809 2.059l2.859-1.206c-3.167 1.273-6.486 1.94-9.855 2.417l3.182-.428c-10.552 1.415-21.18 2.383-31.763 3.553l-32.754 3.623-64.708 7.158c-42.916 4.747-85.87 9.326-128.717 14.663-23.492 2.926-46.972 6.99-69.072 15.759-2.593 1.029-4.721 2.258-6.182 4.754-1.298 2.217-1.847 5.485-1.043 7.971 1.645 5.083 7.236 9.081 12.725 7.225ZM92.852 676.34c40.554-15.697 81.642-29.966 122.956-43.523 41.527-13.627 83.3-26.494 125.033-39.473 41.542-12.92 83.062-25.926 124.299-39.796a3137 3137 0 0 0 123.027-44.255c41.089-15.755 82.242-31.533 122.76-48.706q7.6-3.223 15.185-6.484c7.585-3.261 6.569-9.988 3.761-14.343-3.351-5.198-8.967-6.16-14.343-3.761-39.456 17.608-78.821 35.03-119.084 50.707a3136 3136 0 0 1-122.226 44.693c-40.979 14.027-82.264 27.133-123.603 40.054s-83.106 25.78-124.496 39.186c-41.17 13.335-82.17 27.222-122.673 42.478a1915 1915 0 0 0-15.379 5.869c-4.531 1.75-7.665 6.049-6.285 11.07 1.189 4.327 6.513 8.049 11.07 6.285Z"/><path d="M127.994 419.984c25.104 21.099 50.205 42.213 75.121 63.534s49.64 42.931 74.11 64.793c13.75 12.284 27.635 24.478 40.969 37.213 2.774 2.649 6.78 3.449 10.322 1.954s5.618-4.804 5.809-8.635c1.609-32.323 1.708-64.777 4.783-97.019q1.132-11.895 2.52-23.764a1040 1040 0 0 1 1.885-15.156l.154-1.164c.178-1.363-.177 1.293.009-.069q.423-3.104.86-6.206c2.25-15.875 5.111-31.659 8.386-47.353 3.73-17.874 8.074-35.607 12.93-53.208l-17.408 2.275c20.602 27.206 43.036 52.844 67.021 77.117 23.391 23.671 48.082 46.025 73.497 67.498 14.561 12.302 29.407 24.264 44.373 36.068 3.153 2.487 6.627 3.657 10.558 1.998 3.351-1.414 6.168-5.014 5.941-8.833-.899-15.12-1.579-30.249-2.373-45.374-.782-14.89-1.763-29.782-2.189-44.685a2330 2330 0 0 1-.861-43.916c-.072-7.35-.241-14.69-.581-22.033-.343-7.39-.119-14.802-.025-22.199.107-8.389-.087-16.873.676-25.229.789-8.645 1.394-17.393 1.599-26.075.116-4.928-4.414-9.641-9.417-9.417-5.201.233-9.292 4.136-9.417 9.417a283 283 0 0 0 .371 22.893c.436 7.518.314 15.002.273 22.532s-.049 15.097-.036 22.645c.013 7.351-.682 14.704-.66 22.066.044 14.64.181 29.28.432 43.918.253 14.736.244 29.476.639 44.209.459 17.093 1.311 34.176 2.237 51.25l16.499-6.834c-26.242-20.919-52.106-42.357-76.996-64.876-24.561-22.22-48.146-45.537-70.211-70.247-12.578-14.085-24.749-28.568-36.394-43.434-2.023-2.583-6.298-3.267-9.267-2.449-3.162.871-5.826 3.452-6.652 6.652-8.138 31.509-13.755 63.52-18.535 95.687-4.853 32.658-8.282 65.593-10.917 98.501-1.457 18.195-2.553 36.559-2.604 54.816l16.131-6.682c-12.337-10.723-24.36-21.814-36.59-32.659a4457 4457 0 0 0-37.169-32.595 4319 4319 0 0 0-75.151-63.652c-14.234-11.786-28.71-23.264-43.239-34.685-1.754-1.379-3.378-2.364-5.707-2.364-1.98 0-4.344.879-5.707 2.364-2.747 2.993-3.452 8.514 0 11.415Z"/><path d="M527.902 525.149c-.461 12.546-.115 25.112.09 37.664.201 12.304.635 24.602 1.09 36.899a3556 3556 0 0 0 3.538 74.502c2.866 49.393 6.844 98.718 11.84 147.941a3569 3569 0 0 0 9.423 83.097c.332 2.655.857 4.853 2.826 6.822 1.673 1.673 4.419 2.934 6.822 2.826 4.685-.21 10.325-4.285 9.648-9.648a3563 3563 0 0 1-15.584-148.369c-4.135-49.309-7.323-98.701-9.467-148.136-.599-13.803-1.012-27.612-1.591-41.415-.59-14.059-.822-28.149-1.843-42.183-.318-4.371-3.634-8.609-8.396-8.396-4.687.21-8.223 3.689-8.396 8.396m-219.743 71.856c13.208 15.987 26.456 31.945 39.578 48.004a3561 3561 0 0 1 60.404 76.018l-1.467-1.899a3570 3570 0 0 1 37.295 49.144c3.857 5.175 7.646 10.404 11.592 15.511l-1.469-1.901c13.078 16.931 25.942 34.005 37.522 52.012 1.606 2.498 3.13 5.051 4.753 7.538 1.674 2.565 3.492 5.025 5.25 7.532 1.186 1.691 2.607 3.017 4.657 3.581 1.865.514 4.349.282 6.005-.786 1.664-1.073 3.129-2.67 3.581-4.657.493-2.163.121-3.994-.786-6.005a119.5 119.5 0 0 0-7.227-13.626 473 473 0 0 0-8.298-12.982c-5.67-8.573-11.65-16.926-17.513-25.366-5.942-8.554-11.928-17.066-18.145-25.423a3556 3556 0 0 0-18.893-25.161 3708 3708 0 0 0-39.458-51.134 3567 3567 0 0 0-39.308-49.134c-13.192-16.195-26.468-32.323-40.134-48.122a4864 4864 0 0 0-5.147-5.938c-1.457-1.677-4.241-2.649-6.396-2.649-2.219 0-4.869.985-6.396 2.649-1.582 1.724-2.757 3.987-2.649 6.396.113 2.524 1.044 4.453 2.649 6.396Zm402.066-471.938c1.812 29.761 3.578 59.524 5.332 89.289l.735 12.47c.299 5.067.853 10.027 1.704 15.035.366 2.154 2.547 4.769 4.434 5.766 1.949 1.03 3.958 1.44 6.152 1.145 4.81-.646 8.201-4.63 8.366-9.476.256-7.512-.512-14.96-1.08-22.447l-1.686-22.197c-1.13-14.881-2.269-29.761-3.371-44.644l-1.846-24.941c-.186-2.51-.92-4.801-2.744-6.626-1.625-1.625-4.292-2.849-6.626-2.744-2.423.109-4.937.905-6.626 2.744-1.623 1.768-2.895 4.147-2.744 6.626"/><path d="M667.131 204.553c16.411-3.748 32.893-7.2 49.433-10.33s33.143-5.959 49.775-8.548q6.902-1.074 13.816-2.072c4.736-.684 9.622-1.031 14.224-2.349 4.656-1.334 7.583-5.883 6.944-10.637s-4.659-8.363-9.522-8.406c-4.933-.044-9.918.997-14.799 1.722q-6.178.918-12.346 1.897c-8.383 1.331-16.77 2.694-25.114 4.255a1260 1260 0 0 0-49.376 10.266 1156 1156 0 0 0-27.844 6.758c-4.586 1.17-7.802 6.539-6.318 11.127 1.564 4.833 6.18 7.447 11.127 6.318Zm113.364 126.241c5.168 0 10.119-4.545 9.88-9.88s-4.341-9.88-9.88-9.88c-5.168 0-10.119 4.545-9.88 9.88s4.341 9.88 9.88 9.88m66.197-31.125c5.095 0 9.977-4.481 9.741-9.741s-4.28-9.741-9.741-9.741c-5.095 0-9.977 4.481-9.741 9.741s4.28 9.741 9.741 9.741m4.225 79.013c5.168 0 10.119-4.545 9.88-9.88s-4.341-9.88-9.88-9.88c-5.168 0-10.119 4.545-9.88 9.88s4.341 9.88 9.88 9.88M53.798 267.681c18.239-10.642 33.031-27.315 43.123-45.725 3.074-5.608 5.685-11.439 8.08-17.366l-.997 2.363c2.86-6.118 4.697-12.899 6.329-19.436 1.787-7.161 3.114-14.426 4.114-21.737 2.094-15.313 2.926-30.684 2.993-46.133.036-8.301-.122-16.598-.211-24.898L96.09 97.61c4.454 14.852 10.037 29.327 17.477 42.959 7.339 13.446 16.456 26.139 27.22 37.059 10.686 10.841 23.244 20.198 37.136 26.503 14.756 6.697 30.473 10.73 46.723 11.178 15.913.439 31.742-2.886 46.054-9.847a137 137 0 0 0 4.843-2.465c2.492-1.337 4.549-4.191 5.289-6.879.759-2.755.416-6.424-1.16-8.869-1.584-2.458-3.944-4.621-6.879-5.289l-3.06-.411a11.45 11.45 0 0 0-5.809 1.571c-10.396 4.945-20.283 11.06-29.514 17.934-9.823 7.315-18.947 15.624-26.916 24.932-16.54 19.319-28.773 42.62-32.913 67.878-2.496 15.225-2.148 30.489 1.191 45.573l21.469-9.051c-6.488-11.516-14.768-22.183-24.215-31.424s-19.931-17.44-31.289-24.129-23.76-12.077-36.425-15.865c-12.781-3.823-26.16-5.92-39.496-6.267-13.239-.344-26.701 1.171-39.522 4.495q-2.28.59-4.536 1.268c-2.984.898-5.704 2.895-7.291 5.606-1.53 2.615-2.179 6.469-1.23 9.401.955 2.952 2.785 5.8 5.606 7.291 2.866 1.514 6.218 2.188 9.401 1.23a130.4 130.4 0 0 1 20.036-4.36l-3.231.434c12.057-1.607 24.287-1.536 36.342.055l-3.209-.431c13.493 1.814 26.678 5.304 39.231 10.589l-2.787-1.176c11.434 4.845 22.238 11.199 32.071 18.778l-2.314-1.788a129.4 129.4 0 0 1 23.012 23.018l-1.807-2.339a128.6 128.6 0 0 1 11.368 17.47c1.313 2.432 4.315 4.782 7.02 5.398 2.627.598 5.154.46 7.648-.592 2.256-.952 4.44-2.579 5.617-4.806 1.534-2.904 1.839-5.82 1.184-9.051-.31-1.529-.578-3.064-.835-4.603l.421 3.132c-.205-1.608-.434-3.212-.652-4.818l.422 3.141c-1.317-10.01-1.013-20.009.316-29.997l-.436 3.243c1.446-10.57 4.329-20.893 8.443-30.733l-1.225 2.904c4.449-10.543 10.306-20.404 17.288-29.465l-1.894 2.451c8.208-10.59 17.847-20.001 28.431-28.203l-2.441 1.886c1.458-1.123 2.902-2.264 4.358-3.39l-2.434 1.88c8.624-6.638 17.835-12.371 27.356-17.623l-11.618-19.877c-2.863 1.766-5.852 3.251-8.949 4.562l2.722-1.149c-6.862 2.866-14.072 4.764-21.438 5.764l3.017-.405c-8.587 1.128-17.282 1.037-25.862-.11l3.002.403c-9.458-1.3-18.702-3.863-27.505-7.552l2.683 1.132c-8.815-3.731-17.055-8.589-24.642-14.42l2.26 1.746c-9.15-7.079-17.263-15.391-24.347-24.528l1.734 2.245c-9.313-12.075-16.798-25.466-22.738-39.494l1.108 2.626c-.573-1.367-1.157-2.728-1.735-4.092l1.107 2.622c-2.834-6.722-5.399-13.593-7.495-20.583-1.546-5.155-6.479-8.425-11.808-7.709-5.121.688-9.49 5.187-9.331 10.57.551 18.711.92 37.516-.366 56.205a253 253 0 0 1-1.581 15.865l.366-2.727c-2.11 15.681-6.008 31.113-12.128 45.724l.961-2.278c-4.091 9.691-9.257 18.923-15.67 27.274l1.334-1.726c-4.613 5.963-9.832 11.261-15.783 15.894l1.647-1.272a92 92 0 0 1-8.834 6.034c-3.62 2.171-5.276 7.351-2.896 11.043s7.14 5.173 11.043 2.896Zm73.986 622.614c5.996-9.455 12.335-18.674 18.479-28.031a1525 1525 0 0 1 23.716-35.046c1.876-2.691 3.399-5.463 4.83-8.408 1.071-2.203 1.738-4.817.949-7.256-.642-1.985-1.716-3.61-3.375-4.891-3.593-2.776-9.124-2.695-12.364.736-2.427 2.57-4.608 5.262-6.68 8.128-1.61 2.228-3.073 4.575-4.587 6.869a1507 1507 0 0 0-9.153 14.041c-6.048 9.391-12.123 18.789-17.707 28.464-3.159 5.472-6.366 10.912-9.57 16.358-2.376 4.039-1.054 9.995 3.212 12.249 4.421 2.336 9.567 1.017 12.249-3.212Z"/><path d="M91.007 840.793a899 899 0 0 1 62.576 34.687c2.625 1.596 5.26 3.016 8.012 4.38 2.341 1.16 4.85 1.684 7.435.973 2.238-.616 4.663-2.347 5.766-4.434 1.183-2.239 1.776-4.952.973-7.435-.818-2.528-2.3-4.203-4.434-5.766-2.156-1.579-4.286-3.078-6.595-4.424a898 898 0 0 0-20.492-11.591 897 897 0 0 0-43.829-22.492c-2.295-1.1-4.655-1.637-7.184-.94-2.163.596-4.506 2.268-5.572 4.285-2.238 4.236-1.306 10.415 3.345 12.757Zm143.01 37.424c4.926 0 9.644-4.331 9.417-9.417s-4.137-9.417-9.417-9.417c-4.926 0-9.644 4.331-9.417 9.417s4.137 9.417 9.417 9.417m53.521-20.135c4.707 0 9.217-4.139 8.999-8.999s-3.954-8.999-8.999-8.999c-4.707 0-9.217 4.139-8.999 8.999s3.954 8.999 8.999 8.999m9.859 45.766c5.071 0 9.929-4.459 9.695-9.695s-4.26-9.695-9.695-9.695c-5.071 0-9.929 4.459-9.695 9.695s4.26 9.695 9.695 9.695"/></svg>