<?xml version="1.0" encoding="UTF-8"?><svg xmlns="http://www.w3.org/2000/svg" data-name="ARTWORK" viewBox="0 0 1000 1000"><path d="M32.5 374.639c50.013 39.718 114.011 66.696 178.857 60.739 16.104-1.479 32.077-4.661 47.267-10.275 16.957-6.267 32.662-15.14 48.186-24.296 27.597-16.277 54.302-29.622 84.85-38.651 58.082-17.167 120.587-18.674 179.083-5.089 30.038 6.976 57.577 17.132 84.196 31.417 14.145 7.591 27.488 16.35 40.593 25.597 14.754 10.411 29.598 20.369 46.618 26.737 34.151 12.777 72.469 8.369 106.986-.474 35.003-8.968 69.095-22.334 101.254-38.759a505 505 0 0 0 23.342-12.734l-19.474-11.175a1115.6 1115.6 0 0 1 7.109 167.944 1113 1113 0 0 1-5.864 82.982c-1.125 10.382-2.007 21.963-6.003 30.921-2.096 4.7-3.985 7.386-7.499 10.629-.085.079-3.352 2.614-1.336 1.179a44 44 0 0 1-3.207 2.073 47 47 0 0 1-2.802 1.513 38 38 0 0 1-1.729.827q1.762-.719-.431.141c-10.776 3.686-17.598 4.383-28.445 5.161-11.114.797-22.189 1.365-33.22 3.04-23.491 3.568-45.706 12.466-67.126 22.455-21.753 10.144-42.69 21.934-64.387 32.192s-45.032 18.114-69.616 23.136c-25.32 5.172-50.495 7.696-76.369 9.936-24.868 2.153-49.801 3.705-74.757 4.288-49.663 1.159-99.388-1.418-147.171-10.713-24.384-4.743-48.455-11.17-71.834-19.587-22.842-8.224-43.77-19.017-65.894-30.234-11.456-5.808-23.225-11.307-35.495-15.175-12.964-4.087-26.624-5.919-40.17-6.608-25.577-1.3-51.212 1.772-76.764-.362-5.843-.488-10.33-1.122-16.37-2.478-5.859-1.315-12.1-3.029-16.24-5.375-2.592-1.469-2.372-1.263-4.404-3.339-1.17-1.196-1.822-2.432-2.281-3.795-1.904-5.647-1.887-7.712-2.025-13.662-.643-27.799.307-55.723.494-83.529.379-56.445.282-112.886.328-169.332.011-13.72-.191-27.445-.106-41.164.101-16.241-25.133-16.259-25.234 0-.36 58.004-1.853 116.004-2.185 174.01l-.493 86.069c-.149 26.063-5.518 59.949 19.558 76.714 10.705 7.157 24.392 9.985 36.951 11.744 13.583 1.901 27.2 2.284 40.899 2.043 25.898-.455 52.187-2.71 76.762 4.283 23.953 6.816 45.577 21.241 68.583 31.829a465 465 0 0 0 72.625 26.37c50.014 13.57 102.089 19.301 153.815 20.265 51.854.966 104.031-2.434 155.438-9.205 27.94-3.68 55.794-8.734 82.333-18.465 23.142-8.485 44.97-20.01 66.747-31.449 21.496-11.291 41.881-21.984 64.588-29.115 10.616-3.334 22.537-6.03 32.308-6.973 10.584-1.022 21.235-1.247 31.797-2.52 23.53-2.836 46.775-11.147 57.328-34.25 5.512-12.067 7.151-24.908 8.62-37.973a1106 1106 0 0 0 4.064-44.184 1115 1115 0 0 0-.772-169.941 1156 1156 0 0 0-4.236-42.315c-1.114-9.427-10.216-16.536-19.474-11.175-30.262 17.525-62.214 31.775-95.567 42.306-31.467 9.936-66.193 18.469-98.63 11.99-32.734-6.538-57.077-30.33-85.016-47.038-26.611-15.913-55.523-28.221-85.341-36.687-59.653-16.936-123.372-18.784-183.976-5.82a355.5 355.5 0 0 0-87.388 31.101c-29.387 15.038-55.974 35.459-88.251 44.189-58.169 15.735-122.29-2.225-173.581-33.026a307 307 0 0 1-19.627-12.866c-8.158-5.792-18.728 7.686-10.793 13.988Z"/><path d="M26.231 380.592c-7.664-31.628 21.943-57.662 47.27-72.287 161.16-93.064 360.631-114.22 542.679-88.417a876 876 0 0 1 153.061 35.971c48.899 16.242 101.576 34.939 143.441 65.692 11.239 8.256 62.22 37.503 54.519 56.124-7.591 18.356-27.471 1.51-28.794 4.894-2.001 5.12-15.93 2.704-21.085 4.612-31.312 11.59-25.213 12.425-56.524 24.015-14.621 5.412-29.644 10.897-45.233 10.77-12.517-.102-24.698-3.83-36.563-7.819a752 752 0 0 1-79.388-31.822c-26.644-12.483-52.597-26.549-80.058-37.114-82.789-31.852-178.118-29.62-259.326 6.072-53.06 23.32-103.226 60.95-161.183 60.549-19.847-.137-39.369-4.86-58.439-10.361a703 703 0 0 1-97.443-36.106"/><path d="M35.401 378.064c-5.19-26.592 22.791-47.37 42.902-59.05 28.745-16.694 59.071-30.887 90.088-42.804 63.005-24.207 130.132-40.001 196.439-47.475 68.084-7.674 136.927-7.929 205.113-1.364 72.735 7.003 144.744 23.386 214.701 47.403 32.451 11.141 64.067 23.177 93.911 40.21 11.564 6.6 22.227 14.368 33.297 21.709 3.966 2.63 7.947 5.238 11.876 7.925a354 354 0 0 1 6.399 4.473q1.751 1.254 3.481 2.536c.581.431 1.157.87 1.739 1.301 1.968 1.457-.81-.659.389.292 4.392 3.483 8.695 7.091 12.611 11.109a72 72 0 0 1 2.315 2.478c.787.886 2.581 3.285.873.902 1.368 1.909 2.394 3.918 3.618 5.899.247.399-.949-2.633-.182-.069.949 3.174-.081-2.206.037-.189.185 3.148.633-2.206.093-.329-.23.8-.725 1.156.36-.699-.231.394-1.272 3.156-.815 1.618.366-1.232-1.171.587.251-.185 1.476-.801.093-.111-.18.036 2.438-1.31 1.601-.564.709-.339-2.195.553.636-.074.95-.055-1.596-.101-3.48-.479-.798.186-1.244-.309-2.484-.549-3.712-.928-4.086-1.262-8.082-3.628-12.497-3.512-1.994.053-3.86.411-5.664 1.233-1.51.688-2.985 1.468-4.173 2.681-.217.222-1.909 2.696-2.201 2.765-.418.099.927-1.067 1.172-1.294 1.015-.939 2.12-1.052 3.044-1.851-.235.203-1.644.427-1.796.436 1.813-.096 1.4-.127-.161-.037-6.91.398-13.274.66-19.819 3.149-6.806 2.589-13.569 5.332-20.183 8.382-3.951 1.822-7.82 3.811-11.747 5.682-2.125 1.013-4.273 1.969-6.423 2.927-2.187.974-.489.216-.039.028q-1.16.485-2.325.957a347 347 0 0 1-6.067 2.393c-16.532 6.359-33.89 13.571-51.878 12.258-8.916-.651-17.684-3.527-26.127-6.308-9.033-2.976-18-6.161-26.907-9.497a699 699 0 0 1-51.131-21.505c-34.081-15.949-67.163-34.226-103.187-45.601-33.71-10.644-69.324-16.035-104.665-16.195-35.352-.161-71.003 4.885-104.852 15.109-33.804 10.21-64.664 26.687-95.922 42.76-28.328 14.566-58.717 28.96-89.939 30.905-18.354 1.143-36.177-2.052-53.857-6.729-18.509-4.896-36.784-10.786-54.785-17.296a670 670 0 0 1-49.993-20.386c-6.402-2.917-14.029-1.829-17.834 4.676-3.276 5.6-1.761 14.901 4.676 17.834 32.039 14.599 65.022 27.08 98.832 36.93 17.581 5.122 35.428 9.449 53.733 10.895 15.972 1.262 32.157-.409 47.738-4.036 30.107-7.008 57.978-21.553 85.215-35.733 27.394-14.262 54.072-27.495 83.78-35.993 59.853-17.121 124.101-17.137 183.929.222 31.721 9.204 60.921 24.149 90.526 38.497 31.439 15.237 63.763 28.741 96.927 39.763 17.991 5.979 35.696 9.333 54.598 6.191 15.744-2.617 31.135-8.845 45.828-14.913 8.778-3.626 17.178-7.928 25.812-11.855 1.063-.484 2.134-.949 3.202-1.423.152-.068 1.819-.778.519-.228-1.494.632.934-.381 1.25-.51 3.508-1.423 7.033-2.822 10.59-4.119.529-.193 4.335-1.399 2.315-.921-1.891.448 1.417-.068 2.177-.106 2.72-.136 5.437-.174 8.145-.48 3.963-.448 7.408-1.039 10.99-2.882a16.7 16.7 0 0 0 4.145-3.053c.771-.776 2.455-3.155 2.453-3.152 1.073-1.593-.446.888-1.424 1.681l-5.721 3.334c-1.042.396-5.098.331-5.479-.008.209.186.906.229 1.17.338.774.319 1.577.582 2.359.881 2.51.959 5.011 1.915 7.643 2.493 8.639 1.895 17.288.669 24.104-5.275 12.137-10.584 10.578-27.033 1.742-38.907-15.079-20.265-38.619-32.892-58.966-47.18-33.461-23.496-71.869-39.272-110.202-52.903-40.711-14.476-82.043-26.99-124.314-36.045-79.645-17.061-162.034-23.745-243.404-20.676-79.674 3.005-159.427 15.911-235.256 40.807-37.713 12.381-74.528 27.906-109.626 46.451-30.346 16.034-67.076 35.96-75.367 72.45-1.957 8.611-1.687 17.425.513 25.964 3.083 11.966 20.661 6.84 18.339-5.056Zm115.732 123.1c-4.448 1.336-8.821 3.26-12.756 5.736s-7.839 5.452-10.985 8.895c-6.828 7.472-11.708 16.28-14.752 25.923-3.044 9.64-4.048 20.049-3.579 30.125.44 9.446 1.921 19.185 5.288 28.063 3.624 9.555 8.708 18.534 16.031 25.771 6.894 6.813 15.572 11.977 24.888 14.674 14.144 4.096 29.842 1.803 41.774-6.951 4.596-3.372 8.638-7.024 12.143-11.52 3.675-4.715 6.936-9.589 9.536-14.984.931-1.931 1.767-3.902 2.587-5.883l-1.085 2.571c6.347-14.135 9.802-29.611 9.054-45.16-.375-7.799-1.623-15.708-4.188-23.1-1.391-4.009-3.07-7.964-5.072-11.708-2.074-3.879-4.614-7.39-7.325-10.847-5.68-7.242-13.159-13.257-21.202-17.685-2.422-1.333-5.386-1.798-8.078-1.057-2.432.67-5.067 2.55-6.265 4.818-2.598 4.918-1.37 11.519 3.761 14.343a66 66 0 0 1 8.445 5.513l-2.122-1.639a59.2 59.2 0 0 1 10.404 10.384l-1.646-2.131c3.203 4.152 5.835 8.7 7.888 13.523l-1.07-2.535c2.419 5.749 3.998 11.819 4.843 17.995l-.382-2.84c.977 7.339.901 14.783-.077 22.118l.383-2.849a89.4 89.4 0 0 1-6.11 22.479l1.085-2.57c-2.385 5.639-5.556 10.985-9.296 15.83l1.733-2.243c-3.097 3.982-6.665 7.656-10.648 10.76l2.281-1.762c-2.849 2.199-5.936 4.07-9.254 5.472l2.691-1.135a35.7 35.7 0 0 1-8.724 2.385l2.993-.402c-3.375.442-6.768.414-10.141-.032l2.992.402c-3.776-.535-7.438-1.574-10.955-3.044l2.687 1.134a49 49 0 0 1-10.575-6.194l2.275 1.758c-3.311-2.58-6.237-5.556-8.815-8.866l1.757 2.274c-3.164-4.126-5.727-8.649-7.762-13.43l1.132 2.682c-2.774-6.625-4.595-13.573-5.577-20.683l.395 2.942c-1.042-7.797-1.172-15.721-.179-23.53l-.388 2.886c.171-1.255.347-2.509.502-3.766l-.387 2.883c.794-5.869 2.248-11.618 4.522-17.092l-1.061 2.513c1.833-4.322 4.163-8.389 7.009-12.125l-1.605 2.077c2.884-3.729 6.109-7.179 9.841-10.072l-1.966 1.519c2.929-2.232 6.092-4.105 9.485-5.542l-2.202.929q.354-.148.711-.289c2.304-.924 4.187-1.997 5.489-4.221 1.152-1.969 1.64-4.87.926-7.077-1.504-4.646-6.37-7.895-11.298-6.415Zm638.002 13.762c-4.448 1.336-8.821 3.26-12.756 5.736s-7.839 5.452-10.985 8.895c-6.828 7.472-11.708 16.28-14.752 25.923s-4.048 20.049-3.579 30.125c.44 9.446 1.921 19.185 5.288 28.063 3.624 9.555 8.708 18.534 16.031 25.771 6.894 6.813 15.572 11.977 24.888 14.674 14.144 4.096 29.842 1.803 41.774-6.951 4.596-3.372 8.638-7.024 12.143-11.52 3.675-4.715 6.936-9.589 9.536-14.984.931-1.931 1.767-3.902 2.587-5.883l-1.085 2.571c6.347-14.135 9.802-29.611 9.054-45.16-.375-7.799-1.623-15.708-4.188-23.1-1.391-4.009-3.07-7.964-5.072-11.708-2.074-3.879-4.614-7.39-7.325-10.847-5.68-7.242-13.159-13.257-21.202-17.685-2.422-1.333-5.386-1.798-8.078-1.057-2.432.67-5.067 2.55-6.265 4.818-2.598 4.918-1.37 11.519 3.761 14.343a66 66 0 0 1 8.445 5.513l-2.122-1.639a59.2 59.2 0 0 1 10.404 10.384l-1.646-2.131c3.203 4.152 5.835 8.7 7.888 13.523l-1.07-2.535c2.419 5.749 3.998 11.819 4.843 17.995l-.382-2.84c.977 7.339.901 14.783-.077 22.118l.383-2.849a89.4 89.4 0 0 1-6.11 22.479l1.085-2.57c-2.385 5.639-5.556 10.985-9.296 15.83l1.733-2.243c-3.097 3.982-6.665 7.656-10.648 10.76l2.281-1.762c-2.849 2.199-5.936 4.07-9.254 5.472l2.691-1.135a35.7 35.7 0 0 1-8.724 2.385l2.993-.402c-3.375.442-6.768.414-10.141-.032l2.992.402c-3.776-.535-7.438-1.574-10.955-3.044l2.687 1.134a49 49 0 0 1-10.575-6.194l2.275 1.758c-3.311-2.58-6.237-5.556-8.815-8.866l1.757 2.274c-3.164-4.126-5.727-8.649-7.762-13.43l1.132 2.682c-2.774-6.625-4.595-13.573-5.577-20.683l.395 2.942c-1.042-7.797-1.172-15.721-.179-23.53l-.388 2.886c.171-1.255.347-2.509.502-3.766l-.387 2.883c.794-5.869 2.248-11.618 4.522-17.092l-1.061 2.513c1.833-4.322 4.163-8.389 7.009-12.125l-1.605 2.077c2.884-3.729 6.109-7.179 9.841-10.072l-1.966 1.519c2.929-2.232 6.092-4.105 9.485-5.542l-2.202.929q.354-.148.711-.289c2.304-.924 4.187-1.997 5.489-4.221 1.152-1.969 1.64-4.87.926-7.077-1.504-4.646-6.37-7.895-11.298-6.415Z"/><path d="m443.264 479.679 17.444-25.526c5.648-8.265 11.176-16.727 17.222-24.707l-1.638 2.12c1.377-1.777 2.865-3.441 4.624-4.85l-2.157 1.666c.975-.738 1.982-1.309 3.092-1.816l-2.571 1.085a10.3 10.3 0 0 1 2.496-.672l-2.861.384a10.4 10.4 0 0 1 1.764.007l-2.862-.385c.845.123 1.618.344 2.406.666l-2.572-1.085c.944.447 1.795.99 2.627 1.622l-2.179-1.684c2.816 2.271 5.272 5.053 7.679 7.743a159 159 0 0 1 7.104 8.549l-1.686-2.182c12.767 16.559 22.436 35.194 31.901 53.759 2.146 4.21 7.838 6.241 12.254 4.987a547 547 0 0 1 72.856-15.415l-2.962.398a13.6 13.6 0 0 1 3.092-.033l-2.965-.398c1.122.158 2.179.447 3.224.884l-2.667-1.126c.879.405 1.672.885 2.448 1.462l-2.263-1.748a13 13 0 0 1 2.002 1.994l-1.751-2.267c.659.87 1.194 1.785 1.626 2.787l-1.132-2.682c.352.902.597 1.802.748 2.758l-.402-2.992c.12.991.127 1.95.025 2.943l.403-2.999c-.331 2.34-1.356 4.616-2.156 6.827l-4.475 12.362c-4.019 11.104-7.92 22.252-11.868 33.382-1.685 4.751-3.538 9.433-5.375 14.127l1.207-2.859c-1.269 1.769-1.916 4.709-2.709 6.854-.987 2.674-.304 6.935 1.216 9.293 1.652 2.562 4.137 4.871 7.208 5.543 15.535 3.399 30.828 8.217 45.487 14.382l-2.979-1.257a250 250 0 0 1 10.748 4.846c3.184 1.53 6.74 2.936 9.582 5.055l-2.538-1.961a12.8 12.8 0 0 1 1.902 1.873l-1.962-2.54a12.8 12.8 0 0 1 1.521 2.534l-1.266-3c.424 1.022.718 2.068.866 3.164l-.449-3.342c.128 1.099.118 2.18-.028 3.276l.449-3.344a13 13 0 0 1-.793 2.824l1.269-3.007a12.8 12.8 0 0 1-1.52 2.576l1.97-2.55a13 13 0 0 1-1.933 1.926l2.551-1.971c-3.544 2.677-7.452 4.976-11.238 7.291a271 271 0 0 1-11.642 6.726 274 274 0 0 1-24.482 11.795l3.053-1.288c-10.554 4.435-21.355 8.245-32.374 11.351-3.871 1.091-6.768 3.772-8.308 7.423-1.673 3.966-1.175 7.595.646 11.41a439 439 0 0 1 8.026 17.829l-1.294-3.066a426 426 0 0 1 10.077 26.231c.963 2.778 2.218 5.638 2.649 8.558l-.459-3.418a13 13 0 0 1-.014 2.978l.459-3.419a13 13 0 0 1-.756 2.78l1.297-3.072a13.2 13.2 0 0 1-1.647 2.799l2.011-2.603a13.7 13.7 0 0 1-2.017 2.001l2.604-2.012a13.2 13.2 0 0 1-2.833 1.632l3.074-1.297c-.926.353-1.85.594-2.831.737l3.421-.46a13.4 13.4 0 0 1-3.058-.018l3.422.46c-3.775-.591-7.529-1.611-11.246-2.488a532 532 0 0 1-11.806-2.926c-7.775-2.022-15.412-4.291-22.992-6.951l3.176 1.34c-4.519-1.911-9.194-3.297-13.845-4.853-4.064-1.36-10.28-.04-13.027 3.443-6.832 8.661-13.67 17.325-20.929 25.635a287 287 0 0 1-11.123 12.012c-3.78 3.859-7.47 7.958-11.751 11.277l2.679-2.07c-1.42 1.058-2.898 1.98-4.532 2.671l3.138-1.324c-.776.294-1.556.546-2.375.681l3.477-.467a9.6 9.6 0 0 1-2.365-.015l3.477.467a10 10 0 0 1-1.38-.383l3.125 1.319a9 9 0 0 1-1.732-.996l2.647 2.045a12.3 12.3 0 0 1-1.752-1.814l2.045 2.647c-2.632-3.545-4.737-7.56-7.03-11.33-2.444-4.016-4.901-8.024-7.331-12.048-4.86-8.047-9.63-16.15-14.443-24.225-2.246-3.768-6.926-7.015-11.514-6.605-10.628.95-21.218 2.38-31.747 4.108q-7.091 1.164-14.142 2.553c-7.051 1.389-9.335 2.169-14.037 2.966l3.537-.475a13 13 0 0 1-3.065.041l3.534.475a13 13 0 0 1-2.859-.741l3.173 1.339a13.2 13.2 0 0 1-2.869-1.669l2.686 2.075a13.6 13.6 0 0 1-2.034-2.059l2.073 2.683a13.3 13.3 0 0 1-1.469-2.507l1.335 3.164a12.8 12.8 0 0 1-.789-2.848l.473 3.519a13 13 0 0 1 .005-3.083l-.472 3.515c1.235-7.753 3.679-15.301 6.699-22.527l-1.323 3.136a99 99 0 0 1 3.541-7.264c1.678-3.109 3.556-6.287 4.374-9.752 1.277-5.41.522-10.874-2.209-15.72-1.644-2.917-4.058-5.464-6.269-7.973a247 247 0 0 0-23.084-22.96c-5.318-4.634-10.852-9.007-16.483-13.254l2.702 2.088a13.2 13.2 0 0 1-2.061-1.996l2.089 2.704a12.8 12.8 0 0 1-1.598-2.69l1.348 3.194a13 13 0 0 1-.797-2.953l.478 3.557a13.3 13.3 0 0 1-.003-3.037l-.478 3.559c.149-1.017.406-1.984.783-2.94l-1.351 3.2c.416-.958.931-1.831 1.562-2.663l-2.096 2.713a13 13 0 0 1 1.992-1.969l-2.713 2.096c2.226-1.645 4.675-3.002 6.936-4.61 3.22-2.289 6.339-4.726 9.434-7.179 4.774-3.785 9.425-7.723 14.238-11.459l-2.707 2.091c5.62-4.339 12.403-7.844 16.464-13.802 3.045-4.468 3.628-10.891 1.873-15.95-1.172-3.377-2.839-6.646-4.44-9.845-5.092-10.175-11.016-19.929-17.428-29.322a304 304 0 0 0-5.576-7.897c-1.653-2.264-3.67-4.443-4.832-7.014l1.34 3.176a12.5 12.5 0 0 1-.808-2.917l.475 3.534a12.7 12.7 0 0 1-.002-2.929l-.475 3.533c.159-1.088.447-2.123.868-3.138l-1.339 3.173a13.6 13.6 0 0 1 1.464-2.498l-2.076 2.688a13.3 13.3 0 0 1 2.039-2.08l-2.687 2.076a13 13 0 0 1 2.54-1.525l-3.17 1.338a13 13 0 0 1 2.968-.832l-3.527.474c2.327-.284 4.734-.019 7.068.085 2.618.116 5.234.254 7.85.401 5.336.3 10.67.639 16.008.904 10.724.532 21.463.723 32.173-.174 3.548-.297 6.726-1.269 9.315-3.859 2.285-2.285 4.006-6.034 3.859-9.315-.153-3.407-1.272-6.941-3.859-9.315-2.451-2.25-5.868-4.147-9.315-3.859-11.019.923-22.087.627-33.115.03-5.442-.295-10.88-.659-16.321-.974-5.899-.342-11.93-1.058-17.775.115-6.305 1.265-11.371 5.473-15.016 10.565-1.494 2.087-2.558 4.6-3.249 7.057-.718 2.55-1.093 5.405-.812 8.061.417 3.935 1.179 7.175 3.137 10.694 1.13 2.03 2.747 3.843 4.111 5.718 3.08 4.236 6.06 8.545 8.921 12.931 6.275 9.62 12.231 19.656 16.864 30.184l-1.346-3.19c.358.872.649 1.73.831 2.655l-.477-3.551c.067.563.082 1.056.043 1.622l.477-3.551c-.094.518-.209.94-.405 1.427l1.347-3.191a8.6 8.6 0 0 1-.733 1.189l2.089-2.704a12.5 12.5 0 0 1-1.718 1.672l2.704-2.089c-2.273 1.745-4.708 3.283-7.011 4.993a325 325 0 0 0-8.931 6.901c-4.274 3.41-8.464 6.924-12.788 10.272l2.71-2.094c-3.459 2.663-7.025 5.109-10.705 7.452-5.376 3.424-9.446 8.417-11.166 14.618-1.711 6.166-.818 12.461 1.925 18.151 2.622 5.441 7.494 8.533 12.107 12.091l-2.7-2.086a251 251 0 0 1 19.202 16.48c6.012 5.718 12.056 11.686 17.226 18.189l-2.063-2.67c.63.833 1.183 1.681 1.635 2.624l-1.329-3.149a9.6 9.6 0 0 1 .576 1.949l-.471-3.503c.075.74.064 1.43-.028 2.168l.47-3.501a14 14 0 0 1-.783 2.63l1.327-3.144c-1.408 3.228-3.287 6.243-4.768 9.443-1.89 4.083-3.656 8.244-5.155 12.487a101 101 0 0 0-2.953 9.963c-1.107 4.59-2.063 9.172-1.429 13.89 1.308 9.736 8.298 17.837 17.784 20.576 4.921 1.421 9.63.836 14.528-.24a450 450 0 0 1 11.325-2.335 456 456 0 0 1 25.598-4.181l-3.559.478c4.697-.626 9.407-1.147 14.103-1.78l-3.56.478q3.105-.373 6.215-.708l-11.514-6.605c5.299 8.533 10.661 17.031 15.882 25.612l7.831 12.87c2.733 4.491 5.307 9.85 9.328 13.327 5.954 5.147 14.173 6.761 21.561 3.801 2.785-1.116 5.287-2.282 7.68-4.065 2.651-1.975 5.157-4.073 7.614-6.277 6.761-6.065 12.886-12.742 18.773-19.65 6.718-7.883 13.086-16.055 19.449-24.225l-13.027 3.443c9.688 3.176 19.558 5.662 29.404 8.302a528 528 0 0 0 14.513 3.673c5.544 1.32 11.243 2.968 16.94 3.415 6.544.514 12.833-2.233 17.687-6.44 4.839-4.193 7.216-10.204 7.86-16.424.54-5.213-1.433-10.136-3.109-14.951a425 425 0 0 0-5.059-13.764 471 471 0 0 0-14.394-33.339l-7.662 18.834c25.334-7.177 49.792-17.966 72.126-31.918 6.291-3.93 13.129-7.712 17.351-13.986 3.787-5.628 4.771-13.864 2.499-20.246-1.34-3.763-3.307-7.437-6.352-10.113-2.864-2.518-5.925-4.12-9.302-5.782-6.698-3.298-13.558-6.278-20.494-9.038a227.3 227.3 0 0 0-42.427-12.263l8.424 14.836c.806-2.412 1.614-4.613 1.753-7.226l-.428 3.182c5.162-16.499 11.132-32.724 16.72-49.082 1.727-5.056 3.486-10.103 5.182-15.169 2.676-7.993.332-17.175-5.602-23.096-4.153-4.144-9.46-6.234-15.235-6.677-2.698-.207-5.426.46-8.08.867q-3.68.564-7.354 1.179a544 544 0 0 0-62.893 14.425l12.254 4.987c-10.409-20.031-20.96-39.898-35.083-57.616-3.352-4.205-6.91-8.256-10.714-12.058-5.69-5.687-13.246-9.677-21.462-7.221-6.756 2.02-11.531 7.431-15.266 13.14-3.272 5.001-6.312 10.169-9.457 15.251-7.365 11.902-14.898 23.701-22.371 35.536-2.556 4.049-.983 10.251 3.278 12.503 4.638 2.45 9.617.945 12.503-3.278Z"/><path d="M458.894 555.502a408 408 0 0 1 10.677-10.541 147 147 0 0 1 11.406-9.839l-2.018 1.559c5.29-4.081 10.873-7.623 16.474-11.247l-16.424-9.425c3.413 26.079 5.465 52.389 5.722 78.692.072 7.4.066 14.814-.224 22.209l11.155-11.155a262 262 0 0 0-45.035 1.016 8.76 8.76 0 0 0-4.48 1.001 8.7 8.7 0 0 0-3.742 2.404c-2.017 2.017-3.535 5.326-3.406 8.222.289 6.442 5.108 11.449 11.628 11.628 19.731.54 39.462.96 59.197 1.351l8.457.167c1.325.026 2.654.084 3.98.079 2.641-.01 4.766-.603 7.122-1.794.569-.288 1.132-.588 1.698-.882 7.091-3.685 6.667-14.468 0-18.264-1.654-.942-3.321-1.853-5.166-2.375-2.08-.588-4.475-.448-6.639-.486l-7.462-.134-14.675-.263c-9.866-.177-19.731-.378-29.598-.48l-16.913-.174v23.255c14.927-1.892 30-2.565 45.035-1.961 2.668.107 6.076-1.294 7.888-3.267 2.022-2.203 3.217-4.849 3.267-7.888.434-26.467.029-53.026-3.054-79.35a682 682 0 0 0-3.314-24.453c-.499-3.244-3.493-5.881-6.32-7.073-3.019-1.274-6.876-1.379-9.714.55-7.593 5.162-14.644 11.433-21.125 17.924-2.98 2.984-5.9 6.017-8.677 9.192-3.226 3.688-6.111 7.613-8.833 11.684-1.113 1.665-1.453 4.544-.842 6.434.57 1.76 1.522 3.201 2.992 4.337 3.222 2.489 8.043 2.349 10.963-.653"/></svg>