<?xml version="1.0" encoding="UTF-8"?><svg xmlns="http://www.w3.org/2000/svg" data-name="ARTWORK" viewBox="0 0 1000 1000"><path d="M687.474 885.083a505 505 0 0 0-9.455-29.132c-1.893-5.268-3.735-10.554-5.733-15.785a368 368 0 0 0-4.695-11.689c-.472-1.122-.969-2.25-1.429-3.382 1.05 2.578-.652-1.722-1.073-2.634-4.926-10.678-10.009-21.276-16.297-31.229-2.855-4.519-5.731-8.975-8.974-13.231-1.974-2.591-3.976-5.162-6.117-7.618a94 94 0 0 0-2.429-2.685c-.348-.369-.711-.803-1.096-1.143q-1.399-1.516.46.903l-2.04-2.641c-3.73-3.923-8.767-7.283-13.448-10.001-6.647-3.86-13.754-6.944-20.834-9.905-12.962-5.421-26.358-9.704-39.851-13.587-13.717-3.948-27.502-7.711-40.971-12.461a259 259 0 0 1-9.621-3.599c-.884-.352-1.765-.714-2.647-1.072.466.189 2.492 1.084.111.047a216 216 0 0 1-5.219-2.345 173 173 0 0 1-18.403-10.018 181 181 0 0 1-7.432-4.905 175 175 0 0 1-3.59-2.568c-.656-.482-1.305-.974-1.958-1.459-2.245-1.666 2.047 1.678-.301-.24-4.598-3.755-9.078-7.609-13.288-11.8a149 149 0 0 1-5.879-6.196c-1.817-2.029-4.548-4.414-5.766-6.859 1.341 2.692.799 1.047.142.171a135 135 0 0 1-3.554-4.96 139 139 0 0 1-5.018-7.922 132 132 0 0 1-5.894-11.239c-.331-.714-.645-1.436-.975-2.15-1.167-2.526 1.008 2.605-.098-.211-2.168-5.515-4.083-11.092-5.557-16.836a134 134 0 0 1-1.908-8.606 137 137 0 0 1-.752-4.403c-.098-.639-.242-1.328-.29-1.979.27 3.673.087.491-.01-.369-.787-7.011-1.375-14.065-1.402-21.123-.013-3.327.101-6.656.399-9.97.054-.599.04-1.573.223-2.187-.867 2.895-.104.721.044-.18a69 69 0 0 1 1.209-5.846 61 61 0 0 1 1.206-4.145c.282-.852.632-1.684.908-2.536.651-2.013-1.465 2.824.109-.24 1.423-2.772 3.015-5.309 4.668-7.935.951-1.511-2.277 2.6-.464.657.342-.367.66-.76 1-1.13a40 40 0 0 1 2.389-2.384c.994-.914 3.783-2.505.422-.512 1.059-.628 2.019-1.467 3.064-2.128 1.885-1.193 4.096-1.948 5.934-3.161-2.626 1.734-1.98.772-.767.353.594-.205 1.179-.436 1.774-.637a51 51 0 0 1 3.625-1.073 53 53 0 0 1 3.333-.74c.592-.112 1.312-.12 1.874-.322-.171.061-3.479.369-1.26.176 2.547-.222 5.076-.386 7.635-.318q1.53.04 3.054.164c.632.051 1.268.155 1.9.188 1.826.095-3.501-.616-.842-.1 2.375.461 4.719.934 7.036 1.643 1.087.333 2.145.734 3.22 1.1 2.01.684-.814-.339-1.009-.46.516.32 1.162.517 1.713.781a46 46 0 0 1 6.16 3.542c2.943 2.013-1.771-1.612.95.698a41 41 0 0 1 2.206 2.012c.896.878 1.702 1.818 2.548 2.741.813.887.236 1.19-.59-.821.24.584.962 1.328 1.315 1.859 1.458 2.194 2.639 4.537 3.741 6.925.989 2.141.049-.032-.143-.347.401.657.607 1.551.875 2.276a147 147 0 0 1 1.769 5.092c2.002 6.066 3.829 12.16 6.316 18.052 5.857 13.879 15.786 24.567 30.51 29.024 13.915 4.212 28.963 2.431 43.055.274 14.089-2.156 28.621-6.31 40.243-14.858 22.792-16.765 30.84-44.082 32.288-71.255.732-13.733-.12-27.554-2.004-41.164-2.011-14.533-6.296-29.45-14.727-41.635-16.356-23.637-47.728-37.214-74.42-22.065-11.018 6.253-19.235 16.473-25.822 27.079-6.432 10.356-11.1 21.727-17.692 31.972a97 97 0 0 1-2.336 3.465c-.506.716-1.036 1.413-1.547 2.124-1.184 1.648 1.795-2.079-.386.469-2.16 2.523-4.317 5.009-6.731 7.297a80 80 0 0 1-3.454 3.058c-1.733 1.462-.32.248.051-.019-.673.485-1.345.969-2.035 1.431a48 48 0 0 1-3.759 2.284c-.562.305-1.15.57-1.708.88-2.386 1.326 1.762-.492-.599.276-1.482.482-2.925.981-4.451 1.317-.226.05-1.807.33-1.808.343.058-.495 2.422-.113.47-.127-1.277-.009-3.41.416-4.621-.088.254.106 2.749.577.41-.001-.948-.234-1.883-.441-2.816-.735.025.008-1.571-.413-1.698-.593.706 1.009 1.993 1.025.364.106-1.003-.565-2.016-1.081-2.976-1.721-.073-.049-1.029-.855-1.225-.867 1.422.087 1.754 1.586.446.233-.298-.308-2.461-2.926-2.801-2.939.175.007 1.71 2.461.542.686-.273-.415-.565-.816-.834-1.234a35 35 0 0 1-1.855-3.273c-.1-.201-.57-1.359-.653-1.379.534.131.91 2.42.337.76-.471-1.366-.953-2.71-1.338-4.105a51 51 0 0 1-1.13-5.113l-.132-.808q-.237-1.616-.008-.018l.112.794a67 67 0 0 1-.291-3.322 72 72 0 0 1-.134-4.218 79 79 0 0 1 .365-7.672c.068-.708.182-1.418.233-2.128.132-1.845-.535 3.082-.021.272.255-1.393.477-2.79.768-4.177 1.182-5.638 3.022-11.096 5.086-16.466.486-1.265.995-2.522 1.505-3.778-.966 2.381-.097.234.162-.359q.51-1.164 1.036-2.322a167 167 0 0 1 4.263-8.673 164 164 0 0 1 12.643-20.26c.509-.696 2.692-3.558 1.142-1.57a159 159 0 0 1 6.49-7.794 152 152 0 0 1 13.643-13.539 148 148 0 0 1 4.65-3.893s2.62-2.025 1.139-.907 1.175-.862 1.173-.861q.814-.598 1.636-1.186a143 143 0 0 1 4.164-2.861 134.5 134.5 0 0 1 16.945-9.537 126 126 0 0 1 1.978-.908c-.077.034 3.2-1.358 1.52-.671s1.63-.635 1.549-.603q1.014-.395 2.036-.772a130 130 0 0 1 10.365-3.344 134 134 0 0 1 9.539-2.282q2.138-.428 4.288-.786c.896-.149 1.796-.274 2.692-.418q1.377-.198-.598.079a130 130 0 0 1 21.712-.877c3.254.142 6.491.436 9.726.803-2.644-.299-.21-.028.456.074q1.338.205 2.67.438a120 120 0 0 1 14.702 3.557 115 115 0 0 1 7.144 2.485c.536.207 3.497 1.438 1.038.382a105.4 105.4 0 0 1 16.991 9.204 104 104 0 0 1 5.236 3.741c-2.126-1.616-.315-.221.206.204a108 108 0 0 1 7.027 6.261 109 109 0 0 1 6.137 6.476c1.089 1.246 2.129 2.527 3.178 3.806.35.427 1.364 1.89-.121-.167.58.804 1.184 1.59 1.76 2.398a110 110 0 0 1 9.572 16.165c.572 1.187 1.106 2.39 1.649 3.59-1.281-2.83.738 1.893.97 2.511a104 104 0 0 1 2.876 8.895 100 100 0 0 1 1.961 8.617c.146.805.267 1.614.409 2.419.187 1.059.775 1.438-.035-.39.503 1.135.35 3.19.444 4.393.473 6.064.328 12.14-.374 18.18-.711 6.112 5.276 11.463 10.772 12.201 6.522.876 11.325-3.055 13.631-8.899 5.75-14.571 7.776-30.57 8.575-46.122.886-17.243-.078-34.557-1.764-51.723-1.735-17.662-4.268-35.246-7.067-52.768-1.214-7.598-2.485-15.186-3.741-22.777-.642-3.881-1.287-7.761-1.896-11.647a360 360 0 0 1-.523-3.434c-.105-.715-.447-3.436-.194-1.319-.321-2.686-.63-5.371-.828-8.07-.348-4.741-.423-9.513.003-14.252.05-.561.113-1.12.17-1.68-.238 2.349-.056.43.039-.053.217-1.099.413-2.199.672-3.289s.551-2.171.881-3.24q.25-.804.527-1.599c.072-.209.875-2.344.394-1.159-.39.961.736-1.497.976-1.941q.717-1.325 1.559-2.574a37 37 0 0 1 .87-1.236c-.13.177-1.313 1.436-.34.525.985-.923 1.834-1.994 2.836-2.911.374-.343.784-.657 1.147-1.011-.119.116-1.634 1.136-.482.359.847-.571 1.672-1.162 2.547-1.692a36 36 0 0 1 2.672-1.466 36 36 0 0 1 1.375-.647c-.989.438-1.367.512-.126.144.961-.285 1.907-.596 2.882-.831.492-.119 3.905-.795 2.044-.465-1.752.311.969-.057 1.459-.081a32 32 0 0 1 2.971-.012c.402.018.834.099 1.235.082 1.313-.055-1.171-.066-1.259-.203.156.243 1.99.374 2.336.457q1.139.272 2.252.633c.36.117.727.292 1.094.383 1.458.359-2.116-1.087-.812-.358 1.457.813 2.941 1.501 4.337 2.43.316.21.62.466.947.657 1.097.64-.969-.65-.951-.761-.032.197 1.837 1.567 2.064 1.776a45 45 0 0 1 3.306 3.396c.44.501 1.655 1.539 1.798 2.163.019.081-1.439-2.058-.698-.869.286.459.639.889.946 1.335 1.97 2.857 3.701 5.875 5.254 8.977.817 1.633 1.525 3.311 2.304 4.961.597 1.265-.444-1.02-.425-1 .215.234.353.866.468 1.165.349.907.704 1.811 1.04 2.723 3.049 8.281 5.265 16.878 7.234 25.47 2.334 10.186 4.166 20.484 5.674 30.823q.266 1.833.521 3.667c.35 2.511.129.955.057.411l.238 1.836q.509 3.975.967 7.955a803 803 0 0 1 1.659 15.858c4.14 43.47 5.727 87.192 1.251 130.707a479 479 0 0 1-.935 8.364q-.234 1.927-.481 3.853c-.184 1.442-.028.251.01-.033-.114.855-.236 1.709-.356 2.563-.883 6.283 1.528 13.398 8.51 14.988 5.818 1.325 13.95-1.774 14.988-8.51.634-4.111 1.765-8.095 3.185-12.002.375-1.032.787-2.048 1.176-3.074 1.293-3.411-.999 2.155.499-1.21a347 347 0 0 1 3.3-7.208c4.091-8.651 8.168-17.246 11.509-26.225 7.151-19.216 13.046-38.659 16.226-58.95 3.3-21.06 4.713-42.326 7.1-63.494.117-1.035.121-2.174.367-3.183-.932 3.826-.236 1.639-.065.69.243-1.353.512-2.698.833-4.035a78 78 0 0 1 2.879-9.287c.058-.154.893-2.168.86-2.188.143.091-1.087 2.434-.299.726.669-1.451 1.331-2.902 2.06-4.325 1.569-3.064 3.329-6.036 5.313-8.851l.453-.635q1.164-1.567-.51.612c.381-.12 1.172-1.449 1.448-1.772a48 48 0 0 1 2.525-2.742c.954-.956 2.408-1.825 3.202-2.89-1.518 2.036-1.445 1.071-.236.257a29 29 0 0 1 2.303-1.402c.201-.109 1.579-.977 1.772-.876-.033-.018-3.122.944-.495.314.591-.142 1.283-.28 1.853-.485 2.192-.789-3.061.048-.723.074.602.007 2.723.267 3.219.038-1.339.617-2.838-.526-.615.014.773.188 1.902.847 2.667.846-2.027.002-1.855-.859-.21.035.701.381 1.383.796 2.048 1.237.863.571 2.717 1.065.286.143.682.259 1.558 1.353 2.081 1.851 1.447 1.376 2.724 2.884 4.055 4.367 2.101 2.341-.885-1.349.212.232.647.933 1.324 1.841 1.947 2.791a63 63 0 0 1 2.947 4.983 65 65 0 0 1 1.298 2.577c.217.455 1.482 3.434.329.603a82.6 82.6 0 0 1 3.82 11.972 99 99 0 0 1 1.013 4.781q.27 1.449.499 2.904c.083.528.466 3.826.111.663.48 4.282.824 8.563.961 12.871.251 7.887-.046 15.782-.571 23.652a517 517 0 0 1-2.393 26.098 419 419 0 0 1-.907 7.234c.342-2.53-.209 1.432-.228 1.567a485 485 0 0 1-2.918 17.989 491.8 491.8 0 0 1-30.328 102.316c.913-2.169-.648 1.503-.669 1.551a476 476 0 0 1-1.946 4.453 503 503 0 0 1-7.161 15.429c-2.684 5.545-1.906 11.877 3.151 15.785 4.396 3.397 12.231 3.795 16.066-.957 16.401-20.321 29.355-42.689 39.943-66.521 5.037-11.337 9.664-22.85 14.187-34.399 1.993-5.087 3.969-10.181 5.978-15.262a941 941 0 0 1 2.979-7.455 616 616 0 0 1 2.258-5.502c.01-.025 1.217-2.874.524-1.254-.641 1.496.186-.427.34-.786a402 402 0 0 1 2.337-5.332 303 303 0 0 1 3.418-7.384c1.106-2.304 2.287-4.475 3.666-6.624-1.405 2.189.217-.211.953-.963.406-.415.86-.79 1.26-1.207 1.534-1.597-1.357.736-.156.06.967-.545 1.898-1.203 2.861-1.764 2.546-1.482-1.955.449.852-.386 1.033-.307 2.194-.488 3.201-.847 1.557-.555-2.503.099-.839.081.694-.008 1.392-.113 2.089-.127.313-.006 3.299-.129 3.39.143.041.122-3.254-.686-.762-.062.567.142 1.141.242 1.709.389.372.096 3.203 1.258 3.407 1.101-.174.134-2.706-1.369-.472-.157.691.375 1.396.719 2.078 1.114.957.554 1.865 1.166 2.788 1.772 2.559 1.679-1.348-1.265.249.153a63 63 0 0 1 4.792 4.763c1.4 1.54-1.641-2.378.233.343a40 40 0 0 1 2.937 5.018c.173.351.387 1.062.622 1.318-.275-.299-1.048-2.698-.436-1.033 1.493 4.065 2.021 8.176 3.151 12.303-.057-.207-.355-3.319-.174-1.131.043.516.106 1.031.15 1.547q.118 1.367.187 2.737c.116 2.261.126 4.518.071 6.78-.11 4.526-.528 8.99-1.004 13.488-.186 1.755.412-2.733.134-.989-.087.547-.159 1.097-.242 1.644a192 192 0 0 1-.53 3.282 214 214 0 0 1-1.304 6.915c-1.723 8.395-3.907 16.684-6.156 24.95-6.401 23.527-13.635 46.668-23.128 69.159.092-.217.743-1.721.139-.343-.322.734-.632 1.473-.95 2.208a495 495 0 0 1-6.183 13.696 502 502 0 0 1-8.789 17.783 518 518 0 0 1-19.575 34.405c-13.552 21.857-28.628 43.653-34.907 68.977-6.067 24.47-3.831 50.017 4.524 73.659 7.755 21.944 19.437 42.055 30.487 62.432 2.516 4.64 5.016 9.299 7.319 14.048 2.9 5.982 11.898 8.059 17.345 4.548 6.137-3.956 7.65-10.946 4.548-17.345-9.855-20.327-21.46-39.776-30.646-60.427-.98-2.204-.062-.114.107.289q-.394-.942-.78-1.887a200 200 0 0 1-1.683-4.272 168 168 0 0 1-2.878-8.176c-1.776-5.514-3.243-11.13-4.315-16.824-.254-1.35-.47-2.704-.691-4.059-.108-.662-.566-2.46.04.396-.139-.653-.169-1.408-.238-2.062a109 109 0 0 1-.58-8.888 106 106 0 0 1 .171-9.102q.136-2.185.362-4.362c.076-.735.165-1.468.252-2.201-.224 1.887-.113.859.094-.417a106 106 0 0 1 4.678-18.262 123 123 0 0 1 2.455-6.393c-.939 2.268-.164.406.038-.036 1.43-3.131 2.899-6.236 4.485-9.293 5.953-11.477 13.013-22.328 19.875-33.27 14.226-22.685 26.868-46.31 37.449-70.917 10.378-24.134 18.618-48.784 25.514-74.116 4.899-17.997 9.608-36.273 10.469-54.996.876-19.044-3.718-40.46-18.966-53.275-9.158-7.696-20.728-13.024-32.944-11.837-12.994 1.262-24.369 8.47-30.822 19.916-5.725 10.154-9.899 21.439-14.234 32.228-4.218 10.497-8.229 21.077-12.437 31.578a800 800 0 0 1-3.2 7.872c-.341.824-.688 1.646-1.027 2.471-.72 1.753.73-1.702-.017.046-.637 1.49-1.273 2.981-1.92 4.468a410 410 0 0 1-7.82 16.942c-5.625 11.452-11.898 22.594-19.018 33.187a240 240 0 0 1-8.341 11.643c-1.238 1.615.953-1.199-.321.402q-.951 1.198-1.91 2.388l19.218 14.828c18.28-37.793 32.065-77.721 40.466-118.867 4.212-20.63 7.098-41.542 8.804-62.526 1.406-17.304 1.902-34.555-.897-51.756-2.811-17.272-10.425-35.507-24.061-47.043-6.722-5.686-14.698-9.856-23.712-9.799-7.858.049-15.088 3.199-21.21 7.929-11.928 9.216-19.597 23.376-24.253 37.483-2.522 7.639-3.367 15.513-4.211 23.484-1.144 10.797-2.061 21.617-3.195 32.415a647 647 0 0 1-.84 7.601 531 531 0 0 1-.696 5.691c-.077.608-.256 1.889-.07.552-.76 5.474-1.628 10.934-2.673 16.362-2.058 10.686-4.921 21.161-8.323 31.495a466 466 0 0 1-5.257 15.015c-.846 2.303-1.687 4.609-2.58 6.894-.31.794-1.193 2.81-.343.896-.579 1.303-1.151 2.609-1.748 3.904-4.268 9.258-8.976 18.318-12.528 27.892-1.509 4.067-2.72 8.219-3.385 12.51l23.499 6.478c6.568-46.456 6.523-93.159 2.584-139.846-1.897-22.483-4.274-44.997-8.509-67.174-3.504-18.349-7.943-37.25-16.932-53.795-8.427-15.511-21.901-27.95-40.073-29.585-22.195-1.998-41.94 13.467-48.561 34.008-6.451 20.015-1.656 41.745 1.663 61.871 1.312 7.959 2.635 15.917 3.889 23.885q.98 6.218 1.895 12.444.469 3.193.915 6.39c.162 1.159.319 2.319.479 3.478-.352-2.559.027.221.156 1.217 2.342 18.047 4.099 36.215 4.353 54.423.122 8.711-.105 17.438-.917 26.114-.186 1.988-.422 3.968-.655 5.95-.169 1.441.133-1.025.142-1.054-.131.4-.133.917-.195 1.334a153 153 0 0 1-.494 3.079 124 124 0 0 1-2.473 11.342 97 97 0 0 1-3.438 10.384l24.403 3.303c3.092-26.397-4.914-54.012-19.984-75.72-16.305-23.487-39.837-40.581-67.436-48.317-27.794-7.791-58.606-6.33-85.629 3.749-25.756 9.606-48.548 26.277-65.802 47.667-8.552 10.602-16.034 21.945-21.956 34.225-5.515 11.436-10.567 23.622-12.589 36.227-3.633 22.645-.574 52.756 22.906 63.995 29.506 14.123 57.138-9.468 71.478-33.89 6.112-10.409 10.902-21.52 17.623-31.587a99 99 0 0 1 2.395-3.433c.41-.561 1.776-2.227.056-.119.385-.471.76-.95 1.148-1.417 1.909-2.296 3.96-4.48 6.188-6.471.439-.392.898-.761 1.336-1.153 2.202-1.974-2.139 1.357.331-.253.979-.638 1.928-1.316 2.935-1.914.979-.581 2.756-1.897 3.901-2.036-.252.031-2.6.954-.422.204.858-.295 1.705-.597 2.576-.853a37 37 0 0 1 4.685-1.038c-2.7.423.478.057 1.554.04 1.374-.022 3.444-.205 4.765.227-.32-.105-2.692-.52-.386-.015.938.205 1.88.38 2.811.618 1.569.401 3.069.941 4.604 1.451.555.184 2.028.971-.199-.114.586.285 1.184.544 1.768.833a52 52 0 0 1 8.371 5.19c-2.017-1.531-.237-.133.249.284q.944.809 1.851 1.658a56 56 0 0 1 3.136 3.186c.502.551 3.14 3.95 1.567 1.739.98 1.377 1.948 2.752 2.834 4.193a68 68 0 0 1 2.741 4.905q.506 1 .983 2.014c-.066-.14 1.382 3.213.739 1.623s.677 1.824.621 1.673q.388 1.052.747 2.114a93 93 0 0 1 1.639 5.373 113 113 0 0 1 2.307 10.49c.161.934.3 1.87.455 2.805.071.426.322 2.391.037.149q.394 3.11.678 6.232a232 232 0 0 1 .958 20.195c.022 6.266-.245 12.538-.938 18.767q-.136 1.227-.295 2.453c.055-.42.407-2.607.02-.313-.272 1.613-.53 3.224-.848 4.829a99 99 0 0 1-2.197 8.943 86 86 0 0 1-1.329 4.1c-.223.63-2.156 5.238-.859 2.381-1.295 2.853-2.694 5.64-4.345 8.307a60 60 0 0 1-2.063 3.112c-.063.089-1.956 2.449-.728 1.006 1.243-1.46-.774.871-.829.934a54 54 0 0 1-6.828 6.583c1.757-1.419-1.322.887-1.957 1.301a59 59 0 0 1-4.695 2.753q-.964.508-1.944.982c.097-.047-3.144 1.443-1.522.73s-1.681.647-1.582.61a80 80 0 0 1-3.106 1.093c-6.676 2.202-13.58 3.542-20.523 4.565.488-.072 2.381-.293-.038.003-.898.11-1.795.22-2.694.321a147 147 0 0 1-4.586.449c-3.438.277-6.892.421-10.341.32a67 67 0 0 1-4.612-.287c-.732-.072-2.975-.535-.271-.016-.66-.126-1.322-.228-1.981-.364a43 43 0 0 1-4.34-1.126c-.786-.249-1.552-.549-2.33-.819 2.681.93-.165-.144-.651-.402a32 32 0 0 1-1.712-.978c-.012-.007-2.716-1.799-1.211-.736 1.467 1.037-.976-.874-1.04-.934q-.695-.644-1.347-1.329c-.652-.685-.834-.928-1.253-1.393 2.006 2.228.065.008-.281-.512a42 42 0 0 1-2.344-4.021c-.286-.556-.538-1.131-.826-1.686-1.41-2.715.616 1.722-.066-.078-.509-1.344-1.032-2.678-1.502-4.036-1.063-3.071-1.979-6.19-2.909-9.302-3.655-12.229-7.982-24.334-17.289-33.476-7.969-7.828-18.523-13.309-29.431-15.63-23.034-4.9-48.455 1.51-63.224 20.626-9.657 12.499-13.234 28.398-13.816 43.923-.534 14.237.974 29.047 3.905 42.973 5.327 25.316 17.927 48.597 35.208 67.734 18.569 20.562 42.309 35.63 67.783 46.112 26.957 11.092 55.731 16.64 83.186 26.249a243 243 0 0 1 9.568 3.566c.878.349 1.751.714 2.628 1.065-2.401-.961-.52-.225-.037-.011 1.909.846 3.816 1.692 5.703 2.588 2.751 1.306 5.507 2.641 8.13 4.193a58 58 0 0 1 3.998 2.593c.391.276 2.517 1.996.791.536-1.75-1.481 1.179 1.002 1.644 1.391.921.772 5.054 3.42 2.55 1.988-1.813-1.037.155.14.526.464a97 97 0 0 1 5.582 5.281 119 119 0 0 1 5.378 5.882q1.118 1.305 2.202 2.638c.549.674 1.084 1.358 1.627 2.035-1.231-1.537-.416-.548.315.427.719.958 1.384 1.945 2.062 2.931.473.688 3.059 4.659 1.931 2.658-.859-1.524.591 1.008.638 1.079a214 214 0 0 1 4.88 7.804c3.036 5.086 5.967 10.276 8.584 15.592s5.257 10.62 7.689 16.034a413 413 0 0 1 3.307 7.573c-.708-1.664.708 1.709.925 2.238.623 1.514 1.179 3.05 1.758 4.581 3.507 9.284 6.68 18.692 9.598 28.178 1.511 4.913 6.648 8.04 11.71 6.649 4.913-1.35 8.096-6.757 6.649-11.71Z"/><path d="M647.432 618.814c-13.157-6.132-26.714-11.716-40.698-15.678s-28.761-6.318-43.346-5.144c-1.85.149-3.694.354-5.534.597-2.811.372-5.7.622-8.413 1.484a93 93 0 0 0-5.259 1.844c-1.528.588-3.144 1.133-4.576 1.919-2.792 1.532-4.402 3.899-5.405 6.866-.641 1.896-.294 4.118.456 5.896.817 1.936 2.004 3.08 3.705 4.33 3.859 2.836 8.465 1.438 12.74.853l-2.806.377c1.81-.238 3.623-.386 5.439-.56 2.684-.257 5.337-.822 8.008-1.189l-2.969.399c5.951-.79 11.868-.892 17.859-.928 5.961-.035 11.915.385 17.823 1.168l-2.747-.369c16.978 2.304 33.163 7.687 48.959 14.175 1.88.772 5.108.182 6.763-.885 1.63-1.051 2.834-2.402 3.591-4.197 1.563-3.704.378-9.11-3.591-10.96Zm21.77-60.299q3.215 1.128 6.357 2.448l-2.08-.878c9.252 3.924 17.858 9.358 25.807 15.476l-1.899-1.467c13.665 10.578 25.628 23.002 36.544 36.364a543 543 0 0 1 9.114 11.456l-1.547-2.002c2.401 3.111 4.928 6.105 7.427 9.136 1.403 1.702 4.582 2.884 6.731 2.788s4.057-.722 5.768-2.044c3.529-2.727 5.127-8.332 2.452-12.28-8.759-12.925-18.848-25.068-29.745-36.252-10.703-10.985-22.557-20.981-35.915-28.596-7.721-4.402-15.978-8.038-24.422-10.806-4.296-1.408-9.623 1.635-10.625 6.032-1.099 4.826 1.462 9.022 6.032 10.625Zm-175.164-28.938c-25.857-15.091-51.951-29.741-78.093-44.332-13.033-7.274-26.272-14.202-39.407-21.29L336.89 442.56a9614 9614 0 0 0-44.314-23.788l6.368 11.101c1.113-8.813.575-17.836-1.37-26.502-1.069-4.766-2.831-9.316-4.884-13.741s-4.848-8.338-7.935-12.109c-5.82-7.112-14-12.07-22.606-15.06-4.267-1.482-8.878-2.203-13.371-2.452-4.427-.245-9.07.3-13.337 1.463-4.158 1.134-8.391 2.942-11.891 5.494-1.993 1.453-4.04 2.974-5.779 4.747-1.768 1.802-3.308 3.863-4.754 5.924-2.301 3.279-3.935 7.111-5.19 10.891-1.289 3.883-1.874 8.076-2.13 12.139-.522 8.29 1.494 16.498 5.047 23.936 3.636 7.612 10.091 13.973 17.276 18.27 7.716 4.615 16.763 6.978 25.713 7.309 9.108.337 17.926-1.803 26.201-5.447 2.283-1.005 4.668-2.77 6.455-4.417l-2.397 1.852.322-.183c2.568-1.46 4.661-4.242 5.442-7.077s.428-6.609-1.194-9.124c-3.51-5.444-10.436-7.524-16.201-4.248l-.322.183 2.829-1.194c-2.586.718-5.039 1.929-7.596 2.75a47 47 0 0 1-7.977 1.787l3.326-.447a48.6 48.6 0 0 1-12.567-.037l3.362.452c-3.636-.513-7.18-1.456-10.571-2.87l3.035 1.281a38 38 0 0 1-8.145-4.729l2.582 1.995c-2.145-1.673-4.099-3.566-5.784-5.703l2.001 2.591a32.2 32.2 0 0 1-4.082-6.993l1.295 3.068a36 36 0 0 1-2.399-8.784l.461 3.427a37.4 37.4 0 0 1-.028-9.75l-.462 3.441a34.7 34.7 0 0 1 2.343-8.666l-1.31 3.104a30.3 30.3 0 0 1 3.825-6.544l-2.038 2.638a28 28 0 0 1 4.701-4.705l-2.639 2.039a27.5 27.5 0 0 1 6.027-3.485l-3.112 1.313a30 30 0 0 1 7.319-1.937l-3.46.465c2.905-.36 5.821-.322 8.722.059l-3.455-.464a39 39 0 0 1 9.612 2.675l-3.1-1.308a40 40 0 0 1 8.355 4.877l-2.623-2.026c2.529 1.965 4.757 4.223 6.733 6.741l-2.024-2.619c2.41 3.133 4.371 6.552 5.926 10.183l-1.302-3.086c1.911 4.565 3.15 9.355 3.834 14.252l-.46-3.427c.785 5.905.763 11.875.039 17.785a12.8 12.8 0 0 0 1.755 6.489 12.9 12.9 0 0 0 4.612 4.612c26.497 13.992 53.087 27.804 79.656 41.658 26.581 13.86 53.136 27.767 80.014 41.045 15.066 7.443 30.151 14.83 45.302 22.099 2.308 1.107 4.684 1.646 7.228.946 2.176-.599 4.534-2.281 5.606-4.311 2.374-4.494 1.162-10.191-3.365-12.834Z"/><path d="M256.284 381.836c-7.543-3.461-17.277.301-21.414 7.495-4.137 7.195-2.927 16.778 2.041 23.426s13.173 10.448 21.445 11.119c5.606.455 11.923-.778 15.225-5.33 1.467-2.022 2.18-4.499 2.547-6.97 1.699-11.441-4.202-23.638-14.228-29.407"/><path d="M260.573 374.498c-5.448-3.486-12.228-4.338-18.419-2.609-6.381 1.782-11.88 5.751-15.639 11.177-3.476 5.018-5.079 11.946-4.593 17.992.26 3.23.759 6.483 1.947 9.511 1.54 3.927 3.342 7.059 5.978 10.343 4.04 5.034 9.599 8.335 15.473 10.776 2.291.952 4.656 1.675 7.101 2.109 3.132.557 6.382 1.017 9.577.833 6.73-.389 14.052-2.505 18.616-7.805 2.734-3.175 4.732-6.829 5.608-10.959.645-3.041 1.038-6.255.915-9.376-.536-13.658-7.934-26.671-19.797-33.625-2.411-1.413-5.608-1.828-8.301-1.086-2.499.688-5.207 2.62-6.438 4.951-2.726 5.16-1.336 11.707 3.865 14.74a30 30 0 0 1 3.027 2.023l-2.18-1.684a30.2 30.2 0 0 1 5.136 5.129l-1.683-2.178a32 32 0 0 1 4.039 6.906l-1.084-2.568a31.3 31.3 0 0 1 2.101 7.711l-.384-2.856c.303 2.418.315 4.84.009 7.259l.383-2.854c-.231 1.645-.594 3.245-1.2 4.795l1.082-2.563a13.3 13.3 0 0 1-1.605 2.826l1.677-2.171a12.7 12.7 0 0 1-1.985 1.978l2.17-1.676a14.7 14.7 0 0 1-3.032 1.743l2.56-1.08c-1.46.59-2.967.97-4.523 1.201l2.848-.383c-2.469.325-4.934.256-7.399-.073l2.845.382a34 34 0 0 1-8.262-2.275l2.555 1.078a30.8 30.8 0 0 1-6.365-3.686l2.163 1.671a27.7 27.7 0 0 1-4.91-4.907l1.666 2.157a24 24 0 0 1-2.867-4.978l1.069 2.533a24.7 24.7 0 0 1-1.608-5.916l.377 2.803a23 23 0 0 1-.021-5.7l-.375 2.789a20.6 20.6 0 0 1 1.388-5.102l-1.052 2.494c.677-1.531 1.543-2.912 2.558-4.241l-1.619 2.096a19.2 19.2 0 0 1 3.132-3.117l-2.053 1.586a20 20 0 0 1 4.103-2.415l-2.369 1c1.955-.813 4.055-1.293 6.147-1.599l-2.502.336a16 16 0 0 1 3.963-.016l-2.34-.314c.671.099 1.327.235 1.981.414 4.102 1.12 8.396-1.061 10.025-4.92 1.675-3.968.124-8.308-3.477-10.612Zm387.341 457.407a52 52 0 0 0-2.409-.109c-.316-.006-.636-.017-.952-.009-2.13.05 3.935.63-.144.082-2.684-.361-5.123.533-7.581 1.48-3.613 1.391-7.18 2.962-10.485 4.981-6.054 3.697-11.57 8.406-16.064 13.894-10.464 12.778-16.075 31.294-8.683 46.861 4.138 8.715 13.13 13.636 22.296 15.308 9.455 1.724 18.616 1.355 28.026-.54 15.437-3.11 29.56-10.491 44.207-15.98 16.911-6.337 34.765-9.866 52.618-12.281l-3.576.48c23.542-3.146 47.295-4.177 70.93-6.386 22.436-2.097 44.977-4.992 66.774-10.865 11.28-3.039 22.276-7.18 32.891-12.04 9.624-4.406 18.834-9.736 27.301-16.096 10.658-8.006 20.528-17.066 24.707-30.171 3.798-11.911.854-25.737-6.56-35.646-4.192-5.601-8.785-10.13-14.633-14.05-5.007-3.355-10.827-5.734-16.659-7.2-13.687-3.442-27.604-2.408-41.407-.482-2.919.407-5.83.865-8.741 1.327-3.207.509-6.702 3.68-8.27 6.359-1.736 2.966-2.471 7.338-1.395 10.663 1.084 3.348 3.159 6.579 6.359 8.27l3.306 1.395q3.678.988 7.357 0a848 848 0 0 1 5.005-.694l-3.69.496c10.394-1.386 20.906-2.532 31.366-1.164l-3.707-.498c4.533.638 9.011 1.714 13.237 3.497l-3.333-1.407a42.2 42.2 0 0 1 8.77 5.194l-2.825-2.183a41.4 41.4 0 0 1 7.176 7.199l-2.184-2.826c1.701 2.258 3.139 4.67 4.262 7.267l-1.408-3.337a29.4 29.4 0 0 1 1.95 6.989l-.499-3.715a25.7 25.7 0 0 1 .043 6.299l.5-3.718a27 27 0 0 1-1.781 6.522l1.413-3.348c-1.141 2.64-2.636 5.061-4.388 7.339l2.198-2.845c-3.179 4.018-7.003 7.421-11.043 10.548l2.86-2.21c-10.139 7.77-21.316 14.019-33.07 18.989l3.42-1.443c-21.892 9.174-45.381 14.083-68.826 17.241l3.807-.512c-20.695 2.762-41.547 4.133-62.293 6.453-22.386 2.503-44.862 5.598-66.536 11.915-12.419 3.62-24.292 8.492-36.194 13.516l3.034-1.281c-10.938 4.612-22.071 9.214-33.9 10.905l3.351-.45c-4.932.659-9.886.764-14.826.117l3.34.449c-2.987-.43-5.947-1.059-8.749-2.201l2.995 1.264c-1.248-.553-2.405-1.193-3.504-2.007l2.536 1.959a16 16 0 0 1-2.552-2.525l1.957 2.534a17.5 17.5 0 0 1-2.024-3.423l1.261 2.988c-.71-1.69-1.167-3.434-1.44-5.245l.446 3.321a32.6 32.6 0 0 1-.013-8.52l-.44 3.273c.489-3.384 1.476-6.615 2.781-9.771l-1.218 2.886c2.079-4.886 4.879-9.576 8.115-13.784l-1.779 2.302a56 56 0 0 1 5.032-5.626q1.256-1.22 2.588-2.355c.505-.43 1.039-.829 1.541-1.263-4.182 3.611 3.459-2.574.552-.386-1.602 1.206.259-.158.579-.378a51 51 0 0 1 4.708-2.869c.617-.332 2.77-1.66-.049-.138l2.285-.964a9.6 9.6 0 0 0 3.432-3.432q-1.596 1.943-.51.989-1.743 1.335-.633.498c.532-.38 1.058-.765 1.597-1.136 2.765-1.905 4.697-5.374 3.585-8.81s-3.953-5.494-7.523-5.727Z"/><path d="m655.017 842.791-17.339 10.913c-4.5 2.832-9.039 5.695-12.821 9.432-6.739 6.658-10.735 16.014-10.886 25.486-.026 1.618.103 3.368 1.139 4.611.812.974 2.049 1.472 3.249 1.881 11.873 4.044 25.463 2.722 36.334-3.534 1.786-1.028 3.579-2.268 4.477-4.122.901-1.858.761-4.03.602-6.089l-2.403-31.019"/><path d="M652.61 834.059c-3.514.69-6.735 2.852-9.879 4.536-2.718 1.455-5.328 3.087-7.962 4.687-5.299 3.217-10.521 6.427-15.309 10.394-4.419 3.661-8.197 8.381-10.87 13.456-3.116 5.916-4.736 12.034-5.387 18.654-.304 3.083-.337 6.506.779 9.421 1.34 3.499 3.194 5.931 6.291 8.118 1.656 1.17 3.657 1.841 5.574 2.477 5.498 1.823 11.517 2.661 17.302 2.585 5.796-.076 11.778-.994 17.261-2.911 6.678-2.335 14.171-5.653 17.984-11.963 2.416-3.997 2.652-8.613 2.297-13.13l-.774-9.847-1.586-20.187c-.231-2.943-1.066-5.606-3.21-7.749-1.901-1.901-5.019-3.332-7.749-3.21-2.834.127-5.774 1.058-7.749 3.21-1.881 2.049-3.43 4.871-3.21 7.749l1.353 17.725.658 8.616c.211 2.769.66 5.637.398 8.413l.393-2.924a9.3 9.3 0 0 1-.482 1.977l1.109-2.628c-.215.484-.46.92-.762 1.356l1.72-2.227a10.3 10.3 0 0 1-1.613 1.635l2.227-1.721c-2.146 1.651-4.653 2.86-7.135 3.914l2.626-1.108a46.3 46.3 0 0 1-11.258 3.053l2.918-.392a46.7 46.7 0 0 1-12.082.021l2.913.391c-3.12-.433-6.27-1.121-9.202-2.295l2.614 1.103a8 8 0 0 1-1.638-.946l2.214 1.711a4 4 0 0 1-.535-.53l1.711 2.214a6 6 0 0 1-.583-.933l1.103 2.613a7.5 7.5 0 0 1-.479-1.787l.391 2.907c-.21-1.964-.035-3.98.206-5.934l-.39 2.905c.474-3.512 1.456-6.864 2.811-10.133l-1.099 2.604a38.5 38.5 0 0 1 4.899-8.384l-1.68 2.174c2.125-2.699 4.605-5.03 7.309-7.141l-2.141 1.654c3.968-3.051 8.241-5.692 12.43-8.424a148 148 0 0 0 6.604-4.537l3.242-2.371c.804-.588 1.604-1.177 2.393-1.786 1.349-1.042 2.252-2.426 3.263-3.777.852-1.138 1.236-3.184 1.236-4.57 0-2.016-.727-3.911-1.944-5.487-2.324-3.008-5.858-3.964-9.518-3.245Zm241.496-54.61c-.351 1.467.435 2.94 1.192 4.245l16.382 28.201c1.887 3.249 4.163 6.798 7.822 7.654 2.366.553 4.845-.17 7.064-1.16 10.834-4.832 18.135-16.656 17.602-28.507-.097-2.162-.476-4.422-1.814-6.124-.999-1.271-2.44-2.11-3.875-2.855-13.903-7.218-30.863-8.284-45.56-2.862"/><path d="M886.359 777.314c-.831 2.236-.635 4.906-.126 7.182.43 1.925 1.804 4.006 2.714 5.772 1.397 2.711 2.752 5.449 4.221 8.122 2.975 5.415 5.913 10.852 8.928 16.245 1.187 2.123 2.349 4.261 3.817 6.206 2.759 3.657 5.861 6.473 10.287 7.979 3.77 1.283 8.314.916 12.004-.465 2.849-1.066 5.649-2.329 8.159-4.062 5.023-3.467 9.243-7.787 12.404-13.035 1.558-2.587 2.793-5.375 3.863-8.193 1.131-2.979 1.616-6.01 2.018-9.163.405-3.175.228-6.174-.285-9.343-.83-5.125-3.977-9.182-8.11-12.13-2.084-1.486-4.427-2.645-6.76-3.685-3.153-1.406-6.373-2.807-9.726-3.674-6.561-1.696-13.548-2.511-20.326-2.191-3.862.182-7.745.693-11.535 1.444s-7.183 2.387-10.283 4.654c-1.901 1.39-3.355 2.793-4.294 5.018-.88 2.085-1.246 4.619-.529 6.833a12.5 12.5 0 0 0 2.699 4.631c1.66 1.808 4.953 3.239 7.421 3.074 2.983-.199 5.821-.293 8.787-.889 2.074-.416 4.149-.838 6.244-1.13l-3.144.422a59.3 59.3 0 0 1 15.611.015l-3.13-.421c5.549.78 11.095 2.258 16.262 4.431l-2.725-1.15c1.759.756 3.539 1.537 5.073 2.7l-2.258-1.745c.417.35.786.715 1.136 1.132l-1.729-2.238a9.2 9.2 0 0 1 1.004 1.727l-1.102-2.612c.357.897.572 1.797.72 2.75l-.386-2.87c.325 2.466.287 4.95-.041 7.413l.375-2.793a31.6 31.6 0 0 1-2.157 7.721l1.028-2.436c-.973 2.239-2.295 4.324-3.785 6.253l1.577-2.042a31.7 31.7 0 0 1-5.434 5.398l2.023-1.563a29 29 0 0 1-6.097 3.558l2.367-.999c-1.076.434-2.16.774-3.305.968l2.623-.352a9.8 9.8 0 0 1-2.535.011l2.615.351a9 9 0 0 1-1.774-.522l2.344.989a10 10 0 0 1-1.806-1.087l1.981 1.53c-.953-.766-1.763-1.651-2.511-2.616l1.523 1.972c-1.799-2.407-3.231-5.085-4.8-7.643l-5.426-8.848c-1.767-2.881-3.529-5.76-5.372-8.593-1.799-2.765-3.956-5.519-5.381-8.494l.84 1.991a5.2 5.2 0 0 1-.297-1.135l.29 2.156-.007-.4c-.073-4.013-3.001-7.357-6.966-7.89-4.159-.559-7.401 1.953-8.814 5.754Zm-534.99-316.372a543 543 0 0 1-12.434 3.207c-.295.072-.626.117-.91.223-1.124.416 1.457-.159 1.327-.114-1.449.502-3.163.497-4.681.947-5.769 1.712-11.585 3.28-17.406 4.806a1098 1098 0 0 1-36.927 8.997c-25.847 5.831-51.926 10.761-78.063 15.1a1438 1438 0 0 1-43.43 6.526l3.437-.462-12.135 1.632 3.444-.463a1368 1368 0 0 1-43.709 5.156l11.151 19.432a534 534 0 0 1 19.216-28.832 521 521 0 0 1 8.874-12.046c.525-.694 2.253-2.586-.083.083 3.789-4.33 7.169-9.078 10.844-13.512 2.992-3.61 4.596-7.733 3.294-12.462-1.187-4.309-4.64-7.756-8.946-8.946a904 904 0 0 1-86.341-28.593 912 912 0 0 1-23.887-9.67l3.12 1.317c-5.192-2.191-10.348-4.461-15.517-6.706v22.605a829 829 0 0 1 36.633-16.541l-3.074 1.297c21.039-8.869 42.311-16.995 64.058-23.965 4.775-1.53 8.245-5.325 8.921-10.354.306-2.278.044-4.334-.85-6.454-.944-2.238-2.764-4.961-5.096-5.955a256 256 0 0 1-40.25-21.57 257 257 0 0 1-13.795-9.732l-1.12-.852c-1.619-1.225.721.568.854.662-.856-.607-1.667-1.305-2.487-1.959a256 256 0 0 1-17.216-15.034 258 258 0 0 1-17.868-18.912l-5.512 20.878a510 510 0 0 1 24.437-3.917l-3.321.446a502 502 0 0 1 59.205-4.389c3.983-.059 7.401-1.806 9.809-4.923 2.557-3.31 2.994-6.843 2.236-10.889-4.722-25.198-9.388-50.417-12.806-75.831l.447 3.323c-3.909-29.303-6.167-58.927-4.587-88.491a326 326 0 0 1 2.335-25.254l-.448 3.331q.933-6.92 2.177-13.79l-18.414 7.491a580 580 0 0 1 7.04 5.256c1.166.885 2.318 1.791 3.489 2.669-2.985-2.239-.841-.648-.223-.166q1.155.9 2.305 1.806a563 563 0 0 1 14.189 11.56 566.5 566.5 0 0 1 76.176 77.848 646 646 0 0 1 6.358 8.039c1.648 2.114-1.803-2.357-.177-.227q.89 1.163 1.777 2.327a561 561 0 0 1 15.029 20.751c3.08 4.458 8.663 7.579 14.212 5.783 5.684-1.839 8.63-6.362 9.239-12.135q.26-2.46.582-4.912l-.45 3.346c2.03-14.959 6.04-29.572 11.859-43.5l-1.27 3.009c3.486-8.247 7.573-16.229 12.282-23.847a170 170 0 0 1 7.292-10.843c.694-.951 1.408-1.888 2.112-2.831.899-1.204-2.03 2.573-.458.597q.438-.554.878-1.107a172 172 0 0 1 4.53-5.422l-21.08-5.565 38.853 115.13 11.062 32.78c1.435 4.252 4.396 7.615 8.838 8.838 4.166 1.147 9.349.055 12.311-3.254a859 859 0 0 1 52.424-53.651l-21.182-5.592a640 640 0 0 1 2.021 13.848l-.453-3.37c5.766 42.954 7.004 86.537 4.09 129.771-.406 6.016-.939 12.019-1.489 18.023-.286 3.131-.533 6.263-.789 9.398a562 562 0 0 1-.685 7.749q.445-2.262.148-.42c-.436 2.984-.501 5.589 1.086 8.301 1.308 2.235 3.87 4.366 6.438 4.951 5.107 1.163 12.381-1.561 13.252-7.524.977-6.686 2.562-13.283 3.437-20.002-.555 4.259.383-2.872.537-4.09q.283-2.25.549-4.502.556-4.708 1.038-9.424a555 555 0 0 0 2.459-35.334c.908-23.878.242-47.742-1.896-71.541-1.279-14.245-3.075-28.445-5.304-42.572-.666-4.22-4.962-7.78-8.851-8.851-4.469-1.231-9.006.139-12.33 3.259a859 859 0 0 0-52.396 53.679l21.149 5.584-38.915-115.113-11.08-32.775c-1.433-4.238-4.38-7.589-8.809-8.809-4.1-1.129-9.383-.085-12.271 3.243-19.267 22.208-33.358 48.781-40.333 77.391-2.08 8.532-3.441 17.224-4.357 25.955l23.451-6.352c-14.486-20.942-30.308-41.007-47.374-59.909a567 567 0 0 0-52.987-51.501c-11.213-9.557-22.807-18.675-34.68-27.397-6.204-4.557-17.064.023-18.414 7.491-4.921 27.221-6.273 54.877-4.913 82.481 1.368 27.774 5.194 55.401 9.802 82.804 2.513 14.943 5.286 29.839 8.077 44.732l12.045-15.812c-29.165.432-58.284 3.441-86.962 8.753-4.173.773-7.645 4.804-8.724 8.724-1.256 4.562.255 8.691 3.212 12.153 20.595 24.106 45.813 44.554 73.577 59.861 7.6 4.19 15.414 7.979 23.399 11.377l2.975-22.762c-27.864 8.951-55.327 19.093-82.191 30.71a830 830 0 0 0-22.018 9.911c-4.066 1.901-6.483 7.021-6.483 11.302 0 4.222 2.406 9.478 6.483 11.302 32.6 14.586 66.28 26.991 100.412 37.475a913 913 0 0 0 28.616 8.275l-5.652-21.408c-4.276 5.206-8.439 10.499-12.548 15.838-.398.518-.831 1.022-1.2 1.561 2.431-3.557-.495.634-1.443 1.873a518 518 0 0 0-8.004 10.742 533 533 0 0 0-19.844 29.374c-2.436 3.874-2.275 9.149 0 13.036 2.13 3.639 6.745 6.818 11.151 6.396 32.985-3.161 65.808-7.869 98.427-13.675 33.4-5.945 66.555-13.214 99.246-22.308 8.595-2.391 17.128-5.061 25.61-7.83a643 643 0 0 0 6.065-2.013c.996-.336 2.006-.639 2.998-.988l2.585-1.091-1.44.525c.461-.336 1.207-.487 1.747-.706a666 666 0 0 0 13.656-5.728c1.971-.852 3.956-3.72 4.417-5.745.49-2.149.377-4.218-.484-6.259-1.845-4.372-6.672-6.829-11.34-5.565Z"/></svg>