<?xml version="1.0" encoding="UTF-8"?><svg xmlns="http://www.w3.org/2000/svg" data-name="ARTWORK" viewBox="0 0 1000 1000"><path d="M475.418 706.804c-8.436-4.479-16.825-9.267-24.674-14.72a282 282 0 0 1-5.603-3.999c-1.969-1.44-3.901-3.306-6.009-4.512 2.265 1.296.607.466.036.019l-.977-.769a297 297 0 0 1-2.911-2.332c-1.934-1.569-3.852-3.155-5.777-4.736-14.638-12.023-28.143-25.416-40.347-39.902a322 322 0 0 1-6.329-7.757l-1.16-1.477c-1.216-1.544 1.695 2.219-.157-.204a317 317 0 0 1-8.283-11.343c-5.418-7.774-10.561-15.75-15.326-23.942a317 317 0 0 1-17.395-34.609c-.322-.753-1.168-2.961.221.531-.269-.676-.56-1.345-.836-2.018a310 310 0 0 1-5.035-13.109c-7.232-20.179-12.318-41.123-15.197-62.363l.437 3.251c-2.441-18.304-3.384-36.944-.984-55.304l-.439 3.265c.923-6.81 2.299-13.556 4.317-20.129a106 106 0 0 1 2.45-7.079q.185-.475.374-.949c.738-1.847-.032-.049-.332.742 1.196-3.154 2.861-6.218 4.52-9.148a84 84 0 0 1 5.374-8.333c.215-.293.491-.595.673-.904.137-.233-1.868 2.375-1.07 1.383.411-.51.815-1.025 1.232-1.53a78 78 0 0 1 2.948-3.363 80 80 0 0 1 5.99-5.807c.976-.853 1.982-1.667 2.986-2.486 1.439-1.175-1.206.936-1.186.91.182-.229.677-.511.887-.666q.892-.66 1.801-1.298c5.172-3.626 10.736-6.648 16.541-9.128l-2.956 1.248c8.145-3.421 16.696-5.714 25.443-6.928l-3.297.443a106 106 0 0 1 27.705-.045l-3.304-.444c8.619 1.174 17.045 3.413 25.071 6.776l-2.975-1.255a98 98 0 0 1 14.287 7.556c2.399 1.532 4.705 3.185 6.992 4.878 1.061.785-1.529-1.158-1.321-1.023.328.212.653.514.953.754q.711.57 1.413 1.151 1.753 1.454 3.444 2.981a114 114 0 0 1 12.689 13.498c.24.3.545.627.756.956.133.207-1.815-2.384-1.024-1.325a162 162 0 0 1 2.706 3.69 124 124 0 0 1 4.528 6.903c3.361 5.512 6.282 11.276 8.803 17.218l-1.264-2.995a137.7 137.7 0 0 1 9.402 34.444l-.449-3.342a136.6 136.6 0 0 1 1.181 20.271c-.089 5.304 3.951 10.931 9.239 12.135 5.251 1.196 11.598-.712 14.212-5.783a262 262 0 0 1 14.302-24.447 252 252 0 0 1 8.207-11.685c.696-.934 1.414-1.851 2.108-2.786-2.567 3.455-.257.343.376-.455a237 237 0 0 1 4.828-5.892c6.122-7.232 12.681-14.099 19.68-20.489a199 199 0 0 1 10.476-8.93c.488-.387.985-.764 1.47-1.155-2.852 2.3-1.724 1.323-1.072.832.993-.748 1.984-1.497 2.988-2.23a181 181 0 0 1 5.576-3.917c8.649-5.833 17.816-10.874 27.422-14.948l-3.013 1.272c11.282-4.73 23.093-8.046 35.223-9.678l-3.355.451c8.981-1.165 18.114-1.544 27.117-.406l-3.357-.451c5.24.718 10.347 1.98 15.243 3.998l-3.017-1.273c3.489 1.5 6.81 3.332 9.895 5.552.438.315 1.868 1.412.043-.001-1.888-1.462-.329-.246.012.034a53 53 0 0 1 2.07 1.791 56 56 0 0 1 3.858 3.881 59 59 0 0 1 1.79 2.081c.232.283.452.579.69.857-2.654-3.085-1.214-1.586-.639-.803a66 66 0 0 1 2.945 4.372c2.03 3.283 3.767 6.732 5.287 10.279l-1.274-3.019c3.542 8.424 5.755 17.322 6.971 26.367l-.452-3.362c1.686 13.028 1.125 26.183-.619 39.177l.452-3.364c-2.545 18.433-7.735 36.381-14.92 53.53l1.277-3.025c-7.847 18.568-17.969 36.077-29.737 52.429a309 309 0 0 1-4.348 5.894q-.663.875-1.33 1.748c-1.258 1.653.522-.67.635-.82-.875 1.173-1.806 2.307-2.72 3.45a350 350 0 0 1-9.861 11.793c-6.59 7.542-13.486 14.814-20.614 21.849-14.551 14.361-30.053 27.73-46.006 40.505a879 879 0 0 1-8.405 6.644l-1.759 1.368c-2.127 1.655 2.3-1.763.16-.124a764 764 0 0 1-12.481 9.387c-8.291 6.084-16.738 11.958-25.383 17.53-9.657 6.224-19.56 12.071-29.743 17.394a315 315 0 0 1-15.283 7.48 300 300 0 0 1-5.752 2.547c-2.797 1.203 2.062-.846-.178.079a288 288 0 0 1-8.268 3.287c-3.014 1.136-5.537 2.681-7.215 5.548-1.514 2.588-2.156 6.401-1.217 9.302 1.863 5.756 8.524 10.817 14.85 8.432 24.856-9.372 48.306-21.729 70.501-36.289 22.015-14.442 42.971-30.612 63.128-47.534 19.472-16.346 38.052-33.848 54.61-53.169 16.921-19.744 31.915-41.209 43.209-64.678 11.714-24.341 19.586-50.032 22.395-76.933 2.383-22.824.109-45.829-9.133-66.968-4.167-9.532-10.341-18.634-18.166-25.537-9.728-8.582-21.536-14.175-34.413-15.987-24.923-3.507-50.071 1.75-72.997 11.567-20.498 8.778-39.011 22.121-55.061 37.51-16.355 15.681-30.435 33.967-41.995 53.432a265 265 0 0 0-7.744 14.003l23.451 6.352c.391-23.934-5.352-47.796-16.145-69.126-10.653-21.054-27.062-39.536-47.325-51.752-19.027-11.47-41.821-16.788-63.969-15.318-22.97 1.524-44.77 9.459-62.675 24.021-19.237 15.645-30.418 39.45-34.377 63.576-4.187 25.518-2.348 51.392 2.061 76.756 3.831 22.041 10.387 43.601 19.045 64.217 9 21.431 19.847 42.366 33.469 61.257s28.555 36.437 45.65 52.143a308 308 0 0 0 19.319 16.34q1.532 1.19 3.069 2.373l.741.57c-2.873-2.201.598.484.986.765 1.174.85 2.365 1.681 3.549 2.518 9.067 6.415 18.517 12.34 28.129 17.901a293 293 0 0 0 14.572 7.881c4.244 2.145 10.06 1.261 12.451-3.265 2.226-4.214 1.225-10.067-3.265-12.451Z"/><path d="m325.7 242.578 88.486-147.364a874 874 0 0 1 62.062 149.762A2600 2600 0 0 1 640.883 64.158l22.655 192.664a1133 1133 0 0 1 215.024-69.515 699 699 0 0 1-78.878 157.527l175.315 37.119c-44.721 53.448-101.024 95.801-157.454 136.695a1590 1590 0 0 1 146.64 116.886 1941 1941 0 0 0-211.03 36.409l81.869 174.272a2463 2463 0 0 1-170.656-54.53 595.4 595.4 0 0 1-54.061 144.157l-138.04-119.159c-49.131 44.623-105.543 81.212-166.321 107.877a1389 1389 0 0 1 1.329-174.246 1671 1671 0 0 1-228.471 11.723c9.031-25.674 28.567-46.032 47.556-65.528l100.961-103.658a2382 2382 0 0 1-202.32-87.657l177.233-94.333A9492 9492 0 0 1 99.9 169.349c73.395 5.191 274.447 91.56 207.644 70.976-5.757-1.774 12.377 1.04 17.248 4.586 5.254 3.824 7.55 10.421 9.554 16.602l25.018 77.152c-20.645 13.778-42.115 28.449-53.705 50.397-8.751 16.571-10.989 35.786-11.462 54.521-2.614 103.536 47.267 207.059 129.87 269.534 16.681 12.616 36.131 24.057 57.009 22.8 12.175-.733 23.647-5.757 34.583-11.158 88.719-43.811 161.78-118.566 203.548-208.265 11.638-24.993 21.019-51.625 21.777-79.184s-8.058-56.316-28.225-75.113c-29.092-27.114-75.577-27.694-112.064-11.877s-65.238 44.991-92.773 73.685c12.303-28.715-9.119-61.567-35.375-78.493-33.008-21.279-75.176-27.767-113.055-17.395"/><path d="m333.438 247.101 90.627-146.113h-19.758c24.144 47.489 44.882 96.162 60.635 147.104 2.398 7.754 13.68 12.301 19.597 5.174 40.513-48.794 82.776-96.129 126.734-141.845a2643 2643 0 0 1 38.086-38.789l-20.46-8.475c7.483 64.223 14.98 128.444 22.481 192.664 1.134 9.712 9.324 14.41 18.296 10.499 68.198-29.729 139.461-52.415 212.166-68.12l-15.172-15.172c-19.278 54.544-45.716 106.38-77.993 154.372-4.44 6.602-.121 17.069 7.619 18.728l175.193 37.564-5.829-22.08c-44.503 52.712-99.588 93.985-155.05 134.168-8.698 6.302-8.881 17.465 0 23.736 50.152 35.408 98.157 73.741 143.822 114.773l9.755-23.551C892 630.116 820.299 642.306 749.456 658.52c-9.433 2.159-11.934 12.741-8.319 20.448 13.636 29.07 26.709 58.397 40.467 87.409s27.493 57.972 41.24 86.957l15.932-20.724a2486 2486 0 0 1-85.911-25.396c-28.421-8.967-57.055-18.114-84.705-29.276-6.967-2.812-15.929 3.11-17.535 9.956-11.594 49.421-29.495 95.99-51.927 141.16l21.119-2.721c-23.554-19.281-46.119-39.552-69.105-59.494-22.948-19.909-45.781-39.952-68.671-59.928-5.861-5.115-13.661-5.271-19.543 0a616.8 616.8 0 0 1-163.714 105.392l21.36 12.257c-3.092-58.07-2.876-116.221 1.088-174.246.471-6.896-6.808-14.821-13.954-13.954-75.764 9.194-152.167 13.007-228.471 11.724l13.455 17.662c5.058-13.999 15.057-27.896 25.21-39.418 11.826-13.421 24.646-25.984 37.123-38.791 27.538-28.267 55.102-56.509 82.59-84.825 7.8-8.035 3.514-19.654-6.153-23.307-67.679-25.574-134.125-54.264-199.174-85.935v23.451c59.022-31.54 118.026-63.114 177.073-94.606 6.825-3.64 7.556-11.801 4.758-18.146-27.009-61.245-53.388-122.768-79.079-184.578a9645 9645 0 0 1-22.131-53.707l-12.576 16.509q2.65.191 5.291.483c.504.056 2.435-.015 2.79.335-.026-.026-3.541-.521-1.312-.175.61.095 1.222.176 1.833.268 4.319.65 8.617 1.436 12.897 2.306 9.647 1.961 19.207 4.342 28.705 6.926 21.633 5.886 42.98 12.825 64.137 20.232 19.748 6.913 39.347 14.266 58.749 22.099 4.093 1.653 8.174 3.335 12.248 5.034 2.888 1.204-2.025-.867.002-.002l2.631 1.12q2.778 1.188 5.544 2.402c5.082 2.232 10.166 4.497 15.105 7.033 1.532.786 2.992 1.808 4.537 2.544 2.008.956-2.871-2.556-1.386-1.052.064.065-2.018-2.719-1.868-2.404l-1.256-9.692q14.765-10.54 8.742-8.795c-.519.143 4.517-.472 2.854-.41-2.131.079 4.229.892 1.506.205-.906-.229-1.829-.397-2.737-.624a120 120 0 0 1-3.986-1.089q-1.148-.33-2.292-.676c-3.937-1.189-.851-1.742 2.867 2.317v18.147l.057-.049-9.073 3.758c.22-.028.434 0 .653-.006 1.986-.048-2.026.299-1.532-.223.305-.323 3.137.58 3.618.683 2.987.639 5.84 1.825 8.793 2.489-2.603-.586-1.509-.519-.527-.125q.99.594-.676-.62l.998.938c.871 1.037 1.48 1.944 2.531 4.281-.516-1.149.218.615.305.866.387 1.11.771 2.218 1.14 3.334.962 2.908 1.896 5.825 2.843 8.737l22.459 69.062 5.85-14.377c-17.683 11.83-35.737 24.057-48.964 40.988-15.304 19.59-20.893 43.006-22.233 67.465-2.265 41.328 4.198 83.569 17.458 122.715 13.403 39.568 33.676 76.303 59.842 108.843 12.65 15.731 26.748 30.311 42.126 43.392 16.996 14.458 35.783 29.116 57.671 35.104a71.56 71.56 0 0 0 36.262.439c11.318-2.805 22.012-8.152 32.348-13.434a433 433 0 0 0 52.032-31.412c33.685-23.696 64.261-51.722 90.419-83.549 26.494-32.234 48.948-67.853 65.39-106.249 18.265-42.652 27.847-91.854 4.981-134.824-20.424-38.382-63.785-54.537-105.483-49.247-44.979 5.706-81.68 32.958-113.338 63.81-7.735 7.538-15.229 15.319-22.701 23.117l21.682 12.622c11.712-28.634-3.788-60.261-24.761-80.055-23.159-21.857-55.063-33.442-86.395-36.328-17.787-1.638-35.936.122-53.177 4.733-6.662 1.782-10.736 9.093-8.918 15.707 1.844 6.711 9.022 10.706 15.707 8.918 25.27-6.76 51.676-5.549 76.658 3.124 23.182 8.048 43.922 22.528 54.604 44.562.303.626.606 1.253.886 1.889-.534-1.214.14.359.276.736.542 1.498 1.064 2.997 1.509 4.527.44 1.51.824 3.036 1.138 4.578.176.864.354 1.755.468 2.633-.185-1.429-.043-.201-.018.521.254 7.239-.015 10.311-2.995 17.558-2.146 5.218 1.438 12.004 5.962 14.65 4.897 2.864 11.743 2.106 15.72-2.028 14.582-15.16 29.293-30.299 45.517-43.727 7.365-6.096 15.02-11.648 23.348-16.768a176 176 0 0 1 13.278-7.409c5.046-2.53 7.372-3.581 12.109-5.299a129 129 0 0 1 22.662-5.956c.366-.061 4.154-.593 2.19-.349 8.894-1.105 17.878-1.136 26.788-.214 4.448.46-1.18-.223 1.395.191a97 97 0 0 1 9.501 1.985 93 93 0 0 1 5.945 1.766q1.629.546 3.235 1.156.964.36 1.918.749-1.17-.492.053.048a81 81 0 0 1 11.394 6.3c.765.509 1.514 1.04 2.268 1.567 3.601 2.518-.761-.689 1.223.926a75 75 0 0 1 5.801 5.263c12.143 12.22 19.113 29.28 21.508 46.377 2.7 19.278-.902 40.452-7.033 59.589-11.859 37.013-32.265 72.017-55.094 103.292-21.73 29.77-49.166 58.208-78.69 81.953-13.457 10.823-29.144 21.731-44.732 31.192a429 429 0 0 1-25.218 14.169c-8.813 4.567-17.724 9.173-27.382 11.678-9.238 2.396-17.525 1.749-26.458-1.137-9.226-2.981-18.043-8.438-26.194-14.176-14.483-10.196-28.955-23.243-41.782-36.755-25.756-27.132-46.422-58.842-61.674-93.718-14.396-32.921-23.622-71.307-25.629-107.167-1.077-19.243-1.309-39.328 3.565-57.859 5.119-19.462 16.962-33.061 32.495-45.43 6.572-5.233 14.887-10.757 22.39-15.759 4.551-3.034 7.645-8.827 5.85-14.377-8.668-26.807-16.678-53.942-26.069-80.503-4.125-11.667-10.462-20.5-22.475-24.542-8.224-2.767-18.495-5.602-25.742.543-5.455 4.625-4.365 13.366 0 18.147 3.852 4.218 12.716 5.866 18.369 6.85 4.743.825 8.827.729 12.907-2.311 6.471-4.822 6.626-14.194 1.098-19.794-2.976-3.015-7.229-4.943-10.977-6.777-6.197-3.033-12.526-5.801-18.867-8.517-42.66-18.273-86.459-34.48-131.002-47.534-22.455-6.581-45.559-12.79-68.983-14.533-7.8-.58-15.664 8.915-12.576 16.509a9695 9695 0 0 0 80.265 191.482 9624 9624 0 0 0 23.192 53.257l4.758-18.146c-59.108 31.397-118.259 62.711-177.393 94.06-8.638 4.579-9.072 18.997 0 23.451 67.068 32.929 135.663 62.738 205.467 89.378l-6.153-23.307c-22.109 22.624-44.162 45.304-66.231 67.967-20.46 21.011-42.405 41.316-60.759 64.242-10.592 13.231-19.343 27.125-25.121 43.128-3.166 8.768 5 17.522 13.455 17.662 76.342 1.266 152.652-2.758 228.471-11.722l-13.954-13.954c-4.139 57.964-4.809 116.218-1.569 174.246.643 11.511 11.389 16.663 21.36 12.257 61.81-27.313 119.086-64.725 168.928-110.363h-19.543c23.123 19.743 46.292 39.434 69.369 59.23 23.095 19.811 46.428 39.181 68.935 59.664 6.271 5.707 16.697 5.121 21.119-2.721 25.843-45.832 44.191-95.981 56.196-147.155l-17.535 9.956c28.45 9.009 56.56 19.169 84.959 28.359a2489 2489 0 0 0 85.737 26.03c5.405 1.536 11.506-.609 14.829-5.056 3.614-4.836 3.598-10.305 1.103-15.668l-40.629-87.314c-13.543-29.105-27.746-57.838-41.402-86.863l-8.319 20.448c68.397-15.738 137.62-27.865 207.33-36.036 5.574-.653 10.373-2.926 12.608-8.481 1.969-4.895 1.307-11.341-2.853-15.07-47.447-42.535-97.384-82.273-149.458-118.999v23.736c57.186-41.477 114.322-84.719 159.859-139.221 5.883-7.041 4.71-19.877-5.829-22.08L803.083 332.54l7.619 18.728c33.238-49.973 59.855-104.078 79.763-160.683 3.312-9.418-6.648-17.027-15.172-15.172-74.836 16.286-147.734 40.202-217.882 70.909l18.296 10.499a656789 656789 0 0 0-22.829-192.664c-.575-4.844-2.536-9.01-7.368-10.953-4.435-1.784-9.623-1-13.092 2.478-44.798 44.902-87.978 91.409-129.389 139.453a2640 2640 0 0 0-35.062 41.549l19.597 5.174c-16.342-52.45-37.171-104.149-63.49-152.419-4.141-7.595-15.536-7.268-19.758 0l-86.345 148.616c-5.816 10.01 9.404 18.836 15.476 9.046Z"/></svg>