<?xml version="1.0" encoding="UTF-8"?><svg xmlns="http://www.w3.org/2000/svg" data-name="ARTWORK" viewBox="0 0 1000 1000"><path d="M27.54 435.969a4508 4508 0 0 0 55.369-20.517c24.165-9.122 48.116-18.859 72.147-28.328a197540 197540 0 0 1 67.609-26.624c19.092-7.515 38.091-15.28 57.461-22.064 25.854-9.054 52.365-16.829 79.412-21.369a325 325 0 0 1 10.295-1.556l-3.531.474c19.242-2.552 38.798-3.297 58.084-.762l-3.535-.475c6.456.874 12.86 2.102 19.154 3.787 3.012.807 5.997 1.715 8.946 2.729q2.352.81 4.672 1.71c.773.3 1.54.614 2.308.924 2.233.9-3.287-1.459-.605-.247 5.825 2.633 11.335 5.653 16.758 9.029 2.69 1.675 5.361 3.364 7.94 5.209 1.374.983 2.675 2.166 4.109 3.055s3.118 1.462 4.635 2.194c4.372 2.108 10.073 2.091 13.603-1.755 3.405-3.709 4.313-9.136 1.755-13.603-1.467-2.563-2.961-5.13-5.057-7.244-1.64-1.653-3.506-3.14-5.32-4.595-4.178-3.35-8.413-6.516-13.043-9.21-8.324-4.844-17.306-8.723-26.452-11.72-17.595-5.765-36.472-7.977-54.937-7.947-37.965.061-75.898 9.024-111.685 21.147-27.434 9.293-54.149 20.636-80.859 31.807-31.505 13.177-62.988 26.408-94.495 39.58-16.001 6.689-32.03 13.309-47.958 20.17a7241 7241 0 0 1-20.056 8.607q-4.46 1.906-8.924 3.8-.403.173-.806.342c5.372-2.242-4.607 1.945.764-.323q-.976.412-1.954.819-1.964.823-3.929 1.643-3.475 1.45-6.955 2.884c-2.403.99-4.345 2.057-5.711 4.391-1.199 2.048-1.706 5.067-.963 7.363 1.491 4.608 6.723 8.498 11.755 6.674Z"/><path d="M977.651 424.268c-18.762-6.191-37.215-13.312-55.624-20.471-23.095-8.982-46.11-18.169-69.196-27.173-25.652-10.005-51.39-19.788-77.333-29.015s-52.15-17.862-78.717-25.264c-24.589-6.851-49.489-12.829-74.728-16.742-22.005-3.411-44.469-5.749-66.739-3.91-9.889.817-19.86 2.258-29.389 5.097-17.328 5.162-34.064 13.13-50.133 21.327-17.447 8.9-34.417 18.714-51.47 28.337l-27.074 15.279c-7.917 4.468-15.717 8.864-22.828 14.573-7.167 5.755-13.052 13.631-15.454 22.599-2.695 10.059-.866 20.301 3.472 29.573 8.174 17.473 26.662 27.303 44.948 30.543 18.521 3.281 37.733 3.064 56.343.647 18.967-2.464 37.475-6.941 55.202-14.201 9.087-3.721 17.952-7.853 26.505-12.683l-15.707-2.027c36.055 39.54 89.308 63.343 142.76 64.318 15.242.278 30.277-1.56 45.19-4.592 6.122-1.244 10.215-8.828 8.326-14.665-2.1-6.49-8.106-9.66-14.665-8.326-1.504.306-3.024.546-4.54.79-.67.108-5.694.826-2.255.357l-3.217.432 1.397-.203c-.808.254-1.891.221-2.735.309q-2.281.24-4.568.421c-6.1.483-12.225.652-18.343.516-6.282-.139-12.556-.6-18.793-1.368-.898-.111-2.896-.692.21.037-.576-.135-1.224-.177-1.816-.264-1.515-.223-3.03-.447-4.542-.691a194 194 0 0 1-35.549-9.272 189 189 0 0 1-7.716-3.004q2.286.974.96.407c-11.392-4.966-22.327-10.845-32.591-17.865-2.765-1.892-5.589-3.799-8.179-5.929 2.307 1.897.952.74.445.329-.832-.675-1.673-1.338-2.501-2.018a181 181 0 0 1-3.858-3.259 179 179 0 0 1-15.092-14.79c-3.888-4.278-10.863-4.751-15.707-2.027a211 211 0 0 1-11.771 6.158 205 205 0 0 1-5.787 2.679c-.444.197-3.239 1.408-1.864.823 1.452-.618-.193.078-.41.166-.657.266-1.312.535-1.97.797a208 208 0 0 1-38.213 11.123q-3.134.595-6.284 1.094c-1.05.166-2.103.31-3.154.474-1.947.305 2.261-.265.303-.039-.704.081-1.406.175-2.11.257a205 205 0 0 1-26.516 1.369c-4.365-.059-8.733-.244-13.083-.608q-1.526-.127-3.047-.288c-.508-.054-1.015-.124-1.523-.172-1.571-.15.913.147.942.138-.716.215-2.28-.347-3.025-.476a90 90 0 0 1-3.499-.678 75 75 0 0 1-5.888-1.508 64 64 0 0 1-2.874-.938c-.474-.167-.944-.347-1.417-.517-1.754-.631-.238.264.342.176-1.226.186-4.29-2.118-5.35-2.745a48 48 0 0 1-2.55-1.62c-.4-.273-.785-.569-1.186-.841-1.407-.952 1.77 1.605.564.398-1.266-1.267-2.631-2.4-3.828-3.746-.315-.354-2.187-2.554-.957-1.102 1.134 1.338.17.192-.029-.121-.319-.503-.662-.991-.975-1.498a38 38 0 0 1-1.323-2.322c-.204-.39-.373-.811-.592-1.192-.701-1.217.42 1.03.431 1.111-.264-1.791-1.275-3.622-1.655-5.434-.078-.373-.083-.936-.242-1.278.019.04.218 2.775.2 1.346-.011-.86-.112-1.717-.107-2.58.003-.559.318-3.338-.035-1.261-.358 2.105.256-1.095.407-1.66.18-.676.864-1.844.817-2.513.007.106-1.147 2.313-.448 1.121.218-.372.386-.785.593-1.165.413-.762.864-1.507 1.344-2.229.24-.361.507-.705.746-1.066.927-1.397-1.631 1.791-.434.609 1.253-1.238 2.376-2.581 3.69-3.768.663-.598 1.364-1.149 2.033-1.738 1.069-.941-.834.647-.883.667.495-.194 1.023-.756 1.46-1.067 3.205-2.281 6.587-4.301 9.999-6.254 8.473-4.851 16.994-9.619 25.491-14.426 16.734-9.467 33.384-19.109 50.336-28.184 8.245-4.414 16.579-8.665 25.064-12.6a362 362 0 0 1 6.125-2.773q1.538-.677 3.082-1.341c.178-.077 1.901-.798.506-.217-1.406.585.788-.32 1.029-.419a275 275 0 0 1 13.091-4.992 108 108 0 0 1 12.584-3.593c2.086-.459 4.184-.86 6.291-1.211 1.036-.172 2.076-.319 3.114-.48 2.051-.318-3.423.422-1.351.18.623-.073 1.244-.154 1.867-.226 9.524-1.093 19.138-1.306 28.713-.993 5.224.171 10.443.502 15.65.96a356 356 0 0 1 12.066 1.268q.996.122 1.993.248c.586.075 3.375.445.949.118-2.397-.323.078.013.629.091q1.014.142 2.027.289a449 449 0 0 1 13.391 2.149 555 555 0 0 1 17.667 3.401c12.306 2.57 24.532 5.514 36.688 8.713 25.839 6.8 51.412 14.697 76.812 22.975 25.442 8.292 50.687 17.176 75.854 26.264 23.35 8.432 46.616 17.094 69.921 25.65 19.218 7.056 38.454 14.101 57.911 20.475a611 611 0 0 0 11.654 3.696c4.989 1.524 11.095-1.815 12.268-6.966 1.251-5.491-1.658-10.517-6.966-12.268Z"/><path d="M71.177 752.927a53 53 0 0 1 3.429-3.366 63 63 0 0 1 1.749-1.509c.338-.282.69-.55 1.024-.837 1.265-1.088-1.535 1.103-.055.034 3.129-2.261 6.294-4.423 9.614-6.399 3.76-2.237 7.626-4.294 11.55-6.227 2.179-1.073 4.384-2.086 6.587-3.107.389-.18 1.66-.724-.194.076 1.105-.476 2.2-.958 3.301-1.436 1.413-.613-2.134.811.183-.074.719-.275 1.432-.567 2.15-.845 20.952-8.141 42.62-14.853 64.445-20.242a576 576 0 0 1 35.103-7.511 488 488 0 0 1 17.036-2.792c1.287-.187 2.575-.365 3.863-.545-3.461.482 1.126-.14 1.958-.243q4.16-.518 8.329-.948c10.099-1.039 20.254-1.699 30.41-1.657 4.362.018 8.717.187 13.065.532 1.932.153 3.856.342 5.783.556 2.676.296-3.119-.508-.114-.008 1.093.182 2.185.354 3.273.564 3.63.701 7.127 1.721 10.6 2.981q2.774 1.005 5.523 2.078 1.467.573 2.926 1.167c.46.187 2.902 1.225.994.403a202 202 0 0 1 10.362 4.807c11.642 5.817 22.463 12.975 33.028 20.539 11.212 8.027 22.338 16.147 34.115 23.342 14.392 8.792 29.498 16.454 44.919 23.265 32.039 14.152 65.487 24.823 99.937 31.242a466 466 0 0 0 52.428 6.738c16.185 1.142 33.538 1.344 47.957-7.257 16.557-9.876 25.543-30.432 16.094-48.369-7.64-14.503-25.799-18.909-39.93-24.189-35.555-13.285-71.083-26.645-106.675-39.832-8.558-3.171-17.126-6.317-25.672-9.523-5.617-2.107-12.083 1.898-14.228 6.983-2.09 4.952-.594 12.711 4.935 15.061 34.286 14.574 69.395 27.025 105.344 36.838a800 800 0 0 0 52.809 12.508c17.813 3.585 35.926 7.134 54.04 8.759 17.506 1.57 37.365-1.451 49.847-15.04 12.628-13.748 14.259-33.961 2.099-48.517-8.831-10.571-23.363-15.07-36.367-17.773-16.2-3.368-32.318-6.517-48.237-11.121-37.905-10.964-71.458-25.883-105.388-46.792l-12.449 21.297c60.339 35.807 129.905 55.606 200.087 56.65 8.344.124 17.182.544 25.138-2.404 8.399-3.112 15.228-8.077 20.573-15.277 8.974-12.09 9.688-29.621.532-41.767-8.636-11.456-22.009-17.657-35.429-21.774-6.724-2.063-13.627-3.386-20.466-5a481.6 481.6 0 0 1-67.354-21.232 528 528 0 0 1-7.276-2.963c-.186-.077-2.19-.928-.628-.263a459 459 0 0 1-4.203-1.816c-18.187-7.957-35.846-17.071-52.964-27.119l-12.823 21.938c38.352 18.145 78.888 30.7 121.613 31.208 21.074.251 42.168-2.301 62.826-6.342 10.043-1.964 20.906-3.607 30.463-7.338 8.563-3.343 15.73-8.899 20.514-16.842 8.378-13.91 7.667-32.622-2.289-45.509-13.362-17.295-38.089-18.603-58.222-18.755-9.838-.074-19.57-.062-29.376-.87-1.48-.122 1.045.152 1.066.153-.456-.018-.943-.133-1.394-.205-.934-.149-1.869-.296-2.801-.459q-3.315-.582-6.599-1.323a166 166 0 0 1-11.975-3.185 208 208 0 0 1-12.657-4.327 248 248 0 0 1-5.892-2.31c-.658-.267-1.312-.543-1.969-.811.147.06 1.958.846.604.254-1.15-.503-2.305-.995-3.453-1.505-8.57-3.803-16.956-8.011-25.2-12.474-32.387-17.535-62.448-38.914-92.9-59.528a1502 1502 0 0 0-9.695-6.501c-5.689-3.788-14.677-1.299-17.834 4.676-3.462 6.553-1.395 13.791 4.676 17.834 28.405 18.914 56.023 38.922 85.499 56.192 30.821 18.058 64.192 34.608 100.062 38.889 9.465 1.13 19.005.773 28.515.768 4.827-.003 9.659.055 14.477.378q1.956.129 3.906.321c.045.004 4.266.566 1.821.193a75 75 0 0 1 8.886 1.889 65 65 0 0 1 3.735 1.159c3.345 1.152.432-.067.311.014.493-.328 3.69 2.04 4.205 2.35 2.315 1.394-2.02-1.947-.116-.089.538.525 1.106 1.009 1.628 1.553.447.466.938 1.308 1.462 1.664q-1.81-2.39-.671-.783.404.602.773 1.225c.366.617.646 1.299 1.024 1.904.944 1.513-.211-.89-.408-1.033.756.552.994 3.233 1.237 4.109l.144.701q.343 2.017-.125-1.225c.247.259.151 1.782.166 2.141a29 29 0 0 1-.074 3.582q-.207 2.037.197-1.209c.382.707-.738 3.445-.973 4.199-.137.441-.368 1.733-.718 2.038l.706-1.681q-.299.659-.631 1.299c-.659 1.119-1.873 2.501-2.298 3.694.807-2.266 1.23-1.511.104-.292-.589.638-1.239 1.204-1.852 1.816-1.425 1.42-.854-.278.502-.319-.404.012-1.543 1.043-1.917 1.267-.674.405-1.377.74-2.063 1.12-2.413 1.335 2.738-.801.035-.027-5.104 1.461-10.256 2.73-15.432 3.92-9.856 2.267-19.79 4.209-29.796 5.689a271 271 0 0 1-3.6.512c2.767-.369-1.156.131-1.404.161q-3.53.426-7.069.767c-5.008.482-10.029.831-15.056 1.032-10.166.406-20.356.2-30.492-.684q-3.914-.342-7.815-.816c-.389-.047-4.097-.572-1.095-.134a293 293 0 0 1-4.461-.675 241 241 0 0 1-15.656-3.063c-10.418-2.396-20.674-5.468-30.741-9.061a330 330 0 0 1-16.453-6.378c2.159.903-1.786-.771-1.756-.757q-2.423-1.05-4.833-2.134a465 465 0 0 1-8.572-3.968c-5.993-2.842-13.988-1.863-17.381 4.557-3.225 6.103-1.562 13.781 4.557 17.381 29.113 17.124 60.164 31.095 92.165 41.882a481 481 0 0 0 47.863 13.428c6.432 1.45 12.906 2.671 19.231 4.559 2.718.812 5.375 1.765 8.035 2.744 2.089.769.083.006-.291-.156q1.066.46 2.118.949a64 64 0 0 1 4.461 2.286 51 51 0 0 1 3.387 2.088c.597.402 1.178.825 1.762 1.245-.296-.213-1.976-1.711-.455-.301.908.841 1.828 1.646 2.674 2.555.262.282 1.315 1.158 1.318 1.513l-.923-1.168q.453.642.862 1.313c.269.445.487.922.757 1.365 1.289 2.112-.334-1.868-.123-.375.015.104 1.012 3.421.922 3.428-.495.035-.121-2.731-.146-.776-.009.693-.008 1.42.02 2.112.033.819-.423 2.761.125-.117-.185.972-.37 1.937-.637 2.891-.181.646-.42 1.269-.614 1.91.712-2.352.173-.4-.18.278-.364.699-2.765 4.147-1.046 2.044a29.6 29.6 0 0 1-3.012 3.186c-.517.47-2.283 1.676-.203.255-.812.555-1.623 1.103-2.476 1.596-.838.485-3.951 1.745-1.557.896-1.592.565-3.161.981-4.794 1.401-2.19.563-.261.086.249.036-.847.083-1.69.139-2.54.167-2.303.075-4.618.039-6.922.024-16.232-.111-32.474-1.178-48.566-3.329 1.864.249-2.352-.341-3.071-.448a395 395 0 0 1-42.042-8.59 405 405 0 0 1-51.617-17.274c-2.963-1.22-6.778-2.881-11.145-4.881a392 392 0 0 1-11.564-5.527 398 398 0 0 1-24.761-13.479c-5.56-3.282-13.771-1.446-16.873 4.424-3.178 6.015-1.454 13.269 4.424 16.873 28.43 17.43 58.85 31.646 90.404 42.434a436 436 0 0 0 47.244 13.242c7.296 1.608 14.657 2.846 21.973 4.349 2.821.58 5.63 1.226 8.406 1.996 1.387.385 2.765.8 4.131 1.254q1.128.373 2.243.784c.502.186 3.276 1.505.581.185 2.46 1.205 4.806 2.436 7.102 3.939 1.79 1.172-.092-.047-.372-.307.525.488 1.081.938 1.596 1.439.51.497.974 1.033 1.468 1.544 1.622 1.678-1.015-1.972.148.267.239.46.571 1.032.868 1.476 1.439 2.149-.226-1.623.03-.107.233 1.375.86 2.72 1.103 4.119-.564-3.253-.201 3.393-.086 1.542.113-1.814-.32 1.413-.34 1.488-.142.553-1.171 3.47-.168 1.073-.621 1.484-1.589 2.752-2.327 4.162-.833 1.59 1.785-1.725-.407.518-.506.518-.973 1.059-1.492 1.567s-1.061.987-1.608 1.464c1.653-1.44-.13.07-.624.394a37 37 0 0 1-2.616 1.564c-.351.191-3.434 1.664-1.533.854-3.24 1.38-6.891 2.306-10.384 2.735 2.053-.252.002-.037-.346-.023-.999.04-1.995.14-2.995.178a81 81 0 0 1-6.646-.037c-3.652-.163-7.293-.536-10.917-1.006.536.069 2.068.299-.4-.063q-1.533-.223-3.065-.453a797 797 0 0 1-82.379-16.91c-36.591-9.547-74.57-22.401-108.114-36.648l-9.294 22.044c34.652 12.988 69.231 26.175 103.873 39.191q13.158 4.945 26.313 9.898l12.819 4.824c1.482.558 2.959 1.129 4.439 1.696.673.258 2.668 1.212.134.037.864.4 1.734.784 2.585 1.212 1.267.637 2.449 1.392 3.683 2.085.666.374 2.237 1.771.129-.036.466.4.933.789 1.378 1.214.089.085 2.278 2.15.886.787-1.294-1.267.489.771.639 1.026.324.549.61 1.117.885 1.692-1.251-2.616-.104.326.049.865.828 2.923.269-1.232.071.495-.101.875.01 1.825-.052 2.712.042-.605.575-2.276-.076-.096-.258.862-.525 1.724-.786 2.585-.516 1.699 1.449-2.069-.325.502-.407.589-.756 1.268-1.138 1.87-1.256 1.984-.403.506-.059.121a37 37 0 0 1-2.731 2.75c-1.499 1.366 2.301-1.37-.706.557-.648.415-1.276.843-1.939 1.236-.652.387-1.344.708-1.993 1.098-2.936 1.764 2.057-.553-1.165.559-1.421.49-2.84.966-4.296 1.343-.912.236-1.831.441-2.755.625-.552.11-4.491.61-1.756.332-7.383.751-14.778.43-22.167-.079-17.625-1.214-30.81-2.927-47.731-6.132a440 440 0 0 1-72.115-20.149c-8.384-3.134-14.647-5.695-21.736-8.85-15.203-6.767-30.14-14.282-44.377-22.909-11.664-7.068-22.697-15.043-33.799-22.945-10.123-7.205-20.463-14.073-31.547-19.728-11.365-5.798-23.67-11.618-36.2-14.362-17.814-3.902-36.528-3.024-54.537-1.179-23.12 2.368-46.084 6.593-68.6 12.326-22.446 5.715-44.896 12.53-66.038 22.027-16.534 7.426-33.325 15.611-47.245 27.4-2.42 2.049-4.705 4.25-6.769 6.66-2.996 3.5-3.437 8.633 0 12.071 3.177 3.177 8.919 3.387 12.071 0Z"/><path d="M349.93 715.411c4.028 0 7.886-3.542 7.7-7.7s-3.383-7.7-7.7-7.7c-4.028 0-7.886 3.542-7.7 7.7s3.383 7.7 7.7 7.7"/><path d="M348.2 711.418c-9.62 4.613-16.547 13.259-20.191 23.145-3.761 10.202-2.37 21.394 2.377 30.986 4.829 9.759 13.89 16.959 24.185 20.214 11.355 3.59 23.946 1.945 35.193-1.19 12.522-3.49 24.66-8.827 35.802-15.506l-11.089-18.972c-10.724 7.699-19.897 17.376-25.989 29.184-3.339 6.472-6.252 13.685-5.828 21.116.479 8.391 4.925 15.22 11.979 19.636 9.981 6.248 22.941 8.857 34.534 9.49 11.233.613 22.904-1.118 33.474-4.967 12.679-4.618 24.31-11.798 33.523-21.731l-18.328-10.669c-.198.565-.415 1.121-.615 1.685.721-2.027.252-.588.013-.128-.565 1.088-1.115 2.179-1.722 3.245-1.309 2.3-2.744 4.524-4.184 6.744-2.719 4.192-5.426 8.364-7.421 12.96-2.619 6.034-3.975 12.095-3.09 18.687.872 6.49 3.998 12.527 8.723 17.083 20.985 20.234 51.861 6.185 73.104-5.947 12.223-6.981 23.646-15.437 34.071-24.886l-15.558-15.558c-4.78 6.029-8.358 13.505-7.545 21.43.828 8.074 3.952 15.071 8.965 21.402 11.081 13.995 28.783 17.031 45.569 13.812 16.924-3.246 32.76-12.58 47.841-20.555a830 830 0 0 0 44.226-25.158c29.191-17.81 57.195-37.465 84.051-58.627 13.212-10.411 26.053-21.261 38.654-32.401 5.674-5.016 11.403-9.948 17.29-14.714 2.66-2.153-1.885 1.379.85-.666.686-.513 1.369-1.03 2.059-1.537a150 150 0 0 1 4.593-3.251c3.208-2.176 6.509-4.216 9.923-6.053a99 99 0 0 1 5.825-2.866c-2.169.989-.576.242-.096.07 1.245-.446 2.473-.927 3.73-1.34a69 69 0 0 1 5.73-1.614 64 64 0 0 1 4.905-.95q-2.11.265-.738.107c4.859-.363 9.529-.367 14.384.042 3.798.319-2.398-.477 1.355.182 1.158.203 2.315.396 3.469.624 2.511.496 5.003 1.091 7.477 1.747 9.668 2.564 19.059 6.08 28.533 9.26l29.703 9.968c6.331 2.125 14.22-2.447 15.692-8.91 1.606-7.052-2.131-13.417-8.91-15.692-16.734-5.616-33.395-11.623-50.334-16.599-17.071-5.014-34.977-7.653-52.442-2.961-30.571 8.214-53.172 33.105-76.532 52.894a835 835 0 0 1-18.336 15.088 1063 1063 0 0 1-9.328 7.345c-1.701 1.329 2.144-1.637-.736.568q-1.346 1.033-2.695 2.062a833 833 0 0 1-45.164 32.093 832 832 0 0 1-84.056 48.808c-4.111 2.075-8.237 4.139-12.473 5.951 2.071-.887-1.451.567-1.502.587a97 97 0 0 1-3.261 1.2 77 77 0 0 1-6.592 1.981c-1.1.275-2.208.524-3.322.737-.222.042-3.723.448-1.334.252-2.231.183-4.444.323-6.683.23-.244-.01-3.856-.407-1.339-.022a34 34 0 0 1-3.325-.679c-.759-.195-1.488-.452-2.236-.682-2.446-.753 2.143 1.226-.082-.058-.74-.427-3.753-1.54-4.04-2.458l1.101.858a32 32 0 0 1-2.92-2.69c-.312-.326-1.52-1.331-1.577-1.78q1.488 1.979.382.463l-.444-.649c-.294-.443-2.571-3.634-2.27-4.067l.568 1.352a27 27 0 0 1-.512-1.427 25 25 0 0 1-.6-2.163l-.153-.724q-.323-1.89.098.883c.223-.588-.167-1.874-.179-2.53-.005-.279.195-1.648.057-1.786q-.423 2.708-.095.866.106-.528.255-1.046c.391-2.281-.077.43-.241.255-.214-.228 2.608-3.712.365-.905 3.585-4.487 4.71-11.234 0-15.558-4.583-4.207-10.981-4.117-15.558 0a192 192 0 0 1-5.797 5.024 177 177 0 0 1-4.271 3.434c1.302-1.005-.588.427-.819.599a180 180 0 0 1-13.143 8.918 178.5 178.5 0 0 1-20.819 10.999c-.38.17-3.445 1.465-1.983.87-1.43.583-2.871 1.141-4.326 1.658-2.539.902-5.126 1.686-7.76 2.258-.748.162-1.499.297-2.252.437.246-.046 1.459-.116.135-.018-1.519.113-3.027.222-4.553.188-.763-.017-1.524-.108-2.285-.128-1.522-.04.415.039.632.094-1.02-.255-2.051-.432-3.06-.736-.856-.258-3.066-1.337-1.113-.324a66 66 0 0 1-3.132-1.755c-.511-.301-1.48-1.301.124.17-.326-.298-.668-.576-.991-.878-.662-.618-2.151-2.468-.859-.661-.595-.832-1.038-1.738-1.58-2.596-.651-1.029.238.515.274.684a18 18 0 0 0-.595-2.127c-.468-1.306.266.8.063.847-.018.004-.085-1.481-.089-1.692-.008-.561.027-1.111.036-1.672.007-.449.393-1.49-.002-.159-.446 1.505.361-1.236.521-1.776.275-.929 1.406-3.483.38-1.348 4.671-9.718 11.391-18.134 15.09-28.363 3.778-10.449-11.073-18.336-18.328-10.669a73 73 0 0 1-4.576 4.457c-.911.807-1.856 1.567-2.791 2.344 1.69-1.406-.765.539-1.419.994-3.76 2.617-7.751 4.747-11.88 6.712-.441.21-1.966.77.139-.043-.425.164-.847.339-1.272.503q-1.49.576-3.001 1.091a78 78 0 0 1-7.018 2.023c-2.077.495-4.171.885-6.277 1.228-2.126.346-.124.009.266-.032-.606.063-1.209.138-1.815.197a77 77 0 0 1-10.025.326 75 75 0 0 1-3.64-.209c-.881-.072-4.054-.486-1.534-.109-4.507-.675-8.946-1.721-13.249-3.229-1.006-.352-1.993-.749-2.988-1.128-1.553-.591 1.654.835.167.054-.411-.216-.849-.389-1.265-.597-1.127-.561-2.16-1.212-3.229-1.87.234.144 1.203 1.228.492.327a10 10 0 0 1-.962-.976l.671.815-.242-.43q-.59-1.088.175.472c.016-.175-.468-1.79-.183-.385.295 1.456.022-.525.028-.923.008-.497.042-.99.081-1.485-.194 2.429.462-1.353.65-1.956.152-.489.322-.971.494-1.453.288-.807.826-2.091.181-.596 1.149-2.661 2.513-5.241 4.004-7.725a70 70 0 0 1 3.387-5.119c.232-.32 1.699-2.075.435-.59 1.775-2.085 3.547-4.145 5.506-6.064a69 69 0 0 1 3.395-3.111q.583-.498 1.174-.988c2.553-2.128-1.665 1.186 1.025-.771 4.633-3.373 7.379-9.699 3.941-15.031-3.178-4.929-9.778-7.137-15.031-3.941-10.559 6.425-18.956 10.222-30.49 13.522-2.878.823-5.778 1.435-8.706 2.04q-1.99.303-.438.109-1.106.136-2.216.228c-1.47.121-2.945.186-4.421.176-1.455-.01-2.931-.061-4.375-.25 1.941.254-2.098-.515-2.486-.62-.438-.119-4.316-1.609-2.403-.718a29 29 0 0 1-2.788-1.496c-.434-.264-2.995-2.173-1.148-.665-.936-.764-1.82-1.582-2.667-2.444s-1.664-1.753-2.408-2.698c1.488 1.891-.686-1.192-.911-1.574a30 30 0 0 1-1.658-3.212c.953 2.188-.357-1.327-.476-1.756a29 29 0 0 1-.742-3.531c.355 2.379.013-.855.007-1.365a30 30 0 0 1 .142-3.239c-.214 2.199.358-1.481.469-1.906a28 28 0 0 1 1.15-3.525c-.687 1.686.854-1.557 1.032-1.868 2.211-3.857 4.423-6.027 8.387-8.264 4.252-2.4 5.684-8.205 3.245-12.376-2.634-4.503-7.955-5.365-12.376-3.245ZM173.556 361.239l-14.763-89.442a2215 2215 0 0 1 97.4 28.13l24.392-167.845c24.013 11.466 43.646 30.216 62.834 48.653l51.404 49.391A1845 1845 0 0 1 490.758 44.3c12.806 11.268 20.747 26.923 28.384 42.177l66.189 132.204a934.4 934.4 0 0 1 127.715-99.987l5.026 136.739 112.121-17.779-32.354 88.372 56.87 5.834a153.3 153.3 0 0 1-26.099 39.91c-59.793-32.457-124.775-55.331-191.715-67.486-40.74-7.397-84.59-10.446-121.884 7.546-3.888 1.875-7.796 4.005-12.093 4.416-5.782.553-11.339-2.072-16.561-4.615-35.241-17.159-72.798-34.02-111.895-31.226-20.287 1.45-39.779 8.162-58.999 14.817l-72.858 25.227c-23.044 7.979-47.423 16.89-62.32 36.197"/><path d="M182.681 358.723c-4.06-29.983-8.827-59.881-13.448-89.805l-13.319 13.319c32.584 8.983 65.069 18.309 97.304 28.478 5.254 1.657 12.902-1.969 13.763-7.814 8.232-55.932 16.408-111.869 24.452-167.828l-16.527 6.724c21.601 10.4 37.562 24.891 54.897 41.419 19.097 18.209 38.07 36.55 57.101 54.829 4.715 4.528 14.544 4.55 17.588-2.266 22.142-49.58 46.437-98.192 72.848-145.636a1870 1870 0 0 1 23.051-40.211l-17.523 2.258c8.544 7.646 13.397 15.033 19.116 25.387 6.085 11.016 11.488 22.425 17.123 33.675 12.067 24.091 24.132 48.183 36.185 72.281l20.398 40.782c3.34 6.677 12.589 6.864 17.531 2.259 39.411-36.723 80.446-68.835 125.487-98.188l-16.889-9.691c1.658 45.576 3.019 91.162 4.683 136.739.297 8.146 7.116 12.346 14.643 11.154 37.369-5.916 74.701-12.235 112.133-17.734l-14.287-14.287c-11.128 29.35-22.069 58.761-32.907 88.219-2.995 8.142 4.592 14.681 11.752 15.427 18.955 1.974 37.909 3.947 56.87 5.866l-10.551-18.386c-3.21 7.088-6.9 13.941-11.125 20.478a157 157 0 0 1-6.325 9.055c-2.357 3.137.678-.823-.732.932-.641.798-1.284 1.593-1.938 2.38a164 164 0 0 1-4.021 4.638l14.728-1.9c-41.021-22.215-84.483-40.178-129.234-53.362-22.058-6.498-44.468-11.831-67.1-15.907-22.36-4.027-45.208-6.906-67.966-5.847-11.437.532-22.951 1.994-34.077 4.724-11.227 2.755-21.503 7.354-31.987 12.108 2.06-.934-1.482.313-1.943.557-1.049.555-.026.15.482.078-.813.116-1.651.025-2.464.05 1.905-.058-.632-.151-1.481-.389-.6-.168-1.191-.366-1.779-.57-.627-.217-2.629-1.085-1.06-.38-5.196-2.336-10.267-4.967-15.418-7.399-10.993-5.19-22.134-10.122-33.506-14.426-21.902-8.289-45.41-13.959-68.969-13.054-24.552.943-47.745 9.061-70.734 16.998-23.454 8.097-46.932 16.13-70.338 24.368-19.837 6.982-39.751 14.674-55.861 28.591-3.637 3.142-6.881 6.628-9.847 10.406-4.021 5.123-5.372 12.716 0 17.647 4.49 4.121 13.342 5.483 17.647 0 2.956-3.766 6.313-7.195 9.974-10.279.405-.341.814-.675 1.223-1.011.151-.124 1.556-1.183.394-.319s.264-.177.419-.286c.578-.407 1.15-.822 1.73-1.225a98 98 0 0 1 6.287-4.008c4.031-2.367 8.213-4.469 12.471-6.395.661-.299 1.325-.589 1.988-.883.174-.077 1.843-.795.485-.216s.316-.128.493-.2q.757-.308 1.516-.614a267 267 0 0 1 7.13-2.738c21.88-8.076 44.103-15.309 66.136-22.96 22.118-7.68 44.34-16.654 67.566-20.362q.958-.152 1.918-.294c-.276.041-1.694.187-.181.03 1.504-.156 3.004-.338 4.512-.463 2.941-.244 5.891-.38 8.842-.408 5.428-.052 10.82.32 16.215.87.381.039 2.501.313.334.019.619.084 1.236.179 1.853.274q1.853.284 3.699.613c2.878.513 5.741 1.105 8.588 1.768 5.526 1.286 10.989 2.835 16.386 4.583 5.242 1.697 10.422 3.581 15.548 5.598a345 345 0 0 1 5.918 2.394c.004.002 1.935.816.844.352-1.233-.524 1.185.514 1.426.618q.88.381 1.759.765 2.05.897 4.09 1.816a684 684 0 0 1 15.604 7.277c5.675 2.723 11.348 5.846 17.392 7.672 6.347 1.917 13.444 2.006 19.708-.284 3.06-1.119 6.012-2.517 8.94-3.938a154 154 0 0 1 3.787-1.791q.82-.37 1.646-.732c-1.216.535-.498.203.306-.113 10.02-3.934 20.393-6.568 31.028-8.185 2.417-.368-1.034.092 1.399-.182 1.191-.134 2.381-.268 3.574-.384 2.791-.271 5.589-.473 8.39-.616a212 212 0 0 1 16.325-.176c5.477.144 10.949.478 16.406.963q3.95.352 7.89.805a340 340 0 0 1 5.447.668c-1.814-.236.12.019.921.133 22.123 3.144 44.07 7.866 65.676 13.538s43.042 12.469 63.974 20.415a644 644 0 0 1 15.916 6.289 507 507 0 0 1 13.999 5.998 642 642 0 0 1 30.329 14.438 662 662 0 0 1 15.149 7.962c4.545 2.462 11.076 2.167 14.728-1.9 11.381-12.676 20.979-26.827 28.056-42.337 4.058-8.894-.876-17.38-10.551-18.386a19341 19341 0 0 0-56.87-5.803l11.752 15.427c10.735-29.463 21.359-58.956 31.802-88.524 1.353-3.83-.217-8.53-2.987-11.3-3.152-3.152-7.097-3.703-11.3-2.987-37.294 6.352-74.746 11.889-112.108 17.824l14.643 11.154c-1.687-45.584-3.677-91.156-5.37-136.739-.3-8.078-9.452-14.546-16.889-9.691a958.6 958.6 0 0 0-129.943 101.785l17.531 2.259c-12.174-24.294-24.362-48.582-36.521-72.883-11.886-23.755-23.27-47.853-35.811-71.271-6.357-11.869-13.895-23.44-23.99-32.482-5.323-4.767-13.714-4.197-17.523 2.258-27.596 46.763-53.156 94.72-76.539 143.726a1872 1872 0 0 0-19.432 42.079l17.588-2.266c-19.315-18.566-38.555-37.214-57.957-55.688-17.689-16.843-36.379-33.404-58.521-44.151-5.754-2.793-15.388-1.03-16.527 6.724-8.218 55.939-16.302 111.895-24.332 167.861l13.763-7.814c-32.266-10.049-64.734-19.482-97.496-27.782-8.54-2.163-14.73 5.29-13.319 13.319 5.224 29.721 10.298 59.463 16.079 89.079.98 5.019 6.982 7.89 11.64 6.609 5.47-1.503 7.298-6.555 6.609-11.64Zm5.789 337.792 62.601 41.776a406.3 406.3 0 0 0-40.523 80.13 548 548 0 0 1 93.781-8.507l1.339 95.074a517.7 517.7 0 0 1 90.816-44.782 910 910 0 0 0 47.702 94.717l69.519-70.631 66.388 71.407 63.964-79.186c1.778-2.201 3.957-4.602 6.785-4.578 2.125.018 3.952 1.429 5.599 2.773l74.55 60.806a352 352 0 0 0 31.486-103.533c.636-4.497 1.599-9.652 5.55-11.892 3.585-2.032 8.061-.732 11.958.611l63.231 21.781a309.7 309.7 0 0 0-6.719-90.829 471 471 0 0 0 63.07 7.216 398.7 398.7 0 0 0-31.839-68.675c-76.09 63.716-154.057 128.554-246.772 163.956-13.013 4.969-27.493 9.341-40.612 4.661s-21.891-22.543-12.839-33.129c-16.802 14.717-34.989 30.085-57.132 33.01s-48.132-13.039-46.751-35.332c-14.901 5.229-31.282 1.317-46.574-2.627-9.38-2.419-19.125-5.024-26.453-11.36s-11.38-17.591-6.537-25.981c-17.544 8.093-40.287 2.711-52.343-12.386s-12.275-38.467-.502-53.787c-35.507-20.915-86.1-31.765-124.711-17.366"/><path d="M183.601 704.846c20.464 14.58 40.961 29.132 61.69 43.335l-4.109-15.67c-17.261 25.798-31.051 53.756-42.007 82.775-1.448 3.836.269 8.712 3.033 11.476 3.191 3.191 7.216 3.779 11.476 3.033 15.383-2.692 28.565-4.442 44.262-5.814a563 563 0 0 1 46.383-2.113l-11.955-11.955 1.242 95.074c.117 8.923 10.221 15.301 18.135 10.407 14.192-8.777 28.781-16.897 43.746-24.281 15.433-7.615 28.571-13.259 44.217-19.191l-13.722-5.584a922 922 0 0 0 47.795 94.663c3.862 6.666 13.487 7.962 18.913 2.437l69.448-70.702h-16.887c22.153 23.779 44.306 47.558 66.45 71.344 4.032 4.331 12.832 4.872 16.762 0l51.043-63.278c4.289-5.317 8.504-10.705 12.871-15.958.464-.557.941-1.095 1.413-1.646.613-.716.892-.408.42-.501-.487-.096-2.712.972-3.379 1.027l-2.973-.718.908.572c-.022-.079-1.577-1.312-.129-.083.719.61 1.461 1.194 2.191 1.79l4.381 3.581 31.216 25.514a22796 22796 0 0 0 36.173 29.515c3.034 2.47 5.985 3.795 9.959 3.261 3.415-.459 7.091-2.384 8.661-5.66 11.384-23.75 20.432-48.61 26.513-74.245a352 352 0 0 0 3.88-18.578c1.048-5.797 1.544-11.768 2.864-17.505.136-.589.903-4.472.464-1.805.085-.516 1.113-1.092.177-.325-.424.348-.668.868-1.174 1.186-.676.424-1.056.314-1.732.553.529-.188 2.098.445.231-.043a67 67 0 0 1 4.409 1.293c6.382 2.147 12.732 4.397 19.097 6.595l44.12 15.236c7.746 2.675 14.419-4.247 14.938-11.379 2.287-31.47-.229-63.19-7.073-93.984l-14.602 14.602c21.825 3.986 44.072 6.436 66.226 7.567 7.313.373 13.848-7.891 11.376-14.934-8.708-24.811-19.692-48.829-32.885-71.577-4.143-7.144-12.975-7.269-18.789-2.421-19.204 16.014-38.424 32.014-57.973 47.607a1986 1986 0 0 1-18.199 14.322c-.358.278-3.324 2.574-1.992 1.546q-3.961 3.055-7.948 6.076c-9.948 7.542-20.015 14.928-30.233 22.101-20.164 14.154-40.928 27.483-62.459 39.468-10.825 6.025-21.841 11.709-33.053 16.981a496 496 0 0 1-8.452 3.879 625 625 0 0 1-7.661 3.352c-1.286.546-4.89 2.024-7.177 2.938-3.104 1.24-6.219 2.461-9.359 3.609-3.425 1.251-6.888 2.41-10.414 3.346a76 76 0 0 1-4.991 1.157c-.83.161-1.667.319-2.503.437 1.321-.186.067-.024-.544.016-1.872.124-3.728.203-5.605.123a44 44 0 0 1-1.855-.117c1.916.159-.692-.134-1.079-.216a34 34 0 0 1-2.42-.61c-.693-.203-3.287-1.334-.565-.027-1.083-.52-2.082-1.153-3.134-1.726-.578-.315-1.611-1.399.262.287-.449-.404-.92-.781-1.361-1.194s-.868-.844-1.279-1.286c-.254-.272-1.802-2.291-.797-.866.894 1.267.011-.026-.117-.243-.382-.647-.799-1.264-1.161-1.923-.285-.52-.51-1.08-.807-1.59-.736-1.262.717 2.568.086.017-.203-.82-1.101-2.573-.803-3.348.007-.019.038 3.093.199.688.009-.14-.049-1.653.032-1.665.398-.059-.671 2.664-.089.757.191-.626.078-2.482.128-.92.031.975-.407.684.063-.081.335-.546 1.93-2.72.047-.399 3.975-4.903 5.152-12.365 0-17.094-5.096-4.678-11.994-4.448-17.094 0-4.477 3.905-8.972 7.793-13.621 11.493q-.933.744-1.875 1.476 1.318-1.029-.387.271c-1.281.931-2.55 1.877-3.847 2.785a122 122 0 0 1-6.912 4.512 93 93 0 0 1-8.209 4.431q-1.047.497-2.109.963 1.7-.71-.299.094c-1.088.389-2.165.804-3.263 1.164-2.955.97-5.947 1.635-8.991 2.249q-2.317.361.015.021a40 40 0 0 1-5.072.22c-1.088-.018-2.166-.121-3.252-.173q-2.092-.228.467.097a46 46 0 0 1-1.846-.32 48 48 0 0 1-6.787-1.844c-.665-.234-3.782-1.693-.985-.33-1.117-.544-2.238-1.065-3.328-1.665a45 45 0 0 1-4.664-2.952q1.72 1.375.679.535c-1.617-1.554-3.263-3.036-4.837-4.641q-1.286-1.553.264.433a31.4 31.4 0 0 1-2.564-4.03 24 24 0 0 1-.589-1.154q-.842-1.844.226.559c-.532-.342-.862-2.698-1.005-3.305a27 27 0 0 1-.346-1.707q.328 2.742.129.651c-.006-1.208-.065-2.395-.008-3.606.365-7.741-8.204-14.332-15.596-11.881a55 55 0 0 1-6.119 1.631c-3.706.773 2.07-.026-1.705.233-.838.057-1.676.118-2.516.148a64 64 0 0 1-6.975-.15 90 90 0 0 1-3.188-.298c1.732.189-.54-.078-1.177-.182-8.459-1.373-16.864-3.558-25.086-5.959a95 95 0 0 1-5.574-1.795c-.265-.095-3.11-1.226-1.758-.648s-1.414-.687-1.665-.815c-1.725-.873-3.311-1.91-4.941-2.939 1.748 1.104-.182-.158-.574-.515-.625-.568-1.194-1.182-1.785-1.784-2.121-2.157 1.034 1.91-.526-.695-.35-.585-.722-1.153-1.049-1.752-.492-.9-.874-3.05-.392-.707-.166-.808-.51-1.595-.699-2.404-.275-1.178.193-2.339-.068-.076.089-.766.025-1.663.01-2.432-.029-1.567-.426 2.381.111.006.562-2.483-1.082 1.867.245-.611 2.551-4.764 2.221-11.392-1.966-15.236-4.446-4.081-9.894-4.345-15.236-1.966 2.831-1.261-.539.163-1.168.37a41 41 0 0 1-3.344.949c-.966.23-1.956.358-2.92.586 3-.707.122-.039-.602.013-2.342.17-4.622.031-6.961-.045-2.698-.087 2.275.499-.611-.051-.982-.187-1.959-.367-2.932-.597-2.119-.5-4.129-1.224-6.184-1.93q-1.287-.507.71.304a46 46 0 0 1-4.409-2.301c-.855-.509-1.662-1.09-2.508-1.61-2.084-1.282 1.431 1.317-.985-.763-1.643-1.415-3.12-2.959-4.546-4.588-2.08-2.376 1.208 2.039-.498-.719-.542-.876-1.12-1.727-1.631-2.623-.596-1.046-1.086-2.138-1.642-3.202q-.57-1.252.263.644a43 43 0 0 1-.701-1.935c-.658-1.966-1.063-3.972-1.558-5.979-.618-2.503.111 2.095-.178-1.251a46.4 46.4 0 0 1-.1-6.709c.029-.488.448-3.917-.031-.757.361-2.38.886-4.729 1.613-7.025.311-.982.68-1.941 1.034-2.908-1.009 2.759.206-.3.428-.732 1.102-2.147 2.411-4.158 3.855-6.089 4.089-5.466.838-14.122-4.526-17.26-19.816-11.592-42.076-19.73-64.765-23.311-23.154-3.653-47.427-3.525-69.679 4.626-6.203 2.272-11.071 8.697-8.845 15.578 1.97 6.089 8.918 11.284 15.578 8.845a103 103 0 0 1 18.736-4.943c.989-.165 3.254-.478.974-.185 2.559-.329 5.13-.569 7.705-.734a138 138 0 0 1 15.717-.081q3.978.203 7.94.612c.505.052 5.253.64 2.317.237 1.326.182 2.649.387 3.97.603 10.569 1.734 20.972 4.466 31.056 8.068a181 181 0 0 1 8.966 3.471q-1.94-.814.074.053c1.181.541 2.371 1.061 3.548 1.61a172 172 0 0 1 13.973 7.336l-4.526-17.26c-15.353 20.554-13.075 50.589 3.124 69.831 16.226 19.273 44.677 23.509 66.961 13.565l-17.201-17.201c-5.52 10.328-4.625 22.492 1.376 32.447s16.07 15.86 26.799 19.657c9.631 3.409 19.99 5.855 30.064 7.497 11.84 1.929 23.914 2.466 35.455-1.407l-15.596-11.881c-.925 21.185 15.234 37.273 33.839 44.345 20.407 7.757 42.591 1.455 60.442-9.663 10.948-6.818 20.803-15.323 30.47-23.813l-17.094-17.094c-4.415 5.484-7.11 11.414-7.227 18.568-.102 6.241 1.913 12.691 5.078 18.023 7.268 12.242 19.909 18.508 33.895 19.112 14.44.624 28.434-4.92 41.573-10.219 12.859-5.186 25.529-10.841 37.942-17.017 48.499-24.133 93.033-55.526 135.487-88.987 23.892-18.831 47.199-38.387 70.48-57.962l-18.789-2.421c6.274 10.717 12.078 21.701 17.343 32.949 2.498 5.338 4.901 10.784 6.676 15.12a421 421 0 0 1 6.773 17.704l11.376-14.934c-20.992-.943-39.582-3.183-59.914-6.865-9.01-1.632-16.69 5.278-14.602 14.602 6.405 28.611 8.508 57.551 6.365 87.673l14.938-11.379-41.504-14.261c-6.808-2.339-13.612-4.686-20.423-7.017-7.511-2.571-16.068-4.113-23.125.653-6.129 4.139-9.001 10.806-10.077 17.897-1.007 6.636-2.067 13.252-3.387 19.834a353 353 0 0 1-10.448 39.863c-4.915 15.095-9.974 27.638-16.634 41.461l18.62-2.399c-22.823-18.654-45.697-37.244-68.557-55.852-6.123-4.984-12.423-11.697-21.007-11.033-8.986.695-13.789 7.567-18.976 13.98L603.277 908.3l-31.562 39.019h16.762c-22.114-23.818-44.22-47.644-66.325-71.47-4.366-4.706-12.483-4.465-16.887 0l-69.591 70.559 18.913 2.437a922 922 0 0 1-47.608-94.772c-1.947-4.506-9.175-7.297-13.722-5.584-32.628 12.294-64.051 27.692-93.669 46.092l18.135 10.407-1.436-95.074c-.097-6.429-5.398-11.999-11.955-11.955-32.505.218-64.924 3.356-96.916 9.088l14.51 14.51a430 430 0 0 1 3.998-10.335 251 251 0 0 1 3.615-8.61 407 407 0 0 1 9.453-20.053c6.661-13.186 14.062-26.012 21.972-38.486 3.427-5.403.932-12.395-4.109-15.67-21.01-13.652-42.254-26.956-63.512-40.218-4.422-2.759-10.625-.943-13.201 3.461-2.833 4.844-.795 10.169 3.461 13.201Z"/></svg>