<?xml version="1.0" encoding="UTF-8"?><svg xmlns="http://www.w3.org/2000/svg" data-name="ARTWORK" viewBox="0 0 1000 1000"><path d="M325.77 121.497c-17.477 2.637-34.742 6.608-51.585 11.974a327 327 0 0 0-23.952 8.674 497 497 0 0 0-10.75 4.54q-.726.318-1.45.639c-.358.159-2.444 1.175-.79.367 2.394-1.169-3.193 1.412-3.898 1.75-.831.398-1.666.788-2.497 1.185a338 338 0 0 0-6.02 2.949c-15.16 7.616-29.736 16.385-43.596 26.167a360 360 0 0 0-4.746 3.409c-.837.612-1.686 1.211-2.519 1.828-1.077.799-2.091 1.691-3.188 2.461 1.988-1.397.995-.773-.569.435-3.722 2.876-7.414 5.788-11.037 8.789a366 366 0 0 0-18.657 16.563c-25.051 23.804-46.972 51.128-65.042 80.572-18.18 29.624-32.714 61.609-43.425 94.667-10.74 33.149-17.387 67.624-19.878 102.379a395.8 395.8 0 0 0 5.956 102.138c6.393 33.616 17.761 66.351 33.703 96.64 16.228 30.834 37.651 59.162 62.833 83.24 35.992 34.415 79.508 60.698 125.925 78.447 40.389 15.444 83.494 23.831 126.579 26.658 42.285 2.775 84.943-.373 126.494-8.605 41.166-8.156 81.247-21.818 118.856-40.444s72.413-42.578 102.768-71.351 56.02-62.516 74.965-99.673c18.447-36.178 29.917-74.894 35.158-115.106 5.081-38.985 3.635-78.466-2.702-117.215-6.436-39.356-18.633-77.601-35.56-113.689-16.618-35.43-38.359-68.564-64.503-97.703-25.956-28.929-56.865-53.911-91.151-72.302-42.527-22.812-89.435-34.737-137.538-37.429-29.396-1.645-58.618.773-87.73 4.764-6.799.932-11.103 9.978-9.129 16.078 2.418 7.471 8.791 10.128 16.078 9.129-1.957.268.323-.025.602-.056.908-.103 1.814-.223 2.721-.331q2.723-.324 5.45-.616 5.459-.588 10.929-1.049a454 454 0 0 1 21.938-1.323c14.635-.522 29.325-.325 43.936.674 7.078.484 14.126 1.215 21.167 2.078 2.302.282-1.796-.28.497.069.904.138 1.811.259 2.716.395q2.376.355 4.746.744a326 326 0 0 1 11.48 2.098c11.071 2.231 22.022 5.052 32.773 8.514a294 294 0 0 1 20.163 7.318c.961.389 1.915.8 2.878 1.184 1.687.672-2.419-1.054-.76-.319.676.3 1.359.584 2.037.88a299 299 0 0 1 25.338 12.532 308 308 0 0 1 23.583 14.507 318 318 0 0 1 11.448 8.142c.939.699 1.871 1.407 2.805 2.113 2.427 1.836-1.449-1.155.41.314a428 428 0 0 1 5.829 4.664c14.425 11.814 27.838 24.852 40.159 38.844a364 364 0 0 1 13.298 15.999c.365.465.726.934 1.092 1.398 1.111 1.411-1.536-2.052-.471-.606.789 1.072 1.614 2.119 2.412 3.185a384 384 0 0 1 15.965 23.038c10.22 15.954 19.248 32.677 27.104 49.916q1.49 3.27 2.923 6.565c.418.961.819 1.931 1.244 2.889.739 1.669-1-2.423-.309-.734.284.693.577 1.383.862 2.075q2.74 6.652 5.252 13.394a422 422 0 0 1 9.123 27.309 420 420 0 0 1 12.478 55.675c.316 2.058.244 4.72.966 6.66-.093-.249-.436-3.369-.13-.949l.227 1.778q.224 1.778.431 3.558a405 405 0 0 1 1.411 14.252c.771 9.489 1.206 19.006 1.293 28.526s-.171 18.959-.787 28.417a370 370 0 0 1-1.878 20.265c-.141 1.169-.292 2.337-.44 3.505-.306 2.404.068-.771.138-1.023-.191.692-.207 1.475-.308 2.184-2.648 18.41-6.7 36.616-12.287 54.359-2.807 8.915-6.044 17.666-9.565 26.321-.386.949-1.189 1.632.368-.856-.282.45-.486 1.142-.688 1.61a318 318 0 0 1-4.487 9.939 347 347 0 0 1-22.209 40.008 353 353 0 0 1-14.995 21.46c-.818 1.082-2.469 3.461-.739.989-5.734 8.191-12.793 15.763-19.553 23.108a374 374 0 0 1-21.329 21.369 388 388 0 0 1-22.579 19.316c-.358.284-3.575 2.835-1.957 1.545s-1.191.909-1.608 1.226a405 405 0 0 1-18.834 13.466c-16.661 11.211-34.138 21.2-52.208 29.956a445 445 0 0 1-17.314 7.936c-.486.21-3.805 1.651-1.868.808s-1.893.785-2.322.962a460 460 0 0 1-32.265 11.887 474 474 0 0 1-58.885 15.112 477 477 0 0 1-22.706 3.738c-.475.066-.95.127-1.425.197-1.915.282 2.724-.343.802-.109-1.427.174-2.853.367-4.28.541a477 477 0 0 1-30.532 2.724 467 467 0 0 1-60.61-.471 454 454 0 0 1-22.246-2.182c-1.209-.149-2.595-.151-3.769-.481-.027-.008 2.887.404 1.307.175-.783-.113-1.567-.217-2.35-.329a436 436 0 0 1-29.831-5.315c-21.526-4.617-42.737-10.857-63.206-18.979a373 373 0 0 1-4.74-1.919q-.887-.365-1.771-.736c2.196.923.163.063-.237-.111a444 444 0 0 1-9.914-4.45 373 373 0 0 1-67.897-40.985c-.441-.336-.881-.728-1.343-1.028.213.138 2.608 2.04.793.607-.77-.608-1.544-1.212-2.311-1.824a325 325 0 0 1-5.517-4.491 321 321 0 0 1-19.551-17.672 314 314 0 0 1-17.387-18.505 312 312 0 0 1-8.135-9.791c-.576-.722-1.144-1.451-1.718-2.175-1.403-1.771.589.763.705.922-.309-.424-.642-.836-.961-1.254a310 310 0 0 1-3.771-5.053 314 314 0 0 1-26.067-42.406 320 320 0 0 1-8.85-18.827c-1.461-3.387.909 2.23-.255-.591-3.125-7.573-6.004-15.241-8.579-23.02-5.106-15.423-9.088-31.213-11.98-47.198a361 361 0 0 1-1.983-12.14c-.148-1.014-.264-2.036-.432-3.047-.035-.213.431 3.316.238 1.773-.064-.509-.133-1.018-.198-1.527a378 378 0 0 1-2.641-30.727c-.737-16.394-.425-32.833.879-49.191a409 409 0 0 1 1.91-18.59c.074-.586.516-3.853.154-1.25-.354 2.549.191-1.359.286-2.021a433 433 0 0 1 4.242-24.636 428 428 0 0 1 12.696-48.082 430 430 0 0 1 10.695-29.091q.522-1.271 1.049-2.539c1.114-2.698-1.115 2.596.302-.709a429 429 0 0 1 5.118-11.474 421 421 0 0 1 23.57-43.853c4.384-7.107 8.995-14.075 13.769-20.926a402 402 0 0 1 7.075-9.834 505 505 0 0 1 3.765-4.987c1.402-1.839-1.749 2.23.066-.078.725-.922 1.448-1.845 2.179-2.763 10.369-13.027 21.566-25.398 33.545-36.963a365 365 0 0 1 22.711-20.176q1.207-.986 2.424-1.959c.481-.386 3.29-2.697 1.774-1.422-2.183 1.835 1.945-1.503 1.902-1.469.405-.322.8-.659 1.205-.982s.818-.639 1.227-.959c1.676-1.313-.496.427-.7.54 1.761-.974 3.37-2.563 4.994-3.765 13.442-9.946 27.599-18.929 42.355-26.797a348 348 0 0 1 22.329-10.928q1.449-.644 2.903-1.274c1.097-.475 2.642-1.12.619-.277a327 327 0 0 1 18.309-7.059c15.781-5.548 31.971-9.846 48.411-12.927 5.231-.98 8.204-7.295 6.879-12.116-1.548-5.632-6.836-7.676-12.116-6.879Z"/><path d="M302.87 361.089c-34.187 16.842-40.894 117.8-5.584 138.209 7.69 4.445 17.274 2.823 23.18-5.528 5.423-7.67 12.896-47.685 3.895-55.235-.696-.583-1.526-.709-2.328-.823l-19.662-2.776c13.79-8.633 19.53-32.999 18.722-54.553-.335-8.936-2.684-19.642-8.793-21.451-4.525-1.34-8.904 3.108-11.938 8.107"/><path d="M298.465 353.552c-4.45 1.967-8.469 5.155-11.822 8.648-3.783 3.942-6.979 8.574-9.607 13.359-1.846 3.361-3.36 6.861-4.845 10.393l1.019-2.415c-3.493 7.33-5.553 15.587-7.118 23.52-1.663 8.435-2.817 17.108-3.058 25.71-.242 8.602.361 17.117 1.528 25.636.967 7.063 2.496 14.078 4.973 20.774 2.807 7.589 6.388 14.423 11.576 20.648 5.891 7.069 14.506 12.031 23.751 12.574 7.29.429 14.082-2.655 19.542-7.252 3.916-3.297 6.151-7.378 8.014-11.993 2.644-6.55 4.043-13.685 5.063-20.647 1.366-9.319 2.101-18.472.705-27.827-.515-3.452-1.472-7.094-3.357-10.062-2.139-3.369-5.217-6.261-9.264-7.1-3.284-.681-6.715-.94-10.038-1.399l-10.331-1.426 2.537 19.41c13.305-8.507 19.621-24.52 22.122-39.509 1.382-8.284 2.094-16.728 1.628-25.125-.499-9.004-2.225-18.458-8.277-25.48-4.173-4.842-11.507-6.995-17.578-4.917-3.325 1.138-6.381 3.044-8.798 5.612-1.283 1.363-2.646 2.888-3.502 4.538s-1.521 3.52-2.102 5.297c-1.248 3.817.794 8.82 4.355 10.701 3.74 1.976 8.41 1.58 11.483-1.482.99-.986 2.12-1.839 3.049-2.877a25 25 0 0 1 2.872-2.777l-2.107 1.628c.769-.591 1.567-1.095 2.455-1.488l-2.487 1.049a8.2 8.2 0 0 1 1.923-.51l-2.767.372a8 8 0 0 1 1.309.003l-2.767-.372a7.2 7.2 0 0 1 1.715.466l-2.487-1.049a8 8 0 0 1 1.55.931l-2.107-1.628c.647.525 1.206 1.12 1.717 1.778l-1.628-2.107c.802 1.087 1.43 2.266 1.966 3.503l-1.049-2.487c1.199 2.887 1.881 5.952 2.314 9.04l-.372-2.769c1.049 7.877.658 16.038-.397 23.894l.375-2.788c-.942 6.813-2.537 13.561-5.191 19.92l1.064-2.521c-1.524 3.59-3.387 7.028-5.77 10.124l1.656-2.143c-1.504 1.917-3.191 3.664-5.115 5.163l2.148-1.659q-.93.708-1.919 1.332c-3.643 2.297-5.648 6.281-5.07 10.581.257 1.91.911 3.497 2.09 5.023 1.271 1.645 3.37 3.496 5.516 3.806l11.05 1.595 5.402.78c1.601.231 3.385.27 4.893.89l-2.553-1.077q.337.16.624.4l-2.163-1.671c.415.359.796.734 1.14 1.163l-1.664-2.154c.587.762 1.044 1.601 1.427 2.482l-1.063-2.52c.734 1.74 1.139 3.544 1.397 5.41l-.374-2.781c.872 6.617.327 13.419-.554 20.006l.375-2.794c-1.046 7.676-2.529 15.616-5.521 22.801l1.065-2.525c-.587 1.388-1.261 2.681-2.168 3.887l1.654-2.141a21.4 21.4 0 0 1-3.65 3.694l2.144-1.656a18 18 0 0 1-3.853 2.232l2.54-1.072a17.8 17.8 0 0 1-4.117 1.106l2.842-.382a17.7 17.7 0 0 1-4.536-.028l2.857.384a18.6 18.6 0 0 1-4.445-1.266l2.582 1.09c-1.784-.792-3.427-1.843-4.973-3.03l2.203 1.702c-2.462-1.915-4.61-4.199-6.52-6.658l1.714 2.219c-2.766-3.598-4.941-7.603-6.712-11.773l1.102 2.612c-3.217-7.649-5.105-15.804-6.221-24.008l.389 2.892c-1.416-10.581-1.522-21.344-.742-31.983a153 153 0 0 1 .943-9.096l-.377 2.803c1.45-10.684 4.037-21.294 8.225-31.249l-.997 2.363c1.903-4.487 4.194-8.825 7.096-12.75l-1.467 1.899c.745-.95 1.465-1.918 2.198-2.876l-1.459 1.888c1.85-2.394 3.934-4.6 6.325-6.46l-1.805 1.394a28 28 0 0 1 3.473-2.289c3.996-2.218 5.647-8.041 3.132-11.943-1.202-1.864-2.991-3.505-5.217-4.012l-2.321-.312a8.7 8.7 0 0 0-4.406 1.192Zm241.16-29.099c-34.187 16.842-40.894 117.8-5.584 138.209 7.69 4.445 17.274 2.823 23.18-5.528 5.423-7.67 12.896-47.685 3.895-55.235-.696-.583-1.526-.709-2.328-.823l-19.662-2.776c13.79-8.633 19.53-32.999 18.722-54.553-.335-8.936-2.684-19.642-8.793-21.451-4.525-1.34-8.904 3.108-11.938 8.107"/><path d="M535.219 316.916c-4.45 1.967-8.469 5.155-11.822 8.648-3.783 3.942-6.979 8.574-9.607 13.359-1.846 3.361-3.36 6.861-4.845 10.393l1.019-2.415c-3.493 7.33-5.553 15.587-7.118 23.52-1.663 8.435-2.817 17.108-3.058 25.71s.361 17.117 1.528 25.636c.967 7.063 2.496 14.078 4.973 20.774 2.807 7.589 6.388 14.423 11.576 20.648 5.891 7.069 14.506 12.031 23.751 12.574 7.29.429 14.082-2.655 19.542-7.252 3.916-3.297 6.151-7.378 8.014-11.993 2.644-6.55 4.043-13.685 5.063-20.647 1.366-9.319 2.101-18.472.705-27.827-.515-3.452-1.472-7.094-3.357-10.062-2.139-3.369-5.217-6.261-9.264-7.1-3.284-.681-6.715-.94-10.038-1.399l-10.331-1.426 2.537 19.41c13.305-8.507 19.621-24.52 22.122-39.509 1.382-8.284 2.094-16.728 1.628-25.125-.499-9.004-2.225-18.458-8.277-25.48-4.173-4.842-11.507-6.995-17.578-4.917-3.325 1.138-6.381 3.044-8.798 5.612-1.283 1.363-2.646 2.888-3.502 4.538s-1.521 3.52-2.102 5.297c-1.248 3.817.794 8.82 4.355 10.701 3.74 1.976 8.41 1.58 11.483-1.482.99-.986 2.12-1.839 3.049-2.877a25 25 0 0 1 2.872-2.777l-2.107 1.628c.769-.591 1.567-1.095 2.455-1.488l-2.487 1.049a8.2 8.2 0 0 1 1.923-.51l-2.767.372a8 8 0 0 1 1.309.003l-2.767-.372a7.2 7.2 0 0 1 1.715.466l-2.487-1.049a8 8 0 0 1 1.55.931l-2.107-1.628c.647.525 1.206 1.12 1.717 1.778l-1.628-2.107c.802 1.087 1.43 2.266 1.966 3.503l-1.049-2.487c1.199 2.887 1.881 5.952 2.314 9.04l-.372-2.769c1.049 7.877.658 16.038-.397 23.894l.375-2.788c-.942 6.813-2.537 13.561-5.191 19.92l1.064-2.521c-1.524 3.59-3.387 7.028-5.77 10.124l1.656-2.143c-1.504 1.917-3.191 3.664-5.115 5.163l2.148-1.659q-.93.708-1.919 1.332c-3.643 2.297-5.648 6.281-5.07 10.581.257 1.91.911 3.497 2.09 5.023 1.271 1.645 3.37 3.496 5.516 3.806l11.05 1.595 5.402.78c1.601.231 3.385.27 4.893.89l-2.553-1.077q.338.16.624.4l-2.163-1.671c.415.359.796.734 1.14 1.163l-1.664-2.154c.587.762 1.044 1.601 1.427 2.482l-1.063-2.52c.734 1.74 1.139 3.544 1.397 5.41l-.374-2.781c.872 6.617.327 13.419-.554 20.006l.375-2.794c-1.046 7.676-2.529 15.616-5.521 22.801l1.065-2.525c-.587 1.388-1.261 2.681-2.168 3.887l1.654-2.141a21.4 21.4 0 0 1-3.65 3.694l2.144-1.656a18 18 0 0 1-3.853 2.232l2.54-1.072a17.8 17.8 0 0 1-4.117 1.106l2.842-.382a17.7 17.7 0 0 1-4.536-.028l2.857.384a18.6 18.6 0 0 1-4.445-1.266l2.582 1.09c-1.784-.792-3.427-1.843-4.973-3.03l2.203 1.702c-2.462-1.915-4.61-4.199-6.52-6.658l1.714 2.219c-2.766-3.598-4.941-7.603-6.712-11.773l1.102 2.612c-3.217-7.649-5.105-15.804-6.221-24.008l.389 2.892c-1.416-10.581-1.522-21.344-.742-31.983a153 153 0 0 1 .943-9.096l-.377 2.803c1.45-10.684 4.037-21.294 8.225-31.249l-.997 2.363c1.903-4.487 4.194-8.825 7.096-12.75l-1.467 1.899c.745-.95 1.465-1.918 2.198-2.876l-1.459 1.888c1.85-2.394 3.934-4.6 6.325-6.46l-1.805 1.394a28 28 0 0 1 3.473-2.289c3.996-2.218 5.647-8.041 3.132-11.943-1.202-1.864-2.991-3.505-5.217-4.012l-2.321-.312a8.7 8.7 0 0 0-4.406 1.192ZM298.763 627.528c22.137 11.253 44.942 21.176 68.948 27.704 23.971 6.518 49.187 9.499 73.96 6.72 10.601-1.189 21.042-3.139 31.241-6.275 9.251-2.844 18.244-6.51 26.977-10.675a201 201 0 0 0 24.416-13.792c8.407-5.565 16.532-11.902 23.678-19.028 6.912-6.894 13.429-14.11 19.031-22.128a98.5 98.5 0 0 0 6.733-11.13c2.268-4.381 4.461-9.027 5.826-13.776.47-1.633 1.043-3.586 1.01-5.248-.019-.978-.136-1.966-.231-2.939-.195-2.004-.624-3.686-1.884-5.317-1.12-1.45-2.721-2.726-4.559-3.145-4.008-.913-7.61.694-9.911 4.033q-.511.744-1.04 1.476c-.818 1.13-1.276 2.223-1.798 3.599l.993-2.353c-1.287 2.98-2.373 6.034-3.632 9.024l1.015-2.405c-3.073 7.215-7.193 13.906-11.974 20.111l1.61-2.084c-3.32 4.28-6.937 8.321-10.786 12.131-3.963 3.923-8.393 7.388-12.796 10.801l2.232-1.724c-10.834 8.357-22.599 15.631-34.876 21.663a207 207 0 0 1-10.492 4.792l2.774-1.171c-14.198 5.987-28.893 10.497-44.188 12.573l3.071-.413c-16.016 2.124-32.236 1.799-48.232-.338l3.031.407c-2.625-.357-5.241-.768-7.87-1.101l3.024.406c-23.869-3.349-47.097-10.486-69.656-18.824a534 534 0 0 1-18.955-7.445c-1.856-.768-5.057-.178-6.69.875-1.612 1.04-2.803 2.377-3.552 4.152-1.589 3.764-.316 8.875 3.552 10.842Z"/><path d="M281.986 636.161c13.803-3.313 25.998-12.778 33.144-24.98 2.13-3.636 3.756-7.538 4.637-11.663.511-2.394.344-4.857-.918-7.014-1.105-1.888-3.27-3.689-5.44-4.183-5.066-1.154-9.532 1.533-11.197 6.358a46 46 0 0 1-1.041 2.734l.936-2.217a575 575 0 0 0-2.213 5.241l.943-2.234a45.2 45.2 0 0 1-5.672 9.716l1.429-1.849a46 46 0 0 1-8.236 8.208l1.811-1.399a45 45 0 0 1-9.724 5.654l2.095-.884a44 44 0 0 1-5.169 1.768c-4.379 1.198-7.507 6.223-6.064 10.68 1.488 4.599 5.945 7.2 10.68 6.064Zm271.206-91.477 16.468 9.638c5.489 3.213 10.883 6.644 16.585 9.438 2.117 1.037 4.354 1.519 6.69.875 2.014-.555 4.196-2.112 5.189-3.99 2.233-4.225 1.03-9.353-3.115-11.879-5.427-3.307-11.237-6.015-16.892-8.912l-17.009-8.712c-3.648-1.868-8.677-1.072-10.73 2.813-1.987 3.761-.969 8.516 2.813 10.73ZM254.985 848.889c81.766 33.002 241.744 37.786 329.677 31.256 108.303-8.043 218.29-16.443 320.085-54.284 19.762-7.346 39.749-16.209 53.994-31.751 14.246-15.542 21.377-39.358 12.051-58.267-9.547-19.357-32.291-27.772-53.199-33.126a526.6 526.6 0 0 0-116.572-16.255c-3.529-.093-7.186-.128-10.427 1.273-4.083 1.764-6.89 5.52-9.558 9.078-62.911 83.92-156.012 144.701-258.152 168.534"/><path d="M252.789 856.856c32.435 13.023 66.394 20.858 100.882 26.049 40.158 6.044 80.725 9.101 121.299 10.423 35.494 1.157 71.15.792 106.586-1.644 49.758-3.42 99.577-7.253 149.04-13.754 50.326-6.614 100.387-15.904 148.854-31.214 22.679-7.164 46.511-14.753 66.746-27.531 19.12-12.074 35.595-30.541 39.573-53.462 2.132-12.281 1.003-24.168-4.257-35.529-4.541-9.805-12.64-17.792-21.534-23.724-18.684-12.461-42.427-17.17-64.051-21.653a550.6 550.6 0 0 0-79.655-10.53c-13.879-.809-28.844-2.834-39.651 7.863-2.23 2.208-4.079 4.815-5.967 7.308-.794 1.048-1.576 2.105-2.37 3.154l-1.027 1.351c-2.191 2.883.876-1.098-.419.548-3.266 4.152-6.562 8.275-9.955 12.324a448 448 0 0 1-44.844 46.262 455 455 0 0 1-22.55 18.879c-.177.139-1.999 1.562-.955.751 1.171-.91-.702.538-.965.739a438 438 0 0 1-4.518 3.409 460 460 0 0 1-19.891 14.013 459 459 0 0 1-55.515 31.608 453 453 0 0 1-14.911 6.833q-1.556.677-3.115 1.346c-2.235.96-.619.263-.151.068q-.783.327-1.567.652a466 466 0 0 1-38.267 13.925c-9.89 3.111-19.894 5.909-29.988 8.278-6.209 1.457-10.482 8.892-8.509 14.987 2.097 6.479 8.334 10.071 14.987 8.509 41.302-9.694 81.117-24.948 118.275-45.452 37.051-20.445 71.461-46.059 101.688-75.676 15.479-15.166 29.705-31.472 42.917-48.641a523 523 0 0 0 2.404-3.149c.47-.621 2.12-2.605.728-.981.852-.994 1.667-2.008 2.602-2.927.392-.386.79-.778 1.217-1.127-1.81 1.476.886-.22-.372.341-1.419.633 2.86-.383 1.242-.258s.87.043 1.237.037a62 62 0 0 1 1.778.006c3.167.046 6.336.172 9.501.298a526 526 0 0 1 47.737 4.08 505 505 0 0 1 7.555 1.099 528 528 0 0 1 19.15 3.289c11.907 2.272 23.801 4.855 35.489 8.082 4.731 1.306 9.422 2.775 14.011 4.521.983.374 1.957.767 2.932 1.161-2.507-1.013.747.363 1.333.637a82 82 0 0 1 6.864 3.595c1.901 1.119 3.656 2.45 5.529 3.604 1.17.721-.36-.32-.495-.426q.59.466 1.167.948a51 51 0 0 1 2.968 2.669 47 47 0 0 1 2.406 2.514c.628.709 1.793 2.341.595.618 1.457 2.096 2.826 4.2 3.951 6.499.234.478.466.959.677 1.448-.208-.481-.735-2.092-.06.059.315 1.004.651 1.997.92 3.015.312 1.184.493 2.39.772 3.579.32 1.362-.045-.411-.061-.602.058.697.137 1.391.181 2.09.157 2.467.054 4.904-.106 7.367-.151 2.322.302-1.241-.129 1.06-.264 1.405-.54 2.804-.89 4.19-.574 2.273-1.325 4.476-2.119 6.679-.632 1.754.696-1.499-.061.211q-.33.746-.678 1.484a64 64 0 0 1-1.998 3.866 63 63 0 0 1-3.801 5.942c-.771 1.07.033-.016.172-.191a57 57 0 0 1-1.372 1.663 69 69 0 0 1-2.624 2.888 82 82 0 0 1-5.927 5.586c-.466.398-2.342 1.941-1.983 1.658.936-.738-.958.711-1.145.848q-.939.686-1.894 1.349c-4.48 3.115-9.204 5.867-14.058 8.356a169 169 0 0 1-6.889 3.332 235 235 0 0 1-3.774 1.676c-1.221.532-.197.092.044-.009-.725.306-1.453.603-2.182.899-5.329 2.169-10.724 4.175-16.138 6.121-46.191 16.6-94.278 27.344-142.73 34.808-23.834 3.672-47.222 6.432-71.958 8.919-24.437 2.457-48.916 4.464-73.403 6.352-36.025 2.777-71.947 4.547-108.093 4.297-39.022-.27-77.989-1.984-116.829-5.819-9.531-.941-19.051-1.962-28.551-3.19-.627-.081-3.257-.429-2.714-.356 1.04.141-.629-.087-.675-.094l-1.519-.211a709 709 0 0 1-7.539-1.093q-6.661-1.002-13.3-2.141c-16.849-2.896-33.665-6.001-50.159-10.549a194 194 0 0 1-20.759-7.025c-4.142-1.663-9.076 1.814-10.164 5.771-1.295 4.713 1.613 8.494 5.771 10.164Z"/></svg>