<?xml version="1.0" encoding="UTF-8"?><svg xmlns="http://www.w3.org/2000/svg" data-name="ARTWORK" viewBox="0 0 1000 1000"><path d="M104.582 341.757c92.085-33.734 184.298-67.117 276.319-101.022 95.161-35.062 190.362-70.016 285.417-105.366 46.63-17.341 93.255-34.697 139.867-52.085a45518 45518 0 0 0 67.716-25.315 74362 74362 0 0 0 32.449-12.171c5.226-1.962 10.423-4.051 15.693-5.893a44 44 0 0 1 4.237-1.26c3.979-.961-1.83-.054 2.231-.191 3.585-.122-1.281-.734 2.205.139.577.145 4.341 1.764 1.684.368.945.497 1.834 1.037 2.755 1.574-2.683-1.566-.384-.138.284.421 2.207 1.846-1.07-2.3.197.233.385.769 1.444 3.444.296.111.309.898.618 1.778.849 2.701.215.861.403 3.84.177.247.129 2.046.216 4.045.087 6.097-.041.648-.535 4.125.023.632a72 72 0 0 1-.573 3.194 73 73 0 0 1-1.631 6.364 91 91 0 0 1-2.115 6.159c-.253.66-.52 1.314-.779 1.972 1.409-3.583-1.073 2.463-1.337 3.071a1638 1638 0 0 1-31.775 68.67c-21.933 44.701-45.815 88.429-71.089 131.324-50.448 85.619-106.363 167.85-163.141 249.357-29.332 42.107-58.872 84.068-88.076 126.264-14.769 21.339-29.463 42.729-44.007 64.221a5733 5733 0 0 0-21.755 32.38l-2.775 4.166c-.21.316-3.483 4.429-1.067 1.803-.544.592-2.982 2.38-.348.669-.702.456-3.44 1.608-.296.497-.928.328-1.85.532-2.795.791 3.192-.875.819-.248-.28-.197-3.138.147 2.199.249.227 0a14 14 0 0 1-1.386-.392q2.524 1.152.526.192c-.81-.527-2.574-2.288-.531-.157-.563-.587-2.104-2.893-.602-.393-.567-.944-1.082-1.857-1.543-2.86-.113-.245-.21-.499-.318-.746-.621-1.425-1.218-2.861-1.827-4.291-.487-1.144-.948-2.304-1.463-3.436-.614-1.352 1.575 3.907.424 1.062l-1.061-2.62-4.388-10.818-25.971-64.022a70234 70234 0 0 1-55.137-136.372c-6.022-14.935-11.22-32.047-20.474-45.087-15.324-21.594-41.352-27.172-65.351-34.209-26.129-7.662-52.448-14.602-78.914-21a2004 2004 0 0 0-79.747-17.566c-16.935-3.37-34.062-5.968-50.879-9.909a295 295 0 0 1-17.589-4.675c-2.86-.86-5.706-1.77-8.528-2.746a175 175 0 0 1-6.857-2.529c-.866-.341-4.483-1.487-.501-.168-5.497-1.82-10.536-5.247-15.369-8.325-2.113-1.346 2.477 2.186.668.527-.301-.276-.635-.526-.942-.796-.885-.776-1.654-1.658-2.51-2.458-1.751-1.636.952-.359.691.998.035-.184-.777-1.102-.883-1.304-.219-.415-.462-.954-.738-1.33-1.196-1.627 1.338 3.674.452.906-.967-3.024.079 1.947.009.714-.211-3.686-.83 2.999-.121.113.892-3.631-1.568 2.2.065-.385.324-.512.636-1.048.946-1.569 1.449-2.433-.479.564-.48.561-.134-.385 2.269-2.442 2.565-2.725.728-.699 4.993-3.959 2.014-1.853a112 112 0 0 1 11.316-7.048c6.3-3.415 8.298-12.117 4.762-18.162-3.723-6.365-11.837-8.191-18.162-4.762-13.516 7.326-29.69 18.606-29.521 35.83.138 14.029 12.186 24.035 23.506 30.146 24.359 13.15 52.096 17.755 78.961 22.751 54.683 10.17 108.76 22.909 162.503 37.195 13.336 3.545 26.743 7.014 39.922 11.109 10.465 3.251 19.133 6.597 26.124 14.667 5.579 6.441 8.869 15.699 12.277 24.123 15.983 39.515 31.992 79.02 47.893 118.569 15.89 39.522 32.336 78.88 47.542 118.665.377.987.745 1.978 1.132 2.961 3.62 9.196 10.169 16.46 19.942 19.209 10.92 3.072 23.34-.527 30.633-9.27 4.495-5.388 8.122-11.623 12.047-17.431a5834 5834 0 0 1 12.122-17.863c29.817-43.76 60.189-87.137 90.599-130.486 58.809-83.832 117.656-167.766 172.068-254.548 26.911-42.921 52.688-86.566 76.708-131.175 24.476-45.456 47.815-91.935 67.486-139.698 7.177-17.426 11.59-42.086-4.505-56.198-10.953-9.604-26.149-11.07-39.528-6.12-10.991 4.066-21.937 8.257-32.906 12.382-46.39 17.443-92.782 34.878-139.184 52.287-97.034 36.405-194.067 72.811-291.026 109.417a49842 49842 0 0 0-285.406 108.732A81630 81630 0 0 0 99.3 322.598c-5.002 1.929-8.46 6.678-6.937 12.218 1.333 4.851 7.156 8.792 12.218 6.937Z"/><path d="M381.605 486.075c37.851-27.713 75.542-55.613 112.96-83.911L606.91 317.2c36.72-27.771 73.443-55.539 109.934-83.611 36.919-28.402 73.652-57.051 109.963-86.228 35.836-28.795 71.233-58.135 106.129-88.062q6.46-5.541 12.9-11.108c4.203-3.633 4.003-11.291 0-14.966-4.48-4.113-10.48-3.871-14.966 0a4273 4273 0 0 1-105.833 88.381 5189 5189 0 0 1-53.794 42.861 6461 6461 0 0 1-27.308 21.356 7575 7575 0 0 1-13.477 10.458l-3.482 2.694-1.306 1.01c-1.449 1.12 1.001-.773-.448.347a9211 9211 0 0 1-6.971 5.378c-36.469 28.105-73.137 55.952-109.818 83.779Q552.659 331.798 496.88 374.1c-37.794 28.666-75.606 57.324-112.81 86.753-4.538 3.59-9.102 7.148-13.658 10.716-3.609 2.827-3.243 8.865-.722 12.128 2.572 3.329 8.189 5.107 11.915 2.379Z"/><path d="m364.689 474.697-44.575 154.659c-6.646 23.061-13.332 46.337-14.938 70.283 18.587-1.525 35.361-11.253 51.415-20.744l58.002-34.289c6.77-4.002 14.362-9.325 14.593-17.186.145-4.937-2.768-9.366-5.358-13.572-11.033-17.917-17.988-37.988-24.857-57.876l-21.568-62.444"/><path d="M354.574 471.908c-9.652 29.299-18.627 58.791-27.452 88.349-4.386 14.69-8.797 29.372-13.036 44.105-4.155 14.44-8.463 28.848-12.312 43.374-2.131 8.045-4.079 16.142-5.627 24.321-.954 5.04-1.703 10.104-2.38 15.188-.547 4.114-1.037 8.244-1.174 12.394-.1 3.024 1.444 6.84 3.686 8.898 2.287 2.099 5.666 4.077 8.898 3.686 7.243-.878 14.387-2.282 21.29-4.681 6.728-2.338 13.273-5.298 19.586-8.589 11.867-6.187 23.246-13.35 34.754-20.17l36.496-21.63c5.565-3.298 11.382-6.628 15.887-11.352 3.101-3.252 5.171-6.644 6.784-10.791 1.653-4.251 1.555-8.902.745-13.313-.768-4.184-2.878-8.176-5.07-11.788-1.867-3.076-3.747-6.134-5.472-9.294-3.499-6.41-6.615-13.025-9.464-19.747l1.209 2.864c-4.793-11.361-8.855-23.001-12.878-34.65l-12.973-37.56-7.297-21.128c-1.009-2.92-2.693-5.451-5.418-7.046-2.527-1.479-6.251-2.105-9.084-1.188-2.853.923-5.605 2.691-7.046 5.418-1.429 2.704-2.222 6.092-1.188 9.084l18.406 53.289c6.023 17.439 11.731 35.019 19.341 51.853a168 168 0 0 0 6.566 13.045c2.287 4.074 5.084 7.931 6.962 12.219l-1.224-2.9c.594 1.424 1.043 2.868 1.275 4.395l-.434-3.228a13.8 13.8 0 0 1-.01 3.487l.434-3.229a14 14 0 0 1-.813 2.956l1.225-2.903a17 17 0 0 1-2.06 3.545l1.901-2.46c-1.48 1.912-3.256 3.537-5.164 5.013l2.462-1.902c-5.084 3.86-10.854 6.849-16.341 10.084l-18.702 11.028c-12.248 7.223-24.435 14.564-36.77 21.638-6.33 3.63-12.771 7.083-19.49 9.945l2.934-1.238c-5.558 2.342-11.282 4.244-17.2 5.434l3.27-.439c-1.678.197-3.348.449-5.022.682l3.291-.442a70 70 0 0 1-5.696.521l12.584 12.584c.414-3.976.77-7.955 1.294-11.919l-.453 3.37c1.869-13.882 5.143-27.52 8.841-41.015 3.79-13.828 7.875-27.578 11.852-41.353 4.021-13.927 7.861-27.904 11.742-41.87s7.83-27.913 11.544-41.924c4.185-15.79 8.294-31.585 12.224-47.44.665-2.684.352-5.674-1.057-8.083-1.273-2.176-3.768-4.251-6.269-4.821-5.773-1.315-11.064 1.743-12.904 7.326Zm319.707 194.758a219 219 0 0 1-.998 9.879l-.162 1.281c.247-2.003-.005.014-.063.419a223 223 0 0 1-2.272 13.054c-1.763 8.603-4.1 17.074-6.908 25.394a236 236 0 0 1-4.704 12.711c-.369.917-.749 1.829-1.126 2.743-.584 1.418.662-1.5.039-.102-.172.386-.334.776-.503 1.163a240 240 0 0 1-2.97 6.537 250 250 0 0 1-12.441 23.097 276 276 0 0 1-14.763 21.862q-.896 1.197-1.802 2.386c-1.219 1.605-.072.091.154-.196l-1.053 1.343a277 277 0 0 1-4.299 5.314 285 285 0 0 1-8.715 10.017 295 295 0 0 1-19.181 19.172 304 304 0 0 1-17.533 14.819c-.307.24-1.799 1.391-.534.42 1.389-1.066-.823.623-.885.67a316 316 0 0 1-45.6 28.789 354 354 0 0 1-12.13 6.01 317 317 0 0 1-9.157 4.132l-1.204.517c-1.42.619 2.277-.941.127-.054-8.333 3.438-16.786 6.564-25.378 9.292s-17.269 5.069-26.051 7.017a293 293 0 0 1-19.64 3.662c-.937.142-2.527.699-3.435.498.218.048 3.135-.401.797-.107-.716.09-1.432.183-2.149.27-10.351 1.261-20.779 1.983-31.206 2.085a231 231 0 0 1-16.651-.423 205 205 0 0 1-8.015-.659c-1.243-.127-2.483-.273-3.723-.416-2.494-.287-.176.002.278.05-.882-.093-1.762-.253-2.639-.388-10.845-1.674-21.55-4.35-31.805-8.276a139 139 0 0 1-1.976-.774c-.389-.156-2.479-1.044-.876-.35 1.497.648-.144-.072-.373-.176-.645-.293-1.293-.579-1.936-.877a122 122 0 0 1-7.339-3.692 115 115 0 0 1-12.393-7.829c-.409-.297-3.202-2.348-1.596-1.178 1.441 1.05.163.117-.104-.103-.474-.39-.953-.774-1.425-1.167a112 112 0 0 1-5.5-4.897c-3.553-3.382-6.833-7.01-9.926-10.815-1.494-1.838 1.532 2.085-.431-.585a99 99 0 0 1-5.977-9.131 93 93 0 0 1-3.18-5.991c-.459-.947-.877-1.912-1.326-2.863-.77-1.633.926 2.358.279.674-.269-.7-.556-1.391-.82-2.093a82 82 0 0 1-3.795-13.361c-.09-.465-.786-2.9-.536-3.096-.129.101.318 2.917.113.838-.059-.598-.132-1.194-.187-1.792a74 74 0 0 1-.319-7.234c.01-2.176.225-4.316.357-6.484.091-1.493-.217 1.423-.208 1.377.116-.555.169-1.138.264-1.699q.323-1.909.758-3.795a68 68 0 0 1 1.743-6.219c.363-1.093.77-2.167 1.167-3.248.133-.363.759-1.732-.017-.026-.886 1.949.177-.386.368-.803a75 75 0 0 1 7.632-13.024c.285-.389 1.432-1.937.274-.39s.751-.882 1.146-1.344a72 72 0 0 1 4.699-4.998c1.537-1.484 3.164-2.846 4.792-4.226 1.323-1.121-2.047 1.485-.631.487.461-.325.91-.667 1.372-.992a65 65 0 0 1 3.166-2.096 62 62 0 0 1 5.13-2.857c.499-.247 1.01-.472 1.508-.722 1.673-.84-.272.612-.813.311.349.194 2.584-.993 3.119-1.177a55 55 0 0 1 6.412-1.783c.953-.203 1.914-.345 2.87-.527 1.435-.273-1.422.179-1.374.181.782.037 1.722-.174 2.508-.226a51 51 0 0 1 5.927-.042c.989.051 2.292.42 3.257.272-.206.031-3.299-.547-1.14-.145.627.117 1.257.215 1.882.34a51.6 51.6 0 0 1 7.967 2.258c.466.173.923.374 1.391.539 1.443.509-3.007-1.43-.68-.263 3.489 1.75 6.626 3.765 9.89 5.883 1.125.73-1.146-.914-1.109-.871.287.333.811.649 1.164.941q1.156.958 2.265 1.97a67 67 0 0 1 6.269 6.565c.242.292.467.61.723.888 1.104 1.2-1.501-2.125-.588-.77 1.149 1.705 2.396 3.333 3.495 5.076a80 80 0 0 1 2.924 5.043c.806 1.516 1.539 4.448 2.726 5.64-.145-.146-1.17-2.93-.373-.878.19.49.389.976.577 1.467a86 86 0 0 1 2.79 8.65q.762 2.875 1.324 5.796c.199 1.039.361 2.083.54 3.126.07.407.259 1.84-.006-.131-.299-2.216.006.167.058.659.428 4.059.56 8.152.368 12.229-.09 1.923-.546 3.959-.5 5.873-.089-3.662.088-.752-.131.467a70 70 0 0 1-.621 3.065c-1.083 4.792-2.562 9.499-4.36 14.07-.169.43-.349.856-.517 1.286-.652 1.672.972-2.138.21-.514-.457.974-.882 1.963-1.346 2.935a110 110 0 0 1-3.631 6.946 122 122 0 0 1-7.824 12.02c-.161.219-1.143 1.389-1.114 1.49-.01-.033 1.503-1.898.585-.757-.78.97-1.551 1.946-2.346 2.905a148 148 0 0 1-4.936 5.645 167 167 0 0 1-10.381 10.321c-3.636 3.32-7.429 6.44-11.27 9.516-1.416 1.134 1.796-1.349.342-.264-.382.285-.759.577-1.14.864q-1.525 1.146-3.069 2.267a237 237 0 0 1-6.24 4.377c-8.487 5.756-17.331 10.982-26.369 15.821a341 341 0 0 1-25.468 12.309c-.636.276-1.277.587-1.925.828 1.025-.38 1.493-.621.191-.084-10.012 4.131-20.189 7.84-30.535 11.05a354.5 354.5 0 0 1-47.918 11.276c-2.587.422-5.182.788-7.773 1.179-1.519.229.749-.093.858-.109-.689.106-1.387.182-2.079.27q-2.34.297-4.683.562c-21.553 2.441-43.231 2.775-64.866 1.328a340 340 0 0 1-15.645-1.409c-2.6-.295-5.182-.631-7.793-.798a338 338 0 0 1-4.147-.292c-.665-.051-4.806-.489-1.989-.01-6.152-1.047-13.196 1.626-14.731 8.364-1.321 5.8 1.76 13.607 8.364 14.731 2.715.462 5.411 1.335 8.108 1.947 3.688.837 7.396 1.314 11.148 1.796q8.582 1.1 17.208 1.766c11.311.873 22.696 1.048 34.034.733 23.481-.653 46.997-3.605 69.931-8.678 23.14-5.118 45.571-12.677 67.292-22.124 20.041-8.716 39.516-19.228 57.258-32.027 33.848-24.42 65.708-60.711 65.509-104.882-.165-36.493-23.274-77.944-61.673-84.975-21.934-4.016-43.017 3.069-59.709 17.485-16.186 13.979-26.142 34.269-28.282 55.41s5.107 43.183 16.864 60.494c12.207 17.973 29.165 32.837 48.891 42.041 42.564 19.86 92.009 18.86 137.195 9.642 37.818-7.715 74.446-22.763 106.952-43.541 32.889-21.022 61.847-47.735 84.899-79.253 22.042-30.136 37.617-65.151 44.592-101.863a248 248 0 0 0 3.742-28.956c.349-5-4.647-9.782-9.561-9.561-5.523.247-9.132 4.207-9.561 9.561ZM488.748 245.478c11.204 14.598 21.696 29.747 31.369 45.403s18.576 31.806 26.663 48.345a568 568 0 0 1 12.947 28.451l-.898-2.127a586 586 0 0 1 18.831 51.176 557 557 0 0 1 13.859 52.754c2.115 10.033 3.983 20.129 5.888 30.204.377 1.994 2.307 4.365 4.074 5.298 1.791.946 3.637 1.323 5.653 1.052 1.86-.25 3.783-1.014 5.09-2.438 1.478-1.61 2.874-3.993 2.597-6.269-.638-5.237-1.234-10.5-2.178-15.692a553 553 0 0 0-8.918-40.376 560 560 0 0 0-16.531-52.674c-6.582-17.846-14.15-35.369-22.494-52.461-8.075-16.54-16.962-32.684-26.624-48.35s-20.081-30.885-31.24-45.532a750 750 0 0 0-5.183-6.718c-1.153-1.478-4.007-2.487-5.809-2.406-1.855.083-3.501.623-4.978 1.764-1.358 1.049-2.552 2.547-2.944 4.267-.455 1.998-.482 4.623.828 6.33Zm133.066-31.299c8.656 15.055 16.149 30.704 22.914 46.691l-.908-2.151c10.794 25.59 18.582 52.175 23.919 79.412a398 398 0 0 1 3.852 23.222l-.335-2.492c1.739 12.975 2.35 26.064 4.105 39.029l-.307-2.281q.149 1.11.293 2.221c.298 2.303.735 4.196 2.447 5.908 1.449 1.449 3.826 2.54 5.908 2.447 4.803-.215 8.008-3.675 8.355-8.355.957-12.923-.408-25.924-2.025-38.749-1.71-13.562-3.991-27.008-7.167-40.306-6.126-25.645-14.823-50.824-26.04-74.695-6.164-13.117-13.286-25.828-20.984-38.102-2.256-3.597-7.346-5.343-11.113-2.914-3.719 2.398-5.181 7.17-2.914 11.113ZM433.602 329.788l33.802 51.314a485 485 0 0 0 9.889 14.444c1.325 1.863 2.858 3.32 5.132 3.946 2.055.566 4.792.31 6.617-.866 3.828-2.468 5.61-7.662 3.081-11.748-5.394-8.712-11.137-17.181-16.841-25.692l-17.111-25.534-9.738-14.532c-1.25-1.866-2.919-3.337-5.132-3.946-2.055-.566-4.792-.31-6.617.866-3.738 2.41-5.723 7.736-3.081 11.748Zm69.487 123.264c3.619 9.434 6.912 19.093 11.136 28.274.769 1.671 3.102 3.334 4.854 3.733 1.816.414 3.564.318 5.289-.409 3.566-1.505 5.954-5.705 4.703-9.582-1.447-4.484-3.281-8.827-5.016-13.206l-5.212-13.152c-.811-2.048-1.784-3.729-3.754-4.882-1.751-1.025-4.332-1.459-6.295-.824-1.977.64-3.884 1.865-4.882 3.754-.969 1.835-1.599 4.273-.824 6.295Z"/></svg>