<svg width="220" height="49" viewBox="0 0 220 49" fill="none" xmlns="http://www.w3.org/2000/svg">
<g id="Vector">
<path d="M219.526 4.49137C219.21 3.78236 218.816 3.15213 218.263 2.60068C217.71 2.04923 217.078 1.65534 216.368 1.34023C215.657 1.02511 214.867 0.867556 214.078 0.867556C213.288 0.867556 212.419 1.02511 211.709 1.34023C210.998 1.65534 210.287 2.04923 209.734 2.60068C209.182 3.15213 208.787 3.78236 208.471 4.49137C208.155 5.20037 207.997 5.98816 207.997 6.85472C207.997 7.72128 208.234 8.98174 208.787 9.8483C209.34 10.7149 210.05 11.5026 210.998 11.9753C211.945 12.5268 212.972 12.7631 214.078 12.7631C215.183 12.7631 215.657 12.6055 216.368 12.2904C217.078 11.9753 217.71 11.5814 218.263 11.03C218.816 10.4785 219.21 9.8483 219.526 9.13929C219.842 8.43029 220 7.6425 220 6.77594C220 5.90938 219.842 5.20037 219.526 4.49137ZM217.868 9.06051C217.473 9.76952 216.92 10.2422 216.289 10.6361C215.657 11.03 214.867 11.1875 214.078 11.1875C213.288 11.1875 212.419 11.03 211.788 10.6361C211.077 10.2422 210.524 9.69074 210.129 9.06051C209.734 8.35151 209.498 7.6425 209.498 6.77594C209.498 5.90938 209.734 5.20037 210.129 4.57014C210.524 3.86114 211.077 3.38847 211.788 2.99457C212.498 2.60068 213.209 2.36435 214.078 2.36435C214.946 2.36435 215.578 2.60068 216.289 2.99457C216.92 3.38847 217.473 3.93992 217.868 4.57014C218.263 5.27915 218.421 5.98816 218.421 6.77594C218.421 7.56372 218.263 8.35151 217.868 8.98174V9.06051Z" fill="var(--fill-0, #120C2B)"/>
<path d="M216.051 7.00937C216.446 6.69425 216.683 6.22158 216.683 5.67013C216.683 5.11868 216.525 4.72479 216.13 4.3309C215.735 3.93701 215.261 3.85823 214.63 3.85823H211.708V9.60905H213.603V7.56081H214.077L214.945 9.60905H216.999L215.735 7.2457C215.814 7.2457 215.972 7.08814 216.051 7.00937ZM214.551 6.22158C214.393 6.30036 214.235 6.37914 214.077 6.37914H213.603V5.35502H214.156C214.393 5.35502 214.551 5.35502 214.63 5.51257C214.709 5.59135 214.788 5.74891 214.788 5.90647C214.788 6.06402 214.788 6.1428 214.63 6.30036L214.551 6.22158Z" fill="var(--fill-0, #120C2B)"/>
<path d="M11.1342 26.6284C10.5025 26.6284 10.1077 25.8406 10.5815 25.368L26.3747 7.80037C26.5326 7.64281 26.5326 7.48525 26.5326 7.3277V1.57687C26.5326 1.18298 26.2168 0.789084 25.743 0.789084H0.947597C0.552766 0.789084 0.157936 1.1042 0.157936 1.57687V7.09136C0.157936 7.48525 0.4738 7.87914 0.947597 7.87914H15.0825C15.7143 7.87914 16.1091 8.66693 15.6353 9.1396L0.157936 26.7072C3.61198e-06 26.8648 0 27.0223 0 27.1799V32.9307C0 33.3246 0.315864 33.7185 0.789661 33.7185H26.1378C26.5326 33.7185 26.9274 33.4034 26.9274 32.9307V27.4162C26.9274 27.0223 26.6116 26.6284 26.1378 26.6284H11.1342Z" fill="var(--fill-0, #120C2B)"/>
<path d="M54.092 2.12702C51.644 0.709007 48.7223 0 45.4847 0C42.2471 0 39.0095 0.709006 36.4825 2.2058C33.9556 3.70259 31.9025 5.75083 30.4811 8.4293C29.0597 11.1078 28.349 14.1013 28.349 17.4888C28.349 20.8763 29.0597 23.7911 30.5601 26.3908C32.0604 28.9905 34.0346 30.9599 36.6405 32.3779C39.2464 33.796 42.1681 34.505 45.4847 34.505C48.8013 34.505 50.5385 34.0323 52.6706 33.0082C54.8027 31.9841 56.5399 30.7236 57.9613 28.9905C59.1458 27.5725 60.0934 26.0757 60.7251 24.3425C60.8831 23.8699 60.5672 23.3184 60.0145 23.3184H52.9075C52.5916 23.3184 52.3547 23.476 52.1968 23.7123C51.644 24.7364 50.8544 25.603 49.7489 26.312C48.5644 27.0998 47.143 27.4937 45.4057 27.4937C43.6685 27.4937 41.1416 26.7847 39.4833 25.2879C38.0619 24.0274 37.1932 22.2943 36.8774 20.1673C36.8774 19.6946 37.1932 19.3007 37.667 19.3007H61.1989C61.5938 19.3007 61.9096 18.9856 61.9886 18.5917C61.9886 18.2766 61.9886 17.9615 61.9886 17.6464C61.9886 17.0949 61.9886 16.6223 61.9886 16.1496C61.9886 13.156 61.2779 10.3988 59.8565 7.95662C58.4351 5.51449 56.5399 3.54503 54.013 2.12702H54.092ZM52.5127 14.0226H37.9039C37.4301 14.0226 37.0353 13.5499 37.1933 13.0772C37.746 11.1865 38.6936 9.68975 40.036 8.74441C41.6153 7.56273 43.5105 7.01128 45.5636 7.01128C47.6168 7.01128 49.5909 7.64151 51.0123 8.90197C52.2758 10.0049 53.0654 11.4229 53.3023 13.156C53.3023 13.6287 52.9865 14.0226 52.5127 14.0226Z" fill="var(--fill-0, #120C2B)"/>
<path d="M84.6512 0C82.0453 0 79.7553 0.55145 77.8601 1.73313C76.5177 2.52091 75.4122 3.46625 74.5435 4.64793C74.1487 5.19938 73.2801 4.96304 73.2011 4.25404L72.8852 1.49679C72.8852 1.1029 72.4904 0.787785 72.0956 0.787785H66.0152C65.6204 0.787785 65.2255 1.1029 65.2255 1.57557V32.9294C65.2255 33.3233 65.5414 33.7172 66.0152 33.7172H72.9642C73.359 33.7172 73.7539 33.4021 73.7539 32.9294V16.701C73.7539 13.7075 74.5435 11.3441 76.0439 9.68975C77.5442 8.0354 79.5184 7.16884 81.9663 7.16884C84.4143 7.16884 86.2305 7.95662 87.336 9.45341C88.5205 10.9502 89.0733 13.156 89.0733 15.992V33.0082C89.0733 33.4021 89.3892 33.796 89.863 33.796H96.812C97.2068 33.796 97.6016 33.4808 97.6016 33.0082V15.2042C97.6016 10.2412 96.4961 6.45983 94.2061 3.93892C91.9161 1.33923 88.7574 0.0787788 84.7302 0.0787788L84.6512 0Z" fill="var(--fill-0, #120C2B)"/>
<path d="M126.346 2.12702C123.898 0.709007 120.976 0 117.739 0C114.501 0 111.264 0.709006 108.737 2.2058C106.21 3.70259 104.157 5.75083 102.735 8.4293C101.314 11.1078 100.603 14.1013 100.603 17.4888C100.603 20.8763 101.314 23.7911 102.814 26.3908C104.315 28.9905 106.289 30.9599 108.895 32.3779C111.5 33.796 114.422 34.505 117.739 34.505C121.055 34.505 122.793 34.0323 124.925 33.0082C127.057 32.0628 128.794 30.7236 130.215 28.9905C131.4 27.5725 132.347 26.0757 132.979 24.3425C133.137 23.8699 132.821 23.3184 132.269 23.3184H125.162C124.846 23.3184 124.609 23.476 124.451 23.7123C123.898 24.7364 123.108 25.603 122.003 26.312C120.818 27.0998 119.397 27.4937 117.66 27.4937C115.923 27.4937 113.396 26.7847 111.737 25.2879C110.316 24.0274 109.447 22.2943 109.131 20.1673C109.131 19.6946 109.447 19.3007 109.921 19.3007H133.453C133.848 19.3007 134.164 18.9856 134.243 18.5917C134.243 18.2766 134.243 17.9615 134.243 17.6464C134.243 17.0949 134.243 16.6223 134.243 16.1496C134.243 13.156 133.532 10.3988 132.111 7.95662C130.689 5.51449 128.794 3.54503 126.267 2.12702H126.346ZM124.767 14.0226H110.158C109.684 14.0226 109.289 13.5499 109.447 13.0772C110 11.1865 110.948 9.68975 112.29 8.74441C113.869 7.56273 115.765 7.01128 117.818 7.01128C119.871 7.01128 121.845 7.64151 123.266 8.90197C124.53 10.0049 125.32 11.4229 125.556 13.156C125.556 13.6287 125.241 14.0226 124.767 14.0226Z" fill="var(--fill-0, #120C2B)"/>
<path d="M203.97 0.787784H196.626C196.31 0.787784 196.073 0.945342 195.915 1.26046L187.229 22.2155C186.992 22.8457 186.044 22.8457 185.807 22.2155L177.437 1.26046C177.358 0.945342 177.042 0.787784 176.726 0.787784H157.774C157.774 0.787784 157.616 0.787784 157.537 0.787784C155.958 0.315114 154.3 0 152.484 0C149.641 0 147.193 0.551449 145.219 1.57557C143.245 2.59969 141.665 4.09648 140.56 5.90838C139.454 7.72029 138.901 9.76853 138.901 11.9743C138.901 15.2042 139.928 17.8039 142.06 20.0097C142.06 20.0097 142.06 20.0097 142.139 20.0097C143.955 21.5065 146.719 23.2396 150.431 23.7911C151.062 23.7911 151.773 23.8699 152.405 23.8699C155.169 23.8699 157.537 23.3184 159.591 22.2943C161.644 21.2702 163.144 19.7734 164.25 17.9615C165.355 16.1496 165.829 14.1013 165.829 11.8955C165.829 9.68975 165.513 8.74441 164.96 7.24762C164.802 6.77495 165.118 6.2235 165.592 6.2235L169.54 5.90838C169.856 5.90838 170.172 6.06594 170.33 6.38105L179.806 29.0692C179.885 29.3844 180.201 29.5419 180.517 29.5419H182.491C183.044 29.5419 183.438 30.1721 183.201 30.6448L175.7 47.1095C175.463 47.5822 175.858 48.2124 176.41 48.2124H183.754C184.07 48.2124 184.307 48.0549 184.465 47.7397L204.759 1.73313C204.996 1.26046 204.601 0.630228 204.049 0.630228L203.97 0.787784ZM156.748 15.992C155.642 16.9374 154.221 17.41 152.484 17.41C150.746 17.41 149.167 16.9374 148.062 15.992C146.956 15.0467 146.403 13.7074 146.403 11.9743C146.403 10.2412 146.956 8.90196 148.062 7.95662C149.167 7.01128 150.667 6.53861 152.484 6.53861C154.3 6.53861 155.642 7.01128 156.748 7.95662C157.853 8.90196 158.406 10.2412 158.406 11.9743C158.406 13.7074 157.853 15.0467 156.748 15.992Z" fill="var(--fill-0, #120C2B)"/>
<path d="M164.407 30.7234C162.433 29.0691 159.196 27.9662 154.852 27.5723C151.931 27.3359 149.878 27.0208 148.614 26.7845C147.351 26.5481 146.324 26.1542 145.534 25.7604C143.797 25.0513 142.376 24.1848 141.112 23.3182C140.796 23.0819 140.402 23.1607 140.086 23.397L136.927 26.7057L136.137 27.4935L136.927 28.2025C137.401 28.6752 137.954 29.1478 138.585 29.6205C138.98 29.8568 139.375 30.0932 139.849 30.3295C140.323 30.5658 140.402 31.1961 140.007 31.59C137.717 33.5594 136.611 35.9228 136.611 38.5225C136.611 41.1222 138.033 44.6672 140.954 46.4003C143.797 48.1334 147.667 49 152.326 49C156.985 49 158.643 48.4485 160.854 47.3457C163.065 46.2428 164.723 44.8247 165.75 43.0916C166.776 41.3585 167.329 39.4678 167.329 37.5771C167.329 34.5835 166.303 32.299 164.328 30.6446L164.407 30.7234ZM157.537 41.3585C156.195 42.2251 154.458 42.6189 152.326 42.6189C150.193 42.6189 148.219 42.2251 146.719 41.3585C145.219 40.5707 144.429 39.3103 144.429 37.6559C144.429 36.0016 144.745 35.9228 145.298 35.0562C145.85 34.2684 146.64 33.5594 147.824 32.8504C147.982 32.7716 148.14 32.6929 148.298 32.7716C149.799 33.008 151.378 33.1655 153.115 33.3231C155.721 33.4806 157.379 33.9533 158.248 34.8199C159.117 35.6077 159.511 36.6318 159.511 37.8135C159.511 38.9951 158.88 40.4131 157.537 41.2797V41.3585Z" fill="var(--fill-0, #120C2B)"/>
</g>
</svg>
